<?xml version="1.0" encoding="UTF-8" standalone="no"?>
<svg xmlns:xlink="http://www.w3.org/1999/xlink" height="265.5px" width="202.1px" xmlns="http://www.w3.org/2000/svg">
  <g transform="matrix(1.0, 0.0, 0.0, 1.0, -181.95, -82.9)">
    <path d="M278.6 279.2 L276.6 277.55 275.95 275.55 278.6 279.2" fill="#725832" fill-rule="evenodd" stroke="none"/>
    <path d="M280.9 281.85 L280.6 282.85 278.6 279.2 280.9 281.85 M275.95 275.55 L274.65 274.25 274.3 272.6 274.65 271.9 275.95 275.55" fill="#574426" fill-rule="evenodd" stroke="none"/>
    <path d="M294.5 217.6 Q301.45 228.2 312.35 237.15 325.3 245.45 345.45 247.75 L326.95 248.75 326.25 248.75 314.7 244.1 317.35 245.45 320.3 251.4 320.0 260.0 317.35 252.05 Q317.35 255.05 317.0 257.7 L308.75 252.7 314.35 259.35 308.4 258.0 313.7 263.65 304.4 259.0 304.1 271.9 299.15 264.65 299.45 271.6 295.8 264.3 Q296.5 267.3 296.8 270.25 L290.2 264.65 299.15 281.5 291.85 275.55 288.85 278.85 281.6 268.95 280.9 281.85 278.6 279.2 275.95 275.55 274.65 271.9 264.7 243.8 267.0 260.35 Q262.4 247.75 257.4 234.85 L256.1 227.55 260.75 232.2 253.45 208.0 260.05 214.65 Q260.4 210.65 260.4 206.35 L266.35 210.65 Q270.35 229.85 273.95 249.05 274.65 244.1 274.95 238.8 L290.5 275.9 Q286.9 260.35 282.9 244.75 L277.3 233.85 Q281.25 235.85 284.9 237.8 L277.6 223.6 275.6 208.35 279.95 211.65 287.55 238.8 286.55 223.25 297.8 249.75 307.75 255.7 298.8 243.1 314.35 250.75 294.5 224.55 291.5 214.65 294.5 217.6" fill="#fb9804" fill-rule="evenodd" stroke="none"/>
    <path d="M274.65 274.25 L274.65 281.2 268.65 271.6 272.65 282.5 267.0 271.9 Q267.35 275.55 267.35 279.2 258.1 251.4 253.1 220.6 L247.8 184.85 Q255.45 181.85 262.7 178.55 282.9 193.8 294.15 206.05 287.85 201.05 278.25 198.4 289.55 207.35 292.5 214.65 L294.5 217.6 291.5 214.65 294.5 224.55 314.35 250.75 298.8 243.1 307.75 255.7 297.8 249.75 286.55 223.25 287.55 238.8 279.95 211.65 275.6 208.35 277.6 223.6 284.9 237.8 Q281.25 235.85 277.3 233.85 L282.9 244.75 Q286.9 260.35 290.5 275.9 L274.95 238.8 Q274.65 244.1 273.95 249.05 270.35 229.85 266.35 210.65 L260.4 206.35 Q260.4 210.65 260.05 214.65 L253.45 208.0 260.75 232.2 256.1 227.55 257.4 234.85 Q262.4 247.75 267.0 260.35 L264.7 243.8 274.65 271.9 274.3 272.6 274.65 274.25" fill="#e18804" fill-rule="evenodd" stroke="none"/>
    <path d="M378.6 271.25 L375.95 276.2 363.0 286.15 342.5 290.8 351.45 292.75 342.8 295.4 322.95 294.45 Q326.6 297.75 330.25 300.7 L298.45 293.1 300.8 300.7 281.9 276.55 286.55 286.15 280.9 281.85 281.6 268.95 288.85 278.85 291.85 275.55 299.15 281.5 290.2 264.65 296.8 270.25 Q296.5 267.3 295.8 264.3 L299.45 271.6 299.15 264.65 304.1 271.9 304.4 259.0 313.7 263.65 308.4 258.0 314.35 259.35 308.75 252.7 317.0 257.7 Q317.35 255.05 317.35 252.05 L320.0 260.0 320.3 251.4 317.35 245.45 333.9 254.7 Q345.45 261.0 356.75 259.65 351.75 263.0 342.8 263.0 L335.2 261.0 327.95 259.0 324.3 259.35 340.2 264.3 349.1 270.9 Q338.2 273.55 326.95 267.6 L333.55 273.55 354.75 275.2 367.0 276.55 378.6 271.25" fill="#ffe6cc" fill-rule="evenodd" stroke="none"/>
    <path d="M378.6 271.25 Q381.55 263.65 381.25 255.05 384.85 264.65 383.85 272.25 375.6 288.45 362.35 299.4 L337.85 307.35 Q325.6 309.0 312.7 304.05 L321.0 310.3 Q293.85 303.35 278.6 294.1 L269.0 284.8 Q268.0 281.85 267.35 279.2 267.35 275.55 267.0 271.9 L272.65 282.5 268.65 271.6 274.65 281.2 274.65 274.25 275.95 275.55 276.6 277.55 278.6 279.2 280.6 282.85 280.9 281.85 286.55 286.15 281.9 276.55 300.8 300.7 298.45 293.1 330.25 300.7 Q326.6 297.75 322.95 294.45 L342.8 295.4 351.45 292.75 342.5 290.8 363.0 286.15 375.95 276.2 378.6 271.25 M335.2 261.0 L340.2 264.3 324.3 259.35 327.95 259.0 335.2 261.0 M349.1 270.9 L354.75 275.2 333.55 273.55 326.95 267.6 Q338.2 273.55 349.1 270.9" fill="#fdce8a" fill-rule="evenodd" stroke="none"/>
    <path d="M247.8 184.85 L246.5 177.9 257.1 174.9 262.7 178.55 Q255.45 181.85 247.8 184.85" fill="#a57063" fill-rule="evenodd" stroke="none"/>
    <path d="M246.5 177.9 L244.85 174.6 255.45 170.6 257.1 174.9 246.5 177.9" fill="#714a42" fill-rule="evenodd" stroke="none"/>
    <path d="M267.35 279.2 Q268.0 281.85 269.0 284.8 L278.6 294.1 Q293.85 303.35 321.0 310.3 L312.7 304.05 Q325.6 309.0 337.85 307.35 L362.35 299.4 Q375.6 288.45 383.85 272.25 384.85 264.65 381.25 255.05 381.55 263.65 378.6 271.25 L375.95 276.2 363.0 286.15 M267.35 279.2 Q258.1 251.4 253.1 220.6 L247.8 184.85 M262.7 178.55 Q282.9 193.8 294.15 206.05 287.85 201.05 278.25 198.4 289.55 207.35 292.5 214.65 L294.5 217.6 Q301.45 228.2 312.35 237.15 325.3 245.45 345.45 247.75 L326.95 248.75 M326.25 248.75 L314.7 244.1 317.35 245.45 333.9 254.7 Q345.45 261.0 356.75 259.65 351.75 263.0 342.8 263.0 L335.2 261.0 340.2 264.3 349.1 270.9 354.75 275.2 367.0 276.55 378.6 271.25 M327.95 259.0 L335.2 261.0 M354.75 275.2 L333.55 273.55" fill="none" stroke="#000000" stroke-linecap="round" stroke-linejoin="round" stroke-opacity="0.4" stroke-width="0.05"/>
    <path d="M247.8 184.85 L246.5 177.9 244.85 174.6 255.45 170.6 257.1 174.9 262.7 178.55 Q255.45 181.85 247.8 184.85 M257.1 174.9 L246.5 177.9" fill="none" stroke="#000000" stroke-linecap="round" stroke-linejoin="round" stroke-opacity="0.4" stroke-width="0.05"/>
    <path d="M234.6 237.5 L235.25 232.85 238.55 243.8 236.9 278.85 Q241.9 271.6 246.5 263.95 L246.2 280.5 251.15 269.25 244.5 238.8 253.45 254.35 243.55 224.9 244.85 219.6 Q248.85 227.2 252.45 234.85 254.15 243.8 255.45 252.4 L259.1 244.45 261.4 257.7 273.65 291.1 264.7 248.4 271.35 257.35 254.45 217.3 257.1 210.0 262.75 218.3 264.05 208.35 Q268.7 221.6 273.0 234.85 L274.0 228.55 277.3 235.85 284.6 264.95 276.65 248.1 285.25 279.2 284.9 278.85 285.25 279.85 286.55 284.15 286.55 288.15 285.25 291.8 277.65 280.85 276.95 293.45 272.35 291.8 269.7 300.7 267.05 280.5 265.05 288.8 Q263.75 285.8 262.05 282.85 L263.75 291.45 259.75 284.8 259.75 294.1 251.5 281.85 245.85 290.45 247.15 282.85 242.85 287.15 243.55 277.85 239.55 286.5 235.9 281.5 238.55 290.45 232.95 282.2 232.6 281.85 Q232.3 278.55 231.6 274.9 232.3 273.55 232.6 272.25 229.3 277.55 225.65 282.5 L225.3 282.85 208.45 290.8 Q224.65 278.55 230.3 264.95 235.25 251.05 234.6 237.5" fill="#fcaf2d" fill-rule="evenodd" stroke="none"/>
    <path d="M237.9 184.5 L254.45 183.2 Q263.4 201.75 272.0 220.25 287.25 252.4 296.15 283.15 L292.2 275.9 Q293.2 282.5 293.85 289.15 L290.55 276.55 290.85 288.45 Q288.55 284.5 285.9 280.5 L285.25 279.2 276.65 248.1 284.6 264.95 277.3 235.85 274.0 228.55 273.0 234.85 Q268.7 221.6 264.05 208.35 L262.75 218.3 257.1 210.0 254.45 217.3 271.35 257.35 264.7 248.4 273.65 291.1 261.4 257.7 259.1 244.45 255.45 252.4 Q254.15 243.8 252.45 234.85 248.85 227.2 244.85 219.6 L243.55 224.9 253.45 254.35 244.5 238.8 251.15 269.25 246.2 280.5 246.5 263.95 Q241.9 271.6 236.9 278.85 L238.55 243.8 235.25 232.85 234.6 237.5 Q234.6 235.5 233.95 233.2 232.3 225.25 236.6 211.0 229.95 218.6 227.3 226.25 229.65 208.7 237.9 184.5 M285.25 279.85 L285.25 279.2 285.9 280.5 285.25 279.85" fill="#f29304" fill-rule="evenodd" stroke="none"/>
    <path d="M193.85 329.2 L207.1 328.85 217.05 321.9 234.9 309.3 Q236.25 305.35 237.25 301.05 230.3 311.95 220.05 314.6 L223.35 304.35 234.25 291.8 230.95 293.45 225.3 298.4 Q222.7 301.4 219.7 304.05 212.75 308.65 206.1 308.0 216.4 303.7 223.35 292.1 L231.6 274.9 Q232.3 278.55 232.6 281.85 L232.95 282.2 238.55 290.45 235.9 281.5 239.55 286.5 243.55 277.85 242.85 287.15 247.15 282.85 245.85 290.45 251.5 281.85 259.75 294.1 259.75 284.8 263.75 291.45 262.05 282.85 Q263.75 285.8 265.05 288.8 L267.05 280.5 269.7 300.7 272.35 291.8 276.95 293.45 277.65 280.85 285.25 291.8 283.6 299.05 281.6 287.45 280.6 320.25 Q279.3 315.95 277.65 311.65 L254.8 334.15 256.75 324.55 Q248.5 330.2 239.9 335.45 L231.3 337.15 237.9 331.15 217.4 336.45 199.5 333.5 193.85 329.2" fill="#fff4e6" fill-rule="evenodd" stroke="none"/>
    <path d="M285.25 279.2 L285.9 280.5 Q288.55 284.5 290.85 288.45 L290.55 276.55 293.85 289.15 Q293.2 282.5 292.2 275.9 L296.15 283.15 297.8 289.15 Q296.85 296.4 295.5 303.35 287.9 319.6 268.35 339.1 270.35 334.15 272.0 328.85 263.4 339.8 252.45 344.4 L225.65 348.4 Q207.1 344.4 190.55 332.85 184.6 326.55 181.95 314.95 186.9 323.25 193.85 329.2 L199.5 333.5 217.4 336.45 237.9 331.15 231.3 337.15 239.9 335.45 Q248.5 330.2 256.75 324.55 L254.8 334.15 277.65 311.65 Q279.3 315.95 280.6 320.25 L281.6 287.45 283.6 299.05 285.25 291.8 286.55 288.15 286.55 284.15 285.25 279.85 284.9 278.85 285.25 279.2 285.25 279.85 285.9 280.5 285.25 279.2 M217.05 321.9 L220.05 314.6 Q230.3 311.95 237.25 301.05 236.25 305.35 234.9 309.3 L217.05 321.9 M223.35 304.35 L225.3 298.4 230.95 293.45 234.25 291.8 223.35 304.35" fill="#fedfb4" fill-rule="evenodd" stroke="none"/>
    <path d="M240.55 178.25 L251.8 176.25 254.45 183.2 237.9 184.5 240.55 178.25" fill="#a57063" fill-rule="evenodd" stroke="none"/>
    <path d="M251.8 176.25 L240.55 178.25 239.25 173.25 250.8 172.25 Q251.5 174.25 251.8 176.25" fill="#714a42" fill-rule="evenodd" stroke="none"/>
    <path d="M296.15 283.15 Q287.25 252.4 272.0 220.25 263.4 201.75 254.45 183.2 M234.6 237.5 Q234.6 235.5 233.95 233.2 232.3 225.25 236.6 211.0 229.95 218.6 227.3 226.25 229.65 208.7 237.9 184.5 M225.3 282.85 L208.45 290.8 Q224.65 278.55 230.3 264.95 235.25 251.05 234.6 237.5 M231.6 274.9 Q232.3 273.55 232.6 272.25 229.3 277.55 225.65 282.5 M296.15 283.15 L297.8 289.15 Q296.85 296.4 295.5 303.35 287.9 319.6 268.35 339.1 270.35 334.15 272.0 328.85 263.4 339.8 252.45 344.4 L225.65 348.4 Q207.1 344.4 190.55 332.85 184.6 326.55 181.95 314.95 186.9 323.25 193.85 329.2 L207.1 328.85 217.05 321.9 220.05 314.6 223.35 304.35 225.3 298.4 Q222.7 301.4 219.7 304.05 212.75 308.65 206.1 308.0 216.4 303.7 223.35 292.1 L231.6 274.9 M217.4 336.45 L199.5 333.5 193.85 329.2 M230.95 293.45 L225.3 298.4 M217.05 321.9 L234.9 309.3" fill="none" stroke="#000000" stroke-linecap="round" stroke-linejoin="round" stroke-opacity="0.4" stroke-width="0.05"/>
    <path d="M240.55 178.25 L251.8 176.25 Q251.5 174.25 250.8 172.25 L239.25 173.25 240.55 178.25 237.9 184.5 254.45 183.2 251.8 176.25" fill="none" stroke="#000000" stroke-linecap="round" stroke-linejoin="round" stroke-opacity="0.4" stroke-width="0.05"/>
    <path d="M227.6 148.1 L232.9 151.4 231.6 166.95 226.95 159.7 229.3 180.55 224.3 174.9 229.3 190.8 232.25 183.5 240.2 196.75 240.2 187.5 248.15 206.05 248.15 196.75 260.05 210.0 Q256.75 208.35 252.45 207.35 L254.75 216.65 Q241.85 210.0 231.9 196.1 L231.9 201.4 Q223.65 196.45 222.3 188.15 218.7 192.45 214.7 196.45 221.65 181.85 222.65 165.65 L215.05 171.3 Q219.35 166.3 222.3 161.0 225.65 155.05 227.6 148.1" fill="#fb9804" fill-rule="evenodd" stroke="none"/>
    <path d="M231.9 139.5 L247.8 144.15 Q248.8 151.1 256.4 157.7 L258.1 159.35 252.1 159.35 254.1 161.0 Q257.1 163.35 259.4 165.65 267.7 173.9 271.3 183.2 L264.7 178.55 Q273.3 193.15 274.65 205.35 269.65 201.4 258.1 200.4 263.05 208.0 264.05 212.35 262.05 211.0 260.05 210.0 L248.15 196.75 248.15 206.05 240.2 187.5 240.2 196.75 232.25 183.5 229.3 190.8 224.3 174.9 229.3 180.55 226.95 159.7 231.6 166.95 232.9 151.4 227.6 148.1 228.3 146.1 221.35 148.75 231.9 139.5" fill="#e18804" fill-rule="evenodd" stroke="none"/>
    <path d="M247.8 144.15 L231.9 139.5 Q232.6 138.15 232.9 136.5 L247.8 139.15 247.8 144.15" fill="#a57063" fill-rule="evenodd" stroke="none"/>
    <path d="M247.8 139.15 L232.9 136.5 230.25 132.55 247.5 134.55 247.8 139.15" fill="#764f45" fill-rule="evenodd" stroke="none"/>
    <path d="M247.8 144.15 L231.9 139.5 221.35 148.75 228.3 146.1 227.6 148.1 Q225.65 155.05 222.3 161.0 219.35 166.3 215.05 171.3 L222.65 165.65 Q221.65 181.85 214.7 196.45 218.7 192.45 222.3 188.15 223.65 196.45 231.9 201.4 L231.9 196.1 Q241.85 210.0 254.75 216.65 L252.45 207.35 Q256.75 208.35 260.05 210.0 262.05 211.0 264.05 212.35 263.05 208.0 258.1 200.4 269.65 201.4 274.65 205.35 273.3 193.15 264.7 178.55 L271.3 183.2 Q267.7 173.9 259.4 165.65 257.1 163.35 254.1 161.0 L252.1 159.35 258.1 159.35 256.4 157.7 Q248.8 151.1 247.8 144.15 L247.8 139.15 232.9 136.5 Q232.6 138.15 231.9 139.5 M232.9 136.5 L230.25 132.55 247.5 134.55 247.8 139.15" fill="none" stroke="#000000" stroke-linecap="round" stroke-linejoin="round" stroke-opacity="0.4" stroke-width="0.05"/>
    <path d="M266.35 118.95 L267.05 120.65 265.7 119.3 Q266.05 119.3 266.35 118.95" fill="#645c44" fill-rule="evenodd" stroke="none"/>
    <path d="M217.7 126.6 Q214.75 118.3 205.15 111.35 L205.15 117.65 Q204.45 110.05 199.85 103.1 L199.85 105.4 196.5 110.35 Q198.85 104.05 196.5 95.45 L205.15 87.5 207.8 92.15 Q213.1 88.85 217.7 82.9 L217.7 87.5 Q226.3 86.85 230.6 83.55 L228.65 89.2 Q241.9 85.55 261.4 86.85 L250.15 91.5 260.4 97.8 257.1 97.8 266.7 108.05 274.65 122.95 273.0 122.3 265.7 109.35 Q259.4 104.05 247.5 100.75 L252.8 97.8 244.5 97.8 Q245.85 94.8 246.85 91.5 240.9 96.45 231.6 97.8 L233.95 93.15 Q226.65 98.8 215.05 99.1 L215.05 93.5 Q214.05 98.8 208.1 101.45 L209.75 96.8 Q204.45 99.45 200.5 96.8 L207.45 106.05 202.5 102.75 213.75 115.35 Q213.4 111.05 211.4 104.75 217.4 111.7 217.4 118.95 L221.35 111.35 Q222.7 120.65 217.7 126.6 M267.05 120.65 Q269.7 126.9 269.35 132.55 268.05 124.95 260.75 114.35 L265.7 119.3 267.05 120.65 M229.3 133.55 Q226.65 129.9 223.65 127.6 L226.0 118.3 229.3 133.55" fill="#fb9804" fill-rule="evenodd" stroke="none"/>
    <path d="M217.7 126.6 Q222.7 120.65 221.35 111.35 L217.4 118.95 Q217.4 111.7 211.4 104.75 213.4 111.05 213.75 115.35 L202.5 102.75 207.45 106.05 200.5 96.8 Q204.45 99.45 209.75 96.8 L208.1 101.45 Q214.05 98.8 215.05 93.5 L215.05 99.1 Q226.65 98.8 233.95 93.15 L231.6 97.8 Q240.9 96.45 246.85 91.5 245.85 94.8 244.5 97.8 L252.8 97.8 247.5 100.75 Q259.4 104.05 265.7 109.35 L273.0 122.3 266.35 118.95 Q266.05 119.3 265.7 119.3 L260.75 114.35 Q268.05 124.95 269.35 132.55 L268.7 135.5 265.4 129.25 Q262.4 141.5 256.75 147.45 L256.75 139.5 250.15 148.75 Q251.15 143.45 247.85 138.15 L244.85 145.8 Q243.55 138.5 232.3 133.55 L232.3 139.5 Q230.95 136.2 229.3 133.55 L226.0 118.3 223.65 127.6 219.05 131.9 Q218.7 129.25 217.7 126.6" fill="#e18804" fill-rule="evenodd" stroke="none"/>
    <path d="M273.0 122.3 L274.65 122.95 266.7 108.05 257.1 97.8 260.4 97.8 250.15 91.5 261.4 86.85 Q241.9 85.55 228.65 89.2 L230.6 83.55 Q226.3 86.85 217.7 87.5 L217.7 82.9 Q213.1 88.85 207.8 92.15 L205.15 87.5 196.5 95.45 Q198.85 104.05 196.5 110.35 L199.85 105.4 199.85 103.1 Q204.45 110.05 205.15 117.65 L205.15 111.35 Q214.75 118.3 217.7 126.6 218.7 129.25 219.05 131.9 L223.65 127.6 Q226.65 129.9 229.3 133.55 230.95 136.2 232.3 139.5 L232.3 133.55 Q243.55 138.5 244.85 145.8 L247.85 138.15 Q251.15 143.45 250.15 148.75 L256.75 139.5 256.75 147.45 Q262.4 141.5 265.4 129.25 L268.7 135.5 269.35 132.55 Q269.7 126.9 267.05 120.65 L266.35 118.95 273.0 122.3 Z" fill="none" stroke="#000000" stroke-linecap="round" stroke-linejoin="round" stroke-opacity="0.4" stroke-width="0.05"/>
  </g>
</svg>
