<?xml version="1.0" encoding="UTF-8" standalone="no"?>
<svg xmlns:xlink="http://www.w3.org/1999/xlink" height="95.6px" width="73.9px" xmlns="http://www.w3.org/2000/svg">
  <g transform="matrix(1.0, 0.0, 0.0, 1.0, 0.35, 0.35)">
    <path d="M15.7 1.9 L17.8 2.8 17.8 9.1 32.8 34.65 30.75 34.85 14.5 10.7 15.7 1.9 M13.3 18.05 L11.5 13.25 Q20.35 24.7 26.85 36.15 20.55 29.5 13.3 18.05" fill="#d0cb88" fill-rule="evenodd" stroke="none"/>
    <path d="M23.4 41.25 L6.3 16.4 0.0 15.35 0.0 5.95 6.7 6.25 6.75 6.2 9.55 0.0 15.7 1.9 14.5 10.7 30.75 34.85 Q25.55 35.8 23.4 41.25 M26.85 36.15 Q20.35 24.7 11.5 13.25 L13.3 18.05 Q20.55 29.5 26.85 36.15" fill="#fffcd1" fill-rule="evenodd" stroke="none"/>
    <path d="M32.8 34.65 L37.7 35.25 Q42.2 43.25 42.45 48.3 40.6 44.45 33.5 54.1 L26.55 53.35 Q24.0 51.2 22.0 47.8 22.3 43.95 23.4 41.25 25.55 35.8 30.75 34.85 L32.8 34.65 M50.2 71.95 L53.95 76.0 54.05 76.1 Q58.9 68.75 60.7 56.2 L51.3 53.05 Q59.3 48.5 71.2 49.9 L72.05 53.0 67.95 54.7 Q71.05 64.15 65.95 78.15 55.2 82.8 47.1 81.3 L40.6 73.0 50.2 71.95 M24.75 43.15 Q24.05 44.85 23.5 46.95 L25.75 44.6 Q27.9 42.55 29.8 41.5 32.25 40.15 34.3 40.6 L31.4 36.7 Q29.5 36.55 27.9 38.0 26.15 39.6 24.75 43.15 M62.0 54.45 Q62.5 64.55 54.9 78.0 L65.2 66.95 Q65.1 60.25 62.0 54.45 M60.7 56.2 L60.95 53.05 60.7 56.2 M53.95 76.0 L50.25 79.2 53.95 76.0" fill="#ffff33" fill-opacity="0.8509804" fill-rule="evenodd" stroke="none"/>
    <path d="M24.75 43.15 Q26.15 39.6 27.9 38.0 29.5 36.55 31.4 36.7 L34.3 40.6 Q32.25 40.15 29.8 41.5 27.9 42.55 25.75 44.6 L23.5 46.95 Q24.05 44.85 24.75 43.15 M62.0 54.45 Q65.1 60.25 65.2 66.95 L54.9 78.0 Q62.5 64.55 62.0 54.45" fill="#ffffdd" fill-opacity="0.8509804" fill-rule="evenodd" stroke="none"/>
    <path d="M42.45 48.3 Q42.5 50.4 41.85 52.0 L46.05 59.3 47.25 68.75 50.2 71.95 40.6 73.0 47.1 81.3 Q55.2 82.8 65.95 78.15 71.05 64.15 67.95 54.7 L72.05 53.0 Q74.3 62.95 72.2 78.15 61.35 88.5 51.3 94.9 41.85 88.5 35.6 70.85 L35.6 57.25 Q30.4 56.7 26.55 53.35 L33.5 54.1 Q40.6 44.45 42.45 48.3" fill="#cece00" fill-opacity="0.8509804" fill-rule="evenodd" stroke="none"/>
    <path d="M15.7 1.9 L17.8 2.8 17.8 9.1 32.8 34.65 37.7 35.25 Q42.2 43.25 42.45 48.3 42.5 50.4 41.85 52.0 L46.05 59.3 47.25 68.75 50.2 71.95 53.95 76.0 54.05 76.1 Q58.9 68.75 60.7 56.2 L51.3 53.05 Q59.3 48.5 71.2 49.9 L72.05 53.0 Q74.3 62.95 72.2 78.15 61.35 88.5 51.3 94.9 41.85 88.5 35.6 70.85 L35.6 57.25 Q30.4 56.7 26.55 53.35 24.0 51.2 22.0 47.8 22.3 43.95 23.4 41.25 L6.3 16.4 0.0 15.35 0.0 5.95 6.7 6.25 6.75 6.2 9.55 0.0 15.7 1.9 M30.75 34.85 L32.8 34.65 M26.85 36.15 Q20.35 24.7 11.5 13.25 L13.3 18.05 M23.4 41.25 Q25.55 35.8 30.75 34.85" fill="none" stroke="#000000" stroke-linecap="round" stroke-linejoin="round" stroke-opacity="0.6117647" stroke-width="0.75"/>
    <path d="M50.25 79.2 L53.95 76.0 M60.95 53.05 L60.7 56.2" fill="none" stroke="#000000" stroke-linecap="round" stroke-linejoin="round" stroke-opacity="0.49019608" stroke-width="0.75"/>
  </g>
</svg>
