<?xml version="1.0" encoding="UTF-8" standalone="no"?>
<svg xmlns:xlink="http://www.w3.org/1999/xlink" height="53.8px" width="64.75px" xmlns="http://www.w3.org/2000/svg">
  <g transform="matrix(1.0, 0.0, 0.0, 1.0, -21.45, -18.15)">
    <path d="M67.25 24.35 L67.3 24.4 68.5 24.4 66.4 29.2 66.55 29.3 71.15 35.7 71.85 38.6 70.3 39.0 71.85 38.6 73.65 46.2 75.6 49.25 71.15 47.05 71.15 44.9 70.6 41.25 70.3 39.0 69.85 36.25 64.35 29.0 65.75 25.5 65.75 25.45 Q66.45 24.85 67.25 24.35 M42.0 51.35 L41.9 51.4 40.15 49.35 42.0 51.35 M71.65 41.1 L70.6 41.25 71.65 41.1" fill="#bf4111" fill-rule="evenodd" stroke="none"/>
    <path d="M65.75 25.45 L65.75 25.5 65.7 25.5 65.75 25.45 M40.4 23.6 L40.6 23.5 40.4 23.65 40.4 23.6 M77.7 50.3 L76.8 50.2 76.55 50.05 77.7 50.3 M75.65 49.4 L75.85 49.7 75.6 49.55 75.65 49.4" fill="#999900" fill-rule="evenodd" stroke="none"/>
    <path d="M67.25 24.35 Q66.45 24.85 65.75 25.45 L65.7 25.5 59.3 28.7 52.0 28.7 47.4 28.7 41.0 23.35 40.95 23.3 40.8 23.3 41.25 21.25 Q42.9 20.35 44.65 19.7 L44.35 21.95 54.25 26.55 59.6 25.6 66.95 22.25 67.3 24.35 67.25 24.35 M52.0 27.1 L52.0 28.7 52.0 27.1 M53.4 30.0 L48.35 32.05 44.45 41.4 45.8 50.05 55.15 53.5 Q61.25 54.0 68.35 50.8 L66.1 53.45 70.7 49.7 76.55 50.15 76.8 50.2 77.7 50.3 79.3 50.7 78.85 52.1 66.55 56.85 46.55 56.85 45.65 55.75 44.95 55.0 41.9 51.4 42.0 51.35 43.15 52.55 42.15 51.2 Q40.75 49.1 39.8 46.95 L39.8 46.9 Q41.1 37.5 46.25 30.0 L53.4 30.0 M63.95 55.35 L64.2 55.15 63.95 55.35" fill="#a83611" fill-rule="evenodd" stroke="none"/>
    <path d="M65.75 25.5 L64.35 29.0 69.85 36.25 70.3 39.0 69.5 39.2 70.3 39.0 70.6 41.25 70.05 41.4 70.6 41.25 71.15 44.9 71.15 47.05 75.6 49.25 75.7 49.3 75.65 49.4 75.6 49.55 75.85 49.7 76.55 50.05 76.55 50.15 70.7 49.7 66.1 53.45 68.35 50.8 69.7 48.55 69.85 48.0 Q69.75 36.05 62.45 30.0 L62.4 30.05 53.4 30.0 46.25 30.0 Q41.1 37.5 39.8 46.9 L39.8 46.95 Q40.75 49.1 42.15 51.2 L42.0 51.35 40.15 49.35 39.05 48.15 35.15 49.25 35.1 49.05 35.25 49.0 38.4 46.0 38.55 45.25 39.5 38.8 43.8 30.5 40.4 23.65 40.6 23.5 40.75 23.65 41.0 23.35 47.4 28.7 52.0 28.7 52.0 29.25 52.0 28.7 59.3 28.7 65.7 25.5 65.75 25.5 M39.05 45.4 L38.55 45.25 39.05 45.4 M39.8 46.95 L39.75 47.0 37.2 48.1 35.25 49.0 37.2 48.1 39.75 47.0 39.8 46.95 M69.85 48.0 Q72.55 48.2 75.6 49.55 72.55 48.2 69.85 48.0 M65.7 25.5 Q63.65 27.25 62.45 30.0 63.65 27.25 65.7 25.5 M40.75 23.65 Q43.85 26.0 46.25 30.0 43.85 26.0 40.75 23.65" fill="#71230b" fill-rule="evenodd" stroke="none"/>
    <path d="M71.85 38.6 L71.15 35.7 66.55 29.3 66.4 29.2 68.5 24.4 71.15 24.4 72.5 25.65 Q75.65 28.75 77.55 32.35 L77.55 32.45 Q80.2 37.55 80.2 43.75 L80.1 45.95 Q79.9 48.4 79.3 50.7 L77.7 50.3 76.55 50.05 75.85 49.7 75.65 49.4 75.7 49.3 75.6 49.25 73.65 46.2 71.85 38.6 M44.65 19.7 L48.0 18.75 53.9 18.15 Q61.05 18.15 66.8 21.4 L66.95 22.25 59.6 25.6 54.25 26.55 44.35 21.95 44.65 19.7 M49.8 21.4 L48.0 18.75 49.8 21.4 M75.7 33.85 L77.55 32.45 75.7 33.85" fill="#e04b14" fill-rule="evenodd" stroke="none"/>
    <path d="M27.6 44.05 L27.6 43.75 Q27.6 39.1 29.1 35.05 L29.6 35.2 29.1 34.95 Q30.9 30.1 34.9 26.1 L40.4 23.6 40.4 23.65 43.8 30.5 39.5 38.8 38.55 45.25 38.4 46.0 35.25 49.0 35.1 49.05 Q34.35 49.35 33.7 49.7 L35.15 49.25 39.05 48.15 40.15 49.35 41.9 51.4 44.95 55.0 45.65 55.75 46.55 56.85 43.35 56.85 42.85 56.6 28.35 50.0 27.85 47.35 27.6 44.05 M36.35 44.6 L38.55 45.25 36.35 44.6 M31.75 36.0 L29.6 35.2 31.75 36.0" fill="#9f330f" fill-rule="evenodd" stroke="none"/>
    <path d="M40.8 23.3 L40.95 23.3 41.0 23.35 40.75 23.65 40.8 23.3 M42.15 51.2 L43.15 52.55 42.0 51.35 42.15 51.2 M76.8 50.2 L76.55 50.15 76.55 50.05 76.8 50.2 M35.15 49.25 L33.7 49.7 Q34.35 49.35 35.1 49.05 L35.15 49.25" fill="#575700" fill-rule="evenodd" stroke="none"/>
    <path d="M68.35 50.8 Q61.25 54.0 55.15 53.5 L45.8 50.05 44.45 41.4 48.35 32.05 53.4 30.0 62.4 30.05 62.45 30.0 Q69.75 36.05 69.85 48.0 L69.7 48.55 68.35 50.8 M63.4 48.5 L61.6 47.5 63.4 48.5 M65.75 42.55 L68.05 42.05 65.75 42.55 M62.9 38.15 L66.0 36.35 62.9 38.15" fill="#c23e12" fill-rule="evenodd" stroke="none"/>
    <path d="M29.1 35.05 L29.1 34.95 29.6 35.2 29.1 35.05" fill="#af3c10" fill-rule="evenodd" stroke="none"/>
    <path d="M85.65 50.5 Q87.0 54.5 84.95 63.0 L76.5 69.3 65.2 71.9 53.25 71.95 40.75 71.6 31.35 68.1 23.3 62.2 Q20.3 54.25 22.2 48.35 L27.6 44.05 27.85 47.35 28.35 50.0 42.85 56.6 35.25 56.45 33.25 61.05 44.2 68.4 71.15 67.85 82.9 61.1 83.05 61.15 85.2 56.05 85.45 50.5 85.65 50.5" fill="#b7b997" fill-rule="evenodd" stroke="none"/>
    <path d="M80.1 45.95 L85.55 50.4 85.45 50.5 85.2 56.05 83.05 61.15 82.9 61.1 71.15 67.85 44.2 68.4 33.25 61.05 35.25 56.45 42.85 56.6 43.35 56.85 46.55 56.85 66.55 56.85 78.85 52.1 79.3 50.7 Q79.9 48.4 80.1 45.95" fill="#cfd0b9" fill-rule="evenodd" stroke="none"/>
    <path d="M85.55 50.4 L85.65 50.5 85.45 50.5 85.55 50.4" fill="#cfd0c6" fill-rule="evenodd" stroke="none"/>
    <path d="M67.25 24.35 Q66.45 24.85 65.75 25.45 L65.7 25.5 Q63.65 27.25 62.45 30.0 L62.4 30.05 53.4 30.0 46.25 30.0 Q41.1 37.5 39.8 46.9 L39.8 46.95 Q40.75 49.1 42.15 51.2 L43.15 52.55 M70.3 39.0 L71.85 38.6 M68.5 24.4 L67.3 24.4 67.3 24.35 67.25 24.35 M66.95 22.25 L67.3 24.35 M44.65 19.7 L48.0 18.75 53.9 18.15 Q61.05 18.15 66.8 21.4 L66.95 22.25 M44.65 19.7 Q42.9 20.35 41.25 21.25 L40.8 23.3 40.75 23.65 40.6 23.5 40.4 23.6 34.9 26.1 Q30.9 30.1 29.1 34.95 L29.1 35.05 Q27.6 39.1 27.6 43.75 L27.6 44.05 22.2 48.35 Q20.3 54.25 23.3 62.2 L31.35 68.1 40.75 71.6 53.25 71.95 65.2 71.9 76.5 69.3 84.95 63.0 Q87.0 54.5 85.65 50.5 L85.55 50.4 80.1 45.95 Q79.9 48.4 79.3 50.7 L78.85 52.1 66.55 56.85 46.55 56.85 43.35 56.85 42.85 56.6 28.35 50.0 27.85 47.35 27.6 44.05 M52.0 28.7 L52.0 27.1 M68.5 24.4 L71.15 24.4 72.5 25.65 Q75.65 28.75 77.55 32.35 L77.55 32.45 Q80.2 37.55 80.2 43.75 L80.1 45.95 M48.0 18.75 L49.8 21.4 M68.35 50.8 L69.7 48.55 69.85 48.0 Q69.75 36.05 62.45 30.0 M44.95 55.0 L45.65 55.75 M77.7 50.3 L76.8 50.2 76.55 50.05 75.85 49.7 75.6 49.55 Q72.55 48.2 69.85 48.0 M66.1 53.45 L68.35 50.8 M52.0 28.7 L52.0 29.25 M38.55 45.25 L39.05 45.4 M38.55 45.25 L36.35 44.6 M33.7 49.7 Q34.35 49.35 35.1 49.05 L35.25 49.0 37.2 48.1 39.75 47.0 39.8 46.95 M29.6 35.2 L31.75 36.0 M69.5 39.2 L70.3 39.0 M70.6 41.25 L71.65 41.1 M77.55 32.45 L75.7 33.85 M66.0 36.35 L62.9 38.15 M68.05 42.05 L65.75 42.55 M61.6 47.5 L63.4 48.5 M70.05 41.4 L70.6 41.25 M64.2 55.15 L63.95 55.35 M46.25 30.0 Q43.85 26.0 40.75 23.65" fill="none" stroke="#361105" stroke-linecap="round" stroke-linejoin="round" stroke-width="0.05"/>
  </g>
</svg>
