<?xml version="1.0" encoding="UTF-8" standalone="no"?>
<svg xmlns:xlink="http://www.w3.org/1999/xlink" height="29.0px" width="10.35px" xmlns="http://www.w3.org/2000/svg">
  <g transform="matrix(1.0, 0.0, 0.0, 1.0, 6.85, 15.95)">
    <path d="M2.2 -2.25 Q2.1 -4.85 1.9 -3.9 L-0.3 -4.25 0.55 -1.55 2.2 -2.25 M-2.8 4.95 L-1.75 4.4 -0.55 4.2 -0.3 4.15 0.7 4.2 1.25 4.35 1.4 3.2 Q0.85 1.35 0.65 1.5 L0.55 1.85 0.55 2.3 0.5 2.3 Q0.05 2.0 -0.15 1.3 L-0.3 1.8 -0.3 1.2 -1.2 1.2 -1.2 1.95 -2.65 1.65 Q-3.7 1.5 -2.8 3.45 L-2.8 4.95 M-1.35 -15.45 Q2.5 -8.4 3.0 -0.95 1.55 7.9 -1.6 12.55 -5.1 7.0 -6.35 0.15 -5.4 -7.5 -1.35 -15.45 M-1.15 -1.55 L-2.85 -4.8 -3.35 -4.7 Q-6.05 -3.85 -4.25 -1.9 L-1.15 -1.55" fill="#c07238" fill-rule="evenodd" stroke="none"/>
    <path d="M2.2 -2.25 L0.55 -1.55 -0.3 -4.25 1.9 -3.9 Q2.1 -4.85 2.2 -2.25 M-2.8 4.95 L-1.75 4.4 -0.55 4.2 -0.3 4.15 0.7 4.2 1.25 4.35 1.4 3.2 Q0.85 1.35 0.65 1.5 M-1.35 -15.45 Q2.5 -8.4 3.0 -0.95 1.55 7.9 -1.6 12.55 -5.1 7.0 -6.35 0.15 -5.4 -7.5 -1.35 -15.45 M-1.15 -1.55 L-2.85 -4.8 -3.35 -4.7 Q-6.05 -3.85 -4.25 -1.9 L-1.15 -1.55 Z" fill="none" stroke="#3e2417" stroke-linecap="round" stroke-linejoin="round" stroke-width="1.0"/>
    <path d="M-1.05 11.2 Q1.8 6.2 2.75 -0.8 2.1 -7.85 -0.75 -13.8 L-1.1 -15.35 Q2.75 -8.3 3.25 -0.85 1.8 8.0 -1.35 12.65 L-1.05 11.2" fill="#75482c" fill-rule="evenodd" stroke="none"/>
    <path d="M-1.35 12.65 Q-4.85 7.1 -6.1 0.25 -5.15 -7.4 -1.1 -15.35 L-0.75 -13.8 Q-4.2 -5.25 -4.6 0.1 -3.45 5.65 -1.05 11.2 L-1.35 12.65" fill="#9e632d" fill-rule="evenodd" stroke="none"/>
    <path d="M0.1 2.3 L-0.15 2.3 Q-0.85 2.35 -1.5 2.75 L-2.55 3.55 -2.55 5.05 -1.5 4.5 -0.3 4.3 -0.05 4.25 Q-0.3 8.0 -1.05 11.2 -3.45 5.65 -4.6 0.1 -4.2 -5.25 -0.75 -13.8 0.0 -9.6 0.15 -1.4 L0.1 2.3 M-1.7 -2.9 L-3.45 -3.55 -4.0 -1.8 -0.9 -1.45 -1.7 -2.9" fill="#ffb612" fill-rule="evenodd" stroke="none"/>
    <path d="M0.8 -1.45 L2.45 -2.15 2.15 -3.8 1.2 -2.95 0.8 -1.45 M-0.05 4.25 L0.95 4.3 1.5 4.45 1.65 3.3 1.05 2.5 0.1 2.3 0.15 -1.4 Q0.0 -9.6 -0.75 -13.8 2.1 -7.85 2.75 -0.8 1.8 6.2 -1.05 11.2 -0.3 8.0 -0.05 4.25" fill="#d88701" fill-rule="evenodd" stroke="none"/>
    <path d="M0.8 -1.45 L1.2 -2.95 2.15 -3.8 2.45 -2.15 0.8 -1.45 M-0.05 4.25 L0.95 4.3 1.5 4.45 1.65 3.3 1.05 2.5 0.1 2.3 -0.15 2.3 Q-0.85 2.35 -1.5 2.75 L-2.55 3.55 -2.55 5.05 -1.5 4.5 -0.3 4.3 -0.05 4.25 M-1.7 -2.9 L-3.45 -3.55 -4.0 -1.8 -0.9 -1.45 -1.7 -2.9 Z" fill="none" stroke="#9e632d" stroke-linecap="round" stroke-linejoin="round" stroke-width="0.05"/>
    <path d="M-2.25 -10.8 L-0.35 -9.3" fill="none" stroke="#d88701" stroke-linecap="round" stroke-linejoin="round" stroke-width="0.05"/>
    <path d="M-0.05 -3.2 L-3.3 -5.1 M-0.15 -6.55 L-1.85 -7.7 M0.2 -0.1 L-1.75 0.9" fill="none" stroke="#d88701" stroke-linecap="round" stroke-linejoin="round" stroke-width="0.05"/>
    <path d="M0.2 -11.65 L-0.6 -10.55 M0.25 1.7 L1.8 3.1 M0.3 -0.65 L1.45 0.35 M0.2 -2.35 L2.15 -4.25 M0.55 -5.45 L1.55 -6.6" fill="none" stroke="#ffb612" stroke-linecap="round" stroke-linejoin="round" stroke-width="0.05"/>
  </g>
</svg>
