<?xml version="1.0" encoding="UTF-8" standalone="no"?>
<svg xmlns:xlink="http://www.w3.org/1999/xlink" height="44.9px" width="37.4px" xmlns="http://www.w3.org/2000/svg">
  <g transform="matrix(1.0, 0.0, 0.0, 1.0, -256.3, -178.05)">
    <path d="M284.0 191.4 L284.15 191.25 284.6 191.45 284.0 191.4" fill="#444444" fill-rule="evenodd" stroke="none"/>
    <path d="M259.1 204.85 Q259.35 202.9 260.15 200.95 262.65 194.45 269.15 191.4 L269.4 191.3 Q271.5 190.3 273.55 189.95 L281.3 190.15 282.25 190.5 Q283.25 190.8 284.15 191.25 L284.0 191.4 Q282.3 191.35 280.8 192.25 L278.15 195.55 Q276.35 197.1 274.2 198.1 270.05 200.0 264.15 200.1 261.35 201.85 259.1 204.85" fill="url(#gradient0)" fill-rule="evenodd" stroke="none"/>
    <path d="M260.4 210.15 Q259.6 206.9 262.25 204.1 261.3 206.55 261.7 209.15 262.25 211.75 264.15 215.0 261.25 213.35 260.4 210.15" fill="#796837" fill-rule="evenodd" stroke="none"/>
    <path d="M259.1 204.85 Q261.35 201.85 264.15 200.1 270.05 200.0 274.2 198.1 276.35 197.1 278.15 195.55 L280.8 192.25 Q282.3 191.35 284.0 191.4 L284.6 191.45 Q289.45 193.7 291.7 198.55 294.55 204.6 292.05 211.1 289.55 217.55 283.05 220.65 276.55 223.65 269.95 221.6 263.35 219.5 260.45 213.45 258.45 209.25 259.1 204.85 M283.95 202.6 Q283.45 201.4 282.5 200.65 282.0 200.4 281.45 200.25 277.8 199.35 274.1 201.15 270.3 202.9 268.75 206.3 L268.25 207.8 Q268.25 208.8 268.8 209.85 270.05 212.5 273.1 213.3 276.3 214.05 279.4 212.55 L281.35 211.35 Q283.05 210.1 283.85 208.15 285.2 205.3 283.95 202.6 M260.4 210.15 Q261.25 213.35 264.15 215.0 262.25 211.75 261.7 209.15 261.3 206.55 262.25 204.1 259.6 206.9 260.4 210.15" fill="url(#gradient1)" fill-rule="evenodd" stroke="none"/>
    <path d="M284.15 191.25 Q283.25 190.8 282.25 190.5 L281.3 190.15 273.55 189.95 Q271.5 190.3 269.4 191.3 L269.15 191.4 Q262.65 194.45 260.15 200.95 259.35 202.9 259.1 204.85 258.45 209.25 260.45 213.45 263.35 219.5 269.95 221.6 276.55 223.65 283.05 220.65 289.55 217.55 292.05 211.1 294.55 204.6 291.7 198.55 289.45 193.7 284.6 191.45 L284.15 191.25 Z" fill="none" stroke="#000000" stroke-linecap="round" stroke-linejoin="round" stroke-opacity="0.3019608" stroke-width="1.0"/>
    <path d="M282.45 200.5 Q285.4 201.6 286.65 204.25 287.85 206.8 287.05 209.55 L284.65 209.4 286.2 211.5 Q285.4 213.0 284.15 214.15 284.45 211.75 281.35 211.3 283.05 209.95 283.9 208.05 285.25 205.15 283.95 202.5 283.4 201.35 282.45 200.5" fill="#eae3d9" fill-rule="evenodd" stroke="none"/>
    <path d="M281.35 211.3 Q284.45 211.75 284.15 214.15 282.9 215.25 281.25 216.05 L279.9 216.6 Q276.25 215.9 274.95 213.45 277.15 213.55 279.45 212.5 280.5 212.0 281.35 211.3" fill="#aaa080" fill-rule="evenodd" stroke="none"/>
    <path d="M274.35 216.9 L273.85 216.85 Q270.2 215.95 268.7 212.8 267.55 210.3 268.25 207.7 268.3 208.7 268.8 209.7 L268.9 209.9 Q269.45 211.05 270.3 211.7 270.35 213.45 274.35 216.9" fill="#71684a" fill-rule="evenodd" stroke="none"/>
    <path d="M286.2 211.5 L284.65 209.4 287.05 209.55 288.35 211.8 286.2 211.5 M279.9 216.6 L274.35 216.9 Q270.35 213.45 270.3 211.7 271.45 212.7 273.15 213.1 L274.95 213.45 Q276.25 215.9 279.9 216.6" fill="#8e8566" fill-rule="evenodd" stroke="none"/>
    <path d="M282.45 200.5 Q283.4 201.35 283.95 202.5 285.25 205.15 283.9 208.05 283.05 209.95 281.35 211.3 280.5 212.0 279.45 212.5 277.15 213.55 274.95 213.45 L273.15 213.1 Q271.45 212.7 270.3 211.7 269.45 211.05 268.9 209.9 L268.8 209.7 Q268.3 208.7 268.25 207.7 L268.75 206.2 Q270.35 202.75 274.1 200.95 277.85 199.2 281.45 200.15 L282.45 200.5 Z" fill="none" stroke="#382510" stroke-linecap="round" stroke-linejoin="round" stroke-opacity="0.3019608" stroke-width="1.0"/>
    <path d="M284.5 193.5 L283.45 193.2 282.65 192.45 Q282.45 192.0 282.65 191.65 L283.35 191.2 284.45 191.5 285.2 192.25 Q285.55 192.75 285.3 193.15 285.1 193.5 284.5 193.5 M282.85 194.05 L282.8 194.5 282.4 194.8 281.95 194.75 281.65 194.4 Q281.55 194.1 281.7 193.9 281.8 193.7 282.1 193.65 L282.55 193.7 282.85 194.05 M280.1 191.15 Q280.9 191.55 281.15 192.25 281.4 193.0 281.05 193.65 280.65 194.3 279.9 194.45 L278.35 194.25 Q277.5 193.8 277.25 193.05 277.0 192.35 277.4 191.65 277.75 191.05 278.55 190.9 L280.1 191.15" fill="#cf7520" fill-rule="evenodd" stroke="none"/>
    <path d="M268.55 200.3 L275.6 200.1 Q279.5 199.05 281.95 196.7 284.35 194.65 283.8 192.7 283.3 190.8 280.15 190.0 276.95 189.4 273.05 190.45 269.15 191.5 266.75 193.6 264.25 195.9 264.75 197.8 265.3 199.75 268.55 200.3" fill="#382510" fill-opacity="0.44313726" fill-rule="evenodd" stroke="none"/>
    <path d="M272.45 191.85 L271.25 192.55 Q269.45 193.4 266.8 193.7 L262.15 193.5 Q260.1 193.2 259.9 192.35 259.8 191.55 261.2 190.8 L261.2 191.3 Q261.3 192.2 263.45 192.5 L268.6 192.65 272.45 191.85" fill="#c2ac78" fill-rule="evenodd" stroke="none"/>
    <path d="M267.25 201.0 L267.5 201.55 267.3 202.05 266.7 202.35 Q266.35 202.3 266.15 202.05 L266.0 201.6 Q266.0 201.3 266.25 201.05 L266.75 200.85 Q267.0 200.75 267.25 201.0 M266.6 198.6 L265.9 199.75 264.7 200.5 Q264.1 200.55 263.75 200.2 263.35 199.8 263.45 199.25 263.6 198.6 264.15 198.05 264.75 197.45 265.35 197.35 L266.4 197.55 Q266.75 197.9 266.6 198.6" fill="#cf7520" fill-rule="evenodd" stroke="none"/>
    <path d="M266.25 204.45 Q266.25 205.5 265.45 206.25 264.75 207.1 263.75 207.15 262.75 207.3 262.05 206.6 261.4 205.95 261.5 204.9 261.6 203.95 262.3 203.1 263.1 202.35 264.0 202.25 265.0 202.15 265.6 202.8 266.3 203.45 266.25 204.45" fill="#cf7520" fill-opacity="0.6313726" fill-rule="evenodd" stroke="none"/>
    <path d="M275.55 180.65 Q276.45 182.4 276.6 183.9 276.75 185.25 276.25 185.75 275.9 186.45 275.15 186.65 L273.6 186.5 271.35 185.45 270.25 185.45 273.5 183.0 Q275.1 180.95 272.9 178.85 L274.15 179.45 275.55 180.65" fill="#882b0a" fill-rule="evenodd" stroke="none"/>
    <path d="M270.25 185.45 Q268.4 185.75 269.1 188.1 269.45 189.05 267.7 189.3 263.9 186.2 260.85 187.0 258.6 186.7 256.8 189.05 256.4 186.65 258.0 185.2 259.85 181.65 263.65 179.8 267.6 177.9 272.1 178.65 L272.9 178.85 Q275.1 180.95 273.5 183.0 L270.25 185.45" fill="#ab440d" fill-rule="evenodd" stroke="none"/>
    <path d="M276.75 181.95 L277.4 185.8 Q276.85 187.4 275.0 187.55 273.65 187.65 272.2 186.8 L271.45 186.25 Q269.65 186.3 270.55 188.3 270.8 188.85 269.45 189.9 267.5 190.2 267.4 192.0 L266.8 191.45 Q265.15 189.95 262.8 189.2 266.15 189.6 267.7 189.3 269.45 189.05 269.1 188.1 268.4 185.75 270.25 185.45 L271.35 185.45 273.6 186.5 275.15 186.65 Q275.9 186.45 276.25 185.75 276.75 185.25 276.6 183.9 276.45 182.4 275.55 180.65 L276.75 181.95" fill="#b76a1e" fill-rule="evenodd" stroke="none"/>
    <path d="M279.25 187.5 L276.05 195.7 Q273.95 197.15 270.75 198.3 L270.05 196.4 Q270.3 196.65 270.95 195.6 273.35 189.75 272.2 186.8 273.65 187.65 275.0 187.55 276.85 187.4 277.4 185.8 L276.75 181.95 Q278.65 184.3 279.25 187.5" fill="#da9c3a" fill-rule="evenodd" stroke="none"/>
    <path d="M276.05 195.7 L279.25 187.5 279.45 188.9 Q280.0 192.9 276.05 195.7 M272.2 186.8 Q273.35 189.75 270.95 195.6 270.3 196.65 270.05 196.4 L270.75 198.3 265.45 199.0 264.2 198.9 Q262.05 198.5 260.95 197.1 L259.9 195.65 260.9 196.55 Q262.55 197.85 265.1 198.75 267.75 198.35 270.05 196.4 L269.0 194.25 267.4 192.0 Q267.5 190.2 269.45 189.9 270.8 188.85 270.55 188.3 269.65 186.3 271.45 186.25 L272.2 186.8" fill="#e4ae5f" fill-rule="evenodd" stroke="none"/>
    <path d="M262.8 189.2 Q265.15 189.95 266.8 191.45 L267.4 192.0 269.0 194.25 262.85 191.4 Q260.4 191.6 260.7 194.45 260.25 195.05 259.4 194.9 L259.25 194.65 Q257.8 191.95 258.4 190.25 259.1 188.5 261.8 189.0 L262.8 189.2" fill="#f2b460" fill-rule="evenodd" stroke="none"/>
    <path d="M267.7 189.3 Q266.15 189.6 262.8 189.2 L261.8 189.0 Q259.1 188.5 258.4 190.25 257.8 191.95 259.25 194.65 257.15 191.4 256.8 189.05 258.6 186.7 260.85 187.0 263.9 186.2 267.7 189.3" fill="#c35c16" fill-rule="evenodd" stroke="none"/>
    <path d="M259.4 194.9 Q260.25 195.05 260.7 194.45 260.4 191.6 262.85 191.4 L269.0 194.25 270.05 196.4 Q267.75 198.35 265.1 198.75 262.55 197.85 260.9 196.55 262.15 197.35 264.4 197.6 265.7 197.05 266.45 195.75 L266.55 194.35 264.45 192.95 262.8 192.75 265.9 194.9 Q265.95 195.85 264.85 196.55 263.1 196.5 261.0 194.85 260.0 194.7 259.9 195.65 L259.4 194.9 M263.85 194.95 L262.85 193.0 263.25 195.4 265.25 195.4 263.85 194.95" fill="#ffffaf" fill-rule="evenodd" stroke="none"/>
    <path d="M259.9 195.65 Q260.0 194.7 261.0 194.85 263.1 196.5 264.85 196.55 265.95 195.85 265.9 194.9 L262.8 192.75 264.45 192.95 266.55 194.35 266.45 195.75 Q265.7 197.05 264.4 197.6 262.15 197.35 260.9 196.55 L259.9 195.65 M263.85 194.95 L265.25 195.4 263.25 195.4 262.85 193.0 263.85 194.95" fill="#dc8427" fill-rule="evenodd" stroke="none"/>
    <path d="M279.25 187.5 Q278.65 184.3 276.75 181.95 L275.55 180.65 274.15 179.45 272.9 178.85 272.1 178.65 Q267.6 177.9 263.65 179.8 259.85 181.65 258.0 185.2 256.4 186.65 256.8 189.05 257.15 191.4 259.25 194.65 L259.4 194.9 259.9 195.65 260.95 197.1 Q262.05 198.5 264.2 198.9 L265.45 199.0 270.75 198.3 M276.05 195.7 Q280.0 192.9 279.45 188.9 L279.25 187.5" fill="none" stroke="#382510" stroke-linecap="round" stroke-linejoin="round" stroke-opacity="0.3019608" stroke-width="0.8"/>
    <path d="M262.95 184.15 Q267.3 184.15 267.7 185.6 262.95 184.45 257.25 186.15 258.55 184.2 262.95 184.15" fill="#942f0b" fill-rule="evenodd" stroke="none"/>
    <path d="M269.35 179.1 Q272.4 180.15 271.95 181.7 269.2 179.35 264.25 179.55 266.25 178.05 269.35 179.1" fill="#942f0b" fill-rule="evenodd" stroke="none"/>
    <path d="M274.95 183.15 Q274.35 185.0 272.05 186.35 269.8 187.7 267.15 187.8 264.6 187.95 263.15 186.7 261.75 185.5 262.4 183.65 263.05 181.85 265.35 180.5 267.65 179.1 270.25 179.0 272.8 178.95 274.25 180.15 275.65 181.35 274.95 183.15" fill="#882b0a" fill-opacity="0.3019608" fill-rule="evenodd" stroke="none"/>
    <path d="M277.7 186.85 Q277.15 188.75 275.25 190.45 273.4 192.15 271.25 192.6 269.15 193.1 267.95 192.15 266.8 191.1 267.35 189.25 267.85 187.35 269.7 185.7 271.65 184.0 273.75 183.5 275.9 183.05 277.1 184.05 278.25 185.0 277.7 186.85" fill="#882b0a" fill-opacity="0.3019608" fill-rule="evenodd" stroke="none"/>
  </g>
  <defs>
    <linearGradient gradientTransform="matrix(0.0107, -0.0051, 0.0022, 0.0045, 266.25, 197.25)" gradientUnits="userSpaceOnUse" id="gradient0" spreadMethod="pad" x1="-819.2" x2="819.2">
      <stop offset="0.0" stop-color="#7c6c38"/>
      <stop offset="1.0" stop-color="#685231"/>
    </linearGradient>
    <linearGradient gradientTransform="matrix(0.0145, 0.0116, -0.0131, 0.0163, 277.0, 206.8)" gradientUnits="userSpaceOnUse" id="gradient1" spreadMethod="pad" x1="-819.2" x2="819.2">
      <stop offset="0.0" stop-color="#534226"/>
      <stop offset="1.0" stop-color="#3a2e1b"/>
    </linearGradient>
  </defs>
</svg>
