<?xml version="1.0" encoding="UTF-8" standalone="no"?>
<svg xmlns:xlink="http://www.w3.org/1999/xlink" height="53.15px" width="58.35px" xmlns="http://www.w3.org/2000/svg">
  <g transform="matrix(1.0, 0.0, 0.0, 1.0, -23.3, -29.9)">
    <path d="M42.45 42.1 L42.55 41.5 Q43.2 37.75 43.25 33.6 49.4 27.7 54.85 31.25 56.35 34.9 63.8 40.35 L61.65 40.5 58.3 39.8 56.45 42.3 53.6 47.35 56.45 52.05 62.15 49.05 68.35 51.0 Q67.6 52.4 67.2 54.6 L67.1 55.0 66.95 58.15 64.5 61.6 65.0 67.3 62.85 74.35 55.9 75.7 57.4 73.05 Q61.15 64.55 60.2 61.75 60.0 63.65 54.45 70.75 L54.25 70.95 50.6 74.4 49.05 72.75 40.9 73.05 41.9 64.4 39.3 74.9 30.4 75.15 33.8 70.25 33.25 69.9 28.4 68.25 33.0 62.6 27.95 65.95 23.3 63.35 23.3 58.65 23.9 58.5 Q30.8 60.15 37.7 53.9 L39.85 50.0 41.0 50.5 45.2 49.2 48.55 43.75 43.45 45.05 42.45 42.1 M64.3 52.1 L60.65 53.4 61.5 55.9 64.0 56.6 64.3 52.1 M45.2 61.6 L45.1 65.8 47.9 65.45 45.2 61.6 M37.85 56.9 L37.2 58.9 42.35 53.05 37.85 56.9 M33.0 68.85 L33.8 70.25 36.15 66.8 33.0 68.85" fill="url(#gradient0)" fill-rule="evenodd" stroke="none"/>
    <path d="M63.8 40.35 Q69.1 44.2 77.5 49.0 L77.5 49.05 Q74.4 47.55 71.0 48.45 69.35 49.1 68.35 51.0 L62.15 49.05 56.45 52.05 53.6 47.35 56.45 42.3 58.3 39.8 61.65 40.5 63.8 40.35 M66.95 58.15 L66.5 65.35 66.05 70.95 Q65.45 73.0 63.75 75.0 L63.7 75.05 63.65 75.15 Q60.0 79.3 51.6 83.05 L55.9 75.7 62.85 74.35 65.0 67.3 64.5 61.6 66.95 58.15 M64.3 52.1 L64.0 56.6 61.5 55.9 60.65 53.4 64.3 52.1 M40.1 49.45 Q41.65 46.0 42.45 42.1 L43.45 45.05 48.55 43.75 45.2 49.2 41.0 50.5 40.1 49.45" fill="#c4c895" fill-rule="evenodd" stroke="none"/>
    <path d="M77.5 49.05 L78.55 49.85 77.0 52.7 74.9 51.15 70.8 53.2 70.15 57.05 67.2 54.6 Q67.6 52.4 68.35 51.0 69.35 49.1 71.0 48.45 74.4 47.55 77.5 49.05 M76.8 56.4 L76.55 60.05 74.75 58.8 73.25 62.0 71.9 58.05 76.8 56.4 M69.05 51.2 L68.35 51.0 69.05 51.2" fill="#939672" fill-rule="evenodd" stroke="none"/>
    <path d="M78.55 49.85 Q81.4 52.25 81.65 54.7 77.4 66.55 76.35 68.3 76.15 69.95 76.25 71.35 76.5 75.6 79.4 77.85 L75.25 76.35 74.75 65.65 73.75 74.5 69.55 68.65 70.15 61.8 68.55 67.05 66.5 65.35 66.95 58.15 67.1 55.0 67.2 54.6 70.15 57.05 70.8 53.2 74.9 51.15 77.0 52.7 78.55 49.85 M76.8 56.4 L71.9 58.05 73.25 62.0 74.75 58.8 76.55 60.05 76.8 56.4" fill="#b5b79d" fill-rule="evenodd" stroke="none"/>
    <path d="M39.85 50.0 L40.1 49.45 41.0 50.5 39.85 50.0" fill="#ececc6" fill-rule="evenodd" stroke="none"/>
    <path d="M33.8 70.25 L33.0 68.85 36.15 66.8 33.8 70.25" fill="#eeeeee" fill-rule="evenodd" stroke="none"/>
    <path d="M42.45 42.1 L42.55 41.5 Q43.2 37.75 43.25 33.6 49.4 27.7 54.85 31.25 56.35 34.9 63.8 40.35 69.1 44.2 77.5 49.0 L77.85 49.2 77.5 49.05 78.55 49.85 Q81.4 52.25 81.65 54.7 77.4 66.55 76.35 68.3 76.15 69.95 76.25 71.35 76.5 75.6 79.4 77.85 L80.3 78.45 M68.35 51.0 Q69.35 49.1 71.0 48.45 74.4 47.55 77.5 49.05 M68.35 51.0 L69.05 51.2 M68.35 51.0 Q67.6 52.4 67.2 54.6 L67.1 55.0 66.95 58.15 66.5 65.35 68.55 67.05 70.15 61.8 69.55 68.65 73.75 74.5 74.75 65.65 75.25 76.35 79.4 77.85 M55.9 75.7 L51.6 83.05 Q60.0 79.3 63.65 75.15 L63.7 75.05 63.75 75.0 Q65.45 73.0 66.05 70.95 L66.5 65.35 M55.9 75.7 L57.4 73.05 Q61.15 64.55 60.2 61.75 60.0 63.65 54.45 70.75 L54.25 70.95 50.6 74.4 49.05 72.75 40.9 73.05 41.9 64.4 39.3 74.9 30.4 75.15 33.8 70.25 36.15 66.8 33.0 68.85 M33.25 69.9 L28.4 68.25 33.0 62.6 27.95 65.95 23.3 63.35 23.3 58.65 M23.9 58.5 Q30.8 60.15 37.7 53.9 L39.85 50.0 40.1 49.45 Q41.65 46.0 42.45 42.1 M37.85 56.9 L42.35 53.05 37.2 58.9 37.85 56.9 M45.2 61.6 L47.9 65.45 45.1 65.8 45.2 61.6 Z" fill="none" stroke="#000000" stroke-linecap="round" stroke-linejoin="round" stroke-opacity="0.12156863" stroke-width="0.05"/>
  </g>
  <defs>
    <linearGradient gradientTransform="matrix(0.0125, 0.0, 0.0, 0.028, 58.55, 55.25)" gradientUnits="userSpaceOnUse" id="gradient0" spreadMethod="pad" x1="-819.2" x2="819.2">
      <stop offset="0.0" stop-color="#f7f5ee"/>
      <stop offset="1.0" stop-color="#e8e4ca"/>
    </linearGradient>
  </defs>
</svg>
