<?xml version="1.0" encoding="UTF-8" standalone="no"?>
<svg xmlns:xlink="http://www.w3.org/1999/xlink" height="72.25px" width="82.35px" xmlns="http://www.w3.org/2000/svg">
  <g transform="matrix(1.0, 0.0, 0.0, 1.0, -13.5, -9.2)">
    <path d="M20.7 60.0 L20.35 59.9 20.25 58.3 22.45 59.05 22.6 59.05 22.5 60.55 22.5 60.75 20.7 60.0 22.5 60.75 14.45 67.1 14.45 67.05 13.5 65.9 13.5 65.8 20.7 60.0 M20.45 64.95 L22.75 68.7 23.95 70.65 21.75 72.15 21.6 71.95 20.15 69.15 18.7 66.55 20.45 64.95 M39.3 58.6 L34.8 64.5 29.2 70.3 29.15 70.65 27.2 70.05 39.3 58.6 M26.2 73.1 L26.2 74.55 17.95 81.4 18.65 79.8 18.45 79.55 26.2 73.1" fill="#c2c267" fill-rule="evenodd" stroke="none"/>
    <path d="M22.45 59.05 L20.25 58.3 Q26.0 55.1 31.8 51.95 46.95 42.85 62.2 26.6 L63.3 25.4 66.25 19.75 68.5 19.75 68.5 23.15 Q75.25 19.25 81.95 15.3 L68.1 27.25 95.1 9.2 95.7 10.15 81.25 20.5 75.7 25.75 69.65 29.3 53.95 43.4 40.05 57.9 39.5 58.35 24.45 70.65 23.95 70.65 22.75 68.7 20.45 64.95 30.1 55.9 33.7 52.6 22.6 59.0 22.45 59.05 M35.55 50.85 L33.7 52.6 35.55 50.85 M40.05 53.95 L22.75 68.7 40.05 53.95 66.05 31.9 55.8 37.35 40.05 53.95" fill="#978335" fill-rule="evenodd" stroke="none"/>
    <path d="M22.6 59.05 L22.45 59.05 22.6 59.0 22.6 59.05" fill="#939239" fill-rule="evenodd" stroke="none"/>
    <path d="M22.5 60.55 L22.6 59.05 22.6 59.0 33.7 52.6 30.1 55.9 22.5 60.55 M29.2 70.65 L29.55 79.6 26.2 79.6 26.2 74.55 26.2 73.1 26.2 70.65 27.2 70.05 29.15 70.65 29.2 70.65 M26.75 74.0 L26.2 74.55 26.75 74.0 M13.5 65.9 L14.45 67.05 14.45 67.1 15.1 71.45 13.5 71.45 13.5 65.9 M15.75 77.4 L18.35 79.55 18.4 79.6 18.65 79.8 17.95 81.4 17.9 81.45 15.25 78.8 15.75 77.4" fill="#7c6c2e" fill-rule="evenodd" stroke="none"/>
    <path d="M22.5 60.75 L22.5 60.55 30.1 55.9 20.45 64.95 18.7 66.55 20.15 69.15 15.1 71.45 14.45 67.1 22.5 60.75 M40.05 57.9 L39.3 58.6 39.5 58.35 39.3 58.6 27.2 70.05 26.2 70.65 26.2 73.1 18.45 79.55 18.4 79.6 18.35 79.55 15.75 77.4 21.6 71.95 21.75 72.15 23.95 70.65 24.45 70.65 39.5 58.35 40.05 57.9" fill="#3f3616" fill-rule="evenodd" stroke="none"/>
    <path d="M39.3 58.6 L40.05 57.9 53.95 43.4 69.65 29.3 75.7 25.75 53.0 47.35 Q40.1 59.55 29.95 79.6 L29.55 79.6 29.2 70.65 29.2 70.3 34.8 64.5 39.3 58.6" fill="#6a5c26" fill-rule="evenodd" stroke="none"/>
    <path d="M40.05 53.95 L55.8 37.35 66.05 31.9 40.05 53.95" fill="#bcbc54" fill-rule="evenodd" stroke="none"/>
    <path d="M29.2 70.3 L29.2 70.65 29.15 70.65 29.2 70.3" fill="#c7b516" fill-rule="evenodd" stroke="none"/>
    <path d="M20.25 58.3 L20.35 59.9 20.7 60.0 22.5 60.75 22.5 60.55 22.6 59.05 22.6 59.0 33.7 52.6 35.55 50.85 M22.45 59.05 L20.25 58.3 Q26.0 55.1 31.8 51.95 46.95 42.85 62.2 26.6 L63.3 25.4 66.25 19.75 68.5 19.75 68.5 23.15 Q75.25 19.25 81.95 15.3 L68.1 27.25 95.1 9.2 95.7 10.15 95.85 10.75 M22.45 59.05 L22.6 59.0 M33.7 52.6 L30.1 55.9 20.45 64.95 22.75 68.7 23.95 70.65 24.45 70.65 39.5 58.35 39.3 58.6 27.2 70.05 29.15 70.65 29.2 70.65 29.55 79.6 26.2 79.6 26.2 74.55 26.75 74.0 M40.05 57.9 L39.3 58.6 34.8 64.5 29.2 70.3 M29.95 79.6 Q40.1 59.55 53.0 47.35 L75.7 25.75 81.25 20.5 95.7 10.15 M40.05 57.9 L39.5 58.35 M22.5 60.55 L30.1 55.9 M27.2 70.05 L26.2 70.65 26.2 73.1 26.2 74.55 17.95 81.4 17.9 81.45 15.25 78.8 15.75 77.4 21.6 71.95 21.75 72.15 23.95 70.65 M20.45 64.95 L18.7 66.55 20.15 69.15 21.6 71.95 M13.5 65.9 L14.45 67.05 14.45 67.1 22.5 60.75 M20.7 60.0 L13.5 65.8 13.5 65.9 13.5 71.45 15.1 71.45 14.45 67.1 M15.1 71.45 L20.15 69.15 M18.4 79.6 L18.45 79.55 26.2 73.1 M15.75 77.4 L18.35 79.55 18.4 79.6 18.65 79.8 17.95 81.4" fill="none" stroke="#000000" stroke-linecap="round" stroke-linejoin="round" stroke-opacity="0.32156864" stroke-width="0.05"/>
    <path d="M22.75 68.7 L40.05 53.95 55.8 37.35 66.05 31.9 40.05 53.95 M75.7 25.75 L69.65 29.3" fill="none" stroke="#000000" stroke-linecap="round" stroke-linejoin="round" stroke-opacity="0.22352941" stroke-width="0.05"/>
  </g>
</svg>
