<?xml version="1.0" encoding="UTF-8" standalone="no"?>
<svg xmlns:xlink="http://www.w3.org/1999/xlink" height="60.3px" width="95.9px" xmlns="http://www.w3.org/2000/svg">
  <g transform="matrix(1.0, 0.0, 0.0, 1.0, -10.1, -18.0)">
    <path d="M54.8 24.2 L54.7 21.5 54.95 21.35 Q78.85 29.7 100.8 42.85 L97.95 45.1 Q76.3 32.15 54.8 24.6 L54.8 24.2 M63.75 71.55 L63.7 74.65 63.35 74.9 Q35.65 63.8 15.05 52.45 L14.8 52.3 10.1 49.65 11.25 48.15 Q33.9 61.35 63.75 71.55 M64.1 78.3 Q37.45 68.25 15.6 56.0 L15.25 53.8 Q39.65 66.65 63.8 76.3 L64.1 78.2 64.1 78.25 64.1 78.3" fill="#b3b3b3" fill-rule="evenodd" stroke="none"/>
    <path d="M54.8 24.2 L54.8 24.6 Q76.3 32.15 97.95 45.1 L100.8 42.85 Q78.85 29.7 54.95 21.35 L54.7 21.5 Q34.05 31.9 16.8 47.4 L19.6 49.0 Q35.05 35.2 54.8 24.2 M105.4 42.9 Q87.0 59.85 63.8 71.55 L63.75 71.55 Q33.9 61.35 11.25 48.15 L11.15 48.05 Q30.65 31.45 54.15 18.0 79.8 28.35 105.4 42.2 L105.4 42.9 M97.95 45.1 Q80.5 58.6 63.05 67.75 38.85 60.0 19.6 49.0 38.85 60.0 63.05 67.75 80.5 58.6 97.95 45.1" fill="#dddddd" fill-rule="evenodd" stroke="none"/>
    <path d="M54.7 21.5 L54.8 24.2 Q35.05 35.2 19.6 49.0 L16.8 47.4 Q34.05 31.9 54.7 21.5" fill="#6a6a6a" fill-rule="evenodd" stroke="none"/>
    <path d="M105.4 42.9 L105.4 46.2 104.3 47.25 Q85.25 63.6 63.7 74.65 L63.75 71.55 63.8 71.55 Q87.0 59.85 105.4 42.9 M104.25 49.2 L104.2 50.95 Q83.95 67.7 64.15 78.25 L64.1 78.2 63.8 76.3 63.75 76.0 Q83.3 65.45 104.25 49.2" fill="#515151" fill-rule="evenodd" stroke="none"/>
    <path d="M63.7 74.65 Q85.25 63.6 104.3 47.25 L104.25 49.2 Q83.3 65.45 63.75 76.0 L63.7 75.55 63.7 74.65" fill="#2f2f2f" fill-rule="evenodd" stroke="none"/>
    <path d="M15.25 53.8 L15.05 52.45 Q35.65 63.8 63.35 74.9 L63.7 75.55 63.75 76.0 63.8 76.3 Q39.65 66.65 15.25 53.8" fill="#999999" fill-rule="evenodd" stroke="none"/>
    <path d="M54.7 21.5 L54.8 24.2 54.8 24.6 Q76.3 32.15 97.95 45.1 L100.8 42.85 Q78.85 29.7 54.95 21.35 L54.7 21.5 Q34.05 31.9 16.8 47.4 L19.6 49.0 Q35.05 35.2 54.8 24.2 M104.3 47.25 L105.4 46.2 105.4 42.9 Q87.0 59.85 63.8 71.55 L63.75 71.55 63.7 74.65 Q85.25 63.6 104.3 47.25 L104.25 49.2 104.2 50.95 Q83.95 67.7 64.15 78.25 L64.1 78.25 64.1 78.3 Q37.45 68.25 15.6 56.0 L15.25 53.8 15.05 52.45 14.8 52.3 10.1 49.65 11.25 48.15 11.1 48.1 11.15 48.05 Q30.65 31.45 54.15 18.0 79.8 28.35 105.4 42.2 L106.0 42.45 105.4 42.9 105.4 42.2 M63.75 71.55 Q33.9 61.35 11.25 48.15 M63.75 76.0 L63.8 76.3 64.1 78.2 64.1 78.25 M63.35 74.9 L63.7 75.55 63.7 74.65 63.35 74.9 Q35.65 63.8 15.05 52.45 M63.7 75.55 L63.75 76.0 M19.6 49.0 Q38.85 60.0 63.05 67.75 80.5 58.6 97.95 45.1" fill="none" stroke="#000000" stroke-linecap="round" stroke-linejoin="round" stroke-opacity="0.2509804" stroke-width="0.05"/>
    <path d="M58.3 30.05 L62.6 29.9 67.1 32.4 67.7 32.8 70.55 35.95 70.65 36.25 70.95 37.75 71.35 39.8 69.9 41.3 68.15 43.0 67.9 43.2 65.35 43.75 59.65 46.0 50.95 44.9 Q49.7 44.4 48.55 43.7 L46.95 43.0 46.25 41.85 Q45.4 40.85 45.0 39.75 L44.85 39.15 45.15 36.05 45.25 35.75 45.5 35.3 Q46.1 34.3 47.15 33.4 L47.7 33.0 47.8 32.9 50.2 31.1 52.3 30.8 54.1 30.4 56.4 30.1 57.85 30.05 58.3 30.05" fill="#000000" fill-opacity="0.2627451" fill-rule="evenodd" stroke="none"/>
    <path d="M78.9 39.9 L82.85 39.8 87.0 42.1 87.55 42.45 90.15 45.35 90.25 45.6 90.55 47.0 90.9 48.9 89.55 50.25 87.95 51.85 Q87.8 51.85 87.75 52.0 L85.4 52.5 80.15 54.6 72.15 53.55 Q71.0 53.1 69.95 52.45 L68.45 51.85 67.85 50.75 Q67.05 49.85 66.7 48.85 L66.55 48.3 66.8 45.45 66.9 45.15 67.15 44.75 68.65 43.0 69.15 42.65 69.25 42.55 71.45 40.9 73.4 40.6 75.05 40.25 77.15 39.95 78.5 39.9 78.9 39.9" fill="#000000" fill-opacity="0.2627451" fill-rule="evenodd" stroke="none"/>
    <path d="M62.25 28.85 L65.0 30.4 65.6 30.8 68.45 33.95 68.55 34.25 68.85 35.75 69.25 37.8 67.8 39.3 66.05 41.0 Q65.9 41.05 65.8 41.2 L63.25 41.75 57.55 44.0 49.15 42.9 46.45 41.7 44.85 41.0 44.15 39.85 Q43.3 38.85 42.9 37.75 L42.75 37.15 42.95 35.05 43.9 35.65 44.75 37.65 50.85 41.4 53.6 41.0 56.45 42.45 59.0 40.9 61.65 39.8 63.25 37.75 66.45 36.45 64.15 34.55 63.9 30.95 62.5 29.55 62.25 28.85" fill="#9f921c" fill-rule="evenodd" stroke="none"/>
    <path d="M42.95 35.05 L43.05 34.05 43.15 33.75 43.4 33.3 Q44.0 32.3 45.05 31.4 L45.6 31.0 45.7 30.9 48.1 29.1 50.2 28.8 52.0 28.4 54.3 28.1 56.2 28.05 60.5 27.9 62.25 28.85 62.5 29.55 63.9 30.95 64.15 34.55 66.45 36.45 63.25 37.75 61.65 39.8 59.0 40.9 56.45 42.45 53.6 41.0 50.85 41.4 44.75 37.65 43.9 35.65 42.95 35.05" fill="#e0d152" fill-rule="evenodd" stroke="none"/>
    <path d="M49.15 42.9 L48.85 42.9 Q47.6 42.4 46.45 41.7 L49.15 42.9 M54.3 28.1 L55.75 28.05 56.2 28.05 54.3 28.1" fill="#e9e88d" fill-rule="evenodd" stroke="none"/>
    <path d="M62.25 28.85 L65.0 30.4 65.6 30.8 68.45 33.95 68.55 34.25 68.85 35.75 69.25 37.8 67.8 39.3 66.05 41.0 Q65.9 41.05 65.8 41.2 L63.25 41.75 57.55 44.0 49.15 42.9 48.85 42.9 Q47.6 42.4 46.45 41.7 L44.85 41.0 44.15 39.85 Q43.3 38.85 42.9 37.75 L42.75 37.15 42.95 35.05 43.05 34.05 43.15 33.75 43.4 33.3 Q44.0 32.3 45.05 31.4 L45.6 31.0 45.7 30.9 48.1 29.1 50.2 28.8 52.0 28.4 54.3 28.1 55.75 28.05 56.2 28.05 60.5 27.9 62.25 28.85 M56.2 28.05 L54.3 28.1 M46.45 41.7 L49.15 42.9" fill="none" stroke="#000000" stroke-linecap="round" stroke-linejoin="round" stroke-opacity="0.38039216" stroke-width="0.05"/>
    <path d="M52.2 41.05 L52.05 41.1 50.8 39.2 53.4 38.05 53.45 38.15 52.2 41.05" fill="#593f26" fill-rule="evenodd" stroke="none"/>
    <path d="M52.2 41.05 L53.45 38.15 54.05 40.1 52.2 41.05" fill="#9b6d42" fill-rule="evenodd" stroke="none"/>
    <path d="M53.45 38.15 L53.4 38.05 50.8 39.2 52.05 41.1 52.2 41.05 53.45 38.15 54.05 40.1 52.2 41.05" fill="none" stroke="#000000" stroke-linecap="round" stroke-linejoin="round" stroke-opacity="0.38039216" stroke-width="0.05"/>
    <path d="M54.3 30.75 L52.7 34.55 52.45 34.6 50.8 32.1 54.25 30.65 54.3 30.75" fill="#593f26" fill-rule="evenodd" stroke="none"/>
    <path d="M52.7 34.55 L54.3 30.75 55.1 33.35 52.7 34.55" fill="#9b6d42" fill-rule="evenodd" stroke="none"/>
    <path d="M52.7 34.55 L54.3 30.75 54.25 30.65 50.8 32.1 52.45 34.6 52.7 34.55 55.1 33.35 54.3 30.75" fill="none" stroke="#000000" stroke-linecap="round" stroke-linejoin="round" stroke-opacity="0.38039216" stroke-width="0.05"/>
    <path d="M46.9 34.55 L46.8 34.6 45.95 33.35 47.7 32.6 47.7 32.65 46.9 34.55" fill="#593f26" fill-rule="evenodd" stroke="none"/>
    <path d="M46.9 34.55 L47.7 32.65 48.1 33.95 46.9 34.55" fill="#9b6d42" fill-rule="evenodd" stroke="none"/>
    <path d="M47.7 32.65 L47.7 32.6 45.95 33.35 46.8 34.6 46.9 34.55 47.7 32.65 48.1 33.95 46.9 34.55" fill="none" stroke="#000000" stroke-linecap="round" stroke-linejoin="round" stroke-opacity="0.38039216" stroke-width="0.05"/>
    <path d="M61.6 32.4 L59.4 32.8 59.25 32.75 59.9 31.2 61.65 32.35 61.6 32.4" fill="#593f26" fill-rule="evenodd" stroke="none"/>
    <path d="M59.4 32.8 L61.6 32.4 60.65 33.6 59.4 32.8" fill="#9b6d42" fill-rule="evenodd" stroke="none"/>
    <path d="M59.4 32.8 L61.6 32.4 61.65 32.35 59.9 31.2 59.25 32.75 59.4 32.8 60.65 33.6 61.6 32.4" fill="none" stroke="#000000" stroke-linecap="round" stroke-linejoin="round" stroke-opacity="0.38039216" stroke-width="0.05"/>
    <path d="M59.85 37.25 L59.7 37.2 60.35 35.65 62.1 36.8 62.05 36.85 59.85 37.25" fill="#593f26" fill-rule="evenodd" stroke="none"/>
    <path d="M59.85 37.25 L62.05 36.85 61.1 38.05 59.85 37.25" fill="#9b6d42" fill-rule="evenodd" stroke="none"/>
    <path d="M62.05 36.85 L62.1 36.8 60.35 35.65 59.7 37.2 59.85 37.25 62.05 36.85 61.1 38.05 59.85 37.25" fill="none" stroke="#000000" stroke-linecap="round" stroke-linejoin="round" stroke-opacity="0.38039216" stroke-width="0.05"/>
    <path d="M58.1 29.8 L60.25 29.8 M65.8 32.3 Q66.2 32.1 66.55 31.85 M66.65 37.7 L66.55 38.9 M62.6 33.65 L64.1 33.75 M66.85 34.0 L68.9 36.0 M51.35 29.1 L52.4 27.9 M49.5 33.15 L49.5 31.95 M46.75 38.15 L45.7 39.75 M45.25 37.45 L44.0 35.9 M56.2 40.15 L57.0 41.6 M55.15 38.8 L57.0 37.3 57.0 36.1 M49.5 37.3 L48.8 38.4 M57.3 33.45 L56.2 34.35 M44.75 34.8 L44.5 32.45" fill="none" stroke="#000000" stroke-linecap="round" stroke-linejoin="round" stroke-opacity="0.2509804" stroke-width="0.05"/>
    <path d="M83.35 39.15 L85.7 40.5 86.25 40.85 88.7 43.6 88.8 43.85 89.05 45.15 89.4 46.95 88.15 48.25 86.65 49.7 86.4 49.9 84.2 50.35 79.25 52.35 71.95 51.35 69.6 50.35 68.2 49.7 67.6 48.7 66.5 46.9 66.4 46.35 66.55 44.55 67.4 45.05 68.1 46.8 73.4 50.05 75.8 49.7 78.3 51.0 80.5 49.65 82.8 48.7 84.2 46.9 87.0 45.75 85.0 44.1 84.75 41.0 83.55 39.75 83.35 39.15" fill="#9f921c" fill-rule="evenodd" stroke="none"/>
    <path d="M66.55 44.55 L66.65 43.7 66.7 43.4 66.95 43.05 Q67.45 42.15 68.4 41.35 L68.85 41.05 68.95 40.95 71.05 39.35 72.85 39.1 74.4 38.75 76.4 38.5 78.05 38.45 81.8 38.35 83.35 39.15 83.55 39.75 84.75 41.0 85.0 44.1 87.0 45.75 84.2 46.9 82.8 48.7 80.5 49.65 78.3 51.0 75.8 49.7 73.4 50.05 68.1 46.8 67.4 45.05 66.55 44.55" fill="#e0d152" fill-rule="evenodd" stroke="none"/>
    <path d="M71.95 51.35 L71.7 51.35 Q70.6 50.95 69.6 50.35 L71.95 51.35 M76.4 38.5 L77.7 38.45 78.05 38.45 76.4 38.5" fill="#e9e88d" fill-rule="evenodd" stroke="none"/>
    <path d="M83.35 39.15 L85.7 40.5 86.25 40.85 88.7 43.6 88.8 43.85 89.05 45.15 89.4 46.95 88.15 48.25 86.65 49.7 86.4 49.9 84.2 50.35 79.25 52.35 71.95 51.35 71.7 51.35 Q70.6 50.95 69.6 50.35 L68.2 49.7 67.6 48.7 66.5 46.9 66.4 46.35 66.55 44.55 66.65 43.7 66.7 43.4 66.95 43.05 Q67.45 42.15 68.4 41.35 L68.85 41.05 68.95 40.95 71.05 39.35 72.85 39.1 74.4 38.75 76.4 38.5 77.7 38.45 78.05 38.45 81.8 38.35 83.35 39.15 M78.05 38.45 L76.4 38.5 M69.6 50.35 L71.95 51.35" fill="none" stroke="#000000" stroke-linecap="round" stroke-linejoin="round" stroke-opacity="0.38039216" stroke-width="0.05"/>
    <path d="M74.6 49.75 L74.5 49.8 73.4 48.15 75.65 47.2 75.7 47.25 74.6 49.75" fill="#593f26" fill-rule="evenodd" stroke="none"/>
    <path d="M74.6 49.75 L75.7 47.25 76.2 48.95 74.6 49.75" fill="#9b6d42" fill-rule="evenodd" stroke="none"/>
    <path d="M75.7 47.25 L75.65 47.2 73.4 48.15 74.5 49.8 74.6 49.75 75.7 47.25 76.2 48.95 74.6 49.75" fill="none" stroke="#000000" stroke-linecap="round" stroke-linejoin="round" stroke-opacity="0.38039216" stroke-width="0.05"/>
    <path d="M76.4 40.8 L75.0 44.1 74.85 44.15 73.4 41.95 76.4 40.7 76.4 40.8" fill="#593f26" fill-rule="evenodd" stroke="none"/>
    <path d="M75.0 44.1 L76.4 40.8 77.1 43.05 75.0 44.1" fill="#9b6d42" fill-rule="evenodd" stroke="none"/>
    <path d="M75.0 44.1 L76.4 40.8 76.4 40.7 73.4 41.95 74.85 44.15 75.0 44.1 77.1 43.05 76.4 40.8" fill="none" stroke="#000000" stroke-linecap="round" stroke-linejoin="round" stroke-opacity="0.38039216" stroke-width="0.05"/>
    <path d="M69.95 44.1 L69.9 44.15 69.15 43.0 70.65 42.4 69.95 44.1" fill="#593f26" fill-rule="evenodd" stroke="none"/>
    <path d="M69.95 44.1 L70.65 42.4 71.0 43.55 69.95 44.1" fill="#9b6d42" fill-rule="evenodd" stroke="none"/>
    <path d="M70.65 42.4 L69.15 43.0 69.9 44.15 69.95 44.1 70.65 42.4 71.0 43.55 69.95 44.1" fill="none" stroke="#000000" stroke-linecap="round" stroke-linejoin="round" stroke-opacity="0.38039216" stroke-width="0.05"/>
    <path d="M82.8 42.25 L80.85 42.6 80.7 42.55 81.35 41.2 82.8 42.2 82.8 42.25" fill="#593f26" fill-rule="evenodd" stroke="none"/>
    <path d="M80.85 42.6 L82.8 42.25 81.95 43.25 80.85 42.6" fill="#9b6d42" fill-rule="evenodd" stroke="none"/>
    <path d="M80.85 42.6 L82.8 42.25 82.8 42.2 81.35 41.2 80.7 42.55 80.85 42.6 81.95 43.25 82.8 42.25" fill="none" stroke="#000000" stroke-linecap="round" stroke-linejoin="round" stroke-opacity="0.38039216" stroke-width="0.05"/>
    <path d="M81.25 46.45 L81.1 46.4 81.75 45.05 83.2 46.05 83.2 46.1 81.25 46.45" fill="#593f26" fill-rule="evenodd" stroke="none"/>
    <path d="M81.25 46.45 L83.2 46.1 82.35 47.1 81.25 46.45" fill="#9b6d42" fill-rule="evenodd" stroke="none"/>
    <path d="M83.2 46.1 L83.2 46.05 81.75 45.05 81.1 46.4 81.25 46.45 83.2 46.1 82.35 47.1 81.25 46.45" fill="none" stroke="#000000" stroke-linecap="round" stroke-linejoin="round" stroke-opacity="0.38039216" stroke-width="0.05"/>
    <path d="M79.7 40.0 L81.6 40.0 M86.4 42.15 L87.05 41.75 M87.15 46.85 L87.05 47.9 M83.65 43.35 L84.95 43.4 M87.35 43.65 L89.1 45.35 M73.85 39.35 L74.75 38.35 M72.25 42.9 L72.25 41.85 M69.85 47.25 L68.95 48.65 M68.55 46.65 L67.45 45.3 M78.05 49.0 L78.75 50.25 M77.15 47.8 L78.75 46.5 78.75 45.45 M72.25 46.5 L71.65 47.45 M79.05 43.15 L78.05 43.95 M68.1 44.35 L67.9 42.3" fill="none" stroke="#000000" stroke-linecap="round" stroke-linejoin="round" stroke-opacity="0.2509804" stroke-width="0.05"/>
    <path d="M38.9 42.05 L42.85 41.95 47.0 44.25 47.55 44.6 50.15 47.5 50.25 47.75 50.55 49.15 50.9 51.05 49.55 52.4 47.95 54.0 47.75 54.15 45.4 54.65 40.15 56.75 32.15 55.7 Q31.0 55.25 29.95 54.6 L28.45 54.0 27.85 52.9 Q27.05 52.0 26.7 51.0 L26.55 50.45 26.8 47.6 26.9 47.3 27.15 46.9 Q27.7 46.0 28.65 45.15 L29.15 44.8 29.25 44.7 31.45 43.05 33.4 42.75 35.05 42.4 37.15 42.1 38.5 42.05 38.9 42.05" fill="#000000" fill-opacity="0.2627451" fill-rule="evenodd" stroke="none"/>
    <path d="M59.9 50.0 L63.85 49.9 68.0 52.2 68.55 52.55 71.15 55.45 71.25 55.7 71.55 57.1 71.9 59.0 70.55 60.35 68.95 61.95 68.75 62.1 66.4 62.6 61.15 64.7 53.15 63.65 Q52.0 63.2 50.95 62.55 L49.45 61.95 48.85 60.85 Q48.05 59.95 47.7 58.95 L47.55 58.4 47.8 55.55 47.9 55.25 48.15 54.85 Q48.7 53.95 49.65 53.1 L50.15 52.75 50.25 52.65 52.45 51.0 54.4 50.7 56.05 50.35 58.15 50.05 59.5 50.0 59.9 50.0" fill="#000000" fill-opacity="0.2627451" fill-rule="evenodd" stroke="none"/>
    <path d="M25.25 47.3 L26.1 47.8 26.9 49.5 32.4 52.7 34.9 52.35 37.45 53.6 39.75 52.3 42.15 51.35 43.6 49.6 46.5 48.5 44.4 46.9 44.2 43.8 42.95 42.6 42.7 42.05 45.2 43.35 45.75 43.7 48.3 46.35 48.4 46.6 48.65 47.9 49.05 49.65 47.7 50.9 46.15 52.35 45.9 52.55 43.6 53.0 38.45 54.9 30.85 54.0 28.4 52.95 26.95 52.35 26.35 51.4 Q25.55 50.55 25.2 49.6 L25.05 49.1 25.25 47.3" fill="#9f921c" fill-rule="evenodd" stroke="none"/>
    <path d="M42.7 42.05 L42.95 42.6 44.2 43.8 44.4 46.9 46.5 48.5 43.6 49.6 42.15 51.35 39.75 52.3 37.45 53.6 34.9 52.35 32.4 52.7 26.9 49.5 26.1 47.8 25.25 47.3 25.35 46.45 25.45 46.2 25.65 45.8 27.15 44.2 27.65 43.85 27.75 43.75 29.9 42.25 31.8 42.0 33.45 41.65 35.5 41.4 37.25 41.35 41.1 41.2 42.7 42.05" fill="#e0d152" fill-rule="evenodd" stroke="none"/>
    <path d="M37.25 41.35 L35.5 41.4 36.8 41.35 37.25 41.35 M28.4 52.95 L30.85 54.0 30.6 54.0 28.4 52.95" fill="#e9e88d" fill-rule="evenodd" stroke="none"/>
    <path d="M42.7 42.05 L41.1 41.2 37.25 41.35 35.5 41.4 33.45 41.65 31.8 42.0 29.9 42.25 27.75 43.75 27.65 43.85 27.15 44.2 25.65 45.8 25.45 46.2 25.35 46.45 25.25 47.3 25.05 49.1 25.2 49.6 Q25.55 50.55 26.35 51.4 L26.95 52.35 28.4 52.95 30.85 54.0 38.45 54.9 43.6 53.0 45.9 52.55 46.15 52.35 47.7 50.9 49.05 49.65 48.65 47.9 48.4 46.6 48.3 46.35 45.75 43.7 45.2 43.35 42.7 42.05 M35.5 41.4 L36.8 41.35 37.25 41.35 M30.85 54.0 L30.6 54.0 28.4 52.95" fill="none" stroke="#000000" stroke-linecap="round" stroke-linejoin="round" stroke-opacity="0.38039216" stroke-width="0.05"/>
    <path d="M34.7 50.0 L33.6 52.45 33.45 52.5 32.3 50.85 34.65 49.95 34.7 50.0" fill="#593f26" fill-rule="evenodd" stroke="none"/>
    <path d="M33.6 52.45 L34.7 50.0 35.25 51.65 33.6 52.45" fill="#9b6d42" fill-rule="evenodd" stroke="none"/>
    <path d="M33.6 52.45 L34.7 50.0 34.65 49.95 32.3 50.85 33.45 52.5 33.6 52.45 35.25 51.65 34.7 50.0" fill="none" stroke="#000000" stroke-linecap="round" stroke-linejoin="round" stroke-opacity="0.38039216" stroke-width="0.05"/>
    <path d="M34.1 46.9 L33.9 46.95 32.4 44.8 35.5 43.6 35.55 43.65 34.1 46.9" fill="#593f26" fill-rule="evenodd" stroke="none"/>
    <path d="M34.1 46.9 L35.55 43.65 36.25 45.85 34.1 46.9" fill="#9b6d42" fill-rule="evenodd" stroke="none"/>
    <path d="M35.55 43.65 L35.5 43.6 32.4 44.8 33.9 46.95 34.1 46.9 35.55 43.65 36.25 45.85 34.1 46.9" fill="none" stroke="#000000" stroke-linecap="round" stroke-linejoin="round" stroke-opacity="0.38039216" stroke-width="0.05"/>
    <path d="M29.5 45.3 L28.8 46.95 28.7 47.0 27.95 45.9 29.5 45.3" fill="#593f26" fill-rule="evenodd" stroke="none"/>
    <path d="M28.8 46.95 L29.5 45.3 29.9 46.45 28.8 46.95" fill="#9b6d42" fill-rule="evenodd" stroke="none"/>
    <path d="M28.8 46.95 L29.5 45.3 27.95 45.9 28.7 47.0 28.8 46.95 29.9 46.45 29.5 45.3" fill="none" stroke="#000000" stroke-linecap="round" stroke-linejoin="round" stroke-opacity="0.38039216" stroke-width="0.05"/>
    <path d="M40.15 45.45 L40.05 45.35 40.7 44.05 42.2 45.05 40.15 45.45" fill="#593f26" fill-rule="evenodd" stroke="none"/>
    <path d="M40.15 45.45 L42.2 45.05 41.3 46.1 40.15 45.45" fill="#9b6d42" fill-rule="evenodd" stroke="none"/>
    <path d="M42.2 45.05 L40.7 44.05 40.05 45.35 40.15 45.45 42.2 45.05 41.3 46.1 40.15 45.45" fill="none" stroke="#000000" stroke-linecap="round" stroke-linejoin="round" stroke-opacity="0.38039216" stroke-width="0.05"/>
    <path d="M42.55 48.85 L40.5 49.25 40.4 49.15 41.05 47.85 42.55 48.85" fill="#593f26" fill-rule="evenodd" stroke="none"/>
    <path d="M40.5 49.25 L42.55 48.85 41.65 49.9 40.5 49.25" fill="#9b6d42" fill-rule="evenodd" stroke="none"/>
    <path d="M40.5 49.25 L42.55 48.85 41.05 47.85 40.4 49.15 40.5 49.25 41.65 49.9 42.55 48.85" fill="none" stroke="#000000" stroke-linecap="round" stroke-linejoin="round" stroke-opacity="0.38039216" stroke-width="0.05"/>
    <path d="M38.95 42.85 L40.9 42.85 M45.9 44.95 L46.6 44.6 M46.7 49.55 L46.6 50.6 M43.0 46.1 L44.35 46.2 M46.85 46.4 L48.7 48.1 M31.15 45.7 L31.15 44.65 M32.85 42.25 L33.8 41.2 M27.35 49.35 L26.2 48.0 M28.7 49.95 L27.75 51.3 M37.25 51.65 L37.95 52.9 M36.3 50.5 L37.95 49.2 37.95 48.2 M31.15 49.2 L30.55 50.15 M26.9 47.1 L26.65 45.1 M38.25 45.95 L37.25 46.7" fill="none" stroke="#000000" stroke-linecap="round" stroke-linejoin="round" stroke-opacity="0.2509804" stroke-width="0.05"/>
    <path d="M63.35 50.0 L65.7 51.3 66.2 51.65 68.55 54.25 68.65 54.5 68.9 55.8 69.25 57.5 68.0 58.75 66.55 60.2 66.35 60.35 64.2 60.8 59.45 62.7 52.4 61.8 50.1 60.75 48.8 60.2 48.2 59.2 Q47.5 58.4 47.15 57.45 L47.0 56.95 47.2 55.2 48.0 55.7 48.7 57.35 53.8 60.5 56.1 60.2 58.5 61.4 60.65 60.1 62.85 59.2 64.2 57.45 66.9 56.35 64.95 54.8 64.75 51.75 63.6 50.6 63.35 50.0" fill="#9f921c" fill-rule="evenodd" stroke="none"/>
    <path d="M47.2 55.2 L47.25 54.35 47.35 54.1 47.55 53.75 Q48.05 52.9 48.95 52.15 L49.4 51.8 49.5 51.7 51.5 50.2 53.25 49.95 54.8 49.6 56.7 49.35 58.3 49.35 61.9 49.2 63.35 50.0 63.6 50.6 64.75 51.75 64.95 54.8 66.9 56.35 64.2 57.45 62.85 59.2 60.65 60.1 58.5 61.4 56.1 60.2 53.8 60.5 48.7 57.35 48.0 55.7 47.2 55.2" fill="#e0d152" fill-rule="evenodd" stroke="none"/>
    <path d="M52.4 61.8 L52.15 61.8 50.1 60.75 52.4 61.8 M56.7 49.35 L57.9 49.35 58.3 49.35 56.7 49.35" fill="#e9e88d" fill-rule="evenodd" stroke="none"/>
    <path d="M63.35 50.0 L65.7 51.3 66.2 51.65 68.55 54.25 68.65 54.5 68.9 55.8 69.25 57.5 68.0 58.75 66.55 60.2 66.35 60.35 64.2 60.8 59.45 62.7 52.4 61.8 52.15 61.8 50.1 60.75 48.8 60.2 48.2 59.2 Q47.5 58.4 47.15 57.45 L47.0 56.95 47.2 55.2 47.25 54.35 47.35 54.1 47.55 53.75 Q48.05 52.9 48.95 52.15 L49.4 51.8 49.5 51.7 51.5 50.2 53.25 49.95 54.8 49.6 56.7 49.35 57.9 49.35 58.3 49.35 61.9 49.2 63.35 50.0 M58.3 49.35 L56.7 49.35 M50.1 60.75 L52.4 61.8" fill="none" stroke="#000000" stroke-linecap="round" stroke-linejoin="round" stroke-opacity="0.38039216" stroke-width="0.05"/>
    <path d="M54.9 60.2 L54.75 60.25 53.7 58.65 55.9 57.7 55.95 57.75 54.9 60.2" fill="#593f26" fill-rule="evenodd" stroke="none"/>
    <path d="M54.9 60.2 L55.95 57.75 56.45 59.4 54.9 60.2" fill="#9b6d42" fill-rule="evenodd" stroke="none"/>
    <path d="M55.95 57.75 L55.9 57.7 53.7 58.65 54.75 60.25 54.9 60.2 55.95 57.75 56.45 59.4 54.9 60.2" fill="none" stroke="#000000" stroke-linecap="round" stroke-linejoin="round" stroke-opacity="0.38039216" stroke-width="0.05"/>
    <path d="M56.7 51.6 L55.35 54.8 55.2 54.85 53.8 52.75 56.65 51.5 56.7 51.6" fill="#593f26" fill-rule="evenodd" stroke="none"/>
    <path d="M55.35 54.8 L56.7 51.6 57.35 53.8 55.35 54.8" fill="#9b6d42" fill-rule="evenodd" stroke="none"/>
    <path d="M55.35 54.8 L56.7 51.6 56.65 51.5 53.8 52.75 55.2 54.85 55.35 54.8 57.35 53.8 56.7 51.6" fill="none" stroke="#000000" stroke-linecap="round" stroke-linejoin="round" stroke-opacity="0.38039216" stroke-width="0.05"/>
    <path d="M50.5 54.8 L50.4 54.85 49.7 53.8 Q50.45 53.5 51.15 53.15 L51.2 53.2 50.5 54.8" fill="#593f26" fill-rule="evenodd" stroke="none"/>
    <path d="M50.5 54.8 L51.2 53.2 51.5 54.3 50.5 54.8" fill="#9b6d42" fill-rule="evenodd" stroke="none"/>
    <path d="M51.2 53.2 L51.15 53.15 Q50.45 53.5 49.7 53.8 L50.4 54.85 50.5 54.8 51.2 53.2 51.5 54.3 50.5 54.8" fill="none" stroke="#000000" stroke-linecap="round" stroke-linejoin="round" stroke-opacity="0.38039216" stroke-width="0.05"/>
    <path d="M62.85 52.95 L60.95 53.3 60.85 53.25 61.4 51.95 62.85 52.95" fill="#593f26" fill-rule="evenodd" stroke="none"/>
    <path d="M60.95 53.3 L62.85 52.95 62.0 53.95 60.95 53.3" fill="#9b6d42" fill-rule="evenodd" stroke="none"/>
    <path d="M60.95 53.3 L62.85 52.95 61.4 51.95 60.85 53.25 60.95 53.3 62.0 53.95 62.85 52.95" fill="none" stroke="#000000" stroke-linecap="round" stroke-linejoin="round" stroke-opacity="0.38039216" stroke-width="0.05"/>
    <path d="M61.35 57.05 L61.25 57.0 61.8 55.7 63.25 56.7 61.35 57.05" fill="#593f26" fill-rule="evenodd" stroke="none"/>
    <path d="M61.35 57.05 L63.25 56.7 62.4 57.7 61.35 57.05" fill="#9b6d42" fill-rule="evenodd" stroke="none"/>
    <path d="M63.25 56.7 L61.8 55.7 61.25 57.0 61.35 57.05 63.25 56.7 62.4 57.7 61.35 57.05" fill="none" stroke="#000000" stroke-linecap="round" stroke-linejoin="round" stroke-opacity="0.38039216" stroke-width="0.05"/>
    <path d="M59.9 50.8 L61.7 50.8 M66.35 52.9 L67.0 52.5 M67.05 57.4 L67.0 58.4 M63.65 54.0 L64.9 54.1 M67.25 54.3 L68.95 56.0 M54.25 50.2 L55.1 49.2 M52.7 53.6 L52.7 52.6 M50.35 57.8 L49.5 59.15 M49.1 57.2 L48.05 55.9 M58.3 59.45 L58.95 60.7 M57.4 58.35 L58.95 57.1 58.95 56.1 M52.7 57.1 L52.1 58.0 M59.2 53.85 L58.3 54.6 M48.7 55.0 L48.5 53.0" fill="none" stroke="#000000" stroke-linecap="round" stroke-linejoin="round" stroke-opacity="0.2509804" stroke-width="0.05"/>
  </g>
</svg>
