<?xml version="1.0" encoding="UTF-8" standalone="no"?>
<svg xmlns:xlink="http://www.w3.org/1999/xlink" height="169.35px" width="151.55px" xmlns="http://www.w3.org/2000/svg">
  <g transform="matrix(1.0, 0.0, 0.0, 1.0, -183.55, -123.05)">
    <path d="M235.4 226.65 L236.3 226.2 Q243.25 225.6 245.55 228.55 248.4 236.8 247.6 243.8 L246.1 243.3 247.6 243.8 Q246.85 250.15 243.1 255.5 235.25 263.75 229.15 255.75 L228.35 254.6 Q225.5 248.15 225.85 240.9 226.4 231.05 235.4 226.65 L235.2 228.4 235.4 226.65 M269.65 234.15 L270.35 234.6 Q278.05 239.8 276.05 245.75 L272.5 244.85 276.05 245.75 275.15 247.65 Q270.25 254.6 264.15 249.45 L263.45 248.45 Q259.35 242.15 262.0 235.3 264.65 230.85 269.65 234.15 M270.35 234.6 L269.7 238.05 270.35 234.6 M263.45 248.45 L264.45 247.35 263.45 248.45 M230.55 254.2 L229.15 255.75 230.55 254.2" fill="#56431f" fill-rule="evenodd" stroke="none"/>
    <path d="M240.15 153.45 L238.6 158.5 254.9 156.65 257.3 156.35 256.25 153.15 256.2 153.05 256.25 153.15 260.6 151.35 Q261.65 155.0 259.45 158.2 L257.7 160.25 253.95 163.0 248.9 164.0 Q241.4 164.6 237.35 159.35 235.95 157.55 234.95 155.0 L234.9 154.35 235.1 151.15 240.15 153.45" fill="#a02c25" fill-rule="evenodd" stroke="none"/>
    <path d="M239.45 123.1 L242.8 141.05 243.15 141.05 256.35 125.5 Q267.1 127.85 272.8 131.4 263.85 135.0 273.4 140.1 270.45 141.7 268.5 145.65 L268.05 146.6 Q265.55 145.35 263.55 144.75 261.45 144.1 259.95 144.1 L259.15 144.15 259.2 143.95 243.15 141.05 243.05 141.2 254.9 156.65 238.6 158.5 240.15 153.45 240.3 153.0 240.45 149.25 Q238.5 147.5 235.35 146.85 230.05 145.8 221.25 147.85 L214.35 135.95 Q218.0 134.8 220.45 133.5 L242.8 141.4 225.45 128.2 Q225.65 126.85 225.0 125.4 L239.45 123.1 M225.55 168.95 Q226.2 166.45 227.45 164.6 226.2 166.45 225.55 168.95 M227.45 164.6 Q228.2 163.35 229.3 162.4 L229.4 162.3 252.25 172.75 251.65 170.55 269.9 182.0 277.8 200.2 284.45 215.65 287.5 266.85 280.6 276.5 231.3 285.55 188.35 269.65 195.0 205.0 217.95 160.0 225.7 157.45 227.45 164.6 M273.75 204.8 L273.25 201.5 Q275.85 201.05 277.8 200.2 275.85 201.05 273.25 201.5 L273.75 204.8 M230.5 195.9 L243.4 183.3 236.5 175.45 217.95 169.35 210.3 183.5 202.3 216.35 199.95 267.6 217.1 268.75 219.05 237.4 225.55 200.7 230.5 195.9 Q242.85 199.15 252.4 200.65 L250.15 195.75 252.4 200.65 Q242.85 199.15 230.5 195.9 M253.6 183.15 Q253.35 177.45 252.25 172.75 253.35 177.45 253.6 183.15 M254.5 205.4 L252.4 200.65 Q265.6 202.75 273.25 201.5 265.6 202.75 252.4 200.65 L254.5 205.4 M247.6 243.8 Q248.4 236.8 245.55 228.55 243.25 225.6 236.3 226.2 L235.4 226.65 235.85 222.2 235.4 226.65 Q226.4 231.05 225.85 240.9 225.5 248.15 228.35 254.6 L229.15 255.75 Q235.25 263.75 243.1 255.5 246.85 250.15 247.6 243.8 L251.7 245.2 247.6 243.8 M226.2 258.85 L229.15 255.75 226.2 258.85 M270.35 234.6 L270.4 234.3 269.65 234.15 Q264.65 230.85 262.0 235.3 259.35 242.15 263.45 248.45 L264.15 249.45 Q270.25 254.6 275.15 247.65 L276.05 245.75 Q278.05 239.8 270.35 234.6 M270.65 233.05 L270.4 234.3 270.65 233.05 M280.3 246.75 L276.05 245.75 280.3 246.75 M260.4 251.7 L263.45 248.45 260.4 251.7 M273.25 201.5 L272.5 197.0 273.25 201.5" fill="#bba239" fill-rule="evenodd" stroke="none"/>
    <path d="M239.45 123.1 L239.8 123.05 Q245.6 131.25 253.9 125.15 L254.45 125.1 256.35 125.5 243.15 141.05 242.8 141.05 239.45 123.1 M220.45 133.5 Q225.0 131.1 225.45 128.2 L242.8 141.4 220.45 133.5 M254.9 156.65 L243.05 141.2 243.15 141.05 259.2 143.95 259.15 144.15 Q255.85 144.55 255.65 148.7 L256.2 153.05 256.25 153.15 257.3 156.35 254.9 156.65 M234.75 154.4 L234.95 155.0 Q235.95 157.55 237.35 159.35 241.4 164.6 248.9 164.0 L253.95 163.0 257.7 160.25 259.45 158.2 Q261.65 155.0 260.6 151.35 L260.5 151.0 260.5 150.9 272.9 154.0 302.95 215.0 306.9 266.9 307.05 268.85 305.7 280.1 308.9 282.75 309.7 283.4 293.8 287.55 273.5 289.45 270.9 290.0 Q237.55 296.25 204.35 286.15 L183.55 277.45 188.0 273.0 188.35 269.65 231.3 285.55 280.6 276.5 287.5 266.85 284.45 215.65 277.8 200.2 269.9 182.0 251.65 170.55 252.25 172.75 229.4 162.3 229.3 162.4 Q228.2 163.35 227.45 164.6 L225.7 157.45 234.75 154.4 M229.4 162.3 Q232.4 159.65 237.35 159.35 232.4 159.65 229.4 162.3 M251.65 170.55 Q250.55 166.95 248.9 164.0 250.55 166.95 251.65 170.55 M280.95 198.15 Q279.7 199.35 277.8 200.2 279.7 199.35 280.95 198.15 M272.5 168.6 Q270.3 158.5 259.45 158.2 270.3 158.5 272.5 168.6 M292.3 281.9 Q308.55 281.25 298.85 276.5 308.55 281.25 292.3 281.9 M200.1 278.3 Q183.85 277.65 193.65 272.7 183.85 277.65 200.1 278.3" fill="#937e2d" fill-rule="evenodd" stroke="none"/>
    <path d="M230.5 195.9 L226.1 194.75 227.75 191.4 226.1 194.75 230.5 195.9 225.55 200.7 219.05 237.4 217.1 268.75 199.95 267.6 202.3 216.35 210.3 183.5 217.95 169.35 236.5 175.45 243.4 183.3 230.5 195.9 M224.35 198.25 L226.1 194.75 216.65 192.0 226.1 194.75 224.35 198.25" fill="#d7c57b" fill-rule="evenodd" stroke="none"/>
    <path d="M235.35 146.85 Q238.5 147.5 240.45 149.25 L240.3 153.0 240.15 153.45 235.1 151.15 235.35 146.85 M260.6 151.35 L256.25 153.15 256.2 153.05 255.65 148.7 Q255.85 144.55 259.15 144.15 L260.45 150.7 260.45 150.9 260.5 151.0 260.6 151.35" fill="#721f1b" fill-rule="evenodd" stroke="none"/>
    <path d="M308.9 282.75 L305.7 280.1 307.05 268.85 306.9 266.9 335.1 270.9 308.9 282.75" fill="#bab7b1" fill-rule="evenodd" stroke="none"/>
    <path d="M227.45 164.6 Q226.2 166.45 225.55 168.95 M229.3 162.4 Q228.2 163.35 227.45 164.6" fill="none" stroke="#000000" stroke-linecap="round" stroke-linejoin="round" stroke-width="0.05"/>
    <path d="M253.9 125.15 Q245.6 131.25 239.8 123.05 L239.45 123.1 225.0 125.4 Q225.65 126.85 225.45 128.2 225.0 131.1 220.45 133.5 218.0 134.8 214.35 135.95 L221.25 147.85 Q230.05 145.8 235.35 146.85 238.5 147.5 240.45 149.25 L240.3 153.0 240.15 153.45 238.6 158.5 254.9 156.65 257.3 156.35 256.25 153.15 256.2 153.05 255.65 148.7 Q255.85 144.55 259.15 144.15 L259.95 144.1 M256.35 125.5 L254.45 125.1 M263.55 144.75 Q265.55 145.35 268.05 146.6 L268.5 145.65 Q270.45 141.7 273.4 140.1 263.85 135.0 272.8 131.4 267.1 127.85 256.35 125.5 M234.9 154.35 L234.75 154.4 225.7 157.45 217.95 160.0 195.0 205.0 188.35 269.65 188.0 273.0 183.55 277.45 204.35 286.15 Q237.55 296.25 270.9 290.0 L273.5 289.45 293.8 287.55 309.7 283.4 308.9 282.75 305.7 280.1 307.05 268.85 306.9 266.9 302.95 215.0 272.9 154.0 260.5 150.9 260.45 150.9 260.45 150.7 259.15 144.15 M234.95 155.0 L234.9 154.35 235.1 151.15 235.35 146.85 M234.95 155.0 Q235.95 157.55 237.35 159.35 241.4 164.6 248.9 164.0 L253.95 163.0 257.7 160.25 259.45 158.2 Q261.65 155.0 260.6 151.35 L260.5 151.0 260.45 150.9 M277.8 200.2 Q275.85 201.05 273.25 201.5 L273.75 204.8 M237.35 159.35 Q232.4 159.65 229.4 162.3 M227.75 191.4 L226.1 194.75 230.5 195.9 Q242.85 199.15 252.4 200.65 L250.15 195.75 M216.65 192.0 L226.1 194.75 224.35 198.25 M251.65 170.55 L252.25 172.75 Q253.35 177.45 253.6 183.15 M248.9 164.0 Q250.55 166.95 251.65 170.55 M277.8 200.2 Q279.7 199.35 280.95 198.15 M259.45 158.2 Q270.3 158.5 272.5 168.6 M273.25 201.5 Q265.6 202.75 252.4 200.65 L254.5 205.4 M247.6 243.8 Q248.4 236.8 245.55 228.55 243.25 225.6 236.3 226.2 L235.4 226.65 235.2 228.4 M247.6 243.8 L251.7 245.2 M246.1 243.3 L247.6 243.8 Q246.85 250.15 243.1 255.5 235.25 263.75 229.15 255.75 L226.2 258.85 M270.35 234.6 L270.4 234.3 270.65 233.05 M269.65 234.15 L270.35 234.6 Q278.05 239.8 276.05 245.75 L280.3 246.75 M269.7 238.05 L270.35 234.6 M272.5 244.85 L276.05 245.75 275.15 247.65 Q270.25 254.6 264.15 249.45 L263.45 248.45 260.4 251.7 M263.45 248.45 Q259.35 242.15 262.0 235.3 264.65 230.85 269.65 234.15 M298.85 276.5 Q308.55 281.25 292.3 281.9 M264.45 247.35 L263.45 248.45 M235.4 226.65 L235.85 222.2 M235.4 226.65 Q226.4 231.05 225.85 240.9 225.5 248.15 228.35 254.6 L229.15 255.75 230.55 254.2 M193.65 272.7 Q183.85 277.65 200.1 278.3 M272.5 197.0 L273.25 201.5" fill="none" stroke="#000000" stroke-linecap="round" stroke-linejoin="round" stroke-opacity="0.6" stroke-width="0.05"/>
  </g>
</svg>
