<?xml version="1.0" encoding="UTF-8" standalone="no"?>
<svg xmlns:xlink="http://www.w3.org/1999/xlink" height="43.4px" width="40.85px" xmlns="http://www.w3.org/2000/svg">
  <g transform="matrix(1.0, 0.0, 0.0, 1.0, -254.4, -178.3)">
    <path d="M286.35 188.0 L286.4 187.6 Q286.5 185.45 283.8 183.35 281.15 181.35 277.2 180.7 273.4 180.0 270.5 181.05 267.7 182.15 267.65 184.3 L267.65 184.8 Q267.7 186.7 270.2 188.55 272.9 190.65 276.75 191.25 280.6 191.9 283.45 190.8 286.0 189.85 286.35 188.0 M261.8 216.8 L260.6 215.75 Q254.75 210.2 254.75 202.3 254.75 194.4 260.6 188.9 262.65 186.9 265.15 185.7 L265.45 188.65 265.45 188.7 266.9 189.7 Q265.25 190.7 263.8 192.05 257.95 197.6 257.95 205.5 257.95 211.9 261.8 216.8 M265.45 182.55 L265.45 182.5 272.5 178.55 280.0 179.3 288.0 184.65 288.5 188.5 288.55 189.2 288.5 189.3 Q285.0 191.2 281.45 193.2 L273.95 192.45 265.95 187.1 265.95 186.95 265.45 182.55" fill="#ececec" fill-rule="evenodd" stroke="none"/>
    <path d="M267.65 184.8 L267.65 184.3 Q267.7 182.15 270.5 181.05 273.4 180.0 277.2 180.7 281.15 181.35 283.8 183.35 286.5 185.45 286.4 187.6 L286.35 188.0 Q286.2 186.0 283.8 184.15 282.65 183.3 281.4 182.7 L281.85 182.95 Q279.85 181.9 277.3 181.5 L276.4 181.35 274.35 181.2 272.35 181.35 270.5 181.85 Q267.95 182.9 267.65 184.8 M288.5 189.3 L288.1 190.85 286.35 191.85 Q283.55 193.25 280.8 194.8 L281.45 193.2 Q285.0 191.2 288.5 189.3" fill="#828282" fill-rule="evenodd" stroke="none"/>
    <path d="M288.75 188.5 L289.2 188.9 Q295.15 194.4 295.15 202.3 295.15 210.2 289.2 215.75 284.8 219.9 279.0 220.85 L275.05 221.25 274.8 221.25 273.15 221.15 272.65 221.1 Q279.4 220.4 284.4 215.75 290.35 210.2 290.35 202.3 290.35 197.6 288.15 193.65 L284.2 195.9 284.0 195.9 280.2 195.5 278.25 195.05 276.2 194.85 275.2 194.25 280.8 194.8 280.9 194.8 281.0 194.8 281.05 194.8 283.45 193.45 286.4 191.85 288.15 190.85 288.55 189.3 288.65 189.3 288.65 189.2 288.55 188.55 288.55 188.5 288.75 188.65 288.75 188.5" fill="#a7a7a7" fill-rule="evenodd" stroke="none"/>
    <path d="M273.15 221.15 L271.45 221.0 Q266.05 220.15 261.8 216.8 257.95 211.9 257.95 205.5 257.95 197.6 263.8 192.05 265.25 190.7 266.9 189.7 L273.45 194.05 273.55 194.05 275.2 194.25 276.2 194.85 275.8 194.85 275.7 194.85 273.6 195.05 271.7 195.45 Q270.05 196.0 268.65 196.95 L268.25 197.25 267.8 197.6 267.4 198.0 267.15 198.25 267.4 198.0 267.8 197.6 Q265.7 199.6 265.7 202.15 265.7 205.1 268.65 207.2 269.8 208.0 271.2 208.55 269.8 208.05 268.6 207.2 265.65 205.1 265.65 202.15 265.65 200.0 267.15 198.25 L267.7 197.6 267.3 198.0 Q263.85 201.2 263.85 205.75 263.85 210.2 267.3 213.4 269.05 214.95 271.15 215.75 273.2 216.55 275.7 216.55 L275.8 216.55 278.25 216.4 Q281.6 215.75 284.1 213.4 287.6 210.2 287.6 205.75 287.6 201.2 284.1 198.0 281.55 195.65 278.25 195.05 L280.2 195.5 284.0 195.9 284.2 195.9 288.15 193.65 Q290.35 197.6 290.35 202.3 290.35 210.2 284.4 215.75 279.4 220.4 272.65 221.1 L273.15 221.15 M265.15 185.7 L265.0 184.1 265.45 182.55 265.95 186.95 265.85 187.1 265.45 188.65 265.15 185.7 M288.5 188.5 L288.55 188.55 288.65 189.2 288.65 189.3 288.55 189.3 288.15 190.85 286.4 191.85 283.45 193.45 282.5 194.0 283.45 193.45 281.05 194.8 281.0 194.8 282.5 194.0 Q283.2 193.5 284.0 193.1 L286.35 191.85 288.1 190.85 288.5 189.3 288.55 189.3 288.55 189.2 288.5 188.5" fill="#cccccc" fill-rule="evenodd" stroke="none"/>
    <path d="M286.35 188.0 Q286.0 189.85 283.45 190.8 280.6 191.9 276.75 191.25 272.9 190.65 270.2 188.55 267.7 186.7 267.65 184.8 267.95 182.9 270.5 181.85 L272.35 181.35 270.6 181.85 Q268.05 182.9 267.7 184.8 267.8 186.7 270.25 188.55 271.6 189.6 273.3 190.3 L271.15 188.95 Q268.65 187.1 268.6 185.2 268.9 183.3 271.45 182.25 274.25 181.2 278.2 181.9 L281.4 182.7 Q282.65 183.3 283.8 184.15 286.2 186.0 286.35 188.0 M281.05 183.05 L280.65 182.8 281.95 183.7 Q284.1 185.35 284.2 187.1 283.95 188.8 281.6 189.6 279.15 190.65 275.7 190.1 L273.45 189.45 273.95 189.75 Q275.3 190.3 277.0 190.65 280.4 191.2 282.9 190.15 285.2 189.35 285.45 187.7 285.4 185.9 283.2 184.25 L281.05 183.05" fill="#01028d" fill-rule="evenodd" stroke="none"/>
    <path d="M281.05 183.05 L283.2 184.25 Q285.4 185.9 285.45 187.7 285.2 189.35 282.9 190.15 280.4 191.2 277.0 190.65 275.3 190.3 273.95 189.75 L273.45 189.45 275.7 190.1 Q279.15 190.65 281.6 189.6 283.95 188.8 284.2 187.1 284.1 185.35 281.95 183.7 L280.65 182.8 281.05 183.05" fill="#cbccfe" fill-rule="evenodd" stroke="none"/>
    <path d="M272.35 181.35 L274.35 181.2 276.4 181.35 277.3 181.5 Q279.85 181.9 281.85 182.95 L281.4 182.7 278.2 181.9 Q274.25 181.2 271.45 182.25 268.9 183.3 268.6 185.2 268.65 187.1 271.15 188.95 L273.3 190.3 Q271.6 189.6 270.25 188.55 267.8 186.7 267.7 184.8 268.05 182.9 270.6 181.85 L272.35 181.35" fill="#000035" fill-rule="evenodd" stroke="none"/>
    <path d="M273.55 194.05 L273.45 194.05 266.9 189.7 265.45 188.7 265.45 188.65 265.85 187.1 265.95 187.1 273.95 192.45 273.55 194.05" fill="#aaaaaa" fill-rule="evenodd" stroke="none"/>
    <path d="M273.95 192.45 L281.45 193.2 280.8 194.8 275.2 194.25 273.55 194.05 273.95 192.45" fill="#929292" fill-rule="evenodd" stroke="none"/>
    <path d="M276.2 194.85 L278.25 195.05 Q281.55 195.65 284.1 198.0 287.6 201.2 287.6 205.75 287.6 210.2 284.1 213.4 281.6 215.75 278.25 216.4 L280.5 215.65 Q278.6 214.85 277.0 213.4 275.0 211.5 274.2 209.25 L275.7 209.35 Q279.8 209.25 282.65 207.2 285.6 205.1 285.6 202.15 285.6 199.1 282.65 196.95 279.8 194.85 275.8 194.85 L276.2 194.85" fill="#8c8c8c" fill-rule="evenodd" stroke="none"/>
    <path d="M278.25 216.4 L275.8 216.55 275.7 216.55 Q273.2 216.55 271.15 215.75 269.05 214.95 267.3 213.4 263.85 210.2 263.85 205.75 263.85 201.2 267.3 198.0 L267.7 197.6 267.15 198.25 Q265.65 200.0 265.65 202.15 265.65 205.1 268.6 207.2 269.8 208.05 271.2 208.55 L274.2 209.25 Q275.0 211.5 277.0 213.4 278.6 214.85 280.5 215.65 L278.25 216.4" fill="#666666" fill-rule="evenodd" stroke="none"/>
    <path d="M267.65 184.8 L267.65 184.3 Q267.7 182.15 270.5 181.05 273.4 180.0 277.2 180.7 281.15 181.35 283.8 183.35 286.5 185.45 286.4 187.6 L286.35 188.0 Q286.0 189.85 283.45 190.8 280.6 191.9 276.75 191.25 272.9 190.65 270.2 188.55 267.7 186.7 267.65 184.8 267.95 182.9 270.5 181.85 L272.35 181.35 274.35 181.2 276.4 181.35 277.3 181.5 Q279.85 181.9 281.85 182.95 M281.4 182.7 Q282.65 183.3 283.8 184.15 286.2 186.0 286.35 188.0 M265.45 182.55 L265.45 182.5 M288.55 189.2 L288.55 189.3 288.5 189.3 Q285.0 191.2 281.45 193.2 L273.95 192.45 265.95 187.1 265.95 186.95 265.45 182.55 M272.35 181.35 L270.6 181.85 Q268.05 182.9 267.7 184.8 267.8 186.7 270.25 188.55 271.6 189.6 273.3 190.3 M265.45 188.65 L265.45 188.7" fill="none" stroke="#000000" stroke-linecap="round" stroke-linejoin="round" stroke-width="0.05"/>
    <path d="M288.75 188.5 L289.2 188.9 Q295.15 194.4 295.15 202.3 295.15 210.2 289.2 215.75 284.8 219.9 279.0 220.85 L275.05 221.25 274.8 221.25 273.15 221.15 271.45 221.0 Q266.05 220.15 261.8 216.8 L260.6 215.75 Q254.75 210.2 254.75 202.3 254.75 194.4 260.6 188.9 262.65 186.9 265.15 185.7 L265.0 184.1 M265.45 182.5 L272.5 178.55 280.0 179.3 288.0 184.65 288.5 188.5 288.55 188.55 M288.1 190.85 L286.35 191.85 284.0 193.1 280.8 194.8 275.2 194.25 273.55 194.05 273.45 194.05 266.9 189.7 265.45 188.7 M282.5 194.0 L283.45 193.45 286.4 191.85 M288.55 189.2 L288.5 188.5 M272.65 221.1 L273.15 221.15 M280.9 194.8 L280.8 194.8 M276.2 194.85 L278.25 195.05 Q281.55 195.65 284.1 198.0 287.6 201.2 287.6 205.75 287.6 210.2 284.1 213.4 281.6 215.75 278.25 216.4 L275.8 216.55 275.7 216.55 Q273.2 216.55 271.15 215.75 269.05 214.95 267.3 213.4 263.85 210.2 263.85 205.75 263.85 201.2 267.3 198.0 L267.7 197.6 267.15 198.25 267.4 198.0 267.8 197.6 268.25 197.25 268.65 196.95 Q270.05 196.0 271.7 195.45 L273.6 195.05 275.7 194.85 275.8 194.85 276.2 194.85 M282.5 194.0 L280.9 194.8 M275.8 194.85 Q279.8 194.85 282.65 196.95 285.6 199.1 285.6 202.15 285.6 205.1 282.65 207.2 279.8 209.25 275.7 209.35 L274.2 209.25 271.2 208.55 Q269.8 208.05 268.6 207.2 265.65 205.1 265.65 202.15 265.65 200.0 267.15 198.25 M280.5 215.65 L278.25 216.4 M265.45 188.65 L265.15 185.7 M271.2 208.55 Q269.8 208.0 268.65 207.2 265.7 205.1 265.7 202.15 265.7 199.6 267.8 197.6" fill="none" stroke="#000000" stroke-linecap="round" stroke-linejoin="round" stroke-width="0.25"/>
    <path d="M265.0 184.1 L265.45 182.55 M288.5 189.3 L288.1 190.85 M288.5 189.3 L288.55 189.2" fill="none" stroke="#000000" stroke-linecap="round" stroke-linejoin="round" stroke-width="0.25"/>
    <path d="M280.8 194.8 L281.45 193.2 M273.55 194.05 L273.95 192.45 M265.85 187.1 L265.45 188.65 M265.85 187.1 L265.95 186.95" fill="none" stroke="#000000" stroke-linecap="round" stroke-linejoin="round" stroke-width="0.05"/>
    <path d="M265.45 182.6 L272.5 178.65 280.0 179.4 288.0 184.75 288.5 188.6 288.95 189.0 Q294.9 194.5 294.9 202.4 294.9 210.3 288.95 215.85 283.15 221.35 274.8 221.35 266.5 221.35 260.6 215.85 254.75 210.3 254.75 202.4 254.75 194.5 260.6 189.0 262.65 187.0 265.15 185.8 L265.0 184.2 M268.25 197.35 L268.65 197.05 Q270.05 196.1 271.7 195.55 L273.6 195.15 275.7 194.95 Q279.8 194.95 282.65 197.05 285.6 199.2 285.6 202.25 285.6 205.2 282.65 207.3 279.8 209.35 275.7 209.45 271.55 209.35 268.65 207.3 265.7 205.2 265.7 202.25 265.7 199.7 267.8 197.7 L268.25 197.35" fill="none" stroke="#000000" stroke-linecap="round" stroke-linejoin="round" stroke-width="0.75"/>
    <path d="M265.0 184.2 L265.45 182.6" fill="none" stroke="#000000" stroke-linecap="round" stroke-linejoin="round" stroke-width="0.75"/>
  </g>
</svg>
