<?xml version="1.0" encoding="UTF-8" standalone="no"?>
<svg xmlns:xlink="http://www.w3.org/1999/xlink" height="47.0px" width="63.6px" xmlns="http://www.w3.org/2000/svg">
  <g transform="matrix(1.0, 0.0, 0.0, 1.0, 58.05, -4.75)">
    <path d="M-40.45 5.25 Q-42.4 5.3 -44.1 7.45 -46.35 8.25 -47.4 10.7 L-50.0 10.75 Q-52.1 12.2 -53.7 13.9 L-55.1 15.65 Q-56.95 18.3 -57.8 21.4 -58.5 24.3 -57.1 27.1 L-54.1 32.1 -53.0 33.55 -50.4 36.4 Q-48.35 38.35 -45.6 39.45 -43.0 40.5 -40.05 40.8 L-33.55 40.15 Q-30.55 39.6 -27.9 38.6 -24.75 37.35 -22.35 35.65 -19.8 33.75 -17.7 31.35 -15.5 28.95 -14.15 26.1 -12.75 23.25 -12.4 20.15 L-12.4 19.5 Q-12.0 18.15 -12.95 16.8 -15.35 13.35 -18.4 13.0 L-20.7 12.0 Q-24.15 9.05 -28.7 8.25 -30.4 6.45 -32.65 6.75 L-33.3 6.45 -34.1 6.1 -34.1 6.0 Q-37.7 3.95 -40.45 5.25" fill="#660000" fill-rule="evenodd" stroke="none"/>
    <path d="M-18.9 13.75 L-18.5 13.75 -18.9 13.65 -18.9 13.75" fill="#dddfc5" fill-rule="evenodd" stroke="none"/>
    <path d="M-39.4 17.5 L-39.5 17.5 -39.4 17.5" fill="#a69d7a" fill-rule="evenodd" stroke="none"/>
    <path d="M-43.4 13.7 L-43.35 13.65 -43.35 13.55 -43.4 13.7" fill="#60604e" fill-rule="evenodd" stroke="none"/>
    <path d="M-34.1 6.9 L-34.0 6.9 -34.05 6.8 -34.1 6.9" fill="#b6ae92" fill-rule="evenodd" stroke="none"/>
    <path d="M-37.35 18.2 L-37.25 18.15 -37.3 18.05 -37.35 18.2 M-23.05 16.55 L-22.2 16.45 -19.2 16.2 -18.35 16.05 -22.2 16.45 -23.05 16.45 -23.05 16.55" fill="#cccfa9" fill-rule="evenodd" stroke="none"/>
    <path d="M-36.35 9.35 L-37.45 10.5 -38.3 11.75 -40.35 12.1 Q-40.9 10.75 -40.95 9.15 L-40.85 8.3 -40.2 6.1 Q-42.05 6.2 -43.65 8.35 L-41.9 12.6 -43.1 13.7 -43.35 13.65 -43.4 13.7 Q-43.9 13.65 -44.25 13.95 L-45.9 14.3 Q-46.65 14.4 -47.25 14.8 -48.4 15.35 -49.35 16.2 L-49.65 16.55 Q-48.3 15.75 -46.9 15.45 L-44.3 15.2 -44.0 15.35 -43.55 15.4 Q-44.1 16.5 -44.95 17.3 L-45.65 18.3 Q-44.6 17.2 -43.15 16.2 L-42.95 16.0 -42.8 16.25 -42.5 16.95 -42.4 16.95 -42.35 17.15 -42.15 17.5 -43.3 19.65 Q-44.05 20.65 -44.0 21.95 -43.65 20.75 -42.55 19.8 L-41.3 18.45 -40.5 18.95 Q-40.8 20.05 -40.75 21.25 L-40.55 23.75 -39.85 18.95 -37.35 18.2 -37.3 18.05 Q-35.4 17.3 -35.55 15.75 -28.45 12.05 -19.6 13.55 L-18.9 13.75 -18.9 13.65 -21.15 12.55 Q-26.9 10.55 -35.6 13.45 -32.45 10.1 -28.95 9.1 -32.5 8.2 -36.3 12.35 L-37.3 12.0 Q-35.85 9.25 -32.7 7.55 -34.0 7.2 -36.35 9.35 M-42.6 14.45 L-40.95 13.25 -38.35 13.15 -37.05 14.6 -37.55 16.4 -38.6 17.45 -39.4 17.5 -39.5 17.5 -39.6 17.55 Q-41.25 17.15 -42.2 15.8 L-42.7 14.55 -42.6 14.45" fill="#c1e3c7" fill-rule="evenodd" stroke="none"/>
    <path d="M-39.5 17.5 L-39.15 14.2 -40.2 14.25 -40.15 16.8 Q-41.75 15.95 -42.6 14.45 L-42.7 14.55 -42.2 15.8 Q-41.25 17.15 -39.6 17.55 L-39.5 17.5 M-37.25 18.15 L-29.85 20.2 -34.05 17.75 -30.15 17.65 -26.65 17.1 -23.05 16.55 -23.05 16.45 -25.95 16.7 -29.5 16.85 -33.0 16.55 Q-32.75 16.1 -32.8 15.7 -26.6 13.25 -19.6 13.55 -28.45 12.05 -35.55 15.75 -35.4 17.3 -37.3 18.05 L-37.25 18.15" fill="#9ac994" fill-rule="evenodd" stroke="none"/>
    <path d="M-34.1 6.9 L-36.6 8.9 -38.2 9.95 Q-39.8 11.1 -40.85 8.3 L-40.95 9.15 Q-40.9 10.75 -40.35 12.1 L-38.3 11.75 -37.45 10.5 -36.35 9.35 -34.0 6.9 -34.1 6.9 M-53.35 24.45 Q-52.65 26.1 -51.25 26.1 -50.3 21.1 -48.15 18.45 L-45.5 15.85 Q-48.7 16.25 -50.6 18.75 -52.55 21.35 -53.35 24.45" fill="#83b88b" fill-rule="evenodd" stroke="none"/>
    <path d="M-40.85 8.3 Q-39.8 11.1 -38.2 9.95 L-36.6 8.9 -34.1 6.9 Q-37.5 4.85 -40.2 6.1 L-40.85 8.3 M-34.0 6.9 L-36.35 9.35 Q-34.0 7.2 -32.7 7.55 -35.85 9.25 -37.3 12.0 L-36.3 12.35 Q-32.5 8.2 -28.95 9.1 -30.4 7.3 -32.7 7.55 L-33.3 7.3 Q-33.65 7.05 -34.0 6.9 M-39.4 17.5 L-38.6 17.45 -37.55 16.4 -37.05 14.6 -38.35 13.15 -40.95 13.25 -42.6 14.45 Q-41.75 15.95 -40.15 16.8 L-40.2 14.25 -39.15 14.2 -39.5 17.5 -39.4 17.5 M-43.35 13.55 L-43.35 13.65 -43.1 13.7 -41.9 12.6 -43.65 8.35 Q-45.9 9.05 -46.8 11.35 L-43.35 13.55 M-42.5 16.95 L-42.8 16.25 -42.95 16.0 -43.15 16.2 Q-44.6 17.2 -45.65 18.3 L-44.95 17.3 Q-44.1 16.5 -43.55 15.4 L-44.0 15.35 -44.3 15.2 -46.9 15.45 Q-48.3 15.75 -49.65 16.55 L-49.35 16.2 Q-48.4 15.35 -47.25 14.8 -46.65 14.4 -45.9 14.3 L-44.25 13.95 Q-43.9 13.65 -43.4 13.7 -45.75 12.95 -48.1 14.2 -50.55 15.35 -53.3 18.5 -55.0 23.4 -53.55 24.35 L-53.35 24.45 Q-52.55 21.35 -50.6 18.75 -48.7 16.25 -45.5 15.85 L-48.15 18.45 Q-47.1 17.5 -45.35 16.85 -47.35 19.65 -47.55 22.55 -45.5 19.1 -42.5 16.95 M-42.4 16.95 Q-44.95 19.95 -45.5 25.15 L-45.0 26.85 -44.4 29.0 -44.25 27.5 Q-43.75 19.85 -40.85 19.0 -42.95 22.65 -42.55 27.35 L-42.05 29.4 -37.25 33.2 -37.4 30.1 Q-39.7 24.85 -39.65 19.6 -37.65 25.9 -33.35 30.65 -36.05 25.4 -38.0 19.75 -35.45 23.7 -31.5 26.4 -32.15 23.95 -35.25 19.55 L-26.55 25.55 -25.8 23.75 -32.7 19.4 -24.9 23.35 -29.9 19.75 Q-21.1 20.15 -13.65 17.25 -15.75 14.2 -18.5 13.65 L-18.9 13.65 -18.5 13.75 -18.9 13.75 -19.6 13.55 Q-26.6 13.25 -32.8 15.7 -32.75 16.1 -33.0 16.55 L-29.5 16.85 -25.95 16.7 -23.05 16.45 -22.2 16.45 -18.35 16.05 -19.2 16.2 -22.2 16.45 -23.05 16.55 -26.65 17.1 -30.15 17.65 -34.05 17.75 -29.85 20.2 -37.25 18.15 -37.35 18.2 -39.85 18.95 -40.55 23.75 -40.75 21.25 Q-40.8 20.05 -40.5 18.95 L-41.3 18.45 -42.55 19.8 Q-43.65 20.75 -44.0 21.95 -44.05 20.65 -43.3 19.65 L-42.15 17.5 -42.35 17.15 -42.4 16.95 M-21.15 12.55 Q-24.55 9.85 -28.95 9.1 -32.45 10.1 -35.6 13.45 -26.9 10.55 -21.15 12.55" fill="#709c67" fill-rule="evenodd" stroke="none"/>
    <path d="M-43.4 13.7 L-43.35 13.55 -46.8 11.35 -49.45 11.5 Q-52.45 13.5 -54.3 16.1 -55.45 18.95 -55.35 22.1 -55.15 24.85 -53.9 27.35 L-52.05 30.15 -51.4 30.2 Q-49.9 28.7 -49.55 26.7 L-49.15 25.3 -49.1 28.15 -49.0 28.8 -47.6 28.75 Q-46.7 26.35 -46.5 23.9 -46.35 24.45 -46.35 26.15 -46.25 29.05 -44.9 31.7 L-43.85 33.4 -43.6 29.55 Q-42.55 32.65 -39.7 34.05 -38.0 34.9 -36.1 35.15 L-35.45 35.2 -35.85 30.2 Q-34.0 32.35 -31.55 33.85 -31.1 33.05 -31.55 31.9 L-32.4 29.25 -28.45 31.6 Q-28.45 28.95 -28.75 26.2 -26.6 27.35 -24.2 27.75 L-20.5 26.7 -20.55 25.9 Q-21.9 24.75 -23.3 24.05 L-20.2 24.15 Q-20.9 22.65 -22.35 21.95 -23.15 21.45 -24.2 21.1 -20.1 22.1 -15.9 21.25 L-13.15 20.5 -13.1 19.95 Q-12.7 18.5 -13.65 17.25 -21.1 20.15 -29.9 19.75 L-24.9 23.35 -32.7 19.4 -25.8 23.75 -26.55 25.55 -35.25 19.55 Q-32.15 23.95 -31.5 26.4 -35.45 23.7 -38.0 19.75 -36.05 25.4 -33.35 30.65 -37.65 25.9 -39.65 19.6 -39.7 24.85 -37.4 30.1 L-37.25 33.2 -42.05 29.4 -42.55 27.35 Q-42.95 22.65 -40.85 19.0 -43.75 19.85 -44.25 27.5 L-44.4 29.0 -45.0 26.85 -45.5 25.15 Q-44.95 19.95 -42.4 16.95 L-42.5 16.95 Q-45.5 19.1 -47.55 22.55 -47.35 19.65 -45.35 16.85 -47.1 17.5 -48.15 18.45 -50.3 21.1 -51.25 26.1 -52.65 26.1 -53.35 24.45 L-53.55 24.35 Q-55.0 23.4 -53.3 18.5 -50.55 15.35 -48.1 14.2 -45.75 12.95 -43.4 13.7" fill="#486642" fill-rule="evenodd" stroke="none"/>
    <path d="M-13.15 20.5 L-15.9 21.25 Q-20.1 22.1 -24.2 21.1 -23.15 21.45 -22.35 21.95 -20.9 22.65 -20.2 24.15 L-23.3 24.05 Q-21.9 24.75 -20.55 25.9 L-20.5 26.7 -24.2 27.75 Q-26.6 27.35 -28.75 26.2 -28.45 28.95 -28.45 31.6 L-32.4 29.25 -31.55 31.9 Q-31.1 33.05 -31.55 33.85 -34.0 32.35 -35.85 30.2 L-35.45 35.2 -36.1 35.15 Q-38.0 34.9 -39.7 34.05 -42.55 32.65 -43.6 29.55 L-43.85 33.4 -44.9 31.7 Q-46.25 29.05 -46.35 26.15 -46.35 24.45 -46.5 23.9 -46.7 26.35 -47.6 28.75 L-49.0 28.8 -49.1 28.15 -49.15 25.3 -49.55 26.7 Q-49.9 28.7 -51.4 30.2 L-52.05 30.15 -53.9 27.35 Q-55.15 24.85 -55.35 22.1 -55.45 18.95 -54.3 16.1 -56.1 18.7 -56.9 21.65 -57.55 24.45 -56.15 27.2 L-53.3 32.0 Q-51.7 34.25 -49.75 36.2 -47.7 38.0 -45.2 39.0 -42.7 40.1 -39.75 40.3 L-33.5 39.75 Q-30.65 39.25 -28.1 38.2 -25.15 37.05 -22.7 35.35 -20.35 33.65 -18.25 31.25 -16.25 28.95 -14.9 26.25 -13.5 23.45 -13.15 20.5" fill="#28392d" fill-rule="evenodd" stroke="none"/>
    <path d="M-7.25 21.65 Q-6.2 21.35 -4.9 22.25 -3.55 22.3 -2.6 23.45 -2.55 23.15 -1.15 23.05 L1.4 24.15 2.45 24.85 Q3.9 26.0 4.9 27.55 5.75 29.0 5.45 30.75 L4.65 34.0 4.3 34.95 3.35 36.95 Q2.55 38.35 1.25 39.4 L-1.55 41.05 -5.2 41.8 -8.55 41.9 -12.05 41.2 -15.3 39.65 Q-16.9 38.7 -18.1 37.4 -19.35 36.05 -20.05 34.45 L-20.15 34.1 Q-20.6 33.4 -20.3 32.5 -19.6 30.25 -18.0 29.55 L-16.9 28.6 Q-15.5 26.45 -13.15 25.25 -12.55 24.0 -11.25 23.75 L-10.95 23.5 -10.6 23.15 -10.6 23.1 Q-9.0 21.4 -7.25 21.65" fill="#660000" fill-rule="evenodd" stroke="none"/>
    <path d="M-17.6 29.85 L-17.8 29.95 -17.6 29.8 -17.6 29.85" fill="#dddfc5" fill-rule="evenodd" stroke="none"/>
    <path d="M-5.8 28.5 L-5.75 28.5 -5.8 28.5" fill="#a69d7a" fill-rule="evenodd" stroke="none"/>
    <path d="M-4.3 25.7 L-4.25 25.75 -4.3 25.75 -4.3 25.7" fill="#60604e" fill-rule="evenodd" stroke="none"/>
    <path d="M-10.45 23.6 L-10.5 23.6 -10.5 23.55 -10.45 23.6" fill="#b6ae92" fill-rule="evenodd" stroke="none"/>
    <path d="M-6.8 29.2 L-6.85 29.2 -6.85 29.15 -6.8 29.2 M-14.85 30.7 L-15.35 30.8 -17.0 31.15 -17.5 31.2 -15.35 30.8 -14.85 30.65 -14.85 30.7" fill="#cccfa9" fill-rule="evenodd" stroke="none"/>
    <path d="M-8.8 24.55 Q-8.45 24.7 -8.05 25.0 L-7.35 25.55 -6.15 25.4 Q-6.1 24.55 -6.35 23.7 L-6.55 23.25 -7.25 22.15 Q-6.25 21.9 -5.0 22.8 L-5.25 25.4 -4.4 25.8 -4.3 25.75 -4.25 25.75 -3.75 25.75 -2.8 25.65 -1.95 25.7 Q-1.25 25.8 -0.6 26.15 L-0.4 26.25 -2.05 26.1 -3.5 26.4 -3.65 26.55 -3.9 26.65 -2.8 27.45 -2.25 27.9 Q-3.0 27.45 -3.95 27.15 L-4.1 27.1 -4.15 27.25 -4.2 27.7 -4.25 27.7 -4.25 27.8 -4.3 28.05 -3.3 29.0 Q-2.75 29.45 -2.55 30.15 -2.95 29.55 -3.7 29.2 L-4.6 28.7 -4.95 29.1 -4.45 30.3 -4.15 31.7 Q-4.65 30.4 -5.3 29.2 L-6.8 29.2 -6.85 29.15 Q-8.0 29.05 -8.2 28.2 -12.65 27.35 -17.25 29.65 L-17.6 29.85 -17.6 29.8 -16.55 28.85 Q-13.75 26.8 -8.55 26.9 -10.8 25.6 -12.9 25.65 -11.1 24.6 -8.35 26.2 L-7.85 25.85 Q-9.1 24.6 -11.1 24.2 -10.45 23.8 -8.8 24.55 M-4.55 26.3 L-5.65 25.9 -7.1 26.3 -7.55 27.3 -7.0 28.2 -6.25 28.6 -5.8 28.5 -5.75 28.5 -5.7 28.5 Q-4.85 28.0 -4.55 27.1 L-4.5 26.35 -4.55 26.3" fill="#c1e3c7" fill-rule="evenodd" stroke="none"/>
    <path d="M-5.75 28.5 L-6.5 26.75 -5.9 26.6 -5.5 28.0 Q-4.75 27.25 -4.55 26.3 L-4.5 26.35 -4.55 27.1 Q-4.85 28.0 -5.7 28.5 L-5.75 28.5 M-6.85 29.2 L-10.55 31.55 -8.65 29.5 -10.8 30.1 -12.8 30.4 -14.85 30.7 -14.85 30.65 -13.25 30.3 -11.3 29.8 Q-10.3 29.6 -9.45 29.05 L-9.7 28.6 Q-13.5 28.3 -17.25 29.65 -12.65 27.35 -8.2 28.2 -8.0 29.05 -6.85 29.15 L-6.85 29.2" fill="#9ac994" fill-rule="evenodd" stroke="none"/>
    <path d="M-10.45 23.6 L-8.75 24.25 -7.7 24.6 Q-6.65 24.95 -6.55 23.25 L-6.35 23.7 Q-6.1 24.55 -6.15 25.4 L-7.35 25.55 -8.05 25.0 Q-8.45 24.7 -8.8 24.55 L-10.5 23.6 -10.45 23.6 M2.95 29.95 Q2.85 30.95 2.1 31.2 0.75 28.65 -0.85 27.55 L-2.75 26.6 Q-0.95 26.25 0.5 27.3 2.0 28.4 2.95 29.95" fill="#83b88b" fill-rule="evenodd" stroke="none"/>
    <path d="M-6.55 23.25 Q-6.65 24.95 -7.7 24.6 L-8.75 24.25 -10.45 23.6 Q-8.95 21.9 -7.25 22.15 L-6.55 23.25 M-10.5 23.6 L-8.8 24.55 Q-10.45 23.8 -11.1 24.2 -9.1 24.6 -7.85 25.85 L-8.35 26.2 Q-11.1 24.6 -12.9 25.65 -12.4 24.45 -11.1 24.2 L-10.8 23.95 -10.5 23.6 M-5.8 28.5 L-6.25 28.6 -7.0 28.2 -7.55 27.3 -7.1 26.3 -5.65 25.9 -4.55 26.3 Q-4.75 27.25 -5.5 28.0 L-5.9 26.6 -6.5 26.75 -5.75 28.5 -5.8 28.5 M-4.3 25.7 L-4.3 25.75 -4.4 25.8 -5.25 25.4 -5.0 22.8 Q-3.65 22.8 -2.8 23.9 L-4.3 25.7 M-4.25 25.75 Q-3.1 24.95 -1.6 25.25 -0.1 25.45 1.95 26.7 3.7 29.1 3.05 29.85 L2.95 29.95 Q2.0 28.4 0.5 27.3 -0.95 26.25 -2.75 26.6 L-0.85 27.55 -2.65 27.15 Q-1.1 28.35 -0.5 29.9 -2.2 28.35 -4.2 27.7 L-4.15 27.25 -4.1 27.1 -3.95 27.15 Q-3.0 27.45 -2.25 27.9 L-2.8 27.45 -3.9 26.65 -3.65 26.55 -3.5 26.4 -2.05 26.1 -0.4 26.25 -0.6 26.15 Q-1.25 25.8 -1.95 25.7 L-2.8 25.65 -3.75 25.75 -4.25 25.75 M-4.25 27.7 Q-2.35 28.9 -1.2 31.65 L-1.2 32.65 -1.15 33.9 -1.5 33.15 Q-3.05 29.05 -4.75 29.05 -3.0 30.7 -2.45 33.35 L-2.35 34.55 -4.35 37.4 -4.8 35.7 Q-4.4 32.45 -5.3 29.6 -5.35 33.35 -6.9 36.65 -6.3 33.35 -6.2 29.95 -6.9 32.5 -8.6 34.65 -8.65 33.2 -7.7 30.3 L-11.45 35.0 -12.15 34.15 -9.1 30.65 -12.7 34.1 -10.6 31.3 Q-15.3 33.0 -19.85 32.65 -19.2 30.65 -17.8 29.9 L-17.6 29.8 -17.8 29.95 -17.6 29.85 -17.25 29.65 Q-13.5 28.3 -9.7 28.6 L-9.45 29.05 Q-10.3 29.6 -11.3 29.8 L-13.25 30.3 -14.85 30.65 -15.35 30.8 -17.5 31.2 -17.0 31.15 -15.35 30.8 -14.85 30.7 -12.8 30.4 -10.8 30.1 -8.65 29.5 -10.55 31.55 -6.85 29.2 -6.8 29.2 -5.3 29.2 Q-4.65 30.4 -4.15 31.7 L-4.45 30.3 -4.95 29.1 -4.6 28.7 -3.7 29.2 Q-2.95 29.55 -2.55 30.15 -2.75 29.45 -3.3 29.0 L-4.3 28.05 -4.25 27.8 -4.25 27.7 M-16.55 28.85 Q-15.15 26.8 -12.9 25.65 -10.8 25.6 -8.55 26.9 -13.75 26.8 -16.55 28.85" fill="#709c67" fill-rule="evenodd" stroke="none"/>
    <path d="M-4.25 25.75 L-4.3 25.7 -2.8 23.9 -1.35 23.55 Q0.65 24.15 2.1 25.25 3.2 26.6 3.65 28.35 4.0 29.85 3.75 31.45 L3.2 33.25 2.85 33.4 Q1.8 32.85 1.25 31.8 L0.8 31.1 1.25 32.65 1.3 33.05 0.55 33.25 Q-0.35 32.1 -0.85 30.8 L-0.55 32.05 Q-0.15 33.65 -0.45 35.3 L-0.7 36.4 -1.5 34.35 Q-1.55 36.2 -2.9 37.45 L-4.65 38.65 -5.0 38.8 -5.6 36.0 Q-6.25 37.5 -7.35 38.7 -7.7 38.35 -7.65 37.65 L-7.65 36.05 -9.4 38.0 -10.15 35.0 Q-11.1 36.0 -12.35 36.6 L-14.55 36.65 -14.65 36.2 -13.45 34.75 -15.15 35.3 Q-15.0 34.4 -14.35 33.75 L-13.45 33.0 Q-15.55 34.2 -17.95 34.45 L-19.6 34.5 -19.7 34.2 Q-20.15 33.5 -19.85 32.65 -15.3 33.0 -10.6 31.3 L-12.7 34.1 -9.1 30.65 -12.15 34.15 -11.45 35.0 -7.7 30.3 Q-8.65 33.2 -8.6 34.65 -6.9 32.5 -6.2 29.95 -6.3 33.35 -6.9 36.65 -5.35 33.35 -5.3 29.6 -4.4 32.45 -4.8 35.7 L-4.35 37.4 -2.35 34.55 -2.45 33.35 Q-3.0 30.7 -4.75 29.05 -3.05 29.05 -1.5 33.15 L-1.15 33.9 -1.2 32.65 -1.2 31.65 Q-2.35 28.9 -4.25 27.7 L-4.2 27.7 Q-2.2 28.35 -0.5 29.9 -1.1 28.35 -2.65 27.15 L-0.85 27.55 Q0.75 28.65 2.1 31.2 2.85 30.95 2.95 29.95 L3.05 29.85 Q3.7 29.1 1.95 26.7 -0.1 25.45 -1.6 25.25 -3.1 24.95 -4.25 25.75" fill="#486642" fill-rule="evenodd" stroke="none"/>
    <path d="M-19.6 34.5 L-17.95 34.45 Q-15.55 34.2 -13.45 33.0 L-14.35 33.75 Q-15.0 34.4 -15.15 35.3 L-13.45 34.75 -14.65 36.2 -14.55 36.65 -12.35 36.6 Q-11.1 36.0 -10.15 35.0 L-9.4 38.0 -7.65 36.05 -7.65 37.65 Q-7.7 38.35 -7.35 38.7 -6.25 37.5 -5.6 36.0 L-5.0 38.8 -4.65 38.65 -2.9 37.45 Q-1.55 36.2 -1.5 34.35 L-0.7 36.4 -0.45 35.3 Q-0.15 33.65 -0.55 32.05 L-0.85 30.8 Q-0.35 32.1 0.55 33.25 L1.3 33.05 1.25 32.65 0.8 31.1 1.25 31.8 Q1.8 32.85 2.85 33.4 L3.2 33.25 3.75 31.45 Q4.0 29.85 3.65 28.35 3.2 26.6 2.1 25.25 3.5 26.35 4.45 27.85 5.25 29.25 4.95 30.95 L4.2 34.05 2.95 36.95 0.95 39.25 Q-0.25 40.25 -1.8 40.85 L-5.3 41.6 -8.5 41.65 -11.9 41.0 Q-13.5 40.45 -15.0 39.5 L-17.7 37.35 Q-18.9 36.05 -19.6 34.5" fill="#28392d" fill-rule="evenodd" stroke="none"/>
    <path d="M-20.0 39.2 Q-19.35 39.25 -18.75 40.0 -18.0 40.35 -17.65 41.2 L-16.75 41.25 -15.45 42.45 -14.95 43.1 Q-14.35 44.05 -14.1 45.15 -13.9 46.2 -14.45 47.2 L-15.6 48.9 -16.0 49.4 -17.0 50.4 Q-17.7 51.0 -18.75 51.35 L-20.7 51.75 -23.0 51.45 -25.0 50.8 Q-26.1 50.3 -26.9 49.7 L-28.5 48.05 -29.65 46.15 -30.2 44.0 -30.2 43.8 -29.95 42.8 Q-29.05 41.65 -28.0 41.6 L-27.15 41.25 Q-25.85 40.25 -24.25 40.05 -23.65 39.5 -22.8 39.6 L-22.6 39.5 -22.3 39.4 -22.3 39.35 -20.0 39.2" fill="#660000" fill-rule="evenodd" stroke="none"/>
    <path d="M-27.8 41.8 L-27.9 41.9 -27.8 41.8" fill="#dddfc5" fill-rule="evenodd" stroke="none"/>
    <path d="M-19.1 42.2 L-19.15 42.2 -19.1 42.2" fill="#60604e" fill-rule="evenodd" stroke="none"/>
    <path d="M-22.3 39.65 L-22.35 39.65 -22.35 39.6 -22.3 39.65" fill="#b6ae92" fill-rule="evenodd" stroke="none"/>
    <path d="M-21.3 43.7 L-21.35 43.7 -21.35 43.65 -21.3 43.7 M-26.4 42.9 L-26.7 42.85 -27.7 42.75 -28.05 42.65 -26.7 42.85 -26.35 42.9 -26.4 42.9" fill="#cccfa9" fill-rule="evenodd" stroke="none"/>
    <path d="M-21.55 40.55 L-21.2 40.95 -20.9 41.45 -20.1 41.6 -19.9 40.55 -19.9 40.3 -20.1 39.5 Q-19.5 39.55 -18.95 40.35 L-19.6 41.8 -19.2 42.25 -19.15 42.2 -19.1 42.2 -18.8 42.3 -18.2 42.45 Q-17.95 42.5 -17.75 42.7 L-17.05 43.2 -16.95 43.3 -17.85 42.85 -18.8 42.75 -18.9 42.85 -19.1 42.85 -18.6 43.5 -18.4 43.85 -19.25 43.1 -19.3 43.05 -19.35 43.15 -19.5 43.35 -19.5 43.4 -19.6 43.55 -19.2 44.3 -19.0 45.15 -19.5 44.35 -19.9 43.9 -20.2 44.05 -20.2 44.85 -20.3 45.75 -20.4 44.05 -21.3 43.7 -21.35 43.65 Q-22.0 43.35 -21.95 42.85 -24.4 41.4 -27.55 41.8 L-27.8 41.8 -27.0 41.5 Q-24.9 40.9 -21.9 42.0 -22.9 40.75 -24.15 40.35 -22.9 40.15 -21.6 41.6 L-21.2 41.5 Q-21.7 40.55 -22.8 39.9 -22.35 39.75 -21.55 40.55 M-19.4 42.5 L-20.0 42.0 -20.9 41.95 -21.35 42.4 -21.2 43.1 -20.9 43.5 -20.55 43.5 -20.5 43.5 Q-19.9 43.45 -19.6 42.95 L-19.35 42.5 -19.4 42.5" fill="#c1e3c7" fill-rule="evenodd" stroke="none"/>
    <path d="M-20.55 43.5 L-20.65 42.35 -20.25 42.35 -20.3 43.3 -19.4 42.5 -19.35 42.5 -19.6 42.95 Q-19.9 43.45 -20.5 43.5 L-20.55 43.5 M-21.35 43.7 L-24.0 44.3 -22.5 43.5 -23.85 43.4 -25.1 43.15 -26.4 42.9 -26.35 42.9 -25.35 43.05 -24.1 43.15 -22.85 43.05 -22.9 42.75 Q-25.1 41.8 -27.55 41.8 -24.4 41.4 -21.95 42.85 -22.0 43.35 -21.35 43.65 L-21.35 43.7" fill="#9ac994" fill-rule="evenodd" stroke="none"/>
    <path d="M-22.3 39.65 L-21.45 40.4 -20.9 40.85 Q-20.35 41.25 -19.9 40.3 L-19.9 40.55 -20.1 41.6 -20.9 41.45 -21.2 40.95 -21.55 40.55 -22.35 39.65 -22.3 39.65 M-15.75 46.2 Q-16.05 46.75 -16.55 46.75 -16.75 44.95 -17.45 43.95 L-18.4 43.0 Q-17.25 43.2 -16.6 44.1 -16.0 45.05 -15.75 46.2" fill="#83b88b" fill-rule="evenodd" stroke="none"/>
    <path d="M-19.9 40.3 Q-20.35 41.25 -20.9 40.85 L-21.45 40.4 -22.3 39.65 -20.1 39.5 -19.9 40.3 M-22.35 39.65 L-21.55 40.55 Q-22.35 39.75 -22.8 39.9 -21.7 40.55 -21.2 41.5 L-21.6 41.6 Q-22.9 40.15 -24.15 40.35 -23.6 39.75 -22.8 39.9 L-22.55 39.8 -22.35 39.65 M-20.55 43.5 L-20.9 43.5 -21.2 43.1 -21.35 42.4 -20.9 41.95 -20.0 42.0 -19.4 42.5 -20.3 43.3 -20.25 42.35 -20.65 42.35 -20.55 43.5 M-19.15 42.2 L-19.2 42.25 -19.6 41.8 -18.95 40.35 Q-18.15 40.65 -17.85 41.4 L-19.15 42.2 M-19.5 43.35 L-19.35 43.15 -19.3 43.05 -19.25 43.1 -18.4 43.85 -18.6 43.5 -19.1 42.85 -18.9 42.85 -18.8 42.75 -17.85 42.85 -16.95 43.3 -17.05 43.2 -17.75 42.7 Q-17.95 42.5 -18.2 42.45 L-18.8 42.3 -19.1 42.2 Q-18.3 42.0 -17.45 42.45 -16.6 42.9 -15.65 44.05 -15.15 45.85 -15.65 46.15 L-15.75 46.2 Q-16.0 45.05 -16.6 44.1 -17.25 43.2 -18.4 43.0 L-17.45 43.95 Q-17.85 43.6 -18.45 43.4 -17.8 44.4 -17.75 45.45 -18.45 44.2 -19.5 43.35 -18.65 44.45 -18.55 46.3 L-18.75 46.9 -19.0 47.65 -19.05 47.15 Q-19.1 44.4 -20.1 44.05 -19.4 45.35 -19.65 47.05 L-19.85 47.8 -21.55 49.05 -21.5 47.95 Q-20.6 46.15 -20.5 44.25 -21.35 46.45 -22.9 48.05 L-21.1 44.3 Q-22.05 45.6 -23.5 46.55 -23.25 45.7 -22.1 44.2 L-25.25 46.15 -25.5 45.5 -22.95 44.1 -25.8 45.35 -24.0 44.15 Q-27.1 44.15 -29.7 43.0 -28.9 42.0 -27.9 41.85 L-27.8 41.8 -27.55 41.8 Q-25.1 41.8 -22.9 42.75 L-22.85 43.05 -24.1 43.15 -25.35 43.05 -26.35 42.9 -26.7 42.85 -28.05 42.65 -27.7 42.75 -26.7 42.85 -26.4 42.9 -25.1 43.15 -23.85 43.4 -22.5 43.5 -24.0 44.3 -21.35 43.7 -21.3 43.7 -20.4 44.05 -20.3 45.75 -20.2 44.85 -20.2 44.05 -19.9 43.9 -19.5 44.35 -19.0 45.15 -19.2 44.3 -19.6 43.55 -19.5 43.4 -19.5 43.35 M-27.8 41.8 L-27.9 41.9 -27.8 41.8 M-27.0 41.5 Q-25.7 40.6 -24.15 40.35 -22.9 40.75 -21.9 42.0 -24.9 40.9 -27.0 41.5" fill="#709c67" fill-rule="evenodd" stroke="none"/>
    <path d="M-19.1 42.2 L-19.15 42.2 -17.85 41.4 -16.95 41.5 Q-15.9 42.3 -15.3 43.25 -14.9 44.25 -15.0 45.4 -15.1 46.35 -15.6 47.25 L-16.3 48.15 -16.55 48.2 Q-17.05 47.65 -17.15 46.9 L-17.25 46.4 -17.35 47.4 -17.35 47.65 -17.85 47.6 -18.15 45.85 -18.25 46.7 Q-18.35 47.7 -18.9 48.6 L-19.2 49.2 -19.3 47.85 Q-19.65 48.9 -20.75 49.4 L-22.05 49.7 -22.25 49.7 -22.05 48.0 -23.65 49.15 -23.6 48.5 -23.25 47.55 -24.7 48.35 -24.45 46.45 -26.1 46.9 -27.4 46.45 -27.35 46.2 Q-26.9 45.8 -26.35 45.6 L-27.5 45.55 -26.7 44.8 Q-26.45 44.6 -26.0 44.55 L-28.95 44.45 -29.9 44.15 -29.95 43.95 Q-30.05 43.45 -29.7 43.0 -27.1 44.15 -24.0 44.15 L-25.8 45.35 -22.95 44.1 -25.5 45.5 -25.25 46.15 -22.1 44.2 Q-23.25 45.7 -23.5 46.55 -22.05 45.6 -21.1 44.3 L-22.9 48.05 Q-21.35 46.45 -20.5 44.25 -20.6 46.15 -21.5 47.95 L-21.55 49.05 -19.85 47.8 -19.65 47.05 Q-19.4 45.35 -20.1 44.05 -19.1 44.4 -19.05 47.15 L-19.0 47.65 -18.75 46.9 -18.55 46.3 Q-18.65 44.45 -19.5 43.35 -18.45 44.2 -17.75 45.45 -17.8 44.4 -18.45 43.4 -17.85 43.6 -17.45 43.95 -16.75 44.95 -16.55 46.75 -16.05 46.75 -15.75 46.2 L-15.65 46.15 Q-15.15 45.85 -15.65 44.05 -16.6 42.9 -17.45 42.45 -18.3 42.0 -19.1 42.2" fill="#486642" fill-rule="evenodd" stroke="none"/>
    <path d="M-29.9 44.15 L-28.95 44.45 -26.0 44.55 Q-26.45 44.6 -26.7 44.8 L-27.5 45.55 -26.35 45.6 Q-26.9 45.8 -27.35 46.2 L-27.4 46.45 -26.1 46.9 -24.45 46.45 -24.7 48.35 -23.25 47.55 -23.6 48.5 -23.65 49.15 -22.05 48.0 -22.25 49.7 -22.05 49.7 -20.75 49.4 Q-19.65 48.9 -19.3 47.85 L-19.2 49.2 -18.9 48.6 Q-18.35 47.7 -18.25 46.7 L-18.15 45.85 -17.85 47.6 -17.35 47.65 -17.35 47.4 -17.25 46.4 -17.15 46.9 Q-17.05 47.65 -16.55 48.2 L-16.3 48.15 -15.6 47.25 Q-15.1 46.35 -15.0 45.4 -14.9 44.25 -15.3 43.25 -14.65 44.15 -14.45 45.25 -14.3 46.25 -14.8 47.2 L-15.9 48.85 -17.25 50.3 -18.85 51.25 -20.8 51.6 -23.0 51.3 -24.9 50.65 Q-25.95 50.2 -26.8 49.55 L-28.25 48.05 -29.4 46.2 Q-29.85 45.2 -29.9 44.15" fill="#28392d" fill-rule="evenodd" stroke="none"/>
  </g>
</svg>
