<?xml version="1.0" encoding="UTF-8" standalone="no"?>
<svg xmlns:xlink="http://www.w3.org/1999/xlink" height="62.75px" width="10.1px" xmlns="http://www.w3.org/2000/svg">
  <g transform="matrix(1.0, 0.0, 0.0, 1.0, 5.05, 31.35)">
    <path d="M-4.9 -7.55 L-5.05 -7.5 -5.05 -7.55 -4.9 -7.55" fill="#face3a" fill-rule="evenodd" stroke="none"/>
    <path d="M1.15 -30.2 L3.1 -28.25 4.85 -21.45 2.5 -16.2 1.25 -16.85 0.0 -17.5 1.25 -16.85 4.2 -11.85 3.4 -11.15 4.75 -9.5 1.9 -2.0 4.0 -3.65 3.85 3.55 5.05 4.15 0.15 5.85 3.35 5.9 3.4 15.1 1.8 15.85 3.4 16.6 3.1 19.85 4.1 21.1 3.1 21.85 5.05 22.4 1.75 22.55 5.05 22.4 1.95 25.35 2.9 26.5 1.95 27.7 0.0 27.7 -4.0 25.05 1.75 22.55 -1.6 22.7 -3.3 21.8 -3.3 19.45 1.15 19.45 0.0 19.15 -3.2 16.8 -3.2 15.85 1.8 15.85 -1.45 14.35 -3.75 11.7 -3.75 9.15 -1.7 6.5 -3.2 5.25 -3.2 3.05 -0.2 1.55 -1.1 1.1 -3.6 -3.25 0.75 -8.95 -2.85 -7.55 -2.85 -17.5 0.0 -17.5 -3.5 -21.65 -4.1 -27.2 0.0 -31.35 1.15 -30.2 M3.4 -11.15 L0.75 -8.95 3.4 -11.15 M1.15 19.45 L3.1 19.85 1.15 19.45 M0.15 5.85 L-1.7 6.5 0.15 5.85 M3.85 3.55 L-0.2 1.55 3.85 3.55" fill="#412f18" fill-rule="evenodd" stroke="none"/>
    <path d="M3.1 -28.25 L5.05 -26.3 5.05 -14.85 5.05 -12.6 5.05 -5.85 4.25 -4.7 4.25 -4.6 5.05 -3.85 5.05 4.15 5.05 11.5 Q4.9 12.25 4.9 13.15 L4.95 13.3 4.5 14.8 5.05 15.15 5.05 17.4 5.05 20.3 5.05 22.4 5.05 27.7 2.55 31.4 -2.15 31.4 -5.05 27.7 -5.05 22.85 -5.05 18.0 -5.05 15.45 -4.45 14.3 -4.45 14.15 -4.7 12.85 -5.05 10.95 -5.05 7.6 -5.05 -0.9 -5.05 -1.75 -3.8 -3.4 -4.15 -4.75 -4.9 -7.55 -5.05 -7.55 -5.05 -10.35 -5.05 -20.1 -5.05 -26.3 -4.1 -27.2 -3.5 -21.65 0.0 -17.5 -2.85 -17.5 -2.85 -7.55 0.75 -8.95 -3.6 -3.25 -1.1 1.1 -5.05 -0.9 -1.1 1.1 -0.2 1.55 -3.2 3.05 -3.2 5.25 -1.7 6.5 -5.05 7.6 -1.7 6.5 -3.75 9.15 -3.75 11.7 -1.45 14.35 1.8 15.85 3.4 15.1 3.35 5.9 0.15 5.85 5.05 4.15 3.85 3.55 4.0 -3.65 1.9 -2.0 4.75 -9.5 3.4 -11.15 4.2 -11.85 1.25 -16.85 2.5 -16.2 5.05 -14.85 2.5 -16.2 4.85 -21.45 3.1 -28.25 M3.4 16.6 L1.8 15.85 -3.2 15.85 -3.2 16.8 0.0 19.15 1.15 19.45 -3.3 19.45 -3.3 21.8 -1.6 22.7 1.75 22.55 -4.0 25.05 0.0 27.7 1.95 27.7 2.9 26.5 1.95 25.35 5.05 22.4 3.1 21.85 4.1 21.1 3.1 19.85 3.4 16.6 5.05 17.4 3.4 16.6 M4.2 -11.85 L5.05 -12.6 4.2 -11.85 M-5.05 18.0 L0.0 19.15 -5.05 18.0 M3.1 19.85 L5.05 20.3 3.1 19.85 M-5.05 27.7 L0.0 27.7 -5.05 27.7 M0.0 -17.5 L-5.05 -20.1 0.0 -17.5 M5.05 27.7 L1.95 27.7 5.05 27.7 M-1.6 22.7 L-5.05 22.85 -1.6 22.7 M-4.7 12.85 L-1.45 14.35 -4.7 12.85 M-4.15 -4.75 L0.75 -8.95 -4.15 -4.75" fill="#b98046" fill-rule="evenodd" stroke="none"/>
    <path d="M-5.05 -10.35 L-5.05 -20.1 -5.05 -26.3 -4.1 -27.2 0.0 -31.35 1.15 -30.2" fill="none" stroke="#4f0000" stroke-linecap="round" stroke-linejoin="round" stroke-opacity="0.2509804" stroke-width="0.05"/>
    <path d="M1.15 -30.2 L3.1 -28.25 5.05 -26.3 5.05 -14.85 5.05 -12.6 5.05 -5.85 4.25 -4.7 4.25 -4.6 5.05 -3.85 5.05 4.15 5.05 11.5 Q4.9 12.25 4.9 13.15 L4.95 13.3 4.5 14.8 5.05 15.15 5.05 17.4 5.05 20.3 5.05 22.4 5.05 27.7 2.55 31.4 -2.15 31.4 -5.05 27.7 -5.05 22.85 -5.05 18.0 -5.05 15.45 -4.45 14.3 -4.45 14.15 -4.7 12.85 -5.05 10.95 -5.05 7.6 -5.05 -0.9 -5.05 -1.75 -3.8 -3.4 -4.15 -4.75 -4.9 -7.55 -5.05 -7.5 -5.05 -7.55 -5.05 -10.35 M2.5 -16.2 L5.05 -14.85 M1.25 -16.85 L2.5 -16.2 M1.25 -16.85 L0.0 -17.5 -5.05 -20.1 M0.75 -8.95 L3.4 -11.15 4.2 -11.85 5.05 -12.6 M3.85 3.55 L5.05 4.15 0.15 5.85 -1.7 6.5 -5.05 7.6 M1.8 15.85 L3.4 16.6 5.05 17.4 M1.15 19.45 L0.0 19.15 -5.05 18.0 M3.1 19.85 L1.15 19.45 M-1.6 22.7 L1.75 22.55 5.05 22.4 M5.05 20.3 L3.1 19.85 M1.95 27.7 L0.0 27.7 -5.05 27.7 M1.95 27.7 L5.05 27.7 M-1.1 1.1 L-0.2 1.55 3.85 3.55 M1.8 15.85 L-1.45 14.35 -4.7 12.85 M-5.05 22.85 L-1.6 22.7 M0.75 -8.95 L-4.15 -4.75 M-5.05 -0.9 L-1.1 1.1" fill="none" stroke="#4f0000" stroke-linecap="round" stroke-linejoin="round" stroke-opacity="0.2509804" stroke-width="0.05"/>
  </g>
</svg>
