<?xml version="1.0" encoding="UTF-8" standalone="no"?>
<svg xmlns:xlink="http://www.w3.org/1999/xlink" height="103.7px" width="79.95px" xmlns="http://www.w3.org/2000/svg">
  <g transform="matrix(1.0, 0.0, 0.0, 1.0, -376.0, -163.6)">
    <path d="M379.55 200.0 L376.0 191.25 378.5 184.2 383.55 180.4 389.9 180.4 429.75 163.6 433.15 165.95 433.8 170.25 432.0 168.8 431.55 168.5 431.15 166.65 392.85 184.1 Q388.5 183.05 385.9 184.1 383.05 186.3 381.95 188.9 381.2 192.05 381.95 195.25 382.95 197.95 385.2 200.7 L385.65 201.3 386.05 201.75 Q391.1 205.1 397.8 205.2 401.0 204.6 401.95 202.35 401.95 198.7 398.9 195.4 L401.5 195.4 436.15 180.95 439.0 184.45 423.25 191.0 404.75 198.7 Q405.65 200.0 406.0 201.3 L406.2 202.8 406.1 203.85 Q405.1 206.65 401.45 208.45 L398.5 209.0 Q394.4 209.55 390.65 208.35 388.15 207.35 379.85 200.25 388.15 207.35 390.65 208.35 394.4 209.55 398.5 209.0 L399.3 218.0 394.85 218.15 Q391.25 218.15 388.05 216.5 L387.0 215.75 384.4 213.95 380.75 211.4 380.75 208.8 379.65 200.2 379.55 200.0 379.7 200.15 379.85 200.25 379.7 200.15 379.55 200.0 M395.6 260.1 Q392.5 254.9 393.05 250.3 L393.35 250.35 399.0 251.05 399.7 251.05 400.55 250.95 402.3 250.55 Q402.35 255.75 399.6 261.0 L396.75 260.45 395.6 260.1 M388.65 233.45 L385.6 228.65 Q383.1 222.25 385.25 217.65 L386.85 218.85 Q391.0 221.6 396.3 221.45 L399.35 221.0 Q401.35 225.9 399.25 231.1 398.4 233.2 398.45 235.5 394.7 235.85 390.3 234.15 L388.65 233.45 M379.7 200.15 L379.65 200.2 379.7 200.15" fill="#976831" fill-rule="evenodd" stroke="none"/>
    <path d="M398.5 209.0 L401.45 208.45 Q405.1 206.65 406.1 203.85 L406.35 203.8 407.4 211.65 Q406.95 213.45 405.85 214.65 L404.4 215.8 Q402.3 217.45 399.3 218.0 L398.5 209.0 M439.0 184.45 L436.15 180.95 443.2 178.0 443.45 177.9 452.5 174.15 455.95 177.45 454.9 201.5 452.85 201.4 Q443.2 200.3 439.05 184.45 L439.0 184.45 M385.2 200.7 Q382.95 197.95 381.95 195.25 381.2 192.05 381.95 188.9 383.05 186.3 385.9 184.1 388.5 183.05 392.85 184.1 L431.15 166.65 431.55 168.5 394.05 186.1 386.9 185.85 Q384.2 188.0 383.3 190.45 382.75 193.5 383.7 196.55 L385.4 200.65 385.2 200.7 M453.65 229.4 L452.75 247.95 443.35 250.85 443.25 249.15 Q442.9 238.05 451.75 230.85 L453.65 229.4 M454.85 177.9 L439.05 184.45 454.85 177.9 455.95 177.45 454.85 177.9 M406.75 217.3 Q407.9 219.3 408.65 222.05 L409.7 227.55 408.15 229.75 Q405.45 233.15 402.05 234.6 400.35 235.3 398.45 235.5 398.4 233.2 399.25 231.1 401.35 225.9 399.35 221.0 L401.3 220.5 Q404.45 219.4 406.75 217.3 M411.3 246.1 L412.35 245.7 414.8 255.35 Q412.35 257.3 409.75 258.65 406.55 260.3 403.15 261.05 L399.6 261.0 Q402.35 255.75 402.3 250.55 406.15 249.5 409.75 247.15 L411.3 246.1" fill="#61431f" fill-rule="evenodd" stroke="none"/>
    <path d="M436.15 180.95 L401.5 195.4 398.9 195.4 Q401.95 198.7 401.95 202.35 401.0 204.6 397.8 205.2 391.1 205.1 386.05 201.75 L385.65 201.3 385.4 200.65 383.7 196.55 Q382.75 193.5 383.3 190.45 384.2 188.0 386.9 185.85 L394.05 186.1 431.55 168.5 432.0 168.8 433.8 170.25 443.45 177.9 443.2 178.0 436.15 180.95 M432.05 174.2 L390.15 194.55 432.05 174.2" fill="#e1fccb" fill-rule="evenodd" stroke="none"/>
    <path d="M423.25 191.0 L439.0 184.45 439.05 184.45 Q443.2 200.3 452.85 201.4 L454.9 201.5 453.65 229.4 451.75 230.85 Q442.9 238.05 443.25 249.15 L443.35 250.85 424.4 256.75 423.35 253.35 416.35 238.6 412.85 220.55 412.85 205.7 423.25 191.0 M414.8 261.5 L410.65 267.3 400.2 267.3 395.6 260.1 396.75 260.45 399.6 261.0 403.15 261.05 Q406.55 260.3 409.75 258.65 412.35 257.3 414.8 255.35 L414.8 258.85 414.8 261.5 M393.05 250.3 L388.65 233.45 390.3 234.15 Q394.7 235.85 398.45 235.5 400.35 235.3 402.05 234.6 405.45 233.15 408.15 229.75 L411.3 246.1 409.75 247.15 Q406.15 249.5 402.3 250.55 L400.55 250.95 399.0 251.05 393.35 250.35 393.05 250.3 M385.25 217.65 L384.4 213.95 387.0 215.75 388.05 216.5 Q391.25 218.15 394.85 218.15 L399.3 218.0 Q402.3 217.45 404.4 215.8 L405.85 214.65 406.75 217.3 Q404.45 219.4 401.3 220.5 L399.35 221.0 396.3 221.45 Q391.0 221.6 386.85 218.85 L385.25 217.65 M418.8 197.5 L418.75 197.7 418.55 198.3 Q418.4 198.75 418.55 199.3 L418.65 199.35 Q418.95 201.0 422.35 203.15 425.0 204.8 425.8 208.9 425.5 209.15 425.35 209.55 425.25 209.55 425.3 209.75 L424.2 208.2 Q423.3 207.45 422.65 207.4 L422.4 207.45 Q421.75 207.5 421.45 208.25 421.35 208.15 421.4 208.4 L421.4 208.5 422.15 209.25 421.0 209.2 420.7 209.2 Q419.6 209.5 419.35 210.5 L419.4 210.7 Q419.25 210.7 419.4 210.8 L419.45 210.95 419.85 211.15 Q419.4 211.5 419.3 212.2 L419.35 212.3 419.35 212.5 Q419.3 212.25 419.4 212.4 L423.1 214.45 Q421.7 217.95 421.35 222.1 L421.25 222.05 420.75 222.15 Q419.85 222.1 419.4 222.55 418.3 223.0 418.45 223.7 418.2 224.45 419.1 224.9 L419.7 225.05 Q418.9 225.35 418.45 226.0 417.35 226.7 417.4 227.6 L417.45 227.85 Q417.45 228.35 418.4 228.45 L418.5 228.5 419.1 228.45 419.0 228.55 Q418.05 229.65 418.4 230.35 418.25 230.7 418.8 230.8 L419.35 230.65 421.25 229.35 Q421.3 229.0 421.7 228.75 L421.75 228.95 Q422.25 231.95 423.75 234.3 L424.85 235.65 425.55 237.9 Q425.4 237.95 425.55 238.05 L425.65 238.1 425.65 238.0 425.85 237.8 426.1 236.65 Q426.1 236.5 426.25 236.6 L428.4 237.25 Q428.05 238.05 428.0 239.1 427.55 241.0 427.6 242.5 427.5 244.4 428.05 244.45 L428.15 244.45 428.9 242.9 429.05 243.25 429.1 244.15 Q429.3 245.9 429.85 245.95 L429.95 245.95 Q430.25 245.7 430.8 243.7 430.8 242.55 431.05 241.35 L431.15 241.65 Q431.1 241.85 431.35 242.35 431.6 243.7 432.1 243.65 L432.2 243.6 432.75 241.35 432.65 237.85 432.4 236.1 434.5 234.3 434.5 234.4 434.8 235.3 434.9 235.5 435.0 235.5 435.05 235.45 435.15 235.3 435.75 232.8 437.75 229.5 Q439.45 225.8 440.35 222.0 L440.5 221.95 440.75 222.05 440.85 222.0 440.9 222.05 441.1 221.95 Q441.05 221.8 441.15 222.0 L442.15 222.0 443.0 221.8 Q444.05 221.35 444.2 220.65 444.3 219.75 443.4 219.25 L443.35 219.2 444.25 218.5 Q445.4 217.4 445.55 216.55 445.45 215.75 444.25 215.85 L443.65 215.75 442.85 215.95 442.8 215.9 443.55 215.05 444.45 213.5 Q444.4 213.25 444.65 213.25 L449.2 206.0 449.2 204.55 444.15 212.65 Q444.0 212.55 444.05 212.7 L443.15 212.7 Q442.25 212.95 441.0 213.9 440.9 213.75 440.95 214.0 L440.85 214.0 Q440.45 209.95 439.15 207.4 L443.95 201.25 Q443.9 201.1 444.0 201.05 443.95 200.8 444.05 200.8 L444.0 200.7 443.35 200.15 443.85 199.5 444.0 199.35 443.9 199.25 443.95 199.0 Q443.65 198.65 443.3 198.7 442.85 198.5 442.25 199.15 441.55 199.4 440.95 200.15 L440.85 200.25 441.4 199.15 441.6 199.05 441.5 198.9 441.4 198.75 440.9 198.45 440.0 199.15 Q439.0 199.95 438.15 201.8 L438.15 201.75 Q437.3 203.0 436.9 204.35 L436.85 204.45 Q435.5 203.35 434.2 203.3 L430.95 204.05 428.5 205.65 Q427.25 206.5 426.3 208.15 425.35 203.8 422.65 202.3 419.35 200.2 419.15 198.7 L419.1 198.25 419.05 198.2 Q419.0 198.05 419.1 198.1 L419.35 197.5 418.8 197.5" fill="#cf9d6b" fill-rule="evenodd" stroke="none"/>
    <path d="M406.2 202.8 L406.0 201.3 Q405.65 200.0 404.75 198.7 L423.25 191.0 412.85 205.7 412.85 220.55 416.35 238.6 423.35 253.35 424.4 256.75 416.45 259.25 414.8 261.5 414.8 258.85 414.8 255.35 412.35 245.7 411.3 246.1 408.15 229.75 409.7 227.55 408.65 222.05 Q407.9 219.3 406.75 217.3 L405.85 214.65 Q406.95 213.45 407.4 211.65 L406.35 203.8 406.2 202.8" fill="#bb7c3e" fill-rule="evenodd" stroke="none"/>
    <path d="M418.8 197.5 L419.35 197.5 419.1 198.1 Q419.0 198.05 419.05 198.2 L419.1 198.25 419.15 198.7 Q419.35 200.2 422.65 202.3 425.35 203.8 426.3 208.15 427.25 206.5 428.5 205.65 L430.95 204.05 434.2 203.3 Q435.5 203.35 436.85 204.45 L436.9 204.35 Q437.3 203.0 438.15 201.75 L438.15 201.8 Q439.0 199.95 440.0 199.15 L440.9 198.45 441.4 198.75 441.5 198.9 441.6 199.05 441.4 199.15 440.85 200.25 440.95 200.15 Q441.55 199.4 442.25 199.15 442.85 198.5 443.3 198.7 443.65 198.65 443.95 199.0 L443.9 199.25 444.0 199.35 443.85 199.5 443.35 200.15 444.0 200.7 444.05 200.8 Q443.95 200.8 444.0 201.05 443.9 201.1 443.95 201.25 L439.15 207.4 Q440.45 209.95 440.85 214.0 L440.95 214.0 Q440.9 213.75 441.0 213.9 442.25 212.95 443.15 212.7 L444.05 212.7 Q444.0 212.55 444.15 212.65 L449.2 204.55 449.2 206.0 444.65 213.25 Q444.4 213.25 444.45 213.5 L443.55 215.05 442.8 215.9 442.85 215.95 443.65 215.75 444.25 215.85 Q445.45 215.75 445.55 216.55 445.4 217.4 444.25 218.5 L443.35 219.2 443.4 219.25 Q444.3 219.75 444.2 220.65 444.05 221.35 443.0 221.8 L442.15 222.0 441.15 222.0 Q441.05 221.8 441.1 221.95 L440.9 222.05 440.85 222.0 440.75 222.05 440.5 221.95 440.35 222.0 Q439.45 225.8 437.75 229.5 L435.75 232.8 435.15 235.3 435.05 235.45 435.0 235.5 434.9 235.5 434.8 235.3 434.5 234.4 434.5 234.3 432.4 236.1 432.65 237.85 432.75 241.35 432.2 243.6 432.1 243.65 Q431.6 243.7 431.35 242.35 431.1 241.85 431.15 241.65 L431.05 241.35 Q430.8 242.55 430.8 243.7 430.25 245.7 429.95 245.95 L429.85 245.95 Q429.3 245.9 429.1 244.15 L429.05 243.25 428.9 242.9 428.15 244.45 428.05 244.45 Q427.5 244.4 427.6 242.5 427.55 241.0 428.0 239.1 428.05 238.05 428.4 237.25 L426.25 236.6 Q426.1 236.5 426.1 236.65 L425.85 237.8 425.65 238.0 425.65 238.1 425.55 238.05 Q425.4 237.95 425.55 237.9 L424.85 235.65 423.75 234.3 Q422.25 231.95 421.75 228.95 L421.7 228.75 Q421.3 229.0 421.25 229.35 L419.35 230.65 418.8 230.8 Q418.25 230.7 418.4 230.35 418.05 229.65 419.0 228.55 L419.1 228.45 418.5 228.5 418.4 228.45 Q417.45 228.35 417.45 227.85 L417.4 227.6 Q417.35 226.7 418.45 226.0 418.9 225.35 419.7 225.05 L419.1 224.9 Q418.2 224.45 418.45 223.7 418.3 223.0 419.4 222.55 419.85 222.1 420.75 222.15 L421.25 222.05 421.35 222.1 Q421.7 217.95 423.1 214.45 L419.4 212.4 Q419.3 212.25 419.35 212.5 L419.35 212.3 419.3 212.2 Q419.4 211.5 419.85 211.15 L419.45 210.95 419.4 210.8 Q419.25 210.7 419.4 210.7 L419.35 210.5 Q419.6 209.5 420.7 209.2 L421.0 209.2 422.15 209.25 421.4 208.5 421.4 208.4 Q421.35 208.15 421.45 208.25 421.75 207.5 422.4 207.45 L422.65 207.4 Q423.3 207.45 424.2 208.2 L425.3 209.75 Q425.25 209.55 425.35 209.55 425.5 209.15 425.8 208.9 425.0 204.8 422.35 203.15 418.95 201.0 418.65 199.35 L418.55 199.3 Q418.4 198.75 418.55 198.3 L418.75 197.7 418.8 197.5 M442.7 200.35 Q442.65 200.2 442.85 200.25 L443.5 199.45 Q442.9 199.15 442.35 199.8 441.1 200.4 439.85 202.15 439.7 202.15 439.8 202.3 439.65 202.3 439.65 202.45 439.5 202.35 439.45 202.6 L439.35 202.65 Q439.15 202.6 439.3 202.5 439.1 202.45 439.25 202.4 439.15 202.2 439.3 202.1 L440.95 199.25 Q440.5 199.2 440.1 199.7 439.2 200.35 438.4 202.15 437.55 203.4 437.2 204.75 436.95 204.95 437.0 205.25 L437.0 205.3 Q436.55 205.65 436.2 206.35 L435.65 207.0 435.45 207.25 Q435.2 207.4 435.25 207.65 L434.6 208.65 Q433.1 210.7 432.3 212.95 L431.95 214.0 Q431.6 214.75 431.5 215.65 431.4 215.65 431.45 215.95 L431.4 216.75 431.5 216.9 443.5 201.05 Q443.2 200.6 442.8 200.75 L442.7 200.6 442.7 200.35 M438.9 207.9 L438.6 208.3 Q439.35 209.5 439.35 211.9 439.25 214.6 438.15 217.1 436.8 219.5 435.2 220.3 433.55 220.9 432.65 219.65 L431.3 223.5 432.05 223.55 433.15 222.45 433.45 221.75 433.55 221.55 Q433.55 221.3 433.7 221.4 L433.8 221.6 434.05 222.1 Q434.4 222.55 435.2 222.35 L436.4 221.2 436.6 220.55 Q436.55 220.3 436.8 220.2 L436.9 220.25 437.0 220.35 437.35 220.85 Q437.25 220.95 437.65 221.1 L438.5 221.05 438.6 221.05 439.65 219.9 439.8 219.6 440.1 218.6 Q440.05 218.4 440.15 218.4 440.1 218.15 440.35 218.35 L440.45 218.2 440.5 217.45 Q440.35 217.3 440.5 217.15 440.45 216.6 440.55 216.2 440.5 215.2 440.6 214.6 440.2 210.5 438.9 207.9 M436.0 205.8 L436.6 205.05 Q434.1 203.05 430.9 204.6 428.4 205.75 426.4 208.6 L425.95 209.35 425.45 210.0 426.05 210.3 427.4 211.2 Q428.45 210.95 429.25 212.0 429.95 213.05 430.25 215.1 430.65 216.55 430.45 218.0 L430.35 218.2 430.2 218.25 Q430.1 218.15 430.1 218.35 L430.05 218.25 429.45 220.3 429.35 220.45 429.2 220.85 430.65 224.7 432.35 219.2 432.35 219.15 Q431.75 218.3 431.65 217.5 L431.45 217.75 431.4 217.9 Q431.25 217.65 431.3 217.85 L431.25 217.75 Q430.75 216.55 431.3 214.7 431.45 212.3 432.6 210.15 433.45 208.05 435.0 207.3 435.3 206.4 436.0 205.8 M438.45 208.4 L438.2 208.7 Q438.85 210.0 438.9 212.25 438.8 214.55 437.75 216.85 L437.7 216.85 Q436.6 219.1 435.2 219.7 433.65 220.2 432.75 219.05 L432.65 219.35 Q433.65 220.55 435.25 219.95 436.8 219.3 438.05 216.9 439.1 214.55 439.3 211.9 439.25 209.75 438.45 208.4 M434.85 214.25 L435.0 215.0 434.8 215.8 434.5 216.2 434.2 215.95 Q434.0 215.75 434.1 215.4 433.95 214.8 434.2 214.45 434.25 214.0 434.5 214.05 434.65 213.9 434.85 214.25 M429.9 218.15 L429.85 218.1 428.95 220.4 429.05 220.75 429.35 220.4 429.9 218.15 M429.35 214.3 Q428.5 212.75 427.35 211.95 L426.6 211.45 Q426.15 211.1 425.9 211.05 L425.2 210.65 425.1 210.55 425.0 210.25 Q424.6 209.35 424.0 208.8 423.15 208.05 422.5 207.95 422.0 207.95 421.85 208.2 L423.2 209.6 423.25 209.75 423.25 210.0 423.2 210.1 Q423.05 210.05 423.05 210.25 L422.85 210.15 422.75 210.15 Q421.55 209.55 420.7 209.85 420.0 210.05 419.85 210.45 L420.25 210.7 420.35 210.8 420.3 211.0 420.15 211.2 Q419.8 211.55 419.7 212.0 L430.05 217.45 430.1 217.45 Q430.05 217.0 430.25 216.6 L430.15 216.2 429.75 215.0 429.35 214.3 M427.15 217.15 Q427.2 217.0 427.55 217.35 L427.55 218.05 427.45 218.85 427.15 219.25 426.85 219.05 Q426.6 218.75 426.7 218.45 426.6 217.95 426.85 217.65 426.9 217.1 427.15 217.15 M428.8 221.35 L428.75 220.9 Q427.65 222.6 426.55 223.05 425.0 223.55 424.2 222.3 423.15 220.95 423.35 218.8 423.25 216.6 424.0 214.95 L423.9 214.85 Q422.95 216.8 422.95 219.1 422.8 221.65 423.85 223.1 424.8 224.45 426.35 223.85 427.65 223.15 428.8 221.35 M426.55 222.5 Q427.7 221.9 428.75 220.05 L429.5 217.85 424.35 215.1 Q423.6 216.75 423.6 218.55 423.4 220.55 424.45 221.85 425.2 222.9 426.55 222.5 M431.8 217.25 L431.75 217.4 Q431.85 218.2 432.35 218.95 432.3 218.75 432.5 218.8 431.95 218.1 431.8 217.25 M432.1 216.8 Q432.25 217.7 432.8 218.45 433.7 219.6 435.25 219.05 436.4 218.4 437.5 216.6 438.45 214.5 438.45 212.25 438.35 210.35 437.85 209.3 L432.1 216.8 M433.8 222.5 L433.65 222.35 433.4 222.75 Q432.75 223.9 432.15 224.15 431.5 224.35 431.15 224.15 L430.75 225.4 430.65 225.65 Q430.45 225.55 430.4 225.75 L430.05 224.55 429.05 225.4 Q428.1 225.6 427.7 224.85 L427.55 224.7 427.35 225.05 Q427.2 225.2 427.2 225.4 426.8 225.75 426.65 226.15 426.2 226.35 426.05 226.5 425.15 226.75 424.7 226.05 L424.7 225.9 Q424.5 225.9 424.45 226.1 L423.15 227.6 Q422.35 227.75 422.0 227.1 L421.85 227.0 Q422.2 230.8 424.05 233.5 L424.5 234.15 423.35 229.9 423.4 229.8 Q423.3 229.6 423.5 229.5 423.5 229.3 423.65 229.45 L423.65 229.55 425.75 232.65 427.95 228.1 427.95 227.9 Q428.0 227.75 428.1 227.8 428.05 227.65 428.2 227.8 L428.35 227.95 428.25 228.1 426.35 235.8 430.45 235.95 Q430.65 235.75 431.05 235.75 432.6 234.95 434.25 233.55 L432.45 227.05 432.45 226.95 Q432.35 226.55 432.55 226.65 L432.65 226.45 432.85 226.55 435.05 229.75 437.4 224.9 437.6 224.75 437.8 224.9 437.75 225.0 436.25 230.9 437.5 228.8 Q439.6 224.2 440.35 219.25 L439.9 220.2 Q439.25 221.5 438.5 221.8 L437.95 221.9 Q437.45 221.9 437.25 221.6 L437.05 221.4 Q436.85 221.1 436.75 221.2 L436.65 221.5 Q436.0 222.65 435.2 223.05 434.25 223.35 433.8 222.5 M441.3 219.3 L441.25 219.25 440.8 219.2 440.5 221.25 440.95 221.3 443.05 221.1 443.8 220.55 443.3 219.85 442.65 219.55 441.3 219.3 M444.2 217.9 L445.1 216.8 Q445.0 216.3 444.1 216.45 443.2 216.35 442.05 216.85 L441.65 216.9 441.25 217.15 440.85 217.35 440.9 218.25 440.75 218.5 441.4 218.6 442.8 218.95 444.2 217.9 M443.6 213.4 L443.25 213.45 Q442.1 213.55 441.1 214.5 440.85 214.45 440.9 214.65 L441.0 216.05 Q440.85 216.25 440.95 216.55 L441.1 216.55 Q441.1 216.4 441.25 216.5 441.3 216.2 441.55 216.3 L443.3 214.55 444.05 213.5 443.6 213.4 M421.4 222.6 L421.1 222.7 Q420.1 222.55 419.45 223.15 418.65 223.4 418.7 223.8 418.7 224.05 419.25 224.25 L420.85 224.5 421.0 224.55 421.35 224.55 421.3 223.9 421.4 222.6 M423.75 214.85 L423.4 214.65 Q421.9 218.25 421.75 222.35 L421.65 223.7 421.7 224.75 421.7 224.8 421.75 225.6 421.8 225.7 Q421.85 226.15 422.2 226.6 422.5 227.2 423.15 226.95 L424.2 225.85 Q424.25 225.45 424.5 225.2 L424.65 225.05 424.65 224.9 424.75 225.15 425.05 225.55 Q425.3 226.15 426.0 225.9 426.15 225.8 426.55 225.65 L427.05 224.85 427.05 224.75 Q427.15 224.35 427.35 224.1 427.35 223.85 427.5 223.9 427.45 223.7 427.55 223.9 427.6 223.75 427.7 224.0 L428.0 224.45 Q428.35 224.85 429.05 224.75 L429.85 224.1 428.9 221.5 Q427.75 223.35 426.4 223.95 424.8 224.55 423.8 223.15 422.7 221.65 422.85 219.2 422.85 216.85 423.75 214.85 M421.6 228.3 L421.4 226.7 Q421.05 226.8 420.85 227.15 L419.7 228.2 419.65 228.35 Q419.3 228.55 419.2 229.05 418.6 229.75 418.65 230.0 418.55 230.2 419.4 230.0 L419.45 230.0 421.0 228.75 421.6 228.3 M421.0 225.05 Q420.65 225.1 420.55 225.35 419.25 225.7 418.5 226.45 417.75 226.95 417.8 227.45 L418.45 227.9 419.6 227.75 Q420.0 227.15 420.7 226.65 420.95 226.3 421.4 226.05 L421.35 225.15 421.0 225.05 M429.8 237.1 L428.8 237.2 428.4 239.1 Q427.9 241.05 427.95 242.65 427.8 243.6 428.1 243.75 L428.7 242.7 Q428.7 242.2 428.95 241.75 L429.45 239.4 429.8 237.1 M432.2 238.05 L431.95 236.25 Q431.35 236.4 430.95 236.85 430.85 237.55 431.15 238.65 L431.2 238.8 Q431.2 240.75 431.75 241.9 431.85 242.8 432.1 242.9 L432.35 241.5 432.2 238.05 M430.55 236.9 L430.5 236.95 430.2 237.0 429.8 239.5 429.4 241.7 Q429.3 242.8 429.5 243.95 429.6 245.05 429.85 245.2 L430.3 243.7 430.7 239.55 430.7 238.9 430.55 236.9 M434.7 233.35 L434.8 233.55 434.95 234.35 436.85 226.95 435.05 230.5 434.95 230.65 434.9 230.7 434.8 230.65 433.2 228.35 434.7 233.35 M425.15 235.2 L425.25 235.15 425.7 237.0 425.9 236.15 425.9 235.95 427.5 229.85 425.8 233.35 425.8 233.45 425.65 233.45 Q425.5 233.3 425.55 233.45 L424.15 231.15 425.15 235.2" fill="#000000" fill-rule="evenodd" stroke="none"/>
    <path d="M442.7 200.35 L442.7 200.6 442.8 200.75 Q443.2 200.6 443.5 201.05 L431.5 216.9 431.4 216.75 431.45 215.95 Q431.4 215.65 431.5 215.65 431.6 214.75 431.95 214.0 L432.3 212.95 Q433.1 210.7 434.6 208.65 L435.25 207.65 Q435.2 207.4 435.45 207.25 L435.65 207.0 436.2 206.35 Q436.55 205.65 437.0 205.3 L437.0 205.25 Q436.95 204.95 437.2 204.75 437.55 203.4 438.4 202.15 439.2 200.35 440.1 199.7 440.5 199.2 440.95 199.25 L439.3 202.1 Q439.15 202.2 439.25 202.4 439.1 202.45 439.3 202.5 439.15 202.6 439.35 202.65 L439.45 202.6 Q439.5 202.35 439.65 202.45 439.65 202.3 439.8 202.3 439.7 202.15 439.85 202.15 441.1 200.4 442.35 199.8 442.9 199.15 443.5 199.45 L442.85 200.25 Q442.65 200.2 442.7 200.35 M438.45 208.4 Q439.25 209.75 439.3 211.9 439.1 214.55 438.05 216.9 436.8 219.3 435.25 219.95 433.65 220.55 432.65 219.35 L432.75 219.05 Q433.65 220.2 435.2 219.7 436.6 219.1 437.7 216.85 L437.75 216.85 Q438.8 214.55 438.9 212.25 438.85 210.0 438.2 208.7 L438.45 208.4 M429.35 214.3 L429.75 215.0 430.15 216.2 430.25 216.6 Q430.05 217.0 430.1 217.45 L430.05 217.45 419.7 212.0 Q419.8 211.55 420.15 211.2 L420.3 211.0 420.35 210.8 420.25 210.7 419.85 210.45 Q420.0 210.05 420.7 209.85 421.55 209.55 422.75 210.15 L422.85 210.15 423.05 210.25 Q423.05 210.05 423.2 210.1 L423.25 210.0 423.25 209.75 423.2 209.6 421.85 208.2 Q422.0 207.95 422.5 207.95 423.15 208.05 424.0 208.8 424.6 209.35 425.0 210.25 L425.1 210.55 425.2 210.65 425.9 211.05 Q426.15 211.1 426.6 211.45 L427.35 211.95 Q428.5 212.75 429.35 214.3 M429.9 218.15 L429.35 220.4 429.05 220.75 428.95 220.4 429.85 218.1 429.9 218.15 M428.8 221.35 Q427.65 223.15 426.35 223.85 424.8 224.45 423.85 223.1 422.8 221.65 422.95 219.1 422.95 216.8 423.9 214.85 L424.0 214.95 Q423.25 216.6 423.35 218.8 423.15 220.95 424.2 222.3 425.0 223.55 426.55 223.05 427.65 222.6 428.75 220.9 L428.8 221.35 M431.8 217.25 Q431.95 218.1 432.5 218.8 432.3 218.75 432.35 218.95 431.85 218.2 431.75 217.4 L431.8 217.25" fill="#a48860" fill-rule="evenodd" stroke="none"/>
    <path d="M436.0 205.8 Q435.3 206.4 435.0 207.3 433.45 208.05 432.6 210.15 431.45 212.3 431.3 214.7 430.75 216.55 431.25 217.75 L431.3 217.85 Q431.25 217.65 431.4 217.9 L431.45 217.75 431.65 217.5 Q431.75 218.3 432.35 219.15 L432.35 219.2 430.65 224.7 429.2 220.85 429.35 220.45 429.45 220.3 430.05 218.25 430.1 218.35 Q430.1 218.15 430.2 218.25 L430.35 218.2 430.45 218.0 Q430.65 216.55 430.25 215.1 429.95 213.05 429.25 212.0 428.45 210.95 427.4 211.2 L426.05 210.3 425.45 210.0 425.95 209.35 426.4 208.6 Q428.4 205.75 430.9 204.6 434.1 203.05 436.6 205.05 L436.0 205.8 M438.9 207.9 Q440.2 210.5 440.6 214.6 440.5 215.2 440.55 216.2 440.45 216.6 440.5 217.15 440.35 217.3 440.5 217.45 L440.45 218.2 440.35 218.35 Q440.1 218.15 440.15 218.4 440.05 218.4 440.1 218.6 L439.8 219.6 439.65 219.9 438.6 221.05 438.5 221.05 437.65 221.1 Q437.25 220.95 437.35 220.85 L437.0 220.35 436.9 220.25 436.8 220.2 Q436.55 220.3 436.6 220.55 L436.4 221.2 435.2 222.35 Q434.4 222.55 434.05 222.1 L433.8 221.6 433.7 221.4 Q433.55 221.3 433.55 221.55 L433.45 221.75 433.15 222.45 432.05 223.55 431.3 223.5 432.65 219.65 Q433.55 220.9 435.2 220.3 436.8 219.5 438.15 217.1 439.25 214.6 439.35 211.9 439.35 209.5 438.6 208.3 L438.9 207.9 M443.6 213.4 L444.05 213.5 443.3 214.55 441.55 216.3 Q441.3 216.2 441.25 216.5 441.1 216.4 441.1 216.55 L440.95 216.55 Q440.85 216.25 441.0 216.05 L440.9 214.65 Q440.85 214.45 441.1 214.5 442.1 213.55 443.25 213.45 L443.6 213.4 M444.2 217.9 L442.8 218.95 441.4 218.6 440.75 218.5 440.9 218.25 440.85 217.35 441.25 217.15 441.65 216.9 442.05 216.85 Q443.2 216.35 444.1 216.45 445.0 216.3 445.1 216.8 L444.2 217.9 M441.3 219.3 L442.65 219.55 443.3 219.85 443.8 220.55 443.05 221.1 440.95 221.3 440.5 221.25 440.8 219.2 441.25 219.25 441.3 219.3 M423.75 214.85 Q422.85 216.85 422.85 219.2 422.7 221.65 423.8 223.15 424.8 224.55 426.4 223.95 427.75 223.35 428.9 221.5 L429.85 224.1 429.05 224.75 Q428.35 224.85 428.0 224.45 L427.7 224.0 Q427.6 223.75 427.55 223.9 427.45 223.7 427.5 223.9 427.35 223.85 427.35 224.1 427.15 224.35 427.05 224.75 L427.05 224.85 426.55 225.65 Q426.15 225.8 426.0 225.9 425.3 226.15 425.05 225.55 L424.75 225.15 424.65 224.9 424.65 225.05 424.5 225.2 Q424.25 225.45 424.2 225.85 L423.15 226.95 Q422.5 227.2 422.2 226.6 421.85 226.15 421.8 225.7 L421.75 225.6 421.7 224.8 421.7 224.75 421.65 223.7 421.75 222.35 Q421.9 218.25 423.4 214.65 L423.75 214.85 M421.4 222.6 L421.3 223.9 421.35 224.55 421.0 224.55 420.85 224.5 419.25 224.25 Q418.7 224.05 418.7 223.8 418.65 223.4 419.45 223.15 420.1 222.55 421.1 222.7 L421.4 222.6 M421.0 225.05 L421.35 225.15 421.4 226.05 Q420.95 226.3 420.7 226.65 420.0 227.15 419.6 227.75 L418.45 227.9 417.8 227.45 Q417.75 226.95 418.5 226.45 419.25 225.7 420.55 225.35 420.65 225.1 421.0 225.05 M421.6 228.3 L421.0 228.75 419.45 230.0 419.4 230.0 Q418.55 230.2 418.65 230.0 418.6 229.75 419.2 229.05 419.3 228.55 419.65 228.35 L419.7 228.2 420.85 227.15 Q421.05 226.8 421.4 226.7 L421.6 228.3 M425.15 235.2 L424.15 231.15 425.55 233.45 Q425.5 233.3 425.65 233.45 L425.8 233.45 425.8 233.35 427.5 229.85 425.9 235.95 425.9 236.15 425.7 237.0 425.25 235.15 425.15 235.2 M434.7 233.35 L433.2 228.35 434.8 230.65 434.9 230.7 434.95 230.65 435.05 230.5 436.85 226.95 434.95 234.35 434.8 233.55 434.7 233.35 M430.55 236.9 L430.7 238.9 430.7 239.55 430.3 243.7 429.85 245.2 Q429.6 245.05 429.5 243.95 429.3 242.8 429.4 241.7 L429.8 239.5 430.2 237.0 430.5 236.95 430.55 236.9 M432.2 238.05 L432.35 241.5 432.1 242.9 Q431.85 242.8 431.75 241.9 431.2 240.75 431.2 238.8 L431.15 238.65 Q430.85 237.55 430.95 236.85 431.35 236.4 431.95 236.25 L432.2 238.05 M429.8 237.1 L429.45 239.4 428.95 241.75 Q428.7 242.2 428.7 242.7 L428.1 243.75 Q427.8 243.6 427.95 242.65 427.9 241.05 428.4 239.1 L428.8 237.2 429.8 237.1" fill="#d7a31c" fill-rule="evenodd" stroke="none"/>
    <path d="M434.85 214.25 Q434.65 213.9 434.5 214.05 434.25 214.0 434.2 214.45 433.95 214.8 434.1 215.4 434.0 215.75 434.2 215.95 L434.5 216.2 434.8 215.8 435.0 215.0 434.85 214.25 M427.15 217.15 Q426.9 217.1 426.85 217.65 426.6 217.95 426.7 218.45 426.6 218.75 426.85 219.05 L427.15 219.25 427.45 218.85 427.55 218.05 427.55 217.35 Q427.2 217.0 427.15 217.15 M426.55 222.5 Q425.2 222.9 424.45 221.85 423.4 220.55 423.6 218.55 423.6 216.75 424.35 215.1 L429.5 217.85 428.75 220.05 Q427.7 221.9 426.55 222.5 M432.1 216.8 L437.85 209.3 Q438.35 210.35 438.45 212.25 438.45 214.5 437.5 216.6 436.4 218.4 435.25 219.05 433.7 219.6 432.8 218.45 432.25 217.7 432.1 216.8" fill="#f0f1f4" fill-rule="evenodd" stroke="none"/>
    <path d="M433.8 222.5 Q434.25 223.35 435.2 223.05 436.0 222.65 436.65 221.5 L436.75 221.2 Q436.85 221.1 437.05 221.4 L437.25 221.6 Q437.45 221.9 437.95 221.9 L438.5 221.8 Q439.25 221.5 439.9 220.2 L440.35 219.25 Q439.6 224.2 437.5 228.8 L436.25 230.9 437.75 225.0 437.8 224.9 437.6 224.75 437.4 224.9 435.05 229.75 432.85 226.55 432.65 226.45 432.55 226.65 Q432.35 226.55 432.45 226.95 L432.45 227.05 434.25 233.55 Q432.6 234.95 431.05 235.75 430.65 235.75 430.45 235.95 L426.35 235.8 428.25 228.1 428.35 227.95 428.2 227.8 Q428.05 227.65 428.1 227.8 428.0 227.75 427.95 227.9 L427.95 228.1 425.75 232.65 423.65 229.55 423.65 229.45 Q423.5 229.3 423.5 229.5 423.3 229.6 423.4 229.8 L423.35 229.9 424.5 234.15 424.05 233.5 Q422.2 230.8 421.85 227.0 L422.0 227.1 Q422.35 227.75 423.15 227.6 L424.45 226.1 Q424.5 225.9 424.7 225.9 L424.7 226.05 Q425.15 226.75 426.05 226.5 426.2 226.35 426.65 226.15 426.8 225.75 427.2 225.4 427.2 225.2 427.35 225.05 L427.55 224.7 427.7 224.85 Q428.1 225.6 429.05 225.4 L430.05 224.55 430.4 225.75 Q430.45 225.55 430.65 225.65 L430.75 225.4 431.15 224.15 Q431.5 224.35 432.15 224.15 432.75 223.9 433.4 222.75 L433.65 222.35 433.8 222.5" fill="#83560a" fill-rule="evenodd" stroke="none"/>
    <path d="M433.8 170.25 L433.15 165.95 429.75 163.6 389.9 180.4 383.55 180.4 378.5 184.2 376.0 191.25 379.55 200.0 379.7 200.15 379.85 200.25 M432.0 168.8 L433.8 170.25 443.45 177.9 452.5 174.15 455.95 177.45 454.9 201.5 453.65 229.4 452.75 247.95 443.35 250.85 424.4 256.75 416.45 259.25 414.8 261.5 410.65 267.3 400.2 267.3 395.6 260.1 Q392.5 254.9 393.05 250.3 L388.65 233.45 385.6 228.65 Q383.1 222.25 385.25 217.65 L384.4 213.95 380.75 211.4 380.75 208.8 379.65 200.2 379.55 200.0 M443.2 178.0 L443.45 177.9 M454.85 177.9 L455.95 177.45 M451.75 230.85 L453.65 229.4 M454.9 201.5 L452.85 201.4 M443.35 250.85 L443.25 249.15 M396.75 260.45 L395.6 260.1 M386.85 218.85 L385.25 217.65 M379.65 200.2 L379.7 200.15 M388.65 233.45 L390.3 234.15 M384.4 213.95 L387.0 215.75 M393.35 250.35 L393.05 250.3" fill="none" stroke="#000000" stroke-linecap="round" stroke-linejoin="round" stroke-width="0.05"/>
    <path d="M414.8 258.85 L414.8 261.5" fill="none" stroke="#000000" stroke-linecap="round" stroke-linejoin="round" stroke-width="0.05"/>
    <path d="M379.85 200.25 Q388.15 207.35 390.65 208.35 394.4 209.55 398.5 209.0 L401.45 208.45 Q405.1 206.65 406.1 203.85 L406.2 202.8 406.0 201.3 Q405.65 200.0 404.75 198.7 L423.25 191.0 439.0 184.45 436.15 180.95 401.5 195.4 398.9 195.4 Q401.95 198.7 401.95 202.35 401.0 204.6 397.8 205.2 391.1 205.1 386.05 201.75 L385.65 201.3 385.2 200.7 Q382.95 197.95 381.95 195.25 381.2 192.05 381.95 188.9 383.05 186.3 385.9 184.1 388.5 183.05 392.85 184.1 L431.15 166.65 431.55 168.5 432.0 168.8 M385.4 200.65 L383.7 196.55 Q382.75 193.5 383.3 190.45 384.2 188.0 386.9 185.85 L394.05 186.1 431.55 168.5 M436.15 180.95 L443.2 178.0 M439.0 184.45 L439.05 184.45 454.85 177.9 M390.15 194.55 L432.05 174.2 M452.85 201.4 Q443.2 200.3 439.05 184.45 M406.35 203.8 L406.2 202.8 M405.85 214.65 Q406.95 213.45 407.4 211.65 L406.35 203.8 M405.85 214.65 L406.75 217.3 Q407.9 219.3 408.65 222.05 L409.7 227.55 408.15 229.75 411.3 246.1 412.35 245.7 414.8 255.35 Q412.35 257.3 409.75 258.65 406.55 260.3 403.15 261.05 L399.6 261.0 396.75 260.45 M402.3 250.55 Q406.15 249.5 409.75 247.15 L411.3 246.1 M443.25 249.15 Q442.9 238.05 451.75 230.85 M385.65 201.3 L385.4 200.65 M387.0 215.75 L388.05 216.5 Q391.25 218.15 394.85 218.15 L399.3 218.0 Q402.3 217.45 404.4 215.8 L405.85 214.65 M406.75 217.3 Q404.45 219.4 401.3 220.5 L399.35 221.0 396.3 221.45 Q391.0 221.6 386.85 218.85 M398.45 235.5 Q400.35 235.3 402.05 234.6 405.45 233.15 408.15 229.75 M390.3 234.15 Q394.7 235.85 398.45 235.5 M399.0 251.05 L399.7 251.05 400.55 250.95 399.0 251.05 393.35 250.35 M400.55 250.95 L402.3 250.55" fill="none" stroke="#000000" stroke-linecap="round" stroke-linejoin="round" stroke-opacity="0.3019608" stroke-width="0.05"/>
    <path d="M414.8 255.35 L414.8 258.85" fill="none" stroke="#000000" stroke-linecap="round" stroke-linejoin="round" stroke-opacity="0.3019608" stroke-width="0.05"/>
  </g>
</svg>
