<?xml version="1.0" encoding="UTF-8" standalone="no"?>
<svg xmlns:xlink="http://www.w3.org/1999/xlink" height="233.0px" width="164.0px" xmlns="http://www.w3.org/2000/svg">
  <g transform="matrix(1.0, 0.0, 0.0, 1.0, 0.1, 0.1)">
    <path d="M8.2 100.05 L7.45 97.0 7.4 97.0 7.35 96.65 7.45 97.0 8.2 96.9 8.2 100.05 8.6 101.5 8.2 101.65 8.2 100.05" fill="#ffbf2b" fill-rule="evenodd" stroke="none"/>
    <path d="M74.8 202.75 Q74.95 206.05 74.2 209.9 L70.75 205.75 74.8 202.75 M53.8 210.4 L55.7 207.25 58.65 207.3 61.2 202.8 62.8 204.8 59.95 210.15 53.8 210.4 M0.0 104.85 L0.0 97.8 7.4 97.0 7.45 97.0 8.2 100.05 8.2 101.65 0.0 104.85 M105.3 12.3 L104.4 9.8 109.35 7.4 109.65 9.9 105.55 12.95 105.3 12.3" fill="#fffcd5" fill-rule="evenodd" stroke="none"/>
    <path d="M42.4 43.1 L42.3 42.9 42.35 42.9 42.4 43.1" fill="#c68a02" fill-rule="evenodd" stroke="none"/>
    <path d="M48.4 92.05 L48.7 91.95 48.45 92.3 48.4 92.05" fill="#ae9a55" fill-rule="evenodd" stroke="none"/>
    <path d="M114.55 24.85 L114.4 25.35 114.25 25.05 114.55 24.85" fill="#f8f2d6" fill-rule="evenodd" stroke="none"/>
    <path d="M49.1 53.05 L49.2 53.2 49.05 53.05 49.1 53.05" fill="#4e2701" fill-rule="evenodd" stroke="none"/>
    <path d="M101.75 122.1 L101.8 122.25 101.65 122.05 101.75 122.1" fill="#656b16" fill-rule="evenodd" stroke="none"/>
    <path d="M44.65 43.95 L44.55 43.8 44.6 43.75 44.65 43.95" fill="#a45820" fill-rule="evenodd" stroke="none"/>
    <path d="M109.35 7.4 L124.6 0.0 126.9 4.85 123.45 7.4 121.05 6.95 107.0 15.35 106.15 14.6 105.55 12.95 109.65 9.9 109.35 7.4 M155.0 86.4 L157.8 86.6 163.8 100.6 154.6 109.8 152.25 107.1 150.8 103.2 153.6 99.0 150.2 90.8 155.0 86.4 M74.2 209.9 L76.4 215.6 68.0 232.8 63.6 232.8 53.8 210.4 59.95 210.15 62.8 204.8 67.4 215.2 70.75 205.75 74.2 209.9 M13.65 124.65 L10.8 126.0 0.0 107.6 0.0 104.85 8.2 101.65 8.2 104.0 17.85 121.9 17.2 122.9 Q15.45 123.75 13.65 124.65 M0.0 97.8 L0.0 95.2 4.4 88.8 9.95 87.4 12.3 86.8 7.35 96.65 7.4 97.0 0.0 97.8 M152.1 91.4 L156.7 88.1 152.1 91.4 M153.0 103.2 L155.2 101.2 153.6 99.0 155.2 101.2 153.0 103.2" fill="#f2a20d" fill-rule="evenodd" stroke="none"/>
    <path d="M126.9 4.85 L133.6 18.8 129.8 20.95 126.6 24.0 121.6 24.0 118.0 15.2 110.6 18.6 107.0 15.35 121.05 6.95 123.45 7.4 126.9 4.85 M8.2 96.2 L8.2 96.9 8.2 96.2 M8.2 96.9 L7.45 97.0 7.35 96.65 12.3 86.8 15.65 85.9 18.2 91.4 16.8 94.6 12.6 101.6 19.8 118.8 17.85 121.9 8.2 104.0 8.2 101.65 8.6 101.5 8.2 100.05 8.2 96.9" fill="#d0490f" fill-rule="evenodd" stroke="none"/>
    <path d="M146.45 118.5 Q152.55 127.65 120.8 140.4 L112.6 142.95 102.0 141.7 98.85 137.0 98.45 136.4 98.2 136.0 98.2 134.05 98.3 134.1 98.2 132.65 98.3 134.1 98.35 134.3 98.3 134.1 98.2 134.05 98.2 132.65 98.2 126.1 102.2 123.1 98.2 120.55 96.2 119.35 96.2 118.55 95.95 118.35 93.4 116.35 90.7 116.1 87.9 111.9 88.15 101.9 89.95 102.95 92.9 94.65 89.7 92.0 90.55 91.3 90.35 90.9 89.9 90.3 88.95 91.05 87.85 89.65 87.3 90.05 84.35 87.7 79.2 94.45 74.05 86.95 70.85 63.65 86.6 47.05 88.95 45.75 Q92.0 44.05 96.3 41.2 L104.3 42.35 109.05 39.1 115.45 44.55 116.45 51.15 126.95 61.95 141.0 95.6 146.45 118.5 M103.0 73.8 L103.0 72.45 99.5 71.55 97.8 74.9 96.25 75.85 96.9 79.15 96.4 79.2 95.6 77.85 93.15 78.65 93.1 81.1 93.15 81.1 92.85 82.45 91.3 82.05 91.25 82.2 90.9 81.95 89.55 83.05 90.15 84.35 89.55 85.6 91.15 87.15 94.85 84.3 94.85 84.1 94.95 84.2 107.8 74.15 107.8 72.15 104.25 71.25 103.0 73.8 M113.3 76.1 L113.85 75.4 110.5 72.25 89.35 89.0 90.35 90.9 90.6 91.25 90.55 91.3 91.2 92.55 93.75 91.65 96.1 94.35 98.25 96.9 103.6 98.45 104.65 97.6 105.85 98.75 106.25 98.35 106.35 98.25 105.85 98.75 Q105.4 99.25 105.35 100.05 105.2 101.1 105.85 101.95 L105.95 102.1 Q106.6 102.8 107.6 102.9 108.65 103.05 109.5 102.4 110.35 101.7 110.45 100.65 110.55 99.55 109.9 98.75 L109.65 98.4 111.0 97.05 109.6 96.3 111.0 97.05 109.65 98.4 Q109.05 97.85 108.2 97.8 107.35 97.65 106.65 98.05 L105.55 96.8 115.55 88.5 117.0 89.9 Q116.45 90.45 116.4 91.3 116.25 92.35 116.9 93.2 L117.15 93.45 Q117.75 94.05 118.65 94.2 119.7 94.3 120.55 93.65 121.4 92.95 121.5 91.9 L121.45 91.0 120.95 90.0 Q120.3 89.15 119.25 89.05 L117.85 89.3 116.6 87.65 117.45 86.95 115.9 80.95 113.2 77.7 113.1 77.55 113.3 76.1 M123.2 90.0 L121.45 91.0 123.2 90.0 123.45 89.85 123.2 90.0 125.8 91.5 123.2 90.0 M132.3 88.1 L123.45 89.85 132.3 88.1 M93.55 93.65 L93.75 93.8 93.8 93.8 93.55 93.65 M96.25 110.05 L97.2 110.85 97.1 110.95 95.95 118.35 97.1 110.95 97.2 110.85 96.25 110.05 M111.0 97.05 L111.15 96.9 111.0 97.05 113.6 98.45 111.0 97.05 M125.75 91.5 L113.6 98.45 125.75 91.5 125.8 91.5 125.75 91.5 M99.4 112.75 L97.2 110.85 105.95 102.1 97.2 110.85 99.4 112.75 99.4 112.6 113.45 98.55 99.4 112.6 99.4 112.75 100.55 113.75 99.4 112.75 98.2 120.55 99.4 112.75 M113.6 98.45 L113.45 98.55 113.6 98.45 115.35 99.4 113.6 98.45 M111.15 96.9 L117.15 93.45 111.15 96.9 M134.6 89.75 L125.8 91.5 134.6 89.75 M131.05 96.85 L127.55 95.95 125.8 99.45 128.45 102.1 131.05 100.35 131.05 96.85 M127.65 92.6 L125.8 91.5 127.65 92.6 M129.0 106.65 L129.6 105.05 128.05 104.0 126.65 105.1 127.3 106.45 129.0 106.65 M135.05 107.7 L136.7 106.05 135.45 104.05 133.05 104.85 133.0 107.25 135.05 107.7 M101.75 122.1 L101.65 122.05 101.8 122.25 101.75 122.1 M98.45 136.4 L98.35 134.3 98.45 136.4" fill="#d1d5bb" fill-rule="evenodd" stroke="none"/>
    <path d="M116.4 19.0 L115.45 22.1 114.55 24.85 114.25 25.05 114.4 25.35 113.2 29.2 96.3 41.2 Q92.0 44.05 88.95 45.75 L86.6 47.05 Q73.55 54.05 59.6 56.6 L62.0 72.6 61.45 73.9 61.05 74.45 48.7 91.95 48.4 92.05 44.3 93.3 38.7 94.95 35.3 95.95 45.4 74.1 45.4 59.75 47.0 59.4 57.25 56.9 59.6 56.6 57.25 56.9 53.75 55.3 66.1 47.7 94.2 30.35 116.4 19.0 M79.4 43.4 L98.4 34.6 114.25 25.05 98.4 34.6 79.4 43.4 M115.45 22.1 L74.6 44.2 66.1 47.7 74.6 44.2 115.45 22.1 M46.4 64.4 L47.0 59.4 46.4 64.4 M51.8 79.8 L44.3 93.3 51.8 79.8 M55.8 64.6 L55.6 58.8 55.8 64.6 M43.8 86.6 L38.7 94.95 43.8 86.6" fill="#edeee3" fill-rule="evenodd" stroke="none"/>
    <path d="M112.6 142.95 L94.8 148.5 82.4 107.2 59.6 56.6 Q73.55 54.05 86.6 47.05 L70.85 63.65 74.05 86.95 79.2 94.45 84.35 87.7 87.3 90.05 86.4 90.75 89.4 94.5 90.8 93.4 89.7 92.0 92.9 94.65 89.95 102.95 88.15 101.9 87.9 111.9 90.7 116.1 93.4 116.35 95.95 118.35 95.35 122.35 95.45 123.85 97.75 125.8 95.45 123.85 95.35 122.35 95.95 118.35 96.2 118.55 96.2 119.35 98.2 120.55 102.2 123.1 98.2 126.1 98.2 132.65 98.2 134.05 98.2 136.0 98.45 136.4 98.85 137.0 102.0 141.7 112.6 142.95 M96.3 41.2 L113.2 29.2 126.95 61.95 116.45 51.15 115.45 44.55 109.05 39.1 104.3 42.35 96.3 41.2 M98.2 120.55 L97.65 124.05 97.75 125.8 97.65 124.05 98.2 120.55 M94.6 123.15 L95.45 123.85 96.1 133.25 95.0 132.8 96.1 133.25 95.45 123.85 94.6 123.15 M98.2 126.1 L97.75 125.8 98.2 126.1 M96.25 135.55 L96.1 133.25 98.2 134.05 96.1 133.25 96.25 135.55 M98.2 132.65 L97.75 125.8 98.2 132.65" fill="#c1c7a3" fill-rule="evenodd" stroke="none"/>
    <path d="M94.8 148.5 L98.8 165.7 91.0 183.4 Q87.75 169.9 83.2 156.3 72.3 123.65 54.8 91.9 55.25 83.2 61.05 74.45 L61.45 73.9 62.0 72.6 59.6 56.6 82.4 107.2 94.8 148.5 M89.7 92.0 L90.8 93.4 89.4 94.5 86.4 90.75 87.3 90.05 87.85 89.65 88.95 91.05 89.9 90.3 90.35 90.9 90.55 91.3 89.7 92.0 M90.55 91.3 L90.6 91.25 90.35 90.9 89.35 89.0 110.5 72.25 113.85 75.4 113.3 76.1 96.2 88.95 96.1 89.75 100.1 88.1 110.1 79.45 113.1 77.55 113.2 77.7 111.85 78.8 112.6 83.6 110.6 89.75 105.45 93.85 98.85 95.2 96.9 93.7 96.1 94.35 93.75 91.65 91.2 92.55 90.55 91.3 M117.85 89.3 L119.25 89.05 Q120.3 89.15 120.95 90.0 L121.45 91.0 121.5 91.9 Q121.4 92.95 120.55 93.65 119.7 94.3 118.65 94.2 117.75 94.05 117.15 93.45 L116.9 93.2 Q116.25 92.35 116.4 91.3 116.45 90.45 117.0 89.9 L117.35 89.55 117.85 89.3 M106.35 98.25 L106.65 98.05 Q107.35 97.65 108.2 97.8 109.05 97.85 109.65 98.4 L109.9 98.75 Q110.55 99.55 110.45 100.65 110.35 101.7 109.5 102.4 108.65 103.05 107.6 102.9 106.6 102.8 105.95 102.1 L105.85 101.95 Q105.2 101.1 105.35 100.05 105.4 99.25 105.85 98.75 L106.35 98.25 M117.65 91.4 Q117.55 91.95 117.9 92.35 L118.4 92.75 118.75 92.9 119.75 92.6 120.25 91.7 119.95 90.75 Q119.6 90.3 119.1 90.25 118.5 90.2 118.1 90.55 117.65 90.85 117.65 91.4 M74.25 111.1 L77.5 107.2 70.15 91.75 64.05 87.45 63.95 98.7 70.6 115.45 73.3 112.25 90.05 153.35 Q89.85 153.95 89.9 154.8 89.9 156.4 90.55 158.0 91.15 159.55 92.1 160.15 L93.65 160.05 Q94.3 159.35 94.3 157.7 94.25 156.1 93.65 154.5 93.0 152.95 92.1 152.35 91.5 151.95 91.0 152.1 L74.25 111.1 M109.2 100.45 Q109.25 99.9 108.9 99.5 L108.75 99.3 108.05 99.0 Q107.5 98.95 107.05 99.25 106.65 99.6 106.6 100.15 106.5 100.7 106.85 101.1 L106.9 101.15 Q107.2 101.55 107.75 101.6 L108.7 101.35 109.2 100.45 M92.1 154.65 L92.75 155.65 93.1 157.1 92.85 158.1 Q92.55 158.35 92.2 158.1 L91.5 157.05 Q91.2 156.35 91.2 155.65 91.15 154.9 91.45 154.6 L92.1 154.65 M91.65 174.0 L91.7 173.95 91.65 174.0 M96.9 162.05 L97.0 161.8 96.75 161.65 96.9 162.05" fill="#b9c098" fill-rule="evenodd" stroke="none"/>
    <path d="M149.05 109.7 L146.45 118.5 141.0 95.6 126.95 61.95 113.2 29.2 114.4 25.35 114.55 24.85 115.45 22.1 116.4 19.0 148.45 97.75 149.05 109.7 M91.0 183.4 L78.0 200.4 74.8 202.75 70.75 205.75 66.65 208.7 Q52.45 169.05 17.4 108.2 L15.0 102.0 Q26.85 88.25 33.6 74.4 L37.5 62.8 39.3 61.25 43.75 60.15 45.4 59.75 45.4 74.1 35.3 95.95 38.7 94.95 44.3 93.3 48.4 92.05 48.45 92.3 83.2 156.3 Q87.75 169.9 91.0 183.4 M137.0 80.2 L114.4 25.35 137.0 80.2 M131.05 96.85 L131.05 100.35 128.45 102.1 125.8 99.45 127.55 95.95 131.05 96.85 M50.8 52.55 L94.2 30.35 66.1 47.7 53.75 55.3 49.2 53.2 50.8 52.55 M38.2 78.2 L42.6 68.2 43.75 60.15 42.6 68.2 38.2 78.2 M53.6 52.8 L66.1 47.7 53.6 52.8 M60.2 174.0 Q46.5 139.65 23.4 100.0 46.5 139.65 60.2 174.0 M72.2 196.8 L55.4 154.4 72.2 196.8 M135.05 107.7 L133.0 107.25 133.05 104.85 135.45 104.05 136.7 106.05 135.05 107.7 M129.0 106.65 L127.3 106.45 126.65 105.1 128.05 104.0 129.6 105.05 129.0 106.65 M84.6 174.8 Q78.55 158.5 70.85 142.0 59.65 118.0 45.0 93.6 59.65 118.0 70.85 142.0 78.55 158.5 84.6 174.8 M29.2 93.0 L23.2 99.4 29.2 93.0" fill="#939d60" fill-rule="evenodd" stroke="none"/>
    <path d="M48.7 91.95 L61.05 74.45 Q55.25 83.2 54.8 91.9 72.3 123.65 83.2 156.3 L48.45 92.3 48.7 91.95" fill="#5c633d" fill-rule="evenodd" stroke="none"/>
    <path d="M129.8 20.95 L155.0 86.4 150.2 90.8 153.6 99.0 150.8 103.2 152.25 107.1 149.05 109.7 148.45 97.75 116.4 19.0 94.2 30.35 50.8 52.55 44.65 43.95 44.6 43.75 Q62.05 38.75 80.25 29.0 98.5 19.2 106.15 14.6 L107.0 15.35 110.6 18.6 118.0 15.2 121.6 24.0 126.6 24.0 129.8 20.95" fill="#797b6c" fill-rule="evenodd" stroke="none"/>
    <path d="M43.6 44.85 L44.65 43.95 50.8 52.55 49.2 53.2 49.1 53.05 43.6 44.85 49.1 53.05 49.05 53.05 39.3 61.25 37.5 62.8 31.2 55.25 43.6 44.85" fill="#525348" fill-rule="evenodd" stroke="none"/>
    <path d="M31.2 55.25 L37.5 62.8 33.6 74.4 Q26.85 88.25 15.0 102.0 L17.4 108.2 Q52.45 169.05 66.65 208.7 L70.75 205.75 67.4 215.2 62.8 204.8 61.2 202.8 58.65 207.3 40.5 165.4 Q29.95 141.35 17.2 122.9 L17.85 121.9 19.8 118.8 12.6 101.6 16.8 94.6 18.2 91.4 15.65 85.9 Q26.8 70.35 31.2 55.25 M45.4 59.75 L43.75 60.15 39.3 61.25 49.05 53.05 49.2 53.2 53.75 55.3 57.25 56.9 47.0 59.4 45.4 59.75 M64.8 89.55 L73.55 109.75 70.55 113.6 64.65 98.5 64.8 89.55" fill="#22221e" fill-rule="evenodd" stroke="none"/>
    <path d="M55.7 207.25 Q47.8 189.5 36.35 166.95 24.1 142.85 13.65 124.65 15.45 123.75 17.2 122.9 29.95 141.35 40.5 165.4 L58.65 207.3 55.7 207.25 M9.95 87.4 Q21.25 71.05 28.4 54.4 L42.4 43.1 42.35 42.9 Q59.25 36.45 84.4 23.25 L105.3 12.3 105.55 12.95 106.15 14.6 Q98.5 19.2 80.25 29.0 62.05 38.75 44.6 43.75 L44.55 43.8 44.65 43.95 43.6 44.85 31.2 55.25 Q26.8 70.35 15.65 85.9 L12.3 86.8 9.95 87.4" fill="#494941" fill-rule="evenodd" stroke="none"/>
    <path d="M113.2 77.7 L115.9 80.95 117.45 86.95 116.6 87.65 117.85 89.3 117.35 89.55 117.0 89.9 115.55 88.5 105.55 96.8 106.65 98.05 106.35 98.25 106.25 98.35 105.85 98.75 104.65 97.6 103.6 98.45 98.25 96.9 96.1 94.35 96.9 93.7 98.85 95.2 105.45 93.85 110.6 89.75 112.6 83.6 111.85 78.8 113.2 77.7" fill="#525a36" fill-rule="evenodd" stroke="none"/>
    <path d="M113.3 76.1 L113.1 77.55 110.1 79.45 100.1 88.1 96.1 89.75 96.2 88.95 113.3 76.1 M117.65 91.4 Q117.65 90.85 118.1 90.55 118.5 90.2 119.1 90.25 119.6 90.3 119.95 90.75 L120.25 91.7 119.75 92.6 118.75 92.9 118.4 92.75 117.9 92.35 Q117.55 91.95 117.65 91.4 M109.2 100.45 L108.7 101.35 107.75 101.6 Q107.2 101.55 106.9 101.15 L106.85 101.1 Q106.5 100.7 106.6 100.15 106.65 99.6 107.05 99.25 107.5 98.95 108.05 99.0 L108.75 99.3 108.9 99.5 Q109.25 99.9 109.2 100.45" fill="#353a23" fill-rule="evenodd" stroke="none"/>
    <path d="M103.0 73.8 L104.25 71.25 107.8 72.15 107.8 74.15 94.95 84.2 94.85 84.1 94.85 84.3 91.15 87.15 89.55 85.6 90.15 84.35 90.2 84.4 91.85 84.6 92.5 83.0 91.25 82.2 91.3 82.05 92.85 82.45 93.15 81.1 95.15 81.5 96.8 79.9 96.4 79.2 96.9 79.15 96.25 75.85 97.8 74.9 97.75 75.1 100.35 77.7 103.0 75.95 103.0 73.8" fill="#3f4329" fill-rule="evenodd" stroke="none"/>
    <path d="M97.8 74.9 L99.5 71.55 103.0 72.45 103.0 73.8 103.0 75.95 100.35 77.7 97.75 75.1 97.8 74.9 M90.15 84.35 L89.55 83.05 90.9 81.95 91.25 82.2 92.5 83.0 91.85 84.6 90.2 84.4 90.15 84.35 M93.15 81.1 L93.1 81.1 93.15 78.65 95.6 77.85 96.4 79.2 96.8 79.9 95.15 81.5 93.15 81.1 M70.0 92.95 L66.35 90.95 74.15 109.0 76.5 106.85 70.0 92.95 M73.3 112.25 L70.6 115.45 63.95 98.7 64.05 87.45 70.15 91.75 77.5 107.2 74.25 111.1 73.7 109.75 72.7 110.85 73.3 112.25 M64.8 89.55 L64.65 98.5 70.55 113.6 73.55 109.75 64.8 89.55" fill="#6c7346" fill-rule="evenodd" stroke="none"/>
    <path d="M70.0 92.95 L76.5 106.85 74.15 109.0 66.35 90.95 70.0 92.95 M74.25 111.1 L91.0 152.1 Q91.5 151.95 92.1 152.35 93.0 152.95 93.65 154.5 94.25 156.1 94.3 157.7 94.3 159.35 93.65 160.05 L92.1 160.15 Q91.15 159.55 90.55 158.0 89.9 156.4 89.9 154.8 89.85 153.95 90.05 153.35 L73.3 112.25 72.7 110.85 73.7 109.75 74.25 111.1 M92.1 154.65 L91.45 154.6 Q91.15 154.9 91.2 155.65 91.2 156.35 91.5 157.05 L92.2 158.1 Q92.55 158.35 92.85 158.1 L93.1 157.1 92.75 155.65 92.1 154.65" fill="#5b613a" fill-rule="evenodd" stroke="none"/>
    <path d="M109.35 7.4 L124.6 0.0 126.9 4.85 133.6 18.8 129.8 20.95 155.0 86.4 157.8 86.6 163.8 100.6 154.6 109.8 152.25 107.1 149.05 109.7 146.45 118.5 Q152.55 127.65 120.8 140.4 L112.6 142.95 94.8 148.5 98.8 165.7 91.0 183.4 78.0 200.4 74.8 202.75 Q74.95 206.05 74.2 209.9 L76.4 215.6 68.0 232.8 63.6 232.8 53.8 210.4 55.7 207.25 Q47.8 189.5 36.35 166.95 24.1 142.85 13.65 124.65 L10.8 126.0 0.0 107.6 0.0 104.85 0.0 97.8 0.0 95.2 4.4 88.8 9.95 87.4 Q21.25 71.05 28.4 54.4 L42.4 43.1 42.3 42.9 42.35 42.9 Q59.25 36.45 84.4 23.25 L105.3 12.3 104.4 9.8 109.35 7.4 M105.55 12.95 L106.15 14.6 107.0 15.35 110.6 18.6 118.0 15.2 121.6 24.0 126.6 24.0 129.8 20.95 M105.3 12.3 L105.55 12.95 M94.2 30.35 L116.4 19.0 148.45 97.75 149.05 109.7 M59.6 56.6 L82.4 107.2 94.8 148.5 M152.25 107.1 L150.8 103.2 153.6 99.0 150.2 90.8 155.0 86.4 M141.0 95.6 L146.45 118.5 M43.6 44.85 L44.65 43.95 44.55 43.8 M44.65 43.95 L50.8 52.55 94.2 30.35 M43.6 44.85 L49.1 53.05 49.2 53.2 50.8 52.55 M37.5 62.8 L31.2 55.25 M39.3 61.25 L37.5 62.8 33.6 74.4 Q26.85 88.25 15.0 102.0 L17.4 108.2 Q52.45 169.05 66.65 208.7 L70.75 205.75 74.8 202.75 M8.2 96.9 L8.2 96.2 M8.2 96.9 L8.2 100.05 8.2 101.65 8.2 104.0 17.85 121.9 19.8 118.8 12.6 101.6 16.8 94.6 18.2 91.4 15.65 85.9 12.3 86.8 9.95 87.4 M45.4 59.75 L43.75 60.15 39.3 61.25 49.05 53.05 49.1 53.05 M59.6 56.6 L57.25 56.9 47.0 59.4 45.4 59.75 M53.75 55.3 L57.25 56.9 M49.2 53.2 L53.75 55.3 M17.85 121.9 L17.2 122.9 Q15.45 123.75 13.65 124.65 M58.65 207.3 L61.2 202.8 62.8 204.8 67.4 215.2 70.75 205.75 74.2 209.9 M153.6 99.0 L155.2 101.2 153.0 103.2 M53.8 210.4 L59.95 210.15 62.8 204.8 M55.7 207.25 L58.65 207.3" fill="none" stroke="#000000" stroke-linecap="round" stroke-linejoin="round" stroke-opacity="0.24313726" stroke-width="0.25"/>
    <path d="M156.7 88.1 L152.1 91.4" fill="none" stroke="#000000" stroke-linecap="round" stroke-linejoin="round" stroke-opacity="0.52156866" stroke-width="1.0"/>
    <path d="M114.55 24.85 L114.25 25.05" fill="none" stroke="#bcac78" stroke-linecap="round" stroke-linejoin="round" stroke-width="1.0"/>
    <path d="M61.05 74.45 L61.45 73.9 62.0 72.6 59.6 56.6 M61.05 74.45 Q55.25 83.2 54.8 91.9" fill="none" stroke="#f8f2d6" stroke-linecap="round" stroke-linejoin="round" stroke-width="1.0"/>
    <path d="M114.4 25.35 L137.0 80.2 M114.25 25.05 L98.4 34.6 79.4 43.4 M66.1 47.7 L74.6 44.2 115.45 22.1 M43.75 60.15 L42.6 68.2 38.2 78.2 M47.0 59.4 L46.4 64.4 M66.1 47.7 L53.6 52.8 M55.6 58.8 L55.8 64.6 M44.3 93.3 L51.8 79.8 M38.7 94.95 L43.8 86.6 M55.4 154.4 L72.2 196.8 M23.4 100.0 Q46.5 139.65 60.2 174.0 M23.2 99.4 L29.2 93.0 M45.0 93.6 Q59.65 118.0 70.85 142.0 78.55 158.5 84.6 174.8" fill="none" stroke="#5c633d" stroke-linecap="round" stroke-linejoin="round" stroke-width="1.0"/>
    <path d="M123.2 90.0 L123.45 89.85 M111.15 96.9 L111.0 97.05 M117.65 91.4 Q117.65 90.85 118.1 90.55 118.5 90.2 119.1 90.25 119.6 90.3 119.95 90.75 L120.25 91.7 119.75 92.6 118.75 92.9 118.4 92.75 117.9 92.35 Q117.55 91.95 117.65 91.4 M109.2 100.45 L108.7 101.35 107.75 101.6 Q107.2 101.55 106.9 101.15 L106.85 101.1 Q106.5 100.7 106.6 100.15 106.65 99.6 107.05 99.25 107.5 98.95 108.05 99.0 L108.75 99.3 108.9 99.5 Q109.25 99.9 109.2 100.45" fill="none" stroke="#000000" stroke-linecap="round" stroke-linejoin="round" stroke-opacity="0.4" stroke-width="1.0"/>
    <path d="M125.75 91.5 L125.8 91.5 M113.45 98.55 L113.6 98.45" fill="none" stroke="#000000" stroke-linecap="round" stroke-linejoin="round" stroke-opacity="0.4" stroke-width="1.0"/>
    <path d="M87.3 90.05 L86.4 90.75 89.4 94.5 90.8 93.4 89.7 92.0 90.55 91.3 90.35 90.9 89.9 90.3 88.95 91.05 87.85 89.65 87.3 90.05 M90.55 91.3 L90.6 91.25 90.35 90.9 89.35 89.0 110.5 72.25 113.85 75.4 113.3 76.1 113.1 77.55 113.2 77.7 115.9 80.95 117.45 86.95 116.6 87.65 M121.45 91.0 L123.2 90.0 125.8 91.5 127.65 92.6 M123.45 89.85 L132.3 88.1 M96.1 94.35 L93.75 91.65 91.2 92.55 90.55 91.3 M105.85 98.75 L104.65 97.6 103.6 98.45 98.25 96.9 96.1 94.35 M95.95 118.35 L97.1 110.95 97.2 110.85 96.25 110.05 M105.85 98.75 L106.25 98.35 106.35 98.25 106.65 98.05 105.55 96.8 115.55 88.5 M111.0 97.05 L113.6 98.45 115.35 99.4 M109.65 98.4 L109.9 98.75 Q110.55 99.55 110.45 100.65 110.35 101.7 109.5 102.4 108.65 103.05 107.6 102.9 106.6 102.8 105.95 102.1 L97.2 110.85 99.4 112.75 100.55 113.75 M109.65 98.4 L111.0 97.05 109.6 96.3 M106.65 98.05 Q107.35 97.65 108.2 97.8 109.05 97.85 109.65 98.4 M106.35 98.25 L105.85 98.75 Q105.4 99.25 105.35 100.05 105.2 101.1 105.85 101.95 L105.95 102.1 M117.15 93.45 L111.15 96.9 M95.95 118.35 L95.35 122.35 95.45 123.85 97.75 125.8 98.2 126.1 M98.3 134.1 L98.35 134.3 M95.0 132.8 L96.1 133.25 95.45 123.85 94.6 123.15 M98.2 134.05 L98.3 134.1 M98.2 134.05 L96.1 133.25 96.25 135.55" fill="none" stroke="#353a23" stroke-linecap="round" stroke-linejoin="round" stroke-width="1.0"/>
    <path d="M116.6 87.65 L117.85 89.3 119.25 89.05 Q120.3 89.15 120.95 90.0 L121.45 91.0 121.5 91.9 Q121.4 92.95 120.55 93.65 119.7 94.3 118.65 94.2 117.75 94.05 117.15 93.45 L116.9 93.2 Q116.25 92.35 116.4 91.3 116.45 90.45 117.0 89.9 L117.35 89.55 117.85 89.3 M115.55 88.5 L117.0 89.9 M113.6 98.45 L125.75 91.5 M99.4 112.75 L99.4 112.6 113.45 98.55 M125.8 91.5 L134.6 89.75 M97.75 125.8 L97.65 124.05 98.2 120.55 99.4 112.75 M98.2 132.65 L98.3 134.1 M98.35 134.3 L98.45 136.4 98.85 137.0 M97.75 125.8 L98.2 132.65" fill="none" stroke="#353a23" stroke-linecap="round" stroke-linejoin="round" stroke-width="1.0"/>
  </g>
</svg>
