<?xml version="1.0" encoding="UTF-8" standalone="no"?>
<svg xmlns:xlink="http://www.w3.org/1999/xlink" height="170.8px" width="101.35px" xmlns="http://www.w3.org/2000/svg">
  <g transform="matrix(1.0, 0.0, 0.0, 1.0, -207.75, -79.1)">
    <path d="M283.25 80.2 L274.75 86.45 281.3 92.6 285.9 109.95 283.2 126.55 275.4 140.05 275.35 139.3 Q272.0 142.55 270.9 147.0 L264.8 147.55 Q264.3 146.7 264.25 145.65 264.2 144.05 264.6 142.65 L265.85 142.15 Q266.6 142.75 266.2 141.25 L265.75 139.15 263.5 139.05 263.35 139.15 Q260.75 143.95 258.7 148.95 L256.3 149.75 259.35 135.1 260.8 112.75 261.85 96.6 Q262.35 95.5 266.6 89.4 270.1 84.25 283.25 80.2 M207.85 230.9 L207.85 216.15 215.35 206.9 237.6 183.65 248.5 166.25 250.35 168.6 253.05 169.75 255.9 179.75 255.9 186.35 258.5 191.75 254.95 195.8 Q255.55 194.2 255.65 192.25 L252.4 189.5 Q248.4 197.25 244.8 205.75 L244.85 205.95 247.6 205.1 247.9 205.25 Q246.8 207.85 244.9 210.25 L245.2 210.5 233.45 223.4 223.0 230.75 207.85 230.9 M253.6 150.6 L239.6 108.75 236.35 95.5 239.6 90.5 245.35 100.5 251.5 128.2 256.3 149.75 253.6 150.6 M265.8 192.4 L268.05 192.9 261.8 202.35 265.8 192.4 M264.85 178.35 L270.0 179.35 266.1 186.65 264.85 178.35" fill="#c09501" fill-rule="evenodd" stroke="none"/>
    <path d="M270.9 147.0 Q272.0 142.55 275.35 139.3 L275.4 140.05 283.2 126.55 285.9 109.95 281.3 92.6 274.75 86.45 283.25 80.2 294.1 79.2 285.9 85.5 296.65 96.25 296.65 119.25 289.85 128.85 286.1 135.85 275.35 147.1 270.9 147.0 M214.65 241.0 L207.85 230.9 223.0 230.75 233.45 223.4 245.2 210.5 Q251.35 204.2 254.75 196.3 L254.95 195.8 258.5 191.75 255.9 186.35 255.9 179.75 260.4 176.5 263.65 189.0 256.9 203.55 250.9 213.3 239.9 225.8 223.15 238.8 214.65 241.0" fill="#fff3bd" fill-rule="evenodd" stroke="none"/>
    <path d="M258.7 148.95 Q260.75 143.95 263.35 139.15 L263.5 139.05 265.75 139.15 266.2 141.25 Q266.6 142.75 265.85 142.15 L264.6 142.65 Q264.2 144.05 264.25 145.65 264.3 146.7 264.8 147.55 261.7 148.0 258.7 148.95 M275.35 147.1 L286.1 135.85 289.85 128.85 296.65 119.25 296.65 96.25 285.9 85.5 294.1 79.2 Q305.65 79.85 309.0 94.5 L309.0 97.5 298.35 136.85 287.1 152.85 Q282.95 148.85 275.35 147.1 M282.6 163.75 L280.6 167.6 Q275.55 164.35 268.35 161.85 L273.2 157.35 Q279.0 158.0 284.6 159.85 L282.6 163.75 M277.6 177.6 L278.65 189.95 270.75 200.6 273.3 188.85 277.6 177.6 273.3 188.85 266.6 206.4 240.85 235.65 231.35 245.85 215.6 242.4 214.65 241.0 223.15 238.8 239.9 225.8 250.9 213.3 256.9 203.55 263.65 189.0 260.4 176.5 255.9 179.75 253.05 169.75 262.6 173.85 277.6 177.6 M266.5 157.15 L264.35 160.75 Q258.3 159.3 252.3 159.2 259.3 157.35 266.5 157.15 M254.95 195.8 L254.75 196.3 Q251.35 204.2 245.2 210.5 L244.9 210.25 Q246.8 207.85 247.9 205.25 L248.0 204.95 247.85 205.05 247.6 205.1 244.85 205.95 244.8 205.75 Q248.4 197.25 252.4 189.5 L255.65 192.25 Q255.55 194.2 254.95 195.8 M264.85 178.35 L266.1 186.65 270.0 179.35 264.85 178.35 M265.8 192.4 L261.8 202.35 268.05 192.9 265.8 192.4" fill="#ffcc01" fill-rule="evenodd" stroke="none"/>
    <path d="M261.85 96.6 L260.8 112.75 251.5 128.2 245.35 100.5 251.85 100.5 261.85 96.6 M278.65 189.95 L280.4 211.5 268.15 234.05 248.4 249.8 248.4 242.3 268.15 212.3 270.75 200.6 278.65 189.95" fill="#ffe866" fill-rule="evenodd" stroke="none"/>
    <path d="M256.3 149.75 L258.7 148.95 Q261.7 148.0 264.8 147.55 L270.9 147.0 275.35 147.1 Q282.95 148.85 287.1 152.85 289.9 156.15 288.85 159.85 L286.5 162.65 282.6 163.75 284.6 159.85 Q279.0 158.0 273.2 157.35 L270.0 157.1 Q268.25 157.05 266.5 157.15 259.3 157.35 252.3 159.2 258.3 159.3 264.35 160.75 L268.35 161.85 Q275.55 164.35 280.6 167.6 281.4 169.45 281.35 172.25 281.2 175.05 277.6 177.6 L262.6 173.85 253.05 169.75 250.35 168.6 248.5 166.25 246.6 163.85 Q248.1 160.55 250.8 159.55 L249.6 159.85 249.6 156.1 Q250.4 153.15 253.6 150.6 L256.3 149.75 M273.8 149.7 L272.6 148.55 Q270.95 147.45 269.0 147.75 263.05 148.05 257.4 149.7 L257.05 150.1 261.25 149.75 260.55 150.0 Q258.6 150.85 258.8 153.0 259.0 155.05 261.1 155.9 262.7 156.7 264.8 156.35 L271.65 156.15 274.15 155.6 Q275.6 152.55 273.8 149.7 M263.5 162.4 Q258.3 158.55 254.2 162.1 251.15 169.5 260.65 168.55 265.2 167.9 263.7 162.85 L263.5 162.4 M252.3 159.2 L250.8 159.55 252.3 159.2" fill="#d6a70a" fill-rule="evenodd" stroke="none"/>
    <path d="M260.8 112.75 L259.35 135.1 256.3 149.75 251.5 128.2 260.8 112.75 M248.4 242.3 L240.85 235.65 266.6 206.4 273.3 188.85 270.75 200.6 268.15 212.3 248.4 242.3 M264.35 160.75 L266.5 157.15 Q268.25 157.05 270.0 157.1 L273.2 157.35 268.35 161.85 264.35 160.75" fill="#774a02" fill-rule="evenodd" stroke="none"/>
    <path d="M273.8 149.7 Q275.6 152.55 274.15 155.6 L271.65 156.15 264.8 156.35 Q262.7 156.7 261.1 155.9 259.0 155.05 258.8 153.0 258.6 150.85 260.55 150.0 L261.25 149.75 257.05 150.1 257.4 149.7 Q263.05 148.05 269.0 147.75 270.95 147.45 272.6 148.55 L273.8 149.7 M270.0 153.15 L270.25 152.5 Q270.1 150.45 267.9 150.55 265.9 151.25 266.45 153.35 L266.75 153.75 Q268.6 154.75 270.0 153.15 M263.5 162.4 L263.7 162.85 Q265.2 167.9 260.65 168.55 251.15 169.5 254.2 162.1 258.3 158.55 263.5 162.4 M259.0 165.15 Q259.15 166.65 260.85 166.3 261.95 166.1 262.0 164.95 262.15 163.15 260.3 163.05 258.85 163.55 259.0 165.15" fill="#f2d117" fill-rule="evenodd" stroke="none"/>
    <path d="M270.0 153.15 Q268.6 154.75 266.75 153.75 L266.45 153.35 Q265.9 151.25 267.9 150.55 270.1 150.45 270.25 152.5 L270.0 153.15 M259.0 165.15 Q258.85 163.55 260.3 163.05 262.15 163.15 262.0 164.95 261.95 166.1 260.85 166.3 259.15 166.65 259.0 165.15" fill="#ffffff" fill-rule="evenodd" stroke="none"/>
    <path d="M247.6 205.1 L247.85 205.05 248.0 204.95 247.9 205.25 247.6 205.1" fill="#7c9b00" fill-rule="evenodd" stroke="none"/>
    <path d="M283.25 80.2 Q270.1 84.25 266.6 89.4 262.35 95.5 261.85 96.6 L260.8 112.75 259.35 135.1 256.3 149.75 258.7 148.95 Q261.7 148.0 264.8 147.55 L270.9 147.0 275.35 147.1 286.1 135.85 289.85 128.85 296.65 119.25 M294.1 79.2 L283.25 80.2 M294.1 79.2 Q305.65 79.85 309.0 94.5 L309.0 97.5 298.35 136.85 287.1 152.85 Q289.9 156.15 288.85 159.85 L286.5 162.65 282.6 163.75 280.6 167.6 Q281.4 169.45 281.35 172.25 281.2 175.05 277.6 177.6 L278.65 189.95 280.4 211.5 268.15 234.05 248.4 249.8 248.4 242.3 240.85 235.65 231.35 245.85 215.6 242.4 214.65 241.0 207.85 230.9 207.85 216.15 215.35 206.9 237.6 183.65 248.5 166.25 246.6 163.85 Q248.1 160.55 250.8 159.55 L249.6 159.85 249.6 156.1 Q250.4 153.15 253.6 150.6 L239.6 108.75 236.35 95.5 239.6 90.5 245.35 100.5 251.85 100.5 261.85 96.6 M251.5 128.2 L256.3 149.75 253.6 150.6 M251.5 128.2 L245.35 100.5 M264.35 160.75 L268.35 161.85 Q275.55 164.35 280.6 167.6 M273.2 157.35 L270.0 157.1 Q268.25 157.05 266.5 157.15 259.3 157.35 252.3 159.2 258.3 159.3 264.35 160.75 M250.8 159.55 L252.3 159.2 M248.5 166.25 L250.35 168.6 253.05 169.75 262.6 173.85 277.6 177.6 273.3 188.85 270.75 200.6 268.15 212.3 248.4 242.3 M275.35 147.1 Q282.95 148.85 287.1 152.85 M282.6 163.75 L284.6 159.85 Q279.0 158.0 273.2 157.35 M273.3 188.85 L266.6 206.4 240.85 235.65" fill="none" stroke="#000000" stroke-linecap="round" stroke-linejoin="round" stroke-opacity="0.37254903" stroke-width="0.25"/>
  </g>
</svg>
