<?xml version="1.0" encoding="UTF-8" standalone="no"?>
<svg xmlns:xlink="http://www.w3.org/1999/xlink" height="170.85px" width="101.4px" xmlns="http://www.w3.org/2000/svg">
  <g transform="matrix(1.0, 0.0, 0.0, 1.0, 0.1, 0.1)">
    <path d="M88.8 40.1 L88.8 17.1 78.05 6.35 86.25 0.05 Q97.8 0.7 101.15 15.35 L101.15 18.35 100.5 21.2 90.5 57.7 79.25 73.7 Q75.1 69.7 67.5 67.95 L78.25 56.7 82.0 49.7 88.8 40.1 M54.0 17.45 L52.95 33.6 43.65 49.05 37.5 21.35 44.0 21.35 54.0 17.45 M50.85 69.8 Q52.9 64.8 55.5 60.0 L55.65 59.9 57.9 60.0 58.35 62.1 Q58.75 63.6 58.0 63.0 L56.75 63.5 Q56.35 64.9 56.4 66.5 56.45 67.55 56.95 68.4 53.85 68.85 50.85 69.8 M63.05 67.85 Q64.15 63.4 67.5 60.15 67.85 64.5 66.05 67.85 L65.6 67.85 63.05 67.85 M33.0 156.5 L23.5 166.7 7.75 163.25 6.8 161.85 15.3 159.65 32.05 146.65 43.05 134.15 49.05 124.4 55.8 109.85 52.55 97.35 48.05 100.6 45.2 90.6 54.75 94.7 69.75 98.45 65.45 109.7 58.75 127.25 33.0 156.5 M58.25 107.5 L62.15 100.2 57.0 99.2 58.25 107.5 M47.8 113.1 Q47.7 115.35 46.9 117.15 43.1 126.0 35.8 132.85 L37.05 131.1 Q39.05 128.6 40.15 125.8 L39.75 125.95 36.8 126.85 36.95 126.6 Q40.55 118.1 44.55 110.35 L47.8 113.1 M53.95 123.2 L60.2 113.75 57.95 113.25 53.95 123.2" fill="#ddd195" fill-rule="evenodd" stroke="none"/>
    <path d="M86.25 0.05 L78.05 6.35 88.8 17.1 88.8 40.1 82.0 49.7 78.25 56.7 67.5 67.95 66.05 67.85 Q67.85 64.5 67.5 60.15 64.15 63.4 63.05 67.85 L56.95 68.4 Q56.45 67.55 56.4 66.5 56.35 64.9 56.75 63.5 L58.0 63.0 Q58.75 63.6 58.35 62.1 L57.9 60.0 55.65 59.9 55.5 60.0 Q52.9 64.8 50.85 69.8 L48.45 70.6 51.5 55.95 52.95 33.6 54.0 17.45 Q54.5 16.35 58.75 10.25 63.0 4.05 80.0 0.55 L86.25 0.05 M74.75 84.6 L72.75 88.45 Q67.7 85.2 60.5 82.7 52.5 80.2 44.45 80.05 53.15 77.75 62.15 77.95 69.6 78.35 76.75 80.7 L74.75 84.6 M70.8 110.8 L72.55 132.35 60.3 154.9 40.55 170.65 40.55 163.15 60.3 133.15 62.9 121.45 70.8 110.8 M6.8 161.85 L0.0 151.75 0.0 137.0 7.5 127.75 29.75 104.5 40.65 87.1 42.5 89.45 45.2 90.6 48.05 100.6 52.55 97.35 55.8 109.85 49.05 124.4 43.05 134.15 32.05 146.65 15.3 159.65 6.8 161.85 M45.75 71.45 L31.75 29.6 28.5 16.35 31.75 11.35 37.5 21.35 43.65 49.05 48.45 70.6 45.75 71.45 M51.9 101.5 L49.0 101.5 51.9 106.0 51.9 101.5 M58.25 107.5 L57.0 99.2 62.15 100.2 58.25 107.5 M47.8 113.1 L44.55 110.35 Q40.55 118.1 36.95 126.6 L36.8 126.85 39.75 125.95 40.15 125.8 Q39.05 128.6 37.05 131.1 L35.8 132.85 Q43.1 126.0 46.9 117.15 47.7 115.35 47.8 113.1 M53.95 123.2 L57.95 113.25 60.2 113.75 53.95 123.2" fill="#f1eac2" fill-rule="evenodd" stroke="none"/>
    <path d="M52.95 33.6 L51.5 55.95 48.45 70.6 43.65 49.05 52.95 33.6 M40.55 163.15 L33.0 156.5 58.75 127.25 65.45 109.7 62.9 121.45 60.3 133.15 40.55 163.15" fill="#b19b52" fill-rule="evenodd" stroke="none"/>
    <path d="M64.75 69.4 L65.95 70.55 Q67.75 73.4 66.3 76.45 L63.8 77.0 60.2 77.15 56.95 77.2 Q54.85 77.55 53.25 76.75 51.15 75.9 50.95 73.85 50.75 71.7 52.7 70.85 L53.4 70.6 49.2 70.95 49.55 70.55 Q55.2 68.9 61.15 68.6 63.1 68.3 64.75 69.4 M62.15 74.0 L62.4 73.35 Q62.25 71.3 60.05 71.4 58.05 72.1 58.6 74.2 58.65 74.5 58.9 74.6 60.75 75.6 62.15 74.0 M55.65 83.25 L55.85 83.7 Q57.35 88.75 52.8 89.4 43.3 90.35 46.35 82.95 50.45 79.4 55.65 83.25 M52.45 83.9 Q51.0 84.4 51.15 86.0 51.3 87.5 53.0 87.15 54.1 86.95 54.15 85.8 54.3 84.0 52.45 83.9" fill="#f2d117" fill-rule="evenodd" stroke="none"/>
    <path d="M62.15 74.0 Q60.75 75.6 58.9 74.6 58.65 74.5 58.6 74.2 58.05 72.1 60.05 71.4 62.25 71.3 62.4 73.35 L62.15 74.0 M52.45 83.9 Q54.3 84.0 54.15 85.8 54.1 86.95 53.0 87.15 51.3 87.5 51.15 86.0 51.0 84.4 52.45 83.9" fill="#ffffff" fill-rule="evenodd" stroke="none"/>
    <path d="M48.45 70.6 L50.85 69.8 Q53.85 68.85 56.95 68.4 L63.05 67.85 65.6 67.85 66.05 67.85 67.5 67.95 Q75.1 69.7 79.25 73.7 82.05 77.0 81.0 80.7 L78.65 83.5 74.75 84.6 76.75 80.7 Q69.6 78.35 62.15 77.95 53.15 77.75 44.45 80.05 L42.95 80.4 44.45 80.05 Q52.5 80.2 60.5 82.7 67.7 85.2 72.75 88.45 73.55 90.3 73.5 93.1 73.35 95.9 69.75 98.45 L54.75 94.7 45.2 90.6 42.5 89.45 40.65 87.1 38.75 84.7 Q40.25 81.4 42.95 80.4 L41.75 80.7 41.75 76.95 Q42.55 74.0 45.75 71.45 L48.45 70.6 M64.75 69.4 Q63.1 68.3 61.15 68.6 55.2 68.9 49.55 70.55 L49.2 70.95 53.4 70.6 52.7 70.85 Q50.75 71.7 50.95 73.85 51.15 75.9 53.25 76.75 54.85 77.55 56.95 77.2 L60.2 77.15 63.8 77.0 66.3 76.45 Q67.75 73.4 65.95 70.55 L64.75 69.4 M55.65 83.25 Q50.45 79.4 46.35 82.95 43.3 90.35 52.8 89.4 57.35 88.75 55.85 83.7 L55.65 83.25" fill="#d6a70a" fill-rule="evenodd" stroke="none"/>
    <path d="M69.75 98.45 L70.8 110.8 62.9 121.45 65.45 109.7 69.75 98.45 M51.9 101.5 L51.9 106.0 49.0 101.5 51.9 101.5" fill="#e9dfad" fill-rule="evenodd" stroke="none"/>
    <path d="M86.25 0.05 L80.0 0.55 Q63.0 4.05 58.75 10.25 54.5 16.35 54.0 17.45 L52.95 33.6 51.5 55.95 48.45 70.6 50.85 69.8 Q53.85 68.85 56.95 68.4 L63.05 67.85 65.6 67.85 66.05 67.85 67.5 67.95 78.25 56.7 82.0 49.7 88.8 40.1 M86.25 0.05 Q97.8 0.7 101.15 15.35 L101.15 18.35 100.5 21.2 90.5 57.7 79.25 73.7 Q82.05 77.0 81.0 80.7 L78.65 83.5 74.75 84.6 72.75 88.45 Q73.55 90.3 73.5 93.1 73.35 95.9 69.75 98.45 L70.8 110.8 72.55 132.35 60.3 154.9 40.55 170.65 40.55 163.15 33.0 156.5 23.5 166.7 7.75 163.25 6.8 161.85 0.0 151.75 0.0 137.0 7.5 127.75 29.75 104.5 40.65 87.1 38.75 84.7 Q40.25 81.4 42.95 80.4 L41.75 80.7 41.75 76.95 Q42.55 74.0 45.75 71.45 L31.75 29.6 28.5 16.35 31.75 11.35 37.5 21.35 44.0 21.35 54.0 17.45 M67.5 67.95 Q75.1 69.7 79.25 73.7 M45.75 71.45 L48.45 70.6 43.65 49.05 37.5 21.35 M42.95 80.4 L44.45 80.05 Q53.15 77.75 62.15 77.95 69.6 78.35 76.75 80.7 L74.75 84.6 M40.65 87.1 L42.5 89.45 45.2 90.6 54.75 94.7 69.75 98.45 65.45 109.7 62.9 121.45 60.3 133.15 40.55 163.15 M44.45 80.05 Q52.5 80.2 60.5 82.7 67.7 85.2 72.75 88.45 M65.45 109.7 L58.75 127.25 33.0 156.5" fill="none" stroke="#000000" stroke-linecap="round" stroke-linejoin="round" stroke-opacity="0.37254903" stroke-width="0.25"/>
  </g>
</svg>
