<?xml version="1.0" encoding="UTF-8" standalone="no"?>
<svg xmlns:xlink="http://www.w3.org/1999/xlink" height="109.6px" width="206.55px" xmlns="http://www.w3.org/2000/svg">
  <g transform="matrix(1.0, 0.0, 0.0, 1.0, -159.65, -107.85)">
    <path d="M317.15 143.25 Q331.2 146.8 339.25 151.5 L327.75 157.0 Q337.8 162.55 341.75 169.0 L357.25 167.0 Q360.4 177.8 350.9 185.8 L348.45 184.45 Q356.35 177.0 355.75 169.0 L339.5 171.25 Q336.35 164.0 323.5 157.0 L335.75 151.75 Q329.1 148.2 318.15 145.6 L317.15 143.25 M244.45 204.25 L246.25 205.65 245.75 209.5 Q228.4 209.4 212.75 205.25 L219.0 197.75 199.25 193.25 191.75 199.25 Q188.4 197.65 185.5 195.95 L184.4 193.05 Q187.4 194.8 191.25 196.25 L199.25 190.5 222.5 196.0 216.75 204.0 Q228.9 207.55 244.0 207.25 L244.45 204.25 M184.8 179.65 L187.5 183.0 183.6 184.8 183.8 183.3 184.5 183.0 184.0 182.45 184.8 179.65" fill="#dfd897" fill-rule="evenodd" stroke="none"/>
    <path d="M350.9 185.8 Q360.4 177.8 357.25 167.0 L341.75 169.0 Q337.8 162.55 327.75 157.0 L339.25 151.5 Q331.2 146.8 317.15 143.25 L316.55 142.15 316.0 141.1 314.7 138.85 314.7 138.8 314.6 138.65 317.85 139.5 Q326.35 141.75 334.05 144.75 365.6 157.1 366.1 174.4 L366.1 175.5 Q365.85 183.4 359.1 190.3 L350.9 185.8 M246.25 205.65 L260.8 217.35 256.75 217.35 Q219.05 217.2 195.45 209.0 188.4 202.45 185.5 195.95 188.4 197.65 191.75 199.25 L199.25 193.25 219.0 197.75 212.75 205.25 Q228.4 209.4 245.75 209.5 L246.25 205.65 M183.8 183.3 L184.0 182.45 184.5 183.0 183.8 183.3 M192.9 151.1 Q194.8 152.9 197.25 154.55 196.95 155.25 196.95 155.8 L197.25 154.55 202.55 157.45 Q206.35 159.2 211.05 160.6 L215.8 161.85 Q207.0 161.95 202.3 165.75 194.2 171.5 216.6 185.7 L210.1 183.45 Q205.4 181.6 201.85 179.6 L196.85 176.2 Q193.0 173.0 191.65 169.4 L191.45 168.8 191.15 167.45 190.95 165.8 190.95 165.15 190.95 164.7 Q191.05 158.45 192.45 152.75 L192.9 151.1 M317.2 148.25 L318.55 146.7 319.55 149.45 Q321.9 156.85 321.95 165.15 L321.95 165.8 Q321.9 167.7 321.2 169.55 321.2 158.9 317.2 148.25" fill="#f4ab02" fill-rule="evenodd" stroke="none"/>
    <path d="M348.45 184.45 L350.9 185.8 Q347.25 188.85 341.75 191.5 L329.0 186.5 Q320.3 192.3 305.25 196.0 L310.0 203.75 Q294.3 208.6 274.75 208.25 L273.5 201.5 246.75 201.5 246.25 205.65 244.45 204.25 245.25 198.75 275.5 198.75 277.0 205.5 Q290.6 206.45 306.75 202.25 L301.75 195.0 Q317.7 190.65 328.75 184.25 L342.75 189.0 348.45 184.45 M185.5 195.95 Q178.55 191.85 174.25 187.0 L183.8 183.3 183.6 184.8 177.75 187.5 Q180.25 190.55 184.4 193.05 L185.5 195.95 M184.0 182.45 Q176.8 174.4 177.75 164.75 L166.5 164.75 Q164.85 151.15 168.75 135.75 L179.75 143.25 Q181.45 132.35 186.75 125.75 L182.75 114.5 Q194.85 114.15 203.0 125.75 L201.6 131.0 202.85 132.3 201.85 133.55 199.0 132.0 201.0 126.0 Q194.0 117.25 186.25 116.75 L190.0 126.5 Q183.35 130.9 180.5 146.75 L170.0 139.0 Q167.7 150.4 168.5 162.75 L179.75 162.75 Q178.6 171.2 184.8 179.65 L184.0 182.45" fill="#d1c669" fill-rule="evenodd" stroke="none"/>
    <path d="M350.9 185.8 L359.1 190.3 Q351.1 198.35 334.05 204.95 303.5 216.95 260.8 217.35 L246.25 205.65 246.75 201.5 273.5 201.5 274.75 208.25 Q294.3 208.6 310.0 203.75 L305.25 196.0 Q320.3 192.3 329.0 186.5 L341.75 191.5 Q347.25 188.85 350.9 185.8 M321.2 169.55 Q320.35 171.75 318.5 173.85 L313.55 178.1 Q309.2 180.95 302.75 183.45 296.0 186.1 288.25 187.8 L276.1 189.85 256.45 190.95 234.8 189.6 225.95 188.1 Q221.1 187.1 216.6 185.7 194.2 171.5 202.3 165.75 207.0 161.95 215.8 161.85 L227.35 163.95 235.95 164.85 254.5 165.7 274.5 164.9 286.1 163.2 Q300.75 160.25 310.3 153.9 L315.05 150.25 317.2 148.25 Q321.2 158.9 321.2 169.55 M208.5 126.25 Q205.4 129.15 202.85 132.3 L201.6 131.0 203.0 125.75 Q194.85 114.15 182.75 114.5 L186.75 125.75 Q181.45 132.35 179.75 143.25 L168.75 135.75 Q164.85 151.15 166.5 164.75 L177.75 164.75 Q176.8 174.4 184.0 182.45 L183.8 183.3 174.25 187.0 Q178.55 191.85 185.5 195.95 188.4 202.45 195.45 209.0 190.65 207.35 186.5 205.35 161.5 193.5 159.75 164.75 162.0 118.95 175.75 110.3 188.1 102.65 208.5 126.25" fill="#cc9900" fill-rule="evenodd" stroke="none"/>
    <path d="M348.45 184.45 L342.75 189.0 328.75 184.25 Q317.7 190.65 301.75 195.0 L306.75 202.25 Q290.6 206.45 277.0 205.5 L275.5 198.75 245.25 198.75 244.45 204.25 225.95 188.1 234.8 189.6 256.45 190.95 276.1 189.85 288.25 187.8 Q296.0 186.1 302.75 183.45 309.2 180.95 313.55 178.1 L318.5 173.85 Q320.35 171.75 321.2 169.55 L348.45 184.45 M201.85 133.55 L201.1 134.5 198.25 138.8 Q196.55 141.5 195.3 144.4 L193.9 147.75 192.9 151.1 192.45 152.75 Q191.05 158.45 190.95 164.7 L190.95 165.15 190.95 165.8 191.15 167.45 191.45 168.8 Q186.65 174.2 184.8 179.65 178.6 171.2 179.75 162.75 L168.5 162.75 Q167.7 150.4 170.0 139.0 L180.5 146.75 Q183.35 130.9 190.0 126.5 L186.25 116.75 Q194.0 117.25 201.0 126.0 L199.0 132.0 201.85 133.55 M211.05 160.6 Q221.85 158.35 230.4 155.2 L233.0 154.15 Q265.45 140.9 261.25 110.75 282.65 112.5 296.7 122.3 310.7 132.05 317.2 148.25 L315.05 150.25 310.3 153.9 Q300.75 160.25 286.1 163.2 L274.5 164.9 254.5 165.7 235.95 164.85 227.35 163.95 215.8 161.85 211.05 160.6 M183.6 184.8 Q183.2 188.9 184.4 193.05 180.25 190.55 177.75 187.5 L183.6 184.8" fill="#996633" fill-rule="evenodd" stroke="none"/>
    <path d="M318.15 145.6 Q329.1 148.2 335.75 151.75 L323.5 157.0 Q336.35 164.0 339.5 171.25 L355.75 169.0 Q356.35 177.0 348.45 184.45 L321.2 169.55 Q321.9 167.7 321.95 165.8 L321.95 165.15 Q321.9 156.85 319.55 149.45 L318.55 146.7 317.2 148.25 Q310.7 132.05 296.7 122.3 282.65 112.5 261.25 110.75 265.45 140.9 233.0 154.15 L230.4 155.2 Q221.85 158.35 211.05 160.6 206.35 159.2 202.55 157.45 L197.25 154.55 Q194.8 152.9 192.9 151.1 L193.9 147.75 195.3 144.4 Q196.55 141.5 198.25 138.8 L201.1 134.5 201.85 133.55 202.85 132.3 Q205.4 129.15 208.5 126.25 L210.1 124.75 Q229.3 107.95 256.45 107.95 283.6 107.95 302.75 124.75 309.1 130.35 313.4 136.75 L314.6 138.65 314.7 138.8 314.7 138.85 316.0 141.1 316.55 142.15 317.85 144.9 318.5 146.55 318.55 146.7 318.5 146.55 318.15 145.6 M225.95 188.1 L244.45 204.25 244.0 207.25 Q228.9 207.55 216.75 204.0 L222.5 196.0 199.25 190.5 191.25 196.25 Q187.4 194.8 184.4 193.05 183.2 188.9 183.6 184.8 L187.5 183.0 184.8 179.65 Q186.65 174.2 191.45 168.8 L191.65 169.4 Q193.0 173.0 196.85 176.2 L201.85 179.6 Q205.4 181.6 210.1 183.45 L216.6 185.7 Q221.1 187.1 225.95 188.1 M197.25 154.55 L196.95 155.8 Q196.95 155.25 197.25 154.55" fill="#ca9662" fill-rule="evenodd" stroke="none"/>
    <path d="M359.1 190.3 Q365.85 183.4 366.1 175.5 L366.1 174.4 Q365.6 157.1 334.05 144.75 326.35 141.75 317.85 139.5 L314.6 138.65 314.7 138.8 314.7 138.85 316.0 141.1 316.55 142.15 317.85 144.9 318.5 146.55 318.55 146.7 317.2 148.25 315.05 150.25 310.3 153.9 Q300.75 160.25 286.1 163.2 L274.5 164.9 254.5 165.7 235.95 164.85 227.35 163.95 215.8 161.85 211.05 160.6 Q206.35 159.2 202.55 157.45 L197.25 154.55 Q194.8 152.9 192.9 151.1 L193.9 147.75 195.3 144.4 Q196.55 141.5 198.25 138.8 L201.1 134.5 201.85 133.55 202.85 132.3 Q205.4 129.15 208.5 126.25 188.1 102.65 175.75 110.3 162.0 118.95 159.75 164.75 161.5 193.5 186.5 205.35 190.65 207.35 195.45 209.0 219.05 217.2 256.75 217.35 L260.8 217.35 Q303.5 216.95 334.05 204.95 351.1 198.35 359.1 190.3 M321.2 169.55 Q320.35 171.75 318.5 173.85 L313.55 178.1 Q309.2 180.95 302.75 183.45 296.0 186.1 288.25 187.8 L276.1 189.85 256.45 190.95 234.8 189.6 225.95 188.1 Q221.1 187.1 216.6 185.7 L210.1 183.45 Q205.4 181.6 201.85 179.6 L196.85 176.2 Q193.0 173.0 191.65 169.4 L191.45 168.8 191.15 167.45 190.95 165.8 190.95 165.15 190.95 164.7 Q191.05 158.45 192.45 152.75 L192.9 151.1 M208.5 126.25 L210.1 124.75 Q229.3 107.95 256.45 107.95 283.6 107.95 302.75 124.75 309.1 130.35 313.4 136.75 L314.6 138.65 M321.2 169.55 Q321.9 167.7 321.95 165.8 L321.95 165.15 Q321.9 156.85 319.55 149.45 L318.55 146.7" fill="none" stroke="#330000" stroke-linecap="round" stroke-linejoin="round" stroke-opacity="0.4117647" stroke-width="0.2"/>
  </g>
</svg>
