<?xml version="1.0" encoding="UTF-8" standalone="no"?>
<svg xmlns:xlink="http://www.w3.org/1999/xlink" height="85.4px" width="49.0px" xmlns="http://www.w3.org/2000/svg">
  <g transform="matrix(1.0, 0.0, 0.0, 1.0, 24.5, 42.65)">
    <path d="M-10.5 7.5 L-10.3 7.85 -15.05 21.8 -18.45 29.8 -10.5 7.5 M-18.5 29.95 L-16.95 27.7 -18.9 31.1 -10.65 35.65 -12.2 40.0 -24.45 33.45 -18.9 31.1 -18.5 29.95 M-1.4 37.35 L1.4 42.7 -12.2 40.0 -10.65 35.65 -1.4 37.35" fill="#e1e1e1" fill-rule="evenodd" stroke="none"/>
    <path d="M2.9 4.05 L1.85 7.0 -0.15 6.3 -2.15 5.6 -1.05 2.65 2.9 4.05" fill="#58382b" fill-rule="evenodd" stroke="none"/>
    <path d="M-18.45 29.8 L-15.05 21.8 -10.3 7.85 -10.5 7.5 -8.9 3.15 -3.8 5.0 -2.75 13.6 -10.65 35.65 -18.9 31.1 -16.95 27.7 -18.5 29.95 -18.45 29.8" fill="#402d02" fill-rule="evenodd" stroke="none"/>
    <path d="M-10.65 35.65 L-2.75 13.6 3.7 7.65 8.6 9.4 -1.4 37.35 -10.65 35.65" fill="#ff0b0b" fill-rule="evenodd" stroke="none"/>
    <path d="M-2.75 13.6 L-3.8 5.0 -2.15 5.6 -0.15 6.3 1.85 7.0 3.7 7.65 -2.75 13.6 -0.15 6.3 -2.75 13.6" fill="#f8d825" fill-rule="evenodd" stroke="none"/>
    <path d="M-18.45 29.8 L-18.5 29.95 -18.9 31.1 -24.45 33.45 -12.2 40.0 1.4 42.7 -1.4 37.35 8.6 9.4 3.7 7.65 1.85 7.0 -0.15 6.3 -2.75 13.6 -10.65 35.65 -12.2 40.0 M-3.8 5.0 L-8.9 3.15 -10.5 7.5 -18.45 29.8 M2.9 4.05 L1.85 7.0 M-3.8 5.0 L-2.15 5.6 -1.05 2.65 M-2.15 5.6 L-0.15 6.3" fill="none" stroke="#69513b" stroke-linecap="round" stroke-linejoin="round" stroke-width="0.1"/>
    <path d="M0.5 3.3 L12.3 -30.5 9.35 -37.6 12.95 -32.65 16.05 -32.7 20.85 -32.25 20.85 -32.2 13.3 -30.9 1.35 3.5 0.5 3.3 M12.25 -38.8 L23.15 -37.65 23.95 -37.15 23.1 -34.1 22.6 -35.05 21.2 -35.8 12.25 -38.8" fill="#f4bd00" fill-rule="evenodd" stroke="none"/>
    <path d="M22.85 -31.95 L22.75 -31.9 22.3 -31.5 21.6 -32.5 21.3 -32.5 20.85 -32.25 16.05 -32.7 20.4 -33.25 21.2 -35.8 22.6 -35.05 23.1 -34.1 22.2 -32.8 22.85 -31.95" fill="#fdde02" fill-rule="evenodd" stroke="none"/>
    <path d="M-0.15 3.1 L11.65 -31.1 7.15 -37.55 9.5 -42.65 23.15 -37.65 12.25 -38.8 10.05 -39.75 9.35 -37.6 12.3 -30.5 0.5 3.3 -0.15 3.1 M23.95 -37.15 L24.5 -37.05 22.85 -32.0 22.85 -31.95 22.2 -32.8 23.1 -34.1 23.95 -37.15" fill="#bb8d04" fill-rule="evenodd" stroke="none"/>
    <path d="M22.3 -31.5 L14.25 -30.4 2.2 3.75 1.35 3.5 13.3 -30.9 20.85 -32.2 20.85 -32.25 21.3 -32.5 21.6 -32.5 22.3 -31.5" fill="#fbcd64" fill-rule="evenodd" stroke="none"/>
    <path d="M23.15 -37.65 L9.5 -42.65 7.15 -37.55 11.65 -31.1 -0.15 3.1 M9.35 -37.6 L10.05 -39.75 12.25 -38.8 21.2 -35.8 20.4 -33.25 16.05 -32.7 12.95 -32.65 9.35 -37.6 M23.15 -37.65 L23.95 -37.15 24.5 -37.05 22.85 -32.0 22.85 -31.95 22.75 -31.9 22.3 -31.5 14.25 -30.4 2.2 3.75" fill="none" stroke="#644b02" stroke-linecap="round" stroke-linejoin="round" stroke-width="0.05"/>
  </g>
</svg>
