<?xml version="1.0" encoding="UTF-8" standalone="no"?>
<svg xmlns:xlink="http://www.w3.org/1999/xlink" height="56.6px" width="54.15px" xmlns="http://www.w3.org/2000/svg">
  <g transform="matrix(1.0, 0.0, 0.0, 1.0, -329.5, -136.1)">
    <path d="M329.5 155.2 L330.55 154.55 Q340.25 148.1 345.75 136.5 L347.8 136.1 348.1 136.4 Q352.45 141.1 357.35 145.3 L354.1 147.85 354.1 150.0 357.8 152.85 365.95 158.95 369.7 154.65 Q375.9 158.7 382.7 162.15 L382.8 162.15 383.65 162.55 382.7 163.35 382.55 163.45 380.9 164.95 371.85 172.9 367.35 183.85 341.85 162.25 329.5 155.2 M358.4 154.65 L352.4 153.95 346.4 155.9 344.6 158.5 346.4 155.9 352.4 153.95 358.4 154.65 M345.1 159.95 Q345.1 162.15 347.65 163.75 350.15 165.3 353.8 165.3 357.35 165.3 359.85 163.75 362.4 162.15 362.4 159.95 362.4 157.65 359.85 156.1 357.35 154.55 353.8 154.55 350.15 154.55 347.65 156.1 345.1 157.65 345.1 159.95 M363.3 160.1 L362.4 163.1 358.75 165.4 351.35 165.55 358.75 165.4 362.4 163.1 363.3 160.1 M370.95 163.85 L368.9 167.75 366.8 171.65 360.7 171.65 366.8 171.65 368.9 167.75 370.95 163.85 M369.9 163.85 L366.3 170.75 360.95 170.75 366.3 170.75 369.9 163.85 M374.85 164.8 L370.35 166.45 374.85 164.8 M374.6 165.75 L368.9 167.75 374.6 165.75" fill="url(#gradient0)" fill-rule="evenodd" stroke="none"/>
    <path d="M345.1 159.95 Q345.1 157.65 347.65 156.1 350.15 154.55 353.8 154.55 357.35 154.55 359.85 156.1 362.4 157.65 362.4 159.95 362.4 162.15 359.85 163.75 357.35 165.3 353.8 165.3 350.15 165.3 347.65 163.75 345.1 162.15 345.1 159.95 M357.75 159.4 Q356.35 159.55 355.4 160.2 355.6 160.5 356.2 160.8 356.9 161.15 357.4 161.65 356.5 162.15 355.35 162.45 353.4 162.95 352.1 163.8 354.3 164.7 357.2 163.75 362.2 162.15 358.0 159.4 L358.25 159.35 357.75 159.4 M355.3 156.2 L354.8 156.2 Q353.7 156.6 354.2 157.35 355.0 157.9 356.15 157.65 L356.5 157.2 Q356.35 156.35 355.3 156.2" fill="url(#gradient1)" fill-rule="evenodd" stroke="none"/>
    <path d="M368.35 192.7 Q360.8 185.65 353.1 179.6 346.5 174.35 339.8 169.85 L332.2 164.95 329.5 155.2 367.35 183.85 368.35 192.7" fill="url(#gradient2)" fill-rule="evenodd" stroke="none"/>
    <path d="M329.5 155.2 L341.85 162.25 367.35 183.85 329.5 155.2" fill="url(#gradient3)" fill-rule="evenodd" stroke="none"/>
    <path d="M357.35 145.3 L357.7 145.6 354.1 150.0 354.1 147.85 357.35 145.3" fill="url(#gradient4)" fill-rule="evenodd" stroke="none"/>
    <path d="M357.7 145.6 L359.8 150.6 357.8 152.85 354.1 150.0 357.7 145.6" fill="url(#gradient5)" fill-rule="evenodd" stroke="none"/>
    <path d="M355.3 156.2 Q356.35 156.35 356.5 157.2 L356.15 157.65 Q355.0 157.9 354.2 157.35 353.7 156.6 354.8 156.2 L355.3 156.2 M357.75 159.4 L358.25 159.35 358.0 159.4 Q362.2 162.15 357.2 163.75 354.3 164.7 352.1 163.8 353.4 162.95 355.35 162.45 356.5 162.15 357.4 161.65 356.9 161.15 356.2 160.8 355.6 160.5 355.4 160.2 356.35 159.55 357.75 159.4" fill="#fdfdbd" fill-rule="evenodd" stroke="none"/>
    <path d="M367.35 183.85 L371.85 172.9 380.9 164.95 Q372.65 172.75 367.35 183.85" fill="url(#gradient6)" fill-rule="evenodd" stroke="none"/>
    <path d="M329.5 155.2 L330.55 154.55 Q340.25 148.1 345.75 136.5 L347.8 136.1 348.1 136.4 Q352.45 141.1 357.35 145.3 L357.7 145.6 359.8 150.6 357.8 152.85 365.95 158.95 369.7 154.65 Q375.9 158.7 382.7 162.15 L382.8 162.15 383.65 162.55 M368.35 192.7 Q360.8 185.65 353.1 179.6 346.5 174.35 339.8 169.85 L332.2 164.95 329.5 155.2" fill="none" stroke="#f9ae79" stroke-linecap="round" stroke-linejoin="round" stroke-width="0.05"/>
    <path d="M344.6 158.5 L346.4 155.9 352.4 153.95 358.4 154.65" fill="none" stroke="#f4763e" stroke-linecap="round" stroke-linejoin="round" stroke-width="0.05"/>
    <path d="M345.1 159.95 Q345.1 162.15 347.65 163.75 350.15 165.3 353.8 165.3 357.35 165.3 359.85 163.75 362.4 162.15 362.4 159.95 362.4 157.65 359.85 156.1 357.35 154.55 353.8 154.55 350.15 154.55 347.65 156.1 345.1 157.65 345.1 159.95" fill="none" stroke="#f3653b" stroke-linecap="round" stroke-linejoin="round" stroke-opacity="0.36078432" stroke-width="0.05"/>
    <path d="M354.1 150.0 L357.7 145.6 M354.1 150.0 L357.8 152.85" fill="none" stroke="#000000" stroke-linecap="round" stroke-linejoin="round" stroke-opacity="0.23137255" stroke-width="0.05"/>
    <path d="M351.35 165.55 L358.75 165.4 362.4 163.1 363.3 160.1" fill="none" stroke="#f8e561" stroke-linecap="round" stroke-linejoin="round" stroke-width="0.05"/>
    <path d="M360.7 171.65 L366.8 171.65 368.9 167.75 370.95 163.85 M368.9 167.75 L374.6 165.75" fill="none" stroke="#f9ae79" stroke-linecap="round" stroke-linejoin="round" stroke-width="0.05"/>
    <path d="M383.65 162.55 L383.65 173.4 382.7 174.05 Q373.8 181.1 368.35 192.7 L367.35 183.85 Q372.65 172.75 380.9 164.95 L382.55 163.45 382.7 163.35 383.65 162.55 M329.5 155.2 L367.35 183.85" fill="none" stroke="#000000" stroke-linecap="round" stroke-linejoin="round" stroke-opacity="0.23137255" stroke-width="0.05"/>
    <path d="M360.95 170.75 L366.3 170.75 369.9 163.85 M370.35 166.45 L374.85 164.8" fill="none" stroke="#e04a1f" stroke-linecap="round" stroke-linejoin="round" stroke-width="0.05"/>
  </g>
  <defs>
    <radialGradient cx="0" cy="0" gradientTransform="matrix(0.0602, 0.0, 0.0, 0.0602, 366.25, 179.85)" gradientUnits="userSpaceOnUse" id="gradient0" r="819.2" spreadMethod="pad">
      <stop offset="0.00392156862745098" stop-color="#f46b3c"/>
      <stop offset="0.5686274509803921" stop-color="#f9a648"/>
      <stop offset="1.0" stop-color="#f8ec64"/>
    </radialGradient>
    <radialGradient cx="0" cy="0" gradientTransform="matrix(-0.0174, 0.0, 0.0, 0.0108, 357.1, 157.2)" gradientUnits="userSpaceOnUse" id="gradient1" r="819.2" spreadMethod="pad">
      <stop offset="0.0" stop-color="#f8f468"/>
      <stop offset="0.48627450980392156" stop-color="#fbb64b"/>
      <stop offset="1.0" stop-color="#f35f3a"/>
    </radialGradient>
    <radialGradient cx="0" cy="0" gradientTransform="matrix(0.0608, 0.0, 0.0, 0.0608, 331.0, 160.55)" gradientUnits="userSpaceOnUse" id="gradient2" r="819.2" spreadMethod="pad">
      <stop offset="0.027450980392156862" stop-color="#d3330c"/>
      <stop offset="0.43529411764705883" stop-color="#f46b3c"/>
      <stop offset="1.0" stop-color="#f9a648"/>
    </radialGradient>
    <radialGradient cx="0" cy="0" gradientTransform="matrix(0.0602, 0.0, 0.0, 0.0602, 366.25, 179.85)" gradientUnits="userSpaceOnUse" id="gradient3" r="819.2" spreadMethod="pad">
      <stop offset="0.027450980392156862" stop-color="#d3330c"/>
      <stop offset="0.30196078431372547" stop-color="#f46b3c"/>
      <stop offset="0.6784313725490196" stop-color="#f9a648"/>
      <stop offset="1.0" stop-color="#f8ea63"/>
    </radialGradient>
    <radialGradient cx="0" cy="0" gradientTransform="matrix(0.0055, 0.0, 0.0, 0.0055, 354.8, 149.0)" gradientUnits="userSpaceOnUse" id="gradient4" r="819.2" spreadMethod="pad">
      <stop offset="0.027450980392156862" stop-color="#d3330c"/>
      <stop offset="0.30196078431372547" stop-color="#f46b3c"/>
      <stop offset="0.6784313725490196" stop-color="#f9a648"/>
      <stop offset="1.0" stop-color="#f8ea63"/>
    </radialGradient>
    <radialGradient cx="0" cy="0" gradientTransform="matrix(0.0074, 0.0, 0.0, 0.0074, 358.85, 151.55)" gradientUnits="userSpaceOnUse" id="gradient5" r="819.2" spreadMethod="pad">
      <stop offset="0.027450980392156862" stop-color="#d3330c"/>
      <stop offset="0.30196078431372547" stop-color="#f46b3c"/>
      <stop offset="0.6784313725490196" stop-color="#f9a648"/>
      <stop offset="1.0" stop-color="#f8ea63"/>
    </radialGradient>
    <radialGradient cx="0" cy="0" gradientTransform="matrix(0.0149, 0.0, 0.0, 0.0149, 373.0, 173.05)" gradientUnits="userSpaceOnUse" id="gradient6" r="819.2" spreadMethod="pad">
      <stop offset="0.027450980392156862" stop-color="#d3330c"/>
      <stop offset="0.30196078431372547" stop-color="#f46b3c"/>
      <stop offset="0.6784313725490196" stop-color="#f9a648"/>
      <stop offset="1.0" stop-color="#f8ea63"/>
    </radialGradient>
  </defs>
</svg>
