<?xml version="1.0" encoding="UTF-8" standalone="no"?>
<svg xmlns:xlink="http://www.w3.org/1999/xlink" height="128.05px" width="132.7px" xmlns="http://www.w3.org/2000/svg">
  <g transform="matrix(1.0, 0.0, 0.0, 1.0, -203.95, -83.05)">
    <path d="M336.4 171.0 L336.35 171.15 336.25 171.4 Q328.2 194.95 274.35 205.35 L256.6 206.35 247.6 206.4 Q223.75 205.8 212.55 198.6 242.8 208.2 264.2 194.15 299.55 162.55 264.05 124.7 255.4 116.95 258.4 112.45 269.95 99.85 264.25 86.1 270.0 91.0 275.1 104.15 277.2 108.8 284.35 112.8 297.8 115.95 309.8 125.35 331.8 142.55 336.35 170.65 L336.4 171.0" fill="#ffcc00" fill-rule="evenodd" stroke="none"/>
    <path d="M336.25 171.4 L336.45 171.5 Q337.95 182.95 320.1 194.05 302.1 205.15 274.9 209.25 264.2 210.85 254.6 211.0 255.25 209.25 249.8 209.15 218.75 208.5 208.45 195.3 210.2 197.15 212.55 198.6 223.75 205.8 247.6 206.4 L256.6 206.35 274.35 205.35 Q328.2 194.95 336.25 171.4" fill="#d2d202" fill-rule="evenodd" stroke="none"/>
    <path d="M212.55 198.6 Q210.2 197.15 208.45 195.3 206.35 193.3 205.0 190.8 L204.85 190.55 Q200.85 162.2 216.85 139.25 226.45 125.5 240.0 118.5 244.85 111.75 246.0 98.75 247.1 85.7 255.85 83.25 260.2 82.6 264.25 86.1 269.95 99.85 258.4 112.45 255.4 116.95 264.05 124.7 299.55 162.55 264.2 194.15 242.8 208.2 212.55 198.6" fill="#ffff00" fill-rule="evenodd" stroke="none"/>
    <path d="M208.45 195.3 Q218.75 208.5 249.8 209.15 255.25 209.25 254.6 211.0 239.6 211.2 227.15 207.95 206.95 202.6 204.95 191.2 L204.9 190.9 205.0 190.8 Q206.35 193.3 208.45 195.3" fill="#ffff99" fill-rule="evenodd" stroke="none"/>
    <path d="M336.45 171.5 L336.4 171.2 336.4 171.0 336.35 171.15 336.25 171.4 M254.6 211.0 Q264.2 210.85 274.9 209.25 302.1 205.15 320.1 194.05 337.95 182.95 336.45 171.5 M336.4 171.0 L336.35 170.65 Q331.8 142.55 309.8 125.35 297.8 115.95 284.35 112.8 277.2 108.8 275.1 104.15 270.0 91.0 264.25 86.1 260.2 82.6 255.85 83.25 247.1 85.7 246.0 98.75 244.85 111.75 240.0 118.5 226.45 125.5 216.85 139.25 200.85 162.2 204.85 190.55 L205.0 190.8 M204.9 190.9 L204.95 191.2 Q206.95 202.6 227.15 207.95 239.6 211.2 254.6 211.0 M204.9 190.9 L204.85 190.55" fill="none" stroke="#2d0000" stroke-linecap="round" stroke-linejoin="round" stroke-opacity="0.4" stroke-width="0.2"/>
    <path d="M290.4 114.65 Q295.25 118.3 296.75 116.25 296.55 115.1 295.45 113.85 292.85 112.3 290.5 113.3 L290.4 114.65" fill="#ffff00" fill-rule="evenodd" stroke="none"/>
    <path d="M290.4 114.65 Q291.55 117.7 296.3 118.95 297.25 117.7 296.75 116.25 295.25 118.3 290.4 114.65" fill="#ffcc00" fill-rule="evenodd" stroke="none"/>
    <path d="M296.75 116.25 Q297.25 117.7 296.3 118.95 M290.5 113.3 Q292.85 112.3 295.45 113.85 296.55 115.1 296.75 116.25" fill="none" stroke="#2d0000" stroke-linecap="round" stroke-linejoin="round" stroke-opacity="0.4" stroke-width="0.2"/>
    <path d="M230.6 136.0 Q231.55 136.75 231.5 138.3 231.4 139.95 230.3 141.5 229.15 143.0 227.7 143.5 L225.2 143.35 Q224.2 142.65 224.25 141.0 224.3 139.4 225.45 137.9 L225.7 137.6 Q225.2 138.35 225.1 139.15 225.1 140.15 225.7 140.6 L227.2 140.7 Q228.1 140.4 228.75 139.5 229.45 138.6 229.5 137.6 229.55 136.65 228.95 136.2 L227.6 136.0 228.05 135.8 230.6 136.0" fill="#ffcc00" fill-rule="evenodd" stroke="none"/>
    <path d="M242.85 122.05 Q241.95 121.4 240.75 121.8 241.05 121.55 241.45 121.45 243.85 120.6 245.45 121.8 247.05 123.0 246.95 125.5 246.85 128.15 245.05 130.6 243.25 133.05 240.8 133.8 238.35 134.75 236.75 133.55 235.15 132.35 235.3 129.75 235.4 127.25 237.2 124.8 L237.65 124.3 Q236.8 125.55 236.7 126.85 236.7 128.4 237.65 129.1 238.6 129.8 240.05 129.35 241.5 128.8 242.6 127.35 243.7 125.9 243.75 124.35 243.8 122.75 242.85 122.05" fill="#ffcc00" fill-rule="evenodd" stroke="none"/>
    <path d="M273.05 179.55 Q273.2 179.4 273.35 179.35 L275.35 179.5 Q276.15 180.05 276.05 181.3 276.0 182.65 275.05 183.9 274.15 185.15 272.9 185.6 L270.85 185.55 Q270.1 184.95 270.2 183.65 270.3 182.35 271.2 181.1 L271.45 180.85 Q271.0 181.45 270.95 182.1 270.95 182.9 271.4 183.3 271.9 183.6 272.55 183.3 273.3 183.1 273.85 182.35 274.4 181.6 274.45 180.75 274.55 179.95 274.05 179.65 L273.05 179.55" fill="#ffcc00" fill-rule="evenodd" stroke="none"/>
    <path d="M230.95 161.6 L232.45 161.7 Q233.0 162.1 232.95 163.05 232.9 164.05 232.2 165.0 231.5 165.9 230.65 166.2 229.7 166.6 229.15 166.2 228.55 165.75 228.65 164.75 228.7 163.8 229.4 162.9 L229.55 162.7 Q229.2 163.15 229.15 163.65 229.1 164.25 229.5 164.5 L230.35 164.55 231.35 163.8 Q231.75 163.25 231.75 162.65 231.8 162.05 231.5 161.8 L230.7 161.7 230.95 161.6" fill="#ffcc00" fill-rule="evenodd" stroke="none"/>
    <path d="M224.15 153.0 Q225.15 153.75 225.05 155.35 224.9 157.0 223.75 158.6 222.6 160.15 221.1 160.7 L218.55 160.6 Q217.6 159.9 217.7 158.2 217.85 156.6 219.0 155.05 L219.25 154.7 Q218.75 155.5 218.65 156.35 218.55 157.3 219.15 157.75 L220.7 157.85 Q221.6 157.5 222.3 156.6 223.0 155.65 223.1 154.6 223.15 153.65 222.55 153.2 L221.25 153.1 221.65 152.85 224.15 153.0" fill="#ffcc00" fill-rule="evenodd" stroke="none"/>
    <path d="M217.5 170.7 L216.5 170.6 216.8 170.4 218.8 170.55 Q219.6 171.1 219.5 172.35 219.45 173.7 218.5 174.95 217.6 176.2 216.35 176.65 L214.3 176.6 Q213.55 176.0 213.65 174.7 213.75 173.4 214.65 172.15 L214.9 171.9 Q214.45 172.5 214.4 173.15 214.4 173.95 214.85 174.35 215.35 174.65 216.0 174.35 216.75 174.15 217.3 173.4 217.85 172.65 217.9 171.8 218.0 171.0 217.5 170.7" fill="#ffcc00" fill-rule="evenodd" stroke="none"/>
    <path d="M233.0 148.15 Q233.75 148.7 233.65 149.85 233.55 151.1 232.7 152.25 231.85 153.4 230.7 153.8 L228.85 153.75 Q228.15 153.2 228.2 151.95 228.3 150.8 229.15 149.65 L229.35 149.4 Q228.95 149.95 228.9 150.6 228.85 151.35 229.3 151.65 L230.4 151.75 231.65 150.75 Q232.15 150.05 232.15 149.35 232.25 148.6 231.8 148.25 L230.85 148.15 231.15 148.0 233.0 148.15" fill="#ffcc00" fill-rule="evenodd" stroke="none"/>
    <path d="M217.2 155.1 L216.4 155.0 216.65 154.9 218.15 155.0 Q218.7 155.4 218.65 156.35 218.6 157.35 217.9 158.3 217.2 159.2 216.35 159.5 215.4 159.9 214.85 159.5 214.25 159.05 214.35 158.05 214.4 157.1 215.1 156.2 L215.25 156.0 Q214.9 156.45 214.85 156.95 214.8 157.55 215.2 157.8 L216.05 157.85 217.05 157.1 Q217.45 156.55 217.45 155.95 217.5 155.35 217.2 155.1" fill="#ffcc00" fill-rule="evenodd" stroke="none"/>
    <path d="M251.5 90.3 L251.9 89.9 Q253.4 88.95 254.7 89.45 256.0 89.95 256.35 91.65 256.75 93.45 255.95 95.45 255.2 97.4 253.7 98.35 252.25 99.4 250.95 98.9 249.65 98.4 249.25 96.6 248.9 94.9 249.65 92.95 L249.9 92.55 Q249.55 93.5 249.75 94.45 249.95 95.45 250.75 95.75 L252.4 95.5 Q253.3 94.85 253.75 93.65 254.25 92.5 253.95 91.45 253.75 90.4 253.0 90.1 252.25 89.85 251.5 90.3" fill="#ffcc00" fill-rule="evenodd" stroke="none"/>
    <path d="M249.9 175.2 Q251.6 174.6 252.7 175.45 253.85 176.25 253.7 178.05 253.65 179.85 252.4 181.55 251.15 183.25 249.45 183.8 L246.65 183.65 Q245.55 182.8 245.65 180.95 245.7 179.25 246.95 177.55 L247.3 177.2 Q246.65 178.05 246.6 178.95 246.6 180.05 247.3 180.55 L248.95 180.7 Q249.95 180.3 250.7 179.3 251.45 178.3 251.55 177.2 251.55 176.1 250.9 175.65 250.25 175.2 249.4 175.45 L249.9 175.2" fill="#ffcc00" fill-rule="evenodd" stroke="none"/>
    <path d="M254.25 160.35 Q254.8 160.75 254.75 161.7 254.7 162.7 254.0 163.65 253.3 164.55 252.45 164.85 251.5 165.25 250.95 164.85 250.35 164.4 250.45 163.4 250.5 162.45 251.2 161.55 L251.35 161.35 Q251.0 161.8 250.95 162.3 250.9 162.9 251.3 163.15 L252.15 163.2 Q252.75 163.0 253.15 162.45 253.55 161.9 253.55 161.3 253.6 160.7 253.3 160.45 L252.5 160.35 252.75 160.25 254.25 160.35" fill="#ffcc00" fill-rule="evenodd" stroke="none"/>
    <path d="M209.35 178.2 L209.65 178.0 211.65 178.15 Q212.45 178.7 212.35 179.95 212.3 181.3 211.35 182.55 210.45 183.8 209.2 184.25 L207.15 184.2 Q206.4 183.6 206.5 182.3 206.6 181.0 207.5 179.75 L207.75 179.5 Q207.3 180.1 207.25 180.75 207.25 181.55 207.7 181.95 208.2 182.25 208.85 181.95 209.6 181.75 210.15 181.0 210.7 180.25 210.75 179.4 210.85 178.6 210.35 178.3 L209.35 178.2" fill="#ffcc00" fill-rule="evenodd" stroke="none"/>
    <path d="M249.85 103.05 L251.85 103.2 Q252.65 103.75 252.55 105.0 252.5 106.35 251.55 107.6 250.65 108.85 249.4 109.3 L247.35 109.25 Q246.6 108.65 246.7 107.35 246.8 106.05 247.7 104.8 L247.95 104.55 Q247.5 105.15 247.45 105.8 247.45 106.6 247.9 107.0 248.4 107.3 249.05 107.0 249.8 106.8 250.35 106.05 250.9 105.3 250.95 104.45 251.05 103.65 250.55 103.35 L249.55 103.25 249.85 103.05" fill="#ffcc00" fill-rule="evenodd" stroke="none"/>
    <path d="M262.05 137.25 L262.65 136.25 Q265.15 133.45 268.05 133.8 270.95 134.1 272.65 137.4 274.45 140.85 273.95 145.3 273.4 149.75 270.9 152.55 268.5 155.45 265.6 155.15 262.7 154.8 260.9 151.4 259.2 148.1 259.75 143.65 L259.95 142.75 Q259.75 144.9 260.6 146.6 261.7 148.65 263.5 148.85 265.2 149.05 266.65 147.3 268.15 145.55 268.45 142.9 268.75 140.25 267.7 138.25 266.65 136.2 264.95 136.0 263.3 135.8 262.05 137.25" fill="#ffcc00" fill-rule="evenodd" stroke="none"/>
    <path d="M261.65 129.55 Q262.2 129.95 262.15 130.9 262.1 131.9 261.4 132.85 260.7 133.75 259.85 134.05 258.9 134.45 258.35 134.05 257.75 133.6 257.85 132.6 257.9 131.65 258.6 130.75 L258.75 130.55 Q258.4 131.0 258.35 131.5 258.3 132.1 258.7 132.35 L259.55 132.4 260.55 131.65 260.95 130.5 Q261.0 129.9 260.7 129.65 L259.9 129.55 260.15 129.45 261.65 129.55" fill="#ffcc00" fill-rule="evenodd" stroke="none"/>
    <path d="M261.65 184.55 L260.85 184.45 261.1 184.35 262.6 184.45 Q263.15 184.85 263.1 185.8 263.05 186.8 262.35 187.75 261.65 188.65 260.8 188.95 259.85 189.35 259.3 188.95 258.7 188.5 258.8 187.5 258.85 186.55 259.55 185.65 L259.7 185.45 Q259.35 185.9 259.3 186.4 259.25 187.0 259.65 187.25 L260.5 187.3 261.5 186.55 Q261.9 186.0 261.9 185.4 261.95 184.8 261.65 184.55" fill="#ffcc00" fill-rule="evenodd" stroke="none"/>
    <path d="M272.65 122.15 Q272.1 122.9 272.5 124.05 272.9 125.15 274.0 126.0 L275.45 126.75 274.65 126.8 Q273.45 126.8 272.3 125.95 271.2 125.1 270.8 124.0 270.4 122.85 270.95 122.1 271.5 121.35 272.7 121.4 L273.6 121.5 Q273.0 121.7 272.65 122.15" fill="#ffff00" fill-rule="evenodd" stroke="none"/>
    <path d="M287.8 135.6 Q287.25 136.35 287.65 137.5 288.05 138.6 289.15 139.45 L290.6 140.2 289.8 140.25 Q288.6 140.25 287.45 139.4 286.35 138.55 285.95 137.45 285.55 136.3 286.1 135.55 286.65 134.8 287.85 134.85 L288.75 134.95 Q288.15 135.15 287.8 135.6" fill="#ffff00" fill-rule="evenodd" stroke="none"/>
    <path d="M266.65 97.75 Q266.1 98.5 266.5 99.65 266.9 100.75 268.0 101.6 L269.45 102.35 268.65 102.4 Q267.45 102.4 266.3 101.55 265.2 100.7 264.8 99.6 264.4 98.45 264.95 97.7 265.5 96.95 266.7 97.0 L267.6 97.1 Q267.0 97.3 266.65 97.75" fill="#ffff00" fill-rule="evenodd" stroke="none"/>
    <path d="M286.5 143.15 Q285.5 144.5 286.2 146.55 286.95 148.6 288.95 150.1 290.25 151.05 291.5 151.4 L290.0 151.55 Q287.9 151.45 285.85 149.95 283.8 148.45 283.1 146.45 282.4 144.4 283.4 143.05 284.4 141.7 286.55 141.8 L288.15 142.0 Q287.1 142.3 286.5 143.15" fill="#ffff00" fill-rule="evenodd" stroke="none"/>
    <path d="M228.65 125.7 L228.85 127.3 Q224.55 131.5 222.95 129.1 223.1 127.85 224.05 126.4 226.4 124.55 228.65 125.7" fill="#ffff00" fill-rule="evenodd" stroke="none"/>
    <path d="M222.95 129.1 Q224.55 131.5 228.85 127.3 228.0 130.8 223.55 132.3 222.65 130.85 222.95 129.1" fill="#ffcc00" fill-rule="evenodd" stroke="none"/>
    <path d="M228.65 125.7 Q226.4 124.55 224.05 126.4 223.1 127.85 222.95 129.1 222.65 130.85 223.55 132.3" fill="none" stroke="#2d0000" stroke-linecap="round" stroke-linejoin="round" stroke-opacity="0.4" stroke-width="0.2"/>
    <path d="M211.05 150.45 Q209.7 155.3 207.55 154.2 207.1 153.2 207.2 151.75 208.15 149.45 210.2 149.35 L211.05 150.45" fill="#ffff00" fill-rule="evenodd" stroke="none"/>
    <path d="M211.05 150.45 Q211.9 153.3 209.3 156.25 208.0 155.6 207.55 154.2 209.7 155.3 211.05 150.45" fill="#ffcc00" fill-rule="evenodd" stroke="none"/>
    <path d="M207.55 154.2 Q208.0 155.6 209.3 156.25 M210.2 149.35 Q208.15 149.45 207.2 151.75 207.1 153.2 207.55 154.2" fill="none" stroke="#2d0000" stroke-linecap="round" stroke-linejoin="round" stroke-opacity="0.4" stroke-width="0.2"/>
    <path d="M285.05 112.35 L285.25 113.5 290.75 113.35 289.15 111.75 Q286.7 111.1 285.05 112.35" fill="#ffff00" fill-rule="evenodd" stroke="none"/>
    <path d="M290.75 113.35 L285.25 113.5 Q286.85 115.7 290.9 115.65 291.4 114.5 290.75 113.35" fill="#ffcc00" fill-rule="evenodd" stroke="none"/>
    <path d="M285.05 112.35 Q286.7 111.1 289.15 111.75 L290.75 113.35 Q291.4 114.5 290.9 115.65" fill="none" stroke="#2d0000" stroke-linecap="round" stroke-linejoin="round" stroke-opacity="0.4" stroke-width="0.2"/>
    <path d="M324.25 141.6 L323.65 142.4 Q325.45 146.65 327.25 145.85 327.5 145.05 327.25 143.85 326.15 141.85 324.25 141.6" fill="#ffff00" fill-rule="evenodd" stroke="none"/>
    <path d="M327.25 145.85 Q325.45 146.65 323.65 142.4 323.25 144.85 325.9 147.5 327.0 147.05 327.25 145.85" fill="#ffcc00" fill-rule="evenodd" stroke="none"/>
    <path d="M324.25 141.6 Q326.15 141.85 327.25 143.85 327.5 145.05 327.25 145.85 327.0 147.05 325.9 147.5" fill="none" stroke="#2d0000" stroke-linecap="round" stroke-linejoin="round" stroke-opacity="0.4" stroke-width="0.2"/>
    <path d="M247.6 90.45 L248.45 91.55 Q247.1 96.4 244.95 95.3 244.5 94.3 244.6 92.85 245.55 90.55 247.6 90.45" fill="#ffff00" fill-rule="evenodd" stroke="none"/>
    <path d="M244.95 95.3 Q247.1 96.4 248.45 91.55 249.3 94.4 246.7 97.35 245.4 96.7 244.95 95.3" fill="#ffcc00" fill-rule="evenodd" stroke="none"/>
    <path d="M247.6 90.45 Q245.55 90.55 244.6 92.85 244.5 94.3 244.95 95.3 245.4 96.7 246.7 97.35" fill="none" stroke="#2d0000" stroke-linecap="round" stroke-linejoin="round" stroke-opacity="0.4" stroke-width="0.2"/>
  </g>
</svg>
