<?xml version="1.0" encoding="UTF-8" standalone="no"?>
<svg xmlns:xlink="http://www.w3.org/1999/xlink" height="413.45px" width="361.2px" xmlns="http://www.w3.org/2000/svg">
  <g transform="matrix(1.0, 0.0, 0.0, 1.0, -109.4, -196.25)">
    <path d="M304.6 212.95 Q304.2 212.15 306.8 208.35 311.1 202.05 315.65 199.7 320.15 197.3 326.7 201.15 334.7 205.8 340.1 209.35 359.0 221.9 359.0 229.3 359.0 235.95 356.2 239.05 354.85 240.65 350.5 242.7 346.8 244.45 345.65 247.0 343.9 250.8 345.45 258.85 341.35 259.3 338.3 258.0 341.15 312.7 355.7 374.5 386.9 516.55 469.85 514.35 451.75 557.05 383.1 558.0 319.35 470.5 309.85 218.65 L311.05 217.2 Q308.45 215.5 306.55 212.65 L304.6 212.95 306.55 212.65 Q304.9 213.45 304.6 212.95 M206.5 556.05 Q132.9 548.9 110.15 482.5 164.5 530.1 195.4 409.5 226.25 288.95 230.8 222.95 229.35 217.7 238.2 207.15 246.75 197.0 249.75 197.0 251.75 197.0 254.1 199.6 L258.7 205.85 Q264.25 214.0 268.35 217.05 L265.95 217.2 Q247.0 218.35 230.8 222.95 247.0 218.35 265.95 217.2 226.3 324.2 206.5 556.05 M317.45 219.6 Q313.85 219.1 311.05 217.2 313.85 219.1 317.45 219.6 316.6 221.45 316.75 222.7 317.7 222.7 318.1 223.35 L318.25 224.0 318.1 223.35 Q317.7 222.7 316.75 222.7 316.6 221.45 317.45 219.6 320.7 219.25 323.15 220.4 L328.15 221.25 Q336.45 222.7 323.4 220.55 L323.15 220.4 323.4 220.55 Q329.55 223.85 330.7 237.35 L336.95 229.65 Q337.3 229.2 334.65 242.7 342.8 222.0 337.55 220.95 L322.85 208.95 Q315.55 207.75 315.05 211.95 314.55 216.2 317.45 219.6 M338.3 258.0 L338.3 257.8 Q337.5 243.1 334.65 242.7 337.5 243.1 338.3 257.8 L338.3 258.0 337.95 257.85 Q335.85 256.85 333.3 254.25 335.85 256.85 337.95 257.85 L338.3 258.0 M329.65 238.45 L330.7 237.35 334.65 242.7 330.7 237.35 329.65 238.45" fill="#0d0d0d" fill-rule="evenodd" stroke="none"/>
    <path d="M383.1 558.0 L355.45 556.85 Q296.5 447.15 309.85 218.65 319.35 470.5 383.1 558.0 M238.35 553.15 Q217.3 557.1 206.5 556.05 226.3 324.2 265.95 217.2 214.7 430.05 238.35 553.15 M317.45 219.6 Q314.55 216.2 315.05 211.95 315.55 207.75 322.85 208.95 L337.55 220.95 Q342.8 222.0 334.65 242.7 337.3 229.2 336.95 229.65 L330.7 237.35 Q329.55 223.85 323.4 220.55 336.45 222.7 328.15 221.25 L323.15 220.4 Q320.7 219.25 317.45 219.6" fill="#251034" fill-rule="evenodd" stroke="none"/>
    <path d="M355.45 556.85 Q337.9 596.95 307.2 608.95 L307.2 551.5 293.95 557.8 282.2 552.8 289.4 608.3 Q260.8 585.95 238.35 553.15 214.7 430.05 265.95 217.2 L268.35 217.05 284.6 215.75 304.6 212.95 Q304.9 213.45 306.55 212.65 308.45 215.5 311.05 217.2 L309.85 218.65 Q296.5 447.15 355.45 556.85 M284.6 215.75 Q257.4 386.65 293.95 557.8 257.4 386.65 284.6 215.75" fill="url(#gradient0)" fill-rule="evenodd" stroke="none"/>
    <path d="M338.3 258.0 Q341.15 312.7 355.7 374.5 386.9 516.55 469.85 514.35 451.75 557.05 383.1 558.0 L355.45 556.85 Q337.9 596.95 307.2 608.95 L307.2 551.5 293.95 557.8 282.2 552.8 289.4 608.3 Q260.8 585.95 238.35 553.15 217.3 557.1 206.5 556.05 132.9 548.9 110.15 482.5 164.5 530.1 195.4 409.5 226.25 288.95 230.8 222.95 229.35 217.7 238.2 207.15 246.75 197.0 249.75 197.0 251.75 197.0 254.1 199.6 L258.7 205.85 Q264.25 214.0 268.35 217.05 L284.6 215.75 304.6 212.95 Q304.9 213.45 306.55 212.65 M338.3 258.0 L337.95 257.85 Q335.85 256.85 333.3 254.25 M323.15 220.4 L323.4 220.55 Q329.55 223.85 330.7 237.35 L336.95 229.65 Q337.3 229.2 334.65 242.7 L330.7 237.35 329.65 238.45 M318.25 224.0 L318.1 223.35 Q317.7 222.7 316.75 222.7 316.6 221.45 317.45 219.6 320.7 219.25 323.15 220.4 M268.35 217.05 L265.95 217.2 Q247.0 218.35 230.8 222.95" fill="none" stroke="#000000" stroke-linecap="round" stroke-linejoin="round" stroke-width="1.5"/>
    <path d="M304.6 212.95 Q304.2 212.15 306.8 208.35 311.1 202.05 315.65 199.7 320.15 197.3 326.7 201.15 334.7 205.8 340.1 209.35 359.0 221.9 359.0 229.3 359.0 235.95 356.2 239.05 354.85 240.65 350.5 242.7 346.8 244.45 345.65 247.0 343.9 250.8 345.45 258.85 341.35 259.3 338.3 258.0 L338.3 257.8 Q337.5 243.1 334.65 242.7 M304.6 212.95 L306.55 212.65 Q308.45 215.5 311.05 217.2 313.85 219.1 317.45 219.6 314.55 216.2 315.05 211.95 315.55 207.75 322.85 208.95 L337.55 220.95" fill="none" stroke="#ff66cc" stroke-linecap="round" stroke-linejoin="round" stroke-opacity="0.3882353" stroke-width="0.25"/>
    <path d="M293.95 557.8 Q257.4 386.65 284.6 215.75" fill="none" stroke="#000000" stroke-linecap="round" stroke-linejoin="round" stroke-opacity="0.49803922" stroke-width="1.5"/>
  </g>
  <defs>
    <linearGradient gradientTransform="matrix(-0.007, -0.1321, 0.0734, -0.0039, 288.45, 429.55)" gradientUnits="userSpaceOnUse" id="gradient0" spreadMethod="pad" x1="-819.2" x2="819.2">
      <stop offset="0.0" stop-color="#dddabe"/>
      <stop offset="0.9882352941176471" stop-color="#a39a54"/>
    </linearGradient>
  </defs>
</svg>
