<?xml version="1.0" encoding="UTF-8" standalone="no"?>
<svg xmlns:xlink="http://www.w3.org/1999/xlink" height="239.0px" width="194.65px" xmlns="http://www.w3.org/2000/svg">
  <g transform="matrix(1.0, 0.0, 0.0, 1.0, -177.45, -36.6)">
    <path d="M286.05 265.0 L286.0 265.0 286.0 264.95 286.05 265.0" fill="#b3e6e4" fill-rule="evenodd" stroke="none"/>
    <path d="M286.0 265.0 L286.05 265.0" fill="none" stroke="#000000" stroke-linecap="round" stroke-linejoin="round" stroke-opacity="0.4" stroke-width="0.2"/>
    <path d="M372.0 234.0 L350.55 243.3 338.0 224.0 346.3 226.45 357.05 229.6 372.0 234.0 M346.95 230.0 L346.3 226.45 346.95 230.0" fill="#ffffff" fill-rule="evenodd" stroke="none"/>
    <path d="M338.0 224.0 L329.15 197.45 342.7 206.4 346.3 226.45 338.0 224.0" fill="#319393" fill-rule="evenodd" stroke="none"/>
    <path d="M342.7 206.4 L353.5 213.5 359.8 220.5 357.05 229.6 346.3 226.45 342.7 206.4" fill="#59c8c8" fill-rule="evenodd" stroke="none"/>
    <path d="M359.8 220.5 L372.0 234.0 357.05 229.6 359.8 220.5" fill="#73d0d0" fill-rule="evenodd" stroke="none"/>
    <path d="M346.3 226.45 L357.05 229.6 372.0 234.0 M346.3 226.45 L346.95 230.0 M346.3 226.45 L338.0 224.0" fill="none" stroke="#ffffff" stroke-linecap="round" stroke-linejoin="round" stroke-opacity="0.4" stroke-width="0.2"/>
    <path d="M342.7 206.4 L353.5 213.5 359.8 220.5 372.0 234.0 350.55 243.3 M329.15 197.45 L342.7 206.4" fill="none" stroke="#319393" stroke-linecap="round" stroke-linejoin="round" stroke-opacity="0.4" stroke-width="0.2"/>
    <path d="M203.3 230.5 L199.5 224.5 186.0 177.0 186.0 135.5 186.55 136.4 204.0 165.5 213.0 208.0 203.3 230.5 M233.35 251.75 L261.8 258.9 216.85 266.75 233.35 251.75" fill="#b3e6e4" fill-rule="evenodd" stroke="none"/>
    <path d="M215.15 177.05 L214.0 193.0 218.8 217.25 213.0 208.0 204.0 165.5 215.15 177.05 M221.45 243.75 L222.5 249.0 233.35 251.75 216.85 266.75 209.5 268.0 212.0 249.5 216.55 240.15 221.45 243.75" fill="#ffffff" fill-rule="evenodd" stroke="none"/>
    <path d="M186.55 136.4 L215.9 166.35 215.15 177.05 204.0 165.5 186.55 136.4 M207.0 243.0 L206.6 232.9 214.1 238.4 207.0 243.0" fill="#66cccc" fill-rule="evenodd" stroke="none"/>
    <path d="M218.8 217.25 L221.45 232.95 221.45 243.75 216.55 240.15 214.1 238.4 206.6 232.9 203.3 230.5 213.0 208.0 218.8 217.25 M209.5 268.0 L193.0 268.0 212.0 249.5 209.5 268.0" fill="#319393" fill-rule="evenodd" stroke="none"/>
    <path d="M193.0 268.0 L205.5 247.0 207.0 243.0 214.1 238.4 216.55 240.15 212.0 249.5 193.0 268.0" fill="#d9f2f1" fill-rule="evenodd" stroke="none"/>
    <path d="M203.3 230.5 L213.0 208.0 204.0 165.5 186.55 136.4 M204.0 165.5 L215.15 177.05 M213.0 208.0 L218.8 217.25 M214.1 238.4 L207.0 243.0 M216.55 240.15 L212.0 249.5 209.5 268.0 M233.35 251.75 L216.85 266.75 M193.0 268.0 L212.0 249.5" fill="none" stroke="#ffffff" stroke-linecap="round" stroke-linejoin="round" stroke-opacity="0.4" stroke-width="0.2"/>
    <path d="M203.3 230.5 L199.5 224.5 186.0 177.0 186.0 135.5 186.55 136.4 215.9 166.35 M261.8 258.9 L216.85 266.75 209.5 268.0 193.0 268.0 205.5 247.0 207.0 243.0 206.6 232.9 203.3 230.5 M216.55 240.15 L214.1 238.4 206.6 232.9 M221.45 243.75 L216.55 240.15" fill="none" stroke="#319393" stroke-linecap="round" stroke-linejoin="round" stroke-opacity="0.4" stroke-width="0.2"/>
    <path d="M334.0 250.5 L332.5 259.0 286.05 265.0 334.0 250.5 325.95 228.65 328.25 194.75 338.0 224.0 334.0 250.5 M265.55 77.3 L304.5 134.45 312.15 181.5 254.35 100.15 265.55 77.3 M235.7 138.4 L237.7 151.05 238.3 154.9 214.0 193.0 215.9 166.35 221.0 125.0 235.7 138.4" fill="#d9f2f1" fill-rule="evenodd" stroke="none"/>
    <path d="M332.5 259.0 L334.0 250.5 338.0 224.0 371.5 275.5 332.5 259.0 M276.75 251.5 L286.0 264.95 221.45 232.95 246.5 207.5 276.75 251.5 M247.8 113.65 L244.85 119.65 241.9 125.7 231.5 86.0 247.8 113.65" fill="#b3e6e4" fill-rule="evenodd" stroke="none"/>
    <path d="M286.05 265.0 L332.5 259.0 371.5 275.5 330.5 273.0 286.05 265.0" fill="#319393" fill-rule="evenodd" stroke="none"/>
    <path d="M334.0 250.5 L286.05 265.0 303.4 225.5 315.0 199.0 318.45 208.35 325.95 228.65 334.0 250.5 M271.85 64.4 L302.75 123.7 304.5 134.45 265.55 77.3 271.85 64.4 M241.9 125.7 L235.7 138.4 221.0 125.0 231.5 86.0 241.9 125.7" fill="#ffffff" fill-rule="evenodd" stroke="none"/>
    <path d="M325.95 228.65 L318.45 208.35 316.6 159.8 328.25 194.75 325.95 228.65 M303.4 225.5 L286.05 265.0 286.0 264.95 276.75 251.5 237.7 151.05 235.7 138.4 241.9 125.7 244.85 119.65 303.4 225.5 M243.0 185.05 L246.5 207.5 221.45 232.95 220.15 225.1 243.0 185.05" fill="#99dddd" fill-rule="evenodd" stroke="none"/>
    <path d="M318.45 208.35 L315.0 199.0 312.15 181.5 304.5 134.45 302.75 123.7 271.85 64.4 273.95 60.0 301.0 113.0 302.75 123.7 301.0 113.0 316.6 159.8 318.45 208.35 M237.7 151.05 L276.75 251.5 246.5 207.5 243.0 185.05 238.3 154.9 237.7 151.05 M286.0 264.95 L286.0 265.0 222.5 249.0 221.45 243.75 221.45 232.95 286.0 264.95" fill="#66cccc" fill-rule="evenodd" stroke="none"/>
    <path d="M315.0 199.0 L303.4 225.5 244.85 119.65 247.8 113.65 254.35 100.15 312.15 181.5 315.0 199.0 M214.0 193.0 L238.3 154.9 243.0 185.05 220.15 225.1 214.0 193.0" fill="#b9e8e7" fill-rule="evenodd" stroke="none"/>
    <path d="M332.5 259.0 L334.0 250.5 286.05 265.0 332.5 259.0 371.5 275.5 M338.0 224.0 L334.0 250.5 325.95 228.65 318.45 208.35 315.0 199.0 303.4 225.5 286.05 265.0 M302.75 123.7 L301.0 113.0 M304.5 134.45 L302.75 123.7 M241.9 125.7 L235.7 138.4 237.7 151.05 238.3 154.9 243.0 185.05 246.5 207.5 276.75 251.5 286.0 264.95 M235.7 138.4 L221.0 125.0 M247.8 113.65 L244.85 119.65 241.9 125.7 231.5 86.0 M312.15 181.5 L304.5 134.45 M312.15 181.5 L315.0 199.0 M246.5 207.5 L221.45 232.95" fill="none" stroke="#ffffff" stroke-linecap="round" stroke-linejoin="round" stroke-opacity="0.4" stroke-width="0.2"/>
    <path d="M371.5 275.5 L338.0 224.0 328.25 194.75 316.6 159.8 301.0 113.0 273.95 60.0 271.85 64.4 265.55 77.3 254.35 100.15 247.8 113.65 231.5 86.0 221.0 125.0 215.9 166.35 214.0 193.0 220.15 225.1 221.45 232.95 221.45 243.75 222.5 249.0 286.0 265.0 M286.05 265.0 L330.5 273.0 371.5 275.5 M286.0 264.95 L286.05 265.0" fill="none" stroke="#319393" stroke-linecap="round" stroke-linejoin="round" stroke-opacity="0.4" stroke-width="0.2"/>
    <path d="M317.3 114.95 L327.05 114.95 M302.8 86.7 L302.8 102.7 M302.8 125.45 L302.8 142.95 M275.55 114.95 L288.3 114.95" fill="none" stroke="#ffffff" stroke-linecap="round" stroke-linejoin="round" stroke-opacity="0.4" stroke-width="0.2"/>
    <path d="M308.55 114.95 L317.3 114.95 M302.8 102.7 L302.8 108.95 M302.8 118.95 L302.8 125.45 M288.3 114.95 L296.3 114.95" fill="none" stroke="#ffffff" stroke-linecap="round" stroke-linejoin="round" stroke-opacity="0.6117647" stroke-width="0.2"/>
    <path d="M302.8 108.95 L302.8 112.2 M304.8 114.95 L308.55 114.95 M302.8 116.45 L302.8 118.95 M296.3 114.95 L301.55 114.95" fill="none" stroke="#ffffff" stroke-linecap="round" stroke-linejoin="round" stroke-opacity="0.77254903" stroke-width="0.2"/>
    <path d="M302.8 112.2 L302.8 114.95 304.8 114.95 M302.8 114.95 L302.8 116.45 M301.55 114.95 L302.8 114.95" fill="none" stroke="#ffffff" stroke-linecap="round" stroke-linejoin="round" stroke-opacity="0.99215686" stroke-width="0.2"/>
    <path d="M311.4 99.95 L306.5 108.45 M310.45 119.4 L315.65 122.4 M299.55 120.55 L294.2 129.85 M288.3 106.6 L295.05 110.5" fill="none" stroke="#ffffff" stroke-linecap="round" stroke-linejoin="round" stroke-opacity="0.4" stroke-width="0.2"/>
    <path d="M306.5 108.45 L304.6 111.8 M305.8 116.7 L310.45 119.4 M301.55 117.1 L299.55 120.55 M295.05 110.5 L299.3 112.95" fill="none" stroke="#ffffff" stroke-linecap="round" stroke-linejoin="round" stroke-opacity="0.6117647" stroke-width="0.2"/>
    <path d="M304.6 111.8 L303.6 113.5 M303.85 115.55 L305.8 116.7 M302.3 115.75 L301.55 117.1 M299.3 112.95 L302.1 114.55" fill="none" stroke="#ffffff" stroke-linecap="round" stroke-linejoin="round" stroke-opacity="0.77254903" stroke-width="0.2"/>
    <path d="M303.6 113.5 L302.75 114.95 303.85 115.55 M302.75 114.95 L302.3 115.75 M302.1 114.55 L302.75 114.95" fill="none" stroke="#ffffff" stroke-linecap="round" stroke-linejoin="round" stroke-opacity="0.99215686" stroke-width="0.2"/>
    <path d="M307.35 119.2 L310.45 122.3 M311.75 105.6 L306.65 110.7 M299.4 117.95 L293.85 123.5 M294.05 105.9 L298.1 109.95" fill="none" stroke="#ffffff" stroke-linecap="round" stroke-linejoin="round" stroke-opacity="0.4" stroke-width="0.2"/>
    <path d="M304.55 116.4 L307.35 119.2 M306.65 110.7 L304.65 112.7 M301.45 115.9 L299.4 117.95 M298.1 109.95 L300.65 112.5" fill="none" stroke="#ffffff" stroke-linecap="round" stroke-linejoin="round" stroke-opacity="0.6117647" stroke-width="0.2"/>
    <path d="M304.65 112.7 L303.6 113.75 M303.35 115.2 L304.55 116.4 M302.25 115.1 L301.45 115.9 M300.65 112.5 L302.35 114.2" fill="none" stroke="#ffffff" stroke-linecap="round" stroke-linejoin="round" stroke-opacity="0.77254903" stroke-width="0.2"/>
    <path d="M303.6 113.75 L302.75 114.6 303.35 115.2 M302.75 114.6 L302.25 115.1 M302.35 114.2 L302.75 114.6" fill="none" stroke="#ffffff" stroke-linecap="round" stroke-linejoin="round" stroke-opacity="0.99215686" stroke-width="0.2"/>
    <path d="M274.8 36.7 L274.8 52.7 M289.3 64.95 L299.05 64.95 M274.8 75.45 L274.8 92.95 M247.55 64.95 L260.3 64.95" fill="none" stroke="#ffffff" stroke-linecap="round" stroke-linejoin="round" stroke-opacity="0.4" stroke-width="0.2"/>
    <path d="M274.8 52.7 L274.8 58.95 M280.55 64.95 L289.3 64.95 M274.8 68.95 L274.8 75.45 M260.3 64.95 L268.3 64.95" fill="none" stroke="#ffffff" stroke-linecap="round" stroke-linejoin="round" stroke-opacity="0.6117647" stroke-width="0.2"/>
    <path d="M274.8 58.95 L274.8 62.2 M276.8 64.95 L280.55 64.95 M274.8 66.45 L274.8 68.95 M268.3 64.95 L273.55 64.95" fill="none" stroke="#ffffff" stroke-linecap="round" stroke-linejoin="round" stroke-opacity="0.77254903" stroke-width="0.2"/>
    <path d="M274.8 62.2 L274.8 64.95 276.8 64.95 M274.8 64.95 L274.8 66.45 M273.55 64.95 L274.8 64.95" fill="none" stroke="#ffffff" stroke-linecap="round" stroke-linejoin="round" stroke-opacity="0.99215686" stroke-width="0.2"/>
    <path d="M282.45 69.4 L287.65 72.4 M283.4 49.95 L278.5 58.45 M271.55 70.55 L266.2 79.85 M260.3 56.6 L267.05 60.5" fill="none" stroke="#ffffff" stroke-linecap="round" stroke-linejoin="round" stroke-opacity="0.4" stroke-width="0.2"/>
    <path d="M277.8 66.7 L282.45 69.4 M278.5 58.45 L276.6 61.8 M273.55 67.1 L271.55 70.55 M267.05 60.5 L271.3 62.95" fill="none" stroke="#ffffff" stroke-linecap="round" stroke-linejoin="round" stroke-opacity="0.6117647" stroke-width="0.2"/>
    <path d="M276.6 61.8 L275.6 63.5 M275.85 65.55 L277.8 66.7 M274.3 65.75 L273.55 67.1 M271.3 62.95 L274.1 64.55" fill="none" stroke="#ffffff" stroke-linecap="round" stroke-linejoin="round" stroke-opacity="0.77254903" stroke-width="0.2"/>
    <path d="M275.6 63.5 L274.75 64.95 275.85 65.55 M274.75 64.95 L274.3 65.75 M274.1 64.55 L274.75 64.95" fill="none" stroke="#ffffff" stroke-linecap="round" stroke-linejoin="round" stroke-opacity="0.99215686" stroke-width="0.2"/>
    <path d="M283.75 55.6 L278.65 60.7 M279.35 69.2 L282.45 72.3 M271.4 67.95 L265.85 73.5 M266.05 55.9 L270.1 59.95" fill="none" stroke="#ffffff" stroke-linecap="round" stroke-linejoin="round" stroke-opacity="0.4" stroke-width="0.2"/>
    <path d="M278.65 60.7 L276.65 62.7 M276.55 66.4 L279.35 69.2 M273.45 65.9 L271.4 67.95 M270.1 59.95 L272.65 62.5" fill="none" stroke="#ffffff" stroke-linecap="round" stroke-linejoin="round" stroke-opacity="0.6117647" stroke-width="0.2"/>
    <path d="M276.65 62.7 L275.6 63.75 M275.35 65.2 L276.55 66.4 M274.25 65.1 L273.45 65.9 M272.65 62.5 L274.35 64.2" fill="none" stroke="#ffffff" stroke-linecap="round" stroke-linejoin="round" stroke-opacity="0.77254903" stroke-width="0.2"/>
    <path d="M275.6 63.75 L274.75 64.6 275.35 65.2 M274.75 64.6 L274.25 65.1 M274.35 64.2 L274.75 64.6" fill="none" stroke="#ffffff" stroke-linecap="round" stroke-linejoin="round" stroke-opacity="0.99215686" stroke-width="0.2"/>
    <path d="M273.0 168.95 L295.15 168.95 M240.05 104.75 L240.05 141.15 M240.05 192.8 L240.05 232.6 M178.1 168.95 L207.1 168.95" fill="none" stroke="#ffffff" stroke-linecap="round" stroke-linejoin="round" stroke-opacity="0.4" stroke-width="0.2"/>
    <path d="M253.1 168.95 L273.0 168.95 M240.05 141.15 L240.05 155.35 M240.05 178.05 L240.05 192.8 M207.1 168.95 L225.25 168.95" fill="none" stroke="#ffffff" stroke-linecap="round" stroke-linejoin="round" stroke-opacity="0.6117647" stroke-width="0.2"/>
    <path d="M240.05 155.35 L240.05 162.7 M244.55 168.95 L253.1 168.95 M240.05 172.35 L240.05 178.05 M225.25 168.95 L237.2 168.95" fill="none" stroke="#ffffff" stroke-linecap="round" stroke-linejoin="round" stroke-opacity="0.77254903" stroke-width="0.2"/>
    <path d="M240.05 162.7 L240.05 168.95 244.55 168.95 M240.05 168.95 L240.05 172.35 M237.2 168.95 L240.05 168.95" fill="none" stroke="#ffffff" stroke-linecap="round" stroke-linejoin="round" stroke-opacity="0.99215686" stroke-width="0.2"/>
    <path d="M259.65 134.95 L248.5 154.25 M257.45 179.1 L269.25 185.9 M232.65 181.7 L220.45 202.8 M207.1 150.05 L222.5 158.9" fill="none" stroke="#ffffff" stroke-linecap="round" stroke-linejoin="round" stroke-opacity="0.4" stroke-width="0.2"/>
    <path d="M248.5 154.25 L244.15 161.75 M246.9 173.0 L257.45 179.1 M237.2 173.85 L232.65 181.7 M222.5 158.9 L232.15 164.5" fill="none" stroke="#ffffff" stroke-linecap="round" stroke-linejoin="round" stroke-opacity="0.6117647" stroke-width="0.2"/>
    <path d="M244.15 161.75 L241.9 165.7 M242.4 170.4 L246.9 173.0 M238.9 170.8 L237.2 173.85 M232.15 164.5 L238.45 168.15" fill="none" stroke="#ffffff" stroke-linecap="round" stroke-linejoin="round" stroke-opacity="0.77254903" stroke-width="0.2"/>
    <path d="M241.9 165.7 L239.95 169.0 242.4 170.4 M239.95 169.0 L238.9 170.8 M238.45 168.15 L239.95 169.0" fill="none" stroke="#ffffff" stroke-linecap="round" stroke-linejoin="round" stroke-opacity="0.99215686" stroke-width="0.2"/>
    <path d="M250.35 178.6 L257.4 185.65 M260.3 147.75 L248.75 159.3 M232.3 175.75 L219.65 188.4 M220.2 148.45 L229.4 157.65" fill="none" stroke="#ffffff" stroke-linecap="round" stroke-linejoin="round" stroke-opacity="0.4" stroke-width="0.2"/>
    <path d="M244.05 172.3 L250.35 178.6 M248.75 159.3 L244.2 163.85 M237.0 171.05 L232.3 175.75 M229.4 157.65 L235.2 163.45" fill="none" stroke="#ffffff" stroke-linecap="round" stroke-linejoin="round" stroke-opacity="0.6117647" stroke-width="0.2"/>
    <path d="M244.2 163.85 L241.85 166.2 M241.3 169.55 L244.05 172.3 M238.8 169.25 L237.0 171.05 M235.2 163.45 L239.0 167.25" fill="none" stroke="#ffffff" stroke-linecap="round" stroke-linejoin="round" stroke-opacity="0.77254903" stroke-width="0.2"/>
    <path d="M241.85 166.2 L239.9 168.15 241.3 169.55 M239.9 168.15 L238.8 169.25 M239.0 167.25 L239.9 168.15" fill="none" stroke="#ffffff" stroke-linecap="round" stroke-linejoin="round" stroke-opacity="0.99215686" stroke-width="0.2"/>
    <path d="M310.7 184.15 L310.7 200.15 M325.2 212.4 L334.95 212.4 M310.7 222.9 L310.7 240.4 M283.45 212.4 L296.2 212.4" fill="none" stroke="#ffffff" stroke-linecap="round" stroke-linejoin="round" stroke-opacity="0.4" stroke-width="0.2"/>
    <path d="M310.7 200.15 L310.7 206.4 M316.45 212.4 L325.2 212.4 M310.7 216.4 L310.7 222.9 M296.2 212.4 L304.2 212.4" fill="none" stroke="#ffffff" stroke-linecap="round" stroke-linejoin="round" stroke-opacity="0.6117647" stroke-width="0.2"/>
    <path d="M310.7 206.4 L310.7 209.65 M312.7 212.4 L316.45 212.4 M310.7 213.9 L310.7 216.4 M304.2 212.4 L309.45 212.4" fill="none" stroke="#ffffff" stroke-linecap="round" stroke-linejoin="round" stroke-opacity="0.77254903" stroke-width="0.2"/>
    <path d="M310.7 209.65 L310.7 212.4 312.7 212.4 M310.7 212.4 L310.7 213.9 M309.45 212.4 L310.7 212.4" fill="none" stroke="#ffffff" stroke-linecap="round" stroke-linejoin="round" stroke-opacity="0.99215686" stroke-width="0.2"/>
    <path d="M318.35 216.85 L323.55 219.85 M319.3 197.4 L314.4 205.9 M307.45 218.0 L302.1 227.3 M296.2 204.05 L302.95 207.95" fill="none" stroke="#ffffff" stroke-linecap="round" stroke-linejoin="round" stroke-opacity="0.4" stroke-width="0.2"/>
    <path d="M313.7 214.15 L318.35 216.85 M314.4 205.9 L312.5 209.25 M309.45 214.55 L307.45 218.0 M302.95 207.95 L307.2 210.4" fill="none" stroke="#ffffff" stroke-linecap="round" stroke-linejoin="round" stroke-opacity="0.6117647" stroke-width="0.2"/>
    <path d="M312.5 209.25 L311.5 210.95 M311.75 213.0 L313.7 214.15 M310.2 213.2 L309.45 214.55 M307.2 210.4 L310.0 212.0" fill="none" stroke="#ffffff" stroke-linecap="round" stroke-linejoin="round" stroke-opacity="0.77254903" stroke-width="0.2"/>
    <path d="M311.5 210.95 L310.65 212.4 311.75 213.0 M310.65 212.4 L310.2 213.2 M310.0 212.0 L310.65 212.4" fill="none" stroke="#ffffff" stroke-linecap="round" stroke-linejoin="round" stroke-opacity="0.99215686" stroke-width="0.2"/>
    <path d="M319.65 203.05 L314.55 208.15 M315.25 216.65 L318.35 219.75 M307.3 215.4 L301.75 220.95 M301.95 203.35 L306.0 207.4" fill="none" stroke="#ffffff" stroke-linecap="round" stroke-linejoin="round" stroke-opacity="0.4" stroke-width="0.2"/>
    <path d="M314.55 208.15 L312.55 210.15 M312.45 213.85 L315.25 216.65 M309.35 213.35 L307.3 215.4 M306.0 207.4 L308.55 209.95" fill="none" stroke="#ffffff" stroke-linecap="round" stroke-linejoin="round" stroke-opacity="0.6117647" stroke-width="0.2"/>
    <path d="M312.55 210.15 L311.5 211.2 M311.25 212.65 L312.45 213.85 M310.15 212.55 L309.35 213.35 M308.55 209.95 L310.25 211.65" fill="none" stroke="#ffffff" stroke-linecap="round" stroke-linejoin="round" stroke-opacity="0.77254903" stroke-width="0.2"/>
    <path d="M311.5 211.2 L310.65 212.05 311.25 212.65 M310.65 212.05 L310.15 212.55 M310.25 211.65 L310.65 212.05" fill="none" stroke="#ffffff" stroke-linecap="round" stroke-linejoin="round" stroke-opacity="0.99215686" stroke-width="0.2"/>
    <path d="M219.3 230.65 L229.05 230.65 M204.8 202.4 L204.8 218.4 M204.8 241.15 L204.8 258.65 M177.55 230.65 L190.3 230.65" fill="none" stroke="#ffffff" stroke-linecap="round" stroke-linejoin="round" stroke-opacity="0.4" stroke-width="0.2"/>
    <path d="M210.55 230.65 L219.3 230.65 M204.8 218.4 L204.8 224.65 M204.8 234.65 L204.8 241.15 M190.3 230.65 L198.3 230.65" fill="none" stroke="#ffffff" stroke-linecap="round" stroke-linejoin="round" stroke-opacity="0.6117647" stroke-width="0.2"/>
    <path d="M204.8 224.65 L204.8 227.9 M206.8 230.65 L210.55 230.65 M204.8 232.15 L204.8 234.65 M198.3 230.65 L203.55 230.65" fill="none" stroke="#ffffff" stroke-linecap="round" stroke-linejoin="round" stroke-opacity="0.77254903" stroke-width="0.2"/>
    <path d="M204.8 227.9 L204.8 230.65 206.8 230.65 M204.8 230.65 L204.8 232.15 M203.55 230.65 L204.8 230.65" fill="none" stroke="#ffffff" stroke-linecap="round" stroke-linejoin="round" stroke-opacity="0.99215686" stroke-width="0.2"/>
    <path d="M213.4 215.65 L208.5 224.15 M212.45 235.1 L217.65 238.1 M201.55 236.25 L196.2 245.55 M190.3 222.3 L197.05 226.2" fill="none" stroke="#ffffff" stroke-linecap="round" stroke-linejoin="round" stroke-opacity="0.4" stroke-width="0.2"/>
    <path d="M208.5 224.15 L206.6 227.5 M207.8 232.4 L212.45 235.1 M203.55 232.8 L201.55 236.25 M197.05 226.2 L201.3 228.65" fill="none" stroke="#ffffff" stroke-linecap="round" stroke-linejoin="round" stroke-opacity="0.6117647" stroke-width="0.2"/>
    <path d="M206.6 227.5 L205.6 229.2 M205.85 231.25 L207.8 232.4 M204.3 231.45 L203.55 232.8 M201.3 228.65 L204.1 230.25" fill="none" stroke="#ffffff" stroke-linecap="round" stroke-linejoin="round" stroke-opacity="0.77254903" stroke-width="0.2"/>
    <path d="M205.6 229.2 L204.75 230.65 205.85 231.25 M204.75 230.65 L204.3 231.45 M204.1 230.25 L204.75 230.65" fill="none" stroke="#ffffff" stroke-linecap="round" stroke-linejoin="round" stroke-opacity="0.99215686" stroke-width="0.2"/>
    <path d="M209.35 234.9 L212.45 238.0 M213.75 221.3 L208.65 226.4 M201.4 233.65 L195.85 239.2 M196.05 221.6 L200.1 225.65" fill="none" stroke="#ffffff" stroke-linecap="round" stroke-linejoin="round" stroke-opacity="0.4" stroke-width="0.2"/>
    <path d="M206.55 232.1 L209.35 234.9 M208.65 226.4 L206.65 228.4 M203.45 231.6 L201.4 233.65 M200.1 225.65 L202.65 228.2" fill="none" stroke="#ffffff" stroke-linecap="round" stroke-linejoin="round" stroke-opacity="0.6117647" stroke-width="0.2"/>
    <path d="M206.65 228.4 L205.6 229.45 M205.35 230.9 L206.55 232.1 M204.25 230.8 L203.45 231.6 M202.65 228.2 L204.35 229.9" fill="none" stroke="#ffffff" stroke-linecap="round" stroke-linejoin="round" stroke-opacity="0.77254903" stroke-width="0.2"/>
    <path d="M205.6 229.45 L204.75 230.3 205.35 230.9 M204.75 230.3 L204.25 230.8 M204.35 229.9 L204.75 230.3" fill="none" stroke="#ffffff" stroke-linecap="round" stroke-linejoin="round" stroke-opacity="0.99215686" stroke-width="0.2"/>
  </g>
</svg>
