<?xml version="1.0" encoding="UTF-8" standalone="no"?>
<svg xmlns:xlink="http://www.w3.org/1999/xlink" height="77.65px" width="89.8px" xmlns="http://www.w3.org/2000/svg">
  <g transform="matrix(1.0, 0.0, 0.0, 1.0, -30.1, -223.15)">
    <path d="M64.45 273.35 L64.8 274.3 65.05 275.05 66.35 275.8 67.45 276.9 Q67.35 275.7 66.6 274.8 L65.3 273.8 Q64.65 273.4 64.45 273.35" fill="#695734" fill-rule="evenodd" stroke="none"/>
    <path d="M65.05 275.05 L65.3 278.2 65.1 279.75 65.15 279.9 66.3 278.95 67.4 277.55 67.5 277.3 67.45 276.9 66.35 275.8 65.05 275.05" fill="#47351d" fill-rule="evenodd" stroke="none"/>
    <path d="M38.15 269.7 L38.25 269.8 38.25 269.65 38.15 269.7" fill="#f4eee0" fill-rule="evenodd" stroke="none"/>
    <path d="M45.95 279.2 Q43.4 275.55 41.65 275.95 L40.75 276.0 39.6 277.25 39.1 277.95 39.1 278.0 38.0 279.6 37.6 280.45 Q36.9 281.85 36.4 284.55 L36.3 284.8 35.95 286.85 36.2 286.9 Q37.35 283.65 39.8 281.5 42.35 279.25 44.95 279.15 L45.95 279.2 M38.15 278.05 L38.25 276.9 38.45 276.3 38.45 276.25 37.95 275.6 37.0 274.7 35.3 274.1 Q33.95 275.0 32.35 278.05 L32.2 278.2 Q30.45 281.5 30.1 283.85 L30.1 284.4 30.3 283.8 31.35 282.15 Q32.65 280.3 34.95 279.05 36.6 278.25 38.15 278.05" fill="#cfd1b8" fill-rule="evenodd" stroke="none"/>
    <path d="M38.15 278.05 Q36.6 278.25 34.95 279.05 32.65 280.3 31.35 282.15 L30.3 283.8 30.1 284.4 30.1 284.5 30.7 284.8 33.25 285.2 35.75 284.9 36.3 284.8 36.4 284.55 Q36.9 281.85 37.6 280.45 L38.0 279.6 38.15 278.05" fill="#7a7549" fill-rule="evenodd" stroke="none"/>
    <path d="M46.95 286.55 L48.3 285.95 48.5 285.8 Q48.5 283.05 46.05 279.4 L45.95 279.2 44.95 279.15 Q42.35 279.25 39.8 281.5 37.35 283.65 36.2 286.9 L38.5 287.35 42.8 287.45 46.65 286.7 46.95 286.55" fill="#9c9a5d" fill-rule="evenodd" stroke="none"/>
    <path d="M39.2 274.55 Q39.4 274.25 39.8 274.15 L40.15 274.0 Q41.45 273.35 43.3 273.2 45.65 273.1 47.1 274.7 47.95 275.55 49.2 278.15 L49.45 278.55 49.85 279.05 Q51.85 281.45 55.7 281.25 L58.25 280.8 58.4 279.35 58.35 278.9 58.4 278.7 Q53.9 277.05 49.5 274.1 L49.55 273.95 Q47.8 271.5 46.15 270.75 L44.55 270.35 43.4 270.55 Q42.4 271.05 41.45 271.95 L40.95 272.35 39.55 273.95 40.95 272.35 41.45 271.95 Q39.75 270.45 38.25 269.8 L38.15 269.7 Q36.8 269.15 35.95 269.15 35.0 269.15 34.0 270.7 32.75 272.8 32.35 274.45 L33.0 273.55 Q34.15 272.15 35.45 272.1 36.15 272.0 37.8 272.9 L39.55 273.95 39.2 274.55" fill="#e6b100" fill-rule="evenodd" stroke="none"/>
    <path d="M63.15 270.55 L63.05 270.55 61.55 270.0 57.6 268.65 55.3 267.8 Q53.6 267.15 51.9 266.65 50.0 266.0 49.85 264.8 L43.2 267.2 41.7 267.9 Q39.65 268.75 38.25 269.65 L38.25 269.8 Q39.75 270.45 41.45 271.95 42.4 271.05 43.4 270.55 L44.55 270.35 46.15 270.75 Q47.8 271.5 49.55 273.95 L49.5 274.1 Q53.9 277.05 58.4 278.7 L58.35 278.9 58.4 279.35 58.25 280.8 55.7 281.25 Q51.85 281.45 49.85 279.05 L49.45 278.55 49.2 278.15 Q47.95 275.55 47.1 274.7 45.65 273.1 43.3 273.2 41.45 273.35 40.15 274.0 L39.8 274.15 Q39.4 274.25 39.2 274.55 L39.55 273.95 37.8 272.9 Q36.15 272.0 35.45 272.1 34.15 272.15 33.0 273.55 L32.35 274.45 32.1 276.1 Q32.1 277.35 32.35 278.05 33.95 275.0 35.3 274.1 L37.0 274.7 37.95 275.6 38.45 276.25 38.45 276.3 38.25 276.9 38.15 278.05 38.0 279.6 39.1 278.0 39.1 277.95 39.6 277.25 40.75 276.0 41.65 275.95 Q43.4 275.55 45.95 279.2 L46.05 279.4 Q48.5 283.05 48.5 285.8 L48.3 285.95 46.95 286.55 48.15 286.7 51.95 285.85 56.45 284.7 56.85 284.55 61.3 282.9 Q63.35 281.9 64.45 280.9 L65.0 280.2 65.05 279.9 65.1 279.75 65.3 278.2 65.05 275.05 64.8 274.3 64.45 273.35 64.35 273.1 63.35 271.9 63.15 270.55 M63.8 274.55 L63.65 273.3 63.35 271.9 63.65 273.3 63.8 274.55 M39.85 276.05 L40.75 276.0 39.85 276.05 M35.3 274.1 L34.65 273.95 35.3 274.1 M38.45 276.25 Q38.55 275.7 39.2 274.55 38.55 275.7 38.45 276.25" fill="#8d4803" fill-rule="evenodd" stroke="none"/>
    <path d="M63.15 270.55 L63.35 271.9 63.65 273.3 63.8 274.55 M39.2 274.55 L39.55 273.95 40.95 272.35 41.45 271.95 Q42.4 271.05 43.4 270.55 L44.55 270.35 46.15 270.75 Q47.8 271.5 49.55 273.95 M64.45 273.35 L64.8 274.3 65.05 275.05 65.3 278.2 65.1 279.75 65.05 279.9 65.0 280.2 64.45 280.9 Q63.35 281.9 61.3 282.9 L56.85 284.55 56.45 284.7 51.95 285.85 48.15 286.7 46.95 286.55 48.3 285.95 48.5 285.8 Q48.5 283.05 46.05 279.4 L45.95 279.2 Q43.4 275.55 41.65 275.95 L40.75 276.0 39.85 276.05 M67.45 276.9 L67.5 277.3 67.4 277.55 66.3 278.95 65.15 279.9 65.05 279.9 M67.45 276.9 Q67.35 275.7 66.6 274.8 L65.3 273.8 Q64.65 273.4 64.45 273.35 L64.35 273.1 63.35 271.9 M38.15 269.7 L38.25 269.8 Q39.75 270.45 41.45 271.95 M38.25 269.65 Q39.65 268.75 41.7 267.9 L43.2 267.2 49.85 264.8 M32.35 274.45 Q32.75 272.8 34.0 270.7 35.0 269.15 35.95 269.15 36.8 269.15 38.15 269.7 M32.35 278.05 Q33.95 275.0 35.3 274.1 L37.0 274.7 37.95 275.6 38.45 276.25 38.45 276.3 38.25 276.9 38.15 278.05 38.0 279.6 39.1 278.0 39.1 277.95 39.6 277.25 40.75 276.0 M30.1 284.4 L30.1 283.85 Q30.45 281.5 32.2 278.2 L32.35 278.05 Q32.1 277.35 32.1 276.1 L32.35 274.45 M34.65 273.95 L35.3 274.1 M36.2 286.9 L35.95 286.85 36.3 284.8 36.4 284.55 Q36.9 281.85 37.6 280.45 L38.0 279.6 M46.95 286.55 L46.65 286.7 42.8 287.45 38.5 287.35 36.2 286.9 M36.3 284.8 L35.75 284.9 33.25 285.2 30.7 284.8 30.1 284.5 30.1 284.4 M39.2 274.55 Q38.55 275.7 38.45 276.25" fill="none" stroke="#332720" stroke-linecap="round" stroke-linejoin="round" stroke-opacity="0.2" stroke-width="0.05"/>
    <path d="M112.55 264.3 L112.65 264.2 112.2 264.2 112.25 264.3 112.55 264.3 M108.45 263.9 L108.25 264.15 108.2 264.2 108.1 264.35 Q109.55 262.85 108.45 263.9" fill="#9a275b" fill-rule="evenodd" stroke="none"/>
    <path d="M99.6 276.5 L99.6 276.4 99.5 276.5 99.6 276.5" fill="#cfd1b8" fill-rule="evenodd" stroke="none"/>
    <path d="M108.0 272.15 L108.05 271.95 108.05 271.85 108.0 271.9 108.0 272.15" fill="#347998" fill-rule="evenodd" stroke="none"/>
    <path d="M118.5 264.4 L118.1 265.4 118.3 265.25 118.45 264.65 118.5 264.4 M115.75 259.5 L115.2 260.0 114.65 260.45 114.6 260.6 114.25 261.25 114.45 261.15 115.3 259.95 115.75 259.5 M115.3 259.95 L114.75 260.4 114.65 260.45 114.75 260.4 115.3 259.95" fill="#641c40" fill-rule="evenodd" stroke="none"/>
    <path d="M108.05 271.95 L108.15 271.9 108.25 271.75 108.3 271.65 108.85 270.45 109.75 268.25 108.25 270.45 108.15 270.45 108.05 270.6 105.55 272.95 105.55 273.75 105.6 273.9 105.55 273.75 105.55 272.95 Q104.1 273.9 102.75 274.3 L102.65 274.4 100.65 274.65 99.6 274.55 99.5 275.3 99.6 276.4 99.6 276.5 99.7 276.1 100.05 275.85 100.0 275.65 100.2 275.65 100.25 275.55 Q100.5 275.2 100.8 275.3 L101.4 275.15 102.7 275.0 102.65 274.4 102.7 275.0 102.0 276.75 101.7 277.2 102.55 276.25 102.65 275.7 102.8 275.4 103.0 275.05 103.75 274.8 Q104.3 274.7 105.6 273.9 L105.5 274.75 105.6 274.45 105.65 274.2 Q105.8 273.85 105.9 273.85 105.85 273.8 105.95 273.7 L106.3 273.4 106.5 273.3 108.0 271.9 108.05 271.85 108.05 271.95 M108.05 271.85 L108.15 271.35 108.05 270.6 108.15 271.35 108.05 271.85" fill="#7a7549" fill-rule="evenodd" stroke="none"/>
    <path d="M95.75 273.95 L95.8 275.55 96.05 276.2 Q96.75 277.65 97.8 278.15 L99.45 277.85 99.5 277.8 101.2 277.3 101.7 277.2 Q103.3 276.7 104.8 275.4 L105.25 275.1 105.4 275.0 Q105.4 274.9 105.5 274.95 L107.55 272.9 108.0 272.15 108.0 271.9 106.5 273.3 106.3 273.4 105.95 273.7 Q105.85 273.8 105.9 273.85 105.8 273.85 105.65 274.2 L105.6 274.45 105.5 274.75 105.6 273.9 Q104.3 274.7 103.75 274.8 L103.0 275.05 102.8 275.4 102.65 275.7 102.55 276.25 101.7 277.2 102.0 276.75 102.7 275.0 101.4 275.15 100.8 275.3 Q100.5 275.2 100.25 275.55 L100.2 275.65 100.0 275.65 100.05 275.85 99.7 276.1 99.6 276.5 99.5 276.5 99.6 276.4 99.5 275.3 99.6 274.55 95.75 273.95 M105.5 274.75 L105.4 275.0 105.5 274.75" fill="#605b39" fill-rule="evenodd" stroke="none"/>
    <path d="M112.65 264.2 L116.8 264.4 119.35 255.75 119.65 254.85 118.25 255.4 117.1 255.85 Q115.2 256.55 113.55 257.5 108.75 259.75 104.75 262.5 L104.7 262.55 104.7 262.6 106.8 263.4 108.45 263.9 Q109.55 262.85 108.1 264.35 L108.2 264.2 107.65 264.55 Q105.9 266.2 103.7 267.2 101.9 268.1 99.8 268.4 L97.5 268.7 97.3 268.8 Q99.65 270.05 101.2 272.95 106.75 271.0 110.85 264.15 L112.85 262.1 112.85 262.15 114.6 260.6 114.65 260.45 115.2 260.0 115.75 259.5 115.3 259.95 114.45 261.15 114.25 261.25 113.2 263.15 112.65 264.2 M114.35 258.85 Q109.45 262.6 108.45 263.9 109.45 262.6 114.35 258.85" fill="#e6b100" fill-rule="evenodd" stroke="none"/>
    <path d="M118.5 264.4 Q120.2 260.1 119.85 254.75 L119.65 254.85 119.35 255.75 116.8 264.4 112.65 264.2 112.55 264.3 Q111.9 265.4 111.45 265.2 111.0 264.9 110.8 265.4 L110.7 265.75 110.8 265.4 Q111.0 264.9 111.45 265.2 111.9 265.4 112.55 264.3 L112.25 264.3 112.2 264.2 112.65 264.2 113.2 263.15 114.25 261.25 114.6 260.6 112.85 262.15 112.85 262.1 110.85 264.15 Q106.75 271.0 101.2 272.95 99.65 270.05 97.3 268.8 96.55 269.15 96.25 270.0 95.85 271.45 95.75 272.8 L95.75 273.95 99.6 274.55 100.65 274.65 102.65 274.4 102.75 274.3 Q104.1 273.9 105.55 272.95 L108.05 270.6 108.15 270.45 108.25 270.45 109.75 268.25 110.7 265.75 111.6 265.9 Q111.6 265.8 111.75 265.85 L112.15 266.0 115.0 265.9 115.6 265.9 117.6 265.65 Q117.85 265.45 118.1 265.4 L118.5 264.4 M104.55 262.95 Q104.85 263.3 106.1 263.9 L106.6 264.15 107.65 264.55 108.2 264.2 108.25 264.15 108.45 263.9 106.8 263.4 104.7 262.6 104.55 262.95" fill="#8d4803" fill-rule="evenodd" stroke="none"/>
    <path d="M119.65 254.85 L119.85 254.75 Q120.2 260.1 118.5 264.4 L118.1 265.4 M110.7 265.75 L110.8 265.4 Q111.0 264.9 111.45 265.2 111.9 265.4 112.55 264.3 L112.65 264.2 113.2 263.15 114.25 261.25 114.6 260.6 114.65 260.45 114.75 260.4 115.3 259.95 M119.65 254.85 L118.25 255.4 117.1 255.85 Q115.2 256.55 113.55 257.5 108.75 259.75 104.75 262.5 L104.7 262.55 Q104.5 262.7 104.55 262.95 104.85 263.3 106.1 263.9 L106.6 264.15 107.65 264.55 Q105.9 266.2 103.7 267.2 101.9 268.1 99.8 268.4 L97.5 268.7 97.3 268.8 Q96.55 269.15 96.25 270.0 95.85 271.45 95.75 272.8 L95.75 273.95 95.8 275.55 96.05 276.2 Q96.75 277.65 97.8 278.15 L99.45 277.85 99.5 277.8 101.2 277.3 101.7 277.2 Q103.3 276.7 104.8 275.4 M105.25 275.1 L105.4 275.0 Q105.4 274.9 105.5 274.95 L107.55 272.9 108.0 272.15 108.05 271.95 108.15 271.9 108.25 271.75 108.3 271.65 108.85 270.45 109.75 268.25 110.7 265.75 M115.75 259.5 L115.2 260.0 114.65 260.45 M108.45 263.9 L108.25 264.15 108.2 264.2 107.65 264.55 M108.45 263.9 Q109.55 262.85 108.1 264.35 L108.2 264.2 M104.7 262.6 L104.55 262.95 M99.6 274.55 L100.65 274.65 102.65 274.4 102.7 275.0 102.0 276.75 101.7 277.2 M95.75 273.95 L99.6 274.55 M108.05 270.6 L108.15 270.45 108.25 270.45 109.75 268.25 M105.5 274.75 L105.6 273.9 105.55 273.75 105.55 272.95 108.05 270.6 108.15 271.35 108.05 271.85 108.0 271.9 108.0 272.15 M105.4 275.0 L105.5 274.75 M105.55 272.95 Q104.1 273.9 102.75 274.3 L102.65 274.4 M108.45 263.9 Q109.45 262.6 114.35 258.85" fill="none" stroke="#332720" stroke-linecap="round" stroke-linejoin="round" stroke-opacity="0.2" stroke-width="0.05"/>
    <path d="M83.75 246.7 L84.75 246.15 Q85.05 245.95 85.65 245.8 L86.4 245.2 86.5 245.15 86.5 245.05 86.75 244.55 86.65 244.55 85.95 244.75 85.65 245.05 84.5 245.7 84.4 245.85 83.75 246.7" fill="#2f2e1e" fill-rule="evenodd" stroke="none"/>
    <path d="M86.4 245.2 L85.65 245.8 Q85.05 245.95 84.75 246.15 L83.75 246.7 Q83.95 249.75 83.05 250.7 L82.5 250.8 81.95 250.6 81.4 250.3 80.95 249.95 80.85 249.95 Q79.3 250.4 78.95 251.5 L78.95 252.45 79.1 252.45 Q79.5 252.8 80.65 253.3 L81.75 253.55 83.5 253.4 Q84.5 252.35 85.05 250.05 85.75 247.8 85.65 246.6 L85.95 246.8 85.95 247.0 86.3 247.35 86.75 247.8 87.4 248.75 88.2 250.5 88.65 252.1 88.85 253.65 88.85 253.95 88.95 255.05 89.65 255.3 89.95 255.3 90.3 255.3 90.2 253.65 89.95 252.25 89.75 251.15 88.5 247.9 89.05 248.1 89.2 248.35 89.75 248.55 90.3 248.95 92.6 250.6 94.2 251.9 96.05 253.75 96.5 253.55 97.2 253.2 97.75 252.8 98.05 252.65 Q92.85 248.45 86.85 245.4 L86.4 245.2 M82.1 251.5 L83.05 250.7 82.1 251.5" fill="#1d1d12" fill-rule="evenodd" stroke="none"/>
    <path d="M78.95 252.45 L78.95 251.5 Q79.3 250.4 80.85 249.95 L80.95 249.95 81.4 250.3 81.2 250.05 80.85 249.75 78.2 248.3 78.3 251.9 78.3 252.15 78.2 252.25 78.3 252.25 78.65 252.45 78.95 252.45" fill="#9a275b" fill-rule="evenodd" stroke="none"/>
    <path d="M86.75 244.55 L86.5 245.05 86.5 245.15 86.4 245.2 86.85 245.4 Q92.85 248.45 98.05 252.65 L98.2 252.45 98.4 252.1 92.95 247.9 Q89.75 245.7 87.4 244.85 L86.75 244.55 M89.2 248.35 L89.05 248.1 88.5 247.9 89.75 251.15 89.95 252.25 90.2 253.65 90.3 255.3 90.5 255.05 90.75 254.85 90.65 253.95 90.65 254.1 90.4 253.0 Q90.05 250.7 89.2 248.35 M85.95 247.0 L85.95 246.8 85.65 246.6 Q85.75 247.8 85.05 250.05 84.5 252.35 83.5 253.4 L81.75 253.55 80.65 253.3 Q79.5 252.8 79.1 252.45 L78.95 252.45 79.1 253.1 79.85 253.95 80.5 254.1 81.65 254.2 83.65 253.85 83.95 253.85 84.5 253.2 85.05 252.15 84.65 252.25 85.3 250.3 Q85.95 248.45 85.95 247.0" fill="#000000" fill-rule="evenodd" stroke="none"/>
    <path d="M94.2 251.9 L92.6 250.6 90.3 248.95 89.75 248.55 Q90.5 250.4 90.65 251.5 L90.95 253.55 91.5 253.0 92.05 252.55 91.75 251.7 91.6 251.45 92.3 252.15 92.3 252.35 92.6 252.15 92.95 252.1 92.6 251.5 92.6 251.45 92.85 251.5 93.3 251.9 93.4 252.0 94.2 251.9 M88.85 253.65 L88.65 252.1 88.2 250.5 87.4 248.75 86.75 247.8 86.3 247.35 Q86.3 249.0 85.75 251.15 L85.3 252.15 86.2 252.35 86.3 252.35 Q87.85 252.65 88.85 253.65" fill="#727850" fill-rule="evenodd" stroke="none"/>
    <path d="M89.75 248.55 L89.2 248.35 Q90.05 250.7 90.4 253.0 L90.65 254.1 90.65 253.95 90.95 253.65 90.95 253.55 90.65 251.5 Q90.5 250.4 89.75 248.55 M86.3 247.35 L85.95 247.0 Q85.95 248.45 85.3 250.3 L84.65 252.25 85.05 252.15 85.3 252.15 85.75 251.15 Q86.3 249.0 86.3 247.35" fill="#454730" fill-rule="evenodd" stroke="none"/>
    <path d="M78.95 252.45 L78.65 252.45 78.3 252.25 78.2 252.25 78.3 252.65 Q78.4 253.45 78.85 254.1 L78.95 254.1 Q79.75 254.6 80.5 254.1 L79.85 253.95 79.1 253.1 78.95 252.45" fill="#7c2150" fill-rule="evenodd" stroke="none"/>
    <path d="M78.95 254.1 L78.85 254.1 78.75 254.1 79.1 254.4 79.3 254.6 80.1 254.95 81.2 254.75 81.65 254.3 81.65 254.2 80.5 254.1 Q79.75 254.6 78.95 254.1" fill="#501633" fill-rule="evenodd" stroke="none"/>
    <path d="M83.75 246.7 L84.4 245.85 84.5 245.7 85.65 245.05 85.95 244.75 86.65 244.55 86.75 244.55 87.4 244.85 Q89.75 245.7 92.95 247.9 L98.4 252.1 98.2 252.45 98.05 252.65 97.75 252.8 97.2 253.2 96.5 253.55 96.05 253.75 94.2 251.9 92.6 250.6 90.3 248.95 89.75 248.55 89.2 248.35 89.05 248.1 88.5 247.9 M89.95 252.25 L90.2 253.65 90.3 255.3 89.95 255.3 89.65 255.3 88.95 255.05 88.85 253.95 88.85 253.65 88.65 252.1 88.2 250.5 87.4 248.75 86.75 247.8 86.3 247.35 85.95 247.0 85.95 246.8 85.65 246.6 M78.95 252.45 L78.95 251.5 Q79.3 250.4 80.85 249.95 L80.95 249.95 81.4 250.3 81.95 250.6 82.5 250.8 83.05 250.7 82.1 251.5 M78.2 248.3 L80.85 249.75 81.2 250.05 81.4 250.3 M83.75 246.7 Q83.95 249.75 83.05 250.7 M88.85 253.65 Q87.85 252.65 86.3 252.35 L86.2 252.35 85.3 252.15 85.05 252.15 84.5 253.2 83.95 253.85 83.65 253.85 81.65 254.2 80.5 254.1 79.85 253.95 79.1 253.1 78.95 252.45 M90.95 253.55 L90.95 253.65 90.65 253.95 90.65 254.1 90.4 253.0 Q90.05 250.7 89.2 248.35 M90.95 253.55 L91.5 253.0 92.05 252.55 91.75 251.7 91.6 251.45 92.3 252.15 92.3 252.35 92.6 252.15 92.95 252.1 92.6 251.5 92.85 251.5 93.3 251.9 93.4 252.0 94.2 251.9 M90.65 253.95 L90.75 254.85 90.5 255.05 90.3 255.3 M92.6 251.45 L92.6 251.5 M78.95 254.1 Q79.75 254.6 80.5 254.1 M85.05 252.15 L84.65 252.25 85.3 250.3 Q85.95 248.45 85.95 247.0" fill="none" stroke="#332720" stroke-linecap="round" stroke-linejoin="round" stroke-opacity="0.2" stroke-width="0.05"/>
    <path d="M101.5 274.95 L101.6 274.2 101.4 274.2 99.35 274.65 96.85 275.05 96.1 275.05 96.0 275.1 95.8 275.1 94.25 275.2 91.05 275.1 90.95 275.2 88.85 275.05 85.15 275.05 84.5 275.1 79.85 274.7 79.3 275.6 Q79.9 274.85 80.35 275.05 L81.7 275.2 82.75 275.5 83.6 275.55 84.2 275.75 83.35 276.8 84.2 276.05 Q84.4 275.65 84.8 275.65 L86.25 275.95 89.05 276.15 Q89.4 276.05 89.5 276.4 L89.6 276.5 87.6 277.9 86.7 278.5 88.25 277.65 89.05 277.15 89.5 276.85 90.2 276.6 93.0 276.7 95.0 276.6 94.65 276.85 92.8 278.65 94.35 277.55 94.55 277.45 95.0 276.95 95.1 276.8 95.6 276.5 95.7 276.4 100.05 275.3 100.8 275.1 99.65 276.4 97.65 278.05 97.65 278.15 Q99.0 277.55 99.85 276.8 L100.45 276.25 100.6 276.05 100.8 275.75 101.3 275.2 101.3 275.1 101.5 274.95 M70.85 278.35 L72.8 276.85 Q74.05 275.85 74.65 274.0 73.85 275.5 71.95 277.35 L70.6 278.35 70.85 278.35 M66.05 276.7 L67.8 276.05 69.05 275.1 70.3 273.55 70.75 272.6 Q69.05 275.1 67.8 275.75 L65.65 276.6 65.75 276.7 65.85 276.7 66.05 276.7 M69.5 271.15 Q65.95 273.65 62.0 273.85 L59.65 273.4 60.05 273.85 61.1 274.1 63.35 274.1 66.5 273.15 Q68.15 272.6 69.5 271.15 M96.0 275.1 L95.0 276.6 96.0 275.1 M101.4 274.2 L101.0 274.85 100.9 275.1 100.8 275.1 100.9 275.1 101.0 274.85 101.4 274.2 M84.5 275.1 L84.2 275.75 84.5 275.1 M90.95 275.2 L89.6 276.5 90.95 275.2" fill="#7a7549" fill-rule="evenodd" stroke="none"/>
    <path d="M79.85 274.7 L74.75 273.85 71.85 273.05 70.85 272.45 70.85 272.35 70.5 271.95 70.4 271.75 69.7 271.05 69.6 270.9 69.05 270.3 68.55 269.75 68.15 269.1 68.1 267.65 68.05 266.75 67.6 263.7 Q66.5 260.1 62.45 260.3 L61.1 260.55 60.9 260.55 60.45 260.75 Q59.55 261.4 58.7 262.7 57.65 264.1 57.35 265.55 56.75 267.8 57.05 269.2 L56.85 269.35 57.15 270.05 57.75 271.3 58.5 272.35 58.9 273.05 Q59.3 273.35 59.55 273.35 L59.65 273.4 62.0 273.85 Q65.95 273.65 69.5 271.15 68.15 272.6 66.5 273.15 L63.35 274.1 61.1 274.1 60.05 273.85 61.4 274.55 62.95 275.3 63.8 275.75 65.45 276.5 65.65 276.6 65.65 276.5 65.45 276.5 65.65 276.5 65.65 276.6 67.8 275.75 Q69.05 275.1 70.75 272.6 L70.3 273.55 69.05 275.1 67.8 276.05 66.05 276.7 66.05 276.8 68.55 277.7 69.9 278.15 70.5 278.35 70.6 278.35 71.95 277.35 Q73.85 275.5 74.65 274.0 74.05 275.85 72.8 276.85 L70.85 278.35 75.2 279.2 76.85 278.15 79.2 275.85 79.2 275.75 79.3 275.6 79.2 275.75 79.2 275.85 76.85 278.15 75.2 279.2 77.25 279.35 79.65 279.75 84.2 280.05 84.7 280.05 88.65 279.95 90.3 279.85 91.65 279.65 92.5 279.55 95.8 278.9 96.0 278.9 96.1 278.85 96.65 278.65 Q96.95 278.65 97.45 278.25 L97.65 278.05 99.65 276.4 100.8 275.1 100.05 275.3 95.7 276.4 95.6 276.5 95.1 276.8 95.0 276.95 94.55 277.45 94.35 277.55 92.8 278.65 90.3 279.85 92.8 278.65 94.65 276.85 95.0 276.6 93.0 276.7 90.2 276.6 89.5 276.85 89.05 277.15 88.25 277.65 86.7 278.5 87.6 277.9 89.6 276.5 89.5 276.4 Q89.4 276.05 89.05 276.15 L86.25 275.95 84.8 275.65 Q84.4 275.65 84.2 276.05 L83.35 276.8 84.2 275.75 83.6 275.55 82.75 275.5 81.7 275.2 80.35 275.05 Q79.9 274.85 79.3 275.6 L79.85 274.7 M74.75 273.85 L74.65 274.0 74.75 273.85 M70.85 272.45 L70.75 272.6 70.85 272.45 M83.35 276.8 L82.35 277.9 79.65 279.75 82.35 277.9 83.35 276.8 M86.7 278.5 L84.2 280.05 86.7 278.5 M69.7 271.05 L69.5 271.15 69.7 271.05" fill="#605b39" fill-rule="evenodd" stroke="none"/>
    <path d="M66.05 276.7 L65.85 276.7 66.05 276.8 66.05 276.7" fill="#1b3e4b" fill-rule="evenodd" stroke="none"/>
    <path d="M58.5 272.35 L58.3 272.6 58.9 273.05 58.5 272.35" fill="#9b8553" fill-rule="evenodd" stroke="none"/>
    <path d="M97.65 278.05 L97.45 278.25 97.65 278.15 97.65 278.05" fill="#347998" fill-rule="evenodd" stroke="none"/>
    <path d="M68.05 253.6 Q69.6 255.55 71.05 259.65 72.9 264.6 72.6 269.05 88.6 273.6 102.55 272.4 102.75 270.65 102.25 269.85 L101.9 269.35 101.7 269.1 101.5 269.0 Q96.55 268.8 92.9 267.45 90.3 266.5 85.65 263.35 83.35 261.85 81.8 259.1 L81.2 257.8 Q81.3 254.9 79.2 253.45 77.9 252.6 75.9 252.4 L73.4 252.35 Q70.95 252.6 68.05 253.6" fill="#e6b100" fill-rule="evenodd" stroke="none"/>
    <path d="M58.5 272.35 L57.75 271.3 57.15 270.05 56.85 269.35 57.05 269.2 Q56.75 267.8 57.35 265.55 57.65 264.1 58.7 262.7 59.55 261.4 60.45 260.75 L60.9 260.55 61.1 260.55 62.45 260.3 Q66.5 260.1 67.6 263.7 L68.05 266.75 68.1 267.65 68.15 269.1 68.55 269.75 69.05 270.3 69.6 270.9 69.7 271.05 70.4 271.75 70.5 271.95 70.85 272.35 70.85 272.45 71.85 273.05 74.75 273.85 79.85 274.7 84.5 275.1 85.15 275.05 88.85 275.05 90.95 275.2 91.05 275.1 94.25 275.2 95.8 275.1 96.0 275.1 96.1 275.05 96.85 275.05 99.35 274.65 101.4 274.2 101.6 274.2 101.5 274.95 102.55 272.4 Q88.6 273.6 72.6 269.05 72.9 264.6 71.05 259.65 69.6 255.55 68.05 253.6 66.6 254.05 65.0 254.85 61.6 256.4 61.1 256.95 L58.2 259.65 Q54.65 263.25 53.3 267.7 L54.15 268.75 57.85 272.25 58.3 272.6 58.5 272.35" fill="#8d4803" fill-rule="evenodd" stroke="none"/>
    <path d="M79.85 274.7 L74.75 273.85 71.85 273.05 70.85 272.45 70.85 272.35 70.5 271.95 70.4 271.75 69.7 271.05 69.6 270.9 69.05 270.3 68.55 269.75 68.15 269.1 68.1 267.65 68.05 266.75 67.6 263.7 Q66.5 260.1 62.45 260.3 L61.1 260.55 60.9 260.55 60.45 260.75 Q59.55 261.4 58.7 262.7 57.65 264.1 57.35 265.55 56.75 267.8 57.05 269.2 L56.85 269.35 57.15 270.05 57.75 271.3 58.5 272.35 58.9 273.05 58.3 272.6 57.85 272.25 54.15 268.75 53.3 267.7 Q54.65 263.25 58.2 259.65 L61.1 256.95 Q61.6 256.4 65.0 254.85 66.6 254.05 68.05 253.6 70.95 252.6 73.4 252.35 L75.9 252.4 Q77.9 252.6 79.2 253.45 81.3 254.9 81.2 257.8 L81.8 259.1 Q83.35 261.85 85.65 263.35 90.3 266.5 92.9 267.45 96.55 268.8 101.5 269.0 M101.5 274.95 L101.6 274.2 101.4 274.2 99.35 274.65 96.85 275.05 96.1 275.05 96.0 275.1 95.8 275.1 94.25 275.2 91.05 275.1 90.95 275.2 88.85 275.05 85.15 275.05 84.5 275.1 79.85 274.7 79.3 275.6 79.2 275.75 79.2 275.85 76.85 278.15 75.2 279.2 70.85 278.35 70.6 278.35 71.95 277.35 Q73.85 275.5 74.65 274.0 L74.75 273.85 M65.85 276.7 L65.75 276.7 65.65 276.6 67.8 275.75 Q69.05 275.1 70.75 272.6 L70.85 272.45 M65.65 276.6 L65.45 276.5 65.65 276.5 65.65 276.6 M59.65 273.4 L62.0 273.85 Q65.95 273.65 69.5 271.15 L69.7 271.05 M60.05 273.85 L59.65 273.4 59.55 273.35 Q59.3 273.35 58.9 273.05 M65.45 276.5 L63.8 275.75 62.95 275.3 61.4 274.55 60.05 273.85 M70.6 278.35 L70.5 278.35 69.9 278.15 68.55 277.7 66.05 276.8 65.85 276.7 M100.8 275.1 L99.65 276.4 97.65 278.05 97.45 278.25 Q96.95 278.65 96.65 278.65 L96.1 278.85 96.0 278.9 95.8 278.9 92.5 279.55 91.65 279.65 90.3 279.85 92.8 278.65 94.65 276.85 95.0 276.6 96.0 275.1 M100.8 275.1 L100.9 275.1 101.0 274.85 101.4 274.2 M83.35 276.8 L84.2 275.75 84.5 275.1 M84.2 280.05 L79.65 279.75 82.35 277.9 83.35 276.8 M86.7 278.5 L87.6 277.9 89.6 276.5 90.95 275.2 M90.3 279.85 L88.65 279.95 84.7 280.05 84.2 280.05 86.7 278.5 M79.65 279.75 L77.25 279.35 75.2 279.2" fill="none" stroke="#332720" stroke-linecap="round" stroke-linejoin="round" stroke-opacity="0.2" stroke-width="0.05"/>
    <path d="M71.75 287.85 L71.7 287.75 71.65 287.95 71.75 287.85" fill="#9a275b" fill-rule="evenodd" stroke="none"/>
    <path d="M66.2 297.35 L67.7 296.75 68.65 294.45 Q69.15 292.75 68.95 291.95 L68.55 290.5 66.9 287.8 66.7 287.6 66.7 287.5 65.95 287.35 64.1 289.05 62.55 290.85 Q60.55 293.2 59.7 294.5 58.7 296.1 58.2 297.35 L58.15 298.3 59.1 298.45 Q62.35 298.7 65.4 297.65 L66.2 297.35 M79.2 299.65 L80.85 299.0 81.35 298.9 82.05 296.55 82.5 294.65 82.05 292.5 Q81.6 291.15 81.0 290.3 L80.65 289.95 79.45 290.7 76.25 293.2 72.75 296.65 Q71.35 298.3 70.7 300.45 L72.55 300.8 74.8 300.7 78.55 300.0 79.2 299.65" fill="#9c9a5d" fill-rule="evenodd" stroke="none"/>
    <path d="M58.15 298.3 L58.2 297.35 Q58.7 296.1 59.7 294.5 60.55 293.2 62.55 290.85 L64.1 289.05 65.95 287.35 63.9 286.9 63.3 286.9 63.05 286.9 62.3 287.05 62.0 287.3 61.85 287.5 61.35 287.75 61.05 288.05 60.65 288.4 60.65 288.5 60.45 288.6 60.15 289.05 59.4 290.5 58.35 294.2 Q57.9 295.35 57.85 296.75 L57.75 298.3 58.15 298.3 M70.95 294.2 L70.9 294.3 70.55 295.75 Q70.3 296.2 70.4 296.65 70.1 297.35 70.1 298.25 69.9 299.55 70.1 300.35 L70.7 300.45 Q71.35 298.3 72.75 296.65 L76.25 293.2 79.45 290.7 80.65 289.95 79.2 289.05 77.0 288.6 Q75.55 288.6 74.35 289.05 73.5 289.4 73.05 289.95 L71.8 291.95 Q71.2 293.3 70.95 294.2" fill="#cfd1b8" fill-rule="evenodd" stroke="none"/>
    <path d="M94.6 284.9 L94.65 284.8 94.6 284.9 M94.6 284.95 L94.65 285.25 94.65 285.15 94.6 284.95" fill="#641c40" fill-rule="evenodd" stroke="none"/>
    <path d="M94.65 284.8 L94.6 284.95 94.65 285.15 94.65 285.25 94.6 286.9 96.4 287.8 97.15 288.4 97.2 288.05 Q97.0 286.05 96.2 285.35 95.35 284.7 94.7 284.6 L94.65 284.7 94.65 284.8" fill="#695734" fill-rule="evenodd" stroke="none"/>
    <path d="M94.6 286.9 Q94.35 289.5 93.6 292.05 L94.3 291.55 96.0 289.95 97.15 288.4 96.4 287.8 94.6 286.9" fill="#47351d" fill-rule="evenodd" stroke="none"/>
    <path d="M71.7 287.75 L71.55 287.8 71.15 288.15 71.25 288.15 71.65 287.95 71.7 287.75" fill="#f4eee0" fill-rule="evenodd" stroke="none"/>
    <path d="M59.45 287.75 Q62.5 284.8 65.7 284.15 67.25 284.7 68.95 286.5 L70.05 287.6 70.35 287.95 71.0 288.5 71.15 288.6 71.25 288.15 71.15 288.15 71.55 287.8 71.7 287.75 Q72.8 286.4 75.25 284.8 77.55 283.1 79.15 282.9 80.55 283.1 82.8 284.4 85.2 285.6 85.8 288.15 85.2 285.6 82.8 284.4 80.55 283.1 79.15 282.9 77.55 283.1 75.25 284.8 72.8 286.4 71.7 287.75 L71.75 287.85 Q72.35 287.35 73.2 286.9 76.2 285.15 78.5 285.15 L81.95 287.15 Q84.55 289.05 85.55 291.15 L87.4 289.85 88.5 288.85 Q88.15 286.4 88.35 284.0 86.3 280.6 82.85 279.75 79.55 278.9 77.65 278.9 L73.15 279.45 Q70.6 279.75 68.3 280.45 65.65 281.25 63.35 282.25 L62.75 282.45 62.8 282.7 62.35 284.4 61.5 285.05 Q60.35 286.05 59.55 287.15 L59.45 287.75 M70.35 286.05 Q69.55 284.0 68.3 283.1 67.25 282.45 66.5 282.6 65.3 282.7 63.3 283.8 L62.35 284.4 63.3 283.8 Q65.3 282.7 66.5 282.6 67.25 282.45 68.3 283.1 69.55 284.0 70.35 286.05" fill="#e6b100" fill-rule="evenodd" stroke="none"/>
    <path d="M65.95 287.35 L66.7 287.5 66.7 287.6 66.9 287.8 68.55 290.5 68.95 291.95 Q69.15 292.75 68.65 294.45 L67.7 296.75 66.2 297.35 67.1 297.55 68.9 297.35 Q68.9 297.2 69.05 297.2 70.25 296.65 70.4 296.65 70.3 296.2 70.55 295.75 L70.9 294.3 70.95 294.2 70.8 292.4 71.0 289.4 71.2 289.3 71.15 288.6 71.2 289.3 71.0 289.4 70.8 292.4 70.95 294.2 Q71.2 293.3 71.8 291.95 L73.05 289.95 Q73.5 289.4 74.35 289.05 75.55 288.6 77.0 288.6 L79.2 289.05 80.65 289.95 81.0 290.3 Q81.6 291.15 82.05 292.5 L82.5 294.65 Q85.7 296.55 89.65 294.75 92.95 289.75 88.35 284.0 88.15 286.4 88.5 288.85 L87.4 289.85 85.55 291.15 Q84.55 289.05 81.95 287.15 L78.5 285.15 Q76.2 285.15 73.2 286.9 72.35 287.35 71.75 287.85 L71.65 287.95 71.25 288.15 71.15 288.6 71.0 288.5 70.35 287.95 70.05 287.6 68.95 286.5 Q67.25 284.7 65.7 284.15 62.5 284.8 59.45 287.75 L59.25 289.4 59.3 289.75 59.4 290.5 60.15 289.05 60.45 288.6 60.65 288.5 60.65 288.4 61.05 288.05 61.35 287.75 61.85 287.5 62.0 287.3 62.3 287.05 63.05 286.9 63.3 286.9 63.9 286.9 65.95 287.35 M72.4 289.6 Q73.45 289.15 74.35 289.05 73.45 289.15 72.4 289.6" fill="#bb6906" fill-rule="evenodd" stroke="none"/>
    <path d="M94.6 284.95 L94.6 284.9 94.65 284.8 Q93.5 279.3 84.65 275.2 L68.3 280.45 Q70.6 279.75 73.15 279.45 L77.65 278.9 Q79.55 278.9 82.85 279.75 86.3 280.6 88.35 284.0 92.95 289.75 89.65 294.75 85.7 296.55 82.5 294.65 L82.05 296.55 81.35 298.9 80.85 299.0 79.2 299.65 Q81.25 300.0 85.95 297.85 L88.6 296.55 91.5 294.9 93.6 292.65 93.6 292.05 Q94.35 289.5 94.6 286.9 L94.65 285.25 94.6 284.95" fill="#8d4803" fill-rule="evenodd" stroke="none"/>
    <path d="M65.95 287.35 L66.7 287.5 66.7 287.6 66.9 287.8 68.55 290.5 68.95 291.95 Q69.15 292.75 68.65 294.45 L67.7 296.75 66.2 297.35 65.4 297.65 Q62.35 298.7 59.1 298.45 L58.15 298.3 57.75 298.3 57.85 296.75 Q57.9 295.35 58.35 294.2 L59.4 290.5 59.3 289.75 59.25 289.4 59.45 287.75 59.55 287.15 Q60.35 286.05 61.5 285.05 L62.35 284.4 63.3 283.8 Q65.3 282.7 66.5 282.6 67.25 282.45 68.3 283.1 69.55 284.0 70.35 286.05 M65.95 287.35 L63.9 286.9 63.3 286.9 63.05 286.9 62.3 287.05 62.0 287.3 61.85 287.5 61.35 287.75 61.05 288.05 60.65 288.4 60.65 288.5 60.45 288.6 60.15 289.05 59.4 290.5 M71.15 288.6 L71.2 289.3 71.0 289.4 70.8 292.4 70.95 294.2 70.9 294.3 70.55 295.75 Q70.3 296.2 70.4 296.65 70.25 296.65 69.05 297.2 68.9 297.2 68.9 297.35 L67.1 297.55 66.2 297.35 M68.3 280.45 Q65.65 281.25 63.35 282.25 L62.75 282.45 62.8 282.7 62.35 284.4 M94.6 284.95 L94.6 284.9 94.65 284.8 94.6 284.95 94.65 285.25 94.6 286.9 Q94.35 289.5 93.6 292.05 L93.6 292.65 91.5 294.9 88.6 296.55 85.95 297.85 Q81.25 300.0 79.2 299.65 L80.85 299.0 81.35 298.9 82.05 296.55 82.5 294.65 82.05 292.5 Q81.6 291.15 81.0 290.3 L80.65 289.95 79.2 289.05 77.0 288.6 Q75.55 288.6 74.35 289.05 73.45 289.15 72.4 289.6 M68.3 280.45 L84.65 275.2 Q93.5 279.3 94.65 284.8 L94.6 284.9 M94.65 284.8 L94.65 284.7 94.7 284.6 Q95.35 284.7 96.2 285.35 97.0 286.05 97.2 288.05 L97.15 288.4 96.0 289.95 94.3 291.55 93.6 292.05 M94.65 285.25 L94.65 285.15 94.6 284.95 M71.7 287.75 Q72.8 286.4 75.25 284.8 77.55 283.1 79.15 282.9 80.55 283.1 82.8 284.4 85.2 285.6 85.8 288.15 M71.7 287.75 L71.55 287.8 71.15 288.15 71.25 288.15 71.15 288.6 M70.95 294.2 Q71.2 293.3 71.8 291.95 L73.05 289.95 Q73.5 289.4 74.35 289.05 M70.7 300.45 L70.1 300.35 Q69.9 299.55 70.1 298.25 70.1 297.35 70.4 296.65 M70.7 300.45 L72.55 300.8 74.8 300.7 78.55 300.0 79.2 299.65" fill="none" stroke="#332720" stroke-linecap="round" stroke-linejoin="round" stroke-opacity="0.2" stroke-width="0.05"/>
    <path d="M52.9 256.5 L51.0 256.05 Q48.8 255.7 46.6 256.45 40.25 258.55 42.75 265.6 L43.55 267.25 Q44.65 268.05 45.8 268.65 42.35 256.45 52.9 256.5" fill="#e6b100" fill-rule="evenodd" stroke="none"/>
    <path d="M52.9 256.5 Q42.35 256.45 45.8 268.65 44.65 268.05 43.55 267.25 L44.75 268.75 Q49.1 272.8 54.8 274.5 L56.35 274.9 Q60.95 276.0 63.15 274.0 63.95 273.25 64.45 272.05 L65.0 269.75 Q65.2 267.95 64.4 266.05 61.6 259.95 54.85 257.35 L52.9 256.5" fill="#8d4803" fill-rule="evenodd" stroke="none"/>
    <path d="M43.55 267.25 L42.75 265.6 Q40.25 258.55 46.6 256.45 48.8 255.7 51.0 256.05 L52.9 256.5 54.85 257.35 Q61.6 259.95 64.4 266.05 65.2 267.95 65.0 269.75 L64.45 272.05 Q63.95 273.25 63.15 274.0 M43.55 267.25 L44.75 268.75 Q49.1 272.8 54.8 274.5" fill="none" stroke="#332720" stroke-linecap="round" stroke-linejoin="round" stroke-opacity="0.2" stroke-width="0.05"/>
    <path d="M43.55 260.9 Q43.0 260.85 42.85 261.45 L42.65 262.15 42.75 262.65 43.3 263.7 Q43.85 264.25 44.6 264.35 45.3 264.4 45.75 263.95 46.2 263.45 46.0 262.85 L45.4 261.95 44.5 261.65 Q43.95 261.6 43.65 261.95 43.5 262.25 43.65 262.8 43.8 263.55 44.4 263.65 L44.95 263.4 45.0 263.0 44.75 262.7 44.4 262.55 Q43.95 262.5 44.05 262.7" fill="none" stroke="#9b8553" stroke-linecap="round" stroke-linejoin="round" stroke-width="1.5"/>
    <path d="M57.2 252.35 Q57.25 252.25 57.35 252.25 L57.25 252.2 57.2 252.35" fill="#d3c28e" fill-rule="evenodd" stroke="none"/>
    <path d="M54.55 264.8 L54.6 264.8 54.55 264.8" fill="#9a275b" fill-rule="evenodd" stroke="none"/>
    <path d="M57.25 252.2 L57.35 252.25 57.3 252.2 57.25 252.2" fill="#7c2150" fill-rule="evenodd" stroke="none"/>
    <path d="M60.75 256.9 L61.1 256.8 61.15 256.7 60.85 256.55 60.1 256.4 59.7 256.5 59.7 256.55 59.95 256.8 60.0 256.8 60.75 256.9 M59.7 258.0 L59.7 257.85 Q59.3 257.8 58.9 257.55 L57.55 257.25 57.05 257.35 56.8 257.4 56.85 257.45 57.0 257.65 Q58.45 257.8 59.6 258.25 L59.6 258.2 59.75 258.1 59.75 258.0 59.7 258.0 M56.5 260.5 Q54.5 260.0 54.85 260.7 L55.75 261.05 56.95 261.4 58.45 262.05 Q59.05 262.45 59.35 262.35 L59.65 262.15 59.3 261.7 58.05 261.05 56.5 260.5" fill="#eceadf" fill-rule="evenodd" stroke="none"/>
    <path d="M69.05 270.35 L69.3 270.05 69.35 270.0 Q58.55 266.85 54.3 263.95 L54.3 264.15 55.6 265.65 Q56.15 266.2 56.8 266.5 57.0 266.75 58.2 267.25 59.25 267.85 59.8 268.0 L61.5 268.6 62.15 268.8 65.05 269.6 67.55 270.05 68.75 270.35 69.05 270.4 69.05 270.35 M69.4 269.9 L69.45 269.8 70.75 267.0 70.7 266.8 Q60.35 261.15 54.45 259.75 L54.2 260.05 54.05 261.2 54.15 263.45 54.2 263.55 54.4 263.7 55.15 263.95 Q55.95 264.15 57.2 264.9 L60.2 266.25 64.5 267.95 67.85 269.1 69.4 269.9 M70.85 266.35 Q70.95 264.85 70.6 263.7 L70.4 262.75 Q60.95 257.4 56.95 256.8 L56.1 257.2 Q55.1 258.25 54.65 259.05 L54.6 259.3 Q56.35 259.3 59.55 260.6 L65.7 263.55 Q68.65 265.0 70.85 266.35 M70.3 262.5 Q69.6 261.15 68.4 259.8 65.8 258.1 63.55 257.15 61.2 256.15 60.2 256.1 L58.35 256.4 57.55 256.65 58.8 256.7 Q59.6 256.8 62.6 258.05 65.55 259.3 70.3 262.5 M60.75 256.9 L60.0 256.8 59.95 256.8 59.7 256.55 59.7 256.5 60.1 256.4 60.85 256.55 61.15 256.7 61.1 256.8 60.75 256.9 M59.7 258.0 L59.75 258.0 59.75 258.1 59.6 258.2 59.6 258.25 Q58.45 257.8 57.0 257.65 L56.85 257.45 56.8 257.4 57.05 257.35 57.55 257.25 58.9 257.55 Q59.3 257.8 59.7 257.85 L59.7 258.0 M56.5 260.5 L58.05 261.05 59.3 261.7 59.65 262.15 59.35 262.35 Q59.05 262.45 58.45 262.05 L56.95 261.4 55.75 261.05 54.85 260.7 Q54.5 260.0 56.5 260.5" fill="#cfd1b8" fill-rule="evenodd" stroke="none"/>
    <path d="M69.35 270.0 L69.4 269.9 67.85 269.1 64.5 267.95 60.2 266.25 57.2 264.9 Q55.95 264.15 55.15 263.95 L54.4 263.7 54.2 263.55 54.25 263.7 54.25 263.8 54.25 263.85 54.35 263.85 54.3 263.95 Q58.55 266.85 69.35 270.0 M70.7 266.8 L70.85 266.35 Q68.65 265.0 65.7 263.55 L59.55 260.6 Q56.35 259.3 54.6 259.3 54.45 259.4 54.45 259.75 60.35 261.15 70.7 266.8 M70.4 262.75 L70.3 262.5 Q65.55 259.3 62.6 258.05 59.6 256.8 58.8 256.7 L57.55 256.65 56.95 256.8 Q60.95 257.4 70.4 262.75 M54.3 264.15 L54.5 264.55 54.55 264.8 54.6 264.8 54.6 264.9 54.6 264.95 54.7 265.0 54.95 265.65 55.3 266.35 Q61.7 271.2 68.75 270.35 L67.55 270.05 65.05 269.6 62.15 268.8 61.5 268.6 59.8 268.0 Q59.25 267.85 58.2 267.25 57.0 266.75 56.8 266.5 56.15 266.2 55.6 265.65 L54.3 264.15 M56.7 268.4 L57.0 268.85 Q58.8 270.35 61.55 271.55 L63.4 272.1 65.25 272.55 66.85 272.6 66.9 272.55 Q60.1 271.3 56.7 268.4" fill="#9c9a5d" fill-rule="evenodd" stroke="none"/>
    <path d="M68.75 270.35 Q61.7 271.2 55.3 266.35 L56.7 268.4 Q60.1 271.3 66.9 272.55 L67.05 272.45 68.05 271.55 68.25 271.35 69.05 270.4 68.75 270.35 M57.0 268.85 L57.7 269.7 58.35 270.25 58.45 270.15 58.4 270.25 Q60.55 271.75 63.0 272.75 L63.35 272.9 63.7 273.0 66.7 273.95 66.3 273.4 66.45 273.0 66.85 272.6 65.25 272.55 63.4 272.1 61.55 271.55 Q58.8 270.35 57.0 268.85" fill="#7a7549" fill-rule="evenodd" stroke="none"/>
    <path d="M54.55 264.8 L54.6 264.9 54.6 264.8 54.55 264.8 M68.25 271.35 L68.05 271.55 68.2 271.5 68.25 271.35" fill="#f4eee0" fill-rule="evenodd" stroke="none"/>
    <path d="M57.35 252.25 Q57.25 252.25 57.2 252.35 54.1 254.05 52.8 257.4 52.3 258.5 52.2 259.55 51.95 262.05 53.3 264.65 L55.3 266.35 54.95 265.65 54.7 265.0 54.6 264.95 54.6 264.9 54.55 264.8 54.5 264.55 54.3 264.15 54.3 263.95 54.35 263.85 54.25 263.85 54.25 263.8 54.25 263.7 54.2 263.55 54.15 263.45 54.05 261.2 54.2 260.05 54.45 259.75 Q54.45 259.4 54.6 259.3 L54.65 259.05 Q55.1 258.25 56.1 257.2 L56.95 256.8 57.55 256.65 58.35 256.4 60.2 256.1 Q61.2 256.15 63.55 257.15 65.8 258.1 68.4 259.8 69.6 261.15 70.3 262.5 L70.4 262.75 70.6 263.7 Q70.95 264.85 70.85 266.35 L70.7 266.8 70.75 267.0 69.45 269.8 69.4 269.9 69.35 270.0 69.3 270.05 69.05 270.35 73.6 269.15 Q78.3 266.5 77.95 262.15 L78.05 261.3 77.8 261.25 76.05 260.55 Q73.6 259.4 69.05 256.6 64.5 253.85 62.8 253.25 L60.65 252.55 58.85 252.25 Q58.15 252.1 57.35 252.25" fill="#e6b100" fill-rule="evenodd" stroke="none"/>
    <path d="M78.05 261.3 L77.95 262.15 Q78.3 266.5 73.6 269.15 L69.05 270.35 69.05 270.4 68.25 271.35 68.2 271.5 68.05 271.55 67.05 272.45 66.9 272.55 66.85 272.6 66.45 273.0 66.3 273.4 66.7 273.95 Q76.6 274.65 80.15 269.6 81.9 266.1 81.4 262.45 81.15 260.5 80.3 258.5 78.6 254.6 75.0 252.65 78.35 257.3 78.05 261.3 M55.3 266.35 L53.3 264.65 Q53.65 265.45 54.35 266.25 55.8 268.25 57.7 269.7 L57.0 268.85 56.7 268.4 55.3 266.35" fill="#8d4803" fill-rule="evenodd" stroke="none"/>
    <path d="M57.35 252.25 Q58.15 252.1 58.85 252.25 L60.65 252.55 62.8 253.25 Q64.5 253.85 69.05 256.6 73.6 259.4 76.05 260.55 L77.8 261.25 78.05 261.3 Q78.35 257.3 75.0 252.65 73.25 251.5 70.85 251.0 63.95 249.4 59.2 251.25 L57.3 252.2 57.35 252.25" fill="#bb6906" fill-rule="evenodd" stroke="none"/>
    <path d="M57.2 252.35 L57.25 252.2 57.3 252.2 59.2 251.25 Q63.95 249.4 70.85 251.0 73.25 251.5 75.0 252.65 78.6 254.6 80.3 258.5 81.15 260.5 81.4 262.45 81.9 266.1 80.15 269.6 76.6 274.65 66.7 273.95 L63.7 273.0 M69.05 270.35 L69.3 270.05 69.35 270.0 69.4 269.9 69.45 269.8 70.75 267.0 70.7 266.8 70.85 266.35 Q70.95 264.85 70.6 263.7 L70.4 262.75 70.3 262.5 Q69.6 261.15 68.4 259.8 65.8 258.1 63.55 257.15 61.2 256.15 60.2 256.1 L58.35 256.4 57.55 256.65 56.95 256.8 56.1 257.2 Q55.1 258.25 54.65 259.05 L54.6 259.3 Q54.45 259.4 54.45 259.75 L54.2 260.05 54.05 261.2 54.15 263.45 54.2 263.55 54.25 263.7 54.25 263.8 54.25 263.85 54.35 263.85 54.3 263.95 54.3 264.15 54.5 264.55 54.55 264.8 54.6 264.8 54.6 264.9 54.6 264.95 54.7 265.0 54.95 265.65 55.3 266.35 56.7 268.4 57.0 268.85 57.7 269.7 Q55.8 268.25 54.35 266.25 53.65 265.45 53.3 264.65 51.95 262.05 52.2 259.55 52.3 258.5 52.8 257.4 54.1 254.05 57.2 252.35 M57.7 269.7 L58.35 270.25 M69.05 270.35 L69.05 270.4 68.25 271.35 68.05 271.55 67.05 272.45 66.9 272.55 Q60.1 271.3 56.7 268.4 M66.9 272.55 L66.85 272.6 66.45 273.0 66.3 273.4 66.7 273.95 M69.35 270.0 Q58.55 266.85 54.3 263.95 M70.4 262.75 Q60.95 257.4 56.95 256.8 M70.7 266.8 Q60.35 261.15 54.45 259.75" fill="none" stroke="#332720" stroke-linecap="round" stroke-linejoin="round" stroke-opacity="0.2" stroke-width="0.05"/>
    <path d="M66.6 237.9 L66.5 237.85 66.7 237.4 66.6 237.35 66.3 237.05 Q64.75 236.1 62.05 235.3 59.15 234.5 57.2 234.4 L57.2 234.7 57.1 234.9 Q61.75 235.8 66.3 237.85 L66.5 238.0 66.5 237.9 66.6 237.9 M66.3 239.55 L66.0 239.5 Q65.25 240.55 64.55 242.2 L63.95 244.1 63.7 243.65 63.6 244.8 63.5 245.6 63.6 245.9 64.55 247.6 64.45 247.55 65.05 248.25 65.5 248.45 65.6 248.5 66.2 248.6 66.6 248.1 66.6 248.2 66.7 248.15 66.7 248.05 66.6 248.1 66.5 248.1 65.4 247.65 64.75 247.0 63.95 245.65 Q64.05 244.25 64.85 242.25 65.6 240.25 66.3 239.55 M59.7 242.3 L60.5 241.2 61.25 240.35 62.05 239.75 64.25 238.4 63.8 238.15 Q62.05 239.1 60.8 240.55 L60.1 241.25 60.2 241.0 59.7 241.65 59.7 241.8 59.7 242.3" fill="#000000" fill-rule="evenodd" stroke="none"/>
    <path d="M66.5 238.0 L66.6 237.9 66.5 237.9 66.5 238.0" fill="#3780a0" fill-rule="evenodd" stroke="none"/>
    <path d="M66.6 237.9 L66.5 238.0 66.7 238.9 66.95 239.9 67.15 240.9 67.25 239.85 67.25 239.65 67.05 238.4 66.95 238.1 66.7 237.4 66.5 237.85 66.6 237.9" fill="#2f2e1e" fill-rule="evenodd" stroke="none"/>
    <path d="M67.15 240.9 L66.95 239.9 66.7 238.9 66.5 238.0 66.3 237.85 Q61.75 235.8 57.1 234.9 L57.2 235.35 57.3 235.9 57.4 236.65 57.6 237.15 59.45 237.05 60.9 237.35 62.8 237.85 63.2 237.9 63.6 238.1 63.8 238.15 64.25 238.4 62.05 239.75 61.25 240.35 60.5 241.2 59.7 242.3 59.8 242.35 60.0 242.6 60.4 243.0 61.0 242.25 Q61.0 242.15 61.25 242.1 L62.05 241.15 63.1 240.4 64.35 239.85 65.15 239.55 65.6 239.55 65.9 239.5 66.0 239.5 66.3 239.55 Q65.6 240.25 64.85 242.25 64.05 244.25 63.95 245.65 L64.75 247.0 65.4 247.65 66.5 248.1 66.6 248.1 66.7 248.05 66.7 248.15 67.15 247.45 Q67.55 246.55 66.95 245.15 L66.5 244.95 66.1 244.85 65.7 244.45 65.5 244.1 Q65.4 244.75 65.7 245.35 65.4 244.75 65.5 244.1 65.6 242.85 67.15 240.9" fill="#1d1d12" fill-rule="evenodd" stroke="none"/>
    <path d="M63.2 237.9 L62.8 237.85 60.9 237.35 59.45 237.05 59.8 237.65 59.9 237.8 60.3 237.85 60.4 237.9 60.4 238.05 60.0 238.15 60.1 238.5 60.1 238.75 60.2 238.65 60.9 238.65 60.2 239.15 60.2 239.85 60.2 240.6 61.35 239.35 63.2 237.9 M65.6 239.55 L65.15 239.55 64.35 239.85 63.1 240.4 62.05 241.15 61.25 242.1 Q62.25 242.15 63.0 242.95 L63.1 243.0 63.6 243.6 64.05 242.55 Q64.65 240.65 65.6 239.55" fill="#454730" fill-rule="evenodd" stroke="none"/>
    <path d="M63.8 238.15 L63.6 238.1 63.2 237.9 61.35 239.35 60.2 240.6 60.2 240.7 60.2 241.0 60.1 241.25 60.8 240.55 Q62.05 239.1 63.8 238.15 M66.0 239.5 L65.9 239.5 65.6 239.55 Q64.65 240.65 64.05 242.55 L63.6 243.6 63.7 243.65 63.95 244.1 64.55 242.2 Q65.25 240.55 66.0 239.5" fill="#2d2e1f" fill-rule="evenodd" stroke="none"/>
    <path d="M59.9 237.8 L59.8 237.65 59.8 237.75 59.9 237.8" fill="#727850" fill-rule="evenodd" stroke="none"/>
    <path d="M64.45 247.55 L64.45 248.2 Q64.55 248.8 64.95 249.0 L65.5 249.4 65.7 249.35 65.9 249.4 65.8 249.35 65.8 249.25 Q65.25 249.15 65.05 248.25 L64.45 247.55" fill="#501633" fill-rule="evenodd" stroke="none"/>
    <path d="M66.7 237.4 L66.95 238.1 67.05 238.4 67.25 239.65 67.25 239.85 67.15 240.9 Q65.6 242.85 65.5 244.1 L65.7 244.45 66.1 244.85 66.5 244.95 66.95 245.15 Q67.55 246.55 67.15 247.45 L66.7 248.15 66.6 248.2 66.6 248.1 66.2 248.6 65.6 248.5 65.5 248.45 65.05 248.25 Q65.25 249.15 65.8 249.25 M57.1 234.9 L57.2 234.7 57.2 234.4 Q59.15 234.5 62.05 235.3 64.75 236.1 66.3 237.05 L66.6 237.35 66.7 237.4 M63.2 237.9 L62.8 237.85 60.9 237.35 59.45 237.05 57.6 237.15 57.4 236.65 57.3 235.9 57.2 235.35 57.1 234.9 M63.8 238.15 L63.6 238.1 63.2 237.9 M60.2 240.6 L60.2 239.85 60.2 239.15 60.9 238.65 60.2 238.65 60.1 238.75 60.1 238.5 60.0 238.15 60.4 238.05 60.4 237.9 60.3 237.85 59.9 237.8 59.8 237.65 59.45 237.05 M66.3 239.55 L66.0 239.5 65.9 239.5 65.6 239.55 65.15 239.55 64.35 239.85 63.1 240.4 62.05 241.15 61.25 242.1 Q61.0 242.15 61.0 242.25 L60.4 243.0 60.0 242.6 59.8 242.35 59.7 242.3 60.5 241.2 61.25 240.35 M64.25 238.4 L63.8 238.15 Q62.05 239.1 60.8 240.55 L60.1 241.25 60.2 241.0 60.2 240.7 60.2 240.6 M59.8 237.65 L59.8 237.75 M60.2 241.0 L59.7 241.65 59.7 241.8 59.7 242.3 M61.25 242.1 Q62.25 242.15 63.0 242.95 L63.1 243.0 63.6 243.6 63.7 243.65 63.6 244.8 63.5 245.6 63.6 245.9 64.55 247.6 64.45 247.55 65.05 248.25 M63.7 243.65 L63.95 244.1 64.55 242.2 Q65.25 240.55 66.0 239.5 M65.5 244.1 Q65.4 244.75 65.7 245.35" fill="none" stroke="#332720" stroke-linecap="round" stroke-linejoin="round" stroke-opacity="0.2" stroke-width="0.05"/>
    <path d="M57.95 242.9 L57.9 243.05 57.8 243.35 57.8 243.6 57.85 243.8 57.95 243.75 58.45 243.85 59.2 244.1 58.9 243.5 58.35 243.05 57.95 242.9 M53.75 244.4 L53.75 244.35 53.8 244.35 53.9 244.3 Q54.1 244.05 54.4 244.0 L54.9 243.85 54.65 243.7 53.05 243.45 Q53.05 244.0 53.75 244.4 M52.75 249.5 L52.6 249.65 52.15 250.2 Q51.9 250.65 51.95 251.05 L52.25 250.9 53.1 250.45 53.05 250.45 53.0 250.3 52.75 249.5" fill="#9c9a5d" fill-rule="evenodd" stroke="none"/>
    <path d="M57.85 243.8 L57.8 243.6 57.8 243.35 57.9 243.05 57.95 242.9 57.85 242.85 Q57.45 243.4 57.4 243.65 L57.4 243.95 57.65 243.8 57.85 243.8 M53.5 244.8 L53.75 244.4 Q53.05 244.0 53.05 243.45 L53.05 244.3 53.25 244.8 53.35 245.05 53.5 244.8 M51.95 251.05 L52.9 251.35 53.8 251.05 53.1 250.45 52.25 250.9 51.95 251.05" fill="#7a7549" fill-rule="evenodd" stroke="none"/>
    <path d="M53.75 244.35 L53.75 244.4 53.75 244.35 M56.9 246.4 L56.95 246.4 56.85 246.35 56.9 246.4 M58.75 246.9 L58.8 246.85 58.75 246.85 58.75 246.9" fill="#561837" fill-rule="evenodd" stroke="none"/>
    <path d="M59.2 244.1 L58.45 243.85 57.95 243.75 57.85 243.8 57.8 243.8 57.7 244.05 57.65 244.1 57.65 244.15 57.65 244.3 57.8 244.55 57.85 244.65 57.65 245.25 57.4 246.15 57.3 246.8 57.55 247.15 57.35 247.25 57.1 247.45 57.05 246.75 56.9 246.45 56.9 246.4 56.85 246.35 56.95 246.4 56.9 245.8 56.7 245.05 56.3 244.35 56.2 244.25 55.95 244.05 55.45 243.9 54.9 243.85 54.4 244.0 Q54.1 244.05 53.9 244.3 L53.8 244.35 53.75 244.35 53.75 244.4 53.8 244.4 53.65 244.85 53.65 244.95 53.7 245.0 54.0 245.05 54.05 245.1 54.1 245.15 54.2 245.2 54.7 245.85 54.85 246.2 55.0 246.8 55.1 247.1 55.15 247.3 55.1 247.45 54.9 247.95 54.85 248.05 54.7 248.05 54.45 248.1 54.2 248.3 53.6 248.55 53.15 248.65 52.95 248.9 52.8 248.95 52.75 249.5 53.0 250.3 53.05 250.45 53.1 250.45 53.6 250.6 53.65 250.55 54.3 250.2 55.95 249.8 56.0 249.8 56.05 249.85 56.75 249.9 Q57.35 249.9 57.8 249.55 L58.05 249.55 58.8 249.7 59.25 249.3 59.7 248.6 59.8 248.3 59.45 247.6 59.2 247.25 59.05 247.1 59.0 247.0 58.75 246.9 58.75 246.85 58.8 246.85 59.05 246.9 59.2 247.1 59.15 246.8 59.0 246.7 59.0 246.55 59.1 246.2 59.55 245.15 59.6 244.75 59.5 244.4 59.2 244.1" fill="#e6b100" fill-rule="evenodd" stroke="none"/>
    <path d="M57.85 243.8 L57.65 243.8 57.4 243.95 57.05 244.3 57.2 244.65 57.1 245.15 56.9 245.8 56.95 246.4 56.9 246.4 56.9 246.45 57.3 246.8 57.4 246.15 57.65 245.25 57.85 244.65 57.8 244.55 57.65 244.3 57.65 244.15 57.65 244.1 57.7 244.05 57.8 243.8 57.85 243.8 M53.65 244.85 L53.5 244.8 53.35 245.05 53.25 245.4 53.2 245.75 53.3 246.1 53.7 246.2 54.25 247.2 54.45 248.1 54.7 248.05 54.85 248.05 54.9 247.95 55.1 247.45 55.15 247.3 55.1 247.1 55.0 246.8 54.85 246.2 54.7 245.85 54.2 245.2 54.1 245.15 54.05 245.1 54.0 245.05 53.7 245.0 53.65 244.95 53.65 244.85 M53.8 251.05 L53.95 251.1 54.55 251.25 54.65 251.2 54.8 251.15 56.15 250.55 Q56.05 250.2 56.5 250.25 L56.7 250.3 57.8 250.2 58.1 250.0 58.1 249.95 58.2 250.0 58.6 249.8 58.8 249.7 58.05 249.55 57.8 249.55 Q57.35 249.9 56.75 249.9 L56.05 249.85 56.0 249.8 55.95 249.8 54.3 250.2 53.65 250.55 53.6 250.6 53.1 250.45 53.8 251.05" fill="#8d4803" fill-rule="evenodd" stroke="none"/>
    <path d="M53.65 244.85 L53.8 244.4 53.75 244.4 53.5 244.8 53.65 244.85 M56.15 250.55 L56.7 250.3 56.5 250.25 Q56.05 250.2 56.15 250.55 M59.2 247.25 L59.2 247.1 59.05 246.9 58.8 246.85 58.75 246.9 59.0 247.0 59.05 247.1 59.2 247.25 M57.3 246.8 L56.9 246.45 57.05 246.75 57.1 247.45 57.35 247.25 57.55 247.15 57.3 246.8" fill="#bb6906" fill-rule="evenodd" stroke="none"/>
    <path d="M57.95 242.9 L58.35 243.05 58.9 243.5 59.2 244.1 58.45 243.85 57.95 243.75 57.85 243.8 57.65 243.8 57.4 243.95 57.4 243.65 Q57.45 243.4 57.85 242.85 L57.95 242.9 M53.75 244.4 L53.75 244.35 53.8 244.35 53.9 244.3 Q54.1 244.05 54.4 244.0 L54.9 243.85 54.65 243.7 53.05 243.45 53.05 244.3 53.25 244.8 53.35 245.05 53.25 245.4 53.2 245.75 53.3 246.1 53.7 246.2 54.25 247.2 54.45 248.1 54.2 248.3 53.6 248.55 53.15 248.65 52.95 248.9 52.8 248.95 52.75 249.5 52.6 249.65 52.15 250.2 Q51.9 250.65 51.95 251.05 L52.9 251.35 53.8 251.05 53.95 251.1 54.55 251.25 54.65 251.2 54.8 251.15 56.15 250.55 56.7 250.3 57.8 250.2 58.1 250.0 58.1 249.95 M53.5 244.8 L53.75 244.4 M59.8 248.3 L59.45 247.6 59.2 247.25 59.2 247.1 59.15 246.8 59.0 246.7 59.0 246.55 59.1 246.2 59.55 245.15 59.6 244.75 59.5 244.4 59.2 244.1 M53.5 244.8 L53.35 245.05 M56.9 245.8 L56.7 245.05 56.3 244.35 56.2 244.25 55.95 244.05 55.45 243.9 54.9 243.85 M57.3 246.8 L56.9 246.45 M56.9 246.4 L56.95 246.4 56.9 245.8 57.1 245.15 57.2 244.65 57.05 244.3 57.4 243.95 M56.95 246.4 L56.85 246.35 M57.3 246.8 L57.55 247.15 M54.45 248.1 L54.7 248.05 54.85 248.05 54.9 247.95 55.1 247.45 55.15 247.3 M53.1 250.45 L53.05 250.45 53.0 250.3 52.75 249.5 M56.7 250.3 L56.5 250.25 Q56.05 250.2 56.15 250.55 M53.8 251.05 L53.1 250.45" fill="none" stroke="#332720" stroke-linecap="round" stroke-linejoin="round" stroke-opacity="0.2" stroke-width="0.05"/>
    <path d="M67.95 246.5 Q61.9 244.55 59.2 245.55 L57.8 246.0 57.05 246.35 56.4 246.7 55.65 247.3 55.6 247.35 55.5 247.55 55.1 248.1 Q54.6 248.95 55.15 249.85 L56.35 249.8 60.4 249.9 66.35 250.8 67.05 249.85 67.45 248.8 67.75 247.7 67.65 247.1 67.95 246.5" fill="#e6b100" fill-rule="evenodd" stroke="none"/>
    <path d="M55.15 249.85 L55.75 250.6 55.8 250.65 Q60.0 250.6 64.2 252.35 L64.5 252.25 65.35 251.8 66.35 250.8 60.4 249.9 56.35 249.8 55.15 249.85" fill="#8d4803" fill-rule="evenodd" stroke="none"/>
    <path d="M67.95 246.5 Q61.9 244.55 59.2 245.55 L57.8 246.0 57.05 246.35 56.4 246.7 55.65 247.3 55.6 247.35 55.5 247.55 M55.8 250.65 Q60.0 250.6 64.2 252.35" fill="none" stroke="#332720" stroke-linecap="round" stroke-linejoin="round" stroke-opacity="0.2" stroke-width="0.05"/>
    <path d="M64.7 244.85 L64.65 244.85 64.65 244.9 64.65 245.0 64.7 244.85" fill="#7c2150" fill-rule="evenodd" stroke="none"/>
    <path d="M79.7 256.1 Q80.1 255.05 80.15 253.6 L80.2 251.8 80.2 251.2 80.05 250.7 79.95 250.5 79.1 249.9 Q75.9 250.2 72.65 249.75 69.35 249.15 67.4 248.2 65.45 247.3 64.85 246.55 64.25 245.8 64.65 245.0 L64.65 244.9 63.95 244.85 63.9 244.85 63.55 244.95 62.9 245.35 61.3 246.45 60.45 247.45 59.95 248.5 59.65 248.9 59.75 249.75 60.25 250.4 60.5 250.45 62.1 250.65 63.75 251.05 65.05 251.55 Q66.7 252.25 67.5 252.75 L69.0 254.0 69.15 254.15 70.05 254.6 71.95 255.45 72.05 255.5 72.85 255.3 Q75.05 254.65 76.2 253.7 L76.35 253.8 76.5 254.4 76.35 255.3 76.25 255.75 76.8 255.75 79.7 256.1" fill="#e6b100" fill-rule="evenodd" stroke="none"/>
    <path d="M59.65 248.9 L59.45 249.5 59.45 249.55 59.25 250.15 59.2 250.9 59.35 251.85 59.45 251.9 60.7 252.3 62.65 253.05 Q65.55 254.2 68.45 255.8 L69.45 256.4 70.2 256.75 72.3 257.85 73.45 258.35 74.05 258.7 75.05 259.2 75.7 259.5 76.4 259.3 77.9 258.6 78.6 258.0 79.25 257.25 79.7 256.1 76.8 255.75 76.25 255.75 76.35 255.3 76.5 254.4 76.35 253.8 76.2 253.7 Q75.05 254.65 72.85 255.3 L72.05 255.5 71.95 255.45 70.05 254.6 69.15 254.15 69.0 254.0 67.5 252.75 Q66.7 252.25 65.05 251.55 L63.75 251.05 62.1 250.65 60.5 250.45 60.25 250.4 59.75 249.75 59.65 248.9 M79.1 249.9 L77.0 248.8 74.35 247.5 73.55 247.15 Q69.95 245.7 66.65 245.15 L65.85 245.05 64.7 244.85 64.65 245.0 Q64.25 245.8 64.85 246.55 65.45 247.3 67.4 248.2 69.35 249.15 72.65 249.75 75.9 250.2 79.1 249.9 M73.55 255.65 Q73.15 256.0 72.05 255.95 L70.5 255.8 69.4 255.35 70.5 255.8 72.05 255.95 Q73.15 256.0 73.55 255.65 M68.65 254.65 Q67.9 254.0 66.6 253.2 L64.35 252.05 Q63.45 251.6 61.85 251.3 L60.05 251.05 61.85 251.3 Q63.45 251.6 64.35 252.05 L66.6 253.2 Q67.9 254.0 68.65 254.65" fill="#bb6906" fill-rule="evenodd" stroke="none"/>
    <path d="M59.65 248.9 L59.45 249.5 59.45 249.55 59.25 250.15 59.2 250.9 59.35 251.85 59.45 251.9 M76.4 259.3 L77.9 258.6 78.6 258.0 79.25 257.25 79.7 256.1 Q80.1 255.05 80.15 253.6 L80.2 251.8 80.2 251.2 80.05 250.7 79.95 250.5 79.1 249.9 77.0 248.8 74.35 247.5 73.55 247.15 Q69.95 245.7 66.65 245.15 L65.85 245.05 64.7 244.85 64.65 244.85 64.65 244.9 63.95 244.85 63.9 244.85 M59.95 248.5 L59.65 248.9 M60.05 251.05 L61.85 251.3 Q63.45 251.6 64.35 252.05 L66.6 253.2 Q67.9 254.0 68.65 254.65 M69.4 255.35 L70.5 255.8 72.05 255.95 Q73.15 256.0 73.55 255.65" fill="none" stroke="#332720" stroke-linecap="round" stroke-linejoin="round" stroke-opacity="0.2" stroke-width="0.05"/>
    <path d="M68.6 240.5 Q65.65 244.75 62.4 249.75 61.45 254.75 80.65 250.6 76.6 246.55 78.0 243.1 69.5 243.25 68.6 240.5" fill="#e6b100" fill-rule="evenodd" stroke="none"/>
    <path d="M80.65 250.6 L81.1 250.45 80.3 247.25 Q79.1 243.65 81.55 234.4 L84.35 226.25 Q84.35 219.4 77.4 227.65 73.7 232.6 68.6 240.5 69.5 243.25 78.0 243.1 76.6 246.55 80.65 250.6" fill="#8d4803" fill-rule="evenodd" stroke="none"/>
    <path d="M68.6 240.5 Q65.65 244.75 62.4 249.75 M81.1 250.45 L80.3 247.25 Q79.1 243.65 81.55 234.4 L84.35 226.25 Q84.35 219.4 77.4 227.65 73.7 232.6 68.6 240.5" fill="none" stroke="#000000" stroke-linecap="round" stroke-linejoin="round" stroke-opacity="0.2" stroke-width="0.05"/>
    <path d="M74.0 270.35 Q75.65 271.7 78.35 272.45 L83.15 272.85 Q85.3 272.5 85.7 271.3 86.0 270.1 84.5 268.75 82.75 267.5 80.2 266.65 L75.25 266.25 Q73.15 266.65 72.95 267.8 72.5 268.95 74.0 270.35" fill="#ffff2f" fill-rule="evenodd" stroke="none"/>
    <path d="M89.3 279.95 L89.65 279.3 89.95 277.5 Q90.2 275.3 89.45 273.45 86.7 267.1 79.95 266.0 75.6 264.45 71.45 267.05 65.8 270.5 66.7 276.6 69.25 283.65 83.05 282.7 88.5 282.15 89.3 279.95 M71.15 274.9 Q71.0 274.5 71.75 274.35 L72.35 274.4 Q72.75 274.6 72.75 275.05 L72.7 275.8 Q72.5 276.4 71.85 276.5 70.7 276.75 70.4 275.15 70.2 274.25 70.45 273.4 71.0 272.6 72.05 272.45 73.0 272.3 73.65 272.7 74.45 273.1 74.7 274.15 75.05 275.4 74.2 276.6 73.4 277.65 72.15 277.95 70.8 278.15 69.9 277.2 69.05 276.45 68.75 275.4 L68.75 274.25 68.95 272.9 Q69.35 271.5 70.4 271.35 69.35 271.5 68.95 272.9 L68.75 274.25 68.75 275.4 Q69.05 276.45 69.9 277.2 70.8 278.15 72.15 277.95 73.4 277.65 74.2 276.6 75.05 275.4 74.7 274.15 74.45 273.1 73.65 272.7 73.0 272.3 72.05 272.45 71.0 272.6 70.45 273.4 70.2 274.25 70.4 275.15 70.7 276.75 71.85 276.5 72.5 276.4 72.7 275.8 L72.75 275.05 Q72.75 274.6 72.35 274.4 L71.75 274.35 Q71.0 274.5 71.15 274.9 M74.0 270.35 Q72.5 268.95 72.95 267.8 73.15 266.65 75.25 266.25 L80.2 266.65 Q82.75 267.5 84.5 268.75 86.0 270.1 85.7 271.3 85.3 272.5 83.15 272.85 L78.35 272.45 Q75.65 271.7 74.0 270.35" fill="#e6b100" fill-rule="evenodd" stroke="none"/>
    <path d="M66.7 276.6 L67.2 278.65 Q67.9 280.55 69.25 281.65 74.25 285.65 81.0 285.65 87.6 285.75 89.3 279.95 88.5 282.15 83.05 282.7 69.25 283.65 66.7 276.6" fill="#8d4803" fill-rule="evenodd" stroke="none"/>
    <path d="M66.7 276.6 L67.2 278.65 Q67.9 280.55 69.25 281.65 74.25 285.65 81.0 285.65 87.6 285.75 89.3 279.95 M89.65 279.3 L89.95 277.5 Q90.2 275.3 89.45 273.45 86.7 267.1 79.95 266.0 75.6 264.45 71.45 267.05 65.8 270.5 66.7 276.6" fill="none" stroke="#332720" stroke-linecap="round" stroke-linejoin="round" stroke-opacity="0.2" stroke-width="0.05"/>
    <path d="M70.4 271.35 Q69.35 271.5 68.95 272.9 L68.75 274.25 68.75 275.4 Q69.05 276.45 69.9 277.2 70.8 278.15 72.15 277.95 73.4 277.65 74.2 276.6 75.05 275.4 74.7 274.15 74.45 273.1 73.65 272.7 73.0 272.3 72.05 272.45 71.0 272.6 70.45 273.4 70.2 274.25 70.4 275.15 70.7 276.75 71.85 276.5 72.5 276.4 72.7 275.8 L72.75 275.05 Q72.75 274.6 72.35 274.4 L71.75 274.35 Q71.0 274.5 71.15 274.9" fill="none" stroke="#9b8553" stroke-linecap="round" stroke-linejoin="round" stroke-width="0.05"/>
  </g>
</svg>
