<?xml version="1.0" encoding="UTF-8" standalone="no"?>
<svg xmlns:xlink="http://www.w3.org/1999/xlink" height="95.6px" width="94.05px" xmlns="http://www.w3.org/2000/svg">
  <g transform="matrix(1.0, 0.0, 0.0, 1.0, -227.95, -152.65)">
    <path d="M310.35 162.75 L301.45 159.55 307.75 153.4 Q313.65 151.45 314.05 158.3 L310.35 162.75" fill="#998948" fill-rule="evenodd" stroke="none"/>
    <path d="M310.35 162.75 L301.45 159.55 307.75 153.4 Q313.65 151.45 314.05 158.3 L310.35 162.75 Z" fill="none" stroke="#000000" stroke-linecap="round" stroke-linejoin="round" stroke-opacity="0.6" stroke-width="0.6000000000000001"/>
    <path d="M295.4 159.9 L299.1 158.6 316.7 158.05 305.8 168.6 305.6 168.7 298.7 170.7 296.5 170.7 297.8 167.8 292.15 170.4 268.8 169.2 286.75 159.0 294.35 158.75 291.65 160.55 292.55 160.9 295.4 159.9 M300.0 161.0 L299.25 163.35 297.8 167.8 299.25 163.35 300.0 161.0 M307.9 160.75 L299.25 163.35 307.9 160.75" fill="#c4d8df" fill-rule="evenodd" stroke="none"/>
    <path d="M295.4 159.9 L292.55 160.9 291.65 160.55 294.35 158.75 294.7 158.75 295.4 159.9 M316.7 158.05 L318.35 160.05 319.5 166.35 318.6 171.35 321.55 177.35 321.7 178.3 310.35 193.3 308.1 192.55 304.45 176.1 305.75 168.65 305.6 168.7 305.8 168.6 316.7 158.05" fill="#8eb5c1" fill-rule="evenodd" stroke="none"/>
    <path d="M268.8 169.2 L292.15 170.4 297.8 167.8 296.5 170.7 298.7 170.7 305.6 168.7 305.75 168.65 304.45 176.1 308.1 192.55 310.35 193.3 308.75 195.45 274.9 191.45 268.8 169.2 M321.55 177.35 L318.6 171.35 320.25 172.95 321.55 177.35" fill="#558b9b" fill-rule="evenodd" stroke="none"/>
    <path d="M318.6 171.35 L319.5 166.35 320.25 172.95 318.6 171.35" fill="#385c67" fill-rule="evenodd" stroke="none"/>
    <path d="M294.7 158.75 L294.35 158.75" fill="none" stroke="#0b1f37" stroke-linecap="round" stroke-linejoin="round" stroke-opacity="0.5019608" stroke-width="0.05"/>
    <path d="M291.65 160.55 L294.35 158.75 294.6 158.6 294.7 158.75" fill="none" stroke="#000000" stroke-linecap="round" stroke-linejoin="round" stroke-opacity="0.6" stroke-width="0.05"/>
    <path d="M292.15 170.4 L297.8 167.8 299.25 163.35 300.0 161.0 M299.25 163.35 L307.9 160.75 M296.5 170.7 L297.8 167.8" fill="none" stroke="#8eb5c1" stroke-linecap="round" stroke-linejoin="round" stroke-width="0.05"/>
    <path d="M316.7 158.05 L299.1 158.6 295.4 159.9 294.7 158.75 M294.35 158.75 L286.75 159.0 268.8 169.2 274.9 191.45 308.75 195.45 310.35 193.3 321.7 178.3 321.55 177.35 320.25 172.95 319.5 166.35 318.35 160.05 316.7 158.05" fill="none" stroke="#000000" stroke-linecap="round" stroke-linejoin="round" stroke-opacity="0.6" stroke-width="0.6000000000000001"/>
    <path d="M229.6 234.0 L229.85 233.15 280.35 183.8 Q285.45 183.05 285.7 187.75 L285.7 187.95 276.45 198.3 275.75 196.7 269.15 203.6 265.9 207.3 269.15 203.6 275.75 196.7 276.45 198.3 257.15 219.85 253.05 224.45 Q246.9 230.75 240.45 235.25 236.1 230.45 232.2 232.5 L229.6 234.0 M267.9 201.2 L252.1 217.6 267.9 201.2 276.3 192.55 267.9 201.2 269.15 203.6 267.9 201.2 M280.75 191.55 L275.75 196.7 280.75 191.55" fill="#998948" fill-rule="evenodd" stroke="none"/>
    <path d="M234.0 244.55 L233.05 243.7 Q228.4 239.25 229.6 234.0 L232.2 232.5 Q236.1 230.45 240.45 235.25 246.9 230.75 253.05 224.45 L256.75 220.55 242.15 237.95 Q244.2 240.65 243.45 243.35 241.85 247.85 234.0 244.55" fill="#796c39" fill-rule="evenodd" stroke="none"/>
    <path d="M280.35 183.8 L285.85 178.45 Q293.6 175.85 294.15 184.85 L243.25 246.15 Q238.5 248.25 234.0 244.55 241.85 247.85 243.45 243.35 244.2 240.65 242.15 237.95 L256.75 220.55 253.05 224.45 257.15 219.85 256.75 220.55 257.15 219.85 276.45 198.3 285.7 187.95 285.7 187.75 Q285.45 183.05 280.35 183.8 M278.95 197.0 L276.85 199.1 276.45 198.3 276.85 199.1 278.95 197.0 M272.95 203.65 L276.85 199.1 272.95 203.65" fill="#60552d" fill-rule="evenodd" stroke="none"/>
    <path d="M234.0 244.55 L233.05 243.7 Q228.4 239.25 229.6 234.0 M276.45 198.3 L276.85 199.1 278.95 197.0 M256.75 220.55 L257.15 219.85 M253.05 224.45 L256.75 220.55 242.15 237.95 M232.2 232.5 Q236.1 230.45 240.45 235.25 246.9 230.75 253.05 224.45 M276.45 198.3 L275.75 196.7 269.15 203.6 265.9 207.3 M276.85 199.1 L272.95 203.65 M276.3 192.55 L267.9 201.2 269.15 203.6 M275.75 196.7 L280.75 191.55 M252.1 217.6 L267.9 201.2" fill="none" stroke="#0b1f37" stroke-linecap="round" stroke-linejoin="round" stroke-opacity="0.5019608" stroke-width="0.05"/>
    <path d="M280.35 183.8 L285.85 178.45 Q293.6 175.85 294.15 184.85 L243.25 246.15 Q238.5 248.25 234.0 244.55 M229.6 234.0 L229.85 233.15 280.35 183.8" fill="none" stroke="#000000" stroke-linecap="round" stroke-linejoin="round" stroke-opacity="0.6" stroke-width="0.6000000000000001"/>
    <path d="M234.65 235.55 Q234.1 235.0 233.25 235.0 232.4 235.0 231.8 235.55 231.25 236.15 231.25 237.0 231.25 237.85 231.8 238.4 232.4 239.0 233.25 239.0 234.1 239.0 234.65 238.4 235.25 237.85 235.25 237.0 235.25 236.15 234.65 235.55 M228.35 239.25 Q227.9 236.25 229.7 234.45 231.55 232.55 234.7 233.0 237.75 233.45 240.25 235.9 242.7 238.35 243.2 241.45 L243.2 243.2 Q237.05 249.5 228.35 239.25" fill="#f4db82" fill-rule="evenodd" stroke="none"/>
    <path d="M243.2 243.2 Q243.05 245.1 241.75 246.45 239.85 248.3 236.8 247.85 233.65 247.4 231.2 244.95 228.75 242.5 228.35 239.35 L228.35 239.25 Q237.05 249.5 243.2 243.2" fill="#d7ab13" fill-rule="evenodd" stroke="none"/>
    <path d="M234.65 235.55 Q235.25 236.15 235.25 237.0 235.25 237.85 234.65 238.4 234.1 239.0 233.25 239.0 232.4 239.0 231.8 238.4 231.25 237.85 231.25 237.0 231.25 236.15 231.8 235.55 232.4 235.0 233.25 235.0 234.1 235.0 234.65 235.55" fill="#f9eab7" fill-rule="evenodd" stroke="none"/>
    <path d="M228.35 239.25 Q227.9 236.25 229.7 234.45 231.55 232.55 234.7 233.0 237.75 233.45 240.25 235.9 242.7 238.35 243.2 241.45 L243.2 243.2 Q243.05 245.1 241.75 246.45 239.85 248.3 236.8 247.85 233.65 247.4 231.2 244.95 228.75 242.5 228.35 239.35 L228.35 239.25 Z" fill="none" stroke="#000000" stroke-linecap="round" stroke-linejoin="round" stroke-opacity="0.6" stroke-width="0.6000000000000001"/>
  </g>
</svg>
