<?xml version="1.0" encoding="UTF-8" standalone="no"?>
<svg xmlns:xlink="http://www.w3.org/1999/xlink" height="96.15px" width="98.65px" xmlns="http://www.w3.org/2000/svg">
  <g transform="matrix(1.0, 0.0, 0.0, 1.0, -225.65, -152.4)">
    <path d="M257.3 209.5 L255.05 211.15 Q239.35 223.1 235.1 237.0 L234.65 238.45 Q233.85 241.25 233.55 244.2 230.05 239.1 228.25 234.9 224.6 226.8 227.25 221.95 228.05 220.6 229.35 219.5 241.55 207.75 255.15 198.75 L257.3 209.5" fill="#8c6f4d" fill-rule="evenodd" stroke="none"/>
    <path d="M255.15 198.75 Q258.9 196.2 262.8 193.95 L266.0 192.1 270.35 189.7 276.55 198.15 276.5 198.15 276.45 198.15 276.25 197.95 276.45 198.25 Q265.45 203.6 257.3 209.5 L255.15 198.75" fill="#5a4832" fill-rule="evenodd" stroke="none"/>
    <path d="M270.35 189.7 L276.55 198.15 M276.5 198.15 L276.45 198.15 276.25 197.95 276.45 198.25" fill="none" stroke="#183554" stroke-linecap="round" stroke-linejoin="round" stroke-opacity="0.7019608" stroke-width="0.05"/>
    <path d="M257.3 209.5 L255.05 211.15 Q239.35 223.1 235.1 237.0 L234.65 238.45 Q233.85 241.25 233.55 244.2 230.05 239.1 228.25 234.9 224.6 226.8 227.25 221.95 228.05 220.6 229.35 219.5 241.55 207.75 255.15 198.75 258.9 196.2 262.8 193.95 L266.0 192.1 270.35 189.7 M276.45 198.25 Q265.45 203.6 257.3 209.5" fill="none" stroke="#000000" stroke-linecap="round" stroke-linejoin="round" stroke-opacity="0.6" stroke-width="1.0"/>
    <path d="M243.8 242.35 L243.7 242.45 234.65 238.45 235.1 237.0 244.05 241.05 Q243.85 241.6 243.8 242.35" fill="#204a3e" fill-rule="evenodd" stroke="none"/>
    <path d="M244.05 241.05 Q244.5 240.0 245.45 239.3 247.0 238.15 249.0 238.5 250.9 238.95 252.1 240.6 253.35 242.2 253.15 244.1 252.95 246.1 251.45 247.25 249.9 248.35 248.0 247.95 246.0 247.6 244.8 246.0 243.6 244.4 243.75 242.45 L243.8 242.35 Q243.85 241.6 244.05 241.05" fill="#f0c000" fill-rule="evenodd" stroke="none"/>
    <path d="M244.05 241.05 Q244.5 240.0 245.45 239.3 247.0 238.15 249.0 238.5 250.9 238.95 252.1 240.6 253.35 242.2 253.15 244.1 252.95 246.1 251.45 247.25 249.9 248.35 248.0 247.95 246.0 247.6 244.8 246.0 243.6 244.4 243.75 242.45 L243.8 242.35" fill="none" stroke="#000000" stroke-linecap="round" stroke-linejoin="round" stroke-opacity="0.6" stroke-width="1.0"/>
    <path d="M295.7 206.25 L294.4 207.3 292.35 209.6 284.5 199.85 263.15 173.25 265.85 171.75 267.15 170.7 288.95 197.85 295.7 206.25" fill="#bf9900" fill-rule="evenodd" stroke="none"/>
    <path d="M276.6 209.5 L252.1 179.0 Q253.0 177.95 258.8 175.3 L263.15 173.25 284.5 199.85 276.6 209.5 M267.15 170.7 Q272.6 166.5 279.4 163.0 288.15 158.4 293.55 158.0 307.1 157.25 312.25 160.95 311.45 183.35 288.95 197.85 L267.15 170.7" fill="#ffcc00" fill-rule="evenodd" stroke="none"/>
    <path d="M312.25 160.95 L313.85 162.45 Q318.15 167.8 313.75 183.2 312.25 188.4 305.9 195.95 301.0 201.8 295.7 206.25 L288.95 197.85 Q311.45 183.35 312.25 160.95 M292.35 209.6 L289.4 213.4 Q285.55 218.5 284.35 219.15 L276.6 209.5 284.5 199.85 292.35 209.6" fill="#e1b500" fill-rule="evenodd" stroke="none"/>
    <path d="M312.25 160.95 L313.85 162.45 Q318.15 167.8 313.75 183.2 312.25 188.4 305.9 195.95 301.0 201.8 295.7 206.25 L294.4 207.3 292.35 209.6 289.4 213.4 Q285.55 218.5 284.35 219.15 L276.6 209.5 252.1 179.0 Q253.0 177.95 258.8 175.3 L263.15 173.25 265.85 171.75 267.15 170.7 Q272.6 166.5 279.4 163.0 288.15 158.4 293.55 158.0 307.1 157.25 312.25 160.95 Z" fill="none" stroke="#000000" stroke-linecap="round" stroke-linejoin="round" stroke-opacity="0.6" stroke-width="1.0"/>
    <path d="M304.4 159.25 Q305.45 158.1 306.8 157.05 311.05 153.6 315.7 153.0 320.35 152.5 322.5 155.25 324.7 157.95 323.15 162.3 321.65 166.75 317.4 170.2 L314.7 172.0 311.55 168.1 315.1 165.95 Q317.6 163.95 318.65 161.65 319.7 159.35 318.7 158.1 317.7 156.85 315.2 157.35 312.7 157.9 310.2 159.9 308.4 161.35 307.4 162.9 L304.4 159.25" fill="#ffcc00" fill-rule="evenodd" stroke="none"/>
    <path d="M314.7 172.0 L317.4 170.2 Q321.65 166.75 323.15 162.3 324.7 157.95 322.5 155.25 320.35 152.5 315.7 153.0 311.05 153.6 306.8 157.05 305.45 158.1 304.4 159.25 M307.4 162.9 Q308.4 161.35 310.2 159.9 312.7 157.9 315.2 157.35 317.7 156.85 318.7 158.1 319.7 159.35 318.65 161.65 317.6 163.95 315.1 165.95 L311.55 168.1" fill="none" stroke="#000000" stroke-linecap="round" stroke-linejoin="round" stroke-opacity="0.6" stroke-width="1.0"/>
    <path d="M290.1 171.2 Q284.2 171.15 280.1 172.95 276.0 174.7 275.15 172.1 274.25 169.5 277.6 166.3 280.85 163.15 286.45 161.25 292.0 159.4 296.6 159.95 301.1 160.55 302.0 163.15 302.85 165.75 299.45 168.55 296.05 171.25 290.1 171.2" fill="#ffe16c" fill-rule="evenodd" stroke="none"/>
    <path d="M257.45 181.7 Q256.45 179.25 257.6 178.35 258.7 177.45 260.55 179.3 L264.5 183.85 267.85 188.55 Q269.15 190.45 268.05 191.35 266.9 192.25 264.85 190.9 262.75 189.55 260.55 186.85 258.4 184.15 257.45 181.7" fill="#ffe16c" fill-rule="evenodd" stroke="none"/>
  </g>
</svg>
