<?xml version="1.0" encoding="UTF-8" standalone="no"?>
<svg xmlns:xlink="http://www.w3.org/1999/xlink" height="68.2px" width="60.95px" xmlns="http://www.w3.org/2000/svg">
  <g transform="matrix(1.0, 0.0, 0.0, 1.0, -245.0, -165.85)">
    <path d="M250.9 184.65 Q244.95 173.3 245.0 172.2 245.0 171.05 259.4 179.45 L274.6 188.35 305.95 234.05 Q290.95 232.95 274.35 218.2 257.7 203.4 257.3 199.7 256.85 196.0 250.9 184.65" fill="#666666" fill-opacity="0.3529412" fill-rule="evenodd" stroke="none"/>
    <path d="M265.4 190.2 L265.4 190.1 266.0 189.3 266.0 189.2 265.0 188.3 Q265.05 187.95 264.7 187.85 L264.85 187.7 Q265.0 187.35 264.65 187.15 L264.4 187.0 Q264.0 186.95 264.6 186.5 L264.7 186.3 264.7 186.25 Q265.25 186.25 265.25 186.0 265.75 185.85 265.0 185.25 L264.8 185.3 264.55 185.55 Q264.3 185.65 264.3 185.95 L263.35 185.9 Q262.8 185.95 262.9 186.55 L263.1 187.6 Q262.15 186.55 261.5 185.35 262.4 185.25 263.15 184.8 L263.25 184.5 263.15 183.95 262.9 183.6 260.9 181.05 260.95 180.75 261.1 179.85 261.05 179.7 260.7 179.25 260.7 179.1 Q260.75 178.6 260.25 178.45 L258.45 178.95 258.35 178.8 Q257.75 176.55 256.8 174.55 L257.2 173.45 Q257.65 171.9 255.1 170.95 L254.8 171.05 252.95 168.6 252.7 168.75 Q252.35 169.1 252.55 169.7 L253.05 170.35 Q252.4 169.85 251.65 169.45 L251.35 167.85 252.35 166.85 256.35 170.85 279.7 187.3 Q287.25 193.15 288.35 194.85 L301.35 211.85 301.35 217.35 300.0 216.4 299.4 216.55 Q298.55 216.75 298.0 217.45 297.4 216.8 296.5 216.7 L295.5 216.7 295.3 216.1 295.45 216.0 296.75 215.45 Q297.1 215.75 297.55 215.65 L298.15 215.4 Q298.6 215.15 298.6 214.65 L298.5 214.55 Q298.1 214.3 297.7 214.2 L298.7 213.6 298.75 213.45 Q298.65 212.8 297.95 212.9 L297.9 212.95 Q295.35 213.6 293.0 214.75 L291.95 214.35 Q291.05 214.6 290.45 215.15 290.35 214.55 289.65 214.15 290.5 212.65 287.7 211.45 284.8 212.25 285.95 214.45 L285.85 214.5 284.55 213.95 284.95 212.95 285.9 212.35 Q288.0 209.9 286.05 209.05 288.1 208.15 289.8 206.9 L289.8 207.0 Q289.9 207.4 290.3 207.4 L290.55 207.35 Q291.95 206.45 290.8 205.45 L290.8 205.5 290.3 205.9 290.1 205.65 292.85 204.65 293.1 204.25 293.1 204.15 293.0 204.0 Q292.65 203.55 292.05 203.75 L291.7 203.85 290.15 204.2 Q284.45 204.55 280.35 208.0 L282.15 208.05 281.5 208.55 280.15 208.1 279.95 208.15 279.7 207.9 279.8 207.6 279.75 207.55 Q279.25 207.15 279.35 206.45 278.05 207.15 277.1 206.05 275.85 204.6 277.6 203.5 275.85 202.8 276.5 201.85 L275.85 201.4 276.2 200.55 Q279.1 199.25 281.85 197.7 L281.85 197.55 Q281.8 197.1 281.45 197.05 L284.8 195.6 285.05 195.2 285.1 195.05 285.0 194.9 Q284.6 194.5 283.95 194.65 L282.15 195.4 Q278.7 196.85 275.7 198.75 276.7 197.25 273.8 196.0 271.55 196.65 271.75 198.1 270.8 198.45 270.45 199.1 L270.2 198.85 Q271.2 197.1 268.3 195.8 L267.55 196.1 Q267.85 195.5 267.5 194.95 L268.0 194.45 268.05 193.75 267.9 192.55 267.6 192.25 267.65 192.2 268.2 192.05 268.8 191.8 268.9 191.65 268.95 191.4 268.95 191.25 270.8 191.3 270.9 191.2 271.25 190.85 271.3 190.7 271.4 190.45 272.25 189.75 272.3 189.6 272.35 189.15 272.4 189.05 273.0 188.9 273.35 188.95 273.55 188.75 273.65 188.5 273.6 188.35 273.55 188.2 Q273.15 187.7 272.55 187.8 L274.9 186.45 274.8 186.3 Q274.45 185.9 273.95 186.05 269.3 187.7 265.4 190.2 M303.25 231.3 L303.35 231.3 Q304.15 231.25 304.3 230.45 L304.4 228.95 Q305.05 230.0 304.4 230.8 303.75 231.65 302.35 231.85 L301.4 231.75 301.4 231.55 301.35 231.5 301.35 231.45 Q302.5 232.2 303.25 231.3 M260.65 187.7 L260.65 187.35 260.75 187.2 260.8 187.4 261.6 188.25 261.25 188.35 260.65 187.7 M258.9 181.9 L258.85 182.0 258.65 181.3 258.9 181.9 M292.65 205.85 L292.5 205.9 292.25 205.65 292.05 205.7 Q291.6 205.9 291.8 206.4 L291.95 206.45 292.15 206.45 292.2 206.6 292.35 206.65 Q293.65 206.7 292.65 205.85 M271.5 188.35 L271.45 188.4 271.35 188.4 271.5 188.35 M269.65 189.25 L269.6 189.65 269.6 189.75 269.35 189.65 269.1 189.55 268.9 189.6 269.65 189.25 M266.2 190.75 L265.65 191.15 265.65 191.1 265.6 190.95 265.9 190.85 266.2 190.75 M275.25 199.95 L275.3 199.95 275.15 200.25 274.8 201.05 274.6 201.05 275.25 199.95 M282.5 209.3 L282.8 209.2 282.6 209.45 282.5 209.3 M293.95 215.5 L294.35 215.4 294.25 215.85 294.3 216.05 293.95 215.5 M263.5 188.0 L263.5 188.05 263.4 187.95 263.5 188.0 M263.15 189.1 L263.2 189.1 263.2 189.15 263.15 189.1" fill="#edd59c" fill-rule="evenodd" stroke="none"/>
    <path d="M253.05 170.35 L252.55 169.7 Q252.35 169.1 252.7 168.75 L252.95 168.6 254.8 171.05 255.1 170.95 Q257.65 171.9 257.2 173.45 L256.8 174.55 Q257.75 176.55 258.35 178.8 L258.45 178.95 260.25 178.45 Q260.75 178.6 260.7 179.1 L260.7 179.25 261.05 179.7 261.1 179.85 260.95 180.75 260.9 181.05 262.9 183.6 263.15 183.95 263.25 184.5 263.15 184.8 Q262.4 185.25 261.5 185.35 262.15 186.55 263.1 187.6 L262.9 186.55 Q262.8 185.95 263.35 185.9 L264.3 185.95 Q264.3 185.65 264.55 185.55 L264.8 185.3 265.0 185.25 Q265.75 185.85 265.25 186.0 265.25 186.25 264.7 186.25 L264.7 186.3 264.6 186.5 Q264.0 186.95 264.4 187.0 L264.65 187.15 Q265.0 187.35 264.85 187.7 L264.7 187.85 Q265.05 187.95 265.0 188.3 L266.0 189.2 266.0 189.3 265.4 190.1 265.4 190.2 265.6 190.95 265.65 191.1 265.65 191.15 266.2 190.75 266.35 190.35 266.6 189.9 267.6 189.85 267.85 189.9 268.5 189.7 268.9 189.6 269.1 189.55 269.35 189.65 269.6 189.75 269.6 189.65 269.65 189.25 269.9 188.85 270.35 188.55 271.2 188.4 271.35 188.4 271.45 188.4 271.5 188.35 272.1 187.9 272.45 187.8 272.55 187.8 Q273.15 187.7 273.55 188.2 L273.6 188.35 273.65 188.5 273.55 188.75 273.35 188.95 273.0 188.9 272.4 189.05 272.35 189.15 272.3 189.6 272.25 189.75 271.4 190.45 271.3 190.7 271.25 190.85 270.9 191.2 270.8 191.3 268.95 191.25 268.95 191.4 268.9 191.65 268.8 191.8 268.2 192.05 267.65 192.2 267.6 192.25 267.9 192.55 268.05 193.75 268.0 194.45 267.5 194.95 Q267.85 195.5 267.55 196.1 L268.3 195.8 Q271.2 197.1 270.2 198.85 L270.45 199.1 Q270.8 198.45 271.75 198.1 271.55 196.65 273.8 196.0 276.7 197.25 275.7 198.75 L274.7 199.4 Q274.65 199.7 274.9 199.85 L275.2 199.95 275.25 199.95 274.6 201.05 274.8 201.05 275.15 200.25 275.3 199.95 275.3 199.8 Q278.15 198.3 281.0 197.0 L281.45 197.05 Q281.8 197.1 281.85 197.55 L281.85 197.7 Q279.1 199.25 276.2 200.55 L275.85 201.4 276.5 201.85 Q275.85 202.8 277.6 203.5 275.85 204.6 277.1 206.05 278.05 207.15 279.35 206.45 279.25 207.15 279.75 207.55 L279.8 207.6 279.7 207.9 279.95 208.15 280.15 208.1 281.5 208.55 282.15 208.05 Q284.45 206.35 287.2 206.3 L288.45 205.7 288.45 205.65 289.1 205.8 289.25 205.9 289.4 205.85 Q289.4 205.6 289.7 205.5 L289.9 205.45 290.1 205.65 290.3 205.9 290.8 205.5 290.8 205.45 Q291.95 206.45 290.55 207.35 L290.3 207.4 Q289.9 207.4 289.8 207.0 L289.8 206.9 Q288.1 208.15 286.05 209.05 288.0 209.9 285.9 212.35 L284.95 212.95 284.55 213.95 285.85 214.5 285.95 214.45 Q284.8 212.25 287.7 211.45 290.5 212.65 289.65 214.15 290.35 214.55 290.45 215.15 291.05 214.6 291.95 214.35 L293.0 214.75 290.3 216.25 290.2 216.55 290.2 216.85 290.55 216.9 293.95 215.5 294.3 216.05 294.25 215.85 294.35 215.4 294.4 215.25 296.95 214.1 297.7 214.2 Q298.1 214.3 298.5 214.55 L298.6 214.65 Q298.6 215.15 298.15 215.4 L297.55 215.65 Q297.1 215.75 296.75 215.45 L295.45 216.0 295.3 216.1 295.5 216.7 296.5 216.7 Q297.4 216.8 298.0 217.45 298.55 216.75 299.4 216.55 L300.0 216.4 301.35 217.35 Q303.1 219.0 302.4 222.2 302.25 222.7 302.25 223.3 304.3 225.95 304.4 228.95 L304.3 230.45 Q304.15 231.25 303.35 231.3 L303.25 231.3 303.3 231.25 303.6 230.65 303.6 230.35 Q304.1 229.6 303.45 228.95 L303.35 228.85 303.35 228.8 303.4 228.5 303.3 228.05 303.1 227.75 302.8 227.65 302.45 227.5 302.45 227.55 301.8 227.75 301.5 228.2 301.5 228.4 301.35 228.4 301.45 228.2 301.65 227.65 301.6 227.5 Q301.35 226.65 300.5 226.55 L300.35 226.6 300.3 226.55 300.25 226.55 299.65 226.8 299.35 227.2 299.4 227.95 299.7 228.3 299.85 228.45 300.55 228.7 300.3 228.95 300.25 229.1 Q300.2 229.45 300.3 229.8 L300.35 229.85 300.2 229.9 299.9 230.35 Q299.75 230.75 299.95 231.1 L300.15 231.35 299.7 231.2 Q288.45 227.55 280.35 218.95 278.0 216.5 275.1 214.85 268.3 210.9 263.7 204.95 L262.8 203.35 Q261.0 199.15 259.5 194.9 258.8 194.55 258.35 193.4 256.35 191.6 257.2 189.9 255.5 188.05 256.75 186.5 L256.8 186.0 Q254.7 185.65 254.0 183.25 255.0 180.05 253.5 176.5 252.95 175.25 252.75 173.9 L252.45 172.65 252.95 172.35 253.3 172.2 253.9 171.65 253.05 170.35 M261.25 188.35 L261.6 188.25 260.8 187.4 260.75 187.2 260.65 187.35 260.65 187.7 260.35 188.7 260.5 188.85 260.9 188.55 Q261.1 188.4 261.25 188.35 M258.9 181.9 L258.65 181.3 258.85 182.0 258.9 181.9 M292.65 205.85 Q293.65 206.7 292.35 206.65 L292.2 206.6 292.15 206.45 291.95 206.45 291.8 206.4 Q291.6 205.9 292.05 205.7 L292.25 205.65 292.5 205.9 292.65 205.85 M272.7 206.35 L272.65 206.3 272.45 206.35 Q272.0 206.55 272.2 207.0 L272.35 207.1 Q273.65 207.1 272.7 206.35 M282.5 209.3 L282.6 209.45 282.8 209.2 282.5 209.3 M284.8 216.95 Q285.45 216.25 284.6 215.85 L284.6 215.9 Q283.55 216.45 284.6 217.05 L284.8 216.95 M281.1 215.6 L280.85 215.5 280.45 215.35 280.45 215.4 279.85 215.6 279.55 216.05 Q279.4 216.4 279.6 216.8 280.2 217.65 281.1 217.05 L281.4 216.6 281.45 216.35 281.3 215.9 281.1 215.6 M263.15 189.1 L263.2 189.15 263.2 189.1 263.15 189.1 M263.5 188.0 L263.4 187.95 263.5 188.05 263.5 188.0" fill="#d39e25" fill-rule="evenodd" stroke="none"/>
    <path d="M265.4 190.2 Q269.3 187.7 273.95 186.05 274.45 185.9 274.8 186.3 L274.9 186.45 272.55 187.8 272.45 187.8 272.1 187.9 271.5 188.35 271.35 188.4 271.2 188.4 270.35 188.55 269.9 188.85 269.65 189.25 268.9 189.6 268.5 189.7 267.85 189.9 267.6 189.85 266.6 189.9 266.35 190.35 266.2 190.75 265.9 190.85 265.6 190.95 265.4 190.2 M275.7 198.75 Q278.7 196.85 282.15 195.4 L283.95 194.65 Q284.6 194.5 285.0 194.9 L285.1 195.05 285.05 195.2 284.8 195.6 281.45 197.05 281.0 197.0 Q278.15 198.3 275.3 199.8 L275.3 199.95 275.25 199.95 275.2 199.95 274.9 199.85 Q274.65 199.7 274.7 199.4 L275.7 198.75 M282.15 208.05 L280.35 208.0 Q284.45 204.55 290.15 204.2 L291.7 203.85 292.05 203.75 Q292.65 203.55 293.0 204.0 L293.1 204.15 293.1 204.25 292.85 204.65 290.1 205.65 289.9 205.45 289.7 205.5 Q289.4 205.6 289.4 205.85 L289.25 205.9 289.1 205.8 288.45 205.65 288.45 205.7 287.2 206.3 Q284.45 206.35 282.15 208.05 M293.0 214.75 Q295.35 213.6 297.9 212.95 L297.95 212.9 Q298.65 212.8 298.75 213.45 L298.7 213.6 297.7 214.2 296.95 214.1 294.4 215.25 294.35 215.4 293.95 215.5 290.55 216.9 290.2 216.85 290.2 216.55 290.3 216.25 293.0 214.75 M272.7 206.35 Q273.65 207.1 272.35 207.1 L272.2 207.0 Q272.0 206.55 272.45 206.35 L272.65 206.3 272.7 206.35 M284.8 216.95 L284.6 217.05 Q283.55 216.45 284.6 215.9 L284.6 215.85 Q285.45 216.25 284.8 216.95" fill="#5b3917" fill-rule="evenodd" stroke="none"/>
    <path d="M300.15 231.35 L299.95 231.1 Q299.75 230.75 299.9 230.35 L300.2 229.9 300.35 229.85 300.3 229.8 Q300.2 229.45 300.25 229.1 L300.3 228.95 300.55 228.7 299.85 228.45 299.7 228.3 299.4 227.95 299.35 227.2 299.65 226.8 300.25 226.55 300.3 226.55 300.35 226.6 300.5 226.55 Q301.35 226.65 301.6 227.5 L301.65 227.65 301.45 228.2 301.35 228.4 301.5 228.4 301.5 228.2 301.8 227.75 302.45 227.55 302.45 227.5 302.8 227.65 303.1 227.75 303.3 228.05 303.4 228.5 303.35 228.8 303.35 228.85 303.45 228.95 Q304.1 229.6 303.6 230.35 L303.6 230.65 303.3 231.25 303.25 231.3 Q302.5 232.2 301.35 231.45 L301.35 231.5 300.15 231.35 M281.1 215.6 L281.3 215.9 281.45 216.35 281.4 216.6 281.1 217.05 Q280.2 217.65 279.6 216.8 279.4 216.4 279.55 216.05 L279.85 215.6 280.45 215.4 280.45 215.35 280.85 215.5 281.1 215.6" fill="#221609" fill-rule="evenodd" stroke="none"/>
    <path d="M300.45 227.55 Q302.6 228.85 301.4 231.3 297.6 227.1 291.75 226.1 L290.3 224.7 290.2 224.95 289.7 225.8 289.55 225.65 Q283.9 222.35 279.5 217.5 278.55 216.4 277.3 215.7 266.35 209.55 261.25 198.35 260.35 196.4 259.05 195.05 260.05 195.5 260.65 196.45 L260.4 195.7 Q259.45 192.65 257.45 190.7 254.5 182.0 253.05 173.0 252.7 170.85 251.7 169.35 L251.75 169.35 Q256.15 171.6 254.7 176.8 L254.4 177.7 254.15 178.15 Q255.35 178.8 256.35 179.8 257.55 181.0 258.4 182.7 L258.4 182.75 258.95 184.0 259.65 186.3 259.8 186.95 Q260.3 189.15 260.3 191.45 261.55 192.45 260.75 193.6 L261.3 194.55 Q264.1 195.3 263.7 196.95 L264.0 197.15 Q265.85 197.65 265.95 199.7 L266.0 199.85 Q267.65 201.85 267.2 203.0 268.55 204.45 269.7 206.2 L271.0 207.45 272.55 208.5 Q272.9 208.3 273.2 208.25 L273.55 208.35 273.95 208.25 Q277.0 209.05 276.45 210.8 277.35 211.5 277.35 212.25 278.15 213.0 278.2 213.85 283.3 217.4 288.75 220.5 290.3 221.4 291.45 222.7 L292.3 223.25 Q296.55 223.3 297.55 225.9 L297.75 226.1 Q298.55 226.45 298.95 226.9 L300.45 227.55 M261.25 197.8 L261.3 198.0 261.5 198.15 261.2 197.6 261.25 197.8" fill="#6c5113" fill-rule="evenodd" stroke="none"/>
    <path d="M259.8 186.95 Q261.1 187.55 261.85 189.0 L261.95 189.2 Q265.4 190.9 263.8 193.4 264.9 194.3 264.45 195.3 L264.65 195.6 264.75 195.8 Q267.25 197.5 266.75 198.85 267.6 199.7 267.15 200.6 L267.2 200.65 Q268.0 201.2 268.25 201.8 270.5 202.75 270.6 203.9 271.6 204.5 271.5 205.45 272.65 206.2 272.6 207.05 L273.45 206.75 273.75 206.9 274.2 206.75 Q277.05 207.65 277.0 209.15 279.15 210.5 278.25 212.3 L278.85 212.7 Q280.6 213.7 280.25 214.85 L281.25 215.25 281.95 215.0 Q284.6 216.15 284.3 217.55 285.2 218.0 285.7 218.55 286.0 218.35 286.45 218.25 L288.15 219.25 288.2 219.25 Q289.75 219.8 290.4 220.55 L290.7 220.5 Q294.05 221.15 294.3 222.9 L294.65 223.2 Q295.2 222.8 296.2 222.5 298.75 223.6 298.55 224.9 301.1 226.1 300.45 227.55 L298.95 226.9 Q298.55 226.45 297.75 226.1 L297.55 225.9 Q296.55 223.3 292.3 223.25 L291.45 222.7 Q290.3 221.4 288.75 220.5 283.3 217.4 278.2 213.85 278.15 213.0 277.35 212.25 277.35 211.5 276.45 210.8 277.0 209.05 273.95 208.25 L273.55 208.35 273.2 208.25 Q272.9 208.3 272.55 208.5 L271.0 207.45 269.7 206.2 Q268.55 204.45 267.2 203.0 267.65 201.85 266.0 199.85 L265.95 199.7 Q265.85 197.65 264.0 197.15 L263.7 196.95 Q264.1 195.3 261.3 194.55 L260.75 193.6 Q261.55 192.45 260.3 191.45 260.3 189.15 259.8 186.95" fill="#946f1b" fill-rule="evenodd" stroke="none"/>
    <path d="M251.35 167.85 L252.35 166.85 256.35 170.85 279.7 187.3 Q287.25 193.15 288.35 194.85 L301.35 211.85 301.35 222.85 304.35 228.85 Q305.05 229.95 304.4 230.8 303.75 231.65 302.35 231.85 301.35 232.0 299.95 230.8 297.95 229.15 297.35 228.85 L288.35 224.85 Q286.6 224.1 264.35 204.85 L260.35 197.4 Q256.35 189.8 256.35 188.85 256.35 187.35 252.35 173.8 L251.35 167.85 Z" fill="none" stroke="#533a13" stroke-linecap="round" stroke-linejoin="round" stroke-width="2.0"/>
    <path d="M280.35 193.85 L285.35 194.85 276.35 198.85 274.35 200.85 274.35 197.85 276.35 195.85 280.35 193.85 M288.35 201.85 L293.35 203.85 292.35 204.85 Q287.3 205.2 286.35 205.85 L283.35 206.85 280.35 208.85 281.35 205.85 283.35 203.85 288.35 201.85 M276.35 186.85 L273.35 186.85 268.35 188.85 265.35 191.85 266.35 186.85 268.35 184.85 276.35 186.85 M295.35 212.85 L299.45 213.15 294.35 214.85 290.35 216.85 291.35 213.85 295.35 212.85" fill="#f4e6c6" fill-rule="evenodd" stroke="none"/>
    <path d="M276.35 186.85 L268.35 184.85 266.35 186.85 265.35 191.85 268.35 188.85 273.35 186.85 276.35 186.85 M288.35 201.85 L283.35 203.85 281.35 205.85 280.35 208.85 283.35 206.85 286.35 205.85 Q287.3 205.2 292.35 204.85 L293.35 203.85 288.35 201.85 M280.35 193.85 L276.35 195.85 274.35 197.85 274.35 200.85 276.35 198.85 285.35 194.85 280.35 193.85 M299.45 213.15 L300.35 212.85 M295.35 212.85 L291.35 213.85 290.35 216.85 294.35 214.85 299.45 213.15 295.35 212.85 Z" fill="none" stroke="#54401f" stroke-linecap="round" stroke-linejoin="round" stroke-opacity="0.5019608" stroke-width="0.05"/>
    <path d="M288.35 206.05 L288.2 206.6 287.4 207.6 286.45 208.35 285.9 208.5 Q285.75 208.35 286.0 207.9 L286.75 206.95 Q287.3 206.4 287.75 206.15 L288.35 206.05" fill="#35280d" fill-opacity="0.6117647" fill-rule="evenodd" stroke="none"/>
    <path d="M287.5 206.25 L287.85 206.05 Q288.25 205.9 288.3 206.05 L287.95 206.6 287.45 207.1 286.15 207.7 287.55 206.65 286.45 207.3 287.5 206.25" fill="#ecddaa" fill-rule="evenodd" stroke="none"/>
    <path d="M286.75 206.75 L287.1 206.5 287.2 206.4 287.3 206.35 287.6 206.15 287.5 206.25 286.45 207.3 287.55 206.65 286.15 207.7 287.45 207.1 287.5 207.1 287.0 207.5 Q286.8 207.55 286.55 207.75 L285.7 208.1 285.7 207.95 285.65 207.85 285.75 207.65 285.95 207.4 286.25 207.15 286.7 206.8 286.7 206.75 286.8 206.75 286.8 206.7 286.8 206.75 286.75 206.75" fill="#d2a94a" fill-rule="evenodd" stroke="none"/>
    <path d="M286.7 206.8 L286.75 206.75 286.8 206.75 286.7 206.75 286.7 206.8" fill="#b68129" fill-rule="evenodd" stroke="none"/>
    <path d="M286.8 206.75 L286.8 206.7 286.8 206.75 286.7 206.75 286.8 206.75" fill="#e3ba88" fill-rule="evenodd" stroke="none"/>
    <path d="M287.85 206.05 L288.35 206.0 288.0 206.7 287.1 207.5 286.1 208.0 285.6 208.05 Q285.6 207.85 285.95 207.4 L286.75 206.7 286.85 206.7 286.85 206.75 286.05 207.45 285.75 207.95 286.1 207.95 287.1 207.35 287.95 206.6 288.25 206.1 287.85 206.15 286.9 206.7 286.9 206.75 286.85 206.7 286.9 206.65 286.9 206.6 287.85 206.05" fill="#ffcc66" fill-rule="evenodd" stroke="none"/>
    <path d="M270.7 189.25 L271.15 189.95 271.3 191.45 271.05 193.0 270.6 193.55 Q270.35 193.55 270.15 192.95 L270.05 191.4 270.25 189.9 Q270.45 189.25 270.7 189.25" fill="#35280d" fill-opacity="0.6117647" fill-rule="evenodd" stroke="none"/>
    <path d="M270.1 190.2 L270.3 189.65 Q270.55 189.2 270.75 189.35 270.95 189.4 270.95 190.1 L270.9 191.0 270.05 192.6 270.55 190.4 270.0 191.95 270.1 190.2" fill="#ecddaa" fill-rule="evenodd" stroke="none"/>
    <path d="M269.8 191.2 L269.85 190.7 269.95 190.55 270.0 190.4 270.15 190.0 270.1 190.2 270.0 191.95 270.55 190.4 270.05 192.6 270.9 191.0 271.0 190.9 270.9 191.7 270.6 192.3 270.1 193.3 269.95 193.2 269.8 193.15 269.7 192.9 269.65 192.45 269.7 192.0 269.85 191.25 269.85 191.2 269.8 191.15 269.85 191.15 269.8 191.15 269.8 191.2" fill="#d2a94a" fill-rule="evenodd" stroke="none"/>
    <path d="M269.85 191.25 L269.8 191.2 269.8 191.15 269.85 191.2 269.85 191.25" fill="#b68129" fill-rule="evenodd" stroke="none"/>
    <path d="M269.8 191.15 L269.85 191.15 269.8 191.15 269.85 191.2 269.8 191.15" fill="#e3ba88" fill-rule="evenodd" stroke="none"/>
    <path d="M270.35 189.65 Q270.65 189.05 270.85 189.25 271.15 189.4 271.1 190.15 L270.95 191.65 270.55 192.9 Q270.25 193.5 270.0 193.35 269.75 193.15 269.75 192.45 L269.85 191.15 269.9 191.1 269.95 191.15 270.0 191.15 270.0 191.25 269.9 192.5 270.0 193.15 270.45 192.8 270.85 191.55 271.0 190.1 270.85 189.4 Q270.7 189.3 270.45 189.75 L270.05 191.1 270.0 191.1 269.95 191.1 269.9 191.05 269.95 191.0 Q270.1 190.1 270.35 189.65" fill="#ffcc66" fill-rule="evenodd" stroke="none"/>
    <path d="M280.65 205.95 L280.6 206.6 279.75 207.75 Q279.2 208.3 278.7 208.5 L278.0 208.6 Q277.8 208.4 278.05 207.85 278.25 207.35 278.8 206.8 L279.95 205.95 Q280.45 205.75 280.65 205.95" fill="#35280d" fill-opacity="0.6117647" fill-rule="evenodd" stroke="none"/>
    <path d="M279.65 206.15 L280.1 205.95 280.65 206.05 280.35 206.7 279.8 207.25 278.2 207.65 279.85 206.6 278.5 207.2 279.65 206.15" fill="#ecddaa" fill-rule="evenodd" stroke="none"/>
    <path d="M279.8 207.25 L279.9 207.2 279.35 207.65 278.75 207.85 277.75 208.15 277.7 207.95 277.65 207.85 277.7 207.55 277.95 207.25 278.25 207.0 278.75 206.6 278.85 206.55 278.9 206.55 278.85 206.55 278.75 206.55 279.15 206.3 279.3 206.25 279.4 206.15 279.8 206.0 279.65 206.15 278.5 207.2 279.85 206.6 278.2 207.65 279.8 207.25" fill="#d2a94a" fill-rule="evenodd" stroke="none"/>
    <path d="M278.75 206.6 L278.75 206.55 278.85 206.55 278.75 206.6" fill="#b68129" fill-rule="evenodd" stroke="none"/>
    <path d="M278.85 206.55 L278.9 206.55 278.85 206.55 278.75 206.6 278.85 206.55" fill="#e3ba88" fill-rule="evenodd" stroke="none"/>
    <path d="M280.1 205.9 Q280.65 205.75 280.75 206.05 L280.35 206.8 279.35 207.65 278.25 208.15 277.6 208.0 Q277.5 207.75 277.9 207.3 L278.8 206.55 278.85 206.5 278.85 206.55 278.9 206.6 278.85 206.65 278.0 207.4 277.7 207.95 278.25 208.0 279.35 207.5 280.3 206.65 280.6 206.1 280.1 206.05 Q279.6 206.15 279.0 206.6 L278.9 206.55 278.9 206.45 278.95 206.45 280.1 205.9" fill="#ffcc66" fill-rule="evenodd" stroke="none"/>
    <path d="M283.5 195.2 L283.45 195.85 282.6 197.0 281.55 197.75 280.85 197.85 Q280.65 197.65 280.9 197.1 281.1 196.6 281.65 196.05 282.25 195.45 282.8 195.2 283.3 195.0 283.5 195.2" fill="#35280d" fill-opacity="0.6117647" fill-rule="evenodd" stroke="none"/>
    <path d="M282.5 195.4 L282.95 195.2 283.5 195.3 283.2 195.95 282.65 196.5 281.05 196.9 282.7 195.85 281.35 196.45 282.5 195.4" fill="#ecddaa" fill-rule="evenodd" stroke="none"/>
    <path d="M281.6 195.8 L282.0 195.55 282.15 195.5 282.25 195.4 282.65 195.25 282.5 195.4 281.35 196.45 282.7 195.85 281.05 196.9 282.65 196.5 282.75 196.45 282.2 196.9 281.6 197.1 280.6 197.4 280.55 197.2 280.5 197.1 280.55 196.8 280.8 196.5 281.1 196.25 281.6 195.85 281.7 195.8 281.75 195.8 281.7 195.8 281.6 195.8" fill="#d2a94a" fill-rule="evenodd" stroke="none"/>
    <path d="M281.6 195.85 L281.6 195.8 281.7 195.8 281.6 195.85" fill="#b68129" fill-rule="evenodd" stroke="none"/>
    <path d="M281.7 195.8 L281.75 195.8 281.7 195.8 281.6 195.85 281.7 195.8" fill="#e3ba88" fill-rule="evenodd" stroke="none"/>
    <path d="M282.95 195.15 Q283.5 195.0 283.6 195.3 L283.2 196.05 282.2 196.9 Q281.6 197.25 281.1 197.4 L280.45 197.25 Q280.35 197.0 280.75 196.55 L281.65 195.8 281.7 195.75 281.7 195.8 281.75 195.85 281.7 195.9 280.85 196.65 280.55 197.2 281.1 197.25 Q281.6 197.15 282.2 196.75 L283.15 195.9 283.45 195.35 282.95 195.3 Q282.45 195.4 281.85 195.85 L281.75 195.8 281.75 195.7 281.8 195.7 282.95 195.15" fill="#ffcc66" fill-rule="evenodd" stroke="none"/>
    <path d="M293.45 204.05 L293.4 204.7 292.55 205.85 291.5 206.6 290.8 206.7 Q290.6 206.5 290.85 205.95 291.05 205.45 291.6 204.9 292.2 204.3 292.75 204.05 293.25 203.85 293.45 204.05" fill="#35280d" fill-opacity="0.6117647" fill-rule="evenodd" stroke="none"/>
    <path d="M292.5 204.3 L292.95 204.1 293.5 204.2 293.2 204.85 292.65 205.4 291.05 205.8 292.7 204.75 291.35 205.35 292.5 204.3" fill="#ecddaa" fill-rule="evenodd" stroke="none"/>
    <path d="M292.65 205.4 L292.75 205.35 292.2 205.8 291.6 206.0 290.6 206.3 290.55 206.1 290.5 206.0 290.55 205.7 290.8 205.4 291.1 205.15 291.6 204.75 291.7 204.7 291.75 204.7 291.7 204.7 291.6 204.7 292.0 204.45 292.15 204.4 292.25 204.3 292.65 204.15 292.5 204.3 291.35 205.35 292.7 204.75 291.05 205.8 292.65 205.4" fill="#d2a94a" fill-rule="evenodd" stroke="none"/>
    <path d="M291.6 204.75 L291.6 204.7 291.7 204.7 291.6 204.75" fill="#b68129" fill-rule="evenodd" stroke="none"/>
    <path d="M291.6 204.75 L291.7 204.7 291.75 204.7 291.7 204.7 291.6 204.75" fill="#e3ba88" fill-rule="evenodd" stroke="none"/>
    <path d="M292.95 204.05 Q293.5 203.9 293.6 204.2 L293.2 204.95 292.2 205.8 291.1 206.3 Q290.55 206.45 290.45 206.15 290.35 205.9 290.75 205.45 L291.65 204.7 291.7 204.65 291.7 204.7 291.75 204.75 291.7 204.8 290.85 205.55 290.55 206.1 291.1 206.15 292.2 205.65 293.15 204.8 293.45 204.25 292.95 204.2 Q292.45 204.3 291.85 204.75 L291.75 204.7 291.75 204.6 291.8 204.6 Q292.45 204.2 292.95 204.05" fill="#ffcc66" fill-rule="evenodd" stroke="none"/>
    <path d="M294.1 215.5 L294.05 216.15 293.2 217.3 292.15 218.05 291.45 218.15 Q291.25 217.95 291.5 217.4 291.7 216.9 292.25 216.35 L293.4 215.5 Q293.9 215.3 294.1 215.5" fill="#35280d" fill-opacity="0.6117647" fill-rule="evenodd" stroke="none"/>
    <path d="M293.15 215.75 Q293.4 215.6 293.6 215.55 L294.15 215.65 293.85 216.3 293.3 216.85 291.7 217.25 293.35 216.2 292.0 216.8 293.15 215.75" fill="#ecddaa" fill-rule="evenodd" stroke="none"/>
    <path d="M292.25 216.15 L292.65 215.9 292.8 215.85 292.9 215.75 293.3 215.6 293.15 215.75 292.0 216.8 293.35 216.2 291.7 217.25 293.3 216.85 293.4 216.8 292.85 217.25 292.25 217.45 291.25 217.75 291.2 217.55 291.15 217.45 291.2 217.15 291.45 216.85 291.75 216.6 292.25 216.2 292.35 216.15 292.4 216.15 292.35 216.15 292.25 216.15" fill="#d2a94a" fill-rule="evenodd" stroke="none"/>
    <path d="M292.25 216.2 L292.25 216.15 292.35 216.15 292.25 216.2" fill="#b68129" fill-rule="evenodd" stroke="none"/>
    <path d="M292.35 216.15 L292.4 216.15 292.35 216.15 292.25 216.2 292.35 216.15" fill="#e3ba88" fill-rule="evenodd" stroke="none"/>
    <path d="M293.65 215.45 Q294.2 215.3 294.3 215.6 L293.9 216.35 292.9 217.2 291.8 217.7 291.15 217.55 Q291.05 217.3 291.45 216.85 291.85 216.4 292.35 216.1 L292.4 216.05 292.4 216.1 292.45 216.15 292.4 216.2 Q291.9 216.55 291.55 216.95 L291.25 217.5 291.8 217.55 292.9 217.05 293.85 216.2 294.15 215.65 293.65 215.6 Q293.15 215.7 292.55 216.15 L292.45 216.1 292.45 216.0 292.5 216.0 Q293.15 215.6 293.65 215.45" fill="#ffcc66" fill-rule="evenodd" stroke="none"/>
    <path d="M286.7 212.0 L286.65 212.65 285.8 213.8 284.75 214.55 284.05 214.65 Q283.85 214.45 284.1 213.9 284.3 213.4 284.85 212.85 285.45 212.25 286.0 212.0 286.5 211.8 286.7 212.0" fill="#35280d" fill-opacity="0.6117647" fill-rule="evenodd" stroke="none"/>
    <path d="M285.7 212.2 L286.15 212.0 286.7 212.1 286.4 212.75 285.85 213.3 284.25 213.7 285.9 212.65 284.55 213.25 285.7 212.2" fill="#ecddaa" fill-rule="evenodd" stroke="none"/>
    <path d="M285.85 213.3 L285.95 213.25 285.4 213.7 Q285.05 213.75 284.8 213.9 L283.8 214.2 283.75 214.0 283.7 213.9 283.75 213.6 284.0 213.3 284.3 213.05 284.8 212.65 284.9 212.6 284.95 212.6 284.9 212.6 284.8 212.6 285.2 212.35 285.35 212.3 285.45 212.2 285.85 212.05 285.7 212.2 284.55 213.25 285.9 212.65 284.25 213.7 285.85 213.3" fill="#d2a94a" fill-rule="evenodd" stroke="none"/>
    <path d="M284.8 212.65 L284.8 212.6 284.9 212.6 284.8 212.65" fill="#b68129" fill-rule="evenodd" stroke="none"/>
    <path d="M284.9 212.6 L284.95 212.6 284.9 212.6 284.8 212.65 284.9 212.6" fill="#e3ba88" fill-rule="evenodd" stroke="none"/>
    <path d="M286.15 211.95 Q286.7 211.8 286.8 212.1 L286.4 212.85 285.4 213.7 284.3 214.2 283.65 214.05 Q283.55 213.8 283.95 213.35 284.35 212.9 284.85 212.6 L284.9 212.55 284.9 212.6 284.95 212.65 284.9 212.7 Q284.4 213.05 284.05 213.45 L283.75 214.0 284.3 214.05 285.4 213.55 286.35 212.7 286.65 212.15 286.15 212.1 Q285.65 212.2 285.05 212.65 L284.95 212.6 284.95 212.5 285.0 212.5 286.15 211.95" fill="#ffcc66" fill-rule="evenodd" stroke="none"/>
    <path d="M264.45 192.65 L265.3 192.5 266.7 191.5 267.75 190.05 Q268.1 189.4 267.9 189.2 L267.0 189.3 Q266.4 189.7 265.65 190.45 L264.55 191.75 Q264.25 192.45 264.45 192.65" fill="#35280d" fill-opacity="0.6117647" fill-rule="evenodd" stroke="none"/>
    <path d="M264.7 191.4 L264.5 191.95 Q264.35 192.55 264.55 192.65 264.8 192.7 265.35 192.2 L266.05 191.5 266.7 189.45 265.3 191.6 266.15 189.9 264.7 191.4" fill="#ecddaa" fill-rule="evenodd" stroke="none"/>
    <path d="M266.05 191.5 L266.0 191.6 266.6 190.85 266.95 190.2 267.35 188.9 267.1 188.85 267.0 188.85 266.65 188.95 266.25 189.25 265.95 189.65 265.4 190.3 265.35 190.35 265.35 190.4 265.35 190.35 265.0 190.75 264.9 190.95 264.8 191.1 264.6 191.55 264.7 191.4 266.15 189.9 265.3 191.6 266.7 189.45 266.05 191.5" fill="#d2a94a" fill-rule="evenodd" stroke="none"/>
    <path d="M265.4 190.3 L265.35 190.35 265.4 190.3" fill="#b68129" fill-rule="evenodd" stroke="none"/>
    <path d="M265.35 190.35 L265.35 190.4 265.35 190.35 265.4 190.3 265.35 190.35" fill="#e3ba88" fill-rule="evenodd" stroke="none"/>
    <path d="M264.45 191.95 Q264.25 192.7 264.55 192.7 264.8 192.85 265.45 192.25 L266.6 190.95 267.3 189.6 Q267.5 188.9 267.2 188.8 266.9 188.75 266.3 189.25 L265.3 190.4 265.25 190.45 265.35 190.5 265.4 190.5 265.45 190.45 266.4 189.35 Q266.85 188.9 267.1 189.0 267.3 189.1 267.1 189.6 L266.45 190.95 265.35 192.15 264.65 192.6 Q264.45 192.5 264.6 192.0 264.8 191.35 265.35 190.6 L265.35 190.55 265.3 190.5 265.25 190.5 265.2 190.6 Q264.65 191.4 264.45 191.95" fill="#ffcc66" fill-rule="evenodd" stroke="none"/>
    <path d="M284.7 211.55 L284.5 211.05 Q284.45 210.55 284.55 209.95 L284.95 208.95 285.3 208.55 285.6 209.1 285.45 210.15 285.15 211.2 284.7 211.55" fill="#35280d" fill-opacity="0.6117647" fill-rule="evenodd" stroke="none"/>
    <path d="M285.25 211.05 L285.05 211.35 Q284.85 211.65 284.7 211.55 284.6 211.5 284.65 211.0 L284.8 210.4 285.55 209.4 285.0 210.8 285.55 209.8 285.25 211.05" fill="#ecddaa" fill-rule="evenodd" stroke="none"/>
    <path d="M284.8 210.4 L284.75 210.45 284.9 209.85 285.15 209.5 285.65 208.85 285.8 208.95 285.85 209.0 285.85 209.2 285.85 209.5 285.8 209.8 285.6 210.3 285.6 210.35 285.45 210.7 285.4 210.8 285.4 210.9 285.25 211.2 285.25 211.05 285.55 209.8 285.0 210.8 285.55 209.4 284.8 210.4 M285.6 210.35 L285.6 210.4 285.55 210.4 285.6 210.4 285.6 210.35" fill="#d2a94a" fill-rule="evenodd" stroke="none"/>
    <path d="M285.6 210.3 L285.6 210.35 285.6 210.3 M285.6 210.4 L285.6 210.35 285.6 210.4" fill="#b68129" fill-rule="evenodd" stroke="none"/>
    <path d="M285.6 210.4 L285.55 210.4 285.6 210.4 285.6 210.35 285.6 210.4" fill="#e3ba88" fill-rule="evenodd" stroke="none"/>
    <path d="M284.95 211.45 Q284.75 211.75 284.6 211.6 L284.5 210.95 284.8 209.95 285.25 209.1 Q285.55 208.7 285.7 208.9 L285.75 209.5 285.5 210.4 285.5 210.45 285.5 210.4 285.45 210.35 285.7 209.5 285.65 209.0 Q285.55 208.9 285.3 209.2 L284.85 210.0 284.6 211.0 284.6 211.5 284.9 211.3 285.4 210.45 285.45 210.4 285.5 210.45 285.45 210.5 284.95 211.45" fill="#ffcc66" fill-rule="evenodd" stroke="none"/>
    <path d="M284.75 199.0 Q284.6 199.0 284.55 198.5 284.5 198.0 284.6 197.4 L285.0 196.4 285.35 196.0 285.65 196.55 285.5 197.6 285.2 198.65 284.75 199.0" fill="#35280d" fill-opacity="0.6117647" fill-rule="evenodd" stroke="none"/>
    <path d="M285.3 198.5 L285.1 198.8 284.75 199.0 Q284.65 198.95 284.7 198.45 L284.85 197.85 285.6 196.85 285.05 198.25 285.6 197.25 285.3 198.5" fill="#ecddaa" fill-rule="evenodd" stroke="none"/>
    <path d="M285.65 197.8 L285.5 198.15 285.45 198.25 285.45 198.35 285.3 198.65 285.3 198.5 285.6 197.25 285.05 198.25 285.6 196.85 284.85 197.85 284.8 197.9 284.95 197.3 285.2 196.95 285.7 196.3 285.85 196.4 285.9 196.45 285.9 196.65 285.9 196.95 285.85 197.25 285.65 197.75 285.65 197.8 285.65 197.85 285.6 197.85 285.65 197.85 285.65 197.8" fill="#d2a94a" fill-rule="evenodd" stroke="none"/>
    <path d="M285.65 197.75 L285.65 197.8 285.65 197.85 285.65 197.8 285.65 197.75" fill="#b68129" fill-rule="evenodd" stroke="none"/>
    <path d="M285.65 197.85 L285.6 197.85 285.65 197.85 285.65 197.8 285.65 197.85" fill="#e3ba88" fill-rule="evenodd" stroke="none"/>
    <path d="M284.95 198.85 Q284.75 199.15 284.6 199.0 L284.5 198.35 284.8 197.35 285.25 196.5 Q285.55 196.1 285.7 196.3 L285.75 196.9 285.5 197.8 285.5 197.85 285.5 197.8 285.45 197.75 285.7 196.9 285.65 196.4 Q285.55 196.3 285.3 196.6 L284.85 197.4 284.6 198.4 284.6 198.9 284.9 198.7 285.4 197.85 285.45 197.8 285.5 197.85 285.45 197.9 284.95 198.85" fill="#ffcc66" fill-rule="evenodd" stroke="none"/>
    <path d="M295.35 210.95 Q295.25 210.8 295.65 210.5 296.0 210.2 296.55 209.95 L297.6 209.6 298.15 209.7 297.85 210.2 296.9 210.75 295.9 211.1 295.35 210.95" fill="#35280d" fill-opacity="0.6117647" fill-rule="evenodd" stroke="none"/>
    <path d="M296.05 211.0 L295.7 211.05 295.35 210.9 295.75 210.45 296.35 210.25 297.65 210.25 296.1 210.65 297.25 210.5 296.05 211.0" fill="#ecddaa" fill-rule="evenodd" stroke="none"/>
    <path d="M296.35 210.25 L296.3 210.25 296.85 210.1 297.3 210.05 298.15 210.05 298.1 210.2 298.05 210.25 297.95 210.4 297.7 210.55 297.35 210.7 296.9 210.85 296.85 210.9 296.5 210.95 296.4 211.0 296.25 211.05 295.95 211.05 296.05 211.0 297.25 210.5 296.1 210.65 297.65 210.25 296.35 210.25 M296.8 210.9 L296.85 210.9 296.8 210.9 296.8 210.85 296.8 210.9" fill="#d2a94a" fill-rule="evenodd" stroke="none"/>
    <path d="M296.9 210.85 L296.85 210.9 296.9 210.85 M296.8 210.9 L296.85 210.9 296.8 210.9" fill="#b68129" fill-rule="evenodd" stroke="none"/>
    <path d="M296.85 210.9 L296.8 210.9 296.8 210.85 296.8 210.9 296.85 210.9" fill="#e3ba88" fill-rule="evenodd" stroke="none"/>
    <path d="M295.65 211.0 Q295.25 211.0 295.25 210.75 L295.75 210.3 296.75 209.95 297.7 209.85 Q298.15 209.85 298.1 210.05 L297.65 210.5 296.75 210.8 296.7 210.8 296.75 210.8 296.75 210.7 296.8 210.7 297.6 210.4 298.0 210.1 Q298.0 209.95 297.65 209.95 L296.7 210.05 Q296.15 210.2 295.75 210.45 L295.4 210.75 Q295.4 210.9 295.65 210.9 L296.65 210.75 296.7 210.75 296.7 210.8 296.65 210.8 296.65 210.85 295.65 211.0" fill="#ffcc66" fill-rule="evenodd" stroke="none"/>
    <path d="M275.0 192.2 L275.2 191.7 276.0 191.0 Q276.5 190.65 276.95 190.45 277.4 190.3 277.5 190.45 L277.3 191.0 276.5 191.75 275.55 192.25 275.0 192.2" fill="#35280d" fill-opacity="0.6117647" fill-rule="evenodd" stroke="none"/>
    <path d="M275.75 192.25 L275.4 192.35 275.0 192.25 275.35 191.8 275.85 191.4 277.1 191.2 275.7 191.9 276.8 191.5 275.75 192.25" fill="#ecddaa" fill-rule="evenodd" stroke="none"/>
    <path d="M275.85 191.4 L275.8 191.45 276.3 191.2 276.75 191.05 277.55 190.9 277.55 191.1 277.55 191.15 277.45 191.35 277.25 191.55 276.95 191.7 276.5 191.95 276.5 192.0 276.15 192.15 276.05 192.2 275.9 192.25 275.65 192.35 275.75 192.25 276.8 191.5 275.7 191.9 277.1 191.2 275.85 191.4 M276.4 191.95 L276.5 192.0 276.4 191.95 276.4 192.0 276.4 191.95" fill="#d2a94a" fill-rule="evenodd" stroke="none"/>
    <path d="M276.5 191.95 L276.5 192.0 276.4 191.95 276.5 192.0 276.5 191.95" fill="#b68129" fill-rule="evenodd" stroke="none"/>
    <path d="M276.4 191.95 L276.4 192.0 276.4 191.95 276.5 192.0 276.4 191.95" fill="#e3ba88" fill-rule="evenodd" stroke="none"/>
    <path d="M275.3 192.25 L274.85 192.1 275.3 191.6 Q275.65 191.35 276.15 191.0 L277.1 190.75 Q277.55 190.65 277.55 190.9 L277.15 191.4 276.35 191.9 276.35 191.85 276.3 191.85 276.3 191.8 276.35 191.75 277.1 191.3 277.45 190.9 277.1 190.9 276.15 191.15 275.3 191.65 275.0 192.05 275.3 192.15 276.2 191.85 276.3 191.8 276.3 191.85 276.3 191.9 276.25 191.95 275.3 192.25" fill="#ffcc66" fill-rule="evenodd" stroke="none"/>
    <path d="M289.65 206.0 L289.9 206.55 289.85 207.7 289.5 208.8 289.05 209.2 Q288.8 209.2 288.75 208.65 L288.8 207.5 289.15 206.4 289.65 206.0" fill="#35280d" fill-opacity="0.6117647" fill-rule="evenodd" stroke="none"/>
    <path d="M289.05 206.55 L289.3 206.25 289.7 206.0 289.8 206.65 289.65 207.25 288.8 208.35 289.4 206.8 288.8 207.9 289.05 206.55" fill="#ecddaa" fill-rule="evenodd" stroke="none"/>
    <path d="M289.65 207.25 L289.75 207.15 289.5 207.75 289.25 208.2 288.7 208.9 288.6 208.8 288.55 208.7 288.45 208.5 288.45 208.2 288.55 207.85 288.75 207.35 288.75 207.3 288.8 207.25 288.75 207.3 288.85 206.95 288.9 206.8 288.95 206.7 289.1 206.4 289.05 206.55 288.8 207.9 289.4 206.8 288.8 208.35 289.65 207.25" fill="#d2a94a" fill-rule="evenodd" stroke="none"/>
    <path d="M288.75 207.35 L288.75 207.3 288.75 207.35" fill="#b68129" fill-rule="evenodd" stroke="none"/>
    <path d="M288.75 207.35 L288.75 207.3 288.8 207.25 288.75 207.3 288.75 207.35" fill="#e3ba88" fill-rule="evenodd" stroke="none"/>
    <path d="M289.3 206.15 Q289.6 205.8 289.75 205.95 L289.9 206.65 289.6 207.75 289.05 208.65 Q288.75 209.0 288.6 208.85 288.4 208.75 288.45 208.2 L288.75 207.25 288.75 207.2 288.8 207.2 288.8 207.25 288.8 207.3 288.55 208.25 288.65 208.75 289.0 208.55 289.5 207.65 289.8 206.6 289.7 206.1 Q289.6 206.0 289.4 206.25 L288.85 207.15 288.85 207.2 288.8 207.2 288.75 207.15 288.8 207.1 289.3 206.15" fill="#ffcc66" fill-rule="evenodd" stroke="none"/>
    <path d="M289.8 212.4 L289.75 213.05 288.9 214.2 287.85 214.95 287.15 215.05 Q286.95 214.85 287.2 214.3 287.4 213.8 287.95 213.25 288.55 212.65 289.1 212.4 289.6 212.2 289.8 212.4" fill="#35280d" fill-opacity="0.6117647" fill-rule="evenodd" stroke="none"/>
    <path d="M288.85 212.65 Q289.1 212.5 289.3 212.45 L289.85 212.55 289.55 213.2 289.0 213.75 287.4 214.15 289.05 213.1 287.7 213.7 288.85 212.65" fill="#ecddaa" fill-rule="evenodd" stroke="none"/>
    <path d="M287.95 213.05 L288.35 212.8 288.5 212.75 288.6 212.65 289.0 212.5 288.85 212.65 287.7 213.7 289.05 213.1 287.4 214.15 289.0 213.75 289.1 213.7 288.55 214.15 Q288.2 214.2 287.95 214.35 L286.95 214.65 286.9 214.45 286.85 214.35 286.9 214.05 287.15 213.75 287.45 213.5 287.95 213.1 288.05 213.05 288.1 213.05 288.05 213.05 287.95 213.05" fill="#d2a94a" fill-rule="evenodd" stroke="none"/>
    <path d="M287.95 213.1 L287.95 213.05 288.05 213.05 287.95 213.1" fill="#b68129" fill-rule="evenodd" stroke="none"/>
    <path d="M288.05 213.05 L288.1 213.05 288.05 213.05 287.95 213.1 288.05 213.05" fill="#e3ba88" fill-rule="evenodd" stroke="none"/>
    <path d="M289.35 212.35 Q289.9 212.2 290.0 212.5 L289.6 213.25 288.6 214.1 287.5 214.6 Q286.95 214.75 286.85 214.45 286.75 214.2 287.15 213.75 L288.05 213.0 288.1 212.95 288.1 213.0 288.15 213.05 288.1 213.1 287.25 213.85 286.95 214.4 287.5 214.45 288.6 213.95 289.55 213.1 289.85 212.55 289.35 212.5 Q288.85 212.6 288.25 213.05 L288.15 213.0 288.15 212.9 288.2 212.9 Q288.85 212.5 289.35 212.35" fill="#ffcc66" fill-rule="evenodd" stroke="none"/>
    <path d="M279.7 202.1 L280.55 201.95 281.95 200.95 283.0 199.5 Q283.35 198.85 283.15 198.65 L282.25 198.75 280.9 199.9 279.8 201.2 Q279.5 201.9 279.7 202.1" fill="#35280d" fill-opacity="0.6117647" fill-rule="evenodd" stroke="none"/>
    <path d="M279.9 200.9 L279.7 201.45 Q279.55 202.05 279.75 202.15 L280.55 201.7 281.25 201.0 281.9 198.95 280.5 201.1 281.35 199.4 279.9 200.9" fill="#ecddaa" fill-rule="evenodd" stroke="none"/>
    <path d="M280.55 199.85 L280.2 200.25 280.1 200.45 280.0 200.6 279.8 201.05 279.9 200.9 281.35 199.4 280.5 201.1 281.9 198.95 281.25 201.0 281.2 201.1 281.8 200.35 282.15 199.7 282.55 198.4 282.3 198.35 282.2 198.35 281.85 198.45 281.45 198.75 281.15 199.15 280.6 199.8 280.55 199.85 280.55 199.9 280.55 199.85" fill="#d2a94a" fill-rule="evenodd" stroke="none"/>
    <path d="M280.6 199.8 L280.55 199.85 280.6 199.8" fill="#b68129" fill-rule="evenodd" stroke="none"/>
    <path d="M280.55 199.85 L280.55 199.9 280.55 199.85 280.6 199.8 280.55 199.85" fill="#e3ba88" fill-rule="evenodd" stroke="none"/>
    <path d="M279.7 201.4 Q279.5 202.15 279.8 202.15 280.05 202.3 280.7 201.7 L281.85 200.4 282.55 199.05 Q282.75 198.35 282.45 198.25 282.15 198.2 281.55 198.7 281.0 199.15 280.55 199.85 L280.5 199.9 280.6 199.95 280.65 199.95 280.7 199.9 281.65 198.8 Q282.1 198.35 282.35 198.45 282.55 198.55 282.35 199.05 L281.7 200.4 280.6 201.6 279.9 202.05 Q279.7 201.95 279.85 201.45 280.05 200.8 280.6 200.05 L280.6 200.0 280.55 199.95 280.5 199.95 280.45 200.05 Q279.9 200.85 279.7 201.4" fill="#ffcc66" fill-rule="evenodd" stroke="none"/>
    <path d="M275.65 193.65 L275.6 194.3 274.75 195.45 273.7 196.2 273.0 196.3 Q272.8 196.1 273.05 195.55 273.25 195.05 273.8 194.5 274.4 193.9 274.95 193.65 275.45 193.45 275.65 193.65" fill="#35280d" fill-opacity="0.6117647" fill-rule="evenodd" stroke="none"/>
    <path d="M274.7 193.9 L275.15 193.7 275.7 193.8 275.4 194.45 274.85 195.0 273.25 195.4 274.9 194.35 273.55 194.95 274.7 193.9" fill="#ecddaa" fill-rule="evenodd" stroke="none"/>
    <path d="M273.8 194.3 L274.2 194.05 274.35 194.0 274.45 193.9 274.85 193.75 274.7 193.9 273.55 194.95 274.9 194.35 273.25 195.4 274.85 195.0 274.95 194.95 274.4 195.4 273.8 195.6 272.8 195.9 272.75 195.7 272.7 195.6 272.75 195.3 273.0 195.0 273.3 194.75 273.8 194.35 273.9 194.3 273.95 194.3 273.9 194.3 273.8 194.3" fill="#d2a94a" fill-rule="evenodd" stroke="none"/>
    <path d="M273.8 194.35 L273.8 194.3 273.9 194.3 273.8 194.35" fill="#b68129" fill-rule="evenodd" stroke="none"/>
    <path d="M273.9 194.3 L273.95 194.3 273.9 194.3 273.8 194.35 273.9 194.3" fill="#e3ba88" fill-rule="evenodd" stroke="none"/>
    <path d="M275.2 193.6 Q275.75 193.45 275.85 193.75 L275.45 194.5 274.45 195.35 273.35 195.85 272.7 195.7 Q272.6 195.45 273.0 195.0 L273.9 194.25 273.95 194.2 273.95 194.25 274.0 194.3 273.95 194.35 273.1 195.1 Q272.75 195.45 272.8 195.65 L273.35 195.7 274.45 195.2 275.4 194.35 275.7 193.8 275.2 193.75 Q274.7 193.85 274.1 194.3 L274.0 194.25 274.0 194.15 274.05 194.15 275.2 193.6" fill="#ffcc66" fill-rule="evenodd" stroke="none"/>
    <path d="M276.05 207.7 Q275.9 207.7 275.85 207.2 275.8 206.7 275.9 206.1 L276.3 205.1 276.65 204.7 276.95 205.25 276.8 206.3 276.5 207.35 276.05 207.7" fill="#35280d" fill-opacity="0.6117647" fill-rule="evenodd" stroke="none"/>
    <path d="M276.6 207.2 L276.4 207.5 Q276.2 207.8 276.05 207.7 275.95 207.65 276.0 207.15 L276.15 206.55 276.9 205.55 276.35 206.95 276.9 205.95 276.6 207.2" fill="#ecddaa" fill-rule="evenodd" stroke="none"/>
    <path d="M276.15 206.55 L276.1 206.6 276.25 206.0 276.5 205.65 277.0 205.0 277.15 205.1 277.2 205.15 277.2 205.35 277.2 205.65 277.15 205.95 276.95 206.45 276.95 206.5 276.8 206.85 276.75 206.95 276.75 207.05 276.6 207.35 276.6 207.2 276.9 205.95 276.35 206.95 276.9 205.55 276.15 206.55 M276.95 206.55 L276.95 206.5 276.95 206.55 276.9 206.55 276.95 206.55" fill="#d2a94a" fill-rule="evenodd" stroke="none"/>
    <path d="M276.95 206.45 L276.95 206.5 276.95 206.55 276.95 206.5 276.95 206.45" fill="#b68129" fill-rule="evenodd" stroke="none"/>
    <path d="M276.95 206.55 L276.9 206.55 276.95 206.55 276.95 206.5 276.95 206.55" fill="#e3ba88" fill-rule="evenodd" stroke="none"/>
    <path d="M276.25 207.55 Q276.05 207.85 275.9 207.7 L275.8 207.05 276.1 206.05 276.55 205.2 Q276.85 204.8 277.0 205.0 L277.05 205.6 276.8 206.5 276.8 206.55 276.8 206.5 276.75 206.45 277.0 205.6 276.95 205.1 Q276.85 205.0 276.6 205.3 L276.15 206.1 275.9 207.1 275.9 207.6 276.2 207.4 276.7 206.55 276.75 206.5 276.8 206.55 276.75 206.6 276.25 207.55" fill="#ffcc66" fill-rule="evenodd" stroke="none"/>
    <path d="M276.05 207.2 Q275.9 207.05 276.45 206.7 L277.95 206.15 279.6 205.8 280.5 205.9 Q280.65 206.05 280.1 206.4 L278.65 206.95 276.95 207.3 276.05 207.2" fill="#35280d" fill-opacity="0.6117647" fill-rule="evenodd" stroke="none"/>
    <path d="M277.25 207.3 L276.65 207.3 276.0 207.15 Q276.0 207.0 276.65 206.75 L277.55 206.5 279.75 206.55 277.2 206.95 279.15 206.75 277.25 207.3" fill="#ecddaa" fill-rule="evenodd" stroke="none"/>
    <path d="M278.5 207.15 L277.95 207.25 277.75 207.3 277.6 207.3 277.1 207.35 277.25 207.3 279.15 206.75 277.2 206.95 279.75 206.55 277.55 206.5 277.45 206.5 278.35 206.35 279.1 206.3 280.5 206.3 280.45 206.45 280.45 206.55 280.3 206.7 279.9 206.9 279.35 206.95 278.6 207.15 278.55 207.15 278.45 207.15 278.4 207.15 278.45 207.15 278.5 207.15" fill="#d2a94a" fill-rule="evenodd" stroke="none"/>
    <path d="M278.6 207.15 L278.5 207.15 278.45 207.15 278.55 207.15 278.6 207.15" fill="#b68129" fill-rule="evenodd" stroke="none"/>
    <path d="M278.45 207.15 L278.4 207.15 278.45 207.15 278.55 207.15 278.45 207.15" fill="#e3ba88" fill-rule="evenodd" stroke="none"/>
    <path d="M276.45 207.2 Q275.7 207.2 275.75 207.0 275.7 206.8 276.5 206.55 L278.1 206.2 279.65 206.05 Q280.4 206.05 280.4 206.25 L279.7 206.7 278.3 207.05 278.2 207.05 278.25 207.0 278.2 206.95 278.25 206.9 279.65 206.65 280.2 206.35 279.65 206.15 278.1 206.25 276.55 206.65 Q275.9 206.85 275.95 206.95 L276.5 207.1 278.05 207.0 278.15 206.95 278.2 207.0 278.15 207.05 278.1 207.05 276.45 207.2" fill="#ffcc66" fill-rule="evenodd" stroke="none"/>
    <path d="M277.85 203.9 Q277.7 203.9 277.65 203.4 L277.7 202.3 278.1 201.3 278.45 200.9 278.75 201.45 278.6 202.5 278.3 203.55 277.85 203.9" fill="#35280d" fill-opacity="0.6117647" fill-rule="evenodd" stroke="none"/>
    <path d="M278.35 203.35 L278.15 203.65 277.8 203.85 Q277.7 203.8 277.75 203.3 L277.9 202.7 278.65 201.7 278.1 203.1 278.65 202.1 278.35 203.35" fill="#ecddaa" fill-rule="evenodd" stroke="none"/>
    <path d="M277.9 202.7 L277.85 202.75 278.0 202.15 278.25 201.8 278.75 201.15 278.9 201.25 278.95 201.3 278.95 201.5 278.95 201.8 278.9 202.1 278.7 202.6 278.7 202.65 278.55 203.0 278.5 203.1 278.5 203.2 278.35 203.5 278.35 203.35 278.65 202.1 278.1 203.1 278.65 201.7 277.9 202.7 M278.7 202.65 L278.7 202.7 278.65 202.7 278.7 202.7 278.7 202.65" fill="#d2a94a" fill-rule="evenodd" stroke="none"/>
    <path d="M278.7 202.6 L278.7 202.65 278.7 202.6 M278.7 202.7 L278.7 202.65 278.7 202.7" fill="#b68129" fill-rule="evenodd" stroke="none"/>
    <path d="M278.7 202.7 L278.65 202.7 278.7 202.7 278.7 202.65 278.7 202.7" fill="#e3ba88" fill-rule="evenodd" stroke="none"/>
    <path d="M278.05 203.75 Q277.85 204.05 277.7 203.9 L277.6 203.25 277.9 202.25 278.35 201.4 Q278.65 201.0 278.8 201.2 L278.85 201.8 278.6 202.7 278.6 202.75 278.6 202.7 278.55 202.65 278.8 201.8 278.75 201.3 Q278.65 201.2 278.4 201.5 L277.95 202.3 277.7 203.3 277.7 203.8 278.0 203.6 278.5 202.75 278.55 202.7 278.6 202.75 278.55 202.8 278.05 203.75" fill="#ffcc66" fill-rule="evenodd" stroke="none"/>
    <path d="M282.05 210.25 L282.3 209.75 Q282.55 209.4 283.1 209.05 L284.1 208.55 Q284.5 208.4 284.6 208.55 L284.45 209.1 283.6 209.8 282.65 210.3 282.05 210.25" fill="#35280d" fill-opacity="0.6117647" fill-rule="evenodd" stroke="none"/>
    <path d="M282.85 210.3 L282.45 210.4 Q282.1 210.4 282.1 210.25 L282.45 209.85 282.95 209.45 284.25 209.3 282.8 209.95 283.9 209.6 282.85 210.3" fill="#ecddaa" fill-rule="evenodd" stroke="none"/>
    <path d="M282.95 209.45 L282.95 209.5 283.4 209.25 283.85 209.1 284.7 209.0 284.65 209.15 284.7 209.25 284.6 209.4 284.35 209.6 284.05 209.8 283.6 210.0 283.55 210.05 283.5 210.05 283.55 210.05 283.25 210.2 283.1 210.25 283.05 210.25 282.7 210.35 282.85 210.3 283.9 209.6 282.8 209.95 284.25 209.3 282.95 209.45" fill="#d2a94a" fill-rule="evenodd" stroke="none"/>
    <path d="M283.6 210.0 L283.55 210.05 283.6 210.0" fill="#b68129" fill-rule="evenodd" stroke="none"/>
    <path d="M283.55 210.05 L283.5 210.05 283.55 210.05" fill="#e3ba88" fill-rule="evenodd" stroke="none"/>
    <path d="M282.4 210.25 L282.0 210.15 Q281.95 209.95 282.4 209.65 L283.35 209.1 284.25 208.85 Q284.7 208.75 284.7 209.0 L284.3 209.5 283.5 209.95 283.45 209.95 283.45 209.9 283.45 209.85 283.5 209.8 284.25 209.4 284.6 209.0 284.2 208.9 283.35 209.2 282.45 209.7 Q282.05 209.95 282.1 210.1 282.1 210.25 282.45 210.2 L283.35 209.9 283.4 209.9 283.4 209.95 283.35 210.0 282.4 210.25" fill="#ffcc66" fill-rule="evenodd" stroke="none"/>
    <path d="M275.85 200.2 Q275.7 200.2 275.65 199.7 275.6 199.2 275.7 198.6 L276.1 197.6 276.45 197.2 276.75 197.75 276.6 198.8 276.3 199.85 275.85 200.2" fill="#35280d" fill-opacity="0.6117647" fill-rule="evenodd" stroke="none"/>
    <path d="M276.4 199.7 L276.2 200.0 Q276.0 200.3 275.85 200.2 275.75 200.15 275.8 199.65 L275.95 199.05 276.7 198.05 276.15 199.45 276.7 198.45 276.4 199.7" fill="#ecddaa" fill-rule="evenodd" stroke="none"/>
    <path d="M276.75 199.0 L276.6 199.35 276.55 199.45 276.55 199.55 276.4 199.85 276.4 199.7 276.7 198.45 276.15 199.45 276.7 198.05 275.95 199.05 275.9 199.1 276.05 198.5 276.3 198.15 276.8 197.5 276.95 197.6 277.0 197.65 277.0 197.85 277.0 198.15 276.95 198.45 276.75 198.95 276.75 199.0 276.75 199.05 276.7 199.05 276.75 199.05 276.75 199.0" fill="#d2a94a" fill-rule="evenodd" stroke="none"/>
    <path d="M276.75 198.95 L276.75 199.0 276.75 199.05 276.75 199.0 276.75 198.95" fill="#b68129" fill-rule="evenodd" stroke="none"/>
    <path d="M276.75 199.05 L276.7 199.05 276.75 199.05 276.75 199.0 276.75 199.05" fill="#e3ba88" fill-rule="evenodd" stroke="none"/>
    <path d="M276.05 200.05 Q275.85 200.35 275.7 200.2 L275.6 199.55 275.9 198.55 276.35 197.7 Q276.65 197.3 276.8 197.5 L276.85 198.1 276.6 199.0 276.6 199.05 276.6 199.0 276.55 198.95 276.8 198.1 276.75 197.6 Q276.65 197.5 276.4 197.8 276.2 198.05 275.95 198.6 L275.7 199.6 275.7 200.1 276.0 199.9 276.5 199.05 276.55 199.0 276.6 199.05 276.55 199.1 276.05 200.05" fill="#ffcc66" fill-rule="evenodd" stroke="none"/>
    <path d="M286.7 206.25 L286.3 206.45 285.35 206.45 284.55 206.4 284.2 206.15 284.7 206.0 285.55 205.95 286.45 206.05 286.7 206.25" fill="#35280d" fill-opacity="0.6117647" fill-rule="evenodd" stroke="none"/>
    <path d="M286.2 206.05 L286.45 206.15 286.6 206.35 286.1 206.4 285.6 206.4 284.8 206.0 285.95 206.2 285.15 206.0 286.2 206.05" fill="#ecddaa" fill-rule="evenodd" stroke="none"/>
    <path d="M285.6 206.4 L285.7 206.45 285.2 206.35 284.9 206.25 284.35 206.05 284.45 205.9 284.55 205.9 284.7 205.85 284.95 205.85 285.2 205.9 285.6 205.9 285.65 205.95 285.65 205.9 285.9 205.95 286.0 205.95 286.1 205.95 286.3 206.05 286.2 206.05 285.15 206.0 285.95 206.2 284.8 206.0 285.6 206.4" fill="#d2a94a" fill-rule="evenodd" stroke="none"/>
    <path d="M285.6 205.9 L285.65 205.9 285.65 205.95 285.6 205.9" fill="#b68129" fill-rule="evenodd" stroke="none"/>
    <path d="M285.6 205.9 L285.65 205.95 285.6 205.9" fill="#e3ba88" fill-rule="evenodd" stroke="none"/>
    <path d="M286.45 206.05 Q286.75 206.2 286.55 206.3 L286.05 206.4 285.2 206.35 284.5 206.15 Q284.25 206.0 284.35 205.9 L284.9 205.85 285.65 205.9 285.65 205.95 285.6 205.95 284.85 205.9 284.45 205.9 284.6 206.1 285.25 206.3 286.05 206.35 286.5 206.3 286.35 206.15 285.7 205.9 285.65 205.95 285.7 205.85 285.75 205.85 286.45 206.05" fill="#ffcc66" fill-rule="evenodd" stroke="none"/>
    <path d="M269.75 196.65 L269.55 197.2 268.7 198.1 267.8 198.8 267.25 198.9 Q267.15 198.75 267.5 198.35 L268.3 197.5 Q268.8 197.0 269.25 196.75 L269.75 196.65" fill="#35280d" fill-opacity="0.6117647" fill-rule="evenodd" stroke="none"/>
    <path d="M269.05 196.8 L269.35 196.7 Q269.75 196.5 269.75 196.7 L269.4 197.2 268.9 197.65 267.65 198.1 269.1 197.15 268.0 197.75 269.05 196.8" fill="#ecddaa" fill-rule="evenodd" stroke="none"/>
    <path d="M268.9 197.65 L268.95 197.6 268.45 198.0 268.05 198.2 Q267.65 198.45 267.25 198.55 L267.25 198.35 267.3 198.3 267.35 198.15 267.6 197.9 267.9 197.65 268.3 197.3 268.35 197.25 268.65 197.0 268.8 197.0 268.85 196.9 269.2 196.75 269.05 196.8 268.0 197.75 269.1 197.15 267.65 198.1 268.9 197.65 M268.35 197.25 L268.4 197.25 268.45 197.25 268.4 197.25 268.35 197.25" fill="#d2a94a" fill-rule="evenodd" stroke="none"/>
    <path d="M268.3 197.3 L268.35 197.25 268.3 197.3 M268.4 197.25 L268.35 197.25 268.4 197.25" fill="#b68129" fill-rule="evenodd" stroke="none"/>
    <path d="M268.4 197.25 L268.45 197.25 268.4 197.25 268.35 197.25 268.4 197.25" fill="#e3ba88" fill-rule="evenodd" stroke="none"/>
    <path d="M269.45 196.75 L269.8 196.8 269.4 197.35 268.5 198.1 267.65 198.6 267.2 198.55 267.6 198.0 268.4 197.35 268.45 197.3 268.45 197.35 268.45 197.4 268.4 197.45 267.65 198.05 267.35 198.45 267.7 198.45 268.5 198.0 269.35 197.3 269.75 196.85 Q269.75 196.7 269.4 196.85 L268.5 197.35 268.45 197.25 268.55 197.3 269.45 196.75" fill="#ffcc66" fill-rule="evenodd" stroke="none"/>
    <path d="M284.2 202.8 L283.7 203.05 282.7 203.15 281.8 203.0 281.5 202.75 Q281.55 202.55 282.0 202.4 L283.0 202.3 283.9 202.45 Q284.25 202.6 284.2 202.8" fill="#35280d" fill-opacity="0.6117647" fill-rule="evenodd" stroke="none"/>
    <path d="M283.75 202.4 L284.0 202.55 284.15 202.8 283.6 202.95 283.05 202.95 282.2 202.4 283.5 202.7 282.6 202.35 283.75 202.4" fill="#ecddaa" fill-rule="evenodd" stroke="none"/>
    <path d="M283.15 202.2 L283.45 202.25 283.55 202.3 283.65 202.3 283.85 202.4 283.75 202.4 282.6 202.35 283.5 202.7 282.2 202.4 283.05 202.95 283.1 203.0 282.6 202.9 282.25 202.7 281.75 202.4 281.85 202.25 281.95 202.2 282.15 202.15 282.4 202.15 282.7 202.15 283.15 202.2 283.2 202.25 283.15 202.2" fill="#d2a94a" fill-rule="evenodd" stroke="none"/>
    <path d="M283.15 202.2 L283.2 202.25 283.15 202.2" fill="#b68129" fill-rule="evenodd" stroke="none"/>
    <path d="M283.2 202.25 L283.15 202.2 283.2 202.25" fill="#e3ba88" fill-rule="evenodd" stroke="none"/>
    <path d="M283.95 202.55 Q284.25 202.7 284.05 202.9 L283.5 203.05 282.55 202.95 281.85 202.6 Q281.55 202.45 281.7 202.3 L282.3 202.15 283.1 202.2 283.15 202.25 283.05 202.3 282.25 202.2 Q281.95 202.2 281.8 202.35 281.7 202.45 281.95 202.55 L282.6 202.9 283.5 202.95 283.95 202.85 Q284.1 202.75 283.85 202.6 L283.15 202.35 283.1 202.3 283.15 202.25 283.2 202.25 283.25 202.25 283.95 202.55" fill="#ffcc66" fill-rule="evenodd" stroke="none"/>
    <path d="M292.35 199.55 L291.85 199.8 290.85 199.9 289.95 199.75 289.65 199.5 290.15 199.15 291.15 199.05 292.05 199.2 292.35 199.55" fill="#35280d" fill-opacity="0.6117647" fill-rule="evenodd" stroke="none"/>
    <path d="M291.9 199.15 L292.15 199.3 292.3 199.55 291.75 199.7 291.2 199.7 290.35 199.15 291.65 199.45 290.75 199.1 291.9 199.15" fill="#ecddaa" fill-rule="evenodd" stroke="none"/>
    <path d="M291.2 199.7 L291.25 199.75 290.75 199.65 290.4 199.45 289.9 199.15 290.0 199.0 290.1 198.95 290.3 198.9 290.55 198.9 290.85 198.9 291.3 198.95 291.6 199.0 291.7 199.05 291.8 199.05 292.0 199.15 291.9 199.15 290.75 199.1 291.65 199.45 290.35 199.15 291.2 199.7 M291.35 199.0 L291.3 198.95 291.35 199.0" fill="#d2a94a" fill-rule="evenodd" stroke="none"/>
    <path d="M291.35 199.0 L291.3 198.95 291.35 199.0" fill="#b68129" fill-rule="evenodd" stroke="none"/>
    <path d="M291.3 198.95 L291.35 199.0 291.3 198.95" fill="#e3ba88" fill-rule="evenodd" stroke="none"/>
    <path d="M292.25 199.25 Q292.55 199.4 292.35 199.6 L291.8 199.75 290.85 199.65 290.15 199.3 Q289.85 199.15 290.0 199.0 L290.6 198.85 291.4 198.9 291.45 198.95 291.35 199.0 290.55 198.9 Q290.25 198.9 290.1 199.05 290.0 199.15 290.25 199.25 L290.9 199.6 291.8 199.65 292.25 199.55 Q292.4 199.45 292.15 199.3 L291.45 199.05 291.4 199.0 291.45 198.95 291.5 198.95 291.55 198.95 292.25 199.25" fill="#ffcc66" fill-rule="evenodd" stroke="none"/>
    <path d="M289.75 207.75 L289.25 208.0 288.25 208.1 287.35 207.95 287.05 207.7 287.55 207.35 288.55 207.25 289.45 207.4 289.75 207.75" fill="#35280d" fill-opacity="0.6117647" fill-rule="evenodd" stroke="none"/>
    <path d="M289.2 207.45 L289.45 207.6 Q289.7 207.75 289.6 207.85 L289.05 208.0 288.5 208.0 287.65 207.45 288.95 207.75 288.05 207.4 289.2 207.45" fill="#ecddaa" fill-rule="evenodd" stroke="none"/>
    <path d="M288.6 207.25 L288.9 207.3 289.0 207.35 289.1 207.35 289.3 207.45 289.2 207.45 288.05 207.4 288.95 207.75 287.65 207.45 288.5 208.0 288.55 208.05 288.05 207.95 287.7 207.75 287.2 207.45 287.3 207.3 287.4 207.25 287.6 207.2 287.85 207.2 288.15 207.2 288.6 207.25 288.65 207.3 288.6 207.25" fill="#d2a94a" fill-rule="evenodd" stroke="none"/>
    <path d="M288.6 207.25 L288.65 207.3 288.6 207.25" fill="#b68129" fill-rule="evenodd" stroke="none"/>
    <path d="M288.65 207.3 L288.6 207.25 288.65 207.3" fill="#e3ba88" fill-rule="evenodd" stroke="none"/>
    <path d="M289.5 207.6 Q289.8 207.75 289.6 207.95 L289.05 208.1 288.1 208.0 287.4 207.65 Q287.1 207.5 287.25 207.35 L287.85 207.2 288.65 207.25 288.7 207.3 288.6 207.35 287.8 207.25 Q287.5 207.25 287.35 207.4 287.25 207.5 287.5 207.6 L288.15 207.95 289.05 208.0 289.5 207.9 Q289.65 207.8 289.4 207.65 L288.7 207.4 288.65 207.35 288.7 207.3 288.75 207.3 288.8 207.3 289.5 207.6" fill="#ffcc66" fill-rule="evenodd" stroke="none"/>
    <path d="M282.15 212.95 L281.65 213.2 280.65 213.3 279.75 213.15 279.45 212.9 279.95 212.55 280.95 212.45 281.85 212.6 282.15 212.95" fill="#35280d" fill-opacity="0.6117647" fill-rule="evenodd" stroke="none"/>
    <path d="M281.7 212.55 L281.95 212.7 Q282.2 212.85 282.1 212.95 L281.55 213.1 281.0 213.1 280.15 212.55 281.45 212.85 280.55 212.5 281.7 212.55" fill="#ecddaa" fill-rule="evenodd" stroke="none"/>
    <path d="M281.0 213.1 L281.05 213.15 280.55 213.05 280.2 212.85 279.7 212.55 279.8 212.4 279.9 212.35 280.1 212.3 280.35 212.3 280.65 212.3 281.1 212.35 281.4 212.4 281.5 212.45 281.6 212.45 281.8 212.55 281.7 212.55 280.55 212.5 281.45 212.85 280.15 212.55 281.0 213.1 M281.15 212.4 L281.1 212.35 281.15 212.4" fill="#d2a94a" fill-rule="evenodd" stroke="none"/>
    <path d="M281.1 212.35 L281.15 212.4 281.1 212.35" fill="#b68129" fill-rule="evenodd" stroke="none"/>
    <path d="M281.15 212.4 L281.1 212.35 281.15 212.4" fill="#e3ba88" fill-rule="evenodd" stroke="none"/>
    <path d="M282.0 212.7 Q282.3 212.85 282.1 213.05 L281.55 213.2 280.6 213.1 279.9 212.75 Q279.6 212.6 279.75 212.45 279.9 212.3 280.35 212.3 L281.15 212.35 281.2 212.4 281.1 212.45 280.3 212.35 Q280.0 212.35 279.85 212.5 279.75 212.6 280.0 212.7 L280.65 213.05 281.55 213.1 282.0 213.0 Q282.15 212.9 281.9 212.75 L281.2 212.5 281.15 212.45 281.2 212.4 281.25 212.4 281.3 212.4 282.0 212.7" fill="#ffcc66" fill-rule="evenodd" stroke="none"/>
    <path d="M282.1 208.1 L281.6 208.35 280.6 208.45 279.7 208.3 279.4 208.05 Q279.45 207.85 279.9 207.7 L280.9 207.6 281.8 207.75 Q282.15 207.9 282.1 208.1" fill="#35280d" fill-opacity="0.6117647" fill-rule="evenodd" stroke="none"/>
    <path d="M281.6 207.75 L281.85 207.9 282.0 208.15 281.45 208.3 280.9 208.3 280.05 207.75 281.35 208.05 280.45 207.7 281.6 207.75" fill="#ecddaa" fill-rule="evenodd" stroke="none"/>
    <path d="M281.0 207.55 L281.3 207.6 281.4 207.65 281.5 207.65 281.7 207.75 281.6 207.75 280.45 207.7 281.35 208.05 280.05 207.75 280.9 208.3 280.95 208.35 280.45 208.25 280.1 208.05 279.6 207.75 279.7 207.6 279.8 207.55 280.0 207.5 280.25 207.5 280.55 207.5 281.0 207.55 281.05 207.6 281.0 207.55" fill="#d2a94a" fill-rule="evenodd" stroke="none"/>
    <path d="M281.0 207.55 L281.05 207.6 281.0 207.55" fill="#b68129" fill-rule="evenodd" stroke="none"/>
    <path d="M281.05 207.6 L281.0 207.55 281.05 207.6" fill="#e3ba88" fill-rule="evenodd" stroke="none"/>
    <path d="M281.95 207.85 Q282.25 208.0 282.05 208.2 L281.5 208.35 280.55 208.25 279.85 207.9 Q279.55 207.75 279.7 207.6 L280.3 207.45 281.1 207.5 281.15 207.55 281.05 207.6 280.25 207.5 Q279.95 207.5 279.8 207.65 L279.95 207.85 280.6 208.2 281.5 208.25 281.95 208.15 Q282.1 208.05 281.85 207.9 L281.15 207.65 281.1 207.6 281.15 207.55 281.2 207.55 281.25 207.55 281.95 207.85" fill="#ffcc66" fill-rule="evenodd" stroke="none"/>
    <path d="M265.7 195.55 L266.1 195.95 267.15 196.0 268.3 195.75 268.85 195.35 268.45 195.0 267.4 194.95 266.25 195.2 Q265.75 195.35 265.7 195.55" fill="#35280d" fill-opacity="0.6117647" fill-rule="evenodd" stroke="none"/>
    <path d="M266.55 194.95 L266.1 195.15 265.75 195.55 266.3 195.65 266.95 195.6 268.25 194.85 266.6 195.35 267.85 194.85 266.55 194.95" fill="#ecddaa" fill-rule="evenodd" stroke="none"/>
    <path d="M267.35 194.7 L266.95 194.75 266.85 194.8 266.7 194.85 266.35 194.95 266.55 194.95 267.85 194.85 266.6 195.35 268.25 194.85 266.95 195.6 266.8 195.65 267.45 195.55 267.95 195.3 268.8 194.85 268.7 194.7 268.75 194.65 268.55 194.55 268.25 194.5 267.95 194.6 267.4 194.7 267.35 194.7 267.3 194.7 267.25 194.75 267.3 194.7 267.35 194.7" fill="#d2a94a" fill-rule="evenodd" stroke="none"/>
    <path d="M267.4 194.7 L267.35 194.7 267.3 194.7 267.35 194.7 267.4 194.7" fill="#b68129" fill-rule="evenodd" stroke="none"/>
    <path d="M267.3 194.7 L267.25 194.75 267.3 194.7 267.35 194.7 267.3 194.7" fill="#e3ba88" fill-rule="evenodd" stroke="none"/>
    <path d="M266.1 195.2 Q265.65 195.45 265.75 195.65 265.75 195.85 266.35 195.85 L267.4 195.65 268.4 195.25 268.85 194.75 Q268.8 194.55 268.3 194.6 L267.3 194.75 267.25 194.8 267.25 194.85 267.3 194.85 268.3 194.7 268.7 194.8 268.4 195.15 267.4 195.55 266.3 195.75 265.85 195.6 266.2 195.25 267.2 194.9 267.25 194.85 267.25 194.8 267.25 194.75 267.15 194.75 266.1 195.2" fill="#ffcc66" fill-rule="evenodd" stroke="none"/>
    <path d="M281.8 207.0 Q281.75 206.9 282.05 206.7 L282.8 206.25 Q283.25 206.05 283.65 206.0 L284.0 206.0 283.75 206.3 282.95 206.75 282.15 207.0 281.8 207.0" fill="#35280d" fill-opacity="0.6117647" fill-rule="evenodd" stroke="none"/>
    <path d="M282.25 206.95 L281.95 207.05 Q281.7 207.0 281.7 206.95 L282.1 206.65 282.5 206.45 283.5 206.4 282.3 206.75 283.2 206.55 282.25 206.95" fill="#ecddaa" fill-rule="evenodd" stroke="none"/>
    <path d="M282.8 206.85 L282.55 206.9 282.5 206.95 282.35 207.0 282.15 207.0 282.25 206.95 283.2 206.55 282.3 206.75 283.5 206.4 282.5 206.45 282.5 206.5 282.95 206.3 283.25 206.25 283.85 206.25 283.85 206.35 283.8 206.35 283.7 206.45 283.45 206.6 283.25 206.65 282.85 206.8 282.8 206.8 282.8 206.85 282.75 206.85 282.8 206.85" fill="#d2a94a" fill-rule="evenodd" stroke="none"/>
    <path d="M282.85 206.8 L282.8 206.85 282.8 206.8 282.85 206.8" fill="#b68129" fill-rule="evenodd" stroke="none"/>
    <path d="M282.8 206.85 L282.75 206.85 282.8 206.85 282.8 206.8 282.8 206.85" fill="#e3ba88" fill-rule="evenodd" stroke="none"/>
    <path d="M281.95 207.05 L281.65 206.95 Q281.65 206.8 282.05 206.65 L282.85 206.35 283.55 206.2 283.85 206.3 283.45 206.6 282.75 206.85 282.7 206.85 282.75 206.85 283.45 206.55 283.75 206.35 283.55 206.3 282.85 206.4 282.05 206.7 Q281.75 206.85 281.75 206.9 281.7 207.0 281.95 207.0 L282.65 206.8 282.7 206.8 282.75 206.85 282.7 206.9 282.65 206.9 281.95 207.05" fill="#ffcc66" fill-rule="evenodd" stroke="none"/>
    <path d="M290.25 201.75 L290.5 201.45 291.25 201.0 292.1 200.75 292.45 200.75 292.2 201.05 291.4 201.5 290.6 201.75 290.25 201.75" fill="#35280d" fill-opacity="0.6117647" fill-rule="evenodd" stroke="none"/>
    <path d="M290.75 201.65 L290.45 201.75 Q290.2 201.7 290.2 201.65 290.25 201.55 290.6 201.35 L291.0 201.15 292.0 201.1 290.8 201.45 291.7 201.25 290.75 201.65" fill="#ecddaa" fill-rule="evenodd" stroke="none"/>
    <path d="M291.0 201.15 L291.0 201.2 291.45 201.0 291.75 200.95 292.35 200.95 292.35 201.05 292.3 201.05 292.2 201.15 291.95 201.3 291.75 201.35 291.35 201.5 291.3 201.5 291.3 201.55 291.25 201.55 291.3 201.55 291.05 201.6 291.0 201.65 290.85 201.7 290.65 201.7 290.75 201.65 291.7 201.25 290.8 201.45 292.0 201.1 291.0 201.15" fill="#d2a94a" fill-rule="evenodd" stroke="none"/>
    <path d="M291.35 201.5 L291.3 201.55 291.3 201.5 291.35 201.5" fill="#b68129" fill-rule="evenodd" stroke="none"/>
    <path d="M291.3 201.5 L291.3 201.55 291.25 201.55 291.3 201.55 291.3 201.5" fill="#e3ba88" fill-rule="evenodd" stroke="none"/>
    <path d="M290.5 201.7 L290.2 201.6 Q290.2 201.45 290.6 201.3 L291.4 201.0 292.1 200.85 292.4 200.95 292.0 201.25 291.3 201.5 291.25 201.5 291.3 201.5 292.0 201.2 292.3 201.0 292.1 200.95 291.4 201.05 290.6 201.35 Q290.3 201.5 290.3 201.55 L290.5 201.65 291.2 201.45 291.25 201.45 291.3 201.5 291.25 201.55 291.2 201.55 290.5 201.7" fill="#ffcc66" fill-rule="evenodd" stroke="none"/>
    <path d="M285.65 211.55 L286.1 211.5 286.8 211.65 287.35 212.0 287.45 212.25 287.05 212.35 286.35 212.15 285.8 211.85 Q285.55 211.65 285.65 211.55" fill="#35280d" fill-opacity="0.6117647" fill-rule="evenodd" stroke="none"/>
    <path d="M285.85 211.9 L285.7 211.75 285.7 211.5 286.1 211.55 286.45 211.7 286.85 212.25 286.1 211.75 286.55 212.2 285.85 211.9" fill="#ecddaa" fill-rule="evenodd" stroke="none"/>
    <path d="M286.15 212.15 L286.0 212.05 285.95 212.05 285.9 211.95 285.75 211.85 285.85 211.9 286.55 212.2 286.1 211.75 286.85 212.25 286.45 211.7 286.45 211.65 286.7 211.8 286.9 212.05 287.2 212.4 287.05 212.45 287.0 212.5 286.9 212.5 286.7 212.45 286.45 212.35 286.2 212.15 286.15 212.15 286.2 212.15 286.15 212.15" fill="#d2a94a" fill-rule="evenodd" stroke="none"/>
    <path d="M286.2 212.15 L286.15 212.15 286.2 212.15" fill="#b68129" fill-rule="evenodd" stroke="none"/>
    <path d="M286.15 212.15 L286.2 212.15 286.15 212.15 286.2 212.15 286.15 212.15" fill="#e3ba88" fill-rule="evenodd" stroke="none"/>
    <path d="M285.8 211.75 L285.75 211.45 286.25 211.5 Q286.5 211.55 286.8 211.75 L287.2 212.15 287.2 212.45 286.75 212.4 286.25 212.15 286.2 212.15 286.25 212.1 286.3 212.1 286.35 212.1 Q286.55 212.3 286.8 212.35 L287.15 212.45 287.1 212.2 286.75 211.8 286.15 211.55 285.85 211.45 285.85 211.7 286.25 212.1 286.2 212.1 286.2 212.15 286.15 212.1 285.8 211.75" fill="#ffcc66" fill-rule="evenodd" stroke="none"/>
    <path d="M269.5 200.35 L269.9 200.15 270.55 200.15 271.2 200.3 271.35 200.55 271.0 200.75 270.35 200.75 269.7 200.6 269.5 200.35" fill="#35280d" fill-opacity="0.6117647" fill-rule="evenodd" stroke="none"/>
    <path d="M269.7 200.55 L269.55 200.5 269.5 200.25 269.85 200.1 270.25 200.2 270.8 200.7 269.95 200.35 270.5 200.7 269.7 200.55" fill="#ecddaa" fill-rule="evenodd" stroke="none"/>
    <path d="M270.1 200.75 L269.95 200.7 269.85 200.65 269.8 200.65 269.65 200.6 269.7 200.55 270.5 200.7 269.95 200.35 270.8 200.7 270.25 200.2 270.2 200.15 270.5 200.25 270.75 200.4 271.05 200.75 271.0 200.8 271.0 200.85 270.8 200.9 270.6 200.9 270.45 200.85 270.15 200.75 270.1 200.75" fill="#d2a94a" fill-rule="evenodd" stroke="none"/>
    <path d="M270.15 200.75 L270.1 200.75 270.15 200.75" fill="#b68129" fill-rule="evenodd" stroke="none"/>
    <path d="M270.1 200.75 L270.15 200.75 270.1 200.75" fill="#e3ba88" fill-rule="evenodd" stroke="none"/>
    <path d="M269.6 200.45 L269.5 200.15 269.95 200.1 270.6 200.25 271.05 200.5 271.1 200.75 270.7 200.9 270.2 200.75 270.15 200.75 270.2 200.7 270.75 200.85 271.1 200.75 271.0 200.5 270.5 200.3 269.9 200.15 269.6 200.2 269.65 200.4 270.15 200.65 270.15 200.7 270.15 200.75 270.1 200.75 269.6 200.45" fill="#ffcc66" fill-rule="evenodd" stroke="none"/>
    <path d="M287.1 206.9 L286.8 207.25 286.05 207.7 285.15 208.0 284.75 207.95 Q284.7 207.85 285.0 207.6 L285.8 207.15 286.65 206.85 287.1 206.9" fill="#35280d" fill-opacity="0.6117647" fill-rule="evenodd" stroke="none"/>
    <path d="M286.6 206.85 L286.9 206.85 287.15 206.9 286.8 207.2 286.3 207.4 285.3 207.45 286.55 207.1 285.6 207.25 286.6 206.85" fill="#ecddaa" fill-rule="evenodd" stroke="none"/>
    <path d="M285.95 207.0 L286.25 206.9 286.35 206.9 286.45 206.85 286.7 206.8 286.6 206.85 285.6 207.25 286.55 207.1 285.3 207.45 286.3 207.4 286.35 207.4 285.95 207.55 285.5 207.65 284.85 207.7 284.95 207.55 284.9 207.5 285.05 207.4 Q285.2 207.3 285.3 207.25 L285.5 207.15 285.95 207.0 286.0 206.95 286.0 207.0 286.0 206.95 285.95 207.0" fill="#d2a94a" fill-rule="evenodd" stroke="none"/>
    <path d="M285.95 207.0 L286.0 206.95 285.95 207.0" fill="#b68129" fill-rule="evenodd" stroke="none"/>
    <path d="M286.0 206.95 L286.0 207.0 286.0 206.95 285.95 207.0 286.0 206.95" fill="#e3ba88" fill-rule="evenodd" stroke="none"/>
    <path d="M286.9 206.8 Q287.3 206.75 287.25 206.95 L286.75 207.25 285.95 207.6 285.2 207.75 Q284.85 207.75 284.85 207.6 L285.25 207.3 286.05 207.0 286.05 206.95 286.05 207.05 286.0 207.05 285.3 207.35 Q285.0 207.5 284.95 207.6 L285.2 207.65 286.0 207.55 286.8 207.2 287.15 207.0 286.9 206.85 286.1 207.05 286.05 207.0 286.1 207.0 286.15 207.0 286.9 206.8" fill="#ffcc66" fill-rule="evenodd" stroke="none"/>
    <path d="M282.85 209.65 L282.35 209.9 281.35 210.0 280.45 209.85 280.15 209.6 280.65 209.25 281.65 209.15 282.55 209.3 282.85 209.65" fill="#35280d" fill-opacity="0.6117647" fill-rule="evenodd" stroke="none"/>
    <path d="M282.3 209.25 L282.55 209.4 Q282.8 209.55 282.7 209.65 L282.15 209.8 281.6 209.8 280.75 209.25 282.05 209.55 281.15 209.2 282.3 209.25" fill="#ecddaa" fill-rule="evenodd" stroke="none"/>
    <path d="M281.6 209.8 L281.65 209.85 281.15 209.75 280.8 209.55 280.3 209.25 280.4 209.1 280.5 209.05 280.7 209.0 280.95 209.0 281.25 209.0 281.7 209.05 282.0 209.1 282.1 209.15 282.2 209.15 282.4 209.25 282.3 209.25 281.15 209.2 282.05 209.55 280.75 209.25 281.6 209.8 M281.75 209.1 L281.7 209.05 281.75 209.1" fill="#d2a94a" fill-rule="evenodd" stroke="none"/>
    <path d="M281.75 209.1 L281.7 209.05 281.75 209.1" fill="#b68129" fill-rule="evenodd" stroke="none"/>
    <path d="M281.7 209.05 L281.75 209.1 281.7 209.05" fill="#e3ba88" fill-rule="evenodd" stroke="none"/>
    <path d="M282.65 209.45 Q282.95 209.6 282.75 209.8 L282.2 209.95 281.25 209.85 280.55 209.5 Q280.25 209.35 280.4 209.2 L281.0 209.05 281.8 209.1 281.85 209.15 281.75 209.2 280.95 209.1 Q280.65 209.1 280.5 209.25 280.4 209.35 280.65 209.45 L281.3 209.8 282.2 209.85 282.65 209.75 Q282.8 209.65 282.55 209.5 L281.85 209.25 281.8 209.2 281.85 209.15 281.9 209.15 281.95 209.15 282.65 209.45" fill="#ffcc66" fill-rule="evenodd" stroke="none"/>
    <path d="M286.45 200.7 L286.85 201.05 288.05 201.25 289.3 201.15 289.9 200.8 289.55 200.5 288.4 200.3 287.1 200.4 Q286.55 200.55 286.45 200.7" fill="#35280d" fill-opacity="0.6117647" fill-rule="evenodd" stroke="none"/>
    <path d="M287.4 200.25 L286.95 200.35 286.5 200.7 287.1 200.9 287.8 200.9 289.3 200.35 287.45 200.55 288.85 200.25 287.4 200.25" fill="#ecddaa" fill-rule="evenodd" stroke="none"/>
    <path d="M287.8 200.9 L287.7 200.9 288.4 200.85 288.95 200.7 289.95 200.35 289.85 200.25 289.85 200.2 289.7 200.05 289.35 200.0 289.0 200.05 288.35 200.05 288.3 200.1 288.25 200.1 288.3 200.1 288.3 200.05 287.9 200.1 287.75 200.1 287.6 200.15 287.25 200.25 287.4 200.25 288.85 200.25 287.45 200.55 289.3 200.35 287.8 200.9" fill="#d2a94a" fill-rule="evenodd" stroke="none"/>
    <path d="M288.35 200.05 L288.3 200.05 288.3 200.1 288.35 200.05" fill="#b68129" fill-rule="evenodd" stroke="none"/>
    <path d="M288.3 200.1 L288.25 200.1 288.3 200.1 288.35 200.05 288.3 200.1" fill="#e3ba88" fill-rule="evenodd" stroke="none"/>
    <path d="M286.95 200.4 Q286.4 200.6 286.5 200.8 L287.1 201.0 288.35 201.0 289.5 200.7 Q290.05 200.5 290.0 200.35 290.0 200.15 289.45 200.1 L288.35 200.15 288.25 200.15 288.3 200.2 288.35 200.2 289.4 200.2 289.9 200.35 289.45 200.6 288.3 200.85 287.1 200.95 Q286.65 200.9 286.65 200.75 L287.0 200.5 288.2 200.25 288.25 200.25 288.25 200.2 288.2 200.15 288.15 200.2 286.95 200.4" fill="#ffcc66" fill-rule="evenodd" stroke="none"/>
    <path d="M269.0 201.35 L268.55 201.7 267.65 201.95 266.8 201.85 266.55 201.55 266.95 201.2 267.85 201.0 268.7 201.05 269.0 201.35" fill="#35280d" fill-opacity="0.6117647" fill-rule="evenodd" stroke="none"/>
    <path d="M268.5 201.1 L268.8 201.2 268.95 201.5 268.45 201.7 267.95 201.7 267.15 201.2 268.3 201.45 267.5 201.1 268.5 201.1" fill="#ecddaa" fill-rule="evenodd" stroke="none"/>
    <path d="M267.95 201.7 L268.0 201.75 267.55 201.7 267.25 201.6 266.75 201.25 266.8 201.1 266.9 201.05 267.05 200.9 267.3 200.85 267.55 200.9 267.95 200.9 268.25 200.9 268.35 200.95 268.45 200.95 268.6 201.05 268.5 201.1 267.5 201.1 268.3 201.45 267.15 201.2 267.95 201.7 M268.0 200.95 L267.95 200.9 268.0 200.95" fill="#d2a94a" fill-rule="evenodd" stroke="none"/>
    <path d="M268.0 200.95 L267.95 200.9 268.0 200.95" fill="#b68129" fill-rule="evenodd" stroke="none"/>
    <path d="M267.95 200.9 L268.0 200.95 267.95 200.9" fill="#e3ba88" fill-rule="evenodd" stroke="none"/>
    <path d="M268.85 201.1 L269.0 201.45 268.4 201.7 267.6 201.7 266.95 201.45 Q266.7 201.25 266.75 201.05 L267.35 200.85 268.05 200.85 268.05 200.9 268.0 200.9 267.25 200.95 266.85 201.1 267.0 201.35 267.65 201.6 268.5 201.6 268.9 201.45 268.75 201.2 268.1 200.95 268.05 200.95 268.05 200.9 268.1 200.85 268.15 200.9 268.85 201.1" fill="#ffcc66" fill-rule="evenodd" stroke="none"/>
    <path d="M281.6 201.4 L281.85 201.1 Q282.15 200.85 282.6 200.65 L283.45 200.4 283.8 200.4 283.55 200.7 282.75 201.15 281.95 201.4 281.6 201.4" fill="#35280d" fill-opacity="0.6117647" fill-rule="evenodd" stroke="none"/>
    <path d="M282.1 201.4 L281.8 201.5 281.55 201.4 281.95 201.1 282.35 200.9 283.35 200.85 282.15 201.2 283.05 201.0 282.1 201.4" fill="#ecddaa" fill-rule="evenodd" stroke="none"/>
    <path d="M282.65 201.3 L282.4 201.35 282.35 201.4 282.2 201.45 282.0 201.45 282.1 201.4 283.05 201.0 282.15 201.2 283.35 200.85 282.35 200.9 282.35 200.95 282.8 200.75 283.1 200.7 283.7 200.7 283.7 200.8 283.65 200.8 283.55 200.9 283.3 201.05 283.1 201.1 282.7 201.25 282.65 201.25 282.65 201.3 282.6 201.3 282.65 201.3" fill="#d2a94a" fill-rule="evenodd" stroke="none"/>
    <path d="M282.7 201.25 L282.65 201.3 282.65 201.25 282.7 201.25" fill="#b68129" fill-rule="evenodd" stroke="none"/>
    <path d="M282.65 201.3 L282.6 201.3 282.65 201.3 282.65 201.25 282.65 201.3" fill="#e3ba88" fill-rule="evenodd" stroke="none"/>
    <path d="M281.8 201.4 L281.5 201.3 281.9 201.0 282.7 200.7 283.4 200.55 283.7 200.65 283.3 200.95 282.6 201.2 282.55 201.2 282.6 201.2 283.3 200.9 283.6 200.7 283.4 200.65 282.7 200.75 281.9 201.05 Q281.6 201.2 281.6 201.25 L281.8 201.35 282.5 201.15 282.55 201.15 282.6 201.2 282.55 201.25 282.5 201.25 281.8 201.4" fill="#ffcc66" fill-rule="evenodd" stroke="none"/>
    <path d="M281.85 201.2 Q281.9 201.05 282.3 201.2 L283.15 201.6 283.9 202.25 284.15 202.7 283.65 202.75 282.8 202.3 282.05 201.7 Q281.75 201.35 281.85 201.2" fill="#35280d" fill-opacity="0.6117647" fill-rule="evenodd" stroke="none"/>
    <path d="M282.2 201.8 L282.0 201.55 281.9 201.15 282.35 201.3 Q282.6 201.4 282.85 201.6 L283.55 202.6 282.45 201.65 283.2 202.45 282.2 201.8" fill="#ecddaa" fill-rule="evenodd" stroke="none"/>
    <path d="M282.85 201.6 L282.8 201.5 283.2 201.9 283.5 202.2 283.95 202.85 283.8 202.9 283.75 202.9 283.6 202.9 283.35 202.75 283.15 202.6 282.75 202.3 282.7 202.3 282.45 202.1 282.4 202.0 282.3 201.95 282.1 201.7 282.2 201.8 283.2 202.45 282.45 201.65 283.55 202.6 282.85 201.6 M282.7 202.3 L282.7 202.25 282.7 202.3" fill="#d2a94a" fill-rule="evenodd" stroke="none"/>
    <path d="M282.75 202.3 L282.7 202.3 282.75 202.3" fill="#b68129" fill-rule="evenodd" stroke="none"/>
    <path d="M282.7 202.3 L282.7 202.25 282.7 202.3" fill="#e3ba88" fill-rule="evenodd" stroke="none"/>
    <path d="M281.95 201.35 Q281.75 201.05 281.85 200.95 L282.4 201.1 283.2 201.7 283.8 202.4 283.85 202.8 283.35 202.65 282.65 202.15 282.65 202.1 282.7 202.15 283.35 202.55 283.75 202.75 283.65 202.35 283.1 201.75 282.35 201.2 281.9 201.05 282.05 201.35 282.6 202.05 282.65 202.05 282.65 202.1 282.6 202.1 282.55 202.05 281.95 201.35" fill="#ffcc66" fill-rule="evenodd" stroke="none"/>
    <path d="M284.7 200.6 Q284.65 200.5 284.95 200.3 L285.7 199.85 Q286.15 199.65 286.55 199.6 L286.9 199.6 286.65 199.9 285.85 200.35 285.05 200.6 284.7 200.6" fill="#35280d" fill-opacity="0.6117647" fill-rule="evenodd" stroke="none"/>
    <path d="M285.25 200.55 L284.95 200.65 Q284.7 200.6 284.7 200.55 L285.1 200.25 285.5 200.05 286.5 200.0 285.3 200.35 286.2 200.15 285.25 200.55" fill="#ecddaa" fill-rule="evenodd" stroke="none"/>
    <path d="M285.8 200.45 L285.55 200.5 285.5 200.55 285.35 200.6 285.15 200.6 285.25 200.55 286.2 200.15 285.3 200.35 286.5 200.0 285.5 200.05 285.5 200.1 285.95 199.9 286.25 199.85 286.85 199.85 286.85 199.95 286.8 199.95 286.7 200.05 286.45 200.2 286.25 200.25 285.85 200.4 285.8 200.4 285.8 200.45 285.75 200.45 285.8 200.45" fill="#d2a94a" fill-rule="evenodd" stroke="none"/>
    <path d="M285.85 200.4 L285.8 200.45 285.8 200.4 285.85 200.4" fill="#b68129" fill-rule="evenodd" stroke="none"/>
    <path d="M285.8 200.45 L285.75 200.45 285.8 200.45 285.8 200.4 285.8 200.45" fill="#e3ba88" fill-rule="evenodd" stroke="none"/>
    <path d="M284.95 200.65 L284.65 200.55 Q284.65 200.4 285.05 200.25 L285.85 199.95 286.55 199.8 286.85 199.9 286.45 200.2 285.75 200.45 285.7 200.45 285.75 200.45 286.45 200.15 286.75 199.95 286.55 199.9 285.85 200.0 285.05 200.3 Q284.75 200.45 284.75 200.5 284.7 200.6 284.95 200.6 L285.65 200.4 285.7 200.4 285.75 200.45 285.7 200.5 285.65 200.5 284.95 200.65" fill="#ffcc66" fill-rule="evenodd" stroke="none"/>
    <path d="M281.75 205.3 Q281.85 205.15 282.2 205.15 L282.95 205.2 283.6 205.45 283.75 205.75 283.35 205.8 282.6 205.75 281.95 205.5 281.75 205.3" fill="#35280d" fill-opacity="0.6117647" fill-rule="evenodd" stroke="none"/>
    <path d="M281.95 205.6 L281.8 205.45 281.7 205.25 282.15 205.2 282.55 205.35 283.05 205.8 282.2 205.4 282.75 205.75 281.95 205.6" fill="#ecddaa" fill-rule="evenodd" stroke="none"/>
    <path d="M282.35 205.8 L282.1 205.7 282.0 205.65 281.85 205.6 281.95 205.6 282.75 205.75 282.2 205.4 283.05 205.8 282.55 205.35 282.5 205.25 282.85 205.4 283.1 205.55 283.4 205.9 283.3 205.9 283.25 205.95 283.15 206.0 282.9 206.0 282.7 205.9 282.4 205.8 282.35 205.8" fill="#d2a94a" fill-rule="evenodd" stroke="none"/>
    <path d="M282.4 205.8 L282.35 205.8 282.4 205.8" fill="#b68129" fill-rule="evenodd" stroke="none"/>
    <path d="M282.35 205.8 L282.4 205.8 282.35 205.8" fill="#e3ba88" fill-rule="evenodd" stroke="none"/>
    <path d="M281.75 205.45 L281.7 205.2 282.2 205.2 282.85 205.4 283.3 205.7 283.4 205.95 282.9 206.0 282.35 205.8 282.3 205.75 282.35 205.75 282.4 205.75 282.4 205.8 283.0 205.95 283.3 205.9 283.25 205.7 282.8 205.45 282.15 205.25 281.8 205.25 281.85 205.4 282.35 205.7 282.35 205.75 282.3 205.75 281.75 205.45" fill="#ffcc66" fill-rule="evenodd" stroke="none"/>
    <path d="M286.6 198.2 L286.85 197.9 287.6 197.45 Q288.05 197.25 288.45 197.2 L288.8 197.2 288.55 197.5 287.75 197.95 286.95 198.2 286.6 198.2" fill="#35280d" fill-opacity="0.6117647" fill-rule="evenodd" stroke="none"/>
    <path d="M287.0 198.2 L286.7 198.3 286.45 198.2 Q286.5 198.1 286.85 197.9 L287.25 197.7 288.25 197.65 287.05 198.0 287.95 197.8 287.0 198.2" fill="#ecddaa" fill-rule="evenodd" stroke="none"/>
    <path d="M287.25 197.7 L287.25 197.75 287.7 197.55 288.0 197.5 288.6 197.5 288.6 197.6 288.55 197.6 288.45 197.7 288.2 197.85 288.0 197.9 287.6 198.05 287.55 198.05 287.55 198.1 287.5 198.1 287.55 198.1 287.3 198.15 287.25 198.2 287.1 198.25 286.9 198.25 287.0 198.2 287.95 197.8 287.05 198.0 288.25 197.65 287.25 197.7" fill="#d2a94a" fill-rule="evenodd" stroke="none"/>
    <path d="M287.6 198.05 L287.55 198.1 287.55 198.05 287.6 198.05" fill="#b68129" fill-rule="evenodd" stroke="none"/>
    <path d="M287.55 198.1 L287.5 198.1 287.55 198.1 287.55 198.05 287.55 198.1" fill="#e3ba88" fill-rule="evenodd" stroke="none"/>
    <path d="M286.8 198.2 L286.5 198.1 286.9 197.8 Q287.25 197.6 287.7 197.5 L288.4 197.35 288.7 197.45 288.3 197.75 287.6 198.0 287.55 198.0 287.6 198.0 288.3 197.7 288.6 197.5 288.4 197.45 287.7 197.55 286.9 197.85 286.6 198.05 286.8 198.15 287.5 197.95 287.55 197.95 287.6 198.0 287.55 198.05 287.5 198.05 286.8 198.2" fill="#ffcc66" fill-rule="evenodd" stroke="none"/>
    <path d="M281.45 190.55 L281.25 191.1 280.4 192.0 279.5 192.7 278.95 192.8 Q278.85 192.65 279.2 192.25 L280.0 191.4 280.95 190.65 281.45 190.55" fill="#35280d" fill-opacity="0.6117647" fill-rule="evenodd" stroke="none"/>
    <path d="M280.8 190.75 L281.1 190.65 Q281.5 190.45 281.5 190.65 L281.15 191.15 280.65 191.6 279.4 192.05 280.85 191.1 279.75 191.7 280.8 190.75" fill="#ecddaa" fill-rule="evenodd" stroke="none"/>
    <path d="M280.1 191.2 L280.4 190.95 280.55 190.95 280.6 190.85 280.95 190.7 280.8 190.75 279.75 191.7 280.85 191.1 279.4 192.05 280.65 191.6 280.7 191.55 280.2 191.95 Q279.95 192.0 279.8 192.15 L279.0 192.5 279.0 192.3 279.05 192.25 279.1 192.1 279.35 191.85 279.65 191.6 280.05 191.25 280.1 191.2 280.15 191.2 280.2 191.2 280.15 191.2 280.1 191.2" fill="#d2a94a" fill-rule="evenodd" stroke="none"/>
    <path d="M280.05 191.25 L280.1 191.2 280.15 191.2 280.1 191.2 280.05 191.25" fill="#b68129" fill-rule="evenodd" stroke="none"/>
    <path d="M280.15 191.2 L280.2 191.2 280.15 191.2 280.1 191.2 280.15 191.2" fill="#e3ba88" fill-rule="evenodd" stroke="none"/>
    <path d="M281.15 190.65 L281.5 190.7 281.1 191.25 280.2 192.0 279.35 192.5 278.9 192.45 279.3 191.9 280.1 191.25 280.15 191.2 280.15 191.25 280.15 191.3 280.1 191.35 Q279.65 191.6 279.35 191.95 L279.05 192.35 279.4 192.35 280.2 191.9 281.05 191.2 281.45 190.75 Q281.45 190.6 281.1 190.75 L280.2 191.25 280.15 191.15 280.25 191.2 281.15 190.65" fill="#ffcc66" fill-rule="evenodd" stroke="none"/>
    <path d="M277.45 189.5 L277.85 189.9 278.9 189.95 280.05 189.7 280.6 189.3 280.2 188.95 279.15 188.9 278.0 189.15 277.45 189.5" fill="#35280d" fill-opacity="0.6117647" fill-rule="evenodd" stroke="none"/>
    <path d="M278.3 188.9 L277.85 189.1 277.5 189.5 278.05 189.6 278.7 189.55 280.0 188.8 278.35 189.3 279.6 188.8 278.3 188.9" fill="#ecddaa" fill-rule="evenodd" stroke="none"/>
    <path d="M278.7 189.55 L278.55 189.6 279.2 189.5 279.7 189.25 280.55 188.8 280.45 188.65 280.5 188.6 280.3 188.5 280.0 188.45 279.7 188.55 279.15 188.65 279.1 188.65 278.7 188.7 278.6 188.75 278.45 188.8 278.1 188.9 278.3 188.9 279.6 188.8 278.35 189.3 280.0 188.8 278.7 189.55 M279.05 188.65 L279.1 188.65 279.05 188.65 279.0 188.7 279.05 188.65" fill="#d2a94a" fill-rule="evenodd" stroke="none"/>
    <path d="M279.15 188.65 L279.1 188.65 279.15 188.65 M279.05 188.65 L279.1 188.65 279.05 188.65" fill="#b68129" fill-rule="evenodd" stroke="none"/>
    <path d="M279.1 188.65 L279.05 188.65 279.0 188.7 279.05 188.65 279.1 188.65" fill="#e3ba88" fill-rule="evenodd" stroke="none"/>
    <path d="M277.85 189.15 Q277.4 189.4 277.5 189.6 277.5 189.8 278.1 189.8 L279.15 189.6 280.15 189.2 280.6 188.7 280.05 188.55 279.05 188.7 279.0 188.75 279.0 188.8 279.05 188.8 280.05 188.65 280.45 188.75 280.15 189.1 279.15 189.5 278.05 189.7 Q277.65 189.7 277.6 189.55 L277.95 189.2 278.95 188.85 279.0 188.8 279.0 188.75 279.0 188.7 278.9 188.7 277.85 189.15" fill="#ffcc66" fill-rule="evenodd" stroke="none"/>
    <path d="M281.25 194.2 L281.65 194.0 282.3 194.0 282.95 194.15 283.1 194.4 282.75 194.6 282.1 194.6 281.45 194.45 281.25 194.2" fill="#35280d" fill-opacity="0.6117647" fill-rule="evenodd" stroke="none"/>
    <path d="M281.45 194.5 L281.3 194.45 281.25 194.2 Q281.3 194.1 281.6 194.05 L282.0 194.15 282.55 194.65 281.7 194.3 282.25 194.65 281.45 194.5" fill="#ecddaa" fill-rule="evenodd" stroke="none"/>
    <path d="M282.0 194.15 L281.95 194.1 282.25 194.2 282.5 194.35 282.8 194.7 282.75 194.75 282.75 194.8 282.55 194.85 282.35 194.85 282.2 194.8 281.9 194.7 281.85 194.7 281.7 194.65 281.6 194.6 281.55 194.6 281.4 194.55 281.45 194.5 282.25 194.65 281.7 194.3 282.55 194.65 282.0 194.15" fill="#d2a94a" fill-rule="evenodd" stroke="none"/>
    <path d="M281.9 194.7 L281.85 194.7 281.9 194.7" fill="#b68129" fill-rule="evenodd" stroke="none"/>
    <path d="M281.85 194.7 L281.9 194.7 281.85 194.7" fill="#e3ba88" fill-rule="evenodd" stroke="none"/>
    <path d="M281.35 194.3 L281.25 194.0 281.7 193.95 282.35 194.1 282.8 194.35 282.85 194.6 Q282.8 194.75 282.45 194.75 L281.95 194.6 281.9 194.6 281.95 194.55 282.5 194.7 282.85 194.6 282.75 194.35 282.25 194.15 281.65 194.0 281.35 194.05 281.4 194.25 281.9 194.5 281.9 194.55 281.9 194.6 281.85 194.6 281.35 194.3" fill="#ffcc66" fill-rule="evenodd" stroke="none"/>
    <path d="M280.7 195.25 L280.25 195.6 279.35 195.85 278.5 195.75 278.25 195.45 278.65 195.1 279.55 194.9 280.4 194.95 280.7 195.25" fill="#35280d" fill-opacity="0.6117647" fill-rule="evenodd" stroke="none"/>
    <path d="M280.2 195.0 L280.5 195.1 280.65 195.4 280.15 195.6 279.65 195.6 278.85 195.1 280.0 195.35 279.2 195.0 280.2 195.0" fill="#ecddaa" fill-rule="evenodd" stroke="none"/>
    <path d="M279.65 194.8 L279.95 194.8 280.05 194.85 280.15 194.85 280.3 194.95 280.2 195.0 279.2 195.0 280.0 195.35 278.85 195.1 279.65 195.6 279.7 195.65 279.25 195.6 278.95 195.5 278.45 195.15 278.5 195.0 278.6 194.95 278.75 194.8 279.0 194.75 279.25 194.8 279.65 194.8 279.7 194.85 279.65 194.8" fill="#d2a94a" fill-rule="evenodd" stroke="none"/>
    <path d="M279.65 194.8 L279.7 194.85 279.65 194.8" fill="#b68129" fill-rule="evenodd" stroke="none"/>
    <path d="M279.7 194.85 L279.65 194.8 279.7 194.85" fill="#e3ba88" fill-rule="evenodd" stroke="none"/>
    <path d="M280.6 195.05 L280.75 195.4 280.15 195.65 279.35 195.65 278.7 195.4 Q278.45 195.2 278.5 195.0 278.65 194.85 279.1 194.8 L279.8 194.8 279.8 194.85 279.75 194.85 279.0 194.9 Q278.75 194.9 278.6 195.05 L278.75 195.3 279.4 195.55 280.25 195.55 280.65 195.4 280.5 195.15 279.85 194.9 279.8 194.9 279.8 194.85 279.85 194.8 279.9 194.85 280.6 195.05" fill="#ffcc66" fill-rule="evenodd" stroke="none"/>
    <path d="M278.9 191.4 L278.7 191.95 277.85 192.85 276.95 193.55 276.4 193.65 Q276.3 193.5 276.65 193.1 L277.45 192.25 278.4 191.5 278.9 191.4" fill="#35280d" fill-opacity="0.6117647" fill-rule="evenodd" stroke="none"/>
    <path d="M278.2 191.65 L278.5 191.55 Q278.9 191.35 278.9 191.55 L278.55 192.05 278.05 192.5 276.8 192.95 278.25 192.0 277.15 192.6 278.2 191.65" fill="#ecddaa" fill-rule="evenodd" stroke="none"/>
    <path d="M278.05 192.5 L278.1 192.45 277.6 192.85 Q277.35 192.9 277.2 193.05 L276.4 193.4 276.4 193.2 276.45 193.15 276.5 193.0 276.75 192.75 277.05 192.5 277.45 192.15 277.5 192.1 277.8 191.85 277.95 191.85 278.0 191.75 278.35 191.6 278.2 191.65 277.15 192.6 278.25 192.0 276.8 192.95 278.05 192.5 M277.55 192.1 L277.5 192.1 277.55 192.1 277.6 192.1 277.55 192.1" fill="#d2a94a" fill-rule="evenodd" stroke="none"/>
    <path d="M277.45 192.15 L277.5 192.1 277.45 192.15 M277.55 192.1 L277.5 192.1 277.55 192.1" fill="#b68129" fill-rule="evenodd" stroke="none"/>
    <path d="M277.5 192.1 L277.55 192.1 277.6 192.1 277.55 192.1 277.5 192.1" fill="#e3ba88" fill-rule="evenodd" stroke="none"/>
    <path d="M278.6 191.5 L278.95 191.55 278.55 192.1 277.65 192.85 276.8 193.35 276.35 193.3 276.75 192.75 277.55 192.1 277.6 192.05 277.6 192.1 277.6 192.15 277.55 192.2 Q277.1 192.45 276.8 192.8 L276.5 193.2 276.85 193.2 277.65 192.75 278.5 192.05 278.9 191.6 Q278.9 191.45 278.55 191.6 L277.65 192.1 277.6 192.0 277.7 192.05 278.6 191.5" fill="#ffcc66" fill-rule="evenodd" stroke="none"/>
    <path d="M274.9 190.35 L275.3 190.75 276.35 190.8 277.5 190.55 278.05 190.15 277.65 189.8 276.6 189.75 275.45 190.0 Q274.95 190.15 274.9 190.35" fill="#35280d" fill-opacity="0.6117647" fill-rule="evenodd" stroke="none"/>
    <path d="M275.7 189.8 L275.25 190.0 274.9 190.4 275.45 190.5 276.1 190.45 277.4 189.7 275.75 190.2 277.0 189.7 275.7 189.8" fill="#ecddaa" fill-rule="evenodd" stroke="none"/>
    <path d="M276.5 189.55 L276.1 189.6 276.0 189.65 275.85 189.7 275.5 189.8 275.7 189.8 277.0 189.7 275.75 190.2 277.4 189.7 276.1 190.45 275.95 190.5 276.6 190.4 277.1 190.15 277.95 189.7 277.85 189.55 277.9 189.5 277.7 189.4 277.4 189.35 277.1 189.45 276.55 189.55 276.5 189.55 276.45 189.55 276.4 189.6 276.45 189.55 276.5 189.55" fill="#d2a94a" fill-rule="evenodd" stroke="none"/>
    <path d="M276.55 189.55 L276.5 189.55 276.45 189.55 276.5 189.55 276.55 189.55" fill="#b68129" fill-rule="evenodd" stroke="none"/>
    <path d="M276.45 189.55 L276.4 189.6 276.45 189.55 276.5 189.55 276.45 189.55" fill="#e3ba88" fill-rule="evenodd" stroke="none"/>
    <path d="M275.25 190.05 Q274.8 190.3 274.9 190.5 274.9 190.7 275.5 190.7 L276.55 190.5 277.55 190.1 278.0 189.6 Q277.95 189.4 277.45 189.45 L276.45 189.6 276.4 189.65 276.4 189.7 276.45 189.7 277.45 189.55 277.85 189.65 277.55 190.0 276.55 190.4 275.45 190.6 275.0 190.45 275.35 190.1 276.35 189.75 276.4 189.7 276.4 189.65 276.4 189.6 276.3 189.6 275.25 190.05" fill="#ffcc66" fill-rule="evenodd" stroke="none"/>
    <path d="M278.7 195.15 L279.1 194.95 279.75 194.95 280.4 195.1 280.55 195.35 280.2 195.55 279.55 195.55 278.9 195.4 278.7 195.15" fill="#35280d" fill-opacity="0.6117647" fill-rule="evenodd" stroke="none"/>
    <path d="M278.85 195.4 L278.7 195.35 278.65 195.1 279.0 194.95 279.4 195.05 279.95 195.55 279.1 195.2 279.65 195.55 278.85 195.4" fill="#ecddaa" fill-rule="evenodd" stroke="none"/>
    <path d="M279.25 195.6 L279.1 195.55 279.0 195.5 278.95 195.5 278.8 195.45 278.85 195.4 279.65 195.55 279.1 195.2 279.95 195.55 279.4 195.05 279.35 195.0 279.65 195.1 279.9 195.25 280.2 195.6 280.15 195.65 280.15 195.7 279.95 195.75 279.75 195.75 279.6 195.7 279.3 195.6 279.25 195.6" fill="#d2a94a" fill-rule="evenodd" stroke="none"/>
    <path d="M279.3 195.6 L279.25 195.6 279.3 195.6" fill="#b68129" fill-rule="evenodd" stroke="none"/>
    <path d="M279.25 195.6 L279.3 195.6 279.25 195.6" fill="#e3ba88" fill-rule="evenodd" stroke="none"/>
    <path d="M278.75 195.2 L278.65 194.9 279.1 194.85 279.75 195.0 280.2 195.25 Q280.4 195.4 280.25 195.5 L279.85 195.65 279.35 195.5 279.3 195.5 279.35 195.45 279.9 195.6 280.25 195.5 280.15 195.25 279.65 195.05 279.05 194.9 278.75 194.95 278.8 195.15 279.3 195.4 279.3 195.45 279.3 195.5 279.25 195.5 278.75 195.2" fill="#ffcc66" fill-rule="evenodd" stroke="none"/>
    <path d="M278.2 196.15 L277.75 196.5 276.85 196.75 276.0 196.65 Q275.7 196.55 275.75 196.35 L276.15 196.0 277.05 195.8 277.9 195.85 278.2 196.15" fill="#35280d" fill-opacity="0.6117647" fill-rule="evenodd" stroke="none"/>
    <path d="M277.6 195.9 L277.9 196.0 278.05 196.3 277.55 196.5 277.05 196.5 276.25 196.0 277.4 196.25 276.6 195.9 277.6 195.9" fill="#ecddaa" fill-rule="evenodd" stroke="none"/>
    <path d="M277.05 196.5 L277.1 196.55 276.65 196.5 276.35 196.4 Q276.0 196.3 275.85 196.05 L275.9 195.9 276.0 195.85 276.15 195.7 276.4 195.65 276.65 195.7 277.05 195.7 277.35 195.7 277.45 195.75 277.55 195.75 277.7 195.85 277.6 195.9 276.6 195.9 277.4 196.25 276.25 196.0 277.05 196.5 M277.1 195.75 L277.05 195.7 277.1 195.75" fill="#d2a94a" fill-rule="evenodd" stroke="none"/>
    <path d="M277.05 195.7 L277.1 195.75 277.05 195.7" fill="#b68129" fill-rule="evenodd" stroke="none"/>
    <path d="M277.1 195.75 L277.05 195.7 277.1 195.75" fill="#e3ba88" fill-rule="evenodd" stroke="none"/>
    <path d="M278.05 195.9 L278.2 196.25 277.6 196.5 276.8 196.5 276.15 196.25 Q275.9 196.05 275.95 195.85 276.1 195.7 276.55 195.65 L277.25 195.65 277.25 195.7 277.2 195.7 276.45 195.75 Q276.2 195.75 276.05 195.9 L276.2 196.15 276.85 196.4 277.7 196.4 278.1 196.25 277.95 196.0 277.3 195.75 277.25 195.75 277.25 195.7 277.3 195.65 277.35 195.7 278.05 195.9" fill="#ffcc66" fill-rule="evenodd" stroke="none"/>
    <path d="M263.7 197.35 L264.1 197.15 264.75 197.15 265.4 197.3 265.55 197.55 265.2 197.75 264.55 197.75 263.9 197.6 263.7 197.35" fill="#35280d" fill-opacity="0.6117647" fill-rule="evenodd" stroke="none"/>
    <path d="M263.85 197.6 L263.7 197.55 263.65 197.3 264.0 197.15 264.4 197.25 264.95 197.75 264.1 197.4 264.65 197.75 263.85 197.6" fill="#ecddaa" fill-rule="evenodd" stroke="none"/>
    <path d="M264.25 197.8 L264.1 197.75 264.0 197.7 263.95 197.7 263.8 197.65 263.85 197.6 264.65 197.75 264.1 197.4 264.95 197.75 264.4 197.25 264.35 197.2 264.65 197.3 264.9 197.45 265.2 197.8 265.15 197.85 265.15 197.9 264.95 197.95 264.75 197.95 264.6 197.9 264.3 197.8 264.25 197.8" fill="#d2a94a" fill-rule="evenodd" stroke="none"/>
    <path d="M264.3 197.8 L264.25 197.8 264.3 197.8" fill="#b68129" fill-rule="evenodd" stroke="none"/>
    <path d="M264.25 197.8 L264.3 197.8 264.25 197.8" fill="#e3ba88" fill-rule="evenodd" stroke="none"/>
    <path d="M263.8 197.45 L263.7 197.15 264.15 197.1 264.8 197.25 265.25 197.5 Q265.45 197.65 265.3 197.75 L264.9 197.9 264.4 197.75 264.35 197.75 264.4 197.7 264.95 197.85 265.3 197.75 265.2 197.5 264.7 197.3 264.1 197.15 263.8 197.2 263.85 197.4 264.35 197.65 264.35 197.7 264.35 197.75 264.3 197.75 263.8 197.45" fill="#ffcc66" fill-rule="evenodd" stroke="none"/>
    <path d="M263.2 198.35 L262.75 198.7 261.85 198.95 261.0 198.85 Q260.7 198.75 260.75 198.55 L261.15 198.2 262.05 198.0 262.9 198.05 263.2 198.35" fill="#35280d" fill-opacity="0.6117647" fill-rule="evenodd" stroke="none"/>
    <path d="M262.7 198.1 L263.0 198.2 263.15 198.5 262.65 198.7 262.15 198.7 261.35 198.2 262.5 198.45 261.7 198.1 262.7 198.1" fill="#ecddaa" fill-rule="evenodd" stroke="none"/>
    <path d="M262.15 198.7 L262.2 198.75 261.75 198.7 261.45 198.6 260.95 198.25 261.0 198.1 261.1 198.05 261.25 197.9 261.5 197.85 261.75 197.9 262.15 197.9 262.45 197.9 262.55 197.95 262.65 197.95 262.8 198.05 262.7 198.1 261.7 198.1 262.5 198.45 261.35 198.2 262.15 198.7 M262.2 197.95 L262.15 197.9 262.2 197.95" fill="#d2a94a" fill-rule="evenodd" stroke="none"/>
    <path d="M262.15 197.9 L262.2 197.95 262.15 197.9" fill="#b68129" fill-rule="evenodd" stroke="none"/>
    <path d="M262.2 197.95 L262.15 197.9 262.2 197.95" fill="#e3ba88" fill-rule="evenodd" stroke="none"/>
    <path d="M263.1 198.15 Q263.35 198.3 263.25 198.5 L262.65 198.75 261.85 198.75 261.2 198.5 Q260.95 198.3 261.0 198.1 261.15 197.95 261.6 197.9 L262.3 197.9 262.3 197.95 262.25 197.95 261.5 198.0 261.1 198.15 261.25 198.4 261.9 198.65 262.75 198.65 263.15 198.5 263.0 198.25 262.35 198.0 262.3 198.0 262.3 197.95 262.35 197.9 262.4 197.95 263.1 198.15" fill="#ffcc66" fill-rule="evenodd" stroke="none"/>
    <path d="M264.5 192.45 L264.9 192.25 265.55 192.25 266.2 192.4 266.35 192.65 266.0 192.85 265.35 192.85 264.7 192.7 264.5 192.45" fill="#35280d" fill-opacity="0.6117647" fill-rule="evenodd" stroke="none"/>
    <path d="M264.7 192.65 L264.55 192.6 264.5 192.35 264.85 192.2 265.25 192.3 265.8 192.8 264.95 192.45 265.5 192.8 264.7 192.65" fill="#ecddaa" fill-rule="evenodd" stroke="none"/>
    <path d="M265.25 192.3 L265.2 192.25 265.5 192.35 265.75 192.5 266.05 192.85 266.0 192.9 266.0 192.95 265.8 193.0 265.6 193.0 265.45 192.95 265.15 192.85 265.1 192.85 264.95 192.8 264.85 192.75 264.8 192.75 264.65 192.7 264.7 192.65 265.5 192.8 264.95 192.45 265.8 192.8 265.25 192.3" fill="#d2a94a" fill-rule="evenodd" stroke="none"/>
    <path d="M265.15 192.85 L265.1 192.85 265.15 192.85" fill="#b68129" fill-rule="evenodd" stroke="none"/>
    <path d="M265.15 192.85 L265.1 192.85 265.15 192.85" fill="#e3ba88" fill-rule="evenodd" stroke="none"/>
    <path d="M264.6 192.55 L264.5 192.25 264.95 192.2 265.6 192.35 266.05 192.6 266.1 192.85 265.7 193.0 265.2 192.85 265.15 192.85 265.2 192.8 265.75 192.95 266.1 192.85 266.0 192.6 265.5 192.4 264.9 192.25 264.6 192.3 264.65 192.5 265.15 192.75 265.15 192.8 265.15 192.85 265.1 192.85 264.6 192.55" fill="#ffcc66" fill-rule="evenodd" stroke="none"/>
    <path d="M264.0 193.45 L263.55 193.8 262.65 194.05 261.8 193.95 261.55 193.65 261.95 193.3 262.85 193.1 263.7 193.15 264.0 193.45" fill="#35280d" fill-opacity="0.6117647" fill-rule="evenodd" stroke="none"/>
    <path d="M263.5 193.2 L263.8 193.3 263.95 193.6 263.45 193.8 262.95 193.8 262.15 193.3 263.3 193.55 262.5 193.2 263.5 193.2" fill="#ecddaa" fill-rule="evenodd" stroke="none"/>
    <path d="M262.95 193.0 L263.25 193.0 263.35 193.05 263.45 193.05 263.6 193.15 263.5 193.2 262.5 193.2 263.3 193.55 262.15 193.3 262.95 193.8 263.0 193.85 262.55 193.8 262.25 193.7 261.75 193.35 261.8 193.2 261.9 193.15 262.05 193.0 262.3 192.95 262.55 193.0 262.95 193.0 263.0 193.05 262.95 193.0" fill="#d2a94a" fill-rule="evenodd" stroke="none"/>
    <path d="M262.95 193.0 L263.0 193.05 262.95 193.0" fill="#b68129" fill-rule="evenodd" stroke="none"/>
    <path d="M263.0 193.05 L262.95 193.0 263.0 193.05" fill="#e3ba88" fill-rule="evenodd" stroke="none"/>
    <path d="M263.9 193.25 Q264.15 193.4 264.05 193.6 263.9 193.8 263.45 193.85 L262.65 193.85 262.0 193.6 Q261.75 193.4 261.8 193.2 L262.4 193.0 263.1 193.0 263.1 193.05 263.05 193.05 262.3 193.1 Q262.05 193.1 261.9 193.25 L262.05 193.5 262.7 193.75 263.55 193.75 263.95 193.6 263.8 193.35 263.15 193.1 263.1 193.1 263.1 193.05 263.15 193.0 263.2 193.05 263.9 193.25" fill="#ffcc66" fill-rule="evenodd" stroke="none"/>
    <path d="M259.95 196.1 L260.35 196.5 261.4 196.55 262.55 196.3 263.1 195.9 262.7 195.55 261.65 195.5 260.5 195.75 259.95 196.1" fill="#35280d" fill-opacity="0.6117647" fill-rule="evenodd" stroke="none"/>
    <path d="M260.75 195.55 L260.3 195.75 Q259.95 195.95 259.95 196.15 L260.5 196.25 261.15 196.2 262.45 195.45 260.8 195.95 262.05 195.45 260.75 195.55" fill="#ecddaa" fill-rule="evenodd" stroke="none"/>
    <path d="M261.15 196.2 L261.0 196.25 261.65 196.15 262.15 195.9 263.0 195.45 262.9 195.3 262.95 195.25 262.75 195.15 262.45 195.1 262.15 195.2 261.6 195.3 261.55 195.3 261.15 195.35 261.05 195.4 260.9 195.45 260.55 195.55 260.75 195.55 262.05 195.45 260.8 195.95 262.45 195.45 261.15 196.2 M261.5 195.3 L261.55 195.3 261.5 195.3 261.45 195.35 261.5 195.3" fill="#d2a94a" fill-rule="evenodd" stroke="none"/>
    <path d="M261.6 195.3 L261.55 195.3 261.6 195.3 M261.5 195.3 L261.55 195.3 261.5 195.3" fill="#b68129" fill-rule="evenodd" stroke="none"/>
    <path d="M261.55 195.3 L261.5 195.3 261.45 195.35 261.5 195.3 261.55 195.3" fill="#e3ba88" fill-rule="evenodd" stroke="none"/>
    <path d="M260.3 195.8 Q259.85 196.05 259.95 196.25 259.95 196.45 260.55 196.45 L261.6 196.25 262.6 195.85 263.05 195.35 262.5 195.2 261.5 195.35 261.45 195.4 261.45 195.45 261.5 195.45 262.5 195.3 262.9 195.4 262.6 195.75 261.6 196.15 260.5 196.35 Q260.1 196.35 260.05 196.2 L260.4 195.85 261.4 195.5 261.45 195.45 261.45 195.4 261.45 195.35 261.35 195.35 260.3 195.8" fill="#ffcc66" fill-rule="evenodd" stroke="none"/>
    <path d="M278.6 196.7 L278.8 196.85 278.7 196.85 278.6 196.7" fill="#b68129" fill-rule="evenodd" stroke="none"/>
    <path d="M278.6 196.7 L278.7 196.85 278.5 196.75 278.35 196.8 278.6 196.7" fill="#e3ba88" fill-rule="evenodd" stroke="none"/>
    <path d="M276.95 199.4 L275.2 198.45 Q274.15 197.45 274.05 196.65 274.05 196.05 275.3 196.0 L276.3 196.05 279.8 198.45 276.3 197.65 280.85 199.5 276.95 199.4" fill="#4d3013" fill-rule="evenodd" stroke="none"/>
    <path d="M276.95 199.4 L280.85 199.5 276.3 197.65 279.8 198.45 276.3 196.05 275.9 195.85 277.05 196.0 277.2 196.1 277.5 196.2 278.6 196.7 278.35 196.8 278.5 196.75 278.7 196.85 278.8 196.85 280.15 197.6 281.2 198.1 281.9 198.9 282.2 199.6 282.25 199.9 282.25 200.6 279.7 200.45 278.25 200.4 276.7 199.5 276.95 199.4" fill="#965c25" fill-rule="evenodd" stroke="none"/>
    <path d="M275.2 199.3 Q273.9 198.2 273.9 197.3 273.95 196.4 275.25 196.4 276.5 196.35 278.3 197.05 L278.4 197.15 278.35 197.25 278.4 197.6 278.25 197.5 Q276.6 196.9 275.35 196.95 274.3 196.75 274.15 197.45 274.3 198.0 275.35 198.95 L278.2 200.5 280.95 201.1 Q282.15 201.0 282.1 200.55 282.2 200.0 281.1 199.2 280.05 198.15 278.55 197.5 L278.5 197.35 278.55 197.25 278.65 197.3 Q280.15 197.9 281.25 198.85 282.6 199.8 282.4 200.6 282.5 201.6 281.1 201.5 L278.2 200.95 Q276.55 200.25 275.2 199.3" fill="#1c1509" fill-rule="evenodd" stroke="none"/>
    <path d="M267.05 182.6 L267.25 182.75 267.15 182.75 267.05 182.6" fill="#b68129" fill-rule="evenodd" stroke="none"/>
    <path d="M267.05 182.6 L267.15 182.75 266.95 182.65 266.8 182.7 267.05 182.6" fill="#e3ba88" fill-rule="evenodd" stroke="none"/>
    <path d="M265.4 185.3 Q264.45 184.95 263.65 184.35 262.6 183.35 262.5 182.55 262.5 181.95 263.75 181.9 L264.75 181.95 268.25 184.35 264.75 183.55 269.3 185.4 265.4 185.3" fill="#4d3013" fill-rule="evenodd" stroke="none"/>
    <path d="M265.4 185.3 L269.3 185.4 264.75 183.55 268.25 184.35 264.75 181.95 264.35 181.75 265.5 181.9 265.65 182.0 265.95 182.1 267.05 182.6 266.8 182.7 266.95 182.65 267.15 182.75 267.25 182.75 Q268.0 183.15 268.6 183.5 L269.65 184.0 270.35 184.8 270.65 185.5 270.7 185.8 270.7 186.5 268.15 186.35 266.7 186.3 265.15 185.4 265.4 185.3" fill="#965c25" fill-rule="evenodd" stroke="none"/>
    <path d="M263.65 185.2 Q262.35 184.1 262.35 183.2 262.4 182.3 263.7 182.3 264.95 182.25 266.75 182.95 L266.85 183.05 266.8 183.15 266.85 183.5 266.7 183.4 Q265.05 182.8 263.8 182.85 262.75 182.65 262.6 183.35 262.75 183.9 263.8 184.85 265.05 185.7 266.65 186.4 L269.4 187.0 Q270.6 186.9 270.55 186.45 270.65 185.9 269.55 185.1 268.5 184.05 267.0 183.4 L266.95 183.25 267.0 183.15 267.1 183.2 Q268.6 183.8 269.7 184.75 271.05 185.7 270.85 186.5 270.95 187.5 269.55 187.4 L266.65 186.85 Q265.0 186.15 263.65 185.2" fill="#1c1509" fill-rule="evenodd" stroke="none"/>
    <path d="M287.6 206.15 L287.8 206.3 287.7 206.3 287.6 206.15" fill="#b68129" fill-rule="evenodd" stroke="none"/>
    <path d="M287.6 206.15 L287.7 206.3 287.5 206.2 287.35 206.25 287.6 206.15" fill="#e3ba88" fill-rule="evenodd" stroke="none"/>
    <path d="M285.95 208.85 Q285.0 208.5 284.2 207.9 283.15 206.9 283.05 206.1 283.05 205.5 284.3 205.45 L285.3 205.5 288.8 207.9 285.3 207.1 289.85 208.95 285.95 208.85" fill="#4d3013" fill-rule="evenodd" stroke="none"/>
    <path d="M285.95 208.85 L289.85 208.95 285.3 207.1 288.8 207.9 285.3 205.5 284.9 205.3 286.05 205.45 286.2 205.55 286.5 205.65 287.6 206.15 287.35 206.25 287.5 206.2 287.7 206.3 287.8 206.3 289.15 207.05 290.2 207.55 290.9 208.35 291.2 209.05 291.25 209.35 291.25 210.05 288.7 209.9 287.25 209.85 285.7 208.95 285.95 208.85" fill="#965c25" fill-rule="evenodd" stroke="none"/>
    <path d="M284.2 208.75 Q282.9 207.65 282.9 206.75 282.95 205.85 284.25 205.85 285.5 205.8 287.3 206.5 L287.4 206.6 287.35 206.7 287.4 207.05 287.25 206.95 Q285.6 206.35 284.35 206.4 283.3 206.2 283.15 206.9 283.3 207.45 284.35 208.4 L287.2 209.95 289.95 210.55 Q291.15 210.45 291.1 210.0 291.2 209.45 290.1 208.65 289.05 207.6 287.55 206.95 L287.5 206.8 287.55 206.7 287.65 206.75 Q289.15 207.35 290.25 208.3 291.6 209.25 291.4 210.05 291.5 211.05 290.1 210.95 L287.2 210.4 284.2 208.75" fill="#1c1509" fill-rule="evenodd" stroke="none"/>
  </g>
</svg>
