<?xml version="1.0" encoding="UTF-8" standalone="no"?>
<svg xmlns:xlink="http://www.w3.org/1999/xlink" height="61.2px" width="62.4px" xmlns="http://www.w3.org/2000/svg">
  <g transform="matrix(1.0, 0.0, 0.0, 1.0, 31.2, 30.6)">
    <path d="M5.0 -29.8 L4.8 -30.05 6.0 -29.9 7.4 -29.55 Q9.75 -26.2 9.25 -21.5 L10.2 -19.7 Q11.15 -17.5 10.05 -15.4 L8.2 -14.15 6.8 -13.65 Q6.5 -8.45 3.8 -4.2 2.35 -2.0 0.25 -0.05 L-1.25 1.25 Q-3.3 1.0 -5.0 -0.05 -2.2 -2.6 0.1 -5.6 2.75 -9.25 4.6 -13.55 3.45 -13.75 2.2 -14.35 L1.1 -16.2 Q-0.75 -20.0 2.85 -22.75 5.05 -23.95 7.3 -22.4 7.25 -26.55 5.0 -29.8 M-5.9 -26.15 Q-8.3 -24.45 -9.75 -22.45 -13.7 -21.45 -16.5 -19.05 L-16.95 -18.7 -17.2 -18.65 -19.8 -16.35 -20.05 -15.45 -20.9 -14.3 -21.8 -13.75 -22.95 -11.75 Q-28.55 -2.05 -27.4 10.65 L-26.5 17.15 Q-30.65 11.25 -30.7 3.85 -30.8 -7.05 -23.45 -16.25 -21.0 -19.4 -17.85 -21.55 L-15.75 -22.85 Q-12.5 -24.7 -8.6 -25.6 L-5.9 -26.15" fill="#ffffff" fill-rule="evenodd" stroke="none"/>
    <path d="M4.8 -30.05 L5.0 -29.8 Q-0.6 -29.35 -3.6 -26.65 -5.05 -25.35 -5.85 -23.5 -6.9 -21.25 -7.0 -18.2 -7.25 -9.3 0.1 -5.6 -2.2 -2.6 -5.0 -0.05 L-6.85 -1.55 -6.9 -1.6 -7.05 -1.75 -6.9 -1.6 -6.85 -1.55 Q-8.95 -1.1 -10.8 -0.3 L-13.4 1.0 Q-13.95 0.2 -15.0 -2.65 -16.05 -5.55 -16.8 -10.4 -17.35 -14.0 -16.5 -19.05 -13.7 -21.45 -9.75 -22.45 -8.3 -24.45 -5.9 -26.15 L-5.85 -26.2 -5.7 -26.3 -6.15 -26.25 -4.6 -27.35 Q0.2 -30.45 4.8 -30.05 M-7.05 -1.75 Q-15.9 -14.15 -9.9 -22.25 L-9.75 -22.45 -9.9 -22.25 Q-15.9 -14.15 -7.05 -1.75 M16.9 -21.4 L18.8 -20.1 20.0 -19.05 Q22.8 -12.1 20.0 -6.85 17.15 -1.6 13.95 1.6 L13.6 1.6 13.35 2.0 12.9 1.7 12.0 1.1 Q10.25 0.05 8.35 -0.65 L8.05 -0.75 8.55 -1.05 8.05 -0.75 7.95 -0.75 6.95 -0.2 Q4.1 1.05 0.6 1.3 L-1.25 1.25 0.25 -0.05 Q2.35 -2.0 3.8 -4.2 L8.1 -3.5 10.3 -3.6 11.2 -3.7 Q16.85 -8.4 18.1 -14.8 L17.85 -18.15 16.9 -21.4 M8.55 -1.05 L10.95 -2.65 Q17.9 -7.85 18.1 -14.8 17.9 -7.85 10.95 -2.65 L8.55 -1.05 M14.3 3.8 L14.95 3.3 Q18.55 6.6 18.6 10.95 L18.5 12.6 18.45 12.25 18.3 8.6 17.1 6.05 14.7 4.1 14.3 3.8 M16.85 16.55 L16.0 17.6 16.55 16.85 16.85 16.55 M10.15 21.85 Q6.0 23.85 0.85 24.1 L0.65 24.1 Q0.3 23.65 0.15 20.6 -0.15 16.4 0.05 13.05 0.2 9.7 -0.2 8.75 3.85 8.7 7.3 7.65 9.85 15.1 7.15 22.75 L7.15 23.0 10.15 21.85 M-2.8 24.05 Q-9.5 23.65 -14.5 20.3 -20.2 16.45 -20.2 10.95 -20.2 6.6 -16.6 3.3 L-15.95 3.85 -16.55 4.1 Q-16.5 4.4 -16.8 4.65 L-17.3 4.7 -17.85 5.25 Q-19.95 9.2 -19.4 14.05 -17.25 18.55 -10.85 21.8 -14.55 17.75 -11.35 21.05 L-9.55 7.4 Q-6.25 8.5 -2.35 8.7 L-2.3 13.5 Q-2.2 16.45 -2.5 19.4 L-2.85 23.05 -2.8 24.05" fill="#c69500" fill-rule="evenodd" stroke="none"/>
    <path d="M0.1 -5.6 Q-7.25 -9.3 -7.0 -18.2 -6.9 -21.25 -5.85 -23.5 -5.05 -25.35 -3.6 -26.65 -0.6 -29.35 5.0 -29.8 7.25 -26.55 7.3 -22.4 5.05 -23.95 2.85 -22.75 -0.75 -20.0 1.1 -16.2 L2.2 -14.35 Q3.45 -13.75 4.6 -13.55 2.75 -9.25 0.1 -5.6 M7.4 -29.55 Q11.9 -28.15 16.2 -23.1 L16.3 -22.95 16.9 -21.4 17.85 -18.15 18.1 -14.8 Q16.85 -8.4 11.2 -3.7 L10.3 -3.6 8.1 -3.5 3.8 -4.2 Q6.5 -8.45 6.8 -13.65 L8.2 -14.15 10.05 -15.4 Q11.15 -17.5 10.2 -19.7 L9.25 -21.5 Q9.75 -26.2 7.4 -29.55" fill="#fefe45" fill-rule="evenodd" stroke="none"/>
    <path d="M20.0 -19.05 L21.85 -17.3 Q30.85 -8.1 30.7 3.3 30.55 14.75 21.55 22.45 12.6 30.1 -0.05 30.1 -12.65 30.1 -21.7 22.45 -24.55 19.95 -26.5 17.15 L-27.4 10.65 Q-28.55 -2.05 -22.95 -11.75 L-21.8 -13.75 -20.9 -14.3 -20.05 -15.45 -19.8 -16.35 -17.2 -18.65 -16.95 -18.7 -16.5 -19.05 Q-17.35 -14.0 -16.8 -10.4 -16.05 -5.55 -15.0 -2.65 -13.95 0.2 -13.4 1.0 L-14.5 1.7 Q-15.65 2.45 -16.6 3.3 -20.2 6.6 -20.2 10.95 -20.2 16.45 -14.5 20.3 -9.5 23.65 -2.8 24.05 L-0.8 24.15 0.65 24.1 -0.8 24.15 -2.8 24.05 -2.85 23.05 -2.5 19.4 Q-2.2 16.45 -2.3 13.5 L-2.35 8.7 -0.8 8.75 -0.2 8.75 Q0.2 9.7 0.05 13.05 -0.15 16.4 0.15 20.6 0.3 23.65 0.65 24.1 L0.85 24.1 Q6.0 23.85 10.15 21.85 L12.55 20.8 Q13.85 20.35 14.55 19.25 L15.15 19.1 16.0 17.6 16.85 16.55 Q17.3 16.0 18.05 15.6 18.55 14.2 18.5 12.6 L18.6 10.95 Q18.55 6.6 14.95 3.3 L13.35 2.0 13.6 1.6 13.95 1.6 Q17.15 -1.6 20.0 -6.85 22.8 -12.1 20.0 -19.05" fill="#ffcc33" fill-rule="evenodd" stroke="none"/>
    <path d="M18.5 12.6 Q18.55 14.2 18.05 15.6 17.3 16.0 16.85 16.55 L16.55 16.85 16.0 17.6 15.15 19.1 14.55 19.25 Q13.85 20.35 12.55 20.8 L10.15 21.85 7.15 23.0 7.15 22.75 Q9.85 15.1 7.3 7.65 10.3 6.65 12.9 4.95 L14.3 3.8 14.7 4.1 17.1 6.05 18.3 8.6 18.45 12.25 18.5 12.6 Q18.1 14.7 16.85 16.55 18.1 14.7 18.5 12.6 M16.0 17.6 Q14.75 19.05 12.9 20.3 L10.15 21.85 12.9 20.3 Q14.75 19.05 16.0 17.6 M-9.55 7.4 L-11.35 21.05 Q-14.55 17.75 -10.85 21.8 -17.25 18.55 -19.4 14.05 -19.95 9.2 -17.85 5.25 L-17.3 4.7 -16.8 4.65 Q-16.5 4.4 -16.55 4.1 L-15.95 3.85 -14.5 4.95 Q-12.25 6.45 -9.55 7.4" fill="#9b7500" fill-rule="evenodd" stroke="none"/>
    <path d="M-5.7 -26.3 L-5.85 -26.2 -5.9 -26.15 Q-8.3 -24.45 -9.75 -22.45 L-9.9 -22.25 Q-15.9 -14.15 -7.05 -1.75 M4.8 -30.05 L6.0 -29.9 7.4 -29.55 M16.3 -22.95 L16.9 -21.4 17.85 -18.15 18.1 -14.8 Q17.9 -7.85 10.95 -2.65 L8.55 -1.05 M-1.25 1.25 Q-3.3 1.0 -5.0 -0.05" fill="none" stroke="#000000" stroke-linecap="round" stroke-linejoin="round" stroke-width="1.0"/>
    <path d="M5.0 -29.8 L4.8 -30.05 M-5.0 -0.05 Q-2.2 -2.6 0.1 -5.6 2.75 -9.25 4.6 -13.55 3.45 -13.75 2.2 -14.35 L1.1 -16.2 Q-0.75 -20.0 2.85 -22.75 5.05 -23.95 7.3 -22.4 7.25 -26.55 5.0 -29.8 M7.4 -29.55 Q9.75 -26.2 9.25 -21.5 L10.2 -19.7 Q11.15 -17.5 10.05 -15.4 L8.2 -14.15 6.8 -13.65 Q6.5 -8.45 3.8 -4.2 2.35 -2.0 0.25 -0.05 L-1.25 1.25" fill="none" stroke="#000000" stroke-linecap="round" stroke-linejoin="round" stroke-width="0.1"/>
    <path d="M4.8 -30.05 Q0.2 -30.45 -4.6 -27.35 L-6.15 -26.25 -5.7 -26.3 M-7.05 -1.75 L-6.9 -1.6 -6.85 -1.55 -5.0 -0.05 M7.4 -29.55 Q11.9 -28.15 16.2 -23.1 L16.3 -22.95 M16.9 -21.4 L18.8 -20.1 20.0 -19.05 21.85 -17.3 Q30.85 -8.1 30.7 3.3 30.55 14.75 21.55 22.45 12.6 30.1 -0.05 30.1 -12.65 30.1 -21.7 22.45 -24.55 19.95 -26.5 17.15 -30.65 11.25 -30.7 3.85 -30.8 -7.05 -23.45 -16.25 -21.0 -19.4 -17.85 -21.55 L-15.75 -22.85 Q-12.5 -24.7 -8.6 -25.6 L-5.9 -26.15 M8.55 -1.05 L8.05 -0.75 8.35 -0.65 Q10.25 0.05 12.0 1.1 L12.9 1.7 13.35 2.0 14.95 3.3 Q18.55 6.6 18.6 10.95 L18.5 12.6 Q18.1 14.7 16.85 16.55 L16.0 17.6 Q14.75 19.05 12.9 20.3 L10.15 21.85 Q6.0 23.85 0.85 24.1 L0.65 24.1 -0.8 24.15 -2.8 24.05 Q-9.5 23.65 -14.5 20.3 -20.2 16.45 -20.2 10.95 -20.2 6.6 -16.6 3.3 -15.65 2.45 -14.5 1.7 L-13.4 1.0 -10.8 -0.3 Q-8.95 -1.1 -6.85 -1.55 M-1.25 1.25 L0.6 1.3 Q4.1 1.05 6.95 -0.2 L7.95 -0.75 8.05 -0.75 M14.3 3.8 L14.95 3.3 M14.3 3.8 L12.9 4.95 Q10.3 6.65 7.3 7.65 3.85 8.7 -0.2 8.75 L-0.8 8.75 -2.35 8.7 Q-6.25 8.5 -9.55 7.4 -12.25 6.45 -14.5 4.95 L-15.95 3.85 -16.6 3.3" fill="none" stroke="#000000" stroke-linecap="round" stroke-linejoin="round" stroke-width="1.0"/>
  </g>
</svg>
