<?xml version="1.0" encoding="UTF-8" standalone="no"?>
<svg xmlns:xlink="http://www.w3.org/1999/xlink" height="124.75px" width="44.15px" xmlns="http://www.w3.org/2000/svg">
  <g transform="matrix(1.0, 0.0, 0.0, 1.0, -321.9, -118.6)">
    <path d="M361.45 128.8 L361.45 235.55" fill="none" stroke="#0033cc" stroke-linecap="round" stroke-linejoin="round" stroke-width="0.05"/>
    <path d="M330.4 181.0 L328.4 179.0 326.4 177.0 327.45 181.0 330.4 181.0" fill="#7096c5" fill-rule="evenodd" stroke="none"/>
    <path d="M330.0 177.8 L328.4 179.0 330.4 181.0 334.45 181.0 331.6 176.6 330.0 177.8 M334.0 180.8 L331.55 177.0 334.0 180.8" fill="url(#gradient0)" fill-rule="evenodd" stroke="none"/>
    <path d="M326.4 177.0 L321.9 181.0 327.45 181.0 326.4 177.0 M327.05 180.75 L326.25 177.45 327.05 180.75" fill="url(#gradient1)" fill-rule="evenodd" stroke="none"/>
    <path d="M330.0 177.8 L331.6 176.6 334.8 177.65 334.5 172.4 329.3 176.05 330.0 177.8 M334.5 177.25 L334.3 173.05 334.5 177.25" fill="url(#gradient2)" fill-rule="evenodd" stroke="none"/>
    <path d="M334.5 172.4 L334.8 177.65 342.25 180.1 340.25 178.15 334.5 172.4" fill="#5f83be" fill-rule="evenodd" stroke="none"/>
    <path d="M340.25 178.15 L342.25 180.1 343.6 180.55 342.6 177.05 340.25 178.15 M343.3 180.3 L342.5 177.4 343.3 180.3" fill="url(#gradient3)" fill-rule="evenodd" stroke="none"/>
    <path d="M331.6 176.6 L334.45 181.0 344.95 181.0 343.6 180.55 342.25 180.1 334.8 177.65 331.6 176.6" fill="#82a4cc" fill-rule="evenodd" stroke="none"/>
    <path d="M343.6 180.55 L344.95 181.0 347.05 181.0 346.85 180.25 342.6 177.05 343.6 180.55" fill="#608abd" fill-rule="evenodd" stroke="none"/>
    <path d="M328.4 179.0 L330.0 177.8 331.6 176.6 334.8 177.65 342.25 180.1 340.25 178.15 334.5 172.4 329.3 176.05 330.0 177.8 M334.45 181.0 L330.4 181.0 328.4 179.0 326.4 177.0 321.9 181.0 327.45 181.0 330.4 181.0 M343.6 180.55 L344.95 181.0 334.45 181.0 M344.95 181.0 L347.05 181.0 346.85 180.25 342.6 177.05 340.25 178.15 M343.6 180.55 L342.25 180.1" fill="none" stroke="#000000" stroke-linecap="round" stroke-linejoin="round" stroke-opacity="0.2627451" stroke-width="0.05"/>
    <path d="M326.25 177.45 L327.05 180.75 M342.5 177.4 L343.3 180.3 M334.3 173.05 L334.5 177.25 M331.55 177.0 L334.0 180.8" fill="none" stroke="#ffffff" stroke-linecap="round" stroke-linejoin="round" stroke-width="0.05"/>
    <path d="M327.5 181.0 L330.45 181.0 328.45 183.0 326.45 185.0 327.5 181.0" fill="#7096c5" fill-rule="evenodd" stroke="none"/>
    <path d="M328.45 183.0 L330.45 181.0 334.5 181.0 331.65 185.4 330.05 184.2 328.45 183.0 M334.05 181.2 L331.6 185.0 334.05 181.2" fill="url(#gradient4)" fill-rule="evenodd" stroke="none"/>
    <path d="M327.1 181.25 L326.3 184.55 327.1 181.25 M327.5 181.0 L326.45 185.0 321.95 181.0 327.5 181.0" fill="url(#gradient5)" fill-rule="evenodd" stroke="none"/>
    <path d="M334.55 189.6 L329.35 185.95 330.05 184.2 331.65 185.4 334.85 184.35 334.55 189.6 M334.55 184.75 L334.35 188.95 334.55 184.75" fill="url(#gradient6)" fill-rule="evenodd" stroke="none"/>
    <path d="M340.3 183.85 L334.55 189.6 334.85 184.35 342.3 181.9 340.3 183.85" fill="#5f83be" fill-rule="evenodd" stroke="none"/>
    <path d="M342.65 184.95 L340.3 183.85 342.3 181.9 343.65 181.45 342.65 184.95 M343.35 181.7 L342.55 184.6 343.35 181.7" fill="url(#gradient7)" fill-rule="evenodd" stroke="none"/>
    <path d="M334.5 181.0 L345.0 181.0 343.65 181.45 342.3 181.9 334.85 184.35 331.65 185.4 334.5 181.0" fill="#82a4cc" fill-rule="evenodd" stroke="none"/>
    <path d="M345.0 181.0 L347.1 181.0 346.9 181.75 342.65 184.95 343.65 181.45 345.0 181.0" fill="#608abd" fill-rule="evenodd" stroke="none"/>
    <path d="M330.45 181.0 L327.5 181.0 321.95 181.0 326.45 185.0 328.45 183.0 330.45 181.0 334.5 181.0 345.0 181.0 347.1 181.0 346.9 181.75 342.65 184.95 340.3 183.85 334.55 189.6 329.35 185.95 330.05 184.2 328.45 183.0 M340.3 183.85 L342.3 181.9 334.85 184.35 331.65 185.4 330.05 184.2 M343.65 181.45 L345.0 181.0 M343.65 181.45 L342.3 181.9" fill="none" stroke="#000000" stroke-linecap="round" stroke-linejoin="round" stroke-opacity="0.2627451" stroke-width="0.05"/>
    <path d="M326.3 184.55 L327.1 181.25 M331.6 185.0 L334.05 181.2 M334.35 188.95 L334.55 184.75 M342.55 184.6 L343.35 181.7" fill="none" stroke="#ffffff" stroke-linecap="round" stroke-linejoin="round" stroke-width="0.05"/>
    <path d="M357.9 135.55 L360.3 128.6 359.55 129.0 356.25 130.7 360.8 127.15 362.9 126.85 357.9 135.55 M353.15 139.15 L349.2 147.0 346.9 151.5 344.0 153.05 338.15 160.55 338.7 158.6 342.7 152.3 Q344.35 151.3 346.1 150.25 L353.95 136.6 355.3 134.85 353.45 138.6 353.15 139.15" fill="#82a4cc" fill-rule="evenodd" stroke="none"/>
    <path d="M359.55 129.0 L360.3 128.6 357.9 135.55 356.25 140.4 353.8 142.7 349.2 147.0 353.15 139.15 355.35 138.25 355.45 138.0 359.55 129.0 M354.95 135.1 L355.3 134.85 353.95 136.6 352.55 138.4 349.7 140.2 353.15 134.25 352.75 136.55 Q353.8 135.8 354.95 135.1 M348.6 143.3 L344.65 148.2 346.8 142.0 348.6 143.3 M335.95 160.3 L337.6 162.55 337.75 161.9 338.15 160.55 339.6 161.7 343.4 155.1 344.0 153.05 345.4 155.6 348.65 154.85 346.35 157.15 345.05 158.35 341.4 161.95 340.55 162.75 337.75 165.4 340.55 162.75 344.3 162.6 339.05 165.1 337.75 165.4 336.35 166.7 337.0 164.5 335.95 160.3 M341.4 161.95 L343.4 155.1 341.4 161.95 M337.0 164.5 L337.6 162.55 337.0 164.5" fill="#5f83be" fill-rule="evenodd" stroke="none"/>
    <path d="M362.9 126.85 L360.8 127.15 356.25 130.7 356.25 130.65 357.7 128.9 366.05 118.6 362.9 126.85 M362.7 126.45 L361.0 126.6 357.7 128.9 361.0 126.6 362.7 126.45" fill="url(#gradient8)" fill-rule="evenodd" stroke="none"/>
    <path d="M356.25 130.7 L359.55 129.0 355.45 138.0 355.1 138.15 353.45 138.6 355.3 134.85 354.95 135.1 353.15 136.0 353.25 134.0 354.75 131.45 356.25 130.65 356.25 130.7 M358.9 129.85 L355.1 138.15 358.9 129.85" fill="url(#gradient9)" fill-rule="evenodd" stroke="none"/>
    <path d="M355.45 138.0 L355.35 138.25 353.15 139.15 353.45 138.6 355.1 138.15 355.45 138.0 M356.25 130.7 L356.25 130.65 356.25 130.7 M353.25 134.0 L353.15 136.0 354.95 135.1 Q353.8 135.8 352.75 136.55 L353.15 134.25 353.25 134.0 M352.55 138.4 L353.95 136.6 346.1 150.25 Q344.35 151.3 342.7 152.3 L338.7 158.6 339.3 156.6 342.4 152.0 Q344.15 151.05 345.85 150.05 L352.55 138.4 M347.1 141.8 L348.75 143.1 348.6 143.3 346.8 142.0 347.1 141.8 M344.0 153.05 L343.4 155.1 339.6 161.7 338.15 160.55 344.0 153.05 M342.75 155.3 L339.5 161.0 338.75 160.55 339.5 161.0 342.75 155.3" fill="#b6e9fb" fill-rule="evenodd" stroke="none"/>
    <path d="M349.7 140.2 L352.55 138.4 348.75 143.1 347.1 141.8 349.7 140.2" fill="url(#gradient10)" fill-rule="evenodd" stroke="none"/>
    <path d="M348.75 143.1 L352.55 138.4 345.85 150.05 Q344.15 151.05 342.4 152.0 L339.3 156.6 340.05 154.0 344.65 148.2 348.6 143.3 348.75 143.1" fill="url(#gradient11)" fill-rule="evenodd" stroke="none"/>
    <path d="M349.2 147.0 L353.8 142.7 348.65 154.85 345.4 155.6 344.0 153.05 346.9 151.5 349.2 147.0 M349.5 147.3 L352.95 143.9 349.5 147.3 M348.2 154.35 L345.6 154.9 344.5 153.3 345.6 154.9 348.2 154.35" fill="url(#gradient12)" fill-rule="evenodd" stroke="none"/>
    <path d="M341.4 161.95 L345.05 158.35 346.35 157.15 344.3 162.6 340.55 162.75 341.4 161.95 M343.75 162.0 L341.6 162.3 345.05 158.35 341.6 162.3 343.75 162.0" fill="url(#gradient13)" fill-rule="evenodd" stroke="none"/>
    <path d="M339.3 156.6 L338.7 158.6 338.15 160.55 337.75 161.9 337.6 162.55 335.95 160.3 339.3 156.6 M336.3 160.35 L337.75 161.9 336.3 160.35" fill="url(#gradient14)" fill-rule="evenodd" stroke="none"/>
    <path d="M359.55 129.0 L360.3 128.6 357.9 135.55 362.9 126.85 366.05 118.6 357.7 128.9 356.25 130.65 356.25 130.7 359.55 129.0 M353.15 139.15 L349.2 147.0 353.8 142.7 356.25 140.4 357.9 135.55 M356.25 130.65 L354.75 131.45 353.25 134.0 353.15 134.25 349.7 140.2 347.1 141.8 346.8 142.0 344.65 148.2 340.05 154.0 339.3 156.6 335.95 160.3 337.0 164.5 336.35 166.7 337.75 165.4 340.55 162.75 341.4 161.95 345.05 158.35 346.35 157.15 348.65 154.85 353.8 142.7 M355.3 134.85 L353.45 138.6 353.15 139.15 M349.7 140.2 L352.55 138.4 353.95 136.6 355.3 134.85 M348.75 143.1 L352.55 138.4 M339.3 156.6 L338.7 158.6 338.15 160.55 344.0 153.05 346.9 151.5 349.2 147.0 M344.65 148.2 L348.6 143.3 348.75 143.1 M337.6 162.55 L337.75 161.9 338.15 160.55 M344.0 153.05 L343.4 155.1 341.4 161.95 M344.3 162.6 L339.05 165.1 337.75 165.4 M344.3 162.6 L346.35 157.15 M337.6 162.55 L337.0 164.5" fill="none" stroke="#000000" stroke-linecap="round" stroke-linejoin="round" stroke-opacity="0.2509804" stroke-width="0.05"/>
    <path d="M357.7 128.9 L361.0 126.6 362.7 126.45 M353.25 134.0 L353.15 136.0 354.95 135.1 M353.45 138.6 L355.1 138.15 358.9 129.85 M355.45 138.0 L355.1 138.15 M347.1 141.8 L348.75 143.1 M352.55 138.4 L345.85 150.05 Q344.15 151.05 342.4 152.0 L339.3 156.6 M337.75 161.9 L336.3 160.35 M344.5 153.3 L345.6 154.9 348.2 154.35 M352.95 143.9 L349.5 147.3 M338.75 160.55 L339.5 161.0 342.75 155.3 M345.05 158.35 L341.6 162.3 343.75 162.0" fill="none" stroke="#ffffff" stroke-linecap="round" stroke-linejoin="round" stroke-width="0.05"/>
    <path d="M355.45 144.6 Q354.7 145.95 353.2 146.35 351.7 146.75 350.4 146.0 349.05 145.2 348.65 143.7 348.25 142.25 349.0 140.9 349.8 139.6 351.3 139.15 352.8 138.75 354.15 139.55 355.45 140.3 355.85 141.8 356.25 143.3 355.45 144.6" fill="url(#gradient15)" fill-rule="evenodd" stroke="none"/>
    <path d="M333.15 173.65 L333.85 176.4 334.6 179.1 331.7 176.2 333.15 173.65" fill="#7096c5" fill-rule="evenodd" stroke="none"/>
    <path d="M335.7 175.6 L333.85 176.4 333.15 173.65 335.2 170.15 337.6 174.8 335.7 175.6 M335.1 170.65 L337.2 174.65 335.1 170.65" fill="url(#gradient16)" fill-rule="evenodd" stroke="none"/>
    <path d="M334.6 179.1 L328.9 181.0 331.7 176.2 334.6 179.1 M331.7 176.65 L334.15 179.0 331.7 176.65" fill="url(#gradient17)" fill-rule="evenodd" stroke="none"/>
    <path d="M335.7 175.6 L337.6 174.8 338.3 171.45 342.7 174.4 336.9 177.1 335.7 175.6 M338.5 172.0 L342.05 174.25 338.5 172.0" fill="url(#gradient18)" fill-rule="evenodd" stroke="none"/>
    <path d="M342.7 174.4 L338.3 171.45 339.85 163.85 340.55 166.55 342.7 174.4" fill="#5f83be" fill-rule="evenodd" stroke="none"/>
    <path d="M340.55 166.55 L339.85 163.85 340.15 162.4 342.7 165.05 340.55 166.55 M340.25 162.8 L342.3 164.95 340.25 162.8" fill="url(#gradient19)" fill-rule="evenodd" stroke="none"/>
    <path d="M337.6 174.8 L335.2 170.15 340.45 161.0 340.15 162.4 339.85 163.85 338.3 171.45 337.6 174.8" fill="#82a4cc" fill-rule="evenodd" stroke="none"/>
    <path d="M340.15 162.4 L340.45 161.0 341.5 159.2 342.05 159.75 342.7 165.05 340.15 162.4" fill="#608abd" fill-rule="evenodd" stroke="none"/>
    <path d="M333.85 176.4 L335.7 175.6 337.6 174.8 338.3 171.45 339.85 163.85 340.55 166.55 342.7 174.4 336.9 177.1 335.7 175.6 M335.2 170.15 L333.15 173.65 333.85 176.4 334.6 179.1 328.9 181.0 331.7 176.2 333.15 173.65 M340.15 162.4 L340.45 161.0 335.2 170.15 M340.45 161.0 L341.5 159.2 342.05 159.75 342.7 165.05 340.55 166.55 M340.15 162.4 L339.85 163.85" fill="none" stroke="#000000" stroke-linecap="round" stroke-linejoin="round" stroke-opacity="0.2627451" stroke-width="0.05"/>
    <path d="M334.15 179.0 L331.7 176.65 M342.3 164.95 L340.25 162.8 M342.05 174.25 L338.5 172.0 M337.2 174.65 L335.1 170.65" fill="none" stroke="#ffffff" stroke-linecap="round" stroke-linejoin="round" stroke-width="0.05"/>
    <path d="M331.7 176.15 L333.15 173.6 330.45 174.35 327.7 175.05 331.7 176.15" fill="#7096c5" fill-rule="evenodd" stroke="none"/>
    <path d="M330.45 174.35 L333.15 173.6 335.2 170.1 330.0 170.35 330.2 172.35 330.45 174.35 M334.8 170.4 L330.3 170.6 334.8 170.4" fill="url(#gradient20)" fill-rule="evenodd" stroke="none"/>
    <path d="M331.3 176.4 L328.05 175.45 331.3 176.4 M331.7 176.15 L327.7 175.05 328.9 180.95 331.7 176.15" fill="url(#gradient21)" fill-rule="evenodd" stroke="none"/>
    <path d="M327.8 165.75 L328.3 172.05 330.2 172.35 330.0 170.35 332.5 168.1 327.8 165.75 M332.0 168.15 L328.25 166.2 332.0 168.15" fill="url(#gradient22)" fill-rule="evenodd" stroke="none"/>
    <path d="M335.65 163.6 L327.8 165.75 332.5 168.1 338.35 162.9 335.65 163.6" fill="#5f83be" fill-rule="evenodd" stroke="none"/>
    <path d="M335.9 161.0 L335.65 163.6 338.35 162.9 339.45 161.95 335.9 161.0 M339.05 162.05 L336.1 161.3 339.05 162.05" fill="url(#gradient23)" fill-rule="evenodd" stroke="none"/>
    <path d="M335.2 170.1 L340.45 160.95 339.45 161.95 338.35 162.9 332.5 168.1 330.0 170.35 335.2 170.1" fill="#82a4cc" fill-rule="evenodd" stroke="none"/>
    <path d="M340.45 160.95 L341.5 159.15 340.75 159.0 335.9 161.0 339.45 161.95 340.45 160.95" fill="#608abd" fill-rule="evenodd" stroke="none"/>
    <path d="M333.15 173.6 L331.7 176.15 328.9 180.95 327.7 175.05 330.45 174.35 333.15 173.6 335.2 170.1 340.45 160.95 341.5 159.15 340.75 159.0 335.9 161.0 335.65 163.6 327.8 165.75 328.3 172.05 330.2 172.35 330.45 174.35 M335.65 163.6 L338.35 162.9 332.5 168.1 330.0 170.35 330.2 172.35 M339.45 161.95 L340.45 160.95 M339.45 161.95 L338.35 162.9" fill="none" stroke="#000000" stroke-linecap="round" stroke-linejoin="round" stroke-opacity="0.2627451" stroke-width="0.05"/>
    <path d="M328.05 175.45 L331.3 176.4 M330.3 170.6 L334.8 170.4 M328.25 166.2 L332.0 168.15 M336.1 161.3 L339.05 162.05" fill="none" stroke="#ffffff" stroke-linecap="round" stroke-linejoin="round" stroke-width="0.05"/>
    <path d="M357.85 226.4 L360.25 233.35 359.5 232.95 356.2 231.25 360.75 234.8 362.85 235.1 357.85 226.4 M353.1 222.8 L349.15 214.95 346.85 210.45 343.95 208.9 338.1 201.4 338.65 203.35 342.65 209.65 346.05 211.7 353.9 225.35 355.25 227.1 353.4 223.35 353.1 222.8" fill="#82a4cc" fill-rule="evenodd" stroke="none"/>
    <path d="M359.5 232.95 L360.25 233.35 357.85 226.4 356.2 221.55 353.75 219.25 349.15 214.95 353.1 222.8 355.3 223.7 355.4 223.95 359.5 232.95 M354.9 226.85 L355.25 227.1 353.9 225.35 352.5 223.55 349.65 221.75 353.1 227.7 352.7 225.4 354.9 226.85 M346.75 219.95 L348.55 218.65 344.6 213.75 346.75 219.95 M343.35 206.85 L343.95 208.9 345.35 206.35 348.6 207.1 346.3 204.8 345.0 203.6 341.35 200.0 343.35 206.85 341.35 200.0 340.5 199.2 337.7 196.55 336.3 195.25 336.95 197.45 335.9 201.65 337.55 199.4 337.7 200.05 338.1 201.4 339.55 200.25 343.35 206.85 M344.25 199.35 L339.0 196.85 337.7 196.55 340.5 199.2 344.25 199.35 M336.95 197.45 L337.55 199.4 336.95 197.45" fill="#5f83be" fill-rule="evenodd" stroke="none"/>
    <path d="M362.65 235.5 L360.95 235.35 357.65 233.05 360.95 235.35 362.65 235.5 M362.85 235.1 L360.75 234.8 356.2 231.25 356.2 231.3 357.65 233.05 366.0 243.35 362.85 235.1" fill="url(#gradient24)" fill-rule="evenodd" stroke="none"/>
    <path d="M356.2 231.25 L359.5 232.95 355.4 223.95 355.05 223.8 353.4 223.35 355.25 227.1 354.9 226.85 353.1 225.95 353.2 227.95 354.7 230.5 356.2 231.3 356.2 231.25 M358.85 232.1 L355.05 223.8 358.85 232.1" fill="url(#gradient25)" fill-rule="evenodd" stroke="none"/>
    <path d="M355.4 223.95 L355.3 223.7 353.1 222.8 353.4 223.35 355.05 223.8 355.4 223.95 M354.9 226.85 L352.7 225.4 353.1 227.7 353.2 227.95 353.1 225.95 354.9 226.85 M352.5 223.55 L353.9 225.35 346.05 211.7 342.65 209.65 338.65 203.35 339.25 205.35 342.35 209.95 345.8 211.9 352.5 223.55 M356.2 231.3 L356.2 231.25 356.2 231.3 M347.05 220.15 L348.7 218.85 348.55 218.65 346.75 219.95 347.05 220.15 M343.95 208.9 L343.35 206.85 339.55 200.25 338.1 201.4 343.95 208.9 M342.7 206.65 L339.45 200.95 338.7 201.4 339.45 200.95 342.7 206.65" fill="#b6e9fb" fill-rule="evenodd" stroke="none"/>
    <path d="M349.65 221.75 L352.5 223.55 348.7 218.85 347.05 220.15 349.65 221.75" fill="url(#gradient26)" fill-rule="evenodd" stroke="none"/>
    <path d="M348.55 218.65 L348.7 218.85 352.5 223.55 345.8 211.9 342.35 209.95 339.25 205.35 340.0 207.95 344.6 213.75 348.55 218.65" fill="url(#gradient27)" fill-rule="evenodd" stroke="none"/>
    <path d="M349.15 214.95 L353.75 219.25 348.6 207.1 345.35 206.35 343.95 208.9 346.85 210.45 349.15 214.95 M348.15 207.6 L345.55 207.05 344.45 208.65 345.55 207.05 348.15 207.6 M349.45 214.65 L352.9 218.05 349.45 214.65" fill="url(#gradient28)" fill-rule="evenodd" stroke="none"/>
    <path d="M341.35 200.0 L345.0 203.6 346.3 204.8 344.25 199.35 340.5 199.2 341.35 200.0 M343.7 199.95 L341.55 199.65 345.0 203.6 341.55 199.65 343.7 199.95" fill="url(#gradient29)" fill-rule="evenodd" stroke="none"/>
    <path d="M339.25 205.35 L338.65 203.35 338.1 201.4 337.7 200.05 336.25 201.6 337.7 200.05 337.55 199.4 335.9 201.65 339.25 205.35" fill="url(#gradient30)" fill-rule="evenodd" stroke="none"/>
    <path d="M359.5 232.95 L360.25 233.35 357.85 226.4 362.85 235.1 366.0 243.35 357.65 233.05 356.2 231.3 356.2 231.25 359.5 232.95 M353.1 222.8 L349.15 214.95 353.75 219.25 356.2 221.55 357.85 226.4 M353.1 227.7 L349.65 221.75 352.5 223.55 353.9 225.35 355.25 227.1 353.4 223.35 353.1 222.8 M353.2 227.95 L354.7 230.5 356.2 231.3 M353.1 227.7 L353.2 227.95 M347.05 220.15 L346.75 219.95 344.6 213.75 348.55 218.65 348.7 218.85 352.5 223.55 M339.25 205.35 L338.65 203.35 338.1 201.4 343.95 208.9 343.35 206.85 341.35 200.0 345.0 203.6 346.3 204.8 348.6 207.1 353.75 219.25 M343.95 208.9 L346.85 210.45 349.15 214.95 M339.25 205.35 L340.0 207.95 344.6 213.75 M347.05 220.15 L349.65 221.75 M337.7 200.05 L338.1 201.4 M337.55 199.4 L337.7 200.05 M340.5 199.2 L341.35 200.0 M335.9 201.65 L339.25 205.35 M344.25 199.35 L339.0 196.85 337.7 196.55 336.3 195.25 336.95 197.45 335.9 201.65 M337.55 199.4 L336.95 197.45 M337.7 196.55 L340.5 199.2 M344.25 199.35 L346.3 204.8" fill="none" stroke="#000000" stroke-linecap="round" stroke-linejoin="round" stroke-opacity="0.2509804" stroke-width="0.05"/>
    <path d="M357.65 233.05 L360.95 235.35 362.65 235.5 M353.4 223.35 L355.05 223.8 358.85 232.1 M353.2 227.95 L353.1 225.95 354.9 226.85 M355.4 223.95 L355.05 223.8 M348.7 218.85 L347.05 220.15 M352.5 223.55 L345.8 211.9 342.35 209.95 339.25 205.35 M344.45 208.65 L345.55 207.05 348.15 207.6 M352.9 218.05 L349.45 214.65 M336.25 201.6 L337.7 200.05 M338.7 201.4 L339.45 200.95 342.7 206.65 M345.0 203.6 L341.55 199.65 343.7 199.95" fill="none" stroke="#ffffff" stroke-linecap="round" stroke-linejoin="round" stroke-width="0.05"/>
    <path d="M355.4 217.4 Q354.65 216.05 353.15 215.65 351.65 215.25 350.35 216.0 349.0 216.8 348.6 218.3 348.2 219.75 348.95 221.1 349.75 222.4 351.25 222.85 352.75 223.25 354.1 222.45 355.4 221.7 355.8 220.2 356.2 218.7 355.4 217.4" fill="url(#gradient31)" fill-rule="evenodd" stroke="none"/>
    <path d="M331.65 185.75 L333.1 188.3 333.8 185.55 334.55 182.85 331.65 185.75" fill="#7096c5" fill-rule="evenodd" stroke="none"/>
    <path d="M333.8 185.55 L333.1 188.3 335.15 191.8 337.55 187.15 335.65 186.35 333.8 185.55 M335.05 191.3 L337.15 187.3 335.05 191.3" fill="url(#gradient32)" fill-rule="evenodd" stroke="none"/>
    <path d="M331.65 185.3 L334.1 182.95 331.65 185.3 M331.65 185.75 L334.55 182.85 328.85 180.95 331.65 185.75" fill="url(#gradient33)" fill-rule="evenodd" stroke="none"/>
    <path d="M342.65 187.55 L336.85 184.85 335.65 186.35 337.55 187.15 338.25 190.5 Q340.4 189.0 342.65 187.55 M338.45 189.95 L342.0 187.7 338.45 189.95" fill="url(#gradient34)" fill-rule="evenodd" stroke="none"/>
    <path d="M340.5 195.4 L342.65 187.55 Q340.4 189.0 338.25 190.5 L339.8 198.1 340.5 195.4" fill="#5f83be" fill-rule="evenodd" stroke="none"/>
    <path d="M342.65 196.9 L340.5 195.4 339.8 198.1 340.1 199.55 342.65 196.9 M340.2 199.15 L342.25 197.0 340.2 199.15" fill="url(#gradient35)" fill-rule="evenodd" stroke="none"/>
    <path d="M335.15 191.8 L340.4 200.95 340.1 199.55 339.8 198.1 338.25 190.5 337.55 187.15 335.15 191.8" fill="#82a4cc" fill-rule="evenodd" stroke="none"/>
    <path d="M340.4 200.95 L341.45 202.75 342.0 202.2 342.65 196.9 340.1 199.55 340.4 200.95" fill="#608abd" fill-rule="evenodd" stroke="none"/>
    <path d="M333.1 188.3 L331.65 185.75 328.85 180.95 334.55 182.85 333.8 185.55 333.1 188.3 335.15 191.8 340.4 200.95 341.45 202.75 342.0 202.2 342.65 196.9 340.5 195.4 342.65 187.55 336.85 184.85 335.65 186.35 333.8 185.55 M340.5 195.4 L339.8 198.1 338.25 190.5 337.55 187.15 335.65 186.35 M340.1 199.55 L340.4 200.95 M340.1 199.55 L339.8 198.1" fill="none" stroke="#000000" stroke-linecap="round" stroke-linejoin="round" stroke-opacity="0.2627451" stroke-width="0.05"/>
    <path d="M334.1 182.95 L331.65 185.3 M337.15 187.3 L335.05 191.3 M342.0 187.7 L338.45 189.95 M342.25 197.0 L340.2 199.15" fill="none" stroke="#ffffff" stroke-linecap="round" stroke-linejoin="round" stroke-width="0.05"/>
    <path d="M333.15 188.35 L330.45 187.6 327.7 186.9 331.7 185.8 333.15 188.35" fill="#7096c5" fill-rule="evenodd" stroke="none"/>
    <path d="M330.2 189.6 L330.45 187.6 333.15 188.35 335.2 191.85 330.0 191.6 330.2 189.6 M334.8 191.55 L330.3 191.35 334.8 191.55" fill="url(#gradient36)" fill-rule="evenodd" stroke="none"/>
    <path d="M327.7 186.9 L328.9 181.0 331.7 185.8 327.7 186.9 M331.3 185.55 L328.05 186.5 331.3 185.55" fill="url(#gradient37)" fill-rule="evenodd" stroke="none"/>
    <path d="M330.2 189.6 L330.0 191.6 332.5 193.85 327.8 196.2 328.3 189.9 330.2 189.6 M332.0 193.8 L328.25 195.75 332.0 193.8" fill="url(#gradient38)" fill-rule="evenodd" stroke="none"/>
    <path d="M327.8 196.2 L332.5 193.85 338.35 199.05 335.65 198.35 327.8 196.2" fill="#5f83be" fill-rule="evenodd" stroke="none"/>
    <path d="M335.65 198.35 L338.35 199.05 339.45 200.0 335.9 200.95 335.65 198.35 M339.05 199.9 L336.1 200.65 339.05 199.9" fill="url(#gradient39)" fill-rule="evenodd" stroke="none"/>
    <path d="M330.0 191.6 L335.2 191.85 340.45 201.0 339.45 200.0 338.35 199.05 332.5 193.85 330.0 191.6" fill="#82a4cc" fill-rule="evenodd" stroke="none"/>
    <path d="M339.45 200.0 L340.45 201.0 341.5 202.8 340.75 202.95 335.9 200.95 339.45 200.0" fill="#608abd" fill-rule="evenodd" stroke="none"/>
    <path d="M330.45 187.6 L330.2 189.6 330.0 191.6 332.5 193.85 338.35 199.05 335.65 198.35 327.8 196.2 328.3 189.9 330.2 189.6 M335.2 191.85 L333.15 188.35 330.45 187.6 327.7 186.9 328.9 181.0 331.7 185.8 333.15 188.35 M339.45 200.0 L340.45 201.0 335.2 191.85 M340.45 201.0 L341.5 202.8 340.75 202.95 335.9 200.95 335.65 198.35 M339.45 200.0 L338.35 199.05" fill="none" stroke="#000000" stroke-linecap="round" stroke-linejoin="round" stroke-opacity="0.2627451" stroke-width="0.05"/>
    <path d="M328.05 186.5 L331.3 185.55 M336.1 200.65 L339.05 199.9 M328.25 195.75 L332.0 193.8 M330.3 191.35 L334.8 191.55" fill="none" stroke="#ffffff" stroke-linecap="round" stroke-linejoin="round" stroke-width="0.05"/>
  </g>
  <defs>
    <radialGradient cx="0" cy="0" gradientTransform="matrix(0.0, 0.007, 0.007, 0.0, 329.05, 179.05)" gradientUnits="userSpaceOnUse" id="gradient0" r="819.2" spreadMethod="pad">
      <stop offset="0.0" stop-color="#9cb7d6"/>
      <stop offset="0.4549019607843137" stop-color="#a3e2fa"/>
    </radialGradient>
    <radialGradient cx="0" cy="0" gradientTransform="matrix(0.0, 0.0063, 0.0063, 0.0, 327.05, 180.75)" gradientUnits="userSpaceOnUse" id="gradient1" r="819.2" spreadMethod="pad">
      <stop offset="0.0" stop-color="#9cb7d6"/>
      <stop offset="0.4549019607843137" stop-color="#a3e2fa"/>
    </radialGradient>
    <radialGradient cx="0" cy="0" gradientTransform="matrix(0.0, 0.0077, 0.0077, 0.0, 330.35, 177.15)" gradientUnits="userSpaceOnUse" id="gradient2" r="819.2" spreadMethod="pad">
      <stop offset="0.0" stop-color="#9cb7d6"/>
      <stop offset="0.4549019607843137" stop-color="#a3e2fa"/>
    </radialGradient>
    <radialGradient cx="0" cy="0" gradientTransform="matrix(0.0, 0.0034, 0.0034, 0.0, 342.3, 179.8)" gradientUnits="userSpaceOnUse" id="gradient3" r="819.2" spreadMethod="pad">
      <stop offset="0.0" stop-color="#9cb7d6"/>
      <stop offset="0.4549019607843137" stop-color="#a3e2fa"/>
    </radialGradient>
    <radialGradient cx="0" cy="0" gradientTransform="matrix(0.0, -0.007, 0.007, 0.0, 329.1, 182.95)" gradientUnits="userSpaceOnUse" id="gradient4" r="819.2" spreadMethod="pad">
      <stop offset="0.0" stop-color="#9cb7d6"/>
      <stop offset="0.4549019607843137" stop-color="#a3e2fa"/>
    </radialGradient>
    <radialGradient cx="0" cy="0" gradientTransform="matrix(0.0, -0.0063, 0.0063, 0.0, 327.1, 181.25)" gradientUnits="userSpaceOnUse" id="gradient5" r="819.2" spreadMethod="pad">
      <stop offset="0.0" stop-color="#9cb7d6"/>
      <stop offset="0.4549019607843137" stop-color="#a3e2fa"/>
    </radialGradient>
    <radialGradient cx="0" cy="0" gradientTransform="matrix(0.0, -0.0077, 0.0077, 0.0, 330.4, 184.85)" gradientUnits="userSpaceOnUse" id="gradient6" r="819.2" spreadMethod="pad">
      <stop offset="0.0" stop-color="#9cb7d6"/>
      <stop offset="0.4549019607843137" stop-color="#a3e2fa"/>
    </radialGradient>
    <radialGradient cx="0" cy="0" gradientTransform="matrix(0.0, -0.0034, 0.0034, 0.0, 342.35, 182.2)" gradientUnits="userSpaceOnUse" id="gradient7" r="819.2" spreadMethod="pad">
      <stop offset="0.0" stop-color="#9cb7d6"/>
      <stop offset="0.4549019607843137" stop-color="#a3e2fa"/>
    </radialGradient>
    <radialGradient cx="0" cy="0" gradientTransform="matrix(0.009, 0.0052, -0.0052, 0.009, 362.7, 126.45)" gradientUnits="userSpaceOnUse" id="gradient8" r="819.2" spreadMethod="pad">
      <stop offset="0.0" stop-color="#a2b7e8"/>
      <stop offset="0.596078431372549" stop-color="#a3e2fa"/>
      <stop offset="0.9803921568627451" stop-color="#dbf7fd"/>
    </radialGradient>
    <radialGradient cx="0" cy="0" gradientTransform="matrix(0.0098, 0.0056, -0.0056, 0.0098, 354.35, 136.7)" gradientUnits="userSpaceOnUse" id="gradient9" r="819.2" spreadMethod="pad">
      <stop offset="0.0" stop-color="#a2b7e8"/>
      <stop offset="0.596078431372549" stop-color="#a3e2fa"/>
      <stop offset="0.9803921568627451" stop-color="#dbf7fd"/>
    </radialGradient>
    <radialGradient cx="0" cy="0" gradientTransform="matrix(0.0053, 0.0031, -0.0031, 0.0053, 349.45, 142.25)" gradientUnits="userSpaceOnUse" id="gradient10" r="819.2" spreadMethod="pad">
      <stop offset="0.0" stop-color="#a2b7e8"/>
      <stop offset="0.596078431372549" stop-color="#a3e2fa"/>
      <stop offset="0.9803921568627451" stop-color="#dbf7fd"/>
    </radialGradient>
    <radialGradient cx="0" cy="0" gradientTransform="matrix(0.0216, 0.0125, -0.0125, 0.0216, 340.2, 154.7)" gradientUnits="userSpaceOnUse" id="gradient11" r="819.2" spreadMethod="pad">
      <stop offset="0.0" stop-color="#a2b7e8"/>
      <stop offset="0.596078431372549" stop-color="#a3e2fa"/>
      <stop offset="0.9803921568627451" stop-color="#dbf7fd"/>
    </radialGradient>
    <radialGradient cx="0" cy="0" gradientTransform="matrix(0.0155, 0.009, -0.009, 0.0155, 345.6, 154.9)" gradientUnits="userSpaceOnUse" id="gradient12" r="819.2" spreadMethod="pad">
      <stop offset="0.0" stop-color="#a2b7e8"/>
      <stop offset="0.596078431372549" stop-color="#a3e2fa"/>
      <stop offset="0.9803921568627451" stop-color="#dbf7fd"/>
    </radialGradient>
    <radialGradient cx="0" cy="0" gradientTransform="matrix(0.006, 0.0034, -0.0034, 0.006, 342.75, 161.5)" gradientUnits="userSpaceOnUse" id="gradient13" r="819.2" spreadMethod="pad">
      <stop offset="0.0" stop-color="#a2b7e8"/>
      <stop offset="0.596078431372549" stop-color="#a3e2fa"/>
      <stop offset="0.9803921568627451" stop-color="#dbf7fd"/>
    </radialGradient>
    <radialGradient cx="0" cy="0" gradientTransform="matrix(0.0041, 0.0023, -0.0023, 0.0041, 337.65, 160.1)" gradientUnits="userSpaceOnUse" id="gradient14" r="819.2" spreadMethod="pad">
      <stop offset="0.0" stop-color="#a2b7e8"/>
      <stop offset="0.596078431372549" stop-color="#a3e2fa"/>
      <stop offset="0.9803921568627451" stop-color="#dbf7fd"/>
    </radialGradient>
    <radialGradient cx="0" cy="0" gradientTransform="matrix(0.004, 0.0023, -0.0023, 0.004, 352.25, 142.75)" gradientUnits="userSpaceOnUse" id="gradient15" r="819.2" spreadMethod="pad">
      <stop offset="0.0" stop-color="#ffffff"/>
      <stop offset="1.0" stop-color="#ffffff" stop-opacity="0.0"/>
    </radialGradient>
    <radialGradient cx="0" cy="0" gradientTransform="matrix(-0.0061, -0.0035, 0.0035, -0.0061, 334.15, 175.8)" gradientUnits="userSpaceOnUse" id="gradient16" r="819.2" spreadMethod="pad">
      <stop offset="0.0" stop-color="#9cb7d6"/>
      <stop offset="0.4549019607843137" stop-color="#a3e2fa"/>
    </radialGradient>
    <radialGradient cx="0" cy="0" gradientTransform="matrix(-0.0055, -0.0032, 0.0032, -0.0055, 331.7, 176.65)" gradientUnits="userSpaceOnUse" id="gradient17" r="819.2" spreadMethod="pad">
      <stop offset="0.0" stop-color="#9cb7d6"/>
      <stop offset="0.4549019607843137" stop-color="#a3e2fa"/>
    </radialGradient>
    <radialGradient cx="0" cy="0" gradientTransform="matrix(-0.0067, -0.0039, 0.0039, -0.0067, 336.45, 175.55)" gradientUnits="userSpaceOnUse" id="gradient18" r="819.2" spreadMethod="pad">
      <stop offset="0.0" stop-color="#9cb7d6"/>
      <stop offset="0.4549019607843137" stop-color="#a3e2fa"/>
    </radialGradient>
    <radialGradient cx="0" cy="0" gradientTransform="matrix(-0.0029, -0.0017, 0.0017, -0.0029, 340.2, 163.95)" gradientUnits="userSpaceOnUse" id="gradient19" r="819.2" spreadMethod="pad">
      <stop offset="0.0" stop-color="#9cb7d6"/>
      <stop offset="0.4549019607843137" stop-color="#a3e2fa"/>
    </radialGradient>
    <radialGradient cx="0" cy="0" gradientTransform="matrix(0.0061, 0.0035, 0.0035, -0.0061, 330.85, 173.85)" gradientUnits="userSpaceOnUse" id="gradient20" r="819.2" spreadMethod="pad">
      <stop offset="0.0" stop-color="#9cb7d6"/>
      <stop offset="0.4549019607843137" stop-color="#a3e2fa"/>
    </radialGradient>
    <radialGradient cx="0" cy="0" gradientTransform="matrix(0.0055, 0.0032, 0.0032, -0.0055, 331.3, 176.4)" gradientUnits="userSpaceOnUse" id="gradient21" r="819.2" spreadMethod="pad">
      <stop offset="0.0" stop-color="#9cb7d6"/>
      <stop offset="0.4549019607843137" stop-color="#a3e2fa"/>
    </radialGradient>
    <radialGradient cx="0" cy="0" gradientTransform="matrix(0.0067, 0.0039, 0.0039, -0.0067, 329.85, 171.7)" gradientUnits="userSpaceOnUse" id="gradient22" r="819.2" spreadMethod="pad">
      <stop offset="0.0" stop-color="#9cb7d6"/>
      <stop offset="0.4549019607843137" stop-color="#a3e2fa"/>
    </radialGradient>
    <radialGradient cx="0" cy="0" gradientTransform="matrix(0.0029, 0.0017, 0.0017, -0.0029, 338.1, 162.7)" gradientUnits="userSpaceOnUse" id="gradient23" r="819.2" spreadMethod="pad">
      <stop offset="0.0" stop-color="#9cb7d6"/>
      <stop offset="0.4549019607843137" stop-color="#a3e2fa"/>
    </radialGradient>
    <radialGradient cx="0" cy="0" gradientTransform="matrix(0.009, -0.0052, -0.0052, -0.009, 362.65, 235.5)" gradientUnits="userSpaceOnUse" id="gradient24" r="819.2" spreadMethod="pad">
      <stop offset="0.0" stop-color="#a2b7e8"/>
      <stop offset="0.596078431372549" stop-color="#a3e2fa"/>
      <stop offset="0.9803921568627451" stop-color="#dbf7fd"/>
    </radialGradient>
    <radialGradient cx="0" cy="0" gradientTransform="matrix(0.0098, -0.0056, -0.0056, -0.0098, 354.3, 225.25)" gradientUnits="userSpaceOnUse" id="gradient25" r="819.2" spreadMethod="pad">
      <stop offset="0.0" stop-color="#a2b7e8"/>
      <stop offset="0.596078431372549" stop-color="#a3e2fa"/>
      <stop offset="0.9803921568627451" stop-color="#dbf7fd"/>
    </radialGradient>
    <radialGradient cx="0" cy="0" gradientTransform="matrix(0.0053, -0.0031, -0.0031, -0.0053, 349.4, 219.7)" gradientUnits="userSpaceOnUse" id="gradient26" r="819.2" spreadMethod="pad">
      <stop offset="0.0" stop-color="#a2b7e8"/>
      <stop offset="0.596078431372549" stop-color="#a3e2fa"/>
      <stop offset="0.9803921568627451" stop-color="#dbf7fd"/>
    </radialGradient>
    <radialGradient cx="0" cy="0" gradientTransform="matrix(0.0216, -0.0125, -0.0125, -0.0216, 340.15, 207.25)" gradientUnits="userSpaceOnUse" id="gradient27" r="819.2" spreadMethod="pad">
      <stop offset="0.0" stop-color="#a2b7e8"/>
      <stop offset="0.596078431372549" stop-color="#a3e2fa"/>
      <stop offset="0.9803921568627451" stop-color="#dbf7fd"/>
    </radialGradient>
    <radialGradient cx="0" cy="0" gradientTransform="matrix(0.0155, -0.009, -0.009, -0.0155, 345.55, 207.05)" gradientUnits="userSpaceOnUse" id="gradient28" r="819.2" spreadMethod="pad">
      <stop offset="0.0" stop-color="#a2b7e8"/>
      <stop offset="0.596078431372549" stop-color="#a3e2fa"/>
      <stop offset="0.9803921568627451" stop-color="#dbf7fd"/>
    </radialGradient>
    <radialGradient cx="0" cy="0" gradientTransform="matrix(0.006, -0.0034, -0.0034, -0.006, 342.7, 200.45)" gradientUnits="userSpaceOnUse" id="gradient29" r="819.2" spreadMethod="pad">
      <stop offset="0.0" stop-color="#a2b7e8"/>
      <stop offset="0.596078431372549" stop-color="#a3e2fa"/>
      <stop offset="0.9803921568627451" stop-color="#dbf7fd"/>
    </radialGradient>
    <radialGradient cx="0" cy="0" gradientTransform="matrix(0.0041, -0.0023, -0.0023, -0.0041, 337.6, 201.85)" gradientUnits="userSpaceOnUse" id="gradient30" r="819.2" spreadMethod="pad">
      <stop offset="0.0" stop-color="#a2b7e8"/>
      <stop offset="0.596078431372549" stop-color="#a3e2fa"/>
      <stop offset="0.9803921568627451" stop-color="#dbf7fd"/>
    </radialGradient>
    <radialGradient cx="0" cy="0" gradientTransform="matrix(0.004, -0.0023, -0.0023, -0.004, 352.2, 219.25)" gradientUnits="userSpaceOnUse" id="gradient31" r="819.2" spreadMethod="pad">
      <stop offset="0.0" stop-color="#ffffff"/>
      <stop offset="1.0" stop-color="#ffffff" stop-opacity="0.0"/>
    </radialGradient>
    <radialGradient cx="0" cy="0" gradientTransform="matrix(-0.0061, 0.0035, 0.0035, 0.0061, 334.1, 186.15)" gradientUnits="userSpaceOnUse" id="gradient32" r="819.2" spreadMethod="pad">
      <stop offset="0.0" stop-color="#9cb7d6"/>
      <stop offset="0.4549019607843137" stop-color="#a3e2fa"/>
    </radialGradient>
    <radialGradient cx="0" cy="0" gradientTransform="matrix(-0.0055, 0.0032, 0.0032, 0.0055, 331.65, 185.3)" gradientUnits="userSpaceOnUse" id="gradient33" r="819.2" spreadMethod="pad">
      <stop offset="0.0" stop-color="#9cb7d6"/>
      <stop offset="0.4549019607843137" stop-color="#a3e2fa"/>
    </radialGradient>
    <radialGradient cx="0" cy="0" gradientTransform="matrix(-0.0067, 0.0039, 0.0039, 0.0067, 336.4, 186.4)" gradientUnits="userSpaceOnUse" id="gradient34" r="819.2" spreadMethod="pad">
      <stop offset="0.0" stop-color="#9cb7d6"/>
      <stop offset="0.4549019607843137" stop-color="#a3e2fa"/>
    </radialGradient>
    <radialGradient cx="0" cy="0" gradientTransform="matrix(-0.0029, 0.0017, 0.0017, 0.0029, 340.15, 198.0)" gradientUnits="userSpaceOnUse" id="gradient35" r="819.2" spreadMethod="pad">
      <stop offset="0.0" stop-color="#9cb7d6"/>
      <stop offset="0.4549019607843137" stop-color="#a3e2fa"/>
    </radialGradient>
    <radialGradient cx="0" cy="0" gradientTransform="matrix(0.0061, -0.0035, 0.0035, 0.0061, 330.85, 188.1)" gradientUnits="userSpaceOnUse" id="gradient36" r="819.2" spreadMethod="pad">
      <stop offset="0.0" stop-color="#9cb7d6"/>
      <stop offset="0.4549019607843137" stop-color="#a3e2fa"/>
    </radialGradient>
    <radialGradient cx="0" cy="0" gradientTransform="matrix(0.0055, -0.0032, 0.0032, 0.0055, 331.3, 185.55)" gradientUnits="userSpaceOnUse" id="gradient37" r="819.2" spreadMethod="pad">
      <stop offset="0.0" stop-color="#9cb7d6"/>
      <stop offset="0.4549019607843137" stop-color="#a3e2fa"/>
    </radialGradient>
    <radialGradient cx="0" cy="0" gradientTransform="matrix(0.0067, -0.0039, 0.0039, 0.0067, 329.85, 190.25)" gradientUnits="userSpaceOnUse" id="gradient38" r="819.2" spreadMethod="pad">
      <stop offset="0.0" stop-color="#9cb7d6"/>
      <stop offset="0.4549019607843137" stop-color="#a3e2fa"/>
    </radialGradient>
    <radialGradient cx="0" cy="0" gradientTransform="matrix(0.0029, -0.0017, 0.0017, 0.0029, 338.1, 199.25)" gradientUnits="userSpaceOnUse" id="gradient39" r="819.2" spreadMethod="pad">
      <stop offset="0.0" stop-color="#9cb7d6"/>
      <stop offset="0.4549019607843137" stop-color="#a3e2fa"/>
    </radialGradient>
  </defs>
</svg>
