<?xml version="1.0" encoding="UTF-8" standalone="no"?>
<svg xmlns:xlink="http://www.w3.org/1999/xlink" height="11.15px" width="17.85px" xmlns="http://www.w3.org/2000/svg">
  <g transform="matrix(1.0, 0.0, 0.0, 1.0, 8.95, 5.55)">
    <path d="M1.55 3.85 L1.05 3.85 Q-0.05 3.4 0.45 2.65 1.25 2.05 2.45 2.35 L2.85 2.8 Q2.7 3.7 1.55 3.85 M3.75 -1.75 L1.65 -2.6 Q-0.35 -3.15 -1.7 -4.0 0.55 -4.95 3.55 -3.95 8.7 -2.25 4.35 0.55 L4.6 0.6 4.1 0.55 Q2.7 0.4 1.7 -0.25 L2.5 -0.85 Q3.3 -1.25 3.75 -1.75" fill="#fdfdbd" fill-rule="evenodd" stroke="none"/>
    <path d="M3.75 -1.75 Q3.3 -1.25 2.5 -0.85 L1.7 -0.25 Q2.7 0.4 4.1 0.55 L4.6 0.6 4.35 0.55 Q8.7 -2.25 3.55 -3.95 0.55 -4.95 -1.7 -4.0 -0.35 -3.15 1.65 -2.6 L3.75 -1.75 M1.55 3.85 Q2.7 3.7 2.85 2.8 L2.45 2.35 Q1.25 2.05 0.45 2.65 -0.05 3.4 1.05 3.85 L1.55 3.85 M6.3 3.95 Q3.7 5.6 0.0 5.6 -3.7 5.6 -6.3 3.95 -8.95 2.3 -8.95 0.0 -8.95 -2.3 -6.3 -3.9 -3.7 -5.55 0.0 -5.55 3.7 -5.55 6.3 -3.9 8.9 -2.3 8.9 0.0 8.9 2.3 6.3 3.95" fill="url(#gradient0)" fill-rule="evenodd" stroke="none"/>
    <path d="M6.3 3.95 Q3.7 5.6 0.0 5.6 -3.7 5.6 -6.3 3.95 -8.95 2.3 -8.95 0.0 -8.95 -2.3 -6.3 -3.9 -3.7 -5.55 0.0 -5.55 3.7 -5.55 6.3 -3.9 8.9 -2.3 8.9 0.0 8.9 2.3 6.3 3.95 Z" fill="none" stroke="#a17960" stroke-linecap="round" stroke-linejoin="round" stroke-width="0.05"/>
  </g>
  <defs>
    <radialGradient cx="0" cy="0" gradientTransform="matrix(-0.0179, 0.0, 0.0, -0.0112, 3.45, 2.8)" gradientUnits="userSpaceOnUse" id="gradient0" r="819.2" spreadMethod="pad">
      <stop offset="0.0" stop-color="#f8f468"/>
      <stop offset="0.48627450980392156" stop-color="#fbb64b"/>
      <stop offset="1.0" stop-color="#f35f3a"/>
    </radialGradient>
  </defs>
</svg>
