<?xml version="1.0" encoding="UTF-8" standalone="no"?>
<svg xmlns:xlink="http://www.w3.org/1999/xlink" height="58.05px" width="20.9px" xmlns="http://www.w3.org/2000/svg">
  <g transform="matrix(1.0, 0.0, 0.0, 1.0, -314.3, -137.05)">
    <path d="M325.05 151.45 L325.05 151.5 325.05 151.55 323.4 152.0 323.35 152.05 Q320.9 148.8 319.7 144.9 L319.65 144.65 Q321.0 142.9 315.6 141.0 319.45 139.8 320.25 144.1 320.35 145.4 320.9 146.4 321.8 147.9 323.05 149.2 L324.25 150.35 325.05 151.45 M333.75 181.85 L333.7 183.25 333.3 184.85 Q332.9 186.55 332.95 188.3 333.0 189.4 333.55 190.5 335.85 193.95 330.95 195.1 333.75 193.1 332.75 190.25 331.7 186.3 332.05 182.25 L332.1 182.25 333.75 181.8 333.75 181.85" fill="#a45900" fill-rule="evenodd" stroke="none"/>
    <path d="M325.05 151.55 L325.05 151.5 325.05 151.45 325.1 151.45 325.05 151.5 325.1 151.55 325.05 151.55 M333.85 181.85 L333.75 181.85 333.75 181.8 333.85 181.85" fill="#8cae00" fill-rule="evenodd" stroke="none"/>
    <path d="M323.4 152.0 L325.05 151.55 325.1 151.55 325.05 151.5 325.1 151.45 327.4 154.85 326.5 155.1 325.6 155.3 323.4 152.0 M327.2 156.05 L327.35 156.0 328.0 155.8 328.8 157.2 327.8 157.6 327.05 157.9 326.2 156.3 327.2 156.05 M329.4 161.65 L329.6 161.6 330.6 161.35 Q330.6 164.45 333.6 165.65 L331.05 166.2 329.4 161.65 M333.85 174.8 L333.95 176.6 332.95 176.95 332.2 177.15 332.05 175.3 332.9 175.1 333.85 174.8 M334.0 177.7 L333.85 181.85 333.75 181.8 332.1 182.25 332.2 178.3 332.95 178.05 333.05 178.05 334.0 177.7" fill="#914f00" fill-rule="evenodd" stroke="none"/>
    <path d="M328.0 155.8 L327.35 156.0 327.2 156.05 326.5 155.1 327.4 154.85 328.0 155.8 M327.8 157.6 L328.8 157.2 Q330.6 157.9 331.1 158.8 L329.2 159.15 Q328.95 158.3 327.8 157.6 M328.9 160.0 L331.3 159.55 Q331.3 160.3 330.6 161.35 L329.6 161.6 Q330.25 160.2 328.9 160.0 M333.25 170.55 Q334.8 171.2 335.15 172.05 334.0 172.75 332.65 172.9 333.25 171.75 332.4 170.8 L333.25 170.55 M335.15 173.05 Q334.9 173.85 333.85 174.8 L332.9 175.1 Q333.5 174.5 332.75 173.95 333.95 173.8 335.15 173.05 M333.95 176.6 L334.0 177.7 333.05 178.05 332.95 176.95 333.95 176.6" fill="#ffffff" fill-rule="evenodd" stroke="none"/>
    <path d="M328.9 160.0 L326.7 160.45 326.7 160.35 326.55 159.5 329.2 159.15 331.1 158.8 331.3 159.55 328.9 160.0 M333.6 165.65 Q331.8 167.85 333.25 170.55 L332.4 170.8 331.45 171.05 330.3 166.4 331.05 166.2 333.6 165.65 M335.15 172.05 L335.15 173.05 Q333.95 173.8 332.75 173.95 L330.65 173.75 Q330.4 173.25 330.45 172.75 L332.65 172.9 Q334.0 172.75 335.15 172.05" fill="#653f01" fill-rule="evenodd" stroke="none"/>
    <path d="M327.2 156.05 L326.2 156.3 325.6 155.3 326.5 155.1 327.2 156.05 M327.05 157.9 L327.8 157.6 Q328.95 158.3 329.2 159.15 L326.55 159.5 Q326.55 158.8 327.05 157.9 M326.7 160.45 L328.9 160.0 Q330.25 160.2 329.6 161.6 L329.4 161.65 328.8 161.8 Q327.15 161.35 326.7 160.45 M331.45 171.05 L332.4 170.8 Q333.25 171.75 332.65 172.9 L330.45 172.75 Q330.5 171.9 331.45 171.05 M330.65 173.75 L332.75 173.95 Q333.5 174.5 332.9 175.1 L332.05 175.3 Q331.0 174.5 330.65 173.75 M332.2 177.15 L332.95 176.95 333.05 178.05 332.95 178.05 332.2 178.3 332.2 177.15" fill="#cbe1e2" fill-rule="evenodd" stroke="none"/>
    <path d="M328.8 161.8 L329.4 161.65 331.05 166.2 330.3 166.4 328.8 161.8" fill="#7f4500" fill-rule="evenodd" stroke="none"/>
    <path d="M325.05 151.55 L325.1 151.55 325.05 151.5 M325.1 151.45 L325.05 151.45 M326.2 156.3 L327.05 157.9 Q326.55 158.8 326.55 159.5 L326.7 160.35 M328.8 157.2 L328.0 155.8 327.4 154.85 325.1 151.45 M326.2 156.3 L325.6 155.3 323.4 152.0 M331.3 159.55 L331.1 158.8 Q330.6 157.9 328.8 157.2 M326.7 160.45 Q327.15 161.35 328.8 161.8 L330.3 166.4 331.45 171.05 Q330.5 171.9 330.45 172.75 330.4 173.25 330.65 173.75 331.0 174.5 332.05 175.3 L332.2 177.15 332.2 178.3 332.1 182.25 M330.6 161.35 Q330.6 164.45 333.6 165.65 331.8 167.85 333.25 170.55 334.8 171.2 335.15 172.05 L335.15 173.05 Q334.9 173.85 333.85 174.8 L333.95 176.6 334.0 177.7 333.85 181.85 333.75 181.85 M332.75 190.25 L319.7 144.9 M333.6 165.65 L331.05 166.2 330.3 166.4 M330.6 161.35 Q331.3 160.3 331.3 159.55" fill="none" stroke="#000000" stroke-linecap="round" stroke-linejoin="round" stroke-opacity="0.34117648" stroke-width="0.05"/>
    <path d="M325.05 151.55 L325.05 151.5 325.05 151.45 324.25 150.35 323.05 149.2 Q321.8 147.9 320.9 146.4 320.35 145.4 320.25 144.1 319.45 139.8 315.6 141.0 321.0 142.9 319.65 144.65 L319.7 144.9 Q320.9 148.8 323.35 152.05 L323.4 152.0 325.05 151.55 M326.7 160.45 L328.9 160.0 331.3 159.55 M331.1 158.8 L329.2 159.15 326.55 159.5 M326.7 160.35 L326.7 160.45 M333.75 181.85 L333.7 183.25 333.3 184.85 Q332.9 186.55 332.95 188.3 333.0 189.4 333.55 190.5 335.85 193.95 330.95 195.1 333.75 193.1 332.75 190.25 331.7 186.3 332.05 182.25 L332.1 182.25 333.75 181.8 333.75 181.85 M332.65 172.9 Q334.0 172.75 335.15 172.05 M330.45 172.75 L332.65 172.9 M330.65 173.75 L332.75 173.95 Q333.95 173.8 335.15 173.05" fill="none" stroke="#000000" stroke-linecap="round" stroke-linejoin="round" stroke-opacity="0.37254903" stroke-width="0.05"/>
    <path d="M324.25 160.6 L324.65 160.6 324.75 161.55 324.5 161.55 323.8 161.15 324.0 160.5 324.25 160.6 M323.35 157.75 L323.75 157.8 323.85 158.75 323.6 158.7 322.9 158.35 323.1 157.65 323.35 157.75 M324.8 163.1 L325.25 163.2 325.35 164.2 325.1 164.15 324.4 163.75 324.55 163.0 324.8 163.1" fill="#6c3c00" fill-rule="evenodd" stroke="none"/>
    <path d="M317.25 137.4 L316.5 137.35 Q315.1 137.45 315.25 138.7 L315.45 139.45 315.0 139.1 315.0 138.75 315.05 138.6 Q314.95 137.1 316.35 137.05 316.95 137.15 317.25 137.4 M323.65 148.8 L323.4 149.0 321.0 148.95 319.8 148.45 319.9 148.4 320.2 148.05 Q320.7 148.9 321.85 148.5 323.0 148.05 323.65 148.8 M317.35 146.2 L316.6 145.45 316.15 145.0 315.9 145.1 315.5 145.4 315.45 145.4 314.7 145.45 314.65 145.4 314.3 145.0 Q314.25 144.7 314.65 144.45 L315.4 144.65 Q314.95 144.3 315.2 144.05 315.35 143.65 315.8 144.4 316.4 144.15 316.1 143.3 L315.8 142.55 315.6 141.55 315.6 141.25 315.55 141.05 315.4 140.35 315.65 140.65 315.9 141.55 316.6 144.35 317.05 145.3 317.35 145.2 317.3 145.45 317.45 146.05 317.35 146.2" fill="#d0a35e" fill-rule="evenodd" stroke="none"/>
    <path d="M322.75 145.25 L322.9 145.25 323.45 145.65 323.45 145.7 323.6 145.9 323.55 145.9 323.45 145.8 323.25 145.75 323.15 145.9 323.15 146.1 323.25 146.15 323.25 146.2 323.25 146.4 323.35 146.55 323.5 146.55 323.65 146.4 323.7 146.3 323.7 146.5 323.65 147.1 323.0 147.05 322.85 145.65 322.75 145.25 M319.55 148.45 L318.6 148.15 Q317.95 147.75 317.6 147.15 317.3 146.7 317.35 146.35 L317.35 146.2 317.45 146.05 317.6 145.9 318.3 145.85 319.25 146.35 319.65 146.75 319.75 146.85 Q320.45 148.15 319.55 148.45 M318.25 146.75 L318.15 146.6 317.9 146.6 317.8 146.8 317.75 146.95 317.85 147.1 317.95 147.15 317.95 147.2 318.15 147.4 318.4 147.4 318.6 147.25 318.6 146.95 318.45 146.75 318.25 146.75" fill="#bee0df" fill-rule="evenodd" stroke="none"/>
    <path d="M323.65 147.1 L323.55 147.25 323.15 147.65 323.05 147.65 323.0 147.65 323.0 147.05 323.65 147.1 M319.8 148.45 L319.55 148.45 Q320.45 148.15 319.75 146.85 L320.1 147.45 320.2 148.05 319.9 148.4 319.8 148.45" fill="#4fa6a4" fill-rule="evenodd" stroke="none"/>
    <path d="M319.7 138.65 L319.7 138.5 319.95 138.7 319.85 139.45 319.7 138.65 M322.4 144.4 L322.65 145.0 322.25 144.8 322.4 144.4 M322.95 147.9 L323.6 148.2 323.65 148.25 323.45 148.35 323.4 148.35 323.1 148.15 322.9 148.05 322.95 147.9 M321.5 144.75 Q320.25 142.5 319.0 141.75 L320.5 142.6 320.65 143.1 320.85 143.1 321.95 145.3 321.5 144.75 M316.65 141.8 L316.6 142.0 316.45 141.95 316.4 141.85 316.65 141.8 M317.8 142.9 L318.2 143.7 317.9 143.75 317.35 143.35 317.1 143.45 316.6 143.3 316.55 142.8 317.05 142.4 317.8 142.9 M317.6 143.6 L317.5 143.9 317.2 143.65 317.4 143.45 317.6 143.6 M320.15 145.35 L319.8 145.4 319.85 145.15 320.1 145.2 320.15 145.35 M320.95 144.7 L321.4 145.6 320.75 145.4 320.05 144.8 320.55 144.5 320.95 144.7" fill="#f2e4d0" fill-rule="evenodd" stroke="none"/>
    <path d="M323.65 146.25 L323.7 146.3 323.65 146.4 323.5 146.55 323.35 146.55 323.25 146.4 323.25 146.2 323.4 146.2 323.5 146.1 323.55 146.1 323.65 146.25 M318.25 146.75 L318.45 146.75 318.6 146.95 318.6 147.25 318.4 147.4 318.15 147.4 317.95 147.2 317.95 147.15 318.05 147.15 318.25 147.05 318.25 146.8 318.25 146.75" fill="#2cbea8" fill-rule="evenodd" stroke="none"/>
    <path d="M323.6 145.9 L323.65 146.25 323.55 146.1 323.5 146.1 323.55 145.9 323.6 145.9" fill="#d3f5f0" fill-rule="evenodd" stroke="none"/>
    <path d="M321.9 143.6 L321.9 143.2 Q321.9 143.0 322.15 143.15 L322.4 143.55 322.2 144.05 321.9 143.6 M318.3 141.65 L317.85 141.4 318.9 141.65 318.9 141.7 319.0 141.75 Q320.25 142.5 321.5 144.75 320.1 142.65 318.3 141.65 M319.4 145.55 Q318.2 144.6 317.75 145.1 317.95 143.8 319.4 145.55" fill="#c89240" fill-rule="evenodd" stroke="none"/>
    <path d="M321.65 148.25 L322.1 148.0 321.75 148.3 321.65 148.25" fill="#517d46" fill-rule="evenodd" stroke="none"/>
    <path d="M317.95 147.15 L318.0 146.9 Q318.05 146.75 318.2 146.75 L318.25 146.75 318.25 146.8 318.25 147.05 318.05 147.15 317.95 147.15 M323.5 146.1 L323.4 146.2 323.25 146.2 323.4 146.1 323.5 146.1" fill="#73dfcf" fill-rule="evenodd" stroke="none"/>
    <path d="M317.95 147.15 L317.85 147.1 317.75 146.95 317.8 146.8 317.9 146.6 318.15 146.6 318.25 146.75 318.2 146.75 Q318.05 146.75 318.0 146.9 L317.95 147.15 M323.25 146.2 L323.25 146.15 323.15 146.1 323.15 145.9 323.25 145.75 323.45 145.8 323.55 145.9 323.5 146.1 323.4 146.1 323.25 146.2" fill="#ffffff" fill-rule="evenodd" stroke="none"/>
    <path d="M319.7 138.65 L319.85 139.45 319.8 140.15 319.9 140.5 319.6 140.25 Q317.75 138.65 318.15 138.5 318.75 139.05 319.05 138.95 318.45 137.75 317.5 137.45 L317.25 137.4 Q316.95 137.15 316.35 137.05 L316.8 137.05 Q318.65 137.25 319.4 138.9 L319.7 138.65 M319.65 141.7 Q321.05 142.45 321.9 143.6 L322.2 144.05 322.35 144.3 322.4 144.4 322.25 144.8 322.65 145.0 322.75 145.25 322.85 145.65 Q321.65 147.75 319.4 145.55 L317.3 145.45 317.35 145.2 317.05 145.3 316.6 144.35 315.9 141.55 318.3 141.65 Q320.1 142.65 321.5 144.75 L321.95 145.3 320.85 143.1 320.65 143.1 320.5 142.6 319.0 141.75 318.9 141.7 318.9 141.65 319.65 141.7 M316.65 141.8 L316.4 141.85 316.45 141.95 316.6 142.0 316.65 141.8 M317.8 142.9 L317.05 142.4 316.55 142.8 316.6 143.3 317.1 143.45 317.35 143.35 317.9 143.75 318.2 143.7 317.8 142.9 M317.6 143.6 L317.4 143.45 317.2 143.65 317.5 143.9 317.6 143.6 M319.4 145.55 Q317.95 143.8 317.75 145.1 318.2 144.6 319.4 145.55 M320.15 145.35 L320.1 145.2 319.85 145.15 319.8 145.4 320.15 145.35 M320.95 144.7 L320.55 144.5 320.05 144.8 320.75 145.4 321.4 145.6 320.95 144.7" fill="#914f00" fill-rule="evenodd" stroke="none"/>
    <path d="M315.45 139.45 L316.0 140.15 316.65 140.6 317.9 141.0 318.15 141.05 319.65 141.7 318.9 141.65 317.85 141.4 318.3 141.65 315.9 141.55 315.65 140.65 315.4 140.35 315.1 139.6 315.1 139.55 315.0 139.1 315.45 139.45 M323.0 147.65 L322.95 147.9 322.1 148.0 322.95 147.9 322.9 148.05 323.1 148.15 323.4 148.35 323.45 148.35 323.65 148.25 323.65 148.8 Q323.0 148.05 321.85 148.5 320.7 148.9 320.2 148.05 L320.1 147.45 319.75 146.85 319.65 146.75 319.25 146.35 318.3 145.85 317.6 145.9 317.45 146.05 317.3 145.45 319.4 145.55 Q321.65 147.75 322.85 145.65 L323.0 147.05 323.0 147.65 M322.1 148.0 L321.65 148.25 321.75 148.3 322.1 148.0" fill="#723901" fill-rule="evenodd" stroke="none"/>
    <path d="M319.85 139.45 L319.95 138.7 319.7 138.5 319.7 138.65 319.4 138.9 Q318.65 137.25 316.8 137.05 L316.35 137.05 Q314.95 137.1 315.05 138.6 L315.0 138.75 315.0 139.1 315.1 139.55 315.1 139.6 315.4 140.35 315.55 141.05 315.6 141.25 315.6 141.55 315.8 142.55 316.1 143.3 Q316.4 144.15 315.8 144.4 315.35 143.65 315.2 144.05 314.95 144.3 315.4 144.65 L314.65 144.45 Q314.25 144.7 314.3 145.0 L314.65 145.4 314.7 145.45 315.45 145.4 315.5 145.4 315.9 145.1 316.15 145.0 316.6 145.45 317.35 146.2 317.35 146.35 Q317.3 146.7 317.6 147.15 317.95 147.75 318.6 148.15 L319.55 148.45 319.8 148.45 319.9 148.4 320.2 148.05 320.1 147.45 319.75 146.85 319.65 146.75 319.25 146.35 318.3 145.85 317.6 145.9 317.45 146.05 317.35 146.2 M319.85 139.45 L319.8 140.15 319.9 140.5 319.6 140.25 Q317.75 138.65 318.15 138.5 318.75 139.05 319.05 138.95 318.45 137.75 317.5 137.45 M317.25 137.4 L316.5 137.35 Q315.1 137.45 315.25 138.7 L315.45 139.45 316.0 140.15 316.65 140.6 317.9 141.0 318.15 141.05 319.65 141.7 Q321.05 142.45 321.9 143.6 L321.9 143.2 Q321.9 143.0 322.15 143.15 L322.4 143.55 322.2 144.05 322.35 144.3 M322.4 144.4 L322.65 145.0 322.75 145.25 322.9 145.25 323.45 145.65 323.45 145.7 323.6 145.9 323.65 146.25 323.7 146.3 323.7 146.5 323.65 147.1 323.55 147.25 323.15 147.65 323.05 147.65 323.0 147.65 322.95 147.9 323.6 148.2 323.65 148.25 323.65 148.8 323.4 149.0 321.0 148.95 319.8 148.45 M322.85 145.65 L322.75 145.25 M322.2 144.05 L321.9 143.6 M321.65 148.25 L321.75 148.3 322.1 148.0 322.95 147.9 M323.0 147.65 L323.0 147.05 322.85 145.65" fill="none" stroke="#504832" stroke-linecap="round" stroke-linejoin="round" stroke-opacity="0.5019608" stroke-width="0.05"/>
  </g>
</svg>
