<?xml version="1.0" encoding="UTF-8" standalone="no"?>
<svg xmlns:xlink="http://www.w3.org/1999/xlink" height="123.1px" width="51.25px" xmlns="http://www.w3.org/2000/svg">
  <g transform="matrix(1.0, 0.0, 0.0, 1.0, -249.35, -138.9)">
    <path d="M256.3 144.6 L259.5 144.1 260.65 146.35 272.6 152.3 274.85 151.65 275.25 154.6 278.5 154.5 278.15 156.9 287.8 166.15 291.95 166.25 292.6 171.25 296.3 177.0 296.95 179.55 295.7 180.2 295.55 180.25 294.95 180.55 291.15 172.15 286.5 169.0 286.85 167.8 274.4 157.1 274.35 155.95 273.4 155.95 258.15 147.4 256.3 147.95 256.25 147.9 255.6 146.7 256.3 144.6 255.6 146.7 255.2 146.0 254.05 145.7 Q251.5 144.85 249.45 142.8 249.15 141.15 249.95 138.9 249.15 143.3 254.3 144.3 L254.05 145.7 254.3 144.3 254.8 144.4 256.3 144.6 M297.7 194.2 L297.8 198.6 293.9 199.85 293.85 196.8 297.7 194.2 M258.2 250.35 L258.2 250.5 259.25 248.0 261.55 248.35 262.7 250.15 261.55 248.35 261.6 248.4 273.2 241.05 273.15 239.2 276.5 238.65 276.7 236.2 279.0 236.4 289.15 226.15 288.9 223.9 291.6 223.8 292.5 224.65 292.2 225.55 279.85 239.0 277.3 239.65 276.0 242.0 262.7 250.15 260.8 251.3 258.25 251.55 257.7 251.6 256.1 252.75 256.5 251.0 256.1 252.75 251.2 256.3 251.2 260.95 250.8 260.7 Q248.3 258.05 250.25 255.1 251.6 253.1 253.3 253.85 L252.7 252.4 256.5 251.0 258.2 250.35 M297.8 202.1 L297.8 205.7 293.95 206.7 293.95 203.8 Q296.15 202.1 297.8 202.1 M295.8 221.85 L294.65 223.05 293.25 221.95 293.45 221.15 295.8 221.85 M258.25 251.55 L258.2 250.5 258.25 251.55" fill="#f7f7ea" fill-rule="evenodd" stroke="none"/>
    <path d="M255.6 146.7 L256.25 147.9 256.3 147.95 258.15 147.4 273.4 155.95 274.35 155.95 274.4 157.1 286.85 167.8 286.5 169.0 291.15 172.15 294.95 180.55 293.55 181.3 293.15 181.5 292.75 179.7 Q291.75 176.1 290.15 173.45 L284.4 170.6 285.0 168.3 275.5 159.15 272.95 159.55 273.1 157.1 269.55 156.95 269.85 155.1 258.4 148.95 255.75 149.6 255.1 148.15 254.6 147.1 254.6 146.8 254.55 146.8 253.9 146.65 254.05 145.7 253.9 146.65 Q250.0 145.7 249.45 142.8 251.5 144.85 254.05 145.7 L255.2 146.0 255.6 146.7 255.1 148.15 255.6 146.7 M297.45 189.4 L297.7 194.2 293.85 196.8 293.55 190.7 297.45 189.4 M297.8 198.6 L297.8 202.1 Q296.15 202.1 293.95 203.8 L293.9 199.85 297.8 198.6 M298.2 218.4 L298.1 219.5 295.8 221.85 293.45 221.15 293.5 221.1 293.9 218.85 298.2 218.4 M293.5 225.55 L293.45 227.8 291.55 228.0 281.2 238.35 281.2 240.75 278.15 240.95 277.4 243.95 275.4 243.55 263.35 250.8 263.25 251.0 262.7 250.15 263.25 251.0 262.0 253.15 258.3 252.2 Q256.95 252.95 255.9 253.7 L256.1 252.75 255.9 253.7 Q250.4 257.6 252.85 262.0 L251.35 261.05 251.2 260.95 251.2 256.3 256.1 252.75 257.7 251.6 258.25 251.55 260.8 251.3 262.7 250.15 276.0 242.0 277.3 239.65 279.85 239.0 292.2 225.55 292.35 225.4 292.8 224.95 293.5 225.55 M258.25 251.55 L258.3 252.2 258.25 251.55" fill="#eaeac8" fill-rule="evenodd" stroke="none"/>
    <path d="M294.95 180.55 L295.55 180.25 295.7 180.2 296.95 179.55 298.9 178.55 299.85 180.95 291.45 184.5 291.3 182.45 293.15 181.5 293.55 181.3 294.95 180.55 M297.8 205.7 L298.55 205.5 298.65 209.6 294.15 212.8 Q293.95 209.8 293.05 206.95 L293.95 206.7 297.8 205.7 M298.35 216.25 L299.6 216.05 299.95 218.25 298.2 218.4 293.9 218.85 292.95 218.95 292.75 217.15 294.1 216.9 298.35 216.25" fill="#a98a43" fill-rule="evenodd" stroke="none"/>
    <path d="M299.85 180.95 L300.6 183.0 297.65 184.05 298.25 189.1 297.45 189.4 293.55 190.7 292.7 191.0 Q293.3 188.1 293.4 185.55 L293.8 185.4 291.6 186.2 291.45 184.6 291.45 184.5 299.85 180.95 M297.65 184.05 L293.8 185.4 297.65 184.05 M298.65 209.6 L298.35 216.25 294.1 216.9 294.2 213.05 294.15 212.8 298.65 209.6 M294.65 223.05 L297.55 225.2 295.6 227.5 293.5 225.55 292.8 224.95 292.5 224.65 291.6 223.8 290.2 222.5 291.75 220.8 293.25 221.95 294.65 223.05" fill="#866d35" fill-rule="evenodd" stroke="none"/>
    <path d="M256.2 192.05 L257.8 191.45 257.95 199.55 256.45 199.85 255.35 200.05 254.8 192.5 256.2 192.05 M256.75 207.7 L257.95 207.6 257.95 216.25 257.05 216.15 256.25 216.05 256.0 207.7 256.75 207.7" fill="#b14221" fill-rule="evenodd" stroke="none"/>
    <path d="M296.95 179.55 L296.3 177.0 292.6 171.25 291.95 166.25 287.8 166.15 278.15 156.9 278.5 154.5 275.25 154.6 274.85 151.65 272.6 152.3 260.65 146.35 259.5 144.1 256.3 144.6 255.6 146.7 255.1 148.15 254.7 149.1 256.2 192.05 257.8 191.45 257.95 199.55 256.45 199.85 256.75 207.7 257.95 207.6 257.95 216.25 257.05 216.15 258.2 250.35 258.2 250.5 259.25 248.0 261.55 248.35 261.25 247.9 M295.55 180.25 L295.7 180.2 296.95 179.55 298.9 178.55 299.85 180.95 300.6 183.0 297.65 184.05 298.25 189.1 297.45 189.4 297.7 194.2 297.8 198.6 299.4 198.1 M293.15 181.5 L292.75 179.7 Q291.75 176.1 290.15 173.45 L284.4 170.6 285.0 168.3 275.5 159.15 272.95 159.55 273.1 157.1 269.55 156.95 269.85 155.1 258.4 148.95 255.75 149.6 255.1 148.15 254.6 147.1 254.55 146.8 254.6 146.8 254.6 147.1 254.7 149.1 M294.95 180.55 L293.55 181.3 M293.15 181.5 L291.3 182.45 291.45 184.5 291.45 184.6 291.6 186.2 293.8 185.4 297.65 184.05 M293.4 185.55 Q293.3 188.1 292.7 191.0 L293.55 190.7 297.45 189.4 M297.8 198.6 L297.8 202.1 297.8 205.7 298.55 205.5 298.65 209.6 298.35 216.25 299.6 216.05 299.95 218.25 298.2 218.4 298.1 219.5 295.8 221.85 294.65 223.05 297.55 225.2 295.6 227.5 293.5 225.55 293.45 227.8 291.55 228.0 281.2 238.35 281.2 240.75 278.15 240.95 277.4 243.95 275.4 243.55 263.35 250.8 263.25 251.0 263.6 251.55 M292.6 200.3 L293.9 199.85 293.85 196.8 293.55 190.7 M293.9 199.85 L293.95 203.8 293.95 206.7 297.8 205.7 M294.15 212.8 Q293.95 209.8 293.05 206.95 L293.95 206.7 M294.15 212.8 L294.2 213.05 294.1 216.9 298.35 216.25 M293.9 199.85 L297.8 198.6 M254.05 145.7 L253.9 146.65 254.55 146.8 M256.3 144.6 L256.6 143.7 M254.3 144.3 L254.8 144.4 256.3 144.6 M254.35 143.8 L254.3 144.3 Q249.15 143.3 249.95 138.9 249.15 141.15 249.45 142.8 250.0 145.7 253.9 146.65 L253.75 147.5 M254.05 145.7 L254.3 144.3 M256.2 192.05 L254.8 192.5 255.35 200.05 256.45 199.85 M257.05 216.15 L256.25 216.05 256.0 207.7 256.75 207.7 M256.1 252.75 L255.9 253.7 Q256.95 252.95 258.3 252.2 L258.25 251.55 258.2 250.5 M256.1 252.75 L256.5 251.0 252.7 252.4 253.3 253.85 Q251.6 253.1 250.25 255.1 248.3 258.05 250.8 260.7 L251.2 260.95 M262.7 250.15 L261.55 248.35 261.6 248.4 273.2 241.05 273.15 239.2 276.5 238.65 276.7 236.2 279.0 236.4 289.15 226.15 288.9 223.9 291.6 223.8 290.2 222.5 291.75 220.8 293.25 221.95 293.45 221.15 M293.5 221.1 L293.9 218.85 292.95 218.95 292.75 217.15 294.1 216.9 M258.2 250.35 L256.5 251.0 M262.7 250.15 L263.25 251.0 262.0 253.15 258.3 252.2 M251.35 261.05 L252.85 262.0 Q250.4 257.6 255.9 253.7 M292.35 225.4 L292.8 224.95 292.5 224.65 292.2 225.55 M292.8 224.95 L293.5 225.55 M291.6 223.8 L292.5 224.65 M293.25 221.95 L294.65 223.05 M293.9 218.85 L298.2 218.4" fill="none" stroke="#000000" stroke-linecap="round" stroke-linejoin="round" stroke-opacity="0.3019608" stroke-width="0.05"/>
    <path d="M299.85 196.15 Q299.85 197.25 299.5 197.95 299.9 197.55 300.2 198.2 300.6 199.15 299.85 199.65 L298.75 199.05 Q295.95 199.65 293.3 201.2 L292.7 202.35 Q292.0 203.05 291.75 202.05 291.85 201.0 292.45 200.5 292.0 200.7 291.65 199.9 291.4 199.1 292.2 198.65 292.9 198.7 293.05 199.6 L298.4 197.35 Q298.25 196.15 299.0 195.7 299.55 195.3 299.85 196.15" fill="#f7f7ea" fill-rule="evenodd" stroke="none"/>
    <path d="M299.85 196.15 Q299.85 197.25 299.5 197.95 299.9 197.55 300.2 198.2 300.6 199.15 299.85 199.65 L298.75 199.05 Q295.95 199.65 293.3 201.2 L292.7 202.35 Q292.0 203.05 291.75 202.05 291.85 201.0 292.45 200.5 292.0 200.7 291.65 199.9 291.4 199.1 292.2 198.65 292.9 198.7 293.05 199.6 L298.4 197.35 Q298.25 196.15 299.0 195.7 299.55 195.3 299.85 196.15 Z" fill="none" stroke="#000000" stroke-linecap="round" stroke-linejoin="round" stroke-opacity="0.3019608" stroke-width="0.05"/>
    <path d="M278.6 160.8 L280.0 155.35 284.5 160.5 283.1 163.5 278.6 160.8" fill="#a98a43" fill-rule="evenodd" stroke="none"/>
    <path d="M278.6 160.8 L283.1 163.5 281.2 167.55 279.9 165.5 279.8 165.35 278.1 162.8 278.6 160.8" fill="#977b3c" fill-rule="evenodd" stroke="none"/>
    <path d="M283.1 163.5 L284.5 160.5 280.0 155.35 278.6 160.8 278.1 162.8 279.8 165.35 279.9 165.5 281.2 167.55 283.1 163.5 Z" fill="none" stroke="#000000" stroke-linecap="round" stroke-linejoin="round" stroke-opacity="0.3019608" stroke-width="0.05"/>
    <path d="M278.9 239.25 L280.3 244.4 284.8 238.05 283.4 235.45 278.9 239.25" fill="#a98a43" fill-rule="evenodd" stroke="none"/>
    <path d="M278.9 239.25 L283.4 235.45 281.5 231.9 280.2 234.25 280.1 234.4 278.4 237.45 278.9 239.25" fill="#977b3c" fill-rule="evenodd" stroke="none"/>
    <path d="M283.4 235.45 L284.8 238.05 280.3 244.4 278.9 239.25 278.4 237.45 280.1 234.4 280.2 234.25 281.5 231.9 283.4 235.45 Z" fill="none" stroke="#000000" stroke-linecap="round" stroke-linejoin="round" stroke-opacity="0.3019608" stroke-width="0.05"/>
  </g>
</svg>
