<?xml version="1.0" encoding="UTF-8" standalone="no"?>
<svg xmlns:xlink="http://www.w3.org/1999/xlink" height="251.9px" width="231.55px" xmlns="http://www.w3.org/2000/svg">
  <g transform="matrix(1.0, 0.0, 0.0, 1.0, -167.55, -100.9)">
    <path d="M378.95 121.85 L379.1 121.75 379.1 121.5 376.85 118.75 381.7 119.55 383.7 122.25 Q381.15 120.85 379.25 121.7 L379.1 121.75 379.25 121.7 Q381.15 120.85 383.7 122.25 L387.25 127.7 Q384.7 126.15 383.25 126.55 L384.45 129.3 Q386.7 129.1 389.0 130.8 391.95 136.4 393.85 142.2 L394.55 151.4 396.25 157.65 395.4 158.4 395.1 164.2 391.75 165.9 391.6 165.95 396.4 166.35 396.4 170.75 392.7 172.75 392.55 172.8 390.9 190.85 394.25 188.95 397.4 190.85 394.95 210.7 391.65 213.65 391.7 215.45 391.4 215.5 390.2 219.45 389.35 222.05 389.35 222.2 386.5 224.15 386.15 223.95 384.0 219.7 384.5 211.8 384.9 213.4 389.2 214.05 390.1 202.75 388.6 205.2 387.0 207.8 386.9 207.9 384.15 208.25 383.55 207.75 382.45 206.75 384.2 205.5 384.2 200.85 384.35 200.9 390.5 195.45 Q390.65 195.3 390.85 195.2 L390.85 195.05 384.6 194.5 384.6 194.35 386.1 185.25 Q389.2 162.35 384.65 143.45 L383.0 137.5 382.15 132.1 380.45 129.15 381.0 127.25 378.95 121.85 M355.05 129.3 L355.75 129.65 353.2 132.25 352.65 131.9 352.4 131.75 354.6 129.05 355.05 129.3 M195.65 303.25 L196.0 303.4 193.6 306.7 193.05 306.1 192.6 305.6 194.8 302.95 195.65 303.25 M185.3 329.25 Q218.3 342.8 250.35 337.95 L250.65 338.05 250.85 337.4 254.55 333.0 274.4 328.1 280.1 329.45 290.4 324.6 291.95 326.5 295.85 325.15 294.65 322.3 Q300.6 318.95 306.35 315.0 L311.3 315.35 311.3 315.3 311.75 311.1 312.65 310.4 312.4 309.85 311.35 305.1 312.6 297.8 313.1 296.95 315.25 292.05 322.55 296.8 325.55 304.75 336.55 314.3 325.2 316.1 317.7 323.15 311.0 323.15 313.0 325.7 312.45 325.6 Q301.65 332.75 290.05 337.9 L290.05 338.0 285.95 333.55 284.6 339.25 268.1 347.65 267.4 347.85 271.15 337.7 271.1 337.65 268.5 336.05 268.7 335.65 267.9 335.65 260.5 335.65 261.9 339.0 262.0 339.0 267.1 338.45 263.85 344.15 249.95 341.85 250.1 343.8 250.15 343.95 250.75 344.15 243.3 346.15 243.5 343.25 240.9 341.85 237.05 344.6 238.75 346.25 229.0 343.55 Q227.45 344.35 225.95 345.2 L225.5 345.15 Q209.95 343.15 195.1 337.35 L195.1 335.3 187.0 332.45 187.15 334.95 182.85 333.25 184.25 335.65 183.55 335.3 Q182.75 334.4 182.85 333.25 L182.8 333.25 181.5 332.6 182.35 332.5 180.4 329.25 174.25 330.7 170.45 328.6 168.3 321.05 175.75 324.9 185.3 329.25 Q183.0 331.5 182.85 333.25 183.0 331.5 185.3 329.25 M314.45 275.1 L316.25 272.75 319.05 276.0 321.3 275.65 321.4 275.65 324.8 281.15 327.65 279.25 328.7 280.05 332.15 282.7 332.5 282.95 340.6 284.65 338.85 279.5 339.3 279.45 344.3 272.15 352.0 274.2 355.55 280.75 353.05 285.65 350.75 297.1 347.8 294.8 340.05 291.75 334.95 284.85 332.5 282.95 334.95 284.85 340.05 291.75 347.8 294.8 350.75 297.1 351.95 298.0 354.85 300.25 352.1 303.05 346.0 302.3 322.15 282.45 320.6 279.05 317.05 277.85 314.45 275.1 M341.85 246.6 L344.65 243.2 347.9 245.55 352.3 248.7 354.25 246.4 360.95 246.0 368.95 239.7 369.45 238.75 369.9 239.4 371.45 236.4 370.85 235.9 371.7 234.2 372.2 231.15 373.2 233.4 378.25 230.45 376.6 225.6 373.7 225.7 373.4 226.2 373.4 226.25 372.4 228.15 372.55 225.7 370.5 224.4 371.45 220.1 371.45 220.0 371.95 219.95 375.25 223.95 380.7 223.3 385.25 231.95 385.6 238.2 382.6 239.8 384.65 245.15 377.85 254.3 373.1 254.1 371.05 250.6 365.25 254.8 358.9 252.95 357.9 252.65 352.3 248.7 357.9 252.65 358.9 252.95 361.2 257.85 365.0 259.75 366.85 255.25 367.45 255.45 370.9 261.9 375.3 265.05 376.8 266.05 375.25 268.2 369.8 269.05 369.05 266.15 366.3 267.05 341.85 248.95 341.85 246.6 M385.8 204.35 L384.2 205.5 385.8 204.35 M390.55 196.4 L388.6 205.2 390.55 196.4 M355.4 253.45 L352.1 251.15 351.75 252.2 354.85 255.2 355.4 253.45 M342.0 279.8 L343.05 282.85 349.55 283.8 346.7 276.4 342.0 279.8 M342.6 287.85 L345.8 289.25 345.55 286.85 343.2 286.15 342.6 287.85 M313.55 312.25 L312.65 310.4 313.55 312.25 M308.75 320.75 L304.1 320.5 303.9 322.45 306.35 322.6 308.75 320.75 M250.65 338.05 L249.55 341.75 249.95 341.85 249.55 341.75 250.65 338.05 M277.95 331.9 L274.65 330.2 268.5 332.15 277.95 331.9 M257.65 335.35 L253.15 338.6 260.8 341.3 259.0 339.0 257.65 335.35 M267.9 335.65 L268.7 335.65 268.5 336.05 267.9 335.65" fill="#5f7587" fill-rule="evenodd" stroke="none"/>
    <path d="M366.55 109.5 L366.7 109.65 366.95 109.95 367.8 110.95 369.8 113.2 368.65 114.45 358.8 113.85 351.6 113.45 351.55 113.45 Q325.2 112.1 317.4 113.8 L317.15 113.65 Q313.35 110.6 313.8 108.75 L314.0 108.3 Q316.55 103.85 349.0 107.35 L349.05 107.35 357.85 108.35 362.85 109.0 366.55 109.5" fill="#49221b" fill-rule="evenodd" stroke="none"/>
    <path d="M362.6 126.85 L363.75 132.3 Q364.75 137.1 364.05 146.3 363.45 140.65 360.8 136.4 361.15 141.65 357.1 146.8 358.25 135.5 355.85 128.4 L355.95 128.35 355.85 128.35 Q354.45 119.25 351.55 113.45 L351.6 113.45 358.8 113.85 Q360.5 117.4 361.65 122.1 L355.95 128.35 361.65 122.1 362.6 126.85 355.95 128.35 362.6 126.85 M358.0 107.45 L357.85 108.35 349.05 107.35 349.0 107.35 346.85 103.8 358.0 107.45" fill="#732020" fill-rule="evenodd" stroke="none"/>
    <path d="M315.25 292.05 Q317.2 286.3 316.8 279.9 L313.2 276.8 314.45 275.1 317.05 277.85 320.6 279.05 322.15 282.45 346.0 302.3 352.1 303.05 354.85 300.25 355.35 300.6 350.45 308.7 346.9 305.65 Q344.65 313.35 340.15 317.45 336.05 321.1 330.05 321.75 L327.45 321.85 319.25 326.65 313.35 325.75 313.0 325.7 311.0 323.15 317.7 323.15 325.2 316.1 336.55 314.3 325.55 304.75 322.55 296.8 315.25 292.05 M344.3 272.15 L349.05 265.2 346.25 254.5 339.65 249.25 341.85 246.6 341.85 248.95 366.3 267.05 369.05 266.15 369.8 269.05 375.25 268.2 370.95 274.05 368.7 272.3 360.25 278.4 358.2 281.15 355.65 285.65 351.95 298.0 350.75 297.1 353.05 285.65 355.55 280.75 352.0 274.2 344.3 272.15 M397.4 190.85 L397.45 190.45 399.1 192.05 395.8 214.6 391.7 215.45 391.65 213.65 394.95 210.7 397.4 190.85 M389.35 222.2 L392.6 232.45 Q388.25 251.15 379.15 261.3 L378.95 261.5 375.3 265.05 370.9 261.9 367.45 255.45 366.85 255.25 365.25 254.8 371.05 250.6 373.1 254.1 377.85 254.3 384.65 245.15 382.6 239.8 385.6 238.2 385.25 231.95 380.7 223.3 378.8 219.65 379.9 220.3 386.15 223.95 386.5 224.15 389.35 222.2 M290.05 338.0 L289.05 343.35 270.05 351.35 253.8 352.8 251.7 348.25 251.45 348.3 Q218.75 351.4 184.25 335.65 L182.85 333.25 187.15 334.95 187.0 332.45 195.1 335.3 195.1 337.35 Q209.95 343.15 225.5 345.15 L225.95 345.2 Q227.45 344.35 229.0 343.55 L238.75 346.25 237.05 344.6 240.9 341.85 243.5 343.25 243.3 346.15 250.75 344.15 250.15 343.95 250.1 343.8 249.95 341.85 263.85 344.15 267.1 338.45 268.5 336.05 267.1 338.45 262.0 339.0 261.9 339.0 260.5 335.65 267.9 335.65 268.5 336.05 271.1 337.65 271.15 337.7 267.4 347.85 268.1 347.65 284.6 339.25 285.95 333.55 290.05 338.0 M183.55 335.3 L178.55 332.9 174.25 330.7 180.4 329.25 182.35 332.5 181.5 332.6 182.8 333.25 182.85 333.25 Q182.75 334.4 183.55 335.3 M384.15 208.25 L386.9 207.9 387.0 207.8 388.6 205.2 390.1 202.75 389.2 214.05 384.9 213.4 384.5 211.8 383.55 207.75 384.15 208.25 387.25 211.1 388.6 205.2 387.25 211.1 384.15 208.25 M368.7 272.3 L346.25 254.5 368.7 272.3 M316.8 279.9 L346.9 305.65 316.8 279.9" fill="#4a4f64" fill-rule="evenodd" stroke="none"/>
    <path d="M312.4 309.85 L309.0 302.8 Q311.05 300.4 312.6 297.8 L311.35 305.1 312.4 309.85 M328.7 280.05 L338.85 279.5 340.6 284.65 332.5 282.95 332.15 282.7 328.7 280.05 M342.0 279.8 L346.7 276.4 349.55 283.8 343.05 282.85 342.0 279.8 M342.6 287.85 L343.2 286.15 345.55 286.85 345.8 289.25 342.6 287.85" fill="#599caa" fill-rule="evenodd" stroke="none"/>
    <path d="M377.75 217.4 L378.55 200.0 379.2 199.45 384.2 200.85 384.2 205.5 382.45 206.75 383.55 207.75 384.5 211.8 384.0 219.7 386.15 223.95 379.9 220.3 377.75 217.4 M365.25 254.8 L366.85 255.25 365.0 259.75 361.2 257.85 358.9 252.95 365.25 254.8 M372.4 228.15 L373.4 226.25 373.4 226.2 373.7 225.7 376.6 225.6 378.25 230.45 373.2 233.4 372.2 231.15 371.55 229.75 372.4 228.15 M370.85 235.9 L371.45 236.4 369.9 239.4 369.45 238.75 368.6 237.6 368.55 237.45 370.3 235.35 370.85 235.9 M355.4 253.45 L354.85 255.2 351.75 252.2 352.1 251.15 355.4 253.45" fill="#73abb7" fill-rule="evenodd" stroke="none"/>
    <path d="M347.9 245.55 Q357.3 244.15 363.1 238.2 368.15 233.05 370.5 224.4 L372.55 225.7 372.4 228.15 371.55 229.75 372.2 231.15 371.7 234.2 370.85 235.9 370.3 235.35 368.55 237.45 368.6 237.6 369.45 238.75 368.95 239.7 360.95 246.0 354.25 246.4 352.3 248.7 347.9 245.55 M371.95 219.95 L377.7 218.85 377.75 217.4 379.9 220.3 378.8 219.65 380.7 223.3 375.25 223.95 371.95 219.95 M379.2 199.45 L384.45 194.5 384.6 194.5 390.85 195.05 390.85 195.2 Q390.65 195.3 390.5 195.45 L384.35 200.9 384.2 200.85 379.2 199.45" fill="#a4c9d0" fill-rule="evenodd" stroke="none"/>
    <path d="M367.5 108.65 L365.5 108.3 366.55 109.5 362.85 109.0 358.0 107.45 346.85 103.8 348.4 103.5 356.8 102.7 360.5 100.9 Q366.0 103.85 367.5 108.65 M362.65 105.75 Q361.35 103.55 356.8 102.7 361.35 103.55 362.65 105.75 M346.6 120.9 Q342.8 120.45 340.05 124.3 344.6 125.3 347.0 128.4 342.15 125.65 338.4 129.65 333.95 134.35 317.15 120.9 314.15 118.45 313.8 116.8 L313.8 116.5 Q312.35 112.6 313.8 108.75 313.35 110.6 317.15 113.65 L317.4 113.8 Q333.95 127.05 338.4 122.4 342.0 118.6 346.6 120.9" fill="#d88c41" fill-rule="evenodd" stroke="none"/>
    <path d="M366.55 109.5 L365.5 108.3 367.5 108.65 373.0 109.65 374.4 111.05 Q371.7 110.15 369.8 113.2 371.7 110.15 374.4 111.05 378.4 115.2 381.7 119.55 L376.85 118.75 379.1 121.5 379.1 121.75 378.95 121.85 381.0 127.25 380.45 129.15 382.15 132.1 383.0 137.5 Q380.65 130.1 377.05 123.7 373.9 118.05 369.8 113.2 L367.8 110.95 366.95 109.95 366.7 109.65 366.55 109.5 M378.95 121.85 Q377.9 122.4 377.05 123.7 377.9 122.4 378.95 121.85 M393.85 142.2 L395.3 147.3 Q399.95 166.6 396.9 189.95 L397.45 190.45 397.4 190.85 394.25 188.95 390.9 190.85 392.55 172.8 392.7 172.75 396.4 170.75 396.4 166.35 391.6 165.95 391.75 165.9 395.1 164.2 395.4 158.4 396.25 157.65 394.55 151.4 393.85 142.2" fill="#41505c" fill-rule="evenodd" stroke="none"/>
    <path d="M389.0 130.8 Q386.7 129.1 384.45 129.3 L383.25 126.55 Q384.7 126.15 387.25 127.7 L389.0 130.8 M290.4 324.6 L294.65 322.3 295.85 325.15 291.95 326.5 290.4 324.6 M306.35 315.0 L311.75 311.1 311.3 315.3 311.3 315.35 306.35 315.0 M316.25 272.75 L317.35 271.25 327.65 279.25 324.8 281.15 321.4 275.65 321.3 275.65 319.05 276.0 316.25 272.75 M308.75 320.75 L306.35 322.6 303.9 322.45 304.1 320.5 308.75 320.75 M257.65 335.35 L259.0 339.0 260.8 341.3 253.15 338.6 257.65 335.35 M277.95 331.9 L268.5 332.15 274.65 330.2 277.95 331.9" fill="#89afb6" fill-rule="evenodd" stroke="none"/>
    <path d="M281.85 209.2 L297.1 204.95 282.7 217.6 301.75 233.8 277.45 222.75 264.25 242.6 266.6 225.85 266.85 225.55 267.05 225.35 266.6 225.65 249.35 233.0 268.9 215.95 255.1 202.95 276.5 210.85 285.45 195.85 281.75 209.25 281.85 209.2" fill="#e2bb5f" fill-rule="evenodd" stroke="none"/>
    <path d="M366.55 109.5 L366.7 109.65 M366.95 109.95 L367.8 110.95 369.8 113.2 Q373.9 118.05 377.05 123.7 380.65 130.1 383.0 137.5 L384.65 143.45 Q389.2 162.35 386.1 185.25 L384.6 194.35 M374.4 111.05 L373.0 109.65 M381.7 119.55 Q378.4 115.2 374.4 111.05 M383.7 122.25 L381.7 119.55 M389.0 130.8 L387.25 127.7 383.7 122.25 M362.6 126.85 L363.75 132.3 Q364.75 137.1 364.05 146.3 M357.1 146.8 Q358.25 135.5 355.85 128.4 L355.85 128.35 Q354.45 119.25 351.55 113.45 325.2 112.1 317.4 113.8 L317.15 113.65 Q313.35 110.6 313.8 108.75 M185.3 329.25 Q218.3 342.8 250.35 337.95 M280.1 329.45 L290.4 324.6 294.65 322.3 Q300.6 318.95 306.35 315.0 L311.75 311.1 312.65 310.4 M396.9 189.95 Q399.95 166.6 395.3 147.3 L393.85 142.2 Q391.95 136.4 389.0 130.8 M357.85 108.35 L362.85 109.0 366.55 109.5 M349.05 107.35 L357.85 108.35 M361.65 122.1 Q360.5 117.4 358.8 113.85 L351.6 113.45 M362.6 126.85 L361.65 122.1 M368.65 114.45 L358.8 113.85 M346.6 120.9 Q342.0 118.6 338.4 122.4 333.95 127.05 317.4 113.8 M313.8 116.8 Q314.15 118.45 317.15 120.9 333.95 134.35 338.4 129.65 342.15 125.65 347.0 128.4 M391.4 215.5 L390.2 219.45 389.35 222.05 M360.25 278.4 L358.2 281.15 355.65 285.65 M312.45 325.6 Q301.65 332.75 290.05 337.9 M251.7 348.25 L251.45 348.3 Q218.75 351.4 184.25 335.65 L183.55 335.3 178.55 332.9 174.25 330.7 170.45 328.6 M168.3 321.05 L175.75 324.9 185.3 329.25 M349.0 107.35 Q316.55 103.85 314.0 108.3" fill="none" stroke="#000000" stroke-linecap="round" stroke-linejoin="round" stroke-opacity="0.6" stroke-width="0.05"/>
    <path d="M367.5 108.65 L365.5 108.3 366.55 109.5 M366.7 109.65 L366.95 109.95 M369.8 113.2 Q371.7 110.15 374.4 111.05 M373.0 109.65 L367.5 108.65 Q366.0 103.85 360.5 100.9 L356.8 102.7 Q361.35 103.55 362.65 105.75 M368.65 114.45 L369.8 113.2 M377.05 123.7 Q377.9 122.4 378.95 121.85 L379.1 121.75 379.25 121.7 Q381.15 120.85 383.7 122.25 M377.05 123.7 L362.6 126.85 355.95 128.35 361.65 122.1 368.65 114.45 M364.05 146.3 Q363.45 140.65 360.8 136.4 361.15 141.65 357.1 146.8 M355.85 128.4 L355.05 129.3 355.75 129.65 353.2 132.25 352.65 131.9 281.85 209.2 281.75 209.25 M266.6 225.85 L195.65 303.25 196.0 303.4 193.6 306.7 193.05 306.1 191.2 308.05 185.3 329.25 Q183.0 331.5 182.85 333.25 182.75 334.4 183.55 335.3 M250.35 337.95 L250.85 337.4 254.55 333.0 274.4 328.1 280.1 329.45 M312.65 310.4 L312.4 309.85 309.0 302.8 Q311.05 300.4 312.6 297.8 M313.1 296.95 L315.25 292.05 Q317.2 286.3 316.8 279.9 L313.2 276.8 314.45 275.1 316.25 272.75 317.35 271.25 327.65 279.25 328.7 280.05 338.85 279.5 339.3 279.45 344.3 272.15 349.05 265.2 346.25 254.5 339.65 249.25 341.85 246.6 344.65 243.2 347.9 245.55 Q357.3 244.15 363.1 238.2 368.15 233.05 370.5 224.4 L371.45 220.1 371.45 220.0 371.95 219.95 377.7 218.85 377.75 217.4 378.55 200.0 379.2 199.45 384.45 194.5 384.6 194.35 M384.6 194.5 L390.85 195.05 390.85 195.2 Q390.65 195.3 390.5 195.45 M384.2 205.5 L385.8 204.35 M397.45 190.45 L396.9 189.95 M362.85 109.0 L358.0 107.45 357.85 108.35 M346.85 103.8 L348.4 103.5 356.8 102.7 M346.85 103.8 L349.0 107.35 349.05 107.35 M351.6 113.45 L351.55 113.45 M358.0 107.45 L346.85 103.8 M355.85 128.4 L355.95 128.35 M352.65 131.9 L352.4 131.75 354.6 129.05 355.05 129.3 M347.0 128.4 Q344.6 125.3 340.05 124.3 342.8 120.45 346.6 120.9 M313.8 108.75 Q312.35 112.6 313.8 116.5 L313.8 116.8 M384.45 194.5 L384.6 194.5 M397.45 190.45 L399.1 192.05 395.8 214.6 391.7 215.45 391.4 215.5 M389.35 222.05 L389.35 222.2 392.6 232.45 Q388.25 251.15 379.15 261.3 L378.95 261.5 375.3 265.05 376.8 266.05 375.25 268.2 370.95 274.05 368.7 272.3 360.25 278.4 M355.65 285.65 L351.95 298.0 354.85 300.25 355.35 300.6 350.45 308.7 346.9 305.65 Q344.65 313.35 340.15 317.45 336.05 321.1 330.05 321.75 L327.45 321.85 319.25 326.65 313.35 325.75 M313.0 325.7 L312.45 325.6 M290.05 337.9 L290.05 338.0 289.05 343.35 270.05 351.35 253.8 352.8 251.7 348.25 M170.45 328.6 L168.3 321.05 M175.75 324.9 L191.2 308.05 M388.6 205.2 L390.55 196.4 M388.6 205.2 L387.25 211.1 384.15 208.25 383.55 207.75 382.45 206.75 384.2 205.5 M365.25 254.8 L366.85 255.25 367.45 255.45 370.9 261.9 375.3 265.05 M352.3 248.7 L357.9 252.65 358.9 252.95 365.25 254.8 M328.7 280.05 L332.15 282.7 M332.5 282.95 L334.95 284.85 340.05 291.75 347.8 294.8 350.75 297.1 351.95 298.0 M346.25 254.5 L368.7 272.3 M352.3 248.7 L347.9 245.55 M314.0 108.3 L313.8 108.75 M266.6 225.85 L266.85 225.55 266.6 225.65 266.6 225.85 M195.65 303.25 L194.8 302.95 192.6 305.6 193.05 306.1 M312.65 310.4 L313.55 312.25 M268.5 336.05 L267.1 338.45 263.85 344.15 249.95 341.85 249.55 341.75 250.65 338.05 250.85 337.4 M267.9 335.65 L260.5 335.65 261.9 339.0 262.0 339.0 M268.5 336.05 L268.7 335.65 267.9 335.65 M346.9 305.65 L316.8 279.9" fill="none" stroke="#000000" stroke-linecap="round" stroke-linejoin="round" stroke-opacity="0.6" stroke-width="0.05"/>
    <path d="M381.55 101.05 L381.9 101.05 382.15 106.05 382.7 117.65 373.7 115.4 373.75 115.3 377.8 107.95 378.9 105.9 381.55 101.05" fill="#999eb7" fill-rule="evenodd" stroke="none"/>
    <path d="M381.55 101.05 L378.9 105.9 377.8 107.95 373.75 115.3 373.7 115.4 373.65 115.35 373.4 115.15 372.5 114.35 368.05 109.75 367.4 109.05 366.05 107.65 381.55 101.05" fill="#dcdee7" fill-rule="evenodd" stroke="none"/>
    <path d="M378.9 105.9 L377.8 107.95 M373.75 115.3 L373.7 115.4 382.7 117.65 382.15 106.05 M373.7 115.4 L373.65 115.35 373.4 115.15 372.5 114.35 368.05 109.75" fill="none" stroke="#49221b" stroke-linecap="round" stroke-linejoin="round" stroke-width="0.05"/>
    <path d="M177.95 328.35 L176.05 330.8 167.9 341.2 167.55 341.3 169.5 324.7 173.85 326.6 177.95 328.35" fill="#d6d8e2" fill-rule="evenodd" stroke="none"/>
    <path d="M177.95 328.35 L178.0 328.4 Q179.75 330.3 183.15 335.65 L184.25 337.2 170.6 340.55 167.9 341.2 176.05 330.8 177.95 328.35" fill="#999eb7" fill-rule="evenodd" stroke="none"/>
    <path d="M170.6 340.55 L184.25 337.2 183.15 335.65 Q179.75 330.3 178.0 328.4 L177.95 328.35 176.05 330.8 M177.95 328.35 L173.85 326.6" fill="none" stroke="#49221b" stroke-linecap="round" stroke-linejoin="round" stroke-width="0.05"/>
  </g>
</svg>
