<?xml version="1.0" encoding="UTF-8" standalone="no"?>
<svg xmlns:xlink="http://www.w3.org/1999/xlink" height="281.5px" width="316.45px" xmlns="http://www.w3.org/2000/svg">
  <g transform="matrix(1.0, 0.0, 0.0, 1.0, -121.1, -17.1)">
    <path d="M428.1 65.55 Q422.2 69.25 411.8 63.75 410.65 63.6 409.8 64.6 L393.6 76.65 394.0 76.7 395.95 76.65 Q398.45 75.95 402.2 72.55 L402.8 71.95 Q407.45 67.8 408.95 67.1 409.95 66.2 410.35 66.15 L411.1 66.1 Q413.2 66.2 418.25 68.15 423.55 70.25 426.2 68.4 L426.35 68.35 426.65 68.1 427.05 67.75 428.1 65.55 M436.85 41.6 Q437.85 45.55 424.3 51.7 422.8 53.55 425.25 54.8 425.2 54.45 425.3 54.05 425.9 52.2 430.55 49.4 438.2 44.9 437.5 42.65 437.45 41.95 436.85 41.6 M421.2 26.6 Q417.7 34.9 415.55 43.95 414.8 46.8 416.5 47.3 415.9 46.3 419.35 42.25 L418.65 42.75 Q416.15 44.6 419.8 32.2 L421.2 26.6" fill="#6d6238" fill-rule="evenodd" stroke="none"/>
    <path d="M428.1 65.55 L428.8 64.1 429.4 62.5 429.35 62.1 Q429.25 58.05 426.1 56.1 L425.45 55.5 425.25 54.8 Q422.8 53.55 424.3 51.7 437.85 45.55 436.85 41.6 435.3 40.05 430.4 39.4 L424.05 39.7 422.25 40.4 Q421.4 40.75 419.35 42.25 415.9 46.3 416.5 47.3 414.8 46.8 415.55 43.95 417.7 34.9 421.2 26.6 L421.35 25.5 Q422.3 19.3 419.95 18.3 418.45 17.65 416.45 18.35 L416.1 18.55 Q412.75 19.75 407.85 24.85 L405.95 26.9 405.1 27.75 403.1 30.45 401.4 32.9 Q400.25 34.6 399.25 36.45 L398.25 38.5 398.3 38.65 392.15 41.65 391.0 42.0 390.55 42.3 Q390.45 42.3 390.2 42.45 L389.1 42.8 388.45 43.15 Q388.05 43.2 387.7 43.5 L387.35 43.65 386.45 44.15 378.0 49.95 377.1 50.85 377.05 51.5 376.9 53.25 Q376.65 59.95 376.8 64.45 L377.3 69.1 377.5 69.65 377.9 70.95 380.2 78.5 394.15 61.35 393.8 62.7 393.15 66.1 393.15 66.8 392.95 67.7 392.85 68.3 Q392.15 73.05 392.7 75.1 L392.75 75.25 392.75 75.35 Q393.05 76.25 393.6 76.65 L409.8 64.6 Q410.65 63.6 411.8 63.75 422.2 69.25 428.1 65.55 M395.55 45.6 L397.6 40.5 397.65 40.2 397.75 39.75 398.3 38.65 397.75 39.75 397.65 40.2 397.6 40.5 395.55 45.6 M414.3 23.75 L412.15 25.7 414.3 23.75 M401.5 38.55 Q404.45 32.9 409.15 28.45 404.45 32.9 401.5 38.55 M379.6 51.95 Q384.6 48.3 393.85 44.65 384.6 48.3 379.6 51.95 M421.15 43.6 Q426.8 40.8 433.8 42.2 426.8 40.8 421.15 43.6" fill="#8c7b47" fill-rule="evenodd" stroke="none"/>
    <path d="M392.75 75.35 L392.75 75.25 392.7 75.1 Q392.15 73.05 392.85 68.3 L392.95 67.7 393.15 66.8 393.15 66.1 393.8 62.7 394.15 61.35 380.2 78.5 Q381.55 83.3 382.35 88.05 L382.6 89.2 383.0 88.35 383.2 87.85 383.4 87.25 383.6 86.75 383.75 86.6 391.9 76.15 392.6 75.5 392.75 75.35" fill="#5b512f" fill-rule="evenodd" stroke="none"/>
    <path d="M425.45 55.5 L426.1 56.1 Q429.25 58.05 429.35 62.1 L429.4 62.5 428.8 64.1 428.1 65.55 427.05 67.75 426.65 68.1 426.35 68.35 426.2 68.4 Q423.55 70.25 418.25 68.15 413.2 66.2 411.1 66.1 L410.35 66.15 Q409.95 66.2 408.95 67.1 407.45 67.8 402.8 71.95 L402.2 72.55 Q398.45 75.95 395.95 76.65 L394.0 76.7 393.6 76.65 Q393.05 76.25 392.75 75.35 L392.75 75.25 392.7 75.1 Q392.15 73.05 392.85 68.3 L392.95 67.7 393.15 66.8 393.15 66.1 393.8 62.7 394.15 61.35 M380.2 78.5 L377.9 70.95 377.5 69.65 377.3 69.1 376.8 64.45 Q376.65 59.95 376.9 53.25 L377.05 51.5 377.1 50.85 378.0 49.95 386.45 44.15 387.35 43.65 387.7 43.5 Q388.05 43.2 388.45 43.15 L389.1 42.8 390.2 42.45 Q390.45 42.3 390.55 42.3 L391.0 42.0 392.15 41.65 398.3 38.65 397.75 39.75 397.65 40.2 397.6 40.5 395.55 45.6 M419.35 42.25 Q421.4 40.75 422.25 40.4 L424.05 39.7 430.4 39.4 Q435.3 40.05 436.85 41.6 437.45 41.95 437.5 42.65 438.2 44.9 430.55 49.4 425.9 52.2 425.3 54.05 425.2 54.45 425.25 54.8 M398.3 38.65 L398.25 38.5 399.25 36.45 Q400.25 34.6 401.4 32.9 L403.1 30.45 405.1 27.75 405.95 26.9 407.85 24.85 Q412.75 19.75 416.1 18.55 L416.45 18.35 Q418.45 17.65 419.95 18.3 422.3 19.3 421.35 25.5 M419.35 42.25 L418.65 42.75 Q416.15 44.6 419.8 32.2 L421.2 26.6 M392.75 75.35 L392.6 75.5 391.9 76.15 383.75 86.6 383.6 86.75 383.4 87.25 383.2 87.85 383.0 88.35 382.6 89.2 382.35 88.05 Q381.55 83.3 380.2 78.5" fill="none" stroke="#5a3c1f" stroke-linecap="round" stroke-linejoin="round" stroke-width="0.05"/>
    <path d="M393.85 44.65 Q384.6 48.3 379.6 51.95 M409.15 28.45 Q404.45 32.9 401.5 38.55 M412.15 25.7 L414.3 23.75 M433.8 42.2 Q426.8 40.8 421.15 43.6" fill="none" stroke="#ffffff" stroke-linecap="round" stroke-linejoin="round" stroke-width="1.0"/>
    <path d="M394.45 39.65 L394.3 39.1 Q394.25 37.8 396.55 34.8 400.45 29.95 399.45 28.7 399.25 28.3 398.85 28.2 400.45 30.5 393.05 37.85 392.55 39.4 394.45 39.65 M387.55 32.9 L387.15 33.35 Q386.0 35.15 385.35 26.25 L384.9 22.2 Q384.65 28.5 385.45 34.9 385.7 36.95 386.9 36.85 386.25 36.4 387.55 32.9 M379.15 61.55 L379.4 61.55 Q380.05 61.6 380.65 61.05 382.15 59.95 383.75 56.8 L384.0 56.25 Q386.0 52.45 386.75 51.65 L387.55 50.65 388.0 50.45 393.15 50.0 Q397.1 50.1 398.35 48.25 L398.45 48.2 398.65 47.95 398.75 47.6 398.9 45.95 Q395.95 49.8 387.9 48.75 387.05 48.9 386.8 49.8 L379.15 61.55" fill="#6d6238" fill-rule="evenodd" stroke="none"/>
    <path d="M394.45 39.65 Q392.55 39.4 393.05 37.85 400.45 30.5 398.85 28.2 L394.05 28.35 Q391.5 28.8 389.95 30.05 L389.0 30.95 Q388.5 31.35 387.55 32.9 386.25 36.4 386.9 36.85 385.7 36.95 385.45 34.9 384.65 28.5 384.9 22.2 L384.75 21.5 Q383.9 17.2 382.1 17.1 380.95 17.05 379.8 18.0 L379.65 18.15 Q377.7 19.8 375.75 24.35 L375.05 26.15 374.7 26.9 374.05 29.2 373.5 31.2 373.0 34.0 372.9 35.6 372.95 35.7 369.65 39.1 369.0 39.6 368.8 39.9 368.6 40.15 367.9 40.65 367.6 41.05 367.2 41.4 367.0 41.6 366.6 42.15 362.5 48.0 362.1 48.8 362.2 49.25 362.55 50.4 Q364.0 54.85 365.25 57.75 L366.7 60.65 366.95 60.95 367.5 61.7 370.85 66.05 375.8 51.45 375.85 52.45 376.3 54.8 376.4 55.25 376.55 55.95 376.65 56.3 Q377.3 59.55 378.2 60.8 L378.25 60.85 378.25 60.95 379.15 61.55 386.8 49.8 Q387.05 48.9 387.9 48.75 395.95 49.8 398.9 45.95 L399.0 44.85 399.05 43.6 398.9 43.35 Q397.85 40.8 395.35 40.2 L394.75 40.0 394.45 39.65 M372.85 40.85 L372.9 37.0 372.9 36.85 372.9 36.55 372.95 35.7 372.9 36.55 372.9 36.85 372.9 37.0 372.85 40.85 M364.0 48.9 Q366.35 45.35 371.5 40.7 366.35 45.35 364.0 48.9 M375.0 34.8 Q375.55 30.4 377.55 26.35 375.55 30.4 375.0 34.8 M379.7 22.05 L378.8 23.85 379.7 22.05 M389.05 33.3 Q392.05 30.1 396.95 29.3 392.05 30.1 389.05 33.3" fill="#8c7b47" fill-rule="evenodd" stroke="none"/>
    <path d="M370.85 66.05 L374.6 71.75 375.0 72.45 375.1 71.8 375.1 71.4 375.1 71.0 375.1 70.6 375.15 70.45 377.9 61.65 378.2 61.1 378.25 60.95 378.25 60.85 378.2 60.8 Q377.3 59.55 376.65 56.3 L376.55 55.95 376.4 55.25 376.3 54.8 375.85 52.45 375.8 51.45 370.85 66.05" fill="#5b512f" fill-rule="evenodd" stroke="none"/>
    <path d="M398.85 28.2 Q399.25 28.3 399.45 28.7 400.45 29.95 396.55 34.8 394.25 37.8 394.3 39.1 L394.45 39.65 M398.85 28.2 L394.05 28.35 Q391.5 28.8 389.95 30.05 L389.0 30.95 Q388.5 31.35 387.55 32.9 L387.15 33.35 Q386.0 35.15 385.35 26.25 L384.9 22.2 M384.75 21.5 Q383.9 17.2 382.1 17.1 380.95 17.05 379.8 18.0 L379.65 18.15 Q377.7 19.8 375.75 24.35 L375.05 26.15 374.7 26.9 374.05 29.2 373.5 31.2 373.0 34.0 372.9 35.6 372.95 35.7 369.65 39.1 369.0 39.6 368.8 39.9 368.6 40.15 367.9 40.65 367.6 41.05 367.2 41.4 367.0 41.6 366.6 42.15 362.5 48.0 362.1 48.8 362.2 49.25 362.55 50.4 Q364.0 54.85 365.25 57.75 L366.7 60.65 366.95 60.95 367.5 61.7 370.85 66.05 374.6 71.75 375.0 72.45 375.1 71.8 375.1 71.4 375.1 71.0 375.1 70.6 375.15 70.45 377.9 61.65 378.2 61.1 378.25 60.95 379.15 61.55 379.4 61.55 Q380.05 61.6 380.65 61.05 382.15 59.95 383.75 56.8 L384.0 56.25 Q386.0 52.45 386.75 51.65 L387.55 50.65 388.0 50.45 393.15 50.0 Q397.1 50.1 398.35 48.25 L398.45 48.2 398.65 47.95 398.75 47.6 398.9 45.95 399.0 44.85 399.05 43.6 398.9 43.35 Q397.85 40.8 395.35 40.2 L394.75 40.0 M372.95 35.7 L372.9 36.55 372.9 36.85 372.9 37.0 372.85 40.85 M378.25 60.95 L378.25 60.85 378.2 60.8 Q377.3 59.55 376.65 56.3 L376.55 55.95 376.4 55.25 376.3 54.8 375.85 52.45 375.8 51.45" fill="none" stroke="#5a3c1f" stroke-linecap="round" stroke-linejoin="round" stroke-width="0.05"/>
    <path d="M371.5 40.7 Q366.35 45.35 364.0 48.9 M378.8 23.85 L379.7 22.05 M377.55 26.35 Q375.55 30.4 375.0 34.8 M396.95 29.3 Q392.05 30.1 389.05 33.3" fill="none" stroke="#ffffff" stroke-linecap="round" stroke-linejoin="round" stroke-width="1.0"/>
    <path d="M419.9 85.75 L420.25 85.35 Q421.15 84.6 424.55 84.7 430.1 84.9 430.5 83.5 430.7 83.15 430.5 82.8 429.7 85.2 420.5 83.8 419.1 84.25 419.9 85.75 M421.1 77.15 L420.6 77.2 Q418.65 77.25 424.75 72.05 L427.35 69.6 Q422.75 72.75 418.55 76.75 417.15 78.0 417.9 78.85 417.95 78.15 421.1 77.15 M395.95 86.45 L396.15 86.65 Q396.45 87.1 397.15 87.25 398.7 87.7 401.9 87.2 L402.4 87.15 407.25 86.65 408.25 86.65 408.7 86.9 Q409.75 87.65 411.75 90.35 413.8 93.25 415.8 93.15 L415.9 93.2 416.2 93.15 416.5 93.1 417.8 92.35 Q413.4 92.25 409.9 85.9 409.3 85.4 408.55 85.65 L395.95 86.45" fill="#6d6238" fill-rule="evenodd" stroke="none"/>
    <path d="M419.9 85.75 Q419.1 84.25 420.5 83.8 429.7 85.2 430.5 82.8 430.25 81.45 427.85 79.45 426.2 77.9 424.45 77.4 L423.3 77.2 421.1 77.15 Q417.95 78.15 417.9 78.85 417.15 78.0 418.55 76.75 422.75 72.75 427.35 69.6 L427.85 69.05 Q430.45 66.15 429.55 64.8 429.0 63.95 427.75 63.65 L427.45 63.6 Q425.3 63.1 420.95 64.15 L419.35 64.55 418.6 64.75 Q417.6 65.05 416.55 65.5 L414.85 66.2 412.55 67.3 411.35 68.1 411.3 68.15 407.05 67.65 406.4 67.45 406.0 67.4 405.75 67.4 405.05 67.2 404.6 67.15 404.15 67.1 403.85 67.05 403.25 67.0 396.85 67.15 396.05 67.3 395.8 67.7 395.15 68.55 391.25 74.35 389.95 77.0 389.85 77.35 389.65 78.1 388.35 82.85 401.45 78.65 400.75 79.2 399.35 80.8 399.05 81.1 398.6 81.6 398.4 81.85 Q396.4 84.05 396.0 85.3 L395.95 85.4 395.9 85.45 Q395.8 86.1 395.95 86.45 L408.55 85.65 Q409.3 85.4 409.9 85.9 413.4 92.25 417.8 92.35 L418.65 91.8 419.5 91.2 419.6 90.95 Q420.95 88.8 420.0 86.7 L419.85 86.15 419.9 85.75 M407.5 70.85 Q408.5 70.25 410.3 68.85 L410.45 68.7 410.65 68.55 411.3 68.15 410.65 68.55 410.45 68.7 410.3 68.85 Q408.5 70.25 407.5 70.85 M397.0 68.75 Q400.8 68.55 406.95 69.8 400.8 68.55 397.0 68.75 M413.0 69.15 Q416.45 67.2 420.45 66.5 416.45 67.2 413.0 69.15 M424.75 65.75 L422.95 66.05 424.75 65.75 M421.6 78.5 Q425.5 78.95 428.7 82.05 425.5 78.95 421.6 78.5" fill="#8c7b47" fill-rule="evenodd" stroke="none"/>
    <path d="M388.35 82.85 L386.2 88.6 385.9 89.3 386.45 89.0 386.7 88.8 387.0 88.55 387.3 88.4 387.45 88.3 395.25 85.6 395.8 85.55 395.9 85.45 395.95 85.4 396.0 85.3 Q396.4 84.05 398.4 81.85 L398.6 81.6 399.05 81.1 399.35 80.8 400.75 79.2 401.45 78.65 388.35 82.85" fill="#5b512f" fill-rule="evenodd" stroke="none"/>
    <path d="M430.5 82.8 Q430.7 83.15 430.5 83.5 430.1 84.9 424.55 84.7 421.15 84.6 420.25 85.35 L419.9 85.75 M430.5 82.8 Q430.25 81.45 427.85 79.45 426.2 77.9 424.45 77.4 L423.3 77.2 421.1 77.15 420.6 77.2 Q418.65 77.25 424.75 72.05 L427.35 69.6 M427.85 69.05 Q430.45 66.15 429.55 64.8 429.0 63.95 427.75 63.65 L427.45 63.6 Q425.3 63.1 420.95 64.15 L419.35 64.55 418.6 64.75 Q417.6 65.05 416.55 65.5 L414.85 66.2 412.55 67.3 411.35 68.1 411.3 68.15 407.05 67.65 406.4 67.45 406.0 67.4 405.75 67.4 405.05 67.2 404.6 67.15 404.15 67.1 403.85 67.05 403.25 67.0 396.85 67.15 396.05 67.3 395.8 67.7 395.15 68.55 391.25 74.35 389.95 77.0 389.85 77.35 389.65 78.1 388.35 82.85 386.2 88.6 385.9 89.3 386.45 89.0 386.7 88.8 387.0 88.55 387.3 88.4 387.45 88.3 395.25 85.6 395.8 85.55 395.9 85.45 Q395.8 86.1 395.95 86.45 L396.15 86.65 Q396.45 87.1 397.15 87.25 398.7 87.7 401.9 87.2 L402.4 87.15 407.25 86.65 408.25 86.65 408.7 86.9 Q409.75 87.65 411.75 90.35 413.8 93.25 415.8 93.15 L415.9 93.2 416.2 93.15 416.5 93.1 417.8 92.35 418.65 91.8 419.5 91.2 419.6 90.95 Q420.95 88.8 420.0 86.7 L419.85 86.15 M411.3 68.15 L410.65 68.55 410.45 68.7 410.3 68.85 Q408.5 70.25 407.5 70.85 M395.9 85.45 L395.95 85.4 396.0 85.3 Q396.4 84.05 398.4 81.85 L398.6 81.6 399.05 81.1 399.35 80.8 400.75 79.2 401.45 78.65" fill="none" stroke="#5a3c1f" stroke-linecap="round" stroke-linejoin="round" stroke-width="0.05"/>
    <path d="M406.95 69.8 Q400.8 68.55 397.0 68.75 M422.95 66.05 L424.75 65.75 M420.45 66.5 Q416.45 67.2 413.0 69.15 M428.7 82.05 Q425.5 78.95 421.6 78.5" fill="none" stroke="#ffffff" stroke-linecap="round" stroke-linejoin="round" stroke-width="1.0"/>
    <path d="M133.15 292.0 L126.8 285.35 378.45 64.3 391.7 77.2 Q258.6 167.3 133.15 292.0" fill="#695a3a" fill-rule="evenodd" stroke="none"/>
    <path d="M391.7 77.2 L396.6 82.65 Q249.95 170.85 138.45 298.1 L133.15 292.0 Q258.6 167.3 391.7 77.2" fill="#51452d" fill-rule="evenodd" stroke="none"/>
    <path d="M126.8 285.35 L121.6 279.9 Q252.85 177.0 361.75 48.05 L378.45 64.3 126.8 285.35" fill="#806c46" fill-rule="evenodd" stroke="none"/>
    <path d="M391.7 77.2 L396.6 82.65 Q249.95 170.85 138.45 298.1 L133.15 292.0 126.8 285.35 121.6 279.9 Q252.85 177.0 361.75 48.05 L378.45 64.3 391.7 77.2 Z" fill="none" stroke="#000000" stroke-linecap="round" stroke-linejoin="round" stroke-opacity="0.3019608" stroke-width="1.0"/>
    <path d="M302.1 114.95 Q307.35 114.4 312.4 116.65 315.4 118.0 321.6 121.6 322.95 122.25 324.95 122.45 L326.75 122.65 Q327.2 123.3 326.1 125.5 324.95 127.85 323.25 128.95 L299.0 140.35 273.5 156.65 269.35 159.0 269.1 159.0 268.75 159.05 268.7 159.1 266.45 157.15 Q267.05 156.8 267.75 156.55 L270.25 154.45 273.15 151.7 275.25 148.7 Q276.95 146.2 277.55 145.95 L287.5 129.7 287.7 129.75 287.65 129.45 302.1 114.95 M296.5 130.9 L296.75 131.05 296.8 131.0 296.5 130.9" fill="#c4836a" fill-rule="evenodd" stroke="none"/>
    <path d="M302.1 114.95 L287.65 129.45 287.5 129.7 277.55 145.95 Q276.95 146.2 275.25 148.7 L273.15 151.7 270.25 154.45 267.75 156.55 Q267.05 156.8 266.45 157.15 L266.35 157.1 263.1 154.35 265.5 150.5 269.15 146.85 278.1 133.1 279.6 130.85 287.5 117.75 287.75 117.5 Q290.25 116.65 294.75 116.05 L302.1 114.95" fill="#bb7053" fill-rule="evenodd" stroke="none"/>
    <path d="M268.7 159.1 L268.75 159.05 268.7 159.1" fill="#7d3e3e" fill-rule="evenodd" stroke="none"/>
    <path d="M268.75 159.05 L269.1 159.0 269.35 159.0 273.5 156.65 299.0 140.35 323.25 128.95 Q324.95 127.85 326.1 125.5 327.2 123.3 326.75 122.65 L324.95 122.45 Q322.95 122.25 321.6 121.6 315.4 118.0 312.4 116.65 307.35 114.4 302.1 114.95 L287.65 129.45 287.5 129.7 277.55 145.95 M266.45 157.15 L268.7 159.1 268.75 159.05 M302.1 114.95 L294.75 116.05 Q290.25 116.65 287.75 117.5 L287.5 117.75 279.6 130.85 M278.1 133.1 L269.15 146.85 265.5 150.5 263.1 154.35 266.35 157.1 266.45 157.15" fill="none" stroke="#000000" stroke-linecap="round" stroke-linejoin="round" stroke-opacity="0.39215687" stroke-width="0.05"/>
    <path d="M305.8 120.9 Q304.95 121.4 303.95 121.15 302.95 120.9 302.45 120.1 301.9 119.35 302.1 118.5 302.3 117.6 303.15 117.15 L304.95 116.95 Q305.95 117.2 306.5 117.95 307.0 118.7 306.85 119.6 306.6 120.45 305.8 120.9" fill="#9e593f" fill-rule="evenodd" stroke="none"/>
    <path d="M305.8 120.9 Q304.95 121.4 303.95 121.15 302.95 120.9 302.45 120.1 301.9 119.35 302.1 118.5 302.3 117.6 303.15 117.15 L304.95 116.95 Q305.95 117.2 306.5 117.95 307.0 118.7 306.85 119.6 306.6 120.45 305.8 120.9 Z" fill="none" stroke="#000000" stroke-linecap="round" stroke-linejoin="round" stroke-opacity="0.3019608" stroke-width="0.05"/>
    <path d="M304.9 126.05 L304.1 126.15 303.4 125.7 Q303.15 125.35 303.25 125.0 303.35 124.6 303.7 124.45 304.05 124.2 304.5 124.3 L305.2 124.8 305.35 125.5 304.9 126.05" fill="#9e593f" fill-rule="evenodd" stroke="none"/>
    <path d="M304.9 126.05 L304.1 126.15 303.4 125.7 Q303.15 125.35 303.25 125.0 303.35 124.6 303.7 124.45 304.05 124.2 304.5 124.3 L305.2 124.8 305.35 125.5 304.9 126.05 Z" fill="none" stroke="#000000" stroke-linecap="round" stroke-linejoin="round" stroke-opacity="0.3019608" stroke-width="0.05"/>
    <path d="M298.5 134.55 L297.7 134.65 Q297.25 134.55 297.0 134.2 296.75 133.85 296.85 133.5 L297.3 132.95 298.1 132.8 298.8 133.3 298.95 134.0 298.5 134.55" fill="#9e593f" fill-rule="evenodd" stroke="none"/>
    <path d="M298.5 134.55 L297.7 134.65 Q297.25 134.55 297.0 134.2 296.75 133.85 296.85 133.5 L297.3 132.95 298.1 132.8 298.8 133.3 298.95 134.0 298.5 134.55 Z" fill="none" stroke="#000000" stroke-linecap="round" stroke-linejoin="round" stroke-opacity="0.3019608" stroke-width="0.05"/>
    <path d="M297.65 130.4 L296.35 130.6 Q295.65 130.4 295.3 129.85 294.9 129.3 295.05 128.7 295.2 128.1 295.8 127.75 L297.05 127.6 298.15 128.3 Q298.5 128.85 298.4 129.5 L297.65 130.4" fill="#9e593f" fill-rule="evenodd" stroke="none"/>
    <path d="M297.65 130.4 L296.35 130.6 Q295.65 130.4 295.3 129.85 294.9 129.3 295.05 128.7 295.2 128.1 295.8 127.75 L297.05 127.6 298.15 128.3 Q298.5 128.85 298.4 129.5 L297.65 130.4 Z" fill="none" stroke="#000000" stroke-linecap="round" stroke-linejoin="round" stroke-opacity="0.3019608" stroke-width="0.05"/>
    <path d="M310.85 127.25 L310.05 127.35 309.35 126.9 Q309.1 126.55 309.2 126.2 L309.65 125.65 Q310.0 125.4 310.45 125.5 310.9 125.6 311.15 126.0 L311.3 126.7 310.85 127.25" fill="#9e593f" fill-rule="evenodd" stroke="none"/>
    <path d="M310.85 127.25 L310.05 127.35 309.35 126.9 Q309.1 126.55 309.2 126.2 L309.65 125.65 Q310.0 125.4 310.45 125.5 310.9 125.6 311.15 126.0 L311.3 126.7 310.85 127.25 Z" fill="none" stroke="#000000" stroke-linecap="round" stroke-linejoin="round" stroke-opacity="0.3019608" stroke-width="0.05"/>
    <path d="M318.1 102.5 Q317.15 107.65 319.0 112.85 320.1 115.95 323.2 122.4 323.7 123.8 323.75 125.8 L323.85 127.6 Q324.45 128.15 326.7 127.25 329.15 126.3 330.4 124.6 L343.65 101.45 361.85 77.25 364.5 73.3 364.5 73.1 364.55 72.7 364.65 72.65 362.9 70.25 362.15 71.55 359.95 73.85 356.95 76.55 353.8 78.35 Q351.2 79.9 350.85 80.45 L333.9 89.15 333.95 89.3 333.65 89.25 318.1 102.5 M334.45 98.2 L334.55 98.45 334.45 98.45 334.45 98.2" fill="#c4836a" fill-rule="evenodd" stroke="none"/>
    <path d="M318.1 102.5 L333.65 89.25 333.9 89.15 350.85 80.45 Q351.2 79.9 353.8 78.35 L356.95 76.55 359.95 73.85 362.15 71.55 362.9 70.25 362.85 70.15 360.4 66.7 356.35 68.8 352.4 72.15 338.05 80.05 335.7 81.3 322.05 88.15 321.8 88.4 Q320.7 90.8 319.75 95.25 318.8 98.55 318.1 102.5" fill="#bb7053" fill-rule="evenodd" stroke="none"/>
    <path d="M364.65 72.65 L364.55 72.7 364.65 72.65" fill="#7d3e3e" fill-rule="evenodd" stroke="none"/>
    <path d="M364.55 72.7 L364.5 73.1 364.5 73.3 361.85 77.25 343.65 101.45 330.4 124.6 Q329.15 126.3 326.7 127.25 324.45 128.15 323.85 127.6 L323.75 125.8 Q323.7 123.8 323.2 122.4 320.1 115.95 319.0 112.85 317.15 107.65 318.1 102.5 L333.65 89.25 333.9 89.15 350.85 80.45 M362.9 70.25 L364.65 72.65 364.55 72.7 M338.05 80.05 L352.4 72.15 356.35 68.8 360.4 66.7 362.85 70.15 362.9 70.25 M318.1 102.5 Q318.8 98.55 319.75 95.25 320.7 90.8 321.8 88.4 L322.05 88.15 335.7 81.3" fill="none" stroke="#000000" stroke-linecap="round" stroke-linejoin="round" stroke-opacity="0.39215687" stroke-width="0.05"/>
    <path d="M323.75 106.6 Q324.3 105.85 324.15 104.8 324.0 103.8 323.25 103.25 322.55 102.65 321.65 102.8 320.75 102.9 320.25 103.7 319.7 104.45 319.85 105.45 320.0 106.5 320.75 107.05 321.45 107.65 322.4 107.55 323.25 107.4 323.75 106.6" fill="#9e593f" fill-rule="evenodd" stroke="none"/>
    <path d="M323.75 106.6 Q324.3 105.85 324.15 104.8 324.0 103.8 323.25 103.25 322.55 102.65 321.65 102.8 320.75 102.9 320.25 103.7 319.7 104.45 319.85 105.45 320.0 106.5 320.75 107.05 321.45 107.65 322.4 107.55 323.25 107.4 323.75 106.6 Z" fill="none" stroke="#000000" stroke-linecap="round" stroke-linejoin="round" stroke-opacity="0.3019608" stroke-width="0.05"/>
    <path d="M329.0 106.2 L329.1 105.4 328.75 104.7 328.05 104.5 Q327.65 104.55 327.4 104.9 327.2 105.25 327.25 105.7 L327.65 106.4 328.4 106.6 329.0 106.2" fill="#9e593f" fill-rule="evenodd" stroke="none"/>
    <path d="M329.0 106.2 L329.1 105.4 328.75 104.7 328.05 104.5 Q327.65 104.55 327.4 104.9 327.2 105.25 327.25 105.7 L327.65 106.4 328.4 106.6 329.0 106.2 Z" fill="none" stroke="#000000" stroke-linecap="round" stroke-linejoin="round" stroke-opacity="0.3019608" stroke-width="0.05"/>
    <path d="M337.95 100.45 L338.05 99.65 337.7 98.95 337.0 98.75 Q336.6 98.8 336.35 99.15 336.15 99.5 336.2 99.95 L336.6 100.65 337.35 100.85 337.95 100.45" fill="#9e593f" fill-rule="evenodd" stroke="none"/>
    <path d="M337.95 100.45 L338.05 99.65 337.7 98.95 337.0 98.75 Q336.6 98.8 336.35 99.15 336.15 99.5 336.2 99.95 L336.6 100.65 337.35 100.85 337.95 100.45 Z" fill="none" stroke="#000000" stroke-linecap="round" stroke-linejoin="round" stroke-opacity="0.3019608" stroke-width="0.05"/>
    <path d="M333.9 99.25 Q334.25 98.7 334.15 98.0 L333.5 96.85 Q333.0 96.45 332.4 96.5 331.75 96.6 331.4 97.2 330.95 97.75 331.1 98.45 331.2 99.15 331.8 99.6 332.25 100.0 332.9 99.9 L333.9 99.25" fill="#9e593f" fill-rule="evenodd" stroke="none"/>
    <path d="M333.9 99.25 Q334.25 98.7 334.15 98.0 L333.5 96.85 Q333.0 96.45 332.4 96.5 331.75 96.6 331.4 97.2 330.95 97.75 331.1 98.45 331.2 99.15 331.8 99.6 332.25 100.0 332.9 99.9 L333.9 99.25 Z" fill="none" stroke="#000000" stroke-linecap="round" stroke-linejoin="round" stroke-opacity="0.3019608" stroke-width="0.05"/>
    <path d="M329.7 112.1 L329.8 111.3 329.45 110.6 328.75 110.4 Q328.35 110.45 328.1 110.8 327.9 111.15 327.95 111.6 L328.35 112.3 329.1 112.5 329.7 112.1" fill="#9e593f" fill-rule="evenodd" stroke="none"/>
    <path d="M329.7 112.1 L329.8 111.3 329.45 110.6 328.75 110.4 Q328.35 110.45 328.1 110.8 327.9 111.15 327.95 111.6 L328.35 112.3 329.1 112.5 329.7 112.1 Z" fill="none" stroke="#000000" stroke-linecap="round" stroke-linejoin="round" stroke-opacity="0.3019608" stroke-width="0.05"/>
  </g>
</svg>
