<?xml version="1.0" encoding="UTF-8" standalone="no"?>
<svg xmlns:xlink="http://www.w3.org/1999/xlink" height="132.55px" width="256.7px" xmlns="http://www.w3.org/2000/svg">
  <g transform="matrix(1.0, 0.0, 0.0, 1.0, -146.6, -133.7)">
    <path d="M361.95 136.35 L366.85 136.7 368.5 136.6 Q368.55 139.2 365.75 141.8 358.75 138.6 361.95 136.35 M373.6 136.15 L378.9 135.75 Q379.65 135.95 380.1 136.3 380.25 135.65 381.7 135.5 L381.8 135.5 391.35 134.7 391.45 134.9 391.65 134.65 399.15 134.05 399.85 134.2 400.1 134.25 Q403.05 135.25 394.55 140.35 L393.4 138.35 391.65 135.2 Q392.45 137.25 385.9 141.3 382.05 139.0 380.75 137.6 380.55 138.25 379.45 139.1 L376.3 140.85 373.6 136.15 M400.15 141.25 Q397.95 145.8 395.05 150.45 390.8 152.5 390.7 142.75 L400.15 141.25 M393.6 152.75 L387.4 161.35 Q383.35 159.35 384.95 154.3 L393.6 152.75 M377.8 172.65 L372.45 178.2 369.25 177.45 Q367.5 174.05 370.55 170.1 375.9 167.95 377.8 172.65 M367.25 177.0 L355.3 175.05 Q357.65 170.1 362.05 169.6 357.75 169.55 353.75 164.35 L354.4 163.45 Q358.75 157.1 359.85 151.3 L363.8 147.1 Q366.75 151.7 366.7 155.55 366.6 158.8 364.3 161.5 L368.6 166.75 Q365.75 169.15 363.0 169.55 L364.75 169.65 Q368.95 174.7 367.25 177.0 M353.8 174.95 L351.6 174.85 345.2 162.65 Q348.65 163.05 351.65 164.8 351.15 159.1 342.5 157.5 L342.4 157.3 342.5 157.5 341.7 157.35 342.4 157.3 Q347.5 156.9 350.85 155.7 L351.05 145.3 356.6 149.95 Q357.75 156.1 353.95 163.2 L353.5 164.05 352.65 165.4 Q354.0 166.35 355.25 167.55 356.9 171.7 353.8 174.95 M343.65 152.6 L347.5 145.65 347.5 153.3 343.65 152.6 M350.1 140.95 L353.0 135.65 357.9 136.05 Q359.55 136.75 355.65 143.25 L350.1 140.95 M357.55 145.7 L355.3 145.25 359.5 138.9 363.35 145.15 357.55 145.7 M370.9 152.45 L373.5 147.8 376.15 149.45 380.15 151.85 378.0 154.0 385.4 161.0 Q381.35 158.85 376.3 161.5 L376.7 155.75 376.7 155.3 376.3 155.7 371.2 152.65 370.9 152.45 M378.6 147.85 L375.8 145.55 379.65 139.4 Q383.45 140.9 386.1 143.05 389.7 145.9 391.2 149.95 L384.0 152.35 378.6 147.85 M370.05 137.45 L373.9 141.3 368.6 152.85 366.2 147.55 370.05 137.45 M375.35 160.5 L375.35 167.7 370.05 166.3 Q364.1 161.25 369.65 156.25 L375.35 160.5" fill="#98bcab" fill-rule="evenodd" stroke="none"/>
    <path d="M368.5 136.6 L373.6 136.15 376.3 140.85 379.45 139.1 379.65 139.4 375.8 145.55 378.6 147.85 376.15 149.45 373.5 147.8 370.9 152.45 371.05 152.7 366.7 155.55 Q366.75 151.7 363.8 147.1 L359.85 151.3 Q358.75 157.1 354.4 163.45 L353.95 163.2 Q357.75 156.1 356.6 149.95 L351.05 145.3 350.85 155.7 Q347.5 156.9 342.4 157.3 L341.75 156.1 343.65 152.6 347.5 153.3 347.5 145.65 350.1 140.95 355.65 143.25 Q359.55 136.75 357.9 136.05 L361.95 136.35 Q358.75 138.6 365.75 141.8 368.55 139.2 368.5 136.6 M357.55 145.7 L363.35 145.15 359.5 138.9 355.3 145.25 357.55 145.7 M370.05 137.45 L366.2 147.55 368.6 152.85 373.9 141.3 370.05 137.45" fill="#dbe6df" fill-rule="evenodd" stroke="none"/>
    <path d="M378.9 135.75 L381.7 135.5 Q380.25 135.65 380.1 136.3 379.65 135.95 378.9 135.75 M391.35 134.7 L391.65 134.65 391.45 134.9 391.35 134.7 M399.15 134.05 L400.2 133.95 400.1 134.25 399.85 134.2 399.15 134.05 M342.5 157.5 Q351.15 159.1 351.65 164.8 348.65 163.05 345.2 162.65 L343.5 159.4 342.5 157.5 M371.05 152.7 L370.9 152.45 371.2 152.65 371.05 152.7 M379.65 139.4 L379.45 139.1 Q380.55 138.25 380.75 137.6 382.05 139.0 385.9 141.3 392.45 137.25 391.65 135.2 L393.4 138.35 386.1 143.05 Q383.45 140.9 379.65 139.4 M376.3 155.7 L376.7 155.3 376.7 155.75 376.3 155.7 M353.95 163.2 L354.4 163.45 353.5 164.05 353.95 163.2" fill="#b1cdc2" fill-rule="evenodd" stroke="none"/>
    <path d="M400.2 133.95 L403.3 133.7 402.45 135.95 400.15 141.25 390.7 142.75 Q390.8 152.5 395.05 150.45 L393.6 152.75 384.95 154.3 Q383.35 159.35 387.4 161.35 L386.3 162.8 Q383.35 162.1 379.2 164.35 376.7 172.45 379.85 170.4 L377.8 172.65 Q375.9 167.95 370.55 170.1 367.5 174.05 369.25 177.45 L367.25 177.0 Q368.95 174.7 364.75 169.65 L363.0 169.55 Q365.75 169.15 368.6 166.75 L364.3 161.5 Q366.6 158.8 366.7 155.55 L371.05 152.7 371.2 152.65 376.3 155.7 376.7 155.75 376.3 161.5 Q381.35 158.85 385.4 161.0 L378.0 154.0 380.15 151.85 376.15 149.45 378.6 147.85 384.0 152.35 391.2 149.95 Q389.7 145.9 386.1 143.05 L393.4 138.35 394.55 140.35 Q403.05 135.25 400.1 134.25 L400.2 133.95 M355.3 175.05 L353.8 174.95 Q356.9 171.7 355.25 167.55 354.0 166.35 352.65 165.4 L353.5 164.05 354.4 163.45 353.75 164.35 Q357.75 169.55 362.05 169.6 357.65 170.1 355.3 175.05 M375.35 160.5 L369.65 156.25 Q364.1 161.25 370.05 166.3 L375.35 167.7 375.35 160.5" fill="#7da68e" fill-rule="evenodd" stroke="none"/>
    <path d="M351.6 174.85 L347.9 175.9 338.05 158.2 338.4 157.35 341.3 155.3 341.75 156.1 342.4 157.3 341.7 157.35 342.5 157.5 343.5 159.4 345.2 162.65 351.6 174.85 M324.5 165.3 L327.95 163.7 329.95 165.25 335.2 169.35 332.85 160.8 336.05 159.1 336.8 160.95 340.9 171.05 337.95 170.65 336.95 170.75 Q334.5 171.1 332.8 172.8 L324.5 165.3 M328.45 172.05 L330.5 177.25 330.45 178.05 329.3 177.85 326.8 174.05 323.95 169.8 324.0 169.75 328.45 172.05 M335.2 169.35 L336.95 170.75 335.2 169.35" fill="#e1caae" fill-rule="evenodd" stroke="none"/>
    <path d="M347.9 175.9 L346.7 176.25 346.55 176.25 Q345.8 174.3 344.1 172.85 342.6 171.55 340.9 171.05 L336.8 160.95 338.05 158.2 347.9 175.9 M323.95 169.75 L323.8 165.6 324.5 165.3 332.8 172.8 332.3 173.35 331.9 173.85 331.65 174.2 Q330.7 175.6 330.5 177.25 L328.45 172.05 331.9 173.85 328.45 172.05 324.0 169.75 323.95 169.75 M329.95 165.25 L329.7 162.45 332.85 160.8 335.2 169.35 329.95 165.25" fill="#c18e5b" fill-rule="evenodd" stroke="none"/>
    <path d="M346.55 176.25 L346.9 177.3 347.1 178.55 Q347.4 181.35 346.05 183.55 L345.3 184.55 Q343.1 187.1 339.65 187.2 L338.6 187.2 Q335.75 187.0 333.5 185.05 330.8 182.75 330.45 179.25 L330.45 178.85 330.4 179.25 330.25 182.35 Q329.8 184.05 332.2 185.85 333.3 186.65 335.05 187.5 L338.15 188.15 Q341.05 188.5 343.75 188.1 L346.3 183.8 353.95 190.75 351.1 194.05 343.6 189.1 343.55 191.15 343.6 191.15 343.6 191.45 343.55 191.8 343.5 192.5 343.55 191.15 341.3 189.9 340.8 203.2 336.15 201.9 334.7 201.45 334.55 194.7 332.7 193.85 329.75 192.5 327.25 191.35 325.3 198.7 320.45 197.1 328.75 183.65 328.7 183.65 329.8 182.45 321.85 181.0 321.75 176.65 321.75 176.3 322.25 176.4 322.3 176.4 329.3 177.85 330.45 178.05 330.5 177.25 Q330.7 175.6 331.65 174.2 L332.4 175.7 331.3 176.35 331.75 178.6 333.35 177.5 334.65 180.0 337.65 177.85 336.1 175.75 338.25 174.3 336.6 173.3 334.95 174.2 334.25 173.25 331.65 174.2 331.9 173.85 332.3 173.35 332.8 172.8 Q334.5 171.1 336.95 170.75 L337.95 170.65 340.9 171.05 Q342.6 171.55 344.1 172.85 345.8 174.3 346.55 176.25 M346.9 177.3 L346.7 177.4 346.9 177.3 M343.55 177.25 L342.4 175.4 340.25 176.95 341.5 178.8 339.1 180.55 340.4 182.45 342.7 180.55 344.3 182.85 346.2 181.45 344.65 179.0 346.7 177.4 344.8 176.35 343.55 177.25 M330.45 178.05 L330.45 178.1 330.45 178.65 330.45 178.85 330.45 178.65 330.45 178.1 330.45 178.05 M335.3 188.55 L335.25 188.55 335.3 188.6 335.9 190.25 335.85 190.3 336.3 191.3 Q335.95 191.9 335.9 192.55 335.7 193.55 336.3 194.05 336.85 194.55 337.85 194.25 L338.05 194.15 339.6 193.05 Q340.35 192.15 340.55 191.1 340.7 190.1 340.15 189.6 L338.6 189.4 338.1 189.6 338.05 189.6 336.25 188.3 336.05 188.15 335.3 188.55" fill="#aecabd" fill-rule="evenodd" stroke="none"/>
    <path d="M332.4 175.7 L331.65 174.2 334.25 173.25 334.95 174.2 336.6 173.3 338.25 174.3 336.1 175.75 337.65 177.85 334.65 180.0 333.35 177.5 332.4 175.7 333.35 177.5 331.75 178.6 331.3 176.35 332.4 175.7 M334.95 174.2 L336.1 175.75 334.95 174.2 M341.5 178.8 L340.25 176.95 342.4 175.4 343.55 177.25 344.65 179.0 343.55 177.25 344.8 176.35 346.7 177.4 344.65 179.0 346.2 181.45 344.3 182.85 342.7 180.55 340.4 182.45 339.1 180.55 341.5 178.8 342.7 180.55 341.5 178.8" fill="#ff9900" fill-rule="evenodd" stroke="none"/>
    <path d="M151.6 265.5 Q143.65 261.65 148.35 257.1 L319.5 172.0 322.3 176.35 322.25 176.4 321.75 176.3 321.75 176.65 151.6 265.5 M323.95 169.75 L323.95 169.8 323.95 169.75" fill="#926836" fill-rule="evenodd" stroke="none"/>
    <path d="M333.3 204.95 Q331.8 206.05 329.85 206.8 340.0 211.85 340.5 228.6 L327.1 225.3 Q338.35 225.3 323.3 206.0 325.65 204.9 327.4 203.45 L333.3 204.95 M319.5 172.0 L323.95 169.75 323.95 169.8 326.8 174.05 322.3 176.35 319.5 172.0" fill="#84c5f4" fill-rule="evenodd" stroke="none"/>
    <path d="M321.9 182.75 L153.15 266.25 Q150.75 265.5 151.6 265.5 L321.75 176.65 321.85 181.0 321.9 182.75 M322.3 176.4 L322.25 176.4 322.3 176.35 322.3 176.4" fill="#7b552f" fill-rule="evenodd" stroke="none"/>
    <path d="M343.75 191.55 Q348.4 194.8 346.05 199.8 358.25 194.95 368.85 207.15 L368.95 207.3 368.85 207.35 368.85 207.15 358.3 206.75 358.75 206.5 Q351.75 201.05 339.95 207.05 341.1 205.05 341.45 203.4 L342.7 203.75 Q342.8 198.4 343.45 193.15 L343.5 192.5 343.55 191.8 343.75 191.55 M336.15 201.9 Q335.05 203.65 333.3 204.95 L327.4 203.45 Q331.7 199.8 332.7 193.85 L334.55 194.7 334.7 201.45 336.15 201.9 M326.8 174.05 L329.3 177.85 322.3 176.4 322.3 176.35 326.8 174.05" fill="#1071b8" fill-rule="evenodd" stroke="none"/>
    <path d="M346.05 183.55 L346.25 183.75 346.3 183.8 343.75 188.1 Q341.05 188.5 338.15 188.15 L335.05 187.5 Q333.3 186.65 332.2 185.85 329.8 184.05 330.25 182.35 L330.4 179.25 330.45 179.25 Q330.8 182.75 333.5 185.05 335.75 187.0 338.6 187.2 L339.65 187.2 Q343.1 187.1 345.3 184.55 L346.05 183.55 M351.1 194.05 L350.3 194.95 343.6 191.15 343.55 191.15 343.6 189.1 351.1 194.05 M341.45 203.4 L340.8 203.2 341.3 189.9 343.55 191.15 343.5 192.5 343.45 193.15 Q342.8 198.4 342.7 203.75 L341.45 203.4 M329.75 192.5 L327.7 199.45 325.3 198.7 327.25 191.35 329.75 192.5 M328.7 183.65 L321.9 183.05 321.9 182.75 321.85 181.0 329.8 182.45 328.7 183.65" fill="#66997b" fill-rule="evenodd" stroke="none"/>
    <path d="M330.4 179.25 L330.45 178.85 330.45 179.25 330.4 179.25" fill="#8db49f" fill-rule="evenodd" stroke="none"/>
    <path d="M335.25 188.55 L335.3 188.55 336.05 188.15 336.25 188.3 335.9 190.25 335.3 188.6 335.25 188.55 M338.1 189.6 L338.6 189.4 340.15 189.6 Q340.7 190.1 340.55 191.1 340.35 192.15 339.6 193.05 L338.05 194.15 337.85 194.25 Q336.85 194.55 336.3 194.05 335.7 193.55 335.9 192.55 335.95 191.9 336.3 191.3 L336.8 190.65 Q337.35 189.95 338.05 189.65 L338.1 189.6" fill="#c5c5c5" fill-rule="evenodd" stroke="none"/>
    <path d="M335.9 190.25 L336.25 188.3 338.05 189.6 338.1 189.6 338.05 189.65 Q337.35 189.95 336.8 190.65 L336.3 191.3 335.85 190.3 335.9 190.25" fill="#a7a7a7" fill-rule="evenodd" stroke="none"/>
    <path d="M343.6 191.45 L343.75 191.55 343.55 191.8 343.6 191.45" fill="#0c5b85" fill-rule="evenodd" stroke="none"/>
    <path d="M386.3 162.8 L379.85 170.4 Q376.7 172.45 379.2 164.35 383.35 162.1 386.3 162.8" fill="#bacfc2" fill-rule="evenodd" stroke="none"/>
    <path d="M368.85 207.35 Q352.3 211.05 365.9 218.55 L353.5 222.55 Q349.3 211.7 358.3 206.75 L368.85 207.15 368.85 207.35" fill="#0e6796" fill-rule="evenodd" stroke="none"/>
    <path d="M361.95 136.35 L366.85 136.7 368.5 136.6 373.6 136.15 378.9 135.75 381.7 135.5 381.8 135.5 391.35 134.7 391.65 134.65 399.15 134.05 400.2 133.95 403.3 133.7 402.45 135.95 400.15 141.25 Q397.95 145.8 395.05 150.45 L393.6 152.75 387.4 161.35 386.3 162.8 379.85 170.4 377.8 172.65 372.45 178.2 369.25 177.45 367.25 177.0 355.3 175.05 353.8 174.95 351.6 174.85 347.9 175.9 346.7 176.25 346.55 176.25 346.9 177.3 347.1 178.55 Q347.4 181.35 346.05 183.55 L346.25 183.75 M346.3 183.8 L353.95 190.75 351.1 194.05 350.3 194.95 343.6 191.15 343.6 191.45 343.75 191.55 Q348.4 194.8 346.05 199.8 358.25 194.95 368.85 207.15 L368.95 207.3 368.85 207.35 Q352.3 211.05 365.9 218.55 L353.5 222.55 Q349.3 211.7 358.3 206.75 L358.75 206.5 Q351.75 201.05 339.95 207.05 341.1 205.05 341.45 203.4 L340.8 203.2 336.15 201.9 Q335.05 203.65 333.3 204.95 331.8 206.05 329.85 206.8 340.0 211.85 340.5 228.6 L327.1 225.3 Q338.35 225.3 323.3 206.0 325.65 204.9 327.4 203.45 331.7 199.8 332.7 193.85 L329.75 192.5 327.7 199.45 325.3 198.7 320.45 197.1 328.75 183.65 328.7 183.65 321.9 183.05 321.9 182.75 153.15 266.25 Q150.75 265.5 151.6 265.5 143.65 261.65 148.35 257.1 L319.5 172.0 323.95 169.75 323.8 165.6 324.5 165.3 327.95 163.7 329.95 165.25 329.7 162.45 332.85 160.8 336.05 159.1 336.8 160.95 338.05 158.2 338.4 157.35 341.3 155.3 341.75 156.1 343.65 152.6 347.5 145.65 350.1 140.95 353.0 135.65 357.9 136.05 361.95 136.35 M342.4 157.3 L342.5 157.5 343.5 159.4 345.2 162.65 351.6 174.85 M341.75 156.1 L342.4 157.3 M331.65 174.2 L331.9 173.85 328.45 172.05 324.0 169.75 323.95 169.75 323.95 169.8 326.8 174.05 329.3 177.85 330.45 178.05 330.5 177.25 Q330.7 175.6 331.65 174.2 L332.4 175.7 333.35 177.5 334.65 180.0 337.65 177.85 336.1 175.75 334.95 174.2 334.25 173.25 331.65 174.2 M331.9 173.85 L332.3 173.35 332.8 172.8 Q334.5 171.1 336.95 170.75 L335.2 169.35 329.95 165.25 M336.95 170.75 L337.95 170.65 340.9 171.05 336.8 160.95 M334.95 174.2 L336.6 173.3 338.25 174.3 336.1 175.75 M340.9 171.05 Q342.6 171.55 344.1 172.85 345.8 174.3 346.55 176.25 M322.3 176.4 L322.25 176.4 321.75 176.3 321.75 176.65 321.85 181.0 321.9 182.75 M322.3 176.35 L322.3 176.4 329.3 177.85 M322.3 176.35 L319.5 172.0 M346.7 177.4 L346.9 177.3 M343.55 177.25 L342.4 175.4 340.25 176.95 341.5 178.8 342.7 180.55 344.3 182.85 346.2 181.45 344.65 179.0 343.55 177.25 344.8 176.35 346.7 177.4 344.65 179.0 M330.45 179.25 Q330.8 182.75 333.5 185.05 335.75 187.0 338.6 187.2 L339.65 187.2 Q343.1 187.1 345.3 184.55 L346.05 183.55 M341.5 178.8 L339.1 180.55 340.4 182.45 342.7 180.55 M330.45 179.25 L330.45 178.85 330.45 178.65 330.45 178.1 330.45 178.05 M333.35 177.5 L331.75 178.6 331.3 176.35 332.4 175.7 M335.3 188.55 L335.25 188.55 M335.3 188.6 L335.9 190.25 M336.25 188.3 L336.05 188.15 M338.1 189.6 L338.6 189.4 340.15 189.6 Q340.7 190.1 340.55 191.1 340.35 192.15 339.6 193.05 L338.05 194.15 337.85 194.25 Q336.85 194.55 336.3 194.05 335.7 193.55 335.9 192.55 335.95 191.9 336.3 191.3 L335.85 190.3 M338.1 189.6 L338.05 189.6 336.25 188.3 M336.3 191.3 L336.8 190.65 Q337.35 189.95 338.05 189.65 L338.1 189.6 M332.7 193.85 L334.55 194.7 334.7 201.45 336.15 201.9 M343.45 193.15 Q342.8 198.4 342.7 203.75 L341.45 203.4 M343.55 191.8 L343.5 192.5 M343.6 191.45 L343.55 191.8" fill="none" stroke="#000000" stroke-linecap="round" stroke-linejoin="round" stroke-opacity="0.3019608" stroke-width="0.05"/>
    <path d="M335.25 188.55 L335.3 188.6" fill="none" stroke="#000000" stroke-linecap="round" stroke-linejoin="round" stroke-opacity="0.3019608" stroke-width="0.05"/>
  </g>
</svg>
