<?xml version="1.0" encoding="UTF-8" standalone="no"?>
<svg xmlns:xlink="http://www.w3.org/1999/xlink" height="40.55px" width="27.7px" xmlns="http://www.w3.org/2000/svg">
  <g transform="matrix(1.0, 0.0, 0.0, 1.0, 13.8, 20.25)">
    <path d="M0.05 -20.2 L6.45 -13.0 0.05 -11.35 0.05 -20.2 0.0 -20.2 0.0 -20.25 0.05 -20.2 M0.4 -11.9 L5.7 -13.25 0.4 -11.9" fill="url(#gradient0)" fill-rule="evenodd" stroke="none"/>
    <path d="M3.2 -9.75 L5.15 -7.2 7.1 -4.6 0.05 -0.05 0.05 -6.55 0.05 -6.6 3.2 -9.75 M0.3 -0.75 L6.45 -4.7 0.3 -0.75" fill="url(#gradient1)" fill-rule="evenodd" stroke="none"/>
    <path d="M6.45 -13.0 L3.2 -9.75 0.05 -6.6 0.05 -11.3 0.05 -6.6 0.05 -6.55 -3.15 -9.75 -6.35 -13.0 0.0 -11.3 0.05 -11.3 0.05 -11.35 6.45 -13.0" fill="#7096c5" fill-rule="evenodd" stroke="none"/>
    <path d="M5.15 -7.2 L8.0 -8.3 13.9 0.1 5.4 0.6 7.1 -4.6 5.15 -7.2 M6.05 0.1 L12.85 -0.25 6.05 0.1" fill="url(#gradient2)" fill-rule="evenodd" stroke="none"/>
    <path d="M-7.0 -4.6 L0.0 -0.05 0.05 0.0 0.05 -0.05 7.1 -4.6 5.4 0.6 1.45 12.55 0.7 14.75 0.05 16.8 0.05 16.95 -0.65 14.75 -1.35 12.55 -5.3 0.6 -7.0 -4.6 M0.05 0.0 L0.05 16.8 0.05 0.0" fill="#82a4cc" fill-rule="evenodd" stroke="none"/>
    <path d="M6.4 13.15 L1.2 19.95 0.05 20.3 0.0 20.3 -1.15 19.95 -6.3 13.15 -0.65 14.75 0.05 16.95 0.05 16.8 0.7 14.75 6.4 13.15 M0.05 20.3 L0.05 16.95 0.05 20.3" fill="#608abd" fill-rule="evenodd" stroke="none"/>
    <path d="M4.65 9.35 L6.4 13.15 0.7 14.75 1.45 12.55 4.65 9.35 M1.15 14.25 L5.8 12.95 1.15 14.25" fill="url(#gradient3)" fill-rule="evenodd" stroke="none"/>
    <path d="M13.9 0.1 L4.65 9.35 1.45 12.55 5.4 0.6 13.9 0.1 M-4.55 9.35 L-13.8 0.1 -5.3 0.6 -1.35 12.55 -4.55 9.35" fill="#5f83be" fill-rule="evenodd" stroke="none"/>
    <path d="M0.05 -20.2 L0.05 -20.25 0.05 -20.2 0.05 -11.35 0.05 -11.3 0.0 -11.3 -6.35 -13.0 0.0 -20.2 0.05 -20.2 M-0.3 -11.9 L-5.65 -13.25 -0.3 -11.9" fill="url(#gradient4)" fill-rule="evenodd" stroke="none"/>
    <path d="M-5.1 -7.2 L-3.15 -9.75 0.05 -6.55 0.05 -0.05 0.05 0.0 0.0 -0.05 -7.0 -4.6 -5.1 -7.2 M-0.25 -0.75 L-6.35 -4.7 -0.25 -0.75" fill="url(#gradient5)" fill-rule="evenodd" stroke="none"/>
    <path d="M-13.8 0.1 L-7.95 -8.3 -5.1 -7.2 -7.0 -4.6 -5.3 0.6 -13.8 0.1 M-6.0 0.1 L-12.75 -0.25 -6.0 0.1" fill="url(#gradient6)" fill-rule="evenodd" stroke="none"/>
    <path d="M-6.3 13.15 L-4.55 9.35 -1.35 12.55 -0.65 14.75 -6.3 13.15 M-1.1 14.25 L-5.75 12.95 -1.1 14.25" fill="url(#gradient7)" fill-rule="evenodd" stroke="none"/>
    <path d="M0.05 -20.2 L0.05 -20.25 0.05 -20.2 6.45 -13.0 3.2 -9.75 5.15 -7.2 8.0 -8.3 13.9 0.1 4.65 9.35 6.4 13.15 1.2 19.95 0.05 20.3 0.0 20.3 -1.15 19.95 -6.3 13.15 -4.55 9.35 -13.8 0.1 -7.95 -8.3 -5.1 -7.2 -3.15 -9.75 -6.35 -13.0 0.0 -20.2 0.0 -20.25 0.05 -20.2 0.0 -20.2 M0.05 -11.35 L0.05 -11.3 0.05 -6.6 3.2 -9.75 M0.05 -6.55 L0.05 -6.6 M0.05 0.0 L0.05 -0.05 0.05 -6.55 -3.15 -9.75 M5.15 -7.2 L7.1 -4.6 5.4 0.6 1.45 12.55 0.7 14.75 0.05 16.8 0.05 0.0 M0.05 -20.2 L0.05 -11.35 M-0.65 14.75 L0.05 16.95 0.05 16.8 M0.05 16.95 L0.05 20.3 M4.65 9.35 L1.45 12.55 M-5.1 -7.2 L-7.0 -4.6 -5.3 0.6 -1.35 12.55 -0.65 14.75 M-4.55 9.35 L-1.35 12.55" fill="none" stroke="#000000" stroke-linecap="round" stroke-linejoin="round" stroke-opacity="0.2627451" stroke-width="0.05"/>
    <path d="M6.45 -4.7 L0.3 -0.75 M5.7 -13.25 L0.4 -11.9 M5.8 12.95 L1.15 14.25 M12.85 -0.25 L6.05 0.1 M-6.35 -4.7 L-0.25 -0.75 M-5.65 -13.25 L-0.3 -11.9 M-5.75 12.95 L-1.1 14.25 M-12.75 -0.25 L-6.0 0.1" fill="none" stroke="#ffffff" stroke-linecap="round" stroke-linejoin="round" stroke-width="0.05"/>
  </g>
  <defs>
    <radialGradient cx="0" cy="0" gradientTransform="matrix(-0.0102, 0.0, 0.0, 0.0102, 0.4, -11.9)" gradientUnits="userSpaceOnUse" id="gradient0" r="819.2" spreadMethod="pad">
      <stop offset="0.0" stop-color="#9cb7d6"/>
      <stop offset="0.4549019607843137" stop-color="#a3e2fa"/>
    </radialGradient>
    <radialGradient cx="0" cy="0" gradientTransform="matrix(-0.0113, 0.0, 0.0, 0.0113, 3.1, -8.75)" gradientUnits="userSpaceOnUse" id="gradient1" r="819.2" spreadMethod="pad">
      <stop offset="0.0" stop-color="#9cb7d6"/>
      <stop offset="0.4549019607843137" stop-color="#a3e2fa"/>
    </radialGradient>
    <radialGradient cx="0" cy="0" gradientTransform="matrix(-0.0125, 0.0, 0.0, 0.0125, 6.15, -6.6)" gradientUnits="userSpaceOnUse" id="gradient2" r="819.2" spreadMethod="pad">
      <stop offset="0.0" stop-color="#9cb7d6"/>
      <stop offset="0.4549019607843137" stop-color="#a3e2fa"/>
    </radialGradient>
    <radialGradient cx="0" cy="0" gradientTransform="matrix(-0.0054, 0.0, 0.0, 0.0054, 1.95, 12.65)" gradientUnits="userSpaceOnUse" id="gradient3" r="819.2" spreadMethod="pad">
      <stop offset="0.0" stop-color="#9cb7d6"/>
      <stop offset="0.4549019607843137" stop-color="#a3e2fa"/>
    </radialGradient>
    <radialGradient cx="0" cy="0" gradientTransform="matrix(0.0102, 0.0, 0.0, 0.0102, -0.35, -11.9)" gradientUnits="userSpaceOnUse" id="gradient4" r="819.2" spreadMethod="pad">
      <stop offset="0.0" stop-color="#9cb7d6"/>
      <stop offset="0.4549019607843137" stop-color="#a3e2fa"/>
    </radialGradient>
    <radialGradient cx="0" cy="0" gradientTransform="matrix(0.0113, 0.0, 0.0, 0.0113, -3.05, -8.75)" gradientUnits="userSpaceOnUse" id="gradient5" r="819.2" spreadMethod="pad">
      <stop offset="0.0" stop-color="#9cb7d6"/>
      <stop offset="0.4549019607843137" stop-color="#a3e2fa"/>
    </radialGradient>
    <radialGradient cx="0" cy="0" gradientTransform="matrix(0.0125, 0.0, 0.0, 0.0125, -6.1, -6.6)" gradientUnits="userSpaceOnUse" id="gradient6" r="819.2" spreadMethod="pad">
      <stop offset="0.0" stop-color="#9cb7d6"/>
      <stop offset="0.4549019607843137" stop-color="#a3e2fa"/>
    </radialGradient>
    <radialGradient cx="0" cy="0" gradientTransform="matrix(0.0054, 0.0, 0.0, 0.0054, -1.9, 12.65)" gradientUnits="userSpaceOnUse" id="gradient7" r="819.2" spreadMethod="pad">
      <stop offset="0.0" stop-color="#9cb7d6"/>
      <stop offset="0.4549019607843137" stop-color="#a3e2fa"/>
    </radialGradient>
  </defs>
</svg>
