<?xml version="1.0" encoding="UTF-8" standalone="no"?>
<svg xmlns:xlink="http://www.w3.org/1999/xlink" height="127.5px" width="51.25px" xmlns="http://www.w3.org/2000/svg">
  <g transform="matrix(1.0, 0.0, 0.0, 1.0, 25.6, 63.75)">
    <path d="M-1.65 20.65 L-1.65 23.7 -2.1 23.6 Q-2.4 22.85 -2.7 23.1 L-2.95 23.45 Q-3.2 22.8 -3.7 23.0 L-4.15 23.25 -4.7 22.55 -4.35 22.05 -4.7 22.55 Q-4.7 21.5 -5.5 21.45 L-5.5 21.35 -5.5 20.45 -5.55 20.0 -5.5 19.8 -4.3 18.9 -4.1 19.05 -2.85 19.95 -1.8 20.75 -1.65 20.65 M-1.5 17.15 L-1.6 17.95 -1.85 18.35 Q-2.55 18.8 -3.3 17.35 L-3.15 16.6 Q-0.85 8.0 -3.85 -4.0 0.0 7.0 -1.5 16.85 L-1.5 17.15 M-2.1 23.6 L-2.15 22.65 -2.1 23.6 M-5.1 20.35 L-5.5 20.45 -5.1 20.35 M-4.85 21.0 L-5.5 21.35 -4.85 21.0" fill="#55351e" fill-rule="evenodd" stroke="none"/>
    <path d="M-3.15 16.6 L-3.3 17.35 Q-2.55 18.8 -1.85 18.35 L-1.8 19.05 -2.85 19.95 -4.1 19.05 -4.35 17.1 -3.15 16.6 M-3.4 18.3 L-3.65 17.85 -3.4 18.3" fill="#d6b389" fill-rule="evenodd" stroke="none"/>
    <path d="M-1.5 17.15 L-0.75 18.45 -0.8 20.25 -1.65 20.65 -1.8 20.75 -2.85 19.95 -1.8 19.05 -1.85 18.35 -1.6 17.95 -1.5 17.15" fill="#b19247" fill-rule="evenodd" stroke="none"/>
    <path d="M-1.5 17.15 L-1.5 16.85 Q0.0 7.0 -3.85 -4.0 -0.85 8.0 -3.15 16.6" fill="none" stroke="#000000" stroke-linecap="round" stroke-linejoin="round" stroke-opacity="0.4" stroke-width="0.25"/>
    <path d="M-1.5 17.15 L-0.75 18.45 -0.8 20.25 -1.65 20.65 -1.65 23.7 M-2.1 23.6 L-2.05 24.55 M-1.85 18.35 L-1.6 17.95 -1.5 17.15 M-3.15 16.6 L-3.3 17.35 Q-2.55 18.8 -1.85 18.35 M-2.85 19.95 L-1.8 20.75 -1.65 20.65 M-2.7 23.1 L-2.95 23.45 -3.1 24.35 M-2.15 22.65 L-2.1 23.6 M-5.5 20.45 L-6.3 20.5 M-4.1 19.05 L-4.35 17.1 -3.15 16.6 M-5.5 20.45 L-5.1 20.35 M-5.5 21.35 L-4.85 21.0 M-4.1 19.05 L-4.3 18.9 -5.5 19.8 -5.55 20.0 M-5.5 21.35 L-6.35 21.8 M-4.7 22.55 L-5.25 23.1 M-4.15 23.25 L-4.35 23.85 M-4.15 23.25 L-3.7 23.0 M-4.35 22.05 L-4.7 22.55 M-2.85 19.95 L-4.1 19.05" fill="none" stroke="#000000" stroke-linecap="round" stroke-linejoin="round" stroke-opacity="0.4" stroke-width="0.25"/>
    <path d="M-3.65 17.85 L-3.4 18.3" fill="none" stroke="#ffffcc" stroke-linecap="round" stroke-linejoin="round" stroke-width="1.75"/>
    <path d="M0.05 27.15 Q1.25 12.75 -5.75 -4.3 2.15 10.75 2.45 26.65 L2.5 27.1 2.5 28.5 2.2 29.15 Q1.45 30.15 0.0 28.25 L0.05 27.15 M3.05 32.6 L3.8 37.3 3.15 37.45 Q2.55 36.4 2.2 36.95 2.0 37.15 1.95 37.6 1.4 36.65 0.7 37.2 L0.25 37.8 0.2 37.8 -0.8 37.0 Q-1.0 35.45 -2.15 35.7 L-2.15 35.5 -1.35 34.65 -2.15 35.5 -2.4 34.1 -2.5 33.45 -2.5 33.2 -1.0 31.2 -0.75 31.35 1.25 32.15 2.9 32.8 3.05 32.6 M3.15 37.45 L2.8 35.9 3.15 37.45 M-1.85 33.85 L-2.4 34.1 -1.85 33.85 M-0.8 37.0 L-0.35 36.05 -0.8 37.0" fill="#55351e" fill-rule="evenodd" stroke="none"/>
    <path d="M0.05 27.15 L0.0 28.25 Q1.45 30.15 2.2 29.15 L2.45 30.2 1.25 32.15 -0.75 31.35 -1.55 28.5 0.05 27.15 M0.1 29.75 L-0.35 29.2 0.1 29.75" fill="#d6b389" fill-rule="evenodd" stroke="none"/>
    <path d="M2.2 29.15 L2.5 28.5 2.5 27.1 3.8 28.7 4.2 31.55 3.05 32.6 2.9 32.8 1.25 32.15 2.45 30.2 2.2 29.15" fill="#b19247" fill-rule="evenodd" stroke="none"/>
    <path d="M2.5 27.1 L2.45 26.65 Q2.15 10.75 -5.75 -4.3 1.25 12.75 0.05 27.15" fill="none" stroke="#000000" stroke-linecap="round" stroke-linejoin="round" stroke-opacity="0.4" stroke-width="0.25"/>
    <path d="M0.05 27.15 L0.0 28.25 Q1.45 30.15 2.2 29.15 L2.5 28.5 2.5 27.1 3.8 28.7 4.2 31.55 3.05 32.6 3.8 37.3 M3.15 37.45 L3.45 38.9 M1.25 32.15 L2.9 32.8 3.05 32.6 M2.2 36.95 Q2.0 37.15 1.95 37.6 L1.9 39.05 M2.8 35.9 L3.15 37.45 M-0.75 31.35 L-1.0 31.2 -2.5 33.2 -2.5 33.45 M-2.4 34.1 L-1.85 33.85 M-0.75 31.35 L-1.55 28.5 0.05 27.15 M-2.4 34.1 L-3.45 34.65 M-2.15 35.5 L-3.25 36.6 M0.25 37.8 L0.7 37.2 M0.25 37.8 L0.0 38.85 M-0.8 37.0 L-1.4 38.1 M1.25 32.15 L-0.75 31.35 M-0.35 36.05 L-0.8 37.0 M-1.35 34.65 L-2.15 35.5" fill="none" stroke="#000000" stroke-linecap="round" stroke-linejoin="round" stroke-opacity="0.4" stroke-width="0.25"/>
    <path d="M-0.35 29.2 L0.1 29.75" fill="none" stroke="#ffffcc" stroke-linecap="round" stroke-linejoin="round" stroke-width="1.75"/>
    <path d="M16.8 -42.05 Q20.6 -50.05 25.55 -57.8 25.35 -44.2 23.5 -36.5 L22.1 -31.8 Q19.0 -23.05 12.7 -16.25 L12.0 -16.0 Q25.6 -47.75 16.8 -42.05 M-4.55 -19.9 L-6.25 -22.45 -6.35 -23.45 Q-7.15 -30.35 -5.65 -37.15 L-1.85 -36.8 Q-3.35 -30.2 -4.55 -19.9 M-4.85 -40.2 L-4.8 -40.4 -3.15 -45.05 -3.0 -45.35 0.05 -43.35 -1.35 -38.85 -4.85 -40.2 M-0.75 -50.0 Q2.4 -55.95 7.95 -63.65 6.2 -56.0 5.45 -48.6 3.35 -49.4 1.55 -46.5 L-0.75 -50.0" fill="#c1c29c" fill-rule="evenodd" stroke="none"/>
    <path d="M12.0 -16.0 L3.95 -13.3 3.15 -13.3 -0.5 -14.35 -1.2 -14.85 -4.55 -19.9 Q-3.35 -30.2 -1.85 -36.8 L-1.35 -38.85 0.05 -43.35 Q0.75 -45.3 1.55 -46.5 3.35 -49.4 5.45 -48.6 4.25 -37.3 5.35 -26.75 L5.4 -26.4 Q12.2 -31.8 15.8 -39.9 L16.8 -42.05 Q25.6 -47.75 12.0 -16.0 M10.25 -19.8 L11.2 -21.6 6.9 -20.25 7.05 -19.25 10.25 -19.8 M0.95 -22.2 L-1.35 -24.55 -2.1 -25.1 -1.95 -23.2 0.15 -21.2 0.95 -22.2" fill="#888c66" fill-rule="evenodd" stroke="none"/>
    <path d="M-5.65 -37.15 L-4.85 -40.2 -1.35 -38.85 -1.85 -36.8 -5.65 -37.15 M-3.0 -45.35 L-0.75 -50.0 1.55 -46.5 Q0.75 -45.3 0.05 -43.35 L-3.0 -45.35" fill="#f4ecd2" fill-rule="evenodd" stroke="none"/>
    <path d="M-24.6 63.45 Q-25.15 63.1 -25.5 62.1 L-8.85 10.2 -7.9 11.95 -12.1 23.6 -7.9 11.95 -7.15 13.4 -24.6 63.45 M3.15 -13.3 Q1.7 -13.35 0.5 -13.85 L-0.5 -14.35 3.15 -13.3 M-21.55 52.9 L-18.45 43.85 -21.55 52.9 M-14.9 33.75 L-14.3 31.7 -14.9 33.75" fill="#996600" fill-rule="evenodd" stroke="none"/>
    <path d="M-2.7 6.0 L-22.95 63.35 -24.6 63.45 -7.15 13.4 -7.9 11.95 -8.85 10.2 -7.05 4.65 -6.2 5.35 -4.8 5.95 -3.5 6.05 -2.7 6.0 M-7.3 10.25 L-7.9 11.95 -7.3 10.25" fill="#724701" fill-rule="evenodd" stroke="none"/>
    <path d="M-7.05 4.65 L-7.95 3.65 -6.55 -2.8 Q-7.2 0.85 -5.0 4.15 L-6.2 5.35 -7.05 4.65 M-3.65 -11.8 L-1.85 -15.45 -1.2 -14.85 -0.5 -14.35 0.5 -13.85 Q2.95 -10.1 -0.35 -4.4 L-0.55 -4.75 Q-4.05 -8.15 -3.65 -11.8" fill="#d2c520" fill-rule="evenodd" stroke="none"/>
    <path d="M-6.55 -2.8 L-6.45 -3.05 Q-5.25 -8.1 -3.65 -11.8 -4.05 -8.15 -0.55 -4.75 L-0.35 -4.4 Q-0.75 2.05 -5.0 4.15 -7.2 0.85 -6.55 -2.8" fill="#e1d53c" fill-rule="evenodd" stroke="none"/>
    <path d="M1.15 0.4 L1.1 0.65 -1.3 5.6 -2.7 6.0 -3.5 6.05 -5.0 4.15 Q-0.75 2.05 -0.35 -4.4 1.55 -1.7 1.15 0.4" fill="#9f8d28" fill-rule="evenodd" stroke="none"/>
    <path d="M3.95 -13.3 L5.05 -13.4 Q3.95 -6.25 1.15 0.4 1.55 -1.7 -0.35 -4.4 2.95 -10.1 0.5 -13.85 1.7 -13.35 3.15 -13.3 L3.95 -13.3 M-5.0 4.15 L-3.5 6.05 -4.8 5.95 -6.2 5.35 -5.0 4.15" fill="#8f8025" fill-rule="evenodd" stroke="none"/>
    <path d="M16.8 -42.05 Q20.6 -50.05 25.55 -57.8 25.35 -44.2 23.5 -36.5 L22.1 -31.8 Q19.0 -23.05 12.7 -16.25 L12.0 -16.0 3.95 -13.3 5.05 -13.4 Q3.95 -6.25 1.15 0.4 L1.1 0.65 -1.3 5.6 -2.7 6.0 -22.95 63.35 -24.6 63.45 Q-25.15 63.1 -25.5 62.1 L-8.85 10.2 -7.05 4.65 -7.95 3.65 -6.55 -2.8 -6.45 -3.05 Q-5.25 -8.1 -3.65 -11.8 L-1.85 -15.45 -1.2 -14.85 -4.55 -19.9 -6.25 -22.45 -6.35 -23.45 Q-7.15 -30.35 -5.65 -37.15 L-4.85 -40.2 -4.8 -40.4 -3.15 -45.05 -3.0 -45.35 -0.75 -50.0 Q2.4 -55.95 7.95 -63.65 6.2 -56.0 5.45 -48.6 4.25 -37.3 5.35 -26.75 L5.4 -26.4 Q12.2 -31.8 15.8 -39.9 L16.8 -42.05 M10.25 -19.8 L7.05 -19.25 6.9 -20.25 11.2 -21.6 10.25 -19.8 M3.15 -13.3 L3.95 -13.3 M0.95 -22.2 L-1.35 -24.55 -2.1 -25.1 -1.95 -23.2 0.15 -21.2 0.95 -22.2 M3.15 -13.3 Q1.7 -13.35 0.5 -13.85 L-0.5 -14.35 3.15 -13.3 M-0.35 -4.4 Q1.55 -1.7 1.15 0.4 M-1.2 -14.85 L-0.5 -14.35 M-3.65 -11.8 Q-4.05 -8.15 -0.55 -4.75 L-0.35 -4.4 M-5.0 4.15 L-3.5 6.05 -2.7 6.0 M-6.2 5.35 L-4.8 5.95 -3.5 6.05 M-7.05 4.65 L-6.2 5.35 M-5.0 4.15 Q-7.2 0.85 -6.55 -2.8" fill="none" stroke="#3b3625" stroke-linecap="round" stroke-linejoin="round" stroke-opacity="0.72156864" stroke-width="0.25"/>
    <path d="M-7.9 11.95 L-7.3 10.25 M-7.9 11.95 L-12.1 23.6 M-14.3 31.7 L-14.9 33.75 M-18.45 43.85 L-21.55 52.9" fill="none" stroke="#b68c49" stroke-linecap="round" stroke-linejoin="round" stroke-width="0.25"/>
  </g>
</svg>
