<?xml version="1.0" encoding="UTF-8" standalone="no"?>
<svg xmlns:xlink="http://www.w3.org/1999/xlink" height="77.75px" width="81.9px" xmlns="http://www.w3.org/2000/svg">
  <g transform="matrix(1.0, 0.0, 0.0, 1.0, -234.5, -161.1)">
    <path d="M304.2 168.4 L311.2 165.1 316.4 173.35 313.2 178.85 310.65 170.75 304.2 168.4 M248.7 223.25 L246.2 223.0 260.0 208.8 260.85 211.1 248.7 223.25 M235.65 236.3 L234.5 235.0 242.15 227.15 242.45 229.5 235.65 236.3 M293.9 178.05 L276.95 195.0 276.85 194.95 274.1 194.35 288.35 179.75 292.0 177.85 293.9 178.05 M270.2 198.35 L271.4 200.55 266.2 205.75 263.1 205.65 270.2 198.35" fill="#a7b672" fill-rule="evenodd" stroke="none"/>
    <path d="M304.2 168.4 L310.65 170.75 313.2 178.85 307.75 188.2 307.45 187.95 307.35 187.85 305.7 176.25 305.45 174.25 299.3 170.7 304.2 168.4 M301.9 183.85 L300.3 182.65 299.85 177.55 302.6 177.6 301.9 183.85 M296.9 182.55 Q287.6 190.15 277.85 199.05 L276.85 194.95 276.95 195.0 293.9 178.05 295.7 178.2 296.9 182.55 M274.1 202.5 L267.95 208.25 266.65 205.75 266.2 205.75 271.4 200.55 272.25 202.05 273.5 201.55 274.1 202.5 M262.95 213.15 Q256.6 219.3 250.1 226.0 L249.5 223.3 248.7 223.25 260.85 211.1 261.3 212.35 262.5 211.7 262.95 213.15 M308.35 176.2 L305.7 176.25 308.35 176.2 M249.95 223.35 L249.5 223.3 249.4 222.95 249.5 223.3 249.95 223.35 M244.65 231.65 L237.9 238.85 235.65 236.3 242.45 229.5 242.65 231.15 244.35 230.0 244.65 231.65" fill="#7eaf61" fill-rule="evenodd" stroke="none"/>
    <path d="M307.35 187.85 L301.9 183.85 302.6 177.6 299.85 177.55 300.3 182.65 298.45 181.3 296.9 182.55 295.7 178.2 293.9 178.05 292.0 177.85 288.35 179.75 295.3 172.6 299.3 170.7 305.45 174.25 305.7 176.25 307.35 187.85 M277.85 199.05 L274.1 202.5 273.5 201.55 272.25 202.05 271.4 200.55 270.2 198.35 274.1 194.35 276.85 194.95 277.85 199.05 M267.95 208.25 L262.95 213.15 262.5 211.7 261.3 212.35 260.85 211.1 260.0 208.8 263.1 205.65 266.2 205.75 266.65 205.75 267.95 208.25 M246.2 223.0 L248.7 223.25 249.5 223.3 250.1 226.0 244.65 231.65 244.35 230.0 242.65 231.15 242.45 229.5 242.15 227.15 246.2 223.0 M305.7 176.25 L299.4 176.4 297.8 181.5 298.45 181.3 297.8 181.5 299.4 176.4 305.7 176.25" fill="#649148" fill-rule="evenodd" stroke="none"/>
    <path d="M313.2 178.85 L316.4 173.35 311.2 165.1 304.2 168.4 299.3 170.7 295.3 172.6 288.35 179.75 274.1 194.35 270.2 198.35 263.1 205.65 260.0 208.8 246.2 223.0 242.15 227.15 234.5 235.0 235.65 236.3 237.9 238.85 244.65 231.65 250.1 226.0 Q256.6 219.3 262.95 213.15 L267.95 208.25 274.1 202.5 277.85 199.05 Q287.6 190.15 296.9 182.55 L298.45 181.3 297.8 181.5 299.4 176.4 305.7 176.25 308.35 176.2 M313.2 178.85 L307.75 188.2 307.45 187.95 M307.35 187.85 L301.9 183.85 300.3 182.65 298.45 181.3" fill="none" stroke="#000000" stroke-linecap="round" stroke-linejoin="round" stroke-opacity="0.3019608" stroke-width="0.05"/>
    <path d="M250.1 226.0 L250.35 227.2 M249.4 222.95 L249.5 223.3 249.95 223.35 M246.2 223.0 L248.7 223.25 249.5 223.3 250.1 226.0 M246.2 223.0 L245.75 222.95" fill="none" stroke="#000000" stroke-linecap="round" stroke-linejoin="round" stroke-opacity="0.3019608" stroke-width="0.05"/>
    <path d="M253.4 225.3 Q252.55 225.95 251.8 226.9 L251.7 227.05 Q250.95 228.25 249.65 229.1 250.0 230.25 251.05 231.1 249.7 230.2 248.6 230.35 L247.25 228.95 Q249.25 226.8 247.85 224.45 245.7 223.35 243.85 225.05 L242.05 224.6 242.35 223.1 241.95 222.4 244.2 222.75 247.4 222.75 247.35 221.95 247.45 221.8 248.6 219.4 250.2 225.65 250.25 225.65 253.4 225.3" fill="#669157" fill-rule="evenodd" stroke="none"/>
    <path d="M248.6 219.4 L248.7 219.05 249.0 217.3 Q248.9 219.9 250.05 222.85 L251.2 225.05 Q253.2 224.95 255.05 224.2 254.15 224.65 253.4 225.3 L250.25 225.65 250.2 225.65 248.6 219.4 M241.95 222.4 L239.9 220.35 Q241.8 221.35 243.65 221.85 L247.35 221.95 247.4 222.75 244.2 222.75 241.95 222.4" fill="#a7b672" fill-rule="evenodd" stroke="none"/>
    <path d="M248.7 219.05 L249.0 217.3 Q248.9 219.9 250.05 222.85 L251.2 225.05 Q253.2 224.95 255.05 224.2 254.15 224.65 253.4 225.3 252.55 225.95 251.8 226.9 L251.7 227.05 Q250.95 228.25 249.65 229.1 250.0 230.25 251.05 231.1 249.7 230.2 248.6 230.35 L247.25 228.95 Q249.25 226.8 247.85 224.45 245.7 223.35 243.85 225.05 L242.05 224.6 242.35 223.1 241.95 222.4 239.9 220.35 Q241.8 221.35 243.65 221.85 L247.35 221.95" fill="none" stroke="#000000" stroke-linecap="round" stroke-linejoin="round" stroke-opacity="0.3019608" stroke-width="0.05"/>
    <path d="M270.8 207.85 L269.45 209.25 269.4 209.4 Q268.6 210.6 267.3 211.45 L266.85 212.7 266.25 212.75 264.95 211.3 Q266.9 209.15 265.55 206.8 263.35 205.7 261.55 207.4 L259.7 206.95 260.0 205.45 259.8 205.1 265.2 205.3 265.25 203.95 265.4 203.7 266.15 202.1 268.2 208.35 270.8 207.85" fill="#669157" fill-rule="evenodd" stroke="none"/>
    <path d="M266.15 202.1 L266.2 201.95 266.65 199.65 Q266.6 202.25 267.7 205.2 L268.9 207.4 Q270.9 207.3 272.7 206.55 271.8 207.0 270.95 207.75 L270.8 207.85 268.2 208.35 266.15 202.1 M267.3 211.45 Q267.7 212.6 268.7 213.45 267.7 212.8 266.85 212.7 L267.3 211.45 M259.8 205.1 Q258.9 203.6 257.55 202.7 259.45 203.7 261.35 204.2 L265.0 204.3 265.25 203.95 265.2 205.3 259.8 205.1" fill="#a7b672" fill-rule="evenodd" stroke="none"/>
    <path d="M266.2 201.95 L266.65 199.65 Q266.6 202.25 267.7 205.2 L268.9 207.4 Q270.9 207.3 272.7 206.55 271.8 207.0 270.95 207.75 M270.8 207.85 L269.45 209.25 269.4 209.4 Q268.6 210.6 267.3 211.45 267.7 212.6 268.7 213.45 267.7 212.8 266.85 212.7 L266.25 212.75 264.95 211.3 Q266.9 209.15 265.55 206.8 263.35 205.7 261.55 207.4 L259.7 206.95 260.0 205.45 259.8 205.1 Q258.9 203.6 257.55 202.7 259.45 203.7 261.35 204.2 L265.0 204.3 265.25 203.95" fill="none" stroke="#000000" stroke-linecap="round" stroke-linejoin="round" stroke-opacity="0.3019608" stroke-width="0.05"/>
    <path d="M281.15 196.95 L279.65 198.5 279.55 198.6 Q278.8 199.75 277.7 200.55 L277.5 200.65 276.85 201.9 276.4 201.95 275.1 200.5 Q277.05 198.35 275.7 196.0 273.5 194.9 271.7 196.6 L269.85 196.15 270.2 194.65 269.55 193.65 272.35 194.45 275.45 194.2 275.2 193.5 275.2 193.55 275.2 193.5 Q276.7 191.1 276.85 188.85 276.75 190.8 277.35 192.9 L277.75 197.35 281.15 196.95" fill="#669157" fill-rule="evenodd" stroke="none"/>
    <path d="M277.35 192.9 L277.85 194.4 279.05 196.6 Q281.05 196.5 282.9 195.75 281.95 196.2 281.15 196.95 L277.75 197.35 277.35 192.9 M277.5 200.65 Q277.85 201.8 278.85 202.7 277.75 201.95 276.85 201.9 L277.5 200.65 M269.55 193.65 L269.5 193.6 267.7 191.9 Q269.6 192.9 271.5 193.4 L275.2 193.55 275.2 193.5 275.45 194.2 272.35 194.45 269.55 193.65" fill="#a7b672" fill-rule="evenodd" stroke="none"/>
    <path d="M277.35 192.9 L277.85 194.4 279.05 196.6 Q281.05 196.5 282.9 195.75 281.95 196.2 281.15 196.95 L279.65 198.5 279.55 198.6 Q278.8 199.75 277.7 200.55 L277.5 200.65 Q277.85 201.8 278.85 202.7 277.75 201.95 276.85 201.9 L276.4 201.95 275.1 200.5 Q277.05 198.35 275.7 196.0 273.5 194.9 271.7 196.6 L269.85 196.15 270.2 194.65 269.55 193.65 M269.5 193.6 L267.7 191.9 Q269.6 192.9 271.5 193.4 L275.2 193.55 275.2 193.5 Q276.7 191.1 276.85 188.85 276.75 190.8 277.35 192.9" fill="none" stroke="#000000" stroke-linecap="round" stroke-linejoin="round" stroke-opacity="0.3019608" stroke-width="0.05"/>
    <path d="M289.95 177.95 L292.55 171.9 Q290.4 169.8 288.5 168.8 L293.1 169.95 Q293.15 169.05 294.85 167.45 296.55 165.8 297.2 166.4 L298.4 161.1 299.65 166.4 Q301.4 165.35 303.8 166.35 305.45 167.5 305.6 169.7 309.8 169.3 313.5 167.7 309.75 169.4 307.2 172.7 308.65 173.95 309.5 178.15 310.25 182.15 309.6 183.5 310.35 185.9 311.8 186.45 L308.25 186.25 305.6 191.7 307.25 196.1 311.0 194.85 307.8 197.6 308.4 199.25 Q311.1 200.65 312.85 198.7 L313.25 197.3 311.6 197.25 Q312.65 196.35 313.75 195.5 L314.55 194.25 Q313.6 196.6 313.95 199.1 L310.55 200.55 Q308.2 200.65 306.1 199.95 L302.55 190.95 302.6 191.0 304.3 189.5 306.7 183.25 306.5 179.95 306.45 179.95 306.5 179.9 306.85 178.9 303.2 171.3 298.95 169.9 299.0 169.85 297.7 168.75 296.8 169.55 297.35 170.1 294.05 171.75 293.1 175.3 289.95 177.95" fill="#669157" fill-rule="evenodd" stroke="none"/>
    <path d="M313.95 199.1 L314.1 200.0 Q310.4 201.55 306.55 201.1 L306.1 199.95 Q308.2 200.65 310.55 200.55 L313.95 199.1 M302.55 190.95 Q304.6 186.0 305.0 180.5 304.95 175.2 300.75 172.8 L299.2 172.2 Q296.4 171.9 294.6 173.45 L293.95 174.6 293.1 175.3 294.05 171.75 297.35 170.1 296.8 169.55 297.7 168.75 299.0 169.85 298.95 169.9 303.2 171.3 306.85 178.9 306.5 179.9 306.45 179.95 306.5 179.95 306.7 183.25 304.3 189.5 302.6 191.0 302.55 190.95" fill="#547847" fill-rule="evenodd" stroke="none"/>
    <path d="M289.95 177.95 L292.55 171.9 Q290.4 169.8 288.5 168.8 L293.1 169.95 Q293.15 169.05 294.85 167.45 296.55 165.8 297.2 166.4 L298.4 161.1 299.65 166.4 Q301.4 165.35 303.8 166.35 305.45 167.5 305.6 169.7 309.8 169.3 313.5 167.7 309.75 169.4 307.2 172.7 308.65 173.95 309.5 178.15 310.25 182.15 309.6 183.5 310.35 185.9 311.8 186.45 L308.25 186.25 305.6 191.7 307.25 196.1 311.0 194.85 307.8 197.6 308.4 199.25 Q311.1 200.65 312.85 198.7 L313.25 197.3 311.6 197.25 Q312.65 196.35 313.75 195.5 L314.55 194.25" fill="none" stroke="#000000" stroke-linecap="round" stroke-linejoin="round" stroke-opacity="0.3019608" stroke-width="0.05"/>
    <path d="M314.55 194.25 Q313.6 196.6 313.95 199.1 L314.1 200.0 Q310.4 201.55 306.55 201.1 L306.1 199.95 302.55 190.95 Q304.6 186.0 305.0 180.5 304.95 175.2 300.75 172.8 L299.2 172.2 Q296.4 171.9 294.6 173.45 L293.95 174.6 293.1 175.3 289.95 177.95" fill="none" stroke="#000000" stroke-linecap="round" stroke-linejoin="round" stroke-opacity="0.3019608" stroke-width="0.05"/>
  </g>
</svg>
