<?xml version="1.0" encoding="UTF-8" standalone="no"?>
<svg xmlns:xlink="http://www.w3.org/1999/xlink" height="112.45px" width="94.9px" xmlns="http://www.w3.org/2000/svg">
  <g transform="matrix(1.0, 0.0, 0.0, 1.0, -228.0, -143.75)">
    <path d="M265.65 204.7 L279.35 190.0 Q298.15 179.65 316.95 177.35 320.05 167.45 317.2 157.5 315.9 161.2 313.1 163.35 L311.35 161.55 Q314.95 157.9 315.7 153.35 L315.7 153.3 315.75 153.1 Q317.95 146.4 321.8 143.75 318.6 149.8 319.05 153.65 L319.15 154.25 321.3 159.35 Q322.4 169.55 319.6 178.95 299.1 182.4 280.55 192.0 L269.9 206.45 Q268.75 203.05 265.65 204.7 M228.0 250.55 L228.0 250.5 231.85 245.45 Q236.75 244.55 240.35 246.7 L236.8 251.5 233.35 249.25 228.0 250.55 M241.65 232.85 L247.95 225.15 Q251.9 224.85 254.2 227.85 L247.8 236.55 Q245.95 232.25 241.65 232.85 M317.2 157.5 L317.45 157.15 317.2 157.5 M316.95 177.35 L317.0 177.8 316.95 177.35 M315.7 153.35 L315.75 153.1 315.7 153.35" fill="#a5932e" fill-rule="evenodd" stroke="none"/>
    <path d="M260.25 210.75 L265.65 204.7 Q268.75 203.05 269.9 206.45 L270.3 208.2 266.25 213.55 265.6 212.35 Q264.0 210.15 260.25 210.75" fill="#e28258" fill-rule="evenodd" stroke="none"/>
    <path d="M257.05 214.4 L260.25 210.75 Q264.0 210.15 265.6 212.35 L266.25 213.55 261.35 220.2 261.0 218.6 Q259.95 214.5 257.05 214.4 M246.95 241.85 L242.85 248.7 Q241.7 247.45 240.35 246.7 236.75 244.55 231.85 245.45 L239.85 235.15 Q243.55 236.15 245.7 239.45 L246.95 241.85" fill="#b34b20" fill-rule="evenodd" stroke="none"/>
    <path d="M321.3 159.35 Q324.55 169.45 321.1 180.55 301.7 184.0 282.35 193.5 276.1 200.75 270.3 208.2 L269.9 206.45 280.55 192.0 Q299.1 182.4 319.6 178.95 322.4 169.55 321.3 159.35 M255.05 229.25 L248.6 239.15 247.8 236.55 254.2 227.85 255.05 229.25 M242.85 248.7 L239.4 254.75 Q235.65 256.7 231.4 256.05 228.75 254.35 228.0 250.55 L233.35 249.25 236.8 251.5 240.35 246.7 Q241.7 247.45 242.85 248.7" fill="#8a7b26" fill-rule="evenodd" stroke="none"/>
    <path d="M248.6 239.15 L246.95 241.85 245.7 239.45 Q243.55 236.15 239.85 235.15 L241.65 232.85 Q245.95 232.25 247.8 236.55 L248.6 239.15" fill="#c55423" fill-rule="evenodd" stroke="none"/>
    <path d="M257.3 225.95 L255.05 229.25 254.2 227.85 Q251.9 224.85 247.95 225.15 L251.3 221.15 Q255.0 221.15 256.7 224.45 L257.3 225.95" fill="#de7041" fill-rule="evenodd" stroke="none"/>
    <path d="M261.35 220.2 L257.3 225.95 256.7 224.45 Q255.0 221.15 251.3 221.15 L257.05 214.4 Q259.95 214.5 261.0 218.6 L261.35 220.2" fill="#da5f29" fill-rule="evenodd" stroke="none"/>
    <path d="M257.05 214.4 L260.25 210.75 265.65 204.7 279.35 190.0 Q298.15 179.65 316.95 177.35 320.05 167.45 317.2 157.5 315.9 161.2 313.1 163.35 L311.35 161.55 Q314.95 157.9 315.7 153.35 L315.7 153.3 315.75 153.1 Q317.95 146.4 321.8 143.75 318.6 149.8 319.05 153.65 L319.15 154.25 321.3 159.35 Q324.55 169.45 321.1 180.55 301.7 184.0 282.35 193.5 276.1 200.75 270.3 208.2 L266.25 213.55 261.35 220.2 257.3 225.95 255.05 229.25 248.6 239.15 246.95 241.85 242.85 248.7 239.4 254.75 Q235.65 256.7 231.4 256.05 228.75 254.35 228.0 250.55 L228.0 250.5 231.85 245.45 239.85 235.15 241.65 232.85 247.95 225.15 251.3 221.15 257.05 214.4 Q259.95 214.5 261.0 218.6 L261.35 220.2 M247.95 225.15 Q251.9 224.85 254.2 227.85 L255.05 229.25 M251.3 221.15 Q255.0 221.15 256.7 224.45 L257.3 225.95 M260.25 210.75 Q264.0 210.15 265.6 212.35 L266.25 213.55 M269.9 206.45 L270.3 208.2 M265.65 204.7 Q268.75 203.05 269.9 206.45 M315.75 153.1 L315.7 153.35 M317.0 177.8 L316.95 177.35 M317.45 157.15 L317.2 157.5 M247.8 236.55 L248.6 239.15 M239.85 235.15 Q243.55 236.15 245.7 239.45 L246.95 241.85 M240.35 246.7 Q236.75 244.55 231.85 245.45 M240.35 246.7 Q241.7 247.45 242.85 248.7 M241.65 232.85 Q245.95 232.25 247.8 236.55" fill="none" stroke="#000000" stroke-linecap="round" stroke-linejoin="round" stroke-opacity="0.3019608" stroke-width="0.05"/>
    <path d="M301.75 157.8 L302.95 158.2 304.35 157.9 Q303.1 159.55 303.1 162.05 304.6 165.9 308.95 166.5 312.55 166.4 314.35 163.0 315.1 160.5 313.75 158.8 L315.45 158.85 316.45 158.05 318.25 168.25 309.7 176.05 298.5 174.2 295.7 164.55 301.75 157.8 M316.25 165.1 Q313.6 169.45 309.1 171.9 304.5 173.2 299.75 172.5 303.1 174.75 309.5 174.5 315.55 170.6 316.25 165.1" fill="#76b359" fill-rule="evenodd" stroke="none"/>
    <path d="M316.25 165.1 Q315.55 170.6 309.5 174.5 303.1 174.75 299.75 172.5 304.5 173.2 309.1 171.9 313.6 169.45 316.25 165.1" fill="#517e3a" fill-rule="evenodd" stroke="none"/>
    <path d="M301.75 157.8 L303.4 155.95 316.15 156.45 316.45 158.05 315.45 158.85 313.75 158.8 Q315.1 160.5 314.35 163.0 312.55 166.4 308.95 166.5 304.6 165.9 303.1 162.05 303.1 159.55 304.35 157.9 L302.95 158.2 301.75 157.8" fill="#d2e7c9" fill-rule="evenodd" stroke="none"/>
    <path d="M316.45 158.05 L316.15 156.45 303.4 155.95 301.75 157.8 295.7 164.55 298.5 174.2 309.7 176.05 318.25 168.25 316.45 158.05 Z" fill="none" stroke="#000000" stroke-linecap="round" stroke-linejoin="round" stroke-opacity="0.3019608" stroke-width="0.05"/>
  </g>
</svg>
