<?xml version="1.0" encoding="UTF-8" standalone="no"?>
<svg xmlns:xlink="http://www.w3.org/1999/xlink" height="85.35px" width="45.95px" xmlns="http://www.w3.org/2000/svg">
  <g transform="matrix(1.0, 0.0, 0.0, 1.0, 22.95, 42.65)">
    <path d="M14.05 -22.45 Q14.9 -19.55 14.45 -17.55 L14.45 -17.15 Q14.4 -15.7 11.9 -14.3 L9.7 -13.3 6.85 -12.9 3.55 -12.6 Q-1.55 -12.35 -6.9 -12.85 L-6.95 -12.85 Q-8.35 -14.6 -8.45 -16.3 -8.55 -17.6 -7.85 -18.9 L-7.3 -18.85 Q-0.2 -18.3 6.45 -18.9 L9.3 -19.25 11.5 -20.1 12.0 -20.3 Q14.0 -21.35 14.05 -22.45" fill="#a7d0f5" fill-rule="evenodd" stroke="none"/>
    <path d="M-0.1 -21.05 L4.3 -21.35 Q7.9 -21.95 8.85 -22.85 L8.9 -22.85 9.05 -26.2 9.3 -26.1 11.9 -24.9 Q13.8 -23.8 14.05 -22.8 L14.05 -22.45 Q14.0 -21.35 12.0 -20.3 L11.5 -20.1 9.3 -19.25 6.45 -18.9 Q-0.2 -18.3 -7.3 -18.85 L-7.85 -18.9 Q-8.55 -17.6 -8.45 -16.3 -8.35 -14.6 -6.95 -12.85 L-7.15 -12.85 -10.6 -13.3 -11.8 -13.9 -12.8 -14.5 Q-14.75 -15.85 -14.95 -17.15 L-14.95 -17.35 Q-15.75 -19.8 -15.3 -22.25 L-15.35 -22.85 Q-15.1 -24.5 -11.15 -26.05 L-11.0 -22.95 -10.95 -22.95 Q-9.0 -21.9 -4.15 -21.3 L-0.1 -21.05 M11.9 -14.3 Q10.1 -11.5 11.2 -6.7 20.2 5.4 22.65 20.15 23.65 26.2 21.55 30.8 L8.75 30.2 Q7.65 27.5 7.05 23.05 9.05 25.9 12.75 25.7 L14.45 25.6 Q16.55 22.55 16.65 18.75 16.7 16.85 15.95 15.15 L15.3 15.4 Q14.4 12.3 11.55 12.35 9.05 11.85 6.9 12.9 L6.35 14.05 6.25 9.2 6.25 9.0 6.25 8.8 Q6.25 6.05 4.7 3.75 L4.45 3.05 2.1 -0.85 Q-0.3 -4.6 3.55 -12.6 L6.85 -12.9 9.7 -13.3 11.9 -14.3 M8.85 -4.45 Q8.4 -5.55 7.15 -5.95 L6.7 -5.7 5.2 -5.7 3.9 -4.7 Q2.85 -1.4 5.6 0.75 L8.2 0.75 9.55 -0.45 8.85 -4.45 M13.25 31.15 Q18.6 32.0 18.35 32.7 17.85 33.9 14.6 36.3 12.6 37.75 8.1 38.6 -7.2 33.4 13.25 31.15 M6.05 30.45 L7.2 30.3 11.6 30.9 6.05 30.45 M-15.3 -22.25 Q-15.0 -21.25 -13.05 -20.15 L-12.2 -19.75 -11.0 -19.25 -7.85 -18.9 -11.0 -19.25 -12.2 -19.75 -13.05 -20.15 Q-15.0 -21.25 -15.3 -22.25" fill="#dbedfb" fill-rule="evenodd" stroke="none"/>
    <path d="M-6.95 -12.85 L-6.9 -12.85 Q-1.55 -12.35 3.55 -12.6 -0.3 -4.6 2.1 -0.85 L4.45 3.05 4.7 3.75 4.25 3.15 -11.25 2.5 Q-9.25 -1.55 -6.55 -5.3 -5.65 -9.05 -7.15 -12.85 L-6.95 -12.85 M6.25 9.2 L6.35 14.05 Q5.05 17.9 6.45 21.75 L7.05 23.05 Q7.65 27.5 8.75 30.2 L7.2 30.3 6.05 30.45 5.15 30.05 5.5 30.5 5.05 30.55 11.7 30.9 12.6 30.95 13.55 31.0 13.25 31.15 Q-7.2 33.4 8.1 38.6 L1.75 39.45 Q-7.9 40.2 -13.75 36.05 L-15.25 35.25 Q-15.7 34.8 -15.6 35.15 L-15.6 35.25 -15.8 35.05 -18.1 33.25 -16.35 32.7 -16.35 32.85 Q-9.7 30.95 -1.15 30.25 -7.0 29.25 -16.05 30.2 L-16.05 30.15 -16.75 30.25 -17.15 29.35 Q-17.5 25.0 -16.4 19.1 -13.45 21.75 -8.95 23.5 0.25 20.95 5.75 12.2 6.2 10.6 6.25 9.2 M-15.6 35.15 L-16.35 32.85 -15.6 35.15" fill="#94c9f3" fill-rule="evenodd" stroke="none"/>
    <path d="M-21.35 31.15 Q-23.6 26.45 -22.6 20.15 -21.95 16.3 -20.85 12.6 -19.45 16.35 -16.4 19.1 -17.5 25.0 -17.15 29.35 L-16.95 30.3 -21.35 31.15 M-16.05 1.0 Q-13.9 -3.0 -11.15 -6.7 -10.15 -10.75 -11.8 -13.9 L-10.6 -13.3 -7.15 -12.85 Q-5.65 -9.05 -6.55 -5.3 -9.25 -1.55 -11.25 2.5 -14.1 1.9 -16.05 1.0" fill="#ecf5fd" fill-rule="evenodd" stroke="none"/>
    <path d="M-20.85 12.6 L-20.4 11.1 Q-18.05 15.55 -15.85 17.4 L-15.4 17.8 -15.35 17.95 -15.35 17.85 Q-12.95 19.7 -9.45 20.95 -1.55 18.9 3.15 11.9 4.5 7.75 1.9 4.7 -3.3 4.95 -7.2 4.7 L-7.55 4.1 -7.45 4.65 -11.45 4.15 Q-13.35 3.8 -16.85 2.5 L-16.05 1.0 Q-14.1 1.9 -11.25 2.5 L4.25 3.15 4.7 3.75 Q6.25 6.05 6.25 8.8 L6.25 9.0 6.25 9.2 Q6.2 10.6 5.75 12.2 0.25 20.95 -8.95 23.5 -13.45 21.75 -16.4 19.1 -19.45 16.35 -20.85 12.6 M8.85 -4.45 L9.55 -0.45 8.2 0.75 5.6 0.75 Q2.85 -1.4 3.9 -4.7 L5.2 -5.7 6.7 -5.7 7.15 -5.95 Q8.4 -5.55 8.85 -4.45 M6.35 14.05 L6.9 12.9 Q9.05 11.85 11.55 12.35 14.4 12.3 15.3 15.4 L15.95 15.15 Q16.7 16.85 16.65 18.75 16.55 22.55 14.45 25.6 L12.75 25.7 Q9.05 25.9 7.05 23.05 L6.45 21.75 Q5.05 17.9 6.35 14.05" fill="#ffffff" fill-rule="evenodd" stroke="none"/>
    <path d="M-20.4 11.1 Q-18.95 6.65 -16.85 2.5 -13.35 3.8 -11.45 4.15 L-7.45 4.65 -7.55 4.1 -7.2 4.7 Q-3.3 4.95 1.9 4.7 4.5 7.75 3.15 11.9 -1.55 18.9 -9.45 20.95 -12.95 19.7 -15.35 17.85 L-15.35 17.95 -15.4 17.8 -15.85 17.4 Q-18.05 15.55 -20.4 11.1 M-5.3 8.4 Q-7.05 9.4 -9.6 9.1 -12.15 8.8 -13.85 7.2 L-14.0 7.1 Q-14.75 5.4 -15.6 4.9 L-15.05 6.45 Q-15.15 7.4 -16.35 7.9 -13.55 8.35 -14.45 11.05 -11.5 8.55 -11.2 12.4 -9.6 9.8 -8.25 11.0 -6.9 12.2 -6.75 13.45 -6.25 9.45 -2.95 11.6 -4.75 9.05 -2.4 7.5 -3.55 7.4 -4.55 7.9 L-4.9 8.1 -5.3 8.4 M-9.55 14.8 L-9.85 13.7 -9.9 13.3 Q-11.25 15.5 -11.55 17.6 -11.9 19.7 -10.0 19.75 -8.1 19.75 -8.7 17.6 L-9.55 14.8" fill="#ffcc33" fill-rule="evenodd" stroke="none"/>
    <path d="M-0.1 -21.05 L0.75 -24.1 Q3.45 -32.35 -2.15 -36.6 -2.9 -38.7 1.4 -37.85 5.65 -37.0 8.6 -39.85 L9.35 -38.4 9.5 -37.45 8.85 -22.85 Q7.9 -21.95 4.3 -21.35 L-0.1 -21.05 M-9.3 -41.1 L-8.5 -40.0 -8.45 -39.8 -6.05 -38.1 Q-7.15 -36.7 -9.3 -37.1 L-9.95 -37.1 -11.45 -36.4 -11.5 -37.65 Q-11.4 -39.8 -9.3 -41.1" fill="#6f3700" fill-rule="evenodd" stroke="none"/>
    <path d="M8.6 -39.85 Q5.65 -37.0 1.4 -37.85 -2.9 -38.7 -2.15 -36.6 3.45 -32.35 0.75 -24.1 L-0.1 -21.05 -4.15 -21.3 Q-9.0 -21.9 -10.95 -22.95 L-11.15 -27.25 -11.0 -27.3 -11.15 -27.3 -11.45 -36.4 -9.95 -37.1 -9.3 -37.1 Q-7.15 -36.7 -6.05 -38.1 L-8.45 -39.8 -8.5 -40.0 -9.3 -41.1 -8.25 -41.7 Q-4.0 -42.9 0.2 -42.5 4.35 -42.15 6.45 -41.35 7.75 -40.9 8.6 -39.85" fill="#ffa448" fill-rule="evenodd" stroke="none"/>
    <path d="M21.55 30.8 L21.45 31.0 21.0 31.95 Q18.65 36.1 13.5 38.95 10.6 40.55 7.7 41.45 4.2 42.5 0.7 42.65 L-0.65 42.65 -5.15 42.1 Q-8.3 41.4 -11.45 39.95 L-12.0 39.7 -13.45 38.95 -16.35 37.1 Q-19.7 34.5 -21.35 31.15 L-16.95 30.3 -17.15 29.35 -16.75 30.25 -16.05 30.15 -16.05 30.2 Q-7.0 29.25 -1.15 30.25 -9.7 30.95 -16.35 32.85 L-16.35 32.7 -18.1 33.25 -15.8 35.05 -15.6 35.25 -15.6 35.15 Q-15.7 34.8 -15.25 35.25 L-13.75 36.05 Q-7.9 40.2 1.75 39.45 L8.1 38.6 Q12.6 37.75 14.6 36.3 17.85 33.9 18.35 32.7 18.6 32.0 13.25 31.15 L13.55 31.0 12.6 30.95 11.7 30.9 5.05 30.55 5.5 30.5 5.15 30.05 6.05 30.45 11.6 30.9 7.2 30.3 8.75 30.2 21.55 30.8 M-12.0 39.7 L-13.65 38.25 Q-14.95 37.05 -15.75 35.35 L-15.8 35.05 -15.75 35.35 Q-14.95 37.05 -13.65 38.25 L-12.0 39.7 M-16.95 30.3 L-16.35 32.7 -16.95 30.3" fill="#663300" fill-rule="evenodd" stroke="none"/>
    <path d="M-5.3 8.4 L-4.9 8.1 -4.55 7.9 Q-3.55 7.4 -2.4 7.5 -4.75 9.05 -2.95 11.6 -6.25 9.45 -6.75 13.45 -6.9 12.2 -8.25 11.0 -9.6 9.8 -11.2 12.4 -11.5 8.55 -14.45 11.05 -13.55 8.35 -16.35 7.9 -15.15 7.4 -15.05 6.45 L-15.6 4.9 Q-14.75 5.4 -14.0 7.1 L-13.85 7.2 Q-12.15 8.8 -9.6 9.1 -7.05 9.4 -5.3 8.4 M-9.55 14.8 L-8.7 17.6 Q-8.1 19.75 -10.0 19.75 -11.9 19.7 -11.55 17.6 -11.25 15.5 -9.9 13.3 L-9.85 13.7 -9.55 14.8" fill="#000000" fill-rule="evenodd" stroke="none"/>
    <path d="M-0.1 -21.05 L4.3 -21.35 Q7.9 -21.95 8.85 -22.85 L9.5 -37.45 9.35 -38.4 8.6 -39.85 Q7.75 -40.9 6.45 -41.35 4.35 -42.15 0.2 -42.5 -4.0 -42.9 -8.25 -41.7 L-9.3 -41.1 Q-11.4 -39.8 -11.5 -37.65 L-11.45 -36.4 -11.15 -27.3 M-11.0 -27.3 L-11.15 -27.25 -10.95 -22.95 Q-9.0 -21.9 -4.15 -21.3 L-0.1 -21.05 M9.05 -26.2 L9.3 -26.1 11.9 -24.9 Q13.8 -23.8 14.05 -22.8 M14.45 -17.15 Q14.4 -15.7 11.9 -14.3 10.1 -11.5 11.2 -6.7 20.2 5.4 22.65 20.15 23.65 26.2 21.55 30.8 L21.45 31.0 21.0 31.95 Q18.65 36.1 13.5 38.95 10.6 40.55 7.7 41.45 4.2 42.5 0.7 42.65 L-0.65 42.65 -5.15 42.1 Q-8.3 41.4 -11.45 39.95 L-12.0 39.7 -13.45 38.95 -16.35 37.1 Q-19.7 34.5 -21.35 31.15 -23.6 26.45 -22.6 20.15 -21.95 16.3 -20.85 12.6 L-20.4 11.1 Q-18.95 6.65 -16.85 2.5 L-16.05 1.0 Q-13.9 -3.0 -11.15 -6.7 -10.15 -10.75 -11.8 -13.9 L-12.8 -14.5 Q-14.75 -15.85 -14.95 -17.15 M-15.35 -22.85 Q-15.1 -24.5 -11.15 -26.05 M14.05 -22.45 Q14.0 -21.35 12.0 -20.3 L11.5 -20.1 9.3 -19.25 6.45 -18.9 Q-0.2 -18.3 -7.3 -18.85 L-7.85 -18.9 -11.0 -19.25 -12.2 -19.75 -13.05 -20.15 Q-15.0 -21.25 -15.3 -22.25 M-6.95 -12.85 L-6.9 -12.85 Q-1.55 -12.35 3.55 -12.6 L6.85 -12.9 9.7 -13.3 11.9 -14.3 M-11.25 2.5 L4.25 3.15 4.7 3.75 Q6.25 6.05 6.25 8.8 L6.25 9.0 6.25 9.2 Q6.2 10.6 5.75 12.2 0.25 20.95 -8.95 23.5 -13.45 21.75 -16.4 19.1 -19.45 16.35 -20.85 12.6 M-15.6 35.15 L-15.6 35.25 -15.8 35.05 -15.75 35.35 Q-14.95 37.05 -13.65 38.25 L-12.0 39.7 M-7.15 -12.85 L-6.95 -12.85 M-11.8 -13.9 L-10.6 -13.3 -7.15 -12.85 Q-5.65 -9.05 -6.55 -5.3 -9.25 -1.55 -11.25 2.5 -14.1 1.9 -16.05 1.0 M-16.95 30.3 L-17.15 29.35 Q-17.5 25.0 -16.4 19.1 M-16.35 32.85 L-15.6 35.15 M-16.35 32.7 L-16.35 32.85 M-16.35 32.7 L-16.95 30.3" fill="none" stroke="#663300" stroke-linecap="round" stroke-linejoin="round" stroke-width="0.1"/>
    <path d="M14.05 -22.8 L14.05 -22.45 Q14.9 -19.55 14.45 -17.55 L14.45 -17.15 M-14.95 -17.15 L-14.95 -17.35 Q-15.75 -19.8 -15.3 -22.25 L-15.35 -22.85 M-7.85 -18.9 Q-8.55 -17.6 -8.45 -16.3 -8.35 -14.6 -6.95 -12.85" fill="none" stroke="#663300" stroke-linecap="round" stroke-linejoin="round" stroke-width="0.1"/>
  </g>
</svg>
