<?xml version="1.0" encoding="UTF-8" standalone="no"?>
<svg xmlns:xlink="http://www.w3.org/1999/xlink" height="32.2px" width="19.9px" xmlns="http://www.w3.org/2000/svg">
  <g transform="matrix(1.0, 0.0, 0.0, 1.0, 13.9, 17.2)">
    <path d="M2.45 -15.1 L2.5 -15.15 2.55 -15.4 2.65 -15.45 Q4.0 -15.2 4.7 -14.05 L4.75 -14.0 Q4.0 -13.15 2.85 -12.9 L1.4 -12.65 -1.7 -12.4 Q-4.25 -12.4 -6.25 -13.45 L-4.9 -14.0 -1.8 -14.9 2.05 -15.3 2.05 -15.15 2.3 -15.0 2.45 -15.1 M2.2 1.25 L2.35 1.35 Q2.0 1.85 2.45 2.4 2.35 2.6 2.4 2.85 L2.25 4.8 1.4 5.1 Q0.7 5.3 0.3 5.75 L-0.25 6.85 -0.65 7.95 -1.65 9.3 -2.8 10.7 -3.15 11.05 -2.85 10.65 Q-2.1 9.3 -1.9 7.75 L-1.65 7.45 -1.5 7.1 Q-1.45 6.9 -1.55 6.8 L-1.75 6.55 Q-1.3 6.45 -0.9 6.05 L-0.75 5.9 -0.2 5.35 Q1.05 3.75 1.0 1.7 L1.35 1.7 1.85 1.55 2.2 1.25 M1.7 -11.3 L1.75 -11.3 Q3.1 -11.45 4.2 -12.1 3.4 -9.95 3.15 -7.65 L2.95 -6.15 Q2.5 -2.85 1.15 0.2 L1.0 0.4 0.9 0.45 -2.75 -0.05 -1.65 -0.2 0.1 -0.4 1.1 -2.95 Q2.55 -7.05 1.7 -11.3 M-2.25 1.4 L-0.15 1.75 -0.15 2.35 Q-0.5 4.0 -1.7 5.25 L-2.7 5.2 -3.5 5.0 -3.1 4.95 -2.05 4.1 -1.75 3.6 -1.9 1.95 -2.1 1.55 -2.25 1.4 M-10.6 11.2 L-10.35 11.2 Q-7.35 11.9 -5.0 9.8 L-4.5 8.0 Q-4.25 6.8 -4.45 6.0 L-3.55 6.2 -2.95 6.35 -2.3 6.55 -2.55 7.0 -3.25 9.0 -3.5 9.9 Q-4.3 11.8 -6.35 11.95 -8.55 12.1 -10.55 11.2 L-10.6 11.2 M-3.5 11.55 L-3.9 12.1 -4.85 12.8 Q-5.6 13.35 -6.5 13.4 -8.6 13.55 -10.5 12.55 L-10.95 12.15 -10.55 12.35 Q-8.8 13.0 -6.85 13.05 L-6.5 13.05 Q-4.7 12.95 -3.5 11.55" fill="#553500" fill-rule="evenodd" stroke="none"/>
    <path d="M1.7 -11.3 Q2.55 -7.05 1.1 -2.95 L0.1 -0.4 -1.65 -0.2 -2.75 -0.05 -4.15 -0.6 -4.65 -11.6 -2.1 -11.25 Q-0.15 -8.4 -1.45 -5.2 L-0.25 -6.0 Q0.75 -8.15 0.55 -10.9 L0.6 -11.25 1.7 -11.3 M-5.0 -0.95 L-5.25 -1.05 -5.15 -1.1 -5.3 -1.15 -5.3 -1.25 Q-5.85 -3.65 -6.0 -6.1 -5.75 -3.4 -5.0 -0.95 M-6.05 -6.95 L-6.4 -12.1 -5.0 -11.65 -6.1 -11.65 -6.1 -8.9 -6.05 -6.95 M-2.25 1.4 L-2.1 1.55 -1.9 1.95 -1.75 3.6 -2.05 4.1 -3.1 4.95 -3.5 5.0 -8.9 3.55 -8.9 3.4 -8.85 3.25 -8.8 3.15 -8.25 2.35 -8.0 2.95 -7.15 3.45 -5.6 3.45 -4.9 2.8 -5.1 1.7 -5.25 1.7 Q-5.85 1.0 -7.05 1.05 L-6.2 0.35 -5.75 0.35 -3.55 1.05 -2.25 1.4 M-11.6 7.0 L-10.15 5.25 -10.0 5.05 -9.45 4.8 Q-7.9 4.8 -6.4 5.4 L-4.45 6.0 Q-4.25 6.8 -4.5 8.0 L-5.0 9.8 Q-7.35 11.9 -10.35 11.2 L-10.6 11.2 Q-11.85 10.65 -12.7 9.65 L-12.75 9.5 -12.85 9.25 -12.8 9.05 -12.65 8.4 -12.6 8.35 -12.6 8.45 -12.75 9.45 Q-10.65 11.25 -7.85 10.2 L-7.35 9.6 -6.95 8.4 -6.85 8.35 -6.85 8.2 -6.95 8.4 Q-7.85 8.9 -8.9 8.7 L-9.0 8.7 -11.4 6.95 -11.6 7.0" fill="#996600" fill-rule="evenodd" stroke="none"/>
    <path d="M-4.15 -0.6 L-4.65 -0.8 -5.0 -0.95 Q-5.75 -3.4 -6.0 -6.1 L-6.05 -6.95 -6.1 -8.9 -6.1 -11.65 -5.0 -11.65 -4.65 -11.6 -4.15 -0.6 M-2.1 -11.25 L0.6 -11.25 0.55 -10.9 Q0.75 -8.15 -0.25 -6.0 L-1.45 -5.2 Q-0.15 -8.4 -2.1 -11.25 M-8.25 2.35 L-7.05 1.05 Q-5.85 1.0 -5.25 1.7 L-5.1 1.7 -4.9 2.8 -5.6 3.45 -7.15 3.45 -8.0 2.95 -8.25 2.35 M-11.6 7.0 L-11.4 6.95 -9.0 8.7 -8.9 8.7 Q-7.85 8.9 -6.95 8.4 L-6.85 8.2 -6.85 8.35 -6.95 8.4 -7.35 9.6 -7.85 10.2 Q-10.65 11.25 -12.75 9.45 L-12.6 8.45 -12.6 8.35 -11.6 7.0" fill="#ffc64f" fill-rule="evenodd" stroke="none"/>
    <path d="M2.45 -15.1 L2.3 -15.0 2.05 -15.15 2.05 -15.3 -1.8 -14.9 -4.9 -14.0 -6.25 -13.45 Q-4.25 -12.4 -1.7 -12.4 L1.4 -12.65 2.85 -12.9 Q4.0 -13.15 4.75 -14.0 L4.7 -14.05 Q4.0 -15.2 2.65 -15.45 L2.55 -15.4 2.5 -15.15 2.45 -15.1 M2.35 1.35 L2.55 1.05 2.75 1.0 Q4.2 2.0 3.9 3.8 L3.75 5.15 Q3.7 6.35 2.45 6.4 1.3 6.45 1.05 7.5 0.65 9.05 -0.5 10.25 L-2.4 12.55 Q-3.3 13.75 -4.65 14.4 L-9.3 14.65 -11.3 13.8 Q-11.45 13.7 -11.55 13.65 -13.25 12.6 -13.2 10.75 -14.0 10.05 -13.9 8.95 -13.9 8.3 -13.55 7.8 -12.4 5.9 -10.75 4.4 L-10.7 4.3 -10.75 4.15 -10.65 4.05 -10.5 3.45 Q-9.45 0.95 -7.3 -0.85 L-7.05 -1.0 -6.7 -1.1 -6.9 -1.75 Q-7.45 -5.1 -7.65 -8.5 L-7.85 -11.0 Q-7.95 -12.05 -7.45 -12.7 -7.75 -13.0 -7.75 -13.45 -7.7 -14.35 -6.8 -14.75 -5.0 -15.6 -3.0 -15.9 L-2.55 -16.35 -2.75 -16.4 -2.7 -16.45 -2.55 -16.45 -2.4 -16.5 Q-2.05 -17.0 -1.3 -17.05 L-0.35 -17.2 3.25 -16.75 Q4.5 -16.45 5.35 -15.5 L5.75 -15.0 Q6.35 -14.05 5.55 -13.1 5.95 -12.65 5.65 -11.8 L5.15 -10.15 3.95 -3.55 2.9 0.0 2.2 1.25 1.85 1.55 1.35 1.7 1.0 1.7 Q1.05 3.75 -0.2 5.35 L-0.75 5.9 -0.9 6.05 Q-1.3 6.45 -1.75 6.55 L-1.55 6.8 Q-1.45 6.9 -1.5 7.1 L-1.65 7.45 -1.9 7.75 Q-2.1 9.3 -2.85 10.65 L-3.15 11.05 -2.8 10.7 -1.65 9.3 -0.65 7.95 -0.25 6.85 0.3 5.75 Q0.7 5.3 1.4 5.1 L2.25 4.8 2.4 2.85 Q2.35 2.6 2.45 2.4 2.0 1.85 2.35 1.35 M-2.75 -0.05 L0.9 0.45 1.0 0.4 1.15 0.2 Q2.5 -2.85 2.95 -6.15 L3.15 -7.65 Q3.4 -9.95 4.2 -12.1 3.1 -11.45 1.75 -11.3 L1.7 -11.3 0.6 -11.25 -2.1 -11.25 -4.65 -11.6 -5.0 -11.65 -6.4 -12.1 -6.05 -6.95 -6.0 -6.1 Q-5.85 -3.65 -5.3 -1.25 L-5.3 -1.15 -5.15 -1.1 -5.25 -1.05 -5.0 -0.95 -4.65 -0.8 -4.15 -0.6 -2.75 -0.05 M-3.5 5.0 L-2.7 5.2 -1.7 5.25 Q-0.5 4.0 -0.15 2.35 L-0.15 1.75 -2.25 1.4 -3.55 1.05 -5.75 0.35 -6.2 0.35 -7.05 1.05 -8.25 2.35 -8.8 3.15 -8.85 3.25 -8.9 3.4 -8.9 3.55 -3.5 5.0 M-4.45 6.0 L-6.4 5.4 Q-7.9 4.8 -9.45 4.8 L-10.0 5.05 -10.15 5.25 -11.6 7.0 -12.6 8.35 -12.65 8.4 -12.8 9.05 -12.85 9.25 -12.75 9.5 -12.7 9.65 Q-11.85 10.65 -10.6 11.2 L-10.55 11.2 Q-8.55 12.1 -6.35 11.95 -4.3 11.8 -3.5 9.9 L-3.25 9.0 -2.55 7.0 -2.3 6.55 -2.95 6.35 -3.55 6.2 -4.45 6.0 M-3.5 11.55 Q-4.7 12.95 -6.5 13.05 L-6.85 13.05 Q-8.8 13.0 -10.55 12.35 L-10.95 12.15 -10.5 12.55 Q-8.6 13.55 -6.5 13.4 -5.6 13.35 -4.85 12.8 L-3.9 12.1 -3.5 11.55" fill="#54483a" fill-rule="evenodd" stroke="none"/>
  </g>
</svg>
