<?xml version="1.0" encoding="UTF-8" standalone="no"?>
<svg xmlns:xlink="http://www.w3.org/1999/xlink" height="27.45px" width="22.35px" xmlns="http://www.w3.org/2000/svg">
  <g transform="matrix(1.0, 0.0, 0.0, 1.0, -255.6, -195.55)">
    <path d="M277.45 196.25 L277.05 197.0 276.25 198.35 275.7 199.2 275.6 199.4 273.4 202.95 273.1 203.5 273.0 203.95 273.05 203.5 274.85 200.45 275.7 199.2 276.25 198.35 277.15 196.75 277.55 196.05 277.45 196.25" fill="#ffffcc" fill-rule="evenodd" stroke="none"/>
    <path d="M273.0 203.95 L273.1 203.5 273.4 202.95 275.6 199.4 275.7 199.2 276.25 198.35 277.05 197.0 277.45 196.25 Q275.5 200.9 273.45 203.6 L273.4 203.65 273.15 203.9 273.15 203.95 273.05 204.0 273.0 204.0 273.0 203.95" fill="#fefd8f" fill-rule="evenodd" stroke="none"/>
    <path d="M267.45 208.65 L267.55 208.65 Q267.9 206.8 272.55 202.9 L273.0 202.55 272.8 202.9 Q272.55 203.55 272.85 203.35 268.85 205.55 268.05 209.35 L267.25 210.05 267.6 209.45 Q267.2 209.9 266.75 209.95 L266.6 209.9 266.55 209.85 266.5 209.95 264.15 213.25 263.95 213.35 264.05 213.3 264.0 213.35 264.1 213.3 264.7 212.95 262.9 215.6 262.15 216.75 261.75 217.4 260.7 219.0 260.65 219.05 Q260.3 219.1 261.05 217.45 L260.95 217.6 261.0 217.45 260.9 217.6 260.35 218.6 260.35 218.65 Q259.75 219.8 260.05 220.1 L259.4 221.15 259.4 221.1 259.35 221.15 259.3 221.1 259.1 220.9 258.45 220.55 258.95 219.5 259.05 219.3 259.65 218.35 259.7 218.35 259.8 218.2 260.0 217.95 259.0 219.05 258.15 220.1 257.6 220.3 257.25 220.3 257.1 220.3 256.6 220.4 Q256.45 220.4 256.4 220.5 L256.55 220.35 257.4 219.55 258.45 218.55 259.95 217.05 260.5 216.45 Q265.2 211.65 266.3 209.25 266.4 208.7 267.45 208.65" fill="#a86651" fill-rule="evenodd" stroke="none"/>
    <path d="M274.85 200.45 L273.05 203.5 273.0 203.95 273.0 204.0 272.95 204.0 273.05 203.5 274.7 200.65 274.85 200.45 M273.0 202.55 L273.65 201.95 272.9 203.15 272.85 203.65 Q269.75 205.4 268.65 208.15 L268.35 208.95 268.2 209.6 Q267.55 210.65 266.7 210.15 L264.05 214.35 263.4 215.35 263.05 215.9 262.65 216.45 262.45 216.8 262.05 217.45 260.75 219.4 259.55 221.4 259.45 221.25 259.4 221.15 260.05 220.1 Q259.75 219.8 260.35 218.65 L260.35 218.6 260.9 217.6 260.95 217.6 261.05 217.45 Q260.3 219.1 260.65 219.05 L260.7 219.0 261.75 217.4 262.15 216.75 262.9 215.6 264.7 212.95 264.1 213.3 264.15 213.25 266.5 209.95 266.55 209.85 266.6 209.9 266.75 209.95 Q267.2 209.9 267.6 209.45 L267.25 210.05 268.05 209.35 Q268.85 205.55 272.85 203.35 272.55 203.55 272.8 202.9 L273.0 202.55 M267.25 210.65 Q267.85 210.7 268.3 209.95 L268.55 209.0 268.9 208.2 Q270.05 205.65 273.0 204.0 269.1 206.2 268.35 209.95 267.85 210.75 267.25 210.65 M266.85 210.45 L266.85 210.5 266.85 210.45 M265.85 212.1 L263.2 216.2 262.75 216.9 262.35 217.5 259.65 221.8 259.65 221.75 261.05 219.45 262.35 217.5 262.55 217.2 262.75 216.9 263.2 216.2 263.7 215.4 264.4 214.4 265.85 212.1 M259.65 218.35 L259.05 219.3 259.15 219.05 259.65 218.35 M258.95 219.5 L258.45 220.55 258.35 220.7 258.1 220.45 257.85 220.3 257.75 220.3 258.15 220.15 258.95 219.5 M264.1 213.3 L264.0 213.35 264.05 213.3 264.1 213.3" fill="#8e5846" fill-rule="evenodd" stroke="none"/>
    <path d="M273.65 201.95 L273.7 201.85 274.8 200.45 274.7 200.65 273.05 203.5 272.95 204.0 273.0 204.0 Q270.05 205.65 268.9 208.2 L268.55 209.0 268.3 209.95 Q267.85 210.7 267.25 210.65 L266.85 210.45 266.85 210.5 265.85 212.1 264.4 214.4 263.7 215.4 263.2 216.2 262.75 216.9 262.55 217.2 262.35 217.5 261.05 219.45 259.65 221.75 259.65 221.8 259.65 221.85 259.6 221.95 259.5 222.15 259.0 222.45 258.85 222.45 258.75 222.45 258.7 222.45 258.45 222.5 258.05 222.45 257.75 222.35 257.45 222.25 256.95 222.0 256.4 221.5 256.2 221.1 256.9 221.5 257.0 221.55 257.5 221.7 257.85 221.75 258.15 221.75 Q258.7 221.75 258.95 221.45 L258.95 221.4 259.1 221.1 259.1 221.05 259.1 220.9 259.3 221.1 259.35 221.15 259.4 221.1 259.4 221.15 259.45 221.25 259.55 221.4 260.75 219.4 262.05 217.45 262.45 216.8 262.65 216.45 263.05 215.9 263.4 215.35 264.05 214.35 266.7 210.15 Q267.55 210.65 268.2 209.6 L268.35 208.95 268.65 208.15 Q269.75 205.4 272.85 203.65 L272.9 203.15 273.65 201.95 M264.15 213.25 L264.1 213.3 264.05 213.3 263.95 213.35 264.15 213.25 M260.95 217.6 L260.9 217.6 261.0 217.45 260.95 217.6 M257.6 220.3 L258.15 220.1 259.0 219.05 260.0 217.95 259.8 218.2 259.7 218.35 259.65 218.35 259.15 219.05 259.05 219.3 258.95 219.5 258.15 220.15 257.75 220.3 257.85 220.3 258.1 220.45 258.35 220.7 258.25 220.85 258.1 220.55 257.7 220.3 257.6 220.3" fill="#6f4335" fill-rule="evenodd" stroke="none"/>
    <path d="M259.6 221.95 L259.55 222.1 259.5 222.15 259.6 221.95 M256.2 221.1 L256.3 220.65 256.4 220.5 Q256.45 220.4 256.6 220.4 L257.1 220.3 257.25 220.3 257.6 220.3 257.7 220.3 258.1 220.55 258.25 220.85 258.35 220.7 258.45 220.55 259.1 220.9 259.1 221.05 259.1 221.1 258.95 221.4 258.95 221.45 Q258.7 221.75 258.15 221.75 L257.85 221.75 257.5 221.7 257.0 221.55 256.9 221.5 256.2 221.1" fill="#85503f" fill-rule="evenodd" stroke="none"/>
    <path d="M277.45 196.25 L277.55 196.05 277.15 196.75 276.25 198.35 275.7 199.2 274.85 200.45 274.7 200.65 274.8 200.45 273.7 201.85 M273.05 203.5 L273.0 203.95 273.0 204.0 273.05 204.0 273.15 203.95 273.15 203.9 273.4 203.65 273.45 203.6 Q275.5 200.9 277.45 196.25 M267.45 208.65 L267.55 208.65 Q267.9 206.8 272.55 202.9 L273.0 202.55 273.65 201.95 M267.25 210.65 Q267.85 210.7 268.3 209.95 L268.55 209.0 268.9 208.2 Q270.05 205.65 273.0 204.0 L272.95 204.0 273.05 203.5 274.7 200.65 M256.4 220.5 L256.55 220.35 257.4 219.55 258.45 218.55 259.95 217.05 260.5 216.45 Q265.2 211.65 266.3 209.25 266.4 208.7 267.45 208.65 M266.85 210.45 L266.85 210.5 265.85 212.1 263.2 216.2 262.75 216.9 262.35 217.5 259.65 221.8 259.65 221.85 259.6 221.95 259.5 222.15 259.0 222.45 258.85 222.45 258.75 222.45 258.7 222.45 258.45 222.5 258.05 222.45 257.75 222.35 257.45 222.25 256.95 222.0 256.4 221.5 256.2 221.1 256.3 220.65 256.4 220.5 M267.25 210.65 L266.85 210.45 266.85 210.5 M259.3 221.1 L259.35 221.15 M273.0 204.0 Q269.1 206.2 268.35 209.95 267.85 210.75 267.25 210.65 M259.65 221.8 L259.65 221.75 261.05 219.45 262.35 217.5 262.55 217.2 262.75 216.9 263.2 216.2 263.7 215.4 264.4 214.4 265.85 212.1" fill="none" stroke="#000000" stroke-linecap="round" stroke-linejoin="round" stroke-width="0.05"/>
    <path d="M258.45 222.5 L257.95 222.45 257.35 222.25 256.3 221.5 Q255.95 221.0 256.2 220.65 L256.3 220.5 256.45 220.4 256.45 220.35 Q264.7 212.55 266.2 209.25 266.3 208.65 267.45 208.65 267.8 206.8 272.45 202.9 273.5 202.15 274.75 200.45 L275.6 199.2 276.15 198.35 277.45 196.05 277.15 196.75 M266.85 210.5 L267.25 210.65" fill="none" stroke="#000000" stroke-linecap="round" stroke-linejoin="round" stroke-width="1.0"/>
  </g>
</svg>
