<?xml version="1.0" encoding="UTF-8" standalone="no"?>
<svg xmlns:xlink="http://www.w3.org/1999/xlink" height="94.95px" width="94.5px" xmlns="http://www.w3.org/2000/svg">
  <g transform="matrix(1.0, 0.0, 0.0, 1.0, -227.7, -153.0)">
    <path d="M314.3 153.2 L314.4 153.2 315.15 153.4 Q318.15 153.75 319.85 156.1 321.75 158.55 321.3 161.5 320.85 164.45 318.5 166.15 319.75 166.85 320.6 168.05 322.3 170.45 321.9 173.6 321.3 177.3 319.7 178.55 L317.85 177.45 316.2 178.3 316.1 178.35 316.25 180.85 313.2 182.85 Q312.25 183.5 310.1 184.4 L308.05 185.3 Q305.85 185.3 303.75 183.6 L301.2 180.85 301.55 180.55 305.45 176.9 309.15 173.05 Q310.65 171.45 310.15 170.95 309.6 170.4 307.9 171.8 306.0 173.2 303.85 175.55 L300.3 179.35 300.3 179.4 300.0 178.9 299.95 178.85 Q299.4 177.25 300.2 173.95 L300.7 171.9 297.85 172.3 299.5 170.75 303.2 167.0 Q304.65 165.35 304.2 164.85 303.7 164.25 301.9 165.7 300.05 167.1 297.9 169.4 L295.3 172.15 Q290.9 171.3 290.5 165.85 292.2 162.7 294.75 158.9 L295.25 157.8 295.25 157.75 295.6 157.05 Q296.6 155.7 297.7 155.05 300.55 152.9 303.9 153.45 306.7 153.9 308.6 155.8 L309.8 154.7 310.45 154.2 310.5 154.2 312.05 155.85 313.55 155.7 314.3 153.2 M315.05 159.15 L314.85 162.7 317.85 161.45 315.6 159.0 315.05 159.15 M317.75 168.45 L317.45 168.35 316.3 169.05 316.45 172.05 318.75 171.85 319.4 169.2 317.75 168.45 M313.95 168.1 L312.65 168.45 312.05 170.4 314.2 170.6 313.95 168.1 M309.85 161.55 L308.05 161.65 307.4 164.1 309.05 165.15 310.35 163.85 309.9 161.55 309.85 161.55 M303.25 156.15 L301.3 155.6 300.0 157.75 301.35 158.9 302.7 158.35 303.25 156.15 M301.45 163.8 L301.05 161.25 299.15 160.75 299.0 162.6 299.0 162.7 301.45 163.8" fill="#b88634" fill-rule="evenodd" stroke="none"/>
    <path d="M319.7 178.55 L316.25 180.85 316.1 178.35 316.2 178.3 317.85 177.45 319.7 178.55 M310.5 154.2 Q312.25 153.15 314.3 153.2 L313.55 155.7 312.05 155.85 310.5 154.2 M315.05 159.15 L315.6 159.0 317.85 161.45 314.85 162.7 315.05 159.15 M313.95 168.1 L314.2 170.6 312.05 170.4 312.65 168.45 313.95 168.1 M317.75 168.45 L319.4 169.2 318.75 171.85 316.45 172.05 316.3 169.05 317.45 168.35 317.75 168.45 M301.45 163.8 L299.0 162.7 299.0 162.6 299.15 160.75 301.05 161.25 301.45 163.8 M303.25 156.15 L302.7 158.35 301.35 158.9 300.0 157.75 301.3 155.6 303.25 156.15 M309.85 161.55 L309.9 161.55 310.35 163.85 309.05 165.15 307.4 164.1 308.05 161.65 309.85 161.55" fill="#efecaf" fill-rule="evenodd" stroke="none"/>
    <path d="M295.3 172.15 L297.9 169.4 Q300.05 167.1 301.9 165.7 303.7 164.25 304.2 164.85 304.65 165.35 303.2 167.0 L299.5 170.75 297.85 172.3 295.65 174.4 295.1 174.75 Q293.85 175.75 293.45 175.3 L293.25 175.05 Q293.2 174.5 294.3 173.3 L295.3 172.15 M300.3 179.4 L300.3 179.35 303.85 175.55 Q306.0 173.2 307.9 171.8 309.6 170.4 310.15 170.95 310.65 171.45 309.15 173.05 L305.45 176.9 301.55 180.55 301.2 180.85 Q300.1 181.7 299.55 181.5 L299.35 181.45 Q299.05 181.05 299.85 180.0 L300.3 179.4" fill="#563f18" fill-rule="evenodd" stroke="none"/>
    <path d="M308.05 185.3 Q305.55 186.25 302.2 187.55 L299.2 184.5 290.25 175.5 287.7 173.0 Q288.2 170.1 290.5 165.85 290.9 171.3 295.3 172.15 L294.3 173.3 Q293.2 174.5 293.25 175.05 L293.45 175.3 Q293.85 175.75 295.1 174.75 L295.65 174.4 297.85 172.3 300.7 171.9 300.2 173.95 Q299.4 177.25 299.95 178.85 L300.0 178.9 300.3 179.4 299.85 180.0 Q299.05 181.05 299.35 181.45 L299.55 181.5 Q300.1 181.7 301.2 180.85 L303.75 183.6 Q305.85 185.3 308.05 185.3" fill="#825f24" fill-rule="evenodd" stroke="none"/>
    <path d="M299.2 184.5 L298.3 190.35 295.95 181.95 291.85 186.2 289.6 181.75 292.5 178.9 283.5 176.6 290.25 175.5 299.2 184.5 M273.5 205.2 L264.7 214.4 259.2 216.65 245.3 233.1 235.2 239.75 231.4 239.55 232.05 238.95 Q232.5 239.3 235.1 237.8 239.7 234.8 244.5 230.15 L246.8 227.8 253.3 220.5 Q259.35 213.3 262.65 212.0 266.5 210.95 275.05 199.55 279.8 193.4 283.55 190.35 286.5 188.15 287.9 186.1 L286.5 190.1 275.5 200.3 273.5 205.2 M234.2 246.1 L233.6 246.75 Q231.35 248.85 229.1 246.6 228.0 245.55 227.9 244.5 L234.2 246.1" fill="#446261" fill-rule="evenodd" stroke="none"/>
    <path d="M232.05 238.95 Q231.25 238.35 236.35 233.05 L237.2 233.5 239.5 232.4 239.45 232.25 238.95 230.45 240.95 228.5 Q248.9 220.4 257.1 211.1 L262.4 205.45 262.55 205.25 262.7 205.15 268.05 199.7 269.35 200.85 271.15 200.35 270.1 197.8 277.75 190.95 Q286.3 183.5 288.4 182.95 289.05 182.7 289.15 183.1 L288.35 185.35 287.9 186.1 Q286.5 188.15 283.55 190.35 279.8 193.4 275.05 199.55 266.5 210.95 262.65 212.0 259.35 213.3 253.3 220.5 L246.8 227.8 245.25 227.2 244.1 228.45 244.5 230.15 Q239.7 234.8 235.1 237.8 232.5 239.3 232.05 238.95 M265.75 206.2 L262.65 205.25 262.75 207.65 264.85 207.75 265.75 206.2" fill="#f7f4c1" fill-rule="evenodd" stroke="none"/>
    <path d="M291.85 186.2 L273.5 205.2 275.5 200.3 286.5 190.1 287.9 186.1 288.35 185.35 289.15 183.1 Q289.05 182.7 288.4 182.95 L289.6 181.75 291.85 186.2 M264.7 214.4 L234.2 246.1 227.9 244.5 Q227.75 243.15 229.05 241.9 L231.1 239.8 231.4 239.55 235.2 239.75 245.3 233.1 259.2 216.65 264.7 214.4" fill="#618b8a" fill-rule="evenodd" stroke="none"/>
    <path d="M236.35 233.05 L238.95 230.45 239.45 232.25 239.5 232.4 237.2 233.5 236.35 233.05 M268.05 199.7 L270.1 197.8 271.15 200.35 269.35 200.85 268.05 199.7 M265.75 206.2 L264.85 207.75 262.75 207.65 262.65 205.25 265.75 206.2 M244.5 230.15 L244.1 228.45 245.25 227.2 246.8 227.8 244.5 230.15" fill="#fdfcee" fill-rule="evenodd" stroke="none"/>
    <path d="M314.3 153.2 L314.4 153.2 315.15 153.4 Q318.15 153.75 319.85 156.1 321.75 158.55 321.3 161.5 320.85 164.45 318.5 166.15 319.75 166.85 320.6 168.05 322.3 170.45 321.9 173.6 321.3 177.3 319.7 178.55 L316.25 180.85 313.2 182.85 Q312.25 183.5 310.1 184.4 L308.05 185.3 Q305.55 186.25 302.2 187.55 L299.2 184.5 298.3 190.35 295.95 181.95 291.85 186.2 273.5 205.2 264.7 214.4 234.2 246.1 233.6 246.75 Q231.35 248.85 229.1 246.6 228.0 245.55 227.9 244.5 227.75 243.15 229.05 241.9 L231.1 239.8 M231.4 239.55 L232.05 238.95 Q231.25 238.35 236.35 233.05 L238.95 230.45 240.95 228.5 Q248.9 220.4 257.1 211.1 L262.4 205.45 M262.55 205.25 L262.7 205.15 268.05 199.7 270.1 197.8 277.75 190.95 Q286.3 183.5 288.4 182.95 L289.6 181.75 292.5 178.9 283.5 176.6 290.25 175.5 287.7 173.0 Q288.2 170.1 290.5 165.85 292.2 162.7 294.75 158.9 M295.25 157.8 L295.25 157.75 295.6 157.05 Q296.6 155.7 297.7 155.05 300.55 152.9 303.9 153.45 306.7 153.9 308.6 155.8 L309.8 154.7 310.45 154.2 310.5 154.2" fill="none" stroke="#000000" stroke-linecap="round" stroke-linejoin="round" stroke-opacity="0.6" stroke-width="0.4"/>
    <path d="M294.75 158.9 L295.25 157.8 M310.5 154.2 Q312.25 153.15 314.3 153.2" fill="none" stroke="#000000" stroke-linecap="round" stroke-linejoin="round" stroke-opacity="0.6" stroke-width="0.4"/>
    <path d="M288.35 185.35 L289.15 183.1 Q289.05 182.7 288.4 182.95 M246.8 227.8 L253.3 220.5 Q259.35 213.3 262.65 212.0 266.5 210.95 275.05 199.55 279.8 193.4 283.55 190.35 286.5 188.15 287.9 186.1 M246.8 227.8 L244.5 230.15 Q239.7 234.8 235.1 237.8 232.5 239.3 232.05 238.95" fill="none" stroke="#000000" stroke-linecap="round" stroke-linejoin="round" stroke-opacity="0.6" stroke-width="0.05"/>
    <path d="M317.65 166.9 Q312.7 172.65 308.4 165.8 312.7 167.6 317.65 166.9" fill="#825f24" fill-rule="evenodd" stroke="none"/>
    <path d="M319.1 178.6 Q314.15 184.35 309.85 177.5 314.15 179.3 319.1 178.6" fill="#825f24" fill-rule="evenodd" stroke="none"/>
  </g>
</svg>
