<?xml version="1.0" encoding="UTF-8" standalone="no"?>
<svg xmlns:xlink="http://www.w3.org/1999/xlink" height="92.0px" width="80.3px" xmlns="http://www.w3.org/2000/svg">
  <g transform="matrix(1.0, 0.0, 0.0, 1.0, -234.75, -154.6)">
    <path d="M239.45 239.0 L235.25 235.45 239.3 231.1 240.2 232.0 243.05 234.8 239.45 239.0 M269.05 196.95 Q269.2 196.7 269.15 197.0 276.45 194.95 298.45 172.2 L298.6 172.05 310.05 159.75 314.45 154.95 314.65 154.9 314.55 155.65 299.8 171.85 300.0 171.55 299.4 172.3 Q276.2 200.1 279.45 205.3 L269.05 197.2 269.05 196.95" fill="#ffcc00" fill-rule="evenodd" stroke="none"/>
    <path d="M249.4 240.95 L250.8 242.35 247.75 246.1 239.45 239.0 243.05 234.8 249.4 240.95 M281.5 203.4 L279.5 205.3 279.45 205.3 279.45 205.35 279.35 205.4 274.7 206.0 275.25 210.1 268.1 205.6 265.05 203.65 269.45 202.0 269.05 197.2 279.45 205.3 Q276.2 200.1 299.4 172.3 L300.0 171.55 299.8 171.85 Q284.45 193.35 281.5 203.4" fill="#bf9900" fill-rule="evenodd" stroke="none"/>
    <path d="M269.15 197.0 Q295.35 159.45 314.35 155.0 L310.05 159.75 298.6 172.05 298.45 172.2 Q276.45 194.95 269.15 197.0 M285.65 181.25 Q286.3 181.9 289.2 179.65 292.15 177.45 295.6 173.7 299.0 169.95 300.95 166.8 302.9 163.7 302.2 163.05 301.5 162.45 298.6 164.65 295.65 166.85 292.25 170.65 288.8 174.4 286.85 177.5 284.95 180.65 285.65 181.25" fill="#ffdd55" fill-rule="evenodd" stroke="none"/>
    <path d="M314.55 155.65 Q312.1 174.35 281.5 203.4 284.45 193.35 299.8 171.85 L314.55 155.65 M292.5 186.85 Q293.2 187.4 295.95 185.0 298.75 182.6 301.9 178.6 305.05 174.55 306.75 171.3 308.45 168.05 307.75 167.5 307.0 166.9 304.2 169.35 301.45 171.75 298.3 175.75 295.15 179.75 293.45 183.0 291.75 186.25 292.5 186.85" fill="#e1b500" fill-rule="evenodd" stroke="none"/>
    <path d="M256.1 219.55 L261.6 213.2 269.25 219.45 Q267.4 224.15 263.8 225.35 L256.1 219.55 M248.25 228.75 L252.3 224.0 259.3 230.25 Q258.35 232.85 254.7 235.25 L248.25 228.75 M275.25 210.1 L276.95 211.15 Q276.35 213.35 274.25 214.05 L265.5 208.6 268.1 205.6 275.25 210.1" fill="#b71f09" fill-rule="evenodd" stroke="none"/>
    <path d="M252.3 224.0 L256.1 219.55 263.8 225.35 Q259.3 225.05 259.3 230.25 L252.3 224.0 M269.25 219.45 L261.6 213.2 265.5 208.6 274.25 214.05 Q268.8 214.15 269.25 219.45 M248.25 228.75 L254.7 235.25 Q249.65 236.35 249.4 240.95 L243.05 234.8 248.25 228.75" fill="#9c1b07" fill-rule="evenodd" stroke="none"/>
    <path d="M252.5 216.8 L256.1 219.55 252.3 224.0 249.05 221.05 252.5 216.8 M261.6 213.2 L257.9 210.15 261.3 206.0 265.5 208.6 261.6 213.2 M240.2 232.0 L245.25 225.75 248.25 228.75 243.05 234.8 240.2 232.0" fill="#861606" fill-rule="evenodd" stroke="none"/>
    <path d="M256.1 219.55 L252.5 216.8 257.9 210.15 261.6 213.2 256.1 219.55 M249.05 221.05 L252.3 224.0 248.25 228.75 245.25 225.75 249.05 221.05 M265.5 208.6 L261.3 206.0 263.8 202.9 265.05 203.65 268.1 205.6 265.5 208.6" fill="#e1250b" fill-rule="evenodd" stroke="none"/>
    <path d="M240.2 232.0 L243.05 234.8 249.4 240.95 M269.05 197.2 L268.95 197.1 M314.35 155.0 L314.55 154.8 314.45 154.95 M279.5 205.3 L279.6 205.4 279.4 205.4 279.35 205.4 M269.05 197.2 L269.05 196.95 M279.45 205.3 L279.5 205.3 M279.45 205.35 L279.4 205.4 M279.45 205.35 L279.45 205.3 269.05 197.2 M265.05 203.65 L268.1 205.6 275.25 210.1" fill="none" stroke="#000000" stroke-linecap="round" stroke-linejoin="round" stroke-opacity="0.6" stroke-width="0.4"/>
    <path d="M268.95 197.1 L269.05 196.95 Q269.2 196.7 269.15 197.0 295.35 159.45 314.35 155.0 L314.45 154.95 314.65 154.9 314.55 155.65 M279.5 205.3 L279.45 205.35 279.35 205.4" fill="none" stroke="#000000" stroke-linecap="round" stroke-linejoin="round" stroke-opacity="0.6" stroke-width="0.4"/>
    <path d="M257.9 210.15 L252.5 216.8 249.05 221.05 245.25 225.75 240.2 232.0 239.3 231.1 235.25 235.45 239.45 239.0 247.75 246.1 250.8 242.35 249.4 240.95 Q249.65 236.35 254.7 235.25 258.35 232.85 259.3 230.25 259.3 225.05 263.8 225.35 267.4 224.15 269.25 219.45 268.8 214.15 274.25 214.05 276.35 213.35 276.95 211.15 L275.25 210.1 274.7 206.0 279.35 205.4 M261.3 206.0 L257.9 210.15 M314.55 155.65 Q312.1 174.35 281.5 203.4 L279.5 205.3 M292.5 186.85 Q291.75 186.25 293.45 183.0 295.15 179.75 298.3 175.75 301.45 171.75 304.2 169.35 307.0 166.9 307.75 167.5 308.45 168.05 306.75 171.3 305.05 174.55 301.9 178.6 298.75 182.6 295.95 185.0 293.2 187.4 292.5 186.85 M285.65 181.25 Q284.95 180.65 286.85 177.5 288.8 174.4 292.25 170.65 295.65 166.85 298.6 164.65 301.5 162.45 302.2 163.05 302.9 163.7 300.95 166.8 299.0 169.95 295.6 173.7 292.15 177.45 289.2 179.65 286.3 181.9 285.65 181.25 M269.05 197.2 L269.45 202.0 265.05 203.65 263.8 202.9 261.3 206.0" fill="none" stroke="#000000" stroke-linecap="round" stroke-linejoin="round" stroke-opacity="0.6" stroke-width="1.0"/>
    <path d="M296.4 171.85 Q294.65 165.55 295.5 161.1 296.3 157.05 299.0 155.55 299.9 155.0 300.9 154.85 L302.5 154.85 Q303.5 155.0 304.5 155.45 307.65 156.9 309.85 160.9 313.4 167.4 312.55 178.2 L311.4 187.6 Q310.35 194.35 310.05 197.05 319.45 220.8 301.15 238.7 M303.1 218.8 Q309.55 208.95 310.05 197.05 309.65 195.9 307.9 193.55 L304.2 188.5 Q300.15 182.55 297.8 176.15" fill="none" stroke="#fee57f" stroke-linecap="round" stroke-linejoin="round" stroke-width="0.4"/>
  </g>
</svg>
