<?xml version="1.0" encoding="UTF-8" standalone="no"?>
<svg xmlns:xlink="http://www.w3.org/1999/xlink" height="345.9px" width="238.65px" xmlns="http://www.w3.org/2000/svg">
  <g transform="matrix(1.0, 0.0, 0.0, 1.0, -129.6, 21.6)">
    <path d="M205.55 198.1 Q193.3 202.0 179.8 205.05 169.15 188.05 160.9 171.75 135.2 121.95 130.6 81.45 L145.9 76.0 129.6 66.0 Q128.95 7.75 175.8 -14.95 183.8 -18.8 193.15 -21.6 194.4 -13.55 196.25 -5.2 175.35 -1.15 168.2 34.55 L187.4 48.15 161.75 46.9 Q160.6 52.85 160.15 59.15 L152.75 64.0 159.75 72.15 159.85 75.8 Q161.3 121.85 189.25 172.0 L181.55 178.6 188.95 189.45 Q193.0 187.2 197.05 185.05 201.0 191.55 205.55 198.1" fill="#ffffff" fill-rule="evenodd" stroke="none"/>
    <path d="M205.55 198.1 Q201.0 191.55 197.05 185.05 202.8 181.8 208.6 178.65 L197.1 165.35 189.25 172.0 Q161.3 121.85 159.85 75.8 L159.75 72.15 162.65 75.65 176.55 74.65 181.1 82.65 195.45 85.1 195.75 69.25 165.75 55.4 160.15 59.15 Q160.6 52.85 161.75 46.9 L187.4 48.15 168.2 34.55 Q175.35 -1.15 196.25 -5.2 206.95 42.7 236.0 96.15 L236.65 97.45 252.75 126.85 252.85 126.9 271.75 164.9 Q244.8 185.65 205.55 198.1 M264.65 90.45 L267.05 89.9 277.05 97.25 293.3 113.65 286.55 115.9 264.65 90.45 M199.8 38.7 L189.95 31.1 183.8 37.25 194.9 49.1 199.8 38.7 M208.1 57.65 L202.7 62.75 204.9 70.25 204.75 72.6 210.1 74.9 216.2 68.85 208.1 57.65 M229.1 171.0 L241.4 175.8 252.8 165.9 245.5 159.75 229.1 171.0 M189.35 104.75 L184.65 107.05 187.3 115.8 195.05 118.15 199.85 113.05 189.35 104.75" fill="#adbac6" fill-rule="evenodd" stroke="none"/>
    <path d="M159.75 72.15 Q159.6 65.55 160.15 59.15 L165.75 55.4 195.75 69.25 195.45 85.1 181.1 82.65 176.55 74.65 162.65 75.65 159.75 72.15 M199.8 38.7 L194.9 49.1 183.8 37.25 189.95 31.1 199.8 38.7 M208.1 57.65 L216.2 68.85 210.1 74.9 204.75 72.6 204.9 70.25 202.7 62.75 208.1 57.65 M189.35 104.75 L199.85 113.05 195.05 118.15 187.3 115.8 184.65 107.05 189.35 104.75 M229.1 171.0 L245.5 159.75 252.8 165.9 241.4 175.8 229.1 171.0 M197.05 185.05 Q192.9 178.55 189.25 172.0 L197.1 165.35 208.6 178.65 Q202.8 181.8 197.05 185.05" fill="#94a5b4" fill-rule="evenodd" stroke="none"/>
    <path d="M197.05 185.05 Q193.0 187.2 188.95 189.45 L181.55 178.6 189.25 172.0 Q192.9 178.55 197.05 185.05 M159.75 72.15 L152.75 64.0 160.15 59.15 Q159.6 65.55 159.75 72.15" fill="#e7e7de" fill-rule="evenodd" stroke="none"/>
    <path d="M242.65 95.9 L235.55 81.7 Q237.05 72.9 242.0 72.55 240.55 77.15 240.75 84.35 L312.85 231.1 312.8 234.15 311.7 234.95 257.25 125.4 242.65 95.9 M351.8 315.65 L347.45 319.95 342.85 310.9 349.15 304.15 354.45 312.95 351.8 315.65 M338.5 302.0 L333.45 291.85 340.2 288.05 344.7 296.2 338.5 302.0 M330.8 286.45 L325.8 276.5 331.25 271.85 336.3 281.0 330.8 286.45 M319.75 264.25 L317.2 259.25 322.45 255.8 326.2 262.65 319.75 264.25 M313.75 252.25 L310.05 244.95 314.4 241.3 318.5 248.7 313.75 252.25" fill="#897656" fill-rule="evenodd" stroke="none"/>
    <path d="M242.0 72.55 Q244.25 72.35 247.55 74.1 L323.15 227.2 325.65 225.6 330.05 222.65 336.3 235.2 340.5 243.8 347.3 257.5 347.4 257.7 351.45 265.9 353.6 270.35 357.45 278.1 359.4 282.1 363.0 289.35 367.95 299.45 364.1 303.4 354.45 312.95 349.15 304.15 342.85 310.9 338.5 302.0 344.7 296.2 340.2 288.05 333.45 291.85 333.4 291.85 330.8 286.45 336.3 281.0 331.25 271.85 325.8 276.5 319.75 264.25 326.2 262.65 322.45 255.8 317.2 259.25 313.75 252.25 318.5 248.7 314.4 241.3 310.05 244.95 306.75 238.2 311.7 234.95 312.8 234.15 312.85 231.1 240.75 84.35 Q240.55 77.15 242.0 72.55 M367.65 310.55 L368.25 311.75 356.05 324.3 352.3 316.7 367.65 310.55 M259.6 113.4 Q258.6 113.7 258.3 114.5 257.95 115.25 258.4 116.2 258.8 117.05 259.85 117.45 260.7 117.95 261.65 117.7 262.55 117.35 262.85 116.55 263.2 115.75 262.75 114.9 262.3 113.95 261.4 113.55 L259.6 113.4 M251.55 97.15 Q250.55 97.4 250.25 98.2 249.85 98.95 250.3 99.9 250.75 100.75 251.8 101.25 L253.6 101.45 Q254.5 101.25 254.9 100.4 255.15 99.55 254.75 98.75 254.35 97.85 253.45 97.4 252.4 96.9 251.55 97.15 M323.15 227.2 L312.8 234.15 323.15 227.2 M331.45 226.8 L314.4 241.3 331.45 226.8 M347.3 257.5 L326.2 262.65 347.3 257.5 M340.5 243.8 L322.45 255.8 340.5 243.8 M347.4 257.7 L331.25 271.85 347.4 257.7 M333.4 291.85 L333.45 291.85 333.4 291.85 M353.6 270.35 L333.45 291.85 353.6 270.35 M336.3 235.2 L318.5 248.7 336.3 235.2 M359.4 282.1 L344.7 296.2 359.4 282.1 M340.2 288.05 L357.45 278.1 340.2 288.05 M351.45 265.9 L336.3 281.0 351.45 265.9 M363.0 289.35 L349.15 304.15 363.0 289.35" fill="#5a4e39" fill-rule="evenodd" stroke="none"/>
    <path d="M236.65 97.45 L242.65 95.9 257.25 125.4 252.85 126.9 252.75 126.85 236.65 97.45 M259.55 91.8 L264.65 90.45 286.55 115.9 273.55 120.15 259.55 91.8 M251.55 97.15 Q252.4 96.9 253.45 97.4 254.35 97.85 254.75 98.75 255.15 99.55 254.9 100.4 254.5 101.25 253.6 101.45 L251.8 101.25 Q250.75 100.75 250.3 99.9 249.85 98.95 250.25 98.2 250.55 97.4 251.55 97.15 M259.6 113.4 L261.4 113.55 Q262.3 113.95 262.75 114.9 263.2 115.75 262.85 116.55 262.55 117.35 261.65 117.7 260.7 117.95 259.85 117.45 258.8 117.05 258.4 116.2 257.95 115.25 258.3 114.5 258.6 113.7 259.6 113.4" fill="#677d92" fill-rule="evenodd" stroke="none"/>
    <path d="M277.05 97.25 L297.6 112.3 293.3 113.65 277.05 97.25" fill="#ccd3db" fill-rule="evenodd" stroke="none"/>
    <path d="M247.55 74.1 Q249.9 75.55 252.8 78.1 L259.55 91.8 273.55 120.15 325.65 225.6 323.15 227.2 247.55 74.1 M364.1 303.4 L367.65 310.55 352.3 316.7 351.8 315.65 354.45 312.95 364.1 303.4" fill="#3f3627" fill-rule="evenodd" stroke="none"/>
    <path d="M196.25 -5.2 Q194.4 -13.55 193.15 -21.6 183.8 -18.8 175.8 -14.95 128.95 7.75 129.6 66.0 L145.9 76.0 130.6 81.45 Q135.2 121.95 160.9 171.75 169.15 188.05 179.8 205.05 193.3 202.0 205.55 198.1 244.8 185.65 271.75 164.9 L272.4 164.65 M196.25 -5.2 Q206.95 42.7 236.0 96.15 M236.65 97.45 L242.65 95.9 235.55 81.7 Q237.05 72.9 242.0 72.55 244.25 72.35 247.55 74.1 249.9 75.55 252.8 78.1 L259.55 91.8 264.65 90.45 267.05 89.9 277.05 97.25 297.6 112.3 293.3 113.65 286.55 115.9 273.55 120.15 325.65 225.6 330.05 222.65 336.3 235.2 340.5 243.8 347.3 257.5 347.4 257.7 351.45 265.9 353.6 270.35 357.45 278.1 359.4 282.1 363.0 289.35 367.95 299.45 364.1 303.4 367.65 310.55 368.25 311.75 356.05 324.3 352.3 316.7 351.8 315.65 347.45 319.95 342.85 310.9 338.5 302.0 333.45 291.85 333.4 291.85 330.8 286.45 325.8 276.5 319.75 264.25 317.2 259.25 313.75 252.25 310.05 244.95 306.75 238.2 311.7 234.95 257.25 125.4 252.85 126.9 271.75 164.9 M251.55 97.15 Q252.4 96.9 253.45 97.4 254.35 97.85 254.75 98.75 255.15 99.55 254.9 100.4 254.5 101.25 253.6 101.45 L251.8 101.25 Q250.75 100.75 250.3 99.9 249.85 98.95 250.25 98.2 250.55 97.4 251.55 97.15 M259.6 113.4 L261.4 113.55 Q262.3 113.95 262.75 114.9 263.2 115.75 262.85 116.55 262.55 117.35 261.65 117.7 260.7 117.95 259.85 117.45 258.8 117.05 258.4 116.2 257.95 115.25 258.3 114.5 258.6 113.7 259.6 113.4 M257.25 125.4 L242.65 95.9 M259.55 91.8 L273.55 120.15 M323.15 227.2 L325.65 225.6 M311.7 234.95 L312.8 234.15 323.15 227.2 M310.05 244.95 L314.4 241.3 331.45 226.8 M313.75 252.25 L318.5 248.7 336.3 235.2 M326.2 262.65 L347.3 257.5 M326.2 262.65 L319.75 264.25 M317.2 259.25 L322.45 255.8 340.5 243.8 M325.8 276.5 L331.25 271.85 347.4 257.7 M330.8 286.45 L336.3 281.0 351.45 265.9 M333.45 291.85 L333.4 291.85 M338.5 302.0 L344.7 296.2 359.4 282.1 M340.2 288.05 L333.45 291.85 353.6 270.35 M342.85 310.9 L349.15 304.15 363.0 289.35 M357.45 278.1 L340.2 288.05 M351.8 315.65 L354.45 312.95 364.1 303.4" fill="none" stroke="#000000" stroke-linecap="round" stroke-linejoin="round" stroke-opacity="0.2509804" stroke-width="0.05"/>
  </g>
</svg>
