<?xml version="1.0" encoding="UTF-8" standalone="no"?>
<svg xmlns:xlink="http://www.w3.org/1999/xlink" height="496.65px" width="238.15px" xmlns="http://www.w3.org/2000/svg">
  <g transform="matrix(1.0, 0.0, 0.0, 1.0, 119.05, 248.3)">
    <path d="M49.8 -238.05 Q62.25 -218.9 58.75 -210.4 52.1 -194.0 50.4 -177.65 L50.2 -178.05 37.45 -189.15 49.8 -238.05 M81.05 -125.9 L78.9 -102.5 Q43.6 -136.55 3.6 -165.8 L10.55 -201.55 Q49.25 -165.1 81.05 -125.9 M-28.5 -217.4 L-32.0 -204.2 -52.55 -189.35 -43.3 -205.45 -28.5 -217.4 M-73.65 -180.95 L-49.9 -200.15 Q-60.55 -189.4 -68.4 -177.85 L-52.55 -189.35 Q-76.95 -144.45 -75.3 -116.9 L-97.9 -100.45 -84.1 -146.25 Q-78.7 -162.75 -68.4 -177.85 L-76.3 -172.15 -73.65 -180.95" fill="#6e5213" fill-rule="evenodd" stroke="none"/>
    <path d="M50.4 -177.65 Q53.3 -171.5 57.3 -171.85 L57.55 -161.75 50.4 -177.65 M-67.2 -54.6 Q-67.55 -58.55 -77.15 -60.9 L-59.6 -71.75 Q-7.65 -49.35 59.7 -34.65 L26.95 -18.0 -67.2 -54.6 M73.25 -41.55 L67.5 -38.6 Q12.5 -62.15 -27.4 -91.65 L-11.0 -101.75 Q9.3 -84.15 31.2 -68.65 L21.8 -86.6 38.75 -63.4 50.35 -55.75 37.5 -71.85 61.75 -48.4 73.25 -41.55 M-49.9 -200.15 L-43.3 -205.45 -52.55 -189.35 -68.4 -177.85 Q-60.55 -189.4 -49.9 -200.15" fill="#4b2d02" fill-rule="evenodd" stroke="none"/>
    <path d="M37.45 -189.15 L50.2 -178.05 50.4 -177.65 57.55 -161.75 57.3 -171.85 81.2 -151.0 83.2 -149.25 81.05 -125.9 Q49.25 -165.1 10.55 -201.55 L12.4 -211.05 24.7 -200.3 37.45 -189.15 M76.65 -78.5 L73.25 -41.55 61.75 -48.4 37.5 -71.85 50.35 -55.75 38.75 -63.4 21.8 -86.6 31.2 -68.65 Q9.3 -84.15 -11.0 -101.75 L-8.55 -103.3 -4.35 -125.1 Q34.0 -93.85 76.65 -78.5 M-32.0 -204.2 L-38.45 -180.0 Q-65.7 -151.0 -48.3 -143.0 L-50.45 -134.95 -75.3 -116.9 Q-76.95 -144.45 -52.55 -189.35 L-32.0 -204.2 M-76.3 -172.15 L-68.4 -177.85 Q-78.7 -162.75 -84.1 -146.25 L-76.3 -172.15 M53.95 -109.35 Q23.5 -125.0 9.55 -148.15 42.9 -130.25 53.95 -109.35" fill="#9f7c2a" fill-rule="evenodd" stroke="none"/>
    <path d="M81.2 -151.0 L88.6 -153.95 78.85 -41.7 73.25 -41.55 76.65 -78.5 77.4 -86.3 78.1 -94.1 78.9 -102.5 81.05 -125.9 83.2 -149.25 81.2 -151.0 M-119.05 -79.1 Q-98.75 -133.8 -83.1 -188.5 -48.9 -212.75 -17.35 -241.0 L-36.35 -169.75 -42.3 -165.5 -38.45 -180.0 -32.0 -204.2 -28.5 -217.4 -25.25 -229.75 -79.65 -185.35 -108.85 -92.55 -97.9 -100.45 -75.3 -116.9 -50.45 -134.95 -48.3 -143.0 -43.5 -161.1 -40.25 -164.2 -37.0 -167.3 -44.5 -139.05 -40.1 -126.3 -56.25 -124.25 -119.05 -79.1" fill="#cccccc" fill-rule="evenodd" stroke="none"/>
    <path d="M88.6 -153.95 Q103.85 -138.45 119.1 -128.85 111.6 -73.8 111.95 -15.55 L80.9 -38.15 78.85 -41.7 88.6 -153.95 M-17.35 -241.0 Q-5.8 -229.2 7.9 -219.5 L13.3 -215.8 12.4 -211.05 10.55 -201.55 3.6 -165.8 -2.3 -135.45 -4.35 -125.1 -8.55 -103.3 -40.1 -126.3 -44.5 -139.05 -37.0 -167.3 -24.85 -160.95 -36.35 -169.75 -17.35 -241.0 M102.4 -126.5 Q99.2 -128.8 97.05 -127.45 94.8 -126.1 94.9 -121.9 94.9 -117.8 97.2 -113.15 99.45 -108.55 102.65 -106.25 105.7 -104.0 107.9 -105.3 110.1 -106.7 110.1 -110.85 110.0 -115.05 107.75 -119.65 105.45 -124.25 102.4 -126.5 M103.35 -54.45 Q101.05 -59.05 98.0 -61.3 94.8 -63.6 92.65 -62.25 90.4 -60.9 90.5 -56.7 90.5 -52.6 92.8 -47.95 95.05 -43.35 98.25 -41.05 101.3 -38.8 103.5 -40.1 105.7 -41.5 105.7 -45.65 105.6 -49.85 103.35 -54.45 M-6.4 -212.35 Q-9.6 -214.65 -11.75 -213.3 -14.0 -211.95 -13.9 -207.75 -13.9 -203.65 -11.6 -199.0 -9.35 -194.4 -6.15 -192.1 -3.1 -189.85 -0.9 -191.15 1.3 -192.55 1.3 -196.7 1.2 -200.9 -1.05 -205.5 -3.35 -210.1 -6.4 -212.35 M-14.65 -143.9 Q-16.95 -148.5 -20.0 -150.75 -23.2 -153.05 -25.35 -151.7 -27.6 -150.35 -27.5 -146.15 -27.5 -142.05 -25.2 -137.4 -22.95 -132.8 -19.75 -130.5 -16.7 -128.25 -14.5 -129.55 -12.3 -130.95 -12.3 -135.1 -12.4 -139.3 -14.65 -143.9" fill="#999999" fill-rule="evenodd" stroke="none"/>
    <path d="M102.4 -126.5 Q105.45 -124.25 107.75 -119.65 110.0 -115.05 110.1 -110.85 110.1 -106.7 107.9 -105.3 105.7 -104.0 102.65 -106.25 99.45 -108.55 97.2 -113.15 94.9 -117.8 94.9 -121.9 94.8 -126.1 97.05 -127.45 99.2 -128.8 102.4 -126.5" fill="url(#gradient0)" fill-rule="evenodd" stroke="none"/>
    <path d="M49.8 -238.05 L37.45 -189.15 24.7 -200.3 32.45 -248.3 Q43.15 -243.2 49.8 -238.05 M4.5 -9.4 L-67.2 -54.6 26.95 -18.0 6.95 -7.85 4.5 -9.4 M67.5 -38.6 L59.7 -34.65 Q-7.65 -49.35 -59.6 -71.75 L-27.4 -91.65 Q12.5 -62.15 67.5 -38.6" fill="#2b1a00" fill-rule="evenodd" stroke="none"/>
    <path d="M7.9 -219.5 Q10.65 -228.0 10.15 -241.2 15.85 -244.95 22.25 -246.7 L22.25 -217.1 27.25 -247.8 32.45 -248.3 24.7 -200.3 12.4 -211.05 13.3 -215.8 7.9 -219.5 M78.9 -102.5 L78.1 -94.1 77.4 -86.3 76.65 -78.5 Q34.0 -93.85 -4.35 -125.1 L-2.3 -135.45 3.6 -165.8 Q43.6 -136.55 78.9 -102.5 M78.1 -94.1 L56.85 -117.6 78.1 -94.1 M-38.45 -180.0 L-42.3 -165.5 -40.25 -164.2 -43.5 -161.1 -48.3 -143.0 Q-65.7 -151.0 -38.45 -180.0 M53.95 -109.35 Q42.9 -130.25 9.55 -148.15 23.5 -125.0 53.95 -109.35 M77.4 -86.3 Q17.35 -113.2 -2.3 -135.45 17.35 -113.2 77.4 -86.3" fill="#bda15a" fill-rule="evenodd" stroke="none"/>
    <path d="M111.95 -15.55 L33.5 17.6 3.45 -1.45 4.5 -9.4 6.95 -7.85 26.95 -18.0 59.7 -34.65 67.5 -38.6 73.25 -41.55 78.85 -41.7 80.9 -38.15 111.95 -15.55 M-77.15 -60.9 L-80.5 -58.8 -87.4 -59.05 -119.05 -79.1 -56.25 -124.25 -40.1 -126.3 -8.55 -103.3 -11.0 -101.75 -27.4 -91.65 -59.6 -71.75 -77.15 -60.9 M72.7 -22.7 Q68.55 -22.65 65.75 -20.8 62.9 -18.95 63.1 -16.45 63.3 -13.95 66.4 -12.15 69.45 -10.35 73.6 -10.4 77.7 -10.45 80.55 -12.25 83.35 -14.1 83.2 -16.65 83.0 -19.2 79.95 -20.95 76.85 -22.7 72.7 -22.7 M40.8 4.45 Q44.9 4.4 47.75 2.6 50.55 0.75 50.4 -1.8 50.2 -4.35 47.15 -6.1 44.05 -7.85 39.9 -7.85 35.75 -7.8 32.95 -5.95 30.1 -4.1 30.3 -1.6 30.5 0.9 33.6 2.7 36.65 4.5 40.8 4.45 M-25.25 -229.75 L-28.5 -217.4 -43.3 -205.45 -49.9 -200.15 -73.65 -180.95 -79.65 -185.35 -25.25 -229.75 M-42.25 -101.05 Q-42.45 -103.6 -45.5 -105.35 -48.6 -107.1 -52.75 -107.1 -56.9 -107.05 -59.7 -105.2 -62.55 -103.35 -62.35 -100.85 -62.15 -98.35 -59.05 -96.55 -56.0 -94.75 -51.85 -94.8 -47.75 -94.85 -44.9 -96.65 -42.1 -98.5 -42.25 -101.05 M-74.5 -79.45 Q-74.7 -82.0 -77.75 -83.75 -80.85 -85.5 -85.0 -85.5 -89.15 -85.45 -91.95 -83.6 -94.8 -81.75 -94.6 -79.25 -94.4 -76.75 -91.3 -74.95 -88.25 -73.15 -84.1 -73.2 -80.0 -73.25 -77.15 -75.05 -74.35 -76.9 -74.5 -79.45" fill="#333333" fill-rule="evenodd" stroke="none"/>
    <path d="M72.7 -22.7 Q76.85 -22.7 79.95 -20.95 83.0 -19.2 83.2 -16.65 83.35 -14.1 80.55 -12.25 77.7 -10.45 73.6 -10.4 69.45 -10.35 66.4 -12.15 63.3 -13.95 63.1 -16.45 62.9 -18.95 65.75 -20.8 68.55 -22.65 72.7 -22.7" fill="url(#gradient1)" fill-rule="evenodd" stroke="none"/>
    <path d="M103.35 -54.45 Q105.6 -49.85 105.7 -45.65 105.7 -41.5 103.5 -40.1 101.3 -38.8 98.25 -41.05 95.05 -43.35 92.8 -47.95 90.5 -52.6 90.5 -56.7 90.4 -60.9 92.65 -62.25 94.8 -63.6 98.0 -61.3 101.05 -59.05 103.35 -54.45" fill="url(#gradient2)" fill-rule="evenodd" stroke="none"/>
    <path d="M40.8 4.45 Q36.65 4.5 33.6 2.7 30.5 0.9 30.3 -1.6 30.1 -4.1 32.95 -5.95 35.75 -7.8 39.9 -7.85 44.05 -7.85 47.15 -6.1 50.2 -4.35 50.4 -1.8 50.55 0.75 47.75 2.6 44.9 4.4 40.8 4.45" fill="url(#gradient3)" fill-rule="evenodd" stroke="none"/>
    <path d="M22.25 -246.7 Q24.7 -241.4 27.25 -247.8 L22.25 -217.1 22.25 -246.7" fill="#b3861f" fill-rule="evenodd" stroke="none"/>
    <path d="M-6.4 -212.35 Q-3.35 -210.1 -1.05 -205.5 1.2 -200.9 1.3 -196.7 1.3 -192.55 -0.9 -191.15 -3.1 -189.85 -6.15 -192.1 -9.35 -194.4 -11.6 -199.0 -13.9 -203.65 -13.9 -207.75 -14.0 -211.95 -11.75 -213.3 -9.6 -214.65 -6.4 -212.35" fill="url(#gradient4)" fill-rule="evenodd" stroke="none"/>
    <path d="M-42.3 -165.5 L-36.35 -169.75 -24.85 -160.95 -37.0 -167.3 -40.25 -164.2 -42.3 -165.5 M-79.65 -185.35 L-73.65 -180.95 -76.3 -172.15 -84.1 -146.25 -97.9 -100.45 -108.85 -92.55 -79.65 -185.35" fill="#787878" fill-rule="evenodd" stroke="none"/>
    <path d="M-14.65 -143.9 Q-12.4 -139.3 -12.3 -135.1 -12.3 -130.95 -14.5 -129.55 -16.7 -128.25 -19.75 -130.5 -22.95 -132.8 -25.2 -137.4 -27.5 -142.05 -27.5 -146.15 -27.6 -150.35 -25.35 -151.7 -23.2 -153.05 -20.0 -150.75 -16.95 -148.5 -14.65 -143.9" fill="url(#gradient5)" fill-rule="evenodd" stroke="none"/>
    <path d="M-42.25 -101.05 Q-42.1 -98.5 -44.9 -96.65 -47.75 -94.85 -51.85 -94.8 -56.0 -94.75 -59.05 -96.55 -62.15 -98.35 -62.35 -100.85 -62.55 -103.35 -59.7 -105.2 -56.9 -107.05 -52.75 -107.1 -48.6 -107.1 -45.5 -105.35 -42.45 -103.6 -42.25 -101.05" fill="url(#gradient6)" fill-rule="evenodd" stroke="none"/>
    <path d="M-74.5 -79.45 Q-74.35 -76.9 -77.15 -75.05 -80.0 -73.25 -84.1 -73.2 -88.25 -73.15 -91.3 -74.95 -94.4 -76.75 -94.6 -79.25 -94.8 -81.75 -91.95 -83.6 -89.15 -85.45 -85.0 -85.5 -80.85 -85.5 -77.75 -83.75 -74.7 -82.0 -74.5 -79.45" fill="url(#gradient7)" fill-rule="evenodd" stroke="none"/>
    <path d="M50.4 -177.65 Q52.1 -194.0 58.75 -210.4 62.25 -218.9 49.8 -238.05 43.15 -243.2 32.45 -248.3 L27.25 -247.8 Q24.7 -241.4 22.25 -246.7 15.85 -244.95 10.15 -241.2 10.65 -228.0 7.9 -219.5 L13.3 -215.8 12.4 -211.05 24.7 -200.3 37.45 -189.15 50.2 -178.05 50.4 -177.65 Q53.3 -171.5 57.3 -171.85 L81.2 -151.0 88.6 -153.95 Q103.85 -138.45 119.1 -128.85 111.6 -73.8 111.95 -15.55 L33.5 17.6 3.45 -1.45 4.5 -9.4 -67.2 -54.6 Q-67.55 -58.55 -77.15 -60.9 L-80.5 -58.8 -87.4 -59.05 -119.05 -79.1 Q-98.75 -133.8 -83.1 -188.5 -48.9 -212.75 -17.35 -241.0 -5.8 -229.2 7.9 -219.5 M81.2 -151.0 L83.2 -149.25 81.05 -125.9 78.9 -102.5 78.1 -94.1 77.4 -86.3 76.65 -78.5 73.25 -41.55 67.5 -38.6 59.7 -34.65 26.95 -18.0 6.95 -7.85 4.5 -9.4 M-11.0 -101.75 L-27.4 -91.65 -59.6 -71.75 -77.15 -60.9 M-25.25 -229.75 L-28.5 -217.4 -32.0 -204.2 -38.45 -180.0 -42.3 -165.5 -40.25 -164.2 -37.0 -167.3 M-73.65 -180.95 L-49.9 -200.15 -43.3 -205.45 -28.5 -217.4 M-73.65 -180.95 L-76.3 -172.15 -84.1 -146.25 -97.9 -100.45 -75.3 -116.9 -50.45 -134.95 -48.3 -143.0 -43.5 -161.1 -40.25 -164.2 M10.55 -201.55 L3.6 -165.8 -2.3 -135.45 -4.35 -125.1 -8.55 -103.3 -11.0 -101.75 M12.4 -211.05 L10.55 -201.55" fill="none" stroke="#352400" stroke-linecap="round" stroke-linejoin="round" stroke-opacity="0.7019608" stroke-width="0.05"/>
    <path d="M102.4 -126.5 Q105.45 -124.25 107.75 -119.65 110.0 -115.05 110.1 -110.85 110.1 -106.7 107.9 -105.3 105.7 -104.0 102.65 -106.25 99.45 -108.55 97.2 -113.15 94.9 -117.8 94.9 -121.9 94.8 -126.1 97.05 -127.45 99.2 -128.8 102.4 -126.5 M72.7 -22.7 Q76.85 -22.7 79.95 -20.95 83.0 -19.2 83.2 -16.65 83.35 -14.1 80.55 -12.25 77.7 -10.45 73.6 -10.4 69.45 -10.35 66.4 -12.15 63.3 -13.95 63.1 -16.45 62.9 -18.95 65.75 -20.8 68.55 -22.65 72.7 -22.7 M103.35 -54.45 Q105.6 -49.85 105.7 -45.65 105.7 -41.5 103.5 -40.1 101.3 -38.8 98.25 -41.05 95.05 -43.35 92.8 -47.95 90.5 -52.6 90.5 -56.7 90.4 -60.9 92.65 -62.25 94.8 -63.6 98.0 -61.3 101.05 -59.05 103.35 -54.45 M40.8 4.45 Q36.65 4.5 33.6 2.7 30.5 0.9 30.3 -1.6 30.1 -4.1 32.95 -5.95 35.75 -7.8 39.9 -7.85 44.05 -7.85 47.15 -6.1 50.2 -4.35 50.4 -1.8 50.55 0.75 47.75 2.6 44.9 4.4 40.8 4.45 M-6.4 -212.35 Q-3.35 -210.1 -1.05 -205.5 1.2 -200.9 1.3 -196.7 1.3 -192.55 -0.9 -191.15 -3.1 -189.85 -6.15 -192.1 -9.35 -194.4 -11.6 -199.0 -13.9 -203.65 -13.9 -207.75 -14.0 -211.95 -11.75 -213.3 -9.6 -214.65 -6.4 -212.35 M-14.65 -143.9 Q-12.4 -139.3 -12.3 -135.1 -12.3 -130.95 -14.5 -129.55 -16.7 -128.25 -19.75 -130.5 -22.95 -132.8 -25.2 -137.4 -27.5 -142.05 -27.5 -146.15 -27.6 -150.35 -25.35 -151.7 -23.2 -153.05 -20.0 -150.75 -16.95 -148.5 -14.65 -143.9 M-42.25 -101.05 Q-42.1 -98.5 -44.9 -96.65 -47.75 -94.85 -51.85 -94.8 -56.0 -94.75 -59.05 -96.55 -62.15 -98.35 -62.35 -100.85 -62.55 -103.35 -59.7 -105.2 -56.9 -107.05 -52.75 -107.1 -48.6 -107.1 -45.5 -105.35 -42.45 -103.6 -42.25 -101.05 M-74.5 -79.45 Q-74.35 -76.9 -77.15 -75.05 -80.0 -73.25 -84.1 -73.2 -88.25 -73.15 -91.3 -74.95 -94.4 -76.75 -94.6 -79.25 -94.8 -81.75 -91.95 -83.6 -89.15 -85.45 -85.0 -85.5 -80.85 -85.5 -77.75 -83.75 -74.7 -82.0 -74.5 -79.45" fill="none" stroke="#333333" stroke-linecap="round" stroke-linejoin="round" stroke-opacity="0.43137255" stroke-width="0.05"/>
    <path d="M73.25 -41.55 L61.75 -48.4 37.5 -71.85 50.35 -55.75 38.75 -63.4 21.8 -86.6 31.2 -68.65 Q9.3 -84.15 -11.0 -101.75 M-84.1 -146.25 Q-78.7 -162.75 -68.4 -177.85 M-75.3 -116.9 Q-76.95 -144.45 -52.55 -189.35 M3.6 -165.8 Q43.6 -136.55 78.9 -102.5 M-48.3 -143.0 Q-65.7 -151.0 -38.45 -180.0 M10.55 -201.55 Q49.25 -165.1 81.05 -125.9 M53.95 -109.35 Q23.5 -125.0 9.55 -148.15 42.9 -130.25 53.95 -109.35 M76.65 -78.5 Q34.0 -93.85 -4.35 -125.1" fill="none" stroke="#553900" stroke-linecap="round" stroke-linejoin="round" stroke-opacity="0.6" stroke-width="0.05"/>
    <path d="M56.85 -117.6 L78.1 -94.1 M-2.3 -135.45 Q17.35 -113.2 77.4 -86.3" fill="none" stroke="#6e5213" stroke-linecap="round" stroke-linejoin="round" stroke-opacity="0.61960787" stroke-width="0.05"/>
    <path d="M-16.15 -62.0 L-13.0 -62.25 Q-17.4 -35.8 -23.0 -9.95 -27.15 9.2 -31.95 28.0 -37.4 22.8 -44.6 36.8 -35.55 -2.65 -28.0 -43.8 L-26.85 -50.3 Q-23.1 -60.45 -16.15 -62.0 M-78.05 169.25 Q-71.25 148.85 -66.95 128.65 L-65.15 119.65 Q-61.95 118.15 -58.65 117.3 -54.4 116.15 -50.0 116.0 -54.95 135.65 -60.5 152.75 L-64.7 165.45 Q-69.8 161.8 -78.05 169.25" fill="#9f7c2a" fill-rule="evenodd" stroke="none"/>
    <path d="M-13.0 -62.25 L-16.15 -62.0 Q-18.75 -64.55 -16.6 -67.65 1.55 -66.7 11.95 -53.85 13.5 -45.75 7.95 -48.4 L-9.05 12.15 Q-8.35 -12.5 -23.0 -9.95 -17.4 -35.8 -13.0 -62.25 M-45.45 116.15 L-41.2 116.75 Q-35.65 117.8 -31.8 119.9 -37.7 137.35 -42.3 155.0 L-44.2 162.5 Q-45.15 151.4 -54.95 151.3 L-45.45 116.15 M-47.5 225.15 L-45.85 212.4 -45.8 229.85 Q-37.05 235.6 -38.45 241.35 -45.9 246.6 -60.3 244.9 -89.55 240.15 -94.65 225.75 -91.7 215.3 -60.75 222.6 -54.55 224.95 -50.05 227.35 L-47.5 225.15" fill="#2b1a00" fill-rule="evenodd" stroke="none"/>
    <path d="M-16.15 -62.0 Q-23.1 -60.45 -26.85 -50.3 L-28.0 -43.8 Q-30.8 -46.85 -30.25 -55.1 -27.15 -67.85 -17.5 -67.7 L-16.6 -67.65 Q-18.75 -64.55 -16.15 -62.0 M-31.95 28.0 Q-27.15 9.2 -23.0 -9.95 -8.35 -12.5 -9.05 12.15 L-13.45 35.25 -27.75 110.25 -21.9 114.5 Q-17.3 126.1 -26.85 123.75 -28.8 121.5 -31.8 119.9 -35.65 117.8 -41.2 116.75 L-45.45 116.15 -50.0 116.0 Q-54.4 116.15 -58.65 117.3 -68.25 111.9 -58.8 106.5 L-55.0 105.4 Q-42.0 67.45 -31.95 28.0 M7.95 -48.4 Q13.5 -45.75 11.95 -53.85 16.3 -43.35 15.95 -36.05 14.35 -29.5 9.25 -29.8 L9.8 -31.75 Q12.35 -40.85 7.95 -48.4 M-46.95 107.15 L-37.55 107.15 -16.15 10.4 -37.55 107.15 -46.95 107.15 M-44.2 162.5 Q-51.35 191.7 -54.95 221.45 -59.9 219.3 -66.1 217.25 L-72.5 215.95 -56.55 157.2 -54.95 151.3 Q-45.15 151.4 -44.2 162.5" fill="#4b2d02" fill-rule="evenodd" stroke="none"/>
    <path d="M7.95 -48.4 Q12.35 -40.85 9.8 -31.75 L9.25 -29.8 Q-1.65 9.45 -9.0 47.1 -8.8 32.75 -13.45 35.25 L-9.05 12.15 7.95 -48.4 M-25.15 136.8 Q-28.35 152.75 -30.4 169.1 -34.9 158.3 -42.3 155.0 -37.7 137.35 -31.8 119.9 -28.8 121.5 -26.85 123.75 -24.55 126.4 -23.75 129.9 L-25.15 136.8" fill="#6e5213" fill-rule="evenodd" stroke="none"/>
    <path d="M-44.6 36.8 Q-37.4 22.8 -31.95 28.0 -42.0 67.45 -55.0 105.4 L-58.8 106.5 Q-68.25 111.9 -58.65 117.3 -61.95 118.15 -65.15 119.65 L-66.95 128.65 Q-71.55 128.2 -72.8 120.95 -72.15 111.6 -62.55 107.6 -52.95 72.9 -44.6 36.8 M-100.45 223.55 Q-87.05 196.2 -78.05 169.25 -69.8 161.8 -64.7 165.45 -73.5 191.25 -83.9 215.15 -95.8 215.7 -100.45 223.55 M-58.8 106.5 L-62.55 107.6 -58.8 106.5" fill="#bda15a" fill-rule="evenodd" stroke="none"/>
    <path d="M-9.0 47.1 Q-15.95 82.3 -19.75 116.05 -13.95 123.8 -16.3 129.8 -19.1 136.8 -25.15 136.8 L-23.75 129.9 Q-24.55 126.4 -26.85 123.75 -17.3 126.1 -21.9 114.5 L-27.75 110.25 -13.45 35.25 Q-8.8 32.75 -9.0 47.1 M-30.4 169.1 Q-34.9 204.1 -34.4 240.65 -34.85 233.9 -43.15 227.95 L-40.7 172.65 -45.85 212.4 -47.5 225.15 Q-50.8 223.25 -54.95 221.45 -51.35 191.7 -44.2 162.5 L-42.3 155.0 Q-34.9 158.3 -30.4 169.1 M-21.9 114.5 L-19.75 116.05 -21.9 114.5 M-64.7 165.45 L-60.5 152.75 Q-57.05 152.6 -56.55 157.2 L-72.5 215.95 -83.9 215.15 Q-73.5 191.25 -64.7 165.45" fill="#7f5f15" fill-rule="evenodd" stroke="none"/>
    <path d="M-50.0 116.0 L-45.45 116.15 -54.95 151.3 -56.55 157.2 Q-57.05 152.6 -60.5 152.75 -54.95 135.65 -50.0 116.0" fill="#755714" fill-rule="evenodd" stroke="none"/>
    <path d="M-34.4 240.65 L-34.4 241.8 Q-37.3 249.8 -64.75 248.05 -99.95 240.7 -100.45 223.55 -95.8 215.7 -83.9 215.15 L-72.5 215.95 -66.1 217.25 Q-59.9 219.3 -54.95 221.45 -50.8 223.25 -47.5 225.15 L-50.05 227.35 Q-54.55 224.95 -60.75 222.6 -91.7 215.3 -94.65 225.75 -89.55 240.15 -60.3 244.9 -45.9 246.6 -38.45 241.35 -37.05 235.6 -45.8 229.85 L-45.85 212.4 -40.7 172.65 -43.15 227.95 Q-34.85 233.9 -34.4 240.65" fill="#b3861f" fill-rule="evenodd" stroke="none"/>
    <path d="M-13.0 -62.25 L-16.15 -62.0 Q-23.1 -60.45 -26.85 -50.3 M-16.6 -67.65 L-17.5 -67.7 Q-27.15 -67.85 -30.25 -55.1 -30.8 -46.85 -28.0 -43.8 M11.95 -53.85 Q1.55 -66.7 -16.6 -67.65 M9.25 -29.8 Q14.35 -29.5 15.95 -36.05 16.3 -43.35 11.95 -53.85 M7.95 -48.4 Q12.35 -40.85 9.8 -31.75 L9.25 -29.8 Q-1.65 9.45 -9.0 47.1 -15.95 82.3 -19.75 116.05 -13.95 123.8 -16.3 129.8 -19.1 136.8 -25.15 136.8 -28.35 152.75 -30.4 169.1 -34.9 204.1 -34.4 240.65 L-34.4 241.8 Q-37.3 249.8 -64.75 248.05 -99.95 240.7 -100.45 223.55 -87.05 196.2 -78.05 169.25 -71.25 148.85 -66.95 128.65 -71.55 128.2 -72.8 120.95 -72.15 111.6 -62.55 107.6 L-58.8 106.5 M-16.15 10.4 L-37.55 107.15 -46.95 107.15 M-45.45 116.15 L-41.2 116.75 Q-35.65 117.8 -31.8 119.9 -28.8 121.5 -26.85 123.75 -24.55 126.4 -23.75 129.9 L-25.15 136.8 M-19.75 116.05 L-21.9 114.5 M-47.5 225.15 L-45.85 212.4 -45.8 229.85 Q-37.05 235.6 -38.45 241.35 -45.9 246.6 -60.3 244.9 -89.55 240.15 -94.65 225.75 -91.7 215.3 -60.75 222.6 -54.55 224.95 -50.05 227.35 L-47.5 225.15 M-58.65 117.3 Q-61.95 118.15 -65.15 119.65 L-66.95 128.65 M-58.65 117.3 Q-54.4 116.15 -50.0 116.0 L-45.45 116.15 M-66.1 217.25 L-72.5 215.95" fill="none" stroke="#352400" stroke-linecap="round" stroke-linejoin="round" stroke-opacity="0.7019608" stroke-width="0.05"/>
    <path d="M-26.85 -50.3 L-28.0 -43.8 Q-35.55 -2.65 -44.6 36.8 -52.95 72.9 -62.55 107.6" fill="none" stroke="#352400" stroke-linecap="round" stroke-linejoin="round" stroke-opacity="0.7019608" stroke-width="0.05"/>
  </g>
  <defs>
    <radialGradient cx="0" cy="0" gradientTransform="matrix(0.0162, 0.0, 0.0, 0.0162, 105.1, -117.95)" gradientUnits="userSpaceOnUse" id="gradient0" r="819.2" spreadMethod="pad">
      <stop offset="0.0" stop-color="#cccccc"/>
      <stop offset="1.0" stop-color="#999999"/>
    </radialGradient>
    <radialGradient cx="0" cy="0" gradientTransform="matrix(0.0138, 0.0, 0.0, 0.0138, 72.1, -18.0)" gradientUnits="userSpaceOnUse" id="gradient1" r="819.2" spreadMethod="pad">
      <stop offset="0.0" stop-color="#9f9f9f"/>
      <stop offset="1.0" stop-color="#333333"/>
    </radialGradient>
    <radialGradient cx="0" cy="0" gradientTransform="matrix(0.0192, 0.0, 0.0, 0.0192, 99.1, -55.0)" gradientUnits="userSpaceOnUse" id="gradient2" r="819.2" spreadMethod="pad">
      <stop offset="0.0" stop-color="#cccccc"/>
      <stop offset="1.0" stop-color="#999999"/>
    </radialGradient>
    <radialGradient cx="0" cy="0" gradientTransform="matrix(0.0132, 0.0, 0.0, 0.0132, 41.1, -2.0)" gradientUnits="userSpaceOnUse" id="gradient3" r="819.2" spreadMethod="pad">
      <stop offset="0.0" stop-color="#9f9f9f"/>
      <stop offset="1.0" stop-color="#333333"/>
    </radialGradient>
    <radialGradient cx="0" cy="0" gradientTransform="matrix(0.0176, 0.0, 0.0, 0.0176, -3.9, -204.95)" gradientUnits="userSpaceOnUse" id="gradient4" r="819.2" spreadMethod="pad">
      <stop offset="0.0" stop-color="#cccccc"/>
      <stop offset="1.0" stop-color="#999999"/>
    </radialGradient>
    <radialGradient cx="0" cy="0" gradientTransform="matrix(0.017, 0.0, 0.0, 0.017, -20.9, -141.95)" gradientUnits="userSpaceOnUse" id="gradient5" r="819.2" spreadMethod="pad">
      <stop offset="0.0" stop-color="#cccccc"/>
      <stop offset="1.0" stop-color="#999999"/>
    </radialGradient>
    <radialGradient cx="0" cy="0" gradientTransform="matrix(0.0154, 0.0, 0.0, 0.0154, -54.9, -100.95)" gradientUnits="userSpaceOnUse" id="gradient6" r="819.2" spreadMethod="pad">
      <stop offset="0.0" stop-color="#9f9f9f"/>
      <stop offset="1.0" stop-color="#333333"/>
    </radialGradient>
    <radialGradient cx="0" cy="0" gradientTransform="matrix(0.0154, 0.0, 0.0, 0.0154, -86.9, -80.95)" gradientUnits="userSpaceOnUse" id="gradient7" r="819.2" spreadMethod="pad">
      <stop offset="0.0" stop-color="#9f9f9f"/>
      <stop offset="1.0" stop-color="#333333"/>
    </radialGradient>
  </defs>
</svg>
