<?xml version="1.0" encoding="UTF-8" standalone="no"?>
<svg xmlns:xlink="http://www.w3.org/1999/xlink" height="252.45px" width="200.7px" xmlns="http://www.w3.org/2000/svg">
  <g transform="matrix(1.0, 0.0, 0.0, 1.0, 100.35, 127.1)">
    <path d="M79.1 -67.65 Q82.5 -63.5 86.85 -60.1 88.8 -58.55 90.95 -57.35 95.35 -54.95 96.8 -52.05 99.65 -46.2 95.05 -40.8 89.35 -34.1 80.8 -32.95 70.65 -31.6 62.05 -36.45 53.4 -41.35 47.0 -49.2 39.9 -57.95 35.0 -68.15 L33.25 -71.7 Q29.7 -78.35 25.05 -84.25 23.4 -86.45 20.8 -86.5 L19.0 -86.35 18.15 -86.0 Q18.8 -79.35 16.25 -74.8 L15.35 -73.5 12.05 -69.85 10.65 -68.2 Q8.1 -65.1 5.1 -63.35 L3.95 -62.8 2.8 -62.5 -6.2 -62.05 Q-8.1 -63.85 -10.35 -64.6 L-10.85 -64.7 -13.05 -64.6 Q-15.5 -63.75 -17.05 -62.05 -18.25 -60.75 -18.95 -58.95 -19.7 -57.05 -20.6 -55.25 L-22.5 -50.8 Q-23.95 -46.75 -26.35 -43.15 -32.6 -33.8 -38.45 -24.2 -40.65 -20.55 -43.55 -17.45 -47.8 -12.95 -52.9 -9.65 -66.5 -0.75 -82.1 -4.35 L-82.55 -5.15 Q-48.35 -24.0 -39.0 -65.25 -33.85 -88.1 -12.35 -85.95 L-4.9 -75.25 -3.15 -72.8 -2.45 -71.85 Q0.85 -67.5 4.65 -65.0 L3.6 -70.0 8.6 -71.65 Q8.45 -77.85 6.0 -83.9 3.7 -89.45 6.0 -95.15 8.3 -101.0 11.6 -106.3 17.55 -98.75 26.7 -98.5 27.5 -98.5 28.1 -98.0 33.7 -93.15 36.8 -85.6 42.6 -71.65 55.15 -63.7 56.35 -62.85 57.7 -63.5 61.45 -65.25 61.15 -69.6 L62.75 -68.2 61.95 -69.95 61.7 -70.45 Q54.25 -87.6 47.45 -104.9 45.8 -109.05 43.25 -112.65 L40.55 -115.85 Q42.85 -118.2 45.45 -118.6 49.85 -115.0 52.75 -109.8 L53.95 -106.95 54.5 -105.25 58.95 -91.15 59.55 -89.2 61.35 -83.1 64.1 -73.15 64.5 -71.85 65.55 -67.9 66.15 -65.45 Q68.3 -64.15 70.75 -63.4 77.1 -61.65 79.1 -67.65 M-65.85 -71.75 Q-74.35 -69.5 -81.75 -73.05 -83.55 -73.95 -84.6 -75.65 -86.75 -79.25 -86.6 -83.15 -71.0 -83.05 -59.65 -94.35 -54.1 -99.85 -46.25 -101.4 -37.9 -103.05 -29.15 -102.1 L-22.7 -100.9 -18.95 -99.7 -15.0 -98.9 Q-22.2 -108.95 -32.7 -115.75 -31.15 -118.8 -28.9 -120.8 -26.35 -119.5 -23.9 -118.0 -21.5 -116.55 -19.95 -114.25 L-18.3 -112.0 -16.5 -109.8 -14.6 -107.65 -13.2 -105.75 -12.2 -104.0 -11.25 -102.1 -10.25 -99.95 Q-9.55 -100.25 -8.95 -100.65 -9.75 -99.7 -10.95 -99.2 L-11.75 -98.9 -13.5 -98.65 -14.85 -98.7 -16.25 -98.65 -17.25 -98.6 Q-18.55 -98.6 -19.6 -97.95 -21.9 -96.65 -23.45 -94.6 -29.5 -95.85 -35.7 -92.2 L-36.35 -91.8 Q-38.0 -90.75 -39.4 -89.25 -45.4 -83.0 -47.8 -75.25 L-49.55 -69.85 -51.7 -63.2 -53.8 -56.9 Q-59.4 -41.5 -73.8 -32.05 -72.2 -35.2 -70.1 -38.35 L-66.75 -43.65 Q-58.35 -57.25 -55.8 -73.0 -53.3 -88.25 -38.95 -93.3 -45.25 -96.3 -52.85 -93.25 -54.65 -92.55 -56.15 -91.05 L-58.75 -87.8 Q-60.15 -85.55 -61.2 -83.05 L-65.85 -71.75" fill="#da906d" fill-rule="evenodd" stroke="none"/>
    <path d="M-82.55 -5.15 L-83.45 -4.7 Q-85.75 -5.4 -87.75 -6.7 -90.65 -8.55 -93.3 -10.9 -97.0 -14.2 -97.75 -19.1 -98.15 -21.55 -97.55 -23.9 -96.2 -29.15 -91.15 -32.1 -81.25 -37.85 -76.3 -48.1 L-72.95 -54.95 Q-70.65 -59.55 -68.8 -64.3 L-65.85 -71.75 -61.2 -83.05 Q-60.15 -85.55 -58.75 -87.8 L-56.15 -91.05 Q-54.65 -92.55 -52.85 -93.25 -45.25 -96.3 -38.95 -93.3 -53.3 -88.25 -55.8 -73.0 -58.35 -57.25 -66.75 -43.65 L-70.1 -38.35 Q-72.2 -35.2 -73.8 -32.05 -59.4 -41.5 -53.8 -56.9 L-51.7 -63.2 -49.55 -69.85 -47.8 -75.25 Q-45.4 -83.0 -39.4 -89.25 -38.0 -90.75 -36.35 -91.8 L-35.7 -92.2 Q-29.5 -95.85 -23.45 -94.6 -20.3 -94.0 -17.2 -92.0 -15.7 -91.05 -14.8 -89.65 L-12.35 -85.95 Q-33.85 -88.1 -39.0 -65.25 -48.35 -24.0 -82.55 -5.15 M-86.6 -83.15 Q-86.5 -86.0 -85.2 -89.05 -83.55 -92.85 -81.0 -95.35 L-66.1 -95.9 Q-64.55 -96.05 -63.3 -97.05 -56.2 -102.65 -51.3 -110.35 -46.1 -118.5 -37.1 -118.35 L-35.25 -117.35 -32.7 -115.75 Q-22.2 -108.95 -15.0 -98.9 L-18.95 -99.7 -22.7 -100.9 -29.15 -102.1 Q-37.9 -103.05 -46.25 -101.4 -54.1 -99.85 -59.65 -94.35 -71.0 -83.05 -86.6 -83.15 M-28.9 -120.8 Q-25.4 -123.95 -20.15 -124.55 -18.65 -124.8 -17.45 -124.05 -11.1 -120.2 -5.55 -115.35 -4.3 -111.95 -4.75 -108.35 -5.4 -103.0 -8.95 -100.65 -9.55 -100.25 -10.25 -99.95 L-11.25 -102.1 -12.2 -104.0 -13.2 -105.75 -14.6 -107.65 -16.5 -109.8 -18.3 -112.0 -19.95 -114.25 Q-21.5 -116.55 -23.9 -118.0 -26.35 -119.5 -28.9 -120.8 M4.7 -104.45 Q5.85 -107.45 8.05 -110.5 10.0 -113.25 12.8 -116.05 15.8 -119.05 19.95 -120.65 29.45 -124.35 37.4 -118.55 L40.55 -115.85 43.25 -112.65 Q45.8 -109.05 47.45 -104.9 54.25 -87.6 61.7 -70.45 L61.95 -69.95 61.15 -69.6 Q61.45 -65.25 57.7 -63.5 56.35 -62.85 55.15 -63.7 42.6 -71.65 36.8 -85.6 33.7 -93.15 28.1 -98.0 27.5 -98.5 26.7 -98.5 17.55 -98.75 11.6 -106.3 8.3 -101.0 6.0 -95.15 3.7 -89.45 6.0 -83.9 8.45 -77.85 8.6 -71.65 L3.6 -70.0 Q1.8 -79.45 1.7 -89.05 1.65 -96.5 4.7 -104.45 M45.45 -118.6 Q49.25 -119.25 53.55 -115.75 59.1 -111.2 61.25 -104.2 64.0 -95.1 68.5 -86.9 L71.75 -80.05 Q74.6 -73.15 79.1 -67.65 77.1 -61.65 70.75 -63.4 68.3 -64.15 66.15 -65.45 L65.55 -67.9 64.5 -71.85 64.1 -73.15 61.35 -83.1 59.55 -89.2 58.95 -91.15 54.5 -105.25 53.95 -106.95 52.75 -109.8 Q49.85 -115.0 45.45 -118.6" fill="#ffcaaf" fill-rule="evenodd" stroke="none"/>
    <path d="M33.25 -71.7 Q38.15 -33.95 34.65 -3.05 31.5 24.6 21.55 46.7 0.9 92.8 -44.8 117.2 -52.2 121.15 -60.2 124.25 L-60.45 122.0 Q-60.65 120.95 -61.15 120.95 -64.45 120.85 -68.25 122.75 -70.65 123.95 -73.25 124.55 -74.7 124.85 -77.95 123.1 -36.8 102.55 -16.9 81.2 19.9 41.75 17.8 -9.55 16.6 -38.4 -4.4 -35.0 -8.95 -48.45 -17.05 -62.05 -15.5 -63.75 -13.05 -64.6 L-10.85 -64.7 Q-7.7 -62.05 -6.2 -62.05 L2.8 -62.5 3.95 -62.8 5.1 -63.35 Q8.1 -65.1 10.65 -68.2 L12.05 -69.85 15.35 -73.5 16.25 -74.8 Q18.8 -79.35 18.15 -86.0 L19.0 -86.35 20.8 -86.5 Q23.4 -86.45 25.05 -84.25 29.7 -78.35 33.25 -71.7" fill="#931015" fill-rule="evenodd" stroke="none"/>
    <path d="M-5.55 -115.35 Q0.0 -110.4 4.7 -104.45 1.65 -96.5 1.7 -89.05 1.8 -79.45 3.6 -70.0 L4.65 -65.0 Q0.85 -67.5 -2.45 -71.85 L-3.15 -72.8 -3.9 -75.55 -4.9 -75.25 -12.35 -85.95 -14.8 -89.65 Q-15.7 -91.05 -17.2 -92.0 -20.3 -94.0 -23.45 -94.6 -21.9 -96.65 -19.6 -97.95 -18.55 -98.6 -17.25 -98.6 L-16.25 -98.65 -14.85 -98.7 -13.5 -98.65 -11.75 -98.9 -10.95 -99.2 Q-9.75 -99.7 -8.95 -100.65 -5.4 -103.0 -4.75 -108.35 -4.3 -111.95 -5.55 -115.35" fill="#c16031" fill-rule="evenodd" stroke="none"/>
    <path d="M-77.95 123.1 L-80.0 121.9 Q-84.9 118.8 -80.2 117.05 -75.55 115.35 -72.15 111.95 -69.5 109.55 -66.15 107.7 -21.1 82.2 -4.25 33.4 2.0 15.3 1.5 -3.05 1.05 -18.95 -4.4 -35.0 16.6 -38.4 17.8 -9.55 19.9 41.75 -16.9 81.2 -36.8 102.55 -77.95 123.1" fill="#fe5e50" fill-rule="evenodd" stroke="none"/>
    <path d="M33.25 -71.7 Q38.15 -33.95 34.65 -3.05 31.5 24.6 21.55 46.7 0.9 92.8 -44.8 117.2 -52.2 121.15 -60.2 124.25 L-60.45 122.0 Q-60.65 120.95 -61.15 120.95 -64.45 120.85 -68.25 122.75 -70.65 123.95 -73.25 124.55 -74.7 124.85 -77.95 123.1 L-80.0 121.9 Q-84.9 118.8 -80.2 117.05 -75.55 115.35 -72.15 111.95 -69.5 109.55 -66.15 107.7 -21.1 82.2 -4.25 33.4 2.0 15.3 1.5 -3.05 1.05 -18.95 -4.4 -35.0 -8.95 -48.45 -17.05 -62.05" fill="none" stroke="#990000" stroke-linecap="round" stroke-linejoin="round" stroke-opacity="0.4" stroke-width="1.0"/>
    <path d="M-18.2 -99.05 L-17.6 -99.2 -17.35 -99.4 -17.15 -99.15 Q-16.9 -98.65 -17.35 -98.35 -17.8 -98.1 -18.15 -98.5 -18.4 -98.8 -18.2 -99.05 M-20.3 -97.2 L-20.6 -97.45 Q-21.0 -97.95 -20.55 -98.15 L-20.45 -98.2 Q-20.1 -98.35 -19.75 -97.95 -19.35 -97.55 -19.8 -97.3 L-20.3 -97.2 M-15.1 -99.55 L-14.7 -99.15 Q-14.3 -98.45 -14.95 -98.05 -15.65 -97.7 -16.1 -98.4 L-16.25 -98.65 Q-16.5 -99.15 -15.9 -99.5 L-15.1 -99.55 -16.25 -98.65 -15.1 -99.55 M-21.55 -95.95 Q-22.2 -95.35 -22.85 -96.35 -23.55 -97.35 -22.8 -97.75 -22.1 -98.2 -21.5 -97.4 -20.9 -96.6 -21.55 -95.95 M-22.5 -95.75 Q-22.15 -95.1 -22.7 -94.8 -23.3 -94.5 -23.75 -95.05 -24.2 -95.7 -23.55 -96.05 -22.9 -96.4 -22.5 -95.75 M-24.7 -92.75 Q-25.15 -93.35 -24.5 -93.8 -23.8 -94.25 -23.45 -93.6 -23.1 -92.95 -23.65 -92.6 -24.25 -92.25 -24.7 -92.75 M-9.35 -99.7 Q-9.2 -100.0 -9.45 -100.35 L-9.8 -100.7 -9.5 -100.95 Q-8.9 -101.45 -8.5 -100.8 -8.2 -100.15 -8.75 -99.8 L-9.35 -99.7 M-11.2 -99.5 L-11.15 -99.1 Q-10.9 -98.85 -10.5 -98.9 -10.35 -98.6 -10.75 -98.3 L-11.15 -98.2 Q-10.85 -98.55 -11.15 -99.05 -11.45 -99.55 -11.9 -99.3 L-11.75 -99.45 -11.2 -99.5 M-12.65 -99.4 Q-12.35 -98.9 -12.75 -98.45 -13.25 -98.05 -13.75 -98.75 -14.15 -99.35 -13.8 -99.7 L-13.7 -99.75 Q-13.2 -100.1 -12.75 -99.5 L-12.65 -99.4" fill="#ce6c3e" fill-rule="evenodd" stroke="none"/>
    <path d="M44.6 -120.6 Q45.0 -119.9 44.4 -119.2 43.75 -118.55 43.3 -119.3 42.9 -119.9 43.25 -120.4 L42.9 -120.15 Q41.85 -119.6 41.4 -120.4 40.9 -121.25 41.65 -121.9 42.45 -122.65 43.15 -121.65 43.6 -121.05 43.4 -120.6 L43.5 -120.7 Q44.2 -121.35 44.6 -120.6 M46.4 -117.95 L45.95 -117.5 Q45.2 -117.0 44.95 -117.75 44.65 -118.55 45.2 -118.8 45.8 -119.15 46.25 -118.55 L46.4 -118.25 46.4 -117.95 M8.0 -102.65 Q8.5 -101.75 7.7 -101.2 L7.45 -101.1 Q8.15 -101.15 8.6 -100.55 9.15 -99.8 8.35 -99.4 7.45 -99.05 6.8 -99.85 6.1 -100.7 7.1 -101.0 6.7 -101.05 6.45 -101.5 6.0 -102.3 6.75 -102.9 7.45 -103.55 8.0 -102.65 M7.8 -105.1 L8.15 -105.3 9.4 -105.15 Q9.3 -105.55 9.85 -105.7 L10.8 -105.65 11.2 -106.25 Q11.9 -106.9 12.3 -106.0 12.6 -105.1 11.95 -104.6 L11.15 -104.55 10.9 -104.4 9.95 -104.45 Q10.15 -103.9 9.4 -103.5 8.4 -103.05 7.8 -104.0 7.25 -104.75 7.8 -105.1 M13.5 -103.15 Q13.1 -103.85 13.7 -104.35 14.3 -104.9 14.75 -104.15 15.2 -103.4 14.55 -102.95 13.85 -102.5 13.5 -103.15 M24.65 -98.9 Q24.9 -98.55 24.5 -98.3 24.05 -98.1 23.75 -98.55 23.45 -99.0 23.9 -99.1 24.35 -99.25 24.65 -98.9 M20.3 -101.15 Q19.75 -101.9 20.55 -102.1 21.35 -102.35 21.8 -101.7 22.3 -101.1 21.6 -100.8 20.85 -100.5 20.3 -101.15 M21.7 -98.65 Q21.25 -99.45 21.95 -100.05 22.65 -100.65 23.15 -99.75 23.65 -98.9 22.9 -98.4 22.1 -97.9 21.7 -98.65 M15.2 -100.95 Q14.6 -100.7 14.25 -101.25 13.85 -101.85 14.45 -102.05 15.05 -102.25 15.45 -101.75 15.8 -101.25 15.2 -100.95 M16.55 -98.15 Q16.0 -99.25 17.05 -100.15 18.05 -101.05 18.55 -99.75 19.05 -98.45 18.1 -97.75 17.1 -97.05 16.55 -98.15 M6.35 -96.05 Q6.0 -96.8 6.7 -97.4 7.35 -98.0 7.7 -97.1 8.05 -96.25 7.4 -95.8 6.7 -95.35 6.35 -96.05 M7.75 -93.1 Q7.25 -93.9 8.1 -94.15 8.9 -94.45 9.4 -93.75 9.85 -93.1 9.1 -92.7 8.3 -92.3 7.75 -93.1 M4.2 -88.85 L4.35 -89.0 Q5.2 -89.75 5.65 -88.85 6.0 -88.9 6.3 -88.55 6.6 -88.1 6.1 -87.85 L5.85 -87.75 Q5.75 -87.25 5.3 -86.9 4.4 -86.25 3.95 -87.25 3.5 -88.15 4.2 -88.85 M4.95 -84.65 Q4.5 -85.45 5.2 -86.05 5.9 -86.65 6.4 -85.75 6.9 -84.9 6.15 -84.4 5.35 -83.9 4.95 -84.65 M5.95 -81.1 Q6.95 -81.4 7.55 -80.6 8.1 -79.9 7.4 -79.5 7.55 -78.9 6.8 -78.5 5.8 -78.05 5.15 -79.0 4.5 -79.95 5.4 -80.3 5.2 -80.85 5.95 -81.1 M7.35 -78.75 Q7.9 -79.2 8.15 -78.55 8.4 -77.85 7.9 -77.5 7.4 -77.1 7.1 -77.7 6.8 -78.3 7.35 -78.75 M32.35 -96.25 Q32.7 -95.6 32.15 -95.2 31.55 -94.85 31.25 -95.4 30.9 -96.0 31.45 -96.45 31.95 -96.95 32.35 -96.25 M26.7 -97.95 Q26.4 -98.6 27.0 -99.1 27.55 -99.65 27.85 -98.85 28.15 -98.15 27.6 -97.7 27.0 -97.3 26.7 -97.95 M27.9 -95.2 Q27.5 -95.7 28.05 -95.85 28.6 -96.0 28.95 -95.55 29.25 -95.15 28.75 -94.95 28.25 -94.75 27.9 -95.2 M30.35 -94.15 Q29.9 -94.85 30.65 -95.05 31.35 -95.3 31.8 -94.7 32.15 -94.25 31.8 -93.95 L32.35 -93.35 Q32.75 -92.35 32.0 -91.8 31.2 -91.25 30.8 -92.1 30.35 -93.0 31.15 -93.65 30.7 -93.65 30.35 -94.15 M32.75 -89.75 Q33.25 -89.15 32.55 -88.85 31.8 -88.55 31.25 -89.2 30.7 -89.95 31.5 -90.15 32.3 -90.4 32.75 -89.75 M33.15 -88.4 Q32.8 -89.05 33.35 -89.5 33.9 -90.0 34.3 -89.3 34.7 -88.6 34.1 -88.2 33.45 -87.8 33.15 -88.4 M33.85 -86.65 Q33.55 -87.15 34.05 -87.3 34.55 -87.45 34.85 -87.05 35.1 -86.7 34.65 -86.45 34.15 -86.2 33.85 -86.65 M37.3 -84.15 Q36.95 -84.8 37.55 -85.25 38.1 -85.75 38.4 -85.05 38.65 -84.35 38.15 -83.95 37.6 -83.55 37.3 -84.15 M37.0 -81.05 Q36.4 -81.8 37.25 -82.05 38.1 -82.3 38.6 -81.65 39.1 -81.0 38.35 -80.65 37.6 -80.35 37.0 -81.05 M39.35 -83.1 Q40.05 -83.75 40.6 -82.85 41.1 -81.95 40.3 -81.4 39.5 -80.9 39.05 -81.7 38.6 -82.5 39.35 -83.1 M40.15 -80.65 Q40.95 -80.9 41.4 -80.3 41.8 -79.65 41.1 -79.3 40.35 -78.95 39.9 -79.65 39.4 -80.4 40.15 -80.65 M40.85 -78.1 Q40.55 -78.75 41.15 -79.25 41.7 -79.8 42.0 -79.0 42.3 -78.3 41.75 -77.85 41.15 -77.45 40.85 -78.1 M49.3 -115.55 L49.55 -116.0 49.3 -115.55 M49.55 -116.0 L49.8 -115.75 Q50.4 -114.95 49.55 -114.5 48.7 -114.05 48.35 -114.7 47.95 -115.4 48.6 -115.95 L49.55 -116.0 M48.25 -115.8 Q47.55 -115.45 47.05 -116.25 46.55 -117.0 47.25 -117.45 48.0 -117.95 48.5 -117.05 48.95 -116.2 48.25 -115.8 M52.95 -111.85 Q53.4 -111.25 52.65 -110.75 51.85 -110.25 51.55 -111.05 51.25 -111.85 51.85 -112.15 52.45 -112.45 52.95 -111.85 M50.95 -112.4 Q50.2 -111.65 49.7 -112.5 49.15 -113.4 49.95 -114.1 50.7 -114.75 51.2 -113.95 51.65 -113.2 50.95 -112.4 M52.8 -109.95 Q53.5 -110.4 53.95 -109.55 54.4 -108.7 53.75 -108.35 53.05 -108.0 52.6 -108.75 52.1 -109.5 52.8 -109.95 M54.55 -106.25 Q53.75 -105.85 53.35 -106.45 52.95 -107.1 53.6 -107.65 54.2 -108.25 54.75 -107.45 55.3 -106.7 54.55 -106.25 M55.1 -105.2 Q55.45 -104.65 54.95 -104.05 L54.0 -104.1 Q53.6 -104.8 54.2 -105.3 54.75 -105.8 55.1 -105.2 M55.3 -104.1 Q55.9 -104.4 56.4 -103.8 56.85 -103.2 56.1 -102.7 55.3 -102.2 55.0 -103.0 54.7 -103.8 55.3 -104.1 M56.4 -100.05 Q55.75 -99.7 55.25 -100.4 54.8 -101.15 55.45 -101.55 56.1 -102.0 56.55 -101.15 57.0 -100.35 56.4 -100.05 M57.0 -98.75 Q56.5 -98.5 56.3 -98.9 56.05 -99.3 56.45 -99.6 56.8 -99.9 57.15 -99.45 57.45 -99.05 57.0 -98.75 M56.7 -96.25 Q56.35 -96.85 56.9 -97.3 57.4 -97.75 57.7 -97.2 58.0 -96.7 57.55 -96.15 57.05 -95.65 56.7 -96.25 M58.55 -93.5 Q57.65 -92.95 57.35 -93.8 57.05 -94.7 57.7 -95.0 58.3 -95.35 58.85 -94.7 59.4 -94.05 58.55 -93.5 M59.4 -90.65 Q58.5 -90.25 57.85 -91.2 57.2 -92.2 58.15 -92.8 59.05 -93.4 59.7 -92.25 60.3 -91.15 59.4 -90.65 M60.15 -89.95 Q60.7 -89.2 59.95 -88.75 59.15 -88.35 58.75 -88.95 58.35 -89.6 59.0 -90.15 59.6 -90.75 60.15 -89.95 M61.75 -84.2 Q60.75 -83.6 60.4 -84.55 60.05 -85.55 60.8 -85.9 61.5 -86.3 62.1 -85.55 62.7 -84.8 61.75 -84.2 M60.1 -86.85 L59.55 -86.9 Q59.25 -87.35 59.65 -87.65 L60.25 -87.6 Q60.45 -87.25 60.1 -86.85 M61.9 -81.85 Q61.3 -81.55 60.85 -82.25 60.4 -82.95 61.05 -83.3 61.65 -83.75 62.1 -82.95 62.5 -82.2 61.9 -81.85 M61.5 -81.35 Q62.05 -81.85 62.55 -81.15 63.05 -80.5 62.35 -80.05 61.65 -79.7 61.3 -80.25 60.9 -80.85 61.5 -81.35 M62.6 -78.9 L63.6 -78.85 Q63.95 -78.25 63.4 -77.6 62.8 -77.0 62.4 -77.7 62.0 -78.4 62.6 -78.9 M-49.0 -102.0 Q-48.4 -101.05 -49.3 -100.3 -49.55 -100.1 -49.8 -100.05 -49.65 -99.45 -50.25 -99.2 -51.05 -98.9 -51.5 -99.6 -52.0 -100.3 -51.2 -100.8 L-51.05 -100.85 Q-51.55 -101.8 -50.65 -102.35 -49.65 -103.0 -49.0 -102.0 M-43.3 -101.95 Q-42.9 -101.4 -43.2 -100.95 -42.65 -100.3 -43.6 -99.8 -44.6 -99.35 -45.2 -100.0 -45.7 -100.55 -45.25 -101.0 -45.85 -101.8 -44.85 -102.25 -43.85 -102.8 -43.3 -101.95 M-42.2 -102.7 Q-42.7 -103.4 -41.95 -103.85 -41.2 -104.35 -40.7 -103.5 -40.45 -103.0 -40.6 -102.65 -40.1 -101.9 -40.8 -101.35 -41.55 -100.8 -42.05 -101.6 -42.4 -102.2 -42.15 -102.6 L-42.2 -102.7 M-38.3 -102.9 Q-38.95 -103.6 -38.05 -104.15 -37.15 -104.75 -36.4 -103.95 -35.65 -103.2 -36.7 -102.7 -37.7 -102.25 -38.3 -102.9 M-57.75 -95.65 Q-57.45 -95.15 -57.9 -94.95 -58.4 -94.75 -58.65 -95.15 -58.9 -95.6 -58.45 -95.85 -58.05 -96.15 -57.75 -95.65 M-61.65 -94.15 Q-61.3 -93.7 -61.8 -93.4 -62.35 -93.1 -62.7 -93.6 -63.1 -94.05 -62.55 -94.35 -62.0 -94.65 -61.65 -94.15 M-63.75 -90.3 Q-62.95 -90.8 -62.45 -90.0 -61.9 -89.2 -62.65 -88.6 -63.4 -88.0 -63.95 -88.75 L-64.1 -88.65 Q-64.9 -88.25 -65.55 -88.95 -66.15 -89.7 -65.25 -90.15 L-64.0 -90.05 -63.75 -90.3 M-61.6 -93.35 Q-60.95 -93.8 -60.35 -93.2 -59.85 -92.65 -60.6 -92.3 L-61.8 -92.4 Q-62.25 -92.95 -61.6 -93.35 M-67.3 -88.8 Q-66.55 -89.3 -66.05 -88.45 -65.6 -87.6 -66.35 -87.3 -67.15 -87.0 -67.55 -87.65 -68.05 -88.35 -67.3 -88.8 M-68.3 -84.95 Q-69.15 -84.6 -69.6 -85.15 -70.1 -85.7 -69.4 -86.15 L-68.05 -86.0 Q-67.45 -85.4 -68.3 -84.95 M-72.3 -87.0 Q-71.6 -87.5 -71.1 -86.75 -70.6 -86.0 -71.3 -85.45 L-71.6 -85.25 Q-71.6 -84.9 -72.05 -84.7 -72.75 -84.45 -73.15 -85.05 L-73.3 -85.5 -72.9 -86.1 -72.75 -86.2 Q-72.8 -86.65 -72.45 -86.95 L-72.3 -87.0 M-42.35 -92.05 L-42.1 -91.85 Q-41.6 -91.25 -42.3 -90.75 -43.05 -90.3 -43.55 -91.05 -44.05 -91.85 -43.35 -92.15 L-42.35 -92.05 M-45.25 -90.4 Q-45.8 -91.1 -45.0 -91.5 -44.25 -92.0 -43.85 -91.35 -43.5 -90.7 -44.1 -90.2 -44.7 -89.75 -45.25 -90.4 M-39.9 -93.0 Q-39.7 -92.6 -40.15 -92.25 -40.6 -91.95 -40.85 -92.4 -41.1 -92.85 -40.6 -93.15 -40.15 -93.45 -39.9 -93.0 M-55.25 -101.1 L-55.8 -101.6 -55.25 -101.1 M-55.8 -101.6 L-55.45 -101.85 Q-54.2 -102.5 -53.45 -101.45 -52.7 -100.4 -53.85 -99.75 -55.0 -99.1 -55.85 -100.15 -56.65 -101.05 -55.8 -101.6 M-53.9 -99.5 L-52.85 -99.4 Q-52.4 -98.95 -53.05 -98.65 L-54.05 -98.75 Q-54.45 -99.2 -53.9 -99.5 M-55.8 -96.3 Q-56.45 -97.3 -55.5 -97.9 -54.6 -98.5 -53.95 -97.55 -53.4 -96.65 -54.25 -95.95 -55.15 -95.25 -55.8 -96.3 M-45.9 -89.6 Q-45.3 -89.0 -46.0 -88.8 -46.75 -88.55 -47.0 -89.0 -47.25 -89.45 -46.85 -89.85 -46.5 -90.25 -45.9 -89.6 M-47.95 -86.95 Q-48.75 -86.4 -49.1 -87.15 -49.5 -87.9 -48.7 -88.4 -47.95 -88.85 -47.55 -88.15 -47.2 -87.5 -47.95 -86.95 M-49.4 -86.6 Q-49.05 -86.2 -49.5 -85.9 -49.95 -85.6 -50.25 -86.1 -50.6 -86.6 -50.15 -86.75 -49.75 -87.0 -49.4 -86.6 M-50.7 -84.05 Q-51.3 -83.6 -51.85 -84.25 -52.4 -84.95 -51.6 -85.35 -50.85 -85.85 -50.45 -85.2 -50.1 -84.55 -50.7 -84.05 M-53.05 -82.25 Q-53.35 -82.75 -52.95 -83.15 -52.55 -83.6 -51.9 -82.95 -51.3 -82.3 -52.05 -82.05 -52.8 -81.85 -53.05 -82.25 M-54.45 -81.55 Q-53.7 -82.05 -53.35 -81.35 -53.0 -80.7 -53.7 -80.15 -54.45 -79.65 -54.8 -80.35 -55.2 -81.1 -54.45 -81.55 M-55.25 -78.45 Q-55.7 -79.2 -55.05 -79.45 -54.45 -79.75 -53.95 -79.2 -53.45 -78.65 -54.1 -78.2 -54.8 -77.75 -55.25 -78.45 M-6.4 -112.55 Q-6.8 -113.2 -6.25 -113.55 -5.7 -113.9 -5.3 -113.35 -4.95 -112.8 -5.45 -112.35 -6.0 -111.95 -6.4 -112.55 M-13.75 -106.45 Q-13.4 -106.65 -13.0 -106.15 -12.65 -105.65 -13.2 -105.35 -13.8 -105.1 -13.95 -105.7 -14.15 -106.3 -13.75 -106.45 M-10.45 -102.45 Q-9.9 -101.8 -10.6 -101.25 -11.3 -100.75 -11.85 -101.45 -12.4 -102.2 -11.7 -102.7 -11.0 -103.2 -10.45 -102.45 M-11.8 -103.3 Q-12.6 -102.9 -12.85 -103.5 -13.15 -104.15 -12.45 -104.75 -11.75 -105.35 -11.4 -104.5 -11.05 -103.7 -11.8 -103.3 M-8.6 -105.05 Q-8.0 -104.0 -8.95 -103.6 -9.9 -103.25 -10.45 -104.1 -11.0 -104.95 -10.1 -105.5 -9.2 -106.15 -8.6 -105.05 M-5.35 -104.4 L-4.5 -104.3 Q-4.15 -103.95 -4.65 -103.65 L-5.5 -103.75 Q-5.85 -104.15 -5.35 -104.4 M-6.95 -102.2 L-6.85 -102.65 -6.5 -102.95 Q-5.8 -103.45 -5.3 -102.7 L-5.25 -102.65 Q-4.85 -101.95 -5.5 -101.4 -6.25 -100.85 -6.75 -101.65 L-6.9 -102.0 -6.95 -102.2 M-6.6 -108.65 Q-5.4 -109.25 -4.75 -108.3 -4.05 -107.3 -5.1 -106.7 -6.15 -106.15 -6.95 -107.1 -7.8 -108.1 -6.6 -108.65 M-14.8 -107.05 Q-15.8 -106.5 -16.3 -107.4 -16.7 -108.1 -16.3 -108.6 -16.8 -108.55 -17.2 -109.05 -17.85 -109.9 -17.05 -110.45 -16.25 -111.0 -15.6 -110.2 -15.2 -109.65 -15.45 -109.15 -14.85 -109.3 -14.4 -108.6 -13.8 -107.6 -14.8 -107.05 M-3.15 -110.5 Q-3.95 -110.2 -4.35 -110.85 -4.85 -111.55 -4.1 -112.0 -3.35 -112.5 -2.85 -111.65 -2.4 -110.8 -3.15 -110.5 M-6.15 -114.15 Q-6.6 -114.7 -5.9 -115.1 -5.25 -115.55 -4.65 -114.95 -4.05 -114.4 -4.85 -114.0 -5.7 -113.6 -6.15 -114.15 M-22.85 -117.55 Q-22.35 -117.75 -21.95 -117.2 -21.45 -116.6 -22.1 -116.1 -22.75 -115.65 -23.25 -116.3 L-23.45 -116.9 Q-24.5 -116.35 -24.85 -117.2 -25.2 -118.05 -24.3 -118.8 -23.4 -119.6 -22.95 -118.5 -22.7 -117.95 -22.85 -117.55 M-25.75 -119.95 Q-25.3 -120.1 -24.85 -119.45 -24.35 -118.8 -25.1 -118.4 -25.95 -118.0 -26.15 -118.85 -26.4 -119.7 -25.85 -119.9 L-25.75 -119.95 M-20.6 -116.4 Q-19.9 -116.9 -19.45 -116.15 -19.0 -115.4 -19.75 -114.95 -20.55 -114.55 -20.9 -115.25 -21.3 -115.95 -20.6 -116.4 M-27.0 -120.55 Q-26.7 -120.1 -27.2 -119.8 -27.75 -119.55 -28.0 -120.0 -28.25 -120.45 -27.8 -120.75 -27.35 -121.05 -27.0 -120.55 M-31.35 -102.7 Q-30.65 -103.1 -30.15 -102.35 -29.7 -101.65 -30.3 -101.05 -30.35 -100.55 -31.0 -100.3 -31.9 -99.95 -32.5 -100.5 L-32.95 -99.95 Q-33.75 -99.55 -34.4 -100.25 -35.0 -101.0 -34.1 -101.45 -33.45 -101.8 -33.0 -101.45 -33.05 -102.05 -32.35 -102.5 L-31.35 -102.7 M-20.0 -112.85 Q-20.25 -113.65 -19.75 -113.85 -19.25 -114.1 -18.75 -113.45 -18.3 -112.85 -19.05 -112.45 -19.8 -112.05 -20.0 -112.85 M-17.8 -110.55 Q-18.45 -110.2 -18.65 -110.75 -18.9 -111.3 -18.35 -111.75 -17.8 -112.25 -17.45 -111.55 -17.2 -110.9 -17.8 -110.55 M-17.35 -99.4 L-17.6 -99.2 -18.2 -99.05 Q-18.65 -99.05 -19.05 -99.5 -19.65 -100.25 -18.75 -100.7 -17.85 -101.15 -17.35 -100.4 -16.95 -99.8 -17.35 -99.4 M-20.45 -98.2 L-20.0 -98.6 Q-19.05 -99.2 -18.25 -98.4 -17.5 -97.6 -18.6 -97.05 -19.65 -96.55 -20.3 -97.2 L-19.8 -97.3 Q-19.35 -97.55 -19.75 -97.95 -20.1 -98.35 -20.45 -98.2 M-21.4 -99.45 Q-21.1 -99.05 -21.55 -98.7 -21.95 -98.35 -22.25 -98.85 -22.6 -99.35 -22.15 -99.65 -21.7 -99.95 -21.4 -99.45 M-25.25 -100.55 Q-25.8 -101.45 -24.85 -102.05 -23.95 -102.65 -23.3 -101.55 -22.7 -100.5 -23.65 -100.1 -24.65 -99.7 -25.25 -100.55 M-26.7 -101.3 Q-26.05 -101.7 -25.65 -101.1 -25.25 -100.55 -25.85 -100.2 -26.45 -99.9 -26.9 -100.4 -27.4 -101.0 -26.7 -101.3 M-29.75 -98.95 Q-30.65 -98.55 -31.15 -99.1 -31.65 -99.7 -30.9 -100.15 -30.15 -100.65 -29.5 -100.0 -28.9 -99.35 -29.75 -98.95 M-26.45 -83.6 Q-26.15 -83.15 -26.6 -82.85 L-27.1 -82.8 Q-27.75 -82.55 -28.05 -83.0 -28.4 -83.55 -27.85 -83.95 L-26.95 -83.9 -26.45 -83.6 M-35.2 -78.55 Q-35.75 -79.35 -34.85 -80.0 -34.0 -80.65 -33.25 -79.7 -32.55 -78.8 -33.6 -78.25 -34.65 -77.75 -35.2 -78.55 M-32.25 -79.35 Q-32.65 -80.3 -31.9 -80.95 -31.2 -81.6 -30.55 -80.6 -29.9 -79.65 -30.85 -79.0 -31.85 -78.45 -32.25 -79.35 M-30.15 -82.1 Q-30.6 -82.85 -29.7 -83.4 -28.8 -83.95 -28.4 -83.1 -28.0 -82.3 -28.85 -81.85 -29.75 -81.4 -30.15 -82.1 M-15.55 -86.75 L-15.05 -86.35 Q-14.6 -85.7 -15.3 -85.25 -16.05 -84.8 -16.55 -85.7 -17.15 -86.65 -16.35 -86.8 L-16.0 -86.85 -15.55 -86.75 M-19.0 -87.1 Q-18.45 -86.35 -19.3 -85.95 -20.15 -85.55 -20.55 -86.15 -21.0 -86.8 -20.3 -87.3 -19.6 -87.85 -19.0 -87.1 M-23.6 -86.05 Q-23.05 -86.55 -22.55 -85.8 L-22.5 -85.65 -21.9 -86.4 Q-21.1 -86.9 -20.7 -86.15 -20.35 -85.4 -21.15 -84.95 -22.0 -84.5 -22.35 -85.2 -22.4 -84.85 -22.8 -84.6 -23.6 -84.15 -23.85 -84.85 -24.15 -85.6 -23.6 -86.05 M3.05 -92.7 L3.2 -92.95 3.3 -93.1 Q3.65 -93.45 3.95 -93.1 L4.05 -92.95 4.15 -92.6 3.85 -92.15 Q3.4 -91.85 3.15 -92.3 L3.05 -92.7 4.15 -92.6 3.05 -92.7 M-9.8 -100.7 L-9.45 -100.35 Q-9.2 -100.0 -9.35 -99.7 L-9.7 -99.35 -10.1 -99.2 -10.35 -99.0 -10.5 -98.9 Q-10.9 -98.85 -11.15 -99.1 L-11.2 -99.5 -11.0 -99.7 -10.8 -99.8 Q-11.0 -100.3 -10.45 -100.6 L-9.8 -100.7 M-11.15 -98.2 L-11.3 -98.05 Q-11.85 -97.65 -12.25 -98.25 -12.65 -98.9 -12.1 -99.25 L-11.9 -99.3 Q-11.45 -99.55 -11.15 -99.05 -10.85 -98.55 -11.15 -98.2 M3.4 -68.8 L3.2 -68.65 2.25 -68.55 2.0 -68.9 Q1.55 -69.7 2.25 -70.3 2.95 -70.9 3.45 -70.0 3.9 -69.3 3.4 -68.8 L2.25 -68.55 3.4 -68.8 M5.5 -69.25 Q5.15 -70.1 5.95 -70.75 6.8 -71.45 7.2 -70.4 7.55 -69.4 6.8 -68.8 6.0 -68.25 5.55 -69.15 L5.5 -69.25 6.25 -69.4 5.5 -69.25 M-33.7 -74.9 Q-34.2 -75.8 -33.1 -76.45 -32.05 -77.15 -31.55 -76.15 -31.05 -75.15 -32.1 -74.6 -33.2 -74.05 -33.7 -74.9 M-34.95 -70.45 Q-35.8 -70.05 -36.2 -70.65 -36.65 -71.3 -35.95 -71.8 -35.25 -72.35 -34.65 -71.6 -34.1 -70.85 -34.95 -70.45 M-36.5 -74.5 Q-36.75 -75.05 -36.3 -75.45 -35.9 -75.8 -35.5 -75.25 -35.15 -74.7 -35.7 -74.35 -36.3 -74.0 -36.5 -74.5 M-38.55 -71.85 Q-39.35 -73.2 -38.25 -73.45 -37.15 -73.75 -36.45 -72.8 -35.75 -71.85 -36.75 -71.2 -37.8 -70.55 -38.55 -71.85 M-40.1 -66.1 Q-39.5 -66.65 -38.9 -65.8 -38.35 -64.95 -39.2 -64.4 -40.05 -63.9 -40.4 -64.7 -40.75 -65.5 -40.1 -66.1 M-39.65 -66.8 Q-40.55 -66.35 -40.95 -67.05 -41.4 -67.8 -40.5 -68.35 -39.6 -68.9 -39.2 -68.05 -38.8 -67.25 -39.65 -66.8 M-55.5 -69.6 Q-56.3 -69.1 -56.85 -69.9 -57.4 -70.75 -56.65 -71.1 -55.9 -71.45 -55.3 -70.8 -54.75 -70.1 -55.5 -69.6 M-55.4 -71.5 Q-56.15 -71.0 -56.5 -71.7 -56.9 -72.45 -56.15 -72.9 -55.4 -73.4 -55.05 -72.7 -54.7 -72.05 -55.4 -71.5 M-55.05 -73.55 Q-55.8 -73.35 -56.05 -73.75 -56.35 -74.25 -55.95 -74.65 -55.55 -75.1 -54.9 -74.45 -54.3 -73.8 -55.05 -73.55 M-54.25 -75.75 Q-54.85 -75.3 -55.35 -75.9 -55.9 -76.6 -55.15 -77.0 -54.4 -77.45 -54.05 -76.8 -53.7 -76.2 -54.25 -75.75 M-39.15 -61.45 Q-39.9 -62.7 -38.85 -62.95 -37.8 -63.25 -37.15 -62.3 -36.5 -61.4 -37.45 -60.8 -38.45 -60.2 -39.15 -61.45 M-40.65 -61.1 Q-41.0 -61.55 -40.45 -61.95 -39.95 -62.3 -39.55 -61.75 -39.15 -61.25 -39.75 -60.95 -40.35 -60.65 -40.65 -61.1 M-42.9 -52.85 Q-42.5 -52.2 -43.15 -51.8 -43.8 -51.4 -44.3 -52.25 -44.8 -53.1 -44.1 -53.25 -43.35 -53.45 -42.9 -52.85 M-41.85 -56.1 L-42.45 -56.2 -42.3 -56.9 Q-42.0 -57.2 -41.7 -56.75 -41.45 -56.35 -41.85 -56.1 M-39.65 -55.9 Q-40.55 -55.45 -40.95 -56.15 -41.4 -56.9 -40.5 -57.45 -39.6 -58.0 -39.2 -57.15 -38.8 -56.35 -39.65 -55.9 M-57.05 -64.95 Q-58.0 -64.65 -58.35 -65.2 -58.75 -65.8 -58.2 -66.35 -57.7 -66.9 -56.9 -66.05 -56.1 -65.25 -57.05 -64.95 M-56.6 -67.35 Q-57.15 -66.95 -57.6 -67.5 -58.1 -68.1 -57.4 -68.5 -56.75 -68.9 -56.4 -68.3 -56.1 -67.75 -56.6 -67.35 M-57.75 -64.15 Q-57.6 -63.8 -57.95 -63.5 -58.35 -63.25 -58.55 -63.65 -58.8 -64.05 -58.35 -64.25 -57.95 -64.55 -57.75 -64.15 M-59.15 -58.65 Q-59.7 -58.25 -60.1 -58.8 -60.6 -59.4 -59.95 -59.75 -59.3 -60.15 -59.0 -59.6 -58.7 -59.1 -59.15 -58.65 M-59.7 -60.9 Q-60.15 -61.65 -59.5 -61.9 -58.9 -62.2 -58.4 -61.65 -57.9 -61.1 -58.55 -60.65 -59.25 -60.2 -59.7 -60.9 M-61.05 -55.65 Q-60.45 -56.05 -60.15 -55.5 -59.9 -54.95 -60.45 -54.5 -61.05 -54.1 -61.35 -54.65 -61.7 -55.25 -61.05 -55.65 M-62.0 -53.5 Q-61.4 -53.8 -60.9 -53.25 -60.4 -52.7 -61.05 -52.25 -61.75 -51.8 -62.2 -52.5 -62.65 -53.25 -62.0 -53.5 M-60.4 -56.9 Q-60.6 -57.2 -60.3 -57.5 -60.05 -57.8 -59.6 -57.35 -59.2 -56.95 -59.7 -56.75 -60.2 -56.6 -60.4 -56.9 M-62.15 -49.6 Q-62.95 -48.95 -63.7 -49.85 -64.45 -50.75 -63.4 -51.35 -62.35 -51.95 -61.85 -51.1 -61.35 -50.25 -62.15 -49.6 M-64.05 -47.3 Q-63.65 -46.55 -64.5 -45.95 -65.3 -45.4 -65.75 -46.2 -66.2 -47.05 -65.3 -47.55 -64.45 -48.05 -64.05 -47.3 M-64.25 -48.55 Q-64.55 -49.05 -64.15 -49.45 -63.75 -49.9 -63.1 -49.25 -62.5 -48.6 -63.25 -48.35 -64.0 -48.15 -64.25 -48.55 M-65.8 -44.4 Q-66.4 -44.0 -66.8 -44.65 -67.25 -45.3 -66.65 -45.55 -66.1 -45.85 -65.65 -45.3 -65.2 -44.8 -65.8 -44.4 M-66.3 -43.75 Q-65.95 -43.1 -66.55 -42.6 -67.15 -42.15 -67.7 -42.8 -68.25 -43.5 -67.45 -43.9 -66.7 -44.4 -66.3 -43.75 M-68.55 -41.85 Q-68.15 -42.3 -67.5 -41.6 -66.85 -40.95 -67.6 -40.7 -68.4 -40.45 -68.7 -40.9 -69.0 -41.4 -68.55 -41.85 M-68.8 -39.95 Q-68.55 -39.4 -69.1 -38.95 -69.7 -38.55 -70.0 -39.1 -70.35 -39.7 -69.7 -40.1 -69.1 -40.5 -68.8 -39.95 M-69.9 -37.95 Q-69.45 -37.45 -70.05 -37.0 -70.7 -36.6 -71.15 -37.25 -71.6 -37.95 -71.0 -38.25 -70.4 -38.5 -69.9 -37.95 M-72.2 -35.2 L-72.4 -35.4 -72.6 -35.75 Q-72.85 -36.35 -72.15 -36.75 -71.25 -37.25 -70.8 -36.5 -70.35 -35.8 -71.05 -35.2 -71.65 -34.7 -72.2 -35.2 L-72.6 -35.75 -72.2 -35.2 M-73.05 -34.55 Q-72.75 -34.85 -72.25 -34.35 -71.8 -33.9 -72.35 -33.7 -72.9 -33.5 -73.15 -33.85 -73.35 -34.2 -73.05 -34.55 M-73.3 -30.9 Q-74.1 -30.35 -74.5 -31.1 -74.95 -31.9 -74.1 -32.4 -73.3 -32.9 -72.9 -32.2 -72.5 -31.5 -73.3 -30.9 M-57.5 -29.8 Q-57.95 -30.45 -57.25 -30.95 -56.55 -31.5 -55.95 -30.75 -55.4 -30.0 -56.25 -29.6 -57.1 -29.2 -57.5 -29.8 M-42.3 -49.65 Q-43.35 -49.15 -43.85 -49.9 -44.4 -50.7 -43.55 -51.3 -42.7 -51.95 -42.0 -51.05 -41.3 -50.15 -42.3 -49.65 M-45.2 -47.75 Q-45.6 -48.7 -44.85 -49.35 -44.15 -50.0 -43.5 -49.0 -42.85 -48.05 -43.8 -47.4 -44.8 -46.85 -45.2 -47.75 M-44.45 -43.95 Q-45.25 -43.45 -45.85 -44.45 -46.45 -45.5 -45.6 -45.7 -44.7 -45.95 -44.15 -45.2 -43.65 -44.45 -44.45 -43.95 M-47.6 -43.25 Q-47.9 -43.65 -47.45 -43.95 -47.05 -44.25 -46.7 -43.8 -46.35 -43.35 -46.85 -43.1 -47.35 -42.9 -47.6 -43.25 M-48.8 -42.25 Q-47.85 -42.85 -47.4 -41.95 -47.0 -41.1 -47.9 -40.6 -47.55 -39.85 -48.3 -39.4 -49.15 -38.9 -49.5 -39.7 -49.8 -40.4 -49.35 -40.9 -49.75 -41.7 -48.8 -42.25 M-49.15 -37.5 Q-49.65 -38.3 -48.95 -38.45 -48.3 -38.65 -47.9 -38.05 -47.5 -37.5 -48.1 -37.1 -48.7 -36.75 -49.15 -37.5 M-48.05 -34.65 Q-47.5 -33.95 -48.3 -33.5 L-49.05 -33.4 Q-49.15 -32.95 -49.7 -32.65 -50.7 -32.1 -51.15 -32.95 -51.65 -33.8 -50.65 -34.4 L-49.55 -34.55 -49.25 -34.85 Q-48.6 -35.35 -48.05 -34.65 M-52.1 -30.95 Q-52.4 -31.65 -51.85 -32.1 -51.3 -32.55 -50.85 -31.85 -50.35 -31.15 -51.05 -30.7 -51.8 -30.25 -52.1 -30.95 M-54.75 -29.85 Q-55.25 -30.65 -54.55 -30.8 -53.9 -31.0 -53.5 -30.4 -53.1 -29.85 -53.7 -29.45 -54.3 -29.1 -54.75 -29.85 M-55.8 -25.55 Q-56.75 -25.05 -57.2 -25.85 -57.65 -26.7 -56.65 -27.25 -55.7 -27.85 -55.25 -26.95 -54.85 -26.1 -55.8 -25.55 M-60.7 -21.55 Q-61.3 -21.3 -61.55 -21.7 -61.9 -22.15 -61.4 -22.5 -60.9 -22.9 -60.5 -22.35 -60.15 -21.85 -60.7 -21.55 M-59.6 -22.5 Q-60.35 -22.05 -60.9 -23.0 -61.45 -23.95 -60.65 -24.15 -59.85 -24.4 -59.35 -23.65 -58.85 -23.0 -59.6 -22.5 M-57.75 -23.95 Q-58.5 -23.5 -58.8 -24.2 -59.1 -24.9 -58.55 -25.35 -58.0 -25.8 -57.55 -25.1 -57.05 -24.4 -57.75 -23.95 M-63.3 -19.55 Q-63.7 -20.25 -62.85 -20.75 -62.05 -21.25 -61.65 -20.5 -61.3 -19.75 -62.1 -19.3 -62.95 -18.85 -63.3 -19.55 M-65.05 -15.65 Q-65.3 -16.2 -64.85 -16.6 -64.45 -16.95 -64.05 -16.4 -63.7 -15.85 -64.25 -15.5 -64.85 -15.15 -65.05 -15.65 M-65.5 -16.95 Q-66.25 -16.5 -66.8 -17.45 -67.35 -18.4 -66.55 -18.6 -65.75 -18.85 -65.25 -18.1 -64.75 -17.45 -65.5 -16.95 M-66.55 -15.85 Q-65.8 -14.85 -66.9 -14.3 L-67.65 -14.1 Q-67.65 -13.45 -68.5 -13.0 -68.9 -12.8 -69.2 -12.75 -69.1 -12.45 -69.45 -12.25 -69.9 -12.0 -70.05 -12.4 L-70.0 -13.0 -70.3 -13.35 Q-70.9 -14.4 -69.65 -15.2 L-68.75 -15.5 -68.25 -16.15 Q-67.3 -16.85 -66.55 -15.85 M-73.7 -10.75 Q-74.3 -11.8 -73.45 -12.0 -72.55 -12.25 -72.0 -11.5 -71.5 -10.75 -72.3 -10.25 -73.1 -9.75 -73.7 -10.75 M-74.05 -9.0 Q-73.7 -8.5 -74.25 -8.2 -74.85 -7.95 -75.1 -8.35 -75.45 -8.8 -74.95 -9.15 -74.45 -9.55 -74.05 -9.0 M78.65 -66.6 Q78.25 -66.65 78.0 -67.2 77.55 -68.15 78.45 -68.4 79.3 -68.7 79.65 -68.0 L79.75 -67.5 78.65 -66.6 79.75 -67.5 Q79.7 -67.1 79.25 -66.75 L78.65 -66.6 M77.6 -64.9 Q78.15 -64.25 77.4 -63.7 L77.45 -63.65 Q77.9 -63.05 77.3 -62.65 76.7 -62.25 76.2 -62.85 L76.0 -63.4 75.55 -63.8 Q75.0 -64.7 76.0 -65.2 76.95 -65.65 77.6 -64.9 M78.75 -65.0 Q78.95 -64.6 78.6 -64.35 78.15 -64.1 78.05 -64.55 77.95 -65.0 78.25 -65.2 78.55 -65.4 78.75 -65.0 M65.6 -67.15 Q65.5 -67.7 65.95 -67.9 66.45 -68.2 66.9 -67.65 67.3 -67.1 66.6 -66.7 L66.55 -66.65 66.7 -66.5 66.75 -66.3 Q66.85 -65.9 66.4 -65.55 L66.35 -65.55 66.9 -65.05 67.05 -64.7 Q67.15 -64.2 66.7 -63.95 66.1 -63.65 65.65 -64.35 65.4 -64.7 65.5 -65.0 L65.85 -65.4 65.85 -65.45 65.45 -65.9 Q65.05 -66.65 65.75 -66.8 L65.7 -66.95 65.6 -67.15 66.05 -67.45 65.6 -67.15 M63.45 -65.85 L63.0 -65.3 62.35 -65.2 Q62.1 -65.3 62.0 -65.7 61.75 -66.55 62.35 -66.9 62.9 -67.25 63.3 -66.5 L63.45 -65.85 62.35 -65.2 63.45 -65.85 M71.65 -65.2 Q72.1 -64.4 71.3 -63.9 70.5 -63.4 70.25 -64.3 70.0 -65.2 70.6 -65.6 71.2 -66.0 71.65 -65.2 M70.9 -62.05 Q70.6 -62.65 71.15 -62.8 71.7 -62.95 71.9 -62.55 72.1 -62.1 71.65 -61.8 71.2 -61.5 70.9 -62.05 M67.3 -63.65 L67.65 -63.3 Q68.4 -62.3 67.3 -61.7 66.2 -61.1 65.7 -61.95 65.55 -62.2 65.55 -62.4 65.4 -63.0 65.9 -63.5 L66.05 -63.6 Q66.6 -64.15 67.15 -63.75 L67.3 -63.65 65.55 -62.4 67.3 -63.65 M67.65 -61.0 Q68.25 -61.55 68.65 -60.9 69.05 -60.25 68.45 -59.6 67.85 -59.0 67.45 -59.7 67.0 -60.45 67.65 -61.0 M71.2 -55.8 Q71.35 -55.25 70.85 -55.0 L70.8 -54.95 Q70.15 -54.7 69.7 -55.4 69.2 -56.15 69.9 -56.6 70.6 -57.05 71.05 -56.2 L71.2 -55.8 70.8 -54.95 71.2 -55.8 M68.55 -57.8 Q68.3 -58.4 68.75 -58.65 69.2 -58.9 69.6 -58.4 70.0 -57.95 69.4 -57.55 68.75 -57.2 68.55 -57.8 M64.25 -75.15 Q63.2 -74.5 62.8 -75.55 62.35 -76.65 63.2 -77.05 64.0 -77.5 64.65 -76.65 65.3 -75.8 64.25 -75.15 M61.7 -71.25 Q60.95 -70.95 60.35 -71.65 59.75 -72.4 60.6 -72.65 61.45 -72.9 61.95 -72.25 62.45 -71.6 61.7 -71.25 M64.15 -70.5 L63.85 -70.8 Q63.45 -71.45 64.1 -72.0 64.7 -72.6 65.25 -71.8 65.8 -71.05 65.05 -70.6 L64.4 -70.45 64.15 -70.5 M61.55 -69.4 L61.75 -69.1 Q62.05 -68.2 61.4 -67.7 60.7 -67.25 60.35 -68.0 60.1 -68.45 60.25 -68.85 L60.65 -69.35 61.55 -69.4 60.25 -68.85 61.55 -69.4 M63.3 -73.25 Q62.85 -73.9 63.5 -74.3 64.1 -74.7 64.5 -73.95 64.9 -73.2 64.35 -72.9 63.75 -72.6 63.3 -73.25 M57.3 -66.35 Q58.0 -66.95 58.5 -66.05 59.0 -65.2 58.25 -64.7 57.45 -64.2 57.05 -64.95 56.6 -65.75 57.3 -66.35 M59.95 -66.1 Q59.2 -65.75 58.75 -66.45 58.25 -67.2 59.0 -67.45 59.8 -67.7 60.25 -67.1 60.65 -66.45 59.95 -66.1 M65.05 -69.35 L65.65 -69.3 Q65.85 -68.9 65.5 -68.5 65.15 -68.15 64.9 -68.6 64.6 -69.05 65.05 -69.35 M45.7 -71.7 Q44.85 -71.15 44.4 -71.95 L44.3 -72.15 44.15 -72.3 Q43.6 -73.05 44.4 -73.25 L44.5 -73.3 44.65 -73.45 Q45.4 -74.15 45.95 -73.15 46.5 -72.25 45.7 -71.7 M46.9 -71.15 Q47.25 -70.6 46.6 -70.25 45.95 -69.9 45.5 -70.6 45.05 -71.25 45.75 -71.5 46.45 -71.7 46.9 -71.15 M48.15 -69.15 Q47.8 -69.9 48.5 -70.5 49.15 -71.1 49.5 -70.2 49.8 -69.45 49.35 -69.0 L49.8 -68.6 Q50.3 -68.0 49.6 -67.7 48.85 -67.4 48.3 -68.05 47.8 -68.65 48.3 -68.9 L48.15 -69.15 M50.2 -68.25 Q50.9 -68.85 51.4 -67.95 51.9 -67.1 51.15 -66.6 50.35 -66.1 49.95 -66.85 49.5 -67.65 50.2 -68.25 M49.2 -62.65 Q48.45 -63.75 49.65 -64.1 50.75 -64.45 51.45 -63.55 52.1 -62.65 51.0 -62.1 49.95 -61.55 49.2 -62.65 M54.1 -63.45 Q53.7 -64.2 54.4 -64.8 55.1 -65.45 55.5 -64.55 L55.6 -64.05 55.75 -64.1 Q56.55 -64.35 57.0 -63.7 57.5 -63.1 56.8 -62.8 56.05 -62.5 55.5 -63.15 L55.35 -63.35 55.15 -63.15 Q54.45 -62.7 54.1 -63.45 M10.1 -72.3 Q9.35 -72.0 8.75 -72.7 L8.65 -72.9 8.6 -72.85 Q7.85 -72.4 7.45 -73.1 7.05 -73.85 7.75 -74.45 8.4 -75.05 8.9 -74.2 L9.05 -73.7 Q9.85 -73.95 10.35 -73.3 10.85 -72.65 10.1 -72.3 M8.9 -71.1 Q9.3 -70.45 8.6 -70.1 7.85 -69.75 7.4 -70.45 6.9 -71.2 7.65 -71.45 8.45 -71.7 8.9 -71.1 M-86.6 -83.55 L-86.85 -83.75 Q-87.35 -84.35 -86.6 -84.8 -85.85 -85.3 -85.2 -84.65 -84.6 -84.0 -85.45 -83.6 L-85.75 -83.5 -86.6 -83.55 M-84.6 -83.4 L-84.65 -83.45 Q-85.4 -84.3 -84.35 -84.8 -83.3 -85.35 -82.7 -84.45 -82.15 -83.6 -83.05 -83.1 -83.95 -82.6 -84.6 -83.4 L-84.1 -83.35 -84.6 -83.4 M-78.05 -85.7 Q-77.15 -86.3 -76.4 -85.5 -75.65 -84.75 -76.7 -84.25 -77.7 -83.8 -78.3 -84.45 -78.95 -85.15 -78.05 -85.7 M-79.3 -84.2 Q-80.1 -83.6 -80.65 -84.45 -81.25 -85.4 -80.4 -85.9 -79.6 -86.4 -79.1 -85.6 -78.55 -84.8 -79.3 -84.2 M-83.7 -81.3 Q-84.3 -82.25 -83.3 -82.9 -82.3 -83.55 -81.65 -82.4 -81.0 -81.25 -82.05 -80.8 -83.1 -80.4 -83.7 -81.3 M-81.3 -6.5 Q-80.85 -5.85 -81.5 -5.4 -82.2 -5.0 -82.75 -5.85 -83.25 -6.75 -82.5 -6.95 -81.75 -7.15 -81.3 -6.5 M-84.5 -2.85 L-84.95 -3.3 Q-85.6 -4.25 -84.55 -5.0 L-83.65 -5.3 Q-83.15 -5.3 -82.65 -4.65 -81.85 -3.6 -83.05 -2.95 L-84.5 -2.85 -83.65 -5.3 -84.5 -2.85 M-77.6 -7.15 Q-78.05 -7.9 -77.15 -8.45 -76.25 -9.0 -75.85 -8.15 -75.45 -7.35 -76.3 -6.9 -77.2 -6.45 -77.6 -7.15 M-79.5 -6.05 L-79.6 -6.25 Q-79.8 -6.7 -79.45 -6.95 -79.15 -7.25 -78.85 -6.8 -78.55 -6.35 -79.0 -6.1 L-79.5 -6.05" fill="#ffcaaf" fill-rule="evenodd" stroke="none"/>
    <path d="M96.65 -56.35 L93.15 -52.75 M93.05 -59.0 L90.45 -54.8 M89.65 -61.1 L86.75 -57.0 M89.5 -33.15 L87.2 -37.55 M93.25 -35.6 L90.15 -39.5 M96.4 -38.55 L92.7 -41.85 M99.0 -42.25 L94.6 -44.55 M100.35 -47.1 L95.35 -47.4 M99.5 -52.15 L94.8 -50.35 M41.35 -119.65 L43.95 -115.45 M46.4 -118.25 L46.4 -121.2 M39.15 -120.4 L36.05 -116.5 M26.4 -124.55 L26.6 -119.55 M31.05 -124.15 L29.95 -119.25 M35.3 -122.7 L33.2 -118.2 M42.3 -117.6 L38.8 -114.1 M44.85 -114.7 L40.95 -111.6 M21.85 -123.9 L23.05 -119.0 M17.7 -122.4 L19.8 -117.9 M5.35 -111.05 L9.55 -108.35 M6.65 -106.0 L6.4 -105.8 7.8 -105.1 M7.65 -114.1 L11.55 -111.0 M13.85 -120.2 L16.75 -116.1 M10.5 -117.3 L14.1 -113.8 M4.2 -88.85 L-0.8 -88.85 M18.55 -83.3 L15.05 -86.8 M20.55 -84.0 L20.85 -89.0 M25.05 -80.1 L29.05 -83.1 M22.6 -83.3 L26.1 -86.8 M46.4 -118.25 L46.4 -117.95 46.4 -116.2 M49.55 -116.0 L49.3 -115.55 M49.55 -116.0 L51.4 -120.05 M60.95 -111.05 L56.65 -108.45 M62.85 -107.2 L58.25 -105.3 M55.1 -117.7 L52.0 -113.8 M58.35 -114.6 L54.55 -111.3 M65.45 -99.55 L60.75 -97.85 M52.2 -99.75 L47.6 -97.85 M53.7 -96.05 L49.1 -94.15 M55.2 -92.3 L50.6 -90.4 M56.7 -88.7 L52.1 -86.8 M58.3 -85.0 L53.7 -83.1 M59.8 -81.45 L55.2 -79.45 M70.15 -89.05 L65.75 -86.75 M72.0 -85.55 L67.5 -83.35 M73.65 -81.9 L69.05 -80.0 M64.15 -103.2 L59.45 -101.6 M66.85 -96.05 L62.25 -94.05 M68.4 -92.5 L63.9 -90.4 M50.8 -103.25 L46.2 -101.35 M47.4 -110.75 L43.0 -108.35 M49.3 -107.0 L44.7 -105.0 M-40.3 -120.6 L-39.6 -115.7 M-44.75 -119.4 L-42.75 -114.8 M-51.9 -113.85 L-48.0 -110.75 M-54.25 -110.4 L-50.15 -107.6 M-48.7 -117.05 L-45.6 -113.15 M-64.2 -99.55 L-61.2 -95.55 M-61.55 -101.8 L-58.15 -98.2 M-70.35 -97.85 L-69.85 -92.85 M-74.15 -97.6 L-74.05 -92.6 M-60.55 -78.2 L-65.15 -80.1 M-58.9 -82.15 L-63.5 -84.15 M-57.2 -85.5 L-61.6 -87.9 M-66.55 -98.35 L-65.65 -93.45 M-42.35 -92.05 L-41.2 -96.75 M-36.2 -91.55 L-37.55 -93.8 -37.6 -93.7 -36.2 -91.55 -35.05 -89.65 M-39.2 -90.65 L-37.6 -93.7 M-37.55 -93.8 L-36.9 -95.05 M-55.8 -101.6 L-55.25 -101.1 M-55.8 -101.6 L-58.95 -104.5 M-52.4 -90.7 L-55.0 -94.9 M-49.25 -91.8 L-50.45 -96.6 M-45.8 -92.25 L-45.9 -97.25 M-44.1 -87.65 L-40.1 -84.65 M-48.5 -80.35 L-44.0 -78.25 M-46.5 -84.15 L-42.2 -81.55 M-41.3 -90.85 L-37.7 -87.45 M-56.5 -107.35 L-52.6 -104.25 M-55.15 -88.5 L-58.85 -91.8 M-11.2 -122.95 L-14.1 -118.85 M-7.9 -120.55 L-10.9 -116.55 M7.05 -103.55 L4.7 -104.45 2.75 -102.9 M2.35 -105.35 L4.7 -104.45 6.4 -105.8 3.25 -107.35 M4.0 -109.2 L0.3 -105.9 M1.2 -112.2 L-2.4 -108.8 M-4.75 -117.95 L-7.95 -114.15 M-1.85 -115.3 L-5.25 -111.7 M-24.5 -126.15 L-22.9 -121.45 M-25.75 -119.95 L-28.6 -124.2 M-31.25 -117.75 L-31.55 -117.35 -32.4 -116.1 -30.3 -114.95 M-34.7 -117.35 L-32.45 -116.15 -31.55 -117.35 M-34.15 -113.75 L-32.75 -115.65 -32.45 -116.15 -32.4 -116.1 -32.75 -115.65 M-32.0 -121.15 L-28.3 -117.85 M-22.3 -103.85 L-18.6 -107.25 M-24.9 -106.55 L-21.5 -110.15 M-27.8 -109.05 L-24.6 -112.85 M-30.85 -111.45 L-27.95 -115.45 M-16.25 -98.65 L-17.3 -97.85 M-15.1 -99.55 L-13.4 -100.95 M-18.65 -89.95 L-15.95 -94.15 M-21.95 -91.6 L-20.25 -96.3 M-25.2 -92.3 L-24.9 -97.3 M-31.95 -91.3 L-33.85 -95.9 M-28.65 -92.25 L-29.45 -97.15 M3.05 -92.7 L-0.65 -93.0 M3.05 -92.7 L4.15 -92.6 M-13.2 -91.4 L-8.8 -93.8 M-15.15 -94.7 L-10.95 -97.4 M-9.75 -77.7 L-5.65 -80.6 M-12.05 -81.05 L-7.95 -83.85 M-14.3 -84.35 L-10.2 -87.15 M-0.4 -80.65 L4.6 -81.05 M-0.7 -84.7 L4.3 -85.0 M-7.0 -77.15 L-2.2 -78.55 M-8.25 -80.75 L-3.55 -82.45 M-9.7 -84.35 L-5.1 -86.35 M-11.35 -87.9 L-6.85 -90.1 M-16.25 -98.65 L-15.1 -99.55 M-19.8 -101.05 L-15.9 -104.15 M-14.7 -125.25 L-17.4 -121.05 M-16.6 -87.9 L-12.4 -90.6 M-19.95 -127.1 L-19.55 -122.1 M-34.8 -120.0 L-37.2 -115.6 M-5.1 -71.25 L-1.2 -74.45 -5.85 -73.1 M2.25 -68.55 L1.35 -68.4 M3.4 -68.8 L5.5 -69.25 6.25 -69.4 M2.25 -68.55 L3.4 -68.8 M0.85 -64.75 L4.05 -68.55 M-2.35 -67.8 L1.35 -71.1 M-14.35 -66.8 L-12.55 -62.1 M-8.6 -66.6 L-10.5 -62.0 M-4.5 -63.85 L-7.9 -60.25 M-23.05 -55.9 L-18.55 -53.8 M-21.4 -59.65 L-16.7 -57.85 M-34.65 -35.1 L-30.45 -32.4 M-32.45 -38.45 L-28.25 -35.75 M-30.25 -41.85 L-26.05 -39.05 M-27.95 -45.2 L-23.75 -42.6 M-26.25 -48.35 L-21.75 -46.15 M-24.85 -51.8 L-20.15 -50.0 M-18.5 -64.2 L-15.0 -60.6 M-51.4 -72.15 L-46.7 -70.55 M-52.65 -68.3 L-47.95 -66.8 M-55.15 -60.6 L-50.45 -59.0 M-54.0 -64.25 L-49.2 -62.75 M-50.2 -76.0 L-45.4 -74.5 M-63.65 -70.4 L-65.95 -71.35 -65.4 -69.3 M-68.15 -72.65 L-66.1 -71.85 -66.7 -74.1 M-65.25 -66.55 L-69.85 -68.45 -70.35 -73.45 M-74.3 -68.45 L-73.9 -73.45 M-68.25 -59.1 L-72.85 -61.1 M-69.95 -55.4 L-74.45 -57.5 M-65.95 -71.35 L-68.25 -72.3 M-65.95 -71.35 L-66.1 -71.85 -63.55 -70.85 M-66.65 -62.95 L-71.25 -64.85 M-62.05 -74.5 L-66.65 -76.4 M-64.2 -43.75 L-60.4 -40.55 M-61.9 -46.75 L-57.8 -43.85 M-69.7 -38.25 L-66.4 -34.45 M-72.2 -35.2 L-69.7 -31.85 M-72.6 -35.75 L-72.2 -35.2 M-66.85 -40.9 L-63.25 -37.4 M-59.75 -49.95 L-55.45 -47.45 M-58.0 -53.3 L-53.5 -51.1 M-56.5 -56.8 L-51.8 -55.0 M-40.95 -24.85 L-36.75 -22.15 M-43.15 -21.7 L-39.25 -18.6 M-45.75 -18.8 L-42.15 -15.3 M-48.5 -16.15 L-45.2 -12.45 M-51.45 -13.75 L-48.45 -9.75 M-54.65 -11.45 L-51.95 -7.25 M-61.25 -8.1 L-59.45 -3.4 M-75.7 -5.9 L-76.1 -0.9 M-72.0 -5.85 L-71.8 -0.85 M-68.3 -6.15 L-67.6 -1.25 M-57.9 -9.55 L-55.6 -5.15 M-64.75 -6.95 L-63.45 -2.15 M-38.9 -28.3 L-34.7 -25.6 M-36.75 -31.7 L-32.55 -29.0 M79.75 -67.5 L81.3 -68.85 M79.75 -67.5 L78.65 -66.6 77.5 -65.65 M65.6 -67.15 L63.45 -65.85 62.35 -65.2 61.75 -64.85 M66.05 -67.45 L65.6 -67.15 M65.55 -62.4 L64.0 -61.35 M68.1 -64.25 L67.3 -63.65 65.55 -62.4 M71.2 -55.8 L72.9 -59.3 M71.2 -55.8 L70.8 -54.95 M70.3 -61.25 L66.6 -57.95 M77.0 -75.0 L72.7 -72.5 M79.05 -71.85 L74.95 -68.95 M83.85 -66.05 L80.35 -62.55 M64.4 -70.45 L64.15 -70.5 61.55 -69.4 60.25 -68.85 59.8 -68.65 M62.9 -74.1 L58.3 -72.1 M60.1 -34.7 L62.6 -39.0 M56.45 -37.0 L59.35 -41.1 M53.15 -39.5 L56.25 -43.4 M50.0 -42.3 L53.4 -45.9 M47.1 -45.2 L50.8 -48.6 M85.45 -31.4 L83.95 -36.2 M81.15 -30.45 L80.45 -35.45 M76.75 -30.2 L76.75 -35.2 M72.45 -30.4 L73.05 -35.4 M68.15 -31.3 L69.45 -36.1 M64.0 -32.7 L66.0 -37.3 M29.4 -73.45 L33.7 -76.05 M39.3 -55.5 L43.5 -58.2 M37.1 -58.95 L41.4 -61.55 M35.05 -62.6 L39.45 -65.0 M33.15 -66.25 L37.65 -68.45 M31.35 -69.95 L35.75 -72.25 M9.4 -59.55 L5.1 -57.05 M11.55 -56.85 L8.05 -53.25 M44.25 -48.65 L48.15 -51.75 M41.7 -52.05 L45.7 -54.95 M0.65 -72.45 L5.55 -73.25 M0.05 -76.55 L5.05 -77.15 M-0.05 -97.25 L4.85 -96.35 M1.0 -101.4 L5.8 -100.0 M75.25 -78.3 L70.75 -76.2 M27.3 -76.85 L31.5 -79.55 M8.0 -62.6 L3.3 -60.8 M-7.3 -74.4 L-3.3 -77.3 M61.3 -77.7 L56.7 -75.8 M-83.65 -96.15 L-79.95 -92.85 M-78.0 -97.65 L-78.2 -92.65 M-85.75 -83.5 L-84.6 -83.4 -84.1 -83.35 M-89.1 -83.75 L-86.6 -83.55 -85.75 -83.5 M-88.65 -78.95 L-83.75 -80.05 M-88.15 -88.3 L-83.45 -86.7 M-86.35 -92.35 L-81.95 -89.95 M-86.85 -74.5 L-82.55 -77.0 M-82.85 -70.8 L-80.65 -75.3 M-78.8 -69.3 L-77.4 -74.1 M-92.7 -27.75 L-96.3 -31.15 M-90.0 -29.9 L-92.7 -34.1 M-86.6 -32.05 L-89.5 -36.15 M-83.3 -34.7 L-86.6 -38.4 M-80.25 -37.75 L-83.95 -41.05 M-77.55 -41.1 L-81.65 -44.0 M-92.1 -13.15 L-95.6 -9.65 M-89.4 -10.9 L-92.5 -7.0 M-86.4 -8.8 L-89.1 -4.6 M-83.65 -5.3 L-83.05 -7.15 M-84.5 -2.85 L-84.65 -2.45 M-83.65 -5.3 L-84.5 -2.85 M-79.5 -6.05 L-79.6 -6.25 M-79.5 -6.05 L-80.35 -1.45 M-94.0 -15.75 L-98.4 -13.35 M-95.2 -18.9 L-100.1 -17.9 M-95.35 -22.0 L-100.35 -22.6 M-94.45 -25.1 L-99.05 -27.1 M-71.7 -51.8 L-76.2 -53.9 M-73.4 -48.3 L-77.9 -50.5 M-75.3 -44.65 L-79.6 -47.15 M86.65 -63.5 L83.35 -59.7" fill="none" stroke="#000000" stroke-linecap="round" stroke-linejoin="round" stroke-opacity="0.30980393" stroke-width="0.05"/>
    <path d="M-1.15 -37.85 L-0.95 -32.85 M3.3 -37.6 L2.6 -32.7 M7.75 -36.3 L5.75 -31.7 M11.75 -33.75 L8.45 -29.95 M16.95 -26.5 L12.35 -24.5 M18.4 -22.6 L13.6 -21.2 M19.35 -18.6 L14.45 -17.7 M20.0 -14.55 L15.0 -14.05 M20.35 -6.45 L15.35 -6.45 M20.3 -10.6 L15.3 -10.3 M17.65 21.85 L12.75 20.85 M18.4 17.9 L13.5 17.0 M19.05 13.85 L14.15 13.15 M19.6 9.75 L14.6 9.25 M19.95 5.7 L14.95 5.3 M20.2 1.7 L15.2 1.4 M20.35 -2.4 L15.35 -2.5 M14.8 -30.35 L10.7 -27.45 M-76.85 125.35 L-79.05 120.85 M16.75 25.85 L11.85 24.65 M15.65 29.75 L10.85 28.35 M14.5 33.65 L9.7 32.15 M13.2 37.55 L8.5 35.85 M11.75 41.35 L7.15 39.55 M10.2 45.1 L5.6 43.1 M2.8 59.5 L-1.5 56.9 M0.65 62.9 L-3.55 60.2 M-1.6 66.25 L-5.7 63.45 M-4.0 69.6 L-8.0 66.6 M-66.15 119.8 L-68.55 115.4 M-62.7 117.9 L-65.1 113.5 M-59.2 115.85 L-61.7 111.55 M-52.25 111.85 L-54.85 107.55 M-48.9 109.7 L-51.5 105.5 M-45.5 107.6 L-48.2 103.4 M-42.15 105.35 L-44.95 101.25 M-38.85 103.1 L-41.75 99.0 M-55.75 113.85 L-58.25 109.55 M-11.55 79.0 L-15.35 75.7 M-9.0 75.95 L-12.8 72.75 M-29.15 95.85 L-32.25 91.95 M-26.05 93.3 L-29.25 89.5 M-22.95 90.65 L-26.25 86.95 M-19.85 87.8 L-23.35 84.2 M-16.85 84.75 L-20.35 81.25 M-32.3 98.35 L-35.3 94.35 M-14.25 82.0 L-17.95 78.6 M-6.45 72.8 L-10.35 69.7 M-35.6 100.75 L-38.5 96.75 M8.5 48.8 L4.0 46.6 M6.7 52.4 L2.3 50.1 M4.85 55.95 L0.45 53.55 M-69.7 121.7 L-72.0 117.3 M-73.25 123.5 L-75.55 119.1" fill="none" stroke="#ffcaaf" stroke-linecap="round" stroke-linejoin="round" stroke-width="0.05"/>
  </g>
</svg>
