<?xml version="1.0" encoding="UTF-8" standalone="no"?>
<svg xmlns:xlink="http://www.w3.org/1999/xlink" height="133.55px" width="101.2px" xmlns="http://www.w3.org/2000/svg">
  <g transform="matrix(1.0, 0.0, 0.0, 1.0, -225.05, -189.05)">
    <path d="M324.75 197.95 Q326.55 203.0 326.0 210.9 L325.75 212.35 325.75 212.6 Q322.6 223.75 316.7 229.85 312.3 233.4 302.75 219.55 302.8 217.9 302.5 216.4 L302.15 214.95 302.5 216.4 Q297.6 229.25 289.8 227.05 L286.4 224.35 Q295.25 214.4 302.15 214.95 294.1 214.15 286.3 208.3 280.8 205.25 274.8 210.15 277.9 205.35 287.15 198.85 301.45 190.45 316.05 192.0 321.1 193.15 324.75 197.95 M317.2 206.75 Q317.85 204.75 317.3 202.6 316.5 199.75 313.9 198.25 311.3 196.75 308.45 197.5 305.6 198.3 304.1 200.9 303.75 201.5 303.55 202.15 L303.45 202.4 Q301.35 204.35 300.95 207.3 301.95 213.8 307.55 215.05 313.95 216.45 317.05 210.6 L317.1 207.1 317.2 206.75 M284.1 224.45 L285.25 224.35 286.4 224.35 289.8 227.05 297.45 233.2 297.75 234.05 298.1 234.9 297.4 235.4 288.65 228.2 Q288.95 227.75 288.7 227.1 288.55 226.35 287.9 225.75 287.2 225.0 286.45 224.85 285.7 224.65 285.3 225.1 L285.1 225.3 284.1 224.45 M297.45 222.15 Q301.2 218.8 300.25 217.3 297.2 216.55 289.35 224.15 291.45 226.5 297.45 222.15" fill="#c5d3d1" fill-rule="evenodd" stroke="none"/>
    <path d="M274.8 210.15 Q280.8 205.25 286.3 208.3 294.1 214.15 302.15 214.95 295.25 214.4 286.4 224.35 L285.25 224.35 Q288.55 216.95 273.05 215.0 273.15 212.75 274.8 210.15 M302.5 216.4 Q302.8 217.9 302.75 219.55 312.3 233.4 316.7 229.85 322.6 223.75 325.75 212.6 321.3 236.15 308.85 250.05 308.25 230.5 297.75 234.05 L297.45 233.2 289.8 227.05 Q297.6 229.25 302.5 216.4 M284.1 224.45 L285.1 225.3 Q284.9 225.7 285.0 226.25 L285.9 227.7 Q286.55 228.35 287.3 228.5 L288.55 228.35 288.65 228.2 297.4 235.4 295.5 236.6 294.05 235.8 284.55 228.2 282.7 226.8 284.1 224.45 M302.75 219.55 Q302.6 223.65 300.3 228.4 L297.45 233.2 300.3 228.4 Q302.6 223.65 302.75 219.55" fill="#a8bdba" fill-rule="evenodd" stroke="none"/>
    <path d="M290.85 246.95 L315.95 266.5 315.2 268.1 303.4 259.05 302.6 260.45 311.6 267.7 310.8 269.1 288.05 251.8 289.4 250.3 299.6 258.0 299.65 256.4 290.25 249.15 Q291.1 247.75 290.85 246.95 M312.25 272.6 L311.4 273.8 299.55 264.3 297.55 260.75 312.25 272.6 M228.75 321.75 L227.45 321.0 233.75 311.95 235.65 309.1 236.25 308.55 242.6 302.0 228.75 321.75 M226.6 314.25 L225.5 313.6 227.7 309.8 236.95 297.35 237.7 294.1 226.4 308.0 225.15 306.25 Q239.35 289.05 252.7 271.6 L255.2 271.5 240.65 290.05 241.75 290.65 257.8 271.25 260.65 271.1 226.6 314.25 M282.55 240.45 L278.3 237.1 276.75 239.3 268.55 232.4 251.4 217.95 252.45 216.9 278.3 237.1 283.75 229.35 289.3 234.7 282.55 240.45 M247.45 224.35 L248.5 222.3 263.05 234.15 247.45 224.35" fill="#bf8200" fill-rule="evenodd" stroke="none"/>
    <path d="M315.2 268.1 L312.25 272.6 297.55 260.75 299.55 264.3 311.4 273.8 309.95 275.3 284.85 256.0 288.05 251.8 310.8 269.1 311.6 267.7 302.6 260.45 303.4 259.05 315.2 268.1 M265.15 273.15 Q246.4 298.2 230.05 322.5 L228.75 321.75 242.6 302.0 236.25 308.55 235.65 309.1 233.75 311.95 231.65 310.9 227.75 314.9 226.6 314.25 260.65 271.1 264.05 270.05 265.15 273.15 M227.7 309.8 L226.4 308.0 237.7 294.1 236.95 297.35 227.7 309.8 M290.25 249.15 L299.65 256.4 299.6 258.0 289.4 250.3 290.25 249.15 M289.3 234.7 L292.05 238.3 287.4 244.2 282.55 240.45 289.3 234.7 M268.55 232.4 L264.55 240.35 246.3 226.3 247.45 224.35 263.05 234.15 248.5 222.3 249.35 220.7 256.75 225.85 250.35 218.95 251.4 217.95 268.55 232.4 M255.2 271.5 L257.8 271.25 241.75 290.65 240.65 290.05 255.2 271.5" fill="#996600" fill-rule="evenodd" stroke="none"/>
    <path d="M324.75 197.95 Q321.1 193.15 316.05 192.0 301.45 190.45 287.15 198.85 277.9 205.35 274.8 210.15 273.15 212.75 273.05 215.0 L267.9 214.5 Q283.4 194.05 302.85 190.25 320.4 186.05 324.75 197.95 M317.1 207.1 L317.05 210.6 Q313.95 216.45 307.55 215.05 301.95 213.8 300.95 207.3 301.35 204.35 303.45 202.4 302.8 204.3 303.35 206.35 304.1 209.25 306.7 210.75 309.3 212.25 312.2 211.45 315.05 210.7 316.55 208.1 L317.1 207.1 M288.65 228.2 L288.55 228.35 287.3 228.5 Q286.55 228.35 285.9 227.7 L285.0 226.25 Q284.9 225.7 285.1 225.3 L285.3 225.1 Q285.7 224.65 286.45 224.85 287.2 225.0 287.9 225.75 288.55 226.35 288.7 227.1 288.95 227.75 288.65 228.2 M297.45 222.15 Q291.45 226.5 289.35 224.15 297.2 216.55 300.25 217.3 301.2 218.8 297.45 222.15" fill="#d9e1df" fill-rule="evenodd" stroke="none"/>
    <path d="M284.85 256.0 L280.65 252.8 265.15 273.15 264.05 270.05 260.65 271.1 257.8 271.25 255.2 271.5 252.7 271.6 271.9 246.0 264.55 240.35 268.55 232.4 276.75 239.3 271.9 246.0 280.65 252.8 287.4 244.2 290.85 246.95 Q291.1 247.75 290.25 249.15 L289.4 250.3 288.05 251.8 284.85 256.0 M284.55 228.2 L294.05 235.8 292.05 238.3 289.3 234.7 283.75 229.35 284.55 228.2 M249.35 220.7 Q251.6 220.4 250.35 218.95 L256.75 225.85 249.35 220.7" fill="#6f4a00" fill-rule="evenodd" stroke="none"/>
    <path d="M325.75 212.35 L326.0 210.9 Q326.55 203.0 324.75 197.95 320.4 186.05 302.85 190.25 283.4 194.05 267.9 214.5 L273.05 215.0 Q288.55 216.95 285.25 224.35 L286.4 224.35 Q295.25 214.4 302.15 214.95 L302.5 216.4 Q302.8 217.9 302.75 219.55 302.6 223.65 300.3 228.4 L297.45 233.2 289.8 227.05 286.4 224.35 M290.85 246.95 L315.95 266.5 315.2 268.1 312.25 272.6 311.4 273.8 309.95 275.3 284.85 256.0 280.65 252.8 265.15 273.15 Q246.4 298.2 230.05 322.5 L228.75 321.75 227.45 321.0 233.75 311.95 231.65 310.9 227.75 314.9 226.6 314.25 225.5 313.6 227.7 309.8 226.4 308.0 225.15 306.25 Q239.35 289.05 252.7 271.6 L271.9 246.0 264.55 240.35 246.3 226.3 247.45 224.35 248.5 222.3 249.35 220.7 Q251.6 220.4 250.35 218.95 L251.4 217.95 252.45 216.9 278.3 237.1 283.75 229.35 284.55 228.2 294.05 235.8 295.5 236.6 297.4 235.4 298.1 234.9 297.75 234.05 Q308.25 230.5 308.85 250.05 321.3 236.15 325.75 212.6 M284.1 224.45 L285.25 224.35 M284.1 224.45 L282.7 226.8 284.55 228.2 M297.75 234.05 L297.45 233.2 M292.05 238.3 L294.05 235.8 M287.4 244.2 L290.85 246.95 M276.75 239.3 L271.9 246.0 280.65 252.8 287.4 244.2 282.55 240.45 278.3 237.1 276.75 239.3 M287.4 244.2 L292.05 238.3 M233.75 311.95 L235.65 309.1 236.25 308.55" fill="none" stroke="#000000" stroke-linecap="round" stroke-linejoin="round" stroke-opacity="0.3019608" stroke-width="0.2"/>
    <path d="M303.55 202.15 Q303.75 201.5 304.1 200.9 305.6 198.3 308.45 197.5 311.3 196.75 313.9 198.25 316.5 199.75 317.3 202.6 317.85 204.75 317.2 206.75 M317.1 207.1 L316.55 208.1 Q315.05 210.7 312.2 211.45 309.3 212.25 306.7 210.75 304.1 209.25 303.35 206.35 302.8 204.3 303.45 202.4" fill="none" stroke="#000000" stroke-linecap="round" stroke-linejoin="round" stroke-opacity="0.3019608" stroke-width="0.2"/>
    <path d="M264.55 240.35 L264.1 241.1 M268.55 232.4 L264.55 240.35" fill="none" stroke="#00ff00" stroke-linecap="round" stroke-linejoin="round" stroke-width="0.2"/>
    <path d="M290.5 243.9 L290.75 245.15 283.3 254.85 Q281.7 255.3 281.3 254.3 L280.9 254.5 269.6 245.9 269.65 245.55 Q269.0 245.1 269.1 243.7 L269.9 242.65 Q269.25 244.85 271.5 243.55 L278.35 234.65 278.7 234.4 277.7 233.6 Q277.5 232.35 278.05 231.9 L292.3 243.25 290.4 243.2 289.85 242.85 289.55 243.35 288.65 243.25 283.05 250.75 Q281.65 253.15 283.35 253.0 L290.5 243.9 M281.45 257.15 L279.6 257.1 266.9 247.45 Q266.7 246.4 267.15 245.9 L281.45 257.15 M278.7 235.95 Q278.75 235.15 278.35 234.65 278.75 235.15 278.7 235.95 L275.2 246.7 285.2 241.4 278.7 235.95 M281.15 252.9 Q281.05 253.75 281.3 254.3 281.05 253.75 281.15 252.9 M269.65 245.55 L271.25 245.6 269.65 245.55 M278.7 234.4 L289.85 242.85 278.7 234.4" fill="#003333" fill-rule="evenodd" stroke="none"/>
    <path d="M280.9 254.5 L281.7 255.05 Q282.45 256.75 281.45 257.15 L267.15 245.9 Q267.65 245.25 269.0 245.45 L269.6 245.9 280.9 254.5 M269.9 242.65 L276.6 234.05 Q277.85 233.95 278.35 234.65 L271.5 243.55 Q269.25 244.85 269.9 242.65 M278.05 231.9 Q278.6 231.45 279.8 231.55 L292.45 241.2 Q293.25 242.85 292.3 243.25 L278.05 231.9 M289.55 243.35 Q290.15 243.45 290.5 243.9 L283.35 253.0 Q281.65 253.15 283.05 250.75 L288.65 243.25 289.55 243.35 M278.7 235.95 L285.2 241.4 275.2 246.7 278.7 235.95" fill="#005b37" fill-rule="evenodd" stroke="none"/>
    <path d="M290.5 243.9 L290.75 245.15 283.3 254.85 Q281.7 255.3 281.3 254.3 281.05 253.75 281.15 252.9 M269.65 245.55 Q269.0 245.1 269.1 243.7 L269.9 242.65 276.6 234.05 Q277.85 233.95 278.35 234.65 278.75 235.15 278.7 235.95 M289.55 243.35 Q290.15 243.45 290.5 243.9 M288.65 243.25 L289.55 243.35 M271.25 245.6 L269.65 245.55" fill="none" stroke="#000000" stroke-linecap="round" stroke-linejoin="round" stroke-opacity="0.3019608" stroke-width="0.2"/>
    <path d="M281.3 254.3 L280.9 254.5 281.7 255.05 Q282.45 256.75 281.45 257.15 L279.6 257.1 266.9 247.45 Q266.7 246.4 267.15 245.9 267.65 245.25 269.0 245.45 L269.6 245.9 269.65 245.55 M278.35 234.65 L278.7 234.4 277.7 233.6 Q277.5 232.35 278.05 231.9 278.6 231.45 279.8 231.55 L292.45 241.2 Q293.25 242.85 292.3 243.25 L290.4 243.2 289.85 242.85 289.55 243.35 M289.85 242.85 L278.7 234.4 M269.6 245.9 L280.9 254.5" fill="none" stroke="#000000" stroke-linecap="round" stroke-linejoin="round" stroke-opacity="0.3019608" stroke-width="0.2"/>
    <path d="M270.6 231.0 L271.3 230.45 271.65 231.3 271.7 232.1 270.2 236.2 266.2 239.9 264.5 238.9 268.55 235.45 261.55 239.4 260.35 239.05 261.05 237.85 264.3 235.5 270.6 231.0 M275.5 232.55 L276.55 233.15 Q281.45 245.35 280.6 258.6 L275.05 262.0 Q276.5 243.2 273.45 238.5 L273.1 232.75 275.4 239.2 Q274.6 233.55 275.5 232.55 M255.0 267.1 Q257.25 265.1 258.7 262.1 L260.4 262.55 262.45 266.8 Q259.05 269.3 255.0 267.1 M260.9 258.25 L264.1 253.9 264.6 254.65 271.4 264.3 270.2 267.35 265.6 262.15 269.1 268.1 267.15 269.05 260.9 258.25 M266.55 252.65 L265.85 252.2 Q267.85 249.65 266.2 247.5 L267.2 245.75 269.0 245.45 273.05 251.15 273.05 254.0 268.35 248.95 272.25 255.85 271.9 257.25 266.55 252.65 M267.6 227.3 L268.55 227.85 270.1 230.25 266.7 231.85 267.6 227.3 M265.55 253.6 L270.75 259.6 269.15 259.6 265.55 253.6" fill="#f2e6ce" fill-rule="evenodd" stroke="none"/>
    <path d="M270.1 230.25 L270.6 231.0 264.3 235.5 266.65 226.75 267.6 227.3 266.7 231.85 270.1 230.25 M271.3 230.45 L270.95 229.7 271.55 228.65 274.5 231.95 275.5 232.55 Q274.6 233.55 275.4 239.2 L273.1 232.75 273.45 238.5 Q276.5 243.2 275.05 262.0 L274.35 262.4 274.2 261.3 272.1 265.35 273.35 267.1 266.95 272.2 265.1 268.7 Q260.35 270.45 254.7 269.05 L253.3 268.25 255.0 267.1 Q259.05 269.3 262.45 266.8 L260.4 262.55 262.1 263.0 260.1 259.25 260.9 258.25 267.15 269.05 269.1 268.1 265.6 262.15 270.2 267.35 271.4 264.3 264.6 254.65 265.55 253.6 266.55 252.65 271.9 257.25 272.25 255.85 268.35 248.95 273.05 254.0 273.05 251.15 274.5 253.1 Q274.5 244.7 272.05 236.8 L265.8 243.35 Q264.05 240.4 261.55 239.4 L268.55 235.45 264.5 238.9 266.2 239.9 270.2 236.2 271.7 232.1 271.65 231.3 271.55 230.25 271.3 230.45 M272.05 236.8 L271.7 232.1 272.05 236.8 M274.5 253.1 L274.2 259.2 271.9 257.25 274.2 259.2 274.5 253.1 M265.55 253.6 L269.15 259.6 270.75 259.6 265.55 253.6 M274.2 261.3 L274.2 259.2 274.2 261.3 M262.1 263.0 L265.1 268.7 262.1 263.0 M272.1 265.35 L271.4 264.3 272.1 265.35" fill="#e2ca96" fill-rule="evenodd" stroke="none"/>
    <path d="M270.1 230.25 L270.6 231.0 271.3 230.45 270.95 229.7 271.55 228.65 274.5 231.95 275.5 232.55 276.55 233.15 Q281.45 245.35 280.6 258.6 L275.05 262.0 274.35 262.4 274.2 261.3 272.1 265.35 273.35 267.1 266.95 272.2 265.1 268.7 Q260.35 270.45 254.7 269.05 L253.3 268.25 255.0 267.1 Q257.25 265.1 258.7 262.1 L260.4 262.55 262.1 263.0 260.1 259.25 260.9 258.25 264.1 253.9 264.6 254.65 265.55 253.6 266.55 252.65 265.85 252.2 Q267.85 249.65 266.2 247.5 L267.2 245.75 269.0 245.45 273.05 251.15 274.5 253.1 Q274.5 244.7 272.05 236.8 L265.8 243.35 Q264.05 240.4 261.55 239.4 L260.35 239.05 261.05 237.85 264.3 235.5 266.65 226.75 267.6 227.3 268.55 227.85 270.1 230.25 M271.65 231.3 L271.55 230.25 271.3 230.45 271.65 231.3 271.7 232.1 272.05 236.8 M270.6 231.0 L264.3 235.5 M271.9 257.25 L274.2 259.2 274.5 253.1 M266.55 252.65 L271.9 257.25 M265.1 268.7 L262.1 263.0 M274.2 259.2 L274.2 261.3 M271.4 264.3 L264.6 254.65 M271.4 264.3 L272.1 265.35" fill="none" stroke="#000000" stroke-linecap="round" stroke-linejoin="round" stroke-opacity="0.3019608" stroke-width="0.2"/>
  </g>
</svg>
