<?xml version="1.0" encoding="UTF-8" standalone="no"?>
<svg xmlns:xlink="http://www.w3.org/1999/xlink" height="40.9px" width="42.65px" xmlns="http://www.w3.org/2000/svg">
  <g transform="matrix(1.0, 0.0, 0.0, 1.0, -259.15, -382.5)">
    <path d="M294.95 414.4 Q292.25 409.95 288.1 404.85 L287.9 403.45 278.15 390.9 277.8 391.6 277.2 392.0 277.1 392.1 276.8 392.25 Q275.5 393.0 274.5 393.2 L275.15 393.95 276.2 395.1 277.3 396.3 277.75 396.75 278.3 397.4 280.5 400.1 283.1 403.3 287.75 409.2 288.2 409.75 289.35 411.4 297.8 422.8 299.0 422.85 300.15 422.45 300.3 422.35 301.3 421.2 294.65 412.45 288.4 403.35 287.9 403.45 M274.5 393.2 L273.55 393.1 271.95 394.3 271.45 395.0 Q270.65 396.2 270.4 397.2 L270.3 398.3 Q270.3 398.9 270.45 399.5 L270.45 399.6 Q270.8 400.9 271.85 402.1 L266.4 405.85 265.95 405.45 265.6 405.65 265.9 406.3 261.65 409.2 261.35 408.65 259.65 400.7 260.45 399.6 260.75 399.25 261.85 397.95 264.2 395.45 267.95 392.15 268.85 391.45 270.8 390.55 270.25 390.05 Q270.0 389.35 270.45 388.25 L268.5 385.9 268.25 385.45 Q267.95 384.5 269.3 383.65 270.55 382.85 271.45 383.0 L272.25 383.25 274.4 386.15 Q275.3 385.95 276.05 386.55 L277.2 388.0 286.5 384.55 278.6 389.85 278.75 390.0 278.6 390.4 278.15 390.9 M269.55 384.4 L270.5 384.25 269.9 386.1 268.25 385.45 M270.45 388.25 L271.6 389.6 274.05 389.1 275.1 388.3 M275.3 388.05 L275.5 387.5 275.05 387.0 274.9 386.75 274.4 386.15 M273.55 393.1 L273.3 393.05 273.05 392.85 272.7 392.5 M277.25 390.25 L276.8 389.3 276.7 388.6 276.8 388.2 276.8 388.15 277.2 388.0 M277.5 390.55 L278.05 390.3 278.25 390.05 278.6 389.85 M278.3 397.4 L277.75 396.85 277.4 396.5 277.15 398.3 Q280.5 400.85 283.1 403.3 M277.75 396.85 L277.3 396.3" fill="none" stroke="#000000" stroke-linecap="round" stroke-linejoin="round" stroke-opacity="0.3019608" stroke-width="1.0"/>
    <path d="M270.4 397.2 L270.3 398.3 Q264.85 398.25 264.2 395.45 L267.95 392.15 269.3 395.65 270.4 397.2 M260.8 406.05 L259.65 400.7 260.45 399.6 260.75 399.25 Q264.3 400.45 264.9 403.3 L263.1 404.5 260.7 400.55 262.0 405.3 260.8 406.05" fill="#637687" fill-rule="evenodd" stroke="none"/>
    <path d="M265.95 405.45 L265.6 405.65 263.9 406.85 262.75 405.1 261.35 408.65 260.8 406.05 262.0 405.3 260.7 400.55 263.1 404.5 264.9 403.3 266.5 402.25 267.05 399.6 267.3 401.8 269.95 400.05 Q270.15 401.1 270.95 401.8 L265.95 405.45" fill="#8899a6" fill-rule="evenodd" stroke="none"/>
    <path d="M271.95 394.3 L271.45 395.0 Q270.65 396.2 270.4 397.2 L269.3 395.65 267.95 392.15 268.85 391.45 271.95 394.3" fill="#394e64" fill-rule="evenodd" stroke="none"/>
    <path d="M270.45 399.6 Q270.8 400.9 271.85 402.1 L266.4 405.85 265.95 405.45 270.95 401.8 Q270.15 401.1 269.95 400.05 L270.45 399.6 M265.6 405.65 L265.9 406.3 264.3 407.4 263.9 406.85 265.6 405.65" fill="#b8c7cf" fill-rule="evenodd" stroke="none"/>
    <path d="M268.85 391.45 L272.65 389.75 274.45 392.4 271.95 394.3 268.85 391.45" fill="#2f4151" fill-rule="evenodd" stroke="none"/>
    <path d="M270.3 398.3 Q270.3 398.95 270.45 399.6 L269.95 400.05 267.3 401.8 267.05 399.6 266.5 402.25 264.9 403.3 Q264.3 400.45 260.75 399.25 L264.2 395.45 Q264.85 398.25 270.3 398.3" fill="#69808d" fill-rule="evenodd" stroke="none"/>
    <path d="M264.3 407.4 L261.65 409.2 261.35 408.65 262.75 405.1 263.9 406.85 264.3 407.4" fill="#efeded" fill-rule="evenodd" stroke="none"/>
    <path d="M268.85 391.45 L272.65 389.75 274.45 392.4 271.95 394.3 271.45 395.0 Q270.65 396.2 270.4 397.2 L270.3 398.3 Q270.3 398.95 270.45 399.6 270.8 400.9 271.85 402.1 L266.4 405.85 265.95 405.45 265.6 405.65 265.9 406.3 264.3 407.4 261.65 409.2 261.35 408.65 260.8 406.05 259.65 400.7 260.45 399.6 260.75 399.25 264.2 395.45 267.95 392.15 268.85 391.45 Z" fill="none" stroke="#000000" stroke-linecap="round" stroke-linejoin="round" stroke-opacity="0.4" stroke-width="0.05"/>
    <path d="M285.1 405.3 Q281.85 401.9 277.15 398.3 L277.4 396.5 284.85 403.9 285.1 405.3" fill="#7c6c38" fill-rule="evenodd" stroke="none"/>
    <path d="M284.85 403.9 L277.4 396.5 277.15 398.3 Q281.85 401.9 285.1 405.3" fill="none" stroke="#000000" stroke-linecap="round" stroke-linejoin="round" stroke-opacity="0.3019608" stroke-width="0.05"/>
    <path d="M278.35 394.1 L279.6 395.6 279.45 395.75 279.55 395.8 282.25 399.1 283.2 400.1 285.95 405.3 288.15 406.7 296.7 417.9 300.15 422.45 299.0 422.85 289.35 411.4 289.3 411.25 280.5 400.1 278.7 396.45 276.2 395.1 275.15 393.95 278.35 394.1 M277.75 396.75 L277.75 396.85 277.3 396.3 277.75 396.75 M270.45 388.25 L268.5 385.9 268.25 385.45 Q267.95 384.5 269.3 383.65 270.55 382.85 271.45 383.0 L271.5 385.65 274.05 389.1 271.6 389.6 270.45 388.25 M268.25 385.45 L269.9 386.1 270.5 384.25 269.55 384.4 270.5 384.25 269.9 386.1 268.25 385.45" fill="#a4882b" fill-rule="evenodd" stroke="none"/>
    <path d="M287.9 403.45 L288.1 404.85 Q288.85 404.9 291.0 407.2 L294.65 412.45 301.3 421.2 300.3 422.35 299.1 419.75 296.7 417.9 288.15 406.7 283.2 400.1 282.25 399.1 279.55 395.8 279.45 395.75 279.6 395.6 278.35 394.1 Q279.8 393.15 279.05 392.05 L280.85 394.35 280.95 394.3 280.95 394.25 287.9 403.45 M272.25 383.25 L274.4 386.15 274.9 386.75 275.05 387.0 275.5 387.5 275.3 388.05 275.1 388.3 274.05 389.1 271.5 385.65 Q272.9 384.85 272.25 383.25 M294.95 414.4 Q292.25 409.95 288.1 404.85 292.25 409.95 294.95 414.4" fill="#cdae43" fill-rule="evenodd" stroke="none"/>
    <path d="M271.45 383.0 L272.25 383.25 Q272.9 384.85 271.5 385.65 L271.45 383.0" fill="#d8ca7c" fill-rule="evenodd" stroke="none"/>
    <path d="M279.05 392.05 Q279.8 393.15 278.35 394.1 L275.15 393.95 274.5 393.2 Q275.5 393.0 276.8 392.25 L277.1 392.1 277.2 392.0 277.8 391.6 278.15 390.9 279.05 392.05" fill="#7c6c38" fill-rule="evenodd" stroke="none"/>
    <path d="M288.1 404.85 L287.9 403.45 288.4 403.35 291.0 407.2 Q288.85 404.9 288.1 404.85" fill="#bbaf2b" fill-rule="evenodd" stroke="none"/>
    <path d="M283.2 400.1 L288.15 406.7 285.95 405.3 283.2 400.1 M296.7 417.9 L299.1 419.75 300.3 422.35 300.15 422.45 296.7 417.9 M280.5 400.1 L277.75 396.75 277.3 396.3 276.2 395.1 278.7 396.45 280.5 400.1 M299.0 422.85 L297.8 422.8 289.35 411.4 299.0 422.85" fill="#b19741" fill-rule="evenodd" stroke="none"/>
    <path d="M273.05 392.85 L272.7 392.5 270.85 390.6 Q272.75 390.8 274.35 389.9 L275.75 388.9 276.45 389.9 277.3 391.0 277.8 391.6 277.2 392.0 277.1 392.1 Q275.05 392.8 273.05 392.85" fill="#8d4803" fill-rule="evenodd" stroke="none"/>
    <path d="M274.5 393.2 L273.3 393.05 273.05 392.85 Q275.05 392.8 277.1 392.1 L276.8 392.25 Q275.5 393.0 274.5 393.2 M270.85 390.6 L270.25 390.05 Q270.0 389.35 270.45 388.25 L271.6 389.6 274.05 389.1 275.1 388.3 274.35 389.9 Q272.75 390.8 270.85 390.6" fill="#bb6906" fill-rule="evenodd" stroke="none"/>
    <path d="M278.6 390.4 L278.15 390.9 277.8 391.6 277.3 391.0 276.45 389.9 275.75 388.9 274.35 389.9 275.1 388.3 275.3 388.05 275.5 387.5 275.05 387.0 275.55 386.9 Q275.9 387.45 275.8 387.95 L276.05 386.95 Q276.45 387.35 277.45 389.6 L277.5 389.6 277.5 389.65 277.9 389.4 278.6 390.4" fill="#e6b100" fill-rule="evenodd" stroke="none"/>
    <path d="M274.4 386.15 Q275.3 385.95 276.05 386.55 L278.75 390.0 278.6 390.4 277.9 389.4 277.5 389.65 277.5 389.6 277.45 389.6 Q276.45 387.35 276.05 386.95 L275.8 387.95 Q275.9 387.45 275.55 386.9 L275.05 387.0 274.9 386.75 274.4 386.15" fill="#ffff2f" fill-rule="evenodd" stroke="none"/>
    <path d="M287.9 403.45 L280.95 394.25 M280.85 394.35 L279.05 392.05 278.15 390.9 278.6 390.4 278.75 390.0 276.05 386.55 Q275.3 385.95 274.4 386.15 L272.25 383.25 271.45 383.0 Q270.55 382.85 269.3 383.65 267.95 384.5 268.25 385.45 L268.5 385.9 270.45 388.25 Q270.0 389.35 270.25 390.05 L270.85 390.6 M300.3 422.35 L301.3 421.2 294.65 412.45 M289.3 411.25 L280.5 400.1 277.75 396.75 277.3 396.3 276.2 395.1 275.15 393.95 274.5 393.2 273.3 393.05 273.05 392.85 272.7 392.5 M277.75 396.85 L277.3 396.3 M299.0 422.85 L297.8 422.8 289.35 411.4 M299.0 422.85 L300.15 422.45 300.3 422.35 M275.1 388.3 L274.05 389.1 271.6 389.6 270.45 388.25 M277.8 391.6 L278.15 390.9 M275.05 387.0 L274.9 386.75 274.4 386.15 M275.05 387.0 L275.5 387.5 275.3 388.05 M277.8 391.6 L277.2 392.0 277.1 392.1 276.8 392.25 Q275.5 393.0 274.5 393.2" fill="none" stroke="#000000" stroke-linecap="round" stroke-linejoin="round" stroke-opacity="0.4" stroke-width="0.05"/>
    <path d="M269.55 384.4 L270.5 384.25 269.9 386.1 268.25 385.45" fill="none" stroke="#000000" stroke-linecap="round" stroke-linejoin="round" stroke-opacity="0.15294118" stroke-width="0.05"/>
    <path d="M287.9 403.45 L288.1 404.85 Q292.25 409.95 294.95 414.4 M291.0 407.2 L288.4 403.35 287.9 403.45 M294.65 412.45 L291.0 407.2" fill="none" stroke="#000000" stroke-linecap="round" stroke-linejoin="round" stroke-opacity="0.3019608" stroke-width="0.05"/>
    <path d="M285.6 385.15 L276.7 388.6 276.8 389.3 285.35 385.3 285.6 385.15" fill="#869fae" fill-rule="evenodd" stroke="none"/>
    <path d="M285.6 385.15 L286.5 384.55 276.8 388.15 276.7 388.6 285.6 385.15" fill="#b8c7cf" fill-rule="evenodd" stroke="none"/>
    <path d="M276.8 389.3 L277.25 390.25 277.5 390.55 278.05 390.3 278.25 390.05 285.35 385.3 276.8 389.3" fill="#394e64" fill-rule="evenodd" stroke="none"/>
    <path d="M276.7 388.6 L276.8 388.15 286.5 384.55 285.6 385.15 285.35 385.3 278.25 390.05 278.05 390.3 277.5 390.55 M276.7 388.6 L276.8 389.3 277.25 390.25" fill="none" stroke="#000000" stroke-linecap="round" stroke-linejoin="round" stroke-opacity="0.4" stroke-width="0.05"/>
  </g>
</svg>
