<?xml version="1.0" encoding="UTF-8" standalone="no"?>
<svg xmlns:xlink="http://www.w3.org/1999/xlink" height="46.15px" width="33.25px" xmlns="http://www.w3.org/2000/svg">
  <g transform="matrix(1.0, 0.0, 0.0, 1.0, -258.35, -177.35)">
    <path d="M290.4 188.4 L290.8 188.45 290.35 188.55 290.3 188.55 290.4 188.4" fill="#4d4d4d" fill-rule="evenodd" stroke="none"/>
    <path d="M278.3 189.05 L278.4 188.85 278.3 189.05" fill="#8a8a8a" fill-rule="evenodd" stroke="none"/>
    <path d="M290.8 188.45 L291.05 191.95 291.1 192.0 291.05 192.0 289.4 194.8 288.85 195.3 288.2 196.4 288.45 196.35 284.1 203.85 277.65 199.7 Q270.8 211.85 268.75 217.1 267.7 219.7 267.85 220.6 268.3 223.4 267.2 222.9 L264.6 222.15 263.3 221.9 263.1 221.95 Q261.05 221.65 261.3 220.75 L261.3 220.7 Q259.7 220.85 259.85 220.5 L259.8 220.5 259.55 220.15 258.85 218.0 259.15 217.25 Q260.0 217.4 262.8 212.15 265.45 206.95 272.7 196.85 L272.35 196.65 272.35 196.35 271.05 195.65 270.85 195.8 267.85 194.15 266.5 192.4 266.5 192.35 266.35 189.75 266.3 189.75 266.35 189.65 267.15 188.3 267.5 187.95 268.0 187.05 268.1 186.65 273.2 177.85 273.25 177.85 276.4 179.7 276.75 180.1 277.7 180.65 277.65 180.4 280.95 182.45 Q281.0 182.35 281.1 182.35 L281.4 182.25 281.55 182.25 281.8 182.2 282.5 182.45 283.75 182.95 Q284.35 183.2 284.55 183.45 L284.85 183.85 284.9 184.2 284.8 184.55 284.75 184.6 289.5 187.35 290.35 188.4 290.4 188.4 290.8 188.45 M281.1 182.35 L281.55 182.25 M266.35 189.65 L266.35 189.75 M259.85 220.5 L259.85 220.55 260.5 220.65 261.3 220.7 M291.05 191.95 L291.05 192.0" fill="none" stroke="#000000" stroke-linecap="round" stroke-linejoin="round" stroke-width="1.0"/>
    <path d="M290.8 188.45 L290.35 188.55" fill="none" stroke="#000000" stroke-linecap="round" stroke-linejoin="round" stroke-width="1.0"/>
    <path d="M273.3 177.95 L273.35 180.9 273.3 180.9 272.65 183.15 272.35 183.55 266.55 192.4 266.5 192.4 266.35 189.85 266.35 189.7 267.15 188.35 267.25 188.25 267.55 188.05 268.45 187.25 268.4 187.05 268.05 187.15 268.1 186.7 273.25 177.95 273.3 177.95 M279.95 185.8 L280.0 185.85 280.15 186.05 280.15 186.1 278.5 188.95 278.25 189.35 278.35 189.15 278.45 189.0 278.4 189.0 279.95 185.8" fill="#cccccc" fill-rule="evenodd" stroke="none"/>
    <path d="M274.9 178.9 L275.8 180.25 275.75 179.4 276.4 179.8 276.75 180.15 277.8 181.35 277.75 181.0 280.5 183.15 280.4 183.2 280.7 184.15 280.75 184.15 281.35 184.8 282.6 185.45 283.6 185.65 286.45 187.9 286.9 188.65 286.85 189.6 287.15 189.3 287.65 189.2 287.55 190.0 282.65 187.15 280.35 186.2 280.15 186.1 280.15 186.05 280.0 185.85 279.95 185.8 278.2 184.55 275.0 182.65 273.35 180.9 273.3 177.95 274.9 178.9" fill="#6a6a6a" fill-rule="evenodd" stroke="none"/>
    <path d="M273.35 180.9 L275.0 182.65 272.65 183.25 272.6 183.2 272.65 183.15 273.3 180.9 273.35 180.9 M272.35 183.55 L272.4 183.6 267.85 194.2 266.5 192.45 266.55 192.4 272.35 183.55" fill="#b7b7b7" fill-rule="evenodd" stroke="none"/>
    <path d="M275.75 179.4 L275.8 180.25 274.9 178.9 275.75 179.4 M287.55 190.0 L287.65 189.2 287.15 189.3 286.85 189.6 286.9 188.65 286.45 187.9 283.6 185.65 284.25 185.55 284.65 184.7 284.7 184.65 284.8 184.65 289.5 187.45 290.0 188.1 290.15 189.0 290.35 188.7 290.8 188.5 291.0 192.05 287.55 190.0 M280.5 183.15 L277.75 181.0 277.7 180.75 277.65 180.5 281.0 182.5 281.05 182.5 281.05 182.55 280.5 183.15" fill="#555555" fill-rule="evenodd" stroke="none"/>
    <path d="M277.75 181.0 L277.8 181.35 276.75 180.15 277.7 180.75 277.75 181.0 M290.0 188.1 L290.35 188.5 290.4 188.5 290.8 188.5 290.35 188.7 290.15 189.0 290.0 188.1 M290.4 188.5 L290.3 188.65 290.8 188.5 290.3 188.65 290.4 188.5" fill="#4d4d4d" fill-rule="evenodd" stroke="none"/>
    <path d="M284.7 184.65 L283.7 184.4 283.7 184.25 283.65 183.95 283.4 183.55 282.45 183.05 281.3 182.55 281.2 182.5 281.1 182.45 281.55 182.35 281.85 182.3 282.5 182.55 283.7 183.05 284.65 183.55 284.9 183.95 284.95 184.3 284.85 184.65 284.8 184.65 284.7 184.65" fill="#643e31" fill-rule="evenodd" stroke="none"/>
    <path d="M281.35 183.25 L281.25 183.05 281.05 182.65 281.05 182.55 281.05 182.5 281.0 182.5 281.45 182.35 281.55 182.35 281.1 182.45 281.2 182.5 281.3 182.55 282.45 183.05 283.4 183.55 283.65 183.95 283.7 184.25 283.7 184.4 284.7 184.65 284.65 184.7 283.45 184.45 282.15 183.9 281.4 183.3 281.35 183.25" fill="#8b5543" fill-rule="evenodd" stroke="none"/>
    <path d="M283.6 185.65 L282.6 185.45 281.35 184.8 280.75 184.15 280.7 184.15 281.35 183.25 281.4 183.3 282.15 183.9 283.45 184.45 284.65 184.7 284.25 185.55 283.6 185.65 M263.3 222.0 L263.1 222.0 Q261.1 221.75 261.35 220.85 L263.35 216.1 Q261.95 219.1 260.55 220.75 L259.9 220.65 Q260.25 217.75 272.35 199.25 L272.1 199.65 272.6 198.9 272.6 198.85 272.65 198.85 272.7 200.9 Q267.55 209.95 265.15 215.25 L264.05 217.85 Q263.0 220.4 263.2 221.35 L263.3 222.0" fill="#a1664c" fill-rule="evenodd" stroke="none"/>
    <path d="M280.7 184.15 L280.4 183.2 280.5 183.15 281.05 182.55 281.05 182.65 281.25 183.05 281.35 183.25 280.7 184.15" fill="#b77b68" fill-rule="evenodd" stroke="none"/>
    <path d="M280.35 186.2 L282.65 187.15 287.55 190.0 291.0 192.05 291.05 192.1 289.4 194.9 288.85 195.35 288.25 195.9 288.05 195.6 Q287.35 196.1 286.6 196.1 L285.25 194.3 286.55 196.55 288.25 196.45 288.5 196.45 284.1 203.9 277.7 199.75 272.75 196.95 272.35 196.75 272.35 196.45 272.35 196.3 272.35 196.1 279.2 197.15 280.1 188.55 279.9 188.7 278.35 189.45 276.4 188.05 278.25 189.05 278.4 189.0 278.45 189.0 278.35 189.15 278.25 189.35 278.5 188.95 279.35 187.95 279.7 188.15 280.3 186.8 280.35 186.2" fill="#8a8a8a" fill-rule="evenodd" stroke="none"/>
    <path d="M275.0 182.65 L278.2 184.55 279.95 185.8 278.4 189.0 278.25 189.05 276.4 188.05 278.35 189.45 279.9 188.7 280.1 188.55 279.2 197.15 272.35 196.1 272.35 196.3 272.45 194.95 273.55 194.35 272.5 194.5 271.05 195.75 270.9 195.9 267.85 194.2 272.4 183.6 272.65 183.25 275.0 182.65 M280.15 186.1 L280.35 186.2 280.3 186.8 279.7 188.15 279.35 187.95 278.5 188.95 280.15 186.1" fill="#999999" fill-rule="evenodd" stroke="none"/>
    <path d="M268.05 187.15 L268.4 187.05 268.45 187.25 267.55 188.05 268.05 187.15" fill="#878787" fill-rule="evenodd" stroke="none"/>
    <path d="M271.05 195.75 L272.5 194.5 273.55 194.35 272.45 194.95 272.35 196.3 272.35 196.45 271.05 195.75 M288.85 195.35 L288.25 196.45 286.55 196.55 285.25 194.3 286.6 196.1 Q287.35 196.1 288.05 195.6 L288.25 195.9 288.85 195.35" fill="#727272" fill-rule="evenodd" stroke="none"/>
    <path d="M277.7 199.75 Q270.85 211.9 268.75 217.2 267.7 219.8 267.9 220.75 268.35 223.45 267.25 222.95 266.4 222.55 264.6 222.25 L263.3 222.0 263.2 221.35 Q263.0 220.4 264.05 217.85 L265.15 215.25 Q267.55 209.95 272.7 200.9 L272.65 198.85 272.6 198.85 272.2 197.7 272.75 196.95 277.7 199.75 M261.35 220.85 L261.35 220.8 260.55 220.75 Q261.95 219.1 263.35 216.1 L261.35 220.85" fill="#85503f" fill-rule="evenodd" stroke="none"/>
    <path d="M259.9 220.65 L259.85 220.6 259.55 220.2 258.85 218.1 259.2 217.35 Q260.05 217.5 262.8 212.25 265.4 207.2 272.2 197.7 L272.6 198.85 272.6 198.9 272.1 199.65 272.35 199.25 Q260.25 217.75 259.9 220.65" fill="#c69788" fill-rule="evenodd" stroke="none"/>
    <path d="M275.75 179.4 L274.9 178.9 273.3 177.95 273.25 177.95 268.1 186.7 268.05 187.15 267.55 188.05 267.25 188.25 M283.6 185.65 L282.6 185.45 281.35 184.8 280.75 184.15 280.7 184.15 280.4 183.2 280.5 183.15 281.05 182.55 M276.75 180.15 L276.4 179.8 275.75 179.4 M267.85 194.2 L270.9 195.9 271.05 195.75 272.35 196.45 272.35 196.75 272.75 196.95 272.2 197.7 Q265.4 207.2 262.8 212.25 260.05 217.5 259.2 217.35 L258.85 218.1 259.55 220.2 259.85 220.6 259.9 220.65 260.55 220.75 261.35 220.8 259.9 220.65 M284.65 184.7 L284.7 184.65 M281.1 182.45 L281.55 182.35 281.45 182.35 281.0 182.5 281.05 182.5 M277.7 180.75 L276.75 180.15 M277.65 180.5 L281.0 182.5 M281.55 182.35 L281.85 182.3 282.5 182.55 283.7 183.05 284.65 183.55 284.9 183.95 284.95 184.3 284.85 184.65 284.8 184.65 289.5 187.45 290.0 188.1 290.35 188.5 290.4 188.5 290.8 188.5 291.0 192.05 291.05 192.05 291.05 192.1 289.4 194.9 288.85 195.35 288.25 196.45 288.5 196.45 284.1 203.9 277.7 199.75 Q270.85 211.9 268.75 217.2 267.7 219.8 267.9 220.75 268.35 223.45 267.25 222.95 266.4 222.55 264.6 222.25 L263.3 222.0 263.1 222.0 Q261.1 221.75 261.35 220.85 L261.35 220.8 M283.6 185.65 L284.25 185.55 284.65 184.7 M291.0 192.05 L291.05 192.1 M267.15 188.35 L266.35 189.7 266.35 189.85 266.5 192.4 M266.35 189.85 L266.3 189.8 266.35 189.7 M266.5 192.45 L267.85 194.2 M277.7 199.75 L272.75 196.95" fill="none" stroke="#000000" stroke-linecap="round" stroke-linejoin="round" stroke-width="0.25"/>
    <path d="M279.95 185.8 L280.0 185.85 M280.15 186.05 L280.15 186.1 280.15 186.05 M273.3 180.9 L273.35 180.9 M272.65 183.25 L272.6 183.2 M277.7 180.75 L277.65 180.5 M290.8 188.5 L290.3 188.65 290.4 188.5 M267.25 188.25 L267.15 188.35 M266.55 192.4 L266.5 192.45 266.5 192.4 M272.35 196.3 L272.35 196.45 M272.6 198.85 L272.65 198.85" fill="none" stroke="#000000" stroke-linecap="round" stroke-linejoin="round" stroke-width="0.05"/>
    <path d="M272.35 196.3 L272.35 196.1 M281.35 183.25 L281.4 183.3 M284.7 184.65 L284.8 184.65 M290.35 188.7 L290.8 188.5" fill="none" stroke="#000000" stroke-linecap="round" stroke-linejoin="round" stroke-width="0.05"/>
  </g>
</svg>
