<?xml version="1.0" encoding="UTF-8" standalone="no"?>
<svg xmlns:xlink="http://www.w3.org/1999/xlink" height="43.0px" width="47.2px" xmlns="http://www.w3.org/2000/svg">
  <g transform="matrix(1.0, 0.0, 0.0, 1.0, 23.6, 21.5)">
    <path d="M-14.0 -13.65 L-14.05 -13.65 -4.5 -21.5 7.0 -20.05 3.8 -14.6 7.0 -17.1 10.2 -19.65 23.6 -18.0 23.6 -17.95 16.4 1.8 4.2 9.55 -15.25 7.8 -23.6 -5.8 -18.8 -9.7 -13.6 -10.4 -10.25 -10.85 -8.05 -10.85 -8.35 -10.75 0.5 -10.85 -6.4 -13.05 -6.7 -13.15 -7.7 -14.45 -7.7 -14.5 -7.85 -14.5 -8.35 -14.4 -8.35 -14.35 -14.0 -13.65" fill="#e9e1d1" fill-rule="evenodd" stroke="none"/>
    <path d="M-13.6 -10.4 L-14.0 -13.65 -8.35 -14.35 -8.05 -10.9 Q-6.3 -12.05 -6.4 -13.05 L0.5 -10.85 -8.35 -10.75 -8.05 -10.85 -10.25 -10.85 -13.6 -10.4 M7.0 -20.05 L7.05 -20.05 7.0 -17.1 3.8 -14.6 7.0 -20.05" fill="#855b29" fill-rule="evenodd" stroke="none"/>
    <path d="M-6.4 -13.05 Q-6.3 -12.05 -8.05 -10.9 L-8.35 -14.35 -7.7 -14.45 -8.35 -14.35 -8.35 -14.4 -7.85 -14.5 -7.7 -14.5 -7.7 -14.45 -6.7 -13.15 -6.4 -13.05" fill="#c68d4a" fill-rule="evenodd" stroke="none"/>
    <path d="M23.6 -17.95 L22.35 -2.05 14.5 16.05 16.4 1.8 23.6 -17.95" fill="#bb8544" fill-rule="evenodd" stroke="none"/>
    <path d="M14.5 16.05 L4.2 20.3 4.2 9.55 16.4 1.8 14.5 16.05" fill="#c5965f" fill-rule="evenodd" stroke="none"/>
    <path d="M4.2 20.3 L-11.5 21.35 -15.25 7.8 4.2 9.55 4.2 20.3" fill="#cfab7e" fill-rule="evenodd" stroke="none"/>
    <path d="M-11.55 21.35 L-19.4 10.75 -23.6 -5.8 -15.25 7.8 -11.5 21.35 -11.55 21.35" fill="#dabc98" fill-rule="evenodd" stroke="none"/>
    <path d="M-13.6 -10.4 L-14.0 -13.65 -14.05 -13.65 -4.5 -21.5 7.0 -20.05 7.05 -20.05 7.0 -17.1 10.2 -19.65 23.6 -18.0 23.6 -17.95 22.35 -2.05 14.5 16.05 4.2 20.3 -11.5 21.35 -11.45 21.5 -11.55 21.35 -19.4 10.75 -23.6 -5.8 -18.8 -9.7 -13.6 -10.4 -10.25 -10.85 -8.05 -10.85 M-8.35 -10.75 L0.5 -10.85 -6.4 -13.05 -6.7 -13.15 -7.7 -14.45 -7.7 -14.5 -7.85 -14.5 M-8.35 -14.35 L-14.0 -13.65 M7.0 -17.1 L3.8 -14.6 7.0 -20.05 M-8.35 -14.35 L-7.7 -14.45 M16.4 1.8 L14.5 16.05 M-15.25 7.8 L-11.5 21.35 -11.55 21.35 M4.2 20.3 L4.2 9.55 -15.25 7.8 -23.6 -5.8 M4.2 9.55 L16.4 1.8 23.6 -17.95" fill="none" stroke="#381e10" stroke-linecap="round" stroke-linejoin="round" stroke-width="0.05"/>
  </g>
</svg>
