<?xml version="1.0" encoding="UTF-8" standalone="no"?>
<svg xmlns:xlink="http://www.w3.org/1999/xlink" height="43.1px" width="37.3px" xmlns="http://www.w3.org/2000/svg">
  <g transform="matrix(1.0, 0.0, 0.0, 1.0, -256.25, -178.45)">
    <path d="M279.65 178.5 L279.7 178.45 279.9 178.5 280.15 178.5 280.25 178.5 280.15 178.5 279.85 178.55 280.15 178.5 280.25 178.5 280.25 178.6 280.15 178.6 279.85 178.55 279.8 178.55 279.65 178.5 M280.15 178.5 L280.15 178.6 280.15 178.5 M280.7 206.4 L280.65 206.55 280.65 206.45 280.65 206.35 280.65 206.45 280.65 206.55 280.65 206.6 280.6 206.55 280.65 206.45 280.6 206.4 280.65 206.35 280.6 206.4 280.65 206.45 280.6 206.55 280.55 206.55 280.5 206.45 280.55 206.35 280.55 206.25 280.65 206.35 280.7 206.4 M280.55 206.35 L280.6 206.4 280.55 206.55 280.6 206.4 280.55 206.35" fill="#ad0142" fill-rule="evenodd" stroke="none"/>
    <path d="M280.35 178.6 L280.45 178.6 281.35 178.7 281.4 178.7 281.4 178.75 280.35 178.6 M279.45 191.35 L279.45 191.3 279.85 191.4 279.75 191.4 279.45 191.45 279.4 191.45 279.45 191.4 279.45 191.35 279.75 191.4 279.45 191.35 M280.5 191.6 L280.4 191.55 280.5 191.55 280.5 191.6" fill="#fd2677" fill-rule="evenodd" stroke="none"/>
    <path d="M280.25 178.5 L283.45 178.95 283.45 179.0 283.4 179.0 283.4 178.95 283.35 178.95 280.35 178.5 280.25 178.5 280.35 178.5 283.35 178.95 283.4 178.95 283.4 179.0 283.35 179.0 281.4 178.75 281.4 178.7 281.35 178.7 280.45 178.6 280.35 178.6 280.25 178.6 280.25 178.5 M280.35 178.5 L280.35 178.6 280.35 178.5 M283.35 178.95 L283.35 179.0 283.35 178.95 M280.4 191.55 L280.5 191.55 284.3 192.45 284.3 192.5 284.3 192.45 282.3 192.0 282.65 192.1 282.3 192.0 281.85 191.9 282.3 192.0 284.3 192.45 284.4 192.5 284.35 192.5 284.3 192.5 283.35 192.25 282.65 192.1 281.85 191.9 280.5 191.6 280.5 191.55 280.4 191.55 M276.65 205.4 L277.15 205.15 277.2 205.2 277.3 205.2 276.55 205.45 276.65 205.4 277.2 205.2 276.65 205.4 M284.4 192.5 L284.3 192.45 284.4 192.45 284.4 192.5 M276.25 205.6 L276.3 205.55 276.3 205.65 276.4 205.5 276.3 205.65 276.3 205.55 276.4 205.5 276.4 205.65 276.75 205.95 277.3 206.45 277.15 206.4 276.8 206.1 276.75 205.95 276.8 206.1 277.15 206.4 277.1 206.4 276.8 206.1 276.3 205.65 276.25 205.6" fill="#8d0136" fill-rule="evenodd" stroke="none"/>
    <path d="M283.45 178.95 L283.5 178.95 283.5 179.0 283.45 179.0 283.5 179.0 283.9 182.6 284.55 188.35 284.65 189.05 284.55 189.0 284.45 188.35 283.8 182.6 283.55 180.55 283.8 182.6 284.45 188.35 284.55 189.0 284.65 189.05 284.65 189.2 284.75 190.9 284.75 192.55 284.5 192.5 284.75 192.55 284.75 190.9 284.85 192.6 284.75 192.6 284.55 192.55 284.45 192.5 284.4 192.5 284.4 192.45 283.55 180.55 283.45 179.0 283.45 178.95 M283.8 182.6 L284.5 192.5 284.45 192.5 284.5 192.5 283.8 182.6 M284.75 192.55 L284.75 192.6 284.75 192.55" fill="#44001a" fill-rule="evenodd" stroke="none"/>
    <path d="M264.95 218.8 L264.9 218.75 Q263.15 217.7 261.6 216.25 L260.45 215.15 260.95 215.55 261.0 215.6 261.4 216.0 261.8 216.4 264.9 218.75 261.8 216.4 261.4 216.0 261.0 215.6 261.5 216.0 261.9 216.3 Q266.8 219.95 273.35 220.0 281.05 220.0 286.45 214.9 291.9 209.8 291.9 202.65 291.9 196.25 287.6 191.55 L287.85 191.7 Q293.25 196.8 293.25 204.0 293.25 211.15 287.85 216.25 284.95 219.0 281.4 220.3 278.35 221.35 275.3 221.4 L274.7 221.4 272.45 221.25 271.85 221.2 271.65 221.15 271.5 221.1 271.15 221.05 271.1 221.05 269.35 220.6 268.45 220.4 264.95 218.8 M275.5 196.8 Q274.05 195.9 273.05 194.6 271.25 192.3 271.95 190.15 L272.05 189.9 Q272.8 187.9 275.5 187.2 L276.65 187.0 275.2 191.4 275.15 191.5 275.5 196.65 275.5 196.8 M276.65 187.0 L275.7 187.2 Q273.0 187.9 272.2 189.9 L272.15 190.15 Q271.4 192.3 273.25 194.6 L275.5 196.65 273.25 194.6 Q271.4 192.3 272.15 190.15 L272.2 189.9 Q273.0 187.9 275.7 187.2 L276.65 187.0" fill="#8c8c8c" fill-rule="evenodd" stroke="none"/>
    <path d="M260.95 215.55 L260.35 214.9 258.75 212.8 258.7 212.55 258.55 212.15 258.5 211.95 Q257.75 209.55 257.75 206.9 257.7 199.7 263.15 194.6 267.0 190.95 272.05 189.9 L271.95 190.15 Q271.25 192.3 273.05 194.6 274.05 195.9 275.5 196.8 L275.5 197.65 275.4 197.65 275.35 197.65 275.25 197.65 275.05 197.65 274.95 197.65 274.75 197.65 273.05 197.85 Q270.0 198.4 267.65 200.55 L267.15 201.0 267.1 201.1 Q264.45 203.8 264.45 207.5 264.45 211.55 267.65 214.45 270.05 216.65 273.2 217.15 L275.25 217.35 275.35 217.35 275.25 217.35 273.2 217.15 Q270.05 216.65 267.65 214.45 264.45 211.55 264.45 207.5 264.45 203.8 267.1 201.1 L267.15 201.0 267.65 200.55 Q270.0 198.4 273.05 197.85 L274.75 197.65 274.95 197.65 275.05 197.65 274.85 197.65 274.75 197.7 273.15 197.85 Q270.1 198.4 267.75 200.55 L267.25 201.0 267.2 201.1 266.95 201.3 266.75 201.55 Q264.55 204.1 264.55 207.5 264.55 211.55 267.75 214.45 269.75 216.3 272.35 216.95 L273.3 217.15 275.35 217.35 275.45 217.35 275.55 217.35 277.65 217.15 278.55 216.95 279.75 216.55 Q281.55 215.8 283.05 214.45 286.2 211.55 286.25 207.5 286.2 205.4 285.4 203.6 L285.15 203.15 285.05 202.95 285.0 202.95 285.0 202.85 284.4 202.1 285.0 202.85 285.0 202.95 285.05 202.95 285.15 203.15 285.4 203.6 Q286.2 205.4 286.25 207.5 286.2 211.55 283.05 214.45 281.55 215.8 279.75 216.55 281.5 215.8 283.0 214.45 286.15 211.55 286.15 207.5 L286.15 207.35 285.6 204.3 285.5 204.15 285.3 203.65 285.35 203.65 285.1 203.15 284.95 202.95 284.9 202.85 284.8 202.7 284.7 202.55 284.6 202.4 284.55 202.35 284.45 202.15 284.4 202.1 284.15 201.75 284.1 201.7 283.95 201.5 284.1 201.7 284.15 201.75 283.95 201.5 283.9 201.45 283.85 201.4 283.9 201.4 284.4 202.1 284.45 202.0 284.45 201.95 285.65 197.85 285.65 197.8 Q287.25 196.95 287.8 195.4 288.4 193.5 287.15 191.55 L287.15 191.45 287.15 191.4 287.15 191.0 287.95 191.75 Q293.35 196.85 293.4 204.05 293.35 211.2 287.95 216.3 285.25 218.8 282.05 220.15 L281.4 220.3 Q284.95 219.0 287.85 216.25 293.25 211.15 293.25 204.0 293.25 196.8 287.85 191.7 L287.6 191.55 Q291.9 196.25 291.9 202.65 291.9 209.8 286.45 214.9 281.05 220.0 273.35 220.0 266.8 219.95 261.9 216.3 L261.5 216.0 261.0 215.6 260.95 215.55 M260.35 214.9 L258.85 212.85 258.7 212.55 258.85 212.85 260.35 214.9 M274.95 197.65 L274.85 197.65 274.95 197.65 M275.3 221.4 L275.05 221.4 274.85 221.4 273.6 221.4 273.0 221.35 271.85 221.2 272.45 221.25 274.7 221.4 275.3 221.4 M287.15 191.4 Q288.55 193.45 287.9 195.4 287.35 197.0 285.65 197.85 287.35 197.0 287.9 195.4 288.55 193.45 287.15 191.4 M282.6 200.2 L282.6 200.15 282.75 200.3 282.8 200.35 283.0 200.5 283.85 201.4 283.1 200.65 283.0 200.55 282.8 200.4 282.75 200.35 282.7 200.3 282.6 200.2 M273.2 217.15 L272.35 216.95 273.2 217.15 M267.1 201.1 L266.75 201.55 267.1 201.1 M283.0 200.55 L282.7 200.3 283.0 200.55 M267.15 201.0 L266.95 201.3 267.15 201.0" fill="#cccccc" fill-rule="evenodd" stroke="none"/>
    <path d="M258.75 212.8 Q256.3 208.9 256.3 204.05 256.3 196.85 261.7 191.75 264.45 189.15 267.85 187.95 271.05 186.7 274.85 186.7 L275.05 186.7 275.9 186.7 276.75 186.75 276.7 186.8 276.65 186.8 276.6 186.8 275.8 186.75 274.95 186.75 274.75 186.75 Q270.95 186.75 267.75 188.0 264.5 189.3 261.8 191.85 256.35 196.9 256.4 204.1 256.4 208.45 258.4 212.05 L258.45 212.15 258.7 212.55 258.45 212.15 258.4 212.05 Q256.4 208.45 256.4 204.1 256.35 196.9 261.8 191.85 264.5 189.3 267.75 188.0 270.95 186.75 274.75 186.75 L274.95 186.75 275.8 186.75 276.6 186.8 276.65 186.8 276.7 186.8 276.65 187.0 275.5 187.2 Q272.8 187.9 272.05 189.9 267.0 190.95 263.15 194.6 257.7 199.7 257.75 206.9 257.75 209.55 258.5 211.95 L258.55 212.15 258.7 212.55 258.75 212.8" fill="#ececec" fill-rule="evenodd" stroke="none"/>
    <path d="M276.25 205.6 L276.2 205.6 276.2 205.55 276.3 205.5 276.3 205.55 276.3 205.5 276.2 205.55 276.3 205.5 276.4 205.45 276.4 205.5 276.3 205.55 276.25 205.6 M276.3 205.5 L276.4 205.5 276.3 205.5" fill="#d30151" fill-rule="evenodd" stroke="none"/>
    <path d="M284.65 189.2 L284.75 189.25 284.85 189.35 286.0 190.1 286.1 190.2 286.15 190.2 286.3 190.35 286.3 190.4 286.25 190.35 286.5 190.6 286.25 190.35 286.3 190.4 286.5 190.6 286.75 190.85 286.75 190.9 287.15 191.45 287.15 191.55 287.2 192.65 285.7 197.75 284.25 198.25 283.3 198.5 283.15 198.5 283.1 198.5 284.85 192.65 284.85 192.6 284.75 190.9 284.65 189.2 M284.75 189.25 L284.75 190.9 284.75 189.25 M286.25 190.35 L286.1 190.2 286.25 190.35 M284.85 189.35 L285.05 192.6 283.3 198.5 285.05 192.6 284.85 189.35" fill="#474747" fill-rule="evenodd" stroke="none"/>
    <path d="M286.8 190.75 L286.85 190.75 287.15 191.0 286.95 190.85 286.8 190.75 286.95 190.85 287.15 191.0 287.15 191.4 287.15 191.45 286.75 190.9 286.75 190.85 286.8 190.75 M286.75 190.85 L286.8 190.9 287.05 191.2 287.15 191.4 287.05 191.2 286.8 190.9 286.75 190.85 M285.65 197.8 L285.65 197.85 285.55 197.9 284.4 198.35 283.3 198.55 284.4 198.35 285.55 197.9 285.65 197.85 284.45 201.95 284.45 202.0 284.4 202.1 283.9 201.4 283.85 201.4 283.0 200.5 282.8 200.35 282.75 200.3 282.6 200.15 283.1 198.5 283.15 198.5 283.3 198.5 284.25 198.25 285.7 197.75 285.65 197.8 M282.75 200.3 L283.3 198.55 283.3 198.5 283.3 198.55 282.75 200.3" fill="#9c9c9c" fill-rule="evenodd" stroke="none"/>
    <path d="M284.45 192.5 L284.45 192.55 284.35 192.5 284.45 192.55 284.45 192.5 284.55 192.55 282.65 199.95 282.6 200.05 282.55 200.25 282.5 200.2 282.35 200.7 282.5 200.2 282.55 200.25 282.45 200.7 281.5 203.8 282.35 200.7 281.5 203.8 281.05 205.3 281.7 202.85 282.45 200.05 282.45 199.95 284.35 192.5 284.4 192.5 284.45 192.5 M284.55 192.55 L284.45 192.55 282.55 199.95 282.5 200.05 282.35 200.7 281.7 202.85 282.35 200.7 282.5 200.05 282.55 199.95 284.45 192.55 284.55 192.55" fill="#5f0125" fill-rule="evenodd" stroke="none"/>
    <path d="M287.15 191.55 Q288.4 193.5 287.8 195.4 287.25 196.95 285.65 197.8 L285.7 197.75 287.2 192.65 287.15 191.55 M284.4 202.15 L284.35 202.05 284.35 202.0 284.4 202.1 284.35 202.0 284.35 202.05 284.4 202.15 284.2 201.9 284.1 201.8 284.1 201.75 284.0 201.7 283.95 201.65 283.85 201.4 283.9 201.45 283.95 201.5 284.15 201.75 284.4 202.1 284.45 202.15 284.55 202.35 284.4 202.15 M284.35 202.0 L284.3 202.0 284.2 201.85 284.15 201.75 284.2 201.85 284.3 202.0 284.35 202.0 M284.8 202.7 L284.65 202.5 284.6 202.4 284.7 202.55 284.8 202.7 M284.2 201.95 L284.4 202.4 284.65 203.25 284.2 201.95" fill="#666666" fill-rule="evenodd" stroke="none"/>
    <path d="M284.4 202.15 L284.55 202.35 284.6 202.4 284.65 202.5 284.8 202.7 284.9 202.85 284.95 202.95 285.1 203.15 285.35 203.65 285.3 203.65 285.3 203.6 285.1 203.35 285.0 203.15 284.85 202.95 284.8 202.85 284.7 202.7 284.6 202.55 284.5 202.4 284.45 202.35 284.4 202.15 284.45 202.35 284.5 202.4 284.6 202.55 284.7 202.7 284.8 202.85 284.85 202.95 285.0 203.15 285.1 203.35 284.95 203.2 285.2 203.6 285.25 203.65 285.25 203.7 285.3 203.75 285.4 204.15 285.5 204.3 285.8 206.1 285.5 204.3 285.4 204.15 285.3 203.75 Q285.8 204.8 285.8 206.0 L285.8 206.1 Q285.75 208.75 283.05 210.7 280.35 212.6 276.5 212.6 272.6 212.6 269.85 210.7 268.1 209.45 267.45 207.85 L268.9 209.15 Q271.65 211.05 275.5 211.05 279.35 211.05 282.1 209.15 283.4 208.2 284.1 207.1 L284.55 206.2 284.85 204.45 284.75 203.35 284.55 202.6 284.5 202.5 284.5 202.4 284.45 202.35 284.35 202.15 284.2 201.95 284.35 202.15 284.45 202.35 284.5 202.4 284.5 202.5 284.55 202.6 284.75 203.35 284.4 202.4 284.2 201.95 284.1 201.75 284.1 201.8 284.2 201.9 284.4 202.15" fill="#afafaf" fill-rule="evenodd" stroke="none"/>
    <path d="M267.2 201.1 L266.6 202.0 Q266.05 203.05 266.1 204.25 266.05 206.4 267.75 208.05 L268.8 208.9 270.55 209.95 Q271.95 210.55 273.55 210.75 L275.4 210.85 275.6 210.85 277.4 210.75 279.1 210.35 Q280.65 209.85 282.0 208.9 284.7 207.0 284.75 204.25 L284.75 204.2 284.65 203.25 284.4 202.4 284.75 203.35 284.85 204.45 284.55 206.2 284.1 207.1 Q283.4 208.2 282.1 209.15 279.35 211.05 275.5 211.05 271.65 211.05 268.9 209.15 L267.45 207.85 Q268.1 209.45 269.85 210.7 272.6 212.6 276.5 212.6 280.35 212.6 283.05 210.7 285.75 208.75 285.8 206.1 L285.8 206.0 Q285.8 204.8 285.3 203.75 L285.25 203.7 285.25 203.65 285.2 203.6 284.95 203.2 285.1 203.35 285.3 203.6 285.3 203.65 285.5 204.15 285.6 204.3 286.15 207.35 286.15 207.5 Q286.15 211.55 283.0 214.45 281.5 215.8 279.75 216.55 L278.55 216.95 277.65 217.15 275.55 217.35 275.45 217.35 275.35 217.35 273.3 217.15 272.35 216.95 Q269.8 216.25 267.85 214.45 264.65 211.55 264.7 207.5 264.7 204.4 266.5 202.0 265.95 203.05 266.0 204.25 265.95 206.25 267.45 207.85 L268.7 208.9 270.45 209.95 Q271.85 210.55 273.45 210.85 L273.5 210.85 275.3 210.95 275.5 210.95 277.3 210.85 Q280.0 210.45 282.1 209.0 L284.0 207.1 284.45 206.3 284.85 204.35 284.75 203.35 284.85 204.35 284.45 206.3 284.0 207.1 282.1 209.0 Q280.0 210.45 277.3 210.85 L275.5 210.95 275.3 210.95 273.5 210.85 273.45 210.85 Q271.85 210.55 270.45 209.95 L268.7 208.9 267.45 207.85 Q265.95 206.25 266.0 204.25 265.95 203.05 266.5 202.0 264.7 204.4 264.7 207.5 264.65 211.55 267.85 214.45 269.8 216.25 272.35 216.95 269.75 216.3 267.75 214.45 264.55 211.55 264.55 207.5 264.55 204.1 266.75 201.55 L266.5 202.0 266.95 201.3 266.5 202.0 266.75 201.55 266.95 201.3 267.2 201.1 M285.2 203.6 L285.1 203.35 285.2 203.6 M277.3 210.85 L279.1 210.35 277.3 210.85 M278.55 216.95 L277.55 217.15 Q280.55 216.55 282.9 214.45 286.05 211.55 286.05 207.5 L286.05 207.35 285.8 206.1 286.05 207.35 286.05 207.5 Q286.05 211.55 282.9 214.45 280.55 216.55 277.55 217.15 L278.55 216.95 M267.75 208.05 L268.9 209.0 270.45 209.95 268.9 209.0 267.75 208.05 M277.55 217.15 L275.45 217.35 277.55 217.15" fill="#979797" fill-rule="evenodd" stroke="none"/>
    <path d="M280.55 206.25 L280.75 205.75 278.45 205.15 279.5 198.1 279.5 198.0 280.5 191.6 281.85 191.9 282.65 192.1 283.35 192.25 284.3 192.5 284.25 192.5 283.35 192.25 284.25 192.5 284.3 192.5 284.35 192.5 282.45 199.95 282.45 200.05 281.7 202.85 280.95 205.3 280.65 206.35 280.95 205.3 281.7 202.85 281.05 205.3 280.7 206.4 280.65 206.35 280.95 205.3 282.35 200.05 282.35 199.95 284.25 192.5 282.35 199.95 282.35 200.05 280.95 205.3 280.65 206.35 280.55 206.25 M276.55 205.4 L277.0 205.2 276.2 192.7 278.85 192.75 278.15 198.0 278.15 198.05 278.1 198.1 277.1 205.15 277.15 205.15 276.65 205.4 276.55 205.45 276.55 205.4 M276.65 205.4 L276.55 205.45 276.65 205.4 M276.45 205.45 L276.45 205.5 276.4 205.5 276.45 205.5 276.4 205.5 276.4 205.45 276.45 205.45" fill="#4804a6" fill-rule="evenodd" stroke="none"/>
    <path d="M276.75 186.75 L276.75 186.7 279.5 178.5 279.65 178.5 279.8 178.55 279.85 178.55 280.15 178.6 280.35 178.6 280.15 178.6 280.25 178.6 280.35 178.6 281.4 178.75 280.35 178.6 279.35 191.3 279.45 191.35 279.35 191.3 280.35 178.6 281.4 178.75 280.45 191.4 280.4 191.5 280.4 191.55 279.85 191.4 279.45 191.3 279.45 191.35 279.35 191.35 279.05 191.35 279.95 180.2 276.2 191.3 275.6 191.3 275.6 191.4 275.55 191.4 275.2 191.4 276.65 187.0 276.7 186.8 276.9 186.85 279.8 178.65 279.8 178.55 279.8 178.65 276.9 186.85 276.7 186.8 276.75 186.75 M279.35 191.35 L279.35 191.3 279.35 191.35 M276.65 187.0 L276.9 187.0 276.65 187.0 M276.9 187.0 L275.6 191.3 276.9 187.0" fill="#1a02bf" fill-rule="evenodd" stroke="none"/>
    <path d="M279.85 191.4 L280.4 191.55 280.5 191.6 279.5 198.0 279.5 198.1 278.45 205.15 280.75 205.75 280.55 206.25 280.25 205.85 277.5 205.15 277.45 205.15 277.4 205.15 278.4 198.1 278.45 198.0 278.45 197.95 279.35 191.45 279.35 191.35 279.35 191.45 278.45 197.95 278.45 198.0 278.4 198.1 277.4 205.15 277.45 205.15 277.3 205.2 277.2 205.2 277.15 205.15 277.1 205.15 278.1 198.1 278.15 198.05 278.15 198.0 278.85 192.75 276.2 192.7 277.0 205.2 276.55 205.4 276.5 205.35 276.45 205.45 276.4 205.45 276.3 205.5 276.2 205.55 276.05 205.6 276.0 205.6 275.5 197.65 275.5 196.8 275.5 196.65 275.15 191.5 275.2 191.4 275.55 191.4 275.6 191.4 275.6 191.3 276.2 191.3 276.85 191.35 279.05 191.35 279.35 191.35 279.45 191.35 279.45 191.4 279.4 191.45 279.45 191.45 279.75 191.4 280.4 191.55 279.75 191.4 279.85 191.4 M275.9 196.9 L275.5 196.65 275.9 196.9 275.55 191.4 275.9 196.9 275.95 197.65 275.9 196.9 M276.85 191.35 L275.6 191.3 276.85 191.35 M277.4 205.15 L277.35 205.15 277.2 205.2 277.35 205.15 277.4 205.15 M275.95 197.65 L276.3 205.5 275.95 197.65" fill="#110282" fill-rule="evenodd" stroke="none"/>
    <path d="M276.55 205.45 L277.3 205.2 279.9 205.9 280.45 206.65 280.5 206.45 280.55 206.55 280.55 206.6 280.55 206.7 280.5 206.7 279.85 206.95 279.85 207.0 279.85 206.95 280.5 206.7 280.55 206.7 280.55 206.6 280.55 206.55 280.6 206.55 280.65 206.6 280.65 206.7 280.6 206.7 279.95 206.95 279.95 207.0 279.85 207.0 277.3 206.45 276.75 205.95 276.55 205.45 276.75 205.95 276.4 205.65 276.4 205.5 276.55 205.45 M280.55 206.7 L280.55 206.65 280.6 206.55 280.55 206.65 280.55 206.7 M280.55 206.65 L280.55 206.6 280.55 206.65" fill="#07013a" fill-rule="evenodd" stroke="none"/>
    <path d="M277.45 205.15 L277.5 205.15 280.25 205.85 280.55 206.25 280.55 206.35 280.5 206.45 280.45 206.65 279.9 205.9 277.3 205.2 277.45 205.15 280.15 205.85 280.45 206.25 280.55 206.35 280.45 206.25 280.15 205.85 277.45 205.15" fill="#4227fc" fill-rule="evenodd" stroke="none"/>
    <path d="M283.4 179.0 L283.45 179.0 283.55 180.55 283.4 179.0 283.55 180.55 284.4 192.45 284.3 192.45 280.5 191.55 280.4 191.55 280.4 191.5 280.45 191.4 281.4 178.75 283.35 179.0 283.4 179.0 M283.35 179.0 L284.3 192.45 283.35 179.0 M276.85 191.35 L276.2 191.3 279.95 180.2 279.05 191.35 276.85 191.35" fill="#7a68fd" fill-rule="evenodd" stroke="none"/>
    <path d="M284.85 192.6 L284.85 192.65 283.1 198.5 282.6 200.15 282.6 200.2 282.6 200.3 282.55 200.25 282.6 200.3 282.45 200.7 282.55 200.25 282.6 200.05 282.65 199.95 284.55 192.55 284.75 192.6 284.85 192.6 M284.55 192.55 L284.75 192.6 284.55 192.55" fill="#100178" fill-rule="evenodd" stroke="none"/>
    <path d="M283.5 179.0 L283.55 179.0 284.75 189.1 285.85 189.95 285.95 190.05 286.25 190.25 286.5 190.55 286.8 190.75 286.95 190.85 287.15 191.0 287.95 191.75 Q293.35 196.85 293.4 204.05 293.35 211.2 287.95 216.3 285.25 218.8 282.05 220.15 M287.15 191.0 L288.1 191.85 Q293.5 196.9 293.5 204.1 293.5 211.3 288.1 216.4 285.3 218.95 282.0 220.2 L281.3 220.35 Q278.25 221.45 275.2 221.45 L274.95 221.5 274.75 221.5 273.5 221.45 272.35 221.3 271.55 221.15 271.4 221.1 271.05 221.05 271.0 221.05 269.25 220.7 267.55 220.1 266.05 219.4 265.3 219.0 264.95 218.8 264.9 218.75 261.8 216.4 261.4 216.0 261.0 215.6 260.95 215.55 260.35 214.9 258.75 212.8 Q256.3 208.9 256.3 204.05 256.3 196.85 261.7 191.75 264.45 189.15 267.85 187.95 M275.9 186.7 L276.75 186.75 M279.8 178.55 L279.85 178.55 280.15 178.5 280.25 178.5 280.35 178.5 283.35 178.95 283.4 178.95 283.4 179.0 283.45 179.0 283.5 179.0 M276.7 186.8 L276.9 186.85 279.8 178.65 279.8 178.55 M280.15 178.6 L280.35 178.6 280.35 178.5 M280.15 178.6 L279.85 178.55 M280.15 178.6 L280.15 178.5 M281.4 178.75 L280.35 178.6 279.35 191.3 279.45 191.35 279.75 191.4 280.4 191.55 280.5 191.6 281.85 191.9 282.3 192.0 282.65 192.1 283.35 192.25 284.25 192.5 284.3 192.5 284.35 192.5 284.45 192.55 284.45 192.5 284.4 192.5 284.3 192.45 283.35 179.0 283.35 178.95 M281.4 178.75 L283.35 179.0 283.4 179.0 283.55 180.55 283.8 182.6 284.45 188.35 284.55 189.0 284.65 189.05 284.75 189.15 285.45 189.7 285.85 189.95 M272.05 189.9 L271.95 190.15 Q271.25 192.3 273.05 194.6 274.05 195.9 275.5 196.8 M275.5 196.65 L273.25 194.6 Q271.4 192.3 272.15 190.15 L272.2 189.9 Q273.0 187.9 275.7 187.2 L276.65 187.0 275.5 187.2 Q272.8 187.9 272.05 189.9 M258.7 212.55 L258.85 212.85 260.35 214.9 M279.35 191.3 L279.35 191.35 279.35 191.45 278.45 197.95 278.45 198.0 278.4 198.1 277.4 205.15 277.45 205.15 280.15 205.85 280.45 206.25 280.55 206.35 280.6 206.4 280.65 206.45 280.6 206.55 280.55 206.65 280.55 206.7 280.55 206.6 280.55 206.55 280.6 206.4 280.65 206.35 280.95 205.3 281.7 202.85 282.35 200.7 282.5 200.05 282.55 199.95 284.45 192.55 284.55 192.55 284.75 192.6 284.75 192.55 284.75 190.9 284.75 189.25 284.75 189.15 M279.05 191.35 L279.35 191.35 M258.7 212.55 L258.45 212.15 258.4 212.05 Q256.4 208.45 256.4 204.1 256.35 196.9 261.8 191.85 264.5 189.3 267.75 188.0 270.95 186.75 274.75 186.75 L274.95 186.75 275.8 186.75 276.6 186.8 276.65 186.8 276.7 186.8 M276.9 187.0 L276.65 187.0 M275.5 196.65 L275.9 196.9 M276.85 191.35 L279.05 191.35 M275.6 191.3 L276.85 191.35 M275.35 217.35 L275.25 217.35 273.2 217.15 Q270.05 216.65 267.65 214.45 264.45 211.55 264.45 207.5 264.45 203.8 267.1 201.1 L267.15 201.0 267.65 200.55 Q270.0 198.4 273.05 197.85 L274.75 197.65 274.95 197.65 275.05 197.65 275.25 197.65 M274.75 197.7 L274.85 197.65 274.95 197.65 M284.3 192.5 L284.3 192.45 282.3 192.0 M276.55 205.4 L276.55 205.45 276.65 205.4 277.2 205.2 277.35 205.15 277.4 205.15 M267.75 208.05 Q266.15 206.4 266.15 204.35 266.15 202.6 267.25 201.2 L267.85 200.65 Q270.2 198.5 273.25 197.95 L274.75 197.7 M279.1 210.35 Q280.6 209.8 281.9 208.9 284.6 207.0 284.65 204.25 L284.65 204.2 284.55 203.25 284.3 202.4 284.1 201.9 284.0 201.75 283.9 201.6 283.8 201.45 283.75 201.4 282.9 200.55 282.7 200.4 282.65 200.45 280.95 205.85 280.75 206.65 280.7 206.7 280.7 206.75 280.05 207.1 277.25 206.45 277.2 206.45 277.0 206.4 276.15 205.6 276.2 205.55 276.3 205.5 275.95 197.65 M286.1 190.2 L285.95 190.05 285.45 189.7 284.75 189.25 M286.3 190.4 L286.5 190.55 286.7 190.75 286.75 190.85 286.8 190.9 287.05 191.2 287.15 191.4 Q288.55 193.45 287.9 195.4 287.35 197.0 285.65 197.85 L285.55 197.9 284.4 198.35 283.3 198.55 M273.6 221.4 L273.0 221.35 272.45 221.3 271.85 221.2 273.0 221.35 M269.35 220.6 L268.45 220.4 M286.3 190.4 L286.25 190.35 286.5 190.6 286.7 190.75 M287.15 191.55 Q288.4 193.5 287.8 195.4 287.25 196.95 285.65 197.8 M286.1 190.2 L286.25 190.35 M284.45 192.5 L284.5 192.5 283.8 182.6 M284.5 192.5 L284.75 192.55 M282.55 200.25 L282.6 200.3 282.65 200.35 282.7 200.4 282.7 200.3 283.0 200.55 283.1 200.65 283.85 201.4 283.9 201.45 283.95 201.5 284.1 201.7 284.15 201.75 284.2 201.85 284.3 202.0 284.35 202.0 284.35 202.05 284.4 202.15 284.45 202.35 284.5 202.4 284.6 202.55 284.7 202.7 284.8 202.85 284.85 202.95 285.0 203.15 285.1 203.35 285.2 203.6 285.25 203.65 285.25 203.7 285.3 203.75 285.4 204.15 285.5 204.3 285.8 206.1 286.05 207.35 286.05 207.5 Q286.05 211.55 282.9 214.45 280.55 216.55 277.55 217.15 L278.55 216.95 279.75 216.55 Q281.55 215.8 283.05 214.45 286.2 211.55 286.25 207.5 286.2 205.4 285.4 203.6 L285.15 203.15 285.05 202.95 285.0 202.95 285.0 202.85 284.4 202.1 284.35 202.0 M275.45 217.35 L275.35 217.35 M272.35 216.95 L273.2 217.15 M284.2 201.95 L284.35 202.15 284.45 202.35 284.5 202.4 284.5 202.5 284.55 202.6 284.75 203.35 284.85 204.35 284.45 206.3 284.0 207.1 282.1 209.0 Q280.0 210.45 277.3 210.85 L275.5 210.95 275.3 210.95 273.5 210.85 273.45 210.85 Q271.85 210.55 270.45 209.95 L268.7 208.9 267.45 207.85 Q265.95 206.25 266.0 204.25 265.95 203.05 266.5 202.0 264.7 204.4 264.7 207.5 264.65 211.55 267.85 214.45 269.8 216.25 272.35 216.95 M266.75 201.55 L267.1 201.1 M284.0 201.75 L284.2 201.95 M279.1 210.35 L277.3 210.85 M280.65 206.35 L280.95 205.3 282.35 200.05 282.35 199.95 284.25 192.5 M282.35 200.7 L282.5 200.2 282.55 200.25 M281.5 203.8 L280.95 205.85 280.75 206.6 280.75 206.65 M282.35 200.7 L281.5 203.8 M280.65 206.55 L280.7 206.6 280.75 206.6 280.7 206.7 280.7 206.6 M276.3 205.55 L276.3 205.5 276.4 205.5 276.45 205.5 276.55 205.45 276.75 205.95 276.8 206.1 277.15 206.4 277.2 206.45 279.85 207.0 279.85 206.95 280.5 206.7 280.55 206.7 M276.45 205.45 L276.5 205.35 276.55 205.4 M276.45 205.5 L276.45 205.45 M276.4 205.5 L276.45 205.5 M276.3 205.55 L276.3 205.65 276.4 205.5 M280.65 206.35 L280.65 206.45 280.65 206.55 M280.55 206.6 L280.55 206.65 M266.95 201.3 L266.5 202.0 266.75 201.55 M266.95 201.3 L267.15 201.0 M270.45 209.95 L268.9 209.0 267.75 208.05 M275.45 217.35 L277.55 217.15" fill="none" stroke="#000000" stroke-linecap="round" stroke-linejoin="round" stroke-opacity="0.6" stroke-width="0.1"/>
    <path d="M275.6 191.3 L276.9 187.0 M275.9 196.9 L275.55 191.4 M275.95 197.65 L275.9 196.9 M283.3 198.5 L285.05 192.6 284.85 189.35 M283.3 198.5 L283.3 198.55 282.75 200.3" fill="none" stroke="#000000" stroke-linecap="round" stroke-linejoin="round" stroke-opacity="0.6" stroke-width="0.1"/>
  </g>
</svg>
