<?xml version="1.0" encoding="UTF-8" standalone="no"?>
<svg xmlns:xlink="http://www.w3.org/1999/xlink" height="33.4px" width="15.5px" xmlns="http://www.w3.org/2000/svg">
  <g transform="matrix(1.0, 0.0, 0.0, 1.0, -267.25, -183.75)">
    <path d="M277.7 193.55 L277.2 192.7 276.05 194.7 274.35 192.9 272.6 195.1 270.4 193.2 268.6 194.85 268.6 194.65 Q268.75 190.6 268.1 187.35 273.0 186.25 276.05 183.75 277.05 184.9 277.35 186.3 L277.4 186.45 277.7 193.3 277.7 193.5 277.7 193.55 M270.1 216.45 L270.75 217.05 270.75 217.1 Q268.45 217.3 267.25 216.25 L267.25 210.3 Q267.55 213.75 270.1 216.45" fill="#a5cbfa" fill-rule="evenodd" stroke="none"/>
    <path d="M277.9 196.9 L277.4 195.75 276.45 197.1 274.5 195.65 272.75 197.95 270.2 196.55 268.4 198.1 268.6 194.85 270.4 193.2 272.6 195.1 274.35 192.9 276.05 194.7 277.2 192.7 277.7 193.55 277.9 196.9 M267.55 206.2 L269.7 205.8 271.15 206.45 271.15 206.5 271.05 207.2 270.85 208.9 269.15 208.2 267.35 208.85 267.55 206.3 267.55 206.2 M272.8 206.35 L275.05 205.55 276.6 206.25 276.55 207.7 276.55 208.0 276.6 208.75 275.15 208.3 273.15 209.35 273.15 209.2 272.9 207.25 272.85 206.85 272.8 206.35 M276.75 205.9 L277.4 204.75 278.7 204.75 279.2 206.9 278.35 206.9 277.4 207.95 277.15 207.4 276.75 205.9" fill="#bce9fe" fill-rule="evenodd" stroke="none"/>
    <path d="M268.4 198.1 L270.2 196.55 272.75 197.95 274.5 195.65 276.45 197.1 277.4 195.75 277.9 196.9 277.9 197.1 278.25 200.95 278.25 201.1 278.7 204.75 277.4 204.75 276.75 205.9 276.7 205.4 276.6 206.25 275.05 205.55 272.8 206.35 Q272.55 203.65 272.55 200.35 271.6 203.5 271.15 206.45 L269.7 205.8 267.55 206.2 268.0 201.95 268.4 198.1" fill="#79b1f7" fill-rule="evenodd" stroke="none"/>
    <path d="M277.7 193.5 L277.7 193.55 277.7 193.5" fill="#6ccefd" fill-rule="evenodd" stroke="none"/>
    <path d="M271.15 206.45 Q271.6 203.5 272.55 200.35 272.55 203.65 272.8 206.35 L272.85 206.85 272.9 207.25 273.15 209.2 273.15 209.35 273.2 209.65 Q273.8 213.4 275.0 215.6 L273.55 215.6 Q271.85 215.55 270.95 216.0 270.55 213.1 270.8 210.0 L270.8 209.85 270.85 208.9 271.05 207.2 271.15 206.5 271.15 206.45 M276.6 206.25 L276.7 205.4 276.75 205.9 277.15 207.4 277.4 207.95 277.4 208.0 277.95 209.1 278.05 209.25 Q279.1 211.1 280.95 212.7 L280.3 212.75 277.95 213.2 277.9 213.2 277.85 213.2 Q277.05 211.55 276.75 209.75 L276.65 209.0 276.6 208.75 276.55 208.0 276.55 207.7 276.6 206.25" fill="#1377f0" fill-rule="evenodd" stroke="none"/>
    <path d="M280.95 212.7 Q279.1 211.1 278.05 209.25 L277.95 209.1 277.4 208.0 277.4 207.95 278.35 206.9 279.2 206.9 279.3 207.25 279.8 208.7 Q280.5 210.5 281.55 211.85 L282.65 212.75 282.6 212.75 280.95 212.75 280.95 212.7 M276.6 208.75 L276.65 209.0 276.75 209.75 Q277.05 211.55 277.85 213.2 L277.8 213.25 277.6 213.55 277.55 214.0 277.55 214.2 Q277.35 215.15 276.5 215.4 L275.1 215.6 275.0 215.6 Q273.8 213.4 273.2 209.65 L273.15 209.35 275.15 208.3 276.6 208.75 M267.25 210.3 L267.35 209.15 267.35 209.05 267.35 208.85 269.15 208.2 270.85 208.9 270.8 209.85 270.8 210.0 Q270.55 213.1 270.95 216.0 L270.75 216.15 270.1 216.45 Q267.55 213.75 267.25 210.3" fill="#4d98f4" fill-rule="evenodd" stroke="none"/>
    <path d="M270.75 217.05 L270.8 217.1 270.75 217.1 270.75 217.05" fill="#ccff00" fill-rule="evenodd" stroke="none"/>
    <path d="M280.95 212.7 L280.95 212.75 280.3 212.75 280.95 212.7 M282.6 212.75 L282.65 212.75 282.7 212.75 282.75 212.8 282.6 212.75 M277.8 213.25 L277.85 213.2 277.9 213.2 277.8 213.25" fill="#555ba0" fill-rule="evenodd" stroke="none"/>
    <path d="M277.9 196.9 L277.7 193.55 277.7 193.5 277.7 193.3 277.4 186.45 277.35 186.3 Q277.05 184.9 276.05 183.75 M278.7 204.75 L278.25 201.1 278.25 200.95 277.9 197.1 M280.95 212.75 L282.6 212.75 282.75 212.8 282.7 212.75 282.65 212.75 281.55 211.85 Q280.5 210.5 279.8 208.7 L279.3 207.25 279.2 206.9 278.7 204.75 M275.0 215.6 L275.1 215.6 276.5 215.4 Q277.35 215.15 277.55 214.2 L277.55 214.0 277.6 213.55 277.8 213.25 277.85 213.2 M277.9 213.2 L277.95 213.2 280.3 212.75 280.95 212.75 M270.95 216.0 Q271.85 215.55 273.55 215.6 L275.0 215.6 M270.95 216.0 L270.75 216.15 270.1 216.45 270.75 217.05 270.8 217.1 270.75 217.1 Q268.45 217.3 267.25 216.25 M267.25 210.3 Q267.55 213.75 270.1 216.45" fill="none" stroke="#0f121c" stroke-linecap="round" stroke-linejoin="round" stroke-width="0.05"/>
  </g>
</svg>
