<?xml version="1.0" encoding="UTF-8" standalone="no"?>
<svg xmlns:xlink="http://www.w3.org/1999/xlink" height="84.0px" width="64.45px" xmlns="http://www.w3.org/2000/svg">
  <g transform="matrix(1.0, 0.0, 0.0, 1.0, -261.55, -188.05)">
    <path d="M305.1 193.5 L305.8 191.45 306.15 194.1 306.15 195.45 305.1 193.5 306.15 195.45 306.15 194.1 305.8 191.45 306.5 189.4 307.5 192.3 308.0 193.75 307.0 194.8 307.55 197.45 307.0 194.8 308.0 193.75 308.5 195.25 307.55 197.45 306.9 198.85 304.4 195.6 306.9 198.85 306.05 200.7 303.65 197.7 306.05 200.7 302.1 209.5 300.0 208.15 303.65 197.7 304.35 195.65 304.4 195.6 304.35 195.65 304.4 195.6 305.1 193.5 M305.8 191.45 L307.5 192.3 305.8 191.45 M273.2 244.75 L274.85 250.7 276.2 252.7 275.5 254.25 272.5 251.7 275.5 254.25 276.2 252.7 277.55 254.7 276.2 257.7 274.75 260.8 272.7 265.1 271.85 263.55 272.7 265.1 272.15 266.3 271.5 265.2 272.15 266.3 270.55 269.5 271.5 265.2 271.85 263.55 272.8 259.25 272.55 256.95 272.5 255.05 272.5 251.7 272.7 249.15 274.85 250.7 272.7 249.15 273.2 244.75 M272.55 256.95 L273.65 256.4 273.65 254.5 272.5 255.05 273.65 254.5 273.65 256.4 272.55 256.95 M276.2 257.7 L275.8 255.2 274.7 256.55 274.75 260.8 274.7 256.55 275.8 255.2 276.2 257.7" fill="#afa272" fill-rule="evenodd" stroke="none"/>
    <path d="M305.8 191.45 L305.1 193.5 303.5 190.5 297.85 190.5 303.5 190.5 305.1 193.5 304.4 195.6 304.35 195.65 303.65 197.7 300.0 208.15 299.75 208.9 299.75 209.0 299.5 209.6 296.2 197.9 296.75 195.4 302.55 194.9 302.55 192.95 297.3 192.95 302.55 192.95 302.55 194.9 296.75 195.4 297.3 192.95 297.85 190.5 298.4 188.05 306.5 189.4 305.8 191.45 M304.35 195.65 L302.8 196.65 303.65 197.7 302.8 196.65 304.35 195.65 M285.25 234.4 L286.05 232.05 297.05 217.45 295.7 223.75 286.95 237.2 285.25 234.4 286.95 237.2 286.25 238.3 284.3 237.0 285.25 234.4 M272.8 259.25 L271.85 263.55 271.5 265.2 270.1 262.85 271.5 265.2 270.55 269.5 269.95 270.6 269.2 272.05 267.85 271.95 265.5 271.4 264.15 270.8 265.05 269.6 267.7 266.05 270.1 262.85 270.9 261.8 272.8 259.25 M270.55 269.5 L267.7 266.05 270.55 269.5 M265.05 269.6 L265.5 271.4 265.05 269.6 M269.95 270.6 L267.85 267.85 266.35 267.85 267.85 271.95 266.35 267.85 267.85 267.85 269.95 270.6 M271.85 263.55 L270.9 261.8 271.85 263.55" fill="#e7d083" fill-rule="evenodd" stroke="none"/>
    <path d="M296.2 197.9 L299.5 209.6 297.05 217.45 286.05 232.05 284.85 222.85 296.2 197.9 M270.1 249.6 L271.0 247.9 272.7 249.15 271.0 247.9 273.0 244.3 273.2 244.75 272.7 249.15 272.5 251.7 272.5 255.05 270.7 255.85 268.35 252.7 270.7 255.85 272.5 255.05 272.55 256.95 272.8 259.25 270.9 261.8 269.6 259.5 268.65 260.45 270.1 262.85 268.65 260.45 269.6 259.5 270.9 261.8 270.1 262.85 267.7 266.05 265.05 269.6 264.5 267.7 265.85 265.15 263.85 260.95 265.85 265.15 264.5 267.7 265.05 269.6 264.15 270.8 Q262.45 269.05 261.55 265.1 L263.85 260.95 264.9 259.0 267.7 266.05 264.9 259.0 267.45 254.35 268.35 252.7 270.1 249.6 272.5 251.7 270.1 249.6 M272.55 256.95 L270.7 257.9 267.45 254.35 270.7 257.9 272.55 256.95" fill="#f2e7bf" fill-rule="evenodd" stroke="none"/>
    <path d="M279.05 233.35 L281.8 237.0 Q280.55 236.8 279.75 240.75 L277.45 236.35 279.75 240.75 Q278.1 240.8 277.1 245.95 274.85 246.85 274.85 250.7 L273.2 244.75 273.2 243.95 Q275.45 244.15 275.25 240.25 L277.1 245.95 275.25 240.25 Q277.75 240.45 277.45 236.35 279.85 235.65 279.05 233.35" fill="#993300" fill-rule="evenodd" stroke="none"/>
    <path d="M280.05 231.55 L281.05 229.75 283.3 232.45 283.3 234.35 280.05 231.55 283.3 234.35 283.3 232.45 281.05 229.75 284.85 222.85 286.05 232.05 285.25 234.4 284.3 237.0 281.8 237.0 279.05 233.35 280.05 231.55 M285.25 234.4 L284.55 233.25 283.75 235.4 284.3 237.0 283.75 235.4 284.55 233.25 285.25 234.4" fill="#faf5e4" fill-rule="evenodd" stroke="none"/>
    <path d="M281.8 237.0 L284.3 237.0 286.25 238.3 Q282.8 239.75 283.3 242.85 281.05 243.2 280.9 246.45 L279.85 249.1 277.1 245.95 279.85 249.1 Q277.9 249.4 277.55 254.7 L276.2 252.7 274.85 250.7 Q274.85 246.85 277.1 245.95 278.1 240.8 279.75 240.75 L283.3 242.85 279.75 240.75 Q280.55 236.8 281.8 237.0" fill="#5f1f00" fill-rule="evenodd" stroke="none"/>
    <path d="M306.5 189.4 L298.4 188.05 297.85 190.5 297.3 192.95 296.75 195.4 296.2 197.9 284.85 222.85 281.05 229.75 280.05 231.55 279.05 233.35 281.8 237.0 284.3 237.0 286.25 238.3 286.95 237.2 295.7 223.75 302.1 209.5 306.05 200.7 306.9 198.85 307.55 197.45 308.5 195.25 308.0 193.75 307.5 192.3 306.5 189.4 M279.05 233.35 Q279.85 235.65 277.45 236.35 L279.75 240.75 283.3 242.85 Q282.8 239.75 286.25 238.3 M275.25 240.25 Q275.45 244.15 273.2 243.95 L273.2 244.75 274.85 250.7 276.2 252.7 277.55 254.7 Q277.9 249.4 279.85 249.1 L280.9 246.45 Q281.05 243.2 283.3 242.85 M277.1 245.95 L275.25 240.25 Q277.75 240.45 277.45 236.35 M277.1 245.95 L279.85 249.1 M271.0 247.9 L270.1 249.6 268.35 252.7 267.45 254.35 264.9 259.0 263.85 260.95 261.55 265.1 Q262.45 269.05 264.15 270.8 L265.5 271.4 267.85 271.95 269.2 272.05 269.95 270.6 270.55 269.5 272.15 266.3 272.7 265.1 274.75 260.8 276.2 257.7 277.55 254.7 M271.0 247.9 L273.0 244.3 273.2 243.95 M273.2 244.75 L273.0 244.3" fill="none" stroke="#000000" stroke-linecap="round" stroke-linejoin="round" stroke-opacity="0.4" stroke-width="0.05"/>
    <path d="M305.1 193.5 L306.15 195.45 306.15 194.1 305.8 191.45 307.5 192.3 M297.85 190.5 L303.5 190.5 305.1 193.5 M304.4 195.6 L306.9 198.85 M307.55 197.45 L307.0 194.8 308.0 193.75 M303.65 197.7 L306.05 200.7 M304.4 195.6 L304.35 195.65 302.8 196.65 303.65 197.7 M297.3 192.95 L302.55 192.95 302.55 194.9 296.75 195.4 M280.05 231.55 L283.3 234.35 283.3 232.45 281.05 229.75 M284.3 237.0 L283.75 235.4 284.55 233.25 285.25 234.4 286.95 237.2 M270.1 249.6 L272.5 251.7 275.5 254.25 276.2 252.7 M272.7 249.15 L271.0 247.9 M274.85 250.7 L272.7 249.15 M272.5 255.05 L270.7 255.85 268.35 252.7 M267.45 254.35 L270.7 257.9 272.55 256.95 273.65 256.4 273.65 254.5 272.5 255.05 M271.85 263.55 L272.7 265.1 M274.75 260.8 L274.7 256.55 275.8 255.2 276.2 257.7 M263.85 260.95 L265.85 265.15 264.5 267.7 265.05 269.6 265.5 271.4 M267.7 266.05 L264.9 259.0 M270.1 262.85 L268.65 260.45 269.6 259.5 270.9 261.8 271.85 263.55 M271.5 265.2 L272.15 266.3 M271.5 265.2 L270.1 262.85 M267.7 266.05 L270.55 269.5 M267.85 271.95 L266.35 267.85 267.85 267.85 269.95 270.6" fill="none" stroke="#593d00" stroke-linecap="round" stroke-linejoin="round" stroke-opacity="0.2" stroke-width="0.05"/>
    <path d="M300.0 207.9 L302.1 209.25 295.7 223.5 288.65 234.3 286.5 234.0 281.95 227.85 284.85 222.6 293.45 203.7 298.9 207.2 299.5 209.35 299.2 210.35 300.0 207.9" fill="#000000" fill-opacity="0.32156864" fill-rule="evenodd" stroke="none"/>
    <path d="M307.55 197.45 L307.0 194.8 308.0 193.75 308.5 195.25 307.55 197.45 M304.4 195.6 L306.9 198.85 306.05 200.7 302.8 196.65 304.35 195.65 304.4 195.6 M305.8 191.45 L306.15 194.1 306.15 195.45 303.5 190.5 297.85 190.5 298.4 188.05 306.5 189.4 307.5 192.3 305.8 191.45 M302.55 194.9 L296.75 195.4 297.3 192.95 302.55 192.95 302.55 194.9 M280.05 231.55 L281.05 229.75 283.3 232.45 283.3 234.35 280.05 231.55 M286.95 237.2 L286.25 238.3 284.3 237.0 283.75 235.4 284.55 233.25 286.95 237.2 M268.35 252.7 L270.7 255.85 273.65 254.5 273.65 256.4 270.7 257.9 267.45 254.35 268.35 252.7 M270.1 249.6 L271.0 247.9 274.85 250.7 276.2 252.7 275.5 254.25 270.1 249.6 M269.6 259.5 L272.7 265.1 272.15 266.3 268.65 260.45 269.6 259.5 M263.85 260.95 L264.9 259.0 267.7 266.05 270.55 269.5 269.95 270.6 267.85 267.85 266.35 267.85 267.85 271.95 265.5 271.4 264.5 267.7 265.85 265.15 263.85 260.95 M274.75 260.8 L274.7 256.55 275.8 255.2 276.2 257.7 274.75 260.8" fill="#ffffff" fill-opacity="0.34901962" fill-rule="evenodd" stroke="none"/>
    <path d="M288.45 193.65 Q288.4 195.35 292.55 194.9 L286.85 199.6 282.35 203.35 288.45 193.65 M323.8 218.2 L322.15 219.8 318.45 216.65 323.8 218.2 M304.6 232.45 L293.2 229.1 303.4 224.7 304.6 232.45" fill="#546554" fill-rule="evenodd" stroke="none"/>
    <path d="M292.55 194.9 L305.5 198.8 306.95 205.35 309.75 209.1 303.4 224.7 293.2 229.1 288.1 225.8 285.0 223.85 272.5 215.9 275.15 210.05 282.35 203.35 275.15 210.05 267.3 211.0 273.5 194.3 279.25 190.95 288.45 193.65 282.35 203.35 286.85 199.6 292.55 194.9 M306.95 205.35 L291.25 211.95 288.1 219.75 288.1 225.8 288.1 219.75 285.0 223.85 288.1 219.75 291.25 211.95 286.85 199.6 291.25 211.95 306.95 205.35" fill="#7e8f7e" fill-rule="evenodd" stroke="none"/>
    <path d="M305.5 198.8 L314.6 203.7 309.75 209.1 306.95 205.35 305.5 198.8" fill="#dfe3df" fill-rule="evenodd" stroke="none"/>
    <path d="M314.6 203.7 L326.0 212.3 323.8 218.2 318.45 216.65 322.15 222.0 317.65 231.4 313.2 233.9 304.6 232.45 303.4 224.7 309.75 209.1 314.6 203.7" fill="#768976" fill-rule="evenodd" stroke="none"/>
    <path d="M322.15 219.8 L322.15 222.0 318.45 216.65 322.15 219.8 M272.5 215.9 L267.3 212.85 267.3 211.0 275.15 210.05 272.5 215.9" fill="#a8b9a8" fill-rule="evenodd" stroke="none"/>
    <path d="M288.45 193.65 Q288.4 195.35 292.55 194.9 L305.5 198.8 314.6 203.7 326.0 212.3 323.8 218.2 322.15 219.8 322.15 222.0 317.65 231.4 313.2 233.9 304.6 232.45 293.2 229.1 288.1 225.8 285.0 223.85 272.5 215.9 267.3 212.85 267.3 211.0 273.5 194.3 279.25 190.95 288.45 193.65 282.35 203.35 286.85 199.6 292.55 194.9 M282.35 203.35 L275.15 210.05 272.5 215.9 M305.5 198.8 L306.95 205.35 309.75 209.1 314.6 203.7 M304.6 232.45 L303.4 224.7 293.2 229.1 M288.1 225.8 L288.1 219.75 285.0 223.85 M288.1 219.75 L291.25 211.95 286.85 199.6 M291.25 211.95 L306.95 205.35 M309.75 209.1 L303.4 224.7 M275.15 210.05 L267.3 211.0 M323.8 218.2 L318.45 216.65 322.15 219.8 M318.45 216.65 L322.15 222.0" fill="none" stroke="#000000" stroke-linecap="round" stroke-linejoin="round" stroke-opacity="0.4" stroke-width="0.05"/>
    <path d="M308.6 200.45 Q307.8 205.45 302.95 211.9 301.55 213.65 295.05 218.8 288.85 223.55 287.8 225.45 L287.7 225.65 282.5 222.35 Q282.7 221.4 283.05 220.7 285.2 215.85 293.1 209.0 300.15 202.85 302.55 197.9 L305.55 198.8 308.6 200.45 M295.05 229.4 L295.0 229.6 294.95 229.6 295.05 229.4 M277.35 201.0 L277.35 202.05 276.7 203.75 Q274.95 205.8 274.55 206.9 L272.7 212.1 Q271.85 213.05 271.5 215.4 L271.5 215.45 269.35 214.15 269.85 212.85 Q272.2 206.5 274.65 202.6 L277.3 200.8 277.35 201.0 M307.35 223.85 Q315.05 215.3 323.45 215.3 324.0 215.3 324.75 215.65 L323.8 218.2 322.15 219.85 322.15 222.0 320.05 226.45 Q314.4 228.5 311.05 233.55 L304.6 232.45 303.45 232.1 304.55 228.55 Q305.35 225.95 307.35 223.85" fill="#003300" fill-opacity="0.4117647" fill-rule="evenodd" stroke="none"/>
  </g>
</svg>
