<?xml version="1.0" encoding="UTF-8" standalone="no"?>
<svg xmlns:xlink="http://www.w3.org/1999/xlink" height="57.05px" width="73.0px" xmlns="http://www.w3.org/2000/svg">
  <g transform="matrix(1.0, 0.0, 0.0, 1.0, 36.5, 28.35)">
    <path d="M35.6 -7.45 L35.65 -7.0 35.6 -7.45 35.75 -7.35 35.7 -7.25 35.65 -7.0 24.0 8.15 23.85 8.3 -7.65 11.2 -8.7 10.7 -7.65 11.2 23.85 8.3 19.9 26.65 19.9 26.7 19.85 26.7 19.9 26.7 19.85 26.7 -5.7 27.95 -5.85 27.85 -6.45 27.5 -8.85 10.95 -8.7 10.7 -34.8 -1.65 -35.75 -13.95 -15.55 -26.6 16.2 -27.6 35.6 -7.45" fill="#797979" fill-rule="evenodd" stroke="none"/>
    <path d="M24.0 8.15 L35.65 -7.0 32.7 10.9 19.9 26.65 23.85 8.3 23.9 8.25 24.0 8.15" fill="#4b4b4b" fill-rule="evenodd" stroke="none"/>
    <path d="M-34.8 -1.65 L-8.7 10.7 -8.85 10.95 -6.45 27.5 -7.15 27.2 -28.35 16.35 -34.8 -1.65" fill="#c1c1c1" fill-rule="evenodd" stroke="none"/>
    <path d="M35.65 -7.0 L35.6 -7.45 M-34.8 -1.65 L-8.7 10.7 -7.65 11.2 23.85 8.3 24.0 8.15 35.65 -7.0 35.7 -7.25 M19.9 26.65 L19.9 26.7 19.9 26.65 23.85 8.3 23.9 8.25 24.0 8.15 M16.2 -27.6 L15.9 -27.9 M19.85 26.7 L19.9 26.7 M-7.15 27.2 L-6.45 27.5 -8.85 10.95 M-6.45 27.5 L-5.85 27.85" fill="none" stroke="#393939" stroke-linecap="round" stroke-linejoin="round" stroke-width="0.05"/>
    <path d="M35.6 -7.45 L16.2 -27.6 -15.55 -26.6 -35.75 -13.95 -34.8 -1.65 -28.35 16.35 -7.15 27.2 -5.85 27.85 -5.7 27.95 19.85 26.7 19.9 26.7 19.9 26.65 32.7 10.9 35.65 -7.0 M35.7 -7.25 L35.75 -7.35 35.6 -7.45" fill="none" stroke="#393939" stroke-linecap="round" stroke-linejoin="round" stroke-width="1.5"/>
    <path d="M-2.15 -23.25 Q1.95 -23.3 5.45 -21.15 L8.5 -18.85 9.9 -17.15 11.65 -14.1 Q12.7 -11.6 12.9 -9.0 13.0 -7.0 12.6 -5.0 L12.45 -4.5 11.4 -1.55 Q9.25 2.9 5.25 5.15 1.95 7.0 -2.15 7.05 L-2.45 7.05 Q-11.75 6.85 -15.7 -1.55 -17.05 -4.4 -17.2 -7.25 L-17.2 -9.0 -17.05 -10.35 Q-16.75 -12.25 -15.95 -14.1 -14.0 -18.7 -9.8 -21.15 L-9.5 -21.3 -7.95 -22.1 Q-5.35 -23.25 -2.25 -23.25 L-2.15 -23.25 M2.6 -13.3 L1.25 -22.8 -4.05 -18.85 -1.75 -16.95 0.95 -14.7 2.6 -13.3 7.75 -9.0 12.9 -9.0 M2.6 -13.3 L2.75 -12.1 3.2 -9.0 7.75 -9.0 12.6 -5.0 M-4.05 -18.85 L-6.65 -16.95 -1.75 -16.95 M-17.2 -9.0 L-13.05 -12.1 -9.6 -14.7 -6.65 -16.95 M-9.6 -14.7 L0.95 -14.7 M-13.05 -12.1 L2.75 -12.1 M-17.2 -9.0 L3.2 -9.0 5.25 5.15 M-4.05 -18.85 L-7.95 -22.1" fill="none" stroke="#6600ff" stroke-linecap="round" stroke-linejoin="round" stroke-width="1.5"/>
  </g>
</svg>
