<?xml version="1.0" encoding="UTF-8" standalone="no"?>
<svg xmlns:xlink="http://www.w3.org/1999/xlink" height="58.5px" width="74.8px" xmlns="http://www.w3.org/2000/svg">
  <g transform="matrix(1.0, 0.0, 0.0, 1.0, 37.4, 29.1)">
    <path d="M24.65 8.35 L24.5 8.5 20.45 27.3 20.45 27.35 20.4 27.35 20.45 27.35 20.4 27.35 -5.8 28.65 -6.0 28.55 -6.6 28.2 -8.9 11.0 Q-22.3 4.6 -35.65 -1.7 L-36.65 -14.3 -15.9 -27.3 16.6 -28.35 36.5 -7.65 36.65 -7.55 36.65 -7.45 36.6 -7.2 24.65 8.35 M36.6 -7.2 L36.5 -7.65 36.6 -7.2 M24.5 8.5 L-7.85 11.45 -8.9 11.0 -7.85 11.45 24.5 8.5" fill="#797979" fill-rule="evenodd" stroke="none"/>
    <path d="M24.5 8.5 L24.55 8.45 24.65 8.35 36.6 -7.2 33.55 11.15 20.45 27.3 24.5 8.5" fill="#4b4b4b" fill-rule="evenodd" stroke="none"/>
    <path d="M-35.65 -1.7 Q-22.3 4.6 -8.9 11.0 L-6.6 28.2 -7.3 27.85 -29.05 16.75 -35.65 -1.7" fill="#c1c1c1" fill-rule="evenodd" stroke="none"/>
    <path d="M16.6 -28.35 L16.3 -28.65 M24.5 8.5 L24.55 8.45 24.65 8.35 24.5 8.5 20.45 27.3 20.45 27.35 20.45 27.3 M36.6 -7.2 L24.65 8.35 M36.5 -7.65 L36.6 -7.2 36.65 -7.45 M-35.65 -1.7 Q-22.3 4.6 -8.9 11.0 L-7.85 11.45 24.5 8.5 M-6.6 28.2 L-6.0 28.55 M20.4 27.35 L20.45 27.35 M-6.6 28.2 L-8.9 11.0 M-7.3 27.85 L-6.6 28.2" fill="none" stroke="#393939" stroke-linecap="round" stroke-linejoin="round" stroke-width="0.05"/>
    <path d="M20.45 27.3 L33.55 11.15 36.6 -7.2 M36.65 -7.45 L36.65 -7.55 36.5 -7.65 16.6 -28.35 -15.9 -27.3 -36.65 -14.3 -35.65 -1.7 -29.05 16.75 -7.3 27.85 -6.0 28.55 -5.8 28.65 20.4 27.35 20.45 27.35 20.45 27.3" fill="none" stroke="#393939" stroke-linecap="round" stroke-linejoin="round" stroke-width="1.5"/>
    <path d="M9.55 -22.15 L9.6 -22.15 Q11.2 -20.55 12.3 -18.65 L13.6 -16.0 Q14.35 -14.0 14.75 -11.65 15.65 -5.5 13.4 -0.2 L12.3 1.9 11.85 2.65 Q7.15 9.9 -0.5 9.75 L-0.75 9.75 Q-8.25 9.5 -12.6 2.3 L-12.6 2.25 Q-14.3 -0.5 -15.0 -3.5 L-15.45 -7.05 Q-15.6 -9.4 -15.15 -11.85 -14.05 -18.55 -9.5 -22.65 L-9.2 -22.95 Q-5.25 -26.35 -0.35 -26.4 L-0.15 -26.4 Q5.05 -26.4 9.15 -22.6 L9.45 -22.3 Q9.35 -22.05 9.55 -22.15 L9.6 -22.15 9.85 -19.95 11.05 -9.6 11.7 -3.65 12.2 1.05 12.3 1.9 8.05 1.8 5.25 1.8 2.35 1.75 -0.65 1.75 -3.6 1.65 -6.9 1.65 -9.7 1.6 -12.5 1.55 -12.6 2.25 M12.2 1.05 L7.65 -3.65 8.05 1.8 M11.05 -9.6 L2.15 -9.65 4.9 -6.7 7.65 -3.65 11.7 -3.65 M4.9 -6.7 L5.25 1.8 M-9.55 -22.35 Q-9.4 -22.4 -9.5 -22.65 L-9.55 -22.35 -9.25 -22.35 9.45 -22.3 M-9.35 -22.15 L-9.55 -22.35 -9.6 -22.0 -9.35 -22.15 -9.25 -22.35 M-12.5 1.55 L-9.6 -22.0 -9.55 -22.35 M-9.35 -22.15 L-7.55 -20.25 9.85 -19.95 M10.0 -15.15 L-2.95 -15.2 -0.5 -12.55 2.15 -9.65 2.35 1.75 M-7.55 -20.25 L-5.5 -17.95 -2.95 -15.2 -3.6 1.65 M-7.55 -20.25 L-9.7 1.6 M-5.5 -17.95 L-6.9 1.65 M-0.5 -12.55 L-0.65 1.75" fill="none" stroke="#0fb3f0" stroke-linecap="round" stroke-linejoin="round" stroke-width="1.5"/>
  </g>
</svg>
