<?xml version="1.0" encoding="UTF-8" standalone="no"?>
<svg xmlns:xlink="http://www.w3.org/1999/xlink" height="90.8px" width="63.7px" xmlns="http://www.w3.org/2000/svg">
  <g transform="matrix(1.0, 0.0, 0.0, 1.0, -243.1, -155.05)">
    <path d="M298.35 158.75 L298.35 158.7 298.35 158.75" fill="#f1d57c" fill-rule="evenodd" stroke="none"/>
    <path d="M298.55 158.75 L298.35 158.75 298.35 158.7 298.55 158.75" fill="#5e4904" fill-rule="evenodd" stroke="none"/>
    <path d="M299.4 165.9 L298.35 158.75 298.55 158.75 305.9 172.2 306.3 176.9 299.4 165.9" fill="#ff2600" fill-rule="evenodd" stroke="none"/>
    <path d="M281.05 192.9 L284.55 203.1 280.8 207.4 274.4 202.55 274.45 202.5 281.05 192.9 M270.25 213.9 L274.0 215.05 274.45 215.75 274.95 216.8 278.05 228.25 273.4 224.55 273.55 224.4 267.35 213.1 270.25 213.9 M253.45 240.1 L253.4 240.15 257.95 245.35 257.9 245.35 251.95 244.8 243.6 238.6 253.45 240.1" fill="#801300" fill-rule="evenodd" stroke="none"/>
    <path d="M292.2 174.15 L296.1 170.75 300.0 189.35 295.7 190.5 292.2 174.15" fill="#640f00" fill-rule="evenodd" stroke="none"/>
    <path d="M284.7 187.45 L277.95 184.6 277.95 184.45 287.4 183.5 289.45 196.9 284.7 187.45" fill="#2b0600" fill-rule="evenodd" stroke="none"/>
    <path d="M277.95 184.6 L277.7 184.5 277.95 184.45 277.95 184.6 M253.2 205.05 L258.25 205.6 255.65 207.5 256.15 209.65 253.95 210.3 253.2 205.05 M266.55 206.5 L266.5 206.45 267.3 206.5 267.8 206.55 271.25 206.9 274.1 214.95 274.0 215.05 270.25 213.9 268.55 210.7 267.95 210.6 269.1 208.45 266.7 206.65 266.55 206.5 M266.0 227.4 L273.4 224.55 278.05 228.25 278.15 228.3 257.95 245.35 253.4 240.15 253.45 240.1 259.05 237.8 265.8 227.45 266.0 227.4" fill="#480a00" fill-rule="evenodd" stroke="none"/>
    <path d="M270.2 186.9 L270.4 187.05 270.25 187.15 270.2 186.9 M270.35 196.7 L270.35 196.75 270.35 196.7" fill="#971300" fill-rule="evenodd" stroke="none"/>
    <path d="M287.85 182.85 L291.75 177.15 292.2 174.15 295.7 190.5 284.55 203.1 281.05 192.9 281.05 192.8 284.7 187.45 289.45 196.9 287.4 183.5 287.85 182.85 M296.1 170.75 L299.4 165.9 306.3 176.9 300.0 189.35 296.1 170.75" fill="#9e3e1d" fill-rule="evenodd" stroke="none"/>
    <path d="M271.95 206.1 L274.4 202.55 280.8 207.4 274.1 214.95 271.25 206.9 271.4 206.95 271.95 206.1" fill="#662813" fill-rule="evenodd" stroke="none"/>
    <path d="M281.05 192.8 L281.05 192.9 281.05 192.8 M265.9 227.3 L266.0 227.4 265.8 227.45 265.9 227.3" fill="#ff0040" fill-rule="evenodd" stroke="none"/>
    <path d="M266.7 206.65 L266.55 206.65 266.55 206.5 266.7 206.65 M247.25 215.85 L247.05 215.75 247.7 215.1 247.25 215.85" fill="#ff0d49" fill-rule="evenodd" stroke="none"/>
    <path d="M272.75 194.15 L281.05 192.8 281.05 192.9 274.45 202.5 274.4 202.55 271.95 206.1 269.55 200.75 272.75 194.15" fill="#ff1a1f" fill-rule="evenodd" stroke="none"/>
    <path d="M298.35 158.75 L299.4 165.9 296.1 170.75 292.2 174.15 291.75 177.15 287.85 182.85 277.15 170.2 289.9 157.4 298.35 158.7 298.35 158.75 M258.4 186.5 L267.0 195.1 269.55 200.75 271.95 206.1 271.4 206.95 271.25 206.9 267.8 206.55 267.3 206.5 266.5 206.45 266.55 206.5 258.25 205.6 253.2 205.05 253.15 204.55 255.65 196.3 257.15 192.3 258.4 186.5 M265.8 227.45 L259.05 237.8 253.45 240.1 243.6 238.6 243.7 218.8 247.05 215.75 247.25 215.85 265.9 227.3 265.8 227.45" fill="#ff6251" fill-rule="evenodd" stroke="none"/>
    <path d="M277.15 170.2 L287.85 182.85 287.4 183.5 277.95 184.45 277.7 184.5 277.95 184.6 284.7 187.45 281.05 192.8 272.75 194.15 267.0 195.1 258.4 186.5 259.7 180.35 262.4 173.25 277.15 170.2 M270.2 186.9 L270.25 187.15 270.4 187.05 270.2 186.9 M261.4 212.0 L267.05 212.55 267.35 213.1 273.55 224.4 273.4 224.55 266.0 227.4 265.9 227.3 247.25 215.85 247.7 215.1 250.45 211.0 254.05 211.3 260.9 211.95 261.4 212.0" fill="#ff2d15" fill-rule="evenodd" stroke="none"/>
    <path d="M289.9 157.4 L277.15 170.2 262.4 173.25 263.1 171.35 264.85 161.05 264.95 160.8 268.25 158.75 271.7 156.6 271.75 156.6 277.45 155.55 277.5 155.55 289.9 157.4 M258.25 205.6 L266.55 206.5 266.55 206.65 260.75 207.85 259.15 209.0 265.5 210.15 261.4 212.0 260.9 211.95 254.05 211.3 253.95 210.3 256.15 209.65 255.65 207.5 258.25 205.6 M259.15 209.0 L258.6 208.9 256.15 209.65 258.6 208.9 259.15 209.0" fill="#ff9488" fill-rule="evenodd" stroke="none"/>
    <path d="M267.0 195.1 L272.75 194.15 269.55 200.75 267.0 195.1 M270.35 196.7 L270.35 196.75 270.35 196.7 M266.55 206.65 L266.7 206.65 269.1 208.45 267.95 210.6 268.55 210.7 270.25 213.9 267.35 213.1 267.05 212.55 261.4 212.0 265.5 210.15 259.15 209.0 260.75 207.85 266.55 206.65 M267.95 210.6 L265.5 210.15 267.95 210.6" fill="#ce1400" fill-rule="evenodd" stroke="none"/>
    <path d="M298.35 158.7 L289.9 157.4 277.5 155.55 277.45 155.55 M306.3 176.9 L305.9 172.2 298.55 158.75 298.35 158.7 298.4 158.4 298.55 158.75 M298.35 158.75 L298.35 158.7 M271.75 156.6 L271.7 156.6 268.25 158.75 M284.55 203.1 L295.7 190.5 300.0 189.35 306.3 176.9 M255.65 196.3 L253.15 204.55 253.2 205.05 253.95 210.3 253.25 210.5 M271.25 206.9 L271.4 206.95 M253.15 204.55 L253.0 205.05 253.2 205.05 M274.0 215.05 L274.1 214.95 280.8 207.4 284.55 203.1 M267.05 212.55 L267.35 213.1 M254.05 211.3 L253.95 210.3 M273.4 224.55 L273.55 224.4 M257.95 245.35 L278.15 228.3 278.05 228.25 274.95 216.8 M247.05 215.75 L243.7 218.8 243.6 238.6 251.95 244.8 257.9 245.35 257.95 245.35 M274.45 215.75 L274.0 215.05 M247.7 215.1 L250.45 211.0 254.05 211.3 M247.05 215.75 L247.7 215.1" fill="none" stroke="#000000" stroke-linecap="round" stroke-linejoin="round" stroke-opacity="0.6" stroke-width="1.0"/>
    <path d="M274.45 215.75 L274.95 216.8 M274.1 214.95 L274.45 215.75" fill="none" stroke="#000000" stroke-linecap="round" stroke-linejoin="round" stroke-opacity="0.6" stroke-width="1.0"/>
    <path d="M281.05 192.9 L284.55 203.1 M274.4 202.55 L280.8 207.4" fill="none" stroke="#2b0600" stroke-linecap="round" stroke-linejoin="round" stroke-width="0.05"/>
    <path d="M253.2 205.05 L258.25 205.6 266.55 206.5 M266.5 206.45 L267.3 206.5 M267.8 206.55 L271.25 206.9 M253.95 210.3 L256.15 209.65 258.6 208.9 259.15 209.0 265.5 210.15 267.95 210.6 268.55 210.7 270.25 213.9 274.0 215.05 M261.4 212.0 L267.05 212.55 M267.35 213.1 L270.25 213.9 M254.05 211.3 L260.9 211.95" fill="none" stroke="#000000" stroke-linecap="round" stroke-linejoin="round" stroke-opacity="0.6" stroke-width="0.6000000000000001"/>
    <path d="M274.1 214.95 L271.25 206.9" fill="none" stroke="#000000" stroke-linecap="round" stroke-linejoin="round" stroke-opacity="0.6" stroke-width="0.6000000000000001"/>
  </g>
</svg>
