<?xml version="1.0" encoding="UTF-8" standalone="no"?>
<svg xmlns:xlink="http://www.w3.org/1999/xlink" height="99.4px" width="91.1px" xmlns="http://www.w3.org/2000/svg">
  <g transform="matrix(1.0, 0.0, 0.0, 1.0, -229.4, -150.75)">
    <path d="M281.75 165.95 L286.7 161.8 315.0 150.75 318.6 153.55 316.4 183.55 315.9 184.55 319.15 187.6 320.5 193.9 318.6 208.85 306.0 211.1 297.7 210.55 288.55 221.2 279.9 227.25 278.2 231.95 272.85 237.9 273.8 242.65 268.75 246.75 267.35 249.0 259.0 250.15 256.15 247.2 Q254.75 248.05 253.45 249.2 L232.9 242.85 229.4 234.0 235.9 222.0 236.45 215.0 239.1 208.25 244.8 211.0 253.85 200.85 260.65 189.85 258.8 177.6 260.05 170.2 270.95 166.7 281.65 166.7 281.75 165.95" fill="#fedbc0" fill-opacity="0.2509804" fill-rule="evenodd" stroke="none"/>
    <path d="M282.1 168.45 L286.75 164.5 313.55 153.95 316.95 156.65 314.85 185.3 314.4 186.25 317.5 189.15 318.75 195.15 316.95 209.45 305.0 211.6 297.2 211.1 288.5 221.25 280.3 227.05 278.7 231.5 273.65 237.2 274.55 241.75 269.75 245.65 268.45 247.8 260.55 248.9 257.8 246.05 Q256.5 246.85 255.3 247.95 L235.8 241.9 232.5 233.45 238.65 222.0 239.15 215.35 241.7 208.9 247.05 211.5 255.65 201.8 262.1 191.3 260.35 179.6 261.5 172.55 271.85 169.2 282.0 169.2 282.1 168.45" fill="#fedbc0" fill-opacity="0.4509804" fill-rule="evenodd" stroke="none"/>
    <path d="M293.2 181.65 L293.75 183.4 293.8 183.5 293.6 183.85 292.9 182.7 293.2 181.65 M292.3 181.7 L292.2 181.6 292.2 181.55 292.25 181.4 292.25 181.5 292.3 181.7" fill="#cde4e3" fill-rule="evenodd" stroke="none"/>
    <path d="M265.05 184.1 L265.15 184.45 265.05 184.4 265.05 184.1 M281.15 185.8 L281.3 185.45 281.3 185.8 281.15 185.8 M292.35 181.8 L292.25 181.75 292.3 181.7 292.35 181.8" fill="#8dc2c0" fill-rule="evenodd" stroke="none"/>
    <path d="M259.05 209.1 L258.85 209.3 258.8 209.15 259.05 209.1 M246.0 215.2 L246.05 215.25 245.95 215.25 246.0 215.2" fill="#a3cdcb" fill-rule="evenodd" stroke="none"/>
    <path d="M277.35 181.35 L282.0 177.8 279.2 174.2 278.5 174.2 279.35 170.9 280.15 170.9 281.3 170.85 284.45 174.9 286.1 177.05 286.2 177.25 281.3 185.45 281.15 185.8 267.6 186.45 265.15 184.45 265.05 184.1 265.05 181.05 269.75 181.85 269.75 182.05 271.25 183.2 276.15 182.3 277.35 181.35 M285.4 182.7 L290.25 178.45 290.3 178.5 291.55 181.25 273.8 194.4 258.8 207.6 251.1 209.5 250.95 206.15 255.25 205.65 257.2 205.2 270.95 192.55 277.35 187.9 281.15 185.8 281.3 185.8 281.3 185.45 285.4 182.7 M246.05 215.25 L253.4 212.4 256.95 216.55 267.0 213.25 267.4 208.85 271.55 203.95 274.95 205.7 280.5 200.5 285.25 199.15 288.5 209.55 296.8 208.9 295.8 210.05 287.95 210.2 284.9 201.6 280.85 202.8 276.4 207.0 272.4 205.25 268.4 209.3 268.95 215.35 256.65 219.9 253.85 215.7 246.95 218.55 249.3 221.55 249.0 230.0 242.65 235.7 244.2 241.05 242.75 240.6 241.2 235.5 237.7 233.9 239.25 239.5 238.65 239.3 239.25 239.5 238.65 239.3 235.55 231.55 241.25 220.95 241.75 214.8 245.95 215.2 245.95 215.25 246.05 215.25 M313.95 188.8 L309.55 191.8 308.6 190.75 301.45 191.25 301.25 191.4 297.65 194.4 296.55 195.3 299.15 199.75 300.2 199.85 300.25 199.85 300.6 199.85 300.85 199.85 301.5 199.9 302.1 199.95 303.95 199.95 305.4 203.55 301.55 203.55 298.95 203.4 296.6 203.15 296.3 202.8 296.3 202.75 292.8 196.85 300.45 185.9 312.8 187.6 313.95 188.8 M286.25 220.8 L286.55 220.45 286.35 220.7 286.25 220.8 M279.75 225.8 L278.35 229.7 273.75 234.9 272.4 233.65 272.45 233.6 275.4 229.65 275.1 226.6 275.15 226.6 279.75 225.8 M245.9 219.1 L245.8 216.3 242.65 216.05 242.4 220.95 247.75 221.9 245.9 219.1 M242.05 222.35 L237.45 230.5 247.45 229.75 247.35 222.85 242.05 222.35 M242.2 234.35 L245.5 231.0 237.45 232.35 242.2 234.35" fill="#826b55" fill-rule="evenodd" stroke="none"/>
    <path d="M247.65 213.25 L246.0 215.2 245.95 215.2 241.75 214.8 244.3 211.4 247.65 213.25 M245.9 219.1 L247.75 221.9 242.4 220.95 242.65 216.05 245.8 216.3 245.9 219.1 M242.2 234.35 L237.45 232.35 245.5 231.0 242.2 234.35" fill="#9c8369" fill-rule="evenodd" stroke="none"/>
    <path d="M239.25 239.5 L237.7 233.9 241.2 235.5 242.75 240.6 240.25 239.8 239.25 239.5 240.25 239.8 239.25 239.5 M242.05 222.35 L247.35 222.85 247.45 229.75 237.45 230.5 242.05 222.35 M254.2 237.55 L244.4 235.75 249.2 231.2 253.75 234.3 254.2 237.55" fill="#655443" fill-rule="evenodd" stroke="none"/>
    <path d="M278.5 174.2 L279.2 174.2 282.0 177.8 277.35 181.35 275.05 180.5 269.75 181.55 269.7 175.65 Q271.7 174.95 273.95 174.65 L274.4 174.55 278.5 174.2 M300.85 199.85 L300.6 199.85 300.25 199.85 300.2 199.85 299.15 199.75 296.55 195.3 297.65 194.4 302.85 195.6 305.2 196.1 303.4 196.55 300.85 199.85 M315.05 206.6 L315.05 206.65 309.4 208.35 309.3 208.35 309.65 203.2 314.15 202.45 315.05 206.6 M269.45 243.75 L267.85 239.85 266.35 241.45 259.6 241.6 257.8 239.35 261.3 234.45 258.25 231.65 261.65 224.85 263.9 227.95 268.45 223.4 276.55 221.05 276.6 217.7 272.15 216.15 270.9 209.7 273.0 207.75 276.8 209.65 276.8 208.25 280.8 204.15 283.2 203.9 287.8 213.05 292.1 214.2 286.55 220.45 286.25 220.8 285.85 221.05 279.8 225.6 279.75 225.8 275.15 226.6 275.1 226.6 275.4 229.65 272.45 233.6 272.4 233.65 273.75 234.9 273.65 235.0 273.2 240.0 Q271.3 240.75 270.45 242.1 L269.85 243.15 269.45 243.8 269.45 243.75 269.85 243.15 269.45 243.75 M265.0 179.45 L265.0 177.55 265.75 178.15 265.0 179.45 M251.0 222.1 L249.4 220.55 253.7 218.3 256.6 222.6 251.0 222.1 M272.65 226.55 L269.2 224.35 265.15 229.25 271.6 232.6 273.45 229.95 272.65 226.55 M271.2 237.75 L273.65 235.0 271.2 237.75" fill="#1d1712" fill-rule="evenodd" stroke="none"/>
    <path d="M265.15 184.45 L267.6 186.45 281.15 185.8 277.35 187.9 269.35 187.5 269.35 187.45 269.2 187.6 266.9 190.7 266.2 190.05 265.15 184.45 M281.3 185.45 L286.2 177.25 286.85 178.85 285.4 182.7 281.3 185.45 M309.6 166.15 L310.0 165.9 310.55 166.7 307.75 173.4 307.9 173.3 307.05 175.3 292.7 180.2 293.2 181.65 292.9 182.7 292.35 181.85 292.35 181.8 292.3 181.7 292.25 181.5 292.25 181.4 292.45 180.5 292.1 179.6 305.3 174.15 306.45 174.5 306.55 174.45 306.75 171.75 309.6 166.15 M292.1 181.65 L274.9 194.6 274.85 194.6 259.05 209.1 258.8 209.15 252.35 210.95 251.2 210.4 251.15 210.4 251.1 209.8 251.1 209.5 258.8 207.6 273.8 194.4 291.55 181.25 292.1 181.65 M296.6 203.15 L298.95 203.4 301.55 203.55 305.4 203.55 309.65 203.2 309.3 208.35 298.05 208.0 296.55 203.2 296.6 203.15 M297.65 194.4 L301.25 191.4 302.85 195.6 297.65 194.4 M315.25 190.35 L316.65 195.2 315.05 206.6 314.15 202.45 314.15 202.35 315.25 190.35 M244.2 241.05 L242.65 235.7 249.0 230.0 249.3 221.55 246.95 218.55 253.85 215.7 256.65 219.9 268.95 215.35 268.4 209.3 272.4 205.25 276.4 207.0 280.85 202.8 284.9 201.6 287.95 210.2 295.8 210.05 292.1 214.2 287.8 213.05 283.2 203.9 280.8 204.15 276.8 208.25 276.8 209.65 273.0 207.75 270.9 209.7 272.15 216.15 276.6 217.7 276.55 221.05 268.45 223.4 263.9 227.95 261.65 224.85 258.25 231.65 261.3 234.45 257.8 239.35 259.6 241.6 266.35 241.45 267.85 239.85 269.45 243.75 269.1 244.35 269.45 243.75 269.45 243.8 269.1 244.35 268.8 244.75 261.55 245.8 259.0 243.15 Q257.75 243.9 256.65 244.9 L244.2 241.05 M251.0 222.1 L256.6 222.6 253.7 218.3 249.4 220.55 251.0 222.1 M272.65 226.55 L273.45 229.95 271.6 232.6 265.15 229.25 269.2 224.35 272.65 226.55 M254.2 237.55 L253.75 234.3 249.2 231.2 244.4 235.75 254.2 237.55" fill="#43372c" fill-rule="evenodd" stroke="none"/>
    <path d="M290.25 178.45 L290.25 178.4 290.3 178.5 290.25 178.45 M290.95 175.9 L291.3 176.4 291.15 176.45 290.95 175.9" fill="#bcdad9" fill-rule="evenodd" stroke="none"/>
    <path d="M300.45 185.9 L292.8 196.85 292.05 195.55 297.8 185.55 300.45 185.9 M301.25 191.4 L301.45 191.25 308.6 190.75 309.55 191.8 310.0 192.25 309.75 194.95 309.75 195.05 305.2 196.1 302.85 195.6 301.25 191.4" fill="#6f5b48" fill-rule="evenodd" stroke="none"/>
    <path d="M278.5 174.2 L274.4 174.55 273.95 174.65 Q271.7 174.95 269.7 175.65 L269.75 181.55 269.75 181.85 265.05 181.05 265.0 179.45 265.75 178.15 265.0 177.55 264.95 173.4 Q270.45 171.55 277.05 171.05 L279.35 170.9 278.5 174.2 M291.3 176.4 L309.6 166.15 306.75 171.75 306.55 174.45 306.45 174.5 305.3 174.15 292.1 179.6 291.15 176.45 291.3 176.4" fill="#9c8267" fill-rule="evenodd" stroke="none"/>
    <path d="M290.3 178.5 L290.6 178.0 291.0 177.05 290.95 175.9 291.15 176.45 292.1 179.6 292.45 180.5 292.25 181.4 292.2 181.55 292.2 181.6 292.3 181.7 292.25 181.75 292.1 181.65 291.55 181.25 290.3 178.5" fill="#a68d75" fill-rule="evenodd" stroke="none"/>
    <path d="M309.55 191.8 L313.95 188.8 315.25 190.2 315.25 190.35 314.15 202.35 314.15 202.45 309.65 203.2 305.4 203.55 303.95 199.95 304.75 199.95 309.35 199.35 309.75 195.05 309.75 194.95 310.0 192.25 309.55 191.8" fill="#aa947d" fill-rule="evenodd" stroke="none"/>
    <path d="M284.45 174.9 L286.2 171.3 285.8 167.85 287.2 166.15 M251.1 209.8 L247.65 213.25 246.0 215.2 M296.8 208.9 L297.65 207.95 M310.55 158.15 L313.7 160.6 311.85 186.0 M244.2 241.05 L256.65 244.9 Q257.75 243.9 259.0 243.15 L261.55 245.8 268.8 244.75 269.1 244.35 269.45 243.75 269.85 243.15 270.45 242.1 M292.1 214.2 L295.8 210.05 296.8 208.9 M286.35 220.7 L286.55 220.45 292.1 214.2 M285.85 221.05 L279.8 225.6 279.75 225.8 278.35 229.7 273.75 234.9 273.65 235.0 273.2 240.0 M241.75 214.8 L244.3 211.4 247.65 213.25 M241.75 214.8 L241.25 220.95 235.55 231.55 238.65 239.3 239.25 239.5 240.25 239.8 242.75 240.6 244.2 241.05 M255.25 205.65 L257.9 203.0 M273.65 235.0 L271.2 237.75" fill="none" stroke="#000000" stroke-linecap="round" stroke-linejoin="round" stroke-opacity="0.4" stroke-width="0.6000000000000001"/>
    <path d="M273.2 240.0 Q271.3 240.75 270.45 242.1" fill="none" stroke="#2b0600" stroke-linecap="round" stroke-linejoin="round" stroke-width="0.6000000000000001"/>
  </g>
</svg>
