<?xml version="1.0" encoding="UTF-8" standalone="no"?>
<svg xmlns:xlink="http://www.w3.org/1999/xlink" height="59.35px" width="83.55px" xmlns="http://www.w3.org/2000/svg">
  <g transform="matrix(1.0, 0.0, 0.0, 1.0, 0.4, 0.4)">
    <path d="M24.5 4.75 L32.5 0.0 49.4 0.0 56.2 3.4 56.7 7.15 47.85 12.15 47.8 12.2 38.05 12.85 25.45 11.95 24.5 4.75 M56.4 15.65 L57.75 16.65 58.3 16.5 59.4 16.25 59.7 16.15 67.0 20.95 66.25 22.3 67.15 22.85 71.5 25.7 71.45 26.05 54.75 44.05 54.7 44.05 52.35 38.5 56.75 37.7 Q57.05 35.4 55.95 31.5 L55.6 35.15 54.4 33.65 Q53.25 30.15 54.3 26.15 L52.3 31.05 52.4 31.15 52.25 31.2 51.85 32.15 51.55 31.35 51.8 30.05 Q50.95 26.8 49.3 24.35 50.45 27.4 49.25 30.6 L48.2 28.75 45.5 22.4 53.0 13.65 53.05 13.6 56.4 15.65 M21.6 21.15 L35.4 26.7 20.5 39.65 20.4 39.75 19.9 40.05 11.85 28.35 11.45 27.75 15.9 24.85 21.6 21.15" fill="#40bb74" fill-rule="evenodd" stroke="none"/>
    <path d="M82.25 15.55 L82.75 23.75 77.4 27.95 71.25 29.55 70.7 38.55 55.7 56.0 54.75 44.05 71.45 26.05 71.5 25.7 67.15 22.85 67.1 21.0 77.65 20.2 82.25 15.55 M25.05 18.9 L21.6 21.15 15.9 24.85 14.9 19.85 14.95 19.8 22.6 14.1 25.05 18.9" fill="#184b2d" fill-rule="evenodd" stroke="none"/>
    <path d="M59.15 11.3 L59.1 10.8 67.95 6.5 77.4 6.15 81.9 9.65 82.2 15.15 82.25 15.55 77.65 20.2 67.1 21.0 67.0 20.95 59.7 16.15 59.45 16.0 59.15 11.3" fill="#37a265" fill-rule="evenodd" stroke="none"/>
    <path d="M58.3 16.5 L59.15 11.3 59.45 16.0 59.4 16.25 58.3 16.5 M33.35 58.55 L23.2 50.7 20.15 40.85 18.5 48.25 17.85 47.75 11.1 40.45 11.4 29.55 11.45 27.8 11.85 28.35 19.9 40.05 20.2 40.45 33.55 46.3 33.55 46.4 33.35 58.55 M8.05 28.95 L1.55 23.95 0.2 16.85 0.4 16.5 7.1 20.5 8.05 28.95 M21.1 7.35 L23.2 10.45 24.5 4.75 25.45 11.95 24.45 14.8 28.8 16.45 25.05 18.9 22.6 14.1 21.1 7.35 M67.1 21.0 L67.15 22.85 66.25 22.3 67.0 20.95 67.1 21.0" fill="#29824c" fill-rule="evenodd" stroke="none"/>
    <path d="M56.7 7.15 L56.4 15.65 53.05 13.6 52.55 13.3 32.3 14.15 28.8 16.45 24.45 14.8 25.45 11.95 38.05 12.85 47.8 12.2 47.85 12.2 47.85 12.15 56.7 7.15 M11.4 29.55 L8.05 28.95 7.1 20.5 14.9 19.8 14.95 19.8 14.9 19.85 15.9 24.85 11.45 27.75 11.45 27.8 11.4 29.55 M54.7 44.1 L54.7 44.05 54.7 44.1" fill="#1d5a35" fill-rule="evenodd" stroke="none"/>
    <path d="M0.2 16.85 L0.4 16.45 0.4 16.5 0.2 16.85 M47.8 12.2 L47.85 12.15 47.85 12.2 47.8 12.2 M11.85 28.35 L11.45 27.8 11.45 27.75 11.85 28.35" fill="#66cc33" fill-rule="evenodd" stroke="none"/>
    <path d="M0.4 16.45 L0.4 16.35 0.4 16.5 0.4 16.45 M53.0 13.65 L52.55 13.3 53.05 13.6 53.0 13.65 M35.4 26.7 L45.5 22.4 48.2 28.75 35.4 26.7" fill="#b5fac7" fill-rule="evenodd" stroke="none"/>
    <path d="M0.4 16.35 L0.0 12.0 5.8 7.2 14.1 6.25 21.1 7.35 22.6 14.1 14.95 19.8 14.9 19.8 7.1 20.5 0.4 16.5 0.4 16.35 M52.55 13.3 L53.0 13.65 45.5 22.4 35.4 26.7 21.6 21.15 25.05 18.9 28.8 16.45 32.3 14.15 52.55 13.3 M52.35 38.5 L54.7 44.05 54.7 44.1 54.65 44.1 33.85 46.4 33.55 46.3 20.2 40.45 19.9 40.05 20.4 39.75 20.5 39.65 35.4 26.7 48.2 28.75 49.25 30.6 48.0 32.25 46.45 32.65 Q44.9 31.55 45.15 29.4 44.35 30.8 44.75 32.85 L44.75 33.1 44.6 33.1 41.45 36.95 45.3 39.7 52.35 38.5 M40.3 42.9 L43.65 40.7 Q39.1 39.65 40.0 37.3 L37.9 41.4 40.3 42.9" fill="#70ce99" fill-rule="evenodd" stroke="none"/>
    <path d="M55.7 56.0 L55.55 56.2 33.35 58.55 33.55 46.4 33.85 46.4 54.65 44.1 54.7 44.1 54.7 44.05 54.75 44.05 55.7 56.0 M23.2 50.7 L18.5 48.25 20.15 40.85 23.2 50.7" fill="#21693e" fill-rule="evenodd" stroke="none"/>
    <path d="M24.5 4.75 L32.5 0.0 49.4 0.0 56.2 3.4 56.7 7.15 56.4 15.65 57.75 16.65 58.3 16.5 59.15 11.3 59.1 10.8 67.95 6.5 77.4 6.15 81.9 9.65 82.2 15.15 M82.75 23.75 L77.4 27.95 71.25 29.55 70.7 38.55 55.7 56.0 55.55 56.2 33.35 58.55 23.2 50.7 18.5 48.25 17.85 47.75 11.1 40.45 11.4 29.55 8.05 28.95 1.55 23.95 0.2 16.85 M0.4 16.35 L0.0 12.0 5.8 7.2 14.1 6.25 21.1 7.35 23.2 10.45 24.5 4.75" fill="none" stroke="#000000" stroke-linecap="round" stroke-linejoin="round" stroke-opacity="0.6" stroke-width="0.8"/>
    <path d="M52.4 31.15 L52.3 31.05 54.3 26.15 Q53.25 30.15 54.4 33.65 L55.6 35.15 55.95 31.5 Q57.05 35.4 56.75 37.7 L45.3 39.7 41.45 36.95 44.6 33.1 44.75 33.1 44.75 32.85 Q44.35 30.8 45.15 29.4 44.9 31.55 46.45 32.65 L48.0 32.25 49.25 30.6 Q50.45 27.4 49.3 24.35 50.95 26.8 51.8 30.05 L51.55 31.35 51.85 32.15 52.25 31.2 52.4 31.15 M40.3 42.9 L37.9 41.4 40.0 37.3 Q39.1 39.65 43.65 40.7 L40.3 42.9" fill="#008040" fill-rule="evenodd" stroke="none"/>
  </g>
</svg>
