<?xml version="1.0" encoding="UTF-8" standalone="no"?>
<svg xmlns:xlink="http://www.w3.org/1999/xlink" height="80.5px" width="82.35px" xmlns="http://www.w3.org/2000/svg">
  <g transform="matrix(1.0, 0.0, 0.0, 1.0, -212.1, -13.0)">
    <path d="M245.0 24.4 L248.1 20.15 248.25 20.0 248.45 19.8 M252.1 15.0 L253.25 13.5 255.55 16.8 M265.45 31.9 L267.75 35.75 268.55 37.05 M271.5 42.25 L274.4 47.6 M258.95 21.65 L262.25 26.8 M277.25 52.95 L280.0 58.35 M258.45 92.95 L252.45 93.0 M270.45 92.25 L264.45 92.7 M282.25 90.7 L276.35 91.6 M292.65 85.5 L293.95 88.4 288.15 89.65 M287.8 74.45 L290.25 79.95 M282.7 63.85 L284.8 68.1 285.2 68.9 M238.35 34.4 L241.6 29.35 M232.15 44.8 L234.4 40.9 235.2 39.55 M226.5 55.35 L229.25 50.1 M221.35 66.15 L223.85 60.7 M216.75 77.1 L219.0 71.65 M212.6 88.4 L214.6 82.75 M222.45 90.35 L216.45 89.25 M234.45 92.0 L228.45 91.3 M246.45 92.85 L240.45 92.5" fill="none" stroke="#000000" stroke-linecap="round" stroke-linejoin="round" stroke-width="1.0"/>
  </g>
</svg>
