<?xml version="1.0" encoding="UTF-8" standalone="no"?>
<svg xmlns:xlink="http://www.w3.org/1999/xlink" height="99.5px" width="91.85px" xmlns="http://www.w3.org/2000/svg">
  <g transform="matrix(1.0, 0.0, 0.0, 1.0, 0.5, 0.5)">
    <path d="M58.05 40.25 L75.0 67.45 84.4 76.8 86.1 79.4 90.85 88.95 90.85 95.6 83.55 91.7 83.75 91.8 71.3 73.15 Q73.85 76.3 75.4 77.3 80.9 80.95 84.95 85.45 83.5 82.4 81.35 79.6 76.45 73.3 70.45 67.55 L70.45 67.9 57.05 49.9 61.0 45.6 58.05 40.25" fill="#9c8c73" fill-rule="evenodd" stroke="none"/>
    <path d="M90.85 95.6 L88.2 98.5 84.45 98.3 80.9 94.1 68.4 70.0 54.6 52.75 54.5 52.6 53.1 50.9 59.1 44.85 59.05 44.85 Q59.6 44.45 58.05 42.35 L61.0 45.6 57.05 49.9 70.45 67.9 70.45 67.55 Q76.45 73.3 81.35 79.6 83.5 82.4 84.95 85.45 80.9 80.95 75.4 77.3 73.85 76.3 71.3 73.15 L83.75 91.8 83.55 91.7 90.85 95.6 M50.3 47.4 L50.1 47.1 50.5 46.5 50.3 47.4" fill="#5a4e39" fill-rule="evenodd" stroke="none"/>
    <path d="M50.1 47.1 L50.1 57.7 55.3 74.05 58.65 78.25 50.5 79.45 49.8 79.55 49.85 79.45 45.25 80.15 46.5 77.75 46.3 77.0 Q46.25 76.6 46.6 76.3 L47.3 75.65 47.7 75.4 45.2 72.95 45.5 72.55 45.45 71.05 Q45.7 67.1 45.5 63.15 L45.0 62.55 Q43.1 60.6 40.45 59.95 L42.05 59.05 Q45.35 57.0 46.25 52.9 46.75 50.55 46.35 48.5 L45.75 47.95 41.45 45.95 Q39.3 44.95 37.95 43.35 L36.45 42.5 35.7 41.8 35.15 41.8 33.9 40.25 Q34.0 39.15 34.45 38.25 L35.85 35.1 Q36.7 31.75 36.55 28.25 L36.5 22.25 36.65 22.55 38.25 25.15 49.7 25.15 53.75 19.3 66.15 19.3 66.15 19.55 Q63.75 20.6 62.1 22.6 61.9 22.85 61.7 22.9 L61.3 22.95 59.6 23.3 Q59.2 23.4 58.95 23.65 L58.65 24.05 58.95 24.25 59.85 25.05 Q60.25 25.55 59.6 25.85 L58.95 26.15 58.65 26.35 58.2 26.65 56.0 28.3 55.9 28.5 Q55.9 29.0 56.2 29.4 L56.45 29.65 56.9 29.7 Q57.9 29.5 58.8 29.0 L58.95 28.95 59.3 28.75 60.65 28.8 60.85 29.05 61.5 31.2 61.6 31.55 61.7 33.75 61.7 36.6 61.7 37.45 61.8 37.45 Q62.95 36.85 63.35 35.75 L63.85 33.75 63.85 33.55 63.9 32.55 63.9 30.45 63.85 29.2 63.8 28.25 63.85 27.55 Q63.9 27.1 64.35 26.95 L65.15 26.35 65.6 26.0 66.9 25.15 67.55 24.7 69.0 23.9 70.1 23.4 70.8 23.15 73.65 22.4 75.15 22.1 63.25 40.25 58.05 40.25 58.05 41.45 57.35 40.65 57.25 40.7 57.35 40.25 Q57.5 39.4 56.85 38.9 L56.1 39.0 55.3 39.5 53.3 40.95 54.15 39.75 55.35 38.55 55.9 37.3 55.85 34.8 Q55.7 33.5 54.65 32.65 L53.75 32.25 Q51.45 31.65 49.25 32.3 49.4 31.75 49.2 31.25 L48.55 30.2 Q47.75 29.25 46.5 29.05 L45.75 29.35 Q44.9 29.75 43.95 29.75 L44.1 29.15 44.1 28.15 43.9 27.75 42.3 27.1 41.95 27.4 Q40.2 28.7 39.25 30.7 38.55 32.2 38.55 33.95 L38.55 37.9 Q38.65 40.15 39.8 42.0 L40.85 43.4 Q42.75 45.35 45.5 45.3 43.45 42.1 42.15 38.55 41.8 37.7 41.9 36.75 L42.05 33.95 Q42.05 33.5 42.35 33.8 42.35 37.15 44.15 40.1 L45.45 41.95 Q45.9 42.55 46.6 42.6 L46.05 40.8 45.4 39.4 44.95 37.85 44.75 36.2 Q44.6 35.35 45.15 34.75 46.85 34.35 47.2 36.2 L47.15 36.85 Q46.85 37.55 47.1 38.15 L48.05 38.1 49.55 36.75 Q50.1 35.7 51.25 35.1 L51.6 34.95 52.25 34.95 53.0 35.4 Q53.5 35.75 53.4 36.35 53.2 37.6 52.2 38.45 L50.45 39.85 49.75 40.5 Q49.2 41.4 49.6 42.25 49.8 42.7 49.65 43.2 L49.1 43.55 48.6 43.9 47.9 44.8 Q47.7 45.25 48.15 45.6 48.8 46.2 49.7 45.9 L50.8 45.65 50.5 46.5 50.1 47.1 M25.9 14.2 Q25.65 13.95 25.35 14.0 24.55 14.3 24.0 15.1 L24.0 15.4 24.05 15.6 Q24.2 15.85 24.55 15.9 L24.85 15.8 Q25.95 15.35 25.95 14.25 L25.9 14.2 M23.85 14.8 L24.0 14.4 Q24.7 13.4 26.1 13.65 L26.2 13.7 Q26.7 13.6 27.0 14.0 L27.1 14.25 27.1 14.5 27.0 14.8 Q26.8 16.0 26.05 17.05 L25.75 17.25 24.8 17.35 Q24.45 17.35 24.25 17.05 23.7 16.2 23.8 15.05 L23.85 14.8 M20.7 21.85 Q21.0 22.45 20.85 23.15 L20.5 24.35 20.25 24.95 19.9 25.55 Q19.45 26.15 18.65 26.05 L18.0 25.9 Q17.1 25.6 16.95 24.75 16.85 23.95 17.25 23.35 L17.7 22.8 Q18.4 21.8 19.35 21.1 20.3 20.95 20.7 21.85 M14.9 34.8 L14.95 35.0 15.2 35.25 Q16.4 35.2 16.15 33.95 L16.1 33.9 15.7 33.7 Q15.4 33.75 15.25 33.95 L15.15 34.15 Q14.95 34.45 14.9 34.8 M18.6 24.1 Q18.85 24.45 19.25 24.4 L19.4 24.25 Q19.9 23.6 19.65 22.8 L19.6 22.7 19.2 22.5 19.0 22.65 Q18.45 23.25 18.6 24.1 M14.3 36.8 Q13.5 36.15 13.65 35.1 13.85 33.4 15.7 32.4 L16.1 32.5 16.65 32.85 17.15 33.65 Q17.45 34.8 16.9 35.75 L16.6 36.35 Q16.25 37.0 15.6 37.1 14.8 37.2 14.3 36.8 M28.45 67.65 L29.55 67.95 30.0 68.4 Q30.45 69.2 30.4 70.15 L30.2 71.25 29.95 71.65 29.4 71.9 28.7 72.05 Q27.7 72.15 27.05 71.4 L26.75 70.95 Q26.3 69.9 26.6 68.75 27.05 67.4 28.45 67.65 M28.55 68.9 Q27.9 69.6 28.35 70.5 L29.05 70.55 29.15 70.3 29.15 69.05 29.1 69.0 28.7 68.8 Q28.65 68.8 28.55 68.9 M36.85 73.4 Q37.85 72.95 39.3 73.8 40.1 74.95 39.6 76.45 39.35 77.2 38.5 77.15 L37.8 77.05 Q36.55 76.65 36.45 75.35 L36.3 74.5 Q36.2 73.7 36.85 73.4 M38.4 74.5 L38.3 74.45 37.95 74.25 Q37.65 74.25 37.45 74.5 L37.4 74.75 Q37.25 75.6 37.85 76.2 38.4 76.4 38.55 75.85 L38.55 75.7 38.4 74.5 M48.65 76.45 L48.6 76.35 Q48.45 76.05 48.15 76.05 47.55 76.1 47.35 76.65 47.3 77.15 47.85 77.25 48.65 77.15 48.65 76.45" fill="#575d60" fill-rule="evenodd" stroke="none"/>
    <path d="M58.65 78.25 L62.0 82.45 58.4 85.6 58.15 85.85 58.15 85.8 Q58.1 84.4 56.7 84.3 L56.35 84.3 52.6 84.3 50.1 82.6 50.5 79.45 58.65 78.25 M7.0 11.25 L11.15 6.3 11.35 6.05 26.0 0.0 26.5 7.5 23.95 8.1 19.25 9.1 19.2 9.1 11.35 6.1 16.4 12.15 13.5 15.3 7.0 11.25 M66.15 19.55 L67.05 19.3 76.95 19.3 75.15 22.1 73.65 22.4 70.8 23.15 70.1 23.4 69.0 23.9 67.55 24.7 66.9 25.15 65.6 26.0 65.15 26.35 64.35 26.95 Q63.9 27.1 63.85 27.55 L63.8 28.25 63.85 29.2 63.9 30.45 63.9 32.55 63.85 33.55 63.85 33.75 63.35 35.75 Q62.95 36.85 61.8 37.45 L61.7 37.45 61.7 36.6 61.7 33.75 61.6 31.55 61.5 31.2 60.85 29.05 60.65 28.8 59.3 28.75 58.95 28.95 58.8 29.0 Q57.9 29.5 56.9 29.7 L56.45 29.65 56.2 29.4 Q55.9 29.0 55.9 28.5 L56.0 28.3 58.2 26.65 58.65 26.35 58.95 26.15 59.6 25.85 Q60.25 25.55 59.85 25.05 L58.95 24.25 58.65 24.05 58.95 23.65 Q59.2 23.4 59.6 23.3 L61.3 22.95 61.7 22.9 Q61.9 22.85 62.1 22.6 63.75 20.6 66.15 19.55 M50.8 45.65 L49.7 45.9 Q48.8 46.2 48.15 45.6 47.7 45.25 47.9 44.8 L48.6 43.9 49.1 43.55 49.65 43.2 Q49.8 42.7 49.6 42.25 49.2 41.4 49.75 40.5 L50.45 39.85 52.2 38.45 Q53.2 37.6 53.4 36.35 53.5 35.75 53.0 35.4 L52.25 34.95 51.6 34.95 51.25 35.1 Q50.1 35.7 49.55 36.75 L48.05 38.1 47.1 38.15 Q46.85 37.55 47.15 36.85 L47.2 36.2 Q46.85 34.35 45.15 34.75 44.6 35.35 44.75 36.2 L44.95 37.85 45.4 39.4 46.05 40.8 46.6 42.6 Q45.9 42.55 45.45 41.95 L44.15 40.1 Q42.35 37.15 42.35 33.8 42.05 33.5 42.05 33.95 L41.9 36.75 Q41.8 37.7 42.15 38.55 43.45 42.1 45.5 45.3 42.75 45.35 40.85 43.4 L39.8 42.0 Q38.65 40.15 38.55 37.9 L38.55 33.95 Q38.55 32.2 39.25 30.7 40.2 28.7 41.95 27.4 L42.3 27.1 43.9 27.75 44.1 28.15 44.1 29.15 43.95 29.75 Q44.9 29.75 45.75 29.35 L46.5 29.05 Q47.75 29.25 48.55 30.2 L49.2 31.25 Q49.4 31.75 49.25 32.3 51.45 31.65 53.75 32.25 L54.65 32.65 Q55.7 33.5 55.85 34.8 L55.9 37.3 55.35 38.55 54.15 39.75 53.3 40.95 55.3 39.5 56.1 39.0 56.85 38.9 Q57.5 39.4 57.35 40.25 L57.25 40.7 57.2 41.05 56.8 42.0 56.45 42.3 Q55.75 42.75 55.2 43.35 53.8 44.95 51.75 45.4 L51.05 45.6 50.8 45.65 M25.9 14.2 L25.95 14.25 Q25.95 15.35 24.85 15.8 L24.55 15.9 Q24.2 15.85 24.05 15.6 L24.0 15.4 24.0 15.1 Q24.55 14.3 25.35 14.0 25.65 13.95 25.9 14.2 M14.0 56.75 L18.5 66.25 20.55 68.7 14.6 67.5 9.85 57.95 14.0 56.75 M18.6 24.1 Q18.45 23.25 19.0 22.65 L19.2 22.5 19.6 22.7 19.65 22.8 Q19.9 23.6 19.4 24.25 L19.25 24.4 Q18.85 24.45 18.6 24.1 M14.9 34.8 Q14.95 34.45 15.15 34.15 L15.25 33.95 Q15.4 33.75 15.7 33.7 L16.1 33.9 16.15 33.95 Q16.4 35.2 15.2 35.25 L14.95 35.0 14.9 34.8 M28.55 68.9 Q28.65 68.8 28.7 68.8 L29.1 69.0 29.15 69.05 29.15 70.3 29.05 70.55 28.35 70.5 Q27.9 69.6 28.55 68.9 M38.4 74.5 L38.55 75.7 38.55 75.85 Q38.4 76.4 37.85 76.2 37.25 75.6 37.4 74.75 L37.45 74.5 Q37.65 74.25 37.95 74.25 L38.3 74.45 38.4 74.5 M58.4 85.6 L58.15 85.8 58.4 85.6 M48.65 76.45 Q48.65 77.15 47.85 77.25 47.3 77.15 47.35 76.65 47.55 76.1 48.15 76.05 48.45 76.05 48.6 76.35 L48.65 76.45" fill="#e7e7de" fill-rule="evenodd" stroke="none"/>
    <path d="M53.1 50.9 L50.3 47.4 50.5 46.5 50.8 45.65 51.05 45.6 51.75 45.4 Q53.8 44.95 55.2 43.35 55.75 42.75 56.45 42.3 L56.8 42.0 57.2 41.05 57.25 40.7 57.35 40.65 58.05 41.45 58.05 40.25 61.0 45.6 58.05 42.35 Q59.6 44.45 59.05 44.85 L59.1 44.85 53.1 50.9 M59.05 44.85 L58.05 42.35 58.05 41.45 58.05 42.35 59.05 44.85" fill="#3a3025" fill-rule="evenodd" stroke="none"/>
    <path d="M33.8 17.9 L36.3 22.0 36.5 22.25 36.55 28.25 Q36.7 31.75 35.85 35.1 L34.45 38.25 Q34.0 39.15 33.9 40.25 L35.15 41.8 35.7 41.8 36.45 42.5 37.95 43.35 Q39.3 44.95 41.45 45.95 L45.75 47.95 46.35 48.5 Q46.75 50.55 46.25 52.9 45.35 57.0 42.05 59.05 L40.45 59.95 Q43.1 60.6 45.0 62.55 L45.5 63.15 Q45.7 67.1 45.45 71.05 L45.5 72.55 45.2 72.95 42.55 70.3 42.55 65.85 34.15 58.3 42.0 58.3 45.9 49.9 39.5 46.25 28.3 40.95 33.75 30.6 33.8 17.9" fill="#72899c" fill-rule="evenodd" stroke="none"/>
    <path d="M58.15 85.85 L57.8 86.1 58.15 85.8 58.15 85.85 M56.35 84.3 Q57.8 84.4 57.9 85.8 L56.25 87.35 Q42.2 90.7 33.95 87.75 L23.65 84.25 Q16.25 78.15 10.65 70.45 4.9 62.55 2.35 53.3 -1.65 39.05 1.1 25.05 2.6 17.4 7.0 11.25 L13.5 15.3 16.4 12.15 11.35 6.1 19.2 9.1 19.25 9.1 23.95 8.1 24.65 9.1 18.5 15.3 Q11.05 27.35 10.9 41.8 10.8 49.05 13.55 55.7 L14.0 56.75 9.85 57.95 14.6 67.5 20.55 68.7 26.75 76.15 Q33.8 79.1 40.3 79.95 L44.6 80.2 45.25 80.15 49.85 79.45 49.8 79.55 49.65 82.6 52.3 84.3 52.6 84.3 56.35 84.3" fill="#ffffff" fill-rule="evenodd" stroke="none"/>
    <path d="M24.65 9.1 L32.05 7.5 32.05 14.5 30.55 14.95 29.15 15.8 28.55 16.9 27.75 17.15 Q25.25 24.6 22.2 30.05 L21.3 32.25 22.15 34.25 Q22.15 34.95 21.5 35.55 L20.75 36.2 20.2 37.6 19.9 41.2 17.7 41.75 16.25 42.9 16.0 47.35 Q19.45 45.85 24.1 46.55 L23.25 52.95 Q25.8 53.9 28.85 53.5 L30.8 52.4 Q28.35 57.35 22.15 60.2 L21.85 60.25 Q17.25 58.65 13.55 55.7 10.8 49.05 10.9 41.8 11.05 27.35 18.5 15.3 L24.65 9.1 M23.8 15.05 Q23.7 16.2 24.25 17.05 24.45 17.35 24.8 17.35 L25.75 17.25 26.05 17.05 Q26.8 16.0 27.0 14.8 L27.1 14.5 27.1 14.25 27.0 14.0 Q26.7 13.6 26.2 13.7 L26.1 13.65 Q24.7 13.4 24.0 14.4 L23.85 14.8 23.7 14.95 23.8 15.05 M20.7 21.85 Q20.3 20.95 19.35 21.1 18.4 21.8 17.7 22.8 L17.25 23.35 Q16.85 23.95 16.95 24.75 17.1 25.6 18.0 25.9 L18.65 26.05 Q19.45 26.15 19.9 25.55 L20.25 24.95 20.5 24.35 20.85 23.15 Q21.0 22.45 20.7 21.85 M14.3 36.8 Q14.8 37.2 15.6 37.1 16.25 37.0 16.6 36.35 L16.9 35.75 Q17.45 34.8 17.15 33.65 L16.65 32.85 16.1 32.5 15.7 32.4 Q13.85 33.4 13.65 35.1 13.5 36.15 14.3 36.8" fill="#7b8c94" fill-rule="evenodd" stroke="none"/>
    <path d="M32.05 14.5 L32.05 15.1 33.8 17.9 33.75 30.6 28.3 40.95 39.5 46.25 45.9 49.9 42.0 58.3 34.15 58.3 42.55 65.85 42.55 70.3 45.2 72.95 47.7 75.4 47.3 75.65 46.6 76.3 Q46.25 76.6 46.3 77.0 L46.5 77.75 45.25 80.15 44.6 80.2 40.3 79.95 Q33.8 79.1 26.75 76.15 L20.55 68.7 18.5 66.25 14.0 56.75 13.55 55.7 Q17.25 58.65 21.85 60.25 L22.15 60.2 Q28.35 57.35 30.8 52.4 L28.85 53.5 Q25.8 53.9 23.25 52.95 L24.1 46.55 Q19.45 45.85 16.0 47.35 L16.25 42.9 17.7 41.75 19.9 41.2 20.2 37.6 20.75 36.2 21.5 35.55 Q22.15 34.95 22.15 34.25 L21.3 32.25 22.2 30.05 Q25.25 24.6 27.75 17.15 L28.55 16.9 29.15 15.8 30.55 14.95 32.05 14.5 M28.45 67.65 Q27.05 67.4 26.6 68.75 26.3 69.9 26.75 70.95 L27.05 71.4 Q27.7 72.15 28.7 72.05 L29.4 71.9 29.95 71.65 30.2 71.25 30.4 70.15 Q30.45 69.2 30.0 68.4 L29.55 67.95 28.45 67.65 M36.85 73.4 Q36.2 73.7 36.3 74.5 L36.45 75.35 Q36.55 76.65 37.8 77.05 L38.5 77.15 Q39.35 77.2 39.6 76.45 40.1 74.95 39.3 73.8 37.85 72.95 36.85 73.4" fill="#adbac6" fill-rule="evenodd" stroke="none"/>
    <path d="M90.85 95.6 L88.2 98.5 84.45 98.3 80.9 94.1 68.4 70.0 54.6 52.75 54.5 52.6 53.1 50.9 50.3 47.4 50.1 47.1 50.1 57.7 55.3 74.05 58.65 78.25 62.0 82.45 58.4 85.6 58.15 85.8 M57.9 85.8 L56.25 87.35 Q42.2 90.7 33.95 87.75 L23.65 84.25 Q16.25 78.15 10.65 70.45 4.9 62.55 2.35 53.3 -1.65 39.05 1.1 25.05 2.6 17.4 7.0 11.25 L11.15 6.3 M11.35 6.05 L26.0 0.0 26.5 7.5 M32.05 7.5 L32.05 14.5 32.05 15.1 33.8 17.9 36.3 22.0 36.5 22.25 36.65 22.55 38.25 25.15 49.7 25.15 53.75 19.3 66.15 19.3 66.15 19.55 67.05 19.3 76.95 19.3 75.15 22.1 63.25 40.25 58.05 40.25 75.0 67.45 84.4 76.8 86.1 79.4 90.85 88.95 90.85 95.6 M59.05 44.85 L59.1 44.85 M61.8 37.45 L61.7 37.45 M58.05 41.45 L58.05 40.25 M58.05 41.45 L58.05 42.35 59.05 44.85 M23.85 14.8 L23.8 15.05 23.7 14.95 23.85 14.8 Z" fill="none" stroke="#000000" stroke-linecap="round" stroke-linejoin="round" stroke-opacity="0.5019608" stroke-width="1.0"/>
  </g>
</svg>
