<?xml version="1.0" encoding="UTF-8" standalone="no"?>
<svg xmlns:xlink="http://www.w3.org/1999/xlink" height="64.9px" width="67.0px" xmlns="http://www.w3.org/2000/svg">
  <g transform="matrix(1.0, 0.0, 0.0, 1.0, 0.0, 0.0)">
    <path d="M56.0 44.9 Q56.3 45.2 57.05 45.15 60.95 44.9 64.85 46.05 L65.2 46.25 65.55 46.5 Q66.5 47.1 66.2 47.85 L66.0 48.1 65.5 48.35 62.2 48.7 59.0 48.9 58.2 49.15 57.75 49.35 Q57.15 49.65 57.4 50.4 L57.8 51.3 58.0 51.6 Q59.0 52.2 60.4 52.35 L61.4 52.4 Q62.4 52.4 63.35 53.0 L64.45 53.6 Q65.75 54.1 66.4 55.25 67.15 56.6 66.95 57.95 L66.75 58.35 Q65.15 60.0 62.2 59.95 L60.6 59.95 60.55 60.9 Q60.4 61.65 59.8 61.85 L57.6 62.2 50.0 62.3 48.8 62.2 47.6 62.0 Q45.05 61.65 43.0 60.3 L42.6 59.85 Q42.2 58.65 43.2 58.1 M60.6 59.95 Q60.4 58.3 58.45 57.75 L57.35 57.4 56.0 57.05 52.4 56.8 51.2 56.75 Q49.2 56.55 47.35 57.25 L46.4 57.55 Q45.9 57.75 45.9 58.5 45.9 59.3 46.35 59.8 L47.0 60.3 Q50.6 61.9 54.6 61.75 L55.8 61.65 57.75 61.0 57.95 60.7 Q58.15 60.2 57.75 59.9 L57.65 59.85 57.15 59.85 55.8 59.3 52.0 58.75 Q50.8 58.7 50.4 59.3" fill="none" stroke="#999804" stroke-linecap="round" stroke-linejoin="round" stroke-width="0.05"/>
    <path d="M38.05 2.05 L37.75 1.9 37.25 1.85 37.4 1.6 37.55 1.7 38.05 2.05 M21.0 20.2 L21.15 20.25 21.1 20.3 20.95 20.4 21.0 20.2" fill="#9da5bb" fill-rule="evenodd" stroke="none"/>
    <path d="M37.75 1.9 L38.05 2.05 Q36.0 3.3 34.85 4.4 33.3 5.85 30.75 9.9 L27.25 15.4 26.7 15.3 27.4 14.2 27.0 13.7 27.55 13.95 30.35 9.6 Q33.0 5.4 34.45 4.15 35.55 3.15 37.5 2.05 L37.75 1.9 M37.4 1.6 L37.25 1.85 Q32.95 1.5 29.9 6.1 L21.15 20.25 21.0 20.2 18.2 22.9 Q17.85 23.2 17.6 23.45 L17.4 23.3 Q17.9 20.85 16.35 19.35 L14.65 17.45 Q17.3 17.7 19.4 15.15 L19.6 15.05 20.5 15.1 Q19.75 14.6 20.1 14.35 L21.8 11.75 Q21.95 11.4 23.15 12.3 L22.1 11.3 22.3 11.0 22.3 10.9 23.65 8.85 Q28.35 1.05 31.8 0.0 L32.4 0.05 Q33.9 -0.2 37.4 1.6 M26.45 15.7 L26.9 15.95 26.7 16.35 Q23.95 21.35 25.25 22.75 23.45 21.35 26.25 16.1 L26.45 15.7" fill="#c4dcdf" fill-rule="evenodd" stroke="none"/>
    <path d="M37.25 1.85 L37.75 1.9 37.5 2.05 Q35.55 3.15 34.45 4.15 33.0 5.4 30.35 9.6 L27.55 13.95 27.0 13.7 27.4 14.2 26.7 15.3 25.45 15.05 26.45 15.7 26.25 16.1 Q23.45 21.35 25.25 22.75 L25.35 22.9 Q22.75 22.35 19.85 24.8 L19.7 24.7 Q20.0 23.25 21.1 20.3 L21.15 20.25 29.9 6.1 Q32.95 1.5 37.25 1.85" fill="#62a3ac" fill-rule="evenodd" stroke="none"/>
    <path d="M31.8 0.0 Q28.35 1.05 23.65 8.85 L22.3 10.9 22.3 11.0 22.1 11.3 23.15 12.3 Q21.95 11.4 21.8 11.75 L20.1 14.35 Q19.75 14.6 20.5 15.1 L19.6 15.05 19.4 15.15 Q17.3 17.7 14.65 17.45 L14.5 17.35 Q17.0 17.4 19.95 12.9 L22.4 8.9 Q27.85 0.2 31.8 0.0" fill="#fbfdfd" fill-rule="evenodd" stroke="none"/>
    <path d="M17.6 23.45 Q17.85 23.2 18.2 22.9 L21.0 20.2 20.95 20.4 Q20.0 22.9 19.65 24.65 L19.6 24.7 Q19.2 26.5 19.3 27.45 L14.95 24.7 16.85 24.05 17.6 23.45 M7.15 47.5 L7.15 47.65 5.45 46.55 5.55 46.5 5.45 46.55 2.45 44.7 2.45 44.65 5.55 46.5 7.15 47.5" fill="#3f2c39" fill-rule="evenodd" stroke="none"/>
    <path d="M19.3 27.45 L20.1 27.9 Q21.15 28.75 22.0 30.1 L22.4 30.8 21.8 31.85 19.2 30.25 12.75 26.25 11.85 25.65 12.5 24.65 Q12.7 24.45 12.85 24.4 13.65 24.1 14.95 24.7 L19.3 27.45 M7.15 47.65 L12.75 51.2 12.2 52.2 Q11.1 52.35 6.4 50.0 L1.1 46.75 Q-0.25 45.75 0.05 44.55 L0.7 43.65 2.45 44.7 5.45 46.55 7.15 47.65" fill="#a1664c" fill-rule="evenodd" stroke="none"/>
    <path d="M17.85 30.4 Q16.35 32.2 14.95 34.15 11.75 38.45 9.25 43.4 L7.65 46.8 6.7 46.25 6.05 45.8 Q6.85 44.2 7.8 42.55 10.7 37.65 14.1 32.8 L13.4 31.95 15.3 28.85 13.4 31.95 12.65 30.75 11.95 30.1 13.15 27.45 14.1 28.0 12.65 30.75 14.1 28.0 15.3 28.85 16.95 29.85 Q12.2 35.95 8.4 42.9 L6.7 46.25 8.4 42.9 Q12.2 35.95 16.95 29.85 L17.85 30.4" fill="#656401" fill-rule="evenodd" stroke="none"/>
    <path d="M19.2 30.25 L18.75 31.0 17.85 30.4 16.95 29.85 15.3 28.85 14.1 28.0 13.15 27.45 12.25 26.9 12.75 26.25 19.2 30.25 M7.65 46.8 L8.55 47.3 8.05 48.05 7.15 47.5 5.55 46.5 6.05 45.8 5.55 46.5 2.45 44.65 1.65 44.05 2.1 43.3 2.95 43.9 3.8 44.4 5.1 45.25 6.05 45.8 6.7 46.25 7.65 46.8" fill="#452b21" fill-rule="evenodd" stroke="none"/>
    <path d="M2.95 43.9 L5.2 41.05 Q9.1 35.95 11.95 30.1 L12.65 30.75 Q9.45 36.3 5.85 41.45 L3.8 44.4 2.95 43.9" fill="#d5d304" fill-rule="evenodd" stroke="none"/>
    <path d="M13.4 31.95 L14.1 32.8 Q10.7 37.65 7.8 42.55 6.85 44.2 6.05 45.8 L5.1 45.25 13.4 31.95" fill="#9b9b02" fill-rule="evenodd" stroke="none"/>
    <path d="M12.65 30.75 L13.4 31.95 5.1 45.25 3.8 44.4 5.85 41.45 Q9.45 36.3 12.65 30.75" fill="#abab03" fill-rule="evenodd" stroke="none"/>
    <path d="M37.75 1.9 L38.05 2.05 37.55 1.7 37.4 1.6 Q33.9 -0.2 32.4 0.05 L31.8 0.0 Q27.85 0.2 22.4 8.9 L19.95 12.9 Q17.0 17.4 14.5 17.35 L14.65 17.45 16.35 19.35 Q17.9 20.85 17.4 23.3 L17.6 23.45 Q17.85 23.2 18.2 22.9 L21.0 20.2 20.95 20.4 Q20.0 22.9 19.65 24.65 L19.6 24.7 Q19.2 26.5 19.3 27.45 L20.1 27.9 Q21.15 28.75 22.0 30.1 L22.4 30.8 21.8 31.85 19.2 30.25 18.75 31.0 17.85 30.4 Q16.35 32.2 14.95 34.15 11.75 38.45 9.25 43.4 L7.65 46.8 8.55 47.3 8.05 48.05 7.15 47.5 7.15 47.65 12.75 51.2 12.2 52.2 Q11.1 52.35 6.4 50.0 L1.1 46.75 Q-0.25 45.75 0.05 44.55 L0.7 43.65 2.45 44.7 2.45 44.65 1.65 44.05 2.1 43.3 2.95 43.9 5.2 41.05 Q9.1 35.95 11.95 30.1 L13.15 27.45 12.25 26.9 12.75 26.25 11.85 25.65 12.5 24.65 Q12.7 24.45 12.85 24.4 13.65 24.1 14.95 24.7 L16.85 24.05 17.6 23.45 M26.7 15.3 L27.25 15.4 30.75 9.9 Q33.3 5.85 34.85 4.4 36.0 3.3 38.05 2.05 M26.7 15.3 L25.45 15.05 26.45 15.7 M26.9 15.95 L26.7 16.35 Q23.95 21.35 25.25 22.75 L25.35 22.9 Q22.75 22.35 19.85 24.8 L19.7 24.7 Q20.0 23.25 21.1 20.3 L21.15 20.25 M16.95 29.85 L15.3 28.85 14.1 28.0 13.15 27.45 M6.05 45.8 L6.7 46.25 7.65 46.8 M16.95 29.85 L17.85 30.4 M5.1 45.25 L6.05 45.8 5.55 46.5 7.15 47.5 M19.2 30.25 L12.75 26.25 M2.95 43.9 L3.8 44.4 5.1 45.25 M5.55 46.5 L5.45 46.55 7.15 47.65 M5.55 46.5 L2.45 44.65 M2.45 44.7 L5.45 46.55 M14.95 24.7 L19.3 27.45" fill="none" stroke="#000000" stroke-linecap="round" stroke-linejoin="round" stroke-opacity="0.5137255" stroke-width="0.05"/>
    <path d="M37.25 1.85 L37.75 1.9" fill="none" stroke="#d6d9e2" stroke-linecap="round" stroke-linejoin="round" stroke-width="0.05"/>
    <path d="M21.15 20.25 L29.9 6.1 Q32.95 1.5 37.25 1.85" fill="none" stroke="#4a878a" stroke-linecap="round" stroke-linejoin="round" stroke-width="0.05"/>
    <path d="M15.3 28.85 L13.4 31.95 5.1 45.25 M6.7 46.25 L8.4 42.9 Q12.2 35.95 16.95 29.85 M14.1 28.0 L12.65 30.75 Q9.45 36.3 5.85 41.45 L3.8 44.4" fill="none" stroke="#414001" stroke-linecap="round" stroke-linejoin="round" stroke-width="0.05"/>
    <path d="M60.7 36.95 L54.45 30.9 60.7 36.95 Q60.15 39.5 58.55 42.2 L54.8 37.3 Q49.25 30.8 42.65 26.35 46.5 23.95 50.15 23.9 56.95 28.75 60.95 34.75 56.95 28.75 50.15 23.9 53.2 23.8 56.1 25.4 58.5 26.3 59.45 28.7 61.0 31.65 60.95 34.75 L60.7 36.95 M46.55 48.85 L44.95 47.25 46.55 48.85 M53.5 49.15 Q51.1 52.8 48.95 54.6 46.75 56.35 46.25 56.8 L43.0 52.6 Q36.4 44.6 28.2 38.75 L30.15 36.25 Q31.65 34.25 35.75 31.5 42.9 36.05 48.8 42.95 51.25 45.8 53.5 49.15 M37.85 62.5 Q35.5 63.65 33.05 64.4 L27.5 64.75 25.95 63.9 Q21.85 61.8 20.1 57.3 19.8 54.55 20.7 51.9 21.45 49.45 22.55 47.2 28.2 51.85 33.05 57.0 L37.85 62.5 M28.9 57.85 L25.7 54.65 28.9 57.85 M44.85 44.5 L35.5 35.2 44.85 44.5 M42.85 46.75 Q42.45 45.15 40.2 44.15 42.45 45.15 42.85 46.75" fill="#656401" fill-rule="evenodd" stroke="none"/>
    <path d="M42.65 26.35 Q49.25 30.8 54.8 37.3 L54.75 37.65 54.55 38.65 Q54.0 40.45 52.6 41.65 L52.35 41.8 51.55 42.25 51.15 42.4 48.8 42.95 Q42.9 36.05 35.75 31.5 38.15 28.0 40.1 27.2 42.0 26.35 42.65 26.35 M49.15 35.25 Q46.8 32.25 42.9 29.85 46.8 32.25 49.15 35.25 M22.55 47.2 Q23.4 41.4 28.2 38.75 36.4 44.6 43.0 52.6 L42.7 53.05 Q38.85 57.6 33.05 57.0 28.2 51.85 22.55 47.2 M31.95 47.45 L27.85 44.3 31.95 47.45" fill="#abab03" fill-rule="evenodd" stroke="none"/>
    <path d="M54.8 37.3 L58.55 42.2 57.45 44.9 Q56.45 46.9 53.5 49.15 51.25 45.8 48.8 42.95 L51.15 42.4 51.55 42.25 52.35 41.8 52.6 41.65 Q54.0 40.45 54.55 38.65 L54.75 37.65 54.8 37.3 M46.25 56.8 Q43.5 61.2 37.85 62.5 L33.05 57.0 Q38.85 57.6 42.7 53.05 L43.0 52.6 46.25 56.8" fill="#999804" fill-rule="evenodd" stroke="none"/>
    <path d="M54.45 30.9 L60.7 36.95 M60.95 34.75 Q56.95 28.75 50.15 23.9 M59.45 28.7 Q58.5 26.3 56.1 25.4 M44.95 47.25 L46.55 48.85 M27.5 64.75 L25.95 63.9 Q21.85 61.8 20.1 57.3 M33.05 57.0 L37.85 62.5 M25.7 54.65 L28.9 57.85 M43.0 52.6 Q36.4 44.6 28.2 38.75 M43.0 52.6 L46.25 56.8 M35.5 35.2 L44.85 44.5 M22.55 47.2 Q28.2 51.85 33.05 57.0 M40.2 44.15 Q42.45 45.15 42.85 46.75" fill="none" stroke="#003300" stroke-linecap="round" stroke-linejoin="round" stroke-width="0.05"/>
    <path d="M42.9 29.85 Q46.8 32.25 49.15 35.25 M27.85 44.3 L31.95 47.45" fill="none" stroke="#999804" stroke-linecap="round" stroke-linejoin="round" stroke-width="0.05"/>
  </g>
</svg>
