<?xml version="1.0" encoding="UTF-8" standalone="no"?>
<svg xmlns:xlink="http://www.w3.org/1999/xlink" height="171.6px" width="118.35px" xmlns="http://www.w3.org/2000/svg">
  <g transform="matrix(1.0, 0.0, 0.0, 1.0, 0.5, -4.95)">
    <path d="M81.15 90.4 L81.2 90.6 81.3 90.7 81.55 92.15 81.3 93.8 81.2 93.9 80.75 94.5 80.65 94.5 80.6 94.5 80.5 94.5 80.2 94.05 80.05 93.6 80.0 92.75 80.05 92.8 80.1 92.9 80.25 92.9 80.35 92.9 80.9 92.05 81.15 90.45 81.15 90.4" fill="#957440" fill-rule="evenodd" stroke="none"/>
    <path d="M81.15 90.45 L80.9 92.05 80.35 92.9 80.25 92.9 80.1 92.9 80.05 92.8 80.0 92.75 80.05 93.6 80.2 94.05 80.5 94.5 80.45 94.5 80.2 94.05 80.1 94.0 80.05 93.8 80.05 93.6 Q79.85 93.2 80.0 92.7 L80.2 91.05 Q80.35 90.45 80.6 90.3 L80.65 90.3 81.1 90.3 81.1 90.4 81.15 90.45" fill="#ab8649" fill-rule="evenodd" stroke="none"/>
    <path d="M62.8 91.45 Q62.6 91.05 62.55 90.45 62.4 89.5 62.9 88.9 63.4 88.2 63.65 88.05 L63.7 88.0 63.8 88.0 63.95 88.05 64.3 88.05 80.6 90.3 Q80.35 90.45 80.2 91.05 L80.0 92.7 79.65 92.8 79.1 92.95 78.5 93.05 77.7 93.05 76.4 92.9 75.65 92.55 75.3 92.45 72.8 91.35 72.75 91.3 72.65 91.25 72.55 91.25 72.5 91.2 72.45 91.05 72.3 91.05 72.1 90.95 71.9 90.95 71.7 93.3 60.05 128.9 59.2 128.65 59.0 128.6 56.6 128.25 56.55 128.25 69.25 93.15 69.55 92.35 62.8 91.45" fill="#c4a773" fill-rule="evenodd" stroke="none"/>
    <path d="M62.8 91.45 L69.55 92.35 69.25 93.15 63.45 92.3 63.0 91.7 62.8 91.45 M60.05 128.9 L71.7 93.3 70.95 97.3 70.4 98.6 60.7 129.1 60.25 128.9 60.05 128.9 M72.8 91.35 L75.3 92.45 75.65 92.55 76.4 92.9 77.7 93.05 78.5 93.05 79.1 92.95 79.65 92.8 80.0 92.7 Q79.85 93.2 80.05 93.6 L80.05 93.8 78.25 93.65 75.95 93.6 74.7 93.3 73.75 92.7 73.6 92.5 73.55 92.35 Q73.6 91.65 73.0 91.45 L72.9 91.45 72.9 91.4 72.8 91.35" fill="#b9955b" fill-rule="evenodd" stroke="none"/>
    <path d="M71.7 93.3 L71.9 90.95 72.1 90.95 72.3 91.05 72.45 91.05 72.5 91.2 72.55 91.25 72.65 91.25 72.75 91.3 72.8 91.35 72.9 91.4 72.75 91.7 72.75 91.95 72.5 93.35 71.8 95.75 71.3 97.3 71.05 98.15 70.3 100.5 69.5 102.8 69.2 103.85 68.6 106.25 68.35 106.95 68.05 107.6 68.0 107.85 67.75 108.45 67.1 110.9 66.3 113.25 65.6 115.6 65.15 116.8 64.6 117.95 63.95 120.3 63.65 121.55 63.4 122.4 63.3 122.8 62.6 125.0 62.15 126.35 61.6 127.6 61.05 129.25 60.7 129.1 70.4 98.6 70.95 97.3 71.7 93.3" fill="#b48d50" fill-rule="evenodd" stroke="none"/>
    <path d="M61.05 129.25 L61.6 127.6 62.15 126.35 62.6 125.0 63.3 122.8 63.4 122.4 63.65 121.55 63.95 120.3 64.6 117.95 65.15 116.8 65.6 115.6 66.3 113.25 67.1 110.9 67.75 108.45 68.0 107.85 68.05 107.6 68.35 106.95 68.6 106.25 69.2 103.85 69.5 102.8 70.3 100.5 71.05 98.15 71.3 97.3 71.8 95.75 72.5 93.35 72.75 91.95 72.75 91.7 72.9 91.4 72.9 91.45 73.0 91.45 Q73.6 91.65 73.55 92.35 L73.6 92.5 73.75 92.7 74.7 93.3 75.95 93.6 78.25 93.65 80.05 93.8 80.1 94.0 80.2 94.05 80.45 94.5 73.15 93.6 69.1 106.05 69.05 106.25 68.95 106.45 68.8 106.9 68.8 106.95 68.6 107.65 61.55 129.35 61.05 129.25 M68.8 106.9 L68.6 107.65 68.8 106.9" fill="#9e7c45" fill-rule="evenodd" stroke="none"/>
    <path d="M59.15 129.95 L58.55 129.8 57.95 129.7 57.65 129.7 Q56.95 129.7 56.35 130.1 L55.9 130.45 Q55.45 131.0 55.35 131.6 L51.2 149.6 51.15 149.8 50.95 150.05 50.55 150.45 50.15 150.6 50.25 150.15 54.35 132.6 54.45 131.95 54.7 130.75 Q54.85 130.1 55.3 129.7 L56.3 128.95 57.05 128.9 57.3 128.9 57.95 128.95 58.5 129.15 59.15 129.95 M64.15 134.05 L64.55 134.25 64.7 134.45 64.55 134.3 64.15 134.05 M67.15 136.55 L67.15 136.85 Q67.35 138.6 67.15 140.65 L66.5 143.95 Q67.5 137.45 64.7 134.45 L65.35 134.85 65.4 134.95 67.15 136.55" fill="#dadada" fill-rule="evenodd" stroke="none"/>
    <path d="M51.2 149.6 L55.35 131.6 Q55.45 131.0 55.9 130.45 L56.35 130.1 Q56.95 129.7 57.65 129.7 L57.95 129.7 58.55 129.8 59.15 129.95 59.4 130.65 59.65 131.3 59.65 131.5 59.6 131.85 59.3 132.7 59.0 133.35 51.2 149.6 M54.35 132.6 L50.25 150.15 50.15 150.6 Q50.15 151.2 50.95 151.4 L51.8 151.25 51.4 151.5 52.35 151.4 53.1 151.2 53.95 149.8 61.4 134.55 61.95 133.05 62.0 132.95 62.35 133.0 64.1 133.95 64.15 134.05 64.55 134.3 64.7 134.45 Q67.5 137.45 66.5 143.95 L63.4 161.15 63.4 161.2 63.4 161.45 34.45 157.05 44.7 139.6 Q47.9 133.7 54.35 132.6 M30.05 156.85 L30.7 161.1 30.7 161.15 29.25 156.85 30.05 156.85" fill="#999999" fill-rule="evenodd" stroke="none"/>
    <path d="M57.05 128.9 L56.3 128.95 55.3 129.7 Q54.85 130.1 54.7 130.75 L54.45 131.95 54.25 132.05 Q50.8 130.4 47.35 130.75 51.15 128.45 56.35 128.85 L57.05 128.9" fill="#707070" fill-rule="evenodd" stroke="none"/>
    <path d="M56.55 128.25 L56.6 128.25 59.0 128.6 59.2 128.65 60.05 128.9 60.25 128.9 60.7 129.1 61.05 129.25 61.55 129.35 Q66.85 131.5 67.7 136.2 L67.75 136.55 67.85 138.6 67.7 140.3 64.15 161.4 64.15 161.45 63.4 161.15 66.5 143.95 67.15 140.65 Q67.35 138.6 67.15 136.85 L67.15 136.55 Q66.75 134.9 65.85 133.55 L65.6 133.05 65.15 132.45 64.55 131.9 Q63.3 130.75 61.4 129.95 61.15 129.75 60.9 129.7 L60.5 129.6 59.9 129.35 59.6 129.3 57.95 128.95 57.3 128.9 57.05 128.9 56.35 128.85 Q51.15 128.45 47.35 130.75 44.05 132.7 41.9 136.6 L30.05 156.85 29.25 156.85 41.5 136.05 Q46.3 127.25 56.55 128.25" fill="#cccccc" fill-rule="evenodd" stroke="none"/>
    <path d="M58.5 129.15 L57.95 128.95 59.6 129.3 59.9 129.35 60.5 129.6 60.9 129.7 Q61.15 129.75 61.4 129.95 63.3 130.75 64.55 131.9 L64.55 134.25 64.15 134.05 64.1 133.95 62.35 133.0 62.0 132.95 Q61.95 132.05 61.05 131.05 L60.65 130.65 60.3 130.35 59.75 129.95 59.6 129.8 59.55 129.75 59.35 129.65 59.3 129.6 59.25 129.6 59.15 129.5 58.5 129.15" fill="#808080" fill-rule="evenodd" stroke="none"/>
    <path d="M59.15 129.95 L58.5 129.15 59.15 129.5 59.25 129.6 59.3 129.6 59.35 129.65 59.55 129.75 59.6 129.8 59.65 129.95 60.25 130.55 60.5 131.05 60.85 131.85 60.9 132.15 60.9 132.55 60.85 132.7 60.3 134.2 52.35 150.65 52.25 150.85 51.8 151.25 50.95 151.4 Q50.15 151.2 50.15 150.6 L50.55 150.45 50.95 150.05 51.15 149.8 51.2 149.6 59.0 133.35 59.3 132.7 59.6 131.85 59.65 131.5 59.65 131.3 59.4 130.65 59.15 129.95" fill="#858585" fill-rule="evenodd" stroke="none"/>
    <path d="M54.45 131.95 L54.35 132.6 Q47.9 133.7 44.7 139.6 L34.45 157.05 33.15 156.9 43.55 139.15 Q47.05 132.8 54.25 132.05 L54.45 131.95 M60.9 132.55 L62.0 132.95 61.95 133.05 61.4 134.55 53.95 149.8 53.1 151.2 52.35 151.4 51.4 151.5 51.8 151.25 52.25 150.85 52.35 150.65 60.3 134.2 60.85 132.7 60.9 132.55" fill="#757575" fill-rule="evenodd" stroke="none"/>
    <path d="M59.6 129.8 L59.75 129.95 60.3 130.35 60.65 130.65 61.05 131.05 Q61.95 132.05 62.0 132.95 L60.9 132.55 60.9 132.15 60.85 131.85 60.5 131.05 60.25 130.55 59.65 129.95 59.6 129.8" fill="#5a5a5a" fill-rule="evenodd" stroke="none"/>
    <path d="M47.35 130.75 Q50.8 130.4 54.25 132.05 47.05 132.8 43.55 139.15 L33.15 156.9 32.7 157.7 31.05 161.4 30.75 161.3 30.7 161.15 30.7 161.1 30.05 156.85 41.9 136.6 Q44.05 132.7 47.35 130.75" fill="#666666" fill-rule="evenodd" stroke="none"/>
    <path d="M64.55 134.25 L64.55 131.9 65.15 132.45 65.6 133.05 65.85 133.55 Q66.75 134.9 67.15 136.55 L65.4 134.95 65.35 134.85 64.7 134.45 64.55 134.25" fill="#9f9f9f" fill-rule="evenodd" stroke="none"/>
    <path d="M64.15 161.45 L64.15 161.4 67.7 140.3 67.85 138.6 Q68.35 140.05 68.25 141.8 L64.1 166.15 64.15 161.45" fill="#575757" fill-rule="evenodd" stroke="none"/>
    <path d="M31.05 161.4 L32.7 157.7 33.15 156.9 34.45 157.05 31.6 161.45 31.05 161.4" fill="#828282" fill-rule="evenodd" stroke="none"/>
    <path d="M63.75 166.35 L31.6 161.45 34.45 157.05 63.4 161.45 63.75 166.35" fill="#aaaaaa" fill-rule="evenodd" stroke="none"/>
    <path d="M63.4 161.15 L64.15 161.45 64.1 166.15 63.95 166.4 63.75 166.35 63.4 161.45 63.4 161.2 63.4 161.15" fill="#878787" fill-rule="evenodd" stroke="none"/>
    <path d="M81.3 90.7 L81.2 90.6 81.15 90.4 M80.5 94.5 L80.6 94.5 M80.65 94.5 L80.75 94.5 81.2 93.9 81.3 93.8 M80.65 90.3 L81.1 90.3 81.1 90.4 81.15 90.45 M80.6 90.3 L64.3 88.05 63.95 88.05 63.8 88.0 63.7 88.0 63.65 88.05 Q63.4 88.2 62.9 88.9 62.4 89.5 62.55 90.45 62.6 91.05 62.8 91.45 L63.0 91.7 63.45 92.3 69.25 93.15 56.55 128.25 56.6 128.25 59.0 128.6 59.2 128.65 60.05 128.9 60.25 128.9 60.7 129.1 61.05 129.25 61.55 129.35 Q66.85 131.5 67.7 136.2 L67.75 136.55 67.85 138.6 Q68.35 140.05 68.25 141.8 L64.1 166.15 63.95 166.4 63.75 166.35 31.6 161.45 31.05 161.4 30.75 161.3 30.7 161.15 29.25 156.85 41.5 136.05 Q46.3 127.25 56.55 128.25 M73.15 93.6 L80.45 94.5 80.5 94.5 M68.8 106.9 L68.8 106.95 68.6 107.65 M64.15 161.45 L64.15 161.4 M63.4 161.2 L63.4 161.15" fill="none" stroke="#69513b" stroke-linecap="round" stroke-linejoin="round" stroke-width="0.05"/>
    <path d="M81.3 93.8 L81.55 92.15 81.3 90.7 M81.1 90.4 L81.15 90.4 M80.6 90.3 L80.65 90.3 M61.55 129.35 L68.6 107.65 68.8 106.9 68.95 106.45 69.05 106.25 69.1 106.05 73.15 93.6 M64.1 166.15 L64.1 166.4 63.95 166.4" fill="none" stroke="#69513b" stroke-linecap="round" stroke-linejoin="round" stroke-width="1.0"/>
    <path d="M17.45 81.15 Q19.95 78.65 22.9 76.6 25.3 78.3 28.9 79.8 40.35 84.9 56.65 84.95 L57.6 84.9 57.8 86.1 77.8 118.8 76.75 154.6 62.55 168.5 37.65 171.85 Q26.65 167.6 17.25 158.55 0.0 142.6 0.05 119.85 0.1 97.15 17.45 81.15" fill="#9999cb" fill-opacity="0.5019608" fill-rule="evenodd" stroke="none"/>
    <path d="M55.7 5.65 L63.5 5.45 Q78.4 5.5 89.75 7.85 104.2 10.8 104.35 15.8 L104.45 16.45 104.2 17.3 91.75 60.85 90.8 63.4 90.9 63.9 89.95 67.9 Q87.7 71.2 81.15 73.7 L74.7 75.65 Q74.2 72.75 73.15 69.95 70.0 62.1 79.4 56.8 80.6 51.35 71.5 48.05 79.85 50.3 82.75 42.0 85.0 35.65 79.35 36.1 82.05 35.5 83.2 32.55 84.95 28.65 84.65 26.3 83.85 21.35 73.9 22.8 L77.35 17.05 Q70.1 10.7 60.75 15.8 63.4 12.7 63.45 9.4 59.35 7.7 55.7 5.65 M104.2 17.3 Q102.3 21.45 90.4 24.85 L84.65 26.3 90.4 24.85 Q102.3 21.45 104.2 17.3" fill="#825a33" fill-rule="evenodd" stroke="none"/>
    <path d="M41.85 6.55 L54.65 5.65 55.7 5.65 Q59.35 7.7 63.45 9.4 63.4 12.7 60.75 15.8 70.1 10.7 77.35 17.05 L73.9 22.8 Q83.85 21.35 84.65 26.3 84.95 28.65 83.2 32.55 82.05 35.5 79.35 36.1 85.0 35.65 82.75 42.0 79.85 50.3 71.5 48.05 80.6 51.35 79.4 56.8 70.0 62.1 73.15 69.95 74.2 72.75 74.7 75.65 67.05 77.55 57.45 77.4 L55.25 76.95 65.25 29.05 65.4 29.15 41.85 6.55 M84.65 26.3 Q75.95 28.25 65.4 29.15 75.95 28.25 84.65 26.3" fill="#b9874a" fill-rule="evenodd" stroke="none"/>
    <path d="M91.75 60.85 Q96.0 65.0 96.0 68.05 96.0 72.05 92.4 75.35 89.6 77.95 84.5 80.15 L83.85 80.35 Q72.75 84.95 57.55 85.1 L56.9 77.35 57.45 77.4 Q67.05 77.55 74.7 75.65 L81.15 73.7 Q87.7 71.2 89.95 67.9 90.8 66.35 90.85 64.55 L90.95 64.45 90.9 63.9 91.05 63.6 91.75 60.85" fill="#9898cc" fill-opacity="0.7019608" fill-rule="evenodd" stroke="none"/>
    <path d="M27.7 8.65 Q34.2 7.3 41.85 6.55 L65.4 29.15 65.25 29.05 53.6 29.65 65.25 29.05 55.25 76.95 57.45 77.4 56.9 77.35 50.0 77.05 Q44.1 76.6 39.1 75.3 L33.85 73.6 32.1 72.85 13.85 25.3 Q16.95 26.45 21.6 27.4 L24.9 28.05 33.45 28.8 35.75 43.2 35.75 29.0 36.8 24.1 35.15 26.4 33.8 24.65 Q30.45 19.95 27.7 8.65 M90.8 63.4 L91.75 60.85 90.9 63.5 90.8 63.4 M53.6 27.15 L53.6 29.65 Q53.45 37.1 52.6 44.0 53.45 37.1 53.6 29.65 L53.6 27.15 M36.7 72.75 Q32.9 62.25 28.75 46.3 24.85 31.2 24.9 28.05 24.85 31.2 28.75 46.3 32.9 62.25 36.7 72.75 M35.9 47.4 L35.75 43.2 35.9 47.4 M50.0 77.05 Q50.6 74.25 52.5 67.15 55.45 56.05 56.6 53.9 55.45 56.05 52.5 67.15 50.6 74.25 50.0 77.05 M42.6 16.05 L36.8 24.1 42.6 16.05 M53.6 29.65 L35.75 29.0 53.6 29.65 M41.6 38.35 L39.1 75.3 41.6 38.35" fill="#d2b88c" fill-rule="evenodd" stroke="none"/>
    <path d="M91.75 60.85 L91.05 63.6 90.9 63.5 91.75 60.85" fill="#999900" fill-rule="evenodd" stroke="none"/>
    <path d="M22.35 60.6 L7.9 21.9 Q6.9 20.8 6.8 19.45 6.6 14.4 20.95 10.35 L27.7 8.65 Q30.45 19.95 33.8 24.65 L35.15 26.4 33.45 28.8 24.9 28.05 21.6 27.4 Q16.95 26.45 13.85 25.3 9.6 23.8 7.9 21.9 9.6 23.8 13.85 25.3 L32.1 72.85 Q25.4 69.8 24.35 65.85 L22.35 60.6" fill="#dbc5a4" fill-rule="evenodd" stroke="none"/>
    <path d="M35.15 26.4 L36.8 24.1 35.75 29.0 35.75 43.2 33.45 28.8 35.15 26.4" fill="#a57341" fill-rule="evenodd" stroke="none"/>
    <path d="M22.85 76.75 Q17.25 72.95 17.35 67.85 17.15 64.45 22.35 60.6 L24.35 65.85 Q25.4 69.8 32.1 72.85 L33.85 73.6 39.1 75.3 Q44.1 76.6 50.0 77.05 L56.9 77.35 57.55 85.1 56.6 85.15 Q40.3 85.15 28.85 80.05 25.25 78.5 22.85 76.75 M49.7 78.75 L50.0 77.05 49.7 78.75" fill="#9999cb" fill-opacity="0.5019608" fill-rule="evenodd" stroke="none"/>
    <path d="M84.65 26.3 L90.4 24.85 Q102.3 21.45 104.2 17.3 M65.25 29.05 L65.4 29.15 Q75.95 28.25 84.65 26.3 M53.6 29.65 L65.25 29.05 M33.45 28.8 L35.75 43.2 35.75 29.0 36.8 24.1 35.15 26.4 33.45 28.8 24.9 28.05 21.6 27.4 Q16.95 26.45 13.85 25.3 9.6 23.8 7.9 21.9 M35.75 43.2 L35.9 47.4 M39.1 75.3 L41.6 38.35 M35.75 29.0 L53.6 29.65 M36.8 24.1 L42.6 16.05" fill="none" stroke="#003200" stroke-linecap="round" stroke-linejoin="round" stroke-opacity="0.5019608" stroke-width="0.05"/>
    <path d="M55.7 5.65 L63.5 5.45 Q78.4 5.5 89.75 7.85 104.2 10.8 104.35 15.8 L104.45 16.45 104.2 17.3 91.75 60.85 M22.35 60.6 L7.9 21.9 Q6.9 20.8 6.8 19.45 6.6 14.4 20.95 10.35 L27.7 8.65 Q34.2 7.3 41.85 6.55 L54.65 5.65 55.7 5.65" fill="none" stroke="#996600" stroke-linecap="round" stroke-linejoin="round" stroke-width="1.0"/>
    <path d="M89.95 67.9 L90.9 63.9 91.05 63.6 91.75 60.85 M24.35 65.85 L22.35 60.6" fill="none" stroke="#996600" stroke-linecap="round" stroke-linejoin="round" stroke-width="0.05"/>
    <path d="M74.7 75.65 L81.15 73.7 Q87.7 71.2 89.95 67.9 90.8 66.35 90.85 64.55 L90.95 64.45 90.9 63.9 M92.4 75.35 Q89.6 77.95 84.5 80.15 L83.85 80.35 Q72.75 84.95 57.55 85.1 L56.6 85.15 Q40.3 85.15 28.85 80.05 25.25 78.5 22.85 76.75 M57.45 77.4 Q67.05 77.55 74.7 75.65 M32.1 72.85 Q25.4 69.8 24.35 65.85 M50.0 77.05 Q44.1 76.6 39.1 75.3 L33.85 73.6 32.1 72.85 M50.0 77.05 L56.9 77.35 57.45 77.4" fill="none" stroke="#67afaf" stroke-linecap="round" stroke-linejoin="round" stroke-width="0.05"/>
    <path d="M91.75 60.85 Q96.0 65.0 96.0 68.05 96.0 72.05 92.4 75.35 96.4 78.05 100.25 81.55 117.35 97.6 117.35 120.35 117.2 143.0 100.2 159.0 81.75 176.05 58.5 176.05 47.4 176.05 37.6 172.05 26.65 167.8 17.2 158.75 -0.05 142.75 0.0 120.1 0.05 97.4 17.35 81.4 19.9 78.9 22.85 76.75 17.25 72.95 17.35 67.85 17.15 64.45 22.35 60.6" fill="none" stroke="#67afaf" stroke-linecap="round" stroke-linejoin="round" stroke-width="1.0"/>
    <path d="M53.6 29.65 Q53.45 37.1 52.6 44.0 M53.6 29.65 L53.6 27.15 M24.9 28.05 Q24.85 31.2 28.75 46.3 32.9 62.25 36.7 72.75 M56.6 53.9 Q55.45 56.05 52.5 67.15 50.6 74.25 50.0 77.05 L49.7 78.75" fill="none" stroke="#b9874a" stroke-linecap="round" stroke-linejoin="round" stroke-opacity="0.5019608" stroke-width="0.05"/>
  </g>
</svg>
