<?xml version="1.0" encoding="UTF-8" standalone="no"?>
<svg xmlns:xlink="http://www.w3.org/1999/xlink" height="116.6px" width="102.05px" xmlns="http://www.w3.org/2000/svg">
  <g transform="matrix(1.0, 0.0, 0.0, 1.0, 0.0, -14.95)">
    <path d="M82.8 128.0 Q68.6 131.55 48.5 131.55 28.4 131.55 14.2 128.0 0.0 124.5 0.0 119.55 0.0 114.6 14.2 111.05 28.4 107.55 48.5 107.55 68.6 107.55 82.8 111.05 97.0 114.6 97.0 119.55 97.0 124.5 82.8 128.0" fill="#6b3402" fill-opacity="0.14117648" fill-rule="evenodd" stroke="none"/>
    <path d="M88.75 81.6 L89.0 81.65 88.9 82.1 88.75 81.6" fill="#a4e067" fill-rule="evenodd" stroke="none"/>
    <path d="M89.05 81.4 L89.0 80.95 89.25 81.35 89.05 81.4" fill="#9ede5c" fill-rule="evenodd" stroke="none"/>
    <path d="M26.1 79.6 L26.45 79.1 26.3 79.4 26.1 79.6" fill="#ad3d01" fill-rule="evenodd" stroke="none"/>
    <path d="M72.7 72.75 Q76.4 73.55 79.6 74.75 87.4 77.65 88.75 81.6 L88.9 82.1 89.65 83.3 Q94.0 90.3 95.8 97.25 L97.2 103.25 97.2 108.75 96.85 110.7 95.6 112.65 94.85 113.3 Q92.75 115.0 89.65 116.55 85.9 118.35 80.6 120.0 L80.35 120.05 75.8 121.3 72.75 121.85 69.6 122.3 69.35 122.3 61.1 122.9 52.4 122.8 51.6 122.75 45.55 122.2 Q38.25 120.9 32.85 119.0 26.6 116.8 22.95 113.7 L19.1 108.95 18.6 108.35 18.35 104.45 18.8 99.45 Q19.5 89.7 23.8 82.85 L23.8 82.7 23.85 82.7 23.85 82.75 23.95 82.5 25.55 80.35 26.1 79.6 26.3 79.4 Q28.55 76.8 34.05 74.75 37.25 73.55 40.9 72.8 46.55 71.55 53.35 71.3 L56.85 71.25 56.9 71.25 64.55 71.55 72.7 72.75 M89.05 83.25 L88.9 82.1 89.05 83.25 M54.05 95.25 L56.85 95.3 59.35 95.25 56.85 95.3 54.05 95.25" fill="url(#gradient0)" fill-rule="evenodd" stroke="none"/>
    <path d="M76.8 35.75 L76.85 35.75 84.8 57.25 89.65 70.5 92.6 78.4 92.6 78.95 97.2 94.1 100.55 105.05 101.4 107.6 101.5 108.75 101.45 109.65 101.0 111.55 100.25 112.95 97.9 115.6 97.25 116.15 97.2 116.2 89.65 120.25 89.35 120.45 88.45 120.75 87.2 121.2 89.65 119.4 Q95.0 115.15 94.85 113.3 L95.6 112.65 96.85 110.7 97.2 108.75 97.55 106.6 Q97.65 105.65 97.2 103.25 L95.8 97.25 Q94.0 90.3 89.65 83.3 L88.9 82.1 89.0 81.65 88.75 81.6 Q87.4 77.65 79.6 74.75 76.4 73.55 72.7 72.75 L67.6 42.15 71.0 41.1 Q76.8 38.9 76.8 35.75 M14.5 114.0 Q12.5 111.5 12.5 108.75 L12.75 106.85 12.95 106.25 14.15 100.4 21.5 75.95 22.05 76.1 21.5 75.85 28.75 57.25 37.1 35.75 37.2 35.75 Q37.2 38.9 43.0 41.1 L46.4 42.15 40.9 72.8 Q37.25 73.55 34.05 74.75 28.55 76.8 26.3 79.4 L26.45 79.1 26.1 79.6 25.55 80.35 23.95 82.5 23.85 82.75 23.85 82.7 23.8 82.7 23.8 82.85 Q19.5 89.7 18.8 99.45 L18.35 104.45 18.6 108.35 19.1 108.95 14.5 114.0 M89.05 81.4 L89.25 81.35 89.0 80.95 89.05 81.4" fill="#88f0db" fill-rule="evenodd" stroke="none"/>
    <path d="M46.4 42.15 L54.3 43.25 53.35 71.3 Q46.55 71.55 40.9 72.8 L46.4 42.15" fill="#a3f3e3" fill-rule="evenodd" stroke="none"/>
    <path d="M53.35 71.3 L54.3 43.25 57.0 43.3 61.9 43.1 64.55 71.55 56.9 71.25 56.85 71.25 53.35 71.3" fill="#bff7ec" fill-rule="evenodd" stroke="none"/>
    <path d="M67.6 42.15 L72.7 72.75 64.55 71.55 61.9 43.1 67.6 42.15" fill="#ddfbf4" fill-rule="evenodd" stroke="none"/>
    <path d="M37.2 35.75 L37.2 35.55 Q37.3 33.35 40.35 31.6 L40.35 26.65 Q37.2 24.8 37.2 22.5 37.2 19.35 43.0 17.15 48.75 14.9 57.0 14.95 65.2 14.9 71.0 17.15 76.8 19.35 76.8 22.5 76.8 24.5 74.45 26.1 L74.45 32.15 74.7 32.3 Q76.65 33.8 76.8 35.55 L76.8 35.75 Q76.8 38.9 71.0 41.1 L67.6 42.15 61.9 43.1 57.0 43.3 54.3 43.25 46.4 42.15 43.0 41.1 Q37.2 38.9 37.2 35.75" fill="#52dac6" fill-rule="evenodd" stroke="none"/>
    <path d="M97.25 116.15 L97.2 116.25 Q96.8 117.65 95.8 119.0 93.85 121.45 89.65 123.6 L85.6 125.35 81.65 126.7 Q71.05 129.9 57.05 129.9 40.25 129.9 28.45 125.35 18.25 121.5 16.85 116.2 20.0 118.65 25.5 120.75 L32.15 122.9 Q38.15 124.45 45.15 125.2 L45.35 125.2 52.3 125.7 57.0 125.75 61.1 125.7 61.3 125.7 69.8 125.1 73.1 124.65 73.15 124.65 76.45 124.1 80.95 123.1 81.45 123.0 87.2 121.2 88.45 120.75 89.35 120.45 89.65 120.25 97.2 116.2 97.25 116.15" fill="#26b39d" fill-rule="evenodd" stroke="none"/>
    <path d="M16.85 116.2 L14.5 114.0 19.1 108.95 22.95 113.7 Q26.6 116.8 32.85 119.0 38.25 120.9 45.55 122.2 L51.6 122.75 52.4 122.8 61.1 122.9 69.35 122.3 69.6 122.3 72.75 121.85 75.8 121.3 80.35 120.05 80.6 120.0 Q85.9 118.35 89.65 116.55 92.75 115.0 94.85 113.3 95.0 115.15 89.65 119.4 L87.2 121.2 81.45 123.0 80.95 123.1 76.45 124.1 73.15 124.65 73.1 124.65 69.8 125.1 61.3 125.7 61.1 125.7 57.0 125.75 52.3 125.7 45.35 125.2 45.15 125.2 Q38.15 124.45 32.15 122.9 L25.5 120.75 Q20.0 118.65 16.85 116.2" fill="#176c60" fill-rule="evenodd" stroke="none"/>
    <path d="M88.9 82.1 L89.65 83.3 Q94.0 90.3 95.8 97.25 L97.2 103.25 Q97.65 105.65 97.55 106.6 L97.2 108.75 96.85 110.7 95.6 112.65 94.85 113.3 Q92.75 115.0 89.65 116.55 85.9 118.35 80.6 120.0 L80.35 120.05 75.8 121.3 72.75 121.85 69.6 122.3 69.35 122.3 61.1 122.9 52.4 122.8 51.6 122.75 45.55 122.2 Q38.25 120.9 32.85 119.0 26.6 116.8 22.95 113.7 L19.1 108.95 18.6 108.35 18.35 104.45 18.8 99.45 Q19.5 89.7 23.8 82.85 L23.8 82.7 23.85 82.7 23.85 82.75 23.95 82.5 25.55 80.35 M88.9 82.1 L89.05 83.25" fill="none" stroke="#660000" stroke-linecap="round" stroke-linejoin="round" stroke-opacity="0.21176471" stroke-width="1.0"/>
    <path d="M50.55 42.95 L54.35 43.25 57.05 43.3 61.95 43.1 67.65 42.15 71.05 41.1 Q76.85 38.9 76.85 35.75 L76.9 35.75 84.85 57.25 92.65 78.4 92.65 78.95 100.6 105.05 101.45 107.6 101.55 108.75 Q101.55 112.8 97.3 116.15 95.9 121.45 85.65 125.35 L81.7 126.7 Q72.7 129.4 61.25 129.85 L40.55 112.7 38.45 95.9 50.55 42.95" fill="#1fba9b" fill-opacity="0.2" fill-rule="evenodd" stroke="none"/>
    <path d="M50.55 42.95 L38.45 95.9 40.55 112.7 61.25 129.85 57.1 129.9 41.15 128.7 Q34.2 127.55 28.5 125.35 L26.95 124.75 51.25 128.5 Q24.75 119.55 19.1 103.5 32.1 37.2 41.4 40.4 L41.95 40.65 43.05 41.1 46.45 42.15 50.55 42.95" fill="#1a957c" fill-opacity="0.2509804" fill-rule="evenodd" stroke="none"/>
    <path d="M26.95 124.75 Q18.2 121.05 16.9 116.2 12.55 112.85 12.55 108.75 12.55 107.8 12.8 106.85 L13.0 106.25 14.2 100.4 21.55 75.95 22.1 76.1 21.55 75.85 28.8 57.25 37.15 35.75 37.25 35.75 Q37.25 38.4 41.4 40.4 32.1 37.2 19.1 103.5 24.75 119.55 51.25 128.5 L26.95 124.75" fill="#147461" fill-opacity="0.5019608" fill-rule="evenodd" stroke="none"/>
    <path d="M61.25 129.85 Q72.7 129.4 81.7 126.7 L85.65 125.35 Q95.9 121.45 97.3 116.15 101.55 112.8 101.55 108.75 L101.45 107.6 100.6 105.05 92.65 78.95 92.65 78.4 84.85 57.25 76.9 35.75 76.85 35.75 Q76.85 38.9 71.05 41.1 L67.65 42.15 61.95 43.1 57.05 43.3 54.35 43.25 50.55 42.95 M26.95 124.75 Q18.2 121.05 16.9 116.2 12.55 112.85 12.55 108.75 12.55 107.8 12.8 106.85 L13.0 106.25 14.2 100.4 21.55 75.95 22.1 76.1 21.55 75.85 28.8 57.25 37.15 35.75 37.25 35.75 Q37.25 38.4 41.4 40.4" fill="none" stroke="#000000" stroke-linecap="round" stroke-linejoin="round" stroke-opacity="0.2" stroke-width="1.0"/>
  </g>
  <defs>
    <linearGradient gradientTransform="matrix(-0.0244, 0.0012, -0.0013, -0.0269, 50.25, 101.3)" gradientUnits="userSpaceOnUse" id="gradient0" spreadMethod="pad" x1="-819.2" x2="819.2">
      <stop offset="0.0" stop-color="#b3c4ea"/>
      <stop offset="1.0" stop-color="#3a3a8d"/>
    </linearGradient>
  </defs>
</svg>
