<?xml version="1.0" encoding="UTF-8" standalone="no"?>
<svg xmlns:xlink="http://www.w3.org/1999/xlink" height="67.65px" width="74.0px" xmlns="http://www.w3.org/2000/svg">
  <g transform="matrix(1.0, 0.0, 0.0, 1.0, 0.25, 0.25)">
    <path d="M62.25 12.8 L62.95 14.35 62.95 18.85 60.95 21.25 58.9 22.2 61.35 28.65 61.35 33.65 62.35 38.4 61.35 39.9 61.35 42.15 57.75 46.25 57.75 47.9 57.35 50.0 57.25 50.5 55.5 54.25 52.75 55.4 52.0 53.5 49.25 52.15 47.5 52.9 45.35 53.4 44.25 55.15 44.85 52.4 46.0 50.25 47.6 50.25 48.25 49.65 48.4 49.5 49.4 48.55 51.85 47.75 49.4 48.55 48.4 49.5 48.25 49.65 47.6 50.25 46.0 50.25 44.85 52.4 44.25 55.15 45.85 58.4 45.25 61.25 42.75 61.7 41.35 63.25 37.75 63.65 36.5 61.9 33.85 60.75 31.6 61.25 31.0 63.65 29.6 63.65 28.9 65.15 28.75 65.45 27.45 65.45 27.1 66.4 24.75 67.15 23.85 66.8 26.25 62.7 26.75 62.65 27.75 64.5 27.45 65.45 27.75 64.5 26.75 62.65 26.25 62.7 24.35 62.75 23.9 63.55 21.05 63.7 20.7 64.5 19.75 66.4 18.75 66.4 17.9 65.65 17.0 66.0 15.65 65.5 18.6 63.25 19.6 61.4 21.35 63.0 21.05 63.7 21.35 63.0 19.6 61.4 17.1 62.15 16.7 62.6 15.35 62.6 13.55 61.65 13.75 61.25 12.0 59.9 13.75 61.25 13.55 61.65 12.6 63.5 12.25 64.15 10.6 64.15 10.1 63.5 8.75 63.5 12.0 59.9 10.0 59.9 9.1 60.75 7.6 60.15 6.7 59.5 7.0 57.9 5.25 57.9 7.0 57.9 6.7 59.5 6.6 60.0 6.0 61.6 5.5 62.75 4.5 62.75 3.7 61.85 3.25 62.15 3.25 63.15 1.25 62.3 5.25 57.9 3.5 57.0 2.75 57.65 2.35 58.2 2.1 55.75 2.5 55.6 4.4 56.6 5.35 56.15 7.6 57.25 10.6 57.9 11.25 59.0 14.6 59.75 16.45 57.0 14.25 54.15 13.55 51.85 17.4 55.5 17.25 55.05 19.75 56.25 20.75 54.1 19.75 49.75 18.35 47.65 18.65 42.5 19.55 41.55 19.85 47.85 23.6 53.6 26.4 54.6 26.6 54.9 26.15 54.65 27.4 56.6 30.25 57.4 33.5 56.25 36.6 56.9 40.0 56.0 41.75 53.75 41.75 50.5 45.35 47.15 47.5 47.15 48.6 45.0 53.1 45.0 55.0 46.15 59.6 42.4 59.1 40.4 57.75 40.15 54.75 42.2 52.5 42.2 52.15 42.2 51.35 41.15 49.1 40.4 47.0 41.9 45.35 41.9 44.85 41.9 43.35 40.25 42.6 37.65 43.5 35.0 43.5 32.4 42.1 29.4 44.75 30.25 46.35 32.9 48.25 34.05 50.25 35.25 53.75 33.65 56.85 28.75 55.1 24.15 55.35 23.8 55.85 21.6 59.85 18.6 62.25 12.8 M6.35 52.0 L5.5 49.0 2.1 44.5 7.85 49.85 9.1 49.65 8.35 51.9 8.35 55.4 6.35 52.0 M55.9 9.7 L56.95 10.0 56.85 11.6 55.9 11.6 54.95 11.6 53.6 11.6 51.7 13.0 51.7 10.35 54.7 9.35 55.9 9.7 55.9 11.6 55.9 9.7 M55.35 23.8 L58.9 22.2 55.35 23.8 M45.35 41.9 L47.5 38.75 48.25 34.05 47.5 38.75 45.35 41.9 M21.55 31.9 L20.4 34.5 18.6 34.75 14.85 33.3 14.25 32.7 13.65 29.0 16.85 32.0 21.35 32.0 21.55 31.9 M44.1 60.15 L42.75 61.7 44.1 60.15 M4.85 61.0 L3.7 61.85 4.85 61.0 M18.85 65.25 L17.9 65.65 18.85 65.25" fill="#b0af68" fill-rule="evenodd" stroke="none"/>
    <path d="M61.2 10.4 L62.25 12.8 59.85 18.6 55.85 21.6 55.35 23.8 55.1 24.15 56.85 28.75 53.75 33.65 50.25 35.25 48.25 34.05 48.25 33.9 50.25 31.55 52.25 29.15 52.85 24.0 52.85 20.15 54.45 18.0 56.4 17.8 57.25 17.7 56.4 17.8 54.45 18.0 52.85 20.15 52.85 24.0 52.25 29.15 50.25 31.55 48.25 33.9 48.25 34.05 46.35 32.9 44.75 30.25 42.1 29.4 43.5 32.4 43.5 35.0 42.6 37.65 43.35 40.25 44.85 41.9 45.35 41.9 47.0 41.9 49.1 40.4 51.35 41.15 52.15 42.2 52.5 42.2 54.75 42.2 57.75 40.15 59.1 40.4 59.6 42.4 55.0 46.15 53.1 45.0 48.6 45.0 47.5 47.15 45.35 47.15 41.75 50.5 41.75 53.75 40.0 56.0 36.6 56.9 33.5 56.25 30.25 57.4 27.4 56.6 26.15 54.65 26.6 54.9 27.2 54.9 28.45 55.35 34.35 53.6 39.7 47.6 41.1 39.0 41.1 31.0 37.7 22.75 32.25 21.5 34.6 19.05 36.1 15.4 40.6 11.5 44.85 10.15 48.6 10.15 49.1 8.25 53.75 8.5 53.75 8.55 55.75 8.75 55.9 9.0 55.75 8.75 56.05 8.75 57.95 8.75 61.2 10.4 M2.5 55.6 L4.6 54.65 6.35 52.0 8.35 55.4 8.35 51.9 9.1 49.65 11.15 49.3 12.6 49.05 10.75 52.0 10.85 54.15 11.75 52.9 13.2 51.5 13.55 51.85 14.25 54.15 16.45 57.0 14.6 59.75 11.25 59.0 10.6 57.9 7.6 57.25 5.35 56.15 4.4 56.6 2.5 55.6 M6.95 16.35 L5.6 15.75 2.85 12.75 5.2 12.75 6.35 10.75 6.35 7.85 7.9 4.9 9.45 4.2 11.7 3.1 14.35 4.35 13.1 5.5 12.75 6.15 11.7 5.85 10.5 6.6 9.45 4.35 9.45 4.2 9.45 4.35 10.5 6.6 9.35 7.35 8.6 10.5 9.6 11.75 6.95 16.35 M55.9 9.7 L55.9 9.0 56.05 8.75 55.9 9.0 55.9 9.7 54.7 9.35 51.7 10.35 51.7 13.0 53.6 11.6 54.95 11.6 56.4 15.45 57.25 17.7 58.6 16.25 58.6 14.6 56.85 11.6 56.95 10.0 55.9 9.7 M50.25 31.55 L47.1 28.4 45.85 26.65 46.35 22.75 44.85 17.75 44.85 10.15 44.85 17.75 46.35 22.75 45.85 26.65 47.1 28.4 50.25 31.55 M56.4 17.8 L56.4 15.45 56.4 17.8 M19.55 41.55 L18.65 42.5 18.35 47.65 14.25 47.65 13.1 48.15 13.5 46.9 14.2 46.1 16.2 39.6 15.95 38.3 17.15 37.85 16.35 34.9 14.85 33.3 18.6 34.75 20.4 34.5 22.2 34.25 20.6 35.5 19.0 35.5 19.0 37.6 20.0 38.0 19.45 40.1 19.55 41.55 M19.75 49.75 L20.75 54.1 19.75 56.25 17.25 55.05 17.0 54.05 15.1 49.55 18.25 51.15 19.75 49.75 M47.1 28.4 L48.25 33.9 47.1 28.4 M25.7 25.3 L22.95 28.75 21.55 31.9 21.35 32.0 16.85 32.0 13.65 29.0 13.35 27.25 12.25 25.9 13.0 25.65 19.0 27.5 25.7 25.3" fill="#cccc99" fill-rule="evenodd" stroke="none"/>
    <path d="M23.85 66.8 L22.85 66.4 23.35 64.75 23.45 64.35 23.9 63.55 24.35 62.75 26.25 62.7 23.85 66.8 M15.65 65.5 L15.35 65.4 14.6 64.5 15.4 64.05 15.6 63.9 16.7 62.6 17.1 62.15 19.6 61.4 18.6 63.25 15.65 65.5 M8.75 63.5 L7.6 63.0 8.15 62.25 9.1 60.75 10.0 59.9 12.0 59.9 8.75 63.5 M1.25 62.3 L0.0 61.75 0.0 60.5 1.35 59.65 2.35 58.2 2.75 57.65 3.5 57.0 5.25 57.9 1.25 62.3 M3.35 26.75 L3.1 24.9 3.6 22.25 6.95 16.35 9.6 11.75 12.75 6.15 13.1 5.5 14.35 4.35 11.7 3.1 9.45 4.2 9.35 1.05 9.45 4.2 7.9 4.9 6.35 7.85 6.35 10.75 5.2 12.75 2.85 12.75 2.7 12.6 2.7 8.5 5.6 3.5 9.35 1.05 10.95 0.0 14.85 0.75 17.6 2.65 23.1 1.25 36.5 2.35 38.25 2.5 45.35 5.75 49.4 7.1 51.45 5.6 53.55 5.6 55.7 5.6 57.35 6.5 60.1 8.0 61.2 10.4 57.95 8.75 56.05 8.75 55.75 8.75 53.75 8.55 53.75 8.5 49.1 8.25 48.6 10.15 44.85 10.15 42.25 5.65 36.5 2.35 42.25 5.65 44.85 10.15 40.6 11.5 36.1 15.4 34.6 19.05 32.25 21.5 26.85 23.85 25.7 25.3 19.0 27.5 13.0 25.65 12.25 25.9 9.95 23.0 5.7 21.85 3.35 26.75 M53.55 5.6 L55.75 8.75 53.55 5.6 M57.35 6.5 L56.05 8.75 57.35 6.5 M49.4 7.1 L47.2 8.6 49.4 7.1 M26.6 54.9 L26.4 54.6 27.2 54.9 26.6 54.9 M18.35 47.65 L19.75 49.75 18.25 51.15 15.1 49.55 14.25 47.65 18.35 47.65 M14.35 4.35 L15.6 3.15 17.6 2.65 15.6 3.15 14.35 4.35 M14.85 33.3 L16.35 34.9 17.15 37.85 15.95 38.3 14.85 33.3 M13.5 46.9 L13.1 48.15 12.6 49.05 11.15 49.3 13.5 46.9 M20.0 38.0 L19.0 37.6 19.0 35.5 20.6 35.5 20.0 38.0" fill="#d9d9b7" fill-rule="evenodd" stroke="none"/>
    <path d="M2.1 44.5 L3.1 41.4 4.6 40.75 6.0 38.4 4.0 31.65 6.4 34.1 8.65 32.0 11.65 33.75 15.4 38.5 15.95 38.3 16.2 39.6 14.2 46.1 13.5 46.9 14.1 44.75 13.15 40.5 13.15 40.4 13.05 40.05 Q12.75 38.75 12.1 37.75 11.0 36.0 9.95 35.75 8.9 35.5 8.0 37.35 7.05 39.25 7.05 41.95 L7.3 44.35 7.5 48.15 9.3 49.1 9.1 49.65 7.85 49.85 2.1 44.5 M26.4 54.6 L23.6 53.6 19.85 47.85 19.55 41.55 19.45 40.1 20.0 38.0 22.0 38.75 26.15 35.0 30.3 34.2 32.75 35.35 37.25 31.0 33.1 30.25 30.25 30.25 26.25 30.9 22.2 34.25 20.4 34.5 21.55 31.9 22.95 28.75 25.7 25.3 29.95 23.9 32.25 21.5 37.7 22.75 41.1 31.0 41.1 39.0 39.7 47.6 34.35 53.6 28.45 55.35 27.2 54.9 29.6 54.9 34.35 52.5 36.25 48.0 35.6 42.65 32.95 39.1 32.55 38.45 Q31.6 37.25 30.5 36.85 L28.65 36.75 Q26.4 37.25 24.65 38.95 22.85 40.6 22.85 44.0 22.85 46.7 23.7 48.4 L24.55 52.05 26.4 54.6 M12.25 25.9 L13.35 27.25 13.65 29.0 14.25 32.7 10.75 29.0 8.6 28.75 7.15 27.5 12.25 25.9" fill="#000000" fill-rule="evenodd" stroke="none"/>
    <path d="M4.0 31.65 L3.35 26.75 5.7 21.85 9.95 23.0 12.25 25.9 7.15 27.5 8.6 28.75 10.75 29.0 14.25 32.7 14.85 33.3 15.95 38.3 15.4 38.5 11.65 33.75 8.65 32.0 6.4 34.1 4.0 31.65 M32.25 21.5 L29.95 23.9 25.7 25.3 26.85 23.85 32.25 21.5 M22.2 34.25 L26.25 30.9 30.25 30.25 33.1 30.25 37.25 31.0 32.75 35.35 30.3 34.2 26.15 35.0 22.0 38.75 20.0 38.0 20.6 35.5 22.2 34.25 M13.15 40.5 L14.1 44.75 13.5 46.9 11.15 49.3 9.1 49.65 9.3 49.1 7.5 48.15 7.3 44.35 Q7.5 45.5 8.0 46.45 8.9 48.35 10.25 48.35 11.55 48.35 12.5 46.45 13.45 44.6 13.35 42.05 L13.15 40.5 M23.7 48.4 L24.2 49.15 24.95 50.05 26.65 51.3 29.05 51.45 Q30.1 51.2 31.15 50.05 L31.65 49.3 Q33.25 46.9 33.7 43.75 34.1 41.05 32.95 39.1 L35.6 42.65 36.25 48.0 34.35 52.5 29.6 54.9 27.2 54.9 26.4 54.6 24.55 52.05 23.7 48.4" fill="#333333" fill-rule="evenodd" stroke="none"/>
    <path d="M7.3 44.35 L7.05 41.95 Q7.05 39.25 8.0 37.35 8.9 35.5 9.95 35.75 11.0 36.0 12.1 37.75 12.75 38.75 13.05 40.05 L13.15 40.4 13.15 40.5 13.35 42.05 Q13.45 44.6 12.5 46.45 11.55 48.35 10.25 48.35 8.9 48.35 8.0 46.45 7.5 45.5 7.3 44.35 M32.95 39.1 Q34.1 41.05 33.7 43.75 33.25 46.9 31.65 49.3 L31.15 50.05 Q30.1 51.2 29.05 51.45 L26.65 51.3 24.95 50.05 24.2 49.15 23.7 48.4 Q22.85 46.7 22.85 44.0 22.85 40.6 24.65 38.95 26.4 37.25 28.65 36.75 L30.5 36.85 Q31.6 37.25 32.55 38.45 L32.95 39.1" fill="#cccccc" fill-rule="evenodd" stroke="none"/>
    <path d="M17.25 55.05 L17.4 55.5 13.55 51.85 13.2 51.5 11.75 52.9 10.85 54.15 10.75 52.0 12.6 49.05 13.1 48.15 14.25 47.65 15.1 49.55 17.0 54.05 17.25 55.05" fill="#666633" fill-rule="evenodd" stroke="none"/>
    <path d="M57.35 50.0 Q63.5 50.65 67.95 52.05 73.3 53.75 73.75 55.5 72.4 56.85 64.75 57.85 L52.75 59.25 52.0 59.5 53.7 60.5 Q55.05 61.25 55.5 61.25 54.95 62.55 47.7 63.55 L38.25 64.25 38.0 64.25 38.75 64.75 38.75 64.8 33.35 65.25 28.9 65.15 29.6 63.65 31.0 63.65 31.6 61.25 33.85 60.75 36.5 61.9 37.75 63.65 41.35 63.25 42.75 61.7 45.25 61.25 45.85 58.4 44.25 55.15 45.35 53.4 47.5 52.9 49.25 52.15 52.0 53.5 52.75 55.4 55.5 54.25 57.25 50.5 57.35 50.0 M23.35 64.75 L20.7 64.5 21.05 63.7 23.9 63.55 23.45 64.35 23.35 64.75 M15.4 64.05 L15.0 64.0 12.6 63.5 13.55 61.65 15.35 62.6 16.7 62.6 15.6 63.9 15.4 64.05 M8.15 62.25 L6.0 61.6 6.6 60.0 6.7 59.5 7.6 60.15 9.1 60.75 8.15 62.25" fill="#000000" fill-opacity="0.2901961" fill-rule="evenodd" stroke="none"/>
    <path d="M61.2 10.4 L62.25 12.8 62.95 14.35 62.95 18.85 60.95 21.25 58.9 22.2 61.35 28.65 61.35 33.65 62.35 38.4 61.35 39.9 61.35 42.15 57.75 46.25 57.75 47.9 57.35 50.0 57.25 50.5 55.5 54.25 52.75 55.4 52.0 53.5 49.25 52.15 47.5 52.9 45.35 53.4 44.25 55.15 44.85 52.4 46.0 50.25 47.6 50.25 48.25 49.65 48.4 49.5 49.4 48.55 51.85 47.75 M28.9 65.15 L28.75 65.45 27.45 65.45 27.1 66.4 24.75 67.15 23.85 66.8 22.85 66.4 23.35 64.75 23.45 64.35 23.9 63.55 24.35 62.75 26.25 62.7 26.75 62.65 27.75 64.5 27.45 65.45 M20.7 64.5 L19.75 66.4 18.75 66.4 17.9 65.65 17.0 66.0 15.65 65.5 15.35 65.4 14.6 64.5 15.4 64.05 15.6 63.9 16.7 62.6 17.1 62.15 19.6 61.4 21.35 63.0 21.05 63.7 23.9 63.55 M12.6 63.5 L12.25 64.15 10.6 64.15 10.1 63.5 8.75 63.5 7.6 63.0 8.15 62.25 9.1 60.75 10.0 59.9 12.0 59.9 13.75 61.25 13.55 61.65 15.35 62.6 16.7 62.6 M6.0 61.6 L5.5 62.75 4.5 62.75 3.7 61.85 3.25 62.15 3.25 63.15 1.25 62.3 0.0 61.75 0.0 60.5 1.35 59.65 2.35 58.2 2.1 55.75 2.5 55.6 4.6 54.65 6.35 52.0 5.5 49.0 2.1 44.5 3.1 41.4 4.6 40.75 6.0 38.4 4.0 31.65 3.35 26.75 3.1 24.9 3.6 22.25 6.95 16.35 5.6 15.75 2.85 12.75 2.7 12.6 2.7 8.5 5.6 3.5 9.35 1.05 10.95 0.0 14.85 0.75 17.6 2.65 23.1 1.25 36.5 2.35 38.25 2.5 45.35 5.75 49.4 7.1 51.45 5.6 53.55 5.6 55.7 5.6 57.35 6.5 60.1 8.0 61.2 10.4 M56.05 8.75 L55.9 9.0 55.9 9.7 55.9 11.6 56.85 11.6 58.6 14.6 58.6 16.25 57.25 17.7 56.4 17.8 54.45 18.0 52.85 20.15 52.85 24.0 52.25 29.15 50.25 31.55 48.25 33.9 48.25 34.05 47.5 38.75 45.35 41.9 47.0 41.9 49.1 40.4 51.35 41.15 52.15 42.2 52.5 42.2 M51.7 13.0 L53.6 11.6 54.95 11.6 55.9 11.6 M55.75 8.75 L53.55 5.6 M55.9 9.0 L55.75 8.75 M56.05 8.75 L57.35 6.5 M47.2 8.6 L49.4 7.1 M44.85 10.15 L42.25 5.65 36.5 2.35 M44.85 10.15 L44.85 17.75 46.35 22.75 45.85 26.65 47.1 28.4 50.25 31.55 M57.25 17.7 L56.4 15.45 56.4 17.8 M58.9 22.2 L55.35 23.8 M56.4 15.45 L54.95 11.6 M17.25 55.05 L17.4 55.5 13.55 51.85 13.2 51.5 11.75 52.9 10.85 54.15 10.75 52.0 12.6 49.05 13.1 48.15 14.25 47.65 15.1 49.55 17.0 54.05 17.25 55.05 M45.35 41.9 L44.85 41.9 43.35 40.25 42.6 37.65 43.5 35.0 43.5 32.4 42.1 29.4 M48.25 33.9 L47.1 28.4 M20.4 34.5 L22.2 34.25 26.25 30.9 30.25 30.25 M17.6 2.65 L15.6 3.15 14.35 4.35 13.1 5.5 12.75 6.15 9.6 11.75 6.95 16.35 M10.5 6.6 L11.7 5.85 12.75 6.15 M9.35 1.05 L9.45 4.2 9.45 4.35 10.5 6.6 9.35 7.35 8.6 10.5 9.6 11.75 M8.6 28.75 L10.75 29.0 14.25 32.7 14.85 33.3 16.35 34.9 M20.4 34.5 L18.6 34.75 14.85 33.3 M7.3 44.35 L7.05 41.95 Q7.05 39.25 8.0 37.35 8.9 35.5 9.95 35.75 11.0 36.0 12.1 37.75 12.75 38.75 13.05 40.05 L13.15 40.4 13.15 40.5 13.35 42.05 Q13.45 44.6 12.5 46.45 11.55 48.35 10.25 48.35 8.9 48.35 8.0 46.45 7.5 45.5 7.3 44.35 M20.6 35.5 L22.2 34.25 M32.95 39.1 Q34.1 41.05 33.7 43.75 33.25 46.9 31.65 49.3 L31.15 50.05 Q30.1 51.2 29.05 51.45 L26.65 51.3 24.95 50.05 24.2 49.15 23.7 48.4 Q22.85 46.7 22.85 44.0 22.85 40.6 24.65 38.95 26.4 37.25 28.65 36.75 L30.5 36.85 Q31.6 37.25 32.55 38.45 L32.95 39.1 M28.9 65.15 L29.6 63.65 31.0 63.65 31.6 61.25 33.85 60.75 36.5 61.9 37.75 63.65 41.35 63.25 42.75 61.7 44.1 60.15 M20.7 64.5 L21.05 63.7 M2.35 58.2 L2.75 57.65 3.5 57.0 5.25 57.9 7.0 57.9 6.7 59.5 7.6 60.15 9.1 60.75 M3.7 61.85 L4.85 61.0 M6.7 59.5 L6.6 60.0 6.0 61.6 M17.9 65.65 L18.85 65.25 M13.55 61.65 L12.6 63.5 M42.75 61.7 L45.25 61.25 45.85 58.4 44.25 55.15" fill="none" stroke="#000000" stroke-linecap="round" stroke-linejoin="round" stroke-opacity="0.4" stroke-width="0.5"/>
    <path d="M18.8 50.25 Q18.9 51.7 13.55 51.85 L10.35 50.85 8.95 49.15 11.95 47.5 15.7 48.15 18.8 50.25" fill="#333333" fill-rule="evenodd" stroke="none"/>
    <path d="M8.95 49.15 L10.35 50.85 13.55 51.85 Q18.9 51.7 18.8 50.25 L19.2 53.0 Q17.4 53.85 15.55 54.65 L10.05 53.9 8.55 51.9 8.95 49.15" fill="#000000" fill-rule="evenodd" stroke="none"/>
    <path d="M18.8 50.25 L15.7 48.15 11.95 47.5 8.95 49.15 8.55 51.9 10.05 53.9 15.55 54.65 Q17.4 53.85 19.2 53.0 L18.8 50.25 Z" fill="none" stroke="#000000" stroke-linecap="round" stroke-linejoin="round" stroke-opacity="0.4" stroke-width="0.5"/>
  </g>
</svg>
