<?xml version="1.0" encoding="UTF-8" standalone="no"?>
<svg xmlns:xlink="http://www.w3.org/1999/xlink" height="23.55px" width="15.6px" xmlns="http://www.w3.org/2000/svg">
  <g transform="matrix(1.0, 0.0, 0.0, 1.0, 0.0, 9.85)">
    <path d="M9.55 10.35 L9.55 10.2 9.8 10.35 Q9.65 10.85 9.75 11.35 L9.55 10.35 M10.25 8.15 L10.45 7.65 10.5 7.8 10.25 8.15 M10.75 9.5 L10.75 9.6 10.7 9.65 10.75 9.5" fill="#83795c" fill-rule="evenodd" stroke="none"/>
    <path d="M10.55 8.0 L10.65 7.85 10.7 8.55 10.75 9.0 10.4 9.0 10.55 8.0" fill="#5c4e2e" fill-rule="evenodd" stroke="none"/>
    <path d="M13.35 9.6 L13.2 9.25 13.1 9.0 13.2 8.35 13.6 9.4 13.65 9.6 13.35 9.6" fill="#635a47" fill-rule="evenodd" stroke="none"/>
    <path d="M10.3 6.9 L10.45 7.65 10.25 8.15 10.05 8.6 9.9 8.95 9.55 10.2 9.55 10.35 9.5 10.2 Q9.5 9.2 9.9 8.1 L10.3 6.9" fill="#928467" fill-rule="evenodd" stroke="none"/>
    <path d="M13.1 9.0 L12.9 8.5 13.2 7.75 13.25 7.75 13.3 7.85 13.5 8.0 13.65 8.1 Q13.95 8.2 13.9 7.65 L14.35 8.95 14.4 9.35 14.35 9.85 14.2 10.8 13.85 11.55 13.7 11.55 13.35 9.6 13.65 9.6 13.6 9.4 13.2 8.35 13.1 9.0 M10.75 9.0 L10.75 9.5 10.7 9.65 10.35 10.0 9.8 11.35 9.75 11.35 Q9.65 10.85 9.8 10.35 9.95 9.85 10.25 9.35 L10.4 9.0 10.75 9.0" fill="#35484a" fill-rule="evenodd" stroke="none"/>
    <path d="M9.55 10.2 L9.9 8.95 10.05 8.6 10.25 8.15 10.5 7.8 10.55 8.0 10.4 9.0 10.25 9.35 Q9.95 9.85 9.8 10.35 L9.55 10.2" fill="#517071" fill-rule="evenodd" stroke="none"/>
    <path d="M13.2 7.75 L13.25 7.75 M10.3 6.9 L9.9 8.1 Q9.5 9.2 9.5 10.2 L9.55 10.35 9.75 11.35 M10.75 9.6 L10.7 9.65 10.35 10.0 9.8 11.35" fill="none" stroke="#484137" stroke-linecap="round" stroke-linejoin="round" stroke-width="0.05"/>
    <path d="M3.8 6.1 L4.05 6.05 4.95 6.05 5.1 6.7 5.25 7.3 Q5.1 6.8 4.6 6.45 L4.25 6.25 3.8 6.1 M5.3 7.4 L5.35 7.65 5.3 7.65 5.3 7.4 M1.85 6.65 L2.0 6.55 2.05 6.55 2.1 6.55 2.15 6.5 2.2 6.55 2.35 6.5 2.4 6.55 2.7 6.6 Q3.15 6.75 3.2 7.35 L2.85 6.85 2.7 6.75 2.65 6.75 2.5 6.7 1.85 6.65 M5.1 6.7 L4.5 6.3 4.05 6.05 4.5 6.3 5.1 6.7" fill="#5c4e2e" fill-rule="evenodd" stroke="none"/>
    <path d="M5.25 7.3 L5.25 7.35 5.3 7.4 5.3 7.65 4.2 7.55 3.2 8.0 3.15 7.95 2.45 7.9 0.0 8.1 Q0.55 7.55 1.15 7.15 L1.85 6.65 2.5 6.7 2.65 6.75 2.7 6.75 2.85 6.85 3.2 7.35 Q3.15 6.75 2.7 6.6 L2.4 6.55 2.35 6.5 2.2 6.55 2.15 6.5 2.1 6.55 2.05 6.55 2.55 6.25 3.8 6.1 4.25 6.25 4.6 6.45 Q5.1 6.8 5.25 7.3" fill="#253434" fill-rule="evenodd" stroke="none"/>
    <path d="M5.25 7.3 L5.25 7.35 5.3 7.4 5.3 7.65 M3.8 6.1 L4.25 6.25 4.6 6.45 Q5.1 6.8 5.25 7.3 M2.05 6.55 L2.1 6.55 2.15 6.5 2.2 6.55 2.35 6.5 2.4 6.55 2.7 6.6 Q3.15 6.75 3.2 7.35 L2.85 6.85 2.7 6.75 2.65 6.75 2.5 6.7 1.85 6.65 M4.05 6.05 L4.5 6.3 5.1 6.7" fill="none" stroke="#544d3d" stroke-linecap="round" stroke-linejoin="round" stroke-width="0.05"/>
    <path d="M3.8 6.1 L4.05 6.05 4.95 6.05 M3.2 8.0 L3.15 7.95 2.45 7.9 0.0 8.1 Q0.55 7.55 1.15 7.15 L1.85 6.65 2.0 6.55 2.05 6.55 2.55 6.25 3.8 6.1" fill="none" stroke="#544d3d" stroke-linecap="round" stroke-linejoin="round" stroke-width="0.05"/>
    <path d="M3.15 7.0 L3.2 7.0 3.15 7.0" fill="#ececec" fill-rule="evenodd" stroke="none"/>
    <path d="M8.35 -8.35 L8.3 -8.35 8.3 -8.5 8.35 -8.35" fill="#8f8f8f" fill-rule="evenodd" stroke="none"/>
    <path d="M8.3 -1.0 L8.3 -1.3 8.3 -1.2 8.3 -1.0 M8.55 -7.95 L9.35 -8.15 9.8 -8.8 10.25 -8.7 10.15 -8.45 9.7 -7.8 9.25 -7.5 Q8.85 -7.4 8.55 -7.95 M8.35 -0.75 L8.35 -0.65 8.3 -0.65 8.3 -0.75 8.35 -0.75" fill="#333333" fill-rule="evenodd" stroke="none"/>
    <path d="M7.65 0.2 L7.85 0.45 7.75 0.35 7.65 0.2 M8.75 2.6 L8.75 2.45 8.8 2.45 8.75 2.6" fill="#990000" fill-rule="evenodd" stroke="none"/>
    <path d="M6.1 -7.65 L6.05 -7.75 6.1 -7.8 6.5 -7.75 6.1 -7.65" fill="#e4dcc9" fill-rule="evenodd" stroke="none"/>
    <path d="M10.4 -8.85 L10.85 -8.6 10.35 -8.7 10.4 -8.85" fill="#83795c" fill-rule="evenodd" stroke="none"/>
    <path d="M9.5 -1.05 L9.5 -0.8 9.25 -0.75 9.25 -1.0 9.5 -1.05" fill="#474132" fill-rule="evenodd" stroke="none"/>
    <path d="M7.85 -9.8 L7.9 -9.85 8.3 -8.5 8.3 -8.35 8.6 -2.8 8.3 -0.9 8.3 -1.0 7.55 -1.05 7.65 -1.2 6.5 -7.75 Q6.95 -8.8 6.9 -9.85 L7.85 -9.8 M8.3 -1.2 L8.3 -1.3 8.3 -1.0 8.3 -1.2 M8.35 -0.55 L8.45 1.95 7.95 0.65 7.95 0.6 7.85 0.5 7.9 0.5 7.85 0.45 7.65 0.2 7.65 -0.8 8.3 -0.75 8.3 -0.65 8.35 -0.55 M8.5 2.7 L8.8 2.6 9.15 3.5 9.25 3.9 9.15 4.2 9.1 4.35 8.8 4.65 8.6 4.75 7.65 5.0 6.8 5.75 Q6.25 5.1 5.05 5.15 L6.2 4.6 6.8 4.35 7.35 3.35 7.6 3.25 7.7 3.2 8.5 2.7 M4.65 5.35 L5.25 5.35 Q6.15 5.4 6.6 5.9 L5.2 7.1 4.15 7.25 Q3.5 6.65 2.75 6.8 L3.0 6.5 4.6 5.4 4.65 5.35 M2.8 6.95 L2.75 7.0 2.85 6.95 3.15 7.0 3.2 7.0 Q3.55 7.05 3.85 7.35 L3.6 7.4 3.3 7.5 Q2.6 7.65 1.9 8.0 L2.3 7.4 Q2.55 7.2 2.3 7.15 L2.5 7.1 2.6 7.0 2.8 6.95" fill="#54717a" fill-rule="evenodd" stroke="none"/>
    <path d="M7.55 -1.05 L8.3 -1.0 8.3 -0.9 8.6 -2.8 8.3 -8.35 8.35 -8.35 8.55 -8.0 8.55 -7.95 Q8.85 -7.4 9.25 -7.5 L9.7 -7.8 10.15 -8.45 10.25 -8.7 10.35 -8.9 10.4 -8.85 10.35 -8.7 9.25 -1.0 9.25 -0.75 8.85 1.95 8.45 1.95 8.35 -0.55 8.35 -0.65 8.35 -0.75 8.3 -0.9 8.35 -0.75 8.3 -0.75 7.65 -0.8 7.25 -0.95 7.25 -1.2 Q7.35 -1.15 7.55 -1.05 M9.2 2.3 L9.3 2.55 9.65 3.2 10.05 4.35 10.05 4.5 10.05 4.55 Q9.95 5.2 9.45 5.4 L8.5 5.65 6.05 7.75 4.7 7.95 4.45 8.05 4.1 8.15 3.15 8.45 Q1.5 9.1 0.0 10.4 L1.0 8.45 1.3 8.3 1.9 8.0 Q2.6 7.65 3.3 7.5 L3.6 7.4 3.85 7.35 Q3.55 7.05 3.2 7.0 L3.15 7.0 2.85 6.95 2.8 6.95 2.6 7.0 Q2.15 7.05 1.65 7.4 L1.8 7.2 1.85 7.15 1.95 7.1 2.0 7.05 2.05 7.05 2.25 6.95 2.4 6.9 2.75 6.8 Q3.5 6.65 4.15 7.25 L5.2 7.1 6.6 5.9 Q6.15 5.4 5.25 5.35 L4.65 5.35 4.0 5.4 4.25 5.25 5.05 5.15 Q6.25 5.1 6.8 5.75 L7.65 5.0 8.6 4.75 8.8 4.65 9.1 4.35 9.15 4.2 9.25 3.9 9.15 3.5 8.8 2.6 8.8 2.55 9.2 2.3 M7.1 2.7 L7.15 1.35 Q7.2 0.6 7.35 0.35 7.45 0.1 7.65 0.2 L7.75 0.35 7.85 0.45 7.9 0.5 7.85 0.5 Q7.7 0.4 7.65 0.65 L7.4 1.65 7.35 3.0 7.2 3.4 6.9 3.2 7.1 2.7" fill="#35484a" fill-rule="evenodd" stroke="none"/>
    <path d="M6.9 -9.85 Q6.95 -8.8 6.5 -7.75 L7.65 -1.2 7.55 -1.05 Q7.35 -1.15 7.25 -1.2 L6.1 -7.65 6.5 -7.75 6.1 -7.8 6.45 -9.85 6.9 -9.85 M10.85 -8.6 L9.6 -1.85 9.5 -1.05 9.25 -1.0 10.35 -8.7 10.85 -8.6 M9.5 -0.8 L9.35 0.7 8.85 1.95 8.75 2.45 8.75 2.6 8.8 2.55 8.8 2.6 8.5 2.7 8.45 1.95 8.85 1.95 9.25 -0.75 9.5 -0.8 M1.0 8.45 L1.65 7.4 Q2.15 7.05 2.6 7.0 L2.5 7.1 2.3 7.15 Q2.55 7.2 2.3 7.4 L1.9 8.0 1.3 8.3 1.0 8.45 M1.85 7.15 L2.4 6.5 2.8 6.15 4.0 5.4 4.65 5.35 4.6 5.4 3.0 6.5 2.75 6.8 2.4 6.9 2.25 6.95 2.05 7.05 2.0 7.05 1.95 7.1 1.85 7.15 M4.25 5.25 L6.15 4.35 7.1 2.7 6.9 3.2 7.2 3.4 7.35 3.35 6.8 4.35 6.2 4.6 5.05 5.15 4.25 5.25 M7.15 1.35 L7.25 -0.95 7.65 -0.8 7.65 0.2 Q7.45 0.1 7.35 0.35 7.2 0.6 7.15 1.35 M2.8 6.95 L2.85 6.95 2.75 7.0 2.8 6.95" fill="#253434" fill-rule="evenodd" stroke="none"/>
    <path d="M7.85 0.5 L7.95 0.6 7.95 0.65 7.85 1.35 7.8 2.7 7.6 3.2 7.6 3.25 7.35 3.35 7.2 3.4 7.35 3.0 7.4 1.65 7.65 0.65 Q7.7 0.4 7.85 0.5" fill="#f8f1eb" fill-rule="evenodd" stroke="none"/>
    <path d="M9.35 0.7 L9.2 2.3 8.8 2.55 8.75 2.6 8.8 2.45 8.75 2.45 8.85 1.95 9.35 0.7 M7.95 0.65 L8.45 1.95 8.5 2.7 7.7 3.2 7.6 3.25 7.6 3.2 7.8 2.7 7.85 1.35 7.95 0.65" fill="#d2af86" fill-rule="evenodd" stroke="none"/>
    <path d="M7.55 -1.05 L8.3 -1.0 8.3 -0.9 8.35 -0.75 8.35 -0.65 8.35 -0.55 M8.3 -1.2 L8.3 -1.0 M7.1 2.7 L7.15 1.35 M7.55 -1.05 Q7.35 -1.15 7.25 -1.2 M9.25 -0.75 L9.5 -0.8 M9.25 -1.0 L9.5 -1.05 M7.2 3.4 L7.35 3.35 7.6 3.25 M7.2 3.4 L6.9 3.2 7.1 2.7 M2.85 6.95 L2.8 6.95 2.6 7.0 Q2.15 7.05 1.65 7.4 M2.85 6.95 L3.15 7.0" fill="none" stroke="#544d3d" stroke-linecap="round" stroke-linejoin="round" stroke-width="0.05"/>
    <path d="M7.85 -9.8 L6.9 -9.85 6.45 -9.85 6.1 -7.8 6.05 -7.75 6.1 -7.65 7.25 -1.2 7.25 -0.95 7.15 1.35 Q7.2 0.6 7.35 0.35 7.45 0.1 7.65 0.2 L7.85 0.45 7.9 0.5 M8.35 -0.55 L8.45 1.95 8.5 2.7 7.7 3.2 7.6 3.25 M7.85 0.5 L7.95 0.6 7.95 0.65 8.45 1.95 M7.65 0.2 L7.75 0.35 7.85 0.45" fill="none" stroke="#544d3d" stroke-linecap="round" stroke-linejoin="round" stroke-width="0.05"/>
    <path d="M12.35 -9.2 L12.35 -9.25 12.5 -9.5 12.35 -9.2 12.35 -9.1 12.35 -9.2 M11.6 -0.45 L11.65 -0.3 12.35 -0.1 11.65 -0.25 11.6 -0.3 11.6 -0.45 M11.6 -0.05 L11.6 0.0 11.4 2.5 11.35 2.55 11.55 0.1 11.6 -0.05 M11.75 4.4 L11.8 4.45 11.75 4.45 11.75 4.4" fill="#8f8f8f" fill-rule="evenodd" stroke="none"/>
    <path d="M14.95 -7.75 L15.2 -7.6 15.55 -7.55 15.55 -7.5 Q15.5 -7.3 15.05 -7.35 L14.95 -7.75 M11.4 2.5 L11.4 2.45 11.4 2.6 11.4 2.5 M11.4 10.45 L11.45 10.45 11.4 10.5 11.4 10.45" fill="#cccccc" fill-rule="evenodd" stroke="none"/>
    <path d="M10.35 -7.4 Q11.05 -7.55 11.65 -8.65 L12.05 -8.65 11.6 -7.7 Q11.3 -7.35 10.9 -7.3 L10.85 -7.3 10.5 -7.35 10.4 -7.4 10.35 -7.4" fill="#999999" fill-rule="evenodd" stroke="none"/>
    <path d="M13.2 3.05 L13.2 2.75 13.2 2.95 13.2 3.05" fill="#630101" fill-rule="evenodd" stroke="none"/>
    <path d="M13.1 -9.4 L13.2 -9.4 13.1 -9.2 13.1 -9.4" fill="#cdc098" fill-rule="evenodd" stroke="none"/>
    <path d="M10.35 -7.35 L10.3 -7.35 10.35 -7.4 10.35 -7.35 M11.3 3.4 L11.25 3.7 11.15 3.4 11.3 3.4" fill="#eadbc4" fill-rule="evenodd" stroke="none"/>
    <path d="M13.3 2.7 L13.15 3.4 13.15 3.45 13.15 3.4 13.15 3.25 13.2 3.05 13.2 2.95 13.2 2.75 13.25 2.7 13.3 2.7" fill="#635a47" fill-rule="evenodd" stroke="none"/>
    <path d="M11.3 3.75 L11.35 3.1 11.4 3.1 Q11.85 1.7 12.25 1.55 L12.35 1.55 Q12.0 3.4 12.0 4.55 L11.8 4.45 11.75 4.4 11.45 4.1 11.3 3.75" fill="#f5ede5" fill-rule="evenodd" stroke="none"/>
    <path d="M12.05 -8.65 L12.35 -9.2 12.35 -9.1 12.35 -9.2 12.5 -9.5 13.1 -9.4 13.1 -9.2 12.35 -0.1 11.65 -0.3 11.6 -0.45 11.65 -1.1 10.85 -7.3 10.9 -7.3 Q11.3 -7.35 11.6 -7.7 L12.05 -8.65 M11.6 0.0 L11.6 -0.05 12.15 0.15 12.3 0.15 12.35 0.15 12.25 1.0 Q11.85 1.15 11.4 2.45 L11.4 2.5 11.6 0.0 M11.45 4.1 L11.75 4.4 11.75 4.45 11.45 5.0 11.65 5.8 11.8 6.1 11.8 6.15 11.85 6.2 12.1 6.9 Q11.4 6.75 10.85 7.25 L11.1 6.2 11.2 5.95 11.3 5.7 11.4 5.05 11.4 4.25 11.45 4.1 M10.55 7.95 Q11.2 6.95 12.15 7.2 L12.25 7.45 12.35 8.05 12.35 8.15 12.4 8.45 11.9 9.5 11.3 9.6 11.15 8.55 10.95 7.7 10.9 7.55 10.55 7.95 M11.35 9.85 Q11.55 9.7 11.8 9.7 L11.8 11.25 11.75 9.85 11.5 10.3 11.45 10.45 11.4 10.45 11.35 10.0 11.35 9.85" fill="#54717a" fill-rule="evenodd" stroke="none"/>
    <path d="M13.15 3.45 L13.1 3.55 12.85 4.0 12.55 4.35 Q13.35 3.15 12.8 1.95 L12.45 1.55 12.35 1.55 12.25 1.55 Q11.85 1.7 11.4 3.1 L11.35 3.1 11.3 3.75 11.25 3.7 11.3 3.4 11.35 2.6 11.35 2.55 11.4 2.6 11.4 2.45 Q11.85 1.15 12.25 1.0 L12.45 1.05 12.85 1.6 13.25 2.7 13.2 2.75 13.2 3.05 13.15 3.25 13.15 3.4 13.15 3.45" fill="#253434" fill-rule="evenodd" stroke="none"/>
    <path d="M10.9 11.45 L10.75 10.3 10.8 10.25 11.05 10.0 11.35 9.85 11.35 10.0 11.4 10.45 11.4 10.5 11.35 10.65 11.3 10.7 10.9 11.45 M10.75 10.1 L10.4 8.15 10.45 8.1 10.55 7.95 10.9 7.55 10.95 7.7 11.15 8.55 11.3 9.6 10.8 10.0 10.75 10.1 M10.35 7.9 L10.25 7.5 10.25 7.45 Q10.15 7.1 10.45 6.2 L10.65 5.7 10.75 5.05 10.75 4.25 11.15 3.4 11.25 -0.3 10.35 -7.35 10.35 -7.4 10.4 -7.4 10.5 -7.35 10.85 -7.3 11.65 -1.1 11.6 -0.45 11.6 -0.3 11.6 -0.25 11.6 -0.05 11.55 0.1 11.35 2.55 11.35 2.6 11.3 3.4 11.15 3.4 11.25 3.7 11.3 3.75 11.45 4.1 11.4 4.25 11.4 5.05 11.3 5.7 11.2 5.95 11.1 6.2 10.85 7.25 10.35 7.9" fill="#6d8f9c" fill-rule="evenodd" stroke="none"/>
    <path d="M14.0 8.15 L14.0 8.45 13.9 8.3 13.5 7.95 13.5 7.9 13.2 7.75 13.25 8.05 13.25 8.15 13.3 8.45 13.2 8.6 12.8 9.5 12.7 9.75 12.7 9.8 12.65 9.85 13.1 10.2 13.15 10.3 13.05 10.45 11.9 12.5 11.15 13.7 10.9 11.45 11.3 10.7 11.35 10.65 11.4 10.5 11.45 10.45 11.5 10.3 11.75 9.85 11.8 11.25 11.8 9.7 Q11.55 9.7 11.35 9.85 L11.05 10.0 10.8 10.25 10.75 10.3 10.75 10.1 10.8 10.0 11.3 9.6 11.9 9.5 12.4 8.45 12.35 8.15 12.35 8.05 12.25 7.45 12.15 7.2 Q11.2 6.95 10.55 7.95 L10.45 8.1 10.4 8.15 10.35 7.9 10.85 7.25 Q11.4 6.75 12.1 6.9 L11.85 6.2 11.8 6.15 11.8 6.1 11.65 5.8 11.45 5.0 11.75 4.45 11.8 4.45 12.0 4.55 12.2 4.55 12.45 4.4 12.5 4.4 12.55 4.35 12.85 4.0 12.35 5.0 12.55 5.8 12.7 6.05 12.7 6.1 12.7 6.15 12.75 6.2 12.85 6.55 13.1 7.4 13.25 7.5 13.85 8.05 13.9 8.1 14.0 8.15 M13.2 -9.4 L14.55 -9.1 13.25 2.7 12.85 1.6 12.45 1.05 12.25 1.0 12.35 0.15 12.3 0.15 12.15 0.15 11.6 -0.05 11.6 -0.25 11.6 -0.3 11.65 -0.25 12.35 -0.1 13.1 -9.2 13.2 -9.4" fill="#35484a" fill-rule="evenodd" stroke="none"/>
    <path d="M15.55 -7.5 L15.6 -7.4 13.3 2.7 13.25 2.7 14.55 -9.1 14.95 -7.75 15.05 -7.35 Q15.5 -7.3 15.55 -7.5 M13.1 3.55 L13.15 3.55 13.4 4.4 13.1 5.0 13.3 5.8 13.5 6.2 13.85 7.45 14.0 8.15 13.9 8.1 13.85 8.05 13.25 7.5 13.1 7.4 12.85 6.55 12.75 6.2 12.7 6.15 12.7 6.1 12.7 6.05 12.55 5.8 12.35 5.0 12.85 4.0 13.1 3.55 M14.0 8.45 L13.15 10.3 13.1 10.2 12.65 9.85 12.7 9.8 12.7 9.75 12.8 9.5 13.2 8.6 13.3 8.45 13.25 8.15 13.25 8.05 13.2 7.75 13.5 7.9 13.5 7.95 13.9 8.3 14.0 8.45" fill="#445a60" fill-rule="evenodd" stroke="none"/>
    <path d="M12.35 1.55 L12.45 1.55 12.8 1.95 Q13.35 3.15 12.55 4.35 L12.5 4.4 12.45 4.4 12.2 4.55 12.0 4.55 Q12.0 3.4 12.35 1.55" fill="#d2af86" fill-rule="evenodd" stroke="none"/>
    <path d="M13.15 3.25 L13.15 3.4 M12.7 9.8 L12.7 9.75" fill="none" stroke="#544d3d" stroke-linecap="round" stroke-linejoin="round" stroke-width="0.05"/>
    <path d="M15.6 -7.4 L13.3 2.7 13.15 3.4 13.15 3.45 M11.6 -0.05 L11.6 0.0" fill="none" stroke="#544d3d" stroke-linecap="round" stroke-linejoin="round" stroke-width="0.05"/>
    <path d="M4.7 7.15 L5.0 7.15 Q5.5 7.15 5.7 7.55 L5.85 8.15 5.8 8.25 5.75 8.1 5.75 7.95 5.6 7.65 5.1 7.2 4.85 7.2 4.6 7.2 4.7 7.15 M3.65 8.35 L3.7 8.25 3.7 8.2 3.75 8.2 3.8 8.15 3.9 8.1 3.95 8.1 4.1 8.05 4.65 8.35 4.85 8.8 4.75 8.85 4.75 8.8 4.65 8.65 4.6 8.55 4.6 8.5 4.5 8.4 4.25 8.15 4.1 8.15 4.0 8.15 Q3.85 8.15 3.65 8.35" fill="#474132" fill-rule="evenodd" stroke="none"/>
    <path d="M4.1 8.15 L3.95 8.25 4.0 8.15 4.1 8.15" fill="#cdc098" fill-rule="evenodd" stroke="none"/>
    <path d="M4.85 7.2 L5.1 7.2 4.85 7.25 4.85 7.2" fill="#ececec" fill-rule="evenodd" stroke="none"/>
    <path d="M5.1 7.2 L5.6 7.65 5.05 8.3 4.65 8.35 4.1 8.05 4.2 7.85 Q4.5 7.5 4.85 7.25 L5.1 7.2 M4.5 8.4 L4.4 8.45 4.3 8.45 3.75 8.75 3.9 8.4 4.1 8.2 4.1 8.15 4.25 8.15 4.5 8.4" fill="#54717a" fill-rule="evenodd" stroke="none"/>
    <path d="M5.0 7.15 L5.45 6.8 5.7 6.7 6.0 6.7 6.2 6.65 6.75 6.8 6.75 7.15 6.35 7.5 5.85 8.15 5.7 7.55 Q5.5 7.15 5.0 7.15 M5.6 7.65 L5.75 7.95 5.75 8.1 5.8 8.25 5.35 8.75 4.85 8.8 4.65 8.35 5.05 8.3 5.6 7.65 M3.4 9.0 L3.5 8.9 3.75 8.75 4.3 8.45 4.4 8.45 4.5 8.4 4.6 8.5 4.6 8.55 4.65 8.65 4.75 8.8 4.75 8.85 4.6 8.9 4.25 9.05 2.95 10.15 3.4 9.0" fill="#35484a" fill-rule="evenodd" stroke="none"/>
    <path d="M5.0 7.15 L4.7 7.15 5.45 6.7 5.45 6.65 5.7 6.7 5.45 6.8 5.0 7.15 M4.6 7.2 L4.85 7.2 4.85 7.25 Q4.5 7.5 4.2 7.85 L4.1 8.05 3.95 8.1 3.9 8.1 3.8 8.15 3.75 8.2 3.7 8.2 3.95 7.85 4.6 7.2 M3.4 9.0 L3.65 8.35 Q3.85 8.15 4.0 8.15 L3.95 8.25 4.1 8.15 4.1 8.2 3.9 8.4 3.75 8.75 3.5 8.9 3.4 9.0" fill="#6d8f9c" fill-rule="evenodd" stroke="none"/>
    <path d="M4.6 7.2 L4.85 7.2 5.1 7.2 5.6 7.65 5.75 7.95 5.75 8.1 5.8 8.25 M4.75 8.85 L4.75 8.8 4.65 8.65 4.6 8.55 4.6 8.5 4.5 8.4 4.25 8.15 4.1 8.15 4.0 8.15 Q3.85 8.15 3.65 8.35 M3.7 8.2 L3.75 8.2 3.8 8.15 3.9 8.1 3.95 8.1 4.1 8.05 4.65 8.35 4.85 8.8" fill="none" stroke="#544d3d" stroke-linecap="round" stroke-linejoin="round" stroke-width="0.05"/>
    <path d="M5.45 6.65 L5.45 6.7 4.7 7.15 4.6 7.2 3.95 7.85 3.7 8.2 3.7 8.25 3.65 8.35 3.4 9.0 2.95 10.15 4.25 9.05 4.6 8.9 4.75 8.85 4.85 8.8 5.35 8.75 5.8 8.25 5.85 8.15 6.35 7.5 6.75 7.15" fill="none" stroke="#544d3d" stroke-linecap="round" stroke-linejoin="round" stroke-width="0.05"/>
  </g>
</svg>
