<?xml version="1.0" encoding="UTF-8" standalone="no"?>
<svg xmlns:xlink="http://www.w3.org/1999/xlink" height="43.35px" width="49.25px" xmlns="http://www.w3.org/2000/svg">
  <g transform="matrix(1.0, 0.0, 0.0, 1.0, 24.8, 21.65)">
    <path d="M1.6 -13.05 L2.1 -12.75 0.65 -12.9 -0.55 -11.8 Q1.8 -10.85 2.4 -8.55 L3.5 -10.4 2.35 -12.55 3.9 -11.25 3.95 -11.2 Q6.1 -9.15 7.65 -6.15 9.6 -2.35 10.85 1.9 L10.9 5.4 10.95 8.1 11.0 8.15 10.1 11.4 9.65 12.55 9.3 13.2 8.25 14.25 Q8.0 12.75 5.9 11.4 L4.7 12.35 4.55 14.45 4.05 14.7 1.8 14.7 -8.15 15.25 -8.3 14.85 -10.2 15.45 -13.05 15.8 Q-9.2 13.05 -0.3 12.9 L-0.45 12.8 -2.6 11.85 -4.55 11.35 -5.1 11.25 -5.3 11.2 -6.05 11.05 -6.95 10.95 -8.5 10.85 -9.45 10.85 -13.75 11.3 -14.65 11.45 -15.9 11.8 -17.4 12.3 Q-19.85 13.2 -22.3 14.8 -23.5 13.7 -24.1 12.1 -23.65 8.9 -22.8 6.05 -22.0 6.6 -20.25 7.0 L-19.35 6.1 -19.5 6.2 -19.4 6.0 -19.65 5.6 -22.65 5.55 Q-18.45 -8.15 -5.45 -13.95 -3.4 -12.4 -3.2 -11.15 0.2 -11.65 -3.1 -14.9 L-3.45 -15.2 -2.75 -15.0 Q-0.4 -14.35 1.6 -13.05 M24.2 -1.4 L23.2 1.2 Q21.3 5.15 17.35 7.2 L13.9 8.55 12.95 8.35 Q14.7 -1.4 18.7 -6.25 14.95 -4.9 11.95 2.45 L11.45 0.3 Q11.95 -2.65 13.05 -4.9 L13.25 -5.3 Q14.8 -8.2 17.4 -9.85 L17.5 -9.9 17.65 -10.0 Q24.15 -7.95 24.2 -1.4 M12.65 8.6 L13.1 8.7 Q12.35 12.85 13.15 15.15 13.65 16.8 15.0 17.5 13.1 17.75 11.75 15.6 L11.9 15.05 Q12.65 11.9 12.65 8.6 M0.35 -4.85 L0.4 -4.7 Q2.25 -2.55 -1.45 0.45 L0.15 0.4 0.75 0.7 Q1.5 1.35 1.7 2.4 1.85 3.4 0.25 4.2 L-0.2 4.25 Q1.15 6.05 3.1 6.1 6.8 4.0 2.15 0.55 3.85 0.0 4.8 -1.05 6.05 -3.65 3.0 -5.25 1.75 -5.9 0.35 -4.85 M-2.35 3.25 Q-1.65 4.25 -0.8 4.25 L-0.2 4.25 -0.8 4.25 Q-1.65 4.25 -2.35 3.25 M14.25 5.7 L18.0 5.55 Q21.05 2.25 22.2 -2.0 18.9 3.05 14.25 5.7 M-3.1 -0.25 L-3.0 -2.1 Q-2.7 -5.25 0.4 -4.7 -2.7 -5.25 -3.0 -2.1 L-3.1 -0.25 M4.35 10.55 L6.5 9.9 5.95 6.95 3.05 7.45 4.35 10.55 M0.95 9.75 L0.95 8.85 -0.85 7.4 -2.0 9.3 0.95 9.75 M2.85 11.65 Q2.8 13.55 1.8 14.7 2.8 13.55 2.85 11.65 M-11.65 -7.05 L-8.25 -2.5 Q-5.3 1.3 -7.45 8.55 -5.0 4.45 -5.05 1.4 -7.0 -5.0 -11.65 -7.05 M-0.25 13.85 Q0.1 13.2 -0.3 12.9 0.1 13.2 -0.25 13.85 M-19.95 3.7 L-20.75 4.75 -20.0 5.35 -19.95 3.7 M-16.9 5.45 L-16.45 4.8 -17.55 3.15 Q-18.3 4.35 -17.45 5.7 L-17.4 6.15 -16.1 7.25 Q-11.9 6.45 -11.35 4.95 -14.3 6.15 -16.9 5.45 M-13.05 9.9 Q-16.05 11.05 -19.6 11.25 -16.05 11.05 -13.05 9.9 M-11.05 7.0 Q-16.0 10.3 -22.9 9.85 -16.0 10.3 -11.05 7.0" fill="#7c7c3f" fill-rule="evenodd" stroke="none"/>
    <path d="M2.35 -12.55 L3.5 -10.4 2.4 -8.55 Q1.8 -10.85 -0.55 -11.8 L0.65 -12.9 2.1 -12.75 2.35 -12.55 M10.95 -1.4 Q11.6 -6.15 15.25 -9.25 L16.4 -10.15 16.6 -10.3 17.2 -10.7 17.55 -10.9 17.5 -9.9 17.4 -9.85 Q14.8 -8.2 13.25 -5.3 L13.05 -4.9 Q11.95 -2.65 11.45 0.3 L10.95 -1.4" fill="#72c29c" fill-rule="evenodd" stroke="none"/>
    <path d="M8.25 14.25 L7.55 14.8 4.05 14.7 3.5 15.0 2.2 16.7 -1.9 16.3 -5.4 16.05 -6.65 16.55 -7.5 16.8 -8.15 15.25 1.8 14.7 4.05 14.7 4.55 14.45 4.7 12.35 5.9 11.4 Q8.0 12.75 8.25 14.25 M-10.6 17.45 L-14.4 17.0 -13.05 15.8 -10.2 15.45 -10.55 15.55 -10.6 17.45 M-16.45 16.35 L-18.4 15.35 -18.8 14.9 Q-9.6 8.85 -0.45 12.8 L-0.3 12.9 Q-9.2 13.05 -13.05 15.8 L-16.45 16.35 M0.4 -4.7 L0.35 -4.85 Q1.75 -5.9 3.0 -5.25 6.05 -3.65 4.8 -1.05 3.85 0.0 2.15 0.55 6.8 4.0 3.1 6.1 1.15 6.05 -0.2 4.25 L0.25 4.2 Q1.85 3.4 1.7 2.4 1.5 1.35 0.75 0.7 L0.15 0.4 -1.45 0.45 Q2.25 -2.55 0.4 -4.7 M14.25 5.7 Q18.9 3.05 22.2 -2.0 21.05 2.25 18.0 5.55 L14.25 5.7 M1.8 14.7 L0.75 15.55 1.8 14.7 M-5.45 -13.95 L-3.1 -14.9 Q0.2 -11.65 -3.2 -11.15 -3.4 -12.4 -5.45 -13.95 M-22.65 5.55 L-19.65 5.6 -19.4 6.0 -19.5 6.2 -19.35 6.1 -20.25 7.0 Q-22.0 6.6 -22.8 6.05 L-23.5 5.2 Q-23.1 5.4 -22.65 5.55 M-17.3 6.0 L-16.9 5.45 Q-14.3 6.15 -11.35 4.95 -11.9 6.45 -16.1 7.25 L-17.4 6.15 -17.15 6.2 -17.3 6.0 M-10.2 15.45 L-8.3 14.85 -8.15 15.25 -10.2 15.45" fill="#73733c" fill-rule="evenodd" stroke="none"/>
    <path d="M17.55 -10.9 L17.9 -11.0 19.25 -10.7 Q22.5 -10.0 23.85 -6.65 24.85 -4.2 24.2 -1.4 24.15 -7.95 17.65 -10.0 L17.5 -9.9 17.55 -10.9 M14.15 9.0 Q17.7 10.25 18.2 14.85 L18.25 15.7 18.25 15.75 Q18.25 17.15 17.75 18.2 L17.6 15.65 Q17.0 12.1 14.15 9.0 M-24.1 12.1 Q-25.4 8.85 -24.25 3.55 -23.1 -1.85 -20.4 -6.75 L-19.75 -7.85 -18.45 -8.65 -18.3 -9.85 Q-16.15 -12.5 -13.25 -14.0 -11.2 -15.05 -8.8 -15.55 L-8.1 -15.65 -5.45 -13.95 Q-18.45 -8.15 -22.65 5.55 -23.1 5.4 -23.5 5.2 L-22.8 6.05 Q-23.65 8.9 -24.1 12.1 M-13.2 -13.9 L-13.8 -13.3 -14.15 -12.55 -12.65 -12.3 -11.65 -13.05 -12.0 -14.1 -13.2 -13.9" fill="#b6c173" fill-rule="evenodd" stroke="none"/>
    <path d="M10.85 1.9 Q10.7 0.15 10.95 -1.4 L11.45 0.3 11.2 1.95 Q11.05 3.35 11.05 4.9 L10.9 5.4 10.85 1.9 M4.35 10.55 L3.05 7.45 5.95 6.95 6.5 9.9 4.35 10.55" fill="#579146" fill-rule="evenodd" stroke="none"/>
    <path d="M12.65 8.35 L12.4 8.3 11.0 8.15 10.95 8.1 10.9 5.4 11.05 4.9 11.95 2.45 Q12.6 5.45 12.65 8.35 M11.0 17.95 L10.15 16.4 9.65 14.9 9.3 13.2 9.65 12.55 10.1 11.4 Q10.65 13.6 11.4 15.0 L11.75 15.6 11.0 17.95" fill="#56562e" fill-rule="evenodd" stroke="none"/>
    <path d="M12.95 8.35 L12.85 8.35 12.65 8.35 Q12.6 5.45 11.95 2.45 L11.05 4.9 Q11.05 3.35 11.2 1.95 L11.45 0.3 11.95 2.45 Q14.95 -4.9 18.7 -6.25 14.7 -1.4 12.95 8.35 M11.0 8.15 L12.65 8.6 Q12.65 11.9 11.9 15.05 L11.75 15.6 Q13.1 17.75 15.0 17.5 13.65 16.8 13.15 15.15 12.35 12.85 13.1 8.7 L14.15 9.0 Q17.0 12.1 17.6 15.65 L17.75 18.2 Q16.95 19.7 15.0 20.5 13.75 21.05 12.7 20.05 L11.0 17.95 11.75 15.6 11.4 15.0 Q10.65 13.6 10.1 11.4 L11.0 8.15 M7.55 14.8 Q5.15 16.5 2.2 16.7 L3.5 15.0 4.05 14.7 7.55 14.8 M-7.5 16.8 L-10.6 17.45 -10.55 15.55 -10.2 15.45 -8.15 15.25 -7.5 16.8 M-14.4 17.0 L-16.45 16.35 -13.05 15.8 -14.4 17.0 M-18.8 14.9 Q-19.65 16.05 -20.8 15.9 L-22.3 14.8 Q-19.85 13.2 -17.4 12.3 L-15.9 11.8 -14.65 11.45 -13.75 11.3 -9.45 10.85 -8.5 10.85 -6.95 10.95 -6.05 11.05 -5.3 11.2 -5.1 11.25 -4.55 11.35 -2.6 11.85 -0.45 12.8 Q-9.6 8.85 -18.8 14.9 M-11.65 -7.05 Q-7.0 -5.0 -5.05 1.4 -5.0 4.45 -7.45 8.55 -5.3 1.3 -8.25 -2.5 L-11.65 -7.05" fill="#676736" fill-rule="evenodd" stroke="none"/>
    <path d="M0.95 9.75 L-2.0 9.3 -0.85 7.4 0.95 8.85 0.95 9.75" fill="#64a851" fill-rule="evenodd" stroke="none"/>
    <path d="M-5.4 16.05 L-3.75 17.95 -4.2 21.4 -4.65 21.7 Q-6.2 20.2 -6.55 18.15 L-6.65 16.55 -5.4 16.05 M-8.75 -15.9 Q-8.45 -20.2 -5.25 -21.65 L-5.1 -20.85 Q-4.8 -17.45 -7.3 -15.75 L-8.1 -15.65 -8.75 -15.9" fill="#58582c" fill-rule="evenodd" stroke="none"/>
    <path d="M-8.8 -15.55 L-8.75 -15.9 -8.1 -15.65 -8.8 -15.55 M-17.4 6.15 L-17.3 6.0 -17.15 6.2 -17.4 6.15" fill="#666633" fill-rule="evenodd" stroke="none"/>
    <path d="M-7.3 -15.75 L-3.45 -15.2 -3.1 -14.9 -5.45 -13.95 -8.1 -15.65 -7.3 -15.75" fill="#9caa4a" fill-rule="evenodd" stroke="none"/>
    <path d="M-13.2 -13.9 L-12.0 -14.1 -11.65 -13.05 -12.65 -12.3 -14.15 -12.55 -13.8 -13.3 -13.2 -13.9" fill="#9ad3b8" fill-rule="evenodd" stroke="none"/>
    <path d="M-19.95 3.7 L-20.0 5.35 -20.75 4.75 -19.95 3.7" fill="#000000" fill-rule="evenodd" stroke="none"/>
    <path d="M-17.45 5.7 Q-18.3 4.35 -17.55 3.15 L-16.45 4.8 -16.9 5.45 -17.3 6.0 -17.4 6.15 -17.45 5.7" fill="#3d3d1f" fill-rule="evenodd" stroke="none"/>
    <path d="M1.6 -13.05 L2.1 -12.75 2.35 -12.55 3.9 -11.25 M3.95 -11.2 Q6.1 -9.15 7.65 -6.15 9.6 -2.35 10.85 1.9 10.7 0.15 10.95 -1.4 11.6 -6.15 15.25 -9.25 L16.4 -10.15 M16.6 -10.3 L17.2 -10.7 17.55 -10.9 17.9 -11.0 19.25 -10.7 Q22.5 -10.0 23.85 -6.65 24.85 -4.2 24.2 -1.4 L23.2 1.2 Q21.3 5.15 17.35 7.2 L13.9 8.55 12.95 8.35 M12.4 8.3 L11.0 8.15 10.95 8.1 11.0 8.15 12.65 8.6 13.1 8.7 14.15 9.0 Q17.7 10.25 18.2 14.85 L18.25 15.7 M18.25 15.75 Q18.25 17.15 17.75 18.2 16.95 19.7 15.0 20.5 13.75 21.05 12.7 20.05 L11.0 17.95 10.15 16.4 9.65 14.9 9.3 13.2 8.25 14.25 7.55 14.8 Q5.15 16.5 2.2 16.7 L-1.9 16.3 -5.4 16.05 -3.75 17.95 -4.2 21.4 -4.65 21.7 Q-6.2 20.2 -6.55 18.15 L-6.65 16.55 -7.5 16.8 -10.6 17.45 -14.4 17.0 -16.45 16.35 -18.4 15.35 -18.8 14.9 Q-19.65 16.05 -20.8 15.9 L-22.3 14.8 Q-23.5 13.7 -24.1 12.1 -25.4 8.85 -24.25 3.55 -23.1 -1.85 -20.4 -6.75 L-19.75 -7.85 -18.45 -8.65 -18.3 -9.85 Q-16.15 -12.5 -13.25 -14.0 -11.2 -15.05 -8.8 -15.55 L-8.75 -15.9 Q-8.45 -20.2 -5.25 -21.65 L-5.1 -20.85 Q-4.8 -17.45 -7.3 -15.75 L-3.45 -15.2 -2.75 -15.0 Q-0.4 -14.35 1.6 -13.05 M0.4 -4.7 L0.35 -4.85 M-0.2 4.25 L-0.8 4.25 Q-1.65 4.25 -2.35 3.25 M10.85 1.9 L10.9 5.4 10.95 8.1 M-0.2 4.25 L0.25 4.2 Q1.85 3.4 1.7 2.4 1.5 1.35 0.75 0.7 L0.15 0.4 -1.45 0.45 Q2.25 -2.55 0.4 -4.7 -2.7 -5.25 -3.0 -2.1 L-3.1 -0.25 M10.1 11.4 L9.65 12.55 9.3 13.2 M0.75 15.55 L1.8 14.7 Q2.8 13.55 2.85 11.65 M10.1 11.4 L11.0 8.15 M-8.8 -15.55 L-8.1 -15.65 -8.75 -15.9 M-8.1 -15.65 L-7.3 -15.75 M-0.45 12.8 L-0.3 12.9 Q0.1 13.2 -0.25 13.85 M-5.4 16.05 L-6.65 16.55 M-18.8 14.9 Q-9.6 8.85 -0.45 12.8" fill="none" stroke="#663232" stroke-linecap="round" stroke-linejoin="round" stroke-opacity="0.43137255" stroke-width="0.05"/>
    <path d="M2.1 -12.75 L2.25 -12.7 1.6 -13.05 M2.35 -12.55 L2.25 -12.7 M3.9 -11.25 L3.95 -11.2" fill="none" stroke="#58582c" stroke-linecap="round" stroke-linejoin="round" stroke-width="0.05"/>
    <path d="M-19.95 3.7 L-20.75 4.75 -20.0 5.35 -19.95 3.7 M-16.9 5.45 L-16.45 4.8 -17.55 3.15 Q-18.3 4.35 -17.45 5.7 M-17.3 6.0 L-16.9 5.45" fill="none" stroke="#3d3d1f" stroke-linecap="round" stroke-linejoin="round" stroke-width="1.0"/>
    <path d="M-19.6 11.25 Q-16.05 11.05 -13.05 9.9 M-22.9 9.85 Q-16.0 10.3 -11.05 7.0" fill="none" stroke="#73733c" stroke-linecap="round" stroke-linejoin="round" stroke-width="1.0"/>
    <path d="M8.7 -11.35 L2.75 -10.95 2.2 -0.85 1.45 -10.35 -3.5 -11.4 1.3 -12.15 2.3 -20.5 3.0 -12.1 8.7 -11.35" fill="#ffffff" fill-rule="evenodd" stroke="none"/>
    <path d="M-19.9 3.35 L-19.45 3.55 Q-19.3 3.8 -19.4 4.05 L-19.75 4.4 -20.05 4.7 -20.35 4.6 -20.45 4.2 -20.25 3.65 -19.9 3.35 M-17.45 3.15 Q-17.2 2.85 -16.85 2.85 -16.55 2.8 -16.4 3.25 L-16.15 4.0 Q-16.05 4.25 -16.3 4.55 -16.55 4.8 -16.65 4.7 L-17.1 4.3 -17.55 3.75 Q-17.7 3.4 -17.45 3.15" fill="#f1f0da" fill-rule="evenodd" stroke="none"/>
    <path d="M1.5 -7.35 L-0.55 -7.9 -0.7 -7.95 -0.85 -8.85 0.7 -9.55 1.5 -7.35 M-7.45 -12.85 L-7.1 -12.7 Q-5.1 -12.05 -4.2 -10.65 -4.15 -9.05 -4.9 -7.95 -5.8 -6.8 -7.4 -6.15 -7.6 -8.05 -9.2 -9.5 L-11.8 -10.25 Q-9.6 -11.95 -7.45 -12.85" fill="#579146" fill-rule="evenodd" stroke="none"/>
    <path d="M8.1 -5.35 L7.25 -4.6 4.6 -5.25 2.65 -7.05 3.35 -9.2 5.1 -10.05 Q7.2 -7.5 8.1 -5.35" fill="#87bd77" fill-rule="evenodd" stroke="none"/>
    <path d="M-11.8 -10.25 L-12.4 -10.45 Q-11.5 -12.6 -9.05 -13.2 L-7.45 -12.85 Q-9.6 -11.95 -11.8 -10.25 M-2.4 -8.4 Q0.0 -7.3 -0.45 -5.2 L-3.4 -5.6 -4.65 -6.85 -2.4 -8.4" fill="#64a851" fill-rule="evenodd" stroke="none"/>
    <path d="M8.1 -5.35 Q7.2 -7.5 5.1 -10.05" fill="none" stroke="#663232" stroke-linecap="round" stroke-linejoin="round" stroke-opacity="0.43137255" stroke-width="0.05"/>
    <path d="M-1.1 -2.6 Q-1.9 -1.0 -2.05 0.95 -1.4 2.05 0.15 2.65 L-2.5 2.2 -2.75 -0.05 -1.1 -2.6" fill="#676736" fill-rule="evenodd" stroke="none"/>
    <path d="M-14.8 -0.9 Q-13.3 -0.3 -12.1 0.75 -10.9 1.8 -10.85 3.8 -10.85 5.8 -11.85 6.6 -12.9 7.4 -14.6 8.0 -16.3 8.55 -17.4 7.2 -18.5 5.8 -18.5 3.65 -18.55 1.5 -17.45 -0.05 -16.3 -1.55 -14.8 -0.9" fill="#f2f1dc" fill-opacity="0.2" fill-rule="evenodd" stroke="none"/>
  </g>
</svg>
