<?xml version="1.0" encoding="UTF-8" standalone="no"?>
<svg xmlns:xlink="http://www.w3.org/1999/xlink" height="45.6px" width="39.4px" xmlns="http://www.w3.org/2000/svg">
  <g transform="matrix(1.0, 0.0, 0.0, 1.0, -1.6, -15.4)">
    <path d="M28.8 39.95 L28.35 39.0 Q27.65 38.1 26.75 38.6 25.25 39.25 24.65 40.15 L24.1 39.65 22.2 39.45 Q20.5 39.85 19.4 40.65 L17.8 39.15 17.4 38.8 17.65 38.75 17.7 38.8 Q23.55 37.75 25.1 36.55 26.95 35.25 28.75 34.0 L34.6 34.15 38.3 34.45 41.0 34.8 39.2 35.05 35.5 35.25 32.85 36.75 28.8 39.95" fill="#333333" fill-rule="evenodd" stroke="none"/>
    <path d="M12.3 28.65 L13.35 28.7 Q14.45 29.0 14.35 30.0 14.35 31.65 13.75 32.55 L14.4 32.85 Q15.15 33.5 15.3 34.55 15.6 36.25 15.2 37.55 L17.2 38.45 17.7 38.7 17.65 38.45 17.6 38.4 Q16.35 32.65 16.9 30.75 L17.85 26.4 15.5 21.05 13.8 17.75 12.4 15.4 12.9 17.15 14.1 20.65 13.75 23.65 12.3 28.65" fill="#333333" fill-rule="evenodd" stroke="none"/>
    <path d="M22.9 29.15 Q23.85 28.4 24.3 29.0 L24.65 30.0 22.5 32.95 20.3 36.1 20.15 36.3 14.2 44.95 12.5 47.45 3.3 61.0 1.6 60.6 1.65 58.75 4.7 54.6 20.95 31.9 22.2 30.15 22.9 29.15" fill="#333333" fill-rule="evenodd" stroke="none"/>
    <path d="M22.9 29.15 L22.2 30.15 20.95 31.9 4.7 54.6 1.65 58.75 M3.3 61.0 L12.5 47.45 14.2 44.95 20.15 36.3 20.3 36.1 22.5 32.95 24.65 30.0" fill="none" stroke="#000000" stroke-linecap="round" stroke-linejoin="round" stroke-width="0.05"/>
  </g>
</svg>
