<?xml version="1.0" encoding="UTF-8" standalone="no"?>
<svg xmlns:xlink="http://www.w3.org/1999/xlink" height="240.05px" width="253.2px" xmlns="http://www.w3.org/2000/svg">
  <g transform="matrix(1.0, 0.0, 0.0, 1.0, 0.0, 0.0)">
    <path d="M183.75 228.25 L183.9 228.95 183.9 229.65 Q183.35 233.9 178.6 236.25 175.4 237.8 167.75 239.35 L158.2 239.9 Q153.65 239.5 151.8 237.8 151.05 237.1 150.4 235.5 149.25 232.85 149.95 231.4 L141.2 106.2 Q144.25 103.55 147.15 101.95 L153.5 163.6 150.7 170.0 157.65 178.75 154.55 197.3 162.4 180.0 155.9 169.15 160.9 157.8 157.7 153.6 154.85 99.4 Q158.8 99.05 162.5 100.8 L167.4 207.35 170.55 208.05 163.95 212.75 169.9 215.4 165.85 221.35 Q181.9 219.1 183.75 228.25 L183.8 228.85 183.8 228.7 183.75 228.25 M0.55 123.3 Q-0.15 120.05 0.05 116.2 L36.2 107.7 43.25 111.8 47.3 103.85 128.15 83.35 127.8 82.0 128.45 83.3 Q129.7 85.9 130.3 88.75 L130.3 88.85 48.1 111.7 45.85 116.8 40.3 113.4 38.75 117.45 34.35 114.25 0.55 123.3 M156.05 224.65 L153.95 225.65 Q151.25 227.8 149.95 231.4 151.25 227.8 153.95 225.65 L156.05 224.65" fill="#a34032" fill-rule="evenodd" stroke="none"/>
    <path d="M244.35 32.65 L251.45 46.7 240.0 57.7 230.1 47.2 231.7 46.0 233.7 44.55 231.15 34.0 236.55 36.55 239.0 33.3 244.35 32.65 M141.2 106.2 L140.45 95.3 140.4 95.0 140.3 95.0 138.95 86.8 138.0 80.85 138.95 86.8 130.3 88.75 Q129.7 85.9 128.45 83.3 L138.0 80.85 137.75 79.7 137.8 79.7 138.0 80.85 137.8 79.7 137.9 79.65 137.85 79.35 131.15 34.6 152.3 19.05 169.2 21.0 150.1 37.45 153.8 51.15 158.7 69.2 Q155.15 68.9 150.75 71.1 145.8 73.65 142.65 77.95 139.5 82.2 140.0 85.7 L140.2 86.55 Q140.5 87.75 141.35 88.55 L142.1 91.95 142.15 92.05 153.4 91.5 160.05 88.3 162.8 83.4 162.75 82.85 162.7 82.5 164.2 79.75 163.9 76.0 164.0 75.35 163.95 73.55 163.9 73.4 163.9 73.3 Q163.6 71.6 162.5 70.65 L175.6 68.65 175.9 87.5 169.8 88.3 169.85 88.5 169.0 88.6 163.3 86.45 162.8 83.4 163.3 86.45 166.3 103.15 Q164.45 101.7 162.5 100.8 158.8 99.05 154.85 99.4 151.1 99.7 147.15 101.95 144.25 103.55 141.2 106.2 M239.4 43.65 L241.75 47.35 244.15 42.4 242.1 40.75 239.4 43.65" fill="#9195bd" fill-rule="evenodd" stroke="none"/>
    <path d="M251.45 46.7 L253.2 63.45 216.1 98.9 214.35 82.5 214.3 82.25 240.0 57.7 251.45 46.7 M196.5 25.75 L187.1 25.85 187.05 25.45 184.5 8.5 194.95 8.5 192.35 16.2 198.2 22.35 196.5 25.75 M231.7 46.0 L229.6 37.6 229.3 36.55 228.0 21.2 231.15 34.0 233.7 44.55 231.7 46.0" fill="#686fa4" fill-rule="evenodd" stroke="none"/>
    <path d="M152.3 19.05 L168.15 7.35 191.35 0.75 192.5 0.85 195.35 8.5 194.95 8.5 184.5 8.5 183.7 8.5 169.2 21.0 152.3 19.05 M158.7 69.2 L159.6 69.35 Q161.4 69.65 162.5 70.65 163.6 71.6 163.9 73.3 L163.9 73.4 163.95 73.55 164.0 75.35 163.9 76.0 Q163.55 77.75 162.45 79.65 L162.3 79.9 161.3 81.35 Q158.55 85.05 154.45 87.45 L153.2 88.1 149.95 89.45 Q146.9 90.4 144.35 89.95 142.45 89.6 141.35 88.55 140.5 87.75 140.2 86.55 L140.0 85.7 Q139.5 82.2 142.65 77.95 145.8 73.65 150.75 71.1 155.15 68.9 158.7 69.2 M175.6 68.65 L207.3 63.75 230.1 47.2 240.0 57.7 214.3 82.25 213.95 82.55 175.9 87.5 175.6 68.65 M179.35 8.2 L183.35 6.35 180.35 5.25 179.35 8.2 M158.05 76.55 Q158.55 75.75 158.55 74.75 158.55 73.25 157.4 72.15 156.3 71.1 154.75 71.1 153.2 71.1 152.05 72.15 150.95 73.25 150.95 74.75 L150.95 74.9 Q151.0 76.3 152.05 77.3 153.2 78.4 154.75 78.4 156.3 78.4 157.4 77.3 L158.0 76.7 158.05 76.75 158.05 76.55" fill="#aeb1ce" fill-rule="evenodd" stroke="none"/>
    <path d="M216.1 98.9 L215.75 99.15 171.6 104.9 169.85 88.5 169.8 88.3 175.9 87.5 213.95 82.55 214.35 82.5 216.1 98.9 M186.6 25.85 L153.8 51.15 150.1 37.45 169.2 21.0 183.7 8.5 184.5 8.5 187.05 25.45 186.6 25.85" fill="#545b8d" fill-rule="evenodd" stroke="none"/>
    <path d="M171.6 104.9 L171.0 105.25 166.05 104.7 166.3 103.15 163.3 86.45 169.0 88.6 169.85 88.5 171.6 104.9 M140.3 95.0 L130.35 97.9 Q131.1 93.15 130.3 88.85 L130.3 88.75 138.95 86.8 140.3 95.0 M163.9 76.0 L164.2 79.75 162.7 82.5 162.3 79.9 162.7 82.5 162.75 82.85 162.8 83.4 160.05 88.3 153.4 91.5 142.15 92.05 142.1 91.95 141.35 88.55 Q142.45 89.6 144.35 89.95 146.9 90.4 149.95 89.45 L153.2 88.1 154.45 87.45 Q158.55 85.05 161.3 81.35 L162.3 79.9 162.45 79.65 Q163.55 77.75 163.9 76.0" fill="#4b527e" fill-rule="evenodd" stroke="none"/>
    <path d="M127.8 82.0 L137.75 79.7 138.0 80.85 128.45 83.3 127.8 82.0 M158.0 76.7 L157.4 77.3 Q156.3 78.4 154.75 78.4 153.2 78.4 152.05 77.3 151.0 76.3 150.95 74.9 L150.95 74.75 Q150.95 73.25 152.05 72.15 153.2 71.1 154.75 71.1 156.3 71.1 157.4 72.15 158.55 73.25 158.55 74.75 158.55 75.75 158.05 76.55 L158.0 76.7" fill="#cdcfe0" fill-rule="evenodd" stroke="none"/>
    <path d="M166.05 104.7 L183.75 228.25 Q181.9 219.1 165.85 221.35 L169.9 215.4 163.95 212.75 170.55 208.05 167.4 207.35 162.5 100.8 Q164.45 101.7 166.3 103.15 L166.05 104.7 M130.35 97.9 L6.65 133.55 Q1.9 129.7 0.55 123.3 L34.35 114.25 38.75 117.45 40.3 113.4 45.85 116.8 48.1 111.7 130.3 88.85 Q131.1 93.15 130.35 97.9" fill="#7d3126" fill-rule="evenodd" stroke="none"/>
    <path d="M0.05 116.2 Q0.15 113.85 0.55 111.25 L127.8 82.0 128.15 83.35 47.3 103.85 43.25 111.8 36.2 107.7 0.05 116.2 M147.15 101.95 Q151.1 99.7 154.85 99.4 L157.7 153.6 160.9 157.8 155.9 169.15 162.4 180.0 154.55 197.3 157.65 178.75 150.7 170.0 153.5 163.6 147.15 101.95" fill="#cc6657" fill-rule="evenodd" stroke="none"/>
    <path d="M168.15 7.35 L178.1 0.0 191.35 0.75 168.15 7.35" fill="#caccdf" fill-rule="evenodd" stroke="none"/>
    <path d="M183.75 228.25 L183.8 228.7 183.8 228.85 183.75 228.25" fill="#65271f" fill-rule="evenodd" stroke="none"/>
    <path d="M216.8 2.2 L219.35 2.35 219.4 2.8 212.55 8.5 212.25 8.5 212.25 8.55 213.9 25.55 196.5 25.75 198.2 22.35 192.35 16.2 194.95 8.5 195.35 8.5 205.2 8.5 205.9 8.5 216.8 2.2 M228.0 21.2 L227.75 20.2 235.0 14.1 244.35 32.65 239.0 33.3 236.55 36.55 231.15 34.0 228.0 21.2 M212.25 8.5 L205.9 8.5 212.25 8.5" fill="#c92929" fill-rule="evenodd" stroke="none"/>
    <path d="M192.5 0.85 L216.8 2.2 205.9 8.5 205.2 8.5 195.35 8.5 192.5 0.85 M219.4 2.8 L221.05 19.95 213.95 25.55 213.9 25.55 212.25 8.55 212.55 8.5 219.4 2.8 M239.4 43.65 L242.1 40.75 244.15 42.4 241.75 47.35 239.4 43.65 M179.35 8.2 L180.35 5.25 183.35 6.35 179.35 8.2" fill="#e06767" fill-rule="evenodd" stroke="none"/>
    <path d="M244.35 32.65 L251.45 46.7 253.2 63.45 216.1 98.9 215.75 99.15 171.6 104.9 169.85 88.5 169.8 88.3 175.9 87.5 213.95 82.55 214.3 82.25 240.0 57.7 251.45 46.7 M183.75 228.25 L183.9 228.95 M151.8 237.8 Q151.05 237.1 150.4 235.5 149.25 232.85 149.95 231.4 151.25 227.8 153.95 225.65 L156.05 224.65 M137.85 79.35 L131.15 34.6 152.3 19.05 168.15 7.35 178.1 0.0 191.35 0.75 192.5 0.85 216.8 2.2 219.35 2.35 219.4 2.8 221.05 19.95 213.95 25.55 213.9 25.65 213.9 25.55 196.5 25.75 187.1 25.85 186.6 25.85 153.8 51.15 158.7 69.2 159.6 69.35 Q161.4 69.65 162.5 70.65 L175.6 68.65 207.3 63.75 230.1 47.2 231.7 46.0 233.7 44.55 231.15 34.0 228.0 21.2 227.75 20.2 235.0 14.1 244.35 32.65 M229.6 37.6 L229.3 36.55 228.0 21.2 M212.25 8.55 L213.9 25.55 213.95 25.55 M212.25 8.5 L212.55 8.5 219.4 2.8 M212.25 8.5 L212.25 8.55 M205.9 8.5 L212.25 8.5 M194.95 8.5 L195.35 8.5 205.2 8.5 M169.2 21.0 L183.7 8.5 184.5 8.5 194.95 8.5 M187.05 25.45 L186.6 25.85 M187.05 25.45 L187.1 25.85 M184.5 8.5 L187.05 25.45 M164.0 75.35 L163.95 73.55 163.9 73.4 163.9 73.3 Q163.6 71.6 162.5 70.65 M163.9 76.0 Q163.55 77.75 162.45 79.65 L162.3 79.9 161.3 81.35 Q158.55 85.05 154.45 87.45 L153.2 88.1 149.95 89.45 Q146.9 90.4 144.35 89.95 142.45 89.6 141.35 88.55 140.5 87.75 140.2 86.55 L140.0 85.7 Q139.5 82.2 142.65 77.95 145.8 73.65 150.75 71.1 155.15 68.9 158.7 69.2 M214.35 82.5 L216.1 98.9 M214.3 82.25 L214.35 82.5 M137.9 79.65 L137.85 79.35 M153.8 51.15 L150.1 37.45 169.2 21.0" fill="none" stroke="#660066" stroke-linecap="round" stroke-linejoin="round" stroke-opacity="0.24313726" stroke-width="0.05"/>
    <path d="M171.0 105.25 L166.05 104.7 183.75 228.25 M183.9 229.65 Q183.35 233.9 178.6 236.25 175.4 237.8 167.75 239.35 L158.2 239.9 Q153.65 239.5 151.8 237.8 M149.95 231.4 L141.2 106.2 140.45 95.3 140.3 95.0 130.35 97.9 6.65 133.55 Q1.9 129.7 0.55 123.3 -0.15 120.05 0.05 116.2 0.15 113.85 0.55 111.25 L127.8 82.0 137.75 79.7 137.8 79.7 137.85 79.35 M231.7 46.0 L229.6 37.6 M162.3 79.9 L162.7 82.5 M162.75 82.85 L162.8 83.4 163.3 86.45 169.0 88.6 M162.5 100.8 Q164.45 101.7 166.3 103.15 L163.3 86.45 M166.3 103.15 L166.05 104.7 M138.0 80.85 L137.8 79.7 137.9 79.65 M127.8 82.0 L128.45 83.3 Q129.7 85.9 130.3 88.75 L130.3 88.85 Q131.1 93.15 130.35 97.9 M138.0 80.85 L138.95 86.8 140.3 95.0 140.4 95.0 140.45 95.3 M147.15 101.95 Q151.1 99.7 154.85 99.4 158.8 99.05 162.5 100.8 M141.2 106.2 Q144.25 103.55 147.15 101.95" fill="none" stroke="#660066" stroke-linecap="round" stroke-linejoin="round" stroke-opacity="0.24313726" stroke-width="0.05"/>
    <path d="M224.7 133.6 L223.1 133.9" fill="none" stroke="#66ff00" stroke-linecap="round" stroke-linejoin="round" stroke-width="0.05"/>
  </g>
</svg>
