<?xml version="1.0" encoding="UTF-8" standalone="no"?>
<svg xmlns:xlink="http://www.w3.org/1999/xlink" height="38.05px" width="40.6px" xmlns="http://www.w3.org/2000/svg">
  <g transform="matrix(1.0, 0.0, 0.0, 1.0, 18.5, 27.55)">
    <path d="M18.6 -17.55 Q17.5 -20.45 14.75 -22.5 13.2 -23.75 11.55 -24.45 L11.65 -25.25 Q14.1 -24.45 16.25 -22.8 L17.35 -21.85 Q18.4 -19.95 18.6 -17.55 M21.2 -16.15 Q21.75 -14.45 21.95 -12.45 22.55 -4.5 16.25 2.2 L13.3 5.0 Q6.8 10.4 -1.8 10.4 -12.5 10.4 -16.75 2.2 -17.55 0.6 -17.95 -1.05 L-18.3 -2.9 -17.5 -1.05 -17.45 -0.9 Q-13.2 7.3 -2.5 7.3 6.6 7.3 13.3 1.3 L15.55 -0.9 Q21.85 -7.6 21.25 -15.55 L21.2 -16.15 M-14.2 -16.1 Q-11.35 -20.1 -6.8 -22.8 -3.5 -24.8 0.0 -25.55 L-0.25 -24.7 Q-2.8 -24.05 -5.15 -22.5 -10.75 -19.25 -13.15 -13.85 -14.75 -10.25 -14.5 -7.0 -16.1 -11.25 -14.2 -16.1" fill="#2f2113" fill-rule="evenodd" stroke="none"/>
    <path d="M18.6 -17.55 Q18.4 -19.95 17.35 -21.85 20.05 -19.45 21.2 -16.15 L21.25 -15.55 Q21.85 -7.6 15.55 -0.9 L13.3 1.3 Q6.6 7.3 -2.5 7.3 -13.2 7.3 -17.45 -0.9 L-17.5 -1.05 -18.3 -2.9 Q-18.8 -7.45 -16.35 -12.45 L-14.2 -16.1 Q-16.1 -11.25 -14.5 -7.0 -14.3 -4.4 -12.85 -1.95 L-12.3 -1.05 Q-8.6 4.4 -0.6 4.4 7.35 4.4 13.25 -1.05 L14.2 -1.95 Q19.65 -7.35 19.35 -13.85 19.25 -15.85 18.6 -17.55" fill="url(#gradient0)" fill-rule="evenodd" stroke="none"/>
    <path d="M17.35 -21.85 L16.25 -22.8 Q14.1 -24.45 11.65 -25.25 L11.55 -24.45 Q13.2 -23.75 14.75 -22.5 17.5 -20.45 18.6 -17.55 19.25 -15.85 19.35 -13.85 19.65 -7.35 14.2 -1.95 L13.25 -1.05 Q7.35 4.4 -0.6 4.4 -8.6 4.4 -12.3 -1.05 L-12.85 -1.95 Q-14.3 -4.4 -14.5 -7.0 -14.75 -10.25 -13.15 -13.85 -10.75 -19.25 -5.15 -22.5 -2.8 -24.05 -0.25 -24.7 L0.0 -25.55 Q-3.5 -24.8 -6.8 -22.8 -11.35 -20.1 -14.2 -16.1 L-16.35 -12.45 Q-18.8 -7.45 -18.3 -2.9 L-17.95 -1.05 Q-17.55 0.6 -16.75 2.2 -12.5 10.4 -1.8 10.4 6.8 10.4 13.3 5.0 L16.25 2.2 Q22.55 -4.5 21.95 -12.45 21.75 -14.45 21.2 -16.15 20.05 -19.45 17.35 -21.85 Z" fill="none" stroke="#000000" stroke-linecap="round" stroke-linejoin="round" stroke-opacity="0.5019608" stroke-width="0.25"/>
    <path d="M14.6 -26.9 L15.0 -26.55 Q15.9 -25.65 15.9 -24.4 15.9 -23.15 15.0 -22.25 14.1 -21.35 12.85 -21.35 11.6 -21.35 10.7 -22.25 9.95 -23.0 9.85 -23.95 10.35 -23.4 11.25 -23.35 12.3 -23.35 13.25 -24.1 14.2 -24.85 14.5 -25.9 L14.6 -26.9" fill="#2f2113" fill-rule="evenodd" stroke="none"/>
    <path d="M9.85 -23.95 L9.8 -24.4 Q9.8 -25.65 10.7 -26.55 11.6 -27.45 12.85 -27.45 13.85 -27.45 14.6 -26.9 L14.5 -25.9 Q14.2 -24.85 13.25 -24.1 12.3 -23.35 11.25 -23.35 10.35 -23.4 9.85 -23.95" fill="url(#gradient1)" fill-rule="evenodd" stroke="none"/>
    <path d="M9.85 -23.95 L9.8 -24.4 Q9.8 -25.65 10.7 -26.55 11.6 -27.45 12.85 -27.45 13.85 -27.45 14.6 -26.9 L15.0 -26.55 Q15.9 -25.65 15.9 -24.4 15.9 -23.15 15.0 -22.25 14.1 -21.35 12.85 -21.35 11.6 -21.35 10.7 -22.25 9.95 -23.0 9.85 -23.95 Z" fill="none" stroke="#000000" stroke-linecap="round" stroke-linejoin="round" stroke-opacity="0.5019608" stroke-width="0.25"/>
  </g>
  <defs>
    <linearGradient gradientTransform="matrix(-0.024, 0.0033, -0.0024, -0.0176, 1.45, -7.3)" gradientUnits="userSpaceOnUse" id="gradient0" spreadMethod="pad" x1="-819.2" x2="819.2">
      <stop offset="0.0" stop-color="#5e4226"/>
      <stop offset="1.0" stop-color="#976a3e"/>
    </linearGradient>
    <linearGradient gradientTransform="matrix(0.0153, 0.0, 0.0, 0.0025, 12.65, -26.0)" gradientUnits="userSpaceOnUse" id="gradient1" spreadMethod="pad" x1="-819.2" x2="819.2">
      <stop offset="0.0" stop-color="#5e4226"/>
      <stop offset="1.0" stop-color="#976a3e"/>
    </linearGradient>
  </defs>
</svg>
