<?xml version="1.0" encoding="UTF-8" standalone="no"?>
<svg xmlns:xlink="http://www.w3.org/1999/xlink" height="38.3px" width="37.1px" xmlns="http://www.w3.org/2000/svg">
  <g transform="matrix(1.0, 0.0, 0.0, 1.0, 18.55, 19.15)">
    <path d="M-13.35 10.9 L-17.85 9.95 -18.45 4.45 -18.2 1.7 -14.1 2.35 -13.35 10.9 -14.1 2.35 -6.5 3.45 -6.45 3.45 -4.95 3.7 -0.6 5.2 0.5 13.75 0.4 13.75 -9.05 11.8 -13.35 10.9 M6.75 -7.0 L7.05 -6.95 10.25 -6.55 4.55 -6.0 3.25 -5.85 1.85 -5.7 1.1 -6.75 6.75 -7.0 M17.4 -5.1 L15.0 -3.8 14.85 -3.7 12.8 -3.55 12.55 -4.4 17.4 -5.1 M10.45 -1.35 L8.3 -0.25 6.25 0.5 -0.6 0.7 1.55 -0.35 -0.6 0.7 -2.0 0.7 -5.05 2.15 -9.1 1.95 -10.25 0.95 -8.75 -0.15 -5.0 -1.6 -0.05 -0.65 0.0 -0.65 1.55 -0.35 2.6 -0.8 10.45 -1.35 M7.05 -6.95 L4.55 -6.0 7.05 -6.95 M-6.2 8.15 L-6.45 3.45 -6.2 8.15" fill="#ac8b40" fill-rule="evenodd" stroke="none"/>
    <path d="M-14.1 2.35 L-18.2 1.7 -16.75 0.25 0.2 -7.85 6.75 -7.0 1.1 -6.75 1.85 -5.7 3.25 -5.85 4.55 -6.0 10.25 -6.55 18.05 -5.5 17.4 -5.1 12.55 -4.4 12.8 -3.55 14.85 -3.7 15.0 -3.8 18.1 -5.3 10.45 -1.35 2.6 -0.8 1.55 -0.35 0.0 -0.65 -0.05 -0.65 -5.0 -1.6 -8.75 -0.15 -10.25 0.95 -9.1 1.95 -5.05 2.15 -2.0 0.7 -0.6 0.7 6.25 0.5 Q-1.15 3.2 -4.95 3.7 L-6.45 3.45 -6.5 3.45 -14.1 2.35 -11.45 1.25 -14.1 2.35 M14.85 -3.7 L14.8 -3.7 15.0 -3.8 14.8 -3.7 14.85 -3.7 M-0.6 0.7 L-6.5 3.45 -0.6 0.7 M6.2 -2.55 L2.6 -0.8 6.2 -2.55" fill="#cdb874" fill-rule="evenodd" stroke="none"/>
    <path d="M18.1 -5.3 L18.1 -5.2 18.45 -1.95 18.1 1.2 17.75 4.3 12.75 7.0 5.6 10.95 0.9 13.5 0.5 13.75 -0.6 5.2 8.3 -0.25 10.45 -1.35 18.1 -5.3 M9.15 5.9 L18.1 1.2 9.15 5.9" fill="#857230" fill-rule="evenodd" stroke="none"/>
    <path d="M6.25 0.5 L8.3 -0.25 -0.6 5.2 -4.95 3.7 Q-1.15 3.2 6.25 0.5 M-0.65 4.45 L-0.65 4.4 -0.75 4.4 -0.65 4.45" fill="#e7d992" fill-rule="evenodd" stroke="none"/>
    <path d="M7.2 18.7 L6.25 19.05 Q2.3 17.5 -5.5 16.1 L-5.55 16.1 Q-6.1 14.9 -6.6 16.05 L-6.6 15.9 -7.5 15.75 -7.6 16.25 -8.4 15.1 -9.65 15.6 -9.0 14.9 Q-8.3 14.8 -8.65 13.15 L-9.05 11.8 0.4 13.75 0.5 13.8 0.9 13.5 5.6 10.95 6.8 16.65 6.45 18.5 6.25 19.05 6.45 18.5 6.8 16.65 7.2 18.7 M-5.55 15.5 L-5.5 16.1 -5.55 15.5 M-6.6 15.9 L-6.7 14.25 -6.6 15.9" fill="#615223" fill-rule="evenodd" stroke="none"/>
    <path d="M12.75 7.0 L12.6 12.9 13.15 14.6 13.95 15.25 12.55 15.45 12.55 15.7 12.5 15.7 13.15 16.55 11.75 16.15 7.25 18.7 7.2 18.7 6.8 16.65 5.6 10.95 12.75 7.0 M12.5 15.7 L12.55 15.45 12.5 15.7 M11.05 15.9 L11.75 16.15 11.05 15.9" fill="#7c642e" fill-rule="evenodd" stroke="none"/>
    <path d="M-18.2 1.7 L-18.45 4.45 -17.85 9.95 -13.35 10.9 -9.05 11.8 -8.65 13.15 Q-8.3 14.8 -9.0 14.9 L-9.65 15.6 -8.4 15.1 -7.6 16.25 -7.5 15.75 -6.6 15.9 -6.6 16.05 Q-6.1 14.9 -5.55 16.1 L-5.5 16.1 -5.55 15.5 M-18.2 1.7 L-16.75 0.25 0.2 -7.85 6.75 -7.0 7.05 -6.95 10.25 -6.55 18.05 -5.5 17.4 -5.1 15.0 -3.8 18.1 -5.3 18.1 -5.2 18.45 -1.95 18.1 1.2 17.75 4.3 12.75 7.0 12.6 12.9 13.15 14.6 13.95 15.25 12.55 15.45 12.55 15.7 12.5 15.7 13.15 16.55 11.75 16.15 7.25 18.7 7.2 18.7 6.25 19.05 Q2.3 17.5 -5.5 16.1 M15.0 -3.8 L14.8 -3.7 14.85 -3.7 15.0 -3.8 M0.5 13.75 L0.9 13.5 5.6 10.95 12.75 7.0 M0.4 13.75 L0.5 13.8 0.9 13.5 M0.5 13.75 L0.4 13.75 -9.05 11.8 M-6.7 14.25 L-6.6 15.9 M6.8 16.65 L6.45 18.5 6.25 19.05 M7.2 18.7 L6.8 16.65 M11.75 16.15 L11.05 15.9 M12.55 15.45 L12.5 15.7" fill="none" stroke="#281a13" stroke-linecap="round" stroke-linejoin="round" stroke-opacity="0.5019608" stroke-width="0.25"/>
    <path d="M-13.35 10.9 L-14.1 2.35 -11.45 1.25 M2.6 -0.8 L1.55 -0.35 -0.6 0.7 -6.5 3.45 M18.1 1.2 L9.15 5.9 M3.25 -5.85 L4.55 -6.0 7.05 -6.95 M2.6 -0.8 L6.2 -2.55 M-6.45 3.45 L-6.2 8.15" fill="none" stroke="#291a13" stroke-linecap="round" stroke-linejoin="round" stroke-opacity="0.2" stroke-width="0.25"/>
    <path d="M-3.8 -19.0 L-2.6 -18.85 Q-1.95 -18.7 -1.3 -17.85 L-2.7 -17.9 -3.8 -19.0 -2.7 -17.9 Q-3.45 -17.7 -4.2 -17.0 L-4.6 -16.6 -4.7 -16.3 -5.05 -15.45 -6.1 -12.3 -6.55 -10.1 -5.8 -9.4 -5.95 -8.85 Q-6.1 -8.3 -6.6 -8.0 L-7.6 -7.85 Q-8.2 -8.0 -8.45 -8.5 L-8.6 -9.5 -7.45 -13.5 -6.4 -13.0 -6.1 -12.3 -6.4 -13.0 -7.45 -13.5 -6.05 -16.85 Q-4.95 -18.7 -3.8 -19.0 M-5.35 -15.65 L-6.05 -16.85 -5.35 -15.65" fill="#94a802" fill-rule="evenodd" stroke="none"/>
    <path d="M1.1 -5.45 L0.8 -5.5 0.65 -5.5 1.1 -5.45 0.65 -5.5 -0.25 -5.55 -0.5 -5.55 Q-0.75 -5.65 -0.8 -6.0 L-1.1 -8.05 0.15 -8.05 1.3 -9.9 0.15 -8.05 -1.1 -8.05 Q-2.0 -13.15 -2.8 -15.1 -3.2 -16.05 -3.55 -16.3 -3.9 -16.4 -4.6 -13.9 L-5.05 -15.45 -4.7 -16.3 -4.6 -16.6 -4.2 -17.0 Q-3.45 -17.7 -2.7 -17.9 L-1.3 -17.85 -0.2 -15.65 1.3 -9.9 1.9 -6.45 Q2.0 -5.9 1.65 -5.65 L1.1 -5.45 M-5.8 -9.4 L-6.55 -10.1 -6.1 -12.3 -5.05 -15.45 -4.6 -13.9 -5.4 -11.15 -5.8 -9.4 M-2.8 -15.1 L-1.8 -16.45 -2.4 -17.6 -2.7 -17.9 -2.4 -17.6 -1.8 -16.45 -2.8 -15.1 M-0.75 -13.5 L-0.2 -15.65 -0.75 -13.5 M-6.1 -12.3 L-5.4 -11.15 -6.1 -12.3 M-7.35 1.0 L-8.65 0.85 -8.75 0.85 Q-7.85 -2.4 -8.85 -5.6 L-7.15 -6.0 Q-6.3 -3.25 -6.3 -0.5 L-6.35 0.25 -6.35 0.4 -6.35 0.45 -7.05 1.0 -7.35 1.0 -7.05 1.0 -7.1 1.05 -7.35 1.0" fill="#646402" fill-rule="evenodd" stroke="none"/>
    <path d="M0.65 -5.5 L0.8 -5.5 1.1 -5.45 1.65 -5.65 Q2.0 -5.9 1.9 -6.45 L1.3 -9.9 -0.2 -15.65 -1.3 -17.85 Q-1.95 -18.7 -2.6 -18.85 L-3.8 -19.0 Q-4.95 -18.7 -6.05 -16.85 L-7.45 -13.5 -8.6 -9.5 -8.45 -8.5 Q-8.2 -8.0 -7.6 -7.85 L-6.6 -8.0 Q-6.1 -8.3 -5.95 -8.85 L-5.8 -9.4 -5.4 -11.15 -4.6 -13.9 Q-3.9 -16.4 -3.55 -16.3 -3.2 -16.05 -2.8 -15.1 -2.0 -13.15 -1.1 -8.05 L-0.8 -6.0 Q-0.75 -5.65 -0.5 -5.55 L-0.25 -5.55 0.65 -5.5" fill="none" stroke="#3d4201" stroke-linecap="round" stroke-linejoin="round" stroke-opacity="0.56078434" stroke-width="0.25"/>
    <path d="M1.3 -9.9 L0.15 -8.05 -1.1 -8.05 M-3.8 -19.0 L-2.7 -17.9 -2.4 -17.6 -1.8 -16.45 -2.8 -15.1 M-6.1 -12.3 L-6.4 -13.0 -7.45 -13.5 M-6.05 -16.85 L-5.35 -15.65 M-0.2 -15.65 L-0.75 -13.5 M-4.6 -13.9 L-5.05 -15.45 M-5.4 -11.15 L-6.1 -12.3" fill="none" stroke="#333201" stroke-linecap="round" stroke-linejoin="round" stroke-opacity="0.3137255" stroke-width="0.25"/>
    <path d="M1.1 -5.45 L0.65 -5.5 -2.2 -4.4 -0.5 -5.55 M13.9 -4.9 L15.5 -5.4 13.2 -3.8 M11.95 -3.8 L9.05 -2.05 12.4 -3.7 M-7.05 1.0 L-6.35 0.45 -6.35 0.4 -6.35 0.25 -6.3 -0.5 Q-6.3 -3.25 -7.15 -6.0 L-8.85 -5.6 Q-7.85 -2.4 -8.75 0.85 L-8.65 0.85 -7.35 1.0 -7.05 1.0 -7.1 1.05 -7.35 1.0 -9.95 1.9 -8.65 0.85 M-7.35 -6.65 L-7.15 -6.0 -6.55 -6.15 M-6.3 -0.5 L-2.3 -1.85 Q-4.35 -0.75 -6.35 0.4" fill="none" stroke="#281a13" stroke-linecap="round" stroke-linejoin="round" stroke-opacity="0.5019608" stroke-width="0.25"/>
    <path d="M7.7 9.75 L8.3 12.35 M10.95 16.4 L10.65 11.5" fill="none" stroke="#291a13" stroke-linecap="round" stroke-linejoin="round" stroke-opacity="0.3019608" stroke-width="0.25"/>
    <path d="M9.45 -14.1 L9.05 -14.25 4.7 -14.1 4.2 -14.55 2.2 -15.25 7.8 -15.45 9.15 -14.85 9.45 -14.1 M13.2 -3.7 L12.8 -3.6 Q12.2 -3.6 11.8 -3.95 11.35 -4.3 11.3 -4.85 L10.95 -7.15 11.95 -7.7 Q12.8 -6.0 13.2 -3.7 M-3.0 -11.85 L0.0 -12.35 0.7 -12.2 Q-1.7 -10.75 -4.35 -8.3 -4.75 -7.9 -5.35 -7.8 -5.7 -8.2 -5.7 -8.7 -5.75 -9.3 -5.3 -9.7 L-3.0 -11.85" fill="#94a802" fill-rule="evenodd" stroke="none"/>
    <path d="M4.7 -14.1 L9.05 -14.25 9.45 -14.1 9.95 -12.9 9.3 -10.9 9.95 -12.9 9.45 -14.1 11.5 -12.8 12.85 -10.45 12.95 -10.2 12.4 -7.95 11.95 -7.7 12.4 -7.95 12.95 -10.2 Q13.75 -8.05 14.05 -5.1 L13.7 -4.1 13.2 -3.7 Q12.8 -6.0 11.95 -7.7 11.15 -9.3 10.0 -10.3 L9.45 -10.75 9.3 -10.9 Q8.3 -12.25 6.85 -12.85 L5.95 -13.0 4.7 -14.1 5.95 -13.0 Q4.1 -13.2 1.85 -11.95 -0.35 -10.8 -2.9 -8.25 L-3.35 -7.8 -3.95 -7.4 -4.3 -7.35 Q-4.9 -7.35 -5.3 -7.75 L-5.35 -7.8 Q-4.75 -7.9 -4.35 -8.3 -1.7 -10.75 0.7 -12.2 2.8 -13.55 4.7 -14.1 M0.7 -12.2 L1.85 -11.95 0.7 -12.2" fill="#787d02" fill-rule="evenodd" stroke="none"/>
    <path d="M2.2 -15.25 L4.2 -14.55 4.7 -14.1 Q2.8 -13.55 0.7 -12.2 L0.0 -12.35 -3.0 -11.85 -0.85 -13.55 Q0.7 -14.65 2.2 -15.25" fill="#9cb103" fill-rule="evenodd" stroke="none"/>
    <path d="M9.45 -14.1 L9.15 -14.85 9.75 -14.45 11.5 -12.8 9.45 -14.1 M9.45 -10.75 L10.0 -10.3 Q11.15 -9.3 11.95 -7.7 L10.95 -7.15 Q10.45 -9.35 9.45 -10.75" fill="#829403" fill-rule="evenodd" stroke="none"/>
    <path d="M9.15 -14.85 L7.8 -15.45 2.2 -15.25 Q0.7 -14.65 -0.85 -13.55 L-3.0 -11.85 -5.3 -9.7 Q-5.75 -9.3 -5.7 -8.7 -5.7 -8.2 -5.35 -7.8 L-5.3 -7.75 Q-4.9 -7.35 -4.3 -7.35 L-3.95 -7.4 -3.35 -7.8 -2.9 -8.25 Q-0.35 -10.8 1.85 -11.95 4.1 -13.2 5.95 -13.0 L6.85 -12.85 Q8.3 -12.25 9.3 -10.9 L9.45 -10.75 Q10.45 -9.35 10.95 -7.15 L11.3 -4.85 Q11.35 -4.3 11.8 -3.95 12.2 -3.6 12.8 -3.6 L13.2 -3.7 13.7 -4.1 14.05 -5.1 Q13.75 -8.05 12.95 -10.2 M11.5 -12.8 L9.75 -14.45 9.15 -14.85 M12.85 -10.45 L11.5 -12.8" fill="none" stroke="#3d4201" stroke-linecap="round" stroke-linejoin="round" stroke-opacity="0.56078434" stroke-width="0.25"/>
    <path d="M9.45 -14.1 L9.15 -14.85 M2.2 -15.25 L4.2 -14.55 4.7 -14.1 5.95 -13.0 M9.3 -10.9 L9.95 -12.9 9.45 -14.1 M11.95 -7.7 L12.4 -7.95 12.95 -10.2 12.85 -10.45 M11.95 -7.7 L10.95 -7.15 M-3.0 -11.85 L0.0 -12.35 0.7 -12.2 1.85 -11.95" fill="none" stroke="#333201" stroke-linecap="round" stroke-linejoin="round" stroke-opacity="0.3137255" stroke-width="0.25"/>
  </g>
</svg>
