<?xml version="1.0" encoding="UTF-8" standalone="no"?>
<svg xmlns:xlink="http://www.w3.org/1999/xlink" height="190.8px" width="241.1px" xmlns="http://www.w3.org/2000/svg">
  <g transform="matrix(1.0, 0.0, 0.0, 1.0, 120.55, 95.4)">
    <path d="M42.1 -71.4 Q40.65 -79.3 43.75 -88.5 L37.1 -79.8 Q27.55 -66.2 29.15 -54.95 L25.85 -54.75 Q25.2 -64.7 30.75 -78.9 21.9 -69.85 20.95 -54.0 19.6 -53.85 18.6 -53.35 15.65 -55.45 15.7 -66.0 32.05 -90.85 52.15 -94.9 47.3 -93.4 44.65 -83.6 42.75 -76.5 42.1 -71.4 M52.0 -53.75 Q95.15 -72.25 98.05 -44.6 99.0 -28.55 114.3 -25.25 100.7 -26.35 96.8 -19.45 93.65 -47.05 79.85 -36.45 74.45 -26.8 80.5 -23.85 73.35 -23.95 68.65 -25.85 63.7 -37.6 74.45 -45.6 60.85 -49.6 43.75 -44.8 44.55 -45.5 45.0 -46.6 61.25 -53.35 79.2 -49.1 73.75 -52.8 52.0 -53.75 M-105.1 82.8 Q-113.2 86.1 -120.05 84.25 -108.85 82.65 -103.8 75.1 -100.75 70.45 -99.95 63.5 -89.45 48.35 -88.7 41.85 -88.15 36.95 -93.05 36.95 -95.7 36.95 -99.95 38.35 -96.05 35.7 -93.7 32.75 -92.5 31.2 -91.65 29.6 -90.3 26.9 -90.05 23.95 -89.7 19.9 -91.45 15.4 L-92.0 14.0 Q-92.8 7.15 -92.55 1.45 L-92.5 0.25 -92.35 -1.3 -92.3 -1.75 Q-91.55 -9.2 -88.85 -14.65 L-87.95 -16.3 Q-58.45 -50.75 -10.1 -53.4 4.75 -51.6 15.3 -48.5 20.0 -47.1 23.85 -45.45 22.1 -43.85 22.0 -42.05 22.1 -43.85 23.85 -45.45 26.1 -47.35 29.45 -46.25 37.0 -37.35 33.9 -19.15 32.15 -1.15 16.15 14.35 3.15 26.55 -0.8 16.7 -26.1 23.5 -53.6 19.85 -76.7 16.55 -88.25 -2.6 L-88.75 -1.55 -87.45 3.1 -84.2 11.6 -81.0 15.5 Q-75.0 22.5 -66.45 26.2 L-64.4 26.5 -64.1 26.5 -64.05 26.55 -61.55 26.8 -60.3 27.45 Q-62.75 28.2 -66.25 29.65 L-66.55 29.8 -68.5 30.6 Q-78.0 34.85 -83.75 43.6 L-84.35 44.55 Q-80.3 42.1 -74.25 39.95 -69.35 38.35 -64.4 37.9 -67.8 39.6 -70.9 42.2 -81.1 50.95 -88.4 62.35 -91.5 67.15 -95.6 70.7 -97.4 75.1 -105.1 82.8 M22.0 -42.05 Q-0.7 -47.9 -27.65 -43.35 -60.4 -37.15 -76.7 -12.55 -81.25 -2.25 -67.9 5.7 -50.6 13.7 -33.3 11.95 -12.0 11.8 1.8 7.3 -0.05 14.5 7.55 10.05 18.75 4.75 16.65 -0.55 30.95 -12.5 25.55 -35.85 21.8 -39.25 22.0 -42.05" fill="#db0202" fill-rule="evenodd" stroke="none"/>
    <path d="M37.1 -79.8 L43.75 -88.5 Q40.65 -79.3 42.1 -71.4 40.7 -61.35 43.95 -59.1 45.45 -54.2 45.6 -50.85 L52.0 -53.75 Q73.75 -52.8 79.2 -49.1 61.25 -53.35 45.0 -46.6 44.55 -45.5 43.75 -44.8 60.85 -49.6 74.45 -45.6 63.7 -37.6 68.65 -25.85 63.95 -27.75 61.6 -31.4 62.65 -46.9 45.9 -30.15 48.05 -39.3 40.35 -43.55 L37.3 -43.85 36.45 -49.0 Q33.3 -54.3 29.15 -54.95 27.55 -66.2 37.1 -79.8 M20.95 -54.0 Q21.9 -69.85 30.75 -78.9 25.2 -64.7 25.85 -54.75 24.9 -54.5 23.9 -54.05 L20.95 -54.0 M43.75 -44.8 Q42.5 -43.7 40.35 -43.55 42.5 -43.7 43.75 -44.8 M38.15 -38.65 Q43.65 -29.4 45.9 -11.3 43.95 6.15 33.55 21.75 32.2 3.5 29.3 9.35 25.05 14.9 27.7 29.55 24.0 34.05 19.5 38.35 8.5 25.05 -19.5 57.85 -33.95 82.9 -63.5 94.9 -38.1 58.2 -80.45 64.1 -94.0 78.25 -105.1 82.8 -97.4 75.1 -95.6 70.7 -91.5 67.15 -88.4 62.35 -81.1 50.95 -70.9 42.2 -67.8 39.6 -64.4 37.9 -69.35 38.35 -74.25 39.95 -80.3 42.1 -84.35 44.55 L-83.75 43.6 Q-78.0 34.85 -68.5 30.6 L-66.55 29.8 -66.25 29.65 Q-62.75 28.2 -60.3 27.45 L-61.55 26.8 -64.05 26.55 -64.1 26.5 -64.4 26.5 -66.45 26.2 Q-75.0 22.5 -81.0 15.5 L-84.2 11.6 -87.45 3.1 -88.75 -1.55 -88.25 -2.6 Q-76.7 16.55 -53.6 19.85 -26.1 23.5 -0.8 16.7 3.15 26.55 16.15 14.35 32.15 -1.15 33.9 -19.15 37.0 -37.35 29.45 -46.25 31.75 -45.5 34.55 -43.35 36.5 -41.4 38.15 -38.65 M45.0 -46.6 Q45.7 -48.25 45.6 -50.85 45.7 -48.25 45.0 -46.6 M-42.75 56.7 Q-28.45 49.25 -32.8 40.4 -33.9 36.6 -42.75 49.95 -47.15 57.7 -42.75 56.7 M-51.3 29.05 Q-56.05 31.65 -57.05 37.3 L-57.2 38.35 -54.65 40.25 -50.25 38.35 -47.75 32.7 -48.4 30.2 -51.3 29.05 Q-50.5 28.6 -49.65 28.3 L-54.65 29.55 -51.3 29.05" fill="#990000" fill-rule="evenodd" stroke="none"/>
    <path d="M18.6 -53.35 Q19.6 -53.85 20.95 -54.0 L23.9 -54.05 Q24.9 -54.5 25.85 -54.75 L29.15 -54.95 Q33.3 -54.3 36.45 -49.0 L37.3 -43.85 38.15 -38.65 Q36.5 -41.4 34.55 -43.35 31.75 -45.5 29.45 -46.25 26.1 -47.35 23.85 -45.45 20.0 -47.1 15.3 -48.5 15.8 -52.1 18.6 -53.35 M-67.9 5.7 Q-81.25 -2.25 -76.7 -12.55 -60.4 -37.15 -27.65 -43.35 -0.7 -47.9 22.0 -42.05 21.8 -39.25 25.55 -35.85 26.6 -28.85 14.55 -33.05 1.1 -37.9 -12.8 -34.5 -5.7 -42.2 -18.25 -38.95 -32.4 -32.4 -24.65 -30.15 -32.05 -26.55 -39.6 -20.7 -52.45 -9.1 -51.8 4.7 -46.15 9.5 -33.3 11.95 -50.6 13.7 -67.9 5.7 M-51.8 4.7 Q-64.05 -5.8 -42.1 -27.65 -64.05 -5.8 -51.8 4.7" fill="#530000" fill-rule="evenodd" stroke="none"/>
    <path d="M42.1 -71.4 Q42.75 -76.5 44.65 -83.6 47.3 -93.4 52.15 -94.9 32.05 -90.85 15.7 -66.0 15.65 -55.45 18.6 -53.35 19.6 -53.85 20.95 -54.0 L23.9 -54.05 Q24.9 -54.5 25.85 -54.75 L29.15 -54.95 Q27.55 -66.2 37.1 -79.8 M52.0 -53.75 Q95.15 -72.25 98.05 -44.6 99.0 -28.55 114.3 -25.25 L120.05 -24.5 M42.1 -71.4 Q40.7 -61.35 43.95 -59.1 45.45 -54.2 45.6 -50.85 L52.0 -53.75 M79.2 -49.1 Q61.25 -53.35 45.0 -46.6 44.55 -45.5 43.75 -44.8 42.5 -43.7 40.35 -43.55 48.05 -39.3 45.9 -30.15 62.65 -46.9 61.6 -31.4 63.95 -27.75 68.65 -25.85 73.35 -23.95 80.5 -23.85 74.45 -26.8 79.85 -36.45 93.65 -47.05 96.8 -19.45 100.7 -26.35 114.3 -25.25 M29.15 -54.95 Q33.3 -54.3 36.45 -49.0 L37.3 -43.85 40.35 -43.55 M37.3 -43.85 L38.15 -38.65 Q43.65 -29.4 45.9 -11.3 43.95 6.15 33.55 21.75 32.2 3.5 29.3 9.35 25.05 14.9 27.7 29.55 24.0 34.05 19.5 38.35 8.5 25.05 -19.5 57.85 -33.95 82.9 -63.5 94.9 -38.1 58.2 -80.45 64.1 -94.0 78.25 -105.1 82.8 -113.2 86.1 -120.05 84.25 -108.85 82.65 -103.8 75.1 -100.75 70.45 -99.95 63.5 -89.45 48.35 -88.7 41.85 -88.15 36.95 -93.05 36.95 -95.7 36.95 -99.95 38.35 -96.05 35.7 -93.7 32.75 -92.5 31.2 -91.65 29.6 -90.3 26.9 -90.05 23.95 -89.7 19.9 -91.45 15.4 L-92.0 14.0 Q-92.8 7.15 -92.55 1.45 L-92.5 0.25 -92.35 -1.3 -92.3 -1.75 Q-91.55 -9.2 -88.85 -14.65 L-87.95 -16.3 Q-58.45 -50.75 -10.1 -53.4 4.75 -51.6 15.3 -48.5 15.8 -52.1 18.6 -53.35 M29.45 -46.25 Q31.75 -45.5 34.55 -43.35 36.5 -41.4 38.15 -38.65 M45.6 -50.85 Q45.7 -48.25 45.0 -46.6 M-67.9 5.7 Q-81.25 -2.25 -76.7 -12.55 -60.4 -37.15 -27.65 -43.35 -0.7 -47.9 22.0 -42.05 22.1 -43.85 23.85 -45.45 20.0 -47.1 15.3 -48.5 M25.55 -35.85 Q21.8 -39.25 22.0 -42.05 M23.85 -45.45 Q26.1 -47.35 29.45 -46.25 M25.55 -35.85 Q26.6 -28.85 14.55 -33.05 1.1 -37.9 -12.8 -34.5 -5.7 -42.2 -18.25 -38.95 -32.4 -32.4 -24.65 -30.15 -32.05 -26.55 -39.6 -20.7 -52.45 -9.1 -51.8 4.7 -46.15 9.5 -33.3 11.95 M1.8 7.3 Q-0.05 14.5 7.55 10.05 18.75 4.75 16.65 -0.55 M-42.1 -27.65 Q-64.05 -5.8 -51.8 4.7 M-51.3 29.05 L-48.4 30.2 -47.75 32.7 -50.25 38.35 -54.65 40.25 -57.2 38.35 -57.05 37.3 Q-56.05 31.65 -51.3 29.05" fill="none" stroke="#000000" stroke-linecap="round" stroke-linejoin="round" stroke-opacity="0.4" stroke-width="1.0"/>
    <path d="M-33.3 11.95 Q-12.0 11.8 1.8 7.3 M16.65 -0.55 Q30.95 -12.5 25.55 -35.85 M-33.3 11.95 Q-50.6 13.7 -67.9 5.7 M-42.75 56.7 Q-28.45 49.25 -32.8 40.4 -33.9 36.6 -42.75 49.95 -47.15 57.7 -42.75 56.7 Z" fill="none" stroke="#000000" stroke-linecap="round" stroke-linejoin="round" stroke-opacity="0.4" stroke-width="1.0"/>
  </g>
</svg>
