<?xml version="1.0" encoding="UTF-8" standalone="no"?>
<svg xmlns:xlink="http://www.w3.org/1999/xlink" height="87.8px" width="80.35px" xmlns="http://www.w3.org/2000/svg">
  <g transform="matrix(1.0, 0.0, 0.0, 1.0, -223.2, -86.4)">
    <path d="M298.8 86.7 Q299.25 87.25 298.85 88.75 296.65 92.5 293.6 93.3 293.6 92.25 293.75 91.3 295.95 91.75 298.8 86.7" fill="#cc9900" fill-rule="evenodd" stroke="none"/>
    <path d="M298.8 86.7 Q295.95 91.75 293.75 91.3 294.3 88.65 296.85 86.7 298.35 86.15 298.8 86.7" fill="#ffcc33" fill-rule="evenodd" stroke="none"/>
    <path d="M293.75 91.3 Q293.6 92.25 293.6 93.3 296.65 92.5 298.85 88.75 299.25 87.25 298.8 86.7 298.35 86.15 296.85 86.7 294.3 88.65 293.75 91.3 Z" fill="none" stroke="#000000" stroke-linecap="round" stroke-linejoin="round" stroke-opacity="0.41960785" stroke-width="0.05"/>
    <path d="M297.75 91.9 Q298.05 92.55 297.3 93.9 294.45 96.9 291.6 96.95 291.8 95.85 292.15 95.0 294.0 96.05 297.75 91.9" fill="#cc9900" fill-rule="evenodd" stroke="none"/>
    <path d="M297.75 91.9 Q294.0 96.05 292.15 95.0 293.25 92.55 296.0 91.35 297.45 91.2 297.75 91.9" fill="#ffcc33" fill-rule="evenodd" stroke="none"/>
    <path d="M292.15 95.0 Q291.8 95.85 291.6 96.95 294.45 96.9 297.3 93.9 298.05 92.55 297.75 91.9 297.45 91.2 296.0 91.35 293.25 92.55 292.15 95.0 Z" fill="none" stroke="#000000" stroke-linecap="round" stroke-linejoin="round" stroke-opacity="0.41960785" stroke-width="0.05"/>
    <path d="M297.45 96.6 Q297.55 97.3 296.4 98.4 292.6 100.7 289.55 100.0 290.1 98.95 290.75 98.25 292.3 99.75 297.45 96.6" fill="#cc9900" fill-rule="evenodd" stroke="none"/>
    <path d="M297.45 96.6 Q292.3 99.75 290.75 98.25 292.6 96.1 295.75 95.65 297.35 95.85 297.45 96.6" fill="#ffcc33" fill-rule="evenodd" stroke="none"/>
    <path d="M290.75 98.25 Q290.1 98.95 289.55 100.0 292.6 100.7 296.4 98.4 297.55 97.3 297.45 96.6 297.35 95.85 295.75 95.65 292.6 96.1 290.75 98.25 Z" fill="none" stroke="#000000" stroke-linecap="round" stroke-linejoin="round" stroke-opacity="0.41960785" stroke-width="0.05"/>
    <path d="M296.7 100.15 Q296.65 100.85 295.2 101.65 L288.25 101.45 289.85 100.05 Q290.95 101.95 296.7 100.15" fill="#cc9900" fill-rule="evenodd" stroke="none"/>
    <path d="M296.7 100.15 Q290.95 101.95 289.85 100.05 292.2 98.45 295.4 98.8 296.8 99.4 296.7 100.15" fill="#ffcc33" fill-rule="evenodd" stroke="none"/>
    <path d="M289.85 100.05 L288.25 101.45 295.2 101.65 Q296.65 100.85 296.7 100.15 296.8 99.4 295.4 98.8 292.2 98.45 289.85 100.05 Z" fill="none" stroke="#000000" stroke-linecap="round" stroke-linejoin="round" stroke-opacity="0.41960785" stroke-width="0.05"/>
    <path d="M294.9 102.95 Q294.85 103.7 293.5 104.5 289.75 105.85 287.35 104.5 L288.8 103.05 Q289.75 104.9 294.9 102.95" fill="#cc9900" fill-rule="evenodd" stroke="none"/>
    <path d="M294.9 102.95 Q289.75 104.9 288.8 103.05 290.95 101.4 293.8 101.65 295.0 102.2 294.9 102.95" fill="#ffcc33" fill-rule="evenodd" stroke="none"/>
    <path d="M288.8 103.05 L287.35 104.5 Q289.75 105.85 293.5 104.5 294.85 103.7 294.9 102.95 295.0 102.2 293.8 101.65 290.95 101.4 288.8 103.05 Z" fill="none" stroke="#000000" stroke-linecap="round" stroke-linejoin="round" stroke-opacity="0.41960785" stroke-width="0.05"/>
    <path d="M292.4 90.35 Q291.7 90.5 290.95 91.75 289.8 95.25 291.35 97.1 L292.7 95.6 Q290.8 95.05 292.4 90.35" fill="#cc9900" fill-rule="evenodd" stroke="none"/>
    <path d="M292.4 90.35 Q290.8 95.05 292.7 95.6 294.25 93.55 293.8 91.15 293.15 90.15 292.4 90.35" fill="#ffcc33" fill-rule="evenodd" stroke="none"/>
    <path d="M292.7 95.6 L291.35 97.1 Q289.8 95.25 290.95 91.75 291.7 90.5 292.4 90.35 293.15 90.15 293.8 91.15 294.25 93.55 292.7 95.6 Z" fill="none" stroke="#000000" stroke-linecap="round" stroke-linejoin="round" stroke-opacity="0.41960785" stroke-width="0.05"/>
    <path d="M288.55 91.9 Q287.9 92.2 287.6 93.75 287.85 97.95 290.25 99.85 L291.1 97.9 Q288.85 97.6 288.55 91.9" fill="#cc9900" fill-rule="evenodd" stroke="none"/>
    <path d="M288.55 91.9 Q288.85 97.6 291.1 97.9 291.85 95.3 290.35 92.6 289.25 91.55 288.55 91.9" fill="#ffcc33" fill-rule="evenodd" stroke="none"/>
    <path d="M291.1 97.9 L290.25 99.85 Q287.85 97.95 287.6 93.75 287.9 92.2 288.55 91.9 289.25 91.55 290.35 92.6 291.85 95.3 291.1 97.9 Z" fill="none" stroke="#000000" stroke-linecap="round" stroke-linejoin="round" stroke-opacity="0.41960785" stroke-width="0.05"/>
    <path d="M286.35 95.35 Q285.75 95.85 285.85 97.3 287.0 101.0 289.7 102.05 L290.05 100.05 Q287.85 100.4 286.35 95.35" fill="#cc9900" fill-rule="evenodd" stroke="none"/>
    <path d="M286.35 95.35 Q287.85 100.4 290.05 100.05 290.15 97.5 288.2 95.45 L286.35 95.35" fill="#ffcc33" fill-rule="evenodd" stroke="none"/>
    <path d="M290.05 100.05 L289.7 102.05 Q287.0 101.0 285.85 97.3 285.75 95.85 286.35 95.35 L288.2 95.45 Q290.15 97.5 290.05 100.05 Z" fill="none" stroke="#000000" stroke-linecap="round" stroke-linejoin="round" stroke-opacity="0.41960785" stroke-width="0.05"/>
    <path d="M284.4 97.6 Q283.8 98.1 283.85 99.5 284.85 103.1 287.35 104.0 L287.75 102.1 Q285.65 102.5 284.4 97.6" fill="#cc9900" fill-rule="evenodd" stroke="none"/>
    <path d="M284.4 97.6 Q285.65 102.5 287.75 102.1 288.0 99.6 286.15 97.65 L284.4 97.6" fill="#ffcc33" fill-rule="evenodd" stroke="none"/>
    <path d="M287.75 102.1 L287.35 104.0 Q284.85 103.1 283.85 99.5 283.8 98.1 284.4 97.6 L286.15 97.65 Q288.0 99.6 287.75 102.1 Z" fill="none" stroke="#000000" stroke-linecap="round" stroke-linejoin="round" stroke-opacity="0.41960785" stroke-width="0.05"/>
    <path d="M293.45 104.75 Q293.4 105.5 292.05 106.3 288.3 107.65 285.9 106.3 L287.35 104.85 Q288.3 106.7 293.45 104.75" fill="#cc9900" fill-rule="evenodd" stroke="none"/>
    <path d="M293.45 104.75 Q288.3 106.7 287.35 104.85 289.5 103.2 292.35 103.45 293.55 104.0 293.45 104.75" fill="#ffcc33" fill-rule="evenodd" stroke="none"/>
    <path d="M287.35 104.85 L285.9 106.3 Q288.3 107.65 292.05 106.3 293.4 105.5 293.45 104.75 293.55 104.0 292.35 103.45 289.5 103.2 287.35 104.85 Z" fill="none" stroke="#000000" stroke-linecap="round" stroke-linejoin="round" stroke-opacity="0.41960785" stroke-width="0.05"/>
    <path d="M282.95 100.55 Q282.35 101.05 282.4 102.45 283.4 106.05 285.9 106.95 L286.3 105.05 Q284.2 105.45 282.95 100.55" fill="#cc9900" fill-rule="evenodd" stroke="none"/>
    <path d="M282.95 100.55 Q284.2 105.45 286.3 105.05 286.55 102.55 284.7 100.6 L282.95 100.55" fill="#ffcc33" fill-rule="evenodd" stroke="none"/>
    <path d="M286.3 105.05 L285.9 106.95 Q283.4 106.05 282.4 102.45 282.35 101.05 282.95 100.55 L284.7 100.6 Q286.55 102.55 286.3 105.05 Z" fill="none" stroke="#000000" stroke-linecap="round" stroke-linejoin="round" stroke-opacity="0.41960785" stroke-width="0.05"/>
    <path d="M292.35 108.4 Q292.3 109.15 290.95 109.95 287.2 111.3 284.8 109.95 L286.25 108.5 Q287.2 110.35 292.35 108.4" fill="#cc9900" fill-rule="evenodd" stroke="none"/>
    <path d="M292.35 108.4 Q287.2 110.35 286.25 108.5 288.4 106.85 291.25 107.1 292.45 107.65 292.35 108.4" fill="#ffcc33" fill-rule="evenodd" stroke="none"/>
    <path d="M286.25 108.5 L284.8 109.95 Q287.2 111.3 290.95 109.95 292.3 109.15 292.35 108.4 292.45 107.65 291.25 107.1 288.4 106.85 286.25 108.5 Z" fill="none" stroke="#000000" stroke-linecap="round" stroke-linejoin="round" stroke-opacity="0.41960785" stroke-width="0.05"/>
    <path d="M282.25 103.05 Q281.65 103.55 281.7 104.95 282.7 108.55 285.2 109.45 L285.6 107.55 Q283.5 107.95 282.25 103.05" fill="#cc9900" fill-rule="evenodd" stroke="none"/>
    <path d="M282.25 103.05 Q283.5 107.95 285.6 107.55 285.85 105.05 284.0 103.1 L282.25 103.05" fill="#ffcc33" fill-rule="evenodd" stroke="none"/>
    <path d="M285.6 107.55 L285.2 109.45 Q282.7 108.55 281.7 104.95 281.65 103.55 282.25 103.05 L284.0 103.1 Q285.85 105.05 285.6 107.55 Z" fill="none" stroke="#000000" stroke-linecap="round" stroke-linejoin="round" stroke-opacity="0.41960785" stroke-width="0.05"/>
    <path d="M303.45 100.9 Q303.55 101.45 302.7 102.25 299.9 103.85 297.6 103.3 L298.45 102.0 Q299.7 103.15 303.45 100.9" fill="#cc9900" fill-rule="evenodd" stroke="none"/>
    <path d="M303.45 100.9 Q299.7 103.15 298.45 102.0 299.8 100.5 302.2 100.2 303.35 100.4 303.45 100.9" fill="#ffcc33" fill-rule="evenodd" stroke="none"/>
    <path d="M298.45 102.0 L297.6 103.3 Q299.9 103.85 302.7 102.25 303.55 101.45 303.45 100.9 303.35 100.4 302.2 100.2 299.8 100.5 298.45 102.0 Z" fill="none" stroke="#000000" stroke-linecap="round" stroke-linejoin="round" stroke-opacity="0.41960785" stroke-width="0.05"/>
    <path d="M300.75 103.5 Q300.75 104.0 299.7 104.6 L294.85 104.45 296.0 103.4 300.75 103.5" fill="#cc9900" fill-rule="evenodd" stroke="none"/>
    <path d="M300.75 103.5 L296.0 103.4 Q297.65 102.25 299.8 102.5 300.8 102.95 300.75 103.5" fill="#ffcc33" fill-rule="evenodd" stroke="none"/>
    <path d="M296.0 103.4 L294.85 104.45 299.7 104.6 Q300.75 104.0 300.75 103.5 300.8 102.95 299.8 102.5 297.65 102.25 296.0 103.4 Z" fill="none" stroke="#000000" stroke-linecap="round" stroke-linejoin="round" stroke-opacity="0.41960785" stroke-width="0.05"/>
    <path d="M298.9 106.15 Q298.75 106.65 297.55 106.95 294.2 106.95 292.5 105.35 293.25 104.95 293.9 104.7 294.4 106.25 298.9 106.15" fill="#cc9900" fill-rule="evenodd" stroke="none"/>
    <path d="M298.9 106.15 Q294.4 106.25 293.9 104.7 L298.2 104.9 Q299.1 105.65 298.9 106.15" fill="#ffcc33" fill-rule="evenodd" stroke="none"/>
    <path d="M293.9 104.7 Q293.25 104.95 292.5 105.35 294.2 106.95 297.55 106.95 298.75 106.65 298.9 106.15 299.1 105.65 298.2 104.9 L293.9 104.7 Z" fill="none" stroke="#000000" stroke-linecap="round" stroke-linejoin="round" stroke-opacity="0.41960785" stroke-width="0.05"/>
    <path d="M297.0 107.65 Q296.75 108.1 295.45 108.1 292.25 107.3 291.05 105.35 291.85 105.05 292.6 105.05 292.65 106.65 297.0 107.65" fill="#cc9900" fill-rule="evenodd" stroke="none"/>
    <path d="M297.0 107.65 Q292.65 106.65 292.6 105.05 294.75 104.85 296.65 106.3 297.35 107.2 297.0 107.65" fill="#ffcc33" fill-rule="evenodd" stroke="none"/>
    <path d="M292.6 105.05 Q291.85 105.05 291.05 105.35 292.25 107.3 295.45 108.1 296.75 108.1 297.0 107.65 297.35 107.2 296.65 106.3 294.75 104.85 292.6 105.05 Z" fill="none" stroke="#000000" stroke-linecap="round" stroke-linejoin="round" stroke-opacity="0.41960785" stroke-width="0.05"/>
    <path d="M294.95 109.75 Q294.65 110.2 293.45 110.25 290.45 109.7 289.45 107.9 L290.95 107.55 Q290.9 109.05 294.95 109.75" fill="#cc9900" fill-rule="evenodd" stroke="none"/>
    <path d="M294.95 109.75 Q290.9 109.05 290.95 107.55 292.95 107.25 294.7 108.45 295.25 109.3 294.95 109.75" fill="#ffcc33" fill-rule="evenodd" stroke="none"/>
    <path d="M290.95 107.55 L289.45 107.9 Q290.45 109.7 293.45 110.25 294.65 110.2 294.95 109.75 295.25 109.3 294.7 108.45 292.95 107.25 290.95 107.55 Z" fill="none" stroke="#000000" stroke-linecap="round" stroke-linejoin="round" stroke-opacity="0.41960785" stroke-width="0.05"/>
    <path d="M298.75 100.5 Q298.2 100.35 297.25 100.85 295.15 102.75 295.45 104.5 L296.95 104.05 Q295.9 103.0 298.75 100.5" fill="#cc9900" fill-rule="evenodd" stroke="none"/>
    <path d="M298.75 100.5 Q295.9 103.0 296.95 104.05 298.7 103.3 299.3 101.55 299.3 100.65 298.75 100.5" fill="#ffcc33" fill-rule="evenodd" stroke="none"/>
    <path d="M296.95 104.05 L295.45 104.5 Q295.15 102.75 297.25 100.85 298.2 100.35 298.75 100.5 299.3 100.65 299.3 101.55 298.7 103.3 296.95 104.05 Z" fill="none" stroke="#000000" stroke-linecap="round" stroke-linejoin="round" stroke-opacity="0.41960785" stroke-width="0.05"/>
    <path d="M295.3 99.9 Q294.75 99.85 293.9 100.8 292.55 103.6 293.4 105.7 L294.65 104.75 Q293.35 103.75 295.3 99.9" fill="#cc9900" fill-rule="evenodd" stroke="none"/>
    <path d="M295.3 99.9 Q293.35 103.75 294.65 104.75 296.15 103.3 296.2 101.0 295.85 99.95 295.3 99.9" fill="#ffcc33" fill-rule="evenodd" stroke="none"/>
    <path d="M294.65 104.75 L293.4 105.7 Q292.55 103.6 293.9 100.8 294.75 99.85 295.3 99.9 295.85 99.95 296.2 101.0 296.15 103.3 294.65 104.75 Z" fill="none" stroke="#000000" stroke-linecap="round" stroke-linejoin="round" stroke-opacity="0.41960785" stroke-width="0.05"/>
    <path d="M292.5 101.45 Q292.0 101.6 291.5 102.5 290.85 105.4 292.2 107.05 L293.2 105.95 Q291.6 105.3 292.5 101.45" fill="#cc9900" fill-rule="evenodd" stroke="none"/>
    <path d="M292.5 101.45 Q291.6 105.3 293.2 105.95 294.2 104.3 293.7 102.25 293.1 101.35 292.5 101.45" fill="#ffcc33" fill-rule="evenodd" stroke="none"/>
    <path d="M293.2 105.95 L292.2 107.05 Q290.85 105.4 291.5 102.5 292.0 101.6 292.5 101.45 293.1 101.35 293.7 102.25 294.2 104.3 293.2 105.95 Z" fill="none" stroke="#000000" stroke-linecap="round" stroke-linejoin="round" stroke-opacity="0.41960785" stroke-width="0.05"/>
    <path d="M290.45 102.45 Q289.9 102.6 289.4 103.5 288.7 106.15 290.0 107.7 L291.0 106.65 Q289.45 106.1 290.45 102.45" fill="#cc9900" fill-rule="evenodd" stroke="none"/>
    <path d="M290.45 102.45 Q289.45 106.1 291.0 106.65 292.05 105.1 291.6 103.15 291.05 102.35 290.45 102.45" fill="#ffcc33" fill-rule="evenodd" stroke="none"/>
    <path d="M291.0 106.65 L290.0 107.7 Q288.7 106.15 289.4 103.5 289.9 102.6 290.45 102.45 291.05 102.35 291.6 103.15 292.05 105.1 291.0 106.65 Z" fill="none" stroke="#000000" stroke-linecap="round" stroke-linejoin="round" stroke-opacity="0.41960785" stroke-width="0.05"/>
    <path d="M293.5 109.75 Q293.2 110.2 292.0 110.25 289.0 109.7 288.0 107.9 L289.5 107.55 Q289.45 109.05 293.5 109.75" fill="#cc9900" fill-rule="evenodd" stroke="none"/>
    <path d="M293.5 109.75 Q289.45 109.05 289.5 107.55 291.5 107.25 293.25 108.45 293.8 109.3 293.5 109.75" fill="#ffcc33" fill-rule="evenodd" stroke="none"/>
    <path d="M289.5 107.55 L288.0 107.9 Q289.0 109.7 292.0 110.25 293.2 110.2 293.5 109.75 293.8 109.3 293.25 108.45 291.5 107.25 289.5 107.55 Z" fill="none" stroke="#000000" stroke-linecap="round" stroke-linejoin="round" stroke-opacity="0.41960785" stroke-width="0.05"/>
    <path d="M288.3 103.5 Q287.75 103.65 287.25 104.55 286.55 107.2 287.85 108.75 L288.85 107.7 Q287.3 107.15 288.3 103.5" fill="#cc9900" fill-rule="evenodd" stroke="none"/>
    <path d="M288.3 103.5 Q287.3 107.15 288.85 107.7 289.9 106.15 289.45 104.2 288.9 103.4 288.3 103.5" fill="#ffcc33" fill-rule="evenodd" stroke="none"/>
    <path d="M288.85 107.7 L287.85 108.75 Q286.55 107.2 287.25 104.55 287.75 103.65 288.3 103.5 288.9 103.4 289.45 104.2 289.9 106.15 288.85 107.7 Z" fill="none" stroke="#000000" stroke-linecap="round" stroke-linejoin="round" stroke-opacity="0.41960785" stroke-width="0.05"/>
    <path d="M291.3 111.9 Q291.0 112.35 289.8 112.4 286.8 111.85 285.8 110.05 L287.3 109.7 Q287.25 111.2 291.3 111.9" fill="#cc9900" fill-rule="evenodd" stroke="none"/>
    <path d="M291.3 111.9 Q287.25 111.2 287.3 109.7 289.3 109.4 291.05 110.6 291.6 111.45 291.3 111.9" fill="#ffcc33" fill-rule="evenodd" stroke="none"/>
    <path d="M287.3 109.7 L285.8 110.05 Q286.8 111.85 289.8 112.4 291.0 112.35 291.3 111.9 291.6 111.45 291.05 110.6 289.3 109.4 287.3 109.7 Z" fill="none" stroke="#000000" stroke-linecap="round" stroke-linejoin="round" stroke-opacity="0.41960785" stroke-width="0.05"/>
    <path d="M286.45 105.0 Q285.9 105.15 285.4 106.05 284.7 108.7 286.0 110.25 L287.0 109.2 Q285.45 108.65 286.45 105.0" fill="#cc9900" fill-rule="evenodd" stroke="none"/>
    <path d="M286.45 105.0 Q285.45 108.65 287.0 109.2 288.05 107.65 287.6 105.7 287.05 104.9 286.45 105.0" fill="#ffcc33" fill-rule="evenodd" stroke="none"/>
    <path d="M287.0 109.2 L286.0 110.25 Q284.7 108.7 285.4 106.05 285.9 105.15 286.45 105.0 287.05 104.9 287.6 105.7 288.05 107.65 287.0 109.2 Z" fill="none" stroke="#000000" stroke-linecap="round" stroke-linejoin="round" stroke-opacity="0.41960785" stroke-width="0.05"/>
    <path d="M260.35 107.05 L265.45 102.7 266.9 101.6 267.25 101.6 Q289.4 92.85 294.85 109.55 L295.55 112.5 Q277.4 122.65 255.7 129.15 L252.7 120.1 Q248.2 116.95 245.8 115.75 243.75 114.55 243.3 114.85 241.95 115.4 240.9 116.1 L240.75 115.75 245.65 111.75 245.8 111.75 260.35 107.05 M297.4 120.3 L299.2 128.1 299.55 132.45 303.55 150.6 294.5 158.6 294.1 156.4 290.85 158.95 289.4 154.6 287.95 145.15 Q287.95 143.35 290.85 143.0 L294.5 151.35 294.1 143.7 291.95 141.55 Q289.6 139.4 287.95 141.9 285.3 143.45 286.5 148.8 L260.0 142.25 258.6 137.95 257.85 135.7 Q280.55 131.4 297.4 120.3 M289.4 162.6 L262.9 172.4 257.45 145.15 Q270.15 142.6 281.05 150.25 287.9 154.2 289.4 162.6 M240.35 174.2 L238.6 148.35 244.1 143.45 246.9 168.6 240.35 174.2 M238.0 139.55 L237.1 126.1 241.8 123.15 243.25 136.1 238.0 139.55 M248.0 124.1 L250.55 120.85 252.6 135.35 249.85 138.95 248.0 124.1 M299.55 132.45 L294.1 143.7 299.55 132.45 M294.5 151.35 Q295.65 154.55 294.1 156.4 295.65 154.55 294.5 151.35 M250.6 145.3 L253.4 141.05 257.1 167.3 253.65 169.65 250.6 145.3 M286.5 105.2 Q285.4 107.4 261.05 113.2 285.4 107.4 286.5 105.2" fill="#a49e01" fill-rule="evenodd" stroke="none"/>
    <path d="M260.35 107.05 L257.45 100.5 249.8 103.05 Q254.15 98.65 257.45 97.25 259.25 96.85 261.8 97.25 L265.45 102.7 260.35 107.05 M294.5 158.6 L289.4 162.6 Q287.9 154.2 281.05 150.25 270.15 142.6 257.45 145.15 L256.75 141.65 257.45 145.15 262.9 172.4 240.35 174.2 246.9 168.6 244.1 143.45 244.1 143.4 250.6 145.3 253.65 169.65 257.1 167.3 253.4 141.05 253.4 141.0 256.75 141.65 256.1 138.2 258.6 137.95 260.0 142.25 286.5 148.8 286.5 149.15 Q287.2 152.4 288.3 153.5 L289.4 154.6 290.85 158.95 294.1 156.4 294.5 158.6 M240.75 115.75 L237.3 109.55 229.5 111.75 Q234.5 105.15 241.65 106.1 L242.9 107.05 245.65 111.75 240.75 115.75 M252.7 120.1 L255.7 129.15 256.35 131.15 254.8 131.25 255.65 135.6 252.6 135.35 250.55 120.85 252.7 120.1 254.8 131.25 252.7 120.1 M241.8 123.15 L248.0 124.1 249.85 138.95 243.25 136.1 241.8 123.15" fill="#767301" fill-rule="evenodd" stroke="none"/>
    <path d="M294.5 151.35 L290.85 143.0 Q287.95 143.35 287.95 145.15 L289.4 154.6 288.3 153.5 Q287.2 152.4 286.5 149.15 L286.5 148.8 Q285.3 143.45 287.95 141.9 289.6 139.4 291.95 141.55 L294.1 143.7 294.5 151.35" fill="#cccccc" fill-rule="evenodd" stroke="none"/>
    <path d="M237.1 125.9 L236.75 122.1 Q237.6 118.8 240.2 116.45 L240.75 116.1 240.9 116.1 Q241.95 115.4 243.3 114.85 243.75 114.55 245.8 115.75 248.2 116.95 252.7 120.1 L250.55 120.85 248.0 124.1 241.8 123.15 237.1 126.1 237.1 125.9" fill="#1e3c1e" fill-rule="evenodd" stroke="none"/>
    <path d="M237.1 126.1 L236.75 126.3 237.1 125.9 237.1 126.1" fill="#ebebeb" fill-rule="evenodd" stroke="none"/>
    <path d="M295.55 112.5 L297.4 120.3 Q280.55 131.4 257.85 135.7 L256.35 131.15 255.7 129.15 Q277.4 122.65 295.55 112.5 M238.6 148.35 L238.0 139.55 243.25 136.1 244.1 143.4 244.1 143.45 238.6 148.35 M250.6 145.3 L249.85 138.95 252.6 135.35 253.4 141.0 253.4 141.05 250.6 145.3" fill="#fedd5e" fill-rule="evenodd" stroke="none"/>
    <path d="M254.8 131.25 L256.35 131.15 257.85 135.7 258.6 137.95 256.1 138.2 255.65 135.6 256.1 138.2 256.75 141.65 253.4 141.0 252.6 135.35 255.65 135.6 254.8 131.25 M249.85 138.95 L250.6 145.3 244.1 143.4 243.25 136.1 249.85 138.95" fill="#927204" fill-rule="evenodd" stroke="none"/>
    <path d="M265.45 102.7 L261.8 97.25 Q259.25 96.85 257.45 97.25 254.15 98.65 249.8 103.05 L257.45 100.5 260.35 107.05 265.45 102.7 266.9 101.6 267.25 101.6 Q289.4 92.85 294.85 109.55 L295.55 112.5 297.4 120.3 299.2 128.1 299.55 132.45 303.55 150.6 294.5 158.6 289.4 162.6 262.9 172.4 240.35 174.2 238.6 148.35 238.0 139.55 237.1 126.1 241.8 123.15 248.0 124.1 250.55 120.85 252.7 120.1 254.8 131.25 255.65 135.6 256.1 138.2 256.75 141.65 257.45 145.15 262.9 172.4 M237.1 125.9 L236.75 122.1 Q237.6 118.8 240.2 116.45 L240.75 115.75 237.3 109.55 229.5 111.75 Q234.5 105.15 241.65 106.1 L242.9 107.05 245.65 111.75 245.8 111.75 260.35 107.05 M240.9 116.1 L240.75 116.1 240.2 116.45 M240.75 115.75 L240.9 116.1 Q241.95 115.4 243.3 114.85 243.75 114.55 245.8 115.75 248.2 116.95 252.7 120.1 L255.7 129.15 256.35 131.15 257.85 135.7 258.6 137.95 260.0 142.25 286.5 148.8 286.5 149.15 M240.75 115.75 L240.75 116.1 M237.1 125.9 L237.1 126.1 M289.4 154.6 L287.95 145.15 Q287.95 143.35 290.85 143.0 L294.5 151.35 Q295.65 154.55 294.1 156.4 L290.85 158.95 289.4 154.6 288.3 153.5 M294.1 143.7 L299.55 132.45 M261.05 113.2 Q285.4 107.4 286.5 105.2 M245.65 111.75 L240.75 115.75" fill="none" stroke="#000000" stroke-linecap="round" stroke-linejoin="round" stroke-opacity="0.42352942" stroke-width="0.05"/>
    <path d="M223.25 121.45 Q223.45 120.8 225.0 120.4 229.35 120.45 231.55 122.6 L229.7 123.5 Q229.05 121.4 223.25 121.45" fill="#cc9900" fill-rule="evenodd" stroke="none"/>
    <path d="M223.25 121.45 Q229.05 121.4 229.7 123.5 227.15 124.4 224.25 123.15 223.0 122.15 223.25 121.45" fill="#ffcc33" fill-rule="evenodd" stroke="none"/>
    <path d="M229.7 123.5 L231.55 122.6 Q229.35 120.45 225.0 120.4 223.45 120.8 223.25 121.45 223.0 122.15 224.25 123.15 227.15 124.4 229.7 123.5 Z" fill="none" stroke="#000000" stroke-linecap="round" stroke-linejoin="round" stroke-opacity="0.41960785" stroke-width="0.05"/>
    <path d="M228.15 119.65 Q228.55 119.1 230.1 119.1 234.1 120.0 235.6 122.5 L233.6 122.95 Q233.65 120.85 228.15 119.65" fill="#cc9900" fill-rule="evenodd" stroke="none"/>
    <path d="M228.15 119.65 Q233.65 120.85 233.6 122.95 230.95 123.25 228.6 121.45 227.7 120.3 228.15 119.65" fill="#ffcc33" fill-rule="evenodd" stroke="none"/>
    <path d="M233.6 122.95 L235.6 122.5 Q234.1 120.0 230.1 119.1 228.55 119.1 228.15 119.65 227.7 120.3 228.6 121.45 230.95 123.25 233.6 122.95 Z" fill="none" stroke="#000000" stroke-linecap="round" stroke-linejoin="round" stroke-opacity="0.41960785" stroke-width="0.05"/>
    <path d="M232.2 117.75 Q232.75 117.3 234.35 117.75 238.2 119.95 239.1 122.9 L237.0 122.75 Q237.5 120.6 232.2 117.75" fill="#cc9900" fill-rule="evenodd" stroke="none"/>
    <path d="M232.2 117.75 Q237.5 120.6 237.0 122.75 234.25 122.2 232.25 119.7 231.65 118.2 232.2 117.75" fill="#ffcc33" fill-rule="evenodd" stroke="none"/>
    <path d="M237.0 122.75 L239.1 122.9 Q238.2 119.95 234.35 117.75 232.75 117.3 232.2 117.75 231.65 118.2 232.25 119.7 234.25 122.2 237.0 122.75 Z" fill="none" stroke="#000000" stroke-linecap="round" stroke-linejoin="round" stroke-opacity="0.41960785" stroke-width="0.05"/>
    <path d="M235.65 116.5 Q236.3 116.2 237.7 117.05 240.9 120.1 241.0 123.15 239.85 122.95 239.0 122.45 240.05 120.6 235.65 116.5" fill="#cc9900" fill-rule="evenodd" stroke="none"/>
    <path d="M235.65 116.5 Q240.05 120.6 239.0 122.45 236.45 121.25 235.1 118.35 234.95 116.8 235.65 116.5" fill="#ffcc33" fill-rule="evenodd" stroke="none"/>
    <path d="M239.0 122.45 Q239.85 122.95 241.0 123.15 240.9 120.1 237.7 117.05 236.3 116.2 235.65 116.5 234.95 116.8 235.1 118.35 236.45 121.25 239.0 122.45 Z" fill="none" stroke="#000000" stroke-linecap="round" stroke-linejoin="round" stroke-opacity="0.41960785" stroke-width="0.05"/>
    <path d="M238.95 116.45 Q239.65 116.15 240.95 116.9 244.05 119.5 244.05 122.2 L242.1 121.65 Q243.15 119.95 238.95 116.45" fill="#cc9900" fill-rule="evenodd" stroke="none"/>
    <path d="M238.95 116.45 Q243.15 119.95 242.1 121.65 239.6 120.65 238.4 118.1 238.25 116.75 238.95 116.45" fill="#ffcc33" fill-rule="evenodd" stroke="none"/>
    <path d="M242.1 121.65 L244.05 122.2 Q244.05 119.5 240.95 116.9 239.65 116.15 238.95 116.45 238.25 116.75 238.4 118.1 239.6 120.65 242.1 121.65 Z" fill="none" stroke="#000000" stroke-linecap="round" stroke-linejoin="round" stroke-opacity="0.41960785" stroke-width="0.05"/>
    <path d="M229.2 125.25 Q229.7 125.8 231.15 125.85 234.8 125.05 235.6 122.8 L233.65 122.4 Q234.15 124.3 229.2 125.25" fill="#cc9900" fill-rule="evenodd" stroke="none"/>
    <path d="M229.2 125.25 Q234.15 124.3 233.65 122.4 231.1 122.1 229.2 123.7 228.65 124.75 229.2 125.25" fill="#ffcc33" fill-rule="evenodd" stroke="none"/>
    <path d="M233.65 122.4 L235.6 122.8 Q234.8 125.05 231.15 125.85 229.7 125.8 229.2 125.25 228.65 124.75 229.2 123.7 231.1 122.1 233.65 122.4 Z" fill="none" stroke="#000000" stroke-linecap="round" stroke-linejoin="round" stroke-opacity="0.41960785" stroke-width="0.05"/>
    <path d="M232.55 127.75 L234.6 127.65 Q238.1 125.3 238.55 122.3 L236.45 122.55 Q237.3 124.6 232.55 127.75" fill="#cc9900" fill-rule="evenodd" stroke="none"/>
    <path d="M232.55 127.75 Q237.3 124.6 236.45 122.55 233.85 123.25 232.25 125.85 231.9 127.3 232.55 127.75" fill="#ffcc33" fill-rule="evenodd" stroke="none"/>
    <path d="M236.45 122.55 L238.55 122.3 Q238.1 125.3 234.6 127.65 L232.55 127.75 Q231.9 127.3 232.25 125.85 233.85 123.25 236.45 122.55 Z" fill="none" stroke="#000000" stroke-linecap="round" stroke-linejoin="round" stroke-opacity="0.41960785" stroke-width="0.05"/>
    <path d="M236.55 128.0 Q237.2 128.2 238.5 127.45 241.1 124.55 240.65 121.7 239.6 121.95 238.75 122.4 240.15 124.1 236.55 128.0" fill="#cc9900" fill-rule="evenodd" stroke="none"/>
    <path d="M236.55 128.0 Q240.15 124.1 238.75 122.4 236.45 123.55 235.7 126.3 235.8 127.7 236.55 128.0" fill="#ffcc33" fill-rule="evenodd" stroke="none"/>
    <path d="M238.75 122.4 Q239.6 121.95 240.65 121.7 241.1 124.55 238.5 127.45 237.2 128.2 236.55 128.0 235.8 127.7 235.7 126.3 236.45 123.55 238.75 122.4 Z" fill="none" stroke="#000000" stroke-linecap="round" stroke-linejoin="round" stroke-opacity="0.41960785" stroke-width="0.05"/>
    <path d="M239.6 128.35 L241.55 127.9 Q244.1 125.2 243.65 122.6 242.6 122.75 241.75 123.15 243.15 124.8 239.6 128.35" fill="#cc9900" fill-rule="evenodd" stroke="none"/>
    <path d="M239.6 128.35 Q243.15 124.8 241.75 123.15 239.5 124.2 238.75 126.75 238.85 128.1 239.6 128.35" fill="#ffcc33" fill-rule="evenodd" stroke="none"/>
    <path d="M241.75 123.15 Q242.6 122.75 243.65 122.6 244.1 125.2 241.55 127.9 L239.6 128.35 Q238.85 128.1 238.75 126.75 239.5 124.2 241.75 123.15 Z" fill="none" stroke="#000000" stroke-linecap="round" stroke-linejoin="round" stroke-opacity="0.41960785" stroke-width="0.05"/>
    <path d="M241.45 117.2 Q242.15 116.9 243.45 117.65 246.55 120.25 246.55 122.95 L244.6 122.4 Q245.65 120.7 241.45 117.2" fill="#cc9900" fill-rule="evenodd" stroke="none"/>
    <path d="M241.45 117.2 Q245.65 120.7 244.6 122.4 242.1 121.4 240.9 118.85 240.75 117.5 241.45 117.2" fill="#ffcc33" fill-rule="evenodd" stroke="none"/>
    <path d="M244.6 122.4 L246.55 122.95 Q246.55 120.25 243.45 117.65 242.15 116.9 241.45 117.2 240.75 117.5 240.9 118.85 242.1 121.4 244.6 122.4 Z" fill="none" stroke="#000000" stroke-linecap="round" stroke-linejoin="round" stroke-opacity="0.41960785" stroke-width="0.05"/>
    <path d="M242.85 128.35 Q243.5 128.55 244.8 127.9 247.35 125.2 246.9 122.6 L245.0 123.15 Q246.4 124.8 242.85 128.35" fill="#cc9900" fill-rule="evenodd" stroke="none"/>
    <path d="M242.85 128.35 Q246.4 124.8 245.0 123.15 242.75 124.2 242.0 126.75 242.1 128.1 242.85 128.35" fill="#ffcc33" fill-rule="evenodd" stroke="none"/>
    <path d="M245.0 123.15 L246.9 122.6 Q247.35 125.2 244.8 127.9 243.5 128.55 242.85 128.35 242.1 128.1 242.0 126.75 242.75 124.2 245.0 123.15 Z" fill="none" stroke="#000000" stroke-linecap="round" stroke-linejoin="round" stroke-opacity="0.41960785" stroke-width="0.05"/>
    <path d="M244.75 116.1 Q245.45 115.8 246.75 116.55 249.85 119.15 249.85 121.85 L247.9 121.3 Q248.95 119.6 244.75 116.1" fill="#cc9900" fill-rule="evenodd" stroke="none"/>
    <path d="M244.75 116.1 Q248.95 119.6 247.9 121.3 245.4 120.3 244.2 117.75 244.05 116.4 244.75 116.1" fill="#ffcc33" fill-rule="evenodd" stroke="none"/>
    <path d="M247.9 121.3 L249.85 121.85 Q249.85 119.15 246.75 116.55 245.45 115.8 244.75 116.1 244.05 116.4 244.2 117.75 245.4 120.3 247.9 121.3 Z" fill="none" stroke="#000000" stroke-linecap="round" stroke-linejoin="round" stroke-opacity="0.41960785" stroke-width="0.05"/>
    <path d="M245.4 127.6 Q246.05 127.8 247.35 127.15 249.9 124.45 249.45 121.85 248.4 122.0 247.55 122.4 248.95 124.05 245.4 127.6" fill="#cc9900" fill-rule="evenodd" stroke="none"/>
    <path d="M245.4 127.6 Q248.95 124.05 247.55 122.4 245.3 123.45 244.55 126.0 244.65 127.35 245.4 127.6" fill="#ffcc33" fill-rule="evenodd" stroke="none"/>
    <path d="M247.55 122.4 Q248.4 122.0 249.45 121.85 249.9 124.45 247.35 127.15 246.05 127.8 245.4 127.6 244.65 127.35 244.55 126.0 245.3 123.45 247.55 122.4 Z" fill="none" stroke="#000000" stroke-linecap="round" stroke-linejoin="round" stroke-opacity="0.41960785" stroke-width="0.05"/>
    <path d="M233.0 138.05 Q232.7 137.65 233.0 136.45 234.65 133.7 236.9 133.05 L236.8 134.6 Q235.2 134.2 233.0 138.05" fill="#cc9900" fill-rule="evenodd" stroke="none"/>
    <path d="M233.0 138.05 Q235.2 134.2 236.8 134.6 236.4 136.55 234.5 138.0 L233.0 138.05" fill="#ffcc33" fill-rule="evenodd" stroke="none"/>
    <path d="M236.8 134.6 L236.9 133.05 Q234.65 133.7 233.0 136.45 232.7 137.65 233.0 138.05 L234.5 138.0 Q236.4 136.55 236.8 134.6 Z" fill="none" stroke="#000000" stroke-linecap="round" stroke-linejoin="round" stroke-opacity="0.41960785" stroke-width="0.05"/>
    <path d="M233.85 134.0 Q233.6 133.55 234.15 132.5 236.25 130.25 238.45 130.25 L238.0 131.7 Q236.65 130.9 233.85 134.0" fill="#cc9900" fill-rule="evenodd" stroke="none"/>
    <path d="M233.85 134.0 Q236.65 130.9 238.0 131.7 237.2 133.55 235.1 134.4 234.05 134.55 233.85 134.0" fill="#ffcc33" fill-rule="evenodd" stroke="none"/>
    <path d="M238.0 131.7 L238.45 130.25 Q236.25 130.25 234.15 132.5 233.6 133.55 233.85 134.0 234.05 134.55 235.1 134.4 237.2 133.55 238.0 131.7 Z" fill="none" stroke="#000000" stroke-linecap="round" stroke-linejoin="round" stroke-opacity="0.41960785" stroke-width="0.05"/>
    <path d="M234.15 131.25 Q234.05 130.75 234.9 129.85 237.8 128.15 240.1 128.7 L239.15 130.0 Q238.0 128.9 234.15 131.25" fill="#cc9900" fill-rule="evenodd" stroke="none"/>
    <path d="M234.15 131.25 Q238.0 128.9 239.15 130.0 237.8 131.6 235.4 131.95 234.25 131.8 234.15 131.25" fill="#ffcc33" fill-rule="evenodd" stroke="none"/>
    <path d="M239.15 130.0 L240.1 128.7 Q237.8 128.15 234.9 129.85 234.05 130.75 234.15 131.25 234.25 131.8 235.4 131.95 237.8 131.6 239.15 130.0 Z" fill="none" stroke="#000000" stroke-linecap="round" stroke-linejoin="round" stroke-opacity="0.41960785" stroke-width="0.05"/>
    <path d="M235.2 128.05 Q235.25 127.5 236.35 126.9 L241.55 127.05 240.4 128.1 Q239.55 126.7 235.2 128.05" fill="#cc9900" fill-rule="evenodd" stroke="none"/>
    <path d="M235.2 128.05 Q239.55 126.7 240.4 128.1 238.65 129.3 236.25 129.05 235.15 128.6 235.2 128.05" fill="#ffcc33" fill-rule="evenodd" stroke="none"/>
    <path d="M240.4 128.1 L241.55 127.05 236.35 126.9 Q235.25 127.5 235.2 128.05 235.15 128.6 236.25 129.05 238.65 129.3 240.4 128.1 Z" fill="none" stroke="#000000" stroke-linecap="round" stroke-linejoin="round" stroke-opacity="0.41960785" stroke-width="0.05"/>
    <path d="M236.15 126.0 Q236.2 125.45 237.2 124.8 240.1 123.8 241.8 124.85 L240.75 125.9 236.15 126.0" fill="#cc9900" fill-rule="evenodd" stroke="none"/>
    <path d="M236.15 126.0 L240.75 125.9 Q239.15 127.15 237.0 126.95 236.1 126.55 236.15 126.0" fill="#ffcc33" fill-rule="evenodd" stroke="none"/>
    <path d="M240.75 125.9 L241.8 124.85 Q240.1 123.8 237.2 124.8 236.2 125.45 236.15 126.0 236.1 126.55 237.0 126.95 239.15 127.15 240.75 125.9 Z" fill="none" stroke="#000000" stroke-linecap="round" stroke-linejoin="round" stroke-opacity="0.41960785" stroke-width="0.05"/>
    <path d="M237.45 135.6 L238.55 134.55 Q239.35 131.9 238.25 130.55 L237.2 131.65 Q238.6 132.05 237.45 135.6" fill="#cc9900" fill-rule="evenodd" stroke="none"/>
    <path d="M237.45 135.6 Q238.6 132.05 237.2 131.65 236.05 133.2 236.35 135.0 236.85 135.75 237.45 135.6" fill="#ffcc33" fill-rule="evenodd" stroke="none"/>
    <path d="M237.2 131.65 L238.25 130.55 Q239.35 131.9 238.55 134.55 L237.45 135.6 Q236.85 135.75 236.35 135.0 236.05 133.2 237.2 131.65 Z" fill="none" stroke="#000000" stroke-linecap="round" stroke-linejoin="round" stroke-opacity="0.41960785" stroke-width="0.05"/>
    <path d="M239.75 134.35 Q240.2 134.1 240.45 132.95 240.25 129.8 238.45 128.4 L237.85 129.85 Q239.5 130.05 239.75 134.35" fill="#cc9900" fill-rule="evenodd" stroke="none"/>
    <path d="M239.75 134.35 Q239.5 130.05 237.85 129.85 237.3 131.8 238.4 133.85 239.2 134.6 239.75 134.35" fill="#ffcc33" fill-rule="evenodd" stroke="none"/>
    <path d="M237.85 129.85 L238.45 128.4 Q240.25 129.8 240.45 132.95 240.2 134.1 239.75 134.35 239.2 134.6 238.4 133.85 237.3 131.8 237.85 129.85 Z" fill="none" stroke="#000000" stroke-linecap="round" stroke-linejoin="round" stroke-opacity="0.41960785" stroke-width="0.05"/>
    <path d="M242.15 132.0 Q242.55 131.6 242.5 130.5 241.6 127.75 239.6 127.0 239.35 127.75 239.35 128.45 241.0 128.2 242.15 132.0" fill="#cc9900" fill-rule="evenodd" stroke="none"/>
    <path d="M242.15 132.0 Q241.0 128.2 239.35 128.45 239.25 130.4 240.75 131.9 L242.15 132.0" fill="#ffcc33" fill-rule="evenodd" stroke="none"/>
    <path d="M239.35 128.45 Q239.35 127.75 239.6 127.0 241.6 127.75 242.5 130.5 242.55 131.6 242.15 132.0 L240.75 131.9 Q239.25 130.4 239.35 128.45 Z" fill="none" stroke="#000000" stroke-linecap="round" stroke-linejoin="round" stroke-opacity="0.41960785" stroke-width="0.05"/>
    <path d="M243.5 129.55 Q243.9 129.15 243.9 128.05 243.15 125.4 241.25 124.75 240.95 125.5 240.95 126.15 242.5 125.85 243.5 129.55" fill="#cc9900" fill-rule="evenodd" stroke="none"/>
    <path d="M243.5 129.55 Q242.5 125.85 240.95 126.15 240.8 128.1 242.15 129.45 L243.5 129.55" fill="#ffcc33" fill-rule="evenodd" stroke="none"/>
    <path d="M240.95 126.15 Q240.95 125.5 241.25 124.75 243.15 125.4 243.9 128.05 243.9 129.15 243.5 129.55 L242.15 129.45 Q240.8 128.1 240.95 126.15 Z" fill="none" stroke="#000000" stroke-linecap="round" stroke-linejoin="round" stroke-opacity="0.41960785" stroke-width="0.05"/>
    <path d="M236.9 124.9 Q236.95 124.35 237.95 123.7 240.85 122.7 242.55 123.75 L241.5 124.8 236.9 124.9" fill="#cc9900" fill-rule="evenodd" stroke="none"/>
    <path d="M236.9 124.9 L241.5 124.8 Q239.9 126.05 237.75 125.85 236.85 125.45 236.9 124.9" fill="#ffcc33" fill-rule="evenodd" stroke="none"/>
    <path d="M241.5 124.8 L242.55 123.75 Q240.85 122.7 237.95 123.7 236.95 124.35 236.9 124.9 236.85 125.45 237.75 125.85 239.9 126.05 241.5 124.8 Z" fill="none" stroke="#000000" stroke-linecap="round" stroke-linejoin="round" stroke-opacity="0.41960785" stroke-width="0.05"/>
    <path d="M245.3 127.7 Q245.7 127.3 245.7 126.2 244.95 123.55 243.05 122.9 242.75 123.65 242.75 124.3 244.3 124.0 245.3 127.7" fill="#cc9900" fill-rule="evenodd" stroke="none"/>
    <path d="M245.3 127.7 Q244.3 124.0 242.75 124.3 242.6 126.25 243.95 127.6 L245.3 127.7" fill="#ffcc33" fill-rule="evenodd" stroke="none"/>
    <path d="M242.75 124.3 Q242.75 123.65 243.05 122.9 244.95 123.55 245.7 126.2 245.7 127.3 245.3 127.7 L243.95 127.6 Q242.6 126.25 242.75 124.3 Z" fill="none" stroke="#000000" stroke-linecap="round" stroke-linejoin="round" stroke-opacity="0.41960785" stroke-width="0.05"/>
    <path d="M237.25 122.0 Q237.3 121.45 238.3 120.8 241.2 119.8 242.9 120.85 L241.85 121.9 237.25 122.0" fill="#cc9900" fill-rule="evenodd" stroke="none"/>
    <path d="M237.25 122.0 L241.85 121.9 Q240.25 123.15 238.1 122.95 237.2 122.55 237.25 122.0" fill="#ffcc33" fill-rule="evenodd" stroke="none"/>
    <path d="M241.85 121.9 L242.9 120.85 Q241.2 119.8 238.3 120.8 237.3 121.45 237.25 122.0 237.2 122.55 238.1 122.95 240.25 123.15 241.85 121.9 Z" fill="none" stroke="#000000" stroke-linecap="round" stroke-linejoin="round" stroke-opacity="0.41960785" stroke-width="0.05"/>
    <path d="M245.65 125.9 Q246.05 125.5 246.05 124.4 245.3 121.75 243.4 121.1 243.1 121.85 243.1 122.5 244.65 122.2 245.65 125.9" fill="#cc9900" fill-rule="evenodd" stroke="none"/>
    <path d="M245.65 125.9 Q244.65 122.2 243.1 122.5 242.95 124.45 244.3 125.8 L245.65 125.9" fill="#ffcc33" fill-rule="evenodd" stroke="none"/>
    <path d="M243.1 122.5 Q243.1 121.85 243.4 121.1 245.3 121.75 246.05 124.4 246.05 125.5 245.65 125.9 L244.3 125.8 Q242.95 124.45 243.1 122.5 Z" fill="none" stroke="#000000" stroke-linecap="round" stroke-linejoin="round" stroke-opacity="0.41960785" stroke-width="0.05"/>
    <path d="M232.9 110.55 Q233.3 110.25 234.5 110.55 237.25 112.2 237.9 114.4 L236.35 114.35 Q236.75 112.75 232.9 110.55" fill="#cc9900" fill-rule="evenodd" stroke="none"/>
    <path d="M232.9 110.55 Q236.75 112.75 236.35 114.35 234.4 113.9 232.95 112.0 232.5 110.9 232.9 110.55" fill="#ffcc33" fill-rule="evenodd" stroke="none"/>
    <path d="M236.35 114.35 L237.9 114.4 Q237.25 112.2 234.5 110.55 233.3 110.25 232.9 110.55 232.5 110.9 232.95 112.0 234.4 113.9 236.35 114.35 Z" fill="none" stroke="#000000" stroke-linecap="round" stroke-linejoin="round" stroke-opacity="0.41960785" stroke-width="0.05"/>
    <path d="M236.55 111.05 Q237.05 110.8 238.05 111.35 240.3 113.45 240.35 115.65 L238.85 115.2 Q239.65 113.85 236.55 111.05" fill="#cc9900" fill-rule="evenodd" stroke="none"/>
    <path d="M236.55 111.05 Q239.65 113.85 238.85 115.2 237.0 114.4 236.2 112.3 236.05 111.25 236.55 111.05" fill="#ffcc33" fill-rule="evenodd" stroke="none"/>
    <path d="M238.85 115.2 L240.35 115.65 Q240.3 113.45 238.05 111.35 237.05 110.8 236.55 111.05 236.05 111.25 236.2 112.3 237.0 114.4 238.85 115.2 Z" fill="none" stroke="#000000" stroke-linecap="round" stroke-linejoin="round" stroke-opacity="0.41960785" stroke-width="0.05"/>
    <path d="M239.7 111.25 Q240.25 111.15 241.1 112.05 242.8 114.95 242.25 117.2 L240.95 116.3 Q242.05 115.1 239.7 111.25" fill="#cc9900" fill-rule="evenodd" stroke="none"/>
    <path d="M239.7 111.25 Q242.05 115.1 240.95 116.3 239.35 114.9 239.0 112.55 239.15 111.35 239.7 111.25" fill="#ffcc33" fill-rule="evenodd" stroke="none"/>
    <path d="M240.95 116.3 L242.25 117.2 Q242.8 114.95 241.1 112.05 240.25 111.15 239.7 111.25 239.15 111.35 239.0 112.55 239.35 114.9 240.95 116.3 Z" fill="none" stroke="#000000" stroke-linecap="round" stroke-linejoin="round" stroke-opacity="0.41960785" stroke-width="0.05"/>
    <path d="M242.15 112.35 Q242.75 112.4 243.35 113.5 244.3 116.65 243.15 118.7 L242.1 117.5 Q243.55 116.65 242.15 112.35" fill="#cc9900" fill-rule="evenodd" stroke="none"/>
    <path d="M242.15 112.35 Q243.55 116.65 242.1 117.5 240.9 115.75 241.15 113.35 241.65 112.25 242.15 112.35" fill="#ffcc33" fill-rule="evenodd" stroke="none"/>
    <path d="M242.1 117.5 L243.15 118.7 Q244.3 116.65 243.35 113.5 242.75 112.4 242.15 112.35 241.65 112.25 241.15 113.35 240.9 115.75 242.1 117.5 Z" fill="none" stroke="#000000" stroke-linecap="round" stroke-linejoin="round" stroke-opacity="0.41960785" stroke-width="0.05"/>
    <path d="M244.6 113.35 Q245.15 113.4 245.8 114.4 246.8 117.25 245.75 119.0 L244.7 117.9 Q246.1 117.2 244.6 113.35" fill="#cc9900" fill-rule="evenodd" stroke="none"/>
    <path d="M244.6 113.35 Q246.1 117.2 244.7 117.9 243.45 116.3 243.65 114.15 244.05 113.25 244.6 113.35" fill="#ffcc33" fill-rule="evenodd" stroke="none"/>
    <path d="M244.7 117.9 L245.75 119.0 Q246.8 117.25 245.8 114.4 245.15 113.4 244.6 113.35 244.05 113.25 243.65 114.15 243.45 116.3 244.7 117.9 Z" fill="none" stroke="#000000" stroke-linecap="round" stroke-linejoin="round" stroke-opacity="0.41960785" stroke-width="0.05"/>
    <path d="M235.0 114.65 Q235.15 115.15 236.05 115.75 238.7 116.55 240.1 115.45 L239.0 114.4 Q238.6 115.8 235.0 114.65" fill="#cc9900" fill-rule="evenodd" stroke="none"/>
    <path d="M235.0 114.65 Q238.6 115.8 239.0 114.4 237.4 113.25 235.6 113.55 234.9 114.05 235.0 114.65" fill="#ffcc33" fill-rule="evenodd" stroke="none"/>
    <path d="M239.0 114.4 L240.1 115.45 Q238.7 116.55 236.05 115.75 235.15 115.15 235.0 114.65 234.9 114.05 235.6 113.55 237.4 113.25 239.0 114.4 Z" fill="none" stroke="#000000" stroke-linecap="round" stroke-linejoin="round" stroke-opacity="0.41960785" stroke-width="0.05"/>
    <path d="M236.25 117.65 Q236.5 118.15 237.65 118.4 240.8 118.2 242.2 116.4 241.5 115.95 240.75 115.8 240.55 117.45 236.25 117.65" fill="#cc9900" fill-rule="evenodd" stroke="none"/>
    <path d="M236.25 117.65 Q240.55 117.45 240.75 115.8 238.8 115.25 236.75 116.35 236.0 117.15 236.25 117.65" fill="#ffcc33" fill-rule="evenodd" stroke="none"/>
    <path d="M240.75 115.8 Q241.5 115.95 242.2 116.4 240.8 118.2 237.65 118.4 236.5 118.15 236.25 117.65 236.0 117.15 236.75 116.35 238.8 115.25 240.75 115.8 Z" fill="none" stroke="#000000" stroke-linecap="round" stroke-linejoin="round" stroke-opacity="0.41960785" stroke-width="0.05"/>
    <path d="M238.95 119.4 Q239.35 119.8 240.45 119.8 243.2 118.9 243.95 116.9 L242.5 116.6 Q242.75 118.25 238.95 119.4" fill="#cc9900" fill-rule="evenodd" stroke="none"/>
    <path d="M238.95 119.4 Q242.75 118.25 242.5 116.6 240.55 116.5 239.05 118.0 238.6 118.95 238.95 119.4" fill="#ffcc33" fill-rule="evenodd" stroke="none"/>
    <path d="M242.5 116.6 L243.95 116.9 Q243.2 118.9 240.45 119.8 239.35 119.8 238.95 119.4 238.6 118.95 239.05 118.0 240.55 116.5 242.5 116.6 Z" fill="none" stroke="#000000" stroke-linecap="round" stroke-linejoin="round" stroke-opacity="0.41960785" stroke-width="0.05"/>
    <path d="M240.7 120.65 Q241.1 121.05 242.15 121.1 244.8 120.35 245.5 118.45 L244.05 118.1 Q244.35 119.7 240.7 120.65" fill="#cc9900" fill-rule="evenodd" stroke="none"/>
    <path d="M240.7 120.65 Q244.35 119.7 244.05 118.1 242.15 117.95 240.75 119.3 240.35 120.25 240.7 120.65" fill="#ffcc33" fill-rule="evenodd" stroke="none"/>
    <path d="M244.05 118.1 L245.5 118.45 Q244.8 120.35 242.15 121.1 241.1 121.05 240.7 120.65 240.35 120.25 240.75 119.3 242.15 117.95 244.05 118.1 Z" fill="none" stroke="#000000" stroke-linecap="round" stroke-linejoin="round" stroke-opacity="0.41960785" stroke-width="0.05"/>
    <path d="M245.7 114.45 Q246.25 114.5 246.9 115.5 247.9 118.35 246.85 120.1 L245.8 119.0 Q247.2 118.3 245.7 114.45" fill="#cc9900" fill-rule="evenodd" stroke="none"/>
    <path d="M245.7 114.45 Q247.2 118.3 245.8 119.0 244.55 117.4 244.75 115.25 245.15 114.35 245.7 114.45" fill="#ffcc33" fill-rule="evenodd" stroke="none"/>
    <path d="M245.8 119.0 L246.85 120.1 Q247.9 118.35 246.9 115.5 246.25 114.5 245.7 114.45 245.15 114.35 244.75 115.25 244.55 117.4 245.8 119.0 Z" fill="none" stroke="#000000" stroke-linecap="round" stroke-linejoin="round" stroke-opacity="0.41960785" stroke-width="0.05"/>
    <path d="M242.9 122.1 Q243.3 122.5 244.35 122.55 247.0 121.8 247.7 119.9 L246.25 119.55 Q246.55 121.15 242.9 122.1" fill="#cc9900" fill-rule="evenodd" stroke="none"/>
    <path d="M242.9 122.1 Q246.55 121.15 246.25 119.55 244.35 119.4 242.95 120.75 242.55 121.7 242.9 122.1" fill="#ffcc33" fill-rule="evenodd" stroke="none"/>
    <path d="M246.25 119.55 L247.7 119.9 Q247.0 121.8 244.35 122.55 243.3 122.5 242.9 122.1 242.55 121.7 242.95 120.75 244.35 119.4 246.25 119.55 Z" fill="none" stroke="#000000" stroke-linecap="round" stroke-linejoin="round" stroke-opacity="0.41960785" stroke-width="0.05"/>
    <path d="M248.6 115.15 Q249.15 115.2 249.8 116.2 250.8 119.05 249.75 120.8 L248.7 119.7 Q250.1 119.0 248.6 115.15" fill="#cc9900" fill-rule="evenodd" stroke="none"/>
    <path d="M248.6 115.15 Q250.1 119.0 248.7 119.7 247.45 118.1 247.65 115.95 248.05 115.05 248.6 115.15" fill="#ffcc33" fill-rule="evenodd" stroke="none"/>
    <path d="M248.7 119.7 L249.75 120.8 Q250.8 119.05 249.8 116.2 249.15 115.2 248.6 115.15 248.05 115.05 247.65 115.95 247.45 118.1 248.7 119.7 Z" fill="none" stroke="#000000" stroke-linecap="round" stroke-linejoin="round" stroke-opacity="0.41960785" stroke-width="0.05"/>
    <path d="M245.05 122.85 Q245.45 123.25 246.5 123.3 249.15 122.55 249.85 120.65 L248.4 120.3 Q248.7 121.9 245.05 122.85" fill="#cc9900" fill-rule="evenodd" stroke="none"/>
    <path d="M245.05 122.85 Q248.7 121.9 248.4 120.3 246.5 120.15 245.1 121.5 244.7 122.45 245.05 122.85" fill="#ffcc33" fill-rule="evenodd" stroke="none"/>
    <path d="M248.4 120.3 L249.85 120.65 Q249.15 122.55 246.5 123.3 245.45 123.25 245.05 122.85 244.7 122.45 245.1 121.5 246.5 120.15 248.4 120.3 Z" fill="none" stroke="#000000" stroke-linecap="round" stroke-linejoin="round" stroke-opacity="0.41960785" stroke-width="0.05"/>
  </g>
</svg>
