<?xml version="1.0" encoding="UTF-8" standalone="no"?>
<svg xmlns:xlink="http://www.w3.org/1999/xlink" height="48.85px" width="91.5px" xmlns="http://www.w3.org/2000/svg">
  <g transform="matrix(1.0, 0.0, 0.0, 1.0, -228.95, -169.75)">
    <path d="M311.45 187.25 Q311.1 184.8 309.4 182.95 307.1 180.45 304.05 181.05 300.85 181.7 297.0 185.75 298.5 186.3 299.85 187.0 305.7 190.1 308.7 196.3 311.45 192.4 311.55 189.0 L311.45 187.25 M316.25 190.55 L319.65 193.1 315.75 193.75 Q314.5 198.55 310.3 202.35 303.55 191.45 291.6 185.7 296.55 177.1 302.8 175.8 308.3 174.7 312.45 179.2 314.8 181.8 315.7 185.05 L320.45 184.55 316.25 188.4 316.25 188.6 316.25 190.0 316.25 190.55" fill="#3a3a3a" fill-rule="evenodd" stroke="none"/>
    <path d="M311.45 187.25 L311.55 189.0 Q311.45 192.4 308.7 196.3 305.7 190.1 299.85 187.0 305.15 183.25 311.45 187.25" fill="#a3a3a3" fill-rule="evenodd" stroke="none"/>
    <path d="M299.85 187.0 Q298.5 186.3 297.0 185.75 300.85 181.7 304.05 181.05 307.1 180.45 309.4 182.95 311.1 184.8 311.45 187.25 305.15 183.25 299.85 187.0" fill="#7f7f7f" fill-rule="evenodd" stroke="none"/>
    <path d="M315.75 193.75 Q314.5 198.55 310.3 202.35 303.55 191.45 291.6 185.7 296.55 177.1 302.8 175.8 308.3 174.7 312.45 179.2 314.8 181.8 315.7 185.05 M316.25 188.6 L316.25 190.0 316.25 190.55" fill="none" stroke="#000000" stroke-linecap="round" stroke-linejoin="round" stroke-opacity="0.6" stroke-width="1.0"/>
    <path d="M240.75 195.05 Q243.9 189.45 250.05 187.1 246.2 183.95 242.8 183.5 L241.05 183.4 Q238.65 183.5 236.8 185.0 234.3 187.05 234.85 190.2 235.5 193.45 239.55 197.75 L240.75 195.05 M244.4 178.95 L246.95 175.75 247.55 179.8 Q252.3 181.55 256.05 186.15 245.2 191.8 239.45 203.2 230.95 197.3 229.65 190.9 228.6 185.25 233.05 181.55 235.7 179.5 238.95 178.9 L238.45 174.05 242.25 178.7 242.45 178.75 243.85 178.9 244.4 178.95" fill="#3a3a3a" fill-rule="evenodd" stroke="none"/>
    <path d="M241.05 183.4 L242.8 183.5 Q246.2 183.95 250.05 187.1 243.9 189.45 240.75 195.05 237.1 189.35 241.05 183.4" fill="#a3a3a3" fill-rule="evenodd" stroke="none"/>
    <path d="M240.75 195.05 L239.55 197.75 Q235.5 193.45 234.85 190.2 234.3 187.05 236.8 185.0 238.65 183.5 241.05 183.4 237.1 189.35 240.75 195.05" fill="#7f7f7f" fill-rule="evenodd" stroke="none"/>
    <path d="M247.55 179.8 Q252.3 181.55 256.05 186.15 245.2 191.8 239.45 203.2 230.95 197.3 229.65 190.9 228.6 185.25 233.05 181.55 235.7 179.5 238.95 178.9 M242.45 178.75 L243.85 178.9 244.4 178.95" fill="none" stroke="#000000" stroke-linecap="round" stroke-linejoin="round" stroke-opacity="0.6" stroke-width="1.0"/>
    <path d="M269.9 177.6 L269.55 183.2 261.9 182.4 262.15 177.95 269.9 177.6 M272.25 200.85 L258.3 211.6 249.1 203.9 252.45 190.6 264.25 190.3 272.25 200.85 M278.85 204.1 L285.25 203.7 288.05 215.0 277.8 218.6 272.9 211.55 278.85 204.1" fill="#3a3a3a" fill-rule="evenodd" stroke="none"/>
    <path d="M274.5 190.45 L280.15 169.75 295.85 191.45 278.65 195.25 274.5 190.45" fill="#f9f7f0" fill-rule="evenodd" stroke="none"/>
  </g>
</svg>
