<?xml version="1.0" encoding="UTF-8" standalone="no"?>
<svg xmlns:xlink="http://www.w3.org/1999/xlink" height="63.25px" width="50.4px" xmlns="http://www.w3.org/2000/svg">
  <g transform="matrix(1.0, 0.0, 0.0, 1.0, -249.7, -168.6)">
    <path d="M276.25 197.3 L277.35 194.4 283.1 193.55 283.75 192.15 285.2 193.15 284.5 193.25 284.15 194.3 277.7 195.75 277.5 197.25 289.95 200.4 296.1 203.2 287.55 194.7 295.8 200.2 297.65 204.2 297.95 207.05 297.2 207.55 297.1 208.1 296.75 208.4 296.55 208.9 276.5 204.5 276.2 204.65 275.7 204.6 276.25 197.3 M274.35 197.55 L271.7 204.4 253.05 207.15 253.3 203.9 265.85 191.05 273.25 194.45 275.45 195.75 274.35 197.55 M273.6 169.55 Q277.1 168.9 279.8 173.55 282.5 178.25 282.8 186.35 L282.75 188.25 281.3 189.25 Q273.1 192.7 265.85 187.85 265.55 181.4 267.85 175.8 270.1 170.2 273.6 169.55 M254.65 203.6 L254.9 203.55 254.65 203.1 254.65 203.6 M266.9 187.5 L267.15 187.6 267.25 187.4 267.2 187.15 266.75 187.4 266.9 187.5 M281.7 186.1 L267.2 187.15 281.7 186.1 M272.8 197.9 L272.75 197.9 272.8 197.9 M254.9 203.55 L272.75 197.9 254.9 203.55 M276.75 203.1 L277.2 203.1 276.9 202.5 276.75 203.1 M280.15 188.2 L267.25 187.4 280.15 188.2 M254.6 205.65 L254.45 204.4 254.2 205.7 254.6 205.65" fill="#60adad" fill-opacity="0.5019608" fill-rule="evenodd" stroke="none"/>
    <path d="M274.5 204.5 L274.65 204.45 Q284.15 208.2 294.55 209.35 L294.85 209.45 295.0 209.6 295.6 210.3 295.25 210.55 Q287.35 215.95 278.1 218.5 L275.3 218.45 Q264.6 214.75 254.55 209.35 L254.0 209.65 253.95 209.6 Q255.6 207.05 259.25 206.45 L274.5 204.5 M274.5 207.45 L274.65 215.9 274.5 207.45 M274.65 215.9 L274.45 216.7 274.65 216.75 274.65 215.9 M255.95 209.1 L256.1 209.15 256.15 209.05 255.95 209.1" fill="#8c66a4" fill-opacity="0.5019608" fill-rule="evenodd" stroke="none"/>
    <path d="M295.25 210.55 L293.5 215.45 291.75 222.55 291.0 222.85 291.0 222.9 290.55 223.15 Q289.25 224.1 287.75 224.65 L275.15 229.2 275.05 229.4 273.1 229.1 Q267.55 227.95 263.2 224.25 L254.0 209.65 254.55 209.35 Q264.6 214.75 275.3 218.45 L278.1 218.5 Q287.35 215.95 295.25 210.55 M264.75 223.7 L284.95 222.8 285.6 223.05 284.95 222.8 264.75 223.7" fill="#402e4b" fill-opacity="0.5019608" fill-rule="evenodd" stroke="none"/>
    <path d="M277.5 197.25 L289.95 200.4 296.1 203.2 M276.25 197.3 L274.35 197.55 M253.3 203.9 L252.45 204.15 M263.2 224.25 L260.55 225.15 M292.45 225.65 L290.55 224.9 M285.6 223.05 L284.95 222.8 264.75 223.7 M254.65 203.6 L254.9 203.55 272.75 197.9 272.8 197.9 M267.25 187.4 L266.9 187.5 M266.75 187.4 L267.2 187.15 281.7 186.1 M265.85 187.85 L264.7 188.4 M275.6 198.35 Q274.7 201.35 274.5 204.5 M267.25 187.4 L280.15 188.2 M274.65 215.9 L274.5 207.45 M274.65 215.9 L274.65 216.75 M284.4 186.8 L282.8 186.35" fill="none" stroke="#67afaf" stroke-linecap="round" stroke-linejoin="round" stroke-width="0.05"/>
    <path d="M262.2 190.15 L261.25 187.75 263.1 188.25 Q262.8 188.8 263.3 189.4 263.8 189.85 264.55 189.8 268.7 191.9 273.05 193.4 L273.3 193.3 273.65 192.85 Q270.2 190.45 265.75 189.35 L265.2 188.85 276.0 191.85 Q275.45 192.4 275.55 192.65 L275.55 192.75 275.55 193.1 277.2 192.95 280.55 192.3 Q282.55 191.8 284.55 190.9 280.8 194.05 276.15 194.9 L275.6 194.85 Q268.8 193.15 262.45 190.2 L262.3 190.05 262.2 190.1 262.2 190.15 M285.95 189.65 L284.55 190.9 Q285.35 189.6 286.5 188.7 L286.0 189.55 285.95 189.65 M286.75 188.25 Q286.8 187.6 286.0 187.6 L285.7 187.9 285.3 187.75 284.9 187.75 285.3 187.5 287.25 187.35 286.75 188.25 M285.3 187.75 L285.3 187.5 285.3 187.75 M287.85 226.25 L286.35 227.15 280.6 229.4 280.5 222.4 280.4 213.0 Q281.15 216.35 282.65 218.8 285.1 222.95 287.85 226.25" fill="#4d8c87" fill-opacity="0.5019608" fill-rule="evenodd" stroke="none"/>
    <path d="M280.95 176.85 Q279.6 173.95 277.45 171.4 L277.0 171.65 Q278.05 174.35 278.5 177.05 279.2 181.75 277.95 186.6 L277.1 187.45 277.5 188.0 278.2 187.95 Q280.85 187.2 283.05 185.55 282.8 180.85 280.95 176.85 M279.4 176.9 L279.85 177.35 279.55 177.45 279.4 176.9 M274.35 171.55 L274.4 171.4 Q274.85 170.6 274.0 170.25 273.2 170.55 272.55 171.0 271.0 171.95 269.85 173.55 L269.45 174.25 Q265.9 180.15 267.0 187.55 L274.05 189.1 274.3 188.4 Q272.35 181.7 272.9 174.95 L273.25 171.95 274.35 171.55 M262.2 190.15 L262.2 190.1 262.3 190.05 262.45 190.2 Q268.8 193.15 275.6 194.85 L276.15 194.9 Q280.8 194.05 284.55 190.9 282.55 191.8 280.55 192.3 L277.2 192.95 275.55 193.1 275.55 192.75 275.55 192.65 Q275.45 192.4 276.0 191.85 L265.2 188.85 263.1 188.25 Q263.1 184.25 263.95 180.7 264.85 176.9 266.45 174.3 269.75 169.0 274.35 169.1 278.9 169.15 282.15 174.6 285.35 180.0 285.3 187.5 L284.6 187.85 284.9 187.75 285.3 187.75 285.7 187.9 286.0 187.6 Q286.8 187.6 286.75 188.25 L286.5 188.7 286.75 188.25 286.7 188.4 286.65 188.6 286.5 188.7 Q285.35 189.6 284.55 190.9 L285.95 189.65 Q293.8 194.4 298.85 201.85 299.95 203.45 299.45 205.4 297.05 214.15 294.0 222.65 L292.65 226.1 276.3 231.0 271.95 225.3 Q269.15 221.85 265.4 218.95 L258.45 213.4 256.8 211.95 Q254.95 210.15 253.65 208.35 L256.0 212.4 256.15 212.65 260.85 222.25 Q262.55 225.85 266.3 226.95 269.7 227.9 272.25 229.85 L273.15 230.45 260.75 225.35 Q254.75 216.0 250.45 205.85 249.9 204.55 250.6 203.3 253.85 197.2 259.2 192.7 L262.2 190.15 262.45 190.2 262.2 190.15 M276.0 191.85 L284.9 187.75 276.0 191.85 M262.4 191.55 Q260.2 192.75 258.45 194.8 255.05 198.65 252.6 203.1 255.25 204.45 257.5 202.65 263.6 197.65 271.2 196.6 L271.4 196.55 271.8 196.1 271.75 196.0 Q266.85 194.2 262.4 191.55 M280.8 190.25 L280.7 190.35 Q280.25 190.6 280.35 191.05 281.9 191.75 283.95 190.8 L285.95 189.05 286.05 188.85 Q286.2 188.05 285.3 188.05 283.45 189.75 280.8 190.25 M277.55 197.0 Q286.4 201.25 295.95 203.5 L296.3 202.75 286.65 193.35 285.4 192.55 Q282.65 195.45 278.55 196.3 L277.85 196.45 277.55 197.0 M297.3 204.6 Q293.4 205.95 288.8 207.65 284.55 209.15 280.4 211.3 282.05 212.4 283.8 212.85 287.85 213.95 288.4 217.15 289.2 222.2 289.35 225.8 290.8 224.25 291.65 221.95 293.1 217.7 294.85 213.45 296.6 209.1 297.3 204.6 M287.85 226.25 Q285.1 222.95 282.65 218.8 281.15 216.35 280.4 213.0 L280.5 222.4 280.6 229.4 286.35 227.15 287.85 226.25 M266.05 212.35 Q269.2 214.25 270.9 217.1 272.45 219.7 273.8 223.0 275.25 226.55 277.0 230.1 276.15 226.5 275.7 222.85 275.1 218.2 274.9 212.15 273.2 210.4 269.55 209.95 265.15 209.45 260.95 208.25 L260.35 208.1 254.55 206.1 251.9 205.0 Q252.75 206.15 254.2 206.8 L254.25 206.8 259.9 209.25 260.4 209.45 260.6 209.55 Q263.35 210.75 266.05 212.35" fill="#60adad" fill-opacity="0.5019608" fill-rule="evenodd" stroke="none"/>
    <path d="M280.8 190.25 Q283.45 189.75 285.3 188.05 286.2 188.05 286.05 188.85 L285.95 189.05 283.95 190.8 Q281.9 191.75 280.35 191.05 280.25 190.6 280.7 190.35 L280.8 190.25" fill="#cae3e3" fill-opacity="0.2" fill-rule="evenodd" stroke="none"/>
    <path d="M274.35 171.55 L273.25 171.95 272.9 174.95 Q272.35 181.7 274.3 188.4 L274.05 189.1 267.0 187.55 Q265.9 180.15 269.45 174.25 L269.85 173.55 Q271.0 171.95 272.55 171.0 273.2 170.55 274.0 170.25 274.85 170.6 274.4 171.4 L274.35 171.55 M265.2 188.85 L265.75 189.35 Q270.2 190.45 273.65 192.85 L273.3 193.3 273.05 193.4 Q268.7 191.9 264.55 189.8 263.8 189.85 263.3 189.4 262.8 188.8 263.1 188.25 L265.2 188.85 M273.15 230.45 L272.25 229.85 Q269.7 227.9 266.3 226.95 262.55 225.85 260.85 222.25 L256.15 212.65 256.0 212.4 253.65 208.35 Q254.95 210.15 256.8 211.95 L258.45 213.4 265.4 218.95 Q269.15 221.85 271.95 225.3 L276.3 231.0 276.5 231.35 275.45 231.25 273.15 230.45 M262.4 191.55 Q266.85 194.2 271.75 196.0 L271.8 196.1 271.4 196.55 271.2 196.6 Q263.6 197.65 257.5 202.65 255.25 204.45 252.6 203.1 255.05 198.65 258.45 194.8 260.2 192.75 262.4 191.55 M266.05 212.35 Q263.35 210.75 260.6 209.55 L260.4 209.45 259.9 209.25 254.25 206.8 254.2 206.8 Q252.75 206.15 251.9 205.0 L254.55 206.1 260.35 208.1 260.95 208.25 Q265.15 209.45 269.55 209.95 273.2 210.4 274.9 212.15 275.1 218.2 275.7 222.85 276.15 226.5 277.0 230.1 275.25 226.55 273.8 223.0 272.45 219.7 270.9 217.1 269.2 214.25 266.05 212.35 M275.45 231.25 L276.3 231.0 275.45 231.25" fill="#2c4e48" fill-opacity="0.5019608" fill-rule="evenodd" stroke="none"/>
    <path d="M278.5 177.05 Q278.05 174.35 277.0 171.65 L277.45 171.4 Q279.6 173.95 280.95 176.85 L279.85 177.35 279.4 176.9 278.5 177.05" fill="#ffffff" fill-opacity="0.8" fill-rule="evenodd" stroke="none"/>
    <path d="M280.95 176.85 Q282.8 180.85 283.05 185.55 280.85 187.2 278.2 187.95 L277.5 188.0 277.1 187.45 277.95 186.6 Q279.2 181.75 278.5 177.05 L279.4 176.9 279.55 177.45 279.85 177.35 280.95 176.85 M277.55 197.0 L277.85 196.45 278.55 196.3 Q282.65 195.45 285.4 192.55 L286.65 193.35 296.3 202.75 295.95 203.5 Q286.4 201.25 277.55 197.0 M297.3 204.6 Q296.6 209.1 294.85 213.45 293.1 217.7 291.65 221.95 290.8 224.25 289.35 225.8 289.2 222.2 288.4 217.15 287.85 213.95 283.8 212.85 282.05 212.4 280.4 211.3 284.55 209.15 288.8 207.65 293.4 205.95 297.3 204.6" fill="#ffffff" fill-opacity="0.5019608" fill-rule="evenodd" stroke="none"/>
    <path d="M262.2 190.15 L262.2 190.1 M262.3 190.05 L262.45 190.2 Q268.8 193.15 275.6 194.85 L276.15 194.9 Q280.8 194.05 284.55 190.9 L285.95 189.65 M276.0 191.85 L265.2 188.85 263.1 188.25 M262.45 190.2 L262.2 190.15 M286.5 188.7 L286.75 188.25 M284.9 187.75 L276.0 191.85 M286.5 188.7 L286.0 189.55 M284.9 187.75 L285.3 187.5 285.3 187.75 M276.3 231.0 L275.45 231.25" fill="none" stroke="#67afaf" stroke-linecap="round" stroke-linejoin="round" stroke-width="0.05"/>
    <path d="M263.1 188.25 L261.25 187.75 262.2 190.15 259.2 192.7 Q253.85 197.2 250.6 203.3 249.9 204.55 250.45 205.85 254.75 216.0 260.75 225.35 L273.15 230.45 275.45 231.25 276.5 231.35 276.3 231.0 292.65 226.1 294.0 222.65 Q297.05 214.15 299.45 205.4 299.95 203.45 298.85 201.85 293.8 194.4 285.95 189.65 M263.1 188.25 Q263.1 184.25 263.95 180.7 264.85 176.9 266.45 174.3 269.75 169.0 274.35 169.1 278.9 169.15 282.15 174.6 285.35 180.0 285.3 187.5 L287.25 187.35 286.75 188.25" fill="none" stroke="#67afaf" stroke-linecap="round" stroke-linejoin="round" stroke-width="1.0"/>
  </g>
</svg>
