<?xml version="1.0" encoding="UTF-8" standalone="no"?>
<svg xmlns:xlink="http://www.w3.org/1999/xlink" height="65.2px" width="91.5px" xmlns="http://www.w3.org/2000/svg">
  <g transform="matrix(1.0, 0.0, 0.0, 1.0, -228.95, -169.3)">
    <path d="M311.45 186.8 Q311.1 184.35 309.4 182.5 307.1 180.0 304.05 180.6 300.85 181.25 297.0 185.3 298.5 185.85 299.85 186.55 305.7 189.65 308.7 195.85 311.45 191.95 311.55 188.55 L311.45 186.8 M316.25 190.1 L319.65 192.65 315.75 193.3 Q314.5 198.1 310.3 201.9 303.55 191.0 291.6 185.25 296.55 176.65 302.8 175.35 308.3 174.25 312.45 178.75 314.8 181.35 315.7 184.6 L320.45 184.1 316.25 187.95 316.25 188.15 316.25 189.55 316.25 190.1" fill="#3a3a3a" fill-rule="evenodd" stroke="none"/>
    <path d="M311.45 186.8 L311.55 188.55 Q311.45 191.95 308.7 195.85 305.7 189.65 299.85 186.55 305.15 182.8 311.45 186.8" fill="#a3a3a3" fill-rule="evenodd" stroke="none"/>
    <path d="M299.85 186.55 Q298.5 185.85 297.0 185.3 300.85 181.25 304.05 180.6 307.1 180.0 309.4 182.5 311.1 184.35 311.45 186.8 305.15 182.8 299.85 186.55" fill="#7f7f7f" fill-rule="evenodd" stroke="none"/>
    <path d="M315.75 193.3 Q314.5 198.1 310.3 201.9 303.55 191.0 291.6 185.25 296.55 176.65 302.8 175.35 308.3 174.25 312.45 178.75 314.8 181.35 315.7 184.6 M316.25 188.15 L316.25 189.55 316.25 190.1" fill="none" stroke="#000000" stroke-linecap="round" stroke-linejoin="round" stroke-opacity="0.6" stroke-width="1.0"/>
    <path d="M240.75 194.6 Q243.9 189.0 250.05 186.65 246.2 183.5 242.8 183.05 L241.05 182.95 Q238.65 183.05 236.8 184.55 234.3 186.6 234.85 189.75 235.5 193.0 239.55 197.3 L240.75 194.6 M244.4 178.5 L246.95 175.3 247.55 179.35 Q252.3 181.1 256.05 185.7 245.2 191.35 239.45 202.75 230.95 196.85 229.65 190.45 228.6 184.8 233.05 181.1 235.7 179.05 238.95 178.45 L238.45 173.6 242.25 178.25 242.45 178.3 243.85 178.45 244.4 178.5" fill="#3a3a3a" fill-rule="evenodd" stroke="none"/>
    <path d="M241.05 182.95 L242.8 183.05 Q246.2 183.5 250.05 186.65 243.9 189.0 240.75 194.6 237.1 188.9 241.05 182.95" fill="#a3a3a3" fill-rule="evenodd" stroke="none"/>
    <path d="M240.75 194.6 L239.55 197.3 Q235.5 193.0 234.85 189.75 234.3 186.6 236.8 184.55 238.65 183.05 241.05 182.95 237.1 188.9 240.75 194.6" fill="#7f7f7f" fill-rule="evenodd" stroke="none"/>
    <path d="M247.55 179.35 Q252.3 181.1 256.05 185.7 245.2 191.35 239.45 202.75 230.95 196.85 229.65 190.45 228.6 184.8 233.05 181.1 235.7 179.05 238.95 178.45 M242.45 178.3 L243.85 178.45 244.4 178.5" fill="none" stroke="#000000" stroke-linecap="round" stroke-linejoin="round" stroke-opacity="0.6" stroke-width="1.0"/>
    <path d="M269.9 177.15 L269.55 182.75 261.9 181.95 262.15 177.5 269.9 177.15 M278.85 203.65 L285.25 203.25 288.05 214.55 277.8 218.15 272.9 211.1 278.85 203.65 M272.25 200.4 L258.3 211.15 249.1 203.45 252.45 190.15 264.25 189.85 272.25 200.4" fill="#3a3a3a" fill-rule="evenodd" stroke="none"/>
    <path d="M274.5 190.0 L280.15 169.3 295.85 191.0 278.65 194.8 274.5 190.0" fill="#f9f7f0" fill-rule="evenodd" stroke="none"/>
    <path d="M293.95 226.45 L295.55 233.85 291.4 234.5 290.35 227.2 293.95 226.45" fill="#3a3a3a" fill-rule="evenodd" stroke="none"/>
  </g>
</svg>
