<?xml version="1.0" encoding="UTF-8" standalone="no"?>
<svg xmlns:xlink="http://www.w3.org/1999/xlink" height="42.5px" width="50.15px" xmlns="http://www.w3.org/2000/svg">
  <g transform="matrix(1.0, 0.0, 0.0, 1.0, -249.9, -179.2)">
    <path d="M279.8 186.65 L277.85 184.95 271.85 183.55 265.45 184.45 259.5 188.15 257.0 192.45 257.35 198.45 259.1 198.2 259.25 198.2 262.9 197.75 267.8 196.8 271.85 195.85 271.7 203.15 257.05 203.1 257.0 198.5 256.45 198.55 255.7 198.65 256.3 192.7 Q258.05 187.85 261.6 186.0 265.7 182.95 271.0 183.0 277.1 183.5 280.65 185.55 L279.95 186.5 279.8 186.65 M257.35 198.45 L257.0 198.5 257.35 198.45" fill="#a05a14" fill-rule="evenodd" stroke="none"/>
    <path d="M267.8 196.8 Q269.8 195.8 271.85 194.35 L272.0 194.25 273.1 193.4 273.1 195.55 272.45 195.7 271.85 195.85 267.8 196.8 M257.05 203.1 L256.4 203.1 256.45 198.55 257.0 198.5 257.05 203.1" fill="#713f0f" fill-rule="evenodd" stroke="none"/>
    <path d="M273.25 185.9 L273.4 187.1 273.25 185.9 M276.05 187.7 L273.4 187.1 271.85 186.95 Q267.85 187.0 263.3 189.25 260.75 191.15 259.1 194.5 L259.1 198.2 257.35 198.45 257.0 192.45 259.5 188.15 265.45 184.45 271.85 183.55 277.85 184.95 279.8 186.65 278.15 188.55 Q277.2 188.0 276.05 187.7 L276.1 186.25 276.05 187.7 M273.1 193.4 L273.15 193.4 278.2 197.4 276.05 199.8 274.5 205.75 268.85 207.45 265.6 204.3 273.1 204.3 273.1 195.55 273.1 193.4 M288.1 197.45 L282.95 197.7 284.85 196.3 288.15 197.45 288.1 197.45" fill="#59330d" fill-rule="evenodd" stroke="none"/>
    <path d="M268.85 207.45 L274.5 205.75 276.05 199.8 278.2 197.4 279.45 198.4 279.6 198.5 280.65 199.3 282.95 197.7 288.1 197.45 288.15 197.45 Q293.3 199.05 296.6 202.3 295.75 206.3 292.3 209.2 L292.15 209.4 289.4 210.7 285.05 212.25 279.15 213.25 278.65 213.1 Q272.95 211.45 268.85 207.45" fill="#6b3c0e" fill-rule="evenodd" stroke="none"/>
    <path d="M298.4 202.05 Q301.75 206.7 298.4 212.3 293.25 221.15 278.6 221.7 264.8 214.6 258.0 207.5 L257.7 204.35 262.75 204.3 Q264.5 206.2 266.9 208.0 271.25 211.2 277.65 214.05 L285.35 213.4 Q287.8 212.85 289.85 211.95 L290.2 213.15 289.85 211.95 Q296.35 209.05 298.4 202.05 M285.75 214.9 L285.35 213.4 285.75 214.9" fill="#4f2d0b" fill-rule="evenodd" stroke="none"/>
    <path d="M255.7 198.65 L256.45 198.55 256.4 203.1 257.05 203.1 271.7 203.15 271.85 195.85 272.45 195.7 272.4 203.8 255.45 203.75 255.6 198.7 255.7 198.65 M290.9 197.3 Q294.65 199.0 298.4 202.05 296.35 209.05 289.85 211.95 L289.65 211.3 289.85 211.95 Q287.8 212.85 285.35 213.4 L277.65 214.05 Q271.25 211.2 266.9 208.0 L268.3 207.6 272.45 210.95 278.65 213.6 285.2 212.75 285.2 212.8 285.35 213.4 285.2 212.8 289.65 211.3 289.6 211.25 Q291.8 210.35 294.2 207.8 296.35 205.5 296.85 204.15 L297.35 202.15 Q293.4 198.7 289.2 197.4 L290.9 197.3 M288.15 197.45 L288.1 197.45 288.15 197.45" fill="#ebdc70" fill-rule="evenodd" stroke="none"/>
    <path d="M255.45 203.75 L272.4 203.8 272.45 195.7 273.1 195.55 273.1 204.3 265.6 204.3 262.75 204.3 257.7 204.35 255.4 204.3 255.45 203.8 255.45 203.75 M288.15 197.45 L289.2 197.4 Q293.4 198.7 297.35 202.15 L296.85 204.15 Q296.35 205.5 294.2 207.8 291.8 210.35 289.6 211.25 L289.4 210.7 289.6 211.25 289.65 211.3 285.2 212.8 285.2 212.75 278.65 213.6 272.45 210.95 268.3 207.6 268.85 207.45 Q272.95 211.45 278.65 213.1 L279.15 213.25 285.05 212.25 289.4 210.7 292.15 209.4 292.3 209.2 Q295.75 206.3 296.6 202.3 293.3 199.05 288.15 197.45 M285.05 212.25 L285.2 212.75 285.05 212.25" fill="#e9aa27" fill-rule="evenodd" stroke="none"/>
    <path d="M285.9 195.55 Q288.4 196.15 290.9 197.3 L289.2 197.4 288.15 197.45 284.85 196.3 285.9 195.55 M265.6 204.3 L268.85 207.45 268.3 207.6 266.9 208.0 Q264.5 206.2 262.75 204.3 L265.6 204.3" fill="#b98313" fill-rule="evenodd" stroke="none"/>
    <path d="M273.4 187.1 L273.6 188.65 M273.4 187.1 L273.25 185.9 M276.05 187.7 L276.1 186.25 M257.35 198.45 L259.1 198.2 259.25 198.2 262.9 197.75 267.8 196.8 Q269.8 195.8 271.85 194.35 M272.0 194.25 L273.1 193.4 M273.15 193.4 L274.2 192.5 278.15 188.55 279.8 186.65 279.95 186.5 280.65 185.55 280.75 185.6 291.15 191.8 285.9 195.55 Q288.4 196.15 290.9 197.3 294.65 199.0 298.4 202.05 301.75 206.7 298.4 212.3 293.25 221.15 278.6 221.7 264.8 214.6 258.0 207.5 L257.7 204.35 255.4 204.3 255.45 203.8 M276.05 187.7 L276.0 188.5 M256.45 198.55 L255.7 198.65 255.6 198.7 255.45 203.75 M256.45 198.55 L257.0 198.5 257.35 198.45 M255.7 198.65 L256.3 192.7 Q258.05 187.85 261.6 186.0 265.7 182.95 271.0 183.0 277.1 183.5 280.65 185.55 M273.1 195.55 L273.1 204.3 M278.2 197.4 L273.15 193.4 M279.45 198.4 L278.2 197.4 M280.65 199.3 L279.6 198.5 M289.4 210.7 L289.6 211.25 289.65 211.3 289.85 211.95 Q296.35 209.05 298.4 202.05 M285.2 212.8 L285.2 212.75 285.05 212.25 M266.9 208.0 Q271.25 211.2 277.65 214.05 L285.35 213.4 285.2 212.8 M289.85 211.95 L290.2 213.15 M285.35 213.4 Q287.8 212.85 289.85 211.95 M285.35 213.4 L285.75 214.9 M262.75 204.3 Q264.5 206.2 266.9 208.0" fill="none" stroke="#000000" stroke-linecap="round" stroke-linejoin="round" stroke-opacity="0.3019608" stroke-width="0.05"/>
    <path d="M273.1 193.4 L273.15 193.4 M273.1 204.3 L265.6 204.3 262.75 204.3 257.7 204.35 M282.95 197.7 L280.65 199.3 M282.95 197.7 L284.85 196.3 285.9 195.55" fill="none" stroke="#000000" stroke-linecap="round" stroke-linejoin="round" stroke-opacity="0.3019608" stroke-width="0.05"/>
    <path d="M281.55 203.95 Q279.8 204.2 279.55 202.6 281.55 200.6 283.7 200.35 L284.3 200.3 Q285.65 200.6 286.2 201.45 283.4 201.8 281.55 203.95 M287.1 207.55 Q285.35 207.85 285.1 206.25 287.1 204.2 289.2 204.0 L289.85 203.95 Q291.2 204.25 291.75 205.1 288.95 205.45 287.1 207.55" fill="#a05a14" fill-rule="evenodd" stroke="none"/>
    <path d="M279.55 202.6 Q281.55 200.6 283.7 200.35 L284.3 200.3 M286.2 201.45 Q283.4 201.8 281.55 203.95 M285.1 206.25 Q287.1 204.2 289.2 204.0 L289.85 203.95 M291.75 205.1 Q288.95 205.45 287.1 207.55" fill="none" stroke="#000000" stroke-linecap="round" stroke-linejoin="round" stroke-opacity="0.3019608" stroke-width="0.05"/>
    <path d="M281.55 203.95 Q279.8 204.2 279.55 202.6 M284.3 200.3 Q285.65 200.6 286.2 201.45 M287.1 207.55 Q285.35 207.85 285.1 206.25 M289.85 203.95 Q291.2 204.25 291.75 205.1" fill="none" stroke="#000000" stroke-linecap="round" stroke-linejoin="round" stroke-opacity="0.3019608" stroke-width="0.05"/>
    <path d="M281.25 204.25 Q283.7 201.8 286.35 201.5 L287.1 201.4 Q288.8 201.8 289.5 202.85 286.05 203.3 283.7 205.9 281.55 206.3 281.25 204.25 M282.15 198.65 Q283.85 199.0 284.55 200.05 281.1 200.5 278.75 203.15 276.6 203.5 276.3 201.5 278.75 199.0 281.4 198.7 L282.15 198.65" fill="#a05a14" fill-rule="evenodd" stroke="none"/>
    <path d="M281.25 204.25 Q283.7 201.8 286.35 201.5 L287.1 201.4 M289.5 202.85 Q286.05 203.3 283.7 205.9 M284.55 200.05 Q281.1 200.5 278.75 203.15 M276.3 201.5 Q278.75 199.0 281.4 198.7 L282.15 198.65" fill="none" stroke="#000000" stroke-linecap="round" stroke-linejoin="round" stroke-opacity="0.3019608" stroke-width="0.05"/>
    <path d="M287.1 201.4 Q288.8 201.8 289.5 202.85 M283.7 205.9 Q281.55 206.3 281.25 204.25 M282.15 198.65 Q283.85 199.0 284.55 200.05 M278.75 203.15 Q276.6 203.5 276.3 201.5" fill="none" stroke="#000000" stroke-linecap="round" stroke-linejoin="round" stroke-opacity="0.3019608" stroke-width="0.05"/>
    <path d="M274.3 189.15 Q272.6 184.3 275.45 179.45 273.8 183.75 275.9 188.5 278.75 181.15 282.95 180.3 278.7 182.55 277.95 189.65 L274.3 189.15" fill="#6b3c0e" fill-rule="evenodd" stroke="none"/>
    <path d="M269.35 189.5 Q267.65 184.65 270.5 179.8 268.85 184.1 270.95 188.85 273.8 181.5 278.0 180.65 273.75 182.9 273.0 190.0 L269.35 189.5" fill="#6b3c0e" fill-rule="evenodd" stroke="none"/>
    <path d="M268.55 188.9 Q270.25 184.05 267.4 179.2 269.05 183.5 266.95 188.25 264.1 180.9 259.9 180.05 264.15 182.3 264.9 189.4 L268.55 188.9" fill="#6b3c0e" fill-rule="evenodd" stroke="none"/>
    <path d="M267.85 191.45 Q269.55 186.6 266.7 181.75 268.35 186.05 266.25 190.8 263.4 183.45 259.2 182.6 263.45 184.85 264.2 191.95 L267.85 191.45" fill="#6b3c0e" fill-rule="evenodd" stroke="none"/>
    <path d="M262.2 194.65 Q259.8 190.1 254.25 188.95 258.6 190.65 260.65 195.4 253.3 192.55 249.9 195.1 254.4 193.45 260.15 197.65 L262.2 194.65" fill="#6b3c0e" fill-rule="evenodd" stroke="none"/>
    <path d="M273.4 187.1 L276.05 187.7 Q277.2 188.0 278.15 188.55 275.65 191.35 273.15 193.4 L273.1 193.4 Q270.45 195.5 267.8 196.8 L262.9 197.75 259.25 198.2 259.1 198.2 259.1 194.5 Q260.75 191.15 263.3 189.25 267.85 187.0 271.85 186.95 L273.4 187.1" fill="#41250a" fill-rule="evenodd" stroke="none"/>
    <path d="M274.9 194.75 L273.15 193.4 274.2 192.5 278.15 188.55 279.8 186.65 279.95 186.5 280.65 185.55 280.75 185.6 282.05 186.4 281.3 187.25 289.45 191.95 288.8 192.4 280.85 187.8 275.75 193.75 275.4 194.15 275.4 194.2 274.9 194.75" fill="#713f0f" fill-rule="evenodd" stroke="none"/>
    <path d="M275.4 194.15 L275.75 193.75 280.65 197.8 280.75 197.75 288.8 192.4 289.45 191.95 281.3 187.25 282.05 186.4 290.8 191.6 280.6 198.3 275.4 194.15" fill="#ebdc70" fill-rule="evenodd" stroke="none"/>
    <path d="M275.75 193.75 L280.85 187.8 288.8 192.4 280.75 197.75 280.65 197.8 275.75 193.75" fill="#a05a14" fill-rule="evenodd" stroke="none"/>
    <path d="M274.9 194.75 L275.4 194.2 275.4 194.15 280.6 198.3 290.8 191.6 291.15 191.8 280.65 199.3 274.9 194.75" fill="#e9aa27" fill-rule="evenodd" stroke="none"/>
  </g>
</svg>
