<?xml version="1.0" encoding="UTF-8" standalone="no"?>
<svg xmlns:xlink="http://www.w3.org/1999/xlink" height="41.55px" width="77.15px" xmlns="http://www.w3.org/2000/svg">
  <g transform="matrix(1.0, 0.0, 0.0, 1.0, -236.4, -179.2)">
    <path d="M267.65 205.75 L267.65 205.8 267.65 205.85 267.65 205.9 267.45 205.9 267.4 205.8 267.4 205.75 267.55 205.7 267.65 205.75 M267.7 206.55 Q268.15 206.7 267.75 207.0 L267.6 207.0 Q267.4 206.7 267.7 206.55 M268.3 205.55 Q268.95 205.65 268.85 206.25 L268.6 206.5 Q268.15 206.65 268.0 206.25 267.8 205.7 268.3 205.55" fill="#ffffff" fill-rule="evenodd" stroke="none"/>
    <path d="M266.7 212.1 Q251.8 208.7 250.15 203.25 248.25 197.05 250.4 196.55 250.7 195.85 251.25 195.3 L259.25 189.3 263.7 193.0 Q266.25 195.1 271.65 193.85 L268.05 197.95 Q266.9 197.6 265.1 197.95 L266.0 199.0 266.1 199.1 266.35 199.65 266.35 199.8 266.2 200.4 265.45 201.2 Q263.75 202.25 262.0 202.6 L259.9 202.75 256.8 202.1 Q255.6 201.6 255.05 200.9 L255.0 200.8 254.7 200.15 254.7 200.0 254.65 199.4 254.8 199.1 255.05 198.85 Q254.25 198.75 253.45 199.6 252.8 200.85 254.65 202.25 L261.4 205.8 261.75 206.05 261.8 206.05 261.9 206.1 261.95 207.4 262.55 208.65 263.85 209.95 267.65 210.2 268.9 209.75 269.85 209.4 270.45 209.05 270.6 208.95 270.85 208.6 270.95 208.25 270.95 208.2 270.8 207.9 270.75 207.8 270.6 207.65 282.2 206.85 Q286.4 206.05 288.95 203.55 L289.35 201.75 289.65 200.55 289.65 200.3 289.15 199.25 286.35 195.95 Q291.7 199.65 292.6 199.8 293.45 199.95 292.25 202.55 291.0 205.1 282.4 208.9 L266.7 212.1" fill="#94854b" fill-rule="evenodd" stroke="none"/>
    <path d="M259.25 189.3 L251.25 195.3 Q250.7 195.85 250.4 196.55 248.25 197.05 250.15 203.25 251.8 208.7 266.7 212.1 L259.55 214.15 Q251.65 211.1 245.35 210.05 L244.5 208.8 243.55 207.05 Q240.65 200.65 245.35 194.3 250.2 195.75 259.0 189.1 L259.45 188.75 259.5 188.7 260.05 188.7 259.25 189.3" fill="#999346" fill-rule="evenodd" stroke="none"/>
    <path d="M266.7 212.1 L282.4 208.9 Q291.0 205.1 292.25 202.55 293.45 199.95 292.6 199.8 291.7 199.65 286.35 195.95 L279.3 187.95 Q278.8 187.3 278.05 187.3 277.3 187.3 276.8 187.95 L271.65 193.85 Q266.25 195.1 263.7 193.0 L259.25 189.3 260.05 188.7 259.5 188.7 271.75 181.4 273.2 179.2 276.05 181.7 288.6 189.05 304.8 193.95 304.7 193.8 305.25 194.0 311.25 195.45 305.4 198.5 303.0 199.7 291.9 196.9 300.6 203.7 300.55 203.75 300.0 204.3 298.45 205.9 298.3 206.0 295.3 208.1 289.9 211.75 Q283.6 216.05 277.6 220.6 L272.15 219.2 259.55 214.15 266.7 212.1" fill="#cdc16d" fill-rule="evenodd" stroke="none"/>
    <path d="M289.35 201.75 L288.95 203.55 Q286.4 206.05 282.2 206.85 L270.6 207.65 268.25 205.0 268.25 204.95 268.0 204.7 267.65 204.5 Q267.45 204.5 267.3 204.7 L264.5 207.9 264.4 208.05 264.45 208.4 264.45 208.45 264.6 208.85 264.65 208.9 Q264.95 209.3 265.6 209.55 L268.5 209.85 268.9 209.75 267.65 210.2 263.85 209.95 262.55 208.65 261.95 207.4 261.9 206.1 261.8 206.05 261.75 206.05 261.4 205.8 254.65 202.25 Q252.8 200.85 253.45 199.6 254.25 198.75 255.05 198.85 L254.8 199.1 254.65 199.4 254.7 200.0 254.7 200.15 255.0 200.8 255.05 200.9 Q255.6 201.6 256.8 202.1 L259.9 202.75 262.0 202.6 Q263.75 202.25 265.45 201.2 L266.2 200.4 266.35 199.8 266.35 199.65 266.1 199.1 266.0 199.0 265.1 197.95 Q266.9 197.6 268.05 197.95 L266.95 199.25 266.6 199.75 266.75 201.0 266.8 201.25 267.35 202.55 267.45 202.75 Q268.5 204.2 270.85 205.1 276.05 207.0 281.05 206.05 284.5 205.4 287.9 203.3 288.9 202.65 289.35 201.75" fill="#6a6035" fill-rule="evenodd" stroke="none"/>
    <path d="M280.15 188.9 L280.2 189.0 279.85 189.1 280.15 188.9" fill="#c2ebfa" fill-rule="evenodd" stroke="none"/>
    <path d="M245.35 194.3 Q240.65 200.65 243.55 207.05 L244.5 208.8 245.35 210.05 243.65 209.8 243.45 209.75 243.35 209.75 Q231.9 199.6 239.3 188.0 241.95 193.3 245.35 194.3" fill="#74683a" fill-rule="evenodd" stroke="none"/>
    <path d="M305.4 198.5 L309.2 199.8 300.65 204.05 298.45 205.9 300.0 204.3 300.55 203.75 300.6 203.7 Q301.25 201.6 303.0 199.7 L305.4 198.5" fill="#000000" fill-opacity="0.37254903" fill-rule="evenodd" stroke="none"/>
    <path d="M309.2 199.8 L313.55 201.3 290.0 211.8 295.3 208.1 298.3 206.0 298.45 205.9 300.65 204.05 309.2 199.8 M295.3 208.1 L298.1 206.3 298.45 205.9 298.1 206.3 295.3 208.1" fill="#cccccc" fill-rule="evenodd" stroke="none"/>
    <path d="M300.6 203.7 L291.9 196.9 303.0 199.7 Q301.25 201.6 300.6 203.7" fill="#ded7a0" fill-rule="evenodd" stroke="none"/>
    <path d="M245.35 210.05 Q251.65 211.1 259.55 214.15 L272.15 219.2 277.6 220.6 277.7 220.6 275.45 220.75 Q261.6 218.15 243.45 209.75 L243.65 209.8 245.35 210.05" fill="#293d3d" fill-rule="evenodd" stroke="none"/>
    <path d="M279.85 189.1 L280.1 188.85 280.15 188.9 279.85 189.1" fill="#121212" fill-rule="evenodd" stroke="none"/>
    <path d="M311.25 195.45 L305.4 198.5 303.0 199.7 Q301.25 201.6 300.6 203.7 L300.55 203.75 300.0 204.3 298.45 205.9 298.1 206.3 295.3 208.1 289.9 211.75 Q283.6 216.05 277.6 220.6" fill="none" stroke="#000000" stroke-linecap="round" stroke-linejoin="round" stroke-opacity="0.37254903" stroke-width="0.25"/>
    <path d="M288.9 198.95 L289.15 199.25 289.65 200.3 289.65 200.55 289.35 201.75 Q288.9 202.65 287.9 203.3 284.5 205.4 281.05 206.05 276.05 207.0 270.85 205.1 268.5 204.2 267.45 202.75 L267.35 202.55 266.8 201.25 266.75 201.0 266.6 199.75 266.95 199.25 276.8 187.95 Q277.3 187.3 278.05 187.3 278.8 187.3 279.3 187.95 L280.1 188.85 279.85 189.1 Q276.35 189.9 274.35 193.2 L274.25 193.35 273.95 193.75 273.1 194.8 Q271.35 196.75 270.9 199.25 273.25 205.0 280.05 204.1 284.7 203.45 288.3 200.3 L288.9 198.95" fill="#0d0d0d" fill-rule="evenodd" stroke="none"/>
    <path d="M279.85 189.1 L280.2 189.0 280.15 188.9 288.9 198.95 288.3 200.3 Q284.7 203.45 280.05 204.1 273.25 205.0 270.9 199.25 271.35 196.75 273.1 194.8 L273.95 193.75 274.25 193.35 274.35 193.2 Q276.35 189.9 279.85 189.1 M281.4 194.35 Q282.1 194.15 282.3 193.4 282.75 191.3 280.4 190.9 278.65 191.5 279.3 193.35 279.8 194.8 281.4 194.35 M277.9 196.05 Q278.05 196.35 278.35 196.15 279.85 195.1 278.2 194.45 277.15 195.0 277.9 196.05 M278.1 191.8 L278.05 191.6 278.0 191.6 277.65 191.4 Q277.35 191.45 277.2 191.7 L277.2 191.9 277.3 192.25 Q277.65 192.5 278.0 192.25 L278.05 192.1 278.1 192.0 278.1 191.8" fill="url(#gradient0)" fill-rule="evenodd" stroke="none"/>
    <path d="M278.1 191.8 L278.1 192.0 278.05 192.1 278.0 192.25 Q277.65 192.5 277.3 192.25 L277.2 191.9 277.2 191.7 Q277.35 191.45 277.65 191.4 L278.0 191.6 278.05 191.6 278.1 191.8 M277.9 196.05 Q277.15 195.0 278.2 194.45 279.85 195.1 278.35 196.15 278.05 196.35 277.9 196.05 M281.4 194.35 Q279.8 194.8 279.3 193.35 278.65 191.5 280.4 190.9 282.75 191.3 282.3 193.4 282.1 194.15 281.4 194.35" fill="#e3e3e3" fill-rule="evenodd" stroke="none"/>
    <path d="M270.95 207.8 L271.05 207.9 271.2 208.2 271.2 208.3 271.1 208.65 270.65 209.15 Q269.6 209.75 268.55 209.95 L265.4 209.7 Q264.7 209.4 264.4 208.95 L264.35 208.9 264.2 208.5 264.15 208.4 264.1 208.05 264.25 207.9 267.25 204.4 267.65 204.2 268.0 204.4 268.25 204.7 268.2 204.75 Q267.1 205.0 266.5 206.05 L266.45 206.05 266.4 206.2 266.1 206.5 Q265.6 207.1 265.45 207.9 266.15 209.65 268.25 209.4 269.7 209.2 270.8 208.2 L270.95 207.8" fill="#0d0d0d" fill-rule="evenodd" stroke="none"/>
    <path d="M268.2 204.75 L268.3 204.75 268.3 204.7 270.95 207.8 270.8 208.2 Q269.7 209.2 268.25 209.4 266.15 209.65 265.45 207.9 265.6 207.1 266.1 206.5 L266.4 206.2 266.45 206.05 266.5 206.05 Q267.1 205.0 268.2 204.75 M268.65 206.4 L268.95 206.1 Q269.1 205.45 268.35 205.3 267.8 205.5 268.0 206.05 268.15 206.5 268.65 206.4 M267.6 206.9 L267.75 206.95 Q268.2 206.6 267.7 206.4 267.35 206.6 267.6 206.9 M267.65 205.6 L267.65 205.55 267.6 205.55 267.5 205.5 267.35 205.55 267.35 205.65 267.4 205.75 267.6 205.75 267.65 205.7 267.65 205.65 267.65 205.6" fill="url(#gradient1)" fill-rule="evenodd" stroke="none"/>
    <path d="M267.65 205.6 L267.65 205.65 267.65 205.7 267.6 205.75 267.4 205.75 267.35 205.65 267.35 205.55 267.5 205.5 267.6 205.55 267.65 205.55 267.65 205.6 M267.6 206.9 Q267.35 206.6 267.7 206.4 268.2 206.6 267.75 206.95 L267.6 206.9 M268.65 206.4 Q268.15 206.5 268.0 206.05 267.8 205.5 268.35 205.3 269.1 205.45 268.95 206.1 L268.65 206.4" fill="#e3e3e3" fill-rule="evenodd" stroke="none"/>
    <path d="M266.0 198.9 L266.15 199.05 266.4 199.6 266.4 199.75 266.25 200.35 265.45 201.15 Q263.7 202.3 261.85 202.6 259.25 203.1 256.5 202.1 255.25 201.65 254.7 200.9 L254.65 200.8 254.35 200.1 254.35 199.95 254.25 199.3 254.45 199.05 259.65 193.1 Q259.9 192.75 260.3 192.75 260.7 192.75 260.95 193.1 L261.35 193.55 261.25 193.7 Q259.4 194.15 258.35 195.85 L258.3 195.95 258.15 196.15 257.7 196.7 Q256.75 197.75 256.55 199.05 257.75 202.05 261.35 201.6 263.8 201.25 265.7 199.6 L266.0 198.9" fill="#0d0d0d" fill-rule="evenodd" stroke="none"/>
    <path d="M261.25 193.7 L261.4 193.65 261.4 193.6 266.0 198.9 265.7 199.6 Q263.8 201.25 261.35 201.6 257.75 202.05 256.55 199.05 256.75 197.75 257.7 196.7 L258.15 196.15 258.3 195.95 258.35 195.85 Q259.4 194.15 261.25 193.7 M262.05 196.45 L262.5 195.95 Q262.75 194.85 261.5 194.65 260.6 194.95 260.95 195.95 261.2 196.7 262.05 196.45 M260.2 197.35 L260.45 197.4 Q261.25 196.85 260.35 196.5 259.8 196.8 260.2 197.35 M260.3 195.15 L260.3 195.0 260.25 195.0 260.1 194.9 259.85 195.05 259.85 195.2 259.9 195.35 260.25 195.35 260.3 195.3 260.3 195.25 260.3 195.15" fill="url(#gradient2)" fill-rule="evenodd" stroke="none"/>
    <path d="M260.3 195.15 L260.3 195.25 260.3 195.3 260.25 195.35 259.9 195.35 259.85 195.2 259.85 195.05 260.1 194.9 260.25 195.0 260.3 195.0 260.3 195.15 M260.2 197.35 Q259.8 196.8 260.35 196.5 261.25 196.85 260.45 197.4 L260.2 197.35 M262.05 196.45 Q261.2 196.7 260.95 195.95 260.6 194.95 261.5 194.65 262.75 194.85 262.5 195.95 L262.05 196.45" fill="#e3e3e3" fill-rule="evenodd" stroke="none"/>
  </g>
  <defs>
    <linearGradient gradientTransform="matrix(0.011, 0.0, 0.0, 0.0094, 279.9, 196.55)" gradientUnits="userSpaceOnUse" id="gradient0" spreadMethod="pad" x1="-819.2" x2="819.2">
      <stop offset="0.0" stop-color="#000000"/>
      <stop offset="1.0" stop-color="#ffffff"/>
    </linearGradient>
    <linearGradient gradientTransform="matrix(0.0034, 0.0, 0.0, 0.0029, 268.2, 207.05)" gradientUnits="userSpaceOnUse" id="gradient1" spreadMethod="pad" x1="-819.2" x2="819.2">
      <stop offset="0.0" stop-color="#000000"/>
      <stop offset="1.0" stop-color="#ffffff"/>
    </linearGradient>
    <linearGradient gradientTransform="matrix(0.0058, 0.0, 0.0, 0.0049, 261.25, 197.6)" gradientUnits="userSpaceOnUse" id="gradient2" spreadMethod="pad" x1="-819.2" x2="819.2">
      <stop offset="0.0" stop-color="#000000"/>
      <stop offset="1.0" stop-color="#ffffff"/>
    </linearGradient>
  </defs>
</svg>
