<?xml version="1.0" encoding="UTF-8" standalone="no"?>
<svg xmlns:xlink="http://www.w3.org/1999/xlink" height="175.45px" width="175.4px" xmlns="http://www.w3.org/2000/svg">
  <g transform="matrix(1.0, 0.0, 0.0, 1.0, -131.5, -137.65)">
    <path d="M235.75 175.85 L235.55 175.65 235.9 175.65 235.75 175.85" fill="#8f680e" fill-rule="evenodd" stroke="none"/>
    <path d="M230.9 174.15 L232.8 174.7 227.85 179.8 228.4 180.95 231.1 180.2 235.75 175.85 235.9 175.65 Q237.05 175.7 238.7 174.75 240.25 173.85 241.4 173.45 L232.6 181.85 232.55 181.85 226.55 181.6 225.9 179.3 230.9 174.15 M141.5 310.55 L141.45 310.55 141.5 310.55" fill="#553500" fill-rule="evenodd" stroke="none"/>
    <path d="M218.2 187.55 L218.25 187.55 218.3 187.6 218.2 187.55" fill="#424503" fill-rule="evenodd" stroke="none"/>
    <path d="M204.85 202.45 L204.85 202.4 205.05 202.2 205.2 202.0 205.1 202.1 205.05 202.2 204.85 202.45" fill="#3a3d05" fill-rule="evenodd" stroke="none"/>
    <path d="M248.3 159.85 L247.95 157.45 251.1 151.1 248.25 154.45 Q249.8 150.35 252.8 147.1 L257.35 143.65 257.7 143.85 259.55 143.65 260.95 145.55 260.1 145.3 Q258.8 145.15 257.8 146.55 249.35 154.3 248.45 159.8 L248.3 159.85" fill="#653f01" fill-rule="evenodd" stroke="none"/>
    <path d="M274.0 153.95 L273.9 154.05 274.0 153.95 273.9 154.1 273.9 154.05 273.7 153.7 274.0 153.95" fill="#9e7310" fill-rule="evenodd" stroke="none"/>
    <path d="M248.3 159.85 L248.45 159.8 248.55 160.35 248.3 159.85" fill="#4e2b01" fill-rule="evenodd" stroke="none"/>
    <path d="M189.9 227.85 L189.95 227.75 190.0 227.75 189.9 227.85" fill="#797e05" fill-rule="evenodd" stroke="none"/>
    <path d="M153.5 271.2 L153.6 271.0 153.7 271.05 153.5 271.2" fill="#5c6804" fill-rule="evenodd" stroke="none"/>
    <path d="M158.4 273.5 L158.35 273.5 158.4 273.45 158.4 273.5" fill="#495306" fill-rule="evenodd" stroke="none"/>
    <path d="M230.9 174.15 L240.15 164.9 Q242.2 161.8 242.35 158.05 243.8 152.35 248.9 147.75 251.7 144.8 255.75 139.05 255.7 138.6 255.95 138.25 260.35 136.75 265.1 139.05 270.8 141.8 272.5 147.35 L273.15 151.15 273.15 151.2 272.85 151.8 270.8 150.2 Q268.75 148.15 266.25 147.35 L264.15 146.9 263.6 147.1 263.9 149.3 263.85 150.1 Q263.4 153.3 261.5 155.85 259.6 158.3 257.25 160.3 L255.3 161.75 Q253.9 162.7 252.25 162.85 L251.35 163.05 251.0 163.0 Q249.0 162.85 247.75 161.5 242.4 166.35 236.4 173.5 L236.4 174.0 236.05 174.95 235.55 175.65 235.75 175.85 231.1 180.2 228.4 180.95 227.85 179.8 232.8 174.7 230.9 174.15 M145.45 283.5 L144.85 282.0 148.4 276.5 149.15 275.65 150.6 276.35 Q150.4 277.1 154.0 280.15 L154.3 280.35 155.2 283.0 152.65 287.95 150.85 288.05 148.95 286.65 145.5 283.5 145.5 283.4 145.45 283.5 M151.1 275.05 L153.5 271.2 153.7 271.05 171.7 244.2 173.9 240.95 175.25 239.15 176.8 237.05 177.55 236.05 181.0 231.6 184.85 226.55 185.7 229.2 189.25 227.4 189.95 227.75 189.9 227.85 181.05 238.6 168.2 256.65 158.4 273.5 158.4 273.45 158.35 273.5 156.2 278.15 152.9 277.25 151.1 275.05 M163.75 237.7 L153.3 229.85 157.95 225.85 173.6 235.25 163.75 237.7 M186.6 224.35 L187.05 223.8 190.6 225.55 187.05 226.25 186.6 224.35 M260.95 145.55 L259.55 143.65 257.7 143.85 257.35 143.65 252.8 147.1 Q249.8 150.35 248.25 154.45 L251.1 151.1 247.95 157.45 248.3 159.85 248.55 160.35 248.9 161.25 249.85 162.1 Q251.05 162.6 254.45 160.0 L259.25 156.2 Q263.0 152.75 263.45 149.3 L262.4 147.55 262.4 147.5 261.4 145.8 260.95 145.55" fill="#bf582d" fill-rule="evenodd" stroke="none"/>
    <path d="M191.25 228.3 L189.25 230.95 Q184.25 237.6 179.6 244.4 L178.6 245.85 Q169.45 259.45 160.75 275.45 L158.65 281.65 158.45 282.1 159.8 283.25 155.7 289.95 153.9 289.85 150.85 288.05 152.65 287.95 155.2 283.0 154.3 280.35 154.0 280.15 Q150.4 277.1 150.6 276.35 L150.6 275.85 151.1 275.05 152.9 277.25 156.2 278.15 158.35 273.5 158.4 273.5 168.2 256.65 181.05 238.6 189.9 227.85 191.25 228.3 M171.7 244.2 L163.75 237.7 173.6 235.25 176.8 237.05 175.25 239.15 173.9 240.95 171.7 244.2 M158.45 282.1 Q156.7 282.2 154.3 280.35 156.7 282.2 158.45 282.1" fill="#803c1e" fill-rule="evenodd" stroke="none"/>
    <path d="M218.3 187.55 L219.0 186.65 225.9 179.3 226.55 181.6 232.55 181.85 223.4 190.95 223.15 191.25 222.7 191.7 Q221.9 192.15 219.95 190.3 218.0 187.7 218.3 187.6 L218.3 187.55 M218.2 187.55 L218.3 187.6 Q218.0 187.7 219.95 190.3 221.9 192.15 222.7 191.7 L223.15 191.25 Q223.8 191.85 224.0 193.3 L221.0 196.5 218.7 196.65 218.25 196.5 214.65 200.4 214.35 200.7 207.6 208.3 Q196.1 222.05 193.0 226.05 L191.25 228.3 189.9 227.85 190.0 227.75 189.95 227.75 189.25 227.4 185.7 229.2 184.85 226.55 186.6 224.35 187.05 226.25 190.6 225.55 187.05 223.8 192.0 217.8 204.85 202.45 205.05 202.2 205.1 202.1 205.2 202.0 205.4 201.75 205.45 201.65 206.0 201.05 210.0 196.5 213.15 192.55 212.35 190.75 Q213.6 187.9 216.25 186.6 L217.1 186.9 218.2 187.55 M223.35 192.95 Q221.5 192.05 219.45 190.5 216.5 187.5 217.1 186.9 216.5 187.5 219.45 190.5 221.5 192.05 223.35 192.95 M218.25 196.5 Q215.25 194.95 213.15 192.55 215.25 194.95 218.25 196.5 M207.6 208.3 L204.65 204.5 207.6 208.3" fill="#562814" fill-rule="evenodd" stroke="none"/>
    <path d="M143.5 312.75 L141.1 312.9 141.4 311.0 141.45 310.55 141.5 310.55 144.6 302.55 143.5 312.75 M136.25 312.05 L131.5 309.45 Q139.45 293.55 145.5 283.5 L148.95 286.65 140.35 307.9 136.65 312.25 136.25 312.05" fill="#658b43" fill-rule="evenodd" stroke="none"/>
    <path d="M153.9 289.85 L144.1 312.75 143.5 312.75 144.6 302.55 141.5 310.55 141.45 310.55 141.7 309.0 138.2 313.1 137.05 312.45 136.65 312.25 140.35 307.9 148.95 286.65 150.85 288.05 153.9 289.85" fill="#4a6631" fill-rule="evenodd" stroke="none"/>
    <path d="M235.55 175.65 L236.05 174.95 236.4 174.0 236.4 173.5 Q242.4 166.35 247.75 161.5 249.0 162.85 251.0 163.0 L251.35 163.05 252.25 162.85 Q253.9 162.7 255.3 161.75 L257.25 160.3 Q259.6 158.3 261.5 155.85 263.4 153.3 263.85 150.1 L263.9 149.3 263.6 147.1 264.15 146.9 266.25 147.35 Q268.75 148.15 270.8 150.2 L272.85 151.8 273.1 154.8 273.15 154.95 274.05 164.3 Q272.7 167.45 270.65 169.6 L267.65 172.25 Q266.35 173.45 266.25 174.9 266.15 176.65 267.7 180.1 269.35 184.4 270.4 186.05 271.1 187.25 274.1 190.85 L279.6 199.2 283.85 206.7 284.7 208.65 273.4 198.7 268.4 187.7 261.55 186.5 258.4 183.2 258.8 177.5 252.85 178.0 Q246.3 172.6 242.25 173.25 L241.4 173.45 Q240.25 173.85 238.7 174.75 237.05 175.7 235.9 175.65 L235.55 175.65 M287.3 218.7 L288.6 225.95 286.4 224.65 287.3 218.7" fill="#70ae60" fill-rule="evenodd" stroke="none"/>
    <path d="M273.7 153.7 L273.9 154.05 273.9 154.1 275.6 157.75 Q278.4 164.1 281.3 169.25 L293.95 191.8 Q298.2 199.5 301.3 206.95 302.7 210.45 304.65 217.8 L306.1 224.3 Q307.65 232.0 306.2 235.05 304.1 239.75 300.1 245.9 L299.55 241.0 Q301.25 236.9 303.25 230.05 L301.05 232.8 301.25 229.75 300.9 226.0 304.85 220.85 300.6 223.65 300.4 222.4 Q300.15 221.95 300.05 221.25 L301.65 217.65 299.45 219.3 Q297.25 211.35 291.45 198.6 L284.7 184.45 274.05 164.3 273.15 154.95 273.1 154.8 272.85 151.8 273.7 153.7" fill="#ddedd8" fill-rule="evenodd" stroke="none"/>
    <path d="M274.05 164.3 L284.7 184.45 291.45 198.6 Q297.25 211.35 299.45 219.3 L301.65 217.65 300.05 221.25 Q300.15 221.95 300.4 222.4 L300.6 223.65 304.85 220.85 300.9 226.0 301.25 229.75 301.05 232.8 303.25 230.05 Q301.25 236.9 299.55 241.0 L298.5 231.55 288.6 225.95 287.3 218.7 288.4 211.9 284.7 208.65 283.85 206.7 279.6 199.2 274.1 190.85 Q271.1 187.25 270.4 186.05 269.35 184.4 267.7 180.1 266.15 176.65 266.25 174.9 266.35 173.45 267.65 172.25 L270.65 169.6 Q272.7 167.45 274.05 164.3" fill="#bedcb4" fill-rule="evenodd" stroke="none"/>
    <path d="M300.1 245.9 Q293.75 255.55 282.7 268.7 L280.25 271.55 279.35 272.65 280.8 267.95 Q281.95 263.5 283.1 257.1 L284.05 248.95 Q285.6 228.75 280.9 215.65 279.25 211.0 275.2 204.3 269.7 195.3 261.55 186.5 L268.4 187.7 273.4 198.7 284.7 208.65 288.4 211.9 287.3 218.7 286.4 224.65 288.6 225.95 298.5 231.55 299.55 241.0 300.1 245.9 M258.4 183.2 L257.5 182.25 252.85 178.0 258.8 177.5 258.4 183.2" fill="#cb2929" fill-rule="evenodd" stroke="none"/>
    <path d="M255.75 139.05 Q251.7 144.8 248.9 147.75 243.8 152.35 242.35 158.05 242.2 161.8 240.15 164.9 L230.9 174.15 225.9 179.3 219.0 186.65 218.3 187.55 218.25 187.55 218.3 187.6 218.3 187.55 M218.2 187.55 L218.25 187.55 M218.2 187.55 L217.1 186.9 Q216.5 187.5 219.45 190.5 221.5 192.05 223.35 192.95 M218.3 187.6 Q218.0 187.7 219.95 190.3 221.9 192.15 222.7 191.7 L223.15 191.25 223.4 190.95 232.55 181.85 232.6 181.85 241.4 173.45 M205.2 202.0 L205.4 201.75 205.45 201.65 206.0 201.05 210.0 196.5 213.15 192.55 212.35 190.75 Q213.6 187.9 216.25 186.6 L217.1 186.9 M223.15 191.25 Q223.8 191.85 224.0 193.3 L221.0 196.5 218.7 196.65 218.25 196.5 214.65 200.4 214.35 200.7 207.6 208.3 Q196.1 222.05 193.0 226.05 L191.25 228.3 189.25 230.95 Q184.25 237.6 179.6 244.4 L178.6 245.85 M160.75 275.45 L158.65 281.65 159.8 283.25 155.7 289.95 153.9 289.85 144.1 312.75 143.5 312.75 141.1 312.9 141.4 311.0 M141.45 310.55 L141.7 309.0 138.2 313.1 M131.5 309.45 Q139.45 293.55 145.5 283.5 L145.45 283.5 144.85 282.0 148.4 276.5 149.15 275.65 150.6 276.35 150.6 275.85 151.1 275.05 153.5 271.2 153.6 271.0 M176.8 237.05 L177.55 236.05 181.0 231.6 184.85 226.55 186.6 224.35 187.05 223.8 192.0 217.8 204.85 202.45 205.05 202.2 205.2 202.0 205.1 202.1 205.05 202.2 204.85 202.4 M213.15 192.55 Q215.25 194.95 218.25 196.5 M248.45 159.8 Q249.35 154.3 257.8 146.55 258.8 145.15 260.1 145.3 L260.95 145.55 261.4 145.8 262.4 147.5 M262.4 147.55 L263.45 149.3 Q263.0 152.75 259.25 156.2 L254.45 160.0 Q251.05 162.6 249.85 162.1 L248.9 161.25 M273.9 154.05 L274.0 153.95 M248.45 159.8 L248.55 160.35 M154.3 280.35 L154.0 280.15 Q150.4 277.1 150.6 276.35 M154.3 280.35 Q156.7 282.2 158.45 282.1 L158.65 281.65 M158.45 282.1 L159.8 283.25 M145.5 283.5 L145.5 283.4 145.45 283.5 M148.95 286.65 L150.85 288.05 153.9 289.85 M148.95 286.65 L145.5 283.5 M136.65 312.25 L136.25 312.05 M137.05 312.45 L136.65 312.25 M204.65 204.5 L207.6 208.3 M173.9 240.95 L175.25 239.15 176.8 237.05" fill="none" stroke="#000000" stroke-linecap="round" stroke-linejoin="round" stroke-opacity="0.37254903" stroke-width="0.05"/>
    <path d="M138.2 313.1 L137.05 312.45 136.25 312.05 131.5 309.45 M262.4 147.5 L262.4 147.55 M248.9 161.25 L248.55 160.35" fill="none" stroke="#322210" stroke-linecap="round" stroke-linejoin="round" stroke-width="0.05"/>
    <path d="M178.6 245.85 Q169.45 259.45 160.75 275.45 M153.7 271.05 L171.7 244.2 163.75 237.7 153.3 229.85 157.95 225.85 173.6 235.25 176.8 237.05 M171.7 244.2 L173.9 240.95" fill="none" stroke="#000000" stroke-linecap="round" stroke-linejoin="round" stroke-opacity="0.32156864" stroke-width="0.05"/>
    <path d="M241.4 173.45 Q240.25 173.85 238.7 174.75 237.05 175.7 235.9 175.65 L235.55 175.65 M252.85 178.0 Q246.3 172.6 242.25 173.25 L241.4 173.45 M273.7 153.7 L273.9 154.05 273.9 154.1 275.6 157.75 Q278.4 164.1 281.3 169.25 L293.95 191.8 Q298.2 199.5 301.3 206.95 302.7 210.45 304.65 217.8 L306.1 224.3 Q307.65 232.0 306.2 235.05 304.1 239.75 300.1 245.9 293.75 255.55 282.7 268.7 L280.25 271.55 279.35 272.65 280.8 267.95 Q281.95 263.5 283.1 257.1 L284.05 248.95 Q285.6 228.75 280.9 215.65 279.25 211.0 275.2 204.3 269.7 195.3 261.55 186.5 L258.4 183.2 257.5 182.25 252.85 178.0 M272.85 151.8 L273.7 153.7" fill="none" stroke="#000000" stroke-linecap="round" stroke-linejoin="round" stroke-opacity="0.5137255" stroke-width="0.05"/>
    <path d="M274.1 190.85 L279.6 199.2 283.85 206.7 284.7 208.65 M287.3 218.7 L288.6 225.95" fill="none" stroke="#e9f2f3" stroke-linecap="round" stroke-linejoin="round" stroke-width="0.05"/>
  </g>
</svg>
