<?xml version="1.0" encoding="UTF-8" standalone="no"?>
<svg xmlns:xlink="http://www.w3.org/1999/xlink" height="150.25px" width="94.15px" xmlns="http://www.w3.org/2000/svg">
  <g transform="matrix(1.0, 0.0, 0.0, 1.0, -179.9, -132.45)">
    <path d="M188.9 209.8 L189.5 212.55 189.75 214.55 189.8 215.25 189.85 215.8 190.0 217.95 Q190.25 221.95 190.1 225.75 L190.1 226.35 190.05 227.3 189.9 229.1 189.75 229.1 189.95 224.2 Q189.95 219.7 189.35 215.1 L185.45 209.2 Q185.35 210.55 184.65 212.3 L184.1 208.3 Q183.7 204.35 184.55 202.75 L186.4 204.85 187.5 206.1 Q188.3 207.4 188.9 209.8" fill="#332012" fill-rule="evenodd" stroke="none"/>
    <path d="M202.95 161.2 L203.35 160.8 203.5 160.55 204.0 160.15 203.2 158.55 203.05 157.95 202.95 157.65 Q205.45 151.65 208.85 147.1 213.55 142.15 216.0 138.8 218.15 134.75 215.45 134.2 212.6 134.35 208.6 136.65 204.7 138.5 200.8 143.35 L200.65 143.6 200.4 143.9 200.3 143.95 200.25 144.0 200.15 144.2 199.75 144.75 Q198.7 146.45 198.1 148.2 M200.8 165.0 L200.8 165.4 Q200.4 167.95 202.0 170.6 203.1 171.7 204.45 171.95 M199.75 144.75 Q198.9 145.75 197.15 148.85 192.35 160.3 195.0 168.75 L197.85 175.8 197.85 176.15 Q197.05 183.8 197.3 190.1 L197.2 190.2 Q195.25 191.7 193.5 193.6 190.9 196.4 189.05 199.55 190.6 197.0 192.6 194.7 L192.45 194.95 192.0 195.7 191.35 197.0 Q188.75 202.4 188.9 209.7 L188.9 209.8 M189.75 214.55 L189.75 214.7 189.8 215.25 189.85 215.8 M190.1 225.75 L190.1 226.35 190.05 227.3 M189.95 224.2 L189.85 226.2 189.75 227.05 189.45 229.55 188.85 233.05 187.9 233.9 187.7 234.0 187.7 234.25 M207.25 170.1 L208.6 168.45 Q211.15 164.85 212.6 160.0 213.7 151.7 204.95 159.35 L204.0 160.15 M218.0 199.5 Q218.15 196.15 219.2 192.4 219.9 187.35 222.65 183.1 L218.5 182.85 Q211.7 182.85 205.95 185.05 L205.65 186.2 204.7 190.35 M235.9 180.45 L236.15 179.35 233.2 178.95 232.4 178.85 Q227.15 178.4 224.85 180.15 223.65 181.55 222.65 183.1 M225.0 201.8 Q227.0 198.45 228.9 194.3 L229.3 193.85 Q231.6 192.15 234.0 191.85 L242.8 192.45 Q247.4 192.6 250.85 192.4 L251.8 192.35 252.4 192.3 252.65 192.15 Q254.4 191.6 256.85 189.85 262.9 186.35 267.3 180.15 271.1 175.05 272.15 169.0 272.7 163.8 271.2 162.95 269.85 162.95 268.65 164.05 264.75 167.95 260.85 173.3 257.5 177.9 251.95 182.0 L244.6 181.5 Q245.95 178.7 246.5 175.75 248.8 166.05 239.8 174.25 236.8 176.7 236.15 179.35 M233.2 178.95 L232.5 178.85 232.4 178.85 M236.15 183.25 Q238.3 186.75 241.95 185.55 M205.95 185.05 Q209.0 173.75 208.6 168.45 M242.8 192.45 L243.8 193.45 244.7 194.4 244.9 194.6 Q248.0 197.95 252.4 199.65 255.2 199.65 261.1 198.5 L261.55 198.85 261.9 199.1 262.35 199.75 263.15 202.1 263.3 202.9 Q263.9 208.6 260.75 215.4 258.35 219.7 255.95 222.4 257.5 221.7 258.8 221.3 259.8 228.05 250.95 234.55 L248.55 236.15 246.25 238.55 242.7 242.85 Q247.95 242.1 251.2 242.75 246.1 249.7 232.0 253.1 L231.05 253.2 Q231.65 254.8 231.85 256.7 L232.1 257.0 232.9 258.05 Q235.15 258.6 236.75 259.8 L238.85 261.6 239.75 260.55 Q240.9 257.35 242.25 256.4 242.95 256.45 243.55 257.7 244.15 258.95 244.1 260.5 244.0 262.1 242.3 262.85 L239.9 263.65 Q240.05 265.45 239.45 267.4 238.95 269.65 237.55 271.1 M248.55 236.15 L249.35 235.1 M246.25 238.55 Q249.35 233.75 248.6 229.35 245.55 229.15 241.5 230.55 239.8 230.8 238.25 231.3 235.75 232.0 233.5 233.15 M253.55 224.65 L255.95 222.4 M243.25 219.7 L236.5 219.9 235.3 220.2 Q233.2 221.45 232.3 223.25 L232.3 223.3 232.6 223.7 Q233.75 225.2 236.3 226.55 L238.5 227.05 Q244.45 227.95 244.2 223.45 244.1 221.9 243.25 219.7 L242.6 218.0 Q240.65 214.85 238.45 209.45 M229.85 211.15 L229.9 214.25 Q230.15 219.55 232.3 223.25 M206.45 208.55 Q202.65 207.7 200.0 206.1 198.1 204.35 197.7 202.1 L197.95 197.9 Q195.6 199.95 194.4 202.15 191.7 207.0 194.75 212.55 L197.55 214.0 Q202.0 215.5 208.45 213.5 212.75 209.6 212.2 206.8 L206.45 208.55 M221.05 232.8 Q221.65 231.05 221.75 228.95 L221.75 228.5 221.55 226.2 219.7 225.5 Q214.9 224.0 210.5 225.4 208.7 226.25 207.3 227.4 206.35 228.1 205.6 228.9 L205.6 228.95 205.65 230.3 Q205.8 232.6 206.8 234.45 L207.75 235.95 Q210.05 238.9 213.4 238.9 216.65 238.9 219.2 235.95 L219.85 235.1 M221.55 226.2 Q224.45 227.35 227.5 229.6 227.55 232.35 226.95 234.75 L226.6 235.95 226.1 237.25 Q228.95 233.3 229.0 229.9 230.8 228.65 230.95 227.55 229.25 226.65 227.85 226.55 219.2 220.75 210.95 222.65 202.55 227.35 201.5 236.8 201.75 235.6 202.15 234.5 202.8 232.7 203.8 231.15 204.55 229.95 205.6 228.9 M204.05 242.1 Q205.75 243.45 208.0 244.45 212.7 246.0 217.4 244.95 L220.35 243.65 M242.1 243.4 L242.7 242.85 M229.5 242.0 Q233.85 239.6 236.95 240.1 236.6 242.65 235.55 244.65 234.5 246.6 232.75 248.0 L232.3 248.25 M184.1 208.3 Q183.7 204.35 184.55 202.75 L186.4 204.85 189.05 199.55 M184.1 208.3 Q181.1 218.15 181.75 224.65 182.4 230.8 185.2 235.8 L186.1 235.9 Q186.65 236.05 187.35 236.6 L187.75 236.95 Q189.15 238.85 189.25 240.3 L189.25 240.45 186.9 240.4 185.6 241.2 Q184.85 241.7 184.2 241.45 184.75 243.5 186.55 245.7 190.55 251.95 199.9 253.0 203.3 253.35 207.45 253.05 M187.7 234.0 Q186.85 234.2 185.95 233.3 M185.2 235.8 Q184.85 235.85 184.55 236.05 182.65 237.65 183.9 241.25 L184.2 241.45 M189.55 245.35 L190.2 246.85 191.75 248.4 Q192.15 248.85 195.0 248.45 M201.5 236.8 L201.45 236.9 Q201.35 237.45 201.4 238.05 L201.45 237.95 Q201.65 236.15 202.15 234.5 M201.4 238.05 L201.4 238.15 201.4 238.65 M199.9 253.0 L200.1 253.85 Q200.85 256.2 202.9 258.6 204.65 260.65 207.35 262.75 M233.4 258.6 L232.9 258.05 M219.7 257.9 L222.95 255.7 Q225.65 254.2 228.85 253.55 L229.0 253.5 231.05 253.2 M228.85 253.55 L228.95 253.75 229.0 253.5 M225.75 267.15 L228.25 266.85 228.9 266.45 Q230.7 264.2 230.7 262.35 229.7 262.65 228.8 263.2 228.15 263.5 227.55 263.9 227.25 264.05 226.9 264.25 M226.8 269.0 L224.45 268.7 223.85 268.85 221.0 269.4 222.0 271.95 222.5 272.3 223.75 272.65 Q224.7 272.4 225.5 271.85 L225.95 271.55 Q226.7 270.4 227.25 268.8 L226.8 269.0 M232.0 265.05 L230.0 266.7 229.55 267.55 229.45 267.8 Q228.5 270.1 229.1 273.5 229.0 273.95 229.15 274.4 L229.85 275.65 Q231.9 276.05 234.0 275.6 L236.2 274.85 M228.25 266.85 L228.65 266.95 228.35 267.8 229.1 267.65 229.55 267.55 M229.1 267.65 L229.45 267.8 M228.35 267.8 L227.25 268.8 M239.9 263.65 L239.9 263.6 Q239.85 262.75 238.85 261.6 M237.0 272.6 L237.05 272.15 237.05 271.7 M237.05 272.15 Q239.1 269.85 239.9 269.7 241.2 270.2 238.55 275.1 238.15 276.6 237.55 277.45 L236.35 278.7 Q233.8 281.15 231.15 280.95 230.55 281.0 231.2 279.25 231.6 278.15 232.7 276.9 L232.8 276.8 234.0 275.6 M228.8 263.2 Q230.4 257.9 228.95 253.75 M202.9 258.6 L202.95 259.35 Q202.55 261.25 202.8 263.4 203.55 265.2 205.45 267.3 L205.45 266.5 M205.45 267.3 L205.55 268.7 205.8 267.65 206.0 267.15 207.9 264.65 Q208.45 264.2 209.0 264.0 M207.25 262.3 L208.8 263.2 210.15 264.25 210.65 265.05 212.65 266.3 213.05 266.35 213.1 266.3 Q213.9 265.45 214.9 265.2 L216.35 263.95 Q218.45 262.2 219.85 261.75 220.25 259.8 221.05 257.95 M210.65 265.05 L211.1 266.7 211.05 267.1 Q210.45 270.7 208.05 273.1 206.65 272.05 205.6 268.9 L205.55 268.7 M213.05 266.35 L213.0 266.4 Q210.7 270.0 211.25 274.35 214.05 274.45 215.55 272.4 L215.6 272.25 215.65 272.2 217.3 270.85 218.65 269.55 218.05 269.5 M213.1 266.3 L213.75 266.35 Q213.65 266.2 214.9 265.2 M218.65 269.55 L221.0 269.4 M222.5 272.3 L222.5 272.75 222.45 273.25 222.35 274.8 222.4 274.95 Q222.4 276.3 222.8 277.25 223.35 278.7 223.7 278.3 225.4 276.95 225.65 274.0 L225.65 272.55 225.5 271.85 M190.2 246.85 L189.8 247.7" fill="none" stroke="#260900" stroke-linecap="round" stroke-linejoin="round" stroke-width="3.5"/>
  </g>
</svg>
