<?xml version="1.0" encoding="UTF-8" standalone="no"?>
<svg xmlns:xlink="http://www.w3.org/1999/xlink" height="10.8px" width="17.95px" xmlns="http://www.w3.org/2000/svg">
  <g transform="matrix(1.0, 0.0, 0.0, 1.0, 0.0, 0.0)">
    <path d="M16.6 4.55 Q17.05 3.4 16.95 2.05 L17.85 2.1 17.9 5.05 16.95 8.2 17.45 10.8 16.4 10.75 Q11.4 10.4 6.8 7.0 L7.3 5.25 7.3 5.2 6.25 4.05 6.2 4.65 3.95 5.9 3.85 5.9 4.5 3.3 5.75 3.1 5.75 2.25 3.1 2.25 0.6 0.35 0.0 0.0 5.6 0.15 7.1 2.25 9.8 3.5 Q12.8 4.55 15.55 4.6 L16.6 4.55" fill="#7b0100" fill-rule="evenodd" stroke="none"/>
  </g>
</svg>
