<?xml version="1.0" encoding="UTF-8" standalone="no"?>
<svg xmlns:xlink="http://www.w3.org/1999/xlink" height="38.5px" width="35.05px" xmlns="http://www.w3.org/2000/svg">
  <g transform="matrix(1.0, 0.0, 0.0, 1.0, -9.35, -7.2)">
    <path d="M43.65 36.7 L43.9 37.5 43.2 38.15 41.65 39.45 35.05 39.85 31.5 36.9 31.6 36.9 31.5 36.9 31.1 36.9 29.35 36.85 29.55 37.05 30.85 38.4 31.45 39.05 32.25 42.8 28.65 45.2 23.5 45.2 20.1 42.8 20.1 39.55 20.15 39.45 19.45 39.8 19.65 40.3 15.9 41.4 13.35 40.75 13.0 40.65 11.6 40.25 11.95 39.5 9.85 38.0 9.85 34.55 9.9 34.45 10.3 33.7 11.0 32.7 11.05 32.65 12.85 31.0 14.05 30.25 16.75 30.4 Q16.3 29.05 16.7 28.25 L17.65 24.35 19.05 22.8 19.45 22.45 20.35 21.65 18.25 20.2 15.35 18.0 13.75 16.5 13.15 15.95 Q11.65 14.3 12.05 13.65 12.5 12.85 14.35 13.65 15.65 14.15 17.2 15.35 L18.55 16.4 Q20.95 18.35 21.7 19.85 L21.9 20.2 22.1 19.95 25.1 18.9 26.8 17.35 27.8 16.65 27.6 16.35 Q26.75 15.15 26.25 13.75 L25.8 11.95 25.7 11.25 Q25.65 9.25 27.2 8.3 29.0 7.2 30.75 8.05 32.0 8.55 32.8 9.9 L33.45 11.15 Q34.15 13.0 33.75 14.6 34.7 14.75 34.9 15.6 35.25 16.65 34.45 17.35 36.05 18.55 36.85 19.95 L37.4 19.75 37.75 19.75 38.2 19.85 38.65 20.25 Q38.95 20.7 38.85 21.25 L38.75 21.55 Q38.55 22.25 37.95 22.75 L38.25 23.1 38.55 23.65 Q39.6 25.35 39.25 27.3 L38.85 28.5 38.45 30.25 39.8 30.3 40.95 31.5 43.0 33.7 43.65 36.7" fill="#290c03" fill-rule="evenodd" stroke="none"/>
    <path d="M43.65 36.7 L43.0 33.7 40.95 31.5 39.8 30.3 38.45 30.25 38.85 28.5 39.25 27.3 Q39.6 25.35 38.55 23.65 L38.25 23.1 37.95 22.75 Q38.55 22.25 38.75 21.55 L38.85 21.25 Q38.95 20.7 38.65 20.25 L38.2 19.85 37.75 19.75 37.4 19.75 36.85 19.95 Q36.05 18.55 34.45 17.35 35.25 16.65 34.9 15.6 34.7 14.75 33.75 14.6 34.15 13.0 33.45 11.15 L32.8 9.9 Q32.0 8.55 30.75 8.05 29.0 7.2 27.2 8.3 25.65 9.25 25.7 11.25 L25.8 11.95 26.25 13.75 Q26.75 15.15 27.6 16.35 L27.8 16.65 26.8 17.35 25.1 18.9 22.1 19.95 21.9 20.2 21.7 19.85 Q20.95 18.35 18.55 16.4 L17.2 15.35 Q15.65 14.15 14.35 13.65 12.5 12.85 12.05 13.65 11.65 14.3 13.15 15.95 L13.75 16.5 15.35 18.0 18.25 20.2 20.35 21.65 19.45 22.45 19.05 22.8 17.65 24.35 16.7 28.25 Q16.3 29.05 16.75 30.4 L14.05 30.25 12.85 31.0 11.05 32.65 11.0 32.7 10.3 33.7 9.9 34.45 9.85 34.55 9.85 38.0 11.95 39.5 11.6 40.25 13.0 40.65 13.35 40.75 15.9 41.4 19.65 40.3 19.45 39.8 20.15 39.45 20.1 39.55 20.1 42.8 23.5 45.2 28.65 45.2 32.25 42.8 31.45 39.05 30.85 38.4 29.55 37.05 29.35 36.85 31.1 36.9 31.5 36.9 31.6 36.9 31.5 36.9 35.05 39.85 41.65 39.45 43.2 38.15 43.9 37.5 43.65 36.7 M19.05 22.8 L19.3 22.55 19.45 22.45 M31.1 36.9 L31.5 36.9" fill="none" stroke="#260900" stroke-linecap="round" stroke-linejoin="round" stroke-width="1.0"/>
  </g>
</svg>
