<?xml version="1.0" encoding="UTF-8" standalone="no"?>
<svg xmlns:xlink="http://www.w3.org/1999/xlink" height="21.1px" width="17.55px" xmlns="http://www.w3.org/2000/svg">
  <g transform="matrix(1.0, 0.0, 0.0, 1.0, 6.0, 10.55)">
    <path d="M-5.0 -4.05 L-5.4 -3.45 -5.25 -3.75 -5.1 -3.95 -5.0 -4.05 -4.9 -4.1 -4.5 -4.5 -4.35 -4.6 -4.35 -4.65 -4.3 -4.85 Q-4.2 -6.0 -2.5 -6.85 -0.7 -7.75 1.9 -7.75 L4.3 -7.5 4.3 -8.85 6.85 -10.15 7.05 -9.65 7.6 -8.6 8.55 -9.3 8.8 -8.7 9.55 -7.45 10.6 -8.0 11.15 -5.75 10.2 -5.8 9.95 -6.5 9.55 -6.35 9.25 -3.45 8.7 -2.8 8.1 -3.05 8.1 -2.6 8.0 -2.4 7.5 -1.7 7.5 -0.05 7.6 0.2 7.7 0.85 7.75 1.15 8.25 1.55 Q8.8 2.05 8.8 2.75 L8.7 3.15 8.65 3.4 8.25 4.0 7.5 4.5 7.5 5.2 7.05 5.55 Q6.7 5.6 6.4 4.6 L5.2 5.55 4.85 5.75 4.7 6.15 4.65 6.3 4.65 6.4 Q4.5 7.85 3.55 9.0 L2.85 9.05 2.65 9.25 1.7 8.65 1.7 8.55 0.85 9.9 Q-0.15 11.0 -0.5 7.35 L-0.55 7.6 -0.65 7.85 -1.05 8.45 -1.8 8.95 -1.8 9.7 Q-2.05 10.05 -2.25 10.05 -2.6 10.15 -2.9 9.7 L-2.9 8.9 -3.55 8.45 -3.95 7.85 -4.05 7.6 -4.05 7.2 Q-4.05 6.5 -3.55 5.95 L-2.9 5.55 -2.9 3.75 -3.15 2.0 -4.9 1.2 -4.7 -0.55 -4.85 -0.7 Q-5.45 -1.35 -5.55 -2.25 L-5.55 -2.5 -5.55 -2.95 -5.5 -3.4 -5.5 -3.2 -5.55 -2.5 M-4.35 -4.6 L-4.35 -4.5 -4.3 -4.85 M-1.8 8.95 L-2.25 9.0 -2.3 9.0 -2.9 8.9" fill="none" stroke="#260900" stroke-linecap="round" stroke-linejoin="round" stroke-width="0.8500000000000001"/>
  </g>
</svg>
