<?xml version="1.0" encoding="UTF-8" standalone="no"?>
<svg xmlns:xlink="http://www.w3.org/1999/xlink" height="223.55px" width="145.0px" xmlns="http://www.w3.org/2000/svg">
  <g transform="matrix(1.0, 0.0, 0.0, 1.0, 72.5, 111.75)">
    <path d="M45.95 80.25 Q28.4 100.4 1.55 103.9 -25.3 107.45 -44.6 83.75 -63.9 60.05 -63.9 20.2 -63.9 -12.85 -51.6 -43.2 -49.1 -14.95 -24.6 -46.75 2.05 -81.3 -15.5 -89.65 -9.05 -92.5 -2.0 -92.9 24.2 -94.3 43.85 -57.0 63.45 -19.65 63.45 20.2 63.45 60.05 45.95 80.25" fill="url(#gradient0)" fill-rule="evenodd" stroke="none"/>
    <path d="M45.95 80.25 Q63.45 60.05 63.45 20.2 63.45 -19.65 43.85 -57.0 24.2 -94.3 -2.0 -92.9 -9.05 -92.5 -15.5 -89.65 2.05 -81.3 -24.6 -46.75 -49.1 -14.95 -51.6 -43.2 -63.9 -12.85 -63.9 20.2 -63.9 60.05 -44.6 83.75 -25.3 107.45 1.55 103.9 28.4 100.4 45.95 80.25 M51.85 83.7 Q32.15 106.35 2.0 110.3 -28.15 114.25 -49.8 87.65 -71.5 61.05 -71.5 16.3 -71.5 -28.45 -51.45 -68.75 -31.45 -109.1 -2.0 -110.7 27.45 -112.3 49.5 -70.35 71.5 -28.45 71.5 16.3 71.5 61.05 51.85 83.7" fill="url(#gradient1)" fill-rule="evenodd" stroke="none"/>
    <path d="M51.85 83.7 Q32.15 106.35 2.0 110.3 -28.15 114.25 -49.8 87.65 -71.5 61.05 -71.5 16.3 -71.5 -28.45 -51.45 -68.75 -31.45 -109.1 -2.0 -110.7 27.45 -112.3 49.5 -70.35 71.5 -28.45 71.5 16.3 71.5 61.05 51.85 83.7" fill="none" stroke="#ffffff" stroke-linecap="round" stroke-linejoin="round" stroke-opacity="0.4" stroke-width="2.0"/>
    <path d="M45.95 80.25 Q28.4 100.4 1.55 103.9 -25.3 107.45 -44.6 83.75 -63.9 60.05 -63.9 20.2 -63.9 -12.85 -51.6 -43.2 -49.1 -14.95 -24.6 -46.75 2.05 -81.3 -15.5 -89.65 -9.05 -92.5 -2.0 -92.9 24.2 -94.3 43.85 -57.0 63.45 -19.65 63.45 20.2 63.45 60.05 45.95 80.25 Z" fill="none" stroke="#ffffff" stroke-linecap="round" stroke-linejoin="round" stroke-opacity="0.4" stroke-width="2.0"/>
  </g>
  <defs>
    <linearGradient gradientTransform="matrix(0.0506, 0.0559, -0.0741, 0.067, 25.25, 39.1)" gradientUnits="userSpaceOnUse" id="gradient0" spreadMethod="pad" x1="-819.2" x2="819.2">
      <stop offset="0.0" stop-color="#000000"/>
      <stop offset="1.0" stop-color="#2a7a5d"/>
    </linearGradient>
    <linearGradient gradientTransform="matrix(-0.0318, -0.1184, 0.0881, -0.0236, -4.65, -2.65)" gradientUnits="userSpaceOnUse" id="gradient1" spreadMethod="pad" x1="-819.2" x2="819.2">
      <stop offset="0.0" stop-color="#47ad9e"/>
      <stop offset="1.0" stop-color="#ffffff"/>
    </linearGradient>
  </defs>
</svg>
