<?xml version="1.0" encoding="UTF-8" standalone="no"?>
<svg xmlns:xlink="http://www.w3.org/1999/xlink" height="23.2px" width="19.55px" xmlns="http://www.w3.org/2000/svg">
  <g transform="matrix(1.0, 0.0, 0.0, 1.0, 9.8, 11.6)">
    <path d="M0.9 -11.1 L1.85 -9.5 4.65 -8.85 4.8 -8.85 4.85 -8.8 Q6.25 -6.85 6.35 -4.75 L6.35 -4.2 6.35 -4.15 Q7.65 -3.85 8.75 -3.15 L8.75 -3.1 Q9.65 -0.25 8.95 3.35 L8.6 4.25 8.2 5.35 7.05 7.2 6.75 7.2 Q6.35 8.15 5.4 8.7 L5.1 8.8 5.4 9.4 4.9 9.2 4.65 8.9 4.6 9.65 Q4.3 9.45 4.15 8.85 L4.15 8.8 4.15 8.7 4.05 8.5 4.2 8.35 4.2 8.25 4.25 8.25 4.3 8.15 4.45 7.85 4.4 7.85 4.3 7.6 3.3 8.25 2.35 8.1 2.2 8.05 2.05 8.15 3.15 8.75 3.35 8.85 4.0 9.95 3.5 9.75 3.25 9.45 3.2 10.2 Q2.9 10.0 2.75 9.45 L2.2 9.65 1.95 9.65 2.05 9.8 1.75 10.6 1.6 9.95 1.5 9.85 1.45 10.25 0.65 10.6 1.0 10.1 1.0 9.65 1.0 9.55 0.25 9.2 0.5 9.7 0.55 9.9 0.55 9.95 0.55 10.05 0.25 10.4 0.0 10.3 -0.3 11.1 -0.45 10.45 -0.55 10.35 -0.6 10.75 -1.4 11.1 -1.05 10.6 -1.05 10.15 -1.05 10.05 -0.9 9.65 -0.8 9.65 -0.6 9.5 -0.55 9.5 -0.8 9.2 -1.15 9.0 -1.2 8.8 -1.25 8.6 -2.0 7.8 -2.15 6.7 Q-2.15 6.0 -2.6 6.2 -3.05 6.4 -2.7 7.3 L-3.25 6.65 -3.25 6.2 -3.6 5.5 -2.85 5.6 -2.55 5.45 -2.05 5.5 Q-2.75 4.65 -2.85 3.7 L-2.8 3.6 -2.1 2.65 -3.05 0.2 -3.15 0.1 Q-5.3 -0.9 -5.65 -2.3 -5.75 -2.75 -6.05 -2.8 -8.25 -2.65 -8.95 -4.05 L-9.3 -5.25 -9.25 -6.15 -9.2 -6.7 -9.2 -6.75 -7.3 -5.4 -5.7 -5.9 -5.7 -5.95 Q-3.1 -6.65 -0.8 -5.5 L0.7 -6.1 1.0 -6.0 Q1.2 -6.6 1.7 -7.05 L1.8 -7.2 0.15 -8.5 0.1 -8.6 0.0 -8.7 0.0 -8.75 0.1 -9.3 0.35 -10.0 0.9 -11.1 M0.75 5.8 L0.8 5.75 0.45 5.65 0.4 5.85 0.25 5.95 Q-0.5 6.2 -1.4 5.95 L-1.5 6.25 -1.45 6.45 -1.3 7.1 -1.2 7.25 -0.7 6.8 -0.55 7.55 Q-0.25 7.3 0.2 7.25 L0.7 6.25 0.75 5.8 M4.75 7.2 Q5.0 7.0 5.35 7.4 L5.3 7.5 6.6 7.2 4.9 7.05 4.75 7.2 M1.05 8.9 L0.7 8.95 0.3 9.1 1.05 8.9" fill="#280a02" fill-rule="evenodd" stroke="none"/>
    <path d="M0.9 -11.1 L0.35 -10.0 0.1 -9.3 0.0 -8.75 0.0 -8.7 0.1 -8.6 0.15 -8.5 1.8 -7.2 1.7 -7.05 Q1.2 -6.6 1.0 -6.0 L0.7 -6.1 -0.8 -5.5 Q-3.1 -6.65 -5.7 -5.95 L-5.7 -5.9 -7.3 -5.4 -9.2 -6.75 -9.2 -6.7 -9.25 -6.15 -9.3 -5.25 -8.95 -4.05 Q-8.25 -2.65 -6.05 -2.8 -5.75 -2.75 -5.65 -2.3 -5.3 -0.9 -3.15 0.1 L-3.05 0.2 -2.1 2.65 -2.8 3.6 -2.85 3.7 Q-2.75 4.65 -2.05 5.5 L-2.55 5.45 -2.85 5.6 -3.6 5.5 -3.25 6.2 -3.25 6.65 -2.7 7.3 Q-3.05 6.4 -2.6 6.2 -2.15 6.0 -2.15 6.7 L-2.0 7.8 -1.25 8.6 -1.2 8.8 -1.15 9.0 -0.8 9.2 -0.55 9.5 -0.6 9.5 -0.8 9.65 -0.9 9.65 -1.05 10.05 -1.05 10.15 -1.05 10.6 -1.4 11.1 -0.6 10.75 -0.55 10.35 -0.45 10.45 -0.3 11.1 0.0 10.3 0.25 10.4 0.55 10.05 0.55 9.95 0.55 9.9 0.5 9.7 0.25 9.2 1.0 9.55 1.0 9.65 1.0 10.1 0.65 10.6 1.45 10.25 1.5 9.85 1.6 9.95 1.75 10.6 2.05 9.8 1.95 9.65 2.2 9.65 2.75 9.45 Q2.9 10.0 3.2 10.2 L3.25 9.45 3.5 9.75 4.0 9.95 3.35 8.85 3.15 8.75 2.05 8.15 2.2 8.05 2.35 8.1 3.3 8.25 4.3 7.6 4.4 7.85 4.45 7.85 4.3 8.15 4.25 8.25 4.2 8.25 4.2 8.35 4.05 8.5 4.15 8.7 4.15 8.8 4.15 8.85 Q4.3 9.45 4.6 9.65 L4.65 8.9 4.9 9.2 5.4 9.4 5.1 8.8 5.4 8.7 Q6.35 8.15 6.75 7.2 L7.05 7.2 8.2 5.35 8.6 4.25 8.95 3.35 Q9.65 -0.25 8.75 -3.1 L8.75 -3.15 Q7.65 -3.85 6.35 -4.15 L6.35 -4.2 6.35 -4.75 Q6.25 -6.85 4.85 -8.8 L4.8 -8.85 4.65 -8.85 1.85 -9.5 0.9 -11.1 M0.75 5.8 L0.8 5.75 0.45 5.65 0.4 5.85 0.25 5.95 Q-0.5 6.2 -1.4 5.95 L-1.5 6.25 -1.45 6.45 -1.3 7.1 -1.2 7.25 -0.7 6.8 -0.55 7.55 Q-0.25 7.3 0.2 7.25 L0.7 6.25 0.75 5.8 M4.75 7.2 Q5.0 7.0 5.35 7.4 L5.3 7.5 6.6 7.2 4.9 7.05 4.75 7.2 Z" fill="none" stroke="#280a02" stroke-linecap="round" stroke-linejoin="round" stroke-width="1.0"/>
  </g>
</svg>
