<?xml version="1.0" encoding="UTF-8" standalone="no"?>
<svg xmlns:xlink="http://www.w3.org/1999/xlink" height="436.9px" width="124.15px" xmlns="http://www.w3.org/2000/svg">
  <g transform="matrix(1.0, 0.0, 0.0, 1.0, -178.9, -48.1)">
    <path d="M289.65 154.65 L289.7 154.7 289.65 154.7 289.65 154.65" fill="#ffffff" fill-rule="evenodd" stroke="none"/>
    <path d="M281.25 209.3 Q284.4 212.75 285.15 212.2 L285.05 213.7 281.25 209.3 M272.0 222.4 L271.95 222.15 271.95 222.5 271.9 222.15 271.95 222.15 272.8 222.5 272.8 222.55 272.85 222.5 273.0 222.55 272.8 222.55 272.0 222.4" fill="#cccccc" fill-rule="evenodd" stroke="none"/>
    <path d="M283.85 236.15 L283.9 236.2 283.85 236.25 283.85 236.2 283.85 236.15 M283.9 236.2 L283.85 236.2 283.9 236.2 M272.0 222.4 L271.95 222.5 271.95 222.15 272.0 222.4" fill="#666666" fill-rule="evenodd" stroke="none"/>
    <path d="M273.4 65.0 L277.2 78.0 Q253.05 79.8 228.85 93.6 L208.15 100.3 197.9 103.6 206.7 99.15 273.4 65.0 M278.65 124.85 L275.6 135.25 231.55 96.0 Q252.1 113.4 278.65 124.85 M266.9 192.85 L281.25 209.3 285.05 213.7 280.8 211.0 Q235.6 182.15 209.9 177.35 L208.55 166.4 Q239.3 185.9 266.9 192.85 M208.15 100.3 L206.7 99.15 208.15 100.3 M202.9 73.3 Q201.05 75.2 198.4 75.2 195.75 75.2 193.85 73.3 192.0 71.45 192.0 68.8 192.0 67.35 192.55 66.1 195.7 75.45 202.8 73.0 L202.9 73.3 M242.0 244.6 L256.7 244.6 Q261.9 254.05 244.7 256.0 L252.25 256.0 Q260.7 263.05 256.15 268.75 250.85 261.4 244.05 261.4 236.55 261.4 231.4 271.95 228.9 260.15 237.15 256.0 L244.7 256.0 237.15 256.0 Q231.25 254.55 229.6 244.6 L240.0 244.6 241.05 244.6 242.0 244.6 M230.95 273.05 L230.95 272.95 231.25 272.25 230.95 273.05 M228.0 289.6 Q227.95 276.8 242.4 268.0 233.95 277.65 244.8 288.8 231.7 281.4 228.0 289.6 M228.6 436.55 Q234.0 442.15 250.5 443.0 228.95 454.15 234.05 464.75 222.7 454.5 227.25 437.7 L228.6 436.55" fill="#333333" fill-rule="evenodd" stroke="none"/>
    <path d="M285.15 212.2 L285.25 210.3 Q285.55 211.85 285.15 212.2" fill="#ff0000" fill-rule="evenodd" stroke="none"/>
    <path d="M264.45 324.6 Q263.9 328.65 263.5 332.55 L263.45 332.9 Q262.3 343.75 261.95 352.8 L245.35 340.1 263.45 332.9 263.3 332.7 263.1 332.5 262.3 331.55 263.1 332.5 263.3 332.7 263.45 332.9 Q249.35 336.65 236.6 336.4 L236.4 335.2 Q228.7 331.55 236.4 323.7 252.75 320.85 262.3 331.55 252.15 319.8 236.2 316.8 228.3 311.45 226.4 297.2 L226.25 297.0 226.3 297.0 Q234.9 292.0 245.0 292.0 252.45 292.0 259.1 294.7 265.4 308.75 264.45 324.6 M262.45 372.75 Q263.0 377.65 263.95 381.65 L264.7 384.35 Q271.85 407.3 272.4 423.75 260.35 435.35 245.0 435.35 237.9 435.35 231.55 432.9 L231.5 432.85 Q228.7 431.75 226.05 430.25 223.3 407.3 237.05 390.7 L236.4 387.9 237.05 387.7 237.85 387.4 Q252.1 382.7 263.95 381.65 252.95 377.1 235.3 379.3 L234.0 378.8 237.1 372.5 Q244.1 370.05 253.6 370.0 L262.45 372.75 M225.8 327.7 L225.7 326.7 225.8 327.7 M237.7 344.0 Q253.9 347.35 261.85 361.75 250.4 359.2 240.0 359.8 232.0 357.2 237.7 344.0 M238.75 365.4 L244.8 367.3 Q241.15 367.45 238.05 368.35 L238.75 365.4" fill="#663300" fill-rule="evenodd" stroke="none"/>
    <path d="M261.95 352.8 L261.85 361.75 Q261.95 367.75 262.45 372.75 L253.6 370.0 244.8 367.3 253.6 370.0 Q244.1 370.05 237.1 372.5 229.1 375.3 224.25 381.15 230.05 379.9 235.3 379.3 252.95 377.1 263.95 381.65 252.1 382.7 237.85 387.4 L237.05 387.7 236.4 387.9 Q229.3 390.3 221.65 393.6 L224.25 381.15 Q228.3 371.15 238.05 368.35 241.15 367.45 244.8 367.3 L238.75 365.4 227.15 361.8 Q233.35 360.15 240.0 359.8 250.4 359.2 261.85 361.75 253.9 347.35 237.7 344.0 L236.3 343.7 227.3 347.3 Q227.15 341.65 226.6 335.5 L236.6 336.4 Q249.35 336.65 263.45 332.9 L245.35 340.1 261.95 352.8 M272.4 423.75 Q270.25 438.85 266.65 451.8 257.65 484.45 244.85 484.5 232.05 484.45 223.0 451.8 219.4 438.7 217.25 423.4 221.45 427.5 226.05 430.25 228.7 431.75 231.5 432.85 L231.55 432.9 Q237.9 435.35 245.0 435.35 260.35 435.35 272.4 423.75 M225.7 326.7 L224.15 315.75 Q230.55 315.7 236.2 316.8 252.15 319.8 262.3 331.55 252.75 320.85 236.4 323.7 231.35 324.55 225.7 326.7 M221.4 300.25 L223.0 294.1 Q226.0 283.15 230.9 273.05 L230.95 273.05 231.25 272.25 230.9 272.3 229.6 256.0 220.0 256.0 220.0 244.6 222.65 244.6 229.6 244.6 Q231.25 254.55 237.15 256.0 228.9 260.15 231.4 271.95 236.55 261.4 244.05 261.4 250.85 261.4 256.15 268.75 L256.15 268.8 Q249.8 283.15 259.1 294.7 252.45 292.0 245.0 292.0 234.9 292.0 226.3 297.0 L226.25 297.0 Q223.75 298.4 221.4 300.25 M229.6 256.0 L237.15 256.0 229.6 256.0 M231.05 274.45 L230.95 273.05 231.05 274.45 M228.0 289.6 Q231.7 281.4 244.8 288.8 233.95 277.65 242.4 268.0 227.95 276.8 228.0 289.6 M236.3 343.7 L245.35 340.1 236.3 343.7 M228.6 436.55 L227.25 437.7 Q222.7 454.5 234.05 464.75 228.95 454.15 250.5 443.0 234.0 442.15 228.6 436.55" fill="#000000" fill-rule="evenodd" stroke="none"/>
    <path d="M217.25 423.4 Q218.3 411.05 221.65 393.6 229.3 390.3 236.4 387.9 L237.05 390.7 Q223.3 407.3 226.05 430.25 221.45 427.5 217.25 423.4 M224.25 381.15 L224.95 377.9 Q226.6 370.6 227.15 361.8 227.55 355.0 227.3 347.3 L236.3 343.7 237.7 344.0 Q232.0 357.2 240.0 359.8 233.35 360.15 227.15 361.8 L238.75 365.4 238.05 368.35 Q228.3 371.15 224.25 381.15 229.1 375.3 237.1 372.5 L234.0 378.8 235.3 379.3 Q230.05 379.9 224.25 381.15 M226.6 335.5 L226.6 335.3 226.5 334.25 225.9 328.45 225.8 327.7 225.7 326.7 Q231.35 324.55 236.4 323.7 228.7 331.55 236.4 335.2 L236.6 336.4 226.6 335.5 M224.15 315.75 L221.4 300.25 Q223.75 298.4 226.25 297.0 L226.4 297.2 Q228.3 311.45 236.2 316.8 230.55 315.7 224.15 315.75" fill="#660000" fill-rule="evenodd" stroke="none"/>
    <path d="M277.2 78.0 L273.4 65.0 286.4 52.8 269.6 51.75 292.4 49.55 Q297.5 50.2 296.4 63.2 293.3 110.25 285.2 141.2 291.85 143.15 280.0 151.2 288.2 146.2 288.65 165.85 282.15 172.75 275.6 170.0 286.3 179.85 283.45 197.8 L285.6 205.35 285.25 210.3 285.15 212.2 Q284.4 212.75 281.25 209.3 L266.9 192.85 275.1 178.3 239.2 154.85 Q252.85 161.8 266.55 165.75 198.15 93.7 200.1 113.55 L197.9 103.6 208.15 100.3 Q293.5 182.3 271.05 150.5 285.75 141.3 275.6 135.25 L278.65 124.85 Q288.8 141.3 284.8 104.0 298.15 30.75 277.2 78.0 M194.0 89.0 L206.7 99.15 197.9 103.6 Q196.0 95.6 194.0 89.0 M268.95 245.5 L268.95 246.4 268.95 256.0 259.85 256.0 252.25 256.0 244.7 256.0 Q261.9 254.05 256.7 244.6 L268.95 244.6 268.95 245.5 M263.15 283.0 Q264.95 287.95 266.65 294.1 L268.2 299.95 Q265.9 313.15 264.45 324.6 265.4 308.75 259.1 294.7 266.0 293.75 263.15 283.0 M268.2 299.95 Q263.85 296.65 259.1 294.7 263.85 296.65 268.2 299.95" fill="#6666cc" fill-rule="evenodd" stroke="none"/>
    <path d="M285.6 205.35 L283.45 197.8 Q286.3 179.85 275.6 170.0 282.15 172.75 288.65 165.85 288.2 146.2 280.0 151.2 291.85 143.15 285.2 141.2 293.3 110.25 296.4 63.2 297.5 50.2 292.4 49.55 L302.55 48.6 299.8 68.05 Q297.75 82.85 296.0 97.35 L293.35 119.65 Q291.3 137.4 289.7 154.65 L289.65 154.65 289.65 154.7 289.7 154.7 288.65 165.85 286.75 188.75 286.6 191.2 285.6 205.35 M285.05 213.7 L283.85 236.15 283.85 236.2 283.85 236.25 283.5 244.6 269.1 244.6 268.95 244.6 256.7 244.6 242.0 244.6 241.05 244.6 240.0 244.6 229.6 244.6 222.65 244.6 220.0 244.6 216.35 244.6 216.15 242.35 214.05 217.55 212.65 203.1 Q240.8 229.95 271.9 222.15 L271.95 222.5 Q240.9 232.05 215.65 218.5 229.9 237.1 254.8 239.7 274.2 246.2 270.8 234.4 277.35 242.15 280.8 235.8 L280.8 232.4 Q278.75 224.75 275.05 223.05 279.8 223.55 280.8 216.45 L285.05 213.7 M259.85 256.0 L258.45 272.4 Q260.9 276.8 263.15 283.0 266.0 293.75 259.1 294.7 249.8 283.15 256.15 268.8 L256.15 268.75 Q260.7 263.05 252.25 256.0 L259.85 256.0 M258.45 272.4 L257.35 270.6 257.15 270.3 256.15 268.8 257.15 270.3 257.35 270.6 258.45 272.4" fill="#6600cc" fill-rule="evenodd" stroke="none"/>
    <path d="M277.2 78.0 Q298.15 30.75 284.8 104.0 288.8 141.3 278.65 124.85 252.1 113.4 231.55 96.0 L275.6 135.25 Q285.75 141.3 271.05 150.5 293.5 182.3 208.15 100.3 L228.85 93.6 Q253.05 79.8 277.2 78.0 M200.1 113.55 Q198.15 93.7 266.55 165.75 252.85 161.8 239.2 154.85 L275.1 178.3 266.9 192.85 Q239.3 185.9 208.55 166.4 206.15 147.25 203.45 131.45 L202.95 128.5 202.65 126.65 202.4 125.45 202.0 123.3 200.9 117.45 200.1 113.55 M269.6 51.75 L286.4 52.8 273.4 65.0 206.7 99.15 194.0 89.0 Q187.3 66.95 179.4 60.3 L260.65 52.6 269.6 51.75 M192.55 66.1 Q192.0 67.35 192.0 68.8 192.0 71.45 193.85 73.3 195.75 75.2 198.4 75.2 201.05 75.2 202.9 73.3 L203.45 72.75 Q204.8 71.05 204.8 68.8 204.8 66.15 202.9 64.25 201.05 62.4 198.4 62.4 195.75 62.4 193.85 64.25 193.0 65.1 192.55 66.1 M212.65 203.1 L209.9 177.35 Q235.6 182.15 280.8 211.0 L285.05 213.7 280.8 216.45 Q279.8 223.55 275.05 223.05 278.75 224.75 280.8 232.4 L280.8 235.8 Q277.35 242.15 270.8 234.4 274.2 246.2 254.8 239.7 229.9 237.1 215.65 218.5 240.9 232.05 271.95 222.5 L272.0 222.4 272.8 222.55 273.0 222.55 272.85 222.5 272.8 222.4 272.8 222.5 271.95 222.15 271.9 222.15 Q240.8 229.95 212.65 203.1" fill="#6699cc" fill-rule="evenodd" stroke="none"/>
    <path d="M206.7 99.15 L208.15 100.3 M259.2 52.0 L260.65 52.6 M202.8 73.0 Q195.7 75.45 192.55 66.1 M202.8 73.0 L203.45 72.75 M202.95 128.5 L202.65 126.65 202.4 125.45 202.0 123.3 M289.65 154.65 L289.7 154.65 M269.1 244.6 L268.95 245.5 268.95 246.4 M259.85 256.0 L258.45 272.4 M226.6 335.5 L226.6 335.3 M226.5 334.25 L225.9 328.45 M230.95 272.9 L230.9 272.3 229.6 256.0 M283.85 236.2 L283.9 236.2 M240.0 244.6 L241.05 244.6 242.0 244.6 M230.95 273.05 L230.95 272.95 230.95 272.9 M230.95 273.05 L231.05 274.45 M236.2 316.8 Q252.15 319.8 262.3 331.55 L263.1 332.5 263.3 332.7 263.45 332.9 245.35 340.1 261.95 352.8 M224.15 315.75 Q230.55 315.7 236.2 316.8 M225.7 326.7 L225.8 327.7 M237.7 344.0 L236.3 343.7 227.3 347.3 M236.6 336.4 Q249.35 336.65 263.45 332.9 M226.6 335.5 L236.6 336.4 M236.4 323.7 Q231.35 324.55 225.7 326.7 M240.0 359.8 Q250.4 359.2 261.85 361.75 253.9 347.35 237.7 344.0 M240.0 359.8 Q233.35 360.15 227.15 361.8 L238.75 365.4 244.8 367.3 253.6 370.0 262.45 372.75 M238.05 368.35 Q241.15 367.45 244.8 367.3 M235.3 379.3 Q252.95 377.1 263.95 381.65 252.1 382.7 237.85 387.4 L237.05 387.7 236.4 387.9 Q229.3 390.3 221.65 393.6 M224.25 381.15 Q228.3 371.15 238.05 368.35 M237.1 372.5 Q229.1 375.3 224.25 381.15 230.05 379.9 235.3 379.3 M262.3 331.55 Q252.75 320.85 236.4 323.7 M245.35 340.1 L236.3 343.7 M253.6 370.0 Q244.1 370.05 237.1 372.5" fill="none" stroke="#000000" stroke-linecap="round" stroke-linejoin="round" stroke-opacity="0.4" stroke-width="1.0"/>
    <path d="M197.9 103.6 L200.1 113.55 200.9 117.45 202.0 123.3 M285.15 212.2 L285.25 210.3 285.6 205.35 286.6 191.2 286.75 188.75 288.65 165.85 289.7 154.7 289.7 154.65 Q291.3 137.4 293.35 119.65 L296.0 97.35 Q297.75 82.85 299.8 68.05 L302.55 48.6 292.4 49.55 269.6 51.75 260.65 52.6 179.4 60.3 Q187.3 66.95 194.0 89.0 196.0 95.6 197.9 103.6 M202.9 73.3 Q201.05 75.2 198.4 75.2 195.75 75.2 193.85 73.3 192.0 71.45 192.0 68.8 192.0 67.35 192.55 66.1 193.0 65.1 193.85 64.25 195.75 62.4 198.4 62.4 201.05 62.4 202.9 64.25 204.8 66.15 204.8 68.8 204.8 71.05 203.45 72.75 L202.9 73.3 M208.55 166.4 Q206.15 147.25 203.45 131.45 L202.95 128.5 M209.9 177.35 L208.55 166.4 M285.15 212.2 L285.05 213.7 283.85 236.15 283.85 236.2 283.85 236.25 283.5 244.6 269.1 244.6 268.95 244.6 268.95 245.5 M268.95 246.4 L268.95 256.0 259.85 256.0 252.25 256.0 244.7 256.0 237.15 256.0 229.6 256.0 220.0 256.0 220.0 244.6 216.35 244.6 216.15 242.35 214.05 217.55 212.65 203.1 209.9 177.35 M258.45 272.4 Q260.9 276.8 263.15 283.0 264.95 287.95 266.65 294.1 L268.2 299.95 Q265.9 313.15 264.45 324.6 263.9 328.65 263.5 332.55 L263.45 332.9 Q262.3 343.75 261.95 352.8 L261.85 361.75 Q261.95 367.75 262.45 372.75 263.0 377.65 263.95 381.65 L264.7 384.35 Q271.85 407.3 272.4 423.75 270.25 438.85 266.65 451.8 257.65 484.45 244.85 484.5 232.05 484.45 223.0 451.8 219.4 438.7 217.25 423.4 218.3 411.05 221.65 393.6 L224.25 381.15 224.95 377.9 Q226.6 370.6 227.15 361.8 227.55 355.0 227.3 347.3 227.15 341.65 226.6 335.5 M226.6 335.3 L226.5 334.25 M225.9 328.45 L225.8 327.7 225.7 326.7 224.15 315.75 221.4 300.25 223.0 294.1 Q226.0 283.15 230.9 273.05 L230.95 272.9 M242.0 244.6 L256.7 244.6 268.95 244.6 M256.15 268.75 L256.15 268.8 257.15 270.3 257.35 270.6 258.45 272.4 M231.4 271.95 Q236.55 261.4 244.05 261.4 250.85 261.4 256.15 268.75 M226.25 297.0 L226.3 297.0 Q234.9 292.0 245.0 292.0 252.45 292.0 259.1 294.7 263.85 296.65 268.2 299.95 M229.6 244.6 L222.65 244.6 220.0 244.6 M240.0 244.6 L229.6 244.6 M226.05 430.25 Q228.7 431.75 231.5 432.85 M231.55 432.9 Q237.9 435.35 245.0 435.35 260.35 435.35 272.4 423.75 M221.4 300.25 Q223.75 298.4 226.25 297.0 M226.05 430.25 Q221.45 427.5 217.25 423.4" fill="none" stroke="#000000" stroke-linecap="round" stroke-linejoin="round" stroke-opacity="0.4" stroke-width="1.0"/>
  </g>
</svg>
