<?xml version="1.0" encoding="UTF-8" standalone="no"?>
<svg xmlns:xlink="http://www.w3.org/1999/xlink" height="60.0px" width="381.95px" xmlns="http://www.w3.org/2000/svg">
  <g transform="matrix(1.0, 0.0, 0.0, 1.0, -84.0, -97.0)">
    <path d="M344.0 114.55 Q342.0 117.5 341.0 120.7 340.0 123.85 340.0 127.25 L340.1 129.4 204.45 129.4 341.4 135.05 Q343.25 139.85 347.45 144.0 325.7 144.0 303.95 138.0 L303.95 145.6 247.4 136.4 Q289.95 144.2 303.95 151.5 L303.95 157.0 167.0 132.5 126.5 154.0 Q119.9 144.9 110.2 137.75 133.6 129.0 157.85 125.95 L99.4 130.9 Q92.3 127.05 84.0 124.0 109.8 116.25 134.0 97.0 L150.45 107.0 132.0 107.0 152.25 108.1 168.5 118.0 211.7 111.3 Q250.6 107.05 289.5 115.5 L282.5 107.0 239.45 107.0 303.95 97.0 303.95 115.5 350.25 108.0 Q346.4 111.1 344.0 114.55 M423.25 108.0 L465.95 108.0 Q461.45 119.15 461.75 128.6 L432.85 132.65 Q433.5 130.05 433.5 127.25 L433.35 124.6 Q432.25 115.2 423.25 108.0 M462.65 135.55 Q463.65 140.0 465.95 144.0 L426.1 144.0 Q431.3 138.85 432.85 132.65 L462.65 135.55" fill="#cccccc" fill-rule="evenodd" stroke="none"/>
    <path d="M392.4 120.0 L392.6 116.0 Q398.5 115.6 404.3 114.4 408.9 118.2 410.65 122.05 L392.4 120.0 M385.0 116.15 L385.0 119.2 368.1 117.3 369.7 114.35 Q377.4 115.95 385.0 116.15 M366.2 121.8 L385.05 122.6 385.05 137.3 369.55 138.55 Q362.95 131.8 366.2 121.8 M392.3 122.9 L411.25 123.7 Q413.5 131.2 404.7 138.75 L391.55 137.45 392.3 122.9 M358.35 111.2 Q357.3 113.6 356.65 116.0 L344.0 114.55 Q346.4 111.1 350.25 108.0 L358.35 111.2 M341.0 120.7 L355.5 121.35 Q354.25 131.0 358.6 140.7 353.0 142.05 347.45 144.0 343.25 139.85 341.4 135.05 340.35 132.35 340.1 129.4 L340.0 127.25 Q340.0 123.85 341.0 120.7 M423.25 108.0 Q432.25 115.2 433.35 124.6 L433.5 127.25 Q433.5 130.05 432.85 132.65 431.3 138.85 426.1 144.0 419.25 141.7 412.45 140.25 421.95 132.8 420.15 124.05 L433.35 124.6 419.95 123.1 Q418.5 117.8 413.0 112.05 418.15 110.35 423.25 108.0 M208.55 107.0 L226.15 100.8 Q265.05 100.5 303.95 97.0 L239.45 107.0 208.55 107.0 M153.0 98.55 L164.55 107.0 150.45 107.0 134.0 97.0 153.0 98.55 M168.75 109.0 L196.6 110.5 211.7 111.3 168.5 118.0 152.25 108.1 168.75 109.0 M221.6 150.4 L169.55 140.0 146.65 152.35 126.5 154.0 167.0 132.5 303.95 157.0 Q264.35 151.25 221.6 150.4" fill="#666666" fill-rule="evenodd" stroke="none"/>
    <path d="M340.1 129.4 Q340.35 132.35 341.4 135.05 L204.45 129.4 340.1 129.4 M432.85 132.65 L461.75 128.6 Q461.85 132.2 462.65 135.55 L432.85 132.65 M164.55 107.0 L208.55 107.0 239.45 107.0 282.5 107.0 289.5 115.5 Q250.6 107.05 211.7 111.3 L196.6 110.5 168.75 109.0 152.25 108.1 132.0 107.0 150.45 107.0 164.55 107.0 M303.95 151.5 Q289.95 144.2 247.4 136.4 L303.95 145.6 303.95 151.5 M110.2 137.75 Q105.2 134.05 99.4 130.9 L157.85 125.95 Q133.6 129.0 110.2 137.75" fill="#ffffff" fill-rule="evenodd" stroke="none"/>
    <path d="M385.0 119.2 L392.4 120.0 392.3 122.9 392.4 120.0 410.65 122.05 411.25 123.7 410.65 122.05 419.95 123.1 420.15 124.05 419.95 123.1 433.35 124.6 420.15 124.05 411.25 123.7 392.3 122.9 385.05 122.6 366.2 121.8 Q366.9 119.6 368.1 117.3 366.9 119.6 366.2 121.8 L355.5 121.35 Q355.85 118.65 356.65 116.0 355.85 118.65 355.5 121.35 L341.0 120.7 Q342.0 117.5 344.0 114.55 L356.65 116.0 368.1 117.3 385.0 119.2 385.05 122.6 385.0 119.2" fill="#000000" fill-rule="evenodd" stroke="none"/>
    <path d="M392.4 120.0 L385.0 119.2 385.0 116.15 392.6 116.0 392.4 120.0 M385.05 122.6 L392.3 122.9 391.55 137.45 385.05 137.3 385.05 122.6 M404.7 138.75 Q413.5 131.2 411.25 123.7 L420.15 124.05 Q421.95 132.8 412.45 140.25 L404.7 138.75 M419.95 123.1 L410.65 122.05 Q408.9 118.2 404.3 114.4 L413.0 112.05 Q418.5 117.8 419.95 123.1 M369.7 114.35 L368.1 117.3 356.65 116.0 Q357.3 113.6 358.35 111.2 364.05 113.15 369.7 114.35 M355.5 121.35 L366.2 121.8 Q362.95 131.8 369.55 138.55 364.05 139.35 358.6 140.7 354.25 131.0 355.5 121.35 M226.15 100.8 L208.55 107.0 164.55 107.0 153.0 98.55 226.15 100.8 M146.65 152.35 L169.55 140.0 221.6 150.4 Q185.25 149.6 146.65 152.35" fill="#333333" fill-rule="evenodd" stroke="none"/>
    <path d="M385.0 119.2 L392.4 120.0 392.6 116.0 385.0 116.15 385.0 119.2 368.1 117.3 Q366.9 119.6 366.2 121.8 L385.05 122.6 385.0 119.2 M392.4 120.0 L392.3 122.9 411.25 123.7 410.65 122.05 392.4 120.0 M385.05 122.6 L392.3 122.9 391.55 137.45 404.7 138.75 Q413.5 131.2 411.25 123.7 L420.15 124.05 419.95 123.1 410.65 122.05 Q408.9 118.2 404.3 114.4 398.5 115.6 392.6 116.0 M369.7 114.35 L368.1 117.3 356.65 116.0 Q355.85 118.65 355.5 121.35 L366.2 121.8 Q362.95 131.8 369.55 138.55 L385.05 137.3 385.05 122.6 M385.05 137.3 L391.55 137.45 M385.0 116.15 Q377.4 115.95 369.7 114.35 364.05 113.15 358.35 111.2 357.3 113.6 356.65 116.0 L344.0 114.55 Q342.0 117.5 341.0 120.7 L355.5 121.35 Q354.25 131.0 358.6 140.7 364.05 139.35 369.55 138.55 M358.35 111.2 L350.25 108.0 Q346.4 111.1 344.0 114.55 M340.1 129.4 L340.0 127.25 Q340.0 123.85 341.0 120.7 M341.4 135.05 Q340.35 132.35 340.1 129.4 M341.4 135.05 Q343.25 139.85 347.45 144.0 353.0 142.05 358.6 140.7 M461.75 128.6 Q461.45 119.15 465.95 108.0 L423.25 108.0 Q432.25 115.2 433.35 124.6 L433.5 127.25 Q433.5 130.05 432.85 132.65 431.3 138.85 426.1 144.0 419.25 141.7 412.45 140.25 L404.7 138.75 M461.75 128.6 Q461.85 132.2 462.65 135.55 463.65 140.0 465.95 144.0 L426.1 144.0 M413.0 112.05 Q418.5 117.8 419.95 123.1 L433.35 124.6 420.15 124.05 Q421.95 132.8 412.45 140.25 M423.25 108.0 Q418.15 110.35 413.0 112.05 L404.3 114.4 M208.55 107.0 L226.15 100.8 153.0 98.55 164.55 107.0 M303.95 97.0 Q265.05 100.5 226.15 100.8 M168.75 109.0 L196.6 110.5 M221.6 150.4 Q264.35 151.25 303.95 157.0 L303.95 151.5 303.95 145.6 303.95 138.0 Q325.7 144.0 347.45 144.0 M126.5 154.0 L146.65 152.35 Q185.25 149.6 221.6 150.4 M350.25 108.0 L303.95 115.5 303.95 97.0 M153.0 98.55 L134.0 97.0 Q109.8 116.25 84.0 124.0 92.3 127.05 99.4 130.9 105.2 134.05 110.2 137.75 119.9 144.9 126.5 154.0" fill="none" stroke="#000000" stroke-linecap="round" stroke-linejoin="round" stroke-opacity="0.4" stroke-width="0.05"/>
  </g>
</svg>
