<?xml version="1.0" encoding="UTF-8" standalone="no"?>
<svg xmlns:xlink="http://www.w3.org/1999/xlink" height="513.6px" width="260.6px" xmlns="http://www.w3.org/2000/svg">
  <g transform="matrix(1.0, 0.0, 0.0, 1.0, -132.25, -31.2)">
    <path d="M334.65 92.15 Q334.4 99.35 334.9 106.15 335.65 116.8 338.25 126.45 L324.8 128.65 Q323.3 118.95 302.65 116.35 321.35 112.3 334.9 106.15 327.9 100.7 320.35 96.1 L322.95 85.25 Q328.85 88.45 334.65 92.15 M314.0 138.3 Q301.75 179.25 315.95 283.0 327.7 418.85 388.95 483.95 404.7 514.45 356.95 537.0 311.4 561.3 280.95 510.0 293.95 530.4 322.1 528.1 358.5 532.0 377.1 496.1 352.4 442.6 323.1 388.1 L305.1 265.1 Q307.55 215.6 298.1 166.05 277.45 141.65 247.05 140.05 L247.05 139.6 Q288.45 136.55 314.0 138.3 M342.95 45.0 Q339.55 56.5 337.55 67.25 329.15 64.5 320.8 62.2 316.6 45.35 290.3 39.6 316.1 40.65 342.95 45.0" fill="#000000" fill-rule="evenodd" stroke="none"/>
    <path d="M216.75 142.5 Q201.45 144.3 186.0 146.85 172.05 149.1 158.0 152.0 155.05 150.35 152.5 148.25 L163.05 128.05 Q138.3 132.85 145.9 108.95 169.55 106.15 165.05 128.05 175.35 128.75 180.85 135.45 L170.35 112.2 Q173.9 113.45 178.05 114.05 182.4 119.4 186.45 123.75 203.9 142.35 216.75 142.5" fill="#cccccc" fill-rule="evenodd" stroke="none"/>
    <path d="M244.75 139.75 L220.9 142.0 216.75 142.5 Q203.9 142.35 186.45 123.75 182.4 119.4 178.05 114.05 173.9 113.45 170.35 112.2 L173.05 102.05 Q172.2 80.0 193.75 74.0 269.3 65.0 320.35 96.1 320.2 109.7 302.65 116.35 258.8 125.8 186.45 123.75 265.3 135.35 324.8 128.65 L244.75 139.75 M320.8 62.2 Q332.4 80.75 322.95 85.25 265.5 54.1 196.95 69.65 L197.5 51.45 Q260.0 45.45 320.8 62.2 M263.0 32.7 L290.3 39.6 Q242.05 37.55 197.5 51.45 L198.0 33.4 198.05 31.8 198.0 33.4 Q197.1 51.85 185.85 49.6 172.75 52.8 160.05 57.05 171.75 54.65 183.45 53.1 179.9 81.75 153.2 97.2 140.55 92.65 141.05 75.05 139.9 52.2 175.15 33.35 L198.05 31.8 Q230.6 30.2 263.0 32.7" fill="#999999" fill-rule="evenodd" stroke="none"/>
    <path d="M322.95 85.25 L320.35 96.1 Q269.3 65.0 193.75 74.0 L196.95 69.65 Q265.5 54.1 322.95 85.25 M302.65 116.35 Q323.3 118.95 324.8 128.65 265.3 135.35 186.45 123.75 258.8 125.8 302.65 116.35 M290.3 39.6 Q316.6 45.35 320.8 62.2 260.0 45.45 197.5 51.45 242.05 37.55 290.3 39.6 M185.85 49.6 L183.45 53.1 Q171.75 54.65 160.05 57.05 172.75 52.8 185.85 49.6" fill="#666666" fill-rule="evenodd" stroke="none"/>
    <path d="M337.55 67.25 Q335.05 80.25 334.65 92.15 328.85 88.45 322.95 85.25 332.4 80.75 320.8 62.2 329.15 64.5 337.55 67.25 M338.25 126.45 Q340.1 133.5 342.95 140.0 L314.0 138.3 Q288.45 136.55 247.05 139.6 L244.75 139.75 324.8 128.65 338.25 126.45 M320.35 96.1 Q327.9 100.7 334.9 106.15 321.35 112.3 302.65 116.35 320.2 109.7 320.35 96.1 M290.3 39.6 L263.0 32.7 Q303.1 35.75 342.95 45.0 316.1 40.65 290.3 39.6" fill="#333333" fill-rule="evenodd" stroke="none"/>
    <path d="M197.5 51.45 L196.95 69.65 193.75 74.0 Q172.2 80.0 173.05 102.05 L170.35 112.2 180.85 135.45 Q175.35 128.75 165.05 128.05 169.55 106.15 145.9 108.95 L145.45 108.5 145.9 108.95 145.05 109.05 145.45 108.5 153.2 97.2 Q179.9 81.75 183.45 53.1 L185.85 49.6 Q197.1 51.85 198.0 33.4 L197.5 51.45" fill="#ffffff" fill-opacity="0.6117647" fill-rule="evenodd" stroke="none"/>
    <path d="M153.2 97.2 L145.45 108.5 145.05 108.05 145.45 108.5 145.05 109.05 145.9 108.95 Q138.3 132.85 163.05 128.05 L152.5 148.25 Q121.5 123.25 138.0 38.0 L155.0 35.55 175.15 33.35 Q139.9 52.2 141.05 75.05 140.55 92.65 153.2 97.2" fill="#ff0000" fill-rule="evenodd" stroke="none"/>
    <path d="M280.95 510.0 Q304.9 448.45 304.0 348.0 303.2 256.05 244.75 139.75 L247.05 139.6 247.05 140.05 Q277.45 141.65 298.1 166.05 307.55 215.6 305.1 265.1 L323.1 388.1 Q352.4 442.6 377.1 496.1 358.5 532.0 322.1 528.1 293.95 530.4 280.95 510.0" fill="#663300" fill-rule="evenodd" stroke="none"/>
    <path d="M337.55 67.25 Q335.05 80.25 334.65 92.15 334.4 99.35 334.9 106.15 335.65 116.8 338.25 126.45 340.1 133.5 342.95 140.0 L314.0 138.3 Q301.75 179.25 315.95 283.0 327.7 418.85 388.95 483.95 404.7 514.45 356.95 537.0 311.4 561.3 280.95 510.0 304.9 448.45 304.0 348.0 303.2 256.05 244.75 139.75 L220.9 142.0 216.75 142.5 Q201.45 144.3 186.0 146.85 172.05 149.1 158.0 152.0 155.05 150.35 152.5 148.25 L152.05 149.05 M342.95 45.0 Q339.55 56.5 337.55 67.25 M334.9 106.15 Q321.35 112.3 302.65 116.35 M244.75 139.75 L247.05 139.6 Q288.45 136.55 314.0 138.3 M290.3 39.6 Q316.1 40.65 342.95 45.0 303.1 35.75 263.0 32.7 230.6 30.2 198.05 31.8 L198.0 33.4 197.5 51.45 M175.15 33.35 L198.05 31.8 M196.95 69.65 L193.75 74.0 M185.85 49.6 L183.45 53.1 M145.45 108.5 L145.9 108.95 M247.05 140.05 Q277.45 141.65 298.1 166.05 307.55 215.6 305.1 265.1 L323.1 388.1 Q352.4 442.6 377.1 496.1 358.5 532.0 322.1 528.1 293.95 530.4 280.95 510.0 M152.5 148.25 Q121.5 123.25 138.0 38.0 L155.0 35.55 175.15 33.35 M145.05 108.05 L145.45 108.5" fill="none" stroke="#000000" stroke-linecap="round" stroke-linejoin="round" stroke-opacity="0.4" stroke-width="0.05"/>
  </g>
</svg>
