<?xml version="1.0" encoding="UTF-8" standalone="no"?>
<svg xmlns:xlink="http://www.w3.org/1999/xlink" height="32.7px" width="18.05px" xmlns="http://www.w3.org/2000/svg">
  <g transform="matrix(1.0, 0.0, 0.0, 1.0, -269.1, -180.35)">
    <path d="M271.85 206.8 L271.8 206.8 271.8 206.45 271.85 206.8" fill="#555ba0" fill-rule="evenodd" stroke="none"/>
    <path d="M271.85 206.8 L271.85 206.45 271.9 205.55 Q272.05 203.25 272.75 198.15 L273.5 192.0 273.55 190.8 Q273.7 186.85 273.15 183.75 L274.8 183.35 277.65 182.4 281.25 180.35 Q283.3 183.75 283.15 187.85 282.95 191.35 283.25 195.1 283.55 199.25 285.55 203.35 287.5 207.45 287.1 208.05 L286.3 208.55 Q282.45 205.5 281.9 201.3 281.55 203.5 281.9 205.5 282.1 206.9 282.65 208.3 L285.1 210.8 282.65 212.15 280.1 212.75 279.6 211.0 Q278.9 209.35 278.2 204.5 L277.9 202.05 Q277.6 199.2 277.6 196.35 276.65 199.35 276.35 201.2 275.15 207.0 275.75 212.6 L273.7 211.8 Q272.05 210.3 271.85 206.8" fill="#767c2c" fill-rule="evenodd" stroke="none"/>
    <path d="M287.1 208.05 Q287.05 209.6 285.1 210.8 L282.65 208.3 Q282.1 206.9 281.9 205.5 281.55 203.5 281.9 201.3 282.45 205.5 286.3 208.55 L287.1 208.05 M280.1 212.75 L275.75 212.6 Q275.15 207.0 276.35 201.2 276.65 199.35 277.6 196.35 277.6 199.2 277.9 202.05 L278.2 204.5 Q278.9 209.35 279.6 211.0 L280.1 212.75" fill="#626725" fill-rule="evenodd" stroke="none"/>
    <path d="M271.85 206.8 L271.8 206.8" fill="none" stroke="#7b6b53" stroke-linecap="round" stroke-linejoin="round" stroke-width="0.05"/>
    <path d="M270.6 183.5 L272.3 183.45 272.95 183.95 274.1 183.85 Q275.1 184.05 275.85 185.15 276.55 186.2 276.55 187.6 276.6 188.85 275.9 189.65 L275.2 190.15 275.1 190.45 274.45 191.6 274.8 193.2 274.7 194.85 274.85 195.0 Q275.65 195.6 275.75 196.85 275.85 198.05 275.25 199.25 274.7 200.35 273.7 200.75 L273.4 200.85 273.1 201.35 272.7 201.85 273.2 202.3 Q274.0 203.25 274.2 204.75 L274.25 205.15 274.7 205.6 Q275.3 206.3 275.4 207.4 275.45 208.45 274.9 209.35 L274.7 209.65 274.75 210.0 Q274.9 211.0 274.25 211.9 273.65 212.75 272.6 213.0 L272.3 213.05 272.65 207.65 271.35 202.25 273.15 199.05 272.8 195.7 273.45 189.9 272.65 185.7 270.6 183.5" fill="#759823" fill-rule="evenodd" stroke="none"/>
    <path d="M272.3 213.05 Q271.45 213.15 270.75 212.7 269.95 212.15 269.85 211.15 269.7 210.15 270.3 209.3 270.55 208.9 270.95 208.6 L270.55 208.25 Q269.8 207.3 269.6 205.8 269.4 204.3 269.9 203.1 L270.3 202.35 269.85 202.1 Q269.15 201.45 269.1 200.45 269.05 199.45 269.65 198.55 270.2 197.75 271.0 197.5 270.35 196.7 270.3 195.25 270.2 193.8 270.75 192.45 L271.25 191.55 271.0 191.05 Q270.75 190.25 271.0 189.35 L270.5 189.2 Q269.65 188.75 269.3 187.65 268.95 186.5 269.3 185.35 269.65 184.1 270.55 183.55 L270.6 183.5 272.65 185.7 273.45 189.9 272.8 195.7 273.15 199.05 271.35 202.25 272.65 207.65 272.3 213.05 M271.5 208.3 Q271.2 208.4 270.95 208.6 271.2 208.4 271.5 208.3 M271.95 187.65 Q271.4 188.15 271.1 189.0 L271.0 189.35 271.1 189.0 Q271.4 188.15 271.95 187.65" fill="#9ecd30" fill-rule="evenodd" stroke="none"/>
    <path d="M270.6 183.5 L272.3 183.45 272.95 183.95 274.1 183.85 Q275.1 184.05 275.85 185.15 276.55 186.2 276.55 187.6 276.6 188.85 275.9 189.65 L275.2 190.15 275.1 190.45 274.45 191.6 274.8 193.2 274.7 194.85 274.85 195.0 Q275.65 195.6 275.75 196.85 275.85 198.05 275.25 199.25 274.7 200.35 273.7 200.75 L273.4 200.85 273.1 201.35 272.7 201.85 273.2 202.3 Q274.0 203.25 274.2 204.75 L274.25 205.15 274.7 205.6 Q275.3 206.3 275.4 207.4 275.45 208.45 274.9 209.35 L274.7 209.65 274.75 210.0 Q274.9 211.0 274.25 211.9 273.65 212.75 272.6 213.0 L272.3 213.05 Q271.45 213.15 270.75 212.7 269.95 212.15 269.85 211.15 269.7 210.15 270.3 209.3 270.55 208.9 270.95 208.6 L270.55 208.25 Q269.8 207.3 269.6 205.8 269.4 204.3 269.9 203.1 L270.3 202.35 269.85 202.1 Q269.15 201.45 269.1 200.45 269.05 199.45 269.65 198.55 270.2 197.75 271.0 197.5 270.35 196.7 270.3 195.25 270.2 193.8 270.75 192.45 L271.25 191.55 271.0 191.05 Q270.75 190.25 271.0 189.35 L270.5 189.2 Q269.65 188.75 269.3 187.65 268.95 186.5 269.3 185.35 269.65 184.1 270.55 183.55 M271.0 189.35 L271.1 189.0 Q271.4 188.15 271.95 187.65 M270.95 208.6 Q271.2 208.4 271.5 208.3" fill="none" stroke="#745434" stroke-linecap="round" stroke-linejoin="round" stroke-width="0.05"/>
  </g>
</svg>
