<?xml version="1.0" encoding="UTF-8" standalone="no"?>
<svg xmlns:xlink="http://www.w3.org/1999/xlink" height="91.2px" width="124.1px" xmlns="http://www.w3.org/2000/svg">
  <g transform="matrix(1.0, 0.0, 0.0, 1.0, -212.9, -154.35)">
    <path d="M258.25 178.05 Q251.9 166.0 239.7 169.15 241.05 164.85 239.1 160.6 250.2 165.1 260.0 173.55 L259.25 174.1 Q258.1 175.3 258.1 176.95 258.1 177.5 258.25 178.05 M265.45 174.75 L274.65 180.85 268.35 178.6 267.25 179.45 265.65 178.8 Q266.1 177.95 266.1 176.95 266.1 175.75 265.45 174.75 M286.35 188.25 Q287.45 187.35 288.9 187.35 L290.4 187.65 291.05 187.95 291.2 188.1 Q297.4 182.6 301.45 185.8 L301.9 186.65 Q297.3 188.9 293.0 191.45 L292.9 191.35 Q292.9 189.7 291.7 188.5 L291.2 188.1 291.7 188.5 Q292.9 189.7 292.9 191.35 L292.9 191.5 292.3 191.9 292.85 192.2 Q292.6 193.3 291.7 194.15 L290.8 194.9 288.9 195.35 287.3 195.0 286.05 194.15 Q285.2 193.3 285.0 192.25 285.2 193.3 286.05 194.15 L287.3 195.0 284.65 196.8 284.9 198.15 284.9 198.6 Q286.2 204.05 294.45 203.35 295.5 202.55 296.9 202.55 L297.1 202.55 296.35 210.55 294.85 210.0 Q292.9 211.95 291.1 214.05 L290.5 213.3 Q289.8 212.6 288.95 212.35 L293.05 207.6 Q293.25 208.55 294.05 209.35 L294.85 210.0 294.05 209.35 Q293.25 208.55 293.05 207.6 L292.9 206.55 293.1 205.3 Q283.9 207.6 283.8 200.85 L283.7 200.95 Q282.55 202.15 280.9 202.15 279.55 202.15 278.5 201.35 L273.0 205.9 272.5 205.3 271.75 204.7 Q274.35 202.05 277.1 199.45 277.4 200.3 278.05 200.95 L278.5 201.35 Q283.1 201.05 279.5 195.6 283.15 194.75 284.65 196.8 284.35 195.95 283.7 195.3 L282.5 194.45 285.0 192.25 285.35 191.95 284.95 191.7 284.9 191.35 Q284.9 189.7 286.05 188.5 L286.35 188.25 M300.65 196.75 L301.0 196.45 306.4 202.25 306.7 202.55 326.7 211.75 321.7 212.35 Q318.1 207.6 305.55 203.05 304.55 203.75 303.3 203.75 L301.95 203.55 300.5 204.75 299.7 203.7 Q298.8 202.8 297.6 202.6 L299.4 200.7 299.3 199.75 299.3 199.55 Q299.35 198.05 300.45 196.9 L300.65 196.75 M330.2 181.45 Q332.75 183.6 337.0 184.75 320.15 190.35 307.3 199.45 307.2 198.0 306.1 196.9 L305.5 196.4 Q315.85 185.3 330.2 181.45 M308.5 211.05 Q320.35 218.0 331.7 225.95 L321.3 220.35 Q310.9 214.35 300.15 208.85 L300.65 208.0 308.5 211.05 M291.7 216.7 L323.7 231.15 321.35 231.45 297.7 220.75 290.95 218.45 291.7 216.7 M286.35 219.95 L284.8 222.15 284.1 221.3 Q283.65 220.85 283.1 220.6 L282.55 220.35 283.1 220.6 283.4 221.65 284.1 224.15 Q283.4 226.2 281.45 226.95 L278.95 227.4 278.9 227.35 278.45 226.95 278.05 226.5 278.5 225.9 277.5 225.45 Q270.7 222.55 263.4 220.05 L263.7 219.75 264.55 218.65 264.05 218.5 Q259.3 220.15 256.95 216.35 257.05 215.5 257.55 214.75 L258.05 214.1 Q259.25 212.95 260.9 212.95 262.25 212.95 263.25 213.7 L263.7 214.1 264.2 214.65 Q264.8 215.55 264.9 216.65 L264.9 216.95 264.6 218.55 264.95 218.75 Q271.2 222.45 277.5 222.9 277.75 222.0 278.45 221.3 L278.8 221.05 Q279.85 220.15 281.3 220.15 L282.55 220.35 284.25 218.15 284.85 218.95 286.35 219.95 M285.25 223.4 Q305.4 240.85 315.3 237.55 310.95 239.2 311.05 242.35 297.4 236.45 284.95 225.8 L285.3 224.15 285.25 223.4 M252.15 187.5 Q239.9 182.85 227.3 178.75 L216.1 174.35 Q228.5 177.3 240.45 181.1 L241.45 181.4 252.15 186.4 252.1 186.95 252.15 187.5 M255.9 182.95 L256.1 182.95 257.45 183.15 259.55 180.05 Q260.25 180.6 261.1 180.85 L259.05 184.25 Q260.1 185.4 260.1 186.95 L260.0 187.9 Q259.75 188.95 258.9 189.75 L258.65 190.05 Q257.55 190.95 256.1 190.95 L255.1 190.85 251.25 197.3 250.7 196.6 250.6 196.5 Q249.7 191.75 254.75 190.75 L255.1 190.85 254.75 190.75 255.15 190.2 255.15 189.95 Q252.65 184.6 255.9 182.95 M219.45 187.2 Q232.7 190.0 244.45 197.45 243.9 198.35 243.9 199.45 L243.95 199.95 Q248.3 195.95 251.9 199.75 L251.7 200.75 Q251.4 201.6 250.7 202.25 L249.9 202.9 250.7 202.25 Q251.4 201.6 251.7 200.75 257.45 198.85 261.7 202.95 L265.9 206.95 265.7 208.15 265.75 208.65 265.7 208.15 265.9 206.95 Q269.75 204.85 273.6 207.15 L273.7 208.15 273.7 208.6 273.25 210.0 283.9 214.95 283.7 216.15 283.65 216.3 272.2 211.25 Q271.15 212.15 269.7 212.15 268.35 212.15 267.3 211.35 L266.85 210.95 266.35 210.35 Q265.85 209.55 265.75 208.65 259.75 200.75 249.9 202.9 249.0 203.45 247.9 203.45 L247.6 203.45 Q246.15 203.35 245.05 202.25 L244.7 201.85 245.05 202.25 Q246.15 203.35 247.6 203.45 L243.45 210.3 242.65 209.2 242.0 208.65 242.65 209.2 243.45 210.3 243.85 211.85 243.85 212.05 243.75 213.0 Q252.1 213.2 256.9 217.0 L256.9 216.95 256.9 217.05 256.9 217.2 257.05 218.05 Q250.25 216.0 243.15 214.35 L242.65 214.85 Q241.55 216.0 240.05 216.05 L239.85 216.05 240.0 216.15 232.9 227.95 Q232.3 220.85 234.8 216.35 L236.15 214.4 236.4 214.05 236.3 213.9 236.15 213.6 236.35 212.9 Q242.0 214.7 242.0 208.65 241.3 208.2 240.45 208.1 L244.7 201.85 245.05 201.35 244.25 201.1 Q231.25 192.05 215.9 193.05 220.6 192.35 219.45 187.2 M259.05 184.25 L258.9 184.1 Q258.25 183.45 257.45 183.15 258.25 183.45 258.9 184.1 L259.05 184.25 M243.95 199.95 L244.25 201.1 243.95 199.95 M212.9 209.1 L212.9 208.8 Q224.65 209.0 236.1 210.65 235.85 211.3 235.85 212.05 L235.9 212.75 Q224.85 210.5 212.9 209.1 M258.05 219.75 L258.4 220.05 248.95 233.85 247.3 233.55 Q252.3 226.5 258.05 219.75 M272.2 211.25 L272.5 210.95 273.25 210.0 272.5 210.95 272.2 211.25 M256.9 217.0 L256.9 217.05 256.9 217.0 M264.6 218.55 L264.05 218.5 264.6 218.55 264.55 218.65 264.95 218.75 264.55 218.65 264.6 218.55 M236.4 214.05 L237.0 214.85 Q238.2 216.05 239.85 216.05 238.2 216.05 237.0 214.85 L236.4 214.05 M243.15 214.35 L243.75 213.0 243.15 214.35 M284.9 198.6 Q284.75 199.9 283.8 200.85 284.75 199.9 284.9 198.6 M305.55 203.05 L306.1 202.55 306.4 202.25 306.1 202.55 305.55 203.05 M301.95 203.55 L300.45 202.55 Q299.65 201.75 299.4 200.7 L300.1 200.0 299.4 200.7 Q299.65 201.75 300.45 202.55 L301.95 203.55 M294.45 203.35 L294.05 203.7 Q293.35 204.4 293.1 205.3 293.35 204.4 294.05 203.7 L294.45 203.35 M277.5 222.9 L277.3 224.15 277.5 225.45 277.3 224.15 277.5 222.9 M278.55 232.65 Q275.6 238.35 273.3 244.7 L269.85 243.1 Q270.55 236.05 278.55 232.65" fill="#cccccc" fill-rule="evenodd" stroke="none"/>
    <path d="M239.1 160.6 L238.95 160.25 Q237.5 157.3 234.5 154.35 L247.8 162.35 262.9 173.05 263.9 173.7 264.05 173.45 275.7 156.35 265.05 174.2 264.9 174.1 265.05 174.25 264.95 174.4 265.45 174.75 Q266.1 175.75 266.1 176.95 266.1 177.95 265.65 178.8 L267.25 179.45 268.35 178.6 274.65 180.85 275.0 181.1 286.35 188.25 286.05 188.5 Q284.9 189.7 284.9 191.35 L284.8 191.45 Q278.45 181.55 263.6 180.7 L264.9 179.75 265.65 178.8 264.9 179.75 263.6 180.7 262.1 180.95 261.1 180.85 Q260.25 180.6 259.55 180.05 L259.25 179.75 Q258.5 179.0 258.25 178.05 258.1 177.5 258.1 176.95 258.1 175.3 259.25 174.1 L260.0 173.55 Q250.2 165.1 239.1 160.6 M290.4 187.65 Q292.15 186.1 294.05 184.6 298.15 181.25 302.5 177.95 300.5 183.35 301.45 185.8 297.4 182.6 291.2 188.1 L291.05 187.95 290.4 187.65 M292.85 192.2 L300.65 196.75 300.45 196.9 Q299.35 198.05 299.3 199.55 297.05 195.75 290.8 194.9 L291.7 194.15 Q292.6 193.3 292.85 192.2 M301.0 196.45 Q302.0 195.75 303.3 195.75 L304.2 195.85 Q314.6 185.6 326.85 176.05 327.65 179.25 330.2 181.45 315.85 185.3 305.5 196.4 L306.1 196.9 Q307.2 198.0 307.3 199.45 L307.3 199.75 307.25 200.5 Q317.85 206.35 328.5 211.55 L326.7 211.75 306.7 202.55 306.4 202.25 Q307.05 201.45 307.25 200.5 307.05 201.45 306.4 202.25 L301.0 196.45 M300.5 204.75 Q300.9 205.55 300.9 206.55 L300.9 206.8 Q304.7 208.85 308.5 211.05 L300.65 208.0 300.15 208.85 299.7 209.35 Q298.55 210.55 296.9 210.55 L296.35 210.55 297.1 202.55 297.6 202.6 Q298.8 202.8 299.7 203.7 L300.5 204.75 M291.1 214.05 Q291.7 214.95 291.7 216.15 L291.7 216.7 290.95 218.45 297.7 220.75 321.35 231.45 Q316.9 232.3 318.5 235.15 307.2 223.65 290.1 219.35 289.05 220.15 287.7 220.15 L286.35 219.95 284.85 218.95 284.25 218.15 Q283.75 217.3 283.7 216.35 L283.7 216.15 283.9 214.95 273.25 210.0 273.7 208.6 Q279.55 213.75 284.65 213.55 L284.85 213.3 Q286.05 212.15 287.7 212.15 L288.95 212.35 Q289.8 212.6 290.5 213.3 L291.1 214.05 M284.8 222.15 L285.25 223.4 285.3 224.15 284.95 225.8 Q297.4 236.45 311.05 242.35 311.1 243.8 312.1 245.55 298.9 235.35 282.85 227.85 L281.3 228.15 281.0 228.15 Q279.7 230.35 278.55 232.65 270.55 236.05 269.85 243.1 L268.1 242.3 Q272.65 234.25 278.05 226.5 L278.45 226.95 278.9 227.35 278.95 227.4 281.45 226.95 Q283.4 226.2 284.1 224.15 L283.4 221.65 283.1 220.6 Q283.65 220.85 284.1 221.3 L284.8 222.15 M241.45 181.4 Q247.0 183.15 252.55 185.15 L253.25 184.1 Q254.35 183.0 255.9 182.95 252.65 184.6 255.15 189.95 L255.15 190.2 254.75 190.75 Q249.7 191.75 250.6 196.5 L250.7 196.6 251.25 197.3 251.85 198.8 251.9 199.45 251.9 199.75 251.9 199.45 251.85 198.8 Q260.9 199.5 266.7 205.45 L266.85 205.3 Q268.05 204.15 269.7 204.15 270.85 204.15 271.75 204.7 L272.5 205.3 273.0 205.9 273.6 207.15 Q269.75 204.85 265.9 206.95 266.1 206.1 266.7 205.45 266.1 206.1 265.9 206.95 L261.7 202.95 Q257.45 198.85 251.7 200.75 L251.9 199.75 Q248.3 195.95 243.95 199.95 L243.9 199.45 Q243.9 198.35 244.45 197.45 232.7 190.0 219.45 187.2 219.05 185.6 218.1 183.55 L245.8 196.05 245.05 196.6 244.45 197.45 245.05 196.6 245.8 196.05 Q246.7 195.45 247.9 195.45 L248.95 195.6 253.05 189.55 253.25 189.75 Q253.95 190.45 254.75 190.75 253.95 190.45 253.25 189.75 L253.05 189.55 Q252.3 188.65 252.15 187.5 L252.1 186.95 252.15 186.4 241.45 181.4 M250.6 196.5 Q249.85 195.8 248.95 195.6 249.85 195.8 250.6 196.5 M264.05 173.45 L264.9 174.1 264.05 173.45 M260.0 173.55 Q260.95 172.95 262.1 172.95 L262.9 173.05 262.1 172.95 Q260.95 172.95 260.0 173.55 M265.65 178.8 L265.1 178.55 265.65 178.8 M260.0 187.9 Q270.35 190.6 278.0 195.4 L278.05 195.3 Q279.25 194.15 280.9 194.15 L282.5 194.45 283.7 195.3 Q284.35 195.95 284.65 196.8 283.15 194.75 279.5 195.6 283.1 201.05 278.5 201.35 L278.05 200.95 Q277.4 200.3 277.1 199.45 L276.9 198.15 276.95 197.75 Q270.4 191.55 258.65 190.05 L258.9 189.75 Q259.75 188.95 260.0 187.9 M278.0 195.4 Q277.05 196.4 276.95 197.75 277.05 196.4 278.0 195.4 M252.55 185.15 Q252.2 185.7 252.15 186.4 252.2 185.7 252.55 185.15 M236.1 210.65 Q236.4 209.85 237.0 209.2 238.2 208.05 239.85 208.05 L240.45 208.1 Q241.3 208.2 242.0 208.65 242.0 214.7 236.35 212.9 L236.15 213.6 235.9 212.75 235.85 212.05 Q235.85 211.3 236.1 210.65 M263.25 213.7 L266.35 210.35 266.85 210.95 267.3 211.35 264.2 214.65 263.7 214.1 263.25 213.7 M256.95 216.35 L256.9 216.95 256.95 216.35 Q259.3 220.15 264.05 218.5 L264.55 218.65 263.7 219.75 263.4 220.05 Q262.3 220.95 260.9 220.95 L259.2 220.6 258.4 220.05 259.2 220.6 Q254.25 227.0 250.25 234.1 L248.95 233.85 258.4 220.05 258.05 219.75 Q257.3 219.0 257.05 218.05 L256.9 217.2 256.9 217.05 256.9 216.95 256.9 217.0 Q252.1 213.2 243.75 213.0 L243.85 212.05 243.9 211.85 Q250.75 213.1 257.55 214.75 257.05 215.5 256.95 216.35 M264.9 216.65 Q272.6 221.85 278.8 221.05 L278.45 221.3 Q277.75 222.0 277.5 222.9 271.2 222.45 264.95 218.75 L264.6 218.55 264.9 216.95 264.9 216.65 M234.8 216.35 Q232.3 220.85 232.9 227.95 L226.9 227.95 234.8 216.35 M305.5 196.4 Q304.9 196.0 304.2 195.85 304.9 196.0 305.5 196.4 M306.45 200.05 L307.3 199.45 306.45 200.05 M300.9 206.8 L300.65 208.0 300.1 207.75 300.65 208.0 300.9 206.8 M284.65 213.55 Q284.1 214.2 283.9 214.95 284.1 214.2 284.65 213.55 M290.1 219.35 L290.5 218.95 290.9 218.55 290.95 218.45 290.9 218.55 290.5 218.95 290.1 219.35 M282.85 227.85 L284.1 226.95 284.95 225.8 284.1 226.95 282.85 227.85 M284.5 224.55 L283.4 221.65 284.5 224.55 M278.95 227.4 Q279.85 228.05 281.0 228.15 L281.45 226.95 281.0 228.15 Q279.85 228.05 278.95 227.4" fill="#333333" fill-rule="evenodd" stroke="none"/>
    <path d="M258.25 178.05 Q251.9 166.0 239.7 169.15 241.05 164.85 239.1 160.6 L238.95 160.25 Q237.5 157.3 234.5 154.35 L247.8 162.35 262.9 173.05 264.05 173.45 275.7 156.35 265.05 174.2 265.05 174.25 265.45 174.75 274.65 180.85 275.0 181.1 286.35 188.25 Q287.45 187.35 288.9 187.35 L290.4 187.65 Q292.15 186.1 294.05 184.6 298.15 181.25 302.5 177.95 300.5 183.35 301.45 185.8 L301.9 186.65 Q297.3 188.9 293.0 191.45 L292.9 191.5 292.85 192.2 300.65 196.75 301.0 196.45 Q302.0 195.75 303.3 195.75 L304.2 195.85 Q314.6 185.6 326.85 176.05 327.65 179.25 330.2 181.45 332.75 183.6 337.0 184.75 320.15 190.35 307.3 199.45 L307.3 199.75 307.25 200.5 Q317.85 206.35 328.5 211.55 L326.7 211.75 321.7 212.35 Q318.1 207.6 305.55 203.05 304.55 203.75 303.3 203.75 L301.95 203.55 300.5 204.75 Q300.9 205.55 300.9 206.55 L300.9 206.8 Q304.7 208.85 308.5 211.05 320.35 218.0 331.7 225.95 L321.3 220.35 Q310.9 214.35 300.15 208.85 L299.7 209.35 Q298.55 210.55 296.9 210.55 L296.35 210.55 294.85 210.0 Q292.9 211.95 291.1 214.05 291.7 214.95 291.7 216.15 L291.7 216.7 323.7 231.15 321.35 231.45 Q316.9 232.3 318.5 235.15 307.2 223.65 290.1 219.35 289.05 220.15 287.7 220.15 L286.35 219.95 284.8 222.15 285.25 223.4 Q305.4 240.85 315.3 237.55 310.95 239.2 311.05 242.35 311.1 243.8 312.1 245.55 298.9 235.35 282.85 227.85 L281.3 228.15 281.0 228.15 Q279.7 230.35 278.55 232.65 L280.1 230.75 M252.15 187.5 Q239.9 182.85 227.3 178.75 L216.1 174.35 Q228.5 177.3 240.45 181.1 L241.45 181.4 Q247.0 183.15 252.55 185.15 L253.25 184.1 Q254.35 183.0 255.9 182.95 L256.1 182.95 257.45 183.15 259.55 180.05 259.25 179.75 Q258.5 179.0 258.25 178.05 258.1 177.5 258.1 176.95 258.1 175.3 259.25 174.1 L260.0 173.55 Q250.2 165.1 239.1 160.6 M254.75 190.75 Q249.7 191.75 250.6 196.5 L250.7 196.6 251.25 197.3 255.1 190.85 254.75 190.75 Q253.95 190.45 253.25 189.75 L253.05 189.55 248.95 195.6 Q249.85 195.8 250.6 196.5 M244.45 197.45 L245.05 196.6 245.8 196.05 218.1 183.55 Q219.05 185.6 219.45 187.2 232.7 190.0 244.45 197.45 243.9 198.35 243.9 199.45 L243.95 199.95 Q248.3 195.95 251.9 199.75 L251.9 199.45 251.85 198.8 251.25 197.3 M252.15 187.5 L252.1 186.95 252.15 186.4 241.45 181.4 M245.8 196.05 Q246.7 195.45 247.9 195.45 L248.95 195.6 M264.9 174.1 L265.05 174.25 264.95 174.4 265.45 174.75 Q266.1 175.75 266.1 176.95 266.1 177.95 265.65 178.8 L267.25 179.45 268.35 178.6 274.65 180.85 M264.05 173.45 L263.9 173.7 262.9 173.05 262.1 172.95 Q260.95 172.95 260.0 173.55 M264.9 174.1 L264.05 173.45 M265.65 178.8 L264.9 179.75 263.6 180.7 Q278.45 181.55 284.8 191.45 L284.95 191.7 284.9 191.35 Q284.9 189.7 286.05 188.5 L286.35 188.25 M265.1 178.55 L265.65 178.8 M263.6 180.7 L262.1 180.95 261.1 180.85 259.05 184.25 Q260.1 185.4 260.1 186.95 L260.0 187.9 Q270.35 190.6 278.0 195.4 L278.05 195.3 Q279.25 194.15 280.9 194.15 L282.5 194.45 285.0 192.25 284.95 191.7 285.35 191.95 285.0 192.25 Q285.2 193.3 286.05 194.15 L287.3 195.0 288.9 195.35 290.8 194.9 291.7 194.15 Q292.6 193.3 292.85 192.2 L292.3 191.9 292.9 191.5 292.9 191.35 Q292.9 189.7 291.7 188.5 L291.2 188.1 Q297.4 182.6 301.45 185.8 M257.45 183.15 Q258.25 183.45 258.9 184.1 L259.05 184.25 M261.1 180.85 Q260.25 180.6 259.55 180.05 M260.0 187.9 Q259.75 188.95 258.9 189.75 L258.65 190.05 Q270.4 191.55 276.95 197.75 277.05 196.4 278.0 195.4 M254.75 190.75 L255.15 190.2 255.15 189.95 Q252.65 184.6 255.9 182.95 M258.65 190.05 Q257.55 190.95 256.1 190.95 L255.1 190.85 M252.15 186.4 Q252.2 185.7 252.55 185.15 M253.05 189.55 Q252.3 188.65 252.15 187.5 M215.9 193.05 Q220.6 192.35 219.45 187.2 M214.5 193.15 L215.9 193.05 Q231.25 192.05 244.25 201.1 L243.95 199.95 M212.9 208.8 Q224.65 209.0 236.1 210.65 236.4 209.85 237.0 209.2 238.2 208.05 239.85 208.05 L240.45 208.1 244.7 201.85 244.25 201.1 245.05 201.35 244.7 201.85 245.05 202.25 Q246.15 203.35 247.6 203.45 L247.9 203.45 Q249.0 203.45 249.9 202.9 L250.7 202.25 Q251.4 201.6 251.7 200.75 L251.9 199.75 M251.85 198.8 Q260.9 199.5 266.7 205.45 L266.85 205.3 Q268.05 204.15 269.7 204.15 270.85 204.15 271.75 204.7 274.35 202.05 277.1 199.45 L276.9 198.15 276.95 197.75 M271.75 204.7 L272.5 205.3 273.0 205.9 278.5 201.35 278.05 200.95 Q277.4 200.3 277.1 199.45 M265.9 206.95 Q266.1 206.1 266.7 205.45 M265.75 208.65 L265.7 208.15 265.9 206.95 261.7 202.95 Q257.45 198.85 251.7 200.75 M257.55 214.75 L258.05 214.1 Q259.25 212.95 260.9 212.95 262.25 212.95 263.25 213.7 L266.35 210.35 Q265.85 209.55 265.75 208.65 259.75 200.75 249.9 202.9 M256.9 216.95 L256.95 216.35 Q257.05 215.5 257.55 214.75 250.75 213.1 243.9 211.85 L243.85 211.85 243.85 212.05 243.75 213.0 Q252.1 213.2 256.9 217.0 L256.9 217.05 256.9 217.2 257.05 218.05 Q257.3 219.0 258.05 219.75 L258.4 220.05 259.2 220.6 260.9 220.95 Q262.3 220.95 263.4 220.05 L263.7 219.75 264.55 218.65 264.05 218.5 Q259.3 220.15 256.95 216.35 M256.9 216.95 L256.9 217.05 M273.25 210.0 L272.5 210.95 272.2 211.25 283.65 216.3 283.7 216.35 283.7 216.15 283.9 214.95 273.25 210.0 273.7 208.6 273.7 208.15 273.6 207.15 Q269.75 204.85 265.9 206.95 M272.2 211.25 Q271.15 212.15 269.7 212.15 268.35 212.15 267.3 211.35 L264.2 214.65 Q264.8 215.55 264.9 216.65 272.6 221.85 278.8 221.05 279.85 220.15 281.3 220.15 L282.55 220.35 284.25 218.15 Q283.75 217.3 283.7 216.35 M263.25 213.7 L263.7 214.1 264.2 214.65 M267.3 211.35 L266.85 210.95 266.35 210.35 M264.9 216.65 L264.9 216.95 264.6 218.55 264.95 218.75 Q271.2 222.45 277.5 222.9 277.75 222.0 278.45 221.3 L278.8 221.05 M264.6 218.55 L264.55 218.65 264.95 218.75 M264.05 218.5 L264.6 218.55 M240.45 208.1 Q241.3 208.2 242.0 208.65 L242.65 209.2 243.45 210.3 247.6 203.45 M235.9 212.75 L235.85 212.05 Q235.85 211.3 236.1 210.65 M236.15 214.4 L236.4 214.05 236.3 213.9 236.15 214.4 234.8 216.35 Q232.3 220.85 232.9 227.95 L240.0 216.15 240.05 216.05 239.85 216.05 Q238.2 216.05 237.0 214.85 L236.4 214.05 M236.15 213.6 L235.9 212.75 Q224.85 210.5 212.9 209.1 M236.3 213.9 L236.15 213.6 236.35 212.9 Q242.0 214.7 242.0 208.65 M243.45 210.3 L243.85 211.85 M243.75 213.0 L243.15 214.35 Q250.25 216.0 257.05 218.05 M243.15 214.35 L242.65 214.85 Q241.55 216.0 240.05 216.05 M258.05 219.75 Q252.3 226.5 247.3 233.55 L248.95 233.85 258.4 220.05 M248.95 233.85 L250.25 234.1 Q254.25 227.0 259.2 220.6 M269.85 243.1 L268.1 242.3 Q272.65 234.25 278.05 226.5 L277.5 225.45 Q270.7 222.55 263.4 220.05 M232.9 227.95 L226.9 227.95 234.8 216.35 M290.4 187.65 L291.05 187.95 291.2 188.1 M284.65 196.8 L284.9 198.15 284.9 198.6 Q286.2 204.05 294.45 203.35 295.5 202.55 296.9 202.55 L297.1 202.55 297.6 202.6 299.4 200.7 299.3 199.75 299.3 199.55 Q297.05 195.75 290.8 194.9 M282.5 194.45 L283.7 195.3 Q284.35 195.95 284.65 196.8 L287.3 195.0 M284.65 196.8 Q283.15 194.75 279.5 195.6 283.1 201.05 278.5 201.35 279.55 202.15 280.9 202.15 282.55 202.15 283.7 200.95 L283.8 200.85 Q284.75 199.9 284.9 198.6 M304.2 195.85 Q304.9 196.0 305.5 196.4 315.85 185.3 330.2 181.45 M305.5 196.4 L306.1 196.9 Q307.2 198.0 307.3 199.45 L306.45 200.05 M306.4 202.25 L306.7 202.55 326.7 211.75 M306.4 202.25 L306.1 202.55 305.55 203.05 M307.25 200.5 Q307.05 201.45 306.4 202.25 L301.0 196.45 M300.1 200.0 L299.4 200.7 Q299.65 201.75 300.45 202.55 L301.95 203.55 M299.3 199.55 Q299.35 198.05 300.45 196.9 L300.65 196.75 M293.1 205.3 Q293.35 204.4 294.05 203.7 L294.45 203.35 M297.6 202.6 Q298.8 202.8 299.7 203.7 L300.5 204.75 M308.5 211.05 L300.65 208.0 300.15 208.85 M300.1 207.75 L300.65 208.0 300.9 206.8 M294.85 210.0 L294.05 209.35 Q293.25 208.55 293.05 207.6 L288.95 212.35 Q289.8 212.6 290.5 213.3 L291.1 214.05 M297.1 202.55 L296.35 210.55 M273.0 205.9 L273.6 207.15 M283.9 214.95 Q284.1 214.2 284.65 213.55 279.55 213.75 273.7 208.6 M284.65 213.55 L284.85 213.3 Q286.05 212.15 287.7 212.15 L288.95 212.35 M283.1 220.6 Q283.65 220.85 284.1 221.3 L284.8 222.15 M286.35 219.95 L284.85 218.95 284.25 218.15 M291.7 216.7 L290.95 218.45 297.7 220.75 321.35 231.45 M290.95 218.45 L290.9 218.55 290.5 218.95 290.1 219.35 M282.55 220.35 L283.1 220.6 283.4 221.65 284.5 224.55 M284.95 225.8 L284.1 226.95 282.85 227.85 M283.4 221.65 L284.1 224.15 Q283.4 226.2 281.45 226.95 L281.0 228.15 Q279.85 228.05 278.95 227.4 L278.9 227.35 278.45 226.95 278.05 226.5 278.5 225.9 277.5 225.45 277.3 224.15 277.5 222.9 M285.25 223.4 L285.3 224.15 284.95 225.8 Q297.4 236.45 311.05 242.35 M281.45 226.95 L278.95 227.4 M278.55 232.65 Q275.6 238.35 273.3 244.7 L269.85 243.1 Q270.55 236.05 278.55 232.65 M293.05 207.6 L292.9 206.55 293.1 205.3 Q283.9 207.6 283.8 200.85" fill="none" stroke="#000000" stroke-linecap="round" stroke-linejoin="round" stroke-opacity="0.08235294" stroke-width="0.05"/>
  </g>
</svg>
