<?xml version="1.0" encoding="UTF-8" standalone="no"?>
<svg xmlns:xlink="http://www.w3.org/1999/xlink" height="53.95px" width="44.15px" xmlns="http://www.w3.org/2000/svg">
  <g transform="matrix(1.0, 0.0, 0.0, 1.0, 22.05, 26.5)">
    <path d="M2.4 -10.55 L3.65 -12.75 Q5.6 -16.15 6.55 -19.3 7.45 -22.45 10.35 -24.95 13.25 -27.5 17.95 -25.75 22.6 -24.0 21.95 -18.2 21.3 -12.45 17.3 -13.25 L15.45 -13.65 14.4 -14.0 Q13.15 -14.25 12.85 -14.75 L11.7 -15.3 Q8.7 -18.05 11.75 -20.25 12.6 -20.9 13.9 -21.0 14.85 -20.6 14.95 -19.7 L15.0 -18.1 Q15.35 -16.6 17.15 -16.5 18.9 -16.45 18.4 -20.55 14.45 -22.75 11.35 -20.8 9.6 -19.7 9.75 -17.25 9.85 -14.85 9.0 -12.4 8.1 -9.95 4.65 -4.35 1.2 1.25 -4.05 8.5 -9.3 15.75 -9.0 13.95 -8.7 12.1 -9.2 12.4 L-11.4 14.6 -14.65 19.0 Q-16.45 21.4 -19.0 23.15 L-22.0 23.25 Q-21.35 21.5 -20.35 20.05 L-19.1 18.15 -19.3 18.55 -8.75 4.95 -8.5 4.55 Q-8.05 3.9 -5.45 1.6 L-4.2 0.3 Q-4.6 2.7 -5.8 4.95 L-6.4 5.9 Q-3.6 2.8 -1.3 -1.1 1.35 -5.55 2.4 -10.55 M19.9 -22.05 Q19.3 -25.3 15.45 -25.95 11.6 -26.6 8.75 -21.7 L8.75 -21.3 Q11.6 -24.8 15.35 -24.5 17.1 -24.1 19.9 -22.05" fill="#a1664c" fill-rule="evenodd" stroke="none"/>
    <path d="M19.9 -22.05 Q17.1 -24.1 15.35 -24.5 11.6 -24.8 8.75 -21.3 L8.75 -21.7 Q11.6 -26.6 15.45 -25.95 19.3 -25.3 19.9 -22.05" fill="#bf8c77" fill-rule="evenodd" stroke="none"/>
    <path d="M14.4 -14.0 Q0.8 4.4 -15.45 27.2 L-15.5 27.25 -15.65 27.45 -15.75 27.2 Q-19.2 27.1 -20.25 26.25 L-21.45 25.15 Q-22.15 24.4 -22.0 23.35 L-22.05 23.25 -22.0 23.25 -19.0 23.15 Q-16.45 21.4 -14.65 19.0 L-11.4 14.6 -9.2 12.4 Q-8.7 12.1 -9.0 13.95 -9.3 15.75 -4.05 8.5 1.2 1.25 4.65 -4.35 8.1 -9.95 9.0 -12.4 9.85 -14.85 9.75 -17.25 9.6 -19.7 11.35 -20.8 14.45 -22.75 18.4 -20.55 18.9 -16.45 17.15 -16.5 15.35 -16.6 15.0 -18.1 L14.95 -19.7 Q14.85 -20.6 13.9 -21.0 12.6 -20.9 11.75 -20.25 8.7 -18.05 11.7 -15.3 L11.35 -15.45 11.7 -15.3 12.85 -14.75 Q13.15 -14.25 14.4 -14.0 M-4.2 0.3 Q-2.3 -1.8 -0.6 -5.05 L2.4 -10.55 Q1.35 -5.55 -1.3 -1.1 -3.6 2.8 -6.4 5.9 L-5.8 4.95 Q-4.6 2.7 -4.2 0.3 M-16.45 26.85 L-16.05 26.65 -15.75 27.2 -16.05 26.65 -16.45 26.85 Q-16.85 26.05 -16.05 26.65 L-15.45 27.2 -16.05 26.65 Q-16.85 26.05 -16.45 26.85 M-15.5 27.25 L-15.75 27.2 -15.5 27.25" fill="#58382b" fill-rule="evenodd" stroke="none"/>
    <path d="M2.4 -10.55 L3.65 -12.75 Q5.6 -16.15 6.55 -19.3 7.45 -22.45 10.35 -24.95 13.25 -27.5 17.95 -25.75 22.6 -24.0 21.95 -18.2 21.3 -12.45 17.3 -13.25 L15.45 -13.65 M-15.75 27.2 Q-19.2 27.1 -20.25 26.25 L-21.45 25.15 M-22.0 23.25 Q-21.35 21.5 -20.35 20.05 L-19.1 18.15 -19.3 18.55 -8.75 4.95 -8.5 4.55 Q-8.05 3.9 -5.45 1.6 L-4.2 0.3 Q-2.3 -1.8 -0.6 -5.05 L2.4 -10.55 M11.7 -15.3 Q8.7 -18.05 11.75 -20.25 12.6 -20.9 13.9 -21.0 14.85 -20.6 14.95 -19.7 L15.0 -18.1 Q15.35 -16.6 17.15 -16.5 18.9 -16.45 18.4 -20.55 M12.85 -14.75 Q13.15 -14.25 14.4 -14.0 M-16.45 26.85 Q-16.85 26.05 -16.05 26.65 L-15.45 27.2 M-15.75 27.2 L-15.5 27.25" fill="none" stroke="#000000" stroke-linecap="round" stroke-linejoin="round" stroke-width="0.1"/>
    <path d="M11.35 -15.45 L11.7 -15.3" fill="none" stroke="#4a2502" stroke-linecap="round" stroke-linejoin="round" stroke-width="0.1"/>
    <path d="M15.45 -13.65 L14.4 -14.0 Q0.8 4.4 -15.45 27.2 L-15.5 27.25 M-15.75 27.2 L-16.05 26.65 -16.45 26.85" fill="none" stroke="#000000" stroke-linecap="round" stroke-linejoin="round" stroke-width="0.1"/>
  </g>
</svg>
