<?xml version="1.0" encoding="UTF-8" standalone="no"?>
<svg xmlns:xlink="http://www.w3.org/1999/xlink" height="44.85px" width="60.45px" xmlns="http://www.w3.org/2000/svg">
  <g transform="matrix(1.0, 0.0, 0.0, 1.0, -245.75, -177.55)">
    <path d="M305.2 212.1 Q289.85 220.4 285.3 222.15 280.75 223.85 264.25 213.15 247.75 202.4 246.3 198.9 244.8 195.3 247.3 193.95 249.75 192.55 254.05 193.15 L305.2 212.1" fill="#666666" fill-opacity="0.3529412" fill-rule="evenodd" stroke="none"/>
    <path d="M254.2 189.3 Q253.95 187.75 255.05 185.9 L256.2 184.3 264.2 179.3 Q267.15 177.45 270.2 180.3 L280.2 183.3 286.2 183.3 290.2 185.8 Q294.7 188.15 297.2 187.3 301.2 185.95 305.2 193.3 L305.2 211.3 283.2 220.3 253.2 201.3 Q254.6 191.75 254.2 189.3" fill="#f0dcae" fill-rule="evenodd" stroke="none"/>
    <path d="M254.2 189.3 Q254.6 191.75 253.2 201.3 L283.2 220.3 305.2 211.3 305.2 193.3 Q301.2 185.95 297.2 187.3 294.7 188.15 290.2 185.8 L286.2 183.3 280.2 183.3 270.2 180.3 Q267.15 177.45 264.2 179.3 L256.2 184.3 255.05 185.9 Q253.95 187.75 254.2 189.3 Z" fill="none" stroke="#533a13" stroke-linecap="round" stroke-linejoin="round" stroke-width="2.0"/>
    <path d="M268.15 189.4 L268.3 189.9 268.2 190.2 267.95 190.65 Q266.95 191.3 266.3 190.35 L266.25 189.6 266.6 189.1 267.25 188.9 267.25 188.85 267.65 189.0 267.95 189.1 268.15 189.4 M274.5 191.35 L274.95 191.5 275.2 191.6 275.4 191.9 275.55 192.4 275.5 192.7 275.2 193.15 Q274.2 193.8 273.6 192.85 273.4 192.45 273.5 192.05 L273.85 191.6 274.5 191.4 274.5 191.35 M276.9 191.25 L276.75 191.2 Q276.55 190.7 277.0 190.5 L277.2 190.4 Q278.3 191.3 276.9 191.25 M278.05 191.9 L278.45 192.05 278.75 192.2 278.95 192.5 279.1 192.95 279.0 193.25 278.75 193.75 277.95 194.0 277.15 194.2 277.0 194.1 Q276.85 193.7 277.15 193.5 L277.1 193.4 277.05 192.65 277.4 192.2 278.05 191.95 278.05 191.9 M279.9 194.55 Q281.0 195.45 279.6 195.4 L279.45 195.35 Q279.25 194.85 279.7 194.65 L279.9 194.55 M293.4 190.15 Q292.2 189.95 293.05 189.05 L293.2 188.95 Q294.4 189.25 293.5 190.1 L293.4 190.15 M294.75 214.2 L294.5 214.2 294.65 214.0 294.7 214.15 294.75 214.2 M298.8 189.75 Q297.5 189.35 298.6 188.75 L298.6 188.7 Q299.75 188.9 299.0 189.65 L298.8 189.75 M295.5 191.1 L295.35 191.2 Q294.0 190.8 295.1 190.2 L295.15 190.15 Q296.25 190.35 295.5 191.1 M295.35 188.5 Q296.45 188.7 295.7 189.45 L295.55 189.55 Q294.2 189.15 295.35 188.5" fill="#8c5722" fill-rule="evenodd" stroke="none"/>
    <path d="M291.65 209.75 L291.7 209.8 291.55 210.35 291.4 210.25 291.65 209.75 M283.5 211.9 L283.75 212.35 283.5 213.2 283.5 211.9 M303.5 213.25 L303.45 213.2 303.6 213.1 303.5 213.25" fill="#ae6b2b" fill-rule="evenodd" stroke="none"/>
    <path d="M255.25 188.35 L255.15 188.6 255.2 188.3 255.25 188.35 M272.75 212.5 L272.75 212.55 272.7 212.55 272.75 212.5" fill="#7e4f1f" fill-rule="evenodd" stroke="none"/>
    <path d="M272.65 212.55 L272.75 212.5 272.7 212.55 272.65 212.55 M254.45 203.6 L254.45 203.55 254.8 203.9 254.45 203.6" fill="#472c12" fill-rule="evenodd" stroke="none"/>
    <path d="M297.3 206.0 L297.4 205.9 297.35 206.05 297.3 206.0" fill="#d9c68c" fill-rule="evenodd" stroke="none"/>
    <path d="M303.95 206.45 L303.95 206.9 303.6 207.35 Q302.65 207.7 302.2 206.85 302.1 206.3 302.65 206.05 L302.95 205.9 Q303.6 205.8 303.9 206.3 L303.95 206.45 M302.95 202.3 Q302.95 202.75 302.55 203.0 L302.2 203.15 Q301.25 202.95 301.45 202.1 L301.95 201.65 302.2 201.55 Q302.75 201.6 302.9 202.15 L302.95 202.3 M294.6 199.8 L294.65 199.95 Q294.65 200.45 294.25 200.65 L293.9 200.8 Q292.95 200.65 293.15 199.75 293.25 199.4 293.65 199.3 L293.9 199.25 Q294.45 199.3 294.6 199.8 M294.45 202.4 Q295.05 202.45 295.2 202.95 L295.25 203.15 294.8 203.8 294.45 203.95 Q294.0 203.9 293.8 203.65 293.6 203.35 293.75 202.9 293.85 202.6 294.2 202.45 L294.45 202.4 M297.3 202.3 L297.35 202.45 Q297.35 202.95 296.95 203.15 L296.6 203.3 Q295.65 203.1 295.85 202.25 295.95 201.9 296.35 201.8 L296.6 201.75 Q297.15 201.8 297.3 202.3" fill="#856f2c" fill-rule="evenodd" stroke="none"/>
    <path d="M283.1 188.65 L283.45 188.5 284.15 188.3 284.25 188.35 284.2 188.3 Q283.2 186.05 285.7 185.45 L286.15 184.95 287.95 186.15 Q290.65 187.3 293.4 187.7 293.25 188.45 292.05 189.3 L291.5 189.6 290.9 190.25 Q290.35 190.8 289.5 190.6 L289.0 190.45 288.1 191.15 Q286.55 192.2 285.9 190.55 L285.1 191.4 Q284.2 192.15 283.4 191.85 L283.15 191.95 Q282.65 192.15 282.25 191.95 281.95 192.6 280.45 193.2 279.8 193.5 279.35 192.85 L279.15 192.4 279.1 192.4 Q278.25 190.5 280.6 189.9 L281.4 190.4 Q281.25 189.05 283.1 188.65" fill="#ddaf46" fill-rule="evenodd" stroke="none"/>
    <path d="M282.75 219.05 Q282.55 218.55 282.85 217.95 L283.25 217.4 283.35 214.35 Q283.35 213.75 283.5 213.2 L283.75 212.35 283.5 211.9 Q282.9 210.75 283.5 209.6 L283.55 209.5 Q283.85 208.9 284.4 208.7 283.45 206.95 285.75 206.3 287.05 206.85 287.35 207.5 L287.8 207.35 Q287.6 206.35 289.0 206.0 290.65 206.65 290.4 207.4 L291.15 207.1 Q293.45 208.35 291.45 209.3 L291.65 209.75 291.4 210.25 291.55 210.35 291.7 209.8 Q291.95 209.1 292.7 209.05 295.95 209.85 294.65 212.5 295.7 213.3 294.65 214.0 L294.5 214.2 Q291.05 216.05 287.3 217.55 L284.2 218.6 Q283.35 218.85 282.85 219.3 L282.75 219.05" fill="#765916" fill-rule="evenodd" stroke="none"/>
    <path d="M283.25 207.75 L283.25 205.15 Q283.35 204.35 283.95 203.4 284.25 202.9 284.7 202.6 284.4 201.65 284.85 201.0 285.3 200.3 286.5 200.0 L286.65 199.95 286.65 199.75 Q286.8 199.4 287.15 199.3 L287.4 199.25 Q287.95 199.3 288.15 199.8 L288.2 199.95 288.05 200.4 Q289.8 201.55 288.45 203.0 L288.65 203.1 288.85 203.05 Q289.4 203.05 289.6 203.6 L289.65 203.75 289.65 203.9 Q290.1 204.45 290.0 204.95 L290.5 204.6 Q290.5 204.25 290.75 204.0 290.4 204.0 290.15 203.7 287.85 201.15 291.2 200.05 294.25 201.65 292.6 203.1 L293.7 203.8 Q295.25 205.1 293.4 206.3 L292.7 207.3 293.5 207.9 294.05 207.45 294.2 207.3 Q293.95 205.95 296.1 205.25 296.85 205.65 297.3 206.0 L297.35 206.05 297.4 205.9 Q296.85 204.3 299.3 203.55 302.85 205.35 300.0 207.0 301.5 207.8 301.8 208.6 302.2 208.35 302.75 208.15 L303.9 208.85 302.5 210.6 Q298.65 212.55 294.75 214.2 L294.7 214.15 294.65 214.0 Q295.7 213.3 294.65 212.5 295.95 209.85 292.7 209.05 291.95 209.1 291.7 209.8 L291.65 209.75 291.45 209.3 Q293.45 208.35 291.15 207.1 L290.4 207.4 Q290.65 206.65 289.0 206.0 287.6 206.35 287.8 207.35 L287.35 207.5 Q287.05 206.85 285.75 206.3 283.45 206.95 284.4 208.7 283.85 208.9 283.55 209.5 L283.5 209.6 283.35 208.15 283.35 208.1 283.3 208.05 283.25 207.75" fill="#9c761d" fill-rule="evenodd" stroke="none"/>
    <path d="M284.85 201.0 L285.2 197.3 292.2 197.3 Q294.0 197.25 296.2 194.3 296.75 193.55 300.55 193.35 L304.2 193.3 304.2 208.6 303.9 208.85 302.75 208.15 Q302.2 208.35 301.8 208.6 301.5 207.8 300.0 207.0 302.85 205.35 299.3 203.55 296.85 204.3 297.4 205.9 L297.3 206.0 Q296.85 205.65 296.1 205.25 293.95 205.95 294.2 207.3 L294.05 207.45 293.5 207.9 292.7 207.3 293.4 206.3 Q295.25 205.1 293.7 203.8 L292.6 203.1 Q294.25 201.65 291.2 200.05 287.85 201.15 290.15 203.7 290.4 204.0 290.75 204.0 290.5 204.25 290.5 204.6 L290.0 204.95 Q290.1 204.45 289.65 203.9 L289.65 203.75 289.6 203.6 Q289.4 203.05 288.85 203.05 L288.65 203.1 288.45 203.0 Q289.8 201.55 288.05 200.4 L288.2 199.95 288.15 199.8 Q287.95 199.3 287.4 199.25 L287.15 199.3 Q286.8 199.4 286.65 199.75 L286.65 199.95 286.5 200.0 Q285.3 200.3 284.85 201.0 M297.3 202.3 Q297.15 201.8 296.6 201.75 L296.35 201.8 Q295.95 201.9 295.85 202.25 295.65 203.1 296.6 203.3 L296.95 203.15 Q297.35 202.95 297.35 202.45 L297.3 202.3 M294.45 202.4 L294.2 202.45 Q293.85 202.6 293.75 202.9 293.6 203.35 293.8 203.65 294.0 203.9 294.45 203.95 L294.8 203.8 295.25 203.15 295.2 202.95 Q295.05 202.45 294.45 202.4 M294.6 199.8 Q294.45 199.3 293.9 199.25 L293.65 199.3 Q293.25 199.4 293.15 199.75 292.95 200.65 293.9 200.8 L294.25 200.65 Q294.65 200.45 294.65 199.95 L294.6 199.8 M302.95 202.3 L302.9 202.15 Q302.75 201.6 302.2 201.55 L301.95 201.65 301.45 202.1 Q301.25 202.95 302.2 203.15 L302.55 203.0 Q302.95 202.75 302.95 202.3 M303.95 206.45 L303.9 206.3 Q303.6 205.8 302.95 205.9 L302.65 206.05 Q302.1 206.3 302.2 206.85 302.65 207.7 303.6 207.35 L303.95 206.9 303.95 206.45" fill="#ac8220" fill-rule="evenodd" stroke="none"/>
    <path d="M255.15 188.6 L255.25 188.35 283.2 198.3 283.25 205.15 283.25 207.75 282.8 206.65 Q283.25 210.45 283.35 214.35 L283.25 217.4 282.85 217.95 Q282.55 218.55 282.75 219.05 L280.55 217.45 280.1 217.2 280.05 217.15 272.75 212.55 272.75 212.5 272.65 212.55 Q272.3 212.05 268.9 210.85 L264.2 207.65 Q256.6 203.6 253.55 201.3 254.65 196.3 254.25 193.95 254.0 192.45 254.4 191.0 254.8 189.65 254.6 188.65 L255.0 188.55 255.15 188.6" fill="#e6c577" fill-rule="evenodd" stroke="none"/>
    <path d="M259.5 183.1 L260.05 182.9 260.4 183.0 260.35 182.55 Q263.35 180.9 266.55 179.7 L266.9 179.8 Q269.8 181.05 272.75 181.95 L273.35 182.85 273.8 183.6 274.1 183.3 Q274.05 182.75 274.35 182.4 L280.2 183.6 Q280.3 184.45 278.3 185.3 277.4 185.65 277.0 184.8 L275.25 186.0 Q274.55 186.3 274.1 185.6 273.65 184.85 273.65 184.3 273.2 184.85 271.95 185.35 271.25 185.6 270.85 184.95 L270.55 184.35 270.5 184.3 270.45 184.2 270.45 184.3 270.45 184.35 Q270.55 185.2 268.6 186.0 268.2 186.2 267.85 186.0 L267.45 185.6 267.4 185.5 267.3 185.6 267.55 185.75 267.8 186.05 267.95 186.5 267.85 186.8 267.55 187.3 Q266.6 187.9 265.95 187.0 L265.85 186.4 265.7 186.45 265.7 186.65 265.85 187.05 265.7 187.9 Q266.5 188.9 264.55 190.3 L263.55 190.45 Q263.75 190.85 262.8 190.8 L262.65 190.7 Q262.45 190.25 262.9 190.0 L263.0 190.0 262.55 189.35 Q261.65 189.7 261.0 188.75 L260.95 188.65 260.55 188.85 Q261.3 189.2 260.4 189.7 L260.25 189.75 Q259.5 189.3 259.85 189.0 259.35 189.05 259.0 188.55 L258.9 188.4 Q258.45 188.65 257.85 188.4 L257.65 188.3 257.4 188.3 257.25 188.25 257.2 188.1 Q256.6 188.25 256.25 187.65 255.0 185.65 257.0 184.9 257.35 184.45 258.2 184.2 258.45 183.6 259.5 183.1 M270.1 183.5 L270.0 183.55 270.2 183.75 270.1 183.5" fill="#dfb655" fill-rule="evenodd" stroke="none"/>
    <path d="M255.2 188.3 L255.15 188.6" fill="none" stroke="#674318" stroke-linecap="round" stroke-linejoin="round" stroke-width="2.0"/>
    <path d="M293.8 214.7 L304.2 210.3 304.2 193.3 300.55 193.35 Q296.75 193.55 296.2 194.3 294.0 197.25 292.2 197.3 L285.2 197.3 283.25 216.8 283.25 217.25 M255.2 188.3 L283.2 198.3 283.25 216.8" fill="none" stroke="#000000" stroke-linecap="round" stroke-linejoin="round" stroke-opacity="0.5019608" stroke-width="0.05"/>
    <path d="M263.2 184.0 L263.15 183.85 266.75 182.35 264.65 184.6 264.6 184.55 Q264.7 184.3 264.1 183.8 L263.9 183.9 Q263.55 184.05 263.5 184.35 L263.2 184.0" fill="#ebcb98" fill-rule="evenodd" stroke="none"/>
    <path d="M264.6 184.55 Q264.5 184.8 263.75 184.8 L263.7 184.8 263.4 185.0 Q263.7 185.5 262.65 185.55 L262.4 185.4 Q262.2 184.9 262.6 184.7 262.55 184.3 262.95 184.15 L263.2 184.0 263.5 184.35 Q263.55 184.05 263.9 183.9 L264.1 183.8 Q264.7 184.3 264.6 184.55 M273.25 186.4 L273.7 186.75 273.75 187.45 Q273.65 187.5 273.7 187.65 273.0 188.3 272.3 187.9 272.6 188.4 271.55 188.45 L271.3 188.3 Q271.1 187.75 271.65 187.5 L271.85 187.45 272.15 187.75 272.15 187.3 272.2 186.95 Q272.65 186.5 273.25 186.4 M278.85 186.95 L278.3 187.0 278.15 186.85 Q277.9 186.3 278.4 186.05 L278.65 186.0 Q279.55 186.75 278.85 186.95 M276.45 187.15 Q277.6 188.2 276.1 188.2 L275.9 188.1 Q275.65 187.5 276.2 187.3 L276.45 187.15 M276.2 186.0 Q277.35 186.95 275.85 187.0 L275.65 186.85 Q275.45 186.3 276.0 186.05 L276.2 186.0 M273.8 186.65 Q273.55 186.05 274.05 185.8 L274.3 185.7 Q275.5 186.75 273.95 186.75 L273.8 186.65 M274.05 187.75 L274.3 187.7 Q275.5 188.65 273.95 188.65 L273.8 188.55 Q273.55 187.95 274.05 187.75 M294.15 189.85 L294.25 189.85 294.45 189.8 294.7 190.0 Q295.45 190.8 294.15 190.75 L294.0 190.7 Q293.7 190.15 294.15 189.85 M293.05 191.25 Q294.25 192.25 292.7 192.2 L292.55 192.1 Q292.25 191.55 292.8 191.3 L293.05 191.25 M292.35 191.0 Q292.1 190.4 292.65 190.2 L292.9 190.05 Q293.8 190.9 293.05 191.05 L292.55 191.05 292.35 191.0 M288.2 194.15 Q287.95 193.55 288.5 193.3 L288.7 193.2 Q289.9 194.25 288.35 194.2 L288.2 194.15 M284.35 193.8 L284.55 193.65 Q285.75 194.7 284.25 194.7 L284.1 194.6 Q283.85 194.0 284.35 193.8 M285.95 192.5 Q287.15 193.5 285.6 193.5 L285.45 193.4 Q285.25 192.85 285.75 192.55 L285.95 192.5 M291.4 192.7 Q291.15 192.1 291.65 191.85 L291.9 191.75 292.3 192.2 Q292.7 192.75 291.55 192.75 L291.4 192.7 M291.15 194.35 Q290.9 193.8 291.45 193.55 L291.65 193.45 Q292.85 194.5 291.35 194.45 L291.15 194.35 M290.1 192.75 Q290.4 193.25 289.3 193.25 L289.15 193.15 Q288.9 192.55 289.45 192.35 L289.7 192.3 290.0 192.55 Q289.85 192.05 290.3 191.85 L290.5 191.75 Q291.7 192.8 290.2 192.75 L290.1 192.75 M290.45 194.8 L290.3 194.9 Q288.85 194.4 290.05 193.75 L290.05 193.65 Q291.3 193.95 290.45 194.8 M295.1 190.8 Q296.2 191.5 295.0 192.1 L294.75 192.05 Q294.2 191.4 294.9 190.9 294.95 190.8 295.1 190.8" fill="#fbf1ea" fill-rule="evenodd" stroke="none"/>
    <path d="M263.2 184.0 L262.95 184.15 Q262.55 184.3 262.6 184.7 262.2 184.9 262.4 185.4 L262.65 185.55 Q263.7 185.5 263.4 185.0 L263.7 184.8 263.75 184.8 Q264.5 184.8 264.6 184.55 L264.65 184.6 263.45 185.8 261.25 189.3 261.25 184.65 263.15 183.85 263.2 184.0 M273.25 186.4 Q272.65 186.5 272.2 186.95 L272.15 187.3 272.15 187.75 271.85 187.45 271.65 187.5 Q271.1 187.75 271.3 188.3 L271.55 188.45 Q272.6 188.4 272.3 187.9 273.0 188.3 273.7 187.65 273.65 187.5 273.75 187.45 L273.7 186.75 273.25 186.4 M268.95 188.15 L272.25 184.65 276.65 184.65 283.25 187.0 278.85 187.0 279.95 188.15 272.25 189.3 268.95 191.65 268.95 188.15 M274.05 187.75 Q273.55 187.95 273.8 188.55 L273.95 188.65 Q275.5 188.65 274.3 187.7 L274.05 187.75 M273.8 186.65 L273.95 186.75 Q275.5 186.75 274.3 185.7 L274.05 185.8 Q273.55 186.05 273.8 186.65 M276.2 186.0 L276.0 186.05 Q275.45 186.3 275.65 186.85 L275.85 187.0 Q277.35 186.95 276.2 186.0 M276.45 187.15 L276.2 187.3 Q275.65 187.5 275.9 188.1 L276.1 188.2 Q277.6 188.2 276.45 187.15 M278.85 186.95 Q279.55 186.75 278.65 186.0 L278.4 186.05 Q277.9 186.3 278.15 186.85 L278.3 187.0 278.85 186.95 M294.7 190.0 L296.45 190.5 297.55 190.5 292.05 195.15 282.15 196.3 283.25 192.8 290.95 191.65 292.05 189.3 294.15 189.85 Q293.7 190.15 294.0 190.7 L294.15 190.75 Q295.45 190.8 294.7 190.0 M295.1 190.8 Q294.95 190.8 294.9 190.9 294.2 191.4 294.75 192.05 L295.0 192.1 Q296.2 191.5 295.1 190.8 M290.45 194.8 Q291.3 193.95 290.05 193.65 L290.05 193.75 Q288.85 194.4 290.3 194.9 L290.45 194.8 M290.1 192.75 L290.2 192.75 Q291.7 192.8 290.5 191.75 L290.3 191.85 Q289.85 192.05 290.0 192.55 L289.7 192.3 289.45 192.35 Q288.9 192.55 289.15 193.15 L289.3 193.25 Q290.4 193.25 290.1 192.75 M291.15 194.35 L291.35 194.45 Q292.85 194.5 291.65 193.45 L291.45 193.55 Q290.9 193.8 291.15 194.35 M291.4 192.7 L291.55 192.75 Q292.7 192.75 292.3 192.2 L291.9 191.75 291.65 191.85 Q291.15 192.1 291.4 192.7 M285.95 192.5 L285.75 192.55 Q285.25 192.85 285.45 193.4 L285.6 193.5 Q287.15 193.5 285.95 192.5 M284.35 193.8 Q283.85 194.0 284.1 194.6 L284.25 194.7 Q285.75 194.7 284.55 193.65 L284.35 193.8 M288.2 194.15 L288.35 194.2 Q289.9 194.25 288.7 193.2 L288.5 193.3 Q287.95 193.55 288.2 194.15 M292.35 191.0 L292.55 191.05 293.05 191.05 Q293.8 190.9 292.9 190.05 L292.65 190.2 Q292.1 190.4 292.35 191.0 M293.05 191.25 L292.8 191.3 Q292.25 191.55 292.55 192.1 L292.7 192.2 Q294.25 192.25 293.05 191.25" fill="#d39e25" fill-rule="evenodd" stroke="none"/>
    <path d="M263.15 183.85 L261.25 184.65 261.25 189.3 263.45 185.8 264.65 184.6 266.75 182.35 263.15 183.85 M268.95 188.15 L272.25 184.65 276.65 184.65 283.25 187.0 278.85 187.0 279.95 188.15 272.25 189.3 268.95 191.65 268.95 188.15 M294.7 190.0 L296.45 190.5 297.55 190.5 292.05 195.15 282.15 196.3 283.25 192.8 290.95 191.65 292.05 189.3 294.15 189.85" fill="none" stroke="#000000" stroke-linecap="round" stroke-linejoin="round" stroke-opacity="0.5019608" stroke-width="0.05"/>
  </g>
</svg>
