<?xml version="1.0" encoding="UTF-8" standalone="no"?>
<svg xmlns:xlink="http://www.w3.org/1999/xlink" height="258.4px" width="336.2px" xmlns="http://www.w3.org/2000/svg">
  <g transform="matrix(1.0, 0.0, 0.0, 1.0, 0.75, 0.75)">
    <path d="M259.3 203.1 Q244.8 198.15 256.6 181.05 254.6 177.25 256.75 175.45 286.4 180.45 328.3 167.1 340.95 163.4 328.5 191.25 320.9 208.35 309.8 214.25 302.85 218.2 294.3 217.55 272.6 216.15 259.3 203.1 M28.85 167.95 Q19.15 170.35 10.7 165.75 7.4 163.95 6.25 160.55 4.4 155.3 8.0 146.15 13.75 131.15 17.0 135.85 27.35 151.7 40.05 156.7 40.15 158.0 38.05 159.15 36.0 169.35 28.85 167.95" fill="#000000" fill-rule="evenodd" stroke="none"/>
    <path d="M256.75 175.45 Q286.4 180.45 328.3 167.1 340.95 163.4 328.5 191.25 320.9 208.35 309.8 214.25 302.85 218.2 294.3 217.55 272.6 216.15 259.3 203.1 M40.05 156.7 Q27.35 151.7 17.0 135.85 13.75 131.15 8.0 146.15 4.4 155.3 6.25 160.55 7.4 163.95 10.7 165.75 19.15 170.35 28.85 167.95" fill="none" stroke="#827065" stroke-linecap="round" stroke-linejoin="round" stroke-opacity="0.48235294" stroke-width="1.5"/>
    <path d="M156.8 103.15 Q157.1 100.9 157.85 99.0 158.8 97.2 160.35 95.7 163.5 92.8 169.35 89.15 175.3 85.5 179.75 84.7 184.3 83.9 190.05 87.95 195.5 91.75 198.15 96.7 L198.45 97.3 Q201.05 102.6 200.7 106.5 197.85 108.2 185.15 108.25 172.5 108.25 166.4 106.35 L156.8 103.15" fill="#704221" fill-rule="evenodd" stroke="none"/>
    <path d="M214.2 117.45 Q232.35 109.55 236.8 106.95 241.3 104.0 257.3 91.85 288.35 61.85 319.2 31.35 324.4 30.4 327.4 33.55 330.45 52.8 321.8 95.9 L313.7 133.3 Q309.95 149.0 303.0 153.85 297.4 157.35 287.25 161.2 221.35 139.35 214.2 117.45 M246.85 130.75 Q278.0 140.4 278.15 128.85 287.25 94.0 315.95 46.75 287.25 94.0 278.15 128.85 278.0 140.4 246.85 130.75" fill="#000000" fill-rule="evenodd" stroke="none"/>
    <path d="M214.2 117.45 Q232.35 109.55 236.8 106.95 241.3 104.0 257.3 91.85 288.35 61.85 319.2 31.35 324.4 30.4 327.4 33.55 330.45 52.8 321.8 95.9 L313.7 133.3 Q309.95 149.0 303.0 153.85 297.4 157.35 287.25 161.2 M315.95 46.75 Q287.25 94.0 278.15 128.85 278.0 140.4 246.85 130.75" fill="none" stroke="#827065" stroke-linecap="round" stroke-linejoin="round" stroke-opacity="0.48235294" stroke-width="1.5"/>
    <path d="M70.0 118.5 Q69.1 116.45 68.85 114.45 68.75 112.4 69.4 110.35 70.7 106.2 74.1 100.05 77.45 93.95 81.0 91.0 84.6 88.0 91.7 88.55 98.3 89.1 103.05 92.05 L103.6 92.4 Q108.55 95.65 110.1 99.2 108.45 102.15 97.35 108.6 86.25 115.0 80.0 116.45 L70.0 118.5" fill="#704221" fill-rule="evenodd" stroke="none"/>
    <path d="M57.55 52.55 Q58.75 59.55 61.8 68.45 68.9 90.6 84.55 124.35 87.55 135.0 77.65 136.0 67.15 136.05 62.75 127.45 46.1 89.95 38.6 68.15 32.85 51.85 32.2 44.0 32.9 45.7 34.55 46.85 37.4 48.9 44.85 46.15 46.75 44.4 48.4 43.7 53.35 45.35 56.45 44.45 56.8 48.4 57.55 52.55" fill="#000000" fill-rule="evenodd" stroke="none"/>
    <path d="M32.2 44.0 Q32.85 51.85 38.6 68.15 46.1 89.95 62.75 127.45 67.15 136.05 77.65 136.0 87.55 135.0 84.55 124.35 68.9 90.6 61.8 68.45 58.75 59.55 57.55 52.55" fill="none" stroke="#504630" stroke-linecap="round" stroke-linejoin="round" stroke-width="1.5"/>
    <path d="M36.75 13.35 Q44.4 3.7 49.75 0.05 57.85 -0.8 72.6 11.4 88.85 22.8 77.65 30.8 76.55 30.95 74.0 32.0 65.4 39.0 58.45 46.2 56.95 47.05 57.1 48.1 56.95 47.05 58.45 46.2 65.4 39.0 74.0 32.0 77.1 36.9 78.65 42.7 84.8 59.1 72.35 59.65 L58.75 60.45 Q57.65 54.05 57.1 48.1 52.45 49.45 44.85 47.0 42.3 47.95 39.5 50.65 28.15 54.8 23.8 51.75 21.3 50.0 20.3 47.45 2.35 26.5 0.0 16.5 0.15 10.95 14.95 4.55 30.95 -1.0 36.4 11.2 L36.75 13.35 Q41.55 25.05 47.9 36.05 50.35 40.5 44.85 47.0 50.35 40.5 47.9 36.05 41.55 25.05 36.75 13.35" fill="#000000" fill-rule="evenodd" stroke="none"/>
    <path d="M74.0 32.0 Q76.55 30.95 77.65 30.8 88.85 22.8 72.6 11.4 57.85 -0.8 49.75 0.05 44.4 3.7 36.75 13.35 41.55 25.05 47.9 36.05 50.35 40.5 44.85 47.0 52.45 49.45 57.1 48.1 56.95 47.05 58.45 46.2 65.4 39.0 74.0 32.0 77.1 36.9 78.65 42.7 84.8 59.1 72.35 59.65 L58.75 60.45 M36.75 13.35 L36.4 11.2 Q30.95 -1.0 14.95 4.55 0.15 10.95 0.0 16.5 2.35 26.5 20.3 47.45 21.3 50.0 23.8 51.75 28.15 54.8 39.5 50.65 42.3 47.95 44.85 47.0" fill="none" stroke="#827065" stroke-linecap="round" stroke-linejoin="round" stroke-opacity="0.48235294" stroke-width="1.5"/>
    <path d="M58.75 60.45 Q57.65 54.05 57.1 48.1" fill="none" stroke="#504630" stroke-linecap="round" stroke-linejoin="round" stroke-width="1.5"/>
    <path d="M64.55 109.5 Q25.65 150.15 130.6 145.5 166.5 143.6 202.6 127.5 274.5 178.8 292.6 161.85 298.65 169.25 304.6 177.55 308.95 189.55 310.8 199.55 313.6 215.0 310.4 225.7 L312.2 226.05 310.35 225.85 Q275.2 226.15 262.55 231.45 278.8 219.9 274.6 217.5 207.2 185.25 148.6 217.5 42.4 177.6 45.05 213.55 -0.95 182.85 22.6 146.35 33.1 130.05 57.55 112.55 61.05 110.95 64.55 109.5 M310.4 225.7 L310.35 225.85 310.4 225.7" fill="#ce9957" fill-rule="evenodd" stroke="none"/>
    <path d="M292.6 161.85 Q274.5 178.8 202.6 127.5 166.5 143.6 130.6 145.5 25.65 150.15 64.55 109.5 138.0 78.85 211.6 103.0 254.55 115.25 292.6 161.85" fill="#c67d50" fill-rule="evenodd" stroke="none"/>
    <path d="M45.05 213.55 Q42.4 177.6 148.6 217.5 207.2 185.25 274.6 217.5 278.8 219.9 262.55 231.45 275.2 226.15 310.35 225.85 306.55 238.05 294.75 244.0 154.55 280.55 45.05 213.55" fill="#e4c99c" fill-rule="evenodd" stroke="none"/>
    <path d="M292.6 161.85 Q254.55 115.25 211.6 103.0 138.0 78.85 64.55 109.5 61.05 110.95 57.55 112.55 33.1 130.05 22.6 146.35 -0.95 182.85 45.05 213.55 154.55 280.55 294.75 244.0 306.55 238.05 310.35 225.85 L310.4 225.7 Q313.6 215.0 310.8 199.55 308.95 189.55 304.6 177.55 298.65 169.25 292.6 161.85 Z" fill="none" stroke="#000000" stroke-linecap="round" stroke-linejoin="round" stroke-opacity="0.5019608" stroke-width="1.5"/>
    <path d="M201.75 119.2 L201.9 119.9 Q203.35 125.65 202.35 130.0 199.45 132.2 188.25 133.25 177.0 134.4 171.9 132.8 L163.9 129.95 Q164.5 127.4 165.5 125.2 183.55 130.1 201.75 119.2" fill="#704221" fill-rule="evenodd" stroke="none"/>
    <path d="M165.5 125.2 Q166.7 123.1 168.3 121.35 171.55 117.8 177.45 113.2 183.3 108.6 187.45 107.35 191.6 106.05 196.0 110.1 200.2 113.9 201.75 119.2 183.55 130.1 165.5 125.2" fill="#9a5023" fill-rule="evenodd" stroke="none"/>
    <path d="M235.35 175.2 Q225.65 180.5 209.4 180.5 193.15 180.5 179.85 175.2 166.65 169.95 164.15 162.5 161.65 155.05 171.35 149.75 181.1 144.5 197.35 144.5 213.6 144.5 226.85 149.75 240.1 155.05 242.6 162.5 245.1 169.95 235.35 175.2" fill="#c67d50" fill-rule="evenodd" stroke="none"/>
  </g>
</svg>
