<?xml version="1.0" encoding="UTF-8" standalone="no"?>
<svg xmlns:xlink="http://www.w3.org/1999/xlink" height="437.65px" width="229.7px" xmlns="http://www.w3.org/2000/svg">
  <g transform="matrix(1.0, 0.0, 0.0, 1.0, -126.05, -13.35)">
    <path d="M239.0 77.15 Q240.05 77.45 239.05 78.5 L239.0 77.15" fill="#660000" fill-rule="evenodd" stroke="none"/>
    <path d="M295.0 29.95 Q290.25 32.45 284.4 34.25 289.95 31.8 295.0 29.95" fill="#330000" fill-rule="evenodd" stroke="none"/>
    <path d="M156.95 367.35 Q160.5 369.65 163.7 371.0 L149.45 416.25 Q149.75 412.8 149.3 410.95 L156.95 367.35" fill="#996633" fill-rule="evenodd" stroke="none"/>
    <path d="M163.7 371.0 Q166.15 372.05 168.35 372.6 L157.1 411.55 Q155.8 415.35 154.95 418.85 L154.0 423.0 153.65 434.75 Q147.2 428.25 142.5 438.4 L149.45 416.25 163.7 371.0" fill="#ffff99" fill-rule="evenodd" stroke="none"/>
    <path d="M179.15 90.65 Q175.35 95.65 166.0 113.1 169.55 102.2 179.15 90.65" fill="#000000" fill-rule="evenodd" stroke="none"/>
    <path d="M308.75 108.5 Q330.2 30.9 338.1 53.0 L338.1 65.05 Q326.3 85.25 338.1 129.05 283.05 143.8 275.6 202.4 270.15 202.15 246.95 239.0 214.95 267.8 196.6 322.55 217.65 254.15 212.85 253.45 215.4 251.95 224.05 249.2 253.35 239.75 248.05 213.05 294.65 158.9 305.1 122.05 L308.75 108.5 M242.55 56.8 Q270.05 59.4 312.3 49.45 257.0 64.25 314.1 86.05 242.2 83.0 241.05 132.05 224.55 154.45 226.05 185.9 192.2 110.55 164.05 130.05 163.05 121.8 166.0 113.1 176.6 127.1 186.05 105.1 185.65 95.85 197.05 91.5 218.05 85.8 226.05 79.0 236.85 76.5 239.0 77.15 238.75 67.5 242.55 56.8 222.5 64.45 208.55 79.45 191.65 80.4 184.9 83.2 199.9 50.1 229.05 49.0 232.0 57.35 242.55 56.8 M239.0 77.15 L239.05 78.5 Q240.05 77.45 239.0 77.15" fill="#ff9999" fill-rule="evenodd" stroke="none"/>
    <path d="M179.15 90.65 L180.15 89.4 Q180.4 85.0 184.9 83.2 191.65 80.4 208.55 79.45 222.5 64.45 242.55 56.8 238.75 67.5 239.0 77.15 236.85 76.5 226.05 79.0 218.05 85.8 197.05 91.5 185.65 95.85 186.05 105.1 176.6 127.1 166.0 113.1 175.35 95.65 179.15 90.65 M224.05 249.2 Q237.45 227.45 237.55 221.05 249.45 204.9 257.05 180.55 277.85 163.15 291.65 135.25 297.35 123.7 308.75 108.5 L305.1 122.05 Q294.65 158.9 248.05 213.05 253.35 239.75 224.05 249.2 M191.0 292.0 Q180.65 317.55 182.05 343.1 160.85 331.65 145.0 358.0 128.7 342.0 145.0 326.0 L191.0 292.0 M168.35 372.6 Q172.15 373.45 175.25 372.65 162.55 395.05 157.1 411.55 L168.35 372.6 M156.95 367.35 L149.3 410.95 Q147.05 401.95 126.05 431.1 L156.95 367.35" fill="#ffffcc" fill-rule="evenodd" stroke="none"/>
    <path d="M275.6 202.4 Q283.05 143.8 338.1 129.05 326.3 85.25 338.1 65.05 L338.1 53.0 Q330.2 30.9 308.75 108.5 297.35 123.7 291.65 135.25 277.85 163.15 257.05 180.55 249.45 204.9 237.55 221.05 237.45 227.45 224.05 249.2 215.4 251.95 212.85 253.45 217.65 254.15 196.6 322.55 L195.1 327.35 194.8 328.3 193.3 333.35 186.0 358.0 Q182.9 370.6 175.25 372.65 172.15 373.45 168.35 372.6 166.15 372.05 163.7 371.0 160.5 369.65 156.95 367.35 151.45 363.75 145.0 358.0 160.85 331.65 182.05 343.1 180.65 317.55 191.0 292.0 L201.5 253.5 203.0 248.0 Q225.35 190.8 166.5 158.7 146.05 136.9 156.05 116.5 L166.0 113.1 Q163.05 121.8 164.05 130.05 192.2 110.55 226.05 185.9 224.55 154.45 241.05 132.05 242.2 83.0 314.1 86.05 257.0 64.25 312.3 49.45 270.05 59.4 242.55 56.8 L242.55 43.5 263.95 38.0 Q271.3 37.35 277.55 36.0 L278.7 35.75 284.4 34.25 Q290.25 32.45 295.0 29.95 311.9 23.65 323.1 24.0 336.95 36.75 323.1 45.5 340.55 38.1 343.1 45.5 356.8 88.6 343.1 107.55 L351.6 123.25 Q346.9 141.3 336.95 156.0 317.65 165.15 275.6 202.4 M314.1 49.0 L312.3 49.45 314.1 49.0" fill="#ffcccc" fill-rule="evenodd" stroke="none"/>
    <path d="M351.6 123.25 L343.1 107.55 Q356.8 88.6 343.1 45.5 340.55 38.1 323.1 45.5 336.95 36.75 323.1 24.0 311.9 23.65 295.0 29.95 305.45 24.25 309.95 15.0 357.35 6.1 350.95 45.0 360.25 89.85 351.6 123.25 M263.95 38.0 L242.55 43.5 242.55 56.8 Q232.0 57.35 229.05 49.0 199.9 50.1 184.9 83.2 180.4 85.0 180.15 89.4 L179.15 90.65 Q169.55 102.2 166.0 113.1 L156.05 116.5 Q146.05 136.9 166.5 158.7 161.1 155.75 155.0 153.0 129.15 109.1 171.0 67.0 202.05 14.75 263.95 38.0" fill="#ffcc99" fill-rule="evenodd" stroke="none"/>
    <path d="M308.75 108.5 Q330.2 30.9 338.1 53.0 L338.1 65.05 Q326.3 85.25 338.1 129.05 283.05 143.8 275.6 202.4 317.65 165.15 336.95 156.0 346.9 141.3 351.6 123.25 L343.1 107.55 Q356.8 88.6 343.1 45.5 340.55 38.1 323.1 45.5 336.95 36.75 323.1 24.0 311.9 23.65 295.0 29.95 290.25 32.45 284.4 34.25 L278.7 35.75 277.55 36.0 Q271.3 37.35 263.95 38.0 L242.55 43.5 242.55 56.8 Q270.05 59.4 312.3 49.45 L314.1 49.0 M351.6 123.25 Q360.25 89.85 350.95 45.0 357.35 6.1 309.95 15.0 305.45 24.25 295.0 29.95 289.95 31.8 284.4 34.25 M166.0 113.1 Q163.05 121.8 164.05 130.05 192.2 110.55 226.05 185.9 224.55 154.45 241.05 132.05 242.2 83.0 314.1 86.05 257.0 64.25 312.3 49.45 M184.9 83.2 Q180.4 85.0 180.15 89.4 L179.15 90.65 Q175.35 95.65 166.0 113.1 176.6 127.1 186.05 105.1 185.65 95.85 197.05 91.5 218.05 85.8 226.05 79.0 236.85 76.5 239.0 77.15 238.75 67.5 242.55 56.8 222.5 64.45 208.55 79.45 191.65 80.4 184.9 83.2 199.9 50.1 229.05 49.0 232.0 57.35 242.55 56.8 M239.0 77.15 Q240.05 77.45 239.05 78.5 L239.0 77.15 M308.75 108.5 Q297.35 123.7 291.65 135.25 277.85 163.15 257.05 180.55 249.45 204.9 237.55 221.05 237.45 227.45 224.05 249.2 253.35 239.75 248.05 213.05 294.65 158.9 305.1 122.05 L308.75 108.5 M179.15 90.65 Q169.55 102.2 166.0 113.1 L156.05 116.5 Q146.05 136.9 166.5 158.7 225.35 190.8 203.0 248.0 L201.5 253.5 191.0 292.0 Q180.65 317.55 182.05 343.1 160.85 331.65 145.0 358.0 151.45 363.75 156.95 367.35 160.5 369.65 163.7 371.0 166.15 372.05 168.35 372.6 172.15 373.45 175.25 372.65 182.9 370.6 186.0 358.0 L193.3 333.35 194.8 328.3 195.1 327.35 196.6 322.55 Q217.65 254.15 212.85 253.45 215.4 251.95 224.05 249.2 M263.95 38.0 Q202.05 14.75 171.0 67.0 129.15 109.1 155.0 153.0 161.1 155.75 166.5 158.7 M156.95 367.35 L149.3 410.95 Q149.75 412.8 149.45 416.25 L163.7 371.0 M191.0 292.0 L145.0 326.0 Q128.7 342.0 145.0 358.0 M196.6 322.55 Q214.95 267.8 246.95 239.0 270.15 202.15 275.6 202.4 M157.1 411.55 Q155.8 415.35 154.95 418.85 L154.0 423.0 153.65 434.75 Q147.2 428.25 142.5 438.4 L138.5 451.0 Q140.3 443.0 142.5 438.4 L149.45 416.25 M156.95 367.35 L126.05 431.1 Q147.05 401.95 149.3 410.95 M168.35 372.6 L157.1 411.55 Q162.55 395.05 175.25 372.65" fill="none" stroke="#000000" stroke-linecap="round" stroke-linejoin="round" stroke-opacity="0.4" stroke-width="0.05"/>
  </g>
</svg>
