<?xml version="1.0" encoding="UTF-8" standalone="no"?>
<svg xmlns:xlink="http://www.w3.org/1999/xlink" height="34.1px" width="15.85px" xmlns="http://www.w3.org/2000/svg">
  <g transform="matrix(1.0, 0.0, 0.0, 1.0, -279.6, -177.3)">
    <path d="M290.5 191.25 L290.5 191.3 290.5 191.25" fill="#336699" fill-rule="evenodd" stroke="none"/>
    <path d="M295.35 206.9 L295.4 206.95 295.45 206.95 295.35 206.95 295.35 206.9 M293.65 206.9 L292.95 206.9 293.65 206.85 293.65 206.9 M279.65 204.45 L279.65 203.95 279.65 204.45" fill="#555ba0" fill-rule="evenodd" stroke="none"/>
    <path d="M290.55 207.35 L290.5 207.4 290.55 207.35" fill="#43487e" fill-rule="evenodd" stroke="none"/>
    <path d="M290.7 193.45 L290.85 194.9 290.85 195.0 Q290.95 197.05 291.3 198.85 L290.15 198.95 289.95 198.35 290.15 198.95 288.3 199.15 287.35 199.25 287.2 197.9 287.05 196.7 286.85 194.75 286.7 193.15 287.8 192.8 288.75 192.45 290.15 192.0 290.7 193.45 M290.3 207.65 L290.25 207.75 290.15 208.2 290.15 208.4 Q289.95 209.35 289.1 209.65 L289.05 209.65 288.85 209.1 288.6 208.3 289.9 207.2 290.3 207.65 M287.8 196.65 L287.05 196.7 287.8 196.65 M288.0 197.8 L287.2 197.9 288.0 197.8 M288.35 198.45 L288.3 199.15 288.35 198.45 M288.0 193.45 L287.8 192.8 288.0 193.45 M288.85 193.5 L288.75 192.45 288.85 193.5 M288.85 209.1 L289.3 208.85 288.85 209.1" fill="#767c2c" fill-rule="evenodd" stroke="none"/>
    <path d="M283.05 193.4 L283.75 193.95 283.35 194.55 283.3 194.6 282.85 195.3 282.45 195.95 281.8 195.35 281.1 194.75 281.15 194.7 281.8 193.7 282.35 192.85 283.05 193.4 M282.35 194.9 L282.85 195.3 282.35 194.9" fill="#f8a51d" fill-rule="evenodd" stroke="none"/>
    <path d="M287.4 205.95 L286.85 206.15 286.55 204.3 286.55 204.25 286.5 204.2 286.2 202.35 286.8 202.15 288.05 201.8 288.45 203.1 287.9 203.4 288.45 203.1 288.7 204.05 288.75 204.15 289.1 205.45 288.2 205.7 287.4 205.95 287.25 204.8 287.4 205.95 M286.9 202.7 L286.8 202.15 286.9 202.7 M288.2 205.7 L287.9 205.05 288.2 205.7" fill="#61a9a9" fill-rule="evenodd" stroke="none"/>
    <path d="M288.65 177.3 Q289.6 178.45 289.95 179.9 L289.95 180.05 290.0 180.15 290.25 186.1 Q286.85 183.65 282.75 182.8 L282.05 182.2 280.9 180.85 281.15 180.8 284.8 180.9 Q288.25 181.0 288.65 177.3 M290.35 188.45 L290.5 191.25 290.5 191.3 290.55 191.85 290.6 192.5 290.7 193.45 290.15 192.0 290.55 191.85 290.15 192.0 290.5 191.3 290.15 192.0 288.75 192.45 287.8 192.8 287.5 191.75 287.8 192.8 286.7 193.15 286.85 194.75 287.05 196.7 286.5 196.7 287.05 196.7 287.2 197.9 287.35 199.25 288.3 199.15 290.15 198.95 291.3 198.85 292.3 202.45 Q293.05 204.5 294.2 206.0 L295.35 206.9 295.35 206.95 293.65 206.9 293.65 206.85 Q291.25 204.85 290.15 202.45 289.5 201.0 289.25 199.45 289.05 201.0 289.15 202.45 L289.3 203.75 288.7 204.05 289.3 203.75 Q289.6 205.65 290.5 207.4 L290.4 207.4 290.3 207.65 289.9 207.2 288.6 208.3 288.85 209.1 289.05 209.65 287.65 209.8 287.55 209.8 Q286.15 207.2 285.55 202.45 285.1 198.9 285.05 194.25 283.8 198.5 283.4 202.45 282.95 206.55 283.4 210.25 L283.2 210.4 282.55 210.7 282.25 210.35 Q279.95 207.75 279.65 204.45 L279.75 203.2 279.75 202.45 280.4 195.85 280.75 192.5 280.85 191.3 281.05 188.45 281.05 186.3 282.35 189.45 282.4 189.45 Q285.55 191.55 289.25 190.05 290.05 189.5 290.35 188.45 M288.65 191.55 L288.75 192.45 288.65 191.55 M286.85 194.75 L286.0 194.75 286.85 194.75 M286.8 202.15 L286.2 202.35 286.5 204.2 286.55 204.25 286.55 204.3 286.85 206.15 287.4 205.95 287.5 206.75 287.4 205.95 288.2 205.7 289.1 205.45 288.75 204.15 288.7 204.05 288.45 203.1 288.05 201.8 286.8 202.15 286.7 201.45 286.8 202.15 M288.45 206.3 L288.2 205.7 288.45 206.3 M288.2 200.05 L288.3 199.15 288.2 200.05 M290.4 199.8 L290.15 198.95 290.4 199.8 M283.7 194.95 L283.3 194.6 283.7 194.95 M282.85 195.3 L283.3 194.6 283.35 194.55 283.75 193.95 283.05 193.4 282.35 192.85 281.8 193.7 281.15 194.7 281.1 194.75 281.8 195.35 282.45 195.95 282.85 195.3 283.35 195.65 282.85 195.3 M281.5 195.9 L281.8 195.35 281.5 195.9 M283.3 192.75 L283.05 193.4 283.3 192.75" fill="#2b605a" fill-rule="evenodd" stroke="none"/>
    <path d="M290.25 186.1 L290.3 187.05 290.3 187.25 290.35 188.45 Q290.05 189.5 289.25 190.05 285.55 191.55 282.4 189.45 L282.35 189.45 281.05 186.3 281.05 185.85 280.7 182.1 280.5 180.95 280.9 180.85 282.05 182.2 282.75 182.8 Q286.85 183.65 290.25 186.1 M292.95 206.9 L290.55 207.35 290.5 207.4 Q289.6 205.65 289.3 203.75 L289.15 202.45 Q289.05 201.0 289.25 199.45 289.5 201.0 290.15 202.45 291.25 204.85 293.65 206.85 L292.95 206.9 M287.55 209.8 L286.05 209.8 Q284.3 209.75 283.4 210.25 282.95 206.55 283.4 202.45 283.8 198.5 285.05 194.25 285.1 198.9 285.55 202.45 286.15 207.2 287.55 209.8" fill="#1e4440" fill-rule="evenodd" stroke="none"/>
    <path d="M282.55 210.7 L283.2 211.35 283.25 211.4 282.05 211.4 Q280.55 211.25 279.6 210.5 L279.65 204.45 Q279.95 207.75 282.25 210.35 L282.55 210.7" fill="#48a297" fill-rule="evenodd" stroke="none"/>
    <path d="M288.65 177.3 Q289.6 178.45 289.95 179.9 L289.95 180.05 290.0 180.15 290.25 186.1 290.3 187.05 290.3 187.25 290.35 188.45 290.5 191.25 290.5 191.3 290.55 191.85 290.6 192.5 290.7 193.45 290.85 194.9 290.85 195.0 Q290.95 197.05 291.3 198.85 L292.3 202.45 Q293.05 204.5 294.2 206.0 L295.35 206.9 295.4 206.95 295.45 206.95 295.35 206.95 293.65 206.9 292.95 206.9 290.55 207.35 290.5 207.4 290.4 207.4 290.3 207.65 290.25 207.75 290.15 208.2 290.15 208.4 Q289.95 209.35 289.1 209.65 L289.05 209.65 287.65 209.8 287.55 209.8 286.05 209.8 Q284.3 209.75 283.4 210.25 L283.2 210.4 282.55 210.7 283.2 211.35 283.25 211.4 282.05 211.4 Q280.55 211.25 279.6 210.5 M282.55 210.7 L282.25 210.35 Q279.95 207.75 279.65 204.45" fill="none" stroke="#0f121c" stroke-linecap="round" stroke-linejoin="round" stroke-width="0.05"/>
    <path d="M287.5 191.75 L287.8 192.8 288.75 192.45 288.65 191.55 M290.55 191.85 L290.15 192.0 290.7 193.45 M290.15 192.0 L290.5 191.3 290.5 191.25 M288.75 192.45 L290.15 192.0 M290.15 198.95 L291.3 198.85 M287.8 192.8 L286.7 193.15 286.85 194.75 287.05 196.7 287.8 196.65 M286.0 194.75 L286.85 194.75 M286.5 196.7 L287.05 196.7 287.2 197.9 288.0 197.8 M287.2 197.9 L287.35 199.25 288.3 199.15 288.35 198.45 M287.4 205.95 L286.85 206.15 286.55 204.3 286.55 204.25 286.5 204.2 286.2 202.35 286.8 202.15 286.7 201.45 M288.7 204.05 L288.75 204.15 289.1 205.45 288.2 205.7 288.45 206.3 M287.9 203.4 L288.45 203.1 288.05 201.8 286.8 202.15 286.9 202.7 M288.45 203.1 L288.7 204.05 289.3 203.75 M290.15 198.95 L289.95 198.35 M288.3 199.15 L290.15 198.95 290.4 199.8 M288.3 199.15 L288.2 200.05 M288.75 192.45 L288.85 193.5 M287.8 192.8 L288.0 193.45 M289.05 209.65 L288.85 209.1 288.6 208.3 289.9 207.2 290.3 207.65 M287.4 205.95 L287.5 206.75 M289.3 208.85 L288.85 209.1 M288.2 205.7 L287.4 205.95 287.25 204.8 M287.9 205.05 L288.2 205.7 M283.3 194.6 L283.7 194.95 M283.05 193.4 L283.75 193.95 283.35 194.55 283.3 194.6 282.85 195.3 283.35 195.65 M281.8 195.35 L281.5 195.9 M283.05 193.4 L282.35 192.85 281.8 193.7 281.15 194.7 281.1 194.75 281.8 195.35 282.45 195.95 282.85 195.3 282.35 194.9 M283.05 193.4 L283.3 192.75" fill="none" stroke="#000000" stroke-linecap="round" stroke-linejoin="round" stroke-opacity="0.3529412" stroke-width="0.05"/>
    <path d="M291.4 180.25 Q293.15 184.05 292.3 186.1 291.4 188.1 288.95 188.65 L284.85 188.35 Q283.15 187.5 282.45 185.6 281.75 183.65 281.7 181.75 281.6 179.8 285.2 180.9 288.8 182.0 289.25 179.25 289.65 176.5 291.4 180.25" fill="#2b605a" fill-rule="evenodd" stroke="none"/>
    <path d="M291.4 180.25 Q293.15 184.05 292.3 186.1 291.4 188.1 288.95 188.65 L284.85 188.35 Q283.15 187.5 282.45 185.6 281.75 183.65 281.7 181.75 281.6 179.8 285.2 180.9 288.8 182.0 289.25 179.25 289.65 176.5 291.4 180.25 Z" fill="none" stroke="#000000" stroke-linecap="round" stroke-linejoin="round" stroke-width="0.05"/>
    <path d="M292.3 186.15 Q291.4 188.2 288.95 188.7 L284.85 188.4 Q283.15 187.6 282.45 185.7 281.75 183.75 281.7 181.85 281.65 181.0 282.3 180.75 L282.75 182.1 Q283.45 184.05 285.1 184.85 L289.25 185.15 Q291.45 184.65 292.35 183.0 292.8 184.9 292.3 186.15" fill="#1e4440" fill-rule="evenodd" stroke="none"/>
  </g>
</svg>
