<?xml version="1.0" encoding="UTF-8" standalone="no"?>
<svg xmlns:xlink="http://www.w3.org/1999/xlink" height="111.9px" width="129.2px" xmlns="http://www.w3.org/2000/svg">
  <g transform="matrix(1.0, 0.0, 0.0, 1.0, -162.95, -149.4)">
    <path d="M201.45 159.1 L202.95 155.55 Q203.45 154.4 205.0 152.55 206.5 150.65 208.95 151.5 L209.7 151.85 209.7 151.75 209.75 151.8 Q211.05 152.4 211.8 153.45 L212.25 154.1 212.3 154.2 Q213.1 155.8 214.0 159.35 L215.25 158.6 Q216.85 157.65 218.65 156.85 L222.2 155.3 Q226.15 153.75 229.85 152.95 L231.9 152.6 239.75 152.25 Q242.55 152.45 244.6 153.15 245.45 153.4 246.2 153.8 L250.9 152.65 253.25 152.3 262.1 151.95 267.6 152.8 Q270.9 153.75 272.55 155.7 L273.5 157.1 Q274.15 158.45 274.05 159.95 274.1 161.55 273.25 163.35 272.2 165.45 269.85 167.8 264.0 173.5 253.4 177.05 L250.35 178.0 245.15 179.2 240.95 179.85 233.1 180.1 Q229.45 179.85 226.95 179.0 L226.35 179.15 228.1 179.55 228.55 179.65 228.15 179.6 226.35 179.15 224.05 179.7 223.3 179.85 220.85 180.2 220.75 181.15 Q226.85 181.2 231.8 182.95 241.75 185.55 244.2 189.15 252.55 187.6 261.4 188.2 L266.8 190.3 268.5 186.65 Q272.1 179.25 276.15 173.25 280.1 167.3 281.7 165.65 283.25 164.0 284.35 163.25 285.4 162.5 287.65 161.95 L289.1 162.0 289.7 162.6 290.0 163.7 290.0 166.25 Q289.8 169.05 288.75 173.3 L288.2 175.4 285.2 184.65 282.05 187.45 285.6 185.15 288.75 175.55 Q290.4 172.9 290.3 178.25 L290.05 182.45 289.6 185.2 287.85 189.85 286.5 193.05 Q283.45 196.0 282.1 198.1 L286.7 193.45 288.45 189.25 Q288.7 189.1 287.35 194.55 L285.4 201.1 283.4 204.6 281.9 206.0 280.6 206.65 Q278.55 207.6 276.5 207.85 274.35 208.05 273.85 207.25 274.7 206.9 276.1 203.75 277.5 200.7 277.65 199.15 277.9 192.9 276.3 194.45 277.1 193.8 277.25 196.8 277.6 200.6 275.3 204.75 L274.1 206.2 272.7 207.35 272.1 207.75 271.65 208.0 Q269.55 208.95 267.1 206.85 L266.85 206.7 266.8 206.7 265.25 205.5 Q263.85 208.0 264.1 210.85 L264.35 212.45 Q264.65 213.9 265.4 215.5 L265.25 215.45 265.4 215.85 Q260.15 214.75 256.6 214.9 L254.4 215.15 Q252.4 215.55 251.2 216.4 248.1 217.9 245.45 220.45 L245.6 220.9 251.15 217.05 Q252.05 216.45 253.25 216.15 L253.1 216.15 253.25 216.1 253.9 216.0 259.85 215.8 264.4 216.55 Q272.25 218.6 275.2 224.3 278.3 229.1 277.75 239.25 L273.9 244.55 278.35 239.75 279.65 246.05 282.55 251.5 Q273.8 258.9 266.9 259.0 257.1 260.05 248.15 258.55 L240.2 256.6 234.3 252.75 235.2 241.5 233.75 248.75 229.45 245.15 232.55 237.8 231.95 236.15 223.95 236.85 Q224.5 231.7 221.6 229.15 223.15 234.5 220.3 239.0 203.9 244.95 181.95 246.25 167.0 243.95 164.8 239.35 L167.0 232.2 165.35 226.05 169.9 225.05 174.5 227.35 Q167.75 223.4 167.35 214.05 172.05 204.35 181.15 202.55 190.25 200.6 195.7 203.05 L202.75 207.3 198.15 203.3 Q204.1 205.55 207.6 200.25 209.35 198.1 208.9 196.0 L205.15 196.7 205.1 196.7 205.0 196.7 204.95 196.7 203.45 196.45 Q199.65 195.05 198.1 191.25 197.3 189.95 197.2 182.5 197.1 175.0 198.75 168.25 200.45 161.45 201.45 159.1 M227.95 160.55 L226.35 161.0 222.65 162.3 Q220.45 163.25 218.55 164.55 L218.15 164.85 218.8 166.3 Q219.6 168.2 219.45 169.5 219.3 170.3 219.4 171.35 L219.9 171.25 221.3 171.05 Q221.55 169.7 222.45 168.3 223.45 166.6 225.25 164.85 L225.55 164.55 Q227.8 162.3 230.75 160.4 L231.95 159.65 231.7 159.7 229.65 160.15 227.95 160.55 M215.3 171.1 L215.25 167.15 215.75 166.7 215.9 171.4 215.3 171.35 215.3 171.1 M218.35 180.45 L218.2 180.45 218.0 181.25 218.1 181.2 218.35 180.45 M211.15 190.5 Q219.1 194.05 221.95 194.25 L230.1 193.4 228.2 194.25 222.2 194.4 222.05 194.4 222.0 194.4 218.45 193.8 218.25 193.75 214.8 192.45 211.15 190.65 211.15 190.5 M264.15 158.9 L263.25 160.1 261.5 161.6 259.4 163.1 259.0 163.45 Q254.45 167.05 247.65 169.15 L244.7 170.0 246.6 168.1 Q248.7 165.75 249.6 163.65 250.4 161.85 250.35 160.2 L250.35 159.9 250.7 159.85 253.0 159.4 258.6 158.85 258.75 158.9 262.75 159.25 264.35 158.55 264.15 158.9 M259.45 197.95 Q255.2 199.95 249.4 201.2 L236.55 200.7 236.5 200.25 244.0 200.6 245.3 200.65 248.1 200.5 249.15 200.35 250.05 200.2 250.1 200.2 250.3 200.15 252.45 199.6 Q256.9 198.4 262.15 196.2 L265.0 194.95 265.0 195.05 259.65 197.85 259.45 197.95 Z" fill="none" stroke="#000000" stroke-linecap="round" stroke-linejoin="round" stroke-opacity="0.6" stroke-width="3.75"/>
  </g>
</svg>
