<?xml version="1.0" encoding="UTF-8" standalone="no"?>
<svg xmlns:xlink="http://www.w3.org/1999/xlink" height="103.7px" width="79.95px" xmlns="http://www.w3.org/2000/svg">
  <g transform="matrix(1.0, 0.0, 0.0, 1.0, -235.0, -148.1)">
    <path d="M238.55 184.5 L235.0 175.75 237.5 168.7 242.55 164.9 248.9 164.9 288.75 148.1 292.15 150.45 292.8 154.75 291.0 153.3 290.55 153.0 290.15 151.15 251.85 168.6 Q247.5 167.55 244.9 168.6 242.05 170.8 240.95 173.4 240.2 176.55 240.95 179.75 241.95 182.45 244.2 185.2 L244.65 185.8 245.05 186.25 Q250.1 189.6 256.8 189.7 260.0 189.1 260.95 186.85 260.95 183.2 257.9 179.9 L260.5 179.9 295.15 165.45 298.0 168.95 282.25 175.5 263.75 183.2 Q264.65 184.5 265.0 185.8 L265.2 187.3 265.1 188.35 Q264.1 191.15 260.45 192.95 L257.5 193.5 Q253.4 194.05 249.65 192.85 247.15 191.85 238.85 184.75 247.15 191.85 249.65 192.85 253.4 194.05 257.5 193.5 L258.3 202.5 253.85 202.65 Q250.25 202.65 247.05 201.0 L246.0 200.25 243.4 198.45 239.75 195.9 239.75 193.3 238.65 184.7 238.55 184.5 238.7 184.65 238.85 184.75 238.7 184.65 238.55 184.5 M254.6 244.6 Q251.5 239.4 252.05 234.8 L252.35 234.85 258.0 235.55 258.7 235.55 259.55 235.45 261.3 235.05 Q261.35 240.25 258.6 245.5 L255.75 244.95 254.6 244.6 M247.65 217.95 L244.6 213.15 Q242.1 206.75 244.25 202.15 L245.85 203.35 Q250.0 206.1 255.3 205.95 L258.35 205.5 Q260.35 210.4 258.25 215.6 257.4 217.7 257.45 220.0 253.7 220.35 249.3 218.65 L247.65 217.95 M238.7 184.65 L238.65 184.7 238.7 184.65" fill="#976831" fill-rule="evenodd" stroke="none"/>
    <path d="M257.5 193.5 L260.45 192.95 Q264.1 191.15 265.1 188.35 L265.35 188.3 266.4 196.15 Q265.95 197.95 264.85 199.15 L263.4 200.3 Q261.3 201.95 258.3 202.5 L257.5 193.5 M298.0 168.95 L295.15 165.45 302.2 162.5 302.45 162.4 311.5 158.65 314.95 161.95 313.9 186.0 311.85 185.9 Q302.2 184.8 298.05 168.95 L298.0 168.95 M244.2 185.2 Q241.95 182.45 240.95 179.75 240.2 176.55 240.95 173.4 242.05 170.8 244.9 168.6 247.5 167.55 251.85 168.6 L290.15 151.15 290.55 153.0 253.05 170.6 245.9 170.35 Q243.2 172.5 242.3 174.95 241.75 178.0 242.7 181.05 L244.4 185.15 244.2 185.2 M312.65 213.9 L311.75 232.45 302.35 235.35 302.25 233.65 Q301.9 222.55 310.75 215.35 L312.65 213.9 M314.95 161.95 L313.85 162.4 314.95 161.95 M313.85 162.4 L298.05 168.95 313.85 162.4 M265.75 201.8 Q266.9 203.8 267.65 206.55 L268.7 212.05 267.15 214.25 Q264.45 217.65 261.05 219.1 259.35 219.8 257.45 220.0 257.4 217.7 258.25 215.6 260.35 210.4 258.35 205.5 L260.3 205.0 Q263.45 203.9 265.75 201.8 M270.3 230.6 L271.35 230.2 273.8 239.85 Q271.35 241.8 268.75 243.15 265.55 244.8 262.15 245.55 L258.6 245.5 Q261.35 240.25 261.3 235.05 265.15 234.0 268.75 231.65 L270.3 230.6" fill="#61431f" fill-rule="evenodd" stroke="none"/>
    <path d="M265.2 187.3 L265.0 185.8 Q264.65 184.5 263.75 183.2 L282.25 175.5 271.85 190.2 271.85 205.05 275.35 223.1 282.35 237.85 283.4 241.25 275.45 243.75 273.8 246.0 273.8 243.35 273.8 239.85 271.35 230.2 270.3 230.6 267.15 214.25 268.7 212.05 267.65 206.55 Q266.9 203.8 265.75 201.8 L264.85 199.15 Q265.95 197.95 266.4 196.15 L265.35 188.3 265.2 187.3 M304.45 187.85 L303.55 209.9 292.5 218.3 277.5 214.05 272.45 193.35 278.4 198.8 Q287.65 192.5 299.75 194.45 L304.45 187.85 M301.4 203.4 Q294.8 200.95 294.2 210.0 L301.4 203.4 M292.35 215.25 L294.45 212.5 289.5 213.25 292.35 215.25 M280.3 207.95 L289.3 210.95 Q285.95 202.8 280.3 207.95" fill="#bb7c3e" fill-rule="evenodd" stroke="none"/>
    <path d="M282.25 175.5 L298.0 168.95 298.05 168.95 Q302.2 184.8 311.85 185.9 L313.9 186.0 312.65 213.9 310.75 215.35 Q301.9 222.55 302.25 233.65 L302.35 235.35 283.4 241.25 282.35 237.85 275.35 223.1 271.85 205.05 271.85 190.2 282.25 175.5 M273.8 246.0 L269.65 251.8 259.2 251.8 254.6 244.6 255.75 244.95 258.6 245.5 262.15 245.55 Q265.55 244.8 268.75 243.15 271.35 241.8 273.8 239.85 L273.8 243.35 273.8 246.0 M252.05 234.8 L247.65 217.95 249.3 218.65 Q253.7 220.35 257.45 220.0 259.35 219.8 261.05 219.1 264.45 217.65 267.15 214.25 L270.3 230.6 268.75 231.65 Q265.15 234.0 261.3 235.05 L259.55 235.45 258.0 235.55 252.35 234.85 252.05 234.8 M244.25 202.15 L243.4 198.45 246.0 200.25 247.05 201.0 Q250.25 202.65 253.85 202.65 L258.3 202.5 Q261.3 201.95 263.4 200.3 L264.85 199.15 265.75 201.8 Q263.45 203.9 260.3 205.0 L258.35 205.5 255.3 205.95 Q250.0 206.1 245.85 203.35 L244.25 202.15 M304.45 187.85 L299.75 194.45 Q287.65 192.5 278.4 198.8 L272.45 193.35 277.5 214.05 292.5 218.3 303.55 209.9 304.45 187.85 M292.35 215.25 L289.5 213.25 294.45 212.5 292.35 215.25 M301.4 203.4 L294.2 210.0 Q294.8 200.95 301.4 203.4 M280.3 207.95 Q285.95 202.8 289.3 210.95 L280.3 207.95" fill="#cf9d6b" fill-rule="evenodd" stroke="none"/>
    <path d="M295.15 165.45 L260.5 179.9 257.9 179.9 Q260.95 183.2 260.95 186.85 260.0 189.1 256.8 189.7 250.1 189.6 245.05 186.25 L244.65 185.8 244.4 185.15 242.7 181.05 Q241.75 178.0 242.3 174.95 243.2 172.5 245.9 170.35 L253.05 170.6 290.55 153.0 291.0 153.3 292.8 154.75 302.45 162.4 302.2 162.5 295.15 165.45 M291.05 158.7 L249.15 179.05 291.05 158.7" fill="#e1fccb" fill-rule="evenodd" stroke="none"/>
    <path d="M292.8 154.75 L292.15 150.45 288.75 148.1 248.9 164.9 242.55 164.9 237.5 168.7 235.0 175.75 238.55 184.5 238.7 184.65 238.85 184.75 M291.0 153.3 L292.8 154.75 302.45 162.4 311.5 158.65 314.95 161.95 313.9 186.0 312.65 213.9 311.75 232.45 302.35 235.35 283.4 241.25 275.45 243.75 273.8 246.0 269.65 251.8 259.2 251.8 254.6 244.6 Q251.5 239.4 252.05 234.8 L247.65 217.95 244.6 213.15 Q242.1 206.75 244.25 202.15 L243.4 198.45 239.75 195.9 239.75 193.3 238.65 184.7 238.55 184.5 M238.65 184.7 L238.7 184.65 M313.85 162.4 L314.95 161.95 M302.2 162.5 L302.45 162.4 M313.9 186.0 L311.85 185.9 M310.75 215.35 L312.65 213.9 M302.35 235.35 L302.25 233.65 M273.8 243.35 L273.8 246.0 M245.85 203.35 L244.25 202.15 M243.4 198.45 L246.0 200.25 M247.65 217.95 L249.3 218.65 M252.05 234.8 L252.35 234.85 M255.75 244.95 L254.6 244.6" fill="none" stroke="#000000" stroke-linecap="round" stroke-linejoin="round" stroke-width="0.05"/>
    <path d="M238.85 184.75 Q247.15 191.85 249.65 192.85 253.4 194.05 257.5 193.5 L260.45 192.95 Q264.1 191.15 265.1 188.35 L265.2 187.3 265.0 185.8 Q264.65 184.5 263.75 183.2 L282.25 175.5 298.0 168.95 295.15 165.45 260.5 179.9 257.9 179.9 Q260.95 183.2 260.95 186.85 260.0 189.1 256.8 189.7 250.1 189.6 245.05 186.25 L244.65 185.8 244.2 185.2 Q241.95 182.45 240.95 179.75 240.2 176.55 240.95 173.4 242.05 170.8 244.9 168.6 247.5 167.55 251.85 168.6 L290.15 151.15 290.55 153.0 291.0 153.3 M244.4 185.15 L242.7 181.05 Q241.75 178.0 242.3 174.95 243.2 172.5 245.9 170.35 L253.05 170.6 290.55 153.0 M244.65 185.8 L244.4 185.15 M264.85 199.15 Q265.95 197.95 266.4 196.15 L265.35 188.3 265.2 187.3 M298.0 168.95 L298.05 168.95 313.85 162.4 M295.15 165.45 L302.2 162.5 M311.85 185.9 Q302.2 184.8 298.05 168.95 M249.15 179.05 L291.05 158.7 M302.25 233.65 Q301.9 222.55 310.75 215.35 M264.85 199.15 L265.75 201.8 Q266.9 203.8 267.65 206.55 L268.7 212.05 267.15 214.25 270.3 230.6 271.35 230.2 273.8 239.85 273.8 243.35 M258.3 202.5 Q261.3 201.95 263.4 200.3 L264.85 199.15 M265.75 201.8 Q263.45 203.9 260.3 205.0 L258.35 205.5 255.3 205.95 Q250.0 206.1 245.85 203.35 M257.45 220.0 Q259.35 219.8 261.05 219.1 264.45 217.65 267.15 214.25 M246.0 200.25 L247.05 201.0 Q250.25 202.65 253.85 202.65 L258.3 202.5 M249.3 218.65 Q253.7 220.35 257.45 220.0 M252.35 234.85 L258.0 235.55 259.55 235.45 261.3 235.05 Q265.15 234.0 268.75 231.65 L270.3 230.6 M273.8 239.85 Q271.35 241.8 268.75 243.15 265.55 244.8 262.15 245.55 L258.6 245.5 255.75 244.95 M258.0 235.55 L258.7 235.55 259.55 235.45" fill="none" stroke="#000000" stroke-linecap="round" stroke-linejoin="round" stroke-opacity="0.3019608" stroke-width="0.05"/>
    <path d="M304.45 187.85 L303.55 209.9 292.5 218.3 277.5 214.05 272.45 193.35 278.4 198.8 Q287.65 192.5 299.75 194.45 L304.45 187.85 M301.4 203.4 Q294.8 200.95 294.2 210.0 L301.4 203.4 M292.35 215.25 L294.45 212.5 289.5 213.25 292.35 215.25 M280.3 207.95 Q285.95 202.8 289.3 210.95 L280.3 207.95 Z" fill="none" stroke="#000000" stroke-linecap="round" stroke-linejoin="round" stroke-opacity="0.2509804" stroke-width="0.05"/>
  </g>
</svg>
