<?xml version="1.0" encoding="UTF-8" standalone="no"?>
<svg xmlns:xlink="http://www.w3.org/1999/xlink" height="18.95px" width="18.8px" xmlns="http://www.w3.org/2000/svg">
  <g transform="matrix(1.0, 0.0, 0.0, 1.0, -222.8, -192.0)">
    <path d="M228.45 195.35 L228.5 195.3 228.5 195.35 228.45 195.35" fill="#7d714f" fill-rule="evenodd" stroke="none"/>
    <path d="M237.7 200.1 L238.75 201.25 238.6 201.3 237.7 200.1" fill="#5c533a" fill-rule="evenodd" stroke="none"/>
    <path d="M228.5 203.45 L228.5 203.35 228.55 203.35 228.5 203.45" fill="#bfa464" fill-rule="evenodd" stroke="none"/>
    <path d="M228.5 195.35 L235.1 194.9 237.15 198.3 230.95 199.7 229.35 200.85 229.25 200.8 228.5 195.35 M238.75 201.25 L240.85 201.15 241.6 205.2 239.55 205.95 238.35 205.0 237.85 206.2 234.15 207.05 Q233.75 205.1 234.65 202.4 L238.6 201.3 238.75 201.25 M231.45 205.35 L231.0 206.65 231.95 209.6 231.45 210.1 228.55 205.0 228.5 203.45 228.55 203.35 231.45 205.35" fill="#5a5e61" fill-rule="evenodd" stroke="none"/>
    <path d="M234.15 207.05 L232.45 206.6 231.45 205.35 228.55 203.35 228.5 203.35 228.5 203.45 228.55 205.0 231.45 210.1 229.65 210.95 228.1 207.55 226.35 209.6 225.0 205.0 225.45 201.55 228.45 195.35 228.5 195.35 229.25 200.8 229.35 200.85 230.5 203.8 231.7 203.8 233.0 201.75 234.65 202.4 Q233.75 205.1 234.15 207.05" fill="#302f2d" fill-rule="evenodd" stroke="none"/>
    <path d="M237.15 198.3 L237.7 199.9 237.7 200.1 238.6 201.3 234.65 202.4 233.0 201.75 231.7 203.8 230.5 203.8 229.35 200.85 230.95 199.7 237.15 198.3" fill="#2a1b2b" fill-rule="evenodd" stroke="none"/>
    <path d="M228.5 195.35 L235.1 194.9 237.15 198.3 237.7 199.9 237.7 200.1 238.75 201.25 240.85 201.15 241.6 205.2 239.55 205.95 238.35 205.0 237.85 206.2 234.15 207.05 232.45 206.6 231.45 205.35 231.0 206.65 M229.65 210.95 L228.1 207.55 226.35 209.6 225.0 205.0 225.45 201.55 228.45 195.35 228.5 195.3 M230.95 199.7 L237.15 198.3 M238.6 201.3 L238.75 201.25 M238.6 201.3 L237.7 200.1" fill="none" stroke="#302f2d" stroke-linecap="round" stroke-linejoin="round" stroke-width="0.05"/>
    <path d="M234.5 194.8 L236.3 192.0 238.55 192.65 239.25 196.65 237.35 198.5 237.1 198.25 238.4 196.1 237.5 194.15 236.7 193.9 235.2 196.1 234.5 194.8" fill="#5a5e61" fill-rule="evenodd" stroke="none"/>
    <path d="M235.2 196.1 L236.7 193.9 237.5 194.15 238.4 196.1 237.1 198.25 235.95 197.3 235.2 196.1" fill="#302f2d" fill-rule="evenodd" stroke="none"/>
    <path d="M237.35 198.5 L239.25 196.65 238.55 192.65 236.3 192.0 234.5 194.8" fill="none" stroke="#302f2d" stroke-linecap="round" stroke-linejoin="round" stroke-width="0.05"/>
    <path d="M235.15 201.4 Q234.5 201.3 234.3 200.9 233.95 200.35 234.2 199.8 234.5 199.25 235.15 198.95 235.8 198.55 236.4 198.7 237.05 198.85 237.3 199.35 237.55 199.8 237.35 200.35 237.05 200.9 236.4 201.2 L235.15 201.4" fill="#f0ece8" fill-rule="evenodd" stroke="none"/>
    <path d="M232.55 202.1 Q231.65 202.2 231.2 201.8 230.55 201.35 230.6 200.75 230.6 200.1 231.25 199.65 231.85 199.15 232.7 199.05 233.55 198.95 234.2 199.35 234.75 199.7 234.7 200.4 234.7 201.0 234.05 201.5 233.4 202.0 232.55 202.1" fill="#f0ece8" fill-rule="evenodd" stroke="none"/>
    <path d="M233.45 199.4 L236.35 197.35 237.7 198.85 234.85 200.9 233.45 199.4" fill="#302f2d" fill-rule="evenodd" stroke="none"/>
    <path d="M233.45 199.4 L236.35 197.35 237.7 198.85 234.85 200.9 233.45 199.4 Z" fill="none" stroke="#302f2d" stroke-linecap="round" stroke-linejoin="round" stroke-width="0.05"/>
    <path d="M234.7 200.75 L229.95 200.0 230.7 198.35 233.8 198.85 234.7 200.75" fill="#302f2d" fill-rule="evenodd" stroke="none"/>
    <path d="M234.7 200.75 L229.95 200.0 230.7 198.35 233.8 198.85 234.7 200.75 Z" fill="none" stroke="#302f2d" stroke-linecap="round" stroke-linejoin="round" stroke-width="0.05"/>
    <path d="M226.8 199.7 L223.8 197.7 224.35 195.4 224.4 195.2 226.0 194.7 228.75 196.9 227.95 198.55 226.8 199.7" fill="#302f2d" fill-rule="evenodd" stroke="none"/>
    <path d="M226.15 200.3 L222.8 199.0 222.85 194.45 226.15 193.0 229.55 195.4 228.75 196.9 226.0 194.7 224.4 195.2 224.35 195.4 223.8 197.7 226.8 199.7 226.15 200.3" fill="#5a5e61" fill-rule="evenodd" stroke="none"/>
    <path d="M229.55 195.4 L226.15 193.0 222.85 194.45 222.8 199.0 226.15 200.3 M224.35 195.4 L224.4 195.2" fill="none" stroke="#302f2d" stroke-linecap="round" stroke-linejoin="round" stroke-width="0.05"/>
    <path d="M240.4 202.05 L238.0 204.05 235.5 202.5 237.25 200.6 239.25 200.05 240.4 202.05" fill="#351d00" fill-rule="evenodd" stroke="none"/>
  </g>
</svg>
