<?xml version="1.0" encoding="UTF-8" standalone="no"?>
<svg xmlns:xlink="http://www.w3.org/1999/xlink" height="37.4px" width="88.7px" xmlns="http://www.w3.org/2000/svg">
  <g transform="matrix(1.0, 0.0, 0.0, 1.0, 44.35, 18.55)">
    <path d="M-43.85 -18.0 L-44.35 -18.15 -43.8 -18.2 -43.85 -18.0 M-43.8 -18.2 Q-33.35 -19.4 -23.65 -16.7 L-17.0 -14.5 Q-0.35 -4.75 13.25 7.5 21.4 9.5 36.55 9.05 33.65 12.7 26.65 16.15 16.85 16.2 12.95 14.6 0.6 8.05 -5.8 1.5 L-17.05 -10.6 Q-22.25 -13.9 -28.9 -15.75 L-30.15 -16.1 -31.7 -16.5 -31.15 -16.2 -38.65 -16.95 -43.8 -18.2 M-7.35 -6.3 L-4.1 -0.4 3.3 3.25 1.9 0.3 -7.35 -6.3" fill="#c5c1a5" fill-rule="evenodd" stroke="none"/>
    <path d="M-43.85 -18.0 L-43.8 -18.2 -38.65 -16.95 -31.15 -16.2 -31.7 -16.5 -30.15 -16.1 -28.9 -15.75 Q-22.25 -13.9 -17.05 -10.6 L-5.8 1.5 Q0.6 8.05 12.95 14.6 16.85 16.2 26.65 16.15 33.65 12.7 36.55 9.05 L43.25 7.8 44.35 18.15 25.85 18.8 13.65 17.85 7.85 16.0 Q-5.8 5.55 -15.6 -5.3 L-25.4 -12.4 -43.85 -18.0" fill="#686742" fill-rule="evenodd" stroke="none"/>
    <path d="M-7.35 -6.3 L1.9 0.3 3.3 3.25 -4.1 -0.4 -7.35 -6.3" fill="#d1d0b8" fill-rule="evenodd" stroke="none"/>
    <path d="M-43.85 -18.2 Q-33.4 -19.4 -23.7 -16.7 L-17.05 -14.5 Q-0.4 -4.75 13.2 7.5 21.35 9.5 36.5 9.05 L43.2 7.8 44.3 18.15 25.8 18.8 13.6 17.85 7.8 16.0 Q-5.85 5.55 -15.65 -5.3 L-25.45 -12.4 -43.9 -18.0 -43.85 -18.2 Z" fill="none" stroke="#40382c" stroke-linecap="round" stroke-linejoin="round" stroke-opacity="0.9019608" stroke-width="0.05"/>
  </g>
</svg>
