<?xml version="1.0" encoding="UTF-8" standalone="no"?>
<svg xmlns:xlink="http://www.w3.org/1999/xlink" height="89.9px" width="145.3px" xmlns="http://www.w3.org/2000/svg">
  <g transform="matrix(1.0, 0.0, 0.0, 1.0, -224.25, -184.3)">
    <path d="M300.95 189.55 L306.8 184.3 322.05 186.35 324.05 193.6 329.0 191.95 341.45 202.05 341.35 202.35 334.4 206.55 333.85 211.0 340.3 207.0 340.0 208.35 344.35 210.0 350.95 224.9 350.55 225.2 339.85 228.65 339.7 231.85 346.9 229.6 353.5 232.8 353.15 238.5 344.4 243.55 321.3 245.95 316.15 243.3 309.15 247.55 272.4 250.4 266.75 245.35 266.7 245.35 262.3 248.6 258.8 247.85 257.8 237.3 263.0 235.8 260.6 233.25 258.75 231.25 262.95 221.6 270.25 220.5 266.35 215.75 270.8 206.9 278.6 207.55 276.75 200.85 292.7 193.4 298.2 197.45 301.2 189.65 300.95 189.55 M326.0 215.1 L331.85 221.9 328.2 226.7 330.45 230.0 334.6 221.6 342.5 222.8 343.45 219.85 333.65 219.65 329.0 213.15 326.0 215.1 M306.4 203.5 L306.3 201.15 299.1 203.55 294.05 200.05 292.4 202.25 298.4 205.65 297.0 210.1 299.5 211.9 300.3 204.7 306.4 203.5" fill="#f9ddcc" fill-rule="evenodd" stroke="none"/>
    <path d="M243.15 238.35 L239.25 230.85 244.0 222.7 239.95 218.4 245.7 208.8 253.4 208.8 251.25 201.6 269.85 189.45 276.5 192.35 277.85 185.9 298.3 184.5 300.95 189.55 301.2 189.65 298.2 197.45 292.7 193.4 276.75 200.85 278.6 207.55 270.8 206.9 266.35 215.75 270.25 220.5 262.95 221.6 258.75 231.25 260.6 233.25 248.95 234.8 243.15 238.35" fill="#f2b691" fill-rule="evenodd" stroke="none"/>
    <path d="M326.0 215.1 L329.0 213.15 333.65 219.65 343.45 219.85 342.5 222.8 334.6 221.6 330.45 230.0 328.2 226.7 331.85 221.9 326.0 215.1 M306.4 203.5 L300.3 204.7 299.5 211.9 297.0 210.1 298.4 205.65 292.4 202.25 294.05 200.05 299.1 203.55 306.3 201.15 306.4 203.5" fill="#fdf1ea" fill-rule="evenodd" stroke="none"/>
    <path d="M352.9 242.0 Q371.45 238.55 369.35 246.75 370.55 265.85 339.7 263.35 337.15 254.8 314.85 256.85 L313.5 256.95 Q310.7 269.5 278.8 271.3 240.55 272.05 224.25 259.6 229.55 251.8 244.45 250.35 237.15 250.35 237.35 244.9 241.2 242.2 247.5 243.0 L247.8 245.85 250.4 244.25 250.2 246.85 247.5 247.75 Q249.55 254.9 260.05 256.85 280.3 265.8 307.0 258.4 315.45 255.85 322.35 252.0 341.9 250.5 354.85 253.75 366.25 252.95 360.95 246.25 L352.85 242.95 352.9 242.0 M331.65 269.65 L323.15 274.2 317.0 272.3 319.15 265.75 327.75 264.65 331.65 269.65" fill="#c11111" fill-rule="evenodd" stroke="none"/>
    <path d="M341.35 202.35 L340.3 207.0 333.85 211.0 334.4 206.55 341.35 202.35 M350.55 225.2 L345.95 229.15 346.9 229.6 339.7 231.85 339.85 228.65 350.55 225.2 M353.15 238.5 L352.9 242.0 352.85 242.95 352.5 248.45 317.0 249.15 315.15 245.6 312.95 249.25 270.85 251.6 267.55 249.0 266.05 252.3 250.05 248.5 250.05 248.45 250.2 246.85 250.4 244.25 247.8 245.85 247.5 243.0 247.2 239.65 244.05 240.15 243.15 238.35 248.95 234.8 260.6 233.25 263.0 235.8 257.8 237.3 258.8 247.85 262.3 248.6 266.7 245.35 266.75 245.35 272.4 250.4 309.15 247.55 316.15 243.3 321.3 245.95 344.4 243.55 353.15 238.5" fill="#ca8c64" fill-rule="evenodd" stroke="none"/>
    <path d="M352.85 242.95 L360.95 246.25 Q366.25 252.95 354.85 253.75 341.9 250.5 322.35 252.0 315.45 255.85 307.0 258.4 280.3 265.8 260.05 256.85 249.55 254.9 247.5 247.75 L250.2 246.85 250.05 248.45 250.05 248.5 266.05 252.3 267.55 249.0 270.85 251.6 312.95 249.25 315.15 245.6 317.0 249.15 352.5 248.45 352.85 242.95" fill="#7e0c0c" fill-rule="evenodd" stroke="none"/>
    <path d="M300.95 189.55 L306.8 184.3 322.05 186.35 324.05 193.6 329.0 191.95 341.45 202.05 341.35 202.35 340.3 207.0 340.0 208.35 344.35 210.0 350.95 224.9 350.55 225.2 345.95 229.15 346.9 229.6 353.5 232.8 353.15 238.5 352.9 242.0 352.85 242.95 352.5 248.45 317.0 249.15 315.15 245.6 312.95 249.25 270.85 251.6 267.55 249.0 266.05 252.3 250.05 248.5 250.05 248.45 250.2 246.85 250.4 244.25 247.8 245.85 247.5 243.0 247.2 239.65 244.05 240.15 243.15 238.35 239.25 230.85 244.0 222.7 239.95 218.4 245.7 208.8 253.4 208.8 251.25 201.6 269.85 189.45 276.5 192.35 277.85 185.9 298.3 184.5 300.95 189.55 Z" fill="none" stroke="#000000" stroke-linecap="round" stroke-linejoin="round" stroke-opacity="0.4509804" stroke-width="0.05"/>
  </g>
</svg>
