<?xml version="1.0" encoding="UTF-8" standalone="no"?>
<svg xmlns:xlink="http://www.w3.org/1999/xlink" height="60.95px" width="38.5px" xmlns="http://www.w3.org/2000/svg">
  <g transform="matrix(1.0, 0.0, 0.0, 1.0, -0.05, 0.0)">
    <path d="M14.75 34.8 Q15.4 33.6 15.5 32.5 15.6 31.3 16.3 30.1 17.05 28.85 18.05 28.2 L19.8 26.25 Q20.5 25.05 20.6 23.85 20.7 22.65 21.4 21.4 22.15 20.15 23.15 19.5 24.1 18.8 24.85 17.6 25.55 16.35 25.7 15.15 25.8 13.95 26.5 12.75 27.2 11.5 28.2 10.85 L29.95 8.9 Q30.8 7.35 30.85 6.6 30.95 5.8 31.85 4.25 L32.1 3.75 36.0 0.0 34.7 5.2 34.4 5.7 Q33.6 7.15 33.5 8.15 L32.65 10.45 Q31.9 11.7 30.95 12.4 29.95 13.1 29.3 14.3 28.6 15.55 28.5 16.8 28.4 18.0 27.75 19.25 27.05 20.5 26.1 21.2 25.1 21.9 24.4 23.15 23.7 24.35 23.65 25.6 23.55 26.8 22.9 28.05 22.15 29.25 21.2 30.0 20.2 30.65 19.5 31.9 18.8 33.15 18.75 34.35 18.65 35.5 18.05 36.7 L17.85 36.6 18.05 36.7 18.1 36.75 18.25 37.4 19.95 38.1 20.4 37.45 Q20.95 40.1 19.8 40.2 L17.3 38.4 15.35 37.2 13.2 36.1 Q11.2 35.05 10.6 34.95 10.1 33.85 12.7 33.0 L12.35 33.7 13.7 34.8 14.8 34.85 14.75 34.8 14.9 34.9 14.75 34.8 M17.85 36.6 L17.9 35.2 17.95 34.2 Q18.05 32.85 18.8 31.5 19.55 30.15 20.65 29.4 L22.15 27.65 Q22.75 26.5 22.85 25.45 22.95 24.1 23.65 22.75 L23.7 22.7 Q24.45 21.35 25.5 20.6 L27.05 18.85 Q27.65 17.7 27.75 16.6 27.8 15.3 28.55 13.95 L28.55 13.9 Q29.35 12.55 30.4 11.8 L31.95 10.05 32.75 7.95 Q32.8 6.85 33.7 5.3 L33.95 4.85 34.45 2.75 Q33.85 3.05 32.75 4.3 L32.55 4.65 Q31.7 6.05 31.65 6.75 31.55 7.75 30.65 9.35 L28.75 11.45 Q27.85 12.05 27.2 13.15 26.55 14.25 26.45 15.35 26.35 16.65 25.6 18.0 L23.7 20.1 Q22.75 20.7 22.1 21.85 21.45 22.95 21.4 24.05 L21.35 24.05 Q21.2 25.35 20.45 26.65 L20.45 26.7 Q19.65 28.0 18.6 28.75 17.65 29.35 17.0 30.5 16.4 31.6 16.3 32.65 L16.25 32.7 16.1 33.6 Q15.7 34.45 14.9 34.9 L17.85 36.6 M22.85 44.7 L22.95 43.75 23.1 43.0 Q23.3 42.1 23.9 41.25 24.55 40.35 25.4 39.95 L26.55 38.85 Q27.1 38.1 27.25 37.35 27.4 36.4 28.05 35.55 28.7 34.65 29.5 34.25 L30.75 33.15 31.4 31.65 Q31.55 30.7 32.2 29.85 32.85 28.95 33.65 28.55 L34.85 27.45 35.6 26.05 Q35.75 25.3 36.5 24.3 L36.7 24.0 37.25 22.6 Q36.8 22.75 35.95 23.5 L35.75 23.75 34.95 25.15 Q34.8 25.8 34.05 26.85 L32.55 28.15 Q31.85 28.5 31.3 29.2 30.75 29.9 30.6 30.65 30.4 31.55 29.8 32.45 L28.3 33.7 27.05 34.8 Q26.5 35.5 26.35 36.25 L25.5 38.0 24.0 39.3 Q23.3 39.65 22.75 40.35 22.2 41.05 22.05 41.8 L22.05 41.85 21.85 42.45 20.95 43.25 20.85 43.2 20.95 43.25 22.85 44.7 22.95 44.8 22.85 44.7 M36.95 24.65 Q36.25 25.55 36.15 26.25 L35.35 27.8 34.0 29.0 32.65 30.2 Q32.05 31.0 31.9 31.85 L31.15 33.5 Q30.55 34.25 29.85 34.65 29.1 35.05 28.55 35.9 27.95 36.7 27.8 37.55 L27.05 39.15 25.7 40.35 Q24.95 40.75 24.35 41.55 23.8 42.35 23.65 43.2 L22.95 44.8 23.05 45.25 24.15 45.85 24.5 45.5 Q24.65 47.35 23.85 47.35 L22.3 45.9 21.0 44.85 19.65 43.95 17.9 42.9 Q17.65 42.1 19.5 41.75 L19.2 42.2 20.05 43.05 20.85 43.2 21.55 41.65 Q21.7 40.8 22.3 40.05 22.9 39.25 23.7 38.85 L25.05 37.65 25.8 36.05 Q26.0 35.2 26.6 34.45 27.2 33.65 27.95 33.25 28.7 32.85 29.3 32.1 L30.1 30.45 Q30.25 29.6 30.85 28.85 31.45 28.05 32.2 27.65 L33.6 26.5 34.4 24.95 Q34.55 24.4 35.3 23.4 L35.55 23.1 38.55 20.8 37.2 24.3 36.95 24.65 M5.65 58.7 L6.55 59.0 Q7.05 60.1 4.5 60.95 L4.8 60.25 4.5 59.95 4.2 59.7 Q1.7 60.9 1.25 58.05 L0.65 57.85 0.2 58.5 Q-0.35 55.85 0.85 55.75 L1.6 56.4 3.5 57.7 Q4.3 58.05 4.9 58.35 L5.3 58.55 5.65 58.7 M17.55 37.05 L18.25 37.4 17.55 37.05 14.6 35.35 16.0 36.25 17.55 37.05 M13.7 34.8 L14.6 35.35 13.7 34.8 M12.45 59.0 L13.05 59.3 Q13.3 60.05 11.45 60.45 L11.75 60.0 11.55 59.8 11.4 59.6 Q9.55 60.2 9.45 58.2 L9.05 58.0 8.7 58.4 Q8.55 56.5 9.35 56.55 L9.85 57.05 11.05 58.1 12.0 58.7 12.25 58.85 12.45 59.0 M23.05 45.25 L22.4 44.85 23.05 45.25 M20.55 43.45 L21.55 44.3 22.4 44.85 20.55 43.45 20.05 43.05 20.55 43.45 M4.2 59.7 L4.15 59.7 2.9 58.8 1.25 58.05 2.9 58.8 4.15 59.7 4.2 59.7 M11.4 59.6 L11.35 59.55 10.55 58.8 9.45 58.2 10.55 58.8 11.35 59.55 11.4 59.6" fill="#000000" fill-rule="evenodd" stroke="none"/>
    <path d="M14.9 34.9 Q15.7 34.45 16.1 33.6 L16.25 32.7 16.3 32.65 Q16.4 31.6 17.0 30.5 17.65 29.35 18.6 28.75 19.65 28.0 20.45 26.7 L20.45 26.65 Q21.2 25.35 21.35 24.05 L21.4 24.05 Q21.45 22.95 22.1 21.85 22.75 20.7 23.7 20.1 L25.6 18.0 Q26.35 16.65 26.45 15.35 26.55 14.25 27.2 13.15 27.85 12.05 28.75 11.45 L30.65 9.35 Q31.55 7.75 31.65 6.75 31.7 6.05 32.55 4.65 L32.75 4.3 Q33.85 3.05 34.45 2.75 L33.95 4.85 33.7 5.3 Q32.8 6.85 32.75 7.95 L31.95 10.05 30.4 11.8 Q29.35 12.55 28.55 13.9 L28.55 13.95 Q27.8 15.3 27.75 16.6 27.65 17.7 27.05 18.85 L25.5 20.6 Q24.45 21.35 23.7 22.7 L23.65 22.75 Q22.95 24.1 22.85 25.45 22.75 26.5 22.15 27.65 L20.65 29.4 Q19.55 30.15 18.8 31.5 18.05 32.85 17.95 34.2 L17.9 35.2 17.85 36.6 14.9 34.9 M20.95 43.25 L21.85 42.45 22.05 41.85 22.05 41.8 Q22.2 41.05 22.75 40.35 23.3 39.65 24.0 39.3 L25.5 38.0 26.35 36.25 Q26.5 35.5 27.05 34.8 L28.3 33.7 29.8 32.45 Q30.4 31.55 30.6 30.65 30.75 29.9 31.3 29.2 31.85 28.5 32.55 28.15 L34.05 26.85 Q34.8 25.8 34.95 25.15 L35.75 23.75 35.95 23.5 Q36.8 22.75 37.25 22.6 L36.7 24.0 36.5 24.3 Q35.75 25.3 35.6 26.05 L34.85 27.45 33.65 28.55 Q32.85 28.95 32.2 29.85 31.55 30.7 31.4 31.65 L30.75 33.15 29.5 34.25 Q28.7 34.65 28.05 35.55 27.4 36.4 27.25 37.35 27.1 38.1 26.55 38.85 L25.4 39.95 Q24.55 40.35 23.9 41.25 23.3 42.1 23.1 43.0 L22.95 43.75 22.85 44.7 20.95 43.25" fill="#d86c01" fill-rule="evenodd" stroke="none"/>
    <path d="M3.0 54.9 L2.9 54.85 4.15 53.25 4.25 53.3 6.6 54.65 5.75 56.5 3.0 54.9 M6.0 50.9 L5.9 50.8 6.9 49.35 7.0 49.4 8.8 50.45 8.05 51.45 7.85 51.95 6.0 50.9 M7.8 47.85 L7.65 47.8 8.5 46.35 8.65 46.4 10.3 47.35 9.55 48.85 7.8 47.85 M10.5 43.4 L10.35 43.35 11.05 41.9 10.95 41.85 11.05 41.65 11.15 41.75 13.15 42.85 12.15 44.4 10.5 43.4 M12.35 39.55 L12.2 39.45 12.75 38.0 12.85 38.1 15.35 39.5 14.5 40.75 12.35 39.55 M17.1 48.8 L17.05 48.75 17.65 47.8 17.6 47.75 17.65 47.6 17.75 47.7 19.0 48.65 18.2 49.6 17.1 48.8 M18.75 46.25 L18.65 46.2 19.15 45.25 19.25 45.3 20.85 46.5 20.15 47.3 18.75 46.25 M14.85 51.65 L14.8 51.6 15.5 50.65 15.6 50.75 16.65 51.5 16.0 52.5 14.85 51.65 M10.95 56.15 L10.9 56.1 11.85 55.1 11.95 55.15 13.45 56.25 12.7 57.45 10.95 56.15 M13.35 53.6 L13.3 53.55 14.15 52.6 14.2 52.65 15.35 53.55 14.75 54.15 14.55 54.5 13.35 53.6" fill="#86503c" fill-rule="evenodd" stroke="none"/>
    <path d="M17.3 38.4 L16.85 39.0 17.0 39.1 16.3 40.05 16.15 39.95 15.35 39.5 12.85 38.1 13.2 36.9 13.0 36.8 13.2 36.1 15.35 37.2 17.3 38.4 M19.25 45.3 L19.55 44.5 19.45 44.45 19.65 43.95 21.0 44.85 22.3 45.9 21.9 46.25 22.05 46.35 21.45 46.95 21.35 46.9 20.85 46.5 19.25 45.3" fill="#402320" fill-rule="evenodd" stroke="none"/>
    <path d="M16.15 39.95 L15.25 41.2 14.5 40.75 15.35 39.5 16.15 39.95 M13.6 43.1 L13.5 43.3 13.6 43.35 12.75 44.7 12.15 44.4 13.15 42.85 13.6 43.1 M10.75 47.65 L9.95 49.1 9.55 48.85 10.3 47.35 10.75 47.65 M9.35 50.7 L8.5 52.3 7.85 51.95 8.05 51.45 8.8 50.45 9.35 50.7 M7.25 55.0 L6.45 56.9 5.75 56.5 6.6 54.65 7.25 55.0 M18.2 49.6 L19.0 48.65 19.3 48.85 19.25 48.95 19.3 49.05 18.6 49.9 18.2 49.6 M16.65 51.5 L16.95 51.75 16.25 52.7 16.0 52.5 16.65 51.5 M15.7 53.75 L15.0 54.8 14.55 54.5 14.75 54.15 15.35 53.55 15.7 53.75 M13.85 56.6 L13.15 57.8 12.7 57.45 13.45 56.25 13.85 56.6 M21.35 46.9 L20.6 47.65 20.15 47.3 20.85 46.5 21.35 46.9" fill="#271414" fill-rule="evenodd" stroke="none"/>
    <path d="M15.25 41.2 L15.35 41.25 14.85 41.9 14.65 41.8 13.7 43.2 13.6 43.1 13.15 42.85 14.5 40.75 15.25 41.2 M12.75 44.7 L12.85 44.75 10.9 47.7 10.75 47.65 10.3 47.35 12.15 44.4 12.75 44.7 M9.95 49.1 L10.05 49.15 9.45 50.8 9.35 50.7 8.8 50.45 9.55 48.85 9.95 49.1 M8.5 52.3 L8.6 52.4 8.15 53.3 8.0 53.2 7.35 54.6 7.5 54.7 7.35 55.1 7.25 55.0 6.6 54.65 7.85 51.95 8.5 52.3 M6.45 56.9 L6.55 56.95 6.25 57.65 6.1 57.55 5.65 58.7 5.3 58.55 4.9 58.35 5.75 56.5 6.45 56.9 M18.6 49.9 L18.65 49.95 17.05 51.8 16.95 51.75 16.65 51.5 18.2 49.6 18.6 49.9 M16.25 52.7 L16.35 52.75 15.8 53.85 15.7 53.75 15.35 53.55 16.0 52.5 16.25 52.7 M15.0 54.8 L15.05 54.85 14.65 55.5 14.55 55.4 14.0 56.3 14.1 56.4 13.95 56.65 13.85 56.6 13.45 56.25 14.55 54.5 15.0 54.8 M13.15 57.8 L13.25 57.85 13.0 58.35 12.85 58.25 12.45 59.0 12.25 58.85 12.0 58.7 12.7 57.45 13.15 57.8 M20.6 47.65 L20.7 47.7 20.3 48.15 20.15 48.05 19.4 48.9 19.3 48.85 19.0 48.65 20.15 47.3 20.6 47.65" fill="#582e2c" fill-rule="evenodd" stroke="none"/>
    <path d="M1.6 56.4 L2.35 55.45 2.55 55.55 3.0 54.9 5.75 56.5 4.9 58.35 Q4.3 58.05 3.5 57.7 L1.6 56.4 M4.25 53.3 L4.5 53.0 4.3 52.85 6.0 50.9 7.85 51.95 6.6 54.65 4.25 53.3 M7.0 49.4 L7.8 47.85 9.55 48.85 8.8 50.45 7.0 49.4 M8.65 46.4 L10.5 43.4 12.15 44.4 10.3 47.35 8.65 46.4 M11.15 41.75 L12.35 39.55 14.5 40.75 13.15 42.85 11.15 41.75 M17.75 47.7 L18.75 46.25 20.15 47.3 19.0 48.65 17.75 47.7 M15.6 50.75 L17.1 48.8 18.2 49.6 16.65 51.5 15.6 50.75 M9.85 57.05 L10.45 56.45 10.6 56.55 10.95 56.15 12.7 57.45 12.0 58.7 11.05 58.1 9.85 57.05 M11.95 55.15 L12.15 54.9 12.05 54.85 13.35 53.6 14.55 54.5 13.45 56.25 11.95 55.15 M14.2 52.65 L14.85 51.65 16.0 52.5 15.35 53.55 14.2 52.65" fill="#a7644b" fill-rule="evenodd" stroke="none"/>
    <path d="M14.9 34.9 Q15.7 34.45 16.1 33.6 L16.25 32.7 16.3 32.65 Q16.4 31.6 17.0 30.5 17.65 29.35 18.6 28.75 19.65 28.0 20.45 26.7 L20.45 26.65 Q21.2 25.35 21.35 24.05 L21.4 24.05 Q21.45 22.95 22.1 21.85 22.75 20.7 23.7 20.1 L25.6 18.0 Q26.35 16.65 26.45 15.35 26.55 14.25 27.2 13.15 27.85 12.05 28.75 11.45 L30.65 9.35 Q31.55 7.75 31.65 6.75 31.7 6.05 32.55 4.65 L32.75 4.3 Q33.85 3.05 34.45 2.75 L33.95 4.85 33.7 5.3 Q32.8 6.85 32.75 7.95 L31.95 10.05 30.4 11.8 Q29.35 12.55 28.55 13.9 L28.55 13.95 Q27.8 15.3 27.75 16.6 27.65 17.7 27.05 18.85 L25.5 20.6 Q24.45 21.35 23.7 22.7 L23.65 22.75 Q22.95 24.1 22.85 25.45 22.75 26.5 22.15 27.65 L20.65 29.4 Q19.55 30.15 18.8 31.5 18.05 32.85 17.95 34.2 L17.9 35.2 17.85 36.6 M20.95 43.25 L21.85 42.45 22.05 41.85 22.05 41.8 Q22.2 41.05 22.75 40.35 23.3 39.65 24.0 39.3 L25.5 38.0 26.35 36.25 Q26.5 35.5 27.05 34.8 L28.3 33.7 29.8 32.45 Q30.4 31.55 30.6 30.65 30.75 29.9 31.3 29.2 31.85 28.5 32.55 28.15 L34.05 26.85 Q34.8 25.8 34.95 25.15 L35.75 23.75 35.95 23.5 Q36.8 22.75 37.25 22.6 L36.7 24.0 36.5 24.3 Q35.75 25.3 35.6 26.05 L34.85 27.45 33.65 28.55 Q32.85 28.95 32.2 29.85 31.55 30.7 31.4 31.65 L30.75 33.15 29.5 34.25 Q28.7 34.65 28.05 35.55 27.4 36.4 27.25 37.35 27.1 38.1 26.55 38.85 L25.4 39.95 Q24.55 40.35 23.9 41.25 23.3 42.1 23.1 43.0 L22.95 43.75 22.85 44.7" fill="none" stroke="#ffc604" stroke-linecap="round" stroke-linejoin="round" stroke-width="0.05"/>
    <path d="M14.75 34.8 L14.9 34.9 M17.85 36.6 L18.05 36.7 18.1 36.75 M34.4 5.7 L34.7 5.2 M32.1 3.75 L31.85 4.25 M22.85 44.7 L22.95 44.8 M36.95 24.65 L37.2 24.3 M35.55 23.1 L35.3 23.4 M20.85 43.2 L20.95 43.25 M18.25 37.4 L19.95 38.1 20.4 37.45 Q20.95 40.1 19.8 40.2 L17.3 38.4 15.35 37.2 13.2 36.1 Q11.2 35.05 10.6 34.95 10.1 33.85 12.7 33.0 L12.35 33.7 13.7 34.8 14.6 35.35 16.0 36.25 17.55 37.05 18.25 37.4 M10.05 49.15 L9.45 50.8 M5.65 58.7 L6.55 59.0 Q7.05 60.1 4.5 60.95 L4.8 60.25 4.5 59.95 4.2 59.7 4.15 59.7 2.9 58.8 1.25 58.05 0.65 57.85 0.2 58.5 Q-0.35 55.85 0.85 55.75 L1.6 56.4 M7.0 49.4 L7.8 47.85 M14.8 34.85 L14.75 34.8 M19.65 43.95 L17.9 42.9 Q17.65 42.1 19.5 41.75 L19.2 42.2 20.05 43.05 20.55 43.45 21.55 44.3 22.4 44.85 23.05 45.25 24.15 45.85 24.5 45.5 Q24.65 47.35 23.85 47.35 L22.3 45.9 21.0 44.85 19.65 43.95 M16.35 52.75 L15.8 53.85 M12.45 59.0 L13.05 59.3 Q13.3 60.05 11.45 60.45 L11.75 60.0 11.55 59.8 11.4 59.6 11.35 59.55 10.55 58.8 9.45 58.2 9.05 58.0 8.7 58.4 Q8.55 56.5 9.35 56.55 L9.85 57.05 M14.2 52.65 L14.85 51.65" fill="none" stroke="#000000" stroke-linecap="round" stroke-linejoin="round" stroke-width="0.05"/>
    <path d="M17.3 38.4 L16.85 39.0 17.0 39.1 16.3 40.05 16.15 39.95 15.25 41.2 15.35 41.25 14.85 41.9 14.65 41.8 13.7 43.2 13.6 43.1 13.5 43.3 13.6 43.35 12.75 44.7 12.85 44.75 10.9 47.7 10.75 47.65 9.95 49.1 9.55 48.85 M9.35 50.7 L8.5 52.3 8.6 52.4 8.15 53.3 8.0 53.2 7.35 54.6 7.5 54.7 7.35 55.1 7.25 55.0 6.45 56.9 6.55 56.95 6.25 57.65 6.1 57.55 5.65 58.7 5.3 58.55 4.9 58.35 Q4.3 58.05 3.5 57.7 L1.6 56.4 2.35 55.45 2.55 55.55 3.0 54.9 2.9 54.85 4.15 53.25 4.25 53.3 4.5 53.0 4.3 52.85 6.0 50.9 5.9 50.8 6.9 49.35 7.0 49.4 M7.8 47.85 L7.65 47.8 8.5 46.35 8.65 46.4 10.5 43.4 10.35 43.35 11.05 41.9 10.95 41.85 11.05 41.65 11.15 41.75 12.35 39.55 12.2 39.45 12.75 38.0 12.85 38.1 13.2 36.9 13.0 36.8 13.2 36.1 M15.35 39.5 L16.15 39.95 M12.85 38.1 L15.35 39.5 M14.5 40.75 L15.25 41.2 M17.1 48.8 L17.05 48.75 17.65 47.8 17.6 47.75 17.65 47.6 17.75 47.7 18.75 46.25 18.65 46.2 19.15 45.25 19.25 45.3 19.55 44.5 19.45 44.45 19.65 43.95 M14.85 51.65 L14.8 51.6 15.5 50.65 15.6 50.75 17.1 48.8 M16.95 51.75 L17.05 51.8 18.65 49.95 18.6 49.9 19.3 49.05 19.25 48.95 19.3 48.85 19.4 48.9 20.15 48.05 20.3 48.15 20.7 47.7 20.6 47.65 21.35 46.9 21.45 46.95 22.05 46.35 21.9 46.25 22.3 45.9 M16.95 51.75 L16.25 52.7 16.0 52.5 M15.7 53.75 L15.0 54.8 15.05 54.85 14.65 55.5 14.55 55.4 14.0 56.3 14.1 56.4 13.95 56.65 13.85 56.6 13.15 57.8 13.25 57.85 13.0 58.35 12.85 58.25 12.45 59.0 12.25 58.85 12.0 58.7 11.05 58.1 9.85 57.05 10.45 56.45 10.6 56.55 10.95 56.15 10.9 56.1 11.85 55.1 11.95 55.15 12.15 54.9 12.05 54.85 13.35 53.6 13.3 53.55 14.15 52.6 14.2 52.65 M20.85 46.5 L21.35 46.9 M20.15 47.3 L20.6 47.65 M19.25 45.3 L20.85 46.5" fill="none" stroke="#241411" stroke-linecap="round" stroke-linejoin="round" stroke-width="0.05"/>
  </g>
</svg>
