<?xml version="1.0" encoding="UTF-8" standalone="no"?>
<svg xmlns:xlink="http://www.w3.org/1999/xlink" height="71.2px" width="89.65px" xmlns="http://www.w3.org/2000/svg">
  <g transform="matrix(1.0, 0.0, 0.0, 1.0, -207.6, -127.45)">
    <path d="M241.2 130.8 L245.25 128.2 251.75 130.55 256.5 137.85 254.75 139.2 258.45 140.25 Q270.55 143.4 286.65 145.1 L284.75 153.8 292.8 149.9 296.5 148.85 296.5 151.35 293.5 160.65 291.9 164.45 291.65 164.7 290.1 168.7 286.8 172.25 284.95 171.9 284.05 172.9 284.05 172.95 282.75 175.7 279.1 179.2 278.05 180.5 277.0 180.5 277.4 179.95 274.75 182.85 271.75 183.4 269.7 185.2 256.1 189.15 252.05 188.2 Q252.7 192.5 253.95 197.9 L245.45 191.6 237.8 196.6 Q238.4 190.7 239.5 186.25 L239.75 185.25 229.3 182.85 221.4 187.45 Q215.65 189.3 210.95 185.2 L208.45 179.55 210.85 177.4 210.85 174.35 215.9 170.55 216.05 169.0 216.05 167.05 215.9 166.1 Q215.4 163.65 214.05 161.25 L211.1 160.6 211.1 157.75 208.35 157.25 209.65 153.3 210.15 153.0 Q211.05 151.45 213.8 150.4 L216.85 148.1 219.6 141.55 Q223.65 138.8 226.5 138.0 L228.75 138.25 230.95 133.45 Q232.0 132.65 233.2 132.0 235.25 130.9 237.8 129.9 L241.2 130.8 Z" fill="none" stroke="#38150a" stroke-linecap="round" stroke-linejoin="round" stroke-width="1.5"/>
    <path d="M216.85 148.1 L219.2 142.6 219.6 141.55 Q223.65 138.75 226.5 137.95 L227.4 138.05 228.75 138.2 230.95 133.45 Q232.0 132.6 233.2 131.95 235.25 130.85 237.85 129.85 L241.25 130.75 244.4 132.2 243.0 132.3 Q237.75 132.2 234.65 136.5 237.75 132.2 243.0 132.3 L244.4 132.2 Q246.65 133.5 249.1 135.55 L250.55 138.55 Q249.9 138.2 249.3 137.95 L248.35 137.65 Q244.05 136.1 239.6 137.8 L238.0 136.5 234.65 136.5 233.2 136.5 231.6 137.55 Q231.45 134.8 232.8 132.55 L233.2 131.95 232.8 132.55 Q231.45 134.8 231.6 137.55 L229.8 138.7 228.75 138.2 229.8 138.7 Q234.9 140.0 237.85 143.65 L237.75 143.7 Q237.2 143.4 236.7 143.25 231.45 140.95 227.0 144.85 L226.75 144.7 222.85 144.6 221.95 144.6 221.9 144.6 221.05 145.15 220.1 145.9 219.85 145.75 Q219.2 144.5 219.2 143.3 L219.2 142.6 219.2 143.3 Q219.2 144.5 219.85 145.75 L220.1 145.9 Q218.5 146.95 216.85 148.1 M227.4 138.05 L226.5 138.75 Q223.1 140.65 222.85 144.6 223.1 140.65 226.5 138.75 L227.4 138.05" fill="#c9c836" fill-rule="evenodd" stroke="none"/>
    <path d="M213.8 150.35 L216.85 148.1 Q218.5 146.95 220.1 145.9 L221.05 145.15 221.95 144.6 222.85 144.6 226.75 144.7 227.0 144.85 230.7 147.85 231.5 148.95 223.2 154.0 223.0 153.65 Q221.4 151.4 216.3 149.45 214.85 149.85 213.8 150.35 M241.25 130.75 L245.3 128.15 251.75 130.5 253.85 133.6 251.45 135.35 244.4 132.2 241.25 130.75 M231.6 137.55 L233.2 136.5 234.65 136.5 238.0 136.5 239.6 137.8 241.95 139.65 243.15 141.45 240.5 143.4 240.35 143.3 236.85 140.3 229.8 138.7 231.6 137.55" fill="#e7ce98" fill-rule="evenodd" stroke="none"/>
    <path d="M286.65 145.1 L284.7 154.05 267.2 168.1 260.1 169.6 260.55 165.55 264.05 165.55 283.65 150.75 286.65 145.1 M282.45 164.5 L286.65 167.6 283.9 172.85 269.7 185.15 258.8 188.3 260.8 183.3 266.55 182.0 Q277.75 175.1 283.9 168.25 282.85 166.4 282.45 164.5 M253.85 145.35 L253.55 144.7 254.85 145.5 256.05 147.6 252.15 148.65 249.4 147.35 247.0 146.2 250.55 147.6 Q254.0 149.6 253.85 145.35 M242.45 152.7 L245.45 155.1 243.4 156.2 241.4 155.95 Q242.75 155.6 242.6 153.4 L242.1 152.55 242.45 152.7" fill="#781801" fill-rule="evenodd" stroke="none"/>
    <path d="M258.45 140.25 Q270.55 143.4 286.65 145.1 L283.65 150.75 264.05 165.55 260.55 165.55 254.65 165.55 232.5 160.45 238.7 155.6 238.95 155.6 239.3 155.7 239.35 155.7 241.4 155.95 243.4 156.2 245.45 155.1 242.45 152.7 249.4 147.35 252.15 148.65 256.05 147.6 254.85 145.5 253.55 144.7 253.35 144.3 258.45 140.25" fill="#dc3f03" fill-rule="evenodd" stroke="none"/>
    <path d="M253.85 133.6 L256.55 137.8 254.75 139.2 251.9 141.35 250.55 138.55 249.1 135.55 Q246.65 133.5 244.4 132.2 L251.45 135.35 253.85 133.6 M284.7 154.05 Q281.4 159.6 282.45 164.5 282.85 166.4 283.9 168.25 277.75 175.1 266.55 182.0 L260.8 183.3 259.3 183.6 258.65 181.75 257.0 176.75 255.9 173.2 245.5 173.2 216.05 167.0 215.9 166.05 Q215.4 163.6 214.05 161.2 L255.05 170.75 260.1 169.6 267.2 168.1 284.7 154.05 M226.15 160.7 Q225.85 157.65 223.2 154.0 L231.5 148.95 231.85 149.45 235.15 154.05 228.1 159.4 226.15 160.7 M229.8 138.7 L236.85 140.3 240.35 143.3 240.5 143.4 243.15 141.45 244.15 142.75 246.15 145.65 240.8 149.8 237.9 143.85 237.85 143.65 Q234.9 140.0 229.8 138.7 M266.15 180.6 L258.65 181.75 266.15 180.6 M264.4 175.5 L257.0 176.75 264.4 175.5 M229.35 168.95 L215.9 166.05 229.35 168.95" fill="#c98e47" fill-rule="evenodd" stroke="none"/>
    <path d="M254.75 139.2 L258.45 140.25 253.35 144.3 251.9 141.35 254.75 139.2 M258.8 188.3 L256.1 189.1 229.35 182.8 210.85 178.45 210.85 177.4 210.85 174.3 215.9 170.5 Q215.55 172.35 214.6 174.3 L255.05 184.5 259.3 183.6 260.8 183.3 258.8 188.3 M214.05 161.2 L211.1 160.55 211.1 157.7 211.85 157.9 221.3 159.75 226.15 160.7 228.1 159.4 235.15 154.05 238.15 155.3 238.7 155.6 238.15 155.3 238.8 155.55 238.7 155.6 232.5 160.45 254.65 165.55 260.55 165.55 260.1 169.6 255.05 170.75 214.05 161.2 M240.8 149.8 L246.15 145.65 246.4 146.0 247.0 146.2 249.4 147.35 242.45 152.7 242.1 152.55 241.8 151.9 240.8 149.8 M232.5 160.45 L228.1 159.4 232.5 160.45" fill="#a21502" fill-rule="evenodd" stroke="none"/>
    <path d="M243.15 141.45 L241.95 139.65 239.6 137.8 Q244.05 136.1 248.35 137.65 L249.3 137.95 Q249.9 138.2 250.55 138.55 L251.9 141.35 253.35 144.3 253.55 144.7 253.85 145.35 252.3 145.1 252.25 145.0 Q248.75 142.15 244.15 142.75 L243.15 141.45 M237.9 143.85 L240.8 149.8 241.8 151.9 240.75 151.5 Q236.35 150.0 231.85 149.45 L231.5 148.95 230.7 147.85 227.0 144.85 Q231.45 140.95 236.7 143.25 237.2 143.4 237.75 143.7 L237.9 143.85" fill="#a7a62e" fill-rule="evenodd" stroke="none"/>
    <path d="M244.15 142.75 Q248.75 142.15 252.25 145.0 L252.3 145.1 253.85 145.35 Q254.0 149.6 250.55 147.6 L247.0 146.2 246.4 146.0 246.15 145.65 244.15 142.75 M231.85 149.45 Q236.35 150.0 240.75 151.5 L241.8 151.9 242.1 152.55 242.6 153.4 Q242.75 155.6 241.4 155.95 L239.35 155.7 238.95 155.6 238.8 155.55 238.15 155.3 235.15 154.05 231.85 149.45" fill="#898925" fill-rule="evenodd" stroke="none"/>
    <path d="M237.75 143.7 L237.85 143.65 237.9 143.85 237.75 143.7" fill="#cc9900" fill-rule="evenodd" stroke="none"/>
    <path d="M238.95 155.6 L238.7 155.6 238.8 155.55 238.95 155.6" fill="#cc3300" fill-rule="evenodd" stroke="none"/>
    <path d="M215.9 170.5 L216.05 168.95 216.05 167.0 245.5 173.2 255.9 173.2 257.0 176.75 258.65 181.75 254.9 182.3 250.4 181.25 254.9 182.3 258.65 181.75 259.3 183.6 255.05 184.5 214.6 174.3 Q215.55 172.35 215.9 170.5 M240.75 174.45 L254.5 177.2 257.0 176.75 254.5 177.2 240.75 174.45 M221.05 170.1 L216.05 168.95 221.05 170.1" fill="#f1dfb8" fill-rule="evenodd" stroke="none"/>
    <path d="M211.1 157.7 L208.35 157.25 209.65 153.25 210.15 152.95 213.8 150.35 Q214.85 149.85 216.3 149.45 221.4 151.4 223.0 153.65 L223.2 154.0 Q225.85 157.65 226.15 160.7 L221.3 159.75 211.85 157.9 211.1 157.7 M221.4 187.4 Q215.65 189.3 210.95 185.15 L208.45 179.5 212.15 180.15 220.25 181.6 226.8 182.75 221.4 187.4 M221.3 159.75 L221.0 158.7 Q220.35 157.4 219.35 156.4 217.35 154.55 214.75 155.75 213.15 156.6 211.85 157.9 213.15 156.6 214.75 155.75 217.35 154.55 219.35 156.4 220.35 157.4 221.0 158.7 L221.3 159.75 M220.25 181.6 Q218.3 183.2 216.05 182.75 213.8 182.25 212.15 180.15 213.8 182.25 216.05 182.75 218.3 183.2 220.25 181.6" fill="#daaf50" fill-rule="evenodd" stroke="none"/>
    <path d="M210.15 152.95 Q211.05 151.4 213.8 150.35 L210.15 152.95" fill="#d0a359" fill-rule="evenodd" stroke="none"/>
    <path d="M229.35 182.8 L221.4 187.4 226.8 182.75 220.25 181.6 212.15 180.15 208.45 179.5 210.85 177.4 210.85 178.45 229.35 182.8" fill="#91622b" fill-rule="evenodd" stroke="none"/>
    <path d="M211.85 157.9 Q213.15 156.6 214.75 155.75 217.35 154.55 219.35 156.4 220.35 157.4 221.0 158.7 L221.3 159.75 M226.15 160.7 Q225.85 157.65 223.2 154.0 L223.0 153.65 Q221.4 151.4 216.3 149.45 M232.5 160.45 L254.65 165.55 260.55 165.55 264.05 165.55 283.65 150.75 286.65 145.1 M258.65 181.75 L266.15 180.6 M258.65 181.75 L254.9 182.3 250.4 181.25 M257.0 176.75 L264.4 175.5 M257.0 176.75 L254.5 177.2 240.75 174.45 M228.1 159.4 L232.5 160.45 M212.15 180.15 Q213.8 182.25 216.05 182.75 218.3 183.2 220.25 181.6 L212.15 180.15 208.45 179.5 M216.05 168.95 L221.05 170.1 M215.9 166.05 L229.35 168.95 M220.25 181.6 L226.8 182.75 221.4 187.4" fill="none" stroke="#000000" stroke-linecap="round" stroke-linejoin="round" stroke-opacity="0.2" stroke-width="0.25"/>
    <path d="M253.85 145.35 L253.55 144.7 253.35 144.3 M231.85 149.45 Q236.35 150.0 240.75 151.5 L241.8 151.9" fill="none" stroke="#000000" stroke-linecap="round" stroke-linejoin="round" stroke-opacity="0.36078432" stroke-width="0.25"/>
    <path d="M219.2 142.6 L219.2 143.3 Q219.2 144.5 219.85 145.75 L220.1 145.9 M222.85 144.6 Q223.1 140.65 226.5 138.75 L227.4 138.05 M231.6 137.55 Q231.45 134.8 232.8 132.55 L233.2 131.95 M234.65 136.5 Q237.75 132.2 243.0 132.3 L244.4 132.2 M239.6 137.8 Q244.05 136.1 248.35 137.65 L249.3 137.95 Q249.9 138.2 250.55 138.55 M244.15 142.75 Q248.75 142.15 252.25 145.0 L252.3 145.1 253.85 145.35 M237.75 143.7 Q237.2 143.4 236.7 143.25 231.45 140.95 227.0 144.85" fill="none" stroke="#000000" stroke-linecap="round" stroke-linejoin="round" stroke-opacity="0.24313726" stroke-width="0.25"/>
    <path d="M211.1 157.7 L208.35 157.25 209.65 153.25 210.15 152.95 Q211.05 151.4 213.8 150.35 L216.85 148.1 219.2 142.6 219.6 141.55 Q223.65 138.75 226.5 137.95 L227.4 138.05 228.75 138.2 230.95 133.45 Q232.0 132.6 233.2 131.95 235.25 130.85 237.85 129.85 L241.25 130.75 245.3 128.15 251.75 130.5 253.85 133.6 256.55 137.8 254.75 139.2 258.45 140.25 Q270.55 143.4 286.65 145.1 L284.7 154.05 Q281.4 159.6 282.45 164.5 L286.65 167.6 283.9 172.85 269.7 185.15 258.8 188.3 256.1 189.1 229.35 182.8 221.4 187.4 Q215.65 189.3 210.95 185.15 L208.45 179.5 210.85 177.4 210.85 174.3 215.9 170.5 216.05 168.95 216.05 167.0 215.9 166.05 Q215.4 163.6 214.05 161.2 L211.1 160.55 211.1 157.7 211.85 157.9 221.3 159.75 226.15 160.7 228.1 159.4 235.15 154.05 238.15 155.3 238.8 155.55 238.95 155.6 238.7 155.6 238.15 155.3 M216.3 149.45 Q214.85 149.85 213.8 150.35 L210.15 152.95 M220.1 145.9 L221.05 145.15 221.9 144.6 221.95 144.6 222.85 144.6 226.75 144.7 227.0 144.85 230.7 147.85 231.5 148.95 231.85 149.45 235.15 154.05 M231.6 137.55 L233.2 136.5 234.65 136.5 238.0 136.5 239.6 137.8 241.95 139.65 243.15 141.45 244.15 142.75 246.15 145.65 246.4 146.0 247.0 146.2 250.55 147.6 Q254.0 149.6 253.85 145.35 M244.4 132.2 L241.25 130.75 M228.75 138.2 L229.8 138.7 231.6 137.55 M250.55 138.55 L249.1 135.55 Q246.65 133.5 244.4 132.2 M253.35 144.3 L251.9 141.35 250.55 138.55 M237.85 143.65 Q234.9 140.0 229.8 138.7 M237.85 143.65 L237.9 143.85 240.8 149.8 246.15 145.65 M237.9 143.85 L237.75 143.7 M241.8 151.9 L240.8 149.8 M251.9 141.35 L254.75 139.2 M249.4 147.35 L252.15 148.65 256.05 147.6 254.85 145.5 253.55 144.7 M247.0 146.2 L249.4 147.35 M242.45 152.7 L245.45 155.1 243.4 156.2 241.4 155.95 239.35 155.7 239.3 155.7 238.95 155.6 239.35 155.7 M259.3 183.6 L260.8 183.3 266.55 182.0 Q277.75 175.1 283.9 168.25 282.85 166.4 282.45 164.5 M260.1 169.6 L267.2 168.1 284.7 154.05 M260.1 169.6 L255.05 170.75 214.05 161.2 M241.8 151.9 L242.1 152.55 242.45 152.7 M242.1 152.55 L242.6 153.4 Q242.75 155.6 241.4 155.95 M221.05 145.15 L221.95 144.6 M216.85 148.1 Q218.5 146.95 220.1 145.9 M259.3 183.6 L255.05 184.5 214.6 174.3 Q215.55 172.35 215.9 170.5 M210.85 177.4 L210.85 178.45 229.35 182.8" fill="none" stroke="#000000" stroke-linecap="round" stroke-linejoin="round" stroke-opacity="0.49019608" stroke-width="0.25"/>
    <path d="M291.8 156.0 L288.0 153.35 284.45 154.0 284.45 153.9 292.8 149.85 295.15 150.25 296.1 150.65 291.8 156.0" fill="#e2cb96" fill-rule="evenodd" stroke="none"/>
    <path d="M296.1 150.65 L295.15 150.25 292.8 149.85 296.5 148.8 296.5 151.3 Q296.45 150.9 296.1 150.65" fill="#2f240d" fill-rule="evenodd" stroke="none"/>
    <path d="M270.45 170.6 L274.75 173.6 276.5 178.7 274.75 182.8 270.45 183.6 266.15 180.6 264.4 175.5 266.15 171.4 270.45 170.6 M291.9 156.1 L291.8 156.0 296.1 150.65 Q296.45 150.9 296.5 151.3 L293.5 160.65 291.9 156.1 M273.1 177.95 Q273.1 176.9 272.45 176.0 271.75 175.05 270.75 174.85 L270.3 174.8 Q269.65 174.7 269.15 175.1 268.45 175.7 268.45 176.75 268.45 177.8 269.15 178.7 269.65 179.35 270.3 179.65 L270.75 179.9 Q271.75 180.15 272.45 179.55 273.1 179.0 273.1 177.95" fill="#d0a359" fill-rule="evenodd" stroke="none"/>
    <path d="M273.1 177.95 Q273.1 179.0 272.45 179.55 271.75 180.15 270.75 179.9 L270.3 179.65 Q269.65 179.35 269.15 178.7 268.45 177.8 268.45 176.75 268.45 175.7 269.15 175.1 269.65 174.7 270.3 174.8 L270.75 174.85 Q271.75 175.05 272.45 176.0 273.1 176.9 273.1 177.95" fill="#543d18" fill-rule="evenodd" stroke="none"/>
    <path d="M274.75 173.6 L290.5 157.65 290.7 157.45 291.9 156.1 293.5 160.65 Q289.25 164.45 285.6 168.25 280.5 173.4 276.5 178.7 L274.75 173.6 M288.0 153.35 L280.0 163.45 270.45 170.6 266.15 171.4 279.75 160.2 284.15 154.05 284.2 154.0 284.45 154.0 288.0 153.35" fill="#709212" fill-rule="evenodd" stroke="none"/>
    <path d="M274.75 182.8 L276.5 178.7 Q280.5 173.4 285.6 168.25 289.25 164.45 293.5 160.65 L291.9 164.45 274.75 182.8" fill="#465b0b" fill-rule="evenodd" stroke="none"/>
    <path d="M274.75 173.6 L270.45 170.6 280.0 163.45 288.0 153.35 291.8 156.0 291.9 156.1 290.7 157.45 290.5 157.65 274.75 173.6" fill="#c0d629" fill-rule="evenodd" stroke="none"/>
    <path d="M274.75 173.6 L290.5 157.65 M290.7 157.45 L291.9 156.1 M288.0 153.35 L280.0 163.45 270.45 170.6 M276.5 178.7 Q280.5 173.4 285.6 168.25 289.25 164.45 293.5 160.65" fill="none" stroke="#000000" stroke-linecap="round" stroke-linejoin="round" stroke-opacity="0.2" stroke-width="0.25"/>
    <path d="M291.9 156.1 L291.8 156.0 M293.5 160.65 L291.9 164.45 M284.45 154.0 L284.2 154.0 284.15 154.05" fill="none" stroke="#000000" stroke-linecap="round" stroke-linejoin="round" stroke-opacity="0.62352943" stroke-width="0.25"/>
    <path d="M270.45 170.6 L274.75 173.6 276.5 178.7 274.75 182.8 M291.8 156.0 L288.0 153.35 284.45 154.0 M270.45 170.6 L266.15 171.4 M293.5 160.65 L291.9 156.1" fill="none" stroke="#000000" stroke-linecap="round" stroke-linejoin="round" stroke-opacity="0.38039216" stroke-width="0.25"/>
    <path d="M266.15 171.4 L264.4 175.5 266.15 180.6 270.45 183.6 274.75 182.8 291.9 164.45 M296.5 151.3 L296.5 148.8 292.8 149.85 284.45 153.9 284.2 154.0 284.45 153.9 M296.5 151.3 L293.5 160.65 M284.15 154.05 L279.75 160.2 266.15 171.4" fill="none" stroke="#000000" stroke-linecap="round" stroke-linejoin="round" stroke-opacity="0.4" stroke-width="0.25"/>
    <path d="M287.3 162.75 Q286.15 160.85 283.65 158.9 L268.9 154.35 265.45 150.65 273.5 150.3 288.6 155.65 Q290.35 157.0 291.25 158.65 L287.3 162.75 M279.5 170.85 Q278.3 168.85 275.85 166.75 L261.05 161.5 257.55 157.65 265.75 157.65 280.7 163.65 Q282.5 165.2 283.4 166.8 L279.5 170.85 M273.05 151.9 L270.45 151.9 271.35 152.9 273.95 152.9 273.05 151.9 M264.7 158.95 L262.9 158.95 264.15 160.1 266.0 160.2 264.7 158.95" fill="#f1dfb8" fill-rule="evenodd" stroke="none"/>
    <path d="M264.7 158.95 L266.0 160.2 264.15 160.1 262.9 158.95 264.7 158.95 M273.05 151.9 L273.95 152.9 271.35 152.9 270.45 151.9 273.05 151.9" fill="#a57030" fill-rule="evenodd" stroke="none"/>
    <path d="M287.3 162.75 L291.25 158.65 Q292.8 161.4 291.75 164.65 L290.1 168.7 286.8 172.25 284.2 171.85 Q284.05 172.25 284.05 172.75 L284.05 172.95 282.75 175.7 279.1 179.2 278.05 180.5 277.0 180.5 279.75 177.1 279.9 176.7 Q281.2 173.85 279.5 170.85 L283.4 166.8 Q284.6 169.1 284.2 171.6 L287.45 168.9 Q289.15 165.85 287.3 162.75 M284.2 171.6 L284.2 171.75 284.2 171.85 284.2 171.75 284.2 171.6 M288.35 168.2 L287.45 168.9 288.35 168.2" fill="#ccaf6f" fill-rule="evenodd" stroke="none"/>
    <path d="M291.25 158.65 Q290.35 157.0 288.6 155.65 L273.5 150.3 265.45 150.65 268.9 154.35 283.65 158.9 Q286.15 160.85 287.3 162.75 289.15 165.85 287.45 168.9 L288.35 168.2 M291.25 158.65 Q292.8 161.4 291.75 164.65 L290.1 168.7 286.8 172.25 284.2 171.85 Q284.05 172.25 284.05 172.75 L284.05 172.95 282.75 175.7 279.1 179.2 278.05 180.5 277.0 180.5 279.75 177.1 279.9 176.7 Q281.2 173.85 279.5 170.85 278.3 168.85 275.85 166.75 L261.05 161.5 257.55 157.65 265.75 157.65 280.7 163.65 Q282.5 165.2 283.4 166.8 284.6 169.1 284.2 171.6 L287.45 168.9 M264.7 158.95 L266.0 160.2 264.15 160.1 262.9 158.95 264.7 158.95 M273.05 151.9 L273.95 152.9 271.35 152.9 270.45 151.9 273.05 151.9 M284.2 171.85 L284.2 171.75 284.2 171.6" fill="none" stroke="#000000" stroke-linecap="round" stroke-linejoin="round" stroke-opacity="0.6313726" stroke-width="0.25"/>
    <path d="M251.4 182.2 L251.85 186.25 Q246.1 183.35 239.5 186.25 240.0 184.2 240.65 182.5 L251.4 182.2" fill="#fff9d5" fill-rule="evenodd" stroke="none"/>
    <path d="M240.65 182.5 Q242.2 178.0 244.4 175.3 L251.5 176.6 Q251.2 178.8 251.4 182.2 L240.65 182.5" fill="#d5de8d" fill-rule="evenodd" stroke="none"/>
    <path d="M251.85 186.25 Q252.4 191.2 253.95 197.9 L245.45 191.6 237.8 196.6 Q238.4 190.7 239.5 186.25 246.1 183.35 251.85 186.25" fill="#8c912b" fill-rule="evenodd" stroke="none"/>
    <path d="M240.65 182.5 Q242.2 178.0 244.4 175.3 L251.5 176.6 Q251.2 178.8 251.4 182.2 L251.85 186.25 Q252.4 191.2 253.95 197.9 L245.45 191.6 237.8 196.6 Q238.4 190.7 239.5 186.25 240.0 184.2 240.65 182.5 Z" fill="none" stroke="#000000" stroke-linecap="round" stroke-linejoin="round" stroke-opacity="0.38039216" stroke-width="0.25"/>
  </g>
</svg>
