<?xml version="1.0" encoding="UTF-8" standalone="no"?>
<svg xmlns:xlink="http://www.w3.org/1999/xlink" height="43.5px" width="27.3px" xmlns="http://www.w3.org/2000/svg">
  <g transform="matrix(1.0, 0.0, 0.0, 1.0, 13.65, 21.75)">
    <path d="M13.3 -21.65 L13.3 -21.6 -2.45 5.45 -2.5 5.55 -2.45 5.45 -3.35 4.9 -4.85 3.95 -5.15 3.8 -4.85 3.95 -3.05 5.1 -2.5 5.45 -3.0 5.15 Q-4.1 4.5 -5.15 3.8 L-7.25 2.5 Q-3.95 -4.75 -1.05 -9.5 L-0.35 -8.9 Q0.6 -9.05 2.2 -10.15 3.8 -11.3 5.65 -13.3 7.45 -15.35 8.55 -17.7 L9.3 -20.0 11.05 -20.8 12.75 -21.45 13.15 -21.6 13.3 -21.65 M-12.2 1.85 L-11.75 0.65 -10.35 -2.5 Q-9.5 -4.2 -8.05 -5.8 L-7.65 -4.9 Q-8.65 -4.25 -9.65 -1.4 L-10.85 1.6 -11.3 1.85 -12.2 1.85" fill="#c4dcdf" fill-rule="evenodd" stroke="none"/>
    <path d="M-7.25 2.5 L-5.15 3.8 Q-4.1 4.5 -3.0 5.15 L-2.5 5.55 -1.7 6.15 -2.1 5.7 -0.1 6.95 1.05 7.7 1.75 8.1 2.25 8.45 2.4 8.55 2.85 8.8 3.85 9.45 3.9 9.35 4.0 9.3 3.95 9.25 Q5.75 9.1 7.2 4.9 L9.9 5.3 4.85 10.55 4.55 10.6 3.55 10.65 0.0 8.7 -4.85 5.9 Q-7.3 4.45 -9.75 2.8 L-11.2 2.65 Q-11.75 2.3 -12.25 2.0 L-12.2 1.85 -11.3 1.85 -10.85 1.6 -9.65 -1.4 Q-8.65 -4.25 -7.65 -4.9 L-6.65 -2.55 -6.55 -2.5 Q-7.45 -1.3 -8.35 1.8 L-7.25 2.5 M-4.85 3.95 L-3.35 4.9 -3.05 5.1 -4.85 3.95 M-8.35 1.8 L-11.3 1.85 -8.35 1.8 M4.0 9.3 L4.55 10.6 4.0 9.3 M-11.75 16.25 L-11.7 16.7 -10.75 17.8 -9.3 18.05 Q-8.6 17.95 -8.25 17.4 -7.95 16.8 -8.2 16.15 L-8.3 15.85 -7.05 16.65 -6.55 17.55 Q-6.2 18.6 -6.7 19.5 -7.25 20.4 -8.35 20.6 -9.5 20.8 -10.6 20.2 -11.7 19.55 -12.05 18.5 -12.45 17.4 -11.9 16.5 L-11.75 16.25" fill="#598a93" fill-rule="evenodd" stroke="none"/>
    <path d="M9.3 -20.0 L8.55 -17.7 Q7.45 -15.35 5.65 -13.3 3.8 -11.3 2.2 -10.15 0.6 -9.05 -0.35 -8.9 L-1.05 -9.5 2.0 -13.85 Q5.05 -17.75 9.3 -20.0" fill="#e9f2f3" fill-rule="evenodd" stroke="none"/>
    <path d="M13.45 -15.4 L13.15 -12.95 11.6 -7.2 Q8.4 1.35 2.9 8.75 L2.45 8.5 1.85 8.15 1.75 8.1 1.05 7.7 -0.1 6.95 Q0.5 7.1 0.6 6.45 0.75 5.2 2.6 1.15 4.45 -2.95 6.3 -5.2 L9.75 -10.05 10.2 -10.85 13.45 -15.4 M-5.5 16.9 L-5.3 17.25 Q-4.8 18.8 -5.55 20.1 -6.3 21.4 -7.95 21.65 -9.65 21.95 -11.2 21.05 -12.75 20.1 -13.35 18.55 -13.9 16.95 -13.15 15.65 -12.4 14.35 -10.7 14.05 L-10.65 14.05 -10.5 13.85 -10.5 13.9 -9.75 14.4 -9.65 14.45 -5.5 16.9 M-10.5 14.9 L-11.3 15.4 -11.4 16.0 -11.3 16.3 -10.65 17.1 -9.6 17.3 -8.85 16.8 Q-8.6 16.4 -8.8 15.9 L-8.95 15.5 -9.45 15.1 -10.5 14.9 M-11.75 16.25 L-11.9 16.5 Q-12.45 17.4 -12.05 18.5 -11.7 19.55 -10.6 20.2 -9.5 20.8 -8.35 20.6 -7.25 20.4 -6.7 19.5 -6.2 18.6 -6.55 17.55 L-7.05 16.65 -8.3 15.85 -8.2 16.15 Q-7.95 16.8 -8.25 17.4 -8.6 17.95 -9.3 18.05 L-10.75 17.8 -11.7 16.7 -11.75 16.25" fill="#83b7be" fill-rule="evenodd" stroke="none"/>
    <path d="M-2.5 5.55 L-2.45 5.45 13.3 -21.6 13.3 -21.65 13.5 -21.7 13.5 -21.6 13.6 -17.7 13.5 -15.65 13.45 -15.4 10.2 -10.85 9.75 -10.05 6.3 -5.2 Q4.45 -2.95 2.6 1.15 0.75 5.2 0.6 6.45 0.5 7.1 -0.1 6.95 L-2.1 5.7 -2.2 5.6 -2.35 5.5 -2.4 5.45 -2.5 5.55" fill="#62a3ac" fill-rule="evenodd" stroke="none"/>
    <path d="M2.9 8.75 L3.3 9.0 3.85 9.4 3.9 9.35 3.85 9.45 2.85 8.8 2.4 8.55 2.25 8.45 1.85 8.15 2.45 8.5 2.9 8.75 2.85 8.8 2.9 8.75 M2.45 8.5 L2.4 8.55 2.45 8.5" fill="#f1f16c" fill-rule="evenodd" stroke="none"/>
    <path d="M1.75 8.1 L1.85 8.15 2.25 8.45 1.75 8.1 M3.9 9.35 L4.0 9.3 3.9 9.35" fill="#78783b" fill-rule="evenodd" stroke="none"/>
    <path d="M-3.35 4.9 L-2.45 5.45 -2.5 5.55 -3.0 5.15 -2.5 5.45 -3.05 5.1 -3.35 4.9 M9.9 5.3 L11.1 5.5 9.5 8.2 Q7.8 10.65 5.7 12.85 L5.55 13.05 -0.8 9.1 -1.1 8.9 -1.65 8.6 -6.0 5.9 -6.2 5.75 -11.2 2.65 -9.75 2.8 Q-7.3 4.45 -4.85 5.9 L0.0 8.7 3.55 10.65 4.55 10.6 4.85 10.55 9.9 5.3 M-2.5 5.55 L-2.4 5.45 -2.35 5.5 -2.2 5.6 -2.1 5.7 -2.35 5.5 -2.1 5.7 -1.7 6.15 -2.5 5.55 M5.6 12.95 L5.7 12.85 5.6 12.95 5.55 13.05 5.6 12.95 5.6 12.9 4.55 10.6 5.6 12.9 5.6 12.95" fill="#3f6167" fill-rule="evenodd" stroke="none"/>
    <path d="M-0.8 9.1 L-1.8 10.85 -2.0 11.2 -2.2 11.55 -2.65 12.3 -2.2 11.6 -4.85 16.15 -4.9 16.15 -5.5 16.9 -9.65 14.45 -7.95 14.4 -7.45 14.1 -8.25 12.15 -6.4 13.0 Q-4.85 12.5 -4.75 10.85 L-4.55 8.95 -7.15 7.35 -6.2 5.75 -6.0 5.9 -1.65 8.6 -1.1 8.9 -0.8 9.1 M-1.8 10.85 L-2.2 11.55 -1.8 10.85" fill="#58382b" fill-rule="evenodd" stroke="none"/>
    <path d="M-10.5 13.85 L-10.15 13.05 -10.2 13.05 -10.15 12.95 -9.05 10.7 -8.8 10.25 -8.5 9.75 -8.35 9.65 -7.15 7.35 -4.55 8.95 -4.75 10.85 Q-4.85 12.5 -6.4 13.0 L-8.25 12.15 -7.45 14.1 -7.95 14.4 -9.65 14.45 -9.75 14.4 -10.5 13.85 M-8.8 10.25 L-8.35 9.65 -8.8 10.25" fill="#a1664c" fill-rule="evenodd" stroke="none"/>
    <path d="M-10.5 14.9 L-9.45 15.1 -8.95 15.5 -8.8 15.9 Q-8.6 16.4 -8.85 16.8 L-9.6 17.3 -10.65 17.1 -11.3 16.3 -11.4 16.0 -11.3 15.4 -10.5 14.9" fill="#cae0e3" fill-rule="evenodd" stroke="none"/>
    <path d="M-2.5 5.55 L-2.45 5.45 13.3 -21.6 13.3 -21.65 M-5.15 3.8 L-4.85 3.95 -3.05 5.1 -2.5 5.45 M1.05 7.7 L1.75 8.1 2.25 8.45 M-2.1 5.7 L-0.1 6.95 M-2.1 5.7 L-2.35 5.5" fill="none" stroke="#5f462e" stroke-linecap="round" stroke-linejoin="round" stroke-width="0.05"/>
    <path d="M13.3 -21.65 L13.15 -21.6 12.75 -21.45 11.05 -20.8 9.3 -20.0 Q5.05 -17.75 2.0 -13.85 L-1.05 -9.5 Q-3.95 -4.75 -7.25 2.5 L-5.15 3.8 Q-4.1 4.5 -3.0 5.15 L-2.5 5.45 M13.3 -21.65 L13.5 -21.7 13.5 -21.6 13.6 -17.7 13.5 -15.65 13.45 -15.4 13.15 -12.95 11.6 -7.2 Q8.4 1.35 2.9 8.75 L2.85 8.8 3.85 9.45 3.9 9.35 3.95 9.25 Q5.75 9.1 7.2 4.9 L9.9 5.3 11.1 5.5 9.5 8.2 Q7.8 10.65 5.7 12.85 L5.6 12.95 5.6 12.9 4.55 10.6 4.0 9.3 M5.55 13.05 L-0.8 9.1 -1.8 10.85 -2.2 11.55 -2.65 12.3 M-2.0 11.2 L-2.2 11.55 M-2.2 11.6 L-4.85 16.15 M-4.9 16.15 L-5.5 16.9 -5.3 17.25 Q-4.8 18.8 -5.55 20.1 -6.3 21.4 -7.95 21.65 -9.65 21.95 -11.2 21.05 -12.75 20.1 -13.35 18.55 -13.9 16.95 -13.15 15.65 -12.4 14.35 -10.7 14.05 L-10.65 14.05 -10.5 13.85 -10.15 13.05 M-10.2 13.05 L-10.15 12.95 -9.05 10.7 -8.8 10.25 -8.5 9.75 M-8.35 9.65 L-7.15 7.35 -6.2 5.75 -11.2 2.65 Q-11.75 2.3 -12.25 2.0 L-12.2 1.85 -11.75 0.65 -10.35 -2.5 Q-9.5 -4.2 -8.05 -5.8 L-7.65 -4.9 -6.65 -2.55 -6.55 -2.5 Q-7.45 -1.3 -8.35 1.8 L-7.25 2.5 M-0.1 6.95 L1.05 7.7 M-11.3 1.85 L-8.35 1.8 M-6.2 5.75 L-6.0 5.9 M-1.65 8.6 L-1.1 8.9 M-8.35 9.65 L-8.8 10.25 M-11.3 1.85 L-12.2 1.85 M2.85 8.8 L2.4 8.55 2.25 8.45 M2.4 8.55 L2.45 8.5 M5.55 13.05 L5.6 12.95" fill="none" stroke="#5f462e" stroke-linecap="round" stroke-linejoin="round" stroke-width="0.1"/>
  </g>
</svg>
