<?xml version="1.0" encoding="UTF-8" standalone="no"?>
<svg xmlns:xlink="http://www.w3.org/1999/xlink" height="55.15px" width="9.1px" xmlns="http://www.w3.org/2000/svg">
  <g transform="matrix(1.0, 0.0, 0.0, 1.0, 0.2, 32.6)">
    <path d="M4.85 -24.05 L4.8 -27.3 5.8 -30.55 6.8 -32.6 6.8 -24.05 4.85 -24.05 M4.85 -17.1 L4.85 -21.55 6.8 -21.55 6.8 -17.1 4.85 -17.1" fill="#4f6579" fill-rule="evenodd" stroke="none"/>
    <path d="M6.8 -32.6 L7.85 -30.55 8.85 -27.3 8.8 -24.05 6.8 -24.05 6.8 -32.6 M8.8 -21.55 L8.75 -17.1 6.8 -17.1 6.8 -21.55 8.8 -21.55 M8.45 -14.8 L8.75 -14.75 8.75 -10.15 6.8 -10.15 6.8 -14.8 8.45 -14.8 M8.7 -7.75 L8.9 -0.9 7.7 -0.75 7.7 0.0 5.95 0.0 5.95 -0.75 6.8 -0.85 6.8 -7.75 8.7 -7.75 M8.45 2.7 Q8.2 3.75 8.1 5.4 L7.95 5.45 7.9 5.5 7.75 6.35 7.6 5.85 7.7 3.1 7.8 3.2 8.45 2.7 M8.05 7.95 L8.05 9.35 8.35 15.2 8.45 16.25 8.2 16.25 8.25 17.0 8.1 16.25 7.65 16.05 7.5 16.55 Q7.4 12.85 7.45 9.15 L7.5 9.1 7.5 7.75 7.8 8.55 8.05 7.95 M8.25 19.55 L8.2 19.6 8.2 19.55 8.25 19.55 M5.45 19.6 L5.4 19.55 5.0 19.1 5.0 18.9 6.6 18.9 6.75 19.25 7.5 19.1 Q7.25 19.55 6.8 19.35 L6.8 19.55 5.45 19.55 5.45 19.6 M7.7 -0.75 L6.8 -0.85 7.7 -0.75 M7.8 8.55 L7.8 8.6 7.8 8.55 M6.8 19.35 L6.75 19.25 6.65 19.3 6.6 19.3 6.65 19.3 6.8 19.35 M5.45 19.55 L5.4 19.55 5.45 19.55" fill="#000000" fill-rule="evenodd" stroke="none"/>
    <path d="M8.8 -24.05 L8.8 -24.0 Q8.35 -24.0 8.05 -23.65 7.7 -23.3 7.7 -22.8 7.7 -22.3 8.05 -22.0 8.35 -21.65 8.8 -21.6 L8.8 -21.55 6.8 -21.55 6.8 -24.05 8.8 -24.05 M8.75 -17.1 Q8.35 -17.1 8.05 -16.8 7.7 -16.45 7.7 -15.9 7.7 -15.4 8.05 -15.1 L8.45 -14.8 6.8 -14.8 6.8 -17.1 8.75 -17.1 M8.75 -10.15 L8.75 -10.1 8.15 -9.8 Q7.8 -9.45 7.8 -8.95 7.8 -8.45 8.15 -8.15 8.4 -7.9 8.7 -7.8 L8.7 -7.75 6.8 -7.75 6.8 -10.15 8.75 -10.15" fill="#c8c4b7" fill-rule="evenodd" stroke="none"/>
    <path d="M8.3 1.15 L8.75 1.75 7.8 1.75 7.7 3.1 7.1 2.6 Q6.95 3.1 7.1 3.65 L6.95 3.8 6.75 4.35 6.7 4.4 6.25 4.1 6.6 4.9 6.55 5.15 6.2 5.8 5.9 5.2 5.95 6.1 5.85 6.2 5.6 6.45 5.3 3.15 5.25 2.9 5.7 3.05 5.6 2.3 5.45 1.95 5.7 2.1 6.35 2.15 5.9 1.7 6.2 1.15 7.85 1.15 7.9 1.15 8.3 1.15 M5.15 17.55 L5.15 17.3 5.4 13.85 5.6 14.05 5.65 14.1 Q5.4 14.6 5.55 15.1 L6.0 14.55 6.25 14.8 6.35 15.9 6.55 15.2 6.85 15.5 7.05 15.7 7.4 16.75 7.5 16.55 7.6 18.9 6.6 18.9 Q6.85 18.4 6.7 17.75 6.25 18.05 6.2 18.45 L5.95 18.25 5.8 18.1 5.6 16.9 5.45 17.8 5.15 17.55 M5.55 10.6 L5.6 6.8 5.8 6.75 6.05 7.3 6.2 6.6 6.3 6.55 6.55 6.45 6.65 6.35 6.8 6.95 Q7.25 6.6 7.2 5.95 L7.5 5.7 7.55 5.7 7.6 5.85 7.5 7.75 7.45 9.15 7.15 9.4 6.6 8.8 Q6.5 9.2 6.55 9.65 L6.15 9.95 6.0 9.4 Q5.85 9.75 5.85 10.2 L5.7 10.4 5.6 10.6 5.55 10.6 M4.95 -7.75 L4.95 -7.8 5.5 -8.15 Q5.85 -8.45 5.85 -8.95 5.85 -9.45 5.5 -9.8 L4.9 -10.1 4.9 -10.15 6.8 -10.15 6.8 -7.75 4.95 -7.75 M5.2 -14.8 L5.6 -15.1 Q5.95 -15.4 5.95 -15.9 5.95 -16.45 5.6 -16.8 L4.85 -17.1 6.8 -17.1 6.8 -14.8 5.2 -14.8 M4.85 -21.55 L4.85 -21.6 Q5.3 -21.65 5.6 -22.0 5.95 -22.3 5.95 -22.8 5.95 -23.3 5.6 -23.65 5.3 -24.0 4.85 -24.0 L4.85 -24.05 6.8 -24.05 6.8 -21.55 4.85 -21.55" fill="#f7f5f4" fill-rule="evenodd" stroke="none"/>
    <path d="M4.9 -10.15 L4.9 -14.75 5.2 -14.8 6.8 -14.8 6.8 -10.15 4.9 -10.15" fill="#435667" fill-rule="evenodd" stroke="none"/>
    <path d="M7.7 0.0 L8.3 0.0 8.3 1.15 7.9 1.15 7.85 1.15 6.2 1.15 5.35 1.15 5.35 0.0 5.95 0.0 7.7 0.0 M8.2 19.6 L8.2 20.45 6.15 20.45 5.45 20.45 5.45 19.6 5.45 19.55 6.8 19.55 8.2 19.55 8.2 19.6" fill="#a8a3c2" fill-rule="evenodd" stroke="none"/>
    <path d="M5.0 18.9 L5.15 17.55 5.45 17.8 5.6 16.9 5.8 18.1 5.95 18.25 6.2 18.45 Q6.25 18.05 6.7 17.75 6.85 18.4 6.6 18.9 L5.0 18.9 M5.4 13.85 L5.55 10.7 5.6 10.6 5.7 10.4 5.85 10.2 Q5.85 9.75 6.0 9.4 L6.15 9.95 6.55 9.65 Q6.5 9.2 6.6 8.8 L7.15 9.4 7.45 9.15 Q7.4 12.85 7.5 16.55 L7.4 16.75 7.05 15.7 6.85 15.5 6.55 15.2 6.35 15.9 6.25 14.8 6.0 14.55 5.55 15.1 Q5.4 14.6 5.65 14.1 L5.6 14.05 5.4 13.85 M5.6 6.8 L5.6 6.45 5.85 6.2 5.95 6.1 5.9 5.2 6.2 5.8 6.55 5.15 6.6 4.9 6.25 4.1 6.7 4.4 6.75 4.35 6.95 3.8 7.1 3.65 Q6.95 3.1 7.1 2.6 L7.7 3.1 7.6 5.85 7.55 5.7 7.5 5.7 7.2 5.95 Q7.25 6.6 6.8 6.95 L6.65 6.35 6.55 6.45 6.3 6.55 6.2 6.6 6.05 7.3 5.8 6.75 5.6 6.8 M5.25 2.9 L4.9 1.75 5.35 1.15 6.2 1.15 5.9 1.7 6.35 2.15 5.7 2.1 5.45 1.95 5.6 2.3 5.7 3.05 5.25 2.9 M5.95 -0.75 L4.75 -0.9 4.95 -7.75 6.8 -7.75 6.8 -0.85 5.95 -0.75 M6.2 18.45 L6.35 18.6 6.25 18.45 6.2 18.45" fill="#3a4a5c" fill-rule="evenodd" stroke="none"/>
    <path d="M8.75 1.75 L8.6 2.05 8.45 2.7 7.8 3.2 7.7 3.1 7.8 1.75 8.75 1.75 M8.1 5.4 L8.05 7.05 8.05 7.95 7.8 8.55 7.5 7.75 7.6 5.85 7.75 6.35 7.9 5.5 7.95 5.45 8.1 5.4 M8.45 16.25 L8.65 19.1 8.25 19.55 8.2 19.55 6.8 19.55 6.8 19.35 Q7.25 19.55 7.5 19.1 L6.75 19.25 6.6 18.9 7.6 18.9 7.5 16.55 7.65 16.05 8.1 16.25 8.25 17.0 8.2 16.25 8.45 16.25 M5.55 10.7 L5.55 10.6 5.6 10.6 5.55 10.7 M7.8 8.55 L7.8 8.6 7.8 8.55 M7.5 7.75 L7.5 9.1 7.45 9.15 7.5 7.75 M6.2 18.45 L6.25 18.45 6.35 18.6 6.2 18.45 M6.8 19.35 L6.65 19.3 6.6 19.3 6.65 19.3 6.75 19.25 6.8 19.35" fill="#dbd9ce" fill-rule="evenodd" stroke="none"/>
    <path d="M5.15 22.3 L4.4 22.55 4.35 22.55 Q1.95 22.55 1.35 20.45 1.15 19.7 1.3 19.0 1.5 18.0 2.15 16.9 3.0 15.35 2.8 13.55 2.65 12.55 1.85 12.35 L1.75 12.35 Q1.1 12.25 0.75 12.7 L0.5 13.2 0.3 13.4 0.2 13.4 0.05 13.4 -0.15 13.2 -0.15 12.95 Q0.05 12.4 0.35 12.1 0.9 11.45 1.9 11.65 L2.05 11.7 Q3.25 12.0 3.5 13.45 3.7 15.5 2.75 17.2 2.2 18.2 2.0 19.15 1.85 19.7 2.0 20.25 2.5 21.85 4.3 21.85 L4.8 21.65 5.15 22.3" fill="#c2bfaf" fill-rule="evenodd" stroke="none"/>
    <path d="M6.15 20.45 Q6.1 21.65 5.3 22.2 L5.15 22.3 4.8 21.65 4.85 21.65 Q5.4 21.25 5.45 20.45 L6.15 20.45" fill="#877c47" fill-rule="evenodd" stroke="none"/>
    <path d="M4.85 -24.05 L4.8 -27.3 5.8 -30.55 6.8 -32.6 7.85 -30.55 8.85 -27.3 8.8 -24.05 8.8 -24.0 Q8.35 -24.0 8.05 -23.65 7.7 -23.3 7.7 -22.8 7.7 -22.3 8.05 -22.0 8.35 -21.65 8.8 -21.6 L8.8 -21.55 8.75 -17.1 Q8.35 -17.1 8.05 -16.8 7.7 -16.45 7.7 -15.9 7.7 -15.4 8.05 -15.1 L8.45 -14.8 8.75 -14.75 8.75 -10.15 8.75 -10.1 8.15 -9.8 Q7.8 -9.45 7.8 -8.95 7.8 -8.45 8.15 -8.15 8.4 -7.9 8.7 -7.8 L8.7 -7.75 8.9 -0.9 7.7 -0.75 6.8 -0.85 5.95 -0.75 4.75 -0.9 4.95 -7.75 4.95 -7.8 5.5 -8.15 Q5.85 -8.45 5.85 -8.95 5.85 -9.45 5.5 -9.8 L4.9 -10.1 4.9 -10.15 4.9 -14.75 M7.7 0.0 L8.3 0.0 8.3 1.15 8.75 1.75 8.6 2.05 M8.45 2.7 Q8.2 3.75 8.1 5.4 L8.05 7.05 M8.05 7.95 L8.05 9.35 8.35 15.2 8.45 16.25 8.65 19.1 8.25 19.55 8.2 19.55 6.8 19.55 5.45 19.55 5.4 19.55 5.0 19.1 5.0 18.9 5.15 17.55 M8.2 20.45 L6.15 20.45 Q6.1 21.65 5.3 22.2 L5.15 22.3 4.4 22.55 4.35 22.55 Q1.95 22.55 1.35 20.45 1.15 19.7 1.3 19.0 1.5 18.0 2.15 16.9 3.0 15.35 2.8 13.55 2.65 12.55 1.85 12.35 L1.75 12.35 Q1.1 12.25 0.75 12.7 L0.5 13.2 0.3 13.4 0.2 13.4 0.05 13.4 -0.15 13.2 -0.15 12.95 Q0.05 12.4 0.35 12.1 0.9 11.45 1.9 11.65 L2.05 11.7 Q3.25 12.0 3.5 13.45 3.7 15.5 2.75 17.2 2.2 18.2 2.0 19.15 1.85 19.7 2.0 20.25 2.5 21.85 4.3 21.85 L4.8 21.65 4.85 21.65 Q5.4 21.25 5.45 20.45 L6.15 20.45 M5.15 17.3 L5.4 13.85 5.55 10.7 5.55 10.6 5.6 6.8 5.6 6.45 5.3 3.15 M5.25 2.9 L4.9 1.75 5.35 1.15 5.35 0.0 5.95 0.0 M5.2 -14.8 L5.6 -15.1 Q5.95 -15.4 5.95 -15.9 5.95 -16.45 5.6 -16.8 L4.85 -17.1 4.85 -21.55 4.85 -21.6 Q5.3 -21.65 5.6 -22.0 5.95 -22.3 5.95 -22.8 5.95 -23.3 5.6 -23.65 5.3 -24.0 4.85 -24.0 L4.85 -24.05 M6.8 -24.05 L6.8 -32.6 M6.8 -24.05 L6.8 -21.55 6.8 -17.1 6.8 -14.8 6.8 -10.15 6.8 -7.75 6.8 -0.85 M7.9 1.15 L8.3 1.15 M5.35 1.15 L6.2 1.15 7.85 1.15" fill="none" stroke="#000000" stroke-linecap="round" stroke-linejoin="round" stroke-width="0.05"/>
    <path d="M8.2 19.6 L8.2 20.45 M5.45 20.45 L5.45 19.6 5.45 19.55 M8.2 19.55 L8.2 19.6" fill="none" stroke="#161f81" stroke-linecap="round" stroke-linejoin="round" stroke-width="0.05"/>
  </g>
</svg>
