<?xml version="1.0" encoding="UTF-8" standalone="no"?>
<svg xmlns:xlink="http://www.w3.org/1999/xlink" height="144.45px" width="57.25px" xmlns="http://www.w3.org/2000/svg">
  <g transform="matrix(1.0, 0.0, 0.0, 1.0, 28.6, 72.2)">
    <path d="M-24.2 48.95 L-25.4 48.25 Q8.0 -11.1 -15.35 -63.35 L-14.05 -63.6 -9.7 -64.55 Q-3.15 -48.55 -1.8 -31.2 -0.5 -13.9 -4.5 -0.45 -8.55 12.95 -10.3 20.6 -12.05 28.2 -8.8 29.5 L-4.9 32.6 -6.1 35.45 -9.9 32.05 -11.15 34.85 -7.35 38.15 -8.35 40.3 -12.0 36.65 -13.65 40.1 -9.9 43.4 -11.15 45.85 -14.95 42.75 -16.8 46.2 -12.9 49.1 -14.15 51.35 -18.4 49.15 -19.75 51.45 -18.4 49.15 -14.15 51.35 -12.9 49.1 -16.8 46.2 -14.95 42.75 -11.15 45.85 -9.9 43.4 -13.65 40.1 -12.0 36.65 -8.35 40.3 -7.35 38.15 -11.15 34.85 -9.9 32.05 -6.1 35.45 -4.9 32.6 -8.8 29.5 -7.9 27.3 -3.85 30.1 -3.1 28.3 Q3.55 26.0 7.2 14.9 L15.35 -11.35 Q19.9 -26.5 19.8 -40.05 L19.4 -63.1 19.05 -68.4 20.95 -68.9 24.0 -69.8 Q26.75 6.5 -10.95 56.3 L-13.15 54.9 -15.35 53.45 -19.75 51.45 -24.2 48.95" fill="#e0dcba" fill-rule="evenodd" stroke="none"/>
    <path d="M-14.05 -63.6 L-15.35 -63.35 Q8.0 -11.1 -25.4 48.25 L-24.2 48.95 -25.6 50.4 -28.1 47.2 Q5.45 -14.5 -20.25 -66.0 L-15.6 -66.0 -14.05 -63.6 M20.95 -68.9 L22.1 -71.7 28.15 -71.7 Q27.75 9.55 -3.75 53.0 L-5.8 55.75 -9.55 60.35 -12.55 58.0 -13.15 57.5 -13.15 54.9 -10.95 56.3 Q26.75 6.5 24.0 -69.8 L20.95 -68.9" fill="#990000" fill-rule="evenodd" stroke="none"/>
    <path d="M-8.8 29.5 Q-12.05 28.2 -10.3 20.6 -8.55 12.95 -4.5 -0.45 -0.5 -13.9 -1.8 -31.2 -3.15 -48.55 -9.7 -64.55 L-0.5 -66.55 0.1 -63.8 2.4 -64.25 3.1 -61.05 Q2.0 -60.55 0.85 -60.2 L1.45 -56.9 2.1 -57.25 3.65 -57.9 4.2 -54.7 1.95 -53.75 2.45 -50.05 4.75 -50.7 5.25 -46.75 2.9 -46.45 3.25 -42.3 5.65 -42.5 5.9 -38.4 3.55 -38.35 3.7 -34.95 5.75 -34.95 6.15 -31.4 3.75 -31.55 3.8 -27.9 6.15 -27.9 6.1 -24.8 3.75 -24.8 3.6 -21.0 5.95 -21.0 5.75 -17.2 3.35 -17.2 3.05 -14.0 5.45 -14.0 5.15 -11.0 8.15 -10.2 8.7 -12.9 6.3 -13.3 6.95 -16.8 9.3 -16.3 10.05 -20.65 7.55 -20.6 8.25 -24.95 10.75 -25.2 11.2 -28.7 8.75 -28.75 9.15 -31.95 11.65 -32.2 12.15 -36.55 9.6 -35.85 9.9 -39.15 12.45 -39.45 12.75 -42.95 10.15 -42.05 10.5 -46.8 13.15 -47.8 13.35 -51.2 10.7 -50.5 10.95 -55.5 13.65 -56.85 13.8 -60.9 11.1 -60.35 11.15 -63.95 13.9 -64.9 13.9 -66.55 13.9 -66.95 19.05 -68.4 19.4 -63.1 19.8 -40.05 Q19.9 -26.5 15.35 -11.35 L7.2 14.9 Q3.55 26.0 -3.1 28.3 L-2.9 27.75 -6.9 24.75 -5.9 22.15 -1.75 24.7 -0.65 21.75 -4.8 19.1 -4.0 16.8 0.25 19.2 1.15 16.5 -3.05 13.95 -2.15 11.05 2.1 13.45 3.15 10.1 -1.25 8.1 -0.4 5.15 3.9 7.45 4.85 3.9 0.4 2.1 1.1 -0.65 5.55 1.2 6.2 -1.4 1.7 -3.3 2.05 -5.4 6.95 -4.6 7.45 -6.7 4.75 -7.8 2.4 -8.2 2.75 -11.0 5.15 -11.0 2.75 -11.0 2.4 -8.2 4.75 -7.8 7.45 -6.7 6.95 -4.6 2.05 -5.4 1.7 -3.3 6.2 -1.4 5.55 1.2 1.1 -0.65 0.4 2.1 4.85 3.9 3.9 7.45 -0.4 5.15 -1.25 8.1 3.15 10.1 2.1 13.45 -2.15 11.05 -3.05 13.95 1.15 16.5 0.25 19.2 -4.0 16.8 -4.8 19.1 -0.65 21.75 -1.75 24.7 -5.9 22.15 -6.9 24.75 -2.9 27.75 -3.1 28.3 -3.85 30.1 -7.9 27.3 -8.8 29.5 M15.35 -60.9 L13.8 -60.9 15.35 -60.9 M-2.3 -63.05 L0.1 -63.8 -2.3 -63.05 M11.1 -16.3 L9.3 -16.3 11.1 -16.3 M13.25 -32.2 L11.65 -32.2 13.25 -32.2 M11.9 -20.65 L10.05 -20.65 11.9 -20.65 M12.45 -25.2 L10.75 -25.2 12.45 -25.2 M-0.45 -21.0 L3.6 -21.0 -0.45 -21.0 M0.9 -14.0 L3.05 -14.0 0.9 -14.0 M1.7 -17.2 L3.35 -17.2 1.7 -17.2 M0.9 -27.9 L3.8 -27.9 0.9 -27.9 M1.45 -24.8 L3.75 -24.8 1.45 -24.8 M0.9 -34.95 L2.25 -34.95 3.7 -34.95 2.25 -34.95 0.9 -34.95 M1.7 -31.7 L3.05 -31.65 3.75 -31.55 3.05 -31.65 1.7 -31.7 M-1.25 -55.85 Q0.15 -56.3 1.45 -56.9 0.15 -56.3 -1.25 -55.85 M3.25 -42.3 L0.9 -41.9 3.25 -42.3 M0.65 -38.15 L1.45 -38.2 3.55 -38.35 1.45 -38.2 0.65 -38.15 M2.9 -46.45 L0.9 -46.2 2.9 -46.45 M-1.25 -59.6 L-0.7 -59.8 0.85 -60.2 -0.7 -59.8 -1.25 -59.6 M2.45 -50.05 L0.1 -49.7 2.45 -50.05 M1.95 -53.75 Q0.85 -53.15 -0.15 -52.35 0.85 -53.15 1.95 -53.75 M15.9 -49.4 L13.15 -47.8 15.9 -49.4 M14.85 -39.45 L12.45 -39.45 14.85 -39.45 M14.85 -42.95 L12.75 -42.95 14.85 -42.95 M15.35 -58.0 L13.65 -56.85 15.35 -58.0" fill="#edebd8" fill-rule="evenodd" stroke="none"/>
    <path d="M-24.2 48.95 L-25.4 48.25 Q8.0 -11.1 -15.35 -63.35 L-14.05 -63.6 -15.6 -66.0 -20.25 -66.0 Q5.45 -14.5 -28.1 47.2 L-25.6 50.4 -24.2 48.95 -19.75 51.45 -18.4 49.15 -14.15 51.35 -12.9 49.1 -16.8 46.2 -14.95 42.75 -11.15 45.85 -9.9 43.4 -13.65 40.1 -12.0 36.65 -8.35 40.3 -7.35 38.15 -11.15 34.85 -9.9 32.05 -6.1 35.45 -4.9 32.6 -8.8 29.5 -7.9 27.3 -3.85 30.1 -3.1 28.3 -2.9 27.75 -6.9 24.75 -5.9 22.15 -1.75 24.7 -0.65 21.75 -4.8 19.1 -4.0 16.8 0.25 19.2 1.15 16.5 -3.05 13.95 -2.15 11.05 2.1 13.45 3.15 10.1 -1.25 8.1 -0.4 5.15 3.9 7.45 4.85 3.9 0.4 2.1 1.1 -0.65 5.55 1.2 6.2 -1.4 1.7 -3.3 2.05 -5.4 6.95 -4.6 7.45 -6.7 4.75 -7.8 2.4 -8.2 2.75 -11.0 5.15 -11.0 8.15 -10.2 8.7 -12.9 6.3 -13.3 6.95 -16.8 9.3 -16.3 10.05 -20.65 7.55 -20.6 8.25 -24.95 10.75 -25.2 11.2 -28.7 8.75 -28.75 9.15 -31.95 11.65 -32.2 12.15 -36.55 9.6 -35.85 9.9 -39.15 12.45 -39.45 12.75 -42.95 10.15 -42.05 10.5 -46.8 13.15 -47.8 13.35 -51.2 10.7 -50.5 10.95 -55.5 13.65 -56.85 13.8 -60.9 11.1 -60.35 11.15 -63.95 13.9 -64.9 13.9 -66.55 13.9 -66.95 19.05 -68.4 20.95 -68.9 22.1 -71.7 28.15 -71.7 Q27.75 9.55 -3.75 53.0 -3.7 54.85 -1.7 56.0 L0.05 56.8 M-9.7 -64.55 L-14.05 -63.6 M0.1 -63.8 L-0.5 -66.55 -9.7 -64.55 M0.85 -60.2 Q2.0 -60.55 3.1 -61.05 L2.4 -64.25 0.1 -63.8 -2.3 -63.05 M13.8 -60.9 L15.35 -60.9 M0.85 -60.2 L1.45 -56.9 2.1 -57.25 3.65 -57.9 4.2 -54.7 1.95 -53.75 2.45 -50.05 4.75 -50.7 5.25 -46.75 2.9 -46.45 3.25 -42.3 5.65 -42.5 5.9 -38.4 3.55 -38.35 3.7 -34.95 5.75 -34.95 6.15 -31.4 3.75 -31.55 3.8 -27.9 6.15 -27.9 6.1 -24.8 3.75 -24.8 3.6 -21.0 5.95 -21.0 5.75 -17.2 3.35 -17.2 3.05 -14.0 5.45 -14.0 5.15 -11.0 M20.95 -68.9 L24.0 -69.8 Q26.75 6.5 -10.95 56.3 L-13.15 54.9 -13.15 57.5 -12.55 58.0 -9.55 60.35 -5.8 55.75 -3.75 53.0 M13.65 -56.85 L15.35 -58.0 M12.75 -42.95 L14.85 -42.95 M12.45 -39.45 L14.85 -39.45 M13.15 -47.8 L15.9 -49.4 M-0.15 -52.35 Q0.85 -53.15 1.95 -53.75 M0.1 -49.7 L2.45 -50.05 M0.85 -60.2 L-0.7 -59.8 -1.25 -59.6 M0.9 -46.2 L2.9 -46.45 M3.55 -38.35 L1.45 -38.2 0.65 -38.15 M0.9 -41.9 L3.25 -42.3 M1.45 -56.9 Q0.15 -56.3 -1.25 -55.85 M3.75 -31.55 L3.05 -31.65 1.7 -31.7 M3.7 -34.95 L2.25 -34.95 0.9 -34.95 M3.75 -24.8 L1.45 -24.8 M3.8 -27.9 L0.9 -27.9 M3.35 -17.2 L1.7 -17.2 M3.05 -14.0 L0.9 -14.0 M3.6 -21.0 L-0.45 -21.0 M10.75 -25.2 L12.45 -25.2 M10.05 -20.65 L11.9 -20.65 M11.65 -32.2 L13.25 -32.2 M9.3 -16.3 L11.1 -16.3 M-5.8 55.75 Q-3.75 57.65 -3.4 60.15 -2.95 63.55 -3.5 67.1 M-7.05 58.2 Q-5.45 60.3 -7.1 62.45 -8.55 64.45 -8.6 66.75 -8.65 69.25 -6.35 70.7 M-19.75 51.45 L-15.35 53.45 -13.15 54.9 M-18.8 71.75 Q-15.95 69.3 -17.15 65.75 L-17.25 65.45 -19.1 65.6 -19.95 65.0 Q-20.6 64.1 -19.55 63.55 -17.95 63.75 -17.25 65.45 L-16.95 65.25 Q-12.85 62.75 -12.55 58.0" fill="none" stroke="#000000" stroke-linecap="round" stroke-linejoin="round" stroke-opacity="0.4" stroke-width="1.0"/>
  </g>
</svg>
