<?xml version="1.0" encoding="UTF-8" standalone="no"?>
<svg xmlns:xlink="http://www.w3.org/1999/xlink" height="182.6px" width="86.35px" xmlns="http://www.w3.org/2000/svg">
  <g transform="matrix(1.0, 0.0, 0.0, 1.0, 0.5, 0.5)">
    <path d="M69.6 86.75 L69.15 86.75 69.6 86.75 M67.5 70.55 Q74.75 74.65 75.9 78.15 77.0 81.55 73.9 87.2 73.5 80.75 72.2 81.7 70.9 82.65 70.45 86.6 68.8 81.3 64.3 81.7 59.75 82.15 57.65 81.85 L56.55 81.75 54.9 81.95 Q52.6 82.45 50.95 84.3 49.9 85.45 49.35 86.75 L35.3 86.75 32.7 82.65 Q31.1 80.0 24.95 81.15 21.0 81.85 20.2 85.25 20.3 82.65 19.7 82.45 L19.45 81.8 18.15 80.7 Q18.05 80.45 17.05 80.7 L17.0 80.75 17.0 80.45 Q17.0 74.75 23.1 70.55 L25.3 69.8 Q27.55 69.05 30.1 68.55 L34.05 67.85 37.0 67.55 37.95 67.45 45.3 67.15 52.5 67.45 58.5 68.15 Q62.15 68.8 65.3 69.8 L67.5 70.55" fill="#80450b" fill-rule="evenodd" stroke="none"/>
    <path d="M26.75 82.65 Q25.65 83.8 25.05 85.2 24.85 83.4 23.6 82.0 L23.3 81.7 Q21.55 79.95 19.1 79.95 16.65 79.95 14.9 81.6 14.4 80.2 14.45 78.65 14.4 73.0 21.1 68.75 L23.45 68.0 23.6 67.95 Q27.0 67.0 30.9 66.4 L36.6 69.1 50.8 71.2 54.95 80.2 48.4 75.45 Q48.9 74.9 47.95 74.35 L34.1 74.9 31.2 76.35 32.3 79.75 29.7 79.0 27.7 81.8 26.9 82.5 26.75 82.65 M54.4 65.75 L57.6 66.1 52.85 68.05 54.4 65.75 M38.95 70.2 L35.6 70.3 30.1 70.6 25.0 75.1 26.05 77.75 37.3 73.3 34.5 74.7 43.1 72.1 38.95 70.2" fill="#c74601" fill-rule="evenodd" stroke="none"/>
    <path d="M61.9 66.8 L67.1 68.0 69.5 68.75 Q76.15 73.0 76.15 78.65 L76.1 78.95 73.8 78.65 Q72.35 78.65 71.05 79.1 L61.9 66.8 M29.7 79.0 L32.3 79.75 31.2 76.35 34.1 74.9 47.95 74.35 Q48.9 74.9 48.4 75.45 L47.5 77.25 55.65 86.2 56.0 86.6 56.6 87.2 55.85 87.65 Q53.6 89.15 51.5 91.6 51.2 89.75 49.85 88.4 48.1 86.65 45.65 86.65 44.25 86.65 43.1 87.2 42.3 87.55 41.65 88.15 L41.35 86.2 Q40.75 84.15 39.15 82.5 37.3 80.65 34.85 80.2 L33.05 80.0 32.25 79.8 29.7 79.0 M38.95 70.2 L43.1 72.1 34.5 74.7 37.3 73.3 26.05 77.75 25.0 75.1 30.1 70.6 35.6 70.3 38.95 70.2" fill="#f15501" fill-rule="evenodd" stroke="none"/>
    <path d="M30.9 66.4 L37.4 65.65 45.3 65.4 53.3 65.65 54.4 65.75 52.85 68.05 59.9 72.45 50.8 71.2 36.6 69.1 30.9 66.4" fill="#a22e02" fill-rule="evenodd" stroke="none"/>
    <path d="M57.6 66.1 L61.9 66.8 71.05 79.1 Q69.3 79.7 67.95 81.05 66.1 82.9 65.65 85.3 L62.0 85.45 61.45 85.55 61.55 85.3 60.85 85.6 58.7 86.2 56.6 87.2 56.0 86.6 55.65 86.2 47.5 77.25 48.4 75.45 54.95 80.2 50.8 71.2 59.9 72.45 52.85 68.05 57.6 66.1 M76.15 78.65 L76.15 78.95 76.1 78.95 76.15 78.65" fill="#ff6c00" fill-rule="evenodd" stroke="none"/>
    <path d="M53.6 115.95 L61.6 115.65 63.65 115.1 Q72.2 116.05 75.0 117.3 L75.2 117.4 74.95 117.4 72.1 117.45 71.55 117.5 65.25 117.7 61.55 117.85 Q61.1 118.7 58.75 118.05 L57.1 118.15 57.05 118.15 57.0 118.15 56.65 117.3 53.6 115.95 M53.65 135.2 L66.1 133.7 70.0 133.6 Q71.45 133.8 72.45 134.5 L72.45 134.75 72.2 134.75 70.7 134.9 70.6 134.9 70.35 134.9 67.9 135.15 64.3 135.5 59.45 136.05 59.2 136.1 58.15 136.2 53.45 136.8 53.65 135.2 M52.95 146.0 L64.85 145.5 72.2 148.2 71.95 148.2 69.65 148.45 61.8 149.1 52.65 149.85 52.95 146.0 M72.6 157.35 L70.7 158.95 62.8 158.3 64.9 157.35 72.6 157.35 M50.6 159.55 L50.65 159.6 37.1 159.45 33.1 146.05 33.65 144.8 33.65 125.55 35.2 112.7 37.4 112.4 36.2 104.05 44.8 92.2 48.25 95.85 60.4 85.8 60.85 85.6 61.55 85.3 61.35 85.55 46.85 101.45 43.15 104.0 43.65 114.8 41.5 109.65 40.5 119.5 40.0 124.7 40.05 126.95 40.4 138.85 40.4 139.0 Q34.55 151.75 38.2 153.4 L38.1 154.05 43.2 156.25 50.35 159.4 50.0 159.4 50.6 159.55 M33.2 98.4 L33.05 96.5 35.05 96.35 33.2 98.4 M61.35 85.55 L60.85 85.6 61.35 85.55 M57.0 118.15 L57.1 118.15 57.0 118.15 M70.7 134.9 L70.35 134.9 70.7 134.9" fill="#ae650d" fill-rule="evenodd" stroke="none"/>
    <path d="M61.45 85.55 L54.65 96.85 53.5 101.35 53.0 103.35 46.85 101.45 61.35 85.55 61.55 85.3 61.45 85.55 61.35 85.55 61.45 85.55 M51.3 114.8 L53.6 115.95 56.65 117.3 57.0 118.15 57.05 118.15 57.1 118.15 58.75 118.05 Q61.1 118.7 61.55 117.85 L65.25 117.7 63.65 118.35 46.4 124.7 47.4 126.75 46.25 124.75 47.4 126.75 47.6 127.15 44.9 130.1 48.0 138.4 51.05 146.7 52.95 146.0 52.65 149.85 61.8 149.1 59.9 155.2 55.55 150.0 52.8 151.4 51.5 147.95 Q41.35 154.8 38.2 153.4 34.55 151.75 40.4 139.0 L40.4 138.85 40.05 126.95 46.25 124.75 46.4 124.7 43.3 118.3 40.5 119.5 41.5 109.65 43.65 114.8 42.2 115.95 43.3 118.3 51.3 114.8 M65.6 143.0 L58.0 143.3 59.0 137.15 65.6 143.0 M62.45 158.3 L59.25 158.0 59.05 158.05 59.9 155.2 62.45 158.3 M52.1 116.15 L57.0 118.15 52.1 116.15 M58.15 136.2 L59.2 136.1 59.0 137.15 58.15 136.2 M59.5 153.8 L60.65 151.45 59.5 153.8" fill="#f3b347" fill-rule="evenodd" stroke="none"/>
    <path d="M37.1 159.45 L34.55 159.4 30.9 151.05 33.1 146.05 37.1 159.45 M35.2 112.7 L33.6 103.85 33.2 98.4 35.05 96.35 33.05 96.5 Q32.6 90.6 26.75 82.65 L26.9 82.5 27.7 81.8 29.7 79.0 32.25 79.8 33.05 80.0 34.85 80.2 Q37.3 80.65 39.15 82.5 40.75 84.15 41.35 86.2 L41.65 88.15 Q42.3 87.55 43.1 87.2 44.25 86.65 45.65 86.65 48.1 86.65 49.85 88.4 51.2 89.75 51.5 91.6 53.6 89.15 55.85 87.65 L60.4 85.8 48.25 95.85 44.8 92.2 36.2 104.05 37.4 112.4 35.2 112.7" fill="#9d550d" fill-rule="evenodd" stroke="none"/>
    <path d="M74.45 120.6 L70.2 123.9 66.9 128.25 63.65 118.35 65.25 117.7 71.55 117.5 72.1 117.45 73.95 119.95 74.45 120.6 M72.45 137.75 L72.45 139.05 70.3 142.8 65.6 143.0 59.0 137.15 59.2 136.1 59.45 136.05 64.3 135.5 67.9 135.15 70.35 134.9 70.6 134.9 70.7 134.9 72.45 137.75 M59.05 158.05 L50.6 159.55 50.0 159.4 50.35 159.4 43.2 156.25 52.8 151.4 55.55 150.0 59.9 155.2 59.05 158.05 M73.95 119.95 L71.55 117.5 73.95 119.95 M40.5 119.5 L43.3 118.3 46.4 124.7 46.25 124.75 40.05 126.95 40.0 124.7 40.5 119.5" fill="#f3ab54" fill-rule="evenodd" stroke="none"/>
    <path d="M74.95 117.4 L74.45 120.6 73.95 119.95 72.1 117.45 74.95 117.4 M72.45 134.75 L72.45 137.75 70.7 134.9 72.2 134.75 72.45 134.75 M71.95 148.2 L73.0 150.95 71.95 151.25 69.65 148.45 71.95 148.2" fill="#f8cf9e" fill-rule="evenodd" stroke="none"/>
    <path d="M53.0 103.35 L52.55 105.0 50.25 114.25 51.3 114.8 43.3 118.3 42.2 115.95 43.65 114.8 43.15 104.0 46.85 101.45 53.0 103.35 M66.9 128.25 L54.55 129.4 53.65 135.2 53.45 136.8 58.15 136.2 59.0 137.15 58.0 143.3 53.15 143.45 52.95 146.0 51.05 146.7 48.0 138.4 44.9 130.1 47.6 127.15 47.4 126.75 46.4 124.7 63.65 118.35 66.9 128.25 M73.0 150.95 L74.3 154.4 74.4 155.85 72.6 157.35 64.9 157.35 62.8 158.3 62.45 158.3 59.9 155.2 61.8 149.1 69.65 148.45 71.95 151.25 73.0 150.95 M52.55 105.0 L50.3 112.65 52.55 105.0 M45.75 131.1 L48.0 138.4 45.75 131.1 M38.2 153.4 Q41.35 154.8 51.5 147.95 L52.8 151.4 43.2 156.25 38.1 154.05 38.2 153.4 M63.0 149.4 L69.5 149.1 63.0 149.4" fill="#f09a33" fill-rule="evenodd" stroke="none"/>
    <path d="M26.75 82.65 Q25.65 83.8 25.05 85.2 24.85 83.4 23.6 82.0 L23.3 81.7 Q21.55 79.95 19.1 79.95 16.65 79.95 14.9 81.6 14.4 80.2 14.45 78.65 14.4 73.0 21.1 68.75 L23.45 68.0 23.6 67.95 Q27.0 67.0 30.9 66.4 L37.4 65.65 45.3 65.4 53.3 65.65 54.4 65.75 57.6 66.1 61.9 66.8 67.1 68.0 69.5 68.75 Q76.15 73.0 76.15 78.65 L76.15 78.95 76.1 78.95 73.8 78.65 Q72.35 78.65 71.05 79.1 69.3 79.7 67.95 81.05 66.1 82.9 65.65 85.3 L62.0 85.45 61.45 85.55 61.35 85.55 60.85 85.6 58.7 86.2 56.6 87.2 55.85 87.65 Q53.6 89.15 51.5 91.6 51.2 89.75 49.85 88.4 48.1 86.65 45.65 86.65 44.25 86.65 43.1 87.2 42.3 87.55 41.65 88.15 L41.35 86.2 Q40.75 84.15 39.15 82.5 37.3 80.65 34.85 80.2 L33.05 80.0 32.25 79.8 29.7 79.0 32.3 79.75 M26.75 82.65 L26.9 82.5 27.7 81.8 29.7 79.0" fill="none" stroke="#593f01" stroke-linecap="round" stroke-linejoin="round" stroke-width="0.05"/>
    <path d="M57.0 118.15 L52.1 116.15 M57.1 118.15 L57.0 118.15 M71.55 117.5 L73.95 119.95 M50.3 112.65 L52.55 105.0 M46.25 124.75 L47.4 126.75 M48.0 138.4 L45.75 131.1 M59.45 136.05 L64.3 135.5 67.9 135.15 70.35 134.9 70.7 134.9 M60.65 151.45 L59.5 153.8 M69.5 149.1 L63.0 149.4" fill="none" stroke="#fafacd" stroke-linecap="round" stroke-linejoin="round" stroke-width="0.05"/>
    <path d="M45.85 34.1 Q46.1 35.15 47.0 35.75 L48.0 40.4 45.6 42.05 47.5 50.05 44.2 65.6 42.65 66.25 42.95 53.3 38.0 41.9 31.8 50.55 29.55 47.75 31.7 39.6 40.45 29.55 40.85 28.5 45.7 29.7 46.55 33.55 46.1 33.8 45.85 34.1 M43.05 68.6 L41.7 67.3 43.55 67.7 43.05 68.6" fill="#023401" fill-rule="evenodd" stroke="none"/>
    <path d="M52.25 170.3 Q47.7 168.25 45.4 166.85 L43.8 165.8 Q42.95 165.15 42.85 164.7 L42.6 162.75 Q42.65 161.45 46.6 160.85 50.1 158.2 48.8 158.6 L52.1 157.35 54.15 157.35 54.35 157.5 53.85 157.45 53.55 157.85 51.4 160.55 49.8 160.55 50.65 161.0 Q49.2 161.9 48.3 163.0 L48.2 163.2 Q47.05 164.65 46.75 166.35 46.75 166.8 47.4 167.35 48.65 168.35 52.45 169.85 L52.25 170.3 M64.45 160.05 L64.6 160.0 64.5 160.1 64.45 160.05" fill="#f3b347" fill-rule="evenodd" stroke="none"/>
    <path d="M54.15 157.35 L62.4 157.35 62.4 157.85 57.4 157.9 57.5 157.85 54.35 157.5 54.15 157.35" fill="#ae650d" fill-rule="evenodd" stroke="none"/>
    <path d="M38.5 158.4 L38.15 158.4 39.05 159.3 39.05 159.35 39.0 160.5 38.6 160.0 Q37.75 158.8 37.9 157.35 L38.5 158.4" fill="#ff6c00" fill-rule="evenodd" stroke="none"/>
    <path d="M37.9 157.35 Q37.75 158.8 38.6 160.0 L39.0 160.5 39.05 159.35 39.05 159.3 38.15 158.4 38.5 158.4 48.3 158.75 48.8 158.6 Q50.1 158.2 46.6 160.85 42.65 161.45 42.6 162.75 L42.85 164.7 Q42.95 165.15 43.8 165.8 L45.4 166.85 Q47.7 168.25 52.25 170.3 L49.05 175.9 40.3 169.7 35.8 157.35 37.9 157.35" fill="#f15501" fill-rule="evenodd" stroke="none"/>
    <path d="M35.8 157.35 L40.3 169.7 49.05 175.9 47.15 179.05 Q42.6 176.35 39.2 172.7 L38.45 171.9 35.45 162.85 33.7 157.35 35.8 157.35" fill="#e43f01" fill-rule="evenodd" stroke="none"/>
    <path d="M43.75 182.1 L43.6 181.5 43.65 181.6 43.75 182.1" fill="#e69a3e" fill-rule="evenodd" stroke="none"/>
    <path d="M44.5 68.3 L47.1 50.25 53.3 33.95 54.3 33.25 81.1 34.15 80.95 34.75 80.9 35.15 84.2 37.45 Q55.05 30.85 67.5 42.25 59.15 37.8 55.85 44.85 L53.35 48.45 49.7 51.05 48.85 50.95 51.9 52.15 45.4 68.65 44.5 68.3" fill="#017801" fill-rule="evenodd" stroke="none"/>
    <path d="M45.4 68.65 L45.1 69.45 42.2 68.9 44.5 68.3 45.4 68.65 M19.05 39.2 L18.8 38.2 24.45 36.9 27.5 39.55 27.2 39.95 27.1 40.3 Q28.0 41.05 29.25 41.1 L32.95 44.35 31.45 46.8 35.3 50.0 24.1 50.5 23.7 50.3 21.65 49.1 21.4 49.15 20.05 43.5 20.4 43.05 22.0 42.25 20.0 41.85 19.7 41.95 19.05 39.2 M71.1 47.4 L70.3 47.6 70.7 47.1 71.1 47.4" fill="#009900" fill-rule="evenodd" stroke="none"/>
    <path d="M19.05 39.2 L19.7 41.95 20.0 41.85 22.0 42.25 20.4 43.05 20.05 43.5 21.4 49.15 21.65 49.1 23.7 50.3 22.55 60.15 18.6 59.0 16.1 51.45 19.05 39.2" fill="#015401" fill-rule="evenodd" stroke="none"/>
    <path d="M24.1 50.5 L35.3 50.0 38.05 52.3 43.7 66.35 42.6 67.6 35.35 57.1 24.1 50.5" fill="#023401" fill-rule="evenodd" stroke="none"/>
    <path d="M54.3 33.25 Q61.9 27.8 71.2 28.95 L74.35 29.55 73.55 31.3 Q73.4 31.6 73.4 32.0 76.05 31.2 78.9 30.9 79.95 31.4 80.95 32.25 L81.3 32.7 81.3 32.8 81.4 33.1 81.65 33.35 81.3 33.7 81.1 34.15 54.3 33.25 M84.2 37.45 L85.25 38.25 85.3 44.95 83.3 45.45 85.35 46.85 85.35 47.05 84.6 48.8 73.55 48.8 72.1 47.25 72.6 47.0 72.0 47.15 67.5 42.25 Q55.05 30.85 84.2 37.45" fill="#02a301" fill-rule="evenodd" stroke="none"/>
    <path d="M83.2 52.3 L82.5 53.9 81.9 59.7 72.15 60.7 69.35 54.85 70.05 48.6 70.65 47.8 71.3 47.55 75.75 51.25 75.6 51.1 83.2 52.3" fill="#028901" fill-rule="evenodd" stroke="none"/>
    <path d="M84.6 48.8 L83.2 52.3 75.6 51.1 73.55 48.8 84.6 48.8" fill="#01c001" fill-rule="evenodd" stroke="none"/>
    <path d="M1.15 15.15 Q23.15 18.55 42.4 10.35 L43.4 11.55 44.15 17.35 35.1 20.45 Q31.65 16.1 23.45 18.65 23.75 15.25 1.7 19.1 L2.95 18.65 0.6 17.45 1.15 15.15" fill="#017801" fill-rule="evenodd" stroke="none"/>
    <path d="M1.15 15.15 L2.6 8.6 Q5.3 7.25 8.9 5.7 L8.95 5.15 Q9.05 3.75 8.5 3.15 L8.85 2.85 9.05 2.5 9.1 2.35 9.7 1.85 Q11.15 1.05 12.6 0.65 L19.0 2.05 18.6 0.05 22.65 0.15 Q34.45 1.1 42.4 10.35 23.15 18.55 1.15 15.15 M23.45 18.65 L16.45 23.95 15.75 23.6 16.35 24.05 14.1 25.75 0.35 22.75 0.0 20.25 0.05 19.95 Q0.85 19.45 1.7 19.1 23.75 15.25 23.45 18.65" fill="#02a301" fill-rule="evenodd" stroke="none"/>
    <path d="M44.4 59.3 L44.65 59.45 44.35 60.7 43.35 60.65 43.2 59.55 44.4 59.3 M18.1 24.2 L18.45 25.0 17.55 24.5 18.1 24.2" fill="#009900" fill-rule="evenodd" stroke="none"/>
    <path d="M10.85 28.2 L10.65 28.35 17.25 24.7 17.95 25.2 18.45 26.4 17.5 34.8 12.4 41.8 0.6 37.9 1.5 30.05 1.15 27.7 10.85 28.2" fill="#028901" fill-rule="evenodd" stroke="none"/>
    <path d="M14.1 25.75 L10.85 28.2 1.15 27.7 0.35 22.75 14.1 25.75" fill="#01c001" fill-rule="evenodd" stroke="none"/>
    <path d="M44.15 17.35 L46.4 34.75 44.4 59.3 43.2 59.55 39.9 35.95 44.05 35.2 42.95 35.1 39.15 30.65 37.1 25.25 Q36.5 22.25 35.1 20.45 L44.15 17.35" fill="#095302" fill-rule="evenodd" stroke="none"/>
    <path d="M31.8 115.45 L35.2 117.1 36.0 120.9 33.0 122.7 32.75 120.4 31.95 117.55 31.8 115.45" fill="#f09a33" fill-rule="evenodd" stroke="none"/>
    <path d="M31.8 115.45 L31.95 117.55 32.75 120.4 33.0 122.7 33.1 123.65 31.3 125.4 30.75 125.45 28.0 124.15 27.75 118.15 31.5 115.3 31.8 115.45" fill="#f15501" fill-rule="evenodd" stroke="none"/>
    <path d="M33.0 122.7 L36.0 120.9 36.35 122.5 35.95 126.45 31.3 125.4 33.1 123.65 33.0 122.7" fill="#ae650d" fill-rule="evenodd" stroke="none"/>
    <path d="M9.7 1.85 L9.1 2.35 9.05 2.5 8.85 2.85 8.5 3.15 Q9.05 3.75 8.95 5.15 L8.9 5.7 Q5.3 7.25 2.6 8.6 L0.6 17.45 2.95 18.65 1.7 19.1 Q0.85 19.45 0.05 19.95 L0.0 20.25 1.5 30.05 0.6 37.9 12.4 41.8 17.5 34.8 18.45 26.4 17.95 25.2 17.25 24.7 10.65 28.35 16.35 24.05 15.75 23.6 16.45 23.95 23.45 18.65 Q31.65 16.1 35.1 20.45 36.5 22.25 37.1 25.25 L39.15 30.65 39.3 30.85 31.7 39.6 30.95 42.55 29.25 41.1 Q28.0 41.05 27.1 40.3 L27.2 39.95 27.5 39.55 24.45 36.9 18.8 38.2 19.05 39.2 16.1 51.45 18.6 59.0 22.55 60.15 23.7 50.3 35.35 57.1 41.1 65.45 37.4 65.65 30.9 66.4 Q26.9 67.0 23.45 68.0 L21.1 68.75 Q14.4 73.0 14.45 78.65 14.4 80.2 14.9 81.6 15.85 80.7 17.0 80.3 L17.0 80.45 17.0 80.75 17.05 80.75 18.15 80.7 19.45 81.8 19.75 82.45 Q20.35 82.65 20.2 85.25 20.8 82.65 23.25 81.65 L23.3 81.7 Q24.8 83.2 25.05 85.2 25.65 83.8 26.75 82.65 32.6 90.6 33.05 96.5 L33.2 98.4 33.6 103.85 35.2 112.7 34.7 116.9 31.5 115.3 27.75 118.15 28.0 124.15 30.75 125.45 31.3 125.4 33.65 125.95 33.65 144.8 30.9 151.05 33.75 157.6 35.45 162.85 38.5 171.9 39.2 172.7 Q42.6 176.35 47.15 179.0 L49.05 175.9 52.25 170.3 52.45 169.85 Q48.7 168.35 47.45 167.35 46.7 166.8 46.8 166.4 47.0 164.65 48.2 163.2 L48.35 163.0 Q49.25 161.9 50.65 161.0 L49.8 160.55 51.4 160.55 52.5 159.25 59.05 158.05 59.25 158.0 62.45 158.3 62.8 158.3 70.7 158.95 74.4 155.85 74.3 154.4 71.95 148.2 72.2 148.2 64.85 145.5 52.95 146.0 53.15 143.45 70.3 142.8 72.45 139.05 72.45 134.5 Q71.45 133.8 70.0 133.6 L66.1 133.7 53.65 135.2 54.55 129.4 66.9 128.25 70.2 123.9 74.45 120.6 74.95 117.4 75.2 117.4 75.0 117.3 Q72.2 116.05 63.65 115.1 L61.6 115.65 53.6 115.95 51.3 114.8 50.25 114.25 52.55 105.0 53.0 103.35 53.5 101.35 54.65 96.85 61.45 85.55 62.0 85.45 65.65 85.3 Q66.0 83.55 67.05 82.1 69.4 83.1 70.5 86.6 70.9 82.65 72.2 81.7 73.45 80.75 73.9 87.2 76.6 82.25 76.1 78.95 L76.15 78.95 76.15 78.65 Q76.15 73.0 69.5 68.75 L67.1 68.0 61.9 66.8 57.6 66.1 54.4 65.75 53.3 65.65 46.7 65.4 51.9 52.15 48.85 50.95 49.7 51.05 53.35 48.45 55.85 44.85 Q59.15 37.8 67.5 42.25 L72.0 47.15 72.6 47.0 72.1 47.25 75.75 51.25 71.3 47.55 70.65 47.8 70.05 48.6 69.35 54.85 72.15 60.7 81.9 59.7 82.5 53.9 85.35 47.05 85.35 46.85 83.3 45.45 85.3 44.95 85.25 38.25 84.2 37.45 80.9 35.15 80.95 34.75 81.1 34.15 81.3 33.7 81.65 33.35 81.4 33.1 81.3 32.8 81.3 32.7 80.95 32.25 Q79.95 31.4 78.9 30.9 76.05 31.2 73.4 32.0 73.4 31.6 73.55 31.3 L74.35 29.55 71.2 28.95 Q61.9 27.8 54.3 33.25 L53.3 33.95 47.4 49.55 45.75 42.7 45.8 41.9 48.0 40.4 47.0 35.75 46.35 35.15 46.4 34.75 46.25 33.7 46.55 33.55 45.75 30.0 43.4 11.55 42.4 10.35 Q34.45 1.1 22.65 0.15 L18.6 0.05 19.0 2.05 12.6 0.65 Q11.15 1.05 9.7 1.85 M42.85 57.15 L42.7 63.85 38.05 52.3 33.35 48.4 38.0 41.9 42.05 51.2 42.85 57.15 M44.95 65.4 L46.4 55.3 44.25 65.4 44.95 65.4 M60.85 85.6 L55.85 87.65 56.6 87.2 58.7 86.2 60.85 85.6 Z" fill="none" stroke="#333333" stroke-linecap="round" stroke-linejoin="round" stroke-width="1.0"/>
  </g>
</svg>
