<?xml version="1.0" encoding="UTF-8" standalone="no"?>
<svg xmlns:xlink="http://www.w3.org/1999/xlink" height="118.1px" width="97.45px" xmlns="http://www.w3.org/2000/svg">
  <g transform="matrix(1.0, 0.0, 0.0, 1.0, 0.4, 0.5)">
    <path d="M88.65 24.25 Q86.8 33.7 82.85 43.6 L59.75 45.9 60.15 44.3 Q60.35 41.6 54.65 40.1 L54.0 40.0 Q48.35 38.25 49.85 42.15 42.15 42.2 47.85 39.45 48.4 36.95 45.05 35.35 L45.05 34.95 Q42.15 35.15 41.65 33.25 43.9 33.25 42.55 32.35 L42.35 31.9 Q44.3 31.95 45.3 33.1 L45.75 33.25 Q48.95 37.3 52.6 37.35 L53.05 37.35 53.25 37.35 57.35 37.05 57.4 36.65 Q59.5 34.8 59.95 33.2 L60.15 32.55 Q53.0 34.1 58.05 29.85 53.55 30.05 47.85 32.55 46.75 29.15 42.55 25.5 L42.25 25.2 88.65 24.25 M2.25 51.65 L0.8 35.4 17.1 30.75 16.35 31.6 17.3 31.9 18.85 32.35 18.9 32.35 21.7 32.85 22.5 32.25 22.5 32.55 22.65 32.8 23.75 32.65 24.75 32.65 22.7 32.85 Q25.75 37.65 29.85 34.7 33.2 32.25 34.2 29.6 34.6 28.3 38.95 31.9 37.05 31.4 37.3 32.5 38.35 38.1 34.15 34.65 L34.05 35.0 Q30.75 35.85 26.6 39.45 L26.15 38.65 Q25.75 37.2 25.05 37.6 22.4 38.95 19.05 36.65 L19.25 36.2 Q20.4 35.3 19.05 33.95 L21.5 32.95 14.45 33.65 10.75 37.65 9.75 37.8 8.4 39.7 8.4 40.7 8.75 50.05 8.75 51.0 2.25 51.65 M17.9 30.5 L19.7 30.0 18.8 31.65 18.75 31.65 17.9 30.55 17.9 30.5 M13.65 32.5 L13.7 32.5 13.65 32.5 M13.75 33.2 L12.2 32.75 11.0 33.0 11.1 33.2 11.05 33.4 13.75 33.2 M8.4 33.5 L9.15 33.45 9.05 33.35 8.4 33.5 M29.55 25.5 L28.65 25.75 27.95 25.65 27.45 25.55 29.55 25.5 M22.1 25.65 L21.75 26.25 21.75 25.65 22.1 25.65" fill="#b9a48c" fill-rule="evenodd" stroke="none"/>
    <path d="M14.7 6.15 L52.25 5.4 86.75 0.0 78.5 8.25 Q92.35 5.35 91.55 9.3 L88.65 24.25 42.25 25.2 Q38.6 22.35 33.45 23.65 L32.85 23.85 Q31.4 24.9 29.55 25.5 L27.45 25.55 22.6 24.75 22.1 25.65 21.75 25.65 1.05 26.1 1.25 12.4 5.7 19.35 15.35 6.9 14.7 6.4 14.7 6.15 M34.25 114.3 L1.25 113.9 1.3 107.5 Q2.05 108.0 3.3 108.1 L2.35 102.55 1.9 101.95 1.3 102.45 1.3 92.8 5.35 88.75 9.6 89.5 8.85 90.05 8.85 90.75 22.05 103.95 27.3 103.75 Q33.6 100.2 39.65 102.25 L40.25 102.35 50.45 96.65 53.25 97.15 53.15 98.45 Q53.15 101.9 55.6 104.35 58.05 106.8 61.5 106.8 63.2 106.8 64.7 106.2 L64.75 106.35 37.05 113.1 29.75 114.05 34.25 114.3 M1.85 6.4 L1.8 6.35 3.55 6.35 14.7 6.4 12.1 7.9 3.05 9.8 1.85 6.4 M29.9 19.8 Q26.5 20.45 23.1 22.2 L22.6 23.15 Q25.35 23.5 28.0 23.25 L28.7 23.2 28.7 22.55 Q30.0 21.25 29.9 19.8 M10.55 23.85 L12.8 24.1 14.0 23.3 13.5 21.45 Q11.45 21.25 10.55 23.85 M30.85 93.25 L45.3 95.75 36.85 96.8 36.15 96.85 Q32.8 95.6 30.85 93.25" fill="#b19f7b" fill-rule="evenodd" stroke="none"/>
    <path d="M84.55 63.8 L86.2 64.4 Q86.05 65.1 83.45 66.75 L84.55 63.8" fill="#dacebc" fill-rule="evenodd" stroke="none"/>
    <path d="M83.45 66.75 Q85.3 72.1 86.05 85.4 L68.7 88.4 66.4 91.7 Q64.25 90.1 61.5 90.1 58.05 90.1 55.6 92.55 53.65 94.5 53.25 97.15 L50.45 96.65 51.8 95.95 51.95 95.55 45.3 95.75 30.85 93.25 29.65 91.45 30.05 91.45 Q26.35 89.6 24.25 86.65 L24.55 86.65 Q27.6 83.9 31.45 82.0 L32.05 81.85 Q37.3 82.6 39.75 80.65 L40.25 80.45 Q49.9 82.65 59.45 82.7 64.35 82.7 63.55 79.1 63.1 76.85 59.1 78.3 54.9 79.8 56.05 77.75 60.9 77.15 62.0 76.3 62.85 75.65 64.25 75.65 63.55 71.45 63.3 66.4 L83.45 66.75 M5.35 88.75 L11.55 82.6 11.55 83.85 12.25 84.55 Q10.75 84.75 11.1 85.6 11.9 87.6 9.6 89.5 L5.35 88.75 M11.55 82.45 L0.1 84.15 0.35 65.25 17.65 65.55 Q20.55 66.3 23.75 66.65 L12.3 70.2 12.15 73.0 Q11.6 77.7 11.55 82.45 M36.7 65.9 L40.8 66.0 39.2 68.0 39.25 68.8 49.2 71.1 49.2 70.8 Q51.2 70.85 52.25 70.05 L51.65 69.1 52.05 68.15 Q52.75 66.85 51.6 66.95 L50.3 66.15 57.35 66.3 Q57.55 66.55 57.15 67.3 L56.75 68.25 57.35 69.2 Q58.15 71.35 56.05 75.0 L55.95 75.35 Q48.05 77.15 43.05 72.25 41.8 73.45 40.95 73.65 36.95 73.5 36.65 68.8 L36.6 68.0 36.7 65.9" fill="#b9a88c" fill-rule="evenodd" stroke="none"/>
    <path d="M82.85 43.6 Q84.25 46.8 83.55 50.4 L59.35 53.4 59.25 54.4 84.55 63.8 83.45 66.75 63.3 66.4 63.2 64.7 Q63.15 62.05 60.9 59.2 58.1 55.6 56.7 59.25 L56.55 59.75 Q54.3 61.6 54.2 63.1 54.05 64.85 56.7 66.1 57.2 66.05 57.35 66.3 L50.3 66.15 Q49.0 65.15 49.1 63.95 44.35 62.25 40.8 66.0 L36.7 65.9 36.85 64.75 Q41.35 60.7 49.15 60.0 L49.85 59.95 Q51.2 58.6 52.1 59.75 L52.6 59.95 Q54.35 63.95 55.25 57.9 L55.35 57.2 55.25 56.55 55.15 56.35 51.75 55.65 54.95 54.95 Q55.0 52.05 59.45 50.35 58.9 48.75 59.5 46.75 L59.75 45.9 82.85 43.6 M0.35 65.25 L2.25 51.65 8.75 51.0 8.9 53.75 8.9 53.85 Q10.85 56.95 9.5 57.2 L9.05 57.2 9.15 59.95 9.25 61.45 9.3 62.6 Q13.2 64.5 17.65 65.55 L0.35 65.25" fill="#dccfc0" fill-rule="evenodd" stroke="none"/>
    <path d="M68.7 88.4 L89.25 89.4 89.6 94.45 76.3 101.2 53.25 97.15 Q53.65 94.5 55.6 92.55 58.05 90.1 61.5 90.1 64.25 90.1 66.4 91.7 L68.7 88.4" fill="#d1c4ad" fill-rule="evenodd" stroke="none"/>
    <path d="M90.05 101.55 L96.55 98.95 93.8 110.5 67.7 110.5 90.05 101.55 M3.55 6.35 L14.7 6.15 14.7 6.4 3.55 6.35 M3.05 9.8 L12.1 7.9 Q8.55 10.2 4.75 14.65 L3.05 9.8 M64.75 106.35 L64.7 106.2 Q63.2 106.8 61.5 106.8 58.05 106.8 55.6 104.35 53.15 101.9 53.15 98.45 L53.25 97.15 76.3 101.2 67.4 105.7 64.75 106.35" fill="#c9bb9c" fill-rule="evenodd" stroke="none"/>
    <path d="M89.6 94.45 L90.05 101.55 67.7 110.5 64.1 111.95 60.85 112.0 59.4 112.05 49.95 112.3 37.05 113.1 64.75 106.35 67.4 105.7 76.3 101.2 89.6 94.45 M1.25 12.4 L1.35 6.4 1.85 6.4 3.05 9.8 4.75 14.65 Q8.55 10.2 12.1 7.9 L14.7 6.4 15.35 6.9 5.7 19.35 1.25 12.4" fill="#9f845c" fill-rule="evenodd" stroke="none"/>
    <path d="M19.9 29.6 L1.0 31.4 1.05 26.1 21.75 25.65 21.75 26.25 19.9 29.6" fill="#d1c0ad" fill-rule="evenodd" stroke="none"/>
    <path d="M93.8 110.5 L93.65 111.15 89.0 114.45 49.95 112.3 59.4 112.05 60.85 112.0 64.1 111.95 67.7 110.5 93.8 110.5" fill="#ae966f" fill-rule="evenodd" stroke="none"/>
    <path d="M89.0 114.45 L85.25 117.1 34.25 114.3 29.75 114.05 37.05 113.1 49.95 112.3 89.0 114.45" fill="#9f8559" fill-rule="evenodd" stroke="none"/>
    <path d="M1.3 107.5 Q-0.15 106.5 0.0 104.0 L1.3 102.45 1.9 101.95 2.35 102.55 3.3 108.1 Q2.05 108.0 1.3 107.5 M40.8 66.0 Q44.35 62.25 49.1 63.95 49.0 65.15 50.3 66.15 L51.6 66.95 Q52.75 66.85 52.05 68.15 L51.65 69.1 52.25 70.05 Q51.2 70.85 49.2 70.8 L49.2 71.1 39.25 68.8 39.2 68.0 40.8 66.0 M29.9 19.8 Q30.0 21.25 28.7 22.55 L28.7 23.2 28.0 23.25 Q25.35 23.5 22.6 23.15 L23.1 22.2 Q26.5 20.45 29.9 19.8 M10.55 23.85 Q11.45 21.25 13.5 21.45 L14.0 23.3 12.8 24.1 10.55 23.85 M13.65 32.5 L13.7 32.5 13.65 32.5 M13.75 33.2 L11.05 33.4 11.1 33.2 11.0 33.0 12.2 32.75 13.75 33.2 M8.4 33.5 L9.05 33.35 9.15 33.45 8.4 33.5" fill="#b7a07d" fill-rule="evenodd" stroke="none"/>
    <path d="M11.55 82.6 L11.55 82.45 Q11.6 77.7 12.15 73.0 L12.3 70.2 23.75 66.65 Q20.55 66.3 17.65 65.55 13.2 64.5 9.3 62.6 L9.25 61.45 9.15 59.95 9.05 57.2 9.5 57.2 Q10.85 56.95 8.9 53.85 L8.9 53.75 8.75 51.0 8.75 50.05 8.4 40.7 8.4 39.7 9.75 37.8 10.75 37.65 14.45 33.65 21.5 32.95 19.05 33.95 Q20.4 35.3 19.25 36.2 L19.05 36.65 Q22.4 38.95 25.05 37.6 25.75 37.2 26.15 38.65 L26.6 39.45 Q30.75 35.85 34.05 35.0 L34.15 34.65 Q38.35 38.1 37.3 32.5 37.05 31.4 38.95 31.9 34.6 28.3 34.2 29.6 33.2 32.25 29.85 34.7 25.75 37.65 22.7 32.85 L24.75 32.65 23.75 32.65 22.65 32.8 22.5 32.55 22.5 32.25 21.7 32.85 18.9 32.35 18.85 32.35 17.3 31.9 16.35 31.6 17.1 30.75 17.65 30.15 17.9 30.5 17.9 30.55 18.75 31.65 18.8 31.65 19.7 30.0 19.9 29.6 21.75 26.25 22.1 25.65 22.6 24.75 27.45 25.55 27.95 25.65 28.65 25.75 29.55 25.5 Q31.4 24.9 32.85 23.85 L33.45 23.65 Q38.6 22.35 42.25 25.2 L42.55 25.5 Q46.75 29.15 47.85 32.55 53.55 30.05 58.05 29.85 53.0 34.1 60.15 32.55 L59.95 33.2 Q59.5 34.8 57.4 36.65 L57.35 37.05 53.25 37.35 53.05 37.35 52.6 37.35 Q48.95 37.3 45.75 33.25 L45.3 33.1 Q44.3 31.95 42.35 31.9 L42.55 32.35 Q43.9 33.25 41.65 33.25 42.15 35.15 45.05 34.95 L45.05 35.35 Q48.4 36.95 47.85 39.45 42.15 42.2 49.85 42.15 48.35 38.25 54.0 40.0 L54.65 40.1 Q60.35 41.6 60.15 44.3 L59.75 45.9 59.5 46.75 Q58.9 48.75 59.45 50.35 55.0 52.05 54.95 54.95 L51.75 55.65 55.15 56.35 55.25 56.55 55.35 57.2 55.25 57.9 Q54.35 63.95 52.6 59.95 L52.1 59.75 Q51.2 58.6 49.85 59.95 L49.15 60.0 Q41.35 60.7 36.85 64.75 L36.7 65.9 36.6 68.0 36.65 68.8 Q36.95 73.5 40.95 73.65 41.8 73.45 43.05 72.25 48.05 77.15 55.95 75.35 L56.05 75.0 Q58.15 71.35 57.35 69.2 L56.75 68.25 57.15 67.3 Q57.55 66.55 57.35 66.3 57.2 66.05 56.7 66.1 54.05 64.85 54.2 63.1 54.3 61.6 56.55 59.75 L56.7 59.25 Q58.1 55.6 60.9 59.2 63.15 62.05 63.2 64.7 L63.3 66.4 Q63.55 71.45 64.25 75.65 62.85 75.65 62.0 76.3 60.9 77.15 56.05 77.75 54.9 79.8 59.1 78.3 63.1 76.85 63.55 79.1 64.35 82.7 59.45 82.7 49.9 82.65 40.25 80.45 L39.75 80.65 Q37.3 82.6 32.05 81.85 L31.45 82.0 Q27.6 83.9 24.55 86.65 L24.25 86.65 Q26.35 89.6 30.05 91.45 L29.65 91.45 30.85 93.25 Q32.8 95.6 36.15 96.85 L36.85 96.8 45.3 95.75 51.95 95.55 51.8 95.95 50.45 96.65 40.25 102.35 39.65 102.25 Q33.6 100.2 27.3 103.75 L22.05 103.95 8.85 90.75 8.85 90.05 9.6 89.5 Q11.9 87.6 11.1 85.6 10.75 84.75 12.25 84.55 L11.55 83.85 11.55 82.6" fill="#362c65" fill-rule="evenodd" stroke="none"/>
    <path d="M14.7 6.15 L52.25 5.4 86.75 0.0 78.5 8.25 Q92.35 5.35 91.55 9.3 L88.65 24.25 Q86.8 33.7 82.85 43.6 84.25 46.8 83.55 50.4 L59.35 53.4 M59.25 54.4 L84.55 63.8 86.2 64.4 Q86.05 65.1 83.45 66.75 85.3 72.1 86.05 85.4 L68.7 88.4 89.25 89.4 89.6 94.45 90.05 101.55 96.55 98.95 93.8 110.5 93.65 111.15 89.0 114.45 85.25 117.1 34.25 114.3 1.25 113.9 1.3 107.5 M1.3 102.45 L1.3 92.8 5.35 88.75 11.55 82.6 M11.55 82.45 L0.1 84.15 0.35 65.25 2.25 51.65 0.8 35.4 17.1 30.75 M17.9 30.5 L19.7 30.0 M19.9 29.6 L1.0 31.4 1.05 26.1 1.25 12.4 1.35 6.4 1.85 6.4 1.8 6.35 3.55 6.35 14.7 6.15 M12.1 7.9 L14.7 6.4 3.55 6.35 M1.85 6.4 L3.05 9.8 M37.05 113.1 L29.75 114.05 34.25 114.3 M37.05 113.1 L49.95 112.3" fill="none" stroke="#595916" stroke-linecap="round" stroke-linejoin="round" stroke-opacity="0.3137255" stroke-width="1.0"/>
    <path d="M12.1 7.9 Q8.55 10.2 4.75 14.65 L3.05 9.8 M67.7 110.5 L64.1 111.95 60.85 112.0 59.4 112.05 49.95 112.3 M67.7 110.5 L90.05 101.55" fill="none" stroke="#5b4935" stroke-linecap="round" stroke-linejoin="round" stroke-width="0.05"/>
    <path d="M88.55 24.25 Q86.7 33.7 82.75 43.6 84.15 46.8 83.45 50.4 L62.05 53.05 61.9 53.95 59.4 54.5 60.9 55.05 62.1 55.35 62.2 55.55 64.9 56.55 Q65.85 56.1 67.1 57.35 L86.1 64.4 Q85.95 65.1 83.35 66.75 85.2 72.1 85.95 85.4 L68.6 88.4 89.15 89.4 89.95 101.55 96.45 98.95 93.55 111.15 85.15 117.1 34.15 114.3 1.15 113.9 1.2 92.8 11.65 82.4 0.0 84.15 0.25 65.25 2.15 51.65 0.7 35.4 21.65 29.4 0.9 31.4 1.25 6.4 1.75 6.4 1.7 6.35 52.15 5.4 86.65 0.0 78.4 8.25 Q92.25 5.35 91.45 9.3 L88.55 24.25 Z" fill="none" stroke="#5b4935" stroke-linecap="round" stroke-linejoin="round" stroke-width="0.05"/>
  </g>
</svg>
