<?xml version="1.0" encoding="UTF-8" standalone="no"?>
<svg xmlns:xlink="http://www.w3.org/1999/xlink" height="69.7px" width="66.75px" xmlns="http://www.w3.org/2000/svg">
  <g transform="matrix(1.0, 0.0, 0.0, 1.0, -375.65, -137.9)">
    <path d="M425.35 205.95 L425.6 205.6 425.6 206.0 425.35 205.95" fill="#ff3300" fill-rule="evenodd" stroke="none"/>
    <path d="M376.25 138.75 L376.7 138.2 Q378.15 137.3 391.15 150.8 L394.05 153.85 400.85 160.45 Q405.6 164.75 408.0 166.0 L412.6 169.35 Q422.95 171.35 432.6 171.7 435.35 174.55 435.1 179.3 429.9 200.3 419.3 189.15 424.1 195.35 421.85 199.1 416.75 203.2 406.75 187.85 413.8 199.2 411.65 198.45 L410.3 197.9 Q406.35 196.1 403.85 192.15 392.45 173.7 383.05 153.85 379.5 146.4 376.25 138.75 M392.8 160.1 Q401.95 173.95 413.8 186.35 L414.25 186.8 Q418.7 185.55 423.4 182.55 424.75 181.85 425.0 180.3 423.95 178.05 421.75 176.95 421.15 176.85 420.75 176.4 415.05 173.25 409.45 169.8 405.55 167.55 400.95 165.7 L400.5 164.35 398.85 164.0 396.6 161.75 392.8 160.1 M417.5 171.8 L412.6 169.35 417.5 171.8" fill="#cccccc" fill-rule="evenodd" stroke="none"/>
    <path d="M392.8 160.1 L396.6 161.75 398.85 164.0 400.5 164.35 400.95 165.7 Q405.55 167.55 409.45 169.8 415.05 173.25 420.75 176.4 421.15 176.85 421.75 176.95 423.95 178.05 425.0 180.3 424.75 181.85 423.4 182.55 418.7 185.55 414.25 186.8 L413.8 186.35 Q401.95 173.95 392.8 160.1" fill="#d7d7d7" fill-rule="evenodd" stroke="none"/>
    <path d="M388.15 185.8 Q386.05 182.05 384.55 178.75 L383.7 176.9 382.45 173.8 Q381.65 171.5 381.2 169.5 L377.65 153.85 377.6 153.5 Q375.15 141.3 376.25 138.75 379.5 146.4 383.05 153.85 392.45 173.7 403.85 192.15 406.35 196.1 410.3 197.9 410.9 202.15 407.9 203.2 L404.55 203.2 Q396.7 195.15 389.8 186.55 L388.15 185.8" fill="#999999" fill-rule="evenodd" stroke="none"/>
    <path d="M435.1 179.3 Q434.9 181.6 434.05 184.4 L433.25 186.55 432.65 187.95 Q429.9 194.05 426.6 198.15 L425.1 199.8 Q423.05 201.95 420.8 203.4 417.8 205.25 414.4 206.25 L413.2 206.55 412.9 206.6 412.65 206.7 404.7 207.35 Q403.0 206.95 401.8 205.95 L401.2 205.35 Q400.35 204.45 399.85 203.25 L399.8 203.15 399.75 203.1 395.9 197.85 394.7 196.1 Q390.95 190.6 388.15 185.8 L389.8 186.55 Q396.7 195.15 404.55 203.2 L407.9 203.2 Q410.9 202.15 410.3 197.9 L411.65 198.45 Q413.8 199.2 406.75 187.85 416.75 203.2 421.85 199.1 424.1 195.35 419.3 189.15 429.9 200.3 435.1 179.3 M425.35 205.95 L425.25 205.95 425.6 205.5 425.6 205.6 425.35 205.95" fill="#666666" fill-rule="evenodd" stroke="none"/>
    <path d="M441.95 170.95 L442.0 171.15 441.4 171.35 441.95 170.95" fill="#fe6a4b" fill-rule="evenodd" stroke="none"/>
    <path d="M441.95 170.95 L442.4 170.75 442.4 171.05 442.0 171.15 441.95 170.95" fill="#fa8d3f" fill-rule="evenodd" stroke="none"/>
    <path d="M434.05 184.4 L434.6 183.45 432.8 188.0 432.65 187.95 433.25 186.55 434.05 184.4" fill="#a31401" fill-rule="evenodd" stroke="none"/>
    <path d="M376.25 138.75 L376.7 138.2 Q378.15 137.3 391.15 150.8 L394.05 153.85 400.85 160.45 Q405.6 164.75 408.0 166.0 L412.6 169.35 Q422.95 171.35 432.6 171.7 435.35 174.55 435.1 179.3 434.9 181.6 434.05 184.4 L433.25 186.55 432.65 187.95 Q429.9 194.05 426.6 198.15 L425.1 199.8 Q423.05 201.95 420.8 203.4 417.8 205.25 414.4 206.25 M412.65 206.7 L404.7 207.35 M401.2 205.35 Q400.35 204.45 399.85 203.25 L399.8 203.15 399.75 203.1 395.9 197.85 394.7 196.1 Q390.95 190.6 388.15 185.8 386.05 182.05 384.55 178.75 L383.7 176.9 382.45 173.8 Q381.65 171.5 381.2 169.5 L377.65 153.85 377.6 153.5 Q375.15 141.3 376.25 138.75 M412.6 169.35 L417.5 171.8" fill="none" stroke="#52371d" stroke-linecap="round" stroke-linejoin="round" stroke-opacity="0.5019608" stroke-width="0.5"/>
  </g>
</svg>
