<?xml version="1.0" encoding="UTF-8" standalone="no"?>
<svg xmlns:xlink="http://www.w3.org/1999/xlink" height="134.2px" width="132.0px" xmlns="http://www.w3.org/2000/svg">
  <g transform="matrix(1.0, 0.0, 0.0, 1.0, 0.35, 0.35)">
    <path d="M25.3 96.65 L25.25 90.8 28.8 90.6 27.85 78.45 30.4 79.95 30.0 72.8 26.05 71.65 25.6 64.45 29.5 59.75 22.9 51.3 29.1 38.7 31.05 29.45 32.6 32.7 38.1 31.25 43.1 22.65 42.45 25.7 49.1 20.35 50.75 15.5 55.7 14.95 60.25 7.2 63.55 11.45 67.8 8.15 73.7 0.0 74.25 4.95 82.8 4.2 90.15 1.55 Q92.6 0.95 88.0 7.2 L94.65 7.65 95.1 0.95 101.35 8.1 108.55 7.65 104.3 10.95 110.0 13.15 113.85 8.45 112.9 16.0 115.65 15.3 118.95 19.55 126.5 20.45 123.6 23.4 123.85 24.35 112.15 24.25 109.35 19.15 102.3 17.35 Q102.35 17.15 93.7 12.3 L94.4 15.0 92.4 15.15 85.2 15.4 82.75 15.15 82.7 9.35 68.25 18.25 64.45 14.85 58.55 22.95 55.95 21.45 54.55 29.4 54.5 29.85 53.6 30.05 45.1 30.15 44.15 37.7 34.0 49.1 38.1 48.05 36.6 64.5 33.15 62.45 37.2 75.25 35.35 76.5 35.1 81.8 34.75 88.05 Q31.45 92.25 27.45 97.95 27.65 101.05 27.15 102.35 L21.5 107.15 Q18.65 105.05 16.8 105.35 L14.75 106.45 11.45 107.25 10.05 105.95 Q7.55 103.9 4.3 102.35 L5.3 101.15 0.0 100.35 5.75 94.45 11.05 95.25 15.8 91.1 19.45 96.7 25.3 96.65 21.9 100.45 17.8 101.5 14.35 99.5 10.75 99.7 14.35 99.5 17.8 101.5 21.9 100.45 25.3 96.65" fill="#ffffff" fill-opacity="0.8627451" fill-rule="evenodd" stroke="none"/>
    <path d="M123.65 40.9 L118.35 42.3 117.8 37.35 112.9 29.9 107.95 30.45 108.6 27.35 103.95 23.45 101.05 26.4 98.6 22.7 87.7 25.55 90.55 22.6 84.9 20.45 78.15 24.85 77.9 24.45 73.95 23.3 59.0 33.05 56.2 41.85 52.0 37.1 51.1 44.65 40.7 52.45 43.15 56.2 41.85 62.35 44.65 67.5 41.0 75.75 43.45 79.5 38.4 88.1 42.05 93.7 37.95 94.8 34.4 100.8 37.2 105.95 30.6 111.3 31.05 104.65 25.8 109.65 17.3 116.25 18.45 112.3 8.85 113.6 7.15 113.8 5.75 108.35 1.4 105.8 4.3 102.35 Q7.55 103.9 10.05 105.95 L11.45 107.25 14.75 106.45 16.8 105.35 Q18.65 105.05 21.5 107.15 L27.15 102.35 Q27.65 101.05 27.45 97.95 31.45 92.25 34.75 88.05 L35.1 81.8 35.35 76.5 37.2 75.25 33.15 62.45 36.6 64.5 38.1 48.05 34.0 49.1 44.15 37.7 45.1 30.15 53.6 30.05 54.5 29.85 54.55 29.4 55.95 21.45 58.55 22.95 64.45 14.85 68.25 18.25 82.7 9.35 82.75 15.15 85.2 15.4 92.4 15.15 94.4 15.0 93.7 12.3 Q102.35 17.15 102.3 17.35 L109.35 19.15 112.15 24.25 123.85 24.35 125.4 30.25 128.5 30.9 128.55 36.7 131.3 36.0 128.5 44.75 129.4 51.1 126.85 54.45 124.55 57.5 124.45 51.65 122.25 51.5 123.8 41.15 123.8 40.9 123.65 40.9" fill="#d6d6d6" fill-opacity="0.84313726" fill-rule="evenodd" stroke="none"/>
    <path d="M123.65 40.9 L123.8 41.15 122.25 51.5 124.45 51.65 124.55 57.5 126.85 54.45 127.35 68.85 Q127.9 92.15 109.15 107.5 90.3 119.5 70.6 126.85 60.5 130.6 50.2 133.2 34.45 134.65 17.8 129.25 L14.95 125.8 Q9.9 119.15 8.85 113.6 L18.45 112.3 17.3 116.25 25.8 109.65 31.05 104.65 30.6 111.3 37.2 105.95 34.4 100.8 37.95 94.8 42.05 93.7 38.4 88.1 43.45 79.5 41.0 75.75 44.65 67.5 41.85 62.35 43.15 56.2 40.7 52.45 51.1 44.65 52.0 37.1 56.2 41.85 59.0 33.05 73.95 23.3 77.9 24.45 78.15 24.85 84.9 20.45 90.55 22.6 87.7 25.55 98.6 22.7 101.05 26.4 103.95 23.45 108.6 27.35 107.95 30.45 112.9 29.9 117.8 37.35 118.35 42.3 123.65 40.9 M84.3 61.15 L85.8 57.4 86.7 44.05 88.45 31.2 81.8 36.55 76.4 35.9 72.95 41.8 66.8 40.5 58.35 52.95 62.3 54.1 53.45 59.35 50.35 72.55 53.1 71.85 49.05 78.75 50.7 87.8 44.65 98.15 40.85 108.65 64.0 99.0 64.0 96.7 70.3 87.85 71.65 89.6 69.6 93.05 75.15 97.45 Q79.35 92.7 79.55 91.9 79.65 91.4 86.2 90.25 89.45 89.65 96.05 87.4 L103.4 96.6 102.75 99.7 Q102.4 100.15 104.95 101.9 L107.4 103.6 110.15 102.85 110.8 99.8 115.75 99.2 116.7 91.65 109.0 92.95 104.2 86.0 111.0 86.0 114.25 87.9 118.35 86.85 115.4 83.95 116.2 78.65 110.9 77.85 110.25 80.95 99.9 81.15 86.45 68.2 88.1 63.4 84.3 61.15 M90.5 47.45 L93.45 50.3 89.9 56.35 93.6 61.95 95.45 60.75 94.5 68.3 95.85 67.9 95.2 71.0 111.9 76.15 113.4 73.55 115.15 74.55 116.15 72.85 117.45 66.65 119.15 67.65 122.05 64.7 120.6 59.25 121.6 57.5 Q123.65 43.95 110.05 35.75 95.0 33.85 90.5 47.45 M24.0 127.7 Q33.95 132.6 45.1 130.35 L68.5 122.7 Q98.85 114.95 90.15 103.6 L99.0 105.2 Q91.55 101.65 73.25 101.7 30.8 116.65 24.0 127.7" fill="#415a25" fill-opacity="0.8509804" fill-rule="evenodd" stroke="none"/>
    <path d="M70.3 87.85 L64.0 96.7 64.0 99.0 40.85 108.65 44.65 98.15 50.7 87.8 49.05 78.75 53.1 71.85 50.35 72.55 53.45 59.35 62.3 54.1 58.35 52.95 66.8 40.5 72.95 41.8 76.4 35.9 81.8 36.55 88.45 31.2 86.7 44.05 85.8 57.4 84.3 61.15 78.65 57.85 75.75 60.8 77.2 66.25 70.85 67.2 69.55 73.35 78.75 74.75 80.2 74.95 92.35 83.2 76.9 84.6 74.15 82.3 72.2 80.7 68.35 85.35 70.3 87.85" fill="#4e662b" fill-opacity="0.84313726" fill-rule="evenodd" stroke="none"/>
    <path d="M74.15 82.3 L76.9 84.6 92.35 83.2 80.2 74.95 78.75 74.75 84.3 61.15 88.1 63.4 86.45 68.2 99.9 81.15 110.25 80.95 110.9 77.85 116.2 78.65 115.4 83.95 118.35 86.85 114.25 87.9 111.0 86.0 104.2 86.0 109.0 92.95 116.7 91.65 115.75 99.2 110.8 99.8 110.15 102.85 107.4 103.6 104.95 101.9 Q102.4 100.15 102.75 99.7 L103.4 96.6 96.05 87.4 Q89.45 89.65 86.2 90.25 79.65 91.4 79.55 91.9 79.35 92.7 75.15 97.45 L69.6 93.05 71.65 89.6 70.3 87.85 74.15 82.3 M90.5 47.45 Q95.0 33.85 110.05 35.75 123.65 43.95 121.6 57.5 L120.6 59.25 122.05 64.7 119.15 67.65 117.45 66.65 116.15 72.85 115.15 74.55 113.4 73.55 111.9 76.15 95.2 71.0 95.85 67.9 94.5 68.3 95.45 60.75 93.6 61.95 89.9 56.35 93.45 50.3 90.5 47.45 M101.55 56.2 L105.45 51.55 101.35 52.6 98.9 48.9 99.35 56.05 101.55 56.2 M111.85 56.45 L112.9 60.55 115.5 62.05 119.9 56.5 115.3 58.45 111.85 56.45 M104.55 64.9 L106.25 60.1 102.85 63.9 104.55 64.9 M110.4 64.85 L109.8 59.9 108.55 66.05 110.4 64.85" fill="#dddddd" fill-opacity="0.8509804" fill-rule="evenodd" stroke="none"/>
    <path d="M111.85 56.45 L115.3 58.45 119.9 56.5 115.5 62.05 112.9 60.55 111.85 56.45 M101.55 56.2 L99.35 56.05 98.9 48.9 101.35 52.6 105.45 51.55 101.55 56.2 M110.4 64.85 L108.55 66.05 109.8 59.9 110.4 64.85 M104.55 64.9 L102.85 63.9 106.25 60.1 104.55 64.9" fill="#000000" fill-rule="evenodd" stroke="none"/>
    <path d="M70.3 87.85 L68.35 85.35 72.2 80.7 74.15 82.3 70.3 87.85 M78.75 74.75 L69.55 73.35 70.85 67.2 77.2 66.25 75.75 60.8 78.65 57.85 84.3 61.15 78.75 74.75" fill="#ffffff" fill-opacity="0.8509804" fill-rule="evenodd" stroke="none"/>
    <path d="M90.15 103.6 Q98.85 114.95 68.5 122.7 L45.1 130.35 Q33.95 132.6 24.0 127.7 41.65 113.7 73.5 103.2 L90.15 103.6" fill="#3c472c" fill-rule="evenodd" stroke="none"/>
    <path d="M24.0 127.7 Q30.8 116.65 73.25 101.7 91.55 101.65 99.0 105.2 L90.15 103.6 73.5 103.2 Q41.65 113.7 24.0 127.7" fill="#343c24" fill-rule="evenodd" stroke="none"/>
    <path d="M123.85 24.35 L123.6 23.4 126.5 20.45 118.95 19.55 115.65 15.3 112.9 16.0 113.85 8.45 110.0 13.15 104.3 10.95 108.55 7.65 101.35 8.1 95.1 0.95 94.65 7.65 88.0 7.2 Q92.6 0.95 90.15 1.55 L82.8 4.2 74.25 4.95 73.7 0.0 67.8 8.15 63.55 11.45 60.25 7.2 55.7 14.95 50.75 15.5 49.1 20.35 42.45 25.7 43.1 22.65 38.1 31.25 32.6 32.7 31.05 29.45 29.1 38.7 22.9 51.3 29.5 59.75 25.6 64.45 26.05 71.65 30.0 72.8 30.4 79.95 27.85 78.45 28.8 90.6 25.25 90.8 25.3 96.65 19.45 96.7 15.8 91.1 11.05 95.25 5.75 94.45 0.0 100.35 5.3 101.15 4.3 102.35 1.4 105.8 5.75 108.35 7.15 113.8 8.85 113.6 Q9.9 119.15 14.95 125.8 L17.8 129.25 Q34.45 134.65 50.2 133.2 60.5 130.6 70.6 126.85 90.3 119.5 109.15 107.5 127.9 92.15 127.35 68.85 L126.85 54.45 129.4 51.1 128.5 44.75 131.3 36.0 128.55 36.7 128.5 30.9 125.4 30.25 123.85 24.35" fill="none" stroke="#000000" stroke-linecap="round" stroke-linejoin="round" stroke-opacity="0.3019608" stroke-width="0.75"/>
    <path d="M25.3 96.65 L21.9 100.45 17.8 101.5 14.35 99.5 10.75 99.7" fill="none" stroke="#000000" stroke-linecap="round" stroke-linejoin="round" stroke-opacity="0.5137255" stroke-width="1.0"/>
  </g>
</svg>
