<?xml version="1.0" encoding="UTF-8" standalone="no"?>
<svg xmlns:xlink="http://www.w3.org/1999/xlink" height="41.15px" width="26.6px" xmlns="http://www.w3.org/2000/svg">
  <g transform="matrix(1.0, 0.0, 0.0, 1.0, -0.05, 0.0)">
    <path d="M8.4 1.1 L9.05 0.8 Q11.0 0.05 12.95 0.05 L13.35 0.05 Q15.45 0.0 17.6 0.8 22.75 2.85 25.2 8.75 27.25 13.7 26.4 18.9 26.3 17.25 25.65 15.7 24.9 13.9 23.0 12.85 23.0 5.45 16.75 4.0 16.35 3.9 15.55 7.95 15.95 4.75 15.55 3.8 L15.65 3.8 13.6 3.65 13.05 3.65 Q3.65 3.75 3.65 12.85 1.75 13.9 1.05 15.7 0.35 17.25 0.3 18.9 -0.6 13.7 1.5 8.75 3.2 4.6 6.3 2.35 L7.45 4.3 7.2 1.75 7.9 1.35 8.75 3.05 8.4 1.1" fill="#d3d8d1" fill-rule="evenodd" stroke="none"/>
    <path d="M3.65 12.85 Q3.65 3.75 13.05 3.65 L13.6 3.65 15.65 3.8 15.55 3.8 Q15.95 4.75 15.55 7.95 16.35 3.9 16.75 4.0 23.0 5.45 23.0 12.85 20.9 11.7 17.35 11.6 L16.1 11.55 14.6 11.55 14.6 11.5 12.1 11.5 12.1 11.55 10.6 11.55 9.3 11.6 Q5.75 11.7 3.65 12.85" fill="#aeb5aa" fill-rule="evenodd" stroke="none"/>
    <path d="M16.1 11.55 Q14.7 11.75 14.6 13.1 L14.6 16.55 Q14.8 18.4 16.3 19.3 L16.3 19.85 Q15.05 20.35 14.8 22.25 14.0 21.45 13.4 19.75 L13.35 19.6 13.3 19.5 13.3 19.75 Q12.65 21.45 11.9 22.25 11.6 20.35 10.4 19.85 L10.4 19.3 Q11.85 18.4 12.1 16.55 L12.1 13.1 Q11.95 11.75 10.6 11.55 L12.1 11.55 12.1 11.5 14.6 11.5 14.6 11.55 16.1 11.55" fill="#4a5a49" fill-rule="evenodd" stroke="none"/>
    <path d="M14.8 22.25 L14.8 22.75 15.85 22.75 16.05 22.8 Q16.4 23.5 16.05 24.25 L15.85 24.3 15.6 24.3 11.1 24.3 10.8 24.3 10.65 24.25 Q10.25 23.5 10.65 22.8 L10.8 22.75 11.9 22.75 11.9 22.25 Q12.65 21.45 13.3 19.75 L13.3 19.5 13.35 19.6 13.4 19.75 Q14.0 21.45 14.8 22.25 M15.5 39.6 L15.85 39.6 16.05 39.65 Q16.4 40.35 16.05 41.1 L15.85 41.15 10.8 41.15 10.65 41.1 Q10.25 40.35 10.65 39.65 L10.8 39.6 11.2 39.6 14.4 39.6 15.5 39.6 M12.4 24.1 L12.9 23.95 13.15 23.55 12.9 23.1 12.4 23.0 11.85 23.1 Q11.65 23.3 11.7 23.55 L11.85 23.95 12.4 24.1 M14.8 22.75 L11.9 22.75 14.8 22.75 M12.9 40.7 L13.15 40.3 12.9 39.85 12.4 39.75 11.85 39.85 Q11.65 40.05 11.7 40.3 L11.85 40.7 12.4 40.85 12.9 40.7" fill="#6c806c" fill-rule="evenodd" stroke="none"/>
    <path d="M12.4 24.1 L11.85 23.95 11.7 23.55 Q11.65 23.3 11.85 23.1 L12.4 23.0 12.9 23.1 13.15 23.55 12.9 23.95 12.4 24.1 M12.9 40.7 L12.4 40.85 11.85 40.7 11.7 40.3 Q11.65 40.05 11.85 39.85 L12.4 39.75 12.9 39.85 13.15 40.3 12.9 40.7" fill="#d6dbd6" fill-rule="evenodd" stroke="none"/>
    <path d="M15.6 24.3 L15.7 24.6 16.1 26.0 16.35 26.95 16.2 26.95 16.1 26.95 14.45 26.95 13.35 26.95 13.3 26.95 10.35 26.95 10.6 26.0 11.0 24.6 11.1 24.3 15.6 24.3 M16.55 28.15 L16.75 29.65 16.8 30.7 14.9 30.7 14.6 28.25 16.35 28.25 16.4 28.25 16.55 28.15 M16.85 32.0 L16.85 32.25 16.8 32.95 16.7 34.7 16.25 34.7 16.15 34.7 14.95 34.7 15.15 33.0 15.05 32.0 16.85 32.0 M16.5 36.0 L16.45 36.5 16.3 37.35 15.5 39.6 14.4 39.6 14.8 36.0 16.15 36.0 16.25 36.0 16.5 36.0" fill="#393939" fill-rule="evenodd" stroke="none"/>
    <path d="M16.35 26.95 L16.4 26.95 16.5 27.0 16.7 27.15 16.85 27.6 16.7 28.05 16.55 28.15 16.4 28.25 16.35 28.25 14.6 28.25 Q15.0 27.6 14.45 26.95 L16.1 26.95 16.2 26.95 16.35 26.95 M16.8 30.7 L17.1 30.9 17.25 31.35 17.1 31.8 16.85 32.0 15.05 32.0 Q15.6 31.35 14.9 30.7 L16.8 30.7 M16.7 34.7 L16.75 34.7 Q16.9 34.75 17.05 34.9 L17.15 35.05 17.25 35.35 17.05 35.8 17.0 35.85 16.7 36.0 16.5 36.0 16.25 36.0 16.15 36.0 14.8 36.0 Q15.35 35.45 14.95 34.7 L16.15 34.7 16.25 34.7 16.7 34.7" fill="#acbfb9" fill-rule="evenodd" stroke="none"/>
    <path d="M10.15 36.0 L9.85 35.85 9.75 35.8 9.6 35.35 9.7 35.05 9.75 34.9 10.0 34.75 10.05 34.7 10.15 34.7 10.4 34.7 10.5 34.7 13.5 34.7 13.55 34.7 14.95 34.7 Q15.35 35.45 14.8 36.0 L13.55 36.0 13.5 36.0 13.35 36.0 13.3 36.0 10.5 36.0 10.4 36.0 10.15 36.0 M9.85 32.0 L9.55 31.8 9.4 31.35 Q9.4 31.1 9.55 30.9 L9.85 30.7 13.4 30.7 13.45 30.7 14.9 30.7 Q15.6 31.35 15.05 32.0 L13.45 32.0 13.4 32.0 13.3 32.0 13.25 32.0 9.85 32.0 M10.1 28.25 L9.8 28.05 9.65 27.6 Q9.6 27.3 9.8 27.15 L10.0 27.0 10.1 26.95 10.15 26.95 10.35 26.95 13.3 26.95 13.35 26.95 14.45 26.95 Q15.0 27.6 14.6 28.25 L13.35 28.25 13.3 28.25 13.2 28.25 13.15 28.25 10.55 28.25 10.5 28.25 10.15 28.25 10.1 28.25" fill="#ffffff" fill-rule="evenodd" stroke="none"/>
    <path d="M11.2 39.6 L10.4 37.35 10.25 36.5 10.15 36.0 10.4 36.0 10.5 36.0 13.3 36.0 13.35 36.0 13.5 36.0 13.55 36.0 14.8 36.0 14.4 39.6 11.2 39.6 M10.0 34.75 L9.85 32.95 9.85 32.25 9.85 32.0 13.25 32.0 13.3 32.0 13.4 32.0 13.45 32.0 15.05 32.0 15.15 33.0 14.95 34.7 13.55 34.7 13.5 34.7 10.5 34.7 10.4 34.7 10.15 34.7 10.05 34.7 10.0 34.75 M9.85 30.7 L9.95 29.65 10.1 28.25 10.15 28.25 10.5 28.25 10.55 28.25 13.15 28.25 13.2 28.25 13.3 28.25 13.35 28.25 14.6 28.25 14.9 30.7 13.45 30.7 13.4 30.7 9.85 30.7" fill="#604767" fill-rule="evenodd" stroke="none"/>
    <path d="M23.0 12.85 Q24.9 13.9 25.65 15.7 26.3 17.25 26.4 18.9 27.25 13.7 25.2 8.75 22.75 2.85 17.6 0.8 15.45 0.0 13.35 0.05 L12.95 0.05 Q11.0 0.05 9.05 0.8 L8.4 1.1 M8.75 3.05 L7.9 1.35 7.2 1.75 M7.45 4.3 L6.3 2.35 Q3.2 4.6 1.5 8.75 -0.6 13.7 0.3 18.9 0.35 17.25 1.05 15.7 1.75 13.9 3.65 12.85 5.75 11.7 9.3 11.6 L10.6 11.55 12.1 11.55 12.1 11.5 14.6 11.5 14.6 11.55 16.1 11.55 Q14.7 11.75 14.6 13.1 L14.6 16.55 Q14.8 18.4 16.3 19.3 L16.3 19.85 Q15.05 20.35 14.8 22.25 L14.8 22.75 15.85 22.75 16.05 22.8 Q16.4 23.5 16.05 24.25 L15.85 24.3 15.6 24.3 15.7 24.6 16.1 26.0 16.35 26.95 16.4 26.95 16.5 27.0 16.7 27.15 16.85 27.6 16.7 28.05 16.55 28.15 16.75 29.65 16.8 30.7 17.1 30.9 17.25 31.35 17.1 31.8 16.85 32.0 16.85 32.25 16.8 32.95 16.7 34.7 16.75 34.7 Q16.9 34.75 17.05 34.9 L17.15 35.05 17.25 35.35 17.05 35.8 17.0 35.85 16.7 36.0 M23.0 12.85 Q20.9 11.7 17.35 11.6 L16.1 11.55 M16.5 36.0 L16.45 36.5 16.3 37.35 15.5 39.6 15.85 39.6 16.05 39.65 Q16.4 40.35 16.05 41.1 L15.85 41.15 10.8 41.15 10.65 41.1 Q10.25 40.35 10.65 39.65 L10.8 39.6 11.2 39.6 10.4 37.35 10.25 36.5 10.15 36.0 9.85 35.85 9.75 35.8 9.6 35.35 9.7 35.05 9.75 34.9 10.0 34.75 9.85 32.95 9.85 32.25 9.85 32.0 9.55 31.8 9.4 31.35 Q9.4 31.1 9.55 30.9 L9.85 30.7 9.95 29.65 10.1 28.25 9.8 28.05 9.65 27.6 Q9.6 27.3 9.8 27.15 L10.0 27.0 10.1 26.95 10.15 26.95 M10.35 26.95 L10.6 26.0 11.0 24.6 11.1 24.3 10.8 24.3 10.65 24.25 Q10.25 23.5 10.65 22.8 L10.8 22.75 11.9 22.75 11.9 22.25 Q11.6 20.35 10.4 19.85 L10.4 19.3 Q11.85 18.4 12.1 16.55 L12.1 13.1 Q11.95 11.75 10.6 11.55 M11.9 22.75 L14.8 22.75 M13.35 26.95 L13.3 26.95 M13.3 28.25 L13.35 28.25 M13.15 28.25 L13.2 28.25 M16.55 28.15 L16.4 28.25 16.35 28.25 M10.1 28.25 L10.15 28.25 M10.15 34.7 L10.05 34.7 10.0 34.75 M10.4 36.0 L10.5 36.0 M13.3 36.0 L13.35 36.0 M13.5 36.0 L13.55 36.0 M13.55 34.7 L13.5 34.7 M13.4 30.7 L13.45 30.7 M13.45 32.0 L13.4 32.0 M13.3 32.0 L13.25 32.0 M16.25 36.0 L16.15 36.0 M14.4 39.6 L15.5 39.6 M15.6 24.3 L11.1 24.3 M11.2 39.6 L14.4 39.6" fill="none" stroke="#000000" stroke-linecap="round" stroke-linejoin="round" stroke-width="0.05"/>
  </g>
</svg>
