<?xml version="1.0" encoding="UTF-8" standalone="no"?>
<svg xmlns:xlink="http://www.w3.org/1999/xlink" height="35.0px" width="34.5px" xmlns="http://www.w3.org/2000/svg">
  <g transform="matrix(1.0, 0.0, 0.0, 1.0, 0.0, 0.0)">
    <path d="M14.0 0.25 L25.3 1.25 19.3 10.05 7.7 8.8 14.0 0.25 M21.2 2.4 L21.25 2.3 21.2 2.4 M15.45 18.3 L25.6 19.6 23.85 25.25 20.7 28.2 20.7 26.7 16.6 25.65 12.55 24.6 16.6 25.65 12.95 27.7 12.9 27.7 12.95 27.7 12.9 27.7 3.85 25.25 9.85 23.9 12.55 24.6 15.45 18.3 M19.1 29.35 L18.3 29.15 18.25 29.1 19.1 29.35" fill="#ffffff" fill-rule="evenodd" stroke="none"/>
    <path d="M14.85 33.8 L5.95 31.35 3.85 25.25 12.9 27.7 14.85 33.8 M25.6 19.6 L15.45 18.3 7.7 8.8 19.3 10.05 25.6 19.6 M20.7 28.2 L23.85 25.25 22.9 28.2 21.7 32.15 17.75 31.3 16.8 28.75 18.3 29.15 19.1 29.35 19.7 29.5 20.7 29.75 20.7 29.7 20.7 28.2" fill="#d7d7d7" fill-rule="evenodd" stroke="none"/>
    <path d="M17.75 31.3 L21.7 32.15 18.4 33.15 17.75 31.3" fill="#999999" fill-rule="evenodd" stroke="none"/>
    <path d="M30.4 1.7 L34.5 6.15 31.2 5.75 25.5 9.0 30.4 1.7 M25.65 32.95 L19.1 35.0 18.4 33.15 21.7 32.15 25.65 32.95 M20.7 26.7 L20.7 28.2 20.7 29.7 20.7 29.75 19.7 29.5 19.1 29.35 18.25 29.1 18.3 29.15 16.8 28.75 20.7 26.7" fill="#666666" fill-rule="evenodd" stroke="none"/>
    <path d="M34.5 6.15 L30.25 9.75 25.5 9.0 31.2 5.75 34.5 6.15 M24.4 10.65 L30.6 20.25 25.6 19.6 19.3 10.05 24.4 10.65 M28.2 26.35 L25.65 32.95 21.7 32.15 22.9 28.2 28.2 26.35 M19.1 35.0 L14.85 33.8 12.9 27.7 12.95 27.7 16.8 28.75 17.75 31.3 18.4 33.15 19.1 35.0 M5.95 31.35 L3.0 30.5 0.0 24.25 3.85 25.25 5.95 31.35 M12.05 17.85 L3.9 8.35 7.7 8.8 15.45 18.3 12.05 17.85" fill="#a74a23" fill-rule="evenodd" stroke="none"/>
    <path d="M25.5 9.0 L24.4 10.65 19.3 10.05 25.3 1.25 30.4 1.7 25.5 9.0 M30.6 20.25 L28.2 26.35 22.9 28.2 23.85 25.25 25.6 19.6 30.6 20.25 M0.0 24.25 L5.65 22.85 8.95 23.7 12.05 17.85 15.45 18.3 12.55 24.6 9.85 23.9 3.85 25.25 0.0 24.25 M3.9 8.35 L11.15 0.0 14.0 0.25 7.7 8.8 3.9 8.35 M16.6 25.65 L20.7 26.7 16.8 28.75 12.95 27.7 16.6 25.65 M8.95 23.7 L9.85 23.9 8.95 23.7" fill="#da784e" fill-rule="evenodd" stroke="none"/>
    <path d="M30.4 1.7 L34.5 6.15 30.25 9.75 25.5 9.0 24.4 10.65 30.6 20.25 28.2 26.35 25.65 32.95 19.1 35.0 14.85 33.8 5.95 31.35 3.0 30.5 0.0 24.25 5.65 22.85 8.95 23.7 12.05 17.85 3.9 8.35 11.15 0.0 14.0 0.25 25.3 1.25 30.4 1.7" fill="none" stroke="#668466" stroke-linecap="round" stroke-linejoin="round" stroke-opacity="0.8" stroke-width="0.05"/>
    <path d="M30.4 1.7 L25.5 9.0 M12.55 24.6 L16.6 25.65 20.7 26.7 20.7 28.2 20.7 29.7 M25.6 19.6 L30.6 20.25 M7.7 8.8 L3.9 8.35 M9.85 23.9 L8.95 23.7 M12.05 17.85 L15.45 18.3 M12.55 24.6 L9.85 23.9 M12.9 27.7 L12.95 27.7 12.9 27.7 M19.7 29.5 L19.1 29.35 18.3 29.15 16.8 28.75 17.75 31.3 21.7 32.15 25.65 32.95 M19.1 35.0 L18.4 33.15 17.75 31.3 M21.7 32.15 L18.4 33.15 M16.8 28.75 L20.7 26.7 M19.3 10.05 L24.4 10.65" fill="none" stroke="#000000" stroke-linecap="round" stroke-linejoin="round" stroke-opacity="0.2" stroke-width="0.05"/>
  </g>
</svg>
