<?xml version="1.0" encoding="UTF-8" standalone="no"?>
<svg xmlns:xlink="http://www.w3.org/1999/xlink" height="87.7px" width="54.6px" xmlns="http://www.w3.org/2000/svg">
  <g transform="matrix(1.0, 0.0, 0.0, 1.0, -235.75, -159.35)">
    <path d="M271.0 168.65 L275.0 165.1 284.4 159.45 285.8 159.35 287.35 163.45 287.35 172.05 284.1 185.4 280.9 190.0 282.35 191.75 283.4 200.5 280.5 208.0 270.3 218.4 276.9 214.8 276.9 220.4 268.5 224.3 260.7 231.0 259.5 232.6 261.95 237.3 262.75 241.3 260.1 239.2 256.3 229.0 256.0 226.8 260.4 221.2 254.7 224.3 252.25 226.75 251.0 228.0 246.8 225.2 247.0 226.7 243.5 223.9 246.2 228.45 243.8 227.75 243.1 226.85 242.4 225.9 241.1 222.6 241.05 225.6 235.75 220.15 237.65 214.75 240.0 211.75 240.25 214.9 240.35 216.5 243.15 220.7 242.5 215.2 244.25 212.25 252.4 195.4 247.7 206.4 247.7 217.0 250.9 222.0 256.2 219.25 257.7 214.2 257.7 202.0 259.25 199.35 258.5 193.0 260.7 185.6 271.0 168.65 M287.9 198.35 L287.75 199.3 283.5 210.2 Q283.5 206.7 287.1 197.4 L287.9 198.35 M260.5 172.7 L262.55 172.7 262.45 176.2 260.75 177.7 257.3 183.0 257.3 179.4 260.5 172.7 M262.9 216.4 L271.9 199.6 262.9 205.6 262.9 216.4" fill="#c64a09" fill-rule="evenodd" stroke="none"/>
    <path d="M271.0 168.65 L260.7 185.6 258.5 193.0 259.25 199.35 257.7 202.0 257.7 214.2 256.2 219.25 250.9 222.0 247.7 217.0 247.7 206.4 252.4 195.4 244.25 212.25 242.5 215.2 243.15 220.7 240.35 216.5 240.25 214.9 240.0 211.75 240.0 208.6 243.3 195.0 255.4 175.5 260.5 172.7 257.3 179.4 257.3 183.0 260.75 177.7 262.45 176.2 271.0 168.65" fill="#ffaa55" fill-rule="evenodd" stroke="none"/>
    <path d="M235.75 220.15 L241.05 225.6 241.1 222.6 242.4 225.9 243.1 226.85 243.55 230.9 243.35 230.9 238.55 226.8 237.55 225.3 235.75 220.15 M252.25 226.75 L254.7 224.3 260.4 221.2 256.0 226.8 256.3 229.0 252.25 226.75 M262.75 241.3 L261.95 237.3 259.5 232.6 260.7 231.0 268.5 224.3 276.9 220.4 276.9 214.8 270.3 218.4 280.5 208.0 283.4 200.5 282.35 191.75 280.9 190.0 284.1 185.4 287.35 172.05 289.75 172.05 290.3 178.9 287.9 198.35 287.1 197.4 Q283.5 206.7 283.5 210.2 L287.75 199.3 289.5 199.3 290.35 201.25 289.15 213.1 286.0 224.15 279.2 234.0 273.85 239.15 272.5 239.6 272.1 240.15 271.25 242.15 271.25 243.3 270.35 244.85 270.35 245.6 269.1 247.05 Q268.8 245.75 268.2 245.8 L268.05 245.25 265.35 243.05 265.4 243.4 262.75 241.3 M262.9 216.4 L262.9 205.6 271.9 199.6 262.9 216.4" fill="#9d3a06" fill-rule="evenodd" stroke="none"/>
    <path d="M287.35 172.05 L287.35 163.45 285.8 159.35 284.4 159.45 275.0 165.1 271.0 168.65 262.45 176.2 262.55 172.7 260.5 172.7 255.4 175.5 243.3 195.0 240.0 208.6 240.0 211.75 237.65 214.75 235.75 220.15 237.55 225.3 238.55 226.8 243.35 230.9 243.55 230.9 243.1 226.85 243.8 227.75 246.2 228.45 243.5 223.9 247.0 226.7 246.8 225.2 251.0 228.0 252.25 226.75 254.7 224.3 M256.3 229.0 L260.1 239.2 262.75 241.3 265.4 243.4 265.35 243.05 268.05 245.25 268.2 245.8 Q268.8 245.75 269.1 247.05 L270.35 245.6 270.35 244.85 271.25 243.3 271.25 242.15 272.1 240.15 272.5 239.6 273.85 239.15 279.2 234.0 286.0 224.15 289.15 213.1 290.35 201.25 289.5 199.3 287.75 199.3 M287.35 172.05 L289.75 172.05 290.3 178.9 287.9 198.35 M252.25 226.75 L256.3 229.0" fill="none" stroke="#000000" stroke-linecap="round" stroke-linejoin="round" stroke-opacity="0.27058825" stroke-width="0.05"/>
  </g>
</svg>
