<?xml version="1.0" encoding="UTF-8" standalone="no"?>
<svg xmlns:xlink="http://www.w3.org/1999/xlink" height="85.05px" width="99.35px" xmlns="http://www.w3.org/2000/svg">
  <g transform="matrix(1.0, 0.0, 0.0, 1.0, -251.3, -103.35)">
    <path d="M318.15 119.7 L321.65 113.1 333.15 103.6 331.9 107.75 340.4 105.1 336.25 110.1 340.9 110.1 331.5 112.5 335.5 113.6 332.5 114.9 332.5 116.5 343.75 110.5 342.0 113.6 350.4 113.6 342.2 119.4 336.9 119.4 339.15 121.55 332.45 126.3 320.45 129.0 329.35 121.5 319.55 127.3 323.2 120.2 320.45 120.2 323.45 116.2 318.15 119.7 M322.75 137.7 L324.25 133.3 344.75 122.1 340.5 129.15 345.0 130.25 Q343.65 131.4 342.2 131.95 L339.75 131.75 341.05 132.8 338.4 134.2 335.25 133.75 337.3 135.05 Q333.8 136.75 331.15 139.25 L328.65 140.6 323.15 139.5 329.65 134.8 322.75 137.7 M332.5 114.9 L332.5 113.35 330.05 116.0 332.5 113.35 332.5 114.9 M330.05 116.0 L327.55 116.6 327.55 118.6 330.05 116.0 M327.55 116.6 L327.55 112.15 323.2 120.2 327.55 112.15 327.55 116.6" fill="#d0bc93" fill-rule="evenodd" stroke="none"/>
    <path d="M320.45 129.0 L320.25 129.05 319.95 129.1 311.1 135.85 311.1 135.95 295.8 147.55 293.95 149.0 287.85 153.6 287.2 151.9 292.9 147.7 294.8 146.25 311.1 133.7 311.1 133.75 319.55 127.3 329.35 121.5 320.45 129.0 M298.15 150.55 L310.95 143.85 311.05 143.95 311.05 143.8 322.75 137.7 329.65 134.8 323.15 139.5 311.05 145.8 311.0 145.9 299.25 151.95 296.75 153.25 289.25 157.15 288.6 155.45 295.85 151.7 298.15 150.55 M318.15 119.7 L323.45 116.2 320.45 120.2 311.45 128.05 311.55 128.0 293.25 144.1 291.4 145.8 286.45 150.1 287.15 147.5 287.25 147.2 287.3 146.95 290.4 144.25 292.15 142.65 311.25 125.75 311.25 125.8 318.15 119.7" fill="#752f0b" fill-rule="evenodd" stroke="none"/>
    <path d="M295.8 147.55 L298.15 150.55 295.85 151.7 293.95 149.0 295.8 147.55 M299.25 151.95 L299.35 161.1 298.6 161.8 291.0 162.1 269.9 177.3 267.05 175.15 266.45 164.45 287.15 147.5 286.45 150.1 287.2 151.9 287.85 153.6 288.6 155.45 289.25 157.15 289.95 158.9 296.75 158.9 296.75 153.25 299.25 151.95 M291.4 145.8 L293.25 144.1 294.8 146.25 292.9 147.7 291.4 145.8 M263.25 165.9 L264.3 176.65 266.65 179.0 258.65 183.6 253.45 183.6 251.55 180.55 252.05 175.4 256.25 170.95 263.25 165.9" fill="#554a11" fill-rule="evenodd" stroke="none"/>
    <path d="M290.4 144.25 L287.3 146.95 288.6 142.3 288.65 142.0 288.85 142.25 290.25 144.1 290.4 144.25 M286.45 150.1 L291.4 145.8 292.9 147.7 287.2 151.9 286.45 150.1 M288.6 142.3 L288.85 142.25 288.6 142.3 M266.35 163.0 L266.45 164.45 267.05 175.15 269.9 177.3 272.5 179.3 275.4 179.6 272.9 181.25 269.0 181.35 266.65 179.0 264.3 176.65 263.25 165.9 263.15 165.0 266.35 163.0 M296.75 153.25 L296.75 158.9 289.95 158.9 289.25 157.15 296.75 153.25 M288.6 155.45 L287.85 153.6 293.95 149.0 295.85 151.7 288.6 155.45" fill="#3d2e0c" fill-rule="evenodd" stroke="none"/>
    <path d="M292.15 142.65 L290.4 144.25 290.25 144.1 288.85 142.25 290.75 141.75 291.1 141.8 290.75 141.75 290.8 141.6 291.1 141.8 292.15 142.65 M287.3 146.95 L287.25 147.2 287.15 147.5 266.45 164.45 266.35 163.0 266.3 162.05 268.35 156.25 282.9 143.3 288.6 142.3 287.3 146.95 M263.15 165.0 L263.25 165.9 256.25 170.95 252.05 175.4 252.35 171.95 255.9 167.35 264.15 160.0 262.9 162.75 263.15 165.0" fill="#92831d" fill-rule="evenodd" stroke="none"/>
    <path d="M264.15 160.0 L264.8 158.65 268.6 155.6 268.35 156.25 266.3 162.05 266.35 163.0 263.15 165.0 262.9 162.75 264.15 160.0 M266.65 179.0 L269.0 181.35 272.9 181.25 266.15 185.75 256.25 188.15 253.45 183.6 258.65 183.6 266.65 179.0 M275.4 179.6 L272.5 179.3 269.9 177.3 291.0 162.1 298.6 161.8 289.75 169.7 286.65 171.9 275.4 179.6 M286.65 171.9 L283.35 170.45 286.65 171.9" fill="#453d0e" fill-rule="evenodd" stroke="none"/>
    <path d="M318.15 119.7 L321.65 113.1 333.15 103.6 331.9 107.75 340.4 105.1 336.25 110.1 340.9 110.1 331.5 112.5 335.5 113.6 332.5 114.9 332.5 116.5 343.75 110.5 342.0 113.6 350.4 113.6 342.2 119.4 336.9 119.4 339.15 121.55 332.45 126.3 320.45 129.0 M320.25 129.05 L319.95 129.1 311.1 135.85 M311.1 135.95 L295.8 147.55 298.15 150.55 310.95 143.85 M311.05 143.8 L322.75 137.7 324.25 133.3 344.75 122.1 340.5 129.15 345.0 130.25 M342.2 131.95 L339.75 131.75 341.05 132.8 M338.4 134.2 L335.25 133.75 337.3 135.05 M331.15 139.25 L328.65 140.6 323.15 139.5 311.05 145.8 M311.0 145.9 L299.25 151.95 299.35 161.1 298.6 161.8 299.5 161.75 M330.05 116.0 L332.5 113.35 332.5 114.9 M330.05 116.0 L327.55 116.6 327.55 118.6 330.05 116.0 M323.2 120.2 L327.55 112.15 327.55 116.6 M318.15 119.7 L311.25 125.8 311.25 125.75 292.15 142.65 290.4 144.25 287.3 146.95 287.25 147.2 M287.15 147.5 L286.45 150.1 291.4 145.8 293.25 144.1 311.55 128.0 311.45 128.05 320.45 120.2 323.2 120.2 319.55 127.3 311.1 133.75 M290.75 141.75 L288.85 142.25 290.25 144.1 M291.1 141.8 L290.75 141.75 290.8 141.6 291.1 141.8 292.15 142.65 M288.85 142.25 L288.6 142.3 287.3 146.95 M291.4 145.8 L292.9 147.7 294.8 146.25 293.25 144.1 M294.8 146.25 L311.1 133.7 M264.15 160.0 L264.8 158.65 268.6 155.6 268.35 156.25 282.9 143.3 288.6 142.3 M266.35 163.0 L266.45 164.45 267.05 175.15 269.9 177.3 272.5 179.3 275.4 179.6 272.9 181.25 266.15 185.75 256.25 188.15 253.45 183.6 251.55 180.55 252.05 175.4 252.35 171.95 255.9 167.35 264.15 160.0 262.9 162.75 263.15 165.0 263.25 165.9 264.3 176.65 266.65 179.0 269.0 181.35 272.9 181.25 M268.35 156.25 L266.3 162.05 266.35 163.0 M289.25 157.15 L289.95 158.9 296.75 158.9 296.75 153.25 289.25 157.15 288.6 155.45 287.85 153.6 287.2 151.9 286.45 150.1 M293.95 149.0 L295.85 151.7 298.15 150.55 M296.75 153.25 L299.25 151.95 M298.6 161.8 L289.75 169.7 286.65 171.9 275.4 179.6 M288.6 155.45 L295.85 151.7 M287.85 153.6 L293.95 149.0 295.8 147.55 M283.35 170.45 L286.65 171.9 M287.2 151.9 L292.9 147.7" fill="none" stroke="#47392b" stroke-linecap="round" stroke-linejoin="round" stroke-opacity="0.62352943" stroke-width="0.5"/>
    <path d="M345.0 130.25 Q343.65 131.4 342.2 131.95 M341.05 132.8 L338.4 134.2 M337.3 135.05 Q333.8 136.75 331.15 139.25" fill="none" stroke="#261b0a" stroke-linecap="round" stroke-linejoin="round" stroke-opacity="0.6627451" stroke-width="0.5"/>
  </g>
</svg>
