<?xml version="1.0" encoding="UTF-8" standalone="no"?>
<svg xmlns:xlink="http://www.w3.org/1999/xlink" height="199.2px" width="323.6px" xmlns="http://www.w3.org/2000/svg">
  <g transform="matrix(1.0, 0.0, 0.0, 1.0, 161.8, 99.6)">
    <path d="M83.8 -98.0 L86.5 -98.1 Q99.3 -98.3 111.3 -94.8 73.5 -91.7 58.55 -80.1 L51.3 -74.25 Q43.25 -67.3 41.05 -63.1 L40.85 -62.7 40.7 -62.95 39.45 -62.3 Q35.0 -60.05 30.65 -61.95 L28.6 -62.45 Q25.45 -62.7 23.65 -66.05 L24.35 -67.45 23.65 -66.05 23.0 -67.8 24.35 -67.45 Q26.75 -70.8 29.45 -73.8 L27.8 -70.9 29.1 -68.45 Q34.05 -66.95 37.95 -70.9 43.45 -76.65 49.9 -81.15 65.6 -92.05 83.8 -98.0 M138.75 -88.2 Q148.55 -82.45 158.65 -71.9 136.65 -75.05 121.45 -70.45 109.0 -66.65 98.65 -58.65 L94.55 -55.4 94.55 -55.35 80.15 -57.05 75.0 -57.25 Q69.3 -55.3 66.4 -50.85 86.6 -52.05 106.15 -46.5 113.8 -44.25 121.55 -42.15 L121.55 -42.0 Q99.35 -45.35 77.1 -47.0 L64.3 -46.3 63.85 -44.45 Q63.4 -42.2 64.25 -40.2 67.6 -32.15 75.5 -28.3 79.15 -26.6 83.05 -26.1 90.55 -25.4 98.0 -23.65 106.25 -21.95 114.15 -19.75 L124.25 -16.4 Q128.85 -14.8 133.3 -12.8 140.85 -9.35 146.25 -2.85 150.65 2.5 153.55 8.95 L156.85 16.45 153.45 23.15 151.45 26.7 Q149.3 30.1 146.65 33.1 L146.8 25.9 Q146.75 14.15 140.35 4.15 136.55 -1.75 130.8 -5.65 124.1 -10.25 116.0 -12.55 104.15 -15.9 92.05 -13.15 L89.3 -13.3 Q84.45 -14.8 80.5 -18.5 L79.25 -19.55 74.75 -23.55 85.5 -10.5 76.85 -5.65 72.9 -12.85 Q68.9 -19.95 63.4 -25.95 58.4 -31.45 52.85 -36.15 48.0 -40.3 42.5 -43.55 35.0 -47.85 26.3 -47.05 17.85 -46.55 9.65 -44.9 L-1.95 -41.6 9.65 -44.9 Q38.35 -40.5 35.85 -26.25 34.65 -19.55 29.95 -14.5 22.7 -6.65 13.45 -0.75 7.95 2.8 3.7 7.45 L-0.5 12.2 0.0 12.6 -1.1 12.95 Q-25.8 20.3 -44.9 36.65 -50.35 41.3 -55.3 46.7 -64.55 56.75 -69.85 69.35 -75.45 82.7 -77.3 98.1 L-81.65 91.15 Q-78.35 68.7 -67.15 49.1 -56.45 30.25 -38.8 18.1 -20.3 5.3 -2.6 -8.45 4.4 -13.85 5.5 -22.05 -22.1 -14.0 -44.85 3.6 L-48.1 6.3 -48.2 6.2 Q-33.65 -9.5 -14.45 -19.05 -2.6 -25.0 8.15 -32.9 4.95 -38.6 -1.95 -41.6 -9.9 -39.0 -17.3 -35.15 -24.0 -31.85 -30.15 -27.65 -36.25 -23.45 -41.9 -18.4 -47.6 -13.3 -52.65 -7.55 -57.9 -1.55 -62.3 4.95 -67.0 11.8 -70.9 19.1 -75.05 26.85 -78.5 34.95 -81.2 41.25 -83.5 47.85 -85.9 54.65 -87.9 61.7 L-88.95 50.3 -87.6 45.3 Q-85.45 38.2 -82.55 31.3 L-81.25 28.1 Q-79.25 23.1 -76.75 18.45 L-73.95 13.6 -66.65 1.25 Q-61.1 -7.85 -53.05 -14.85 L-46.85 -20.1 Q-40.1 -25.8 -32.55 -30.7 L-21.55 -37.15 Q-17.3 -39.35 -13.7 -42.6 L-16.2 -43.25 -24.2 -43.5 Q-30.65 -40.05 -36.3 -35.0 L-42.0 -36.4 Q-57.3 -39.6 -72.95 -38.4 -91.4 -36.9 -108.5 -29.75 -124.7 -23.0 -137.7 -11.45 -151.1 0.6 -160.3 16.1 -153.95 0.4 -142.85 -12.7 L-142.45 -13.1 -133.05 -21.1 -124.65 -26.85 Q-117.55 -31.05 -109.7 -33.7 -107.3 -34.5 -105.05 -35.45 -97.1 -38.75 -88.65 -40.25 L-84.35 -41.0 -68.55 -42.95 Q-59.6 -43.7 -50.6 -43.4 L-39.25 -44.15 Q-37.9 -44.35 -36.7 -44.9 -35.35 -49.75 -37.1 -55.25 L-36.45 -55.7 -11.85 -52.35 -36.45 -55.7 -60.3 -56.4 Q-71.2 -55.65 -81.9 -53.05 L-79.9 -55.4 -70.75 -57.6 -61.5 -58.65 Q-41.9 -60.4 -22.3 -58.0 -16.2 -57.25 -10.35 -58.75 L-5.15 -60.15 Q-7.7 -55.55 -11.85 -52.35 L-3.45 -50.9 Q5.0 -53.4 13.85 -54.05 L17.75 -54.25 Q25.05 -54.35 32.2 -52.75 L36.9 -51.6 43.8 -49.55 58.25 -54.45 62.85 -55.6 Q68.8 -57.0 75.0 -57.25 68.8 -57.0 62.85 -55.6 L58.25 -54.45 Q57.2 -55.7 56.65 -57.25 56.05 -59.0 56.05 -60.4 L58.1 -60.6 Q70.65 -64.1 81.95 -70.35 91.75 -75.65 102.0 -80.1 119.65 -87.6 138.75 -88.2 M60.65 0.9 Q50.95 5.8 50.3 17.45 L48.75 18.6 Q43.4 23.0 40.55 29.35 28.9 13.95 16.9 9.1 L18.1 8.95 18.3 8.95 19.25 8.8 19.5 8.8 19.7 8.75 Q40.3 6.0 52.8 3.0 L60.65 0.9 M57.65 -38.9 L43.8 -49.55 57.65 -38.9 M-3.45 -50.9 L-12.2 -48.45 Q-18.55 -46.45 -24.2 -43.5 -18.55 -46.45 -12.2 -48.45 L-3.45 -50.9" fill="#5f7502" fill-rule="evenodd" stroke="none"/>
    <path d="M111.3 -94.8 Q124.75 -96.4 138.75 -88.2 119.65 -87.6 102.0 -80.1 91.75 -75.65 81.95 -70.35 70.65 -64.1 58.1 -60.6 L56.05 -60.4 Q54.35 -60.45 52.8 -61.25 48.9 -63.1 49.0 -67.75 49.1 -71.35 51.3 -74.25 L58.55 -80.1 Q73.5 -91.7 111.3 -94.8 M95.8 -55.2 Q115.4 -52.25 133.3 -44.05 152.2 -35.45 158.1 -15.7 163.05 0.8 156.85 16.45 L153.55 8.95 Q150.65 2.5 146.25 -2.85 140.85 -9.35 133.3 -12.8 128.85 -14.8 124.25 -16.4 L114.15 -19.75 Q106.25 -21.95 98.0 -23.65 90.55 -25.4 83.05 -26.1 79.15 -26.6 75.5 -28.3 67.6 -32.15 64.25 -40.2 63.4 -42.2 63.85 -44.45 L64.3 -46.3 77.1 -47.0 Q99.35 -45.35 121.55 -42.0 L121.55 -42.15 Q113.8 -44.25 106.15 -46.5 86.6 -52.05 66.4 -50.85 69.3 -55.3 75.0 -57.25 L80.15 -57.05 94.55 -55.35 95.8 -55.2 M50.3 17.45 Q49.15 39.1 79.65 84.1 75.65 90.5 67.65 81.1 54.35 47.7 40.55 29.35 43.4 23.0 48.75 18.6 L50.3 17.45 M-81.65 91.15 Q-88.05 79.75 -88.4 70.2 L-88.5 66.9 -87.9 61.7 Q-85.9 54.65 -83.5 47.85 -81.2 41.25 -78.5 34.95 -75.05 26.85 -70.9 19.1 -67.0 11.8 -62.3 4.95 -57.9 -1.55 -52.65 -7.55 -47.6 -13.3 -41.9 -18.4 -36.25 -23.45 -30.15 -27.65 -24.0 -31.85 -17.3 -35.15 -9.9 -39.0 -1.95 -41.6 4.95 -38.6 8.15 -32.9 -2.6 -25.0 -14.45 -19.05 -33.65 -9.5 -48.2 6.2 L-48.1 6.3 -44.85 3.6 Q-22.1 -14.0 5.5 -22.05 4.4 -13.85 -2.6 -8.45 -20.3 5.3 -38.8 18.1 -56.45 30.25 -67.15 49.1 -78.35 68.7 -81.65 91.15 M-88.95 50.3 Q-90.1 2.0 -36.3 -35.0 -30.65 -40.05 -24.2 -43.5 L-16.2 -43.25 -13.7 -42.6 Q-17.3 -39.35 -21.55 -37.15 L-32.55 -30.7 Q-40.1 -25.8 -46.85 -20.1 L-53.05 -14.85 Q-61.1 -7.85 -66.65 1.25 L-73.95 13.6 -76.75 18.45 Q-79.25 23.1 -81.25 28.1 L-82.55 31.3 Q-85.45 38.2 -87.6 45.3 L-88.95 50.3 M-142.45 -13.1 Q-130.7 -27.0 -115.65 -37.0 -100.0 -47.25 -81.9 -53.05 -71.2 -55.65 -60.3 -56.4 L-36.45 -55.7 -37.1 -55.25 Q-35.35 -49.75 -36.7 -44.9 -37.9 -44.35 -39.25 -44.15 L-50.6 -43.4 Q-59.6 -43.7 -68.55 -42.95 L-84.35 -41.0 -88.65 -40.25 Q-97.1 -38.75 -105.05 -35.45 -107.3 -34.5 -109.7 -33.7 -117.55 -31.05 -124.65 -26.85 L-133.05 -21.1 -142.45 -13.1 M-79.9 -55.4 Q-73.4 -61.6 -53.15 -66.65 -29.1 -72.65 -10.55 -72.15 0.05 -71.85 10.05 -70.35 8.0 -63.35 0.2 -61.5 L-5.15 -60.15 -10.35 -58.75 Q-16.2 -57.25 -22.3 -58.0 -41.9 -60.4 -61.5 -58.65 L-70.75 -57.6 -79.9 -55.4 M29.45 -73.8 L30.05 -74.5 Q39.45 -84.75 52.55 -90.55 67.45 -97.3 83.8 -98.0 65.6 -92.05 49.9 -81.15 43.45 -76.65 37.95 -70.9 34.05 -66.95 29.1 -68.45 L27.8 -70.9 29.45 -73.8" fill="#81a003" fill-rule="evenodd" stroke="none"/>
    <path d="M76.85 -5.65 Q69.0 -1.75 60.65 0.9 L52.8 3.0 Q40.3 6.0 19.7 8.75 L19.5 8.8 19.25 8.8 18.3 8.95 18.1 8.95 16.9 9.1 Q8.25 10.25 0.0 12.6 L-0.5 12.2 3.7 7.45 Q7.95 2.8 13.45 -0.75 22.7 -6.65 29.95 -14.5 34.65 -19.55 35.85 -26.25 38.35 -40.5 9.65 -44.9 17.85 -46.55 26.3 -47.05 35.0 -47.85 42.5 -43.55 48.0 -40.3 52.85 -36.15 58.4 -31.45 63.4 -25.95 68.9 -19.95 72.9 -12.85 L76.85 -5.65 M10.05 -70.35 L23.0 -67.8 23.65 -66.05 17.75 -54.25 23.65 -66.05 Q25.45 -62.7 28.6 -62.45 L30.65 -61.95 Q35.0 -60.05 39.45 -62.3 L40.7 -62.95 40.85 -62.7 41.05 -63.1 Q43.25 -67.3 51.3 -74.25 49.1 -71.35 49.0 -67.75 48.9 -63.1 52.8 -61.25 54.35 -60.45 56.05 -60.4 56.05 -59.0 56.65 -57.25 57.2 -55.7 58.25 -54.45 L43.8 -49.55 36.9 -51.6 32.2 -52.75 Q25.05 -54.35 17.75 -54.25 L13.85 -54.05 Q5.0 -53.4 -3.45 -50.9 L-11.85 -52.35 Q-7.7 -55.55 -5.15 -60.15 L0.2 -61.5 Q8.0 -63.35 10.05 -70.35 M40.85 -62.7 Q38.05 -56.85 36.9 -51.6 38.05 -56.85 40.85 -62.7" fill="#435302" fill-rule="evenodd" stroke="none"/>
    <path d="M83.8 -98.0 L86.5 -98.1 Q99.3 -98.3 111.3 -94.8 124.75 -96.4 138.75 -88.2 148.55 -82.45 158.65 -71.9 136.65 -75.05 121.45 -70.45 109.0 -66.65 98.65 -58.65 L94.55 -55.4 95.8 -55.2 Q115.4 -52.25 133.3 -44.05 152.2 -35.45 158.1 -15.7 163.05 0.8 156.85 16.45 L153.45 23.15 151.45 26.7 Q149.3 30.1 146.65 33.1 L146.8 25.9 Q146.75 14.15 140.35 4.15 136.55 -1.75 130.8 -5.65 124.1 -10.25 116.0 -12.55 104.15 -15.9 92.05 -13.15 L89.3 -13.3 Q84.45 -14.8 80.5 -18.5 L79.25 -19.55 74.75 -23.55 85.5 -10.5 76.85 -5.65 Q69.0 -1.75 60.65 0.9 50.95 5.8 50.3 17.45 49.15 39.1 79.65 84.1 75.65 90.5 67.65 81.1 54.35 47.7 40.55 29.35 28.9 13.95 16.9 9.1 8.25 10.25 0.0 12.6 L-1.1 12.95 Q-25.8 20.3 -44.9 36.65 -50.35 41.3 -55.3 46.7 -64.55 56.75 -69.85 69.35 -75.45 82.7 -77.3 98.1 L-81.65 91.15 Q-88.05 79.75 -88.4 70.2 L-88.5 66.9 -87.9 61.7 -88.95 50.3 Q-90.1 2.0 -36.3 -35.0 L-42.0 -36.4 Q-57.3 -39.6 -72.95 -38.4 -91.4 -36.9 -108.5 -29.75 -124.7 -23.0 -137.7 -11.45 -151.1 0.6 -160.3 16.1 -153.95 0.4 -142.85 -12.7 L-142.45 -13.1 Q-130.7 -27.0 -115.65 -37.0 -100.0 -47.25 -81.9 -53.05 L-79.9 -55.4 Q-73.4 -61.6 -53.15 -66.65 -29.1 -72.65 -10.55 -72.15 0.05 -71.85 10.05 -70.35 L23.0 -67.8 24.35 -67.45 Q26.75 -70.8 29.45 -73.8 L30.05 -74.5 Q39.45 -84.75 52.55 -90.55 67.45 -97.3 83.8 -98.0 M75.0 -57.25 Q68.8 -57.0 62.85 -55.6 L58.25 -54.45 43.8 -49.55 57.65 -38.9 M75.0 -57.25 L80.15 -57.05 94.55 -55.35 95.8 -55.2 M-24.2 -43.5 Q-18.55 -46.45 -12.2 -48.45 L-3.45 -50.9 -11.85 -52.35 -36.45 -55.7 -60.3 -56.4 Q-71.2 -55.65 -81.9 -53.05 M-3.45 -50.9 Q5.0 -53.4 13.85 -54.05 L17.75 -54.25 23.65 -66.05 24.35 -67.45 M111.3 -94.8 Q73.5 -91.7 58.55 -80.1 L51.3 -74.25 Q43.25 -67.3 41.05 -63.1 L40.85 -62.7 Q38.05 -56.85 36.9 -51.6 L43.8 -49.55 M17.75 -54.25 Q25.05 -54.35 32.2 -52.75 L36.9 -51.6 M-24.2 -43.5 Q-30.65 -40.05 -36.3 -35.0 M-1.95 -41.6 Q-9.9 -39.0 -17.3 -35.15 -24.0 -31.85 -30.15 -27.65 -36.25 -23.45 -41.9 -18.4 -47.6 -13.3 -52.65 -7.55 -57.9 -1.55 -62.3 4.95 -67.0 11.8 -70.9 19.1 -75.05 26.85 -78.5 34.95 -81.2 41.25 -83.5 47.85 -85.9 54.65 -87.9 61.7 M-1.95 -41.6 L9.65 -44.9 M16.9 9.1 L18.1 8.95 18.3 8.95 19.25 8.8 19.5 8.8 19.7 8.75 Q40.3 6.0 52.8 3.0 L60.65 0.9" fill="none" stroke="#000000" stroke-linecap="round" stroke-linejoin="round" stroke-opacity="0.4" stroke-width="1.0"/>
    <path d="M86.5 -98.1 Q99.3 -98.3 111.3 -94.8 124.75 -96.4 138.75 -88.2 148.55 -82.45 158.65 -71.9 136.65 -75.05 121.45 -70.45 109.0 -66.65 98.65 -58.65 L94.55 -55.4 94.55 -55.35 95.8 -55.2 Q115.4 -52.25 133.3 -44.05 152.2 -35.45 158.1 -15.7 163.05 0.8 156.85 16.45 L153.45 23.15 151.45 26.7 Q149.3 30.1 146.65 33.1 L146.8 25.9 Q146.75 14.15 140.35 4.15 136.55 -1.75 130.8 -5.65 124.1 -10.25 116.0 -12.55 104.15 -15.9 92.05 -13.15 L89.3 -13.3 Q84.45 -14.8 80.5 -18.5 L79.25 -19.55 74.75 -23.55 85.5 -10.5 76.85 -5.65 Q69.0 -1.75 60.65 0.9 50.95 5.8 50.3 17.45 49.15 39.1 79.65 84.1 75.65 90.5 67.65 81.1 54.35 47.7 40.55 29.35 28.9 13.95 16.9 9.1 8.25 10.25 0.0 12.6 L-1.1 12.95 Q-25.8 20.3 -44.9 36.65 -50.35 41.3 -55.3 46.7 -64.55 56.75 -69.85 69.35 -75.45 82.7 -77.3 98.1 L-81.65 91.15 Q-88.05 79.75 -88.4 70.2 L-88.5 66.9 -87.9 61.7 -88.95 50.3 Q-90.1 2.0 -36.3 -35.0 L-42.0 -36.4 Q-57.3 -39.6 -72.95 -38.4 -91.4 -36.9 -108.5 -29.75 -124.7 -23.0 -137.7 -11.45 -151.1 0.6 -160.3 16.1 -153.95 0.4 -142.85 -12.7 L-142.45 -13.1 Q-130.7 -27.0 -115.65 -37.0 -100.0 -47.25 -81.9 -53.05 L-79.9 -55.4 Q-73.4 -61.6 -53.15 -66.65 -29.1 -72.65 -10.55 -72.15 0.05 -71.85 10.05 -70.35 L23.0 -67.8 24.35 -67.45 Q26.75 -70.8 29.45 -73.8 L30.05 -74.5 Q39.45 -84.75 52.55 -90.55 67.45 -97.3 83.8 -98.0 L86.5 -98.1 Z" fill="none" stroke="#000000" stroke-linecap="round" stroke-linejoin="round" stroke-opacity="0.4" stroke-width="3.0"/>
  </g>
</svg>
