<?xml version="1.0" encoding="UTF-8" standalone="no"?>
<svg xmlns:xlink="http://www.w3.org/1999/xlink" height="63.95px" width="52.85px" xmlns="http://www.w3.org/2000/svg">
  <g transform="matrix(1.0, 0.0, 0.0, 1.0, -250.1, -156.5)">
    <path d="M294.95 168.25 L297.05 168.5 Q302.35 171.1 302.45 176.85 L302.25 176.9 Q300.85 175.55 298.9 175.2 297.1 174.9 296.1 176.2 294.65 177.95 294.65 179.1 294.65 178.05 293.8 177.4 L290.7 174.8 287.9 172.2 284.85 169.7 283.4 168.7 281.75 167.7 280.0 166.65 278.9 166.05 278.2 165.7 275.7 164.7 274.5 163.1 274.3 162.9 274.4 162.95 274.45 162.95 274.5 163.0 Q274.55 162.55 274.95 162.15 275.7 161.3 276.6 160.8 276.0 161.45 276.3 162.45 276.55 163.65 277.45 164.35 L277.6 164.45 Q279.0 165.15 280.35 166.0 L280.5 166.05 280.95 166.35 281.6 166.75 Q281.3 166.5 281.35 166.05 281.35 165.85 281.5 165.6 281.85 164.75 282.9 164.55 284.1 164.3 284.9 164.8 284.4 164.8 284.0 165.05 283.45 165.45 283.3 166.05 283.2 166.5 283.4 167.1 L283.5 167.3 284.0 168.25 284.3 168.45 284.4 168.5 285.15 169.0 291.2 172.95 291.55 172.75 291.5 172.7 Q289.5 169.5 293.15 168.5 L294.95 168.25 M274.5 163.1 L274.5 163.0 274.5 163.1 M284.4 168.5 L284.0 168.25 284.4 168.5 M291.9 173.3 L291.55 172.75 291.9 173.3 M274.75 213.75 L277.35 215.3 Q278.65 216.0 281.2 213.8 L281.85 214.35 Q282.15 214.8 282.1 215.6 L282.05 216.0 281.8 216.6 Q281.4 217.6 281.6 217.6 L281.25 217.75 Q278.9 218.35 277.2 216.7 275.45 215.4 274.75 213.75" fill="#7e715a" fill-rule="evenodd" stroke="none"/>
    <path d="M275.7 164.7 L278.2 165.7 278.9 166.05 280.0 166.65 281.75 167.7 283.4 168.7 284.85 169.7 287.9 172.2 290.7 174.8 293.8 177.4 Q294.65 178.05 294.65 179.1 294.65 177.95 296.1 176.2 297.1 174.9 298.9 175.2 300.85 175.55 302.25 176.9 L302.45 176.85 302.45 177.05 302.3 179.2 Q301.35 185.55 296.55 189.8 L291.2 181.6 Q288.25 177.1 283.4 173.3 L282.95 172.9 Q280.05 170.65 276.8 169.05 276.95 167.55 276.4 166.05 L275.7 164.7 M250.85 203.2 Q252.2 204.2 253.75 204.95 259.55 207.65 266.1 209.25 270.1 210.25 274.25 210.75 274.15 212.2 274.65 213.5 L274.75 213.75 Q275.45 215.4 277.2 216.7 278.9 218.35 281.25 217.75 L281.6 217.6 281.55 217.7 Q280.15 220.8 275.75 219.6 L268.5 217.7 Q262.55 215.95 257.4 212.75 251.9 209.35 250.85 203.2 M263.1 188.95 L263.35 188.65 263.75 188.4 263.75 188.35 Q265.35 188.65 266.05 190.05 L266.05 190.2 265.85 190.45 265.25 190.6 263.15 189.05 263.1 188.95 M265.5 186.4 L265.75 186.1 266.45 186.4 267.55 187.35 267.6 187.5 267.35 187.95 267.0 188.1 Q264.7 187.5 265.5 186.4 M268.4 186.0 L266.35 184.95 266.4 184.75 266.55 184.55 266.75 184.45 267.0 184.35 268.65 184.6 Q270.65 185.05 272.25 186.35 L272.35 186.5 272.3 186.7 272.25 186.85 272.1 186.95 271.75 187.1 268.4 186.0 M270.8 183.45 Q270.35 182.8 270.35 181.95 L270.5 181.85 274.0 183.85 274.25 184.0 274.6 184.2 274.6 184.25 274.6 184.3 274.4 184.65 274.0 184.85 Q271.6 184.55 270.8 183.45 M278.85 184.85 L278.6 184.75 Q278.0 183.9 276.9 183.5 L275.85 183.25 Q274.45 181.75 272.4 181.15 272.05 181.05 272.1 180.7 L272.15 180.6 272.35 180.4 272.75 180.15 272.75 180.1 273.9 180.6 Q277.65 182.3 281.15 184.5 L281.85 184.95 281.85 185.05 281.5 185.5 280.75 185.6 280.2 185.3 280.0 185.1 278.85 184.85 M282.1 192.5 L281.75 192.6 280.9 192.4 280.35 192.25 274.9 188.3 274.85 188.2 275.1 187.85 275.5 187.6 276.0 187.65 276.3 187.75 278.0 189.05 278.35 189.5 Q280.5 190.45 282.25 191.85 L282.35 192.0 282.2 192.35 282.1 192.5 M278.7 192.4 Q280.0 193.15 281.05 194.35 L281.1 194.5 280.95 194.85 280.5 195.1 277.9 193.6 276.1 192.2 276.35 191.85 276.75 191.6 278.7 192.4 M274.0 193.9 L274.1 194.2 274.1 194.35 275.6 195.5 Q276.8 195.35 277.1 196.3 L276.75 196.8 276.5 196.85 274.85 196.75 274.6 196.55 272.8 194.75 272.65 194.65 271.35 193.2 Q271.35 192.85 271.75 192.7 L272.0 192.6 Q272.95 192.85 273.65 193.6 L273.95 193.8 274.0 193.9 M269.7 204.65 L268.95 205.1 269.25 205.15 Q270.4 205.1 271.25 205.7 L271.3 205.85 271.25 207.35 271.05 207.75 270.75 207.8 Q269.95 207.65 270.1 206.8 L270.1 206.75 Q268.1 206.6 266.6 205.85 L266.65 205.7 Q267.1 204.95 267.85 204.35 L268.6 203.8 268.7 203.75 267.2 204.0 Q266.3 203.95 265.6 203.35 L265.6 203.2 Q265.6 202.85 266.0 202.7 L266.05 202.7 266.25 202.6 267.0 202.35 Q269.5 201.3 271.2 202.7 L271.35 202.85 271.3 203.0 269.7 204.65 M262.45 193.35 L259.95 191.85 259.85 191.6 260.15 191.3 260.5 191.1 Q261.7 191.6 262.85 192.25 264.95 193.45 266.85 195.15 L266.95 195.3 Q270.25 195.75 272.6 197.3 L272.4 197.65 272.0 197.85 Q271.35 198.0 270.95 197.55 L270.85 197.45 266.6 196.75 266.2 196.4 265.7 196.05 262.45 193.35 M259.5 194.35 Q261.1 194.5 262.2 195.8 L262.35 196.0 Q263.75 196.15 264.7 197.2 L264.85 197.5 264.7 197.85 264.5 198.05 264.25 198.1 Q261.35 196.9 258.9 195.05 L258.85 194.95 259.1 194.65 259.5 194.4 259.5 194.35 M280.1 177.7 L280.5 177.2 280.75 177.1 Q282.3 177.75 283.4 178.95 L283.8 179.45 283.85 179.6 283.4 180.05 283.25 180.1 283.0 180.1 280.25 177.95 280.1 177.7 M283.0 185.1 Q284.1 185.4 284.85 186.3 L285.05 186.5 Q286.15 186.45 286.35 187.3 L286.0 187.8 285.75 187.85 Q283.5 187.55 282.35 185.7 282.35 185.35 282.75 185.2 L283.0 185.1 M268.75 187.9 L268.75 187.85 Q272.2 189.6 275.6 191.2 L275.6 191.3 275.4 191.65 275.0 191.85 273.35 191.75 Q270.95 190.2 268.4 188.95 268.05 188.8 268.1 188.45 L268.35 188.15 268.75 187.9 M267.25 190.65 L267.25 190.6 Q269.5 191.3 271.25 192.85 L271.35 193.0 271.2 193.35 271.0 193.55 270.75 193.6 Q268.5 192.75 266.65 191.3 L266.6 191.2 266.85 190.9 267.25 190.65 M283.35 190.85 Q283.05 191.55 282.35 191.25 280.0 189.35 277.4 187.7 L277.2 187.55 Q277.05 187.0 277.3 186.5 277.45 186.15 277.75 186.1 L283.3 190.75 283.35 190.85 M285.2 180.75 L285.0 180.85 Q283.7 180.05 285.0 179.4 L285.0 179.35 Q286.1 179.95 285.2 180.75 M289.6 188.8 L289.25 189.3 289.0 189.35 287.85 189.25 Q287.1 188.5 287.7 187.8 L288.0 187.6 Q288.9 188.0 289.55 188.65 L289.6 188.8 M273.75 198.6 Q275.05 199.7 273.35 199.65 L273.2 199.55 Q272.95 198.95 273.5 198.7 L273.75 198.6" fill="#aba089" fill-rule="evenodd" stroke="none"/>
    <path d="M269.4 158.3 L273.8 159.7 276.6 160.6 276.65 160.6 Q279.15 161.45 281.65 162.55 L289.55 165.85 294.15 167.85 294.95 168.25 293.15 168.5 Q289.5 169.5 291.5 172.7 L291.55 172.75 291.2 172.95 285.15 169.0 284.4 168.5 284.3 168.45 284.0 168.25 283.5 167.3 283.4 167.1 Q283.2 166.5 283.3 166.05 283.45 165.45 284.0 165.05 284.4 164.8 284.9 164.8 284.1 164.3 282.9 164.55 281.85 164.75 281.5 165.6 281.35 165.85 281.35 166.05 281.3 166.5 281.6 166.75 L280.95 166.35 280.5 166.05 280.35 166.0 Q279.0 165.15 277.6 164.45 L277.45 164.35 Q276.55 163.65 276.3 162.45 276.0 161.45 276.6 160.8 275.7 161.3 274.95 162.15 274.55 162.55 274.5 163.0 L274.45 162.95 274.4 162.95 Q272.75 161.8 272.5 160.05 271.55 160.55 271.45 161.6 L271.3 162.1 268.35 161.25 Q268.5 159.35 269.4 158.3 M263.1 188.95 L263.15 189.05 265.25 190.6 265.85 190.45 266.05 190.2 266.05 190.05 Q265.35 188.65 263.75 188.35 L263.75 188.4 263.35 188.65 263.1 188.95 M262.85 192.25 L263.05 191.95 262.75 191.8 Q261.35 190.85 261.35 189.55 261.35 188.25 262.75 187.3 263.9 186.55 265.5 186.4 264.7 187.5 267.0 188.1 L267.35 187.95 267.6 187.5 267.55 187.35 266.45 186.4 Q268.2 186.45 269.5 187.3 L269.65 187.4 269.9 187.35 269.35 187.05 Q268.6 186.6 268.4 186.0 L271.75 187.1 272.1 186.95 272.25 186.85 272.3 186.7 272.35 186.5 272.25 186.35 Q270.65 185.05 268.65 184.6 L269.35 184.0 270.8 183.45 Q271.6 184.55 274.0 184.85 L274.4 184.65 274.6 184.3 274.6 184.25 Q275.1 184.65 275.25 185.2 L275.4 185.3 276.0 185.8 276.45 185.6 278.85 184.85 280.0 185.1 280.2 185.3 280.75 185.6 281.5 185.5 281.85 185.05 281.85 184.95 281.15 184.5 282.9 184.45 Q286.65 184.45 289.35 185.6 292.0 186.8 292.05 188.45 292.0 190.1 289.35 191.3 286.65 192.5 282.9 192.5 L282.1 192.5 282.2 192.35 282.35 192.0 282.25 191.85 Q280.5 190.45 278.35 189.5 L278.0 189.05 276.3 187.75 276.0 187.65 275.5 187.6 275.1 187.85 274.85 188.2 274.9 188.3 280.35 192.25 280.9 192.4 278.1 191.9 278.7 192.4 276.75 191.6 276.35 191.85 276.1 192.2 277.9 193.6 277.8 193.6 275.6 194.0 274.15 193.85 274.0 193.9 273.95 193.8 273.65 193.6 Q272.95 192.85 272.0 192.6 L271.75 192.7 Q271.35 192.85 271.35 193.2 L272.65 194.65 272.6 194.75 272.8 194.75 274.6 196.55 Q274.55 197.15 273.8 197.65 272.95 198.15 271.8 198.15 L270.6 198.0 269.85 199.25 Q271.2 199.3 272.25 200.0 273.3 200.8 273.3 201.95 273.3 203.05 272.25 203.85 271.15 204.65 269.7 204.65 L271.3 203.0 271.35 202.85 271.2 202.7 Q269.5 201.3 267.0 202.35 L266.25 202.6 266.05 202.7 265.9 201.95 266.1 201.1 264.6 201.2 Q262.05 201.2 260.3 200.0 L260.15 199.9 Q258.0 199.85 256.45 198.95 254.8 198.05 254.85 196.75 254.8 195.4 256.45 194.5 258.05 193.6 260.4 193.6 L261.55 193.65 Q261.95 193.45 262.45 193.35 L265.7 196.05 266.2 196.4 266.6 196.75 270.85 197.45 270.95 197.55 Q271.35 198.0 272.0 197.85 L272.4 197.65 272.6 197.3 Q270.25 195.75 266.95 195.3 L266.85 195.15 Q264.95 193.45 262.85 192.25 M267.85 204.35 L267.2 204.0 268.7 203.75 268.6 203.8 267.85 204.35 M259.5 194.35 L259.5 194.4 259.1 194.65 258.85 194.95 258.9 195.05 Q261.35 196.9 264.25 198.1 L264.5 198.05 264.7 197.85 264.85 197.5 264.7 197.2 Q263.75 196.15 262.35 196.0 L262.2 195.8 Q261.1 194.5 259.5 194.35 M267.25 190.65 L266.85 190.9 266.6 191.2 266.65 191.3 Q268.5 192.75 270.75 193.6 L271.0 193.55 271.2 193.35 271.35 193.0 271.25 192.85 Q269.5 191.3 267.25 190.6 L267.25 190.65 M268.75 187.9 L268.35 188.15 268.1 188.45 Q268.05 188.8 268.4 188.95 270.95 190.2 273.35 191.75 L275.0 191.85 275.4 191.65 275.6 191.3 275.6 191.2 Q272.2 189.6 268.75 187.85 L268.75 187.9 M283.0 185.1 L282.75 185.2 Q282.35 185.35 282.35 185.7 283.5 187.55 285.75 187.85 L286.0 187.8 286.35 187.3 Q286.15 186.45 285.05 186.5 L284.85 186.3 Q284.1 185.4 283.0 185.1 M283.35 190.85 L283.3 190.75 277.75 186.1 Q277.45 186.15 277.3 186.5 277.05 187.0 277.2 187.55 L277.4 187.7 Q280.0 189.35 282.35 191.25 283.05 191.55 283.35 190.85 M276.9 191.5 L276.55 191.35 276.55 191.45 276.9 191.5 M289.6 188.8 L289.55 188.65 Q288.9 188.0 288.0 187.6 L287.7 187.8 Q287.1 188.5 287.85 189.25 L289.0 189.35 289.25 189.3 289.6 188.8" fill="#d7d1c6" fill-rule="evenodd" stroke="none"/>
    <path d="M276.6 160.6 L273.8 159.7 269.4 158.3 Q270.75 156.7 273.75 157.1 280.4 157.85 286.4 161.0 290.85 163.35 294.75 166.55 L297.05 168.5 294.95 168.25 294.15 167.85 289.55 165.85 281.65 162.55 Q279.15 161.45 276.65 160.6 L276.6 160.6 276.65 160.6 276.6 160.6" fill="#c1baaa" fill-rule="evenodd" stroke="none"/>
    <path d="M280.85 175.05 L281.05 174.95 281.15 174.9 281.65 174.3 281.85 174.05 281.85 173.8 281.85 173.2 281.85 173.1 281.8 173.05 281.5 172.65 281.45 172.6 280.75 172.25 280.7 172.25 280.35 171.5 279.85 171.15 279.75 171.1 278.95 171.1 278.75 171.1 277.85 171.25 277.7 171.35 277.65 171.4 Q277.25 171.45 276.9 171.65 L276.45 171.9 Q276.35 172.35 276.6 172.75 L276.6 173.0 276.0 173.7 275.4 174.4 275.55 175.0 276.3 175.75 277.8 175.65 Q277.0 177.3 275.6 178.7 L275.6 178.8 275.7 179.0 Q276.95 178.5 277.75 177.2 278.2 176.4 278.15 175.7 279.2 176.65 280.45 176.0 L280.5 175.9 280.75 175.3 280.8 175.25 280.85 175.05 M276.8 169.05 Q280.05 170.65 282.95 172.9 L283.4 173.3 Q288.25 177.1 291.2 181.6 L296.55 189.8 296.2 190.1 Q291.0 194.45 284.85 197.35 278.35 200.4 275.4 206.75 274.35 208.9 274.25 210.75 270.1 210.25 266.1 209.25 259.55 207.65 253.75 204.95 252.2 204.2 250.85 203.2 L250.7 202.15 Q250.0 195.5 254.55 190.6 259.15 185.6 264.85 182.0 L268.1 179.75 Q271.5 177.2 274.3 174.0 276.5 171.45 276.8 169.05 M265.5 186.4 Q263.9 186.55 262.75 187.3 261.35 188.25 261.35 189.55 261.35 190.85 262.75 191.8 L263.05 191.95 262.85 192.25 Q261.7 191.6 260.5 191.1 L260.15 191.3 259.85 191.6 259.95 191.85 262.45 193.35 Q261.95 193.45 261.55 193.65 L260.4 193.6 Q258.05 193.6 256.45 194.5 254.8 195.4 254.85 196.75 254.8 198.05 256.45 198.95 258.0 199.85 260.15 199.9 L260.3 200.0 Q262.05 201.2 264.6 201.2 L266.1 201.1 265.9 201.95 266.05 202.7 266.0 202.7 Q265.6 202.85 265.6 203.2 L265.6 203.35 Q266.3 203.95 267.2 204.0 L267.85 204.35 Q267.1 204.95 266.65 205.7 L266.6 205.85 Q268.1 206.6 270.1 206.75 L270.1 206.8 Q269.95 207.65 270.75 207.8 L271.05 207.75 271.25 207.35 271.3 205.85 271.25 205.7 Q270.4 205.1 269.25 205.15 L268.95 205.1 269.7 204.65 Q271.15 204.65 272.25 203.85 273.3 203.05 273.3 201.95 273.3 200.8 272.25 200.0 271.2 199.3 269.85 199.25 L270.6 198.0 271.8 198.15 Q272.95 198.15 273.8 197.65 274.55 197.15 274.6 196.55 L274.85 196.75 276.5 196.85 276.75 196.8 277.1 196.3 Q276.8 195.35 275.6 195.5 L274.1 194.35 274.1 194.2 274.0 193.9 274.15 193.85 275.6 194.0 277.8 193.6 277.9 193.6 280.5 195.1 280.95 194.85 281.1 194.5 281.05 194.35 Q280.0 193.15 278.7 192.4 L278.1 191.9 280.9 192.4 281.75 192.6 282.1 192.5 282.9 192.5 Q286.65 192.5 289.35 191.3 292.0 190.1 292.05 188.45 292.0 186.8 289.35 185.6 286.65 184.45 282.9 184.45 L281.15 184.5 Q277.65 182.3 273.9 180.6 L272.75 180.1 272.75 180.15 272.35 180.4 272.15 180.6 272.1 180.7 Q272.05 181.05 272.4 181.15 274.45 181.75 275.85 183.25 L276.9 183.5 Q278.0 183.9 278.6 184.75 L278.85 184.85 276.45 185.6 276.0 185.8 275.4 185.3 275.25 185.2 Q275.1 184.65 274.6 184.25 L274.6 184.2 274.25 184.0 274.0 183.85 270.5 181.85 270.35 181.95 Q270.35 182.8 270.8 183.45 L269.35 184.0 268.65 184.6 267.0 184.35 266.75 184.45 266.55 184.55 266.4 184.75 266.35 184.95 268.4 186.0 Q268.6 186.6 269.35 187.05 L269.9 187.35 269.65 187.4 269.5 187.3 Q268.2 186.45 266.45 186.4 L265.75 186.1 265.5 186.4 M280.1 177.7 L280.25 177.95 283.0 180.1 283.25 180.1 283.4 180.05 283.85 179.6 283.8 179.45 283.4 178.95 Q282.3 177.75 280.75 177.1 L280.5 177.2 280.1 177.7 M274.8 179.15 L274.75 179.2 Q274.5 179.3 274.6 179.55 L274.65 179.55 Q275.35 179.55 274.8 179.15 M272.8 194.75 L272.6 194.75 272.65 194.65 272.8 194.75 M276.9 191.5 L276.55 191.45 276.55 191.35 276.9 191.5 M285.2 180.75 Q286.1 179.95 285.0 179.35 L285.0 179.4 Q283.7 180.05 285.0 180.85 L285.2 180.75 M273.75 198.6 L273.5 198.7 Q272.95 198.95 273.2 199.55 L273.35 199.65 Q275.05 199.7 273.75 198.6" fill="#d1ccbe" fill-rule="evenodd" stroke="none"/>
    <path d="M280.75 175.3 L280.5 175.9 280.45 176.0 Q279.2 176.65 278.15 175.7 278.2 176.4 277.75 177.2 276.95 178.5 275.7 179.0 L275.6 178.8 275.6 178.7 Q277.0 177.3 277.8 175.65 L276.3 175.75 275.55 175.0 275.4 174.4 276.0 173.7 276.6 173.0 276.6 172.75 Q276.35 172.35 276.45 171.9 L276.9 171.65 Q277.25 171.45 277.65 171.4 L277.7 171.35 277.85 171.25 278.75 171.1 278.95 171.1 279.75 171.1 279.85 171.15 280.35 171.5 280.7 172.25 280.75 172.25 281.45 172.6 281.5 172.65 281.8 173.05 281.85 173.1 281.85 173.2 281.85 173.8 281.85 174.05 281.65 174.3 281.15 174.9 281.05 174.95 280.85 175.05 280.8 174.65 281.5 174.25 281.55 174.2 Q281.75 173.15 281.15 172.65 280.9 173.1 281.1 173.9 L280.35 174.3 280.35 174.5 280.35 175.05 279.7 175.5 279.1 175.5 278.45 175.3 278.35 175.35 Q278.25 175.4 278.3 175.55 279.6 176.45 280.75 175.3 M278.6 172.8 L278.55 172.85 Q278.3 172.95 278.4 173.15 L278.5 173.2 Q279.05 173.2 278.6 172.8 M277.15 172.3 L276.9 173.0 276.85 173.25 Q276.55 173.35 276.4 173.65 L276.2 173.95 276.2 174.1 276.2 174.35 276.2 174.4 276.2 174.55 276.25 174.6 276.3 174.65 276.55 174.7 276.85 174.15 277.3 173.45 277.3 173.4 Q277.25 173.15 277.35 172.95 L277.4 172.9 277.4 172.8 277.45 172.75 278.15 172.55 278.2 172.4 278.2 172.35 278.25 172.2 278.4 172.15 278.45 172.1 278.65 172.0 278.7 172.0 279.5 172.1 279.55 172.15 279.6 172.15 279.8 172.3 279.9 172.25 279.95 172.15 280.0 172.0 280.0 171.95 Q279.5 171.35 278.6 171.45 L278.1 171.7 277.9 171.85 277.85 171.9 277.8 171.95 277.75 172.1 277.35 172.2 277.25 172.25 277.15 172.3 M279.65 174.25 L278.5 174.25 278.5 173.9 278.35 173.7 278.25 173.7 277.9 173.65 277.75 173.7 Q277.35 173.6 277.25 173.95 277.45 174.35 278.05 174.2 L278.1 174.6 278.15 174.75 279.3 174.75 279.6 174.85 279.7 174.85 279.75 174.5 279.65 174.25 M279.85 173.75 Q280.45 173.75 280.0 173.35 L279.9 173.4 Q279.7 173.5 279.8 173.7 L279.85 173.75 M274.8 179.15 Q275.35 179.55 274.65 179.55 L274.6 179.55 Q274.5 179.3 274.75 179.2 L274.8 179.15" fill="#920505" fill-rule="evenodd" stroke="none"/>
    <path d="M280.85 175.05 L280.8 175.25 280.75 175.3 Q279.6 176.45 278.3 175.55 278.25 175.4 278.35 175.35 L278.45 175.3 279.1 175.5 279.7 175.5 280.35 175.05 280.35 174.5 280.35 174.3 281.1 173.9 Q280.9 173.1 281.15 172.65 281.75 173.15 281.55 174.2 L281.5 174.25 280.8 174.65 280.85 175.05 M277.15 172.3 L277.25 172.25 277.35 172.2 277.75 172.1 277.8 171.95 277.85 171.9 277.9 171.85 278.1 171.7 278.6 171.45 Q279.5 171.35 280.0 171.95 L280.0 172.0 279.95 172.15 279.9 172.25 279.8 172.3 279.6 172.15 279.55 172.15 279.5 172.1 278.7 172.0 278.65 172.0 278.45 172.1 278.4 172.15 278.25 172.2 278.2 172.35 278.2 172.4 278.15 172.55 277.45 172.75 277.4 172.8 277.4 172.9 277.35 172.95 Q277.25 173.15 277.3 173.4 L277.3 173.45 276.85 174.15 276.55 174.7 276.3 174.65 276.25 174.6 276.2 174.55 276.2 174.4 276.2 174.35 276.2 174.1 276.2 173.95 276.4 173.65 Q276.55 173.35 276.85 173.25 L276.9 173.0 277.15 172.3 M278.6 172.8 Q279.05 173.2 278.5 173.2 L278.4 173.15 Q278.3 172.95 278.55 172.85 L278.6 172.8 M279.85 173.75 L279.8 173.7 Q279.7 173.5 279.9 173.4 L280.0 173.35 Q280.45 173.75 279.85 173.75 M279.65 174.25 L279.75 174.5 279.7 174.85 279.6 174.85 279.3 174.75 278.15 174.75 278.1 174.6 278.05 174.2 Q277.45 174.35 277.25 173.95 277.35 173.6 277.75 173.7 L277.9 173.65 278.25 173.7 278.35 173.7 278.5 173.9 278.5 174.25 279.65 174.25" fill="#520303" fill-rule="evenodd" stroke="none"/>
    <path d="M276.6 160.6 L276.65 160.6 M294.95 168.25 L297.05 168.5 294.75 166.55 Q290.85 163.35 286.4 161.0 280.4 157.85 273.75 157.1 270.75 156.7 269.4 158.3 268.5 159.35 268.35 161.25 L271.3 162.1 271.45 161.6 Q271.55 160.55 272.5 160.05 272.75 161.8 274.4 162.95 L274.45 162.95 M274.5 163.0 Q274.55 162.55 274.95 162.15 275.7 161.3 276.6 160.8 276.0 161.45 276.3 162.45 276.55 163.65 277.45 164.35 L277.6 164.45 Q279.0 165.15 280.35 166.0 L280.5 166.05 280.95 166.35 281.6 166.75 Q281.3 166.5 281.35 166.05 281.35 165.85 281.5 165.6 281.85 164.75 282.9 164.55 284.1 164.3 284.9 164.8 284.4 164.8 284.0 165.05 283.45 165.45 283.3 166.05 283.2 166.5 283.4 167.1 L283.5 167.3 284.0 168.25 284.3 168.45 284.4 168.5 285.15 169.0 291.2 172.95 M291.55 172.75 L291.5 172.7 Q289.5 169.5 293.15 168.5 L294.95 168.25 M302.45 176.85 Q302.35 171.1 297.05 168.5 M275.7 164.7 L274.5 163.1 274.3 162.9 274.4 162.95 M274.5 163.0 L274.5 163.1 M276.8 169.05 Q276.95 167.55 276.4 166.05 L275.7 164.7 M276.8 169.05 Q276.5 171.45 274.3 174.0 271.5 177.2 268.1 179.75 L264.85 182.0 Q259.15 185.6 254.55 190.6 250.0 195.5 250.7 202.15 L250.85 203.2 Q251.9 209.35 257.4 212.75 262.55 215.95 268.5 217.7 L275.75 219.6 Q280.15 220.8 281.55 217.7 L281.7 217.6 281.6 217.6 281.55 217.7 M274.25 210.75 Q274.35 208.9 275.4 206.75 278.35 200.4 284.85 197.35 291.0 194.45 296.2 190.1 L296.55 189.8 Q301.35 185.55 302.3 179.2 L302.45 177.05 302.45 176.85 M284.0 168.25 L284.4 168.5 M291.55 172.75 L291.9 173.3 M274.75 213.75 L277.35 215.3 Q278.65 216.0 281.2 213.8 L281.85 214.35 Q282.15 214.8 282.1 215.6 L282.05 216.0 281.6 217.6 Q281.4 217.6 281.8 216.6 L282.05 216.0 M274.25 210.75 Q274.15 212.2 274.65 213.5 L274.75 213.75 Q275.45 215.4 277.2 216.7 278.9 218.35 281.25 217.75 L281.6 217.6" fill="none" stroke="#e6dab0" stroke-linecap="round" stroke-linejoin="round" stroke-width="1.0"/>
  </g>
</svg>
