<?xml version="1.0" encoding="UTF-8" standalone="no"?>
<svg xmlns:xlink="http://www.w3.org/1999/xlink" height="66.4px" width="74.0px" xmlns="http://www.w3.org/2000/svg">
  <g transform="matrix(1.0, 0.0, 0.0, 1.0, 0.25, 0.25)">
    <path d="M44.85 8.9 L48.6 8.9 49.1 7.0 53.75 7.25 56.4 14.2 56.35 18.25 52.85 22.75 52.25 27.9 50.25 30.3 47.1 27.15 45.85 25.4 46.35 21.5 44.85 16.5 44.85 8.9 44.85 16.5 46.35 21.5 45.85 25.4 47.1 27.15 50.25 30.3 52.25 27.9 52.85 22.75 56.35 18.25 56.4 14.2 57.75 17.85 57.0 20.0 55.1 22.9 56.85 27.5 53.75 32.4 50.25 34.0 48.25 32.8 46.35 31.65 44.75 29.0 42.1 28.15 43.5 31.15 43.5 33.75 42.6 36.4 43.35 39.0 44.85 40.65 45.35 40.65 47.0 40.65 49.1 39.15 51.35 39.9 52.15 40.95 52.5 40.95 54.75 40.95 57.75 38.9 59.1 39.15 59.6 41.15 55.0 44.9 53.1 43.75 48.6 43.75 47.5 45.9 45.35 45.9 41.75 49.25 41.75 52.5 40.5 54.1 40.0 54.75 38.1 55.25 36.6 55.65 33.5 55.0 30.25 56.15 27.4 55.35 26.15 53.4 26.6 53.65 29.6 53.65 34.35 51.25 36.25 46.75 35.6 41.4 35.0 36.5 32.75 34.1 37.25 29.75 33.1 29.0 30.25 29.0 26.5 27.9 21.35 30.75 16.85 30.75 13.0 27.15 8.6 27.5 7.15 26.25 13.0 24.4 19.0 26.25 29.95 22.65 34.6 17.8 36.1 14.15 40.6 10.25 44.85 8.9 M35.1 53.85 L37.45 52.85 38.7 53.35 38.1 55.25 38.7 53.35 37.45 52.85 35.1 53.85 M47.1 27.15 L48.25 32.65 48.25 32.8 48.25 32.65 47.1 27.15 M2.5 54.35 L4.6 53.4 6.35 50.75 8.35 54.15 8.35 50.65 9.3 47.85 10.0 48.25 12.6 47.8 10.75 50.75 10.85 52.9 11.75 51.65 13.2 50.25 13.55 50.6 14.25 52.9 16.45 55.75 14.6 58.5 11.25 57.75 10.6 56.65 7.6 56.0 5.35 54.9 4.4 55.35 2.5 54.35 M2.1 43.25 L3.1 40.15 4.6 39.5 6.0 37.15 4.0 30.4 6.4 32.85 6.4 37.0 5.75 40.5 6.4 44.0 7.25 46.25 5.6 45.0 2.1 43.25 M50.25 30.3 L48.25 32.65 50.25 30.3 M38.7 53.35 L40.5 54.1 38.7 53.35 M22.2 33.0 L20.6 34.25 19.0 34.25 19.0 36.35 22.0 37.5 18.65 41.25 18.35 46.4 14.25 46.4 13.1 46.9 14.1 43.5 14.05 43.25 14.4 40.25 13.75 36.35 11.2 32.25 11.65 32.5 15.4 37.25 17.15 36.6 16.35 33.65 14.85 32.05 18.6 33.5 22.2 33.0 M19.75 48.5 L20.75 52.85 19.75 55.0 17.25 53.8 17.0 52.8 15.1 48.3 18.25 49.9 19.75 48.5" fill="#cccc99" fill-rule="evenodd" stroke="none"/>
    <path d="M53.75 7.25 L49.1 7.0 48.6 8.9 44.85 8.9 42.25 4.4 36.5 1.1 42.25 4.4 44.85 8.9 40.6 10.25 36.1 14.15 34.6 17.8 29.95 22.65 19.0 26.25 13.0 24.4 7.15 26.25 8.6 27.5 10.75 27.75 14.85 32.05 16.35 33.65 17.15 36.6 15.4 37.25 11.65 32.5 11.2 32.25 8.65 30.75 6.4 32.85 4.0 30.4 3.1 23.65 3.6 21.0 13.1 4.25 15.6 1.9 23.1 0.0 36.5 1.1 38.25 1.25 45.35 4.5 53.75 7.25 M30.25 29.0 L33.1 29.0 37.25 29.75 32.75 34.1 30.3 32.95 26.15 33.75 22.0 37.5 19.0 36.35 19.0 34.25 20.6 34.25 22.2 33.0 26.25 29.65 30.25 29.0 M35.6 41.4 L36.25 46.75 34.35 51.25 29.6 53.65 26.6 53.65 24.55 50.8 23.7 47.15 24.2 47.9 24.95 48.8 25.05 48.9 Q25.9 49.75 26.65 50.05 L29.05 50.2 Q30.1 49.95 31.15 48.8 L31.65 48.05 Q33.25 45.65 33.7 42.5 34.05 40.15 33.2 38.35 L32.95 37.85 35.6 41.4 M23.85 65.55 L22.85 65.15 23.35 63.5 23.45 63.1 23.9 62.3 24.35 61.5 26.25 61.45 23.85 65.55 M15.65 64.25 L15.35 64.15 14.6 63.25 15.4 62.8 15.6 62.65 16.7 61.35 17.1 60.9 19.6 60.15 18.6 62.0 15.65 64.25 M8.75 62.25 L7.6 61.75 8.15 61.0 9.1 59.5 10.0 58.65 12.0 58.65 8.75 62.25 M1.25 61.05 L0.0 60.5 0.0 59.25 1.35 58.4 2.35 56.95 2.75 56.4 3.5 55.75 5.25 56.65 1.25 61.05 M14.05 43.25 L14.1 43.5 13.1 46.9 12.6 47.8 10.0 48.25 9.3 47.85 7.5 46.9 7.3 43.1 Q7.5 44.25 8.0 45.2 8.75 46.8 9.85 47.05 L10.25 47.1 Q11.55 47.1 12.5 45.2 13.45 43.35 13.35 40.8 L13.15 39.25 14.05 43.25 M14.25 46.4 L18.35 46.4 19.75 48.5 18.25 49.9 15.1 48.3 14.25 46.4" fill="#d9d9b7" fill-rule="evenodd" stroke="none"/>
    <path d="M8.6 27.5 L13.0 27.15 16.85 30.75 21.35 30.75 26.5 27.9 30.25 29.0 26.25 29.65 22.2 33.0 18.6 33.5 14.85 32.05 10.75 27.75 8.6 27.5 M32.75 34.1 L35.0 36.5 35.6 41.4 32.95 37.85 32.55 37.2 Q31.6 36.0 30.5 35.6 L28.65 35.5 Q26.4 36.0 24.65 37.7 22.85 39.35 22.85 42.75 22.85 45.45 23.7 47.15 L24.55 50.8 26.6 53.65 26.15 53.4 27.4 55.35 30.25 56.15 33.5 55.0 36.6 55.65 38.1 55.25 40.0 54.75 40.5 54.1 41.75 52.5 41.75 49.25 45.35 45.9 47.5 45.9 48.6 43.75 53.1 43.75 55.0 44.9 59.6 41.15 59.1 39.15 57.75 38.9 54.75 40.95 52.5 40.95 52.15 40.95 51.35 39.9 49.1 39.15 47.0 40.65 45.35 40.65 44.85 40.65 43.35 39.0 42.6 36.4 43.5 33.75 43.5 31.15 42.1 28.15 44.75 29.0 46.35 31.65 48.25 32.8 50.25 34.0 53.75 32.4 56.85 27.5 55.1 22.9 57.0 20.0 57.75 17.85 61.35 27.4 61.35 32.4 62.35 37.15 61.35 38.65 61.35 40.9 57.75 45.0 57.75 46.65 57.35 48.75 57.25 49.25 55.5 53.0 52.75 54.15 52.0 52.25 49.25 50.9 47.5 51.65 45.35 52.15 44.25 53.9 44.85 51.15 46.0 49.0 47.6 49.0 48.25 48.4 48.4 48.25 49.4 47.3 51.85 46.5 49.4 47.3 48.4 48.25 48.25 48.4 47.6 49.0 46.0 49.0 44.85 51.15 44.25 53.9 45.85 57.15 45.25 60.0 42.75 60.45 41.35 62.0 37.75 62.4 36.5 60.65 33.85 59.5 37.2 58.5 38.6 56.6 38.1 55.25 38.6 56.6 37.2 58.5 33.85 59.5 31.6 60.0 31.0 62.4 29.6 62.4 28.9 63.9 28.75 64.2 27.45 64.2 27.1 65.15 24.75 65.9 23.85 65.55 26.25 61.45 24.35 61.5 23.9 62.3 21.05 62.45 21.35 61.75 19.6 60.15 21.35 61.75 21.05 62.45 20.7 63.25 19.75 65.15 18.75 65.15 17.9 64.4 17.0 64.75 15.65 64.25 18.6 62.0 19.6 60.15 17.1 60.9 16.7 61.35 15.35 61.35 13.55 60.4 13.75 60.0 12.0 58.65 13.75 60.0 13.55 60.4 12.6 62.25 12.25 62.9 10.6 62.9 10.1 62.25 8.75 62.25 12.0 58.65 10.0 58.65 9.1 59.5 7.6 58.9 6.7 58.25 6.6 58.75 5.95 60.35 5.5 61.5 4.5 61.5 3.7 60.6 3.25 60.9 3.25 61.9 1.25 61.05 5.25 56.65 3.5 55.75 2.75 56.4 2.35 56.95 2.1 54.5 2.5 54.35 4.4 55.35 5.35 54.9 7.6 56.0 10.6 56.65 11.25 57.75 14.6 58.5 16.45 55.75 14.25 52.9 13.55 50.6 17.4 54.25 17.25 53.8 19.75 55.0 20.75 52.85 19.75 48.5 18.35 46.4 18.65 41.25 22.0 37.5 26.15 33.75 30.3 32.95 32.75 34.1 M48.25 32.8 L47.5 37.5 45.35 40.65 47.5 37.5 48.25 32.8 M6.35 50.75 L5.5 47.75 2.1 43.25 5.6 45.0 7.25 46.25 6.4 44.0 5.75 40.5 6.4 37.0 6.4 32.85 8.65 30.75 11.2 32.25 13.75 36.35 14.4 40.25 14.05 43.25 13.15 39.25 13.15 39.15 13.05 38.8 12.55 37.3 12.1 36.5 Q11.0 34.75 9.95 34.5 8.9 34.25 8.0 36.1 7.05 38.0 7.05 40.7 7.05 41.75 7.2 42.7 L7.3 43.1 7.5 46.9 9.3 47.85 8.35 50.65 8.35 54.15 6.35 50.75 M40.5 55.6 L40.5 54.1 40.5 55.6 M44.1 58.9 L42.75 60.45 44.1 58.9 M27.45 64.2 L27.75 63.25 26.75 61.4 26.25 61.45 26.75 61.4 27.75 63.25 27.45 64.2 M6.7 58.25 L7.0 56.65 5.25 56.65 7.0 56.65 6.7 58.25 M4.85 59.75 L3.7 60.6 4.85 59.75 M18.85 64.0 L17.9 64.4 18.85 64.0" fill="#b0af68" fill-rule="evenodd" stroke="none"/>
    <path d="M44.25 53.9 L45.35 52.15 47.5 51.65 49.25 50.9 52.0 52.25 52.75 54.15 55.5 53.0 57.25 49.25 57.35 48.75 Q63.5 49.4 67.95 50.8 73.3 52.5 73.75 54.25 72.4 55.6 64.75 56.6 L52.75 58.0 52.0 58.25 53.7 59.25 Q55.05 60.0 55.5 60.0 54.95 61.3 47.7 62.3 L38.25 63.0 38.0 63.0 38.75 63.5 38.75 63.55 33.35 64.0 28.9 63.9 29.6 62.4 31.0 62.4 31.6 60.0 33.85 59.5 36.5 60.65 37.75 62.4 41.35 62.0 42.75 60.45 45.25 60.0 45.85 57.15 44.25 53.9 M23.35 63.5 L20.7 63.25 21.05 62.45 23.9 62.3 23.45 63.1 23.35 63.5 M15.4 62.8 L15.0 62.75 12.6 62.25 13.55 60.4 15.35 61.35 16.7 61.35 15.6 62.65 15.4 62.8 M8.15 61.0 L5.95 60.35 6.6 58.75 6.7 58.25 7.6 58.9 9.1 59.5 8.15 61.0" fill="#000000" fill-opacity="0.2901961" fill-rule="evenodd" stroke="none"/>
    <path d="M33.2 38.35 Q31.95 37.55 30.8 37.25 28.45 36.6 26.6 38.0 23.95 39.55 23.7 43.35 L23.9 45.85 Q24.2 47.75 25.05 48.9 L24.95 48.8 24.2 47.9 23.7 47.15 Q22.85 45.45 22.85 42.75 22.85 39.35 24.65 37.7 26.4 36.0 28.65 35.5 L30.5 35.6 Q31.6 36.0 32.55 37.2 L32.95 37.85 33.2 38.35 M13.1 46.9 L14.25 46.4 15.1 48.3 17.0 52.8 17.25 53.8 17.4 54.25 13.55 50.6 13.2 50.25 11.75 51.65 10.85 52.9 10.75 50.75 12.6 47.8 13.1 46.9 M7.2 42.7 Q7.05 41.75 7.05 40.7 7.05 38.0 8.0 36.1 8.9 34.25 9.95 34.5 11.0 34.75 12.1 36.5 L12.55 37.3 Q9.4 35.5 8.2 40.25 7.8 41.6 8.25 43.35 8.65 45.0 9.85 47.05 8.75 46.8 8.0 45.2 7.5 44.25 7.3 43.1 L7.2 42.7" fill="#666633" fill-rule="evenodd" stroke="none"/>
    <path d="M30.8 37.25 Q31.95 37.55 33.2 38.35 34.05 40.15 33.7 42.5 33.25 45.65 31.65 48.05 L31.15 48.8 Q30.1 49.95 29.05 50.2 L26.65 50.05 Q25.9 49.75 25.05 48.9 24.2 47.75 23.9 45.85 25.0 47.85 26.45 47.6 28.75 47.3 30.55 45.35 L31.6 42.75 Q32.35 40.0 30.8 37.25 M13.15 39.15 L13.15 39.25 13.35 40.8 Q13.45 43.35 12.5 45.2 11.55 47.1 10.25 47.1 L9.85 47.05 Q8.65 45.0 8.25 43.35 9.05 44.5 10.05 44.25 11.25 43.75 11.9 42.9 12.95 41.5 13.05 38.8 L13.15 39.15" fill="#cccccc" fill-rule="evenodd" stroke="none"/>
    <path d="M23.9 45.85 L23.7 43.35 Q23.95 39.55 26.6 38.0 28.45 36.6 30.8 37.25 32.35 40.0 31.6 42.75 L30.55 45.35 Q28.75 47.3 26.45 47.6 25.0 47.85 23.9 45.85 M12.55 37.3 L13.05 38.8 Q12.95 41.5 11.9 42.9 11.25 43.75 10.05 44.25 9.05 44.5 8.25 43.35 7.8 41.6 8.2 40.25 9.4 35.5 12.55 37.3" fill="#ffffff" fill-rule="evenodd" stroke="none"/>
    <path d="M44.85 8.9 L44.85 16.5 46.35 21.5 45.85 25.4 47.1 27.15 50.25 30.3 52.25 27.9 52.85 22.75 56.35 18.25 56.4 14.2 53.75 7.25 45.35 4.5 38.25 1.25 36.5 1.1 42.25 4.4 44.85 8.9 M38.1 55.25 L38.7 53.35 37.45 52.85 35.1 53.85 M48.25 32.8 L48.25 32.65 47.1 27.15 M57.75 17.85 L56.4 14.2 M57.35 48.75 L57.75 46.65 57.75 45.0 61.35 40.9 61.35 38.65 62.35 37.15 61.35 32.4 61.35 27.4 57.75 17.85 M52.5 40.95 L52.15 40.95 51.35 39.9 49.1 39.15 47.0 40.65 45.35 40.65 44.85 40.65 43.35 39.0 42.6 36.4 43.5 33.75 43.5 31.15 42.1 28.15 M45.35 40.65 L47.5 37.5 48.25 32.8 M44.25 53.9 L44.85 51.15 46.0 49.0 47.6 49.0 48.25 48.4 48.4 48.25 49.4 47.3 51.85 46.5 M44.25 53.9 L45.35 52.15 47.5 51.65 49.25 50.9 52.0 52.25 52.75 54.15 55.5 53.0 57.25 49.25 57.35 48.75 M28.9 63.9 L28.75 64.2 27.45 64.2 27.1 65.15 24.75 65.9 23.85 65.55 22.85 65.15 23.35 63.5 23.45 63.1 23.9 62.3 24.35 61.5 26.25 61.45 26.75 61.4 27.75 63.25 27.45 64.2 M20.7 63.25 L19.75 65.15 18.75 65.15 17.9 64.4 17.0 64.75 15.65 64.25 15.35 64.15 14.6 63.25 15.4 62.8 15.6 62.65 16.7 61.35 17.1 60.9 19.6 60.15 21.35 61.75 21.05 62.45 23.9 62.3 M12.6 62.25 L12.25 62.9 10.6 62.9 10.1 62.25 8.75 62.25 7.6 61.75 8.15 61.0 9.1 59.5 7.6 58.9 6.7 58.25 6.6 58.75 5.95 60.35 5.5 61.5 4.5 61.5 3.7 60.6 3.25 60.9 3.25 61.9 1.25 61.05 0.0 60.5 0.0 59.25 1.35 58.4 2.35 56.95 2.1 54.5 2.5 54.35 4.6 53.4 6.35 50.75 5.5 47.75 2.1 43.25 3.1 40.15 4.6 39.5 6.0 37.15 4.0 30.4 3.1 23.65 3.6 21.0 13.1 4.25 15.6 1.9 23.1 0.0 36.5 1.1 M48.25 32.65 L50.25 30.3 M40.5 54.1 L38.7 53.35 M40.5 54.1 L40.5 55.6 M42.75 60.45 L45.25 60.0 45.85 57.15 44.25 53.9 M33.85 59.5 L36.5 60.65 37.75 62.4 41.35 62.0 42.75 60.45 44.1 58.9 M14.85 32.05 L10.75 27.75 8.6 27.5 M30.8 37.25 Q31.95 37.55 33.2 38.35 L32.95 37.85 32.55 37.2 Q31.6 36.0 30.5 35.6 L28.65 35.5 Q26.4 36.0 24.65 37.7 22.85 39.35 22.85 42.75 22.85 45.45 23.7 47.15 L24.2 47.9 24.95 48.8 25.05 48.9 Q24.2 47.75 23.9 45.85 L23.7 43.35 Q23.95 39.55 26.6 38.0 28.45 36.6 30.8 37.25 M22.2 33.0 L26.25 29.65 30.25 29.0 M20.6 34.25 L22.2 33.0 18.6 33.5 14.85 32.05 16.35 33.65 M13.1 46.9 L14.25 46.4 15.1 48.3 17.0 52.8 17.25 53.8 17.4 54.25 13.55 50.6 13.2 50.25 11.75 51.65 10.85 52.9 10.75 50.75 12.6 47.8 13.1 46.9 M33.2 38.35 Q34.05 40.15 33.7 42.5 33.25 45.65 31.65 48.05 L31.15 48.8 Q30.1 49.95 29.05 50.2 L26.65 50.05 Q25.9 49.75 25.05 48.9 M13.15 39.15 L13.15 39.25 13.35 40.8 Q13.45 43.35 12.5 45.2 11.55 47.1 10.25 47.1 L9.85 47.05 Q8.75 46.8 8.0 45.2 7.5 44.25 7.3 43.1 M7.2 42.7 Q7.05 41.75 7.05 40.7 7.05 38.0 8.0 36.1 8.9 34.25 9.95 34.5 11.0 34.75 12.1 36.5 L12.55 37.3 13.05 38.8 M8.25 43.35 Q8.65 45.0 9.85 47.05 M12.55 37.3 Q9.4 35.5 8.2 40.25 7.8 41.6 8.25 43.35 M9.1 59.5 L10.0 58.65 12.0 58.65 13.75 60.0 13.55 60.4 15.35 61.35 16.7 61.35 M13.55 60.4 L12.6 62.25 M2.35 56.95 L2.75 56.4 3.5 55.75 5.25 56.65 7.0 56.65 6.7 58.25 M3.7 60.6 L4.85 59.75 M33.85 59.5 L37.2 58.5 38.6 56.6 38.1 55.25 M28.9 63.9 L29.6 62.4 31.0 62.4 31.6 60.0 33.85 59.5 M20.7 63.25 L21.05 62.45 M17.9 64.4 L18.85 64.0" fill="none" stroke="#000000" stroke-linecap="round" stroke-linejoin="round" stroke-opacity="0.4" stroke-width="0.5"/>
    <path d="M13.05 38.8 L13.15 39.15" fill="none" stroke="#ff3399" stroke-linecap="round" stroke-linejoin="round" stroke-width="0.05"/>
    <path d="M28.95 45.4 Q28.5 44.95 28.5 44.3 28.5 43.65 28.95 43.2 29.4 42.75 30.05 42.75 30.7 42.75 31.15 43.2 31.6 43.65 31.6 44.3 31.6 44.95 31.15 45.4 30.7 45.85 30.05 45.85 29.4 45.85 28.95 45.4" fill="#000000" fill-rule="evenodd" stroke="none"/>
    <path d="M10.65 44.05 Q10.4 43.6 10.4 42.95 10.4 42.3 10.65 41.85 L11.3 41.4 11.9 41.85 12.15 42.95 11.9 44.05 11.3 44.5 10.65 44.05" fill="#000000" fill-rule="evenodd" stroke="none"/>
  </g>
</svg>
