<?xml version="1.0" encoding="UTF-8" standalone="no"?>
<svg xmlns:xlink="http://www.w3.org/1999/xlink" height="88.1px" width="161.15px" xmlns="http://www.w3.org/2000/svg">
  <g transform="matrix(1.0, 0.0, 0.0, 1.0, 80.55, 44.05)">
    <path d="M24.45 -6.5 L25.05 -6.7 23.45 -10.85 20.0 -14.75 19.5 -14.35 Q18.4 -13.35 21.35 -7.95 24.4 -3.9 24.45 -6.5 M6.0 -1.85 L5.5 -1.7 5.4 -1.1 6.2 0.9 Q6.75 0.9 6.75 0.6 L6.85 -0.35 Q6.9 -1.85 6.0 -1.85 M4.25 -6.5 Q4.05 -7.1 3.7 -7.1 L3.05 -6.95 3.05 -6.2 Q3.2 -5.75 3.7 -5.6 4.25 -5.95 4.25 -6.5 M-63.5 37.25 Q-59.65 29.95 -65.85 20.45 -66.75 9.5 -76.3 2.45 L-68.8 2.45 Q-61.55 -5.1 -68.8 -16.55 -70.8 -27.45 -80.05 -31.55 L-71.05 -31.55 Q-64.35 -35.55 -66.6 -43.55 -46.45 -36.35 -26.1 -30.9 L-22.15 -25.6 -24.15 -30.35 Q-2.15 -24.55 20.2 -20.7 21.55 -14.4 24.45 -13.9 22.75 -17.55 23.3 -20.15 41.1 -17.2 59.15 -15.55 48.55 -11.05 49.4 -6.55 L57.9 3.2 Q64.4 10.75 73.35 9.45 71.35 16.95 58.4 13.45 59.5 17.1 60.85 20.35 L55.9 20.35 62.2 23.4 Q67.2 33.9 75.0 39.45 55.15 36.55 34.2 37.5 25.65 41.15 14.9 41.9 0.65 41.6 -13.6 35.0 L-18.4 22.25 Q-20.55 18.85 -20.9 21.3 -23.45 19.2 -22.55 37.7 -37.9 33.7 -54.45 34.55 L-63.5 37.25 M13.7 10.6 L14.25 9.6 13.7 9.0 Q13.15 9.25 13.15 9.7 L13.15 10.15 Q13.35 10.45 13.7 10.6 M32.7 18.4 L32.7 18.85 33.25 19.3 33.8 18.3 33.25 17.7 Q32.65 17.95 32.7 18.4 M23.45 22.65 Q22.9 22.9 22.9 23.55 22.9 23.8 23.45 24.55 L23.95 24.25 24.05 23.55 23.45 22.65 M30.0 11.2 Q29.4 11.35 29.4 11.9 L29.4 12.4 30.0 12.7 30.55 11.8 30.0 11.2 M23.7 9.25 Q22.8 9.25 22.8 10.5 L25.15 13.95 24.8 13.9 Q23.95 13.9 23.95 15.15 L24.05 15.7 Q24.25 16.2 24.8 16.2 25.7 16.2 25.7 15.1 L25.6 14.35 Q26.4 14.25 26.4 13.25 25.0 9.25 23.7 9.25 M35.05 2.55 Q35.9 2.55 35.95 1.3 36.0 -0.65 34.7 -0.65 33.8 -0.65 33.8 0.65 L33.95 1.65 Q34.25 2.55 35.05 2.55 M34.7 9.25 Q33.8 9.25 33.8 10.5 L33.85 11.05 Q34.0 11.55 34.7 11.55 35.5 11.55 35.5 10.45 35.5 9.25 34.7 9.25 M47.85 22.65 L47.3 23.55 47.85 24.55 48.4 24.25 48.45 23.55 Q48.4 22.95 47.85 22.65 M52.2 10.15 L52.8 10.6 53.35 9.6 52.8 9.0 Q52.2 9.25 52.2 9.7 L52.2 10.15 M38.3 -1.1 Q38.25 -2.3 37.4 -2.3 36.5 -2.3 36.55 -1.0 L36.6 -0.4 Q36.8 0.1 37.4 0.1 38.25 0.1 38.3 -1.1 M28.9 -3.95 L28.95 -3.5 Q29.2 -3.15 29.55 -3.15 L29.9 -3.35 30.1 -4.05 29.55 -4.7 Q28.9 -4.25 28.9 -3.95 M4.55 12.5 Q4.0 12.55 3.65 13.4 L6.25 20.55 Q9.1 24.95 9.75 20.55 L10.35 20.15 Q9.65 17.8 7.75 14.55 L5.35 11.75 Q4.1 11.5 4.55 12.5 M-1.4 21.65 L-0.25 19.75 -4.35 9.75 Q-7.45 4.65 -9.75 2.95 -10.85 3.2 -10.55 4.05 -11.95 4.05 -11.95 8.45 -10.15 13.35 -2.55 21.3 -1.65 22.25 -1.4 21.65 M-3.35 -4.35 Q-3.9 -4.35 -3.9 -3.45 -3.75 -2.95 -3.35 -2.75 L-2.7 -3.75 Q-3.05 -4.35 -3.35 -4.35 M-25.0 -3.35 L-24.8 -4.05 -25.35 -4.7 Q-26.0 -4.4 -26.0 -3.95 L-25.95 -3.5 -25.35 -3.15 Q-24.8 -3.15 -25.0 -3.35 M-34.7 -3.35 L-34.55 -4.05 -35.15 -4.7 -35.7 -3.95 -35.65 -3.5 -35.15 -3.15 Q-34.6 -3.15 -34.7 -3.35 M-34.7 -19.85 L-35.35 -19.4 -34.7 -18.35 Q-34.15 -19.0 -34.15 -19.25 -34.35 -19.85 -34.7 -19.85 M-31.75 -22.25 L-31.9 -22.65 -32.4 -23.0 Q-32.75 -23.6 -33.35 -23.9 -34.35 -22.9 -34.35 -21.35 -34.35 -19.85 -33.45 -19.85 -32.1 -20.45 -32.05 -21.35 L-32.05 -21.55 -31.9 -21.65 -31.75 -22.25 M-56.6 -18.65 L-56.0 -19.25 Q-56.05 -19.7 -56.8 -20.85 -57.4 -20.6 -57.35 -20.0 -57.4 -19.2 -56.6 -18.65 M-50.75 -20.85 Q-51.3 -20.6 -51.3 -20.15 L-51.3 -19.7 -50.75 -19.25 Q-50.2 -19.9 -50.2 -20.25 L-50.75 -20.85 M-56.0 -31.85 L-55.55 -31.7 Q-55.0 -31.7 -54.9 -31.95 L-54.85 -32.55 -54.95 -33.15 -55.55 -33.3 -56.25 -32.55 -56.0 -31.85 M33.25 30.9 L32.7 30.75 32.0 31.45 32.05 31.9 32.7 32.35 Q33.25 32.35 33.3 32.05 L33.35 31.45 33.25 30.9 M19.35 29.65 L19.9 29.8 20.55 28.9 Q20.3 28.3 19.9 28.3 19.15 28.3 19.15 29.0 L19.35 29.65 M-41.05 16.3 Q-41.6 13.3 -42.4 13.3 -43.2 13.3 -43.2 14.65 L-43.0 16.15 Q-42.65 17.5 -41.95 17.5 -41.05 17.5 -41.05 16.3 M-51.6 21.4 Q-51.7 20.25 -52.15 19.6 -52.2 20.5 -52.75 20.65 L-52.15 21.75 -51.6 21.4 M-56.65 22.0 L-56.15 22.35 Q-55.55 21.75 -55.55 21.45 L-56.15 20.8 Q-56.7 21.2 -56.7 21.5 L-56.65 22.0 M-58.1 12.8 L-58.05 13.3 -57.5 13.65 Q-56.95 13.35 -56.9 12.7 L-57.5 12.1 -58.1 12.8 M-39.85 25.45 Q-39.5 25.45 -39.25 24.85 -39.3 23.35 -40.1 23.35 L-40.6 23.7 -40.65 24.15 Q-40.65 25.45 -39.85 25.45 M-29.25 29.0 Q-29.1 29.65 -28.3 29.65 -27.35 29.65 -27.35 28.4 -27.4 26.95 -28.4 26.95 -29.3 26.95 -29.3 28.3 L-29.25 29.0 M-31.9 23.5 Q-32.55 23.5 -32.7 24.15 L-32.75 24.85 -32.3 26.5 Q-31.75 28.05 -31.2 28.05 -30.35 28.05 -30.3 26.6 -31.2 23.5 -31.9 23.5 M-37.15 23.35 Q-37.8 23.35 -37.8 24.1 L-36.25 26.1 Q-35.9 26.1 -35.65 25.8 L-35.55 25.3 Q-36.2 23.35 -37.15 23.35 M-20.2 15.75 L-20.15 16.35 Q-20.0 16.85 -19.55 16.9 L-19.55 17.0 -19.5 17.6 Q-19.3 18.1 -18.5 18.1 -17.6 18.1 -17.6 16.95 -17.55 15.75 -18.5 15.75 L-18.5 15.7 Q-18.5 14.5 -19.4 14.5 -20.2 14.5 -20.2 15.75" fill="#666600" fill-rule="evenodd" stroke="none"/>
    <path d="M19.5 -14.35 L20.0 -14.75 23.45 -10.85 25.05 -6.7 24.45 -6.5 Q22.9 -11.25 19.5 -14.35 M4.25 -6.5 Q4.25 -5.95 3.7 -5.6 3.2 -5.75 3.05 -6.2 L3.05 -6.95 3.7 -7.1 Q4.05 -7.1 4.25 -6.5 M6.0 -1.85 Q6.9 -1.85 6.85 -0.35 L6.75 0.6 Q6.75 0.9 6.2 0.9 L5.4 -1.1 5.5 -1.7 6.0 -1.85 M75.0 39.45 Q77.4 41.2 80.1 42.45 53.1 36.65 23.95 42.45 8.35 46.15 -14.2 37.45 L-17.85 27.4 Q-19.75 22.2 -20.9 21.3 -20.55 18.85 -18.4 22.25 L-13.6 35.0 Q0.65 41.6 14.9 41.9 25.65 41.15 34.2 37.5 55.15 36.55 75.0 39.45 M-22.55 37.7 L-22.4 40.45 Q-45.55 33.0 -65.85 40.45 L-63.5 37.25 -54.45 34.55 Q-37.9 33.7 -22.55 37.7 M28.9 -3.95 Q28.9 -4.25 29.55 -4.7 L30.1 -4.05 29.9 -3.35 29.55 -3.15 Q29.2 -3.15 28.95 -3.5 L28.9 -3.95 M38.3 -1.1 Q38.25 0.1 37.4 0.1 36.8 0.1 36.6 -0.4 L36.55 -1.0 Q36.5 -2.3 37.4 -2.3 38.25 -2.3 38.3 -1.1 M52.2 10.15 L52.2 9.7 Q52.2 9.25 52.8 9.0 L53.35 9.6 52.8 10.6 52.2 10.15 M47.85 22.65 Q48.4 22.95 48.45 23.55 L48.4 24.25 47.85 24.55 47.3 23.55 47.85 22.65 M34.7 9.25 Q35.5 9.25 35.5 10.45 35.5 11.55 34.7 11.55 34.0 11.55 33.85 11.05 L33.8 10.5 Q33.8 9.25 34.7 9.25 M35.05 2.55 Q34.25 2.55 33.95 1.65 L33.8 0.65 Q33.8 -0.65 34.7 -0.65 36.0 -0.65 35.95 1.3 35.9 2.55 35.05 2.55 M23.7 9.25 Q25.0 9.25 26.4 13.25 26.4 14.25 25.6 14.35 L25.7 15.1 Q25.7 16.2 24.8 16.2 24.25 16.2 24.05 15.7 L23.95 15.15 Q23.95 13.9 24.8 13.9 L25.15 13.95 22.8 10.5 Q22.8 9.25 23.7 9.25 M30.0 11.2 L30.55 11.8 30.0 12.7 29.4 12.4 29.4 11.9 Q29.4 11.35 30.0 11.2 M23.45 22.65 L24.05 23.55 23.95 24.25 23.45 24.55 Q22.9 23.8 22.9 23.55 22.9 22.9 23.45 22.65 M32.7 18.4 Q32.65 17.95 33.25 17.7 L33.8 18.3 33.25 19.3 32.7 18.85 32.7 18.4 M13.7 10.6 Q13.35 10.45 13.15 10.15 L13.15 9.7 Q13.15 9.25 13.7 9.0 L14.25 9.6 13.7 10.6 M9.75 20.55 Q6.25 12.15 4.55 12.5 4.1 11.5 5.35 11.75 L7.75 14.55 Q9.65 17.8 10.35 20.15 L9.75 20.55 M19.35 29.65 L19.15 29.0 Q19.15 28.3 19.9 28.3 20.3 28.3 20.55 28.9 L19.9 29.8 19.35 29.65 M33.25 30.9 L33.35 31.45 33.3 32.05 Q33.25 32.35 32.7 32.35 L32.05 31.9 32.0 31.45 32.7 30.75 33.25 30.9 M-56.0 -31.85 L-56.25 -32.55 -55.55 -33.3 -54.95 -33.15 -54.85 -32.55 -54.9 -31.95 Q-55.0 -31.7 -55.55 -31.7 L-56.0 -31.85 M-50.75 -20.85 L-50.2 -20.25 Q-50.2 -19.9 -50.75 -19.25 L-51.3 -19.7 -51.3 -20.15 Q-51.3 -20.6 -50.75 -20.85 M-56.6 -18.65 Q-57.4 -19.2 -57.35 -20.0 -57.4 -20.6 -56.8 -20.85 -56.05 -19.7 -56.0 -19.25 L-56.6 -18.65 M-31.75 -22.25 L-31.9 -21.65 -32.05 -21.55 -32.05 -21.35 Q-32.1 -20.45 -33.45 -19.85 -34.35 -19.85 -34.35 -21.35 -34.35 -22.9 -33.35 -23.9 -32.75 -23.6 -32.4 -23.0 L-31.9 -22.65 -31.75 -22.25 M-34.7 -19.85 Q-34.35 -19.85 -34.15 -19.25 -34.15 -19.0 -34.7 -18.35 L-35.35 -19.4 -34.7 -19.85 M-34.7 -3.35 Q-34.6 -3.15 -35.15 -3.15 L-35.65 -3.5 -35.7 -3.95 -35.15 -4.7 -34.55 -4.05 -34.7 -3.35 M-25.0 -3.35 Q-24.8 -3.15 -25.35 -3.15 L-25.95 -3.5 -26.0 -3.95 Q-26.0 -4.4 -25.35 -4.7 L-24.8 -4.05 -25.0 -3.35 M-3.35 -4.35 Q-3.05 -4.35 -2.7 -3.75 L-3.35 -2.75 Q-3.75 -2.95 -3.9 -3.45 -3.9 -4.35 -3.35 -4.35 M-10.55 4.05 Q-10.85 3.2 -9.75 2.95 -7.45 4.65 -4.35 9.75 L-0.25 19.75 -1.4 21.65 Q-0.8 20.2 -2.25 16.45 -8.3 4.0 -10.55 4.05 M-20.2 15.75 Q-20.2 14.5 -19.4 14.5 -18.5 14.5 -18.5 15.7 L-18.5 15.75 Q-17.55 15.75 -17.6 16.95 -17.6 18.1 -18.5 18.1 -19.3 18.1 -19.5 17.6 L-19.55 17.0 -19.55 16.9 Q-20.0 16.85 -20.15 16.35 L-20.2 15.75 M-37.15 23.35 Q-36.2 23.35 -35.55 25.3 L-35.65 25.8 Q-35.9 26.1 -36.25 26.1 L-37.8 24.1 Q-37.8 23.35 -37.15 23.35 M-31.9 23.5 Q-31.2 23.5 -30.3 26.6 -30.35 28.05 -31.2 28.05 -31.75 28.05 -32.3 26.5 L-32.75 24.85 -32.7 24.15 Q-32.55 23.5 -31.9 23.5 M-29.25 29.0 L-29.3 28.3 Q-29.3 26.95 -28.4 26.95 -27.4 26.95 -27.35 28.4 -27.35 29.65 -28.3 29.65 -29.1 29.65 -29.25 29.0 M-39.85 25.45 Q-40.65 25.45 -40.65 24.15 L-40.6 23.7 -40.1 23.35 Q-39.3 23.35 -39.25 24.85 -39.5 25.45 -39.85 25.45 M-58.1 12.8 L-57.5 12.1 -56.9 12.7 Q-56.95 13.35 -57.5 13.65 L-58.05 13.3 -58.1 12.8 M-56.65 22.0 L-56.7 21.5 Q-56.7 21.2 -56.15 20.8 L-55.55 21.45 Q-55.55 21.75 -56.15 22.35 L-56.65 22.0 M-51.6 21.4 L-52.15 21.75 -52.75 20.65 Q-52.2 20.5 -52.15 19.6 -51.7 20.25 -51.6 21.4 M-41.05 16.3 Q-41.05 17.5 -41.95 17.5 -42.65 17.5 -43.0 16.15 L-43.2 14.65 Q-43.2 13.3 -42.4 13.3 -41.6 13.3 -41.05 16.3" fill="#939300" fill-rule="evenodd" stroke="none"/>
    <path d="M24.45 -6.5 Q24.4 -3.9 21.35 -7.95 18.4 -13.35 19.5 -14.35 22.9 -11.25 24.45 -6.5 M-63.5 37.25 Q-59.65 29.95 -65.85 20.45 -66.75 9.5 -76.3 2.45 L-68.8 2.45 Q-61.55 -5.1 -68.8 -16.55 -70.8 -27.45 -80.05 -31.55 L-71.05 -31.55 Q-64.35 -35.55 -66.6 -43.55 -46.45 -36.35 -26.1 -30.9 L-22.15 -25.6 -24.15 -30.35 Q-2.15 -24.55 20.2 -20.7 21.55 -14.4 24.45 -13.9 22.75 -17.55 23.3 -20.15 41.1 -17.2 59.15 -15.55 48.55 -11.05 49.4 -6.55 L57.9 3.2 Q64.4 10.75 73.35 9.45 71.35 16.95 58.4 13.45 59.5 17.1 60.85 20.35 L55.9 20.35 62.2 23.4 Q67.2 33.9 75.0 39.45 77.4 41.2 80.1 42.45 53.1 36.65 23.95 42.45 8.35 46.15 -14.2 37.45 L-17.85 27.4 Q-19.75 22.2 -20.9 21.3 -23.45 19.2 -22.55 37.7 L-22.4 40.45 Q-45.55 33.0 -65.85 40.45 L-63.5 37.25 M4.55 12.5 Q4.0 12.55 3.65 13.4 L6.25 20.55 Q9.1 24.95 9.75 20.55 6.25 12.15 4.55 12.5 M-1.4 21.65 Q-1.65 22.25 -2.55 21.3 -10.15 13.35 -11.95 8.45 -11.95 4.05 -10.55 4.05 -8.3 4.0 -2.25 16.45 -0.8 20.2 -1.4 21.65 Z" fill="none" stroke="#333333" stroke-linecap="round" stroke-linejoin="round" stroke-opacity="0.49803922" stroke-width="1.0"/>
    <path d="M24.45 -6.5 Q24.4 -3.9 21.35 -7.95 18.4 -13.35 19.5 -14.35 22.9 -11.25 24.45 -6.5 M23.3 -20.15 Q41.1 -17.2 59.15 -15.55 48.55 -11.05 49.4 -6.55 L57.9 3.2 Q64.4 10.75 73.35 9.45 71.35 16.95 58.4 13.45 59.5 17.1 60.85 20.35 L55.9 20.35 62.2 23.4 Q67.2 33.9 75.0 39.45 77.4 41.2 80.1 42.45 53.1 36.65 23.95 42.45 8.35 46.15 -14.2 37.45 L-17.85 27.4 Q-19.75 22.2 -20.9 21.3 -23.45 19.2 -22.55 37.7 L-22.4 40.45 Q-45.55 33.0 -65.85 40.45 L-63.5 37.25 Q-59.65 29.95 -65.85 20.45 -66.75 9.5 -76.3 2.45 L-68.8 2.45 Q-61.55 -5.1 -68.8 -16.55 -70.8 -27.45 -80.05 -31.55 L-71.05 -31.55 Q-64.35 -35.55 -66.6 -43.55 -46.45 -36.35 -26.1 -30.9 L-22.15 -25.6 -24.15 -30.35 Q-2.15 -24.55 20.2 -20.7 21.55 -14.4 24.45 -13.9 22.75 -17.55 23.3 -20.15 M4.55 12.5 Q6.25 12.15 9.75 20.55 9.1 24.95 6.25 20.55 L3.65 13.4 Q4.0 12.55 4.55 12.5 M-2.55 21.3 Q-10.15 13.35 -11.95 8.45 -11.95 4.05 -10.55 4.05 -8.3 4.0 -2.25 16.45 -0.8 20.2 -1.4 21.65 -1.65 22.25 -2.55 21.3 Z" fill="none" stroke="#333333" stroke-linecap="round" stroke-linejoin="round" stroke-opacity="0.49803922" stroke-width="1.0"/>
  </g>
</svg>
