<?xml version="1.0" encoding="UTF-8" standalone="no"?>
<svg xmlns:xlink="http://www.w3.org/1999/xlink" height="214.6px" width="253.1px" xmlns="http://www.w3.org/2000/svg">
  <g transform="matrix(1.0, 0.0, 0.0, 1.0, 126.55, 107.55)">
    <path d="M-51.4 17.8 L-48.1 18.15 -45.4 18.4 Q-42.7 18.65 -42.25 21.3 -42.1 22.25 -42.4 23.25 -43.2 24.25 -42.85 25.9 -42.0 29.5 -41.7 33.2 L-41.2 38.5 Q-40.6 45.75 -44.95 51.6 -46.05 53.1 -47.65 53.85 -48.7 54.4 -49.75 53.85 -51.05 53.1 -51.3 51.6 -52.05 47.75 -51.25 43.8 -50.6 40.4 -53.4 40.5 -54.4 40.5 -55.1 40.95 -58.25 42.95 -59.25 45.85 -60.45 49.45 -60.1 53.75 L-59.6 56.3 Q-58.0 61.5 -58.3 67.05 L-58.5 70.35 Q-58.7 72.3 -60.1 73.55 -61.0 74.35 -62.0 74.35 -68.15 74.4 -69.15 67.7 -69.6 64.4 -69.15 61.15 -67.85 52.7 -69.3 44.45 -73.2 45.55 -74.15 50.4 L-75.0 55.8 -76.15 65.05 Q-77.55 77.25 -77.9 89.6 -78.05 95.95 -79.45 102.15 -79.9 104.2 -81.0 105.9 -81.6 106.85 -82.7 107.0 -83.55 107.2 -84.05 106.5 -86.0 103.7 -86.4 100.2 -86.95 94.85 -86.15 89.55 L-84.85 82.4 Q-82.6 71.1 -81.85 59.75 -81.2 50.8 -84.1 42.55 -84.9 40.2 -86.3 37.65 -87.2 36.55 -88.75 36.25 L-89.85 36.15 Q-89.15 33.7 -87.9 32.55 L-86.4 31.4 Q-80.3 27.95 -73.8 24.8 L-70.2 22.85 Q-65.1 19.7 -59.4 18.4 L-55.35 17.75 Q-53.4 17.6 -51.4 17.8" fill="#666600" fill-rule="evenodd" stroke="none"/>
    <path d="M91.6 -10.95 Q102.55 -1.9 126.05 1.0 115.1 5.4 113.8 7.65 L109.0 16.05 85.55 0.9 91.6 -10.95 M80.6 31.05 Q78.65 34.75 75.6 37.75 66.05 47.1 53.95 52.8 L37.8 34.55 Q55.25 26.3 66.3 10.4 67.55 8.6 69.05 7.05 L75.3 12.75 Q82.1 18.35 89.9 22.4 L87.6 24.1 Q83.6 26.95 80.6 31.05 M-33.1 45.05 Q-39.7 47.45 -45.45 51.25 L-46.5 51.5 Q-67.85 43.8 -90.3 38.85 -96.9 37.55 -102.7 34.4 -113.85 28.45 -126.05 25.4 -121.45 24.0 -117.85 20.75 L-106.1 9.7 Q-74.1 26.7 -39.9 22.45 -34.15 21.75 -28.4 19.5 -24.15 17.85 -21.0 21.1 L-20.95 21.2 Q-20.05 28.45 -19.7 35.75 -19.5 39.9 -19.45 44.05 L-19.7 44.05 Q-25.15 40.55 -33.1 45.05" fill="#33ffff" fill-rule="evenodd" stroke="none"/>
    <path d="M85.55 0.9 L109.0 16.05 102.9 27.0 Q97.5 36.8 88.05 35.45 L88.75 32.15 Q90.2 27.2 89.9 22.4 82.1 18.35 75.3 12.75 L85.55 0.9 M53.95 52.8 L51.25 54.0 Q37.55 59.85 22.65 60.7 L-1.35 63.3 Q-20.1 65.3 -34.85 54.7 L-34.6 53.7 Q-27.2 50.85 -20.35 47.55 L-19.8 47.3 -19.45 45.45 -19.45 44.45 -19.45 44.05 Q-19.5 39.9 -19.7 35.75 8.4 46.7 35.4 35.6 L37.8 34.55 53.95 52.8" fill="#01b1b1" fill-rule="evenodd" stroke="none"/>
    <path d="M91.6 -10.95 L85.55 0.9 Q81.1 -2.35 76.8 -5.75 51.3 -25.7 30.55 -50.7 20.3 -63.15 14.2 -77.85 9.8 -88.5 0.7 -91.25 L-0.85 -90.5 -0.85 -88.65 0.55 -84.05 Q5.4 -68.75 13.65 -54.8 22.2 -40.45 33.0 -27.75 43.85 -14.9 57.35 -4.75 61.25 -1.75 64.4 2.0 L69.05 7.05 Q67.55 8.6 66.3 10.4 55.25 26.3 37.8 34.55 15.65 9.85 4.8 -21.6 -7.4 -56.95 -8.1 -94.35 L-9.1 -94.6 Q-13.7 -88.0 -16.2 -79.7 -20.75 -64.7 -23.55 -49.25 -26.4 -33.8 -25.55 -18.15 -24.75 -2.5 -22.15 13.05 L-20.95 21.1 -21.0 21.1 Q-24.15 17.85 -28.4 19.5 -34.15 21.75 -39.9 22.45 -74.1 26.7 -106.1 9.7 L-100.4 3.9 Q-77.25 -20.1 -56.0 -45.65 -50.0 -52.85 -45.85 -61.25 -34.3 -84.75 -16.0 -103.2 -8.8 -110.4 0.35 -104.05 9.2 -97.95 14.55 -91.35 L27.9 -74.55 Q35.95 -64.35 49.85 -48.45 63.65 -32.6 75.1 -23.85 L91.6 -10.95 M-0.85 -92.3 L-0.85 -90.5 -0.85 -92.3 M-56.55 -37.75 Q-57.6 -36.45 -57.85 -34.75 L-57.9 -31.8 Q-57.65 -28.25 -56.05 -25.0 L-54.9 -22.7 -54.1 -21.8 -54.05 -22.05 -53.9 -22.4 Q-52.55 -24.55 -50.8 -26.4 L-49.5 -27.9 -48.25 -29.8 -46.7 -32.3 Q-45.25 -34.5 -45.8 -36.95 -46.15 -38.65 -47.65 -38.45 L-49.3 -37.95 Q-51.95 -36.55 -52.95 -33.8 -53.1 -35.45 -53.95 -36.95 L-54.95 -38.45 Q-55.2 -38.75 -55.4 -38.65 L-56.55 -37.75 M-61.05 -16.1 L-63.85 -15.25 Q-68.25 -12.9 -70.0 -8.3 -70.2 -11.1 -71.6 -13.6 L-73.25 -16.05 Q-73.65 -16.55 -74.05 -16.4 -75.1 -15.9 -75.95 -14.9 -77.75 -12.75 -78.15 -9.95 -78.45 -7.45 -78.25 -5.0 -77.8 0.95 -75.1 6.35 L-73.15 10.2 -71.85 11.7 -71.75 11.3 -71.55 10.7 Q-69.3 7.15 -66.35 4.0 L-64.2 1.55 -62.1 -1.65 -59.5 -5.8 Q-57.05 -9.45 -57.95 -13.6 -58.55 -16.4 -61.05 -16.1 M-44.45 -8.0 L-42.7 -9.55 -40.55 -11.5 Q-38.6 -13.25 -38.5 -15.8 -38.4 -17.5 -39.9 -17.7 L-41.65 -17.65 Q-44.55 -17.0 -46.25 -14.6 -45.95 -16.25 -46.35 -17.9 L-46.95 -19.6 -47.35 -19.9 -48.65 -19.35 Q-50.05 -18.4 -50.7 -16.8 L-51.55 -13.95 Q-52.2 -10.45 -51.5 -6.9 L-50.95 -4.4 -50.4 -3.35 -50.3 -3.55 -50.1 -3.85 Q-48.25 -5.55 -46.05 -6.9 L-44.45 -8.0 M-51.25 -3.65 L-51.85 -3.7 -51.8 -3.35 -51.6 -3.5 -51.25 -3.65" fill="#ff99cc" fill-rule="evenodd" stroke="none"/>
    <path d="M-0.85 -90.5 L0.7 -91.25 Q9.8 -88.5 14.2 -77.85 20.3 -63.15 30.55 -50.7 51.3 -25.7 76.8 -5.75 81.1 -2.35 85.55 0.9 L75.3 12.75 69.05 7.05 64.4 2.0 Q61.25 -1.75 57.35 -4.75 43.85 -14.9 33.0 -27.75 22.2 -40.45 13.65 -54.8 5.4 -68.75 0.55 -84.05 L-0.85 -88.65 -0.85 -90.5 M-9.1 -94.6 L-8.1 -94.35 Q-7.4 -56.95 4.8 -21.6 15.65 9.85 37.8 34.55 L35.4 35.6 Q8.4 46.7 -19.7 35.75 -20.05 28.45 -20.95 21.2 L-20.95 21.1 -22.15 13.05 Q-24.75 -2.5 -25.55 -18.15 -26.4 -33.8 -23.55 -49.25 -20.75 -64.7 -16.2 -79.7 -13.7 -88.0 -9.1 -94.6" fill="#ff6699" fill-rule="evenodd" stroke="none"/>
    <path d="M88.05 35.45 Q84.6 34.45 81.85 32.15 L80.6 31.05 Q83.6 26.95 87.6 24.1 L89.9 22.4 Q90.2 27.2 88.75 32.15 L88.05 35.45 M-34.6 53.7 L-33.1 45.05 Q-25.15 40.55 -19.7 44.05 L-19.45 44.45 -19.45 45.45 -19.8 47.3 -20.35 47.55 Q-27.2 50.85 -34.6 53.7" fill="#017676" fill-rule="evenodd" stroke="none"/>
    <path d="M-56.55 -37.75 L-55.4 -38.65 Q-55.2 -38.75 -54.95 -38.45 L-53.95 -36.95 Q-53.1 -35.45 -52.95 -33.8 -51.95 -36.55 -49.3 -37.95 L-47.65 -38.45 Q-46.15 -38.65 -45.8 -36.95 -45.25 -34.5 -46.7 -32.3 L-48.25 -29.8 -49.5 -27.9 -50.8 -26.4 Q-52.55 -24.55 -53.9 -22.4 L-54.05 -22.05 -54.1 -21.8 -54.9 -22.7 -56.05 -25.0 Q-57.65 -28.25 -57.9 -31.8 L-57.85 -34.75 Q-57.6 -36.45 -56.55 -37.75 M-44.45 -8.0 L-46.05 -6.9 Q-48.25 -5.55 -50.1 -3.85 L-50.3 -3.55 -50.4 -3.35 -50.95 -4.4 -51.5 -6.9 Q-52.2 -10.45 -51.55 -13.95 L-50.7 -16.8 Q-50.05 -18.4 -48.65 -19.35 L-47.35 -19.9 -46.95 -19.6 -46.35 -17.9 Q-45.95 -16.25 -46.25 -14.6 -44.55 -17.0 -41.65 -17.65 L-39.9 -17.7 Q-38.4 -17.5 -38.5 -15.8 -38.6 -13.25 -40.55 -11.5 L-42.7 -9.55 -44.45 -8.0 M-61.05 -16.1 Q-58.55 -16.4 -57.95 -13.6 -57.05 -9.45 -59.5 -5.8 L-62.1 -1.65 -64.2 1.55 -66.35 4.0 Q-69.3 7.15 -71.55 10.7 L-71.75 11.3 -71.85 11.7 -73.15 10.2 -75.1 6.35 Q-77.8 0.95 -78.25 -5.0 -78.45 -7.45 -78.15 -9.95 -77.75 -12.75 -75.95 -14.9 -75.1 -15.9 -74.05 -16.4 -73.65 -16.55 -73.25 -16.05 L-71.6 -13.6 Q-70.2 -11.1 -70.0 -8.3 -68.25 -12.9 -63.85 -15.25 L-61.05 -16.1" fill="#ff3300" fill-rule="evenodd" stroke="none"/>
    <path d="M109.0 16.05 L113.8 7.65 Q115.1 5.4 126.05 1.0 102.55 -1.9 91.6 -10.95 L75.1 -23.85 Q63.65 -32.6 49.85 -48.45 35.95 -64.35 27.9 -74.55 L14.55 -91.35 Q9.2 -97.95 0.35 -104.05 -8.8 -110.4 -16.0 -103.2 -34.3 -84.75 -45.85 -61.25 -50.0 -52.85 -56.0 -45.65 -77.25 -20.1 -100.4 3.9 L-106.1 9.7 -117.85 20.75 Q-121.45 24.0 -126.05 25.4 -113.85 28.45 -102.7 34.4 -96.9 37.55 -90.3 38.85 -67.85 43.8 -46.5 51.5 L-45.45 51.25 Q-39.7 47.45 -33.1 45.05 -25.15 40.55 -19.7 44.05 L-19.45 44.45 M109.0 16.05 L102.9 27.0 Q97.5 36.8 88.05 35.45 L88.75 32.15 Q90.2 27.2 89.9 22.4 L87.6 24.1 Q83.6 26.95 80.6 31.05 78.65 34.75 75.6 37.75 66.05 47.1 53.95 52.8 L51.25 54.0 Q37.55 59.85 22.65 60.7 L-1.35 63.3 Q-20.1 65.3 -34.85 54.7 L-34.6 53.7 Q-27.2 50.85 -20.35 47.55 L-19.8 47.3 -19.45 45.45" fill="none" stroke="#000000" stroke-linecap="round" stroke-linejoin="round" stroke-opacity="0.4" stroke-width="1.0"/>
    <path d="M88.05 35.45 Q84.6 34.45 81.85 32.15 L80.6 31.05 M-34.6 53.7 L-33.1 45.05 M75.3 12.75 Q82.1 18.35 89.9 22.4 M69.05 7.05 L64.4 2.0 Q61.25 -1.75 57.35 -4.75 43.85 -14.9 33.0 -27.75 22.2 -40.45 13.65 -54.8 5.4 -68.75 0.55 -84.05 L-0.85 -88.65 -0.85 -90.5 -0.85 -92.3 M69.05 7.05 L75.3 12.75 M-20.95 21.1 L-22.15 13.05 Q-24.75 -2.5 -25.55 -18.15 -26.4 -33.8 -23.55 -49.25 -20.75 -64.7 -16.2 -79.7 -13.7 -88.0 -9.1 -94.6 M-20.95 21.2 L-20.95 21.1 M-20.95 21.2 Q-20.05 28.45 -19.7 35.75 -19.5 39.9 -19.45 44.05 L-19.45 44.45 -19.45 45.45" fill="none" stroke="#000000" stroke-linecap="round" stroke-linejoin="round" stroke-opacity="0.4" stroke-width="1.0"/>
    <path d="M58.0 -20.35 Q55.5 -20.65 53.15 -19.85 L49.45 -19.45 Q44.6 -20.0 42.1 -24.55 40.45 -27.5 39.65 -30.7 38.45 -35.8 39.45 -40.4 L39.5 -40.4 39.45 -40.4 Q41.45 -47.75 45.7 -53.2 L49.85 -48.45 Q63.65 -32.6 75.1 -23.85 L82.3 -18.35 Q77.0 -12.9 68.2 -12.75 L68.15 -12.75 68.1 -12.75 Q66.3 -12.6 64.75 -13.45 62.05 -14.85 62.0 -18.1 62.6 -20.3 60.65 -20.25 L59.65 -20.25 58.0 -20.35 M60.8 19.4 Q63.3 18.95 65.5 20.1 67.65 21.25 68.55 23.55 69.95 26.9 70.8 30.5 72.5 37.85 68.4 44.05 61.7 49.15 53.95 52.8 L51.25 54.0 Q37.55 59.85 22.65 60.7 L6.7 62.35 Q5.5 60.1 4.95 57.5 3.2 48.3 8.7 41.2 9.7 39.85 11.0 38.6 14.25 35.5 17.95 33.15 23.0 29.95 27.3 25.7 28.5 24.6 28.55 23.3 28.8 22.6 28.0 22.55 20.0 20.7 11.55 21.05 7.25 21.25 3.45 19.85 0.95 18.95 0.15 16.25 -0.7 13.3 0.7 10.55 4.85 2.65 14.05 0.05 L26.15 -3.3 Q30.7 -4.5 34.75 -3.15 36.3 -1.8 37.5 -0.05 L39.15 2.8 39.5 4.0 Q39.9 7.0 38.45 9.1 L37.65 10.1 Q36.5 11.3 34.25 11.85 33.8 11.95 33.4 12.55 33.15 12.95 33.2 13.2 33.45 14.3 34.15 15.25 38.6 21.45 46.05 21.15 L58.55 19.85 60.8 19.4 M-36.4 -70.25 Q-36.2 -69.3 -36.65 -68.55 -37.5 -66.95 -38.95 -65.8 -40.55 -64.5 -41.05 -62.85 -41.15 -62.35 -40.65 -62.05 L-37.05 -60.05 -33.5 -57.8 Q-30.85 -55.9 -31.15 -53.15 -31.25 -52.05 -32.3 -51.1 -37.1 -46.7 -43.0 -45.05 -46.5 -44.1 -50.1 -44.35 L-56.05 -45.0 -56.0 -45.65 Q-50.0 -52.85 -45.85 -61.25 -42.8 -67.4 -39.3 -73.2 -36.85 -72.55 -36.4 -70.25 M-25.55 -18.15 Q-24.75 -2.5 -22.15 13.05 L-20.95 21.1 -21.0 21.1 -20.95 21.2 Q-20.05 28.45 -19.7 35.75 -19.5 39.9 -19.45 44.05 L-19.7 44.05 Q-25.15 40.55 -33.1 45.05 -39.7 47.45 -45.45 51.25 L-46.5 51.5 -50.55 50.05 Q-49.25 49.0 -48.5 47.6 -46.5 43.8 -48.05 39.95 -50.1 34.85 -54.8 33.9 -58.1 33.2 -60.5 36.9 -63.05 40.95 -63.6 45.85 -76.75 41.85 -90.3 38.85 L-92.3 38.4 Q-93.25 36.4 -93.25 33.85 -93.25 28.55 -90.9 23.8 -88.95 19.95 -85.35 18.45 -76.35 21.2 -67.2 22.45 L-67.15 21.8 Q-65.75 22.25 -64.15 21.8 -61.15 21.0 -62.75 18.6 L-56.15 18.3 Q-52.45 17.95 -48.95 16.75 -45.5 15.6 -42.4 13.65 -40.2 12.3 -38.9 10.2 -37.85 8.65 -38.4 6.9 -41.75 -4.1 -34.1 -12.5 -30.3 -16.6 -25.6 -18.2 L-25.55 -18.15" fill="#666600" fill-opacity="0.4117647" fill-rule="evenodd" stroke="none"/>
  </g>
</svg>
