<?xml version="1.0" encoding="UTF-8" standalone="no"?>
<svg xmlns:xlink="http://www.w3.org/1999/xlink" height="39.75px" width="103.0px" xmlns="http://www.w3.org/2000/svg">
  <g transform="matrix(1.0, 0.0, 0.0, 1.0, -223.5, -180.1)">
    <path d="M304.8 196.6 Q315.9 199.2 324.4 206.85 L325.35 207.75 324.75 208.0 303.65 203.25 281.75 200.65 292.7 197.6 293.0 197.35 299.65 195.7 304.8 196.6" fill="#800000" fill-rule="evenodd" stroke="none"/>
    <path d="M325.35 207.75 L325.5 207.9 325.05 209.1 324.75 208.0 325.35 207.75 M279.55 205.35 L279.55 205.5 279.5 205.5 279.55 205.35" fill="#283f44" fill-rule="evenodd" stroke="none"/>
    <path d="M324.05 200.15 L325.5 207.7 325.5 207.9 325.35 207.75 324.4 206.85 Q315.9 199.2 304.8 196.6 L317.95 196.1 316.4 190.3 317.3 190.95 324.05 200.15 M278.1 203.3 L271.6 205.45 Q262.25 209.0 255.8 218.85 253.5 213.05 247.75 209.4 251.3 205.05 258.4 202.45 L273.9 201.3 278.1 203.3 M270.75 194.4 L279.55 196.95 279.2 200.0 270.75 194.4 M279.7 195.05 L279.6 194.85 277.55 190.85 295.55 181.1 298.15 181.4 298.2 181.4 298.15 186.95 279.65 194.8 279.7 195.05" fill="#990000" fill-rule="evenodd" stroke="none"/>
    <path d="M316.4 190.3 L317.95 196.1 304.8 196.6 299.65 195.7 293.0 197.35 292.7 197.6 281.75 200.65 281.7 200.65 279.1 201.35 279.4 203.9 278.1 203.3 273.9 201.3 258.4 202.45 Q246.15 203.45 224.5 212.35 240.5 199.2 243.5 195.05 257.25 192.35 270.35 194.2 L270.75 194.4 279.2 200.0 279.55 196.95 279.7 195.05 279.65 194.8 298.15 186.95 298.2 181.4 299.7 181.6 302.6 182.1 Q305.35 182.65 307.9 183.35 L302.65 182.15 305.6 185.7 313.7 188.15 316.4 190.3" fill="#e40101" fill-rule="evenodd" stroke="none"/>
    <path d="M324.05 200.15 L317.3 190.95 316.4 190.3 313.7 188.15 305.6 185.7 302.65 182.15 307.9 183.35 310.6 183.85 315.3 186.05 317.75 187.25 319.8 188.4 Q322.5 194.25 324.05 200.15" fill="#ffb791" fill-rule="evenodd" stroke="none"/>
    <path d="M310.0 214.25 L309.9 214.25 309.7 213.9 310.0 214.25" fill="#f5eec5" fill-rule="evenodd" stroke="none"/>
    <path d="M281.7 200.65 L281.35 201.4 281.15 201.75 280.05 204.2 279.55 205.35 279.4 203.9 279.1 201.35 281.7 200.65" fill="#4f0000" fill-rule="evenodd" stroke="none"/>
    <path d="M325.5 207.9 L325.5 207.7 324.05 200.15 Q322.5 194.25 319.8 188.4 L317.75 187.25 315.3 186.05 310.6 183.85 307.9 183.35 Q305.35 182.65 302.6 182.1 L299.7 181.6 298.2 181.4 298.15 181.4 295.55 181.1 277.55 190.85 279.6 194.85 M304.8 196.6 Q315.9 199.2 324.4 206.85 L325.35 207.75 M324.75 208.0 L303.65 203.25 281.75 200.65 281.7 200.65 M279.4 203.9 L278.1 203.3 271.6 205.45 Q262.25 209.0 255.8 218.85 253.5 213.05 247.75 209.4 251.3 205.05 258.4 202.45 246.15 203.45 224.5 212.35 240.5 199.2 243.5 195.05 257.25 192.35 270.35 194.2 M270.75 194.4 L279.55 196.95 M281.75 200.65 L292.7 197.6 293.0 197.35 299.65 195.7 304.8 196.6 M302.65 182.15 L307.9 183.35 M258.4 202.45 L273.9 201.3 278.1 203.3" fill="none" stroke="#262015" stroke-linecap="round" stroke-linejoin="round" stroke-width="2.0"/>
  </g>
</svg>
