<?xml version="1.0" encoding="UTF-8" standalone="no"?>
<svg xmlns:xlink="http://www.w3.org/1999/xlink" height="76.7px" width="91.75px" xmlns="http://www.w3.org/2000/svg">
  <g transform="matrix(1.0, 0.0, 0.0, 1.0, 0.25, 0.25)">
    <path d="M62.6 8.9 L66.35 8.9 66.85 7.0 71.5 7.25 74.15 14.2 74.1 18.25 70.6 22.75 70.0 27.9 68.0 30.3 64.85 27.15 63.6 25.4 64.1 21.5 62.6 16.5 62.6 8.9 62.6 16.5 64.1 21.5 63.6 25.4 64.85 27.15 68.0 30.3 70.0 27.9 70.6 22.75 74.1 18.25 74.15 14.2 75.5 17.85 74.75 20.0 72.85 22.9 74.6 27.5 71.5 32.4 68.0 34.0 66.0 32.8 64.1 31.65 63.55 30.7 63.9 30.55 63.45 30.6 63.9 30.55 63.55 30.7 63.45 30.6 62.5 29.0 59.85 28.15 61.1 30.8 53.85 31.5 56.45 29.5 55.0 29.7 54.85 29.75 55.0 29.7 55.0 29.75 54.85 29.75 50.85 29.0 48.0 29.0 44.25 27.9 39.1 30.75 34.6 30.75 30.75 27.15 26.35 27.5 24.9 26.25 30.75 24.4 36.75 26.25 47.7 22.65 52.35 17.8 53.85 14.15 58.35 10.25 62.6 8.9 M64.85 27.15 L66.0 32.65 66.0 32.8 66.0 32.65 64.85 27.15 M70.25 40.95 L72.5 40.95 75.5 38.9 76.85 39.15 77.35 41.15 72.75 44.9 70.85 43.75 66.35 43.75 65.25 45.9 63.1 45.9 59.5 49.25 59.5 52.5 58.0 54.45 Q52.8 53.35 47.25 54.45 L50.45 52.1 50.75 51.95 52.1 51.25 54.0 46.75 53.35 41.4 52.75 36.5 50.9 34.55 52.45 34.85 50.95 33.65 51.45 33.2 59.35 35.1 57.2 33.5 59.55 32.45 61.25 31.7 61.25 33.75 60.35 36.4 61.1 39.0 62.6 40.65 63.1 40.65 64.75 40.65 66.85 39.15 69.1 39.9 69.9 40.95 70.25 40.95 M23.9 51.05 L24.1 50.75 24.4 51.3 23.9 51.05 M19.85 43.25 L20.85 40.15 22.35 39.5 23.75 37.15 22.35 32.35 23.6 32.3 24.15 32.85 24.15 37.0 23.5 40.5 24.15 44.0 25.0 46.25 23.35 45.0 19.85 43.25 M66.0 32.65 L68.0 30.3 66.0 32.65 M33.6 56.65 L32.35 58.5 29.0 57.75 28.35 56.65 29.85 55.35 32.35 58.5 32.75 56.35 33.6 56.65 M39.75 37.5 L36.4 41.25 36.1 46.4 32.0 46.4 30.85 46.9 31.85 43.5 31.8 43.25 32.15 40.25 31.5 36.35 29.2 32.65 29.6 32.75 29.2 32.65 28.95 32.25 29.4 32.5 29.6 32.75 33.15 37.25 34.9 36.6 34.1 33.65 32.6 32.05 36.35 33.5 39.95 33.0 38.35 34.25 36.75 34.25 36.75 36.35 39.75 37.5 M37.5 48.5 L38.5 52.85 38.15 53.7 36.85 53.85 35.0 53.8 34.75 52.8 32.85 48.3 36.0 49.9 37.5 48.5 M27.05 47.85 L27.75 48.25 30.35 47.8 28.5 50.75 28.6 52.1 26.15 52.1 26.1 52.1 26.15 52.1 26.1 52.1 26.1 50.65 27.05 47.85 M31.9 52.5 L30.75 53.2 29.5 51.65 30.95 50.25 31.3 50.6 31.9 52.5 M25.65 56.05 L25.35 56.0 23.85 55.25 26.85 55.25 25.65 56.05 M22.35 55.25 L22.15 55.35 21.95 55.25 22.35 55.25" fill="#cccc99" fill-rule="evenodd" stroke="none"/>
    <path d="M71.5 7.25 L66.85 7.0 66.35 8.9 62.6 8.9 60.0 4.4 54.25 1.1 60.0 4.4 62.6 8.9 58.35 10.25 53.85 14.15 52.35 17.8 47.7 22.65 36.75 26.25 30.75 24.4 24.9 26.25 26.35 27.5 28.5 27.75 32.6 32.05 34.1 33.65 34.9 36.6 33.15 37.25 29.6 32.75 31.2 33.1 30.25 32.05 28.45 30.0 23.45 27.0 24.45 29.5 21.5 28.6 20.85 23.65 21.35 21.0 30.85 4.25 33.35 1.9 40.85 0.0 54.25 1.1 56.0 1.25 63.1 4.5 71.5 7.25 M48.0 29.0 L50.85 29.0 54.85 29.75 49.2 30.5 43.35 32.85 40.85 34.25 42.8 33.95 44.55 33.65 43.9 33.75 39.75 37.5 36.75 36.35 36.75 34.25 38.35 34.25 39.95 33.0 44.0 29.65 48.0 29.0 M51.45 33.2 L50.95 33.65 49.95 32.85 51.45 33.2 M53.35 41.4 L54.0 46.75 52.1 51.25 50.75 51.95 50.45 52.1 50.45 52.0 50.75 51.95 50.45 52.0 43.8 52.9 42.3 50.8 41.45 47.15 41.95 47.9 42.7 48.8 44.4 50.05 46.8 50.2 Q47.85 49.95 48.9 48.8 L49.4 48.05 Q51.0 45.65 51.45 42.5 51.85 39.8 50.7 37.85 L53.35 41.4 M26.85 59.5 L27.75 58.65 29.75 58.65 26.5 62.25 25.35 61.75 26.85 59.5 M34.45 61.35 L34.85 60.9 37.35 60.15 36.35 62.0 33.4 64.25 33.1 64.15 32.35 63.25 33.15 62.8 33.35 62.65 34.45 61.35 M41.65 62.3 L42.1 61.5 44.0 61.45 41.6 65.55 40.6 65.15 41.2 63.1 41.65 62.3 M36.1 46.4 L37.5 48.5 36.0 49.9 32.85 48.3 32.0 46.4 36.1 46.4 M31.8 43.25 L31.85 43.5 30.85 46.9 30.35 47.8 27.75 48.25 27.05 47.85 25.25 46.9 25.05 43.1 Q25.25 44.25 25.75 45.2 26.65 47.1 28.0 47.1 29.3 47.1 30.25 45.2 31.2 43.35 31.1 40.8 L30.9 39.25 31.8 43.25 M23.6 32.3 L24.85 32.2 24.15 32.85 23.6 32.3 M20.1 56.95 L20.5 56.4 21.25 55.75 23.0 56.65 19.0 61.05 18.95 61.05 17.75 60.5 17.75 59.25 19.1 58.4 20.1 56.95" fill="#d9d9b7" fill-rule="evenodd" stroke="none"/>
    <path d="M26.35 27.5 L30.75 27.15 34.6 30.75 39.1 30.75 44.25 27.9 48.0 29.0 44.0 29.65 39.95 33.0 36.35 33.5 32.6 32.05 28.5 27.75 26.35 27.5 M61.1 30.8 L59.85 28.15 62.5 29.0 63.45 30.6 61.1 30.8 M63.55 30.7 L64.1 31.65 66.0 32.8 68.0 34.0 71.5 32.4 74.6 27.5 72.85 22.9 74.75 20.0 75.5 17.85 79.1 27.4 79.1 32.4 80.1 37.15 79.1 38.65 79.1 40.9 75.5 45.0 75.5 46.65 75.1 48.75 75.0 49.25 73.25 53.0 70.5 54.15 69.75 52.25 67.0 50.9 65.25 51.65 63.1 52.15 62.0 53.9 62.6 51.15 63.75 49.0 65.35 49.0 66.0 48.45 66.15 48.25 67.15 47.3 69.6 46.5 67.15 47.3 66.15 48.25 66.0 48.45 65.35 49.0 63.75 49.0 62.6 51.15 62.0 53.9 63.6 57.15 63.0 60.0 60.5 60.45 60.35 60.65 58.1 59.2 54.1 56.6 60.2 54.95 58.0 54.45 59.5 52.5 59.5 49.25 63.1 45.9 65.25 45.9 66.35 43.75 70.85 43.75 72.75 44.9 77.35 41.15 76.85 39.15 75.5 38.9 72.5 40.95 70.25 40.95 69.9 40.95 69.1 39.9 66.85 39.15 64.75 40.65 63.1 40.65 62.6 40.65 61.1 39.0 60.35 36.4 61.25 33.75 61.25 31.7 63.55 30.7 M50.9 34.55 L52.75 36.5 53.35 41.4 50.7 37.85 50.3 37.2 Q49.35 36.0 48.25 35.6 L46.4 35.5 Q44.15 36.0 42.4 37.7 40.6 39.35 40.6 42.75 40.6 45.45 41.45 47.15 L42.3 50.8 43.8 52.9 38.15 53.7 38.5 52.85 37.5 48.5 36.1 46.4 36.4 41.25 39.75 37.5 43.9 33.75 44.55 33.65 45.9 33.4 50.9 34.55 M61.85 58.9 L60.5 60.45 61.85 58.9 M66.0 32.8 L65.25 37.5 63.1 40.65 65.25 37.5 66.0 32.8 M20.0 56.05 L19.95 55.25 21.95 55.25 22.15 55.35 22.35 55.25 23.85 55.25 22.35 55.25 23.1 54.9 23.85 55.25 25.35 56.0 25.65 56.05 25.2 56.35 28.35 56.65 25.2 56.35 24.75 56.65 24.45 58.25 24.75 56.65 25.2 56.35 25.65 56.05 28.35 56.65 29.0 57.75 32.35 58.5 33.6 56.65 40.1 60.35 39.0 58.1 Q44.3 57.55 49.1 58.75 L59.75 61.3 59.1 62.0 55.5 62.4 54.25 60.65 51.6 59.5 50.45 59.75 49.35 60.0 48.75 62.4 47.35 62.4 46.5 64.2 45.2 64.2 45.5 63.25 44.5 61.4 44.0 61.45 44.5 61.4 45.5 63.25 45.2 64.2 44.85 65.15 42.5 65.9 41.6 65.55 44.0 61.45 42.1 61.5 41.65 62.3 38.8 62.45 39.1 61.75 37.35 60.15 39.1 61.75 38.8 62.45 37.5 65.15 36.5 65.15 35.65 64.4 34.75 64.75 33.4 64.25 36.35 62.0 37.35 60.15 34.85 60.9 34.45 61.35 33.1 61.35 31.3 60.4 31.5 60.0 29.75 58.65 31.5 60.0 31.3 60.4 30.0 62.9 28.35 62.9 27.85 62.25 26.5 62.25 29.75 58.65 27.75 58.65 26.85 59.5 25.35 58.9 24.45 58.25 24.35 58.75 23.25 61.5 22.25 61.5 21.45 60.6 21.0 60.9 21.0 61.9 19.0 61.05 23.0 56.65 21.25 55.75 20.5 56.4 20.1 56.95 20.0 56.05 M24.1 50.75 L23.25 47.75 19.85 43.25 23.35 45.0 25.0 46.25 24.15 44.0 23.5 40.5 24.15 37.0 24.15 32.85 24.85 32.2 26.7 32.1 29.2 32.65 31.5 36.35 32.15 40.25 31.8 43.25 30.9 39.25 30.9 39.15 30.8 38.8 Q30.5 37.5 29.85 36.5 28.75 34.75 27.7 34.5 26.65 34.25 25.75 36.1 24.8 38.0 24.8 40.7 L24.95 42.7 25.05 43.1 25.25 46.9 27.05 47.85 26.1 50.65 26.1 52.1 24.4 51.3 24.1 50.75 M31.9 52.5 L31.3 50.6 32.75 51.95 31.9 52.5 M36.6 64.0 L35.65 64.4 36.6 64.0 M24.75 56.65 L23.0 56.65 24.75 56.65 M22.6 59.75 L21.45 60.6 22.6 59.75" fill="#b0af68" fill-rule="evenodd" stroke="none"/>
    <path d="M55.0 29.7 L56.45 29.5 53.85 31.5 61.1 30.8 63.45 30.6 63.55 30.7 61.25 31.7 59.55 32.45 54.6 32.75 48.7 31.75 42.8 33.95 40.85 34.25 43.35 32.85 49.2 30.5 54.85 29.75 55.0 29.75 55.0 29.7 M50.45 52.1 L47.25 54.45 Q52.8 53.35 58.0 54.45 L60.2 54.95 54.1 56.6 58.1 59.2 48.6 56.05 51.85 55.5 41.7 56.0 44.45 54.85 34.85 55.6 29.4 53.55 28.2 54.1 20.35 50.6 23.95 53.0 16.45 51.75 3.15 51.85 0.0 51.1 10.6 51.1 13.85 51.1 4.3 48.15 1.85 46.95 Q10.15 47.35 17.5 49.6 L14.75 46.7 23.9 51.05 24.4 51.3 26.1 52.1 26.15 52.1 27.75 52.85 26.15 52.1 28.6 52.1 28.6 52.9 29.5 51.65 30.75 53.2 31.9 52.5 32.75 51.95 35.15 54.25 35.0 53.8 36.85 53.85 38.15 53.7 43.8 52.9 50.45 52.0 50.45 52.1 M29.6 76.2 L31.5 71.6 31.1 71.6 38.8 68.1 29.6 76.2 M12.85 73.6 L11.85 73.85 18.4 69.5 21.2 68.25 10.85 67.25 6.55 68.7 4.85 69.0 11.65 64.1 1.5 65.35 2.7 64.8 14.85 61.35 10.55 61.0 0.5 60.6 Q9.9 57.55 20.0 56.05 L20.1 56.95 19.1 58.4 17.75 59.25 17.75 60.5 18.95 61.05 Q17.55 61.75 16.2 62.5 L21.7 64.85 16.95 66.0 31.2 67.5 26.95 68.35 12.85 73.6 M12.15 28.95 L11.95 28.9 7.1 27.1 15.45 28.0 12.6 25.75 21.5 28.6 24.45 29.5 23.45 27.0 28.45 30.0 30.25 32.05 26.95 30.05 26.95 31.1 20.2 29.35 22.35 31.1 12.15 28.95" fill="#d9e6d5" fill-rule="evenodd" stroke="none"/>
    <path d="M59.55 32.45 L57.2 33.5 59.35 35.1 51.45 33.2 49.95 32.85 50.95 33.65 52.45 34.85 50.9 34.55 45.9 33.4 44.55 33.65 42.8 33.95 48.7 31.75 54.6 32.75 59.55 32.45 M58.1 59.2 L60.35 60.65 63.35 62.55 59.75 61.3 49.1 58.75 Q44.3 57.55 39.0 58.1 L40.1 60.35 33.6 56.65 32.75 56.35 32.35 58.5 29.85 55.35 28.35 56.65 25.65 56.05 26.85 55.25 23.85 55.25 23.1 54.9 22.35 55.25 21.95 55.25 19.95 55.25 8.6 55.6 12.65 54.0 3.15 51.85 16.45 51.75 23.95 53.0 20.35 50.6 28.2 54.1 29.4 53.55 34.85 55.6 44.45 54.85 41.7 56.0 51.85 55.5 48.6 56.05 58.1 59.2 M52.6 63.95 L57.35 68.7 51.1 66.95 59.85 74.7 48.65 72.1 51.1 75.2 38.85 71.15 38.75 71.1 29.6 76.2 38.8 68.1 31.1 71.6 Q22.0 71.5 12.85 73.6 L26.95 68.35 31.2 67.5 16.95 66.0 21.7 64.85 16.2 62.5 Q17.55 61.75 18.95 61.05 L19.0 61.05 21.0 61.9 21.0 60.9 21.45 60.6 22.25 61.5 23.25 61.5 24.35 58.75 24.45 58.25 25.35 58.9 26.85 59.5 25.35 61.75 26.5 62.25 27.85 62.25 28.35 62.9 30.0 62.9 31.3 60.4 33.1 61.35 34.45 61.35 33.35 62.65 33.15 62.8 32.35 63.25 33.1 64.15 33.4 64.25 34.75 64.75 35.65 64.4 36.5 65.15 37.5 65.15 38.8 62.45 41.65 62.3 41.2 63.1 40.6 65.15 41.6 65.55 42.5 65.9 44.85 65.15 45.2 64.2 46.5 64.2 47.35 62.4 48.75 62.4 49.35 60.0 50.45 59.75 51.0 62.35 52.6 63.95 M18.4 69.5 Q13.75 67.5 6.55 68.7 L10.85 67.25 21.2 68.25 18.4 69.5 M2.7 64.8 L10.55 61.0 14.85 61.35 2.7 64.8 M10.6 51.1 L4.3 48.15 13.85 51.1 10.6 51.1 M22.35 32.35 L14.6 32.75 19.1 31.5 12.15 28.95 22.35 31.1 20.2 29.35 26.95 31.1 26.95 30.05 30.25 32.05 31.2 33.1 29.6 32.75 29.4 32.5 28.95 32.25 29.2 32.65 26.7 32.1 24.85 32.2 23.6 32.3 22.35 32.35 M48.25 71.6 L48.65 72.1 48.25 71.6" fill="#b9d1b1" fill-rule="evenodd" stroke="none"/>
    <path d="M60.35 60.65 L60.5 60.45 63.0 60.0 63.6 57.15 62.0 53.9 63.1 52.15 65.25 51.65 67.0 50.9 69.75 52.25 70.5 54.15 73.25 53.0 75.0 49.25 75.1 48.75 Q81.25 49.4 85.7 50.8 91.05 52.5 91.5 54.25 90.15 55.6 82.5 56.6 L70.5 58.0 69.75 58.25 71.45 59.25 73.25 60.0 Q72.7 61.3 65.45 62.3 L63.35 62.55 56.0 63.0 55.75 63.0 56.5 63.5 56.5 63.55 52.6 63.95 51.0 62.35 50.45 59.75 51.6 59.5 54.25 60.65 55.5 62.4 59.1 62.0 59.75 61.3 63.35 62.55 60.35 60.65" fill="#000000" fill-opacity="0.2901961" fill-rule="evenodd" stroke="none"/>
    <path d="M41.45 47.15 Q40.6 45.45 40.6 42.75 40.6 39.35 42.4 37.7 44.15 36.0 46.4 35.5 L48.25 35.6 Q49.35 36.0 50.3 37.2 L50.7 37.85 Q51.85 39.8 51.45 42.5 51.0 45.65 49.4 48.05 L48.9 48.8 Q47.85 49.95 46.8 50.2 L44.4 50.05 42.7 48.8 41.95 47.9 41.45 47.15 M30.85 46.9 L32.0 46.4 32.85 48.3 34.75 52.8 35.0 53.8 35.15 54.25 32.75 51.95 31.3 50.6 30.95 50.25 29.5 51.65 28.6 52.9 28.6 52.1 28.5 50.75 30.35 47.8 30.85 46.9 M24.95 42.7 L24.8 40.7 Q24.8 38.0 25.75 36.1 26.65 34.25 27.7 34.5 28.75 34.75 29.85 36.5 30.5 37.5 30.8 38.8 L30.9 39.15 30.9 39.25 31.1 40.8 Q31.2 43.35 30.25 45.2 29.3 47.1 28.0 47.1 26.65 47.1 25.75 45.2 25.25 44.25 25.05 43.1 L24.95 42.7" fill="#666633" fill-rule="evenodd" stroke="none"/>
    <path d="M62.6 8.9 L62.6 16.5 64.1 21.5 63.6 25.4 64.85 27.15 68.0 30.3 70.0 27.9 70.6 22.75 74.1 18.25 74.15 14.2 71.5 7.25 63.1 4.5 56.0 1.25 54.25 1.1 60.0 4.4 62.6 8.9 M54.85 29.75 L55.0 29.7 56.45 29.5 53.85 31.5 61.1 30.8 59.85 28.15 M63.45 30.6 L63.9 30.55 63.55 30.7 61.25 31.7 59.55 32.45 57.2 33.5 59.35 35.1 51.45 33.2 49.95 32.85 50.95 33.65 52.45 34.85 50.9 34.55 45.9 33.4 44.55 33.65 42.8 33.95 40.85 34.25 43.35 32.85 49.2 30.5 54.85 29.75 M66.0 32.8 L66.0 32.65 64.85 27.15 M75.5 17.85 L74.15 14.2 M75.1 48.75 L75.5 46.65 75.5 45.0 79.1 40.9 79.1 38.65 80.1 37.15 79.1 32.4 79.1 27.4 75.5 17.85 M70.25 40.95 L69.9 40.95 69.1 39.9 66.85 39.15 64.75 40.65 63.1 40.65 62.6 40.65 61.1 39.0 60.35 36.4 61.25 33.75 61.25 31.7 M50.75 51.95 L50.45 52.1 47.25 54.45 Q52.8 53.35 58.0 54.45 L60.2 54.95 54.1 56.6 58.1 59.2 60.35 60.65 60.5 60.45 61.85 58.9 M63.1 40.65 L65.25 37.5 66.0 32.8 M61.1 30.8 L63.45 30.6 M62.0 53.9 L62.6 51.15 63.75 49.0 65.35 49.0 66.0 48.45 66.15 48.25 67.15 47.3 69.6 46.5 M62.0 53.9 L63.1 52.15 65.25 51.65 67.0 50.9 69.75 52.25 70.5 54.15 73.25 53.0 75.0 49.25 75.1 48.75 M52.6 63.95 L57.35 68.7 51.1 66.95 59.85 74.7 48.65 72.1 51.1 75.2 38.85 71.15 38.75 71.1 29.6 76.2 31.5 71.6 31.1 71.6 Q22.0 71.5 12.85 73.6 L11.85 73.85 18.4 69.5 Q13.75 67.5 6.55 68.7 L4.85 69.0 11.65 64.1 1.5 65.35 2.7 64.8 10.55 61.0 0.5 60.6 Q9.9 57.55 20.0 56.05 L19.95 55.25 8.6 55.6 12.65 54.0 3.15 51.85 0.0 51.1 10.6 51.1 4.3 48.15 1.85 46.95 Q10.15 47.35 17.5 49.6 L14.75 46.7 23.9 51.05 24.1 50.75 23.25 47.75 19.85 43.25 20.85 40.15 22.35 39.5 23.75 37.15 22.35 32.35 14.6 32.75 19.1 31.5 12.15 28.95 M11.95 28.9 L7.1 27.1 15.45 28.0 12.6 25.75 21.5 28.6 20.85 23.65 21.35 21.0 30.85 4.25 33.35 1.9 40.85 0.0 54.25 1.1 M68.0 30.3 L66.0 32.65 M60.5 60.45 L63.0 60.0 63.6 57.15 62.0 53.9 M50.45 59.75 L51.6 59.5 54.25 60.65 55.5 62.4 59.1 62.0 59.75 61.3 49.1 58.75 Q44.3 57.55 39.0 58.1 L40.1 60.35 33.6 56.65 32.75 56.35 32.35 58.5 29.85 55.35 28.35 56.65 25.2 56.35 24.75 56.65 24.45 58.25 25.35 58.9 26.85 59.5 27.75 58.65 29.75 58.65 31.5 60.0 31.3 60.4 33.1 61.35 34.45 61.35 34.85 60.9 37.35 60.15 39.1 61.75 38.8 62.45 41.65 62.3 42.1 61.5 44.0 61.45 44.5 61.4 45.5 63.25 45.2 64.2 46.5 64.2 47.35 62.4 48.75 62.4 49.35 60.0 50.45 59.75 51.0 62.35 52.6 63.95 M59.75 61.3 L63.35 62.55 60.35 60.65 M32.6 32.05 L28.5 27.75 26.35 27.5 M41.45 47.15 Q40.6 45.45 40.6 42.75 40.6 39.35 42.4 37.7 44.15 36.0 46.4 35.5 L48.25 35.6 Q49.35 36.0 50.3 37.2 L50.7 37.85 Q51.85 39.8 51.45 42.5 51.0 45.65 49.4 48.05 L48.9 48.8 Q47.85 49.95 46.8 50.2 L44.4 50.05 42.7 48.8 41.95 47.9 41.45 47.15 M38.15 53.7 L43.8 52.9 50.45 52.0 50.75 51.95 M38.35 34.25 L39.95 33.0 36.35 33.5 32.6 32.05 34.1 33.65 M29.6 32.75 L29.2 32.65 26.7 32.1 24.85 32.2 23.6 32.3 22.35 32.35 M30.85 46.9 L32.0 46.4 32.85 48.3 34.75 52.8 35.0 53.8 36.85 53.85 38.15 53.7 M39.95 33.0 L44.0 29.65 48.0 29.0 M29.6 32.75 L31.2 33.1 30.25 32.05 28.45 30.0 23.45 27.0 24.45 29.5 21.5 28.6 M24.95 42.7 L24.8 40.7 Q24.8 38.0 25.75 36.1 26.65 34.25 27.7 34.5 28.75 34.75 29.85 36.5 30.5 37.5 30.8 38.8 M30.9 39.15 L30.9 39.25 31.1 40.8 Q31.2 43.35 30.25 45.2 29.3 47.1 28.0 47.1 26.65 47.1 25.75 45.2 25.25 44.25 25.05 43.1 M30.35 47.8 L30.85 46.9 M24.4 51.3 L26.1 52.1 26.15 52.1 26.1 52.1 M24.4 51.3 L23.9 51.05 M27.75 52.85 L26.15 52.1 28.6 52.1 28.5 50.75 30.35 47.8 M29.5 51.65 L28.6 52.9 28.6 52.1 M29.5 51.65 L30.75 53.2 31.9 52.5 32.75 51.95 35.15 54.25 35.0 53.8 M31.3 50.6 L30.95 50.25 29.5 51.65 M32.75 51.95 L31.3 50.6 M31.3 60.4 L30.0 62.9 28.35 62.9 27.85 62.25 26.5 62.25 25.35 61.75 26.85 59.5 M34.45 61.35 L33.35 62.65 33.15 62.8 32.35 63.25 33.1 64.15 33.4 64.25 34.75 64.75 35.65 64.4 36.6 64.0 M23.85 55.25 L22.35 55.25 21.95 55.25 19.95 55.25 M25.65 56.05 L25.2 56.35 M20.1 56.95 L20.5 56.4 21.25 55.75 23.0 56.65 24.75 56.65 M23.85 55.25 L26.85 55.25 25.65 56.05 M24.45 58.25 L24.35 58.75 23.25 61.5 22.25 61.5 21.45 60.6 21.0 60.9 21.0 61.9 19.0 61.05 18.95 61.05 17.75 60.5 17.75 59.25 19.1 58.4 20.1 56.95 20.0 56.05 M21.45 60.6 L22.6 59.75 M35.65 64.4 L36.5 65.15 37.5 65.15 38.8 62.45 M41.65 62.3 L41.2 63.1 40.6 65.15 41.6 65.55 42.5 65.9 44.85 65.15 45.2 64.2 M48.65 72.1 L48.25 71.6" fill="none" stroke="#000000" stroke-linecap="round" stroke-linejoin="round" stroke-opacity="0.4" stroke-width="0.5"/>
    <path d="M30.8 38.8 L30.9 39.15" fill="none" stroke="#ff3399" stroke-linecap="round" stroke-linejoin="round" stroke-width="0.05"/>
  </g>
</svg>
