<?xml version="1.0" encoding="UTF-8" standalone="no"?>
<svg xmlns:xlink="http://www.w3.org/1999/xlink" height="78.25px" width="148.25px" xmlns="http://www.w3.org/2000/svg">
  <g transform="matrix(1.0, 0.0, 0.0, 1.0, -209.35, -167.35)">
    <path d="M307.35 197.3 L304.65 197.25" fill="none" stroke="#d8e2e2" stroke-linecap="round" stroke-linejoin="round" stroke-width="0.05"/>
    <path d="M307.35 197.3 L305.95 196.0 299.4 197.35 293.8 195.55 284.75 195.55 283.7 196.6 240.4 190.25 238.25 188.6 238.25 186.25 241.9 178.55 239.5 170.5 230.55 167.35 219.0 167.35 213.05 170.7 209.35 176.4 210.35 183.95 213.8 189.95 222.15 193.7 234.1 193.7 280.25 200.15 278.9 201.55 283.15 203.5 279.25 207.4 267.0 210.65 227.3 217.85 218.8 219.9 212.85 225.85 211.75 234.35 215.75 241.8 225.4 245.6 233.45 244.3 239.95 239.4 241.15 231.6 239.85 225.0 239.85 222.2 241.95 219.05 297.3 209.0 356.2 215.0 357.6 212.8 320.15 202.85 341.65 196.65 341.65 194.3 343.6 195.35 356.7 191.25 354.85 189.2 307.35 197.3 M220.75 169.45 L228.7 169.45 234.85 173.0 236.8 178.75 234.5 185.7 231.3 189.6 219.55 189.6 216.95 187.35 213.7 182.7 213.7 177.55 215.1 172.6 220.75 169.45 M229.75 220.55 L233.9 222.2 237.25 226.75 238.45 235.4 234.85 240.05 228.9 242.55 222.75 241.6 218.15 239.4 215.35 234.35 215.35 229.85 217.5 225.1 222.7 221.95 228.8 220.45 229.75 220.55 Z" fill="none" stroke="#4d656a" stroke-linecap="round" stroke-linejoin="round" stroke-width="0.05"/>
    <path d="M307.35 197.3 L354.85 189.2 356.7 191.25 315.5 197.85 310.25 205.7 307.35 197.3" fill="url(#gradient0)" fill-rule="evenodd" stroke="none"/>
    <path d="M356.7 191.25 L343.6 195.35 341.65 194.3 341.65 196.65 320.15 202.85 310.25 205.7 315.5 197.85 356.7 191.25 M339.55 195.5 L316.45 199.3 339.55 195.5" fill="url(#gradient1)" fill-rule="evenodd" stroke="none"/>
    <path d="M320.15 202.85 L357.6 212.8 356.2 215.0 297.3 209.0 300.95 208.3 310.25 205.7 320.15 202.85 M355.95 213.25 L320.25 204.4 355.95 213.25" fill="url(#gradient2)" fill-rule="evenodd" stroke="none"/>
    <path d="M291.55 210.05 L241.95 219.05 239.85 222.2 239.85 225.0 240.4 227.85 Q238.5 225.5 237.25 222.75 L237.15 222.6 237.15 221.2 Q240.55 216.85 246.3 216.35 L246.8 216.2 Q256.55 214.9 266.2 212.55 278.25 209.35 290.4 209.6 291.1 209.6 291.55 210.05 M227.3 167.35 L230.55 167.35 239.5 170.5 241.9 178.55 238.25 186.25 238.25 188.3 238.0 188.35 237.0 187.95 Q236.95 185.75 237.85 183.7 240.4 177.9 236.95 172.5 235.75 170.6 233.85 169.7 L233.1 168.95 230.9 168.35 227.3 167.35" fill="#d8e2e2" fill-rule="evenodd" stroke="none"/>
    <path d="M280.25 200.15 L234.1 193.7 222.15 193.7 213.8 189.95 210.35 183.95 209.35 176.4 213.05 170.7 219.0 167.35 227.3 167.35 230.9 168.35 233.1 168.95 233.85 169.7 Q235.75 170.6 236.95 172.5 240.4 177.9 237.85 183.7 236.95 185.75 237.0 187.95 L238.0 188.35 238.25 188.3 238.25 188.6 240.4 190.25 283.7 196.6 280.25 200.15 M234.85 173.0 L228.7 169.45 220.75 169.45 215.1 172.6 213.7 177.55 213.7 182.7 216.95 187.35 219.55 189.6 231.3 189.6 234.5 185.7 236.8 178.75 234.85 173.0" fill="url(#gradient3)" fill-rule="evenodd" stroke="none"/>
    <path d="M297.3 209.0 L291.55 210.05 Q291.1 209.6 290.4 209.6 278.25 209.35 266.2 212.55 256.55 214.9 246.8 216.2 L246.3 216.35 Q240.55 216.85 237.15 221.2 L237.15 222.6 237.25 222.75 Q238.5 225.5 240.4 227.85 L241.15 231.6 239.95 239.4 233.45 244.3 225.4 245.6 215.75 241.8 211.75 234.35 212.85 225.85 218.8 219.9 227.3 217.85 267.0 210.65 279.25 207.4 283.15 203.5 286.1 200.15 299.4 197.35 305.95 196.0 307.35 197.3 304.65 197.25 286.85 200.95 281.25 208.05 286.85 200.95 304.65 197.25 307.35 197.3 310.25 205.7 300.95 208.3 297.3 209.0 M301.25 202.65 L300.75 201.9 300.6 201.7 Q299.75 200.85 298.6 200.9 297.4 200.85 296.6 201.7 295.75 202.55 295.75 203.7 L295.85 204.45 Q296.0 205.15 296.6 205.7 297.4 206.55 298.6 206.55 299.75 206.55 300.6 205.7 301.4 204.85 301.4 203.7 L301.4 203.5 301.25 202.65 M229.75 220.55 L228.8 220.45 222.7 221.95 217.5 225.1 215.35 229.85 215.35 234.35 218.15 239.4 222.75 241.6 228.9 242.55 234.85 240.05 238.45 235.4 237.25 226.75 233.9 222.2 229.75 220.55" fill="url(#gradient4)" fill-rule="evenodd" stroke="none"/>
    <path d="M283.15 203.5 L278.9 201.55 280.25 200.15 283.7 196.6 284.75 195.55 293.8 195.55 299.4 197.35 286.1 200.15 283.15 203.5" fill="url(#gradient5)" fill-rule="evenodd" stroke="none"/>
    <path d="M301.25 202.65 L301.4 203.5 301.4 203.7 Q301.4 204.85 300.6 205.7 299.75 206.55 298.6 206.55 297.4 206.55 296.6 205.7 296.0 205.15 295.85 204.45 L295.75 203.7 Q295.75 202.55 296.6 201.7 297.4 200.85 298.6 200.9 299.75 200.85 300.6 201.7 L300.75 201.9 301.25 202.65 295.85 204.45 301.25 202.65 M300.75 201.9 L296.75 203.55 300.75 201.9 M301.4 203.5 L297.45 204.5 301.4 203.5" fill="#859d9f" fill-rule="evenodd" stroke="none"/>
    <path d="M356.7 191.25 L343.6 195.35 341.65 194.3 341.65 196.65 320.15 202.85 357.6 212.8 356.2 215.0 297.3 209.0 291.55 210.05 241.95 219.05 239.85 222.2 239.85 225.0 240.4 227.85 241.15 231.6 239.95 239.4 233.45 244.3 225.4 245.6 215.75 241.8 211.75 234.35 212.85 225.85 218.8 219.9 227.3 217.85 267.0 210.65 279.25 207.4 283.15 203.5 278.9 201.55 280.25 200.15 234.1 193.7 222.15 193.7 213.8 189.95 210.35 183.95 209.35 176.4 213.05 170.7 219.0 167.35 227.3 167.35 230.55 167.35 239.5 170.5 241.9 178.55 238.25 186.25 238.25 188.3 238.25 188.6 240.4 190.25 283.7 196.6 284.75 195.55 293.8 195.55 299.4 197.35 305.95 196.0 307.35 197.3 354.85 189.2 356.7 191.25 315.5 197.85 310.25 205.7 320.15 202.85 M234.85 173.0 L236.8 178.75 234.5 185.7 231.3 189.6 219.55 189.6 216.95 187.35 213.7 182.7 213.7 177.55 215.1 172.6 220.75 169.45 228.7 169.45 234.85 173.0 M307.35 197.3 L310.25 205.7 300.95 208.3 297.3 209.0 M301.25 202.65 L301.4 203.5 301.4 203.7 Q301.4 204.85 300.6 205.7 299.75 206.55 298.6 206.55 297.4 206.55 296.6 205.7 296.0 205.15 295.85 204.45 L295.75 203.7 Q295.75 202.55 296.6 201.7 297.4 200.85 298.6 200.9 299.75 200.85 300.6 201.7 L300.75 201.9 301.25 202.65 295.85 204.45 M299.4 197.35 L286.1 200.15 283.15 203.5 M229.75 220.55 L233.9 222.2 237.25 226.75 238.45 235.4 234.85 240.05 228.9 242.55 222.75 241.6 218.15 239.4 215.35 234.35 215.35 229.85 217.5 225.1 222.7 221.95 228.8 220.45 229.75 220.55 M280.25 200.15 L283.7 196.6" fill="none" stroke="#000000" stroke-linecap="round" stroke-linejoin="round" stroke-opacity="0.3019608" stroke-width="0.05"/>
    <path d="M281.25 208.05 L286.85 200.95 304.65 197.25 307.35 197.3 M297.45 204.5 L301.4 203.5 M320.25 204.4 L355.95 213.25 M316.45 199.3 L339.55 195.5" fill="none" stroke="#d8e2e2" stroke-linecap="round" stroke-linejoin="round" stroke-width="0.05"/>
    <path d="M296.75 203.55 L300.75 201.9" fill="none" stroke="#4f676c" stroke-linecap="round" stroke-linejoin="round" stroke-width="0.05"/>
  </g>
  <defs>
    <radialGradient cx="0" cy="0" gradientTransform="matrix(0.0556, 0.0, 0.0, 0.0556, 352.45, 191.1)" gradientUnits="userSpaceOnUse" id="gradient0" r="819.2" spreadMethod="pad">
      <stop offset="0.0" stop-color="#9fb7b9"/>
      <stop offset="1.0" stop-color="#496166"/>
    </radialGradient>
    <radialGradient cx="0" cy="0" gradientTransform="matrix(0.0516, 0.0, 0.0, 0.0516, 316.35, 203.95)" gradientUnits="userSpaceOnUse" id="gradient1" r="819.2" spreadMethod="pad">
      <stop offset="0.0" stop-color="#9fb7b9"/>
      <stop offset="1.0" stop-color="#496166"/>
    </radialGradient>
    <radialGradient cx="0" cy="0" gradientTransform="matrix(0.0695, 0.0, 0.0, 0.0695, 354.0, 213.25)" gradientUnits="userSpaceOnUse" id="gradient2" r="819.2" spreadMethod="pad">
      <stop offset="0.0" stop-color="#9fb7b9"/>
      <stop offset="1.0" stop-color="#496166"/>
    </radialGradient>
    <radialGradient cx="0" cy="0" gradientTransform="matrix(0.0884, 0.0, 0.0, 0.0884, 278.3, 198.55)" gradientUnits="userSpaceOnUse" id="gradient3" r="819.2" spreadMethod="pad">
      <stop offset="0.0" stop-color="#9fb7b9"/>
      <stop offset="1.0" stop-color="#496166"/>
    </radialGradient>
    <radialGradient cx="0" cy="0" gradientTransform="matrix(0.1211, 0.0, 0.0, 0.1211, 304.75, 199.9)" gradientUnits="userSpaceOnUse" id="gradient4" r="819.2" spreadMethod="pad">
      <stop offset="0.0" stop-color="#9fb7b9"/>
      <stop offset="1.0" stop-color="#496166"/>
    </radialGradient>
    <radialGradient cx="0" cy="0" gradientTransform="matrix(0.0213, 0.0, 0.0, 0.0213, 282.45, 201.65)" gradientUnits="userSpaceOnUse" id="gradient5" r="819.2" spreadMethod="pad">
      <stop offset="0.0" stop-color="#9fb7b9"/>
      <stop offset="1.0" stop-color="#496166"/>
    </radialGradient>
  </defs>
</svg>
