<?xml version="1.0" encoding="UTF-8" standalone="no"?>
<svg xmlns:xlink="http://www.w3.org/1999/xlink" height="67.15px" width="148.95px" xmlns="http://www.w3.org/2000/svg">
  <g transform="matrix(1.0, 0.0, 0.0, 1.0, 75.4, 72.05)">
    <path d="M-58.95 -17.65 Q-63.15 -22.65 -66.55 -30.25 -70.0 -37.85 -71.45 -37.0 -72.85 -36.15 -74.9 -38.35 -46.3 -55.85 -14.65 -65.7 -3.25 -69.3 9.0 -70.3 L11.0 -62.3 14.25 -70.65 19.25 -70.75 32.9 -71.45 Q43.75 -72.05 55.55 -68.65 67.3 -65.25 73.05 -64.85 67.05 -48.35 56.9 -37.05 54.6 -41.05 50.9 -44.15 47.65 -46.9 43.0 -47.4 L35.05 -48.6 Q15.5 -52.45 -3.9 -47.95 -8.45 -46.9 -12.85 -45.0 -21.7 -41.2 -30.2 -36.7 -45.65 -28.6 -58.95 -17.65" fill="#5c3700" fill-rule="evenodd" stroke="none"/>
    <path d="M56.9 -37.05 L52.15 -32.95 51.4 -32.4 47.55 -34.4 Q29.95 -42.85 10.0 -40.35 -7.15 -38.2 -21.75 -28.9 -29.0 -24.3 -35.0 -18.3 L-42.7 -10.25 Q-46.55 -11.9 -50.15 -14.0 -51.5 -14.8 -53.05 -15.1 -56.45 -15.8 -58.95 -17.65 -45.65 -28.6 -30.2 -36.7 -21.7 -41.2 -12.85 -45.0 -8.45 -46.9 -3.9 -47.95 15.5 -52.45 35.05 -48.6 L43.0 -47.4 Q47.65 -46.9 50.9 -44.15 54.6 -41.05 56.9 -37.05" fill="#4b2e01" fill-rule="evenodd" stroke="none"/>
    <path d="M51.4 -32.4 Q44.5 -27.1 36.3 -23.65 32.0 -21.8 28.0 -19.3 13.05 -10.05 -3.15 -6.0 -6.0 -5.3 -9.0 -5.1 -22.3 -4.1 -34.9 -7.6 -38.9 -8.7 -42.7 -10.25 L-35.0 -18.3 Q-29.0 -24.3 -21.75 -28.9 -7.15 -38.2 10.0 -40.35 29.95 -42.85 47.55 -34.4 L51.4 -32.4" fill="#291801" fill-rule="evenodd" stroke="none"/>
    <path d="M-58.95 -17.65 Q-63.15 -22.65 -66.55 -30.25 -70.0 -37.85 -71.45 -37.0 -72.85 -36.15 -74.9 -38.35 -46.3 -55.85 -14.65 -65.7 -3.25 -69.3 9.0 -70.3 L11.0 -62.3 14.25 -70.65 19.25 -70.75 32.9 -71.45 Q43.75 -72.05 55.55 -68.65 67.3 -65.25 73.05 -64.85 67.05 -48.35 56.9 -37.05" fill="none" stroke="#000000" stroke-linecap="round" stroke-linejoin="round" stroke-opacity="0.4" stroke-width="1.0"/>
  </g>
</svg>
