<?xml version="1.0" encoding="UTF-8" standalone="no"?>
<svg xmlns:xlink="http://www.w3.org/1999/xlink" height="62.8px" width="74.0px" xmlns="http://www.w3.org/2000/svg">
  <g transform="matrix(1.0, 0.0, 0.0, 1.0, 0.25, 0.25)">
    <path d="M53.75 3.65 L56.4 10.6 56.35 14.65 52.85 19.15 52.25 24.3 50.25 26.7 47.1 23.55 45.85 21.8 46.35 17.9 44.85 12.9 46.15 7.9 44.85 12.9 46.35 17.9 45.85 21.8 47.1 23.55 50.25 26.7 52.25 24.3 52.85 19.15 56.35 14.65 56.4 10.6 57.75 14.25 57.0 16.4 55.1 19.3 56.85 23.9 53.75 28.8 50.25 30.4 48.25 29.2 46.35 28.05 44.75 25.4 42.1 24.55 43.5 27.55 43.5 30.15 42.6 32.8 43.35 35.4 44.85 37.05 45.35 37.05 47.0 37.05 49.1 35.55 51.35 36.3 52.15 37.35 52.5 37.35 54.75 37.35 57.75 35.3 59.1 35.55 59.6 37.55 55.0 41.3 53.1 40.15 48.6 40.15 47.5 42.3 45.35 42.3 41.75 45.65 41.75 48.9 40.0 51.15 36.6 52.05 33.5 51.4 30.25 52.55 27.4 51.75 26.15 49.8 26.6 50.05 29.6 50.05 32.95 48.4 33.55 49.4 36.05 50.65 Q37.5 50.3 38.65 48.75 L38.65 46.65 37.55 45.0 36.05 45.4 35.3 45.4 36.25 43.15 35.6 37.8 35.0 32.9 32.75 30.5 37.25 26.15 33.1 25.4 30.25 25.4 26.5 24.3 21.35 27.15 16.85 27.15 13.0 23.55 8.6 23.9 7.15 22.65 13.0 20.8 19.0 22.65 29.95 19.05 34.6 14.2 34.9 13.5 35.65 13.3 36.95 12.95 37.55 12.75 41.15 11.65 46.15 7.9 46.9 5.3 48.6 5.3 49.1 3.4 53.75 3.65 M2.5 50.75 L4.6 49.8 6.35 47.15 8.35 50.55 8.35 47.05 9.3 44.25 10.0 44.65 12.6 44.2 10.75 47.15 10.85 49.3 11.75 48.05 13.2 46.65 13.55 47.0 14.25 49.3 16.45 52.15 14.6 54.9 11.25 54.15 10.6 53.05 7.6 52.4 5.35 51.3 4.4 51.75 2.5 50.75 M2.1 39.65 L3.1 36.55 4.6 35.9 6.0 33.55 4.0 26.8 6.4 29.25 6.4 33.4 5.75 36.9 6.4 40.4 7.25 42.65 5.6 41.4 2.1 39.65 M42.55 6.05 L44.85 5.3 46.0 5.3 44.9 7.65 42.35 8.45 42.9 6.65 42.55 6.05 M42.0 6.25 L41.9 7.15 39.05 9.4 37.65 10.0 37.55 10.05 37.35 9.5 40.6 6.65 42.0 6.25 M50.25 26.7 L48.25 29.05 48.25 29.2 48.25 29.05 47.1 23.55 48.25 29.05 50.25 26.7 M11.2 28.65 L11.65 28.9 15.4 33.65 17.15 33.0 16.35 30.05 14.85 28.45 18.6 29.9 22.2 29.4 20.6 30.65 19.0 30.65 19.0 32.75 22.0 33.9 18.65 37.65 18.35 42.8 14.25 42.8 13.1 43.3 14.1 39.9 14.05 39.65 14.4 36.65 13.75 32.75 11.2 28.65 M19.75 44.9 L20.75 49.25 19.75 51.4 17.25 50.2 17.0 49.2 15.1 44.7 18.25 46.3 19.75 44.9" fill="#cccc99" fill-rule="evenodd" stroke="none"/>
    <path d="M53.75 3.65 L49.1 3.4 48.6 5.3 46.9 5.3 46.5 4.15 46.9 5.3 46.0 5.3 44.85 5.3 42.55 6.05 42.05 5.25 42.55 6.05 42.0 6.25 40.6 6.65 37.35 9.5 36.65 8.0 35.5 7.2 38.75 4.9 38.75 2.9 41.15 0.2 41.2 0.2 43.35 0.0 45.35 0.9 53.75 3.65 M23.85 61.95 L22.85 61.55 23.35 59.9 23.45 59.5 23.9 58.7 24.35 57.9 26.25 57.85 23.85 61.95 M15.65 60.65 L15.35 60.55 14.6 59.65 15.4 59.2 15.6 59.05 16.7 57.75 17.1 57.3 19.6 56.55 18.6 58.4 15.65 60.65 M8.75 58.65 L7.6 58.15 8.15 57.4 9.1 55.9 10.0 55.05 12.0 55.05 8.75 58.65 M1.25 57.45 L0.0 56.9 0.0 55.65 1.35 54.8 2.35 53.35 2.75 52.8 3.5 52.15 5.25 53.05 1.25 57.45 M4.0 26.8 L3.1 20.05 3.6 17.4 5.15 14.7 11.0 11.15 22.9 11.15 26.4 11.65 30.15 10.35 33.4 10.5 34.7 11.25 31.65 12.5 22.05 12.5 17.95 14.45 22.75 13.75 32.65 14.15 34.9 13.5 34.6 14.2 29.95 19.05 19.0 22.65 13.0 20.8 7.15 22.65 8.6 23.9 10.75 24.15 14.85 28.45 16.35 30.05 17.15 33.0 15.4 33.65 11.65 28.9 11.2 28.65 8.65 27.15 6.4 29.25 4.0 26.8 M12.25 17.0 L14.75 14.9 17.95 14.45 14.75 14.9 12.25 17.0 M30.25 25.4 L33.1 25.4 37.25 26.15 32.75 30.5 30.3 29.35 26.15 30.15 22.0 33.9 19.0 32.75 19.0 30.65 20.6 30.65 22.2 29.4 26.25 26.05 30.25 25.4 M35.6 37.8 L36.25 43.15 35.3 45.4 33.8 45.4 33.05 44.25 33.05 41.65 33.7 38.9 Q34.1 36.2 32.95 34.25 L35.6 37.8 M32.95 48.4 L29.6 50.05 26.6 50.05 24.55 47.2 23.7 43.55 24.2 44.3 24.6 44.8 24.95 45.2 26.65 46.45 29.05 46.6 30.3 46.0 31.9 46.75 32.95 48.4 M13.15 35.65 L14.05 39.65 14.1 39.9 13.1 43.3 12.6 44.2 10.0 44.65 9.3 44.25 7.5 43.3 7.3 39.5 Q7.5 40.65 8.0 41.6 8.9 43.5 10.25 43.5 11.55 43.5 12.5 41.6 13.45 39.75 13.35 37.2 L13.15 35.65 M14.25 42.8 L18.35 42.8 19.75 44.9 18.25 46.3 15.1 44.7 14.25 42.8" fill="#d9d9b7" fill-rule="evenodd" stroke="none"/>
    <path d="M46.9 5.3 L46.15 7.9 41.15 11.65 37.55 12.75 42.15 9.0 42.35 8.45 42.15 9.0 37.55 12.75 36.95 12.95 37.0 12.65 36.75 10.35 35.9 8.75 34.75 7.75 35.5 7.2 36.65 8.0 37.35 9.5 37.55 10.05 37.65 10.0 39.05 9.4 41.9 7.15 42.0 6.25 42.55 6.05 42.9 6.65 42.35 8.45 44.9 7.65 46.0 5.3 46.9 5.3 M57.75 14.25 L61.35 23.8 61.35 28.8 62.35 33.55 61.35 35.05 61.35 37.3 57.75 41.4 57.75 43.05 57.35 45.15 57.25 45.65 55.5 49.4 52.75 50.55 52.0 48.65 49.25 47.3 47.5 48.05 45.35 48.55 44.25 50.3 44.85 47.55 46.0 45.4 47.6 45.4 48.25 44.8 48.4 44.65 49.4 43.7 51.85 42.9 49.4 43.7 48.4 44.65 48.25 44.8 47.6 45.4 46.0 45.4 44.85 47.55 44.25 50.3 45.85 53.55 45.25 56.4 42.75 56.85 41.35 58.4 37.75 58.8 36.5 57.05 33.85 55.9 31.6 56.4 31.0 58.8 29.6 58.8 28.9 60.3 28.75 60.6 27.45 60.6 27.1 61.55 24.75 62.3 23.85 61.95 26.25 57.85 24.35 57.9 23.9 58.7 21.05 58.85 20.7 59.65 19.75 61.55 18.75 61.55 17.9 60.8 17.0 61.15 15.65 60.65 18.6 58.4 19.6 56.55 21.35 58.15 21.05 58.85 21.35 58.15 19.6 56.55 17.1 57.3 16.7 57.75 15.35 57.75 13.55 56.8 12.6 58.65 12.25 59.3 10.6 59.3 10.1 58.65 8.75 58.65 12.0 55.05 13.75 56.4 13.55 56.8 13.75 56.4 12.0 55.05 10.0 55.05 9.1 55.9 7.6 55.3 6.7 54.65 6.6 55.15 5.95 56.75 5.5 57.9 4.5 57.9 3.7 57.0 3.25 57.3 3.25 58.3 1.25 57.45 5.25 53.05 7.0 53.05 6.7 54.65 7.0 53.05 5.25 53.05 3.5 52.15 2.75 52.8 2.35 53.35 2.1 50.9 2.5 50.75 4.4 51.75 5.35 51.3 7.6 52.4 10.6 53.05 11.25 54.15 14.6 54.9 16.45 52.15 14.25 49.3 13.55 47.0 17.4 50.65 17.25 50.2 19.75 51.4 20.75 49.25 19.75 44.9 18.35 42.8 18.65 37.65 22.0 33.9 26.15 30.15 30.3 29.35 32.75 30.5 35.0 32.9 35.6 37.8 32.95 34.25 32.55 33.6 Q31.6 32.4 30.5 32.0 L28.65 31.9 Q26.4 32.4 24.65 34.1 22.85 35.75 22.85 39.15 22.85 41.85 23.7 43.55 L24.55 47.2 26.6 50.05 26.15 49.8 27.4 51.75 30.25 52.55 33.5 51.4 36.6 52.05 40.0 51.15 41.75 48.9 41.75 45.65 45.35 42.3 47.5 42.3 48.6 40.15 53.1 40.15 55.0 41.3 59.6 37.55 59.1 35.55 57.75 35.3 54.75 37.35 52.5 37.35 52.15 37.35 51.35 36.3 49.1 35.55 47.0 37.05 45.35 37.05 44.85 37.05 43.35 35.4 42.6 32.8 43.5 30.15 43.5 27.55 42.1 24.55 44.75 25.4 46.35 28.05 48.25 29.2 47.5 33.9 45.35 37.05 47.5 33.9 48.25 29.2 50.25 30.4 53.75 28.8 56.85 23.9 55.1 19.3 57.0 16.4 57.75 14.25 M6.35 47.15 L5.5 44.15 2.1 39.65 5.6 41.4 7.25 42.65 6.4 40.4 5.75 36.9 6.4 33.4 6.4 29.25 8.65 27.15 11.2 28.65 13.75 32.75 14.4 36.65 14.05 39.65 13.15 35.65 13.15 35.55 13.05 35.2 Q12.75 33.9 12.1 32.9 11.0 31.15 9.95 30.9 8.9 30.65 8.0 32.5 7.05 34.4 7.05 37.1 7.05 38.15 7.2 39.1 L7.3 39.5 7.5 43.3 9.3 44.25 8.35 47.05 8.35 50.55 6.35 47.15 M34.7 11.25 L35.4 11.75 35.65 13.3 34.9 13.5 32.65 14.15 22.75 13.75 17.95 14.45 22.05 12.5 31.65 12.5 34.7 11.25 M8.6 23.9 L13.0 23.55 16.85 27.15 21.35 27.15 26.5 24.3 30.25 25.4 26.25 26.05 22.2 29.4 18.6 29.9 14.85 28.45 10.75 24.15 8.6 23.9 M37.65 10.0 L37.0 12.65 37.65 10.0 M44.1 55.3 L42.75 56.85 44.1 55.3 M27.45 60.6 L27.75 59.65 26.75 57.8 26.25 57.85 26.75 57.8 27.75 59.65 27.45 60.6 M18.85 60.4 L17.9 60.8 18.85 60.4 M4.85 56.15 L3.7 57.0 4.85 56.15" fill="#b0af68" fill-rule="evenodd" stroke="none"/>
    <path d="M57.35 45.15 Q63.5 45.8 67.95 47.2 73.3 48.9 73.75 50.65 72.4 52.0 64.75 53.0 L52.75 54.4 52.0 54.65 53.7 55.65 Q55.05 56.4 55.5 56.4 54.95 57.7 47.7 58.7 L38.25 59.4 38.0 59.4 38.75 59.9 38.75 59.95 33.35 60.4 28.9 60.3 29.6 58.8 31.0 58.8 31.6 56.4 33.85 55.9 36.5 57.05 37.75 58.8 41.35 58.4 42.75 56.85 45.25 56.4 45.85 53.55 44.25 50.3 45.35 48.55 47.5 48.05 49.25 47.3 52.0 48.65 52.75 50.55 55.5 49.4 57.25 45.65 57.35 45.15 M23.35 59.9 L20.7 59.65 21.05 58.85 23.9 58.7 23.45 59.5 23.35 59.9 M15.4 59.2 L15.0 59.15 12.6 58.65 13.55 56.8 15.35 57.75 16.7 57.75 15.6 59.05 15.4 59.2 M8.15 57.4 L5.95 56.75 6.6 55.15 6.7 54.65 7.6 55.3 9.1 55.9 8.15 57.4" fill="#000000" fill-opacity="0.2901961" fill-rule="evenodd" stroke="none"/>
    <path d="M23.7 43.55 Q22.85 41.85 22.85 39.15 22.85 35.75 24.65 34.1 26.4 32.4 28.65 31.9 L30.5 32.0 Q31.6 32.4 32.55 33.6 L32.95 34.25 Q34.1 36.2 33.7 38.9 L33.05 41.65 Q32.8 43.1 32.05 43.15 31.3 43.15 30.6 43.9 L29.8 44.5 27.95 45.2 Q26.55 45.75 24.6 44.8 L24.2 44.3 23.7 43.55 M7.2 39.1 Q7.05 38.15 7.05 37.1 7.05 34.4 8.0 32.5 8.9 30.65 9.95 30.9 11.0 31.15 12.1 32.9 12.75 33.9 13.05 35.2 L13.15 35.55 13.15 35.65 13.35 37.2 Q13.45 39.75 12.5 41.6 11.55 43.5 10.25 43.5 8.9 43.5 8.0 41.6 7.5 40.65 7.3 39.5 L7.2 39.1 M12.6 44.2 L13.1 43.3 14.25 42.8 15.1 44.7 17.0 49.2 17.25 50.2 17.4 50.65 13.55 47.0 13.2 46.65 11.75 48.05 10.85 49.3 10.75 47.15 12.6 44.2" fill="#666633" fill-rule="evenodd" stroke="none"/>
    <path d="M32.95 48.4 L31.9 46.75 30.3 46.0 29.05 46.6 26.65 46.45 24.95 45.2 24.6 44.8 Q26.55 45.75 27.95 45.2 L29.8 44.5 30.6 43.9 Q31.3 43.15 32.05 43.15 32.8 43.1 33.05 41.65 L33.05 44.25 33.8 45.4 35.3 45.4 34.35 47.65 32.95 48.4" fill="#8cd9d9" fill-rule="evenodd" stroke="none"/>
    <path d="M35.3 45.4 L36.05 45.4 37.55 45.0 38.65 46.65 38.65 48.75 Q37.5 50.3 36.05 50.65 L33.55 49.4 32.95 48.4 34.35 47.65 35.3 45.4" fill="#66cccc" fill-rule="evenodd" stroke="none"/>
    <path d="M56.4 10.6 L53.75 3.65 45.35 0.9 43.35 0.0 41.2 0.2 41.15 0.2 38.75 2.9 38.75 4.9 35.5 7.2 36.65 8.0 37.35 9.5 37.55 10.05 M46.9 5.3 L46.15 7.9 44.85 12.9 46.35 17.9 45.85 21.8 47.1 23.55 50.25 26.7 52.25 24.3 52.85 19.15 56.35 14.65 56.4 10.6 57.75 14.25 61.35 23.8 61.35 28.8 62.35 33.55 61.35 35.05 61.35 37.3 57.75 41.4 57.75 43.05 57.35 45.15 57.25 45.65 55.5 49.4 52.75 50.55 52.0 48.65 49.25 47.3 47.5 48.05 45.35 48.55 44.25 50.3 44.85 47.55 46.0 45.4 47.6 45.4 48.25 44.8 48.4 44.65 49.4 43.7 51.85 42.9 M28.9 60.3 L28.75 60.6 27.45 60.6 27.1 61.55 24.75 62.3 23.85 61.95 22.85 61.55 23.35 59.9 23.45 59.5 23.9 58.7 24.35 57.9 26.25 57.85 26.75 57.8 27.75 59.65 27.45 60.6 M20.7 59.65 L19.75 61.55 18.75 61.55 17.9 60.8 17.0 61.15 15.65 60.65 15.35 60.55 14.6 59.65 15.4 59.2 15.6 59.05 16.7 57.75 15.35 57.75 13.55 56.8 12.6 58.65 12.25 59.3 10.6 59.3 10.1 58.65 8.75 58.65 7.6 58.15 8.15 57.4 9.1 55.9 10.0 55.05 12.0 55.05 13.75 56.4 13.55 56.8 M5.95 56.75 L5.5 57.9 4.5 57.9 3.7 57.0 3.25 57.3 3.25 58.3 1.25 57.45 0.0 56.9 0.0 55.65 1.35 54.8 2.35 53.35 2.1 50.9 2.5 50.75 4.6 49.8 6.35 47.15 5.5 44.15 2.1 39.65 3.1 36.55 4.6 35.9 6.0 33.55 4.0 26.8 3.1 20.05 3.6 17.4 5.15 14.7 11.0 11.15 22.9 11.15 26.4 11.65 30.15 10.35 33.4 10.5 34.7 11.25 35.4 11.75 35.65 13.3 36.95 12.95 37.0 12.65 36.75 10.35 35.9 8.75 34.75 7.75 35.5 7.2 M46.9 5.3 L46.5 4.15 M42.35 8.45 L42.15 9.0 37.55 12.75 41.15 11.65 46.15 7.9 M42.55 6.05 L42.05 5.25 M42.35 8.45 L42.9 6.65 42.55 6.05 M52.5 37.35 L52.15 37.35 51.35 36.3 49.1 35.55 47.0 37.05 45.35 37.05 44.85 37.05 43.35 35.4 42.6 32.8 43.5 30.15 43.5 27.55 42.1 24.55 M48.25 29.2 L48.25 29.05 47.1 23.55 M48.25 29.05 L50.25 26.7 M45.35 37.05 L47.5 33.9 48.25 29.2 M34.9 13.5 L32.65 14.15 22.75 13.75 17.95 14.45 14.75 14.9 12.25 17.0 M35.3 45.4 L36.05 45.4 37.55 45.0 38.65 46.65 38.65 48.75 Q37.5 50.3 36.05 50.65 L33.55 49.4 32.95 48.4 31.9 46.75 30.3 46.0 29.05 46.6 26.65 46.45 24.95 45.2 24.6 44.8 Q26.55 45.75 27.95 45.2 L29.8 44.5 30.6 43.9 Q31.3 43.15 32.05 43.15 32.8 43.1 33.05 41.65 L33.7 38.9 Q34.1 36.2 32.95 34.25 L32.55 33.6 Q31.6 32.4 30.5 32.0 L28.65 31.9 Q26.4 32.4 24.65 34.1 22.85 35.75 22.85 39.15 22.85 41.85 23.7 43.55 L24.2 44.3 24.6 44.8 M35.65 13.3 L34.9 13.5 M37.55 12.75 L36.95 12.95 M37.0 12.65 L37.65 10.0 M14.85 28.45 L10.75 24.15 8.6 23.9 M16.35 30.05 L14.85 28.45 18.6 29.9 22.2 29.4 26.25 26.05 30.25 25.4 M7.2 39.1 Q7.05 38.15 7.05 37.1 7.05 34.4 8.0 32.5 8.9 30.65 9.95 30.9 11.0 31.15 12.1 32.9 12.75 33.9 13.05 35.2 M13.15 35.55 L13.15 35.65 13.35 37.2 Q13.45 39.75 12.5 41.6 11.55 43.5 10.25 43.5 8.9 43.5 8.0 41.6 7.5 40.65 7.3 39.5 M12.6 44.2 L13.1 43.3 14.25 42.8 15.1 44.7 17.0 49.2 17.25 50.2 17.4 50.65 13.55 47.0 13.2 46.65 11.75 48.05 10.85 49.3 10.75 47.15 12.6 44.2 M20.6 30.65 L22.2 29.4 M35.3 45.4 L33.8 45.4 33.05 44.25 33.05 41.65 M28.9 60.3 L29.6 58.8 31.0 58.8 31.6 56.4 33.85 55.9 36.5 57.05 37.75 58.8 41.35 58.4 42.75 56.85 44.1 55.3 M21.05 58.85 L21.35 58.15 19.6 56.55 17.1 57.3 16.7 57.75 M20.7 59.65 L21.05 58.85 23.9 58.7 M17.9 60.8 L18.85 60.4 M5.25 53.05 L7.0 53.05 6.7 54.65 7.6 55.3 9.1 55.9 M6.7 54.65 L6.6 55.15 5.95 56.75 M2.35 53.35 L2.75 52.8 3.5 52.15 5.25 53.05 M3.7 57.0 L4.85 56.15 M42.75 56.85 L45.25 56.4 45.85 53.55 44.25 50.3" fill="none" stroke="#000000" stroke-linecap="round" stroke-linejoin="round" stroke-opacity="0.4" stroke-width="0.5"/>
    <path d="M13.05 35.2 L13.15 35.55" fill="none" stroke="#ff3399" stroke-linecap="round" stroke-linejoin="round" stroke-width="0.05"/>
  </g>
</svg>
