<?xml version="1.0" encoding="UTF-8" standalone="no"?>
<svg xmlns:xlink="http://www.w3.org/1999/xlink" height="66.3px" width="71.1px" xmlns="http://www.w3.org/2000/svg">
  <g transform="matrix(1.0, 0.0, 0.0, 1.0, 0.0, 0.0)">
    <path d="M0.0 33.15 L0.0 33.05 Q0.1 29.75 0.95 25.85 1.95 21.2 3.8 17.15 4.75 15.05 5.95 13.15 L10.9 15.2 8.8 18.9 Q6.75 23.15 5.7 28.1 5.0 31.2 4.85 34.05 L4.8 35.15 0.0 33.15 M34.45 26.15 L39.6 27.8 39.3 28.3 Q37.85 30.7 36.75 33.35 35.5 36.35 34.75 39.7 L34.6 40.45 Q34.15 42.35 33.95 44.2 33.65 46.5 33.7 48.65 L28.95 47.25 28.95 46.75 Q28.9 44.05 29.35 41.1 L29.85 38.2 Q30.7 34.3 32.15 30.8 L32.7 29.55 Q33.5 27.8 34.45 26.15 M19.9 17.6 L24.85 19.7 Q23.15 22.3 22.0 25.2 L21.0 27.9 Q19.35 32.9 18.8 37.95 L18.6 40.2 13.0 37.7 13.25 35.8 13.85 32.35 Q14.95 27.25 17.0 22.8 L17.15 22.55 Q18.35 19.95 19.9 17.6" fill="#c7c1a5" fill-rule="evenodd" stroke="none"/>
    <path d="M1.5 42.25 Q-0.15 38.4 0.0 33.15 L4.8 35.15 Q4.6 41.05 6.65 45.75 L1.5 42.25 M33.7 48.65 L33.7 49.95 Q33.95 54.75 35.8 58.75 L35.9 58.85 36.55 60.3 31.95 58.25 31.1 56.5 30.95 56.25 Q29.85 53.8 29.35 51.0 L29.1 49.35 29.1 49.1 28.95 47.25 33.7 48.65 M18.6 40.2 Q18.5 41.8 18.55 43.4 L18.55 44.75 Q18.7 48.0 19.55 51.0 L20.1 52.75 14.4 49.95 14.4 49.9 14.3 49.7 Q12.65 45.0 12.9 39.35 L13.0 37.7 18.6 40.2" fill="#aea780" fill-rule="evenodd" stroke="none"/>
    <path d="M16.25 53.9 L13.85 53.6 8.65 49.95 6.9 46.4 6.65 45.75 Q4.6 41.05 4.8 35.15 L4.85 34.05 Q5.0 31.2 5.7 28.1 6.75 23.15 8.8 18.9 L10.9 15.2 Q12.7 12.3 15.0 9.8 L15.45 9.35 Q18.0 6.6 20.55 4.8 21.85 3.85 23.15 3.2 L23.2 3.2 Q29.7 1.8 32.15 3.2 L35.0 4.7 28.9 4.35 27.8 4.4 Q22.55 4.85 17.6 10.0 L16.6 11.15 Q14.55 13.4 13.0 16.05 L11.3 19.45 11.15 19.75 Q9.5 23.4 8.65 27.65 8.2 29.7 8.0 31.65 7.75 33.85 7.85 35.9 L7.9 36.45 7.9 36.6 8.3 39.7 Q8.5 42.65 9.5 45.4 10.2 47.5 11.4 49.45 14.0 52.95 16.25 53.9" fill="#645e40" fill-rule="evenodd" stroke="none"/>
    <path d="M38.85 64.8 Q36.6 63.85 34.75 62.0 L34.6 61.8 32.55 59.2 32.5 59.1 31.95 58.25 36.55 60.3 37.1 61.35 38.85 64.8 M30.15 62.15 L27.0 61.75 25.35 61.35 23.5 60.7 Q19.15 58.85 16.25 53.9 L15.4 52.35 15.35 52.2 15.25 52.05 15.2 51.85 14.4 49.95 20.1 52.75 Q20.7 54.55 21.65 56.25 L23.55 59.15 Q26.2 61.3 30.15 62.15 M13.85 53.6 Q11.8 52.4 8.5 50.95 5.1 49.5 1.9 43.05 L1.5 42.25 6.65 45.75 6.9 46.4 8.65 49.95 13.85 53.6" fill="#857c54" fill-rule="evenodd" stroke="none"/>
    <path d="M15.3 3.0 Q19.7 0.0 24.35 0.0 27.8 0.0 31.85 1.4 L33.5 2.05 Q35.35 2.8 37.05 4.9 L38.8 4.8 Q42.5 4.8 46.8 6.25 41.05 6.3 36.35 8.65 L31.4 7.1 33.95 5.95 36.0 5.25 37.05 4.9 35.0 4.7 32.15 3.2 Q29.7 1.8 23.2 3.2 L23.15 3.2 Q21.85 3.85 20.55 4.8 L15.3 3.0 M53.95 12.35 L54.0 12.35 Q57.15 12.5 60.75 13.75 L57.3 13.95 55.05 14.35 52.95 15.1 Q51.35 15.8 49.75 16.95 L44.65 15.2 Q47.3 13.7 50.75 12.95 L53.95 12.35" fill="#cccccc" fill-rule="evenodd" stroke="none"/>
    <path d="M46.8 6.25 Q50.55 7.8 53.0 11.0 L53.95 12.35 Q49.8 7.75 43.95 8.25 L43.8 8.25 Q40.95 8.6 38.4 9.55 34.1 11.1 30.75 14.45 L28.45 17.05 26.25 20.3 Q24.5 23.0 23.3 25.9 L23.25 25.95 Q21.65 29.7 20.85 33.8 20.35 36.05 20.2 38.35 L20.05 40.85 20.15 44.55 Q20.4 47.75 21.2 51.0 L21.45 51.75 22.05 53.65 23.35 56.25 Q26.85 61.9 34.6 61.8 L34.75 62.0 30.15 62.15 Q26.2 61.3 23.55 59.15 L21.65 56.25 Q20.7 54.55 20.1 52.75 L19.55 51.0 Q18.7 48.0 18.55 44.75 L18.55 43.4 Q18.5 41.8 18.6 40.2 L18.8 37.95 Q19.35 32.9 21.0 27.9 L22.0 25.2 Q23.15 22.3 24.85 19.7 27.2 16.05 30.5 12.9 33.2 10.25 36.35 8.65 41.05 6.3 46.8 6.25 M60.75 13.75 L62.4 14.4 Q65.95 15.9 68.95 22.2 70.55 25.6 70.95 29.65 71.3 33.3 70.7 37.5 L70.2 40.45 Q67.85 51.15 61.0 58.75 54.15 66.3 46.8 66.3 42.55 66.3 38.85 64.8 L37.1 61.35 36.55 60.3 35.9 58.85 35.8 58.75 Q33.95 54.75 33.7 49.95 L33.7 48.65 Q33.65 46.5 33.95 44.2 34.15 42.35 34.6 40.45 L34.75 39.7 Q35.5 36.35 36.75 33.35 37.85 30.7 39.3 28.3 L39.6 27.8 Q40.65 26.05 41.9 24.45 L43.9 22.15 Q46.85 18.9 49.75 16.95 51.35 15.8 52.95 15.1 L55.05 14.35 57.3 13.95 60.75 13.75 M47.7 21.2 L45.45 23.5 Q43.55 25.7 42.05 28.25 41.25 29.55 40.6 30.95 39.7 32.7 39.05 34.65 38.55 35.9 38.2 37.3 L38.1 37.6 37.55 40.0 Q36.45 45.15 36.85 49.45 L36.85 49.85 Q37.2 53.45 38.6 56.5 L39.2 57.65 40.6 59.75 Q42.35 61.95 44.85 62.8 L46.3 63.2 46.35 63.2 48.1 63.35 Q52.25 63.3 56.2 60.4 58.3 58.85 60.35 56.5 L63.0 53.05 Q65.7 48.95 67.3 44.05 L68.35 40.0 68.6 38.5 69.05 35.05 Q69.2 32.65 69.0 30.5 L68.9 29.65 Q68.5 26.3 67.25 23.5 64.55 17.5 59.35 16.8 L57.8 16.7 56.15 16.8 54.0 17.3 Q53.1 17.6 52.2 18.05 49.9 19.15 47.7 21.2 M15.2 51.85 L15.25 52.05 15.35 52.2 15.1 51.95 15.2 51.85" fill="#dbdbdb" fill-rule="evenodd" stroke="none"/>
    <path d="M35.0 4.7 L37.05 4.9 36.0 5.25 33.95 5.95 31.4 7.1 Q27.3 9.1 24.35 12.1 L17.6 10.0 Q22.55 4.85 27.8 4.4 L28.9 4.35 35.0 4.7 M30.75 14.45 Q34.1 11.1 38.4 9.55 40.95 8.6 43.8 8.25 L43.95 8.25 Q49.8 7.75 53.95 12.35 L50.75 12.95 Q47.3 13.7 44.65 15.2 43.2 16.0 42.05 17.0 41.1 17.8 40.15 18.75 L40.05 18.9 39.95 18.95 30.75 14.45" fill="#53381a" fill-rule="evenodd" stroke="none"/>
    <path d="M5.95 13.15 Q7.75 10.2 10.1 7.6 12.65 4.75 15.3 3.0 L20.55 4.8 Q18.0 6.6 15.45 9.35 L15.0 9.8 Q12.7 12.3 10.9 15.2 L5.95 13.15 M31.4 7.1 L36.35 8.65 Q33.2 10.25 30.5 12.9 27.2 16.05 24.85 19.7 L19.9 17.6 Q21.55 15.1 23.6 12.9 L24.35 12.1 Q27.3 9.1 31.4 7.1 M44.65 15.2 L49.75 16.95 Q46.85 18.9 43.9 22.15 L41.9 24.45 Q40.65 26.05 39.6 27.8 L34.45 26.15 Q36.4 22.8 39.0 19.95 L39.95 18.95 40.05 18.9 40.15 18.75 Q41.1 17.8 42.05 17.0 43.2 16.0 44.65 15.2" fill="#d6d6d6" fill-rule="evenodd" stroke="none"/>
    <path d="M17.6 10.0 L24.35 12.1 23.6 12.9 Q21.55 15.1 19.9 17.6 18.35 19.95 17.15 22.55 L17.0 22.8 11.3 19.45 13.0 16.05 Q14.55 13.4 16.6 11.15 L17.6 10.0 M39.95 18.95 L39.0 19.95 Q36.4 22.8 34.45 26.15 33.5 27.8 32.7 29.55 L23.25 25.95 23.3 25.9 Q24.5 23.0 26.25 20.3 L28.45 17.05 30.75 14.45 39.95 18.95" fill="#825928" fill-rule="evenodd" stroke="none"/>
    <path d="M42.05 28.25 Q43.55 25.7 45.45 23.5 L47.7 21.2 67.35 33.95 67.35 34.65 66.6 39.55 66.6 39.6 65.75 43.05 42.05 28.25 M36.85 49.45 Q36.45 45.15 37.55 40.0 L38.1 37.6 61.6 52.2 61.3 52.65 58.65 56.05 54.9 59.7 36.85 49.45" fill="#ba8938" fill-rule="evenodd" stroke="none"/>
    <path d="M23.25 25.95 L32.7 29.55 32.15 30.8 Q30.7 34.3 29.85 38.2 L29.35 41.1 20.2 38.35 Q20.35 36.05 20.85 33.8 21.65 29.7 23.25 25.95 M11.3 19.45 L17.0 22.8 Q14.95 27.25 13.85 32.35 L13.25 35.8 8.0 31.65 Q8.2 29.7 8.65 27.65 9.5 23.4 11.15 19.75 L11.3 19.45" fill="#8f692c" fill-rule="evenodd" stroke="none"/>
    <path d="M8.0 31.65 L13.25 35.8 13.0 37.7 12.9 39.35 Q12.65 45.0 14.3 49.7 L14.25 49.8 9.5 45.4 Q8.5 42.65 8.3 39.7 L7.9 36.6 7.9 36.45 7.85 35.9 Q7.75 33.85 8.0 31.65 M21.2 51.0 Q20.4 47.75 20.15 44.55 L20.05 40.85 20.2 38.35 29.35 41.1 Q28.9 44.05 28.95 46.75 L28.95 47.25 29.1 49.1 29.1 49.35 29.35 51.0 21.2 51.0" fill="#745523" fill-rule="evenodd" stroke="none"/>
    <path d="M9.5 45.4 L14.25 49.8 14.4 49.9 14.4 49.95 15.2 51.85 15.1 51.95 15.35 52.2 15.4 52.35 16.25 53.9 Q14.0 52.95 11.4 49.45 10.2 47.5 9.5 45.4 M23.35 56.25 L22.05 53.65 21.45 51.75 21.2 51.0 29.35 51.0 Q29.85 53.8 30.95 56.25 L23.35 56.25" fill="#705401" fill-rule="evenodd" stroke="none"/>
    <path d="M59.35 16.8 Q64.55 17.5 67.25 23.5 68.5 26.3 68.9 29.65 L69.0 30.5 Q69.2 32.65 69.05 35.05 L68.6 38.5 68.35 40.0 67.3 44.05 Q65.7 48.95 63.0 53.05 L60.35 56.5 Q58.3 58.85 56.2 60.4 52.25 63.3 48.1 63.35 L46.35 63.2 46.3 63.2 46.4 62.9 Q50.5 62.9 54.5 60.0 L54.9 59.7 58.65 56.05 61.3 52.65 61.6 52.2 Q64.1 48.3 65.6 43.65 L65.75 43.05 66.6 39.6 66.6 39.55 67.35 34.65 67.35 33.95 67.4 31.2 67.2 29.2 67.1 28.35 Q66.6 25.55 65.5 23.1 63.25 18.15 59.35 16.8 M14.25 49.8 L14.3 49.7 14.4 49.9 14.25 49.8 M32.5 59.2 L32.5 59.1 32.55 59.2 32.5 59.2" fill="#9e7601" fill-rule="evenodd" stroke="none"/>
    <path d="M38.1 37.6 L38.2 37.3 Q38.55 35.9 39.05 34.65 39.7 32.7 40.6 30.95 41.25 29.55 42.05 28.25 L65.75 43.05 65.6 43.65 Q64.1 48.3 61.6 52.2 L38.1 37.6" fill="#ab7e34" fill-rule="evenodd" stroke="none"/>
    <path d="M47.7 21.2 Q49.9 19.15 52.2 18.05 L67.1 28.35 67.2 29.2 67.4 31.2 67.35 33.95 47.7 21.2 M46.3 63.2 L44.85 62.8 Q42.35 61.95 40.6 59.75 L39.2 57.65 38.6 56.5 Q37.2 53.45 36.85 49.85 L36.85 49.45 54.9 59.7 54.5 60.0 Q50.5 62.9 46.4 62.9 L46.3 63.2" fill="#c5923f" fill-rule="evenodd" stroke="none"/>
    <path d="M52.2 18.05 Q53.1 17.6 54.0 17.3 L56.15 16.8 57.8 16.7 59.35 16.8 Q63.25 18.15 65.5 23.1 66.6 25.55 67.1 28.35 L52.2 18.05" fill="#d1aa69" fill-rule="evenodd" stroke="none"/>
    <path d="M30.95 56.25 L31.1 56.5 31.95 58.25 32.5 59.1 32.5 59.2 32.55 59.2 34.6 61.8 Q26.85 61.9 23.35 56.25 L30.95 56.25" fill="#5a4301" fill-rule="evenodd" stroke="none"/>
    <path d="M0.0 33.15 L0.0 33.05 Q0.1 29.75 0.95 25.85 1.95 21.2 3.8 17.15 4.75 15.05 5.95 13.15 7.75 10.2 10.1 7.6 12.65 4.75 15.3 3.0 19.7 0.0 24.35 0.0 27.8 0.0 31.85 1.4 L33.5 2.05 Q35.35 2.8 37.05 4.9 L38.8 4.8 Q42.5 4.8 46.8 6.25 50.55 7.8 53.0 11.0 L53.95 12.35 54.0 12.35 Q57.15 12.5 60.75 13.75 L62.4 14.4 Q65.95 15.9 68.95 22.2 70.55 25.6 70.95 29.65 71.3 33.3 70.7 37.5 L70.2 40.45 Q67.85 51.15 61.0 58.75 54.15 66.3 46.8 66.3 42.55 66.3 38.85 64.8 36.6 63.85 34.75 62.0 L30.15 62.15 27.0 61.75 25.35 61.35 23.5 60.7 Q19.15 58.85 16.25 53.9 L13.85 53.6 Q11.8 52.4 8.5 50.95 5.1 49.5 1.9 43.05 L1.5 42.25 Q-0.15 38.4 0.0 33.15 M14.4 49.9 L14.25 49.8 M32.55 59.2 L32.5 59.2 M34.6 61.8 L34.75 62.0" fill="none" stroke="#2d2100" stroke-linecap="round" stroke-linejoin="round" stroke-width="0.05"/>
  </g>
</svg>
