<?xml version="1.0" encoding="UTF-8" standalone="no"?>
<svg xmlns:xlink="http://www.w3.org/1999/xlink" height="218.0px" width="145.2px" xmlns="http://www.w3.org/2000/svg">
  <g transform="matrix(1.0, 0.0, 0.0, 1.0, -157.0, -92.9)">
    <path d="M181.15 178.5 L197.65 175.8 200.0 164.2 184.05 168.3 181.15 178.5 180.2 178.65 181.15 178.5 184.05 168.3 200.0 164.2 197.65 175.8 181.15 178.5 M202.25 141.4 L191.3 145.1 185.95 158.45 201.7 154.05 202.25 141.4 202.85 141.2 202.25 141.4 201.7 154.05 185.95 158.45 191.3 145.1 202.25 141.4 M266.8 128.75 L239.45 130.85 230.9 138.35 222.75 133.05 213.0 143.55 222.75 133.05 230.9 138.35 239.45 130.85 266.8 128.75 M168.7 184.3 L168.65 183.4 Q167.65 154.8 185.7 133.05 L300.5 92.9 Q282.45 110.8 276.95 134.4 271.45 157.95 271.25 163.3 271.05 168.65 277.35 175.3 L203.35 182.75 201.6 182.95 197.35 183.1 168.7 184.3 M213.75 151.35 L243.1 146.5 253.5 140.45 265.25 141.2 253.5 140.45 243.1 146.5 213.75 151.35 M258.25 160.7 L234.1 166.4 224.4 163.45 211.7 169.9 224.4 163.45 234.1 166.4 258.25 160.7 M221.75 245.15 L205.55 245.7 202.45 237.5 218.45 233.8 221.75 245.15 M215.85 225.9 L202.15 230.85 197.45 219.55 211.55 213.9 215.85 225.9 M192.7 289.0 L195.35 282.65 210.1 283.75 208.6 288.8 192.7 289.0 M218.7 258.25 L214.45 270.95 201.65 271.5 203.4 260.3 218.7 258.25" fill="#f4f1d0" fill-rule="evenodd" stroke="none"/>
    <path d="M300.1 214.0 Q302.5 227.7 302.15 249.5 302.5 271.35 296.7 290.6 L294.45 297.25 Q288.9 311.35 281.5 310.9 L279.55 310.85 Q273.15 309.55 271.65 301.9 271.25 299.85 271.2 297.7 271.15 293.0 273.0 288.0 L208.6 288.8 210.1 283.75 195.35 282.65 192.7 289.0 183.4 289.1 Q201.55 270.65 197.55 251.15 196.3 245.1 184.5 222.7 L184.25 222.2 228.75 201.25 300.1 214.0 M201.25 189.35 L204.4 200.3 189.4 205.05 183.9 190.95 201.25 189.35 M286.3 280.85 L248.1 279.3 286.3 280.85 M233.25 234.85 L242.6 239.8 256.3 228.2 280.1 235.6 256.3 228.2 242.6 239.8 233.25 234.85 M282.4 243.4 L267.05 249.55 255.75 242.05 250.45 247.3 230.15 250.45 250.45 247.3 255.75 242.05 267.05 249.55 282.4 243.4 M281.65 211.45 L265.65 215.1 251.5 205.9 244.45 214.7 224.7 212.2 244.45 214.7 251.5 205.9 265.65 215.1 281.65 211.45 M221.75 245.15 L218.45 233.8 202.45 237.5 205.55 245.7 221.75 245.15 M215.85 225.9 L211.55 213.9 197.45 219.55 202.15 230.85 215.85 225.9 M218.7 258.25 L203.4 260.3 201.65 271.5 214.45 270.95 218.7 258.25 M262.9 268.4 L230.15 270.7 262.9 268.4 M239.5 260.6 L278.5 262.15 239.5 260.6" fill="#eae4a2" fill-rule="evenodd" stroke="none"/>
    <path d="M277.65 175.35 Q293.5 186.75 298.85 208.2 L300.1 214.0 228.75 201.25 184.25 222.2 Q172.25 199.3 168.75 185.75 L168.7 184.3 197.35 183.1 201.6 182.95 203.35 182.75 277.35 175.3 277.65 175.35 M279.55 310.85 L166.65 309.05 Q155.9 302.2 157.15 289.4 L183.4 289.1 192.7 289.0 208.6 288.8 273.0 288.0 Q271.15 293.0 271.2 297.7 271.25 299.85 271.65 301.9 273.15 309.55 279.55 310.85 M201.25 189.35 L183.9 190.95 189.4 205.05 204.4 200.3 201.25 189.35" fill="#e3dc82" fill-rule="evenodd" stroke="none"/>
    <path d="M213.0 143.55 L222.75 133.05 230.9 138.35 239.45 130.85 266.8 128.75 M202.85 141.2 L202.25 141.4 201.7 154.05 185.95 158.45 191.3 145.1 202.25 141.4 M180.2 178.65 L181.15 178.5 184.05 168.3 200.0 164.2 197.65 175.8 181.15 178.5 M168.7 184.3 L168.65 183.4 Q167.65 154.8 185.7 133.05 L300.5 92.9 Q282.45 110.8 276.95 134.4 271.45 157.95 271.25 163.3 271.05 168.65 277.35 175.3 L277.6 175.25 277.65 175.35 Q293.5 186.75 298.85 208.2 L300.1 214.0 Q302.5 227.7 302.15 249.5 302.5 271.35 296.7 290.6 L294.45 297.25 Q288.9 311.35 281.5 310.9 L279.55 310.85 166.65 309.05 Q155.9 302.2 157.15 289.4 L183.4 289.1 Q201.55 270.65 197.55 251.15 196.3 245.1 184.5 222.7 L184.25 222.2 Q172.25 199.3 168.75 185.75 L168.7 184.3 M197.35 183.1 L201.6 182.95 M203.35 182.75 L277.35 175.3 277.65 175.35 M201.25 189.35 L204.4 200.3 189.4 205.05 183.9 190.95 201.25 189.35 M211.7 169.9 L224.4 163.45 234.1 166.4 258.25 160.7 M265.25 141.2 L253.5 140.45 243.1 146.5 213.75 151.35 M224.7 212.2 L244.45 214.7 251.5 205.9 265.65 215.1 281.65 211.45 M230.15 250.45 L250.45 247.3 255.75 242.05 267.05 249.55 282.4 243.4 M280.1 235.6 L256.3 228.2 242.6 239.8 233.25 234.85 M248.1 279.3 L286.3 280.85 M221.75 245.15 L218.45 233.8 202.45 237.5 205.55 245.7 221.75 245.15 M215.85 225.9 L202.15 230.85 197.45 219.55 211.55 213.9 215.85 225.9 M192.7 289.0 L195.35 282.65 210.1 283.75 208.6 288.8 273.0 288.0 Q271.15 293.0 271.2 297.7 271.25 299.85 271.65 301.9 273.15 309.55 279.55 310.85 M183.4 289.1 L192.7 289.0 208.6 288.8 M218.7 258.25 L214.45 270.95 201.65 271.5 203.4 260.3 218.7 258.25 M278.5 262.15 L239.5 260.6 M230.15 270.7 L262.9 268.4" fill="none" stroke="#4a0f0f" stroke-linecap="round" stroke-linejoin="round" stroke-opacity="0.36078432" stroke-width="0.05"/>
    <path d="M201.6 182.95 L203.35 182.75" fill="none" stroke="#66ff00" stroke-linecap="round" stroke-linejoin="round" stroke-width="0.05"/>
  </g>
</svg>
