<?xml version="1.0" encoding="UTF-8" standalone="no"?>
<svg xmlns:xlink="http://www.w3.org/1999/xlink" height="52.05px" width="47.8px" xmlns="http://www.w3.org/2000/svg">
  <g transform="matrix(1.0, 0.0, 0.0, 1.0, -255.65, -126.75)">
    <path d="M303.45 167.7 L303.25 169.8 Q302.9 173.15 297.8 176.2 292.9 178.8 288.8 178.8 283.5 175.8 283.3 175.6 L287.1 175.45 Q298.95 173.55 303.45 167.7" fill="#9c7650" fill-rule="evenodd" stroke="none"/>
    <path d="M288.8 178.8 Q276.9 178.8 272.2 175.8 270.2 174.5 269.3 171.85 276.35 176.35 283.3 175.6 283.5 175.8 288.8 178.8" fill="#7b5e40" fill-rule="evenodd" stroke="none"/>
    <path d="M281.2 132.0 L280.7 135.15 283.8 134.9 287.6 134.6 289.55 136.55 287.0 135.5 285.65 136.8 285.7 136.85 285.85 137.15 287.95 137.4 286.6 138.3 Q291.3 145.6 295.55 151.35 299.7 156.05 301.2 158.85 303.55 162.6 303.45 167.7 298.95 173.55 287.1 175.45 L283.3 175.6 279.1 165.85 Q274.8 155.8 277.95 147.85 280.9 140.25 272.85 132.9 L272.05 132.15 273.15 131.95 273.2 131.95 273.0 131.6 272.8 130.1 272.3 126.75 274.5 131.2 275.3 132.8 276.0 131.1 276.7 129.45 277.15 131.65 277.7 134.2 279.5 131.3 281.9 127.45 281.2 132.0 M294.85 165.3 L295.5 169.75 295.75 167.05 294.95 158.4 290.85 153.65 290.75 153.55 291.6 151.4 289.9 152.55 289.8 152.6 286.3 149.8 289.1 153.35 290.35 154.95 293.15 159.4 291.6 160.75 293.55 160.8 294.85 165.3" fill="#78c014" fill-rule="evenodd" stroke="none"/>
    <path d="M281.2 132.0 L282.65 131.25 282.75 133.1 285.45 131.6 283.65 134.75 283.8 134.9 280.7 135.15 281.2 132.0 M269.3 171.85 Q266.7 164.8 271.55 148.4 272.1 146.75 272.1 145.6 265.35 147.95 265.45 143.05 266.8 134.55 272.05 132.15 L272.85 132.9 Q280.9 140.25 277.95 147.85 274.8 155.8 279.1 165.85 L283.3 175.6 Q276.35 176.35 269.3 171.85 M273.0 131.6 L271.65 129.25 272.8 130.1 273.0 131.6 M274.5 131.2 L275.2 127.65 276.0 131.1 275.3 132.8 274.5 131.2 M277.15 131.65 L279.2 130.1 279.5 131.3 277.7 134.2 277.15 131.65 M272.1 145.6 L273.55 141.95 272.1 145.6 M289.1 153.35 L286.3 149.8 289.8 152.6 289.9 152.55 291.6 151.4 290.75 153.55 290.85 153.65 294.95 158.4 295.75 167.05 295.5 169.75 294.85 165.3 294.35 158.8 289.1 153.35" fill="#61a61c" fill-rule="evenodd" stroke="none"/>
    <path d="M294.85 165.3 L293.55 160.8 291.6 160.75 293.15 159.4 290.35 154.95 289.1 153.35 294.35 158.8 294.85 165.3" fill="#447513" fill-rule="evenodd" stroke="none"/>
    <path d="M283.8 134.9 L283.65 134.75 M285.7 136.85 L285.85 137.15 M286.6 138.3 Q291.3 145.6 295.55 151.35 299.7 156.05 301.2 158.85 303.55 162.6 303.45 167.7 L303.25 169.8 M272.2 175.8 Q270.2 174.5 269.3 171.85 266.7 164.8 271.55 148.4 272.1 146.75 272.1 145.6 265.35 147.95 265.45 143.05 266.8 134.55 272.05 132.15 L273.15 131.95 273.2 131.95 M273.55 141.95 L272.1 145.6" fill="none" stroke="#344d20" stroke-linecap="round" stroke-linejoin="round" stroke-width="0.05"/>
    <path d="M269.3 171.85 Q276.35 176.35 283.3 175.6 L287.1 175.45 Q298.95 173.55 303.45 167.7" fill="none" stroke="#73573c" stroke-linecap="round" stroke-linejoin="round" stroke-width="0.05"/>
    <path d="M283.65 134.75 L285.45 131.6 282.75 133.1 282.65 131.25 281.2 132.0 280.7 135.15 283.8 134.9 287.6 134.6 289.55 136.55 287.0 135.5 285.65 136.8 285.7 136.85 M285.85 137.15 L287.95 137.4 286.6 138.3 M273.0 131.6 L271.65 129.25 272.8 130.1 272.3 126.75 274.5 131.2 275.2 127.65 276.0 131.1 276.7 129.45 277.15 131.65 279.2 130.1 279.5 131.3 281.9 127.45 281.2 132.0 M274.5 131.2 L275.3 132.8 276.0 131.1 M277.15 131.65 L277.7 134.2 279.5 131.3" fill="none" stroke="#3c5d1f" stroke-linecap="round" stroke-linejoin="round" stroke-width="0.05"/>
    <path d="M278.0 164.9 L277.3 167.7 Q272.15 164.1 267.05 163.95 L262.75 163.4 266.1 158.9 258.25 162.15 262.95 157.45 256.0 158.3 259.05 154.05 256.15 154.65 Q255.4 152.0 255.8 150.1 L255.9 150.1 262.6 154.7 Q271.0 155.55 278.0 164.9 M286.5 178.15 Q280.2 169.85 279.55 169.35 L280.25 167.25 Q286.5 174.25 286.5 178.15" fill="#ffe6c8" fill-rule="evenodd" stroke="none"/>
    <path d="M260.65 148.3 L260.9 151.1 263.45 148.1 264.15 147.45 262.95 151.0 267.5 148.4 265.9 152.05 270.1 150.2 271.25 150.9 Q276.15 155.9 278.7 162.1 L278.0 164.9 Q271.0 155.55 262.6 154.7 L255.9 150.1 Q258.25 148.75 260.65 148.3" fill="#ffd7ae" fill-rule="evenodd" stroke="none"/>
    <path d="M270.1 150.2 L271.25 150.9 Q276.15 155.9 278.7 162.1 M277.3 167.7 Q272.15 164.1 267.05 163.95 L262.75 163.4 M256.15 154.65 Q255.4 152.0 255.8 150.1 L255.9 150.1 Q258.25 148.75 260.65 148.3 M280.25 167.25 Q286.5 174.25 286.5 178.15" fill="none" stroke="#9a7958" stroke-linecap="round" stroke-linejoin="round" stroke-width="0.05"/>
    <path d="M260.65 148.3 L260.9 151.1 263.45 148.1 264.15 147.45 262.95 151.0 267.5 148.4 265.9 152.05 270.1 150.2 M262.75 163.4 L266.1 158.9 258.25 162.15 262.95 157.45 256.0 158.3 259.05 154.05 256.15 154.65" fill="none" stroke="#a07e5d" stroke-linecap="round" stroke-linejoin="round" stroke-width="0.05"/>
  </g>
</svg>
