<?xml version="1.0" encoding="UTF-8" standalone="no"?>
<svg xmlns:xlink="http://www.w3.org/1999/xlink" height="50.95px" width="34.1px" xmlns="http://www.w3.org/2000/svg">
  <g transform="matrix(1.0, 0.0, 0.0, 1.0, 16.7, 24.95)">
    <path d="M-13.4 -10.6 L1.85 -14.3 8.3 0.95 2.1 6.2 -2.8 3.45 -1.65 -1.1 -1.05 3.05 0.5 4.45 5.95 2.0 3.0 -10.35 -9.95 -10.35 -14.45 3.4 -2.85 23.3 11.55 21.4 -1.45 25.75 -1.3 26.0 -1.35 26.0 -16.7 6.45 -13.4 -10.6 M-12.45 -17.35 L-1.45 -24.95 17.4 -8.55 12.05 16.15 -4.25 14.3 -6.5 0.85 0.0 -4.15 3.4 -1.25 2.95 1.0 0.75 -2.6 -4.95 0.2 -4.45 10.85 9.05 14.9 16.1 -4.9 0.45 -22.7 -12.45 -17.35" fill="#990000" fill-rule="evenodd" stroke="none"/>
  </g>
</svg>
