<?xml version="1.0" encoding="UTF-8" standalone="no"?>
<svg xmlns:xlink="http://www.w3.org/1999/xlink" height="118.4px" width="95.45px" xmlns="http://www.w3.org/2000/svg">
  <g transform="matrix(1.0, 0.0, 0.0, 1.0, -212.95, -121.0)">
    <path d="M230.7 122.95 L233.1 122.6 237.95 122.05 Q262.15 120.55 232.2 130.5 232.2 125.5 216.75 126.4 223.75 124.15 230.7 122.95 M287.0 207.5 L290.15 208.65 286.75 208.25 287.0 207.5 286.75 208.25 Q278.1 206.5 269.1 206.1 267.75 203.95 265.25 202.75 275.95 206.45 287.0 207.5 M284.85 211.95 Q285.7 212.6 286.55 212.85 L284.25 212.85 284.85 211.95 284.25 212.85 Q281.1 211.55 276.6 212.25 L268.95 208.5 Q277.05 211.4 284.85 211.95 M240.25 215.3 L235.55 216.85 239.65 214.65 256.1 205.6 Q253.15 207.3 250.75 210.25 246.2 211.5 240.25 215.3 L239.65 214.65 240.25 215.3 M237.15 211.15 Q233.75 211.7 229.05 214.85 L236.4 209.7 242.4 205.7 252.85 203.05 Q244.95 205.8 237.15 211.15 L236.4 209.7 237.15 211.15 M293.55 131.4 Q292.9 128.15 289.7 125.75 294.65 127.9 298.1 131.0 292.95 135.25 286.2 137.4 290.35 135.45 293.55 131.4 M259.45 132.0 L256.8 131.8 Q254.9 130.2 257.8 129.65 257.0 131.0 259.45 132.0 M269.6 215.85 L268.1 212.85 273.35 215.85 269.6 215.85 M252.0 215.1 L246.6 216.85 254.35 211.85 252.0 215.1" fill="#000000" fill-rule="evenodd" stroke="none"/>
    <path d="M230.7 122.95 Q223.75 124.15 216.75 126.4 232.2 125.5 232.2 130.5 262.15 120.55 237.95 122.05 L260.45 121.0 263.45 121.05 277.25 121.65 283.65 122.1 294.05 123.6 Q307.95 126.25 307.95 130.0 L307.95 130.05 Q307.85 133.75 294.95 138.05 282.05 142.35 262.45 142.5 242.85 142.65 228.75 138.4 L223.15 136.55 Q217.05 134.35 214.65 132.5 L213.2 131.0 213.15 130.9 213.15 129.15 Q213.8 127.65 216.75 126.4 220.25 124.85 226.85 123.6 L230.7 122.95 M234.45 131.85 Q234.45 134.35 242.45 136.1 250.45 137.85 261.8 137.85 273.15 137.85 281.15 136.1 289.15 134.35 289.15 131.85 289.15 129.35 281.15 127.6 273.15 125.85 261.8 125.85 250.45 125.85 242.45 127.6 234.45 129.35 234.45 131.85 M293.55 131.4 Q290.35 135.45 286.2 137.4 292.95 135.25 298.1 131.0 294.65 127.9 289.7 125.75 292.9 128.15 293.55 131.4" fill="#333333" fill-rule="evenodd" stroke="none"/>
    <path d="M307.95 130.05 L307.45 133.7 Q303.85 136.9 298.2 140.15 294.2 143.2 289.2 145.25 280.6 147.55 269.95 148.2 264.25 147.25 262.45 142.5 282.05 142.35 294.95 138.05 307.85 133.75 307.95 130.05 M213.15 137.5 Q214.15 133.05 213.2 131.0 L214.65 132.5 Q215.35 136.7 218.7 138.25 217.25 136.0 223.15 136.55 233.35 142.35 244.8 145.15 257.6 147.45 269.95 148.2 L266.35 148.35 Q238.9 149.3 213.15 137.5 M235.1 189.05 Q233.65 185.0 235.15 180.95 238.25 176.95 242.65 176.9 L243.9 176.95 Q239.1 180.15 236.2 186.2 235.45 185.75 235.1 186.0 234.5 186.45 235.1 189.0 L235.1 189.05 M252.7 172.65 L251.8 172.65 Q241.85 172.6 231.8 176.2 229.8 187.2 233.85 192.6 L233.95 192.7 232.7 196.2 225.2 168.7 252.7 172.65 M265.45 178.25 Q273.85 179.3 280.15 184.7 288.0 191.45 288.0 201.0 288.0 204.45 287.0 207.5 275.95 206.45 265.25 202.75 267.75 203.95 269.1 206.1 278.1 206.5 286.75 208.25 286.0 210.15 284.85 211.95 277.05 211.4 268.95 208.5 L276.6 212.25 Q281.1 211.55 284.25 212.85 L283.25 214.2 Q278.75 218.25 271.9 220.3 268.3 222.75 263.5 223.15 L258.55 223.9 257.55 223.8 Q248.8 222.85 242.3 217.25 L240.25 215.3 Q246.2 211.5 250.75 210.25 253.15 207.3 256.1 205.6 L239.65 214.65 Q238.15 212.95 237.15 211.15 244.95 205.8 252.85 203.05 L242.4 205.7 236.4 209.7 Q234.65 206.05 234.55 201.8 L242.7 189.75 Q252.25 175.55 268.6 182.5 L265.45 178.25 M261.3 132.0 L260.15 132.0 259.45 132.0 Q257.0 131.0 257.8 129.65 L257.8 129.6 257.8 129.65 257.8 129.6 260.15 129.5 261.3 129.55 264.5 129.85 Q266.35 130.25 266.35 130.75 266.35 131.25 264.5 131.6 L261.3 132.0 M256.8 131.8 L255.75 131.6 Q253.95 131.25 253.95 130.75 253.95 130.25 255.75 129.85 L257.8 129.6 257.8 129.65 Q254.9 130.2 256.8 131.8 M278.35 177.05 Q283.6 176.5 287.1 181.05 288.65 185.2 287.1 189.3 L286.05 186.3 Q283.15 180.25 278.35 177.05 M288.35 192.8 Q292.45 187.4 290.45 176.3 279.95 172.55 269.55 172.75 L297.05 168.8 289.55 196.3 288.35 192.8 M264.1 206.6 L268.95 208.5 264.1 206.6 M262.9 201.9 Q264.15 202.2 265.25 202.75 264.15 202.2 262.9 201.9 M269.6 215.85 L273.35 215.85 268.1 212.85 269.6 215.85 M252.0 215.1 L254.35 211.85 246.6 216.85 252.0 215.1 M257.85 201.55 L252.85 203.05 257.85 201.55" fill="#cccccc" fill-rule="evenodd" stroke="none"/>
    <path d="M307.45 133.7 Q307.95 134.55 307.95 136.5 300.4 142.3 289.2 145.25 294.2 143.2 298.2 140.15 303.85 136.9 307.45 133.7 M269.2 238.9 Q262.35 239.9 255.2 238.9 246.35 238.35 237.5 236.3 217.7 233.35 213.15 227.5 225.35 233.4 237.5 236.3 L249.05 237.65 249.1 237.65 255.2 238.9 263.5 239.0 269.2 238.9 M269.95 148.2 Q257.6 147.45 244.8 145.15 233.35 142.35 223.15 136.55 217.25 136.0 218.7 138.25 215.35 136.7 214.65 132.5 217.05 134.35 223.15 136.55 L228.75 138.4 Q242.85 142.65 262.45 142.5 264.25 147.25 269.95 148.2 M243.9 176.95 L242.65 176.9 Q238.25 176.95 235.15 180.95 233.65 185.0 235.1 189.05 L235.15 189.2 233.95 192.7 233.85 192.6 Q229.8 187.2 231.8 176.2 241.85 172.6 251.8 172.65 L252.7 172.65 256.7 173.2 Q249.15 173.45 243.9 176.95 M234.55 201.8 L234.5 201.0 Q234.5 197.25 235.7 193.95 236.5 191.7 237.9 189.65 239.65 187.0 242.3 184.7 250.15 178.0 261.25 178.0 L265.45 178.25 268.6 182.5 Q252.25 175.55 242.7 189.75 L234.55 201.8 M283.25 214.2 L280.15 217.25 Q272.35 224.0 261.25 224.0 L258.6 223.9 258.55 223.9 263.5 223.15 Q268.3 222.75 271.9 220.3 278.75 218.25 283.25 214.2 M249.5 132.2 Q254.25 133.75 260.4 134.3 268.35 135.2 276.45 134.05 267.9 135.55 258.95 135.55 253.85 134.4 249.5 132.2 M278.35 177.05 Q273.1 173.55 265.55 173.3 L269.55 172.75 Q279.95 172.55 290.45 176.3 292.45 187.4 288.35 192.8 L287.1 189.3 Q288.65 185.2 287.1 181.05 283.6 176.5 278.35 177.05" fill="#999999" fill-rule="evenodd" stroke="none"/>
    <path d="M234.45 131.85 Q234.45 129.35 242.45 127.6 250.45 125.85 261.8 125.85 273.15 125.85 281.15 127.6 289.15 129.35 289.15 131.85 289.15 134.35 281.15 136.1 273.15 137.85 261.8 137.85 250.45 137.85 242.45 136.1 234.45 134.35 234.45 131.85 M261.3 132.0 L262.4 132.0 266.75 131.6 Q268.6 131.25 268.6 130.75 268.6 130.25 266.75 129.85 L262.4 129.5 261.3 129.55 260.15 129.5 257.8 129.6 255.75 129.85 Q253.95 130.25 253.95 130.75 253.95 131.25 255.75 131.6 L256.8 131.8 259.45 132.0 260.15 132.0 261.3 132.0 M249.5 132.2 L246.95 131.2 249.5 132.2 Q253.85 134.4 258.95 135.55 267.9 135.55 276.45 134.05 268.35 135.2 260.4 134.3 254.25 133.75 249.5 132.2" fill="#666666" fill-rule="evenodd" stroke="none"/>
    <path d="M307.95 136.5 Q305.55 184.65 307.95 229.0 299.2 233.6 289.9 235.95 280.9 237.9 269.45 238.85 L269.2 238.9 263.5 239.0 255.2 238.9 249.1 237.65 249.05 237.65 248.95 237.6 249.1 237.65 248.95 237.6 249.05 237.65 237.5 236.3 Q225.35 233.4 213.15 227.5 216.0 182.5 213.15 137.5 238.9 149.3 266.35 148.35 L269.95 148.2 Q280.6 147.55 289.2 145.25 300.4 142.3 307.95 136.5 M243.9 176.95 Q249.15 173.45 256.7 173.2 L252.7 172.65 225.2 168.7 232.7 196.2 233.95 192.7 235.15 189.2 235.1 189.05 235.1 189.0 Q234.5 186.45 235.1 186.0 235.45 185.75 236.2 186.2 239.1 180.15 243.9 176.95 M265.45 178.25 L261.25 178.0 Q250.15 178.0 242.3 184.7 239.65 187.0 237.9 189.65 236.5 191.7 235.7 193.95 234.5 197.25 234.5 201.0 L234.55 201.8 Q234.65 206.05 236.4 209.7 L229.05 214.85 Q233.75 211.7 237.15 211.15 238.15 212.95 239.65 214.65 L235.55 216.85 240.25 215.3 242.3 217.25 Q248.8 222.85 257.55 223.8 L258.55 223.9 258.6 223.9 261.25 224.0 Q272.35 224.0 280.15 217.25 L283.25 214.2 284.25 212.85 286.55 212.85 Q285.7 212.6 284.85 211.95 286.0 210.15 286.75 208.25 L290.15 208.65 287.0 207.5 Q288.0 204.45 288.0 201.0 288.0 191.45 280.15 184.7 273.85 179.3 265.45 178.25 M217.8 149.8 Q221.95 147.05 252.85 152.55 234.0 148.65 217.55 143.05 215.8 148.3 217.8 149.8 M265.55 173.3 Q273.1 173.55 278.35 177.05 283.15 180.25 286.05 186.3 L287.1 189.3 288.35 192.8 289.55 196.3 297.05 168.8 269.55 172.75 265.55 173.3 M302.8 161.85 L304.2 167.05 305.5 172.25 Q306.45 159.7 303.45 146.05 L260.0 153.05 275.45 152.1 Q290.1 151.65 300.25 153.5 L302.8 161.85 M302.25 169.85 Q300.7 164.9 299.8 158.95 299.05 159.9 297.3 158.95 300.15 164.25 302.25 169.85 M305.3 212.15 L305.1 203.05 304.05 205.35 Q298.45 225.15 281.15 233.85 286.9 231.65 292.45 230.15 L295.65 229.3 Q297.65 227.55 299.45 226.8 302.9 225.3 305.6 227.35 L305.3 212.15 M220.45 208.3 Q216.4 198.55 215.9 187.8 214.95 207.8 215.9 226.3 232.2 234.25 248.95 237.6 L234.95 229.65 Q228.85 224.05 225.35 218.85 221.85 213.6 220.6 208.6 L220.45 208.3" fill="#990000" fill-rule="evenodd" stroke="none"/>
    <path d="M217.8 149.8 Q215.8 148.3 217.55 143.05 234.0 148.65 252.85 152.55 221.95 147.05 217.8 149.8 M275.45 152.1 L260.0 153.05 303.45 146.05 Q306.45 159.7 305.5 172.25 L304.2 167.05 302.8 161.85 Q301.65 156.5 301.55 150.45 288.5 149.85 275.45 152.1 M299.45 226.8 Q297.65 227.55 295.65 229.3 L292.45 230.15 Q286.9 231.65 281.15 233.85 298.45 225.15 304.05 205.35 L305.1 203.05 305.3 212.15 Q305.2 220.65 302.05 220.8 301.55 224.5 299.45 226.8 M220.5 208.6 Q219.8 215.45 221.8 222.3 228.1 227.4 234.95 229.65 L248.95 237.6 Q232.2 234.25 215.9 226.3 214.95 207.8 215.9 187.8 216.4 198.55 220.45 208.3 L220.5 208.6 220.45 208.3 220.6 208.6 220.5 208.6" fill="#993333" fill-rule="evenodd" stroke="none"/>
    <path d="M302.8 161.85 L300.25 153.5 Q290.1 151.65 275.45 152.1 288.5 149.85 301.55 150.45 301.65 156.5 302.8 161.85 M302.25 169.85 Q300.15 164.25 297.3 158.95 299.05 159.9 299.8 158.95 300.7 164.9 302.25 169.85 M299.45 226.8 Q301.55 224.5 302.05 220.8 305.2 220.65 305.3 212.15 L305.6 227.35 Q302.9 225.3 299.45 226.8 M234.95 229.65 Q228.1 227.4 221.8 222.3 219.8 215.45 220.5 208.6 L220.6 208.6 Q221.85 213.6 225.35 218.85 228.85 224.05 234.95 229.65" fill="#ffffcc" fill-rule="evenodd" stroke="none"/>
    <path d="M237.95 122.05 L233.1 122.6 230.7 122.95 Q223.75 124.15 216.75 126.4 232.2 125.5 232.2 130.5 262.15 120.55 237.95 122.05 M256.7 173.2 L252.7 172.65 225.2 168.7 232.7 196.2 233.95 192.7 235.15 189.2 235.1 189.05 M235.1 189.0 Q234.5 186.45 235.1 186.0 235.45 185.75 236.2 186.2 M234.55 201.8 L234.5 201.0 Q234.5 197.25 235.7 193.95 236.5 191.7 237.9 189.65 239.65 187.0 242.3 184.7 250.15 178.0 261.25 178.0 L265.45 178.25 Q273.85 179.3 280.15 184.7 288.0 191.45 288.0 201.0 288.0 204.45 287.0 207.5 L286.75 208.25 Q286.0 210.15 284.85 211.95 L284.25 212.85 283.25 214.2 280.15 217.25 Q272.35 224.0 261.25 224.0 L258.6 223.9 M257.55 223.8 Q248.8 222.85 242.3 217.25 L240.25 215.3 239.65 214.65 Q238.15 212.95 237.15 211.15 L236.4 209.7 Q234.65 206.05 234.55 201.8 M293.55 131.4 Q290.35 135.45 286.2 137.4 292.95 135.25 298.1 131.0 294.65 127.9 289.7 125.75 292.9 128.15 293.55 131.4 M259.45 132.0 L256.8 131.8 Q254.9 130.2 257.8 129.65 L257.8 129.6 257.8 129.65 Q257.0 131.0 259.45 132.0 M246.95 131.2 L249.5 132.2 Q254.25 133.75 260.4 134.3 268.35 135.2 276.45 134.05 267.9 135.55 258.95 135.55 253.85 134.4 249.5 132.2 M287.1 189.3 L288.35 192.8 289.55 196.3 297.05 168.8 269.55 172.75 M286.05 186.3 L287.1 189.3 M249.1 237.65 L248.95 237.6 249.05 237.65 M220.5 208.6 L220.45 208.3" fill="none" stroke="#000000" stroke-linecap="round" stroke-linejoin="round" stroke-width="0.05"/>
    <path d="M237.95 122.05 L260.45 121.0 263.45 121.05 277.25 121.65 283.65 122.1 294.05 123.6 Q307.95 126.25 307.95 130.0 L307.95 130.05 307.45 133.7 Q307.95 134.55 307.95 136.5 305.55 184.65 307.95 229.0 300.75 233.5 289.9 235.95 279.85 238.4 269.2 238.9 262.35 239.9 255.2 238.9 246.35 238.35 237.5 236.3 217.7 233.35 213.15 227.5 216.0 182.5 213.15 137.5 214.15 133.05 213.2 131.0 L213.15 130.9 212.95 130.0 213.15 129.15 Q213.8 127.65 216.75 126.4 220.25 124.85 226.85 123.6 L230.7 122.95 M213.15 129.15 L213.15 130.9 M214.65 132.5 L213.2 131.0 M262.45 142.5 Q242.85 142.65 228.75 138.4 L223.15 136.55 Q217.05 134.35 214.65 132.5 M243.9 176.95 Q249.15 173.45 256.7 173.2 M236.2 186.2 Q239.1 180.15 243.9 176.95 M258.6 223.9 L258.55 223.9 257.55 223.8 M289.2 145.25 Q300.4 142.3 307.95 136.5 M307.95 130.05 Q307.85 133.75 294.95 138.05 282.05 142.35 262.45 142.5 M269.95 148.2 Q280.6 147.55 289.2 145.25 M213.15 137.5 Q238.9 149.3 266.35 148.35 L269.95 148.2 M265.55 173.3 Q273.1 173.55 278.35 177.05 283.15 180.25 286.05 186.3 M269.2 238.9 L269.45 238.85 Q280.9 237.9 289.9 235.95 299.2 233.6 307.95 229.0 M249.05 237.65 L249.1 237.65 255.2 238.9 263.5 239.0 269.2 238.9 M213.15 227.5 Q225.35 233.4 237.5 236.3 L249.05 237.65" fill="none" stroke="#000000" stroke-linecap="round" stroke-linejoin="round" stroke-width="0.05"/>
    <path d="M302.8 161.85 L300.25 153.5 M268.95 208.5 L264.1 206.6 M269.1 206.1 Q267.75 203.95 265.25 202.75 264.15 202.2 262.9 201.9 M252.85 203.05 L257.85 201.55 M236.4 209.7 L242.4 205.7" fill="none" stroke="#d4d0c8" stroke-linecap="round" stroke-linejoin="round" stroke-width="0.05"/>
    <path d="M253.7 142.85 L253.7 238.8 Q238.3 237.9 221.8 232.75 L221.8 135.8 Q237.1 141.6 253.7 142.85" fill="#ffffff" fill-opacity="0.42352942" fill-rule="evenodd" stroke="none"/>
    <path d="M308.4 136.8 Q304.55 183.15 308.4 228.75 301.9 232.45 293.2 235.0 L293.2 143.9 Q301.2 141.65 308.4 136.8" fill="#000000" fill-opacity="0.43137255" fill-rule="evenodd" stroke="none"/>
  </g>
</svg>
