<?xml version="1.0" encoding="UTF-8" standalone="no"?>
<svg xmlns:xlink="http://www.w3.org/1999/xlink" height="134.8px" width="206.35px" xmlns="http://www.w3.org/2000/svg">
  <g transform="matrix(1.0, 0.0, 0.0, 1.0, -288.7, -115.65)">
    <path d="M350.7 140.5 Q351.7 140.65 352.75 141.25 L352.95 141.4 353.15 141.5 355.15 143.2 355.5 143.25 Q356.45 143.4 357.5 144.0 360.85 145.95 361.25 150.9 L476.8 218.15 Q480.3 216.4 483.2 217.0 484.2 217.15 485.25 217.75 486.5 218.5 487.35 219.65 L488.0 219.75 Q488.95 219.9 490.0 220.5 493.65 222.6 493.8 228.25 494.0 233.1 491.85 237.6 L491.05 239.1 490.8 239.6 490.75 239.6 490.55 239.5 489.15 241.6 489.35 241.7 489.35 241.75 Q486.4 245.65 482.6 247.7 477.6 250.4 473.95 248.3 L473.8 248.25 Q472.6 247.55 471.85 246.45 470.4 246.3 469.2 245.55 L469.05 245.5 Q466.05 243.7 465.45 239.45 L348.55 171.95 Q344.5 173.6 341.45 171.8 L341.3 171.75 339.5 170.2 Q338.2 169.95 337.1 169.3 L337.0 169.25 336.9 169.2 336.85 169.2 336.7 169.05 336.55 169.0 Q335.45 168.35 334.75 167.45 333.45 167.2 332.35 166.55 L332.2 166.5 Q329.2 164.7 328.6 160.45 L313.3 151.6 Q300.3 142.75 301.2 133.6 L289.95 127.1 290.25 126.55 290.9 125.4 Q293.75 120.9 297.45 118.5 300.55 116.55 302.85 116.95 L303.0 117.0 340.55 138.9 Q343.75 137.45 346.4 138.0 347.35 138.15 348.4 138.75 L350.35 140.45 350.7 140.5 M476.55 245.6 L476.25 245.7 477.75 246.55 476.55 245.6 Z" fill="none" stroke="#2f231a" stroke-linecap="round" stroke-linejoin="round" stroke-width="2.5"/>
    <path d="M318.95 137.15 L322.6 134.95 330.0 139.2 Q327.75 140.8 324.5 140.4 L318.95 137.15 M483.4 230.85 Q484.85 230.1 485.95 230.35 L486.35 230.5 486.7 230.65 Q488.1 231.4 488.15 233.6 488.25 235.7 487.1 237.7 485.8 239.95 483.9 240.95 482.05 241.95 480.7 241.25 L480.1 240.75 Q479.35 239.95 479.2 238.7 L479.15 238.2 Q479.1 236.05 480.4 233.8 481.5 231.9 483.4 230.85" fill="#1f1710" fill-rule="evenodd" stroke="none"/>
    <path d="M489.35 241.7 L489.35 241.75 489.15 241.6 489.35 241.7" fill="#768f45" fill-rule="evenodd" stroke="none"/>
    <path d="M354.85 143.15 L353.15 141.5 355.15 143.2 354.85 143.15 M337.0 169.25 Q338.1 169.8 339.35 169.95 L339.5 170.2 Q338.2 169.95 337.1 169.3 L337.0 169.25" fill="#584f32" fill-rule="evenodd" stroke="none"/>
    <path d="M491.85 237.6 L491.05 239.1 490.8 239.6 490.75 239.6 490.55 239.5 491.55 237.45 491.85 237.6" fill="#6c623e" fill-rule="evenodd" stroke="none"/>
    <path d="M318.95 137.15 L313.5 134.0 320.8 129.5 331.4 135.65 Q332.15 137.45 330.3 139.0 L330.0 139.2 322.6 134.95 318.95 137.15 M355.55 147.55 L355.55 147.6 360.25 150.3 361.15 150.85 Q355.15 150.05 351.2 153.05 348.8 154.8 347.15 157.9 L467.8 227.55 Q466.85 229.4 466.3 231.25 465.7 233.0 465.45 234.75 L465.3 237.75 465.45 239.45 348.55 171.95 344.2 169.45 343.8 169.2 Q342.15 166.5 342.05 163.3 L342.05 161.95 342.25 160.65 Q342.6 158.3 343.75 155.95 L344.55 154.5 Q345.7 152.4 347.4 150.85 L351.2 153.05 347.4 150.85 Q348.8 149.55 350.55 148.55 353.35 147.15 355.55 147.55 M365.45 175.45 L342.05 161.95 365.45 175.45 M377.4 182.25 L371.15 178.65 377.4 182.25 M453.55 227.9 L465.45 234.75 453.55 227.9" fill="#745530" fill-rule="evenodd" stroke="none"/>
    <path d="M467.8 227.55 L347.15 157.9 Q348.8 154.8 351.2 153.05 L359.55 157.85 351.2 153.05 Q355.15 150.05 361.15 150.85 L476.8 218.15 476.55 218.25 Q472.8 220.3 470.25 223.55 469.35 224.75 468.6 226.1 L467.8 227.55 M379.1 169.35 L385.8 173.25 379.1 169.35 M375.75 163.1 L370.3 159.95 375.75 163.1 M438.1 205.0 L470.25 223.55 438.1 205.0" fill="#b88952" fill-rule="evenodd" stroke="none"/>
    <path d="M330.0 139.2 L330.3 139.0 Q332.15 137.45 331.4 135.65 L320.8 129.5 313.5 134.0 318.95 137.15 324.5 140.4 Q327.75 140.8 330.0 139.2 M340.55 138.9 L339.7 139.25 Q337.15 140.65 335.1 142.7 333.15 144.6 331.75 147.1 L330.95 148.55 290.9 125.4 Q293.75 120.9 297.45 118.5 300.55 116.55 302.85 116.95 L303.0 117.0 305.55 118.5 340.55 138.9" fill="#c89f79" fill-rule="evenodd" stroke="none"/>
    <path d="M330.95 148.55 Q329.8 150.8 329.2 153.1 328.35 155.95 328.45 158.75 L328.6 160.45 313.3 151.6 Q300.3 142.75 301.2 133.6 L289.95 127.1 290.25 126.55 290.9 125.4 330.95 148.55 M319.9 147.75 L329.2 153.1 319.9 147.75 M314.0 144.5 L315.95 145.6 314.0 144.5" fill="#9a6b3f" fill-rule="evenodd" stroke="none"/>
    <path d="M343.5 142.1 L344.05 141.75 344.9 141.4 Q347.85 140.05 350.35 140.45 347.85 140.05 344.9 141.4 L344.05 141.75 343.5 142.1 Q342.65 142.55 341.85 143.15 339.35 144.95 337.5 147.4 339.35 144.95 341.85 143.15 342.65 142.55 343.5 142.1 M333.5 155.6 Q334.15 153.3 335.3 151.05 L336.05 149.6 336.9 148.25 337.5 147.4 336.9 148.25 336.05 149.6 335.3 151.05 Q334.15 153.3 333.5 155.6 L329.2 153.1 Q329.8 150.8 330.95 148.55 L331.75 147.1 Q333.15 144.6 335.1 142.7 337.15 140.65 339.7 139.25 L340.55 138.9 341.85 138.4 Q344.3 137.55 346.4 138.0 347.35 138.15 348.4 138.75 L350.35 140.45 350.7 140.5 Q351.7 140.65 352.75 141.25 L352.95 141.4 353.15 141.5 354.85 143.15 Q352.45 142.85 349.65 144.15 L348.8 144.5 346.75 145.8 Q343.15 148.35 340.85 152.35 L340.05 153.8 Q338.9 156.05 338.3 158.35 L333.5 155.6 M476.8 218.15 Q480.3 216.4 483.2 217.0 484.2 217.15 485.25 217.75 486.5 218.5 487.35 219.65 L488.0 219.75 Q488.95 219.9 490.0 220.5 493.65 222.6 493.8 228.25 494.0 233.1 491.85 237.6 L491.55 237.45 Q492.8 234.45 492.65 231.25 492.55 226.95 489.75 225.4 L489.0 225.05 488.25 224.8 Q486.0 224.35 483.15 225.8 479.3 227.9 477.15 231.75 475.8 234.05 475.2 236.35 L471.05 234.0 466.3 231.25 Q466.85 229.4 467.8 227.55 L468.6 226.1 Q469.35 224.75 470.25 223.55 472.8 220.3 476.55 218.25 L476.8 218.15 M487.35 219.65 Q484.7 219.35 481.55 220.9 L481.3 221.0 480.05 221.75 481.3 221.0 481.55 220.9 Q484.7 219.35 487.35 219.65 M474.9 226.5 L473.35 228.85 472.55 230.3 Q471.6 232.15 471.05 234.0 471.6 232.15 472.55 230.3 L473.35 228.85 474.9 226.5 Q477.05 223.7 480.05 221.75 477.05 223.7 474.9 226.5" fill="#a82d2d" fill-rule="evenodd" stroke="none"/>
    <path d="M333.5 155.6 L338.3 158.35 337.7 160.95 Q337.5 162.5 337.55 164.0 L337.7 165.7 Q338.1 168.25 339.35 169.95 338.1 169.8 337.0 169.25 L336.9 169.2 336.85 169.2 336.7 169.05 336.55 169.0 Q335.45 168.35 334.75 167.45 333.35 165.7 332.95 162.95 L332.8 161.25 Q332.7 158.45 333.5 155.6 332.7 158.45 332.8 161.25 L332.95 162.95 Q333.35 165.7 334.75 167.45 333.45 167.2 332.35 166.55 L332.2 166.5 Q329.2 164.7 328.6 160.45 L328.45 158.75 Q328.35 155.95 329.2 153.1 L333.5 155.6 M489.35 241.75 Q486.4 245.65 482.6 247.7 477.6 250.4 473.95 248.3 L473.8 248.25 Q472.6 247.55 471.85 246.45 470.4 246.3 469.2 245.55 L469.05 245.5 Q466.05 243.7 465.45 239.45 L465.3 237.75 465.45 234.75 Q465.7 233.0 466.3 231.25 L471.05 234.0 475.2 236.35 Q474.6 238.45 474.65 240.5 474.75 243.75 476.55 245.6 L476.25 245.7 477.75 246.55 Q480.45 248.05 484.15 246.0 487.0 244.5 489.15 241.6 L489.35 241.75 M471.05 234.0 Q469.95 237.25 470.05 240.5 L470.2 242.2 Q470.6 244.75 471.85 246.45 470.6 244.75 470.2 242.2 L470.05 240.5 Q469.95 237.25 471.05 234.0" fill="#772020" fill-rule="evenodd" stroke="none"/>
    <path d="M338.3 158.35 Q338.9 156.05 340.05 153.8 L340.85 152.35 Q343.15 148.35 346.75 145.8 L348.8 144.5 349.65 144.15 Q352.45 142.85 354.85 143.15 L355.15 143.2 355.5 143.25 Q356.45 143.4 357.5 144.0 360.85 145.95 361.25 150.9 L360.25 150.3 355.55 147.6 355.55 147.55 Q353.35 147.15 350.55 148.55 348.8 149.55 347.4 150.85 345.7 152.4 344.55 154.5 L343.75 155.95 Q342.6 158.3 342.25 160.65 L342.05 161.95 342.05 163.3 Q342.15 166.5 343.8 169.2 L344.2 169.45 348.55 171.95 Q344.5 173.6 341.45 171.8 L341.3 171.75 339.5 170.2 339.35 169.95 Q338.1 168.25 337.7 165.7 L337.55 164.0 Q337.5 162.5 337.7 160.95 L338.3 158.35 M475.2 236.35 Q475.8 234.05 477.15 231.75 479.3 227.9 483.15 225.8 486.0 224.35 488.25 224.8 L489.0 225.05 489.75 225.4 Q492.55 226.95 492.65 231.25 492.8 234.45 491.55 237.45 L490.55 239.5 489.15 241.6 Q487.0 244.5 484.15 246.0 480.45 248.05 477.75 246.55 L476.55 245.6 Q474.75 243.75 474.65 240.5 474.6 238.45 475.2 236.35 M483.4 230.85 Q481.5 231.9 480.4 233.8 479.1 236.05 479.15 238.2 L479.2 238.7 Q479.35 239.95 480.1 240.75 L480.7 241.25 Q482.05 241.95 483.9 240.95 485.8 239.95 487.1 237.7 488.25 235.7 488.15 233.6 488.1 231.4 486.7 230.65 L486.35 230.5 485.95 230.35 Q484.85 230.1 483.4 230.85" fill="#551717" fill-rule="evenodd" stroke="none"/>
    <path d="M347.4 150.85 Q345.7 152.4 344.55 154.5 L343.75 155.95 Q342.6 158.3 342.25 160.65 L342.05 161.95 342.05 163.3 Q342.15 166.5 343.8 169.2 M355.55 147.55 Q353.35 147.15 350.55 148.55 348.8 149.55 347.4 150.85" fill="none" stroke="#2f231a" stroke-linecap="round" stroke-linejoin="round" stroke-width="1.0"/>
    <path d="M330.0 139.2 L330.3 139.0 Q332.15 137.45 331.4 135.65 L320.8 129.5 313.5 134.0 318.95 137.15 324.5 140.4 Q327.75 140.8 330.0 139.2 M338.3 158.35 Q338.9 156.05 340.05 153.8 L340.85 152.35 Q343.15 148.35 346.75 145.8 L348.8 144.5 349.65 144.15 Q352.45 142.85 354.85 143.15 L353.15 141.5 352.95 141.4 352.75 141.25 Q351.7 140.65 350.7 140.5 L350.35 140.45 348.4 138.75 Q347.35 138.15 346.4 138.0 344.3 137.55 341.85 138.4 L340.55 138.9 339.7 139.25 Q337.15 140.65 335.1 142.7 333.15 144.6 331.75 147.1 L330.95 148.55 Q329.8 150.8 329.2 153.1 328.35 155.95 328.45 158.75 L328.6 160.45 313.3 151.6 Q300.3 142.75 301.2 133.6 L289.95 127.1 290.25 126.55 290.9 125.4 Q293.75 120.9 297.45 118.5 300.55 116.55 302.85 116.95 L303.0 117.0 Q303.75 117.1 304.4 117.5 L305.55 118.5 340.55 138.9 M334.75 167.45 Q335.45 168.35 336.55 169.0 L336.7 169.05 336.85 169.2 336.9 169.2 337.0 169.25 Q338.1 169.8 339.35 169.95 338.1 168.25 337.7 165.7 L337.55 164.0 Q337.5 162.5 337.7 160.95 L338.3 158.35 M355.55 147.55 L355.55 147.6 360.25 150.3 361.25 150.9 Q360.85 145.95 357.5 144.0 356.45 143.4 355.5 143.25 L355.15 143.2 354.85 143.15 M353.15 141.5 L355.15 143.2 M361.15 150.85 L360.25 150.3 M361.15 150.85 L476.8 218.15 Q480.3 216.4 483.2 217.0 484.2 217.15 485.25 217.75 486.5 218.5 487.35 219.65 L488.0 219.75 Q488.95 219.9 490.0 220.5 493.65 222.6 493.8 228.25 494.0 233.1 491.85 237.6 L491.05 239.1 490.8 239.6 490.75 239.6 489.35 241.7 489.35 241.75 Q486.4 245.65 482.6 247.7 477.6 250.4 473.95 248.3 L473.8 248.25 Q472.6 247.55 471.85 246.45 470.4 246.3 469.2 245.55 L469.05 245.5 Q466.05 243.7 465.45 239.45 L348.55 171.95 Q344.5 173.6 341.45 171.8 L341.3 171.75 339.5 170.2 Q338.2 169.95 337.1 169.3 L337.0 169.25 M334.75 167.45 Q333.45 167.2 332.35 166.55 L332.2 166.5 Q329.2 164.7 328.6 160.45 M343.8 169.2 L344.2 169.45 M339.5 170.2 L339.35 169.95 M470.25 223.55 Q472.8 220.3 476.55 218.25 L476.8 218.15 M465.45 239.45 L465.3 237.75 465.45 234.75 Q465.7 233.0 466.3 231.25 466.85 229.4 467.8 227.55 L468.6 226.1 Q469.35 224.75 470.25 223.55 M476.55 245.6 L477.75 246.55 Q480.45 248.05 484.15 246.0 487.0 244.5 489.15 241.6 L490.55 239.5 M476.55 245.6 L476.25 245.7 477.75 246.55 M305.55 118.5 L303.0 117.0" fill="none" stroke="#2f231a" stroke-linecap="round" stroke-linejoin="round" stroke-width="1.0"/>
    <path d="M350.35 140.45 Q347.85 140.05 344.9 141.4 L344.05 141.75 343.5 142.1 M337.5 147.4 L336.9 148.25 336.05 149.6 335.3 151.05 Q334.15 153.3 333.5 155.6 M480.05 221.75 L481.3 221.0 481.55 220.9 Q484.7 219.35 487.35 219.65 M471.05 234.0 Q471.6 232.15 472.55 230.3 L473.35 228.85 474.9 226.5" fill="none" stroke="#ffffcc" stroke-linecap="round" stroke-linejoin="round" stroke-width="0.25"/>
    <path d="M333.5 155.6 Q332.7 158.45 332.8 161.25 L332.95 162.95 Q333.35 165.7 334.75 167.45 M471.85 246.45 Q470.6 244.75 470.2 242.2 L470.05 240.5 Q469.95 237.25 471.05 234.0" fill="none" stroke="#ddad40" stroke-linecap="round" stroke-linejoin="round" stroke-width="0.25"/>
    <path d="M342.05 161.95 L365.45 175.45 M329.2 153.1 L319.9 147.75 M371.15 178.65 L377.4 182.25 M465.45 234.75 L453.55 227.9 M315.95 145.6 L314.0 144.5" fill="none" stroke="#563c23" stroke-linecap="round" stroke-linejoin="round" stroke-width="0.75"/>
    <path d="M351.2 153.05 L347.4 150.85 M351.2 153.05 L359.55 157.85 M370.3 159.95 L375.75 163.1 M385.8 173.25 L379.1 169.35 M470.25 223.55 L438.1 205.0" fill="none" stroke="#745530" stroke-linecap="round" stroke-linejoin="round" stroke-width="0.75"/>
    <path d="M343.5 142.1 Q342.65 142.55 341.85 143.15 339.35 144.95 337.5 147.4 M474.9 226.5 Q477.05 223.7 480.05 221.75" fill="none" stroke="#ffffff" stroke-linecap="round" stroke-linejoin="round" stroke-width="0.25"/>
  </g>
</svg>
