<?xml version="1.0" encoding="UTF-8" standalone="no"?>
<svg xmlns:xlink="http://www.w3.org/1999/xlink" height="44.45px" width="41.1px" xmlns="http://www.w3.org/2000/svg">
  <g transform="matrix(1.0, 0.0, 0.0, 1.0, -11.7, -8.9)">
    <path d="M12.2 34.5 L13.8 28.15 13.8 28.1 15.4 24.4 15.85 22.9 15.9 22.65 Q20.85 25.85 23.85 23.5 24.1 25.0 25.4 25.45 L25.35 25.45 Q22.15 26.8 19.4 38.2 L19.4 38.3 19.2 38.05 Q14.2 39.05 12.2 34.5 M20.45 30.25 Q16.3 32.1 13.8 28.15 16.3 32.1 20.45 30.25" fill="#128b58" fill-rule="evenodd" stroke="none"/>
    <path d="M39.35 52.4 Q39.1 52.8 38.6 52.6 38.15 52.4 37.95 52.0 L38.65 48.65 Q36.45 49.45 34.2 47.9 35.2 40.7 39.95 37.2 L40.3 37.15 Q42.65 37.1 44.65 41.15 40.4 42.9 39.3 48.8 L39.3 48.85 39.35 52.4 M29.55 31.2 Q26.85 35.85 26.6 41.85 26.2 40.85 25.15 36.4 L29.55 31.2 M30.1 46.8 L30.1 46.75 Q31.35 37.6 37.75 35.35 39.7 35.7 39.95 37.2 35.2 40.7 34.2 47.9 31.7 47.8 30.1 46.8 M43.15 40.9 Q39.5 42.7 38.65 48.65 39.5 42.7 43.15 40.9" fill="#107c4f" fill-rule="evenodd" stroke="none"/>
    <path d="M29.55 31.2 L29.65 31.05 29.75 31.05 29.85 30.95 Q32.25 31.0 32.7 33.2 L32.9 33.3 Q30.0 36.15 27.35 43.7 L26.6 41.85 Q26.85 35.85 29.55 31.2" fill="#0e613e" fill-rule="evenodd" stroke="none"/>
    <path d="M15.85 22.6 L15.2 14.75 Q18.9 18.4 22.6 15.25 L22.65 15.2 Q24.35 19.4 23.9 23.45 L23.85 23.5 Q20.85 25.85 15.9 22.65 L15.85 22.6" fill="#0c5033" fill-rule="evenodd" stroke="none"/>
    <path d="M26.6 41.85 L27.35 43.7 27.45 43.95 27.9 44.85 27.95 45.0 23.0 41.25 22.95 39.2 25.15 36.4 Q26.2 40.85 26.6 41.85" fill="#0a3f28" fill-rule="evenodd" stroke="none"/>
    <path d="M22.95 39.2 L23.0 41.25 Q21.0 40.1 19.4 38.3 L19.4 38.2 Q22.15 26.8 25.35 25.45 22.85 32.0 22.95 39.2" fill="#093723" fill-rule="evenodd" stroke="none"/>
    <path d="M22.95 9.15 Q23.0 12.45 22.6 14.8 L22.65 15.2 22.6 15.25 Q18.9 18.4 15.2 14.75 L14.75 9.15 22.95 9.15 M29.85 49.1 Q26.35 47.1 23.3 44.0 21.6 42.3 18.95 42.1 18.75 41.0 18.9 40.45 L19.4 38.3 Q21.0 40.1 23.0 41.25 L27.95 45.0 29.95 48.45 29.85 49.1 M23.3 44.0 L23.0 41.25 23.3 44.0" fill="#072c1d" fill-rule="evenodd" stroke="none"/>
    <path d="M25.35 25.45 L25.4 25.45 Q28.05 27.45 29.75 31.05 L29.65 31.05 29.55 31.2 25.15 36.4 22.95 39.2 Q22.85 32.0 25.35 25.45" fill="#052518" fill-rule="evenodd" stroke="none"/>
    <path d="M41.5 34.55 L41.7 34.6 45.1 36.45 47.0 38.65 47.05 38.75 Q48.95 38.75 48.25 40.4 46.2 40.45 44.95 41.05 L44.75 41.15 44.65 41.15 Q42.65 37.1 40.3 37.15 L39.95 37.2 Q39.7 35.7 37.75 35.35 39.4 34.7 41.5 34.55" fill="#15a266" fill-rule="evenodd" stroke="none"/>
    <path d="M33.85 30.25 L33.95 30.3 35.65 31.25 Q34.15 32.0 32.9 33.3 L32.7 33.2 Q32.25 31.0 29.85 30.95 32.25 29.35 33.85 30.25" fill="#158e5b" fill-rule="evenodd" stroke="none"/>
    <path d="M22.95 9.15 L24.0 9.15 24.05 13.75 22.65 15.2 22.6 14.8 Q23.0 12.45 22.95 9.15 M28.35 25.9 L28.05 25.8 28.25 26.0 29.3 27.1 33.85 30.25 Q32.25 29.35 29.85 30.95 L29.75 31.05 Q28.05 27.45 25.4 25.45 27.05 24.75 28.35 25.9" fill="#0c5638" fill-rule="evenodd" stroke="none"/>
    <path d="M25.15 22.05 L25.35 23.05 28.35 25.9 Q27.05 24.75 25.4 25.45 24.1 25.0 23.85 23.5 L23.9 23.45 25.15 22.05" fill="#16af6f" fill-rule="evenodd" stroke="none"/>
    <path d="M22.65 15.2 L24.05 13.75 Q24.25 18.05 25.15 22.05 L23.9 23.45 Q24.35 19.4 22.65 15.2" fill="#127a4e" fill-rule="evenodd" stroke="none"/>
    <path d="M37.95 52.0 L33.9 50.8 29.95 49.1 29.85 49.1 29.95 48.45 30.1 46.8 Q31.7 47.8 34.2 47.9 36.45 49.45 38.65 48.65 L37.95 52.0 M33.9 50.8 L34.2 47.9 33.9 50.8" fill="#0e6741" fill-rule="evenodd" stroke="none"/>
    <path d="M18.95 42.1 Q16.55 41.9 14.4 40.55 12.4 39.35 11.95 35.85 L12.05 34.85 12.2 34.5 Q14.2 39.05 19.2 38.05 L19.4 38.3 18.9 40.45 Q18.75 41.0 18.95 42.1" fill="#0e6942" fill-rule="evenodd" stroke="none"/>
    <path d="M44.75 41.15 L44.95 41.05 Q46.1 42.4 47.25 45.4 48.8 49.3 49.5 50.6 L48.95 51.35 Q45.65 51.25 39.3 48.85 L39.3 48.8 Q40.4 42.9 44.65 41.15 L44.75 41.15 M44.95 45.2 L43.95 43.55 43.1 44.2 44.15 45.4 43.75 46.4 44.95 46.6 46.95 49.4 45.4 46.25 44.55 45.85 44.95 45.2" fill="#cfe391" fill-rule="evenodd" stroke="none"/>
    <path d="M48.25 40.4 L50.9 45.15 52.2 48.8 49.5 50.6 Q48.8 49.3 47.25 45.4 46.1 42.4 44.95 41.05 46.2 40.45 48.25 40.4 M44.95 45.2 L44.55 45.85 45.4 46.25 46.95 49.4 44.95 46.6 43.75 46.4 44.15 45.4 43.1 44.2 43.95 43.55 44.95 45.2" fill="#e4efc2" fill-rule="evenodd" stroke="none"/>
    <path d="M52.2 48.8 L52.55 49.75 48.05 53.1 39.35 52.4 39.3 48.85 Q45.65 51.25 48.95 51.35 L49.5 50.6 52.2 48.8" fill="#accf41" fill-rule="evenodd" stroke="none"/>
    <path d="M27.35 43.7 Q30.0 36.15 32.9 33.3 33.4 34.75 37.5 35.15 L37.75 35.35 Q31.35 37.6 30.1 46.75 L27.95 45.0 27.9 44.85 27.45 43.95 27.35 43.7" fill="#16ad6d" fill-rule="evenodd" stroke="none"/>
    <path d="M35.65 31.25 L41.5 34.55 Q39.4 34.7 37.75 35.35 L37.5 35.15 Q33.4 34.75 32.9 33.3 34.15 32.0 35.65 31.25" fill="#1cd988" fill-rule="evenodd" stroke="none"/>
    <path d="M27.95 45.0 L30.1 46.75 30.1 46.8 29.95 48.45 27.95 45.0" fill="#128d59" fill-rule="evenodd" stroke="none"/>
    <path d="M28.05 25.8 L28.25 26.0 M33.85 30.25 L33.95 30.3 M41.5 34.55 L41.7 34.6 M22.65 15.2 L22.6 15.25 Q18.9 18.4 15.2 14.75 M15.9 22.65 L15.85 22.6 M23.85 23.5 L23.9 23.45 25.15 22.05 M23.85 23.5 Q20.85 25.85 15.9 22.65 M25.35 25.45 L25.4 25.45 Q27.05 24.75 28.35 25.9 M29.65 31.05 L29.55 31.2 Q26.85 35.85 26.6 41.85 L27.35 43.7 Q30.0 36.15 32.9 33.3 34.15 32.0 35.65 31.25 M29.55 31.2 L25.15 36.4 Q26.2 40.85 26.6 41.85 M22.95 39.2 L23.0 41.25 23.3 44.0 M27.95 45.0 L27.9 44.85 27.45 43.95 27.35 43.7 M25.15 36.4 L22.95 39.2 Q22.85 32.0 25.35 25.45 22.15 26.8 19.4 38.2 L19.4 38.3 18.9 40.45 Q18.75 41.0 18.95 42.1 M27.95 45.0 L29.95 48.45 30.1 46.8 30.1 46.75 Q31.35 37.6 37.75 35.35 39.4 34.7 41.5 34.55 M29.95 48.45 L29.85 49.1 M13.8 28.15 Q16.3 32.1 20.45 30.25 M44.95 41.05 Q46.2 40.45 48.25 40.4 M44.65 41.15 L44.75 41.15 M44.65 41.15 Q40.4 42.9 39.3 48.8 L39.3 48.85 39.35 52.4 M34.2 47.9 L33.9 50.8 M37.95 52.0 L38.65 48.65 Q39.5 42.7 43.15 40.9 M34.2 47.9 Q35.2 40.7 39.95 37.2 M29.85 30.95 Q32.25 29.35 33.85 30.25" fill="none" stroke="#000000" stroke-linecap="round" stroke-linejoin="round" stroke-opacity="0.3019608" stroke-width="0.05"/>
    <path d="M28.35 25.9 L28.05 25.8 M15.85 22.9 L15.85 22.6" fill="none" stroke="#000000" stroke-linecap="round" stroke-linejoin="round" stroke-opacity="0.3019608" stroke-width="0.05"/>
    <path d="M24.05 13.75 L24.0 9.15 22.95 9.15 Q23.0 12.45 22.6 14.8 L22.65 15.2 24.05 13.75 Q24.25 18.05 25.15 22.05 L25.35 23.05 28.35 25.9 M28.25 26.0 L29.3 27.1 33.85 30.25 M33.95 30.3 L35.65 31.25 41.5 34.55 M41.7 34.6 L45.1 36.45 47.0 38.65 47.05 38.75 Q48.95 38.75 48.25 40.4 L50.9 45.15 52.2 48.8 52.55 49.75 48.05 53.1 39.35 52.4 Q39.1 52.8 38.6 52.6 38.15 52.4 37.95 52.0 L33.9 50.8 29.95 49.1 29.85 49.1 Q26.35 47.1 23.3 44.0 21.6 42.3 18.95 42.1 16.55 41.9 14.4 40.55 12.4 39.35 11.95 35.85 L12.05 34.85 12.2 34.5 13.8 28.15 13.8 28.1 15.4 24.4 15.85 22.9 M15.85 22.6 L15.2 14.75 14.75 9.15" fill="none" stroke="#000000" stroke-linecap="round" stroke-linejoin="round" stroke-opacity="0.6" stroke-width="0.5"/>
  </g>
</svg>
