<?xml version="1.0" encoding="UTF-8" standalone="no"?>
<svg xmlns:xlink="http://www.w3.org/1999/xlink" height="82.0px" width="89.0px" xmlns="http://www.w3.org/2000/svg">
  <g transform="matrix(1.0, 0.0, 0.0, 1.0, -230.45, -159.35)">
    <path d="M306.55 168.75 Q312.35 174.05 315.1 178.25 L316.35 180.4 Q318.75 184.85 319.15 189.8 L319.2 192.4 319.15 194.55 Q318.8 201.4 316.35 207.6 312.6 217.0 303.95 224.85 289.0 238.2 269.35 237.9 249.75 237.5 238.55 223.9 229.45 212.7 230.9 198.6 231.05 196.2 231.65 193.9 235.1 177.85 249.35 167.15 256.0 162.1 263.3 159.6 264.8 161.0 264.55 162.4 259.35 164.1 254.6 167.35 243.55 174.75 240.85 185.8 240.4 187.4 240.3 189.05 239.2 198.8 246.2 206.55 254.85 215.95 270.0 216.2 285.2 216.4 296.75 207.2 307.85 198.3 308.5 186.3 L308.55 184.75 308.5 183.0 Q307.7 173.8 299.95 167.4 L298.65 166.35 Q299.45 164.65 301.75 164.85 L303.4 166.05 Q305.0 167.25 306.55 168.75 M311.35 178.75 L312.2 180.85 312.7 182.4 312.95 184.55 313.0 186.65 312.95 188.45 312.45 192.85 Q311.4 198.1 308.65 202.85 L306.8 205.7 Q304.5 208.85 301.35 211.8 L299.75 213.15 297.75 214.75 292.65 218.15 292.5 218.2 Q288.85 220.25 284.95 221.55 L281.9 222.45 275.65 223.55 269.7 223.8 268.05 223.75 260.05 222.65 259.8 222.55 259.2 222.4 255.75 221.3 255.0 221.0 Q252.45 219.95 250.15 218.55 L247.25 216.5 243.7 213.25 242.95 212.4 241.3 210.3 239.3 207.2 239.2 207.0 237.7 203.65 Q237.05 202.0 236.7 200.3 L236.55 199.5 Q236.05 196.7 236.15 193.8 L236.25 192.2 236.3 191.75 Q236.45 189.9 236.9 188.15 L236.95 187.9 Q237.65 184.75 238.95 181.9 L239.3 181.15 Q237.05 184.45 235.9 187.05 235.1 188.75 234.8 190.2 L234.25 192.8 234.2 192.95 233.6 196.55 233.55 196.9 233.5 197.4 Q233.25 199.9 233.35 202.35 L233.4 202.75 Q233.55 206.4 234.55 209.8 235.1 211.75 235.95 213.7 237.3 216.85 239.45 219.8 L240.55 221.3 243.9 224.95 247.15 227.7 251.15 230.2 254.0 231.6 Q256.5 232.65 259.2 233.3 L259.6 233.4 265.15 234.35 269.0 234.55 270.35 234.55 273.9 234.4 279.7 233.5 280.15 233.4 286.25 231.55 Q288.95 230.45 291.55 229.05 294.75 227.2 297.8 224.85 L299.0 223.9 299.5 223.45 300.9 222.2 305.6 217.3 308.8 212.9 Q310.6 210.1 311.9 207.1 313.45 203.45 314.2 199.5 L314.75 196.25 314.95 193.6 315.0 192.05 315.0 191.5 314.95 189.05 Q314.35 181.35 310.55 176.85 L311.35 178.75 309.7 175.75 311.35 178.75 M310.1 191.9 Q306.6 202.55 298.65 208.8 306.6 202.55 310.1 191.9 M243.25 176.0 Q240.75 178.8 238.95 181.9 240.75 178.8 243.25 176.0 M287.1 215.15 Q260.7 224.4 244.3 206.9 260.7 224.4 287.1 215.15" fill="#eabd35" fill-rule="evenodd" stroke="none"/>
    <path d="M312.95 184.55 L312.7 182.4 312.2 180.85 311.35 178.75 310.55 176.85 Q314.35 181.35 314.95 189.05 L315.0 191.5 315.0 192.05 313.5 193.1 313.65 191.45 313.7 189.65 313.65 187.55 313.2 184.5 312.95 184.55 M236.35 187.55 L235.35 190.9 Q235.1 191.75 235.0 192.6 L234.25 192.8 234.8 190.2 Q235.1 188.75 235.9 187.05 L236.35 187.55 M235.8 205.75 L236.55 207.8 236.05 210.05 234.55 209.8 Q233.55 206.4 233.4 202.75 L234.05 204.1 234.95 204.95 235.8 205.75 M272.75 226.75 L278.6 226.1 280.4 226.4 280.5 226.55 276.7 228.75 274.5 230.05 274.35 230.1 271.9 227.6 271.95 227.5 272.75 226.75 M287.35 223.65 Q290.2 222.5 292.9 221.05 L293.0 222.0 291.0 224.6 288.75 224.9 287.35 223.65 M297.6 218.0 L300.05 216.15 303.0 213.5 303.0 216.95 303.2 216.95 300.8 221.15 297.6 218.05 297.6 218.0 M308.9 206.35 L311.0 202.4 310.8 206.85 308.9 206.35 M262.35 226.45 L264.3 229.75 264.1 230.05 261.7 231.85 259.15 230.1 262.35 226.45 M247.95 222.6 L249.25 226.9 247.15 227.7 243.9 224.95 246.1 222.5 247.65 222.55 247.95 222.6 M251.05 226.9 L252.3 227.0 255.05 227.25 255.0 227.35 257.15 228.8 254.0 231.6 251.15 230.2 251.05 226.9" fill="#99702c" fill-rule="evenodd" stroke="none"/>
    <path d="M312.95 184.55 L313.2 184.5 313.65 187.55 313.7 189.65 313.65 191.45 313.5 193.1 313.35 194.2 Q312.95 196.95 312.1 199.6 L311.0 202.4 308.9 206.35 308.75 206.6 306.95 209.15 303.0 213.5 300.05 216.15 297.6 218.0 297.6 218.05 297.35 218.2 297.15 218.35 295.35 219.55 292.9 221.05 Q290.2 222.5 287.35 223.65 L280.55 225.7 278.6 226.1 272.75 226.75 271.1 226.8 269.4 226.8 269.1 226.8 266.4 226.7 262.4 226.25 262.2 226.2 258.35 225.4 257.7 225.25 256.05 224.75 Q253.4 223.9 251.1 222.7 L251.05 222.7 250.8 222.6 248.4 221.2 Q245.95 219.65 243.85 217.7 L243.8 217.7 243.3 217.25 241.5 215.4 240.9 214.7 Q239.35 212.9 238.2 210.95 L237.85 210.4 236.55 207.8 235.8 205.75 235.45 204.6 234.8 201.5 Q234.5 199.65 234.5 197.7 L234.55 196.75 Q234.55 195.75 234.7 194.75 L235.0 192.6 Q235.1 191.75 235.35 190.9 L236.35 187.55 236.9 188.15 Q236.45 189.9 236.3 191.75 L236.25 192.2 236.15 193.8 Q236.05 196.7 236.55 199.5 L236.7 200.3 Q237.05 202.0 237.7 203.65 L239.2 207.0 239.3 207.2 241.3 210.3 242.95 212.4 243.7 213.25 247.25 216.5 250.15 218.55 Q252.45 219.95 255.0 221.0 L255.75 221.3 259.2 222.4 259.8 222.55 260.05 222.65 268.05 223.75 269.7 223.8 275.65 223.55 281.9 222.45 284.95 221.55 Q288.85 220.25 292.5 218.2 L292.65 218.15 297.75 214.75 299.75 213.15 301.35 211.8 Q304.5 208.85 306.8 205.7 L308.65 202.85 Q311.4 198.1 312.45 192.85 L312.95 188.45 313.0 186.65 312.95 184.55" fill="#635b32" fill-rule="evenodd" stroke="none"/>
    <path d="M234.55 196.75 L234.5 197.7 234.15 197.4 234.55 196.75 M235.45 204.6 L235.8 205.75 234.95 204.95 235.45 204.6 M240.9 214.7 L241.5 215.4 243.3 217.25 239.9 215.55 239.8 215.3 240.9 214.7 M243.8 217.7 L243.85 217.7 243.8 217.75 243.8 217.7 M248.4 221.2 L250.8 222.6 251.05 222.7 247.95 222.6 247.65 222.55 248.4 221.2 M257.7 225.25 L258.35 225.4 258.15 226.05 257.7 225.25 M262.2 226.2 L262.4 226.25 266.4 226.7 269.1 226.8 269.4 226.8 271.1 226.8 272.75 226.75 271.95 227.5 271.9 227.6 270.4 231.0 270.05 230.95 264.7 231.65 264.3 229.75 262.35 226.45 262.2 226.2 M278.6 226.1 L280.55 225.7 280.4 226.4 278.6 226.1 M295.35 219.55 L297.15 218.35 296.5 220.15 295.35 219.55 M297.6 218.05 L297.6 218.0 297.6 218.05 M279.95 233.15 L280.15 233.4 279.7 233.5 279.95 233.15 M235.9 187.05 Q237.05 184.45 239.3 181.15 L238.95 181.9 Q237.35 184.6 236.35 187.55 L235.9 187.05 M240.75 219.05 L240.7 218.75 241.05 218.9 240.75 219.05" fill="#a39550" fill-rule="evenodd" stroke="none"/>
    <path d="M313.5 193.1 L315.0 192.05 314.95 193.6 314.75 196.25 313.35 194.2 313.5 193.1 M236.9 188.15 L236.35 187.55 Q237.35 184.6 238.95 181.9 237.65 184.75 236.95 187.9 L236.9 188.15 M237.85 210.4 L238.2 210.95 236.9 214.0 235.95 213.7 Q235.1 211.75 234.55 209.8 L236.05 210.05 237.85 210.4 M243.3 217.25 L243.8 217.7 243.8 217.75 244.35 222.45 243.95 222.4 241.05 218.9 240.7 218.75 239.9 215.55 243.3 217.25 M256.05 224.75 L257.7 225.25 258.15 226.05 257.35 228.9 257.15 228.8 255.0 227.35 255.05 227.25 256.05 224.75 M280.55 225.7 L287.35 223.65 288.75 224.9 282.4 229.45 280.5 226.55 280.4 226.4 280.55 225.7 M292.9 221.05 L295.35 219.55 296.5 220.15 295.35 223.2 297.8 224.85 Q294.75 227.2 291.55 229.05 L291.25 224.6 291.0 224.6 293.0 222.0 292.9 221.05 M306.95 209.15 L308.75 206.6 308.9 206.35 310.8 206.85 311.9 207.1 Q310.6 210.1 308.8 212.9 L306.95 209.15 M264.7 231.65 L270.05 230.95 270.35 234.55 269.0 234.55 265.15 234.35 264.7 231.65 M276.7 228.75 L279.95 233.15 279.7 233.5 273.9 234.4 274.15 232.5 274.5 230.05 276.7 228.75 M249.25 226.9 L249.55 226.75 251.05 226.9 251.15 230.2 247.15 227.7 249.25 226.9" fill="#7a6b3b" fill-rule="evenodd" stroke="none"/>
    <path d="M234.5 197.7 Q234.5 199.65 234.8 201.5 L233.35 202.35 Q233.25 199.9 233.5 197.4 L233.55 196.9 234.15 197.4 234.5 197.7 M238.2 210.95 Q239.35 212.9 240.9 214.7 L239.8 215.3 239.7 214.85 236.9 214.0 238.2 210.95 M258.35 225.4 L262.2 226.2 262.35 226.45 259.15 230.1 257.35 228.9 258.15 226.05 258.35 225.4 M297.15 218.35 L297.35 218.2 297.6 218.05 300.8 221.15 299.5 223.45 299.0 223.9 297.8 224.85 295.35 223.2 296.5 220.15 297.15 218.35 M303.0 213.5 L306.95 209.15 308.8 212.9 305.6 217.3 303.2 216.95 303.0 216.95 303.0 213.5 M264.3 229.75 L264.7 231.65 265.15 234.35 259.6 233.4 261.7 231.85 264.1 230.05 264.3 229.75 M280.15 233.4 L279.95 233.15 282.05 229.7 282.4 229.45 288.75 224.9 291.0 224.6 291.25 224.6 291.55 229.05 Q288.95 230.45 286.25 231.55 L280.15 233.4 M239.45 219.8 L240.75 219.05 241.05 218.9 243.95 222.4 244.35 222.45 246.1 222.5 243.9 224.95 240.55 221.3 239.45 219.8 M251.05 222.7 L251.1 222.7 252.3 227.0 251.05 226.9 249.55 226.75 249.25 226.9 247.95 222.6 251.05 222.7" fill="#8f8146" fill-rule="evenodd" stroke="none"/>
    <path d="M251.1 222.7 Q253.4 223.9 256.05 224.75 L255.05 227.25 252.3 227.0 251.1 222.7 M311.0 202.4 L312.1 199.6 314.2 199.5 Q313.45 203.45 311.9 207.1 L310.8 206.85 311.0 202.4 M270.05 230.95 L270.4 231.0 270.9 231.05 274.15 232.5 273.9 234.4 270.35 234.55 270.05 230.95 M235.95 213.7 L236.9 214.0 239.7 214.85 239.8 215.3 239.9 215.55 240.7 218.75 240.75 219.05 239.45 219.8 Q237.3 216.85 235.95 213.7" fill="#7a6d3b" fill-rule="evenodd" stroke="none"/>
    <path d="M235.0 192.6 L234.7 194.75 Q234.55 195.75 234.55 196.75 L234.15 197.4 233.55 196.9 233.6 196.55 234.2 192.95 234.25 192.8 235.0 192.6 M234.8 201.5 L235.45 204.6 234.95 204.95 234.05 204.1 233.4 202.75 233.35 202.35 234.8 201.5 M236.55 207.8 L237.85 210.4 236.05 210.05 236.55 207.8 M243.85 217.7 Q245.95 219.65 248.4 221.2 L247.65 222.55 246.1 222.5 244.35 222.45 243.8 217.75 243.85 217.7 M312.1 199.6 Q312.95 196.95 313.35 194.2 L314.75 196.25 314.2 199.5 312.1 199.6 M270.4 231.0 L271.9 227.6 274.35 230.1 274.5 230.05 274.15 232.5 270.9 231.05 270.4 231.0 M261.7 231.85 L259.6 233.4 259.2 233.3 Q256.5 232.65 254.0 231.6 L257.15 228.8 257.35 228.9 259.15 230.1 261.7 231.85 M282.4 229.45 L282.05 229.7 279.95 233.15 276.7 228.75 280.5 226.55 282.4 229.45 M299.5 223.45 L300.8 221.15 303.2 216.95 305.6 217.3 300.9 222.2 299.5 223.45" fill="#baad72" fill-rule="evenodd" stroke="none"/>
    <path d="M251.05 222.7 L251.1 222.7 251.05 222.7" fill="#7d733e" fill-rule="evenodd" stroke="none"/>
    <path d="M306.55 168.75 Q312.35 174.05 315.1 178.25 L316.35 180.4 Q318.75 184.85 319.15 189.8 L319.2 192.4 319.15 194.55 Q318.8 201.4 316.35 207.6 312.6 217.0 303.95 224.85 289.0 238.2 269.35 237.9 249.75 237.5 238.55 223.9 229.45 212.7 230.9 198.6 231.05 196.2 231.65 193.9 235.1 177.85 249.35 167.15 256.0 162.1 263.3 159.6 264.8 161.0 264.55 162.4 259.35 164.1 254.6 167.35 243.55 174.75 240.85 185.8 240.4 187.4 240.3 189.05 239.2 198.8 246.2 206.55 254.85 215.95 270.0 216.2 285.2 216.4 296.75 207.2 307.85 198.3 308.5 186.3 L308.55 184.75 308.5 183.0 Q307.7 173.8 299.95 167.4 L298.65 166.35 Q299.45 164.65 301.75 164.85 L303.4 166.05 Q305.0 167.25 306.55 168.75" fill="none" stroke="#000000" stroke-linecap="round" stroke-linejoin="round" stroke-opacity="0.6" stroke-width="0.5"/>
    <path d="M311.35 178.75 L312.2 180.85 312.7 182.4 312.95 184.55 313.0 186.65 312.95 188.45 312.45 192.85 Q311.4 198.1 308.65 202.85 L306.8 205.7 Q304.5 208.85 301.35 211.8 L299.75 213.15 297.75 214.75 292.65 218.15 292.5 218.2 Q288.85 220.25 284.95 221.55 L281.9 222.45 275.65 223.55 269.7 223.8 268.05 223.75 260.05 222.65 M311.35 178.75 L309.7 175.75 M259.8 222.55 L259.2 222.4 255.75 221.3 255.0 221.0 Q252.45 219.95 250.15 218.55 L247.25 216.5 243.7 213.25 242.95 212.4 241.3 210.3 239.3 207.2 M239.2 207.0 L237.7 203.65 Q237.05 202.0 236.7 200.3 L236.55 199.5 Q236.05 196.7 236.15 193.8 L236.25 192.2 236.3 191.75 Q236.45 189.9 236.9 188.15 L236.95 187.9 Q237.65 184.75 238.95 181.9 240.75 178.8 243.25 176.0" fill="none" stroke="#000000" stroke-linecap="round" stroke-linejoin="round" stroke-opacity="0.3019608" stroke-width="0.05"/>
    <path d="M298.65 208.8 Q306.6 202.55 310.1 191.9 M244.3 206.9 Q260.7 224.4 287.1 215.15" fill="none" stroke="#f9e184" stroke-linecap="round" stroke-linejoin="round" stroke-width="1.0"/>
    <path d="M261.85 213.0 L267.9 212.75 Q271.3 216.65 270.85 219.25 267.3 230.7 261.6 240.8 L260.6 238.55 260.5 238.35 Q265.95 212.75 261.85 213.0" fill="#f0dfb9" fill-rule="evenodd" stroke="none"/>
    <path d="M260.5 238.35 Q252.0 218.25 256.7 215.1 258.95 213.8 261.2 213.2 L261.85 213.0 Q265.95 212.75 260.5 238.35" fill="#f9f1df" fill-rule="evenodd" stroke="none"/>
    <path d="M274.8 216.05 Q280.1 215.4 284.3 214.15 280.95 217.2 281.95 222.55 L276.25 234.05 Q273.85 235.3 275.3 237.7 269.35 238.35 264.75 237.45 278.85 218.3 274.95 216.2 L274.8 216.05" fill="#635b32" fill-opacity="0.6" fill-rule="evenodd" stroke="none"/>
    <path d="M267.9 212.75 Q271.45 213.4 274.8 216.05 L274.95 216.2 Q278.85 218.3 264.75 237.45 L261.85 241.35 261.6 240.8 Q267.3 230.7 270.85 219.25 271.3 216.65 267.9 212.75" fill="#ae8944" fill-rule="evenodd" stroke="none"/>
    <path d="M260.5 238.35 Q252.0 218.25 256.7 215.1 258.95 213.8 261.2 213.2 L261.85 213.0 267.9 212.75 Q271.45 213.4 274.8 216.05 L274.95 216.2 Q278.85 218.3 264.75 237.45 L261.85 241.35 261.6 240.8 260.6 238.55" fill="none" stroke="#000000" stroke-linecap="round" stroke-linejoin="round" stroke-opacity="0.6" stroke-width="0.05"/>
    <path d="M256.45 219.35 Q252.9 219.25 248.8 217.3 244.7 215.3 242.45 212.6 240.2 209.85 241.1 207.95 242.0 206.05 245.55 206.15 249.1 206.2 253.2 208.2 257.3 210.15 259.55 212.9 261.8 215.6 260.9 217.5 260.0 219.4 256.45 219.35" fill="url(#gradient0)" fill-rule="evenodd" stroke="none"/>
  </g>
  <defs>
    <radialGradient cx="0" cy="0" gradientTransform="matrix(0.0122, 0.0059, -0.0027, 0.0056, 251.0, 212.75)" gradientUnits="userSpaceOnUse" id="gradient0" r="819.2" spreadMethod="pad">
      <stop offset="0.0" stop-color="#ffffff"/>
      <stop offset="0.9333333333333333" stop-color="#ffffff" stop-opacity="0.0"/>
    </radialGradient>
  </defs>
</svg>
