<?xml version="1.0" encoding="UTF-8" standalone="no"?>
<svg xmlns:xlink="http://www.w3.org/1999/xlink" height="42.6px" width="45.5px" xmlns="http://www.w3.org/2000/svg">
  <g transform="matrix(1.0, 0.0, 0.0, 1.0, -237.8, -155.1)">
    <path d="M252.25 158.1 Q256.8 156.9 263.05 156.9 275.4 158.5 280.15 165.05 M239.65 173.8 Q239.5 176.5 240.55 179.05" fill="none" stroke="#000000" stroke-linecap="round" stroke-linejoin="round" stroke-opacity="0.6" stroke-width="0.5"/>
    <path d="M248.6 159.15 Q248.4 158.35 248.65 157.55 249.05 156.35 250.15 155.7 L250.35 155.65 252.5 155.5 Q253.7 155.9 254.3 157.0 254.95 158.15 254.55 159.35 L254.5 159.45 Q253.65 160.35 252.7 160.45 L252.65 160.5 Q250.5 160.7 248.6 159.15 M250.35 155.65 Q253.9 156.95 252.7 160.45 253.9 156.95 250.35 155.65 M250.8 156.65 L250.05 156.6 Q249.65 156.75 249.55 157.1 249.45 157.45 249.7 157.7 249.9 158.05 250.3 158.15 L251.05 158.1 251.55 157.75 Q251.65 157.4 251.4 157.0 251.2 156.75 250.8 156.65" fill="#85610e" fill-rule="evenodd" stroke="none"/>
    <path d="M250.8 156.65 Q251.2 156.75 251.4 157.0 251.65 157.4 251.55 157.75 L251.05 158.1 250.3 158.15 Q249.9 158.05 249.7 157.7 249.45 157.45 249.55 157.1 249.65 156.75 250.05 156.6 L250.8 156.65" fill="#d19916" fill-rule="evenodd" stroke="none"/>
    <path d="M254.5 159.45 Q254.1 160.6 253.0 161.15 L252.3 161.5 250.7 161.4 Q249.5 161.05 248.85 159.85 L248.6 159.15 Q250.5 160.7 252.65 160.5 L252.7 160.45 Q253.65 160.35 254.5 159.45 M252.65 160.5 L252.3 161.5 252.65 160.5" fill="#58410a" fill-rule="evenodd" stroke="none"/>
    <path d="M248.6 159.15 Q248.4 158.35 248.65 157.55 249.05 156.35 250.15 155.7 L250.35 155.65 252.5 155.5 Q253.7 155.9 254.3 157.0 254.95 158.15 254.55 159.35 L254.5 159.45 Q254.1 160.6 253.0 161.15 L252.3 161.5 250.7 161.4 Q249.5 161.05 248.85 159.85 L248.6 159.15" fill="none" stroke="#000000" stroke-linecap="round" stroke-linejoin="round" stroke-opacity="0.6" stroke-width="0.5"/>
    <path d="M252.7 160.45 Q253.9 156.95 250.35 155.65 M252.3 161.5 L252.65 160.5" fill="none" stroke="#000000" stroke-linecap="round" stroke-linejoin="round" stroke-opacity="0.6" stroke-width="0.05"/>
    <path d="M239.65 173.8 Q239.6 161.9 249.65 159.2" fill="none" stroke="#000000" stroke-linecap="round" stroke-linejoin="round" stroke-opacity="0.6" stroke-width="0.5"/>
    <path d="M278.4 165.95 L278.6 166.7 Q278.85 167.0 279.25 167.0 L279.75 166.7 280.05 165.95 279.8 165.25 Q279.65 164.9 279.3 164.9 278.9 164.9 278.65 165.25 278.4 165.5 278.4 165.95 M281.45 167.3 L279.9 167.7 Q278.65 167.7 277.75 166.85 L277.6 166.7 Q276.85 165.85 276.9 164.65 276.9 163.35 277.8 162.5 278.7 161.55 279.95 161.55 L280.1 161.55 Q281.15 162.15 281.5 163.05 L281.6 163.05 Q282.45 165.0 281.45 167.3 M277.6 166.7 Q277.85 162.95 281.5 163.05 277.85 162.95 277.6 166.7" fill="#85610e" fill-rule="evenodd" stroke="none"/>
    <path d="M278.4 165.95 Q278.4 165.5 278.65 165.25 278.9 164.9 279.3 164.9 279.65 164.9 279.8 165.25 L280.05 165.95 279.75 166.7 279.25 167.0 Q278.85 167.0 278.6 166.7 L278.4 165.95" fill="#d19916" fill-rule="evenodd" stroke="none"/>
    <path d="M280.1 161.55 Q281.3 161.6 282.1 162.5 L282.65 163.1 Q283.05 163.8 283.05 164.65 283.0 165.9 282.05 166.85 L281.45 167.3 Q282.45 165.0 281.6 163.05 L281.5 163.05 Q281.15 162.15 280.1 161.55 M281.6 163.05 L282.65 163.1 281.6 163.05" fill="#58410a" fill-rule="evenodd" stroke="none"/>
    <path d="M281.45 167.3 L279.9 167.7 Q278.65 167.7 277.75 166.85 L277.6 166.7 Q276.85 165.85 276.9 164.65 276.9 163.35 277.8 162.5 278.7 161.55 279.95 161.55 L280.1 161.55 Q281.3 161.6 282.1 162.5 L282.65 163.1 Q283.05 163.8 283.05 164.65 283.0 165.9 282.05 166.85 L281.45 167.3" fill="none" stroke="#000000" stroke-linecap="round" stroke-linejoin="round" stroke-opacity="0.6" stroke-width="0.5"/>
    <path d="M281.5 163.05 Q277.85 162.95 277.6 166.7 M282.65 163.1 L281.6 163.05" fill="none" stroke="#000000" stroke-linecap="round" stroke-linejoin="round" stroke-opacity="0.6" stroke-width="0.05"/>
    <path d="M242.6 182.15 Q241.9 182.55 241.05 182.55 239.8 182.55 238.9 181.7 L238.75 181.55 Q238.0 180.7 238.05 179.5 238.05 178.2 238.95 177.35 239.85 176.4 241.1 176.4 L241.25 176.4 Q242.3 177.0 242.65 177.9 L242.75 177.9 Q243.6 179.85 242.6 182.15 M238.75 181.55 Q239.0 177.8 242.65 177.9 239.0 177.8 238.75 181.55 M239.55 180.8 L239.75 181.55 Q240.0 181.85 240.4 181.85 L240.9 181.55 241.2 180.8 240.95 180.1 Q240.8 179.75 240.45 179.75 240.05 179.75 239.8 180.1 239.55 180.35 239.55 180.8" fill="#85610e" fill-rule="evenodd" stroke="none"/>
    <path d="M239.55 180.8 Q239.55 180.35 239.8 180.1 240.05 179.75 240.45 179.75 240.8 179.75 240.95 180.1 L241.2 180.8 240.9 181.55 240.4 181.85 Q240.0 181.85 239.75 181.55 L239.55 180.8" fill="#d19916" fill-rule="evenodd" stroke="none"/>
    <path d="M241.25 176.4 Q242.45 176.45 243.25 177.35 L243.8 177.95 Q244.2 178.65 244.2 179.5 244.15 180.75 243.2 181.7 L242.6 182.15 Q243.6 179.85 242.75 177.9 L242.65 177.9 Q242.3 177.0 241.25 176.4 M242.75 177.9 L243.8 177.95 242.75 177.9" fill="#58410a" fill-rule="evenodd" stroke="none"/>
    <path d="M242.6 182.15 Q241.9 182.55 241.05 182.55 239.8 182.55 238.9 181.7 L238.75 181.55 Q238.0 180.7 238.05 179.5 238.05 178.2 238.95 177.35 239.85 176.4 241.1 176.4 L241.25 176.4 Q242.45 176.45 243.25 177.35 L243.8 177.95 Q244.2 178.65 244.2 179.5 244.15 180.75 243.2 181.7 L242.6 182.15" fill="none" stroke="#000000" stroke-linecap="round" stroke-linejoin="round" stroke-opacity="0.6" stroke-width="0.5"/>
    <path d="M242.65 177.9 Q239.0 177.8 238.75 181.55 M243.8 177.95 L242.75 177.9" fill="none" stroke="#000000" stroke-linecap="round" stroke-linejoin="round" stroke-opacity="0.6" stroke-width="0.05"/>
    <path d="M280.85 166.15 Q286.75 176.1 276.9 196.2 M241.75 181.3 Q247.8 190.85 271.75 197.45" fill="none" stroke="#000000" stroke-linecap="round" stroke-linejoin="round" stroke-opacity="0.6" stroke-width="0.5"/>
  </g>
</svg>
