<?xml version="1.0" encoding="UTF-8" standalone="no"?>
<svg xmlns:xlink="http://www.w3.org/1999/xlink" height="326.55px" width="466.8px" xmlns="http://www.w3.org/2000/svg">
  <g transform="matrix(1.0, 0.0, 0.0, 1.0, -59.85, -23.1)">
    <path d="M524.3 31.75 L509.35 47.4 Q430.7 111.15 351.85 163.75 266.55 220.65 215.0 247.15 L214.3 247.5 194.95 256.8 191.3 251.8 196.85 250.05 196.85 250.1 Q257.15 222.5 340.15 165.75 377.45 140.25 428.5 101.75 480.75 62.4 510.55 37.1 L525.9 23.85 Q525.5 27.85 524.3 31.75" fill="#f3f4f2" fill-rule="evenodd" stroke="none"/>
    <path d="M215.0 247.15 Q266.55 220.65 351.85 163.75 430.7 111.15 509.35 47.4 L524.3 31.75 Q520.9 42.65 510.55 55.7 505.8 61.6 477.25 85.5 L436.75 119.05 Q410.75 141.0 375.5 166.0 L368.9 170.65 362.0 168.45 364.15 174.15 Q333.75 195.15 302.9 214.3 L294.05 210.0 296.1 218.5 Q255.0 243.65 213.15 265.55 211.7 266.25 210.25 267.05 L209.8 267.25 204.6 270.1 194.95 256.8 214.3 247.5 215.0 247.15" fill="#c8ccbd" fill-rule="evenodd" stroke="none"/>
    <path d="M186.45 279.2 Q181.9 282.3 179.55 289.1 158.4 286.35 143.95 310.4 124.65 310.85 108.75 331.45 97.65 347.25 79.55 348.9 L60.6 319.2 75.2 311.45 102.45 327.7 101.9 297.25 109.7 293.1 136.9 306.85 136.9 278.6 147.75 272.85 172.8 285.65 173.2 259.3 176.65 257.45 186.45 279.2 M74.85 332.3 L69.75 322.35 74.85 332.3 M141.05 287.5 L141.05 281.45 141.05 287.5 M143.95 310.4 L136.9 306.85 143.95 310.4 M105.25 307.95 L104.9 300.3 105.25 307.95 M106.85 323.95 L105.9 316.95 106.85 323.95 M102.45 327.7 L108.75 331.45 102.45 327.7 M142.35 303.15 L141.4 295.2 142.35 303.15 M82.85 345.4 L79.0 338.65 82.85 345.4 M176.55 263.2 L177.2 268.65 176.55 263.2 M172.8 286.5 L172.8 285.65 179.55 289.1 172.8 285.65 172.8 286.5 M177.2 277.9 L176.9 284.0 177.2 277.9" fill="#aec47b" fill-rule="evenodd" stroke="none"/>
    <path d="M75.2 311.45 L101.9 297.25 102.45 327.7 75.2 311.45 M109.7 293.1 L136.9 278.6 136.9 306.85 109.7 293.1 M147.75 272.85 L173.2 259.3 172.8 285.65 147.75 272.85" fill="#e4ecd5" fill-rule="evenodd" stroke="none"/>
    <path d="M196.85 250.05 L191.3 251.8 194.95 256.8 204.6 270.1 209.8 267.25 237.4 303.75 231.6 319.4 207.7 287.35 179.65 249.05 152.9 212.3 168.9 213.1 196.85 250.05 M191.3 251.8 L184.1 240.25 191.3 251.8 M210.8 278.95 L204.6 270.1 210.8 278.95" fill="#51774f" fill-rule="evenodd" stroke="none"/>
    <path d="M207.7 287.35 L200.2 289.5 192.1 291.85 188.65 284.15 186.45 279.2 176.65 257.45 175.2 254.2 179.65 249.05 207.7 287.35 M188.65 281.9 L188.65 284.15 188.65 281.9" fill="#c68366" fill-rule="evenodd" stroke="none"/>
    <path d="M200.2 309.2 L200.7 309.2 Q205.3 309.2 208.55 312.45 211.8 315.7 211.8 320.35 211.8 324.95 208.55 328.2 206.25 330.5 203.25 331.2 L201.75 331.4 200.95 331.45 200.25 331.3 Q194.7 330.1 192.8 328.2 190.85 326.25 190.1 323.85 L190.2 323.8 191.7 323.6 Q194.7 322.9 197.0 320.6 199.7 317.9 200.15 314.25 L200.2 313.85 200.25 312.75 200.2 311.65 200.2 309.2" fill="#bd2e1a" fill-rule="evenodd" stroke="none"/>
    <path d="M190.1 323.85 L190.1 323.8 189.4 323.85 188.7 323.7 Q183.15 322.5 181.25 320.6 178.0 317.35 178.0 312.75 178.0 308.1 181.25 304.85 184.35 301.75 188.65 301.6 L189.15 301.6 Q193.75 301.6 197.0 304.85 198.95 306.8 199.75 309.25 L200.2 309.2 200.2 311.65 200.25 312.75 200.2 313.85 200.15 314.25 Q199.7 317.9 197.0 320.6 194.7 322.9 191.7 323.6 L190.2 323.8 190.1 323.85 M188.65 306.65 L188.65 301.6 188.65 306.65 M200.2 311.65 L199.75 309.25 200.2 311.65 M190.1 323.8 L190.2 323.8 190.1 323.8" fill="#e65a46" fill-rule="evenodd" stroke="none"/>
    <path d="M524.3 31.75 Q525.5 27.85 525.9 23.85 L510.55 37.1 Q480.75 62.4 428.5 101.75 377.45 140.25 340.15 165.75 257.15 222.5 196.85 250.1 L196.85 250.05 168.9 213.1 152.9 212.3 179.65 249.05 175.2 254.2 176.65 257.45 173.2 259.3 147.75 272.85 136.9 278.6 109.7 293.1 101.9 297.25 75.2 311.45 60.6 319.2 79.55 348.9 Q97.65 347.25 108.75 331.45 124.65 310.85 143.95 310.4 158.4 286.35 179.55 289.1 181.9 282.3 186.45 279.2 L188.65 284.15 188.65 281.9 M524.3 31.75 Q520.9 42.65 510.55 55.7 505.8 61.6 477.25 85.5 L436.75 119.05 Q410.75 141.0 375.5 166.0 L368.9 170.65 362.0 168.45 364.15 174.15 Q333.75 195.15 302.9 214.3 L294.05 210.0 296.1 218.5 Q255.0 243.65 213.15 265.55 211.7 266.25 210.25 267.05 L209.8 267.25 237.4 303.75 231.6 319.4 207.7 287.35 200.2 289.5 200.2 309.2 200.7 309.2 Q205.3 309.2 208.55 312.45 211.8 315.7 211.8 320.35 211.8 324.95 208.55 328.2 206.25 330.5 203.25 331.2 L201.75 331.4 200.95 331.45 M200.25 331.3 Q194.7 330.1 192.8 328.2 190.85 326.25 190.1 323.85 L190.1 323.8 189.4 323.85 M188.7 323.7 Q183.15 322.5 181.25 320.6 178.0 317.35 178.0 312.75 178.0 308.1 181.25 304.85 184.35 301.75 188.65 301.6 L188.65 284.15 192.1 291.85 200.2 289.5 M141.05 281.45 L141.05 287.5 M69.75 322.35 L74.85 332.3 M105.9 316.95 L106.85 323.95 M104.9 300.3 L105.25 307.95 M79.0 338.65 L82.85 345.4 M141.4 295.2 L142.35 303.15 M177.2 268.65 L176.55 263.2 M176.9 284.0 L177.2 277.9 M188.65 301.6 L189.15 301.6 Q193.75 301.6 197.0 304.85 198.95 306.8 199.75 309.25 L200.2 309.2 M200.2 311.65 L200.25 312.75 200.2 313.85 M200.15 314.25 Q199.7 317.9 197.0 320.6 194.7 322.9 191.7 323.6 L190.2 323.8 190.1 323.8 M199.75 309.25 L200.2 311.65" fill="none" stroke="#000000" stroke-linecap="round" stroke-linejoin="round" stroke-opacity="0.5019608" stroke-width="1.5"/>
    <path d="M196.85 250.05 L191.3 251.8 194.95 256.8 204.6 270.1 210.8 278.95 M214.3 247.5 L215.0 247.15 M200.95 331.45 L200.7 331.45 200.25 331.3 200.95 331.45 M189.4 323.85 L188.7 323.7 M136.9 306.85 L143.95 310.4 M108.75 331.45 L102.45 327.7 75.2 311.45 M102.45 327.7 L101.9 297.25 M109.7 293.1 L136.9 306.85 136.9 278.6 M179.55 289.1 L172.8 285.65 172.8 286.5 M186.45 279.2 L176.65 257.45 M147.75 272.85 L172.8 285.65 173.2 259.3 M209.8 267.25 L204.6 270.1 M184.1 240.25 L191.3 251.8 M179.65 249.05 L207.7 287.35 M200.2 309.2 L200.2 311.65 M200.2 313.85 L200.15 314.25 M188.65 301.6 L188.65 306.65" fill="none" stroke="#000000" stroke-linecap="round" stroke-linejoin="round" stroke-opacity="0.5019608" stroke-width="0.05"/>
  </g>
</svg>
