<?xml version="1.0" encoding="UTF-8" standalone="no"?>
<svg xmlns:xlink="http://www.w3.org/1999/xlink" height="65.05px" width="70.6px" xmlns="http://www.w3.org/2000/svg">
  <g transform="matrix(1.0, 0.0, 0.0, 1.0, -239.65, -167.95)">
    <path d="M303.45 198.45 L304.5 200.0 Q301.55 202.5 299.95 207.2 L299.05 206.1 Q297.75 206.55 296.6 207.65 295.4 208.8 294.4 210.75 L293.35 212.95 294.2 213.35 292.25 215.1 292.2 214.3 Q290.25 213.7 287.85 214.3 285.85 214.8 283.6 216.05 L280.65 217.9 281.15 221.2 Q279.5 220.0 277.9 222.4 L277.95 221.15 275.4 220.55 275.35 220.55 Q273.05 220.6 271.1 222.2 L269.65 223.65 270.25 224.85 Q268.3 223.5 265.65 225.25 L266.2 223.45 Q265.1 222.5 263.95 221.85 L263.9 221.85 Q262.45 221.05 260.85 220.75 L259.05 220.55 258.8 223.25 Q257.45 221.75 255.0 222.8 255.6 221.35 256.35 220.0 254.8 218.65 252.9 218.25 L252.85 218.25 250.75 218.05 249.3 218.2 249.3 220.25 Q248.4 217.8 246.4 217.95 L248.1 215.95 246.2 214.65 Q245.05 213.45 244.2 211.4 L243.8 210.3 Q242.55 210.4 241.7 211.95 L241.7 211.9 Q242.65 206.7 242.15 201.45 L242.25 201.4 243.45 201.0 243.55 201.65 243.9 204.35 Q245.6 216.2 259.5 219.6 L261.05 219.9 Q271.3 221.7 283.55 214.45 287.3 212.2 291.1 209.25 298.85 203.2 303.45 198.45" fill="#eaa295" fill-rule="evenodd" stroke="none"/>
    <path d="M302.45 214.9 L298.3 214.75 Q296.8 212.45 294.4 210.75 295.4 208.8 296.6 207.65 300.4 210.4 302.45 214.9 M285.65 232.7 L285.5 232.75 283.75 229.25 Q284.5 222.9 283.6 216.05 285.85 214.8 287.85 214.3 289.65 223.6 285.65 232.7 M274.5 229.55 L272.65 228.25 Q272.8 224.75 271.1 222.2 273.05 220.6 275.35 220.55 L275.4 220.55 Q276.3 225.15 274.5 229.55 M260.2 231.55 L260.1 231.35 259.25 228.5 Q261.4 224.9 260.85 220.75 262.45 221.05 263.9 221.85 L263.95 221.85 Q263.8 227.55 260.2 231.55 M252.65 231.65 Q250.9 229.05 250.1 225.95 249.9 221.7 250.75 218.05 L252.85 218.25 252.9 218.25 Q251.2 224.4 252.65 231.65 M239.9 219.95 Q240.05 217.95 240.35 216.35 242.55 214.65 244.2 211.4 245.05 213.45 246.2 214.65 244.0 218.6 239.9 219.95" fill="#c7dba2" fill-rule="evenodd" stroke="none"/>
    <path d="M299.95 207.2 Q303.65 211.75 302.5 214.9 L302.45 214.9 Q300.4 210.4 296.6 207.65 297.75 206.55 299.05 206.1 L299.95 207.2 M292.25 215.1 Q292.6 230.0 285.65 232.7 289.65 223.6 287.85 214.3 290.25 213.7 292.2 214.3 L292.25 215.1 M277.9 222.4 L277.9 222.6 Q277.45 227.15 274.55 229.55 L274.5 229.55 Q276.3 225.15 275.4 220.55 L277.95 221.15 277.9 222.4 M265.65 225.25 Q264.85 227.15 263.0 228.95 L260.2 231.6 260.2 231.55 Q263.8 227.55 263.95 221.85 265.1 222.5 266.2 223.45 L265.65 225.25 M255.0 222.8 Q253.25 227.0 252.7 231.75 L252.65 231.65 Q251.2 224.4 252.9 218.25 254.8 218.65 256.35 220.0 255.6 221.35 255.0 222.8 M246.4 217.95 Q243.85 220.2 239.9 220.4 L239.9 219.95 Q244.0 218.6 246.2 214.65 L248.1 215.95 246.4 217.95" fill="#cac55e" fill-rule="evenodd" stroke="none"/>
    <path d="M298.3 214.75 Q296.3 214.35 294.2 213.35 L293.35 212.95 294.4 210.75 Q296.8 212.45 298.3 214.75 M283.75 229.25 Q281.9 225.1 281.15 221.2 L280.65 217.9 283.6 216.05 Q284.5 222.9 283.75 229.25 M272.65 228.25 Q271.35 227.0 270.25 224.85 L269.65 223.65 271.1 222.2 Q272.8 224.75 272.65 228.25 M259.25 228.5 Q258.7 226.0 258.8 223.25 L259.05 220.55 260.85 220.75 Q261.4 224.9 259.25 228.5 M250.1 225.95 Q249.35 223.3 249.3 220.25 L249.3 218.2 250.75 218.05 Q249.9 221.7 250.1 225.95 M240.35 216.35 Q240.8 213.45 241.7 211.95 242.55 210.4 243.8 210.3 L244.2 211.4 Q242.55 214.65 240.35 216.35" fill="#e1ecce" fill-rule="evenodd" stroke="none"/>
    <path d="M243.45 201.0 L243.45 200.9 Q242.35 191.45 243.35 185.65 244.45 178.75 254.55 172.3 264.6 165.8 277.5 169.6 290.35 173.35 300.7 177.35 311.05 181.35 309.9 188.45 309.25 192.4 303.45 198.45 L304.5 200.0 Q301.55 202.5 299.95 207.2 M294.2 213.35 L292.25 215.1 M281.15 221.2 Q279.5 220.0 277.9 222.4 L277.9 222.6 Q277.45 227.15 274.55 229.55 M270.25 224.85 Q268.3 223.5 265.65 225.25 M258.8 223.25 Q257.45 221.75 255.0 222.8 M249.3 220.25 Q248.4 217.8 246.4 217.95 M241.7 211.95 L241.7 211.9 Q242.65 206.7 242.15 201.45 L242.25 201.4 243.45 201.0 243.55 201.65 243.9 204.35 Q245.6 216.2 259.5 219.6 L261.05 219.9 Q271.3 221.7 283.55 214.45 287.3 212.2 291.1 209.25 298.85 203.2 303.45 198.45 M275.4 220.55 L277.95 221.15 277.9 222.4 M271.1 222.2 Q273.05 220.6 275.35 220.55 L275.4 220.55 M269.65 223.65 L271.1 222.2" fill="none" stroke="#000000" stroke-linecap="round" stroke-linejoin="round" stroke-opacity="0.3019608" stroke-width="0.5"/>
    <path d="M299.95 207.2 Q303.65 211.75 302.5 214.9 M302.45 214.9 L298.3 214.75 Q296.3 214.35 294.2 213.35 L293.35 212.95 294.4 210.75 Q295.4 208.8 296.6 207.65 297.75 206.55 299.05 206.1 L299.95 207.2 M292.25 215.1 Q292.6 230.0 285.65 232.7 L285.5 232.75 283.75 229.25 Q281.9 225.1 281.15 221.2 L280.65 217.9 283.6 216.05 Q285.85 214.8 287.85 214.3 290.25 213.7 292.2 214.3 L292.25 215.1 M274.55 229.55 L274.5 229.55 272.65 228.25 Q271.35 227.0 270.25 224.85 L269.65 223.65 M265.65 225.25 Q264.85 227.15 263.0 228.95 L260.2 231.6 260.2 231.55 260.1 231.35 259.25 228.5 Q258.7 226.0 258.8 223.25 L259.05 220.55 260.85 220.75 Q262.45 221.05 263.9 221.85 M255.0 222.8 Q253.25 227.0 252.7 231.75 L252.65 231.65 Q250.9 229.05 250.1 225.95 249.35 223.3 249.3 220.25 L249.3 218.2 250.75 218.05 252.85 218.25 M246.4 217.95 Q243.85 220.2 239.9 220.4 L239.9 219.95 Q240.05 217.95 240.35 216.35 240.8 213.45 241.7 211.95 242.55 210.4 243.8 210.3 L244.2 211.4 Q245.05 213.45 246.2 214.65 L248.1 215.95 246.4 217.95 M263.95 221.85 Q265.1 222.5 266.2 223.45 L265.65 225.25 M252.9 218.25 Q254.8 218.65 256.35 220.0 255.6 221.35 255.0 222.8" fill="none" stroke="#000000" stroke-linecap="round" stroke-linejoin="round" stroke-opacity="0.3019608" stroke-width="0.5"/>
    <path d="M282.8 169.9 L287.45 171.2 Q285.9 172.25 286.95 173.85 L281.95 172.1 Q281.9 170.35 282.8 169.9" fill="#baad72" fill-rule="evenodd" stroke="none"/>
    <path d="M281.95 172.1 L278.0 170.7 Q277.7 169.75 278.85 168.8 L282.8 169.9 Q281.9 170.35 281.95 172.1" fill="#d5cda8" fill-rule="evenodd" stroke="none"/>
    <path d="M282.8 169.9 L287.45 171.2 Q285.9 172.25 286.95 173.85 L281.95 172.1 278.0 170.7 Q277.7 169.75 278.85 168.8 L282.8 169.9 Q281.9 170.35 281.95 172.1" fill="none" stroke="#000000" stroke-linecap="round" stroke-linejoin="round" stroke-opacity="0.6" stroke-width="0.5"/>
  </g>
</svg>
