<?xml version="1.0" encoding="UTF-8" standalone="no"?>
<svg xmlns:xlink="http://www.w3.org/1999/xlink" height="38.85px" width="39.25px" xmlns="http://www.w3.org/2000/svg">
  <g transform="matrix(1.0, 0.0, 0.0, 1.0, -255.35, -181.05)">
    <path d="M257.25 193.35 L257.3 193.4 257.2 193.5 257.25 193.35 M265.05 186.95 L265.05 186.85 265.05 186.95" fill="#cccccc" fill-rule="evenodd" stroke="none"/>
    <path d="M257.2 193.5 Q255.35 197.15 255.35 201.45 255.35 209.0 261.05 214.35 L262.0 215.2 263.0 216.0 Q265.15 217.6 267.6 218.55 270.45 219.7 273.7 219.9 L274.95 219.9 Q283.0 219.9 288.7 214.35 294.55 209.0 294.6 201.45 294.55 196.9 292.45 193.1 L291.5 191.65 290.85 190.8 292.35 184.95 287.85 187.65 285.45 185.9 285.2 185.75 285.2 185.7 Q285.25 184.05 282.95 182.7 L282.6 182.5 Q279.95 181.15 276.2 181.05 272.4 180.9 269.6 182.05 267.2 183.1 266.85 184.6 264.75 185.5 262.9 186.85 L260.1 184.0 260.0 189.45 Q258.6 190.95 257.6 192.7 L257.25 193.35 257.2 193.5 257.3 193.4 M285.55 201.4 Q285.55 204.35 282.55 206.35 279.85 208.5 275.85 208.5 L273.05 208.25 Q270.65 207.75 268.7 206.35 266.0 204.35 266.05 201.4 266.0 199.1 267.65 197.25 L267.8 197.1 268.7 196.25 Q269.95 195.4 271.35 194.95 273.4 194.2 275.8 194.2 L275.85 194.2 Q279.65 194.2 282.55 196.2 L283.9 197.25 285.05 198.45 Q285.55 199.9 285.55 201.4 Z" fill="none" stroke="#000000" stroke-linecap="round" stroke-linejoin="round" stroke-width="0.05"/>
    <path d="M282.95 182.75 L283.05 182.75 Q285.25 184.05 285.2 185.7 L285.2 185.75 285.15 185.95 285.1 185.9 285.15 185.95 285.0 186.5 284.95 186.45 285.1 185.9 285.1 185.7 Q285.15 184.05 282.95 182.75" fill="#252525" fill-rule="evenodd" stroke="none"/>
    <path d="M283.55 184.15 L283.6 184.15 283.65 184.25 283.55 184.15 M267.7 186.7 L267.7 186.75 267.6 186.65 267.7 186.7" fill="#707070" fill-rule="evenodd" stroke="none"/>
    <path d="M267.15 185.65 L267.2 185.9 267.7 186.7 267.6 186.65 267.7 186.75 268.0 187.05 267.75 186.95 267.5 186.8 266.95 185.9 267.15 185.65" fill="#151515" fill-rule="evenodd" stroke="none"/>
    <path d="M267.5 186.8 L267.4 186.85 267.3 186.7 267.5 186.8" fill="#000000" fill-rule="evenodd" stroke="none"/>
    <path d="M285.15 185.95 L285.2 185.75 285.45 185.9 287.85 187.65 287.05 188.1 287.05 188.25 286.45 187.35 285.95 186.65 285.15 185.95" fill="#666666" fill-rule="evenodd" stroke="none"/>
    <path d="M280.15 189.35 L282.25 188.6 Q284.35 187.75 284.9 186.5 L284.95 186.45 285.0 186.5 284.15 187.6 282.35 188.6 280.15 189.35" fill="#2b2b2b" fill-rule="evenodd" stroke="none"/>
    <path d="M261.0 184.95 L261.0 184.9 261.0 184.95 M267.45 189.45 L267.6 189.55 267.45 189.5 267.45 189.45" fill="#8c8c8c" fill-rule="evenodd" stroke="none"/>
    <path d="M257.2 193.5 L257.25 193.35 257.3 193.4 257.2 193.5 M260.1 184.05 L260.1 184.0 260.15 184.05 260.1 184.05 M265.05 186.95 L265.05 186.85 265.05 186.95 M274.1 189.6 L275.8 189.7 275.85 189.7 277.65 189.7 275.85 189.75 275.65 189.75 274.1 189.6" fill="#cccccc" fill-rule="evenodd" stroke="none"/>
    <path d="M286.6 190.85 L287.3 190.85 287.4 191.0 286.6 190.85" fill="#272727" fill-rule="evenodd" stroke="none"/>
    <path d="M287.3 190.85 L287.8 191.0 287.4 191.0 287.3 190.85" fill="#1b1b1b" fill-rule="evenodd" stroke="none"/>
    <path d="M283.05 182.75 L282.95 182.75 282.95 182.7 283.05 182.75" fill="#4f9acf" fill-rule="evenodd" stroke="none"/>
    <path d="M268.05 185.0 L269.55 184.4 276.05 183.8 Q279.85 183.95 282.5 184.9 L283.35 185.25 283.35 185.3 Q282.8 186.5 280.7 187.35 278.7 188.3 276.1 188.45 L274.25 188.45 272.05 188.3 Q269.95 188.0 268.25 187.2 L268.1 186.9 267.95 186.65 267.85 185.8 267.95 185.25 268.05 185.0" fill="#3078ad" fill-rule="evenodd" stroke="none"/>
    <path d="M282.95 182.75 Q285.15 184.05 285.1 185.7 L285.1 185.9 284.95 186.45 284.9 186.5 Q284.35 187.75 282.25 188.6 L280.15 189.35 277.75 189.7 277.65 189.7 275.85 189.7 275.8 189.7 274.1 189.6 273.7 189.55 273.6 189.55 Q271.2 189.15 269.3 188.2 268.05 187.55 267.4 186.85 L267.5 186.8 267.75 186.95 268.0 187.05 268.45 187.45 268.25 187.2 Q269.95 188.0 272.05 188.3 L274.25 188.45 276.1 188.45 Q278.7 188.3 280.7 187.35 282.8 186.5 283.35 185.3 L283.35 185.25 283.45 185.05 283.5 184.85 283.55 184.45 283.55 184.15 283.65 184.25 283.6 184.15 283.55 184.1 Q283.45 183.4 282.95 182.75" fill="#1d4767" fill-rule="evenodd" stroke="none"/>
    <path d="M266.85 184.6 L266.8 184.9 266.8 185.05 266.85 185.45 Q265.3 186.0 265.05 186.85 L265.05 186.95 265.05 187.05 263.65 187.7 262.9 186.85 Q264.75 185.5 266.85 184.6 M257.25 193.35 L257.6 192.7 Q258.6 190.95 260.0 189.45 L260.0 190.15 260.3 190.4 Q258.55 191.65 257.3 193.4 L257.25 193.35 M260.0 189.4 L260.1 184.05 260.65 188.6 260.2 189.4 260.0 189.4 M266.8 184.9 Q265.05 185.7 265.05 186.85 265.05 185.7 266.8 184.9" fill="#f4f889" fill-rule="evenodd" stroke="none"/>
    <path d="M287.05 188.25 L287.05 188.1 287.85 187.65 291.2 185.65 290.15 190.4 Q289.3 190.85 287.8 190.0 L287.45 189.75 Q287.0 189.1 287.05 188.25 M266.85 185.45 L266.95 185.9 267.5 186.8 267.3 186.7 267.4 186.85 Q268.05 187.55 269.3 188.2 271.2 189.15 273.6 189.55 L273.7 189.55 274.1 189.6 272.25 190.4 271.0 190.75 272.15 191.0 Q277.2 192.35 276.0 193.45 271.4 193.35 267.0 191.15 265.55 189.95 263.3 190.8 L262.55 191.15 260.25 192.55 Q256.55 195.3 257.2 193.5 L257.3 193.4 Q258.55 191.65 260.3 190.4 L260.35 190.45 260.95 190.65 261.25 190.65 261.9 190.5 262.6 190.3 262.75 190.2 Q265.4 189.35 267.45 189.5 L267.6 189.55 267.45 189.45 266.25 188.75 Q265.25 188.25 264.05 188.1 L263.65 187.7 265.05 187.05 265.05 186.95 265.05 186.85 Q265.3 186.0 266.85 185.45 M260.15 184.05 L261.0 184.95 262.1 188.3 Q261.75 189.35 260.2 189.4 L260.65 188.6 260.1 184.05 260.15 184.05 M271.0 190.75 Q269.35 190.35 268.0 189.75 L267.6 189.55 268.0 189.75 Q269.35 190.35 271.0 190.75 M265.05 187.05 Q265.1 187.9 266.25 188.75 265.1 187.9 265.05 187.05" fill="#eedf2d" fill-rule="evenodd" stroke="none"/>
    <path d="M280.15 189.35 L282.35 188.6 284.15 187.6 284.15 187.8 Q284.05 189.3 280.8 190.4 L275.45 191.35 Q279.85 191.5 283.15 190.4 286.4 189.3 286.45 187.8 L286.45 187.35 287.05 188.25 Q287.0 189.1 287.45 189.75 L287.85 190.2 288.1 190.45 Q288.65 190.95 287.8 191.0 L287.3 190.85 286.6 190.85 285.75 191.15 Q280.75 193.45 276.0 193.45 277.2 192.35 272.15 191.0 L275.0 191.3 275.45 191.35 275.0 191.3 272.15 191.0 271.0 190.75 272.25 190.4 274.1 189.6 275.65 189.75 275.85 189.75 277.65 189.7 277.75 189.7 280.15 189.35 M267.45 189.45 L267.45 189.5 Q265.4 189.35 262.75 190.2 264.4 189.45 264.2 188.25 L264.05 188.1 Q265.25 188.25 266.25 188.75 L267.45 189.45" fill="#d1a818" fill-rule="evenodd" stroke="none"/>
    <path d="M284.15 187.6 L285.0 186.5 285.15 185.95 285.95 186.65 286.45 187.35 286.45 187.8 Q286.4 189.3 283.15 190.4 279.85 191.5 275.45 191.35 L280.8 190.4 Q284.05 189.3 284.15 187.8 L284.15 187.6 M288.1 190.45 L288.4 190.7 Q289.9 191.6 290.8 191.15 L290.85 190.8 291.5 191.65 292.45 193.1 Q292.55 194.45 290.15 192.4 288.9 191.3 287.8 191.0 288.65 190.95 288.1 190.45" fill="#9c7d12" fill-rule="evenodd" stroke="none"/>
    <path d="M291.2 185.65 L292.35 184.95 290.85 190.8 290.8 191.15 Q289.9 191.6 288.4 190.7 L288.1 190.45 287.85 190.2 287.45 189.75 287.8 190.0 Q289.3 190.85 290.15 190.4 L291.2 185.65 M260.0 189.45 L260.0 189.4 260.2 189.4 Q261.75 189.35 262.1 188.3 L261.0 184.95 261.0 184.9 262.9 186.85 263.65 187.7 264.05 188.1 264.2 188.25 Q264.4 189.45 262.75 190.2 L262.6 190.3 261.9 190.5 261.25 190.65 260.95 190.65 260.35 190.45 260.3 190.4 260.0 190.15 260.0 189.45" fill="#f7b00d" fill-rule="evenodd" stroke="none"/>
    <path d="M283.55 184.15 L282.8 183.65 282.45 183.5 282.4 183.45 Q279.95 182.2 276.55 182.1 273.0 181.95 270.45 183.05 269.6 183.4 269.05 183.85 L268.55 184.25 268.05 185.0 267.95 185.25 267.85 185.8 267.95 186.65 268.1 186.9 268.25 187.2 268.45 187.45 268.0 187.05 267.7 186.75 267.7 186.7 267.2 185.9 267.15 185.65 267.15 185.1 267.15 184.75 267.25 184.45 Q267.7 183.2 269.75 182.35 272.3 181.25 275.8 181.4 279.3 181.5 281.75 182.75 L282.1 182.95 283.55 184.1 283.6 184.15 283.55 184.15" fill="#f3e4f8" fill-rule="evenodd" stroke="none"/>
    <path d="M268.05 185.0 L268.55 184.25 269.05 183.85 Q269.6 183.4 270.45 183.05 273.0 181.95 276.55 182.1 279.95 182.2 282.4 183.45 L282.45 183.5 282.8 183.65 283.55 184.15 283.55 184.45 283.5 184.85 283.45 185.05 283.35 185.25 282.5 184.9 Q279.85 183.95 276.05 183.8 L269.55 184.4 268.05 185.0" fill="#75c5df" fill-rule="evenodd" stroke="none"/>
    <path d="M282.95 182.7 L282.95 182.75 Q283.45 183.4 283.55 184.1 L282.1 182.95 281.75 182.75 Q279.3 181.5 275.8 181.4 272.3 181.25 269.75 182.35 267.7 183.2 267.25 184.45 L267.15 184.75 267.15 185.1 267.15 185.65 266.95 185.9 266.85 185.45 266.8 185.05 266.8 184.9 266.85 184.6 Q267.2 183.1 269.6 182.05 272.4 180.9 276.2 181.05 279.95 181.15 282.6 182.5 L282.95 182.7" fill="#a7daeb" fill-rule="evenodd" stroke="none"/>
    <path d="M273.7 219.9 Q270.45 219.7 267.6 218.55 L264.15 215.9 Q258.45 210.55 258.45 203.0 258.45 196.0 263.3 190.8 265.55 189.95 267.0 191.15 271.4 193.35 276.0 193.45 280.75 193.45 285.75 191.15 L286.6 190.85 287.4 191.0 Q291.15 195.7 291.15 201.8 291.15 209.2 285.55 214.45 280.55 219.45 273.7 219.9 M285.1 198.5 L285.05 198.45 283.9 197.25 282.55 196.2 Q279.65 194.2 275.85 194.2 L275.8 194.2 Q273.4 194.2 271.35 194.95 269.95 195.4 268.7 196.25 L267.8 197.1 267.65 197.25 Q264.25 200.35 264.25 204.75 264.25 209.15 267.65 212.2 271.0 215.3 275.8 215.3 L275.95 215.3 276.15 215.3 276.3 215.3 Q279.0 214.9 281.45 213.95 L281.9 213.65 283.9 212.2 Q287.3 209.15 287.3 204.75 287.3 201.2 285.1 198.5" fill="#8b5847" fill-rule="evenodd" stroke="none"/>
    <path d="M267.6 218.55 Q265.15 217.6 263.0 216.0 L262.0 215.2 261.05 214.35 Q255.35 209.0 255.35 201.45 255.35 197.15 257.2 193.5 256.55 195.3 260.25 192.55 L262.55 191.15 263.3 190.8 Q258.45 196.0 258.45 203.0 258.45 210.55 264.15 215.9 L267.6 218.55" fill="#ac705b" fill-rule="evenodd" stroke="none"/>
    <path d="M284.85 198.65 L285.1 198.5 Q287.3 201.2 287.3 204.75 287.3 209.15 283.9 212.2 L281.9 213.65 Q278.0 213.3 275.1 210.65 L273.05 208.25 275.85 208.5 Q279.85 208.5 282.55 206.35 285.55 204.35 285.55 201.4 285.55 199.9 284.85 198.65" fill="#c29687" fill-rule="evenodd" stroke="none"/>
    <path d="M292.45 193.1 Q294.55 196.9 294.6 201.45 294.55 209.0 288.7 214.35 283.0 219.9 274.95 219.9 L273.7 219.9 Q280.55 219.45 285.55 214.45 291.15 209.2 291.15 201.8 291.15 195.7 287.4 191.0 L287.8 191.0 Q288.9 191.3 290.15 192.4 292.55 194.45 292.45 193.1" fill="#704638" fill-rule="evenodd" stroke="none"/>
    <path d="M267.65 197.25 Q266.0 199.1 266.05 201.4 266.0 204.35 268.7 206.35 270.65 207.75 273.05 208.25 L275.1 210.65 Q278.0 213.3 281.9 213.65 L281.45 213.95 Q279.0 214.9 276.3 215.3 L276.15 215.3 275.95 215.3 275.8 215.3 Q271.0 215.3 267.65 212.2 264.25 209.15 264.25 204.75 264.25 200.35 267.65 197.25" fill="#5a392e" fill-rule="evenodd" stroke="none"/>
    <path d="M283.05 182.75 L282.95 182.7 282.6 182.5 Q279.95 181.15 276.2 181.05 272.4 180.9 269.6 182.05 267.2 183.1 266.85 184.6 L266.8 184.9 266.8 185.05 266.85 185.45 266.95 185.9 267.5 186.8 M282.95 182.75 Q285.15 184.05 285.1 185.7 L285.1 185.9 285.15 185.95 285.2 185.75 285.2 185.7 Q285.25 184.05 283.05 182.75 M284.95 186.45 L284.9 186.5 Q284.35 187.75 282.25 188.6 L280.15 189.35 282.35 188.6 284.15 187.6 285.0 186.5 285.15 185.95 285.95 186.65 286.45 187.35 286.45 187.8 Q286.4 189.3 283.15 190.4 279.85 191.5 275.45 191.35 L275.0 191.3 272.15 191.0 271.0 190.75 Q269.35 190.35 268.0 189.75 L267.6 189.55 267.45 189.45 266.25 188.75 Q265.1 187.9 265.05 187.05 L265.05 186.95 265.05 186.85 Q265.05 185.7 266.8 184.9 M284.95 186.45 L285.1 185.9 M287.05 188.25 L287.05 188.1 287.85 187.65 285.45 185.9 285.2 185.75 M290.85 190.8 L292.35 184.95 291.2 185.65 287.85 187.65 M287.45 189.75 L287.85 190.2 288.1 190.45 288.4 190.7 Q289.9 191.6 290.8 191.15 L290.85 190.8 291.5 191.65 292.45 193.1 Q294.55 196.9 294.6 201.45 294.55 209.0 288.7 214.35 283.0 219.9 274.95 219.9 L273.7 219.9 Q270.45 219.7 267.6 218.55 265.15 217.6 263.0 216.0 L262.0 215.2 261.05 214.35 Q255.35 209.0 255.35 201.45 255.35 197.15 257.2 193.5 L257.25 193.35 257.6 192.7 Q258.6 190.95 260.0 189.45 L260.0 189.4 260.1 184.05 260.1 184.0 260.15 184.05 261.0 184.95 M261.0 184.9 L262.9 186.85 Q264.75 185.5 266.85 184.6 M276.0 193.45 Q280.75 193.45 285.75 191.15 L286.6 190.85 287.3 190.85 287.8 191.0 Q288.9 191.3 290.15 192.4 292.55 194.45 292.45 193.1 M287.45 189.75 Q287.0 189.1 287.05 188.25 M287.4 191.0 L287.8 191.0 M287.4 191.0 L286.6 190.85 M285.1 198.5 L285.05 198.45 282.55 196.25 Q279.85 194.25 275.85 194.3 273.4 194.25 271.35 194.95 269.4 195.65 267.8 197.1 L267.65 197.25 Q266.0 199.1 266.05 201.4 266.0 204.35 268.7 206.35 270.65 207.75 273.05 208.25 L275.85 208.5 Q279.85 208.5 282.55 206.35 285.55 204.35 285.55 201.4 285.55 199.9 284.85 198.65 M267.8 197.1 L268.7 196.25 Q269.95 195.4 271.35 194.95 273.4 194.2 275.8 194.2 L275.85 194.2 Q279.65 194.2 282.55 196.2 L283.9 197.25 285.05 198.45 M285.1 198.5 Q287.3 201.2 287.3 204.75 287.3 209.15 283.9 212.2 L281.9 213.65 281.45 213.95 Q279.0 214.9 276.3 215.3 L276.15 215.3 275.95 215.3 275.8 215.3 Q271.0 215.3 267.65 212.2 264.25 209.15 264.25 204.75 264.25 200.35 267.65 197.25 M265.05 186.95 L265.05 186.85 M267.3 186.7 L267.4 186.85 Q268.05 187.55 269.3 188.2 271.2 189.15 273.6 189.55 L273.7 189.55 274.1 189.6 275.8 189.7 275.85 189.7 277.65 189.7 277.75 189.7 280.15 189.35 M257.3 193.4 L257.2 193.5 Q256.55 195.3 260.25 192.55 L262.55 191.15 263.3 190.8 Q265.55 189.95 267.0 191.15 271.4 193.35 276.0 193.45 M277.65 189.7 L275.85 189.75 275.65 189.75 M264.05 188.1 L264.2 188.25 Q264.4 189.45 262.75 190.2 L262.6 190.3 261.9 190.5 261.25 190.65 260.95 190.65 260.35 190.45 260.3 190.4 260.0 190.15 260.0 189.45 M264.05 188.1 L263.65 187.7 262.9 186.85" fill="none" stroke="#000000" stroke-linecap="round" stroke-linejoin="round" stroke-opacity="0.3019608" stroke-width="0.05"/>
  </g>
</svg>
