<?xml version="1.0" encoding="UTF-8" standalone="no"?>
<svg xmlns:xlink="http://www.w3.org/1999/xlink" height="32.95px" width="38.65px" xmlns="http://www.w3.org/2000/svg">
  <g transform="matrix(1.0, 0.0, 0.0, 1.0, -272.15, -202.2)">
    <path d="M296.1 202.25 L300.6 210.2 300.6 213.3 296.1 210.0 296.1 202.25 M287.6 206.9 L296.1 210.0 295.35 213.65 288.5 217.55 294.7 216.4 293.55 222.0 289.95 224.65 289.05 222.5 Q287.05 218.1 280.5 220.45 277.0 221.7 273.75 221.65 272.75 219.5 272.2 217.0 278.4 211.75 281.2 206.9 L284.9 211.95 287.6 206.9 M300.7 226.15 L300.6 213.3 Q303.85 213.45 307.15 215.95 L310.75 224.35 300.7 226.15 M279.35 216.7 L279.35 218.35 281.8 218.35 283.3 216.75 284.7 215.2 281.0 212.85 279.35 215.05 279.35 216.7" fill="#e1dccc" fill-rule="evenodd" stroke="none"/>
    <path d="M296.1 202.25 L296.1 210.0 287.6 206.9 287.6 204.55 290.1 202.25 296.1 202.25 M295.35 213.65 L298.0 218.15 294.7 216.4 288.5 217.55 295.35 213.65 M293.55 222.0 L300.7 226.15 300.1 227.85 Q298.35 226.85 294.3 229.55 292.2 230.35 289.95 226.5 L289.95 224.65 293.55 222.0 M279.35 216.7 L279.35 215.05 281.0 212.85 283.3 216.75 281.8 218.35 279.35 216.7" fill="#c9c5b6" fill-rule="evenodd" stroke="none"/>
    <path d="M300.6 210.2 L296.1 202.25 302.9 205.75 300.6 210.2 M281.8 218.35 L279.35 218.35 279.35 216.7 281.8 218.35" fill="#dad5c5" fill-rule="evenodd" stroke="none"/>
    <path d="M296.1 210.0 L300.6 213.3 300.7 226.15 293.55 222.0 294.7 216.4 298.0 218.15 295.35 213.65 296.1 210.0 M281.2 206.9 L287.6 206.9 284.9 211.95 281.2 206.9 M281.0 212.85 L284.7 215.2 283.3 216.75 281.0 212.85" fill="#a6a397" fill-rule="evenodd" stroke="none"/>
    <path d="M310.75 224.35 L303.15 229.75 Q303.25 228.8 300.1 227.85 L300.7 226.15 310.75 224.35" fill="#8d887d" fill-rule="evenodd" stroke="none"/>
    <path d="M303.15 229.75 L298.25 233.25 Q291.3 236.05 284.0 234.65 281.7 230.0 278.8 228.5 276.5 226.5 274.9 223.9 L278.25 224.4 278.4 224.85 Q279.1 226.45 279.9 226.45 280.5 226.45 280.5 225.7 L280.05 224.85 280.9 225.1 280.9 225.15 280.9 225.8 Q281.05 226.45 281.7 226.45 282.1 226.45 282.3 225.55 284.4 226.3 286.35 227.3 L287.75 227.95 287.7 228.55 287.7 229.45 Q287.85 230.2 288.45 230.2 L288.75 230.05 289.15 230.5 Q289.95 230.5 290.3 229.3 294.45 231.6 295.45 233.25 L298.25 233.25 300.1 227.85 Q303.25 228.8 303.15 229.75 M289.1 228.65 L289.3 228.75 289.05 229.0 289.1 228.65 M290.25 233.05 Q290.95 233.05 291.7 231.0 291.6 230.35 290.95 230.35 L289.6 232.35 Q289.6 233.05 290.25 233.05 M287.5 233.45 L288.3 234.1 Q289.0 234.1 289.6 231.55 289.6 230.85 288.9 230.85 L287.5 233.45 M284.35 227.25 L284.0 227.35 Q283.75 226.9 283.5 226.9 282.85 226.9 282.85 227.85 L282.9 228.15 Q282.4 226.9 281.85 226.9 281.2 226.9 281.2 227.65 L282.55 230.5 Q283.3 230.5 283.3 229.6 L283.2 229.2 Q283.45 229.6 283.9 229.6 L284.4 229.35 284.5 229.35 Q285.25 229.35 285.25 228.65 285.15 227.25 284.35 227.25 M284.0 234.65 L286.35 227.3 284.0 234.65" fill="#63591d" fill-opacity="0.6117647" fill-rule="evenodd" stroke="none"/>
    <path d="M274.9 223.9 L273.75 221.65 Q277.0 221.7 280.5 220.45 287.05 218.1 289.05 222.5 L289.95 224.65 289.95 226.5 Q292.2 230.35 294.3 229.55 298.35 226.85 300.1 227.85 L298.25 233.25 295.45 233.25 Q294.45 231.6 290.3 229.3 L290.4 228.95 Q290.4 228.25 289.75 228.25 L289.3 228.75 289.1 228.65 289.15 227.2 Q289.15 226.45 288.45 226.45 287.8 226.45 287.75 227.95 L286.35 227.3 289.95 224.65 286.35 227.3 Q284.4 226.3 282.3 225.55 L282.45 223.6 Q282.45 222.85 281.8 222.85 280.9 222.85 280.9 225.1 L280.05 224.85 278.55 222.25 Q277.9 222.25 277.9 223.2 L278.25 224.4 274.9 223.9" fill="#76751f" fill-opacity="0.6" fill-rule="evenodd" stroke="none"/>
    <path d="M287.75 227.95 Q287.8 226.45 288.45 226.45 289.15 226.45 289.15 227.2 L289.1 228.65 289.05 229.0 289.3 228.75 289.75 228.25 Q290.4 228.25 290.4 228.95 L290.3 229.3 Q289.95 230.5 289.15 230.5 L288.75 230.05 288.45 230.2 Q287.85 230.2 287.7 229.45 L287.7 228.55 287.75 227.95 M284.35 227.25 Q285.15 227.25 285.25 228.65 285.25 229.35 284.5 229.35 L284.4 229.35 283.9 229.6 Q283.45 229.6 283.2 229.2 L283.3 229.6 Q283.3 230.5 282.55 230.5 L281.2 227.65 Q281.2 226.9 281.85 226.9 282.4 226.9 282.9 228.15 L282.85 227.85 Q282.85 226.9 283.5 226.9 283.75 226.9 284.0 227.35 L284.35 227.25 M287.5 233.45 L288.9 230.85 Q289.6 230.85 289.6 231.55 289.0 234.1 288.3 234.1 L287.5 233.45 M290.25 233.05 Q289.6 233.05 289.6 232.35 L290.95 230.35 Q291.6 230.35 291.7 231.0 290.95 233.05 290.25 233.05 M280.9 225.1 Q280.9 222.85 281.8 222.85 282.45 222.85 282.45 223.6 L282.3 225.55 Q282.1 226.45 281.7 226.45 281.05 226.45 280.9 225.8 L280.9 225.15 280.9 225.1 M280.05 224.85 L280.5 225.7 Q280.5 226.45 279.9 226.45 279.1 226.45 278.4 224.85 L278.25 224.4 277.9 223.2 Q277.9 222.25 278.55 222.25 L280.05 224.85" fill="#989827" fill-rule="evenodd" stroke="none"/>
    <path d="M300.6 210.2 L296.1 202.25 296.1 210.0 300.6 213.3 300.7 226.15 310.75 224.35 M287.6 206.9 L296.1 210.0 295.35 213.65 298.0 218.15 294.7 216.4 293.55 222.0 300.7 226.15 300.1 227.85 Q303.25 228.8 303.15 229.75 M287.6 206.9 L284.9 211.95 281.2 206.9 M294.7 216.4 L288.5 217.55 295.35 213.65 M290.3 229.3 Q294.45 231.6 295.45 233.25 L298.25 233.25 300.1 227.85 M286.35 227.3 L287.75 227.95 M286.35 227.3 L284.0 234.65 M289.95 224.65 L289.05 222.5 Q287.05 218.1 280.5 220.45 277.0 221.7 273.75 221.65 M293.55 222.0 L289.95 224.65 M281.8 218.35 L279.35 218.35 279.35 216.7 279.35 215.05 281.0 212.85 284.7 215.2 283.3 216.75 281.8 218.35 M282.3 225.55 Q284.4 226.3 286.35 227.3 M278.25 224.4 L274.9 223.9" fill="none" stroke="#28383e" stroke-linecap="round" stroke-linejoin="round" stroke-opacity="0.5019608" stroke-width="0.1"/>
    <path d="M300.6 210.2 L302.9 205.75 296.1 202.25 290.1 202.25 287.6 204.55 287.6 206.9 281.2 206.9 Q278.4 211.75 272.2 217.0 272.75 219.5 273.75 221.65 M300.6 213.3 Q303.85 213.45 307.15 215.95 L310.75 224.35 303.15 229.75 298.25 233.25 Q291.3 236.05 284.0 234.65 281.7 230.0 278.8 228.5 276.5 226.5 274.9 223.9" fill="none" stroke="#000000" stroke-linecap="round" stroke-linejoin="round" stroke-width="0.1"/>
    <path d="M300.6 213.3 L300.6 210.2 M274.9 223.9 L273.75 221.65 M289.95 224.65 L286.35 227.3 M289.1 228.65 L289.3 228.75 M280.9 225.1 L280.05 224.85" fill="none" stroke="#000000" stroke-linecap="round" stroke-linejoin="round" stroke-opacity="0.6" stroke-width="0.05"/>
    <path d="M281.8 218.35 L279.35 216.7 M281.0 212.85 L283.3 216.75" fill="none" stroke="#000000" stroke-linecap="round" stroke-linejoin="round" stroke-width="0.05"/>
  </g>
</svg>
