<?xml version="1.0" encoding="UTF-8" standalone="no"?>
<svg xmlns:xlink="http://www.w3.org/1999/xlink" height="7.3px" width="7.95px" xmlns="http://www.w3.org/2000/svg">
  <g transform="matrix(1.0, 0.0, 0.0, 1.0, -10.15, 16.35)">
    <path d="M10.7 -13.8 Q11.3 -15.25 12.0 -15.7 L13.8 -16.35 13.8 -16.0 12.95 -15.75 Q12.25 -15.45 12.25 -15.0 12.25 -14.6 12.95 -14.3 L13.2 -14.2 14.65 -13.95 15.15 -14.0 12.7 -13.2 10.7 -13.8 M15.5 -14.05 L15.9 -14.15 16.35 -14.3 16.7 -14.5 17.0 -14.85 17.05 -15.0 17.05 -15.05 16.7 -15.55 16.7 -16.1 17.55 -15.35 17.8 -15.0 17.8 -14.9 17.85 -14.85 17.95 -14.55 17.95 -14.5 17.95 -14.4 18.1 -13.55 18.1 -12.85 18.1 -12.0 17.95 -10.5 15.5 -14.05" fill="#35484a" fill-rule="evenodd" stroke="none"/>
    <path d="M15.15 -14.0 L15.5 -14.05 17.95 -10.5 Q17.6 -9.25 16.85 -9.1 15.7 -8.85 14.55 -10.9 L14.45 -11.1 14.15 -11.6 Q13.05 -13.25 11.45 -12.05 9.65 -10.7 10.35 -12.85 L10.35 -12.9 10.7 -13.8 12.7 -13.2 15.15 -14.0" fill="#2b3c3c" fill-rule="evenodd" stroke="none"/>
  </g>
</svg>
