<?xml version="1.0" encoding="UTF-8" standalone="no"?>
<svg xmlns:xlink="http://www.w3.org/1999/xlink" height="291.15px" width="123.7px" xmlns="http://www.w3.org/2000/svg">
  <g transform="matrix(1.0, 0.0, 0.0, 1.0, 0.1, 0.1)">
    <path d="M102.4 59.55 L123.5 89.0 Q101.4 116.55 83.75 147.65 74.3 128.0 71.65 100.2 86.45 77.3 102.4 59.55" fill="#d3a867" fill-rule="evenodd" stroke="none"/>
    <path d="M67.7 10.6 Q74.3 4.95 81.5 0.0 85.7 34.15 102.4 59.55 86.45 77.3 71.65 100.2 62.65 58.55 67.7 10.6" fill="#ddb188" fill-rule="evenodd" stroke="none"/>
    <path d="M0.7 149.05 Q1.1 142.2 1.8 135.25 12.6 141.65 30.9 184.1 28.6 193.1 27.05 202.15 15.6 166.1 0.7 149.05 M58.0 19.4 Q62.65 14.8 67.7 10.6 62.65 58.55 71.65 100.2 65.35 109.95 59.25 120.65 52.65 75.35 58.0 19.4 M52.0 104.75 Q52.0 110.45 47.95 114.45 43.95 118.5 38.25 118.5 32.55 118.5 28.5 114.45 24.5 110.45 24.5 104.75 24.5 99.05 28.5 95.0 32.55 91.0 38.25 91.0 43.95 91.0 47.95 95.0 52.0 99.05 52.0 104.75" fill="#ecd5bd" fill-rule="evenodd" stroke="none"/>
    <path d="M1.8 135.25 Q2.85 124.8 4.5 114.0 21.0 55.6 58.0 19.4 52.65 75.35 59.25 120.65 52.25 132.8 45.55 146.25 44.05 144.95 42.0 144.95 39.7 144.95 38.1 146.55 36.5 148.15 36.5 150.45 36.5 152.75 38.1 154.35 L39.95 155.6 Q34.5 169.85 30.9 184.1 12.6 141.65 1.8 135.25 M52.0 104.75 Q52.0 99.05 47.95 95.0 43.95 91.0 38.25 91.0 32.55 91.0 28.5 95.0 24.5 99.05 24.5 104.75 24.5 110.45 28.5 114.45 32.55 118.5 38.25 118.5 43.95 118.5 47.95 114.45 52.0 110.45 52.0 104.75" fill="#f8eee4" fill-rule="evenodd" stroke="none"/>
    <path d="M83.75 147.65 Q71.7 168.75 61.7 191.55 64.7 143.4 59.25 120.65 65.35 109.95 71.65 100.2 74.3 128.0 83.75 147.65 M47.85 226.7 Q43.35 239.3 39.5 252.45 33.9 223.85 27.05 202.15 28.6 193.1 30.9 184.1 38.65 202.1 47.85 226.7 M45.55 146.25 L45.9 146.55 Q47.5 148.15 47.5 150.45 47.5 152.75 45.9 154.35 44.3 155.95 42.0 155.95 L39.95 155.6 38.1 154.35 Q36.5 152.75 36.5 150.45 36.5 148.15 38.1 146.55 39.7 144.95 42.0 144.95 44.05 144.95 45.55 146.25" fill="#debe8f" fill-rule="evenodd" stroke="none"/>
    <path d="M61.7 191.55 Q54.2 208.65 47.85 226.7 38.65 202.1 30.9 184.1 34.5 169.85 39.95 155.6 L42.0 155.95 Q44.3 155.95 45.9 154.35 47.5 152.75 47.5 150.45 47.5 148.15 45.9 146.55 L45.55 146.25 Q52.25 132.8 59.25 120.65 64.7 143.4 61.7 191.55" fill="#f1e4d1" fill-rule="evenodd" stroke="none"/>
    <path d="M29.5 290.95 Q6.9 251.4 1.65 201.85 L3.5 201.95 Q8.9 201.95 12.7 198.15 16.5 194.35 16.5 188.95 16.5 183.55 12.7 179.75 8.9 175.95 3.5 175.95 L0.05 176.4 Q-0.2 163.05 0.7 149.05 15.6 166.1 27.05 202.15 19.3 246.65 29.5 290.95" fill="#f0e0ca" fill-rule="evenodd" stroke="none"/>
    <path d="M39.5 252.45 Q33.9 271.2 29.5 290.95 19.3 246.65 27.05 202.15 33.9 223.85 39.5 252.45" fill="#e3c89d" fill-rule="evenodd" stroke="none"/>
    <path d="M102.4 59.55 L123.5 89.0 Q101.4 116.55 83.75 147.65 71.7 168.75 61.7 191.55 54.2 208.65 47.85 226.7 43.35 239.3 39.5 252.45 33.9 271.2 29.5 290.95 6.9 251.4 1.65 201.85 L3.5 201.95 Q8.9 201.95 12.7 198.15 16.5 194.35 16.5 188.95 16.5 183.55 12.7 179.75 8.9 175.95 3.5 175.95 L0.05 176.4 Q-0.2 163.05 0.7 149.05 1.1 142.2 1.8 135.25 2.85 124.8 4.5 114.0 21.0 55.6 58.0 19.4 62.65 14.8 67.7 10.6 74.3 4.95 81.5 0.0 85.7 34.15 102.4 59.55 Z" fill="none" stroke="#000000" stroke-linecap="round" stroke-linejoin="round" stroke-opacity="0.32156864" stroke-width="0.2"/>
  </g>
</svg>
