<?xml version="1.0" encoding="UTF-8" standalone="no"?>
<svg xmlns:xlink="http://www.w3.org/1999/xlink" height="204.05px" width="143.95px" xmlns="http://www.w3.org/2000/svg">
  <g transform="matrix(1.0, 0.0, 0.0, 1.0, -162.35, -128.0)">
    <path d="M274.2 189.95 L274.1 190.0 274.1 189.75 274.2 189.95" fill="#981314" fill-rule="evenodd" stroke="none"/>
    <path d="M201.8 246.05 L201.8 240.3 202.1 246.4 201.8 246.05" fill="#dca8a0" fill-rule="evenodd" stroke="none"/>
    <path d="M197.7 189.85 L197.65 189.8 197.7 189.8 197.7 189.85 M248.3 195.6 L248.65 195.95 248.45 196.05 248.3 195.6" fill="#c84311" fill-rule="evenodd" stroke="none"/>
    <path d="M286.6 171.2 L285.75 174.45 Q284.3 169.15 282.15 164.5 L282.65 165.2 286.6 171.2" fill="#caf37b" fill-rule="evenodd" stroke="none"/>
    <path d="M176.5 177.35 Q176.0 192.15 190.2 207.35 208.7 222.45 233.6 221.75 257.45 223.1 272.85 212.3 294.5 199.25 293.65 174.8 L304.0 184.15 277.65 237.0 206.0 237.0 184.15 212.8 167.6 195.4 176.5 177.35 M274.1 190.0 L272.65 191.05 Q272.45 187.75 270.6 185.0 L271.15 184.4 Q271.95 183.45 272.9 182.65 L273.6 182.35 Q274.2 182.15 274.6 182.6 L274.85 182.85 274.8 184.5 274.8 184.65 274.85 186.45 Q274.9 188.1 274.25 189.5 L274.1 189.75 274.1 190.0 M258.25 198.25 L256.1 198.95 253.6 199.7 Q237.35 204.2 221.15 200.4 L221.4 199.8 222.95 199.05 Q223.0 197.8 222.05 196.85 L220.9 195.7 218.6 194.65 217.35 193.6 217.3 193.4 Q217.1 192.9 217.55 192.85 L218.85 192.6 220.4 192.6 Q222.95 195.95 226.85 196.5 L229.15 196.2 230.15 194.9 230.4 190.05 227.35 188.0 226.3 187.45 Q226.5 184.0 225.4 180.9 L225.0 180.3 Q219.7 178.4 218.1 182.8 L216.8 186.7 215.25 187.7 213.7 187.7 Q212.0 186.45 211.45 184.2 L210.6 182.35 208.35 181.45 205.75 181.3 204.95 181.3 Q203.75 181.8 203.5 183.1 202.95 185.45 203.15 188.0 L198.3 188.25 Q197.5 188.8 197.7 189.8 L197.65 189.8 194.65 187.3 Q189.0 182.3 186.1 176.95 L187.25 174.8 Q196.2 158.7 215.2 153.6 L219.65 152.8 219.8 152.8 Q228.35 154.0 236.85 156.1 246.5 158.55 254.55 164.65 261.15 169.55 261.9 177.1 259.5 175.85 256.85 175.15 255.7 177.85 253.75 179.6 251.2 181.8 247.4 182.35 246.35 182.35 245.55 183.1 L245.55 184.9 247.5 188.05 247.85 189.0 Q247.75 189.7 247.1 189.9 245.9 190.25 245.0 191.25 L244.8 191.3 Q245.6 193.15 247.35 194.45 248.0 194.95 248.3 195.6 L248.45 196.05 245.55 197.2 Q249.7 198.7 254.6 197.6 L256.85 197.45 258.25 198.25 M163.05 201.35 L201.8 246.05 201.8 329.9 166.1 288.0 164.85 239.95 163.05 201.35 M276.65 323.85 L279.15 241.55 305.5 190.3 303.15 220.85 299.75 279.9 276.65 323.85 M203.45 273.6 Q205.9 264.8 213.95 262.05 L215.25 261.7 215.25 263.25 Q218.2 260.25 222.25 259.0 224.6 258.25 227.1 258.1 228.65 260.2 230.85 261.8 233.6 263.65 236.85 264.25 L241.95 259.65 244.4 259.65 Q247.95 259.5 251.2 258.1 251.85 250.95 258.5 249.95 L268.2 249.35 Q274.6 280.3 262.55 308.95 L255.35 312.05 Q244.4 330.95 221.9 321.95 216.7 319.8 211.0 319.0 207.6 318.35 205.55 315.35 L203.45 273.6" fill="#38a8ad" fill-rule="evenodd" stroke="none"/>
    <path d="M183.5 170.4 Q184.5 161.75 190.8 154.75 L191.1 154.3 195.75 149.95 Q210.05 139.05 228.35 139.95 240.5 140.0 252.1 143.2 257.05 144.6 261.8 147.25 266.8 150.0 271.35 153.55 277.45 158.2 282.15 164.5 284.3 169.15 285.75 174.45 L285.55 175.0 Q284.5 177.95 282.85 180.65 280.3 170.05 269.2 162.2 263.75 158.35 256.25 155.15 L255.95 155.0 Q243.0 151.3 229.7 151.8 L219.8 152.8 219.65 152.8 215.2 153.6 Q196.2 158.7 187.25 174.8 L186.1 176.95 184.95 174.6 Q184.0 172.55 183.5 170.4 M201.8 240.3 L206.0 237.0 277.65 237.0 271.45 327.6 206.35 331.55 205.55 315.35 Q207.6 318.35 211.0 319.0 216.7 319.8 221.9 321.95 244.4 330.95 255.35 312.05 L262.55 308.95 Q274.6 280.3 268.2 249.35 L258.5 249.95 Q251.85 250.95 251.2 258.1 247.95 259.5 244.4 259.65 L241.95 259.65 236.85 264.25 Q233.6 263.65 230.85 261.8 228.65 260.2 227.1 258.1 224.6 258.25 222.25 259.0 218.2 260.25 215.25 263.25 L215.25 261.7 213.95 262.05 Q205.9 264.8 203.45 273.6 L202.1 246.4 201.8 240.3 M211.05 145.15 Q198.2 146.7 189.6 157.55 198.2 146.7 211.05 145.15 M268.55 153.75 Q251.35 141.75 225.65 143.4 251.35 141.75 268.55 153.75" fill="#ceebf5" fill-rule="evenodd" stroke="none"/>
    <path d="M176.7 174.55 L176.5 177.35 167.6 195.4 184.15 212.8 206.0 237.0 201.8 240.3 201.8 246.05 163.05 201.35 162.85 197.05 176.7 174.55 M181.75 216.2 L184.15 212.8 181.75 216.2 M304.0 184.15 L305.8 186.55 305.5 190.3 279.15 241.55 276.65 323.85 271.45 327.6 277.65 237.0 304.0 184.15 M205.55 315.35 L206.35 331.55 201.8 329.9 201.8 246.05 202.1 246.4 203.45 273.6 205.55 315.35" fill="#f5fcfc" fill-rule="evenodd" stroke="none"/>
    <path d="M282.85 180.65 L280.8 183.55 Q278.05 187.0 274.2 189.95 L274.1 189.75 274.25 189.5 Q274.9 188.1 274.85 186.45 L274.8 184.65 274.8 184.5 274.85 182.85 274.6 182.6 Q274.2 182.15 273.6 182.35 L272.9 182.65 Q271.95 183.45 271.15 184.4 L270.6 185.0 Q272.45 187.75 272.65 191.05 266.95 195.0 259.1 197.9 L258.25 198.25 256.85 197.45 254.6 197.6 Q249.7 198.7 245.55 197.2 L248.45 196.05 248.65 195.95 248.3 195.6 Q248.0 194.95 247.35 194.45 245.6 193.15 244.8 191.3 L245.0 191.25 Q245.9 190.25 247.1 189.9 247.75 189.7 247.85 189.0 L247.5 188.05 245.55 184.9 245.55 183.1 Q246.35 182.35 247.4 182.35 251.2 181.8 253.75 179.6 255.7 177.85 256.85 175.15 259.5 175.85 261.9 177.1 261.15 169.55 254.55 164.65 246.5 158.55 236.85 156.1 228.35 154.0 219.8 152.8 L229.7 151.8 Q243.0 151.3 255.95 155.0 L256.25 155.15 Q263.75 158.35 269.2 162.2 280.3 170.05 282.85 180.65 M221.15 200.4 Q211.6 198.1 202.05 193.0 L199.7 191.35 197.7 189.85 197.7 189.8 Q197.5 188.8 198.3 188.25 L203.15 188.0 Q202.95 185.45 203.5 183.1 203.75 181.8 204.95 181.3 L205.75 181.3 208.35 181.45 210.6 182.35 211.45 184.2 Q212.0 186.45 213.7 187.7 L215.25 187.7 216.8 186.7 218.1 182.8 Q219.7 178.4 225.0 180.3 L225.4 180.9 Q226.5 184.0 226.3 187.45 L227.35 188.0 230.4 190.05 230.15 194.9 229.15 196.2 226.85 196.5 Q222.95 195.95 220.4 192.6 L218.85 192.6 217.55 192.85 Q217.1 192.9 217.3 193.4 L217.35 193.6 218.6 194.65 220.9 195.7 222.05 196.85 Q223.0 197.8 222.95 199.05 L221.4 199.8 221.15 200.4" fill="#28777b" fill-rule="evenodd" stroke="none"/>
    <path d="M282.15 164.5 Q277.45 158.2 271.35 153.55 266.8 150.0 261.8 147.25 257.05 144.6 252.1 143.2 240.5 140.0 228.35 139.95 210.05 139.05 195.75 149.95 L191.1 154.3 190.8 154.75 Q184.5 161.75 183.5 170.4 184.0 172.55 184.95 174.6 L186.1 176.95 Q189.0 182.3 194.65 187.3 L197.65 189.8 197.7 189.85 199.7 191.35 202.05 193.0 Q211.6 198.1 221.15 200.4 237.35 204.2 253.6 199.7 L256.1 198.95 258.25 198.25 259.1 197.9 Q266.95 195.0 272.65 191.05 L274.1 190.0 274.2 189.95 Q278.05 187.0 280.8 183.55 L282.85 180.65 Q284.5 177.95 285.55 175.0 L285.75 174.45 286.6 171.2 Q288.4 162.8 286.0 152.5 288.4 162.8 286.6 171.2 L282.65 165.2 282.15 164.5 Q278.85 157.55 273.85 152.0 255.25 133.0 212.8 137.35 255.25 133.0 273.85 152.0 278.85 157.55 282.15 164.5 M176.7 174.55 Q176.45 170.1 177.35 165.8 178.3 161.2 180.5 156.8 191.9 135.85 215.95 130.05 242.1 125.45 264.4 134.45 278.15 141.45 286.0 152.5 292.0 162.55 293.65 174.8 294.5 199.25 272.85 212.3 257.45 223.1 233.6 221.75 208.7 222.45 190.2 207.35 176.0 192.15 176.5 177.35 L176.7 174.55 M198.9 196.65 L196.85 195.5 Q185.05 188.5 182.75 180.0 185.05 188.5 196.85 195.5 L198.9 196.65 M280.95 199.15 Q289.5 186.85 290.25 177.2 289.5 186.85 280.95 199.15 M257.45 215.45 Q236.15 220.9 215.3 215.45 236.15 220.9 257.45 215.45 M275.9 200.45 Q253.5 216.5 223.15 212.55 201.1 209.4 186.8 195.9 201.1 209.4 223.15 212.55 253.5 216.5 275.9 200.45" fill="#e4f4fa" fill-rule="evenodd" stroke="none"/>
    <path d="M282.15 164.5 Q278.85 157.55 273.85 152.0 255.25 133.0 212.8 137.35 M286.0 152.5 Q278.15 141.45 264.4 134.45 242.1 125.45 215.95 130.05 191.9 135.85 180.5 156.8 178.3 161.2 177.35 165.8 176.45 170.1 176.7 174.55 L176.5 177.35 Q176.0 192.15 190.2 207.35 208.7 222.45 233.6 221.75 257.45 223.1 272.85 212.3 294.5 199.25 293.65 174.8 292.0 162.55 286.0 152.5 288.4 162.8 286.6 171.2 L285.75 174.45 285.55 175.0 Q284.5 177.95 282.85 180.65 L280.8 183.55 Q278.05 187.0 274.2 189.95 L274.1 190.0 272.65 191.05 Q266.95 195.0 259.1 197.9 L258.25 198.25 256.1 198.95 253.6 199.7 Q237.35 204.2 221.15 200.4 211.6 198.1 202.05 193.0 L199.7 191.35 197.7 189.85 197.65 189.8 194.65 187.3 Q189.0 182.3 186.1 176.95 L184.95 174.6 Q184.0 172.55 183.5 170.4 M184.15 212.8 L167.6 195.4 176.5 177.35 M176.7 174.55 L162.85 197.05 163.05 201.35 201.8 246.05 201.8 240.3 206.0 237.0 184.15 212.8 181.75 216.2 M186.1 176.95 L187.25 174.8 Q196.2 158.7 215.2 153.6 L219.65 152.8 219.8 152.8 229.7 151.8 Q243.0 151.3 255.95 155.0 L256.25 155.15 Q263.75 158.35 269.2 162.2 280.3 170.05 282.85 180.65 M182.75 180.0 Q185.05 188.5 196.85 195.5 L198.9 196.65 M189.6 157.55 Q198.2 146.7 211.05 145.15 M305.5 190.3 L305.8 186.55 304.0 184.15 277.65 237.0 271.45 327.6 276.65 323.85 279.15 241.55 305.5 190.3 303.15 220.85 299.75 279.9 276.65 323.85 M304.0 184.15 L293.65 174.8 M282.15 164.5 Q284.3 169.15 285.75 174.45 M225.65 143.4 Q251.35 141.75 268.55 153.75 M205.55 315.35 L206.35 331.55 271.45 327.6 M202.1 246.4 L201.8 240.3 M201.8 246.05 L202.1 246.4 203.45 273.6 205.55 315.35 M163.05 201.35 L164.85 239.95 166.1 288.0 201.8 329.9 201.8 246.05 M201.8 329.9 L206.35 331.55 M206.0 237.0 L277.65 237.0 M186.8 195.9 Q201.1 209.4 223.15 212.55 253.5 216.5 275.9 200.45 M215.3 215.45 Q236.15 220.9 257.45 215.45 M290.25 177.2 Q289.5 186.85 280.95 199.15" fill="none" stroke="#000000" stroke-linecap="round" stroke-linejoin="round" stroke-opacity="0.4" stroke-width="1.0"/>
  </g>
</svg>
