<?xml version="1.0" encoding="UTF-8" standalone="no"?>
<svg xmlns:xlink="http://www.w3.org/1999/xlink" height="47.05px" width="33.95px" xmlns="http://www.w3.org/2000/svg">
  <g transform="matrix(1.0, 0.0, 0.0, 1.0, 16.95, 23.55)">
    <path d="M1.55 3.0 L1.5 3.05 0.65 4.4 0.45 4.75 0.25 5.05 0.1 5.3 -0.05 5.55 -0.55 6.4 -3.9 11.8 -4.25 12.35 -4.7 13.1 -5.05 13.6 -5.1 13.7 -5.5 14.35 -5.8 14.85 -7.15 17.05 -7.5 17.5 -10.7 22.55 Q-13.35 24.35 -15.6 22.45 L-14.8 18.25 -12.7 19.3 -11.05 16.8 -12.85 14.95 -12.2 15.15 -10.45 15.55 Q-7.55 12.65 -9.7 9.55 -8.1 10.45 -6.9 9.95 L-5.3 7.5 -7.1 5.65 -6.45 5.85 -4.6 6.25 -2.95 2.85 -5.9 0.9 -5.4 0.05 -4.45 -1.4 1.5 2.3 1.55 3.0" fill="#58382b" fill-rule="evenodd" stroke="none"/>
    <path d="M-15.6 22.45 Q-17.45 21.05 -16.7 18.5 L-13.45 13.1 -13.7 13.5 -11.65 10.2 -11.15 9.35 -10.2 7.9 -7.7 3.8 -7.95 4.2 -5.9 0.9 -2.95 2.85 -4.6 6.25 -6.45 5.85 -7.1 5.65 -5.3 7.5 -6.9 9.95 Q-8.1 10.45 -9.7 9.55 -7.55 12.65 -10.45 15.55 L-12.2 15.15 -12.85 14.95 -11.05 16.8 -12.7 19.3 -14.8 18.25 -15.6 22.45" fill="#a1664c" fill-rule="evenodd" stroke="none"/>
    <path d="M8.45 -15.4 L8.2 -14.9 -0.7 -0.25 -0.75 -0.2 -4.0 -2.3 -4.0 -2.35 -3.95 -2.35 8.45 -15.4 M-11.05 23.05 L-11.45 23.5 -11.05 23.05" fill="#ffffff" fill-rule="evenodd" stroke="none"/>
    <path d="M1.85 2.5 L1.8 2.55 1.55 3.0 1.5 2.3 1.85 2.5 M9.1 6.85 L9.6 6.35 9.0 6.95 9.1 6.85" fill="#abcdd1" fill-rule="evenodd" stroke="none"/>
    <path d="M11.05 -22.2 L11.45 -22.15 11.6 -21.95 Q20.95 -8.9 8.25 5.2 L2.9 1.9 8.8 -15.8 8.55 -15.5 8.2 -14.9 8.45 -15.4 9.2 -16.8 9.95 -19.6 11.05 -22.2" fill="#999999" fill-rule="evenodd" stroke="none"/>
    <path d="M11.05 -22.2 L9.95 -19.6 9.2 -16.8 8.45 -15.4 -3.95 -2.35 -10.3 -6.3 Q-3.0 -24.65 11.05 -22.2" fill="#e1e1e1" fill-rule="evenodd" stroke="none"/>
    <path d="M-4.45 -1.4 L-11.35 -5.7 -11.0 -6.8 Q-3.95 -26.15 10.75 -23.1 L11.45 -22.95 11.85 -22.85 Q23.05 -11.3 9.55 6.15 L8.9 6.9 1.85 2.5 1.5 2.3 -4.45 -1.4 M8.2 -14.9 L8.55 -15.5 8.8 -15.8 2.9 1.9 8.25 5.2 Q20.95 -8.9 11.6 -21.95 L11.45 -22.15 11.05 -22.2 Q-3.0 -24.65 -10.3 -6.3 L-3.95 -2.35 -4.0 -2.35 -4.0 -2.3 -0.75 -0.2 -0.7 -0.25 8.2 -14.9" fill="#606060" fill-rule="evenodd" stroke="none"/>
    <path d="M-4.45 -1.4 L-11.35 -5.7 -11.0 -6.8 Q-3.95 -26.15 10.75 -23.1 L11.45 -22.95 11.85 -22.85 Q23.05 -11.3 9.55 6.15 L8.9 6.9 1.85 2.5 M-15.6 22.45 Q-17.45 21.05 -16.7 18.5 L-13.45 13.1 M-13.7 13.5 L-11.65 10.2 -11.15 9.35 -10.2 7.9 -7.7 3.8 M-7.95 4.2 L-5.9 0.9 M9.1 6.85 L9.0 6.95" fill="none" stroke="#69513b" stroke-linecap="round" stroke-linejoin="round" stroke-width="0.1"/>
    <path d="M1.85 2.5 L1.8 2.55 1.55 3.0 1.5 3.05 0.65 4.4 0.45 4.75 0.25 5.05 0.1 5.3 -0.05 5.55 -0.55 6.4 -3.9 11.8 -4.25 12.35 -4.7 13.1 -5.05 13.6 -5.1 13.7 -5.5 14.35 -5.8 14.85 -7.15 17.05 -7.5 17.5 -10.7 22.55 Q-13.35 24.35 -15.6 22.45 M-5.9 0.9 L-5.4 0.05 -4.45 -1.4 1.5 2.3 1.85 2.5" fill="none" stroke="#69513b" stroke-linecap="round" stroke-linejoin="round" stroke-width="0.1"/>
  </g>
</svg>
