<?xml version="1.0" encoding="UTF-8" standalone="no"?>
<svg xmlns:xlink="http://www.w3.org/1999/xlink" height="83.15px" width="93.75px" xmlns="http://www.w3.org/2000/svg">
  <g transform="matrix(1.0, 0.0, 0.0, 1.0, -163.0, -236.05)">
    <path d="M247.45 287.15 L248.6 288.55 249.25 289.4 Q250.05 293.65 249.0 295.35 247.05 290.35 242.0 285.35 L242.05 285.35 Q244.35 285.65 247.45 287.15 M240.4 287.5 L244.05 292.25 Q234.65 297.5 224.45 297.2 L224.65 299.1 Q224.6 302.3 224.15 305.2 221.95 306.1 220.2 305.8 219.45 286.6 215.55 277.8 216.8 276.8 220.15 281.2 L218.05 277.2 224.15 278.2 Q229.0 283.75 240.4 287.5 M186.65 271.95 Q183.25 265.3 182.35 256.15 L185.35 252.2 Q186.3 254.15 187.6 256.0 188.3 264.85 212.3 275.75 216.2 284.9 215.95 295.9 210.6 296.0 205.5 294.05 194.75 284.9 182.6 279.45 L190.4 279.05 Q188.6 276.3 186.65 271.95 M224.45 297.2 Q223.35 288.2 220.15 281.2 223.35 288.2 224.45 297.2" fill="#acc840" fill-rule="evenodd" stroke="none"/>
    <path d="M248.6 288.55 Q253.8 288.2 254.9 289.2 255.9 295.05 255.0 300.0 253.0 294.5 249.25 289.4 253.0 294.5 255.0 300.0 257.05 305.65 256.3 309.3 254.7 312.75 249.4 311.35 251.45 309.9 251.35 308.7 249.85 302.3 246.65 296.5 L244.05 292.25 246.65 296.5 Q249.85 302.3 251.35 308.7 251.45 309.9 249.4 311.35 249.3 311.2 248.5 312.0 233.8 316.1 219.95 316.05 223.1 311.45 224.15 305.2 223.1 311.45 219.95 316.05 217.8 318.7 211.65 318.95 204.75 317.15 205.45 314.8 L200.05 313.7 Q189.45 311.65 178.85 314.6 L178.85 310.2 184.9 308.3 173.7 304.2 176.15 303.45 177.45 303.45 Q175.4 299.4 173.6 297.1 169.5 291.8 165.65 288.35 173.05 287.6 179.8 288.4 184.35 288.95 188.65 290.15 L178.65 279.65 182.6 279.45 Q194.75 284.9 205.5 294.05 210.6 296.0 215.95 295.9 216.2 284.9 212.3 275.75 211.3 273.35 210.0 271.1 213.3 272.7 215.55 277.8 219.45 286.6 220.2 305.8 221.95 306.1 224.15 305.2 224.6 302.3 224.65 299.1 L224.45 297.2 Q234.65 297.5 244.05 292.25 L240.4 287.5 238.75 285.65 242.0 285.35 Q247.05 290.35 249.0 295.35 250.05 293.65 249.25 289.4 L248.6 288.55 M215.95 295.9 L215.8 298.9 215.4 300.95 Q213.3 310.55 208.55 315.3 L205.45 314.8 208.55 315.3 Q213.3 310.55 215.4 300.95 L215.8 298.9 215.95 295.9 M195.7 306.4 Q190.5 306.25 184.9 308.3 190.5 306.25 195.7 306.4" fill="#7a8e28" fill-rule="evenodd" stroke="none"/>
    <path d="M243.7 253.85 L243.1 255.3 237.4 248.7 239.55 249.0 241.25 250.75 241.9 251.45 243.7 253.85 M237.15 250.75 L240.4 253.75 Q238.7 256.5 239.1 260.05 240.55 263.85 244.05 266.85 L247.7 269.85 247.9 270.1 248.1 270.3 249.75 272.2 Q250.8 274.55 250.6 276.1 245.8 268.65 236.85 266.05 233.05 264.9 229.95 265.15 229.75 263.5 233.6 262.9 236.25 263.2 239.2 264.35 241.6 265.15 244.05 266.85 241.6 265.15 239.2 264.35 236.25 263.2 233.6 262.9 229.4 262.45 225.95 264.15 225.9 258.65 227.2 253.15 232.4 251.1 237.15 250.75 M246.3 274.6 Q247.95 281.3 245.75 285.2 L247.45 287.15 Q244.35 285.65 242.05 285.35 237.6 280.55 233.7 277.75 233.9 276.8 239.8 279.55 L235.8 276.4 Q233.9 275.05 231.15 274.35 226.85 271.45 226.95 268.0 231.25 266.95 239.4 269.45 243.15 271.7 246.3 274.6 M238.75 285.65 L240.4 287.5 Q229.0 283.75 224.15 278.2 L231.45 278.9 Q235.45 282.15 238.75 285.65 M245.75 285.2 Q243.05 282.3 239.8 279.55 243.05 282.3 245.75 285.2" fill="#ffcc00" fill-rule="evenodd" stroke="none"/>
    <path d="M237.4 248.7 L243.1 255.3 243.7 253.85 245.45 256.9 243.7 253.85 241.9 251.45 Q245.4 251.3 245.5 252.8 245.0 255.1 245.45 256.9 246.35 258.8 246.65 262.45 246.6 263.85 245.8 263.9 L245.3 261.45 Q243.9 258.4 242.1 255.9 L240.4 253.75 242.1 255.9 Q243.9 258.4 245.3 261.45 L245.8 263.9 Q246.5 266.75 247.75 269.85 L247.7 269.85 244.05 266.85 Q240.55 263.85 239.1 260.05 238.7 256.5 240.4 253.75 L237.15 250.75 236.05 249.9 235.25 249.45 Q235.65 248.6 237.4 248.7 M229.95 265.15 Q233.05 264.9 236.85 266.05 245.8 268.65 250.6 276.1 250.8 274.55 249.75 272.2 254.1 277.6 255.1 282.15 256.1 285.55 254.3 286.35 L254.9 289.2 Q253.8 288.2 248.6 288.55 L247.45 287.15 245.75 285.2 Q247.95 281.3 246.3 274.6 L249.45 277.9 Q251.6 280.45 253.45 283.4 L254.3 286.35 253.45 283.4 Q251.6 280.45 249.45 277.9 L246.3 274.6 Q243.15 271.7 239.4 269.45 231.25 266.95 226.95 268.0 223.95 268.75 222.8 271.3 L223.1 273.2 Q221.65 272.65 221.25 271.2 221.2 269.45 222.85 268.3 225.75 265.5 229.95 265.15 M242.0 285.35 L238.75 285.65 Q235.45 282.15 231.45 278.9 L227.9 276.2 225.2 275.4 Q225.15 274.45 225.75 274.05 229.45 274.75 233.7 277.75 237.6 280.55 242.05 285.35 L242.0 285.35" fill="#d7ac00" fill-rule="evenodd" stroke="none"/>
    <path d="M249.35 240.55 L248.15 238.65 253.0 236.9 Q254.5 237.05 255.15 237.45 252.15 238.1 249.35 240.55 L249.85 242.55 Q249.2 244.4 248.3 245.2 248.4 240.75 245.55 238.3 247.45 237.95 249.35 240.55 M244.75 239.45 Q246.2 240.95 246.55 243.7 243.8 245.85 241.25 250.75 L239.55 249.0 237.4 248.7 Q232.9 245.95 227.6 247.45 227.35 246.85 231.25 245.7 L234.25 245.9 Q237.2 242.15 244.75 239.45 M235.25 249.45 L236.05 249.9 237.15 250.75 Q232.4 251.1 227.2 253.15 228.5 250.35 231.3 248.15 233.15 248.3 235.25 249.45 M239.55 249.0 L238.85 248.4 Q236.6 246.45 234.25 245.9 236.6 246.45 238.85 248.4 L239.55 249.0" fill="#cc0000" fill-rule="evenodd" stroke="none"/>
    <path d="M241.45 238.35 Q243.2 236.85 244.45 237.55 L245.55 238.3 Q248.4 240.75 248.3 245.2 249.2 244.4 249.85 242.55 L249.35 240.55 Q252.15 238.1 255.15 237.45 256.4 238.2 254.25 239.9 250.45 242.75 249.55 246.0 L248.35 249.95 Q247.0 252.1 245.65 252.1 L246.35 249.85 246.7 245.7 246.55 243.7 246.7 245.7 246.35 249.85 245.65 252.1 245.5 252.8 Q245.4 251.3 241.9 251.45 L241.25 250.75 Q243.8 245.85 246.55 243.7 246.2 240.95 244.75 239.45 244.2 238.85 243.5 238.45 L241.35 239.1 Q241.2 238.75 241.45 238.35 M249.85 242.55 Q250.0 244.1 249.55 246.0 250.0 244.1 249.85 242.55 M237.4 248.7 Q235.65 248.6 235.25 249.45 233.15 248.3 231.3 248.15 229.2 247.95 227.4 249.0 226.0 251.05 224.6 254.3 223.85 253.85 223.6 253.1 224.1 249.45 227.6 247.45 232.9 245.95 237.4 248.7" fill="#a60000" fill-rule="evenodd" stroke="none"/>
    <path d="M179.8 288.4 L165.45 279.2 169.6 274.85 181.0 274.85 173.9 271.95 186.65 271.95 Q188.6 276.3 190.4 279.05 L182.6 279.45 178.65 279.65 188.65 290.15 Q184.35 288.95 179.8 288.4 M176.15 303.45 L163.25 299.65 173.6 297.1 Q175.4 299.4 177.45 303.45 L176.15 303.45" fill="#495618" fill-rule="evenodd" stroke="none"/>
    <path d="M187.6 256.0 Q193.45 264.4 206.95 269.9 207.0 268.75 210.1 268.3 213.6 269.85 214.8 272.7 L221.55 274.5 Q222.5 276.3 224.15 278.2 L218.05 277.2 214.8 272.7 218.05 277.2 220.15 281.2 Q216.8 276.8 215.55 277.8 213.3 272.7 210.0 271.1 L206.95 269.9 210.0 271.1 Q211.3 273.35 212.3 275.75 188.3 264.85 187.6 256.0" fill="#c9db80" fill-rule="evenodd" stroke="none"/>
    <path d="M233.6 262.9 Q229.75 263.5 229.95 265.15 225.75 265.5 222.85 268.3 221.2 269.45 221.25 271.2 221.1 270.65 221.1 269.95 221.2 267.3 222.45 266.5 222.35 260.2 224.05 255.6 L227.2 253.15 Q225.9 258.65 225.95 264.15 229.4 262.45 233.6 262.9 M221.55 274.5 L223.4 274.95 223.1 273.2 222.8 271.3 Q223.95 268.75 226.95 268.0 226.85 271.45 231.15 274.35 233.9 275.05 235.8 276.4 L239.8 279.55 Q233.9 276.8 233.7 277.75 229.45 274.75 225.75 274.05 226.45 273.5 228.2 273.8 L231.15 274.35 228.2 273.8 Q226.45 273.5 225.75 274.05 225.15 274.45 225.2 275.4 L227.9 276.2 231.45 278.9 224.15 278.2 Q222.5 276.3 221.55 274.5 M222.45 266.5 Q224.1 265.0 225.95 264.15 224.1 265.0 222.45 266.5 M225.2 275.4 L223.45 274.95 223.4 274.95 223.45 274.95 225.2 275.4" fill="#ffdd53" fill-rule="evenodd" stroke="none"/>
    <path d="M248.15 238.65 L249.35 240.55 Q247.45 237.95 245.55 238.3 L244.45 237.55 Q243.2 236.85 241.45 238.35 241.85 237.45 243.55 236.3 246.35 236.35 247.15 237.65 L248.15 238.65 247.15 237.65 253.0 236.9 248.15 238.65 M241.35 239.1 L243.5 238.45 Q244.2 238.85 244.75 239.45 237.2 242.15 234.25 245.9 L231.25 245.7 Q227.35 246.85 227.6 247.45 224.1 249.45 223.6 253.1 223.2 251.95 223.75 250.1 224.7 246.95 229.8 246.0 234.15 241.4 241.35 239.1 M224.6 254.3 Q226.0 251.05 227.4 249.0 229.2 247.95 231.3 248.15 228.5 250.35 227.2 253.15 L224.05 255.6 224.6 254.3 M229.8 246.0 L231.25 245.7 229.8 246.0" fill="#ff3535" fill-rule="evenodd" stroke="none"/>
    <path d="M249.35 240.55 L248.15 238.65 247.15 237.65 Q246.35 236.35 243.55 236.3 241.85 237.45 241.45 238.35 241.2 238.75 241.35 239.1 L243.5 238.45 Q244.2 238.85 244.75 239.45 246.2 240.95 246.55 243.7 L246.7 245.7 246.35 249.85 245.65 252.1 Q247.0 252.1 248.35 249.95 L249.55 246.0 Q250.0 244.1 249.85 242.55 L249.35 240.55 M255.15 237.45 Q254.5 237.05 253.0 236.9 L247.15 237.65 M255.15 237.45 Q256.4 238.2 254.25 239.9 250.45 242.75 249.55 246.0 M235.25 249.45 L236.05 249.9 237.15 250.75 240.4 253.75 242.1 255.9 Q243.9 258.4 245.3 261.45 L245.8 263.9 Q246.6 263.85 246.65 262.45 246.35 258.8 245.45 256.9 L243.7 253.85 241.9 251.45 241.25 250.75 239.55 249.0 238.85 248.4 Q236.6 246.45 234.25 245.9 L231.25 245.7 229.8 246.0 Q224.7 246.95 223.75 250.1 223.2 251.95 223.6 253.1 223.85 253.85 224.6 254.3 226.0 251.05 227.4 249.0 229.2 247.95 231.3 248.15 233.15 248.3 235.25 249.45 M245.65 252.1 L245.5 252.8 Q245.0 255.1 245.45 256.9 M247.7 269.85 L247.9 270.1 248.1 270.3 247.95 270.1 247.75 269.85 Q246.5 266.75 245.8 263.9 M247.7 269.85 L244.05 266.85 Q241.6 265.15 239.2 264.35 236.25 263.2 233.6 262.9 229.4 262.45 225.95 264.15 224.1 265.0 222.45 266.5 222.35 260.2 224.05 255.6 L224.6 254.3 M249.75 272.2 L248.1 270.3 M254.3 286.35 L253.45 283.4 Q251.6 280.45 249.45 277.9 L246.3 274.6 Q243.15 271.7 239.4 269.45 231.25 266.95 226.95 268.0 223.95 268.75 222.8 271.3 L223.1 273.2 Q221.65 272.65 221.25 271.2 221.1 270.65 221.1 269.95 221.2 267.3 222.45 266.5 M245.75 285.2 L247.45 287.15 248.6 288.55 249.25 289.4 Q253.0 294.5 255.0 300.0 255.9 295.05 254.9 289.2 L254.3 286.35 Q256.1 285.55 255.1 282.15 254.1 277.6 249.75 272.2 M244.05 292.25 L246.65 296.5 Q249.85 302.3 251.35 308.7 251.45 309.9 249.4 311.35 254.7 312.75 256.3 309.3 257.05 305.65 255.0 300.0 M238.75 285.65 L240.4 287.5 244.05 292.25 M224.45 297.2 L224.65 299.1 Q224.6 302.3 224.15 305.2 223.1 311.45 219.95 316.05 233.8 316.1 248.5 312.0 249.3 311.2 249.4 311.35 M229.8 246.0 Q234.15 241.4 241.35 239.1 M186.65 271.95 Q183.25 265.3 182.35 256.15 L185.35 252.2 Q186.3 254.15 187.6 256.0 193.45 264.4 206.95 269.9 207.0 268.75 210.1 268.3 213.6 269.85 214.8 272.7 L221.55 274.5 223.4 274.95 223.1 273.2 M173.6 297.1 Q169.5 291.8 165.65 288.35 173.05 287.6 179.8 288.4 L165.45 279.2 169.6 274.85 181.0 274.85 173.9 271.95 186.65 271.95 Q188.6 276.3 190.4 279.05 L182.6 279.45 178.65 279.65 188.65 290.15 Q184.35 288.95 179.8 288.4 M215.95 295.9 Q216.2 284.9 212.3 275.75 211.3 273.35 210.0 271.1 L206.95 269.9 M231.15 274.35 Q233.9 275.05 235.8 276.4 L239.8 279.55 Q243.05 282.3 245.75 285.2 M218.05 277.2 L214.8 272.7 M220.15 281.2 L218.05 277.2 M220.15 281.2 Q223.35 288.2 224.45 297.2 M225.75 274.05 Q226.45 273.5 228.2 273.8 L231.15 274.35 M223.4 274.95 L223.45 274.95 225.2 275.4 Q225.15 274.45 225.75 274.05 M225.2 275.4 L227.9 276.2 231.45 278.9 Q235.45 282.15 238.75 285.65 M219.95 316.05 Q217.8 318.7 211.65 318.95 204.75 317.15 205.45 314.8 L200.05 313.7 Q189.45 311.65 178.85 314.6 L178.85 310.2 184.9 308.3 173.7 304.2 176.15 303.45 163.25 299.65 173.6 297.1 Q175.4 299.4 177.45 303.45 L176.15 303.45 M205.45 314.8 L208.55 315.3 Q213.3 310.55 215.4 300.95 L215.8 298.9 215.95 295.9 M184.9 308.3 Q190.5 306.25 195.7 306.4" fill="none" stroke="#333333" stroke-linecap="round" stroke-linejoin="round" stroke-opacity="0.6" stroke-width="0.5"/>
  </g>
</svg>
