<?xml version="1.0" encoding="UTF-8" standalone="no"?>
<svg xmlns:xlink="http://www.w3.org/1999/xlink" height="36.05px" width="31.45px" xmlns="http://www.w3.org/2000/svg">
  <g transform="matrix(1.0, 0.0, 0.0, 1.0, -286.7, -211.6)">
    <path d="M315.35 245.45 L315.1 237.5 315.1 235.45 314.8 232.2 Q314.35 229.25 311.1 223.75 308.95 220.05 307.0 218.15 L305.05 216.6 301.65 214.9 300.95 214.7 Q300.45 214.9 299.9 215.15 L298.55 215.3 296.85 215.55 293.9 215.95 292.3 215.95 Q294.1 213.1 295.85 212.7 297.2 212.0 298.7 211.75 L301.85 211.7 303.65 212.1 Q306.15 212.8 308.5 214.6 L309.85 215.7 310.45 216.3 Q311.95 217.95 314.3 221.6 317.1 226.0 317.5 228.0 L318.1 234.4 318.15 236.3 Q318.2 239.25 317.85 240.7 317.4 242.5 316.05 244.45 L315.35 245.45" fill="#fededa" fill-rule="evenodd" stroke="none"/>
    <path d="M298.55 215.3 L299.9 215.15 Q300.45 214.9 300.95 214.7 L301.65 214.9 305.05 216.6 307.0 218.15 Q308.95 220.05 311.1 223.75 314.35 229.25 314.8 232.2 L315.1 235.45 315.1 237.5 315.35 245.45 313.85 246.7 312.4 247.0 310.0 247.15 304.85 246.7 297.85 244.7 292.85 246.7 Q290.05 248.65 288.85 246.7 288.05 245.35 287.25 238.6 L286.75 233.2 Q286.65 230.8 286.85 229.7 287.5 225.95 289.85 220.55 L291.2 217.8 291.7 216.85 292.3 215.95 293.9 215.95 296.85 215.55 Q294.4 223.25 296.35 239.9 L296.7 224.5 298.55 215.3 M292.55 223.9 L291.8 226.25 Q290.85 229.65 291.1 233.3 L290.95 235.8 Q290.75 238.0 291.85 238.9 292.3 238.6 292.4 237.95 293.75 231.0 292.55 223.9 M307.5 239.3 Q306.35 230.65 301.95 222.7 L301.45 225.05 Q300.45 234.6 307.0 239.5 L307.5 239.3" fill="#fdcbc1" fill-rule="evenodd" stroke="none"/>
    <path d="M292.55 223.9 Q293.75 231.0 292.4 237.95 292.3 238.6 291.85 238.9 290.75 238.0 290.95 235.8 L291.1 233.3 Q290.85 229.65 291.8 226.25 L292.55 223.9 M307.5 239.3 L307.0 239.5 Q300.45 234.6 301.45 225.05 L301.95 222.7 Q306.35 230.65 307.5 239.3" fill="#911d04" fill-rule="evenodd" stroke="none"/>
    <path d="M315.35 245.45 L316.05 244.45 Q317.4 242.5 317.85 240.7 318.2 239.25 318.15 236.3 L318.1 234.4 317.5 228.0 Q317.1 226.0 314.3 221.6 311.95 217.95 310.45 216.3 L309.85 215.7 308.5 214.6 Q306.15 212.8 303.65 212.1 L301.85 211.7 298.7 211.75 Q297.2 212.0 295.85 212.7 294.1 213.1 292.3 215.95 L291.7 216.85 291.2 217.8 289.85 220.55 Q287.5 225.95 286.85 229.7 286.65 230.8 286.75 233.2 L287.25 238.6 Q288.05 245.35 288.85 246.7 290.05 248.65 292.85 246.7 L297.85 244.7 304.85 246.7 310.0 247.15 312.4 247.0 313.85 246.7 315.35 245.45 Z" fill="none" stroke="#660000" stroke-linecap="round" stroke-linejoin="round" stroke-opacity="0.6901961" stroke-width="0.05"/>
  </g>
</svg>
