<?xml version="1.0" encoding="UTF-8" standalone="no"?>
<svg xmlns:xlink="http://www.w3.org/1999/xlink" height="14.65px" width="14.55px" xmlns="http://www.w3.org/2000/svg">
  <g transform="matrix(1.0, 0.0, 0.0, 1.0, -285.55, -192.85)">
    <path d="M297.65 204.85 L297.65 204.8 297.75 204.75 297.7 204.9 297.65 204.85 M297.7 199.5 L297.8 200.2 297.7 199.55 297.7 199.5 M288.7 201.5 L288.75 201.5 288.7 201.5" fill="#0782b6" fill-rule="evenodd" stroke="none"/>
    <path d="M298.75 199.65 L298.85 199.65 298.75 201.8 298.65 201.75 298.75 199.65 M288.7 201.5 L288.75 201.4 288.8 201.4 288.75 201.45 288.75 201.5 288.7 201.5" fill="#084382" fill-rule="evenodd" stroke="none"/>
    <path d="M288.75 201.45 L288.8 201.5 288.75 201.5 288.75 201.45" fill="#3bbcd1" fill-rule="evenodd" stroke="none"/>
    <path d="M287.8 195.15 Q288.65 194.35 289.8 193.9 L289.9 193.9 Q290.4 193.65 290.95 193.55 L291.25 193.5 291.95 193.45 Q294.0 193.35 295.8 194.5 L296.5 195.05 296.85 195.4 297.05 195.6 297.45 196.05 Q298.25 197.1 298.55 198.5 L298.65 198.45 298.65 198.5 298.7 198.85 298.75 199.65 298.65 201.75 298.2 203.7 297.75 204.75 297.65 204.55 296.95 202.85 296.35 201.8 296.85 201.85 296.95 201.85 Q297.65 201.8 298.1 201.35 298.65 200.9 298.65 200.25 298.65 199.6 298.1 199.1 L297.9 198.95 297.3 198.7 Q297.3 197.0 296.65 196.0 296.85 197.3 296.35 198.55 L296.5 198.6 296.45 198.7 296.3 198.75 295.55 199.1 295.45 199.25 Q293.45 197.55 291.3 197.15 293.3 197.95 294.95 200.15 294.1 199.6 292.65 199.2 L291.05 198.85 290.95 198.9 Q290.05 199.45 289.2 200.7 L288.9 201.1 288.65 201.4 288.6 201.5 288.55 201.5 288.55 201.45 288.6 201.35 Q286.6 198.6 287.9 195.05 L287.8 195.15 M296.6 198.6 L296.9 198.6 296.95 198.65 296.85 198.65 296.8 198.65 296.6 198.7 296.6 198.6" fill="#ff0000" fill-rule="evenodd" stroke="none"/>
    <path d="M288.35 206.15 Q285.8 204.05 285.8 202.65 L285.6 199.9 Q285.35 198.55 286.8 196.3 L287.9 195.05 Q286.6 198.6 288.6 201.35 L288.55 201.45 288.55 201.5 Q288.15 202.6 288.35 206.15 M297.7 199.5 L297.75 199.35 297.65 199.15 297.65 199.1 297.55 199.05 297.45 199.05 297.35 199.1 297.25 199.15 297.2 199.25 297.2 199.35 297.2 199.4 297.25 199.55 297.45 199.6 297.65 199.55 297.7 199.5 297.7 199.55 297.8 200.2 297.7 199.5 M297.3 198.7 L297.45 198.9 297.5 199.0 297.55 199.05 297.5 199.0 297.45 198.9 297.3 198.7 297.9 198.95 298.1 199.1 Q298.65 199.6 298.65 200.25 298.65 200.9 298.1 201.35 297.65 201.8 296.95 201.85 L296.85 201.85 296.35 201.8 296.25 201.65 295.75 201.0 295.4 200.55 295.35 200.5 295.1 200.25 295.05 200.25 295.0 200.2 294.95 200.15 Q293.3 197.95 291.3 197.15 293.45 197.55 295.45 199.25 L295.55 199.1 296.3 198.75 296.45 198.7 296.45 198.85 296.45 199.5 296.5 199.8 296.55 199.85 296.95 200.7 297.45 201.0 297.5 201.0 297.6 200.95 297.55 200.9 296.95 200.05 296.75 199.65 296.7 199.4 296.65 199.3 296.6 198.7 296.8 198.65 296.85 198.65 296.95 198.65 296.9 198.6 296.6 198.6 296.6 198.45 296.5 198.6 296.35 198.55 Q296.85 197.3 296.65 196.0 297.3 197.0 297.3 198.7" fill="#a90101" fill-rule="evenodd" stroke="none"/>
    <path d="M296.5 198.6 L296.6 198.45 296.6 198.6 296.6 198.7 296.65 199.3 296.7 199.4 296.75 199.65 296.95 200.05 297.55 200.9 297.6 200.95 297.5 201.0 297.45 201.0 296.95 200.7 296.55 199.85 296.5 199.8 296.45 199.5 296.45 198.85 296.45 198.7 296.5 198.6" fill="#b40101" fill-rule="evenodd" stroke="none"/>
    <path d="M290.4 204.2 Q290.0 205.9 290.25 207.5 L288.35 206.15 Q288.15 202.6 288.55 201.5 L288.6 201.5 288.7 201.5 288.75 201.5 288.8 201.5 Q289.45 203.5 290.4 204.2 M295.1 200.25 L295.35 200.5 295.4 200.55 295.75 201.0 296.25 201.65 296.35 201.8 295.65 201.45 295.55 201.35 295.1 200.65 295.05 200.25 295.1 200.25" fill="#828282" fill-rule="evenodd" stroke="none"/>
    <path d="M297.65 204.8 L297.0 203.8 295.45 202.25 294.6 201.7 294.0 201.4 293.55 201.25 293.3 201.2 292.9 201.1 Q292.2 199.95 292.65 199.2 294.1 199.6 294.95 200.15 L295.0 200.2 295.05 200.25 295.1 200.25 295.05 200.25 295.1 200.65 295.55 201.35 295.65 201.45 296.35 201.8 296.95 202.85 297.65 204.55 297.75 204.75 297.65 204.8 M290.7 203.05 L290.4 204.2 Q289.45 203.5 288.8 201.5 L288.75 201.45 288.8 201.4 288.75 201.4 288.7 201.5 288.6 201.5 288.65 201.4 288.9 201.1 289.2 200.7 Q290.05 199.45 290.95 198.9 292.7 199.85 291.9 201.35 L291.3 201.55 290.7 203.05" fill="#cccccc" fill-rule="evenodd" stroke="none"/>
    <path d="M294.6 201.7 Q292.3 201.85 290.7 203.05 L291.3 201.55 291.9 201.35 292.9 201.1 293.3 201.2 293.55 201.25 294.0 201.4 294.6 201.7" fill="#540101" fill-rule="evenodd" stroke="none"/>
    <path d="M298.75 201.8 L298.2 204.45 297.65 205.8 297.65 204.9 297.7 204.9 297.75 204.75 298.2 203.7 298.65 201.75 298.75 201.8" fill="#717a81" fill-rule="evenodd" stroke="none"/>
    <path d="M297.65 204.9 L297.65 204.85 297.7 204.9 297.65 204.9" fill="#299faf" fill-rule="evenodd" stroke="none"/>
    <path d="M292.9 201.1 L291.9 201.35 Q292.7 199.85 290.95 198.9 L291.05 198.85 292.65 199.2 Q292.2 199.95 292.9 201.1" fill="#ececec" fill-rule="evenodd" stroke="none"/>
    <path d="M287.8 195.15 Q288.65 194.35 289.8 193.9 L289.9 193.9 Q290.4 193.65 290.95 193.55 L291.25 193.5 291.95 193.45 Q294.0 193.35 295.8 194.5 L296.5 195.05 296.85 195.4 297.05 195.6 297.45 196.05 Q298.25 197.1 298.55 198.5 M298.65 198.45 L298.65 198.5 298.7 198.85 298.75 199.65 298.65 201.75 298.2 203.7 297.75 204.75 297.7 204.9 297.65 204.85 297.65 204.8 297.0 203.8 295.45 202.25 294.6 201.7 294.0 201.4 293.55 201.25 293.3 201.2 M298.85 199.65 L298.75 201.8 298.2 204.45 297.65 205.8 297.65 204.9 297.65 204.85 M290.7 203.05 L290.4 204.2 Q290.0 205.9 290.25 207.5 L288.35 206.15 Q285.8 204.05 285.8 202.65 L285.6 199.9 Q285.35 198.55 286.8 196.3 L287.9 195.05 M291.3 201.55 L290.7 203.05" fill="none" stroke="#416281" stroke-linecap="round" stroke-linejoin="round" stroke-width="0.05"/>
    <path d="M297.7 199.5 L297.8 200.2 M297.55 199.05 L297.5 199.0 297.45 198.9 297.3 198.7" fill="none" stroke="#ffbdb5" stroke-linecap="round" stroke-linejoin="round" stroke-width="0.05"/>
    <path d="M299.75 193.5 L300.1 192.85 298.3 200.35 297.35 200.0 299.75 193.5" fill="#666666" fill-rule="evenodd" stroke="none"/>
    <path d="M297.35 200.0 L296.5 199.7 299.75 193.5 297.35 200.0" fill="#797979" fill-rule="evenodd" stroke="none"/>
    <path d="M291.8 194.85 L297.25 200.0 296.05 200.75 291.55 194.7 291.8 194.85" fill="#666666" fill-rule="evenodd" stroke="none"/>
    <path d="M297.25 200.0 L291.8 194.85 298.15 199.5 297.25 200.0" fill="#797979" fill-rule="evenodd" stroke="none"/>
    <path d="M296.35 199.2 Q296.7 198.9 297.2 198.85 L298.25 199.0 Q298.7 199.25 298.75 199.7 L298.7 200.1 297.85 200.55 296.8 200.35 Q296.35 200.1 296.3 199.7 296.25 199.45 296.35 199.2" fill="#ffcc00" fill-rule="evenodd" stroke="none"/>
    <path d="M298.7 200.1 L298.4 200.5 297.45 201.05 296.4 200.85 295.9 200.2 Q295.85 199.75 296.2 199.35 L296.35 199.2 Q296.25 199.45 296.3 199.7 296.35 200.1 296.8 200.35 L297.85 200.55 298.7 200.1" fill="#ff9900" fill-rule="evenodd" stroke="none"/>
    <path d="M296.35 199.2 Q296.7 198.9 297.2 198.85 L298.25 199.0 Q298.7 199.25 298.75 199.7 L298.7 200.1 298.4 200.5 297.45 201.05 296.4 200.85 295.9 200.2 Q295.85 199.75 296.2 199.35 L296.35 199.2 Q296.25 199.45 296.3 199.7 296.35 200.1 296.8 200.35 L297.85 200.55 298.7 200.1" fill="none" stroke="#ff9900" stroke-linecap="round" stroke-linejoin="round" stroke-width="0.1"/>
    <path d="M298.3 199.85 L297.95 199.95 297.6 199.85 297.5 199.5 297.6 199.15 297.95 199.05 298.3 199.15 298.45 199.5 298.3 199.85" fill="#ffffff" fill-rule="evenodd" stroke="none"/>
  </g>
</svg>
