<?xml version="1.0" encoding="UTF-8" standalone="no"?>
<svg xmlns:xlink="http://www.w3.org/1999/xlink" height="12.75px" width="37.0px" xmlns="http://www.w3.org/2000/svg">
  <g transform="matrix(1.0, 0.0, 0.0, 1.0, 0.0, 7.65)">
    <path d="M18.5 -2.15 L18.55 -2.1 Q29.25 -1.6 35.45 1.75 L32.0 1.55 Q27.2 0.6 27.05 2.85 26.95 4.15 22.25 4.25 20.45 -2.75 18.2 -1.8 L18.2 -1.65 16.35 -1.6 14.15 -1.6 17.05 -1.95 17.8 -2.0 17.95 -1.95 17.55 -2.35 17.75 -2.3 18.15 -2.5 18.2 -2.2 18.5 -2.15" fill="#9c8a32" fill-rule="evenodd" stroke="none"/>
    <path d="M36.75 0.4 L36.8 0.5 37.0 1.3 36.75 2.05 Q35.95 3.1 32.2 2.4 27.4 1.45 27.25 3.7 27.15 4.95 22.8 5.1 L18.4 5.0 13.55 4.65 5.75 3.65 Q0.05 2.6 0.0 1.35 L0.0 1.3 0.05 1.0 Q1.1 2.1 6.95 3.0 L13.35 3.8 18.35 4.2 22.25 4.25 Q26.95 4.15 27.05 2.85 27.2 0.6 32.0 1.55 L35.45 1.75 Q36.65 1.5 36.8 0.65 L36.75 0.4 M10.9 -1.55 L16.9 -2.55 17.3 -2.6 17.55 -2.35 17.95 -1.95 17.8 -2.0 17.05 -1.95 14.15 -1.6 Q9.35 -0.75 1.65 1.65 6.55 -0.45 10.9 -1.55" fill="#685822" fill-rule="evenodd" stroke="none"/>
    <path d="M32.2 -2.75 Q35.85 -1.1 36.75 0.4 L36.8 0.65 Q36.65 1.5 35.45 1.75 29.25 -1.6 18.55 -2.1 L32.2 -2.75" fill="#a88e37" fill-rule="evenodd" stroke="none"/>
    <path d="M19.85 -5.0 Q26.75 -5.1 31.7 -3.0 L32.2 -2.75 18.55 -2.1 18.5 -2.15 19.85 -5.0" fill="#b1963a" fill-rule="evenodd" stroke="none"/>
    <path d="M7.7 -3.4 Q12.45 -4.75 18.65 -5.0 L19.85 -5.0 18.5 -2.15 18.2 -2.2 18.15 -2.5 17.75 -2.3 17.55 -2.35 17.3 -2.6 16.9 -2.55 Q14.7 -5.25 7.7 -3.4" fill="#bb9e3e" fill-rule="evenodd" stroke="none"/>
    <path d="M2.55 -1.4 L5.5 -2.7 7.7 -3.4 Q14.7 -5.25 16.9 -2.55 L10.9 -1.55 Q6.9 -2.8 2.55 -1.4 M18.2 -1.65 L18.2 -1.8 Q20.45 -2.75 22.25 4.25 L18.35 4.2 Q15.85 1.55 18.2 -1.65" fill="#9b8333" fill-rule="evenodd" stroke="none"/>
    <path d="M0.05 1.0 Q0.3 -0.25 2.55 -1.4 6.9 -2.8 10.9 -1.55 6.55 -0.45 1.65 1.65 9.35 -0.75 14.15 -1.6 L16.35 -1.6 Q8.75 0.9 6.95 3.0 1.1 2.1 0.05 1.0" fill="#816c29" fill-rule="evenodd" stroke="none"/>
    <path d="M16.35 -1.6 L18.2 -1.65 Q15.85 1.55 18.35 4.2 L13.35 3.8 6.95 3.0 Q8.75 0.9 16.35 -1.6" fill="#84702b" fill-rule="evenodd" stroke="none"/>
    <path d="M2.55 -1.4 L5.5 -2.7 7.7 -3.4 Q12.45 -4.75 18.65 -5.0 L19.85 -5.0 Q26.75 -5.1 31.7 -3.0 L32.2 -2.75 Q35.85 -1.1 36.75 0.4 L36.8 0.5 37.0 1.3 36.75 2.05 Q35.95 3.1 32.2 2.4 27.4 1.45 27.25 3.7 27.15 4.95 22.8 5.1 L18.4 5.0 13.55 4.65 5.75 3.65 Q0.05 2.6 0.0 1.35 L0.0 1.3 0.05 1.0 Q0.3 -0.25 2.55 -1.4 Z" fill="none" stroke="#776426" stroke-linecap="round" stroke-linejoin="round" stroke-width="0.05"/>
    <path d="M18.5 -6.85 L18.1 -6.8 17.15 -6.95 Q16.8 -7.05 16.75 -7.15 L16.75 -7.25 16.75 -7.3 17.15 -7.55 18.1 -7.65 19.05 -7.55 19.35 -7.35 19.45 -7.25 19.45 -7.1 19.05 -6.95 18.6 -6.85 18.5 -6.85" fill="#a39067" fill-rule="evenodd" stroke="none"/>
    <path d="M18.05 -1.85 Q17.2 -6.15 18.5 -6.85 L18.6 -6.85 19.05 -6.95 19.45 -7.1 18.25 -2.05 19.1 -1.95 18.6 -1.8 18.05 -1.85" fill="#ac977d" fill-rule="evenodd" stroke="none"/>
    <path d="M16.75 -7.15 Q16.8 -7.05 17.15 -6.95 L18.1 -6.8 18.5 -6.85 Q17.2 -6.15 18.05 -1.85 L17.35 -1.95 17.1 -2.65 Q17.95 -3.7 16.75 -7.15" fill="#6f5b46" fill-rule="evenodd" stroke="none"/>
    <path d="M16.75 -7.15 Q17.95 -3.7 17.1 -2.65 L17.35 -1.95 18.05 -1.85 18.6 -1.8 19.1 -1.95 18.25 -2.05 19.45 -7.1 19.45 -7.25 19.35 -7.35 19.05 -7.55 18.1 -7.65 17.15 -7.55 16.75 -7.3 16.75 -7.25 16.75 -7.15 Z" fill="none" stroke="#776426" stroke-linecap="round" stroke-linejoin="round" stroke-width="0.05"/>
    <path d="M23.8 -3.45 L23.9 -3.55 24.15 -3.55 24.4 -3.55 24.5 -3.45 24.4 -3.4 24.15 -3.35 23.9 -3.4 23.8 -3.45 M21.25 -0.7 L20.95 -0.9 21.25 -1.1 22.05 -1.2 22.8 -1.1 23.15 -0.9 22.8 -0.7 22.05 -0.6 21.25 -0.7 M28.95 -0.75 L27.6 -0.95 Q27.05 -1.15 27.05 -1.4 L27.6 -1.85 28.95 -2.05 30.3 -1.85 30.85 -1.4 30.3 -0.95 28.95 -0.75 M34.5 0.3 L34.1 0.35 33.7 0.3 33.55 0.15 33.7 0.0 34.1 -0.05 34.5 0.0 34.65 0.15 34.5 0.3 M26.2 1.0 L25.8 1.05 25.4 1.0 25.25 0.9 25.4 0.8 25.8 0.75 26.2 0.8 26.35 0.9 26.2 1.0 M19.85 0.95 L19.65 1.1 19.2 1.2 18.75 1.1 18.55 0.95 18.75 0.75 19.2 0.7 19.65 0.75 19.85 0.95 M17.1 0.95 L16.1 1.1 15.1 0.95 14.7 0.55 Q14.7 0.3 15.1 0.15 L16.1 0.0 17.1 0.15 17.5 0.55 17.1 0.95" fill="#fcbc27" fill-rule="evenodd" stroke="none"/>
  </g>
</svg>
