<?xml version="1.0" encoding="UTF-8" standalone="no"?>
<svg xmlns:xlink="http://www.w3.org/1999/xlink" height="21.75px" width="50.1px" xmlns="http://www.w3.org/2000/svg">
  <g transform="matrix(1.0, 0.0, 0.0, 1.0, -249.9, -189.1)">
    <path d="M253.6 199.05 L254.3 198.7 253.6 199.05" fill="#58382b" fill-rule="evenodd" stroke="none"/>
    <path d="M264.0 210.3 L263.55 210.25 263.6 210.2 264.0 210.25 264.0 210.3" fill="#555555" fill-rule="evenodd" stroke="none"/>
    <path d="M263.5 210.25 L263.45 210.25 263.45 210.2 263.5 210.2 263.5 210.25" fill="#bfbfbf" fill-rule="evenodd" stroke="none"/>
    <path d="M263.55 210.25 L263.5 210.25 263.5 210.2 263.55 210.2 263.6 210.2 263.55 210.25" fill="#acacac" fill-rule="evenodd" stroke="none"/>
    <path d="M254.7 199.65 L254.6 199.65 254.7 199.65" fill="#c4a773" fill-rule="evenodd" stroke="none"/>
    <path d="M263.45 210.2 L263.05 210.15 262.85 210.15 Q258.9 209.7 256.15 208.2 L256.1 208.2 253.75 206.75 Q250.8 204.85 250.5 203.4 L250.5 196.95 250.45 196.95 250.45 196.85 250.4 196.65 250.4 196.55 250.4 196.1 Q250.45 195.8 250.65 195.55 251.95 193.1 260.0 191.3 266.8 189.85 275.05 189.65 L278.0 189.6 280.95 189.65 Q288.95 189.85 294.15 191.3 298.2 192.5 299.0 194.0 L299.1 194.1 299.15 194.15 299.4 194.6 Q299.6 195.15 299.4 195.75 L299.4 195.8 299.4 195.75 299.4 201.2 299.15 201.65 Q297.5 204.7 289.25 206.95 L288.8 207.05 274.35 209.75 274.3 209.75 272.75 209.95 271.15 210.1 269.7 210.25 264.0 210.3 263.55 210.25 263.5 210.25 263.45 210.25 263.45 210.2 263.5 210.2 263.55 210.2 263.6 210.2 264.0 210.25 Q266.6 210.45 269.7 210.25 L271.15 210.1 272.75 209.95 M254.3 198.7 L261.95 196.15 262.3 196.1 Q268.4 194.6 278.3 194.55 288.5 194.45 292.55 195.7 L297.0 197.3 Q294.5 198.7 288.2 199.9 L275.4 200.45 275.25 200.45 271.45 200.1 264.6 199.45 264.1 199.4 263.9 199.4 263.05 199.35 257.75 199.2 255.7 199.25 253.6 199.05 254.3 198.7 253.6 199.05 M250.4 196.55 L250.45 196.85 M263.55 210.25 L263.6 210.2 M263.5 210.2 L263.5 210.25" fill="none" stroke="#000000" stroke-linecap="round" stroke-linejoin="round" stroke-width="1.0"/>
    <path d="M297.0 197.3 Q295.65 196.65 292.5 195.65 288.5 194.4 278.35 194.5 268.4 194.55 262.3 196.05 L262.35 195.95 Q263.65 193.5 271.7 191.75 277.3 190.55 283.9 190.15 290.1 190.55 294.45 191.75 297.9 192.75 299.0 193.95 L299.1 194.15 299.05 195.25 298.95 195.5 Q298.5 196.35 297.25 197.1 L297.0 197.3 M262.3 196.05 L262.0 196.1 Q256.2 197.5 253.6 199.05 L253.55 199.05 Q256.2 197.5 261.95 196.1 L262.3 196.05" fill="#58382b" fill-rule="evenodd" stroke="none"/>
    <path d="M283.9 190.15 Q277.3 190.55 271.7 191.75 263.65 193.5 262.35 195.95 L262.3 196.05 261.95 196.1 Q256.2 197.5 253.55 199.05 L253.1 198.9 253.05 198.9 252.9 198.8 Q250.9 197.95 250.5 196.95 L250.5 196.9 250.5 196.8 250.5 196.55 250.7 195.95 Q252.0 193.5 260.1 191.75 L260.6 191.65 Q269.4 189.9 278.2 190.0 L278.25 190.0 283.9 190.15" fill="#4a2d24" fill-rule="evenodd" stroke="none"/>
    <path d="M297.0 197.3 L297.25 197.1 Q298.5 196.35 298.95 195.5 L299.05 195.25 299.1 194.15 299.15 194.1 299.4 194.55 Q299.6 195.1 299.4 195.65 L299.25 195.95 Q298.8 196.8 297.55 197.55 L296.95 197.9 294.65 198.75 294.5 198.8 294.35 198.85 294.2 198.9 288.45 200.3 274.45 200.75 275.25 200.4 275.45 200.4 288.2 199.85 Q294.5 198.65 297.0 197.3 M299.0 193.95 Q297.9 192.75 294.45 191.75 290.1 190.55 283.9 190.15 L278.25 190.0 278.2 190.0 Q269.4 189.9 260.6 191.65 L260.1 191.75 Q252.0 193.5 250.7 195.95 L250.5 196.55 250.5 196.8 250.45 196.65 250.45 196.1 250.65 195.5 Q251.95 193.05 260.0 191.3 268.0 189.55 278.0 189.55 288.0 189.55 294.15 191.3 298.2 192.45 299.0 193.95 M253.6 199.05 L255.75 199.2 254.7 199.6 254.6 199.6 253.2 199.35 253.15 199.3 253.0 199.25 Q250.7 198.25 250.5 197.1 L250.5 196.95 Q250.9 197.95 252.9 198.8 L253.05 198.9 253.1 198.9 253.55 199.05 253.6 199.05 M254.7 199.6 L254.6 199.6 254.7 199.6" fill="#c4a773" fill-rule="evenodd" stroke="none"/>
    <path d="M274.3 209.75 L271.2 210.1 269.75 210.2 264.0 210.25 264.0 210.2 Q266.6 210.4 269.75 210.2 L271.2 210.05 274.3 209.7 276.65 208.65 274.3 209.75 M263.45 210.2 L263.05 210.15 262.85 210.15 Q258.85 209.7 256.15 208.2 L256.1 208.15 253.75 206.8 Q251.7 204.2 251.9 202.4 254.55 203.85 257.5 204.65 L257.5 204.7 257.45 204.7 257.45 204.75 256.0 205.6 252.95 204.35 252.9 204.3 252.1 203.85 Q252.5 205.15 253.75 206.75 L256.1 208.15 256.15 208.15 Q258.85 209.65 262.85 210.1 L263.05 210.15 263.45 210.2 M274.3 200.75 L276.25 201.75 275.7 203.0 273.35 204.85 270.0 204.55 269.8 204.5 269.75 204.4 269.75 204.35 269.85 204.3 269.85 204.35 273.45 202.8 268.65 203.05 268.55 202.95 270.1 201.5 270.05 201.45 267.1 202.2 266.85 202.1 264.7 201.5 263.55 199.85 263.55 199.8 263.5 199.8 263.55 199.8 271.65 200.5 271.7 200.55 274.3 200.75 M254.7 199.6 L256.95 199.65 257.85 199.6 262.85 199.75 262.9 199.75 263.05 199.75 263.1 199.75 263.55 199.8 263.55 199.85 263.5 199.8 262.35 201.45 262.2 201.45 260.25 201.8 257.9 200.6 259.0 202.3 254.9 201.1 257.85 203.3 251.9 202.35 Q252.15 200.55 254.7 199.6 M254.65 206.3 L254.65 206.35 254.55 206.35 254.6 206.3 254.65 206.3 M257.35 207.55 L257.3 207.55 257.35 207.55" fill="#666666" fill-rule="evenodd" stroke="none"/>
    <path d="M259.0 202.3 L257.9 200.6 260.25 201.8 259.65 202.0 259.05 202.35 259.0 202.3 M262.35 201.45 L263.5 199.8 263.55 199.85 264.7 201.5 264.3 201.45 263.8 201.45 263.6 201.4 263.55 201.4 263.05 201.4 262.9 201.4 262.65 201.4 262.35 201.45 M257.85 203.3 L257.9 203.3 257.5 204.05 257.5 204.65 257.5 204.05 257.9 203.3 258.3 202.9 258.55 202.7 258.6 202.65 259.75 202.05 262.0 201.65 262.65 201.6 263.05 201.6 263.05 201.65 263.05 202.1 263.05 201.65 263.05 201.6 263.15 201.6 263.5 201.6 Q265.1 201.7 266.65 202.3 L267.5 202.65 267.5 203.2 267.15 203.0 266.35 202.7 263.55 202.1 263.2 202.1 263.05 202.1 262.75 202.1 262.15 202.15 260.85 202.3 260.15 202.5 Q259.55 202.7 259.1 203.0 L259.05 203.05 258.8 203.25 258.45 203.55 Q258.15 203.85 258.1 204.2 258.0 204.45 258.05 204.75 L258.15 205.0 258.1 205.0 257.5 204.7 257.5 204.65 Q254.55 203.85 251.9 202.4 L251.9 202.35 257.85 203.3 M267.1 202.2 L270.05 201.45 270.1 201.5 268.55 202.95 267.85 202.55 267.1 202.2 M270.0 204.55 L273.35 204.85 271.1 205.9 270.45 205.95 270.35 205.1 270.25 205.0 270.25 204.95 270.0 204.55 M267.5 202.65 L267.55 202.7 268.05 203.0 267.5 202.7 267.5 202.65 M269.5 206.05 Q269.85 205.3 269.45 204.45 L268.9 203.7 Q268.55 203.3 268.05 203.0 L268.95 203.7 269.5 204.45 Q269.9 205.3 269.55 206.05 L269.5 206.05 269.25 206.5 268.9 206.9 268.7 207.05 268.55 207.15 268.5 207.15 268.55 207.2 268.5 207.2 268.4 207.25 268.35 207.25 268.25 207.35 268.15 207.4 267.95 207.5 267.8 207.55 267.65 207.6 267.5 207.65 267.65 207.6 267.8 207.55 268.45 207.15 268.65 207.05 268.85 206.9 269.5 206.05 M263.55 199.85 L263.55 201.4 263.55 199.85 M263.05 201.65 L263.15 201.6 263.05 201.65 M263.05 204.75 L263.0 204.75 263.05 204.75 M266.9 207.85 L267.5 207.65 266.9 207.85" fill="#bfbfbf" fill-rule="evenodd" stroke="none"/>
    <path d="M255.75 199.2 L257.75 199.15 263.05 199.3 263.9 199.4 264.1 199.4 264.6 199.45 271.45 200.1 275.25 200.4 274.45 200.75 274.3 200.75 271.7 200.55 271.65 200.5 263.55 199.8 263.1 199.75 263.05 199.75 262.9 199.75 262.85 199.75 257.85 199.6 256.95 199.65 254.7 199.6 255.75 199.2 M264.6 199.45 L263.55 199.8 264.6 199.45 M258.15 205.0 L258.05 204.75 Q258.0 204.45 258.1 204.2 258.15 203.85 258.45 203.55 L258.8 203.25 259.05 203.05 259.1 203.0 Q259.55 202.7 260.15 202.5 L260.85 202.3 262.15 202.15 262.75 202.1 263.05 202.1 263.2 202.1 263.55 202.1 266.35 202.7 267.15 203.0 267.5 203.2 266.65 204.45 266.5 204.65 266.3 204.75 265.6 205.15 265.45 205.2 265.35 205.25 264.7 205.45 263.8 205.65 263.05 205.75 262.95 205.75 262.8 205.75 261.5 205.75 261.3 205.75 260.9 205.7 260.85 205.7 259.85 205.55 258.35 205.1 258.15 205.0 M263.05 205.75 L263.05 204.9 263.05 204.75 263.05 204.55 263.05 202.1 263.05 204.55 263.05 204.75 263.05 204.9 263.05 205.75 M263.05 204.75 L263.0 204.75 263.05 204.75 263.05 204.9 263.05 204.75 263.05 204.55 263.05 204.75" fill="#999999" fill-rule="evenodd" stroke="none"/>
    <path d="M260.25 201.8 L262.2 201.45 262.35 201.45 262.65 201.4 262.9 201.4 263.05 201.4 263.55 201.4 263.6 201.4 263.8 201.45 264.15 201.45 Q265.25 201.6 266.3 202.05 L266.5 202.15 267.3 202.5 267.95 202.9 268.05 203.0 267.55 202.7 267.5 202.65 266.65 202.3 Q265.1 201.7 263.5 201.6 L263.15 201.6 263.05 201.6 262.65 201.6 262.0 201.65 259.75 202.05 258.6 202.65 259.05 202.35 259.65 202.0 260.25 201.8 M263.15 201.6 L263.6 201.4 263.15 201.6" fill="#dcdcdc" fill-rule="evenodd" stroke="none"/>
    <path d="M257.9 203.3 L257.85 203.3 254.9 201.1 259.0 202.3 259.05 202.35 258.6 202.65 258.55 202.7 258.3 202.9 257.9 203.3 M254.7 206.3 L254.65 206.35 254.65 206.3 254.7 206.3 M257.45 204.75 L257.65 205.35 257.75 205.45 257.75 205.5 257.9 206.05 256.0 205.6 257.45 204.75 M268.65 203.05 L273.45 202.8 269.85 204.35 269.85 204.3 269.8 204.25 269.55 204.0 269.3 203.65 268.65 203.05" fill="#cccccc" fill-rule="evenodd" stroke="none"/>
    <path d="M264.7 201.5 L266.85 202.1 267.1 202.2 267.85 202.55 268.55 202.95 268.65 203.05 269.3 203.65 269.55 204.0 269.75 204.3 269.75 204.35 269.75 204.4 269.8 204.5 269.95 205.5 269.75 206.0 269.75 206.05 269.7 206.05 269.55 206.3 269.1 206.75 268.55 207.2 268.5 207.15 268.55 207.15 268.7 207.05 268.9 206.9 269.25 206.5 269.5 206.05 269.55 206.05 Q269.9 205.3 269.5 204.45 L268.95 203.7 268.05 203.0 267.95 202.9 267.3 202.5 266.5 202.15 266.3 202.05 Q265.25 201.6 264.15 201.45 L263.8 201.45 264.3 201.45 264.7 201.5" fill="#a2a2a2" fill-rule="evenodd" stroke="none"/>
    <path d="M258.1 205.0 L258.25 205.3 258.5 205.65 258.95 206.15 259.45 206.5 259.95 206.75 260.85 207.15 262.2 207.55 262.65 207.6 263.05 207.65 263.1 207.65 263.15 207.65 263.5 207.65 263.55 207.65 263.65 207.7 263.7 207.7 264.85 207.65 265.0 207.65 265.4 207.65 265.75 207.6 266.55 207.45 267.15 207.25 267.25 207.25 267.4 207.15 268.0 206.8 268.35 206.6 268.8 206.15 Q269.35 205.4 268.9 204.55 L268.4 203.9 267.5 203.2 267.5 202.65 267.5 202.7 268.05 203.0 Q268.55 203.3 268.9 203.7 L269.45 204.45 Q269.85 205.3 269.5 206.05 L268.85 206.9 268.65 207.05 268.45 207.15 267.8 207.55 267.65 207.6 267.5 207.65 266.9 207.85 266.45 207.95 266.0 208.05 265.6 208.1 265.15 208.15 265.0 208.15 264.95 208.15 263.7 208.15 263.65 208.15 263.5 208.15 263.45 208.15 263.1 208.1 263.05 208.1 262.05 207.95 260.5 207.5 259.55 207.05 259.0 206.75 258.45 206.3 258.4 206.3 258.35 206.25 257.9 205.75 257.8 205.6 257.75 205.5 257.75 205.45 257.65 205.35 257.45 204.75 257.45 204.7 257.5 204.7 258.1 205.0 M263.05 207.65 L263.05 208.1 263.05 207.65 M268.5 207.2 L268.55 207.2 268.5 207.2" fill="#b5b5b5" fill-rule="evenodd" stroke="none"/>
    <path d="M299.4 195.65 L299.4 195.75 299.3 195.95 Q298.85 196.8 297.55 197.55 L296.95 197.9 297.55 197.55 Q298.8 196.8 299.25 195.95 L299.4 195.65 M274.35 209.75 L274.3 209.75 276.65 208.65 Q278.9 207.4 279.45 205.25 L279.45 205.2 279.45 205.1 Q279.45 204.4 278.6 203.55 L278.05 203.0 Q277.35 202.35 276.25 201.75 L274.3 200.75 274.45 200.75 288.45 200.3 294.2 198.9 294.2 201.2 294.0 201.6 Q292.3 204.65 284.05 206.9 L276.8 208.55 276.65 208.65 274.35 209.75" fill="#85503f" fill-rule="evenodd" stroke="none"/>
    <path d="M276.25 201.75 Q277.35 202.35 278.05 203.0 L278.6 203.55 Q279.45 204.4 279.45 205.1 L273.35 204.85 275.7 203.0 276.25 201.75 M279.45 205.2 L279.45 205.25 Q278.9 207.4 276.65 208.65 L274.3 209.7 271.2 210.05 269.75 210.2 Q266.6 210.4 264.0 210.2 L264.0 209.55 264.55 208.85 264.55 208.8 265.5 208.8 265.7 208.75 266.5 208.65 267.15 208.55 267.2 208.55 268.4 209.1 267.95 208.35 267.9 208.3 268.05 208.25 268.15 208.25 268.3 208.15 268.8 207.95 268.85 207.9 268.9 207.95 272.0 208.75 270.1 206.9 270.25 206.6 270.45 206.1 270.45 206.0 279.45 205.2 M254.65 206.35 L254.7 206.3 258.1 206.3 258.1 206.35 258.2 206.45 258.25 206.5 258.25 206.55 257.35 207.55 258.9 207.2 258.95 207.25 259.3 207.5 259.85 207.8 260.8 208.2 262.35 208.7 262.55 208.75 263.45 210.2 263.05 210.15 262.85 210.1 Q258.85 209.65 256.15 208.15 L256.1 208.15 253.75 206.75 Q252.5 205.15 252.1 203.85 L252.9 204.3 252.95 204.35 256.0 205.6 254.6 206.3 254.55 206.35 254.65 206.35 M257.35 207.55 L257.3 207.55 257.35 207.55" fill="#525252" fill-rule="evenodd" stroke="none"/>
    <path d="M253.75 206.8 Q250.8 204.8 250.5 203.35 L250.5 197.1 Q250.7 198.25 253.0 199.25 L253.15 199.3 253.2 199.35 254.6 199.6 254.7 199.6 Q252.15 200.55 251.9 202.35 L251.9 202.4 Q251.7 204.2 253.75 206.8" fill="#975b48" fill-rule="evenodd" stroke="none"/>
    <path d="M263.5 210.2 L263.45 210.2 262.55 208.75 263.3 208.85 263.35 208.85 263.5 208.85 263.5 210.2 M279.45 205.1 L279.45 205.2 270.45 206.0 270.45 205.95 271.1 205.9 273.35 204.85 279.45 205.1 M254.7 206.3 L254.65 206.3 254.6 206.3 256.0 205.6 257.9 206.05 257.95 206.05 258.0 206.2 258.1 206.3 254.7 206.3 M258.25 206.5 L258.25 206.55 258.7 207.0 258.9 207.2 257.35 207.55 258.25 206.55 258.25 206.5 M264.0 209.55 L264.0 208.8 264.2 208.8 264.55 208.8 264.55 208.85 264.0 209.55 M270.1 206.9 L272.0 208.75 268.9 207.95 268.85 207.9 269.05 207.8 269.65 207.4 270.05 206.95 270.1 206.9 M267.9 208.3 L267.95 208.35 268.4 209.1 267.2 208.55 267.15 208.55 267.4 208.5 267.9 208.3" fill="#bababa" fill-rule="evenodd" stroke="none"/>
    <path d="M257.75 205.5 L257.8 205.6 257.9 205.75 258.35 206.25 258.4 206.3 258.1 206.3 258.0 206.2 257.95 206.05 257.9 206.05 257.75 205.5 M269.85 204.3 L269.75 204.35 269.75 204.3 269.55 204.0 269.8 204.25 269.85 204.3 M269.8 204.5 L270.0 204.55 270.25 204.95 270.25 205.0 270.35 205.1 270.45 205.95 270.45 206.0 270.25 206.0 270.1 206.0 269.75 206.0 269.95 205.5 269.8 204.5" fill="#acacac" fill-rule="evenodd" stroke="none"/>
    <path d="M263.05 206.45 L260.8 206.4 260.35 206.35 260.3 206.35 260.25 206.35 259.85 206.3 259.65 206.3 259.05 206.2 259.45 206.45 259.95 206.75 260.85 207.1 262.2 207.5 262.65 207.6 263.05 207.65 262.65 207.6 262.2 207.55 260.85 207.15 259.95 206.75 259.45 206.5 258.95 206.15 258.5 205.65 258.25 205.3 258.1 205.0 258.15 205.0 258.35 205.1 259.85 205.55 260.85 205.7 260.9 205.7 261.3 205.75 261.5 205.75 262.8 205.75 262.95 205.75 263.05 205.75 263.05 206.45 263.05 205.75 263.8 205.65 264.7 205.45 265.35 205.25 265.45 205.2 265.6 205.15 266.3 204.75 266.5 204.65 266.65 204.45 267.5 203.2 268.4 203.9 268.9 204.55 Q269.35 205.4 268.8 206.15 L268.0 206.25 266.5 206.35 263.05 206.45" fill="#878787" fill-rule="evenodd" stroke="none"/>
    <path d="M263.05 207.65 L262.65 207.6 262.2 207.5 260.85 207.1 259.95 206.75 259.45 206.45 259.05 206.2 259.65 206.3 259.85 206.3 260.25 206.35 260.3 206.35 260.35 206.35 260.8 206.4 263.05 206.45 263.05 207.65 263.05 206.45 266.5 206.35 268.0 206.25 268.8 206.15 268.35 206.6 268.0 206.8 267.4 207.15 267.25 207.25 267.15 207.25 266.55 207.45 265.75 207.6 265.4 207.65 265.0 207.65 264.85 207.65 263.7 207.7 263.65 207.7 263.55 207.65 263.5 207.65 263.15 207.65 263.1 207.65 263.05 207.65" fill="#757575" fill-rule="evenodd" stroke="none"/>
    <path d="M263.55 210.2 L263.5 210.2 263.5 208.85 263.35 208.85 263.3 208.85 262.55 208.75 262.05 207.95 263.05 208.1 263.1 208.1 263.45 208.15 263.5 208.15 263.65 208.15 263.7 208.15 264.95 208.15 265.0 208.15 265.0 208.2 264.55 208.8 264.2 208.8 264.0 208.8 264.0 209.55 263.55 210.2 M258.45 206.3 L259.0 206.75 259.55 207.05 259.5 207.05 258.9 207.2 258.7 207.0 258.25 206.55 258.25 206.5 258.4 206.35 258.45 206.3 M266.0 208.05 L266.45 207.95 266.9 207.85 267.5 207.65 267.55 207.65 267.9 208.3 267.4 208.5 267.15 208.55 266.05 208.05 266.0 208.05 M268.55 207.2 L269.1 206.75 269.55 206.3 270.1 206.9 270.05 206.95 269.65 207.4 269.05 207.8 268.85 207.9 267.7 207.6 267.65 207.6 267.8 207.55 267.95 207.5 268.15 207.4 268.25 207.35 268.5 207.2 268.55 207.2 M263.5 208.15 L263.5 208.85 263.5 208.15 M268.5 207.2 L268.25 207.35 268.35 207.25 268.4 207.25 268.5 207.2" fill="#9a9a9a" fill-rule="evenodd" stroke="none"/>
    <path d="M258.4 206.3 L258.45 206.3 258.4 206.35 258.25 206.5 258.2 206.45 258.1 206.35 258.1 206.3 258.4 206.3 M259.55 207.05 L260.5 207.5 262.05 207.95 262.55 208.75 262.35 208.7 260.8 208.2 259.85 207.8 259.3 207.5 258.95 207.25 258.9 207.2 259.5 207.05 259.55 207.05 M265.0 208.15 L265.15 208.15 265.6 208.1 266.0 208.05 266.05 208.05 267.15 208.55 266.5 208.65 265.7 208.75 265.5 208.8 264.55 208.8 265.0 208.2 265.0 208.15 M269.55 206.3 L269.7 206.05 269.75 206.05 270.1 206.0 270.25 206.0 270.45 206.0 270.45 206.1 270.25 206.6 270.1 206.9 269.55 206.3 M268.85 207.9 L268.8 207.95 268.3 208.15 268.15 208.25 268.05 208.25 267.9 208.3 267.55 207.65 267.5 207.65 267.65 207.6 267.7 207.6 268.85 207.9" fill="#474747" fill-rule="evenodd" stroke="none"/>
    <path d="M264.0 210.25 L263.6 210.2 263.55 210.2 264.0 209.55 264.0 210.2 264.0 210.25 M269.75 206.05 L269.75 206.0 270.1 206.0 269.75 206.05 M263.6 210.2 L264.0 210.2 263.6 210.2" fill="#555555" fill-rule="evenodd" stroke="none"/>
    <path d="M299.4 195.75 L299.4 195.65 299.35 201.2 299.2 201.6 Q297.5 204.65 289.25 206.9 L288.8 207.0 274.35 209.75 276.65 208.65 276.8 208.55 284.05 206.9 Q292.3 204.65 294.0 201.6 L294.2 201.2 294.2 198.9 294.35 198.85 294.5 198.8 294.65 198.75 296.95 197.9 297.55 197.55 Q298.85 196.8 299.3 195.95 L299.4 195.75" fill="#764738" fill-rule="evenodd" stroke="none"/>
    <path d="M262.3 196.05 Q268.4 194.55 278.35 194.5 288.5 194.4 292.5 195.65 295.65 196.65 297.0 197.3 L297.25 197.1 Q298.5 196.35 298.95 195.5 L299.05 195.25 299.1 194.15 299.0 193.95 299.15 194.1 299.4 194.55 Q299.6 195.1 299.4 195.65 L299.4 195.75 299.4 195.65 299.35 201.2 299.2 201.6 Q297.5 204.65 289.25 206.9 L288.8 207.0 274.35 209.75 274.3 209.75 271.2 210.1 269.75 210.2 264.0 210.25 263.6 210.2 263.55 210.2 263.5 210.2 263.45 210.2 263.05 210.15 262.85 210.15 Q258.85 209.7 256.15 208.2 L256.1 208.15 253.75 206.8 Q250.8 204.8 250.5 203.35 L250.5 197.1 250.5 196.95 250.5 196.9 250.5 196.8 250.45 196.65 250.45 196.1 250.65 195.5 Q251.95 193.05 260.0 191.3 268.0 189.55 278.0 189.55 288.0 189.55 294.15 191.3 298.2 192.45 299.0 193.95 M262.3 196.05 L262.0 196.1 Q256.2 197.5 253.6 199.05 L255.75 199.2 257.75 199.15 263.05 199.3 263.9 199.4 264.1 199.4 264.6 199.45 271.45 200.1 275.25 200.4 275.45 200.4 288.2 199.85 Q294.5 198.65 297.0 197.3 M274.45 200.75 L274.3 200.75 276.25 201.75 Q277.35 202.35 278.05 203.0 L278.6 203.55 Q279.45 204.4 279.45 205.1 L279.45 205.2 279.45 205.25 Q278.9 207.4 276.65 208.65 L274.3 209.75 M262.3 196.05 L261.95 196.1 Q256.2 197.5 253.55 199.05 L253.6 199.05 M278.2 190.0 L278.25 190.0 M250.5 196.8 L250.5 196.55 M262.85 199.75 L262.9 199.75 M263.05 199.75 L263.1 199.75 M263.55 199.8 L264.6 199.45 M260.25 201.8 L262.2 201.45 262.35 201.45 262.65 201.4 262.9 201.4 263.05 201.4 263.55 201.4 263.55 199.85 263.55 199.8 263.5 199.8 263.55 199.85 M257.9 203.3 L257.85 203.3 M251.9 202.35 L251.9 202.4 Q251.7 204.2 253.75 206.8 M257.5 204.65 L257.5 204.05 257.9 203.3 258.3 202.9 258.55 202.7 258.6 202.65 259.05 202.35 259.0 202.3 M263.05 202.1 L263.05 201.65 263.05 201.6 M259.05 202.35 L259.65 202.0 260.25 201.8 M255.75 199.2 L254.7 199.6 Q252.15 200.55 251.9 202.35 M254.7 199.6 L254.6 199.6 254.7 199.6 M253.55 199.05 L253.1 198.9 253.05 198.9 252.9 198.8 Q250.9 197.95 250.5 196.95 M254.7 206.3 L254.65 206.3 254.6 206.3 M252.1 203.85 Q252.5 205.15 253.75 206.75 L256.1 208.15 256.15 208.15 Q258.85 209.65 262.85 210.1 L263.05 210.15 263.45 210.2 M263.05 207.65 L263.05 206.45 263.05 205.75 263.05 204.9 263.05 204.75 263.05 204.55 263.05 202.1 M263.05 207.65 L263.1 207.65 M257.5 204.65 L257.5 204.7 M257.45 204.7 L257.45 204.75 257.65 205.35 257.75 205.45 257.75 205.5 257.8 205.6 257.9 205.75 258.35 206.25 258.4 206.3 258.45 206.3 259.0 206.75 259.55 207.05 260.5 207.5 262.05 207.95 263.05 208.1 263.05 207.65 M258.25 206.5 L258.25 206.55 M258.4 206.35 L258.45 206.3 M257.35 207.55 L257.3 207.55 257.35 207.55 M275.25 200.4 L274.45 200.75 M276.65 208.65 L274.3 209.7 271.2 210.05 269.75 210.2 Q266.6 210.4 264.0 210.2 L263.6 210.2 M276.8 208.55 L276.65 208.65 274.35 209.75 M264.7 201.5 L266.85 202.1 267.1 202.2 267.85 202.55 268.55 202.95 268.65 203.05 269.3 203.65 269.55 204.0 269.75 204.3 269.75 204.35 269.75 204.4 269.8 204.5 270.0 204.55 M269.85 204.3 L269.75 204.35 M263.8 201.45 L263.6 201.4 263.15 201.6 263.05 201.65 M264.7 201.5 L264.3 201.45 263.8 201.45 M263.55 201.4 L263.6 201.4 M263.05 208.1 L263.1 208.1 263.45 208.15 263.5 208.15 263.65 208.15 263.7 208.15 264.95 208.15 265.0 208.15 265.15 208.15 265.6 208.1 266.0 208.05 266.45 207.95 266.9 207.85 267.5 207.65 267.55 207.65 M268.55 207.2 L269.1 206.75 269.55 206.3 269.7 206.05 M269.75 206.05 L269.75 206.0 269.95 205.5 269.8 204.5 M265.0 208.2 L265.0 208.15 M263.5 208.85 L263.5 208.15 M266.05 208.05 L266.0 208.05 M264.55 208.85 L264.55 208.8 M267.9 208.3 L267.95 208.35 M268.55 207.2 L268.5 207.2 268.25 207.35 268.15 207.4 267.95 207.5 267.8 207.55 267.65 207.6 267.7 207.6 M267.65 207.6 L267.5 207.65 M263.5 208.85 L263.5 210.2" fill="none" stroke="#000000" stroke-linecap="round" stroke-linejoin="round" stroke-width="0.05"/>
    <path d="M263.05 204.75 L263.05 204.55 M263.05 204.9 L263.05 204.75" fill="none" stroke="#000000" stroke-linecap="round" stroke-linejoin="round" stroke-width="0.05"/>
  </g>
</svg>
