<?xml version="1.0" encoding="UTF-8" standalone="no"?>
<svg xmlns:xlink="http://www.w3.org/1999/xlink" height="43.2px" width="73.15px" xmlns="http://www.w3.org/2000/svg">
  <g transform="matrix(1.0, 0.0, 0.0, 1.0, -170.05, -158.0)">
    <path d="M197.9 187.2 L198.35 186.6 187.1 183.4 187.55 169.45 203.35 169.75 205.2 188.55 205.1 187.95 200.2 191.95 197.9 187.2" fill="#7e3d5a" fill-rule="evenodd" stroke="none"/>
    <path d="M215.15 195.7 L215.0 194.9 225.05 194.95 228.8 180.35 215.8 175.95 208.8 194.9 209.1 194.3 211.9 199.9 215.15 195.7" fill="url(#gradient0)" fill-rule="evenodd" stroke="none"/>
    <path d="M217.5 179.95 L233.95 185.95 230.2 201.2 211.85 199.95 217.5 179.95" fill="#000000" fill-rule="evenodd" stroke="none"/>
    <path d="M200.05 192.0 L181.1 187.25 181.7 172.7 200.15 172.7 200.05 192.0" fill="#40203d" fill-rule="evenodd" stroke="none"/>
    <path d="M188.2 167.0 L186.3 168.1 188.2 168.55 181.7 172.7 187.5 173.9 191.55 171.0 196.1 171.8 192.35 175.3 175.3 172.85 175.2 172.8 179.35 170.6 186.6 166.7 188.2 167.0" fill="url(#gradient1)" fill-rule="evenodd" stroke="none"/>
    <path d="M175.5 169.9 Q181.65 167.15 187.75 164.45 L191.35 165.0 191.6 165.0 188.2 167.0 186.6 166.7 179.35 170.6 175.5 169.9" fill="url(#gradient2)" fill-rule="evenodd" stroke="none"/>
    <path d="M191.6 162.75 L192.75 162.25 194.35 162.1 200.9 163.2 197.8 165.1 196.5 165.1 190.4 169.0 188.2 168.55 186.3 168.1 188.2 167.0 191.6 165.0 191.35 165.0 193.3 163.6 191.6 162.75" fill="url(#gradient3)" fill-rule="evenodd" stroke="none"/>
    <path d="M200.9 163.2 L204.7 163.8 199.3 167.8 196.6 167.3 194.8 168.65 191.55 171.0 187.5 173.9 181.7 172.7 188.2 168.55 190.4 169.0 196.5 165.1 197.8 165.1 200.9 163.2" fill="url(#gradient4)" fill-rule="evenodd" stroke="none"/>
    <path d="M187.75 164.45 L191.6 162.75 193.3 163.6 191.35 165.0 187.75 164.45" fill="url(#gradient5)" fill-rule="evenodd" stroke="none"/>
    <path d="M204.7 163.8 L208.0 164.35 200.3 169.7 194.8 168.65 196.6 167.3 199.3 167.8 204.7 163.8" fill="url(#gradient6)" fill-rule="evenodd" stroke="none"/>
    <path d="M208.0 164.35 L210.6 164.8 Q211.15 165.15 211.15 166.4 L211.15 168.25 209.5 169.4 209.1 168.4 206.4 170.0 206.25 172.7 203.95 174.75 203.8 172.4 198.75 176.1 198.65 173.8 209.5 165.8 195.8 174.6 192.6 175.3 192.5 175.3 192.35 175.3 196.1 171.8 191.55 171.0 194.8 168.65 200.3 169.7 208.0 164.35" fill="url(#gradient7)" fill-rule="evenodd" stroke="none"/>
    <path d="M198.25 182.15 L197.5 182.8 Q196.3 183.45 194.8 183.3 L192.3 182.85 192.25 178.1 183.8 177.7 181.7 180.2 180.1 179.9 179.8 179.85 176.7 179.2 175.3 178.9 175.1 175.2 170.25 173.5 170.35 172.95 170.4 172.95 Q170.4 172.4 171.35 171.75 173.4 170.8 175.5 169.9 L179.35 170.6 175.2 172.8 171.85 172.3 193.5 176.5 Q194.75 177.9 195.2 179.7 L195.8 176.6 197.0 175.0 198.65 173.8 198.75 176.1 198.8 178.0 198.0 178.7 198.25 182.15" fill="url(#gradient8)" fill-rule="evenodd" stroke="none"/>
    <path d="M175.2 172.8 L175.3 172.85 192.35 175.3 192.5 175.3 192.6 175.3 195.8 174.6 209.5 165.8 198.65 173.8 197.0 175.0 195.8 176.6 195.2 179.7 Q194.75 177.9 193.5 176.5 L171.85 172.3 175.2 172.8" fill="url(#gradient9)" fill-rule="evenodd" stroke="none"/>
    <path d="M170.15 176.85 Q169.9 175.6 170.25 173.5 L175.1 175.2 175.3 178.9 173.0 178.3 Q171.35 177.85 170.15 176.85" fill="url(#gradient10)" fill-rule="evenodd" stroke="none"/>
    <path d="M201.85 178.85 L198.25 182.15 198.0 178.7 198.8 178.0 198.75 176.1 203.8 172.4 203.95 174.75 201.7 176.7 201.85 178.85" fill="url(#gradient11)" fill-rule="evenodd" stroke="none"/>
    <path d="M207.95 173.35 L201.85 178.85 201.7 176.7 203.95 174.75 206.25 172.7 207.8 171.3 207.95 173.35" fill="#050505" fill-rule="evenodd" stroke="none"/>
    <path d="M181.7 180.2 L183.8 177.7 192.25 178.1 192.3 182.85 191.05 182.45 Q189.3 181.8 187.45 181.4 L183.7 180.6 181.7 180.2" fill="url(#gradient12)" fill-rule="evenodd" stroke="none"/>
    <path d="M211.15 168.25 L211.15 170.4 207.95 173.35 207.8 171.3 206.25 172.7 206.4 170.0 209.1 168.4 209.5 169.4 211.15 168.25" fill="url(#gradient13)" fill-rule="evenodd" stroke="none"/>
    <path d="M197.5 182.8 L197.1 183.2 Q195.9 184.0 194.35 183.85 L171.3 178.55 Q170.4 178.15 170.15 176.85 171.35 177.85 173.0 178.3 L175.3 178.9 176.7 179.2 179.8 179.85 180.1 179.9 181.7 180.2 183.7 180.6 187.45 181.4 Q189.3 181.8 191.05 182.45 L192.3 182.85 194.8 183.3 Q196.3 183.45 197.5 182.8" fill="#b872af" fill-rule="evenodd" stroke="none"/>
    <path d="M235.55 184.05 L230.05 178.25 228.45 178.1 229.85 179.65 228.0 179.5 232.8 185.3 227.0 184.65 224.15 180.75 219.65 180.1 222.1 184.5 238.65 187.4 238.75 187.35 235.55 184.05" fill="url(#gradient14)" fill-rule="evenodd" stroke="none"/>
    <path d="M228.45 178.1 L230.05 178.25 235.55 184.05 239.35 184.6 229.6 175.8 226.15 175.3 225.9 175.2 228.45 178.1" fill="url(#gradient15)" fill-rule="evenodd" stroke="none"/>
    <path d="M228.0 179.5 L229.85 179.65 228.45 178.1 225.9 175.2 226.15 175.3 224.7 173.4 226.6 173.1 225.7 172.3 Q225.05 171.6 224.2 171.7 L217.8 170.7 220.1 173.4 221.3 173.8 225.8 179.25 228.0 179.5" fill="url(#gradient16)" fill-rule="evenodd" stroke="none"/>
    <path d="M224.15 180.75 L227.0 184.65 232.8 185.3 228.0 179.5 225.8 179.25 221.3 173.8 220.1 173.4 217.8 170.7 214.1 170.1 217.9 175.45 220.55 175.8 221.8 177.6 224.15 180.75" fill="url(#gradient17)" fill-rule="evenodd" stroke="none"/>
    <path d="M226.15 175.3 L229.6 175.8 226.6 173.1 224.7 173.4 226.15 175.3" fill="url(#gradient18)" fill-rule="evenodd" stroke="none"/>
    <path d="M214.1 170.1 L210.85 169.65 216.4 176.95 221.8 177.6 220.55 175.8 217.9 175.45 214.1 170.1" fill="url(#gradient19)" fill-rule="evenodd" stroke="none"/>
    <path d="M222.1 184.5 L219.65 180.1 224.15 180.75 221.8 177.6 216.4 176.95 210.85 169.65 208.3 169.25 Q207.7 169.4 207.35 170.55 L206.75 172.3 207.95 173.85 208.6 173.05 210.65 175.35 210.0 177.9 211.5 180.45 212.3 178.35 215.9 183.3 216.7 181.2 209.05 170.5 219.1 182.8 221.85 184.4 221.95 184.45 222.1 184.5" fill="url(#gradient20)" fill-rule="evenodd" stroke="none"/>
    <path d="M235.55 184.05 L238.75 187.35 242.05 187.95 220.7 185.25 Q219.05 186.15 218.1 187.7 L218.5 184.65 217.9 182.8 216.7 181.2 215.9 183.3 215.3 185.05 215.8 185.9 214.55 189.05 215.05 189.85 Q216.0 190.85 217.4 191.15 L219.85 191.5 221.35 187.1 229.3 189.3 230.5 192.25 232.05 192.45 232.35 192.5 235.4 192.8 236.8 193.0 238.1 189.6 243.15 189.5 243.2 189.0 243.15 188.95 Q243.3 188.45 242.65 187.6 L239.35 184.6 235.55 184.05" fill="url(#gradient21)" fill-rule="evenodd" stroke="none"/>
    <path d="M238.75 187.35 L238.65 187.4 222.1 184.5 221.95 184.45 221.85 184.4 219.1 182.8 209.05 170.5 216.7 181.2 217.9 182.8 218.5 184.65 218.1 187.7 Q219.05 186.15 220.7 185.25 L242.05 187.95 238.75 187.35" fill="url(#gradient22)" fill-rule="evenodd" stroke="none"/>
    <path d="M242.2 192.65 Q242.85 191.55 243.15 189.5 L238.1 189.6 236.8 193.0 239.15 193.15 Q240.8 193.2 242.2 192.65" fill="url(#gradient23)" fill-rule="evenodd" stroke="none"/>
    <path d="M212.2 184.9 L214.55 189.05 215.8 185.9 215.3 185.05 215.9 183.3 212.3 178.35 211.5 180.45 212.95 182.95 212.2 184.9" fill="url(#gradient24)" fill-rule="evenodd" stroke="none"/>
    <path d="M208.2 177.95 L212.2 184.9 212.95 182.95 211.5 180.45 210.0 177.9 208.95 176.1 208.2 177.95" fill="#050505" fill-rule="evenodd" stroke="none"/>
    <path d="M230.5 192.25 L229.3 189.3 221.35 187.1 219.85 191.5 221.15 191.5 224.8 191.6 228.55 192.0 230.5 192.25" fill="url(#gradient25)" fill-rule="evenodd" stroke="none"/>
    <path d="M206.75 172.3 L206.1 174.3 208.2 177.95 208.95 176.1 210.0 177.9 210.65 175.35 208.6 173.05 207.95 173.85 206.75 172.3" fill="url(#gradient26)" fill-rule="evenodd" stroke="none"/>
    <path d="M215.05 189.85 L215.3 190.4 Q216.15 191.45 217.65 191.85 L240.65 193.85 Q241.6 193.75 242.2 192.65 240.8 193.2 239.15 193.15 L236.8 193.0 235.4 192.8 232.35 192.5 232.05 192.45 230.5 192.25 228.55 192.0 224.8 191.6 221.15 191.5 219.85 191.5 217.4 191.15 Q216.0 190.85 215.05 189.85" fill="#b872af" fill-rule="evenodd" stroke="none"/>
    <path d="M204.75 167.85 L204.75 167.9 204.75 167.85 M185.6 166.3 L184.95 167.4 184.8 167.35 184.9 167.25 185.6 166.3" fill="#cf9716" fill-rule="evenodd" stroke="none"/>
    <path d="M186.05 165.15 L186.0 164.85 186.3 164.7 186.05 165.15 M188.05 170.2 L188.0 170.25 188.0 170.2 188.05 170.2 M186.2 171.8 L186.2 171.85 186.2 171.8 M183.45 166.05 L183.45 166.65 183.35 166.1 183.45 166.05" fill="#cdb874" fill-rule="evenodd" stroke="none"/>
    <path d="M183.35 166.1 Q182.55 162.55 183.85 158.95 L184.45 158.0 184.05 161.2 183.95 162.1 Q184.05 164.0 184.45 165.75 L183.5 166.8 183.45 166.05 183.35 166.1 M205.1 162.4 L205.2 162.25 205.35 162.45 Q206.25 163.4 205.95 164.25 L205.85 164.4 Q201.3 168.15 193.85 169.05 L193.5 169.1 184.55 168.55 Q184.6 169.25 185.4 169.8 L185.7 170.0 186.2 171.8 186.2 171.85 186.2 172.0 Q186.2 172.9 185.4 172.65 L184.55 172.2 184.35 171.85 Q183.85 170.65 183.65 169.5 L183.55 168.85 183.5 168.5 184.55 168.2 184.8 167.35 184.95 167.4 185.6 166.3 188.95 166.55 194.15 166.2 Q198.55 165.55 202.75 163.55 204.5 163.4 205.1 162.4 M205.05 165.2 L205.35 166.55 204.75 167.85 204.65 166.9 204.5 165.9 205.05 165.2" fill="#d8ca32" fill-opacity="0.9607843" fill-rule="evenodd" stroke="none"/>
    <path d="M205.85 164.4 L205.05 165.2 204.5 165.9 203.45 167.15 199.35 168.85 197.0 169.55 197.0 169.5 188.05 170.2 188.0 170.2 185.7 170.0 185.4 169.8 Q184.6 169.25 184.55 168.55 L193.5 169.1 193.85 169.05 Q201.3 168.15 205.85 164.4 M183.5 168.5 L183.45 166.85 183.5 166.85 184.8 167.35 184.55 168.2 183.5 168.5" fill="#987e29" fill-opacity="0.9607843" fill-rule="evenodd" stroke="none"/>
    <path d="M184.45 165.75 L184.65 166.1 185.65 166.15 186.15 166.2 188.85 166.2 189.85 166.15 194.2 165.65 196.85 165.05 Q199.45 164.35 201.7 163.2 L202.0 163.0 203.75 161.95 Q204.3 160.95 204.8 161.4 L205.35 162.25 205.05 162.15 205.1 162.4 Q204.5 163.4 202.75 163.55 198.55 165.55 194.15 166.2 L188.95 166.55 185.6 166.3 184.9 167.25 184.8 167.35 183.5 166.85 183.5 166.8 184.45 165.75" fill="#efe2c5" fill-opacity="0.9607843" fill-rule="evenodd" stroke="none"/>
    <path d="M184.45 158.0 L186.25 158.05 Q186.75 159.45 186.85 161.1 L186.65 164.15 186.55 164.55 186.6 164.5 186.5 165.5 186.35 165.6 186.15 165.75 186.05 165.15 186.3 164.7 186.35 164.7 186.3 161.15 185.65 161.15 184.05 161.2 184.45 158.0" fill="#ac9722" fill-opacity="0.9607843" fill-rule="evenodd" stroke="none"/>
    <path d="M186.0 164.85 L185.65 161.15 183.95 162.1 184.05 161.2 185.65 161.15 186.3 161.15 186.35 164.7 186.3 164.7 186.0 164.85" fill="#7a6023" fill-opacity="0.9607843" fill-rule="evenodd" stroke="none"/>
    <path d="M204.75 167.85 L203.8 168.6 204.05 167.55 204.65 166.9 204.75 167.85" fill="#423313" fill-opacity="0.9607843" fill-rule="evenodd" stroke="none"/>
    <path d="M212.85 174.0 L212.85 174.05 212.85 174.0 M230.9 179.55 L230.9 179.5 230.55 178.4 230.8 179.55 230.9 179.55" fill="#cf9716" fill-rule="evenodd" stroke="none"/>
    <path d="M230.5 177.25 L230.6 177.0 230.4 176.75 230.5 177.25 M227.15 181.15 L227.2 181.2 227.2 181.15 227.15 181.15 M228.35 183.15 L228.35 183.2 228.35 183.15 M232.55 178.8 L232.4 179.35 232.6 178.9 232.55 178.8" fill="#cdb874" fill-rule="evenodd" stroke="none"/>
    <path d="M233.3 175.15 L231.75 178.25 232.3 179.5 232.55 178.8 232.6 178.9 Q234.4 176.0 234.35 172.4 L234.05 171.35 233.45 174.35 233.3 175.15 M214.2 169.05 L214.15 168.9 213.95 169.05 Q212.85 169.6 212.9 170.45 L212.9 170.65 Q215.9 175.35 222.3 178.4 L222.6 178.55 Q227.15 180.25 230.8 180.75 L229.7 181.6 229.35 181.7 228.35 183.15 228.35 183.2 228.3 183.3 Q228.0 184.15 228.85 184.15 L229.7 184.0 230.05 183.75 231.35 181.85 231.6 181.3 231.8 181.0 230.9 180.45 230.9 179.55 230.8 179.55 230.55 178.4 227.45 177.6 222.85 175.75 Q219.1 173.85 215.95 170.8 214.45 170.15 214.2 169.05 M213.4 171.55 L212.7 172.7 212.85 174.0 213.25 173.2 213.7 172.4 213.4 171.55" fill="#d8ca32" fill-opacity="0.9607843" fill-rule="evenodd" stroke="none"/>
    <path d="M212.9 170.65 L213.4 171.55 213.7 172.4 214.25 173.8 217.4 176.55 Q219.25 177.8 219.3 177.9 L219.35 177.85 Q224.5 180.35 227.15 181.15 L227.2 181.15 229.35 181.7 229.7 181.6 230.8 180.75 Q227.15 180.25 222.6 178.55 L222.3 178.4 Q215.9 175.35 212.9 170.65 M231.8 181.0 L232.3 179.55 232.25 179.55 230.9 179.55 230.9 180.45 231.8 181.0" fill="#987e29" fill-opacity="0.9607843" fill-rule="evenodd" stroke="none"/>
    <path d="M231.75 178.25 L231.45 178.5 230.55 178.25 230.05 178.15 227.65 177.35 226.8 177.0 223.05 175.25 Q221.85 174.65 220.8 173.9 218.65 172.5 217.0 170.8 L216.75 170.55 215.55 169.05 Q215.35 168.0 214.75 168.25 214.2 168.5 214.0 168.85 L214.35 168.85 214.2 169.05 Q214.45 170.15 215.95 170.8 219.1 173.85 222.85 175.75 L227.45 177.6 230.55 178.4 230.9 179.5 230.9 179.55 232.25 179.55 232.3 179.5 231.75 178.25" fill="#efe2c5" fill-opacity="0.9607843" fill-rule="evenodd" stroke="none"/>
    <path d="M234.05 171.35 L232.4 170.85 Q231.55 171.95 231.0 173.4 230.5 174.7 230.25 176.15 L230.2 176.55 230.15 176.5 229.95 177.4 230.1 177.55 230.2 177.75 230.5 177.25 230.4 176.75 230.35 176.75 231.45 173.6 232.0 173.8 233.45 174.35 234.05 171.35" fill="#ac9722" fill-opacity="0.9607843" fill-rule="evenodd" stroke="none"/>
    <path d="M230.6 177.0 L232.0 173.8 233.3 175.15 233.45 174.35 232.0 173.8 231.45 173.6 230.35 176.75 230.4 176.75 230.6 177.0" fill="#7a6023" fill-opacity="0.9607843" fill-rule="evenodd" stroke="none"/>
    <path d="M212.85 174.0 L213.5 175.0 213.6 173.95 213.25 173.2 212.85 174.0" fill="#423313" fill-opacity="0.9607843" fill-rule="evenodd" stroke="none"/>
  </g>
  <defs>
    <linearGradient gradientTransform="matrix(-0.009, -0.0033, -0.004, 0.0142, 218.5, 189.45)" gradientUnits="userSpaceOnUse" id="gradient0" spreadMethod="pad" x1="-819.2" x2="819.2">
      <stop offset="0.396078431372549" stop-color="#2e1b24"/>
      <stop offset="0.6666666666666666" stop-color="#6d294d"/>
    </linearGradient>
    <linearGradient gradientTransform="matrix(0.0073, -0.0069, 0.0036, 0.0038, 185.6, 171.05)" gradientUnits="userSpaceOnUse" id="gradient1" spreadMethod="pad" x1="-819.2" x2="819.2">
      <stop offset="0.34509803921568627" stop-color="#47253c"/>
      <stop offset="1.0" stop-color="#4e4532"/>
    </linearGradient>
    <linearGradient gradientTransform="matrix(0.0098, 0.0, 0.0, 0.0038, 183.55, 167.5)" gradientUnits="userSpaceOnUse" id="gradient2" spreadMethod="pad" x1="-819.2" x2="819.2">
      <stop offset="0.0" stop-color="#72254d"/>
      <stop offset="1.0" stop-color="#4e4532"/>
    </linearGradient>
    <linearGradient gradientTransform="matrix(0.0089, 0.0, 0.0, 0.0043, 193.6, 165.5)" gradientUnits="userSpaceOnUse" id="gradient3" spreadMethod="pad" x1="-819.2" x2="819.2">
      <stop offset="0.0" stop-color="#72254d"/>
      <stop offset="1.0" stop-color="#4e4532"/>
    </linearGradient>
    <linearGradient gradientTransform="matrix(0.014, 0.0, 0.0, 0.0065, 193.2, 168.55)" gradientUnits="userSpaceOnUse" id="gradient4" spreadMethod="pad" x1="-819.2" x2="819.2">
      <stop offset="0.34509803921568627" stop-color="#2c1625"/>
      <stop offset="1.0" stop-color="#4e4532"/>
    </linearGradient>
    <linearGradient gradientTransform="matrix(0.0034, 0.0, 0.0, 0.0014, 190.5, 163.85)" gradientUnits="userSpaceOnUse" id="gradient5" spreadMethod="pad" x1="-819.2" x2="819.2">
      <stop offset="0.34509803921568627" stop-color="#35202d"/>
      <stop offset="1.0" stop-color="#4e4532"/>
    </linearGradient>
    <linearGradient gradientTransform="matrix(0.0081, 0.0, 0.0, 0.0036, 201.4, 166.75)" gradientUnits="userSpaceOnUse" id="gradient6" spreadMethod="pad" x1="-819.2" x2="819.2">
      <stop offset="0.0" stop-color="#72254d"/>
      <stop offset="1.0" stop-color="#4e4532"/>
    </linearGradient>
    <linearGradient gradientTransform="matrix(0.012, 0.0, 0.0, 0.0072, 201.35, 170.2)" gradientUnits="userSpaceOnUse" id="gradient7" spreadMethod="pad" x1="-819.2" x2="819.2">
      <stop offset="0.0" stop-color="#72254d"/>
      <stop offset="1.0" stop-color="#26292f"/>
    </linearGradient>
    <linearGradient gradientTransform="matrix(0.0174, 0.0, 0.0, 0.0085, 184.5, 176.85)" gradientUnits="userSpaceOnUse" id="gradient8" spreadMethod="pad" x1="-819.2" x2="819.2">
      <stop offset="0.34509803921568627" stop-color="#1f101c"/>
      <stop offset="1.0" stop-color="#4e4532"/>
    </linearGradient>
    <linearGradient gradientTransform="matrix(0.023, 0.0, 0.0, 0.0077, 190.65, 172.1)" gradientUnits="userSpaceOnUse" id="gradient9" spreadMethod="pad" x1="-819.2" x2="819.2">
      <stop offset="0.34509803921568627" stop-color="#98618d"/>
      <stop offset="1.0" stop-color="#e699d1"/>
    </linearGradient>
    <linearGradient gradientTransform="matrix(0.0039, -0.0022, 0.0018, 0.0032, 172.65, 176.5)" gradientUnits="userSpaceOnUse" id="gradient10" spreadMethod="pad" x1="-819.2" x2="819.2">
      <stop offset="0.34509803921568627" stop-color="#763f63"/>
      <stop offset="1.0" stop-color="#4e4532"/>
    </linearGradient>
    <linearGradient gradientTransform="matrix(0.0036, 0.0, 0.0, 0.006, 200.95, 177.25)" gradientUnits="userSpaceOnUse" id="gradient11" spreadMethod="pad" x1="-819.2" x2="819.2">
      <stop offset="0.34509803921568627" stop-color="#763f63"/>
      <stop offset="1.0" stop-color="#4e4532"/>
    </linearGradient>
    <linearGradient gradientTransform="matrix(0.0068, 0.0, 0.0, 0.0045, 186.7, 179.7)" gradientUnits="userSpaceOnUse" id="gradient12" spreadMethod="pad" x1="-819.2" x2="819.2">
      <stop offset="0.34509803921568627" stop-color="#613d5a"/>
      <stop offset="1.0" stop-color="#4e4532"/>
    </linearGradient>
    <linearGradient gradientTransform="matrix(0.0024, 0.0088, -0.003, 8.0E-4, 207.7, 168.7)" gradientUnits="userSpaceOnUse" id="gradient13" spreadMethod="pad" x1="-819.2" x2="819.2">
      <stop offset="0.34509803921568627" stop-color="#763f63"/>
      <stop offset="1.0" stop-color="#4e4532"/>
    </linearGradient>
    <linearGradient gradientTransform="matrix(-0.0047, -0.0086, -0.0045, 0.0024, 229.6, 182.6)" gradientUnits="userSpaceOnUse" id="gradient14" spreadMethod="pad" x1="-819.2" x2="819.2">
      <stop offset="0.34509803921568627" stop-color="#47253c"/>
      <stop offset="1.0" stop-color="#4e4532"/>
    </linearGradient>
    <linearGradient gradientTransform="matrix(-0.0091, -0.003, -0.0011, 0.0035, 232.6, 179.95)" gradientUnits="userSpaceOnUse" id="gradient15" spreadMethod="pad" x1="-819.2" x2="819.2">
      <stop offset="0.0" stop-color="#72254d"/>
      <stop offset="1.0" stop-color="#4e4532"/>
    </linearGradient>
    <linearGradient gradientTransform="matrix(-0.0083, -0.0027, -0.0013, 0.004, 223.9, 175.05)" gradientUnits="userSpaceOnUse" id="gradient16" spreadMethod="pad" x1="-819.2" x2="819.2">
      <stop offset="0.0" stop-color="#72254d"/>
      <stop offset="1.0" stop-color="#4e4532"/>
    </linearGradient>
    <linearGradient gradientTransform="matrix(-0.013, -0.0042, -0.002, 0.006, 223.35, 177.95)" gradientUnits="userSpaceOnUse" id="gradient17" spreadMethod="pad" x1="-819.2" x2="819.2">
      <stop offset="0.34509803921568627" stop-color="#2c1625"/>
      <stop offset="1.0" stop-color="#4e4532"/>
    </linearGradient>
    <linearGradient gradientTransform="matrix(-0.0031, -0.001, -4.0E-4, 0.0013, 227.25, 174.45)" gradientUnits="userSpaceOnUse" id="gradient18" spreadMethod="pad" x1="-819.2" x2="819.2">
      <stop offset="0.34509803921568627" stop-color="#35202d"/>
      <stop offset="1.0" stop-color="#4e4532"/>
    </linearGradient>
    <linearGradient gradientTransform="matrix(-0.0075, -0.0024, -0.0011, 0.0033, 216.25, 173.85)" gradientUnits="userSpaceOnUse" id="gradient19" spreadMethod="pad" x1="-819.2" x2="819.2">
      <stop offset="0.0" stop-color="#72254d"/>
      <stop offset="1.0" stop-color="#4e4532"/>
    </linearGradient>
    <linearGradient gradientTransform="matrix(-0.0111, -0.0036, -0.0022, 0.0066, 215.3, 177.05)" gradientUnits="userSpaceOnUse" id="gradient20" spreadMethod="pad" x1="-819.2" x2="819.2">
      <stop offset="0.0" stop-color="#72254d"/>
      <stop offset="1.0" stop-color="#26292f"/>
    </linearGradient>
    <linearGradient gradientTransform="matrix(-0.0162, -0.0053, -0.0026, 0.0079, 228.9, 188.3)" gradientUnits="userSpaceOnUse" id="gradient21" spreadMethod="pad" x1="-819.2" x2="819.2">
      <stop offset="0.34509803921568627" stop-color="#1f101c"/>
      <stop offset="1.0" stop-color="#4e4532"/>
    </linearGradient>
    <linearGradient gradientTransform="matrix(-0.0213, -0.0069, -0.0023, 0.0071, 224.65, 182.05)" gradientUnits="userSpaceOnUse" id="gradient22" spreadMethod="pad" x1="-819.2" x2="819.2">
      <stop offset="0.34509803921568627" stop-color="#98618d"/>
      <stop offset="1.0" stop-color="#e699d1"/>
    </linearGradient>
    <linearGradient gradientTransform="matrix(-0.0029, -0.0032, -0.0026, 0.0024, 240.05, 191.55)" gradientUnits="userSpaceOnUse" id="gradient23" spreadMethod="pad" x1="-819.2" x2="819.2">
      <stop offset="0.34509803921568627" stop-color="#763f63"/>
      <stop offset="1.0" stop-color="#4e4532"/>
    </linearGradient>
    <linearGradient gradientTransform="matrix(-0.0034, -0.0011, -0.0018, 0.0055, 213.5, 183.7)" gradientUnits="userSpaceOnUse" id="gradient24" spreadMethod="pad" x1="-819.2" x2="819.2">
      <stop offset="0.34509803921568627" stop-color="#763f63"/>
      <stop offset="1.0" stop-color="#4e4532"/>
    </linearGradient>
    <linearGradient gradientTransform="matrix(-0.0063, -0.0021, -0.0014, 0.0042, 226.0, 190.3)" gradientUnits="userSpaceOnUse" id="gradient25" spreadMethod="pad" x1="-819.2" x2="819.2">
      <stop offset="0.34509803921568627" stop-color="#613d5a"/>
      <stop offset="1.0" stop-color="#4e4532"/>
    </linearGradient>
    <linearGradient gradientTransform="matrix(-0.0049, 0.0074, 0.0025, 0.0017, 209.85, 173.75)" gradientUnits="userSpaceOnUse" id="gradient26" spreadMethod="pad" x1="-819.2" x2="819.2">
      <stop offset="0.34509803921568627" stop-color="#763f63"/>
      <stop offset="1.0" stop-color="#4e4532"/>
    </linearGradient>
  </defs>
</svg>
