<?xml version="1.0" encoding="UTF-8" standalone="no"?>
<svg xmlns:xlink="http://www.w3.org/1999/xlink" height="33.4px" width="15.5px" xmlns="http://www.w3.org/2000/svg">
  <g transform="matrix(1.0, 0.0, 0.0, 1.0, -314.25, -180.75)">
    <path d="M323.05 180.75 Q324.05 181.9 324.35 183.3 L324.4 183.45 324.7 190.3 324.7 190.5 Q324.85 194.7 325.25 197.95 L325.25 198.1 Q325.7 205.1 328.55 208.85 L329.65 209.75 329.6 209.75 327.95 209.75 327.95 209.7 Q324.3 206.6 323.7 202.4 323.1 206.8 324.85 210.2 L324.8 210.25 324.6 210.55 324.55 211.0 324.55 211.2 Q324.35 212.15 323.5 212.4 L322.1 212.6 322.0 212.6 Q319.6 208.15 319.55 197.35 317.05 205.95 317.95 213.0 L317.75 213.15 317.1 213.45 Q314.55 210.75 314.25 207.3 L314.35 206.15 315.0 198.95 315.6 191.65 Q315.75 187.6 315.1 184.35 320.0 183.25 323.05 180.75" fill="#000000" fill-rule="evenodd" stroke="none"/>
    <path d="M329.65 209.75 L329.7 209.75 329.75 209.8 329.6 209.75 329.65 209.75 M327.95 209.75 L327.3 209.75 327.95 209.7 327.95 209.75 M324.9 210.2 L324.8 210.25 324.85 210.2 324.9 210.2" fill="#555ba0" fill-rule="evenodd" stroke="none"/>
    <path d="M327.3 209.75 L324.95 210.2 324.9 210.2 324.85 210.2 Q323.1 206.8 323.7 202.4 324.3 206.6 327.95 209.7 L327.3 209.75 M322.0 212.6 L320.55 212.6 317.95 213.0 Q317.05 205.95 319.55 197.35 319.6 208.15 322.0 212.6" fill="#2d2d2d" fill-rule="evenodd" stroke="none"/>
    <path d="M317.1 213.45 L317.75 214.05 317.8 214.1 Q315.45 214.3 314.25 213.25 L314.25 207.3 Q314.55 210.75 317.1 213.45" fill="#a7a7a7" fill-rule="evenodd" stroke="none"/>
    <path d="M323.05 180.75 Q324.05 181.9 324.35 183.3 L324.4 183.45 324.7 190.3 324.7 190.5 Q324.85 194.7 325.25 197.95 L325.25 198.1 Q325.7 205.1 328.55 208.85 L329.65 209.75 329.7 209.75 329.75 209.8 329.6 209.75 327.95 209.75 327.3 209.75 324.95 210.2 324.9 210.2 M324.8 210.25 L324.6 210.55 324.55 211.0 324.55 211.2 Q324.35 212.15 323.5 212.4 L322.1 212.6 322.0 212.6 320.55 212.6 317.95 213.0 317.75 213.15 317.1 213.45 317.75 214.05 317.8 214.1 Q315.45 214.3 314.25 213.25 M324.85 210.2 L324.8 210.25 M317.1 213.45 Q314.55 210.75 314.25 207.3" fill="none" stroke="#0f121c" stroke-linecap="round" stroke-linejoin="round" stroke-width="0.05"/>
    <path d="M321.0 188.8 L321.1 188.85 Q320.6 190.6 320.55 192.2 L320.75 192.2 321.2 192.3 321.65 192.4 321.65 193.45 321.9 193.55 321.9 195.0 321.65 195.3 321.65 195.6 Q321.4 195.65 321.05 196.65 L321.0 196.8 320.4 197.35 320.4 194.9 321.3 194.0 321.35 193.75 321.35 193.5 Q321.05 193.6 320.5 194.0 L320.05 194.2 319.6 194.3 318.75 194.4 318.75 194.65 318.8 194.9 319.7 195.1 319.7 197.55 319.1 197.5 319.05 197.35 Q318.7 196.65 318.45 196.8 L318.45 196.5 318.2 196.3 318.2 194.85 318.45 194.65 318.45 193.6 318.9 193.1 319.35 192.7 319.55 192.5 Q319.5 191.0 319.0 189.55 L319.1 189.5 Q319.5 189.05 320.05 188.8 320.6 188.65 321.0 188.8 M324.75 194.25 L324.6 194.5 324.45 194.35 322.65 197.2 322.95 197.55 322.95 197.6 323.05 197.7 323.25 198.0 322.9 198.5 322.75 198.7 322.7 198.4 322.7 198.2 322.45 197.9 322.05 198.55 321.9 200.35 321.6 201.9 321.55 202.15 321.7 201.9 321.8 201.65 322.25 202.0 323.55 202.95 323.0 203.15 322.4 203.25 321.35 202.65 Q320.9 203.65 320.05 204.15 319.2 204.25 318.75 203.55 L317.7 204.95 317.1 205.25 316.55 205.45 317.85 203.6 318.3 202.85 318.4 203.1 318.55 203.25 318.5 203.0 318.2 201.65 318.1 199.95 317.65 199.6 317.4 200.1 317.4 200.3 317.35 200.6 317.2 200.5 316.85 200.3 317.05 199.9 317.15 199.7 317.15 199.65 317.45 199.1 315.65 197.5 315.5 197.8 315.35 197.65 316.1 196.55 316.2 196.7 316.05 197.0 317.15 197.95 317.15 198.0 317.8 198.55 318.1 198.1 318.5 197.65 318.9 198.0 319.0 198.15 318.8 198.15 318.65 198.25 318.55 198.3 318.35 198.5 318.7 198.85 Q319.35 198.45 320.05 198.2 320.75 197.95 321.4 197.85 L321.75 197.3 321.55 197.2 321.45 197.25 321.3 197.25 321.1 197.35 321.2 197.2 321.6 196.55 322.0 196.7 322.3 196.95 322.95 195.9 322.95 195.85 324.1 194.1 323.9 194.0 324.05 193.75 324.75 194.25 M321.0 198.55 L320.05 198.75 Q319.55 198.95 319.1 199.25 L318.75 199.4 318.6 199.55 318.55 199.55 318.4 199.65 318.4 200.2 318.5 201.6 319.1 200.75 319.25 200.5 319.35 200.5 319.5 200.55 320.05 199.2 320.6 200.15 320.75 200.0 320.85 199.9 321.6 200.5 321.7 199.0 321.7 198.45 321.55 198.45 321.5 198.45 321.35 198.5 321.0 198.55 M322.9 195.95 L322.9 195.9 322.9 195.95 M320.8 200.5 L320.75 200.7 320.6 200.75 320.6 200.5 320.2 200.55 320.2 200.8 319.9 200.9 319.9 200.65 319.5 200.9 319.5 201.15 319.35 201.2 319.3 201.0 319.1 201.3 319.2 201.8 319.45 201.7 319.45 201.95 319.4 202.15 319.4 202.45 319.25 203.15 319.2 203.35 319.7 203.55 320.0 203.55 320.05 203.55 320.4 203.35 320.9 202.75 320.85 202.55 320.7 201.95 320.7 201.65 320.65 201.55 320.65 201.3 320.9 201.2 321.0 200.6 320.8 200.5 M317.2 197.95 L317.2 197.9 317.2 197.95" fill="#a7d6d8" fill-rule="evenodd" stroke="none"/>
  </g>
</svg>
