<?xml version="1.0" encoding="UTF-8" standalone="no"?>
<svg xmlns:xlink="http://www.w3.org/1999/xlink" height="38.8px" width="185.7px" xmlns="http://www.w3.org/2000/svg">
  <g transform="matrix(1.0, 0.0, 0.0, 1.0, 92.85, 19.4)">
    <path d="M-63.65 -12.1 L-63.75 -12.25 Q-67.2 -16.8 -71.7 -13.15 L-71.7 -12.95 Q-73.15 0.5 -72.35 14.25 -63.0 21.15 -63.65 -12.1" fill="#ca9a40" fill-rule="evenodd" stroke="none"/>
    <path d="M-72.35 14.25 L-72.35 14.85 -72.25 15.8 -71.35 17.1 Q-68.15 21.05 -64.1 18.25 -62.3 4.2 -62.9 -10.9 L-63.65 -12.1 Q-63.0 21.15 -72.35 14.25" fill="#987229" fill-rule="evenodd" stroke="none"/>
    <path d="M-63.65 -12.1 L-63.75 -12.25 Q-67.2 -16.8 -71.7 -13.15 L-71.7 -12.95 Q-73.15 0.5 -72.35 14.25 L-72.35 14.85 -72.25 15.8 -71.35 17.1 Q-68.15 21.05 -64.1 18.25 -62.3 4.2 -62.9 -10.9 L-63.65 -12.1 Z" fill="none" stroke="#232312" stroke-linecap="round" stroke-linejoin="round" stroke-opacity="0.5019608" stroke-width="0.05"/>
    <path d="M-92.55 10.5 L-92.55 11.1 -92.45 12.05 -91.55 13.35 Q-88.35 17.3 -84.3 14.5 -82.5 0.45 -83.1 -14.65 L-83.85 -15.85 Q-83.2 17.4 -92.55 10.5" fill="#987229" fill-rule="evenodd" stroke="none"/>
    <path d="M-83.85 -15.85 L-83.95 -16.0 Q-87.4 -20.55 -91.9 -16.9 L-91.9 -16.7 Q-93.35 -3.25 -92.55 10.5 -83.2 17.4 -83.85 -15.85" fill="#ca9a40" fill-rule="evenodd" stroke="none"/>
    <path d="M-83.85 -15.85 L-83.95 -16.0 Q-87.4 -20.55 -91.9 -16.9 L-91.9 -16.7 Q-93.35 -3.25 -92.55 10.5 L-92.55 11.1 -92.45 12.05 -91.55 13.35 Q-88.35 17.3 -84.3 14.5 -82.5 0.45 -83.1 -14.65 L-83.85 -15.85 Z" fill="none" stroke="#232312" stroke-linecap="round" stroke-linejoin="round" stroke-opacity="0.5019608" stroke-width="0.05"/>
    <path d="M92.55 9.6 Q93.35 -4.15 91.9 -17.6 L91.85 -17.8 Q87.4 -21.45 83.95 -16.9 L83.85 -16.75 Q83.2 16.5 92.55 9.6" fill="#ca9a40" fill-rule="evenodd" stroke="none"/>
    <path d="M92.55 9.6 Q83.2 16.5 83.85 -16.75 L83.05 -15.55 Q82.5 -0.45 84.25 13.6 88.35 16.4 91.5 12.45 L92.45 11.15 92.5 10.2 92.55 9.6" fill="#987229" fill-rule="evenodd" stroke="none"/>
    <path d="M83.85 -16.75 L83.95 -16.9 Q87.4 -21.45 91.85 -17.8 L91.9 -17.6 Q93.35 -4.15 92.55 9.6 L92.5 10.2 92.45 11.15 91.5 12.45 Q88.35 16.4 84.25 13.6 82.5 -0.45 83.05 -15.55 L83.85 -16.75 Z" fill="none" stroke="#232312" stroke-linecap="round" stroke-linejoin="round" stroke-opacity="0.5019608" stroke-width="0.05"/>
  </g>
</svg>
