<?xml version="1.0" encoding="UTF-8" standalone="no"?>
<svg xmlns:xlink="http://www.w3.org/1999/xlink" height="25.2px" width="42.75px" xmlns="http://www.w3.org/2000/svg">
  <g transform="matrix(1.0, 0.0, 0.0, 1.0, 21.35, 12.6)">
    <path d="M-4.2 -1.2 Q-1.7 2.85 5.3 3.1 L4.1 4.15 3.1 4.2 3.15 5.05 0.8 4.85 2.0 5.75 -0.9 7.4 -2.1 7.9 Q-5.1 7.55 -9.15 4.7 -13.3 1.8 -13.9 -0.5 L-14.45 -3.25 -12.95 -3.9 Q-12.7 -1.9 -12.15 -0.45 L-12.7 -3.9 -12.9 -4.65 -8.5 -6.4 Q-7.65 -4.8 -7.1 -2.7 -7.1 -1.3 -8.95 0.05 L-4.2 -1.2 M-7.85 3.35 Q-5.8 6.35 -0.9 7.4 -5.8 6.35 -7.85 3.35 M-8.7 9.25 L-8.25 9.25 -8.7 9.4 -8.7 9.25" fill="#a97234" fill-rule="evenodd" stroke="none"/>
    <path d="M-21.35 7.05 L-19.55 6.65 -18.6 7.1 -18.6 6.45 -16.2 5.9 -15.2 7.05 -14.5 6.35 -15.15 5.7 -14.45 5.55 Q-13.0 7.65 -5.95 9.1 L-7.3 9.55 -8.7 9.4 -10.55 9.8 -11.9 9.65 -12.35 9.8 -10.05 10.5 -11.55 11.05 -13.5 10.55 -13.45 11.0 Q-17.3 10.1 -19.2 9.05 -20.25 8.4 -21.35 7.05 M-8.7 9.4 L-8.25 9.25 -8.7 9.25 -8.7 9.4 M-10.7 9.25 L-8.7 9.25 -10.7 9.25" fill="#ba8f2e" fill-rule="evenodd" stroke="none"/>
    <path d="M-12.2 -9.8 L-3.4 -12.6 Q1.15 -9.95 1.85 -5.1 1.7 -3.5 -0.05 -2.6 L-0.35 -2.5 -0.2 -3.75 -1.05 -2.25 -2.0 -1.95 -1.8 -2.95 -3.15 -1.55 -3.25 -1.5 -4.2 -1.2 -8.95 0.05 Q-7.1 -1.3 -7.1 -2.7 -7.65 -4.8 -8.5 -6.4 L-9.0 -7.2 -9.0 -7.25 -9.85 -8.4 -11.05 -9.6 -12.2 -9.8 M-3.5 -10.75 Q-1.0 -8.6 -0.4 -5.9 -0.15 -9.25 -3.5 -10.75 M7.0 2.0 L5.45 2.35 3.95 1.45 4.15 1.4 Q11.9 -1.2 13.6 -5.0 L14.35 -4.7 13.65 -3.5 14.4 -2.2 15.55 -4.3 18.25 -3.35 18.25 -2.15 19.35 -2.95 21.4 -2.25 Q20.15 0.25 18.95 1.35 16.75 3.35 12.45 4.95 L12.5 4.1 10.25 5.0 8.55 4.05 Q9.85 3.4 11.2 2.8 L10.65 2.5 9.1 2.8 7.0 2.0 6.5 1.8 7.5 1.75 9.3 1.8 7.5 1.75 6.5 1.8 7.0 2.0 M1.45 8.0 L2.9 7.55 3.45 8.7 3.9 8.0 3.55 7.35 3.95 7.2 Q4.75 9.25 8.85 10.75 L8.95 10.8 8.15 11.25 7.3 11.05 6.2 11.4 5.35 11.25 5.1 11.4 6.45 12.1 5.55 12.6 4.4 12.05 4.4 12.5 Q2.1 11.55 1.0 10.5 0.35 9.85 -0.2 8.55 L0.85 8.2 1.45 8.65 1.45 8.0 M6.1 10.9 L7.05 10.9 7.6 10.95 7.3 11.05 7.6 10.95 7.05 10.9 6.1 10.9" fill="#a27d28" fill-rule="evenodd" stroke="none"/>
    <path d="M-14.45 -7.3 Q-14.05 -9.1 -12.65 -9.65 L-12.2 -9.8 -11.05 -9.6 -9.85 -8.4 -14.45 -7.3" fill="#5c3f1d" fill-rule="evenodd" stroke="none"/>
    <path d="M-13.2 -6.25 L-13.25 -7.1 -13.3 -6.25 -14.65 -5.9 -14.45 -7.3 -9.85 -8.4 -9.0 -7.25 -13.2 -6.25" fill="#795426" fill-rule="evenodd" stroke="none"/>
    <path d="M-12.9 -4.65 L-13.2 -6.25 -9.0 -7.25 -9.0 -7.2 -8.5 -6.4 -12.9 -4.65 M-13.3 -6.25 L-13.05 -4.6 -12.95 -4.2 -14.5 -3.7 -14.65 -5.9 -13.3 -6.25" fill="#885b2b" fill-rule="evenodd" stroke="none"/>
    <path d="M-14.45 -7.3 Q-14.05 -9.1 -12.65 -9.65 L-12.2 -9.8 -3.4 -12.6 Q1.15 -9.95 1.85 -5.1 1.7 -3.5 -0.05 -2.6 L-0.35 -2.5 -0.2 -3.75 -1.05 -2.25 -2.0 -1.95 -1.8 -2.95 -3.15 -1.55 -3.25 -1.5 -4.2 -1.2 Q-1.7 2.85 5.3 3.1 L4.1 4.15 3.1 4.2 3.15 5.05 0.8 4.85 2.0 5.75 -0.9 7.4 -2.1 7.9 Q-5.1 7.55 -9.15 4.7 -13.3 1.8 -13.9 -0.5 L-14.45 -3.25 -12.95 -3.9 Q-12.7 -1.9 -12.15 -0.45 L-12.7 -3.9 -12.9 -4.65 -13.2 -6.25 -13.25 -7.1 -13.3 -6.25 -13.05 -4.6 -12.95 -4.2 -14.5 -3.7 -14.65 -5.9 -14.45 -7.3 M-9.85 -8.4 L-11.05 -9.6 -12.2 -9.8 M-9.0 -7.2 L-8.5 -6.4 Q-7.65 -4.8 -7.1 -2.7 -7.1 -1.3 -8.95 0.05 L-4.2 -1.2 M-9.85 -8.4 L-9.0 -7.25 M-3.5 -10.75 Q-1.0 -8.6 -0.4 -5.9 -0.15 -9.25 -3.5 -10.75 M7.0 2.0 L9.1 2.8 10.65 2.5 11.2 2.8 Q9.85 3.4 8.55 4.05 L10.25 5.0 12.5 4.1 12.45 4.95 Q16.75 3.35 18.95 1.35 20.15 0.25 21.4 -2.25 L19.35 -2.95 18.25 -2.15 18.25 -3.35 15.55 -4.3 14.4 -2.2 13.65 -3.5 14.35 -4.7 13.6 -5.0 Q11.9 -1.2 4.15 1.4 L3.95 1.45 5.45 2.35 7.0 2.0 6.5 1.8 7.5 1.75 9.3 1.8 M1.45 8.0 L2.9 7.55 3.45 8.7 3.9 8.0 3.55 7.35 3.95 7.2 Q4.75 9.25 8.85 10.75 L8.95 10.8 8.15 11.25 7.3 11.05 6.2 11.4 5.35 11.25 5.1 11.4 6.45 12.1 5.55 12.6 4.4 12.05 4.4 12.5 Q2.1 11.55 1.0 10.5 0.35 9.85 -0.2 8.55 L0.85 8.2 1.45 8.65 1.45 8.0 M7.3 11.05 L7.6 10.95 7.05 10.9 6.1 10.9 M-0.9 7.4 Q-5.8 6.35 -7.85 3.35 M-21.35 7.05 L-19.55 6.65 -18.6 7.1 -18.6 6.45 -16.2 5.9 -15.2 7.05 -14.5 6.35 -15.15 5.7 -14.45 5.55 Q-13.0 7.65 -5.95 9.1 L-7.3 9.55 -8.7 9.4 -10.55 9.8 -11.9 9.65 -12.35 9.8 -10.05 10.5 -11.55 11.05 -13.5 10.55 -13.45 11.0 M-8.7 9.4 L-8.25 9.25 -8.7 9.25 -10.7 9.25" fill="none" stroke="#000000" stroke-linecap="round" stroke-linejoin="round" stroke-opacity="0.3019608" stroke-width="0.05"/>
    <path d="M-13.45 11.0 Q-17.3 10.1 -19.2 9.05 -20.25 8.4 -21.35 7.05" fill="none" stroke="#000000" stroke-linecap="round" stroke-linejoin="round" stroke-opacity="0.3019608" stroke-width="0.05"/>
  </g>
</svg>
