<?xml version="1.0" encoding="UTF-8" standalone="no"?>
<svg xmlns:xlink="http://www.w3.org/1999/xlink" height="98.4px" width="194.6px" xmlns="http://www.w3.org/2000/svg">
  <g transform="matrix(1.0, 0.0, 0.0, 1.0, -72.7, -124.4)">
    <path d="M184.05 147.75 Q184.55 147.0 185.4 146.55 L186.1 146.0 187.05 145.0 188.7 143.4 Q190.95 141.2 194.55 138.9 L195.7 138.0 Q197.5 136.25 199.8 136.15 L202.6 136.25 205.4 136.75 Q209.5 137.65 213.4 139.3 L215.85 140.4 221.35 142.95 223.75 143.45 Q227.65 143.45 230.3 146.4 L230.55 146.8 Q230.35 147.55 229.75 148.2 L228.2 149.3 Q227.8 149.55 227.55 149.85 L225.75 151.3 Q225.0 151.7 224.3 152.25 222.15 154.0 220.15 156.45 L219.7 157.35 Q219.6 158.3 219.05 159.05 216.85 168.0 217.15 175.7 L217.25 176.9 Q217.55 180.0 217.2 182.85 L217.0 184.0 Q214.8 181.9 209.75 182.0 L209.35 181.3 210.2 179.3 209.35 179.4 209.45 174.9 Q209.5 171.35 208.8 168.15 L208.25 166.5 Q206.8 164.25 203.85 162.25 L203.75 162.2 203.65 162.15 Q196.35 158.4 189.35 154.1 187.7 153.05 186.65 150.85 L186.1 149.8 Q185.2 148.15 184.05 147.75 M98.2 137.3 L98.0 137.1 98.0 136.0 98.25 135.75 Q100.75 133.85 103.75 132.05 L111.25 127.15 Q113.45 125.65 115.7 125.0 L117.4 124.65 118.3 124.4 121.8 124.8 122.5 125.0 123.4 125.2 124.55 125.45 127.75 126.0 Q134.1 126.4 140.15 128.25 L143.0 129.15 151.0 131.3 149.3 133.25 148.45 134.4 144.9 138.0 143.95 139.0 142.8 140.3 Q141.35 141.7 139.7 142.85 L136.45 145.55 135.35 146.35 Q134.2 146.95 132.95 146.85 L117.75 145.3 107.35 143.4 106.75 143.1 105.7 142.25 104.2 141.25 102.5 140.25 Q100.0 138.95 98.2 137.3 M151.1 191.05 L152.6 191.05 154.05 190.85 153.7 191.45 153.7 191.5 153.9 191.55 154.25 191.2 156.35 190.85 157.35 190.75 157.65 190.3 158.65 190.15 158.45 190.25 151.9 193.85 151.7 193.85 146.8 193.85 151.1 191.05" fill="#fffdea" fill-rule="evenodd" stroke="none"/>
    <path d="M184.05 147.75 Q185.2 148.15 186.1 149.8 L186.65 150.85 Q187.7 153.05 189.35 154.1 196.35 158.4 203.65 162.15 L203.75 162.2 203.85 162.25 Q206.8 164.25 208.25 166.5 L208.8 168.15 Q209.5 171.35 209.45 174.9 L209.35 179.4 Q201.9 179.9 196.95 183.3 194.5 181.05 193.1 178.65 L192.6 178.5 192.5 178.25 191.3 174.0 190.75 171.7 190.2 170.1 188.75 169.4 188.5 169.1 188.2 168.1 185.45 166.25 Q184.45 165.55 183.35 165.05 L182.6 164.65 182.75 163.35 182.8 162.9 183.0 154.5 183.2 151.75 183.35 150.9 183.75 148.2 184.05 147.75 M100.3 156.65 L99.4 155.3 Q98.8 154.4 98.8 153.3 L98.7 152.1 98.0 137.3 98.2 137.3 Q100.0 138.95 102.5 140.25 L104.2 141.25 105.7 142.25 106.75 143.1 107.35 143.4 117.75 145.3 132.95 146.85 Q134.2 146.95 135.35 146.35 L137.7 154.4 137.35 154.1 134.55 153.7 134.35 155.15 132.55 155.3 Q130.0 159.6 130.05 162.65 125.25 164.15 120.15 164.1 L115.35 160.1 114.6 160.15 Q113.3 160.45 113.8 161.7 112.25 159.9 109.4 157.7 L107.4 160.9 104.6 160.9 100.3 156.65 M153.3 154.05 L153.7 155.45 151.35 158.3 151.95 157.4 Q152.95 155.8 153.3 154.05 M158.45 190.25 L159.2 192.7 152.35 196.6 151.95 196.45 151.6 194.3 151.7 193.95 151.7 193.85 151.9 193.85 158.45 190.25" fill="#d9cebf" fill-rule="evenodd" stroke="none"/>
    <path d="M209.75 182.0 Q214.8 181.9 217.0 184.0 L217.75 184.95 Q211.1 187.85 202.95 187.9 L203.35 188.1 204.55 190.9 198.15 192.5 Q198.1 194.9 200.95 194.5 L202.55 194.5 Q201.0 195.65 198.85 196.25 198.05 196.45 198.15 197.3 205.55 196.45 210.55 202.1 L210.95 206.9 208.95 210.9 Q196.4 221.0 180.95 215.7 L181.35 213.3 Q186.2 213.55 190.8 212.35 192.75 211.8 194.15 210.5 L172.55 208.9 171.35 207.3 171.35 204.1 Q178.3 196.15 189.75 197.3 L190.15 196.9 190.15 194.9 Q187.95 193.35 185.4 193.25 L184.55 192.5 184.55 190.9 184.85 190.75 Q181.25 190.4 177.75 188.15 L177.35 188.15 Q173.1 188.75 169.75 186.9 L168.55 184.7 168.1 183.8 Q162.95 185.7 147.75 185.3 L144.55 185.75 141.8 185.7 141.8 185.45 142.15 185.3 Q143.0 184.75 143.25 183.95 L143.3 183.7 Q143.5 181.65 144.3 179.85 L144.45 179.6 144.9 178.1 145.05 177.5 145.55 175.5 145.6 175.1 Q145.6 173.3 147.55 168.4 L149.55 162.8 Q151.65 159.85 154.3 157.25 L155.15 159.25 155.65 160.15 156.05 160.85 156.1 160.85 157.35 160.45 157.35 164.9 158.2 165.75 Q156.75 169.2 154.55 172.1 L154.15 172.5 167.35 172.5 Q168.5 171.15 172.35 171.05 167.7 165.75 179.7 166.1 L180.55 166.15 182.6 166.1 182.6 165.7 182.6 164.95 182.6 164.7 183.35 165.05 Q184.45 165.55 185.45 166.25 L185.05 166.0 183.9 166.1 185.4 170.9 187.4 172.5 188.2 174.9 187.4 178.1 190.2 181.7 195.4 184.9 199.8 185.3 Q204.2 182.2 210.2 182.9 L209.75 182.0 M127.4 216.45 L118.45 217.1 Q94.65 223.2 84.6 216.55 78.35 212.4 76.35 209.8 77.05 208.4 78.15 206.95 L94.95 206.5 94.2 203.7 Q90.95 200.65 86.55 200.55 L85.75 198.9 Q86.35 198.0 87.7 197.6 L90.55 196.95 90.95 194.95 91.05 194.75 Q101.95 191.35 113.8 191.3 L112.15 190.55 112.55 190.55 Q123.75 188.0 134.2 191.7 L131.4 192.0 Q117.4 192.05 106.15 197.75 L105.0 198.2 Q103.35 198.9 104.2 199.75 113.75 200.35 123.35 202.15 117.65 205.6 110.15 206.5 L110.15 209.35 110.55 209.75 Q121.7 209.15 127.4 216.45 M107.1 187.1 L108.85 186.35 Q105.7 186.75 102.8 185.5 L101.5 184.8 99.75 184.3 99.75 183.3 Q100.05 182.4 100.95 182.0 102.3 181.2 103.15 179.9 L103.15 177.7 Q98.95 174.45 92.95 175.3 L91.8 174.65 90.55 173.9 90.5 173.75 91.7 173.25 Q95.6 171.85 99.75 171.3 L102.55 171.0 105.9 170.6 105.9 170.55 105.95 170.6 108.2 170.15 Q108.4 169.8 108.9 169.75 110.2 169.45 110.55 168.5 L112.55 168.9 113.8 168.5 122.2 169.3 129.0 174.1 130.15 172.5 133.4 175.3 134.95 180.5 137.75 183.7 Q138.25 182.55 139.05 181.45 139.4 180.95 140.2 180.9 L140.15 178.45 140.15 178.15 140.1 177.75 139.95 177.3 139.75 176.65 139.85 176.85 141.0 180.0 Q141.65 182.5 141.75 185.45 L141.75 185.9 140.75 187.1 138.15 187.6 122.95 188.9 120.85 188.95 107.1 187.1 M188.75 169.4 L188.6 169.3 188.5 169.1 188.75 169.4 M191.4 190.0 L192.15 190.1 192.15 189.35 191.0 189.85 191.4 190.0 M152.35 196.6 L153.2 196.9 152.8 198.1 151.15 198.9 Q149.2 198.8 148.4 199.9 L148.45 200.1 148.6 200.3 Q149.25 200.4 149.15 201.1 L148.4 201.7 148.0 202.3 147.2 202.55 Q143.7 204.6 139.6 203.9 L141.0 203.1 Q140.35 202.4 139.4 202.7 L134.6 202.5 134.65 202.15 136.6 200.9 Q135.8 200.3 134.6 200.3 132.75 200.4 131.8 199.5 L131.85 199.35 132.55 198.3 134.8 197.7 Q137.45 197.8 139.0 196.1 L139.15 195.75 Q144.35 191.85 151.1 191.05 L146.8 193.85 146.65 193.85 144.55 197.25 152.0 196.8 151.95 196.45 152.35 196.6" fill="#e02c00" fill-rule="evenodd" stroke="none"/>
    <path d="M209.35 179.4 L210.2 179.3 209.35 181.3 209.75 182.0 210.2 182.9 Q204.2 182.2 199.8 185.3 L195.4 184.9 190.2 181.7 187.4 178.1 188.2 174.9 187.4 172.5 185.4 170.9 183.9 166.1 185.05 166.0 185.45 166.25 188.2 168.1 188.5 169.1 188.6 169.3 188.75 169.4 190.2 170.1 190.75 171.7 191.3 174.0 192.5 178.25 192.6 178.5 193.1 178.65 Q194.5 181.05 196.95 183.3 201.9 179.9 209.35 179.4 M105.9 170.55 L105.9 170.1 Q106.2 166.6 104.5 163.75 L104.4 163.5 103.9 162.4 102.6 159.65 101.65 158.45 100.5 156.9 100.3 156.65 104.6 160.9 107.4 160.9 109.4 157.7 Q112.25 159.9 113.8 161.7 113.3 160.45 114.6 160.15 L115.35 160.1 120.15 164.1 Q125.25 164.15 130.05 162.65 130.0 159.6 132.55 155.3 L134.35 155.15 134.55 153.7 137.35 154.1 137.7 154.4 138.25 156.35 138.5 156.95 138.6 157.3 140.15 158.1 140.55 159.3 Q142.25 160.5 143.8 160.9 L144.2 160.9 Q148.55 160.75 151.35 158.3 L153.7 155.45 153.95 156.25 153.8 156.9 152.55 157.3 151.8 158.9 150.0 160.85 149.85 161.05 149.0 162.1 147.2 163.95 147.0 164.1 146.6 164.2 145.6 164.6 145.35 165.3 144.2 166.1 Q143.35 168.1 141.4 170.1 L141.1 179.65 141.0 180.0 139.85 176.85 139.4 174.5 139.4 169.7 138.05 169.45 138.15 169.7 Q138.85 171.1 138.9 172.7 L138.95 173.55 139.75 176.65 139.95 177.3 140.1 177.75 140.15 178.15 140.15 178.45 140.2 180.9 Q139.4 180.95 139.05 181.45 138.25 182.55 137.75 183.7 L134.95 180.5 133.4 175.3 130.15 172.5 129.0 174.1 122.2 169.3 113.8 168.5 112.55 168.9 110.55 168.5 Q110.2 169.45 108.9 169.75 108.4 169.8 108.2 170.15 L105.95 170.6 105.9 170.55 M182.6 164.7 L182.6 164.65 183.35 165.05 182.6 164.7 M132.9 167.65 L132.75 167.7 133.3 167.85 132.9 167.65 M151.95 196.45 L152.0 196.8 144.55 197.25 146.65 193.85 146.8 193.85 151.7 193.85 151.7 193.95 151.6 194.3 151.95 196.45" fill="#544630" fill-rule="evenodd" stroke="none"/>
    <path d="M217.0 184.0 L217.2 182.85 217.75 184.1 Q219.0 184.2 219.85 183.4 220.15 183.1 220.55 182.95 223.05 181.85 225.35 180.55 L226.0 180.0 227.0 178.55 228.3 176.0 Q228.8 174.85 229.75 174.45 L229.75 168.5 229.95 166.95 230.3 164.15 Q232.6 164.1 234.1 164.95 L234.55 165.2 Q238.9 166.6 241.4 169.85 L241.65 170.45 240.4 171.35 Q237.55 171.4 236.0 173.55 246.55 170.8 252.75 177.3 254.45 179.1 252.8 181.3 262.65 182.3 260.95 187.15 273.5 199.15 251.3 198.35 248.1 198.3 245.35 199.7 258.8 203.7 267.3 213.2 267.3 228.45 242.55 219.35 217.8 210.2 209.8 216.55 201.7 222.9 179.6 222.8 171.05 220.4 172.5 218.35 160.4 221.5 148.05 221.7 L147.7 221.4 Q141.25 221.65 138.25 219.3 135.2 216.85 147.0 215.75 L127.4 216.45 Q121.7 209.15 110.55 209.75 L110.15 209.35 110.15 206.5 Q117.65 205.6 123.35 202.15 113.75 200.35 104.2 199.75 103.35 198.9 105.0 198.2 L106.15 197.75 Q117.4 192.05 131.4 192.0 L134.2 191.7 Q123.75 188.0 112.55 190.55 L112.15 190.55 113.8 191.3 Q101.95 191.35 91.05 194.75 L90.95 194.95 90.55 196.95 87.7 197.6 Q86.35 198.0 85.75 198.9 L86.55 200.55 Q90.95 200.65 94.2 203.7 L94.95 206.5 78.15 206.95 Q77.05 208.4 76.35 209.8 75.1 208.2 75.45 207.2 76.3 204.5 85.45 204.2 69.0 200.6 73.75 196.2 L73.9 194.65 Q81.75 191.65 90.15 189.85 98.5 188.0 107.1 187.1 L120.85 188.95 122.95 188.9 138.15 187.6 140.75 187.1 141.75 185.9 141.75 185.45 141.8 185.45 141.8 185.7 144.55 185.75 147.75 185.3 Q162.95 185.7 168.1 183.8 L168.55 184.7 169.75 186.9 Q173.1 188.75 177.35 188.15 L177.75 188.15 Q181.25 190.4 184.85 190.75 L184.55 190.9 184.55 192.5 185.4 193.25 Q187.95 193.35 190.15 194.9 L190.15 196.9 189.75 197.3 Q178.3 196.15 171.35 204.1 L171.35 207.3 172.55 208.9 194.15 210.5 Q192.75 211.8 190.8 212.35 186.2 213.55 181.35 213.3 L180.95 215.7 Q196.4 221.0 208.95 210.9 L210.95 206.9 210.55 202.1 Q205.55 196.45 198.15 197.3 198.05 196.45 198.85 196.25 201.0 195.65 202.55 194.5 L200.95 194.5 Q198.1 194.9 198.15 192.5 L204.55 190.9 203.35 188.1 202.95 187.9 Q211.1 187.85 217.75 184.95 L217.0 184.0 M99.75 184.3 L99.7 184.25 Q97.2 183.55 95.35 182.1 95.35 181.7 95.5 181.6 97.0 180.8 98.55 180.55 99.85 180.25 99.8 178.9 L99.65 178.45 Q96.25 177.4 92.55 177.0 90.0 176.7 88.95 174.9 89.2 174.35 90.25 173.85 L90.5 173.75 90.55 173.9 91.8 174.65 92.95 175.3 Q98.95 174.45 103.15 177.7 L103.15 179.9 Q102.3 181.2 100.95 182.0 100.05 182.4 99.75 183.3 L99.75 184.3 M153.95 156.25 L154.3 157.25 Q151.65 159.85 149.55 162.8 L149.95 161.45 150.0 160.85 151.8 158.9 152.55 157.3 153.8 156.9 153.95 156.25 M158.2 165.75 L159.0 166.5 162.55 166.9 Q162.2 168.8 164.15 168.5 L167.8 168.1 Q169.7 165.65 172.8 164.15 L176.55 164.1 Q176.95 164.1 177.25 164.6 178.0 165.9 179.7 166.1 167.7 165.75 172.35 171.05 168.5 171.15 167.35 172.5 L154.15 172.5 154.55 172.1 Q156.75 169.2 158.2 165.75 M191.4 190.0 L191.0 189.85 192.15 189.35 192.15 190.1 191.4 190.0 M151.1 191.05 Q144.35 191.85 139.15 195.75 L139.0 196.1 Q137.45 197.8 134.8 197.7 L132.55 198.3 131.85 199.35 131.8 199.5 Q132.75 200.4 134.6 200.3 135.8 200.3 136.6 200.9 L134.65 202.15 134.6 202.5 139.4 202.7 Q140.35 202.4 141.0 203.1 L139.6 203.9 Q143.7 204.6 147.2 202.55 L148.0 202.3 148.4 201.7 149.15 201.1 Q149.25 200.4 148.6 200.3 L148.45 200.1 148.4 199.9 Q149.2 198.8 151.15 198.9 L152.8 198.1 153.2 196.9 152.35 196.6 159.2 192.7 158.45 190.25 158.65 190.15 157.65 190.3 157.35 190.75 156.35 190.85 154.25 191.2 153.9 191.55 153.7 191.5 153.7 191.45 154.05 190.85 152.6 191.05 151.1 191.05" fill="#ff3300" fill-rule="evenodd" stroke="none"/>
    <path d="M217.2 182.85 Q217.55 180.0 217.25 176.9 L217.15 175.7 Q216.85 168.0 219.05 159.05 219.6 158.3 219.7 157.35 L220.15 156.45 Q222.15 154.0 224.3 152.25 225.0 151.7 225.75 151.3 L227.55 149.85 Q227.8 149.55 228.2 149.3 L229.75 148.2 Q229.7 155.4 230.25 162.5 L230.3 164.15 229.95 166.95 229.75 168.5 229.75 174.45 Q228.8 174.85 228.3 176.0 L227.0 178.55 226.0 180.0 225.35 180.55 Q223.05 181.85 220.55 182.95 220.15 183.1 219.85 183.4 219.0 184.2 217.75 184.1 L217.2 182.85 M151.0 131.3 Q151.15 135.6 152.05 139.75 152.55 142.2 152.6 144.9 152.65 147.2 153.25 149.35 L153.45 150.5 Q153.65 152.35 153.3 154.05 152.95 155.8 151.95 157.4 L151.35 158.3 Q148.55 160.75 144.2 160.9 L143.8 160.9 Q142.25 160.5 140.55 159.3 L140.15 158.1 138.6 157.3 138.5 156.95 138.25 156.35 137.7 154.4 135.35 146.35 136.45 145.55 139.7 142.85 Q141.35 141.7 142.8 140.3 L143.95 139.0 144.9 138.0 148.45 134.4 149.3 133.25 151.0 131.3 M139.75 176.65 L138.95 173.55 138.9 172.7 Q138.85 171.1 138.15 169.7 L138.05 169.45 139.4 169.7 139.4 174.5 139.85 176.85 139.75 176.65 M141.0 180.0 L141.1 179.65 141.4 170.1 Q143.35 168.1 144.2 166.1 L145.35 165.3 145.6 164.6 146.6 164.2 147.0 164.1 147.2 163.95 149.0 162.1 149.85 161.05 150.0 160.85 149.95 161.45 149.55 162.8 147.55 168.4 Q145.6 173.3 145.6 175.1 L145.55 175.5 145.05 177.5 144.9 178.1 144.45 179.6 144.3 179.85 Q143.5 181.65 143.3 183.7 L143.25 183.95 Q143.0 184.75 142.15 185.3 L141.8 185.45 141.75 185.45 Q141.65 182.5 141.0 180.0 M132.9 167.65 L133.3 167.85 132.75 167.7 132.9 167.65" fill="#bca887" fill-rule="evenodd" stroke="none"/>
    <path d="M202.6 136.25 L199.8 136.15 Q197.5 136.25 195.7 138.0 L194.55 138.9 Q190.95 141.2 188.7 143.4 L187.05 145.0 186.1 146.0 185.4 146.55 Q184.55 147.0 184.05 147.75 L183.75 148.2 183.35 150.9 183.2 151.75 183.0 154.5 182.8 162.9 182.75 163.35 182.6 164.65 182.6 164.7 182.6 164.95 182.6 165.7 182.6 166.1 180.55 166.15 179.7 166.1 Q178.0 165.9 177.25 164.6 176.95 164.1 176.55 164.1 L172.8 164.15 Q169.7 165.65 167.8 168.1 L164.15 168.5 Q162.2 168.8 162.55 166.9 L159.0 166.5 157.35 164.9 157.35 160.45 156.1 160.85 156.05 160.85 155.65 160.15 155.15 159.25 154.3 157.25 153.95 156.25 153.7 155.45 153.3 154.05 Q153.65 152.35 153.45 150.5 L153.25 149.35 Q152.65 147.2 152.6 144.9 152.55 142.2 152.05 139.75 151.15 135.6 151.0 131.3 L143.0 129.15 140.15 128.25 Q134.1 126.4 127.75 126.0 L124.55 125.45 123.4 125.2 122.5 125.0 121.8 124.8 118.3 124.4 117.4 124.65 115.7 125.0 Q113.45 125.65 111.25 127.15 L103.75 132.05 Q100.75 133.85 98.25 135.75 L98.0 136.0 98.0 137.1 98.2 137.3 98.0 137.3 98.7 152.1 98.8 153.3 Q98.8 154.4 99.4 155.3 L100.3 156.65 100.5 156.9 101.65 158.45 102.6 159.65 103.9 162.4 104.4 163.5 104.5 163.75 Q106.2 166.6 105.9 170.1 L105.9 170.55 105.9 170.6 102.55 171.0 99.75 171.3 Q95.6 171.85 91.7 173.25 L90.5 173.75 90.25 173.85 Q89.2 174.35 88.95 174.9 90.0 176.7 92.55 177.0 96.25 177.4 99.65 178.45 L99.8 178.9 Q99.85 180.25 98.55 180.55 97.0 180.8 95.5 181.6 95.35 181.7 95.35 182.1 97.2 183.55 99.7 184.25 L99.75 184.3 101.5 184.8 102.8 185.5 Q105.7 186.75 108.85 186.35 L107.1 187.1 Q98.5 188.0 90.15 189.85 81.75 191.65 73.9 194.65 L73.75 196.2 Q69.0 200.6 85.45 204.2 76.3 204.5 75.45 207.2 75.1 208.2 76.35 209.8 78.35 212.4 84.6 216.55 94.65 223.2 118.45 217.1 L127.4 216.45 147.0 215.75 Q135.2 216.85 138.25 219.3 141.25 221.65 147.7 221.4 L148.05 221.7 Q160.4 221.5 172.5 218.35 171.05 220.4 179.6 222.8 201.7 222.9 209.8 216.55 217.8 210.2 242.55 219.35 267.3 228.45 267.3 213.2 258.8 203.7 245.35 199.7 248.1 198.3 251.3 198.35 273.5 199.15 260.95 187.15 262.65 182.3 252.8 181.3 254.45 179.1 252.75 177.3 246.55 170.8 236.0 173.55 237.55 171.4 240.4 171.35 L241.65 170.45 241.4 169.85 Q238.9 166.6 234.55 165.2 L234.1 164.95 Q232.6 164.1 230.3 164.15 L230.25 162.5 Q229.7 155.4 229.75 148.2 230.35 147.55 230.55 146.8 L230.3 146.4 Q227.65 143.45 223.75 143.45 L221.35 142.95 215.85 140.4 213.4 139.3 Q209.5 137.65 205.4 136.75 L202.6 136.25 Z" fill="none" stroke="#000000" stroke-linecap="round" stroke-linejoin="round" stroke-width="0.05"/>
    <path d="M140.25 180.05 Q139.6 179.5 139.4 178.85 L139.65 178.45 Q142.3 175.9 146.2 175.9 L148.65 175.45 154.15 173.2 155.3 172.75 156.6 172.25 Q160.5 170.8 164.6 170.0 L167.45 169.55 170.25 169.5 Q172.55 169.55 174.35 171.1 L175.5 171.9 Q179.1 173.9 181.35 175.85 L183.05 177.25 184.0 178.1 184.7 178.6 186.05 179.7 Q184.85 180.05 184.0 181.45 L183.45 182.4 Q182.35 184.3 180.7 185.25 173.65 189.0 166.4 192.3 L166.3 192.35 166.15 192.4 Q163.2 194.15 161.8 196.1 161.45 196.6 161.2 197.55 160.5 200.35 160.6 203.5 L160.65 207.45 159.85 207.4 160.65 209.15 160.3 209.75 Q155.15 209.65 153.0 211.5 L152.8 210.5 Q152.4 208.0 152.75 205.25 L152.85 204.2 Q153.1 197.4 150.95 189.6 150.4 188.9 150.3 188.1 L149.85 187.3 145.7 183.65 144.9 183.15 144.2 182.8 Q143.15 182.3 142.45 181.5 L141.8 181.05 140.25 180.05" fill="#fffdea" fill-rule="evenodd" stroke="none"/>
    <path d="M186.05 179.7 L186.3 180.05 186.7 182.4 186.85 183.15 187.1 185.6 187.3 192.95 187.3 193.35 187.45 194.5 186.75 194.85 Q185.6 195.3 184.6 195.9 L181.9 197.5 181.55 198.4 181.3 198.65 179.85 199.3 Q179.5 199.95 179.3 200.7 L178.75 202.7 177.55 206.45 177.45 206.65 Q177.05 206.65 176.95 206.8 175.55 208.9 173.1 210.9 168.15 207.9 160.65 207.45 L160.6 203.5 Q160.5 200.35 161.2 197.55 161.45 196.6 161.8 196.1 163.2 194.15 166.15 192.4 L166.3 192.35 166.4 192.3 Q173.65 189.0 180.7 185.25 182.35 184.3 183.45 182.4 L184.0 181.45 Q184.85 180.05 186.05 179.7" fill="#d9cebf" fill-rule="evenodd" stroke="none"/>
    <path d="M184.6 195.9 L185.05 195.7 186.15 195.8 184.7 200.0 182.7 201.4 181.9 203.5 182.7 206.3 179.85 209.5 174.65 212.25 170.25 212.6 Q165.8 209.95 159.85 210.55 L160.3 209.75 160.65 209.15 159.85 207.4 160.65 207.45 Q168.15 207.9 173.1 210.9 175.55 208.9 176.95 206.8 177.05 206.65 177.45 206.65 L177.55 206.45 178.75 202.7 179.3 200.7 Q179.5 199.95 179.85 199.3 L181.3 198.65 181.5 198.6 181.55 198.4 181.9 197.5 184.6 195.9" fill="#544630" fill-rule="evenodd" stroke="none"/>
    <path d="M152.8 210.5 L152.25 211.6 Q150.95 211.65 150.15 210.95 L149.45 210.55 Q146.9 209.6 144.6 208.45 144.2 208.25 143.95 207.95 L142.95 206.7 141.65 204.45 Q141.15 203.45 140.25 203.1 L140.25 197.9 140.05 196.55 Q139.7 195.35 139.65 194.05 L139.65 193.75 139.7 192.6 Q140.25 186.35 140.25 180.05 L141.8 181.05 142.45 181.5 Q143.15 182.3 144.2 182.8 L144.9 183.15 145.7 183.65 149.85 187.3 150.3 188.1 Q150.4 188.9 150.95 189.6 153.1 197.4 152.85 204.2 L152.75 205.25 Q152.4 208.0 152.8 210.5" fill="#bca887" fill-rule="evenodd" stroke="none"/>
  </g>
</svg>
