<?xml version="1.0" encoding="UTF-8" standalone="no"?>
<svg xmlns:xlink="http://www.w3.org/1999/xlink" height="26.55px" width="46.1px" xmlns="http://www.w3.org/2000/svg">
  <g transform="matrix(1.0, 0.0, 0.0, 1.0, -251.9, -186.7)">
    <path d="M254.5 200.8 L254.45 200.8 254.95 200.1 256.9 198.4 Q258.9 197.05 262.4 195.65 L263.15 195.35 262.4 195.65 Q258.9 197.05 256.9 198.4 255.6 199.25 254.95 200.15 L254.5 200.8" fill="#58382b" fill-rule="evenodd" stroke="none"/>
    <path d="M263.15 195.35 Q265.95 194.35 268.8 193.85 L278.45 193.3 Q287.85 193.65 291.75 195.8 295.65 197.9 295.5 199.1 293.25 201.05 287.75 203.0 282.3 204.9 273.65 203.65 L271.85 203.35 265.1 202.3 261.3 201.8 258.65 201.65 257.9 201.6 254.95 201.05 254.5 200.8 254.95 200.15 Q255.6 199.25 256.9 198.4 258.9 197.05 262.4 195.65 L263.15 195.35 M252.4 197.7 L252.4 197.55 252.4 197.4 252.45 196.95 252.45 196.8 252.55 196.2 Q253.6 192.45 260.85 189.8 268.15 187.15 277.4 187.2 286.65 187.15 292.5 189.8 297.05 191.85 297.45 194.55 L297.45 202.05 297.45 203.25 297.35 203.75 Q296.35 207.45 289.05 210.1 282.0 212.65 273.1 212.75 L272.55 212.75 264.55 212.15 Q260.5 211.5 257.4 210.1 L257.05 209.95 Q252.65 207.85 252.45 205.15 L252.45 204.5 252.45 198.2 252.4 197.7 Z" fill="none" stroke="#000000" stroke-linecap="round" stroke-linejoin="round" stroke-width="1.0"/>
    <path d="M252.45 198.15 L252.4 197.7 Q252.6 199.2 254.1 200.55 L254.45 200.8 254.5 200.8 Q255.6 201.5 257.9 201.6 L257.05 202.1 257.1 202.15 257.0 202.15 Q255.0 201.9 254.1 201.15 252.55 199.75 252.45 198.15 M252.4 197.4 L252.45 196.95 252.45 196.75 252.55 196.2 Q253.6 192.45 260.85 189.8 268.15 187.15 277.4 187.2 286.65 187.15 292.5 189.8 297.05 191.85 297.45 194.55 L297.45 195.15 Q297.05 192.45 292.5 190.4 289.05 188.85 284.4 188.2 L284.2 188.2 277.65 187.8 277.55 187.8 277.4 187.8 Q270.25 187.6 261.3 190.25 L260.85 190.4 Q253.55 193.05 252.55 196.8 L252.4 197.4 M297.45 195.7 L297.45 196.3 297.35 196.8 Q297.0 198.15 295.8 199.35 293.9 201.25 288.8 203.2 L287.75 203.6 Q282.15 205.55 273.15 204.15 L273.65 203.65 Q282.3 204.9 287.75 203.0 293.25 201.0 295.5 199.05 L295.8 198.75 Q297.0 197.55 297.35 196.2 L297.45 195.7 M257.05 202.1 L257.0 202.15 257.05 202.1" fill="#c4a773" fill-rule="evenodd" stroke="none"/>
    <path d="M252.4 197.7 L252.4 197.55 252.4 197.4 252.55 196.8 Q253.55 193.05 260.85 190.4 L261.3 190.25 Q270.25 187.6 277.4 187.8 L277.55 187.8 277.65 187.8 284.2 188.2 284.4 188.2 Q279.4 188.85 275.1 190.4 270.9 191.9 268.8 193.85 265.95 194.35 263.15 195.35 L262.4 195.6 Q255.75 198.3 254.45 200.8 L254.1 200.55 Q252.6 199.2 252.4 197.7" fill="#472c23" fill-rule="evenodd" stroke="none"/>
    <path d="M297.45 195.7 L297.35 196.2 Q297.0 197.55 295.8 198.75 L295.5 199.05 Q295.65 197.9 291.75 195.8 287.85 193.65 278.45 193.3 L268.8 193.85 Q270.9 191.9 275.1 190.4 279.4 188.85 284.4 188.2 289.05 188.85 292.5 190.4 297.05 192.45 297.45 195.15 L297.45 195.7 M254.5 200.8 L254.45 200.8 Q255.75 198.3 262.4 195.6 L263.15 195.35 262.4 195.6 Q255.8 198.3 254.5 200.8" fill="#58382b" fill-rule="evenodd" stroke="none"/>
    <path d="M272.95 204.15 Q273.45 204.95 273.35 205.65 272.8 204.7 272.35 205.15 L271.4 205.2 Q268.8 203.7 269.2 204.55 269.85 205.75 266.75 204.9 L266.7 204.9 266.65 204.9 266.3 204.75 Q265.1 203.95 267.05 203.8 268.25 204.15 268.6 204.85 269.2 203.8 268.6 203.55 L267.2 203.65 267.1 203.65 Q263.85 203.4 265.25 204.45 L264.85 204.4 264.55 204.35 263.9 204.3 Q265.05 203.75 262.5 203.1 L262.45 203.05 Q262.7 202.75 261.3 202.6 260.7 202.65 260.9 203.7 261.4 203.2 262.5 203.25 263.95 203.9 262.95 204.25 L260.9 204.55 Q259.75 204.05 260.5 203.55 261.15 203.05 258.5 203.2 257.8 203.2 257.85 202.8 257.6 202.0 255.85 203.6 L255.75 203.7 255.9 203.65 257.45 203.55 Q257.75 203.95 258.15 203.7 L259.85 203.55 Q260.25 203.55 259.75 204.1 259.15 204.75 259.8 205.1 L259.25 205.7 259.15 205.95 Q258.05 205.2 259.1 204.5 257.15 205.25 258.1 205.85 L256.95 205.3 256.05 204.65 256.0 204.6 Q254.25 203.55 253.9 204.95 253.6 206.45 256.15 206.0 256.7 205.65 255.65 205.25 L255.55 205.2 254.55 204.85 Q256.15 205.7 255.4 205.75 254.2 205.75 254.3 204.95 254.55 204.45 255.1 204.5 L257.55 206.0 258.65 206.9 Q256.6 206.25 256.8 206.9 L257.1 207.7 254.15 206.75 Q252.4 203.65 257.0 202.2 L257.1 202.15 258.65 202.25 264.55 202.8 264.55 204.35 264.55 202.8 271.85 203.95 272.95 204.15 M273.15 206.2 L272.25 207.2 271.6 206.6 271.9 207.45 270.95 208.1 270.9 208.1 270.8 208.05 269.8 207.25 269.45 206.7 269.15 206.35 Q269.9 206.35 269.65 205.4 269.45 204.65 269.85 204.85 271.55 205.4 271.55 205.85 271.75 206.3 272.3 206.05 272.6 205.8 273.15 206.2 M260.05 208.8 L260.1 208.7 260.05 208.8 M259.1 207.25 L259.8 208.3 259.6 208.25 259.4 208.2 259.45 208.05 259.35 208.2 258.05 208.15 257.8 207.85 257.45 207.45 Q256.75 206.6 258.9 207.1 L259.1 207.25" fill="#666666" fill-rule="evenodd" stroke="none"/>
    <path d="M259.8 205.1 Q259.15 204.75 259.75 204.1 260.25 203.55 259.85 203.55 L258.15 203.7 Q257.75 203.95 257.45 203.55 L255.9 203.65 255.75 203.7 255.85 203.6 Q257.6 202.0 257.85 202.8 257.8 203.2 258.5 203.2 261.15 203.05 260.5 203.55 259.75 204.05 260.9 204.55 L260.85 204.55 Q260.2 204.8 259.8 205.1 M262.95 204.25 Q263.95 203.9 262.5 203.25 261.4 203.2 260.9 203.7 260.7 202.65 261.3 202.6 262.7 202.75 262.45 203.05 L262.5 203.1 Q265.05 203.75 263.9 204.3 L263.7 204.25 262.95 204.25 M257.1 207.7 L256.8 206.9 Q256.6 206.25 258.65 206.9 L257.55 206.0 255.1 204.5 Q254.55 204.45 254.3 204.95 254.2 205.75 255.4 205.75 256.15 205.7 254.55 204.85 L255.55 205.2 255.65 205.25 Q256.7 205.65 256.15 206.0 253.6 206.45 253.9 204.95 254.25 203.55 256.0 204.6 L256.05 204.65 256.95 205.3 258.1 205.85 Q257.15 205.25 259.1 204.5 258.05 205.2 259.15 205.95 L259.25 205.7 Q259.7 205.0 260.85 204.7 L261.15 204.6 264.2 204.65 264.25 204.65 264.55 204.7 264.75 204.75 Q266.35 205.1 267.55 205.8 L267.5 205.75 267.45 206.1 267.45 206.15 267.45 206.25 Q266.3 205.55 264.75 205.25 L264.55 205.2 264.25 205.15 264.25 204.65 264.25 205.15 262.25 205.0 261.25 205.15 260.8 205.3 Q260.2 205.45 259.9 205.8 L259.8 205.95 259.55 206.55 259.65 207.15 259.0 206.85 259.1 207.25 258.9 207.1 Q256.75 206.6 257.45 207.45 L257.8 207.85 257.1 207.7 M265.25 204.45 Q263.85 203.4 267.1 203.65 L267.2 203.65 268.6 203.55 Q269.2 203.8 268.6 204.85 268.25 204.15 267.05 203.8 265.1 203.95 266.3 204.75 L265.25 204.45 M266.75 204.9 Q269.85 205.75 269.2 204.55 268.8 203.7 271.4 205.2 L272.35 205.15 Q272.8 204.7 273.35 205.65 L273.15 206.2 Q272.6 205.8 272.3 206.05 271.75 206.3 271.55 205.85 271.55 205.4 269.85 204.85 269.45 204.65 269.65 205.4 269.9 206.35 269.15 206.35 L268.65 205.9 268.25 205.65 266.75 204.9 M269.8 207.25 L270.8 208.05 270.0 208.4 270.0 208.3 269.8 207.25 M271.9 207.45 L271.6 206.6 272.25 207.2 271.9 207.45 M267.75 205.9 L267.55 205.8 267.75 205.9 M259.15 205.95 L259.0 206.45 259.0 206.85 259.0 206.45 259.15 205.95 M259.35 208.2 L259.45 208.05 259.4 208.2 259.35 208.2" fill="#cccccc" fill-rule="evenodd" stroke="none"/>
    <path d="M260.9 204.55 L262.95 204.25 263.7 204.25 263.9 204.3 264.55 204.35 264.55 204.4 264.2 204.65 264.55 204.4 264.55 204.35 264.85 204.4 265.25 204.45 266.3 204.75 266.65 204.9 266.7 204.9 266.75 204.9 268.25 205.65 Q268.45 206.05 267.55 205.8 266.35 205.1 264.75 204.75 L264.55 204.7 264.25 204.65 264.2 204.65 261.15 204.6 260.85 204.7 Q259.7 205.0 259.25 205.7 L259.8 205.1 Q260.2 204.8 260.85 204.55 L260.9 204.55" fill="#dfdfdf" fill-rule="evenodd" stroke="none"/>
    <path d="M267.45 206.25 L267.45 206.15 267.45 206.1 267.5 205.75 267.55 205.8 267.75 205.9 268.4 206.35 268.45 206.45 Q269.8 207.55 269.6 208.55 L268.95 208.75 269.05 208.5 Q269.25 207.65 268.05 206.65 L267.65 206.4 267.45 206.25 M259.65 207.15 L259.95 207.75 260.65 208.45 259.8 208.3 259.1 207.25 259.0 206.85 259.65 207.15" fill="#bababa" fill-rule="evenodd" stroke="none"/>
    <path d="M267.45 206.25 L267.65 206.4 268.05 206.65 Q269.25 207.65 269.05 208.5 L268.95 208.75 268.1 209.0 267.55 209.0 264.2 208.85 264.2 208.05 264.2 208.85 260.65 208.45 259.95 207.75 259.65 207.15 260.0 207.35 261.6 207.8 262.05 207.9 262.45 207.95 262.85 208.0 264.2 208.05 264.6 208.0 266.05 207.7 266.25 207.65 Q267.15 207.15 267.45 206.25" fill="#8c8c8c" fill-rule="evenodd" stroke="none"/>
    <path d="M269.15 206.35 L269.45 206.7 269.8 207.25 270.0 208.3 270.0 208.4 269.6 208.55 Q269.8 207.55 268.45 206.45 L268.4 206.35 267.75 205.9 267.55 205.8 Q268.45 206.05 268.25 205.65 L268.65 205.9 269.15 206.35" fill="#979797" fill-rule="evenodd" stroke="none"/>
    <path d="M273.65 203.65 L273.15 204.15 273.1 204.15 272.95 204.15 271.85 203.95 264.55 202.8 258.65 202.25 257.1 202.15 257.05 202.1 257.9 201.6 258.65 201.65 265.1 202.25 264.55 202.8 265.1 202.25 271.85 203.35 273.65 203.65 M264.25 205.15 L264.55 205.2 264.75 205.25 Q266.3 205.55 267.45 206.25 267.15 207.15 266.25 207.65 L266.05 207.7 264.6 208.0 264.2 208.05 262.85 208.0 262.45 207.95 262.05 207.9 261.6 207.8 260.0 207.35 259.65 207.15 259.55 206.55 259.8 205.95 259.9 205.8 Q260.2 205.45 260.8 205.3 L261.25 205.15 262.25 205.0 264.25 205.15 264.2 208.05 264.25 205.15" fill="#999999" fill-rule="evenodd" stroke="none"/>
    <path d="M264.2 208.85 L267.55 209.0 268.1 209.0 268.95 208.75 Q268.65 209.4 267.95 209.7 L267.75 209.75 264.5 209.95 264.2 209.85 264.2 209.25 264.2 208.85 264.2 209.25 264.2 209.85 Q262.15 209.5 260.8 208.5 L260.65 208.45 264.2 208.85" fill="#6c6c6c" fill-rule="evenodd" stroke="none"/>
    <path d="M268.35 210.1 L268.2 210.15 266.75 210.45 265.0 210.45 264.55 210.4 264.2 210.35 264.2 209.85 264.2 210.35 263.75 210.25 262.15 209.75 260.4 208.8 259.95 208.4 259.8 208.3 260.65 208.45 260.8 208.5 Q262.15 209.5 264.2 209.85 L264.5 209.95 267.75 209.75 267.95 209.7 Q268.65 209.4 268.95 208.75 L269.6 208.55 269.6 208.6 Q269.35 209.6 268.35 210.1" fill="#9c9c9c" fill-rule="evenodd" stroke="none"/>
    <path d="M273.35 205.65 L273.95 207.1 273.85 207.0 273.45 206.5 273.15 206.2 273.35 205.65 M272.25 207.2 Q273.15 208.2 272.15 208.45 L273.65 208.3 Q277.4 207.15 277.15 209.2 276.75 210.9 274.2 209.4 273.75 208.8 275.1 208.8 L275.2 208.8 276.45 208.8 Q274.3 209.05 275.15 209.45 276.4 209.9 276.7 209.05 276.6 208.4 276.05 208.25 274.7 208.1 272.7 208.8 L271.1 209.3 Q273.55 209.45 273.1 210.05 L271.25 211.8 Q269.9 212.95 269.7 210.2 269.85 211.65 272.15 210.35 273.25 209.75 270.75 209.35 L269.25 209.6 Q269.9 209.1 270.0 208.4 L270.8 208.05 270.9 208.1 270.95 208.1 271.9 207.45 272.25 207.2 M266.75 210.45 L266.45 210.8 Q266.65 211.15 266.3 211.55 L267.05 211.6 Q268.1 211.8 269.1 210.1 L269.15 210.05 Q269.8 212.4 267.6 212.2 265.4 212.0 266.05 211.35 266.35 210.9 265.0 210.45 L266.75 210.45 M262.15 209.75 L263.75 210.25 Q262.35 210.25 262.5 210.75 262.85 211.5 260.8 211.05 258.75 210.6 260.05 208.8 260.45 210.55 261.5 210.65 261.85 211.0 262.2 210.85 262.0 210.4 262.3 210.15 L262.15 209.75 M259.4 208.2 Q258.3 210.3 257.65 208.95 L257.1 207.7 257.8 207.85 258.05 208.15 259.35 208.2 259.4 208.2" fill="#bfbfbf" fill-rule="evenodd" stroke="none"/>
    <path d="M273.1 212.7 L272.55 212.7 264.55 212.15 Q260.5 211.45 257.4 210.1 L257.05 209.95 Q254.9 208.15 254.15 206.75 L257.1 207.7 257.65 208.95 Q258.3 210.3 259.4 208.2 L259.6 208.25 259.8 208.3 259.95 208.4 260.4 208.8 262.15 209.75 262.3 210.15 Q262.0 210.4 262.2 210.85 261.85 211.0 261.5 210.65 260.45 210.55 260.05 208.8 258.75 210.6 260.8 211.05 262.85 211.5 262.5 210.75 262.35 210.25 263.75 210.25 L264.2 210.35 264.55 210.4 265.0 210.45 Q266.35 210.9 266.05 211.35 265.4 212.0 267.6 212.2 269.8 212.4 269.15 210.05 L269.1 210.1 Q268.1 211.8 267.05 211.6 L266.3 211.55 Q266.65 211.15 266.45 210.8 L266.75 210.45 268.2 210.15 268.35 210.1 269.25 209.6 270.75 209.35 Q273.25 209.75 272.15 210.35 269.85 211.65 269.7 210.2 269.9 212.95 271.25 211.8 L273.1 210.05 Q273.55 209.45 271.1 209.3 L272.7 208.8 Q274.7 208.1 276.05 208.25 276.6 208.4 276.7 209.05 276.4 209.9 275.15 209.45 274.3 209.05 276.45 208.8 L275.2 208.8 275.1 208.8 Q273.75 208.8 274.2 209.4 276.75 210.9 277.15 209.2 277.4 207.15 273.65 208.3 L272.15 208.45 Q273.15 208.2 272.25 207.2 L273.15 206.2 273.45 206.5 273.85 207.0 273.95 207.1 273.35 205.65 Q273.45 204.95 272.95 204.15 L273.1 204.15 273.15 204.2 Q279.2 207.35 278.1 209.75 277.35 211.35 273.3 212.65 L273.2 212.7 273.1 212.7 M264.55 212.15 L264.55 210.4 264.55 212.15 M260.05 208.8 L260.1 208.7 260.05 208.8" fill="#555555" fill-rule="evenodd" stroke="none"/>
    <path d="M269.25 209.6 L268.35 210.1 Q269.35 209.6 269.6 208.6 L269.6 208.55 270.0 208.4 Q269.9 209.1 269.25 209.6" fill="#8f8f8f" fill-rule="evenodd" stroke="none"/>
    <path d="M257.05 209.95 Q252.65 207.85 252.45 205.15 L252.45 204.45 252.45 198.15 Q252.55 199.75 254.1 201.15 255.0 201.9 257.0 202.15 L257.0 202.2 Q252.4 203.65 254.15 206.75 254.9 208.15 257.05 209.95" fill="#895341" fill-rule="evenodd" stroke="none"/>
    <path d="M273.1 204.15 L273.15 204.15 273.15 204.2 273.1 204.15 M257.1 202.15 L257.0 202.2 257.0 202.15 257.1 202.15" fill="#975b48" fill-rule="evenodd" stroke="none"/>
    <path d="M297.45 196.3 L297.45 202.05 297.45 203.25 297.35 203.7 Q296.35 207.45 289.05 210.1 282.0 212.6 273.1 212.7 L273.2 212.7 273.3 212.65 Q277.35 211.35 278.1 209.75 L280.75 208.9 Q287.35 206.5 288.8 203.2 293.9 201.25 295.8 199.35 297.0 198.15 297.35 196.8 L297.45 196.3" fill="#6c4133" fill-rule="evenodd" stroke="none"/>
    <path d="M288.8 203.2 Q287.35 206.5 280.75 208.9 L278.1 209.75 Q279.2 207.35 273.15 204.2 L273.15 204.15 Q282.15 205.55 287.75 203.6 L288.8 203.2" fill="#764738" fill-rule="evenodd" stroke="none"/>
    <path d="M297.45 194.55 L297.5 195.4 297.45 196.3 297.45 202.05 297.45 203.25 297.35 203.7 Q296.35 207.45 289.05 210.1 282.0 212.6 273.1 212.7 L272.55 212.7 264.55 212.15 Q260.5 211.45 257.4 210.1 L257.05 209.95 Q252.65 207.85 252.45 205.15 L252.45 204.45 252.45 198.15 252.4 197.7 252.4 197.55 252.4 197.4 252.45 196.95 252.45 196.75 252.55 196.2 Q253.6 192.45 260.85 189.8 268.15 187.15 277.4 187.2 286.65 187.15 292.5 189.8 297.05 191.85 297.45 194.55 L297.45 195.15 297.5 195.4 297.45 195.7 297.45 196.3 297.35 196.8 M278.1 209.75 Q277.35 211.35 273.3 212.65 L273.2 212.7 273.1 212.7 M297.45 195.7 L297.35 196.2 Q297.0 197.55 295.8 198.75 L295.5 199.05 Q293.25 201.0 287.75 203.0 282.3 204.9 273.65 203.65 L271.85 203.35 265.1 202.25 258.65 201.65 257.9 201.6 Q255.6 201.5 254.5 200.8 255.8 198.3 262.4 195.6 L263.15 195.35 Q265.95 194.35 268.8 193.85 L278.45 193.3 Q287.85 193.65 291.75 195.8 295.65 197.9 295.5 199.05 M297.45 195.7 L297.45 195.15 M269.25 209.6 L268.35 210.1 268.2 210.15 266.75 210.45 265.0 210.45 264.55 210.4 264.55 212.15 M273.15 204.15 L273.1 204.15 273.15 204.2 Q279.2 207.35 278.1 209.75 M254.45 200.8 L254.1 200.55 Q252.6 199.2 252.4 197.7 M254.5 200.8 L254.45 200.8 Q255.75 198.3 262.4 195.6 L263.15 195.35 M260.9 204.55 L262.95 204.25 263.7 204.25 263.9 204.3 264.55 204.35 264.55 202.8 M257.1 202.15 L257.0 202.2 Q252.4 203.65 254.15 206.75 254.9 208.15 257.05 209.95 M259.15 205.95 L259.25 205.7 259.8 205.1 Q260.2 204.8 260.85 204.55 L260.9 204.55 M257.1 202.15 L257.0 202.15 M266.3 204.75 L266.65 204.9 266.7 204.9 266.75 204.9 268.25 205.65 268.65 205.9 269.15 206.35 269.45 206.7 269.8 207.25 270.0 208.3 270.0 208.4 Q269.9 209.1 269.25 209.6 M264.25 204.65 L264.25 205.15 264.2 208.05 264.2 208.85 264.2 209.25 264.2 209.85 264.2 210.35 264.55 210.4 M265.25 204.45 L266.3 204.75 M264.2 204.65 L264.55 204.4 264.55 204.35 264.85 204.4 265.25 204.45 M264.2 204.65 L264.25 204.65 M259.8 208.3 L259.95 208.4 260.4 208.8 262.15 209.75 263.75 210.25 264.2 210.35 M259.0 206.85 L259.1 207.25 259.8 208.3 M259.0 206.85 L259.0 206.45 259.15 205.95" fill="none" stroke="#000000" stroke-linecap="round" stroke-linejoin="round" stroke-width="0.05"/>
    <path d="M273.65 203.65 L273.15 204.15 273.15 204.2 M257.0 202.15 L257.05 202.1 257.9 201.6 M264.55 202.8 L265.1 202.25" fill="none" stroke="#000000" stroke-linecap="round" stroke-linejoin="round" stroke-width="0.05"/>
  </g>
</svg>
