<?xml version="1.0" encoding="UTF-8" standalone="no"?>
<svg xmlns:xlink="http://www.w3.org/1999/xlink" height="68.85px" width="156.35px" xmlns="http://www.w3.org/2000/svg">
  <g transform="matrix(1.0, 0.0, 0.0, 1.0, -9.35, -11.0)">
    <path d="M164.65 32.7 Q164.5 33.2 164.9 35.45 L165.45 36.45 165.55 36.6 165.55 38.2 165.55 38.55 165.45 39.2 165.3 39.75 165.3 39.85 165.3 39.05 165.1 38.7 163.0 39.85 156.55 39.6 149.95 39.05 Q146.6 38.65 143.4 37.45 140.05 36.25 137.85 33.5 L135.2 30.2 Q132.95 27.35 131.0 24.25 L130.2 22.9 129.75 24.95 Q129.1 23.95 128.3 23.45 128.2 22.0 128.45 20.45 L128.5 20.35 128.95 19.05 Q129.65 17.85 130.55 17.2 L130.6 17.2 132.35 17.25 130.6 17.2 130.55 17.2 Q129.65 17.85 128.95 19.05 L128.5 20.35 128.45 20.45 Q128.2 22.0 128.3 23.45 126.45 22.3 123.85 23.5 L122.3 24.05 122.35 23.95 124.55 19.65 125.15 19.05 127.05 17.7 Q128.2 16.95 129.75 17.1 L130.5 17.2 130.6 17.2 Q132.25 15.95 134.65 16.5 L135.4 16.85 141.3 21.0 142.3 21.45 145.35 22.05 149.15 22.55 149.8 23.2 Q150.1 24.05 150.9 24.9 155.85 27.85 161.35 30.25 L161.4 30.25 163.65 31.3 Q164.4 31.65 164.6 32.45 L164.65 32.7 M75.85 52.55 L75.9 52.45 76.4 51.75 76.6 49.7 76.65 49.55 Q76.75 48.95 77.45 48.7 78.35 48.25 79.35 47.9 L79.4 47.9 84.05 46.0 88.35 44.0 89.3 42.75 Q89.45 42.35 89.85 42.3 L93.1 41.9 94.6 41.75 95.7 41.5 96.55 41.15 97.75 40.5 101.6 38.1 Q101.9 37.9 102.25 37.85 104.25 37.45 105.7 38.35 L105.75 38.35 106.45 38.3 Q107.75 38.2 108.7 38.75 L110.35 39.75 110.85 40.15 112.75 43.3 112.8 43.35 111.45 43.0 Q109.2 42.1 107.65 42.95 L107.5 40.75 107.5 40.7 107.1 39.75 105.75 38.4 105.7 38.35 104.15 38.4 105.7 38.35 105.75 38.4 107.1 39.75 107.5 40.7 107.5 40.75 107.65 42.95 Q106.95 43.3 106.4 44.05 L106.05 42.55 105.35 43.55 101.75 47.9 99.5 50.3 Q97.6 52.3 94.75 53.2 92.0 54.05 89.15 54.35 L83.5 54.75 78.0 54.95 76.2 54.1 76.0 54.35 76.05 54.95 76.0 54.85 75.9 54.45 75.85 54.0 75.85 53.75 75.85 52.55 M55.95 18.7 L56.0 18.6 58.2 14.3 58.8 13.7 Q59.7 13.05 60.7 12.35 61.85 11.6 63.4 11.75 L64.15 11.85 64.25 11.85 Q65.9 10.6 68.3 11.15 68.7 11.25 69.05 11.5 L74.95 15.65 75.95 16.1 79.0 16.7 82.8 17.2 83.45 17.85 Q83.75 18.7 84.55 19.55 89.5 22.5 95.0 24.9 L95.05 24.9 97.3 25.95 Q98.05 26.3 98.25 27.1 L98.3 27.35 Q98.15 27.85 98.55 30.1 L99.1 31.1 99.15 31.2 99.15 33.35 99.1 33.85 98.95 34.4 98.95 34.5 98.95 33.7 Q98.95 33.45 98.75 33.35 L96.65 34.5 90.2 34.25 83.6 33.7 Q80.25 33.3 77.05 32.1 73.7 30.9 71.5 28.15 L68.85 24.85 Q66.6 22.0 64.65 18.9 L63.85 17.55 63.4 19.6 Q62.75 18.6 61.95 18.1 61.85 16.65 62.1 15.1 L62.15 15.0 62.6 13.7 Q63.3 12.5 64.2 11.85 L64.25 11.85 66.0 11.9 64.25 11.85 64.2 11.85 Q63.3 12.5 62.6 13.7 L62.15 15.0 62.1 15.1 Q61.85 16.65 61.95 18.1 60.1 16.95 57.5 18.15 L55.95 18.7 M113.8 47.8 L114.75 47.5 115.35 47.2 119.35 44.35 Q119.55 44.15 119.85 44.1 L121.1 44.0 Q121.8 44.1 122.4 44.6 L122.9 44.55 Q123.9 44.4 124.6 44.95 L125.75 45.85 126.1 46.3 127.25 49.25 127.3 49.3 127.2 49.25 126.3 48.9 123.5 48.85 123.6 47.2 123.55 46.85 123.55 46.75 123.3 45.85 122.4 44.6 123.3 45.85 123.55 46.75 123.55 46.85 123.6 47.2 123.5 48.85 Q122.95 49.2 122.45 49.9 L122.35 48.5 121.75 49.45 118.75 53.55 116.9 55.8 Q115.3 57.65 113.15 58.5 L108.95 59.6 104.7 60.0 102.2 60.05 100.6 60.15 99.35 59.35 Q99.2 59.4 99.2 59.6 L99.15 60.15 99.15 60.1 99.1 59.7 99.1 59.25 99.1 59.0 99.2 57.9 99.25 57.8 99.65 57.15 99.95 55.25 100.0 55.05 Q100.15 54.5 100.65 54.3 L102.15 53.55 Q105.2 52.15 108.05 50.5 L109.1 49.85 109.15 49.8 109.1 49.85 109.15 49.8 111.0 48.65 109.15 49.8 109.1 49.85 108.05 50.5 108.45 49.4 109.15 49.8 109.85 48.7 Q110.0 48.3 110.3 48.25 L112.75 47.95 113.8 47.8 M127.75 52.7 L128.8 52.05 129.8 50.35 Q129.95 49.8 130.35 49.7 L133.75 49.2 Q135.05 49.1 136.45 48.6 L137.35 48.15 137.65 47.95 142.6 44.0 Q142.9 43.75 143.3 43.65 145.4 43.1 146.9 44.35 L146.95 44.35 147.85 45.35 148.35 46.2 148.75 47.5 148.8 47.6 148.95 50.6 148.8 47.6 148.75 47.5 148.35 46.2 147.85 45.35 146.95 44.35 146.9 44.35 145.3 44.4 146.9 44.35 146.95 44.35 147.65 44.25 Q149.0 44.1 150.05 44.85 L151.75 46.2 152.3 46.8 154.25 51.1 154.3 51.2 152.9 50.65 Q150.55 49.45 148.95 50.6 L148.9 50.6 148.6 50.9 Q148.05 51.35 147.65 52.1 L147.25 50.05 146.9 50.7 146.5 51.4 142.8 57.35 140.4 60.65 Q138.45 63.4 135.5 64.6 132.65 65.8 129.65 66.2 L123.75 66.75 118.0 67.0 116.15 65.85 115.95 66.2 Q115.9 66.65 116.0 67.0 L115.95 66.9 115.85 66.35 115.8 65.9 115.75 65.7 115.75 65.35 115.75 63.75 115.85 63.6 116.35 62.6 116.55 59.85 116.6 59.6 116.65 59.4 Q116.85 58.75 117.45 58.45 L118.15 58.05 119.45 57.4 119.5 57.4 123.5 55.3 123.85 55.1 123.5 55.3 123.6 54.95 123.85 55.1 127.75 52.7 M162.0 36.2 L162.1 33.8 161.9 33.6 161.15 32.35 161.15 32.95 160.3 34.95 158.45 35.15 Q155.85 35.0 153.4 35.15 L151.7 34.15 151.65 34.2 Q151.45 34.45 151.55 34.95 L151.5 35.3 145.25 34.4 144.85 34.1 143.65 33.05 143.5 34.15 142.4 33.6 142.35 33.5 Q141.5 32.3 140.4 31.6 140.8 34.3 143.1 34.7 L145.15 35.65 Q150.0 36.9 154.85 37.1 158.65 37.45 162.0 36.2 M164.2 41.3 L162.85 42.25 162.75 42.3 163.2 41.5 164.2 41.3 M143.25 24.3 L143.2 24.5 143.2 25.95 138.65 25.4 Q142.3 27.5 146.15 25.75 L146.4 25.3 146.35 24.65 145.85 24.2 143.25 24.3 M127.4 32.25 Q128.3 36.1 130.8 38.75 L133.3 42.0 Q130.2 41.45 128.05 38.2 126.45 35.85 126.55 32.8 L127.4 32.25 M121.55 44.65 L122.4 44.6 121.55 44.65 M81.7 17.75 L84.55 19.55 81.7 17.75 M148.05 23.1 L150.9 24.9 148.05 23.1 M94.8 27.6 L93.95 29.6 92.1 29.8 Q89.5 29.65 87.05 29.8 L85.35 28.8 85.3 28.85 Q85.1 29.1 85.2 29.6 L85.15 29.95 78.9 29.05 78.5 28.75 Q77.85 28.3 77.3 27.7 L77.15 28.8 76.05 28.25 76.0 28.15 Q75.15 26.95 74.05 26.25 74.45 28.95 76.75 29.35 L78.8 30.3 Q83.65 31.55 88.5 31.75 92.3 32.1 95.65 30.85 L95.75 28.45 95.55 28.25 94.8 27.0 94.8 27.6 M96.4 36.95 L96.85 36.15 97.85 35.95 96.5 36.9 96.4 36.95 M90.8 42.7 L88.35 44.0 90.8 42.7 M94.85 43.55 L92.65 43.5 92.25 43.8 92.15 44.3 92.4 44.65 93.75 45.05 95.45 45.2 Q97.15 45.15 98.85 44.35 L96.0 44.65 94.95 44.8 94.95 43.7 94.85 43.55 M77.0 56.0 L77.85 56.15 78.2 56.75 78.15 56.7 77.0 56.0 M112.3 49.4 L112.0 49.7 111.9 50.15 112.05 50.45 113.4 50.95 Q115.1 51.25 116.85 50.25 L113.9 50.6 114.0 49.6 113.95 49.45 112.3 49.4 M113.5 56.6 Q115.0 56.35 115.4 54.5 114.65 54.95 114.05 55.8 L114.0 55.85 113.3 56.25 113.25 55.5 112.45 56.2 112.15 56.4 108.15 57.05 108.15 56.8 108.1 56.25 106.95 56.95 Q105.4 56.8 103.75 56.95 L102.6 56.8 102.15 55.4 102.2 55.0 101.65 55.85 101.5 56.0 101.45 57.65 Q103.45 58.5 105.95 58.25 L108.4 58.05 112.15 57.25 113.5 56.6 M119.0 60.75 L118.85 60.95 118.9 63.35 120.75 64.0 125.3 64.25 Q129.6 64.05 133.95 62.8 L135.75 61.85 Q137.8 61.45 138.15 58.75 137.15 59.45 136.45 60.65 L136.35 60.75 135.4 61.3 135.25 60.2 134.2 61.25 133.8 61.55 128.3 62.45 128.2 62.1 128.1 61.35 128.1 61.3 126.55 62.3 123.7 62.25 122.05 62.3 120.45 62.1 119.7 60.1 119.7 59.5 119.0 60.75 M99.8 61.15 L100.4 61.3 100.65 61.85 100.55 61.8 99.8 61.15 M118.25 69.45 L118.15 69.4 116.95 68.45 117.85 68.65 118.25 69.45 M93.5 50.75 Q93.3 50.8 93.15 50.95 L87.85 51.6 87.75 51.35 87.7 50.8 87.65 50.75 86.2 51.5 81.9 51.5 80.3 51.35 79.6 49.9 79.6 49.45 78.95 50.35 78.8 50.5 78.85 52.25 Q81.7 53.15 84.95 52.95 L93.25 51.85 95.0 51.2 Q96.95 50.9 97.3 48.9 L95.65 50.3 95.6 50.35 94.7 50.75 94.55 49.95 93.5 50.75 M149.75 59.4 L150.5 59.95 Q150.55 63.0 149.15 65.35 147.2 68.6 144.45 69.15 145.5 67.4 146.7 65.9 148.9 63.25 149.75 59.4 M132.8 52.45 L133.0 52.9 Q136.4 54.65 139.7 52.55 L135.65 53.1 135.65 51.65 135.6 51.45 133.3 51.35 132.85 51.8 132.8 52.45 M131.35 50.25 L128.8 52.05 131.35 50.25 M80.0 19.3 L79.5 18.85 76.9 18.95 76.85 19.15 76.85 20.6 72.3 20.05 Q75.95 22.15 79.8 20.4 L80.05 19.95 80.0 19.3 M41.3 37.6 L41.15 35.4 41.15 35.35 40.75 34.4 39.4 33.05 39.35 33.0 39.4 33.05 40.75 34.4 41.15 35.35 41.15 35.4 41.3 37.6 Q40.6 37.95 40.05 38.7 L39.7 37.2 39.0 38.2 35.4 42.55 33.15 44.95 Q31.25 46.95 28.4 47.85 L22.8 49.0 17.15 49.4 11.65 49.6 9.85 48.75 9.65 49.0 9.7 49.6 9.65 49.5 9.55 49.1 9.5 48.65 9.5 48.4 9.5 47.2 9.55 47.1 10.05 46.4 10.25 44.35 10.3 44.2 Q10.4 43.6 11.1 43.35 L13.0 42.55 13.05 42.55 Q17.7 40.8 22.0 38.65 L22.95 37.4 Q23.1 37.0 23.5 36.95 L26.75 36.55 29.35 36.15 30.2 35.8 35.25 32.75 Q35.55 32.55 35.9 32.5 37.9 32.1 39.35 33.0 L39.4 33.0 40.1 32.95 Q41.4 32.85 42.35 33.4 L44.0 34.4 44.5 34.8 46.4 37.95 46.45 38.0 45.1 37.65 Q42.85 36.75 41.3 37.6 M24.45 37.35 L22.0 38.65 24.45 37.35 M42.8 44.45 L43.5 43.35 Q43.65 42.95 43.95 42.9 L46.4 42.6 47.45 42.45 48.4 42.15 49.0 41.85 53.0 39.0 Q53.2 38.8 53.5 38.75 55.05 38.4 56.05 39.25 L56.55 39.2 Q57.55 39.05 58.25 39.6 L59.4 40.5 59.75 40.95 60.9 43.9 60.95 43.95 59.95 43.55 57.15 43.5 57.2 41.5 57.2 41.4 56.95 40.5 56.05 39.25 56.95 40.5 57.2 41.4 57.2 41.5 57.15 43.5 Q56.6 43.85 56.1 44.55 L56.0 43.15 55.4 44.1 52.4 48.2 50.55 50.45 Q48.95 52.3 46.8 53.15 44.7 53.95 42.6 54.25 L38.35 54.65 35.85 54.7 34.25 54.8 33.0 54.0 Q32.85 54.05 32.85 54.25 L32.8 54.8 32.8 54.75 32.75 54.35 32.75 53.9 32.75 53.65 32.85 52.55 32.9 52.45 33.3 51.8 33.6 49.9 33.65 49.7 Q33.8 49.15 34.3 48.95 L35.8 48.2 Q38.85 46.8 41.7 45.15 L42.1 44.05 42.8 44.45 42.75 44.5 42.8 44.45 42.75 44.5 42.8 44.45 44.65 43.3 42.8 44.45 M42.75 44.5 L41.7 45.15 42.75 44.5 M47.55 45.25 L47.65 44.25 47.6 44.1 45.95 44.05 45.65 44.35 45.55 44.8 45.7 45.1 Q46.35 45.45 47.05 45.6 48.75 45.9 50.5 44.9 L47.55 45.25 M54.9 39.3 L56.05 39.25 54.9 39.3 M64.45 33.4 L66.95 36.65 Q63.85 36.1 61.7 32.85 60.1 30.5 60.2 27.45 L61.05 26.9 Q61.95 30.75 64.45 33.4 M13.25 44.1 L12.6 45.0 12.45 45.15 12.5 46.9 Q15.35 47.8 18.6 47.6 L26.9 46.5 28.65 45.85 Q30.6 45.55 30.95 43.55 30.0 44.05 29.3 44.95 L29.25 45.0 28.35 45.4 28.2 44.6 27.15 45.4 26.8 45.6 21.5 46.25 21.4 46.0 21.35 45.45 21.3 45.4 19.85 46.15 15.55 46.15 13.95 46.0 13.25 44.55 13.25 44.1 M37.8 33.05 L39.35 33.0 37.8 33.05 M26.05 39.3 Q29.3 40.55 32.5 39.0 L28.6 39.45 28.6 38.35 28.5 38.2 26.3 38.15 25.9 38.45 25.8 38.95 26.05 39.3 M33.45 55.8 L34.05 55.95 34.3 56.5 34.2 56.45 33.45 55.8 M35.85 49.65 L35.3 50.5 35.15 50.65 35.1 52.3 Q37.1 53.15 39.6 52.9 L42.05 52.7 45.8 51.9 47.15 51.25 Q48.65 51.0 49.05 49.15 48.3 49.6 47.7 50.45 L47.65 50.5 46.95 50.9 46.9 50.15 46.1 50.85 45.8 51.05 41.8 51.7 41.8 51.45 41.75 50.9 40.6 51.6 Q39.05 51.45 37.4 51.6 L36.25 51.45 35.8 50.05 35.85 49.65 M10.65 50.65 L11.5 50.8 11.85 51.4 11.8 51.35 10.65 50.65 M57.25 49.6 L57.75 49.95 Q57.65 52.05 56.55 53.65 55.0 55.9 53.0 56.3 53.8 55.05 54.75 54.05 56.45 52.2 57.25 49.6" fill="#b4643a" fill-rule="evenodd" stroke="none"/>
    <path d="M165.5 39.75 L165.45 41.95 165.2 42.85 Q164.3 44.65 163.85 46.9 163.1 50.15 160.2 51.65 L159.9 51.75 Q160.15 49.55 160.85 47.3 161.6 44.75 162.5 42.8 L162.75 42.3 162.85 42.25 164.2 41.3 164.5 41.05 Q165.1 40.6 165.3 39.85 L165.3 39.75 165.5 39.75 M154.7 52.5 Q155.55 55.5 155.25 59.2 L155.05 60.95 154.15 64.15 Q152.45 68.3 149.65 71.25 L149.0 71.7 Q142.8 74.0 136.8 76.75 L136.1 77.05 131.35 77.95 130.25 78.15 130.85 77.4 131.3 74.5 131.75 70.8 133.8 69.0 134.85 67.9 136.4 67.55 139.5 66.45 140.6 65.85 141.15 65.35 143.95 61.9 147.25 56.5 Q148.7 54.0 148.9 50.95 L148.95 50.65 148.95 50.6 Q150.55 49.45 152.9 50.65 L154.3 51.2 154.7 52.5 M120.8 78.9 L120.5 78.8 Q117.9 77.3 117.25 74.05 116.85 71.8 116.05 70.0 L115.85 69.1 115.8 66.9 115.95 66.9 116.0 67.0 Q116.1 67.75 116.65 68.2 L116.95 68.45 118.15 69.4 118.25 69.45 118.45 69.95 119.9 74.45 120.8 78.9 M115.75 65.9 L113.45 66.85 112.95 67.05 109.55 67.7 108.7 67.8 109.2 67.3 109.7 65.3 110.2 62.75 111.75 61.55 112.6 60.75 113.65 60.55 115.95 59.8 116.65 59.4 116.6 59.6 116.55 59.85 116.35 62.6 115.85 63.6 115.75 63.75 115.65 64.35 115.7 65.35 115.75 65.35 115.75 65.7 115.8 65.9 115.75 65.9 115.75 65.7 115.7 65.35 115.75 65.7 115.75 65.9 M101.95 68.35 L101.75 68.25 Q100.0 67.2 99.7 65.0 L99.05 62.2 98.95 61.6 99.0 61.1 96.0 62.1 95.35 62.3 90.8 62.95 89.7 63.1 90.3 62.55 90.75 60.45 91.2 57.7 93.15 56.4 94.15 55.6 95.65 55.35 98.6 54.55 99.65 54.1 100.15 53.75 Q101.7 52.6 102.85 51.2 L106.05 47.25 Q107.5 45.3 107.65 42.95 109.2 42.1 111.45 43.0 L112.8 43.35 Q113.8 45.35 113.8 47.8 L112.75 47.95 110.3 48.25 Q110.0 48.3 109.85 48.7 L109.15 49.8 108.45 49.4 108.05 50.5 Q105.2 52.15 102.15 53.55 L100.65 54.3 Q100.15 54.5 100.0 55.05 L99.95 55.25 99.65 57.15 99.25 57.8 99.2 57.9 99.05 58.3 99.05 59.0 99.1 59.0 99.1 59.25 99.1 59.7 99.15 60.1 99.15 60.15 99.5 60.9 99.6 61.0 99.8 61.15 100.55 61.8 100.65 61.85 100.75 62.2 101.6 65.25 101.95 68.35 M80.65 63.65 L80.4 63.6 Q77.9 62.5 77.3 60.1 76.9 58.45 76.15 57.15 L75.9 56.5 75.85 54.85 76.0 54.85 76.05 54.95 Q76.2 55.5 76.7 55.8 L77.0 56.0 78.15 56.7 78.2 56.75 78.4 57.1 79.85 60.4 80.65 63.65 M82.95 45.65 L81.7 45.45 Q78.95 45.3 76.35 44.55 L75.6 44.25 Q68.8 41.5 61.9 39.2 61.45 39.1 61.15 38.75 57.95 35.8 56.1 31.65 55.35 29.95 55.1 28.45 L54.85 26.7 Q54.4 22.2 55.95 18.7 L57.5 18.15 Q60.1 16.95 61.95 18.1 62.1 21.35 63.8 24.0 L67.55 29.4 Q68.9 31.3 70.7 32.85 L71.3 33.35 72.55 33.95 76.05 35.05 77.75 35.4 78.9 36.5 81.2 38.3 81.75 42.0 82.25 44.9 82.95 45.65 M99.15 34.4 L99.1 36.6 98.85 37.5 Q98.15 38.85 97.75 40.5 L96.55 41.15 95.7 41.5 94.6 41.75 Q95.3 39.3 96.15 37.45 L96.4 36.95 96.5 36.9 97.85 35.95 98.15 35.7 Q98.75 35.25 98.95 34.5 L98.95 34.4 99.15 34.4 M127.3 49.3 Q127.8 50.85 127.75 52.7 L123.85 55.1 123.6 54.95 123.5 55.3 119.5 57.4 119.45 57.4 118.15 58.05 119.35 56.65 122.0 52.95 Q123.25 51.1 123.5 48.85 L126.3 48.9 127.2 49.25 127.3 49.3 M137.65 47.95 L128.25 44.55 Q127.8 44.45 127.5 44.1 124.3 41.15 122.45 37.0 121.7 35.3 121.45 33.8 L121.2 32.05 Q120.75 27.55 122.3 24.05 L123.85 23.5 Q126.45 22.3 128.3 23.45 128.45 26.7 130.15 29.35 L133.9 34.75 Q135.25 36.65 137.05 38.2 L137.65 38.7 138.9 39.3 142.4 40.4 144.1 40.75 145.25 41.85 147.55 43.65 147.65 44.25 146.95 44.35 146.9 44.35 Q145.4 43.1 143.3 43.65 142.9 43.75 142.6 44.0 L137.65 47.95 M127.4 32.25 L126.55 32.8 Q126.45 35.85 128.05 38.2 130.2 41.45 133.3 42.0 L130.8 38.75 Q128.3 36.1 127.4 32.25 M99.0 61.1 L99.0 60.1 99.05 59.7 99.1 59.25 99.05 59.0 99.1 59.25 99.05 59.7 99.0 60.1 99.0 61.1 M149.75 59.4 Q148.9 63.25 146.7 65.9 145.5 67.4 144.45 69.15 147.2 68.6 149.15 65.35 150.55 63.0 150.5 59.95 L149.75 59.4 M41.3 37.6 Q42.85 36.75 45.1 37.65 L46.45 38.0 Q47.45 40.0 47.45 42.45 L46.4 42.6 43.95 42.9 Q43.65 42.95 43.5 43.35 L42.8 44.45 42.1 44.05 41.7 45.15 Q38.85 46.8 35.8 48.2 L34.3 48.95 Q33.8 49.15 33.65 49.7 L33.6 49.9 33.3 51.8 32.9 52.45 32.85 52.55 32.7 52.95 32.7 53.65 32.75 53.65 32.75 53.9 32.75 54.35 32.8 54.75 32.8 54.8 Q32.85 55.25 33.15 55.55 L33.25 55.65 33.45 55.8 34.2 56.45 34.3 56.5 34.4 56.85 35.25 59.9 35.6 63.0 35.4 62.9 Q33.65 61.85 33.35 59.65 L32.7 56.85 32.6 56.25 32.65 55.75 Q31.1 56.2 29.65 56.75 L29.0 56.95 24.45 57.6 23.35 57.75 23.95 57.2 24.4 55.1 24.85 52.35 26.8 51.05 27.8 50.25 29.3 50.0 32.25 49.2 33.3 48.75 33.8 48.4 Q35.35 47.25 36.5 45.85 L39.7 41.9 Q41.15 39.95 41.3 37.6 M57.15 43.5 L59.95 43.55 60.95 43.95 Q61.7 46.35 61.2 49.45 L60.95 50.65 60.15 52.85 Q58.7 55.65 56.55 57.7 L56.05 58.05 Q51.5 59.6 47.1 61.5 L46.6 61.7 43.2 62.35 42.35 62.45 42.85 61.95 43.35 59.95 43.85 57.4 45.4 56.2 46.25 55.4 47.3 55.2 49.6 54.45 50.4 54.0 50.8 53.65 53.0 51.3 55.65 47.6 Q56.9 45.75 57.15 43.5 M14.3 58.3 L14.05 58.25 Q11.55 57.15 10.95 54.75 10.55 53.1 9.8 51.8 L9.55 51.15 9.5 49.5 9.65 49.5 9.7 49.6 Q9.85 50.15 10.35 50.45 L10.65 50.65 11.8 51.35 11.85 51.4 12.05 51.75 13.5 55.05 14.3 58.3 M64.45 33.4 Q61.95 30.75 61.05 26.9 L60.2 27.45 Q60.1 30.5 61.7 32.85 63.85 36.1 66.95 36.65 L64.45 33.4 M32.7 53.65 L32.75 53.9 32.7 54.35 32.65 54.75 32.65 55.75 32.65 54.75 32.7 54.35 32.75 53.9 32.7 53.65 M57.25 49.6 Q56.45 52.2 54.75 54.05 53.8 55.05 53.0 56.3 55.0 55.9 56.55 53.65 57.65 52.05 57.75 49.95 L57.25 49.6" fill="#682e1f" fill-rule="evenodd" stroke="none"/>
    <path d="M159.9 51.75 L159.5 51.8 Q157.05 51.7 154.7 52.5 L154.3 51.2 154.25 51.1 152.3 46.8 151.75 46.2 150.05 44.85 Q149.0 44.1 147.65 44.25 L147.55 43.65 145.25 41.85 144.1 40.75 142.4 40.4 138.9 39.3 137.65 38.7 137.05 38.2 Q135.25 36.65 133.9 34.75 L130.15 29.35 Q128.45 26.7 128.3 23.45 129.1 23.95 129.75 24.95 L130.2 22.9 131.0 24.25 Q132.95 27.35 135.2 30.2 L137.85 33.5 Q140.05 36.25 143.4 37.45 146.6 38.65 149.95 39.05 L156.55 39.6 163.0 39.85 165.1 38.7 165.3 39.05 165.3 39.85 Q165.1 40.6 164.5 41.05 L164.2 41.3 163.2 41.5 162.75 42.3 162.5 42.8 Q161.6 44.75 160.85 47.3 160.15 49.55 159.9 51.75 M130.25 78.15 L129.35 78.45 Q128.3 78.85 127.3 79.55 L125.6 79.7 Q123.4 78.85 121.15 78.95 L120.8 78.9 119.9 74.45 118.45 69.95 118.25 69.45 117.85 68.65 116.95 68.45 116.65 68.2 Q116.1 67.75 116.0 67.0 115.9 66.65 115.95 66.2 L116.15 65.85 118.0 67.0 123.75 66.75 129.65 66.2 Q132.65 65.8 135.5 64.6 138.45 63.4 140.4 60.65 L142.8 57.35 146.5 51.4 146.9 50.7 147.25 50.05 147.65 52.1 Q148.05 51.35 148.6 50.9 L148.9 50.6 148.95 50.6 148.95 50.65 148.9 50.95 Q148.7 54.0 147.25 56.5 L143.95 61.9 141.15 65.35 140.6 65.85 139.5 66.45 136.4 67.55 134.85 67.9 133.8 69.0 131.75 70.8 131.3 74.5 130.85 77.4 130.25 78.15 M108.7 67.8 L108.1 68.0 Q107.3 68.25 106.55 68.75 L105.35 68.9 Q103.85 68.3 102.2 68.35 L101.95 68.35 101.6 65.25 100.75 62.2 100.65 61.85 101.0 61.85 105.4 61.55 109.75 61.45 110.3 61.35 Q111.35 61.0 112.5 60.75 L112.6 60.75 111.75 61.55 110.2 62.75 109.7 65.3 109.2 67.3 108.7 67.8 M89.7 63.1 L88.9 63.3 Q87.85 63.6 86.9 64.15 L85.25 64.25 Q83.2 63.6 81.0 63.7 L80.65 63.65 79.85 60.4 78.4 57.1 78.2 56.75 77.85 56.15 77.0 56.0 76.05 54.95 77.0 56.0 76.7 55.8 Q76.2 55.5 76.05 54.95 L76.0 54.35 76.2 54.1 78.0 54.95 83.5 54.75 89.15 54.35 Q92.0 54.05 94.75 53.2 97.6 52.3 99.5 50.3 L101.75 47.9 105.35 43.55 106.05 42.55 106.4 44.05 Q106.95 43.3 107.65 42.95 107.5 45.3 106.05 47.25 L102.85 51.2 Q101.7 52.6 100.15 53.75 L99.65 54.1 98.6 54.55 95.65 55.35 94.15 55.6 94.05 55.6 91.15 56.2 90.45 56.35 84.6 56.4 78.7 56.75 78.2 56.75 78.7 56.75 84.6 56.4 90.45 56.35 91.15 56.2 94.05 55.6 94.15 55.6 93.15 56.4 91.2 57.7 90.75 60.45 90.3 62.55 89.7 63.1 M84.05 46.0 L83.9 45.95 82.95 45.65 82.25 44.9 81.75 42.0 81.2 38.3 78.9 36.5 77.75 35.4 76.05 35.05 72.55 33.95 71.3 33.35 70.7 32.85 Q68.9 31.3 67.55 29.4 L63.8 24.0 Q62.1 21.35 61.95 18.1 62.75 18.6 63.4 19.6 L63.85 17.55 64.65 18.9 Q66.6 22.0 68.85 24.85 L71.5 28.15 Q73.7 30.9 77.05 32.1 80.25 33.3 83.6 33.7 L90.2 34.25 96.65 34.5 98.75 33.35 Q98.95 33.45 98.95 33.7 L98.95 34.5 97.85 35.95 98.95 34.5 Q98.75 35.25 98.15 35.7 L97.85 35.95 96.85 36.15 96.4 36.95 96.15 37.45 Q95.3 39.3 94.6 41.75 L93.1 41.9 89.85 42.3 Q89.45 42.35 89.3 42.75 L88.35 44.0 84.05 46.0 M162.0 36.2 Q158.65 37.45 154.85 37.1 150.0 36.9 145.15 35.65 L143.1 34.7 Q140.8 34.3 140.4 31.6 141.5 32.3 142.35 33.5 L142.4 33.6 143.5 34.15 143.65 33.05 144.85 34.1 145.25 34.4 151.5 35.3 151.55 34.95 Q151.45 34.45 151.65 34.2 L151.7 34.15 153.4 35.15 Q155.85 35.0 158.45 35.15 L160.3 34.95 161.15 32.95 161.15 32.35 161.9 33.6 162.1 33.8 162.0 36.2 M162.75 42.3 L162.15 42.35 155.25 41.85 148.4 41.75 147.6 41.6 144.2 40.75 144.1 40.75 144.2 40.75 147.6 41.6 148.4 41.75 155.25 41.85 162.15 42.35 162.75 42.3 M165.3 39.85 L164.2 41.3 165.3 39.85 M143.25 24.3 L145.85 24.2 146.35 24.65 146.4 25.3 146.15 25.75 Q142.3 27.5 138.65 25.4 L143.2 25.95 143.2 24.5 143.25 24.3 M99.15 60.15 L99.2 59.6 Q99.2 59.4 99.35 59.35 L100.6 60.15 102.2 60.05 104.7 60.0 108.95 59.6 113.15 58.5 Q115.3 57.65 116.9 55.8 L118.75 53.55 121.75 49.45 122.35 48.5 122.45 49.9 Q122.95 49.2 123.5 48.85 123.25 51.1 122.0 52.95 L119.35 56.65 118.15 58.05 117.45 58.45 Q116.85 58.75 116.65 59.4 L115.95 59.8 113.65 60.55 112.6 60.75 112.5 60.75 Q111.35 61.0 110.3 61.35 L109.75 61.45 105.4 61.55 101.0 61.85 100.65 61.85 100.4 61.3 99.8 61.15 99.6 61.0 99.5 60.9 99.15 60.15 99.55 60.9 99.8 61.15 99.55 60.9 99.15 60.15 M94.8 27.6 L94.8 27.0 95.55 28.25 95.75 28.45 95.65 30.85 Q92.3 32.1 88.5 31.75 83.65 31.55 78.8 30.3 L76.75 29.35 Q74.45 28.95 74.05 26.25 75.15 26.95 76.0 28.15 L76.05 28.25 77.15 28.8 77.3 27.7 Q77.85 28.3 78.5 28.75 L78.9 29.05 85.15 29.95 85.2 29.6 Q85.1 29.1 85.3 28.85 L85.35 28.8 87.05 29.8 Q89.5 29.65 92.1 29.8 L93.95 29.6 94.8 27.6 M96.4 36.95 L95.8 37.0 88.9 36.5 82.05 36.4 81.25 36.25 77.85 35.4 77.75 35.4 77.85 35.4 81.25 36.25 82.05 36.4 88.9 36.5 95.8 37.0 96.4 36.95 M94.85 43.55 L94.95 43.7 94.95 44.8 96.0 44.65 98.85 44.35 Q97.15 45.15 95.45 45.2 L93.75 45.05 92.4 44.65 92.15 44.3 92.25 43.8 92.65 43.5 94.85 43.55 M112.3 49.4 L113.95 49.45 114.0 49.6 113.9 50.6 116.85 50.25 Q115.1 51.25 113.4 50.95 L112.05 50.45 111.9 50.15 112.0 49.7 112.3 49.4 M113.5 56.6 L112.15 57.25 108.4 58.05 105.95 58.25 Q103.45 58.5 101.45 57.65 L101.5 56.0 101.65 55.85 102.2 55.0 102.15 55.4 102.6 56.8 103.75 56.95 Q105.4 56.8 106.95 56.95 L108.1 56.25 108.15 56.8 108.15 57.05 112.15 56.4 112.45 56.2 113.25 55.5 113.3 56.25 114.0 55.85 114.05 55.8 Q114.65 54.95 115.4 54.5 115.0 56.35 113.5 56.6 M119.0 60.75 L119.7 59.5 119.7 60.1 120.45 62.1 122.05 62.3 123.7 62.25 126.55 62.3 128.1 61.3 128.1 61.35 128.2 62.1 128.3 62.45 133.8 61.55 134.2 61.25 135.25 60.2 135.4 61.3 136.35 60.75 136.45 60.65 Q137.15 59.45 138.15 58.75 137.8 61.45 135.75 61.85 L133.95 62.8 Q129.6 64.05 125.3 64.25 L120.75 64.0 118.9 63.35 118.85 60.95 119.0 60.75 M118.25 69.45 L118.75 69.5 124.9 69.0 131.0 68.9 131.75 68.75 134.75 67.9 134.85 67.9 134.75 67.9 131.75 68.75 131.0 68.9 124.9 69.0 118.75 69.5 118.25 69.45 M116.95 68.45 L116.0 67.0 116.95 68.45 M93.5 50.75 L94.55 49.95 94.7 50.75 95.6 50.35 95.65 50.3 97.3 48.9 Q96.95 50.9 95.0 51.2 L93.25 51.85 84.95 52.95 Q81.7 53.15 78.85 52.25 L78.8 50.5 78.95 50.35 79.6 49.45 79.6 49.9 80.3 51.35 81.9 51.5 86.2 51.5 87.65 50.75 87.7 50.8 87.75 51.35 87.85 51.6 93.15 50.95 Q93.3 50.8 93.5 50.75 M132.8 52.45 L132.85 51.8 133.3 51.35 135.6 51.45 135.65 51.65 135.65 53.1 139.7 52.55 Q136.4 54.65 133.0 52.9 L132.8 52.45 M80.0 19.3 L80.05 19.95 79.8 20.4 Q75.95 22.15 72.3 20.05 L76.85 20.6 76.85 19.15 76.9 18.95 79.5 18.85 80.0 19.3 M47.55 45.25 L50.5 44.9 Q48.75 45.9 47.05 45.6 46.35 45.45 45.7 45.1 L45.55 44.8 45.65 44.35 45.95 44.05 47.6 44.1 47.65 44.25 47.55 45.25 M42.35 62.45 L41.75 62.65 Q40.95 62.9 40.2 63.4 L39.0 63.55 Q37.5 62.95 35.85 63.0 L35.6 63.0 35.25 59.9 34.4 56.85 34.3 56.5 34.05 55.95 33.45 55.8 33.2 55.55 32.8 54.8 33.2 55.55 33.45 55.8 33.25 55.65 33.15 55.55 Q32.85 55.25 32.8 54.8 L32.85 54.25 Q32.85 54.05 33.0 54.0 L34.25 54.8 35.85 54.7 38.35 54.65 42.6 54.25 Q44.7 53.95 46.8 53.15 48.95 52.3 50.55 50.45 L52.4 48.2 55.4 44.1 56.0 43.15 56.1 44.55 Q56.6 43.85 57.15 43.5 56.9 45.75 55.65 47.6 L53.0 51.3 50.8 53.65 50.4 54.0 49.6 54.45 47.3 55.2 46.25 55.4 45.4 56.2 43.85 57.4 43.35 59.95 42.85 61.95 42.35 62.45 M23.35 57.75 L22.55 57.95 Q21.5 58.25 20.55 58.8 L18.9 58.9 Q16.85 58.25 14.65 58.35 L14.3 58.3 13.5 55.05 12.05 51.75 11.85 51.4 12.35 51.4 18.25 51.05 24.1 51.0 24.8 50.85 27.7 50.25 27.8 50.25 26.8 51.05 24.85 52.35 24.4 55.1 23.95 57.2 23.35 57.75 M9.7 49.6 L9.65 49.0 9.85 48.75 11.65 49.6 17.15 49.4 22.8 49.0 28.4 47.85 Q31.25 46.95 33.15 44.95 L35.4 42.55 39.0 38.2 39.7 37.2 40.05 38.7 Q40.6 37.95 41.3 37.6 41.15 39.95 39.7 41.9 L36.5 45.85 Q35.35 47.25 33.8 48.4 L33.3 48.75 32.25 49.2 29.3 50.0 27.8 50.25 27.7 50.25 24.8 50.85 24.1 51.0 18.25 51.05 12.35 51.4 11.85 51.4 11.5 50.8 10.65 50.65 10.35 50.45 Q9.85 50.15 9.7 49.6 L10.65 50.65 9.7 49.6 M13.25 44.1 L13.25 44.55 13.95 46.0 15.55 46.15 19.85 46.15 21.3 45.4 21.35 45.45 21.4 46.0 21.5 46.25 26.8 45.6 27.15 45.4 28.2 44.6 28.35 45.4 29.25 45.0 29.3 44.95 Q30.0 44.05 30.95 43.55 30.6 45.55 28.65 45.85 L26.9 46.5 18.6 47.6 Q15.35 47.8 12.5 46.9 L12.45 45.15 12.6 45.0 13.25 44.1 M26.05 39.3 L25.8 38.95 25.9 38.45 26.3 38.15 28.5 38.2 28.6 38.35 28.6 39.45 32.5 39.0 Q29.3 40.55 26.05 39.3 M46.25 55.4 L46.15 55.4 43.95 56.0 43.4 56.1 39.05 56.2 34.65 56.5 34.3 56.5 34.65 56.5 39.05 56.2 43.4 56.1 43.95 56.0 46.15 55.4 46.25 55.4 M35.85 49.65 L35.8 50.05 36.25 51.45 37.4 51.6 Q39.05 51.45 40.6 51.6 L41.75 50.9 41.8 51.45 41.8 51.7 45.8 51.05 46.1 50.85 46.9 50.15 46.95 50.9 47.65 50.5 47.7 50.45 Q48.3 49.6 49.05 49.15 48.65 51.0 47.15 51.25 L45.8 51.9 42.05 52.7 39.6 52.9 Q37.1 53.15 35.1 52.3 L35.15 50.65 35.3 50.5 35.85 49.65" fill="#da9e5d" fill-rule="evenodd" stroke="none"/>
    <path d="M165.55 36.6 L165.7 37.2 165.6 38.2 165.55 38.2 165.55 36.6" fill="#ff0000" fill-rule="evenodd" stroke="none"/>
    <path d="M115.75 63.75 L115.75 65.35 115.7 65.35 115.65 64.35 115.75 63.75" fill="#ff0000" fill-rule="evenodd" stroke="none"/>
    <path d="M99.2 57.9 L99.1 59.0 99.05 59.0 99.05 58.3 99.2 57.9" fill="#ff0000" fill-rule="evenodd" stroke="none"/>
    <path d="M9.45 48.4 L9.35 47.65 9.5 47.2 9.5 48.4 9.45 48.4" fill="#ff0000" fill-rule="evenodd" stroke="none"/>
    <path d="M32.85 52.55 L32.75 53.65 32.7 53.65 32.7 52.95 32.85 52.55" fill="#ff0000" fill-rule="evenodd" stroke="none"/>
    <path d="M75.8 53.75 L75.7 53.0 75.85 52.55 75.85 53.75 75.8 53.75" fill="#ff0000" fill-rule="evenodd" stroke="none"/>
    <path d="M165.7 37.2 L165.6 38.2 165.55 38.55 165.55 39.2 165.5 39.75 165.45 41.95 165.2 42.85 Q164.3 44.65 163.85 46.9 163.1 50.15 160.2 51.65 L159.9 51.75 159.5 51.8 Q157.05 51.7 154.7 52.5 155.55 55.5 155.25 59.2 L155.05 60.95 154.15 64.15 Q152.45 68.3 149.65 71.25 L149.0 71.7 Q142.8 74.0 136.8 76.75 L136.1 77.05 131.35 77.95 130.25 78.15 129.35 78.45 Q128.3 78.85 127.3 79.55 L125.6 79.7 Q123.4 78.85 121.15 78.95 L120.8 78.9 120.5 78.8 Q117.9 77.3 117.25 74.05 116.85 71.8 116.05 70.0 L115.85 69.1 115.8 66.9 115.75 66.35 115.75 65.9 113.45 66.85 112.95 67.05 109.55 67.7 108.7 67.8 108.1 68.0 Q107.3 68.25 106.55 68.75 L105.35 68.9 Q103.85 68.3 102.2 68.35 L101.95 68.35 101.75 68.25 Q100.0 67.2 99.7 65.0 L99.05 62.2 98.95 61.6 99.0 61.1 96.0 62.1 95.35 62.3 90.8 62.95 89.7 63.1 88.9 63.3 Q87.85 63.6 86.9 64.15 L85.25 64.25 Q83.2 63.6 81.0 63.7 L80.65 63.65 80.4 63.6 Q77.9 62.5 77.3 60.1 76.9 58.45 76.15 57.15 L75.9 56.5 75.85 54.85 75.85 54.45 75.85 54.0 75.8 53.75 75.7 53.0 M76.6 49.7 L76.65 49.55 Q76.75 48.95 77.45 48.7 78.35 48.25 79.35 47.9 L79.4 47.9 84.05 46.0 83.9 45.95 82.95 45.65 81.7 45.45 Q78.95 45.3 76.35 44.55 L75.6 44.25 Q68.8 41.5 61.9 39.2 61.45 39.1 61.15 38.75 57.95 35.8 56.1 31.65 55.35 29.95 55.1 28.45 L54.85 26.7 Q54.4 22.2 55.95 18.7 L56.0 18.6 58.2 14.3 58.8 13.7 Q59.7 13.05 60.7 12.35 61.85 11.6 63.4 11.75 L64.15 11.85 64.25 11.85 Q65.9 10.6 68.3 11.15 68.7 11.25 69.05 11.5 L74.95 15.65 75.95 16.1 79.0 16.7 82.8 17.2 83.45 17.85 Q83.75 18.7 84.55 19.55 89.5 22.5 95.0 24.9 L95.05 24.9 97.3 25.95 Q98.05 26.3 98.25 27.1 L98.3 27.35 M99.15 33.35 L99.2 33.2 99.2 33.85 99.15 34.4 99.1 36.6 98.85 37.5 Q98.15 38.85 97.75 40.5 L101.6 38.1 Q101.9 37.9 102.25 37.85 104.25 37.45 105.7 38.35 L105.75 38.35 106.45 38.3 Q107.75 38.2 108.7 38.75 L110.35 39.75 110.85 40.15 112.75 43.3 112.8 43.35 Q113.8 45.35 113.8 47.8 L114.75 47.5 115.35 47.2 119.35 44.35 Q119.55 44.15 119.85 44.1 L121.1 44.0 Q121.8 44.1 122.4 44.6 L122.9 44.55 Q123.9 44.4 124.6 44.95 L125.75 45.85 126.1 46.3 127.25 49.25 M127.3 49.3 Q127.8 50.85 127.75 52.7 L128.8 52.05 129.8 50.35 Q129.95 49.8 130.35 49.7 L133.75 49.2 Q135.05 49.1 136.45 48.6 L137.35 48.15 137.65 47.95 128.25 44.55 Q127.8 44.45 127.5 44.1 124.3 41.15 122.45 37.0 121.7 35.3 121.45 33.8 L121.2 32.05 Q120.75 27.55 122.3 24.05 L122.35 23.95 124.55 19.65 125.15 19.05 127.05 17.7 Q128.2 16.95 129.75 17.1 L130.5 17.2 130.6 17.2 Q132.25 15.95 134.65 16.5 L135.4 16.85 141.3 21.0 142.3 21.45 145.35 22.05 149.15 22.55 149.8 23.2 Q150.1 24.05 150.9 24.9 155.85 27.85 161.35 30.25 L161.4 30.25 163.65 31.3 Q164.4 31.65 164.6 32.45 L164.65 32.7 M165.55 38.2 L165.55 38.55 165.45 39.2 165.3 39.75 165.3 39.85 164.2 41.3 162.85 42.25 162.75 42.3 162.15 42.35 155.25 41.85 148.4 41.75 147.6 41.6 144.2 40.75 144.1 40.75 142.4 40.4 138.9 39.3 137.65 38.7 137.05 38.2 Q135.25 36.65 133.9 34.75 L130.15 29.35 Q128.45 26.7 128.3 23.45 128.2 22.0 128.45 20.45 L128.5 20.35 128.95 19.05 Q129.65 17.85 130.55 17.2 L130.6 17.2 132.35 17.25 M165.55 36.6 L165.55 38.2 M122.4 44.6 L121.55 44.65 M123.5 48.85 L123.6 47.2 123.55 46.85 123.55 46.75 123.3 45.85 122.4 44.6 M147.65 44.25 Q149.0 44.1 150.05 44.85 L151.75 46.2 152.3 46.8 154.25 51.1 154.3 51.2 154.7 52.5 M146.9 44.35 Q145.4 43.1 143.3 43.65 142.9 43.75 142.6 44.0 L137.65 47.95 M148.95 50.6 L148.8 47.6 148.75 47.5 148.35 46.2 147.85 45.35 146.95 44.35 146.9 44.35 145.3 44.4 M147.65 44.25 L146.95 44.35 146.9 44.35 M150.9 24.9 L148.05 23.1 M84.55 19.55 L81.7 17.75 M61.95 18.1 Q62.1 21.35 63.8 24.0 L67.55 29.4 Q68.9 31.3 70.7 32.85 L71.3 33.35 72.55 33.95 76.05 35.05 77.75 35.4 77.85 35.4 81.25 36.25 82.05 36.4 88.9 36.5 95.8 37.0 96.4 36.95 96.5 36.9 97.85 35.95 98.95 34.5 98.95 34.4 99.1 33.85 99.15 33.35 M94.6 41.75 L95.7 41.5 96.55 41.15 97.75 40.5 M94.6 41.75 L93.1 41.9 89.85 42.3 Q89.45 42.35 89.3 42.75 L88.35 44.0 90.8 42.7 M88.35 44.0 L84.05 46.0 M107.65 42.95 L107.5 40.75 107.5 40.7 107.1 39.75 105.75 38.4 105.7 38.35 104.15 38.4 M76.05 54.95 L77.0 56.0 78.15 56.7 78.2 56.75 78.7 56.75 84.6 56.4 90.45 56.35 91.15 56.2 94.05 55.6 94.15 55.6 95.65 55.35 98.6 54.55 99.65 54.1 100.15 53.75 Q101.7 52.6 102.85 51.2 L106.05 47.25 Q107.5 45.3 107.65 42.95 M113.8 47.8 L112.75 47.95 110.3 48.25 Q110.0 48.3 109.85 48.7 L109.15 49.8 109.1 49.85 109.15 49.8 111.0 48.65 M112.6 60.75 L113.65 60.55 115.95 59.8 116.65 59.4 Q116.85 58.75 117.45 58.45 L118.15 58.05 119.35 56.65 122.0 52.95 Q123.25 51.1 123.5 48.85 M100.65 61.85 L101.0 61.85 105.4 61.55 109.75 61.45 110.3 61.35 Q111.35 61.0 112.5 60.75 L112.6 60.75 M123.5 55.3 L119.5 57.4 119.45 57.4 118.15 58.05 M116.65 59.4 L116.6 59.6 116.55 59.85 M115.75 63.75 L115.75 65.35 115.75 65.7 115.8 65.9 115.85 66.35 115.95 66.9 116.0 67.0 116.95 68.45 118.15 69.4 118.25 69.45 118.75 69.5 124.9 69.0 131.0 68.9 131.75 68.75 134.75 67.9 134.85 67.9 136.4 67.55 139.5 66.45 140.6 65.85 141.15 65.35 143.95 61.9 147.25 56.5 Q148.7 54.0 148.9 50.95 L148.95 50.65 148.95 50.6 M108.05 50.5 L109.1 49.85 M108.05 50.5 Q105.2 52.15 102.15 53.55 L100.65 54.3 Q100.15 54.5 100.0 55.05 L99.95 55.25 M99.2 57.9 L99.1 59.0 99.1 59.25 99.1 59.7 99.15 60.1 99.15 60.15 99.55 60.9 99.8 61.15 100.55 61.8 100.65 61.85 M115.65 64.35 L115.7 65.35 115.75 65.7 115.75 65.9 115.8 65.9 M99.05 58.3 L99.05 59.0 99.1 59.25 99.05 59.7 99.0 60.1 99.0 61.1 M128.8 52.05 L131.35 50.25 M123.85 55.1 L123.5 55.3 M123.85 55.1 L127.75 52.7 M61.95 18.1 Q61.85 16.65 62.1 15.1 L62.15 15.0 62.6 13.7 Q63.3 12.5 64.2 11.85 L64.25 11.85 66.0 11.9 M39.35 33.0 L39.4 33.05 40.75 34.4 41.15 35.35 41.15 35.4 41.3 37.6 Q41.15 39.95 39.7 41.9 L36.5 45.85 Q35.35 47.25 33.8 48.4 L33.3 48.75 32.25 49.2 29.3 50.0 27.8 50.25 27.7 50.25 24.8 50.85 24.1 51.0 18.25 51.05 12.35 51.4 11.85 51.4 11.8 51.35 10.65 50.65 9.7 49.6 9.65 49.5 9.55 49.1 9.5 48.65 9.45 48.4 9.35 47.65 M46.45 38.0 L46.4 37.95 44.5 34.8 44.0 34.4 42.35 33.4 Q41.4 32.85 40.1 32.95 L39.4 33.0 39.35 33.0 Q37.9 32.1 35.9 32.5 35.55 32.55 35.25 32.75 L30.2 35.8 29.35 36.15 26.75 36.55 23.5 36.95 Q23.1 37.0 22.95 37.4 L22.0 38.65 24.45 37.35 M47.45 42.45 L46.4 42.6 43.95 42.9 Q43.65 42.95 43.5 43.35 L42.8 44.45 42.75 44.5 42.8 44.45 44.65 43.3 M56.05 39.25 Q55.05 38.4 53.5 38.75 53.2 38.8 53.0 39.0 L49.0 41.85 48.4 42.15 47.45 42.45 Q47.45 40.0 46.45 38.0 M41.7 45.15 L42.75 44.5 M60.95 43.95 L60.9 43.9 59.75 40.95 59.4 40.5 58.25 39.6 Q57.55 39.05 56.55 39.2 L56.05 39.25 56.95 40.5 57.2 41.4 57.2 41.5 57.15 43.5 Q56.9 45.75 55.65 47.6 L53.0 51.3 50.8 53.65 50.4 54.0 49.6 54.45 47.3 55.2 46.25 55.4 46.15 55.4 43.95 56.0 43.4 56.1 39.05 56.2 34.65 56.5 34.3 56.5 34.2 56.45 33.45 55.8 33.2 55.55 32.8 54.8 32.8 54.75 32.75 54.35 32.75 53.9 32.7 53.65 32.7 52.95 M60.95 43.95 Q61.7 46.35 61.2 49.45 L60.95 50.65 60.15 52.85 Q58.7 55.65 56.55 57.7 L56.05 58.05 Q51.5 59.6 47.1 61.5 L46.6 61.7 43.2 62.35 42.35 62.45 41.75 62.65 Q40.95 62.9 40.2 63.4 L39.0 63.55 Q37.5 62.95 35.85 63.0 L35.6 63.0 35.4 62.9 Q33.65 61.85 33.35 59.65 L32.7 56.85 32.6 56.25 32.65 55.75 Q31.1 56.2 29.65 56.75 L29.0 56.95 24.45 57.6 23.35 57.75 22.55 57.95 Q21.5 58.25 20.55 58.8 L18.9 58.9 Q16.85 58.25 14.65 58.35 L14.3 58.3 14.05 58.25 Q11.55 57.15 10.95 54.75 10.55 53.1 9.8 51.8 L9.55 51.15 9.5 49.5 9.5 49.1 9.5 48.65 9.5 48.4 9.5 47.2 M10.25 44.35 L10.3 44.2 Q10.4 43.6 11.1 43.35 L13.0 42.55 13.05 42.55 Q17.7 40.8 22.0 38.65 M56.05 39.25 L54.9 39.3 M39.35 33.0 L37.8 33.05 M41.7 45.15 Q38.85 46.8 35.8 48.2 L34.3 48.95 Q33.8 49.15 33.65 49.7 L33.6 49.9 M32.85 52.55 L32.75 53.65 32.75 53.9 32.7 54.35 32.65 54.75 32.65 55.75 M76.05 54.95 L76.0 54.85 75.9 54.45 75.85 54.0 75.85 53.75 75.85 52.55" fill="none" stroke="#666666" stroke-linecap="round" stroke-linejoin="round" stroke-opacity="0.5019608" stroke-width="0.05"/>
  </g>
</svg>
