<?xml version="1.0" encoding="UTF-8" standalone="no"?>
<svg xmlns:xlink="http://www.w3.org/1999/xlink" height="91.15px" width="90.45px" xmlns="http://www.w3.org/2000/svg">
  <g transform="matrix(1.0, 0.0, 0.0, 1.0, -229.65, -154.9)">
    <path d="M245.95 240.25 L247.4 241.8 Q246.55 245.0 243.35 245.75 L239.65 241.95 237.25 239.45 Q236.6 242.15 231.7 241.9 231.0 240.8 231.05 239.4 231.0 237.45 232.35 236.1 L233.3 235.4 229.95 231.95 Q230.6 228.15 234.0 228.0 L235.0 229.0 245.95 240.25 M233.3 235.4 L237.25 239.45 233.3 235.4" fill="#ffcc00" fill-rule="evenodd" stroke="none"/>
    <path d="M318.5 156.3 L319.85 155.75 319.8 156.15 307.05 179.9 307.55 178.55 269.65 219.15 268.6 218.45 272.55 202.4 318.5 156.3 272.55 202.4 256.65 206.2 255.05 203.55 295.9 165.15 296.25 165.0 318.5 156.3" fill="#83b7be" fill-rule="evenodd" stroke="none"/>
    <path d="M269.65 219.15 L307.55 178.55 307.05 179.9 300.5 198.3 298.4 196.7 298.6 202.65 298.5 202.75 273.5 221.35 269.65 219.15 M295.05 165.4 L295.9 165.15 255.05 203.55 Q253.25 200.3 251.9 196.65 L279.15 170.2 295.05 165.4" fill="#9dc7cc" fill-rule="evenodd" stroke="none"/>
    <path d="M307.05 179.9 L319.8 156.15 316.35 184.5 301.95 199.4 300.5 198.3 307.05 179.9 M298.6 202.85 L278.6 223.55 278.45 223.5 276.05 222.55 273.5 221.35 298.5 202.75 298.6 202.85" fill="#b9d8db" fill-rule="evenodd" stroke="none"/>
    <path d="M319.6 155.2 L318.5 156.3 296.25 165.0 295.05 165.4 279.15 170.2 291.4 158.3 319.6 155.2" fill="#cae1e3" fill-rule="evenodd" stroke="none"/>
    <path d="M239.65 241.95 L239.0 242.7 Q237.65 244.1 235.7 244.1 233.75 244.1 232.35 242.7 L231.7 241.9 Q236.6 242.15 237.25 239.45 L239.65 241.95" fill="#d99506" fill-rule="evenodd" stroke="none"/>
    <path d="M251.05 231.2 Q249.65 232.5 248.65 234.05 L239.95 227.2 242.25 225.7 242.4 225.6 251.05 231.2 M247.15 236.7 Q246.35 238.4 245.95 240.25 L235.0 229.0 236.8 228.5 247.15 236.7 M245.25 222.8 L246.05 221.65 253.45 229.25 252.45 230.0 245.25 222.8" fill="#8c6004" fill-rule="evenodd" stroke="none"/>
    <path d="M252.45 230.0 L251.05 231.2 242.4 225.6 245.25 222.8 252.45 230.0 M248.65 234.05 Q247.75 235.3 247.15 236.7 L236.8 228.5 239.95 227.2 248.65 234.05" fill="#d29106" fill-rule="evenodd" stroke="none"/>
    <path d="M318.5 156.3 L272.55 202.4" fill="none" stroke="#eef5f7" stroke-linecap="round" stroke-linejoin="round" stroke-width="1.0"/>
    <path d="M319.85 155.75 L319.95 155.15 319.6 155.2 318.5 156.3 M319.8 156.15 L319.85 155.75 M235.0 229.0 L236.8 228.5 M245.25 222.8 L246.05 221.65 M253.45 229.25 L252.45 230.0 M298.6 202.65 L298.6 202.85" fill="none" stroke="#000000" stroke-linecap="round" stroke-linejoin="round" stroke-opacity="0.6" stroke-width="0.05"/>
    <path d="M239.65 241.95 L237.25 239.45 233.3 235.4 M235.0 229.0 L245.95 240.25" fill="none" stroke="#000000" stroke-linecap="round" stroke-linejoin="round" stroke-opacity="0.6" stroke-width="0.05"/>
    <path d="M279.15 170.2 L251.9 196.65 M279.15 170.2 L291.4 158.3 319.6 155.2 M252.45 230.0 L251.05 231.2 Q249.65 232.5 248.65 234.05 247.75 235.3 247.15 236.7 246.35 238.4 245.95 240.25 L247.4 241.8 Q246.55 245.0 243.35 245.75 L239.65 241.95 239.0 242.7 Q237.65 244.1 235.7 244.1 233.75 244.1 232.35 242.7 L231.7 241.9 Q231.0 240.8 231.05 239.4 231.0 237.45 232.35 236.1 L233.3 235.4 229.95 231.95 Q230.6 228.15 234.0 228.0 L235.0 229.0 M236.8 228.5 L239.95 227.2 242.25 225.7 M242.4 225.6 L245.25 222.8 M298.6 202.85 L278.6 223.55 278.45 223.5 M298.6 202.65 L298.4 196.7 300.5 198.3 301.95 199.4 316.35 184.5 319.8 156.15" fill="none" stroke="#000000" stroke-linecap="round" stroke-linejoin="round" stroke-opacity="0.6" stroke-width="0.6000000000000001"/>
    <path d="M272.1 202.5 L272.55 202.4 268.6 218.45 Q265.85 216.6 263.45 214.35 L272.1 202.5 M276.05 222.55 L278.45 223.5 278.8 238.45 264.8 235.3 265.5 231.95 276.05 234.7 276.05 222.55 M265.75 221.7 L262.25 219.3 256.05 232.0 242.6 218.1 243.6 217.65 254.3 226.85 261.85 217.7 265.75 221.7 M253.0 208.05 L252.5 207.3 240.2 207.3 237.45 197.2 237.95 197.2 241.8 204.7 252.05 204.7 252.1 204.85 253.0 208.05" fill="#d99506" fill-rule="evenodd" stroke="none"/>
    <path d="M268.6 218.45 L269.65 219.15 273.5 221.35 276.05 222.55 276.05 234.7 265.5 231.95 267.45 222.7 266.75 222.3 265.75 221.7 261.85 217.7 254.3 226.85 243.6 217.65 255.6 212.05 253.2 208.4 253.0 208.05 252.1 204.85 252.05 204.7 241.8 204.7 237.95 197.2 251.9 196.65 Q253.25 200.3 255.05 203.55 L256.65 206.2 272.1 202.5 263.45 214.35 Q265.85 216.6 268.6 218.45 M263.45 214.35 Q259.55 210.75 256.65 206.2 259.55 210.75 263.45 214.35" fill="#ffcc00" fill-rule="evenodd" stroke="none"/>
    <path d="M272.1 202.5 L272.55 202.4 268.6 218.45 M256.65 206.2 L272.1 202.5" fill="none" stroke="#000000" stroke-linecap="round" stroke-linejoin="round" stroke-opacity="0.6" stroke-width="0.05"/>
    <path d="M268.6 218.45 L269.65 219.15 273.5 221.35 276.05 222.55 M263.45 214.35 Q265.85 216.6 268.6 218.45 M256.65 206.2 Q259.55 210.75 263.45 214.35" fill="none" stroke="#000000" stroke-linecap="round" stroke-linejoin="round" stroke-opacity="0.6" stroke-width="0.05"/>
    <path d="M276.05 222.55 L278.45 223.5 278.8 238.45 264.8 235.3 265.5 231.95 267.45 222.7 266.75 222.3 265.75 221.7 262.25 219.3 256.05 232.0 242.6 218.1 243.6 217.65 255.6 212.05 253.2 208.4 M253.0 208.05 L252.5 207.3 240.2 207.3 237.45 197.2 237.95 197.2 251.9 196.65 Q253.25 200.3 255.05 203.55 L256.65 206.2" fill="none" stroke="#000000" stroke-linecap="round" stroke-linejoin="round" stroke-opacity="0.6" stroke-width="0.6000000000000001"/>
  </g>
</svg>
