<?xml version="1.0" encoding="UTF-8" standalone="no"?>
<svg xmlns:xlink="http://www.w3.org/1999/xlink" height="110.8px" width="84.05px" xmlns="http://www.w3.org/2000/svg">
  <g transform="matrix(1.0, 0.0, 0.0, 1.0, -69.2, -1.15)">
    <path d="M76.0 69.5 L76.05 69.5 76.0 69.5 M126.6 44.7 L126.55 45.0 126.2 44.65 126.6 44.7 M120.85 46.55 Q120.75 46.9 120.8 47.3 L120.55 46.7 120.85 46.55 M100.2 43.25 L101.9 43.15 102.6 44.0 101.0 43.5 100.2 43.25 M105.9 65.2 L106.0 65.0 106.15 65.1 105.9 65.2 M133.55 76.3 L133.7 76.4 133.45 76.7 133.55 76.3" fill="#f8ebcf" fill-rule="evenodd" stroke="none"/>
    <path d="M107.7 1.15 L108.9 1.15 108.0 1.45 107.7 1.15" fill="#f3f5f8" fill-rule="evenodd" stroke="none"/>
    <path d="M69.2 88.5 L70.2 89.05 69.8 89.05 69.2 88.5" fill="#a5b5c7" fill-rule="evenodd" stroke="none"/>
    <path d="M90.55 102.55 L90.5 102.5 90.55 102.55 M73.6 97.65 L73.55 97.65 73.3 97.6 73.9 97.5 73.6 97.65 M82.4 93.1 L82.25 92.45 82.65 92.95 82.4 93.1" fill="#c79e5c" fill-rule="evenodd" stroke="none"/>
    <path d="M87.2 57.5 L84.5 57.85 84.2 57.5 Q85.7 57.3 87.2 57.5" fill="#000000" fill-rule="evenodd" stroke="none"/>
    <path d="M105.75 59.35 L104.95 58.9 106.55 58.2 105.75 59.35 M89.35 52.4 L86.2 52.25 89.4 51.9 89.35 52.4" fill="#3c3c3c" fill-rule="evenodd" stroke="none"/>
    <path d="M79.8 60.8 L79.75 60.8 78.35 58.75 80.45 54.15 78.35 54.95 75.8 50.25 78.8 44.65 76.25 40.75 76.65 27.25 79.3 24.15 80.95 22.4 81.75 21.7 84.75 19.2 Q90.15 14.65 91.65 13.65 L91.85 13.6 92.0 13.5 107.1 7.7 118.5 7.75 Q133.75 12.3 141.05 16.95 L141.7 18.1 Q143.65 19.3 142.95 20.35 L144.45 20.0 146.95 34.8 Q144.85 35.25 142.7 36.5 L141.95 39.25 143.4 39.8 144.45 43.4 143.1 45.2 131.8 41.4 111.2 45.9 105.85 52.8 104.95 50.15 89.4 51.9 86.2 52.25 85.3 52.15 84.25 52.6 83.1 53.05 83.65 52.85 82.55 55.5 84.2 57.5 84.5 57.85 87.2 57.5 Q92.15 56.9 97.2 57.4 100.75 57.7 104.3 58.55 L104.95 58.9 105.75 59.35 103.8 61.85 103.8 61.95 103.45 62.95 102.9 63.0 101.55 63.1 101.25 63.15 97.9 61.4 96.25 60.55 95.4 60.55 79.8 60.8 M147.8 61.05 L145.35 66.75 142.5 66.2 133.7 76.4 133.55 76.3 129.7 73.1 129.4 69.7 Q131.5 66.45 133.8 64.1 137.4 60.35 141.5 58.75 L142.8 59.25 147.8 61.05 M72.95 74.3 L72.0 71.9 71.7 70.15 73.3 69.45 76.0 69.5 76.05 69.5 80.25 64.5 87.85 67.3 90.4 67.75 Q92.9 65.75 95.75 64.6 102.65 63.05 106.0 65.0 L105.9 65.2 96.95 71.45 87.65 85.4 88.05 87.8 85.2 85.0 87.95 76.6 80.8 77.4 75.9 74.35 72.95 74.3 M80.45 54.15 L83.1 53.05 80.45 54.15 M102.6 44.0 L102.65 44.0 104.55 45.95 105.3 46.15 108.75 37.95 114.35 34.0 118.5 31.9 112.35 30.2 107.3 26.45 Q106.45 32.6 101.6 37.35 L90.8 41.95 97.05 42.3 97.1 42.3 99.4 43.0 101.0 43.5 102.6 44.0 M114.05 60.45 L115.1 59.4 116.1 60.05 Q120.55 62.75 122.55 62.3 129.5 54.8 137.45 55.4 L129.45 64.6 123.7 65.25 122.65 64.85 113.25 61.25 114.05 60.45 M78.75 69.6 L76.05 69.5 78.75 69.6" fill="#fffff7" fill-rule="evenodd" stroke="none"/>
    <path d="M146.05 51.85 L147.95 60.0 147.8 61.05 142.8 59.25 146.05 51.85 M137.1 86.45 L136.45 90.55 141.05 96.1 152.25 96.35 148.7 99.7 129.6 99.1 128.8 99.5 137.1 86.45 M90.5 102.5 L85.75 100.35 73.6 97.65 73.9 97.5 82.4 93.1 82.65 92.95 90.5 102.5 M80.25 64.5 L81.4 63.15 82.1 62.4 82.1 62.35 79.8 60.8 95.4 60.55 97.9 61.4 101.25 63.15 101.55 63.1 102.9 63.0 103.45 62.95 103.8 61.95 103.8 61.85 105.75 59.35 106.2 59.65 106.2 60.7 106.2 59.65 105.75 59.35 106.55 58.2 107.35 57.85 107.4 57.8 107.25 55.25 106.65 55.2 106.45 54.55 106.3 54.2 105.85 52.8 106.3 54.2 103.5 53.05 103.45 53.05 103.45 53.15 89.35 52.4 89.4 51.9 104.95 50.15 105.85 52.8 111.2 45.9 131.8 41.4 143.1 45.2 142.55 45.9 137.0 45.45 126.6 44.7 126.2 44.65 125.65 44.65 120.85 46.55 120.55 46.7 118.85 47.4 113.9 49.4 112.6 53.65 112.2 54.25 111.3 55.5 107.25 55.25 111.3 55.5 112.2 54.25 112.35 58.3 113.65 60.0 114.05 60.45 113.25 61.25 112.35 62.15 113.25 61.25 122.65 64.85 113.15 66.2 110.0 63.5 106.15 65.1 106.0 65.0 Q102.65 63.05 95.75 64.6 92.9 65.75 90.4 67.75 L87.85 67.3 80.25 64.5 M99.4 43.0 L97.1 42.3 97.05 42.3 90.8 41.95 101.6 37.35 Q106.45 32.6 107.3 26.45 L112.35 30.2 118.5 31.9 114.35 34.0 108.75 37.95 105.3 46.15 104.55 45.95 102.65 44.0 102.6 44.0 101.9 43.15 100.2 43.25 99.4 43.0 M100.95 42.05 L101.9 43.15 100.95 42.05 M95.75 64.6 Q98.35 63.5 101.25 63.15 98.35 63.5 95.75 64.6 M84.5 64.0 L82.1 62.35 84.5 64.0 M135.4 96.2 L129.6 99.1 135.4 96.2" fill="#b4daba" fill-rule="evenodd" stroke="none"/>
    <path d="M146.95 34.8 L147.4 37.4 145.3 48.55 146.05 51.7 146.05 51.85 142.8 59.25 141.5 58.75 Q137.4 60.35 133.8 64.1 131.5 66.45 129.4 69.7 L129.7 73.1 133.55 76.3 133.45 76.7 133.7 76.4 142.5 66.2 145.35 66.75 137.9 81.25 137.1 86.45 128.8 99.5 122.45 102.65 117.95 107.15 116.35 110.15 113.0 110.85 Q107.6 111.4 100.7 109.35 L93.15 103.7 90.55 102.55 90.5 102.5 82.65 92.95 82.25 92.45 80.25 85.0 78.2 83.75 75.8 78.5 74.1 77.35 72.95 74.3 75.9 74.35 80.8 77.4 87.95 76.6 85.2 85.0 88.05 87.8 87.65 85.4 96.95 71.45 105.9 65.2 106.15 65.1 110.0 63.5 113.15 66.2 122.65 64.85 123.7 65.25 129.45 64.6 137.45 55.4 140.25 54.95 140.25 51.6 140.25 50.7 139.05 48.8 139.0 48.7 137.0 45.45 142.55 45.9 143.1 45.2 144.45 43.4 143.4 39.8 141.95 39.25 142.7 36.5 Q144.85 35.25 146.95 34.8 M111.75 69.25 L108.75 68.15 108.7 68.15 105.0 67.6 101.8 70.8 102.4 69.6 98.2 75.5 94.0 82.0 93.0 89.8 97.0 92.95 99.1 94.05 100.8 94.6 108.2 94.4 112.95 94.7 114.6 94.75 117.0 94.35 Q118.85 93.7 120.8 93.4 122.4 90.5 123.05 87.4 123.95 83.25 122.1 79.35 L120.65 76.7 Q118.55 73.35 115.25 71.15 113.55 70.1 111.8 69.3 L111.75 69.25 M129.85 75.2 L129.7 73.1 129.85 75.2" fill="#f4ffdb" fill-rule="evenodd" stroke="none"/>
    <path d="M126.55 45.0 L126.6 44.7 137.0 45.45 139.0 48.7 139.05 48.8 140.25 50.7 140.25 51.6 134.4 51.8 Q132.95 51.9 131.75 52.7 125.8 56.65 121.2 55.8 L117.0 54.4 117.0 54.2 Q116.6 50.2 118.85 47.4 L120.55 46.7 120.8 47.3 Q120.75 46.9 120.85 46.55 L125.65 44.65 126.2 44.65 126.55 45.0 M106.3 54.2 L106.45 54.55 Q105.35 55.8 103.2 55.75 L89.2 55.6 89.35 52.4 103.45 53.15 103.5 53.05 106.3 54.2 M111.75 69.25 L111.8 69.3 Q113.55 70.1 115.25 71.15 118.55 73.35 120.65 76.7 L122.1 79.35 Q123.95 83.25 123.05 87.4 122.4 90.5 120.8 93.4 118.85 93.7 117.0 94.35 L114.6 94.75 112.95 94.7 116.8 88.8 Q117.65 85.5 116.8 81.4 114.6 77.65 110.4 75.4 L109.0 77.4 111.2 88.6 105.2 91.0 101.2 86.8 104.8 87.0 105.8 76.4 103.8 76.6 104.8 72.6 111.75 69.25" fill="#4a9756" fill-rule="evenodd" stroke="none"/>
    <path d="M104.95 58.9 L104.3 58.55 Q100.75 57.7 97.2 57.4 92.15 56.9 87.2 57.5 85.7 57.3 84.2 57.5 L82.55 55.5 83.65 52.85 84.25 52.6 85.3 52.15 86.2 52.25 89.35 52.4 89.2 55.6 103.2 55.75 Q105.35 55.8 106.45 54.55 L106.65 55.2 107.25 55.25 107.4 57.8 107.35 57.85 106.55 58.2 104.95 58.9 M118.85 47.4 Q116.6 50.2 117.0 54.2 L117.0 54.4 121.2 55.8 Q125.8 56.65 131.75 52.7 132.95 51.9 134.4 51.8 L140.25 51.6 140.25 54.95 137.45 55.4 Q129.5 54.8 122.55 62.3 120.55 62.75 116.1 60.05 L115.1 59.4 114.05 60.45 113.65 60.0 112.35 58.3 112.2 54.25 112.6 53.65 113.9 49.4 118.85 47.4 M112.95 94.7 L108.2 94.4 100.8 94.6 99.1 94.05 97.0 92.95 93.0 89.8 94.0 82.0 98.2 75.5 102.4 69.6 101.8 70.8 105.0 67.6 108.7 68.15 108.75 68.15 111.75 69.25 104.8 72.6 103.8 76.6 105.8 76.4 104.8 87.0 101.2 86.8 105.2 91.0 111.2 88.6 109.0 77.4 110.4 75.4 Q114.6 77.65 116.8 81.4 117.65 85.5 116.8 88.8 L112.95 94.7" fill="#83c28c" fill-rule="evenodd" stroke="none"/>
    <path d="M147.95 60.0 L148.25 61.25 147.8 61.05 147.95 60.0 M90.55 102.55 L90.5 102.5 M73.6 97.65 L73.55 97.65 73.3 97.6 M82.4 93.1 L82.25 92.45 M76.0 69.5 L76.05 69.5 M99.4 43.0 L100.2 43.25 101.0 43.5 M101.9 43.15 L100.95 42.05 M102.6 44.0 L101.9 43.15" fill="none" stroke="#000000" stroke-linecap="round" stroke-linejoin="round" stroke-opacity="0.36078432" stroke-width="1.0"/>
    <path d="M79.8 60.8 L79.75 60.8 78.35 58.75 80.45 54.15 78.35 54.95 75.8 50.25 78.8 44.65 76.25 40.75 76.65 27.25 79.3 24.15 80.95 22.4 81.75 21.7 84.75 19.2 Q90.15 14.65 91.65 13.65 L91.85 13.6 92.0 13.5 107.1 7.7 118.5 7.75 Q133.75 12.3 141.05 16.95 L141.7 18.1 Q143.65 19.3 142.95 20.35 L144.45 20.0 146.95 34.8 147.4 37.4 145.3 48.55 146.05 51.7 146.05 51.85 147.95 60.0 M147.8 61.05 L145.35 66.75 137.9 81.25 137.1 86.45 136.45 90.55 141.05 96.1 152.25 96.35 148.7 99.7 129.6 99.1 128.8 99.5 122.45 102.65 117.95 107.15 116.35 110.15 113.0 110.85 Q107.6 111.4 100.7 109.35 L93.15 103.7 90.55 102.55 90.5 102.5 85.75 100.35 73.6 97.65 73.9 97.5 82.4 93.1 82.65 92.95 90.5 102.5 M82.25 92.45 L80.25 85.0 78.2 83.75 75.8 78.5 74.1 77.35 72.95 74.3 72.0 71.9 71.7 70.15 73.3 69.45 76.0 69.5 76.05 69.5 80.25 64.5 87.85 67.3 90.4 67.75 Q92.9 65.75 95.75 64.6 102.65 63.05 106.0 65.0 L105.9 65.2 96.95 71.45 87.65 85.4 88.05 87.8 85.2 85.0 87.95 76.6 80.8 77.4 75.9 74.35 72.95 74.3 M81.4 63.15 L82.1 62.4 82.1 62.35 79.8 60.8 M101.25 63.15 L101.55 63.1 102.9 63.0 103.45 62.95 103.8 61.95 103.8 61.85 105.75 59.35 106.2 59.65 106.2 60.7 M83.1 53.05 L80.45 54.15 M140.25 51.6 L140.25 50.7 139.05 48.8 139.0 48.7 137.0 45.45 142.55 45.9 143.1 45.2 131.8 41.4 111.2 45.9 105.85 52.8 104.95 50.15 89.4 51.9 86.2 52.25 85.3 52.15 84.25 52.6 83.1 53.05 M146.95 34.8 Q144.85 35.25 142.7 36.5 L141.95 39.25 143.4 39.8 144.45 43.4 143.1 45.2 M107.25 55.25 L111.3 55.5 112.2 54.25 112.35 58.3 113.65 60.0 114.05 60.45 113.25 61.25 122.65 64.85 123.7 65.25 129.45 64.6 137.45 55.4 140.25 54.95 140.25 51.6 M102.6 44.0 L102.65 44.0 104.55 45.95 105.3 46.15 108.75 37.95 114.35 34.0 118.5 31.9 112.35 30.2 107.3 26.45 Q106.45 32.6 101.6 37.35 L90.8 41.95 97.05 42.3 97.1 42.3 99.4 43.0 101.0 43.5 102.6 44.0 M106.55 58.2 L107.35 57.85 107.4 57.8 107.25 55.25 M106.55 58.2 L105.75 59.35 M106.15 65.1 L105.9 65.2 M106.15 65.1 L106.0 65.0 M112.95 94.7 L108.2 94.4 100.8 94.6 99.1 94.05 97.0 92.95 93.0 89.8 94.0 82.0 98.2 75.5 102.4 69.6 101.8 70.8 105.0 67.6 108.7 68.15 108.75 68.15 111.75 69.25 111.8 69.3 Q113.55 70.1 115.25 71.15 118.55 73.35 120.65 76.7 L122.1 79.35 Q123.95 83.25 123.05 87.4 122.4 90.5 120.8 93.4 118.85 93.7 117.0 94.35 L114.6 94.75 112.95 94.7 M122.65 64.85 L113.15 66.2 110.0 63.5 106.15 65.1 M112.35 62.15 L113.25 61.25 M82.1 62.35 L84.5 64.0 M101.25 63.15 Q98.35 63.5 95.75 64.6 M82.25 92.45 L82.65 92.95 M147.8 61.05 L142.8 59.25 141.5 58.75 Q137.4 60.35 133.8 64.1 131.5 66.45 129.4 69.7 L129.7 73.1 133.55 76.3 133.45 76.7 133.7 76.4 142.5 66.2 145.35 66.75 M146.05 51.85 L142.8 59.25 M129.7 73.1 L129.85 75.2 M76.05 69.5 L78.75 69.6 M128.8 99.5 L137.1 86.45 M129.6 99.1 L135.4 96.2" fill="none" stroke="#5a924b" stroke-linecap="round" stroke-linejoin="round" stroke-opacity="0.36078432" stroke-width="2.0"/>
    <path d="M105.75 59.35 L104.95 58.9 104.3 58.55 Q100.75 57.7 97.2 57.4 92.15 56.9 87.2 57.5 L84.5 57.85 84.2 57.5 82.55 55.5 83.65 52.85 83.1 53.05 M126.55 45.0 L126.2 44.65 125.65 44.65 120.85 46.55 Q120.75 46.9 120.8 47.3 M120.55 46.7 L118.85 47.4 113.9 49.4 112.6 53.65 112.2 54.25 M137.0 45.45 L126.6 44.7 126.2 44.65 M105.85 52.8 L106.3 54.2 106.45 54.55 106.65 55.2 107.25 55.25 M120.55 46.7 L120.85 46.55 M114.05 60.45 L115.1 59.4 116.1 60.05 Q120.55 62.75 122.55 62.3 129.5 54.8 137.45 55.4 M103.5 53.05 L103.45 53.15 89.35 52.4 86.2 52.25 M103.45 53.05 L103.5 53.05 106.3 54.2 M104.95 58.9 L106.55 58.2 M84.25 52.6 L83.65 52.85" fill="none" stroke="#5a924b" stroke-linecap="round" stroke-linejoin="round" stroke-opacity="0.36078432" stroke-width="1.0"/>
  </g>
</svg>
