<?xml version="1.0" encoding="UTF-8" standalone="no"?>
<svg xmlns:xlink="http://www.w3.org/1999/xlink" height="179.95px" width="187.75px" xmlns="http://www.w3.org/2000/svg">
  <g transform="matrix(1.0, 0.0, 0.0, 1.0, -130.25, -118.8)">
    <path d="M191.1 173.25 L186.45 184.1 Q197.45 167.4 212.1 156.15 225.95 143.35 239.8 135.4 228.9 147.9 215.95 178.65 255.05 137.15 291.35 129.7 299.75 122.4 311.2 120.3 279.5 141.65 261.8 168.55 251.25 187.5 247.8 208.95 247.4 217.2 248.5 223.75 243.1 210.25 237.7 210.55 228.3 223.9 216.35 226.7 219.9 218.15 225.3 211.3 227.9 201.6 264.85 154.6 224.85 187.7 209.75 218.3 L203.15 229.95 Q184.6 237.75 174.8 219.05 187.3 197.1 174.8 197.3 162.25 208.95 147.35 213.65 166.6 188.2 191.1 173.25" fill="#ff9900" fill-rule="evenodd" stroke="none"/>
    <path d="M239.8 135.4 Q247.3 131.05 254.8 128.15 264.75 124.35 273.9 122.1 289.3 118.35 302.4 119.2 294.1 121.05 291.35 129.7 255.05 137.15 215.95 178.65 228.9 147.9 239.8 135.4 M311.2 120.3 Q314.55 120.95 317.75 121.95 307.05 144.9 302.2 175.55 299.65 196.0 300.45 217.6 L294.4 202.75 Q288.6 229.15 268.0 240.8 255.2 235.35 248.5 223.75 247.4 217.2 247.8 208.95 251.25 187.5 261.8 168.55 279.5 141.65 311.2 120.3 M225.3 211.3 Q219.2 216.5 214.5 222.35 L203.15 229.95 209.75 218.3 Q224.85 187.7 264.85 154.6 227.9 201.6 225.3 211.3" fill="#ffcc00" fill-rule="evenodd" stroke="none"/>
    <path d="M301.85 237.7 L302.2 240.8 Q301.0 255.55 292.85 263.35 267.25 272.65 241.75 267.3 224.3 263.8 210.5 248.55 212.25 236.5 216.35 226.7 228.3 223.9 237.7 210.55 243.1 210.25 248.5 223.75 253.0 250.5 282.75 248.6 L301.85 237.7 M195.35 243.65 Q164.75 233.0 130.5 246.25 133.1 231.9 144.5 217.5 L147.35 213.65 Q162.25 208.95 174.8 197.3 187.3 197.1 174.8 219.05 184.6 237.75 203.15 229.95 L195.35 243.65" fill="#990000" fill-rule="evenodd" stroke="none"/>
    <path d="M300.45 217.6 Q300.8 227.5 301.85 237.7 L282.75 248.6 Q253.0 250.5 248.5 223.75 255.2 235.35 268.0 240.8 288.6 229.15 294.4 202.75 L300.45 217.6 M214.5 222.35 Q205.8 233.2 202.0 246.25 L195.35 243.65 203.15 229.95 214.5 222.35" fill="#cc3300" fill-rule="evenodd" stroke="none"/>
    <path d="M144.5 217.5 L147.35 213.65 Q166.6 188.2 191.1 173.25" fill="none" stroke="#000000" stroke-linecap="round" stroke-linejoin="round" stroke-opacity="0.45882353" stroke-width="0.5"/>
    <path d="M191.1 173.25 L186.45 184.1 Q197.45 167.4 212.1 156.15 225.95 143.35 239.8 135.4 247.3 131.05 254.8 128.15 264.75 124.35 273.9 122.1 289.3 118.35 302.4 119.2 294.1 121.05 291.35 129.7 299.75 122.4 311.2 120.3 314.55 120.95 317.75 121.95 307.05 144.9 302.2 175.55 299.65 196.0 300.45 217.6 300.8 227.5 301.85 237.7 L302.2 240.8 Q301.0 255.55 292.85 263.35 267.25 272.65 241.75 267.3 224.3 263.8 210.5 248.55 212.25 236.5 216.35 226.7 219.9 218.15 225.3 211.3 219.2 216.5 214.5 222.35 205.8 233.2 202.0 246.25 L195.35 243.65 Q164.75 233.0 130.5 246.25 133.1 231.9 144.5 217.5" fill="none" stroke="#000000" stroke-linecap="round" stroke-linejoin="round" stroke-opacity="0.45882353" stroke-width="0.5"/>
    <path d="M276.35 275.0 L273.3 298.75 260.8 278.35 237.25 282.8 252.75 264.6 241.3 243.65 263.4 252.75 279.8 235.35 278.0 259.15 299.6 269.35 276.35 275.0" fill="#ffffff" fill-opacity="0.50980395" fill-rule="evenodd" stroke="none"/>
    <path d="M282.7 162.3 L272.05 176.35 271.6 158.75 254.95 152.95 271.55 147.0 271.95 129.45 282.65 143.4 299.5 138.3 289.6 152.8 299.6 167.25 282.7 162.3" fill="#ffffff" fill-opacity="0.50980395" fill-rule="evenodd" stroke="none"/>
    <path d="M192.45 207.2 L175.1 229.95 174.4 201.4 147.35 191.9 174.25 182.35 174.9 153.85 192.3 176.5 219.7 168.25 203.6 191.8 219.85 215.25 192.45 207.2" fill="#ffffff" fill-opacity="0.50980395" fill-rule="evenodd" stroke="none"/>
  </g>
</svg>
