<?xml version="1.0" encoding="UTF-8" standalone="no"?>
<svg xmlns:xlink="http://www.w3.org/1999/xlink" height="35.05px" width="180.2px" xmlns="http://www.w3.org/2000/svg">
  <g transform="matrix(1.0, 0.0, 0.0, 1.0, 92.85, 19.4)">
    <path d="M-71.9 -16.5 L-72.0 -16.65 Q-75.45 -21.2 -79.95 -17.55 L-79.95 -17.35 Q-81.4 -3.9 -80.6 9.85 -71.25 16.75 -71.9 -16.5" fill="#ca9a40" fill-rule="evenodd" stroke="none"/>
    <path d="M-80.6 9.85 L-80.6 10.45 -80.5 11.4 -79.6 12.7 Q-76.4 16.65 -72.35 13.85 -70.55 -0.2 -71.15 -15.3 L-71.9 -16.5 Q-71.25 16.75 -80.6 9.85" fill="#987229" fill-rule="evenodd" stroke="none"/>
    <path d="M-71.9 -16.5 L-72.0 -16.65 Q-75.45 -21.2 -79.95 -17.55 L-79.95 -17.35 Q-81.4 -3.9 -80.6 9.85 L-80.6 10.45 -80.5 11.4 -79.6 12.7 Q-76.4 16.65 -72.35 13.85 -70.55 -0.2 -71.15 -15.3 L-71.9 -16.5 Z" fill="none" stroke="#232312" stroke-linecap="round" stroke-linejoin="round" stroke-opacity="0.5019608" stroke-width="0.05"/>
    <path d="M-92.55 10.5 L-92.55 11.1 -92.45 12.05 -91.55 13.35 Q-88.35 17.3 -84.3 14.5 -82.5 0.45 -83.1 -14.65 L-83.85 -15.85 Q-83.2 17.4 -92.55 10.5" fill="#987229" fill-rule="evenodd" stroke="none"/>
    <path d="M-83.85 -15.85 L-83.95 -16.0 Q-87.4 -20.55 -91.9 -16.9 L-91.9 -16.7 Q-93.35 -3.25 -92.55 10.5 -83.2 17.4 -83.85 -15.85" fill="#ca9a40" fill-rule="evenodd" stroke="none"/>
    <path d="M-83.85 -15.85 L-83.95 -16.0 Q-87.4 -20.55 -91.9 -16.9 L-91.9 -16.7 Q-93.35 -3.25 -92.55 10.5 L-92.55 11.1 -92.45 12.05 -91.55 13.35 Q-88.35 17.3 -84.3 14.5 -82.5 0.45 -83.1 -14.65 L-83.85 -15.85 Z" fill="none" stroke="#232312" stroke-linecap="round" stroke-linejoin="round" stroke-opacity="0.5019608" stroke-width="0.05"/>
    <path d="M87.05 9.6 Q87.85 -4.15 86.4 -17.6 L86.35 -17.8 Q81.9 -21.45 78.45 -16.9 L78.35 -16.75 Q77.7 16.5 87.05 9.6" fill="#ca9a40" fill-rule="evenodd" stroke="none"/>
    <path d="M87.05 9.6 Q77.7 16.5 78.35 -16.75 L77.55 -15.55 Q77.0 -0.45 78.75 13.6 82.85 16.4 86.0 12.45 L86.95 11.15 87.0 10.2 87.05 9.6" fill="#987229" fill-rule="evenodd" stroke="none"/>
    <path d="M78.35 -16.75 L78.45 -16.9 Q81.9 -21.45 86.35 -17.8 L86.4 -17.6 Q87.85 -4.15 87.05 9.6 L87.0 10.2 86.95 11.15 86.0 12.45 Q82.85 16.4 78.75 13.6 77.0 -0.45 77.55 -15.55 L78.35 -16.75 Z" fill="none" stroke="#232312" stroke-linecap="round" stroke-linejoin="round" stroke-opacity="0.5019608" stroke-width="0.05"/>
    <path d="M65.5 -16.75 Q64.85 16.5 74.2 9.6 75.0 -4.15 73.55 -17.6 L73.5 -17.8 Q69.05 -21.45 65.6 -16.9 L65.5 -16.75" fill="#ca9a40" fill-rule="evenodd" stroke="none"/>
    <path d="M65.5 -16.75 L64.7 -15.55 Q64.15 -0.45 65.9 13.6 70.0 16.4 73.15 12.45 L74.1 11.15 74.15 10.2 74.2 9.6 Q64.85 16.5 65.5 -16.75" fill="#987229" fill-rule="evenodd" stroke="none"/>
    <path d="M74.2 9.6 L74.15 10.2 74.1 11.15 73.15 12.45 Q70.0 16.4 65.9 13.6 64.15 -0.45 64.7 -15.55 L65.5 -16.75 65.6 -16.9 Q69.05 -21.45 73.5 -17.8 L73.55 -17.6 Q75.0 -4.15 74.2 9.6 Z" fill="none" stroke="#232312" stroke-linecap="round" stroke-linejoin="round" stroke-opacity="0.5019608" stroke-width="0.05"/>
  </g>
</svg>
