<?xml version="1.0" encoding="UTF-8" standalone="no"?>
<svg xmlns:xlink="http://www.w3.org/1999/xlink" height="99.0px" width="86.95px" xmlns="http://www.w3.org/2000/svg">
  <g transform="matrix(1.0, 0.0, 0.0, 1.0, -231.5, -150.95)">
    <path d="M279.55 213.8 L283.9 206.85 Q298.0 199.15 305.25 186.15 L306.1 184.55 306.2 184.3 Q308.05 178.3 304.5 174.4 314.2 161.0 314.05 151.6 L318.45 150.95 309.95 184.75 Q304.55 193.35 298.65 201.0 L295.0 201.55 296.1 204.2 293.7 207.1 Q289.5 207.2 285.7 209.15 282.5 210.8 279.55 213.8 M268.65 221.9 L275.15 219.3 273.45 222.0 272.15 224.3 272.0 224.6 268.65 221.9" fill="#e1edee" fill-rule="evenodd" stroke="none"/>
    <path d="M314.05 151.6 Q314.2 161.0 304.5 174.4 308.05 178.3 306.2 184.3 L306.1 184.55 305.25 186.15 Q298.0 199.15 283.9 206.85 L279.55 213.8 Q277.25 216.1 275.15 219.3 L268.65 221.9 265.05 218.8 Q268.0 214.7 282.95 197.0 284.4 196.6 285.55 195.45 L285.6 195.4 Q287.15 193.9 287.4 191.75 L287.4 191.1 287.35 190.35 Q287.25 189.3 286.8 188.45 L285.6 186.75 Q283.85 185.0 281.3 185.0 279.4 185.0 277.95 185.95 L274.95 183.3 293.2 163.8 293.25 163.75 293.3 163.8 295.45 165.9 Q294.95 166.75 294.95 167.85 294.95 169.4 295.9 170.5 L296.1 170.7 Q297.3 171.9 299.0 171.9 300.3 171.9 301.3 171.2 L301.85 170.7 Q303.05 169.55 303.05 167.85 303.05 166.9 302.65 166.1 L301.85 164.95 Q300.7 163.8 299.0 163.8 L297.95 163.95 Q297.3 164.1 296.8 164.45 L294.5 162.45 303.2 153.2 314.05 151.6 M293.2 163.8 L293.3 163.8 293.2 163.8 M256.3 203.2 L272.85 185.5 272.9 185.5 273.05 185.3 273.1 185.35 272.9 185.5 273.1 185.35 275.9 188.15 Q275.2 189.45 275.2 191.1 275.15 193.45 276.6 195.1 L276.95 195.4 Q278.65 197.15 281.15 197.2 L263.15 217.05 Q257.15 211.35 253.8 206.05 L253.75 206.0 253.8 205.95 254.0 205.75 256.3 203.2" fill="#b0d0d5" fill-rule="evenodd" stroke="none"/>
    <path d="M301.3 171.2 Q300.3 171.9 299.0 171.9 297.3 171.9 296.1 170.7 L295.9 170.5 Q294.95 169.4 294.95 167.85 294.95 166.75 295.45 165.9 L293.3 163.8 294.45 163.75 294.6 163.85 296.55 165.45 Q296.1 166.3 296.1 167.3 296.1 168.85 297.05 169.95 L297.25 170.15 Q298.45 171.35 300.15 171.35 L301.3 171.2 M285.55 195.45 Q284.4 196.6 282.95 197.0 268.0 214.7 265.05 218.8 L263.15 217.05 281.15 197.2 Q278.65 197.15 276.95 195.4 L276.6 195.1 Q275.15 193.45 275.2 191.1 275.2 189.45 275.9 188.15 L273.1 185.35 274.2 184.75 277.1 187.2 Q276.4 188.5 276.4 190.15 276.35 192.5 277.8 194.15 L278.15 194.45 Q279.75 196.1 282.0 196.25 L282.5 196.25 283.65 196.15 285.55 195.45" fill="#76aeb6" fill-rule="evenodd" stroke="none"/>
    <path d="M265.05 218.8 L268.65 221.9 272.0 224.6 272.15 224.3 Q273.65 229.95 272.7 234.4 269.2 228.3 264.6 223.4 260.95 219.5 256.6 216.35 L253.15 214.05 Q249.45 211.75 245.35 209.95 L241.75 202.55 241.8 202.55 246.85 208.85 253.65 212.0 Q254.05 209.5 253.8 206.05 257.15 211.35 263.15 217.05 L265.05 218.8 M253.55 194.4 L252.35 201.85 252.7 201.95 250.55 203.4 253.55 194.4 M247.05 204.6 L245.35 198.5 249.45 205.6 247.05 204.6 M280.85 228.9 L280.9 228.95 277.3 230.2 279.6 222.8 280.85 228.9 M273.5 235.8 L279.35 234.1 280.25 234.3 286.0 235.45 274.3 237.35 273.5 235.8" fill="#663333" fill-rule="evenodd" stroke="none"/>
    <path d="M245.35 198.5 L245.25 198.15 248.85 202.2 253.55 194.4 250.55 203.4 252.7 201.95 256.3 203.2 254.0 205.75 253.8 205.95 253.75 206.0 253.8 206.05 Q254.05 209.5 253.65 212.0 L246.85 208.85 241.8 202.55 247.2 205.05 247.05 204.6 249.45 205.6 245.35 198.5 M250.75 222.35 Q254.8 226.5 254.8 233.7 L253.25 235.35 Q252.2 228.65 247.6 225.5 L250.75 222.35 M279.6 222.8 L277.3 230.2 280.9 228.95 280.85 228.9 288.3 226.9 279.1 234.05 279.35 234.1 273.5 235.8 272.7 234.4 Q273.65 229.95 272.15 224.3 L273.45 222.0 277.4 225.4 279.05 220.35 279.6 222.8 M243.0 237.1 L246.3 242.65 244.5 244.55 Q242.4 239.0 236.65 236.7 L238.65 234.65 243.0 237.1 M240.2 249.1 L239.8 249.5 Q230.0 251.85 231.8 241.65 L232.75 240.7 Q239.4 242.3 240.2 249.1" fill="#954a4a" fill-rule="evenodd" stroke="none"/>
    <path d="M254.8 233.7 Q254.8 226.5 250.75 222.35 L256.6 216.35 Q260.95 219.5 264.6 223.4 L254.8 233.7" fill="#472323" fill-rule="evenodd" stroke="none"/>
    <path d="M247.6 225.5 Q252.2 228.65 253.25 235.35 L250.25 238.5 Q248.4 232.75 242.45 230.8 L247.6 225.5 M244.5 244.55 L240.2 249.1 Q239.4 242.3 232.75 240.7 L236.65 236.7 Q242.4 239.0 244.5 244.55" fill="#e8ddc6" fill-rule="evenodd" stroke="none"/>
    <path d="M240.45 232.8 L242.45 230.8 Q248.4 232.75 250.25 238.5 L246.3 242.65 243.0 237.1 240.45 232.8" fill="#dac8a3" fill-rule="evenodd" stroke="none"/>
    <path d="M238.65 234.65 L240.45 232.8 243.0 237.1 238.65 234.65" fill="#f5f1e9" fill-rule="evenodd" stroke="none"/>
    <path d="M296.1 204.2 L295.0 201.55 298.65 201.0 M293.3 163.8 L293.2 163.8 M274.95 183.3 L277.95 185.95 M265.05 218.8 L268.65 221.9 272.0 224.6 M293.3 163.8 L294.45 163.75 294.6 163.85 296.55 165.45 M245.35 198.5 L245.25 198.15 248.85 202.2 253.55 194.4 252.35 201.85 252.7 201.95 256.3 203.2 M272.85 185.5 L272.9 185.5 273.1 185.35 274.2 184.75 277.1 187.2 M273.05 185.3 L273.1 185.35 M256.6 216.35 L253.15 214.05 Q249.45 211.75 245.35 209.95 L241.75 202.55 241.8 202.55 247.2 205.05 247.05 204.6 245.35 198.5 M253.8 206.05 L253.75 206.0 M254.8 233.7 L264.6 223.4 Q260.95 219.5 256.6 216.35 L250.75 222.35 247.6 225.5 242.45 230.8 240.45 232.8 238.65 234.65 236.65 236.7 232.75 240.7 231.8 241.65 Q230.0 251.85 239.8 249.5 L240.2 249.1 244.5 244.55 246.3 242.65 250.25 238.5 253.25 235.35 254.8 233.7 M263.15 217.05 L265.05 218.8 M279.6 222.8 L279.05 220.35 277.4 225.4 273.45 222.0 M272.7 234.4 L273.5 235.8 274.3 237.35 286.0 235.45 280.25 234.3 M279.35 234.1 L279.1 234.05 288.3 226.9 280.85 228.9 279.6 222.8 M253.8 206.05 Q257.15 211.35 263.15 217.05 M272.7 234.4 Q269.2 228.3 264.6 223.4" fill="none" stroke="#000000" stroke-linecap="round" stroke-linejoin="round" stroke-opacity="0.6" stroke-width="0.05"/>
    <path d="M279.55 213.8 Q282.5 210.8 285.7 209.15 289.5 207.2 293.7 207.1 L296.1 204.2 M298.65 201.0 Q304.55 193.35 309.95 184.75 L318.45 150.95 314.05 151.6 303.2 153.2 294.5 162.45 296.8 164.45 Q297.3 164.1 297.95 163.95 L299.0 163.8 Q300.7 163.8 301.85 164.95 L302.65 166.1 Q303.05 166.9 303.05 167.85 303.05 169.55 301.85 170.7 L301.3 171.2 300.15 171.35 Q298.45 171.35 297.25 170.15 L297.05 169.95 Q296.1 168.85 296.1 167.3 296.1 166.3 296.55 165.45 M293.2 163.8 L274.95 183.3 M277.95 185.95 Q279.4 185.0 281.3 185.0 283.85 185.0 285.6 186.75 L286.8 188.45 Q287.25 189.3 287.35 190.35 L287.4 191.1 287.4 191.75 Q287.15 193.9 285.6 195.4 L285.55 195.45 283.65 196.15 282.5 196.25 282.0 196.25 Q279.75 196.1 278.15 194.45 L277.8 194.15 Q276.35 192.5 276.4 190.15 276.4 188.5 277.1 187.2 M275.15 219.3 Q277.25 216.1 279.55 213.8 M293.2 163.8 L293.25 163.75 293.3 163.8 M256.3 203.2 L272.85 185.5 M272.9 185.5 L273.05 185.3 M253.75 206.0 L253.8 205.95 M254.0 205.75 L256.3 203.2 M273.45 222.0 L272.15 224.3 272.0 224.6 M275.15 219.3 L273.45 222.0" fill="none" stroke="#000000" stroke-linecap="round" stroke-linejoin="round" stroke-opacity="0.6" stroke-width="0.05"/>
  </g>
</svg>
