<?xml version="1.0" encoding="UTF-8" standalone="no"?>
<svg xmlns:xlink="http://www.w3.org/1999/xlink" height="89.05px" width="93.4px" xmlns="http://www.w3.org/2000/svg">
  <g transform="matrix(1.0, 0.0, 0.0, 1.0, -228.25, -155.95)">
    <path d="M256.8 220.75 L262.1 214.6 260.45 211.55 260.4 211.5 260.45 211.45 287.4 187.65 298.3 171.1 303.6 170.4 303.05 168.0 313.7 156.3 321.35 156.75 Q293.8 184.55 273.15 207.2 L271.5 206.15 272.05 208.45 264.45 217.05 256.8 220.75" fill="#c5e3ed" fill-rule="evenodd" stroke="none"/>
    <path d="M313.7 156.3 L303.05 168.0 303.6 170.4 298.3 171.1 287.4 187.65 260.45 211.45 260.4 211.5 260.45 211.55 262.1 214.6 256.8 220.75 254.75 221.8 251.35 218.4 255.6 209.15 Q278.95 187.0 300.75 160.95 L312.8 156.25 313.7 156.3" fill="#aed8e6" fill-rule="evenodd" stroke="none"/>
    <path d="M256.8 220.75 L264.45 217.05 272.05 208.45 271.5 206.15 273.15 207.2 Q293.8 184.55 321.35 156.75 L313.7 156.3 312.8 156.25 300.75 160.95 Q278.95 187.0 255.6 209.15 L251.35 218.4 254.75 221.8 256.8 220.75 Z" fill="none" stroke="#000000" stroke-linecap="round" stroke-linejoin="round" stroke-opacity="0.6" stroke-width="0.6000000000000001"/>
    <path d="M242.85 201.55 L247.7 196.65 242.65 205.6 242.5 205.85 242.4 206.0 242.5 206.1 242.4 208.45 252.65 217.95 252.5 216.5 257.95 221.85 258.25 223.15 267.4 231.65 267.45 231.85 267.55 231.75 272.2 226.35 276.4 223.6 268.95 232.45 265.4 236.0 Q253.4 221.8 239.2 209.5 L242.85 201.55" fill="#666666" fill-rule="evenodd" stroke="none"/>
    <path d="M242.5 206.1 L252.5 216.5 252.65 217.95 242.4 208.45 242.5 206.1 M257.95 221.85 L266.65 229.95 267.05 229.7 267.2 229.6 272.2 226.35 267.55 231.75 267.45 231.85 267.4 231.65 258.25 223.15 257.95 221.85 M239.2 209.5 L236.9 207.5 242.85 201.55 239.2 209.5" fill="#bbbbbb" fill-rule="evenodd" stroke="none"/>
    <path d="M242.4 206.0 L242.5 206.1 M252.5 216.5 L257.95 221.85" fill="none" stroke="#000000" stroke-linecap="round" stroke-linejoin="round" stroke-opacity="0.6" stroke-width="0.05"/>
    <path d="M242.5 205.85 L242.4 206.0 M266.65 229.95 L267.05 229.7" fill="none" stroke="#000000" stroke-linecap="round" stroke-linejoin="round" stroke-opacity="0.6" stroke-width="0.05"/>
    <path d="M242.85 201.55 L247.7 196.65 242.65 205.6 M242.5 206.1 L252.5 216.5 M257.95 221.85 L266.65 229.95 M267.2 229.6 L272.2 226.35 276.4 223.6 268.95 232.45 265.4 236.0 Q253.4 221.8 239.2 209.5 L236.9 207.5 242.85 201.55" fill="none" stroke="#000000" stroke-linecap="round" stroke-linejoin="round" stroke-opacity="0.6" stroke-width="0.6000000000000001"/>
    <path d="M244.1 225.35 L248.3 228.45 245.0 231.5 242.3 227.3 244.1 225.35 M234.3 234.65 L238.1 231.35 238.7 230.8 241.75 234.95 239.2 238.0 234.3 234.65" fill="#c8401e" fill-rule="evenodd" stroke="none"/>
    <path d="M247.3 221.65 L251.55 225.85 Q249.85 227.05 248.3 228.45 L244.1 225.35 247.3 221.65 M239.2 238.0 L237.45 240.35 236.2 242.15 231.15 237.1 231.9 236.55 234.3 234.65 239.2 238.0 M238.7 230.8 L242.3 227.3 245.0 231.5 242.05 234.6 241.75 234.95 238.7 230.8" fill="#993117" fill-rule="evenodd" stroke="none"/>
    <path d="M251.55 225.85 L247.3 221.65 249.75 218.5 254.8 223.5 251.55 225.85" fill="#782612" fill-rule="evenodd" stroke="none"/>
    <path d="M247.3 221.65 L244.1 225.35 242.3 227.3 238.7 230.8 238.1 231.35 234.3 234.65 231.9 236.55 231.15 237.1 236.2 242.15 237.45 240.35 239.2 238.0 241.75 234.95 242.05 234.6 245.0 231.5 248.3 228.45 Q249.85 227.05 251.55 225.85 L254.8 223.5 249.75 218.5 247.3 221.65 Z" fill="none" stroke="#000000" stroke-linecap="round" stroke-linejoin="round" stroke-opacity="0.6" stroke-width="0.6000000000000001"/>
    <path d="M237.1 243.1 L236.95 243.25 Q235.5 244.65 233.5 244.7 231.45 244.65 230.0 243.25 228.55 241.8 228.55 239.8 228.55 237.75 230.0 236.3 L230.15 236.15 237.1 243.1" fill="#10a942" fill-rule="evenodd" stroke="none"/>
    <path d="M237.1 243.1 L236.95 243.25 Q235.5 244.65 233.5 244.7 231.45 244.65 230.0 243.25 228.55 241.8 228.55 239.8 228.55 237.75 230.0 236.3 L230.15 236.15 237.1 243.1 Z" fill="none" stroke="#000000" stroke-linecap="round" stroke-linejoin="round" stroke-opacity="0.6" stroke-width="0.6000000000000001"/>
    <path d="M232.0 241.1 Q231.5 241.65 230.75 241.65 230.0 241.65 229.45 241.1 228.95 240.6 228.95 239.85 228.95 239.1 229.45 238.55 230.0 238.05 230.75 238.05 231.5 238.05 232.0 238.55 232.55 239.1 232.55 239.85 232.55 240.6 232.0 241.1" fill="#b1f8c8" fill-opacity="0.6" fill-rule="evenodd" stroke="none"/>
  </g>
</svg>
