<?xml version="1.0" encoding="UTF-8" standalone="no"?>
<svg xmlns:xlink="http://www.w3.org/1999/xlink" height="245.6px" width="235.45px" xmlns="http://www.w3.org/2000/svg">
  <g transform="matrix(1.0, 0.0, 0.0, 1.0, -108.5, -53.8)">
    <path d="M202.45 225.15 L206.1 233.55 194.5 225.75 166.8 207.35 Q167.9 206.7 168.3 205.65 L169.0 205.7 Q169.9 205.6 170.35 205.05 170.85 204.45 170.6 203.6 L170.65 203.5 202.45 225.15 M167.95 201.8 L168.0 201.65 168.2 201.8 167.95 201.8" fill="#8c7100" fill-rule="evenodd" stroke="none"/>
    <path d="M164.5 214.75 L165.6 214.9 166.1 215.15 Q166.85 215.7 166.95 216.45 167.15 217.25 166.7 217.95 166.2 218.6 165.4 218.65 164.55 218.75 163.8 218.25 L163.6 218.05 Q163.0 217.5 162.85 216.85 162.65 216.0 163.15 215.4 163.65 214.8 164.5 214.75 M170.65 203.5 L170.6 203.6 Q170.85 204.45 170.35 205.05 169.9 205.6 169.0 205.7 L168.3 205.65 Q167.85 205.55 167.45 205.25 166.7 204.7 166.5 203.9 166.3 203.05 166.75 202.45 167.2 201.95 167.95 201.8 L168.2 201.8 Q169.0 201.7 169.7 202.25 L170.65 203.5 M163.3 205.95 L163.85 206.25 Q164.6 206.75 164.8 207.55 164.95 208.35 164.5 209.0 L164.5 209.05 Q164.0 209.6 163.15 209.75 162.35 209.85 161.6 209.35 160.8 208.75 160.65 207.95 160.45 207.1 160.9 206.45 161.35 205.8 162.25 205.8 L163.3 205.95 M121.1 269.8 Q122.1 270.55 121.7 272.6 121.25 274.65 119.6 276.85 118.0 279.0 116.15 279.95 114.25 280.95 113.2 280.25 112.2 279.5 112.6 277.45 113.05 275.4 114.65 273.25 116.25 271.1 118.15 270.05 120.05 269.05 121.1 269.8 M126.7 280.15 L125.6 280.6 Q124.75 280.65 124.0 280.1 L123.8 280.0 Q123.2 279.45 123.1 278.75 122.9 277.95 123.35 277.35 123.8 276.7 124.7 276.6 L125.25 276.65 125.75 276.8 126.25 277.05 Q127.0 277.55 127.25 278.4 127.4 279.15 126.95 279.8 L126.95 279.85 126.7 280.15" fill="#ffffff" fill-rule="evenodd" stroke="none"/>
    <path d="M182.75 225.15 L173.55 225.9 170.35 223.85 163.25 219.45 160.85 217.95 163.6 218.05 163.8 218.25 Q164.55 218.75 165.4 218.65 166.2 218.6 166.7 217.95 167.15 217.25 166.95 216.45 166.85 215.7 166.1 215.15 L165.6 214.9 164.5 214.75 163.25 212.5 182.75 225.15" fill="#333333" fill-rule="evenodd" stroke="none"/>
    <path d="M154.05 218.45 L156.15 215.1 160.85 217.95 163.25 219.45 159.5 224.95 154.05 218.45" fill="#c0c9dc" fill-rule="evenodd" stroke="none"/>
    <path d="M170.35 223.85 Q166.3 226.55 162.6 232.55 163.3 230.2 159.5 224.95 L163.25 219.45 170.35 223.85" fill="#8e9dbf" fill-rule="evenodd" stroke="none"/>
    <path d="M194.5 225.75 L185.55 226.95 182.75 225.15 163.25 212.5 161.25 211.2 Q164.9 211.8 164.55 209.1 L164.5 209.0 Q164.95 208.35 164.8 207.55 164.6 206.75 163.85 206.25 L163.3 205.95 162.55 204.5 166.8 207.35 194.5 225.75" fill="#666666" fill-rule="evenodd" stroke="none"/>
    <path d="M164.5 209.0 L164.55 209.1 164.5 209.05 164.5 209.0" fill="#cccccc" fill-rule="evenodd" stroke="none"/>
    <path d="M343.95 58.6 Q295.65 64.9 271.4 88.55 247.1 112.2 218.25 156.85 190.15 200.7 201.15 222.1 L152.4 189.35 Q163.85 193.5 175.35 176.2 L217.3 115.15 Q222.3 107.8 220.8 103.75 227.95 107.4 238.05 105.7 257.45 96.65 254.45 77.95 251.5 65.4 235.25 64.5 278.85 54.7 343.95 58.6" fill="url(#gradient0)" fill-rule="evenodd" stroke="none"/>
    <path d="M343.95 58.6 Q278.85 54.7 235.25 64.5 251.5 65.4 254.45 77.95 257.45 96.65 238.05 105.7 227.95 107.4 220.8 103.75 222.3 107.8 217.3 115.15 L175.35 176.2 Q163.85 193.5 152.4 189.35 L144.5 184.15 144.55 184.05 Q154.85 189.0 163.85 180.2 193.4 144.0 207.05 123.4 220.75 102.75 213.9 94.9 233.35 108.45 247.15 91.1 258.65 70.9 217.15 65.05 297.4 46.5 343.95 58.6" fill="url(#gradient1)" fill-rule="evenodd" stroke="none"/>
    <path d="M152.4 189.35 L201.15 222.1 202.45 225.15 170.65 203.5 169.7 202.25 Q169.0 201.7 168.2 201.8 L168.0 201.65 167.95 201.8 Q167.2 201.95 166.75 202.45 166.3 203.05 166.5 203.9 166.7 204.7 167.45 205.25 167.85 205.55 168.3 205.65 167.9 206.7 166.8 207.35 L162.55 204.5 146.95 194.1 135.0 186.2 144.15 183.9 144.5 184.15 152.4 189.35" fill="url(#gradient2)" fill-rule="evenodd" stroke="none"/>
    <path d="M156.15 215.1 L154.4 213.95 152.45 205.45 161.25 211.2 163.25 212.5 164.5 214.75 Q163.65 214.8 163.15 215.4 162.65 216.0 162.85 216.85 163.0 217.5 163.6 218.05 L160.85 217.95 156.15 215.1" fill="url(#gradient3)" fill-rule="evenodd" stroke="none"/>
    <path d="M108.5 299.4 Q108.35 289.75 112.3 274.8 134.75 249.8 154.05 218.45 L159.5 224.95 125.25 276.65 124.7 276.6 Q123.8 276.7 123.35 277.35 122.9 277.95 123.1 278.75 123.2 279.45 123.8 280.0 L124.0 280.1 Q124.75 280.65 125.6 280.6 L126.7 280.15 Q129.35 283.3 129.05 285.75 123.5 291.45 108.5 299.4 M121.1 269.8 Q120.05 269.05 118.15 270.05 116.25 271.1 114.65 273.25 113.05 275.4 112.6 277.45 112.2 279.5 113.2 280.25 114.25 280.95 116.15 279.95 118.0 279.0 119.6 276.85 121.25 274.65 121.7 272.6 122.1 270.55 121.1 269.8" fill="url(#gradient4)" fill-rule="evenodd" stroke="none"/>
    <path d="M162.6 232.55 Q145.0 259.7 132.05 286.9 121.0 295.2 108.5 299.4 123.5 291.45 129.05 285.75 129.35 283.3 126.7 280.15 L126.95 279.85 126.95 279.8 Q127.4 279.15 127.25 278.4 127.0 277.55 126.25 277.05 L125.75 276.8 125.25 276.65 159.5 224.95 Q163.3 230.2 162.6 232.55" fill="url(#gradient5)" fill-rule="evenodd" stroke="none"/>
    <path d="M152.45 205.45 Q150.8 204.3 149.0 203.2 L146.95 194.1 162.55 204.5 163.3 205.95 162.25 205.8 Q161.35 205.8 160.9 206.45 160.45 207.1 160.65 207.95 160.8 208.75 161.6 209.35 162.35 209.85 163.15 209.75 164.0 209.6 164.5 209.05 L164.55 209.1 Q164.9 211.8 161.25 211.2 L152.45 205.45" fill="url(#gradient6)" fill-rule="evenodd" stroke="none"/>
    <path d="M144.55 184.05 L144.5 184.15 144.55 184.05" fill="url(#gradient7)" fill-rule="evenodd" stroke="none"/>
    <path d="M201.15 222.1 Q190.15 200.7 218.25 156.85 247.1 112.2 271.4 88.55 295.65 64.9 343.95 58.6 297.4 46.5 217.15 65.05 258.65 70.9 247.15 91.1 233.35 108.45 213.9 94.9 220.75 102.75 207.05 123.4 193.4 144.0 163.85 180.2 154.85 189.0 144.55 184.05 L144.15 183.9 135.0 186.2 146.95 194.1 149.0 203.2 Q150.8 204.3 152.45 205.45 L161.25 211.2 163.25 212.5 182.75 225.15 173.55 225.9 170.35 223.85 Q166.3 226.55 162.6 232.55 145.0 259.7 132.05 286.9 121.0 295.2 108.5 299.4 108.35 289.75 112.3 274.8 134.75 249.8 154.05 218.45 L156.15 215.1 154.4 213.95 152.45 205.45 M152.4 189.35 L201.15 222.1 202.45 225.15 206.1 233.55 194.5 225.75 185.55 226.95 182.75 225.15 M160.85 217.95 L163.25 219.45 170.35 223.85 M144.5 184.15 L144.15 183.9 M144.5 184.15 L152.4 189.35 M166.8 207.35 L194.5 225.75 M162.55 204.5 L146.95 194.1 M166.8 207.35 L162.55 204.5 M156.15 215.1 L160.85 217.95" fill="none" stroke="#000000" stroke-linecap="round" stroke-linejoin="round" stroke-opacity="0.41960785" stroke-width="0.05"/>
  </g>
  <defs>
    <linearGradient gradientTransform="matrix(0.0276, -0.0367, 0.0414, 0.0296, 219.05, 155.25)" gradientUnits="userSpaceOnUse" id="gradient0" spreadMethod="pad" x1="-819.2" x2="819.2">
      <stop offset="0.0" stop-color="#990000"/>
      <stop offset="1.0" stop-color="#310202"/>
    </linearGradient>
    <linearGradient gradientTransform="matrix(0.0636, -0.0881, 0.049, 0.0354, 240.25, 117.6)" gradientUnits="userSpaceOnUse" id="gradient1" spreadMethod="pad" x1="-819.2" x2="819.2">
      <stop offset="0.0" stop-color="#d5d5d5"/>
      <stop offset="0.5176470588235295" stop-color="#ffffff"/>
      <stop offset="1.0" stop-color="#d9d9d9"/>
    </linearGradient>
    <linearGradient gradientTransform="matrix(-0.035, -0.022, 0.0025, -0.004, 171.05, 205.45)" gradientUnits="userSpaceOnUse" id="gradient2" spreadMethod="pad" x1="-819.2" x2="819.2">
      <stop offset="0.0" stop-color="#ffcc00"/>
      <stop offset="1.0" stop-color="#be9900"/>
    </linearGradient>
    <linearGradient gradientTransform="matrix(0.0053, 0.0038, -0.0023, 0.0031, 160.7, 214.5)" gradientUnits="userSpaceOnUse" id="gradient3" spreadMethod="pad" x1="-819.2" x2="819.2">
      <stop offset="0.0" stop-color="#999999"/>
      <stop offset="1.0" stop-color="#ffffff"/>
    </linearGradient>
    <linearGradient gradientTransform="matrix(0.0176, -0.0352, 0.0107, 0.0057, 133.5, 254.65)" gradientUnits="userSpaceOnUse" id="gradient4" spreadMethod="pad" x1="-819.2" x2="819.2">
      <stop offset="0.0" stop-color="#e8e8ff"/>
      <stop offset="1.0" stop-color="#ffffff"/>
    </linearGradient>
    <linearGradient gradientTransform="matrix(-0.0223, 0.0389, -0.0083, -0.0049, 137.2, 265.1)" gradientUnits="userSpaceOnUse" id="gradient5" spreadMethod="pad" x1="-819.2" x2="819.2">
      <stop offset="0.0" stop-color="#ccccff"/>
      <stop offset="1.0" stop-color="#8e9dbf"/>
    </linearGradient>
    <linearGradient gradientTransform="matrix(0.0092, 0.0066, -0.0025, 0.0033, 157.9, 205.3)" gradientUnits="userSpaceOnUse" id="gradient6" spreadMethod="pad" x1="-819.2" x2="819.2">
      <stop offset="0.0" stop-color="#cccccc"/>
      <stop offset="1.0" stop-color="#ffffff"/>
    </linearGradient>
    <linearGradient gradientTransform="matrix(0.0784, -0.0773, 0.0383, 0.0346, 227.0, 114.6)" gradientUnits="userSpaceOnUse" id="gradient7" spreadMethod="pad" x1="-819.2" x2="819.2">
      <stop offset="0.0" stop-color="#ebebeb"/>
      <stop offset="0.5176470588235295" stop-color="#ffffff"/>
      <stop offset="1.0" stop-color="#eeffaa"/>
    </linearGradient>
  </defs>
</svg>
