<?xml version="1.0" encoding="UTF-8" standalone="no"?>
<svg xmlns:xlink="http://www.w3.org/1999/xlink" height="162.0px" width="138.0px" xmlns="http://www.w3.org/2000/svg">
  <g transform="matrix(1.0, 0.0, 0.0, 1.0, -203.9, -121.0)">
    <path d="M341.8 121.1 L341.05 122.0 Q332.1 124.95 323.95 135.25 L323.95 131.95 Q332.9 121.15 341.8 121.1 M247.25 193.1 Q251.05 186.0 258.35 188.85 271.85 169.25 287.0 152.75 261.45 186.35 261.4 192.5 260.05 192.15 258.8 191.45 252.6 189.15 248.6 194.35 L247.25 193.1" fill="#f2f4f4" fill-rule="evenodd" stroke="none"/>
    <path d="M341.8 122.5 Q341.55 131.0 334.85 140.65 L332.05 141.2 Q339.5 132.6 341.8 122.5 M337.7 148.9 Q338.55 156.35 333.55 164.55 325.15 177.7 314.45 190.9 L312.5 189.55 Q336.7 161.3 337.7 148.9 M310.5 188.15 L312.75 193.0 Q302.8 205.05 290.95 217.1 295.55 224.65 287.55 230.55 L286.35 229.45 Q292.7 223.85 286.8 217.3 275.0 203.0 307.35 162.65 L315.3 154.1 Q277.6 203.5 288.35 216.25 297.6 208.6 311.1 193.35 L308.15 185.85 310.5 188.15" fill="#d9e0e1" fill-rule="evenodd" stroke="none"/>
    <path d="M264.45 228.0 Q247.75 243.1 232.45 263.8 L225.25 256.7 Q241.2 244.55 254.3 228.15 256.45 223.3 252.2 218.75 L253.3 217.15 264.45 228.0 M232.5 266.85 L229.7 267.05 228.75 266.15 220.95 258.6 219.85 257.55 Q219.75 255.7 220.45 254.85 L232.5 266.85 M243.3 246.95 L243.05 246.35 242.5 246.15 Q242.15 246.15 241.9 246.35 L241.7 246.95 241.9 247.5 242.5 247.75 243.05 247.5 243.3 246.95 M249.85 239.4 Q250.45 238.5 250.3 238.25 250.15 238.0 249.3 238.5 L247.45 240.15 245.8 242.1 Q245.2 243.05 245.35 243.35 245.5 243.6 246.35 243.0 L248.25 241.45 249.85 239.4 M238.15 251.05 Q236.8 252.35 235.1 254.45 L232.3 258.1 Q231.25 259.75 231.45 259.95 231.65 260.15 233.05 258.85 L236.15 255.5 238.9 251.8 Q240.0 250.2 239.8 250.0 239.55 249.8 238.15 251.05" fill="#eddca7" fill-rule="evenodd" stroke="none"/>
    <path d="M232.45 263.8 L232.8 264.15 Q233.6 266.15 232.5 266.85 L220.45 254.85 Q221.2 254.0 222.75 254.25 L223.15 254.65 Q241.15 235.5 252.2 218.75 256.45 223.3 254.3 228.15 241.2 244.55 225.25 256.7 L232.45 263.8 M249.85 239.4 L248.25 241.45 246.35 243.0 Q245.5 243.6 245.35 243.35 245.2 243.05 245.8 242.1 L247.45 240.15 249.3 238.5 Q250.15 238.0 250.3 238.25 250.45 238.5 249.85 239.4 M243.3 246.95 L243.05 247.5 242.5 247.75 241.9 247.5 241.7 246.95 241.9 246.35 Q242.15 246.15 242.5 246.15 L243.05 246.35 243.3 246.95 M238.15 251.05 Q239.55 249.8 239.8 250.0 240.0 250.2 238.9 251.8 L236.15 255.5 233.05 258.85 Q231.65 260.15 231.45 259.95 231.25 259.75 232.3 258.1 L235.1 254.45 Q236.8 252.35 238.15 251.05" fill="#f9f2df" fill-rule="evenodd" stroke="none"/>
    <path d="M210.9 263.15 L211.55 262.25 Q213.9 260.45 217.05 260.4 L217.3 260.4 218.8 260.5 Q222.7 262.95 225.25 267.35 225.2 270.5 222.95 272.7 220.7 275.0 217.5 275.0 214.3 275.0 212.0 272.7 209.75 270.45 209.75 267.25 209.75 264.95 210.9 263.15 L211.9 264.0 210.9 263.15 M219.85 265.0 Q219.85 263.65 218.9 262.7 218.0 261.8 216.65 261.8 215.3 261.8 214.35 262.7 213.45 263.65 213.45 265.0 213.45 266.35 214.35 267.25 215.3 268.2 216.65 268.2 218.0 268.2 218.9 267.25 219.85 266.35 219.85 265.0" fill="#cea88e" fill-rule="evenodd" stroke="none"/>
    <path d="M287.55 230.55 L291.8 234.5 300.05 234.5 Q297.15 239.15 291.8 240.9 286.25 240.8 287.6 237.85 L241.6 195.65 Q237.45 189.85 239.4 183.3 L240.15 182.35 243.15 189.3 247.25 193.1 248.6 194.35 286.35 229.45 287.55 230.55" fill="#b48f6b" fill-rule="evenodd" stroke="none"/>
    <path d="M291.8 240.9 Q288.75 241.85 284.85 241.85 L269.9 228.0 252.25 211.65 252.2 211.6 237.95 198.4 Q235.3 188.85 239.4 183.3 237.45 189.85 241.6 195.65 L287.6 237.85 Q286.25 240.8 291.8 240.9 M267.15 228.0 L264.45 228.0 253.3 217.15 253.25 217.1 252.75 214.4 267.15 228.0" fill="#896745" fill-rule="evenodd" stroke="none"/>
    <path d="M269.9 228.0 L267.15 228.0 252.75 214.4 252.25 211.65 269.9 228.0" fill="#684f35" fill-rule="evenodd" stroke="none"/>
    <path d="M341.05 122.0 L325.25 141.5 323.65 143.5 320.75 147.1 315.3 154.1 307.35 162.65 307.4 162.55 306.2 163.85 Q276.1 196.3 261.4 192.5 261.45 186.35 287.0 152.75 294.65 144.35 302.7 136.75 313.35 128.45 323.95 131.95 L323.95 135.25 Q332.1 124.95 341.05 122.0" fill="url(#gradient0)" fill-rule="evenodd" stroke="none"/>
    <path d="M341.8 121.1 L341.8 122.5 Q339.5 132.6 332.05 141.2 L334.85 140.65 Q337.2 144.65 337.7 148.9 336.7 161.3 312.5 189.55 L310.5 188.15 308.15 185.85 311.1 193.35 Q297.6 208.6 288.35 216.25 277.6 203.5 315.3 154.1 L320.75 147.1 323.65 143.5 325.25 141.5 341.05 122.0 341.8 121.1" fill="url(#gradient1)" fill-rule="evenodd" stroke="none"/>
    <path d="M248.6 194.35 Q252.6 189.15 258.8 191.45 260.05 192.15 261.4 192.5 276.1 196.3 306.2 163.85 L307.4 162.55 307.35 162.65 Q275.0 203.0 286.8 217.3 292.7 223.85 286.35 229.45 L248.6 194.35" fill="url(#gradient2)" fill-rule="evenodd" stroke="none"/>
    <path d="M228.75 266.15 L226.9 268.9 226.95 270.1 Q226.95 274.1 224.15 276.95 222.65 278.4 220.8 279.15 L220.35 278.1 220.8 279.15 217.3 279.75 214.2 279.3 215.05 277.55 214.2 279.3 Q212.2 278.65 210.65 277.15 L210.45 276.95 Q209.3 275.8 208.6 274.45 207.6 272.5 207.6 270.1 L207.7 268.65 Q208.1 265.55 210.45 263.25 L210.7 262.95 211.55 262.25 210.9 263.15 210.7 262.95 210.9 263.15 Q209.75 264.95 209.75 267.25 209.75 270.45 212.0 272.7 214.3 275.0 217.5 275.0 220.7 275.0 222.95 272.7 225.2 270.5 225.25 267.35 222.7 262.95 218.8 260.5 L220.95 258.6 228.75 266.15 M210.65 277.15 L211.55 276.35 210.65 277.15" fill="#c29474" fill-rule="evenodd" stroke="none"/>
    <path d="M219.85 265.0 Q219.85 266.35 218.9 267.25 218.0 268.2 216.65 268.2 215.3 268.2 214.35 267.25 213.45 266.35 213.45 265.0 213.45 263.65 214.35 262.7 215.3 261.8 216.65 261.8 218.0 261.8 218.9 262.7 219.85 263.65 219.85 265.0" fill="#e1cabb" fill-rule="evenodd" stroke="none"/>
    <path d="M341.8 121.1 L341.8 122.5 Q341.55 131.0 334.85 140.65 337.2 144.65 337.7 148.9 338.55 156.35 333.55 164.55 325.15 177.7 314.45 190.9 L312.5 189.55 310.5 188.15 312.75 193.0 Q302.8 205.05 290.95 217.1 295.55 224.65 287.55 230.55 L291.8 234.5 300.05 234.5 Q297.15 239.15 291.8 240.9 288.75 241.85 284.85 241.85 L269.9 228.0 M264.45 228.0 Q247.75 243.1 232.45 263.8 L232.8 264.15 Q233.6 266.15 232.5 266.85 L229.7 267.05 228.75 266.15 226.9 268.9 M341.8 121.1 L341.05 122.0 M239.4 183.3 L240.15 182.35 243.15 189.3 247.25 193.1 Q251.05 186.0 258.35 188.85 271.85 169.25 287.0 152.75 294.65 144.35 302.7 136.75 313.35 128.45 323.95 131.95 332.9 121.15 341.8 121.1 M247.25 193.1 L248.6 194.35 286.35 229.45 287.55 230.55 M252.2 218.75 L253.3 217.15 M252.2 211.6 L237.95 198.4 Q235.3 188.85 239.4 183.3 M252.2 218.75 Q241.15 235.5 223.15 254.65 L222.75 254.25 Q221.2 254.0 220.45 254.85 219.75 255.7 219.85 257.55 L220.95 258.6 228.75 266.15 M218.8 260.5 L220.95 258.6" fill="none" stroke="#000000" stroke-linecap="round" stroke-linejoin="round" stroke-opacity="0.30980393" stroke-width="0.2"/>
    <path d="M269.9 228.0 L267.15 228.0 264.45 228.0 253.3 217.15 253.25 217.1 252.75 214.4 252.25 211.65 269.9 228.0" fill="none" stroke="#000000" stroke-linecap="round" stroke-linejoin="round" stroke-opacity="0.3019608" stroke-width="0.2"/>
    <path d="M252.25 211.65 L252.2 211.6" fill="none" stroke="#00ff00" stroke-linecap="round" stroke-linejoin="round" stroke-width="0.2"/>
    <path d="M220.8 279.15 L221.9 281.65 M210.7 262.95 L208.2 260.7 M210.7 262.95 L210.9 263.15 211.9 264.0 M207.7 268.65 L203.9 266.35 M220.35 278.1 L220.8 279.15 M214.2 279.3 L212.3 283.0 M215.05 277.55 L214.2 279.3 M210.65 277.15 L209.2 278.3 M208.6 274.45 L204.85 275.55 M211.55 276.35 L210.65 277.15" fill="none" stroke="#000000" stroke-linecap="round" stroke-linejoin="round" stroke-opacity="0.4" stroke-width="0.05"/>
    <path d="M226.9 268.9 L226.95 270.1 Q226.95 274.1 224.15 276.95 222.65 278.4 220.8 279.15 L217.3 279.75 214.2 279.3 Q212.2 278.65 210.65 277.15 L210.45 276.95 Q209.3 275.8 208.6 274.45 207.6 272.5 207.6 270.1 L207.7 268.65 Q208.1 265.55 210.45 263.25 L210.7 262.95 211.55 262.25 Q213.9 260.45 217.05 260.4 L217.3 260.4 218.8 260.5" fill="none" stroke="#000000" stroke-linecap="round" stroke-linejoin="round" stroke-opacity="0.4" stroke-width="0.05"/>
  </g>
  <defs>
    <linearGradient gradientTransform="matrix(-0.0406, 0.033, -0.0244, -0.03, 307.95, 173.2)" gradientUnits="userSpaceOnUse" id="gradient0" spreadMethod="pad" x1="-819.2" x2="819.2">
      <stop offset="0.0" stop-color="#d9e0e1"/>
      <stop offset="1.0" stop-color="#ffffff"/>
    </linearGradient>
    <linearGradient gradientTransform="matrix(-0.0321, 0.0428, -0.0099, -0.0075, 308.9, 179.6)" gradientUnits="userSpaceOnUse" id="gradient1" spreadMethod="pad" x1="-819.2" x2="819.2">
      <stop offset="0.0" stop-color="#becccd"/>
      <stop offset="1.0" stop-color="#abbdbe"/>
    </linearGradient>
    <linearGradient gradientTransform="matrix(-0.0169, 0.0195, -0.0238, -0.0206, 277.25, 200.7)" gradientUnits="userSpaceOnUse" id="gradient2" spreadMethod="pad" x1="-819.2" x2="819.2">
      <stop offset="0.0" stop-color="#88a2a2"/>
      <stop offset="1.0" stop-color="#abbdbe"/>
    </linearGradient>
  </defs>
</svg>
