<?xml version="1.0" encoding="UTF-8" standalone="no"?>
<svg xmlns:xlink="http://www.w3.org/1999/xlink" height="110.6px" width="99.2px" xmlns="http://www.w3.org/2000/svg">
  <g transform="matrix(1.0, 0.0, 0.0, 1.0, -223.7, -235.95)">
    <path d="M317.95 256.4 L322.8 262.45 319.15 264.9 Q316.6 263.95 313.9 263.1 L315.55 261.9 313.85 259.7 317.95 256.4 M270.85 324.2 L274.3 327.05 272.3 333.55 271.05 334.8 268.55 332.3 271.4 329.45 269.05 327.5 270.85 324.2 M241.55 339.3 L243.5 341.05 242.6 345.05 239.35 342.2 241.55 339.3 M274.1 257.85 L279.3 252.95 280.65 257.8 278.45 259.9 276.75 261.5 274.1 257.85 M299.45 237.4 L301.5 236.05 306.05 241.6 303.35 245.9 302.85 245.2 301.35 243.2 301.25 243.1 300.45 242.1 298.25 243.7 299.45 237.4 M308.8 245.05 L313.5 250.95 307.5 251.35 305.35 248.5 308.8 245.05" fill="#696969" fill-rule="evenodd" stroke="none"/>
    <path d="M319.15 264.9 L318.0 268.75 312.9 267.75 313.9 263.1 Q316.6 263.95 319.15 264.9" fill="#8d8d8d" fill-rule="evenodd" stroke="none"/>
    <path d="M313.5 250.95 L317.95 256.4 313.85 259.7 312.8 258.4 312.4 257.85 309.95 254.7 307.5 251.35 313.5 250.95 M246.3 339.75 L247.0 339.05 249.35 341.4 246.9 343.85 246.3 339.75" fill="#7b7b7b" fill-rule="evenodd" stroke="none"/>
    <path d="M266.05 320.35 L268.4 322.25 265.8 324.85 263.45 322.95 266.05 320.35 M274.3 327.05 L276.75 329.1 272.3 333.55 274.3 327.05 M238.45 336.5 L241.55 339.3 239.35 342.2 235.45 338.9 238.45 336.5 M243.5 341.05 L244.35 341.7 246.3 339.75 246.9 343.85 244.3 346.45 242.6 345.05 243.5 341.05 M266.25 266.3 L269.5 262.65 272.05 266.3 270.0 268.6 268.25 270.6 266.25 266.3 M279.3 252.95 Q285.35 247.4 291.95 242.55 L289.0 250.65 286.3 252.85 Q283.85 254.9 281.45 257.1 L280.65 257.8 279.3 252.95 M306.05 241.6 L308.8 245.05 305.35 248.5 303.85 246.6 303.35 245.9 306.05 241.6" fill="#575757" fill-rule="evenodd" stroke="none"/>
    <path d="M258.35 313.9 L263.15 317.9 259.75 319.9 254.1 315.25 244.15 306.9 238.4 302.15 240.8 299.5 243.0 301.35 245.7 296.15 251.65 296.1 Q250.5 298.45 249.6 300.85 L249.2 301.65 247.8 305.3 257.2 312.95 257.7 313.5 258.35 313.9 M268.4 322.25 L270.85 324.2 269.05 327.5 265.8 324.85 268.4 322.25 M228.0 332.55 L223.8 328.95 226.65 326.1 228.45 327.7 231.1 330.05 228.0 332.55 M248.75 290.8 Q251.75 285.65 255.05 280.9 L258.9 283.15 256.0 287.85 253.65 292.1 248.75 290.8 M259.15 275.1 L260.2 273.75 Q263.15 269.9 266.25 266.3 L268.25 270.6 265.05 274.5 263.75 276.3 262.15 278.4 259.15 275.1" fill="#333333" fill-rule="evenodd" stroke="none"/>
    <path d="M263.15 317.9 L266.05 320.35 263.45 322.95 259.75 319.9 263.15 317.9 M236.85 335.1 L238.45 336.5 235.45 338.9 228.0 332.55 231.1 330.05 232.05 330.8 234.05 332.6 234.55 333.1 236.85 335.1 M245.7 296.15 L248.75 290.8 253.65 292.1 252.55 294.3 251.65 296.1 245.7 296.15 M255.05 280.9 L259.15 275.1 262.15 278.4 260.8 280.35 258.9 283.15 255.05 280.9 M269.5 262.65 L274.1 257.85 276.75 261.5 272.05 266.3 269.5 262.65 M291.95 242.55 Q295.6 239.85 299.45 237.4 L298.25 243.7 Q296.5 244.85 294.9 246.15 L289.0 250.65 291.95 242.55" fill="#454545" fill-rule="evenodd" stroke="none"/>
    <path d="M307.5 251.35 L309.95 254.7 Q308.05 254.6 307.95 258.1 L307.95 258.4 Q304.6 255.35 302.3 256.05 L301.35 243.2 302.85 245.2 303.85 246.6 305.35 248.5 307.5 251.35 M299.95 258.2 Q298.9 259.75 298.3 262.65 289.75 258.75 288.85 268.8 286.85 268.2 285.35 268.2 L286.3 252.85 289.0 250.65 294.9 246.15 299.95 258.2" fill="#ff57f0" fill-rule="evenodd" stroke="none"/>
    <path d="M309.95 254.7 L312.4 257.85 308.55 258.9 Q289.65 264.9 275.2 281.65 259.3 300.05 257.7 313.5 L257.2 312.95 Q253.05 306.55 255.3 304.05 256.75 302.6 260.6 302.65 259.7 300.65 259.4 299.15 L259.25 297.8 Q259.05 292.8 266.3 293.05 265.2 289.55 265.75 287.5 266.3 285.15 268.8 284.55 L272.75 284.4 Q271.4 278.05 274.5 276.45 L280.05 276.2 Q280.05 271.7 281.8 269.75 282.45 269.0 283.5 268.65 L285.35 268.2 Q286.85 268.2 288.85 268.8 289.75 258.75 298.3 262.65 298.9 259.75 299.95 258.2 300.95 256.5 302.3 256.05 304.6 255.35 307.95 258.4 L307.95 258.1 Q308.05 254.6 309.95 254.7" fill="#ff9fff" fill-rule="evenodd" stroke="none"/>
    <path d="M312.8 258.4 L309.05 259.5 Q290.15 265.4 275.75 282.2 259.85 300.6 258.35 313.9 L257.7 313.5 Q259.3 300.05 275.2 281.65 289.65 264.9 308.55 258.9 L312.4 257.85 312.8 258.4" fill="#ffd5ff" fill-rule="evenodd" stroke="none"/>
    <path d="M302.3 256.05 Q300.95 256.5 299.95 258.2 L294.9 246.15 Q296.5 244.85 298.25 243.7 L300.45 242.1 301.25 243.1 301.35 243.2 302.3 256.05 M281.8 269.75 Q280.05 271.7 280.05 276.2 L274.5 276.45 270.0 268.6 272.05 266.3 276.75 261.5 278.45 259.9 281.8 269.75" fill="#ff45de" fill-rule="evenodd" stroke="none"/>
    <path d="M283.5 268.65 Q282.45 269.0 281.8 269.75 L278.45 259.9 280.65 257.8 281.45 257.1 283.5 268.65 M268.8 284.55 Q266.3 285.15 265.75 287.5 L260.8 280.35 262.15 278.4 263.75 276.3 265.05 274.5 268.8 284.55" fill="#ed21ba" fill-rule="evenodd" stroke="none"/>
    <path d="M285.35 268.2 L283.5 268.65 281.45 257.1 Q283.85 254.9 286.3 252.85 L285.35 268.2 M274.5 276.45 Q271.4 278.05 272.75 284.4 L268.8 284.55 265.05 274.5 268.25 270.6 270.0 268.6 274.5 276.45 M265.75 287.5 Q265.2 289.55 266.3 293.05 259.05 292.8 259.25 297.8 L256.0 287.85 258.9 283.15 260.8 280.35 265.75 287.5" fill="#ff33cc" fill-rule="evenodd" stroke="none"/>
    <path d="M259.4 299.15 Q259.7 300.65 260.6 302.65 256.75 302.6 255.3 304.05 L249.2 301.65 249.6 300.85 Q250.5 298.45 251.65 296.1 L252.55 294.3 259.4 299.15" fill="#c90096" fill-rule="evenodd" stroke="none"/>
    <path d="M259.25 297.8 L259.4 299.15 252.55 294.3 253.65 292.1 256.0 287.85 259.25 297.8 M255.3 304.05 Q253.05 306.55 257.2 312.95 L247.8 305.3 249.2 301.65 255.3 304.05" fill="#db0fa8" fill-rule="evenodd" stroke="none"/>
    <path d="M251.9 316.05 Q250.5 316.65 249.15 317.5 L243.25 316.1 243.0 315.35 246.25 311.3 251.9 316.05 M248.3 318.05 Q246.5 319.15 245.0 320.65 L243.55 316.8 248.3 318.05 M244.05 321.6 L242.05 324.1 237.6 324.05 237.35 323.5 239.65 319.6 242.3 316.25 244.05 321.6 M241.2 325.25 L239.6 328.05 238.25 325.3 241.2 325.25 M238.9 329.45 Q237.7 332.05 236.85 335.1 L234.55 333.1 234.4 328.75 236.75 324.55 238.9 329.45 M232.05 330.8 L231.6 327.15 233.4 330.55 233.9 329.65 234.05 332.6 232.05 330.8" fill="#8c0068" fill-rule="evenodd" stroke="none"/>
    <path d="M249.15 317.5 L248.3 318.05 243.55 316.8 243.25 316.1 243.55 316.8 245.0 320.65 244.05 321.6 242.3 316.25 239.65 319.6 237.35 323.5 237.6 324.05 242.05 324.1 241.2 325.25 238.25 325.3 239.6 328.05 238.9 329.45 236.75 324.55 234.4 328.75 234.55 333.1 234.05 332.6 233.9 329.65 233.4 330.55 231.6 327.15 232.05 330.8 231.1 330.05 228.45 327.7 Q231.55 324.8 234.1 321.9 L235.75 320.0 Q238.95 316.0 241.55 311.55 L243.1 308.75 246.25 311.3 243.0 315.35 241.55 311.55 243.0 315.35 243.25 316.1 249.15 317.5 M237.35 323.5 L235.75 320.0 237.35 323.5 M234.1 321.9 L234.4 328.75 234.1 321.9 M238.25 325.3 L237.6 324.05 238.25 325.3" fill="#64004b" fill-rule="evenodd" stroke="none"/>
    <path d="M254.1 315.25 L251.9 316.05 246.25 311.3 243.1 308.75 244.15 306.9 254.1 315.25" fill="#51003d" fill-rule="evenodd" stroke="none"/>
    <path d="M313.5 250.95 L317.95 256.4 322.8 262.45 319.15 264.9 318.0 268.75 312.9 267.75 313.9 263.1 315.55 261.9 313.85 259.7 312.8 258.4 309.05 259.5 Q290.15 265.4 275.75 282.2 259.85 300.6 258.35 313.9 L263.15 317.9 266.05 320.35 268.4 322.25 270.85 324.2 274.3 327.05 276.75 329.1 272.3 333.55 271.05 334.8 268.55 332.3 271.4 329.45 269.05 327.5 265.8 324.85 263.45 322.95 259.75 319.9 254.1 315.25 251.9 316.05 Q250.5 316.65 249.15 317.5 L248.3 318.05 Q246.5 319.15 245.0 320.65 L244.05 321.6 242.05 324.1 241.2 325.25 239.6 328.05 238.9 329.45 Q237.7 332.05 236.85 335.1 L238.45 336.5 241.55 339.3 243.5 341.05 244.35 341.7 246.3 339.75 247.0 339.05 249.35 341.4 246.9 343.85 244.3 346.45 242.6 345.05 239.35 342.2 235.45 338.9 228.0 332.55 223.8 328.95 226.65 326.1 228.45 327.7 Q231.55 324.8 234.1 321.9 L235.75 320.0 Q238.95 316.0 241.55 311.55 L243.1 308.75 244.15 306.9 238.4 302.15 240.8 299.5 243.0 301.35 245.7 296.15 248.75 290.8 Q251.75 285.65 255.05 280.9 L259.15 275.1 260.2 273.75 Q263.15 269.9 266.25 266.3 L269.5 262.65 274.1 257.85 279.3 252.95 Q285.35 247.4 291.95 242.55 295.6 239.85 299.45 237.4 L301.5 236.05 306.05 241.6 308.8 245.05 313.5 250.95 M307.5 251.35 L309.95 254.7 312.4 257.85 312.8 258.4 M257.2 312.95 L257.7 313.5 258.35 313.9 M307.5 251.35 L305.35 248.5 303.85 246.6 303.35 245.9 302.85 245.2 301.35 243.2 M289.0 250.65 L286.3 252.85 Q283.85 254.9 281.45 257.1 L280.65 257.8 278.45 259.9 276.75 261.5 272.05 266.3 270.0 268.6 268.25 270.6 265.05 274.5 263.75 276.3 262.15 278.4 260.8 280.35 258.9 283.15 256.0 287.85 253.65 292.1 252.55 294.3 251.65 296.1 Q250.5 298.45 249.6 300.85 L249.2 301.65 247.8 305.3 257.2 312.95 M298.25 243.7 L300.45 242.1 301.25 243.1 M294.9 246.15 Q296.5 244.85 298.25 243.7 M289.0 250.65 L294.9 246.15 M243.25 316.1 L243.55 316.8 245.0 320.65 M243.0 315.35 L243.25 316.1 249.15 317.5 M241.55 311.55 L243.0 315.35 M237.35 323.5 L237.6 324.05 242.05 324.1 M254.1 315.25 L244.15 306.9 M238.25 325.3 L239.6 328.05 M232.05 330.8 L234.05 332.6 234.55 333.1 234.4 328.75 234.1 321.9 M235.75 320.0 L237.35 323.5 M228.45 327.7 L231.1 330.05 232.05 330.8 M234.55 333.1 L236.85 335.1 M237.6 324.05 L238.25 325.3" fill="none" stroke="#000000" stroke-linecap="round" stroke-linejoin="round" stroke-opacity="0.4" stroke-width="0.2"/>
    <path d="M309.05 259.5 L299.05 246.9 Q297.5 247.85 296.05 248.9 290.85 252.35 286.1 256.35 L282.0 259.95 279.35 262.4 Q275.15 266.4 271.35 270.9 L266.1 277.35 262.4 282.65 Q259.65 286.7 257.1 291.15 L254.5 295.75 251.2 302.35 249.35 306.5 247.8 305.3 249.25 301.6 249.6 300.85 Q250.5 298.45 251.65 296.1 L252.5 294.3 253.65 292.1 256.0 287.85 258.9 283.15 260.8 280.35 262.15 278.4 263.75 276.3 265.05 274.5 268.25 270.6 270.0 268.6 272.05 266.3 276.75 261.5 278.5 259.85 280.65 257.8 281.5 257.05 286.3 252.85 289.0 250.65 Q291.85 248.3 294.95 246.1 L298.3 243.65 300.5 242.05 312.8 258.4 309.05 259.5" fill="#000000" fill-opacity="0.3019608" fill-rule="evenodd" stroke="none"/>
  </g>
</svg>
