<?xml version="1.0" encoding="UTF-8" standalone="no"?>
<svg xmlns:xlink="http://www.w3.org/1999/xlink" height="252.45px" width="99.05px" xmlns="http://www.w3.org/2000/svg">
  <g transform="matrix(1.0, 0.0, 0.0, 1.0, 0.5, 0.5)">
    <path d="M0.0 0.0 L8.65 7.4 Q20.15 17.55 30.15 27.95 77.0 88.25 86.45 142.7 92.1 175.2 87.0 209.65 85.75 218.1 90.25 225.7 83.15 214.7 83.5 184.45 L83.55 180.65 Q81.25 142.15 68.45 113.75 L67.4 110.2 67.25 110.25 Q76.05 164.4 51.0 194.1 44.5 188.15 44.95 175.4 L44.15 176.65 Q43.35 161.0 49.05 151.85 46.85 164.6 51.5 176.5 L51.85 173.8 Q55.7 159.15 58.4 146.6 58.7 138.6 59.7 131.9 59.25 130.8 60.0 130.2 59.55 125.1 60.35 120.65 59.5 113.8 59.55 107.75 L57.9 104.8 57.85 96.65 56.15 94.7 Q56.45 93.75 56.2 92.8 55.7 90.85 55.65 88.8 L53.05 84.55 Q53.35 83.2 54.05 81.7 L45.95 66.2 Q45.85 64.85 46.2 63.3 41.45 55.75 35.85 48.0 36.0 46.8 35.45 45.9 31.95 40.2 27.45 34.65 18.5 21.15 6.6 7.4 L0.0 0.0" fill="#ff9933" fill-rule="evenodd" stroke="none"/>
    <path d="M23.7 36.35 Q15.65 21.8 5.4 7.4 L0.0 0.0 6.6 7.4 Q18.5 21.15 27.45 34.65 L23.7 36.35 M35.45 45.9 Q36.0 46.8 35.85 48.0 L30.85 50.25 30.0 48.45 35.45 45.9 M46.2 63.3 Q45.85 64.85 45.95 66.2 L54.05 81.7 Q53.35 83.2 53.05 84.55 L55.65 88.8 46.25 91.45 44.4 84.9 Q42.0 77.0 39.0 69.15 L38.1 66.85 46.2 63.3 M57.85 96.65 L57.9 104.8 49.35 104.8 48.05 98.65 57.85 96.65 M60.0 130.2 Q59.25 130.8 59.7 131.9 L53.0 130.85 52.85 129.0 60.0 130.2 M51.65 85.0 L53.05 84.55 51.65 85.0 M39.0 69.15 L45.95 66.2 39.0 69.15" fill="url(#gradient0)" fill-rule="evenodd" stroke="none"/>
    <path d="M27.45 34.65 Q31.95 40.2 35.45 45.9 L30.0 48.45 Q27.05 42.4 23.7 36.35 L27.45 34.65 M35.85 48.0 Q41.45 55.75 46.2 63.3 L38.1 66.85 Q34.85 58.5 30.85 50.25 L35.85 48.0 M55.65 88.8 Q55.7 90.85 56.2 92.8 56.45 93.75 56.15 94.7 L57.85 96.65 48.05 98.65 46.25 91.45 55.65 88.8 M57.9 104.8 L59.55 107.75 Q59.5 113.8 60.35 120.65 59.55 125.1 60.0 130.2 L52.85 129.0 51.95 120.45 Q50.95 112.6 49.35 104.8 L57.9 104.8 M59.7 131.9 Q58.7 138.6 58.4 146.6 55.7 159.15 51.85 173.8 53.65 159.4 53.55 145.15 L53.0 130.85 59.7 131.9 M49.05 151.85 Q43.35 161.0 44.15 176.65 L43.4 177.95 Q42.2 179.85 40.3 181.3 L32.55 175.7 Q34.55 171.7 36.9 167.8 L43.4 177.95 36.9 167.8 Q42.1 159.15 49.2 151.0 L49.05 151.85 M54.55 94.7 L56.15 94.7 54.55 94.7 M55.8 108.4 L59.55 107.75 55.8 108.4 M60.35 120.65 L51.95 120.45 60.35 120.65 M53.55 145.15 L58.4 146.6 53.55 145.15 M31.5 177.95 L40.55 182.9 34.2 194.4 26.15 192.05 Q28.25 184.8 31.5 177.95 M25.1 196.05 L32.65 199.2 Q32.8 201.75 31.5 204.5 L23.75 202.35 Q24.3 199.15 25.1 196.05 M22.1 222.5 Q22.05 217.95 22.35 213.55 L29.45 216.05 27.55 225.9 22.3 223.35 22.1 223.25 22.1 222.5 22.3 223.35 22.1 222.5" fill="#fed8b4" fill-rule="evenodd" stroke="none"/>
    <path d="M30.15 27.95 Q56.5 55.5 72.15 84.9 83.35 105.95 89.0 128.0 L91.05 138.25 91.15 138.9 91.85 142.9 91.95 143.55 Q95.85 167.45 94.1 182.2 91.75 201.45 91.6 212.9 91.55 215.95 97.45 225.3 L98.55 225.7 97.7 225.7 90.25 225.7 Q85.75 218.1 87.0 209.65 92.1 175.2 86.45 142.7 77.0 88.25 30.15 27.95 M97.8 225.9 L98.05 226.25 97.55 225.95 97.8 225.9 M97.7 225.7 L97.45 225.3 97.7 225.7" fill="url(#gradient1)" fill-rule="evenodd" stroke="none"/>
    <path d="M98.55 225.7 L97.8 225.9 97.7 225.7 97.8 225.9 97.55 225.95 Q82.25 249.85 84.6 235.05 L84.55 235.0 Q43.3 264.55 28.65 240.95 L28.2 240.0 28.65 240.95 28.3 240.4 28.2 240.0 27.85 238.1 Q27.8 237.35 28.1 237.55 27.65 230.25 27.55 225.9 L29.45 216.05 29.7 214.8 31.5 204.5 Q32.8 201.75 32.65 199.2 34.3 197.1 34.2 194.4 L40.55 182.9 Q40.85 182.35 40.3 181.3 42.2 179.85 43.4 177.95 L44.15 176.65 44.95 175.4 Q44.5 188.15 51.0 194.1 76.05 164.4 67.25 110.25 L67.4 110.2 68.45 113.75 Q81.25 142.15 83.55 180.65 L83.5 184.45 Q83.15 214.7 90.25 225.7 L97.7 225.7 98.55 225.7 M37.85 195.5 L34.2 194.4 37.85 195.5 M42.95 184.2 L40.55 182.9 42.95 184.2 M40.3 181.3 L42.45 182.8 40.3 181.3 M48.65 229.6 L48.8 228.65 48.45 229.95 48.6 229.95 48.65 229.95 48.65 229.6 M32.65 199.2 L34.65 199.95 32.65 199.2 M34.3 204.5 L31.5 204.5 34.3 204.5 M30.95 216.55 L29.45 216.05 30.95 216.55 M29.35 225.9 L27.55 225.9 29.35 225.9 M29.7 214.8 L30.75 214.95 29.7 214.8" fill="url(#gradient2)" fill-rule="evenodd" stroke="none"/>
    <path d="M28.65 240.95 L28.75 241.2 28.05 240.0 27.4 239.05 27.4 238.9 Q22.4 230.15 22.25 224.55 L22.25 224.5 22.2 224.35 22.15 224.1 22.1 223.95 22.1 223.65 22.1 223.25 22.3 223.35 27.55 225.9 Q27.65 230.25 28.1 237.55 27.8 237.35 27.85 238.1 27.45 236.4 27.4 238.0 L27.4 238.9 28.05 240.0 28.3 240.4 28.05 240.0 27.4 238.9 27.4 238.0 Q27.45 236.4 27.85 238.1 L28.2 240.0 28.3 240.4 28.65 240.95 M32.55 175.7 L40.3 181.3 Q40.85 182.35 40.55 182.9 L31.5 177.95 32.55 175.7 M26.15 192.05 L34.2 194.4 Q34.3 197.1 32.65 199.2 L25.1 196.05 Q25.55 194.0 26.15 192.05 M29.45 216.05 L22.35 213.55 Q22.7 207.85 23.75 202.35 L31.5 204.5 29.7 214.8 29.45 216.05 M29.7 214.8 L22.35 213.55 29.7 214.8 M22.25 224.5 L22.3 223.35 22.2 224.35 22.3 223.35 22.25 224.5 M28.3 240.4 L27.85 239.15 28.2 240.0 27.85 239.15 28.3 240.4 M27.4 238.0 L27.85 239.15 27.4 238.0" fill="#febb78" fill-rule="evenodd" stroke="none"/>
    <path d="M48.65 229.6 L48.6 229.95 48.45 229.95 48.8 228.65 48.65 229.6" fill="#423434" fill-rule="evenodd" stroke="none"/>
    <path d="M48.6 229.95 L48.65 229.6 48.65 229.95 48.6 229.95" fill="#6e5a5a" fill-rule="evenodd" stroke="none"/>
    <path d="M0.0 0.0 L8.65 7.4 Q20.15 17.55 30.15 27.95 56.5 55.5 72.15 84.9 83.35 105.95 89.0 128.0 L91.05 138.25 M91.15 138.9 L91.85 142.9 M91.95 143.55 Q95.85 167.45 94.1 182.2 91.75 201.45 91.6 212.9 91.55 215.95 97.45 225.3 L97.7 225.7 97.8 225.9 M22.25 224.55 L22.2 224.4 22.1 223.95 22.1 223.65 22.1 223.25 22.1 222.5 Q22.05 217.95 22.35 213.55 22.7 207.85 23.75 202.35 24.3 199.15 25.1 196.05 25.55 194.0 26.15 192.05 28.25 184.8 31.5 177.95 L32.55 175.7 Q34.55 171.7 36.9 167.8 42.1 159.15 49.2 151.0 M23.7 36.35 Q15.65 21.8 5.4 7.4 L0.0 0.0 M51.85 173.8 L51.5 176.5 Q46.85 164.6 49.05 151.85 M23.7 36.35 Q27.05 42.4 30.0 48.45 L30.85 50.25 Q34.85 58.5 38.1 66.85 L39.0 69.15 Q42.0 77.0 44.4 84.9 L46.25 91.45 48.05 98.65 49.35 104.8 Q50.95 112.6 51.95 120.45 L52.85 129.0 53.0 130.85 53.55 145.15 Q53.65 159.4 51.85 173.8" fill="none" stroke="#000000" stroke-linecap="round" stroke-linejoin="round" stroke-opacity="0.2" stroke-width="1.0"/>
    <path d="M91.05 138.25 L91.15 138.9 M91.85 142.9 L91.95 143.55 M22.1 223.25 L21.2 222.9 M30.0 48.45 L35.45 45.9 M30.85 50.25 L35.85 48.0 M27.45 34.65 L23.7 36.35 M53.05 84.55 L51.65 85.0 M46.25 91.45 L55.65 88.8 M56.15 94.7 L54.55 94.7 M48.05 98.65 L57.85 96.65 M38.1 66.85 L46.2 63.3 M45.95 66.2 L39.0 69.15 M51.95 120.45 L60.35 120.65 M59.55 107.75 L55.8 108.4 M49.35 104.8 L57.9 104.8 M60.0 130.2 L52.85 129.0 M53.0 130.85 L59.7 131.9 M58.4 146.6 L53.55 145.15 M40.3 181.3 L32.55 175.7 M31.5 177.95 L40.55 182.9 42.95 184.2 M43.4 177.95 L36.9 167.8 M34.2 194.4 L37.85 195.5 M34.2 194.4 L26.15 192.05 M25.1 196.05 L32.65 199.2 34.65 199.95 M42.45 182.8 L40.3 181.3 M31.5 204.5 L34.3 204.5 M22.3 223.35 L27.55 225.9 29.35 225.9 M29.45 216.05 L22.35 213.55 29.7 214.8 30.75 214.95 M29.45 216.05 L30.95 216.55 M31.5 204.5 L23.75 202.35 M22.3 223.35 L22.1 223.25" fill="none" stroke="#ffffff" stroke-linecap="round" stroke-linejoin="round" stroke-opacity="0.101960786" stroke-width="1.0"/>
    <path d="M97.55 225.95 Q82.25 249.85 84.6 235.05 L84.55 235.0 Q43.3 264.55 28.65 240.95 L28.75 241.2 28.05 240.0 27.4 239.05 27.4 238.9 Q22.4 230.15 22.25 224.55 L22.25 224.5 22.3 223.35 22.1 222.5 M22.2 224.35 L22.3 223.35 M22.2 224.35 L22.2 224.4 22.25 224.5 M28.65 240.95 L28.2 240.0 28.3 240.4 28.65 240.95 M28.3 240.4 L28.05 240.0 27.4 238.9 27.4 238.0 Q27.45 236.4 27.85 238.1 L28.2 240.0 27.85 239.15 28.3 240.4 M27.85 239.15 L27.4 238.0" fill="none" stroke="#000000" stroke-linecap="round" stroke-linejoin="round" stroke-opacity="0.101960786" stroke-width="1.0"/>
  </g>
  <defs>
    <linearGradient gradientTransform="matrix(0.0315, -0.0181, 0.0527, 0.0919, 34.85, 89.45)" gradientUnits="userSpaceOnUse" id="gradient0" spreadMethod="pad" x1="-819.2" x2="819.2">
      <stop offset="0.0" stop-color="#fed7b0"/>
      <stop offset="1.0" stop-color="#febb78"/>
    </linearGradient>
    <linearGradient gradientTransform="matrix(0.0292, 0.109, -0.1166, 0.0312, 82.45, 153.35)" gradientUnits="userSpaceOnUse" id="gradient1" spreadMethod="pad" x1="-819.2" x2="819.2">
      <stop offset="0.0" stop-color="#ff9933"/>
      <stop offset="1.0" stop-color="#b76d24"/>
    </linearGradient>
    <radialGradient cx="0" cy="0" gradientTransform="matrix(0.0662, 0.0, 0.0, 0.1226, 62.3, 222.25)" gradientUnits="userSpaceOnUse" id="gradient2" r="819.2" spreadMethod="pad">
      <stop offset="0.4235294117647059" stop-color="#ff6b1c"/>
      <stop offset="1.0" stop-color="#ff9933"/>
    </radialGradient>
  </defs>
</svg>
