<?xml version="1.0" encoding="UTF-8" standalone="no"?>
<svg xmlns:xlink="http://www.w3.org/1999/xlink" height="38.85px" width="42.3px" xmlns="http://www.w3.org/2000/svg">
  <g transform="matrix(1.0, 0.0, 0.0, 1.0, -259.3, -383.55)">
    <path d="M297.35 390.9 L297.4 393.15 300.2 396.0 301.1 395.05 Q299.85 392.7 299.35 389.7 L297.1 390.1 Q293.45 388.65 290.35 386.1 L289.05 387.35 281.15 384.05 M288.55 389.0 L288.3 390.2 M288.15 390.85 L288.0 391.4 288.45 391.25 M288.0 391.4 L287.5 393.8 284.4 398.0 M265.1 402.55 L265.2 403.05 265.3 403.1 265.5 401.95 265.1 402.5 265.1 402.55 M266.85 399.5 L264.75 400.25 264.3 401.8 264.25 401.85 264.95 401.9 265.1 402.5 M265.5 401.95 L265.55 401.55 265.75 400.7 266.2 400.9 266.75 400.15 M261.4 403.8 L262.45 401.7 264.25 401.85 M265.3 403.1 L265.25 403.2 265.75 405.25 263.5 405.55 262.7 403.7 263.35 403.75 M265.2 403.05 L265.25 403.2 M261.75 404.1 Q264.0 407.65 266.45 410.35 L266.55 410.45 266.6 410.5 Q268.9 413.0 271.45 414.75 L271.75 414.95 Q276.15 417.95 281.25 418.7 M266.2 400.9 L272.45 403.3 274.35 407.5 274.15 408.4 274.1 408.45 271.6 409.4 271.0 408.4 270.15 409.4 M271.0 408.4 L271.0 406.75 M271.45 414.75 L268.4 415.85 265.45 415.75 265.8 416.35 268.05 417.7 270.05 417.0 271.75 414.95 M266.45 410.35 L264.45 412.15 264.5 414.05 265.15 415.2 265.45 415.75 M260.85 416.9 L262.05 415.0 263.1 413.65 264.45 412.15 M262.05 415.0 L262.05 416.1 M265.15 415.2 L263.1 413.65 M270.05 417.0 L268.25 418.75 266.4 420.2 264.55 421.4 M265.95 419.65 L268.25 418.75 M283.8 399.3 L283.1 405.25 Q284.6 407.05 284.15 412.4 L284.0 413.5 284.7 412.65 284.9 412.35 285.35 409.95 286.4 410.2 Q293.5 402.15 300.2 396.0 M274.7 412.8 L275.1 412.2 274.05 411.95 273.9 411.9 274.05 409.2 274.4 408.5 278.75 408.5 283.15 414.25 283.2 414.6 283.45 414.25 284.0 413.5 M281.5 418.85 L283.75 418.15 283.65 415.9 282.65 415.8 282.3 415.75 279.7 415.45 279.05 417.25 281.0 417.75 281.0 417.15 M283.45 414.25 L284.8 412.7 284.7 412.65 M283.2 414.6 L283.2 415.25 282.55 415.6 282.65 415.8 M282.55 415.6 L282.3 415.75 M276.7 411.65 L275.1 412.2 M293.2 389.3 L289.2 390.95" fill="none" stroke="#000000" stroke-linecap="round" stroke-linejoin="round" stroke-opacity="0.3019608" stroke-width="1.0"/>
    <path d="M260.1 417.9 Q259.55 419.05 260.0 420.25 260.5 421.35 261.6 421.7 L264.05 421.65 264.55 421.4 Q265.35 420.85 265.8 419.95 L265.95 419.65 266.0 419.55 Q266.25 418.65 265.85 417.6 265.3 416.45 264.1 416.05 L263.1 415.85 262.05 416.1 261.75 416.2 260.85 416.9 260.1 417.9 Z" fill="none" stroke="#382510" stroke-linecap="round" stroke-linejoin="round" stroke-opacity="0.5019608" stroke-width="1.0"/>
    <path d="M265.8 419.95 Q265.25 421.1 264.05 421.65 L261.6 421.7 Q260.5 421.35 260.0 420.25 259.55 419.05 260.1 417.9 260.65 416.8 261.75 416.2 L264.1 416.05 Q265.3 416.45 265.85 417.6 266.35 418.9 265.8 419.95" fill="#760101" fill-rule="evenodd" stroke="none"/>
    <path d="M265.8 419.95 Q266.35 418.9 265.85 417.6 265.3 416.45 264.1 416.05 L261.75 416.2 Q260.65 416.8 260.1 417.9 259.55 419.05 260.0 420.25 260.5 421.35 261.6 421.7 L264.05 421.65 Q265.25 421.1 265.8 419.95 Z" fill="none" stroke="#382510" stroke-linecap="round" stroke-linejoin="round" stroke-opacity="0.5019608" stroke-width="0.5"/>
    <path d="M260.3 417.95 Q260.8 417.05 261.85 416.65 L263.8 416.5 Q264.75 416.8 265.15 417.85 265.55 418.7 265.1 419.7 264.7 420.65 263.65 421.15 L261.65 421.2 Q260.7 420.9 260.3 419.9 259.95 418.95 260.3 417.95" fill="#560000" fill-rule="evenodd" stroke="none"/>
    <path d="M262.05 419.25 L262.2 420.9 Q262.3 421.55 261.75 421.5 L260.8 420.8 260.55 419.55 Q260.55 418.8 260.95 418.35 261.45 417.8 261.9 417.75 262.4 417.8 262.2 418.05 262.05 418.3 262.05 419.25" fill="#c92d18" fill-rule="evenodd" stroke="none"/>
    <path d="M263.75 421.1 Q262.2 420.4 261.3 419.05 L262.05 417.35 262.9 419.2 265.7 419.75 263.75 421.1 262.9 419.2 263.75 421.1 M268.4 415.85 L268.8 416.25 Q268.8 416.85 268.05 417.7 L265.8 416.35 265.45 415.75 268.4 415.85 M264.5 414.05 L265.15 415.2 264.1 414.4 264.5 414.05" fill="#ae8b51" fill-rule="evenodd" stroke="none"/>
    <path d="M266.6 410.25 L266.6 412.65 267.95 414.15 270.2 415.2 268.4 415.85 270.2 415.2 269.05 417.35 267.5 419.05 265.7 419.75 267.5 419.05 266.4 420.2 264.55 421.4 263.75 421.1 265.7 419.75 268.05 417.7 Q268.8 416.85 268.8 416.25 L268.4 415.85 267.35 414.75 Q266.15 414.1 266.2 412.3 266.25 411.4 266.6 410.25 M269.05 417.35 L268.05 417.7 269.05 417.35" fill="#826840" fill-rule="evenodd" stroke="none"/>
    <path d="M261.3 419.05 L260.5 417.45 262.05 415.0 262.05 417.35 261.3 419.05 M263.1 413.65 L264.45 412.15 264.5 414.05 264.1 414.4 263.1 413.65" fill="#b09368" fill-rule="evenodd" stroke="none"/>
    <path d="M270.2 415.2 L272.0 414.55 270.05 417.0 268.25 418.75 266.4 420.2 267.5 419.05 269.05 417.35 270.2 415.2 M262.05 415.0 L263.1 413.65 264.1 414.4 262.05 417.35 262.05 415.0 M264.45 412.15 L266.6 410.25 Q266.25 411.4 266.2 412.3 L264.5 414.05 264.45 412.15 M270.05 417.0 L269.05 417.35 270.05 417.0 M268.25 418.75 L267.5 419.05 268.25 418.75" fill="#ad8e63" fill-rule="evenodd" stroke="none"/>
    <path d="M266.2 412.3 Q266.15 414.1 267.35 414.75 L268.4 415.85 265.45 415.75 265.8 416.35 268.05 417.7 265.7 419.75 262.9 419.2 262.05 417.35 264.1 414.4 265.15 415.2 264.5 414.05 266.2 412.3 M265.45 415.75 L265.15 415.2 265.45 415.75" fill="#9d7b48" fill-rule="evenodd" stroke="none"/>
    <path d="M266.6 410.25 Q267.95 409.15 269.45 408.2 L273.5 412.15 272.0 414.55 270.2 415.2 267.95 414.15 266.6 412.65 266.6 410.25" fill="#665133" fill-rule="evenodd" stroke="none"/>
    <path d="M272.0 414.55 L273.5 412.15 269.45 408.2 Q267.95 409.15 266.6 410.25 L264.45 412.15 264.5 414.05 265.15 415.2 265.45 415.75 268.4 415.85 270.2 415.2 272.0 414.55 270.05 417.0 268.25 418.75 266.4 420.2 264.55 421.4 263.75 421.1 Q262.2 420.4 261.3 419.05 L260.5 417.45 262.05 415.0 263.1 413.65 264.45 412.15 M269.05 417.35 L270.05 417.0 M267.5 419.05 L268.25 418.75 M268.05 417.7 L269.05 417.35 M264.1 414.4 L263.1 413.65 M265.45 415.75 L265.8 416.35 268.05 417.7 M265.7 419.75 L267.5 419.05 M265.15 415.2 L264.1 414.4 M262.05 417.35 L262.9 419.2 265.7 419.75 M262.05 415.0 L262.05 417.35 M262.9 419.2 L263.75 421.1" fill="none" stroke="#000000" stroke-linecap="round" stroke-linejoin="round" stroke-opacity="0.3019608" stroke-width="0.05"/>
    <path d="M282.45 415.35 L284.8 412.7 Q274.35 408.35 268.15 399.0 L264.75 400.25 264.3 401.8 261.55 403.8 Q269.9 417.2 281.4 418.7 L283.5 417.65 282.45 415.35" fill="#e6b100" fill-rule="evenodd" stroke="none"/>
    <path d="M282.45 415.35 L284.8 412.7 Q274.35 408.35 268.15 399.0 L264.75 400.25 264.3 401.8 261.55 403.8 Q269.9 417.2 281.4 418.7 L283.5 417.65 282.45 415.35 Z" fill="none" stroke="#000000" stroke-linecap="round" stroke-linejoin="round" stroke-opacity="0.3019608" stroke-width="0.05"/>
    <path d="M284.0 413.5 L284.9 412.35 285.35 409.95 286.4 410.2 Q293.5 402.15 300.2 396.0 L297.4 393.15 297.35 390.9 297.3 390.95 Q295.3 390.55 293.2 389.3 L288.0 391.4 293.2 389.3 289.85 387.1 288.6 388.95 288.55 389.0 288.0 391.4 287.5 393.8 283.85 398.75 283.1 405.25 Q284.75 407.2 284.0 413.5" fill="#5c5334" fill-rule="evenodd" stroke="none"/>
    <path d="M281.15 384.05 L267.45 399.1 264.95 402.7 280.95 385.05 281.15 384.05" fill="#4f462c" fill-rule="evenodd" stroke="none"/>
    <path d="M301.1 395.05 Q299.85 392.7 299.35 389.7 L297.1 390.1 Q293.45 388.65 290.35 386.1 L289.05 387.35 281.15 384.05 280.95 385.05 Q284.75 386.95 288.55 389.0 L288.6 388.95 289.85 387.1 293.2 389.3 Q295.3 390.55 297.3 390.95 L297.35 390.9 299.1 390.75 Q299.55 393.45 301.1 395.05" fill="#8a7c4e" fill-rule="evenodd" stroke="none"/>
    <path d="M300.2 396.0 L301.1 395.05 Q299.55 393.45 299.1 390.75 L297.35 390.9 297.4 393.15 300.2 396.0 M264.95 402.7 Q271.95 411.65 281.9 416.25 L284.0 413.5 Q284.75 407.2 283.1 405.25 L283.85 398.75 287.5 393.8 288.0 391.4 288.55 389.0 Q284.75 386.95 280.95 385.05 L264.95 402.7 M283.15 399.8 L283.85 398.75 283.15 399.8" fill="#50482d" fill-rule="evenodd" stroke="none"/>
    <path d="M284.0 413.5 L284.9 412.35 285.35 409.95 286.4 410.2 Q293.5 402.15 300.2 396.0 L301.1 395.05 Q299.85 392.7 299.35 389.7 L297.1 390.1 Q293.45 388.65 290.35 386.1 L289.05 387.35 281.15 384.05 267.45 399.1 264.95 402.7 Q271.95 411.65 281.9 416.25 L284.0 413.5 Q284.75 407.2 283.1 405.25 L283.85 398.75 287.5 393.8 288.0 391.4 293.2 389.3 M297.35 390.9 L297.4 393.15 300.2 396.0 M283.85 398.75 L283.15 399.8 M288.55 389.0 L288.6 388.95 M288.55 389.0 L288.0 391.4" fill="none" stroke="#000000" stroke-linecap="round" stroke-linejoin="round" stroke-opacity="0.3019608" stroke-width="0.05"/>
    <path d="M266.85 400.25 L269.7 398.65 Q269.95 398.25 270.3 398.15 L271.05 397.95 271.5 398.0 Q271.6 397.9 271.95 398.15 272.3 398.45 272.5 397.85 L272.65 397.1 272.9 395.9 Q273.1 394.85 273.95 393.9 275.0 392.95 276.35 392.6 L278.7 392.65 280.65 393.3 281.0 391.95 Q281.15 391.3 281.75 390.3 282.45 389.35 283.25 388.95 284.05 388.6 284.55 388.95 285.05 389.3 285.0 390.2 284.95 390.65 285.45 391.65 285.7 395.7 288.55 389.0 284.2 387.6 280.85 385.05 L266.85 400.25 M278.7 390.45 L279.4 391.0 Q279.85 391.4 279.3 391.75 L278.4 391.85 278.05 391.4 277.85 391.15 Q277.8 390.85 277.9 390.65 278.05 390.45 278.25 390.45 L278.7 390.45 M280.75 390.45 L280.5 390.75 280.1 390.65 279.95 390.35 Q279.9 390.05 280.0 389.85 L280.4 389.6 280.8 389.65 280.95 390.0 280.75 390.45 M271.8 396.1 L272.05 396.05 272.15 396.35 272.0 396.6 271.8 396.9 271.55 396.85 271.45 396.65 271.55 396.25 Q271.7 396.1 271.8 396.1" fill="#66180c" fill-rule="evenodd" stroke="none"/>
    <path d="M266.85 400.25 L280.85 385.05 281.1 384.1 266.5 399.85 266.85 400.25" fill="#4c1209" fill-rule="evenodd" stroke="none"/>
    <path d="M280.85 385.05 Q284.2 387.6 288.55 389.0 287.25 387.35 288.95 387.35 L281.1 384.1 280.85 385.05" fill="#c92d18" fill-rule="evenodd" stroke="none"/>
    <path d="M286.35 390.8 L285.85 391.45 Q285.7 391.9 285.8 392.4 L286.2 392.9 286.8 392.8 287.3 392.05 287.35 391.2 Q287.25 390.75 287.0 390.65 286.7 390.55 286.35 390.8" fill="#66180c" fill-rule="evenodd" stroke="none"/>
    <path d="M288.6 390.05 Q288.3 390.1 288.15 390.3 288.0 390.5 288.1 390.75 L288.35 391.15 288.75 391.25 289.15 391.0 289.25 390.55 289.0 390.15 288.6 390.05" fill="#66180c" fill-rule="evenodd" stroke="none"/>
    <path d="M288.6 397.8 L288.2 397.85 Q288.1 398.0 288.3 398.25 L288.7 398.75 289.3 399.15 289.65 399.05 289.6 398.7 289.15 398.2 288.6 397.8" fill="#66180c" fill-rule="evenodd" stroke="none"/>
    <path d="M297.45 395.2 Q297.15 395.25 297.0 395.45 296.85 395.65 296.95 395.9 L297.2 396.3 297.6 396.4 298.0 396.15 298.1 395.7 297.85 395.3 297.45 395.2" fill="#66180c" fill-rule="evenodd" stroke="none"/>
    <path d="M282.75 398.2 Q282.45 397.9 282.3 397.95 282.1 398.05 282.05 398.3 L282.1 398.85 282.5 399.35 282.9 399.4 283.15 399.25 283.0 398.9 282.75 398.2" fill="#66180c" fill-rule="evenodd" stroke="none"/>
    <path d="M279.25 392.75 Q279.2 391.95 279.0 392.0 278.85 392.05 279.0 392.8 L279.2 394.95 279.55 396.85 Q279.75 397.3 279.85 397.15 L279.95 396.4 279.6 394.65 279.25 392.75" fill="#521209" fill-rule="evenodd" stroke="none"/>
    <path d="M279.15 393.9 L279.95 394.25 280.5 393.9 280.55 393.3 280.0 392.6 279.25 392.35 Q278.85 392.3 278.65 392.6 278.5 392.9 278.65 393.3 L279.15 393.9" fill="#66180c" fill-rule="evenodd" stroke="none"/>
    <path d="M291.0 398.9 L290.7 398.95 290.6 399.2 Q290.55 399.4 290.65 399.5 290.7 399.65 290.9 399.65 L291.15 399.6 291.3 399.35 291.25 399.05 291.0 398.9" fill="#66180c" fill-rule="evenodd" stroke="none"/>
    <path d="M278.4 393.6 Q279.0 393.3 278.95 392.95 L278.25 392.45 276.75 392.35 275.3 392.75 274.25 393.25 Q273.75 393.5 275.25 393.25 L277.25 393.4 Q277.8 393.9 278.4 393.6" fill="#66180c" fill-rule="evenodd" stroke="none"/>
    <path d="M275.45 392.45 L274.95 392.5 274.15 393.0 273.45 393.7 Q273.25 394.05 273.35 394.2 L273.7 393.95 274.35 393.35 275.2 392.75 275.45 392.45" fill="#ce3017" fill-rule="evenodd" stroke="none"/>
    <path d="M276.2 392.65 L276.0 392.7 276.05 392.85 276.15 393.05 276.4 393.1 276.5 393.05 276.55 392.9 276.35 392.75 276.2 392.65" fill="#ce3017" fill-rule="evenodd" stroke="none"/>
    <path d="M297.7 395.6 L297.55 395.7 297.5 395.9 297.6 396.05 297.8 396.1 297.95 396.0 298.0 395.8 297.85 395.65 297.7 395.6" fill="#ce3017" fill-rule="evenodd" stroke="none"/>
    <path d="M272.9 399.35 L272.5 399.3 272.3 399.6 272.35 400.15 272.7 400.6 273.05 400.7 273.3 400.35 273.25 399.8 272.9 399.35" fill="#66180c" fill-rule="evenodd" stroke="none"/>
    <path d="M278.8 405.75 Q282.8 400.3 288.55 393.5 283.2 399.55 277.6 404.6 L274.55 408.45 Q270.7 407.75 266.35 405.05 L272.4 410.75 272.45 410.7 278.35 415.25 Q275.65 411.95 275.25 409.0 L278.8 405.75" fill="#2c2718" fill-rule="evenodd" stroke="none"/>
    <path d="M274.25 413.5 L275.1 412.2 273.9 411.9 274.05 409.2 278.6 409.55 283.2 415.25 281.25 416.3 Q276.85 415.15 274.25 413.5 M275.1 412.2 L276.7 411.65 275.1 412.2" fill="#cd9f07" fill-rule="evenodd" stroke="none"/>
    <path d="M274.05 409.2 L274.4 408.5 278.75 408.5 283.15 414.25 283.2 415.25 278.6 409.55 274.05 409.2" fill="#bb6906" fill-rule="evenodd" stroke="none"/>
    <path d="M274.25 413.5 L275.1 412.2 273.9 411.9 274.05 409.2 274.4 408.5 278.75 408.5 283.15 414.25 283.2 415.25 281.25 416.3 M276.7 411.65 L275.1 412.2" fill="none" stroke="#000000" stroke-linecap="round" stroke-linejoin="round" stroke-opacity="0.3019608" stroke-width="0.05"/>
    <path d="M271.0 406.75 L271.0 408.4 271.0 406.75 M274.1 408.45 L271.6 409.4 271.0 408.4 269.95 409.6 Q267.6 407.65 265.15 403.8 L265.55 401.55 272.25 404.5 274.1 408.45" fill="#cd9f07" fill-rule="evenodd" stroke="none"/>
    <path d="M265.55 401.55 L265.75 400.7 272.45 403.3 274.35 407.5 274.1 408.45 272.25 404.5 265.55 401.55" fill="#bb6906" fill-rule="evenodd" stroke="none"/>
    <path d="M271.0 408.4 L271.0 406.75 M274.1 408.45 L271.6 409.4 271.0 408.4 269.95 409.6 M265.15 403.8 L265.55 401.55 265.75 400.7 272.45 403.3 274.35 407.5 274.1 408.45" fill="none" stroke="#000000" stroke-linecap="round" stroke-linejoin="round" stroke-opacity="0.3019608" stroke-width="0.05"/>
    <path d="M279.25 416.5 L279.6 415.95 Q272.05 411.45 265.5 405.3 L265.0 405.55 Q271.65 412.45 279.25 416.5" fill="#ffcc00" fill-rule="evenodd" stroke="none"/>
    <path d="M281.5 418.85 L279.0 417.3 279.7 415.45 283.65 415.9 283.75 418.15 281.5 418.85" fill="#e6b100" fill-rule="evenodd" stroke="none"/>
    <path d="M281.5 418.85 L283.75 418.15 283.65 415.9 279.7 415.45 279.0 417.3" fill="none" stroke="#000000" stroke-linecap="round" stroke-linejoin="round" stroke-opacity="0.3019608" stroke-width="0.05"/>
    <path d="M279.05 417.25 L281.05 417.75" fill="none" stroke="#000000" stroke-linecap="round" stroke-linejoin="round" stroke-opacity="0.3019608" stroke-width="0.05"/>
    <path d="M281.0 417.75 L281.0 417.15" fill="none" stroke="#000000" stroke-linecap="round" stroke-linejoin="round" stroke-opacity="0.3019608" stroke-width="0.05"/>
    <path d="M263.45 405.55 L261.4 403.8 262.45 401.7 264.95 401.9 265.75 405.25 263.45 405.55" fill="#e6b100" fill-rule="evenodd" stroke="none"/>
    <path d="M261.4 403.8 L262.45 401.7 264.95 401.9 265.75 405.25 263.45 405.55" fill="none" stroke="#000000" stroke-linecap="round" stroke-linejoin="round" stroke-opacity="0.3019608" stroke-width="0.05"/>
    <path d="M263.5 405.5 L262.65 403.65" fill="none" stroke="#000000" stroke-linecap="round" stroke-linejoin="round" stroke-opacity="0.3019608" stroke-width="0.05"/>
    <path d="M262.6 403.7 L263.35 403.75" fill="none" stroke="#000000" stroke-linecap="round" stroke-linejoin="round" stroke-opacity="0.3019608" stroke-width="0.05"/>
  </g>
</svg>
