<?xml version="1.0" encoding="UTF-8" standalone="no"?>
<svg xmlns:xlink="http://www.w3.org/1999/xlink" height="44.2px" width="40.25px" xmlns="http://www.w3.org/2000/svg">
  <g transform="matrix(1.0, 0.0, 0.0, 1.0, -260.35, -380.85)">
    <path d="M290.9 406.25 Q290.5 406.25 290.05 406.6 L289.95 407.45 289.75 408.3 289.55 408.65 Q289.2 409.45 288.7 409.7 L288.65 409.7 288.2 409.9 287.95 410.95 288.45 410.45 288.65 410.3 289.5 409.7 289.9 409.95 290.2 410.05 290.85 411.15 290.9 411.4 291.05 411.05 291.2 410.5 290.75 409.6 290.55 408.5 290.55 408.3 290.65 407.1 290.9 406.25 291.25 406.25 291.55 406.4 Q292.0 406.7 292.2 407.95 L292.05 408.4 291.2 410.5 M291.25 406.25 L291.25 406.95 291.3 407.0 291.25 407.05 Q291.2 407.65 291.4 407.8 L291.65 408.3 292.05 408.4 M291.05 411.05 L292.6 410.3 292.65 410.3 293.15 410.15 293.4 410.1 293.45 410.05 293.6 410.0 293.7 409.95 293.75 409.95 294.2 410.25 294.4 410.6 294.35 410.75 294.3 410.95 294.25 411.0 294.2 411.05 293.45 411.65 292.95 412.05 291.9 413.1 291.2 413.95 291.55 414.15 M293.35 415.3 L295.7 416.75 297.7 417.85 297.8 418.0 298.0 418.1 M299.3 418.7 L299.5 418.8 M296.65 421.6 L295.3 421.05 293.45 420.15 293.4 420.1 289.45 418.6 288.65 418.25 288.65 418.4 288.8 419.85 289.0 421.25 289.1 421.9 289.35 422.85 289.4 422.9 289.4 423.0 289.35 423.2 289.25 423.35 288.9 423.5 288.4 423.45 288.35 423.45 288.25 423.35 288.15 423.25 287.95 422.95 287.75 422.55 287.7 422.5 286.45 420.2 286.35 419.95 285.45 421.2 283.5 423.5 283.3 423.75 282.8 424.2 Q282.35 424.65 282.15 424.5 L282.05 424.3 282.35 423.05 282.65 422.5 283.7 420.85 285.45 417.5 285.4 417.25 285.45 417.15 285.5 417.05 M287.6 412.1 L287.65 411.9 287.95 410.95 M293.4 410.1 L293.35 410.1 293.3 410.3 293.25 410.3 293.3 410.45 293.3 410.5 293.4 410.65 293.65 410.45 293.6 410.4 293.65 410.35 293.75 410.35 294.05 410.5 294.1 410.6 293.95 410.8 Q293.8 410.85 293.7 410.7 L293.65 410.45 293.75 410.35 M293.4 410.65 L293.6 410.9 293.8 411.05 294.05 411.1 294.15 411.05 294.2 411.05 M293.45 411.65 L293.15 411.6 292.85 411.6 292.5 411.4 292.5 411.2 Q292.5 410.95 292.65 410.8 L292.75 410.65 293.15 410.15 M292.6 410.3 L291.5 411.25 291.4 411.35 Q290.85 411.8 290.8 412.15 290.75 412.55 291.4 412.4 L292.6 412.1 292.95 412.05 M290.9 411.4 L290.75 411.7 290.6 412.1 290.1 413.3 290.25 413.4 290.4 413.5 291.1 413.2 291.4 413.15 291.9 413.1 M290.6 412.1 L290.5 411.9 290.3 411.65 290.2 411.5 290.15 411.45 289.3 411.2 289.2 411.25 288.95 411.3 287.85 412.2 287.75 412.35 M287.55 414.3 L287.15 415.9 287.0 416.25 286.95 416.4 286.7 417.1 286.25 418.45 286.05 418.95 286.0 419.15 Q285.5 420.5 285.45 421.2 M292.85 415.95 L293.65 416.3 293.7 416.35 295.7 416.75 M291.1 414.85 L289.75 414.05 289.5 414.55 290.5 414.8 291.0 414.95 M290.4 413.5 L291.2 413.95 M296.95 420.75 L296.9 420.75 296.65 420.5 295.95 419.8 295.75 419.55 294.5 418.15 294.45 418.15 294.45 418.1 296.05 418.0 296.4 418.1 296.5 418.2 296.6 418.15 296.9 418.2 297.6 418.65 M291.65 417.0 L292.3 417.6 294.1 419.65 294.3 419.85 295.3 421.05 M289.45 418.6 L290.05 418.3 290.2 418.1 290.3 418.05 291.05 418.0 Q292.0 418.1 292.85 419.35 L293.4 420.1 M297.25 419.65 Q297.0 419.65 297.0 419.95 L297.15 420.05 M288.65 418.1 L288.65 418.25 M289.7 406.85 L289.5 406.95 288.8 407.65 288.7 408.0 288.65 408.2 288.55 408.6 289.15 408.1 289.2 408.0 289.35 407.7 289.5 407.4 289.7 406.85 290.05 406.6 M288.2 409.9 L288.55 408.6 M290.1 413.3 L290.05 413.35 290.25 413.4 M286.15 417.45 L286.1 417.6 286.05 417.75 286.05 417.85 285.85 418.7 285.0 420.3 284.2 421.8 284.05 422.1 283.75 422.8 283.5 423.5 M289.5 414.55 L288.5 416.5 289.25 416.35 289.45 416.35 M288.5 416.5 L288.45 416.6 288.2 417.0 M290.05 413.35 L289.75 414.05 M286.0 417.3 L284.7 419.65 284.4 420.2 283.7 420.85 M282.65 422.5 Q283.2 421.8 283.35 422.0 L283.35 422.15 283.35 422.7 283.25 423.2 282.8 424.2 M288.2 417.9 L288.4 418.1 288.65 418.4 M287.8 417.7 L287.55 418.1 287.7 418.4 288.15 419.25 288.35 419.5 288.8 419.85 M287.55 418.1 L287.55 418.15 286.75 419.4 286.7 419.6 286.55 420.05 286.45 420.2 M285.65 417.1 L285.45 417.5 M286.75 419.4 L286.65 419.5 286.35 419.95 M287.7 422.5 L287.35 421.05 287.3 421.0 Q287.05 420.25 287.3 419.9 287.5 419.55 287.85 420.05 L288.0 420.15 288.75 421.05 289.0 421.25 M289.1 421.9 L288.9 421.75 288.65 421.65 288.25 421.6 288.1 421.7 287.95 422.15 287.95 422.3 287.95 422.95 M288.15 423.25 L288.15 423.1 288.15 422.95 288.2 422.9 288.3 422.8 288.35 422.75 288.5 422.7 288.8 422.6 289.05 422.65 289.25 422.7 289.3 422.8 289.35 422.85 M289.0 422.9 L288.75 422.85 288.6 423.0 288.65 423.15 288.9 423.2 289.0 423.15 289.0 422.9 M288.6 423.0 L288.5 423.0 288.5 423.1 288.65 423.15 M288.6 423.0 L288.5 422.7" fill="none" stroke="#000000" stroke-linecap="round" stroke-linejoin="round" stroke-opacity="0.2509804" stroke-width="1.0"/>
    <path d="M291.55 414.15 L291.8 413.7 293.45 415.15 293.35 415.3 292.9 415.9 292.85 415.95 291.65 417.0 290.2 417.8 289.75 417.95 288.95 418.2 288.65 418.1 288.2 417.9 287.8 417.7 287.05 417.4 288.2 417.0 288.6 416.8 289.45 416.35 291.0 414.95 291.1 414.85 291.55 414.15 M298.0 418.1 L298.6 418.35 299.2 418.65 299.2 419.05 299.3 418.7 M299.5 418.8 L300.1 419.05 Q299.95 421.3 299.05 422.75 L298.15 422.3 297.55 422.05 296.65 421.6 296.9 420.85 296.95 420.75 296.95 420.5 297.15 420.05 297.25 419.65 297.35 419.15 297.5 418.75 297.6 418.65 297.8 418.0 M298.15 422.3 L298.45 421.55 298.5 421.2 299.0 419.5 299.1 419.35 299.2 419.05 M298.6 418.35 Q298.4 420.65 297.55 422.05" fill="none" stroke="#000000" stroke-linecap="round" stroke-linejoin="round" stroke-opacity="0.4509804" stroke-width="1.0"/>
    <path d="M285.5 417.05 L280.9 413.9 279.6 412.85 279.4 412.7 279.4 411.9 278.85 412.3 Q274.85 409.1 271.8 405.5 L269.25 402.4 269.65 400.5 267.9 400.4 Q264.1 394.55 262.2 387.8 L263.55 386.85 261.6 385.65 260.85 381.35 M271.8 384.05 L272.35 387.45 271.25 388.15 272.55 389.05 Q273.05 391.3 273.85 393.75 L274.7 395.95 Q276.95 401.3 280.75 407.0 282.25 409.05 284.15 410.35 L285.4 411.1 Q285.8 411.45 286.35 411.55 L287.6 412.1 M287.75 412.35 L287.75 412.85 287.55 414.3 287.5 414.4 287.45 414.5 287.0 415.85 287.0 416.0 286.95 416.35 286.7 416.7 286.6 416.85 286.25 417.45 286.2 417.45 286.15 417.45 286.0 417.3 285.65 417.1 285.5 417.05 M274.7 395.95 L272.3 395.4 271.85 396.7 M278.25 410.3 L279.55 410.4 279.55 410.05 279.8 408.95 M279.55 410.4 L279.4 411.45 279.4 411.9 M287.65 411.9 L287.75 412.35" fill="none" stroke="#000000" stroke-linecap="round" stroke-linejoin="round" stroke-opacity="0.3019608" stroke-width="1.0"/>
    <path d="M260.85 381.35 L271.8 384.05" fill="none" stroke="#000000" stroke-linecap="round" stroke-linejoin="round" stroke-opacity="0.2" stroke-width="1.0"/>
    <path d="M287.55 413.9 L290.15 412.05 289.6 412.7 Q289.0 413.3 288.95 413.6 L289.1 413.9 289.4 413.95 289.65 413.85 289.4 413.95 289.1 413.9 288.95 413.6 Q289.0 413.3 289.6 412.7 L290.15 412.05 291.4 411.35 291.5 411.25 292.65 410.8 Q292.5 410.95 292.5 411.2 L292.5 411.4 292.5 411.2 Q292.5 410.95 292.65 410.8 293.0 410.6 293.3 410.5 L293.4 410.65 Q293.25 411.1 292.5 411.4 292.3 411.9 291.4 412.4 291.1 413.1 289.65 413.85 L288.7 414.7 288.05 415.25 287.7 414.9 287.7 414.85 287.65 414.75 287.6 414.65 287.55 414.5 287.55 413.9 M290.2 415.2 L290.1 415.35 289.95 415.4 290.2 415.2 M288.7 414.7 L288.35 414.8 288.05 414.9 287.7 414.9 288.05 414.9 288.35 414.8 288.7 414.7 M291.4 412.4 Q290.75 412.55 290.8 412.15 290.85 411.8 291.4 411.35 290.85 411.8 290.8 412.15 290.75 412.55 291.4 412.4" fill="#593e25" fill-rule="evenodd" stroke="none"/>
    <path d="M287.55 413.9 L287.6 413.3 287.65 413.25 287.7 413.15 Q288.8 412.2 290.25 411.45 L290.3 411.6 290.15 412.05 290.3 411.6 290.25 411.45 Q291.35 410.8 292.6 410.3 L292.65 410.3 293.15 410.15 293.45 410.05 293.35 410.1 293.3 410.3 293.25 410.3 293.3 410.45 293.3 410.5 Q293.0 410.6 292.65 410.8 L291.5 411.25 291.4 411.35 290.15 412.05 287.55 413.9 M292.6 410.3 L291.5 411.25 292.6 410.3 M293.15 410.15 L292.75 410.65 292.65 410.8 292.75 410.65 293.15 410.15" fill="#91653c" fill-rule="evenodd" stroke="none"/>
    <path d="M289.75 415.5 L289.65 415.55 289.6 415.55 289.75 415.5" fill="#301f14" fill-rule="evenodd" stroke="none"/>
    <path d="M293.45 410.05 L293.6 410.0 293.7 409.95 293.75 409.95 294.2 410.25 294.4 410.6 294.35 410.75 294.3 410.95 294.25 411.0 294.2 411.05 294.15 411.05 294.05 411.1 293.8 411.05 293.6 410.9 293.4 410.65 293.3 410.5 293.3 410.45 293.25 410.3 293.3 410.3 293.35 410.1 293.45 410.05 M293.65 410.45 L293.7 410.7 Q293.8 410.85 293.95 410.8 L294.1 410.6 294.05 410.5 293.75 410.35 293.65 410.35 293.6 410.4 293.65 410.45 293.4 410.65 293.65 410.45" fill="#6b4a2c" fill-rule="evenodd" stroke="none"/>
    <path d="M293.65 410.45 L293.6 410.4 293.65 410.35 293.75 410.35 294.05 410.5 294.1 410.6 293.95 410.8 Q293.8 410.85 293.7 410.7 L293.65 410.45 293.75 410.35 293.65 410.45" fill="#422b1c" fill-rule="evenodd" stroke="none"/>
    <path d="M294.2 411.05 L293.45 411.65 292.95 412.05 291.9 413.1 290.95 414.2 290.2 415.2 289.95 415.4 289.75 415.5 289.6 415.55 289.2 415.5 288.05 415.25 288.7 414.7 289.65 413.85 290.15 413.6 291.1 413.2 291.4 413.15 291.9 413.1 291.4 413.15 291.1 413.2 290.15 413.6 289.65 413.85 Q291.1 413.1 291.4 412.4 292.3 411.9 292.5 411.4 293.25 411.1 293.4 410.65 L293.6 410.9 293.8 411.05 294.05 411.1 294.15 411.05 294.2 411.05 M288.7 414.7 L289.1 414.55 290.0 414.35 290.95 414.2 290.0 414.35 289.1 414.55 288.7 414.7 M291.4 412.4 L292.6 412.1 292.95 412.05 292.6 412.1 291.4 412.4 M292.5 411.4 L292.85 411.6 293.15 411.6 293.45 411.65 293.15 411.6 292.85 411.6 292.5 411.4" fill="#382717" fill-rule="evenodd" stroke="none"/>
    <path d="M290.25 411.45 Q288.8 412.2 287.7 413.15 L287.65 413.25 287.6 413.3 287.55 413.9 287.55 414.5 287.6 414.65 287.65 414.75 287.7 414.85 287.7 414.9 288.05 414.9 288.35 414.8 288.7 414.7 289.1 414.55 290.0 414.35 290.95 414.2 290.2 415.2 290.1 415.35 M290.15 412.05 L290.3 411.6 290.25 411.45 Q291.35 410.8 292.6 410.3 L292.65 410.3 293.15 410.15 293.45 410.05 293.6 410.0 293.7 409.95 293.75 409.95 294.2 410.25 294.4 410.6 294.35 410.75 294.3 410.95 294.25 411.0 294.2 411.05 293.45 411.65 292.95 412.05 291.9 413.1 290.95 414.2 M289.65 415.55 L289.6 415.55 289.2 415.5 288.05 415.25 287.7 414.9 M289.65 413.85 L289.4 413.95 289.1 413.9 288.95 413.6 Q289.0 413.3 289.6 412.7 L290.15 412.05 M291.4 411.35 L291.5 411.25 292.6 410.3 M289.65 413.85 L290.15 413.6 291.1 413.2 291.4 413.15 291.9 413.1 M289.6 415.55 L289.75 415.5 M292.95 412.05 L292.6 412.1 291.4 412.4 Q290.75 412.55 290.8 412.15 290.85 411.8 291.4 411.35 M292.5 411.4 L292.5 411.2 Q292.5 410.95 292.65 410.8 L292.75 410.65 293.15 410.15 M293.4 410.65 L293.3 410.5 293.3 410.45 293.25 410.3 293.3 410.3 293.35 410.1 293.45 410.05 M293.4 410.65 L293.6 410.9 293.8 411.05 294.05 411.1 294.15 411.05 294.2 411.05 M293.45 411.65 L293.15 411.6 292.85 411.6 292.5 411.4 M289.95 415.4 L290.2 415.2 M293.65 410.45 L293.6 410.4 293.65 410.35 293.75 410.35 294.05 410.5 294.1 410.6 293.95 410.8 Q293.8 410.85 293.7 410.7 L293.65 410.45 293.4 410.65 M293.75 410.35 L293.65 410.45" fill="none" stroke="#000000" stroke-linecap="round" stroke-linejoin="round" stroke-opacity="0.2509804" stroke-width="0.05"/>
    <path d="M288.8 413.2 L290.25 413.4 289.05 412.7 288.8 413.2 M291.7 414.25 L291.3 414.95 291.65 415.1 292.1 415.35 292.45 415.55 Q293.0 416.0 293.65 416.3 L293.7 416.35 296.2 417.95 296.4 418.1 296.5 418.2 296.6 418.15 296.9 418.3 297.5 418.75 297.6 418.65 297.8 418.0 298.0 418.1 297.9 417.95 297.8 418.0 297.7 417.85 295.7 416.75 291.7 414.25 M297.6 418.65 L296.9 418.2 296.6 418.15 296.9 418.2 297.6 418.65 M293.7 416.35 L295.7 416.75 293.7 416.35" fill="#593e25" fill-rule="evenodd" stroke="none"/>
    <path d="M286.9 416.4 L286.55 417.15 287.1 417.5 287.15 417.55 287.4 417.1 287.65 416.85 287.4 417.1 287.15 417.55 289.45 418.6 290.05 418.3 290.2 418.1 290.3 418.05 290.2 418.1 290.05 418.3 289.45 418.6 293.4 420.1 293.45 420.15 295.3 421.05 294.3 419.85 295.3 421.05 296.65 421.6 Q296.7 421.2 296.9 420.85 L296.95 420.5 296.8 420.5 296.65 420.5 295.95 420.4 294.3 419.85 292.85 419.35 293.4 420.1 292.85 419.35 Q291.65 418.9 290.3 418.05 L290.05 418.1 287.65 416.85 286.9 416.4 M296.9 420.85 L296.9 420.75 296.65 420.5 296.9 420.75 296.9 420.85" fill="#cf9056" fill-rule="evenodd" stroke="none"/>
    <path d="M292.45 415.55 L292.1 415.35 291.65 415.1 291.3 414.95 291.25 415.2 290.7 416.5 290.05 418.1 290.3 418.05 291.05 418.0 Q292.0 418.1 292.85 419.35 292.0 418.1 291.05 418.0 L290.3 418.05 Q291.65 418.9 292.85 419.35 L294.3 419.85 294.1 419.65 292.3 417.6 Q291.7 416.9 290.7 416.5 291.7 416.9 292.3 417.6 L294.1 419.65 294.3 419.85 295.95 420.4 296.65 420.5 295.95 419.8 295.75 419.55 294.5 418.15 294.45 418.15 294.45 418.1 296.05 418.0 296.4 418.1 296.05 418.0 294.45 418.1 294.45 418.15 294.5 418.15 295.75 419.55 295.95 419.8 296.65 420.5 296.8 420.5 296.95 420.5 297.15 420.05 297.0 419.95 297.05 419.6 297.25 419.55 297.05 419.6 297.0 419.95 297.15 420.05 297.25 419.55 297.35 419.15 297.5 418.75 296.9 418.3 296.6 418.15 296.5 418.2 296.4 418.1 296.2 417.95 293.7 416.35 293.65 416.3 Q293.0 416.0 292.45 415.55 M293.65 416.3 L291.25 415.2 293.65 416.3" fill="#91653c" fill-rule="evenodd" stroke="none"/>
    <path d="M286.9 416.4 L287.65 416.85 287.85 416.65 289.25 416.35 290.5 416.45 290.7 416.5 291.25 415.2 291.3 414.95 288.65 413.4 287.8 414.9 287.7 415.05 286.9 416.4 M287.8 414.9 L287.95 414.8 291.1 415.0 291.25 415.2 291.1 415.0 287.95 414.8 287.8 414.9 M290.05 418.1 L290.7 416.5 290.5 416.45 289.25 416.35 287.85 416.65 287.65 416.85 290.05 418.1" fill="#785332" fill-rule="evenodd" stroke="none"/>
    <path d="M288.8 413.2 L288.65 413.4 291.3 414.95 291.7 414.25 290.25 413.4 288.8 413.2" fill="#452f1c" fill-rule="evenodd" stroke="none"/>
    <path d="M299.3 418.7 L299.2 419.05 299.1 419.35 299.0 419.5 298.65 420.75 298.5 421.2 298.45 421.55 298.15 422.3 299.05 422.75 Q299.95 421.3 300.1 419.05 L299.5 418.8 299.3 418.7 M298.6 418.35 L298.0 418.1 297.8 418.0 297.6 418.65 297.5 418.75 297.35 419.15 297.15 420.05 296.95 420.5 296.9 420.85 Q296.7 421.2 296.65 421.6 L297.55 422.05 Q298.4 420.65 298.6 418.35" fill="#996600" fill-rule="evenodd" stroke="none"/>
    <path d="M298.15 422.3 L298.45 421.55 298.5 421.2 298.65 420.75 299.0 419.5 299.1 419.35 299.2 419.05 299.2 418.65 298.6 418.35 Q298.4 420.65 297.55 422.05 L298.15 422.3" fill="#333333" fill-rule="evenodd" stroke="none"/>
    <path d="M287.65 416.85 L287.4 417.1 287.15 417.55 287.1 417.5 286.55 417.15 M288.8 413.2 L290.25 413.4 291.7 414.25 295.7 416.75 293.7 416.35 293.65 416.3 291.25 415.2 291.1 415.0 287.95 414.8 287.8 414.9 287.7 415.05 M291.3 414.95 L288.65 413.4 M289.05 412.7 L290.25 413.4 M292.45 415.55 L292.1 415.35 291.65 415.1 291.3 414.95 M290.7 416.5 Q291.7 416.9 292.3 417.6 L294.1 419.65 294.3 419.85 295.3 421.05 293.45 420.15 293.4 420.1 292.85 419.35 Q292.0 418.1 291.05 418.0 L290.3 418.05 290.2 418.1 290.05 418.3 289.45 418.6 287.15 417.55 M296.4 418.1 L296.05 418.0 294.45 418.1 294.45 418.15 294.5 418.15 295.75 419.55 295.95 419.8 296.65 420.5 296.9 420.75 296.9 420.85 M287.65 416.85 L287.85 416.65 289.25 416.35 290.5 416.45 290.7 416.5 M297.9 417.95 L297.8 418.0 297.7 417.85 295.7 416.75 M299.3 418.7 L299.5 418.8 M297.25 419.55 L297.05 419.6 297.0 419.95 297.15 420.05 M296.65 421.6 L295.3 421.05 M297.8 418.0 L298.0 418.1 M296.4 418.1 L296.5 418.2 296.6 418.15 296.9 418.2 297.6 418.65 M289.45 418.6 L293.4 420.1" fill="none" stroke="#000000" stroke-linecap="round" stroke-linejoin="round" stroke-opacity="0.2509804" stroke-width="0.05"/>
    <path d="M299.2 419.05 L299.3 418.7 M299.5 418.8 L300.1 419.05 Q299.95 421.3 299.05 422.75 L298.15 422.3 298.45 421.55 298.5 421.2 298.65 420.75 299.0 419.5 299.1 419.35 299.2 419.05 299.2 418.65 298.6 418.35 298.0 418.1 M297.15 420.05 L296.95 420.5 296.9 420.85 Q296.7 421.2 296.65 421.6 L297.55 422.05 Q298.4 420.65 298.6 418.35 M297.35 419.15 L297.5 418.75 297.6 418.65 297.8 418.0 M298.15 422.3 L297.55 422.05 M297.15 420.05 L297.35 419.15" fill="none" stroke="#000000" stroke-linecap="round" stroke-linejoin="round" stroke-opacity="0.4509804" stroke-width="0.05"/>
    <path d="M293.45 415.15 L291.8 413.7 Q290.3 416.5 287.05 417.4 L288.95 418.2 Q291.85 417.45 293.45 415.15" fill="#333333" fill-rule="evenodd" stroke="none"/>
    <path d="M293.45 415.15 Q291.85 417.45 288.95 418.2 L287.05 417.4 Q290.3 416.5 291.8 413.7 L293.45 415.15 Z" fill="none" stroke="#000000" stroke-linecap="round" stroke-linejoin="round" stroke-opacity="0.4509804" stroke-width="0.05"/>
    <path d="M285.75 416.65 Q286.05 418.1 286.7 419.6 L286.7 418.85 Q286.55 418.0 286.7 417.7 L286.95 417.5 287.25 417.65 287.4 417.9 287.25 417.65 286.95 417.5 286.7 417.7 Q286.55 418.0 286.7 418.85 L286.7 419.6 287.3 421.0 287.35 421.05 287.95 422.15 288.1 421.7 288.25 421.6 288.1 421.7 287.95 422.15 288.35 422.75 288.5 422.7 Q288.65 422.3 288.25 421.6 288.4 421.0 287.85 420.05 288.1 419.3 287.4 417.9 287.5 417.4 287.1 416.65 L286.9 415.85 286.45 415.9 286.4 415.95 286.3 415.95 286.15 416.05 286.1 416.15 285.75 416.65 M288.6 417.15 L288.65 416.9 288.6 416.8 288.6 417.15 M287.1 416.65 L286.9 416.35 286.7 416.1 286.45 415.9 286.7 416.1 286.9 416.35 287.1 416.65 M287.85 420.05 Q287.5 419.55 287.3 419.9 287.05 420.25 287.3 421.0 287.05 420.25 287.3 419.9 287.5 419.55 287.85 420.05" fill="#593e25" fill-rule="evenodd" stroke="none"/>
    <path d="M285.75 416.65 L285.45 417.15 285.4 417.25 Q285.75 418.75 286.45 420.2 L286.55 420.05 286.7 419.6 286.55 420.05 286.45 420.2 287.7 422.5 287.75 422.55 287.95 422.95 288.15 423.25 288.15 423.1 288.15 422.95 288.2 422.9 288.3 422.8 288.35 422.75 287.95 422.15 287.35 421.05 287.3 421.0 286.7 419.6 Q286.05 418.1 285.75 416.65 M287.7 422.5 L287.35 421.05 287.7 422.5 M287.95 422.95 L287.95 422.3 287.95 422.15 287.95 422.3 287.95 422.95" fill="#91653c" fill-rule="evenodd" stroke="none"/>
    <path d="M288.45 416.6 L288.35 416.5 288.35 416.55 288.45 416.6" fill="#301f14" fill-rule="evenodd" stroke="none"/>
    <path d="M288.15 423.25 L288.25 423.35 288.35 423.45 288.4 423.45 288.9 423.5 289.25 423.35 289.35 423.2 289.4 423.0 289.4 422.9 289.35 422.85 289.3 422.8 289.25 422.7 289.05 422.65 288.8 422.6 288.5 422.7 288.35 422.75 288.3 422.8 288.2 422.9 288.15 422.95 288.15 423.1 288.15 423.25 M288.6 423.0 L288.75 422.85 289.0 422.9 289.0 423.15 288.9 423.2 288.65 423.15 288.5 423.1 288.5 423.0 288.6 423.0 288.5 422.7 288.6 423.0" fill="#6b4a2c" fill-rule="evenodd" stroke="none"/>
    <path d="M288.6 423.0 L288.5 423.0 288.5 423.1 288.65 423.15 288.9 423.2 289.0 423.15 289.0 422.9 288.75 422.85 288.6 423.0 288.65 423.15 288.6 423.0" fill="#422b1c" fill-rule="evenodd" stroke="none"/>
    <path d="M289.35 422.85 L289.1 421.9 289.0 421.25 288.8 419.85 288.65 418.4 288.6 417.15 288.6 416.8 288.45 416.6 288.35 416.55 288.0 416.3 Q287.45 415.85 286.9 415.85 L287.1 416.65 Q287.5 417.4 287.4 417.9 L287.7 418.4 288.15 419.25 288.35 419.5 288.8 419.85 288.35 419.5 288.15 419.25 287.7 418.4 287.4 417.9 Q288.1 419.3 287.85 420.05 288.4 421.0 288.25 421.6 L288.65 421.65 288.9 421.75 289.1 421.9 288.9 421.75 288.65 421.65 288.25 421.6 Q288.65 422.3 288.5 422.7 L288.8 422.6 289.05 422.65 289.25 422.7 289.3 422.8 289.35 422.85 M287.1 416.65 L287.35 416.95 288.0 417.7 288.65 418.4 288.0 417.7 287.35 416.95 287.1 416.65 M287.85 420.05 L288.0 420.15 288.75 421.05 289.0 421.25 288.75 421.05 288.0 420.15 287.85 420.05" fill="#382717" fill-rule="evenodd" stroke="none"/>
    <path d="M286.45 420.2 Q285.75 418.75 285.4 417.25 L285.45 417.15 285.75 416.65 286.1 416.15 286.15 416.05 286.3 415.95 286.4 415.95 286.45 415.9 286.7 416.1 286.9 416.35 287.1 416.65 287.35 416.95 288.0 417.7 288.65 418.4 288.6 417.15 288.65 416.9 M286.7 419.6 L286.55 420.05 286.45 420.2 287.7 422.5 287.75 422.55 287.95 422.95 288.15 423.25 288.25 423.35 288.35 423.45 288.4 423.45 288.9 423.5 289.25 423.35 289.35 423.2 289.4 423.0 289.4 422.9 289.35 422.85 289.1 421.9 289.0 421.25 288.8 419.85 288.65 418.4 M288.35 416.5 L288.35 416.55 288.0 416.3 Q287.45 415.85 286.9 415.85 L286.45 415.9 M287.4 417.9 L287.25 417.65 286.95 417.5 286.7 417.7 Q286.55 418.0 286.7 418.85 L286.7 419.6 M287.3 421.0 L287.35 421.05 287.7 422.5 M287.4 417.9 L287.7 418.4 288.15 419.25 288.35 419.5 288.8 419.85 M288.35 416.55 L288.45 416.6 M289.0 421.25 L288.75 421.05 288.0 420.15 287.85 420.05 Q287.5 419.55 287.3 419.9 287.05 420.25 287.3 421.0 M288.25 421.6 L288.1 421.7 287.95 422.15 287.95 422.3 287.95 422.95 M289.1 421.9 L288.9 421.75 288.65 421.65 288.25 421.6 M288.5 422.7 L288.35 422.75 288.3 422.8 288.2 422.9 288.15 422.95 288.15 423.1 288.15 423.25 M288.5 422.7 L288.8 422.6 289.05 422.65 289.25 422.7 289.3 422.8 289.35 422.85 M288.6 416.8 L288.6 417.15 M288.6 423.0 L288.5 423.0 288.5 423.1 288.65 423.15 288.9 423.2 289.0 423.15 289.0 422.9 288.75 422.85 288.6 423.0 288.5 422.7 M288.65 423.15 L288.6 423.0" fill="none" stroke="#000000" stroke-linecap="round" stroke-linejoin="round" stroke-opacity="0.2509804" stroke-width="0.05"/>
    <path d="M289.7 406.85 L289.5 406.95 289.5 407.4 289.7 406.85 289.5 407.4 289.35 407.7 289.2 408.0 Q289.2 408.8 288.65 409.7 L288.45 410.45 Q288.6 410.95 287.85 412.2 L287.35 413.95 Q287.3 415.0 286.6 416.3 L286.5 416.75 286.45 416.8 286.1 417.6 286.05 417.75 Q286.0 418.7 285.0 420.3 L284.2 421.8 284.05 422.1 284.2 421.8 285.0 420.3 Q286.0 418.7 286.05 417.75 L285.95 417.85 284.6 420.15 283.35 422.15 283.35 422.7 283.25 423.2 283.35 422.7 283.35 422.15 283.35 422.25 282.05 424.3 282.15 424.5 283.25 423.2 284.05 422.1 286.05 418.95 Q287.6 416.1 288.75 412.6 L289.05 411.8 289.3 411.2 289.2 411.25 288.95 411.3 287.85 412.2 288.95 411.3 289.2 411.25 289.3 411.2 289.9 409.95 289.5 409.7 288.65 410.3 288.45 410.45 288.65 410.3 289.5 409.7 289.9 409.95 290.55 408.5 290.55 408.3 290.65 407.1 290.9 406.25 Q290.5 406.25 290.05 406.6 L289.7 406.85 M291.55 406.4 L291.25 406.25 290.9 406.25 290.65 407.1 290.55 408.3 290.55 408.5 291.25 407.05 291.25 406.95 291.25 406.25 291.25 406.95 291.25 407.05 291.55 406.4 M288.65 409.7 L288.7 409.7 Q289.2 409.45 289.55 408.65 L289.75 408.3 289.95 407.45 290.05 406.6 289.95 407.45 289.75 408.3 289.55 408.65 Q289.2 409.45 288.7 409.7 L288.65 409.7 M287.35 413.95 L287.5 414.05 Q287.7 414.25 286.7 417.1 L286.05 418.95 286.7 417.1 Q287.7 414.25 287.5 414.05 L287.35 413.95" fill="#91653c" fill-rule="evenodd" stroke="none"/>
    <path d="M282.15 424.5 Q282.35 424.65 282.8 424.2 L283.3 423.75 283.5 423.5 285.45 421.2 Q288.35 417.3 290.6 412.1 L290.9 411.4 291.2 410.5 292.05 408.4 292.2 407.95 Q292.0 406.7 291.55 406.4 L291.25 407.05 290.55 408.5 290.75 409.6 291.2 410.5 290.75 409.6 290.55 408.5 289.9 409.95 289.3 411.2 289.05 411.8 288.75 412.6 Q287.6 416.1 286.05 418.95 L284.05 422.1 283.25 423.2 282.15 424.5 M290.6 412.1 L290.15 411.45 289.3 411.2 290.15 411.45 290.6 412.1 M290.9 411.4 Q290.7 410.45 290.2 410.05 L289.9 409.95 290.2 410.05 Q290.7 410.45 290.9 411.4 M292.05 408.4 L291.65 408.3 291.4 407.8 Q291.2 407.65 291.25 407.05 291.2 407.65 291.4 407.8 L291.65 408.3 292.05 408.4 M283.25 423.2 L282.8 424.2 283.25 423.2 M283.5 423.5 L283.75 422.8 284.05 422.1 283.75 422.8 283.5 423.5 M285.45 421.2 Q285.5 420.45 286.05 418.95 285.5 420.45 285.45 421.2" fill="#593e25" fill-rule="evenodd" stroke="none"/>
    <path d="M289.5 407.4 L289.5 406.95 288.8 407.65 288.7 408.0 288.65 408.2 288.55 408.6 288.2 409.9 287.95 410.95 287.25 413.1 286.95 413.85 286.5 415.1 286.15 415.85 285.8 416.7 283.7 420.85 282.65 422.5 282.35 423.05 282.05 424.3 283.35 422.25 283.35 422.15 284.6 420.15 285.95 417.85 286.05 417.75 286.1 417.6 286.45 416.8 286.5 416.75 286.6 416.3 Q287.3 415.0 287.35 413.95 L287.85 412.2 287.25 413.1 287.85 412.2 Q288.6 410.95 288.45 410.45 L288.65 409.7 288.2 409.9 288.65 409.7 Q289.2 408.8 289.2 408.0 L289.35 407.7 289.5 407.4 M288.55 408.6 L289.15 408.1 289.2 408.0 289.15 408.1 288.55 408.6 M287.95 410.95 L288.45 410.45 287.95 410.95 M283.7 420.85 L284.4 420.2 284.7 419.65 285.15 418.65 286.05 417.15 286.3 416.4 286.3 416.2 286.25 415.85 286.15 415.85 286.25 415.85 286.3 416.2 286.3 416.4 286.05 417.15 285.15 418.65 284.7 419.65 284.4 420.2 283.7 420.85 M286.5 415.1 Q286.7 415.25 286.5 416.15 L286.1 417.6 286.5 416.15 Q286.7 415.25 286.5 415.1 M287.35 413.95 L286.95 413.85 287.35 413.95 M283.35 422.15 L283.35 422.0 Q283.2 421.8 282.65 422.5 283.2 421.8 283.35 422.0 L283.35 422.15" fill="#cf9056" fill-rule="evenodd" stroke="none"/>
    <path d="M289.5 406.95 L289.7 406.85 289.5 407.4 289.35 407.7 289.2 408.0 289.15 408.1 288.55 408.6 288.2 409.9 287.95 410.95 287.25 413.1 286.95 413.85 286.5 415.1 286.15 415.85 285.8 416.7 283.7 420.85 282.65 422.5 282.35 423.05 282.05 424.3 282.15 424.5 Q282.35 424.65 282.8 424.2 L283.3 423.75 283.5 423.5 285.45 421.2 Q288.35 417.3 290.6 412.1 L290.9 411.4 291.2 410.5 292.05 408.4 292.2 407.95 Q292.0 406.7 291.55 406.4 L291.25 406.25 291.25 406.2 291.25 406.25 290.9 406.25 Q290.5 406.25 290.05 406.6 L289.7 406.85 M289.5 406.95 L288.8 407.65 288.7 408.0 288.65 408.2 288.55 408.6 M290.05 406.6 L289.95 407.45 289.75 408.3 289.55 408.65 Q289.2 409.45 288.7 409.7 L288.65 409.7 288.2 409.9 M288.45 410.45 L287.95 410.95 M286.1 417.6 L286.5 416.15 Q286.7 415.25 286.5 415.1 M286.15 415.85 L286.25 415.85 286.3 416.2 286.3 416.4 286.05 417.15 285.15 418.65 284.7 419.65 284.4 420.2 283.7 420.85 M286.05 418.95 L286.7 417.1 Q287.7 414.25 287.5 414.05 L287.35 413.95 286.95 413.85 M287.85 412.2 L288.95 411.3 289.2 411.25 289.3 411.2 290.15 411.45 290.6 412.1 M284.05 422.1 L284.2 421.8 285.0 420.3 Q286.0 418.7 286.05 417.75 L286.1 417.6 M287.25 413.1 L287.85 412.2 M288.45 410.45 L288.65 410.3 289.5 409.7 289.9 409.95 290.2 410.05 Q290.7 410.45 290.9 411.4 M290.55 408.5 L290.55 408.3 290.65 407.1 290.9 406.25 M291.2 410.5 L290.75 409.6 290.55 408.5 M291.25 407.05 Q291.2 407.65 291.4 407.8 L291.65 408.3 292.05 408.4 M291.25 406.25 L291.25 406.95 291.25 407.05 M283.35 422.15 L283.35 422.7 283.25 423.2 282.8 424.2 M284.05 422.1 L283.75 422.8 283.5 423.5 M282.65 422.5 Q283.2 421.8 283.35 422.0 L283.35 422.15 M286.05 418.95 Q285.5 420.45 285.45 421.2" fill="none" stroke="#000000" stroke-linecap="round" stroke-linejoin="round" stroke-opacity="0.2509804" stroke-width="0.05"/>
    <path d="M286.6 416.85 L286.4 417.6 286.3 417.25 286.6 416.85 M269.65 400.9 L269.75 400.55 269.8 400.9 269.65 400.9" fill="#cccccc" fill-rule="evenodd" stroke="none"/>
    <path d="M271.85 396.7 L272.3 395.4 274.7 395.95 272.3 395.4 271.85 396.7 M271.8 384.05 L272.35 387.45 271.25 388.15 272.55 389.05 Q273.05 391.3 273.85 393.75 L274.7 395.95 Q276.95 401.3 280.75 407.0 282.25 409.05 284.15 410.35 L285.4 411.1 Q285.8 411.45 286.35 411.55 L287.55 412.1 287.75 411.9 287.5 414.4 287.45 414.5 284.15 412.2 279.85 408.85 279.85 408.8 279.8 408.95 278.7 408.95 276.8 408.25 277.85 406.75 276.4 406.9 275.2 406.65 276.6 405.3 275.45 404.05 Q274.05 402.1 272.8 399.95 L272.15 398.8 271.85 398.3 Q268.95 392.75 268.4 388.85 L265.55 386.25 265.45 385.15 267.9 385.15 267.7 383.1 271.8 384.05" fill="#aca88a" fill-rule="evenodd" stroke="none"/>
    <path d="M287.0 415.85 L287.0 416.0 286.95 416.35 283.2 413.1 287.0 415.85 M278.25 410.3 L279.55 410.4 279.4 411.45 278.25 410.3" fill="#b5b090" fill-rule="evenodd" stroke="none"/>
    <path d="M262.7 386.3 L261.6 385.65 260.85 381.35 262.7 386.3" fill="#d2cdbd" fill-rule="evenodd" stroke="none"/>
    <path d="M287.45 414.5 L287.0 415.85 283.2 413.1 282.9 412.9 279.55 410.05 278.7 408.95 279.8 408.95 279.85 408.8 279.85 408.85 284.15 412.2 287.45 414.5 M265.1 382.45 L267.7 383.1 267.9 385.15 265.45 385.15 Q265.2 383.85 265.1 382.45 M268.0 395.5 Q266.5 391.55 265.55 386.25 L268.4 388.85 Q268.95 392.75 271.85 398.3 L272.15 398.8 269.15 398.15 268.0 395.5 M270.95 401.5 L271.6 400.1 272.15 398.8 272.8 399.95 Q274.05 402.1 275.45 404.05 L276.6 405.3 275.2 406.65 Q274.05 406.15 273.55 405.35 L272.5 403.8 Q271.85 403.05 270.95 401.5 M276.8 408.25 L276.4 406.9 277.85 406.75 276.8 408.25 M279.8 408.95 L279.55 410.05 279.8 408.95" fill="#d4cfa9" fill-rule="evenodd" stroke="none"/>
    <path d="M286.95 416.35 L286.7 416.7 286.6 416.8 284.75 415.6 Q283.25 414.8 281.05 412.85 L279.45 411.45 279.4 411.45 279.55 410.4 278.25 410.3 276.2 408.4 273.9 406.3 271.8 403.9 270.85 402.45 270.95 401.5 Q271.85 403.05 272.5 403.8 L273.55 405.35 Q274.05 406.15 275.2 406.65 L276.4 406.9 276.8 408.25 278.7 408.95 279.55 410.05 282.9 412.9 283.2 413.1 286.95 416.35 M263.05 387.2 L263.55 386.85 262.7 386.3 260.85 381.35 262.45 381.8 Q263.8 388.55 268.0 395.5 L269.15 398.15 267.35 396.2 266.55 394.55 263.7 388.7 263.05 387.2 M279.55 410.05 L279.55 410.4 279.55 410.05" fill="#ede6bd" fill-rule="evenodd" stroke="none"/>
    <path d="M286.2 417.45 Q283.45 415.75 280.9 413.9 L279.6 412.85 279.4 412.7 279.4 411.9 278.85 412.3 Q274.85 409.1 271.8 405.5 L270.45 403.9 Q270.65 403.05 271.8 403.9 L273.9 406.3 276.2 408.4 278.25 410.3 279.4 411.45 279.4 411.9 279.4 411.45 279.45 411.45 281.05 412.85 Q283.25 414.8 284.75 415.6 L286.6 416.8 286.6 416.85 286.3 417.25 286.2 417.45 M268.75 400.45 L267.9 400.4 Q264.1 394.55 262.2 387.8 L263.05 387.2 263.7 388.7 266.55 394.55 267.35 396.2 269.15 398.15 272.15 398.8 271.6 400.1 268.75 400.45" fill="#c7bab8" fill-rule="evenodd" stroke="none"/>
    <path d="M270.45 403.9 L269.25 402.4 269.65 400.9 269.8 400.9 269.75 400.55 269.65 400.5 268.75 400.45 271.6 400.1 270.95 401.5 270.85 402.45 271.8 403.9 Q270.65 403.05 270.45 403.9" fill="#faf5eb" fill-rule="evenodd" stroke="none"/>
    <path d="M262.45 381.8 L265.1 382.45 Q265.2 383.85 265.45 385.15 L265.55 386.25 Q266.5 391.55 268.0 395.5 263.8 388.55 262.45 381.8" fill="#cfc69e" fill-rule="evenodd" stroke="none"/>
    <path d="M274.7 395.95 L272.3 395.4 271.85 396.7 M271.8 384.05 L272.35 387.45 271.25 388.15 272.55 389.05 Q273.05 391.3 273.85 393.75 L274.7 395.95 Q276.95 401.3 280.75 407.0 282.25 409.05 284.15 410.35 L285.4 411.1 Q285.8 411.45 286.35 411.55 L287.55 412.1 M287.75 411.9 L287.5 414.4 287.45 414.5 287.0 415.85 287.0 416.0 286.95 416.35 286.7 416.7 286.6 416.85 286.3 417.25 M286.4 417.6 L286.2 417.45 Q283.45 415.75 280.9 413.9 L279.6 412.85 279.4 412.7 279.4 411.9 278.85 412.3 Q274.85 409.1 271.8 405.5 L270.45 403.9 269.25 402.4 269.65 400.9 269.75 400.55 M269.65 400.5 L268.75 400.45 267.9 400.4 Q264.1 394.55 262.2 387.8 L263.05 387.2 263.55 386.85 262.7 386.3 261.6 385.65 260.85 381.35 M278.25 410.3 L279.55 410.4 279.55 410.05 279.8 408.95 279.85 408.8 M279.4 411.45 L279.4 411.9 M279.4 411.45 L279.55 410.4" fill="none" stroke="#000000" stroke-linecap="round" stroke-linejoin="round" stroke-opacity="0.3019608" stroke-width="0.05"/>
  </g>
</svg>
