<?xml version="1.0" encoding="UTF-8" standalone="no"?>
<svg xmlns:xlink="http://www.w3.org/1999/xlink" height="48.75px" width="34.95px" xmlns="http://www.w3.org/2000/svg">
  <g transform="matrix(1.0, 0.0, 0.0, 1.0, 17.45, 24.4)">
    <path d="M14.0 -24.2 L14.45 -24.35 -6.6 5.7 -6.65 5.8 -7.9 4.9 -8.6 4.4 -8.65 4.4 Q-3.2 -3.15 2.1 -7.85 L2.2 -7.95 4.5 -13.85 Q1.75 -10.95 -9.15 3.6 L-9.0 4.15 -10.15 3.35 Q-2.95 -7.3 5.7 -17.5 L14.0 -24.2 M17.3 -22.35 L17.35 -21.85 13.85 -11.8 Q7.2 -0.2 -0.35 10.2 L-1.5 9.4 -0.95 9.35 Q9.0 -5.85 10.8 -9.4 L6.05 -5.25 6.0 -5.1 Q3.35 1.45 -1.85 9.15 L-1.9 9.15 -2.6 8.65 -3.85 7.75 -3.75 7.65 17.3 -22.35 M-14.35 21.9 Q-14.65 22.6 -14.25 23.3 L-14.9 23.4 Q-15.9 23.6 -16.8 24.1 L-17.45 24.35 -16.75 23.35 -15.35 21.35 -15.2 21.45 -16.4 23.25 -15.35 22.95 -14.8 22.9 Q-15.2 22.25 -15.0 21.6 L-14.75 21.7 -14.35 21.9 M-5.75 7.1 L-6.25 7.6 -6.5 8.2 -6.35 8.6 -5.9 8.6 -5.45 8.15 -5.15 7.5 Q-5.15 7.2 -5.3 7.1 -5.5 6.95 -5.75 7.1 M-5.3 7.0 Q-5.05 7.15 -5.1 7.55 L-5.45 8.4 -6.15 9.0 -6.75 9.05 -6.95 8.45 -6.55 7.6 -5.9 7.0 Q-5.55 6.8 -5.3 7.0" fill="#ab7c10" fill-rule="evenodd" stroke="none"/>
    <path d="M14.0 -24.2 L5.7 -17.5 5.45 -17.7 Q1.1 -14.35 -3.55 -12.0 -6.65 -4.8 -11.75 2.2 L-13.0 1.3 2.1 -20.1 2.15 -20.05 14.0 -24.2 M13.85 -11.8 L17.35 -21.85 17.45 -9.3 17.5 -9.3 2.5 12.2 1.25 11.35 Q6.1 4.15 11.8 -1.2 12.45 -6.4 14.1 -11.6 L13.85 -11.8 M-17.45 24.35 L-17.35 23.7 Q-17.2 22.35 -17.45 21.0 L-16.45 20.9 -16.1 20.65 -15.8 20.95 -15.65 21.1 -16.35 21.45 -16.9 21.4 Q-16.7 22.4 -16.75 23.35 L-17.45 24.35 M-11.1 11.45 L-11.5 11.1 -11.95 10.7 -12.0 10.65 -12.3 10.3 -12.35 10.25 -13.8 8.45 -13.85 8.35 -13.9 8.3 -14.15 7.8 Q-15.7 5.05 -14.6 3.5 -15.25 4.95 -14.05 7.3 L-12.35 9.9 -12.0 10.3 -11.1 11.2 -10.1 12.1 -9.55 12.55 -9.5 12.6 -9.0 13.0 -7.85 13.75 -7.5 13.95 -7.5 14.0 -7.65 13.9 -7.7 13.9 -8.8 13.2 -8.85 13.2 -9.35 12.85 -9.45 12.75 -10.95 11.6 -11.0 11.55 -11.1 11.45 M-5.75 7.1 Q-5.5 6.95 -5.3 7.1 -5.15 7.2 -5.15 7.5 L-5.45 8.15 -5.9 8.6 -6.35 8.6 -6.5 8.2 -6.25 7.6 -5.75 7.1 M-12.0 10.65 L-11.5 11.1 -12.0 10.65" fill="#f4ffc8" fill-rule="evenodd" stroke="none"/>
    <path d="M5.7 -17.5 Q-2.95 -7.3 -10.15 3.35 L-11.75 2.2 Q-6.65 -4.8 -3.55 -12.0 1.1 -14.35 5.45 -17.7 L5.7 -17.5 M-0.35 10.2 Q7.2 -0.2 13.85 -11.8 L14.1 -11.6 Q12.45 -6.4 11.8 -1.2 6.1 4.15 1.25 11.35 L-0.35 10.2 M-6.6 14.45 L-7.35 14.05 -7.45 14.0 -7.5 14.0 -7.5 13.95 -7.85 13.75 -9.0 13.0 -9.5 12.6 -9.55 12.55 -10.1 12.1 -11.1 11.2 -12.0 10.3 -12.35 9.9 -14.05 7.3 Q-15.25 4.95 -14.6 3.5 -15.7 5.05 -14.15 7.8 L-13.9 8.3 -14.2 7.8 Q-15.75 5.0 -14.65 3.5 L-14.35 3.15 Q-14.65 3.9 -14.15 5.1 -14.3 6.4 -13.25 8.25 L-11.4 10.75 -11.0 11.1 -10.1 12.0 -8.45 13.2 -8.4 13.25 -7.9 13.65 -6.75 14.35 -6.6 14.45 M-5.3 7.0 Q-5.55 6.8 -5.9 7.0 L-6.55 7.6 -6.95 8.45 -6.75 9.05 -6.15 9.0 -5.45 8.4 -5.1 7.55 Q-5.05 7.15 -5.3 7.0 M-7.4 9.95 Q-7.85 9.65 -7.75 8.85 L-7.1 7.25 Q-6.55 6.4 -5.8 6.05 -5.1 5.7 -4.65 6.05 -4.2 6.35 -4.25 7.1 L-4.95 8.75 Q-5.5 9.55 -6.2 9.9 L-7.4 9.95 M-15.65 21.1 L-15.35 21.35 -16.75 23.35 Q-16.7 22.4 -16.9 21.4 L-16.35 21.45 -15.65 21.1" fill="#ebb029" fill-rule="evenodd" stroke="none"/>
    <path d="M-9.0 4.15 L-9.15 3.6 Q1.75 -10.95 4.5 -13.85 L2.2 -7.95 2.1 -7.85 Q-3.2 -3.15 -8.65 4.4 L-9.0 4.15 M-1.85 9.15 Q3.35 1.45 6.0 -5.1 L6.05 -5.25 10.8 -9.4 Q9.0 -5.85 -0.95 9.35 L-1.5 9.4 -1.85 9.15" fill="#bf9d2d" fill-rule="evenodd" stroke="none"/>
    <path d="M-4.2 13.75 L-2.15 14.45 -1.15 14.6 -0.9 14.65 Q0.7 14.8 1.45 14.2 L1.2 14.65 Q0.1 16.15 -3.0 15.65 L-5.95 14.75 -6.25 14.65 -6.45 14.55 -6.6 14.45 -6.75 14.35 -7.9 13.65 -8.4 13.25 -8.45 13.2 -10.1 12.0 -11.0 11.1 -11.4 10.75 -13.25 8.25 Q-14.3 6.4 -14.15 5.1 L-13.35 6.55 -12.05 8.2 -12.05 8.5 -11.9 8.8 -11.9 8.85 -11.85 8.85 -11.75 8.95 -4.95 13.75 -4.45 13.85 -4.2 13.75 M-15.2 21.45 L-15.05 21.55 -15.0 21.6 Q-15.2 22.25 -14.8 22.9 L-15.35 22.95 -16.4 23.25 -15.2 21.45" fill="#a4792e" fill-rule="evenodd" stroke="none"/>
    <path d="M-7.9 4.9 L-6.65 5.8 -6.6 5.7 -6.55 5.75 1.1 -2.25 -3.8 7.65 -3.75 7.65 -3.85 7.75 -2.6 8.65 -3.55 10.1 -4.9 12.05 -5.2 12.5 -6.45 11.6 -6.35 11.4 -7.55 10.6 -7.85 10.4 Q-8.0 10.25 -8.15 10.2 L-9.25 9.4 -9.35 9.55 -10.65 8.65 -10.55 8.5 -10.35 8.25 -8.95 6.3 -7.9 4.9 M-7.4 9.95 L-6.2 9.9 Q-5.5 9.55 -4.95 8.75 L-4.25 7.1 Q-4.2 6.35 -4.65 6.05 -5.1 5.7 -5.8 6.05 -6.55 6.4 -7.1 7.25 L-7.75 8.85 Q-7.85 9.65 -7.4 9.95" fill="#1b1b1b" fill-rule="evenodd" stroke="none"/>
    <path d="M-8.6 4.4 L-7.9 4.9 -8.95 6.3 -10.35 8.25 -10.55 8.5 -10.65 8.65 -11.35 8.15 -11.25 8.0 -11.05 7.75 -8.6 4.4 M-2.6 8.65 L-1.9 9.15 -4.2 12.55 -4.5 13.0 -5.2 12.5 -4.9 12.05 -3.55 10.1 -2.6 8.65" fill="#666666" fill-rule="evenodd" stroke="none"/>
    <path d="M-16.35 20.35 L-16.85 19.6 -16.6 19.3 Q-15.05 20.75 -15.4 20.75 L-15.75 20.65 -16.15 20.5 -16.35 20.35 M-16.5 19.15 L-17.05 18.45 -16.6 17.85 -16.55 17.95 -15.1 19.55 -15.1 19.6 Q-14.45 20.65 -16.35 19.4 L-16.5 19.15 M-12.05 8.2 L-11.95 8.0 -11.9 7.95 Q-11.75 7.7 -11.45 7.7 L-11.6 7.75 -11.25 8.0 -11.35 8.15 -10.65 8.65 -9.35 9.55 -9.25 9.4 -8.15 10.2 Q-8.0 10.25 -7.85 10.4 L-7.55 10.6 -7.05 10.95 -6.8 11.25 -6.9 11.55 -6.9 11.6 -7.0 11.7 -7.2 11.75 -7.55 11.65 -12.0 8.55 -11.9 8.8 -12.05 8.5 -12.05 8.2" fill="#598a93" fill-rule="evenodd" stroke="none"/>
    <path d="M-11.5 21.4 L-11.95 22.05 -12.8 21.75 -13.1 22.2 -14.35 21.9 -14.75 21.7 -15.0 21.6 -15.05 21.55 -15.2 21.45 -15.35 21.35 -15.65 21.1 -15.8 20.95 -16.1 20.65 -16.35 20.35 -16.15 20.5 -15.75 20.65 -15.4 20.75 Q-15.05 20.75 -16.6 19.3 L-16.5 19.15 -16.35 19.4 Q-14.45 20.65 -15.1 19.6 L-15.05 19.55 -15.05 19.6 -14.4 20.1 -13.3 20.75 -11.5 21.4 M-11.45 7.7 L-11.05 7.75 -11.25 8.0 -11.6 7.75 -11.45 7.7 M-7.55 10.6 L-6.35 11.4 -6.45 11.6 -5.2 12.5 -4.5 13.0 -4.2 12.55 -4.15 12.6 -3.85 13.05 -3.95 13.55 -4.0 13.55 -4.2 13.75 -4.45 13.85 -4.95 13.75 -11.75 8.95 -11.85 8.85 -11.9 8.85 -11.9 8.8 -12.0 8.55 -7.55 11.65 -7.2 11.75 -7.0 11.7 -6.9 11.6 -6.9 11.55 -6.8 11.25 -7.05 10.95 -7.55 10.6 M-12.8 21.75 L-14.1 21.15 -14.5 20.95 -14.7 20.8 -14.85 20.7 -15.5 20.2 -15.6 20.15 -16.35 19.4 -15.6 20.15 -15.5 20.2 -14.85 20.7 -14.7 20.8 -14.5 20.95 -14.1 21.15 -12.8 21.75" fill="#3f6167" fill-rule="evenodd" stroke="none"/>
    <path d="M-16.6 17.85 L-14.1 17.3 -14.05 17.3 -12.95 15.1 -11.1 11.45 -11.0 11.55 -10.95 11.6 -14.05 17.7 -16.35 18.2 -16.55 17.95 -16.6 17.85 M-13.1 18.4 L-13.1 18.35 -13.05 18.35 -13.05 18.4 -13.1 18.4" fill="#525252" fill-rule="evenodd" stroke="none"/>
    <path d="M-14.1 17.3 L-12.95 15.1 -14.05 17.3 -14.1 17.3 M-13.1 18.35 L-13.1 18.4 -12.8 20.5 Q-14.05 20.15 -15.05 19.6 L-15.05 19.55 -15.1 19.55 -16.55 17.95 -16.35 18.2 -14.05 17.7 -10.95 11.6 Q-9.15 13.25 -9.4 13.9 L-9.6 14.1 -13.15 17.95 -13.1 18.35" fill="#2d2d2d" fill-rule="evenodd" stroke="none"/>
    <path d="M-7.35 14.05 L-11.85 18.85 -11.5 21.4 -13.3 20.75 -14.4 20.1 -15.05 19.6 Q-14.05 20.15 -12.8 20.5 L-13.1 18.4 -13.05 18.4 -13.05 18.35 -13.1 18.35 -13.15 17.95 -9.6 14.1 -9.4 13.9 Q-9.15 13.25 -10.95 11.6 L-9.45 12.75 -9.35 12.85 -8.85 13.2 -8.8 13.2 -7.7 13.9 -7.65 13.9 -7.5 14.0 -7.45 14.0 -7.35 14.05" fill="#000000" fill-rule="evenodd" stroke="none"/>
    <path d="M14.45 -24.35 L14.0 -24.2 2.15 -20.05 M-10.15 3.35 L-9.0 4.15 -8.65 4.4 M17.35 -21.85 L17.3 -22.35 M-1.5 9.4 L-0.35 10.2 1.25 11.35 2.5 12.2 M17.35 -21.85 L17.45 -9.3 M-11.75 2.2 L-10.15 3.35 M-11.05 7.75 L-8.6 4.4 M-4.2 12.55 L-4.5 13.0 M-1.5 9.4 L-1.85 9.15 M-11.35 8.15 L-11.25 8.0 -11.05 7.75 M-11.75 2.2 L-13.0 1.3 M-1.9 9.15 L-4.2 12.55" fill="none" stroke="#5f462e" stroke-linecap="round" stroke-linejoin="round" stroke-width="0.1"/>
    <path d="M-6.65 5.8 L-6.6 5.7 14.45 -24.35 M17.3 -22.35 L-3.75 7.65 -3.85 7.75 M17.5 -9.3 L2.5 12.2 M-4.2 13.75 L-2.15 14.45 -1.15 14.6 -0.9 14.65 Q0.7 14.8 1.45 14.2 L1.2 14.65 Q0.1 16.15 -3.0 15.65 L-5.95 14.75 -6.25 14.65 -6.45 14.55 -6.6 14.45 -7.35 14.05 -11.85 18.85 -11.5 21.4 -11.95 22.05 -12.8 21.75 -13.1 22.2 -14.35 21.9 Q-14.65 22.6 -14.25 23.3 L-14.9 23.4 Q-15.9 23.6 -16.8 24.1 L-17.45 24.35 -17.35 23.7 Q-17.2 22.35 -17.45 21.0 L-16.45 20.9 -16.1 20.65 -16.35 20.35 -16.85 19.6 -16.6 19.3 -16.5 19.15 -17.05 18.45 -16.6 17.85 -14.1 17.3 M-12.95 15.1 L-11.1 11.45 -11.5 11.1 -11.95 10.7 -12.0 10.65 -12.3 10.3 -12.35 10.25 -13.8 8.45 -13.85 8.35 -13.9 8.3 -14.2 7.8 Q-15.75 5.0 -14.65 3.5 L-14.35 3.15 Q-14.65 3.9 -14.15 5.1 L-13.35 6.55 -12.05 8.2 -11.95 8.0 -11.9 7.95 Q-11.75 7.7 -11.45 7.7 L-11.05 7.75 M-12.0 8.55 L-11.9 8.8 -11.9 8.85 -11.85 8.85 -11.75 8.95 -4.95 13.75 -4.45 13.85 -4.2 13.75 -4.0 13.55 -3.95 13.55 -3.85 13.05 -4.15 12.6 -4.2 12.55 M-11.6 7.75 L-11.45 7.7 M-13.0 1.3 L2.1 -20.1 M-11.9 8.8 L-12.05 8.5 -12.05 8.2 M-14.6 3.5 Q-15.7 5.05 -14.15 7.8 L-13.9 8.3 M-11.1 11.45 L-11.0 11.55 -10.95 11.6 -9.45 12.75 -9.35 12.85 -8.85 13.2 -8.8 13.2 -7.7 13.9 -7.65 13.9 -7.5 14.0 -7.5 13.95 M-11.5 11.1 L-12.0 10.65 M-14.05 17.3 L-12.95 15.1 M-9.6 14.1 L-9.4 13.9 M-16.35 18.2 L-16.55 17.95 -15.1 19.55 -15.05 19.55 -15.05 19.6 -14.4 20.1 -13.3 20.75 -11.5 21.4 M-16.55 17.95 L-16.6 17.85 M-16.35 19.4 L-15.6 20.15 -15.5 20.2 -14.85 20.7 -14.7 20.8 -14.5 20.95 -14.1 21.15 -12.8 21.75 M-15.35 21.35 L-15.2 21.45 -15.05 21.55 -15.0 21.6 -14.75 21.7 -14.35 21.9 M-16.1 20.65 L-15.8 20.95 -15.65 21.1 -15.35 21.35 M-16.5 19.15 L-16.35 19.4 M-15.1 19.6 L-15.1 19.55 M-7.35 14.05 L-7.45 14.0 -7.5 14.0" fill="none" stroke="#5f462e" stroke-linecap="round" stroke-linejoin="round" stroke-width="0.05"/>
    <path d="M15.0 -15.95 L16.55 -14.25 14.15 -14.6 12.45 -13.2 12.9 -15.4 11.5 -16.95 13.7 -16.5 15.5 -18.1 15.0 -15.95 M5.85 3.15 L6.6 6.9 3.95 4.55 0.2 5.35 2.55 2.4 1.95 -1.65 4.85 0.95 8.55 0.15 5.85 3.15 M-2.3 -13.2 L-1.45 -10.75 0.9 -9.95 -1.25 -9.2 -2.05 -6.85 -2.9 -9.1 -5.4 -10.1 -3.0 -10.9 -2.3 -13.2" fill="#ffffff" fill-rule="evenodd" stroke="none"/>
  </g>
</svg>
