<?xml version="1.0" encoding="UTF-8" standalone="no"?>
<svg xmlns:xlink="http://www.w3.org/1999/xlink" height="52.95px" width="29.4px" xmlns="http://www.w3.org/2000/svg">
  <g transform="matrix(1.0, 0.0, 0.0, 1.0, -260.25, -174.0)">
    <path d="M278.75 201.5 Q278.0 203.95 276.3 206.9 275.35 208.55 274.9 210.45 L274.3 209.45 274.0 209.2 273.95 209.15 Q276.65 205.4 278.75 201.5" fill="#718688" fill-rule="evenodd" stroke="none"/>
    <path d="M272.45 174.25 L272.15 174.05 272.45 174.1 272.45 174.25" fill="#c4dcdf" fill-rule="evenodd" stroke="none"/>
    <path d="M282.55 178.15 Q293.85 185.35 287.05 200.4 L282.9 206.35 284.3 204.15 Q287.0 199.55 287.65 194.85 288.3 190.1 286.75 185.6 285.15 181.1 282.55 178.15" fill="#e9f2f3" fill-rule="evenodd" stroke="none"/>
    <path d="M280.8 217.6 L279.5 219.1 Q276.5 218.5 273.9 216.9 L273.9 216.85 273.7 216.7 272.85 216.0 267.6 222.4 267.6 222.35 267.35 221.75 Q267.45 221.9 267.65 221.6 L267.75 221.35 268.0 220.65 268.3 219.7 Q268.55 218.8 267.6 219.6 L267.5 219.7 266.25 220.5 266.2 220.45 Q266.1 220.2 266.45 218.85 266.85 217.45 265.75 218.55 L264.2 219.6 264.95 218.15 267.2 217.05 267.2 218.65 268.35 218.5 270.4 215.3 Q269.05 214.05 267.55 213.05 L268.1 212.0 267.2 211.7 263.95 210.75 262.5 210.5 262.8 207.4 265.0 207.85 Q261.55 209.35 265.1 210.0 268.6 210.6 269.85 211.4 271.1 212.2 272.15 213.45 277.9 218.65 280.8 217.6 M268.1 212.0 L269.05 212.7 Q271.15 214.05 272.85 216.0 271.15 214.05 269.05 212.7 L268.1 212.0" fill="#58382b" fill-rule="evenodd" stroke="none"/>
    <path d="M275.75 214.3 Q278.15 215.85 281.5 216.75 L280.8 217.6 Q277.9 218.65 272.15 213.45 271.1 212.2 269.85 211.4 268.6 210.6 265.1 210.0 261.55 209.35 265.0 207.85 267.15 208.3 268.75 209.05 L269.1 209.2 269.75 209.5 270.75 210.0 271.0 210.15 270.9 210.25 270.95 210.3 271.2 210.5 271.95 211.1 272.3 211.4 272.4 211.45 272.7 211.7 272.75 211.75 273.0 212.0 273.15 212.15 273.2 212.2 273.9 212.9 274.15 213.1 274.5 213.4 274.65 213.5 275.2 213.95 275.75 214.3 M264.95 218.15 L267.55 213.05 Q269.05 214.05 270.4 215.3 L268.35 218.5 267.2 218.65 267.2 217.05 264.95 218.15" fill="#a1664c" fill-rule="evenodd" stroke="none"/>
    <path d="M260.4 223.8 Q260.2 223.05 260.45 222.25 260.8 220.8 262.1 220.1 L262.85 219.8 263.2 219.75 264.0 219.65 264.05 219.65 264.2 219.6 265.75 218.55 Q266.85 217.45 266.45 218.85 266.1 220.2 266.2 220.45 L266.25 220.5 267.5 219.7 267.6 219.6 Q268.55 218.8 268.3 219.7 L268.0 220.65 267.75 221.35 267.65 221.6 267.2 221.5 267.2 223.3 266.55 223.9 266.1 223.15 265.2 222.95 Q264.65 223.05 264.4 223.5 L264.4 223.45 264.35 223.65 Q264.2 224.0 264.3 224.45 L264.35 224.65 Q262.25 224.6 260.4 223.8 M273.95 209.15 L274.0 209.2 274.3 209.45 274.9 210.45 274.95 211.0 274.6 212.2 274.3 212.55 273.9 212.9 273.2 212.2 273.15 212.15 273.05 212.05 273.0 212.0 272.75 211.75 272.7 211.7 272.4 211.45 272.3 211.4 271.95 211.1 271.2 210.5 270.95 210.3 271.1 210.15 271.0 210.15 270.75 210.0 271.15 209.45 Q271.8 208.75 272.75 208.75 273.4 208.75 273.95 209.15 M263.9 222.05 L263.4 221.2 262.5 221.0 Q262.0 221.05 261.75 221.5 261.45 221.95 261.6 222.5 L261.8 223.0 262.1 223.35 263.0 223.55 Q263.5 223.45 263.75 223.0 L263.9 222.25 263.95 222.05 263.9 222.05" fill="#ffcc33" fill-rule="evenodd" stroke="none"/>
    <path d="M274.6 212.2 L274.5 213.4 274.15 213.1 273.9 212.9 274.3 212.55 274.6 212.2 M271.0 210.15 L271.1 210.15 270.95 210.3 270.9 210.25 271.0 210.15 M273.0 212.0 L273.05 212.05 273.15 212.15 273.0 212.0" fill="#bd571a" fill-rule="evenodd" stroke="none"/>
    <path d="M267.6 222.4 Q267.9 223.35 267.65 224.3 267.25 225.75 266.0 226.45 264.65 227.15 263.15 226.75 261.65 226.3 260.85 225.0 L260.4 223.8 Q262.25 224.6 264.35 224.65 L264.8 225.3 265.4 225.5 265.7 225.5 266.45 224.95 266.6 223.95 266.55 223.9 267.2 223.3 267.2 221.5 267.65 221.6 Q267.45 221.9 267.35 221.75 L267.6 222.35 267.6 222.4" fill="#c87e06" fill-rule="evenodd" stroke="none"/>
    <path d="M266.55 223.9 L266.6 223.95 266.45 224.95 265.7 225.5 265.4 225.5 264.8 225.3 264.35 224.65 264.3 224.45 Q264.2 224.0 264.35 223.65 L264.4 223.5 Q264.65 223.05 265.2 222.95 L266.1 223.15 266.55 223.9 M263.9 222.25 L263.75 223.0 Q263.5 223.45 263.0 223.55 L262.1 223.35 261.8 223.0 261.6 222.5 Q261.45 221.95 261.75 221.5 262.0 221.05 262.5 221.0 L263.4 221.2 263.9 222.05 263.9 222.25" fill="#000000" fill-rule="evenodd" stroke="none"/>
    <path d="M272.95 174.25 L276.85 175.45 Q280.1 176.6 282.55 178.15 285.15 181.1 286.75 185.6 288.3 190.1 287.65 194.85 287.0 199.55 284.3 204.15 L282.9 206.35 281.25 208.3 280.5 209.2 278.35 211.5 275.75 214.3 275.2 213.95 274.65 213.5 274.5 213.4 274.6 212.2 274.95 211.0 274.9 210.45 Q275.35 208.55 276.3 206.9 278.0 203.95 278.75 201.5 L280.4 198.05 282.35 193.05 282.7 191.35 Q284.9 179.75 272.95 174.25 M269.1 209.2 L270.1 207.45 271.65 204.3 Q275.75 194.8 273.7 183.45 L275.9 184.55 Q277.35 180.95 275.75 177.95 281.95 183.3 280.65 189.85 279.3 196.35 277.85 199.3 L276.4 202.1 274.25 205.6 271.1 208.65 271.0 208.7 269.75 209.5 269.1 209.2" fill="#83b7be" fill-rule="evenodd" stroke="none"/>
    <path d="M272.45 174.1 L272.95 174.25 Q284.9 179.75 282.7 191.35 L282.35 193.05 280.4 198.05 278.75 201.5 Q276.65 205.4 273.95 209.15 273.4 208.75 272.75 208.75 271.8 208.75 271.15 209.45 L270.75 210.0 269.75 209.5 271.0 208.7 271.1 208.65 274.25 205.6 276.4 202.1 277.85 199.3 Q279.3 196.35 280.65 189.85 281.95 183.3 275.75 177.95 L275.5 177.35 Q274.45 175.7 272.45 174.25 L272.45 174.1" fill="#62a3ac" fill-rule="evenodd" stroke="none"/>
    <path d="M272.45 174.25 L272.15 174.05 272.45 174.1 272.95 174.25 276.85 175.45 Q280.1 176.6 282.55 178.15 293.85 185.35 287.05 200.4 L282.9 206.35 281.25 208.3 280.5 209.2 278.35 211.5 275.75 214.3 Q278.15 215.85 281.5 216.75 L280.8 217.6 279.5 219.1 Q276.5 218.5 273.9 216.9 L273.9 216.85 273.7 216.7 272.85 216.0 267.6 222.4 Q267.9 223.35 267.65 224.3 267.25 225.75 266.0 226.45 264.65 227.15 263.15 226.75 261.65 226.3 260.85 225.0 L260.4 223.8 Q260.2 223.05 260.45 222.25 260.8 220.8 262.1 220.1 L262.85 219.8 263.2 219.75 264.0 219.65 264.05 219.65 264.2 219.6 264.95 218.15 267.55 213.05 268.1 212.0 267.2 211.7 263.95 210.75 262.5 210.5 262.8 207.4 265.0 207.85 Q267.15 208.3 268.75 209.05 L269.1 209.2 270.1 207.45 271.65 204.3 Q275.75 194.8 273.7 183.45 L275.9 184.55 Q277.35 180.95 275.75 177.95 L275.5 177.35 Q274.45 175.7 272.45 174.25 M278.75 201.5 L280.4 198.05 282.35 193.05 282.7 191.35 Q284.9 179.75 272.95 174.25 M278.75 201.5 Q276.65 205.4 273.95 209.15 L274.0 209.2 274.3 209.45 274.9 210.45 274.95 211.0 274.6 212.2 274.3 212.55 273.9 212.9 274.15 213.1 274.5 213.4 274.65 213.5 275.2 213.95 275.75 214.3 M269.75 209.5 L270.75 210.0 271.15 209.45 Q271.8 208.75 272.75 208.75 273.4 208.75 273.95 209.15 M271.0 210.15 L270.75 210.0 M270.95 210.3 L271.1 210.15 271.0 210.15 270.9 210.25 270.95 210.3 271.2 210.5 271.95 211.1 272.3 211.4 272.4 211.45 272.7 211.7 272.75 211.75 273.0 212.0 273.05 212.05 273.15 212.15 273.2 212.2 273.9 212.9 M273.0 212.0 L273.15 212.15 M269.1 209.2 L269.75 209.5 M272.85 216.0 Q271.15 214.05 269.05 212.7 L268.1 212.0 M267.65 221.6 L267.75 221.35 268.0 220.65 268.3 219.7 Q268.55 218.8 267.6 219.6 L267.5 219.7 266.25 220.5 266.2 220.45 Q266.1 220.2 266.45 218.85 266.85 217.45 265.75 218.55 L264.2 219.6 M267.65 221.6 Q267.45 221.9 267.35 221.75 L267.6 222.35 267.6 222.4" fill="none" stroke="#5f462e" stroke-linecap="round" stroke-linejoin="round" stroke-width="0.1"/>
  </g>
</svg>
