<?xml version="1.0" encoding="UTF-8" standalone="no"?>
<svg xmlns:xlink="http://www.w3.org/1999/xlink" height="19.5px" width="25.0px" xmlns="http://www.w3.org/2000/svg">
  <g transform="matrix(1.0, 0.0, 0.0, 1.0, 14.1, 12.35)">
    <path d="M6.85 -9.9 L6.7 -10.0 6.6 -10.05 Q5.9 -10.6 5.0 -10.6 L4.75 -10.45 4.6 -10.25 4.65 -10.1 4.7 -9.9 4.85 -9.75 5.7 -9.35 6.3 -9.35 6.5 -9.35 6.85 -9.65 6.85 -9.9 M8.55 -7.6 L8.15 -7.65 8.15 -7.6 7.95 -7.55 7.95 -7.5 Q8.0 -7.25 8.45 -7.35 L8.55 -7.45 8.55 -7.6 M8.6 -8.7 Q8.2 -8.5 8.7 -8.4 L8.75 -8.4 Q9.05 -8.65 8.6 -8.75 L8.6 -8.7 M9.1 -8.25 Q8.65 -8.1 9.1 -7.85 L9.15 -7.9 Q9.4 -8.1 9.1 -8.25 M6.75 -8.25 L6.65 -8.25 6.55 -8.15 6.45 -7.95 8.15 -7.75 8.25 -7.75 8.35 -7.85 8.35 -7.9 6.75 -8.25 M10.75 -7.4 L9.95 -7.4 8.7 -6.75 5.35 -7.55 3.3 -8.35 1.5 -7.6 Q0.1 -7.25 -2.0 -7.6 -2.95 -8.2 -5.35 -8.3 L-6.8 -7.25 Q-7.1 -7.7 -6.75 -8.15 -6.65 -8.85 -5.8 -9.55 -6.65 -8.85 -6.75 -8.15 -7.1 -7.7 -6.8 -7.25 -7.2 -7.7 -6.8 -8.15 -6.75 -8.85 -5.85 -9.55 L-5.8 -9.55 -5.75 -9.55 -5.4 -9.4 -4.3 -9.35 -3.85 -9.35 -3.75 -9.4 -3.5 -9.4 Q-3.1 -9.5 -2.8 -9.7 L-2.75 -9.7 -2.45 -9.9 -2.1 -10.05 -2.0 -10.1 -1.8 -10.1 -1.7 -10.1 -0.5 -10.1 -0.25 -10.05 0.35 -10.05 0.6 -10.1 0.75 -10.1 1.05 -10.25 1.2 -10.35 1.6 -10.7 1.6 -10.75 1.75 -10.8 2.05 -10.85 2.15 -10.95 2.5 -11.05 2.65 -11.15 2.85 -11.25 2.9 -11.35 2.95 -11.6 3.0 -11.9 2.95 -12.1 4.7 -11.6 6.3 -10.55 9.6 -9.0 Q10.6 -8.25 10.75 -7.4 M-6.65 0.55 L-7.05 0.15 -7.05 -0.8 Q-6.5 -1.9 -4.85 -2.7 L-4.05 -2.85 -2.8 -2.95 -2.35 -2.9 -1.65 -2.9 -0.75 -2.15 -0.2 -1.75 -0.5 -1.45 -0.55 -1.4 -1.0 -1.25 -1.1 -1.2 -1.35 -0.85 -1.3 -0.65 -1.25 -0.5 -1.25 -0.45 -2.1 -0.7 -2.35 -0.8 -3.4 -0.9 -4.15 -0.7 -4.3 -0.35 -4.5 0.15 -4.65 0.4 -4.7 0.45 -5.1 0.45 -5.2 0.4 -5.4 0.4 -5.5 0.4 -6.1 0.45 -6.2 0.45 -6.6 0.55 -7.0 0.15 -7.0 -0.8 Q-6.45 -1.9 -4.8 -2.7 L-4.05 -2.85 -4.8 -2.7 Q-6.45 -1.9 -7.0 -0.8 L-7.0 0.15 -6.6 0.55 -6.65 0.55 M3.3 -10.7 L3.35 -10.75 Q3.6 -10.95 3.3 -11.1 2.85 -10.9 3.3 -10.7 M2.55 -9.45 L2.55 -9.5 2.5 -9.5 Q2.25 -9.8 1.75 -9.7 L1.6 -9.7 0.75 -9.25 0.75 -9.15 0.8 -9.0 0.85 -9.0 2.45 -9.2 2.5 -9.35 2.55 -9.45 M3.3 -8.95 L3.3 -9.0 3.2 -9.1 3.1 -9.1 3.0 -9.05 2.9 -9.0 2.95 -8.85 3.25 -8.85 3.3 -8.85 3.3 -8.95 M0.35 -8.6 L0.25 -8.6 0.15 -8.65 0.15 -8.6 0.0 -8.6 -0.05 -8.5 -0.1 -8.5 -0.3 -8.45 -0.3 -8.3 -0.2 -8.2 0.35 -8.3 0.4 -8.4 0.35 -8.6 M1.7 -8.5 L1.6 -8.5 1.5 -8.5 1.4 -8.4 1.4 -8.25 Q1.5 -8.1 1.7 -8.25 L1.75 -8.3 1.75 -8.35 1.75 -8.45 1.7 -8.5 M-5.4 -1.3 L-5.75 -1.1 Q-6.05 -0.4 -5.0 -0.45 L-4.9 -0.5 Q-4.4 -1.2 -5.4 -1.3 M-5.3 -0.2 L-5.3 -0.1 -5.0 0.0 -4.9 -0.15 -4.95 -0.2 -5.0 -0.3 -5.0 -0.35 -5.1 -0.35 -5.2 -0.3 -5.3 -0.2 M-6.1 -0.3 L-6.2 -0.2 -6.2 -0.1 -5.9 0.0 -5.85 -0.15 -5.8 -0.15 -5.85 -0.2 -5.9 -0.3 -5.9 -0.35 -6.0 -0.35 -6.1 -0.3 M-2.95 -2.3 Q-3.25 -2.2 -3.05 -1.9 -2.7 -0.95 -1.75 -1.15 L-1.75 -1.2 Q-2.0 -2.15 -2.95 -2.3 M-0.75 -2.05 L-0.75 -2.1 Q-1.05 -2.45 -1.5 -2.55 L-1.8 -2.3 Q-1.35 -1.85 -0.75 -2.05" fill="#d2822a" fill-rule="evenodd" stroke="none"/>
    <path d="M6.75 -8.25 L8.35 -7.9 8.35 -7.85 8.25 -7.75 8.15 -7.75 6.45 -7.95 6.55 -8.15 6.65 -8.25 6.75 -8.25 M9.1 -8.25 Q9.4 -8.1 9.15 -7.9 L9.1 -7.85 Q8.65 -8.1 9.1 -8.25 M8.6 -8.7 L8.6 -8.75 Q9.05 -8.65 8.75 -8.4 L8.7 -8.4 Q8.2 -8.5 8.6 -8.7 M8.55 -7.6 L8.55 -7.45 8.45 -7.35 Q8.0 -7.25 7.95 -7.5 L7.95 -7.55 8.15 -7.6 8.15 -7.65 8.55 -7.6" fill="#deb836" fill-rule="evenodd" stroke="none"/>
    <path d="M6.85 -9.9 L6.85 -9.65 6.5 -9.35 6.3 -9.35 5.7 -9.35 4.85 -9.75 4.7 -9.9 4.65 -10.1 4.6 -10.25 4.75 -10.45 5.0 -10.6 Q5.9 -10.6 6.6 -10.05 L6.7 -10.0 6.85 -9.9 M3.3 -10.7 Q2.85 -10.9 3.3 -11.1 3.6 -10.95 3.35 -10.75 L3.3 -10.7 M0.0 -0.4 L-0.3 -0.4 -0.6 -0.85 -0.65 -0.9 -0.25 -1.05 -0.25 -1.1 -0.2 -1.05 -0.1 -1.0 0.05 -0.5 0.0 -0.4 M-2.95 -2.3 Q-2.0 -2.15 -1.75 -1.2 L-1.75 -1.15 Q-2.7 -0.95 -3.05 -1.9 -3.25 -2.2 -2.95 -2.3 M-0.75 -2.05 Q-1.35 -1.85 -1.8 -2.3 L-1.5 -2.55 Q-1.05 -2.45 -0.75 -2.1 L-0.75 -2.05 M-1.0 -0.15 L-0.9 -0.2 Q-0.5 -0.15 -0.75 0.15 L-1.1 -0.1 -1.0 -0.15" fill="#dbad33" fill-rule="evenodd" stroke="none"/>
    <path d="M-6.8 -7.25 L-5.35 -8.3 Q-2.95 -8.2 -2.0 -7.6 0.1 -7.25 1.5 -7.6 L3.3 -8.35 5.35 -7.55 8.7 -6.75 9.95 -7.4 10.75 -7.4 Q11.2 -6.6 9.85 -5.8 L7.65 -5.8 7.05 -5.65 5.2 -5.85 4.6 -6.05 4.6 -6.95 3.75 -7.05 3.55 -7.15 -2.9 -6.6 -4.3 -7.05 -4.55 -7.05 -5.3 -6.8 -5.75 -6.8 -5.9 -6.9 -6.05 -6.9 -6.8 -7.25 -6.05 -6.9 -6.1 -6.9 -6.8 -7.25 M-5.35 1.15 L-6.65 0.55 -6.6 0.55 -6.2 0.45 -6.1 0.45 -5.5 0.4 -5.4 0.4 -5.2 0.4 -5.1 0.45 -4.7 0.45 -4.65 0.4 -4.5 0.15 -4.3 -0.35 -4.15 -0.7 -3.4 -0.9 -2.35 -0.8 -2.1 -0.7 -1.25 -0.45 -1.25 -0.5 -1.3 -0.65 -1.35 -0.85 -1.1 -1.2 -1.0 -1.25 -0.55 -1.4 -0.5 -1.45 -0.2 -1.75 0.15 -1.4 1.05 0.0 0.45 0.2 -0.1 0.4 -1.25 0.9 -5.3 1.1 -6.55 0.55 -6.6 0.55 -6.55 0.55 -5.3 1.1 -5.35 1.15 M0.0 -0.4 L0.05 -0.5 -0.1 -1.0 -0.2 -1.05 -0.25 -1.1 -0.25 -1.05 -0.65 -0.9 -0.6 -0.85 -0.3 -0.4 0.0 -0.4 M-1.0 -0.15 L-1.1 -0.1 -0.75 0.15 Q-0.5 -0.15 -0.9 -0.2 L-1.0 -0.15" fill="#e8d87d" fill-rule="evenodd" stroke="none"/>
    <path d="M7.05 -5.65 L5.05 -5.35 4.9 -5.35 4.35 -5.3 4.35 -5.7 3.8 -6.2 3.25 -6.75 1.15 -6.75 -1.65 -6.1 -1.75 -6.1 -3.45 -6.2 -3.85 -6.25 -5.2 -6.55 -6.1 -6.9 -6.05 -6.9 -5.9 -6.9 -5.75 -6.8 -5.3 -6.8 -4.55 -7.05 -4.3 -7.05 -2.9 -6.6 3.55 -7.15 3.75 -7.05 4.6 -6.95 4.6 -6.05 5.2 -5.85 7.05 -5.65 M-3.85 -6.25 L-5.1 -6.55 -5.75 -6.8 -5.1 -6.55 -3.85 -6.25" fill="#c48629" fill-rule="evenodd" stroke="none"/>
    <path d="M2.95 -12.1 L3.0 -11.9 2.95 -11.6 2.9 -11.35 2.85 -11.25 2.65 -11.15 2.5 -11.05 2.15 -10.95 2.05 -10.85 1.75 -10.8 1.6 -10.75 1.6 -10.7 1.2 -10.35 1.05 -10.25 0.75 -10.1 0.6 -10.1 0.35 -10.05 -0.25 -10.05 -0.5 -10.1 -1.7 -10.1 -1.8 -10.1 -2.0 -10.1 -2.1 -10.05 -2.45 -9.9 -2.75 -9.7 -2.8 -9.7 Q-3.1 -9.5 -3.5 -9.4 L-3.75 -9.4 -3.85 -9.35 -4.3 -9.35 -5.4 -9.4 -5.75 -9.55 -5.8 -9.55 -5.55 -9.9 -3.6 -10.8 -2.15 -11.65 -0.95 -12.0 -2.15 -11.65 -3.6 -10.8 -5.55 -9.9 -5.8 -9.55 -5.85 -9.55 -5.65 -9.9 -3.6 -10.8 -2.25 -11.65 -0.95 -12.0 -0.55 -12.1 2.2 -12.35 2.95 -12.1 M0.85 -11.15 L0.85 -11.35 0.8 -11.4 0.75 -11.5 Q-0.05 -12.05 -1.1 -11.85 L-1.2 -11.85 -1.95 -11.5 -2.0 -11.45 -1.95 -11.3 -1.8 -11.05 -1.7 -10.95 0.85 -11.0 0.85 -11.15 M1.0 -12.05 L0.9 -12.0 Q0.65 -11.85 0.85 -11.6 L1.2 -11.55 1.25 -11.65 1.25 -11.9 1.15 -11.95 1.0 -12.05 M-2.0 -10.95 L-2.05 -11.0 -2.45 -11.05 -2.55 -10.95 -2.5 -10.6 -2.4 -10.5 -1.9 -10.5 -1.9 -10.8 -2.0 -10.95" fill="#c9642a" fill-rule="evenodd" stroke="none"/>
    <path d="M2.55 -9.45 L2.5 -9.35 2.45 -9.2 0.85 -9.0 0.8 -9.0 0.75 -9.15 0.75 -9.25 1.6 -9.7 1.75 -9.7 Q2.25 -9.8 2.5 -9.5 L2.55 -9.5 2.55 -9.45 M1.7 -8.5 L1.75 -8.45 1.75 -8.35 1.75 -8.3 1.7 -8.25 Q1.5 -8.1 1.4 -8.25 L1.4 -8.4 1.5 -8.5 1.6 -8.5 1.7 -8.5 M0.35 -8.6 L0.4 -8.4 0.35 -8.3 -0.2 -8.2 -0.3 -8.3 -0.3 -8.45 -0.1 -8.5 -0.05 -8.5 0.0 -8.6 0.15 -8.6 0.15 -8.65 0.25 -8.6 0.35 -8.6 M3.3 -8.95 L3.3 -8.85 3.25 -8.85 2.95 -8.85 2.9 -9.0 3.0 -9.05 3.1 -9.1 3.2 -9.1 3.3 -9.0 3.3 -8.95 M-6.1 -0.3 L-6.0 -0.35 -5.9 -0.35 -5.9 -0.3 -5.85 -0.2 -5.8 -0.15 -5.85 -0.15 -5.9 0.0 -6.2 -0.1 -6.2 -0.2 -6.1 -0.3 M-5.3 -0.2 L-5.2 -0.3 -5.1 -0.35 -5.0 -0.35 -5.0 -0.3 -4.95 -0.2 -4.9 -0.15 -5.0 0.0 -5.3 -0.1 -5.3 -0.2 M-5.4 -1.3 Q-4.4 -1.2 -4.9 -0.5 L-5.0 -0.45 Q-6.05 -0.4 -5.75 -1.1 L-5.4 -1.3" fill="#ffffff" fill-rule="evenodd" stroke="none"/>
    <path d="M1.0 -12.05 L1.15 -11.95 1.25 -11.9 1.25 -11.65 1.2 -11.55 0.85 -11.6 Q0.65 -11.85 0.9 -12.0 L1.0 -12.05 M0.85 -11.15 L0.85 -11.0 -1.7 -10.95 -1.8 -11.05 -1.95 -11.3 -2.0 -11.45 -1.95 -11.5 -1.2 -11.85 -1.1 -11.85 Q-0.05 -12.05 0.75 -11.5 L0.8 -11.4 0.85 -11.35 0.85 -11.15 M-2.0 -10.95 L-1.9 -10.8 -1.9 -10.5 -2.4 -10.5 -2.5 -10.6 -2.55 -10.95 -2.45 -11.05 -2.05 -11.0 -2.0 -10.95" fill="#a14324" fill-rule="evenodd" stroke="none"/>
    <path d="M-5.4 2.4 L-5.35 2.05 -5.35 1.15 -5.3 1.1 -5.25 1.15 -5.25 2.05 -5.4 2.35 -5.25 2.05 -5.25 1.15 -5.3 1.1 -1.25 0.9 -1.45 1.0 -1.5 1.1 -2.15 1.25 -2.35 1.35 -2.85 1.5 -3.6 1.6 -3.85 1.6 -4.15 1.7 -4.25 1.8 Q-4.5 2.05 -4.95 2.15 L-5.4 2.35 -5.4 2.4 M-1.65 -4.1 L-1.65 -6.1 1.15 -6.75 3.25 -6.75 3.8 -6.2 3.25 -6.25 2.3 -6.15 1.4 -6.05 1.3 -6.0 0.75 -5.7 0.5 -5.6 0.15 -5.4 -0.3 -5.15 -0.8 -4.85 -0.9 -4.75 -1.1 -4.55 -1.5 -4.2 -1.65 -4.1 M-1.5 -4.2 L-1.5 -6.1 -1.65 -6.1 -1.5 -6.1 -1.5 -4.2" fill="#9e6c21" fill-rule="evenodd" stroke="none"/>
    <path d="M-6.1 4.3 L-5.45 2.45 -5.4 2.4 -5.4 2.35 -4.95 2.15 Q-4.5 2.05 -4.25 1.8 L-4.15 1.7 -3.85 1.6 -3.6 1.6 -2.85 1.5 -3.05 2.0 -4.65 3.5 -6.0 4.3 -6.1 4.4 -6.1 4.3 -6.0 4.3 -5.4 2.35 -6.0 4.3 -6.1 4.3 M-1.65 -2.9 L-1.65 -4.1 -1.5 -4.2 -1.1 -4.55 -0.9 -4.75 -0.8 -4.85 -0.3 -5.15 -0.75 -3.65 -0.75 -2.15 -1.65 -2.9 -1.5 -2.9 -1.5 -4.2 -1.5 -2.9 -1.65 -2.9 M0.45 0.2 L0.5 0.35 0.5 0.55 0.55 0.75 0.65 1.0 0.7 1.15 1.05 2.25 1.7 3.55 1.85 3.9 1.9 4.45 Q1.8 4.9 2.2 5.25 L2.65 5.5 3.25 5.65 3.55 5.7 2.35 5.75 2.3 5.7 2.2 5.7 1.05 5.5 0.95 5.55 0.85 5.65 0.85 5.7 0.5 5.6 0.45 5.5 0.35 5.55 0.8 5.15 0.8 3.7 -0.1 2.0 -0.1 1.25 -0.1 0.4 0.45 0.2" fill="#b08c44" fill-rule="evenodd" stroke="none"/>
    <path d="M-0.3 -5.15 L0.15 -5.4 0.5 -5.6 0.75 -5.7 1.3 -6.0 1.4 -6.05 2.3 -6.15 3.25 -6.25 3.8 -6.2 4.35 -5.7 4.35 -5.3 3.95 -4.35 3.3 -4.4 3.25 -4.4 2.75 -3.7 2.65 -3.3 2.65 -3.15 2.6 -1.85 Q2.5 -0.55 3.15 0.55 L3.2 0.75 3.35 1.85 3.35 2.15 3.75 3.15 3.8 3.3 3.8 3.65 3.85 3.75 4.15 4.25 4.8 5.05 4.5 5.9 4.1 6.05 4.0 5.95 4.05 5.95 4.05 5.8 3.55 5.7 3.25 5.65 2.65 5.5 2.2 5.25 Q1.8 4.9 1.9 4.45 L1.85 3.9 1.7 3.55 1.05 2.25 0.7 1.15 0.65 1.0 0.55 0.75 0.5 0.55 0.5 0.35 0.45 0.2 1.05 0.0 0.15 -1.4 -0.2 -1.75 -0.75 -2.15 -0.75 -3.65 -0.3 -5.15 M-0.1 1.25 Q-0.6 1.55 -1.25 1.65 L-1.85 1.85 -2.0 1.9 -2.15 2.15 -2.15 2.25 -2.35 2.9 -2.6 3.25 -2.65 3.65 -2.25 3.9 -2.15 3.95 -2.0 4.6 -2.0 5.3 -1.9 5.4 -1.65 5.5 -1.5 5.55 -1.25 5.7 -1.45 5.7 -1.25 6.1 -2.35 5.5 -2.45 5.75 -2.75 6.15 -2.9 6.15 -3.0 6.1 -3.05 5.95 Q-3.1 6.4 -3.6 6.4 L-3.9 6.35 -4.0 6.35 -4.25 6.3 -4.45 6.0 Q-4.65 5.7 -4.85 6.1 L-4.95 6.25 -5.0 6.3 -6.1 5.5 -6.1 4.7 -6.1 4.4 -6.0 4.3 -4.65 3.5 -3.05 2.0 -2.85 1.5 -2.35 1.35 -2.15 1.25 -1.5 1.1 -1.45 1.0 -1.25 0.9 -0.1 0.4 -0.1 1.25" fill="#cdb37c" fill-rule="evenodd" stroke="none"/>
    <path d="M4.8 5.05 L4.15 4.25 3.85 3.75 3.8 3.65 3.8 3.3 3.75 3.15 3.35 2.15 3.35 1.85 3.2 0.75 3.15 0.55 Q2.5 -0.55 2.6 -1.85 L2.65 -3.15 2.65 -3.3 2.75 -3.7 3.25 -4.4 3.3 -4.4 3.95 -4.35 3.55 -3.3 3.55 -0.45 5.4 1.45 5.4 2.85 5.4 3.45 4.8 5.05 M-0.1 1.25 L-0.1 2.0 0.8 3.7 0.8 5.15 0.35 5.55 0.25 5.55 -0.05 5.3 -0.25 4.9 -0.4 5.3 -0.45 5.55 Q-0.6 5.35 -0.6 5.55 L-0.75 5.7 -1.25 5.7 -1.5 5.55 -1.65 5.5 -1.9 5.4 -2.0 5.3 -2.0 4.6 -2.15 3.95 -2.25 3.9 -2.65 3.65 -2.6 3.25 -2.35 2.9 -2.15 2.25 -2.15 2.15 -2.0 1.9 -1.85 1.85 -1.25 1.65 Q-0.6 1.55 -0.1 1.25" fill="#f0eec8" fill-rule="evenodd" stroke="none"/>
    <path d="M5.5 2.85 L5.7 2.85 5.75 2.85 5.85 2.75 6.25 2.25 6.3 2.25 6.25 2.4 5.95 2.75 5.85 2.85 5.75 2.85 5.85 2.85 5.95 2.75 6.25 2.4 5.95 3.85 6.05 3.75 6.05 3.85 Q5.85 4.1 5.95 4.3 L6.0 4.05 6.05 3.85 6.0 4.05 5.95 4.3 Q5.85 4.1 6.05 3.85 L6.05 4.1 6.15 4.25 6.3 4.5 6.6 4.55 6.65 4.55 7.3 4.35 7.65 4.15 8.3 3.95 8.3 4.0 Q8.35 4.5 7.9 4.85 L6.5 5.95 6.6 5.95 8.75 5.95 8.3 6.4 7.85 6.45 7.3 6.5 8.9 6.5 9.1 6.5 9.15 6.6 8.75 6.75 8.15 6.85 7.75 6.9 7.4 6.9 7.2 6.9 6.6 6.75 6.3 6.75 6.05 6.75 5.95 6.75 5.75 6.85 4.9 6.85 4.7 6.85 4.6 6.85 4.3 6.85 1.85 6.95 -1.35 6.85 -1.45 6.85 -1.65 6.85 -1.7 6.85 -2.05 6.75 -2.1 6.75 -2.15 6.75 -2.2 6.75 -2.35 6.75 -3.35 6.75 -4.15 6.9 -4.65 6.95 -5.25 7.0 -5.45 7.0 -5.55 7.0 -5.55 7.05 -6.45 7.15 -6.75 7.15 -7.5 6.95 Q-7.85 6.75 -8.15 6.6 L-8.7 6.4 -8.95 6.4 -9.0 6.4 -9.15 6.4 -9.4 6.4 -9.8 6.45 -10.15 6.45 -10.5 6.45 Q-11.1 6.35 -11.5 6.0 L-11.75 5.85 -11.8 5.75 -11.8 5.95 -11.85 6.25 -11.9 6.3 Q-12.0 6.2 -12.05 6.2 L-11.85 6.25 -12.05 6.2 -12.15 6.4 -12.15 6.45 -12.2 6.45 -12.3 6.45 -12.45 6.4 -12.5 6.4 -12.7 6.45 -13.0 6.5 -13.15 6.55 -13.3 6.5 Q-13.6 5.95 -14.1 5.7 L-14.1 5.65 -14.0 5.65 -14.0 5.7 Q-13.55 5.95 -13.25 6.5 L-13.15 6.55 -13.25 6.5 Q-13.55 5.95 -14.0 5.7 L-14.0 5.65 -13.35 5.8 -13.1 5.9 -13.05 5.9 -12.9 5.9 -12.5 5.8 -12.45 5.7 -12.45 5.3 -12.35 5.35 -12.35 5.7 -12.35 5.8 -12.9 5.9 -12.35 5.8 -12.35 5.7 -12.35 5.35 -10.1 6.15 -10.2 5.5 -10.2 5.3 -10.1 5.35 -10.1 5.5 -10.0 6.15 -10.1 6.15 -10.0 6.15 -10.1 5.5 -10.1 5.35 -8.85 6.1 -8.75 6.1 -8.7 6.05 -8.7 6.1 -8.75 6.1 -8.7 6.1 -8.4 6.25 -8.3 6.25 Q-8.4 5.9 -8.1 5.95 L-8.0 5.95 -7.75 6.05 -7.2 6.15 -6.7 6.15 -6.65 6.05 -6.65 5.9 -6.55 5.45 -6.45 5.25 Q-6.1 4.85 -6.2 4.4 L-6.25 4.3 -6.15 4.3 -6.1 4.3 -6.1 4.4 -6.1 4.7 -6.1 5.5 -5.0 6.3 -4.95 6.25 -4.85 6.1 Q-4.65 5.7 -4.45 6.0 L-4.25 6.3 -4.0 6.35 -3.9 6.35 -3.6 6.4 Q-3.1 6.4 -3.05 5.95 L-3.0 6.1 -2.9 6.15 -2.75 6.15 -2.45 5.75 -2.35 5.5 -1.25 6.1 -1.45 5.7 -1.25 5.7 -0.75 5.7 -0.6 5.55 Q-0.6 5.35 -0.45 5.55 L-0.4 5.3 -0.25 4.9 -0.05 5.3 0.25 5.55 0.35 5.55 0.45 5.5 0.5 5.6 0.85 5.7 0.85 5.65 0.95 5.55 1.05 5.5 2.2 5.7 2.3 5.7 2.35 5.75 3.55 5.7 4.05 5.8 4.05 5.95 4.0 5.95 4.1 6.05 4.5 5.9 4.8 5.05 5.4 3.45 5.4 2.85 5.5 2.85 M5.95 3.85 Q5.75 4.1 5.85 4.3 L5.9 4.05 5.95 3.85 M8.3 4.0 L7.75 4.15 7.3 4.35 7.75 4.15 8.3 4.0 M6.6 6.75 L6.65 6.75 7.2 6.9 6.65 6.75 6.6 6.75 M-6.15 4.3 L-6.1 4.4 -6.15 4.3 M-6.1 4.7 L-6.35 5.25 -6.45 5.45 -6.55 5.9 -6.55 6.05 -6.65 6.15 -6.7 6.15 -6.65 6.15 -6.55 6.05 -6.55 5.9 -6.45 5.45 -6.35 5.25 -6.1 4.7 M-8.1 5.95 Q-8.35 5.95 -8.25 6.25 L-8.3 6.25 -8.25 6.25 Q-8.35 5.95 -8.1 5.95 M-8.7 6.4 L-8.6 6.4 -8.05 6.6 -7.45 6.95 -6.75 7.15 -7.45 6.95 -8.05 6.6 -8.6 6.4 -8.7 6.4 M-12.45 6.4 L-12.2 6.45 -12.45 6.4 M-11.75 5.85 L-11.75 5.75 -11.45 6.0 Q-11.05 6.35 -10.5 6.45 -11.05 6.35 -11.45 6.0 L-11.75 5.75 -11.75 5.85" fill="#957739" fill-rule="evenodd" stroke="none"/>
    <path d="M-5.65 -9.9 L-3.6 -10.8" fill="none" stroke="#660000" stroke-linecap="round" stroke-linejoin="round" stroke-width="0.05"/>
    <path d="M-5.8 -9.55 Q-6.65 -8.85 -6.75 -8.15 -7.1 -7.7 -6.8 -7.25 L-6.05 -6.9 -5.9 -6.9 -5.75 -6.8 -5.1 -6.55 -3.85 -6.25 -3.45 -6.2 -1.75 -6.1 -1.65 -6.1 -1.5 -6.1 -1.5 -4.2 -1.5 -2.9 -1.65 -2.9 -2.35 -2.9 -2.8 -2.95 -4.05 -2.85 -4.8 -2.7 Q-6.45 -1.9 -7.0 -0.8 L-7.0 0.15 -6.6 0.55 -6.55 0.55 -5.3 1.1 -5.25 1.15 -5.25 2.05 -5.4 2.35 -6.0 4.3 -6.1 4.3 -6.15 4.3 -6.1 4.4 -6.1 4.7 -6.35 5.25 -6.45 5.45 -6.55 5.9 -6.55 6.05 -6.65 6.15 -6.7 6.15 -7.2 6.15 -7.7 6.05 -8.0 5.95 -8.1 5.95 Q-8.35 5.95 -8.25 6.25 L-8.3 6.25 -8.4 6.25 -8.6 6.05 -8.7 6.1 -8.75 6.1 Q-9.65 5.8 -10.1 5.3 L-10.1 5.35 -10.1 5.5 -10.0 6.15 -10.1 6.15 -12.35 5.3 -12.35 5.35 -12.35 5.7 -12.35 5.8 -12.9 5.9 -13.05 5.9 -13.1 5.9 -13.3 5.8 -14.0 5.65 -14.0 5.7 Q-13.55 5.95 -13.25 6.5 L-13.15 6.55 -13.0 6.5 -12.95 6.5 -12.7 6.45 -12.5 6.4 -12.45 6.4 -12.2 6.45 -12.15 6.45 -12.05 6.4 -12.05 6.2 -11.85 6.25 -11.8 6.3 -11.75 6.25 -11.75 5.95 -11.75 5.85 -11.75 5.75 -11.45 6.0 Q-11.05 6.35 -10.5 6.45 L-10.15 6.45 -9.8 6.45 -9.7 6.45 -9.4 6.4 -9.15 6.4 -9.0 6.4 -8.95 6.4 -8.7 6.4 -8.6 6.4 -8.05 6.6 -7.45 6.95 -6.75 7.15 -6.45 7.15 -5.55 7.05 -5.5 7.05 -5.45 7.0 -5.25 7.0 -4.65 6.95 -4.0 6.9 -3.35 6.75 -2.35 6.75 -2.2 6.75 -2.15 6.75 M-0.95 -12.0 L-0.55 -12.1 2.2 -12.35 2.3 -12.35 4.8 -11.6 6.4 -10.55 9.7 -9.0 Q10.7 -8.25 10.8 -7.4 11.25 -6.6 9.95 -5.8 L9.85 -5.8 7.65 -5.8 7.05 -5.65 5.05 -5.35 4.9 -5.35 4.45 -5.3 3.6 -3.3 3.6 -0.45 5.5 1.45 5.5 2.85 5.7 2.85 5.75 2.85 5.85 2.85 5.95 2.75 6.25 2.4 6.35 2.25 6.4 2.25 6.1 3.8 6.1 3.75 6.1 4.1 6.25 4.25 6.4 4.5 6.6 4.55 6.65 4.55 7.3 4.35 7.75 4.15 8.3 4.0 8.35 3.95 Q8.45 4.45 8.0 4.85 L6.6 5.95 8.75 5.95 8.9 5.95 Q8.85 6.3 8.35 6.4 L7.85 6.45 7.3 6.5 8.9 6.5 9.1 6.5 9.15 6.5 9.25 6.6 8.9 6.75 8.25 6.85 8.15 6.85 7.75 6.9 7.4 6.9 7.2 6.9 6.65 6.75 6.6 6.75 6.3 6.75 6.05 6.75 5.75 6.85 4.9 6.85 4.7 6.85 4.6 6.85 M4.3 6.85 L1.85 6.95 -1.35 6.85 -1.45 6.85 -1.65 6.85 -1.7 6.85 -2.05 6.75 -2.1 6.75 M6.05 3.85 L6.1 3.8 M6.05 3.85 L6.0 4.05 5.95 4.3 Q5.85 4.1 6.05 3.85 M-0.95 -12.0 L-2.15 -11.65 -3.6 -10.8 -5.55 -9.9 -5.8 -9.55" fill="none" stroke="#660000" stroke-linecap="round" stroke-linejoin="round" stroke-opacity="0.7019608" stroke-width="0.05"/>
  </g>
</svg>
