<?xml version="1.0" encoding="UTF-8" standalone="no"?>
<svg xmlns:xlink="http://www.w3.org/1999/xlink" height="32.4px" width="19.4px" xmlns="http://www.w3.org/2000/svg">
  <g transform="matrix(1.0, 0.0, 0.0, 1.0, 0.0, 17.0)">
    <path d="M13.4 11.8 Q13.6 10.9 14.05 10.1 L16.3 8.0 16.6 8.9 16.75 9.05 13.8 12.15 13.4 11.8" fill="#ceb98a" fill-rule="evenodd" stroke="none"/>
    <path d="M13.4 11.8 Q13.6 10.9 14.05 10.1 L16.3 8.0 16.6 8.9 16.75 9.05 13.8 12.15" fill="none" stroke="#807642" stroke-linecap="round" stroke-linejoin="round" stroke-width="0.05"/>
    <path d="M10.55 8.3 L9.85 8.3 7.3 7.9 6.0 3.2 Q4.05 -2.5 0.85 -3.6 L0.9 -4.75 Q1.2 -10.1 4.3 -13.7 6.75 -16.55 9.85 -17.0 L10.8 -16.95 12.0 -16.65 11.9 -16.55 11.8 -16.5 11.15 -16.05 Q6.65 -15.2 4.7 -11.7 3.25 -7.2 4.55 -3.2 5.4 0.65 7.55 4.15 8.15 6.25 11.45 7.75 L10.55 8.3" fill="#eadbc4" fill-rule="evenodd" stroke="none"/>
    <path d="M13.15 6.9 L13.25 6.85 13.5 6.75 13.65 6.7 15.5 6.3 Q17.4 6.15 18.0 7.15 L18.15 7.45 Q17.7 7.0 16.75 7.05 L16.55 7.05 16.0 7.1 14.7 7.4 14.55 7.35 14.2 7.4 9.8 9.95 9.65 10.15 9.6 10.2 9.6 10.4 8.7 11.3 8.15 12.15 Q8.15 11.35 8.85 10.3 L9.9 9.05 10.15 8.85 10.4 8.65 10.9 8.25 11.0 8.2 11.4 7.9 11.5 7.8 12.05 7.5 12.1 7.5 12.3 7.35 12.45 7.3 12.7 7.15 12.95 7.0 13.15 6.9 M16.7 12.9 L16.95 13.3 16.55 13.7 16.7 14.0 16.2 14.6 16.0 14.8 15.9 14.85 15.85 14.9 15.65 15.0 15.45 15.1 15.35 15.15 15.1 15.25 14.85 15.3 14.95 15.25 15.15 15.05 15.3 14.9 Q15.4 14.7 14.2 15.2 L14.15 15.1 14.3 15.05 14.95 14.85 15.0 14.8 15.45 14.55 15.5 14.5 15.65 14.45 15.9 14.3 16.55 13.7 15.9 14.3 15.65 14.45 15.5 14.5 15.45 14.55 15.0 14.8 14.95 14.85 14.3 15.05 Q15.5 14.35 14.75 14.4 L14.8 14.4 15.2 14.15 15.85 13.7 16.7 12.9 M9.9 10.65 L9.95 10.7 9.85 10.65 9.9 10.65" fill="#a97e01" fill-rule="evenodd" stroke="none"/>
    <path d="M9.85 10.7 L9.7 10.55 9.65 10.5 9.6 10.4 9.6 10.2 9.65 10.15 9.65 10.2 12.55 8.5 12.75 8.45 12.85 8.5 12.9 8.6 12.95 8.8 12.8 8.95 9.9 10.65 9.85 10.65 9.85 10.7 M12.65 7.1 L12.95 7.0 13.15 6.9 12.95 7.0 12.7 7.15 12.45 7.3 12.3 7.35 12.1 7.5 12.05 7.5 11.5 7.8 11.4 7.9 11.0 8.2 10.9 8.25 10.4 8.65 10.15 8.85 10.1 8.8 10.25 8.65 10.35 8.6 10.75 8.3 10.95 8.15 11.35 7.85 11.4 7.85 11.5 7.8 11.7 7.65 12.0 7.45 12.05 7.45 12.25 7.35 12.45 7.2 12.65 7.1" fill="#c89602" fill-rule="evenodd" stroke="none"/>
    <path d="M8.85 9.8 L9.55 9.1 9.75 8.9 9.8 8.85 10.05 8.65 10.1 8.65 10.4 8.4 10.55 8.3 11.45 7.75 11.5 7.7 11.8 7.5 11.85 7.5 12.2 7.3 12.55 7.15 12.6 7.15 12.7 7.05 12.65 7.1 12.45 7.2 12.25 7.35 12.05 7.45 12.0 7.45 11.7 7.65 11.5 7.8 11.4 7.85 11.35 7.85 10.95 8.15 10.75 8.3 10.35 8.6 10.25 8.65 10.1 8.8 9.75 9.1 9.5 9.35 Q8.75 10.05 8.3 10.8 7.45 12.25 7.85 13.15 L7.8 13.1 Q7.35 12.35 7.85 11.3 L8.3 10.5 8.85 9.8" fill="#fee6a0" fill-rule="evenodd" stroke="none"/>
    <path d="M11.25 10.1 L11.35 10.05 13.95 13.35 13.65 14.75 13.4 14.8 13.75 13.3 11.25 10.1" fill="#ffffff" fill-rule="evenodd" stroke="none"/>
    <path d="M11.25 10.15 L11.25 10.1 11.35 10.05 11.25 10.1 11.25 10.15" fill="#9f9f9f" fill-rule="evenodd" stroke="none"/>
    <path d="M13.4 14.8 L13.7 13.3 11.25 10.15 11.25 10.1 13.75 13.3 13.4 14.8 13.65 14.75 13.4 14.8" fill="#2d2d2d" fill-rule="evenodd" stroke="none"/>
    <path d="M9.95 10.7 L9.85 10.7 9.85 10.65 9.95 10.7 M7.8 13.2 L7.75 13.1 Q7.3 12.35 7.85 11.25 L8.3 10.5 8.85 9.8 8.3 10.5 7.85 11.3 Q7.35 12.35 7.8 13.1 L7.85 13.15 7.8 13.2 M9.8 9.95 Q9.65 10.0 9.65 10.2 L9.65 10.15 9.8 9.95 M14.7 14.45 L14.75 14.4 14.7 14.45" fill="#598a93" fill-rule="evenodd" stroke="none"/>
    <path d="M14.8 14.4 L14.75 14.4 14.8 14.4" fill="#3f6167" fill-rule="evenodd" stroke="none"/>
    <path d="M14.7 7.4 L14.8 7.5 14.8 7.55 14.85 7.85 14.65 8.1 13.65 8.7 11.35 10.05 11.25 10.1 10.25 10.65 9.95 10.7 9.9 10.65 12.8 8.95 12.95 8.8 12.9 8.6 12.85 8.5 12.75 8.45 12.55 8.5 9.65 10.2 Q9.65 10.0 9.8 9.95 L14.2 7.4 14.55 7.35 14.7 7.4 M14.85 15.3 L14.3 15.4 14.2 15.2 Q15.4 14.7 15.3 14.9 L15.15 15.05 14.95 15.25 14.85 15.3 M14.15 15.1 L13.6 15.2 13.4 14.8 13.65 14.75 14.7 14.45 14.75 14.4 Q15.5 14.35 14.3 15.05 L14.15 15.1 M8.15 12.15 Q7.8 12.85 7.95 13.35 L7.8 13.2 7.85 13.15 Q7.45 12.25 8.3 10.8 8.75 10.05 9.5 9.35 L9.75 9.1 10.1 8.8 10.15 8.85 9.9 9.05 8.85 10.3 Q8.15 11.35 8.15 12.15" fill="#f2ab06" fill-rule="evenodd" stroke="none"/>
    <path d="M13.65 8.7 L15.2 12.45 16.7 12.9 15.85 13.7 15.2 14.15 14.8 14.4 15.85 13.4 14.35 12.9 13.05 9.8 11.35 10.05 13.65 8.7" fill="#000033" fill-rule="evenodd" stroke="none"/>
    <path d="M13.65 14.75 L13.95 13.35 11.35 10.05 13.05 9.8 14.35 12.9 15.85 13.4 14.8 14.4 14.75 14.4 14.7 14.45 13.65 14.75" fill="#010265" fill-rule="evenodd" stroke="none"/>
    <path d="M10.8 -16.95 L12.05 -16.7 12.2 -16.65 12.45 -16.6 Q10.85 -15.7 9.55 -14.0 6.7 -10.3 6.7 -5.05 6.7 0.2 9.55 3.9 10.6 5.25 11.8 6.1 L13.15 6.9 12.95 7.0 12.65 7.1 12.7 7.05 12.6 7.15 12.55 7.15 12.2 7.3 Q10.45 6.35 9.05 4.55 6.1 0.7 6.1 -4.7 6.1 -10.15 9.05 -13.95 10.0 -15.25 11.15 -16.05 L11.8 -16.5 11.9 -16.55 12.0 -16.65 10.8 -16.95" fill="#e1caae" fill-rule="evenodd" stroke="none"/>
    <path d="M7.3 7.9 L7.05 7.85 Q6.45 5.55 5.5 3.2 3.25 -2.3 0.05 -3.2 L0.0 -4.35 Q0.0 -9.6 2.85 -13.3 5.75 -17.0 9.85 -17.0 6.75 -16.55 4.3 -13.7 1.2 -10.1 0.9 -4.75 L0.85 -3.6 Q4.05 -2.5 6.0 3.2 L7.3 7.9" fill="#f3eae0" fill-rule="evenodd" stroke="none"/>
    <path d="M11.15 -16.05 Q10.0 -15.25 9.05 -13.95 6.1 -10.15 6.1 -4.7 6.1 0.7 9.05 4.55 10.45 6.35 12.2 7.3 L11.85 7.5 11.8 7.5 11.5 7.7 11.45 7.75 Q8.15 6.25 7.55 4.15 5.4 0.65 4.55 -3.2 3.25 -7.2 4.7 -11.7 6.65 -15.2 11.15 -16.05" fill="#ead8c4" fill-rule="evenodd" stroke="none"/>
    <path d="M10.8 -16.95 L12.05 -16.7 12.2 -16.65 12.45 -16.6 Q10.85 -15.7 9.55 -14.0 6.7 -10.3 6.7 -5.05 6.7 0.2 9.55 3.9 10.6 5.25 11.8 6.1 L13.15 6.9 13.25 6.85 13.5 6.75 13.65 6.7 15.5 6.3 Q17.4 6.15 18.0 7.15 L18.15 7.45 Q17.7 7.0 16.75 7.05 L16.55 7.05 16.0 7.1 14.7 7.4 14.8 7.5 14.8 7.55 14.85 7.85 14.65 8.1 13.65 8.7 15.2 12.45 16.7 12.9 16.95 13.3 16.55 13.7 16.7 14.0 16.2 14.6 16.0 14.8 15.9 14.85 15.85 14.9 15.65 15.0 15.45 15.1 15.35 15.15 15.1 15.25 14.85 15.3 14.3 15.4 14.2 15.2 14.15 15.1 13.6 15.2 13.4 14.8 13.7 13.3 11.25 10.15 11.25 10.1 10.25 10.65 9.95 10.7 9.85 10.7 9.7 10.55 9.65 10.5 9.6 10.4 8.7 11.3 8.15 12.15 Q7.8 12.85 7.95 13.35 L7.8 13.2 7.75 13.1 Q7.3 12.35 7.85 11.25 L8.3 10.5 8.85 9.8 9.55 9.1 9.75 8.9 9.8 8.85 10.05 8.65 10.1 8.65 10.4 8.4 10.55 8.3 9.85 8.3 7.3 7.9 7.05 7.85 Q6.45 5.55 5.5 3.2 3.25 -2.3 0.05 -3.2 L0.0 -4.35 Q0.0 -9.6 2.85 -13.3 5.75 -17.0 9.85 -17.0 L10.8 -16.95 M14.7 7.4 L14.55 7.35 14.2 7.4 9.8 9.95 Q9.65 10.0 9.65 10.2 M9.95 10.7 L9.85 10.65 M11.25 10.1 L13.75 13.3 13.4 14.8 13.65 14.75 13.4 14.8 M11.35 10.05 L11.25 10.1 M11.35 10.05 L13.65 8.7 M9.65 10.15 L9.6 10.2 9.6 10.4 M9.8 9.95 L9.65 10.15 M8.85 9.8 L8.3 10.5 7.85 11.3 Q7.35 12.35 7.8 13.1 L7.85 13.15 M14.3 15.05 L14.95 14.85 15.0 14.8 15.45 14.55 15.5 14.5 15.65 14.45 15.9 14.3 16.55 13.7 M16.7 12.9 L15.85 13.7 15.2 14.15 14.8 14.4 14.75 14.4 14.7 14.45 14.75 14.4 M14.3 15.05 L14.15 15.1 M14.7 14.45 L13.65 14.75" fill="none" stroke="#333333" stroke-linecap="round" stroke-linejoin="round" stroke-width="0.05"/>
    <path d="M8.75 3.55 L9.7 5.35 Q8.2 4.9 6.3 6.15 L6.4 5.75 8.75 3.55 M10.0 5.6 L11.4 6.65 10.85 7.8 9.85 8.85 9.65 8.75 10.0 5.6 M12.7 6.7 L13.95 6.2 14.15 7.05 12.55 7.65 12.5 6.8 12.7 6.7 M14.6 10.9 L14.6 10.85 14.6 11.35 14.6 10.9 M16.35 10.25 L19.4 10.7 18.95 11.5 Q16.3 11.4 16.35 10.25 M13.95 11.95 L13.9 12.05 13.55 12.9 12.55 12.2 12.8 11.75 11.65 11.25 12.3 9.75 13.15 11.0 13.1 11.05 13.95 11.95 M12.8 11.75 L13.1 11.05 12.8 11.75" fill="#e2e1c7" fill-rule="evenodd" stroke="none"/>
    <path d="M14.6 10.1 L14.7 10.25 14.6 10.5 14.6 10.1" fill="#d3d0ab" fill-rule="evenodd" stroke="none"/>
    <path d="M10.25 5.0 L10.15 5.25 10.25 5.0 10.35 4.75 11.9 5.65 11.4 6.65 10.0 5.6 10.15 5.25 9.75 5.35 9.7 5.35 8.75 3.55 9.6 3.3 10.25 5.0 M14.15 7.05 L14.35 8.2 14.05 9.15 12.65 8.85 12.55 7.65 14.15 7.05" fill="#d8d5b1" fill-rule="evenodd" stroke="none"/>
    <path d="M14.0 9.2 L14.6 10.1 14.6 10.5 14.55 10.6 14.45 10.85 13.95 11.95 13.1 11.05 13.15 11.0 14.0 9.2 13.15 11.0 12.3 9.75 12.4 9.55 14.0 9.2 M14.6 10.85 L16.35 10.25 Q16.3 11.4 18.95 11.5 L18.85 11.7 14.6 11.35 14.6 10.85" fill="#ceb98a" fill-rule="evenodd" stroke="none"/>
    <path d="M10.15 5.25 L10.25 5.0 9.6 3.3 8.75 3.55 6.4 5.75 6.3 6.15 Q8.2 4.9 9.7 5.35 L9.75 5.35 10.15 5.25 10.0 5.6 9.65 8.75 9.85 8.85 10.85 7.8 12.5 6.8 12.5 6.75 12.7 6.7 13.95 6.2 14.15 7.05 14.35 8.2 14.05 9.15 14.0 9.2 14.6 10.1 14.7 10.25 14.6 10.5 14.55 10.6 14.6 10.9 14.6 10.85 16.35 10.25 19.4 10.7 18.95 11.5 18.85 11.7 14.6 11.35 14.6 10.9 14.45 10.85 13.95 11.95 M11.4 6.65 L11.9 5.65 10.35 4.75 10.25 5.0 M13.9 12.05 L13.55 12.9 12.55 12.2 12.8 11.75 11.65 11.25 12.3 9.75 12.4 9.55 14.0 9.2 13.15 11.0 13.1 11.05 12.8 11.75 M12.55 7.65 L12.65 8.85 14.05 9.15 M12.7 6.7 L12.5 6.8 12.55 7.65 M11.4 6.65 L10.85 7.8 M14.45 10.85 L14.55 10.6" fill="none" stroke="#807642" stroke-linecap="round" stroke-linejoin="round" stroke-width="0.05"/>
    <path d="M9.05 4.65 L10.35 6.3 9.3 7.5 Q8.5 7.9 7.75 8.4 L7.55 8.25 9.05 4.65" fill="#e2e1c7" fill-rule="evenodd" stroke="none"/>
    <path d="M10.35 6.3 L9.05 4.65 9.75 3.75 11.25 5.35 10.35 6.3" fill="#d8d5b1" fill-rule="evenodd" stroke="none"/>
    <path d="M9.05 4.65 L7.55 8.25 7.75 8.4 Q8.5 7.9 9.3 7.5 L10.35 6.3 11.25 5.35 9.75 3.75 9.05 4.65 Z" fill="none" stroke="#807642" stroke-linecap="round" stroke-linejoin="round" stroke-width="0.05"/>
  </g>
</svg>
