<?xml version="1.0" encoding="UTF-8" standalone="no"?>
<svg xmlns:xlink="http://www.w3.org/1999/xlink" height="45.7px" width="34.35px" xmlns="http://www.w3.org/2000/svg">
  <g transform="matrix(1.0, 0.0, 0.0, 1.0, 17.15, 22.85)">
    <path d="M5.75 -21.15 L7.3 -16.3 4.95 -9.65 1.45 -5.85 5.75 -17.2 5.75 -21.15" fill="#6c4b24" fill-rule="evenodd" stroke="none"/>
    <path d="M-11.2 4.95 L-9.8 4.95 -13.4 8.55 -11.2 4.95" fill="#23230c" fill-rule="evenodd" stroke="none"/>
    <path d="M17.2 0.85 L17.2 1.85 12.15 6.9 12.15 22.85 9.9 14.95 2.4 6.5 0.05 8.65 -4.5 8.65 -8.4 17.85 -8.25 9.35 -14.95 12.45 -17.15 12.45 -16.85 11.35 -15.85 11.35 -9.35 8.1 -4.4 2.35 -8.15 0.4 -4.1 -1.5 3.15 -1.5 9.45 -5.65 12.2 -2.25 17.2 0.85 M-2.7 4.4 L-8.25 9.35 -2.7 4.4 0.2 4.4 -2.7 4.4 -4.5 8.65 -2.7 4.4" fill="#52351b" fill-rule="evenodd" stroke="none"/>
    <path d="M2.8 -22.15 L2.0 -22.4 2.8 -22.15" fill="#ffffff" fill-rule="evenodd" stroke="none"/>
    <path d="M2.0 -22.4 L2.8 -22.15 3.8 -21.8 5.75 -21.15 5.75 -17.2 1.45 -5.85 4.95 -9.65 11.55 -9.65 Q12.0 -8.65 12.85 -7.8 14.6 -6.05 17.2 -6.0 L17.2 0.85 12.2 -2.25 9.45 -5.65 3.15 -1.5 -4.1 -1.5 -8.15 0.4 -4.4 2.35 -9.35 8.1 -15.85 11.35 -12.8 0.1 -13.95 -2.85 -10.5 -8.1 -13.75 -5.7 -11.1 -12.55 -6.1 -15.95 -6.05 -15.85 Q-5.45 -15.85 -5.05 -16.2 L-4.7 -16.65 -4.35 -17.4 2.0 -22.4 M1.05 -14.35 L0.5 -15.35 1.05 -14.35 M0.5 -15.35 L-0.95 -15.35 -2.0 -16.2 -5.05 -16.2 -2.0 -16.2 -0.95 -15.35 0.5 -15.35 M0.65 -15.85 L-0.5 -15.85 -1.45 -16.65 -4.7 -16.65 -1.45 -16.65 -0.5 -15.85 0.65 -15.85 M-1.6 -10.3 L-7.75 -8.25 -10.8 -5.85 -10.8 0.9 Q-7.55 -5.75 -1.6 -10.3 M-11.2 4.95 L-13.4 8.55 -9.8 4.95 -11.2 4.95 M0.05 -14.5 L-0.95 -15.35 0.05 -14.5" fill="url(#gradient0)" fill-rule="evenodd" stroke="none"/>
    <path d="M-4.75 -18.65 L0.75 -22.85 2.0 -22.4 -4.35 -17.4 -4.75 -18.65" fill="url(#gradient1)" fill-rule="evenodd" stroke="none"/>
    <path d="M-16.85 11.35 L-14.1 0.65 -15.75 -3.0 -15.65 -3.2 -12.6 -12.7 -6.95 -17.0 -6.1 -15.95 -11.1 -12.55 -13.75 -5.7 -10.5 -8.1 -13.95 -2.85 -12.8 0.1 -15.85 11.35 -16.85 11.35" fill="url(#gradient2)" fill-rule="evenodd" stroke="none"/>
    <path d="M-1.6 -10.3 Q-7.55 -5.75 -10.8 0.9 L-10.8 -5.85 -7.75 -8.25 -1.6 -10.3" fill="url(#gradient3)" fill-rule="evenodd" stroke="none"/>
    <path d="M-4.75 -18.65 L-4.35 -17.4 -4.7 -16.65 -5.05 -16.2 -2.0 -16.2 -0.95 -15.35 0.5 -15.35 M-6.95 -17.0 L-6.1 -15.95 -6.05 -15.85 Q-5.45 -15.85 -5.05 -16.2 M-0.95 -15.35 L0.05 -14.5" fill="none" stroke="#a48c66" stroke-linecap="round" stroke-linejoin="round" stroke-width="0.05"/>
    <path d="M0.5 -15.35 L1.05 -14.35 M-4.7 -16.65 L-1.45 -16.65 -0.5 -15.85 0.65 -15.85" fill="none" stroke="#dcb996" stroke-linecap="round" stroke-linejoin="round" stroke-width="0.05"/>
    <path d="M2.8 -22.15 L2.0 -22.4 0.75 -22.85 -4.75 -18.65 M3.8 -21.8 L5.75 -21.15 7.3 -16.3 4.95 -9.65 11.55 -9.65 M17.2 -6.0 L17.2 0.85 17.2 1.85 12.15 6.9 12.15 22.85 9.9 14.95 2.4 6.5 0.05 8.65 -4.5 8.65 -8.4 17.85 -8.25 9.35 -14.95 12.45 -17.15 12.45 -16.85 11.35 -14.1 0.65 -15.75 -3.0 -15.65 -3.2 -12.6 -12.7 -6.95 -17.0 M-1.6 -10.3 Q-7.55 -5.75 -10.8 0.9 L-10.8 -5.85 -7.75 -8.25 -1.6 -10.3 M0.2 4.4 L-2.7 4.4 -4.5 8.65 M-8.25 9.35 L-2.7 4.4 M-11.2 4.95 L-9.8 4.95 -13.4 8.55 -11.2 4.95" fill="none" stroke="#000000" stroke-linecap="round" stroke-linejoin="round" stroke-opacity="0.2509804" stroke-width="0.05"/>
    <path d="M11.55 -9.65 Q12.0 -8.65 12.85 -7.8 14.6 -6.05 17.2 -6.0" fill="none" stroke="#000000" stroke-linecap="round" stroke-linejoin="round" stroke-opacity="0.2509804" stroke-width="0.05"/>
  </g>
  <defs>
    <radialGradient cx="0" cy="0" gradientTransform="matrix(0.0419, 0.0, 0.0, 0.0419, 15.75, -2.05)" gradientUnits="userSpaceOnUse" id="gradient0" r="819.2" spreadMethod="pad">
      <stop offset="0.0" stop-color="#52351b"/>
      <stop offset="1.0" stop-color="#9b6b33"/>
    </radialGradient>
    <radialGradient cx="0" cy="0" gradientTransform="matrix(0.0094, 0.0, 0.0, 0.0094, -4.75, -18.65)" gradientUnits="userSpaceOnUse" id="gradient1" r="819.2" spreadMethod="pad">
      <stop offset="0.0" stop-color="#ffffff"/>
      <stop offset="1.0" stop-color="#9b6b33"/>
    </radialGradient>
    <radialGradient cx="0" cy="0" gradientTransform="matrix(0.0358, 0.0, 0.0, 0.0358, -6.1, -15.95)" gradientUnits="userSpaceOnUse" id="gradient2" r="819.2" spreadMethod="pad">
      <stop offset="0.0" stop-color="#ffffff"/>
      <stop offset="1.0" stop-color="#9b6b33"/>
    </radialGradient>
    <radialGradient cx="0" cy="0" gradientTransform="matrix(0.0121, 0.0, 0.0, 0.0121, -9.5, -4.25)" gradientUnits="userSpaceOnUse" id="gradient3" r="819.2" spreadMethod="pad">
      <stop offset="0.0" stop-color="#ffdc66"/>
      <stop offset="1.0" stop-color="#a22626"/>
    </radialGradient>
  </defs>
</svg>
