<?xml version="1.0" encoding="UTF-8" standalone="no"?>
<svg xmlns:xlink="http://www.w3.org/1999/xlink" height="90.1px" width="80.45px" xmlns="http://www.w3.org/2000/svg">
  <g transform="matrix(1.0, 0.0, 0.0, 1.0, -234.75, -155.4)">
    <path d="M305.8 156.7 L302.4 174.85 Q294.5 186.85 285.1 196.9 L285.05 196.95 264.55 217.35 254.55 207.3 Q254.05 206.95 253.5 206.85 L253.8 206.55 305.4 155.45 305.8 156.7" fill="#83b7be" fill-rule="evenodd" stroke="none"/>
    <path d="M269.55 222.35 Q279.9 211.75 290.65 202.5 L290.7 202.45 Q296.35 198.5 303.15 196.25 301.75 185.2 303.15 175.6 L302.4 174.85 305.8 156.7 313.55 185.9 313.65 186.0 273.05 226.5 272.5 225.4 269.55 222.35" fill="#e9f2f3" fill-rule="evenodd" stroke="none"/>
    <path d="M302.4 174.85 L303.15 175.6 Q301.75 185.2 303.15 196.25 296.35 198.5 290.7 202.45 L290.65 202.5 Q279.9 211.75 269.55 222.35 L264.55 217.35 285.05 196.95 285.1 196.9 Q294.5 186.85 302.4 174.85" fill="#c4dcdf" fill-rule="evenodd" stroke="none"/>
    <path d="M269.55 222.35 L272.5 225.4 273.05 226.5 273.05 226.7 Q273.0 227.5 272.4 228.1 L272.4 228.2 272.3 228.3 251.3 208.25 251.75 207.55 251.8 207.5 Q252.4 206.9 253.15 206.8 L253.45 206.9 253.5 206.85 Q254.05 206.95 254.55 207.3 L264.55 217.35 269.55 222.35 M246.25 240.5 L245.5 241.2 Q241.4 239.7 238.1 235.95 L239.95 233.7 Q241.95 238.45 246.25 240.5 M241.65 244.8 L241.2 245.2 Q234.35 246.85 234.8 239.9 L235.2 239.4 Q237.5 243.4 241.65 244.8" fill="#404040" fill-rule="evenodd" stroke="none"/>
    <path d="M251.9 219.25 L252.1 219.0 251.7 210.25 251.65 210.2 251.35 209.65 251.15 208.9 251.3 208.25 272.3 228.3 Q271.75 228.8 271.1 228.75 270.3 228.8 269.75 228.25 L269.75 228.15 259.4 227.95 259.4 228.0 251.9 219.25" fill="#55542b" fill-rule="evenodd" stroke="none"/>
    <path d="M251.9 219.25 L259.4 228.0 257.65 229.6 Q253.15 228.55 249.0 222.75 L251.9 219.25" fill="#9f59aa" fill-rule="evenodd" stroke="none"/>
    <path d="M253.05 234.05 L250.8 236.2 246.5 231.9 244.2 228.55 246.3 226.05 Q248.5 231.2 253.05 234.05" fill="#ba86c1" fill-rule="evenodd" stroke="none"/>
    <path d="M254.35 232.75 L253.05 234.05 Q248.5 231.2 246.3 226.05 L247.95 224.0 Q250.0 229.95 254.35 232.75" fill="#8c4d95" fill-rule="evenodd" stroke="none"/>
    <path d="M257.65 229.6 L254.35 232.75 Q250.0 229.95 247.95 224.0 L249.0 222.75 Q253.15 228.55 257.65 229.6 M242.65 243.85 L242.6 243.9 241.65 244.8 Q237.5 243.4 235.2 239.4 L237.3 236.9 Q239.2 240.95 242.65 243.85" fill="#ac6fb5" fill-rule="evenodd" stroke="none"/>
    <path d="M247.65 239.2 L246.25 240.5 Q241.95 238.45 239.95 233.7 L241.6 231.7 Q243.75 234.8 246.25 236.25 L247.65 239.2" fill="#57305c" fill-rule="evenodd" stroke="none"/>
    <path d="M241.6 231.7 L242.5 230.6 243.7 230.85 246.25 236.25 Q243.75 234.8 241.6 231.7" fill="#603566" fill-rule="evenodd" stroke="none"/>
    <path d="M242.5 230.6 L244.2 228.55 246.5 231.9 243.7 230.85 242.5 230.6" fill="#733f7a" fill-rule="evenodd" stroke="none"/>
    <path d="M250.8 236.2 L247.65 239.2 246.25 236.25 243.7 230.85 246.5 231.9 250.8 236.2" fill="#784280" fill-rule="evenodd" stroke="none"/>
    <path d="M245.5 241.2 L243.95 242.65 242.65 243.85 Q239.2 240.95 237.3 236.9 L238.1 235.95 Q241.4 239.7 245.5 241.2" fill="#c59acb" fill-rule="evenodd" stroke="none"/>
    <path d="M313.55 185.9 L305.8 156.7 305.4 155.45" fill="none" stroke="#cfe4e4" stroke-linecap="round" stroke-linejoin="round" stroke-opacity="0.7019608" stroke-width="0.1"/>
    <path d="M269.55 222.35 L272.5 225.4 273.05 226.5 273.05 226.7 Q273.0 227.5 272.4 228.1 L272.4 228.2 272.3 228.3 Q271.75 228.8 271.1 228.75 270.3 228.8 269.75 228.25 L269.75 228.15 259.4 227.95 259.4 228.0 257.65 229.6 254.35 232.75 253.05 234.05 250.8 236.2 247.65 239.2 246.25 240.5 245.5 241.2 243.95 242.65 242.65 243.85 M264.55 217.35 L269.55 222.35 M253.5 206.85 Q254.05 206.95 254.55 207.3 L264.55 217.35 M251.3 208.25 L251.75 207.55 251.8 207.5 Q252.4 206.9 253.15 206.8 L253.45 206.9 253.5 206.85 M251.9 219.25 L252.1 219.0 251.7 210.25 251.65 210.2 251.35 209.65 251.15 208.9 251.3 208.25 M242.6 243.9 L241.65 244.8 241.2 245.2 M234.8 239.9 L235.2 239.4 237.3 236.9 238.1 235.95 239.95 233.7 241.6 231.7 242.5 230.6 244.2 228.55 246.3 226.05 247.95 224.0 249.0 222.75 251.9 219.25" fill="none" stroke="#5f462e" stroke-linecap="round" stroke-linejoin="round" stroke-width="0.1"/>
    <path d="M273.05 226.5 L313.65 186.0 M253.8 206.55 L305.4 155.45" fill="none" stroke="#cfe4e4" stroke-linecap="round" stroke-linejoin="round" stroke-opacity="0.7019608" stroke-width="0.05"/>
    <path d="M242.65 243.85 L242.6 243.9" fill="none" stroke="#66ff00" stroke-linecap="round" stroke-linejoin="round" stroke-width="0.05"/>
    <path d="M314.35 191.6 Q312.5 195.85 308.15 199.85 303.75 203.85 299.45 205.2 295.05 206.55 293.2 204.55 291.4 202.55 293.2 198.35 294.95 194.15 299.35 190.15 303.7 186.15 308.1 184.75 312.45 183.4 314.25 185.4 316.1 187.4 314.35 191.6" fill="url(#gradient0)" fill-rule="evenodd" stroke="none"/>
  </g>
  <defs>
    <radialGradient cx="0" cy="0" gradientTransform="matrix(0.013, -0.0119, 0.0054, 0.006, 303.75, 195.0)" gradientUnits="userSpaceOnUse" id="gradient0" r="819.2" spreadMethod="pad">
      <stop offset="0.0" stop-color="#ffffff"/>
      <stop offset="0.9333333333333333" stop-color="#ffffff" stop-opacity="0.0"/>
    </radialGradient>
  </defs>
</svg>
