<?xml version="1.0" encoding="UTF-8" standalone="no"?>
<svg xmlns:xlink="http://www.w3.org/1999/xlink" height="27.95px" width="66.6px" xmlns="http://www.w3.org/2000/svg">
  <g transform="matrix(1.0, 0.0, 0.0, 1.0, -238.55, -210.9)">
    <path d="M298.45 215.7 L296.2 214.95 Q287.7 212.35 276.6 211.7 274.8 211.5 266.85 211.65 258.95 211.75 249.05 214.45 239.15 217.15 239.25 221.8 L239.1 220.9 239.1 220.5 Q239.55 216.65 248.8 213.85 258.55 210.9 272.25 210.9 275.6 210.85 278.8 211.05 288.3 211.6 295.65 213.85 L297.75 214.6 298.2 214.8 Q303.55 216.95 304.9 220.5 303.15 217.6 298.45 215.7" fill="#eadbe9" fill-rule="evenodd" stroke="none"/>
    <path d="M276.6 211.7 Q287.7 212.35 296.2 214.95 L298.45 215.7 299.85 222.25 Q298.05 221.45 295.65 220.7 285.9 217.75 272.25 217.75 L259.95 218.4 276.6 211.7" fill="#c098bd" fill-rule="evenodd" stroke="none"/>
    <path d="M298.45 215.7 Q303.15 217.6 304.9 220.5 L305.05 220.9 305.05 222.0 305.05 222.2 Q304.65 223.3 303.45 224.3 302.25 223.35 300.4 222.45 L299.85 222.25 298.45 215.7 M239.25 221.8 Q239.15 217.15 249.05 214.45 258.95 211.75 266.85 211.65 274.8 211.5 276.6 211.7 L259.95 218.4 256.4 218.95 Q252.3 219.65 248.8 220.7 243.45 222.35 241.0 224.3 L239.5 222.45 239.25 221.8" fill="#985c94" fill-rule="evenodd" stroke="none"/>
    <path d="M239.1 220.9 L239.25 221.8 239.5 222.45 241.0 224.3 241.15 224.4 241.15 224.5 241.2 224.6 242.3 225.6 242.45 228.1 252.7 235.55 250.5 234.8 Q242.35 231.75 240.55 230.05 238.7 228.35 238.7 227.65 L238.55 225.55 239.05 220.9 239.1 220.9 M303.45 224.3 Q304.65 223.3 305.05 222.2 L304.9 228.45 Q304.3 232.1 295.65 234.8 290.2 236.45 283.55 237.2 L292.5 233.15 292.55 233.1 292.9 233.3 293.3 233.1 293.45 232.75 299.6 229.95 300.45 226.8 Q302.1 225.8 304.1 224.05 L303.35 224.5 303.3 224.4 303.45 224.3 M270.75 231.8 L272.25 231.8 272.55 231.8 271.65 237.85 270.0 237.8 270.65 237.25 270.75 231.8 M262.55 237.4 L262.95 234.95 267.15 235.35 266.65 235.6 263.15 235.9 263.95 237.5 262.55 237.4" fill="#eeb4ef" fill-rule="evenodd" stroke="none"/>
    <path d="M303.35 224.5 L304.1 224.05 Q302.1 225.8 300.45 226.8 298.5 227.95 295.65 228.85 286.0 231.75 272.55 231.8 L272.25 231.8 270.75 231.8 263.55 231.5 Q255.3 230.8 248.8 228.85 244.6 227.55 242.3 225.6 L241.2 224.6 241.3 224.5 242.25 225.15 Q244.65 226.65 248.8 227.9 255.35 229.9 263.7 230.55 L272.25 230.9 272.65 230.9 Q286.05 230.8 295.65 227.9 298.6 227.0 300.75 226.0 302.15 225.25 303.15 224.5 L303.35 224.5" fill="#ffffff" fill-rule="evenodd" stroke="none"/>
    <path d="M300.45 226.8 L299.6 229.95 293.45 232.75 293.45 232.55 293.3 232.0 292.9 231.8 Q292.6 231.8 292.45 232.0 L292.35 232.55 292.45 233.1 292.5 233.15 283.55 237.2 272.3 237.85 271.65 237.85 272.55 231.8 Q286.0 231.75 295.65 228.85 298.5 227.95 300.45 226.8 M242.3 225.6 Q244.6 227.55 248.8 228.85 255.3 230.8 263.55 231.5 L270.75 231.8 270.65 237.25 270.0 237.8 263.95 237.5 263.15 235.9 266.65 235.6 267.15 235.35 262.95 234.95 262.55 237.4 255.65 236.3 252.7 235.55 242.45 228.1 242.3 225.6 M281.4 233.5 Q281.25 233.65 281.25 234.05 281.25 234.4 281.4 234.6 281.5 234.8 281.8 234.8 L282.2 234.6 282.35 234.05 282.2 233.5 281.8 233.3 Q281.5 233.3 281.4 233.5 M286.85 234.05 Q287.0 234.25 287.3 234.25 L287.7 234.05 287.85 233.5 287.7 232.95 287.3 232.75 Q287.0 232.75 286.85 232.95 L286.75 233.5 286.85 234.05" fill="#fdd7fd" fill-rule="evenodd" stroke="none"/>
    <path d="M292.55 233.1 L292.5 233.15 292.45 233.1 292.55 233.1" fill="#c7f1f3" fill-rule="evenodd" stroke="none"/>
    <path d="M304.9 220.5 Q303.55 216.95 298.2 214.8 L297.75 214.6 295.65 213.85 Q288.3 211.6 278.8 211.05 275.6 210.85 272.25 210.9 258.55 210.9 248.8 213.85 239.55 216.65 239.1 220.5 L239.1 220.9 239.25 221.8 239.5 222.45 241.0 224.3 Q243.45 222.35 248.8 220.7 252.3 219.65 256.4 218.95 L259.95 218.4 272.25 217.75 Q285.9 217.75 295.65 220.7 298.05 221.45 299.85 222.25 L300.4 222.45 Q302.25 223.35 303.45 224.3 L303.3 224.4 303.15 224.5 303.35 224.5 304.1 224.05 M305.05 222.2 Q304.65 223.3 303.45 224.3 M293.45 232.75 L293.3 233.1 292.9 233.3 292.55 233.1 292.45 233.1 292.35 232.55 292.45 232.0 Q292.6 231.8 292.9 231.8 L293.3 232.0 293.45 232.55 293.45 232.75 M283.55 237.2 Q290.2 236.45 295.65 234.8 304.3 232.1 304.9 228.45 L305.05 222.2 305.05 222.0 305.05 220.9 304.9 220.5 Q305.35 221.2 305.05 222.0 M303.15 224.5 Q302.15 225.25 300.75 226.0 298.6 227.0 295.65 227.9 286.05 230.8 272.65 230.9 L272.25 230.9 263.7 230.55 Q255.35 229.9 248.8 227.9 244.65 226.65 242.25 225.15 L241.3 224.5 241.15 224.5 241.2 224.6 M239.1 220.5 L239.05 220.9 238.55 225.55 238.7 227.65 Q238.7 228.35 240.55 230.05 242.35 231.75 250.5 234.8 L252.7 235.55 255.65 236.3 262.55 237.4 263.95 237.5 270.0 237.8 271.65 237.85 272.3 237.85 283.55 237.2 M241.3 224.5 L241.15 224.4 241.0 224.3 M286.85 234.05 L286.75 233.5 286.85 232.95 Q287.0 232.75 287.3 232.75 L287.7 232.95 287.85 233.5 287.7 234.05 287.3 234.25 Q287.0 234.25 286.85 234.05 M281.4 233.5 Q281.5 233.3 281.8 233.3 L282.2 233.5 282.35 234.05 282.2 234.6 281.8 234.8 Q281.5 234.8 281.4 234.6 281.25 234.4 281.25 234.05 281.25 233.65 281.4 233.5 Z" fill="none" stroke="#000000" stroke-linecap="round" stroke-linejoin="round" stroke-opacity="0.4" stroke-width="0.05"/>
    <path d="M261.8 232.15 L261.8 230.8 Q262.05 230.55 262.3 230.45 L262.65 229.95 264.3 229.95 261.8 232.15 M274.6 235.8 L274.6 238.0 274.25 238.35 273.55 238.85 267.35 238.85 266.6 238.85 265.1 238.85 267.7 238.0 270.75 238.0 270.85 237.85 271.3 237.35 271.3 231.3 271.1 231.05 271.8 231.4 271.8 236.65 274.6 235.8 M263.0 234.45 L266.6 234.45 267.35 234.45 267.45 234.8 267.35 235.2 267.0 235.3 263.0 235.3 263.0 234.45" fill="#cccccc" fill-rule="evenodd" stroke="none"/>
    <path d="M264.3 229.95 L265.45 229.95 274.0 229.95 274.25 230.3 274.6 230.8 274.6 235.8 271.8 236.65 271.8 231.4 271.1 231.05 270.95 230.9 263.6 230.9 263.0 231.4 263.0 234.45 263.0 235.3 263.0 237.35 263.2 237.6 263.6 238.0 267.7 238.0 265.1 238.85 263.1 238.85 262.65 238.6 261.8 237.75 261.8 232.15 264.3 229.95" fill="#eeeeee" fill-rule="evenodd" stroke="none"/>
    <path d="M261.8 232.15 L261.8 230.8 Q262.05 230.55 262.3 230.45 L262.65 229.95 264.3 229.95 M265.45 229.95 L274.0 229.95 274.25 230.3 274.6 230.8 274.6 235.8 274.6 238.0 274.25 238.35 273.55 238.85 267.35 238.85 M266.6 238.85 L265.1 238.85 263.1 238.85 262.65 238.6 261.8 237.75 261.8 232.15 M271.3 237.35 L271.3 231.3 271.1 231.05 270.95 230.9 263.6 230.9 263.0 231.4 263.0 234.45 266.6 234.45 267.35 234.45 267.45 234.8 267.35 235.2 267.0 235.3 263.0 235.3 263.0 237.35 263.2 237.6 263.6 238.0 267.7 238.0 270.75 238.0 270.85 237.85 M263.0 235.3 L263.0 234.45" fill="none" stroke="#000000" stroke-linecap="round" stroke-linejoin="round" stroke-opacity="0.4" stroke-width="0.05"/>
    <path d="M264.3 229.95 L265.45 229.95 M267.35 238.85 L266.6 238.85 M270.85 237.85 L271.3 237.35" fill="none" stroke="#333333" stroke-linecap="round" stroke-linejoin="round" stroke-width="0.05"/>
    <path d="M274.05 236.15 L275.05 236.35 Q276.1 236.5 276.05 234.65 277.4 235.95 278.4 235.6 279.45 235.2 279.4 233.0 280.7 234.3 281.3 233.7 281.85 233.1 281.45 231.3 282.45 232.1 284.1 231.5 285.8 230.9 285.55 230.55 L285.65 229.95 285.7 230.0 Q286.0 230.35 285.75 230.85 285.9 231.1 284.25 231.8 L281.8 232.65 Q282.1 233.45 281.5 234.05 280.9 234.6 279.75 234.35 279.7 235.55 278.65 235.9 277.65 236.3 276.35 235.9 276.3 236.85 275.15 236.85 274.35 236.8 274.05 236.15" fill="#e6e6e6" fill-rule="evenodd" stroke="none"/>
    <path d="M285.65 229.95 L285.55 230.55 Q285.8 230.9 284.1 231.5 282.45 232.1 281.45 231.3 281.85 233.1 281.3 233.7 280.7 234.3 279.4 233.0 279.45 235.2 278.4 235.6 277.4 235.95 276.05 234.65 276.1 236.5 275.05 236.35 L274.05 236.15 274.05 236.1 273.9 235.45 Q273.85 234.15 274.45 232.85 275.05 231.5 276.65 230.8 278.15 229.95 280.05 229.6 L283.7 229.45 Q285.25 229.6 285.65 229.95" fill="#ffffff" fill-rule="evenodd" stroke="none"/>
    <path d="M274.05 236.15 Q274.35 236.8 275.15 236.85 276.3 236.85 276.35 235.9 277.65 236.3 278.65 235.9 279.7 235.55 279.75 234.35 280.9 234.6 281.5 234.05 282.1 233.45 281.8 232.65 L284.25 231.8 Q285.9 231.1 285.75 230.85 286.0 230.35 285.7 230.0 L285.65 229.95 Q285.25 229.6 283.7 229.45 L280.05 229.6 Q278.15 229.95 276.65 230.8 275.05 231.5 274.45 232.85 273.85 234.15 273.9 235.45 L274.05 236.1 274.05 236.15 Z" fill="none" stroke="#333333" stroke-linecap="round" stroke-linejoin="round" stroke-opacity="0.42352942" stroke-width="0.05"/>
    <path d="M251.3 228.8 L251.25 228.85 Q250.95 229.2 251.15 229.8 251.0 229.95 252.6 230.75 254.1 231.55 254.85 231.75 254.6 232.55 255.1 233.2 255.7 233.8 256.8 233.55 256.8 234.8 257.75 235.25 L260.0 235.35 Q260.05 236.3 261.15 236.35 261.95 236.4 262.25 235.75 L261.25 235.95 Q260.25 236.0 260.4 234.2 259.0 235.3 258.0 234.9 257.05 234.45 257.25 232.3 255.95 233.45 255.35 232.85 254.75 232.2 255.3 230.45 L252.7 230.5 Q251.1 229.75 251.4 229.4 L251.3 228.8" fill="#e6e6e6" fill-rule="evenodd" stroke="none"/>
    <path d="M262.25 235.75 L262.25 235.7 262.45 235.1 Q262.55 233.8 262.0 232.45 261.5 231.15 260.05 230.25 258.6 229.35 256.7 228.85 L253.25 228.5 251.3 228.8 251.4 229.4 Q251.1 229.75 252.7 230.5 L255.3 230.45 Q254.75 232.2 255.35 232.85 255.95 233.45 257.25 232.3 257.05 234.45 258.0 234.9 259.0 235.3 260.4 234.2 260.25 236.0 261.25 235.95 L262.25 235.75" fill="#ffffff" fill-rule="evenodd" stroke="none"/>
    <path d="M262.25 235.75 L262.25 235.7 262.45 235.1 Q262.55 233.8 262.0 232.45 261.5 231.15 260.05 230.25 258.6 229.35 256.7 228.85 L253.25 228.5 251.3 228.8 251.25 228.85 Q250.95 229.2 251.15 229.8 251.0 229.95 252.6 230.75 254.1 231.55 254.85 231.75 254.6 232.55 255.1 233.2 255.7 233.8 256.8 233.55 256.8 234.8 257.75 235.25 L260.0 235.35 Q260.05 236.3 261.15 236.35 261.95 236.4 262.25 235.75 Z" fill="none" stroke="#333333" stroke-linecap="round" stroke-linejoin="round" stroke-opacity="0.42352942" stroke-width="0.05"/>
    <path d="M281.2 213.9 L281.3 214.25 280.75 214.7 279.85 215.1 Q280.0 215.45 279.8 215.7 L279.15 215.9 Q279.15 216.35 278.75 216.55 L277.9 216.65 Q277.9 217.0 277.45 217.05 277.15 217.1 277.0 216.85 L277.4 216.9 Q277.8 216.9 277.75 216.2 278.3 216.6 278.7 216.4 279.05 216.25 278.95 215.35 279.45 215.8 279.7 215.55 L279.65 214.6 Q280.05 214.9 280.7 214.6 L281.2 214.15 281.2 213.9" fill="#e6e6e6" fill-rule="evenodd" stroke="none"/>
    <path d="M277.0 216.85 L277.0 216.8 276.95 216.6 Q276.85 216.05 277.05 215.55 277.25 215.0 277.8 214.6 278.35 214.25 279.05 214.0 L280.45 213.8 281.2 213.9 281.2 214.15 280.7 214.6 Q280.05 214.9 279.65 214.6 L279.7 215.55 Q279.45 215.8 278.95 215.35 279.05 216.25 278.7 216.4 278.3 216.6 277.75 216.2 277.8 216.9 277.4 216.9 L277.0 216.85" fill="#ffffff" fill-rule="evenodd" stroke="none"/>
    <path d="M277.0 216.85 L277.0 216.8 276.95 216.6 Q276.85 216.05 277.05 215.55 277.25 215.0 277.8 214.6 278.35 214.25 279.05 214.0 L280.45 213.8 281.2 213.9 281.3 214.25 280.75 214.7 279.85 215.1 Q280.0 215.45 279.8 215.7 L279.15 215.9 Q279.15 216.35 278.75 216.55 L277.9 216.65 Q277.9 217.0 277.45 217.05 277.15 217.1 277.0 216.85 Z" fill="none" stroke="#333333" stroke-linecap="round" stroke-linejoin="round" stroke-opacity="0.42352942" stroke-width="0.05"/>
    <path d="M270.3 213.7 L270.25 213.7 Q270.15 213.85 270.2 214.1 L270.8 214.55 271.7 215.0 Q271.55 215.3 271.75 215.6 272.0 215.85 272.45 215.8 272.45 216.3 272.85 216.5 L273.75 216.6 Q273.75 217.0 274.2 217.0 274.5 217.05 274.65 216.8 L274.25 216.85 Q273.85 216.85 273.95 216.1 L272.95 216.35 Q272.55 216.15 272.65 215.25 272.1 215.7 271.85 215.45 271.65 215.15 271.9 214.45 L270.85 214.4 270.3 213.95 270.3 213.7" fill="#e6e6e6" fill-rule="evenodd" stroke="none"/>
    <path d="M274.65 216.8 L274.65 216.75 274.75 216.5 274.65 215.45 Q274.45 214.85 273.85 214.45 273.3 214.05 272.5 213.85 L271.1 213.6 270.3 213.7 270.3 213.95 270.85 214.4 271.9 214.45 Q271.65 215.15 271.85 215.45 272.1 215.7 272.65 215.25 272.55 216.15 272.95 216.35 L273.95 216.1 Q273.85 216.85 274.25 216.85 L274.65 216.8" fill="#ffffff" fill-rule="evenodd" stroke="none"/>
    <path d="M274.65 216.8 L274.65 216.75 274.75 216.5 274.65 215.45 Q274.45 214.85 273.85 214.45 273.3 214.05 272.5 213.85 L271.1 213.6 270.3 213.7 270.25 213.7 Q270.15 213.85 270.2 214.1 L270.8 214.55 271.7 215.0 Q271.55 215.3 271.75 215.6 272.0 215.85 272.45 215.8 272.45 216.3 272.85 216.5 L273.75 216.6 Q273.75 217.0 274.2 217.0 274.5 217.05 274.65 216.8 Z" fill="none" stroke="#333333" stroke-linecap="round" stroke-linejoin="round" stroke-opacity="0.42352942" stroke-width="0.05"/>
    <path d="M275.1 213.15 Q275.45 213.05 275.9 213.55 276.3 213.05 276.7 213.15 277.45 213.25 277.3 214.35 277.1 215.05 275.9 215.8 274.75 215.1 274.5 214.35 274.35 213.3 275.1 213.15" fill="#cc3300" fill-rule="evenodd" stroke="none"/>
  </g>
</svg>
