<?xml version="1.0" encoding="UTF-8" standalone="no"?>
<svg xmlns:xlink="http://www.w3.org/1999/xlink" height="82.8px" width="92.55px" xmlns="http://www.w3.org/2000/svg">
  <g transform="matrix(1.0, 0.0, 0.0, 1.0, -228.7, -159.05)">
    <path d="M318.35 166.95 L316.2 171.45 313.0 176.55 312.3 177.05 Q313.9 173.3 318.35 166.95 M305.35 183.25 L302.3 186.8 301.55 186.85 299.5 186.65 Q298.7 186.35 298.45 185.8 L298.1 184.9 Q297.6 182.85 300.15 182.15 299.5 182.6 299.75 183.3 300.1 184.45 301.5 184.6 L302.1 183.95 Q304.65 181.7 303.7 178.15 L303.65 178.0 307.45 176.75 Q307.75 179.95 305.35 183.25 M301.4 179.05 L297.15 180.8 294.9 185.75 294.9 181.25 301.4 179.05 M292.7 194.3 L297.4 192.7 276.9 209.15 278.3 209.1 287.9 203.8 276.65 213.7 266.4 216.9 265.55 215.8 265.2 215.3 263.75 215.5 263.2 214.5 260.3 213.6 Q257.95 213.55 256.6 214.9 L255.9 216.45 255.8 216.4 254.35 215.7 252.15 217.0 251.8 216.4 251.75 216.35 253.45 214.5 253.2 214.65 255.0 212.55 255.85 212.15 Q261.2 211.15 267.1 212.8 L264.75 210.4 268.3 210.6 268.1 210.7 268.35 210.6 Q270.7 210.15 273.2 208.35 284.85 202.55 292.7 194.3 M263.2 199.1 Q265.4 196.4 266.4 193.7 267.7 190.1 266.75 189.55 265.75 189.0 265.5 189.0 L264.85 189.05 Q265.25 188.7 265.8 188.5 L266.5 188.2 Q268.2 189.55 268.85 191.75 L269.0 192.5 269.2 193.2 269.3 193.65 Q270.15 198.75 266.0 203.1 L277.9 191.65 282.05 188.65 264.7 204.95 Q268.1 199.3 267.6 194.2 L263.2 199.1 M276.05 184.4 L275.95 184.65 275.95 184.6 276.05 184.2 Q276.05 183.3 276.35 182.55 L276.65 181.85 278.1 179.3 278.25 179.1 278.75 178.55 Q279.05 178.2 279.45 178.05 L281.3 177.85 Q282.25 178.15 282.5 179.0 L282.7 179.55 282.8 180.4 282.8 180.75 282.7 180.4 Q282.25 178.75 280.65 178.55 L279.95 178.7 279.1 179.35 Q278.05 180.25 277.05 182.25 L277.05 182.3 276.05 184.4 M277.4 194.2 L278.85 193.35 Q281.05 191.9 282.95 190.1 L277.25 196.65 273.75 199.85 277.6 193.35 277.4 194.2 M264.85 207.8 Q268.45 206.9 271.7 205.05 273.6 203.85 274.85 201.9 L272.1 203.4 Q266.1 205.75 260.45 208.7 L264.5 209.95 264.5 210.0 264.6 209.95 264.5 209.95 264.85 207.8 M263.35 219.7 L263.9 219.5 263.6 220.15 263.5 220.35 264.1 220.0 264.25 219.95 Q264.15 220.35 264.35 220.7 L264.6 220.95 265.65 220.2 265.7 220.1 265.7 219.35 266.2 219.7 265.95 220.95 Q265.6 221.5 265.05 221.6 264.45 221.7 264.0 221.2 263.5 220.7 263.4 220.0 L263.35 219.7 M258.5 217.7 L259.35 217.25 258.65 217.9 258.6 218.5 Q258.6 218.95 258.95 218.55 L259.0 218.5 Q258.7 219.45 259.2 219.9 L259.7 219.3 260.1 219.8 260.3 219.5 260.25 218.4 261.35 219.7 261.2 218.6 261.45 218.65 261.45 218.6 261.4 218.4 261.95 218.75 262.0 219.05 261.9 219.75 Q261.65 221.1 260.5 221.35 259.2 221.35 258.65 220.1 258.1 218.9 258.5 217.7" fill="#e9a228" fill-rule="evenodd" stroke="none"/>
    <path d="M282.05 188.65 L286.05 185.7 287.0 177.0 289.15 178.6 290.1 177.9 296.0 174.85 306.1 167.85 304.2 171.3 313.65 162.65 314.0 167.2 320.95 159.35 318.35 166.95 Q313.9 173.3 312.3 177.05 308.25 181.4 305.35 183.25 307.75 179.95 307.45 176.75 L303.65 178.0 303.7 178.15 301.4 179.05 294.9 181.25 294.9 185.75 294.05 187.65 288.65 195.7 292.7 194.3 Q284.85 202.55 273.2 208.35 270.7 210.15 268.35 210.6 L268.1 210.7 268.3 210.6 264.75 210.4 267.1 212.8 Q261.2 211.15 255.85 212.15 L255.0 212.55 253.2 214.65 252.95 215.0 252.9 215.05 Q251.95 215.4 255.15 210.15 L255.5 209.65 255.5 209.6 Q256.85 205.75 258.1 204.05 259.3 202.35 259.9 202.3 L261.7 200.75 263.2 199.1 267.6 194.2 Q268.1 199.3 264.7 204.95 L282.05 188.65 M282.8 180.75 Q282.65 182.4 280.95 183.65 279.0 184.4 278.25 183.1 L278.5 182.15 279.2 181.5 Q278.85 182.8 279.75 182.8 L280.0 182.75 280.6 182.25 280.85 181.7 Q280.2 180.0 278.55 181.2 L278.05 181.85 Q277.4 184.35 278.9 185.55 L280.0 185.6 279.4 186.2 Q278.65 186.8 277.8 186.9 277.85 188.65 276.2 189.85 L275.7 189.9 Q274.6 189.45 273.3 190.35 272.3 190.95 272.4 191.95 L273.1 192.5 273.7 192.15 274.05 191.85 274.2 191.45 274.05 190.95 274.45 191.5 Q274.65 191.85 274.25 192.25 273.2 193.35 272.3 192.65 271.2 191.8 272.6 190.3 274.05 188.95 275.85 188.75 L276.45 188.3 Q276.95 186.4 276.2 184.95 L276.25 184.9 276.2 184.9 276.05 184.4 277.05 182.3 277.05 182.25 Q278.05 180.25 279.1 179.35 L279.95 178.7 280.65 178.55 Q282.25 178.75 282.7 180.4 L282.8 180.75 M307.35 161.1 L307.6 161.3 Q305.95 161.55 305.35 163.1 L304.45 165.1 304.1 165.7 303.65 166.25 302.05 167.6 300.2 168.1 298.65 167.8 Q297.5 167.15 297.0 165.9 296.8 165.45 296.9 164.95 L297.35 164.35 Q297.75 164.0 298.25 163.85 L297.8 164.45 Q297.4 165.2 298.0 166.2 L298.4 166.35 300.4 166.35 Q301.5 166.2 302.2 165.4 L302.3 165.3 302.85 164.55 303.7 162.8 Q303.9 162.2 304.35 161.75 L305.5 161.0 306.65 160.8 307.35 161.1 M312.95 169.8 L311.95 165.9 304.75 174.05 312.95 169.8 M293.3 178.35 L296.5 178.8 301.7 172.9 293.3 178.35 M308.9 188.0 Q308.4 190.5 310.75 190.9 L311.6 190.6 Q313.85 188.45 313.25 185.65 313.05 184.8 312.25 184.5 L313.2 184.4 Q314.3 184.45 315.2 185.2 316.1 183.4 317.9 183.45 L318.1 185.0 Q317.7 184.65 317.35 185.0 315.65 186.6 315.35 189.0 L315.3 189.0 315.35 189.1 315.15 189.75 Q312.15 191.85 310.0 192.3 L307.8 192.25 307.05 191.75 Q306.3 190.75 306.15 189.7 305.95 188.45 306.45 187.1 307.65 185.4 310.05 185.7 312.4 186.75 312.3 189.0 L311.4 189.85 310.35 189.9 Q311.5 188.7 310.65 187.85 L310.35 187.65 309.55 187.6 308.9 188.0 M300.6 198.45 L298.65 198.6 Q297.6 198.85 296.8 199.75 L296.05 200.75 Q295.35 201.7 295.0 202.65 L294.2 203.75 293.0 204.7 291.9 205.0 291.25 204.7 291.05 204.5 Q292.65 204.1 293.45 202.45 L294.6 200.25 Q295.0 199.55 295.55 198.95 296.3 198.05 297.25 197.45 298.1 196.9 299.1 196.75 L300.6 196.95 Q301.6 197.5 301.9 198.75 L301.85 199.8 Q301.25 200.7 300.35 201.1 301.55 199.95 301.0 198.6 L300.6 198.45 M287.8 184.85 L283.7 195.1 278.8 199.1 284.6 197.45 290.2 184.75 288.2 180.5 287.8 184.85 M277.4 194.2 L277.6 193.35 273.75 199.85 277.25 196.65 282.95 190.1 Q281.05 191.9 278.85 193.35 L277.4 194.2 M264.85 207.8 L264.5 209.95 264.6 209.95 264.5 210.0 264.5 209.95 260.45 208.7 Q266.1 205.75 272.1 203.4 L274.85 201.9 Q273.6 203.85 271.7 205.05 268.45 206.9 264.85 207.8 M264.95 200.25 L258.55 205.3 257.75 209.7 264.95 200.25 M266.2 219.7 L265.7 219.35 265.7 220.1 265.65 220.2 264.6 220.95 264.35 220.7 Q264.15 220.35 264.25 219.95 L264.1 220.0 263.5 220.35 263.6 220.15 263.9 219.5 263.35 219.7 Q263.35 219.1 263.6 218.65 263.95 218.05 264.55 217.95 265.1 217.85 265.6 218.35 L266.2 219.6 266.2 219.7 M262.0 219.05 L261.95 218.75 261.4 218.4 261.45 218.6 261.45 218.65 261.2 218.6 261.35 219.7 260.25 218.4 260.3 219.5 260.1 219.8 259.7 219.3 259.2 219.9 Q258.7 219.45 259.0 218.5 L258.95 218.55 Q258.6 218.95 258.6 218.5 L258.65 217.9 259.35 217.25 258.5 217.7 258.6 217.45 Q259.05 216.65 259.85 216.55 260.55 216.45 261.2 217.05 261.85 217.7 262.0 218.7 L262.0 219.05" fill="#ffff33" fill-rule="evenodd" stroke="none"/>
    <path d="M248.1 226.4 L235.25 238.3 232.9 232.7 247.4 220.2 248.1 226.4" fill="#6d156d" fill-rule="evenodd" stroke="none"/>
    <path d="M254.35 220.65 L248.1 226.4 247.4 220.2 251.8 216.4 252.15 217.0 254.45 220.3 254.35 220.65" fill="#450e45" fill-rule="evenodd" stroke="none"/>
    <path d="M266.4 216.9 L267.65 218.5 267.3 221.2 268.35 222.25 267.25 224.75 265.3 223.6 265.5 225.25 264.0 225.45 263.75 223.5 262.35 223.7 262.55 225.4 260.8 225.65 260.5 223.75 258.5 224.05 258.65 224.9 257.85 224.95 256.75 222.95 255.1 223.2 253.9 221.85 254.35 220.65 254.45 220.3 252.15 217.0 254.35 215.7 255.8 216.4 256.8 217.6 256.85 217.6 Q257.85 216.4 259.25 215.35 L262.1 215.45 262.25 215.5 Q262.9 215.8 263.2 216.6 L263.25 216.95 263.45 216.8 Q264.2 216.55 264.85 215.9 L265.55 215.8 266.4 216.9 M235.25 238.3 L231.7 241.55 229.6 240.45 229.4 238.8 229.85 239.05 230.6 238.95 Q231.45 238.75 232.3 238.15 L232.35 238.0 Q233.0 235.75 232.25 233.3 L232.9 232.7 235.25 238.3 M252.9 215.05 L251.75 216.3 249.7 212.55 249.5 211.2 252.35 208.7 255.4 209.6 255.5 209.65 255.15 210.15 Q251.95 215.4 252.9 215.05 M266.2 219.7 L266.2 219.6 265.6 218.35 Q265.1 217.85 264.55 217.95 263.95 218.05 263.6 218.65 263.35 219.1 263.35 219.7 L263.4 220.0 Q263.5 220.7 264.0 221.2 264.45 221.7 265.05 221.6 265.6 221.5 265.95 220.95 L266.2 219.7 M258.5 217.7 Q258.1 218.9 258.65 220.1 259.2 221.35 260.5 221.35 261.65 221.1 261.9 219.75 L262.0 219.05 262.0 218.7 Q261.85 217.7 261.2 217.05 260.55 216.45 259.85 216.55 259.05 216.65 258.6 217.45 L258.5 217.7" fill="#9c1f9c" fill-rule="evenodd" stroke="none"/>
    <path d="M229.4 238.8 L229.0 236.15 232.25 233.3 Q233.0 235.75 232.35 238.0 L232.3 238.15 Q231.45 238.75 230.6 238.95 L229.85 239.05 229.4 238.8 M265.55 215.8 L264.85 215.9 Q264.2 216.55 263.45 216.8 L263.25 216.95 263.2 216.6 Q262.9 215.8 262.25 215.5 L262.1 215.45 259.25 215.35 Q257.85 216.4 256.85 217.6 L256.8 217.6 255.8 216.4 255.9 216.45 256.6 214.9 Q257.95 213.55 260.3 213.6 L263.2 214.5 263.75 215.5 265.2 215.3 265.55 215.8" fill="#ec9dec" fill-rule="evenodd" stroke="none"/>
    <path d="M312.95 169.8 L304.75 174.05 311.95 165.9 312.95 169.8 M293.3 178.35 L301.7 172.9 296.5 178.8 293.3 178.35 M287.8 184.85 L288.2 180.5 290.2 184.75 284.6 197.45 278.8 199.1 283.7 195.1 287.8 184.85 M264.95 200.25 L257.75 209.7 258.55 205.3 264.95 200.25" fill="#ffffb0" fill-rule="evenodd" stroke="none"/>
    <path d="M282.05 188.65 L286.05 185.7 287.0 177.0 289.15 178.6 290.1 177.9 296.0 174.85 306.1 167.85 304.2 171.3 313.65 162.65 314.0 167.2 320.95 159.35 318.35 166.95 316.2 171.45 313.0 176.55 312.3 177.05 Q308.25 181.4 305.35 183.25 L302.3 186.8 301.55 186.85 299.5 186.65 Q298.7 186.35 298.45 185.8 L298.1 184.9 Q297.6 182.85 300.15 182.15 299.5 182.6 299.75 183.3 300.1 184.45 301.5 184.6 L302.1 183.95 Q304.65 181.7 303.7 178.15 L301.4 179.05 297.15 180.8 294.9 185.75 294.05 187.65 288.65 195.7 292.7 194.3 297.4 192.7 276.9 209.15 278.3 209.1 287.9 203.8 276.65 213.7 266.4 216.9 M255.5 209.65 L255.5 209.6 Q256.85 205.75 258.1 204.05 259.3 202.35 259.9 202.3 L261.7 200.75 263.2 199.1 Q265.4 196.4 266.4 193.7 267.7 190.1 266.75 189.55 265.75 189.0 265.5 189.0 L264.85 189.05 Q265.25 188.7 265.8 188.5 L266.5 188.2 Q268.2 189.55 268.85 191.75 L269.0 192.5 269.2 193.2 269.3 193.65 Q270.15 198.75 266.0 203.1 L277.9 191.65 282.05 188.65 M276.05 184.4 L275.95 184.65 275.95 184.6 276.05 184.2 Q276.05 183.3 276.35 182.55 L276.65 181.85 278.1 179.3 278.25 179.1 278.75 178.55 Q279.05 178.2 279.45 178.05 L281.3 177.85 Q282.25 178.15 282.5 179.0 L282.7 179.55 282.8 180.4 282.8 180.75 Q282.65 182.4 280.95 183.65 279.0 184.4 278.25 183.1 L278.5 182.15 279.2 181.5 Q278.85 182.8 279.75 182.8 L280.0 182.75 280.6 182.25 280.85 181.7 Q280.2 180.0 278.55 181.2 L278.05 181.85 Q277.4 184.35 278.9 185.55 L280.0 185.6 279.4 186.2 Q278.65 186.8 277.8 186.9 277.85 188.65 276.2 189.85 L275.7 189.9 Q274.6 189.45 273.3 190.35 272.3 190.95 272.4 191.95 L273.1 192.5 273.7 192.15 274.05 191.85 274.2 191.45 274.05 190.95 274.45 191.5 Q274.65 191.85 274.25 192.25 273.2 193.35 272.3 192.65 271.2 191.8 272.6 190.3 274.05 188.95 275.85 188.75 L276.45 188.3 Q276.95 186.4 276.2 184.95 L276.25 184.9 276.2 184.9 276.05 184.4 M307.35 161.1 L307.6 161.3 Q305.95 161.55 305.35 163.1 L304.45 165.1 304.1 165.7 303.65 166.25 302.05 167.6 300.2 168.1 298.65 167.8 Q297.5 167.15 297.0 165.9 296.8 165.45 296.9 164.95 L297.35 164.35 Q297.75 164.0 298.25 163.85 L297.8 164.45 Q297.4 165.2 298.0 166.2 L298.4 166.35 300.4 166.35 Q301.5 166.2 302.2 165.4 L302.3 165.3 302.85 164.55 303.7 162.8 Q303.9 162.2 304.35 161.75 L305.5 161.0 306.65 160.8 307.35 161.1 M308.9 188.0 Q308.4 190.5 310.75 190.9 L311.6 190.6 Q313.85 188.45 313.25 185.65 313.05 184.8 312.25 184.5 L313.2 184.4 Q314.3 184.45 315.2 185.2 316.1 183.4 317.9 183.45 L318.1 185.0 Q317.7 184.65 317.35 185.0 315.65 186.6 315.35 189.0 L315.3 189.0 315.35 189.1 315.15 189.75 Q312.15 191.85 310.0 192.3 L307.8 192.25 307.05 191.75 Q306.3 190.75 306.15 189.7 305.95 188.45 306.45 187.1 307.65 185.4 310.05 185.7 312.4 186.75 312.3 189.0 L311.4 189.85 310.35 189.9 Q311.5 188.7 310.65 187.85 L310.35 187.65 309.55 187.6 308.9 188.0 M300.6 198.45 L298.65 198.6 Q297.6 198.85 296.8 199.75 L296.05 200.75 Q295.35 201.7 295.0 202.65 L294.2 203.75 293.0 204.7 291.9 205.0 291.25 204.7 291.05 204.5 Q292.65 204.1 293.45 202.45 L294.6 200.25 Q295.0 199.55 295.55 198.95 296.3 198.05 297.25 197.45 298.1 196.9 299.1 196.75 L300.6 196.95 Q301.6 197.5 301.9 198.75 L301.85 199.8 Q301.25 200.7 300.35 201.1 301.55 199.95 301.0 198.6 L300.6 198.45" fill="none" stroke="#ee4122" stroke-linecap="round" stroke-linejoin="round" stroke-opacity="0.6" stroke-width="0.6000000000000001"/>
    <path d="M266.4 216.9 L267.65 218.5 267.3 221.2 268.35 222.25 267.25 224.75 265.3 223.6 265.5 225.25 264.0 225.45 263.75 223.5 262.35 223.7 262.55 225.4 260.8 225.65 260.5 223.75 258.5 224.05 258.65 224.9 257.85 224.95 256.75 222.95 255.1 223.2 253.9 221.85 254.35 220.65 248.1 226.4 235.25 238.3 231.7 241.55 229.6 240.45 229.4 238.8 229.0 236.15 232.25 233.3 232.9 232.7 247.4 220.2 251.8 216.4 M251.75 216.3 L249.7 212.55 249.5 211.2 252.35 208.7 255.4 209.6 255.5 209.65" fill="none" stroke="#000000" stroke-linecap="round" stroke-linejoin="round" stroke-opacity="0.6" stroke-width="0.6000000000000001"/>
    <path d="M251.8 216.4 L251.75 216.35 M252.15 217.0 L251.8 216.4 M252.15 217.0 L254.45 220.3 254.35 220.65 M262.0 219.05 L262.0 218.7 Q261.85 217.7 261.2 217.05 260.55 216.45 259.85 216.55 259.05 216.65 258.6 217.45 L258.5 217.7" fill="none" stroke="#0b1f37" stroke-linecap="round" stroke-linejoin="round" stroke-opacity="0.5019608" stroke-width="0.1"/>
  </g>
</svg>
