<?xml version="1.0" encoding="UTF-8" standalone="no"?>
<svg xmlns:xlink="http://www.w3.org/1999/xlink" height="138.95px" width="131.2px" xmlns="http://www.w3.org/2000/svg">
  <g transform="matrix(1.0, 0.0, 0.0, 1.0, -129.0, -101.85)">
    <path d="M173.5 187.3 L176.6 190.5 145.7 220.95 146.05 232.8 151.9 240.8 145.4 235.5 139.55 224.0 143.25 216.25 139.5 215.45 129.0 213.15 133.45 209.9 134.45 209.8 145.75 213.15 173.5 187.3" fill="#996600" fill-rule="evenodd" stroke="none"/>
    <path d="M173.5 187.3 L145.75 213.15 134.45 209.8 143.95 208.65 170.45 184.2 173.5 187.3 M139.5 215.45 L143.25 216.25 139.55 224.0 137.55 230.5 136.5 220.55 139.5 215.45" fill="#644300" fill-rule="evenodd" stroke="none"/>
    <path d="M139.55 224.0 L145.4 235.5 151.9 240.8 146.05 232.8 145.7 220.95 176.6 190.5 173.5 187.3 170.45 184.2 143.95 208.65 134.45 209.8 133.45 209.9 129.0 213.15 139.5 215.45 136.5 220.55 137.55 230.5 139.55 224.0 Z" fill="none" stroke="#000000" stroke-linecap="round" stroke-linejoin="round" stroke-opacity="0.3882353" stroke-width="0.05"/>
    <path d="M260.2 101.85 L250.0 111.85 236.4 118.65 241.1 119.95 232.3 125.15 205.3 135.35 Q219.25 129.3 232.8 120.35 L225.5 120.15 Q240.55 113.5 260.2 101.85 M207.85 137.9 L212.85 138.5 205.55 145.8 167.0 159.55 Q188.2 150.65 207.85 137.9 M176.1 160.25 L183.1 160.25 166.0 168.95 152.2 173.85 163.2 173.75 151.8 178.65 144.0 178.95 137.3 176.95 Q157.55 170.5 176.1 160.25" fill="#458a00" fill-rule="evenodd" stroke="none"/>
    <path d="M205.3 135.35 L232.3 125.15 241.1 119.95 236.4 118.65 250.0 111.85 260.2 101.85 Q249.65 119.5 240.65 138.6 L241.7 129.65 Q230.9 145.05 223.65 162.1 L223.3 154.35 Q209.0 174.25 199.85 196.9 L200.6 185.95 Q190.1 202.25 182.2 223.35 L176.35 197.2 164.15 185.0 144.0 178.95 151.8 178.65 163.2 173.75 152.2 173.85 166.0 168.95 183.1 160.25 176.1 160.25 164.1 160.75 166.75 159.7 167.0 159.55 205.55 145.8 212.85 138.5 207.85 137.9 196.65 138.9 204.15 135.9 205.3 135.35" fill="#336600" fill-rule="evenodd" stroke="none"/>
    <path d="M260.2 101.85 Q240.55 113.5 225.5 120.15 M176.35 197.2 L182.2 223.35 Q190.1 202.25 200.6 185.95 L199.85 196.9 Q209.0 174.25 223.3 154.35 L223.65 162.1 Q230.9 145.05 241.7 129.65 L240.65 138.6 Q249.65 119.5 260.2 101.85" fill="none" stroke="#000000" stroke-linecap="round" stroke-linejoin="round" stroke-opacity="0.4" stroke-width="0.05"/>
    <path d="M225.5 120.15 L232.8 120.35 Q219.25 129.3 205.3 135.35 M204.15 135.9 L196.65 138.9 207.85 137.9 Q188.2 150.65 167.0 159.55 M166.75 159.7 L164.1 160.75 176.1 160.25 Q157.55 170.5 137.3 176.95 L144.0 178.95 164.15 185.0 176.35 197.2" fill="none" stroke="#000000" stroke-linecap="round" stroke-linejoin="round" stroke-opacity="0.4" stroke-width="0.05"/>
    <path d="M193.25 145.6 Q195.35 145.2 196.55 146.4 197.75 147.6 197.35 149.7 196.95 151.8 195.2 153.55 193.65 155.1 191.9 155.55 186.65 151.2 193.25 145.6" fill="#ffcc00" fill-rule="evenodd" stroke="none"/>
    <path d="M191.9 155.55 L191.35 155.7 Q189.25 156.1 188.05 154.9 186.85 153.7 187.25 151.6 187.6 149.55 189.4 147.75 191.15 146.0 193.25 145.6 186.65 151.2 191.9 155.55" fill="#ff9900" fill-rule="evenodd" stroke="none"/>
    <path d="M193.25 145.6 Q195.35 145.2 196.55 146.4 197.75 147.6 197.35 149.7 196.95 151.8 195.2 153.55 193.65 155.1 191.9 155.55 L191.35 155.7 Q189.25 156.1 188.05 154.9 186.85 153.7 187.25 151.6 187.6 149.55 189.4 147.75 191.15 146.0 193.25 145.6 Z" fill="none" stroke="#000000" stroke-linecap="round" stroke-linejoin="round" stroke-opacity="0.4" stroke-width="0.05"/>
    <path d="M196.3 181.45 Q198.4 181.05 199.6 182.25 200.8 183.45 200.4 185.55 200.0 187.65 198.25 189.4 196.7 190.95 194.95 191.4 189.7 187.05 196.3 181.45" fill="#ffcc00" fill-rule="evenodd" stroke="none"/>
    <path d="M194.95 191.4 L194.4 191.55 Q192.3 191.95 191.1 190.75 189.9 189.55 190.3 187.45 190.65 185.4 192.45 183.6 194.2 181.85 196.3 181.45 189.7 187.05 194.95 191.4" fill="#ff9900" fill-rule="evenodd" stroke="none"/>
    <path d="M196.3 181.45 Q198.4 181.05 199.6 182.25 200.8 183.45 200.4 185.55 200.0 187.65 198.25 189.4 196.7 190.95 194.95 191.4 L194.4 191.55 Q192.3 191.95 191.1 190.75 189.9 189.55 190.3 187.45 190.65 185.4 192.45 183.6 194.2 181.85 196.3 181.45 Z" fill="none" stroke="#000000" stroke-linecap="round" stroke-linejoin="round" stroke-opacity="0.4" stroke-width="0.05"/>
    <path d="M214.55 170.75 L214.45 168.4 212.9 168.3 212.1 167.45 214.1 164.35 213.65 161.9 216.15 161.15 215.7 159.95 216.65 157.65 214.0 153.8 215.0 153.9 215.55 152.25 216.1 151.4 214.6 151.25 215.05 149.3 216.6 146.9 216.55 144.85 219.2 142.0 216.75 141.2 217.15 139.55 215.85 137.65 214.35 137.5 214.05 135.55 216.5 130.55 217.15 129.55 218.45 129.65 218.75 130.75 215.7 135.55 218.95 137.3 221.7 140.95 218.9 145.3 216.7 153.45 219.7 158.25 214.6 166.2 216.35 169.8 214.55 170.75" fill="#cccc00" fill-rule="evenodd" stroke="none"/>
    <path d="M216.5 130.55 L214.05 135.55 214.35 137.5 215.85 137.65 217.15 139.55 216.75 141.2 219.2 142.0 216.55 144.85 216.6 146.9 215.05 149.3 214.6 151.25 216.1 151.4 215.55 152.25 215.0 153.9 214.0 153.8 216.65 157.65 215.7 159.95 216.15 161.15 213.65 161.9 214.1 164.35 212.1 167.45 212.9 168.3 214.45 168.4 214.55 170.75 212.7 171.65 212.35 170.2 210.05 171.05 208.2 171.25 212.5 165.15 211.75 163.2 214.85 157.85 213.75 155.25 212.2 153.7 213.65 153.3 211.95 151.75 213.2 150.55 214.45 148.0 214.7 145.25 216.75 143.35 213.8 140.7 214.65 138.9 212.3 139.6 210.65 138.65 212.15 136.35 214.15 131.7 216.5 130.55" fill="#b3b300" fill-rule="evenodd" stroke="none"/>
    <path d="M217.1 160.85 Q211.8 156.45 218.4 150.85 220.5 150.45 221.7 151.65 222.95 152.9 222.55 155.0 222.2 157.05 220.4 158.85 218.9 160.35 217.1 160.85" fill="#ff0000" fill-rule="evenodd" stroke="none"/>
    <path d="M218.4 150.85 Q211.8 156.45 217.1 160.85 L216.55 161.0 Q214.45 161.4 213.2 160.15 212.0 158.95 212.4 156.85 212.8 154.75 214.55 153.0 216.35 151.2 218.4 150.85" fill="#990000" fill-rule="evenodd" stroke="none"/>
    <path d="M217.1 160.85 Q218.9 160.35 220.4 158.85 222.2 157.05 222.55 155.0 222.95 152.9 221.7 151.65 220.5 150.45 218.4 150.85 216.35 151.2 214.55 153.0 212.8 154.75 212.4 156.85 212.0 158.95 213.2 160.15 214.45 161.4 216.55 161.0 L217.1 160.85 Z" fill="none" stroke="#000000" stroke-linecap="round" stroke-linejoin="round" stroke-opacity="0.4" stroke-width="0.05"/>
    <path d="M230.45 132.2 Q231.9 131.95 232.65 132.7 233.45 133.5 233.15 134.9 232.95 136.3 231.8 137.45 230.8 138.45 229.6 138.75 226.15 135.9 230.45 132.2" fill="#ffcc00" fill-rule="evenodd" stroke="none"/>
    <path d="M229.6 138.75 L229.25 138.8 Q227.9 139.05 227.1 138.25 226.35 137.5 226.55 136.1 226.8 134.75 227.95 133.6 229.1 132.45 230.45 132.2 226.15 135.9 229.6 138.75" fill="#ff9900" fill-rule="evenodd" stroke="none"/>
    <path d="M230.45 132.2 Q231.9 131.95 232.65 132.7 233.45 133.5 233.15 134.9 232.95 136.3 231.8 137.45 230.8 138.45 229.6 138.75 L229.25 138.8 Q227.9 139.05 227.1 138.25 226.35 137.5 226.55 136.1 226.8 134.75 227.95 133.6 229.1 132.45 230.45 132.2 Z" fill="none" stroke="#000000" stroke-linecap="round" stroke-linejoin="round" stroke-opacity="0.4" stroke-width="0.05"/>
    <path d="M241.8 110.75 Q243.45 110.4 244.4 111.35 245.4 112.35 245.05 114.0 244.75 115.7 243.35 117.1 242.15 118.3 240.75 118.7 236.55 115.2 241.8 110.75" fill="#3366cc" fill-rule="evenodd" stroke="none"/>
    <path d="M240.75 118.7 L240.3 118.75 Q238.65 119.1 237.65 118.1 236.7 117.15 237.05 115.5 237.3 113.85 238.7 112.45 240.1 111.05 241.8 110.75 236.55 115.2 240.75 118.7" fill="#330099" fill-rule="evenodd" stroke="none"/>
    <path d="M240.75 118.7 L240.3 118.75 Q238.65 119.1 237.65 118.1 236.7 117.15 237.05 115.5 237.3 113.85 238.7 112.45 240.1 111.05 241.8 110.75 243.45 110.4 244.4 111.35 245.4 112.35 245.05 114.0 244.75 115.7 243.35 117.1 242.15 118.3 240.75 118.7 Z" fill="none" stroke="#000000" stroke-linecap="round" stroke-linejoin="round" stroke-opacity="0.4" stroke-width="0.05"/>
    <path d="M175.7 171.45 Q177.35 171.2 178.3 172.15 179.25 173.1 179.0 174.75 178.65 176.4 177.25 177.8 176.05 179.0 174.65 179.4 170.5 175.95 175.7 171.45" fill="#ff0000" fill-rule="evenodd" stroke="none"/>
    <path d="M174.65 179.4 L174.25 179.5 Q172.55 179.8 171.6 178.85 170.65 177.9 170.95 176.2 171.25 174.6 172.65 173.2 174.05 171.8 175.7 171.45 170.5 175.95 174.65 179.4" fill="#990000" fill-rule="evenodd" stroke="none"/>
    <path d="M174.65 179.4 L174.25 179.5 Q172.55 179.8 171.6 178.85 170.65 177.9 170.95 176.2 171.25 174.6 172.65 173.2 174.05 171.8 175.7 171.45 177.35 171.2 178.3 172.15 179.25 173.1 179.0 174.75 178.65 176.4 177.25 177.8 176.05 179.0 174.65 179.4 Z" fill="none" stroke="#000000" stroke-linecap="round" stroke-linejoin="round" stroke-opacity="0.4" stroke-width="0.05"/>
    <path d="M164.2 165.05 L163.45 164.3 164.6 163.15 166.25 163.0 169.85 166.6 174.75 163.9 181.55 161.9 184.85 165.2 193.45 168.5 201.9 166.45 207.85 172.4 213.8 171.35 213.55 173.2 210.55 172.9 209.15 174.3 207.45 175.0 205.1 172.65 201.65 172.6 202.7 170.25 200.85 170.4 198.7 169.15 191.65 171.0 192.6 170.05 190.95 169.4 190.3 168.75 188.95 170.1 186.85 169.4 185.0 167.55 182.35 167.3 180.85 164.4 177.95 166.5 176.15 165.9 172.65 166.8 171.25 168.2 168.6 168.15 164.2 165.05" fill="#cccc00" fill-rule="evenodd" stroke="none"/>
    <path d="M164.2 165.05 L168.6 168.15 171.25 168.2 172.65 166.8 176.15 165.9 177.95 166.5 180.85 164.4 182.35 167.3 185.0 167.55 186.85 169.4 188.95 170.1 190.3 168.75 190.95 169.4 192.6 170.05 191.65 171.0 198.7 169.15 200.85 170.4 202.7 170.25 201.65 172.6 205.1 172.65 207.45 175.0 209.15 174.3 210.55 172.9 213.55 173.2 213.25 175.0 211.15 175.1 210.35 177.4 209.1 179.15 204.85 174.2 201.8 174.65 197.5 170.85 193.35 171.5 190.15 172.7 190.75 171.3 187.4 172.65 186.85 171.3 184.7 169.65 181.4 169.05 180.6 166.85 174.95 169.2 173.3 168.15 172.35 170.4 169.75 171.8 168.0 170.05 163.8 167.45 164.2 165.05" fill="#b3b300" fill-rule="evenodd" stroke="none"/>
    <path d="M248.65 123.9 L247.15 124.1 246.25 125.0 245.3 125.45 244.35 124.5 242.5 124.85 243.35 123.5 242.3 123.75 241.3 123.35 237.4 125.05 238.0 124.45 237.25 124.3 236.95 124.0 236.1 124.85 235.05 124.7 234.3 123.95 232.95 124.1 232.45 122.7 230.7 124.15 229.85 124.0 227.9 124.85 227.05 125.7 225.7 125.95 223.65 124.8 223.35 124.5 224.1 123.75 224.95 123.5 226.45 125.0 229.3 123.05 233.1 121.35 234.45 122.7 238.6 123.55 243.25 121.6 245.75 124.1 249.0 122.95 248.65 123.9" fill="#cccc00" fill-rule="evenodd" stroke="none"/>
    <path d="M223.65 124.8 L225.7 125.95 227.05 125.7 227.9 124.85 229.85 124.0 230.7 124.15 232.45 122.7 232.95 124.1 234.3 123.95 235.05 124.7 236.1 124.85 236.95 124.0 237.25 124.3 238.0 124.45 237.4 125.05 241.3 123.35 242.3 123.75 243.35 123.5 242.5 124.85 244.35 124.5 245.3 125.45 246.25 125.0 247.15 124.1 248.65 123.9 248.3 124.95 247.2 125.15 246.6 126.45 245.75 127.5 244.0 125.35 242.35 125.9 240.5 124.35 238.25 125.1 236.45 126.1 236.95 125.3 235.05 126.3 234.95 125.7 233.95 125.1 232.25 125.1 232.1 124.05 228.9 125.85 228.1 125.45 227.4 126.75 225.9 127.75 225.15 127.0 223.2 126.05 223.65 124.8" fill="#b3b300" fill-rule="evenodd" stroke="none"/>
    <path d="M184.7 210.55 L184.55 214.1 149.1 180.85 148.85 171.6 151.1 169.35 153.4 174.25 152.0 177.85 184.7 210.55" fill="#ff9900" fill-rule="evenodd" stroke="none"/>
    <path d="M153.4 174.25 L156.15 173.3 155.6 176.85 184.35 205.6 188.7 205.85 188.35 209.6 184.7 210.55 152.0 177.85 153.4 174.25" fill="#ffcc00" fill-rule="evenodd" stroke="none"/>
    <path d="M153.4 174.25 L156.15 173.3 155.6 176.85 184.35 205.6 188.7 205.85 188.35 209.6 184.7 210.55" fill="none" stroke="#000000" stroke-linecap="round" stroke-linejoin="round" stroke-opacity="0.3882353" stroke-width="0.05"/>
    <path d="M184.7 210.55 L184.55 214.1 149.1 180.85 148.85 171.6 151.1 169.35 153.4 174.25" fill="none" stroke="#000000" stroke-linecap="round" stroke-linejoin="round" stroke-opacity="0.3882353" stroke-width="0.05"/>
    <path d="M187.75 173.8 L173.55 196.7 168.25 191.1 187.75 173.8" fill="#ffcc00" fill-rule="evenodd" stroke="none"/>
    <path d="M168.25 191.1 L168.2 191.05 165.25 187.9 187.75 173.8 168.25 191.1" fill="#ff9900" fill-rule="evenodd" stroke="none"/>
    <path d="M168.25 191.1 L168.2 191.05" fill="none" stroke="#00ff00" stroke-linecap="round" stroke-linejoin="round" stroke-width="0.05"/>
  </g>
</svg>
