<?xml version="1.0" encoding="UTF-8" standalone="no"?>
<svg xmlns:xlink="http://www.w3.org/1999/xlink" height="157.9px" width="112.55px" xmlns="http://www.w3.org/2000/svg">
  <g transform="matrix(1.0, 0.0, 0.0, 1.0, -219.2, -121.0)">
    <path d="M317.8 141.0 L319.95 139.35 Q338.2 163.75 328.05 188.2 L325.6 184.35 Q326.4 184.5 327.25 181.15 331.3 162.45 319.95 143.75 L317.8 141.0 M246.7 266.3 Q247.35 269.35 248.6 272.6 235.7 261.65 234.6 247.3 236.1 249.85 238.1 249.85 240.35 261.2 246.7 266.3 M237.1 227.85 L233.55 227.75 Q236.05 223.6 236.1 218.1 236.15 212.9 230.65 207.95 218.65 197.2 219.3 179.0 L219.35 179.0 222.55 183.05 222.95 188.15 223.05 188.75 Q223.55 197.35 233.95 206.75 242.0 216.2 238.1 225.75 L237.1 227.85 M223.9 167.45 L221.5 164.4 221.65 163.85 Q230.8 136.15 256.85 123.0 L256.95 123.2 256.7 128.2 254.15 129.3 Q237.6 136.1 224.9 164.15 L223.9 167.45 M267.85 125.75 L268.1 121.05 Q292.4 120.55 311.75 131.45 L307.75 134.45 Q307.5 133.6 304.5 132.1 289.8 125.2 271.35 125.0 L270.95 125.0 270.0 125.0 Q268.4 125.0 267.85 125.75" fill="#c095c6" fill-rule="evenodd" stroke="none"/>
    <path d="M325.6 184.35 Q318.5 174.6 306.25 170.95 286.35 167.2 282.95 184.95 281.65 203.1 297.1 207.65 L276.15 218.75 258.0 228.4 247.05 228.1 Q246.35 228.25 246.2 229.55 L246.2 241.2 Q246.35 242.35 246.65 242.2 L246.7 242.2 246.7 242.15 246.9 241.85 Q250.2 237.4 253.65 234.6 254.65 236.5 261.35 232.05 L262.95 233.35 264.35 234.15 Q242.85 247.1 246.7 266.3 240.35 261.2 238.1 249.85 240.0 249.85 242.35 247.6 L242.35 229.75 Q242.05 228.2 240.9 227.95 L240.7 227.95 237.1 227.85 238.1 225.75 Q242.0 216.2 233.95 206.75 223.55 197.35 223.05 188.75 L223.0 188.25 222.95 188.15 222.55 183.05 228.45 190.4 228.65 190.6 Q230.25 192.2 232.45 192.2 234.65 192.2 236.2 190.6 237.8 189.05 237.8 186.85 237.8 185.05 236.75 183.65 L223.9 167.45 224.9 164.15 Q237.6 136.1 254.15 129.3 L256.7 128.2 255.45 154.65 Q259.85 159.55 266.25 155.6 L267.85 125.75 Q268.4 125.0 270.0 125.0 L270.95 125.0 271.35 125.0 Q289.8 125.2 304.5 132.1 307.5 133.6 307.75 134.45 L288.8 148.65 287.6 149.65 Q286.05 151.3 286.05 153.65 286.05 156.0 287.6 157.65 289.2 159.3 291.4 159.3 293.1 159.3 294.4 158.35 L317.8 141.0 319.95 143.75 Q331.3 162.45 327.25 181.15 326.4 184.5 325.6 184.35 M265.65 167.5 Q260.05 163.15 254.85 166.9 L253.55 194.2 Q253.55 196.55 255.1 198.2 256.7 199.85 258.9 199.85 261.1 199.85 262.65 198.2 264.05 196.75 264.25 194.8 L265.65 167.5" fill="url(#gradient0)" fill-rule="evenodd" stroke="none"/>
    <path d="M256.85 123.0 L256.95 122.95 256.95 123.2 256.85 123.0" fill="#9d0066" fill-rule="evenodd" stroke="none"/>
    <path d="M291.2 274.1 Q290.55 274.45 289.95 274.75 288.4 275.25 286.9 273.25 285.65 270.8 287.6 269.4 L289.0 268.7 297.2 264.3 299.75 262.95 Q304.5 263.15 301.75 268.5 L297.2 270.9 291.2 274.1 M270.7 232.8 L268.9 233.8 Q266.75 235.15 264.35 234.15 L262.95 233.35 281.1 223.7 Q284.95 223.8 282.7 226.25 L270.7 232.8 M253.65 234.6 Q251.35 232.45 254.45 230.25 L258.0 228.4 276.15 218.75 Q281.75 219.25 278.6 222.9 L261.35 232.05 Q254.65 236.5 253.65 234.6" fill="#ffcc00" fill-rule="evenodd" stroke="none"/>
    <path d="M297.5 212.8 L297.85 214.2 281.1 223.7 262.95 233.35 261.35 232.05 278.6 222.9 297.5 212.8" fill="#ff6600" fill-rule="evenodd" stroke="none"/>
    <path d="M297.1 207.65 L298.1 207.1 Q300.35 205.9 301.5 208.0 302.6 210.0 299.9 211.5 L297.5 212.8 278.6 222.9 Q281.75 219.25 276.15 218.75 L297.1 207.65 M297.85 214.2 Q298.25 217.2 294.95 219.5 L291.6 221.35 289.75 222.4 289.6 222.45 282.7 226.25 Q284.95 223.8 281.1 223.7 L297.85 214.2 M312.2 256.3 L313.6 255.55 Q316.0 255.3 316.75 257.8 317.45 259.75 316.05 260.95 L314.4 261.85 308.85 264.75 301.75 268.5 Q304.5 263.15 299.75 262.95 L310.35 257.3 312.2 256.3" fill="#ff9900" fill-rule="evenodd" stroke="none"/>
    <path d="M274.0 234.35 L270.7 232.8 282.7 226.25 289.6 222.45 Q287.8 245.45 310.35 257.3 L299.75 262.95 297.2 264.3 Q297.85 262.5 296.55 257.65 293.6 246.35 284.95 234.35 282.6 230.75 274.0 234.35" fill="url(#gradient1)" fill-rule="evenodd" stroke="none"/>
    <path d="M289.0 268.7 Q289.8 243.05 274.0 234.35 282.6 230.75 284.95 234.35 293.6 246.35 296.55 257.65 297.85 262.5 297.2 264.3 L289.0 268.7" fill="#7c6432" fill-rule="evenodd" stroke="none"/>
    <path d="M291.6 221.35 Q287.5 243.25 312.2 256.3 L310.35 257.3 Q287.8 245.45 289.6 222.45 L289.75 222.4 291.6 221.35" fill="#8b7138" fill-rule="evenodd" stroke="none"/>
    <path d="M314.4 261.85 L314.05 270.75 308.65 269.25 308.85 264.75 314.4 261.85" fill="#2c8383" fill-rule="evenodd" stroke="none"/>
    <path d="M305.55 272.75 L300.95 273.25 297.2 270.9 301.75 268.5 308.85 264.75 308.65 269.25 305.55 272.75" fill="#c2ebeb" fill-rule="evenodd" stroke="none"/>
    <path d="M307.8 277.85 L298.6 278.85 300.95 273.25 305.55 272.75 307.8 277.85" fill="#daf3f3" fill-rule="evenodd" stroke="none"/>
    <path d="M298.6 278.85 L291.2 274.1 297.2 270.9 300.95 273.25 298.6 278.85" fill="#edfafa" fill-rule="evenodd" stroke="none"/>
    <path d="M314.05 270.75 L307.8 277.85 305.55 272.75 308.65 269.25 314.05 270.75" fill="#3db6b6" fill-rule="evenodd" stroke="none"/>
    <path d="M219.3 179.0 L219.3 178.95 219.35 179.0 219.3 179.0" fill="#79004f" fill-rule="evenodd" stroke="none"/>
    <path d="M222.95 188.15 L223.0 188.25 223.05 188.75 222.95 188.15" fill="#89498b" fill-rule="evenodd" stroke="none"/>
    <path d="M317.8 141.0 L319.95 139.35 Q338.2 163.75 328.05 188.2 L325.6 184.35 Q318.5 174.6 306.25 170.95 286.35 167.2 282.95 184.95 281.65 203.1 297.1 207.65 L298.1 207.1 Q300.35 205.9 301.5 208.0 302.6 210.0 299.9 211.5 L297.5 212.8 297.85 214.2 Q298.25 217.2 294.95 219.5 L291.6 221.35 Q287.5 243.25 312.2 256.3 L313.6 255.55 Q316.0 255.3 316.75 257.8 317.45 259.75 316.05 260.95 L314.4 261.85 314.05 270.75 307.8 277.85 298.6 278.85 291.2 274.1 Q290.55 274.45 289.95 274.75 288.4 275.25 286.9 273.25 285.65 270.8 287.6 269.4 L289.0 268.7 Q289.8 243.05 274.0 234.35 L270.7 232.8 268.9 233.8 Q266.75 235.15 264.35 234.15 242.85 247.1 246.7 266.3 247.35 269.35 248.6 272.6 235.7 261.65 234.6 247.3 236.1 249.85 238.1 249.85 240.0 249.85 242.35 247.6 L242.35 229.75 Q242.05 228.2 240.9 227.95 L240.7 227.95 237.1 227.85 233.55 227.75 Q236.05 223.6 236.1 218.1 236.15 212.9 230.65 207.95 218.65 197.2 219.3 179.0 L219.3 178.95 219.35 179.0 222.55 183.05 228.45 190.4 228.65 190.6 Q230.25 192.2 232.45 192.2 234.65 192.2 236.2 190.6 237.8 189.05 237.8 186.85 237.8 185.05 236.75 183.65 L223.9 167.45 221.5 164.4 221.65 163.85 Q230.8 136.15 256.85 123.0 L256.95 122.95 256.95 123.2 256.7 128.2 255.45 154.65 Q259.85 159.55 266.25 155.6 L267.85 125.75 268.1 121.05 Q292.4 120.55 311.75 131.45 L307.75 134.45 288.8 148.65 M294.4 158.35 L317.8 141.0 M265.65 167.5 L264.25 194.8 Q264.05 196.75 262.65 198.2 261.1 199.85 258.9 199.85 256.7 199.85 255.1 198.2 253.55 196.55 253.55 194.2 L254.85 166.9 Q260.05 163.15 265.65 167.5 M258.0 228.4 L247.05 228.1 Q246.35 228.25 246.2 229.55 L246.2 241.2 Q246.35 242.35 246.65 242.2 L246.7 242.2 246.7 242.15 246.9 241.85 Q250.2 237.4 253.65 234.6 251.35 232.45 254.45 230.25 L258.0 228.4 276.15 218.75 297.1 207.65 M261.35 232.05 L262.95 233.35 264.35 234.15 M253.65 234.6 Q254.65 236.5 261.35 232.05 L278.6 222.9 297.5 212.8 M282.7 226.25 L289.6 222.45 M289.75 222.4 L291.6 221.35 M297.2 264.3 L299.75 262.95 310.35 257.3 312.2 256.3 M270.7 232.8 L282.7 226.25 M297.2 270.9 L291.2 274.1 M301.75 268.5 L297.2 270.9 M308.85 264.75 L301.75 268.5 M289.0 268.7 L297.2 264.3 M314.4 261.85 L308.85 264.75" fill="none" stroke="#000000" stroke-linecap="round" stroke-linejoin="round" stroke-width="0.1"/>
    <path d="M288.8 148.65 L287.6 149.65 Q286.05 151.3 286.05 153.65 286.05 156.0 287.6 157.65 289.2 159.3 291.4 159.3 293.1 159.3 294.4 158.35 M289.6 222.45 L289.75 222.4" fill="none" stroke="#000000" stroke-linecap="round" stroke-linejoin="round" stroke-width="0.1"/>
    <path d="M246.65 242.2 L246.7 242.15" fill="none" stroke="url(#gradient2)" stroke-linecap="round" stroke-linejoin="round" stroke-width="0.1"/>
    <path d="M300.95 273.25 L298.6 278.85 M307.8 277.85 L305.55 272.75 300.95 273.25 297.2 270.9 M305.55 272.75 L308.65 269.25 308.85 264.75 M314.05 270.75 L308.65 269.25" fill="none" stroke="#ffffff" stroke-linecap="round" stroke-linejoin="round" stroke-width="0.1"/>
    <path d="M280.1 221.05 Q279.7 221.45 279.15 221.45 278.6 221.45 278.2 221.05 277.75 220.65 277.75 220.1 277.75 219.5 278.2 219.1 278.6 218.7 279.15 218.7 279.7 218.7 280.1 219.1 280.5 219.5 280.5 220.1 280.5 220.65 280.1 221.05" fill="#ffffff" fill-rule="evenodd" stroke="none"/>
    <path d="M282.7 225.25 Q282.3 225.65 281.75 225.65 281.2 225.65 280.8 225.25 280.35 224.85 280.35 224.3 280.35 223.7 280.8 223.3 281.2 222.9 281.75 222.9 282.3 222.9 282.7 223.3 283.1 223.7 283.1 224.3 283.1 224.85 282.7 225.25" fill="#ffffff" fill-rule="evenodd" stroke="none"/>
    <path d="M303.05 265.95 Q302.65 266.35 302.1 266.35 301.55 266.35 301.15 265.95 300.8 265.55 300.8 265.0 300.8 264.45 301.15 264.05 301.55 263.65 302.1 263.65 302.65 263.65 303.05 264.05 303.45 264.45 303.45 265.0 303.45 265.55 303.05 265.95" fill="#ffffff" fill-rule="evenodd" stroke="none"/>
  </g>
  <defs>
    <linearGradient gradientTransform="matrix(0.02, -0.0454, 0.0562, 0.0248, 271.25, 183.8)" gradientUnits="userSpaceOnUse" id="gradient0" spreadMethod="pad" x1="-819.2" x2="819.2">
      <stop offset="0.0" stop-color="#442648"/>
      <stop offset="1.0" stop-color="#844a8a"/>
    </linearGradient>
    <linearGradient gradientTransform="matrix(-0.0106, -0.0184, 0.0118, -0.0068, 289.6, 243.45)" gradientUnits="userSpaceOnUse" id="gradient1" spreadMethod="pad" x1="-819.2" x2="819.2">
      <stop offset="0.0" stop-color="#7c6432"/>
      <stop offset="1.0" stop-color="#2a2211"/>
    </linearGradient>
    <linearGradient gradientTransform="matrix(0.0027, 0.0, 0.0, 0.0034, 244.5, 244.85)" gradientUnits="userSpaceOnUse" id="gradient2" spreadMethod="pad" x1="-819.2" x2="819.2">
      <stop offset="0.0" stop-color="#442648"/>
      <stop offset="1.0" stop-color="#844a8a"/>
    </linearGradient>
  </defs>
</svg>
