<?xml version="1.0" encoding="UTF-8" standalone="no"?>
<svg xmlns:xlink="http://www.w3.org/1999/xlink" height="400.2px" width="208.95px" xmlns="http://www.w3.org/2000/svg">
  <g transform="matrix(1.0, 0.0, 0.0, 1.0, 104.45, 200.05)">
    <path d="M12.15 49.65 Q0.55 51.15 -5.85 59.75 -8.3 63.0 -9.95 67.25 L-12.7 67.15 Q-3.45 48.3 12.1 48.9 L12.15 49.65 M-32.5 -3.55 L-33.05 -3.7 -32.5 -3.6 -32.5 -3.55" fill="#ffffff" fill-rule="evenodd" stroke="none"/>
    <path d="M-9.95 67.25 L-9.35 67.3 Q-8.0 68.05 -7.95 70.1 L-7.8 76.35 -8.05 76.35 Q-8.25 71.0 -9.7 71.2 L-11.2 71.15 -40.2 69.45 Q-42.15 69.6 -42.35 73.8 L-61.9 86.05 Q-66.2 88.8 -67.5 93.25 -75.55 120.6 -79.75 151.75 -82.25 152.4 -83.5 154.3 -80.8 156.45 -85.15 159.1 -86.8 157.45 -86.2 155.25 -84.15 152.05 -80.85 151.2 -77.6 118.9 -67.8 86.3 -58.0 79.2 -47.45 73.7 -44.5 71.95 -44.15 70.05 L-44.2 68.85 Q-43.85 65.95 -41.85 65.7 L-37.1 65.95 -35.35 66.0 -27.5 66.4 -25.6 66.5 -12.7 67.15 -9.95 67.25" fill="url(#gradient0)" fill-rule="evenodd" stroke="none"/>
    <path d="M-39.45 84.2 L-42.65 84.1 Q-51.7 88.0 -60.1 94.3 -72.15 119.25 -77.4 153.5 -80.1 160.75 -85.15 159.1 -80.8 156.45 -83.5 154.3 -82.25 152.4 -79.75 151.75 -75.55 120.6 -67.5 93.25 -66.2 88.8 -61.9 86.05 L-42.35 73.8 Q-42.15 69.6 -40.2 69.45 L-11.2 71.15 Q-10.1 72.15 -9.8 78.1 -9.45 84.5 -13.0 85.15 L-34.55 84.4 -39.45 84.2" fill="url(#gradient1)" fill-rule="evenodd" stroke="none"/>
    <path d="M-8.3 84.7 L-9.0 85.3 -11.9 85.2 -13.0 85.15 Q-9.45 84.5 -9.8 78.1 -10.1 72.15 -11.2 71.15 L-9.7 71.2 Q-8.25 71.0 -8.05 76.35 -7.95 79.5 -8.3 84.7 M-13.95 189.25 L-13.9 190.35 -19.55 187.15 -20.3 186.7 Q-20.9 185.55 -22.15 184.85 -23.2 184.2 -24.35 184.2 -25.25 183.95 -26.15 184.2 L-26.5 184.3 -29.85 182.9 -35.05 180.2 -34.95 179.6 -34.8 177.6 Q-24.3 180.7 -14.05 187.35 L-13.95 189.25" fill="#aa8d1c" fill-rule="evenodd" stroke="none"/>
    <path d="M-35.35 66.0 Q-56.0 35.65 -96.85 28.35 -37.75 28.1 -32.5 -3.55 -31.0 30.6 -6.55 46.55 -20.45 48.75 -25.45 59.75 -26.8 62.75 -27.5 66.4 L-35.35 66.0" fill="url(#gradient2)" fill-rule="evenodd" stroke="none"/>
    <path d="M-11.9 85.2 L-11.4 91.0 -12.55 93.2 -12.2 101.0 -14.25 104.65 -13.9 116.3 -15.45 118.45 -14.9 126.05 -16.0 128.95 -14.85 135.4 -16.3 138.7 -14.75 146.85 -16.25 151.5 -14.15 159.9 -15.5 164.05 -12.4 173.65 -14.7 177.55 -14.3 180.8 -14.25 182.05 -12.75 187.6 -13.95 189.25 -14.05 187.35 Q-24.3 180.7 -34.8 177.6 L-34.95 179.6 -37.55 177.0 -37.3 176.0 -34.1 174.65 -33.15 174.9 Q-23.2 177.3 -15.0 184.05 L-16.95 176.1 Q-22.3 170.05 -31.8 165.8 L-32.75 165.4 -34.15 165.0 -35.1 168.2 -36.45 163.0 -33.4 161.35 Q-22.5 164.3 -14.55 171.95 L-17.45 163.25 Q-23.25 157.9 -31.4 153.95 L-32.85 153.25 -33.85 153.05 -33.85 153.0 -34.45 155.25 -35.7 150.5 -33.4 149.25 -32.3 149.5 Q-23.0 151.85 -16.25 159.15 L-18.9 150.95 Q-23.55 145.8 -31.25 142.15 L-32.65 141.5 -33.85 141.35 -33.9 141.3 -33.9 141.35 -34.55 144.85 -36.15 138.8 -34.1 138.8 Q-24.5 140.2 -16.7 146.85 L-18.85 137.9 Q-23.9 132.1 -31.65 128.95 L-34.3 128.0 Q-25.05 128.9 -16.85 135.8 L-16.3 138.7 -16.85 135.8 Q-25.05 128.9 -34.3 128.0 L-34.75 130.75 -36.15 125.5 -34.3 123.65 -32.8 123.85 Q-23.45 125.35 -16.45 133.3 L-18.15 127.05 Q-24.35 118.6 -32.8 116.45 L-33.9 116.2 -35.1 116.1 -35.4 118.9 -37.15 114.8 -35.3 113.5 Q-24.25 114.35 -17.15 121.7 L-17.15 116.15 Q-23.7 109.35 -33.85 105.45 L-35.1 104.95 -36.3 104.8 -36.45 106.8 -38.15 103.85 -36.0 102.15 Q-25.3 103.2 -15.95 111.1 L-15.95 103.6 Q-24.45 96.5 -36.0 95.35 L-37.5 95.3 -37.7 98.35 -39.2 95.5 -37.0 92.5 -36.4 92.55 Q-24.35 92.9 -14.05 98.75 L-14.0 92.75 Q-24.2 86.15 -37.0 86.15 L-39.4 86.2 -39.45 84.2 -34.55 84.4 Q-23.7 85.0 -13.95 89.5 L-12.7 90.1 -12.55 93.2 -12.7 90.1 -13.95 89.5 Q-23.7 85.0 -34.55 84.4 L-13.0 85.15 -11.9 85.2 M-14.25 104.65 L-14.35 101.1 Q-24.9 95.6 -36.0 95.35 -24.9 95.6 -14.35 101.1 L-14.25 104.65 M-35.1 104.95 Q-25.05 106.6 -15.8 114.6 L-15.45 118.45 -15.8 114.6 Q-25.05 106.6 -35.1 104.95 M-16.0 128.95 L-16.55 126.05 Q-24.85 117.45 -33.9 116.2 -24.85 117.45 -16.55 126.05 L-16.0 128.95 M-16.25 151.5 L-16.75 149.6 Q-24.5 142.9 -32.65 141.5 -24.5 142.9 -16.75 149.6 L-16.25 151.5 M-32.85 153.25 Q-24.05 155.2 -16.15 162.05 L-15.5 164.05 -16.15 162.05 Q-24.05 155.2 -32.85 153.25 M-14.7 177.55 L-15.05 174.3 Q-23.35 168.4 -31.8 165.7 -32.3 165.5 -32.75 165.4 -32.3 165.5 -31.8 165.7 -23.35 168.4 -15.05 174.3 L-14.7 177.55" fill="url(#gradient3)" fill-rule="evenodd" stroke="none"/>
    <path d="M-37.3 176.0 L-35.1 168.2 -34.15 165.0 -32.75 165.4 -31.8 165.8 -33.15 174.9 -34.1 174.65 -37.3 176.0 M-36.45 163.0 L-34.45 155.25 -33.85 153.0 -33.85 153.05 -32.85 153.25 -31.4 153.95 -33.4 161.35 -36.45 163.0 M-35.7 150.5 L-34.55 144.85 -33.9 141.35 -33.85 141.35 -32.65 141.5 -31.25 142.15 -32.3 149.5 -33.4 149.25 -35.7 150.5 M-36.15 138.8 L-34.75 130.75 -34.3 128.0 -31.65 128.95 -34.1 138.8 -36.15 138.8 M-36.15 125.5 L-35.4 118.9 -35.1 116.1 -33.9 116.2 -32.8 116.45 -32.8 123.85 -34.3 123.65 -36.15 125.5 M-37.15 114.8 L-36.45 106.8 -36.3 104.8 -35.1 104.95 -33.85 105.45 -35.3 113.5 -37.15 114.8 M-38.15 103.85 L-37.7 98.35 -37.5 95.3 -36.0 95.35 -36.0 102.15 -38.15 103.85 M-39.2 95.5 L-39.4 86.2 -37.0 86.15 -36.4 92.55 -37.0 92.5 -39.2 95.5" fill="#b793db" fill-rule="evenodd" stroke="none"/>
    <path d="M-36.4 92.55 L-37.0 86.15 Q-24.2 86.15 -14.0 92.75 L-14.05 98.75 Q-24.35 92.9 -36.4 92.55 M-36.0 95.35 Q-24.45 96.5 -15.95 103.6 L-15.95 111.1 Q-25.3 103.2 -36.0 102.15 L-36.0 95.35 M-33.85 105.45 Q-23.7 109.35 -17.15 116.15 L-17.15 121.7 Q-24.25 114.35 -35.3 113.5 L-33.85 105.45 M-31.65 128.95 Q-23.9 132.1 -18.85 137.9 L-16.7 146.85 Q-24.5 140.2 -34.1 138.8 L-31.65 128.95 M-32.8 116.45 Q-24.35 118.6 -18.15 127.05 L-16.45 133.3 Q-23.45 125.35 -32.8 123.85 L-32.8 116.45 M-31.25 142.15 Q-23.55 145.8 -18.9 150.95 L-16.25 159.15 Q-23.0 151.85 -32.3 149.5 L-31.25 142.15 M-31.4 153.95 Q-23.25 157.9 -17.45 163.25 L-14.55 171.95 Q-22.5 164.3 -33.4 161.35 L-31.4 153.95 M-33.15 174.9 L-31.8 165.8 Q-22.3 170.05 -16.95 176.1 L-15.0 184.05 Q-23.2 177.3 -33.15 174.9" fill="url(#gradient4)" fill-rule="evenodd" stroke="none"/>
    <path d="M-7.8 76.35 L-7.65 82.85 Q-7.75 84.05 -8.3 84.7 -7.95 79.5 -8.05 76.35 L-7.8 76.35 M-24.35 184.2 Q-23.2 184.2 -22.15 184.85 L-22.45 185.25 -23.3 184.6 -24.35 184.2 M-28.85 188.85 L-29.3 188.9 Q-29.3 187.85 -28.85 186.9 -29.1 187.85 -28.85 188.85" fill="#e7d030" fill-rule="evenodd" stroke="none"/>
    <path d="M-25.6 66.5 Q-22.7 49.8 -3.85 46.9 L12.1 48.9 Q-3.45 48.3 -12.7 67.15 L-25.6 66.5" fill="#153a3e" fill-rule="evenodd" stroke="none"/>
    <path d="M-13.9 190.35 L-13.7 193.9 Q-16.25 199.4 -24.85 200.15 -27.95 199.65 -30.25 198.55 -32.9 195.6 -32.65 193.0 -32.0 186.4 -29.85 182.9 L-26.5 184.3 Q-27.75 184.75 -28.45 185.95 L-28.85 186.9 Q-29.3 187.85 -29.3 188.9 L-29.1 190.2 Q-28.65 192.05 -26.95 193.05 -25.2 194.05 -23.3 193.6 -21.45 193.1 -20.45 191.35 -19.45 189.6 -19.9 187.75 L-19.55 187.15 -13.9 190.35" fill="url(#gradient5)" fill-rule="evenodd" stroke="none"/>
    <path d="M-22.15 184.85 Q-20.9 185.55 -20.3 186.7 L-19.9 187.75 Q-19.45 189.6 -20.45 191.35 -21.45 193.1 -23.3 193.6 -25.2 194.05 -26.95 193.05 -28.65 192.05 -29.1 190.2 L-29.3 188.9 -28.85 188.85 Q-28.45 190.35 -27.1 191.15 -25.7 191.95 -24.2 191.55 -22.7 191.15 -21.95 189.8 -21.1 188.4 -21.5 186.9 -21.8 185.9 -22.45 185.25 L-22.15 184.85" fill="url(#gradient6)" fill-rule="evenodd" stroke="none"/>
    <path d="M-30.25 198.55 Q-34.95 196.35 -36.5 191.8 L-35.05 180.2 -29.85 182.9 Q-32.0 186.4 -32.65 193.0 -32.9 195.6 -30.25 198.55" fill="url(#gradient7)" fill-rule="evenodd" stroke="none"/>
    <path d="M-20.3 186.7 L-19.55 187.15 -19.9 187.75 -20.3 186.7" fill="#ceac22" fill-rule="evenodd" stroke="none"/>
    <path d="M-33.05 -3.7 Q-39.85 28.15 -100.3 27.2 -90.35 19.05 -87.05 7.6 -84.7 9.6 -81.55 10.9 -74.0 14.0 -66.5 10.85 L-66.3 10.75 Q-61.05 8.5 -57.95 4.0 -56.8 2.2 -55.9 0.1 -55.2 -1.7 -54.8 -3.45 -53.6 -9.2 -55.95 -14.9 -59.15 -22.45 -66.65 -25.55 -70.9 -27.25 -75.1 -27.0 L-78.85 -26.45 Q-75.8 -50.25 -77.65 -77.2 L-74.95 -76.65 Q-66.85 -75.65 -60.4 -80.65 L-60.25 -80.75 Q-55.75 -84.3 -53.95 -89.45 -53.25 -91.45 -52.95 -93.7 -52.75 -95.65 -52.85 -97.45 -53.15 -103.35 -56.9 -108.2 -61.9 -114.7 -70.0 -115.7 -74.95 -116.35 -79.25 -114.7 -76.35 -146.05 -55.95 -167.65 L-55.0 -165.75 Q-51.05 -158.6 -43.2 -156.4 L-43.0 -156.3 Q-37.45 -154.8 -32.25 -156.4 -30.2 -157.05 -28.2 -158.15 -26.55 -159.1 -25.1 -160.25 -20.55 -164.0 -18.85 -169.95 -16.65 -177.8 -20.6 -184.95 -22.35 -188.05 -24.8 -190.2 2.15 -200.9 29.15 -195.9 L29.0 -194.95 Q24.25 -188.3 25.65 -180.25 L25.65 -180.05 Q26.65 -174.35 30.35 -170.35 L33.7 -167.45 Q35.25 -166.35 36.95 -165.6 42.25 -163.1 48.4 -164.1 56.4 -165.5 61.15 -172.15 63.85 -176.0 64.55 -180.25 97.7 -158.9 102.7 -112.5 103.45 -98.15 100.5 -88.2 92.3 -162.6 26.1 -154.95 -22.65 -149.2 -30.35 -92.3 L-32.4 -8.1 -33.05 -3.7" fill="url(#gradient8)" fill-rule="evenodd" stroke="none"/>
    <path d="M-37.1 65.95 Q-39.5 62.7 -42.1 59.75 -64.2 34.85 -104.45 28.25 -93.5 21.1 -87.25 4.25 L-84.3 6.8 Q-78.45 10.95 -71.35 9.75 -64.25 8.55 -60.05 2.65 -55.9 -3.25 -57.1 -10.3 -58.35 -17.45 -64.2 -21.6 -70.1 -25.75 -77.2 -24.55 L-80.85 -23.5 -80.55 -25.95 -80.55 -26.1 Q-78.05 -47.95 -79.4 -77.75 L-79.55 -80.3 Q-74.85 -78.1 -69.45 -79.0 -62.35 -80.25 -58.2 -86.1 -54.05 -92.0 -55.25 -99.1 -56.45 -106.2 -62.35 -110.35 -68.25 -114.5 -75.3 -113.3 L-78.95 -112.3 -81.25 -111.15 -81.15 -113.85 Q-79.65 -138.9 -64.15 -160.8 -60.7 -165.7 -56.8 -170.0 L-54.9 -172.1 Q-54.0 -167.1 -50.75 -163.55 L-47.8 -161.0 Q-46.45 -160.05 -44.95 -159.35 -40.25 -157.15 -34.85 -158.05 -27.75 -159.3 -23.6 -165.15 -19.45 -171.05 -20.65 -178.15 -21.85 -185.25 -27.75 -189.4 L-29.65 -190.55 -26.9 -191.8 Q-16.3 -196.55 -4.05 -198.6 14.6 -201.8 31.65 -198.05 L34.7 -197.35 Q32.45 -195.7 30.75 -193.25 26.55 -187.4 27.8 -180.3 L27.8 -180.1 Q28.7 -175.1 31.95 -171.55 33.25 -170.2 34.9 -169.0 36.25 -168.05 37.75 -167.35 42.45 -165.15 47.85 -166.05 54.95 -167.3 59.15 -173.15 62.9 -178.55 62.25 -184.9 L64.8 -183.2 65.15 -182.95 Q96.55 -160.75 103.05 -122.85 106.7 -101.25 101.1 -81.75 86.2 -126.8 52.8 -127.3 9.55 -125.65 0.3 -62.65 -2.25 -36.65 -1.05 -15.0 1.1 24.25 15.55 49.35 L12.15 49.65 12.1 48.9 -3.85 46.9 Q-22.7 49.8 -25.6 66.5 L-27.5 66.4 Q-26.8 62.75 -25.45 59.75 -20.45 48.75 -6.55 46.55 -31.0 30.6 -32.5 -3.55 -37.75 28.1 -96.85 28.35 -56.0 35.65 -35.35 66.0 L-37.1 65.95 M-33.05 -3.7 L-32.5 -3.55 -32.5 -3.6 -33.05 -3.7 -32.4 -8.1 -30.35 -92.3 Q-22.65 -149.2 26.1 -154.95 92.3 -162.6 100.5 -88.2 103.45 -98.15 102.7 -112.5 97.7 -158.9 64.55 -180.25 63.85 -176.0 61.15 -172.15 56.4 -165.5 48.4 -164.1 42.25 -163.1 36.95 -165.6 35.25 -166.35 33.7 -167.45 L30.35 -170.35 Q26.65 -174.35 25.65 -180.05 L25.65 -180.25 Q24.25 -188.3 29.0 -194.95 L29.6 -195.8 29.15 -195.9 Q2.15 -200.9 -24.8 -190.2 -22.35 -188.05 -20.6 -184.95 -16.65 -177.8 -18.85 -169.95 -20.55 -164.0 -25.1 -160.25 -26.55 -159.1 -28.2 -158.15 -30.2 -157.05 -32.25 -156.4 -37.45 -154.8 -43.0 -156.3 L-43.2 -156.4 Q-51.05 -158.6 -55.0 -165.75 L-55.95 -167.65 Q-76.35 -146.05 -79.25 -114.7 -74.95 -116.35 -70.0 -115.7 -61.9 -114.7 -56.9 -108.2 -53.15 -103.35 -52.85 -97.45 -52.75 -95.65 -52.95 -93.7 -53.25 -91.45 -53.95 -89.45 -55.75 -84.3 -60.25 -80.75 L-60.4 -80.65 Q-66.85 -75.65 -74.95 -76.65 L-77.65 -77.2 Q-75.8 -50.25 -78.85 -26.45 L-75.1 -27.0 Q-70.9 -27.25 -66.65 -25.55 -59.15 -22.45 -55.95 -14.9 -53.6 -9.2 -54.8 -3.45 -55.2 -1.7 -55.9 0.1 -56.8 2.2 -57.95 4.0 -61.05 8.5 -66.3 10.75 L-66.5 10.85 Q-74.0 14.0 -81.55 10.9 -84.7 9.6 -87.05 7.6 -90.35 19.05 -100.3 27.2 -39.85 28.15 -33.05 -3.7 M9.25 -101.9 Q22.25 -123.3 37.4 -127.05 53.5 -132.35 69.95 -126.1 86.35 -119.9 94.95 -101.1 L98.9 -91.9 Q94.45 -119.15 82.25 -135.4 56.6 -163.7 8.8 -149.45 -22.65 -137.4 -29.0 -92.05 L-31.4 -3.25 Q-29.35 29.25 -5.0 45.35 L11.45 47.55 Q-5.65 11.05 -3.9 -34.65 -4.0 -74.05 9.25 -101.9" fill="url(#gradient9)" fill-rule="evenodd" stroke="none"/>
    <path d="M9.25 -101.9 Q-4.0 -74.05 -3.9 -34.65 -5.65 11.05 11.45 47.55 L-5.0 45.35 Q-29.35 29.25 -31.4 -3.25 L-29.0 -92.05 Q-22.65 -137.4 8.8 -149.45 56.6 -163.7 82.25 -135.4 94.45 -119.15 98.9 -91.9 L94.95 -101.1 Q86.35 -119.9 69.95 -126.1 53.5 -132.35 37.4 -127.05 22.25 -123.3 9.25 -101.9" fill="url(#gradient10)" fill-rule="evenodd" stroke="none"/>
    <path d="M-37.1 65.95 Q-39.5 62.7 -42.1 59.75 -64.2 34.85 -104.45 28.25 -93.5 21.1 -87.25 4.25 L-84.3 6.8 Q-78.45 10.95 -71.35 9.75 -64.25 8.55 -60.05 2.65 -55.9 -3.25 -57.1 -10.3 -58.35 -17.45 -64.2 -21.6 -70.1 -25.75 -77.2 -24.55 L-80.85 -23.5 -80.55 -25.95 -80.55 -26.1 Q-78.05 -47.95 -79.4 -77.75 L-79.55 -80.3 Q-74.85 -78.1 -69.45 -79.0 -62.35 -80.25 -58.2 -86.1 -54.05 -92.0 -55.25 -99.1 -56.45 -106.2 -62.35 -110.35 -68.25 -114.5 -75.3 -113.3 L-78.95 -112.3 -81.25 -111.15 -81.15 -113.85 Q-79.65 -138.9 -64.15 -160.8 -60.7 -165.7 -56.8 -170.0 L-54.9 -172.1 Q-54.0 -167.1 -50.75 -163.55 L-47.8 -161.0 Q-46.45 -160.05 -44.95 -159.35 -40.25 -157.15 -34.85 -158.05 -27.75 -159.3 -23.6 -165.15 -19.45 -171.05 -20.65 -178.15 -21.85 -185.25 -27.75 -189.4 L-29.65 -190.55 -26.9 -191.8 Q-16.3 -196.55 -4.05 -198.6 14.6 -201.8 31.65 -198.05 L34.7 -197.35 Q32.45 -195.7 30.75 -193.25 26.55 -187.4 27.8 -180.3 L27.8 -180.1 Q28.7 -175.1 31.95 -171.55 33.25 -170.2 34.9 -169.0 36.25 -168.05 37.75 -167.35 42.45 -165.15 47.85 -166.05 54.95 -167.3 59.15 -173.15 62.9 -178.55 62.25 -184.9 L64.8 -183.2 65.15 -182.95 Q96.55 -160.75 103.05 -122.85 106.7 -101.25 101.1 -81.75 86.2 -126.8 52.8 -127.3 9.55 -125.65 0.3 -62.65 -2.25 -36.65 -1.05 -15.0 1.1 24.25 15.55 49.35 L12.15 49.65 Q0.55 51.15 -5.85 59.75 -8.3 63.0 -9.95 67.25 L-9.35 67.3 Q-8.0 68.05 -7.95 70.1 L-7.8 76.35 -7.65 82.85 Q-7.75 84.05 -8.3 84.7 L-9.0 85.3 -11.9 85.2 -11.4 91.0 -12.55 93.2 -12.2 101.0 -14.25 104.65 -13.9 116.3 -15.45 118.45 -14.9 126.05 -16.0 128.95 -14.85 135.4 -16.3 138.7 -14.75 146.85 -16.25 151.5 -14.15 159.9 -15.5 164.05 -12.4 173.65 -14.7 177.55 -14.3 180.8 -14.25 182.05 -12.75 187.6 -13.95 189.25 -13.9 190.35 -13.7 193.9 Q-16.25 199.4 -24.85 200.15 -27.95 199.65 -30.25 198.55 -34.95 196.35 -36.5 191.8 L-35.05 180.2 -34.95 179.6 -37.55 177.0 -37.3 176.0 -35.1 168.2 -36.45 163.0 -34.45 155.25 -35.7 150.5 -34.55 144.85 -36.15 138.8 -34.75 130.75 -36.15 125.5 -35.4 118.9 -37.15 114.8 -36.45 106.8 -38.15 103.85 -37.7 98.35 -39.2 95.5 -39.4 86.2 -39.45 84.2 -42.65 84.1 Q-51.7 88.0 -60.1 94.3 -72.15 119.25 -77.4 153.5 -80.1 160.75 -85.15 159.1 -86.8 157.45 -86.2 155.25 -84.15 152.05 -80.85 151.2 -77.6 118.9 -67.8 86.3 -58.0 79.2 -47.45 73.7 -44.5 71.95 -44.15 70.05 L-44.2 68.85 Q-43.85 65.95 -41.85 65.7 L-37.1 65.95 -35.35 66.0 -27.5 66.4 -25.6 66.5 -12.7 67.15 -9.95 67.25 M-34.55 84.4 L-39.45 84.2 M-37.7 98.35 L-37.5 95.3 -36.0 95.35 Q-24.9 95.6 -14.35 101.1 L-14.25 104.65 M-13.0 85.15 L-11.9 85.2 M-12.55 93.2 L-12.7 90.1 -13.95 89.5 Q-23.7 85.0 -34.55 84.4 L-13.0 85.15 M-15.45 118.45 L-15.8 114.6 Q-25.05 106.6 -35.1 104.95 L-36.3 104.8 -36.45 106.8 M-35.4 118.9 L-35.1 116.1 -33.9 116.2 Q-24.85 117.45 -16.55 126.05 L-16.0 128.95 M-34.3 128.0 Q-25.05 128.9 -16.85 135.8 L-16.3 138.7 M-34.75 130.75 L-34.3 128.0 M-33.85 141.35 L-33.9 141.3 -33.9 141.35 -34.55 144.85 M-32.65 141.5 L-33.85 141.35 M-32.65 141.5 Q-24.5 142.9 -16.75 149.6 L-16.25 151.5 M-15.5 164.05 L-16.15 162.05 Q-24.05 155.2 -32.85 153.25 L-33.85 153.05 -33.85 153.0 -34.45 155.25 M-32.75 165.4 L-34.15 165.0 -35.1 168.2 M-32.75 165.4 Q-32.3 165.5 -31.8 165.7 -23.35 168.4 -15.05 174.3 L-14.7 177.55 M-26.5 184.3 L-26.15 184.2 Q-25.25 183.95 -24.35 184.2 L-23.3 184.6 -22.45 185.25 Q-21.8 185.9 -21.5 186.9 -21.1 188.4 -21.95 189.8 -22.7 191.15 -24.2 191.55 -25.7 191.95 -27.1 191.15 -28.45 190.35 -28.85 188.85 -29.1 187.85 -28.85 186.9 L-28.45 185.95 Q-27.75 184.75 -26.5 184.3 M-13.95 189.25 L-14.05 187.35 Q-24.3 180.7 -34.8 177.6 L-34.95 179.6" fill="none" stroke="#000000" stroke-linecap="round" stroke-linejoin="round" stroke-opacity="0.4" stroke-width="0.05"/>
  </g>
  <defs>
    <linearGradient gradientTransform="matrix(0.0384, -0.0665, 0.0248, 0.0143, -50.8, 103.75)" gradientUnits="userSpaceOnUse" id="gradient0" spreadMethod="pad" x1="-819.2" x2="819.2">
      <stop offset="0.0" stop-color="#e7d030"/>
      <stop offset="1.0" stop-color="#f9f4e3"/>
    </linearGradient>
    <linearGradient gradientTransform="matrix(0.0314, -0.0083, 0.0119, 0.0449, -33.1, 106.85)" gradientUnits="userSpaceOnUse" id="gradient1" spreadMethod="pad" x1="-819.2" x2="819.2">
      <stop offset="0.0" stop-color="#ceac22"/>
      <stop offset="0.3764705882352941" stop-color="#685717"/>
      <stop offset="0.9725490196078431" stop-color="#e9da9e"/>
    </linearGradient>
    <linearGradient gradientTransform="matrix(-0.0106, -0.0184, 0.038, -0.0218, -48.0, 41.4)" gradientUnits="userSpaceOnUse" id="gradient2" spreadMethod="pad" x1="-819.2" x2="819.2">
      <stop offset="0.0" stop-color="#68bcce"/>
      <stop offset="1.0" stop-color="#e6f5f7"/>
    </linearGradient>
    <linearGradient gradientTransform="matrix(0.0, 0.0528, -0.0171, 0.0, -25.4, 131.05)" gradientUnits="userSpaceOnUse" id="gradient3" spreadMethod="pad" x1="-819.2" x2="819.2">
      <stop offset="0.0" stop-color="#663399"/>
      <stop offset="1.0" stop-color="#331a26"/>
    </linearGradient>
    <linearGradient gradientTransform="matrix(0.0, 0.053, -0.014, 0.0, -25.5, 134.6)" gradientUnits="userSpaceOnUse" id="gradient4" spreadMethod="pad" x1="-819.2" x2="819.2">
      <stop offset="0.0" stop-color="#945fc9"/>
      <stop offset="1.0" stop-color="#773c59"/>
    </linearGradient>
    <linearGradient gradientTransform="matrix(0.0141, -0.0037, 0.0029, 0.0108, -19.95, 189.7)" gradientUnits="userSpaceOnUse" id="gradient5" spreadMethod="pad" x1="-819.2" x2="819.2">
      <stop offset="0.0" stop-color="#ceac22"/>
      <stop offset="0.3764705882352941" stop-color="#685717"/>
      <stop offset="0.9725490196078431" stop-color="#e9da9e"/>
    </linearGradient>
    <linearGradient gradientTransform="matrix(0.0, -0.0054, 0.0058, 0.0, -24.55, 189.3)" gradientUnits="userSpaceOnUse" id="gradient6" spreadMethod="pad" x1="-819.2" x2="819.2">
      <stop offset="0.0" stop-color="#e7d030"/>
      <stop offset="1.0" stop-color="#f9f4e3"/>
    </linearGradient>
    <linearGradient gradientTransform="matrix(0.0, -0.0064, 0.0041, 0.0, -33.2, 186.55)" gradientUnits="userSpaceOnUse" id="gradient7" spreadMethod="pad" x1="-819.2" x2="819.2">
      <stop offset="0.0" stop-color="#e7d030"/>
      <stop offset="1.0" stop-color="#f9f4e3"/>
    </linearGradient>
    <linearGradient gradientTransform="matrix(-0.0342, 0.1294, -0.1073, -0.0284, -0.8, -60.95)" gradientUnits="userSpaceOnUse" id="gradient8" spreadMethod="pad" x1="-819.2" x2="819.2">
      <stop offset="0.0" stop-color="#94cfdc"/>
      <stop offset="1.0" stop-color="#ffffff"/>
    </linearGradient>
    <linearGradient gradientTransform="matrix(0.0202, -0.0761, 0.1098, 0.0291, -16.45, -1.45)" gradientUnits="userSpaceOnUse" id="gradient9" spreadMethod="pad" x1="-819.2" x2="819.2">
      <stop offset="0.0" stop-color="#ffffff"/>
      <stop offset="1.0" stop-color="#c4dde3"/>
    </linearGradient>
    <linearGradient gradientTransform="matrix(-0.0363, 0.0996, -0.0704, -0.0257, 18.5, -50.8)" gradientUnits="userSpaceOnUse" id="gradient10" spreadMethod="pad" x1="-819.2" x2="819.2">
      <stop offset="0.0" stop-color="#284e6b"/>
      <stop offset="1.0" stop-color="#338c9f"/>
    </linearGradient>
  </defs>
</svg>
