<?xml version="1.0" encoding="UTF-8" standalone="no"?>
<svg xmlns:xlink="http://www.w3.org/1999/xlink" height="276.8px" width="270.9px" xmlns="http://www.w3.org/2000/svg">
  <g transform="matrix(1.0, 0.0, 0.0, 1.0, -140.0, -62.05)">
    <path d="M407.0 161.8 L395.7 172.4 Q391.9 168.7 387.7 166.75 387.1 162.45 384.35 159.25 381.9 156.4 378.65 155.6 L378.6 155.6 376.85 116.55 380.65 115.25 Q383.1 114.65 389.45 107.4 L396.95 98.9 401.0 132.25 401.9 93.4 401.9 93.35 405.7 89.2 407.0 161.8 M343.0 222.15 L321.65 242.25 323.95 194.35 325.15 170.05 332.65 169.75 341.2 165.25 344.4 163.5 343.0 222.15 M289.1 272.95 L274.7 286.55 269.05 275.85 268.35 274.5 274.15 201.5 278.7 194.75 286.25 183.25 Q287.65 181.75 292.8 180.05 L291.4 231.8 290.65 231.85 Q286.6 232.3 283.65 235.75 280.2 239.75 280.2 245.4 280.2 251.05 283.65 255.05 284.95 256.6 286.5 257.55 288.25 258.6 290.35 258.95 L289.1 272.95 M379.8 181.9 L380.0 181.8 Q382.4 180.8 384.35 178.55 L385.4 177.2 388.15 179.55 382.55 184.85 380.05 187.2 379.8 181.9 M254.45 208.15 L248.2 236.2 242.35 225.05 Q243.45 222.05 245.6 218.65 247.95 215.0 251.75 210.25 252.65 208.95 254.45 208.15" fill="#2e2f38" fill-rule="evenodd" stroke="none"/>
    <path d="M401.95 181.1 Q402.95 183.4 403.45 185.85 404.95 193.05 401.0 197.0 397.0 201.0 389.8 199.5 385.15 198.55 380.9 195.55 L382.2 191.0 382.7 190.1 Q386.8 195.8 395.55 194.25 L395.3 191.4 Q394.45 186.5 390.9 182.3 399.9 185.55 401.95 181.1 M316.65 261.65 Q318.15 266.1 317.9 270.5 317.5 277.75 312.6 280.55 307.7 283.4 301.2 280.15 298.6 278.85 296.35 276.9 295.6 273.65 297.7 271.05 301.2 276.35 308.05 276.55 L308.55 273.75 Q309.05 268.3 306.25 262.95 314.65 267.9 316.65 261.65" fill="#bdb88e" fill-rule="evenodd" stroke="none"/>
    <path d="M313.3 131.35 L325.15 122.55 325.15 170.05 323.75 170.15 319.85 171.7 312.9 136.0 313.3 131.35 M401.9 65.8 L404.4 63.95 405.7 89.15 405.7 89.2 401.9 93.35 401.9 65.8 M378.65 155.6 Q381.9 156.4 384.35 159.25 387.1 162.45 387.7 166.75 L384.7 165.6 Q384.2 161.25 381.35 157.95 380.1 156.5 378.65 155.6 M378.55 179.7 L379.65 178.9 381.35 177.25 382.75 175.35 385.4 177.2 384.35 178.55 Q382.4 180.8 380.0 181.8 L379.8 181.9 Q378.0 182.55 376.0 182.55 L374.35 182.45 Q372.2 182.1 370.35 180.95 L373.0 181.25 374.4 181.2 374.85 181.15 Q376.85 180.8 378.55 179.7 M292.0 231.75 Q296.9 231.75 300.35 235.75 303.8 239.75 303.8 245.4 L303.2 245.05 301.0 244.1 Q300.65 239.3 297.6 235.75 295.15 232.9 291.95 232.1 L292.0 231.75 M295.2 257.25 L297.6 255.05 298.9 253.35 300.55 254.85 300.35 255.05 Q298.2 257.5 295.55 258.5 L292.0 259.05 291.95 258.75 Q293.65 258.3 295.2 257.25" fill="#cecfd7" fill-rule="evenodd" stroke="none"/>
    <path d="M380.9 195.55 L380.4 195.2 Q378.45 193.75 376.65 191.95 L375.85 191.15 380.05 187.2 382.55 184.85 384.05 186.35 386.25 188.0 Q384.1 187.65 382.7 190.1 L382.2 191.0 380.9 195.55 M296.35 276.9 Q293.5 274.45 291.25 270.9 L298.2 264.35 299.05 265.85 301.0 268.35 Q298.9 269.6 297.7 271.05 295.6 273.65 296.35 276.9 M378.55 179.7 Q376.85 180.8 374.85 181.15 L374.4 181.2 373.0 181.25 370.35 180.95 369.45 180.3 369.05 178.75 Q368.55 176.15 368.75 173.95 369.75 176.2 375.05 174.15 376.05 173.55 377.35 173.55 376.45 176.1 378.55 179.7 M295.2 257.25 Q293.65 258.3 291.95 258.75 L290.65 259.0 290.35 258.95 Q288.25 258.6 286.5 257.55 L286.5 254.7 286.65 253.15 Q288.6 254.95 293.5 251.8 L295.85 251.75 Q294.45 253.8 295.2 257.25" fill="#9c955a" fill-rule="evenodd" stroke="none"/>
    <path d="M395.7 172.4 L395.95 172.65 Q399.95 176.65 401.95 181.1 399.9 185.55 390.9 182.3 L389.35 180.65 388.15 179.55 385.4 177.2 382.75 175.35 Q380.95 174.25 379.45 173.85 L377.35 173.55 Q376.05 173.55 375.05 174.15 369.75 176.2 368.75 173.95 369.1 170.2 371.65 167.65 374.5 164.8 379.05 164.75 L382.7 165.1 384.7 165.6 387.7 166.75 Q391.9 168.7 395.7 172.4 M311.4 251.9 Q312.8 253.7 314.0 255.8 315.7 258.75 316.65 261.65 314.65 267.9 306.25 262.95 L305.6 261.8 303.85 259.0 300.6 254.9 300.55 254.85 298.9 253.35 Q297.3 252.1 295.85 251.75 L293.5 251.8 Q288.6 254.95 286.65 253.15 287.5 247.15 291.85 244.6 295.9 242.3 301.0 244.1 L303.2 245.05 303.8 245.4 304.65 245.9 Q308.45 248.1 311.4 251.9 M382.7 190.1 Q384.1 187.65 386.25 188.0 391.95 192.05 395.3 191.4 L395.55 194.25 Q386.8 195.8 382.7 190.1 M308.55 273.75 L308.05 276.55 Q301.2 276.35 297.7 271.05 298.9 269.6 301.0 268.35 305.25 273.45 308.55 273.75" fill="#cdcca9" fill-rule="evenodd" stroke="none"/>
    <path d="M274.7 286.55 L283.7 303.7 275.7 307.7 268.6 294.95 269.05 275.85 274.7 286.55 M197.7 194.75 L206.7 185.75 209.0 187.0 198.4 195.25 197.7 194.75 M214.5 188.45 Q218.55 188.6 221.7 185.75 L212.7 194.75 Q209.55 199.75 203.9 198.05 L214.5 188.45 M248.2 236.2 L252.0 243.35 248.65 259.2 241.35 246.05 233.55 232.15 238.75 218.15 242.35 225.05 248.2 236.2" fill="#990000" fill-rule="evenodd" stroke="none"/>
    <path d="M243.55 269.75 L241.35 270.25 241.3 267.3 240.55 263.35 239.25 259.25 240.55 263.35 Q240.95 270.2 237.2 273.75 214.75 283.75 193.7 298.0 162.5 319.95 153.55 331.1 L153.35 335.7 151.4 338.05 Q144.25 341.05 141.25 329.5 138.3 317.95 143.45 313.35 L145.0 312.3 Q149.45 313.9 151.65 320.05 L152.35 322.2 Q187.75 287.45 226.2 261.75 231.3 255.45 218.2 245.5 L220.65 242.25 Q228.6 246.85 231.95 254.5 236.45 256.95 233.25 248.25 228.5 242.55 225.5 240.85 L228.25 238.25 230.45 239.8 230.65 240.0 Q234.5 243.5 239.4 251.9 241.55 255.55 243.05 259.35 244.95 264.15 245.75 269.25 L243.55 269.75 M150.55 327.25 Q149.4 321.9 147.65 319.25 146.4 317.45 144.9 316.9 141.95 319.35 144.0 325.0 L144.2 330.85 145.5 333.35 Q148.55 338.15 151.4 332.55 L150.55 327.25 M153.55 329.1 Q153.15 325.2 152.35 322.2 153.15 325.2 153.55 329.1" fill="#826b39" fill-rule="evenodd" stroke="none"/>
    <path d="M264.7 300.3 Q262.2 299.9 260.2 301.2 257.7 289.65 243.55 269.75 L245.75 269.25 Q257.5 284.8 264.7 300.3 M225.5 240.85 Q216.1 219.2 201.75 200.0 L198.25 195.4 197.7 194.75 198.4 195.25 Q201.4 197.3 203.9 198.05 209.55 199.75 212.7 194.75 L224.85 216.5 233.55 232.15 241.35 246.05 230.65 239.95 230.65 240.0 230.45 239.8 228.25 238.25 225.5 240.85" fill="#660000" fill-rule="evenodd" stroke="none"/>
    <path d="M241.35 270.25 Q241.05 273.25 237.75 275.25 L222.95 283.1 Q218.55 285.4 214.2 287.85 190.35 301.35 164.7 323.05 159.7 328.2 154.85 333.95 L153.35 335.7 153.55 331.1 Q162.5 319.95 193.7 298.0 214.75 283.75 237.2 273.75 240.95 270.2 240.55 263.35 L241.3 267.3 241.35 270.25 M145.0 312.3 Q151.7 307.4 157.9 302.25 183.7 282.7 202.35 263.6 L214.2 250.55 218.2 245.5 Q231.3 255.45 226.2 261.75 187.75 287.45 152.35 322.2 L151.65 320.05 Q149.45 313.9 145.0 312.3 M220.65 242.25 L221.75 240.75 225.5 240.85 Q228.5 242.55 233.25 248.25 236.45 256.95 231.95 254.5 228.6 246.85 220.65 242.25 M144.0 325.0 Q141.95 319.35 144.9 316.9 146.4 317.45 147.65 319.25 149.4 321.9 150.55 327.25 L146.7 323.95 Q149.45 332.6 146.7 330.45 144.9 327.45 144.0 325.0" fill="#968341" fill-rule="evenodd" stroke="none"/>
    <path d="M275.7 307.7 Q269.35 301.05 264.7 300.3 257.5 284.8 245.75 269.25 244.95 264.15 243.05 259.35 241.55 255.55 239.4 251.9 234.5 243.5 230.65 240.0 L230.65 239.95 241.35 246.05 248.65 259.2 256.0 272.35 259.7 279.0 261.85 262.1 268.35 274.5 269.05 275.85 268.6 294.95 259.7 279.0 268.6 294.95 275.7 307.7 M252.0 243.35 L258.45 255.7 256.0 272.35 248.65 259.2 252.0 243.35" fill="#430101" fill-rule="evenodd" stroke="none"/>
    <path d="M258.45 255.7 L261.85 262.1 259.7 279.0 256.0 272.35 258.45 255.7" fill="#870101" fill-rule="evenodd" stroke="none"/>
    <path d="M300.35 255.05 L300.55 254.85 300.6 254.9 300.35 255.05" fill="#333333" fill-rule="evenodd" stroke="none"/>
    <path d="M209.0 187.0 Q211.9 188.3 214.5 188.45 L203.9 198.05 Q201.4 197.3 198.4 195.25 L209.0 187.0 M221.7 185.75 L226.75 195.3 231.9 205.15 224.85 216.5 212.7 194.75 221.7 185.75" fill="#ba0101" fill-rule="evenodd" stroke="none"/>
    <path d="M224.85 216.5 L231.9 205.15 238.75 218.15 233.55 232.15 224.85 216.5" fill="#a90101" fill-rule="evenodd" stroke="none"/>
    <path d="M144.0 325.0 Q144.9 327.45 146.7 330.45 149.45 332.6 146.7 323.95 L150.55 327.25 151.4 332.55 Q148.55 338.15 145.5 333.35 L144.2 330.85 144.0 325.0" fill="#584927" fill-rule="evenodd" stroke="none"/>
    <path d="M352.5 213.2 L343.0 222.15 344.4 163.5 351.05 159.5 352.5 213.2 M291.25 270.9 L289.1 272.95 290.35 258.95 290.65 259.0 292.0 259.05 295.55 258.5 Q298.2 257.5 300.35 255.05 L300.6 254.9 303.85 259.0 298.2 264.35 291.25 270.9 M401.9 93.4 L401.0 132.25 396.95 98.9 401.9 93.4 M325.15 170.05 L323.95 194.35 319.85 171.7 323.75 170.15 325.15 170.05 M292.8 180.05 L293.8 179.75 296.85 178.85 307.25 176.25 309.75 175.35 304.65 245.9 303.8 245.4 Q303.8 239.75 300.35 235.75 296.9 231.75 292.0 231.75 L291.4 231.8 292.8 180.05 M274.15 201.5 L268.35 274.5 261.85 262.1 258.45 255.7 252.0 243.35 248.2 236.2 254.45 208.15 Q256.85 207.0 260.95 206.65 L270.25 205.75 Q271.4 205.25 274.15 201.5" fill="#3e404a" fill-rule="evenodd" stroke="none"/>
    <path d="M375.85 191.15 L352.5 213.2 351.05 159.5 351.05 159.45 352.65 158.25 Q361.65 150.75 361.65 141.75 L361.15 136.4 360.65 131.0 Q360.65 127.45 367.8 121.95 372.55 118.3 376.85 116.55 L378.6 155.6 376.0 155.25 374.25 155.4 Q370.45 156.0 367.65 159.25 364.2 163.25 364.2 168.9 364.2 174.55 367.65 178.55 L369.45 180.3 370.35 180.95 Q372.2 182.1 374.35 182.45 L376.0 182.55 Q378.0 182.55 379.8 181.9 L380.05 187.2 375.85 191.15 M321.65 242.25 L311.4 251.9 Q308.45 248.1 304.65 245.9 L309.75 175.35 319.85 171.7 323.95 194.35 321.65 242.25" fill="#515362" fill-rule="evenodd" stroke="none"/>
    <path d="M407.75 86.9 L410.7 158.25 407.0 161.8 405.7 89.2 405.7 89.15 407.75 86.9" fill="#6f7288" fill-rule="evenodd" stroke="none"/>
    <path d="M226.75 195.3 L258.25 172.05 254.45 208.15 Q252.65 208.95 251.75 210.25 247.95 215.0 245.6 218.65 243.45 222.05 242.35 225.05 L238.75 218.15 231.9 205.15 226.75 195.3 M274.15 160.25 L295.35 144.6 293.8 179.75 292.8 180.05 Q287.65 181.75 286.25 183.25 L278.7 194.75 274.15 201.5 274.15 160.25 M325.15 122.55 L346.3 106.9 344.4 163.5 341.2 165.25 332.65 169.75 325.15 170.05 325.15 122.55 M349.95 104.25 L373.55 86.8 376.85 116.55 Q372.55 118.3 367.8 121.95 360.65 127.45 360.65 131.0 L361.15 136.4 361.65 141.75 Q361.65 150.75 352.65 158.25 L351.05 159.45 349.95 104.25 M392.65 72.65 L401.9 65.8 401.9 93.35 401.9 93.4 396.95 98.9 392.65 72.65 M312.9 136.0 L319.85 171.7 309.75 175.35 312.9 136.0" fill="#d6d8dc" fill-rule="evenodd" stroke="none"/>
    <path d="M404.4 63.95 L406.7 62.25 407.75 86.9 405.7 89.15 404.4 63.95 M258.25 172.05 L274.15 160.25 274.15 201.5 Q271.4 205.25 270.25 205.75 L260.95 206.65 Q256.85 207.0 254.45 208.15 L258.25 172.05 M295.35 144.6 L313.3 131.35 312.9 136.0 309.75 175.35 307.25 176.25 296.85 178.85 293.8 179.75 295.35 144.6 M346.3 106.9 L349.95 104.25 351.05 159.45 351.05 159.5 344.4 163.5 346.3 106.9 M373.55 86.8 L392.65 72.65 396.95 98.9 389.45 107.4 Q383.1 114.65 380.65 115.25 L376.85 116.55 373.55 86.8" fill="#f1f2f3" fill-rule="evenodd" stroke="none"/>
    <path d="M404.4 63.95 L406.7 62.25 407.75 86.9 410.7 158.25 407.0 161.8 395.7 172.4 395.95 172.65 Q399.95 176.65 401.95 181.1 402.95 183.4 403.45 185.85 404.95 193.05 401.0 197.0 397.0 201.0 389.8 199.5 385.15 198.55 380.9 195.55 L380.4 195.2 Q378.45 193.75 376.65 191.95 L375.85 191.15 352.5 213.2 343.0 222.15 321.65 242.25 311.4 251.9 Q312.8 253.7 314.0 255.8 315.7 258.75 316.65 261.65 318.15 266.1 317.9 270.5 317.5 277.75 312.6 280.55 307.7 283.4 301.2 280.15 298.6 278.85 296.35 276.9 293.5 274.45 291.25 270.9 L289.1 272.95 274.7 286.55 283.7 303.7 275.7 307.7 Q269.35 301.05 264.7 300.3 262.2 299.9 260.2 301.2 257.7 289.65 243.55 269.75 L241.35 270.25 Q241.05 273.25 237.75 275.25 L222.95 283.1 Q218.55 285.4 214.2 287.85 190.35 301.35 164.7 323.05 159.7 328.2 154.85 333.95 L153.35 335.7 151.4 338.05 Q144.25 341.05 141.25 329.5 138.3 317.95 143.45 313.35 L145.0 312.3 Q151.7 307.4 157.9 302.25 183.7 282.7 202.35 263.6 L214.2 250.55 218.2 245.5 220.65 242.25 221.75 240.75 225.5 240.85 Q216.1 219.2 201.75 200.0 L198.25 195.4 197.7 194.75 206.7 185.75 209.0 187.0 Q211.9 188.3 214.5 188.45 218.55 188.6 221.7 185.75 L226.75 195.3 258.25 172.05 274.15 160.25 295.35 144.6 313.3 131.35 325.15 122.55 346.3 106.9 349.95 104.25 373.55 86.8 392.65 72.65 401.9 65.8 404.4 63.95 M405.7 89.15 L407.75 86.9 M405.7 89.15 L405.7 89.2 401.9 93.35 401.9 93.4 396.95 98.9 389.45 107.4 Q383.1 114.65 380.65 115.25 L376.85 116.55 Q372.55 118.3 367.8 121.95 360.65 127.45 360.65 131.0 L361.15 136.4 361.65 141.75 Q361.65 150.75 352.65 158.25 L351.05 159.45 351.05 159.5 344.4 163.5 341.2 165.25 332.65 169.75 325.15 170.05 323.75 170.15 319.85 171.7 309.75 175.35 307.25 176.25 296.85 178.85 293.8 179.75 292.8 180.05 Q287.65 181.75 286.25 183.25 L278.7 194.75 274.15 201.5 Q271.4 205.25 270.25 205.75 L260.95 206.65 Q256.85 207.0 254.45 208.15 252.65 208.95 251.75 210.25 247.95 215.0 245.6 218.65 243.45 222.05 242.35 225.05 L248.2 236.2 252.0 243.35 258.45 255.7 261.85 262.1 268.35 274.5 269.05 275.85 274.7 286.55 M378.6 155.6 L378.65 155.6 Q381.9 156.4 384.35 159.25 387.1 162.45 387.7 166.75 391.9 168.7 395.7 172.4 M369.45 180.3 L367.65 178.55 Q364.2 174.55 364.2 168.9 364.2 163.25 367.65 159.25 370.45 156.0 374.25 155.4 L376.0 155.25 378.6 155.6 M384.7 165.6 Q384.2 161.25 381.35 157.95 380.1 156.5 378.65 155.6 M368.75 173.95 Q369.1 170.2 371.65 167.65 374.5 164.8 379.05 164.75 L382.7 165.1 384.7 165.6 387.7 166.75 M382.75 175.35 L381.35 177.25 379.65 178.9 378.55 179.7 Q376.85 180.8 374.85 181.15 L374.4 181.2 373.0 181.25 370.35 180.95 Q372.2 182.1 374.35 182.45 L376.0 182.55 Q378.0 182.55 379.8 181.9 L380.0 181.8 Q382.4 180.8 384.35 178.55 L385.4 177.2 382.75 175.35 Q380.95 174.25 379.45 173.85 L377.35 173.55 Q376.45 176.1 378.55 179.7 M375.05 174.15 Q376.05 173.55 377.35 173.55 M368.75 173.95 Q368.55 176.15 369.05 178.75 L369.45 180.3 370.35 180.95 M386.25 188.0 L384.05 186.35 382.55 184.85 380.05 187.2 375.85 191.15 M385.4 177.2 L388.15 179.55 389.35 180.65 390.9 182.3 Q394.45 186.5 395.3 191.4 L395.55 194.25 M386.25 188.0 Q391.95 192.05 395.3 191.4 M382.55 184.85 L388.15 179.55 M197.7 194.75 L198.4 195.25 Q201.4 197.3 203.9 198.05 209.55 199.75 212.7 194.75 L221.7 185.75 M291.4 231.8 L292.0 231.75 Q296.9 231.75 300.35 235.75 303.8 239.75 303.8 245.4 L304.65 245.9 Q308.45 248.1 311.4 251.9 M150.55 327.25 Q149.4 321.9 147.65 319.25 146.4 317.45 144.9 316.9 141.95 319.35 144.0 325.0 144.9 327.45 146.7 330.45 149.45 332.6 146.7 323.95 M150.55 327.25 L151.4 332.55 Q148.55 338.15 145.5 333.35 L144.2 330.85 M145.0 312.3 Q149.45 313.9 151.65 320.05 L152.35 322.2 Q153.15 325.2 153.55 329.1 M153.55 331.1 L153.35 335.7 M290.65 231.85 L291.4 231.95 291.95 232.1 Q295.15 232.9 297.6 235.75 300.65 239.3 301.0 244.1 L303.2 245.05 303.8 245.4 M286.5 257.55 Q284.95 256.6 283.65 255.05 280.2 251.05 280.2 245.4 280.2 239.75 283.65 235.75 286.6 232.3 290.65 231.85 L291.4 231.8 M286.65 253.15 Q287.5 247.15 291.85 244.6 295.9 242.3 301.0 244.1 M245.75 269.25 Q244.95 264.15 243.05 259.35 241.55 255.55 239.4 251.9 234.5 243.5 230.65 240.0 L230.45 239.8 228.25 238.25 225.5 240.85 Q228.5 242.55 233.25 248.25 M243.55 269.75 L245.75 269.25 M256.0 272.35 L259.7 279.0 268.6 294.95 275.7 307.7 M248.65 259.2 L256.0 272.35 M303.85 259.0 L305.6 261.8 306.25 262.95 Q309.05 268.3 308.55 273.75 L308.05 276.55 M298.9 253.35 L297.6 255.05 295.2 257.25 Q293.65 258.3 291.95 258.75 L290.65 259.0 292.0 259.05 295.55 258.5 Q298.2 257.5 300.35 255.05 L300.55 254.85 298.9 253.35 Q297.3 252.1 295.85 251.75 294.45 253.8 295.2 257.25 M300.55 254.85 L300.6 254.9 303.85 259.0 298.2 264.35 299.05 265.85 301.0 268.35 Q305.25 273.45 308.55 273.75 M286.5 257.55 L286.5 254.7 286.65 253.15 M293.5 251.8 L295.85 251.75 M290.65 259.0 L290.35 258.95 Q288.25 258.6 286.5 257.55 M291.25 270.9 L298.2 264.35 M224.85 216.5 L233.55 232.15 241.35 246.05 248.65 259.2 M238.75 218.15 L231.9 205.15 226.75 195.3 M238.75 218.15 L242.35 225.05 M240.55 263.35 L239.25 259.25 M241.35 270.25 L241.3 267.3 240.55 263.35 M212.7 194.75 L224.85 216.5" fill="none" stroke="#000000" stroke-linecap="round" stroke-linejoin="round" stroke-opacity="0.4" stroke-width="0.4"/>
  </g>
</svg>
