<?xml version="1.0" encoding="UTF-8" standalone="no"?>
<svg xmlns:xlink="http://www.w3.org/1999/xlink" height="345.2px" width="75.65px" xmlns="http://www.w3.org/2000/svg">
  <g transform="matrix(1.0, 0.0, 0.0, 1.0, 0.5, -4.25)">
    <path d="M10.15 183.3 Q9.55 138.1 13.9 112.8 18.2 87.45 19.95 82.5 21.7 77.5 22.4 97.7 28.15 44.5 44.7 4.75 L44.0 26.7 Q40.7 86.3 43.65 131.75 44.65 126.9 47.15 120.2 53.45 134.2 55.3 185.75 L55.35 186.25 55.95 215.9 55.95 216.0 51.45 222.35 Q52.15 185.9 47.25 134.6 42.55 147.15 41.65 144.05 35.9 118.7 39.1 32.55 28.85 68.05 23.3 112.9 23.0 117.3 20.1 105.7 11.2 182.8 21.85 224.85 L15.55 219.0 15.4 218.15 Q15.2 217.6 14.95 217.85 12.35 200.65 10.15 183.3 M43.7 132.25 L43.65 131.75 43.7 132.25" fill="url(#gradient0)" fill-rule="evenodd" stroke="none"/>
    <path d="M10.15 183.3 Q12.35 200.65 14.95 217.85 L15.25 218.45 6.7 236.85 0.2 240.75 6.7 236.85 6.95 237.1 1.35 240.85 0.85 241.15 0.1 240.9 0.0 240.85 0.2 240.75 Q13.3 217.95 10.65 203.65 L10.15 183.3 M21.85 224.85 Q11.2 182.8 20.1 105.7 23.0 117.3 23.3 112.9 28.85 68.05 39.1 32.55 35.9 118.7 41.65 144.05 42.55 147.15 47.25 134.6 52.15 185.9 51.45 222.35 L46.5 229.35 46.4 229.3 46.4 223.65 46.4 222.6 46.2 221.35 44.2 191.7 42.75 170.2 42.55 167.4 42.45 166.2 Q41.45 153.55 39.9 155.65 L39.8 155.8 39.7 155.9 39.6 156.15 39.55 156.3 36.8 161.85 Q33.45 129.7 33.95 90.55 L30.5 119.3 29.9 120.25 27.85 123.6 Q25.95 133.45 26.0 145.65 L26.0 146.1 Q26.05 154.75 27.05 164.6 22.25 154.0 22.85 167.8 L24.25 190.35 25.55 211.65 26.2 222.45 27.1 229.6 26.9 229.6 21.85 224.85 M55.95 215.9 L55.35 186.25 57.85 203.65 Q57.5 216.45 74.25 238.55 L74.3 238.8 74.25 238.8 70.35 236.5 66.6 234.25 55.95 215.9 M33.85 89.0 L33.95 90.55 33.85 89.0 M0.1 240.9 L1.35 240.85 0.1 240.9" fill="#666666" fill-rule="evenodd" stroke="none"/>
    <path d="M26.0 145.65 Q25.95 133.45 27.85 123.6 L29.9 120.25 30.2 124.6 32.8 163.45 26.0 146.1 26.0 145.65 M42.75 170.2 L44.2 191.7 43.7 191.6 36.15 189.9 35.1 180.3 42.75 170.2 M46.4 223.65 L46.4 229.3 44.55 241.35 39.55 220.25 39.45 219.8 42.75 221.65 45.35 223.05 46.4 223.65 M24.25 190.35 L24.85 190.8 32.9 196.5 35.1 198.05 35.4 202.6 34.35 203.6 34.0 203.9 34.05 204.45 34.25 206.0 34.0 204.55 34.05 204.45 34.0 204.55 33.9 204.0 26.25 211.0 25.55 211.65 24.25 190.35 M42.75 221.65 L39.55 220.25 42.75 221.65 M46.4 229.3 L46.35 229.35 46.4 229.3" fill="#cccccc" fill-rule="evenodd" stroke="none"/>
    <path d="M29.9 120.25 L30.5 119.3 33.95 90.55 Q33.45 129.7 36.8 161.85 L39.55 156.3 39.6 156.15 39.8 155.8 39.9 155.65 Q41.45 153.55 42.45 166.2 L42.55 167.4 41.85 168.3 33.85 179.2 33.75 177.85 33.6 176.0 32.8 163.45 30.2 124.6 29.9 120.25 M36.75 162.5 L39.55 156.3 36.75 162.5 M33.75 177.85 L41.85 168.3 33.75 177.85" fill="#d6d6d6" fill-rule="evenodd" stroke="none"/>
    <path d="M39.6 156.15 L39.7 155.9 39.8 155.8 39.6 156.15 M46.4 229.3 L46.5 229.35 46.4 229.5 46.4 229.3 M27.1 229.6 L27.25 229.95 27.15 229.9 26.9 229.6 27.1 229.6 27.15 229.9 27.1 229.6" fill="#999999" fill-opacity="0.6901961" fill-rule="evenodd" stroke="none"/>
    <path d="M32.8 163.45 L33.6 176.0 33.75 177.85 33.85 179.2 34.55 189.5 35.1 198.05 32.9 196.5 24.85 190.8 24.25 190.35 22.85 167.8 Q22.25 154.0 27.05 164.6 26.05 154.75 26.0 146.1 L32.8 163.45" fill="#bdbdbd" fill-rule="evenodd" stroke="none"/>
    <path d="M42.55 167.4 L42.75 170.2 35.1 180.3 36.15 189.9 34.55 189.5 33.85 179.2 41.85 168.3 42.55 167.4 M34.05 204.45 L34.0 203.9 34.35 203.6 35.4 202.6 39.45 219.8 39.55 220.25 44.55 241.35 42.4 255.1 34.25 206.0 34.05 204.45 34.35 203.6 34.05 204.45" fill="#999999" fill-rule="evenodd" stroke="none"/>
    <path d="M44.2 191.7 L46.2 221.35 46.4 222.6 46.4 223.65 45.35 223.05 42.75 221.65 39.45 219.8 35.4 202.6 35.1 198.05 34.55 189.5 36.15 189.9 43.7 191.6 44.2 191.7 M43.7 191.6 L34.9 189.9 35.7 201.5 34.9 189.9 43.7 191.6" fill="#dddddd" fill-rule="evenodd" stroke="none"/>
    <path d="M34.25 206.0 L42.4 255.1 40.25 269.0 40.0 268.95 39.45 268.75 27.3 230.35 27.2 230.1 27.2 230.0 27.25 229.95 27.1 229.6 26.2 222.45 25.55 211.65 26.25 211.0 33.9 204.0 34.0 204.55 26.25 211.0 34.0 204.55 34.25 206.0" fill="#d9d9d9" fill-rule="evenodd" stroke="none"/>
    <path d="M15.55 219.0 L21.85 224.85 26.9 229.6 11.75 239.95 11.3 240.25 11.0 240.3 10.85 240.2 6.95 237.1 10.85 240.2 10.7 240.35 1.35 240.85 6.95 237.1 6.7 236.85 15.25 218.45 15.55 219.0 M51.45 222.35 L55.95 216.0 55.95 215.9 66.6 234.25 66.55 234.3 63.6 238.1 66.55 234.3 66.6 234.25 70.35 236.5 74.05 238.8 63.6 238.1 63.25 237.95 62.05 237.35 47.2 229.9 46.45 229.5 47.2 229.9 45.9 257.1 52.2 251.7 40.2 269.3 40.25 269.0 42.4 255.1 44.55 241.35 46.4 229.3 46.4 229.5 46.45 229.5 46.5 229.35 51.45 222.35 M74.25 238.8 L74.05 238.8 70.35 236.5 74.25 238.8 M27.3 230.35 L39.45 268.75 39.75 269.7 39.85 269.95 39.75 269.85 19.5 248.35 30.35 257.6 27.3 230.35 M39.75 269.7 L39.75 269.85 39.75 269.7" fill="#575757" fill-rule="evenodd" stroke="none"/>
    <path d="M62.05 237.35 L63.25 237.95 Q55.6 253.3 52.35 271.1 L40.55 279.8 40.5 288.4 40.05 269.45 40.0 268.95 40.25 269.0 40.2 269.3 52.2 251.7 62.05 237.35 M40.6 269.7 Q40.2 269.4 40.05 269.45 40.2 269.4 40.6 269.7 M39.85 269.95 L39.85 271.4 Q39.65 270.3 39.75 269.85 L39.85 269.95 M40.6 291.15 L40.6 280.05 52.25 271.45 Q50.2 282.8 49.95 295.1 L41.45 300.2 41.0 308.8 40.7 295.4 40.6 291.15 M41.05 309.65 L41.5 300.45 49.95 295.4 Q49.75 304.8 50.6 314.75 L41.9 319.5 41.5 327.35 41.05 309.65 M50.6 315.05 L51.15 320.4 51.2 320.55 41.6 331.8 41.5 328.2 41.95 319.75 50.6 315.05 M41.35 333.4 L41.7 333.7 52.0 323.05 42.55 348.15 41.85 346.6 41.25 333.3 41.35 333.4" fill="#333333" fill-rule="evenodd" stroke="none"/>
    <path d="M47.2 229.9 L62.05 237.35 52.2 251.7 45.9 257.1 47.2 229.9" fill="url(#gradient1)" fill-rule="evenodd" stroke="none"/>
    <path d="M27.2 230.0 L27.2 230.1 27.3 230.35 30.35 257.6 19.5 248.35 11.75 239.95 26.9 229.6 27.15 229.9 27.2 230.0" fill="url(#gradient2)" fill-rule="evenodd" stroke="none"/>
    <path d="M40.0 268.95 L40.05 269.45 40.5 288.4 40.5 294.35 40.5 288.4 40.55 279.8 52.35 271.1 52.25 271.45 40.6 280.05 40.6 291.15 40.55 294.9 40.5 294.35 40.55 294.9 40.6 291.15 40.7 295.4 40.6 295.15 40.55 294.9 40.6 295.15 40.7 295.4 41.0 308.8 41.45 300.2 49.95 295.1 49.95 295.4 41.5 300.45 41.05 309.65 40.9 312.3 40.85 311.8 40.9 312.3 41.05 309.65 41.5 327.35 41.45 327.9 41.5 327.35 41.9 319.5 50.6 314.75 50.6 315.05 41.95 319.75 41.5 328.2 41.6 331.8 41.4 331.55 31.95 320.4 41.4 331.55 41.6 331.8 51.2 320.55 51.35 320.75 52.25 322.45 52.0 323.05 41.7 333.7 41.35 333.4 41.4 332.25 41.4 331.75 31.9 320.6 31.95 320.45 31.95 320.4 32.1 314.45 40.25 319.65 32.1 314.45 32.1 314.2 40.25 319.4 40.25 319.65 40.3 319.65 41.45 327.9 40.3 319.65 40.25 319.65 40.25 319.4 32.1 314.2 Q32.15 303.85 31.25 294.6 L31.2 294.35 39.45 300.2 39.45 300.45 39.45 300.2 31.2 294.35 Q29.95 282.0 27.0 271.6 L26.95 271.35 Q21.6 252.9 10.8 240.45 L10.7 240.35 11.0 240.3 11.3 240.25 11.75 239.95 19.5 248.35 39.75 269.85 Q39.65 270.3 39.85 271.4 L39.85 269.95 39.75 269.7 Q39.8 269.45 40.05 269.45 39.8 269.45 39.75 269.7 L39.45 268.75 40.0 268.95 M38.5 279.85 L38.45 279.6 26.95 271.35 38.45 279.6 38.5 279.85 40.5 294.35 38.5 279.85 27.0 271.6 38.5 279.85 40.5 294.65 40.5 294.35 40.5 294.65 38.5 279.85 M40.6 295.15 L40.5 294.65 40.6 295.15 M39.45 300.45 L31.25 294.6 39.45 300.45 39.5 300.45 40.85 311.8 39.5 300.45 39.45 300.45 40.85 312.05 40.85 311.8 41.0 308.8 40.85 311.8 40.85 312.05 39.45 300.45 M41.45 327.9 L41.5 328.2 41.45 327.9 41.45 327.95 40.25 319.65 41.45 327.95 41.45 327.9 M41.4 331.55 L41.4 331.75 41.4 331.55 M31.45 324.25 L41.25 333.3 41.85 346.6 31.45 324.25 M51.35 320.75 L41.65 332.05 41.6 332.0 41.4 331.75 41.6 332.0 41.65 332.05 51.35 320.75" fill="#404040" fill-rule="evenodd" stroke="none"/>
    <path d="M31.9 320.6 L41.4 331.75 41.4 332.25 41.35 333.4 41.25 333.3 31.45 324.25 30.85 322.95 31.9 320.6 M41.4 332.25 L41.25 333.3 41.4 332.25" fill="#595959" fill-rule="evenodd" stroke="none"/>
    <path d="M43.65 131.75 Q40.7 86.3 44.0 26.7 L44.7 4.75 Q28.15 44.5 22.4 97.7 21.7 77.5 19.95 82.5 18.2 87.45 13.9 112.8 9.55 138.1 10.15 183.3 12.35 200.65 14.95 217.85 15.2 217.6 15.4 218.15 L15.55 219.0 21.85 224.85 26.9 229.6 11.75 239.95 11.3 240.25 11.0 240.3 10.7 240.35 10.8 240.45 Q21.6 252.9 26.95 271.35 L27.0 271.6 Q29.95 282.0 31.2 294.35 L31.25 294.6 Q32.15 303.85 32.1 314.2 L32.1 314.45 31.95 320.4 31.95 320.45 31.9 320.6 30.85 322.95 31.45 324.25 41.85 346.6 42.55 348.15 42.9 348.8 M51.45 222.35 L55.95 216.0 55.95 215.9 55.35 186.25 55.3 185.75 Q53.45 134.2 47.15 120.2 44.65 126.9 43.65 131.75 L43.7 132.25 M26.0 145.65 Q25.95 133.45 27.85 123.6 L29.9 120.25 30.5 119.3 33.95 90.55 33.85 89.0 M39.6 156.15 L39.7 155.9 39.8 155.8 39.9 155.65 Q41.45 153.55 42.45 166.2 L42.55 167.4 42.75 170.2 44.2 191.7 46.2 221.35 46.4 222.6 46.4 223.65 46.4 229.3 44.55 241.35 42.4 255.1 40.25 269.0 40.2 269.3 M46.5 229.35 L51.45 222.35 M33.95 90.55 Q33.45 129.7 36.8 161.85 L39.55 156.3 39.6 156.15 39.8 155.8 M26.0 146.1 Q26.05 154.75 27.05 164.6 22.25 154.0 22.85 167.8 L24.25 190.35 25.55 211.65 26.2 222.45 27.1 229.6 27.15 229.9 27.25 229.95 M55.35 186.25 L57.85 203.65 Q57.5 216.45 74.25 238.55 L74.65 239.15 M62.05 237.35 L63.25 237.95 63.6 238.1 66.55 234.3 66.6 234.25 70.35 236.5 74.05 238.8 63.6 238.1 M46.4 229.5 L46.45 229.5 47.2 229.9 62.05 237.35 M46.5 229.35 L46.4 229.5 46.4 229.3 46.35 229.35 46.4 229.3 M40.05 269.45 Q40.2 269.4 40.6 269.7 M74.25 238.55 L74.3 238.8 74.25 238.8 74.05 238.8 M10.15 183.3 L10.65 203.65 Q13.3 217.95 0.2 240.75 L6.7 236.85 6.95 237.1 10.85 240.2 11.0 240.3 M15.25 218.45 L14.95 217.85 M27.2 230.0 L27.2 230.1 M27.3 230.35 L39.45 268.75 39.75 269.7 39.85 269.95 39.85 271.4 Q39.65 270.3 39.75 269.85 L39.75 269.7 Q39.8 269.45 40.05 269.45 M15.55 219.0 L15.25 218.45 M26.9 229.6 L27.15 229.9 27.2 230.0 M1.35 240.85 L0.1 240.9 0.85 241.15 0.05 240.9 0.1 240.9 0.0 240.85 0.2 240.75 M1.35 240.85 L10.7 240.35 M52.25 271.45 L52.35 271.1 Q55.6 253.3 63.25 237.95 M49.95 295.1 Q50.2 282.8 52.25 271.45 M49.95 295.4 L49.95 295.1 M50.6 314.75 L50.6 315.05 51.15 320.4 51.2 320.55 51.35 320.75 52.25 322.45 52.0 323.05 42.55 348.15 41.95 348.95 M50.6 314.75 Q49.75 304.8 49.95 295.4" fill="none" stroke="#000000" stroke-linecap="round" stroke-linejoin="round" stroke-opacity="0.2" stroke-width="1.0"/>
    <path d="M33.6 176.0 L32.8 163.45 30.2 124.6 M24.85 190.8 L32.9 196.5 M39.55 156.3 L36.75 162.5 M41.85 168.3 L33.75 177.85 M34.35 203.6 L34.05 204.45 34.0 204.55 26.25 211.0 M35.7 201.5 L34.9 189.9 43.7 191.6 M42.75 221.65 L45.35 223.05 M39.55 220.25 L42.75 221.65" fill="none" stroke="#ffffff" stroke-linecap="round" stroke-linejoin="round" stroke-opacity="0.32156864" stroke-width="1.0"/>
    <path d="M38.5 279.85 L40.5 294.35 40.55 294.9 40.6 291.15 40.6 280.05 M40.55 294.9 L40.6 295.15 40.7 295.4 M39.45 300.45 L39.5 300.45 40.85 311.8 40.9 312.3 41.05 309.65 41.5 300.45 M40.25 319.65 L40.3 319.65 41.45 327.9 41.5 328.2 41.95 319.75 M31.9 320.6 L41.4 331.75 41.6 332.0 41.65 332.05 51.35 320.75" fill="none" stroke="#ffffff" stroke-linecap="round" stroke-linejoin="round" stroke-opacity="0.101960786" stroke-width="0.05"/>
    <path d="M26.95 271.35 L38.45 279.6 38.5 279.85 40.5 294.65 40.5 294.35 40.5 288.4 40.55 279.8 52.35 271.1 M41.0 308.8 L41.45 300.2 49.95 295.1 M40.5 294.65 L40.6 295.15 M39.45 300.45 L39.45 300.2 31.2 294.35 M40.85 311.8 L41.0 308.8 M40.85 311.8 L40.85 312.05 39.45 300.45 M41.45 327.9 L41.5 327.35 41.9 319.5 50.6 314.75 M32.1 314.2 L40.25 319.4 40.25 319.65 41.45 327.95 41.45 327.9 M31.95 320.4 L41.4 331.55 41.6 331.8 51.2 320.55" fill="none" stroke="#000000" stroke-linecap="round" stroke-linejoin="round" stroke-opacity="0.4509804" stroke-width="0.05"/>
    <path d="M27.0 271.6 L38.5 279.85 M40.6 280.05 L52.25 271.45 M31.25 294.6 L39.45 300.45 M41.5 300.45 L49.95 295.4 M40.25 319.65 L32.1 314.45 M41.95 319.75 L50.6 315.05" fill="none" stroke="#ffffff" stroke-linecap="round" stroke-linejoin="round" stroke-opacity="0.101960786" stroke-width="1.0"/>
    <path d="M52.0 323.05 L53.2 321.8 M41.4 331.75 L41.4 331.55 M41.25 333.3 L41.4 332.25 41.4 331.75 M41.35 333.4 L41.7 333.7 M41.95 348.95 L41.85 346.6 41.25 333.3" fill="none" stroke="#000000" stroke-linecap="round" stroke-linejoin="round" stroke-opacity="0.101960786" stroke-width="1.0"/>
    <path d="M37.9 230.65 L36.75 230.65 37.9 230.65 M32.15 232.65 Q36.7 229.65 40.9 222.4 L46.55 230.05 40.45 269.2 39.25 268.85 27.85 232.4 32.15 232.65" fill="url(#gradient3)" fill-rule="evenodd" stroke="none"/>
    <path d="M26.0 145.65 Q26.2 134.95 28.5 123.2 L30.55 119.2 33.75 92.6 M27.25 164.05 Q25.8 155.45 26.0 146.1 M27.75 230.95 Q26.65 220.3 25.9 211.35 L24.25 190.35 Q22.25 161.35 24.2 160.15" fill="none" stroke="#ffffff" stroke-linecap="round" stroke-linejoin="round" stroke-opacity="0.48235294" stroke-width="1.0"/>
    <path d="M32.45 207.4 L34.05 208.6 M32.15 232.65 L34.1 227.95 36.5 222.05 M36.75 230.65 L37.9 230.65 M27.85 232.4 L32.15 232.65 M37.5 225.05 L34.1 227.95" fill="none" stroke="#ffffff" stroke-linecap="round" stroke-linejoin="round" stroke-opacity="0.4" stroke-width="1.0"/>
    <path d="M25.55 263.3 L39.0 277.8 41.3 331.5 32.55 320.8 32.8 319.2 Q34.45 294.3 28.0 271.15 L25.55 263.3" fill="url(#gradient4)" fill-rule="evenodd" stroke="none"/>
  </g>
  <defs>
    <radialGradient cx="0" cy="0" gradientTransform="matrix(0.1499, 0.0, 0.0, 0.1499, 22.5, 103.0)" gradientUnits="userSpaceOnUse" id="gradient0" r="819.2" spreadMethod="pad">
      <stop offset="0.0" stop-color="#ffffff"/>
      <stop offset="1.0" stop-color="#999999"/>
    </radialGradient>
    <linearGradient gradientTransform="matrix(-0.0025, 0.0055, -0.015, -0.0069, 55.3, 240.05)" gradientUnits="userSpaceOnUse" id="gradient1" spreadMethod="pad" x1="-819.2" x2="819.2">
      <stop offset="0.0" stop-color="#4a4a4a"/>
      <stop offset="1.0" stop-color="#666666"/>
    </linearGradient>
    <linearGradient gradientTransform="matrix(0.0025, 0.0039, -0.0143, 0.0093, 19.0, 239.9)" gradientUnits="userSpaceOnUse" id="gradient2" spreadMethod="pad" x1="-819.2" x2="819.2">
      <stop offset="0.0" stop-color="#4a4a4a"/>
      <stop offset="1.0" stop-color="#666666"/>
    </linearGradient>
    <linearGradient gradientTransform="matrix(6.0E-4, 0.0199, -0.0281, 9.0E-4, 35.2, 245.5)" gradientUnits="userSpaceOnUse" id="gradient3" spreadMethod="pad" x1="-819.2" x2="819.2">
      <stop offset="0.0" stop-color="#000000" stop-opacity="0.0"/>
      <stop offset="1.0" stop-color="#000000" stop-opacity="0.5137255"/>
    </linearGradient>
    <linearGradient gradientTransform="matrix(-0.0011, -0.0307, 0.0402, -0.0014, 34.4, 305.8)" gradientUnits="userSpaceOnUse" id="gradient4" spreadMethod="pad" x1="-819.2" x2="819.2">
      <stop offset="0.0" stop-color="#ffffff" stop-opacity="0.16078432"/>
      <stop offset="1.0" stop-color="#ffffff" stop-opacity="0.0"/>
    </linearGradient>
  </defs>
</svg>
