<?xml version="1.0" encoding="UTF-8" standalone="no"?>
<svg xmlns:xlink="http://www.w3.org/1999/xlink" height="36.95px" width="37.45px" xmlns="http://www.w3.org/2000/svg">
  <g transform="matrix(1.0, 0.0, 0.0, 1.0, -257.05, -181.05)">
    <path d="M288.95 182.65 Q287.3 183.5 284.75 185.25 L280.85 187.95 278.75 189.5 276.8 190.9 275.4 192.05 274.35 192.95 274.25 193.05 273.4 193.95 273.25 195.45 273.25 195.5 271.8 195.5 271.6 195.75 Q270.35 196.95 269.4 198.3 L269.4 198.2 269.3 198.35 269.25 198.45 267.5 201.4 266.8 200.65 264.1 197.25 Q264.25 195.85 264.95 195.5 L265.3 195.45 265.5 195.5 265.45 194.75 Q264.3 193.8 263.1 194.5 L263.0 194.55 Q261.7 196.15 260.85 197.95 L266.35 203.3 266.25 203.55 266.15 203.8 265.95 204.1 264.05 206.0 Q263.45 206.0 263.35 206.5 L263.15 206.25 Q261.75 205.3 259.75 204.55 L257.55 203.9 259.5 206.65 259.9 207.7 260.1 208.05 259.85 208.05 257.9 208.55 Q259.75 209.35 260.0 209.7 L260.5 210.3 261.1 210.45 261.1 211.05 260.35 211.45 259.1 212.2 260.65 212.2 261.15 212.35 261.4 212.3 261.8 212.9 262.75 213.95 263.25 214.2 264.45 214.6 264.6 214.6 265.7 214.6 265.8 214.6 266.15 214.55 Q265.8 215.2 265.8 215.7 265.8 216.1 265.95 216.25 L266.2 216.5 266.75 217.5 267.0 216.35 267.15 214.7 267.25 215.05 268.0 215.7 268.7 215.75 Q269.05 215.7 270.45 216.5 L270.1 215.1 270.1 214.9 270.45 214.85 271.55 214.6 Q272.1 214.45 274.75 214.55 L273.3 213.45 Q271.9 212.65 270.55 212.15 L269.6 212.2 269.9 211.45 272.05 209.2 272.9 208.75 279.4 210.15 281.15 208.75 281.15 207.45 280.85 207.3 280.75 207.3 277.05 208.25 Q275.95 208.05 274.8 207.4 L276.2 206.05 277.5 204.8 277.25 204.75 278.7 203.5 278.9 203.35 280.6 201.55 281.5 200.5 281.85 199.85 Q282.9 197.8 286.4 192.65 L288.35 189.75 293.3 182.55 294.0 181.55 289.25 182.45 Q289.1 182.5 288.95 182.65 Z" fill="none" stroke="#382510" stroke-linecap="round" stroke-linejoin="round" stroke-opacity="0.5019608" stroke-width="1.0"/>
  </g>
</svg>
