<?xml version="1.0" encoding="UTF-8" standalone="no"?>
<svg xmlns:xlink="http://www.w3.org/1999/xlink" height="39.5px" width="38.35px" xmlns="http://www.w3.org/2000/svg">
  <g transform="matrix(1.0, 0.0, 0.0, 1.0, -3.9, -2.15)">
    <path d="M42.25 2.15 L40.1 5.6 Q37.7 9.3 33.95 13.65 L33.15 14.55 31.65 13.05 33.05 11.45 42.25 2.15" fill="#0b110d" fill-rule="evenodd" stroke="none"/>
    <path d="M42.25 2.15 L33.05 11.45 Q32.2 11.6 32.6 10.2 L33.15 8.95 38.95 4.25 Q40.6 3.0 42.25 2.15" fill="#1c2626" fill-rule="evenodd" stroke="none"/>
    <path d="M33.05 11.45 L31.65 13.05 30.2 11.6 32.3 9.7 33.15 8.95 32.6 10.2 Q32.2 11.6 33.05 11.45" fill="#567575" fill-rule="evenodd" stroke="none"/>
    <path d="M31.9 13.25 L31.8 13.4 31.7 13.65 32.05 13.65 24.95 20.75 22.85 23.05 19.3 26.85 Q17.4 28.7 17.0 29.7 L15.8 29.9 12.2 30.95 12.2 30.0 12.0 28.7 Q12.75 30.95 15.75 29.4 L22.3 23.2 31.9 13.25 M19.2 30.95 L18.6 31.1 18.6 31.0 19.2 30.95" fill="#2c4535" fill-rule="evenodd" stroke="none"/>
    <path d="M31.8 13.4 L33.45 13.35 33.85 13.85 32.05 13.65 31.7 13.65 31.8 13.4 M32.8 15.7 L33.05 16.1 30.45 18.0 32.8 15.7 M21.8 28.0 L24.45 29.35 24.5 29.55 21.25 27.95 21.8 28.0 M20.75 29.05 L22.4 29.95 22.5 30.3 20.0 29.0 20.75 29.05 M11.35 26.45 L11.25 26.2 13.95 26.65 14.5 27.05 11.35 26.45 M12.05 25.1 L14.8 25.45 15.45 25.9 12.05 25.1 M13.35 24.5 L15.65 23.0 Q19.05 20.6 24.6 15.65 L25.85 16.5 26.55 17.5 24.75 15.8 23.55 16.8 20.9 19.1 15.9 23.0 13.35 24.5 M25.05 15.5 L24.95 15.35 33.05 7.85 34.55 7.65 34.95 7.95 33.05 7.95 27.7 13.05 27.15 13.55 25.05 15.5" fill="#919797" fill-rule="evenodd" stroke="none"/>
    <path d="M12.0 28.7 L11.85 28.05 11.5 27.05 11.3 26.4 11.35 26.45 14.5 27.05 13.95 26.65 11.3 24.95 12.05 25.1 15.45 25.9 14.8 25.45 13.35 24.5 15.9 23.0 Q15.15 24.75 16.05 25.2 L19.35 22.9 18.05 24.3 Q18.2 24.8 17.5 26.05 19.45 24.55 18.05 26.15 L24.75 19.9 22.3 23.2 15.75 29.4 Q12.75 30.95 12.0 28.7 M22.85 20.4 L21.9 21.3 20.45 22.65 19.6 23.15 20.3 22.15 21.5 20.85 22.5 20.05 21.15 21.6 23.1 19.8 22.3 20.85 22.85 20.4 M16.2 27.4 L16.55 27.1 16.9 26.7 16.95 26.2 16.25 26.45 15.7 26.9 15.55 27.1 Q15.4 27.35 15.6 27.5 L16.2 27.4 M16.2 27.8 Q16.35 27.9 16.9 27.4 L17.0 27.0 Q16.8 26.85 16.4 27.25 L16.2 27.45 Q16.05 27.65 16.2 27.8 M13.05 28.4 L13.4 28.35 13.45 28.0 Q13.3 27.8 13.1 28.0 L13.05 28.1 13.05 28.4" fill="#233030" fill-rule="evenodd" stroke="none"/>
    <path d="M25.85 25.5 Q24.75 27.25 24.35 28.35 L21.8 28.0 21.25 27.95 24.5 29.55 24.65 29.6 20.75 29.05 20.0 29.0 22.5 30.3 19.2 30.95 18.6 31.0 18.6 31.1 16.8 31.6 Q13.85 32.5 11.9 33.65 L11.6 33.8 11.0 34.35 11.25 34.0 10.85 34.3 11.45 33.7 11.55 33.5 Q12.1 32.35 12.2 30.95 L15.8 29.9 17.0 29.7 Q17.4 28.7 19.3 26.85 L22.85 23.05 25.45 22.15 Q25.9 22.1 24.3 24.25 L26.35 22.7 23.2 26.7 24.95 25.3 Q23.85 26.8 24.7 26.1 L25.7 25.0 25.85 25.5 M19.5 28.5 Q19.8 28.2 19.7 27.9 19.5 27.65 19.0 28.15 L18.75 28.4 Q18.55 28.7 18.65 28.8 18.95 29.05 19.5 28.5 M20.35 27.75 L20.3 27.65 20.9 27.5 Q21.85 27.2 23.5 25.4 L22.25 25.75 23.2 24.8 22.65 25.3 23.4 24.25 21.5 26.05 22.8 24.45 21.85 25.3 20.65 26.6 19.95 27.6 20.1 27.7 19.95 27.8 19.8 28.0 19.75 28.35 20.05 28.3 20.2 28.15 20.35 27.75 M17.6 30.35 L17.45 30.5 Q17.35 30.65 17.55 30.8 17.9 31.1 18.45 30.55 19.2 29.8 18.7 29.75 18.3 29.65 17.6 30.35" fill="#0b120d" fill-rule="evenodd" stroke="none"/>
    <path d="M33.85 13.85 L33.45 15.05 32.8 15.7 30.45 18.0 33.05 16.1 32.6 17.35 32.55 17.4 30.8 19.35 28.7 21.8 25.85 25.5 25.7 25.0 24.7 26.1 Q23.85 26.8 24.95 25.3 L23.2 26.7 26.35 22.7 24.3 24.25 Q25.9 22.1 25.45 22.15 L22.85 23.05 24.95 20.75 32.05 13.65 33.85 13.85 M20.35 27.75 L20.2 28.15 20.05 28.3 19.75 28.35 19.8 28.0 19.95 27.8 20.1 27.7 19.95 27.6 20.65 26.6 21.85 25.3 22.8 24.45 21.5 26.05 23.4 24.25 22.65 25.3 23.2 24.8 22.25 25.75 23.5 25.4 Q21.85 27.2 20.9 27.5 L20.3 27.65 20.35 27.75 M19.5 28.5 Q18.95 29.05 18.65 28.8 18.55 28.7 18.75 28.4 L19.0 28.15 Q19.5 27.65 19.7 27.9 19.8 28.2 19.5 28.5 M17.6 30.35 Q18.3 29.65 18.7 29.75 19.2 29.8 18.45 30.55 17.9 31.1 17.55 30.8 17.35 30.65 17.45 30.5 L17.6 30.35" fill="#050806" fill-rule="evenodd" stroke="none"/>
    <path d="M34.95 7.95 L35.0 8.0 32.2 12.8 32.4 12.8 31.9 13.25 22.3 23.2 24.75 19.9 18.05 26.15 Q19.45 24.55 17.5 26.05 18.2 24.8 18.05 24.3 L19.35 22.9 16.05 25.2 Q15.15 24.75 15.9 23.0 L20.9 19.1 23.55 16.8 24.75 15.8 26.55 17.5 25.85 16.5 25.4 15.85 25.05 15.5 27.15 13.55 27.7 13.05 33.05 7.95 34.95 7.95 M22.85 20.4 L22.3 20.85 23.1 19.8 21.15 21.6 22.5 20.05 21.5 20.85 20.3 22.15 19.6 23.15 20.45 22.65 21.9 21.3 22.85 20.4 M16.2 27.8 Q16.05 27.65 16.2 27.45 L16.4 27.25 Q16.8 26.85 17.0 27.0 L16.9 27.4 Q16.35 27.9 16.2 27.8 M16.2 27.4 L15.6 27.5 Q15.4 27.35 15.55 27.1 L15.7 26.9 16.25 26.45 16.95 26.2 16.9 26.7 16.55 27.1 16.2 27.4 M13.05 28.4 L13.05 28.1 13.1 28.0 Q13.3 27.8 13.45 28.0 L13.4 28.35 13.05 28.4" fill="#131a1a" fill-rule="evenodd" stroke="none"/>
    <path d="M30.7 17.8 L28.85 19.8 28.65 20.15 27.4 20.35 26.65 21.65 27.25 20.25 28.85 19.8 30.45 17.95 30.7 17.8" fill="#919797" fill-rule="evenodd" stroke="none"/>
    <path d="M34.95 7.75 L31.8 11.95 31.35 12.55 29.2 13.15 27.95 15.75 28.9 13.1 31.8 11.95 34.5 8.15 34.95 7.75" fill="#919797" fill-rule="evenodd" stroke="none"/>
    <path d="M21.2 24.3 L18.25 24.8 17.85 24.9 16.75 22.85 15.2 24.1 16.65 22.5 18.25 24.8 20.85 24.15 21.2 24.3" fill="#919797" fill-rule="evenodd" stroke="none"/>
    <path d="M31.7 13.65 L32.05 13.65 24.95 20.75 19.3 26.85 Q17.55 28.55 17.1 29.5 L16.3 28.9 22.3 23.2 31.9 13.25 31.7 13.65" fill="#949e91" fill-opacity="0.3019608" fill-rule="evenodd" stroke="none"/>
    <path d="M4.1 40.3 L4.3 40.1 11.65 32.55 Q14.3 30.05 24.2 21.55 L14.2 33.15 5.85 41.45 5.8 41.5 5.8 41.55 5.75 41.55 5.5 41.65 5.1 41.65 4.4 41.2 4.05 40.55 4.05 40.45 4.1 40.3" fill="#0b110d" fill-rule="evenodd" stroke="none"/>
    <path d="M4.3 40.1 L4.2 40.1 4.1 40.25 4.1 40.3 4.05 40.45 4.05 40.55 4.4 41.2 5.1 41.65 5.5 41.65 5.75 41.55 5.8 41.55 5.8 41.5 5.85 41.45" fill="none" stroke="#000000" stroke-linecap="round" stroke-linejoin="round" stroke-opacity="0.2509804" stroke-width="0.05"/>
    <path d="M10.5 32.55 Q11.25 32.8 11.2 33.2 L7.15 33.0 8.75 33.55 11.0 33.9 12.5 33.4 Q11.25 32.6 10.9 32.55 L10.5 32.55" fill="#0b110d" fill-rule="evenodd" stroke="none"/>
    <path d="M7.15 33.0 L11.2 33.2 Q11.25 32.8 10.5 32.55 L8.7 32.65 7.05 32.95 7.15 33.0" fill="#243131" fill-rule="evenodd" stroke="none"/>
    <path d="M10.5 32.55 L10.9 32.55 Q11.25 32.6 12.5 33.4 L11.0 33.9 8.75 33.55 7.15 33.0 7.05 32.95 8.7 32.65 10.5 32.55 Z" fill="none" stroke="#000000" stroke-linecap="round" stroke-linejoin="round" stroke-opacity="0.3019608" stroke-width="1.5"/>
    <path d="M9.45 32.7 Q9.1 32.8 9.1 32.95 L9.45 33.3 10.35 33.5 11.25 33.4 11.55 33.1 11.2 32.8 10.3 32.6 9.45 32.7" fill="url(#gradient0)" fill-rule="evenodd" stroke="none"/>
    <path d="M16.45 39.45 Q15.7 39.15 14.65 38.3 L12.55 36.35 11.8 34.0 13.8 34.75 14.1 35.2 Q13.2 34.6 12.95 35.2 L16.45 39.45" fill="#0b110d" fill-rule="evenodd" stroke="none"/>
    <path d="M16.45 39.45 L12.95 35.2 Q13.2 34.6 14.1 35.2 L15.45 37.25 Q16.2 38.5 16.55 39.5 L16.45 39.45" fill="#243131" fill-rule="evenodd" stroke="none"/>
    <path d="M14.1 35.2 L13.8 34.75 11.8 34.0 12.55 36.35 14.65 38.3 Q15.7 39.15 16.45 39.45 L16.55 39.5 Q16.2 38.5 15.45 37.25 L14.1 35.2 Z" fill="none" stroke="#000000" stroke-linecap="round" stroke-linejoin="round" stroke-opacity="0.3019608" stroke-width="1.5"/>
    <path d="M15.45 38.6 Q16.0 39.1 16.1 39.0 16.3 38.95 15.95 38.25 L15.05 36.75 13.9 35.45 Q13.4 34.85 13.25 34.95 13.1 35.05 13.45 35.7 L14.35 37.2 15.45 38.6" fill="url(#gradient1)" fill-rule="evenodd" stroke="none"/>
    <path d="M10.55 27.0 L10.55 27.05 10.55 26.95 11.55 28.85 12.45 31.0 Q12.55 31.95 12.25 31.9 L10.55 27.0" fill="#243131" fill-rule="evenodd" stroke="none"/>
    <path d="M10.55 27.05 L10.55 27.0 12.25 31.9 Q12.55 31.95 12.45 31.0 L12.6 31.45 12.65 33.4 11.6 31.75 10.85 29.05 Q10.55 27.85 10.55 27.05" fill="#0b110d" fill-rule="evenodd" stroke="none"/>
    <path d="M10.55 27.05 L10.55 27.0 M12.45 31.0 L11.55 28.85 10.55 26.95 10.55 27.05 Q10.55 27.85 10.85 29.05 L11.6 31.75 12.65 33.4 12.6 31.45 12.45 31.0 Z" fill="none" stroke="#000000" stroke-linecap="round" stroke-linejoin="round" stroke-opacity="0.3019608" stroke-width="1.5"/>
    <path d="M10.8 28.15 L10.7 27.55 11.05 27.9 11.55 29.05 11.9 30.3 11.95 30.9 11.65 30.5 11.15 29.35 10.8 28.15" fill="url(#gradient2)" fill-rule="evenodd" stroke="none"/>
    <path d="M4.75 26.7 L4.8 26.65 10.95 31.75 Q11.4 31.35 10.4 30.15 L11.0 30.55 12.7 33.4 10.0 32.3 6.8 29.25 4.75 26.7" fill="#0b110d" fill-rule="evenodd" stroke="none"/>
    <path d="M4.75 26.7 L4.65 26.55 Q5.85 27.05 7.5 28.1 L10.4 30.15 Q11.4 31.35 10.95 31.75 L4.8 26.65 4.75 26.7" fill="#243131" fill-rule="evenodd" stroke="none"/>
    <path d="M10.4 30.15 L7.5 28.1 Q5.85 27.05 4.65 26.55 L4.75 26.7 4.8 26.65 M10.4 30.15 L11.0 30.55 12.7 33.4 10.0 32.3 6.8 29.25 4.75 26.7" fill="none" stroke="#000000" stroke-linecap="round" stroke-linejoin="round" stroke-opacity="0.3019608" stroke-width="1.5"/>
    <path d="M9.2 29.95 L8.9 29.35 9.3 29.45 10.2 30.15 11.05 31.05 11.4 31.65 Q11.35 31.8 10.95 31.55 L10.05 30.85 9.2 29.95" fill="url(#gradient3)" fill-rule="evenodd" stroke="none"/>
    <path d="M15.1 32.95 L15.05 32.95 14.7 33.15 14.75 33.25 Q14.8 34.7 13.6 36.3 13.6 34.85 14.5 33.1 L11.8 35.75 Q12.75 34.3 14.05 33.3 12.8 34.1 11.85 34.4 L13.95 32.8 12.6 33.05 Q13.65 32.55 14.55 32.35 L16.85 30.05 14.95 32.3 17.35 30.65 15.1 32.35 Q16.1 31.85 17.45 31.45 L15.3 32.8 15.1 32.95" fill="url(#gradient4)" fill-rule="evenodd" stroke="none"/>
    <path d="M19.2 34.3 L19.75 34.5 20.75 34.8 20.55 36.0 20.15 35.9 19.2 34.3 M23.9 35.9 L24.4 36.15 24.45 36.2 24.75 37.6 24.05 36.2 23.9 35.9 M20.15 34.35 L19.95 34.3 19.0 34.0 15.35 32.85 18.45 31.45 18.9 31.65 16.95 32.7 19.45 31.9 20.3 32.3 18.85 32.95 20.6 32.5 19.65 33.85 22.2 33.45 20.15 34.35 M24.45 36.15 L26.05 36.0 25.95 36.3 24.55 36.25 24.45 36.15 M24.05 36.2 L24.4 36.15 24.05 36.2 M14.75 33.25 L19.05 34.3 19.25 35.75 18.45 35.65 17.35 35.45 17.35 34.55 17.0 35.45 14.7 35.2 Q15.25 33.8 14.75 33.25" fill="url(#gradient5)" fill-rule="evenodd" stroke="none"/>
    <path d="M19.2 34.3 L19.0 34.0 19.2 34.3 19.05 34.3 19.0 34.0 19.05 34.3 14.75 33.25 14.7 33.15 15.05 32.95 15.1 32.95 15.35 32.85 19.0 34.0 19.95 34.3 20.15 34.35 22.05 35.0 22.2 35.05 22.6 35.2 22.65 35.25 23.2 35.4 23.25 35.45 23.35 35.5 23.5 35.55 24.35 36.1 24.45 36.15 24.55 36.25 24.9 36.45 24.55 36.25 24.5 36.2 24.45 36.2 24.4 36.15 23.9 35.9 22.05 35.2 22.0 35.15 20.8 34.8 20.75 34.8 19.75 34.5 19.2 34.3 M24.45 36.15 L24.4 36.15 24.45 36.15 24.45 36.2 24.45 36.15" fill="url(#gradient6)" fill-rule="evenodd" stroke="none"/>
    <path d="M19.0 34.0 L19.2 34.3 20.15 35.9 20.55 36.0 20.75 34.8 M24.4 36.15 L24.45 36.15 24.35 36.1 M23.35 35.5 L23.25 35.45 23.2 35.4 M22.65 35.25 L22.6 35.2 M19.0 34.0 L19.05 34.3 19.25 35.75 19.3 36.2 M20.15 34.35 L22.2 33.45 19.65 33.85 20.6 32.5 18.85 32.95 20.3 32.3 19.45 31.9 16.95 32.7 18.9 31.65 18.45 31.45 15.35 32.85 M24.55 36.25 L25.95 36.3 26.05 36.0 24.45 36.15 24.45 36.2 24.75 37.6 24.05 36.2 23.9 35.9 M24.55 36.25 L24.5 36.2 M24.4 36.15 L24.05 36.2 M22.65 35.25 L24.3 34.95 M20.8 34.8 L21.55 36.35 M14.75 33.25 Q15.25 33.8 14.7 35.2 L17.0 35.45 17.35 34.55 17.35 35.45 18.45 35.65 19.25 35.75 M20.15 35.9 L20.25 36.1" fill="none" stroke="#000000" stroke-linecap="round" stroke-linejoin="round" stroke-opacity="0.5019608" stroke-width="1.5"/>
    <path d="M28.8 17.85 Q28.95 18.85 26.35 19.9 L26.2 19.9 21.9 18.25 21.65 17.9 22.7 17.1 23.55 16.25 24.05 16.2 28.5 17.8 28.8 17.85" fill="#807e78" fill-rule="evenodd" stroke="none"/>
    <path d="M28.8 17.85 L31.95 18.2 32.25 17.9 32.4 18.05 30.8 20.0 26.35 19.9 Q28.95 18.85 28.8 17.85" fill="#403e30" fill-rule="evenodd" stroke="none"/>
    <path d="M26.35 19.9 L30.8 20.0 32.4 18.05 32.25 17.9 31.95 18.2 28.8 17.85 28.5 17.8 24.05 16.2 23.55 16.25 22.7 17.1 21.65 17.9 21.9 18.25 26.2 19.9 26.35 19.9 Z" fill="none" stroke="#000000" stroke-linecap="round" stroke-linejoin="round" stroke-opacity="0.3019608" stroke-width="1.5"/>
    <path d="M26.4 20.15 Q26.1 21.25 24.05 22.2 L24.0 22.2 19.65 20.55 19.4 20.15 20.45 19.35 21.3 18.55 21.8 18.45 26.35 20.1 26.4 20.15" fill="#807e78" fill-rule="evenodd" stroke="none"/>
    <path d="M26.5 20.1 L29.9 20.55 30.15 20.3 30.3 20.4 28.75 22.3 24.05 22.2 Q26.1 21.25 26.4 20.15 L26.5 20.1" fill="#403e30" fill-rule="evenodd" stroke="none"/>
    <path d="M24.05 22.2 L28.75 22.3 30.3 20.4 30.15 20.3 29.9 20.55 26.5 20.1 M24.05 22.2 L24.0 22.2 19.65 20.55 19.4 20.15 20.45 19.35 21.3 18.55 21.8 18.45 26.35 20.1 26.4 20.15" fill="none" stroke="#000000" stroke-linecap="round" stroke-linejoin="round" stroke-opacity="0.3019608" stroke-width="1.5"/>
    <path d="M27.55 18.9 L27.65 18.95 27.7 19.0 Q28.6 20.75 25.6 20.9 L25.5 20.85 21.45 18.55 21.3 18.15 22.25 17.4 22.55 17.1 23.55 17.15 26.85 18.65 27.55 18.9" fill="#807e78" fill-rule="evenodd" stroke="none"/>
    <path d="M27.7 19.0 L27.9 19.0 28.05 19.1 30.9 19.9 31.15 19.65 31.3 19.75 29.8 21.65 25.6 20.9 Q28.6 20.75 27.7 19.0" fill="#403e30" fill-rule="evenodd" stroke="none"/>
    <path d="M22.55 17.1 L23.0 16.65 23.5 16.65 27.55 18.9 26.85 18.65 23.55 17.15 22.55 17.1" fill="#c7c4bb" fill-rule="evenodd" stroke="none"/>
    <path d="M27.55 18.9 L27.65 18.95 27.7 19.0 27.9 19.0 M28.05 19.1 L30.9 19.9 31.15 19.65 31.3 19.75 29.8 21.65 25.6 20.9 25.5 20.85 21.45 18.55 21.3 18.15 22.25 17.4 22.55 17.1 23.0 16.65 23.5 16.65 27.55 18.9" fill="none" stroke="#000000" stroke-linecap="round" stroke-linejoin="round" stroke-opacity="0.3019608" stroke-width="1.5"/>
    <path d="M21.9 24.25 L21.95 24.2 21.9 24.3 21.9 24.25" fill="#a39f85" fill-rule="evenodd" stroke="none"/>
    <path d="M19.75 19.85 L24.0 22.25 24.05 22.3 Q24.2 24.15 21.95 24.25 L21.95 24.2 21.9 24.25 18.25 22.1 17.95 21.35 Q18.85 20.85 18.95 20.2 L19.75 19.85" fill="#807e78" fill-rule="evenodd" stroke="none"/>
    <path d="M21.95 24.2 L21.95 24.25 Q24.2 24.15 24.05 22.3 L27.35 23.3 27.6 23.0 27.75 23.15 26.4 25.15 22.05 24.3 21.9 24.3 21.95 24.2" fill="#403e30" fill-rule="evenodd" stroke="none"/>
    <path d="M19.75 19.85 L18.95 20.2 Q18.85 20.85 17.95 21.35 L18.25 22.1 17.65 21.75 17.35 21.3 18.3 20.5 19.0 19.75 19.5 19.75 19.75 19.85" fill="#c7c4bb" fill-rule="evenodd" stroke="none"/>
    <path d="M24.05 22.3 L24.0 22.25 19.75 19.85 19.5 19.75 19.0 19.75 18.3 20.5 17.35 21.3 17.65 21.75 18.25 22.1 21.9 24.25 21.9 24.3 22.05 24.3 26.4 25.15 27.75 23.15 27.6 23.0 27.35 23.3 24.05 22.3 Z" fill="none" stroke="#000000" stroke-linecap="round" stroke-linejoin="round" stroke-opacity="0.3019608" stroke-width="1.5"/>
    <path d="M21.7 20.35 Q24.0 20.8 25.7 22.1 23.5 21.55 21.7 20.35" fill="url(#gradient7)" fill-rule="evenodd" stroke="none"/>
    <path d="M25.4 23.05 Q23.15 22.65 20.05 20.45 22.85 21.3 25.4 23.05" fill="url(#gradient8)" fill-rule="evenodd" stroke="none"/>
    <path d="M25.05 24.6 Q22.8 24.2 19.7 22.0 22.5 22.85 25.05 24.6" fill="url(#gradient9)" fill-rule="evenodd" stroke="none"/>
    <path d="M21.35 21.9 Q23.65 22.35 25.35 23.65 23.15 23.1 21.35 21.9" fill="url(#gradient10)" fill-rule="evenodd" stroke="none"/>
    <path d="M18.75 20.3 Q22.05 21.6 24.8 23.75 21.6 22.4 18.75 20.3" fill="url(#gradient11)" fill-rule="evenodd" stroke="none"/>
    <path d="M25.8 17.45 Q28.1 17.9 29.8 19.2 27.6 18.65 25.8 17.45" fill="url(#gradient12)" fill-rule="evenodd" stroke="none"/>
    <path d="M8.95 38.5 L8.85 38.8 6.85 38.75 Q6.95 39.05 7.55 39.25 L7.7 39.25 8.55 39.05 8.4 39.2 Q7.2 39.7 6.55 38.75 L6.45 38.65 6.5 38.6 Q6.3 38.15 6.55 37.6 6.65 37.45 6.9 37.4 6.95 39.2 8.95 38.5" fill="#fffdf1" fill-rule="evenodd" stroke="none"/>
    <path d="M8.85 38.8 L8.55 39.05 7.7 39.25 7.55 39.25 Q6.95 39.05 6.85 38.75 L8.85 38.8" fill="#c4c2aa" fill-rule="evenodd" stroke="none"/>
    <path d="M6.15 39.05 L6.2 38.95 6.2 38.15 6.3 37.9 6.3 37.8 6.55 37.6 Q6.3 38.15 6.5 38.6 L6.45 38.65 6.55 38.75 Q6.5 39.15 6.8 39.45 6.55 39.65 6.15 39.05" fill="#b3b094" fill-rule="evenodd" stroke="none"/>
    <path d="M8.4 39.2 L6.85 39.95 6.75 39.9 Q6.2 39.85 6.15 39.05 6.55 39.65 6.8 39.45 6.5 39.15 6.55 38.75 7.2 39.7 8.4 39.2" fill="#a19d7a" fill-rule="evenodd" stroke="none"/>
    <path d="M8.95 38.5 L8.85 38.8 8.55 39.05 8.4 39.2 6.85 39.95 6.75 39.9 Q6.2 39.85 6.15 39.05 M6.2 38.95 L6.2 38.15 6.3 37.9 6.3 37.8 6.55 37.6 Q6.65 37.45 6.9 37.4 6.95 39.2 8.95 38.5 L9.2 38.4" fill="none" stroke="#000000" stroke-linecap="round" stroke-linejoin="round" stroke-opacity="0.3019608" stroke-width="0.05"/>
    <path d="M9.35 37.0 L9.4 37.05 Q9.8 37.65 11.95 36.3 L12.35 35.95 12.3 35.95 10.45 36.6 10.25 36.65 9.9 36.65 Q9.6 36.6 9.4 36.35 8.8 36.3 9.35 37.0 M11.7 36.25 Q10.25 37.15 9.75 36.65 10.6 36.8 11.7 36.25" fill="#fffdf1" fill-rule="evenodd" stroke="none"/>
    <path d="M10.45 36.6 L12.3 35.95 12.0 36.0 10.8 36.15 Q10.45 36.1 10.2 35.85 9.55 35.55 9.5 36.05 9.75 36.7 10.45 36.6 M10.2 36.15 L10.05 36.3 9.9 36.25 9.8 36.15 Q9.85 36.0 10.05 35.95 L10.2 36.15 M11.7 36.25 Q10.6 36.8 9.75 36.65 10.25 37.15 11.7 36.25" fill="#c4c2aa" fill-rule="evenodd" stroke="none"/>
    <path d="M9.4 36.35 Q9.6 36.6 9.9 36.65 L10.25 36.65 10.45 36.6 Q9.75 36.7 9.5 36.05 9.35 35.6 9.35 34.85 L9.3 34.9 9.25 34.95 9.2 35.0 Q9.0 35.95 9.4 36.35 M9.65 35.1 L9.8 34.6 9.6 34.7 9.65 35.1" fill="#a19d7a" fill-rule="evenodd" stroke="none"/>
    <path d="M10.2 35.85 L9.65 35.1 9.6 34.7 9.35 34.85 Q9.35 35.6 9.5 36.05 9.55 35.55 10.2 35.85 M10.2 36.15 L10.05 35.95 Q9.85 36.0 9.8 36.15 L9.9 36.25 10.05 36.3 10.2 36.15" fill="#b3b094" fill-rule="evenodd" stroke="none"/>
    <path d="M9.35 37.0 Q8.8 36.3 9.4 36.35 9.0 35.95 9.2 35.0 L9.15 35.1 Q8.6 36.4 9.25 36.9 L9.35 37.0" fill="#e0dcc4" fill-rule="evenodd" stroke="none"/>
    <path d="M12.3 35.95 L12.35 35.95 11.95 36.3 Q9.8 37.65 9.4 37.05 L9.35 37.0 9.25 36.9 Q8.6 36.4 9.15 35.1 L9.2 35.0 9.25 34.95 9.3 34.9 9.35 34.85 9.6 34.7 9.65 35.1 9.8 34.6 9.6 34.7 M12.3 35.95 L12.0 36.0 10.8 36.15 Q10.45 36.1 10.2 35.85 L9.65 35.1" fill="none" stroke="#000000" stroke-linecap="round" stroke-linejoin="round" stroke-opacity="0.3019608" stroke-width="0.05"/>
    <path d="M10.65 37.4 L10.7 37.15 Q9.0 37.6 8.6 36.1 L8.25 36.15 8.25 36.2 Q8.2 36.65 8.45 37.05 L8.5 37.05 8.45 37.05 8.55 37.2 Q9.3 38.05 10.3 37.65 L10.45 37.55 9.7 37.65 9.55 37.65 Q8.9 37.4 8.8 37.2 10.05 37.95 10.65 37.4" fill="#fffdf1" fill-rule="evenodd" stroke="none"/>
    <path d="M10.45 37.55 L10.65 37.4 Q10.05 37.95 8.8 37.2 8.9 37.4 9.55 37.65 L9.7 37.65 10.45 37.55" fill="#c4c2aa" fill-rule="evenodd" stroke="none"/>
    <path d="M8.55 37.2 L8.45 37.05 8.5 37.05 8.45 37.05 Q8.2 36.65 8.25 36.2 L8.15 36.4 8.15 36.45 8.15 36.7 8.25 37.3 8.25 37.35 Q8.7 37.9 8.9 37.75 L8.55 37.2" fill="#b3b094" fill-rule="evenodd" stroke="none"/>
    <path d="M10.3 37.65 Q9.3 38.05 8.55 37.2 L8.9 37.75 Q8.7 37.9 8.25 37.35 8.45 38.0 8.95 38.1 L9.05 38.1 10.3 37.65" fill="#a19d7a" fill-rule="evenodd" stroke="none"/>
    <path d="M10.45 37.55 L10.65 37.4 10.7 37.15 10.85 37.1 M10.45 37.55 L10.3 37.65 9.05 38.1 8.95 38.1 Q8.45 38.0 8.25 37.35 M8.25 36.15 L8.6 36.1 Q9.0 37.6 10.7 37.15 M8.25 36.2 L8.15 36.4 8.15 36.45 8.15 36.7 8.25 37.3" fill="none" stroke="#000000" stroke-linecap="round" stroke-linejoin="round" stroke-opacity="0.3019608" stroke-width="0.05"/>
    <path d="M12.4 35.9 L12.05 36.2 Q9.9 37.5 9.5 36.95 L9.5 36.9 9.35 36.8 Q8.7 36.3 9.25 35.05 L9.3 34.95 9.3 34.9 9.4 34.75 9.45 34.7 9.65 34.55 9.9 34.5 9.75 35.0 10.3 35.75 10.9 36.1 12.15 35.95 12.4 35.85 12.4 35.9 M8.4 36.15 L8.7 36.05 Q9.1 37.55 10.75 37.1 L10.75 37.4 10.55 37.55 10.4 37.65 9.15 38.1 9.05 38.15 Q8.55 38.0 8.35 37.35 L8.35 37.3 8.25 36.6 8.2 36.4 8.2 36.35 8.4 36.2 8.4 36.15 M8.9 38.8 L8.6 39.05 8.5 39.2 6.9 39.95 6.85 39.9 Q6.25 39.85 6.25 39.05 L6.25 38.95 6.3 38.15 6.35 37.9 6.4 37.8 6.6 37.55 7.0 37.4 Q7.0 39.2 9.05 38.5 L8.9 38.8" fill="#000000" fill-opacity="0.5019608" fill-rule="evenodd" stroke="none"/>
    <path d="M11.35 33.4 L11.1 33.35 11.35 33.35 11.35 33.4 M13.65 33.5 L13.3 33.9 14.05 33.2 13.65 33.5 M13.85 34.7 Q14.0 33.9 14.45 33.05 L13.2 34.4 13.8 34.65 13.85 34.7 M14.95 32.25 L15.15 32.1 15.1 32.1 14.95 32.25 Z" fill="none" stroke="#000000" stroke-linecap="round" stroke-linejoin="round" stroke-opacity="0.3019608" stroke-width="0.5"/>
  </g>
  <defs>
    <linearGradient gradientTransform="matrix(-9.0E-4, 0.0, 3.0E-4, 0.0032, 10.35, 33.05)" gradientUnits="userSpaceOnUse" id="gradient0" spreadMethod="pad" x1="-819.2" x2="819.2">
      <stop offset="0.0" stop-color="#ffffff" stop-opacity="0.14901961"/>
      <stop offset="1.0" stop-color="#ffffff" stop-opacity="0.0"/>
    </linearGradient>
    <linearGradient gradientTransform="matrix(0.0011, 0.0015, 0.0025, -0.0015, 14.7, 37.0)" gradientUnits="userSpaceOnUse" id="gradient1" spreadMethod="pad" x1="-819.2" x2="819.2">
      <stop offset="0.0" stop-color="#ffffff" stop-opacity="0.14901961"/>
      <stop offset="1.0" stop-color="#ffffff" stop-opacity="0.0"/>
    </linearGradient>
    <linearGradient gradientTransform="matrix(-5.0E-4, -0.0012, 0.0014, -0.0012, 11.35, 29.2)" gradientUnits="userSpaceOnUse" id="gradient2" spreadMethod="pad" x1="-819.2" x2="819.2">
      <stop offset="0.0" stop-color="#ffffff" stop-opacity="0.15294118"/>
      <stop offset="1.0" stop-color="#ffffff" stop-opacity="0.0"/>
    </linearGradient>
    <linearGradient gradientTransform="matrix(-9.0E-4, -8.0E-4, 5.0E-4, -0.0027, 10.15, 30.5)" gradientUnits="userSpaceOnUse" id="gradient3" spreadMethod="pad" x1="-819.2" x2="819.2">
      <stop offset="0.0" stop-color="#ffffff" stop-opacity="0.14901961"/>
      <stop offset="1.0" stop-color="#ffffff" stop-opacity="0.0"/>
    </linearGradient>
    <linearGradient gradientTransform="matrix(0.0064, 0.0028, -0.0013, 0.0011, 21.7, 34.15)" gradientUnits="userSpaceOnUse" id="gradient4" spreadMethod="pad" x1="-819.2" x2="819.2">
      <stop offset="0.0" stop-color="#050403"/>
      <stop offset="1.0" stop-color="#272e1f"/>
    </linearGradient>
    <linearGradient gradientTransform="matrix(0.0066, 0.0029, -0.0025, 0.0022, 20.7, 35.1)" gradientUnits="userSpaceOnUse" id="gradient5" spreadMethod="pad" x1="-819.2" x2="819.2">
      <stop offset="0.0" stop-color="#050403"/>
      <stop offset="1.0" stop-color="#2b3b3b"/>
    </linearGradient>
    <linearGradient gradientTransform="matrix(0.0064, 0.0028, -0.0013, 0.0011, 21.7, 34.15)" gradientUnits="userSpaceOnUse" id="gradient6" spreadMethod="pad" x1="-819.2" x2="819.2">
      <stop offset="0.0" stop-color="#0b0c08"/>
      <stop offset="1.0" stop-color="#3f5250"/>
    </linearGradient>
    <linearGradient gradientTransform="matrix(-0.0024, -9.0E-4, 3.0E-4, -7.0E-4, 23.65, 21.25)" gradientUnits="userSpaceOnUse" id="gradient7" spreadMethod="pad" x1="-819.2" x2="819.2">
      <stop offset="0.0" stop-color="#2e2c22"/>
      <stop offset="1.0" stop-color="#6e6a5a" stop-opacity="0.2"/>
    </linearGradient>
    <linearGradient gradientTransform="matrix(-0.0019, -8.0E-4, 4.0E-4, -7.0E-4, 22.9, 21.25)" gradientUnits="userSpaceOnUse" id="gradient8" spreadMethod="pad" x1="-819.2" x2="819.2">
      <stop offset="0.0" stop-color="#2e2c22"/>
      <stop offset="1.0" stop-color="#6e6a5a" stop-opacity="0.2"/>
    </linearGradient>
    <linearGradient gradientTransform="matrix(-0.0019, -8.0E-4, 4.0E-4, -7.0E-4, 22.55, 22.8)" gradientUnits="userSpaceOnUse" id="gradient9" spreadMethod="pad" x1="-819.2" x2="819.2">
      <stop offset="0.0" stop-color="#2e2c22"/>
      <stop offset="1.0" stop-color="#6e6a5a" stop-opacity="0.2"/>
    </linearGradient>
    <linearGradient gradientTransform="matrix(-0.0024, -9.0E-4, 3.0E-4, -7.0E-4, 23.3, 22.8)" gradientUnits="userSpaceOnUse" id="gradient10" spreadMethod="pad" x1="-819.2" x2="819.2">
      <stop offset="0.0" stop-color="#2e2c22"/>
      <stop offset="1.0" stop-color="#6e6a5a" stop-opacity="0.2"/>
    </linearGradient>
    <linearGradient gradientTransform="matrix(-0.0036, -0.0018, 1.0E-4, -8.0E-4, 21.75, 22.05)" gradientUnits="userSpaceOnUse" id="gradient11" spreadMethod="pad" x1="-819.2" x2="819.2">
      <stop offset="0.0" stop-color="#2e2c22"/>
      <stop offset="1.0" stop-color="#6e6a5a" stop-opacity="0.2"/>
    </linearGradient>
    <linearGradient gradientTransform="matrix(-0.0024, -9.0E-4, 3.0E-4, -7.0E-4, 27.75, 18.35)" gradientUnits="userSpaceOnUse" id="gradient12" spreadMethod="pad" x1="-819.2" x2="819.2">
      <stop offset="0.0" stop-color="#2e2c22"/>
      <stop offset="1.0" stop-color="#6e6a5a" stop-opacity="0.2"/>
    </linearGradient>
  </defs>
</svg>
