<?xml version="1.0" encoding="UTF-8" standalone="no"?>
<svg xmlns:xlink="http://www.w3.org/1999/xlink" height="308.95px" width="172.25px" xmlns="http://www.w3.org/2000/svg">
  <g transform="matrix(1.0, 0.0, 0.0, 1.0, -164.2, -2.5)">
    <path d="M277.4 162.15 L272.4 91.65 Q303.45 65.4 315.05 35.95 319.7 20.05 318.95 2.75 L321.1 8.0 Q328.9 56.6 317.95 97.0 301.15 131.9 277.4 162.15 L277.4 162.2 274.35 166.0 262.4 180.0 253.15 172.9 Q244.1 178.4 253.15 189.95 L244.7 198.45 Q226.65 215.85 205.8 231.4 200.05 219.5 210.8 212.4 L221.85 205.3 Q228.95 198.2 221.85 185.55 L213.1 172.0 204.35 158.45 206.5 151.6 213.1 172.0 221.5 138.6 227.0 134.75 Q221.85 144.55 244.0 157.1 263.45 157.75 242.9 121.3 252.25 112.55 262.55 101.1 L277.4 162.15" fill="#ffcc00" fill-rule="evenodd" stroke="none"/>
    <path d="M302.8 304.65 Q301.5 307.25 293.65 309.15 284.3 311.45 271.1 311.45 257.9 311.45 248.55 309.15 239.2 306.9 239.2 303.65 L239.45 302.65 223.05 303.2 Q198.65 303.2 181.4 298.55 164.2 293.95 164.2 287.4 164.2 284.0 168.85 281.1 161.6 291.0 189.8 296.05 L190.15 296.3 Q215.2 301.4 241.75 299.25 L240.6 300.95 Q246.55 307.7 269.1 308.65 287.65 308.65 302.8 304.65 M172.0 279.45 Q189.6 265.35 189.9 242.7 L191.4 241.7 Q190.6 251.95 188.0 260.8 185.9 268.95 179.65 274.55 L172.0 279.45 M170.45 265.55 L169.5 265.5 Q167.45 264.65 167.95 262.35 168.05 258.75 172.0 254.8 L173.4 253.6 Q169.35 257.4 169.0 263.05 168.85 264.8 170.45 265.55 M227.0 134.75 Q234.6 129.05 242.9 121.3 263.45 157.75 244.0 157.1 221.85 144.55 227.0 134.75 M204.35 158.45 L213.1 172.0 221.85 185.55 Q228.95 198.2 221.85 205.3 L210.8 212.4 Q200.05 219.5 205.8 231.4 L199.45 236.1 199.25 235.85 Q192.05 199.9 204.35 158.45 M253.15 189.95 Q244.1 178.4 253.15 172.9 L262.4 180.0 253.15 189.95 M194.55 239.5 Q193.2 234.85 192.0 230.2 185.65 205.75 183.55 180.45 188.85 211.35 199.25 235.85 L199.35 236.15 194.55 239.5 M192.25 274.2 Q193.8 273.35 194.1 271.4 L192.65 266.05 Q191.5 260.4 190.4 261.2 L191.65 258.7 Q193.65 260.15 197.05 271.7 196.05 273.35 192.25 274.2 M265.25 308.95 L263.3 308.8 263.4 308.95 265.25 308.95" fill="#666600" fill-rule="evenodd" stroke="none"/>
    <path d="M321.1 8.0 Q331.95 35.35 334.75 64.75 341.75 139.7 314.65 188.7 L274.45 166.05 311.45 193.45 290.15 227.4 244.7 198.45 282.65 231.75 Q260.65 247.85 236.15 246.75 253.35 240.65 205.8 231.4 226.65 215.85 244.7 198.45 L253.15 189.95 Q260.05 201.6 266.9 198.2 273.4 196.85 271.6 187.1 L262.4 180.0 274.35 166.0 277.4 162.2 277.4 162.25 277.4 162.15 Q301.15 131.9 317.95 97.0 328.9 56.6 321.1 8.0 M274.45 166.05 L274.35 166.0 274.45 166.05" fill="#ffe375" fill-rule="evenodd" stroke="none"/>
    <path d="M236.15 246.75 Q219.05 246.0 200.75 236.85 219.55 252.5 242.8 259.4 220.55 255.3 201.5 243.95 194.85 249.4 196.6 260.55 199.15 273.0 208.65 272.35 L218.7 271.65 223.05 271.6 Q247.45 271.6 264.65 276.2 281.9 280.85 281.9 287.4 281.9 292.15 272.9 295.85 284.95 296.0 293.65 298.1 303.0 300.4 303.0 303.65 L302.8 304.65 Q287.65 308.65 269.1 308.65 246.55 307.7 240.6 300.95 L241.75 299.25 Q215.2 301.4 190.15 296.3 L189.8 296.05 Q161.6 291.0 168.85 281.1 170.2 280.25 172.0 279.45 L179.65 274.55 Q185.9 268.95 188.0 260.8 190.6 251.95 191.4 241.7 L189.9 242.7 187.05 244.6 Q192.7 239.15 192.0 230.2 193.2 234.85 194.55 239.5 L199.35 236.15 200.75 236.85 199.35 236.15 199.45 236.1 205.8 231.4 Q253.35 240.65 236.15 246.75 M176.65 251.3 Q173.65 256.6 174.1 259.95 174.85 265.5 170.45 265.55 168.85 264.8 169.0 263.05 169.35 257.4 173.4 253.6 174.7 252.5 176.65 251.3 M253.15 189.95 L262.4 180.0 271.6 187.1 Q273.4 196.85 266.9 198.2 260.05 201.6 253.15 189.95 M194.55 239.5 L191.4 241.7 194.55 239.5 M192.25 274.2 Q196.05 273.35 197.05 271.7 193.65 260.15 191.65 258.7 L190.4 261.2 Q188.85 262.2 187.3 274.8 190.5 275.15 192.25 274.2 M206.5 294.6 L206.3 294.5 206.3 294.6 206.5 294.6 M271.05 307.05 L271.1 307.2 271.1 306.95 271.05 307.05" fill="#8a8a00" fill-rule="evenodd" stroke="none"/>
    <path d="M277.4 162.15 L272.4 91.65 Q303.45 65.4 315.05 35.95 319.7 20.05 318.95 2.75 L321.1 8.0 Q331.95 35.35 334.75 64.75 341.75 139.7 314.65 188.7 L274.45 166.05 311.45 193.45 290.15 227.4 244.7 198.45 282.65 231.75 Q260.65 247.85 236.15 246.75 219.05 246.0 200.75 236.85 219.55 252.5 242.8 259.4 220.55 255.3 201.5 243.95 M189.9 242.7 L187.05 244.6 176.65 251.3 Q174.7 252.5 173.4 253.6 L172.0 254.8 M204.35 158.45 L206.5 151.6 213.1 172.0 221.5 138.6 227.0 134.75 Q234.6 129.05 242.9 121.3 252.25 112.55 262.55 101.1 L277.4 162.15 277.4 162.2 277.4 162.15 Q301.15 131.9 317.95 97.0 M204.35 158.45 Q192.05 199.9 199.25 235.85 L199.35 236.15 194.55 239.5 Q193.2 234.85 192.0 230.2 185.65 205.75 183.55 180.45 188.85 211.35 199.25 235.85 L199.35 236.15 200.75 236.85 M199.45 236.1 L205.8 231.4 Q226.65 215.85 244.7 198.45 L253.15 189.95 262.4 180.0 274.35 166.0 277.4 162.2 277.4 162.25 277.4 162.15 M274.45 166.05 L274.35 166.0 M189.9 242.7 L191.4 241.7 194.55 239.5 M199.45 236.1 L199.35 236.15" fill="none" stroke="#000000" stroke-linecap="round" stroke-linejoin="round" stroke-opacity="0.3882353" stroke-width="0.5"/>
    <path d="M272.4 281.75 Q271.75 282.0 270.75 281.75 269.75 281.5 269.05 280.85 268.4 280.3 268.4 279.65 268.4 279.05 269.05 278.75 L270.75 278.8 Q271.75 279.05 272.4 279.65 273.1 280.3 273.1 280.9 273.1 281.55 272.4 281.75" fill="#ffffd7" fill-rule="evenodd" stroke="none"/>
    <path d="M293.45 300.9 L291.8 301.15 Q290.8 301.0 290.1 300.5 289.45 300.0 289.45 299.35 289.45 298.75 290.1 298.4 L291.8 298.2 Q292.8 298.3 293.45 298.8 294.15 299.35 294.15 299.95 294.15 300.6 293.45 300.9" fill="#ffffd7" fill-rule="evenodd" stroke="none"/>
  </g>
</svg>
