<?xml version="1.0" encoding="UTF-8" standalone="no"?>
<svg xmlns:xlink="http://www.w3.org/1999/xlink" height="202.6px" width="197.55px" xmlns="http://www.w3.org/2000/svg">
  <g transform="matrix(1.0, 0.0, 0.0, 1.0, -101.2, -47.55)">
    <path d="M294.95 246.0 L294.1 245.6 295.3 250.15 291.8 245.0 291.55 244.45 287.6 234.3 Q289.05 234.15 290.4 233.5 289.05 234.15 287.6 234.3 285.15 234.05 283.6 231.9 L283.25 228.75 285.1 226.65 283.45 213.6 286.95 212.55 287.3 215.25 287.55 216.5 287.95 218.3 Q287.7 219.55 287.7 220.9 L287.55 223.5 287.4 227.6 Q287.3 227.75 287.5 227.85 288.65 228.45 289.45 229.45 L289.65 229.5 290.15 229.4 290.85 228.95 291.1 228.95 291.65 229.15 290.9 230.4 290.65 230.85 290.6 231.4 290.35 231.65 290.4 231.8 Q290.3 231.85 290.35 232.0 291.3 232.25 292.15 231.65 L293.85 230.3 293.85 230.5 292.35 232.05 290.4 233.5 291.05 235.5 Q291.5 237.45 292.3 239.4 L294.1 243.9 294.95 246.0 M285.1 226.65 Q285.35 228.6 286.0 229.95 L289.45 229.45 286.0 229.95 Q285.35 228.6 285.1 226.65" fill="#cccc99" fill-rule="evenodd" stroke="none"/>
    <path d="M294.95 246.0 L294.1 243.9 292.3 239.4 Q291.5 237.45 291.05 235.5 L290.4 233.5 292.35 232.05 Q294.6 240.15 298.75 247.7 L294.95 246.0 M286.95 212.55 L287.35 212.6 Q288.75 212.0 290.25 211.65 L290.35 223.35 293.55 225.8 Q294.35 226.7 294.35 228.05 294.45 229.0 293.85 230.3 L292.15 231.65 Q291.3 232.25 290.35 232.0 290.3 231.85 290.4 231.8 L290.35 231.65 290.6 231.4 290.65 230.85 290.9 230.4 291.65 229.15 291.1 228.95 290.85 228.95 290.15 229.4 289.65 229.5 289.45 229.45 Q288.65 228.45 287.5 227.85 287.3 227.75 287.4 227.6 L287.55 223.5 287.7 220.9 Q287.7 219.55 287.95 218.3 L287.55 216.5 287.3 215.25 286.95 212.55 M290.05 226.8 L290.35 223.35 290.05 226.8" fill="#e6e6cc" fill-rule="evenodd" stroke="none"/>
    <path d="M287.6 234.3 L291.55 244.45 291.8 245.0 295.3 250.15 294.1 245.6 294.95 246.0 298.75 247.7 Q294.6 240.15 292.35 232.05 L290.4 233.5 Q289.05 234.15 287.6 234.3 285.15 234.05 283.6 231.9 L283.25 228.75 285.1 226.65 283.45 213.6 286.95 212.55 M287.35 212.6 Q288.75 212.0 290.25 211.65 L290.35 223.35 293.55 225.8 Q294.35 226.7 294.35 228.05 294.45 229.0 293.85 230.3 L293.85 230.5 292.35 232.05 M290.35 223.35 L290.05 226.8 M289.45 229.45 L286.0 229.95 Q285.35 228.6 285.1 226.65" fill="none" stroke="#000000" stroke-linecap="round" stroke-linejoin="round" stroke-opacity="0.4" stroke-width="0.05"/>
    <path d="M226.05 117.45 L220.7 113.5 218.85 112.85 Q221.85 117.55 222.15 119.7 220.95 118.75 218.45 118.45 L216.6 117.8 Q198.7 102.2 195.05 85.9 192.2 68.85 195.95 56.7 199.85 44.05 201.8 48.85 L215.6 79.1 Q225.8 101.8 228.45 110.5 226.5 108.8 223.85 107.35 224.0 110.0 226.2 117.0 L226.05 117.45" fill="#bb8e4d" fill-rule="evenodd" stroke="none"/>
    <path d="M226.05 117.45 L220.7 113.5 218.85 112.85 Q221.85 117.55 222.15 119.7 220.95 118.75 218.45 118.45 L216.6 117.8 Q198.7 102.2 195.05 85.9 192.2 68.85 195.95 56.7 199.85 44.05 201.8 48.85 L215.6 79.1 Q225.8 101.8 228.45 110.5 226.5 108.8 223.85 107.35 224.0 110.0 226.2 117.0 L226.95 117.75 226.05 117.45 Z" fill="none" stroke="#000000" stroke-linecap="round" stroke-linejoin="round" stroke-opacity="0.24313726" stroke-width="0.05"/>
    <path d="M286.6 227.65 Q283.7 224.05 280.65 220.95 268.55 214.1 257.0 207.0 260.95 201.65 265.35 196.4 262.15 196.85 254.5 199.4 244.1 204.0 232.55 200.0 216.8 194.5 205.15 187.85 L226.15 169.25 179.7 170.2 Q185.6 168.1 191.65 165.55 L154.1 141.05 171.25 142.4 Q169.75 140.8 167.6 139.55 166.05 137.95 163.9 136.7 159.5 133.05 153.45 129.4 L210.05 144.0 211.9 144.65 Q200.4 135.95 195.7 131.75 219.25 141.45 231.7 147.4 244.15 153.3 251.0 158.8 252.1 160.2 253.8 161.3 L255.65 161.95 Q258.25 163.35 261.8 163.6 265.8 167.05 269.45 169.85 L269.8 168.95 Q253.35 149.2 255.55 144.3 L264.9 153.25 Q265.35 153.4 265.65 154.05 270.35 161.35 273.5 167.15 L275.35 170.9 276.55 173.4 Q279.25 179.0 280.55 182.6 283.55 188.8 283.6 190.35 283.65 193.0 293.2 208.75 300.6 220.15 286.6 227.65" fill="#b38644" fill-rule="evenodd" stroke="none"/>
    <path d="M264.9 153.25 L255.55 144.3 Q253.35 149.2 269.8 168.95 L269.45 169.85 Q265.8 167.05 261.8 163.6 258.25 163.35 255.65 161.95 240.0 126.45 233.4 112.75 240.55 120.4 245.6 126.8 257.15 141.25 264.9 153.25 M253.8 161.3 Q252.1 160.2 251.0 158.8 244.15 153.3 231.7 147.4 219.25 141.45 195.7 131.75 200.4 135.95 211.9 144.65 L210.05 144.0 153.45 129.4 Q144.75 123.3 132.8 116.0 108.85 101.45 101.2 84.75 L105.35 84.65 Q107.05 85.8 126.8 90.05 123.1 88.75 117.4 84.2 110.25 78.1 108.45 72.75 L114.45 73.35 167.3 80.9 Q167.45 80.4 167.0 80.25 167.05 75.6 127.75 53.1 L143.4 54.4 Q170.9 54.2 197.65 76.95 L206.85 84.85 204.45 82.95 Q184.35 67.65 158.65 59.7 182.3 82.5 190.05 94.5 201.4 110.9 206.65 122.6 237.25 138.95 253.8 161.3 M224.35 97.15 L219.35 75.75 Q227.4 91.45 232.35 102.5 L224.35 97.15" fill="#d6c47e" fill-rule="evenodd" stroke="none"/>
    <path d="M255.65 161.95 L253.8 161.3 Q237.25 138.95 206.65 122.6 201.4 110.9 190.05 94.5 182.3 82.5 158.65 59.7 184.35 67.65 204.45 82.95 L206.85 84.85 Q215.9 93.15 226.4 104.6 L224.35 97.15 232.35 102.5 Q236.85 110.3 239.55 115.9 241.55 119.2 242.75 121.65 L245.6 126.8 Q240.55 120.4 233.4 112.75 240.0 126.45 255.65 161.95" fill="#ffffff" fill-rule="evenodd" stroke="none"/>
    <path d="M154.1 141.05 L191.65 165.55 Q185.6 168.1 179.7 170.2 L226.15 169.25 205.15 187.85 Q216.8 194.5 232.55 200.0 244.1 204.0 254.5 199.4 262.15 196.85 265.35 196.4 260.95 201.65 257.0 207.0 268.55 214.1 280.65 220.95 283.7 224.05 286.6 227.65 282.2 229.8 275.25 232.0 224.6 221.1 179.4 191.85 L173.1 187.55 Q174.85 187.15 176.05 186.55 195.15 180.75 193.5 178.15 L172.6 180.15 Q156.4 165.7 145.75 151.6 L142.55 147.4 138.05 139.6 154.1 141.05" fill="#8d6a36" fill-rule="evenodd" stroke="none"/>
    <path d="M154.1 141.05 L138.05 139.6 142.55 147.4 145.75 151.6 Q156.4 165.7 172.6 180.15 L193.5 178.15 Q195.15 180.75 176.05 186.55 174.85 187.15 173.1 187.55 L179.4 191.85 Q224.6 221.1 275.25 232.0 282.2 229.8 286.6 227.65 300.6 220.15 293.2 208.75 283.65 193.0 283.6 190.35 283.55 188.8 280.55 182.6 279.25 179.0 276.55 173.4 L275.35 170.9 273.5 167.15 M153.45 129.4 Q159.5 133.05 163.9 136.7 166.05 137.95 167.6 139.55 169.75 140.8 171.25 142.4 L154.1 141.05 M153.45 129.4 Q144.75 123.3 132.8 116.0 108.85 101.45 101.2 84.75 L105.35 84.65 Q107.05 85.8 126.8 90.05 123.1 88.75 117.4 84.2 110.25 78.1 108.45 72.75 L114.45 73.35 167.3 80.9 Q167.45 80.4 167.0 80.25 167.05 75.6 127.75 53.1 L143.4 54.4 Q170.9 54.2 197.65 76.95 L206.85 84.85 Q215.9 93.15 226.4 104.6 L224.35 97.15 219.35 75.75 Q227.4 91.45 232.35 102.5 236.85 110.3 239.55 115.9 241.55 119.2 242.75 121.65 L245.6 126.8 Q257.15 141.25 264.9 153.25" fill="none" stroke="#000000" stroke-linecap="round" stroke-linejoin="round" stroke-opacity="0.24313726" stroke-width="0.05"/>
    <path d="M195.85 120.85 Q190.3 118.95 185.35 116.7 L182.0 114.5 Q171.55 108.8 165.6 100.5 161.2 93.8 158.4 87.1 155.25 79.8 154.4 73.25 153.2 60.4 156.7 63.7 L181.45 86.35 Q198.9 101.75 204.65 108.95 L204.5 109.4 Q200.35 107.95 196.5 107.15 L196.0 106.95 Q199.65 112.9 202.1 116.3 202.2 117.45 201.9 118.35 L201.75 118.85 201.65 121.9 201.5 122.35 201.65 124.95 Q200.15 123.45 198.45 122.35 198.15 121.65 197.65 121.5 L195.85 120.85" fill="#e6dbb3" fill-rule="evenodd" stroke="none"/>
    <path d="M182.0 114.5 L171.05 111.7 Q149.75 104.3 132.6 82.25 L132.75 81.8 158.4 87.1 Q161.2 93.8 165.6 100.5 171.55 108.8 182.0 114.5" fill="#b38644" fill-rule="evenodd" stroke="none"/>
    <path d="M198.45 122.35 Q197.2 121.35 195.85 120.85 190.3 118.95 185.35 116.7 L182.0 114.5 Q171.55 108.8 165.6 100.5 161.2 93.8 158.4 87.1 155.25 79.8 154.4 73.25 153.2 60.4 156.7 63.7 L181.45 86.35 Q198.9 101.75 204.65 108.95 L204.5 109.4 M197.65 121.5 L195.85 120.85" fill="none" stroke="#000000" stroke-linecap="round" stroke-linejoin="round" stroke-opacity="0.24313726" stroke-width="0.05"/>
    <path d="M181.0 139.55 L180.85 140.0 Q178.05 143.7 170.95 144.85 L168.25 144.95 163.0 145.2 156.55 144.45 154.5 144.3 157.35 142.15 154.5 144.3 146.65 143.1 152.15 137.75 146.65 143.1 Q138.0 141.15 134.9 139.55 L130.65 137.0 130.15 136.85 133.7 137.05 Q133.9 136.55 134.35 136.75 128.8 134.8 126.85 131.55 127.0 131.1 123.5 127.8 125.7 125.95 127.35 125.5 131.15 123.7 141.85 122.8 L143.65 123.45 Q143.2 121.7 140.6 118.75 L145.1 119.3 164.2 126.95 163.4 126.2 Q159.95 121.3 158.25 120.2 L159.15 120.55 Q168.1 124.65 174.15 132.5 176.95 135.05 178.3 137.05 180.0 138.15 181.0 139.55 M147.65 123.75 L143.65 123.45 147.65 123.75" fill="#c1a846" fill-rule="evenodd" stroke="none"/>
    <path d="M194.9 144.4 Q188.6 143.25 184.4 141.8 L181.5 139.7 181.0 139.55 180.85 140.0 Q178.05 143.7 170.95 144.85 L168.25 144.95 163.0 145.2 156.55 144.45 154.5 144.3 147.3 150.1 M181.0 139.55 Q180.0 138.15 178.3 137.05 176.95 135.05 174.15 132.5 168.1 124.65 159.15 120.55 L158.25 120.2 Q159.95 121.3 163.4 126.2 L164.2 126.95 145.1 119.3 140.6 118.75 Q143.2 121.7 143.65 123.45 L147.65 123.75 M157.35 142.15 L154.5 144.3 146.65 143.1 Q145.4 143.7 143.8 145.25 M152.15 137.75 L146.65 143.1 Q138.0 141.15 134.9 139.55 L130.65 137.0 130.15 136.85 133.7 137.05 Q133.9 136.55 134.35 136.75 128.8 134.8 126.85 131.55 127.0 131.1 123.5 127.8 125.7 125.95 127.35 125.5 131.15 123.7 141.85 122.8 L143.65 123.45" fill="none" stroke="#000000" stroke-linecap="round" stroke-linejoin="round" stroke-opacity="0.24313726" stroke-width="0.05"/>
    <path d="M235.95 86.15 L239.65 102.5 239.95 101.55 Q241.25 96.3 241.45 94.3 L241.9 94.45 Q243.15 104.2 240.4 113.65 238.9 119.35 238.55 123.35 233.45 123.1 228.6 117.8 223.6 111.4 220.65 106.25 222.7 104.9 219.3 104.2 L216.2 96.9 215.7 95.15 Q212.9 88.5 212.45 85.2 211.85 82.45 212.05 80.4 213.15 81.8 213.7 83.05 L214.2 83.25 Q213.05 77.65 214.6 74.6 L215.5 69.15 Q217.8 69.95 219.45 71.05 222.85 73.3 229.85 81.45 L230.75 83.3 235.95 86.15 230.75 83.3 Q231.7 82.1 232.5 78.25 L234.8 82.1 235.95 86.15 M223.9 98.5 L216.2 96.9 223.9 98.5" fill="#ffffff" fill-rule="evenodd" stroke="none"/>
    <path d="M241.45 94.3 Q241.25 96.3 239.95 101.55 L239.65 102.5 235.95 86.15 230.75 83.3 229.85 81.45 Q222.85 73.3 219.45 71.05 217.8 69.95 215.5 69.15 L214.6 74.6 Q213.05 77.65 214.2 83.25 L213.7 83.05 Q213.15 81.8 212.05 80.4 211.85 82.45 212.45 85.2 212.9 88.5 215.7 95.15 L216.2 96.9 223.9 98.5 M241.9 94.45 Q241.45 94.3 241.6 93.8 L241.45 94.3 M216.2 96.9 L219.3 104.2 Q222.7 104.9 220.65 106.25 223.6 111.4 228.6 117.8 233.45 123.1 238.55 123.35 238.9 119.35 240.4 113.65 243.15 104.2 241.9 94.45 M242.5 137.15 Q239.55 130.95 238.35 126.9 L238.55 123.35 M220.65 106.25 L220.2 106.1 Q220.1 104.95 219.3 104.2 L211.0 101.3 M235.95 86.15 L234.8 82.1 232.5 78.25 Q231.7 82.1 230.75 83.3" fill="none" stroke="#000000" stroke-linecap="round" stroke-linejoin="round" stroke-opacity="0.24313726" stroke-width="0.05"/>
    <path d="M228.15 154.45 Q217.3 155.85 210.4 153.4 L209.0 154.5 Q222.5 161.8 223.85 162.3 L209.55 157.3 Q220.6 167.35 222.2 171.55 L217.6 169.95 214.65 169.45 209.1 167.5 205.9 166.35 Q192.2 159.55 181.8 150.75 L178.3 147.45 170.55 138.5 167.3 134.25 162.6 126.95 171.7 132.2 178.3 135.5 Q197.65 145.4 218.65 150.65 223.75 152.4 228.15 154.45" fill="#e6dbb3" fill-rule="evenodd" stroke="none"/>
    <path d="M209.1 167.5 L180.45 160.6 Q158.25 152.85 152.8 146.3 L178.3 147.45 181.8 150.75 Q192.2 159.55 205.9 166.35 L209.1 167.5" fill="#8d6a36" fill-rule="evenodd" stroke="none"/>
    <path d="M222.2 171.55 L217.6 169.95 214.65 169.45 209.1 167.5 205.9 166.35 Q192.2 159.55 181.8 150.75 M178.3 147.45 L170.55 138.5 167.3 134.25 162.6 126.95 171.7 132.2 178.3 135.5 Q197.65 145.4 218.65 150.65 223.75 152.4 228.15 154.45" fill="none" stroke="#000000" stroke-linecap="round" stroke-linejoin="round" stroke-opacity="0.24313726" stroke-width="0.05"/>
  </g>
</svg>
