<?xml version="1.0" encoding="UTF-8" standalone="no"?>
<svg xmlns:xlink="http://www.w3.org/1999/xlink" height="40.35px" width="37.05px" xmlns="http://www.w3.org/2000/svg">
  <g transform="matrix(1.0, 0.0, 0.0, 1.0, 18.5, 20.15)">
    <path d="M14.85 2.45 L14.95 2.85 15.25 5.35 15.05 8.0 13.6 8.75 13.1 9.05 13.6 10.5 13.7 11.95 13.7 12.0 13.2 12.9 12.4 13.35 12.3 13.4 12.35 13.25 12.5 12.7 12.25 13.25 12.2 13.25 12.15 13.05 11.25 11.45 11.1 11.25 8.8 12.3 7.65 12.85 7.9 15.55 Q8.25 16.6 8.5 16.85 L5.7 17.45 5.1 15.85 5.1 15.75 4.5 15.75 Q2.5 16.05 2.2 16.25 L0.8 13.2 0.6 13.45 Q-0.65 12.1 -1.45 11.9 L-1.75 11.15 -2.05 9.75 -2.5 8.95 -2.6 9.95 -2.55 11.3 -2.45 11.9 Q-2.9 11.95 -3.25 12.15 -4.7 12.75 -4.3 14.85 -4.2 15.7 -5.3 16.35 L-5.85 16.7 -6.1 16.9 -6.4 16.15 -6.4 16.3 -6.2 16.95 -5.7 18.1 -5.75 18.1 -5.9 18.05 -6.05 18.1 -5.5 18.9 -5.6 19.55 -7.15 19.7 -7.5 19.4 -8.95 18.0 -9.0 18.0 -8.15 19.5 -8.65 19.0 -8.7 18.95 -8.7 19.0 -8.5 19.35 -8.25 19.8 -8.2 19.95 -8.5 20.2 -8.75 19.9 -9.65 18.45 -9.65 18.35 -10.15 18.0 -10.9 17.4 -11.15 17.15 Q-13.25 15.2 -14.3 12.35 L-14.5 11.8 -14.95 10.1 Q-15.55 6.85 -14.5 3.6 L-13.6 1.4 Q-10.85 -4.15 -4.9 -6.45 1.05 -8.8 6.7 -6.6 11.15 -4.85 13.4 -1.05 L14.4 1.05 14.85 2.45" fill="#6c331c" fill-opacity="0.9019608" fill-rule="evenodd" stroke="none"/>
    <path d="M-0.7 -10.0 Q-0.4 -10.0 0.55 -11.3 L0.7 -11.55 Q1.8 -13.1 2.0 -14.15 L2.3 -14.05 2.8 -13.95 2.8 -13.65 1.9 -11.6 1.9 -11.4 2.35 -11.35 2.8 -11.95 3.4 -13.4 3.7 -14.5 4.5 -14.6 4.45 -14.2 3.3 -11.3 3.45 -11.15 3.9 -11.75 4.4 -12.5 4.7 -12.7 5.3 -12.7 5.2 -12.4 Q4.8 -11.8 4.75 -11.4 L3.9 -10.0 Q2.95 -8.75 1.7 -8.7 L-0.7 -10.0" fill="#eb7e36" fill-rule="evenodd" stroke="none"/>
    <path d="M-0.7 -10.0 Q-0.4 -10.0 0.55 -11.3 L0.7 -11.55 Q1.8 -13.1 2.0 -14.15 L2.3 -14.05 2.8 -13.95 2.8 -13.65 1.9 -11.6 1.9 -11.4 2.35 -11.35 2.8 -11.95 3.4 -13.4 3.7 -14.5 4.5 -14.6 4.45 -14.2 M5.3 -12.7 L5.2 -12.4" fill="none" stroke="#000000" stroke-linecap="round" stroke-linejoin="round" stroke-opacity="0.24313726" stroke-width="0.05"/>
    <path d="M7.15 -10.35 Q9.35 -11.05 10.65 -14.8 11.5 -17.3 11.5 -18.15 L11.75 -17.95 12.05 -17.1 Q12.25 -15.35 11.15 -12.1 10.2 -9.25 8.65 -8.2 7.75 -7.9 3.85 -9.2 L5.85 -10.8 Q7.0 -12.2 7.5 -13.65 L8.35 -16.75 8.9 -19.4 Q9.7 -17.2 8.4 -13.4 L7.55 -11.25 7.15 -10.35" fill="#eb7e36" fill-rule="evenodd" stroke="none"/>
    <path d="M8.9 -19.4 Q9.7 -17.2 8.4 -13.4 L7.55 -11.25 7.15 -10.35" fill="none" stroke="#000000" stroke-linecap="round" stroke-linejoin="round" stroke-opacity="0.24313726" stroke-width="0.05"/>
    <path d="M11.95 -6.65 L12.55 -6.1 13.05 -5.5 14.25 -4.05 14.45 -3.75 15.2 -2.55 15.4 -2.25 15.9 -1.35 15.05 -2.35 13.2 -4.35 10.15 -6.85 8.6 -8.05 7.5 -8.95 7.15 -9.2 7.1 -9.15 5.1 -10.1 5.0 -10.1 4.5 -10.3 3.45 -10.7 2.5 -10.9 2.5 -10.95 4.75 -10.6 5.2 -10.45 5.95 -10.25 6.3 -10.1 Q7.85 -9.55 9.15 -8.8 L10.4 -8.0 10.45 -7.55 10.55 -7.25 Q10.75 -6.95 11.3 -6.85 L11.85 -6.8 11.95 -6.65" fill="#b15212" fill-rule="evenodd" stroke="none"/>
    <path d="M2.5 -10.95 L2.5 -10.9 3.45 -10.7 4.5 -10.3 5.0 -10.05 3.2 -9.45 Q1.65 -8.9 0.7 -8.25 L-1.15 -6.75 Q-1.15 -7.95 -0.35 -8.65 -4.6 -6.05 -5.4 -4.85 L-4.85 -6.7 -4.85 -6.85 -4.85 -7.0 -4.8 -7.45 -4.35 -10.05 -0.65 -10.85 1.8 -11.0 2.2 -10.95 2.5 -10.95 M5.1 -10.1 L7.1 -9.15 7.15 -9.2 7.5 -8.95 8.6 -8.05 10.15 -6.85 13.2 -4.35 15.05 -2.35 15.9 -1.35 16.55 -0.2 16.65 1.1 17.1 1.4 17.4 1.5 18.55 4.25 18.55 4.35 18.1 7.2 18.0 7.2 17.95 7.2 17.7 5.85 17.45 4.75 17.0 4.95 16.85 5.05 16.75 5.1 16.4 5.3 15.85 4.5 15.45 3.85 15.25 3.25 15.15 3.35 15.3 3.75 15.55 4.35 15.9 5.3 16.0 5.55 15.85 5.6 16.15 7.0 16.2 7.05 16.0 7.5 15.9 7.65 15.75 7.9 15.7 7.85 15.5 7.4 14.75 6.4 14.4 5.95 14.0 5.45 13.9 5.35 13.85 5.3 13.85 5.35 13.9 5.5 13.85 5.4 11.25 2.0 12.3 4.3 12.85 5.9 13.05 6.8 10.55 3.55 10.5 3.55 12.7 8.15 12.5 7.8 12.0 7.25 11.75 7.15 11.55 7.1 10.9 7.65 10.55 7.9 10.5 7.85 8.2 2.7 8.05 2.45 Q6.55 -0.55 3.65 -3.5 L7.15 1.85 7.55 2.6 Q9.0 5.3 9.75 7.7 L9.95 8.4 8.7 9.15 Q8.7 9.7 9.4 11.35 L9.9 12.45 10.4 13.7 10.4 13.9 10.35 13.9 6.05 4.9 6.25 5.75 7.65 9.7 8.5 12.75 6.6 8.05 6.85 10.1 6.85 10.5 6.8 10.5 4.95 6.7 Q5.25 8.45 6.3 10.85 L4.65 8.0 Q4.8 9.9 6.75 13.95 L6.5 13.95 Q4.45 11.75 3.2 8.1 L3.05 7.6 3.15 8.15 3.6 9.75 5.55 14.1 5.4 14.1 4.9 14.15 3.25 11.3 3.1 11.05 3.05 10.95 2.55 10.05 2.45 9.9 Q2.8 9.6 2.75 9.0 L2.6 8.55 2.3 8.15 1.9 7.65 1.95 7.55 1.95 7.05 Q1.9 6.2 1.4 6.0 L0.3 5.85 -1.8 1.1 -2.1 0.3 -2.1 0.2 -2.1 0.15 -2.65 -2.0 -2.05 0.15 -2.0 0.25 -0.25 0.05 1.3 0.25 2.3 0.25 Q2.3 -0.6 1.0 -3.65 L1.0 -3.85 1.05 -3.9 1.0 -4.0 1.0 -4.35 1.8 -4.35 Q2.95 -2.0 4.7 0.85 L5.5 0.85 Q3.85 -2.15 3.05 -4.7 L3.05 -4.75 3.1 -4.75 6.75 -0.85 9.3 -2.15 9.35 -2.2 9.4 -2.25 12.85 -2.75 10.0 -5.95 Q7.2 -8.85 5.05 -10.05 L5.1 -10.1 M-5.5 -4.25 L-5.5 -3.8 Q-5.5 -1.15 -4.7 -0.85 L-4.2 -0.85 Q-4.45 -1.4 -3.85 -2.8 L-3.1 -4.25 -3.0 -4.05 -2.9 -2.95 -3.1 -1.2 -3.2 -0.7 Q-3.2 2.55 -1.7 9.35 L-3.75 4.1 -4.55 1.15 -3.2 8.25 Q-5.7 3.65 -5.7 -1.4 L-5.55 -3.85 -5.5 -4.25 M13.05 -1.05 L12.75 -1.3 13.0 -1.0 13.05 -1.05" fill="#a34a10" fill-rule="evenodd" stroke="none"/>
    <path d="M15.45 3.85 L15.15 3.35 15.25 3.25 15.45 3.85 M-5.6 16.95 L-5.7 17.0 -5.95 16.75 -6.85 17.3 -7.5 17.3 -7.8 16.85 -7.8 16.7 Q-7.85 15.3 -8.45 12.5 L-8.45 12.25 Q-7.95 13.3 -7.6 15.65 L-7.55 15.85 -7.8 13.45 -7.1 16.2 -7.8 12.05 -7.8 11.8 -7.7 10.25 -5.65 16.4 -5.6 16.95 M-10.2 -3.85 L-10.25 -3.95 -10.2 -3.95 -10.2 -3.85 M13.9 5.5 L13.85 5.35 13.95 5.5 14.15 5.85 13.9 5.5" fill="#8b400e" fill-rule="evenodd" stroke="none"/>
    <path d="M17.85 7.3 L17.45 7.35 16.85 5.05 17.0 4.95 17.45 4.75 17.7 5.85 17.95 7.2 17.95 7.25 17.85 7.25 17.85 7.3 M8.05 15.2 L7.05 15.4 6.05 14.0 6.5 13.95 6.75 13.95 6.85 13.95 7.7 14.75 8.15 15.2 8.05 15.2" fill="#e9c796" fill-rule="evenodd" stroke="none"/>
    <path d="M4.5 -10.3 L5.0 -10.1 5.1 -10.1 5.05 -10.05 5.0 -10.05 4.5 -10.3 M8.7 15.05 L8.4 15.15 8.15 15.2 7.7 14.75 6.85 13.95 6.75 13.95 Q4.8 9.9 4.65 8.0 L6.3 10.85 8.7 15.05 M6.05 14.0 L5.55 14.1 3.6 9.75 3.15 8.15 3.05 7.6 3.2 8.1 Q4.45 11.75 6.5 13.95 L6.05 14.0 M4.9 14.15 L4.25 14.2 4.1 14.25 4.1 14.2 3.55 12.5 3.2 11.35 3.05 11.1 2.95 11.0 1.9 11.1 1.85 11.1 1.8 10.5 2.2 10.15 2.45 9.9 2.55 10.05 3.05 10.95 3.1 11.05 3.25 11.3 4.9 14.15 M-1.1 8.1 L-0.9 8.85 Q-0.85 9.3 -1.35 9.7 -1.85 10.05 -2.35 10.1 L-2.45 10.05 -2.55 10.0 -3.1 9.35 Q-3.6 8.6 -4.05 8.6 -5.2 8.6 -5.35 9.7 L-5.4 10.6 -5.4 10.65 -5.45 10.65 -6.5 11.25 -6.0 -6.05 -6.55 -4.9 -6.55 -4.45 -6.75 -4.15 -7.15 -3.2 -6.7 11.4 -6.75 11.55 -6.65 11.95 -6.45 12.75 -6.25 13.5 -6.2 13.75 -5.85 15.35 -5.8 15.5 -5.65 16.4 -7.7 10.25 -7.8 11.8 -7.8 12.05 -9.1 4.15 -9.0 -0.6 Q-9.05 -1.65 -9.1 -1.0 L-9.95 3.8 -9.85 4.8 -9.85 4.85 -7.8 13.45 -7.55 15.85 -7.6 15.65 Q-7.95 13.3 -8.45 12.25 L-8.45 12.5 Q-7.85 15.3 -7.8 16.7 L-7.8 16.85 -7.9 16.6 -7.9 16.55 Q-8.7 14.65 -10.1 8.5 -8.85 16.85 -8.15 17.35 L-8.3 17.4 -9.55 17.45 -10.2 16.25 -10.8 15.05 -10.95 15.05 -11.0 15.05 -11.1 15.15 -11.2 15.4 -10.9 17.3 -10.8 17.8 Q-11.85 14.0 -12.2 10.5 L-12.5 7.85 -12.45 5.15 -12.3 2.4 -12.0 -0.2 -13.8 3.1 -13.8 3.3 Q-13.75 4.3 -14.1 5.2 L-14.35 5.8 -14.55 6.25 -14.7 6.6 -14.8 6.85 Q-15.05 7.55 -15.75 7.85 L-15.5 6.85 Q-15.25 6.1 -15.3 4.45 L-15.2 1.45 -14.15 2.45 -13.9 2.75 -13.9 2.85 -13.85 2.85 Q-13.4 0.05 -11.05 -4.75 L-9.6 -7.45 Q-7.45 -9.15 -4.6 -10.0 L-4.45 -10.05 -4.35 -10.05 -4.8 -7.45 -4.85 -7.0 -4.85 -6.85 -4.85 -6.7 -5.4 -4.85 -5.5 -4.25 -5.55 -3.85 -5.7 -1.4 Q-5.7 3.65 -3.2 8.25 L-4.55 1.15 -3.75 4.1 -1.7 9.35 Q-3.2 2.55 -3.2 -0.7 L-3.1 -1.2 -2.9 -2.95 -2.8 -3.75 -2.65 -2.0 -2.1 0.15 -2.1 0.2 -2.1 0.3 -1.8 1.1 0.3 5.85 -0.45 6.4 Q-1.2 7.1 -1.15 7.8 L-1.1 8.1 M-10.35 19.2 L-10.4 19.3 -10.5 18.95 -10.35 19.2 M-14.65 14.5 Q-15.5 11.2 -15.75 7.85 -15.05 7.55 -14.8 6.85 L-14.7 6.6 -14.55 6.25 -14.9 8.2 -15.2 8.7 -14.5 14.45 -14.65 14.5 M-10.2 -3.85 L-10.2 -3.95 -10.25 -3.95 -10.2 -3.85 M-13.8 3.1 L-13.85 2.9 -13.9 2.85 -13.85 2.9 -13.8 3.1 M-10.6 4.05 L-10.65 5.0 Q-11.3 6.35 -11.25 7.95 L-11.1 10.7 -11.0 11.8 Q-10.75 13.85 -9.9 15.55 L-10.6 4.05 M9.35 -2.2 L9.1 -2.55 9.4 -2.25 9.35 -2.2 M1.0 -4.0 L1.05 -3.9 1.0 -3.85 0.95 -4.0 0.9 -4.15 1.0 -4.0 M13.05 -1.05 L13.0 -1.0 12.75 -1.3 13.05 -1.05" fill="#4e2307" fill-rule="evenodd" stroke="none"/>
    <path d="M-6.7 11.4 L-7.15 -3.2 -6.75 -4.15 -6.55 -4.45 -6.55 -4.9 -6.0 -6.05 -6.5 11.25 -6.7 11.4 M-7.8 13.45 L-9.85 4.85 -9.85 4.8 -9.95 3.8 -9.1 -1.0 Q-9.05 -1.65 -9.0 -0.6 L-9.1 4.15 -7.8 12.05 -7.1 16.2 -7.8 13.45 M-14.35 5.8 L-14.3 13.65 -14.5 14.45 -15.2 8.7 -14.9 8.2 -14.55 6.25 -14.35 5.8 M-10.6 4.05 L-9.9 15.55 Q-10.75 13.85 -11.0 11.8 L-11.1 10.7 -11.25 7.95 Q-11.3 6.35 -10.65 5.0 L-10.6 4.05 M-13.4 9.0 L-12.8 2.1 -12.9 14.35 -13.4 9.0" fill="#3e1c06" fill-rule="evenodd" stroke="none"/>
    <path d="M-10.4 19.3 Q-11.3 19.55 -13.7 17.55 L-14.65 14.5 -14.5 14.45 -14.3 13.65 -14.35 5.8 -14.1 5.2 Q-13.75 4.3 -13.8 3.3 L-13.8 3.1 -12.0 -0.2 -12.3 2.4 -12.45 5.15 -12.5 7.85 -12.2 10.5 Q-11.85 14.0 -10.8 17.8 L-10.8 17.9 -10.5 18.95 -10.4 19.3 M-15.2 1.45 Q-14.55 -1.1 -13.15 -3.4 -11.7 -5.85 -9.6 -7.45 L-11.05 -4.75 Q-13.4 0.05 -13.85 2.85 L-13.9 2.85 -13.9 2.75 -14.15 2.45 -15.2 1.45 M-13.4 9.0 L-12.9 14.35 -12.8 2.1 -13.4 9.0" fill="#361805" fill-rule="evenodd" stroke="none"/>
    <path d="M14.9 7.8 L15.25 8.7 14.1 9.5 13.95 9.55 13.4 9.65 13.3 9.45 13.1 8.9 12.85 8.35 12.7 8.15 10.5 3.55 10.55 3.55 13.05 6.8 12.85 5.9 12.3 4.3 11.25 2.0 13.85 5.4 13.9 5.5 14.15 5.85 14.15 5.9 14.2 5.95 14.9 7.8 M10.35 13.9 L10.3 13.95 10.05 14.2 9.0 14.9 8.7 15.05 6.3 10.85 Q5.25 8.45 4.95 6.7 L6.8 10.5 6.85 10.5 6.85 10.1 6.6 8.05 8.5 12.75 7.65 9.7 6.25 5.75 6.05 4.9 10.35 13.9 M5.0 -10.05 L5.05 -10.05 Q7.2 -8.85 10.0 -5.95 L12.85 -2.75 9.4 -2.25 9.1 -2.55 9.35 -2.2 9.3 -2.15 6.75 -0.85 3.1 -4.75 3.05 -4.75 3.05 -4.7 Q3.85 -2.15 5.5 0.85 L4.7 0.85 Q2.95 -2.0 1.8 -4.35 L1.0 -4.35 1.0 -4.0 0.9 -4.15 0.95 -4.0 1.0 -3.85 1.0 -3.65 Q2.3 -0.6 2.3 0.25 L1.3 0.25 -0.25 0.05 -2.0 0.25 -2.05 0.15 -2.65 -2.0 -2.8 -3.75 -2.9 -2.95 -3.0 -4.05 -3.1 -4.25 -3.85 -2.8 Q-4.45 -1.4 -4.2 -0.85 L-4.7 -0.85 Q-5.5 -1.15 -5.5 -3.8 L-5.5 -4.25 -5.4 -4.85 Q-4.6 -6.05 -0.35 -8.65 -1.15 -7.95 -1.15 -6.75 L0.7 -8.25 Q1.65 -8.9 3.2 -9.45 L5.0 -10.05" fill="#c95c14" fill-rule="evenodd" stroke="none"/>
    <path d="M10.5 7.85 L9.75 7.7 Q9.0 5.3 7.55 2.6 L7.15 1.85 3.65 -3.5 Q6.55 -0.55 8.05 2.45 L8.2 2.7 10.5 7.85 M-7.9 16.55 L-7.95 16.6 -8.15 17.35 Q-8.85 16.85 -10.1 8.5 -8.7 14.65 -7.9 16.55" fill="#371a0d" fill-rule="evenodd" stroke="none"/>
    <path d="M13.85 5.3 L13.9 5.35 14.0 5.45 13.95 5.5 13.85 5.35 13.85 5.3" fill="#d99e48" fill-rule="evenodd" stroke="none"/>
    <path d="M15.7 7.85 L15.05 7.8 14.9 7.8 14.2 5.95 14.15 5.9 14.15 5.85 13.95 5.5 14.0 5.45 14.4 5.95 14.75 6.4 15.5 7.4 15.7 7.85" fill="#b77c26" fill-rule="evenodd" stroke="none"/>
    <path d="M13.3 9.45 L13.0 9.8 11.95 9.75 11.85 8.7 10.9 7.65 11.55 7.1 11.75 7.15 12.0 7.25 12.5 7.8 12.7 8.15 12.85 8.35 13.1 8.9 13.3 9.45 M1.1 11.8 L1.05 11.8 1.0 11.8 0.8 11.25 0.55 10.45 0.6 10.4 1.1 9.85 1.2 9.8 1.3 9.45 1.3 9.25 1.25 8.8 0.85 8.6 1.4 8.0 1.85 7.55 1.9 7.65 2.3 8.15 2.6 8.55 2.75 9.0 Q2.8 9.6 2.45 9.9 L2.2 10.15 1.8 10.5 1.85 11.1 1.85 11.15 Q1.75 11.2 1.6 11.35 L1.1 11.8 M-5.1 12.15 L-4.25 15.5 -4.9 15.45 -5.6 16.95 -5.65 16.4 -5.8 15.5 -5.85 15.35 -6.2 13.75 -5.1 12.15" fill="#ffffff" fill-rule="evenodd" stroke="none"/>
    <path d="M1.95 12.45 L1.65 12.0 1.1 11.8 1.6 11.35 Q1.75 11.2 1.85 11.15 L1.9 11.1 2.95 11.0 3.05 11.1 1.95 12.45 M0.85 8.55 Q0.45 7.4 -0.5 7.4 L-0.8 7.45 -1.1 8.1 -1.15 7.8 Q-1.2 7.1 -0.45 6.4 L0.3 5.85 1.4 6.0 Q1.9 6.2 1.95 7.05 L1.95 7.55 1.85 7.55 1.4 8.0 0.85 8.6 0.85 8.55 M-2.55 10.0 L-3.4 9.8 Q-3.8 9.8 -4.1 10.45 L-4.0 10.9 -4.4 11.1 -5.25 11.45 -5.4 10.95 -5.4 10.7 -5.4 10.65 -5.4 10.6 -5.35 9.7 Q-5.2 8.6 -4.05 8.6 -3.6 8.6 -3.1 9.35 L-2.55 10.0 M-10.95 15.05 L-9.9 18.5 -10.35 19.2 -10.5 18.95 -10.8 17.9 -10.8 17.8 -10.9 17.3 -11.2 15.4 -11.1 15.15 -11.0 15.05 -10.95 15.05" fill="#cb8a2c" fill-rule="evenodd" stroke="none"/>
    <path d="M4.1 14.25 L3.5 14.1 2.95 14.25 2.65 14.25 2.1 12.85 1.95 12.45 3.05 11.1 3.2 11.35 3.55 12.5 4.1 14.2 4.1 14.25" fill="#efd6b1" fill-rule="evenodd" stroke="none"/>
    <path d="M15.7 7.9 L15.7 7.85 15.75 7.9 15.7 7.9 M-5.45 10.65 L-5.4 10.65 -5.4 10.7 -5.45 10.65" fill="#421913" fill-rule="evenodd" stroke="none"/>
    <path d="M-5.25 11.45 L-5.1 12.15 -6.2 13.75 -6.25 13.5 -6.45 12.75 -6.65 11.95 -6.75 11.55 -6.7 11.4 -6.5 11.25 -5.45 10.65 -5.4 10.95 -5.25 11.45" fill="#daa250" fill-rule="evenodd" stroke="none"/>
    <path d="M17.95 7.3 L17.85 7.3 17.85 7.25 17.95 7.3 M17.95 7.25 L17.95 7.2 17.95 7.25" fill="#e7ce6d" fill-rule="evenodd" stroke="none"/>
    <path d="M11.95 -6.65 L11.85 -6.8 11.3 -6.85 Q10.75 -6.95 10.55 -7.25 L10.45 -7.55 10.4 -8.0 9.15 -8.8 Q7.85 -9.55 6.3 -10.1 L5.95 -10.25 5.2 -10.45 4.75 -10.6 2.5 -10.95 2.2 -10.95 1.8 -11.0 -0.65 -10.85 -4.35 -10.05 -4.45 -10.05 -4.6 -10.0 Q-7.45 -9.15 -9.6 -7.45 -11.7 -5.85 -13.15 -3.4 -14.55 -1.1 -15.2 1.45 L-14.15 2.45 -13.9 2.75 -13.9 2.85 -13.85 2.9 -13.8 3.1 -13.8 3.3 Q-13.75 4.3 -14.1 5.2 L-14.35 5.8 -14.55 6.25 -14.7 6.6 -14.8 6.85 Q-15.05 7.55 -15.75 7.85 L-15.5 6.85 Q-15.25 6.1 -15.3 4.45 L-15.2 1.45 M15.9 -1.35 L16.55 -0.2 Q16.95 1.05 17.4 1.5 L18.55 4.25 18.55 4.35 18.1 7.2 18.0 7.25 17.95 7.3 17.85 7.3 17.45 7.35 16.85 5.05 16.75 5.1 16.4 5.3 15.85 4.5 15.45 3.85 15.15 3.35 15.3 3.75 15.55 4.35 15.9 5.3 M16.0 5.55 L15.85 5.6 16.15 7.0 16.2 7.05 16.0 7.5 15.9 7.65 15.75 7.9 15.75 7.95 15.7 7.9 15.7 7.85 15.05 7.8 14.9 7.8 15.25 8.7 14.1 9.5 13.95 9.55 13.4 9.65 13.3 9.45 13.0 9.8 11.95 9.75 11.85 8.7 10.9 7.65 10.55 7.9 10.55 7.95 10.5 7.85 9.75 7.7 9.95 8.4 8.7 9.15 Q8.7 9.7 9.4 11.35 L9.9 12.45 10.4 13.7 10.4 13.9 10.35 13.9 M10.3 13.95 L10.05 14.2 9.0 14.9 8.7 15.05 8.4 15.15 8.15 15.2 8.1 15.25 8.05 15.2 7.05 15.4 6.05 14.0 5.55 14.1 5.4 14.1 4.9 14.15 4.25 14.2 4.1 14.25 3.5 14.1 2.95 14.25 2.65 14.25 2.1 12.85 1.95 12.45 1.65 12.0 1.1 11.8 1.05 11.8 1.0 11.8 0.8 11.25 0.55 10.45 0.6 10.4 1.1 9.85 1.2 9.8 1.3 9.45 1.3 9.25 1.25 8.8 0.85 8.6 0.85 8.55 Q0.45 7.4 -0.5 7.4 L-0.8 7.45 -1.1 8.1 -0.9 8.85 Q-0.85 9.3 -1.35 9.7 -1.85 10.05 -2.35 10.1 L-2.45 10.05 -2.55 10.0 -3.4 9.8 Q-3.8 9.8 -4.1 10.45 L-4.0 10.9 -4.4 11.1 -5.25 11.45 -5.1 12.15 -4.25 15.5 -4.9 15.45 -5.6 16.95 -5.7 17.0 -5.95 16.75 -6.85 17.3 -7.5 17.3 -7.8 16.85 -7.9 16.6 -7.9 16.55 -7.95 16.6 -8.15 17.35 -8.3 17.4 -9.55 17.45 -10.2 16.25 -10.8 15.05 -10.95 15.05 -9.9 18.5 -10.35 19.2 -10.4 19.3 Q-11.3 19.55 -13.7 17.55 L-14.65 14.5 Q-15.5 11.2 -15.75 7.85 M17.4 1.5 L17.1 1.4 16.65 1.1 16.55 -0.2 M16.85 5.05 L17.0 4.95 17.45 4.75 17.7 5.85 17.95 7.2 18.0 7.2 18.0 7.25 17.95 7.25 17.85 7.25 17.95 7.3 M-6.5 11.25 L-5.45 10.65 -5.4 10.95 -5.4 10.7 -5.4 10.65 -5.4 10.6 -5.35 9.7 Q-5.2 8.6 -4.05 8.6 -3.6 8.6 -3.1 9.35 L-2.55 10.0 M-5.65 16.4 L-5.8 15.5 -5.85 15.35 -6.2 13.75 -6.25 13.5 -6.45 12.75 -6.65 11.95 -6.75 11.55 -6.7 11.4 -6.5 11.25 M-10.8 17.8 L-10.9 17.3 -11.2 15.4 -11.1 15.15 -11.0 15.05 -10.95 15.05 M0.3 5.85 L1.4 6.0 Q1.9 6.2 1.95 7.05 L1.95 7.55 1.9 7.65 2.3 8.15 2.6 8.55 2.75 9.0 Q2.8 9.6 2.45 9.9 L2.2 10.15 1.8 10.5 1.85 11.1 1.9 11.1 2.95 11.0 3.05 11.1 3.2 11.35 3.55 12.5 4.1 14.2 4.1 14.25 M9.75 7.7 Q9.0 5.3 7.55 2.6 L7.15 1.85 3.65 -3.5 Q6.55 -0.55 8.05 2.45 L8.2 2.7 10.5 7.85 M13.85 5.35 L13.85 5.3 13.9 5.35 14.0 5.45 14.4 5.95 14.75 6.4 15.5 7.4 15.7 7.85 M13.95 5.5 L13.85 5.35 M14.2 5.95 L14.9 7.8 M12.7 8.15 L12.85 8.35 13.1 8.9 13.3 9.45 M10.9 7.65 L11.55 7.1 11.75 7.15 12.0 7.25 12.5 7.8 12.7 8.15 M6.75 13.95 L6.85 13.95 7.7 14.75 8.15 15.2 8.4 15.15 M6.5 13.95 L6.75 13.95 M6.05 14.0 L6.5 13.95 M8.05 15.2 L8.15 15.2 M1.85 7.55 L1.4 8.0 0.85 8.6 M1.85 7.55 L1.95 7.55 M-1.1 8.1 L-1.15 7.8 Q-1.2 7.1 -0.45 6.4 L0.3 5.85 M1.85 11.15 Q1.75 11.2 1.6 11.35 L1.1 11.8 M1.9 11.1 L1.85 11.15 M1.85 11.1 L1.9 11.1 M-5.25 11.45 L-5.4 10.95 M-5.6 16.95 L-5.65 16.4 M-8.15 17.35 Q-8.85 16.85 -10.1 8.5 -8.7 14.65 -7.9 16.55 M-10.35 19.2 L-10.5 18.95" fill="none" stroke="#000000" stroke-linecap="round" stroke-linejoin="round" stroke-opacity="0.24313726" stroke-width="0.05"/>
    <path d="M16.0 1.2 L14.45 -0.85 15.35 1.2 Q16.1 3.1 16.2 4.55 L16.2 5.65 Q16.15 4.5 13.5 0.7 L13.45 0.6 12.65 -1.05 11.4 -2.95 9.4 -6.3 13.0 -3.8 Q14.95 -2.15 16.0 1.2" fill="#de5f29" fill-rule="evenodd" stroke="none"/>
    <path d="M9.4 -6.3 L9.35 -6.35 9.4 -6.3" fill="#c48322" fill-rule="evenodd" stroke="none"/>
    <path d="M9.4 -6.3 L11.4 -2.95 12.65 -1.05 13.45 0.6 13.5 0.7 Q16.15 4.5 16.2 5.65 L16.2 4.55 Q16.1 3.1 15.35 1.2 L14.45 -0.85 16.0 1.2 M9.4 -6.3 L9.35 -6.35 9.4 -6.3 Z" fill="none" stroke="#000000" stroke-linecap="round" stroke-linejoin="round" stroke-opacity="0.24313726" stroke-width="0.05"/>
    <path d="M8.55 -4.65 Q8.9 -4.2 8.6 -3.8 8.3 -3.35 7.5 -3.15 6.7 -2.95 5.9 -3.15 5.05 -3.3 4.7 -3.75 4.35 -4.2 4.65 -4.65 4.95 -5.1 5.8 -5.25 6.55 -5.45 7.35 -5.25 8.15 -5.1 8.55 -4.65" fill="#150904" fill-rule="evenodd" stroke="none"/>
    <path d="M8.55 -4.65 Q8.15 -5.1 7.35 -5.25 6.55 -5.45 5.8 -5.25 4.95 -5.1 4.65 -4.65 4.35 -4.2 4.7 -3.75 5.05 -3.3 5.9 -3.15 6.7 -2.95 7.5 -3.15 8.3 -3.35 8.6 -3.8 8.9 -4.2 8.55 -4.65 L8.6 -4.65 8.55 -4.7 8.55 -4.65 M9.6 -3.25 Q9.1 -2.55 7.85 -2.25 6.6 -2.0 5.35 -2.25 4.05 -2.55 3.5 -3.2 2.9 -3.9 3.4 -4.6 3.85 -5.3 5.15 -5.6 6.35 -5.9 7.65 -5.6 8.95 -5.3 9.5 -4.6 10.05 -3.95 9.6 -3.25" fill="#38140c" fill-rule="evenodd" stroke="none"/>
    <path d="M9.6 -3.25 Q9.1 -2.55 7.85 -2.25 6.6 -2.0 5.35 -2.25 4.05 -2.55 3.5 -3.2 2.9 -3.9 3.4 -4.6 3.85 -5.3 5.15 -5.6 6.35 -5.9 7.65 -5.6 8.95 -5.3 9.5 -4.6 10.05 -3.95 9.6 -3.25 Z" fill="none" stroke="#000000" stroke-linecap="round" stroke-linejoin="round" stroke-opacity="0.24313726" stroke-width="0.05"/>
    <path d="M1.15 -8.75 L2.5 -8.75 Q3.25 -8.6 3.6 -8.2 3.85 -7.85 3.6 -7.4 3.3 -7.05 2.7 -6.9 1.95 -6.7 1.3 -6.9 0.6 -7.05 0.2 -7.4 -0.1 -7.8 0.2 -8.2 0.45 -8.6 1.15 -8.75" fill="#150904" fill-rule="evenodd" stroke="none"/>
    <path d="M1.0 -8.9 Q1.9 -9.15 2.8 -8.9 3.75 -8.75 4.2 -8.2 4.55 -7.7 4.2 -7.25 3.85 -6.7 3.0 -6.55 2.05 -6.3 1.15 -6.55 0.2 -6.7 -0.15 -7.2 -0.55 -7.7 -0.2 -8.2 0.15 -8.75 1.0 -8.9 M1.15 -8.75 Q0.45 -8.6 0.2 -8.2 -0.1 -7.8 0.2 -7.4 0.6 -7.05 1.3 -6.9 1.95 -6.7 2.7 -6.9 3.3 -7.05 3.6 -7.4 3.85 -7.85 3.6 -8.2 3.25 -8.6 2.5 -8.75 L1.15 -8.75" fill="#38140c" fill-rule="evenodd" stroke="none"/>
    <path d="M1.0 -8.9 Q1.9 -9.15 2.8 -8.9 3.75 -8.75 4.2 -8.2 4.55 -7.7 4.2 -7.25 3.85 -6.7 3.0 -6.55 2.05 -6.3 1.15 -6.55 0.2 -6.7 -0.15 -7.2 -0.55 -7.7 -0.2 -8.2 0.15 -8.75 1.0 -8.9 M1.15 -8.75 L2.5 -8.75 Q3.25 -8.6 3.6 -8.2 3.85 -7.85 3.6 -7.4 3.3 -7.05 2.7 -6.9 1.95 -6.7 1.3 -6.9 0.6 -7.05 0.2 -7.4 -0.1 -7.8 0.2 -8.2 0.45 -8.6 1.15 -8.75 Z" fill="none" stroke="#000000" stroke-linecap="round" stroke-linejoin="round" stroke-opacity="0.24313726" stroke-width="0.05"/>
    <path d="M6.25 -8.35 Q6.5 -8.65 7.1 -8.65 L8.3 -8.4 9.15 -7.75 Q9.3 -7.35 9.05 -7.05 8.7 -6.75 8.15 -6.7 L7.0 -6.95 Q6.35 -7.25 6.15 -7.65 5.9 -8.0 6.25 -8.35" fill="#150904" fill-rule="evenodd" stroke="none"/>
    <path d="M7.05 -8.85 L8.6 -8.5 9.65 -7.65 Q9.85 -7.15 9.5 -6.75 9.1 -6.35 8.35 -6.35 L6.8 -6.65 Q6.0 -7.0 5.75 -7.5 5.5 -8.05 5.9 -8.4 6.25 -8.85 7.05 -8.85 M6.25 -8.35 Q5.9 -8.0 6.15 -7.65 6.35 -7.25 7.0 -6.95 L8.15 -6.7 Q8.7 -6.75 9.05 -7.05 9.3 -7.35 9.15 -7.75 L8.3 -8.4 7.1 -8.65 Q6.5 -8.65 6.25 -8.35" fill="#38140c" fill-rule="evenodd" stroke="none"/>
    <path d="M7.05 -8.85 L8.6 -8.5 9.65 -7.65 Q9.85 -7.15 9.5 -6.75 9.1 -6.35 8.35 -6.35 L6.8 -6.65 Q6.0 -7.0 5.75 -7.5 5.5 -8.05 5.9 -8.4 6.25 -8.85 7.05 -8.85 M6.25 -8.35 Q6.5 -8.65 7.1 -8.65 L8.3 -8.4 9.15 -7.75 Q9.3 -7.35 9.05 -7.05 8.7 -6.75 8.15 -6.7 L7.0 -6.95 Q6.35 -7.25 6.15 -7.65 5.9 -8.0 6.25 -8.35 Z" fill="none" stroke="#000000" stroke-linecap="round" stroke-linejoin="round" stroke-opacity="0.24313726" stroke-width="0.05"/>
    <path d="M-12.25 -7.1 L-11.0 -7.95 -10.1 -7.95 -8.55 -8.1 -8.4 -8.15 -8.2 -8.15 Q-9.4 -7.9 -10.4 -6.75 L-11.3 -5.4 -11.25 -5.35 -8.65 -6.9 -8.55 -6.9 -8.25 -7.0 -8.55 -6.9 -8.65 -6.9 -9.05 -6.8 Q-10.1 -6.55 -10.75 -6.15 L-9.75 -7.15 -9.7 -7.15 Q-8.6 -7.15 -6.2 -7.95 -6.75 -7.55 -6.9 -6.6 L-7.05 -5.7 -7.0 -5.5 -8.7 -3.9 Q-10.15 -2.3 -10.15 -1.2 L-10.15 -1.45 -9.95 -3.65 -10.0 -3.65 -9.9 -4.35 -9.5 -5.0 -10.65 -4.05 Q-11.9 -3.2 -12.6 -1.85 L-12.45 -2.6 -12.4 -2.95 -12.25 -3.95 -12.15 -4.4 -12.1 -4.35 -11.9 -5.05 -11.95 -5.0 Q-12.45 -5.4 -12.75 -5.25 -12.45 -5.4 -11.95 -5.0 -12.45 -4.8 -13.15 -4.2 L-14.8 -2.8 -13.8 -4.2 -12.75 -5.25 -13.15 -5.0 -12.0 -6.4 Q-13.85 -4.7 -14.9 -4.3 L-12.5 -6.9 -12.25 -7.1 M-7.05 -6.55 L-7.05 -6.4 -7.05 -5.7 -7.05 -6.4 -7.05 -6.55 -7.0 -7.25 -8.25 -7.0 Q-9.15 -5.75 -9.15 -4.9 L-9.1 -4.85 Q-8.25 -6.05 -7.05 -6.55 M-10.35 -8.3 L-10.45 -8.3 -10.65 -8.3 -11.95 -8.25 Q-11.15 -9.05 -9.3 -9.05 L-8.2 -8.9 -8.15 -8.9 -8.75 -8.95 -10.7 -8.75 -8.05 -8.6 -9.9 -8.3 -10.35 -8.3 M-8.05 -8.85 L-4.6 -9.7 -3.7 -9.9 -4.85 -9.1 -3.9 -9.45 -2.25 -9.8 -2.05 -9.8 -1.55 -9.9 -2.35 -9.5 -4.0 -8.35 -2.75 -8.55 -2.45 -8.55 -1.6 -8.6 -2.8 -8.25 -4.0 -7.85 -4.85 -7.3 -5.15 -6.95 -5.55 -6.3 -5.65 -6.2 -6.1 -5.25 -6.65 -3.45 -6.9 -3.9 -7.0 -4.75 -6.9 -5.55 -6.85 -5.6 -6.45 -6.6 -5.4 -8.0 -6.05 -6.45 -5.75 -6.85 Q-4.95 -7.7 -4.3 -7.85 L-4.25 -7.95 -6.0 -8.15 -6.1 -8.2 Q-5.55 -8.2 -4.45 -8.8 L-4.45 -8.9 -6.2 -8.85 -7.2 -8.65 Q-7.65 -8.6 -7.65 -8.8 L-8.05 -8.85 M-9.7 -7.2 L-9.6 -7.3 -8.2 -7.75 -9.7 -7.2" fill="#8f3e1b" fill-rule="evenodd" stroke="none"/>
    <path d="M-12.5 -6.9 L-14.9 -4.3 Q-13.85 -4.7 -12.0 -6.4 L-13.15 -5.0 Q-15.9 -3.45 -17.95 -1.4 L-16.65 -3.25 -13.95 -5.75 -12.5 -6.9 M-11.95 -5.0 L-11.9 -5.05 -12.1 -4.35 -12.15 -4.4 -12.05 -4.65 -14.75 -1.5 -15.2 -1.1 -18.5 2.35 Q-18.3 1.4 -17.1 -0.25 L-14.3 -3.65 -14.15 -3.8 -13.8 -4.2 -14.8 -2.8 -13.15 -4.2 Q-12.45 -4.8 -11.95 -5.0 M-12.6 -1.85 Q-11.9 -3.2 -10.65 -4.05 L-9.5 -5.0 -9.9 -4.35 -10.8 -2.8 -11.4 -1.7 -11.65 -1.2 -12.9 1.3 -12.9 0.4 -12.75 -0.75 -12.6 -1.85 M-10.0 -3.65 L-9.95 -3.65 -10.15 -1.45 -10.15 -1.2 Q-10.15 -2.3 -8.7 -3.9 L-7.0 -5.5 -7.0 -5.25 -7.05 -5.25 -7.4 -4.85 -8.5 -3.35 Q-10.2 -0.8 -10.3 1.8 -10.5 1.6 -10.5 0.35 L-10.15 -2.4 -10.15 -2.55 -10.0 -3.65 M-7.05 -6.55 Q-8.25 -6.05 -9.1 -4.85 L-9.15 -4.9 Q-9.15 -5.75 -8.25 -7.0 L-7.0 -7.25 -7.05 -6.55 M-8.65 -6.9 L-11.25 -5.35 -11.3 -5.4 -10.4 -6.75 Q-9.4 -7.9 -8.2 -8.15 L-8.4 -8.15 -8.55 -8.1 -10.1 -7.95 -11.0 -7.95 -10.35 -8.3 -9.9 -8.3 -8.05 -8.6 -6.3 -8.5 -6.15 -8.45 -7.95 -7.8 -8.2 -7.75 -9.6 -7.3 -9.7 -7.2 -9.75 -7.15 -10.75 -6.15 Q-10.1 -6.55 -9.05 -6.8 L-8.65 -6.9" fill="#642b13" fill-rule="evenodd" stroke="none"/>
    <path d="M-7.0 -5.5 L-7.05 -5.7 -6.9 -6.6 Q-6.75 -7.55 -6.2 -7.95 -8.6 -7.15 -9.7 -7.15 L-9.75 -7.15 -9.7 -7.2 -8.2 -7.75 -7.95 -7.8 -6.15 -8.45 -6.3 -8.5 -8.05 -8.6 -10.7 -8.75 -8.75 -8.95 -8.15 -8.9 -8.05 -8.85 -7.65 -8.8 Q-7.65 -8.6 -7.2 -8.65 L-6.2 -8.85 -4.45 -8.9 -4.45 -8.8 Q-5.55 -8.2 -6.1 -8.2 L-6.0 -8.15 -4.25 -7.95 -4.3 -7.85 Q-4.95 -7.7 -5.75 -6.85 L-6.05 -6.45 -5.4 -8.0 -6.45 -6.6 -6.85 -5.6 -6.9 -5.55 -7.0 -4.75 -7.0 -5.25 -7.0 -5.5" fill="#c95625" fill-rule="evenodd" stroke="none"/>
    <path d="M-12.15 -4.4 L-12.25 -3.95 -12.8 -2.6 -12.4 -2.95 -12.45 -2.6 -12.6 -1.85 -12.75 -0.75 -14.9 2.75 -14.9 2.65 -12.8 -2.6 -15.35 0.05 -15.2 -1.1 -14.75 -1.5 -12.05 -4.65 -12.15 -4.4 M-9.9 -4.35 L-10.0 -3.65 -10.15 -2.55 -10.15 -2.4 Q-11.55 0.4 -12.2 3.75 L-12.2 2.9 -11.4 -1.7 -10.8 -2.8 -9.9 -4.35 M-8.5 -3.35 L-7.4 -4.85 -7.05 -5.25 -7.0 -5.25 -7.0 -4.75 -9.0 -0.75 -9.0 -1.55 -8.5 -3.35" fill="#1f0e03" fill-rule="evenodd" stroke="none"/>
    <path d="M-11.0 -7.95 L-12.25 -7.1 M-13.15 -5.0 L-12.75 -5.25 Q-12.45 -5.4 -11.95 -5.0 M-12.15 -4.4 L-12.25 -3.95 -12.4 -2.95 -12.45 -2.6 -12.6 -1.85 -12.75 -0.75 -12.9 0.4 -12.9 1.3 -11.65 -1.2 -11.4 -1.7 M-9.5 -5.0 L-9.9 -4.35 -10.0 -3.65 -10.15 -2.55 -10.15 -2.4 -10.5 0.35 Q-10.5 1.6 -10.3 1.8 -10.2 -0.8 -8.5 -3.35 L-7.4 -4.85 -7.05 -5.25 -7.0 -5.25 -7.0 -5.5 -7.05 -5.7 -7.05 -6.4 -7.05 -6.55 -7.0 -7.25 -8.25 -7.0 -8.55 -6.9 -8.65 -6.9 -9.05 -6.8 Q-10.1 -6.55 -10.75 -6.15 L-9.75 -7.15 -9.7 -7.2 -9.6 -7.3 -8.2 -7.75 -7.95 -7.8 M-11.0 -7.95 L-10.35 -8.3 -10.45 -8.3 M-10.65 -8.3 L-11.95 -8.25 Q-11.15 -9.05 -9.3 -9.05 L-8.2 -8.9 -8.15 -8.9 -8.05 -8.85 -4.6 -9.7 -3.7 -9.9 -3.65 -9.95 -3.65 -9.9 -3.7 -9.9 -4.85 -9.1 -3.9 -9.45 -2.25 -9.8 -2.05 -9.8 -1.55 -9.9 -0.7 -10.05 M-10.35 -8.3 L-9.9 -8.3 -8.05 -8.6 M-13.8 -4.2 L-14.15 -3.8 -14.3 -3.65 -17.1 -0.25 Q-18.3 1.4 -18.5 2.35 L-15.2 -1.1 -14.75 -1.5 -12.05 -4.65 -12.15 -4.4 M-17.95 -1.4 Q-15.9 -3.45 -13.15 -5.0 M-7.0 -4.75 L-6.9 -3.9 -6.65 -3.45 -6.1 -5.25 -5.65 -6.2 M-5.55 -6.3 L-5.15 -6.95 -4.85 -7.3 -4.0 -7.85 -2.8 -8.25 -1.6 -8.6 -2.45 -8.55 -2.75 -8.55 -4.0 -8.35 -2.35 -9.5 -1.55 -9.9 M-7.0 -5.25 L-7.0 -4.75 M-10.8 -2.8 L-9.9 -4.35 M-12.75 -5.25 L-13.8 -4.2" fill="none" stroke="#000000" stroke-linecap="round" stroke-linejoin="round" stroke-opacity="0.24313726" stroke-width="0.05"/>
    <path d="M-8.0 -9.85 L-9.65 -10.4 Q-13.05 -11.85 -13.8 -14.0 L-13.2 -13.5 -11.45 -11.95 Q-9.4 -10.65 -6.95 -10.45 L-5.7 -10.45 -5.15 -10.55 -5.7 -10.9 -8.1 -12.4 Q-10.5 -14.1 -11.75 -16.85 L-8.5 -13.6 Q-6.75 -12.0 -5.75 -11.45 L-5.1 -11.25 Q-4.25 -15.35 -6.15 -20.15 -3.95 -18.0 -3.9 -14.1 L-4.05 -11.15 Q-2.35 -11.8 -1.85 -14.8 -1.4 -17.55 -1.75 -17.85 -1.3 -17.6 -1.2 -15.85 -1.15 -14.1 -1.55 -13.05 -1.95 -12.05 -2.1 -11.95 L-2.45 -11.45 -2.3 -11.5 -1.65 -11.5 0.4 -11.05 0.4 -10.95 -2.0 -10.75 Q-1.4 -10.8 -0.4 -10.05 0.55 -9.35 0.7 -8.65 L-0.8 -9.4 -2.15 -10.0 Q-1.6 -9.5 -1.55 -7.6 L-1.75 -6.25 Q-1.75 -6.9 -2.15 -7.55 -2.7 -8.45 -2.85 -9.2 L-2.85 -8.55 -2.95 -7.15 Q-3.15 -6.15 -3.2 -6.5 L-3.45 -7.65 -3.6 -8.35 -3.6 -8.4 -3.65 -7.7 -3.7 -7.3 -4.2 -8.5 Q-4.6 -9.6 -4.7 -9.35 L-4.9 -9.25 -5.15 -9.05 -6.0 -7.5 -6.1 -7.2 -6.1 -7.15 -6.15 -7.2 -6.15 -8.35 -6.1 -9.15 -7.65 -8.65 Q-9.15 -8.05 -9.8 -7.15 L-9.85 -7.15 -9.85 -7.2 Q-8.75 -8.65 -7.5 -9.35 -7.5 -9.7 -7.85 -9.8 L-7.9 -9.8 -8.0 -9.85 -7.9 -9.8 -7.85 -9.8 Q-7.5 -9.7 -7.5 -9.35 L-9.05 -9.15 -8.7 -9.45 -8.15 -9.8 -8.0 -9.85 M-4.05 -10.15 L-4.05 -11.15 -4.05 -10.15" fill="#ecda3e" fill-rule="evenodd" stroke="none"/>
    <path d="M-13.2 -13.5 L-13.8 -14.0 Q-13.05 -11.85 -9.65 -10.4 L-8.0 -9.85 -7.9 -9.8 -7.85 -9.8 Q-7.5 -9.7 -7.5 -9.35 -8.75 -8.65 -9.85 -7.2 L-9.85 -7.15 -9.8 -7.15 Q-9.15 -8.05 -7.65 -8.65 L-6.1 -9.15 -6.15 -8.35 -6.15 -7.2 -6.15 -6.85 -6.1 -7.15 -6.1 -7.2 -6.0 -7.5 -5.15 -9.05 -4.9 -9.25 -4.7 -9.35 Q-4.6 -9.6 -4.2 -8.5 L-3.7 -7.3 -3.65 -7.7 -3.6 -8.4 -3.6 -8.35 -3.45 -7.65 -3.2 -6.5 Q-3.15 -6.15 -2.95 -7.15 L-2.85 -8.55 -2.85 -9.2 Q-2.7 -8.45 -2.15 -7.55 -1.75 -6.9 -1.75 -6.25 L-1.55 -7.6 Q-1.6 -9.5 -2.15 -10.0 L-0.8 -9.4 0.7 -8.65 Q0.55 -9.35 -0.4 -10.05 -1.4 -10.8 -2.0 -10.75 L0.4 -10.95 0.4 -11.05 M-1.75 -17.85 Q-1.4 -17.55 -1.85 -14.8 -2.35 -11.8 -4.05 -11.15 L-4.05 -10.15 M-8.0 -9.85 L-8.15 -9.8 -8.7 -9.45 -9.05 -9.15 -7.5 -9.35 M-11.75 -16.85 Q-10.5 -14.1 -8.1 -12.4 L-5.7 -10.9 -5.15 -10.55 M-6.15 -20.15 Q-4.25 -15.35 -5.1 -11.25" fill="none" stroke="#000000" stroke-linecap="round" stroke-linejoin="round" stroke-opacity="0.24313726" stroke-width="0.05"/>
    <path d="M-10.7 3.05 L-11.75 2.0 -11.55 1.95 -10.2 1.65 Q-8.95 1.65 -8.1 3.15 L-8.15 3.25 Q-9.05 2.3 -10.7 3.05" fill="#cb8a2c" fill-rule="evenodd" stroke="none"/>
    <path d="M-12.7 1.2 L-12.7 1.25 -12.35 1.65 -12.0 2.15 -11.75 2.0 -10.7 3.05 -11.0 3.15 -11.95 3.35 Q-12.55 3.6 -13.0 4.2 L-12.1 4.8 -11.9 4.95 -11.25 5.3 -11.65 5.9 Q-12.1 6.35 -12.1 6.95 L-12.3 6.3 Q-12.55 5.6 -12.9 5.5 L-13.35 5.35 -13.0 5.2 -12.15 4.8 Q-13.65 4.25 -14.2 3.55 L-14.15 3.4 -13.55 2.65 -13.25 2.55 -12.65 2.4 -12.5 2.35 -12.35 2.3 -12.35 2.25 -12.5 1.75 -12.75 1.3 -12.7 1.2" fill="#efd6b1" fill-rule="evenodd" stroke="none"/>
    <path d="M-12.1 6.95 Q-12.1 6.35 -11.65 5.9 L-11.25 5.3 -11.9 4.95 -12.1 4.8 -13.0 4.2 Q-12.55 3.6 -11.95 3.35 L-11.0 3.15 -10.7 3.05 Q-9.05 2.3 -8.15 3.25 L-7.9 3.55 -7.6 4.25 -7.4 4.95 Q-7.15 5.7 -7.6 6.25 L-8.9 7.0 Q-9.1 6.5 -9.45 6.45 -9.0 7.3 -9.15 7.4 -10.3 8.0 -10.85 7.8 L-11.65 7.6 -12.1 7.0 -12.1 6.95" fill="#76502c" fill-rule="evenodd" stroke="none"/>
    <path d="M-14.2 3.55 Q-13.65 4.25 -12.15 4.8 L-13.0 5.2 -13.35 5.35 -13.95 5.25 Q-14.4 5.1 -14.3 4.35 L-14.2 3.55" fill="#daa250" fill-rule="evenodd" stroke="none"/>
    <path d="M-11.75 2.0 L-12.0 2.15 -12.35 1.65 -12.7 1.25 -12.7 1.2 -12.8 1.15 -12.75 1.3 -12.5 1.75 -12.35 2.25 -12.35 2.3 -12.5 2.35 -12.65 2.4 -13.25 2.55 -13.55 2.65 -14.15 3.4 -14.2 3.55 -14.3 4.35 Q-14.4 5.1 -13.95 5.25 L-13.35 5.35 -12.9 5.5 Q-12.55 5.6 -12.3 6.3 L-12.1 6.95 Q-12.1 6.35 -11.65 5.9 L-11.25 5.3 -11.9 4.95 -12.1 4.8 -13.0 4.2 Q-12.55 3.6 -11.95 3.35 L-11.0 3.15 -10.7 3.05 -11.75 2.0 -11.55 1.95 -10.2 1.65 Q-8.95 1.65 -8.1 3.15 L-7.9 3.55 -7.6 4.25 -7.4 4.95 Q-7.15 5.7 -7.6 6.25 L-8.9 7.0 Q-9.1 6.5 -9.45 6.45 -9.0 7.3 -9.15 7.4 -10.3 8.0 -10.85 7.8 L-11.65 7.6 -12.1 7.0 -12.1 6.95 M-7.9 3.55 L-8.15 3.25 Q-9.05 2.3 -10.7 3.05" fill="none" stroke="#000000" stroke-linecap="round" stroke-linejoin="round" stroke-opacity="0.24313726" stroke-width="0.05"/>
    <path d="M6.0 5.9 L5.0 6.25 5.25 3.0 5.25 2.95 7.8 5.3 6.5 5.75 5.9 4.85 5.9 5.25 6.0 5.75 6.0 5.9 M10.85 3.9 L10.3 3.35 10.3 3.5 10.4 4.1 10.4 4.15 9.55 4.5 9.25 3.2 Q11.75 1.8 13.05 0.6 13.6 1.35 13.8 2.3 L12.4 3.1 12.3 3.15 11.55 2.55 11.55 2.8 11.75 3.45 10.85 3.9" fill="#feb367" fill-rule="evenodd" stroke="none"/>
    <path d="M6.5 5.75 L6.0 5.9 6.0 5.75 5.9 5.25 5.9 4.85 6.5 5.75 M10.4 4.15 L10.4 4.1 10.3 3.5 10.3 3.35 10.85 3.9 10.4 4.15 M11.75 3.45 L11.55 2.8 11.55 2.55 12.3 3.15 11.75 3.45" fill="#ffcc99" fill-rule="evenodd" stroke="none"/>
    <path d="M3.8 5.05 L3.9 6.3 2.5 6.7 2.2 5.6 Q3.05 5.6 3.75 5.05 L3.8 5.05" fill="#eb7e36" fill-rule="evenodd" stroke="none"/>
    <path d="M-0.6 -4.7 L-0.55 -4.7 -0.45 -3.2 -0.2 -2.35 -0.35 -2.2 Q-0.9 -1.6 -0.8 -0.8 L-0.55 -0.05 -0.5 0.8 -0.3 2.05 -1.6 1.3 Q-2.95 0.25 -3.1 -1.25 L-3.1 -1.7 -2.55 -1.0 -1.25 -4.45 -1.05 -4.55 -0.9 -3.3 -0.6 -4.7" fill="#feb367" fill-rule="evenodd" stroke="none"/>
    <path d="M-0.55 -4.7 L0.7 -4.85 1.0 -4.85 1.65 -3.25 Q0.4 -2.9 -0.2 -2.35 L-0.45 -3.2 -0.55 -4.7 M0.85 0.65 L0.9 0.65 2.9 0.45 3.65 1.9 Q2.9 2.3 1.95 2.35 L0.85 0.65 M-3.1 -1.7 L-3.05 -2.25 Q-2.9 -3.15 -2.2 -3.8 L-1.25 -4.45 -2.55 -1.0 -3.1 -1.7 M2.25 -1.25 Q2.35 -0.55 1.4 -0.55 0.2 -0.55 0.1 -1.25 L0.55 -1.8 1.0 -2.0 Q2.15 -2.0 2.25 -1.25" fill="#ffcc99" fill-rule="evenodd" stroke="none"/>
    <path d="M-0.55 -0.05 Q-0.15 0.55 0.85 0.65 L1.95 2.35 1.6 2.35 -0.3 2.05 -0.5 0.8 -0.55 -0.05 M-1.05 -4.55 L-0.6 -4.7 -0.9 -3.3 -1.05 -4.55" fill="#eb7e36" fill-rule="evenodd" stroke="none"/>
  </g>
</svg>
