<?xml version="1.0" encoding="UTF-8" standalone="no"?>
<svg xmlns:xlink="http://www.w3.org/1999/xlink" height="207.45px" width="188.15px" xmlns="http://www.w3.org/2000/svg">
  <g transform="matrix(1.0, 0.0, 0.0, 1.0, 0.0, 0.0)">
    <path d="M95.6 12.4 Q102.9 10.0 110.1 12.25 126.9 17.75 140.1 30.3 L157.75 47.4 Q168.15 57.6 166.15 71.95 L161.65 73.95 155.15 72.95 Q143.75 53.95 130.85 35.7 117.55 16.75 95.6 12.4 M106.85 48.0 L106.75 46.2 Q106.65 41.1 108.6 36.45 113.9 37.85 118.25 40.9 132.2 50.6 135.15 67.45 L127.4 65.85 Q111.0 63.6 106.85 48.0" fill="#f0f0be" fill-rule="evenodd" stroke="none"/>
    <path d="M95.6 12.4 Q117.55 16.75 130.85 35.7 143.75 53.95 155.15 72.95 L161.65 73.95 166.15 71.95 Q168.15 57.6 157.75 47.4 L140.1 30.3 Q126.9 17.75 110.1 12.25 102.9 10.0 95.6 12.4 M53.75 181.95 Q30.9 166.25 16.9 142.55 2.9 118.85 0.45 91.65 -2.25 62.05 11.95 36.2 27.1 8.7 57.85 2.0 87.65 -4.45 115.45 9.75 140.5 22.45 160.7 41.65 176.75 56.85 183.35 76.95 L183.2 76.95 Q182.1 77.0 181.2 76.45 179.3 77.5 177.1 78.05 171.75 79.45 167.2 82.45 L166.7 82.95 Q162.7 87.85 158.15 92.2 L156.4 88.35 Q148.8 72.4 139.55 57.25 123.35 30.85 92.05 23.95 62.7 17.7 37.2 30.25 11.65 42.75 9.0 76.65 6.65 106.8 18.05 130.5 L21.1 136.35 Q29.65 151.25 39.25 164.2 46.2 173.6 53.75 181.95 M184.9 82.25 Q186.0 86.55 186.75 91.1 L186.2 90.95 185.7 90.95 Q182.7 95.1 183.05 99.9 183.25 102.6 182.2 104.95 L178.2 107.95 173.2 107.45 171.7 112.45 170.7 112.95 170.25 113.05 Q169.95 113.2 169.95 113.45 L170.2 114.45 Q172.9 114.6 175.25 115.85 L179.2 118.45 Q177.7 132.6 176.3 148.45 176.0 151.8 178.2 154.45 L180.45 154.4 Q175.1 168.85 165.85 181.25 167.15 164.1 168.1 146.8 169.35 124.2 162.3 102.95 164.25 101.65 165.15 98.95 L165.7 98.95 170.15 98.7 Q173.35 98.0 175.7 96.45 L175.2 92.95 174.7 92.95 173.2 92.95 Q172.15 92.7 171.5 93.2 170.3 94.2 168.7 94.45 171.8 92.25 174.0 89.3 175.8 86.9 178.2 84.95 L183.2 84.45 184.2 82.95 184.9 82.25" fill="url(#gradient0)" fill-rule="evenodd" stroke="none"/>
    <path d="M106.85 48.0 Q111.0 63.6 127.4 65.85 L135.15 67.45 Q132.2 50.6 118.25 40.9 113.9 37.85 108.6 36.45 106.65 41.1 106.75 46.2 L106.85 48.0 M53.75 181.95 Q46.2 173.6 39.25 164.2 29.65 151.25 21.1 136.35 L18.05 130.5 Q6.65 106.8 9.0 76.65 11.65 42.75 37.2 30.25 62.7 17.7 92.05 23.95 123.35 30.85 139.55 57.25 148.8 72.4 156.4 88.35 L158.15 92.2 Q154.55 95.65 150.65 98.7 L151.65 97.95 149.25 100.55 Q147.95 102.15 148.15 103.95 L150.15 105.95 151.6 105.75 Q155.2 104.65 159.5 104.0 161.1 103.75 162.3 102.95 169.35 124.2 168.1 146.8 167.15 164.1 165.85 181.25 160.25 188.6 153.15 194.9 133.45 212.35 106.55 205.55 L100.75 204.0 101.85 200.85 101.6 199.45 100.35 203.9 Q82.55 198.7 66.25 189.7 L64.1 188.45 62.0 187.25 Q57.75 184.75 53.75 181.95 M135.95 175.85 L138.8 165.5 143.6 148.25 147.3 133.65 Q148.75 127.7 149.3 121.65 149.9 114.7 148.15 107.95 L144.15 107.45 141.55 109.9 Q140.3 111.05 139.3 112.35 L137.45 115.05 Q135.05 119.2 134.8 124.15 134.55 129.7 135.5 135.25 136.55 141.4 136.65 147.45 L135.9 148.55 130.55 161.5 128.0 167.7 Q125.25 174.05 121.2 179.6 119.25 182.3 116.65 184.45 L114.65 181.95 114.75 180.65 Q114.9 179.4 115.2 178.2 L116.5 173.6 119.15 164.1 Q120.85 156.8 122.15 149.45 L120.5 152.2 117.4 158.0 Q115.9 160.85 114.65 163.85 110.0 175.25 106.35 186.95 L101.85 200.85 Q102.8 202.3 104.65 202.7 L113.1 203.95 Q115.5 206.3 118.6 205.3 122.65 203.9 125.15 200.45 L125.55 194.5 Q142.1 192.45 148.25 174.15 152.6 161.15 149.15 148.45 L146.65 147.45 145.15 146.45 Q146.85 163.7 135.95 175.85" fill="url(#gradient1)" fill-rule="evenodd" stroke="none"/>
    <path d="M100.75 204.0 L100.35 203.9 101.6 199.45 101.85 200.85 100.75 204.0 M125.55 194.5 L125.15 200.45 Q122.65 203.9 118.6 205.3 115.5 206.3 113.1 203.95 L104.65 202.7 Q102.8 202.3 101.85 200.85 L106.35 186.95 Q110.0 175.25 114.65 163.85 115.9 160.85 117.4 158.0 L120.5 152.2 122.15 149.45 Q120.85 156.8 119.15 164.1 L116.5 173.6 115.2 178.2 Q114.9 179.4 114.75 180.65 L114.65 181.95 116.65 184.45 Q119.25 182.3 121.2 179.6 125.25 174.05 128.0 167.7 L130.55 161.5 135.9 148.55 136.65 147.45 Q136.55 141.4 135.5 135.25 134.55 129.7 134.8 124.15 135.05 119.2 137.45 115.05 L139.3 112.35 Q140.3 111.05 141.55 109.9 L144.15 107.45 148.15 107.95 Q149.9 114.7 149.3 121.65 148.75 127.7 147.3 133.65 L143.6 148.25 138.8 165.5 135.95 175.85 Q135.05 178.15 133.55 179.9 131.15 182.7 128.25 184.85 126.9 185.8 125.4 186.35 121.2 188.0 118.15 190.95 L118.65 192.95 125.65 192.95 125.55 194.5" fill="#d67e00" fill-rule="evenodd" stroke="none"/>
    <path d="M158.15 92.2 Q162.7 87.85 166.7 82.95 L167.2 82.45 Q171.75 79.45 177.1 78.05 179.3 77.5 181.2 76.45 182.1 77.0 183.2 76.95 L183.35 76.95 184.9 82.25 184.2 82.95 183.2 84.45 178.2 84.95 Q175.8 86.9 174.0 89.3 171.8 92.25 168.7 94.45 170.3 94.2 171.5 93.2 172.15 92.7 173.2 92.95 L174.7 92.95 175.2 92.95 175.7 96.45 Q173.35 98.0 170.15 98.7 L165.7 98.95 165.15 98.95 Q164.25 101.65 162.3 102.95 161.1 103.75 159.5 104.0 155.2 104.65 151.6 105.75 L150.15 105.95 148.15 103.95 Q147.95 102.15 149.25 100.55 L151.65 97.95 150.65 98.7 Q154.55 95.65 158.15 92.2" fill="url(#gradient2)" fill-rule="evenodd" stroke="none"/>
    <path d="M125.55 194.5 L125.65 192.95 118.65 192.95 118.15 190.95 Q121.2 188.0 125.4 186.35 126.9 185.8 128.25 184.85 131.15 182.7 133.55 179.9 135.05 178.15 135.95 175.85 146.85 163.7 145.15 146.45 L146.65 147.45 149.15 148.45 Q152.6 161.15 148.25 174.15 142.1 192.45 125.55 194.5" fill="#f7e93c" fill-rule="evenodd" stroke="none"/>
    <path d="M186.75 91.1 L187.15 94.15 Q190.75 123.35 181.55 151.15 L180.45 154.4 178.2 154.45 Q176.0 151.8 176.3 148.45 177.7 132.6 179.2 118.45 L175.25 115.85 Q172.9 114.6 170.2 114.45 L169.95 113.45 Q169.95 113.2 170.25 113.05 L170.7 112.95 171.7 112.45 173.2 107.45 178.2 107.95 182.2 104.95 Q183.25 102.6 183.05 99.9 182.7 95.1 185.7 90.95 L186.2 90.95 186.75 91.1" fill="url(#gradient3)" fill-rule="evenodd" stroke="none"/>
    <path d="M183.35 76.95 Q176.75 56.85 160.7 41.65 140.5 22.45 115.45 9.75 87.65 -4.45 57.85 2.0 27.1 8.7 11.95 36.2 -2.25 62.05 0.45 91.65 2.9 118.85 16.9 142.55 30.9 166.25 53.75 181.95 57.75 184.75 62.0 187.25 L64.1 188.45 66.25 189.7 Q82.55 198.7 100.35 203.9 L100.75 204.0 106.55 205.55 Q133.45 212.35 153.15 194.9 160.25 188.6 165.85 181.25 175.1 168.85 180.45 154.4 L181.55 151.15 Q190.75 123.35 187.15 94.15 L186.75 91.1 Q186.0 86.55 184.9 82.25 L183.35 76.95 Z" fill="none" stroke="#000000" stroke-linecap="round" stroke-linejoin="round" stroke-opacity="0.3019608" stroke-width="0.05"/>
  </g>
  <defs>
    <radialGradient cx="0" cy="0" gradientTransform="matrix(1.0, 0.0, 0.0, 1.0, -78.4, -31.1)" gradientUnits="userSpaceOnUse" id="gradient0" r="819.2" spreadMethod="pad">
      <stop offset="0.0" stop-color="#ffc501"/>
      <stop offset="0.6666666666666666" stop-color="#965500"/>
    </radialGradient>
    <radialGradient cx="0" cy="0" gradientTransform="matrix(1.0, 0.0, 0.0, 1.0, -78.4, -31.1)" gradientUnits="userSpaceOnUse" id="gradient1" r="819.2" spreadMethod="pad">
      <stop offset="0.6274509803921569" stop-color="#ffc501"/>
      <stop offset="0.9137254901960784" stop-color="#965500"/>
    </radialGradient>
    <linearGradient gradientTransform="matrix(0.0225, 0.0, 0.0, 0.018, 166.5, 91.2)" gradientUnits="userSpaceOnUse" id="gradient2" spreadMethod="pad" x1="-819.2" x2="819.2">
      <stop offset="0.027450980392156862" stop-color="#ffc501"/>
      <stop offset="0.403921568627451" stop-color="#965500"/>
    </linearGradient>
    <linearGradient gradientTransform="matrix(0.0111, 0.0, 0.0, 0.0388, 179.05, 122.7)" gradientUnits="userSpaceOnUse" id="gradient3" spreadMethod="pad" x1="-819.2" x2="819.2">
      <stop offset="0.027450980392156862" stop-color="#ffc501"/>
      <stop offset="0.403921568627451" stop-color="#965500"/>
    </linearGradient>
  </defs>
</svg>
