<?xml version="1.0" encoding="UTF-8" standalone="no"?>
<svg xmlns:xlink="http://www.w3.org/1999/xlink" height="20.2px" width="20.1px" xmlns="http://www.w3.org/2000/svg">
  <g transform="matrix(1.0, 0.0, 0.0, 1.0, -0.1, 0.0)">
    <path d="M9.75 16.65 L10.8 17.15 11.2 17.25 13.95 17.45 16.15 16.8 17.8 15.55 19.45 13.35 19.75 12.05 Q19.75 10.5 18.75 9.3 L18.1 8.7 Q16.9 7.9 15.4 7.95 14.2 7.9 13.25 7.35 12.85 7.1 12.75 6.7 12.65 6.5 12.7 6.3 12.95 5.05 15.95 4.05 L16.8 3.2 16.85 2.9 Q16.7 1.6 15.5 1.05 14.15 0.35 12.7 0.35 11.25 0.25 10.05 1.05 L8.85 2.15 Q8.0 3.15 7.55 4.4 L7.25 5.0 7.0 5.5 6.55 5.8 Q5.45 6.4 4.25 6.4 L1.4 6.75 0.9 6.95 Q0.35 7.3 0.5 8.0 0.7 9.5 1.65 10.7 L1.45 11.05 0.6 9.4 0.25 8.35 Q0.05 7.85 0.15 7.4 0.2 6.85 0.95 6.45 L3.15 6.05 6.1 5.6 7.05 4.65 7.5 3.7 Q7.95 2.5 8.7 1.55 9.0 1.1 9.45 0.9 10.7 0.15 12.25 0.0 L14.95 0.3 Q16.4 0.75 17.25 2.0 17.75 2.65 17.55 3.45 17.35 4.05 16.8 4.35 L15.55 4.8 Q14.35 5.1 13.4 5.85 L13.1 6.2 13.1 6.65 Q13.2 7.15 13.65 7.35 L15.5 7.65 Q17.05 7.6 18.45 8.2 L19.45 9.0 Q20.2 10.0 20.2 11.3 20.15 12.65 19.55 13.9 18.85 15.25 17.7 16.2 16.65 17.05 15.4 17.55 L12.65 17.95 10.55 17.65 10.4 17.65 9.45 17.25 9.75 16.65 M5.2 19.65 L5.35 19.65 5.3 19.8 5.2 19.85 5.2 19.65 M6.7 16.9 L6.8 16.85 6.7 16.95 6.7 16.9" fill="#6c260d" fill-rule="evenodd" stroke="none"/>
    <path d="M8.65 8.85 L9.05 9.2 9.55 9.7 9.3 9.8 9.2 9.9 9.05 10.05 9.15 10.05 9.45 10.0 9.85 10.2 9.9 10.25 10.0 10.55 10.15 10.75 Q9.55 10.55 9.05 10.75 L9.3 10.8 9.25 10.9 Q9.15 10.75 9.15 11.2 L9.15 12.35 Q9.3 14.4 8.2 16.2 L7.35 17.25 7.35 17.2 7.3 17.15 7.25 17.0 7.2 16.65 7.15 16.6 7.1 16.55 8.25 14.75 Q8.7 13.55 8.6 12.45 L8.35 11.3 8.3 11.05 7.95 10.35 7.5 9.8 7.15 9.5 Q7.8 8.45 8.65 8.85 M5.55 18.5 L5.35 18.55 5.75 19.15 5.35 19.05 5.05 18.85 5.1 19.7 5.05 19.7 4.9 19.4 4.45 18.65 Q4.2 19.35 4.3 20.15 L3.9 20.1 3.4 20.0 Q3.25 18.9 4.0 18.0 4.95 18.05 6.0 17.45 L6.45 17.15 6.55 17.3 6.6 17.3 6.75 17.3 6.65 17.45 6.55 17.55 6.45 17.7 6.45 17.75 6.55 17.95 6.15 18.2 5.55 18.5" fill="#4f8054" fill-rule="evenodd" stroke="none"/>
    <path d="M9.55 9.7 L9.45 10.0 9.15 10.05 9.05 10.05 9.2 9.9 9.3 9.8 9.55 9.7" fill="#0e160e" fill-rule="evenodd" stroke="none"/>
    <path d="M9.75 16.65 L9.45 17.25 9.1 17.7 8.7 18.15 8.3 18.6 7.9 18.95 7.4 19.3 6.9 19.55 6.45 19.8 6.0 20.0 5.6 20.1 5.2 19.85 5.3 19.8 5.35 19.65 5.2 19.65 5.1 19.7 5.05 18.85 5.35 19.05 5.75 19.15 5.35 18.55 5.55 18.5 5.4 18.55 5.55 18.7 Q7.75 18.65 9.0 16.8 10.25 14.8 9.85 12.55 L9.25 10.9 9.3 10.8 9.05 10.75 Q9.55 10.55 10.15 10.75 L10.25 11.0 10.4 11.55 10.55 12.1 10.65 12.65 10.65 13.2 10.65 13.8 10.55 14.35 10.45 15.0 10.25 15.55 10.0 16.15 9.75 16.65 M0.6 17.3 L0.85 17.0 Q1.2 16.65 1.5 16.6 L1.8 17.0 1.25 17.6 0.6 17.3 M4.3 20.15 Q4.2 19.35 4.45 18.65 L4.9 19.4 4.3 20.15" fill="#273f29" fill-rule="evenodd" stroke="none"/>
    <path d="M7.1 16.55 L7.15 16.6 7.2 16.65 7.25 17.0 7.3 17.15 7.35 17.2 7.35 17.25 8.2 16.2 Q9.3 14.4 9.15 12.35 L9.15 11.2 Q9.15 10.75 9.25 10.9 L9.85 12.55 Q10.25 14.8 9.0 16.8 7.75 18.65 5.55 18.7 L5.4 18.55 5.55 18.5 6.15 18.2 6.55 17.95 6.45 17.75 6.45 17.7 6.55 17.55 6.65 17.45 6.75 17.3 6.6 17.3 6.55 17.3 6.45 17.15 6.7 16.95 6.8 16.85 6.7 16.9 6.35 17.15 6.35 17.1 6.25 17.05 6.25 17.0 6.1 16.8 6.1 16.75 6.1 16.5 6.1 16.45 6.05 16.45 5.8 16.65 5.7 16.7 5.65 16.8 5.65 16.85 5.65 17.1 5.5 16.9 5.5 16.8 5.2 17.0 4.65 17.2 4.55 17.2 3.25 17.25 3.05 17.2 2.25 16.75 1.5 15.85 1.3 15.3 Q0.85 13.95 1.45 12.45 1.8 11.5 2.45 10.85 L3.3 10.15 3.9 9.85 4.95 9.7 5.75 9.85 6.3 10.1 6.55 10.25 6.9 10.6 7.15 10.35 7.5 10.25 7.5 10.5 7.5 10.6 7.5 10.65 7.4 10.75 7.35 10.8 7.2 11.05 Q6.65 10.15 6.05 10.1 L5.25 10.05 4.55 10.15 Q4.0 10.25 3.1 11.1 2.0 12.1 2.0 13.5 L2.0 13.9 2.0 14.35 2.25 15.45 2.5 15.85 2.95 16.4 Q3.3 16.9 4.4 16.9 5.55 16.9 6.5 15.6 7.45 14.3 7.7 13.25 L7.7 13.05 7.6 13.8 7.4 14.55 6.85 15.6 6.65 15.85 6.9 16.3 6.95 16.35 6.95 16.4 7.1 16.55" fill="#3c6240" fill-rule="evenodd" stroke="none"/>
    <path d="M1.45 11.05 L1.65 10.7 1.75 10.6 2.15 10.15 2.55 9.75 2.95 9.35 3.45 9.0 4.05 8.65 4.4 8.5 5.1 8.25 5.6 8.15 6.3 8.1 Q5.65 8.3 5.6 8.9 L4.95 8.9 4.4 9.0 Q3.85 9.15 3.35 9.45 L2.8 9.85 2.05 10.6 1.65 11.15 1.3 11.8 1.15 12.15 Q0.45 13.95 1.0 15.6 L1.25 16.2 1.5 16.6 Q1.2 16.65 0.85 17.0 L0.6 17.3 0.45 16.75 0.3 16.2 0.25 15.65 0.2 15.1 0.25 14.5 0.3 13.95 0.45 13.35 0.6 12.75 0.85 12.15 1.1 11.6 1.45 11.05 M6.3 10.1 L6.35 9.95 Q6.4 9.4 6.75 9.25 L7.15 9.5 7.5 9.8 7.95 10.35 8.3 11.05 7.95 11.6 7.9 14.05 7.85 14.5 Q7.6 15.55 6.95 16.4 L6.95 16.35 6.9 16.3 6.65 15.85 6.85 15.6 7.4 14.55 7.6 13.8 7.7 13.05 Q7.8 12.05 7.25 11.15 L7.2 11.05 7.35 10.8 7.4 10.75 7.5 10.65 7.5 10.6 7.5 10.5 7.5 10.25 7.15 10.35 6.9 10.6 6.55 10.25 6.3 10.1 M3.25 17.25 L4.55 17.2 4.65 17.2 5.2 17.0 5.5 16.8 5.5 16.9 5.65 17.1 5.65 16.85 5.65 16.8 5.7 16.7 5.8 16.65 6.05 16.45 6.1 16.45 6.1 16.5 6.1 16.75 6.1 16.8 6.25 17.0 6.25 17.05 6.35 17.1 6.2 17.25 6.35 17.15 6.7 16.9 6.7 16.95 6.45 17.15 6.0 17.45 Q4.95 18.05 4.0 18.0 L3.1 17.85 Q2.95 17.6 3.15 17.3 L3.25 17.25 M1.8 17.0 L2.4 17.5 Q1.6 17.95 1.65 19.0 L1.5 18.8 1.2 18.35 1.05 18.15 1.25 17.6 1.8 17.0" fill="#86b58b" fill-rule="evenodd" stroke="none"/>
    <path d="M1.25 16.2 L1.0 15.6 Q0.45 13.95 1.15 12.15 L1.3 11.8 1.65 11.15 2.05 10.6 2.8 9.85 Q2.55 10.3 2.45 10.85 1.8 11.5 1.45 12.45 0.85 13.95 1.3 15.3 L1.5 15.85 1.25 16.2" fill="#e8f0e8" fill-rule="evenodd" stroke="none"/>
    <path d="M6.3 8.1 L6.95 8.15 7.6 8.35 8.0 8.5 Q8.3 8.6 8.65 8.85 7.8 8.45 7.15 9.5 L6.75 9.25 Q6.4 9.4 6.35 9.95 L6.3 10.1 5.75 9.85 4.95 9.7 3.9 9.85 3.3 10.15 2.45 10.85 Q2.55 10.3 2.8 9.85 L3.35 9.45 Q3.85 9.15 4.4 9.0 L4.95 8.9 5.6 8.9 Q5.65 8.3 6.3 8.1 M8.3 11.05 L8.35 11.3 8.6 12.45 Q8.7 13.55 8.25 14.75 L7.1 16.55 6.95 16.4 Q7.6 15.55 7.85 14.5 L7.9 14.05 7.95 11.6 8.3 11.05 M1.5 16.6 L1.25 16.2 1.5 15.85 2.25 16.75 3.05 17.2 3.25 17.25 3.15 17.3 Q2.95 17.6 3.1 17.85 L4.0 18.0 Q3.25 18.9 3.4 20.0 L2.8 19.75 2.45 19.55 2.05 19.3 1.65 19.0 Q1.6 17.95 2.4 17.5 L1.8 17.0 1.5 16.6" fill="#b7d2ba" fill-rule="evenodd" stroke="none"/>
    <path d="M4.75 10.75 L5.3 10.95 Q6.0 11.3 6.35 12.15 6.7 12.85 6.6 13.65 L6.55 13.9 6.2 14.65 5.45 14.3 5.3 14.95 5.6 15.1 4.35 15.05 Q3.75 14.7 3.45 14.15 L3.1 13.9 Q3.9 13.9 3.65 13.35 L3.05 13.05 3.15 12.0 Q3.35 11.15 4.0 10.85 L4.75 10.75 M6.15 13.5 L6.05 13.55 6.0 13.55 5.35 13.95 5.3 14.0 6.0 14.2 6.0 14.1 6.1 13.9 6.15 13.75 6.2 13.75 6.2 13.55 6.15 13.5 M6.15 13.1 L6.1 12.5 5.75 12.0 Q5.45 11.85 5.25 12.0 L4.95 12.45 5.0 13.05 5.4 13.5 5.9 13.5 6.15 13.1 M4.7 11.95 L4.3 11.55 Q4.05 11.4 3.9 11.55 L3.6 11.95 3.65 12.45 4.0 12.85 4.45 12.9 4.65 12.5 4.7 11.95 M4.6 13.3 L4.55 13.25 4.5 13.3 4.45 13.3 4.45 13.35 4.1 13.75 4.05 13.8 4.0 13.85 4.0 13.95 4.35 14.15 4.4 14.1 4.45 14.05 4.45 13.75 4.45 13.7 4.65 13.3 4.6 13.3 M3.55 13.15 L3.6 13.15 3.65 13.1 3.65 13.05 Q3.35 12.65 3.4 12.25 L3.35 12.2 3.25 12.25 3.25 12.35 Q3.0 12.85 3.55 13.15 M3.4 14.8 L3.35 15.15 3.25 15.35 3.0 15.4 2.9 15.15 2.9 14.85 3.05 14.6 3.25 14.55 3.4 14.8 M4.0 15.35 L4.2 15.35 4.4 15.6 4.4 15.9 4.25 16.15 4.0 16.15 3.85 15.9 3.8 15.55 4.0 15.35 M5.0 15.65 L5.25 15.65 5.45 15.85 5.4 16.15 5.3 16.4 5.1 16.45 5.05 16.4 4.9 16.15 4.85 15.9 Q4.85 15.7 5.0 15.65 M4.9 13.4 L4.8 13.35 4.75 13.4 4.7 13.45 4.7 13.6 4.65 13.65 4.55 14.05 4.9 14.4 4.95 14.4 5.0 14.35 5.05 14.3 5.05 14.1 5.05 14.05 4.9 13.4" fill="#ffffff" fill-rule="evenodd" stroke="none"/>
    <path d="M4.75 10.75 L4.0 10.85 Q3.35 11.15 3.15 12.0 L3.05 13.05 3.65 13.35 Q3.9 13.9 3.1 13.9 L3.45 14.15 Q3.75 14.7 4.35 15.05 L5.6 15.1 5.3 14.95 5.45 14.3 6.2 14.65 6.55 13.9 6.6 13.65 Q6.7 12.85 6.35 12.15 6.0 11.3 5.3 10.95 L4.75 10.75 M7.7 13.05 L7.7 13.25 Q7.45 14.3 6.5 15.6 5.55 16.9 4.4 16.9 3.3 16.9 2.95 16.4 L2.5 15.85 2.25 15.45 2.0 14.35 2.0 13.9 2.0 13.5 Q2.0 12.1 3.1 11.1 4.0 10.25 4.55 10.15 L5.25 10.05 6.05 10.1 Q6.65 10.15 7.2 11.05 L7.25 11.15 Q7.8 12.05 7.7 13.05 M6.15 13.1 L5.9 13.5 5.4 13.5 5.0 13.05 4.95 12.45 5.25 12.0 Q5.45 11.85 5.75 12.0 L6.1 12.5 6.15 13.1 M4.7 11.95 L4.65 12.5 4.45 12.9 4.0 12.85 3.65 12.45 3.6 11.95 3.9 11.55 Q4.05 11.4 4.3 11.55 L4.7 11.95 M4.6 13.3 L4.65 13.3 4.45 13.7 4.45 13.75 4.45 14.05 4.4 14.1 4.35 14.15 4.0 13.95 4.0 13.85 4.05 13.8 4.1 13.75 4.45 13.35 4.45 13.3 4.5 13.3 4.55 13.25 4.6 13.3 M4.9 13.4 L5.05 14.05 5.05 14.1 5.05 14.3 5.0 14.35 4.95 14.4 4.9 14.4 4.55 14.05 4.65 13.65 4.7 13.6 4.7 13.45 4.75 13.4 4.8 13.35 4.9 13.4 M5.0 15.65 Q4.85 15.7 4.85 15.9 L4.9 16.15 5.05 16.4 5.1 16.45 5.3 16.4 5.4 16.15 5.45 15.85 5.25 15.65 5.0 15.65 M4.0 15.35 L3.8 15.55 3.85 15.9 4.0 16.15 4.25 16.15 4.4 15.9 4.4 15.6 4.2 15.35 4.0 15.35 M3.4 14.8 L3.25 14.55 3.05 14.6 2.9 14.85 2.9 15.15 3.0 15.4 3.25 15.35 3.35 15.15 3.4 14.8" fill="#1c4429" fill-rule="evenodd" stroke="none"/>
    <path d="M6.15 13.5 L6.2 13.55 6.2 13.75 6.15 13.75 6.1 13.9 6.0 14.1 6.0 14.2 5.3 14.0 5.35 13.95 6.0 13.55 6.05 13.55 6.15 13.5 M3.55 13.15 Q3.0 12.85 3.25 12.35 L3.25 12.25 3.35 12.2 3.4 12.25 Q3.35 12.65 3.65 13.05 L3.65 13.1 3.6 13.15 3.55 13.15" fill="#a5c7bc" fill-rule="evenodd" stroke="none"/>
    <path d="M6.35 17.1 L6.35 17.15 6.2 17.25 6.35 17.1" fill="#dca654" fill-rule="evenodd" stroke="none"/>
    <path d="M9.75 16.65 L9.45 17.25 9.1 17.7 8.7 18.15 8.3 18.6 7.9 18.95 7.4 19.3 6.9 19.55 6.45 19.8 6.0 20.0 5.6 20.1 5.2 19.85 5.2 19.65 5.35 19.65 5.3 19.8 5.2 19.85 M1.45 11.05 L1.65 10.7 1.75 10.6 2.15 10.15 2.55 9.75 2.95 9.35 3.45 9.0 4.05 8.65 4.4 8.5 5.1 8.25 5.6 8.15 6.3 8.1 6.95 8.15 7.6 8.35 8.0 8.5 Q8.3 8.6 8.65 8.85 L9.05 9.2 9.55 9.7 9.45 10.0 9.85 10.2 9.9 10.2 9.9 10.25 10.0 10.55 10.15 10.75 10.25 11.0 10.4 11.55 10.55 12.1 10.65 12.65 10.65 13.2 10.65 13.8 10.55 14.35 10.45 15.0 10.25 15.55 10.0 16.15 9.75 16.65 M9.45 10.0 L9.15 10.05 9.05 10.05 9.2 9.9 9.3 9.8 9.55 9.7 M5.1 19.7 L5.2 19.65 M9.9 10.25 L9.85 10.2 M1.45 11.05 L1.1 11.6 0.85 12.15 0.6 12.75 0.45 13.35 0.3 13.95 0.25 14.5 0.2 15.1 0.25 15.65 0.3 16.2 0.45 16.75 0.6 17.3 1.25 17.6 1.05 18.15 1.2 18.35 1.5 18.8 1.65 19.0 2.05 19.3 2.45 19.55 2.8 19.75 3.4 20.0 3.9 20.1 4.3 20.15 Q4.2 19.35 4.45 18.65 L4.9 19.4 5.05 19.7 5.1 19.7 M4.3 20.15 L4.9 19.4" fill="none" stroke="#6c260d" stroke-linecap="round" stroke-linejoin="round" stroke-width="0.1"/>
  </g>
</svg>
