<?xml version="1.0" encoding="UTF-8" standalone="no"?>
<svg xmlns:xlink="http://www.w3.org/1999/xlink" height="80.2px" width="43.5px" xmlns="http://www.w3.org/2000/svg">
  <g transform="matrix(1.0, 0.0, 0.0, 1.0, 21.7, 40.05)">
    <path d="M-21.6 -26.8 L-21.5 -26.9 -21.55 -26.75 -21.6 -26.7 -21.7 -26.7 -21.65 -26.75 -21.6 -26.8" fill="#d7f3fd" fill-rule="evenodd" stroke="none"/>
    <path d="M-5.05 -32.35 L-5.2 -32.45 -4.65 -32.9 -3.4 -34.2 -1.9 -36.05 -1.2 -37.1 -0.5 -38.2 0.2 -39.3 0.2 -39.35 0.6 -39.95 0.7 -39.9 0.7 -39.85 0.35 -39.3 0.3 -39.25 -0.4 -38.1 -1.1 -37.0 -1.8 -35.95 -3.3 -34.1 -4.55 -32.8 -5.05 -32.35 -4.55 -32.8 -3.3 -34.1 -1.8 -35.95 -1.1 -37.0 -0.4 -38.1 0.3 -39.25 0.35 -39.3 0.7 -39.85 0.85 -39.3 0.9 -39.0 0.95 -39.0 1.0 -38.9 1.4 -37.85 1.65 -37.3 1.25 -36.9 0.9 -39.0 1.25 -36.9 1.45 -35.25 1.05 -34.95 -3.65 -31.0 -3.65 -30.95 -3.9 -31.35 -4.25 -31.75 -3.8 -31.25 -3.65 -31.0 -3.8 -31.25 -4.25 -31.75 -5.05 -32.35 M4.45 -29.5 L4.4 -29.45 3.85 -27.95 3.4 -26.4 3.1 -25.55 2.9 -24.75 2.85 -24.65 2.7 -23.95 1.2 -22.45 1.55 -24.0 1.7 -24.35 1.7 -24.45 0.8 -23.75 Q0.35 -25.05 -0.75 -25.85 0.3 -27.3 0.85 -29.05 1.5 -31.15 1.5 -33.3 L1.5 -32.9 3.05 -34.1 2.9 -34.5 3.15 -33.95 3.85 -32.5 4.5 -31.35 4.75 -30.95 5.0 -30.6 4.95 -30.55 4.7 -30.2 4.3 -29.55 4.45 -29.5 M2.25 -3.35 L2.3 -3.4 2.2 -3.25 2.25 -3.35 2.2 -3.25 2.1 -3.15 0.95 -2.0 1.9 1.05 4.6 -1.6 5.25 -0.75 5.7 -0.25 5.9 -0.05 5.55 0.95 4.8 3.4 2.5 5.7 2.65 8.25 4.1 6.8 4.05 7.9 4.05 9.4 1.9 11.75 -1.05 8.55 -1.05 8.0 -1.1 6.4 -1.1 6.25 -1.15 5.35 -1.05 5.25 -1.05 5.05 -1.1 4.35 -1.1 4.25 -1.2 2.4 -1.4 0.6 -1.4 0.55 -1.5 -0.1 -1.55 -0.25 -0.45 -1.25 Q0.7 -2.75 0.15 -3.8 L0.35 -4.0 -0.05 -5.75 -2.7 -3.1 -2.75 -3.25 -3.05 -3.75 -3.65 -4.5 -3.75 -4.6 -3.35 -6.0 -3.3 -6.15 -3.25 -6.2 -3.1 -6.3 -1.2 -8.4 Q-0.5 -9.2 -0.35 -9.85 L-0.35 -10.4 -0.5 -10.75 -0.35 -10.9 -0.1 -14.75 0.0 -15.65 -1.6 -14.1 -1.5 -15.05 -1.35 -17.35 -1.35 -17.95 -1.35 -18.1 -1.35 -17.95 -1.35 -17.35 -1.5 -15.05 -1.6 -14.1 -1.7 -13.95 -1.7 -14.0 -1.6 -15.15 -1.45 -17.45 -1.45 -18.05 -1.35 -18.1 0.6 -19.6 0.55 -19.5 0.95 -19.85 1.95 -20.7 1.9 -20.45 1.6 -18.1 1.5 -17.2 1.5 -16.85 1.4 -15.5 1.4 -14.1 1.4 -12.7 1.4 -12.6 1.5 -11.1 1.65 -9.95 -0.3 -8.0 -0.2 -6.8 1.8 -8.85 1.95 -8.25 2.05 -7.8 2.3 -6.8 2.5 -6.1 2.5 -6.0 2.7 -5.4 3.0 -4.6 2.0 -3.25 2.25 -3.35 M-1.15 5.15 L-1.2 4.25 -1.2 4.15 -1.3 2.3 -1.5 0.5 -1.5 0.45 -1.6 -0.2 -1.55 -0.25 -1.5 -0.1 -1.4 0.55 -1.4 0.6 -1.2 2.4 -1.1 4.25 -1.1 4.35 -1.05 5.05 -1.05 5.25 -1.15 5.35 -1.15 5.15 M-2.7 -3.05 L-2.85 -3.35 -3.15 -3.85 -3.65 -4.5 -3.25 -5.9 -3.2 -6.05 -3.1 -6.3 -3.2 -6.05 -3.25 -5.9 -3.65 -4.5 -3.05 -3.75 -2.75 -3.25 -2.7 -3.1 -2.7 -3.05 M2.3 -35.9 L1.6 -35.35 2.25 -36.0 2.3 -35.9 M-1.55 -0.25 L-1.5 -0.1 -1.55 -0.25 -1.5 -0.1 -1.55 -0.25" fill="#dabaa9" fill-rule="evenodd" stroke="none"/>
    <path d="M-1.6 -0.2 L-1.65 -0.4 -1.6 -0.2 -1.55 -0.3 -1.55 -0.25 -1.55 -0.3 -1.55 -0.25 -1.55 -0.3 0.15 -3.8 Q0.7 -2.75 -0.45 -1.25 L-1.55 -0.25 -1.55 -0.3 -1.55 -0.25 -1.6 -0.2 M-3.3 -6.15 L-2.75 -8.15 -2.6 -8.65 -2.45 -8.85 -2.5 -8.55 -2.65 -8.05 -3.1 -6.3 -2.65 -8.05 -2.5 -8.55 -2.45 -8.85 -0.5 -10.75 -0.35 -10.4 -0.35 -9.85 Q-0.5 -9.2 -1.2 -8.4 L-3.1 -6.3 -3.25 -6.2 -3.3 -6.15 M-1.45 -18.05 L-1.4 -19.7 -1.4 -19.9 -1.4 -21.05 -1.3 -21.15 -1.3 -20.95 -1.3 -19.95 -1.3 -19.8 -1.3 -19.6 -1.35 -18.1 -1.3 -19.6 -1.3 -19.8 -1.3 -19.95 -1.3 -20.95 -1.3 -21.15 0.95 -23.35 0.8 -23.75 1.7 -24.45 1.7 -24.35 1.55 -24.0 1.2 -22.45 1.15 -22.05 0.75 -20.45 0.6 -19.6 -1.35 -18.1 -1.45 -18.05 M-2.85 -29.45 L-2.9 -29.55 -3.05 -29.9 -1.4 -31.5 -0.95 -31.75 -2.95 -29.8 -2.8 -29.5 -2.95 -29.8 -0.95 -31.75 -1.4 -31.5 -1.05 -31.85 -3.4 -30.65 -3.45 -30.6 -3.65 -30.95 -3.65 -31.0 1.05 -34.95 1.45 -35.25 1.45 -35.2 1.6 -35.35 2.3 -35.9 2.5 -35.4 2.55 -35.3 2.7 -34.95 2.9 -34.5 3.05 -34.1 1.5 -32.9 1.5 -33.3 1.5 -33.75 -2.8 -29.5 -2.85 -29.45 M-3.65 -31.0 L-3.55 -30.85 -3.4 -30.65 -3.55 -30.85 -3.65 -31.0 M2.0 -20.9 L1.95 -20.7 0.95 -19.85 2.0 -20.9" fill="#c69982" fill-rule="evenodd" stroke="none"/>
    <path d="M2.3 -3.4 L3.35 -3.85 3.4 -3.7 3.8 -2.9 4.5 -1.75 4.6 -1.6 1.9 1.05 0.95 -2.0 2.1 -3.15 2.2 -3.25 2.3 -3.4 M-1.75 -0.7 L-2.7 -3.05 -2.7 -3.1 -2.6 -2.95 -1.95 -1.4 -1.95 -1.35 -1.65 -0.6 -1.85 -1.3 -1.8 -1.1 -1.55 -0.35 -1.55 -0.3 -1.55 -0.35 -1.8 -1.1 -1.85 -1.3 -1.65 -0.6 -1.95 -1.35 -1.95 -1.4 -2.6 -2.95 -2.7 -3.1 -0.05 -5.75 0.35 -4.0 0.15 -3.8 -1.55 -0.3 -1.6 -0.2 -1.65 -0.45 -1.9 -1.2 -1.95 -1.4 -1.75 -0.7 M-2.6 -8.65 L-2.25 -10.4 -1.9 -12.7 -1.7 -13.95 -1.6 -14.1 -1.6 -13.9 -1.6 -13.85 -1.8 -12.6 -1.85 -12.3 -2.15 -10.3 -2.45 -8.85 -2.15 -10.3 -1.85 -12.3 -1.8 -12.6 -1.6 -13.85 -1.6 -13.9 -1.6 -14.1 0.0 -15.65 -0.1 -14.75 -0.35 -10.9 -0.5 -10.75 -2.45 -8.85 -2.6 -8.65 M-1.4 -21.05 L-1.4 -21.8 -1.55 -23.8 -1.85 -25.7 -2.2 -27.45 -2.85 -29.45 -2.8 -29.5 1.5 -33.75 1.5 -33.3 Q1.5 -31.15 0.85 -29.05 0.3 -27.3 -0.75 -25.85 0.35 -25.05 0.8 -23.75 L0.95 -23.35 -1.3 -21.15 -1.3 -21.7 -1.35 -22.55 -1.45 -23.7 -1.75 -25.6 -2.1 -27.35 -2.75 -29.35 -2.8 -29.45 -2.8 -29.5 -2.8 -29.45 -2.75 -29.35 -2.1 -27.35 -1.75 -25.6 -1.45 -23.7 -1.35 -22.55 -1.3 -21.7 -1.3 -21.15 -1.4 -21.05 M1.25 -36.9 L1.65 -37.3 1.95 -36.55 2.25 -36.0 1.6 -35.35 1.45 -35.2 1.45 -35.25 1.25 -36.9 M1.2 -22.45 L2.7 -23.95 2.5 -23.3 2.35 -22.65 2.0 -20.9 0.95 -19.85 0.55 -19.5 0.6 -19.6 0.75 -20.45 1.15 -22.05 1.2 -22.45 M1.65 -9.95 L1.7 -9.6 1.8 -8.85 -0.2 -6.8 -0.3 -8.0 1.65 -9.95 M3.4 -3.7 L2.1 -3.15 3.4 -3.7 M4.8 3.4 L4.55 4.3 4.35 5.25 4.2 6.15 4.1 6.8 2.65 8.25 2.5 5.7 4.8 3.4" fill="#ffffff" fill-rule="evenodd" stroke="none"/>
    <path d="M6.35 6.95 L16.9 -10.45 16.65 -9.75 6.45 7.05 6.35 6.95 6.45 7.05 16.65 -9.75 13.75 -2.55 Q11.1 3.4 9.05 9.6 L9.8 9.4 8.95 9.65 8.95 9.95 8.5 11.35 8.4 11.9 5.05 14.3 Q4.7 14.55 4.65 14.85 3.9 17.8 2.0 20.15 L0.9 17.3 0.5 16.7 0.25 16.05 Q-1.7 12.95 -4.9 11.4 -5.05 11.0 -5.2 11.4 L-5.05 9.75 -5.15 9.75 -5.05 9.75 -5.2 11.4 -5.2 11.45 -5.25 11.5 -5.2 11.3 -5.2 11.45 -5.2 11.3 -5.25 11.5 -5.35 11.85 -5.15 9.75 -5.15 9.65 -5.5 9.55 -7.05 4.9 -11.25 -7.65 -2.75 6.7 -1.05 8.55 1.9 11.75 4.05 9.4 6.35 6.95 M18.1 -12.45 L18.2 -12.55 18.15 -12.5 18.1 -12.45 M7.85 17.55 L11.6 21.5 5.45 18.55 7.05 16.7 6.85 15.6 8.45 14.8 7.75 17.45 7.85 17.55 M-7.8 21.45 L-3.95 17.45 -4.65 14.85 -4.55 14.9 -3.85 17.55 -7.45 21.25 -3.85 17.55 -4.55 14.9 -4.65 14.85 -4.65 14.8 -3.1 15.6 -3.3 16.7 -1.75 18.45 -2.15 18.6 -7.45 21.25 -7.8 21.45 M-13.9 -11.5 L-14.35 -12.85 -14.2 -12.6 -13.8 -11.45 -14.2 -12.6 -13.2 -10.9 -13.4 -11.25 -13.8 -11.45 -13.9 -11.5 M8.95 9.65 L8.35 9.85 8.95 9.65 M2.5 13.05 Q2.35 12.75 2.1 12.8 1.8 12.75 1.65 13.25 L1.45 14.35 1.65 15.45 Q1.8 15.9 2.1 15.9 L2.5 15.6 2.6 15.45 2.8 14.35 2.6 13.25 2.5 13.05" fill="#ffcc99" fill-rule="evenodd" stroke="none"/>
    <path d="M16.9 -10.45 L16.95 -10.5 16.95 -10.55 18.1 -12.45 18.15 -12.5 18.0 -12.0 17.05 -10.45 17.0 -10.35 16.65 -9.75 17.0 -10.35 17.05 -10.45 18.0 -12.0 11.05 9.05 9.8 9.4 9.05 9.6 Q11.1 3.4 13.75 -2.55 L16.65 -9.75 16.9 -10.45 M11.6 21.5 L12.55 22.5 4.95 19.2 5.45 18.55 11.6 21.5 M-8.9 22.75 L-9.25 22.95 -7.8 21.45 -7.45 21.25 -8.9 22.75 -7.45 21.25 -2.15 18.6 -1.75 18.45 -1.15 19.15 -8.9 22.75 M-5.35 11.85 L-5.3 11.2 -5.35 11.85 -5.25 11.5 -5.2 11.45 -5.25 11.95 -5.2 11.4 -5.25 11.95 -5.2 11.45 -5.2 11.4 Q-5.05 11.0 -4.9 11.4 -1.7 12.95 0.25 16.05 L0.5 16.7 0.9 17.3 2.0 20.15 Q3.9 17.8 4.65 14.85 4.7 14.55 5.05 14.3 L8.4 11.9 8.5 11.35 8.95 9.95 9.15 11.85 9.25 12.95 8.9 13.15 8.65 13.3 6.65 14.55 5.4 15.35 2.55 20.55 1.25 20.55 -1.65 15.35 -1.95 15.15 -2.9 14.55 -3.85 13.95 -2.9 14.55 -1.95 15.15 -2.9 14.55 -3.85 13.95 -5.45 12.95 -5.35 11.9 -5.25 11.95 -5.25 11.5 -5.25 11.95 -5.35 11.9 -5.35 11.85 M-7.2 9.1 L-7.3 9.05 -13.8 -11.25 -13.9 -11.5 -13.8 -11.45 -13.4 -11.25 -13.2 -10.9 -13.1 -10.8 -11.25 -7.65 -7.05 4.9 -5.5 9.55 -7.2 9.1 -13.8 -11.45 -7.2 9.1" fill="#d29244" fill-rule="evenodd" stroke="none"/>
    <path d="M4.45 5.3 L5.15 5.95 6.35 6.95 4.05 9.4 4.05 7.9 4.1 6.8 4.2 6.15 4.35 5.25 4.45 5.3 4.45 5.35 5.15 5.95 4.45 5.35 4.45 5.3 M9.2 11.8 L21.6 6.1 20.7 6.65 9.25 11.95 9.2 11.8 9.25 11.95 20.7 6.65 20.0 7.1 19.95 7.15 18.1 8.3 12.6 11.7 11.75 14.7 10.05 14.0 8.45 14.8 6.85 15.6 7.05 16.7 5.45 18.55 4.95 19.2 4.05 20.2 3.25 21.2 0.55 21.2 -0.2 20.3 -0.3 20.15 -0.7 19.7 -1.05 19.25 -1.15 19.15 -1.75 18.45 -3.3 16.7 -3.1 15.6 -4.65 14.8 -6.25 13.95 -7.9 14.65 -8.0 14.7 -8.8 11.7 -8.75 11.75 -7.9 14.65 -8.75 11.75 -8.8 11.7 -8.85 11.65 -17.2 6.45 -17.5 6.25 -5.35 11.85 -5.35 11.9 -5.45 12.95 -3.85 13.95 -2.9 14.55 -3.1 15.6 -2.9 14.55 -1.95 15.15 -1.65 15.35 1.25 20.55 2.55 20.55 5.4 15.35 6.65 14.55 8.65 13.3 8.9 13.15 9.25 12.95 9.15 11.85 9.2 11.8 M-2.75 6.65 L-1.15 5.15 -1.15 5.35 -1.1 6.25 -1.1 6.4 -1.05 8.0 -1.05 8.55 -2.75 6.7 -2.75 6.65 -2.65 6.8 -1.15 5.35 -2.65 6.8 -2.75 6.65 M6.85 15.6 L6.65 14.55 6.85 15.6 M-5.35 11.9 L-17.2 6.45 -5.35 11.9 M-0.7 19.7 L-0.2 20.25 -0.2 20.3 -0.2 20.25 -0.7 19.7" fill="#f08a64" fill-rule="evenodd" stroke="none"/>
    <path d="M2.65 35.8 L2.95 36.1 2.45 38.4 2.3 38.5 1.9 38.75 1.45 38.5 1.4 38.45 1.3 38.4 0.8 36.1 1.25 35.7 0.15 33.8 0.5 32.8 -0.6 31.5 -0.1 30.45 -0.6 29.85 -0.15 28.85 -0.6 28.3 -0.15 27.3 -0.6 26.75 -0.2 25.8 -0.6 25.3 -0.2 24.3 -0.6 23.85 -0.25 22.9 -0.6 22.45 -0.25 21.5 -0.6 21.05 -0.3 20.15 -0.2 20.3 0.55 21.2 3.25 21.2 4.05 20.2 4.35 21.05 4.0 21.5 4.35 22.45 4.0 22.9 4.35 23.85 3.95 24.3 4.35 25.3 3.95 25.8 4.35 26.75 3.95 27.3 4.35 28.3 3.9 28.85 4.35 29.85 3.9 30.45 4.35 31.5 3.3 32.8 3.6 33.8 2.55 35.7 2.65 35.8 M2.35 38.75 L2.4 38.75 2.35 38.95 2.35 38.75 2.35 38.95 2.15 39.8 1.9 39.95 1.7 39.85 1.6 39.8 1.4 38.75 1.55 38.85 1.65 38.9 1.9 39.05 2.25 38.85 2.35 38.75 M2.5 13.05 L2.6 13.25 2.8 14.35 2.6 15.45 2.5 15.6 2.1 15.9 Q1.8 15.9 1.65 15.45 L1.45 14.35 1.65 13.25 Q1.8 12.75 2.1 12.8 2.35 12.75 2.5 13.05 M1.3 35.85 L1.5 36.2 2.25 36.2 2.55 35.7 2.25 36.2 1.5 36.2 1.3 35.85 0.9 36.2 1.4 38.45 0.9 36.2 1.3 35.85 1.25 35.7 1.3 35.85 1.35 35.8 0.25 33.9 0.6 32.9 -0.5 31.6 0.0 30.55 -0.5 29.95 -0.05 28.95 -0.5 28.4 -0.05 27.4 -0.5 26.85 -0.1 25.9 -0.5 25.4 -0.1 24.4 -0.5 23.95 -0.15 23.0 -0.5 22.55 -0.15 21.6 -0.5 21.15 -0.2 20.3 -0.5 21.15 -0.15 21.6 -0.5 22.55 -0.15 23.0 -0.5 23.95 -0.1 24.4 -0.5 25.4 -0.1 25.9 -0.5 26.85 -0.05 27.4 -0.5 28.4 -0.05 28.95 -0.5 29.95 0.0 30.55 -0.5 31.6 0.6 32.9 0.25 33.9 1.35 35.8 1.3 35.85 M1.65 38.9 L1.65 38.95 1.5 38.85 1.7 39.85 1.5 38.85 1.65 38.95 1.65 38.9" fill="#923d1d" fill-rule="evenodd" stroke="none"/>
    <path d="M1.55 38.85 L1.45 38.55 1.45 38.5 1.9 38.75 2.3 38.5 2.25 38.85 1.9 39.05 1.65 38.9 1.55 38.85 M1.45 38.55 L1.55 38.6 1.65 38.9 1.55 38.6 1.45 38.55" fill="#355555" fill-rule="evenodd" stroke="none"/>
    <path d="M-5.05 -32.35 L-5.2 -32.45 -4.65 -32.9 -3.4 -34.2 -1.9 -36.05 -1.2 -37.1 -0.5 -38.2 0.2 -39.3 0.2 -39.35 0.6 -39.95 0.65 -40.05 0.7 -39.9 0.7 -39.85 0.9 -39.3 0.95 -39.0 M2.25 -3.35 L2.3 -3.4 3.35 -3.85 3.4 -3.7 3.8 -2.9 4.5 -1.75 4.6 -1.6 5.25 -0.75 5.7 -0.25 M4.45 5.3 L5.15 5.95 M6.35 6.95 L16.9 -10.45 M16.95 -10.5 L16.95 -10.55 18.1 -12.45 18.2 -12.55 18.15 -12.5 18.0 -12.0 11.05 9.05 9.8 9.4 8.95 9.65 8.95 9.95 9.15 11.85 9.2 11.8 21.6 6.1 20.7 6.65 20.0 7.1 19.95 7.15 M2.35 38.75 L2.4 38.75 2.35 38.95 2.15 39.8 1.9 39.95 1.7 39.85 1.6 39.8 1.4 38.75 1.55 38.85 1.45 38.55 1.45 38.5 1.9 38.75 2.3 38.5 2.45 38.4 2.95 36.1 M1.4 38.45 L1.3 38.4 0.8 36.1 1.25 35.7 0.15 33.8 0.5 32.8 -0.6 31.5 -0.1 30.45 -0.6 29.85 -0.15 28.85 -0.6 28.3 -0.15 27.3 -0.6 26.75 -0.2 25.8 -0.6 25.3 -0.2 24.3 -0.6 23.85 -0.25 22.9 -0.6 22.45 -0.25 21.5 -0.6 21.05 -0.3 20.15 -0.7 19.7 M-8.9 22.75 L-9.25 22.95 -7.8 21.45 -3.95 17.45 -4.65 14.85 -4.65 14.8 -3.1 15.6 -2.9 14.55 -1.95 15.15 -1.65 15.35 1.25 20.55 2.55 20.55 5.4 15.35 6.65 14.55 8.65 13.3 M-7.9 14.65 L-8.0 14.7 -8.8 11.7 -8.85 11.65 -17.2 6.45 -17.5 6.25 -5.35 11.85 -5.15 9.75 -5.15 9.65 -5.5 9.55 -7.2 9.1 -7.3 9.05 -13.8 -11.25 M-5.3 11.2 L-5.35 11.85 -5.35 11.9 -5.45 12.95 -3.85 13.95 -2.9 14.55 M-13.9 -11.5 L-14.35 -12.85 -14.2 -12.6 -13.2 -10.9 -13.1 -10.8 -11.25 -7.65 -2.75 6.7 -1.05 8.55 -1.05 8.0 -1.1 6.4 -1.1 6.25 -1.15 5.35 -1.15 5.15 -1.2 4.25 -1.2 4.15 -1.3 2.3 -1.5 0.5 -1.5 0.45 -1.6 -0.2 -1.65 -0.45 -1.75 -0.7 -1.95 -1.4 -1.9 -1.2 M-2.75 6.65 L-1.15 5.15 M-1.65 -0.4 L-1.75 -0.7 -2.7 -3.05 -2.85 -3.35 -3.15 -3.85 -3.65 -4.5 -3.75 -4.6 -3.35 -6.0 -3.3 -6.15 -2.75 -8.15 -2.6 -8.65 -2.25 -10.4 -1.9 -12.7 -1.7 -13.95 -1.7 -14.0 -1.6 -15.15 -1.45 -17.45 -1.45 -18.05 -1.4 -19.7 -1.4 -19.9 -1.4 -21.05 -1.4 -21.8 -1.55 -23.8 -1.85 -25.7 -2.2 -27.45 -2.85 -29.45 -2.9 -29.55 -3.05 -29.9 -1.4 -31.5 -1.05 -31.85 -3.4 -30.65 -3.45 -30.6 M-3.65 -30.95 L-3.9 -31.35 -4.25 -31.75 -5.05 -32.35 M0.9 -39.0 L1.25 -36.9 M1.65 -37.3 L1.4 -37.85 1.0 -38.9 M2.9 -34.5 L2.7 -34.95 2.55 -35.3 2.5 -35.4 2.3 -35.9 2.25 -36.0 1.95 -36.55 1.65 -37.3 M0.7 -39.85 L0.85 -39.3 0.9 -39.0 M2.9 -34.5 L3.15 -33.95 3.85 -32.5 4.5 -31.35 4.75 -30.95 5.0 -30.6 4.95 -30.55 4.7 -30.1 4.7 -30.05 4.45 -29.5 M4.3 -29.55 L4.7 -30.2 4.95 -30.55 M2.9 -24.75 L3.1 -25.55 3.4 -26.4 3.85 -27.95 4.4 -29.45 M2.7 -23.95 L2.5 -23.3 2.35 -22.65 2.0 -20.9 1.95 -20.7 1.9 -20.45 1.6 -18.1 1.5 -17.2 1.5 -16.85 1.4 -15.5 1.4 -14.1 1.4 -12.7 1.4 -12.6 1.5 -11.1 1.65 -9.95 1.7 -9.6 1.8 -8.85 1.95 -8.25 2.05 -7.8 2.3 -6.8 2.5 -6.1 2.5 -6.0 2.7 -5.4 3.0 -4.6 2.0 -3.25 2.25 -3.35 M4.8 3.4 L4.55 4.3 4.35 5.25 4.45 5.3 M4.35 5.25 L4.2 6.15 4.1 6.8 4.05 7.9 4.05 9.4 6.35 6.95 M4.8 3.4 L5.55 0.95 5.9 -0.05 M18.1 8.3 L12.6 11.7 11.75 14.7 10.05 14.0 8.45 14.8 7.75 17.45 7.85 17.55 M8.35 9.85 L8.95 9.65 M4.05 9.4 L1.9 11.75 -1.05 8.55 M8.9 13.15 L9.25 12.95 9.15 11.85 M8.45 14.8 L6.85 15.6 7.05 16.7 5.45 18.55 4.95 19.2 4.05 20.2 4.35 21.05 4.0 21.5 4.35 22.45 4.0 22.9 4.35 23.85 3.95 24.3 4.35 25.3 3.95 25.8 4.35 26.75 3.95 27.3 4.35 28.3 3.9 28.85 4.35 29.85 3.9 30.45 4.35 31.5 3.3 32.8 3.6 33.8 2.55 35.7 2.65 35.8 M6.65 14.55 L6.85 15.6 M-0.2 20.3 L0.55 21.2 3.25 21.2 4.05 20.2 M12.55 22.5 L4.95 19.2 M2.55 35.7 L2.25 36.2 1.5 36.2 1.3 35.85 1.25 35.7 M1.4 38.45 L1.45 38.5 M-0.2 20.3 L-0.3 20.15 M2.25 38.85 L2.35 38.75 M1.65 38.9 L1.55 38.85 M1.65 38.9 L1.9 39.05 2.25 38.85 2.3 38.5 M-1.65 -0.4 L-1.6 -0.2 M-2.75 6.65 L-2.75 6.7 M-4.65 14.8 L-6.25 13.95 -7.9 14.65 M-3.1 15.6 L-3.3 16.7 -1.75 18.45 -1.15 19.15 -1.05 19.25 M-1.15 19.15 L-8.9 22.75" fill="none" stroke="#000000" stroke-linecap="round" stroke-linejoin="round" stroke-width="0.05"/>
    <path d="M0.7 -39.85 L0.8 -39.8 0.9 -39.3 0.95 -39.0 1.0 -38.9 1.05 -38.9 1.5 -37.75 1.75 -37.2 2.05 -36.45 2.35 -35.9 2.4 -35.8 2.6 -35.3 2.65 -35.2 2.8 -34.85 3.0 -34.4 3.25 -33.85 3.95 -32.4 4.6 -31.25 4.85 -30.85 5.1 -30.5 5.05 -30.45 4.8 -30.1 4.45 -29.5 4.4 -29.45 4.55 -29.4 3.95 -27.85 3.5 -26.3 3.2 -25.45 3.0 -24.65 2.95 -24.55 2.8 -23.85 2.6 -23.2 2.45 -22.55 2.1 -20.8 2.05 -20.6 2.0 -20.35 1.95 -19.95 1.7 -18.0 1.6 -17.1 1.6 -16.75 1.5 -15.4 1.5 -15.05 1.5 -14.0 1.5 -12.6 1.5 -12.5 1.5 -12.3 1.6 -11.0 1.75 -9.85 1.8 -9.5 1.9 -8.75 2.05 -8.15 2.15 -7.7 2.4 -6.7 2.6 -6.0 2.6 -5.9 2.8 -5.3 3.1 -4.5 2.25 -3.35 2.2 -3.25 2.1 -3.15 3.4 -3.7 3.45 -3.75 3.9 -2.8 4.6 -1.65 4.7 -1.5 5.35 -0.65 5.7 -0.25 5.9 -0.05 6.0 0.05 5.65 1.05 4.9 3.5 4.65 4.4 4.5 5.05 4.45 5.3 4.45 5.35 5.15 5.95 6.35 6.95 6.45 7.05 16.65 -9.75 17.0 -10.35 17.05 -10.45 18.0 -12.0 18.3 -12.45 11.15 9.15 9.05 9.75 9.2 11.8 9.25 11.95 20.7 6.65 21.7 6.2 20.0 7.1 M19.95 7.15 L18.1 8.3 12.7 11.8 11.85 14.8 10.15 14.1 8.55 14.9 7.85 17.55 11.6 21.5 12.55 22.5 12.65 22.6 5.05 19.3 4.15 20.3 4.45 21.15 4.1 21.6 4.45 22.55 4.1 23.0 4.45 23.95 4.05 24.4 4.45 25.4 4.05 25.9 4.45 26.85 4.05 27.4 4.45 28.4 4.0 28.95 4.45 29.95 4.0 30.55 4.45 31.6 3.4 32.9 3.7 33.9 2.65 35.8 2.95 36.1 3.05 36.2 2.55 38.5 2.4 38.6 2.35 38.75 2.35 38.95 2.5 38.85 2.25 39.9 2.0 40.05 1.7 39.9 1.7 39.85 1.5 38.85 1.65 38.95 1.65 38.9 1.55 38.6 1.45 38.55 1.4 38.5 1.4 38.45 0.9 36.2 1.3 35.85 1.35 35.8 0.25 33.9 0.6 32.9 -0.5 31.6 0.0 30.55 -0.5 29.95 -0.05 28.95 -0.5 28.4 -0.05 27.4 -0.5 26.85 -0.1 25.9 -0.5 25.4 -0.1 24.4 -0.5 23.95 -0.15 23.0 -0.5 22.55 -0.15 21.6 -0.5 21.15 -0.2 20.3 -0.2 20.25 -0.7 19.7 -1.05 19.25 -9.15 23.05 -8.9 22.75 -7.45 21.25 -3.85 17.55 -4.55 14.9 -4.65 14.85 -6.15 14.05 -7.9 14.8 -7.9 14.65 -8.75 11.75 -8.8 11.7 -17.4 6.35 -17.2 6.45 -5.35 11.9 -5.25 11.95 -5.2 11.45 -5.2 11.3 -5.25 11.5 -5.25 11.95 -5.2 11.4 -5.05 9.75 -5.15 9.75 -7.2 9.15 -7.2 9.1 -13.8 -11.45 -14.2 -12.6 -14.25 -12.75 -13.0 -10.7 -11.15 -7.55 -2.75 6.65 -2.65 6.8 -1.15 5.35 -1.05 5.25 -1.05 5.05 -1.1 4.35 -1.1 4.25 -1.2 2.4 -1.4 0.6 -1.4 0.55 -1.5 -0.1 -1.55 -0.25 -1.55 -0.3 -1.55 -0.35 -1.8 -1.1 -1.85 -1.3 -1.65 -0.6 -1.95 -1.35 -1.95 -1.4 -2.6 -2.95 -2.7 -3.1 -2.75 -3.25 -3.05 -3.75 -3.65 -4.5 -3.25 -5.9 -3.2 -6.05 -3.1 -6.3 -2.65 -8.05 -2.5 -8.55 -2.45 -8.85 -2.15 -10.3 -1.85 -12.3 -1.8 -12.6 -1.6 -13.85 -1.6 -13.9 -1.6 -14.1 -1.5 -15.05 -1.35 -17.35 -1.35 -17.95 -1.35 -18.1 -1.3 -19.6 -1.3 -19.8 -1.3 -19.95 -1.3 -20.95 -1.3 -21.15 -1.3 -21.7 -1.35 -22.55 -1.45 -23.7 -1.75 -25.6 -2.1 -27.35 -2.75 -29.35 -2.8 -29.45 -2.8 -29.5 -2.95 -29.8 -0.95 -31.75 -1.4 -31.5 -3.35 -30.5 -3.4 -30.65 -3.55 -30.85 -3.65 -31.0 -3.8 -31.25 -4.25 -31.75 -5.1 -32.35 -5.05 -32.35 -4.55 -32.8 -3.3 -34.1 -1.8 -35.95 -1.1 -37.0 -0.4 -38.1 0.3 -39.25 0.35 -39.3 0.7 -39.85 M-1.55 -0.3 L-1.55 -0.25 -1.5 -0.1 -1.55 -0.25 -1.55 -0.3" fill="none" stroke="#551a0b" stroke-linecap="round" stroke-linejoin="round" stroke-width="0.25"/>
    <path d="M2.5 13.05 Q2.35 12.75 2.1 12.8 1.8 12.75 1.65 13.25 L1.45 14.35 1.65 15.45 Q1.8 15.9 2.1 15.9 L2.5 15.6 2.6 15.45 2.8 14.35 2.6 13.25 2.5 13.05 Z" fill="none" stroke="#3e2f7b" stroke-linecap="round" stroke-linejoin="round" stroke-width="0.05"/>
  </g>
</svg>
