<?xml version="1.0" encoding="UTF-8" standalone="no"?>
<svg xmlns:xlink="http://www.w3.org/1999/xlink" height="47.75px" width="46.85px" xmlns="http://www.w3.org/2000/svg">
  <g transform="matrix(1.0, 0.0, 0.0, 1.0, -251.55, -176.6)">
    <path d="M284.85 191.55 Q289.0 193.0 298.4 176.6 L294.9 185.75 291.4 190.45 291.1 190.85 290.6 191.55 Q288.5 193.1 286.15 193.95 L285.55 196.8 284.9 196.4 285.65 194.15 284.75 194.4 281.85 194.9 Q279.95 192.1 279.15 188.45 273.5 191.05 267.7 195.8 L265.25 192.25 Q273.2 190.35 281.1 183.9 281.85 187.85 283.4 189.1 L282.55 193.15 284.85 191.55" fill="#546554" fill-rule="evenodd" stroke="none"/>
    <path d="M298.4 176.6 Q298.25 183.1 296.4 187.95 L294.9 185.75 298.4 176.6" fill="#dfe3df" fill-rule="evenodd" stroke="none"/>
    <path d="M283.4 189.1 L283.4 191.55 282.55 193.15 283.4 189.1 M296.4 187.95 Q295.4 190.45 293.95 192.5 L291.4 190.45 294.9 185.75 296.4 187.95 M293.05 193.7 L291.55 195.25 290.6 191.55 291.1 190.85 293.05 193.7 M284.9 196.4 L283.7 197.35 284.75 194.4 285.65 194.15 284.9 196.4 M278.45 192.55 Q274.4 193.65 269.1 199.5 L267.7 195.8 Q273.5 191.05 279.15 188.45 L278.45 192.55" fill="#a8b9a8" fill-rule="evenodd" stroke="none"/>
    <path d="M283.4 191.55 L284.85 191.55 282.55 193.15 283.4 191.55 M293.95 192.5 Q293.05 192.35 293.05 193.7 L291.1 190.85 291.4 190.45 293.95 192.5 M291.55 195.25 Q290.45 194.95 286.15 196.6 L285.55 196.8 286.15 193.95 Q288.5 193.1 290.6 191.55 L291.55 195.25 M283.7 197.35 L279.6 197.15 278.45 192.55 279.15 188.45 Q279.95 192.1 281.85 194.9 L284.75 194.4 283.7 197.35" fill="#7e8f7e" fill-rule="evenodd" stroke="none"/>
    <path d="M283.4 189.1 L283.4 191.55 284.85 191.55 Q289.0 193.0 298.4 176.6 298.25 183.1 296.4 187.95 295.4 190.45 293.95 192.5 293.05 192.35 293.05 193.7 L291.55 195.25 Q290.45 194.95 286.15 196.6 L285.55 196.8 284.9 196.4 283.7 197.35 279.6 197.15 278.45 192.55 Q274.4 193.65 269.1 199.5 L267.7 195.8 265.25 192.25 Q273.2 190.35 281.1 183.9 281.85 187.85 283.4 189.1 Z" fill="none" stroke="#000000" stroke-linecap="round" stroke-linejoin="round" stroke-opacity="0.4" stroke-width="0.05"/>
    <path d="M252.35 213.0 Q252.7 211.5 253.55 211.95 254.6 211.7 256.15 215.95 L256.15 216.8 Q255.9 216.95 255.7 217.15 255.45 214.9 254.35 214.9 L253.2 217.7 253.2 215.45 Q251.9 219.1 251.9 222.4 251.05 217.9 252.35 213.0 M260.9 185.75 L262.2 187.5 263.95 188.7 263.5 190.55 261.85 187.85 260.9 185.75" fill="#000000" fill-rule="evenodd" stroke="none"/>
    <path d="M255.7 217.15 Q252.7 219.6 252.35 224.35 L251.9 222.4 Q251.9 219.1 253.2 215.45 L253.2 217.7 254.35 214.9 Q255.45 214.9 255.7 217.15 M264.25 187.75 L263.95 188.7 262.2 187.5 260.9 185.75 Q260.5 184.45 260.45 183.05 260.7 184.8 262.55 186.55 L264.25 187.75" fill="#999999" fill-rule="evenodd" stroke="none"/>
    <path d="M263.95 188.7 L264.25 187.75 264.4 186.95 265.55 187.7 264.6 190.2 263.95 188.7 M265.25 191.75 L266.3 189.7 266.4 190.3 266.85 191.75 265.95 193.3 265.25 191.75 M267.2 192.85 L268.15 195.55 267.3 196.5 266.5 194.6 267.2 192.85 M268.6 196.8 L270.15 200.35 268.95 200.3 267.95 198.0 268.6 196.8 M270.85 202.7 Q271.1 204.6 270.5 205.85 L269.9 204.3 269.9 202.6 269.45 201.5 270.85 202.7 M269.9 206.85 L269.35 207.85 268.6 207.65 Q269.25 206.8 269.55 205.8 L269.9 206.85" fill="#e7d083" fill-rule="evenodd" stroke="none"/>
    <path d="M263.95 188.7 L264.6 190.2 265.25 191.75 265.95 193.3 266.5 194.6 267.3 196.5 267.95 198.0 268.95 200.3 269.45 201.5 269.9 202.6 269.9 204.3 269.55 205.8 Q269.25 206.8 268.6 207.65 L267.9 207.4 268.85 205.55 Q269.75 203.95 268.85 201.9 L268.0 200.2 264.75 193.85 263.5 191.35 263.5 190.55 263.95 188.7" fill="#9f8f5a" fill-rule="evenodd" stroke="none"/>
    <path d="M254.1 204.85 L255.15 207.15 254.1 204.85 Q255.55 203.8 255.85 202.6 L256.95 204.7 255.85 202.6 Q257.05 202.05 258.1 200.15 L259.25 202.45 258.1 200.15 Q259.65 199.35 261.3 197.4 L263.7 196.05 263.95 195.8 264.35 195.35 265.4 197.65 Q264.85 197.85 264.55 198.6 L263.95 195.8 264.55 198.6 Q263.2 197.6 261.85 200.25 260.1 200.0 259.25 202.45 258.25 202.2 257.25 204.25 L256.95 204.7 Q255.8 204.55 255.15 207.15 L254.45 208.1 254.0 210.7 Q252.9 210.15 251.8 211.5 L254.1 204.85 M261.85 200.25 L261.3 197.4 261.85 200.25" fill="#993300" fill-rule="evenodd" stroke="none"/>
    <path d="M251.8 211.5 Q252.9 210.15 254.0 210.7 L254.45 208.1 255.15 207.15 Q255.8 204.55 256.95 204.7 L257.25 204.25 Q258.25 202.2 259.25 202.45 260.1 200.0 261.85 200.25 263.2 197.6 264.55 198.6 264.85 197.85 265.4 197.65 L264.35 195.35 Q264.85 194.6 264.75 193.85 L268.0 200.2 Q266.5 199.55 265.05 201.45 263.7 200.3 262.35 203.15 260.8 202.65 260.45 204.75 258.85 204.15 258.2 206.95 256.6 206.85 256.1 209.4 255.65 210.45 257.0 212.95 258.3 215.5 257.65 217.0 L256.55 217.6 256.15 216.8 256.15 215.95 Q254.6 211.7 253.55 211.95 252.7 211.5 252.35 213.0 L251.8 211.5 M255.15 207.15 L256.1 209.4 255.15 207.15 M265.05 201.45 L264.55 198.6 265.05 201.45 M258.2 206.95 L256.95 204.7 258.2 206.95 M262.35 203.15 L261.85 200.25 262.35 203.15 M260.45 204.75 L259.25 202.45 260.45 204.75" fill="#5f1f00" fill-rule="evenodd" stroke="none"/>
    <path d="M264.6 190.2 L265.55 187.7 265.95 188.0 266.3 189.7 265.25 191.75 264.6 190.2 M266.85 191.75 L267.2 192.85 266.5 194.6 265.95 193.3 266.85 191.75 M268.15 195.55 L268.6 196.8 267.95 198.0 267.3 196.5 268.15 195.55 M270.15 200.35 L270.5 201.1 270.85 202.7 269.45 201.5 268.95 200.3 270.15 200.35 M270.5 205.85 L270.5 205.9 269.9 206.85 269.55 205.8 269.9 204.3 270.5 205.85" fill="#f2e7bf" fill-rule="evenodd" stroke="none"/>
    <path d="M255.15 207.15 L254.1 204.85 251.8 211.5 252.35 213.0 Q252.7 211.5 253.55 211.95 254.6 211.7 256.15 215.95 L256.15 216.8 256.55 217.6 257.65 217.0 Q258.3 215.5 257.0 212.95 255.65 210.45 256.1 209.4 L255.15 207.15 M256.95 204.7 L255.85 202.6 Q255.55 203.8 254.1 204.85 M255.7 217.15 Q252.7 219.6 252.35 224.35 L251.9 222.4 Q251.05 217.9 252.35 213.0 M255.7 217.15 Q255.9 216.95 256.15 216.8 M263.95 188.7 L264.25 187.75 262.55 186.55 Q260.7 184.8 260.45 183.05 260.5 184.45 260.9 185.75 L261.85 187.85 263.5 190.55 263.95 188.7 M265.55 187.7 L264.4 186.95 264.25 187.75 M266.3 189.7 L265.95 188.0 265.55 187.7 M264.75 193.85 L263.5 191.35 263.5 190.55 M266.3 189.7 L266.4 190.3 266.85 191.75 267.2 192.85 268.15 195.55 268.6 196.8 270.15 200.35 270.5 201.1 270.85 202.7 Q271.1 204.6 270.5 205.85 L270.5 205.9 269.9 206.85 269.35 207.85 268.6 207.65 267.9 207.4 268.85 205.55 Q269.75 203.95 268.85 201.9 L268.0 200.2 Q266.5 199.55 265.05 201.45 263.7 200.3 262.35 203.15 260.8 202.65 260.45 204.75 258.85 204.15 258.2 206.95 256.6 206.85 256.1 209.4 M264.35 195.35 L263.95 195.8 264.55 198.6 265.05 201.45 M264.35 195.35 Q264.85 194.6 264.75 193.85 L268.0 200.2 M263.95 195.8 L263.7 196.05 261.3 197.4 261.85 200.25 262.35 203.15 M258.1 200.15 Q257.05 202.05 255.85 202.6 M259.25 202.45 L258.1 200.15 Q259.65 199.35 261.3 197.4 M256.95 204.7 L258.2 206.95 M259.25 202.45 L260.45 204.75" fill="none" stroke="#000000" stroke-linecap="round" stroke-linejoin="round" stroke-opacity="0.4" stroke-width="0.05"/>
    <path d="M264.6 190.2 L265.55 187.7 M265.25 191.75 L266.3 189.7 M266.5 194.6 L267.2 192.85 M267.95 198.0 L268.6 196.8 M267.3 196.5 L268.15 195.55 M269.9 204.3 L270.5 205.85 M269.45 201.5 L270.85 202.7 M268.95 200.3 L270.15 200.35 M269.55 205.8 L269.9 206.85 M265.95 193.3 L266.85 191.75" fill="none" stroke="#513600" stroke-linecap="round" stroke-linejoin="round" stroke-opacity="0.1882353" stroke-width="0.05"/>
  </g>
</svg>
