<?xml version="1.0" encoding="UTF-8" standalone="no"?>
<svg xmlns:xlink="http://www.w3.org/1999/xlink" height="74.0px" width="81.45px" xmlns="http://www.w3.org/2000/svg">
  <g transform="matrix(1.0, 0.0, 0.0, 1.0, -234.75, -105.95)">
    <path d="M268.95 115.3 L270.05 126.75 271.65 143.8 270.45 148.6 263.9 140.95 270.45 148.6 271.65 143.8 270.05 126.75 Q272.65 123.3 276.3 121.0 L279.25 108.0 280.4 107.6 277.3 120.45 278.95 119.5 Q283.55 117.65 288.0 117.45 L295.5 106.7 296.65 107.0 289.2 117.4 290.4 117.4 301.1 108.75 302.0 109.25 291.65 117.5 Q297.8 118.1 303.7 121.8 L304.4 122.3 313.0 120.2 313.45 121.15 305.35 123.0 306.9 124.3 315.1 125.65 315.15 125.9 315.3 126.45 307.6 124.9 301.8 123.8 305.35 123.0 301.8 123.8 307.6 124.9 Q310.55 127.95 312.0 131.95 L316.15 134.0 316.1 134.7 312.4 133.2 Q313.95 138.6 312.85 145.55 L312.8 145.6 Q312.7 143.4 312.15 141.2 310.15 133.8 303.9 129.7 L302.75 129.0 Q296.9 125.6 290.5 126.4 L287.5 127.0 Q282.5 128.35 278.95 131.65 276.8 133.65 275.25 136.35 271.1 143.55 273.3 151.6 L273.75 153.25 270.05 150.4 263.2 145.15 Q263.35 143.6 263.65 142.15 L254.1 131.55 251.95 126.8 263.9 140.95 Q265.6 133.05 269.4 127.65 L268.4 116.0 268.95 115.3 M270.45 148.6 L270.05 150.4 270.45 148.6 M303.9 129.7 L312.4 133.2 303.9 129.7 M278.95 131.65 L285.7 122.25 291.65 117.5 285.7 122.25 278.95 131.65 M289.2 117.4 L285.7 122.25 289.2 117.4 M277.3 120.45 L271.65 143.8 277.3 120.45 M301.8 123.8 L290.5 126.4 301.8 123.8" fill="#e3c991" fill-rule="evenodd" stroke="none"/>
    <path d="M270.05 126.75 L268.95 115.3 Q273.15 110.35 279.25 108.0 L276.3 121.0 Q272.65 123.3 270.05 126.75 M268.4 116.0 L269.4 127.65 Q265.6 133.05 263.9 140.95 L251.95 126.8 Q259.55 128.15 264.15 122.25 L266.05 119.4 268.4 116.0 M256.35 139.95 Q255.55 135.45 254.1 131.55 L263.65 142.15 Q263.35 143.6 263.2 145.15 L256.35 139.95 M315.3 126.45 Q316.25 130.25 316.15 134.0 L312.0 131.95 Q310.55 127.95 307.6 124.9 L315.3 126.45 M316.1 134.7 Q315.7 140.35 312.85 145.55 L312.85 145.65 312.8 145.6 312.85 145.55 Q313.95 138.6 312.4 133.2 L316.1 134.7 M313.45 121.15 Q314.45 123.25 315.1 125.65 L306.9 124.3 305.35 123.0 313.45 121.15 M313.0 120.2 L304.4 122.3 303.7 121.8 Q297.8 118.1 291.65 117.5 L302.0 109.25 302.65 109.6 Q309.55 113.6 313.0 120.2 M296.65 107.0 Q298.85 107.6 301.1 108.75 L290.4 117.4 289.2 117.4 296.65 107.0 M277.3 120.45 L280.4 107.6 282.4 107.0 Q289.15 105.2 295.5 106.7 L288.0 117.45 Q283.55 117.65 278.95 119.5 L277.3 120.45" fill="#ead6aa" fill-rule="evenodd" stroke="none"/>
    <path d="M238.15 165.7 L239.2 164.85 244.8 159.35 245.75 158.25 249.55 153.25 250.8 151.35 253.55 146.55 254.55 144.35 Q258.7 147.0 258.05 150.8 L256.95 151.8 256.85 151.9 Q254.0 154.4 251.6 157.5 L250.8 158.5 Q248.85 161.1 247.25 164.05 L246.6 165.3 244.2 170.4 238.15 165.7 M253.55 146.55 L256.95 151.8 253.55 146.55 M252.0 153.8 L252.0 153.4 251.95 153.8 252.0 153.8 M249.55 153.25 L251.6 157.5 249.55 153.25 M245.75 158.25 L250.8 158.5 245.75 158.25 M250.8 151.35 L256.85 151.9 250.8 151.35 M239.2 164.85 L246.6 165.3 239.2 164.85 M244.8 159.35 L247.25 164.05 244.8 159.35" fill="#d20000" fill-rule="evenodd" stroke="none"/>
    <path d="M254.55 144.35 L255.2 142.95 258.35 145.35 269.6 153.95 Q263.65 154.1 259.7 156.1 255.8 158.2 253.8 162.05 L252.15 158.55 251.6 157.5 252.15 158.55 253.8 162.05 Q251.6 166.3 251.85 173.0 L247.9 165.35 247.25 164.05 247.9 165.35 251.85 173.0 252.05 176.35 244.2 170.4 246.6 165.3 247.9 165.35 246.6 165.3 247.25 164.05 Q248.85 161.1 250.8 158.5 L251.6 157.5 Q254.0 154.4 256.85 151.9 L256.95 151.8 258.05 150.8 Q258.7 147.0 254.55 144.35 M256.85 151.9 L257.0 151.9 259.7 156.1 257.0 151.9 256.85 151.9 M257.0 151.9 L256.95 151.8 257.0 151.9 M252.0 153.8 L251.95 153.8 252.0 153.4 252.0 153.8 M250.8 158.5 L252.15 158.55 250.8 158.5" fill="#990000" fill-rule="evenodd" stroke="none"/>
    <path d="M255.2 142.95 L252.25 140.7 Q251.6 138.4 254.15 138.3 L256.35 139.95 263.2 145.15 270.05 150.4 273.75 153.25 276.05 154.95 276.15 156.15 259.25 143.45 259.35 144.65 Q259.15 145.35 258.35 145.35 L255.2 142.95 M237.4 168.25 L234.9 166.45 Q234.35 164.55 236.55 164.45 L238.15 165.7 244.2 170.4 252.05 176.35 254.25 178.05 254.3 179.0 254.25 179.2 239.85 168.1 Q240.05 168.9 239.8 169.25 239.6 169.65 238.95 169.5 L237.4 168.25" fill="#ffe375" fill-rule="evenodd" stroke="none"/>
    <path d="M269.6 153.95 L258.35 145.35 Q259.15 145.35 259.35 144.65 L275.6 157.1 Q275.15 157.5 274.35 157.6 L269.6 153.95 M249.1 177.25 L238.95 169.5 Q239.6 169.65 239.8 169.25 L253.95 179.8 Q253.5 180.05 252.3 179.8 L249.1 177.25" fill="#ffcc00" fill-rule="evenodd" stroke="none"/>
    <path d="M259.35 144.65 L259.25 143.45 276.15 156.15 275.9 156.75 275.6 157.1 259.35 144.65 M239.8 169.25 Q240.05 168.9 239.85 168.1 L254.25 179.2 254.15 179.45 253.95 179.8 239.8 169.25" fill="#d2a800" fill-rule="evenodd" stroke="none"/>
    <path d="M237.4 168.25 L238.95 169.5 249.1 177.25 Q245.55 180.5 241.65 178.45 240.25 175.4 241.5 173.65 L236.95 169.95 237.4 168.25" fill="#999999" fill-rule="evenodd" stroke="none"/>
    <path d="M236.95 169.95 L241.5 173.65 Q240.25 175.4 241.65 178.45 240.95 178.1 240.2 177.55 236.2 174.6 236.95 169.95" fill="#cccccc" fill-rule="evenodd" stroke="none"/>
    <path d="M268.95 115.3 L268.4 116.0 266.05 119.4 264.15 122.25 Q259.55 128.15 251.95 126.8 L254.1 131.55 Q255.55 135.45 256.35 139.95 L263.2 145.15 270.05 150.4 273.75 153.25 276.05 154.95 276.15 156.15 275.9 156.75 275.6 157.1 Q275.15 157.5 274.35 157.6 L269.6 153.95 258.35 145.35 255.2 142.95 252.25 140.7 Q251.6 138.4 254.15 138.3 L256.35 139.95 M279.25 108.0 Q273.15 110.35 268.95 115.3 M238.15 165.7 L239.2 164.85 244.8 159.35 245.75 158.25 249.55 153.25 250.8 151.35 253.55 146.55 254.55 144.35 255.2 142.95 M256.95 151.8 L253.55 146.55 M259.7 156.1 L257.0 151.9 256.85 151.9 250.8 151.35 M251.6 157.5 L252.15 158.55 253.8 162.05 Q255.8 158.2 259.7 156.1 263.65 154.1 269.6 153.95 M256.95 151.8 L257.0 151.9 M251.6 157.5 L249.55 153.25 M252.15 158.55 L250.8 158.5 245.75 158.25 M247.25 164.05 L247.9 165.35 251.85 173.0 Q251.6 166.3 253.8 162.05 M312.8 145.6 Q312.7 143.4 312.15 141.2 310.15 133.8 303.9 129.7 L302.75 129.0 Q296.9 125.6 290.5 126.4 L287.5 127.0 Q282.5 128.35 278.95 131.65 276.8 133.65 275.25 136.35 271.1 143.55 273.3 151.6 L273.75 153.25 M237.4 168.25 L234.9 166.45 Q234.35 164.55 236.55 164.45 L238.15 165.7 244.2 170.4 252.05 176.35 254.25 178.05 254.3 179.0 254.25 179.2 254.15 179.45 253.95 179.8 Q253.5 180.05 252.3 179.8 L249.1 177.25 238.95 169.5 237.4 168.25 236.95 169.95 Q236.2 174.6 240.2 177.55 240.95 178.1 241.65 178.45 245.55 180.5 249.1 177.25 M246.6 165.3 L239.2 164.85 M247.9 165.35 L246.6 165.3 M247.25 164.05 L244.8 159.35 M251.85 173.0 L252.05 176.35 M315.1 125.65 L315.15 125.9 315.3 126.45 Q316.25 130.25 316.15 134.0 L316.1 134.7 Q315.7 140.35 312.85 145.55 L312.85 145.65 312.8 145.6 M313.45 121.15 Q314.45 123.25 315.1 125.65 M313.0 120.2 L313.45 121.15 M313.0 120.2 Q309.55 113.6 302.65 109.6 L302.0 109.25 301.1 108.75 Q298.85 107.6 296.65 107.0 L295.5 106.7 Q289.15 105.2 282.4 107.0 L280.4 107.6 279.25 108.0" fill="none" stroke="#000000" stroke-linecap="round" stroke-linejoin="round" stroke-opacity="0.49803922" stroke-width="0.1"/>
    <path d="M270.05 126.75 L268.95 115.3 M263.9 140.95 L270.45 148.6 271.65 143.8 270.05 126.75 M251.95 126.8 L263.9 140.95 M270.05 150.4 L270.45 148.6 M312.4 133.2 L303.9 129.7 M305.35 123.0 L301.8 123.8 307.6 124.9 315.3 126.45 M313.45 121.15 L305.35 123.0 M302.0 109.25 L291.65 117.5 285.7 122.25 278.95 131.65 M277.3 120.45 L280.4 107.6 M285.7 122.25 L289.2 117.4 296.65 107.0 M312.4 133.2 L316.1 134.7 M290.5 126.4 L301.8 123.8 M271.65 143.8 L277.3 120.45" fill="none" stroke="#674934" stroke-linecap="round" stroke-linejoin="round" stroke-opacity="0.3019608" stroke-width="0.1"/>
    <path d="M259.5 143.95 L258.9 144.4 258.15 144.3 Q257.8 144.1 257.7 143.7 257.6 143.3 257.75 142.95 258.0 142.6 258.4 142.5 L259.1 142.6 259.55 143.2 259.5 143.95" fill="#ffffff" fill-rule="evenodd" stroke="none"/>
    <path d="M240.55 169.1 L240.1 169.4 239.6 169.35 239.2 168.95 Q239.1 168.65 239.3 168.4 L239.7 168.05 240.25 168.15 240.6 168.6 240.55 169.1" fill="#ffffff" fill-rule="evenodd" stroke="none"/>
    <path d="M239.9 172.8 Q239.6 173.3 239.1 173.4 L238.05 173.3 Q237.6 173.0 237.45 172.5 237.3 171.95 237.55 171.45 237.85 171.0 238.4 170.85 L239.4 170.95 Q239.9 171.25 240.05 171.8 L239.9 172.8" fill="#ffffff" fill-rule="evenodd" stroke="none"/>
    <path d="M240.8 175.7 L240.2 176.15 239.45 176.05 239.0 175.45 Q238.9 175.05 239.05 174.7 239.3 174.35 239.7 174.25 L240.4 174.35 240.85 174.95 240.8 175.7" fill="#ffffff" fill-rule="evenodd" stroke="none"/>
  </g>
</svg>
