<?xml version="1.0" encoding="UTF-8" standalone="no"?>
<svg xmlns:xlink="http://www.w3.org/1999/xlink" height="115.6px" width="62.75px" xmlns="http://www.w3.org/2000/svg">
  <g transform="matrix(1.0, 0.0, 0.0, 1.0, -241.95, -149.8)">
    <path d="M301.25 156.9 L296.0 166.1 283.75 187.8 Q278.3 198.65 277.8 204.45 L277.5 205.0 Q276.35 206.95 275.95 208.55 277.05 199.2 283.15 187.05 L295.9 164.95 304.6 149.9 Q302.7 153.55 301.25 156.9" fill="#aaaaaa" fill-rule="evenodd" stroke="none"/>
    <path d="M304.6 149.9 L295.9 164.95 Q289.0 173.1 286.3 174.85 282.95 176.8 282.1 173.55 277.8 181.0 274.65 189.2 272.45 196.9 269.15 202.75 L266.05 205.15 Q270.0 200.5 273.2 191.05 276.1 182.35 283.65 168.35 280.85 176.5 288.05 170.3 295.2 164.1 304.6 149.9" fill="#ffffff" fill-rule="evenodd" stroke="none"/>
    <path d="M296.0 166.1 L301.25 156.9 Q296.55 167.05 294.8 174.3 293.1 181.35 296.4 179.75 L298.8 178.0 299.4 177.45 294.15 186.05 Q288.65 194.25 283.25 199.45 279.95 202.55 277.95 206.4 276.55 209.0 275.7 211.95 L275.95 208.55 Q276.35 206.95 277.5 205.0 L277.8 204.45 Q279.1 201.35 282.15 198.5 289.1 192.0 295.05 182.1 290.05 182.5 296.0 166.1 M295.9 164.95 L283.15 187.05 Q276.6 196.5 269.15 202.75 272.45 196.9 274.65 189.2 277.8 181.0 282.1 173.55 282.95 176.8 286.3 174.85 289.0 173.1 295.9 164.95" fill="#f5f5f5" fill-rule="evenodd" stroke="none"/>
    <path d="M277.8 204.45 Q278.3 198.65 283.75 187.8 L296.0 166.1 Q290.05 182.5 295.05 182.1 289.1 192.0 282.15 198.5 279.1 201.35 277.8 204.45" fill="#cccccc" fill-rule="evenodd" stroke="none"/>
    <path d="M273.2 201.75 L273.4 201.35 Q273.8 200.65 274.35 200.35 L275.35 200.3 275.7 200.9 275.55 201.35 275.5 201.4 274.55 202.3 273.6 202.35 273.2 201.8 273.2 201.75 M267.6 210.8 Q267.95 209.85 268.6 208.75 269.55 207.05 270.6 206.15 271.65 205.3 272.25 205.65 272.65 205.85 272.65 206.55 L271.55 209.1 269.5 211.65 Q268.45 212.6 267.95 212.25 267.4 212.0 267.6 210.8" fill="#3636cf" fill-rule="evenodd" stroke="none"/>
    <path d="M283.15 187.05 Q277.05 199.2 275.95 208.55 L275.7 211.95 275.25 213.65 Q273.45 215.45 272.65 214.4 271.75 212.6 272.0 209.15 L272.6 207.3 272.65 206.55 Q272.65 205.85 272.25 205.65 271.65 205.3 270.6 206.15 269.55 207.05 268.6 208.75 267.95 209.85 267.6 210.8 L267.35 211.8 267.35 212.05 Q267.25 209.55 268.4 207.6 266.95 208.7 265.95 210.6 265.05 212.15 263.15 210.6 262.45 209.65 262.55 208.7 L266.05 205.15 269.15 202.75 Q276.6 196.5 283.15 187.05 M275.65 201.65 L275.7 201.1 275.7 200.9 275.35 200.3 274.35 200.35 Q273.8 200.65 273.4 201.35 L273.2 201.75 273.05 201.95 Q272.65 202.6 272.7 203.3 272.75 204.05 273.2 204.35 L274.3 204.25 275.35 203.3 Q275.75 202.6 275.65 201.9 L275.65 201.65" fill="#949494" fill-rule="evenodd" stroke="none"/>
    <path d="M275.25 213.65 Q274.55 216.7 274.3 220.05 L259.05 211.3 262.55 208.7 Q262.45 209.65 263.15 210.6 265.05 212.15 265.95 210.6 266.95 208.7 268.4 207.6 267.25 209.55 267.35 212.05 267.2 213.2 267.7 213.5 268.25 213.8 269.35 212.95 L271.4 210.4 272.0 209.15 Q271.75 212.6 272.65 214.4 273.45 215.45 275.25 213.65 M275.65 201.65 L275.65 201.9 Q275.75 202.6 275.35 203.3 L274.3 204.25 273.2 204.35 Q272.75 204.05 272.7 203.3 272.65 202.6 273.05 201.95 L273.2 201.75 273.2 201.8 Q273.0 202.2 273.05 202.7 273.0 203.35 273.45 203.6 L274.4 203.45 275.35 202.5 275.65 201.65" fill="#555555" fill-rule="evenodd" stroke="none"/>
    <path d="M275.7 200.9 L275.7 201.1 275.65 201.65 275.35 202.5 274.4 203.45 273.45 203.6 Q273.0 203.35 273.05 202.7 273.0 202.2 273.2 201.8 L273.6 202.35 274.55 202.3 275.5 201.4 275.55 201.35 275.7 200.9 M272.65 206.55 L272.6 207.3 272.0 209.15 271.4 210.4 269.35 212.95 Q268.25 213.8 267.7 213.5 267.2 213.2 267.35 212.05 L267.35 211.8 267.6 210.8 Q267.4 212.0 267.95 212.25 268.45 212.6 269.5 211.65 L271.55 209.1 272.65 206.55 M258.65 231.7 L258.3 232.45 257.4 233.45 256.5 233.6 256.4 233.55 Q256.0 233.3 256.0 232.65 L256.0 232.5 Q256.8 233.05 258.65 231.7" fill="#000099" fill-rule="evenodd" stroke="none"/>
    <path d="M274.3 220.05 L278.0 222.25 278.55 223.4 255.85 210.45 Q255.95 211.5 254.65 211.75 L253.75 211.2 Q252.8 209.05 254.9 208.9 L259.05 211.3 274.3 220.05 M255.45 248.8 L256.1 249.15 256.15 250.05 243.35 242.65 Q243.7 243.65 242.1 243.85 241.9 242.95 242.25 242.45 242.55 241.85 243.3 241.65 L243.4 241.6 244.25 242.15 246.4 243.45 246.6 243.6 Q248.85 244.85 251.0 246.2 L255.45 248.8" fill="#acbcd2" fill-rule="evenodd" stroke="none"/>
    <path d="M278.55 223.4 Q278.75 224.6 276.8 224.55 L274.15 223.0 265.75 218.15 261.25 215.55 256.55 212.85 254.65 211.75 Q255.95 211.5 255.85 210.45 L278.55 223.4 M256.15 250.05 L255.95 250.55 Q255.65 251.1 254.8 251.35 L253.7 250.75 242.85 244.35 242.1 243.85 Q243.7 243.65 243.35 242.65 L256.15 250.05 M252.9 251.2 L252.25 251.5 247.05 251.7 Q250.15 251.35 250.35 249.75 L252.9 251.2" fill="#5978a6" fill-rule="evenodd" stroke="none"/>
    <path d="M274.15 223.0 L272.7 223.25 Q271.1 223.8 269.35 225.5 L268.9 227.25 266.25 228.75 264.25 231.15 263.0 232.8 261.25 235.4 260.65 238.1 259.1 239.25 257.2 243.6 257.2 246.75 255.95 247.1 255.45 248.8 251.0 246.2 251.4 245.65 251.0 246.2 Q248.85 244.85 246.6 243.6 L251.4 245.65 252.15 246.05 254.4 243.95 253.85 242.55 252.65 239.3 252.25 238.7 251.85 238.05 251.55 237.45 254.25 237.45 256.5 233.6 257.4 233.45 258.3 232.45 258.65 231.7 258.75 231.1 258.6 230.55 258.7 230.55 261.5 229.1 261.2 228.55 259.0 223.6 259.4 223.5 259.0 223.6 257.55 220.55 258.8 222.45 259.4 223.5 260.0 224.4 260.5 225.25 260.0 224.4 264.0 224.9 265.85 225.1 269.8 221.95 265.45 219.45 260.85 216.85 261.25 215.55 260.85 216.85 257.2 214.75 256.55 212.85 261.25 215.55 265.75 218.15 265.45 219.45 265.75 218.15 274.15 223.0 M262.5 228.4 L261.2 228.55 262.5 228.4 261.4 226.7 262.5 228.4 264.25 231.15 262.5 228.4 M260.5 225.25 L261.4 226.7 266.4 227.4 266.9 226.55 263.7 225.9 264.0 224.9 263.7 225.9 260.5 225.25 M269.35 225.5 L268.05 226.8 266.9 226.55 268.05 226.8 269.35 225.5 M258.6 230.55 L258.7 230.55 258.6 230.55 M257.65 238.0 L256.05 238.2 252.25 238.7 256.05 238.2 257.65 238.0 260.5 233.9 263.0 232.8 260.5 233.9 257.65 238.0 259.9 237.7 259.1 239.25 259.9 237.7 257.65 238.0 M256.15 240.3 L257.15 240.05 257.95 238.65 256.3 238.9 256.05 238.2 256.3 238.9 252.65 239.3 253.55 240.9 254.45 242.35 255.4 244.05 254.45 242.35 253.55 240.9 256.15 240.3 255.7 241.05 255.4 244.05 255.7 241.05 256.15 240.3 M253.85 242.55 L254.45 242.35 253.85 242.55 M255.95 247.1 L256.45 245.7 255.4 244.05 256.45 245.7 255.95 247.1" fill="#666600" fill-rule="evenodd" stroke="none"/>
    <path d="M244.25 242.15 L247.8 238.65 249.15 235.95 250.9 238.3 252.7 240.7 251.45 238.15 251.85 238.05 251.45 238.15 250.05 235.35 250.2 234.65 250.9 234.45 252.35 231.9 Q253.9 228.9 255.1 225.25 L255.55 219.55 258.05 223.95 259.6 226.7 258.35 223.8 256.35 218.85 257.1 218.25 Q257.5 216.35 257.2 214.75 L260.85 216.85 265.45 219.45 269.8 221.95 265.85 225.1 264.0 224.9 260.0 224.4 259.4 223.5 258.8 222.45 257.55 220.55 256.8 219.3 257.1 218.25 256.8 219.3 257.55 220.55 259.0 223.6 261.2 228.55 260.55 228.55 258.7 230.55 258.6 230.55 258.3 230.25 257.35 230.3 Q256.8 230.65 256.4 231.35 256.05 231.9 256.0 232.5 L256.0 232.65 Q256.0 233.3 256.4 233.55 L256.5 233.6 254.25 237.45 251.55 237.45 251.85 238.05 252.25 238.7 252.65 239.3 253.85 242.55 253.05 242.9 251.4 245.65 253.05 242.9 253.85 242.55 254.4 243.95 252.15 246.05 251.4 245.65 246.6 243.6 246.4 243.45 250.15 240.05 250.25 238.4 250.9 238.3 250.25 238.4 250.15 240.05 246.4 243.45 244.25 242.15 M260.85 216.85 L258.8 222.45 260.85 216.85 M261.4 226.7 L260.5 225.25 263.7 225.9 266.9 226.55 266.4 227.4 261.4 226.7 M258.35 223.8 L259.0 223.6 258.35 223.8 M264.0 224.9 L265.45 219.45 264.0 224.9 M252.35 231.9 L257.0 226.15 257.55 224.1 258.05 223.95 257.55 224.1 257.0 226.15 252.35 231.9 M258.7 230.55 L260.55 228.55 261.2 228.55 261.5 229.1 258.7 230.55 M256.15 240.3 L256.55 239.6 256.3 238.9 256.55 239.6 256.15 240.3 253.55 240.9 252.65 239.3 256.3 238.9 257.95 238.65 257.15 240.05 256.15 240.3 M251.55 237.45 L256.5 233.6 251.55 237.45 250.3 235.35 250.9 234.45 250.3 235.35 251.55 237.45" fill="#a8a800" fill-rule="evenodd" stroke="none"/>
    <path d="M258.6 230.55 L258.75 231.1 258.65 231.7 Q256.8 233.05 256.0 232.5 256.05 231.9 256.4 231.35 256.8 230.65 257.35 230.3 L258.3 230.25 258.6 230.55" fill="#3636cf" fill-rule="evenodd" stroke="none"/>
    <path d="M249.15 235.95 L249.7 234.9 250.2 234.65 250.05 235.35 251.45 238.15 252.7 240.7 250.9 238.3 251.45 238.15 250.9 238.3 249.15 235.95 M255.55 219.55 L256.35 218.85 258.35 223.8 259.6 226.7 258.05 223.95 255.55 219.55 M258.05 223.95 L258.35 223.8 258.05 223.95" fill="#cccc24" fill-rule="evenodd" stroke="none"/>
    <path d="M253.7 250.75 L253.1 251.1 252.9 251.2 250.35 249.75 242.85 245.4 242.85 244.35 253.7 250.75" fill="#3f5574" fill-rule="evenodd" stroke="none"/>
    <path d="M247.05 251.7 L246.25 251.2 Q243.5 249.65 243.0 246.15 L242.85 245.4 250.35 249.75 Q250.15 251.35 247.05 251.7" fill="#869cbd" fill-rule="evenodd" stroke="none"/>
    <path d="M301.25 156.9 Q302.7 153.55 304.6 149.9 L295.9 164.95 283.15 187.05 Q277.05 199.2 275.95 208.55 L275.7 211.95 275.25 213.65 Q274.55 216.7 274.3 220.05 L278.0 222.25 278.55 223.4 Q278.75 224.6 276.8 224.55 L274.15 223.0 272.7 223.25 Q271.1 223.8 269.35 225.5 L268.05 226.8 266.9 226.55 263.7 225.9 260.5 225.25 260.0 224.4 259.4 223.5 258.8 222.45 257.55 220.55 256.8 219.3 257.1 218.25 Q257.5 216.35 257.2 214.75 L256.55 212.85 254.65 211.75 253.75 211.2 Q252.8 209.05 254.9 208.9 L259.05 211.3 262.55 208.7 266.05 205.15 Q270.0 200.5 273.2 191.05 276.1 182.35 283.65 168.35 280.85 176.5 288.05 170.3 295.2 164.1 304.6 149.9 M301.25 156.9 Q296.55 167.05 294.8 174.3 293.1 181.35 296.4 179.75 L298.8 178.0 299.4 177.45 294.15 186.05 Q288.65 194.25 283.25 199.45 279.95 202.55 277.95 206.4 276.55 209.0 275.7 211.95 M266.25 228.75 L264.25 231.15 263.0 232.8 261.25 235.4 M259.1 239.25 L257.2 243.6 M255.95 247.1 L255.45 248.8 256.1 249.15 256.15 250.05 255.95 250.55 Q255.65 251.1 254.8 251.35 L253.7 250.75 253.1 251.1 M252.9 251.2 L252.25 251.5 247.05 251.7 246.25 251.2 Q243.5 249.65 243.0 246.15 L242.85 245.4 242.85 244.35 242.1 243.85 Q241.9 242.95 242.25 242.45 242.55 241.85 243.3 241.65 L243.4 241.6 244.25 242.15 247.8 238.65 M250.9 234.45 L252.35 231.9 Q253.9 228.9 255.1 225.25 M275.7 200.9 L275.7 201.1 275.65 201.65 275.35 202.5 274.4 203.45 273.45 203.6 Q273.0 203.35 273.05 202.7 273.0 202.2 273.2 201.8 L273.2 201.75 273.4 201.35 Q273.8 200.65 274.35 200.35 L275.35 200.3 275.7 200.9 M267.6 210.8 Q267.95 209.85 268.6 208.75 269.55 207.05 270.6 206.15 271.65 205.3 272.25 205.65 272.65 205.85 272.65 206.55 L272.6 207.3 272.0 209.15 271.4 210.4 269.35 212.95 Q268.25 213.8 267.7 213.5 267.2 213.2 267.35 212.05 L267.35 211.8 267.6 210.8 M269.15 202.75 L266.05 205.15 M265.75 218.15 L261.25 215.55 256.55 212.85 M262.5 228.4 L261.4 226.7 260.5 225.25 M274.15 223.0 L265.75 218.15 M259.05 211.3 L274.3 220.05 M283.15 187.05 Q276.6 196.5 269.15 202.75 M258.6 230.55 L258.75 231.1 258.65 231.7 258.3 232.45 257.4 233.45 256.5 233.6 256.4 233.55 Q256.0 233.3 256.0 232.65 L256.0 232.5 Q256.05 231.9 256.4 231.35 256.8 230.65 257.35 230.3 L258.3 230.25 258.6 230.55 M251.55 237.45 L251.85 238.05 252.25 238.7 256.05 238.2 257.65 238.0 259.9 237.7 259.1 239.25 M252.65 239.3 L252.25 238.7 M253.55 240.9 L254.45 242.35 255.4 244.05 256.45 245.7 255.95 247.1 M253.55 240.9 L252.65 239.3 M251.0 246.2 L255.45 248.8 M251.55 237.45 L250.3 235.35 250.9 234.45 M262.5 228.4 L264.25 231.15 M246.6 243.6 Q248.85 244.85 251.0 246.2 M244.25 242.15 L246.4 243.45 M253.7 250.75 L242.85 244.35" fill="none" stroke="#000000" stroke-linecap="round" stroke-linejoin="round" stroke-opacity="0.4" stroke-width="0.2"/>
    <path d="M275.7 200.9 L275.55 201.35 275.5 201.4 274.55 202.3 273.6 202.35 273.2 201.8 M267.6 210.8 Q267.4 212.0 267.95 212.25 268.45 212.6 269.5 211.65 L271.55 209.1 272.65 206.55" fill="none" stroke="#a6a6ea" stroke-linecap="round" stroke-linejoin="round" stroke-opacity="0.4" stroke-width="0.2"/>
    <path d="M269.35 225.5 L268.9 227.25 266.25 228.75 M261.25 235.4 L260.65 238.1 259.1 239.25 M257.2 243.6 L257.2 246.75 255.95 247.1 M247.8 238.65 L249.15 235.95 249.7 234.9 250.2 234.65 250.9 234.45 M255.1 225.25 L255.55 219.55 256.35 218.85 257.1 218.25 M261.25 215.55 L260.85 216.85 258.8 222.45 M265.45 219.45 L265.75 218.15 M259.4 223.5 L259.0 223.6 258.35 223.8 258.05 223.95 257.55 224.1 257.0 226.15 252.35 231.9 M261.2 228.55 L262.5 228.4 M264.0 224.9 L263.7 225.9 M265.45 219.45 L264.0 224.9 M261.2 228.55 L260.55 228.55 258.7 230.55 258.6 230.55 M257.65 238.0 L260.5 233.9 263.0 232.8 M256.3 238.9 L256.55 239.6 256.15 240.3 255.7 241.05 255.4 244.05 M256.3 238.9 L256.05 238.2 M251.85 238.05 L251.45 238.15 250.9 238.3 250.25 238.4 250.15 240.05 246.4 243.45 M251.4 245.65 L253.05 242.9 253.85 242.55 254.45 242.35 M251.4 245.65 L251.0 246.2 M256.5 233.6 L251.55 237.45" fill="none" stroke="#000000" stroke-linecap="round" stroke-linejoin="round" stroke-opacity="0.4" stroke-width="0.2"/>
    <path d="M274.25 201.7 L273.85 201.7 Q273.7 201.55 273.85 201.3 273.9 201.05 274.2 200.75 L274.75 200.4 275.1 200.45 275.15 200.8 274.75 201.3 274.25 201.7" fill="#ffffff" fill-opacity="0.49803922" fill-rule="evenodd" stroke="none"/>
    <path d="M274.3 201.15 L274.1 201.15 274.1 200.95 274.3 200.75 274.5 200.55 274.65 200.6 274.7 200.75 274.5 200.95 274.3 201.15" fill="#ffffff" fill-opacity="0.49803922" fill-rule="evenodd" stroke="none"/>
    <path d="M269.7 208.45 L269.25 208.5 Q269.15 208.35 269.4 208.0 L269.95 207.2 270.75 206.55 271.1 206.5 271.05 207.0 270.45 207.8 269.7 208.45" fill="#ffffff" fill-opacity="0.49803922" fill-rule="evenodd" stroke="none"/>
    <path d="M270.1 207.7 L269.9 207.7 269.95 207.5 270.2 207.15 270.5 206.85 270.7 206.85 270.65 207.05 270.4 207.45 270.1 207.7" fill="#ffffff" fill-opacity="0.49803922" fill-rule="evenodd" stroke="none"/>
    <path d="M242.95 243.05 L242.6 243.0 242.55 242.7 242.8 242.4 243.25 242.2 243.55 242.3 243.65 242.55 243.4 242.85 242.95 243.05" fill="#ffffff" fill-opacity="0.49803922" fill-rule="evenodd" stroke="none"/>
    <path d="M243.0 242.65 L242.85 242.65 242.8 242.5 242.9 242.35 243.1 242.25 243.25 242.3 243.3 242.4 243.15 242.55 243.0 242.65" fill="#ffffff" fill-opacity="0.49803922" fill-rule="evenodd" stroke="none"/>
    <path d="M254.45 210.1 L254.1 210.05 Q253.95 209.95 254.05 209.75 L254.3 209.45 254.75 209.25 255.05 209.35 255.15 209.6 254.9 209.9 254.45 210.1" fill="#ffffff" fill-opacity="0.49803922" fill-rule="evenodd" stroke="none"/>
    <path d="M254.5 209.7 L254.35 209.7 254.3 209.55 254.4 209.4 254.6 209.3 254.75 209.35 254.8 209.45 254.65 209.6 254.5 209.7" fill="#ffffff" fill-opacity="0.49803922" fill-rule="evenodd" stroke="none"/>
    <path d="M257.15 231.35 L256.8 231.3 Q256.65 231.2 256.75 231.0 L257.0 230.7 257.45 230.5 257.75 230.6 257.85 230.85 257.6 231.15 257.15 231.35" fill="#ffffff" fill-opacity="0.49803922" fill-rule="evenodd" stroke="none"/>
    <path d="M257.2 231.0 L257.05 231.0 257.0 230.85 257.1 230.7 257.3 230.6 257.45 230.65 257.5 230.75 257.35 230.9 257.2 231.0" fill="#ffffff" fill-opacity="0.49803922" fill-rule="evenodd" stroke="none"/>
    <path d="M287.55 182.35 L287.0 182.75 285.9 182.55 Q285.4 182.25 285.3 181.75 285.15 181.2 285.45 180.75 285.7 180.25 286.3 180.05 L286.7 180.0" fill="none" stroke="#000000" stroke-linecap="round" stroke-linejoin="round" stroke-opacity="0.4" stroke-width="0.2"/>
    <path d="M293.2 166.4 L292.25 166.25 M297.35 165.25 Q296.35 166.0 295.15 166.3 M291.8 172.1 Q293.6 172.45 295.0 173.7 M298.45 162.85 Q295.9 164.55 293.75 164.4 M281.85 183.1 L281.75 182.65 Q280.7 178.65 283.95 175.45 L284.75 174.65 285.4 174.05 Q287.55 172.45 289.9 172.15 M278.2 182.55 Q277.35 184.55 276.0 185.35 M278.65 178.1 Q279.15 179.55 278.55 181.55 M277.85 181.4 Q277.4 183.1 275.75 184.5 M287.9 179.65 Q288.55 180.05 288.75 180.85 289.0 181.7 288.55 182.5 L287.65 183.35 M285.3 179.7 Q285.65 179.45 286.1 179.3 L286.8 179.25 M294.55 175.6 Q293.5 173.9 291.1 173.2 L288.35 173.35 M286.05 183.55 L285.55 183.25 Q284.75 182.8 284.55 182.0 L284.5 181.45 M283.25 177.8 Q282.1 179.8 282.75 182.2 283.15 183.8 282.9 185.25 M282.55 186.15 L282.4 186.55 M281.45 187.8 L281.3 187.95 Q279.95 189.25 277.4 190.3 M280.15 187.6 Q281.55 186.35 281.85 184.75 M290.35 185.3 L290.3 186.6 Q289.8 190.65 283.3 194.75 M291.3 179.65 Q289.05 182.2 289.35 186.05 L289.15 187.3 M294.4 177.3 L292.1 178.85 M293.4 178.9 Q292.05 179.75 291.25 181.25 M290.65 183.0 L290.5 183.85 M287.05 174.0 Q285.9 174.7 284.6 176.0 M288.45 189.05 Q287.2 191.25 283.95 192.95 L283.2 193.35 M281.85 194.05 L281.1 194.9 M272.7 200.45 L273.4 201.4 M273.0 198.35 L274.05 200.5 M275.6 202.3 Q276.6 203.95 275.55 208.85 M274.65 203.35 L274.7 205.65 M280.6 195.85 Q279.3 198.5 279.45 203.9 M280.85 199.3 Q280.65 200.55 280.7 202.2 M272.35 194.15 L272.45 196.2 M273.45 191.55 L273.05 191.65 M271.6 195.2 Q271.45 196.95 271.85 198.5 L271.95 198.8 M263.35 207.85 Q264.2 208.7 264.65 209.75 M264.5 207.0 L265.3 208.05 M272.05 216.55 L271.35 218.3 M275.2 210.6 L272.5 218.9 M265.1 211.3 L265.0 213.8 M266.1 209.55 Q267.0 212.1 266.05 215.45 M272.8 214.35 L272.75 214.6 M274.5 207.4 L273.5 212.1 M273.4 190.45 Q277.25 189.65 279.3 188.3" fill="none" stroke="#000000" stroke-linecap="round" stroke-linejoin="round" stroke-opacity="0.4" stroke-width="0.2"/>
    <path d="M301.35 183.3 L299.3 191.25 294.45 210.0 Q292.55 219.25 293.35 223.65 L293.2 224.15 Q292.75 225.8 292.75 227.15 291.7 219.85 293.85 209.55 L298.95 190.45 302.45 177.4 301.35 183.3" fill="#aaaaaa" fill-rule="evenodd" stroke="none"/>
    <path d="M302.45 177.4 L298.95 190.45 Q295.45 197.9 293.8 199.75 291.65 201.9 290.35 199.65 288.6 206.1 287.9 212.9 287.8 219.1 286.5 224.15 L284.7 226.55 Q286.7 222.25 287.2 214.5 287.6 207.4 290.45 195.4 290.0 202.1 294.15 196.0 298.3 189.95 302.45 177.4" fill="#ffffff" fill-rule="evenodd" stroke="none"/>
    <path d="M299.3 191.25 L301.35 183.3 Q299.85 191.9 300.05 197.65 300.2 203.25 302.3 201.4 L303.8 199.6 304.1 199.05 301.95 206.55 Q299.45 213.85 296.45 218.85 294.6 221.8 293.85 225.1 293.3 227.35 293.25 229.7 L292.75 227.15 Q292.75 225.8 293.2 224.15 L293.35 223.65 Q293.7 221.1 295.4 218.35 299.35 212.1 301.75 203.45 298.15 204.75 299.3 191.25 M298.95 190.45 L293.85 209.55 Q290.85 217.95 286.5 224.15 287.8 219.1 287.9 212.9 288.6 206.1 290.35 199.65 291.65 201.9 293.8 199.75 295.45 197.9 298.95 190.45" fill="#f5f5f5" fill-rule="evenodd" stroke="none"/>
    <path d="M293.35 223.65 Q292.55 219.25 294.45 210.0 L299.3 191.25 Q298.15 204.75 301.75 203.45 299.35 212.1 295.4 218.35 293.7 221.1 293.35 223.65" fill="#cccccc" fill-rule="evenodd" stroke="none"/>
    <path d="M291.1 221.45 L291.0 221.8 291.0 221.85 290.5 222.7 Q290.1 223.1 289.75 223.0 L289.35 222.6 289.45 222.25 289.95 221.25 Q290.25 220.9 290.65 221.0 L291.1 221.45 M286.95 230.5 L287.25 228.75 Q287.65 227.35 288.3 226.45 288.9 225.55 289.4 225.65 L289.9 226.3 289.55 228.4 288.6 230.75 Q287.95 231.65 287.45 231.55 287.05 231.4 286.95 230.5" fill="#3636cf" fill-rule="evenodd" stroke="none"/>
    <path d="M293.85 209.55 Q291.7 219.85 292.75 227.15 L293.25 229.7 293.25 231.1 Q292.25 232.8 291.5 232.15 290.45 231.0 289.95 228.4 L290.0 226.9 289.9 226.3 289.4 225.65 Q288.9 225.55 288.3 226.45 287.65 227.35 287.25 228.75 L286.95 230.5 287.0 231.3 287.0 231.45 Q286.45 229.65 286.95 227.95 286.05 229.05 285.7 230.7 285.3 232.05 283.6 231.25 282.9 230.7 282.75 229.95 L284.7 226.55 286.5 224.15 Q290.85 217.95 293.85 209.55 M289.35 222.6 L289.3 222.75 Q289.15 223.35 289.25 223.85 289.5 224.4 289.9 224.5 L290.65 224.25 291.3 223.3 Q291.45 222.75 291.2 222.2 L291.2 222.0 291.1 221.6 291.1 221.45 290.65 221.0 Q290.25 220.9 289.95 221.25 L289.45 222.25 289.35 222.6" fill="#949494" fill-rule="evenodd" stroke="none"/>
    <path d="M293.25 231.1 Q293.35 233.55 293.85 236.15 L280.65 232.6 282.75 229.95 Q282.9 230.7 283.6 231.25 285.3 232.05 285.7 230.7 286.05 229.05 286.95 227.95 286.45 229.65 287.0 231.45 287.15 232.4 287.6 232.5 288.1 232.65 288.7 231.75 L289.75 229.4 289.95 228.4 Q290.45 231.0 291.5 232.15 292.25 232.8 293.25 231.1 M289.35 222.6 L289.4 223.3 Q289.5 223.75 289.9 223.85 290.2 223.95 290.55 223.65 L291.1 222.7 291.2 222.0 291.2 222.2 Q291.45 222.75 291.3 223.3 L290.65 224.25 289.9 224.5 Q289.5 224.4 289.25 223.85 289.15 223.35 289.3 222.75 L289.35 222.6" fill="#555555" fill-rule="evenodd" stroke="none"/>
    <path d="M291.2 222.0 L291.1 222.7 290.55 223.65 Q290.2 223.95 289.9 223.85 289.5 223.75 289.4 223.3 L289.35 222.6 289.75 223.0 Q290.1 223.1 290.5 222.7 L291.0 221.85 291.0 221.8 291.1 221.45 291.1 221.6 291.2 222.0 M289.9 226.3 L290.0 226.9 289.95 228.4 289.75 229.4 288.7 231.75 Q288.1 232.65 287.6 232.5 287.15 232.4 287.0 231.45 L287.0 231.3 286.95 230.5 Q287.05 231.4 287.45 231.55 287.95 231.65 288.6 230.75 L289.55 228.4 289.9 226.3 M284.45 248.0 L284.35 248.6 283.85 249.55 283.2 249.85 283.1 249.8 282.7 249.2 282.6 249.1 Q283.35 249.35 284.45 248.0" fill="#000099" fill-rule="evenodd" stroke="none"/>
    <path d="M293.85 236.15 L297.05 237.0 297.7 237.75 278.1 232.6 Q278.35 233.4 277.45 233.8 L276.65 233.55 Q275.5 232.15 277.05 231.65 L280.65 232.6 293.85 236.15 M285.5 261.45 L286.05 261.6 286.25 262.25 275.15 259.25 Q275.65 259.95 274.5 260.35 274.2 259.75 274.3 259.3 274.45 258.8 274.95 258.5 L275.0 258.45 275.75 258.65 277.65 259.25 277.85 259.3 281.7 260.35 285.5 261.45" fill="#acbcd2" fill-rule="evenodd" stroke="none"/>
    <path d="M297.7 237.75 Q298.1 238.6 296.65 238.9 L294.35 238.3 287.1 236.35 283.2 235.3 279.1 234.2 277.45 233.8 Q278.35 233.4 278.1 232.6 L297.7 237.75 M286.25 262.25 L286.2 262.65 285.55 263.5 284.6 263.25 275.15 260.6 274.5 260.35 Q275.65 259.95 275.15 259.25 L286.25 262.25 M284.05 263.75 L283.65 264.1 Q281.75 265.45 279.8 265.25 282.05 264.4 281.85 263.15 L284.05 263.75" fill="#5978a6" fill-rule="evenodd" stroke="none"/>
    <path d="M294.35 238.3 Q293.8 238.45 293.3 238.75 292.2 239.5 291.25 241.15 L291.25 242.55 289.55 244.2 288.55 246.4 287.95 247.95 287.15 250.25 287.25 252.3 286.35 253.55 285.75 257.15 286.35 259.55 285.55 260.05 285.5 261.45 281.7 260.35 281.8 259.9 281.7 260.35 277.85 259.3 281.8 259.9 282.5 260.05 283.75 257.95 283.05 257.1 283.45 256.8 283.05 257.1 281.5 254.9 281.05 254.45 280.65 254.1 280.25 253.7 282.35 253.15 283.2 249.85 283.85 249.55 284.35 248.6 284.45 248.0 284.4 247.55 284.2 247.1 284.25 247.05 286.05 245.45 285.75 245.05 283.05 241.8 283.4 241.65 283.05 241.8 281.4 239.8 282.7 241.0 283.4 241.65 284.0 242.25 284.6 242.75 284.0 242.25 287.1 241.8 288.55 241.55 290.85 238.4 287.1 237.4 283.1 236.35 283.2 235.3 283.1 236.35 279.9 235.5 279.1 234.2 283.2 235.3 287.1 236.35 287.1 237.4 287.1 236.35 294.35 238.3 M286.7 244.7 Q286.2 244.9 285.75 245.05 286.2 244.9 286.7 244.7 L285.5 243.65 286.7 244.7 288.55 246.4 286.7 244.7 M284.6 242.75 L285.5 243.65 289.4 243.2 289.6 242.45 287.1 242.55 287.1 241.8 287.1 242.55 284.6 242.75 M291.25 241.15 L290.5 242.35 289.6 242.45 290.5 242.35 291.25 241.15 M284.2 247.1 L284.25 247.05 284.2 247.1 M284.95 252.9 L283.85 253.35 281.05 254.45 283.85 253.35 284.95 252.9 286.25 249.25 287.95 247.95 286.25 249.25 284.95 252.9 286.6 252.25 286.35 253.55 286.6 252.25 284.95 252.9 M284.15 253.85 L283.85 253.35 284.15 253.85 281.5 254.9 282.45 255.9 284.3 254.95 285.0 254.55 285.35 253.3 284.15 253.85 M284.5 257.85 L284.15 255.6 284.3 254.95 284.15 255.6 284.5 257.85 285.6 258.95 285.55 260.05 285.6 258.95 284.5 257.85 283.45 256.8 282.45 255.9 283.45 256.8 284.5 257.85" fill="#666600" fill-rule="evenodd" stroke="none"/>
    <path d="M275.75 258.65 L277.75 255.4 278.2 253.05 280.0 254.5 281.85 255.9 280.35 254.25 280.65 254.1 280.35 254.25 278.7 252.45 278.75 251.9 279.2 251.55 279.75 249.4 Q280.35 246.8 280.5 243.85 L279.75 239.45 282.45 242.3 284.15 244.05 282.65 242.15 280.15 238.8 280.6 238.2 Q280.55 236.7 279.9 235.5 L283.1 236.35 287.1 237.4 290.85 238.4 288.55 241.55 287.1 241.8 287.1 237.4 287.1 241.8 284.0 242.25 283.4 241.65 282.7 241.0 281.4 239.8 280.6 239.05 280.6 238.2 280.6 239.05 281.4 239.8 283.05 241.8 285.75 245.05 285.25 245.2 284.25 247.05 285.25 245.2 285.75 245.05 286.05 245.45 284.25 247.05 284.2 247.1 283.9 246.9 Q283.6 246.85 283.25 247.2 282.85 247.55 282.7 248.15 L282.6 249.1 282.7 249.2 283.1 249.8 283.2 249.85 282.35 253.15 280.25 253.7 280.65 254.1 281.05 254.45 281.5 254.9 283.05 257.1 283.75 257.95 282.5 260.05 281.8 259.9 277.85 259.3 277.65 259.25 279.75 255.95 279.5 254.7 280.0 254.5 279.5 254.7 279.75 255.95 277.65 259.25 275.75 258.65 M283.1 236.35 L282.7 241.0 283.1 236.35 M285.5 243.65 L284.6 242.75 287.1 242.55 289.6 242.45 289.4 243.2 285.5 243.65 M282.65 242.15 L283.05 241.8 282.65 242.15 M279.75 249.4 L282.1 244.2 282.15 242.5 282.45 242.3 282.15 242.5 282.1 244.2 279.75 249.4 M284.15 253.85 L285.35 253.3 285.0 254.55 284.3 254.95 284.45 254.35 284.15 253.85 284.45 254.35 284.3 254.95 282.45 255.9 281.5 254.9 284.15 253.85 M283.05 257.1 L282.5 257.5 281.8 259.9 282.5 257.5 283.05 257.1 M280.25 253.7 L283.2 249.85 280.25 253.7 278.95 252.4 279.2 251.55 278.95 252.4 280.25 253.7" fill="#a8a800" fill-rule="evenodd" stroke="none"/>
    <path d="M282.6 249.1 L282.7 248.15 Q282.85 247.55 283.25 247.2 283.6 246.85 283.9 246.9 L284.2 247.1 284.4 247.55 284.45 248.0 Q283.35 249.35 282.6 249.1" fill="#3636cf" fill-rule="evenodd" stroke="none"/>
    <path d="M278.2 253.05 L278.35 252.15 278.75 251.9 278.7 252.45 280.35 254.25 281.85 255.9 280.0 254.5 280.35 254.25 280.0 254.5 278.2 253.05 M279.75 239.45 L280.15 238.8 282.65 242.15 284.15 244.05 282.45 242.3 279.75 239.45 M282.45 242.3 L282.65 242.15 282.45 242.3" fill="#cccc24" fill-rule="evenodd" stroke="none"/>
    <path d="M284.6 263.25 L284.2 263.65 284.05 263.75 281.85 263.15 275.4 261.4 275.15 260.6 284.6 263.25" fill="#3f5574" fill-rule="evenodd" stroke="none"/>
    <path d="M279.8 265.25 L279.05 265.15 Q276.7 264.5 275.65 261.95 L275.4 261.4 281.85 263.15 Q282.05 264.4 279.8 265.25" fill="#869cbd" fill-rule="evenodd" stroke="none"/>
    <path d="M301.35 183.3 L302.45 177.4 298.95 190.45 293.85 209.55 Q291.7 219.85 292.75 227.15 L293.25 229.7 293.25 231.1 Q293.35 233.55 293.85 236.15 L297.05 237.0 297.7 237.75 Q298.1 238.6 296.65 238.9 L294.35 238.3 Q293.8 238.45 293.3 238.75 292.2 239.5 291.25 241.15 L290.5 242.35 289.6 242.45 287.1 242.55 284.6 242.75 284.0 242.25 283.4 241.65 282.7 241.0 281.4 239.8 280.6 239.05 280.6 238.2 Q280.55 236.7 279.9 235.5 L279.1 234.2 277.45 233.8 276.65 233.55 Q275.5 232.15 277.05 231.65 L280.65 232.6 282.75 229.95 284.7 226.55 Q286.7 222.25 287.2 214.5 287.6 207.4 290.45 195.4 290.0 202.1 294.15 196.0 298.3 189.95 302.45 177.4 M301.35 183.3 Q299.85 191.9 300.05 197.65 300.2 203.25 302.3 201.4 L303.8 199.6 304.1 199.05 301.95 206.55 Q299.45 213.85 296.45 218.85 294.6 221.8 293.85 225.1 293.3 227.35 293.25 229.7 M289.55 244.2 L288.55 246.4 287.95 247.95 287.15 250.25 M286.35 253.55 L285.75 257.15 M285.55 260.05 L285.5 261.45 286.05 261.6 286.25 262.25 286.2 262.65 285.55 263.5 284.6 263.25 284.2 263.65 M284.05 263.75 L283.65 264.1 Q281.75 265.45 279.8 265.25 L279.05 265.15 Q276.7 264.5 275.65 261.95 L275.4 261.4 275.15 260.6 274.5 260.35 Q274.2 259.75 274.3 259.3 274.45 258.8 274.95 258.5 L275.0 258.45 275.75 258.65 277.75 255.4 M279.2 251.55 L279.75 249.4 Q280.35 246.8 280.5 243.85 M291.2 222.0 L291.1 222.7 290.55 223.65 Q290.2 223.95 289.9 223.85 289.5 223.75 289.4 223.3 L289.35 222.6 289.45 222.25 289.95 221.25 Q290.25 220.9 290.65 221.0 L291.1 221.45 291.1 221.6 291.2 222.0 M286.95 230.5 L287.25 228.75 Q287.65 227.35 288.3 226.45 288.9 225.55 289.4 225.65 L289.9 226.3 290.0 226.9 289.95 228.4 289.75 229.4 288.7 231.75 Q288.1 232.65 287.6 232.5 287.15 232.4 287.0 231.45 L287.0 231.3 286.95 230.5 M286.5 224.15 L284.7 226.55 M287.1 236.35 L283.2 235.3 279.1 234.2 M286.7 244.7 L285.5 243.65 284.6 242.75 M294.35 238.3 L287.1 236.35 M280.65 232.6 L293.85 236.15 M293.85 209.55 Q290.85 217.95 286.5 224.15 M282.6 249.1 L282.7 248.15 Q282.85 247.55 283.25 247.2 283.6 246.85 283.9 246.9 L284.2 247.1 284.4 247.55 284.45 248.0 284.35 248.6 283.85 249.55 283.2 249.85 283.1 249.8 282.7 249.2 282.6 249.1 M280.25 253.7 L280.65 254.1 281.05 254.45 283.85 253.35 284.95 252.9 286.6 252.25 286.35 253.55 M284.5 257.85 L285.6 258.95 285.55 260.05 M282.45 255.9 L283.45 256.8 284.5 257.85 M281.5 254.9 L281.05 254.45 M281.7 260.35 L285.5 261.45 M281.5 254.9 L282.45 255.9 M286.7 244.7 L288.55 246.4 M280.25 253.7 L278.95 252.4 279.2 251.55 M277.85 259.3 L281.7 260.35 M284.6 263.25 L275.15 260.6 M275.75 258.65 L277.65 259.25" fill="none" stroke="#000000" stroke-linecap="round" stroke-linejoin="round" stroke-opacity="0.4" stroke-width="0.2"/>
    <path d="M291.1 221.45 L291.0 221.8 291.0 221.85 290.5 222.7 Q290.1 223.1 289.75 223.0 L289.35 222.6 M286.95 230.5 Q287.05 231.4 287.45 231.55 287.95 231.65 288.6 230.75 L289.55 228.4 289.9 226.3" fill="none" stroke="#a6a6ea" stroke-linecap="round" stroke-linejoin="round" stroke-opacity="0.4" stroke-width="0.2"/>
    <path d="M291.25 241.15 L291.25 242.55 289.55 244.2 M287.15 250.25 L287.25 252.3 286.35 253.55 M285.75 257.15 L286.35 259.55 285.55 260.05 M277.75 255.4 L278.2 253.05 278.35 252.15 278.75 251.9 279.2 251.55 M280.5 243.85 L279.75 239.45 280.15 238.8 280.6 238.2 M283.2 235.3 L283.1 236.35 282.7 241.0 M287.1 237.4 L287.1 236.35 M283.4 241.65 L283.05 241.8 282.65 242.15 282.45 242.3 282.15 242.5 282.1 244.2 279.75 249.4 M285.75 245.05 Q286.2 244.9 286.7 244.7 M287.1 241.8 L287.1 242.55 M287.1 237.4 L287.1 241.8 M285.75 245.05 L285.25 245.2 284.25 247.05 284.2 247.1 M284.95 252.9 L286.25 249.25 287.95 247.95 M283.85 253.35 L284.15 253.85 284.45 254.35 284.3 254.95 284.15 255.6 284.5 257.85 M280.65 254.1 L280.35 254.25 280.0 254.5 279.5 254.7 279.75 255.95 277.65 259.25 M281.8 259.9 L282.5 257.5 283.05 257.1 283.45 256.8 M281.8 259.9 L281.7 260.35 M283.2 249.85 L280.25 253.7" fill="none" stroke="#000000" stroke-linecap="round" stroke-linejoin="round" stroke-opacity="0.4" stroke-width="0.2"/>
    <path d="M290.2 222.3 L289.85 222.4 Q289.75 222.35 289.8 222.1 289.8 221.9 289.95 221.65 L290.25 221.3 290.55 221.25 290.65 221.5 290.45 221.95 290.2 222.3" fill="#ffffff" fill-opacity="0.49803922" fill-rule="evenodd" stroke="none"/>
    <path d="M290.05 221.85 L289.9 221.9 289.9 221.8 289.95 221.55 290.15 221.4 290.2 221.4 290.3 221.45 290.15 221.7 290.05 221.85" fill="#ffffff" fill-opacity="0.49803922" fill-rule="evenodd" stroke="none"/>
    <path d="M288.1 228.3 L287.75 228.45 287.75 228.05 288.05 227.35 288.5 226.7 288.75 226.6 288.85 226.95 288.5 227.7 288.1 228.3" fill="#ffffff" fill-opacity="0.49803922" fill-rule="evenodd" stroke="none"/>
    <path d="M288.25 227.7 L288.1 227.75 288.15 227.55 288.25 227.25 288.45 226.95 288.55 226.95 288.55 227.1 288.45 227.4 288.25 227.7" fill="#ffffff" fill-opacity="0.49803922" fill-rule="evenodd" stroke="none"/>
    <path d="M275.05 259.6 L274.75 259.65 274.65 259.45 274.8 259.15 Q274.9 259.0 275.05 258.95 L275.3 258.9 275.45 259.1 275.3 259.4 275.05 259.6" fill="#ffffff" fill-opacity="0.49803922" fill-rule="evenodd" stroke="none"/>
    <path d="M274.95 259.35 L274.85 259.35 274.8 259.3 274.8 259.15 274.95 259.05 275.1 259.05 275.1 259.1 275.05 259.25 274.95 259.35" fill="#ffffff" fill-opacity="0.49803922" fill-rule="evenodd" stroke="none"/>
    <path d="M277.05 232.6 L276.75 232.65 276.65 232.45 276.8 232.15 Q276.9 232.0 277.05 231.95 L277.3 231.9 277.45 232.1 277.3 232.4 277.05 232.6" fill="#ffffff" fill-opacity="0.49803922" fill-rule="evenodd" stroke="none"/>
    <path d="M276.95 232.3 L276.85 232.3 276.8 232.25 276.8 232.1 Q276.85 232.0 276.95 232.0 L277.1 232.0 277.1 232.05 277.05 232.2 276.95 232.3" fill="#ffffff" fill-opacity="0.49803922" fill-rule="evenodd" stroke="none"/>
    <path d="M283.3 248.0 L283.0 248.05 282.9 247.85 283.05 247.55 283.3 247.35 283.55 247.3 283.7 247.5 283.55 247.8 283.3 248.0" fill="#ffffff" fill-opacity="0.49803922" fill-rule="evenodd" stroke="none"/>
    <path d="M283.25 247.75 L283.15 247.75 283.1 247.7 283.1 247.55 Q283.15 247.45 283.25 247.45 L283.4 247.45 283.4 247.5 283.35 247.65 283.25 247.75" fill="#ffffff" fill-opacity="0.49803922" fill-rule="evenodd" stroke="none"/>
    <path d="M296.25 205.15 L295.9 205.55 295.05 205.65 294.4 205.15 Q294.2 204.75 294.35 204.35 294.45 203.9 294.8 203.7 L295.15 203.55" fill="none" stroke="#000000" stroke-linecap="round" stroke-linejoin="round" stroke-opacity="0.4" stroke-width="0.2"/>
    <path d="M297.2 192.0 L296.55 192.1 M300.1 190.4 L298.7 191.55 M297.3 196.6 Q298.75 196.5 300.05 197.2 M300.5 188.35 Q298.9 190.1 297.25 190.45 M288.75 206.4 Q288.75 207.7 287.8 209.1 M288.7 203.75 Q289.4 204.75 289.3 206.35 M289.3 207.2 Q289.0 208.85 288.1 209.75 M292.05 206.9 L291.9 206.5 Q290.35 203.75 292.1 200.65 L292.55 199.95 292.95 199.35 Q294.2 197.75 295.9 197.05 M300.1 198.7 Q299.0 197.6 297.0 197.55 296.0 197.6 295.0 198.25 M294.0 203.65 L294.5 203.2 295.0 202.95 M295.9 203.05 Q296.5 203.25 296.8 203.8 297.15 204.4 297.0 205.1 L296.5 205.9 M295.3 206.3 L294.9 206.25 Q294.25 206.05 293.85 205.5 L293.7 205.05 M292.05 202.6 Q291.6 204.35 292.6 206.0 293.2 207.15 293.3 208.25 M291.75 210.6 Q292.55 209.35 292.4 208.1 M292.75 210.45 L292.65 210.65 Q291.9 211.8 290.2 213.15 M293.25 209.0 L293.15 209.3 M298.5 202.4 Q297.35 204.75 298.3 207.55 L298.4 208.55 M298.9 206.8 L299.15 207.75 Q299.55 210.85 295.5 215.3 M298.65 205.0 L298.75 205.65 M299.9 201.4 Q299.05 202.25 298.8 203.55 M300.3 200.0 Q299.45 200.75 298.95 201.6 M294.15 198.95 Q293.4 199.75 292.75 200.95 M298.25 210.0 Q297.7 211.9 295.65 213.8 L295.15 214.3 M294.3 215.1 L293.9 215.85 M288.7 221.7 L289.4 222.25 M288.5 220.05 L289.75 221.45 M291.25 222.45 Q292.35 223.55 292.55 227.4 M290.75 223.5 L291.25 225.2 M293.65 216.65 Q293.25 218.9 294.45 222.95 M294.6 219.2 L295.05 221.4 M286.8 218.0 Q287.05 219.35 287.65 220.4 L287.8 220.6 M287.5 214.85 L287.25 215.05 M287.15 217.1 L287.7 218.55 M283.85 228.25 L284.7 228.9 M283.2 229.15 Q284.05 229.6 284.55 230.25 M291.6 232.1 L291.6 232.3 M285.55 229.85 Q286.75 231.55 286.75 234.3 M285.15 231.4 L285.6 233.25 M292.6 228.85 L292.3 235.6 M291.45 233.9 L291.3 235.4 M291.5 226.55 L291.65 230.3 M287.25 214.05 Q289.95 212.7 291.25 211.25" fill="none" stroke="#000000" stroke-linecap="round" stroke-linejoin="round" stroke-opacity="0.4" stroke-width="0.2"/>
  </g>
</svg>
