<?xml version="1.0" encoding="UTF-8" standalone="no"?>
<svg xmlns:xlink="http://www.w3.org/1999/xlink" height="50.55px" width="14.3px" xmlns="http://www.w3.org/2000/svg">
  <g transform="matrix(1.0, 0.0, 0.0, 1.0, 0.0, 0.0)">
    <path d="M6.9 5.8 Q6.3 5.8 5.9 6.2 5.5 6.6 5.5 7.2 5.5 7.8 5.9 8.2 L6.25 8.45 6.25 8.5 Q6.25 9.5 6.55 9.85 6.9 10.35 6.9 11.4 6.8 12.4 6.35 13.05 5.95 13.55 5.85 14.3 L5.85 14.4 Q5.95 15.2 6.35 15.75 6.9 16.45 6.95 17.35 L6.95 17.45 6.45 18.95 Q6.0 19.5 6.0 20.25 L6.35 21.6 Q6.8 22.15 6.8 23.2 L6.3 23.5 Q5.9 24.0 5.9 24.55 5.9 25.15 6.3 25.55 6.75 26.0 7.35 26.0 8.0 26.0 8.35 25.55 8.8 25.2 8.8 24.55 8.8 23.95 8.35 23.5 L8.05 23.25 8.05 23.2 Q8.0 22.25 7.75 21.85 7.35 21.25 7.4 20.25 7.4 19.35 7.95 18.65 L8.4 17.35 Q8.4 16.65 8.0 16.0 7.45 15.25 7.5 14.4 L7.5 14.3 7.35 14.3 Q7.35 13.4 7.85 12.75 8.25 12.15 8.3 11.4 L7.95 10.1 Q7.5 9.6 7.5 8.7 L7.5 8.5 7.9 8.2 Q8.3 7.8 8.3 7.2 8.3 6.6 7.9 6.2 7.5 5.8 6.9 5.8 M7.6 30.2 L4.7 30.25 4.45 30.3 4.2 30.35 Q3.7 30.5 3.15 30.8 L2.8 31.0 2.8 30.8 2.65 29.3 2.65 29.15 Q2.5 28.2 3.25 26.4 L3.35 26.25 3.7 25.15 3.9 23.9 3.75 22.25 3.65 21.8 3.55 21.4 2.85 18.8 2.6 17.65 2.5 17.0 Q2.4 16.25 2.45 15.4 L2.45 15.2 Q2.6 13.4 3.55 11.6 L3.8 11.05 Q4.45 9.4 3.8 7.65 L2.6 4.3 2.45 3.95 2.4 3.8 Q1.85 2.2 3.1 0.0 7.25 1.1 11.4 6.3 L11.65 6.65 Q13.0 16.85 12.95 22.55 L12.6 30.55 Q11.0 30.8 11.25 30.25 L11.35 25.75 Q11.45 16.9 11.15 6.55 9.9 4.55 10.3 8.65 11.15 20.3 10.05 25.75 9.55 28.1 8.65 29.3 L7.6 30.2" fill="#d1d6c7" fill-rule="evenodd" stroke="none"/>
    <path d="M6.9 5.8 Q7.5 5.8 7.9 6.2 8.3 6.6 8.3 7.2 8.3 7.8 7.9 8.2 L7.5 8.5 7.5 8.7 Q7.5 9.6 7.95 10.1 L8.3 11.4 Q8.25 12.15 7.85 12.75 7.35 13.4 7.35 14.3 L7.5 14.3 7.5 14.4 Q7.45 15.25 8.0 16.0 8.4 16.65 8.4 17.35 L7.95 18.65 Q7.4 19.35 7.4 20.25 7.35 21.25 7.75 21.85 8.0 22.25 8.05 23.2 L8.05 23.25 8.35 23.5 Q8.8 23.95 8.8 24.55 8.8 25.2 8.35 25.55 8.0 26.0 7.35 26.0 6.75 26.0 6.3 25.55 5.9 25.15 5.9 24.55 5.9 24.0 6.3 23.5 L6.8 23.2 Q6.8 22.15 6.35 21.6 L6.0 20.25 Q6.0 19.5 6.45 18.95 L6.95 17.45 6.95 17.35 Q6.9 16.45 6.35 15.75 5.95 15.2 5.85 14.4 L5.85 14.3 Q5.95 13.55 6.35 13.05 6.8 12.4 6.9 11.4 6.9 10.35 6.55 9.85 6.25 9.5 6.25 8.5 L6.25 8.45 5.9 8.2 Q5.5 7.8 5.5 7.2 5.5 6.6 5.9 6.2 6.3 5.8 6.9 5.8 M11.05 48.65 L10.95 49.15 3.65 46.15 1.55 46.1 0.15 44.8 0.2 44.7 0.2 44.65 1.6 45.5 2.8 45.8 3.15 45.8 11.05 48.65 M3.55 45.1 Q4.8 44.55 5.35 43.85 6.75 41.9 9.25 45.25 8.9 46.0 8.85 46.95 L3.55 45.1 M5.6 42.0 Q6.75 41.3 7.15 40.45 8.25 38.25 10.35 41.7 9.95 42.7 10.1 43.9 L5.6 42.0 M7.2 38.7 L7.15 38.65 7.4 38.45 9.65 39.15 9.5 38.6 8.45 38.15 7.45 38.4 8.15 37.3 Q8.85 35.3 11.1 38.1 10.8 39.05 11.2 40.1 L7.2 38.7 M5.85 32.5 Q5.8 31.35 6.8 31.05 L7.65 31.05 7.9 31.05 8.85 31.65 Q6.1 31.7 5.85 32.5 M5.4 44.8 L4.3 45.0 6.5 45.9 6.4 45.35 5.4 44.8 M8.2 42.75 L8.1 42.2 7.1 41.65 6.0 41.85 8.2 42.75" fill="#204571" fill-rule="evenodd" stroke="none"/>
    <path d="M11.65 6.65 L13.2 8.3 Q14.15 19.65 13.2 30.6 L12.95 30.6 12.95 31.05 12.95 31.1 8.0 31.1 8.0 31.05 Q8.95 30.55 8.5 30.15 L11.2 30.25 11.25 30.25 Q11.0 30.8 12.6 30.55 L12.95 22.55 Q13.0 16.85 11.65 6.65 M12.95 30.6 L12.6 30.55 12.95 30.6" fill="#b8bda8" fill-rule="evenodd" stroke="none"/>
    <path d="M8.5 30.15 L7.6 30.2 8.65 29.3 Q9.55 28.1 10.05 25.75 11.15 20.3 10.3 8.65 9.9 4.55 11.15 6.55 11.45 16.9 11.35 25.75 L11.25 30.25 11.2 30.25 8.5 30.15 M2.8 31.0 L0.8 30.6 0.9 29.15 1.0 27.25 2.75 26.9 1.05 26.7 1.05 26.4 1.1 25.45 1.1 25.25 1.15 25.15 Q2.6 24.45 3.7 25.15 L3.35 26.25 3.25 26.4 Q2.5 28.2 2.65 29.15 L2.65 29.3 2.8 30.8 2.8 31.0 M1.15 23.9 L1.25 21.8 3.65 21.8 3.75 22.25 3.9 23.9 Q2.35 24.95 1.15 23.9 M1.25 21.4 L1.3 17.65 Q1.45 17.25 2.6 17.65 L2.85 18.8 3.55 21.4 1.25 21.4 M1.3 17.0 L1.3 15.2 Q1.85 13.85 2.45 15.2 L2.45 15.4 Q2.4 16.25 2.5 17.0 2.3 17.5 1.3 17.0 M1.25 11.05 L1.15 7.95 3.05 7.55 1.15 7.25 1.0 4.3 2.6 4.3 3.8 7.65 Q4.45 9.4 3.8 11.05 2.8 11.55 1.25 11.05 M1.0 3.8 L0.8 0.85 3.1 0.0 Q1.85 2.2 2.4 3.8 L1.0 3.8" fill="#e2e4dc" fill-rule="evenodd" stroke="none"/>
    <path d="M1.15 25.15 L1.65 24.6 1.15 24.1 1.15 23.9 Q2.35 24.95 3.9 23.9 L3.7 25.15 Q2.6 24.45 1.15 25.15 M1.25 21.8 L1.25 21.4 3.55 21.4 3.65 21.8 1.25 21.8 M1.3 17.65 L1.3 17.0 Q2.3 17.5 2.5 17.0 L2.6 17.65 Q1.45 17.25 1.3 17.65 M1.3 15.2 L1.25 13.05 1.75 12.7 1.25 12.35 1.25 11.75 2.05 11.5 1.25 11.3 1.25 11.05 Q2.8 11.55 3.8 11.05 L3.55 11.6 Q2.6 13.4 2.45 15.2 1.85 13.85 1.3 15.2 M1.0 4.3 L1.0 3.8 2.4 3.8 2.45 3.95 2.6 4.3 1.0 4.3" fill="#ffffff" fill-rule="evenodd" stroke="none"/>
    <path d="M12.95 31.05 L13.8 31.05 Q14.8 31.9 13.8 32.7 L13.35 32.7 13.35 33.25 Q12.75 34.1 12.7 34.95 12.6 35.9 13.2 36.8 L12.95 37.15 Q12.5 37.75 12.5 38.5 12.4 39.25 12.8 40.15 12.05 41.1 11.9 42.25 11.75 43.15 11.95 44.15 10.55 45.4 10.8 47.65 L10.8 47.7 10.75 47.8 10.8 48.35 11.05 48.65 3.15 45.8 3.2 45.8 3.25 45.65 3.4 45.05 3.55 45.1 8.85 46.95 Q8.9 46.0 9.25 45.25 6.75 41.9 5.35 43.85 5.9 43.0 5.55 42.0 L5.6 42.0 10.1 43.9 Q9.95 42.7 10.35 41.7 8.25 38.25 7.15 40.45 7.5 39.65 7.2 38.7 L11.2 40.1 Q10.8 39.05 11.1 38.1 8.85 35.3 8.15 37.3 8.3 36.65 8.05 36.0 L8.1 36.0 8.85 34.6 Q8.95 33.95 8.65 33.25 L8.65 32.7 8.55 32.7 5.9 33.15 5.85 32.5 Q6.1 31.7 8.85 31.65 L7.9 31.05 8.0 31.05 8.0 31.1 12.95 31.1 12.95 31.05 M10.95 49.15 Q11.85 50.35 10.55 50.55 L0.3 46.5 Q-0.2 45.75 0.15 44.8 L1.55 46.1 3.65 46.15 10.95 49.15" fill="#000000" fill-rule="evenodd" stroke="none"/>
    <path d="M11.25 30.25 L11.2 30.25 11.25 30.25" fill="#c4dcdf" fill-rule="evenodd" stroke="none"/>
    <path d="M7.4 38.45 L7.35 38.45 7.45 38.4 8.45 38.15 9.5 38.6 9.65 39.15 7.4 38.45 M5.4 44.8 L6.4 45.35 6.5 45.9 4.3 45.0 5.4 44.8 M8.2 42.75 L6.0 41.85 7.1 41.65 8.1 42.2 8.2 42.75" fill="#387cc0" fill-rule="evenodd" stroke="none"/>
    <path d="M10.8 47.7 L10.8 47.8 10.75 47.8 10.8 47.7" fill="#a97e01" fill-rule="evenodd" stroke="none"/>
    <path d="M11.65 6.65 L13.2 8.3 Q14.15 19.65 13.2 30.6 L12.95 30.6 12.95 31.05 13.8 31.05 Q14.8 31.9 13.8 32.7 M13.35 32.7 L13.35 33.25 M8.65 33.25 L8.65 32.7 M5.9 33.15 L5.85 32.5 Q5.8 31.35 6.8 31.05 L7.65 31.05 M7.9 31.05 L8.0 31.05 Q8.95 30.55 8.5 30.15 L7.6 30.2 4.7 30.25 4.45 30.3 4.2 30.35 Q3.7 30.5 3.15 30.8 L2.8 31.0 0.8 30.6 0.9 29.15 1.0 27.25 2.75 26.9 M1.05 26.7 L1.05 26.4 1.1 25.45 1.1 25.25 1.15 25.15 1.65 24.6 M1.15 24.1 L1.15 23.9 1.25 21.8 1.25 21.4 1.3 17.65 1.3 17.0 1.3 15.2 1.25 13.05 1.75 12.7 M1.25 12.35 L1.25 11.75 2.05 11.5 M1.25 11.3 L1.25 11.05 1.15 7.95 3.05 7.55 M1.15 7.25 L1.0 4.3 1.0 3.8 0.8 0.85 3.1 0.0 Q7.25 1.1 11.4 6.3 L11.65 6.65 M12.6 30.55 L12.95 30.6 M12.95 31.05 L12.95 31.1 8.0 31.1 8.0 31.05" fill="none" stroke="#000000" stroke-linecap="round" stroke-linejoin="round" stroke-width="0.05"/>
  </g>
</svg>
