<?xml version="1.0" encoding="UTF-8" standalone="no"?>
<svg xmlns:xlink="http://www.w3.org/1999/xlink" height="51.7px" width="24.7px" xmlns="http://www.w3.org/2000/svg">
  <g transform="matrix(1.0, 0.0, 0.0, 1.0, 0.0, 0.0)">
    <path d="M14.3 0.25 L14.3 0.0 14.35 0.1 14.35 0.2 14.35 0.1 14.4 0.0 14.4 0.2 14.35 0.2 14.3 0.25 M6.0 29.85 L6.6 29.6 6.05 29.95 6.0 29.85" fill="#d5d5df" fill-rule="evenodd" stroke="none"/>
    <path d="M14.3 0.25 L14.35 0.2 14.4 0.2 14.4 7.6 14.35 8.2 14.3 8.65 Q14.0 11.1 13.05 12.8 10.4 17.75 12.2 22.55 12.9 24.75 13.2 27.05 L12.3 27.8 11.7 27.8 Q10.55 21.5 11.2 13.95 11.9 6.1 14.3 0.25 M15.5 28.9 L17.1 28.9 14.5 30.5 11.9 28.9 13.2 28.9 15.5 28.9 M5.95 45.1 L6.5 46.95 7.05 48.2 Q3.65 47.15 1.65 44.2 -0.65 40.8 0.25 36.8 1.1 32.8 4.65 30.55 L6.0 29.85 6.05 29.95 Q3.0 32.0 2.3 35.7 1.5 39.4 3.5 42.5 4.5 44.1 5.95 45.1" fill="#eff3f7" fill-rule="evenodd" stroke="none"/>
    <path d="M11.9 32.05 L11.9 30.65 11.9 28.9 14.5 30.5 11.9 32.05 M5.75 39.5 Q5.3 42.5 5.95 45.1 4.5 44.1 3.5 42.5 1.5 39.4 2.3 35.7 3.0 32.0 6.05 29.95 L6.6 29.6 Q8.8 28.75 11.2 29.0 10.7 29.85 9.3 29.95 3.2 31.75 5.75 39.5 M14.4 7.6 L14.4 8.65 14.4 22.45 14.4 22.95 14.35 21.7 14.3 21.95 Q14.1 26.5 13.2 27.05 12.9 24.75 12.2 22.55 10.4 17.75 13.05 12.8 14.0 11.1 14.3 8.65 L14.35 8.2 14.4 7.6 M13.75 15.85 Q13.4 14.75 12.95 14.75 12.5 14.75 12.2 15.85 11.9 16.9 11.9 18.5 11.9 20.05 12.2 21.1 12.5 22.2 12.95 22.2 13.4 22.2 13.75 21.1 L14.05 18.5 13.75 15.85" fill="#add3d6" fill-rule="evenodd" stroke="none"/>
    <path d="M14.4 0.2 Q16.8 6.1 17.5 13.95 18.15 21.5 17.0 27.8 L16.4 27.8 15.5 27.05 Q15.8 24.75 16.5 22.55 18.3 17.75 15.65 12.8 14.7 11.1 14.4 8.65 L14.4 7.6 14.4 0.2 M18.9 28.9 L24.7 29.7 Q22.2 30.5 18.9 30.5 22.05 29.6 18.9 28.9" fill="#c6dfde" fill-rule="evenodd" stroke="none"/>
    <path d="M17.1 28.9 L18.9 28.9 Q22.05 29.6 18.9 30.5 L18.7 30.5 17.1 30.5 17.1 32.05 14.5 30.5 17.1 28.9 17.1 30.5 17.1 28.9 M10.95 30.5 L10.2 30.7 Q9.15 31.2 8.0 32.65 6.85 34.1 6.05 37.95 L5.75 39.5 Q3.2 31.75 9.3 29.95 10.7 29.95 10.95 30.5 M14.4 8.65 Q14.7 11.1 15.65 12.8 18.3 17.75 16.5 22.55 15.8 24.75 15.5 27.05 14.45 25.7 14.4 22.45 L14.4 8.65 M16.6 15.85 Q16.25 14.8 15.8 14.8 15.35 14.8 15.05 15.85 14.75 16.95 14.75 18.5 14.75 20.05 15.05 21.15 15.35 22.25 15.8 22.25 16.25 22.25 16.6 21.15 L16.9 18.5 16.6 15.85" fill="#63a2ad" fill-rule="evenodd" stroke="none"/>
    <path d="M16.6 15.85 L16.9 18.5 16.6 21.15 Q16.25 22.25 15.8 22.25 15.35 22.25 15.05 21.15 14.75 20.05 14.75 18.5 14.75 16.95 15.05 15.85 15.35 14.8 15.8 14.8 16.25 14.8 16.6 15.85" fill="#92c7c6" fill-rule="evenodd" stroke="none"/>
    <path d="M13.75 15.85 L14.05 18.5 13.75 21.1 Q13.4 22.2 12.95 22.2 12.5 22.2 12.2 21.1 11.9 20.05 11.9 18.5 11.9 16.9 12.2 15.85 12.5 14.75 12.95 14.75 13.4 14.75 13.75 15.85" fill="#c7e2e1" fill-rule="evenodd" stroke="none"/>
    <path d="M16.4 27.8 L15.5 27.8 15.5 27.7 13.2 27.8 12.3 27.8 13.2 27.05 Q14.1 26.5 14.3 21.95 L14.35 21.7 14.4 22.95 14.4 22.45 Q14.45 25.7 15.5 27.05 L16.4 27.8 M11.9 32.05 L14.5 30.5 17.1 32.05 11.9 32.05" fill="#4e8a92" fill-rule="evenodd" stroke="none"/>
    <path d="M11.2 29.0 L11.25 29.0 11.2 29.0" fill="#9492ad" fill-rule="evenodd" stroke="none"/>
    <path d="M11.9 30.65 L10.95 30.5 Q10.7 29.95 9.3 29.95 10.7 29.85 11.2 29.0 L11.9 28.9 11.9 30.65" fill="#4a8a94" fill-rule="evenodd" stroke="none"/>
    <path d="M15.5 27.8 L15.5 28.9 13.2 28.9 13.2 27.8 15.5 27.7 15.5 27.8" fill="#305b61" fill-rule="evenodd" stroke="none"/>
    <path d="M17.1 32.05 L17.45 32.05 17.75 32.4 Q18.25 34.2 17.35 34.65 L12.4 34.65 Q11.15 34.05 11.2 32.4 L11.55 32.05 11.9 32.05 17.1 32.05 M17.35 49.1 L17.7 49.45 17.75 51.2 11.25 51.2 Q11.3 49.7 12.25 49.2 L12.4 49.1 14.55 49.1 17.35 49.1" fill="#381e10" fill-rule="evenodd" stroke="none"/>
    <path d="M17.35 34.65 L17.05 36.6 16.85 38.75 16.75 39.85 16.7 42.05 16.75 43.15 16.85 45.25 16.95 46.35 17.25 48.4 17.35 49.1 14.55 49.1 14.8 48.4 15.1 47.5 15.4 46.35 15.05 46.15 Q13.9 45.6 13.2 46.35 L12.4 45.25 15.65 45.25 15.9 43.15 Q15.35 42.65 14.85 42.55 14.0 42.4 13.1 43.15 L12.4 42.05 15.95 42.05 15.85 39.85 Q15.25 39.25 14.65 39.2 13.9 39.15 13.1 39.85 L12.4 38.75 15.7 38.75 15.2 36.55 Q14.8 36.1 14.45 36.0 13.7 35.65 13.0 36.55 L12.4 35.45 12.4 34.65 17.35 34.65" fill="#004842" fill-rule="evenodd" stroke="none"/>
    <path d="M12.4 48.4 Q13.5 47.35 13.2 46.35 13.9 45.6 15.05 46.15 L15.4 46.35 15.1 47.5 14.8 48.4 12.4 48.4 M12.4 45.25 Q13.45 44.25 13.1 43.15 14.0 42.4 14.85 42.55 15.35 42.65 15.9 43.15 L15.65 45.25 12.4 45.25 M12.4 42.05 Q13.5 41.0 13.1 39.85 13.9 39.15 14.65 39.2 15.25 39.25 15.85 39.85 L15.95 42.05 12.4 42.05 M12.4 38.75 Q13.25 37.65 13.0 36.55 13.7 35.65 14.45 36.0 14.8 36.1 15.2 36.55 L15.7 38.75 12.4 38.75" fill="#01897e" fill-rule="evenodd" stroke="none"/>
    <path d="M17.75 51.2 L17.45 51.7 11.55 51.7 11.25 51.2 17.75 51.2" fill="#251310" fill-rule="evenodd" stroke="none"/>
    <path d="M12.4 49.1 L12.4 48.4 14.8 48.4 14.55 49.1 12.4 49.1" fill="#006563" fill-rule="evenodd" stroke="none"/>
    <path d="M14.35 0.1 L14.3 0.0 14.3 0.25 14.35 0.2 14.35 0.1 14.4 0.0 14.4 0.2 Q16.8 6.1 17.5 13.95 18.15 21.5 17.0 27.8 L16.4 27.8 15.5 27.8 15.5 28.9 17.1 28.9 18.9 28.9 24.7 29.7 Q22.2 30.5 18.9 30.5 L18.7 30.5 17.1 30.5 17.1 32.05 11.9 32.05 11.9 30.65 10.95 30.5 10.2 30.7 Q9.15 31.2 8.0 32.65 6.85 34.1 6.05 37.95 L5.75 39.5 Q5.3 42.5 5.95 45.1 L6.5 46.95 7.05 48.2 Q3.65 47.15 1.65 44.2 -0.65 40.8 0.25 36.8 1.1 32.8 4.65 30.55 L6.0 29.85 6.6 29.6 Q8.8 28.75 11.2 29.0 L11.9 28.9 13.2 28.9 13.2 27.8 12.3 27.8 11.7 27.8 Q10.55 21.5 11.2 13.95 11.9 6.1 14.3 0.25 M17.35 34.65 L17.05 36.6 16.85 38.75 16.75 39.85 16.7 42.05 16.75 43.15 16.85 45.25 16.95 46.35 17.25 48.4 17.35 49.1 M12.4 49.1 L12.4 48.4 Q13.5 47.35 13.2 46.35 L12.4 45.25 Q13.45 44.25 13.1 43.15 L12.4 42.05 Q13.5 41.0 13.1 39.85 L12.4 38.75 Q13.25 37.65 13.0 36.55 L12.4 35.45 12.4 34.65 M13.2 27.8 L15.5 27.7 15.5 27.8 M13.2 28.9 L15.5 28.9 M11.9 28.9 L11.9 30.65 M17.1 30.5 L17.1 28.9" fill="none" stroke="#000000" stroke-linecap="round" stroke-linejoin="round" stroke-width="0.05"/>
  </g>
</svg>
