<?xml version="1.0" encoding="UTF-8" standalone="no"?>
<svg xmlns:xlink="http://www.w3.org/1999/xlink" height="115.6px" width="47.75px" xmlns="http://www.w3.org/2000/svg">
  <g transform="matrix(1.0, 0.0, 0.0, 1.0, 23.85, 57.8)">
    <path d="M23.65 -57.5 L23.85 -57.55 23.85 -57.4 23.85 -55.25 23.8 -53.7 21.65 -51.6 22.6 -54.4 23.65 -57.5 M23.65 -50.8 L23.55 -48.85 22.2 -48.55 21.7 -47.05 23.45 -47.65 23.3 -46.2 19.65 -45.6 20.75 -48.85 20.8 -48.85 23.65 -50.8 M23.15 -44.9 L22.9 -42.2 18.4 -41.85 19.0 -43.65 23.15 -44.9 M22.6 -40.1 L22.05 -36.6 21.45 -38.6 17.1 -38.1 17.7 -39.75 22.6 -40.1 M22.0 -36.25 L21.7 -34.55 16.45 -31.35 16.0 -32.1 16.7 -36.3 17.45 -34.95 22.0 -36.25 M21.3 -32.3 L20.75 -29.75 20.7 -29.7 15.75 -26.9 Q15.65 -27.75 15.7 -28.65 L21.3 -32.3 M20.35 -27.75 L19.6 -24.6 16.8 -24.15 16.9 -26.2 20.35 -27.75 M19.05 -22.35 L18.75 -21.3 16.0 -21.0 16.0 -22.0 19.05 -22.35 M18.25 -19.2 L17.85 -17.8 15.85 -17.4 16.0 -19.2 18.25 -19.2 M17.2 -15.7 L16.25 -12.45 15.3 -13.6 15.65 -15.85 17.2 -15.7 M15.7 -10.6 L14.85 -8.05 14.05 -9.15 14.85 -11.65 15.7 -10.6 M13.9 -5.25 L13.45 -4.2 12.4 -5.35 13.05 -6.6 13.9 -5.25 M12.95 -2.7 L9.85 4.9 8.75 0.8 9.35 -0.2 9.95 -1.05 10.5 0.35 11.4 -2.35 11.15 -2.85 11.8 -4.05 12.95 -2.7 M8.75 7.4 L7.3 10.4 5.85 5.9 7.55 2.95 8.75 7.4 M4.8 7.7 L5.7 11.9 4.55 12.55 3.45 10.2 4.8 7.7" fill="#eff3f7" fill-rule="evenodd" stroke="none"/>
    <path d="M-3.85 9.9 L-5.1 9.5 -4.75 7.55 -1.55 7.0 -1.35 8.55 -3.85 9.9 M-4.5 6.5 L-4.05 4.1 -0.2 2.05 -0.55 4.95 -4.5 6.5 M-3.55 1.9 L-1.8 -4.65 0.5 -4.2 0.4 -3.3 0.1 0.4 -3.55 1.9 M-1.4 -6.15 L-0.7 -8.3 0.8 -7.8 0.6 -5.7 -1.4 -6.15 M-0.05 -10.35 L0.45 -11.85 1.65 -11.65 1.25 -10.15 -0.05 -10.35 M1.2 -14.1 L1.8 -15.9 2.75 -14.9 2.25 -13.55 Q1.7 -13.85 1.2 -14.1 M2.7 -18.3 L3.35 -20.0 4.65 -18.95 3.65 -17.05 2.7 -18.3 M4.25 -22.3 L5.6 -25.5 7.4 -29.55 8.55 -32.15 11.15 -27.85 10.4 -27.0 9.55 -26.15 7.6 -29.1 6.3 -25.15 7.65 -23.65 5.85 -21.15 4.25 -22.3 M9.7 -34.55 L10.8 -36.8 13.5 -30.9 12.4 -29.3 9.7 -34.55 M12.05 -39.15 L12.2 -39.4 17.7 -39.75 17.1 -38.1 15.7 -38.0 16.55 -36.5 15.1 -33.65 12.05 -39.15 M13.3 -41.5 L14.3 -43.25 16.4 -43.9 17.0 -47.85 20.25 -52.85 22.6 -54.4 21.65 -51.6 18.95 -49.0 17.65 -43.3 19.0 -43.65 18.4 -41.85 13.3 -41.5" fill="#c6dfde" fill-rule="evenodd" stroke="none"/>
    <path d="M23.8 -53.7 L23.65 -50.8 20.8 -48.85 20.75 -48.85 19.65 -45.6 23.3 -46.2 23.15 -44.9 19.0 -43.65 17.65 -43.3 18.95 -49.0 21.65 -51.6 23.8 -53.7 M23.55 -48.85 L23.45 -47.65 21.7 -47.05 22.2 -48.55 23.55 -48.85 M22.9 -42.2 L22.6 -40.1 17.7 -39.75 12.2 -39.4 13.3 -41.5 18.4 -41.85 22.9 -42.2 M22.05 -36.6 L22.0 -36.25 17.45 -34.95 16.7 -36.3 16.7 -36.35 16.95 -37.6 17.1 -38.1 21.45 -38.6 22.05 -36.6 M21.7 -34.55 L21.35 -32.6 21.3 -32.3 15.7 -28.65 14.75 -28.05 14.15 -29.4 13.5 -30.9 10.8 -36.8 12.05 -39.15 15.1 -33.65 15.45 -33.2 16.0 -32.1 16.45 -31.35 21.7 -34.55 M20.7 -29.7 L20.35 -27.75 16.9 -26.2 16.8 -24.15 19.6 -24.6 19.05 -22.35 16.0 -22.0 14.75 -21.85 14.75 -26.35 15.75 -26.9 20.7 -29.7 M18.75 -21.3 L18.7 -21.1 18.25 -19.2 16.0 -19.2 13.65 -19.05 9.7 -16.05 9.5 -15.55 14.05 -9.15 14.85 -8.05 13.9 -5.25 13.05 -6.6 8.8 -13.4 7.4 -15.6 10.3 -17.9 13.75 -20.75 16.0 -21.0 18.75 -21.3 M17.85 -17.8 L17.2 -15.7 15.65 -15.85 14.7 -15.9 14.65 -14.5 15.3 -13.6 16.25 -12.45 15.7 -10.6 14.85 -11.65 12.2 -14.85 13.3 -16.85 15.85 -17.4 17.85 -17.8 M13.45 -4.2 L12.95 -2.7 11.8 -4.05 9.05 -7.4 7.2 -5.0 8.75 0.8 9.85 4.9 8.75 7.4 7.55 2.95 5.65 -4.25 5.25 -5.65 7.0 -8.1 8.25 -9.95 12.4 -5.35 13.45 -4.2 M7.3 10.4 L5.9 13.2 4.7 12.7 4.35 12.65 2.75 12.15 -1.2 10.45 -1.35 8.55 -1.2 10.45 -1.9 10.2 -1.95 10.6 -3.85 9.9 -1.35 8.55 -1.55 7.0 -4.75 7.55 -4.5 6.5 -0.55 4.95 -0.65 5.2 -0.05 7.35 Q2.2 4.8 4.2 -0.3 L-0.2 2.05 -4.05 4.1 -3.55 1.9 0.1 0.4 2.3 -0.5 1.25 -4.1 1.2 -4.15 0.5 -4.2 -1.8 -4.65 -1.4 -6.15 0.6 -5.7 3.35 -4.95 4.3 -0.6 4.4 -0.8 4.9 -2.1 5.6 -3.95 5.5 -3.3 Q4.35 0.6 3.75 3.4 L4.65 2.05 5.85 5.9 7.3 10.4 M-0.7 -8.3 L-0.05 -10.35 1.25 -10.15 3.85 -9.75 4.8 -12.6 2.75 -14.9 1.8 -15.9 2.7 -18.3 3.65 -17.05 7.35 -11.95 4.35 -6.6 0.8 -7.8 -0.7 -8.3 M0.45 -11.85 L1.2 -14.1 Q1.7 -13.85 2.25 -13.55 L3.45 -12.85 2.95 -11.35 1.65 -11.65 0.45 -11.85 M3.35 -20.0 L4.25 -22.3 5.85 -21.15 7.7 -19.75 11.25 -22.85 11.9 -26.5 11.15 -27.85 8.55 -32.15 9.7 -34.55 12.4 -29.3 13.4 -27.2 13.65 -26.7 13.05 -22.45 11.3 -20.85 7.0 -17.05 4.65 -18.95 3.35 -20.0 M14.3 -43.25 L17.0 -47.85 16.4 -43.9 14.3 -43.25 M20.25 -52.85 L23.65 -57.5 22.6 -54.4 20.25 -52.85 M16.55 -36.5 L15.7 -38.0 17.1 -38.1 16.55 -36.5 M9.55 -26.15 L8.3 -23.0 7.65 -23.65 6.3 -25.15 7.6 -29.1 9.55 -26.15 M4.8 7.7 L4.25 4.85 3.2 6.25 3.15 6.8 Q2.85 9.35 3.45 10.2 L4.55 12.55 5.7 11.9 4.8 7.7 M4.35 12.65 L4.55 12.55 4.35 12.65 M9.95 -1.05 L8.5 -4.55 9.35 -5.8 11.15 -2.85 11.4 -2.35 10.5 0.35 9.95 -1.05" fill="#4e8a92" fill-rule="evenodd" stroke="none"/>
    <path d="M17.1 -38.1 L16.95 -37.6 16.7 -36.35 16.7 -36.3 16.0 -32.1 15.45 -33.2 16.55 -36.5 17.1 -38.1 M14.15 -29.4 L14.75 -28.05 15.7 -28.65 Q15.65 -27.75 15.75 -26.9 L14.75 -26.35 14.75 -21.85 16.0 -22.0 16.0 -21.0 13.75 -20.75 10.3 -17.9 11.3 -20.85 13.05 -22.45 13.65 -26.7 13.4 -27.2 14.15 -29.4 M3.15 6.8 L3.2 6.25 4.25 4.85 4.8 7.7 3.45 10.2 Q2.85 9.35 3.15 6.8 M16.0 -19.2 L15.85 -17.4 13.3 -16.85 12.2 -14.85 14.85 -11.65 14.05 -9.15 9.5 -15.55 9.7 -16.05 13.65 -19.05 16.0 -19.2 M15.3 -13.6 L14.65 -14.5 14.7 -15.9 15.65 -15.85 15.3 -13.6 M8.8 -13.4 L13.05 -6.6 12.4 -5.35 8.25 -9.95 7.0 -8.1 8.8 -13.4 M5.65 -4.25 L7.55 2.95 5.85 5.9 4.65 2.05 3.75 3.4 Q4.35 0.6 5.5 -3.3 L5.6 -3.95 4.9 -2.1 5.65 -4.25 M11.15 -2.85 L9.35 -5.8 8.5 -4.55 9.95 -1.05 9.35 -0.2 8.75 0.8 7.2 -5.0 9.05 -7.4 11.8 -4.05 11.15 -2.85" fill="#add3d6" fill-rule="evenodd" stroke="none"/>
    <path d="M15.1 -33.65 L16.55 -36.5 15.45 -33.2 15.1 -33.65 M13.5 -30.9 L14.15 -29.4 13.4 -27.2 12.4 -29.3 13.5 -30.9 M7.65 -23.65 L8.3 -23.0 9.55 -26.15 10.4 -27.0 11.15 -27.85 11.9 -26.5 11.25 -22.85 7.7 -19.75 5.85 -21.15 7.65 -23.65 M11.3 -20.85 L10.3 -17.9 7.4 -15.6 8.8 -13.4 7.0 -8.1 5.25 -5.65 5.65 -4.25 4.9 -2.1 4.4 -0.8 4.3 -0.6 3.35 -4.95 0.6 -5.7 0.8 -7.8 4.35 -6.6 7.35 -11.95 3.65 -17.05 4.65 -18.95 7.0 -17.05 11.3 -20.85 M1.65 -11.65 L2.95 -11.35 3.45 -12.85 2.25 -13.55 2.75 -14.9 4.8 -12.6 3.85 -9.75 1.25 -10.15 1.65 -11.65 M0.5 -4.2 L1.2 -4.15 1.25 -4.1 2.3 -0.5 0.1 0.4 0.4 -3.3 0.5 -4.2 M-0.2 2.05 L4.2 -0.3 Q2.2 4.8 -0.05 7.35 L-0.65 5.2 -0.55 4.95 -0.2 2.05" fill="#63a2ad" fill-rule="evenodd" stroke="none"/>
    <path d="M2.75 12.15 L2.3 13.4 -2.4 11.8 -1.95 10.6 -1.9 10.2 -1.2 10.45 2.75 12.15" fill="#305b61" fill-rule="evenodd" stroke="none"/>
    <path d="M23.85 -57.55 L23.9 -57.8 23.65 -57.5 20.25 -52.85 17.0 -47.85 14.3 -43.25 13.3 -41.5 12.2 -39.4 12.05 -39.15 10.8 -36.8 9.7 -34.55 8.55 -32.15 7.4 -29.55 5.6 -25.5 4.25 -22.3 3.35 -20.0 2.7 -18.3 1.8 -15.9 1.2 -14.1 0.45 -11.85 -0.05 -10.35 -0.7 -8.3 -1.4 -6.15 -1.8 -4.65 -3.55 1.9 -4.05 4.1 -4.5 6.5 -4.75 7.55 -5.1 9.5 -3.85 9.9 -1.95 10.6 -1.9 10.2 -1.2 10.45 2.75 12.15 2.3 13.4 M23.85 -57.55 L23.85 -57.4 23.85 -55.25 23.8 -53.7 23.65 -50.8 23.55 -48.85 23.45 -47.65 23.3 -46.2 23.15 -44.9 22.9 -42.2 22.6 -40.1 22.05 -36.6 22.0 -36.25 21.7 -34.55 21.35 -32.6 21.3 -32.3 20.75 -29.75 20.7 -29.7 20.35 -27.75 19.6 -24.6 19.05 -22.35 18.75 -21.3 18.7 -21.1 18.25 -19.2 17.85 -17.8 17.2 -15.7 16.25 -12.45 15.7 -10.6 14.85 -8.05 13.9 -5.25 13.45 -4.2 12.95 -2.7 9.85 4.9 8.75 7.4 7.3 10.4 5.9 13.2 4.7 12.7 4.35 12.65 2.75 12.15 M-2.4 11.8 L-1.95 10.6" fill="none" stroke="#000000" stroke-linecap="round" stroke-linejoin="round" stroke-width="0.05"/>
    <path d="M-0.55 4.95 L-4.5 6.5 M3.15 6.8 L3.2 6.25 4.25 4.85 4.8 7.7 5.7 11.9 4.55 12.55 4.35 12.65 M-4.75 7.55 L-1.55 7.0 -1.35 8.55 -1.2 10.45" fill="none" stroke="#0b8d9f" stroke-linecap="round" stroke-linejoin="round" stroke-width="0.25"/>
    <path d="M6.2 17.9 L8.2 18.65 7.8 15.3 4.95 14.4 5.05 17.5 6.2 17.9 M2.5 13.45 L2.25 13.4 1.55 13.2 1.35 13.0 -4.05 11.25 -4.5 11.05 -8.2 9.8 -10.6 12.2 -8.5 12.9 2.6 16.7 2.5 13.45 M-23.85 48.45 Q-23.75 49.95 -21.95 52.0 L-20.55 52.5 -14.95 54.45 -9.1 56.45 -7.4 57.1 Q-4.55 56.55 -3.7 55.25 L-23.85 48.45" fill="#9c5601" fill-rule="evenodd" stroke="none"/>
    <path d="M-8.5 12.9 L-8.55 18.4 Q-9.25 35.3 -21.05 48.55 L-14.8 50.7 Q-8.8 38.5 -4.2 19.8 L-0.4 21.05 2.8 22.2 6.2 17.9 5.05 17.5 2.6 16.7 -8.5 12.9" fill="#000000" fill-rule="evenodd" stroke="none"/>
    <path d="M4.95 14.4 L4.45 14.15 2.5 13.45 2.6 16.7 5.05 17.5 4.95 14.4 M-21.05 48.55 L-23.65 47.6 -23.85 48.45 -3.7 55.25 -3.25 54.5 -5.8 53.6 -11.9 51.55 -13.2 51.1 -13.8 51.0 -14.8 50.7 -21.05 48.55" fill="#ffb300" fill-rule="evenodd" stroke="none"/>
    <path d="M-5.8 53.6 Q-7.0 36.05 2.8 22.2 L-0.4 21.05 Q-10.25 35.6 -11.9 51.55 L-5.8 53.6" fill="#734897" fill-rule="evenodd" stroke="none"/>
    <path d="M-15.75 57.2 L-14.2 57.8 -9.1 56.45 -14.95 54.45 -15.75 57.2" fill="#db0471" fill-rule="evenodd" stroke="none"/>
    <path d="M-20.55 52.5 L-17.6 56.6 -15.75 57.2 -14.95 54.45 -20.55 52.5" fill="#9a0350" fill-rule="evenodd" stroke="none"/>
    <path d="M-0.4 21.05 L-4.2 19.8 Q-8.8 38.5 -14.8 50.7 L-13.8 51.0 -13.2 51.1 -11.9 51.55 Q-10.25 35.6 -0.4 21.05" fill="#593c79" fill-rule="evenodd" stroke="none"/>
    <path d="M6.2 17.9 L8.2 18.65 7.8 15.3 4.95 14.4 4.45 14.15 2.5 13.45 2.25 13.4 1.55 13.2 1.35 13.0 -4.05 11.25 -4.5 11.05 -8.2 9.8 -10.6 12.2 -8.5 12.9 -8.55 18.4 Q-9.25 35.3 -21.05 48.55 L-23.65 47.6 -23.85 48.45 Q-23.75 49.95 -21.95 52.0 L-20.55 52.5 -17.6 56.6 -15.75 57.2 -14.2 57.8 -9.1 56.45 -7.4 57.1 Q-4.55 56.55 -3.7 55.25 L-3.25 54.5 -5.8 53.6 Q-7.0 36.05 2.8 22.2 L6.2 17.9 M-13.2 51.1 L-13.8 51.0 M-8.5 12.9 L2.6 16.7 2.5 13.45 M-14.95 54.45 L-15.75 57.2 M-14.95 54.45 L-9.1 56.45 M-20.55 52.5 L-14.95 54.45" fill="none" stroke="#000000" stroke-linecap="round" stroke-linejoin="round" stroke-width="0.05"/>
  </g>
</svg>
