<?xml version="1.0" encoding="UTF-8" standalone="no"?>
<svg xmlns:xlink="http://www.w3.org/1999/xlink" height="99.15px" width="91.7px" xmlns="http://www.w3.org/2000/svg">
  <g transform="matrix(1.0, 0.0, 0.0, 1.0, -229.1, -150.9)">
    <path d="M286.65 197.25 Q287.4 198.9 287.9 201.9 L286.05 203.55 282.05 201.95 283.85 200.25 Q282.5 194.9 278.2 191.8 L275.95 193.7 275.8 189.75 278.35 187.8 Q279.55 187.75 282.5 190.05 283.65 191.15 284.85 193.35 L286.65 197.25 M272.25 210.95 L272.5 215.05 270.75 217.45 270.65 217.4 Q267.3 218.8 264.45 216.3 L268.4 212.65 265.5 208.95 262.1 204.55 259.2 205.35 Q258.05 205.45 259.95 201.7 L260.15 201.85 260.55 201.2 262.05 200.55 265.95 202.0 Q271.75 204.45 272.25 210.95 M269.65 213.55 Q269.0 206.2 261.8 202.9 269.0 206.2 269.65 213.55" fill="#6a6440" fill-rule="evenodd" stroke="none"/>
    <path d="M274.75 208.65 L272.25 210.95 Q271.75 204.45 265.95 202.0 L271.55 197.35 Q276.4 202.05 274.75 208.65" fill="#ebfbdd" fill-rule="evenodd" stroke="none"/>
    <path d="M281.75 202.2 L274.75 208.65 Q276.4 202.05 271.55 197.35 L273.4 195.8 Q279.05 195.85 281.75 202.2" fill="#d2f5b4" fill-rule="evenodd" stroke="none"/>
    <path d="M282.05 201.95 L281.75 202.2 Q279.05 195.85 273.4 195.8 L275.95 193.7 278.2 191.8 Q282.5 194.9 283.85 200.25 L282.05 201.95" fill="#badd9f" fill-rule="evenodd" stroke="none"/>
    <path d="M264.45 216.3 Q248.0 220.1 236.5 241.8 L230.4 249.75 Q229.55 244.55 229.4 238.5 L245.7 218.4 265.5 208.95 268.4 212.65 264.45 216.3 M282.5 190.05 Q302.2 181.2 309.7 164.25 L309.85 163.9 318.0 151.2 319.6 159.6 302.0 182.65 284.85 193.35 Q283.65 191.15 282.5 190.05" fill="#ece1bd" fill-rule="evenodd" stroke="none"/>
    <path d="M319.6 159.6 L320.5 164.35 Q317.75 175.45 302.9 186.75 L302.75 186.9 300.85 186.4 300.6 188.5 Q294.55 192.85 286.65 197.25 L284.85 193.35 302.0 182.65 319.6 159.6 M229.4 238.5 L229.45 233.65 Q232.35 228.3 236.3 223.55 L238.5 224.0 238.2 221.4 Q246.6 212.15 259.2 205.35 L262.1 204.55 265.5 208.95 245.7 218.4 229.4 238.5" fill="#f8f4e7" fill-rule="evenodd" stroke="none"/>
    <path d="M319.6 159.6 L320.5 164.35 Q317.75 175.45 302.9 186.75 M300.6 188.5 Q294.55 192.85 286.65 197.25 287.4 198.9 287.9 201.9 L286.05 203.55 282.05 201.95 281.75 202.2 274.75 208.65 272.25 210.95 272.5 215.05 270.75 217.45 270.7 217.5 270.65 217.4 Q267.3 218.8 264.45 216.3 L268.4 212.65 265.5 208.95 262.1 204.55 259.2 205.35 Q258.05 205.45 259.95 201.7 L260.55 201.2 262.05 200.55 265.95 202.0 271.55 197.35 273.4 195.8 275.95 193.7 275.8 189.75 278.35 187.8 Q279.55 187.75 282.5 190.05 302.2 181.2 309.7 164.25 L309.85 163.9 318.0 151.2 319.6 159.6 M229.4 238.5 L229.45 233.65 Q232.35 228.3 236.3 223.55 M238.2 221.4 Q246.6 212.15 259.2 205.35 M259.95 201.7 L260.15 201.85 260.55 201.2" fill="none" stroke="#000000" stroke-linecap="round" stroke-linejoin="round" stroke-opacity="0.6" stroke-width="0.6000000000000001"/>
    <path d="M302.9 186.75 L302.75 186.9 300.85 186.4 300.6 188.5 M264.45 216.3 Q248.0 220.1 236.5 241.8 L230.4 249.75 Q229.55 244.55 229.4 238.5 M236.3 223.55 L238.5 224.0 238.2 221.4" fill="none" stroke="#000000" stroke-linecap="round" stroke-linejoin="round" stroke-opacity="0.6" stroke-width="0.6000000000000001"/>
    <path d="M284.85 193.35 L286.65 197.25 M282.5 190.05 Q283.65 191.15 284.85 193.35 M282.05 201.95 L283.85 200.25 Q282.5 194.9 278.2 191.8 L275.95 193.7 M271.55 197.35 Q276.4 202.05 274.75 208.65 M261.8 202.9 Q269.0 206.2 269.65 213.55 M265.95 202.0 Q271.75 204.45 272.25 210.95 M273.4 195.8 Q279.05 195.85 281.75 202.2" fill="none" stroke="#000000" stroke-linecap="round" stroke-linejoin="round" stroke-opacity="0.6" stroke-width="0.05"/>
  </g>
</svg>
