<?xml version="1.0" encoding="UTF-8" standalone="no"?>
<svg xmlns:xlink="http://www.w3.org/1999/xlink" height="112.1px" width="72.85px" xmlns="http://www.w3.org/2000/svg">
  <g transform="matrix(1.0, 0.0, 0.0, 1.0, -239.05, -86.9)">
    <path d="M297.15 86.95 L298.25 92.1 Q297.6 101.5 294.9 110.3 298.5 114.45 301.3 121.0 304.8 133.45 302.2 136.75 300.8 138.6 298.9 139.5 295.65 141.05 293.85 135.75 293.1 129.05 290.6 124.7 L288.65 129.1 Q291.4 131.8 289.6 134.9 287.9 137.8 284.9 137.85 280.35 147.8 273.0 153.3 277.8 164.65 272.8 167.4 266.85 170.4 263.05 160.0 258.45 162.0 253.1 162.6 L252.65 161.2 Q258.7 160.15 263.95 157.4 L264.5 159.3 Q266.95 167.7 271.7 166.3 276.05 164.4 271.7 154.2 L271.0 152.65 Q278.35 146.5 283.8 136.25 L285.55 136.35 Q287.05 136.1 288.0 134.7 289.3 131.15 286.9 129.85 L286.85 129.85 290.1 121.2 Q293.75 125.0 295.05 132.15 295.55 139.55 299.5 137.05 302.2 134.65 301.7 129.55 L301.6 128.95 301.4 127.8 Q299.35 118.4 294.35 112.0 L293.1 110.5 Q295.6 99.85 297.15 86.95" fill="#fff9c4" fill-rule="evenodd" stroke="none"/>
    <path d="M298.25 92.1 L297.15 86.95 Q316.6 118.85 310.35 153.05 300.9 144.1 291.2 152.15 L290.7 150.35 Q288.15 142.3 284.65 144.45 283.95 144.9 283.6 145.7 281.95 148.95 285.6 158.15 280.1 165.4 274.5 178.0 L273.2 177.05 Q277.6 166.35 283.55 157.75 281.7 152.15 281.85 149.6 L282.0 148.0 Q282.5 144.15 285.15 142.75 289.5 142.45 291.45 149.65 298.65 143.45 308.2 147.75 313.8 122.3 298.25 92.1 M290.5 137.9 L290.55 138.2 Q290.05 138.75 290.05 139.5 290.05 140.25 290.55 140.75 291.1 141.3 291.85 141.3 292.6 141.3 293.1 140.75 L293.45 140.3 293.65 140.4 Q293.65 141.45 292.9 142.2 292.1 142.95 291.05 143.0 290.0 142.95 289.25 142.2 288.45 141.45 288.5 140.4 288.45 139.35 289.25 138.6 289.75 138.05 290.5 137.9 M307.8 141.4 Q307.8 142.85 306.75 143.95 305.65 145.0 304.2 145.0 302.7 145.0 301.65 143.95 300.55 142.85 300.6 141.4 300.55 139.9 301.65 138.85 302.7 137.8 304.2 137.8 L304.25 138.0 303.4 138.55 Q302.65 139.3 302.65 140.35 302.65 141.4 303.4 142.15 304.15 142.9 305.2 142.9 306.25 142.9 307.0 142.15 L307.6 141.35 307.8 141.4" fill="#f4c771" fill-rule="evenodd" stroke="none"/>
    <path d="M253.1 162.6 Q258.45 162.0 263.05 160.0 266.85 170.4 272.8 167.4 277.8 164.65 273.0 153.3 280.35 147.8 284.9 137.85 287.9 137.8 289.6 134.9 291.4 131.8 288.65 129.1 L290.6 124.7 Q293.1 129.05 293.85 135.75 295.65 141.05 298.9 139.5 300.8 138.6 302.2 136.75 304.8 133.45 301.3 121.0 298.5 114.45 294.9 110.3 297.6 101.5 298.25 92.1 313.8 122.3 308.2 147.75 298.65 143.45 291.45 149.65 289.5 142.45 285.15 142.75 282.5 144.15 282.0 148.0 L281.85 149.6 Q281.7 152.15 283.55 157.75 277.6 166.35 273.2 177.05 L253.1 162.6 M291.05 137.85 L290.5 137.9 Q289.75 138.05 289.25 138.6 288.45 139.35 288.5 140.4 288.45 141.45 289.25 142.2 290.0 142.95 291.05 143.0 292.1 142.95 292.9 142.2 293.65 141.45 293.65 140.4 L293.6 139.95 293.65 139.5 Q293.65 138.75 293.1 138.2 292.6 137.7 291.85 137.7 L291.15 137.85 291.05 137.85 M307.75 140.75 L307.75 140.35 Q307.75 139.3 307.0 138.55 306.25 137.8 305.2 137.8 L304.75 137.85 304.2 137.8 Q302.7 137.8 301.65 138.85 300.55 139.9 300.6 141.4 300.55 142.85 301.65 143.95 302.7 145.0 304.2 145.0 305.65 145.0 306.75 143.95 307.8 142.85 307.8 141.4 L307.75 140.75" fill="url(#gradient0)" fill-rule="evenodd" stroke="none"/>
    <path d="M290.55 138.2 L290.5 137.9 291.05 137.85 291.1 137.85 290.55 138.2 M293.65 140.4 L293.45 140.3 293.6 139.95 293.65 140.4 M307.75 140.75 L307.8 141.4 307.6 141.35 307.75 140.75 M304.2 137.8 L304.75 137.85 304.25 138.0 304.2 137.8" fill="#fef58b" fill-rule="evenodd" stroke="none"/>
    <path d="M291.1 137.85 L291.05 137.85 291.15 137.85 291.1 137.85" fill="#ffcc66" fill-rule="evenodd" stroke="none"/>
    <path d="M268.8 178.65 L259.0 171.0 251.75 165.35 247.85 162.3 Q245.45 160.45 246.45 158.95 L246.65 158.7 276.1 181.4 276.05 181.4 Q274.7 183.25 271.95 181.1 L268.8 178.65 M242.7 192.25 L240.4 190.4 239.9 189.95 Q238.65 188.5 239.3 187.45 L252.95 198.25 Q251.6 199.55 250.2 198.4 L249.65 197.95 242.7 192.25" fill="#cccccc" fill-rule="evenodd" stroke="none"/>
    <path d="M252.65 161.2 L253.1 162.6 273.2 177.05 274.5 178.0 Q277.05 180.0 276.1 181.4 L246.65 158.7 Q248.0 157.45 252.65 161.2 M246.95 191.1 L251.95 195.3 252.4 195.65 Q253.55 196.75 252.95 198.25 L239.3 187.45 239.45 187.25 Q240.45 186.2 242.0 186.95 L246.95 191.1" fill="#ffffff" fill-rule="evenodd" stroke="none"/>
    <path d="M259.0 171.0 L268.8 178.65 Q258.35 180.15 251.95 195.3 L246.95 191.1 Q249.9 181.4 259.0 171.0" fill="#301830" fill-rule="evenodd" stroke="none"/>
    <path d="M240.4 190.4 L242.7 192.25 Q246.35 197.25 243.9 197.7 L242.6 197.0 Q239.4 194.25 240.4 190.4" fill="#af5faf" fill-rule="evenodd" stroke="none"/>
    <path d="M259.0 171.0 Q249.9 181.4 246.95 191.1 L242.0 186.95 Q254.35 173.9 251.75 165.35 L259.0 171.0" fill="#743a74" fill-rule="evenodd" stroke="none"/>
    <path d="M243.9 197.7 Q246.35 197.25 242.7 192.25 L249.65 197.95 243.9 197.7" fill="#663366" fill-rule="evenodd" stroke="none"/>
    <path d="M297.15 86.95 Q295.6 99.85 293.1 110.5 L294.35 112.0 Q299.35 118.4 301.4 127.8 L301.6 128.95 301.7 129.55 Q302.2 134.65 299.5 137.05 295.55 139.55 295.05 132.15 293.75 125.0 290.1 121.2 L286.85 129.85 286.9 129.85 Q289.3 131.15 288.0 134.7 287.05 136.1 285.55 136.35 L283.8 136.25 Q278.35 146.5 271.0 152.65 L271.7 154.2 Q276.05 164.4 271.7 166.3 266.95 167.7 264.5 159.3 L263.95 157.4 Q258.7 160.15 252.65 161.2 M274.5 178.0 Q280.1 165.4 285.6 158.15 281.95 148.95 283.6 145.7 283.95 144.9 284.65 144.45 288.15 142.3 290.7 150.35 L291.2 152.15 Q300.9 144.1 310.35 153.05 316.6 118.85 297.15 86.95 M290.55 138.2 L291.1 137.85 M293.45 140.3 L293.1 140.75 Q292.6 141.3 291.85 141.3 291.1 141.3 290.55 140.75 290.05 140.25 290.05 139.5 290.05 138.75 290.55 138.2 M291.15 137.85 L291.85 137.7 Q292.6 137.7 293.1 138.2 293.65 138.75 293.65 139.5 L293.6 139.95 293.45 140.3 M304.75 137.85 L305.2 137.8 Q306.25 137.8 307.0 138.55 307.75 139.3 307.75 140.35 L307.75 140.75 307.6 141.35 307.0 142.15 Q306.25 142.9 305.2 142.9 304.15 142.9 303.4 142.15 302.65 141.4 302.65 140.35 302.65 139.3 303.4 138.55 L304.25 138.0 304.75 137.85" fill="none" stroke="#000000" stroke-linecap="round" stroke-linejoin="round" stroke-opacity="0.49803922" stroke-width="0.1"/>
    <path d="M291.1 137.85 L291.15 137.85" fill="none" stroke="#ffff00" stroke-linecap="round" stroke-linejoin="round" stroke-opacity="0.3019608" stroke-width="0.1"/>
    <path d="M252.65 161.2 L253.1 162.6 273.2 177.05 274.5 178.0 Q277.05 180.0 276.1 181.4 L276.05 181.4 Q274.7 183.25 271.95 181.1 L268.8 178.65 259.0 171.0 251.75 165.35 247.85 162.3 Q245.45 160.45 246.45 158.95 L246.65 158.7 Q248.0 157.45 252.65 161.2 M246.95 191.1 L251.95 195.3 Q258.35 180.15 268.8 178.65 M242.0 186.95 L246.95 191.1 M242.7 192.25 L240.4 190.4 Q239.4 194.25 242.6 197.0 L243.9 197.7 249.65 197.95 250.2 198.4 Q251.6 199.55 252.95 198.25 253.55 196.75 252.4 195.65 L251.95 195.3 M242.7 192.25 L249.65 197.95 M239.3 187.45 Q238.65 188.5 239.9 189.95 L240.4 190.4 M239.3 187.45 L239.45 187.25 Q240.45 186.2 242.0 186.95 254.35 173.9 251.75 165.35" fill="none" stroke="#000000" stroke-linecap="round" stroke-linejoin="round" stroke-opacity="0.3019608" stroke-width="0.1"/>
    <path d="M270.55 165.4 Q272.2 164.55 273.15 163.05 L280.7 169.55 278.75 171.75 273.8 167.7 275.85 173.1 270.55 165.4 M264.55 178.65 L267.2 179.75 Q264.7 181.25 263.9 183.5 L259.3 181.4 255.4 174.9 258.15 176.05 264.55 178.65 M257.25 180.45 L260.35 184.95 Q258.4 185.7 256.9 187.4 L250.35 173.05 251.0 171.35 252.65 173.75 257.25 180.45 M254.5 159.85 Q256.95 159.65 259.3 158.45 261.15 167.75 264.05 177.05 L258.85 174.75 254.5 159.85 M255.3 189.05 L251.15 187.85 252.4 191.8 244.1 182.85 Q246.7 180.85 248.45 178.05 L255.3 189.05" fill="#f2e6ce" fill-rule="evenodd" stroke="none"/>
    <path d="M270.55 165.4 L275.85 173.1 273.8 167.7 278.75 171.75 Q277.2 173.7 275.65 176.55 L269.75 165.7 270.55 165.4 M259.3 181.4 L257.25 180.45 252.65 173.75 255.4 174.9 259.3 181.4 M256.9 187.4 L256.2 188.3 251.85 178.8 248.2 177.7 250.05 174.8 249.55 173.75 250.35 173.05 256.9 187.4 M258.15 176.05 L252.05 159.8 254.5 159.85 258.85 174.75 264.05 177.05 264.55 178.65 258.15 176.05 M250.05 174.8 L251.85 178.8 250.05 174.8 M244.1 182.85 L252.4 191.8 251.15 187.85 255.3 189.05 255.6 189.55 Q254.25 191.25 252.9 194.95 L243.3 183.45 244.1 182.85" fill="#e2ca96" fill-rule="evenodd" stroke="none"/>
    <path d="M278.75 171.75 L280.7 169.55 273.15 163.05 Q272.2 164.55 270.55 165.4 L269.75 165.7 275.65 176.55 Q277.2 173.7 278.75 171.75 M264.55 178.65 L267.2 179.75 Q264.7 181.25 263.9 183.5 L259.3 181.4 257.25 180.45 260.35 184.95 Q258.4 185.7 256.9 187.4 L256.2 188.3 251.85 178.8 248.2 177.7 250.05 174.8 249.55 173.75 250.35 173.05 251.0 171.35 252.65 173.75 255.4 174.9 258.15 176.05 252.05 159.8 254.5 159.85 Q256.95 159.65 259.3 158.45 261.15 167.75 264.05 177.05 L264.55 178.65 258.15 176.05 M252.65 173.75 L257.25 180.45 M251.85 178.8 L250.05 174.8 M255.3 189.05 L248.45 178.05 Q246.7 180.85 244.1 182.85 L243.3 183.45 252.9 194.95 Q254.25 191.25 255.6 189.55 L255.3 189.05 Z" fill="none" stroke="#000000" stroke-linecap="round" stroke-linejoin="round" stroke-opacity="0.49803922" stroke-width="0.1"/>
  </g>
  <defs>
    <linearGradient gradientTransform="matrix(0.0227, -0.03, 0.0202, 0.0153, 284.95, 144.05)" gradientUnits="userSpaceOnUse" id="gradient0" spreadMethod="pad" x1="-819.2" x2="819.2">
      <stop offset="0.0" stop-color="#ffcc66"/>
      <stop offset="1.0" stop-color="#ca7902"/>
    </linearGradient>
  </defs>
</svg>
