<?xml version="1.0" encoding="UTF-8" standalone="no"?>
<svg xmlns:xlink="http://www.w3.org/1999/xlink" height="225.25px" width="198.95px" xmlns="http://www.w3.org/2000/svg">
  <g transform="matrix(1.0, 0.0, 0.0, 1.0, -180.95, -102.0)">
    <path d="M250.1 318.45 Q249.3 315.0 249.45 310.8 L288.4 263.05 280.85 228.65 292.3 242.6 296.9 248.2 295.15 267.4 280.95 286.15 286.85 273.4 250.1 318.45" fill="#dbc5a4" fill-rule="evenodd" stroke="none"/>
    <path d="M306.7 236.35 L302.1 268.55 263.55 325.45 Q259.2 327.65 255.55 326.25 L298.55 268.5 305.05 232.45 308.85 225.1 306.7 236.35 M252.3 324.05 Q250.75 321.55 250.1 318.45 L286.85 273.4 280.95 286.15 252.3 324.05" fill="#c29d67" fill-rule="evenodd" stroke="none"/>
    <path d="M298.05 233.1 L298.35 234.8 298.3 234.8 298.05 233.1" fill="#f1e9dc" fill-rule="evenodd" stroke="none"/>
    <path d="M294.25 212.8 L301.6 185.7 312.75 188.05 330.1 159.4 338.65 170.55 341.3 170.05 335.0 178.4 327.5 188.2 320.7 197.25 326.0 174.15 316.1 196.1 308.75 212.3 306.8 205.45 305.55 201.1 298.35 234.8 298.05 233.1 294.25 212.8" fill="#ffffff" fill-rule="evenodd" stroke="none"/>
    <path d="M255.55 326.25 Q253.8 325.5 252.3 324.05 L280.95 286.15 295.15 267.4 296.9 248.2 299.4 243.4 305.05 232.45 298.55 268.5 255.55 326.25" fill="#ae8548" fill-rule="evenodd" stroke="none"/>
    <path d="M316.35 219.35 L306.7 236.35 308.85 225.1 305.05 232.45 306.8 205.45 308.75 212.3 316.1 196.1 316.35 219.35 M280.85 228.65 L287.7 224.95 292.3 242.6 280.85 228.65" fill="#d1c87a" fill-rule="evenodd" stroke="none"/>
    <path d="M332.25 194.55 L328.7 197.55 321.75 209.8 327.5 188.2 335.0 178.4 332.25 194.55 M298.35 234.8 L305.55 201.1 306.8 205.45 305.05 232.45 299.4 243.4 298.3 234.8 298.35 234.8" fill="#d8d08d" fill-rule="evenodd" stroke="none"/>
    <path d="M346.95 169.3 L365.4 166.75 341.3 187.0 346.95 169.3 M321.75 209.8 L316.35 219.35 316.1 196.1 326.0 174.15 320.7 197.25 327.5 188.2 321.75 209.8 M287.7 224.95 L291.5 222.85 294.25 212.8 298.05 233.1 298.3 234.8 299.4 243.4 296.9 248.2 292.3 242.6 287.7 224.95" fill="#e0daa7" fill-rule="evenodd" stroke="none"/>
    <path d="M341.3 170.05 L346.95 169.3 341.3 187.0 332.25 194.55 335.0 178.4 341.3 170.05" fill="#ebe7c7" fill-rule="evenodd" stroke="none"/>
    <path d="M294.25 212.8 L301.6 185.7 312.75 188.05 330.1 159.4 338.65 170.55 341.3 170.05 346.95 169.3 365.4 166.75 341.3 187.0 332.25 194.55 328.7 197.55 321.75 209.8 316.35 219.35 306.7 236.35 302.1 268.55 263.55 325.45 Q259.2 327.65 255.55 326.25 253.8 325.5 252.3 324.05 250.75 321.55 250.1 318.45 249.3 315.0 249.45 310.8 L288.4 263.05 280.85 228.65 287.7 224.95 291.5 222.85 294.25 212.8 M299.4 243.4 L305.05 232.45 308.85 225.1 306.7 236.35 M296.9 248.2 L299.4 243.4 M296.9 248.2 L292.3 242.6 280.85 228.65 M280.95 286.15 L295.15 267.4 296.9 248.2 M280.95 286.15 L252.3 324.05" fill="none" stroke="#000000" stroke-linecap="round" stroke-linejoin="round" stroke-opacity="0.4" stroke-width="0.2"/>
    <path d="M301.6 185.65 L291.45 222.75 280.85 228.6 288.35 263.0 249.45 310.8 Q249.15 318.65 252.25 324.0 257.1 328.7 263.5 325.35 L302.05 268.45 306.65 236.3 328.7 197.5 365.4 166.65 338.6 170.5 330.05 159.4 312.75 188.0 301.6 185.65 Z" fill="none" stroke="#000000" stroke-linecap="round" stroke-linejoin="round" stroke-opacity="0.4" stroke-width="1.0"/>
    <path d="M181.65 250.5 Q182.25 246.2 184.2 241.55 L249.5 203.5 255.65 160.8 262.75 181.7 265.65 190.1 255.35 211.35 231.0 226.75 243.25 214.7 181.65 250.5" fill="#dbc5a4" fill-rule="evenodd" stroke="none"/>
    <path d="M281.9 180.7 L262.85 215.65 194.05 264.3 Q188.1 265.0 184.55 261.75 L258.75 214.15 281.75 175.5 289.25 168.75 281.9 180.7 M181.75 257.9 Q181.1 254.4 181.65 250.5 L243.25 214.7 231.0 226.75 181.75 257.9" fill="#c29d67" fill-rule="evenodd" stroke="none"/>
    <path d="M273.45 173.25 L273.1 175.35 273.0 175.3 273.45 173.25" fill="#f1e9dc" fill-rule="evenodd" stroke="none"/>
    <path d="M277.8 148.4 L298.0 120.4 309.65 127.95 341.9 102.5 346.95 119.0 350.2 119.55 339.45 126.4 326.55 134.45 314.9 141.85 330.9 117.7 310.1 138.55 294.65 154.0 295.4 145.3 295.85 139.8 273.1 175.35 273.45 173.25 277.8 148.4" fill="#ffffff" fill-rule="evenodd" stroke="none"/>
    <path d="M184.55 261.75 Q182.9 260.25 181.75 257.9 L231.0 226.75 255.35 211.35 265.65 190.1 270.55 185.75 281.75 175.5 258.75 214.15 184.55 261.75" fill="#ae8548" fill-rule="evenodd" stroke="none"/>
    <path d="M300.4 165.35 L281.9 180.7 289.25 168.75 281.75 175.5 295.4 145.3 294.65 154.0 310.1 138.55 300.4 165.35 M255.65 160.8 L265.05 159.45 262.75 181.7 255.65 160.8" fill="#d1c87a" fill-rule="evenodd" stroke="none"/>
    <path d="M329.3 143.8 L323.95 145.7 310.65 156.75 326.55 134.45 339.45 126.4 329.3 143.8 M273.1 175.35 L295.85 139.8 295.4 145.3 281.75 175.5 270.55 185.75 273.0 175.3 273.1 175.35" fill="#d8d08d" fill-rule="evenodd" stroke="none"/>
    <path d="M357.0 121.1 L379.3 126.2 Q361.1 132.55 342.9 139.0 L357.0 121.1 M310.65 156.75 L300.4 165.35 310.1 138.55 330.9 117.7 314.9 141.85 326.55 134.45 310.65 156.75 M265.05 159.45 L270.35 158.65 277.8 148.4 273.45 173.25 273.0 175.3 270.55 185.75 265.65 190.1 262.75 181.7 265.05 159.45" fill="#e0daa7" fill-rule="evenodd" stroke="none"/>
    <path d="M350.2 119.55 L357.0 121.1 342.9 139.0 329.3 143.8 339.45 126.4 350.2 119.55" fill="#ebe7c7" fill-rule="evenodd" stroke="none"/>
    <path d="M277.8 148.4 L298.0 120.4 309.65 127.95 341.9 102.5 346.95 119.0 350.2 119.55 357.0 121.1 379.3 126.2 Q361.1 132.55 342.9 139.0 L329.3 143.8 323.95 145.7 310.65 156.75 300.4 165.35 281.9 180.7 262.85 215.65 194.05 264.3 Q188.1 265.0 184.55 261.75 182.9 260.25 181.75 257.9 181.1 254.4 181.65 250.5 182.25 246.2 184.2 241.55 L249.5 203.5 255.65 160.8 265.05 159.45 270.35 158.65 277.8 148.4 M231.0 226.75 L255.35 211.35 265.65 190.1 262.75 181.7 255.65 160.8 M265.65 190.1 L270.55 185.75 281.75 175.5 289.25 168.75 281.9 180.7 M231.0 226.75 L181.75 257.9" fill="none" stroke="#000000" stroke-linecap="round" stroke-linejoin="round" stroke-opacity="0.4" stroke-width="0.2"/>
    <path d="M298.05 120.45 L270.4 158.65 255.75 160.8 249.55 203.45 184.25 241.5 Q180.45 250.45 181.8 257.9 185.3 265.35 194.1 264.3 L262.85 215.6 282.0 180.75 324.0 145.7 379.4 126.2 347.0 119.0 341.95 102.5 309.75 127.95 298.05 120.45 Z" fill="none" stroke="#000000" stroke-linecap="round" stroke-linejoin="round" stroke-opacity="0.4" stroke-width="1.0"/>
  </g>
</svg>
