<?xml version="1.0" encoding="UTF-8" standalone="no"?>
<svg xmlns:xlink="http://www.w3.org/1999/xlink" height="67.65px" width="60.5px" xmlns="http://www.w3.org/2000/svg">
  <g transform="matrix(1.0, 0.0, 0.0, 1.0, 0.5, 0.5)">
    <path d="M40.1 4.45 L40.5 4.65 39.9 5.45 39.8 4.6 40.1 4.45 M42.35 5.8 L46.2 5.4 41.8 10.2 40.35 8.95 40.4 8.9 42.35 5.8 M59.1 12.55 L59.2 12.7 59.5 13.25 59.1 15.4 57.8 13.85 59.1 12.55 M40.75 9.3 L41.55 10.5 37.4 14.95 37.4 15.3 36.3 14.05 36.85 14.45 40.75 9.3 M42.3 15.8 L47.05 16.95 43.2 18.4 42.8 18.5 40.55 15.95 40.7 15.9 41.55 15.9 42.3 15.8" fill="#846f61" fill-rule="evenodd" stroke="none"/>
    <path d="M0.35 49.05 L3.25 52.15 3.7 55.9 3.7 55.95 4.05 56.15 3.65 58.75 2.95 57.4 Q1.2 53.75 0.35 49.05 M9.95 44.75 L10.0 44.7 10.0 44.8 9.95 44.75" fill="#6d5c51" fill-rule="evenodd" stroke="none"/>
    <path d="M32.9 39.3 L33.35 39.3 33.25 39.65 32.9 39.3" fill="#910700" fill-opacity="0.8117647" fill-rule="evenodd" stroke="none"/>
    <path d="M30.9 45.8 L30.9 46.5 30.2 46.5 30.9 45.8 M34.65 20.65 L34.7 21.25 34.8 21.25 36.9 23.35 34.25 28.1 33.45 27.3 30.9 22.7 32.55 29.1 28.95 32.8 27.55 30.35 27.0 29.5 26.0 27.8 27.0 29.5 26.75 29.1 30.4 39.2 26.1 43.6 25.05 42.85 22.15 38.55 23.9 43.4 23.25 44.7 15.75 39.85 20.25 33.85 19.55 31.6 26.0 27.8 25.55 27.05 25.25 25.9 30.5 21.1 30.5 21.95 30.65 22.15 30.9 22.7 30.65 22.15 34.65 20.65 M13.5 45.95 L17.3 41.6 23.0 47.65 17.55 51.15 16.3 50.0 16.2 49.7 Q14.55 48.0 13.5 45.95 M20.25 33.85 L21.25 37.2 22.15 38.55 21.25 37.2 20.25 33.85" fill="#910700" fill-rule="evenodd" stroke="none"/>
    <path d="M45.75 22.8 L44.95 27.95 39.95 32.0 38.2 32.0 37.95 31.75 32.85 39.2 32.75 39.3 32.9 39.3 33.25 39.65 30.9 45.8 30.2 46.5 30.9 46.5 30.9 47.45 30.35 48.35 Q27.85 52.1 23.9 54.05 L23.4 54.5 Q20.6 53.75 17.55 51.15 L23.0 47.65 17.3 41.6 15.55 39.75 15.75 39.85 23.25 44.7 24.25 45.95 30.35 48.35 24.25 45.95 23.25 44.7 23.9 43.4 22.15 38.55 25.05 42.85 26.1 43.6 30.2 46.5 26.1 43.6 30.4 39.2 26.75 29.1 27.0 29.5 27.55 30.35 28.95 32.8 32.55 29.1 30.9 22.7 33.45 27.3 34.25 28.1 36.9 23.35 34.8 21.25 35.1 21.3 45.75 22.8 M38.2 32.0 L34.25 28.1 38.2 32.0 M28.95 32.8 L32.85 39.2 28.95 32.8" fill="url(#gradient0)" fill-rule="evenodd" stroke="none"/>
    <path d="M37.3 8.65 L34.2 12.6 33.5 13.45 33.85 13.55 34.35 17.95 34.65 20.65 30.65 22.15 30.5 21.95 30.5 21.1 25.25 25.9 25.55 27.05 26.0 27.8 19.55 31.6 17.95 26.25 19.55 31.6 20.25 33.85 15.75 39.85 15.55 39.75 12.1 37.25 15.55 39.75 17.3 41.6 13.5 45.95 Q12.1 43.2 11.7 39.8 11.65 39.2 12.05 38.55 L12.35 37.5 12.1 37.25 11.35 36.4 17.2 26.35 18.05 27.0 17.95 26.25 17.65 24.4 23.9 20.55 24.15 20.4 23.6 19.15 29.75 12.65 30.5 12.65 30.8 12.65 30.8 11.0 36.55 8.15 37.3 8.65 M30.5 12.65 L30.5 21.1 30.5 12.65 M25.25 25.9 L23.9 20.55 25.25 25.9" fill="url(#gradient1)" fill-rule="evenodd" stroke="none"/>
    <path d="M6.2 36.7 L6.3 36.5 9.9 36.5 10.2 36.85 10.0 44.3 5.85 39.4 6.2 36.7" fill="#947c6d" fill-rule="evenodd" stroke="none"/>
    <path d="M57.95 17.6 L45.75 22.8 35.1 21.3 37.65 20.4 38.1 20.2 42.8 18.5 43.2 18.4 47.35 19.15 53.0 17.25 57.95 17.6 M41.55 10.5 L40.75 9.3 38.95 9.3 40.25 9.05 40.3 9.05 40.35 8.95 41.8 10.2 41.55 10.45 41.55 10.5 M24.65 58.2 Q21.35 64.95 11.45 66.65 L11.4 66.6 Q10.0 65.0 8.6 59.75 L9.4 58.75 14.35 55.4 17.5 54.5 24.65 58.2" fill="#54463d" fill-rule="evenodd" stroke="none"/>
    <path d="M3.0 41.9 L5.85 39.4 10.0 44.3 10.0 44.7 9.95 44.75 3.05 50.15 3.3 52.2 3.25 52.15 0.35 49.05 0.3 48.7 0.0 46.75 3.0 41.9" fill="#826d60" fill-rule="evenodd" stroke="none"/>
    <path d="M40.1 4.45 L47.3 0.0 53.1 2.4 54.75 5.15 52.8 2.55 52.7 2.6 46.3 5.25 46.2 5.4 42.35 5.8 40.5 4.65 40.1 4.45 M5.85 39.4 L3.0 41.9 6.2 36.7 5.85 39.4" fill="#a68b7b" fill-rule="evenodd" stroke="none"/>
    <path d="M3.25 52.15 L3.3 52.2 3.05 50.15 9.95 44.75 10.0 44.8 14.15 52.7 14.2 52.75 9.4 58.75 8.6 59.75 8.25 60.15 8.25 60.6 Q6.95 58.35 4.05 56.15 L3.7 55.95 3.7 55.9 3.25 52.15" fill="url(#gradient2)" fill-rule="evenodd" stroke="none"/>
    <path d="M14.2 52.75 L14.3 52.8 17.5 54.5 14.35 55.4 9.4 58.75 14.2 52.75" fill="#705d51" fill-rule="evenodd" stroke="none"/>
    <path d="M11.4 66.6 L8.15 64.35 Q5.45 62.05 3.65 58.75 L4.05 56.15 Q6.95 58.35 8.25 60.6 L8.25 60.15 8.6 59.75 Q10.0 65.0 11.4 66.6" fill="#635349" fill-rule="evenodd" stroke="none"/>
    <path d="M23.9 54.05 L23.95 54.05 24.75 57.95 24.65 58.2 17.5 54.5 14.3 52.8 14.2 52.75 14.15 52.7 10.0 44.8 10.0 44.7 10.0 44.3 10.2 36.85 12.05 38.55 Q11.65 39.2 11.7 39.8 12.1 43.2 13.5 45.95 14.55 48.0 16.2 49.7 L16.3 50.0 17.55 51.15 Q20.6 53.75 23.4 54.5 L23.9 54.05 M23.4 54.5 L22.9 54.95 23.4 54.5" fill="url(#gradient3)" fill-rule="evenodd" stroke="none"/>
    <path d="M46.2 5.4 L46.3 5.25 52.7 2.6 52.8 2.55 54.75 5.15 59.1 12.55 57.8 13.85 49.1 14.95 42.3 15.8 41.55 15.9 40.7 15.9 40.55 15.95 37.6 16.6 37.45 16.65 37.4 16.65 37.4 15.9 37.4 15.3 37.4 14.95 41.55 10.5 41.55 10.45 41.8 10.2 46.2 5.4" fill="url(#gradient4)" fill-rule="evenodd" stroke="none"/>
    <path d="M59.1 15.4 L58.7 17.25 58.2 17.5 58.05 17.55 57.95 17.6 53.0 17.25 48.4 16.35 49.1 14.95 57.8 13.85 59.1 15.4" fill="#756256" fill-rule="evenodd" stroke="none"/>
    <path d="M40.5 4.65 L42.35 5.8 40.4 8.9 40.35 8.95 40.3 9.05 40.25 9.05 38.95 9.3 40.75 9.3 36.85 14.45 36.3 14.05 34.2 12.6 37.3 8.65 39.9 5.45 40.5 4.65" fill="#8f7869" fill-rule="evenodd" stroke="none"/>
    <path d="M37.6 16.6 L37.45 16.7 37.25 16.75 34.9 17.7 37.4 15.9 37.4 16.65 37.45 16.65 37.6 16.6" fill="#5f4f45" fill-rule="evenodd" stroke="none"/>
    <path d="M36.3 14.05 L37.4 15.3 37.4 15.9 34.9 17.7 34.35 17.95 33.85 13.55 33.5 13.45 34.2 12.6 36.3 14.05" fill="#a18777" fill-rule="evenodd" stroke="none"/>
    <path d="M40.55 15.95 L42.8 18.5 38.1 20.2 38.1 19.15 37.45 16.7 37.6 16.6 40.55 15.95 M37.25 16.75 L37.8 19.45 37.65 20.4 35.1 21.3 34.8 21.25 34.7 21.25 34.65 20.65 34.35 17.95 34.9 17.7 37.25 16.75" fill="#967e6f" fill-rule="evenodd" stroke="none"/>
    <path d="M48.4 16.35 L47.7 17.25 47.35 16.85 47.05 16.95 42.3 15.8 49.1 14.95 48.4 16.35" fill="#8c7667" fill-rule="evenodd" stroke="none"/>
    <path d="M47.05 16.95 L47.35 16.85 47.7 17.25 48.4 16.35 53.0 17.25 47.35 19.15 43.2 18.4 47.05 16.95" fill="#615146" fill-rule="evenodd" stroke="none"/>
    <path d="M37.45 16.7 L38.1 19.15 38.1 20.2 37.65 20.4 37.8 19.45 37.25 16.75 37.45 16.7" fill="#6e5c51" fill-rule="evenodd" stroke="none"/>
    <path d="M54.75 5.15 L53.1 2.4 47.3 0.0 40.1 4.45 39.8 4.6 39.9 5.45 37.3 8.65 34.2 12.6 33.5 13.45 M54.75 5.15 L59.1 12.55 59.2 12.7 59.5 13.2 59.5 13.25 59.1 15.4 58.7 17.25 58.2 17.5 M57.95 17.6 L45.75 22.8 44.95 27.95 39.95 32.0 38.2 32.0 37.95 31.75 32.85 39.2 32.9 39.3 33.35 39.3 33.25 39.65 30.9 45.8 30.9 46.5 30.9 47.45 30.35 48.35 Q27.85 52.1 23.9 54.05 L23.95 54.05 24.75 57.95 25.0 59.15 M59.2 12.7 L59.5 13.25 M39.9 5.45 L40.5 4.65 M17.65 24.4 L23.9 20.55 24.15 20.4 23.6 19.15 29.75 12.65 30.5 12.65 30.8 12.65 30.8 11.0 36.55 8.15 37.3 8.65 M33.85 13.55 L34.35 17.95 34.65 20.65 34.7 21.25 34.8 21.25 35.1 21.3 45.75 22.8 M30.65 22.15 L30.5 21.95 30.5 21.1 30.5 12.65 M25.25 25.9 L25.55 27.05 26.0 27.8 27.0 29.5 27.55 30.35 28.95 32.8 32.85 39.2 32.75 39.3 32.9 39.3 33.25 39.65 M30.9 22.7 L30.65 22.15 M34.25 28.1 L38.2 32.0 M17.65 24.4 L17.55 23.75 M19.55 31.6 L17.95 26.25 18.05 27.0 17.2 26.35 11.35 36.4 12.1 37.25 15.55 39.75 15.75 39.85 23.25 44.7 24.25 45.95 30.35 48.35 M20.25 33.85 L19.55 31.6 M6.2 36.7 L6.3 36.5 9.9 36.5 10.2 36.85 12.05 38.55 12.35 37.5 12.1 37.25 M6.2 36.7 L3.0 41.9 0.0 46.75 0.3 48.7 M13.5 45.95 Q12.1 43.2 11.7 39.8 11.65 39.2 12.05 38.55 M13.5 45.95 Q14.55 48.0 16.2 49.7 L16.3 50.0 17.55 51.15 Q20.6 53.75 23.4 54.5 L23.9 54.05 M34.25 28.1 L33.45 27.3 30.9 22.7 M26.1 43.6 L25.05 42.85 22.15 38.55 21.25 37.2 20.25 33.85 M30.2 46.5 L26.1 43.6 M23.9 20.55 L25.25 25.9 M17.95 26.25 L17.65 24.4 M22.9 54.95 L23.4 54.5 M24.75 57.95 L24.65 58.2 Q21.35 64.95 11.45 66.65 L11.4 66.6 8.15 64.35 Q5.45 62.05 3.65 58.75 L2.95 57.4 Q1.2 53.75 0.35 49.05" fill="none" stroke="#000000" stroke-linecap="round" stroke-linejoin="round" stroke-opacity="0.2509804" stroke-width="1.0"/>
  </g>
  <defs>
    <linearGradient gradientTransform="matrix(1.0, 0.0, 0.0, 1.0, 0.0, 0.0)" gradientUnits="userSpaceOnUse" id="gradient0" spreadMethod="pad" x1="-819.2" x2="819.2">
      <stop offset="0.0" stop-color="#910700"/>
      <stop offset="1.0" stop-color="#5d0400"/>
    </linearGradient>
    <linearGradient gradientTransform="matrix(-0.006, -0.0073, 0.7724, -0.6329, 4.15, 40.5)" gradientUnits="userSpaceOnUse" id="gradient1" spreadMethod="pad" x1="-819.2" x2="819.2">
      <stop offset="0.0" stop-color="#910700"/>
      <stop offset="1.0" stop-color="#bb6662"/>
    </linearGradient>
    <linearGradient gradientTransform="matrix(-0.0035, -0.0035, 0.0068, -0.0068, 9.05, 52.1)" gradientUnits="userSpaceOnUse" id="gradient2" spreadMethod="pad" x1="-819.2" x2="819.2">
      <stop offset="0.0" stop-color="#947c6d"/>
      <stop offset="1.0" stop-color="#6d5c51"/>
    </linearGradient>
    <linearGradient gradientTransform="matrix(0.0256, 0.011, -0.0052, 0.0119, 30.5, 49.05)" gradientUnits="userSpaceOnUse" id="gradient3" spreadMethod="pad" x1="-819.2" x2="819.2">
      <stop offset="0.0" stop-color="#6d5c51"/>
      <stop offset="1.0" stop-color="#000000"/>
    </linearGradient>
    <linearGradient gradientTransform="matrix(0.0025, 0.0043, -0.0068, 0.0039, 49.3, 7.0)" gradientUnits="userSpaceOnUse" id="gradient4" spreadMethod="pad" x1="-819.2" x2="819.2">
      <stop offset="0.0" stop-color="#846f61"/>
      <stop offset="1.0" stop-color="#54463d"/>
    </linearGradient>
  </defs>
</svg>
