<?xml version="1.0" encoding="UTF-8" standalone="no"?>
<svg xmlns:xlink="http://www.w3.org/1999/xlink" height="134.6px" width="242.25px" xmlns="http://www.w3.org/2000/svg">
  <g transform="matrix(1.0, 0.0, 0.0, 1.0, 121.1, 67.3)">
    <path d="M-110.7 -55.2 L-110.9 -55.35 -110.75 -55.15 Q-99.75 -41.75 -69.0 -15.15 -61.35 -4.95 -48.05 4.75 -37.25 12.65 -23.8 19.75 -19.55 25.05 4.75 38.95 29.05 52.85 69.3 50.75 83.3 56.15 97.55 57.95 94.1 53.15 88.1 50.85 27.5 28.8 -48.05 -15.1 L-75.55 -31.55 Q-90.0 -40.9 -101.0 -48.4 -103.1 -51.95 -99.25 -51.0 -73.9 -32.15 -32.0 -7.65 18.3 21.75 98.05 47.4 90.2 38.7 75.6 30.95 42.65 5.4 9.65 -2.45 -3.45 -13.4 -20.2 -21.85 -21.0 -24.5 -19.45 -24.75 -3.3 -16.5 10.3 -5.7 41.25 1.85 76.35 28.8 93.0 36.45 104.9 49.65 109.9 51.95 117.8 62.0 121.15 63.7 121.15 65.25 116.4 70.55 99.9 62.15 L68.05 54.0 Q42.95 55.75 22.35 49.5 -9.8 38.4 -25.65 21.55 -38.1 15.4 -48.05 8.5 -62.7 -1.7 -71.85 -13.45 -106.95 -43.25 -119.75 -63.45 L-120.4 -64.5 Q-122.35 -68.15 -118.7 -67.0 -84.6 -49.25 -48.05 -36.75 L-47.5 -36.55 -40.05 -33.9 Q-38.1 -31.3 -39.1 -30.2 L-44.55 -32.2 -48.05 -33.25 Q-79.1 -42.75 -108.8 -58.3 -111.65 -59.35 -110.7 -55.2 M-27.1 -25.2 L-35.85 -28.9 Q-36.65 -31.2 -35.4 -32.05 L-27.7 -28.75 Q-25.9 -26.7 -27.1 -25.2" fill="url(#gradient0)" fill-rule="evenodd" stroke="none"/>
    <path d="M-110.75 -55.15 L-110.9 -55.35 -110.7 -55.2 -101.0 -48.4 Q-90.0 -40.9 -75.55 -31.55 L-48.05 -15.1 Q27.5 28.8 88.1 50.85 94.1 53.15 97.55 57.95 83.3 56.15 69.3 50.75 29.05 52.85 4.75 38.95 -19.55 25.05 -23.8 19.75 -37.25 12.65 -48.05 4.75 -61.35 -4.95 -69.0 -15.15 -99.75 -41.75 -110.75 -55.15" fill="url(#gradient1)" fill-rule="evenodd" stroke="none"/>
    <path d="M-108.8 -58.3 Q-79.1 -42.75 -48.05 -33.25 L-44.55 -32.2 -39.1 -30.2 Q-36.2 -22.65 -36.3 -17.55 -35.5 -23.3 -35.85 -28.9 L-27.1 -25.2 Q-23.5 -15.5 -24.0 -7.7 -21.05 -13.15 -20.2 -21.85 -3.45 -13.4 9.65 -2.45 42.65 5.4 75.6 30.95 90.2 38.7 98.05 47.4 18.3 21.75 -32.0 -7.65 -73.9 -32.15 -99.25 -51.0 L-108.8 -58.3" fill="url(#gradient2)" fill-rule="evenodd" stroke="none"/>
    <path d="M-101.0 -48.4 L-110.7 -55.2 Q-111.65 -59.35 -108.8 -58.3 L-99.25 -51.0 Q-103.1 -51.95 -101.0 -48.4" fill="#6d8646" fill-rule="evenodd" stroke="none"/>
    <path d="M-110.7 -55.2 L-110.9 -55.35 -110.75 -55.15 M-110.7 -55.2 Q-111.65 -59.35 -108.8 -58.3 M-39.1 -30.2 Q-38.1 -31.3 -40.05 -33.9 L-47.5 -36.55 -48.05 -36.75 Q-84.6 -49.25 -118.7 -67.0 -122.35 -68.15 -120.4 -64.5 L-119.75 -63.45 Q-106.95 -43.25 -71.85 -13.45 -62.7 -1.7 -48.05 8.5 -38.1 15.4 -25.65 21.55 -9.8 38.4 22.35 49.5 42.95 55.75 68.05 54.0 L99.9 62.15 Q116.4 70.55 121.15 65.25 121.15 63.7 117.8 62.0 109.9 51.95 104.9 49.65 93.0 36.45 76.35 28.8 41.25 1.85 10.3 -5.7 -3.3 -16.5 -19.45 -24.75 -21.0 -24.5 -20.2 -21.85 M-99.25 -51.0 Q-103.1 -51.95 -101.0 -48.4 M-27.1 -25.2 Q-25.9 -26.7 -27.7 -28.75 L-35.4 -32.05 Q-36.65 -31.2 -35.85 -28.9" fill="none" stroke="#333333" stroke-linecap="round" stroke-linejoin="round" stroke-opacity="0.32156864" stroke-width="0.05"/>
  </g>
  <defs>
    <linearGradient gradientTransform="matrix(0.0722, 0.0338, -0.0129, 0.0276, 26.2, 24.0)" gradientUnits="userSpaceOnUse" id="gradient0" spreadMethod="pad" x1="-819.2" x2="819.2">
      <stop offset="0.0" stop-color="#feffda"/>
      <stop offset="1.0" stop-color="#ffedd4"/>
    </linearGradient>
    <linearGradient gradientTransform="matrix(-0.0759, -0.0355, 0.0092, -0.0198, -11.55, 10.8)" gradientUnits="userSpaceOnUse" id="gradient1" spreadMethod="pad" x1="-819.2" x2="819.2">
      <stop offset="0.0" stop-color="#8fa979"/>
      <stop offset="1.0" stop-color="#afb591"/>
    </linearGradient>
    <linearGradient gradientTransform="matrix(0.061, 0.021, -0.0065, 0.0188, 17.65, 2.5)" gradientUnits="userSpaceOnUse" id="gradient2" spreadMethod="pad" x1="-819.2" x2="819.2">
      <stop offset="0.0" stop-color="#6d8646"/>
      <stop offset="1.0" stop-color="#4d5830"/>
    </linearGradient>
  </defs>
</svg>
