<?xml version="1.0" encoding="UTF-8" standalone="no"?>
<svg xmlns:xlink="http://www.w3.org/1999/xlink" height="35.5px" width="55.25px" xmlns="http://www.w3.org/2000/svg">
  <g transform="matrix(1.0, 0.0, 0.0, 1.0, 17.75, 11.4)">
    <path d="M18.4 10.9 L17.6 12.2 11.1 8.25 -14.95 -7.6 -17.75 -9.3 -17.75 -10.65 11.15 6.7 11.15 6.45 18.4 10.9" fill="#ffcf2b" fill-rule="evenodd" stroke="none"/>
    <path d="M-17.75 -10.65 L-16.35 -11.4 -12.2 -8.85 13.6 7.1 18.7 10.25 18.4 10.9 11.15 6.45 11.15 6.7 -17.75 -10.65" fill="#ffffd7" fill-rule="evenodd" stroke="none"/>
    <path d="M-17.75 -10.65 L-16.35 -11.4 -12.2 -8.85 M13.6 7.1 L18.7 10.25 M17.6 12.2 L11.1 8.25 M-14.95 -7.6 L-17.75 -9.3 -17.75 -10.65" fill="none" stroke="#000000" stroke-linecap="round" stroke-linejoin="round" stroke-opacity="0.4" stroke-width="0.05"/>
    <path d="M-12.2 -8.85 L13.6 7.1 M11.1 8.25 L-14.95 -7.6" fill="none" stroke="#530000" stroke-linecap="round" stroke-linejoin="round" stroke-opacity="0.4" stroke-width="0.05"/>
    <path d="M16.45 12.35 L16.5 11.65 16.75 11.4 17.6 12.75 19.65 13.35 19.85 13.3 22.5 13.05 20.85 14.6 19.4 14.45 17.6 13.6 16.45 12.35 M19.95 10.8 L20.0 10.9 19.7 12.5 19.1 12.35 18.8 11.8 19.95 10.8" fill="#ffcf2b" fill-rule="evenodd" stroke="none"/>
    <path d="M16.75 11.4 L18.7 10.1 19.95 10.8 18.8 11.8 19.1 12.35 19.7 12.5 21.5 12.45 Q20.65 12.8 19.85 13.3 L19.65 13.35 17.6 12.75 16.75 11.4" fill="#d1a100" fill-rule="evenodd" stroke="none"/>
    <path d="M21.5 12.45 L22.1 12.35 Q23.05 12.45 27.3 9.7 L30.6 10.0 Q32.75 11.65 33.55 14.15 L32.55 19.4 30.1 19.95 29.65 19.95 Q31.05 16.55 30.1 12.6 29.2 11.1 28.0 11.05 L22.5 12.95 22.5 13.05 19.85 13.3 Q20.65 12.8 21.5 12.45 M20.65 14.9 L18.95 15.15 16.45 13.45 16.45 12.35 17.6 13.6 19.4 14.45 20.85 14.6 20.65 14.9" fill="#ffffd7" fill-rule="evenodd" stroke="none"/>
    <path d="M24.05 15.25 Q23.45 14.7 22.65 14.6 L20.65 14.9 20.85 14.6 22.5 13.05 22.5 12.95 28.0 11.05 Q29.2 11.1 30.1 12.6 28.25 13.35 24.05 15.25" fill="#b18100" fill-rule="evenodd" stroke="none"/>
    <path d="M29.65 19.95 Q28.1 19.95 26.25 18.65 25.3 16.15 24.05 15.25 28.25 13.35 30.1 12.6 31.05 16.55 29.65 19.95" fill="#714100" fill-rule="evenodd" stroke="none"/>
    <path d="M21.5 12.45 L22.1 12.35 Q23.05 12.45 27.3 9.7 L30.6 10.0 Q32.75 11.65 33.55 14.15 L32.55 19.4 30.1 19.95 29.65 19.95 Q28.1 19.95 26.25 18.65 25.3 16.15 24.05 15.25 23.45 14.7 22.65 14.6 L20.65 14.9 18.95 15.15 16.45 13.45 16.45 12.35 16.5 11.65 16.75 11.4 18.7 10.1 19.95 10.8 20.0 10.9 19.7 12.5 21.5 12.45 M19.1 12.35 L19.7 12.5" fill="none" stroke="#926030" stroke-linecap="round" stroke-linejoin="round" stroke-width="0.05"/>
    <path d="M34.0 14.15 L34.35 14.05 Q35.95 13.0 35.65 12.2 36.2 13.2 34.85 15.15 L34.7 15.3 34.5 16.0 34.65 16.15 35.05 16.3 Q35.65 16.8 34.0 17.4 35.55 18.5 32.6 18.9 L33.85 19.45 Q32.7 20.45 30.45 20.2 30.3 21.7 28.65 21.7 L28.5 21.7 Q27.25 21.2 26.8 20.45 L26.8 20.35 26.65 20.05 26.25 18.8 26.25 18.75 26.15 18.5 26.15 18.4 26.65 17.55 Q28.6 14.7 30.35 14.05 L30.75 14.0 30.45 14.7 Q30.05 15.3 30.0 16.0 29.8 16.65 30.05 16.85 L30.6 16.7 31.3 15.7 31.4 15.6 31.75 14.3 31.75 13.85 Q32.55 13.15 33.8 13.55 L34.0 14.15 M30.3 18.35 Q31.85 17.25 31.4 15.6 31.85 17.25 30.3 18.35 M34.35 19.1 L34.25 19.45 33.85 19.45 34.35 19.1" fill="#ffcf2b" fill-rule="evenodd" stroke="none"/>
    <path d="M31.75 13.85 L31.75 14.3 31.4 15.6 31.3 15.7 30.6 16.7 30.05 16.85 Q29.8 16.65 30.0 16.0 30.05 15.3 30.45 14.7 L30.75 14.0 31.05 13.6 Q31.45 13.2 31.7 13.45 L31.75 13.85" fill="#f40bae" fill-opacity="0.32156864" fill-rule="evenodd" stroke="none"/>
    <path d="M33.8 13.55 Q32.55 13.15 31.75 13.85 L31.7 13.45 Q31.45 13.2 31.05 13.6 L30.75 14.0 30.35 14.05 Q28.6 14.7 26.65 17.55 L26.8 17.2 28.5 13.55 28.65 13.3 28.9 12.85 28.9 13.15 29.45 12.05 29.3 11.2 Q29.35 11.1 29.5 11.1 30.35 10.55 31.0 10.65 31.7 10.75 32.7 11.75 33.4 12.35 33.8 13.55 M26.8 20.45 Q27.25 21.2 28.5 21.7 L28.65 21.7 30.7 21.75 31.6 21.75 31.05 22.05 30.7 22.25 Q29.2 22.75 27.95 21.9 L27.2 21.15 26.8 20.45 M36.25 17.55 L36.9 17.7 37.5 17.8 Q35.8 18.4 34.5 19.1 L36.25 17.55 M36.35 21.05 Q36.95 22.15 36.95 24.1 36.25 21.15 34.1 20.9 L36.35 21.05 M30.7 22.25 L30.7 21.75 30.7 22.25" fill="#ffffd7" fill-rule="evenodd" stroke="none"/>
    <path d="M28.65 13.3 L26.85 14.0 Q27.55 12.45 28.9 11.5 L29.3 11.2 29.45 12.05 28.9 13.15 28.9 12.85 28.65 13.3" fill="#b18100" fill-rule="evenodd" stroke="none"/>
    <path d="M28.65 21.7 Q30.3 21.7 30.45 20.2 32.7 20.45 33.85 19.45 L32.6 18.9 Q35.55 18.5 34.0 17.4 35.65 16.8 35.05 16.3 L35.55 16.4 36.95 15.55 Q36.5 17.0 35.1 17.55 L36.25 17.55 34.5 19.1 34.35 19.1 33.85 19.45 34.25 19.45 Q35.65 19.65 36.35 21.05 L34.1 20.9 33.65 20.85 33.3 20.85 32.4 21.0 32.15 21.2 32.05 21.4 31.6 21.75 30.7 21.75 Q30.75 20.75 30.45 20.2 30.75 20.75 30.7 21.75 L28.65 21.7 M34.0 17.4 L35.1 17.55 34.0 17.4" fill="#ffe541" fill-rule="evenodd" stroke="none"/>
    <path d="M28.65 13.3 L28.5 13.55 26.8 17.2 26.65 17.55 26.15 18.4 26.15 16.8 Q26.1 16.15 26.85 14.0 L28.65 13.3" fill="#714100" fill-rule="evenodd" stroke="none"/>
    <path d="M35.05 16.3 L34.65 16.15 34.5 16.0 34.7 15.3 34.85 15.15 Q36.2 13.2 35.65 12.2 35.95 13.0 34.35 14.05 L34.0 14.15 M31.4 15.6 Q31.85 17.25 30.3 18.35 M26.65 17.55 L26.8 17.2 28.5 13.55 28.65 13.3 28.9 12.85 M26.15 18.4 L26.65 17.55 M26.15 18.4 L26.15 18.5 26.25 18.75 26.25 18.8 26.65 20.05 26.8 20.35 26.8 20.45 27.2 21.15 M33.85 19.45 L32.6 18.9 M35.05 16.3 L35.55 16.4 36.95 15.55 Q36.5 17.0 35.1 17.55 L36.25 17.55 M36.9 17.7 L37.5 17.8 Q35.8 18.4 34.5 19.1 L34.35 19.1 34.25 19.45 Q35.65 19.65 36.35 21.05 36.95 22.15 36.95 24.1 36.25 21.15 34.1 20.9 M33.65 20.85 L33.3 20.85 32.4 21.0 32.15 21.2 32.05 21.4 M30.7 21.75 L30.7 22.25 M30.45 20.2 Q30.75 20.75 30.7 21.75 M35.1 17.55 L34.0 17.4 M33.85 19.45 L34.35 19.1 M34.25 19.45 L33.85 19.45" fill="none" stroke="#530000" stroke-linecap="round" stroke-linejoin="round" stroke-opacity="0.6" stroke-width="0.05"/>
    <path d="M34.0 14.15 L33.8 13.55 Q33.4 12.35 32.7 11.75 31.7 10.75 31.0 10.65 M32.05 21.4 L31.6 21.75 31.05 22.05 30.7 22.25 Q29.2 22.75 27.95 21.9 L27.2 21.15" fill="none" stroke="#530000" stroke-linecap="round" stroke-linejoin="round" stroke-opacity="0.6" stroke-width="0.05"/>
  </g>
</svg>
