<?xml version="1.0" encoding="UTF-8" standalone="no"?>
<svg xmlns:xlink="http://www.w3.org/1999/xlink" height="76.8px" width="86.45px" xmlns="http://www.w3.org/2000/svg">
  <g transform="matrix(1.0, 0.0, 0.0, 1.0, -303.35, -190.6)">
    <path d="M310.5 230.7 L310.95 230.6 311.0 230.8 310.5 230.7 M314.2 209.65 L314.3 209.45 314.35 209.3 314.4 209.15 314.3 209.45 314.2 209.65 M333.1 250.0 L333.3 250.0 333.1 250.3 333.1 250.0" fill="#f5eed3" fill-rule="evenodd" stroke="none"/>
    <path d="M370.15 200.75 L370.2 201.0 370.15 201.0 370.15 200.75" fill="#dec696" fill-rule="evenodd" stroke="none"/>
    <path d="M313.95 213.55 L313.85 212.15 Q313.85 210.85 314.2 209.65 L314.3 209.45 Q317.75 203.9 320.8 203.9 323.85 203.9 325.35 204.55 325.4 203.8 325.6 203.1 326.0 201.8 327.0 200.8 328.7 199.15 331.1 199.15 332.8 199.15 334.15 200.0 L335.15 200.8 335.95 201.75 Q342.8 196.9 344.55 204.25 353.9 201.9 354.05 215.1 361.15 210.85 360.9 217.2 365.8 219.1 367.55 222.3 365.85 227.15 360.6 229.2 362.95 233.35 360.75 237.25 355.9 239.65 354.2 237.4 353.6 239.05 351.85 240.3 348.3 242.7 345.1 243.1 349.0 236.9 340.3 232.5 343.35 223.3 334.25 222.7 329.85 212.95 326.35 219.05 318.15 206.45 313.95 213.55 M366.8 246.25 Q368.55 245.55 369.9 245.55 371.25 245.55 372.2 246.4 373.2 247.25 373.2 248.45 373.2 249.65 372.2 250.5 L368.75 253.05 Q366.25 254.75 365.15 253.4 363.95 252.05 364.5 249.5 364.75 248.2 365.35 247.4 L365.5 247.25 Q366.0 246.55 366.8 246.25 M328.25 206.7 L327.9 206.3 Q326.75 205.15 325.35 204.55 326.75 205.15 327.9 206.3 L328.25 206.7 M336.6 203.2 L335.95 201.75 336.6 203.2" fill="#ffcc00" fill-rule="evenodd" stroke="none"/>
    <path d="M334.15 200.0 Q334.75 197.65 336.6 195.85 337.75 194.7 339.15 194.05 341.0 193.15 343.25 193.15 346.9 193.15 349.55 195.5 L351.1 193.75 352.0 193.05 Q353.15 192.2 354.4 191.7 356.25 190.95 358.4 190.9 L359.0 190.85 Q363.45 190.85 366.65 193.6 L366.85 193.75 Q368.0 194.75 368.75 195.9 L368.85 196.05 Q370.15 198.15 370.15 200.75 L370.15 201.0 370.2 201.0 Q373.05 200.1 374.45 204.0 L375.6 203.9 377.1 204.05 Q378.65 204.4 380.0 205.45 382.3 212.3 374.9 211.8 L379.25 212.45 Q375.35 218.85 368.5 217.95 L366.65 216.15 368.15 218.15 368.25 218.35 Q368.15 220.5 367.55 222.3 365.8 219.1 360.9 217.2 361.15 210.85 354.05 215.1 353.9 201.9 344.55 204.25 342.8 196.9 335.95 201.75 L335.15 200.8 334.15 200.0 M349.55 195.5 Q348.8 196.55 348.4 197.7 348.8 196.55 349.55 195.5 M373.4 204.25 L374.45 204.0 373.4 204.25 M369.85 203.15 L370.15 201.0 369.85 203.15 M367.6 213.3 L367.65 213.25 367.6 213.25 367.6 213.3" fill="#cc0000" fill-rule="evenodd" stroke="none"/>
    <path d="M310.95 230.6 L312.7 230.25 Q307.3 228.7 305.7 224.65 L305.3 223.35 Q305.5 222.3 306.0 221.4 306.65 220.2 307.8 219.2 309.45 217.75 311.6 217.2 L314.2 216.85 314.35 216.85 315.05 216.9 315.35 216.9 315.25 216.75 315.1 216.5 Q314.5 215.6 314.2 214.6 L313.95 213.55 Q318.15 206.45 326.35 219.05 329.85 212.95 334.25 222.7 343.35 223.3 340.3 232.5 349.0 236.9 345.1 243.1 341.0 243.6 337.4 240.8 L335.65 242.3 Q326.6 247.9 318.4 243.2 L317.6 241.6 317.75 240.4 Q318.05 238.9 318.6 237.6 314.15 238.55 310.6 236.2 L310.4 236.0 Q307.8 232.85 311.0 230.8 L310.95 230.6 M333.1 250.0 L333.2 248.2 Q333.8 246.15 335.8 245.4 340.3 249.15 346.8 248.0 L347.35 249.0 346.25 250.25 Q343.35 253.1 339.45 252.9 335.8 252.7 333.3 250.0 L333.1 250.0 M331.45 233.4 L327.2 233.85 Q325.9 234.1 325.3 235.15 324.7 236.15 325.15 237.4 325.5 238.6 326.7 239.3 327.85 239.95 329.75 240.25 L331.35 240.05 331.6 240.0 333.35 238.6 Q335.05 236.6 334.75 234.9 334.45 233.15 331.45 233.4 M310.7 222.25 L309.3 222.35 Q308.65 222.7 308.5 223.5 308.35 224.25 308.75 225.0 L310.1 226.45 Q310.5 226.75 311.0 226.85 L311.15 226.85 312.55 226.65 Q314.05 226.15 314.45 225.15 314.8 224.1 313.1 223.3 L310.7 222.25 M317.5 217.3 L316.8 217.15 315.35 216.9 316.8 217.15 317.5 217.3" fill="#acc840" fill-rule="evenodd" stroke="none"/>
    <path d="M345.0 265.1 L342.55 266.4 Q340.5 267.15 338.0 267.15 L337.45 267.15 Q334.7 267.05 332.6 266.05 L331.0 265.1 Q328.55 263.35 328.2 261.0 325.6 262.4 322.25 262.4 L321.75 262.4 Q317.85 262.25 315.05 260.2 312.5 258.35 312.15 255.85 309.45 255.55 307.45 253.85 305.1 251.85 305.1 249.0 305.1 248.3 305.25 247.65 L305.45 247.0 Q305.95 245.4 307.4 244.15 L307.45 244.1 309.75 242.75 310.95 241.95 313.15 240.6 Q309.9 242.2 304.9 240.1 304.0 239.1 303.75 237.9 L303.6 236.75 Q303.6 234.2 305.95 232.4 306.7 231.85 307.5 231.45 L308.1 231.25 308.3 231.15 308.3 231.2 308.75 231.05 309.0 231.05 310.5 230.7 311.0 230.8 Q307.8 232.85 310.4 236.0 L310.6 236.2 Q314.15 238.55 318.6 237.6 318.05 238.9 317.75 240.4 L317.6 241.6 318.4 243.2 Q326.6 247.9 335.65 242.3 L337.4 240.8 Q341.0 243.6 345.1 243.1 350.85 246.65 347.2 253.05 351.65 257.3 347.75 261.5 347.2 263.55 345.0 265.1 M331.45 233.4 Q334.45 233.15 334.75 234.9 335.05 236.6 333.35 238.6 L331.6 240.0 331.35 240.05 329.75 240.25 Q327.85 239.95 326.7 239.3 325.5 238.6 325.15 237.4 324.7 236.15 325.3 235.15 325.9 234.1 327.2 233.85 L331.45 233.4 M333.3 250.0 Q335.8 252.7 339.45 252.9 343.35 253.1 346.25 250.25 L347.35 249.0 346.8 248.0 Q340.3 249.15 335.8 245.4 333.8 246.15 333.2 248.2 L333.1 250.0 333.1 250.3 333.3 250.0 M330.3 259.45 L329.4 260.2 328.2 261.0 329.4 260.2 330.3 259.45 M310.7 222.25 L313.1 223.3 Q314.8 224.1 314.45 225.15 314.05 226.15 312.55 226.65 L311.15 226.85 311.0 226.85 Q310.5 226.75 310.1 226.45 L308.75 225.0 Q308.35 224.25 308.5 223.5 308.65 222.7 309.3 222.35 L310.7 222.25 M312.15 255.85 L313.25 255.9 316.05 255.5 313.25 255.9 312.15 255.85" fill="#7a8e28" fill-rule="evenodd" stroke="none"/>
    <path d="M371.55 258.75 L371.0 259.05 Q365.2 261.9 354.55 260.2 L352.85 259.9 Q347.65 263.6 345.05 265.2 L345.0 265.1 Q347.2 263.55 347.75 261.5 351.65 257.3 347.2 253.05 350.85 246.65 345.1 243.1 348.3 242.7 351.85 240.3 353.6 239.05 354.2 237.4 355.9 239.65 360.75 237.25 362.95 233.35 360.6 229.2 365.85 227.15 367.55 222.3 369.05 225.15 368.0 229.05 378.55 222.25 375.65 236.45 382.5 240.95 377.5 245.45 378.1 246.05 378.95 246.45 378.2 256.55 371.55 258.75 M366.8 246.25 Q366.0 246.55 365.5 247.25 L365.35 247.4 Q364.75 248.2 364.5 249.5 363.95 252.05 365.15 253.4 366.25 254.75 368.75 253.05 L372.2 250.5 Q373.2 249.65 373.2 248.45 373.2 247.25 372.2 246.4 371.25 245.55 369.9 245.55 368.55 245.55 366.8 246.25" fill="#d7ac00" fill-rule="evenodd" stroke="none"/>
    <path d="M368.85 196.05 L368.85 195.9 369.1 195.9 Q372.4 195.9 374.75 198.45 L375.85 199.9 375.95 200.1 Q376.95 201.85 377.1 204.05 L375.6 203.9 374.45 204.0 Q373.05 200.1 370.2 201.0 L370.15 200.75 Q370.15 198.15 368.85 196.05 M380.0 205.45 L381.25 206.65 381.4 206.8 Q383.5 209.45 383.6 213.1 L384.0 217.2 Q384.15 219.25 383.25 220.8 L381.85 222.4 381.75 222.5 381.25 222.8 381.05 222.95 381.25 223.05 381.55 223.15 383.8 224.35 385.65 225.85 386.15 226.3 387.05 227.3 388.05 228.65 388.25 229.05 Q390.65 235.4 388.7 236.95 L387.05 238.0 385.15 238.65 386.25 240.0 386.25 240.05 387.1 241.8 386.95 242.7 Q386.3 245.0 384.25 246.2 382.75 247.05 381.2 247.0 381.8 249.3 381.15 251.8 380.7 253.4 379.8 254.65 378.65 256.35 376.7 257.45 374.2 258.9 371.55 258.75 378.2 256.55 378.95 246.45 378.1 246.05 377.5 245.45 382.5 240.95 375.65 236.45 378.55 222.25 368.0 229.05 369.05 225.15 367.55 222.3 368.15 220.5 368.25 218.35 L368.15 218.15 366.65 216.15 368.5 217.95 Q375.35 218.85 379.25 212.45 L374.9 211.8 Q382.3 212.3 380.0 205.45 M379.25 223.65 L379.9 223.5 381.05 222.95 379.9 223.5 379.25 223.65 M381.45 238.25 L382.0 238.4 385.15 238.65 382.0 238.4 381.45 238.25 M378.95 246.45 L379.9 246.8 381.2 247.0 379.9 246.8 378.95 246.45" fill="#a60000" fill-rule="evenodd" stroke="none"/>
    <path d="M334.15 200.0 Q334.75 197.65 336.6 195.85 337.75 194.7 339.15 194.05 341.0 193.15 343.25 193.15 346.9 193.15 349.55 195.5 L351.1 193.75 352.0 193.05 Q353.15 192.2 354.4 191.7 356.25 190.95 358.4 190.9 L359.0 190.85 Q363.45 190.85 366.65 193.6 L366.85 193.75 Q368.0 194.75 368.75 195.9 L368.85 196.05 Q370.15 198.15 370.15 200.75 L370.15 201.0 369.85 203.15 M368.85 195.9 L369.1 195.9 Q372.4 195.9 374.75 198.45 L375.85 199.9 375.95 200.1 Q376.95 201.85 377.1 204.05 378.65 204.4 380.0 205.45 L381.25 206.65 381.4 206.8 Q383.5 209.45 383.6 213.1 L384.0 217.2 Q384.15 219.25 383.25 220.8 L381.85 222.4 381.75 222.5 381.25 222.8 381.05 222.95 381.25 223.05 381.55 223.15 383.8 224.35 385.65 225.85 386.15 226.3 387.05 227.3 388.05 228.65 388.25 229.05 Q390.65 235.4 388.7 236.95 L387.05 238.0 385.15 238.65 386.25 240.0 386.25 240.05 387.1 241.8 386.95 242.7 Q386.3 245.0 384.25 246.2 382.75 247.05 381.2 247.0 381.8 249.3 381.15 251.8 380.7 253.4 379.8 254.65 378.65 256.35 376.7 257.45 374.2 258.9 371.55 258.75 L371.0 259.05 Q365.2 261.9 354.55 260.2 L352.85 259.9 M345.0 265.1 L342.55 266.4 Q340.5 267.15 338.0 267.15 L337.45 267.15 Q334.7 267.05 332.6 266.05 L331.0 265.1 Q328.55 263.35 328.2 261.0 325.6 262.4 322.25 262.4 L321.75 262.4 Q317.85 262.25 315.05 260.2 312.5 258.35 312.15 255.85 309.45 255.55 307.45 253.85 305.1 251.85 305.1 249.0 305.1 248.3 305.25 247.65 L305.45 247.0 Q305.95 245.4 307.4 244.15 L307.45 244.1 309.75 242.75 310.95 241.95 313.15 240.6 Q309.9 242.2 304.9 240.1 304.0 239.1 303.75 237.9 L303.6 236.75 Q303.6 234.2 305.95 232.4 306.7 231.85 307.5 231.45 L308.1 231.25 308.3 231.15 308.3 231.2 308.75 231.05 309.0 231.05 310.5 230.7 310.95 230.6 312.7 230.25 Q307.3 228.7 305.7 224.65 L305.3 223.35 Q305.5 222.3 306.0 221.4 306.65 220.2 307.8 219.2 309.45 217.75 311.6 217.2 L314.2 216.85 314.35 216.85 315.05 216.9 315.35 216.9 315.25 216.75 315.1 216.5 Q314.5 215.6 314.2 214.6 L313.95 213.55 313.85 212.15 Q313.85 210.85 314.2 209.65 L314.3 209.45 314.35 209.3 M314.3 209.45 Q317.75 203.9 320.8 203.9 323.85 203.9 325.35 204.55 325.4 203.8 325.6 203.1 326.0 201.8 327.0 200.8 328.7 199.15 331.1 199.15 332.8 199.15 334.15 200.0 L335.15 200.8 335.95 201.75 336.6 203.2 M348.4 197.7 Q348.8 196.55 349.55 195.5 M374.45 204.0 L375.6 203.9 377.1 204.05 M374.45 204.0 L373.4 204.25 M381.05 222.95 L379.9 223.5 379.25 223.65 M385.15 238.65 L382.0 238.4 381.45 238.25 M378.95 246.45 Q378.1 246.05 377.5 245.45 M347.75 261.5 Q347.2 263.55 345.0 265.1 M381.2 247.0 L379.9 246.8 378.95 246.45 M325.35 204.55 Q326.75 205.15 327.9 206.3 L328.25 206.7 M328.2 261.0 L329.4 260.2 330.3 259.45 M315.35 216.9 L316.8 217.15 317.5 217.3 M316.05 255.5 L313.25 255.9 312.15 255.85" fill="none" stroke="#423213" stroke-linecap="round" stroke-linejoin="round" stroke-opacity="0.5019608" stroke-width="0.5"/>
  </g>
</svg>
