<?xml version="1.0" encoding="UTF-8" standalone="no"?>
<svg xmlns:xlink="http://www.w3.org/1999/xlink" height="36.0px" width="28.75px" xmlns="http://www.w3.org/2000/svg">
  <g transform="matrix(1.0, 0.0, 0.0, 1.0, -261.1, -182.0)">
    <path d="M266.65 212.85 L267.0 213.1 Q267.2 212.8 266.9 212.2 L266.05 211.25 Q265.4 210.75 264.8 210.65 L264.05 210.85 264.4 211.1 Q264.55 210.85 264.95 210.95 L265.9 211.4 266.55 212.2 Q266.8 212.6 266.65 212.85" fill="#bd693a" fill-rule="evenodd" stroke="none"/>
    <path d="M266.65 212.85 Q266.8 212.6 266.55 212.2 L265.9 211.4 265.2 212.55 266.0 213.05 266.05 213.0 266.6 212.9 266.65 212.85" fill="#331d0f" fill-rule="evenodd" stroke="none"/>
    <path d="M265.9 211.4 L264.95 210.95 Q264.55 210.85 264.4 211.1 L264.35 211.15 Q264.2 211.35 264.4 211.75 L264.5 211.9 265.2 212.55 265.9 211.4" fill="#62381e" fill-rule="evenodd" stroke="none"/>
    <path d="M266.65 212.85 Q266.8 212.6 266.55 212.2 L265.9 211.4 264.95 210.95 Q264.55 210.85 264.4 211.1 M264.05 210.85 L264.8 210.65 Q265.4 210.75 266.05 211.25 L266.9 212.2 Q267.2 212.8 267.0 213.1" fill="none" stroke="#000000" stroke-linecap="square" stroke-linejoin="miter-clip" stroke-miterlimit="3.0" stroke-opacity="0.2509804" stroke-width="0.05"/>
    <path d="M267.0 213.1 L266.65 212.85 M264.4 211.1 L264.05 210.85" fill="none" stroke="#854c29" stroke-linecap="square" stroke-linejoin="miter-clip" stroke-miterlimit="3.0" stroke-opacity="0.2509804" stroke-width="0.05"/>
    <path d="M276.4 193.25 L276.45 193.2 277.1 193.1 278.0 193.5 278.65 194.2 278.7 194.9 278.65 195.0 278.6 195.0 278.1 195.05 277.85 195.05 277.45 194.85 277.7 193.9 277.0 194.35 276.65 194.05 276.6 193.9 276.4 193.25" fill="#b97b3e" fill-rule="evenodd" stroke="none"/>
    <path d="M272.4 199.7 L274.45 196.55 276.4 193.25 276.6 193.9 276.65 194.05 277.0 194.35 277.7 193.9 277.45 194.85 277.85 195.05 278.1 195.05 278.6 195.0 277.0 197.1 276.6 197.6 274.85 200.0 274.35 199.95 273.15 199.8 272.4 199.7 M275.75 197.4 L276.15 196.95 275.95 196.85 274.55 199.0 275.75 197.4" fill="#4d3519" fill-rule="evenodd" stroke="none"/>
    <path d="M263.7 214.3 L263.6 214.15 263.55 214.25 263.25 213.95 265.25 211.7 263.7 214.3 M263.15 213.8 L263.15 213.7 Q262.9 213.25 263.0 213.05 L263.9 211.9 272.4 199.7 273.15 199.8 264.45 212.3 263.15 213.8 M275.75 197.4 L274.55 199.0 275.95 196.85 276.15 196.95 275.75 197.4" fill="#5f4521" fill-rule="evenodd" stroke="none"/>
    <path d="M263.25 213.95 L263.15 213.8 264.45 212.3 273.15 199.8 274.35 199.95 265.35 212.95 264.35 214.85 264.3 214.8 264.2 214.75 264.25 214.7 263.7 214.3 265.25 211.7 263.25 213.95 M264.3 214.8 L264.25 214.7 264.3 214.8" fill="#8b6630" fill-rule="evenodd" stroke="none"/>
    <path d="M274.85 200.0 L270.4 206.75 266.0 213.45 265.3 214.7 264.65 214.8 264.35 214.85 265.35 212.95 274.35 199.95 274.85 200.0" fill="#e6a550" fill-rule="evenodd" stroke="none"/>
    <path d="M263.7 214.3 L263.6 214.15 263.55 214.25 263.25 213.95 263.15 213.8 263.15 213.7 Q262.9 213.25 263.0 213.05 L263.9 211.9 272.4 199.7 274.45 196.55 276.4 193.25 276.45 193.2 277.1 193.1 278.0 193.5 278.65 194.2 278.7 194.9 278.65 195.0 278.6 195.0 277.0 197.1 276.6 197.6 274.85 200.0 270.4 206.75 266.0 213.45 265.3 214.7 264.65 214.8 264.35 214.85 264.3 214.8 264.2 214.75 264.25 214.7 263.7 214.3 M264.25 214.7 L264.3 214.8 M278.6 195.0 L278.1 195.05 277.85 195.05 277.45 194.85 277.7 193.9 277.0 194.35 276.65 194.05 276.6 193.9 276.4 193.25" fill="none" stroke="#000000" stroke-linecap="round" stroke-linejoin="round" stroke-opacity="0.25882354" stroke-width="0.05"/>
    <path d="M265.55 213.65 L265.4 213.7 265.1 214.15 265.1 214.65 265.4 214.9 265.75 214.8 Q265.55 214.85 265.4 214.55 265.75 214.35 265.6 214.0 L265.55 213.65" fill="#a65710" fill-rule="evenodd" stroke="none"/>
    <path d="M265.75 214.8 L265.85 214.8 266.2 214.3 266.15 213.85 265.85 213.6 265.55 213.65 265.6 214.0 Q265.75 214.35 265.4 214.55 265.55 214.85 265.75 214.8 M266.05 213.8 L266.1 213.85 266.15 213.95 266.0 214.1 265.95 214.1 265.85 214.1 265.85 213.95 265.9 213.8 266.05 213.8" fill="#d87616" fill-rule="evenodd" stroke="none"/>
    <path d="M266.05 213.8 L265.9 213.8 265.85 213.95 265.85 214.1 265.95 214.1 266.0 214.1 266.15 213.95 266.1 213.85 266.05 213.8" fill="#fea870" fill-rule="evenodd" stroke="none"/>
    <path d="M265.55 213.65 L265.4 213.7 265.1 214.15 265.1 214.65 265.4 214.9 265.75 214.8 265.85 214.8 266.2 214.3 266.15 213.85 265.85 213.6 265.55 213.65 Z" fill="none" stroke="#000000" stroke-linecap="square" stroke-linejoin="miter-clip" stroke-miterlimit="3.0" stroke-opacity="0.2509804" stroke-width="0.05"/>
    <path d="M264.35 215.55 L264.2 215.6 263.9 216.05 263.9 216.55 264.2 216.8 264.55 216.7 264.2 216.45 Q264.55 216.25 264.4 215.9 L264.35 215.55" fill="#a65710" fill-rule="evenodd" stroke="none"/>
    <path d="M264.55 216.7 L264.65 216.7 265.0 216.2 264.95 215.75 264.65 215.5 264.35 215.55 264.4 215.9 Q264.55 216.25 264.2 216.45 L264.55 216.7 M264.85 215.7 L264.9 215.75 264.95 215.85 264.8 216.0 264.75 216.0 264.65 216.0 264.65 215.85 264.7 215.7 264.85 215.7" fill="#d87616" fill-rule="evenodd" stroke="none"/>
    <path d="M264.85 215.7 L264.7 215.7 264.65 215.85 264.65 216.0 264.75 216.0 264.8 216.0 264.95 215.85 264.9 215.75 264.85 215.7" fill="#fea870" fill-rule="evenodd" stroke="none"/>
    <path d="M264.35 215.55 L264.2 215.6 263.9 216.05 263.9 216.55 264.2 216.8 264.55 216.7 264.65 216.7 265.0 216.2 264.95 215.75 264.65 215.5 264.35 215.55 Z" fill="none" stroke="#000000" stroke-linecap="square" stroke-linejoin="miter-clip" stroke-miterlimit="3.0" stroke-opacity="0.2509804" stroke-width="0.05"/>
    <path d="M263.75 216.5 L263.55 216.05 Q263.2 215.55 262.65 215.3 L261.65 215.35 Q261.15 215.5 261.15 216.05 261.05 216.5 261.3 216.9 261.15 216.3 261.8 216.05 262.2 216.9 262.95 216.55 L263.75 216.5" fill="#a65710" fill-rule="evenodd" stroke="none"/>
    <path d="M261.3 216.9 L261.35 217.15 Q261.8 217.6 262.4 217.9 263.0 218.15 263.35 217.9 L264.0 217.25 263.75 216.5 262.95 216.55 Q262.2 216.9 261.8 216.05 261.15 216.3 261.3 216.9 M263.45 217.65 L263.35 217.8 263.1 217.8 262.75 217.55 262.75 217.3 262.8 217.1 263.15 217.15 263.4 217.35 263.45 217.65" fill="#d87616" fill-rule="evenodd" stroke="none"/>
    <path d="M263.45 217.65 L263.4 217.35 263.15 217.15 262.8 217.1 262.75 217.3 262.75 217.55 263.1 217.8 263.35 217.8 263.45 217.65" fill="#fea870" fill-rule="evenodd" stroke="none"/>
    <path d="M263.75 216.5 L263.55 216.05 Q263.2 215.55 262.65 215.3 L261.65 215.35 Q261.15 215.5 261.15 216.05 261.05 216.5 261.3 216.9 L261.35 217.15 Q261.8 217.6 262.4 217.9 263.0 218.15 263.35 217.9 L264.0 217.25 263.75 216.5 Z" fill="none" stroke="#000000" stroke-linecap="square" stroke-linejoin="miter-clip" stroke-miterlimit="3.0" stroke-opacity="0.2509804" stroke-width="0.05"/>
    <path d="M267.0 213.15 L266.7 212.9 266.65 212.95 266.05 213.0 265.95 213.05 265.15 212.6 264.95 212.45 264.5 211.9 264.4 211.75 264.35 211.2 264.4 211.1 264.05 210.85 264.0 210.95 264.0 211.0 Q263.9 211.25 264.1 211.75 L264.2 211.9 264.35 212.15 264.4 212.2 264.5 212.3 264.75 212.4 265.1 212.8 265.25 212.9 266.15 213.35 266.15 213.3 266.35 213.15 266.6 213.3 266.9 213.2 266.95 213.2 267.0 213.15" fill="#bd693a" fill-rule="evenodd" stroke="none"/>
    <path d="M265.25 212.9 L265.1 212.8 264.75 212.4 264.5 212.3 264.4 212.2 264.35 212.15 264.4 212.2 264.65 212.75 265.25 212.9 M266.6 213.3 L266.35 213.15 266.15 213.3 266.35 213.5 266.6 213.3" fill="#e68447" fill-rule="evenodd" stroke="none"/>
    <path d="M261.55 215.85 L262.3 216.7 Q262.95 217.2 263.5 217.35 L263.55 217.3 Q264.3 216.7 264.3 215.75 264.75 214.35 266.05 213.4 L266.15 213.35 265.25 212.9 264.65 212.75 264.4 212.2 264.35 212.15 264.4 212.2 264.35 212.15 264.2 211.9 Q263.8 213.8 262.75 214.55 261.8 215.0 261.55 215.85" fill="#62381e" fill-rule="evenodd" stroke="none"/>
    <path d="M263.55 217.3 L264.35 217.15 Q265.15 215.05 266.9 213.2 L266.6 213.3 266.35 213.5 266.15 213.3 266.15 213.35 266.05 213.4 Q264.75 214.35 264.3 215.75 264.3 216.7 263.55 217.3" fill="#854c29" fill-rule="evenodd" stroke="none"/>
    <path d="M264.0 211.0 Q262.8 213.6 261.4 214.9 L261.3 215.0 Q261.25 215.3 261.5 215.75 L261.55 215.85 Q261.8 215.0 262.75 214.55 263.8 213.8 264.2 211.9 L264.1 211.75 Q263.9 211.25 264.0 211.0" fill="#331d0f" fill-rule="evenodd" stroke="none"/>
    <path d="M266.7 212.9 L266.65 212.95 266.05 213.0 265.95 213.05 265.15 212.6 264.95 212.45 264.5 211.9 264.4 211.75 264.35 211.2 264.4 211.1 M264.05 210.85 L264.0 210.95 264.0 211.0 Q262.8 213.6 261.4 214.9 L261.3 215.0 Q261.25 215.3 261.5 215.75 L261.55 215.85 262.3 216.7 Q262.95 217.2 263.5 217.35 L263.55 217.3 264.35 217.15 Q265.15 215.05 266.9 213.2 L266.95 213.2 267.0 213.15" fill="none" stroke="#000000" stroke-linecap="square" stroke-linejoin="miter-clip" stroke-miterlimit="3.0" stroke-opacity="0.2509804" stroke-width="0.05"/>
    <path d="M280.0 200.1 L279.55 200.1 276.85 200.0 276.25 199.9 275.65 199.65 275.35 199.45 275.5 199.35 275.4 199.4 274.75 198.35 274.65 198.3 273.85 198.1 271.9 195.45 279.45 195.25 281.2 193.1 285.0 197.8 284.45 199.4 284.25 199.45 282.3 199.9 281.0 200.0 281.05 200.0 281.0 200.0 281.0 199.9 280.9 200.05 280.0 200.1 280.9 200.05 281.05 200.0 283.35 199.95 283.4 199.9 283.35 199.95 283.4 199.9 285.8 199.65 286.45 197.9 281.35 191.6 278.5 192.85 272.8 193.0 270.15 192.7 269.55 191.9 268.1 191.6 269.8 194.45 273.05 200.3 273.4 200.85 276.35 200.6 276.4 200.55 276.35 200.6 276.4 200.55 280.0 200.1 M280.05 202.45 L279.95 202.55 280.05 202.55 277.75 202.75 275.3 202.95 275.25 202.95 274.55 202.95 274.7 203.3 284.05 202.2 282.3 202.3 282.25 202.25 280.05 202.45 M267.0 194.55 L267.0 195.1 271.25 202.65 271.7 203.05 271.55 202.75 270.4 200.6 269.3 198.85 269.3 198.8 269.3 198.85 269.35 198.8 269.3 198.8 269.35 198.8 269.4 198.7 269.3 198.8 268.3 196.95 267.15 194.85 267.0 194.55 M285.25 200.85 L285.7 200.45 285.55 200.5 285.75 199.7 285.8 199.65 285.25 200.85" fill="#cc6600" fill-rule="evenodd" stroke="none"/>
    <path d="M281.0 200.0 L282.3 199.9 284.25 199.45 284.45 199.4 285.0 197.8 281.2 193.1 279.45 195.25 271.9 195.45 273.85 198.1 274.65 198.3 274.75 198.35 275.4 199.4 275.5 199.35 275.35 199.45 275.65 199.65 276.25 199.9 276.85 200.0 279.55 200.1 280.0 200.1 280.9 200.05 281.0 199.9 281.0 200.0" fill="#f7e9d5" fill-rule="evenodd" stroke="none"/>
    <path d="M280.9 200.05 L280.05 202.45 282.25 202.25 281.05 200.0 280.9 200.05 M279.95 202.55 L278.8 200.35 277.75 202.75 276.4 200.55 276.35 200.6 275.3 202.95 277.75 202.75 280.05 202.55 279.95 202.55 M275.25 202.95 L274.1 200.85 273.7 201.6 274.2 202.35 274.55 202.95 275.25 202.95 M267.4 192.85 L267.0 193.75 267.0 194.55 267.15 194.85 268.3 196.95 269.3 198.8 269.4 198.7 270.95 196.5 268.3 196.95 269.8 194.45 267.15 194.85 268.7 192.6 267.4 192.85 M271.7 203.05 L272.5 203.6 273.3 203.55 274.2 202.35 271.55 202.75 271.7 203.05 M284.05 202.2 L284.45 201.7 283.4 199.9 283.35 199.95 282.3 202.3 284.05 202.2 M269.3 198.85 L270.4 200.6 271.55 202.75 273.05 200.3 270.4 200.6 271.9 198.4 269.4 198.7 269.35 198.8 269.3 198.85" fill="#ffcc33" fill-rule="evenodd" stroke="none"/>
    <path d="M280.0 200.1 L276.4 200.55 277.75 202.75 278.8 200.35 279.95 202.55 280.05 202.45 280.9 200.05 280.0 200.1 M276.35 200.6 L273.4 200.85 273.05 200.3 269.8 194.45 268.1 191.6 268.05 191.55 267.4 192.85 268.7 192.6 267.15 194.85 269.8 194.45 268.3 196.95 270.95 196.5 269.4 198.7 271.9 198.4 270.4 200.6 273.05 200.3 271.55 202.75 274.2 202.35 273.3 203.55 274.7 203.3 274.55 202.95 274.2 202.35 273.7 201.6 274.1 200.85 275.25 202.95 275.3 202.95 276.35 200.6 M285.8 199.65 L283.4 199.9 284.45 201.7 285.25 200.85 285.8 199.65 285.75 199.7 285.8 199.65 M283.35 199.95 L281.05 200.0 282.25 202.25 282.3 202.3 283.35 199.95 M273.4 200.85 L273.7 201.6 273.4 200.85" fill="#77aa77" fill-rule="evenodd" stroke="none"/>
    <path d="M285.75 199.7 L285.8 199.65 285.25 200.85" fill="none" stroke="#ffffff" stroke-linecap="round" stroke-linejoin="round" stroke-width="0.05"/>
    <path d="M280.0 200.1 L276.4 200.55 276.35 200.6 273.4 200.85 273.05 200.3 269.8 194.45 268.1 191.6 M285.8 199.65 L283.4 199.9 283.35 199.95 281.05 200.0 281.0 200.0 281.0 199.9 280.9 200.05 280.05 202.45 282.25 202.25 281.05 200.0 280.9 200.05 280.0 200.1 M279.95 202.55 L278.8 200.35 277.75 202.75 276.4 200.55 276.35 200.6 275.3 202.95 275.25 202.95 274.1 200.85 273.7 201.6 273.4 200.85 M267.0 194.55 L267.15 194.85 268.3 196.95 269.3 198.8 269.3 198.85 270.4 200.6 271.55 202.75 271.7 203.05 M267.4 192.85 L268.7 192.6 267.15 194.85 269.8 194.45 268.3 196.95 270.95 196.5 269.4 198.7 269.3 198.8 269.35 198.8 269.4 198.7 271.9 198.4 270.4 200.6 273.05 200.3 271.55 202.75 274.2 202.35 273.3 203.55 M283.4 199.9 L283.35 199.95 282.3 202.3 282.25 202.25 M284.45 201.7 L283.4 199.9 M282.3 202.3 L284.05 202.2 M274.55 202.95 L275.25 202.95 M274.7 203.3 L274.55 202.95 274.2 202.35 273.7 201.6 M275.3 202.95 L277.75 202.75 280.05 202.55 279.95 202.55" fill="none" stroke="#000000" stroke-linecap="round" stroke-linejoin="round" stroke-opacity="0.36078432" stroke-width="0.05"/>
    <path d="M273.8 198.15 L274.65 198.35 275.35 199.45 274.05 199.7 273.3 199.35 271.85 203.25 272.45 203.65 284.0 202.25 285.65 200.5 285.55 200.5 Q281.0 201.75 277.25 201.2 L276.5 200.9 275.25 199.55 275.3 199.5 275.6 199.7 276.2 199.95 276.85 200.1 279.55 200.15 282.25 199.95 284.2 199.5 284.4 199.5 285.1 197.9 281.15 193.2 281.05 193.0 278.7 193.9 277.65 194.1 275.2 194.25 272.35 194.1 270.8 193.95 273.8 198.15" fill="#000000" fill-opacity="0.3019608" fill-rule="evenodd" stroke="none"/>
    <path d="M270.8 193.85 L270.1 192.7 269.55 191.85 268.0 191.6 266.9 193.8 267.0 195.05 271.15 202.7 272.45 203.65 284.0 202.2 285.4 200.65 Q285.45 200.5 285.65 200.45 L285.5 200.45 285.4 200.65 M286.2 197.8 L286.45 197.95 285.5 200.45 Q281.0 201.7 277.2 201.1 L276.5 200.9 275.25 199.5 275.3 199.45 275.55 199.7 276.15 199.9 276.8 200.05 279.5 200.15 282.2 199.9 284.2 199.5 284.4 199.4 285.0 197.85 281.15 193.1 281.0 193.0 278.7 193.9 M281.15 193.1 L280.15 194.3 279.45 195.3 278.65 195.35 276.0 195.4 273.25 195.4 271.85 195.45 270.8 193.85 M275.3 199.45 L275.4 199.35 275.35 199.4 274.6 198.3 273.75 198.15 271.85 195.45 M268.0 191.6 L272.8 199.05 274.05 199.65 275.35 199.4 275.3 199.45 M282.2 199.9 L278.65 195.35 M280.15 194.3 L284.2 199.5 M276.0 195.4 L279.5 200.15 M276.8 200.05 L273.25 195.4" fill="none" stroke="#000000" stroke-linecap="round" stroke-linejoin="round" stroke-opacity="0.3019608" stroke-width="0.05"/>
    <path d="M278.7 193.9 L277.65 194.0 275.15 194.2 272.3 194.05 270.8 193.85 M270.1 192.7 Q273.85 193.25 278.45 192.9 L281.25 191.6 286.2 197.8" fill="none" stroke="#000000" stroke-linecap="round" stroke-linejoin="round" stroke-opacity="0.3019608" stroke-width="0.05"/>
    <path d="M280.1 183.4 L279.15 182.0 276.75 182.05 276.85 182.6 276.8 182.7 276.75 182.6 276.5 182.5 Q274.9 182.0 273.1 182.45 L273.0 182.6 274.0 184.15 274.1 184.0 277.65 184.1 277.85 184.2 277.75 183.45 277.8 183.5 280.1 183.4" fill="#77aa77" fill-rule="evenodd" stroke="none"/>
    <path d="M280.1 183.4 L277.8 183.5 277.75 183.45 277.85 184.2 277.65 184.1 274.1 184.0 274.0 184.15 272.7 186.6 Q276.8 185.4 278.65 186.1 L280.1 183.4" fill="#132b11" fill-rule="evenodd" stroke="none"/>
    <path d="M274.0 184.15 L273.0 182.6 271.7 185.2 272.7 186.6 274.0 184.15" fill="#416944" fill-rule="evenodd" stroke="none"/>
    <path d="M280.1 183.4 L277.8 183.5 276.85 182.2 276.75 182.05 279.15 182.0 280.1 183.4 278.65 186.1 Q276.8 185.4 272.7 186.6 L274.0 184.15 274.1 184.0 277.65 184.1 277.85 184.2 277.75 183.45 277.8 183.5 M276.85 182.2 L276.85 182.6 276.75 182.6 276.5 182.5 Q274.9 182.0 273.1 182.45 L273.0 182.6 271.7 185.2 272.7 186.6 M276.75 182.6 L276.8 182.7 277.65 184.1 M274.0 184.15 L273.0 182.6" fill="none" stroke="#000000" stroke-linecap="round" stroke-linejoin="round" stroke-opacity="0.3019608" stroke-width="0.05"/>
    <path d="M282.3 185.9 L285.3 185.2 286.25 186.7 285.9 187.8 285.8 187.8 283.55 187.95 282.3 185.9 M287.65 190.6 L288.7 190.3 289.75 192.0 289.05 193.25 288.85 195.8 288.4 196.65 287.55 198.35 285.85 199.55 Q281.15 200.9 277.65 200.15 L276.45 198.9 275.6 199.6 274.15 199.9 272.85 199.25 268.1 191.85 268.1 191.65 270.95 187.1 273.0 185.95 273.4 185.95 274.1 186.55 278.45 186.75 281.55 191.2 277.8 193.05 277.75 194.85 285.5 194.6 284.3 197.1 287.1 197.05 288.55 193.8 287.05 193.4 285.65 191.0 287.65 190.6 M278.25 187.35 L274.6 187.15 277.85 192.0 280.65 190.6 278.25 187.35" fill="#ffcc33" fill-rule="evenodd" stroke="none"/>
    <path d="M282.3 185.9 L283.55 187.95 285.8 187.8 285.9 187.8 287.65 190.6 285.65 191.0 287.05 193.4 288.55 193.8 287.1 197.05 284.3 197.1 285.5 194.6 277.75 194.85 277.8 193.05 281.55 191.2 278.45 186.75 274.1 186.55 273.4 185.95 282.3 185.9" fill="#ffefcc" fill-rule="evenodd" stroke="none"/>
    <path d="M278.25 187.35 L280.65 190.6 277.85 192.0 274.6 187.15 278.25 187.35" fill="#ff6200" fill-rule="evenodd" stroke="none"/>
    <path d="M288.4 196.65 L289.0 197.95 288.0 199.7 285.7 200.75 Q281.2 202.0 277.3 201.35 L276.55 201.1 275.4 199.8 275.6 199.6 276.45 198.9 277.65 200.15 Q281.15 200.9 285.85 199.55 L287.55 198.35 288.4 196.65" fill="#ff6600" fill-rule="evenodd" stroke="none"/>
    <path d="M287.9 191.8 L287.3 190.8 287.0 190.8 287.9 192.55 288.75 192.25 288.15 191.35 288.4 191.25 288.95 192.25 289.35 192.1 288.3 190.45 287.5 190.7 288.1 191.75 287.9 191.8" fill="#ff6600" fill-rule="evenodd" stroke="none"/>
    <path d="M284.65 186.5 L284.05 185.7 283.85 185.75 284.65 187.05 285.4 186.75 284.85 186.05 285.0 185.95 285.5 186.65 285.8 186.55 284.95 185.35 284.2 185.6 284.8 186.4 284.65 186.5" fill="#ff6600" fill-rule="evenodd" stroke="none"/>
    <path d="M278.55 193.65 L277.75 193.75 277.7 193.7 276.85 194.35 276.9 194.35 276.4 195.0 276.35 195.1 273.15 199.45 274.1 199.9 275.6 199.65 275.4 199.8 276.55 201.15 277.25 201.35 Q281.15 202.0 285.7 200.75 L285.95 200.65 288.0 199.7 289.0 197.95 288.85 197.7 287.85 199.0 285.65 200.35 281.5 200.85 Q278.5 201.05 277.8 200.45 L276.5 198.9 277.85 200.05 281.5 200.35 Q284.8 200.1 285.9 199.45 287.1 198.8 287.6 198.25 L288.85 195.8 289.0 193.25 289.7 192.1 Q288.4 192.65 287.05 192.8 L286.7 192.85 278.55 193.65 M286.05 187.05 L283.6 187.7 286.6 189.0 285.85 187.8 286.05 187.05" fill="#000000" fill-opacity="0.3019608" fill-rule="evenodd" stroke="none"/>
    <path d="M276.4 195.0 L276.9 194.35 276.85 194.35 277.7 193.7 277.75 193.75 278.55 193.65 272.85 186.0 270.9 187.0 276.4 195.0" fill="#ffffff" fill-opacity="0.4" fill-rule="evenodd" stroke="none"/>
    <path d="M273.45 185.85 L273.0 185.85 271.0 187.05 268.1 191.6 268.15 191.75 M287.55 198.3 L288.35 196.55 288.9 195.65 289.05 193.25 289.85 191.95 288.65 190.2 287.65 190.55 285.65 191.0 M273.45 185.85 L282.3 185.85 285.3 185.1 286.25 186.55 285.85 187.7 287.65 190.55 M285.8 187.75 L285.85 187.7" fill="none" stroke="#000000" stroke-linecap="round" stroke-linejoin="round" stroke-opacity="0.3019608" stroke-width="0.05"/>
    <path d="M268.15 191.75 L272.9 199.2 274.1 199.8 275.6 199.6 276.4 198.85 277.55 200.05 Q281.15 200.75 285.85 199.45 L287.55 198.3 M285.65 191.0 L287.1 193.3 288.6 193.7 287.1 196.95 284.3 197.05 285.55 194.55 277.75 194.75 277.9 193.05 281.5 191.05 278.45 186.65 274.1 186.4 273.45 185.85 M280.65 190.55 L277.9 191.9 274.65 187.1 278.25 187.2 280.65 190.55 M282.3 185.85 L283.55 187.9 285.8 187.75 M275.6 199.6 L275.5 199.8 276.6 201.05 277.3 201.3 Q281.2 201.9 285.7 200.6 L288.05 199.6 288.95 197.9 288.35 196.55" fill="none" stroke="#000000" stroke-linecap="round" stroke-linejoin="round" stroke-opacity="0.3019608" stroke-width="0.05"/>
    <path d="M279.25 199.65 Q280.65 199.1 281.85 197.6 L282.6 196.4 282.6 196.35 283.15 194.9 283.1 194.5 283.0 193.85 282.35 193.1 281.55 193.0 280.55 193.25 279.1 194.15 278.0 195.05 277.45 195.6 276.6 196.7 276.45 197.0 276.25 197.35 276.2 197.45 275.9 198.0 275.85 198.55 275.9 198.65 Q275.8 198.8 276.0 199.25 L276.8 199.85 277.75 199.95 278.85 199.8 279.25 199.65" fill="#181810" fill-rule="evenodd" stroke="none"/>
    <path d="M279.25 199.65 L278.85 199.8" fill="none" stroke="#876a00" stroke-linecap="round" stroke-linejoin="round" stroke-opacity="0.4" stroke-width="0.05"/>
    <path d="M280.3 194.9 L279.1 196.3 Q278.05 197.65 278.45 198.4 L278.5 198.45 Q279.4 199.2 281.7 198.4 281.7 198.3 281.85 198.3 L282.7 197.4 282.75 197.3 282.95 197.1 283.0 196.85 283.45 195.85 283.65 194.65 283.35 194.0 282.5 193.95 Q281.4 194.2 280.3 194.9 M282.2 196.25 L282.25 196.35 282.15 196.35 282.2 196.25" fill="#ffffff" fill-rule="evenodd" stroke="none"/>
    <path d="M280.3 194.9 L279.65 195.45 Q279.4 195.6 279.2 195.85 278.45 196.35 278.05 197.0 L278.0 197.05 277.55 197.95 Q277.0 199.3 277.85 199.7 L279.2 199.7 Q280.2 199.5 281.3 198.65 L281.7 198.4 Q279.4 199.2 278.5 198.45 L278.45 198.4 Q278.05 197.65 279.1 196.3 L280.3 194.9" fill="#e7e2d3" fill-rule="evenodd" stroke="none"/>
    <path d="M279.2 195.85 Q279.4 195.6 279.65 195.45 L280.3 194.9 Q281.4 194.2 282.5 193.95 L283.35 194.0 283.65 194.65" fill="none" stroke="#876700" stroke-linecap="round" stroke-linejoin="round" stroke-opacity="0.5411765" stroke-width="0.05"/>
    <path d="M277.85 199.7 Q277.0 199.3 277.55 197.95 L278.0 197.05 M278.05 197.0 Q278.45 196.35 279.2 195.85 M283.45 195.85 L283.65 194.65" fill="none" stroke="#876a00" stroke-linecap="round" stroke-linejoin="round" stroke-opacity="0.4" stroke-width="0.05"/>
    <path d="M281.1 198.85 L278.9 199.1 279.5 196.25 282.05 195.95 281.65 197.7 281.0 197.8 281.1 197.05 280.6 197.1 280.35 198.35 281.95 198.1 282.0 198.1 282.6 195.45 279.3 195.8 278.45 199.55 280.35 199.35 281.1 198.85" fill="#ff0000" fill-rule="evenodd" stroke="none"/>
    <path d="M280.35 199.35 L280.65 199.35 287.45 198.5 287.7 197.9 Q284.8 198.8 281.55 198.8 L281.1 198.85 280.35 199.35" fill="#aa0000" fill-rule="evenodd" stroke="none"/>
    <path d="M278.45 193.8 L277.45 197.45 Q281.95 197.55 284.75 195.9 286.15 193.25 278.45 193.8" fill="#26261c" fill-opacity="0.6627451" fill-rule="evenodd" stroke="none"/>
    <path d="M286.75 192.45 L285.8 190.9 283.35 191.0 283.45 191.7 283.4 191.75 283.4 191.65 283.1 191.55 Q281.5 191.0 279.65 191.6 L279.55 191.75 280.45 193.4 280.55 193.25 Q282.55 192.55 284.15 193.25 L284.35 193.3 284.3 192.55 284.35 192.6 286.75 192.45" fill="#77aa77" fill-rule="evenodd" stroke="none"/>
    <path d="M286.75 192.45 L284.35 192.6 284.3 192.55 284.35 193.3 284.15 193.25 Q282.55 192.55 280.55 193.25 L280.45 193.4 279.05 196.1 Q283.25 194.65 285.1 195.35 L286.75 192.45" fill="#132b11" fill-rule="evenodd" stroke="none"/>
    <path d="M280.45 193.4 L279.55 191.75 278.1 194.6 279.05 196.1 280.45 193.4" fill="#416944" fill-rule="evenodd" stroke="none"/>
    <path d="M286.75 192.45 L284.35 192.6 283.45 191.2 283.35 191.0 285.8 190.9 286.75 192.45 285.1 195.35 Q283.25 194.65 279.05 196.1 L280.45 193.4 280.55 193.25 Q282.55 192.55 284.15 193.25 L284.35 193.3 284.3 192.55 284.35 192.6 M283.45 191.2 L283.45 191.7 283.4 191.65 283.1 191.55 Q281.5 191.0 279.65 191.6 L279.55 191.75 278.1 194.6 279.05 196.1 M283.4 191.65 L283.4 191.75 284.15 193.25 M280.45 193.4 L279.55 191.75" fill="none" stroke="#000000" stroke-linecap="round" stroke-linejoin="round" stroke-opacity="0.3019608" stroke-width="0.05"/>
  </g>
</svg>
