<?xml version="1.0" encoding="UTF-8" standalone="no"?>
<svg xmlns:xlink="http://www.w3.org/1999/xlink" height="268.35px" width="358.7px" xmlns="http://www.w3.org/2000/svg">
  <g transform="matrix(1.0, 0.0, 0.0, 1.0, -90.1, -61.0)">
    <path d="M347.45 167.8 Q367.8 177.95 393.15 172.7 432.2 164.45 436.65 131.25 442.9 97.2 422.05 73.9 416.35 67.55 410.25 72.75 L409.95 73.0 Q405.5 76.95 405.15 83.35 L405.15 83.6 Q404.9 89.45 408.15 94.4 412.3 97.9 418.0 96.65 413.75 100.6 409.85 100.45 408.0 100.35 406.25 99.4 L403.85 97.6 Q401.05 94.3 400.35 88.65 399.9 84.85 400.4 80.0 401.6 68.7 405.75 64.7 L406.95 63.7 Q410.6 60.8 414.55 62.15 418.25 63.45 423.55 69.3 437.15 84.35 443.7 104.7 450.2 125.1 447.2 141.4 442.8 174.4 403.0 182.8 388.2 185.85 367.35 179.5 354.25 175.5 342.75 169.3 L347.45 167.8 M318.25 175.65 Q317.5 181.2 315.75 185.85 302.95 199.25 294.05 162.35 L294.1 162.0 Q283.65 180.75 284.5 199.55 L271.9 208.45 Q271.1 211.9 269.85 214.9 L269.8 215.0 Q258.0 223.55 251.3 197.4 L251.3 196.65 251.25 196.65 251.0 197.0 250.95 197.1 Q241.75 212.8 246.3 226.55 L229.85 238.2 Q229.1 242.25 227.75 245.65 214.95 253.5 209.75 227.8 L209.75 226.95 209.5 227.4 209.45 227.5 Q201.35 241.8 202.95 257.25 L190.1 266.35 Q189.4 269.4 188.3 272.05 L188.0 272.65 Q177.3 280.0 172.05 259.7 L171.95 255.95 Q171.95 253.8 172.1 251.85 164.15 265.35 162.15 278.85 L97.15 325.55 Q92.25 319.95 90.15 309.55 L172.6 247.45 Q173.3 243.3 174.75 239.9 177.55 233.2 181.5 233.25 184.4 233.2 186.7 236.85 L210.5 218.95 Q211.25 214.6 212.8 211.0 215.85 203.75 220.2 203.75 223.3 203.75 225.75 207.5 L251.95 187.75 Q252.7 182.55 254.45 178.35 257.65 170.8 262.2 170.8 265.7 170.8 268.4 175.4 L294.8 155.5 Q295.7 150.1 297.6 145.7 301.25 137.05 306.4 137.05 310.2 137.05 313.15 141.7 L315.15 145.7 Q318.85 154.3 318.85 166.5 318.85 171.35 318.25 175.65" fill="#5b4a24" fill-rule="evenodd" stroke="none"/>
    <path d="M319.35 137.05 Q317.7 131.75 317.7 125.7 317.65 109.35 329.8 96.55 333.95 92.1 338.75 89.0 348.6 82.45 361.0 81.7 363.85 81.5 366.6 81.65 L372.25 82.3 Q383.65 84.5 391.8 93.25 L393.4 95.05 Q395.65 97.75 397.25 100.75 401.55 108.65 401.25 118.3 L400.75 123.25 Q400.15 127.05 399.0 130.6 395.0 142.4 384.4 151.05 371.3 161.55 355.1 161.55 347.65 161.55 341.35 159.3 L338.55 158.2 Q333.1 155.7 328.6 151.5 L328.1 151.0 Q321.85 144.9 319.35 137.05 M357.65 89.5 Q347.5 90.15 339.35 95.2 334.75 98.05 330.85 102.25 320.4 113.25 320.45 127.3 320.4 132.45 321.85 137.0 324.0 143.75 329.4 149.0 L329.8 149.45 Q333.7 153.05 338.35 155.2 L340.75 156.15 Q346.15 158.05 352.55 158.1 366.45 158.05 377.7 149.05 387.2 141.3 390.5 130.65 391.3 128.0 391.75 125.2 L392.2 120.95 Q392.5 111.8 387.95 104.45 L386.15 101.9 384.1 99.45 Q379.05 94.0 372.55 91.55 369.3 90.25 365.65 89.75 L357.65 89.5 M344.25 107.55 L344.35 107.05 Q344.3 106.2 343.75 105.65 343.35 105.25 342.8 105.15 L342.4 105.1 Q341.6 105.1 341.05 105.65 340.45 106.2 340.5 107.05 340.45 107.8 341.05 108.4 341.6 108.95 342.4 108.95 343.2 108.95 343.75 108.4 L344.25 107.55 M344.25 111.15 Q342.8 112.4 340.75 112.4 338.7 112.4 337.2 111.15 335.75 109.9 335.75 108.15 335.75 106.4 337.2 105.15 338.7 103.9 340.75 103.9 L342.25 104.1 Q343.35 104.4 344.25 105.15 345.75 106.4 345.75 108.15 L345.6 109.35 Q345.2 110.35 344.25 111.15" fill="#ff3300" fill-rule="evenodd" stroke="none"/>
    <path d="M357.65 89.5 L365.65 89.75 Q369.3 90.25 372.55 91.55 379.05 94.0 384.1 99.45 L386.15 101.9 387.95 104.45 Q392.5 111.8 392.2 120.95 L391.75 125.2 Q391.3 128.0 390.5 130.65 387.2 141.3 377.7 149.05 366.45 158.05 352.55 158.1 346.15 158.05 340.75 156.15 L338.35 155.2 Q333.7 153.05 329.8 149.45 L329.4 149.0 Q324.0 143.75 321.85 137.0 320.4 132.45 320.45 127.3 320.4 113.25 330.85 102.25 334.75 98.05 339.35 95.2 347.5 90.15 357.65 89.5 M375.5 96.4 Q373.45 96.4 371.75 97.55 370.8 98.15 370.0 99.1 L369.45 99.9 Q367.75 102.35 367.75 105.65 L367.95 107.75 Q368.4 110.25 370.0 112.2 372.3 114.9 375.5 114.9 378.5 114.9 380.7 112.5 L380.95 112.2 Q382.55 110.35 383.05 107.95 L383.25 105.65 383.15 104.05 Q382.75 101.2 380.95 99.1 378.7 96.4 375.5 96.4 M368.3 147.45 Q372.25 143.5 372.25 137.9 372.25 132.3 368.3 128.35 364.35 124.4 358.75 124.4 353.15 124.4 349.2 128.35 345.25 132.3 345.25 137.9 345.25 143.5 349.2 147.45 353.15 151.4 358.75 151.4 364.35 151.4 368.3 147.45 M344.25 111.15 Q345.2 110.35 345.6 109.35 L345.75 108.15 Q345.75 106.4 344.25 105.15 343.35 104.4 342.25 104.1 L340.75 103.9 Q338.7 103.9 337.2 105.15 335.75 106.4 335.75 108.15 335.75 109.9 337.2 111.15 338.7 112.4 340.75 112.4 342.8 112.4 344.25 111.15" fill="#ff572d" fill-rule="evenodd" stroke="none"/>
    <path d="M375.5 96.4 Q378.7 96.4 380.95 99.1 382.75 101.2 383.15 104.05 L383.25 105.65 383.05 107.95 Q382.55 110.35 380.95 112.2 L380.7 112.5 Q378.5 114.9 375.5 114.9 372.3 114.9 370.0 112.2 368.4 110.25 367.95 107.75 L367.75 105.65 Q367.75 102.35 369.45 99.9 L370.0 99.1 Q370.8 98.15 371.75 97.55 373.45 96.4 375.5 96.4 M381.55 104.85 L381.6 104.05 Q381.6 101.65 380.2 100.05 378.8 98.4 376.85 98.4 374.9 98.4 373.5 100.05 372.35 101.4 372.2 103.25 L372.15 104.05 Q372.15 106.4 373.5 108.05 374.9 109.65 376.85 109.7 378.8 109.65 380.2 108.05 381.35 106.7 381.55 104.85 M368.3 147.45 Q364.35 151.4 358.75 151.4 353.15 151.4 349.2 147.45 345.25 143.5 345.25 137.9 345.25 132.3 349.2 128.35 353.15 124.4 358.75 124.4 364.35 124.4 368.3 128.35 372.25 132.3 372.25 137.9 372.25 143.5 368.3 147.45 M364.7 136.65 Q366.25 135.1 366.25 132.9 366.25 130.7 364.7 129.15 363.15 127.6 360.95 127.6 358.75 127.6 357.2 129.15 355.65 130.7 355.65 132.9 355.65 135.1 357.2 136.65 358.75 138.2 360.95 138.2 363.15 138.2 364.7 136.65" fill="#fa8f30" fill-rule="evenodd" stroke="none"/>
    <path d="M381.55 104.85 Q381.35 106.7 380.2 108.05 378.8 109.65 376.85 109.7 374.9 109.65 373.5 108.05 372.15 106.4 372.15 104.05 L372.2 103.25 Q372.35 101.4 373.5 100.05 374.9 98.4 376.85 98.4 378.8 98.4 380.2 100.05 381.6 101.65 381.6 104.05 L381.55 104.85 M364.7 136.65 Q363.15 138.2 360.95 138.2 358.75 138.2 357.2 136.65 355.65 135.1 355.65 132.9 355.65 130.7 357.2 129.15 358.75 127.6 360.95 127.6 363.15 127.6 364.7 129.15 366.25 130.7 366.25 132.9 366.25 135.1 364.7 136.65" fill="#fdc897" fill-rule="evenodd" stroke="none"/>
    <path d="M344.25 107.55 L343.75 108.4 Q343.2 108.95 342.4 108.95 341.6 108.95 341.05 108.4 340.45 107.8 340.5 107.05 340.45 106.2 341.05 105.65 341.6 105.1 342.4 105.1 L342.8 105.15 Q343.35 105.25 343.75 105.65 344.3 106.2 344.35 107.05 L344.25 107.55" fill="#ff7d5e" fill-rule="evenodd" stroke="none"/>
    <path d="M347.45 167.8 L342.75 169.3 334.3 164.3 318.25 175.65 Q318.85 171.35 318.85 166.5 318.85 154.3 315.15 145.7 L313.15 141.7 319.35 137.05 Q321.85 144.9 328.1 151.0 L328.6 151.5 Q333.1 155.7 338.55 158.2 L341.35 159.3 337.7 161.85 Q342.4 165.3 347.45 167.8 M315.75 185.85 L315.15 187.35 Q311.55 196.0 306.4 196.0 301.95 196.0 298.6 189.55 L284.5 199.55 Q283.65 180.75 294.1 162.0 L294.05 162.35 Q302.95 199.25 315.75 185.85 M269.8 215.0 Q266.65 222.45 262.2 222.45 259.2 222.45 256.8 219.15 L246.3 226.55 Q241.75 212.8 250.95 197.1 L251.0 197.0 251.25 196.65 251.3 196.65 251.3 197.4 Q258.0 223.55 269.8 215.0 M227.75 245.65 L227.55 246.1 Q224.5 253.35 220.2 253.35 216.9 253.35 214.35 249.15 L202.95 257.25 Q201.35 241.8 209.45 227.5 L209.5 227.4 209.75 226.95 209.75 227.8 Q214.95 253.5 227.75 245.65 M188.0 272.65 Q185.3 278.7 181.5 278.7 178.9 278.7 176.75 275.8 L101.4 329.15 Q99.05 327.7 97.15 325.55 L162.15 278.85 Q164.15 265.35 172.1 251.85 171.95 253.8 171.95 255.95 L172.05 259.7 Q177.3 280.0 188.0 272.65" fill="#43371b" fill-rule="evenodd" stroke="none"/>
    <path d="M422.2 67.85 L423.6 69.6 424.95 70.85 426.25 72.3 427.6 73.95 428.85 75.55 429.9 77.05 430.95 78.75 Q431.4 79.75 432.3 80.6 M406.95 63.7 L408.6 62.55 Q409.3 62.05 410.35 61.7 L412.5 61.65 414.55 62.3 416.4 63.05 417.85 64.15 419.65 65.4 Q420.85 66.0 421.3 66.95 M414.25 70.65 L412.15 71.5 Q411.1 72.05 410.9 72.25 L410.25 72.75 M424.65 77.05 Q424.45 76.15 423.6 75.45 L421.95 74.1 420.55 72.75 Q420.0 72.1 419.15 71.6 L417.35 70.8 415.45 70.5 M405.15 83.6 L405.2 85.5 405.45 87.65 Q405.65 88.8 406.15 89.6 406.7 90.4 406.85 91.4 L407.5 93.35 M408.25 94.5 L409.7 95.7 Q410.45 96.25 411.45 96.2 L413.75 96.7 415.9 96.8 Q416.75 96.4 417.0 96.8 417.25 97.2 416.35 97.8 L414.95 99.0 M432.65 89.95 L431.65 87.95 430.65 86.35 Q430.0 85.45 429.85 84.55 429.7 83.7 429.2 82.8 L428.0 81.15 426.65 79.55 425.45 78.05 M433.0 81.7 Q433.2 82.9 434.05 83.4 434.95 83.9 435.4 84.9 L436.3 86.8 437.35 88.5 438.2 90.35 439.1 92.5 Q439.75 93.7 439.7 94.4 439.7 95.1 440.5 96.0 M437.1 104.2 Q436.6 103.25 436.5 102.3 L436.45 100.55 Q436.5 99.8 435.95 98.6 L435.15 96.4 434.5 94.6 433.75 92.9 433.15 91.05 M338.75 89.0 L336.95 90.1 335.5 91.25 334.05 92.65 Q333.4 93.4 332.4 93.85 331.45 94.35 330.8 95.25 L329.4 96.95 327.95 98.65 326.7 100.2 325.5 101.65 324.4 103.15 M397.25 100.75 L395.95 99.15 394.95 97.5 394.2 96.25 393.4 95.05 M406.25 99.4 L404.6 98.3 Q403.45 97.55 403.05 96.75 L402.2 95.2 Q401.8 94.4 401.65 93.1 L401.15 90.8 400.7 89.3 400.35 88.65 M397.5 134.3 L398.15 132.95 399.0 130.6 M384.7 150.85 Q385.45 149.85 386.45 149.25 L387.7 148.0 Q387.95 147.35 388.85 146.5 L390.4 145.3 Q391.0 144.9 391.6 143.9 L392.85 142.05 393.95 140.45 395.05 138.8 395.8 137.1 Q396.05 136.35 397.0 135.4 M340.55 159.0 Q340.7 158.85 341.35 159.3 342.25 159.95 343.25 160.05 L345.2 160.35 347.0 160.6 349.2 160.95 351.4 161.4 353.4 161.45 355.4 161.55 M341.35 159.3 L339.7 160.55 338.5 161.2 337.7 161.85 339.45 162.9 340.85 164.05 342.65 165.25 Q343.75 165.75 344.65 166.35 L346.45 167.35 Q347.4 167.8 348.25 168.05 349.15 168.3 350.05 169.05 M360.9 177.35 L359.45 176.8 357.25 175.95 355.5 175.2 353.55 174.45 351.5 173.85 350.05 173.05 348.25 171.9 346.2 171.0 344.55 170.25 M351.25 169.55 Q352.2 170.35 352.95 170.5 L354.85 170.85 357.15 171.45 359.25 172.15 361.1 172.45 Q362.0 172.5 362.95 173.0 363.95 173.55 364.95 173.5 M356.65 161.55 L358.75 161.5 360.8 161.3 362.75 161.05 364.55 160.75 366.45 160.3 368.45 159.65 370.4 159.0 M327.1 150.0 L328.6 151.65 330.3 153.0 332.05 154.25 333.75 155.55 335.65 156.8 337.45 157.9 339.3 158.5 M343.45 169.65 L341.75 168.55 339.95 167.7 338.2 166.7 336.6 165.55 335.4 164.8 334.3 164.3 333.0 165.6 331.5 166.6 329.7 167.95 328.05 169.1 326.4 169.85 Q325.35 170.25 324.6 171.1 L323.15 172.2 Q322.5 172.4 321.35 173.45 M337.7 161.85 L336.2 162.9 334.7 163.8 334.3 164.3 M375.65 181.75 L373.45 181.35 371.45 180.9 Q370.7 180.9 369.55 180.35 L367.6 179.6 365.95 179.3 Q365.15 179.2 363.85 178.55 L362.0 177.75 M395.05 172.25 L397.05 171.7 Q397.9 171.2 398.7 170.85 L400.6 170.35 402.6 169.95 404.45 169.4 406.4 168.6 408.2 167.85 409.85 167.15 411.5 166.35 413.6 165.5 M381.7 174.25 L383.75 174.0 385.85 173.95 387.75 173.65 389.7 173.25 391.8 172.9 393.85 172.55 M371.6 158.55 Q372.65 158.0 373.55 157.8 374.5 157.65 375.3 157.1 L377.05 156.05 378.75 155.05 380.4 153.9 382.0 152.7 383.5 151.65 M386.8 183.55 L385.1 183.65 382.95 183.2 380.9 182.65 378.8 182.15 376.85 182.05 M366.2 173.7 L368.35 173.85 370.15 173.75 372.25 174.15 374.3 174.25 376.5 174.25 378.35 174.35 380.4 174.35 M404.0 182.6 Q403.1 183.3 402.0 183.25 L399.9 183.3 397.95 183.5 396.0 183.45 394.0 183.5 Q393.0 183.7 392.15 183.5 391.35 183.3 390.2 183.5 L388.0 183.65 M318.55 133.85 Q318.55 134.85 318.85 135.45 L319.35 137.05 320.15 139.15 320.85 140.85 321.5 142.75 Q321.9 143.8 322.55 144.4 L323.55 145.9 324.75 147.55 326.3 149.1 M445.25 110.0 Q445.85 111.3 445.85 111.95 L446.0 113.9 446.25 116.0 446.85 117.95 447.55 119.95 447.75 121.7 Q447.7 122.7 447.8 123.55 L447.95 125.7 448.1 127.85 M448.15 129.15 L448.1 130.95 448.25 133.0 448.1 134.95 447.75 137.05 447.55 139.2 M447.35 140.5 L447.05 142.1 446.6 144.1 446.35 146.1 446.1 148.2 Q445.95 149.25 445.4 150.15 L444.35 152.05 443.45 153.85 442.85 155.7 442.15 157.6 M441.0 97.15 Q441.15 98.25 441.85 99.1 442.55 99.95 442.65 100.9 L443.25 103.05 443.95 105.25 444.3 107.0 Q444.45 107.85 444.95 108.8 M437.95 121.2 L437.95 119.0 438.15 116.95 Q438.4 116.1 438.2 115.0 L437.9 113.15 437.65 111.35 437.5 109.4 437.55 107.35 Q437.7 106.2 437.3 105.4 M413.9 99.55 Q413.0 100.05 411.75 100.15 L409.95 100.35 M434.8 140.3 Q434.8 139.7 435.1 138.5 L435.55 136.35 Q435.7 135.4 436.15 134.3 L436.7 132.2 436.9 130.0 437.0 128.2 Q437.0 127.55 437.5 126.3 438.0 125.1 437.85 124.35 L437.85 122.4 M427.8 153.7 L428.8 151.8 430.0 150.15 431.0 148.65 432.05 147.05 433.0 145.25 433.65 143.2 Q433.9 142.15 434.4 141.45 M441.55 158.7 L440.6 160.25 439.45 161.85 438.05 163.8 436.8 165.35 435.5 166.4 Q434.85 166.95 434.1 168.2 M414.7 164.9 Q415.2 164.05 416.4 163.75 417.65 163.5 418.3 162.75 419.0 162.0 419.65 161.55 420.35 161.15 421.05 160.4 L422.6 159.0 424.1 157.55 425.5 156.05 427.0 154.7 M433.2 169.05 L431.75 169.9 429.9 171.15 428.15 172.6 426.5 173.8 Q425.85 174.05 425.0 174.65 L423.25 175.65 421.4 176.55 419.65 177.3 Q418.85 177.55 417.95 178.3 M416.75 178.8 L414.95 179.6 413.1 180.25 Q412.1 180.45 411.3 180.9 410.55 181.4 409.25 181.3 L407.0 181.5 Q406.0 181.85 405.2 182.3 M251.5 202.0 L251.3 199.95 251.1 197.85 Q250.95 196.9 251.1 196.05 L251.35 194.05 251.25 191.7 Q251.1 190.5 251.5 189.75 251.9 189.0 251.95 187.75 251.25 188.6 250.15 188.9 249.05 189.25 248.5 190.0 L247.1 191.5 245.35 192.65 Q244.4 193.1 243.75 193.6 L242.3 194.9 240.75 196.15 M323.7 104.25 L322.75 106.0 321.9 107.85 321.2 109.65 320.55 111.4 319.7 113.5 319.1 115.4 318.5 117.15 M318.25 118.45 L318.1 120.35 318.0 122.3 317.8 124.6 318.0 126.75 318.05 128.7 Q317.9 129.55 318.05 130.7 L318.3 132.6 M298.55 143.65 Q298.15 144.75 297.45 145.4 296.75 146.1 296.55 147.1 L296.2 149.4 295.75 151.5 295.25 153.3 M315.95 147.65 Q315.9 146.75 315.1 145.6 L314.05 143.75 313.45 142.65 Q313.1 142.35 313.15 141.7 L311.9 140.2 310.75 139.0 309.1 137.6 Q307.95 136.9 306.95 137.0 L304.9 137.35 Q303.9 137.55 303.25 137.85 302.6 138.15 301.75 138.8 L300.3 140.3 Q299.7 141.15 299.2 142.45 M319.35 137.05 L317.85 138.45 316.15 139.5 Q315.25 140.0 314.75 140.45 L313.15 141.7 M282.6 164.7 L280.75 166.15 279.4 167.2 277.75 168.35 276.2 169.5 274.55 170.45 Q273.55 170.85 273.0 171.9 M272.85 191.35 L272.6 189.6 272.35 187.4 272.15 185.4 Q272.1 184.35 271.65 183.6 271.25 182.9 271.0 181.75 L270.2 179.7 269.35 177.85 269.0 176.65 268.4 175.4 267.25 173.6 265.9 172.2 Q265.1 171.45 264.25 171.35 L262.35 170.95 260.3 171.15 Q259.3 171.65 258.6 172.2 L257.0 173.6 Q256.1 174.4 255.6 175.4 255.1 176.4 255.05 177.1 M254.45 178.35 L253.45 180.4 252.75 182.25 Q252.4 183.25 252.6 184.15 L252.65 185.5 251.95 187.75 M272.0 172.7 L270.45 173.75 269.15 174.8 Q268.55 175.1 268.4 175.4 M268.85 216.95 Q268.95 215.9 269.7 214.95 270.45 214.0 270.35 213.15 270.3 212.35 271.0 211.3 L271.7 209.8 271.9 208.45 272.05 206.6 Q272.15 205.55 272.6 204.45 273.05 203.4 272.9 202.25 L272.85 200.3 273.1 198.5 273.15 196.65 Q273.05 195.75 273.1 194.65 273.2 193.6 272.95 192.55 M318.45 158.65 L318.05 156.7 317.7 154.7 317.35 152.75 316.8 151.05 316.35 148.85 M312.15 192.75 Q313.05 191.8 313.2 190.8 313.35 189.85 314.3 188.95 315.25 188.1 315.55 187.1 L315.85 185.25 Q315.85 184.35 316.3 183.45 L317.0 181.45 317.5 179.45 317.8 178.15 318.25 175.65 Q318.75 174.95 318.75 173.65 L318.6 171.5 Q318.45 170.65 318.75 169.75 319.05 168.9 318.8 167.75 318.6 166.6 318.9 165.55 L319.2 163.85 318.95 162.2 318.55 159.85 M295.0 154.6 L294.8 155.5 Q294.65 156.1 294.75 157.2 L294.65 159.5 294.2 161.7 Q294.0 162.7 293.95 163.65 L293.95 165.8 293.9 167.75 294.0 169.6 M294.8 155.5 Q294.0 155.7 293.4 156.4 L291.95 157.85 290.1 159.2 Q289.15 159.8 288.35 160.35 L286.8 161.7 285.15 162.85 Q284.35 163.25 283.6 163.9 M294.1 170.9 Q293.7 172.3 294.0 173.15 L294.45 175.0 294.7 176.95 295.1 178.95 295.5 180.75 Q295.55 181.55 296.1 183.05 M311.35 193.65 L309.65 195.0 Q308.75 195.5 307.85 195.65 L305.95 195.6 303.95 195.15 Q303.0 194.95 302.25 194.3 L300.85 192.85 Q300.2 192.05 299.8 191.05 299.45 190.05 298.6 189.55 L297.15 190.55 295.4 191.95 293.75 193.1 292.15 194.0 Q291.4 194.4 290.65 195.1 L288.95 196.45 287.25 197.75 285.7 198.75 M296.5 184.3 L297.3 186.1 297.75 187.75 Q297.75 188.25 298.6 189.55 M320.35 174.15 L319.45 175.2 Q319.25 175.65 318.25 175.65 M111.05 293.75 L112.55 292.6 114.25 291.25 115.7 290.35 117.1 289.15 118.85 287.55 120.65 286.5 Q121.55 286.15 122.25 285.35 M102.05 300.55 Q102.95 300.35 103.45 299.6 104.0 298.85 105.05 298.3 L106.95 296.95 108.5 295.75 110.05 294.55 M149.25 264.95 Q149.6 264.35 150.6 264.0 151.6 263.65 152.4 262.6 153.25 261.6 154.05 261.15 L155.65 260.15 157.3 258.95 159.1 257.75 Q160.15 257.2 160.45 256.55 M135.45 275.35 L137.0 274.1 Q137.8 273.5 138.8 272.95 L140.4 271.9 141.7 270.55 Q142.45 269.7 143.3 269.2 L145.05 267.95 Q145.95 267.15 146.7 266.75 L148.25 265.75 M123.25 284.55 L124.6 283.5 126.55 282.2 128.0 280.95 Q128.6 280.35 129.7 279.8 L131.35 278.8 132.55 277.6 Q133.25 276.8 134.45 276.15 M166.15 283.65 Q165.4 284.65 164.6 284.85 163.85 285.05 162.95 285.95 162.1 286.85 161.4 287.15 L160.0 287.95 158.15 289.05 Q157.1 289.75 156.65 290.4 156.25 291.05 154.95 291.55 M153.95 292.25 L152.4 293.2 150.75 294.5 149.1 295.85 147.45 296.75 Q146.75 297.05 145.95 297.85 M144.95 298.55 L143.2 299.6 141.8 300.8 140.15 302.0 138.6 303.1 137.0 304.25 135.3 305.6 133.75 306.75 Q132.95 307.3 132.15 307.55 M131.15 308.25 Q130.75 309.0 129.55 309.45 128.4 309.9 127.7 310.55 L126.1 311.65 Q125.15 312.1 124.3 312.7 L123.0 313.85 121.7 314.95 120.0 316.05 118.3 317.15 116.7 318.35 115.15 319.55 M114.15 320.25 Q113.45 320.9 112.5 321.15 111.55 321.45 110.65 322.45 L109.15 323.85 107.65 324.8 Q106.8 325.45 105.95 325.7 105.1 325.95 104.2 326.75 L102.9 328.15 M91.9 315.9 Q91.4 314.9 91.2 313.95 L90.7 311.85 Q90.45 310.65 90.75 309.9 L91.45 308.5 Q91.85 307.85 92.9 307.3 L94.7 306.25 96.45 305.05 97.9 303.6 Q98.3 302.75 99.2 302.2 100.1 301.65 101.05 301.35 M101.9 328.85 L100.25 328.1 98.55 326.85 97.2 325.7 96.05 324.4 94.7 322.3 93.75 320.45 93.05 318.9 92.3 317.05 M284.7 199.45 Q284.15 199.9 282.9 200.4 281.7 200.9 281.35 201.6 281.05 202.3 280.15 202.85 L278.1 204.05 Q277.0 204.65 276.35 205.25 L274.9 206.35 273.75 207.15 271.9 208.45 M256.2 218.3 L256.8 219.15 Q257.65 219.5 258.15 220.45 258.65 221.45 259.55 221.8 L261.7 222.25 263.6 222.1 265.25 221.35 267.05 219.9 268.25 218.1 M251.6 203.25 Q252.05 204.4 251.85 205.55 251.7 206.75 252.3 207.45 252.9 208.2 252.9 209.35 L253.2 211.45 254.1 213.45 255.05 215.4 255.6 217.25 M256.8 219.15 Q256.2 219.35 255.15 220.2 L253.35 221.55 251.95 222.6 Q251.35 223.2 250.2 223.85 249.1 224.5 248.5 225.15 L247.15 226.2 245.4 227.15 M239.75 196.95 L238.15 198.45 236.65 199.55 235.2 200.6 233.35 201.85 Q232.55 202.35 232.0 203.0 L230.55 204.2 228.55 205.35 M227.55 206.1 L226.35 206.9 225.75 207.5 Q226.25 207.95 225.85 207.7 L226.9 209.6 227.65 211.5 228.25 213.5 Q228.5 214.65 229.05 215.45 229.6 216.3 229.65 217.35 L229.85 219.35 Q229.95 220.35 230.35 221.25 230.75 222.2 230.4 223.15 M225.75 207.5 L224.55 206.05 Q223.8 205.35 222.8 204.75 L221.1 203.9 Q220.4 203.65 219.35 203.9 218.3 204.2 217.7 204.65 L216.0 205.7 M215.15 206.7 L214.25 208.3 213.3 210.05 Q212.7 211.0 212.5 211.9 L211.95 213.8 211.3 215.75 210.65 217.55 Q210.3 218.35 210.5 218.95 L210.4 221.15 Q210.35 222.25 209.95 222.95 209.55 223.7 209.7 224.9 L209.75 227.15 Q209.65 228.2 209.7 229.25 L209.8 231.1 209.9 233.25 M210.5 218.95 L209.1 220.35 207.3 221.3 Q206.2 221.6 205.6 222.4 L204.1 223.75 202.45 224.95 200.9 226.0 199.3 227.35 M210.0 234.5 Q210.55 235.35 210.25 236.4 209.95 237.5 210.35 238.7 L211.15 240.85 211.85 242.8 212.25 244.95 Q212.4 246.05 212.9 246.75 L213.95 248.45 Q214.15 248.45 214.35 249.15 L215.65 250.65 217.15 252.05 Q218.1 252.95 219.1 252.95 L221.1 253.05 Q222.05 253.1 222.9 252.55 223.8 252.05 224.35 251.15 224.95 250.25 225.55 249.85 M244.4 227.85 Q243.25 228.4 242.75 228.95 L241.1 230.2 239.5 231.4 238.15 232.55 236.35 233.9 234.65 235.15 233.15 235.9 M226.2 248.8 L227.2 246.95 Q227.45 246.15 227.85 245.3 L228.6 243.4 228.85 241.45 Q228.85 240.55 229.25 240.05 229.7 239.6 229.85 238.2 229.85 237.1 230.3 236.2 230.75 235.3 230.7 234.25 L230.6 232.4 230.6 230.4 230.8 228.35 Q231.0 227.45 230.6 226.5 230.25 225.6 230.5 224.35 M232.15 236.6 L230.8 237.45 229.85 238.2 M174.55 240.3 L173.95 242.25 173.5 244.25 Q173.35 245.2 172.9 245.75 172.45 246.35 172.6 247.45 L172.7 249.25 172.4 251.25 172.05 253.5 Q171.95 254.4 172.15 255.3 172.35 256.25 171.95 257.45 M190.9 251.2 L190.65 249.15 190.25 247.55 189.85 245.6 189.5 243.45 188.7 241.35 187.9 239.5 187.15 237.6 186.7 236.85 185.45 234.95 Q184.8 234.25 184.0 233.95 L182.35 233.3 180.5 233.4 Q179.5 233.9 178.65 234.45 L177.2 235.95 176.05 237.55 175.15 239.05 M198.3 228.15 L196.7 229.25 Q195.45 229.95 194.85 230.75 L193.6 232.05 192.15 233.15 190.3 234.45 Q189.3 235.2 188.55 235.55 187.85 235.95 187.1 236.55 L186.7 236.85 M202.05 257.85 L200.55 258.95 198.85 260.3 197.3 261.4 195.4 262.5 Q194.3 263.2 193.8 263.8 L192.55 264.75 Q191.85 265.15 190.8 265.85 L190.15 266.35 Q190.4 266.15 190.2 266.75 L189.55 268.6 188.9 270.45 188.2 272.35 187.2 274.25 M190.15 266.35 L190.1 266.35 190.25 264.35 Q190.25 263.35 190.5 262.3 L190.95 260.25 190.9 258.15 Q190.7 257.05 191.05 256.4 191.45 255.8 191.35 254.75 L191.0 252.45 M161.45 255.85 L163.05 254.7 Q163.4 254.15 164.5 253.55 165.65 253.0 166.35 252.3 167.05 251.65 168.0 251.1 L169.6 249.95 170.75 248.95 172.6 247.45 M172.05 258.7 L172.4 260.75 172.45 263.0 Q172.45 264.2 172.75 265.2 L173.2 266.75 173.7 268.55 174.25 270.75 M174.75 272.05 Q174.7 273.0 175.2 273.5 175.75 274.0 176.75 275.8 L178.15 277.55 Q178.85 278.2 179.9 278.45 L181.9 278.55 183.6 278.1 185.25 276.95 186.65 275.3 M176.75 275.8 L175.15 277.4 173.65 278.5 172.05 279.5 Q171.15 280.0 170.25 280.75 L168.7 281.95 167.15 282.95 M214.35 249.15 Q213.8 249.95 212.85 250.3 211.95 250.7 211.3 251.55 210.65 252.4 209.9 252.7 L208.35 253.7 206.7 254.9 204.9 255.8 Q203.95 256.2 203.05 257.15" fill="none" stroke="#000000" stroke-linecap="round" stroke-linejoin="round" stroke-width="1.0"/>
    <path d="M187.35 255.25 Q186.1 258.75 184.3 258.75 182.5 258.75 181.2 255.25 179.95 251.75 179.95 246.8 179.95 241.85 181.2 238.35 182.5 234.85 184.3 234.85 186.1 234.85 187.35 238.35 188.65 241.85 188.65 246.8 188.65 251.75 187.35 255.25" fill="#bea05a" fill-rule="evenodd" stroke="none"/>
    <path d="M226.45 226.4 Q225.2 229.9 223.4 229.9 221.6 229.9 220.3 226.4 219.05 222.9 219.05 217.95 219.05 213.0 220.3 209.5 221.6 206.0 223.4 206.0 225.2 206.0 226.45 209.5 227.75 213.0 227.75 217.95 227.75 222.9 226.45 226.4" fill="#bea05a" fill-rule="evenodd" stroke="none"/>
    <path d="M266.7 192.0 Q265.45 195.5 263.65 195.5 261.85 195.5 260.55 192.0 259.3 188.5 259.3 183.55 259.3 178.6 260.55 175.1 261.85 171.6 263.65 171.6 265.45 171.6 266.7 175.1 268.0 178.6 268.0 183.55 268.0 188.5 266.7 192.0" fill="#bea05a" fill-rule="evenodd" stroke="none"/>
    <path d="M311.45 158.45 Q310.2 161.95 308.4 161.95 306.6 161.95 305.3 158.45 304.05 154.95 304.05 150.0 304.05 145.05 305.3 141.55 306.6 138.05 308.4 138.05 310.2 138.05 311.45 141.55 312.75 145.05 312.75 150.0 312.75 154.95 311.45 158.45" fill="#bea05a" fill-rule="evenodd" stroke="none"/>
  </g>
</svg>
