<?xml version="1.0" encoding="UTF-8" standalone="no"?>
<svg xmlns:xlink="http://www.w3.org/1999/xlink" height="83.95px" width="88.25px" xmlns="http://www.w3.org/2000/svg">
  <g transform="matrix(1.0, 0.0, 0.0, 1.0, -230.85, -158.5)">
    <path d="M263.05 168.2 Q266.55 170.35 270.05 173.4 280.5 182.6 288.65 198.5 L290.9 203.2 294.5 211.7 Q293.0 206.2 293.75 201.55 294.2 198.45 295.6 195.7 299.8 187.45 311.65 188.25 305.4 189.25 302.4 191.5 300.0 193.35 298.55 197.15 297.05 201.1 297.0 203.55 297.0 211.9 306.35 224.05 304.65 219.55 306.85 216.05 307.2 224.15 312.55 226.3 318.45 227.5 316.75 217.65 321.1 225.85 316.25 230.45 L310.35 238.5 305.9 239.95 Q297.7 242.25 289.55 242.15 291.85 238.25 291.95 235.6 292.05 233.75 290.8 230.7 289.25 226.7 283.75 221.85 273.9 213.0 262.05 220.95 270.05 210.1 290.3 223.55 282.65 190.55 271.25 178.65 266.75 173.9 261.85 170.9 L263.05 168.2" fill="#464b60" fill-rule="evenodd" stroke="none"/>
    <path d="M236.15 173.75 L234.6 176.8 Q233.35 179.6 233.8 184.1 234.1 187.4 236.5 190.65 240.3 195.9 247.05 195.05 239.15 196.35 234.6 190.95 229.2 184.5 232.25 173.55 L232.35 173.35 233.45 171.1 236.15 173.75" fill="#c6b193" fill-rule="evenodd" stroke="none"/>
    <path d="M263.05 168.2 L261.85 170.9 Q255.8 167.2 249.2 166.1 241.35 164.7 236.15 173.75 L233.45 171.1 Q238.35 162.2 247.95 162.95 255.55 163.55 263.05 168.2" fill="#9a7d52" fill-rule="evenodd" stroke="none"/>
    <path d="M261.85 170.9 Q266.75 173.9 271.25 178.65 282.65 190.55 290.3 223.55 270.05 210.1 262.05 220.95 273.9 213.0 283.75 221.85 289.25 226.7 290.8 230.7 292.05 233.75 291.95 235.6 291.85 238.25 289.55 242.15 297.7 242.25 305.9 239.95 L310.35 238.5 316.25 230.45 Q321.1 225.85 316.75 217.65 318.45 227.5 312.55 226.3 307.2 224.15 306.85 216.05 304.65 219.55 306.35 224.05 297.0 211.9 297.0 203.55 297.05 201.1 298.55 197.15 300.0 193.35 302.4 191.5 305.4 189.25 311.65 188.25 299.8 187.45 295.6 195.7 294.2 198.45 293.75 201.55 293.0 206.2 294.5 211.7 L290.9 203.2 288.65 198.5 Q280.5 182.6 270.05 173.4 266.55 170.35 263.05 168.2 255.55 163.55 247.95 162.95 238.35 162.2 233.45 171.1 L232.35 173.35 232.25 173.55 Q229.2 184.5 234.6 190.95 239.15 196.35 247.05 195.05 L250.3 194.3 251.5 193.9 M261.85 170.9 Q255.8 167.2 249.2 166.1 241.35 164.7 236.15 173.75 L234.6 176.8 Q233.35 179.6 233.8 184.1 234.1 187.4 236.5 190.65 240.3 195.9 247.05 195.05" fill="none" stroke="#000000" stroke-linecap="round" stroke-linejoin="round" stroke-opacity="0.3529412" stroke-width="0.6000000000000001"/>
    <path d="M265.65 206.65 Q275.85 201.4 286.95 219.2 278.1 211.05 265.65 206.65" fill="#5a637e" fill-rule="evenodd" stroke="none"/>
    <path d="M265.65 206.65 Q278.1 211.05 286.95 219.2 275.85 201.4 265.65 206.65 Z" fill="none" stroke="#000000" stroke-linecap="round" stroke-linejoin="round" stroke-opacity="0.3529412" stroke-width="0.6000000000000001"/>
    <path d="M283.45 169.8 Q283.4 177.15 289.5 193.5 271.35 162.45 289.75 158.8 283.5 162.45 283.45 169.8" fill="#6a7393" fill-rule="evenodd" stroke="none"/>
    <path d="M283.45 169.8 Q283.4 177.15 289.5 193.5 271.35 162.45 289.75 158.8 283.5 162.45 283.45 169.8 Z" fill="none" stroke="#000000" stroke-linecap="round" stroke-linejoin="round" stroke-opacity="0.3529412" stroke-width="0.6000000000000001"/>
  </g>
</svg>
