<?xml version="1.0" encoding="UTF-8" standalone="no"?>
<svg xmlns:xlink="http://www.w3.org/1999/xlink" height="65.4px" width="76.3px" xmlns="http://www.w3.org/2000/svg">
  <g transform="matrix(1.0, 0.0, 0.0, 1.0, -232.45, -171.9)">
    <path d="M239.75 237.05 Q243.5 236.3 246.2 234.9 L246.9 234.45 247.2 235.05 247.6 235.9 247.65 235.95 245.8 236.45 239.75 237.05" fill="#cac55e" fill-rule="evenodd" stroke="none"/>
    <path d="M245.75 232.75 L246.9 234.45 246.2 234.9 Q243.5 236.3 239.75 237.05 236.05 236.95 232.85 235.7 240.25 235.45 244.85 233.05 L245.7 232.65 245.75 232.75" fill="#c7dba2" fill-rule="evenodd" stroke="none"/>
    <path d="M245.7 232.65 L244.85 233.05 Q240.25 235.45 232.85 235.7 L232.7 235.65 Q237.75 233.95 241.1 231.8 L242.9 230.4 243.8 231.0 244.25 231.3 245.7 232.65" fill="#e1ecce" fill-rule="evenodd" stroke="none"/>
    <path d="M246.9 234.45 L245.75 232.75 M232.85 235.7 Q236.05 236.95 239.75 237.05 L245.8 236.45 247.65 235.95 247.6 235.9 247.2 235.05 246.9 234.45 M245.7 232.65 L244.25 231.3 243.8 231.0 242.9 230.4 241.1 231.8 Q237.75 233.95 232.7 235.65 L232.85 235.7" fill="none" stroke="#000000" stroke-linecap="round" stroke-linejoin="round" stroke-opacity="0.3019608" stroke-width="0.5"/>
    <path d="M299.6 172.85 L300.45 173.45 303.45 175.1 303.6 175.15 307.0 176.4 307.5 181.95 302.1 183.75 300.3 184.35 302.35 182.15 303.85 180.5 Q303.1 176.1 299.6 172.85 M302.1 183.75 Q302.7 182.95 302.35 182.15 302.7 182.95 302.1 183.75" fill="#de6c58" fill-rule="evenodd" stroke="none"/>
    <path d="M296.25 179.3 L295.95 176.05 Q297.25 172.5 298.6 172.15 L299.6 172.85 Q303.1 176.1 303.85 180.5 L302.35 182.15 Q301.95 179.9 298.15 180.55 301.95 179.9 302.35 182.15 L300.3 184.35 300.25 184.4 300.1 184.45 297.9 185.2 298.05 185.05 297.9 185.05 295.7 185.05 294.6 184.0 295.7 185.05 294.25 185.05 293.9 185.05 293.5 185.05 293.85 184.75 294.25 185.05 293.85 184.75 294.6 184.0 296.45 182.25 298.15 180.55 299.0 179.75 296.25 179.3 M307.0 176.4 L308.0 176.65 308.5 179.5 307.5 181.95 307.0 176.4 M300.1 184.45 Q300.4 181.75 296.45 182.25 300.4 181.75 300.1 184.45" fill="#eaa295" fill-rule="evenodd" stroke="none"/>
    <path d="M270.75 211.6 Q264.35 218.5 256.05 226.35 L253.05 222.15 Q260.95 214.7 268.4 206.9 L271.85 203.25 276.0 198.45 275.95 197.9 275.75 197.5 289.95 185.1 291.55 183.7 291.95 183.35 293.0 182.4 294.95 180.75 296.0 179.8 296.25 179.55 296.25 179.3 299.0 179.75 298.15 180.55 296.0 179.8 298.15 180.55 296.45 182.25 294.6 184.0 293.85 184.75 293.5 185.05 293.9 185.05 293.45 185.5 291.55 183.7 293.45 185.5 291.75 187.1 281.35 196.8 279.55 196.8 268.55 209.7 270.75 211.6 M243.75 233.65 Q243.15 232.65 242.45 229.7 248.0 226.85 252.75 222.4 L252.75 225.2 243.75 233.65 M289.95 185.1 L291.75 187.1 289.95 185.1 M297.9 185.05 L298.05 185.05 297.9 185.2 297.9 185.05 M291.95 183.35 L293.85 184.75 291.95 183.35 M296.45 182.25 L294.95 180.75 296.45 182.25 M294.6 184.0 L293.0 182.4 294.6 184.0" fill="#a67533" fill-rule="evenodd" stroke="none"/>
    <path d="M297.9 185.2 L296.85 186.2 296.35 186.65 295.55 187.45 293.7 189.25 274.1 208.25 270.75 211.6 268.55 209.7 279.55 196.8 281.35 196.8 291.75 187.1 293.45 185.5 293.9 185.05 294.25 185.05 295.7 185.05 297.9 185.05 297.9 185.2 M256.05 226.35 Q251.15 230.9 248.4 237.0 244.5 234.85 243.75 233.65 L252.75 225.2 252.75 222.4 253.05 222.15 256.05 226.35 M296.85 186.2 L295.7 185.05 296.85 186.2 M295.55 187.45 L293.45 185.5 295.55 187.45 M296.35 186.65 L294.25 185.05 296.35 186.65 M293.7 189.25 L291.75 187.1 293.7 189.25" fill="#6b4b21" fill-rule="evenodd" stroke="none"/>
    <path d="M296.25 179.3 L295.95 176.05 Q297.25 172.5 298.6 172.15" fill="none" stroke="#f9e1dd" stroke-linecap="round" stroke-linejoin="round" stroke-width="0.5"/>
    <path d="M308.0 176.65 L308.5 179.5 307.5 181.95 302.1 183.75 300.3 184.35 300.25 184.4 M300.1 184.45 L297.9 185.2 296.85 186.2 296.35 186.65 295.55 187.45 293.7 189.25 274.1 208.25 270.75 211.6 Q264.35 218.5 256.05 226.35 251.15 230.9 248.4 237.0 244.5 234.85 243.75 233.65 243.15 232.65 242.45 229.7 248.0 226.85 252.75 222.4 L253.05 222.15 M289.95 185.1 L291.55 183.7 291.95 183.35 293.0 182.4 294.95 180.75 296.0 179.8 296.25 179.55 296.25 179.3 299.0 179.75 298.15 180.55 296.45 182.25 294.6 184.0 293.85 184.75 293.5 185.05 293.9 185.05 294.25 185.05 295.7 185.05 297.9 185.05 298.05 185.05 297.9 185.2" fill="none" stroke="#000000" stroke-linecap="round" stroke-linejoin="round" stroke-opacity="0.3019608" stroke-width="0.5"/>
    <path d="M300.25 184.4 L300.1 184.45 Q300.4 181.75 296.45 182.25 L294.95 180.75 M298.15 180.55 Q301.95 179.9 302.35 182.15 302.7 182.95 302.1 183.75 M296.0 179.8 L298.15 180.55 M291.75 187.1 L289.95 185.1 M294.6 184.0 L295.7 185.05 296.85 186.2 M294.25 185.05 L293.85 184.75 291.95 183.35 M293.45 185.5 L291.55 183.7 M293.45 185.5 L295.55 187.45 M294.25 185.05 L296.35 186.65 M291.75 187.1 L293.7 189.25 M293.0 182.4 L294.6 184.0" fill="none" stroke="#9f3320" stroke-linecap="round" stroke-linejoin="round" stroke-width="0.5"/>
    <path d="M253.05 222.15 Q260.95 214.7 268.4 206.9 L271.85 203.25 276.0 198.45 275.75 197.5 289.95 185.1" fill="none" stroke="#cd9d5c" stroke-linecap="round" stroke-linejoin="round" stroke-width="0.5"/>
  </g>
</svg>
