<?xml version="1.0" encoding="UTF-8" standalone="no"?>
<svg xmlns:xlink="http://www.w3.org/1999/xlink" height="25.5px" width="32.9px" xmlns="http://www.w3.org/2000/svg">
  <g transform="matrix(1.0, 0.0, 0.0, 1.0, 14.2, 11.3)">
    <path d="M-2.2 -3.1 L-1.7 -1.9 0.25 -0.85 0.25 -0.45 0.8 0.35 2.75 1.75 4.35 1.75 4.6 1.9 6.3 3.05 6.35 3.1 5.95 3.3 6.65 4.1 9.35 5.1 9.4 5.15 10.35 5.95 9.05 6.7 10.0 8.0 9.75 8.85 9.3 8.1 0.15 1.55 -0.4 0.5 -4.75 -2.75 -8.95 -7.3 -12.65 -9.7 -13.1 -10.9 -12.55 -11.1 -12.2 -11.2 -9.45 -10.4 -7.8 -9.45 -7.75 -9.4 Q-5.7 -7.4 -2.7 -3.7 L-2.2 -3.1 M-7.35 -2.35 L-8.55 -3.95 -9.9 -4.5 -10.4 -4.45 -11.0 -4.4 -11.7 -5.7 -9.85 -5.45 -9.25 -5.15 -7.35 -2.35" fill="#f0e3a5" fill-rule="evenodd" stroke="none"/>
    <path d="M4.35 1.75 L2.75 1.75 0.8 0.35 0.25 -0.45 0.25 -0.85 -1.7 -1.9 -2.2 -3.1 -1.6 -2.35 -1.4 -2.2 0.95 -0.7 1.45 0.15 3.35 1.55 4.35 1.75 M0.15 1.55 L9.3 8.1 9.75 8.85 11.6 11.8 10.15 11.85 Q11.0 14.15 14.05 13.35 L12.1 14.2 10.8 13.5 Q9.15 11.8 9.85 10.6 L9.0 8.55 -7.35 -2.35 -9.25 -5.15 -9.35 -5.25 0.15 1.55 M10.35 5.95 L9.4 5.15 9.35 5.1 6.65 4.1 5.95 3.3 6.35 3.1 6.85 3.85 7.65 3.8 7.75 3.9 8.2 4.15 8.25 4.15 9.8 5.15 11.05 5.35 13.25 4.75 13.15 5.2 10.7 5.6 10.75 5.7 11.0 6.45 10.35 5.95 M15.4 10.8 L15.55 10.8 15.45 10.9 15.5 11.4 15.5 11.6 15.5 11.8 Q14.45 13.25 12.75 12.65 L12.75 10.1 Q14.2 11.1 15.4 10.8 M-8.55 -3.95 Q-9.15 -3.1 -10.8 -2.9 -14.4 -4.65 -13.85 -4.75 L-14.2 -6.65 -12.65 -6.45 -13.7 -8.25 -13.65 -8.3 -14.1 -9.35 -14.0 -9.65 -11.5 -7.7 -11.7 -5.7 -11.0 -4.4 -10.4 -4.45 -9.9 -4.5 -8.55 -3.95" fill="#a6996a" fill-rule="evenodd" stroke="none"/>
    <path d="M-13.1 -10.9 L-12.65 -9.7 -8.95 -7.3 -4.75 -2.75 -0.4 0.5 0.15 1.55 -9.35 -5.25 -9.25 -5.15 -9.85 -5.45 -11.7 -5.7 -11.5 -7.7 -14.0 -9.65 -13.75 -10.6 -13.1 -10.9 M9.75 8.85 L10.0 8.0 9.05 6.7 10.35 5.95 11.0 6.45 10.75 5.7 10.7 5.6 13.15 5.2 Q11.8 6.5 13.3 7.75 14.8 8.95 16.1 8.55 17.4 8.15 15.4 10.8 14.2 11.1 12.75 10.1 L12.75 12.65 Q14.45 13.25 15.5 11.8 L15.5 12.05 14.65 13.6 Q12.75 14.35 12.1 14.2 L14.05 13.35 Q11.0 14.15 10.15 11.85 L11.6 11.8 9.75 8.85" fill="#c9bc7e" fill-rule="evenodd" stroke="none"/>
    <path d="M-14.2 -6.65 L-13.7 -8.25 -12.65 -6.45 -14.2 -6.65" fill="#fff2bb" fill-rule="evenodd" stroke="none"/>
    <path d="M-7.75 -9.4 L-7.8 -9.45 -9.45 -10.4 -12.2 -11.2 Q-10.7 -11.55 -9.15 -10.9 -7.3 -10.1 -7.75 -9.4 M13.15 5.2 L13.25 4.75 15.0 4.6 Q17.3 5.1 17.65 6.9 18.05 8.9 15.55 10.8 L15.4 10.8 Q17.4 8.15 16.1 8.55 14.8 8.95 13.3 7.75 11.8 6.5 13.15 5.2" fill="#ffffdf" fill-rule="evenodd" stroke="none"/>
    <path d="M-2.7 -3.7 Q-5.7 -7.4 -7.75 -9.4 L-7.8 -9.45 M-12.55 -11.1 L-13.1 -10.9 -13.75 -10.6 -14.0 -9.65 -14.1 -9.35 -13.65 -8.3 -13.7 -8.25 -14.2 -6.65 -13.85 -4.75 Q-14.4 -4.65 -10.8 -2.9 -9.15 -3.1 -8.55 -3.95 L-9.9 -4.5 -10.4 -4.45 M6.3 3.05 L4.6 1.9 M0.95 -0.7 L-1.4 -2.2 M-1.6 -2.35 L-2.2 -3.1 M15.4 10.8 L15.55 10.8 Q18.05 8.9 17.65 6.9 17.3 5.1 15.0 4.6 L13.25 4.75 11.05 5.35 9.8 5.15 8.25 4.15 8.2 4.15 M7.75 3.9 L7.65 3.8 M12.1 14.2 Q12.75 14.35 14.65 13.6 L15.5 12.05 15.5 11.8 15.5 11.6 M12.75 10.1 Q14.2 11.1 15.4 10.8 M15.55 10.8 L15.45 10.9 15.5 11.4 M12.1 14.2 L10.8 13.5 Q9.15 11.8 9.85 10.6 L9.0 8.55 -7.35 -2.35 -8.55 -3.95 M-7.75 -9.4 Q-7.3 -10.1 -9.15 -10.9 -10.7 -11.55 -12.2 -11.2" fill="none" stroke="#000000" stroke-linecap="round" stroke-linejoin="round" stroke-opacity="0.3019608" stroke-width="0.05"/>
    <path d="M13.7 9.25 L12.55 8.35 Q11.15 7.05 11.15 5.8 L11.2 5.6 11.2 5.55 11.4 5.0 Q11.7 4.5 12.45 4.3 14.85 3.6 16.9 5.4 L17.7 6.25 Q18.4 7.3 18.05 8.45 17.65 9.55 16.85 9.9 L16.05 10.0 Q15.0 10.1 13.7 9.25 15.0 10.1 16.05 10.0 L16.85 9.9 Q17.65 9.65 18.15 9.25 L17.45 10.3 13.4 10.4 13.2 10.3 13.15 10.25 13.7 9.25 M17.5 7.75 Q17.5 7.0 16.25 5.9 14.85 4.65 13.2 5.1 12.35 5.35 12.3 6.15 L12.55 7.0 13.3 7.9 Q14.6 9.1 15.6 9.05 L15.7 9.05 Q16.75 8.95 17.25 8.45 L17.5 7.75" fill="#f0e3a5" fill-rule="evenodd" stroke="none"/>
    <path d="M12.55 7.0 L12.3 6.15 Q12.35 5.35 13.2 5.1 14.85 4.65 16.25 5.9 17.5 7.0 17.5 7.75 15.05 5.0 14.25 6.75 13.1 6.45 12.55 7.0" fill="#a6996a" fill-rule="evenodd" stroke="none"/>
    <path d="M17.5 7.75 L17.25 8.45 Q16.75 8.95 15.7 9.05 L15.6 9.05 Q15.85 8.2 14.25 6.75 15.05 5.0 17.5 7.75" fill="#80754d" fill-rule="evenodd" stroke="none"/>
    <path d="M17.7 6.25 Q19.35 8.05 18.3 9.1 L18.15 9.25 Q17.65 9.65 16.85 9.9 17.65 9.55 18.05 8.45 18.4 7.3 17.7 6.25" fill="#ffffdf" fill-rule="evenodd" stroke="none"/>
    <path d="M11.2 5.55 L11.2 5.6 11.15 5.8 Q11.15 7.05 12.55 8.35 L13.7 9.25 13.15 10.25 Q11.35 9.15 10.65 7.05 L11.2 5.55" fill="#c9bc7e" fill-rule="evenodd" stroke="none"/>
    <path d="M15.6 9.05 Q14.6 9.1 13.3 7.9 L12.55 7.0 Q13.1 6.45 14.25 6.75 15.85 8.2 15.6 9.05" fill="#655c3d" fill-rule="evenodd" stroke="none"/>
    <path d="M13.7 9.25 L12.55 8.35 Q11.15 7.05 11.15 5.8 L11.2 5.6 11.2 5.55 M11.4 5.0 Q11.7 4.5 12.45 4.3 14.85 3.6 16.9 5.4 L17.7 6.25 Q19.35 8.05 18.3 9.1 M16.85 9.9 L16.05 10.0 Q15.0 10.1 13.7 9.25 M18.15 9.25 Q17.65 9.65 16.85 9.9" fill="none" stroke="#000000" stroke-linecap="round" stroke-linejoin="round" stroke-opacity="0.3019608" stroke-width="0.05"/>
    <path d="M11.2 5.55 L10.65 7.05 Q11.35 9.15 13.15 10.25 M11.2 5.55 L11.4 5.0 M18.3 9.1 L18.15 9.25 17.45 10.3 13.4 10.4 13.2 10.3" fill="none" stroke="#000000" stroke-linecap="round" stroke-linejoin="round" stroke-opacity="0.3019608" stroke-width="0.05"/>
    <path d="M-6.6 -5.9 L-6.5 -6.5 -5.95 -6.75 Q-5.6 -6.7 -5.3 -6.45 L-4.9 -5.8 Q-4.85 -5.5 -5.05 -5.25 -5.25 -5.0 -5.55 -5.0 L-6.25 -5.3 -6.6 -5.9" fill="#504930" fill-rule="evenodd" stroke="none"/>
    <path d="M-5.3 -6.45 L-4.9 -5.8 Q-4.85 -5.5 -5.05 -5.25 -5.25 -5.0 -5.55 -5.0 L-5.5 -5.1 -5.35 -5.65 -5.75 -6.3 -6.4 -6.6 -5.95 -6.75 Q-5.6 -6.7 -5.3 -6.45" fill="#756b46" fill-rule="evenodd" stroke="none"/>
    <path d="M-9.3 -8.55 L-9.2 -9.15 -8.65 -9.4 Q-8.3 -9.35 -8.0 -9.1 L-7.6 -8.45 -7.75 -7.9 Q-7.95 -7.65 -8.25 -7.65 L-8.95 -7.95 -9.3 -8.55" fill="#504930" fill-rule="evenodd" stroke="none"/>
    <path d="M-8.0 -9.1 L-7.6 -8.45 -7.75 -7.9 Q-7.95 -7.65 -8.25 -7.65 L-8.2 -7.75 -8.05 -8.3 -8.45 -8.95 -9.1 -9.25 -8.65 -9.4 Q-8.3 -9.35 -8.0 -9.1" fill="#756b46" fill-rule="evenodd" stroke="none"/>
  </g>
</svg>
