<?xml version="1.0" encoding="UTF-8" standalone="no"?>
<svg xmlns:xlink="http://www.w3.org/1999/xlink" height="155.4px" width="130.95px" xmlns="http://www.w3.org/2000/svg">
  <g transform="matrix(1.0, 0.0, 0.0, 1.0, -209.5, -122.25)">
    <path d="M231.65 215.45 Q232.7 217.0 232.7 218.05 232.7 219.6 231.65 220.7 230.85 221.45 229.85 221.65 L229.0 221.75 Q227.7 221.75 226.4 220.7 225.3 219.6 225.3 218.05 225.3 216.5 226.4 215.45 L226.85 215.05 Q227.75 214.35 229.0 214.35 230.25 214.35 231.2 215.05 L231.65 215.45 M226.25 250.3 L226.3 250.2 Q225.5 248.9 225.5 248.05 225.5 246.5 226.55 245.4 227.65 244.35 229.15 244.35 L229.2 244.35 Q230.5 244.35 231.8 245.4 232.9 246.5 232.9 248.05 232.9 249.6 231.8 250.65 L231.35 251.05 Q230.45 251.75 229.2 251.75 227.95 251.75 227.05 251.05 L226.55 250.65 226.25 250.3 M226.3 250.2 L226.3 250.25 226.55 250.65 226.3 250.25 226.3 250.2" fill="#cccccc" fill-rule="evenodd" stroke="none"/>
    <path d="M226.4 220.7 Q227.7 221.75 229.0 221.75 L229.85 221.65 Q230.85 221.45 231.65 220.7 232.7 219.6 232.7 218.05 232.7 217.0 231.65 215.45 L232.6 216.55 233.25 217.4 Q233.65 218.15 233.65 219.15 233.65 220.4 233.0 221.35 L232.6 221.8 231.4 222.6 229.95 222.85 229.05 222.75 Q228.1 222.55 227.35 221.8 L226.4 220.7 M232.25 223.6 Q233.85 224.35 233.7 222.2 L234.35 223.05 Q234.55 224.35 233.9 224.55 L233.05 224.55 232.25 223.6 M225.15 241.55 L226.0 242.55 Q224.4 241.85 224.55 243.95 L223.85 243.05 Q223.7 242.3 223.9 241.9 L223.95 241.85 Q224.25 241.35 225.15 241.55 M226.8 243.55 L228.25 243.25 229.65 243.5 Q230.3 243.75 230.85 244.3 L231.8 245.4 Q230.5 244.35 229.2 244.35 L229.15 244.35 Q227.65 244.35 226.55 245.4 225.5 246.5 225.5 248.05 225.5 248.9 226.3 250.2 L226.25 250.3 225.6 249.55 Q224.55 248.5 224.55 246.95 224.55 245.7 225.25 244.8 L225.6 244.3 226.8 243.55 M214.85 270.55 L215.85 270.7 215.55 273.9 213.6 272.55 213.85 270.35 214.85 270.55 M215.5 274.85 L218.75 275.05 218.75 277.55 210.45 277.15 210.45 274.45 213.35 274.7 215.5 274.85" fill="#999999" fill-rule="evenodd" stroke="none"/>
    <path d="M229.05 222.75 L229.95 222.85 231.4 222.6 232.25 223.6 233.05 224.55 229.7 230.1 233.9 224.55 Q234.55 224.35 234.35 223.05 L233.7 222.2 233.0 221.35 Q233.65 220.4 233.65 219.15 233.65 218.15 233.25 217.4 238.8 210.6 245.65 204.3 L247.7 207.0 Q254.75 200.3 262.25 195.55 L263.75 197.35 Q255.7 203.2 248.7 209.65 234.95 222.35 225.15 241.55 L227.2 235.95 223.95 241.85 223.9 241.9 Q223.7 242.3 223.85 243.05 217.65 254.35 214.85 270.55 L213.85 270.35 209.6 269.6 Q213.45 244.05 229.05 222.75 M295.1 175.85 L294.15 174.45 Q302.35 169.05 308.55 161.9 L305.4 158.95 Q324.4 140.6 324.4 125.1 327.75 123.6 330.55 122.9 329.95 131.95 325.6 139.9 L328.85 135.8 Q315.75 162.7 295.1 175.85" fill="#afa07a" fill-rule="evenodd" stroke="none"/>
    <path d="M233.05 224.55 L233.9 224.55 229.7 230.1 233.05 224.55 M295.1 175.85 Q315.75 162.7 328.85 135.8 331.75 131.45 333.75 125.9 L334.85 122.35 Q338.15 122.35 340.35 123.95 336.6 145.4 313.5 167.1 L310.9 164.55 Q304.55 172.2 296.0 177.25 L295.1 175.85 M263.75 197.35 L264.6 198.35 Q256.95 203.2 250.5 209.8 L253.55 213.65 Q238.0 228.35 229.65 243.5 L228.25 243.25 226.8 243.55 226.0 242.55 225.15 241.55 Q234.95 222.35 248.7 209.65 255.7 203.2 263.75 197.35 M223.95 241.85 L227.2 235.95 225.15 241.55 Q224.25 241.35 223.95 241.85 M225.25 244.8 Q224.55 245.7 224.55 246.95 224.55 248.5 225.6 249.55 L226.25 250.3 Q221.55 260.75 220.25 271.45 L215.85 270.7 214.85 270.55 Q217.65 254.35 223.85 243.05 L224.55 243.95 225.25 244.8" fill="#8a7953" fill-rule="evenodd" stroke="none"/>
    <path d="M231.4 222.6 L232.6 221.8 233.0 221.35 233.7 222.2 Q233.85 224.35 232.25 223.6 L231.4 222.6 M226.0 242.55 L226.8 243.55 225.6 244.3 225.25 244.8 224.55 243.95 Q224.4 241.85 226.0 242.55 M213.6 272.55 L215.55 273.9 215.5 274.85 213.35 274.7 213.6 272.55" fill="#666666" fill-rule="evenodd" stroke="none"/>
    <path d="M281.45 178.1 L283.3 180.85 Q281.8 183.1 279.7 181.6 L278.4 180.2 Q282.5 181.7 281.45 178.1 M270.3 185.45 L272.1 188.25 Q271.0 191.1 269.35 189.8 L267.05 187.55 Q271.25 190.0 270.3 185.45 M263.75 197.35 L295.1 175.85 296.0 177.25 Q304.55 172.2 310.9 164.55 L313.5 167.1 Q303.1 176.9 288.75 186.8 L287.15 184.75 Q285.15 183.5 284.0 185.9 L284.75 189.5 277.9 193.9 276.4 191.4 Q274.55 190.45 272.65 192.1 L274.05 196.5 274.1 196.6 Q262.6 205.05 253.55 213.65 L250.5 209.8 Q256.95 203.2 264.6 198.35 L263.75 197.35" fill="#9e653f" fill-rule="evenodd" stroke="none"/>
    <path d="M305.4 158.95 L308.55 161.9 Q302.35 169.05 294.15 174.45 L295.1 175.85 263.75 197.35 262.25 195.55 Q254.75 200.3 247.7 207.0 L245.65 204.3 Q255.15 195.5 267.05 187.55 L269.35 189.8 Q271.0 191.1 272.1 188.25 L270.3 185.45 270.8 185.15 278.4 180.2 279.7 181.6 Q281.8 183.1 283.3 180.85 L281.45 178.1 Q295.8 168.15 305.4 158.95 M274.05 196.5 L272.65 192.1 Q274.55 190.45 276.4 191.4 L277.9 193.9 Q276.45 192.2 275.0 192.8 273.65 193.3 274.05 196.5 M284.75 189.5 L284.0 185.9 Q285.15 183.5 287.15 184.75 L288.75 186.8 Q284.5 184.2 285.2 189.2 L284.75 189.5" fill="#b8774b" fill-rule="evenodd" stroke="none"/>
    <path d="M328.85 135.8 L325.6 139.9 Q329.95 131.95 330.55 122.9 L333.75 125.9 Q331.75 131.45 328.85 135.8" fill="#5b5137" fill-rule="evenodd" stroke="none"/>
    <path d="M226.4 220.7 L227.35 221.8 Q228.1 222.55 229.05 222.75 L229.95 222.85 231.4 222.6 232.6 221.8 233.0 221.35 Q233.65 220.4 233.65 219.15 233.65 218.15 233.25 217.4 L232.6 216.55 231.65 215.45 231.2 215.05 Q230.25 214.35 229.0 214.35 227.75 214.35 226.85 215.05 L226.4 215.45 Q225.3 216.5 225.3 218.05 225.3 219.6 226.4 220.7 M233.7 222.2 L233.0 221.35 M233.9 224.55 L233.05 224.55 232.25 223.6 231.4 222.6 M233.9 224.55 Q234.55 224.35 234.35 223.05 L233.7 222.2 M253.55 213.65 Q262.6 205.05 274.1 196.6 M229.65 243.5 Q238.0 228.35 253.55 213.65 M220.25 271.45 Q221.55 260.75 226.25 250.3" fill="none" stroke="#000000" stroke-linecap="round" stroke-linejoin="round" stroke-opacity="0.3019608" stroke-width="0.2"/>
    <path d="M305.4 158.95 L308.55 161.9 Q302.35 169.05 294.15 174.45 L295.1 175.85 296.0 177.25 Q304.55 172.2 310.9 164.55 L313.5 167.1 Q336.6 145.4 340.35 123.95 338.15 122.35 334.85 122.35 L333.75 125.9 Q331.75 131.45 328.85 135.8 L325.6 139.9 Q329.95 131.95 330.55 122.9 327.75 123.6 324.4 125.1 324.4 140.6 305.4 158.95 295.8 168.15 281.45 178.1 282.5 181.7 278.4 180.2 L270.8 185.15 270.3 185.45 Q271.25 190.0 267.05 187.55 255.15 195.5 245.65 204.3 L247.7 207.0 Q254.75 200.3 262.25 195.55 L263.75 197.35 264.6 198.35 Q256.95 203.2 250.5 209.8 L253.55 213.65 M274.05 196.5 Q273.65 193.3 275.0 192.8 276.45 192.2 277.9 193.9 L284.75 189.5 285.2 189.2 Q284.5 184.2 288.75 186.8 303.1 176.9 313.5 167.1 M274.1 196.6 L274.05 196.5 M233.25 217.4 Q238.8 210.6 245.65 204.3 M225.15 241.55 L226.0 242.55 226.8 243.55 228.25 243.25 229.65 243.5 Q230.3 243.75 230.85 244.3 L231.8 245.4 Q232.9 246.5 232.9 248.05 232.9 249.6 231.8 250.65 L231.35 251.05 Q230.45 251.75 229.2 251.75 227.95 251.75 227.05 251.05 L226.55 250.65 226.25 250.3 225.6 249.55 Q224.55 248.5 224.55 246.95 224.55 245.7 225.25 244.8 L224.55 243.95 223.85 243.05 Q223.7 242.3 223.9 241.9 M223.95 241.85 Q224.25 241.35 225.15 241.55 M214.85 270.55 L215.85 270.7 220.25 271.45 M225.25 244.8 L225.6 244.3 226.8 243.55 M226.55 250.65 L226.3 250.25 226.3 250.2 M213.85 270.35 L214.85 270.55 M215.55 273.9 L215.85 270.7 M213.6 272.55 L213.85 270.35 209.6 269.6 Q213.45 244.05 229.05 222.75 M215.5 274.85 L218.75 275.05 218.75 277.55 210.45 277.15 210.45 274.45 213.35 274.7 213.6 272.55 M215.5 274.85 L213.35 274.7 M215.55 273.9 L215.5 274.85 M330.55 122.9 L333.75 125.9" fill="none" stroke="#000000" stroke-linecap="round" stroke-linejoin="round" stroke-opacity="0.3019608" stroke-width="0.2"/>
    <path d="M226.35 247.65 L225.75 247.7 225.5 247.15 Q225.5 246.75 225.75 246.3 L226.35 245.7 226.95 245.65 Q227.25 245.8 227.2 246.2 L227.0 247.0 226.35 247.65" fill="#ffffff" fill-rule="evenodd" stroke="none"/>
    <path d="M226.35 217.75 L225.75 217.8 225.5 217.25 Q225.5 216.85 225.75 216.4 L226.35 215.8 226.95 215.75 Q227.25 215.9 227.2 216.3 L227.0 217.1 226.35 217.75" fill="#ffffff" fill-rule="evenodd" stroke="none"/>
    <path d="M266.5 188.95 Q266.2 188.65 266.3 188.4 266.35 188.05 266.75 187.95 L267.65 188.0 268.4 188.4 Q268.7 188.7 268.6 189.0 L268.15 189.4 267.25 189.4 266.5 188.95" fill="#ffffff" fill-opacity="0.49803922" fill-rule="evenodd" stroke="none"/>
  </g>
</svg>
