<?xml version="1.0" encoding="UTF-8" standalone="no"?>
<svg xmlns:xlink="http://www.w3.org/1999/xlink" height="7.75px" width="6.05px" xmlns="http://www.w3.org/2000/svg">
  <g transform="matrix(1.0, 0.0, 0.0, 1.0, 5.6, 7.35)">
    <path d="M-1.05 0.4 L-1.5 0.15 Q-2.4 -0.25 -3.8 -1.75 -5.8 -3.95 -5.6 -5.55 -5.35 -7.6 -3.4 -7.3 -1.35 -7.05 -0.2 -5.1 0.85 -3.15 0.25 -0.3 L0.2 0.05 Q-0.45 0.4 -1.05 0.4" fill="#fbe9a8" fill-rule="evenodd" stroke="none"/>
    <path d="M-1.05 0.4 Q-0.45 0.4 0.2 0.05 L0.25 -0.3 Q0.85 -3.15 -0.2 -5.1 -1.35 -7.05 -3.4 -7.3 -5.35 -7.6 -5.6 -5.55 -5.8 -3.95 -3.8 -1.75 -2.4 -0.25 -1.5 0.15 L-1.05 0.4 Z" fill="none" stroke="#0f0b07" stroke-linecap="round" stroke-linejoin="round" stroke-opacity="0.4" stroke-width="0.05"/>
  </g>
</svg>
