<?xml version="1.0" encoding="UTF-8" standalone="no"?>
<svg xmlns:xlink="http://www.w3.org/1999/xlink" height="143.05px" width="102.55px" xmlns="http://www.w3.org/2000/svg">
  <g transform="matrix(1.0, 0.0, 0.0, 1.0, -217.5, -139.95)">
    <path d="M293.45 145.65 L293.65 145.8 Q292.4 147.5 289.5 149.35 286.5 151.0 285.6 151.9 L282.95 154.15 281.2 154.4 Q281.4 153.2 281.95 152.25 281.4 153.2 281.2 154.4 278.85 155.2 274.3 159.15 269.7 163.05 268.35 166.05 268.05 164.0 268.3 163.05 268.05 164.0 268.35 166.05 L267.85 167.25 267.7 167.25 Q264.1 168.05 261.85 169.3 L260.45 170.25 Q256.85 172.15 257.9 177.55 258.55 180.85 259.4 183.3 L259.95 184.7 260.6 186.0 259.95 185.4 257.95 183.3 Q256.55 181.65 255.75 180.15 L255.45 179.6 255.7 179.45 255.45 179.55 Q250.9 170.0 268.3 163.05 270.7 153.35 281.95 152.25 284.55 146.7 293.45 145.65" fill="#fe7878" fill-rule="evenodd" stroke="none"/>
    <path d="M281.2 154.4 L282.95 154.15 285.6 151.9 Q286.5 151.0 289.5 149.35 292.4 147.5 293.65 145.8 L293.45 145.65 294.45 144.25 Q295.7 142.15 295.15 140.45 298.8 140.15 302.45 149.25 L302.45 149.35 302.55 149.35 Q305.9 151.0 305.4 156.65 311.95 158.2 313.05 169.5 L313.05 169.55 313.1 169.5 Q330.65 193.8 300.35 199.5 L300.2 199.5 300.1 199.5 295.45 199.2 292.05 198.6 290.2 200.8 Q286.2 204.7 284.55 199.35 284.15 198.1 283.85 196.25 283.6 195.9 282.65 195.85 L280.05 195.45 279.85 195.45 278.45 195.1 275.7 194.35 274.4 194.0 273.65 193.8 270.65 193.2 Q264.35 189.45 260.6 186.0 L259.95 184.7 259.4 183.3 Q258.55 180.85 257.9 177.55 256.85 172.15 260.45 170.25 L261.85 169.3 Q264.1 168.05 267.7 167.25 L267.85 167.25 268.35 166.05 Q269.7 163.05 274.3 159.15 278.85 155.2 281.2 154.4 L280.9 155.95 280.85 157.4 280.9 155.95 281.2 154.4 M269.45 171.4 L268.5 167.1 268.35 166.05 268.5 167.1 269.45 171.4 M255.45 179.55 L255.7 179.45 255.45 179.6 255.45 179.55 M288.0 183.6 Q289.05 181.3 289.8 178.45 291.3 172.95 290.8 168.6 290.3 164.35 288.15 163.7 285.95 163.1 283.35 166.65 280.75 170.1 279.3 175.6 L278.55 178.9 279.3 175.6 Q280.75 170.1 283.35 166.65 285.95 163.1 288.15 163.7 290.3 164.35 290.8 168.6 291.3 172.95 289.8 178.45 289.05 181.3 288.0 183.6 M304.8 160.05 L305.4 156.65 304.8 160.05 M306.85 179.85 Q307.45 177.8 307.45 175.05 307.45 171.75 306.5 169.45 305.6 167.0 304.4 167.0 303.15 167.0 301.95 169.7 300.7 172.35 300.5 175.95 L300.05 183.0 300.5 175.95 Q300.7 172.35 301.95 169.7 303.15 167.0 304.4 167.0 305.6 167.0 306.5 169.45 307.45 171.75 307.45 175.05 307.45 177.8 306.85 179.85 M313.05 169.55 L312.65 173.95 313.05 169.55 M302.45 149.35 L303.05 154.85 302.45 149.35 303.05 150.85 302.45 149.35" fill="#ff9999" fill-rule="evenodd" stroke="none"/>
    <path d="M279.05 197.1 L274.3 206.85 274.0 206.7 273.35 206.4 272.35 205.9 269.95 204.7 268.55 204.0 270.3 200.35 271.35 198.15 273.05 194.6 275.1 195.45 279.0 197.1 279.05 197.1 M275.1 195.45 L272.45 200.0 269.95 204.7 272.45 200.0 275.1 195.45" fill="#4a2b0b" fill-rule="evenodd" stroke="none"/>
    <path d="M274.0 206.7 L270.95 212.5 262.2 228.7 261.25 229.0 257.75 229.95 259.65 227.0 270.95 210.0 273.35 206.4 274.0 206.7 M270.85 225.7 L270.95 225.7 Q279.9 222.25 289.4 215.95 L289.5 215.95 290.3 215.35 Q291.4 214.85 292.95 214.85 L293.15 214.85 Q294.55 214.9 295.55 215.35 296.65 215.85 296.65 216.6 296.65 217.3 295.55 217.85 L293.75 218.35 292.95 218.35 290.5 218.0 290.3 217.85 Q289.5 217.45 289.5 215.95 L289.2 216.6 289.4 215.95 289.2 216.6 289.5 215.95 Q289.5 217.45 290.3 217.85 L290.5 218.0 292.95 218.35 293.15 218.7 256.35 239.3 256.1 239.75 255.45 240.85 Q244.4 260.6 231.9 281.7 232.35 279.5 231.05 279.2 L229.7 278.95 229.85 277.7 230.3 275.1 231.1 272.7 Q231.45 271.6 232.15 270.0 L232.35 269.6 233.65 266.4 Q230.3 273.15 228.85 274.45 225.3 277.7 224.45 278.7 L222.6 278.8 Q224.15 275.2 229.05 268.65 L237.85 257.6 Q246.5 246.75 248.25 240.3 250.05 233.9 255.4 233.8 258.3 233.1 262.85 230.0 267.55 226.85 270.95 225.85 L270.85 225.7 M257.65 229.95 L258.75 227.8 259.85 225.7 Q263.1 219.35 269.85 209.6 L270.95 208.0 272.35 205.9 273.35 206.4 270.95 210.0 259.65 227.0 257.75 229.95 257.65 229.95 M255.45 240.85 L244.65 253.7 Q236.15 261.35 232.35 269.6 236.15 261.35 244.65 253.7 L255.45 240.85 M256.35 239.3 L250.75 242.4 256.35 239.3" fill="#804811" fill-rule="evenodd" stroke="none"/>
    <path d="M262.2 228.7 L270.85 225.7 270.95 225.85 Q267.55 226.85 262.85 230.0 258.3 233.1 255.4 233.8 250.05 233.9 248.25 240.3 246.5 246.75 237.85 257.6 L229.05 268.65 Q224.15 275.2 222.6 278.8 L220.25 279.2 Q218.7 279.6 218.25 280.1 246.95 243.6 269.75 201.1 L270.95 198.9 271.35 198.15 270.3 200.35 268.55 204.0 269.95 204.7 272.35 205.9 270.95 208.0 269.85 209.6 Q263.1 219.35 259.85 225.7 L258.75 227.8 257.65 229.95 257.75 229.95 261.25 229.0 262.2 228.7 M270.3 200.35 L269.75 201.1 270.3 200.35 M257.65 229.95 L256.85 230.15 257.65 229.95" fill="#61370e" fill-rule="evenodd" stroke="none"/>
    <path d="M222.6 278.8 L224.45 278.7 228.3 277.75 229.85 277.7 229.7 278.95 231.05 279.2 Q232.35 279.5 231.9 281.7 L231.05 281.95 225.7 282.5 220.25 281.95 Q218.0 281.4 218.0 280.6 L218.1 280.3 218.25 280.1 Q218.7 279.6 220.25 279.2 L222.6 278.8" fill="#3c2209" fill-rule="evenodd" stroke="none"/>
    <path d="M224.45 278.7 Q225.3 277.7 228.85 274.45 230.3 273.15 233.65 266.4 L232.35 269.6 232.15 270.0 Q231.45 271.6 231.1 272.7 L230.3 275.1 229.85 277.7 228.3 277.75 224.45 278.7" fill="#2d1a06" fill-rule="evenodd" stroke="none"/>
    <path d="M300.2 199.5 L290.2 200.8 292.05 198.6 295.45 199.2 300.1 199.5 300.2 199.5 M284.55 199.35 L279.05 197.1 279.0 197.1 275.1 195.45 273.05 194.6 270.65 193.2 273.65 193.8 274.4 194.0 275.7 194.35 278.45 195.1 279.85 195.45 280.05 195.45 282.65 195.85 Q283.6 195.9 283.85 196.25 284.15 198.1 284.55 199.35" fill="#fe7171" fill-rule="evenodd" stroke="none"/>
    <path d="M293.45 145.65 Q284.55 146.7 281.95 152.25 281.4 153.2 281.2 154.4 L280.9 155.95 280.85 157.4 M293.45 145.65 L294.45 144.25 Q295.7 142.15 295.15 140.45 298.8 140.15 302.45 149.25 L302.45 149.35 302.55 149.35 Q305.9 151.0 305.4 156.65 311.95 158.2 313.05 169.5 L313.1 169.5 Q330.65 193.8 300.35 199.5 L300.2 199.5 290.2 200.8 Q286.2 204.7 284.55 199.35 L279.05 197.1 274.3 206.85 M274.0 206.7 L270.95 212.5 262.2 228.7 270.85 225.7 270.95 225.7 Q279.9 222.25 289.4 215.95 L289.5 215.95 290.3 215.35 Q291.4 214.85 292.95 214.85 L293.15 214.85 Q294.55 214.9 295.55 215.35 296.65 215.85 296.65 216.6 296.65 217.3 295.55 217.85 L293.75 218.35 293.15 218.7 256.35 239.3 256.1 239.75 M255.45 240.85 Q244.4 260.6 231.9 281.7 233.3 280.25 233.3 280.6 M268.35 166.05 L268.5 167.1 269.45 171.4 M268.35 166.05 Q268.05 164.0 268.3 163.05 250.9 170.0 255.45 179.55 L255.45 179.6 255.75 180.15 Q256.55 181.65 257.95 183.3 L259.95 185.4 260.6 186.0 Q264.35 189.45 270.65 193.2 L273.05 194.6 275.1 195.45 279.0 197.1 279.05 197.1 M281.95 152.25 Q270.7 153.35 268.3 163.05 M278.55 178.9 L279.3 175.6 Q280.75 170.1 283.35 166.65 285.95 163.1 288.15 163.7 290.3 164.35 290.8 168.6 291.3 172.95 289.8 178.45 289.05 181.3 288.0 183.6 M283.85 196.25 Q284.15 198.1 284.55 199.35 M300.05 183.0 L300.5 175.95 Q300.7 172.35 301.95 169.7 303.15 167.0 304.4 167.0 305.6 167.0 306.5 169.45 307.45 171.75 307.45 175.05 307.45 177.8 306.85 179.85 M305.4 156.65 L304.8 160.05 M313.05 169.55 L313.05 169.5 M302.45 149.35 L303.05 150.85 M303.05 154.85 L302.45 149.35 M312.65 173.95 L313.05 169.55 M290.2 200.8 L292.05 198.6 M292.95 218.35 L290.5 218.0 290.3 217.85 Q289.5 217.45 289.5 215.95 L289.2 216.6 289.4 215.95 M293.75 218.35 L292.95 218.35 M271.35 198.15 L270.3 200.35 268.55 204.0 M271.35 198.15 L270.95 198.9 269.75 201.1 Q246.95 243.6 218.25 280.1 218.7 279.6 220.25 279.2 L222.6 278.8 224.45 278.7 228.3 277.75 229.85 277.7 229.7 278.95 231.05 279.2 Q232.35 279.5 231.9 281.7 L231.05 281.95 225.7 282.5 220.25 281.95 Q218.0 281.4 218.0 280.6 L218.1 280.3 218.25 280.1 M257.75 229.95 L261.25 229.0 262.2 228.7 M257.65 229.95 L257.75 229.95 M256.85 230.15 L257.65 229.95 M250.75 242.4 L256.35 239.3 M229.85 277.7 L230.3 275.1 231.1 272.7 M273.05 194.6 L271.35 198.15" fill="none" stroke="#333300" stroke-linecap="round" stroke-linejoin="round" stroke-opacity="0.6509804" stroke-width="1.0"/>
    <path d="M269.95 204.7 L272.45 200.0 275.1 195.45 M269.75 201.1 L270.3 200.35" fill="none" stroke="#522f0c" stroke-linecap="round" stroke-linejoin="round" stroke-width="1.0"/>
    <path d="M257.75 229.95 L259.65 227.0 270.95 210.0 273.35 206.4 M232.35 269.6 Q236.15 261.35 244.65 253.7 L255.45 240.85 M231.1 272.7 Q231.45 271.6 232.15 270.0 L232.35 269.6" fill="none" stroke="#693a0e" stroke-linecap="round" stroke-linejoin="round" stroke-width="1.0"/>
    <path d="M256.1 239.75 L255.45 240.85" fill="none" stroke="#ad6116" stroke-linecap="round" stroke-linejoin="round" stroke-width="1.0"/>
    <path d="M295.25 186.6 L289.4 186.0 Q290.2 183.8 291.3 182.1 292.85 179.85 294.0 180.15 295.2 180.5 295.4 183.2 L295.25 186.6" fill="#ffffff" fill-rule="evenodd" stroke="none"/>
    <path d="M289.4 186.0 L295.25 186.6 294.6 189.6 Q293.65 193.2 292.1 195.45 290.55 197.8 289.4 197.45 288.15 197.15 288.0 194.35 287.85 191.65 288.8 188.05 L289.4 186.0" fill="#000000" fill-rule="evenodd" stroke="none"/>
    <path d="M289.4 186.0 L295.25 186.6 295.4 183.2 Q295.2 180.5 294.0 180.15 292.85 179.85 291.3 182.1 290.2 183.8 289.4 186.0 L288.8 188.05 Q287.85 191.65 288.0 194.35 288.15 197.15 289.4 197.45 290.55 197.8 292.1 195.45 293.65 193.2 294.6 189.6 L295.25 186.6" fill="none" stroke="#333300" stroke-linecap="round" stroke-linejoin="round" stroke-opacity="0.6509804" stroke-width="0.25"/>
  </g>
</svg>
