<?xml version="1.0" encoding="UTF-8" standalone="no"?>
<svg xmlns:xlink="http://www.w3.org/1999/xlink" height="31.85px" width="37.65px" xmlns="http://www.w3.org/2000/svg">
  <g transform="matrix(1.0, 0.0, 0.0, 1.0, -14.25, -10.2)">
    <path d="M45.75 37.05 Q46.65 34.7 44.75 31.65 L44.75 31.5 Q44.2 26.75 39.8 23.45 35.35 20.1 33.35 19.55 29.35 17.1 25.5 16.25 L25.0 16.15 Q21.3 15.55 19.25 16.85 L19.15 16.55 19.15 16.45 Q21.25 13.8 26.5 14.85 L26.55 14.85 Q31.9 16.05 37.5 20.35 42.55 24.3 45.1 28.9 L45.55 29.75 Q48.0 34.75 45.95 37.5 L45.65 37.45 45.75 37.05" fill="url(#gradient0)" fill-rule="evenodd" stroke="none"/>
    <path d="M25.0 16.15 L25.5 16.25 Q29.35 17.1 33.35 19.55 35.35 20.1 39.8 23.45 44.2 26.75 44.75 31.5 L44.75 31.65 Q46.65 34.7 45.75 37.05 L44.8 38.55 43.85 39.0 Q43.9 36.95 42.5 34.15 40.05 29.1 34.5 24.75 28.9 20.45 23.5 19.25 20.35 18.65 18.35 19.35 L19.0 17.05 19.25 16.85 Q21.3 15.55 25.0 16.15" fill="url(#gradient1)" fill-rule="evenodd" stroke="none"/>
    <path d="M45.95 37.5 Q48.0 34.75 45.55 29.75 L45.1 28.9 Q42.55 24.3 37.5 20.35 31.9 16.05 26.55 14.85 L26.5 14.85 Q21.25 13.8 19.15 16.45 L16.95 14.4 Q18.65 12.15 21.6 11.8 20.55 10.55 15.7 11.85 L15.15 12.75 14.75 12.4 Q17.65 9.2 24.45 10.65 31.7 12.2 39.25 18.05 46.75 23.95 50.1 30.7 53.45 37.45 50.6 41.2 L50.35 41.55 45.95 37.55 45.95 37.5" fill="#fffebd" fill-rule="evenodd" stroke="none"/>
    <path d="M45.95 37.5 Q48.0 34.75 45.55 29.75 L45.1 28.9 Q42.55 24.3 37.5 20.35 31.9 16.05 26.55 14.85 L26.5 14.85 Q21.25 13.8 19.15 16.45 M19.25 16.85 Q21.3 15.55 25.0 16.15 M44.8 38.55 L43.85 39.0 Q43.9 36.95 42.5 34.15 40.05 29.1 34.5 24.75 28.9 20.45 23.5 19.25 20.35 18.65 18.35 19.35 M19.0 17.05 L19.25 16.85 M45.95 37.5 L45.95 37.55" fill="none" stroke="#739a3d" stroke-linecap="round" stroke-linejoin="round" stroke-opacity="0.101960786" stroke-width="1.0"/>
    <path d="M19.15 16.45 L19.15 16.55 M18.35 19.35 L19.0 17.05 M14.75 12.4 L15.15 12.75 M16.95 14.4 L19.15 16.45 M45.95 37.55 L50.35 41.55" fill="none" stroke="#000000" stroke-linecap="round" stroke-linejoin="round" stroke-opacity="0.101960786" stroke-width="1.0"/>
  </g>
  <defs>
    <linearGradient gradientTransform="matrix(-0.0167, -0.0123, 0.0032, -0.0044, 34.75, 23.9)" gradientUnits="userSpaceOnUse" id="gradient0" spreadMethod="pad" x1="-819.2" x2="819.2">
      <stop offset="0.0" stop-color="#d4d39d"/>
      <stop offset="1.0" stop-color="#858462"/>
    </linearGradient>
    <linearGradient gradientTransform="matrix(-0.0167, -0.0123, 0.0032, -0.0044, 32.75, 26.9)" gradientUnits="userSpaceOnUse" id="gradient1" spreadMethod="pad" x1="-819.2" x2="819.2">
      <stop offset="0.0" stop-color="#d4d39d"/>
      <stop offset="1.0" stop-color="#858462"/>
    </linearGradient>
  </defs>
</svg>
