<?xml version="1.0" encoding="UTF-8" standalone="no"?>
<svg xmlns:xlink="http://www.w3.org/1999/xlink" height="373.25px" width="411.2px" xmlns="http://www.w3.org/2000/svg">
  <g transform="matrix(1.0, 0.0, 0.0, 1.0, 0.5, 0.5)">
    <path d="M298.4 50.15 L18.75 365.9 Q3.25 383.35 0.0 352.95 L283.95 42.25 283.9 42.2 Q338.0 -21.95 390.55 11.45 434.35 39.35 380.55 99.8 368.55 112.75 365.0 91.3 403.4 48.25 372.9 28.5 338.8 5.7 302.35 45.4 300.3 47.6 298.4 50.15 300.3 47.6 302.35 45.4 L302.6 45.55 298.4 50.15" fill="#413411" fill-rule="evenodd" stroke="none"/>
    <path d="M302.35 45.4 Q338.8 5.7 372.9 28.5 403.4 48.25 365.0 91.3 368.55 112.75 380.55 99.8 434.35 39.35 390.55 11.45 338.0 -21.95 283.9 42.2 L283.95 42.25 0.0 352.95 Q3.25 383.35 18.75 365.9 L298.4 50.15 Q300.3 47.6 302.35 45.4 M302.6 45.55 L298.4 50.15" fill="none" stroke="#000033" stroke-linecap="round" stroke-linejoin="round" stroke-opacity="0.2784314" stroke-width="1.0"/>
  </g>
</svg>
