<?xml version="1.0" encoding="UTF-8" standalone="no"?>
<svg xmlns:xlink="http://www.w3.org/1999/xlink" height="208.75px" width="161.2px" xmlns="http://www.w3.org/2000/svg">
  <g transform="matrix(1.0, 0.0, 0.0, 1.0, -193.9, -74.95)">
    <path d="M353.75 280.5 Q352.75 282.2 351.35 283.0 L350.05 281.15 346.75 276.45 349.1 283.7 345.45 281.35 339.65 269.9 Q343.35 272.25 347.6 270.0 L353.75 280.5 M320.85 234.55 Q298.5 193.95 271.4 151.0 275.0 147.4 281.2 148.4 282.6 153.85 279.5 153.4 L327.5 235.55 Q324.5 236.15 320.85 234.55 M271.4 151.0 Q275.55 154.9 279.5 153.4 275.55 154.9 271.4 151.0" fill="#996600" fill-rule="evenodd" stroke="none"/>
    <path d="M339.65 269.9 L336.05 262.95 331.9 255.05 327.05 245.9 320.85 234.55 Q324.5 236.15 327.5 235.55 L331.95 243.2 333.6 246.0 Q331.95 245.8 330.35 244.7 L331.95 243.2 330.35 244.7 Q331.95 245.8 333.6 246.0 L338.95 255.15 Q334.75 256.75 331.9 255.05 334.75 256.75 338.95 255.15 L341.65 259.75 Q339.2 262.7 336.05 262.95 339.2 262.7 341.65 259.75 L347.6 270.0 Q343.35 272.25 339.65 269.9 M327.05 245.9 Q328.85 245.85 330.35 244.7 328.85 245.85 327.05 245.9" fill="#993300" fill-rule="evenodd" stroke="none"/>
    <path d="M330.65 234.3 L333.85 239.95 337.05 245.5 341.85 253.8 343.55 256.75 350.2 268.25 347.6 270.0 341.65 259.75 338.95 255.15 333.6 246.0 331.95 243.2 Q333.0 241.85 333.85 239.95 333.0 241.85 331.95 243.2 L327.5 235.55 Q329.1 235.25 330.65 234.3 M337.05 245.5 Q335.35 246.25 333.6 246.0 335.35 246.25 337.05 245.5 M341.85 253.8 L338.95 255.15 341.85 253.8 M343.55 256.75 L341.65 259.75 343.55 256.75" fill="#cc3300" fill-rule="evenodd" stroke="none"/>
    <path d="M350.2 268.25 L355.1 276.85 Q354.6 279.05 353.75 280.5 L347.6 270.0 350.2 268.25 M350.05 281.15 L349.1 283.7 346.75 276.45 350.05 281.15 M281.2 148.4 L330.65 234.3 Q329.1 235.25 327.5 235.55 L279.5 153.4 Q282.6 153.85 281.2 148.4" fill="#d59a13" fill-rule="evenodd" stroke="none"/>
    <path d="M350.2 268.25 L355.1 276.85 Q354.6 279.05 353.75 280.5 352.75 282.2 351.35 283.0 L350.05 281.15 349.1 283.7 345.45 281.35 339.65 269.9 336.05 262.95 331.9 255.05 327.05 245.9 320.85 234.55 Q298.5 193.95 271.4 151.0 275.0 147.4 281.2 148.4 L330.65 234.3 333.85 239.95 337.05 245.5 341.85 253.8 343.55 256.75 350.2 268.25 347.6 270.0 Q343.35 272.25 339.65 269.9 M350.05 281.15 L346.75 276.45 349.1 283.7 M333.6 246.0 Q335.35 246.25 337.05 245.5 M331.95 243.2 L330.35 244.7 Q331.95 245.8 333.6 246.0 M338.95 255.15 L341.85 253.8 M331.95 243.2 Q333.0 241.85 333.85 239.95 M330.65 234.3 Q329.1 235.25 327.5 235.55 324.5 236.15 320.85 234.55 M330.35 244.7 Q328.85 245.85 327.05 245.9 M331.9 255.05 Q334.75 256.75 338.95 255.15 M341.65 259.75 L343.55 256.75 M341.65 259.75 Q339.2 262.7 336.05 262.95 M281.2 148.4 Q282.6 153.85 279.5 153.4 275.55 154.9 271.4 151.0" fill="none" stroke="#000000" stroke-linecap="round" stroke-linejoin="round" stroke-width="0.05"/>
    <path d="M278.0 152.05 Q278.3 154.25 278.95 156.3 L250.45 155.6 Q247.8 152.75 245.55 155.95 L224.55 151.9 Q206.75 139.4 195.35 125.7 191.25 119.05 198.7 119.5 L277.75 148.8 278.0 152.05 246.05 148.05 230.65 146.1 246.05 148.05 278.0 152.05 M207.1 133.4 L229.65 137.1 218.55 129.65 229.65 137.1 246.05 148.05 229.65 137.1 207.1 133.4" fill="url(#gradient0)" fill-rule="evenodd" stroke="none"/>
    <path d="M278.0 152.05 L246.05 148.05 230.65 146.1 M277.75 148.8 L198.7 119.5 Q191.25 119.05 195.35 125.7 206.75 139.4 224.55 151.9 L245.55 155.95 Q247.8 152.75 250.45 155.6 L278.95 156.3 M218.55 129.65 L229.65 137.1 246.05 148.05 M229.65 137.1 L207.1 133.4" fill="none" stroke="#000000" stroke-linecap="round" stroke-linejoin="round" stroke-opacity="0.4" stroke-width="0.05"/>
    <path d="M274.6 151.25 L277.3 153.05 280.45 155.9 293.45 134.5 Q292.3 131.15 296.1 131.05 L302.65 113.5 Q300.5 94.2 294.1 78.95 290.35 72.6 287.2 78.3 L274.6 151.25 M295.15 91.45 L287.55 109.95 286.45 98.0 287.55 109.95 289.05 127.5 287.55 109.95 295.15 91.45 M294.75 115.15 L289.05 127.5 277.3 153.05 289.05 127.5 294.75 115.15" fill="url(#gradient1)" fill-rule="evenodd" stroke="none"/>
    <path d="M274.6 151.25 L287.2 78.3 Q290.35 72.6 294.1 78.95 300.5 94.2 302.65 113.5 L296.1 131.05 Q292.3 131.15 293.45 134.5 L280.45 155.9 M277.3 153.05 L289.05 127.5 294.75 115.15 M286.45 98.0 L287.55 109.95 289.05 127.5 M287.55 109.95 L295.15 91.45" fill="none" stroke="#000000" stroke-linecap="round" stroke-linejoin="round" stroke-opacity="0.4" stroke-width="0.05"/>
    <path d="M274.95 149.95 L277.95 150.6 278.4 132.35 Q276.45 130.7 278.8 129.2 L276.55 115.8 Q268.15 104.4 258.6 97.15 253.95 94.45 254.0 99.25 L272.65 149.8 274.95 149.95 273.1 129.55 272.2 119.7 273.1 129.55 274.95 149.95 M263.8 104.65 L265.7 119.05 260.75 111.95 265.7 119.05 273.1 129.55 265.7 119.05 263.8 104.65" fill="url(#gradient2)" fill-rule="evenodd" stroke="none"/>
    <path d="M274.95 149.95 L273.1 129.55 272.2 119.7 M272.65 149.8 L254.0 99.25 Q253.95 94.45 258.6 97.15 268.15 104.4 276.55 115.8 L278.8 129.2 Q276.45 130.7 278.4 132.35 L277.95 150.6 M260.75 111.95 L265.7 119.05 273.1 129.55 M265.7 119.05 L263.8 104.65" fill="none" stroke="#000000" stroke-linecap="round" stroke-linejoin="round" stroke-opacity="0.4" stroke-width="0.05"/>
    <path d="M277.45 147.55 L276.6 149.95 276.0 153.2 258.7 147.25 Q257.95 144.7 255.6 146.55 L243.95 139.55 Q236.7 127.15 233.75 115.05 233.15 109.4 237.6 111.15 L277.45 147.55 M238.65 122.9 L251.4 129.85 246.8 122.35 251.4 129.85 258.25 140.9 251.4 129.85 238.65 122.9 M249.35 136.55 Q253.8 138.75 258.25 140.9 L276.6 149.95 258.25 140.9 Q253.8 138.75 249.35 136.55" fill="url(#gradient3)" fill-rule="evenodd" stroke="none"/>
    <path d="M277.45 147.55 L237.6 111.15 Q233.15 109.4 233.75 115.05 236.7 127.15 243.95 139.55 L255.6 146.55 Q257.95 144.7 258.7 147.25 L276.0 153.2 M276.6 149.95 L258.25 140.9 Q253.8 138.75 249.35 136.55 M246.8 122.35 L251.4 129.85 258.25 140.9 M251.4 129.85 L238.65 122.9" fill="none" stroke="#000000" stroke-linecap="round" stroke-linejoin="round" stroke-opacity="0.4" stroke-width="0.05"/>
    <path d="M231.45 100.75 L231.75 101.2 Q233.6 104.15 233.0 107.65 L232.2 110.3 Q231.2 112.25 229.25 113.6 226.2 115.8 222.4 115.05 220.3 114.6 218.7 113.4 227.65 108.3 218.95 101.15 221.85 96.55 231.25 100.95 L231.45 100.75" fill="#a9531f" fill-rule="evenodd" stroke="none"/>
    <path d="M218.7 113.4 L216.4 111.05 Q214.15 107.8 214.75 104.0 215.4 100.2 218.45 98.05 221.6 95.9 225.3 96.7 229.15 97.45 231.35 100.65 L231.25 100.95 Q221.85 96.55 218.95 101.15 227.65 108.3 218.7 113.4" fill="#fae3c1" fill-rule="evenodd" stroke="none"/>
    <path d="M231.35 100.65 L231.45 100.75 231.25 100.95 231.35 100.65" fill="url(#gradient4)" fill-rule="evenodd" stroke="none"/>
    <path d="M232.2 110.3 Q251.55 116.6 263.45 132.0 L277.3 154.05 M218.7 113.4 L216.4 111.05 Q214.15 107.8 214.75 104.0 215.4 100.2 218.45 98.05 221.6 95.9 225.3 96.7 229.15 97.45 231.35 100.65 L231.45 100.75 231.75 101.2 Q233.6 104.15 233.0 107.65 L232.2 110.3 Q231.2 112.25 229.25 113.6 226.2 115.8 222.4 115.05 220.3 114.6 218.7 113.4 Z" fill="none" stroke="#000000" stroke-linecap="round" stroke-linejoin="round" stroke-opacity="0.4" stroke-width="0.05"/>
    <path d="M271.4 82.1 Q271.95 84.0 271.55 86.1 270.85 90.0 267.65 92.25 265.6 93.65 263.35 93.9 L260.55 93.8 Q257.0 93.1 254.8 90.4 L254.55 90.05 254.8 89.8 Q254.15 79.45 259.6 78.15 263.15 88.85 271.4 82.1" fill="#a9531f" fill-rule="evenodd" stroke="none"/>
    <path d="M271.4 82.1 Q263.15 88.85 259.6 78.15 254.15 79.45 254.8 89.8 L254.45 89.85 Q252.2 86.65 252.9 82.75 253.6 78.95 256.85 76.65 260.05 74.4 263.9 75.1 267.75 75.85 270.0 79.1 271.0 80.5 271.4 82.1" fill="#fae3c1" fill-rule="evenodd" stroke="none"/>
    <path d="M254.8 89.8 L254.55 90.05 254.45 89.85 254.8 89.8" fill="url(#gradient5)" fill-rule="evenodd" stroke="none"/>
    <path d="M254.55 90.05 L254.8 90.4 Q257.0 93.1 260.55 93.8 L263.35 93.9 Q265.6 93.65 267.65 92.25 270.85 90.0 271.55 86.1 271.95 84.0 271.4 82.1 271.0 80.5 270.0 79.1 267.75 75.85 263.9 75.1 260.05 74.4 256.85 76.65 253.6 78.95 252.9 82.75 252.2 86.65 254.45 89.85 L254.55 90.05 M277.15 156.3 Q268.5 133.6 264.15 124.55 259.75 115.45 263.35 93.9" fill="none" stroke="#000000" stroke-linecap="round" stroke-linejoin="round" stroke-opacity="0.4" stroke-width="0.05"/>
    <path d="M279.25 154.1 Q281.6 153.0 283.7 150.85 L285.05 154.65 Q283.8 157.7 281.65 159.25 L279.25 154.1" fill="#cc3300" fill-rule="evenodd" stroke="none"/>
    <path d="M279.25 154.1 L281.65 159.25 Q279.8 160.6 277.35 160.85 273.35 158.7 274.35 155.25 276.95 155.15 279.25 154.1" fill="#993300" fill-rule="evenodd" stroke="none"/>
    <path d="M281.65 159.25 Q283.8 157.7 285.05 154.65 L283.7 150.85 Q281.6 153.0 279.25 154.1 276.95 155.15 274.35 155.25 273.35 158.7 277.35 160.85 279.8 160.6 281.65 159.25 Z" fill="none" stroke="#000000" stroke-linecap="round" stroke-linejoin="round" stroke-opacity="0.38039216" stroke-width="0.05"/>
    <path d="M282.55 159.3 Q284.9 158.2 287.0 156.1 L288.4 159.85 Q287.05 162.95 284.95 164.45 L282.55 159.3" fill="#cc3300" fill-rule="evenodd" stroke="none"/>
    <path d="M282.55 159.3 L284.95 164.45 Q283.1 165.8 280.6 166.05 276.65 163.9 277.6 160.5 280.25 160.35 282.55 159.3" fill="#993300" fill-rule="evenodd" stroke="none"/>
    <path d="M284.95 164.45 Q287.05 162.95 288.4 159.85 L287.0 156.1 Q284.9 158.2 282.55 159.3 280.25 160.35 277.6 160.5 276.65 163.9 280.6 166.05 283.1 165.8 284.95 164.45 Z" fill="none" stroke="#000000" stroke-linecap="round" stroke-linejoin="round" stroke-opacity="0.38039216" stroke-width="0.05"/>
  </g>
  <defs>
    <linearGradient gradientTransform="matrix(-0.0445, -0.0186, -0.0061, 0.0147, 231.15, 143.45)" gradientUnits="userSpaceOnUse" id="gradient0" spreadMethod="pad" x1="-819.2" x2="819.2">
      <stop offset="0.0" stop-color="#e1ca04"/>
      <stop offset="1.0" stop-color="#f8edb5"/>
    </linearGradient>
    <linearGradient gradientTransform="matrix(0.0053, -0.0421, 0.0155, 0.0028, 292.25, 114.2)" gradientUnits="userSpaceOnUse" id="gradient1" spreadMethod="pad" x1="-819.2" x2="819.2">
      <stop offset="0.0" stop-color="#e1ca04"/>
      <stop offset="1.0" stop-color="#f8edb5"/>
    </linearGradient>
    <linearGradient gradientTransform="matrix(-0.012, -0.0284, 0.0108, -0.0039, 270.25, 120.0)" gradientUnits="userSpaceOnUse" id="gradient2" spreadMethod="pad" x1="-819.2" x2="819.2">
      <stop offset="0.0" stop-color="#e1ca04"/>
      <stop offset="1.0" stop-color="#f8edb5"/>
    </linearGradient>
    <linearGradient gradientTransform="matrix(-0.0218, -0.022, -0.0081, 0.0095, 250.45, 134.75)" gradientUnits="userSpaceOnUse" id="gradient3" spreadMethod="pad" x1="-819.2" x2="819.2">
      <stop offset="0.0" stop-color="#e1ca04"/>
      <stop offset="1.0" stop-color="#f8edb5"/>
    </linearGradient>
    <linearGradient gradientTransform="matrix(0.0079, -5.0E-4, 0.0011, 0.0114, 225.25, 105.7)" gradientUnits="userSpaceOnUse" id="gradient4" spreadMethod="pad" x1="-819.2" x2="819.2">
      <stop offset="0.0" stop-color="#993300"/>
      <stop offset="1.0" stop-color="#f8edb5"/>
    </linearGradient>
    <linearGradient gradientTransform="matrix(-0.0035, 0.0074, 0.0105, 0.0049, 261.6, 85.7)" gradientUnits="userSpaceOnUse" id="gradient5" spreadMethod="pad" x1="-819.2" x2="819.2">
      <stop offset="0.0" stop-color="#993300"/>
      <stop offset="1.0" stop-color="#f8edb5"/>
    </linearGradient>
  </defs>
</svg>
