<?xml version="1.0" encoding="UTF-8" standalone="no"?>
<svg xmlns:xlink="http://www.w3.org/1999/xlink" height="48.5px" width="31.6px" xmlns="http://www.w3.org/2000/svg">
  <g transform="matrix(1.0, 0.0, 0.0, 1.0, -259.15, -176.2)">
    <path d="M281.45 177.1 L281.95 176.9 282.0 176.9 285.8 178.35 285.4 181.2 286.9 182.4 289.9 183.35 289.65 183.8 287.25 183.15 287.0 182.95 284.7 181.2 285.15 178.7 281.45 177.1" fill="#745f16" fill-rule="evenodd" stroke="none"/>
    <path d="M278.55 181.0 Q278.65 180.1 279.2 179.1 L279.65 178.6 Q282.6 178.65 283.5 180.4 L285.1 183.85 285.5 184.1 285.1 183.85 283.5 180.4 Q282.6 178.65 279.65 178.6 L281.45 177.1 285.15 178.7 284.7 181.2 287.0 182.95 287.25 183.15 289.65 183.8 289.4 184.2 288.9 184.9 287.05 186.35 285.5 187.0 283.1 186.9 284.25 185.0 280.05 185.15 279.75 184.6 279.0 183.4 Q278.35 182.3 278.55 181.0 280.8 181.05 282.45 182.45 L283.9 184.6 284.4 184.9 283.9 184.6 282.45 182.45 Q280.8 181.05 278.55 181.0 M285.5 184.1 L284.4 184.9 285.5 184.1 287.0 182.95 285.5 184.1 Q287.05 184.9 288.9 184.9 287.05 184.9 285.5 184.1 M278.8 186.7 L278.1 187.1 277.2 187.7 276.85 187.9 276.25 188.4 274.8 189.7 275.85 188.2 276.3 187.55 276.85 187.9 276.3 187.55 276.9 186.75 277.2 187.7 276.9 186.75 277.05 186.5 277.7 185.95 278.1 187.1 277.7 185.95 278.3 185.45 278.8 186.7 M272.4 191.85 Q271.4 193.1 270.6 194.8 L270.25 195.55 Q269.7 196.75 269.3 198.15 L268.7 200.25 268.75 199.95 269.1 197.9 269.3 198.15 269.1 197.9 269.65 194.85 269.75 194.05 270.0 193.85 272.05 192.1 272.4 191.85 M284.4 184.9 L284.25 185.0 284.4 184.9 Q285.05 186.1 287.05 186.35 285.05 186.1 284.4 184.9 M276.25 188.4 L275.85 188.2 276.25 188.4 M270.6 194.8 L270.0 193.85 270.6 194.8 M270.25 195.55 L269.9 195.0 269.65 194.85 269.9 195.0 270.25 195.55" fill="#e7d083" fill-rule="evenodd" stroke="none"/>
    <path d="M268.7 200.25 L268.3 201.0 267.55 202.3 266.85 203.6 266.3 203.15 265.75 202.75 265.45 202.55 264.9 202.05 266.15 199.45 266.55 198.6 267.75 196.05 267.95 195.65 268.6 194.3 269.05 193.3 269.75 191.8 269.75 193.75 269.75 194.05 269.65 194.85 268.6 194.3 269.65 194.85 269.1 197.9 267.95 195.65 269.1 197.9 268.75 199.95 268.7 200.25 M276.55 184.8 L277.2 184.45 277.75 184.1 278.3 185.45 277.7 185.95 277.05 186.5 276.55 184.8 M277.2 184.45 L277.7 185.95 277.2 184.45 M269.05 193.3 L269.75 193.75 269.05 193.3 M266.15 199.45 L267.2 200.25 265.75 202.75 267.2 200.25 266.15 199.45 M267.55 202.3 L267.25 201.65 266.3 203.15 267.25 201.65 267.55 202.3 M268.75 199.95 L267.75 196.05 268.75 199.95 M266.55 198.6 L267.65 199.2 268.3 201.0 267.65 199.2 266.55 198.6" fill="#faf5e4" fill-rule="evenodd" stroke="none"/>
    <path d="M274.8 189.7 L273.5 190.9 273.0 191.3 272.55 191.7 272.4 191.85 272.05 192.1 270.1 191.45 271.05 190.5 272.4 189.05 273.35 188.15 274.15 187.3 274.8 186.6 276.45 184.95 276.55 184.8 277.05 186.5 276.9 186.75 276.45 184.95 276.9 186.75 276.3 187.55 275.85 188.2 274.8 189.7 M269.75 191.8 L270.1 191.45 272.05 192.1 270.0 193.85 269.75 193.75 270.0 193.85 269.75 194.05 269.75 193.75 269.75 191.8 M274.8 186.6 L276.3 187.55 274.8 186.6 M273.0 191.3 L272.25 190.4 273.2 189.45 272.4 189.05 273.2 189.45 272.25 190.4 273.0 191.3 M273.35 188.15 L274.25 189.0 273.1 190.15 273.5 190.9 273.1 190.15 274.25 189.0 273.35 188.15 M274.15 187.3 L275.85 188.2 274.15 187.3 M271.05 190.5 L272.55 191.7 271.05 190.5" fill="#f2e7bf" fill-rule="evenodd" stroke="none"/>
    <path d="M277.75 184.1 L279.0 183.4 279.75 184.6 278.3 185.45 277.75 184.1" fill="#c4a026" fill-rule="evenodd" stroke="none"/>
    <path d="M280.55 185.95 Q279.65 186.25 278.8 186.7 L278.3 185.45 279.75 184.6 280.05 185.15 280.55 185.95" fill="#a68820" fill-rule="evenodd" stroke="none"/>
    <path d="M283.1 186.9 L280.55 185.95 280.05 185.15 284.25 185.0 283.1 186.9" fill="#dfc15b" fill-rule="evenodd" stroke="none"/>
    <path d="M282.0 176.85 L285.1 176.25 287.55 176.4 287.75 176.4 289.2 176.85 Q290.55 177.65 290.6 178.8 L290.7 179.3 290.65 181.0 289.9 183.35 286.9 182.4 285.4 181.2 285.8 178.35 282.0 176.9 282.0 176.85 M286.5 177.6 L285.1 176.25 286.5 177.6 287.75 176.45 286.5 177.6 285.8 178.35 286.5 177.6 287.6 180.05 Q289.05 181.45 290.65 181.0 289.05 181.45 287.6 180.05 L286.5 177.6 M287.75 176.4 L287.75 176.45 287.75 176.4 287.75 176.45 287.75 176.4 M287.75 176.45 Q288.5 178.45 290.7 179.3 288.5 178.45 287.75 176.45" fill="#efe0ae" fill-rule="evenodd" stroke="none"/>
    <path d="M266.85 203.6 L268.85 205.1 269.4 205.75 Q271.95 208.8 268.0 206.4 L265.45 204.4 262.95 202.45 262.25 201.9 Q260.0 199.2 262.9 200.6 L265.45 202.55 265.75 202.75 266.3 203.15 266.85 203.6" fill="#4a694a" fill-rule="evenodd" stroke="none"/>
    <path d="M264.1 224.1 L263.6 224.55 262.9 224.3 Q260.7 223.4 259.15 221.15 261.1 219.75 260.55 216.5 L260.75 215.95 260.95 215.05 Q260.95 214.4 260.55 213.5 261.35 212.5 260.6 210.4 261.75 209.85 261.5 207.7 262.65 207.4 262.5 206.0 L263.15 205.3 Q263.55 204.75 262.95 202.45 L265.45 204.4 Q266.05 206.15 264.5 206.9 265.05 208.4 263.65 208.95 264.25 210.55 262.65 211.5 263.3 213.75 262.2 214.3 263.2 216.3 261.7 216.95 L260.55 216.5 261.7 216.95 Q262.25 219.5 261.3 220.55 262.2 222.7 264.1 224.1 M264.5 206.9 L262.5 206.0 264.5 206.9 M260.55 213.5 L262.2 214.3 260.55 213.5 M262.65 211.5 L260.6 210.4 262.65 211.5 M263.65 208.95 L261.5 207.7 263.65 208.95" fill="#993300" fill-rule="evenodd" stroke="none"/>
    <path d="M268.0 206.4 Q266.3 206.3 266.4 207.8 L266.35 207.8 Q265.9 208.0 265.65 208.35 265.35 208.7 265.35 209.1 265.25 209.55 265.5 210.05 264.3 211.15 264.4 211.95 L264.75 212.65 264.8 212.65 Q263.5 214.55 264.4 215.35 L264.45 215.35 263.95 215.9 Q263.1 217.05 263.75 217.8 L264.05 218.1 Q262.55 219.35 263.7 220.25 L265.75 221.5 265.45 222.25 265.2 223.0 264.65 223.55 264.1 224.1 Q262.2 222.7 261.3 220.55 262.25 219.5 261.7 216.95 263.2 216.3 262.2 214.3 L264.4 215.35 262.2 214.3 Q263.3 213.75 262.65 211.5 264.25 210.55 263.65 208.95 265.05 208.4 264.5 206.9 L266.35 207.8 264.5 206.9 Q266.05 206.15 265.45 204.4 L268.0 206.4 M265.5 210.05 L263.65 208.95 265.5 210.05 M264.75 212.65 L262.65 211.5 264.75 212.65 M263.75 217.8 L261.7 216.95 263.75 217.8" fill="#5f1f00" fill-rule="evenodd" stroke="none"/>
    <path d="M265.45 222.25 Q267.5 223.85 270.15 224.5 L268.75 224.65 264.65 223.55 265.2 223.0 265.45 222.25" fill="#999999" fill-rule="evenodd" stroke="none"/>
    <path d="M268.75 224.65 L264.1 224.1 264.65 223.55 268.75 224.65" fill="#000000" fill-rule="evenodd" stroke="none"/>
    <path d="M279.65 178.6 L279.2 179.1 Q278.65 180.1 278.55 181.0 278.35 182.3 279.0 183.4 L277.75 184.1 277.2 184.45 276.55 184.8 276.45 184.95 274.8 186.6 274.15 187.3 273.35 188.15 272.4 189.05 271.05 190.5 270.1 191.45 269.75 191.8 269.05 193.3 268.6 194.3 267.95 195.65 267.75 196.05 266.55 198.6 266.15 199.45 264.9 202.05 265.45 202.55 265.75 202.75 266.3 203.15 266.85 203.6 268.85 205.1 269.4 205.75 Q271.95 208.8 268.0 206.4 266.3 206.3 266.4 207.8 L266.35 207.8 Q265.9 208.0 265.65 208.35 265.35 208.7 265.35 209.1 265.25 209.55 265.5 210.05 264.3 211.15 264.4 211.95 L264.75 212.65 264.8 212.65 Q263.5 214.55 264.4 215.35 L264.45 215.35 263.95 215.9 Q263.1 217.05 263.75 217.8 L264.05 218.1 Q262.55 219.35 263.7 220.25 L265.75 221.5 265.45 222.25 Q267.5 223.85 270.15 224.5 L268.75 224.65 264.1 224.1 263.6 224.55 262.9 224.3 Q260.7 223.4 259.15 221.15 261.1 219.75 260.55 216.5 L260.75 215.95 260.95 215.05 Q260.95 214.4 260.55 213.5 261.35 212.5 260.6 210.4 261.75 209.85 261.5 207.7 262.65 207.4 262.5 206.0 L263.15 205.3 Q263.55 204.75 262.95 202.45 L262.25 201.9 Q260.0 199.2 262.9 200.6 L265.45 202.55 M284.4 184.9 L285.5 184.1 287.0 182.95 287.25 183.15 289.65 183.8 289.4 184.2 288.9 184.9 287.05 186.35 285.5 187.0 283.1 186.9 280.55 185.95 Q279.65 186.25 278.8 186.7 L278.1 187.1 277.2 187.7 276.85 187.9 276.25 188.4 274.8 189.7 273.5 190.9 273.0 191.3 272.55 191.7 272.4 191.85 Q271.4 193.1 270.6 194.8 L270.25 195.55 Q269.7 196.75 269.3 198.15 L268.7 200.25 268.3 201.0 267.55 202.3 266.85 203.6 M279.65 178.6 L281.45 177.1 281.95 176.9 282.0 176.85 285.1 176.25 287.55 176.4 287.75 176.4 289.2 176.85 Q290.55 177.65 290.6 178.8 L290.7 179.3 290.65 181.0 289.9 183.35 289.65 183.8 M281.95 176.9 L282.0 176.9 285.8 178.35 286.5 177.6 287.75 176.45 287.75 176.4 M280.05 185.15 L279.75 184.6 279.0 183.4 M280.55 185.95 L280.05 185.15 284.25 185.0 284.4 184.9 M281.45 177.1 L285.15 178.7 284.7 181.2 287.0 182.95 M289.9 183.35 L286.9 182.4 285.4 181.2 285.8 178.35 M283.1 186.9 L284.25 185.0 M265.45 204.4 L262.95 202.45 M266.35 207.8 L264.5 206.9 262.5 206.0 M263.65 208.95 L265.5 210.05 M262.65 211.5 L264.75 212.65 M265.45 204.4 L268.0 206.4 M264.4 215.35 L262.2 214.3 260.55 213.5 M261.7 216.95 L263.75 217.8 M264.1 224.1 L264.65 223.55 265.2 223.0 265.45 222.25 M261.7 216.95 L260.55 216.5 M261.5 207.7 L263.65 208.95 M260.6 210.4 L262.65 211.5" fill="none" stroke="#000000" stroke-linecap="round" stroke-linejoin="round" stroke-opacity="0.4" stroke-width="0.05"/>
    <path d="M278.55 181.0 Q280.8 181.05 282.45 182.45 L283.9 184.6 284.4 184.9 Q285.05 186.1 287.05 186.35 M285.5 184.1 L285.1 183.85 283.5 180.4 Q282.6 178.65 279.65 178.6 M277.7 185.95 L277.2 184.45 M277.7 185.95 L278.1 187.1 M276.45 184.95 L276.9 186.75 277.2 187.7 M276.3 187.55 L274.8 186.6 M276.3 187.55 L276.85 187.9 M275.85 188.2 L276.25 188.4 M275.85 188.2 L274.15 187.3 M273.5 190.9 L273.1 190.15 274.25 189.0 273.35 188.15 M272.4 189.05 L273.2 189.45 272.25 190.4 273.0 191.3 M272.55 191.7 L271.05 190.5 M270.1 191.45 L272.05 192.1 M270.0 193.85 L270.6 194.8 M285.1 176.25 L286.5 177.6 287.6 180.05 Q289.05 181.45 290.65 181.0 M287.75 176.45 L287.75 176.4 M290.7 179.3 Q288.5 178.45 287.75 176.45 M288.9 184.9 Q287.05 184.9 285.5 184.1 M269.75 193.75 L270.0 193.85 M269.65 194.85 L269.9 195.0 270.25 195.55 M269.75 193.75 L269.05 193.3 M269.1 197.9 L269.3 198.15 M269.65 194.85 L268.6 194.3 M267.95 195.65 L269.1 197.9 M265.75 202.75 L267.2 200.25 266.15 199.45 M266.3 203.15 L267.25 201.65 267.55 202.3 M268.3 201.0 L267.65 199.2 266.55 198.6 M267.75 196.05 L268.75 199.95" fill="none" stroke="#513600" stroke-linecap="round" stroke-linejoin="round" stroke-opacity="0.21176471" stroke-width="0.05"/>
    <path d="M290.7 179.3 L290.65 181.0 Q289.05 181.45 287.6 180.05 L286.5 177.6 285.1 176.25 287.55 176.4 287.75 176.4 Q288.5 178.45 290.7 179.3 M279.2 179.1 L279.65 178.6 Q282.6 178.65 283.5 180.4 L285.1 183.85 285.5 184.1 Q287.05 184.9 288.9 184.9 L287.05 186.35 Q285.0 186.1 284.4 184.9 L283.9 184.6 282.45 182.45 Q280.8 181.05 278.55 181.0 278.65 180.1 279.2 179.1" fill="#003300" fill-opacity="0.3882353" fill-rule="evenodd" stroke="none"/>
    <path d="M266.15 199.45 L266.55 198.6 267.65 199.2 268.3 201.0 267.55 202.3 267.25 201.65 266.3 203.15 265.75 202.75 267.2 200.25 266.15 199.45 M269.1 197.9 L269.3 198.15 268.7 200.25 268.75 199.95 267.75 196.05 267.95 195.65 269.1 197.9 M270.6 194.8 L270.25 195.55 269.9 195.0 268.6 194.3 269.05 193.3 270.0 193.85 270.6 194.8 M273.35 188.15 L274.25 189.0 273.1 190.15 273.5 190.9 273.0 191.3 272.25 190.4 273.2 189.45 272.4 189.05 273.35 188.15 M274.15 187.3 L274.8 186.6 276.85 187.9 276.25 188.4 274.15 187.3 M277.2 184.45 L278.1 187.1 277.2 187.7 276.45 184.95 276.55 184.8 277.2 184.45 M270.1 191.45 L271.05 190.5 272.55 191.7 272.05 192.1 270.1 191.45" fill="#ffffff" fill-opacity="0.49803922" fill-rule="evenodd" stroke="none"/>
  </g>
</svg>
