<?xml version="1.0" encoding="UTF-8" standalone="no"?>
<svg xmlns:xlink="http://www.w3.org/1999/xlink" height="185.25px" width="186.35px" xmlns="http://www.w3.org/2000/svg">
  <g transform="matrix(1.0, 0.0, 0.0, 1.0, -174.35, -322.0)">
    <path d="M352.45 322.35 L356.15 322.3 356.95 328.45 357.0 329.05 357.3 333.5 357.5 340.65 352.7 340.65 352.6 336.15 352.55 330.1 356.3 329.15 352.6 328.95 352.5 328.4 352.45 322.35" fill="#e4cbb4" fill-rule="evenodd" stroke="none"/>
    <path d="M360.45 340.5 L268.9 427.25 259.6 436.0 Q252.85 438.8 247.9 438.0 L247.65 437.95 260.05 426.4 Q261.4 425.25 267.25 421.8 275.25 417.1 280.2 412.8 283.35 410.05 284.6 408.1 285.7 406.5 287.9 404.65 289.95 403.2 300.4 393.05 L311.75 381.5 Q312.9 380.0 318.65 375.1 L324.3 370.2 Q324.2 368.7 325.15 366.25 L331.65 360.15 333.75 358.35 338.65 353.6 347.1 345.85 347.65 349.45 Q357.55 340.95 357.5 340.65 L360.45 340.5 M289.85 378.85 L330.2 342.5 Q333.5 342.9 333.55 345.4 333.55 347.55 328.4 353.15 323.4 358.45 316.0 364.3 298.85 377.95 289.85 378.85 M352.6 328.95 L356.3 329.15 352.55 330.1 344.45 337.0 352.0 328.9 352.6 328.95 M345.7 351.05 L347.65 349.45 345.7 351.05 M325.25 369.25 L324.3 370.2 325.25 369.25 M246.3 427.8 L246.8 424.05 273.65 401.6 246.3 427.8 M268.9 427.25 Q264.5 430.05 256.05 436.75 L255.6 437.05 255.25 437.1 255.15 437.45 255.6 437.05 255.15 437.45 255.25 437.1 255.6 437.05 256.05 436.75 Q264.5 430.05 268.9 427.25 M270.8 422.8 L268.6 423.7 266.7 424.75 268.6 423.7 270.8 422.8 M264.9 426.25 Q256.15 432.45 251.8 437.55 256.15 432.45 264.9 426.25" fill="#c1874f" fill-rule="evenodd" stroke="none"/>
    <path d="M339.25 334.3 L352.45 322.35 352.5 328.4 352.0 328.9 344.45 337.0 352.55 330.1 352.6 336.15 352.7 340.65 347.1 345.85 338.65 353.6 Q341.35 350.75 341.9 348.9 342.15 347.8 341.9 346.4 L341.55 343.9 341.35 339.65 Q340.8 335.95 339.25 334.3 M356.15 322.3 L360.25 322.25 360.45 340.5 357.5 340.65 357.3 333.5 357.0 329.05 356.95 328.45 356.15 322.3 M253.15 412.15 L275.4 391.95 278.0 392.35 278.1 392.3 Q285.05 392.2 297.75 384.9 L304.4 380.85 Q314.65 374.25 325.25 365.5 L331.65 360.15 325.15 366.25 272.2 415.2 270.6 409.7 269.9 409.4 Q269.95 413.1 271.3 415.2 L260.05 426.4 247.65 437.95 Q246.85 436.15 246.45 434.1 246.0 431.25 246.3 427.8 L273.65 401.6 246.8 424.05 Q245.95 423.4 246.85 419.3 L250.35 416.8 Q253.2 414.7 253.15 412.15 M352.6 336.15 Q351.65 337.0 349.35 338.5 347.65 339.55 347.05 340.45 347.65 339.55 349.35 338.5 351.65 337.0 352.6 336.15 M278.0 392.35 L275.4 394.75 Q270.5 399.35 269.7 399.65 270.5 399.35 275.4 394.75 L278.0 392.35 M275.0 400.75 L274.9 400.55 274.85 400.6 273.65 401.6 274.85 400.6 274.9 400.55 275.0 400.75 275.25 401.7 275.15 405.55 276.3 404.5 275.8 401.3 275.0 400.75 274.85 400.6 275.0 400.75 M251.2 430.0 L249.1 432.05 246.45 434.1 249.1 432.05 251.2 430.0 M297.75 384.9 L276.3 404.5 297.75 384.9 M255.65 423.25 L269.9 409.4 255.65 423.25 M270.6 409.7 L275.15 405.55 270.6 409.7" fill="#d6ad87" fill-rule="evenodd" stroke="none"/>
    <path d="M256.25 441.15 L237.6 458.55 Q234.1 458.8 232.25 457.45 L235.4 460.15 236.7 461.15 236.15 462.0 217.65 478.6 214.75 478.65 Q212.0 479.1 208.4 477.35 L208.6 477.65 210.0 479.3 Q211.65 480.95 212.75 481.5 191.9 510.95 180.45 506.4 179.5 506.95 178.6 503.75 179.65 504.5 186.85 497.15 L188.65 495.7 Q188.85 495.5 189.2 495.35 L192.0 492.8 194.0 490.9 197.3 487.4 203.9 479.9 207.6 477.0 207.65 476.9 207.5 476.85 Q209.1 473.9 213.55 470.25 218.25 466.3 220.85 463.55 223.4 460.7 224.05 459.15 225.6 456.4 227.15 455.35 L227.8 455.15 228.75 454.65 229.4 454.05 233.6 449.9 233.15 450.4 235.95 448.35 238.4 446.4 240.2 445.0 242.1 443.65 243.6 442.65 245.6 441.35 Q247.35 442.5 249.3 442.4 L251.0 442.3 251.75 442.15 Q253.5 439.4 254.0 441.65 L255.85 440.8 256.25 441.15 M198.95 462.2 L199.25 461.9 203.45 461.75 203.45 462.45 203.45 462.75 203.0 462.8 203.4 463.3 203.45 463.9 202.75 463.6 202.15 463.3 Q202.2 461.45 198.95 462.2 M227.0 434.05 L227.6 433.45 229.8 433.45 229.25 435.25 228.9 436.75 228.3 436.95 Q227.9 436.95 227.85 436.2 L227.7 435.25 227.0 434.05 M245.9 415.1 L246.45 414.45 Q250.65 411.85 252.2 412.95 248.8 414.2 247.65 416.6 L246.65 415.8 245.9 415.1 M232.25 457.45 L231.3 456.5 232.25 457.45 M208.4 477.35 L207.65 476.9 208.4 477.35" fill="#984b01" fill-rule="evenodd" stroke="none"/>
    <path d="M259.6 436.0 L257.55 439.2 255.85 440.8 254.0 441.65 Q253.5 439.4 251.75 442.15 L251.0 442.3 248.75 439.25 247.9 438.0 Q252.85 438.8 259.6 436.0 M237.6 458.55 Q237.55 459.8 236.7 461.15 L235.4 460.15 232.25 457.45 Q234.1 458.8 237.6 458.55 M214.75 478.65 L212.8 481.45 212.75 481.5 Q211.65 480.95 210.0 479.3 L208.6 477.65 208.4 477.35 Q212.0 479.1 214.75 478.65 M178.6 503.75 Q178.45 505.35 177.85 504.35 L186.85 497.15 Q179.65 504.5 178.6 503.75" fill="#7e4001" fill-rule="evenodd" stroke="none"/>
    <path d="M174.6 494.25 Q174.25 487.3 179.45 480.7 L198.75 462.4 198.9 462.25 198.95 462.2 Q202.2 461.45 202.15 463.3 L199.55 464.9 Q195.75 467.25 189.25 473.8 187.0 476.05 183.75 478.15 181.65 479.6 180.4 481.15 179.05 482.65 177.4 486.5 175.75 490.3 174.6 494.25 M203.45 461.75 Q203.2 458.55 205.95 456.25 L227.0 434.05 227.7 435.25 Q226.2 436.05 224.95 438.75 223.1 442.5 218.95 445.5 215.95 447.7 204.35 460.5 204.05 461.25 204.35 461.95 L203.45 462.45 203.45 461.75 M229.8 433.45 L231.55 430.65 245.2 415.75 245.9 415.1 246.65 415.8 247.65 416.6 247.65 416.65 247.4 417.25 246.85 419.3 Q245.95 423.4 246.8 424.05 L246.3 427.8 Q246.0 431.25 246.45 434.1 246.85 436.15 247.65 437.95 L247.9 438.0 248.75 439.25 251.0 442.3 249.3 442.4 Q247.35 442.5 245.6 441.35 L245.5 441.3 244.5 440.55 244.0 439.5 Q243.7 438.4 244.7 437.4 L243.55 435.2 Q243.15 434.65 243.1 433.1 L243.15 432.05 Q243.2 431.35 243.4 431.05 242.95 425.25 243.9 420.45 L238.1 425.75 Q234.05 429.2 231.35 432.55 L229.25 435.25 229.8 433.45 M243.9 420.45 Q244.35 418.0 245.2 415.75 244.35 418.0 243.9 420.45" fill="#e77607" fill-rule="evenodd" stroke="none"/>
    <path d="M252.2 412.95 L253.15 412.15 Q253.2 414.7 250.35 416.8 L246.85 419.3 247.4 417.25 247.65 416.65 247.65 416.6 Q248.8 414.2 252.2 412.95 M352.7 340.65 L357.5 340.65 Q357.55 340.95 347.65 349.45 L347.1 345.85 352.7 340.65 M325.15 366.25 Q324.2 368.7 324.3 370.2 L318.65 375.1 Q312.9 380.0 311.75 381.5 L300.4 393.05 Q289.95 403.2 287.9 404.65 285.7 406.5 284.6 408.1 283.35 410.05 280.2 412.8 275.25 417.1 267.25 421.8 261.4 425.25 260.05 426.4 L271.3 415.2 Q269.95 413.1 269.9 409.4 L270.6 409.7 272.2 415.2 271.3 415.2 272.2 415.2 325.15 366.25 M275.0 400.75 L275.8 401.3 276.3 404.5 275.15 405.55 275.25 401.7 275.0 400.75" fill="#b77a40" fill-rule="evenodd" stroke="none"/>
    <path d="M330.2 342.5 L339.25 334.3 Q340.8 335.95 341.35 339.65 L341.55 343.9 341.9 346.4 Q342.15 347.8 341.9 348.9 341.35 350.75 338.65 353.6 L331.65 360.15 325.25 365.5 Q314.65 374.25 304.4 380.85 L297.75 384.9 Q285.05 392.2 278.1 392.3 L278.0 392.35 275.4 391.95 289.85 378.85 Q298.85 377.95 316.0 364.3 323.4 358.45 328.4 353.15 333.55 347.55 333.55 345.4 333.5 342.9 330.2 342.5" fill="#ca9868" fill-rule="evenodd" stroke="none"/>
    <path d="M244.0 439.5 L244.5 440.55 245.5 441.3 245.6 441.35 243.6 442.65 242.1 443.65 240.2 445.0 238.4 446.4 235.95 448.35 233.15 450.4 233.6 449.9 Q236.35 446.4 237.1 445.8 L239.25 443.35 241.5 441.55 244.0 439.5" fill="#7c3e00" fill-rule="evenodd" stroke="none"/>
    <path d="M177.85 504.35 Q174.8 499.2 174.6 494.25 175.75 490.3 177.4 486.5 179.05 482.65 180.4 481.15 181.65 479.6 183.75 478.15 187.0 476.05 189.25 473.8 195.75 467.25 199.55 464.9 L202.15 463.3 202.75 463.6 203.45 463.9 203.4 463.3 203.0 462.8 203.45 462.75 203.45 462.45 204.35 461.95 Q204.05 461.25 204.35 460.5 215.95 447.7 218.95 445.5 223.1 442.5 224.95 438.75 226.2 436.05 227.7 435.25 L227.85 436.2 Q227.9 436.95 228.3 436.95 L228.9 436.75 229.25 435.25 231.35 432.55 Q234.05 429.2 238.1 425.75 L243.9 420.45 Q242.95 425.25 243.4 431.05 243.2 431.35 243.15 432.05 L243.1 433.1 Q243.15 434.65 243.55 435.2 L244.7 437.4 Q243.7 438.4 244.0 439.5 L241.5 441.55 239.25 443.35 237.1 445.8 Q236.35 446.4 233.6 449.9 L229.4 454.05 228.75 454.65 227.8 455.15 227.15 455.35 Q225.6 456.4 224.05 459.15 223.4 460.7 220.85 463.55 218.25 466.3 213.55 470.25 209.1 473.9 207.5 476.85 L207.6 477.0 203.9 479.9 197.3 487.4 194.0 490.9 192.0 492.8 189.2 495.35 Q188.85 495.5 188.65 495.7 L186.85 497.15 177.85 504.35 M227.65 447.55 L227.6 441.8 228.9 436.75 227.6 441.8 227.65 447.55 M203.4 463.3 L203.45 462.75 203.4 463.3 M205.2 472.75 Q203.55 470.2 203.45 463.9 203.55 470.2 205.2 472.75" fill="url(#gradient0)" fill-rule="evenodd" stroke="none"/>
    <path d="M207.6 477.0 L207.5 476.85 207.65 476.9 207.6 477.0" fill="url(#gradient1)" fill-rule="evenodd" stroke="none"/>
    <path d="M330.2 342.5 L339.25 334.3 352.45 322.35 356.15 322.3 360.25 322.25 360.45 340.5 268.9 427.25 259.6 436.0 257.55 439.2 256.25 441.15 237.6 458.55 Q237.55 459.8 236.7 461.15 L236.15 462.0 217.65 478.6 214.75 478.65 212.8 481.45 M212.75 481.5 Q191.9 510.95 180.45 506.4 179.5 506.95 178.6 503.75 178.45 505.35 177.85 504.35 174.8 499.2 174.6 494.25 174.25 487.3 179.45 480.7 L198.75 462.4 M198.9 462.25 L198.95 462.2 199.25 461.9 203.45 461.75 Q203.2 458.55 205.95 456.25 L227.0 434.05 227.6 433.45 229.8 433.45 231.55 430.65 245.2 415.75 245.9 415.1 246.45 414.45 Q250.65 411.85 252.2 412.95 L253.15 412.15 275.4 391.95 289.85 378.85 330.2 342.5 Q333.5 342.9 333.55 345.4 333.55 347.55 328.4 353.15 323.4 358.45 316.0 364.3 298.85 377.95 289.85 378.85 M356.15 322.3 L356.95 328.45 357.0 329.05 357.3 333.5 357.5 340.65 360.45 340.5 M352.45 322.35 L352.5 328.4 352.6 328.95 356.3 329.15 352.55 330.1 352.6 336.15 352.7 340.65 357.5 340.65 Q357.55 340.95 347.65 349.45 L345.7 351.05 M352.5 328.4 L352.0 328.9 352.6 328.95 M347.05 340.45 Q347.65 339.55 349.35 338.5 351.65 337.0 352.6 336.15 M347.1 345.85 L352.7 340.65 M352.0 328.9 L344.45 337.0 352.55 330.1 M331.65 360.15 L333.75 358.35 338.65 353.6 331.65 360.15 325.15 366.25 272.2 415.2 270.6 409.7 269.9 409.4 255.65 423.25 M324.3 370.2 L325.25 369.25 M338.65 353.6 Q341.35 350.75 341.9 348.9 342.15 347.8 341.9 346.4 L341.55 343.9 341.35 339.65 Q340.8 335.95 339.25 334.3 M338.65 353.6 L347.1 345.85 M260.05 426.4 Q261.4 425.25 267.25 421.8 275.25 417.1 280.2 412.8 283.35 410.05 284.6 408.1 285.7 406.5 287.9 404.65 289.95 403.2 300.4 393.05 L311.75 381.5 Q312.9 380.0 318.65 375.1 L324.3 370.2 M275.4 391.95 L278.0 392.35 278.1 392.3 Q285.05 392.2 297.75 384.9 L304.4 380.85 Q314.65 374.25 325.25 365.5 L331.65 360.15 M269.7 399.65 Q270.5 399.35 275.4 394.75 L278.0 392.35 M246.85 419.3 L247.4 417.25 247.65 416.65 M246.8 424.05 Q245.95 423.4 246.85 419.3 L250.35 416.8 Q253.2 414.7 253.15 412.15 M245.2 415.75 Q244.35 418.0 243.9 420.45 M244.5 440.55 L245.5 441.3 245.6 441.35 Q247.35 442.5 249.3 442.4 L251.0 442.3 251.75 442.15 Q253.5 439.4 254.0 441.65 L255.85 440.8 257.55 439.2 M247.9 438.0 L247.65 437.95 Q246.85 436.15 246.45 434.1 246.0 431.25 246.3 427.8 L246.8 424.05 273.65 401.6 274.85 400.6 274.9 400.55 275.0 400.75 275.8 401.3 276.3 404.5 297.75 384.9 M246.45 434.1 L249.1 432.05 251.2 430.0 M255.6 437.05 L255.15 437.45 255.25 437.1 255.6 437.05 256.05 436.75 Q264.5 430.05 268.9 427.25 M247.65 437.95 L260.05 426.4 271.3 415.2 Q269.95 413.1 269.9 409.4 M247.65 416.6 Q248.8 414.2 252.2 412.95 M275.0 400.75 L275.25 401.7 275.15 405.55 276.3 404.5 M274.85 400.6 L275.0 400.75 M272.2 415.2 L271.3 415.2 M275.15 405.55 L270.6 409.7 M266.7 424.75 L268.6 423.7 270.8 422.8 M273.65 401.6 L246.3 427.8 M251.8 437.55 Q256.15 432.45 264.9 426.25 M247.9 438.0 Q252.85 438.8 259.6 436.0 M203.45 463.9 L203.4 463.3 203.45 462.75 203.45 462.45 203.45 461.75 M203.9 479.9 L207.6 477.0 207.65 476.9 208.4 477.35 Q212.0 479.1 214.75 478.65 M186.85 497.15 Q179.65 504.5 178.6 503.75 M231.3 456.5 L232.25 457.45 Q234.1 458.8 237.6 458.55 M228.9 436.75 L229.25 435.25 229.8 433.45 M228.9 436.75 L227.6 441.8 227.65 447.55 M203.45 463.9 Q203.55 470.2 205.2 472.75" fill="none" stroke="#663333" stroke-linecap="round" stroke-linejoin="round" stroke-opacity="0.47058824" stroke-width="0.5"/>
    <path d="M244.7 437.4 Q243.7 438.4 244.0 439.5 L244.5 440.55" fill="none" stroke="#f9a653" stroke-linecap="round" stroke-linejoin="round" stroke-opacity="0.47058824" stroke-width="0.5"/>
    <path d="M243.9 420.45 Q242.95 425.25 243.4 431.05 M243.55 435.2 L244.7 437.4" fill="none" stroke="#f9a653" stroke-linecap="round" stroke-linejoin="round" stroke-opacity="0.38039216" stroke-width="0.5"/>
  </g>
  <defs>
    <linearGradient gradientTransform="matrix(0.0068, -0.0166, 0.0245, 0.0101, 221.4, 437.2)" gradientUnits="userSpaceOnUse" id="gradient0" spreadMethod="pad" x1="-819.2" x2="819.2">
      <stop offset="0.0" stop-color="#c46200"/>
      <stop offset="1.0" stop-color="#ed7c0b"/>
    </linearGradient>
    <linearGradient gradientTransform="matrix(-0.0029, -0.0215, 0.0475, -0.0063, 207.7, 446.25)" gradientUnits="userSpaceOnUse" id="gradient1" spreadMethod="pad" x1="-819.2" x2="819.2">
      <stop offset="0.0" stop-color="#c46200"/>
      <stop offset="1.0" stop-color="#ed7c0b"/>
    </linearGradient>
  </defs>
</svg>
