<?xml version="1.0" encoding="UTF-8" standalone="no"?>
<svg xmlns:xlink="http://www.w3.org/1999/xlink" height="49.55px" width="40.85px" xmlns="http://www.w3.org/2000/svg">
  <g transform="matrix(1.0, 0.0, 0.0, 1.0, -249.6, -179.0)">
    <path d="M277.15 198.8 L277.95 197.7 279.8 194.75 Q276.9 200.95 273.85 204.35 L273.8 204.45 273.55 204.8 273.5 204.75 Q268.1 207.4 266.75 212.3 265.9 213.65 264.8 212.95 L264.8 212.9 259.6 220.15 254.55 227.25 254.55 227.3 254.35 227.75 Q254.05 228.1 253.35 228.05 L252.45 228.0 251.6 227.7 Q250.7 227.2 250.3 226.65 249.9 226.0 250.25 225.5 L250.4 225.35 250.55 225.15 250.6 225.15 Q262.0 215.55 264.15 211.25 264.35 210.5 265.85 210.55 266.45 208.15 272.8 203.4 274.2 202.5 276.0 200.35 L277.15 198.8 Z" fill="none" stroke="#000000" stroke-linecap="round" stroke-linejoin="round" stroke-width="1.0"/>
    <path d="M265.55 213.1 L265.0 212.85 264.95 212.85 261.5 217.85 260.55 219.05 259.8 220.15 259.15 220.95 258.85 221.35 258.6 221.75 256.8 224.2 254.75 227.1 254.75 227.25 254.7 227.35 254.6 227.65 254.5 227.65 Q254.2 228.0 253.5 228.0 L253.45 228.0 253.05 228.0 252.6 227.9 252.25 227.75 251.8 227.6 251.2 227.25 250.5 226.6 250.25 226.1 251.15 226.65 251.35 226.7 251.95 226.9 252.4 226.95 252.8 227.0 Q253.55 227.05 253.85 226.7 L253.9 226.65 254.1 226.2 254.1 226.0 254.4 226.25 254.4 226.35 254.45 226.3 254.5 226.3 254.55 226.5 254.65 226.65 256.4 224.1 258.2 221.65 258.75 220.85 259.1 220.4 259.65 219.7 260.15 219.0 261.1 217.75 264.8 212.4 264.85 212.4 Q265.85 213.1 266.65 212.0 L266.95 212.2 267.0 212.25 Q266.3 213.25 265.55 213.1 M261.15 216.3 L261.15 216.35 261.0 216.45 261.25 216.3 261.15 216.3 M252.2 225.05 L252.95 224.85 Q253.75 224.45 254.1 223.5 254.6 222.8 255.45 222.15 L255.2 222.5 255.05 222.7 255.0 222.7 254.3 223.55 254.15 223.85 254.0 224.1 252.9 224.95 252.4 225.1 252.5 225.1 252.55 225.1 252.85 225.25 253.1 225.65 253.0 225.85 252.8 225.45 252.35 225.1 252.3 225.05 252.2 225.05 M256.75 221.8 L256.9 221.6 256.75 221.8" fill="#6f4335" fill-rule="evenodd" stroke="none"/>
    <path d="M267.0 212.25 Q266.35 213.3 265.55 213.1 266.3 213.25 267.0 212.25 L266.95 212.2 267.0 212.25 M265.0 212.85 L259.85 220.15 259.2 220.95 258.6 221.75 Q255.8 225.6 254.75 227.25 L254.75 227.1 256.8 224.2 258.6 221.75 258.85 221.35 259.15 220.95 259.8 220.15 260.55 219.05 261.5 217.85 264.95 212.85 265.0 212.85 M266.0 211.6 L266.05 211.65 265.55 212.3 266.4 211.85 266.65 212.0 Q265.85 213.1 264.85 212.4 L264.8 212.4 261.1 217.75 260.15 219.0 259.65 219.7 259.1 220.4 258.75 220.85 258.2 221.65 256.4 224.1 254.65 226.65 254.55 226.5 254.5 226.3 255.35 225.0 Q255.1 224.6 255.95 223.1 L256.75 221.8 256.95 221.6 Q255.8 223.7 256.2 223.65 L256.35 223.55 257.9 221.5 258.4 220.8 259.5 219.3 262.0 215.95 261.05 216.45 261.15 216.35 261.15 216.3 Q262.45 215.35 264.6 212.2 L264.7 212.05 264.75 212.05 264.9 212.15 Q265.5 212.1 266.0 211.6 M253.1 225.65 L252.85 225.25 252.55 225.1 252.5 225.1 252.4 225.1 252.9 224.95 254.0 224.1 253.3 225.5 253.1 225.65 M254.15 223.85 L254.3 223.55 255.0 222.7 254.15 223.85" fill="#8e5846" fill-rule="evenodd" stroke="none"/>
    <path d="M250.6 225.3 L250.75 225.05 250.8 225.1 252.0 224.1 Q252.7 223.4 253.4 222.85 L255.5 221.0 256.3 220.3 Q262.75 214.25 264.35 211.2 264.45 210.9 264.7 210.75 L266.0 211.6 Q265.5 212.1 264.9 212.15 L264.75 212.05 264.7 212.05 264.6 212.2 Q262.45 215.35 261.15 216.3 L261.25 216.3 261.0 216.45 261.15 216.35 261.05 216.45 262.0 215.95 259.5 219.3 258.4 220.8 257.9 221.5 256.35 223.55 256.2 223.65 Q255.8 223.7 256.95 221.6 L256.75 221.8 255.95 223.1 Q255.1 224.6 255.35 225.0 L254.5 226.3 254.45 226.3 254.4 226.35 254.4 226.25 254.1 226.0 253.3 225.5 254.0 224.1 254.15 223.85 255.0 222.7 255.05 222.7 255.2 222.5 255.45 222.15 Q254.6 222.8 254.1 223.5 253.75 224.45 252.95 224.85 L252.2 225.05 251.75 225.05 251.5 225.05 250.9 225.15 Q250.7 225.15 250.6 225.3 M266.4 211.85 L265.55 212.3 266.05 211.65 266.4 211.85 M256.75 221.8 L256.9 221.6 256.75 221.8" fill="#a86651" fill-rule="evenodd" stroke="none"/>
    <path d="M254.7 227.35 L254.6 227.6 254.6 227.65 254.7 227.35 M250.25 226.1 Q250.25 225.7 250.4 225.5 L250.45 225.45 250.6 225.3 Q250.7 225.15 250.9 225.15 L251.5 225.05 251.75 225.05 252.2 225.05 252.3 225.05 252.35 225.1 252.8 225.45 253.0 225.85 253.1 225.65 253.3 225.5 254.1 226.0 254.1 226.2 253.9 226.65 253.85 226.7 Q253.55 227.05 252.8 227.0 L252.4 226.95 251.95 226.9 251.35 226.7 251.15 226.65 250.25 226.1" fill="#85503f" fill-rule="evenodd" stroke="none"/>
    <path d="M274.6 202.05 L276.1 200.3 276.0 200.5 276.15 200.25 277.4 198.7 278.15 197.65 280.05 194.7 279.9 194.95 280.1 194.7 Q277.1 200.85 274.1 204.25 L274.0 204.4 273.75 204.65 273.7 204.7 273.55 204.8 Q268.3 207.4 267.0 212.25 L266.95 212.2 267.35 211.05 267.85 210.0 Q269.6 206.7 273.5 204.8 L273.55 204.8 273.5 204.8 Q269.6 206.7 267.85 210.0 L267.35 211.05 266.95 212.2 266.65 212.0 266.4 211.85 266.05 211.65 266.0 211.6 264.7 210.75 Q265.1 210.45 266.1 210.45 266.6 208.05 273.0 203.3 L273.65 202.85 274.5 202.15 274.6 202.05 M276.0 200.5 L273.6 204.15 Q273.35 204.7 273.5 204.8 273.35 204.7 273.6 204.15 L276.0 200.5" fill="#660000" fill-rule="evenodd" stroke="none"/>
    <path d="M274.6 202.05 L276.1 200.3 276.0 200.5 276.15 200.25 277.4 198.7 278.15 197.65 280.05 194.7 279.9 194.95 280.1 194.7 Q277.1 200.85 274.1 204.25 L274.0 204.4 273.75 204.65 273.7 204.7 273.55 204.8 Q268.3 207.4 267.0 212.25 266.35 213.3 265.55 213.1 L265.0 212.85 259.85 220.15 259.2 220.95 258.6 221.75 Q255.8 225.6 254.75 227.25 L254.7 227.35 254.6 227.65 254.5 227.65 M254.6 227.65 L254.55 227.7 Q254.25 228.05 253.5 228.0 L253.05 228.0 252.6 227.9 252.25 227.75 251.8 227.6 251.2 227.25 250.5 226.6 250.25 226.1 Q250.25 225.7 250.4 225.5 L250.45 225.45 250.6 225.3 250.75 225.05 250.8 225.1 252.0 224.1 Q252.7 223.4 253.4 222.85 L255.5 221.0 256.3 220.3 Q262.75 214.25 264.35 211.2 264.45 210.9 264.7 210.75 265.1 210.45 266.1 210.45 266.6 208.05 273.0 203.3 L273.65 202.85 274.5 202.15 M273.55 204.8 L273.5 204.8 Q269.6 206.7 267.85 210.0 L267.35 211.05 266.95 212.2 267.0 212.25 Q266.3 213.25 265.55 213.1 M273.5 204.8 Q273.35 204.7 273.6 204.15 L276.0 200.5 M254.75 227.25 L254.75 227.1 256.8 224.2 258.6 221.75 258.85 221.35 259.15 220.95 259.8 220.15 260.55 219.05 261.5 217.85 264.95 212.85 265.0 212.85 M252.3 225.05 L252.35 225.1" fill="none" stroke="#000000" stroke-linecap="round" stroke-linejoin="round" stroke-width="0.05"/>
    <path d="M281.9 203.75 Q280.35 206.95 287.45 203.45 L289.55 202.35 287.75 203.6 Q280.25 208.75 280.5 205.65 L280.7 205.45 Q281.2 206.8 282.9 206.15 281.7 206.5 281.2 204.95 L281.9 203.75 M278.4 202.9 L277.65 203.5 276.85 204.1 Q276.75 204.05 276.7 204.15 L276.15 204.65 275.9 204.55 275.95 204.5 Q271.75 205.65 272.45 205.05 273.4 204.8 276.4 203.1 L279.1 200.7 280.0 199.7 280.75 198.2 Q281.15 196.75 280.1 195.75 281.15 197.0 279.7 198.2 278.85 198.3 278.65 196.6 L278.65 194.8 278.75 194.25 278.9 192.95 278.2 194.85 Q277.7 196.6 277.75 198.05 L277.85 199.35 276.55 199.8 274.75 200.45 274.0 199.65 273.85 199.55 273.9 199.45 273.85 199.55 273.65 200.1 272.85 201.7 273.3 200.65 273.5 200.1 Q273.85 198.65 273.35 197.95 L272.85 197.45 Q269.25 194.1 271.9 191.5 L273.6 190.2 273.8 190.1 273.75 190.35 Q272.8 193.55 274.25 193.9 L274.1 195.1 274.15 195.1 273.65 195.15 Q272.6 194.8 272.85 192.9 L272.95 192.0 272.6 192.6 Q271.95 193.65 272.2 195.6 272.1 196.75 274.15 198.1 L273.9 199.45 274.15 199.45 275.55 199.05 276.75 198.45 Q277.45 197.75 277.4 196.75 L277.2 196.0 277.0 195.35 276.9 194.75 276.7 194.1 276.65 193.55 276.65 192.55 Q276.8 191.7 277.3 191.25 L277.5 191.15 Q278.05 190.65 279.0 190.7 L279.25 190.6 279.3 190.6 279.8 190.55 281.05 190.0 Q282.1 189.35 283.05 188.15 L283.75 187.05 284.1 186.5 285.45 182.7 286.25 179.0 286.05 183.25 285.85 184.8 285.6 185.95 285.15 187.45 Q286.3 187.9 287.5 188.75 L284.9 188.25 Q284.05 190.1 282.75 191.25 L281.7 192.15 281.1 192.55 280.9 192.9 Q280.7 193.3 280.65 193.8 L280.65 194.7 281.2 195.8 281.3 196.0 281.35 196.1 281.9 196.7 Q282.5 197.7 282.1 198.95 L281.15 200.45 280.35 201.35 278.4 202.9 M284.25 198.2 Q283.85 199.8 284.35 200.2 L284.55 200.3 Q285.65 200.6 288.6 198.2 L289.45 197.5 288.85 198.35 286.2 201.1 Q285.3 201.75 284.35 201.9 285.45 201.5 285.9 200.9 L286.0 200.65 Q285.8 200.7 285.65 200.85 284.6 201.2 283.55 200.0 L283.7 199.85 Q283.9 199.05 284.25 198.2" fill="#fe9225" fill-rule="evenodd" stroke="none"/>
    <path d="M281.2 204.95 Q281.7 206.5 282.9 206.15 281.2 206.8 280.7 205.45 L281.2 204.95 M272.45 205.05 Q271.6 205.25 272.15 204.45 L272.95 203.45 Q273.65 202.45 274.3 201.95 L275.35 201.05 274.75 200.45 276.55 199.8 277.85 199.35 277.75 198.05 Q277.7 196.6 278.2 194.85 L278.9 192.95 278.75 194.25 278.65 194.8 278.65 196.6 Q278.85 198.3 279.7 198.2 281.15 197.0 280.1 195.75 281.15 196.75 280.75 198.2 L280.0 199.7 279.1 200.7 276.4 203.1 Q273.4 204.8 272.45 205.05 M284.35 201.9 L283.3 201.7 283.05 201.55 283.55 200.0 Q284.6 201.2 285.65 200.85 285.8 200.7 286.0 200.65 L285.9 200.9 Q285.45 201.5 284.35 201.9 M274.15 198.1 Q272.1 196.75 272.2 195.6 271.95 193.65 272.6 192.6 L272.95 192.0 272.85 192.9 Q272.6 194.8 273.65 195.15 L274.15 195.1 Q274.0 195.75 274.0 196.45 L274.05 196.8 274.1 197.05 274.15 198.1" fill="#feb56b" fill-rule="evenodd" stroke="none"/>
    <path d="M281.9 203.75 L281.2 204.95 280.7 205.45 280.5 205.65 279.65 205.9 Q279.0 205.75 278.55 204.85 L278.05 203.45 278.35 202.95 Q280.2 206.55 281.75 202.6 L283.45 198.2 282.85 199.45 281.9 200.95 280.45 202.25 Q279.3 203.05 280.35 201.35 L281.15 200.45 282.1 198.95 Q282.5 197.7 281.9 196.7 L281.35 196.1 281.3 196.0 281.2 195.8 283.7 195.85 284.55 194.7 Q286.55 191.2 288.7 191.5 286.95 190.6 284.55 192.75 283.0 194.65 281.65 193.55 L280.9 192.9 281.1 192.55 281.7 192.15 281.9 192.6 Q282.75 193.75 283.55 192.4 286.85 187.95 290.45 192.3 287.1 191.4 285.35 194.85 L284.8 196.55 284.25 198.2 Q283.9 199.05 283.7 199.85 L283.55 200.0 283.05 201.55 281.9 203.75 M276.7 204.15 Q275.3 208.2 276.65 207.2 277.85 206.0 280.05 206.85 277.2 207.1 276.15 210.2 275.05 213.2 274.2 207.95 L274.7 207.15 Q274.65 209.0 275.35 209.05 276.5 208.95 276.65 207.9 L275.45 207.95 Q275.05 207.3 275.5 206.0 L276.7 204.15 M272.95 203.45 L271.25 203.85 271.95 202.9 272.7 201.95 272.85 201.7 273.65 200.1 273.85 199.55 274.0 199.65 274.75 200.45 275.35 201.05 274.3 201.95 Q273.65 202.45 272.95 203.45 M274.25 193.9 L274.85 191.55 275.55 189.95 Q276.7 187.65 278.8 185.85 275.2 192.0 278.1 189.2 L278.4 189.0 Q280.9 186.55 283.75 187.05 L283.05 188.15 Q281.05 188.3 281.05 190.0 L279.8 190.55 279.3 190.6 279.25 190.6 279.45 190.15 279.5 190.1 Q280.55 188.45 281.9 187.9 280.35 187.9 277.7 190.8 L277.45 191.0 277.3 191.25 Q276.8 191.7 276.65 192.55 275.7 195.25 276.0 191.45 L276.25 190.4 275.65 191.6 Q275.0 193.2 274.75 195.15 L274.6 196.05 274.55 196.75 274.55 197.05 Q274.5 197.8 274.8 198.35 L275.55 198.95 Q275.65 197.6 276.05 196.6 276.4 195.6 276.9 194.75 L277.0 195.35 277.2 196.0 277.4 196.75 277.15 197.35 276.75 198.45 275.55 199.05 274.15 199.45 273.9 199.45 274.15 198.1 274.1 197.05 274.05 196.8 274.0 196.45 Q274.0 195.75 274.15 195.1 L274.1 195.1 274.25 193.9" fill="#f87c01" fill-rule="evenodd" stroke="none"/>
    <path d="M278.35 202.95 L278.4 202.9 280.35 201.35 Q279.3 203.05 280.45 202.25 L281.9 200.95 282.85 199.45 283.45 198.2 281.75 202.6 Q280.2 206.55 278.35 202.95 M274.7 207.15 L275.5 206.0 Q275.05 207.3 275.45 207.95 L276.65 207.9 Q276.5 208.95 275.35 209.05 274.65 209.0 274.7 207.15 M279.25 190.6 L279.0 190.7 Q278.05 190.65 277.5 191.15 L277.3 191.25 277.45 191.0 277.7 190.8 Q280.35 187.9 281.9 187.9 280.55 188.45 279.5 190.1 L279.45 190.15 279.25 190.6 M276.65 192.55 L276.65 193.55 276.7 194.1 276.9 194.75 Q276.4 195.6 276.05 196.6 275.65 197.6 275.55 198.95 L274.8 198.35 Q274.5 197.8 274.55 197.05 L274.55 196.75 274.6 196.05 274.75 195.15 Q275.0 193.2 275.65 191.6 L276.25 190.4 276.0 191.45 Q275.7 195.25 276.65 192.55 M280.9 192.9 L281.65 193.55 Q283.0 194.65 284.55 192.75 286.95 190.6 288.7 191.5 286.55 191.2 284.55 194.7 L283.7 195.85 281.2 195.8 280.65 194.7 280.65 193.8 Q280.7 193.3 280.9 192.9" fill="#feaf61" fill-rule="evenodd" stroke="none"/>
    <path d="M271.25 203.85 L270.3 205.4 270.05 205.35 Q269.4 205.15 270.85 203.95 269.9 204.1 271.5 202.4 272.05 201.8 271.35 201.2 270.5 199.55 271.65 199.55 L273.0 199.6 273.3 199.1 273.45 199.35 273.35 199.9 272.9 200.35 272.75 200.4 272.65 200.5 272.35 200.6 272.3 200.55 Q271.5 200.7 272.55 201.65 L272.65 201.75 271.95 202.9 271.25 203.85" fill="#de7001" fill-rule="evenodd" stroke="none"/>
    <path d="M282.75 191.25 L281.9 192.6 281.7 192.15 282.75 191.25" fill="#c4a773" fill-rule="evenodd" stroke="none"/>
    <path d="M273.9 199.45 L273.85 199.55" fill="none" stroke="#000000" stroke-linecap="round" stroke-linejoin="round" stroke-width="0.05"/>
  </g>
</svg>
