<?xml version="1.0" encoding="UTF-8" standalone="no"?>
<svg xmlns:xlink="http://www.w3.org/1999/xlink" height="31.15px" width="31.95px" xmlns="http://www.w3.org/2000/svg">
  <g transform="matrix(1.0, 0.0, 0.0, 1.0, -0.05, 0.0)">
    <path d="M31.2 10.55 L31.3 10.95 Q31.95 13.05 32.0 15.15 32.05 17.4 31.35 19.6 L29.45 19.1 31.35 19.6 30.3 22.2 29.2 23.55 Q27.6 25.2 25.6 26.25 L25.2 25.85 25.6 26.25 23.45 27.1 23.3 27.15 21.95 27.5 19.0 27.75 15.8 27.25 13.15 26.2 12.35 25.75 10.85 24.8 8.65 22.75 7.2 20.8 6.1 18.85 5.25 16.55 5.05 15.8 Q4.6 14.25 4.55 12.75 4.4 10.9 4.7 9.15 L5.2 7.15 6.75 5.55 6.9 5.45 7.7 4.8 Q8.0 4.55 8.3 4.4 L8.4 4.3 8.45 4.3 9.65 3.65 Q10.75 3.1 12.05 2.7 L12.55 2.55 12.6 2.55 15.85 2.1 19.3 2.4 15.85 2.1 12.6 2.55 12.55 2.55 12.05 2.7 Q10.75 3.1 9.65 3.65 L8.45 4.3 8.4 4.3 8.3 4.4 Q8.0 4.55 7.7 4.8 L6.9 5.45 6.75 5.55 5.2 7.15 6.05 4.9 6.2 4.7 7.45 2.6 7.5 2.6 Q8.1 2.15 8.8 1.85 L11.55 0.75 12.1 0.6 15.9 0.0 19.85 0.4 Q21.75 0.85 23.65 1.85 25.65 2.85 27.15 4.25 28.7 5.65 29.75 7.45 L31.2 10.55 29.2 11.2 31.2 10.55 M29.45 19.1 Q30.0 17.25 30.0 15.35 L29.35 11.65 29.25 11.3 29.2 11.2 29.25 11.3 29.35 11.65 30.0 15.35 Q30.0 17.25 29.45 19.1 L29.4 19.25 28.5 21.55 28.2 22.05 27.7 22.85 Q26.65 24.55 25.2 25.85 26.65 24.55 27.7 22.85 L28.2 22.05 28.5 21.55 29.4 19.25 29.45 19.1 26.5 18.4 29.45 19.1 M29.2 11.2 L28.0 8.55 Q27.05 7.0 25.7 5.8 L25.7 5.75 25.7 5.8 Q27.05 7.0 28.0 8.55 L29.2 11.2 M25.7 5.75 L27.15 4.25 25.7 5.75 Q24.35 4.55 22.65 3.65 21.0 2.8 19.3 2.4 21.0 2.8 22.65 3.65 24.35 4.55 25.7 5.75 M18.75 4.85 L19.3 2.4 18.75 4.85 M5.65 13.05 L4.55 12.75 5.65 13.05 M12.6 2.55 L12.1 0.6 12.6 2.55 M19.85 0.4 L19.3 2.4 19.85 0.4 M6.9 5.45 L6.2 4.7 6.9 5.45 M13.3 25.75 L13.15 26.2 13.3 25.75 M23.45 27.1 L25.1 25.9 25.2 25.85 25.1 25.9 23.45 27.1" fill="#e6e3df" fill-rule="evenodd" stroke="none"/>
    <path d="M30.3 22.2 L30.0 22.8 29.45 23.7 Q28.15 25.7 26.45 27.2 24.9 28.55 22.95 29.45 L20.5 30.4 19.7 30.6 15.8 31.15 11.95 30.7 8.3 29.35 Q6.2 28.25 4.65 26.75 3.25 25.4 2.25 23.75 1.35 22.3 0.8 20.6 L0.7 20.2 Q0.05 18.05 0.05 15.95 0.0 13.8 0.6 11.75 1.05 10.05 2.0 8.4 L2.35 7.8 Q3.65 5.65 5.55 4.0 L6.6 3.15 7.45 2.55 7.45 2.6 7.3 2.7 6.6 3.15 7.3 2.7 7.45 2.6 6.2 4.7 5.55 4.0 6.2 4.7 6.05 4.9 5.2 7.15 4.7 9.15 Q4.4 10.9 4.55 12.75 L2.45 12.2 4.55 12.75 Q4.6 14.25 5.05 15.8 L5.25 16.55 6.1 18.85 7.2 20.8 8.65 22.75 10.85 24.8 12.35 25.75 13.15 26.2 15.8 27.25 19.0 27.75 21.95 27.5 23.3 27.15 23.45 27.1 22.05 27.9 19.85 28.7 19.25 28.9 19.85 28.7 22.05 27.9 23.45 27.1 25.6 26.25 Q27.6 25.2 29.2 23.55 L30.3 22.2 M2.45 12.2 L3.65 9.4 3.95 8.85 5.2 7.15 3.95 8.85 3.65 9.4 2.45 12.2 2.45 12.3 Q1.9 14.15 1.9 16.05 1.95 17.85 2.5 19.75 L2.6 20.0 2.5 19.75 Q1.95 17.85 1.9 16.05 1.9 14.15 2.45 12.3 L2.45 12.2 0.6 11.75 2.45 12.2 M0.8 20.6 L2.6 20.0 0.8 20.6 M2.6 20.0 L2.6 20.1 3.85 22.9 5.95 25.45 3.85 22.9 2.6 20.1 2.6 20.0 M19.7 30.6 L19.25 28.9 19.7 30.6 M12.4 29.0 L15.75 29.4 19.2 28.9 19.25 28.9 19.2 28.9 15.75 29.4 12.4 29.0 11.95 30.7 12.4 29.0 13.15 26.2 12.4 29.0 Q10.75 28.6 9.2 27.8 7.35 26.8 6.0 25.5 L5.95 25.45 6.0 25.5 Q7.35 26.8 9.2 27.8 10.75 28.6 12.4 29.0 M26.45 27.2 L25.6 26.25 26.45 27.2 M4.65 26.75 L5.95 25.45 4.65 26.75" fill="#d4d0c8" fill-rule="evenodd" stroke="none"/>
    <path d="M31.35 19.6 Q32.05 17.4 32.0 15.15 31.95 13.05 31.3 10.95 L31.2 10.55 29.75 7.45 Q28.7 5.65 27.15 4.25 25.65 2.85 23.65 1.85 21.75 0.85 19.85 0.4 L15.9 0.0 12.1 0.6 11.55 0.75 8.8 1.85 Q8.1 2.15 7.5 2.6 L7.45 2.6 7.3 2.7 6.6 3.15 5.55 4.0 Q3.65 5.65 2.35 7.8 L2.0 8.4 Q1.05 10.05 0.6 11.75 0.0 13.8 0.05 15.95 0.05 18.05 0.7 20.2 L0.8 20.6 Q1.35 22.3 2.25 23.75 3.25 25.4 4.65 26.75 6.2 28.25 8.3 29.35 L11.95 30.7 15.8 31.15 19.7 30.6 20.5 30.4 22.95 29.45 Q24.9 28.55 26.45 27.2 28.15 25.7 29.45 23.7 L30.0 22.8 30.3 22.2 31.35 19.6" fill="none" stroke="#999999" stroke-linecap="round" stroke-linejoin="round" stroke-width="0.05"/>
    <path d="M31.2 10.55 L29.2 11.2 M29.45 19.1 L31.35 19.6 M27.15 4.25 L25.7 5.75 M19.3 2.4 L18.75 4.85 M26.5 18.4 L29.45 19.1 M4.55 12.75 L5.65 13.05 M19.3 2.4 L19.85 0.4 M12.1 0.6 L12.6 2.55 M6.2 4.7 L6.9 5.45 M6.2 4.7 L5.55 4.0 M2.45 12.2 L4.55 12.75 M13.15 26.2 L13.3 25.75 M2.45 12.2 L0.6 11.75 M2.6 20.0 L0.8 20.6 M19.25 28.9 L19.7 30.6 M12.4 29.0 L11.95 30.7 M13.15 26.2 L12.4 29.0 M5.95 25.45 L4.65 26.75 M25.6 26.25 L26.45 27.2" fill="none" stroke="#666666" stroke-linecap="round" stroke-linejoin="round" stroke-width="0.05"/>
    <path d="M29.2 11.2 L29.25 11.3 29.35 11.65 30.0 15.35 Q30.0 17.25 29.45 19.1 L29.4 19.25 28.5 21.55 28.2 22.05 27.7 22.85 Q26.65 24.55 25.2 25.85 L25.1 25.9 23.45 27.1 22.05 27.9 19.85 28.7 19.25 28.9 19.2 28.9 15.75 29.4 12.4 29.0 Q10.75 28.6 9.2 27.8 7.35 26.8 6.0 25.5 L5.95 25.45 3.85 22.9 2.6 20.1 2.6 20.0 2.5 19.75 Q1.95 17.85 1.9 16.05 1.9 14.15 2.45 12.3 L2.45 12.2 3.65 9.4 3.95 8.85 5.2 7.15 6.75 5.55 6.9 5.45 7.7 4.8 Q8.0 4.55 8.3 4.4 L8.4 4.3 8.45 4.3 9.65 3.65 Q10.75 3.1 12.05 2.7 L12.55 2.55 12.6 2.55 15.85 2.1 19.3 2.4 Q21.0 2.8 22.65 3.65 24.35 4.55 25.7 5.75 L25.7 5.8 Q27.05 7.0 28.0 8.55 L29.2 11.2" fill="none" stroke="#cccccc" stroke-linecap="round" stroke-linejoin="round" stroke-width="0.05"/>
    <path d="M7.45 2.55 L7.45 2.6" fill="none" stroke="#cccccc" stroke-linecap="round" stroke-linejoin="round" stroke-width="0.05"/>
    <path d="M25.2 25.85 L25.6 26.25" fill="none" stroke="#000000" stroke-linecap="round" stroke-linejoin="round" stroke-width="0.05"/>
  </g>
</svg>
