<?xml version="1.0" encoding="UTF-8" standalone="no"?>
<svg xmlns:xlink="http://www.w3.org/1999/xlink" height="59.9px" width="60.05px" xmlns="http://www.w3.org/2000/svg">
  <g transform="matrix(1.0, 0.0, 0.0, 1.0, -347.0, -178.65)">
    <path d="M406.5 185.25 Q406.7 187.75 405.05 189.4 404.05 190.4 402.65 190.7 L400.95 190.8 Q398.45 190.5 396.55 188.6 394.65 186.7 394.35 184.2 L394.45 182.5 Q394.75 181.1 395.75 180.1 397.4 178.45 399.9 178.65 402.4 178.95 404.3 180.85 406.2 182.75 406.5 185.25" fill="url(#gradient0)" fill-rule="evenodd" stroke="none"/>
    <path d="M404.45 193.8 L401.45 196.4 396.15 194.4 399.4 191.15 404.45 193.8" fill="url(#gradient1)" fill-rule="evenodd" stroke="none"/>
    <path d="M396.15 194.4 L401.45 196.4 404.45 193.8 407.05 199.5 398.3 198.45 396.15 194.4" fill="url(#gradient2)" fill-rule="evenodd" stroke="none"/>
    <path d="M390.0 196.95 L390.8 197.75 391.3 202.85 379.2 210.05 378.95 214.9 376.45 213.7 376.25 212.2 374.65 210.6 389.15 196.1 390.0 196.95 M379.15 208.8 L390.15 201.7 389.7 198.25 390.15 201.7 379.15 208.8" fill="url(#gradient3)" fill-rule="evenodd" stroke="none"/>
    <path d="M388.35 195.3 L388.95 194.7 389.6 195.65 390.6 196.35 390.0 196.95 389.15 196.1 388.35 195.3" fill="url(#gradient4)" fill-rule="evenodd" stroke="none"/>
    <path d="M388.95 194.7 L388.7 194.05 388.8 193.15 Q388.9 192.75 389.15 192.6 389.65 192.0 390.55 192.2 391.5 192.35 392.2 193.05 392.95 193.8 393.1 194.75 393.3 195.65 392.75 196.2 L392.15 196.5 391.25 196.6 390.6 196.35 389.6 195.65 388.95 194.7" fill="url(#gradient5)" fill-rule="evenodd" stroke="none"/>
    <path d="M370.35 206.3 L375.2 206.05 382.4 193.95 385.0 194.25 387.5 194.45 388.35 195.3 389.15 196.1 374.65 210.6 373.1 209.05 371.55 208.8 370.35 206.3 M387.5 195.55 L383.25 195.3 376.85 206.3 383.25 195.3 387.5 195.55" fill="url(#gradient6)" fill-rule="evenodd" stroke="none"/>
    <path d="M376.65 215.3 L377.15 218.4 366.9 208.15 369.95 208.6 371.55 208.8 373.1 209.05 374.65 210.6 376.25 212.2 376.45 213.7 376.65 215.3" fill="url(#gradient7)" fill-rule="evenodd" stroke="none"/>
    <path d="M369.95 208.6 L370.35 206.3 371.55 208.8 369.95 208.6" fill="url(#gradient8)" fill-rule="evenodd" stroke="none"/>
    <path d="M377.15 218.4 L374.05 217.9 372.95 217.7 371.0 217.45 369.55 216.0 367.85 214.3 367.65 212.6 367.35 211.2 366.9 208.15 377.15 218.4" fill="url(#gradient9)" fill-rule="evenodd" stroke="none"/>
    <path d="M360.3 218.25 L367.35 211.2 367.65 212.6 367.85 214.3 369.55 216.0 366.35 219.2 360.3 218.25 M362.35 217.9 L367.65 212.6 362.35 217.9" fill="url(#gradient10)" fill-rule="evenodd" stroke="none"/>
    <path d="M378.95 214.9 L376.65 215.3 376.45 213.7 378.95 214.9" fill="url(#gradient11)" fill-rule="evenodd" stroke="none"/>
    <path d="M374.05 217.9 L367.25 224.7 366.35 219.2 369.55 216.0 371.0 217.45 372.95 217.7 374.05 217.9 M372.95 217.7 L367.65 223.4 372.95 217.7" fill="url(#gradient12)" fill-rule="evenodd" stroke="none"/>
    <path d="M367.25 224.7 L367.7 228.95 364.35 232.3 363.85 232.1 367.1 228.65 365.95 220.3 367.1 228.65 363.85 232.1 356.5 229.05 365.7 219.85 366.35 219.2 367.25 224.7" fill="url(#gradient13)" fill-rule="evenodd" stroke="none"/>
    <path d="M353.25 221.2 L356.6 217.85 360.3 218.25 366.35 219.2 365.7 219.85 356.5 229.05 353.25 221.2 M353.95 221.5 L357.05 218.4 365.7 219.85 357.05 218.4 353.95 221.5" fill="url(#gradient14)" fill-rule="evenodd" stroke="none"/>
    <path d="M364.35 232.3 L360.95 231.6 360.15 231.9 352.15 235.0 351.35 234.2 356.5 229.05 363.85 232.1 364.35 232.3" fill="url(#gradient15)" fill-rule="evenodd" stroke="none"/>
    <path d="M360.95 231.6 L359.3 238.55 354.4 237.25 352.15 235.0 360.15 231.9 360.95 231.6 M358.8 237.85 L360.15 231.9 358.8 237.85" fill="url(#gradient16)" fill-rule="evenodd" stroke="none"/>
    <path d="M359.3 238.55 L355.65 238.5 354.4 237.25 359.3 238.55" fill="url(#gradient17)" fill-rule="evenodd" stroke="none"/>
    <path d="M351.35 234.2 L350.6 233.45 353.7 225.35 353.95 224.6 353.25 221.2 356.5 229.05 351.35 234.2" fill="url(#gradient18)" fill-rule="evenodd" stroke="none"/>
    <path d="M350.6 233.45 L348.3 231.15 347.0 226.25 353.95 224.6 353.7 225.35 350.6 233.45 M347.9 226.75 L353.7 225.35 347.9 226.75" fill="url(#gradient19)" fill-rule="evenodd" stroke="none"/>
    <path d="M348.3 231.15 L347.1 229.95 347.0 226.25 348.3 231.15" fill="url(#gradient20)" fill-rule="evenodd" stroke="none"/>
    <path d="M406.5 185.25 Q406.7 187.75 405.05 189.4 404.05 190.4 402.65 190.7 L400.95 190.8 Q398.45 190.5 396.55 188.6 394.65 186.7 394.35 184.2 L394.45 182.5 Q394.75 181.1 395.75 180.1 397.4 178.45 399.9 178.65 402.4 178.95 404.3 180.85 406.2 182.75 406.5 185.25 M396.15 194.4 L401.45 196.4 404.45 193.8 399.4 191.15 396.15 194.4 398.3 198.45 407.05 199.5 404.45 193.8 M390.0 196.95 L390.8 197.75 391.3 202.85 379.2 210.05 378.95 214.9 376.65 215.3 377.15 218.4 374.05 217.9 367.25 224.7 367.7 228.95 364.35 232.3 360.95 231.6 359.3 238.55 355.65 238.5 M347.1 229.95 L347.0 226.25 353.95 224.6 353.25 221.2 356.6 217.85 360.3 218.25 367.35 211.2 366.9 208.15 369.95 208.6 370.35 206.3 375.2 206.05 M385.0 194.25 L387.5 194.45 388.35 195.3 388.95 194.7 388.7 194.05 388.8 193.15 Q388.9 192.75 389.15 192.6 389.65 192.0 390.55 192.2 391.5 192.35 392.2 193.05 392.95 193.8 393.1 194.75 393.3 195.65 392.75 196.2 L392.15 196.5 391.25 196.6 390.6 196.35 390.0 196.95 389.15 196.1 374.65 210.6 376.25 212.2 376.45 213.7 378.95 214.9 M388.35 195.3 L389.15 196.1 M390.6 196.35 L389.6 195.65 388.95 194.7 M371.55 208.8 L373.1 209.05 374.65 210.6 M369.95 208.6 L371.55 208.8 370.35 206.3 M367.35 211.2 L367.65 212.6 367.85 214.3 369.55 216.0 371.0 217.45 372.95 217.7 374.05 217.9 M376.65 215.3 L376.45 213.7 M366.9 208.15 L377.15 218.4 M363.85 232.1 L364.35 232.3 M366.35 219.2 L365.7 219.85 356.5 229.05 363.85 232.1 M367.25 224.7 L366.35 219.2 360.3 218.25 M360.95 231.6 L360.15 231.9 352.15 235.0 M351.35 234.2 L356.5 229.05 353.25 221.2 M354.4 237.25 L359.3 238.55 M348.3 231.15 L347.0 226.25 M353.95 224.6 L353.7 225.35 350.6 233.45" fill="none" stroke="#000000" stroke-linecap="round" stroke-linejoin="round" stroke-opacity="0.2509804" stroke-width="0.05"/>
    <path d="M389.7 198.25 L390.15 201.7 379.15 208.8 M376.85 206.3 L383.25 195.3 387.5 195.55 M363.85 232.1 L367.1 228.65 365.95 220.3 M360.15 231.9 L358.8 237.85 M365.7 219.85 L357.05 218.4 353.95 221.5 M353.7 225.35 L347.9 226.75 M367.65 212.6 L362.35 217.9 M367.65 223.4 L372.95 217.7" fill="none" stroke="#e1cbb5" stroke-linecap="round" stroke-linejoin="round" stroke-width="0.05"/>
  </g>
  <defs>
    <radialGradient cx="0" cy="0" gradientTransform="matrix(0.0103, 0.0103, -0.0076, 0.0076, 402.3, 182.25)" gradientUnits="userSpaceOnUse" id="gradient0" r="819.2" spreadMethod="pad">
      <stop offset="0.0" stop-color="#412f18"/>
      <stop offset="0.596078431372549" stop-color="#b98046"/>
    </radialGradient>
    <radialGradient cx="0" cy="0" gradientTransform="matrix(0.0036, 0.0036, -0.0036, 0.0036, 400.3, 194.05)" gradientUnits="userSpaceOnUse" id="gradient1" r="819.2" spreadMethod="pad">
      <stop offset="0.0" stop-color="#412f18"/>
      <stop offset="0.596078431372549" stop-color="#b98046"/>
    </radialGradient>
    <radialGradient cx="0" cy="0" gradientTransform="matrix(0.0054, 0.0054, -0.0054, 0.0054, 401.95, 196.6)" gradientUnits="userSpaceOnUse" id="gradient2" r="819.2" spreadMethod="pad">
      <stop offset="0.0" stop-color="#412f18"/>
      <stop offset="0.596078431372549" stop-color="#b98046"/>
    </radialGradient>
    <radialGradient cx="0" cy="0" gradientTransform="matrix(0.0244, 0.0244, -0.0179, 0.0179, 376.25, 212.4)" gradientUnits="userSpaceOnUse" id="gradient3" r="819.2" spreadMethod="pad">
      <stop offset="0.0" stop-color="#412f18"/>
      <stop offset="0.596078431372549" stop-color="#b98046"/>
    </radialGradient>
    <radialGradient cx="0" cy="0" gradientTransform="matrix(0.0011, 0.0011, -0.0011, 0.0011, 389.45, 195.8)" gradientUnits="userSpaceOnUse" id="gradient4" r="819.2" spreadMethod="pad">
      <stop offset="0.0" stop-color="#412f18"/>
      <stop offset="0.596078431372549" stop-color="#b98046"/>
    </radialGradient>
    <radialGradient cx="0" cy="0" gradientTransform="matrix(0.0036, 0.0036, -0.0026, 0.0026, 391.6, 195.65)" gradientUnits="userSpaceOnUse" id="gradient5" r="819.2" spreadMethod="pad">
      <stop offset="0.0" stop-color="#412f18"/>
      <stop offset="0.596078431372549" stop-color="#b98046"/>
    </radialGradient>
    <radialGradient cx="0" cy="0" gradientTransform="matrix(0.0242, 0.0242, -0.0177, 0.0177, 373.1, 209.05)" gradientUnits="userSpaceOnUse" id="gradient6" r="819.2" spreadMethod="pad">
      <stop offset="0.0" stop-color="#412f18"/>
      <stop offset="0.596078431372549" stop-color="#b98046"/>
    </radialGradient>
    <radialGradient cx="0" cy="0" gradientTransform="matrix(0.0065, 0.0065, -0.0065, 0.0065, 373.3, 211.95)" gradientUnits="userSpaceOnUse" id="gradient7" r="819.2" spreadMethod="pad">
      <stop offset="0.0" stop-color="#412f18"/>
      <stop offset="0.596078431372549" stop-color="#b98046"/>
    </radialGradient>
    <radialGradient cx="0" cy="0" gradientTransform="matrix(0.0014, 0.0014, -0.0014, 0.0014, 370.65, 207.9)" gradientUnits="userSpaceOnUse" id="gradient8" r="819.2" spreadMethod="pad">
      <stop offset="0.0" stop-color="#412f18"/>
      <stop offset="0.596078431372549" stop-color="#b98046"/>
    </radialGradient>
    <radialGradient cx="0" cy="0" gradientTransform="matrix(0.0065, 0.0065, -0.0065, 0.0065, 370.7, 214.55)" gradientUnits="userSpaceOnUse" id="gradient9" r="819.2" spreadMethod="pad">
      <stop offset="0.0" stop-color="#412f18"/>
      <stop offset="0.596078431372549" stop-color="#b98046"/>
    </radialGradient>
    <radialGradient cx="0" cy="0" gradientTransform="matrix(0.0098, 0.0098, -0.0072, 0.0072, 361.5, 217.05)" gradientUnits="userSpaceOnUse" id="gradient10" r="819.2" spreadMethod="pad">
      <stop offset="0.0" stop-color="#412f18"/>
      <stop offset="0.596078431372549" stop-color="#b98046"/>
    </radialGradient>
    <radialGradient cx="0" cy="0" gradientTransform="matrix(0.0014, 0.0014, -0.0014, 0.0014, 377.4, 214.65)" gradientUnits="userSpaceOnUse" id="gradient11" r="819.2" spreadMethod="pad">
      <stop offset="0.0" stop-color="#412f18"/>
      <stop offset="0.596078431372549" stop-color="#b98046"/>
    </radialGradient>
    <radialGradient cx="0" cy="0" gradientTransform="matrix(0.0096, 0.0096, -0.0071, 0.0071, 366.75, 221.9)" gradientUnits="userSpaceOnUse" id="gradient12" r="819.2" spreadMethod="pad">
      <stop offset="0.0" stop-color="#412f18"/>
      <stop offset="0.596078431372549" stop-color="#b98046"/>
    </radialGradient>
    <radialGradient cx="0" cy="0" gradientTransform="matrix(0.0144, 0.0144, -0.0106, 0.0106, 358.65, 228.7)" gradientUnits="userSpaceOnUse" id="gradient13" r="819.2" spreadMethod="pad">
      <stop offset="0.0" stop-color="#412f18"/>
      <stop offset="0.596078431372549" stop-color="#b98046"/>
    </radialGradient>
    <radialGradient cx="0" cy="0" gradientTransform="matrix(0.0143, 0.0143, -0.0105, 0.0105, 356.9, 226.95)" gradientUnits="userSpaceOnUse" id="gradient14" r="819.2" spreadMethod="pad">
      <stop offset="0.0" stop-color="#412f18"/>
      <stop offset="0.596078431372549" stop-color="#b98046"/>
    </radialGradient>
    <radialGradient cx="0" cy="0" gradientTransform="matrix(0.0057, 0.0057, -0.0057, 0.0057, 357.85, 233.2)" gradientUnits="userSpaceOnUse" id="gradient15" r="819.2" spreadMethod="pad">
      <stop offset="0.0" stop-color="#412f18"/>
      <stop offset="0.596078431372549" stop-color="#b98046"/>
    </radialGradient>
    <radialGradient cx="0" cy="0" gradientTransform="matrix(0.0113, 0.0113, -0.0083, 0.0083, 352.05, 235.8)" gradientUnits="userSpaceOnUse" id="gradient16" r="819.2" spreadMethod="pad">
      <stop offset="0.0" stop-color="#412f18"/>
      <stop offset="0.596078431372549" stop-color="#b98046"/>
    </radialGradient>
    <radialGradient cx="0" cy="0" gradientTransform="matrix(0.0022, 0.0022, -0.0022, 0.0022, 356.85, 237.9)" gradientUnits="userSpaceOnUse" id="gradient17" r="819.2" spreadMethod="pad">
      <stop offset="0.0" stop-color="#412f18"/>
      <stop offset="0.596078431372549" stop-color="#b98046"/>
    </radialGradient>
    <radialGradient cx="0" cy="0" gradientTransform="matrix(0.0057, 0.0057, -0.0057, 0.0057, 352.3, 227.65)" gradientUnits="userSpaceOnUse" id="gradient18" r="819.2" spreadMethod="pad">
      <stop offset="0.0" stop-color="#412f18"/>
      <stop offset="0.596078431372549" stop-color="#b98046"/>
    </radialGradient>
    <radialGradient cx="0" cy="0" gradientTransform="matrix(0.0116, 0.0116, -0.0085, 0.0085, 348.95, 233.3)" gradientUnits="userSpaceOnUse" id="gradient19" r="819.2" spreadMethod="pad">
      <stop offset="0.0" stop-color="#412f18"/>
      <stop offset="0.596078431372549" stop-color="#b98046"/>
    </radialGradient>
    <radialGradient cx="0" cy="0" gradientTransform="matrix(0.0022, 0.0022, -0.0022, 0.0022, 347.65, 228.7)" gradientUnits="userSpaceOnUse" id="gradient20" r="819.2" spreadMethod="pad">
      <stop offset="0.0" stop-color="#412f18"/>
      <stop offset="0.596078431372549" stop-color="#b98046"/>
    </radialGradient>
  </defs>
</svg>
