<?xml version="1.0" encoding="UTF-8" standalone="no"?>
<svg xmlns:xlink="http://www.w3.org/1999/xlink" height="254.15px" width="282.45px" xmlns="http://www.w3.org/2000/svg">
  <g transform="matrix(1.0, 0.0, 0.0, 1.0, -114.65, -47.55)">
    <path d="M378.45 64.3 L391.7 77.2 Q258.6 167.3 133.15 292.0 L126.8 285.35 378.45 64.3" fill="#695a3a" fill-rule="evenodd" stroke="none"/>
    <path d="M391.7 77.2 L396.6 82.65 Q249.95 170.85 138.45 298.1 L133.15 292.0 Q258.6 167.3 391.7 77.2" fill="#51452d" fill-rule="evenodd" stroke="none"/>
    <path d="M126.8 285.35 L121.6 279.9 Q252.85 177.0 361.75 48.05 L378.45 64.3 126.8 285.35" fill="#806c46" fill-rule="evenodd" stroke="none"/>
    <path d="M378.45 64.3 L391.7 77.2 396.6 82.65 Q249.95 170.85 138.45 298.1 L133.15 292.0 126.8 285.35 121.6 279.9 Q252.85 177.0 361.75 48.05 L378.45 64.3 Z" fill="none" stroke="#000000" stroke-linecap="round" stroke-linejoin="round" stroke-opacity="0.3019608" stroke-width="1.0"/>
    <path d="M201.3 154.55 L201.25 154.0 201.85 154.0 201.3 154.55" fill="#463526" fill-rule="evenodd" stroke="none"/>
    <path d="M167.9 245.85 L167.1 246.65 165.85 246.9 165.6 246.95 Q164.8 247.5 164.05 247.35 158.05 250.1 152.1 253.1 157.7 250.5 163.5 248.2 L164.2 248.0 166.7 247.0 158.55 254.95 157.25 255.5 154.4 254.7 Q156.95 253.2 160.05 252.15 161.0 251.8 161.6 251.3 L152.25 253.6 151.25 253.85 151.1 253.6 149.5 254.45 147.2 253.8 Q153.65 250.05 160.35 246.6 156.5 247.3 152.7 248.3 147.3 253.75 137.85 253.55 L137.15 253.15 Q134.85 253.95 132.75 255.0 L129.85 254.25 Q132.4 252.7 135.5 251.65 136.4 251.35 137.1 250.85 L126.7 253.4 126.55 253.05 Q132.65 250.25 138.9 247.75 L139.6 247.45 144.5 245.6 142.55 245.5 142.15 245.55 141.95 245.6 Q141.1 246.2 140.4 246.0 133.0 249.35 125.8 253.1 L123.5 252.45 Q130.0 248.65 136.65 245.2 130.7 246.3 124.65 248.3 L123.75 248.65 121.8 249.3 Q119.85 250.05 117.75 249.85 121.6 247.9 125.6 246.15 L127.2 245.45 127.9 245.15 127.35 245.35 125.9 245.75 Q120.35 247.5 114.95 250.15 L114.65 249.65 114.7 249.65 Q120.9 245.55 127.9 243.1 L127.95 243.05 128.0 243.05 115.2 245.75 127.85 242.45 128.45 242.25 115.35 241.4 116.25 240.35 130.55 239.45 131.3 239.4 131.7 239.4 131.5 239.25 131.3 239.1 130.9 238.85 126.55 235.9 119.25 237.25 125.45 235.15 Q122.35 232.9 121.45 231.65 L121.3 231.5 122.0 231.25 Q126.15 232.2 130.15 233.7 L135.15 232.2 135.3 232.15 130.9 226.9 130.2 225.85 130.15 225.75 129.4 225.1 130.0 224.75 130.3 224.7 Q130.55 224.5 130.9 224.4 L131.45 224.75 Q138.35 224.95 145.0 226.65 L147.45 226.5 143.9 223.35 143.4 223.45 139.6 224.15 143.35 222.9 137.8 218.6 Q135.7 217.05 137.3 216.1 L142.05 218.3 142.35 218.2 Q146.45 219.15 150.4 220.6 L151.3 218.05 152.1 218.3 151.6 220.25 154.05 219.5 154.3 217.45 151.25 213.8 150.45 212.65 149.7 212.05 150.35 211.65 150.6 211.65 Q150.85 211.4 151.2 211.3 L151.75 211.65 154.95 211.85 155.8 205.6 156.65 205.6 Q156.5 208.85 156.6 212.0 L158.75 212.3 161.25 207.95 161.3 207.95 158.1 205.5 Q156.0 203.95 157.6 203.0 161.45 204.65 165.25 206.7 168.05 202.7 172.0 199.7 L172.1 199.8 172.15 199.8 172.1 199.8 Q168.8 203.45 166.65 207.45 L169.05 208.8 169.95 209.45 171.6 205.0 172.45 205.2 Q171.55 208.6 170.9 211.95 L171.65 213.85 173.6 211.55 173.95 210.5 174.15 209.05 173.15 208.3 173.7 207.9 174.25 207.9 Q175.05 200.15 176.15 192.55 L176.95 192.55 Q176.75 197.9 177.1 203.1 179.45 198.2 182.3 193.65 L180.95 199.35 181.05 199.3 182.25 199.75 184.4 195.45 184.4 195.4 Q187.45 190.25 192.3 186.6 L192.45 186.7 192.4 186.7 Q188.7 190.9 186.35 195.5 L185.7 196.8 Q184.85 198.7 184.15 200.7 L188.35 202.8 188.65 202.65 188.75 202.8 188.55 202.9 188.7 202.95 190.0 201.2 Q192.35 198.3 195.4 196.0 L195.55 196.05 195.5 196.05 Q192.9 198.95 190.95 202.2 L190.0 203.65 192.4 205.05 193.75 205.95 194.15 207.6 194.8 207.65 195.2 206.6 195.3 206.35 196.05 206.5 195.9 207.3 195.75 207.8 196.4 207.8 197.0 207.75 197.4 206.8 Q198.3 197.7 199.6 188.8 L200.4 188.8 Q200.15 194.2 200.55 199.35 202.9 194.5 205.75 189.95 L203.6 198.45 204.05 198.1 205.1 197.5 Q206.2 194.35 207.85 191.7 210.9 186.5 215.7 182.9 L215.85 182.95 215.85 183.0 Q212.1 187.1 209.75 191.75 206.6 198.0 205.9 205.15 L206.1 204.95 207.35 203.8 208.1 203.65 208.6 203.7 209.6 204.0 Q212.0 202.45 214.75 201.3 L214.85 201.45 211.2 204.4 211.35 204.5 212.15 204.15 212.4 203.9 Q215.25 203.65 218.0 203.9 L204.85 213.5 202.05 211.55 201.55 201.8 Q201.3 208.5 197.95 213.65 L195.45 211.65 195.65 214.9 Q192.6 217.55 188.5 215.95 185.25 214.5 185.85 210.95 185.0 215.15 182.2 217.9 179.85 213.55 179.6 207.6 179.55 213.7 177.05 219.55 L175.7 219.15 173.25 216.4 Q174.65 219.25 173.5 221.8 165.95 221.35 158.5 216.75 163.35 221.55 164.9 228.4 154.2 227.0 143.4 219.65 L150.7 225.5 150.7 225.45 151.2 225.8 151.6 226.0 151.8 226.15 151.9 226.25 151.8 226.35 151.75 226.35 Q157.6 228.2 159.4 232.45 151.05 232.35 140.75 229.55 150.7 233.0 158.9 238.45 L157.25 239.9 Q152.8 246.9 144.55 247.75 L167.9 245.85 M180.55 200.75 L180.15 202.15 180.6 201.85 181.2 201.5 180.55 200.75 M184.7 204.2 L184.75 204.15 183.45 203.15 182.8 206.2 184.05 205.25 184.7 204.2 M184.4 207.4 L184.6 207.45 185.2 207.45 186.0 207.7 186.9 205.9 185.85 205.1 185.75 205.15 184.75 206.05 184.4 207.4 M185.1 204.45 L185.05 204.6 185.2 204.55 185.1 204.45 M188.05 208.0 L187.9 208.2 188.15 208.3 188.7 207.95 188.95 207.7 188.7 207.45 188.05 208.0 M206.45 209.35 L205.85 209.95 206.55 209.65 206.45 209.35 M161.7 208.25 L160.65 212.45 160.75 212.35 161.65 212.75 161.95 212.8 163.45 209.65 161.7 208.25 M167.95 214.2 L168.25 214.45 168.4 214.0 164.9 210.9 164.05 213.25 166.9 213.95 167.95 214.2 M138.3 237.4 L138.75 237.05 138.2 237.4 138.3 237.4" fill="#663300" fill-rule="evenodd" stroke="none"/>
    <path d="M204.85 213.5 Q170.4 238.9 175.15 238.85 L167.9 245.85 144.55 247.75 Q152.8 246.9 157.25 239.9 L158.9 238.45 Q150.7 233.0 140.75 229.55 151.05 232.35 159.4 232.45 157.6 228.2 151.75 226.35 L151.8 226.35 151.9 226.25 151.8 226.15 151.6 226.0 151.2 225.8 150.7 225.45 150.7 225.5 143.4 219.65 Q154.2 227.0 164.9 228.4 163.35 221.55 158.5 216.75 165.95 221.35 173.5 221.8 174.65 219.25 173.25 216.4 L175.7 219.15 177.05 219.55 Q179.55 213.7 179.6 207.6 179.85 213.55 182.2 217.9 185.0 215.15 185.85 210.95 185.25 214.5 188.5 215.95 192.6 217.55 195.65 214.9 L195.45 211.65 197.95 213.65 Q201.3 208.5 201.55 201.8 L202.05 211.55 204.85 213.5 M201.5 207.5 L201.55 207.5 201.45 207.4 201.5 207.5 M175.5 220.75 L175.45 220.8 175.5 220.75 M186.2 222.6 L186.15 222.4 185.95 222.6 185.95 222.8 186.2 222.6" fill="#93410b" fill-rule="evenodd" stroke="none"/>
    <path d="M267.05 236.8 L267.6 236.9 267.7 236.4 267.05 236.8" fill="#463526" fill-rule="evenodd" stroke="none"/>
    <path d="M170.8 249.5 L169.8 250.1 169.25 251.25 169.15 251.45 Q168.4 252.15 168.4 252.95 L160.25 263.35 167.4 253.25 167.85 252.6 169.4 250.4 159.85 256.65 159.0 257.8 159.15 260.75 162.9 255.8 Q163.4 254.95 164.0 254.4 L159.8 263.0 159.25 264.0 159.55 264.15 158.3 265.6 158.45 267.95 168.4 256.7 165.0 263.8 Q158.55 267.9 156.75 277.1 156.6 277.45 156.95 277.85 L154.15 281.8 154.25 284.8 Q156.35 282.6 158.0 279.8 L159.15 278.45 154.45 288.0 154.75 288.25 154.75 288.2 162.6 277.35 163.0 276.7 165.85 272.4 165.55 274.3 165.6 274.3 165.4 274.7 165.35 274.9 Q164.6 275.5 164.6 276.3 159.75 282.8 154.5 288.95 L154.65 291.35 164.55 280.05 Q162.15 285.7 158.95 291.15 L158.4 291.95 157.3 293.65 Q156.2 295.45 155.9 297.55 L161.25 290.65 162.3 289.25 162.7 288.65 162.45 289.2 161.65 290.45 Q158.75 295.55 155.05 300.15 L155.5 300.6 Q160.8 295.35 164.7 289.1 L164.8 289.0 164.8 289.05 Q164.85 289.55 159.35 300.95 L165.35 289.3 165.65 288.7 163.65 301.7 164.85 301.05 Q167.05 294.15 168.85 287.35 L169.05 286.55 169.15 286.2 169.3 286.4 169.35 286.7 169.5 287.05 171.4 291.95 168.55 298.75 171.9 293.2 Q173.45 296.75 174.45 297.9 L174.6 298.0 174.95 297.4 Q175.0 293.15 174.4 288.9 L176.9 284.4 176.95 284.2 181.15 289.7 182.05 290.6 182.15 290.7 182.55 291.55 183.05 291.0 183.15 290.75 183.6 290.2 183.35 289.6 Q184.7 282.85 184.5 275.95 L185.15 273.65 187.45 277.75 187.25 278.25 185.75 281.8 187.75 278.45 190.75 284.75 Q191.85 287.15 193.1 285.8 L192.0 280.7 192.15 280.45 Q192.15 276.25 191.6 272.1 L194.2 271.75 194.2 270.9 192.15 270.95 193.35 268.7 195.45 268.9 198.3 272.75 199.35 273.75 199.75 274.6 200.25 274.05 200.3 273.8 200.8 273.25 200.55 272.65 201.05 269.45 207.35 270.05 207.55 269.2 201.3 267.85 201.5 265.65 206.25 264.2 206.3 264.2 207.95 267.8 Q209.05 270.2 210.25 268.85 209.5 264.7 208.35 260.55 212.85 258.75 216.6 255.5 L216.6 255.4 216.55 255.4 Q212.3 257.8 207.9 259.05 L207.1 256.45 206.7 255.35 211.35 254.75 211.4 253.9 204.45 253.95 202.7 252.8 205.4 251.4 206.5 251.25 207.95 251.45 208.5 252.55 209.0 252.05 209.15 251.55 224.55 253.05 224.75 252.25 Q219.4 251.3 214.4 249.8 219.7 248.6 224.8 246.75 L218.9 246.85 219.0 246.85 218.8 245.5 223.5 244.35 223.55 244.35 Q229.2 242.5 233.8 238.55 L233.75 238.45 233.7 238.45 Q228.85 241.2 223.85 242.45 L222.45 242.8 218.3 243.4 217.15 238.85 217.35 238.6 217.25 238.55 217.1 238.65 217.1 238.55 219.1 237.7 Q222.45 236.0 225.35 233.5 L225.3 233.35 225.3 233.4 Q221.85 235.3 218.35 236.55 L216.65 237.05 215.85 234.45 215.3 232.95 213.8 232.25 213.85 231.55 214.95 231.4 215.2 231.35 215.2 230.55 214.45 230.6 213.95 230.6 214.05 230.0 214.15 229.4 215.2 229.2 233.25 231.0 233.45 230.2 Q228.15 229.25 223.2 227.75 228.4 226.55 233.5 224.7 L224.75 225.0 225.2 224.6 225.95 223.7 Q229.25 223.3 232.25 222.3 237.95 220.45 242.55 216.55 L242.5 216.4 242.5 216.45 Q237.65 219.15 232.6 220.45 225.8 222.15 218.7 221.25 L218.95 221.1 220.3 220.1 220.6 219.5 220.7 218.95 220.6 217.95 224.3 213.45 224.25 213.35 220.5 216.25 220.5 216.1 221.05 215.4 221.3 215.2 222.55 209.75 210.3 220.5 211.6 223.65 220.95 226.2 Q214.45 225.0 208.7 227.15 L210.1 230.05 206.9 229.15 Q203.75 231.55 204.4 235.9 205.1 239.35 208.7 239.6 204.4 239.45 201.1 241.6 204.85 244.85 210.55 246.35 204.6 245.1 198.35 246.25 L198.45 247.65 200.55 250.65 Q198.1 248.65 195.4 249.25 194.15 256.7 197.1 264.95 193.45 259.2 187.1 256.2 186.15 266.9 190.95 279.1 L186.8 270.7 186.9 270.65 186.65 270.1 186.55 269.75 186.45 269.45 186.4 269.35 186.25 269.4 186.2 269.45 Q185.75 263.35 181.95 260.7 180.25 268.85 180.75 279.5 179.5 269.1 176.0 259.85 L174.25 261.15 Q166.45 264.0 163.8 271.9 L170.8 249.5 M217.45 246.95 L216.0 247.0 216.45 246.65 216.85 246.15 217.45 246.95 M211.8 241.75 L211.85 241.5 211.95 240.95 211.9 240.15 213.8 239.65 214.4 240.85 214.3 240.9 213.25 241.7 211.8 241.75 M214.85 241.7 L214.7 241.7 214.8 241.6 214.85 241.7 M212.05 238.1 L211.75 238.15 211.75 237.9 212.25 237.45 212.55 237.25 212.7 237.55 212.05 238.1 M215.0 242.15 L215.05 242.15 215.75 243.6 212.65 243.55 213.85 242.55 215.0 242.15 M214.7 219.85 L214.0 220.25 214.45 219.65 214.7 219.85 M206.1 263.7 L201.8 263.8 201.85 263.8 201.65 262.75 201.65 262.45 205.05 261.7 206.1 263.7 M201.6 256.35 L201.45 256.0 201.9 255.95 204.2 260.0 201.65 260.35 201.6 257.4 201.6 256.35 M172.5 280.2 L173.0 279.85 172.55 280.3 172.5 280.2" fill="#663300" fill-rule="evenodd" stroke="none"/>
    <path d="M210.3 220.5 Q178.05 248.55 179.15 243.95 L170.8 249.5 163.8 271.9 Q166.45 264.0 174.25 261.15 L176.0 259.85 Q179.5 269.1 180.75 279.5 180.25 268.85 181.95 260.7 185.75 263.35 186.2 269.45 L186.25 269.4 186.4 269.35 186.45 269.45 186.55 269.75 186.65 270.1 186.9 270.65 186.8 270.7 190.95 279.1 Q186.15 266.9 187.1 256.2 193.45 259.2 197.1 264.95 194.15 256.7 195.4 249.25 198.1 248.65 200.55 250.65 L198.45 247.65 198.35 246.25 Q204.6 245.1 210.55 246.35 204.85 244.85 201.1 241.6 204.4 239.45 208.7 239.6 205.1 239.35 204.4 235.9 203.75 231.55 206.9 229.15 L210.1 230.05 208.7 227.15 Q214.45 225.0 220.95 226.2 L211.6 223.65 210.3 220.5 M215.5 225.1 L215.45 225.05 215.5 225.1 M196.85 247.5 L196.8 247.55 196.85 247.5 M197.4 236.7 L197.55 236.8 Q197.4 236.9 197.3 236.95 L197.1 236.95 197.4 236.7" fill="#93410b" fill-rule="evenodd" stroke="none"/>
  </g>
</svg>
