<?xml version="1.0" encoding="UTF-8" standalone="no"?>
<svg xmlns:xlink="http://www.w3.org/1999/xlink" height="92.1px" width="99.25px" xmlns="http://www.w3.org/2000/svg">
  <g transform="matrix(1.0, 0.0, 0.0, 1.0, 0.0, 0.0)">
    <path d="M2.0 88.9 L0.0 86.45 26.45 59.4 28.7 55.6 38.9 56.25 39.75 57.35 60.35 54.6 66.05 44.6 65.9 42.8 Q65.95 39.95 67.05 38.45 L68.4 36.6 66.65 23.35 67.55 22.15 82.75 23.0 Q83.2 20.9 82.4 18.95 85.75 20.75 86.1 24.3 L69.65 23.2 73.05 37.85 72.0 43.0 68.65 46.2 61.35 58.15 61.3 58.4 40.25 60.4 40.15 59.15 38.45 60.45 29.05 61.15 29.35 63.05 21.3 73.0 22.25 69.8 2.0 88.9" fill="#765b23" fill-rule="evenodd" stroke="none"/>
    <path d="M86.1 24.3 L86.1 25.05 70.9 26.95 74.4 37.8 75.35 39.45 Q75.15 43.6 73.45 47.25 L62.65 61.05 38.25 62.95 36.55 64.3 32.7 65.35 4.55 92.1 2.0 88.9 22.25 69.8 21.3 73.0 29.35 63.05 29.05 61.15 38.45 60.45 40.15 59.15 40.25 60.4 61.3 58.4 61.35 58.15 68.65 46.2 72.0 43.0 73.05 37.85 69.65 23.2 86.1 24.3" fill="#523f18" fill-rule="evenodd" stroke="none"/>
    <path d="M2.0 88.9 L0.0 86.45 26.45 59.4 28.7 55.6 38.9 56.25 39.75 57.35 60.35 54.6 66.05 44.6 65.9 42.8 Q65.95 39.95 67.05 38.45 L68.4 36.6 66.65 23.35 67.55 22.15 82.75 23.0 Q83.2 20.9 82.4 18.95 85.75 20.75 86.1 24.3 L86.1 25.05 70.9 26.95 74.4 37.8 75.35 39.45 Q75.15 43.6 73.45 47.25 L62.65 61.05 38.25 62.95 36.55 64.3 32.7 65.35 4.55 92.1 2.0 88.9 Z" fill="none" stroke="#000000" stroke-linecap="round" stroke-linejoin="round" stroke-opacity="0.3019608" stroke-width="0.05"/>
    <path d="M82.6 21.1 Q76.85 20.2 77.5 11.1 85.0 13.7 82.6 21.1" fill="#50925f" fill-rule="evenodd" stroke="none"/>
    <path d="M82.6 21.1 Q76.85 20.2 77.5 11.1 85.0 13.7 82.6 21.1 Z" fill="none" stroke="#000000" stroke-linecap="round" stroke-linejoin="round" stroke-opacity="0.3019608" stroke-width="0.05"/>
    <path d="M85.4 23.25 Q79.45 10.85 98.2 0.0 103.0 18.05 85.45 23.25 L85.4 23.25" fill="#3e714a" fill-rule="evenodd" stroke="none"/>
    <path d="M85.4 23.25 Q79.45 10.85 98.2 0.0 103.0 18.05 85.45 23.25 L85.4 23.25 Z" fill="none" stroke="#000000" stroke-linecap="round" stroke-linejoin="round" stroke-opacity="0.3019608" stroke-width="0.05"/>
  </g>
</svg>
