<?xml version="1.0" encoding="UTF-8" standalone="no"?>
<svg xmlns:xlink="http://www.w3.org/1999/xlink" height="92.85px" width="96.75px" xmlns="http://www.w3.org/2000/svg">
  <g transform="matrix(1.0, 0.0, 0.0, 1.0, -226.6, -154.2)">
    <path d="M308.9 175.25 Q308.9 176.75 309.95 177.85 311.05 178.9 312.55 178.9 314.05 178.9 315.15 177.85 316.25 176.75 316.25 175.25 316.25 173.75 315.15 172.65 314.05 171.6 312.55 171.6 311.05 171.6 309.95 172.65 308.9 173.75 308.9 175.25 M307.5 175.4 Q307.5 173.45 308.9 172.05 310.35 170.6 312.3 170.6 314.3 170.6 315.7 172.05 317.1 173.45 317.1 175.4 317.1 177.4 315.7 178.8 314.3 180.2 312.3 180.2 310.35 180.2 308.9 178.8 307.5 177.4 307.5 175.4" fill="#e4dfd3" fill-opacity="0.6" fill-rule="evenodd" stroke="none"/>
    <path d="M308.9 175.25 Q308.9 173.75 309.95 172.65 311.05 171.6 312.55 171.6 314.05 171.6 315.15 172.65 316.25 173.75 316.25 175.25 316.25 176.75 315.15 177.85 314.05 178.9 312.55 178.9 311.05 178.9 309.95 177.85 308.9 176.75 308.9 175.25" fill="#fdfff0" fill-rule="evenodd" stroke="none"/>
    <path d="M306.45 170.35 L309.3 168.05 311.45 169.05 311.7 169.2 307.5 173.05 306.45 170.35 M310.45 167.1 L311.0 166.65 313.25 167.8 312.35 168.6 312.25 168.5 310.45 167.1" fill="#231f10" fill-rule="evenodd" stroke="none"/>
    <path d="M295.55 177.6 Q299.6 175.35 303.9 172.25 L304.05 174.2 304.2 175.75 304.15 175.8 299.55 178.6 296.4 180.9 299.55 178.6 304.15 175.8 304.2 175.75 304.2 175.9 304.25 175.95 300.2 179.65 297.75 181.9 296.8 182.5 296.4 180.9 295.55 177.6 M304.8 171.55 L305.05 171.4 306.45 170.35 307.5 173.05 305.9 174.5 305.1 175.2 305.05 175.25 305.1 175.2 305.05 175.25 304.95 173.55 304.8 171.55 M299.55 178.6 L300.2 179.65 299.55 178.6" fill="#302b16" fill-rule="evenodd" stroke="none"/>
    <path d="M303.9 172.25 L304.8 171.55 304.95 173.55 304.05 174.2 303.9 172.25 M309.3 168.05 L310.45 167.1 312.25 168.5 311.45 169.05 309.3 168.05" fill="#f5ef76" fill-rule="evenodd" stroke="none"/>
    <path d="M311.0 166.65 L315.15 162.85 316.05 162.05 318.8 159.35 320.55 159.85 319.75 161.45 319.25 162.35 319.15 162.45 319.2 162.45 317.8 165.2 320.4 162.6 Q321.9 161.25 322.95 160.9 L323.05 163.0 315.15 170.35 314.2 171.15 313.8 171.55 312.55 168.75 312.35 168.6 313.25 167.8 311.0 166.65 M312.65 172.5 L308.6 175.9 306.5 177.55 305.1 175.75 305.05 175.25 305.1 175.2 305.9 174.5 307.5 173.05 311.7 169.2 312.05 169.35 312.65 172.5 M305.75 178.15 L301.4 181.45 297.3 184.45 291.15 188.55 289.65 186.85 296.8 182.5 297.75 181.9 300.2 179.65 304.25 175.95 305.75 178.15 M313.25 167.8 L313.5 167.9 313.4 167.65 313.25 167.8 M301.4 181.45 L300.2 179.65 301.4 181.45" fill="#17150b" fill-rule="evenodd" stroke="none"/>
    <path d="M291.15 188.55 L290.85 188.75 290.15 189.25 Q275.0 200.5 262.25 213.65 247.65 228.55 236.15 245.95 L235.9 245.9 Q235.35 243.05 233.55 240.6 L242.05 233.8 254.35 217.0 259.15 210.45 280.75 192.3 286.8 188.6 289.65 186.85 291.15 188.55 M313.25 167.8 L313.4 167.65 313.5 167.9 313.25 167.8 M254.35 217.0 L254.9 217.7 252.0 221.85 254.9 217.7 254.35 217.0 M266.45 205.75 L254.9 217.7 266.45 205.75" fill="#494123" fill-rule="evenodd" stroke="none"/>
    <path d="M313.8 171.55 L312.65 172.5 312.05 169.35 311.7 169.2 311.45 169.05 312.25 168.5 312.35 168.6 312.55 168.75 313.8 171.55 M306.5 177.55 L305.75 178.15 304.25 175.95 304.2 175.9 304.2 175.75 304.05 174.2 304.95 173.55 305.05 175.25 305.1 175.75 306.5 177.55 M304.2 175.75 L305.05 175.25 304.2 175.75" fill="#ec7b4a" fill-rule="evenodd" stroke="none"/>
    <path d="M286.2 182.95 Q290.05 180.7 293.85 178.5 L295.55 177.6 296.4 180.9 288.6 185.65 296.4 180.9 296.8 182.5 289.65 186.85 288.6 185.65 286.2 182.95" fill="#443d20" fill-rule="evenodd" stroke="none"/>
    <path d="M228.35 235.8 L228.35 235.7 231.2 232.5 247.0 214.65 247.35 214.25 247.7 213.9 247.95 213.65 253.7 207.55 Q258.55 202.55 264.2 197.95 L265.55 196.85 267.7 195.15 269.8 193.55 271.8 192.1 272.05 191.9 274.7 190.05 280.5 186.25 286.2 182.95 288.6 185.65 289.65 186.85 286.8 188.6 285.75 187.05 288.6 185.65 285.75 187.05 286.8 188.6 280.75 192.3 259.15 210.45 254.35 217.0 242.05 233.8 233.55 240.6 Q231.65 237.95 228.35 235.8 L231.2 232.5 228.35 235.8 M285.75 187.05 L279.4 190.95 285.75 187.05 M257.75 209.9 L262.15 205.6 266.2 201.6 262.15 205.6 257.75 209.9 M255.1 213.65 L253.35 215.85 254.35 217.0 253.35 215.85 238.2 234.0 253.35 215.85 255.1 213.65 M262.15 205.6 L260.65 203.9 262.15 205.6" fill="#726636" fill-rule="evenodd" stroke="none"/>
    <path d="M235.9 245.9 Q231.9 247.9 227.35 245.15 226.1 240.45 228.35 235.8 231.65 237.95 233.55 240.6 235.35 243.05 235.9 245.9" fill="#acc5a5" fill-rule="evenodd" stroke="none"/>
    <path d="M311.0 166.65 L315.15 162.85 316.05 162.05 318.8 159.35 320.55 159.85 319.75 161.45 319.2 162.45 317.8 165.2 320.4 162.6 Q321.9 161.25 322.95 160.9 L323.05 163.0 315.15 170.35 314.2 171.15 313.8 171.55 312.65 172.5 308.6 175.9 306.5 177.55 305.75 178.15 301.4 181.45 297.3 184.45 291.15 188.55 290.85 188.75 290.15 189.25 Q275.0 200.5 262.25 213.65 247.65 228.55 236.15 245.95 M235.9 245.9 Q231.9 247.9 227.35 245.15 226.1 240.45 228.35 235.8 L231.2 232.5 247.0 214.65 247.35 214.25 247.7 213.9 247.95 213.65 253.7 207.55 Q258.55 202.55 264.2 197.95 L265.55 196.85 267.7 195.15 269.8 193.55 271.8 192.1 272.05 191.9 274.7 190.05 280.5 186.25 286.2 182.95 Q290.05 180.7 293.85 178.5 L295.55 177.6 Q299.6 175.35 303.9 172.25 L304.8 171.55 M305.05 171.4 L306.45 170.35 309.3 168.05 310.45 167.1 311.0 166.65" fill="none" stroke="#000000" stroke-linecap="round" stroke-linejoin="round" stroke-opacity="0.6" stroke-width="0.6000000000000001"/>
    <path d="M305.1 175.2 L305.9 174.5 M305.05 175.25 L305.1 175.2 M305.05 175.25 L304.2 175.75 304.15 175.8 299.55 178.6 296.4 180.9 288.6 185.65 285.75 187.05 286.8 188.6 M279.4 190.95 L285.75 187.05 M300.2 179.65 L301.4 181.45 M300.2 179.65 L299.55 178.6 M266.2 201.6 L262.15 205.6 257.75 209.9 M252.0 221.85 L254.9 217.7 254.35 217.0 253.35 215.85 238.2 234.0 M253.35 215.85 L255.1 213.65 M254.9 217.7 L266.45 205.75 M260.65 203.9 L262.15 205.6" fill="none" stroke="#000000" stroke-linecap="round" stroke-linejoin="round" stroke-opacity="0.6" stroke-width="0.05"/>
    <path d="M236.15 245.95 L235.9 245.9 Q235.35 243.05 233.55 240.6 231.65 237.95 228.35 235.8 L228.35 235.7" fill="none" stroke="#000000" stroke-linecap="round" stroke-linejoin="round" stroke-width="0.05"/>
    <path d="M295.55 172.95 Q295.55 171.35 296.7 170.2 297.85 169.1 299.45 169.1 301.05 169.1 302.2 170.2 303.35 171.35 303.35 172.95 303.35 174.55 302.2 175.7 301.05 176.85 299.45 176.85 297.85 176.85 296.7 175.7 295.55 174.55 295.55 172.95 M296.7 172.85 Q296.65 174.05 297.55 174.95 298.45 175.8 299.65 175.8 300.9 175.8 301.75 174.95 302.65 174.05 302.65 172.85 302.65 171.6 301.75 170.7 300.9 169.85 299.65 169.85 298.45 169.85 297.55 170.7 296.65 171.6 296.7 172.85" fill="#e4dfd3" fill-opacity="0.6" fill-rule="evenodd" stroke="none"/>
    <path d="M296.7 172.85 Q296.65 171.6 297.55 170.7 298.45 169.85 299.65 169.85 300.9 169.85 301.75 170.7 302.65 171.6 302.65 172.85 302.65 174.05 301.75 174.95 300.9 175.8 299.65 175.8 298.45 175.8 297.55 174.95 296.65 174.05 296.7 172.85" fill="#fdfff0" fill-rule="evenodd" stroke="none"/>
    <path d="M302.2 164.4 Q302.2 165.25 302.8 165.85 303.4 166.45 304.25 166.45 305.1 166.45 305.65 165.85 306.25 165.25 306.25 164.4 306.25 163.6 305.65 163.0 305.1 162.4 304.25 162.4 303.4 162.4 302.8 163.0 302.2 163.6 302.2 164.4 M301.45 164.5 Q301.45 163.4 302.2 162.65 303.0 161.85 304.1 161.85 305.2 161.85 305.95 162.65 306.75 163.4 306.75 164.5 306.75 165.6 305.95 166.4 305.2 167.15 304.1 167.15 303.0 167.15 302.2 166.4 301.45 165.6 301.45 164.5" fill="#e4dfd3" fill-opacity="0.6" fill-rule="evenodd" stroke="none"/>
    <path d="M302.2 164.4 Q302.2 163.6 302.8 163.0 303.4 162.4 304.25 162.4 305.1 162.4 305.65 163.0 306.25 163.6 306.25 164.4 306.25 165.25 305.65 165.85 305.1 166.45 304.25 166.45 303.4 166.45 302.8 165.85 302.2 165.25 302.2 164.4" fill="#fdfff0" fill-rule="evenodd" stroke="none"/>
    <path d="M298.75 162.65 Q298.75 161.55 299.5 160.8 300.3 160.0 301.4 160.0 302.5 160.0 303.25 160.8 304.05 161.55 304.05 162.65 304.05 163.75 303.25 164.55 302.5 165.3 301.4 165.3 300.3 165.3 299.5 164.55 298.75 163.75 298.75 162.65 M299.5 162.55 Q299.5 163.4 300.1 164.0 300.7 164.6 301.55 164.6 302.4 164.6 302.95 164.0 303.55 163.4 303.55 162.55 303.55 161.75 302.95 161.15 302.4 160.55 301.55 160.55 300.7 160.55 300.1 161.15 299.5 161.75 299.5 162.55" fill="#e4dfd3" fill-opacity="0.6" fill-rule="evenodd" stroke="none"/>
    <path d="M299.5 162.55 Q299.5 161.75 300.1 161.15 300.7 160.55 301.55 160.55 302.4 160.55 302.95 161.15 303.55 161.75 303.55 162.55 303.55 163.4 302.95 164.0 302.4 164.6 301.55 164.6 300.7 164.6 300.1 164.0 299.5 163.4 299.5 162.55" fill="#fdfff0" fill-rule="evenodd" stroke="none"/>
    <path d="M299.55 156.05 Q299.55 156.6 299.95 157.05 300.4 157.45 301.0 157.45 301.6 157.45 302.0 157.05 L302.45 156.05 Q302.45 155.45 302.0 155.0 301.6 154.6 301.0 154.6 300.4 154.6 299.95 155.0 299.55 155.45 299.55 156.05 M299.0 156.1 Q299.0 155.3 299.55 154.75 300.1 154.2 300.9 154.2 301.65 154.2 302.2 154.75 302.75 155.3 302.75 156.1 302.75 156.85 302.2 157.4 301.65 157.95 300.9 157.95 300.1 157.95 299.55 157.4 299.0 156.85 299.0 156.1" fill="#e4dfd3" fill-opacity="0.6" fill-rule="evenodd" stroke="none"/>
    <path d="M299.55 156.05 Q299.55 155.45 299.95 155.0 300.4 154.6 301.0 154.6 301.6 154.6 302.0 155.0 302.45 155.45 302.45 156.05 L302.0 157.05 Q301.6 157.45 301.0 157.45 300.4 157.45 299.95 157.05 299.55 156.6 299.55 156.05" fill="#fdfff0" fill-rule="evenodd" stroke="none"/>
  </g>
</svg>
