<?xml version="1.0" encoding="UTF-8" standalone="no"?>
<svg xmlns:xlink="http://www.w3.org/1999/xlink" height="98.2px" width="71.6px" xmlns="http://www.w3.org/2000/svg">
  <g transform="matrix(1.0, 0.0, 0.0, 1.0, -239.15, -150.85)">
    <path d="M294.0 153.25 Q293.6 153.65 293.05 153.65 292.5 153.65 292.1 153.25 291.7 152.85 291.7 152.3 291.7 151.75 292.1 151.35 292.5 150.95 293.05 150.95 293.6 150.95 294.0 151.35 294.4 151.75 294.4 152.3 294.4 152.85 294.0 153.25 M296.95 169.25 Q297.95 166.35 294.35 164.45 L292.15 162.55 Q290.75 160.95 292.15 159.9 293.2 159.25 294.2 161.8 294.35 163.4 296.1 162.85 296.75 160.75 294.95 159.0 293.85 157.7 294.9 155.95 295.9 154.25 296.55 155.1 297.15 155.95 297.45 159.0 297.7 161.25 298.8 160.3 L299.2 159.9 Q299.6 157.65 302.6 156.75 305.95 156.55 302.5 159.15 299.35 161.95 302.5 165.65 309.65 171.05 309.0 180.65 L307.3 179.05 Q308.6 175.0 305.3 171.45 L303.55 170.4 Q303.9 170.2 303.8 169.45 L303.25 167.9 Q302.8 167.1 302.2 166.65 L301.45 166.35 Q299.3 165.0 300.0 161.25 298.9 160.2 298.35 162.55 298.15 165.05 295.85 164.05 L298.35 166.55 Q299.35 168.75 298.2 170.45 L296.95 169.25" fill="#954a00" fill-rule="evenodd" stroke="none"/>
    <path d="M296.95 169.25 L298.2 170.45 307.3 179.05 309.0 180.65 310.15 181.75 309.05 182.85 Q297.55 171.8 295.1 172.0 293.6 174.1 293.55 181.65 L292.45 180.7 293.55 181.65 299.55 186.9 Q300.0 187.85 299.8 188.25 L291.3 180.85 292.45 180.7 Q291.95 171.45 296.1 168.45 L296.95 169.25 M308.6 183.2 L309.3 183.75 Q310.65 185.1 310.65 187.05 310.65 189.0 309.3 190.35 308.15 191.5 306.6 191.7 L309.15 189.1 Q311.3 185.1 305.7 182.35 L308.6 183.2 M307.1 189.2 Q305.45 190.75 304.2 189.9 L303.65 189.5 Q301.95 187.4 302.35 185.9 L303.65 185.9 Q303.4 186.4 303.4 187.0 303.4 188.0 304.15 188.75 304.85 189.5 305.95 189.5 L307.1 189.2" fill="#fff8e6" fill-rule="evenodd" stroke="none"/>
    <path d="M249.0 230.85 L251.35 228.85 253.45 226.8 256.1 224.0 260.15 219.6 265.1 214.3 270.85 208.15 271.25 208.65 265.75 214.65 265.1 214.3 265.75 214.65 260.9 219.95 260.15 219.6 260.9 219.95 256.65 224.6 252.4 229.3 249.6 232.3 249.0 230.85 M280.3 197.1 L279.9 196.55 Q282.5 194.5 284.95 192.05 L286.15 190.85 287.0 189.9 289.0 187.65 289.95 186.5 291.15 184.9 291.75 184.1 292.4 185.8 290.85 187.4 289.45 188.85 287.95 190.4 287.0 189.9 287.95 190.4 286.75 191.7 285.35 193.1 284.95 192.05 285.35 193.1 280.3 197.1 M289.0 187.65 L289.45 188.85 289.0 187.65 M289.95 186.5 L290.85 187.4 289.95 186.5 M291.15 184.9 L292.4 185.8 291.15 184.9 M286.15 190.85 L286.75 191.7 286.15 190.85 M256.65 224.6 L256.1 224.0 256.65 224.6 M251.35 228.85 L252.4 229.3 251.35 228.85" fill="#aa84dd" fill-rule="evenodd" stroke="none"/>
    <path d="M299.8 188.25 L298.65 188.4 297.3 187.2 292.6 183.0 291.4 181.9 Q290.95 181.15 291.3 180.85 L299.8 188.25" fill="#f2e2c6" fill-rule="evenodd" stroke="none"/>
    <path d="M297.3 187.2 L296.05 188.4 294.0 190.5 291.3 193.65 289.6 195.9 Q288.4 197.5 287.55 199.05 285.6 202.45 285.35 205.25 L284.05 204.25 283.45 201.6 283.45 201.55 283.4 199.3 286.3 195.75 288.05 193.6 289.6 195.9 288.05 193.6 289.85 191.4 290.25 190.95 292.1 188.65 293.65 186.7 296.05 188.4 293.65 186.7 294.3 185.9 291.75 184.1 292.6 183.0 297.3 187.2 M273.75 211.9 L269.5 216.45 267.75 218.45 264.65 221.9 259.55 227.75 256.75 231.05 254.75 233.45 251.65 237.25 250.2 233.75 253.65 229.8 257.4 225.45 259.55 227.75 257.4 225.45 261.75 220.4 266.45 215.0 271.6 209.1 272.3 210.05 273.75 211.9 M294.0 190.5 L292.1 188.65 294.0 190.5 M291.3 193.65 L290.55 191.8 290.25 190.95 290.55 191.8 291.3 193.65 M269.5 216.45 L266.7 215.1 266.45 215.0 266.7 215.1 269.5 216.45 M290.55 191.8 L289.85 191.4 290.55 191.8 M287.55 199.05 L286.3 195.75 287.55 199.05 M264.65 221.9 L261.75 220.4 264.65 221.9 M254.05 229.95 L253.65 229.8 254.05 229.95 256.75 231.05 254.05 229.95 254.75 233.45 254.05 229.95 M267.75 218.45 L266.7 215.1 267.75 218.45" fill="#663399" fill-rule="evenodd" stroke="none"/>
    <path d="M280.65 197.6 L280.3 197.1 285.35 193.1 286.75 191.7 288.05 193.6 286.75 191.7 287.95 190.4 289.45 188.85 290.85 187.4 292.1 188.65 290.85 187.4 292.4 185.8 293.65 186.7 292.4 185.8 291.75 184.1 294.3 185.9 293.65 186.7 292.1 188.65 290.25 190.95 289.45 188.85 290.25 190.95 289.85 191.4 287.95 190.4 289.85 191.4 288.05 193.6 286.3 195.75 285.35 193.1 286.3 195.75 283.4 199.3 Q283.5 197.85 284.05 196.55 L282.55 197.0 281.35 198.6 280.65 197.6 M266.45 215.0 L265.75 214.65 266.45 215.0 261.75 220.4 257.4 225.45 256.65 224.6 257.4 225.45 253.65 229.8 252.4 229.3 253.65 229.8 250.2 233.75 249.6 232.3 252.4 229.3 256.65 224.6 260.9 219.95 265.75 214.65 271.25 208.65 271.6 209.1 266.45 215.0 M261.75 220.4 L260.9 219.95 261.75 220.4" fill="#7236c2" fill-rule="evenodd" stroke="none"/>
    <path d="M309.05 182.85 L308.6 183.2 305.7 182.35 Q311.3 185.1 309.15 189.1 L306.6 191.7 306.0 191.7 Q304.05 191.7 302.7 190.35 301.35 189.0 301.35 187.05 L301.4 186.55 299.55 186.9 293.55 181.65 Q293.6 174.1 295.1 172.0 297.55 171.8 309.05 182.85 M303.65 185.9 L302.35 185.9 Q301.95 187.4 303.65 189.5 L304.2 189.9 Q305.45 190.75 307.1 189.2 L307.7 188.75 Q308.45 188.0 308.45 187.0 308.45 185.9 307.7 185.2 307.2 184.7 306.6 184.55 L303.65 185.9" fill="url(#gradient0)" fill-rule="evenodd" stroke="none"/>
    <path d="M240.4 248.95 L239.3 246.95 240.85 245.15 245.9 238.5 240.15 244.1 239.25 243.05 246.2 234.65 245.95 234.8 246.65 233.65 239.55 237.45 239.25 236.7 Q243.55 234.8 247.3 232.15 L248.15 236.75 240.4 248.95 M270.85 208.15 L276.2 202.35 276.8 201.7 278.7 199.65 278.7 201.6 280.45 201.1 281.65 200.7 280.7 201.65 280.45 201.1 280.7 201.65 279.2 203.2 278.1 204.3 272.3 210.05 271.6 209.1 271.25 208.65 270.85 208.15 M276.2 202.35 L278.1 204.3 276.2 202.35 M279.2 203.2 L276.8 201.7 279.2 203.2" fill="#996600" fill-rule="evenodd" stroke="none"/>
    <path d="M283.45 201.6 L281.65 203.5 280.9 204.25 279.5 205.75 273.75 211.9 272.3 210.05 278.1 204.3 279.5 205.75 278.1 204.3 279.2 203.2 280.7 201.65 281.65 200.7 280.45 201.1 279.35 198.95 280.65 197.6 281.35 198.6 282.55 197.0 284.05 196.55 Q283.5 197.85 283.4 199.3 L283.45 201.55 283.45 201.6 M251.65 237.25 L242.55 248.95 240.4 248.95 248.15 236.75 247.3 232.15 249.0 230.85 249.6 232.3 250.2 233.75 251.65 237.25 M240.85 245.15 L240.15 244.1 245.9 238.5 240.85 245.15 M245.95 234.8 L239.85 238.2 239.55 237.45 246.65 233.65 245.95 234.8 M278.7 199.65 L279.35 198.95 280.45 201.1 278.7 201.6 278.7 199.65 M281.65 203.5 L280.7 201.65 281.65 203.5 M280.9 204.25 L279.2 203.2 280.9 204.25" fill="#795200" fill-rule="evenodd" stroke="none"/>
    <path d="M304.75 153.75 Q305.15 153.75 305.4 154.0 L305.7 154.7 305.4 155.35 304.75 155.65 304.05 155.35 303.8 154.7 Q303.8 154.3 304.05 154.0 304.35 153.75 304.75 153.75" fill="#663300" fill-rule="evenodd" stroke="none"/>
    <path d="M298.2 170.45 Q299.35 168.75 298.35 166.55 L295.85 164.05 Q298.15 165.05 298.35 162.55 298.9 160.2 300.0 161.25 299.3 165.0 301.45 166.35 L301.25 166.4 Q300.9 166.6 300.95 167.35 301.05 168.1 301.55 168.9 302.0 169.7 302.6 170.15 303.2 170.6 303.55 170.4 L305.3 171.45 Q308.6 175.0 307.3 179.05 L298.2 170.45" fill="url(#gradient1)" fill-rule="evenodd" stroke="none"/>
    <path d="M294.0 153.25 Q293.6 153.65 293.05 153.65 292.5 153.65 292.1 153.25 291.7 152.85 291.7 152.3 291.7 151.75 292.1 151.35 292.5 150.95 293.05 150.95 293.6 150.95 294.0 151.35 294.4 151.75 294.4 152.3 294.4 152.85 294.0 153.25 M309.0 180.65 Q309.65 171.05 302.5 165.65 299.35 161.95 302.5 159.15 305.95 156.55 302.6 156.75 299.6 157.65 299.2 159.9 L298.8 160.3 Q297.7 161.25 297.45 159.0 297.15 155.95 296.55 155.1 295.9 154.25 294.9 155.95 293.85 157.7 294.95 159.0 296.75 160.75 296.1 162.85 294.35 163.4 294.2 161.8 293.2 159.25 292.15 159.9 290.75 160.95 292.15 162.55 L294.35 164.45 Q297.95 166.35 296.95 169.25 L298.2 170.45 307.3 179.05 309.0 180.65 310.15 181.75 309.05 182.85 308.6 183.2 M301.4 186.55 L299.55 186.9 Q300.0 187.85 299.8 188.25 L298.65 188.4 297.3 187.2 296.05 188.4 294.0 190.5 291.3 193.65 289.6 195.9 Q288.4 197.5 287.55 199.05 285.6 202.45 285.35 205.25 L284.05 204.25 283.45 201.6 281.65 203.5 280.9 204.25 279.5 205.75 273.75 211.9 269.5 216.45 267.75 218.45 264.65 221.9 259.55 227.75 256.75 231.05 254.75 233.45 251.65 237.25 242.55 248.95 240.4 248.95 239.3 246.95 240.85 245.15 240.15 244.1 239.25 243.05 246.2 234.65 245.95 234.8 239.85 238.2 239.55 237.45 239.25 236.7 Q243.55 234.8 247.3 232.15 L249.0 230.85 251.35 228.85 253.45 226.8 256.1 224.0 260.15 219.6 265.1 214.3 270.85 208.15 276.2 202.35 276.8 201.7 278.7 199.65 279.35 198.95 280.65 197.6 280.3 197.1 279.9 196.55 Q282.5 194.5 284.95 192.05 L286.15 190.85 287.0 189.9 289.0 187.65 289.95 186.5 291.15 184.9 291.75 184.1 292.6 183.0 291.4 181.9 Q290.95 181.15 291.3 180.85 L292.45 180.7 Q291.95 171.45 296.1 168.45 L296.95 169.25 M292.45 180.7 L293.55 181.65 299.55 186.9 M289.45 188.85 L289.0 187.65 M292.1 188.65 L290.85 187.4 289.95 186.5 M289.45 188.85 L290.25 190.95 290.55 191.8 291.3 193.65 M293.65 186.7 L292.4 185.8 291.15 184.9 M293.65 186.7 L296.05 188.4 M292.1 188.65 L294.0 190.5 M287.0 189.9 L287.95 190.4 289.85 191.4 290.55 191.8 M265.75 214.65 L266.45 215.0 266.7 215.1 269.5 216.45 M271.6 209.1 L271.25 208.65 270.85 208.15 M265.75 214.65 L265.1 214.3 M272.3 210.05 L273.75 211.9 M271.6 209.1 L272.3 210.05 M278.1 204.3 L276.2 202.35 M288.05 193.6 L289.6 195.9 M288.05 193.6 L286.75 191.7 286.15 190.85 M285.35 193.1 L286.3 195.75 287.55 199.05 M280.65 197.6 L281.35 198.6 282.55 197.0 284.05 196.55 Q283.5 197.85 283.4 199.3 L283.45 201.55 283.45 201.6 M284.95 192.05 L285.35 193.1 M280.7 201.65 L281.65 203.5 M280.45 201.1 L280.7 201.65 M279.2 203.2 L280.9 204.25 M280.45 201.1 L279.35 198.95 M278.1 204.3 L279.5 205.75 M276.8 201.7 L279.2 203.2 M304.75 153.75 Q305.15 153.75 305.4 154.0 L305.7 154.7 305.4 155.35 304.75 155.65 304.05 155.35 303.8 154.7 Q303.8 154.3 304.05 154.0 304.35 153.75 304.75 153.75 M303.65 185.9 L306.6 184.55 M297.3 187.2 L292.6 183.0 M261.75 220.4 L264.65 221.9 M257.4 225.45 L259.55 227.75 M257.4 225.45 L256.65 224.6 256.1 224.0 M252.4 229.3 L253.65 229.8 254.05 229.95 254.75 233.45 M260.15 219.6 L260.9 219.95 261.75 220.4 M256.75 231.05 L254.05 229.95 M249.6 232.3 L250.2 233.75 251.65 237.25 M249.0 230.85 L249.6 232.3 M252.4 229.3 L251.35 228.85 M240.85 245.15 L245.9 238.5 M266.7 215.1 L267.75 218.45" fill="none" stroke="#000000" stroke-linecap="round" stroke-linejoin="round" stroke-opacity="0.3019608" stroke-width="0.2"/>
    <path d="M301.45 166.35 L302.2 166.65 Q302.8 167.1 303.25 167.9 L303.8 169.45 Q303.9 170.2 303.55 170.4 303.2 170.6 302.6 170.15 302.0 169.7 301.55 168.9 301.05 168.1 300.95 167.35 300.9 166.6 301.25 166.4 L301.45 166.35 M308.6 183.2 L309.3 183.75 Q310.65 185.1 310.65 187.05 310.65 189.0 309.3 190.35 308.15 191.5 306.6 191.7 L306.0 191.7 Q304.05 191.7 302.7 190.35 301.35 189.0 301.35 187.05 L301.4 186.55 M307.1 189.2 L305.95 189.5 Q304.85 189.5 304.15 188.75 303.4 188.0 303.4 187.0 303.4 186.4 303.65 185.9 M306.6 184.55 Q307.2 184.7 307.7 185.2 308.45 185.9 308.45 187.0 308.45 188.0 307.7 188.75 L307.1 189.2" fill="none" stroke="#000000" stroke-linecap="round" stroke-linejoin="round" stroke-opacity="0.3019608" stroke-width="0.2"/>
  </g>
  <defs>
    <linearGradient gradientTransform="matrix(0.006, 0.0103, -0.0068, 0.0039, 302.05, 183.6)" gradientUnits="userSpaceOnUse" id="gradient0" spreadMethod="pad" x1="-819.2" x2="819.2">
      <stop offset="0.0" stop-color="#f2e2c6"/>
      <stop offset="1.0" stop-color="#fff8e6"/>
    </linearGradient>
    <linearGradient gradientTransform="matrix(-0.0049, -0.0085, 0.0033, -0.0019, 300.05, 167.5)" gradientUnits="userSpaceOnUse" id="gradient1" spreadMethod="pad" x1="-819.2" x2="819.2">
      <stop offset="0.0" stop-color="#663300"/>
      <stop offset="1.0" stop-color="#954a00"/>
    </linearGradient>
  </defs>
</svg>
