<?xml version="1.0" encoding="UTF-8" standalone="no"?>
<svg xmlns:xlink="http://www.w3.org/1999/xlink" height="106.3px" width="280.25px" xmlns="http://www.w3.org/2000/svg">
  <g transform="matrix(1.0, 0.0, 0.0, 1.0, 140.1, 53.1)">
    <path d="M5.7 -12.45 L4.6 -12.95 0.55 -13.15 Q-1.85 -12.85 -3.5 -11.85 L-4.6 -11.0 Q-5.2 -11.45 -5.2 -12.05 -5.2 -13.1 -3.5 -14.1 -1.85 -15.1 0.55 -15.4 L4.6 -15.2 Q6.25 -14.7 6.25 -13.65 6.25 -13.05 5.7 -12.45 M28.3 -2.2 Q27.75 -2.65 27.75 -3.25 27.75 -4.3 29.4 -5.25 31.1 -6.25 33.45 -6.6 L37.5 -6.4 Q39.2 -5.9 39.2 -4.8 39.2 -4.2 38.65 -3.6 L37.5 -4.15 33.45 -4.35 Q31.1 -4.0 29.4 -3.0 L28.3 -2.2 M96.45 6.2 Q87.35 12.1 89.35 19.15 L87.4 16.55 Q87.65 12.35 89.75 10.4 93.8 5.95 96.45 6.2 M101.3 15.8 Q100.75 15.35 100.75 14.75 100.75 13.7 102.4 12.7 104.1 11.7 106.45 11.4 L110.5 11.6 Q112.2 12.1 112.2 13.15 112.2 13.75 111.65 14.35 L110.5 13.85 106.45 13.65 Q104.1 13.95 102.4 14.95 L101.3 15.8 M71.95 13.05 Q73.6 11.5 75.9 11.2 78.25 10.85 79.9 12.05 81.6 13.2 81.6 15.15 L81.6 15.55 Q81.4 17.25 79.9 18.75 78.25 20.35 75.9 20.7 73.5 21.0 71.85 19.85 70.15 18.7 70.15 16.75 70.15 14.8 71.85 13.15 L71.95 13.05 M61.2 5.7 Q60.6 5.25 60.6 4.65 60.6 3.6 62.25 2.6 63.95 1.6 66.35 1.3 L70.4 1.5 Q72.05 2.0 72.1 3.05 72.1 3.65 71.55 4.25 71.1 3.95 70.4 3.75 L66.35 3.55 Q63.95 3.85 62.25 4.85 L61.2 5.7 M74.1 14.6 Q73.85 14.3 73.55 14.35 73.2 14.4 72.95 14.75 L72.75 15.6 72.95 16.3 Q73.2 16.6 73.55 16.55 L74.1 16.15 74.35 15.35 74.1 14.6 M77.9 13.95 Q77.55 13.5 77.05 13.6 76.5 13.65 76.1 14.2 75.75 14.8 75.75 15.5 75.75 16.2 76.1 16.65 76.5 17.15 77.05 17.1 L77.9 16.4 Q78.3 15.85 78.3 15.15 78.3 14.45 77.9 13.95 M-105.45 -41.15 L-114.95 -44.55 -116.75 -41.75 -118.95 -42.4 -115.9 -46.7 -103.75 -43.5 -105.45 -41.15 M-57.8 -25.3 Q-58.4 -25.75 -58.4 -26.35 -58.4 -27.4 -56.7 -28.4 -55.05 -29.4 -52.65 -29.7 L-48.6 -29.5 Q-46.95 -29.0 -46.9 -27.95 -46.95 -27.35 -47.5 -26.75 L-48.6 -27.25 -52.65 -27.45 Q-55.05 -27.15 -56.7 -26.15 L-57.8 -25.3 M-34.05 -19.05 Q-34.6 -19.5 -34.6 -20.1 -34.6 -21.15 -32.95 -22.1 -31.25 -23.1 -28.85 -23.4 L-24.85 -23.2 Q-23.15 -22.7 -23.15 -21.65 -23.15 -21.05 -23.7 -20.45 L-24.85 -20.95 -28.85 -21.15 Q-31.25 -20.85 -32.95 -19.85 L-34.05 -19.05" fill="#e7e2a9" fill-rule="evenodd" stroke="none"/>
    <path d="M-4.6 -11.0 L-3.5 -11.85 Q-1.85 -12.85 0.55 -13.15 L4.6 -12.95 5.7 -12.45 4.6 -11.6 Q2.9 -10.65 0.55 -10.3 L-3.5 -10.5 Q-4.2 -10.7 -4.6 -11.0 M38.65 -3.6 L37.5 -2.8 Q35.85 -1.85 33.45 -1.5 L29.4 -1.65 Q28.7 -1.9 28.3 -2.2 L29.4 -3.0 Q31.1 -4.0 33.45 -4.35 L37.5 -4.15 38.65 -3.6 M122.9 42.1 Q121.55 36.7 122.9 30.15 125.6 20.25 128.6 17.85 131.55 15.35 133.95 16.5 136.35 17.65 137.15 28.5 L137.05 29.05 Q135.3 42.25 130.25 48.25 126.4 49.15 124.05 45.55 123.3 43.85 122.9 42.1 M101.3 15.8 L102.4 14.95 Q104.1 13.95 106.45 13.65 L110.5 13.85 111.65 14.35 110.5 15.2 Q108.85 16.15 106.45 16.5 L102.4 16.3 101.3 15.8 M61.2 5.7 L62.25 4.85 Q63.95 3.85 66.35 3.55 L70.4 3.75 Q71.1 3.95 71.55 4.25 L70.4 5.1 Q68.75 6.05 66.35 6.4 L62.25 6.2 61.2 5.7 M77.9 13.95 Q78.3 14.45 78.3 15.15 78.3 15.85 77.9 16.4 L77.05 17.1 Q76.5 17.15 76.1 16.65 75.75 16.2 75.75 15.5 75.75 14.8 76.1 14.2 76.5 13.65 77.05 13.6 77.55 13.5 77.9 13.95 M74.1 14.6 L74.35 15.35 74.1 16.15 73.55 16.55 Q73.2 16.6 72.95 16.3 L72.75 15.6 72.95 14.75 Q73.2 14.4 73.55 14.35 73.85 14.3 74.1 14.6 M-105.45 -41.15 L-107.05 -38.85 -116.75 -41.75 -114.95 -44.55 -105.45 -41.15 M-47.5 -26.75 L-48.6 -25.9 Q-50.25 -24.95 -52.65 -24.6 L-56.7 -24.8 Q-57.4 -25.0 -57.8 -25.3 L-56.7 -26.15 Q-55.05 -27.15 -52.65 -27.45 L-48.6 -27.25 -47.5 -26.75 M-23.7 -20.45 L-24.85 -19.6 Q-26.5 -18.65 -28.85 -18.3 L-32.95 -18.5 Q-33.65 -18.75 -34.05 -19.05 L-32.95 -19.85 Q-31.25 -20.85 -28.85 -21.15 L-24.85 -20.95 -23.7 -20.45" fill="#615f3d" fill-rule="evenodd" stroke="none"/>
    <path d="M5.7 -12.45 Q6.25 -13.05 6.25 -13.65 6.25 -14.7 4.6 -15.2 L0.55 -15.4 Q-1.85 -15.1 -3.5 -14.1 -5.2 -13.1 -5.2 -12.05 -5.2 -11.45 -4.6 -11.0 -4.2 -10.7 -3.5 -10.5 L0.55 -10.3 Q2.9 -10.65 4.6 -11.6 L5.7 -12.45 M38.65 -3.6 Q39.2 -4.2 39.2 -4.8 39.2 -5.9 37.5 -6.4 L33.45 -6.6 Q31.1 -6.25 29.4 -5.25 27.75 -4.3 27.75 -3.25 27.75 -2.65 28.3 -2.2 28.7 -1.9 29.4 -1.65 L33.45 -1.5 Q35.85 -1.85 37.5 -2.8 L38.65 -3.6 M121.65 20.55 L125.7 13.5 121.65 20.55 M100.1 7.1 L125.7 13.5 Q127.85 10.85 131.7 10.45 135.3 10.65 136.4 13.4 139.25 19.75 139.6 26.35 138.3 32.6 137.05 29.05 L137.15 28.5 Q136.35 17.65 133.95 16.5 131.55 15.35 128.6 17.85 125.6 20.25 122.9 30.15 121.55 36.7 122.9 42.1 120.55 43.55 120.8 35.2 121.05 29.25 123.6 23.05 L119.9 30.55 91.4 21.75 89.35 19.15 Q87.35 12.1 96.45 6.2 L100.1 7.1 96.45 6.2 Q93.8 5.95 89.75 10.4 87.65 12.35 87.4 16.55 L87.4 20.25 Q85.8 25.45 84.25 21.5 84.15 19.6 84.3 17.6 L81.6 15.55 81.6 15.15 Q81.6 13.2 79.9 12.05 78.25 10.85 75.9 11.2 73.6 11.5 71.95 13.05 L71.85 13.05 64.8 11.7 -61.4 -23.4 -61.4 -29.7 Q-63.25 -26.9 -63.8 -22.4 -64.1 -20.0 -63.85 -17.85 L-64.4 -15.05 Q-66.4 -17.75 -66.5 -24.3 L-65.7 -27.65 -62.6 -32.75 -64.2 -32.2 -69.2 -25.0 -113.9 -37.15 -139.6 -47.0 -135.3 -52.6 -61.6 -34.4 -61.55 -34.4 -55.9 -36.8 -54.0 -32.5 89.65 5.1 Q91.4 3.1 93.8 1.7 98.4 1.75 100.1 7.1 M111.65 14.35 Q112.2 13.75 112.2 13.15 112.2 12.1 110.5 11.6 L106.45 11.4 Q104.1 11.7 102.4 12.7 100.75 13.7 100.75 14.75 100.75 15.35 101.3 15.8 L102.4 16.3 106.45 16.5 Q108.85 16.15 110.5 15.2 L111.65 14.35 M89.65 5.1 Q85.25 9.8 84.3 17.6 85.25 9.8 89.65 5.1 M71.55 4.25 Q72.1 3.65 72.1 3.05 72.05 2.0 70.4 1.5 L66.35 1.3 Q63.95 1.6 62.25 2.6 60.6 3.6 60.6 4.65 60.6 5.25 61.2 5.7 L62.25 6.2 66.35 6.4 Q68.75 6.05 70.4 5.1 L71.55 4.25 M-116.75 -41.75 L-107.05 -38.85 -105.45 -41.15 -103.75 -43.5 -115.9 -46.7 -118.95 -42.4 -116.75 -41.75 M-61.55 -34.4 L-62.6 -32.75 -61.55 -34.4 M-47.5 -26.75 Q-46.95 -27.35 -46.9 -27.95 -46.95 -29.0 -48.6 -29.5 L-52.65 -29.7 Q-55.05 -29.4 -56.7 -28.4 -58.4 -27.4 -58.4 -26.35 -58.4 -25.75 -57.8 -25.3 -57.4 -25.0 -56.7 -24.8 L-52.65 -24.6 Q-50.25 -24.95 -48.6 -25.9 L-47.5 -26.75 M-54.0 -32.5 L-57.5 -33.35 Q-59.9 -32.1 -61.4 -29.7 -59.9 -32.1 -57.5 -33.35 L-54.0 -32.5 M-23.7 -20.45 Q-23.15 -21.05 -23.15 -21.65 -23.15 -22.7 -24.85 -23.2 L-28.85 -23.4 Q-31.25 -23.1 -32.95 -22.1 -34.6 -21.15 -34.6 -20.1 -34.6 -19.5 -34.05 -19.05 -33.65 -18.75 -32.95 -18.5 L-28.85 -18.3 Q-26.5 -18.65 -24.85 -19.6 L-23.7 -20.45" fill="#fffff0" fill-rule="evenodd" stroke="none"/>
    <path d="M89.35 19.15 L91.4 21.75 119.9 30.55 123.6 23.05 Q121.05 29.25 120.8 35.2 120.55 43.55 122.9 42.1 123.3 43.85 124.05 45.55 126.4 49.15 130.25 48.25 135.3 42.25 137.05 29.05 138.3 32.6 139.6 26.35 L139.5 31.5 Q138.1 45.6 130.6 52.6 125.4 53.2 121.9 49.05 L119.3 42.6 94.75 33.45 Q93.45 37.45 88.15 34.6 87.0 32.95 86.2 31.1 L-56.8 -9.3 -61.4 -6.2 -64.5 -10.0 -64.9 -11.55 -117.7 -26.05 -119.15 -30.7 -128.0 -35.65 Q-128.65 -42.35 -139.6 -43.4 L-139.6 -47.0 -113.9 -37.15 -69.2 -25.0 -64.2 -32.2 -62.6 -32.75 -65.7 -27.65 -66.5 -24.3 Q-66.4 -17.75 -64.4 -15.05 L-63.85 -17.85 Q-64.1 -20.0 -63.8 -22.4 -63.25 -26.9 -61.4 -29.7 L-61.4 -23.4 64.8 11.7 71.85 13.05 71.85 13.15 Q70.15 14.8 70.15 16.75 70.15 18.7 71.85 19.85 73.5 21.0 75.9 20.7 78.25 20.35 79.9 18.75 81.4 17.25 81.6 15.55 L84.3 17.6 Q84.15 19.6 84.25 21.5 85.8 25.45 87.4 20.25 L87.4 16.55 89.35 19.15 M86.2 31.1 Q84.45 26.85 84.25 21.5 84.45 26.85 86.2 31.1 M119.3 36.8 L119.3 42.6 119.3 36.8 M87.4 23.95 Q87.5 28.4 90.75 31.95 L94.75 33.45 90.75 31.95 Q87.5 28.4 87.4 23.95 M-56.8 -9.3 L-60.75 -10.4 Q-63.45 -13.45 -63.85 -17.85 -63.45 -13.45 -60.75 -10.4 L-56.8 -9.3 M-66.35 -17.15 L-64.9 -11.55 -66.35 -17.15" fill="#e9eba9" fill-rule="evenodd" stroke="none"/>
    <path d="M5.7 -12.45 Q6.25 -13.05 6.25 -13.65 6.25 -14.7 4.6 -15.2 L0.55 -15.4 Q-1.85 -15.1 -3.5 -14.1 -5.2 -13.1 -5.2 -12.05 -5.2 -11.45 -4.6 -11.0 -4.2 -10.7 -3.5 -10.5 L0.55 -10.3 Q2.9 -10.65 4.6 -11.6 L5.7 -12.45 M28.3 -2.2 Q27.75 -2.65 27.75 -3.25 27.75 -4.3 29.4 -5.25 31.1 -6.25 33.45 -6.6 L37.5 -6.4 Q39.2 -5.9 39.2 -4.8 39.2 -4.2 38.65 -3.6 L37.5 -2.8 Q35.85 -1.85 33.45 -1.5 L29.4 -1.65 Q28.7 -1.9 28.3 -2.2 M125.7 13.5 L121.65 20.55 M139.6 26.35 Q139.25 19.75 136.4 13.4 135.3 10.65 131.7 10.45 127.85 10.85 125.7 13.5 L100.1 7.1 96.45 6.2 Q93.8 5.95 89.75 10.4 M122.9 42.1 Q121.55 36.7 122.9 30.15 125.6 20.25 128.6 17.85 131.55 15.35 133.95 16.5 136.35 17.65 137.15 28.5 L137.05 29.05 Q135.3 42.25 130.25 48.25 126.4 49.15 124.05 45.55 123.3 43.85 122.9 42.1 M139.6 26.35 L139.5 31.5 Q138.1 45.6 130.6 52.6 125.4 53.2 121.9 49.05 L119.3 42.6 94.75 33.45 Q93.45 37.45 88.15 34.6 87.0 32.95 86.2 31.1 L-56.8 -9.3 -61.4 -6.2 -64.5 -10.0 -64.9 -11.55 -117.7 -26.05 -119.15 -30.7 -128.0 -35.65 Q-128.65 -42.35 -139.6 -43.4 L-139.6 -47.0 -135.3 -52.6 -61.6 -34.4 -61.55 -34.4 -55.9 -36.8 -54.0 -32.5 89.65 5.1 Q91.4 3.1 93.8 1.7 98.4 1.75 100.1 7.1 M111.65 14.35 Q112.2 13.75 112.2 13.15 112.2 12.1 110.5 11.6 L106.45 11.4 Q104.1 11.7 102.4 12.7 100.75 13.7 100.75 14.75 100.75 15.35 101.3 15.8 L102.4 16.3 106.45 16.5 Q108.85 16.15 110.5 15.2 L111.65 14.35 M84.3 17.6 Q84.15 19.6 84.25 21.5 84.45 26.85 86.2 31.1 M84.3 17.6 Q85.25 9.8 89.65 5.1 M71.95 13.05 Q73.6 11.5 75.9 11.2 78.25 10.85 79.9 12.05 81.6 13.2 81.6 15.15 L81.6 15.55 Q81.4 17.25 79.9 18.75 78.25 20.35 75.9 20.7 73.5 21.0 71.85 19.85 70.15 18.7 70.15 16.75 70.15 14.8 71.85 13.15 L71.95 13.05 M-61.4 -29.7 Q-63.25 -26.9 -63.8 -22.4 -64.1 -20.0 -63.85 -17.85 -63.45 -13.45 -60.75 -10.4 L-56.8 -9.3 M94.75 33.45 L90.75 31.95 Q87.5 28.4 87.4 23.95 M119.3 42.6 L119.3 36.8 M71.55 4.25 Q72.1 3.65 72.1 3.05 72.05 2.0 70.4 1.5 L66.35 1.3 Q63.95 1.6 62.25 2.6 60.6 3.6 60.6 4.65 60.6 5.25 61.2 5.7 L62.25 6.2 66.35 6.4 Q68.75 6.05 70.4 5.1 L71.55 4.25 M-116.75 -41.75 L-107.05 -38.85 -105.45 -41.15 -103.75 -43.5 -115.9 -46.7 -118.95 -42.4 -116.75 -41.75 M-62.6 -32.75 L-61.55 -34.4 M-57.8 -25.3 Q-58.4 -25.75 -58.4 -26.35 -58.4 -27.4 -56.7 -28.4 -55.05 -29.4 -52.65 -29.7 L-48.6 -29.5 Q-46.95 -29.0 -46.9 -27.95 -46.95 -27.35 -47.5 -26.75 L-48.6 -25.9 Q-50.25 -24.95 -52.65 -24.6 L-56.7 -24.8 Q-57.4 -25.0 -57.8 -25.3 M-61.4 -29.7 Q-59.9 -32.1 -57.5 -33.35 L-54.0 -32.5 M-62.6 -32.75 L-65.7 -27.65 M-64.9 -11.55 L-66.35 -17.15 M-34.05 -19.05 Q-34.6 -19.5 -34.6 -20.1 -34.6 -21.15 -32.95 -22.1 -31.25 -23.1 -28.85 -23.4 L-24.85 -23.2 Q-23.15 -22.7 -23.15 -21.65 -23.15 -21.05 -23.7 -20.45 L-24.85 -19.6 Q-26.5 -18.65 -28.85 -18.3 L-32.95 -18.5 Q-33.65 -18.75 -34.05 -19.05 Z" fill="none" stroke="#000000" stroke-linecap="round" stroke-linejoin="round" stroke-opacity="0.4117647" stroke-width="0.05"/>
    <path d="M131.7 10.45 Q127.85 10.85 125.7 13.5 L100.1 7.1 Q98.4 1.75 93.8 1.7 91.4 3.1 89.65 5.1 L-54.0 -32.5 -55.9 -36.8 -61.55 -34.4 -61.6 -34.4 -135.3 -52.6 -139.6 -47.0 -139.6 -43.4 Q-128.65 -42.35 -128.0 -35.65 L-119.15 -30.7 -117.7 -26.05 -64.9 -11.55 -64.5 -10.0 -61.4 -6.2 -56.8 -9.3 86.2 31.1 Q87.0 32.95 88.15 34.6 93.45 37.45 94.75 33.45 L119.3 42.6 121.9 49.05 Q125.4 53.2 130.6 52.6 138.1 45.6 139.5 31.5 L139.6 26.35 Q139.25 19.75 136.4 13.4 135.3 10.65 131.7 10.45 Z" fill="none" stroke="#000000" stroke-linecap="round" stroke-linejoin="round" stroke-opacity="0.4" stroke-width="1.0"/>
  </g>
</svg>
