<?xml version="1.0" encoding="UTF-8" standalone="no"?>
<svg xmlns:xlink="http://www.w3.org/1999/xlink" height="15.65px" width="5.85px" xmlns="http://www.w3.org/2000/svg">
  <g transform="matrix(1.0, 0.0, 0.0, 1.0, 2.9, 0.3)">
    <path d="M0.85 2.55 L0.8 7.1 Q1.25 7.75 2.0 10.1 L2.1 10.3 1.6 11.65 1.45 11.45 Q1.25 11.4 0.2 12.15 L0.05 12.25 0.1 11.95 0.15 11.4 0.4 10.1 0.8 7.1 0.4 10.1 0.15 11.4 0.1 11.95 0.05 12.25 -0.15 12.4 0.1 11.95 -0.15 12.4 -1.35 13.9 -2.05 10.4 Q0.0 4.05 0.85 2.55" fill="#444b01" fill-rule="evenodd" stroke="none"/>
    <path d="M0.85 2.55 L0.8 2.25 0.35 0.0 0.8 2.25 0.85 2.55 Q0.0 4.05 -2.05 10.4 -3.1 5.0 -2.85 3.55 -2.55 1.65 -1.85 0.55 L-1.75 0.4 0.35 0.0 1.9 -0.3 Q3.4 3.0 2.75 7.25 L2.1 10.3 2.0 10.1 Q1.25 7.75 0.8 7.1 L0.85 2.55" fill="#353a01" fill-rule="evenodd" stroke="none"/>
    <path d="M0.05 12.25 L0.2 12.15 Q1.25 11.4 1.45 11.45 L1.6 11.65 1.45 12.0 0.6 13.55 -0.6 15.1 0.05 12.25 -0.6 15.1 -0.85 15.35 -1.0 15.35 -1.2 14.55 -1.35 13.9 -0.15 12.4 -1.2 14.55 -0.15 12.4 0.05 12.25" fill="#6f7d01" fill-rule="evenodd" stroke="none"/>
    <path d="M2.1 10.3 L2.75 7.25 Q3.4 3.0 1.9 -0.3 L0.35 0.0 -1.75 0.4 -1.85 0.55 Q-2.55 1.65 -2.85 3.55 -3.1 5.0 -2.05 10.4 L-1.35 13.9 -1.2 14.55 -1.0 15.35 -0.85 15.35 -0.6 15.1 0.6 13.55 1.45 12.0 1.6 11.65 2.1 10.3" fill="none" stroke="#000000" stroke-linecap="round" stroke-linejoin="round" stroke-opacity="0.4" stroke-width="0.05"/>
    <path d="M0.35 0.0 L0.8 2.25 0.85 2.55 0.8 7.1 Q1.25 7.75 2.0 10.1 L2.1 10.3 M-2.05 10.4 Q0.0 4.05 0.85 2.55 M0.8 7.1 L0.4 10.1 0.15 11.4 0.1 11.95 0.05 12.25 -0.6 15.1 M0.1 11.95 L-0.15 12.4 -1.2 14.55" fill="none" stroke="#000000" stroke-linecap="round" stroke-linejoin="round" stroke-opacity="0.2" stroke-width="0.05"/>
  </g>
</svg>
