<?xml version="1.0" encoding="UTF-8" standalone="no"?>
<svg xmlns:xlink="http://www.w3.org/1999/xlink" height="140.45px" width="117.25px" xmlns="http://www.w3.org/2000/svg">
  <g transform="matrix(1.0, 0.0, 0.0, 1.0, -216.35, -129.75)">
    <path d="M258.85 151.85 L261.3 136.95 263.65 136.95 260.55 151.1 258.85 151.85 M262.6 149.3 L270.75 129.85 272.55 131.15 265.2 147.5 262.6 149.3 M229.35 204.0 L219.1 215.1 216.45 213.5 230.95 199.4 229.35 204.0 M232.4 195.35 L218.05 202.75 217.0 200.45 233.25 192.6 232.4 195.35" fill="#efecab" fill-rule="evenodd" stroke="none"/>
    <path d="M260.55 151.1 L259.15 157.6 262.6 149.3 265.2 147.5 260.65 157.45 Q258.75 159.75 257.05 162.55 L258.85 151.85 260.55 151.1 M237.75 194.85 L229.35 204.0 230.95 199.4 238.15 192.35 232.4 195.35 233.25 192.6 238.8 189.9 239.9 190.65 239.9 190.7 238.8 192.65 237.75 194.85 M259.15 157.6 L257.05 162.55 259.15 157.6 M238.15 192.35 L239.9 190.7 238.15 192.35" fill="#c5b05f" fill-rule="evenodd" stroke="none"/>
    <path d="M238.8 189.9 Q239.5 184.65 243.0 183.0 243.1 178.55 246.1 177.95 245.55 174.7 248.15 174.55 248.9 169.8 252.8 166.95 252.0 165.2 254.05 165.15 252.9 162.6 255.85 161.85 L257.05 162.55 261.8 165.3 262.95 169.2 258.1 167.25 254.05 165.15 258.1 167.25 259.65 179.15 257.25 178.2 253.9 169.8 252.8 166.95 253.9 169.8 254.3 177.0 251.45 175.85 248.15 174.55 251.45 175.85 252.15 188.8 249.1 186.85 247.15 180.8 246.1 177.95 247.15 180.8 247.55 185.9 246.05 184.95 246.3 194.9 239.9 190.65 238.8 189.9 M243.0 183.0 L246.05 184.95 243.0 183.0" fill="#cc0000" fill-rule="evenodd" stroke="none"/>
    <path d="M260.65 157.45 Q274.9 139.8 297.0 148.45 303.65 151.05 309.1 151.3 315.05 151.55 320.85 148.55 L321.45 150.65 Q310.6 155.65 294.65 151.1 287.45 149.0 277.85 151.1 267.9 153.95 261.8 165.3 L257.05 162.55 Q258.75 159.75 260.65 157.45 M324.3 146.45 L325.6 145.5 327.9 143.1 329.9 144.2 324.3 149.05 324.3 146.45 M329.35 140.15 Q329.75 137.75 327.4 135.8 319.5 133.45 317.75 139.95 317.7 144.1 312.6 145.2 309.25 143.05 309.7 139.95 311.65 137.2 314.05 137.55 318.35 132.2 324.35 131.85 L326.65 132.15 Q332.45 136.9 331.4 140.15 L329.35 140.15 M245.35 264.9 Q242.8 259.5 245.35 253.1 243.9 251.15 245.35 248.15 247.25 246.75 249.6 247.45 253.1 252.3 249.25 255.2 244.4 259.9 250.3 265.65 251.9 266.3 253.2 266.1 L253.15 268.1 Q249.75 268.4 245.35 264.9 M255.7 264.65 Q257.15 262.95 257.9 259.4 L258.3 255.5 260.45 255.4 Q259.85 262.75 257.35 266.2 L255.7 264.65 M258.3 253.05 Q258.0 246.95 255.05 242.1 252.2 237.45 246.9 233.95 227.6 217.0 237.75 194.85 L238.8 192.65 242.7 196.2 Q237.2 204.9 239.8 217.2 241.35 226.7 252.95 235.55 260.6 244.5 260.3 252.1 L258.3 253.05" fill="#ffffff" fill-rule="evenodd" stroke="none"/>
    <path d="M320.85 148.55 L321.6 148.15 324.3 146.45 324.3 149.05 324.25 151.6 321.95 152.7 321.45 150.65 320.85 148.55 M327.9 143.1 L328.9 141.5 329.35 140.15 331.4 140.15 333.5 140.15 333.4 142.4 332.65 144.05 331.9 145.3 329.9 144.2 327.9 143.1 M259.0 267.75 Q257.35 268.9 255.8 269.5 L253.1 270.1 253.15 268.1 253.2 266.1 254.8 265.45 255.7 264.65 257.35 266.2 259.0 267.75 M258.3 255.5 L258.3 253.05 262.55 253.85 258.3 253.05 260.3 252.1 262.3 251.15 262.4 252.15 262.55 253.85 262.65 255.25 260.45 255.4 258.3 255.5 M258.1 167.25 L262.95 169.2 261.8 165.3 266.55 168.05 268.95 169.45 267.9 171.1 Q266.95 176.55 262.05 180.1 L259.65 179.15 262.05 180.1 Q260.5 187.25 255.2 190.7 L252.15 188.8 255.2 190.7 Q254.15 195.5 250.6 197.75 L249.1 196.75 246.3 194.9 246.05 184.95 247.55 185.9 247.15 180.8 249.1 186.85 252.15 188.8 251.45 175.85 254.3 177.0 253.9 169.8 257.25 178.2 259.65 179.15 258.1 167.25 M262.95 169.2 L267.9 171.1 262.95 169.2 M333.4 142.4 L328.9 141.5 333.4 142.4 M324.25 151.6 L321.6 148.15 324.25 151.6 M257.25 178.2 L254.3 177.0 257.25 178.2 M249.1 186.85 L247.55 185.9 249.1 186.85 M255.8 269.5 L254.8 265.45 255.8 269.5" fill="#993300" fill-rule="evenodd" stroke="none"/>
    <path d="M317.75 139.95 Q322.05 140.5 319.6 143.7 317.1 146.85 312.6 145.2 317.7 144.1 317.75 139.95 M326.65 132.15 Q333.3 133.45 333.5 140.15 L331.4 140.15 Q332.45 136.9 326.65 132.15 M260.9 264.95 L259.0 267.75 257.35 266.2 Q259.85 262.75 260.45 255.4 L262.65 255.25 Q262.8 261.05 260.9 264.95 M253.1 270.1 Q248.7 270.2 245.35 264.9 249.75 268.4 253.15 268.1 L253.1 270.1 M249.6 247.45 L251.35 248.15 Q255.0 251.3 253.45 255.0 251.8 258.75 249.25 255.2 253.1 252.3 249.6 247.45 M266.55 168.05 L261.8 165.3 Q267.9 153.95 277.85 151.1 287.45 149.0 294.65 151.1 310.6 155.65 321.45 150.65 L321.95 152.7 Q318.25 154.25 313.45 155.5 L311.45 155.65 Q302.3 156.05 292.3 154.1 276.1 150.8 266.55 168.05 M329.9 144.2 L331.9 145.3 Q329.45 148.9 324.25 151.6 L324.3 149.05 329.9 144.2 M242.7 196.2 L246.75 201.05 Q239.9 215.2 248.2 227.15 255.95 233.85 260.0 242.1 L260.8 243.9 262.3 251.15 260.3 252.1 Q260.6 244.5 252.95 235.55 241.35 226.7 239.8 217.2 237.2 204.9 242.7 196.2" fill="#e9eded" fill-rule="evenodd" stroke="none"/>
    <path d="M242.7 196.2 L238.8 192.65 239.9 190.7 239.9 190.65 246.3 194.9 249.1 196.75 Q247.75 198.9 246.75 201.05 L242.7 196.2" fill="#c6d0d0" fill-rule="evenodd" stroke="none"/>
    <path d="M258.85 151.85 L261.3 136.95 263.65 136.95 260.55 151.1 259.15 157.6 262.6 149.3 270.75 129.85 272.55 131.15 265.2 147.5 260.65 157.45 M332.65 144.05 L331.9 145.3 260.9 264.95 M237.75 194.85 L229.35 204.0 219.1 215.1 216.45 213.5 230.95 199.4 238.15 192.35 232.4 195.35 218.05 202.75 217.0 200.45 233.25 192.6 238.8 189.9 Q239.5 184.65 243.0 183.0 243.1 178.55 246.1 177.95 245.55 174.7 248.15 174.55 248.9 169.8 252.8 166.95 252.0 165.2 254.05 165.15 252.9 162.6 255.85 161.85 L257.05 162.55 258.85 151.85 M253.9 169.8 L252.8 166.95 M258.1 167.25 L262.95 169.2 267.9 171.1 268.95 169.45 266.55 168.05 261.8 165.3 257.05 162.55 259.15 157.6 M254.05 165.15 L258.1 167.25 M259.65 179.15 L262.05 180.1 Q266.95 176.55 267.9 171.1 M321.45 150.65 L320.85 148.55 M321.95 152.7 L321.45 150.65 M331.4 140.15 L333.5 140.15 M327.9 143.1 L329.9 144.2 331.9 145.3 M329.35 140.15 L331.4 140.15 M328.9 141.5 L333.4 142.4 M321.6 148.15 L324.25 151.6 324.3 149.05 324.3 146.45 M253.9 169.8 L257.25 178.2 259.65 179.15 M247.15 180.8 L246.1 177.95 M251.45 175.85 L254.3 177.0 257.25 178.2 M248.15 174.55 L251.45 175.85 M252.15 188.8 L255.2 190.7 Q260.5 187.25 262.05 180.1 M247.15 180.8 L249.1 186.85 252.15 188.8 M246.05 184.95 L243.0 183.0 M246.05 184.95 L247.55 185.9 249.1 186.85 M249.1 196.75 L246.3 194.9 239.9 190.65 238.8 189.9 M239.9 190.7 L238.15 192.35 M249.1 196.75 L250.6 197.75 Q254.15 195.5 255.2 190.7 M260.3 252.1 L262.3 251.15 M260.45 255.4 L262.65 255.25 M262.55 253.85 L258.3 253.05 260.3 252.1 M258.3 255.5 L260.45 255.4 M257.35 266.2 L259.0 267.75 M253.2 266.1 L253.15 268.1 253.1 270.1 M255.7 264.65 L257.35 266.2 M254.8 265.45 L255.8 269.5 M262.4 252.15 L321.95 152.7" fill="none" stroke="#000000" stroke-linecap="round" stroke-linejoin="round" stroke-opacity="0.3019608" stroke-width="0.2"/>
    <path d="M260.65 157.45 Q274.9 139.8 297.0 148.45 303.65 151.05 309.1 151.3 315.05 151.55 320.85 148.55 L321.6 148.15 324.3 146.45 325.6 145.5 327.9 143.1 328.9 141.5 329.35 140.15 Q329.75 137.75 327.4 135.8 319.5 133.45 317.75 139.95 322.05 140.5 319.6 143.7 317.1 146.85 312.6 145.2 309.25 143.05 309.7 139.95 311.65 137.2 314.05 137.55 318.35 132.2 324.35 131.85 L326.65 132.15 Q333.3 133.45 333.5 140.15 L333.4 142.4 332.65 144.05 M260.9 264.95 L259.0 267.75 Q257.35 268.9 255.8 269.5 L253.1 270.1 Q248.7 270.2 245.35 264.9 242.8 259.5 245.35 253.1 243.9 251.15 245.35 248.15 247.25 246.75 249.6 247.45 L251.35 248.15 Q255.0 251.3 253.45 255.0 251.8 258.75 249.25 255.2 244.4 259.9 250.3 265.65 251.9 266.3 253.2 266.1 L254.8 265.45 255.7 264.65 Q257.15 262.95 257.9 259.4 L258.3 255.5 258.3 253.05 Q258.0 246.95 255.05 242.1 252.2 237.45 246.9 233.95 227.6 217.0 237.75 194.85 L238.8 192.65 239.9 190.7 239.9 190.65 M260.65 157.45 Q258.75 159.75 257.05 162.55 M266.55 168.05 Q276.1 150.8 292.3 154.1 302.3 156.05 311.45 155.65 L313.45 155.5 Q318.25 154.25 321.95 152.7 L324.25 151.6 Q329.45 148.9 331.9 145.3 M246.75 201.05 Q247.75 198.9 249.1 196.75 M262.3 251.15 L260.8 243.9 260.0 242.1 Q255.95 233.85 248.2 227.15 239.9 215.2 246.75 201.05 M262.65 255.25 L262.55 253.85 262.4 252.15 262.3 251.15 M260.9 264.95 Q262.8 261.05 262.65 255.25" fill="none" stroke="#000000" stroke-linecap="round" stroke-linejoin="round" stroke-opacity="0.3019608" stroke-width="0.2"/>
  </g>
</svg>
