<?xml version="1.0" encoding="UTF-8" standalone="no"?>
<svg xmlns:xlink="http://www.w3.org/1999/xlink" height="47.5px" width="59.45px" xmlns="http://www.w3.org/2000/svg">
  <g transform="matrix(1.0, 0.0, 0.0, 1.0, -245.25, -176.7)">
    <path d="M257.75 184.0 L257.7 184.25 257.7 184.3 257.7 184.0 257.75 184.0 M285.5 190.5 L285.5 190.55 285.5 190.5 M261.2 220.0 L261.2 220.05 260.9 219.8 261.15 219.95 261.2 220.05 261.15 219.95 261.2 220.0" fill="#dede01" fill-rule="evenodd" stroke="none"/>
    <path d="M269.0 177.6 L268.65 177.6 269.0 177.6" fill="#fefd8b" fill-rule="evenodd" stroke="none"/>
    <path d="M289.15 191.15 L289.2 191.15 289.15 191.15" fill="#d30101" fill-rule="evenodd" stroke="none"/>
    <path d="M291.5 197.5 L291.7 197.45 294.3 196.95 294.9 196.8 293.55 197.1 291.5 197.5" fill="#ad884b" fill-rule="evenodd" stroke="none"/>
    <path d="M288.4 199.95 L288.4 199.85 288.4 199.95" fill="#fefe01" fill-rule="evenodd" stroke="none"/>
    <path d="M280.25 199.65 L280.8 199.55 280.9 199.55 281.25 199.45 280.55 199.6 280.8 199.55 280.55 199.6 280.3 199.65 280.25 199.65" fill="#7d6337" fill-rule="evenodd" stroke="none"/>
    <path d="M257.7 184.25 L257.75 184.0 M285.5 190.55 L286.15 191.05 Q287.05 192.05 287.55 193.55 M288.05 196.3 L280.6 198.2 M262.3 202.6 L259.05 203.35 M258.15 203.55 L257.75 203.65 M257.8 204.0 L258.2 203.95 M280.9 199.55 L281.25 199.45 288.05 198.15 M261.2 220.0 L261.2 220.05 261.15 219.95 M291.55 205.75 L291.5 204.95 291.45 204.55 291.45 204.5 Q291.05 200.2 291.0 197.6 L291.5 197.5 293.55 197.1 M304.2 195.3 L296.0 195.3 291.3 195.55 291.2 195.55 290.95 195.6 291.0 194.05 291.05 193.65 291.45 193.55 M250.2 205.45 L250.2 205.4" fill="none" stroke="#000000" stroke-linecap="round" stroke-linejoin="round" stroke-width="1.0"/>
    <path d="M257.75 184.0 L257.7 184.0 257.7 184.3 257.7 184.25 258.75 183.2 Q263.55 178.6 270.4 178.45 L274.95 178.95 Q277.5 180.0 279.75 182.0 L279.8 182.0 282.05 184.5 282.2 184.65 Q284.25 187.35 285.5 190.5 L285.5 190.55 285.5 190.5 M287.55 193.55 L288.05 196.3 M280.6 198.2 L262.3 202.6 M259.05 203.35 L258.15 203.55 M257.75 203.65 L254.75 201.5 251.95 202.25 251.6 202.95 251.55 202.95 245.75 204.6 250.15 205.4 250.2 205.4 250.2 205.45 250.15 205.45 250.2 205.5 251.5 208.1 251.55 208.1 252.1 207.95 253.2 207.7 254.4 207.4 257.8 204.0 M258.2 203.95 L280.25 199.65 280.8 199.55 280.9 199.55 M288.05 198.15 L287.6 202.1 286.65 206.25 Q285.9 209.65 284.3 212.6 L283.8 213.45 282.05 215.9 Q276.85 222.2 269.55 222.2 264.9 222.2 261.2 220.0 M261.2 220.05 Q262.2 220.95 263.35 221.55 267.3 223.7 272.0 223.7 L274.55 223.55 Q277.75 223.1 280.6 221.55 283.65 219.95 286.15 217.1 L286.2 217.05 286.4 216.85 Q290.15 212.5 291.3 207.2 L291.3 207.15 291.5 206.35 291.55 205.75 M294.9 196.8 L295.5 196.7 303.25 195.45 304.2 195.3 M291.45 193.55 L290.25 190.05 289.95 188.85 289.8 188.65 289.45 188.05 288.85 187.4 288.65 187.2 Q287.9 186.55 287.2 186.5 L287.05 186.5 M289.45 188.05 L288.8 187.25 286.4 184.0 Q281.3 178.2 274.45 177.35 L272.05 177.2 271.95 177.2 271.85 177.2 271.4 177.25 269.65 177.35 267.95 177.65 Q262.15 178.95 257.75 184.0 M294.9 196.8 L293.55 197.1 M280.55 199.6 L280.8 199.55 M280.55 199.6 L280.3 199.65 280.25 199.65" fill="none" stroke="#000000" stroke-linecap="round" stroke-linejoin="round" stroke-width="1.0"/>
    <path d="M261.25 220.0 L261.2 219.95 261.3 220.0 261.25 220.0 M257.75 184.25 L257.75 184.3 257.75 184.0 257.8 184.0 257.75 184.25" fill="#dede01" fill-rule="evenodd" stroke="none"/>
    <path d="M268.7 177.6 L268.7 177.55 269.05 177.6 268.7 177.6" fill="#fefd8b" fill-rule="evenodd" stroke="none"/>
    <path d="M269.05 177.6 L269.1 177.6 269.75 177.55 Q275.6 177.55 280.15 181.65 L280.15 181.7 282.45 184.2 282.6 184.35 Q284.65 187.0 285.9 190.1 L285.6 190.5 Q284.35 187.3 282.25 184.65 L282.15 184.5 279.85 182.0 Q277.6 179.95 275.0 178.95 272.45 177.9 269.6 177.95 L267.8 178.1 Q262.8 179.15 258.8 183.15 L257.75 184.25 257.8 184.0 Q262.2 178.95 268.0 177.65 L268.7 177.6 269.05 177.6 M289.6 191.5 L288.55 191.3 Q287.65 190.9 286.95 189.95 286.25 189.1 286.05 188.3 L286.2 188.5 286.35 188.55 286.45 188.8 Q286.85 189.75 287.7 190.45 288.4 191.1 289.1 191.15 L289.15 191.15 289.2 191.1 289.2 191.15 289.3 191.15 Q290.0 191.15 290.25 190.45 L290.3 190.05 Q290.45 190.95 289.95 191.35 L289.6 191.5 M288.45 196.25 L288.1 196.3 287.6 193.5 Q288.2 194.65 288.45 196.25 M288.1 198.15 L288.6 198.05 288.6 198.6 288.9 199.05 290.7 202.75 290.75 203.05 291.25 204.15 291.55 204.5 291.55 204.95 291.65 205.75 291.55 206.35 291.45 206.95 290.9 205.15 290.85 205.05 290.8 204.95 290.6 204.5 289.4 202.5 288.25 201.2 287.2 205.95 Q286.45 209.6 284.7 212.8 L284.2 213.65 282.45 216.15 Q279.1 220.25 274.85 221.75 L274.65 221.8 274.05 222.0 273.85 222.05 270.0 222.55 269.75 222.55 Q266.25 222.55 263.2 221.15 L261.25 220.0 261.3 220.0 Q264.95 222.15 269.6 222.2 276.95 222.15 282.15 215.85 L283.9 213.4 284.35 212.6 Q285.95 209.6 286.7 206.2 L287.65 202.1 288.1 198.15" fill="#999999" fill-rule="evenodd" stroke="none"/>
    <path d="M251.85 202.85 L251.65 202.9 251.85 202.85" fill="#e7e7e7" fill-rule="evenodd" stroke="none"/>
    <path d="M294.65 196.85 L291.55 197.45 291.8 197.4 294.35 196.9 294.65 196.85" fill="#ad884b" fill-rule="evenodd" stroke="none"/>
    <path d="M280.3 199.65 L280.6 199.6 280.35 199.65 280.3 199.65" fill="#7d6337" fill-rule="evenodd" stroke="none"/>
    <path d="M251.6 202.9 L251.65 202.9 251.6 202.9" fill="#878787" fill-rule="evenodd" stroke="none"/>
    <path d="M285.9 190.1 Q284.65 187.0 282.6 184.35 L282.45 184.2 280.15 181.7 280.15 181.65 Q275.6 177.55 269.75 177.55 L269.1 177.6 269.05 177.6 268.7 177.55 268.7 177.6 268.0 177.65 269.7 177.35 271.9 177.2 271.5 177.25 273.2 177.35 Q280.05 178.2 285.15 184.0 L287.05 186.45 Q286.6 186.4 286.3 186.65 285.9 186.95 285.95 187.6 L286.0 188.0 286.05 188.25 286.05 188.3 Q286.25 189.1 286.95 189.95 287.65 190.9 288.55 191.3 L289.6 191.5 290.25 193.5 290.15 193.35 290.45 195.75 288.65 196.2 288.6 195.85 Q288.3 191.85 285.9 190.1 M288.6 198.05 L291.05 197.6 291.55 204.5 291.25 204.15 290.75 203.05 290.7 202.75 288.9 199.05 288.6 198.6 288.6 198.05 M291.45 206.95 L291.4 207.15 291.4 207.2 Q290.2 212.5 286.45 216.85 L286.35 216.95 286.25 217.05 285.05 218.0 275.55 221.5 274.85 221.75 Q279.1 220.25 282.45 216.15 L284.2 213.65 284.7 212.8 Q286.45 209.6 287.2 205.95 L288.25 201.2 289.4 202.5 290.6 204.5 290.8 204.95 290.85 205.05 290.9 205.15 291.45 206.95 M263.2 221.15 Q266.25 222.55 269.75 222.55 L269.75 222.6 269.55 222.6 Q266.15 222.55 263.2 221.15" fill="#cccccc" fill-rule="evenodd" stroke="none"/>
    <path d="M288.05 187.15 L287.85 187.1 286.75 186.95 286.6 187.0 286.55 187.0 286.25 187.15 Q286.45 186.5 287.2 186.5 L287.25 186.5 Q287.95 186.55 288.7 187.2 L288.9 187.35 289.55 188.0 289.15 187.75 289.0 187.65 288.2 187.2 288.05 187.15 M287.25 187.45 L287.6 187.45 287.9 187.65 288.0 187.9 287.8 188.15 287.45 188.15 287.15 187.95 287.05 187.7 287.25 187.45" fill="#fe6b6b" fill-rule="evenodd" stroke="none"/>
    <path d="M287.25 186.5 L287.2 186.5 Q286.45 186.5 286.25 187.15 L286.55 187.0 286.6 187.0 286.75 186.95 287.85 187.1 288.05 187.15 288.55 187.5 Q289.3 188.1 289.7 189.0 L289.85 189.45 Q289.6 190.05 288.9 190.05 L288.75 190.05 Q288.1 190.0 287.35 189.4 286.65 188.8 286.25 187.95 L286.5 188.8 Q286.9 189.75 287.75 190.45 288.45 191.05 289.1 191.15 288.4 191.1 287.7 190.45 286.85 189.75 286.45 188.8 L286.35 188.55 286.2 188.0 286.2 187.95 286.2 187.85 286.2 187.7 286.2 187.45 286.25 187.15 Q286.4 186.5 287.05 186.45 L287.1 186.45 287.25 186.5 M287.25 187.45 L287.05 187.7 287.15 187.95 287.45 188.15 287.8 188.15 288.0 187.9 287.9 187.65 287.6 187.45 287.25 187.45" fill="#990000" fill-rule="evenodd" stroke="none"/>
    <path d="M288.05 187.15 L288.2 187.2 289.0 187.65 289.15 187.75 289.55 188.0 288.9 187.35 288.7 187.2 Q287.95 186.55 287.25 186.5 L287.1 186.45 287.2 186.45 287.4 186.5 Q288.0 186.6 288.7 187.15 L288.85 187.3 289.55 188.0 289.95 188.75 289.95 189.0 289.9 189.2 289.85 189.4 289.85 189.45 289.7 189.0 Q289.3 188.1 288.55 187.5 L288.05 187.15 M289.3 191.15 L289.2 191.15 289.2 191.1 289.3 191.1 289.3 191.15" fill="#d30101" fill-rule="evenodd" stroke="none"/>
    <path d="M289.1 191.15 Q288.45 191.05 287.75 190.45 286.9 189.75 286.5 188.8 L286.25 187.95 Q286.65 188.8 287.35 189.4 288.1 190.0 288.75 190.05 L288.9 190.05 Q289.6 190.05 289.85 189.45 L289.85 189.4 289.9 189.2 289.95 189.0 289.95 188.75 289.9 188.65 290.05 188.8 290.3 190.0 290.3 190.05 290.25 190.45 Q290.0 191.15 289.3 191.15 L289.3 191.1 289.2 191.1 289.15 191.15 289.1 191.15" fill="#780101" fill-rule="evenodd" stroke="none"/>
    <path d="M290.45 195.75 L290.15 193.35 290.25 193.5 289.6 191.5 289.95 191.35 Q290.45 190.95 290.3 190.05 L290.3 190.0 291.55 193.5 Q291.25 193.15 291.15 193.65 L291.05 194.0 291.0 195.6 290.45 195.75 M286.05 188.3 L286.05 188.25 286.0 188.0 285.95 187.6 Q285.9 186.95 286.3 186.65 286.6 186.4 287.05 186.45 L285.15 184.0 Q280.05 178.2 273.2 177.35 L271.5 177.25 271.9 177.2 272.05 177.2 272.1 177.2 274.5 177.35 Q281.35 178.2 286.45 184.0 L288.85 187.3 288.7 187.15 Q288.0 186.6 287.4 186.5 L287.2 186.45 287.1 186.45 287.05 186.45 Q286.4 186.5 286.25 187.15 L286.2 187.45 286.2 187.7 286.2 187.85 286.2 187.95 286.2 188.0 286.35 188.55 286.2 188.5 286.05 188.3" fill="#e4e4e4" fill-rule="evenodd" stroke="none"/>
    <path d="M258.8 183.15 Q262.8 179.15 267.8 178.1 L269.6 177.95 Q272.45 177.9 275.0 178.95 L270.45 178.45 Q263.6 178.6 258.8 183.15" fill="#333333" fill-rule="evenodd" stroke="none"/>
    <path d="M286.25 217.05 Q283.7 219.95 280.7 221.6 L273.85 222.05 274.05 222.0 274.65 221.8 274.85 221.75 275.55 221.5 285.05 218.0 286.25 217.05" fill="#bcbcbc" fill-rule="evenodd" stroke="none"/>
    <path d="M280.7 221.6 Q277.85 223.1 274.65 223.5 L272.9 223.35 269.55 222.6 269.75 222.6 270.0 222.55 273.85 222.05 280.7 221.6" fill="#a7a7a7" fill-rule="evenodd" stroke="none"/>
    <path d="M274.65 223.5 L272.1 223.65 Q267.35 223.65 263.4 221.55 L261.2 220.1 261.2 220.05 261.25 220.05 261.35 220.1 262.2 220.65 263.2 221.15 Q266.15 222.55 269.55 222.6 L272.9 223.35 274.65 223.5" fill="#8f8f8f" fill-rule="evenodd" stroke="none"/>
    <path d="M285.9 190.1 Q288.3 191.85 288.6 195.85 L288.65 196.2 288.45 196.25 Q288.2 194.65 287.6 193.5 287.15 192.0 286.25 191.05 285.95 190.7 285.6 190.5 L285.9 190.1" fill="#858585" fill-rule="evenodd" stroke="none"/>
    <path d="M289.6 191.5 L288.55 191.3 Q287.65 190.9 286.95 189.95 286.25 189.1 286.05 188.3 L286.05 188.25 286.0 188.0 285.95 187.6 Q285.9 186.95 286.3 186.65 286.6 186.4 287.05 186.45 286.4 186.5 286.25 187.15 L286.2 187.45 286.2 187.7 286.2 187.85 286.2 187.95 M271.5 177.25 L271.9 177.2 269.7 177.35 268.0 177.65 Q262.2 178.95 257.8 184.0 L257.75 184.0 257.75 184.3 257.75 184.25 257.8 184.0 M288.85 187.3 L286.45 184.0 Q281.35 178.2 274.5 177.35 L272.1 177.2 272.05 177.2 271.9 177.2 M275.0 178.95 Q277.6 179.95 279.85 182.0 L282.15 184.5 282.25 184.65 Q284.35 187.3 285.6 190.5 285.95 190.7 286.25 191.05 287.15 192.0 287.6 193.5 L288.1 196.3 M258.8 183.15 Q263.6 178.6 270.45 178.45 L275.0 178.95 M304.25 195.3 L303.4 195.3 M287.25 186.5 L287.1 186.45 287.05 186.45 M286.2 188.0 L286.35 188.55 286.45 188.8 Q286.85 189.75 287.7 190.45 288.4 191.1 289.1 191.15 288.45 191.05 287.75 190.45 286.9 189.75 286.5 188.8 L286.25 187.95 M287.1 186.45 L287.2 186.45 287.4 186.5 Q288.0 186.6 288.7 187.15 L288.85 187.3 289.55 188.0 289.95 188.75 M289.9 188.65 L290.05 188.8 290.3 190.0 291.55 193.5 Q291.25 193.15 291.15 193.65 L291.05 194.0 291.0 195.6 M290.3 190.0 L290.3 190.05 Q290.45 190.95 289.95 191.35 L289.6 191.5 M290.3 190.05 L290.25 190.45 Q290.0 191.15 289.3 191.15 L289.2 191.15 M289.2 191.1 L289.15 191.15 289.1 191.15 M289.3 191.1 L289.2 191.1 M280.3 199.65 L280.6 199.6 280.35 199.65 280.3 199.65 M288.65 196.2 L288.45 196.25 M291.05 197.6 L291.55 204.5 291.55 204.95 291.65 205.75 291.55 206.35 291.45 206.95 291.4 207.15 291.4 207.2 Q290.2 212.5 286.45 216.85 L286.35 216.95 286.25 217.05 Q283.7 219.95 280.7 221.6 277.85 223.1 274.65 223.5 L272.1 223.65 Q267.35 223.65 263.4 221.55 L261.2 220.1 261.2 220.05 261.25 220.05 M261.35 220.1 L261.25 220.0 261.2 219.95 250.25 205.4 250.2 205.45 M288.1 198.15 L287.65 202.1 286.7 206.2 Q285.95 209.6 284.35 212.6 L283.9 213.4 282.15 215.85 Q276.95 222.15 269.6 222.2 264.95 222.15 261.3 220.0 L261.25 220.0 M257.75 184.25 L258.8 183.15 M257.85 203.9 L257.5 203.95 M257.6 203.45 L257.85 203.65 M251.65 202.9 L251.6 202.9 M251.85 202.85 L251.65 202.9 M251.1 203.1 L257.75 184.3" fill="none" stroke="#000000" stroke-linecap="round" stroke-linejoin="round" stroke-width="0.05"/>
    <path d="M295.25 195.95 L303.35 195.35 303.4 195.3 304.25 195.3 303.35 195.45 295.55 196.7 294.65 196.85 294.35 196.9 291.8 197.4 291.55 197.45 280.6 199.6 280.3 199.65 269.25 201.8 269.15 201.8 257.85 204.0 257.95 203.95 257.85 203.9 257.5 203.95 257.35 204.0 257.45 203.95 258.0 203.85 263.9 202.55 267.2 201.9 268.3 201.7 269.9 201.4 272.25 200.9 272.75 200.75 277.55 199.9 279.7 199.35 283.15 198.5 286.35 197.75 288.15 197.35 288.6 197.25 288.65 197.2 290.1 196.95 291.0 196.8 295.25 195.95" fill="#7d6337" fill-rule="evenodd" stroke="none"/>
    <path d="M303.4 195.3 L303.35 195.35 295.25 195.95 294.2 195.95 294.1 195.95 293.9 195.95 291.4 195.55 296.05 195.3 303.4 195.3" fill="#e0d0b8" fill-rule="evenodd" stroke="none"/>
    <path d="M295.25 195.95 L291.0 196.8 290.1 196.95 288.65 197.2 288.6 197.25 288.15 197.35 286.35 197.75 283.15 198.5 279.7 199.35 277.55 199.9 272.75 200.75 272.25 200.9 269.9 201.4 268.3 201.7 267.2 201.9 263.9 202.55 258.0 203.85 257.45 203.95 257.35 204.0 257.25 204.0 251.5 205.1 251.3 205.15 257.8 203.65 257.85 203.65 263.9 202.2 264.8 202.1 265.1 202.05 266.5 201.75 267.25 201.75 267.3 201.75 272.4 200.55 273.65 200.3 275.75 199.95 278.25 199.3 281.3 198.5 286.25 197.3 288.15 196.9 288.55 196.85 288.65 196.8 288.85 196.8 291.0 196.5 292.1 196.25 293.9 195.95 294.1 195.95 294.2 195.95 295.25 195.95" fill="#ad884b" fill-rule="evenodd" stroke="none"/>
    <path d="M291.4 195.55 L293.9 195.95 292.1 196.25 291.0 196.5 288.85 196.8 288.65 196.8 288.55 196.85 288.15 196.9 286.25 197.3 281.3 198.5 278.25 199.3 275.75 199.95 273.65 200.3 272.4 200.55 267.3 201.75 267.25 201.75 266.5 201.75 265.1 202.05 264.8 202.1 263.9 202.2 288.45 196.25 288.65 196.2 291.3 195.5 291.4 195.55" fill="#c4a773" fill-rule="evenodd" stroke="none"/>
    <path d="M257.85 203.65 L257.8 203.65 251.3 205.15 250.25 205.4 250.2 205.4 248.9 205.15 255.35 203.65 255.1 203.45 251.65 202.9 251.85 202.85 252.6 202.65 257.6 203.45 257.85 203.65" fill="#878787" fill-rule="evenodd" stroke="none"/>
    <path d="M251.65 202.9 L255.1 203.45 255.35 203.65 248.9 205.15 245.85 204.55 251.65 202.9" fill="#999999" fill-rule="evenodd" stroke="none"/>
    <path d="M257.35 204.0 L257.5 203.95 257.85 203.9 257.35 204.45 252.8 205.4 252.8 205.45 253.8 207.55 253.6 207.6 253.25 207.7 252.1 207.95 251.6 208.05 251.55 208.1 250.25 205.5 250.2 205.45 250.25 205.4 251.3 205.15 251.5 205.1 257.25 204.0 257.35 204.0" fill="#bfbfbf" fill-rule="evenodd" stroke="none"/>
    <path d="M257.85 203.9 L257.95 203.95 257.85 204.0 254.45 207.4 253.6 207.6 253.8 207.55 252.8 205.45 252.8 205.4 257.35 204.45 257.85 203.9" fill="#cccccc" fill-rule="evenodd" stroke="none"/>
    <path d="M251.65 202.9 L252.0 202.25 254.8 201.5 257.6 203.45 252.6 202.65 252.2 202.75 251.85 202.85 251.65 202.9" fill="#e7e7e7" fill-rule="evenodd" stroke="none"/>
    <path d="M303.4 195.3 L303.35 195.35 295.25 195.95 294.2 195.95 M257.85 204.0 L269.15 201.8 M269.25 201.8 L280.3 199.65 M280.6 199.6 L291.55 197.45 294.65 196.85 295.55 196.7 303.35 195.45 304.25 195.3 M303.4 195.3 L296.05 195.3 291.4 195.55 293.9 195.95 294.1 195.95 M263.9 202.2 L257.85 203.65 M257.8 203.65 L251.3 205.15 250.25 205.4 M251.5 205.1 L257.25 204.0 M291.3 195.5 L288.65 196.2 M288.45 196.25 L263.9 202.2 M248.9 205.15 L250.2 205.4 M251.65 202.9 L252.0 202.25 254.8 201.5 257.6 203.45 252.6 202.65 251.85 202.85 M251.65 202.9 L245.85 204.55 248.9 205.15 M252.6 202.65 L252.2 202.75 M251.6 208.05 L252.1 207.95 253.25 207.7 253.6 207.6 253.8 207.55 M251.55 208.1 L250.25 205.5 M257.85 204.0 L254.45 207.4 253.6 207.6" fill="none" stroke="#000000" stroke-linecap="round" stroke-linejoin="round" stroke-width="0.05"/>
  </g>
</svg>
