<?xml version="1.0" encoding="UTF-8" standalone="no"?>
<svg xmlns:xlink="http://www.w3.org/1999/xlink" height="227.3px" width="146.65px" xmlns="http://www.w3.org/2000/svg">
  <g transform="matrix(1.0, 0.0, 0.0, 1.0, -286.95, -62.9)">
    <path d="M346.5 97.85 L353.95 96.15 354.75 96.0 355.35 95.85 372.1 97.2 370.5 104.05 368.25 105.4 Q367.5 103.15 367.45 105.85 370.75 116.75 365.1 118.65 L365.15 118.7 Q363.15 121.9 360.95 124.05 352.05 132.65 339.65 124.3 L339.4 123.95 Q338.05 123.05 336.45 123.5 333.0 123.25 328.05 126.2 324.55 127.1 322.2 128.8 321.75 125.2 322.05 121.95 L336.15 114.35 336.3 114.3 Q337.5 113.45 335.0 110.75 L331.25 105.3 331.4 105.1 333.15 103.8 334.55 103.0 346.15 98.0 346.5 97.85 M425.25 198.2 L432.85 202.65 429.35 204.9 430.35 210.05 432.0 218.25 433.6 226.5 426.95 248.9 410.7 255.25 410.45 254.95 407.1 250.7 403.65 245.5 Q399.3 244.9 402.95 248.85 L406.4 253.4 406.4 253.3 406.45 253.45 408.05 256.3 388.6 263.85 Q389.05 258.2 388.3 253.2 L393.05 250.15 387.05 248.1 Q384.45 239.95 378.0 233.8 L402.25 244.65 Q400.85 236.0 420.05 233.15 L421.3 214.35 421.45 211.9 421.6 209.85 425.25 198.2 M345.0 233.75 Q328.7 231.6 315.75 218.65 L311.15 213.9 Q309.4 211.75 308.0 209.55 302.85 201.25 302.5 191.25 L306.75 177.95 307.1 178.05 306.85 177.65 306.6 177.25 306.6 176.75 306.95 174.2 307.8 170.9 Q310.3 162.4 317.85 145.95 L318.0 145.65 318.0 145.6 Q324.2 135.1 332.15 136.75 L330.55 154.1 351.7 164.1 351.5 164.35 Q350.45 164.8 349.8 165.75 L347.35 168.75 346.4 165.2 Q345.3 164.1 343.6 164.2 342.3 164.25 341.85 165.45 340.2 170.65 338.8 176.15 338.45 177.35 339.1 178.2 334.45 184.85 334.5 193.25 334.5 197.25 335.95 200.65 L335.95 202.15 336.15 202.3 336.4 202.85 Q339.95 207.4 344.35 211.4 346.85 213.75 349.85 215.55 347.75 215.7 347.3 219.15 347.1 220.95 348.8 221.3 L350.85 221.6 Q353.7 224.4 355.5 223.3 353.8 229.5 345.0 233.75 M370.65 123.6 Q377.05 127.85 379.4 132.35 L381.6 136.65 371.0 126.1 370.65 123.6 M328.2 108.1 L329.95 111.2 323.4 115.95 Q324.95 111.6 328.2 108.1 M432.0 218.25 L421.3 214.35 432.0 218.25 M430.35 210.05 L421.45 211.9 430.35 210.05 M382.75 245.65 Q383.65 247.5 383.75 248.5 L383.95 248.8 384.1 250.95 384.4 252.8 Q384.4 253.75 383.65 253.4 380.65 251.85 380.45 247.3 379.75 245.2 380.8 244.4 381.75 243.75 382.75 245.65 M378.1 241.25 Q377.25 240.4 377.55 239.25 378.2 236.85 379.9 239.65 380.8 244.1 378.1 241.25 M345.9 229.7 Q352.4 231.15 349.85 224.85 345.05 222.1 344.35 227.55 344.15 229.3 345.9 229.7 M329.9 213.75 L327.7 211.5 Q317.4 201.6 315.65 187.65 L315.15 189.6 315.15 189.1 Q314.9 187.5 315.0 185.9 L315.0 183.75 314.4 180.5 Q308.55 195.75 314.0 204.4 319.4 213.0 329.9 213.75 M309.7 167.65 L307.8 170.9 309.7 167.65 Q309.35 169.25 309.95 170.85 311.35 174.5 314.35 172.25 319.6 168.35 318.1 163.0 315.3 161.55 313.15 162.75 311.65 163.55 310.5 165.65 309.9 166.65 309.7 167.65 M330.55 154.1 Q321.1 152.85 313.15 162.75 321.1 152.85 330.55 154.1 M316.5 184.1 L316.6 184.1 315.35 183.85 316.5 184.1 M306.6 176.75 L306.85 177.65 306.6 176.75" fill="#937544" fill-rule="evenodd" stroke="none"/>
    <path d="M370.5 104.05 L377.7 105.8 377.7 119.2 385.9 135.3 384.7 143.9 379.3 143.9 373.0 141.8 367.8 136.7 359.6 133.25 359.9 132.45 359.9 132.35 359.85 132.5 359.55 133.25 358.0 132.6 359.55 133.25 357.9 136.2 357.85 136.25 Q354.05 141.3 345.7 142.65 L345.7 144.15 345.5 144.65 Q344.8 146.8 344.8 148.9 L344.9 151.05 345.35 153.2 345.85 154.65 346.1 155.15 347.15 157.25 348.05 158.7 349.7 160.9 349.85 161.05 Q351.55 160.75 353.3 161.95 355.3 163.25 357.4 166.5 L357.25 167.45 357.25 167.55 357.2 167.85 Q356.2 172.75 351.55 176.25 L343.45 188.5 345.0 202.35 354.3 205.8 Q359.2 207.7 361.65 209.2 L361.05 208.8 Q380.9 221.15 390.25 232.9 402.1 224.7 412.55 226.85 L417.1 212.8 411.65 200.95 413.25 193.1 413.6 191.35 425.25 198.2 421.6 209.85 421.45 211.9 421.3 214.35 420.05 233.15 Q400.85 236.0 402.25 244.65 L378.0 233.8 Q384.45 239.95 387.05 248.1 L393.05 250.15 388.3 253.2 Q389.05 258.2 388.6 263.85 374.1 256.45 345.05 233.75 L345.0 233.75 Q353.8 229.5 355.5 223.3 353.7 224.4 350.85 221.6 L348.8 221.3 Q347.1 220.95 347.3 219.15 347.75 215.7 349.85 215.55 346.85 213.75 344.35 211.4 339.95 207.4 336.4 202.85 L336.15 202.3 335.95 202.15 335.95 200.65 Q334.5 197.25 334.5 193.25 334.45 184.85 339.1 178.2 338.45 177.35 338.8 176.15 340.2 170.65 341.85 165.45 342.3 164.25 343.6 164.2 345.3 164.1 346.4 165.2 L347.35 168.75 349.8 165.75 Q350.45 164.8 351.5 164.35 L351.7 164.1 330.55 154.1 332.15 136.75 Q324.2 135.1 318.0 145.6 315.25 134.05 321.95 129.0 L322.2 128.8 Q324.55 127.1 328.05 126.2 333.0 123.25 336.45 123.5 338.05 123.05 339.4 123.95 L339.65 124.3 Q352.05 132.65 360.95 124.05 363.15 121.9 365.15 118.7 L365.1 118.65 Q370.75 116.75 367.45 105.85 367.5 103.15 368.25 105.4 L370.5 104.05 M370.65 123.6 L370.0 123.0 370.65 123.6 371.0 126.1 381.6 136.65 379.4 132.35 Q377.05 127.85 370.65 123.6 M387.9 140.4 L387.9 140.35 387.9 140.4 M329.95 111.2 L331.7 114.3 Q335.0 114.85 336.15 114.35 L322.05 121.95 Q322.35 118.75 323.4 115.95 L329.95 111.2 M359.5 130.85 L359.5 130.8 359.3 130.35 359.5 130.85 M360.0 132.05 L359.95 132.1 360.0 132.15 360.05 132.1 360.05 132.0 360.0 132.05 M416.8 199.2 L413.25 193.1 416.8 199.2 M345.7 142.65 L345.5 142.65 345.7 142.65 M340.4 143.0 L345.5 142.65 340.4 143.0 M348.75 178.0 L349.85 177.35 Q349.95 177.25 350.0 177.25 L351.55 176.25 350.0 177.25 Q349.95 177.25 349.85 177.35 L348.75 178.0 M421.3 214.35 L417.1 212.8 421.45 211.9 417.1 212.8 421.3 214.35 M370.25 216.25 L370.35 216.3 370.35 216.2 370.25 216.25 M378.1 241.25 Q380.8 244.1 379.9 239.65 378.2 236.85 377.55 239.25 377.25 240.4 378.1 241.25 M382.75 245.65 Q381.75 243.75 380.8 244.4 379.75 245.2 380.45 247.3 380.65 251.85 383.65 253.4 384.4 253.75 384.4 252.8 L384.1 250.95 383.95 248.8 383.75 248.5 Q383.65 247.5 382.75 245.65 M361.9 209.35 L362.9 210.35 363.25 210.65 363.35 210.5 361.9 209.35 M329.9 213.75 Q319.4 213.0 314.0 204.4 308.55 195.75 314.4 180.5 L315.0 183.75 315.0 185.9 Q314.9 187.5 315.15 189.1 L315.15 189.6 315.65 187.65 Q317.4 201.6 327.7 211.5 L329.9 213.75 M345.9 229.7 Q344.15 229.3 344.35 227.55 345.05 222.1 349.85 224.85 352.4 231.15 345.9 229.7 M358.2 238.95 L356.05 237.65 348.65 235.2 347.6 234.8 345.05 233.75 347.6 234.8 348.65 235.2 356.05 237.65 358.2 238.95 M309.7 167.65 Q309.9 166.65 310.5 165.65 311.65 163.55 313.15 162.75 315.3 161.55 318.1 163.0 319.6 168.35 314.35 172.25 311.35 174.5 309.95 170.85 309.35 169.25 309.7 167.65" fill="#4b3d23" fill-rule="evenodd" stroke="none"/>
    <path d="M410.7 255.25 Q418.0 264.35 422.05 268.1 L421.4 259.05 421.5 259.05 428.05 261.6 429.05 264.5 430.55 278.45 430.6 278.9 430.6 279.0 Q429.1 280.4 425.25 278.25 L425.15 278.2 424.3 288.3 418.75 290.2 Q416.5 272.9 408.9 257.95 L408.05 256.3 406.45 253.45 406.4 253.3 406.4 253.4 402.95 248.85 Q399.3 244.9 403.65 245.5 L407.1 250.7 410.45 254.95 410.7 255.25 M311.15 213.9 Q307.6 219.15 306.1 222.6 L313.35 223.4 313.45 223.5 313.0 231.35 310.95 232.1 299.8 231.6 299.5 231.55 299.4 231.5 Q297.8 229.35 298.6 224.85 L298.6 224.75 290.05 221.85 286.95 214.5 Q298.7 214.65 308.0 209.55 309.4 211.75 311.15 213.9 M310.05 86.85 L309.55 87.75 305.8 96.6 305.65 96.7 305.55 96.7 294.7 92.85 294.55 92.8 Q294.25 91.35 294.45 89.5 L299.9 73.9 300.15 73.45 300.15 73.4 Q303.9 72.05 310.0 75.05 L310.05 75.1 317.85 64.15 329.55 62.9 Q322.6 85.15 331.1 105.15 L331.15 105.25 331.15 105.3 331.25 105.3 335.0 110.75 Q337.5 113.45 336.3 114.3 L336.15 114.35 Q335.0 114.85 331.7 114.3 L329.95 111.2 328.2 108.1 Q316.75 92.5 310.05 86.7 L309.55 87.75 310.05 86.7 310.05 86.85 M420.1 274.45 Q423.0 276.85 425.15 278.2 423.0 276.85 420.1 274.45 M422.05 268.1 L422.15 268.15 Q424.5 270.3 428.05 272.2 424.5 270.3 422.15 268.15 L422.05 268.1 M294.45 89.5 Q294.3 91.4 294.7 92.85 294.3 91.4 294.45 89.5 M310.05 86.7 L309.9 86.55 Q306.6 83.8 301.0 81.25 306.6 83.8 309.9 86.55 L310.05 86.7 M317.6 79.95 Q313.45 76.85 310.05 75.1 313.45 76.85 317.6 79.95 M300.3 219.0 Q299.05 222.25 298.6 224.75 299.05 222.25 300.3 219.0 M306.1 222.6 L306.1 222.7 Q304.9 225.3 304.35 229.45 304.9 225.3 306.1 222.7 L306.1 222.6" fill="#91c758" fill-rule="evenodd" stroke="none"/>
    <path d="M333.15 103.8 L334.3 103.1 334.55 103.0 333.15 103.8 M316.6 184.1 L316.5 184.1 315.35 183.85 316.6 184.1" fill="#bea781" fill-rule="evenodd" stroke="none"/>
    <path d="M370.1 141.9 L367.75 141.25 Q369.4 141.85 371.3 142.05 L370.95 142.05 370.1 141.9 M360.0 132.15 L360.0 132.05 360.05 132.0 360.05 132.1 360.0 132.15 M357.95 136.2 L357.85 136.25 357.9 136.2 357.95 136.2 M345.5 142.65 L345.7 142.65 345.5 142.65" fill="#957e59" fill-rule="evenodd" stroke="none"/>
    <path d="M345.35 153.2 L345.85 154.65 345.35 153.2" fill="#b0ad99" fill-rule="evenodd" stroke="none"/>
    <path d="M306.85 177.65 L306.6 176.75" fill="none" stroke="#f4d940" stroke-linecap="round" stroke-linejoin="round" stroke-width="0.05"/>
    <path d="M410.7 255.25 Q418.0 264.35 422.05 268.1 L421.4 259.05 421.5 259.05 M428.05 261.6 L429.05 264.5 430.55 278.45 430.6 278.9 430.6 279.0 Q429.1 280.4 425.25 278.25 L425.15 278.2 424.3 288.3 418.75 290.2 Q416.5 272.9 408.9 257.95 L408.05 256.3 406.45 253.45 406.4 253.3 406.4 253.4 402.95 248.85 Q399.3 244.9 403.65 245.5 L407.1 250.7 410.45 254.95 410.7 255.25 M311.15 213.9 Q307.6 219.15 306.1 222.6 L313.35 223.4 313.45 223.5 M313.0 231.35 L310.95 232.1 299.8 231.6 299.5 231.55 299.4 231.5 Q297.8 229.35 298.6 224.85 L298.6 224.75 290.05 221.85 286.95 214.5 Q298.7 214.65 308.0 209.55 M306.85 177.65 L306.6 177.25 306.6 176.75 M309.55 87.75 L305.8 96.6 305.65 96.7 305.55 96.7 M294.45 89.5 L299.9 73.9 300.15 73.45 300.15 73.4 Q303.9 72.05 310.0 75.05 L310.05 75.1 317.85 64.15 329.55 62.9 Q322.6 85.15 331.1 105.15 L331.2 105.2 331.25 105.3 331.4 105.1 333.15 103.8 334.55 103.0 Q339.4 100.0 346.15 98.0 L346.5 97.85 M331.25 105.3 L331.15 105.3 331.15 105.25 331.1 105.15 M328.2 108.1 L329.95 111.2 M336.3 114.3 Q337.5 113.45 335.0 110.75 L331.25 105.3 M359.9 132.35 L359.9 132.45 359.6 133.25 357.95 136.2 357.85 136.25 Q354.05 141.3 345.7 142.65 L345.5 142.65 340.4 143.0 M345.7 144.15 L345.5 144.65 Q344.8 146.8 344.8 148.9 L344.9 151.05 345.35 153.2 345.85 154.65 346.1 155.15 347.15 157.25 348.05 158.7 349.7 160.9 349.85 161.05 Q351.55 160.75 353.3 161.95 355.3 163.25 357.4 166.5 M357.25 167.45 L357.25 167.55 357.2 167.85 Q356.2 172.75 351.55 176.25 L350.0 177.25 Q349.95 177.25 349.85 177.35 L348.75 178.0 M336.45 123.5 Q333.0 123.25 328.05 126.2 324.55 127.1 322.2 128.8 L321.95 129.0 Q315.25 134.05 318.0 145.6 L318.0 145.65 317.85 145.95 Q310.3 162.4 307.8 170.9 L306.95 174.2 M428.05 272.2 Q424.5 270.3 422.15 268.15 L422.05 268.1 M425.15 278.2 Q423.0 276.85 420.1 274.45 M294.7 92.85 Q294.3 91.4 294.45 89.5 M310.05 86.7 L309.55 87.75 M301.0 81.25 Q306.6 83.8 309.9 86.55 L310.05 86.7 Q316.75 92.5 328.2 108.1 324.95 111.6 323.4 115.95 M310.05 75.1 Q313.45 76.85 317.6 79.95 M322.2 128.8 Q321.75 125.2 322.05 121.95 M307.1 178.05 L306.85 177.65 M304.35 229.45 Q304.9 225.3 306.1 222.7 L306.1 222.6 M298.6 224.75 Q299.05 222.25 300.3 219.0" fill="none" stroke="#2b0000" stroke-linecap="round" stroke-linejoin="round" stroke-opacity="0.38039216" stroke-width="0.05"/>
    <path d="M370.5 104.05 L377.7 105.8 377.7 119.2 385.9 135.3 384.7 143.9 413.25 193.1 413.6 191.35 425.25 198.2 432.85 202.65 429.35 204.9 430.35 210.05 432.0 218.25 433.6 226.5 426.95 248.9 410.7 255.25 M421.5 259.05 L428.05 261.6 M408.05 256.3 L388.6 263.85 Q374.1 256.45 345.05 233.75 L345.0 233.75 Q328.7 231.6 315.75 218.65 L311.15 213.9 Q309.4 211.75 308.0 209.55 302.85 201.25 302.5 191.25 L306.75 177.95 306.85 177.65 M313.45 223.5 L313.0 231.35 M306.6 176.75 L306.95 174.2 Q308.55 166.0 317.75 146.0 L317.85 145.7 Q315.1 134.1 321.8 129.05 L322.0 128.9 Q320.55 116.2 328.05 108.15 316.7 92.65 310.05 86.85 M305.55 96.7 L294.7 92.85 294.55 92.8 M310.0 75.05 L317.65 64.2 317.85 64.15 M331.2 105.2 Q332.1 104.45 333.15 103.8 L334.3 103.1 334.55 103.0 346.15 98.0 M370.0 123.0 L370.65 123.6 Q377.05 127.85 379.4 132.35 L381.6 136.65 371.0 126.1 370.65 123.6 M359.6 133.25 L367.8 136.7 373.0 141.8 379.3 143.9 384.7 143.9 M331.2 105.2 L331.15 105.25 M336.15 114.35 L336.3 114.3 M412.55 226.85 L417.1 212.8 411.65 200.95 413.25 193.1 416.8 199.2 M359.55 133.25 L359.6 133.25 M358.0 132.6 L359.55 133.25 M318.0 145.6 Q324.2 135.1 332.15 136.75 M421.45 211.9 L417.1 212.8 421.3 214.35 432.0 218.25 M421.45 211.9 L430.35 210.05 M345.05 233.75 L347.6 234.8 348.65 235.2 356.05 237.65 358.2 238.95 M318.0 145.6 L317.85 145.7 M307.8 170.9 L309.7 167.65 M313.15 162.75 Q321.1 152.85 330.55 154.1 M316.6 184.1 L316.5 184.1" fill="none" stroke="#634527" stroke-linecap="round" stroke-linejoin="round" stroke-width="0.05"/>
  </g>
</svg>
