<?xml version="1.0" encoding="UTF-8" standalone="no"?>
<svg xmlns:xlink="http://www.w3.org/1999/xlink" height="60.6px" width="13.45px" xmlns="http://www.w3.org/2000/svg">
  <g transform="matrix(1.0, 0.0, 0.0, 1.0, -254.35, -163.8)">
    <path d="M258.5 191.05 L258.5 191.7 257.65 191.5 258.5 191.7 258.5 192.45 258.5 193.35 258.5 194.0 258.5 194.65 258.5 195.05 257.4 194.85 Q256.6 194.55 257.3 194.35 L257.25 193.75 Q256.6 193.35 257.3 193.1 L257.4 192.25 Q256.95 191.7 257.65 191.5 L257.95 190.9 258.5 191.05 M257.3 194.35 L258.5 194.65 257.3 194.35 M257.25 193.75 L258.5 194.0 257.25 193.75 M258.5 193.35 L257.3 193.1 258.5 193.35 M258.5 192.45 L257.4 192.25 258.5 192.45" fill="#fbd595" fill-rule="evenodd" stroke="none"/>
    <path d="M258.3 189.2 L258.4 189.25 258.85 191.15 258.5 191.05 257.95 190.9 256.95 190.65 256.95 188.6 257.0 188.6 257.45 188.85 257.75 188.95 258.3 189.2 M257.25 196.55 L256.25 196.5 256.65 194.7 257.4 194.85 258.5 195.05 258.65 195.1 257.95 196.55 257.25 196.55" fill="#e39109" fill-rule="evenodd" stroke="none"/>
    <path d="M259.8 191.4 L259.8 192.0 Q260.2 192.3 259.8 192.65 L259.75 193.65 Q260.25 194.05 259.55 194.25 L259.45 194.85 Q259.85 195.05 259.25 195.2 L258.65 195.1 258.5 195.05 258.5 194.65 258.5 194.0 259.55 194.25 258.5 194.0 258.5 193.35 258.5 192.45 258.5 191.7 258.5 191.05 258.85 191.15 259.8 191.4 M259.8 192.0 L258.5 191.7 259.8 192.0 M259.8 192.65 L258.5 192.45 259.8 192.65 M259.75 193.65 L258.5 193.35 259.75 193.65 M259.45 194.85 L258.5 194.65 259.45 194.85" fill="#f9bc73" fill-rule="evenodd" stroke="none"/>
    <path d="M259.95 189.95 L261.1 190.5 260.95 191.7 259.8 191.4 258.85 191.15 258.4 189.25 259.95 189.95 M259.25 195.2 L260.75 195.5 260.7 196.65 259.0 196.6 258.05 196.55 257.95 196.55 258.65 195.1 259.25 195.2" fill="#b46607" fill-rule="evenodd" stroke="none"/>
    <path d="M261.6 171.15 Q262.75 167.3 266.25 166.45 L266.35 166.45 266.3 166.35 266.65 166.65 262.55 171.45 261.6 171.15 262.55 171.45 262.65 171.45 260.25 174.1 260.1 174.25 258.15 177.6 257.45 177.65 258.15 177.6 258.1 177.7 257.3 180.65 257.2 181.2 257.05 181.65 256.35 181.8 257.05 181.65 257.05 181.7 257.75 186.1 256.75 186.45 257.75 186.1 258.3 189.2 257.75 188.95 257.0 188.6 Q256.2 187.95 256.75 186.45 253.4 184.15 256.35 181.8 254.35 180.0 257.45 177.65 255.45 176.6 259.45 173.95 L260.25 174.1 259.45 173.95 Q258.6 172.3 261.6 171.15 M265.7 164.0 L266.25 166.3 263.95 163.8 265.7 164.0 M258.05 196.55 L257.3 198.65 256.5 198.15 257.3 198.65 257.25 198.7 256.6 202.55 256.6 202.6 256.6 207.05 256.6 207.15 255.85 206.9 Q253.0 204.2 255.65 202.1 254.25 199.75 255.3 199.0 L256.5 198.15 Q255.3 197.3 257.25 196.55 L257.95 196.55 258.05 196.55 M263.6 221.1 L263.8 221.35 263.35 224.4 Q262.75 224.55 262.0 223.8 L263.35 221.25 263.15 221.05 263.05 221.05 Q261.0 220.15 261.1 218.35 257.95 217.8 259.4 215.75 255.8 213.3 257.2 211.45 254.05 209.1 255.85 206.9 L256.6 207.15 258.1 211.6 258.2 211.9 260.55 215.85 260.55 215.9 259.4 215.75 260.55 215.9 260.6 215.9 260.65 215.95 261.4 218.4 261.45 218.5 263.6 221.1 263.15 221.05 263.6 221.1 M256.6 202.55 L255.65 202.1 256.6 202.55 M257.2 211.45 L258.1 211.6 257.2 211.45 M261.4 218.4 L261.1 218.35 261.4 218.4" fill="#ffecc1" fill-rule="evenodd" stroke="none"/>
    <path d="M266.65 166.65 L266.3 166.35 266.35 166.45 266.25 166.45 Q262.75 167.3 261.6 171.15 L262.55 171.45 262.65 171.45 263.35 171.7 Q264.4 173.05 261.45 174.35 261.85 176.7 259.85 177.45 261.05 179.65 258.65 181.3 259.8 183.65 258.6 185.95 261.15 187.25 259.95 189.95 L261.1 190.5 260.95 191.7 259.8 191.4 259.8 192.0 Q260.2 192.3 259.8 192.65 L259.75 193.65 Q260.25 194.05 259.55 194.25 L259.45 194.85 Q259.85 195.05 259.25 195.2 L260.75 195.5 260.7 196.65 259.0 196.6 258.05 196.55 257.95 196.55 257.25 196.55 Q255.3 197.3 256.5 198.15 L257.3 198.65 258.15 199.15 Q259.9 201.55 257.75 203.05 259.55 205.3 258.25 207.65 260.15 208.95 259.5 211.85 261.35 213.25 261.4 216.05 263.05 216.6 262.75 218.45 L264.5 221.2 264.55 221.2 267.15 167.35 Q266.55 170.05 263.35 171.7 M266.65 166.65 L267.2 167.3 267.8 166.7 Q267.5 164.5 265.7 164.0 L263.95 163.8 266.25 166.3 266.3 166.35 M267.2 167.3 L267.15 167.35 267.2 167.3 M259.0 196.6 Q260.4 198.0 259.5 198.45 L258.15 199.15 M260.25 174.1 L259.45 173.95 Q255.45 176.6 257.45 177.65 L258.15 177.6 259.85 177.45 M260.25 174.1 L261.45 174.35 M256.35 181.8 L257.05 181.65 258.65 181.3 M257.45 177.65 Q254.35 180.0 256.35 181.8 253.4 184.15 256.75 186.45 L257.75 186.1 258.6 185.95 M258.3 189.2 L258.4 189.25 259.95 189.95 M258.5 191.7 L259.8 192.0 M258.85 191.15 L258.5 191.05 257.95 190.9 257.65 191.5 258.5 191.7 M258.5 192.45 L259.8 192.65 M258.85 191.15 L259.8 191.4 M256.75 186.45 Q256.2 187.95 257.0 188.6 L257.75 188.95 258.3 189.2 M257.95 190.9 L256.95 190.65 256.95 188.6 257.0 188.6 257.45 188.85 257.75 188.95 M257.4 194.85 Q256.6 194.55 257.3 194.35 L257.25 193.75 Q256.6 193.35 257.3 193.1 L257.4 192.25 Q256.95 191.7 257.65 191.5 M257.25 196.55 L256.25 196.5 256.65 194.7 257.4 194.85 258.5 195.05 258.65 195.1 259.25 195.2 M258.5 194.65 L257.3 194.35 M256.6 202.55 L257.75 203.05 M258.5 193.35 L259.75 193.65 M258.5 194.65 L259.45 194.85 M258.5 194.0 L259.55 194.25 M258.5 194.0 L257.25 193.75 M257.4 192.25 L258.5 192.45 M257.3 193.1 L258.5 193.35 M261.6 171.15 Q258.6 172.3 259.45 173.95 M263.35 224.4 L264.0 223.75 Q264.4 223.0 264.65 221.4 L264.55 221.25 264.5 221.2 263.6 221.1 263.15 221.05 263.05 221.05 Q261.0 220.15 261.1 218.35 257.95 217.8 259.4 215.75 255.8 213.3 257.2 211.45 254.05 209.1 255.85 206.9 253.0 204.2 255.65 202.1 254.25 199.75 255.3 199.0 L256.5 198.15 M263.35 224.4 Q262.75 224.55 262.0 223.8 L263.35 221.25 263.15 221.05 M264.55 221.2 L264.55 221.25 M256.6 207.15 L258.25 207.65 M255.65 202.1 L256.6 202.55 M255.85 206.9 L256.6 207.15 M258.1 211.6 L259.5 211.85 M258.1 211.6 L257.2 211.45 M261.4 218.4 L262.75 218.45 M260.6 215.9 L261.4 216.05 M259.4 215.75 L260.55 215.9 260.6 215.9 M261.1 218.35 L261.4 218.4" fill="none" stroke="#000000" stroke-linecap="round" stroke-linejoin="round" stroke-opacity="0.37254903" stroke-width="0.05"/>
  </g>
</svg>
