<?xml version="1.0" encoding="UTF-8" standalone="no"?>
<svg xmlns:xlink="http://www.w3.org/1999/xlink" height="99.35px" width="61.65px" xmlns="http://www.w3.org/2000/svg">
  <g transform="matrix(1.0, 0.0, 0.0, 1.0, -244.15, -150.8)">
    <path d="M288.1 170.8 L287.25 169.75 291.2 165.9 292.35 167.05 288.1 170.8 M298.55 214.0 Q297.45 217.1 296.0 219.9 L291.45 215.55 292.65 211.9 298.55 214.0 M295.0 221.75 L292.5 225.6 288.25 222.2 289.8 219.25 295.0 221.75" fill="#de9e5f" fill-rule="evenodd" stroke="none"/>
    <path d="M295.55 171.05 Q296.9 173.05 297.95 175.3 L292.4 178.55 291.55 176.45 295.55 171.05" fill="#db944d" fill-rule="evenodd" stroke="none"/>
    <path d="M288.1 170.8 L292.35 167.05 Q294.15 168.9 295.55 171.05 L291.55 176.45 Q290.1 173.3 288.1 170.8 M297.95 175.3 L299.65 179.65 293.7 182.75 292.4 178.55 297.95 175.3" fill="#c07427" fill-rule="evenodd" stroke="none"/>
    <path d="M299.65 179.65 L299.9 180.55 294.15 184.75 293.7 182.75 299.65 179.65" fill="#b68e32" fill-rule="evenodd" stroke="none"/>
    <path d="M291.2 165.9 L287.25 169.75 Q278.0 159.0 257.8 158.3 L255.45 158.25 254.45 158.25 253.35 158.25 250.55 158.35 Q241.95 163.2 244.9 153.1 L245.75 150.8 Q244.2 155.95 252.5 154.55 L252.6 154.55 253.35 158.25 252.6 154.55 255.35 154.55 256.75 154.6 257.8 154.6 257.8 158.3 257.8 154.6 Q280.2 155.45 291.2 165.9 M299.9 180.55 Q302.45 189.35 301.45 201.15 300.7 208.05 298.55 214.0 L292.65 211.9 Q294.15 206.85 294.8 201.15 295.5 191.95 294.15 184.75 L299.9 180.55 M292.5 225.6 Q288.65 230.8 283.3 235.0 L281.25 231.25 Q285.35 227.15 288.25 222.2 L292.5 225.6 M278.6 238.25 Q271.8 242.4 263.05 245.25 L261.8 245.6 262.15 243.45 261.8 245.6 260.65 245.95 259.5 246.4 Q258.65 246.75 258.05 247.05 L257.8 247.2 257.0 245.4 257.8 247.2 Q255.6 248.5 257.7 249.75 252.25 247.6 257.0 245.4 L257.95 245.0 259.1 244.55 259.5 246.4 259.1 244.55 260.1 244.25 262.15 243.45 Q270.8 239.9 277.2 234.8 L278.6 238.25 M255.35 154.55 L255.45 158.25 255.35 154.55" fill="#463f28" fill-rule="evenodd" stroke="none"/>
    <path d="M296.0 219.9 L295.0 221.75 289.8 219.25 291.45 215.55 296.0 219.9" fill="#d99148" fill-rule="evenodd" stroke="none"/>
    <path d="M283.3 235.0 L278.6 238.25 277.2 234.8 281.25 231.25 283.3 235.0" fill="#d58331" fill-rule="evenodd" stroke="none"/>
    <path d="M287.25 169.75 L288.1 170.8 Q290.1 173.3 291.55 176.45 L292.4 178.55 293.7 182.75 294.15 184.75 Q295.5 191.95 294.8 201.15 294.15 206.85 292.65 211.9 L291.45 215.55 289.8 219.25 288.25 222.2 Q285.35 227.15 281.25 231.25 L277.2 234.8 Q270.8 239.9 262.15 243.45 L260.1 244.25 259.1 244.55 257.95 245.0 257.0 245.4 Q252.25 247.6 257.7 249.75 255.6 248.5 257.8 247.2 L258.05 247.05 Q258.65 246.75 259.5 246.4 L260.65 245.95 261.8 245.6 263.05 245.25 Q271.8 242.4 278.6 238.25 L283.3 235.0 Q288.65 230.8 292.5 225.6 L295.0 221.75 296.0 219.9 Q297.45 217.1 298.55 214.0 300.7 208.05 301.45 201.15 302.45 189.35 299.9 180.55 L299.65 179.65 297.95 175.3 Q296.9 173.05 295.55 171.05 294.15 168.9 292.35 167.05 L291.2 165.9 Q280.2 155.45 257.8 154.6 L256.75 154.6 255.35 154.55 252.6 154.55 252.5 154.55 Q244.2 155.95 245.75 150.8 L244.9 153.1 Q241.95 163.2 250.55 158.35 L253.35 158.25 254.45 158.25 255.45 158.25 257.8 158.3 Q278.0 159.0 287.25 169.75" fill="none" stroke="#000000" stroke-linecap="round" stroke-linejoin="round" stroke-opacity="0.3019608" stroke-width="0.05"/>
    <path d="M257.8 158.3 L257.75 159.15 M261.8 245.6 L261.65 246.5 M252.6 154.55 L252.5 154.0 M253.35 158.25 L252.6 154.55 M255.45 158.25 L255.35 154.55 255.25 153.4 M253.5 158.95 L253.35 158.25 M257.8 154.6 L257.8 153.0 M255.45 158.6 L255.45 158.25 M257.8 158.3 L257.8 154.6 M257.0 245.4 L257.8 247.2 258.15 248.05 M259.5 246.4 L259.1 244.55 258.85 243.3 M256.6 244.45 L257.0 245.4 M261.8 245.6 L262.15 243.45 262.3 242.35 M259.5 246.4 L259.8 247.75 M257.95 245.0 L254.45 158.25" fill="none" stroke="#000000" stroke-linecap="round" stroke-linejoin="round" stroke-opacity="0.3019608" stroke-width="1.0"/>
    <path d="M276.65 234.15 L276.7 234.15 276.8 234.25 Q278.25 234.9 279.3 236.85 L279.5 237.05 Q281.95 243.95 279.55 250.15 279.9 244.8 278.85 239.85 L277.9 245.4 Q277.15 240.4 274.75 239.35 272.95 244.3 272.9 250.05 272.7 247.3 271.05 245.8 269.55 244.6 269.5 248.85 L267.85 242.95 Q267.3 241.25 266.9 242.6 L266.45 247.6 Q266.2 244.15 264.8 241.75 263.15 245.35 262.65 248.6 261.55 245.95 261.75 243.75 L261.75 243.6 261.8 243.4 Q267.75 235.4 276.65 234.15" fill="#347451" fill-rule="evenodd" stroke="none"/>
    <path d="M276.65 234.15 Q267.75 235.4 261.8 243.4 262.05 241.2 264.5 237.85 267.0 234.35 275.15 233.8 L275.45 233.85 276.65 234.15" fill="#4fb07a" fill-rule="evenodd" stroke="none"/>
    <path d="M261.8 243.4 L261.75 243.6 261.75 243.75 Q261.55 245.95 262.65 248.6 263.15 245.35 264.8 241.75 266.2 244.15 266.45 247.6 L266.9 242.6 Q267.3 241.25 267.85 242.95 L269.5 248.85 Q269.55 244.6 271.05 245.8 272.7 247.3 272.9 250.05 272.95 244.3 274.75 239.35 277.15 240.4 277.9 245.4 L278.85 239.85 Q279.9 244.8 279.55 250.15 281.95 243.95 279.5 237.05 L279.3 236.85 Q278.25 234.9 276.8 234.25 L276.7 234.15 276.65 234.15 275.45 233.85 275.15 233.8 Q267.0 234.35 264.5 237.85 262.05 241.2 261.8 243.4 M266.45 247.6 L266.45 249.6" fill="none" stroke="#000000" stroke-linecap="round" stroke-linejoin="round" stroke-opacity="0.3019608" stroke-width="0.05"/>
    <path d="M286.05 159.15 Q289.35 164.1 289.45 167.05 289.5 170.2 287.35 173.85 286.95 169.3 284.8 164.0 282.3 167.2 281.45 171.95 L281.4 164.95 Q280.85 163.05 279.85 165.25 L276.45 173.25 Q276.9 167.3 274.4 168.85 271.55 170.6 270.85 174.4 271.5 166.5 269.2 159.4 265.3 160.55 263.5 167.3 L262.65 159.45 Q260.3 166.2 260.3 173.65 257.85 166.3 260.6 158.7 273.35 153.8 286.05 159.15" fill="#367854" fill-rule="evenodd" stroke="none"/>
    <path d="M260.6 158.7 Q261.15 157.1 262.0 155.45 L262.35 155.2 Q264.2 152.7 266.6 152.0 L266.8 151.85 268.9 151.65 269.25 151.65 Q282.2 153.5 285.75 158.75 L286.05 159.15 Q273.35 153.8 260.6 158.7" fill="#62b989" fill-rule="evenodd" stroke="none"/>
    <path d="M260.6 158.7 Q261.15 157.1 262.0 155.45 L262.35 155.2 Q264.2 152.7 266.6 152.0 L266.8 151.85 268.9 151.65 269.25 151.65 Q282.2 153.5 285.75 158.75 L286.05 159.15 Q289.35 164.1 289.45 167.05 289.5 170.2 287.35 173.85 L287.3 174.25 M287.35 173.85 Q286.95 169.3 284.8 164.0 282.3 167.2 281.45 171.95 L281.15 174.75 M281.45 171.95 L281.4 164.95 Q280.85 163.05 279.85 165.25 L276.45 173.25 Q276.9 167.3 274.4 168.85 271.55 170.6 270.85 174.4 271.5 166.5 269.2 159.4 265.3 160.55 263.5 167.3 L262.65 159.45 Q260.3 166.2 260.3 173.65 257.85 166.3 260.6 158.7" fill="none" stroke="#000000" stroke-linecap="round" stroke-linejoin="round" stroke-opacity="0.3019608" stroke-width="0.05"/>
    <path d="M304.35 197.7 L304.35 197.75 300.85 205.2 294.25 204.65 291.8 199.3 291.8 199.1 304.35 197.7" fill="#463f28" fill-rule="evenodd" stroke="none"/>
    <path d="M291.8 199.1 L291.55 195.75 303.85 194.65 304.35 197.7 291.8 199.1" fill="#9a8b58" fill-rule="evenodd" stroke="none"/>
    <path d="M304.35 197.7 L304.35 197.75 300.85 205.2 294.25 204.65 291.8 199.3 291.8 199.1 291.55 195.75 303.85 194.65 304.35 197.7 Z" fill="none" stroke="#000000" stroke-linecap="round" stroke-linejoin="round" stroke-opacity="0.3019608" stroke-width="0.05"/>
    <path d="M303.55 194.6 Q305.55 195.1 305.8 195.6 305.95 196.05 305.15 196.85 304.65 196.15 303.2 195.5 302.15 196.15 302.05 196.95 L301.6 195.85 Q301.15 195.6 300.8 196.05 L299.6 197.55 Q299.45 196.6 298.25 197.05 296.9 197.55 296.85 198.15 296.65 196.85 295.05 195.95 293.1 196.45 292.65 197.6 L291.7 196.45 Q290.95 197.7 291.45 198.9 289.7 197.95 290.6 196.5 296.75 194.75 303.55 194.6" fill="#367854" fill-rule="evenodd" stroke="none"/>
    <path d="M290.6 196.5 L291.15 195.9 291.25 195.8 293.25 195.0 293.3 194.95 294.35 194.75 294.55 194.75 Q301.2 194.05 303.35 194.55 L303.55 194.6 Q296.75 194.75 290.6 196.5" fill="#62b989" fill-rule="evenodd" stroke="none"/>
    <path d="M290.6 196.5 L291.15 195.9 291.25 195.8 293.25 195.0 293.3 194.95 294.35 194.75 294.55 194.75 Q301.2 194.05 303.35 194.55 L303.55 194.6 Q305.55 195.1 305.8 195.6 305.95 196.05 305.15 196.85 L305.15 196.9 M305.15 196.85 Q304.65 196.15 303.2 195.5 302.15 196.15 302.05 196.95 L302.1 197.4 M302.05 196.95 L301.6 195.85 Q301.15 195.6 300.8 196.05 L299.6 197.55 Q299.45 196.6 298.25 197.05 296.9 197.55 296.85 198.15 296.65 196.85 295.05 195.95 293.1 196.45 292.65 197.6 L291.7 196.45 Q290.95 197.7 291.45 198.9 289.7 197.95 290.6 196.5" fill="none" stroke="#000000" stroke-linecap="round" stroke-linejoin="round" stroke-opacity="0.3019608" stroke-width="0.05"/>
  </g>
</svg>
