<?xml version="1.0" encoding="UTF-8" standalone="no"?>
<svg xmlns:xlink="http://www.w3.org/1999/xlink" height="275.9px" width="319.45px" xmlns="http://www.w3.org/2000/svg">
  <g transform="matrix(1.0, 0.0, 0.0, 1.0, -84.8, -74.1)">
    <path d="M365.1 86.4 Q366.15 81.15 364.5 75.0 379.85 74.9 393.4 79.65 395.85 81.0 397.75 82.75 391.1 81.95 387.75 89.5 389.05 93.8 387.95 97.2 L374.45 90.5 Q374.05 88.6 371.3 88.05 366.65 89.15 365.1 86.4 M392.6 114.05 Q394.2 112.95 395.25 111.5 396.65 108.5 391.85 105.45 391.75 99.85 398.4 101.85 401.05 103.45 403.7 93.75 405.35 102.1 401.85 114.15 L387.25 131.6 Q384.6 128.65 382.9 133.5 381.0 138.45 380.05 127.6 L380.25 127.2 380.65 126.35 392.6 114.1 392.6 114.05 392.6 114.1 392.6 114.05 M375.6 139.95 Q376.4 143.85 379.3 144.15 L382.9 142.25 376.9 163.4 378.1 167.05 382.25 170.8 Q381.95 173.0 378.9 173.4 376.5 171.4 374.95 169.0 L378.1 167.05 374.95 169.0 Q373.6 166.85 372.85 164.35 371.65 160.25 372.2 155.2 373.65 146.75 375.6 139.95 M372.85 164.35 L376.9 163.4 372.85 164.35 M203.5 326.05 Q208.65 329.85 211.15 337.5 213.55 342.1 208.25 344.85 208.5 336.65 202.8 330.55 L203.5 326.05 202.8 330.55 199.05 328.05 180.65 329.6 Q182.65 326.95 182.85 323.2 L190.15 322.35 Q194.55 322.25 198.15 323.35 L198.2 323.4 198.9 324.4 199.25 323.75 200.7 324.35 Q202.2 325.1 203.5 326.05 M198.0 344.4 L196.7 341.45 202.55 338.25 Q202.5 340.2 201.95 342.75 L198.0 344.4 M110.55 320.4 Q109.35 294.7 123.35 264.6 125.5 262.85 127.65 266.7 L129.0 276.5 Q134.55 280.05 138.75 271.75 140.6 266.1 138.75 256.6 141.35 249.35 147.5 245.85 151.9 241.15 147.85 228.65 L151.35 225.0 Q155.45 209.15 150.45 187.95 152.2 189.4 154.65 188.65 L156.25 187.95 Q162.05 184.25 157.6 180.5 151.65 181.25 149.55 175.45 148.4 169.3 150.6 167.75 173.2 185.35 205.35 194.8 L208.55 194.05 Q204.6 201.5 210.4 206.2 194.6 205.45 201.75 210.5 205.65 211.9 205.45 215.85 193.0 218.05 175.0 229.7 173.4 227.7 172.45 225.3 166.45 221.6 162.65 233.7 161.5 236.7 161.75 239.4 147.9 255.2 137.5 280.2 L135.5 285.95 Q133.5 287.45 131.35 291.3 132.2 292.75 132.65 294.15 L132.65 294.2 129.25 301.25 Q126.65 301.25 124.65 304.8 125.4 308.6 127.05 311.3 126.05 326.1 131.25 328.3 L136.45 328.7 Q136.25 339.3 121.95 337.1 117.0 332.1 117.9 323.65 116.75 314.55 110.55 320.4 M135.55 164.5 Q126.35 150.1 135.55 153.95 L143.3 161.6 Q136.75 160.35 135.55 164.5 M242.85 163.35 L245.25 156.2 244.1 150.5 Q249.8 153.9 253.35 150.5 258.7 147.8 253.35 140.9 253.7 138.6 255.6 137.85 L255.6 137.8 Q257.6 137.0 261.25 137.85 268.25 134.35 259.85 128.75 264.25 122.55 269.6 117.0 L273.95 113.95 Q257.75 114.95 241.55 109.75 L246.3 114.15 244.75 122.05 Q239.95 121.55 236.75 127.45 232.55 116.9 226.65 105.4 232.05 110.95 239.9 101.95 256.1 113.75 280.75 106.7 288.7 100.25 298.05 94.75 302.4 98.25 304.75 102.35 290.0 103.4 284.2 120.3 285.9 125.0 292.25 121.95 289.1 130.5 282.3 135.4 279.85 130.7 274.55 136.05 271.2 140.85 273.45 145.65 L270.6 149.95 270.55 150.0 266.6 152.35 Q263.05 157.15 262.7 161.55 L252.8 163.95 Q248.9 160.75 242.85 163.35 M180.1 198.05 Q178.9 195.25 176.45 194.3 172.95 194.0 170.95 195.0 L159.75 192.4 154.65 188.7 Q160.0 205.85 157.35 219.05 L161.0 216.4 Q166.85 211.7 173.2 207.9 173.4 209.95 174.85 211.5 176.6 213.4 180.2 214.5 190.25 216.05 193.3 203.4 191.4 193.15 186.25 197.0 L185.45 199.15 180.1 198.05 M147.2 345.2 Q148.95 341.35 144.15 340.15 147.9 334.95 157.1 329.75 L161.6 328.15 Q164.45 327.1 167.75 326.2 167.25 330.45 170.45 333.4 161.5 341.1 147.2 345.2 M200.7 324.35 L199.05 328.05 200.7 324.35" fill="#00cccc" fill-rule="evenodd" stroke="none"/>
    <path d="M336.0 98.05 Q339.35 88.4 336.65 78.8 339.35 88.4 336.0 98.05 L334.6 101.45 334.25 98.6 Q332.3 88.3 320.95 83.7 332.3 88.3 334.25 98.6 L316.8 104.05 306.7 107.2 Q306.05 104.65 304.75 102.35 302.4 98.25 298.05 94.75 302.4 88.9 310.7 88.05 312.55 85.4 315.25 84.4 317.95 83.35 320.95 83.7 328.95 77.4 336.65 78.8 343.05 74.75 351.25 75.95 350.85 83.4 347.45 90.3 L344.5 95.35 347.45 90.3 Q350.85 83.4 351.25 75.95 358.55 72.8 364.5 75.0 366.15 81.15 365.1 86.4 L364.35 89.15 349.85 93.7 Q349.0 92.0 347.45 90.3 349.0 92.0 349.85 93.7 L344.5 95.35 336.0 98.05 M208.55 194.05 L212.15 192.6 Q218.65 186.85 225.1 185.35 225.6 184.4 227.75 181.95 229.85 179.45 233.65 177.8 236.7 170.3 240.9 167.4 L242.85 163.35 Q248.9 160.75 252.8 163.95 254.05 164.95 255.05 166.55 L248.75 175.1 246.0 179.35 240.25 188.1 232.1 194.05 226.9 191.05 225.1 185.35 226.9 191.05 232.1 194.05 228.65 196.6 226.9 191.05 228.65 196.6 222.2 201.25 220.0 202.2 210.45 206.2 210.4 206.2 Q204.6 201.5 208.55 194.05 M233.65 177.8 Q236.65 184.6 240.25 188.1 236.65 184.6 233.65 177.8 M240.9 167.4 L243.1 172.5 246.0 179.35 243.1 172.5 240.9 167.4 M310.7 88.05 Q316.55 96.05 316.8 104.05 316.55 96.05 310.7 88.05 M243.1 172.5 L248.75 175.1 243.1 172.5 M212.15 192.6 Q215.0 198.4 220.0 202.2 215.0 198.4 212.15 192.6" fill="#f5e2bc" fill-rule="evenodd" stroke="none"/>
    <path d="M364.35 89.15 L365.1 86.4 Q366.65 89.15 371.3 88.05 374.05 88.6 374.45 90.5 L364.35 89.15 M387.75 97.7 L387.95 97.2 Q389.05 93.8 387.75 89.5 391.1 81.95 397.75 82.75 402.35 87.05 403.7 93.75 401.05 103.45 398.4 101.85 391.75 99.85 391.85 105.45 396.65 108.5 395.25 111.5 394.2 112.95 392.6 114.05 L388.05 97.65 387.75 97.7 M375.6 139.95 Q377.6 132.9 380.05 127.6 381.0 138.45 382.9 133.5 384.6 128.65 387.25 131.6 L382.9 142.25 379.3 144.15 Q376.4 143.85 375.6 139.95 M390.7 163.25 L391.6 168.55 387.05 168.8 390.7 163.25 M378.9 173.4 Q381.95 173.0 382.25 170.8 L393.45 174.5 Q390.25 180.2 385.65 177.35 381.7 175.65 378.9 173.4 M117.95 344.3 Q115.0 341.55 113.15 337.5 110.95 329.2 110.55 320.4 116.75 314.55 117.9 323.65 117.0 332.1 121.95 337.1 136.25 339.3 136.45 328.7 142.1 334.4 157.1 329.75 147.9 334.95 144.15 340.15 148.95 341.35 147.2 345.2 133.65 347.85 117.95 344.3 M123.35 264.6 L124.35 262.5 Q134.6 242.9 147.85 228.65 151.9 241.15 147.5 245.85 141.35 249.35 138.75 256.6 140.6 266.1 138.75 271.75 134.55 280.05 129.0 276.5 L127.65 266.7 Q125.5 262.85 123.35 264.6 M150.45 187.95 L148.75 181.55 Q141.65 173.7 135.55 164.5 136.75 160.35 143.3 161.6 L150.6 167.75 Q148.4 169.3 149.55 175.45 151.65 181.25 157.6 180.5 162.05 184.25 156.25 187.95 L154.65 188.65 Q152.2 189.4 150.45 187.95 M244.1 150.5 Q241.55 139.6 236.75 127.45 239.95 121.55 244.75 122.05 L250.45 134.85 255.6 137.85 Q253.7 138.6 253.35 140.9 258.7 147.8 253.35 150.5 249.8 153.9 244.1 150.5 M226.65 105.4 Q220.75 93.95 213.15 81.55 211.8 68.85 223.05 81.55 230.8 90.85 237.0 99.65 L239.9 101.95 Q232.05 110.95 226.65 105.4 M170.95 195.0 Q172.95 194.0 176.45 194.3 178.9 195.25 180.1 198.05 L170.95 195.0 M185.45 199.15 L186.25 197.0 Q191.4 193.15 193.3 203.4 190.25 216.05 180.2 214.5 176.6 213.4 174.85 211.5 173.4 209.95 173.2 207.9 L174.85 211.5 180.4 209.6 Q186.8 209.0 189.25 202.3 L185.45 199.15 M304.75 102.35 Q306.05 104.65 306.7 107.2 295.5 112.85 292.25 121.95 285.9 125.0 284.2 120.3 290.0 103.4 304.75 102.35 M259.85 128.75 Q268.25 134.35 261.25 137.85 257.6 137.0 255.6 137.8 L257.15 132.65 259.85 128.75 M270.55 150.0 L262.7 161.55 Q263.05 157.15 266.6 152.35 L270.55 150.0 M273.45 145.65 Q271.2 140.85 274.55 136.05 279.85 130.7 282.3 135.4 L273.45 145.65 M175.0 229.7 L161.75 239.4 Q161.5 236.7 162.65 233.7 166.45 221.6 172.45 225.3 173.4 227.7 175.0 229.7 M205.45 215.85 Q205.65 211.9 201.75 210.5 194.6 205.45 210.4 206.2 L210.45 206.2 211.95 207.3 Q213.25 215.25 205.45 215.85 M135.5 285.95 L132.65 294.15 Q132.2 292.75 131.35 291.3 133.5 287.45 135.5 285.95 M129.25 301.25 L127.05 311.3 Q125.4 308.6 124.65 304.8 126.65 301.25 129.25 301.25 M170.45 333.4 Q167.25 330.45 167.75 326.2 174.35 324.35 182.85 323.2 182.65 326.95 180.65 329.6 L170.45 333.4" fill="#00a8cc" fill-rule="evenodd" stroke="none"/>
    <path d="M357.25 98.95 Q362.4 94.55 364.35 89.15 L374.45 90.5 Q374.7 91.75 373.95 93.6 373.15 96.2 368.85 97.85 363.9 97.9 357.45 99.15 L357.25 98.95 M387.75 97.7 L388.05 97.65 392.6 114.05 Q389.5 116.1 384.25 116.7 387.0 106.15 382.1 101.5 385.75 102.9 387.75 97.7 M382.9 142.25 L387.25 131.6 Q390.75 134.6 391.55 138.45 L387.45 145.9 385.55 149.3 Q387.15 144.5 382.9 142.25 M391.6 168.55 L390.7 163.25 396.4 166.3 Q395.1 171.5 393.45 174.5 L382.25 170.8 382.25 166.9 Q383.75 168.6 387.05 168.8 L391.6 168.55 M136.65 350.0 Q124.5 350.4 117.95 344.3 133.65 347.85 147.2 345.2 144.6 348.3 136.65 350.0 M170.95 195.0 L180.1 198.05 180.85 200.4 Q183.85 201.9 185.45 199.15 L189.25 202.3 Q186.8 209.0 180.4 209.6 L174.85 211.5 173.2 207.9 177.45 205.5 Q172.75 202.6 168.35 199.35 168.45 196.15 170.95 195.0 M306.7 107.2 Q308.25 113.3 305.85 120.5 300.05 124.85 295.15 130.0 298.2 120.75 295.15 120.3 L292.25 121.95 Q295.5 112.85 306.7 107.2 M284.25 144.15 L283.25 145.75 Q274.15 161.1 266.6 171.65 262.25 166.9 262.7 161.55 L270.55 150.0 270.6 149.95 274.55 147.55 273.45 145.65 282.3 135.4 Q283.75 138.1 284.25 144.15 M255.6 137.8 L255.6 137.85 250.45 134.85 244.75 122.05 Q248.2 122.35 252.5 126.05 254.45 130.3 256.0 134.4 L257.15 132.65 255.6 137.8 M155.3 260.25 Q152.3 257.9 157.3 250.55 165.6 247.85 164.0 245.15 162.0 242.45 161.75 239.4 L175.0 229.7 Q177.95 233.35 183.05 235.45 166.8 244.65 155.3 260.25 M135.5 285.95 Q138.45 283.6 141.0 286.55 137.85 294.4 135.45 303.2 133.35 310.8 133.1 316.4 129.3 314.85 127.05 311.3 L129.25 301.25 Q130.25 301.25 131.35 301.75 133.9 298.3 132.65 294.2 L132.65 294.15 135.5 285.95 M218.3 208.6 Q220.3 214.25 215.9 217.8 L214.95 218.35 Q206.4 223.5 194.9 229.4 190.5 225.65 197.0 221.95 205.05 218.9 205.45 215.85 213.25 215.25 211.95 207.3 213.6 208.3 215.8 209.2 L218.3 208.6 M180.65 329.6 Q178.9 331.9 175.8 333.4 171.9 335.3 170.45 333.4 L180.65 329.6" fill="#0092b0" fill-rule="evenodd" stroke="none"/>
    <path d="M368.85 97.85 Q373.15 96.2 373.95 93.6 374.7 91.75 374.45 90.5 L387.95 97.2 387.75 97.7 Q385.75 102.9 382.1 101.5 378.05 97.7 368.85 97.85 M392.6 114.05 L392.6 114.1 380.65 126.35 Q383.1 121.0 384.25 116.7 389.5 116.1 392.6 114.05 M391.55 138.45 Q390.75 134.6 387.25 131.6 L401.85 114.15 Q398.7 124.8 391.55 138.45 M381.25 165.1 Q381.6 166.15 382.25 166.9 L382.25 170.8 378.1 167.05 376.9 163.4 380.95 162.45 376.9 163.4 382.9 142.25 Q387.15 144.5 385.55 149.3 381.15 157.65 380.95 162.45 380.9 163.95 381.25 165.1 L378.1 167.05 381.25 165.1 M208.25 344.85 Q205.1 346.4 199.3 347.35 L198.0 344.4 201.95 342.75 Q202.5 340.2 202.55 338.25 202.6 336.4 202.1 335.1 201.05 332.15 197.45 331.75 191.75 331.05 179.65 336.8 153.05 349.4 136.65 350.0 144.6 348.3 147.2 345.2 161.5 341.1 170.45 333.4 171.9 335.3 175.8 333.4 178.9 331.9 180.65 329.6 L199.05 328.05 197.45 331.75 199.05 328.05 202.8 330.55 202.1 335.1 202.8 330.55 Q208.5 336.65 208.25 344.85 M180.1 198.05 L185.45 199.15 Q183.85 201.9 180.85 200.4 L180.1 198.05 M161.0 216.4 L157.35 219.05 Q160.0 205.85 154.65 188.7 L159.75 192.4 170.95 195.0 Q168.45 196.15 168.35 199.35 163.9 196.05 159.75 192.4 164.1 205.65 161.0 216.4 M295.15 130.0 Q289.0 136.45 284.25 144.15 283.75 138.1 282.3 135.4 289.1 130.5 292.25 121.95 L295.15 120.3 Q298.2 120.75 295.15 130.0 M266.6 171.65 L266.6 171.7 265.95 172.6 Q262.1 176.65 256.6 174.25 L257.4 171.8 Q256.4 168.65 255.05 166.55 254.05 164.95 252.8 163.95 L262.7 161.55 Q262.25 166.9 266.6 171.65 M244.75 122.05 L246.3 114.15 241.55 109.75 Q257.75 114.95 273.95 113.95 L269.6 117.0 Q256.7 120.6 246.3 114.15 249.8 120.2 252.5 126.05 248.2 122.35 244.75 122.05 M273.45 145.65 L274.55 147.55 270.6 149.95 273.45 145.65 M161.75 239.4 Q162.0 242.45 164.0 245.15 165.6 247.85 157.3 250.55 152.3 257.9 155.3 260.25 146.85 271.7 141.0 286.55 138.45 283.6 135.5 285.95 L137.5 280.2 Q147.9 255.2 161.75 239.4 M183.05 235.45 Q177.95 233.35 175.0 229.7 193.0 218.05 205.45 215.85 205.05 218.9 197.0 221.95 190.5 225.65 194.9 229.4 L187.8 232.9 Q185.35 234.1 183.05 235.45 M132.65 294.2 Q133.9 298.3 131.35 301.75 130.25 301.25 129.25 301.25 L132.65 294.2 M127.05 311.3 Q129.3 314.85 133.1 316.4 132.7 324.85 136.45 328.7 L131.25 328.3 Q126.05 326.1 127.05 311.3" fill="#00aeae" fill-rule="evenodd" stroke="none"/>
    <path d="M336.0 98.05 L344.5 95.35 349.85 93.7 364.35 89.15 Q362.4 94.55 357.25 98.95 L356.85 99.3 Q353.4 101.6 350.15 100.7 343.4 104.5 336.65 104.55 334.25 107.15 332.0 106.25 L334.6 101.45 332.0 106.25 Q323.15 112.1 314.75 114.55 310.5 119.0 305.85 120.5 308.25 113.3 306.7 107.2 L316.8 104.05 Q316.95 109.3 314.75 114.55 316.95 109.3 316.8 104.05 L334.25 98.6 334.6 101.45 336.0 98.05 M350.15 100.7 Q351.55 97.2 349.85 93.7 351.55 97.2 350.15 100.7 M344.5 95.35 Q341.3 100.1 336.65 104.55 341.3 100.1 344.5 95.35 M232.1 194.05 L240.25 188.1 Q242.55 190.3 245.05 191.15 242.55 190.3 240.25 188.1 L246.0 179.35 248.75 175.1 255.05 166.55 Q256.4 168.65 257.4 171.8 L256.6 174.25 Q256.95 177.45 254.45 177.65 L254.4 177.65 254.15 178.15 Q253.35 184.75 248.95 186.25 248.15 190.5 245.05 191.15 243.0 196.5 238.5 197.75 L232.1 194.05 238.5 197.75 Q235.4 203.15 230.75 203.35 229.1 206.3 227.7 206.05 L226.25 205.7 Q222.8 204.25 220.0 202.2 222.8 204.25 226.25 205.7 223.6 209.8 218.3 208.6 L215.8 209.2 Q213.6 208.3 211.95 207.3 L210.45 206.2 220.0 202.2 222.2 201.25 228.65 196.6 232.1 194.05 M254.4 177.65 L248.75 175.1 254.4 177.65 M248.95 186.25 L246.0 179.35 248.95 186.25 M228.65 196.6 L230.75 203.35 228.65 196.6" fill="#ebc77a" fill-rule="evenodd" stroke="none"/>
    <path d="M392.6 114.1 L392.6 114.05 M381.25 165.1 L378.1 167.05 374.95 169.0 M376.9 163.4 L380.95 162.45 M376.9 163.4 L372.85 164.35 203.5 326.05 202.8 330.55 202.1 335.1 M151.35 225.0 Q155.45 209.15 150.45 187.95 L148.75 181.55 Q141.65 173.7 135.55 164.5 126.35 150.1 135.55 153.95 L143.3 161.6 150.6 167.75 Q173.2 185.35 205.35 194.8 M245.25 156.2 L244.1 150.5 Q241.55 139.6 236.75 127.45 232.55 116.9 226.65 105.4 220.75 93.95 213.15 81.55 211.8 68.85 223.05 81.55 230.8 90.85 237.0 99.65 L239.9 101.95 Q256.1 113.75 280.75 106.7 M168.35 199.35 Q172.75 202.6 177.45 205.5 M256.0 134.4 Q254.45 130.3 252.5 126.05 249.8 120.2 246.3 114.15 256.7 120.6 269.6 117.0 M199.05 328.05 L200.7 324.35 M199.05 328.05 L197.45 331.75 M159.75 192.4 Q163.9 196.05 168.35 199.35 M161.0 216.4 Q164.1 205.65 159.75 192.4" fill="none" stroke="#333399" stroke-linecap="round" stroke-linejoin="round" stroke-width="0.05"/>
    <path d="M357.45 99.15 Q363.9 97.9 368.85 97.85 378.05 97.7 382.1 101.5 387.0 106.15 384.25 116.7 383.1 121.0 380.65 126.35 L380.25 127.2 380.05 127.6 Q377.6 132.9 375.6 139.95 373.65 146.75 372.2 155.2 371.65 160.25 372.85 164.35 373.6 166.85 374.95 169.0 376.5 171.4 378.9 173.4 381.7 175.65 385.65 177.35 390.25 180.2 393.45 174.5 395.1 171.5 396.4 166.3 L390.7 163.25 387.05 168.8 391.6 168.55 M397.75 82.75 Q395.85 81.0 393.4 79.65 379.85 74.9 364.5 75.0 M403.7 93.75 Q402.35 87.05 397.75 82.75 M401.85 114.15 Q405.35 102.1 403.7 93.75 M385.55 149.3 L387.45 145.9 391.55 138.45 Q398.7 124.8 401.85 114.15 M356.85 99.3 L357.45 99.15 M382.25 166.9 Q381.6 166.15 381.25 165.1 380.9 163.95 380.95 162.45 381.15 157.65 385.55 149.3 M382.25 166.9 Q383.75 168.6 387.05 168.8 M203.5 326.05 Q208.65 329.85 211.15 337.5 213.55 342.1 208.25 344.85 205.1 346.4 199.3 347.35 L198.0 344.4 196.7 341.45 202.55 338.25 Q202.6 336.4 202.1 335.1 201.05 332.15 197.45 331.75 191.75 331.05 179.65 336.8 153.05 349.4 136.65 350.0 124.5 350.4 117.95 344.3 115.0 341.55 113.15 337.5 110.95 329.2 110.55 320.4 109.35 294.7 123.35 264.6 L124.35 262.5 Q134.6 242.9 147.85 228.65 L151.35 225.0 M205.35 194.8 L208.55 194.05 M242.85 163.35 L245.25 156.2 M280.75 106.7 Q288.7 100.25 298.05 94.75 M173.2 207.9 Q166.85 211.7 161.0 216.4 M177.45 205.5 L173.2 207.9 M305.85 120.5 Q300.05 124.85 295.15 130.0 289.0 136.45 284.25 144.15 L283.25 145.75 Q274.15 161.1 266.6 171.65 L266.6 171.7 265.95 172.6 Q262.1 176.65 256.6 174.25 M254.45 177.65 L254.15 178.15 M269.6 117.0 Q264.25 122.55 259.85 128.75 L257.15 132.65 256.0 134.4 M141.0 286.55 Q146.85 271.7 155.3 260.25 166.8 244.65 183.05 235.45 185.35 234.1 187.8 232.9 L194.9 229.4 Q206.4 223.5 214.95 218.35 L215.9 217.8 Q220.3 214.25 218.3 208.6 M133.1 316.4 Q133.35 310.8 135.45 303.2 137.85 294.4 141.0 286.55 M167.75 326.2 Q164.45 327.1 161.6 328.15 L157.1 329.75 Q142.1 334.4 136.45 328.7 132.7 324.85 133.1 316.4 M198.15 323.35 Q189.7 319.1 186.25 312.0 183.1 301.9 189.25 305.0 L192.75 309.05 Q192.55 307.0 192.75 304.9 196.25 292.75 200.9 299.25 L201.75 302.9 Q204.05 314.7 199.25 323.75 L200.7 324.35 Q202.2 325.1 203.5 326.05 M199.25 323.75 L198.2 323.4 198.9 324.4 199.25 323.75 M198.2 323.4 L198.2 323.35 198.2 323.4 198.15 323.35 Q194.55 322.25 190.15 322.35 L182.85 323.2 Q174.35 324.35 167.75 326.2 M192.75 309.05 Q197.8 315.9 198.2 323.35 193.4 316.2 192.75 309.05 M202.55 338.25 Q202.5 340.2 201.95 342.75" fill="none" stroke="#333399" stroke-linecap="round" stroke-linejoin="round" stroke-width="0.05"/>
    <path d="M336.65 78.8 Q339.35 88.4 336.0 98.05 L334.6 101.45 332.0 106.25 M344.5 95.35 L347.45 90.3 Q350.85 83.4 351.25 75.95 M320.95 83.7 Q332.3 88.3 334.25 98.6 L334.6 101.45 M364.35 89.15 L365.1 86.4 Q366.15 81.15 364.5 75.0 M364.35 89.15 Q362.4 94.55 357.25 98.95 L356.85 99.3 M349.85 93.7 Q349.0 92.0 347.45 90.3 M349.85 93.7 Q351.55 97.2 350.15 100.7 M336.65 104.55 Q341.3 100.1 344.5 95.35 M227.75 181.95 Q229.85 179.45 233.65 177.8 236.7 170.3 240.9 167.4 L242.85 163.35 M225.1 185.35 L226.9 191.05 232.1 194.05 238.5 197.75 M240.25 188.1 Q236.65 184.6 233.65 177.8 M226.9 191.05 L228.65 196.6 230.75 203.35 M245.05 191.15 Q242.55 190.3 240.25 188.1 M246.0 179.35 L243.1 172.5 240.9 167.4 M304.75 102.35 Q306.05 104.65 306.7 107.2 308.25 113.3 305.85 120.5 M316.8 104.05 Q316.55 96.05 310.7 88.05 M314.75 114.55 Q316.95 109.3 316.8 104.05 M304.75 102.35 Q302.4 98.25 298.05 94.75 M248.75 175.1 L254.4 177.65 254.45 177.65 M246.0 179.35 L248.95 186.25 M248.75 175.1 L243.1 172.5 M220.0 202.2 Q222.8 204.25 226.25 205.7 M220.0 202.2 Q215.0 198.4 212.15 192.6" fill="none" stroke="#996600" stroke-linecap="round" stroke-linejoin="round" stroke-width="0.05"/>
    <path d="M351.25 75.95 Q343.05 74.75 336.65 78.8 328.95 77.4 320.95 83.7 317.95 83.35 315.25 84.4 312.55 85.4 310.7 88.05 302.4 88.9 298.05 94.75 M364.5 75.0 Q358.55 72.8 351.25 75.95 M350.15 100.7 Q353.4 101.6 356.85 99.3 M336.65 104.55 Q343.4 104.5 350.15 100.7 M332.0 106.25 Q334.25 107.15 336.65 104.55 M208.55 194.05 L212.15 192.6 Q218.65 186.85 225.1 185.35 225.6 184.4 227.75 181.95 M238.5 197.75 Q243.0 196.5 245.05 191.15 248.15 190.5 248.95 186.25 253.35 184.75 254.15 178.15 M305.85 120.5 Q310.5 119.0 314.75 114.55 323.15 112.1 332.0 106.25 M256.6 174.25 Q256.95 177.45 254.45 177.65 M255.05 166.55 Q256.4 168.65 257.4 171.8 L256.6 174.25 M252.8 163.95 Q254.05 164.95 255.05 166.55 M252.8 163.95 Q248.9 160.75 242.85 163.35 M210.4 206.2 Q204.6 201.5 208.55 194.05 M226.25 205.7 L227.7 206.05 Q229.1 206.3 230.75 203.35 235.4 203.15 238.5 197.75 M226.25 205.7 Q223.6 209.8 218.3 208.6 L215.8 209.2 Q213.6 208.3 211.95 207.3 L210.45 206.2 210.4 206.2" fill="none" stroke="#996600" stroke-linecap="round" stroke-linejoin="round" stroke-width="0.05"/>
    <path d="M155.95 136.0 Q165.4 145.95 165.4 160.0 165.4 174.05 155.95 184.0 146.5 193.95 133.15 193.95 119.8 193.95 110.35 184.0 100.95 174.05 100.95 160.0 100.95 145.95 110.35 136.0 119.8 126.05 133.15 126.05 146.5 126.05 155.95 136.0" fill="url(#gradient0)" fill-rule="evenodd" stroke="none"/>
    <path d="M139.8 284.45 Q149.25 294.4 149.25 308.45 149.25 322.5 139.8 332.45 130.35 342.4 117.0 342.4 103.65 342.4 94.2 332.45 84.8 322.5 84.8 308.45 84.8 294.4 94.2 284.45 103.65 274.5 117.0 274.5 130.35 274.5 139.8 284.45" fill="url(#gradient1)" fill-rule="evenodd" stroke="none"/>
    <path d="M260.15 87.7 Q269.6 97.65 269.6 111.7 269.6 125.75 260.15 135.7 250.7 145.65 237.35 145.65 224.0 145.65 214.55 135.7 205.15 125.75 205.15 111.7 205.15 97.65 214.55 87.7 224.0 77.75 237.35 77.75 250.7 77.75 260.15 87.7" fill="url(#gradient2)" fill-rule="evenodd" stroke="none"/>
  </g>
  <defs>
    <radialGradient cx="0" cy="0" gradientTransform="matrix(0.0396, 0.0, 0.0, 0.0417, 133.15, 160.0)" gradientUnits="userSpaceOnUse" id="gradient0" r="819.2" spreadMethod="pad">
      <stop offset="0.0" stop-color="#ffffff" stop-opacity="0.6627451"/>
      <stop offset="1.0" stop-color="#ffffff" stop-opacity="0.050980393"/>
    </radialGradient>
    <radialGradient cx="0" cy="0" gradientTransform="matrix(0.0396, 0.0, 0.0, 0.0417, 117.0, 308.45)" gradientUnits="userSpaceOnUse" id="gradient1" r="819.2" spreadMethod="pad">
      <stop offset="0.0" stop-color="#ffffff" stop-opacity="0.6627451"/>
      <stop offset="1.0" stop-color="#ffffff" stop-opacity="0.050980393"/>
    </radialGradient>
    <radialGradient cx="0" cy="0" gradientTransform="matrix(0.0396, 0.0, 0.0, 0.0417, 237.35, 111.7)" gradientUnits="userSpaceOnUse" id="gradient2" r="819.2" spreadMethod="pad">
      <stop offset="0.0" stop-color="#ffffff" stop-opacity="0.6627451"/>
      <stop offset="1.0" stop-color="#ffffff" stop-opacity="0.050980393"/>
    </radialGradient>
  </defs>
</svg>
