<?xml version="1.0" encoding="UTF-8" standalone="no"?>
<svg xmlns:xlink="http://www.w3.org/1999/xlink" height="91.95px" width="86.9px" xmlns="http://www.w3.org/2000/svg">
  <g transform="matrix(1.0, 0.0, 0.0, 1.0, 43.45, 45.95)">
    <path d="M1.0 -29.65 L-6.75 -31.15 -3.3 -31.15 1.0 -29.65 M3.4 -26.9 L2.8 -26.0 0.8 -26.95 2.4 -25.2 -4.95 -27.65 -2.4 -26.4 -15.05 -29.4 -20.8 -33.0 -21.65 -33.85 -21.3 -34.65 -21.65 -33.85 -22.6 -34.8 -21.9 -35.35 -22.6 -34.8 -23.65 -35.9 -24.1 -37.0 -23.6 -37.3 -21.9 -35.35 -21.3 -34.65 Q-17.75 -32.15 -12.5 -31.1 -4.4 -29.95 3.4 -26.9 M34.3 12.1 L34.3 24.5 33.9 15.4 34.3 12.1 M31.35 7.55 L32.3 14.15 Q33.3 19.95 32.8 25.2 31.8 35.4 34.7 41.25 L34.05 41.45 34.7 41.25 35.35 42.1 34.65 42.5 35.35 42.1 36.75 44.0 34.65 42.5 34.05 41.45 32.85 39.25 31.25 31.75 31.25 19.5 30.75 14.1 29.65 10.3 31.25 13.45 29.5 8.2 30.6 9.8 31.35 7.55 M-25.6 -39.0 L-25.6 -39.55 -27.0 -40.7 -27.35 -42.5 -26.75 -44.1 -25.9 -45.3 -23.7 -45.45 -23.9 -45.3 -25.25 -44.8 Q-26.45 -44.3 -26.3 -42.95 -27.3 -41.7 -24.7 -40.65 L-24.5 -39.65 -25.6 -39.0" fill="#ff33ff" fill-rule="evenodd" stroke="none"/>
    <path d="M1.0 -29.65 L-3.3 -31.15 -6.75 -31.15 1.0 -29.65 M7.8 -27.95 Q5.0 -27.85 2.9 -28.95 3.25 -28.2 4.95 -27.45 L3.4 -26.9 Q-4.4 -29.95 -12.5 -31.1 -17.75 -32.15 -21.3 -34.65 L-20.45 -36.6 -21.3 -34.65 -21.9 -35.35 -20.45 -36.6 -21.9 -35.35 -23.6 -37.3 -21.8 -38.35 -20.45 -36.6 Q-17.0 -33.0 -9.15 -32.3 3.65 -32.25 10.5 -28.45 L10.75 -28.05 7.8 -29.25 9.0 -28.2 Q6.75 -28.85 5.25 -30.0 5.85 -28.9 7.8 -27.95 M35.25 7.05 Q37.25 17.7 35.95 25.2 34.25 36.25 36.35 40.8 L36.65 41.45 Q37.3 42.55 38.25 43.2 39.15 43.65 40.2 43.2 41.6 41.85 41.5 39.95 42.1 38.8 42.75 39.75 L42.0 43.4 Q41.65 44.9 39.8 44.9 38.3 45.25 36.75 44.0 L35.35 42.1 34.7 41.25 Q31.8 35.4 32.8 25.2 33.3 19.95 32.3 14.15 L31.35 7.55 32.2 9.75 33.65 6.8 Q34.2 8.9 33.65 10.5 L35.25 7.05 M34.3 12.1 L33.9 15.4 34.3 24.5 34.3 12.1 M36.35 40.8 L34.7 41.25 36.35 40.8 M36.65 41.45 L35.35 42.1 36.65 41.45 M-24.5 -39.65 L-24.7 -40.65 Q-27.3 -41.7 -26.3 -42.95 -26.45 -44.3 -25.25 -44.8 L-23.9 -45.3 -23.7 -45.45 -21.0 -45.25 Q-20.2 -44.75 -20.05 -44.05 -19.95 -42.05 -20.75 -42.65 -21.45 -43.9 -23.55 -44.35 -24.25 -44.7 -24.95 -44.35 -23.45 -44.0 -23.2 -42.75 L-23.2 -41.35 -22.85 -40.6 -23.25 -40.35 -24.5 -39.65" fill="#ff8aff" fill-rule="evenodd" stroke="none"/>
    <path d="M-21.65 -33.85 L-20.8 -33.0 -15.05 -29.4 -2.4 -26.4 -4.95 -27.65 2.4 -25.2 0.8 -26.95 2.8 -26.0 3.4 -26.9 4.95 -27.45 Q3.25 -28.2 2.9 -28.95 5.0 -27.85 7.8 -27.95 L9.7 -27.2 9.4 -27.25 Q7.3 -27.5 6.2 -26.75 L8.6 -26.35 9.3 -25.75 11.0 -24.6 Q8.95 -24.15 6.85 -25.0 L8.05 -23.4 Q8.9 -21.55 11.0 -20.25 L7.75 -20.9 10.9 -18.85 Q10.1 -18.35 9.25 -18.2 1.25 -25.25 -9.75 -27.25 -18.0 -29.4 -21.95 -33.1 L-21.65 -33.85 -21.95 -33.1 -21.95 -33.15 -23.1 -34.35 -22.6 -34.8 -23.1 -34.35 Q-24.2 -35.65 -24.95 -37.3 L-22.15 -39.05 -21.8 -38.35 -23.6 -37.3 -24.1 -37.0 -23.65 -35.9 -22.6 -34.8 -21.65 -33.85 M32.9 41.45 Q30.05 36.4 30.35 23.4 30.65 14.6 27.4 8.75 L28.15 9.25 Q26.75 7.55 26.55 4.85 26.25 2.95 27.4 1.55 L28.95 4.95 28.75 1.65 Q29.7 3.85 31.35 4.95 L32.0 5.65 32.7 6.35 Q32.15 4.2 32.85 2.2 L33.7 4.05 Q34.7 5.1 34.25 7.2 L34.95 5.7 35.25 7.05 33.65 10.5 Q34.2 8.9 33.65 6.8 L32.2 9.75 31.35 7.55 30.6 9.8 29.5 8.2 31.25 13.45 29.65 10.3 30.75 14.1 31.25 19.5 31.25 31.75 32.85 39.25 34.05 41.45 34.65 42.5 36.75 44.0 Q38.3 45.25 39.8 44.9 41.65 44.9 42.0 43.4 L42.75 39.75 43.4 41.3 Q43.7 44.15 41.75 45.55 L38.75 45.65 Q36.0 44.8 34.75 43.65 L33.9 42.85 33.1 41.75 32.9 41.45 M9.0 -28.2 L7.8 -29.25 10.75 -28.05 11.1 -27.6 9.6 -28.05 9.0 -28.2 M33.9 42.85 L34.65 42.5 33.9 42.85 M33.1 41.75 L34.05 41.45 33.1 41.75 M-23.7 -45.45 L-25.9 -45.3 -26.75 -44.1 -27.35 -42.5 -27.0 -40.7 -25.6 -39.55 -25.6 -39.0 -26.1 -38.7 -26.45 -39.35 -27.6 -40.2 Q-28.2 -41.4 -27.85 -42.95 -27.8 -44.6 -26.4 -45.55 L-22.45 -45.85 -21.0 -45.25 -23.7 -45.45" fill="#d900d9" fill-rule="evenodd" stroke="none"/>
    <path d="M8.6 -26.35 L6.2 -26.75 Q7.3 -27.5 9.4 -27.25 12.05 -26.35 13.1 -25.05 10.85 -26.3 8.6 -26.35 M10.75 -28.05 L10.5 -28.45 9.9 -29.25 13.8 -27.85 15.0 -23.7 Q13.95 -26.55 11.1 -27.6 L10.75 -28.05 M12.9 -30.0 L11.65 -31.65 Q15.05 -30.25 17.3 -27.4 16.95 -29.55 18.35 -31.3 18.95 -26.9 21.2 -22.85 22.95 -26.75 26.15 -29.55 23.15 -26.35 21.95 -21.35 L20.85 -18.1 20.55 -17.65 19.95 -17.0 Q21.0 -19.25 21.15 -21.7 L20.25 -19.8 Q18.4 -23.0 17.8 -27.8 L17.8 -23.95 Q16.55 -28.0 12.9 -30.0 M28.05 -8.35 L31.25 -9.05 Q36.1 -9.6 39.55 -12.15 36.5 -9.4 32.55 -8.1 36.05 -5.4 40.15 -4.25 L38.9 -3.65 36.35 -4.65 32.4 -7.35 30.6 -8.0 31.75 -7.15 27.9 -7.15 28.35 -5.65 Q31.3 -4.45 31.85 -2.85 30.2 -4.6 27.15 -5.2 L23.25 -4.2 24.15 -5.05 24.2 -5.1 26.15 -6.1 26.3 -6.8 Q26.55 -7.45 27.3 -7.9 L27.35 -7.95 Q27.65 -8.2 28.05 -8.35 M36.35 -3.7 Q38.75 -1.1 39.6 2.45 L38.8 1.55 36.5 -2.0 Q35.35 -3.8 32.5 -4.9 34.55 -4.85 36.35 -3.7 M36.3 -0.15 L37.1 3.9 36.4 3.2 34.65 -2.2 36.3 -0.15 M8.9 -23.7 L9.9 -23.35 13.25 -21.55 10.9 -22.15 8.9 -23.7 M13.6 -23.25 L17.6 -20.1 18.65 -17.4 Q16.8 -20.5 13.6 -23.25 M29.05 -1.9 L29.7 1.15 28.7 -0.95 29.05 -1.9 M32.0 5.65 Q31.25 4.4 31.7 1.9 32.1 -0.4 32.85 -0.4 32.15 1.1 32.85 2.2 32.15 4.2 32.7 6.35 L32.0 5.65 M-40.0 -29.8 Q-38.35 -31.55 -36.15 -32.75 L-33.65 -34.1 -36.05 -34.35 Q-32.6 -35.05 -29.1 -37.55 L-26.55 -38.45 Q-25.5 -37.85 -25.4 -37.05 -22.3 -20.35 -25.95 -12.2 L-26.2 -12.75 -25.1 -18.65 -25.1 -27.15 -26.25 -36.0 -28.15 -28.75 -27.7 -35.0 -31.8 -29.7 -32.1 -29.3 Q-36.3 -22.25 -36.9 -11.1 L-37.05 -16.4 -35.55 -24.35 -33.65 -29.75 -30.15 -35.1 -36.0 -30.85 -40.0 -29.8 M-32.5 -21.7 L-29.85 -26.05 -33.65 -18.1 -32.5 -21.7 M-40.45 15.4 L-36.8 15.1 -33.1 10.6 Q-31.95 9.5 -31.5 6.8 -32.1 1.7 -34.75 -3.4 L-35.65 -9.8 -33.65 -4.1 -33.65 -10.35 -33.1 -15.2 -30.4 -19.0 Q-30.15 -17.2 -31.3 -15.4 -29.0 -17.4 -28.25 -21.35 L-27.7 -26.4 -26.5 -21.0 Q-27.9 -15.65 -31.45 -11.6 -33.3 -6.6 -30.25 -0.85 -28.15 6.1 -30.65 9.4 -32.9 14.8 -27.55 11.0 -30.85 15.0 -32.25 11.85 -37.2 17.6 -40.45 15.4 M-32.75 -11.7 L-30.3 -15.2 -32.05 -14.15 -32.75 -11.7 M-32.75 -2.6 L-30.7 4.1 -30.7 1.2 -32.75 -2.6" fill="#b543b7" fill-rule="evenodd" stroke="none"/>
    <path d="M9.25 -18.2 Q10.1 -18.35 10.9 -18.85 L7.75 -20.9 11.0 -20.25 Q8.9 -21.55 8.05 -23.4 L6.85 -25.0 Q8.95 -24.15 11.0 -24.6 L9.3 -25.75 8.6 -26.35 Q10.85 -26.3 13.1 -25.05 12.05 -26.35 9.4 -27.25 L9.7 -27.2 7.8 -27.95 Q5.85 -28.9 5.25 -30.0 6.75 -28.85 9.0 -28.2 L9.6 -28.05 11.1 -27.6 Q13.95 -26.55 15.0 -23.7 L13.8 -27.85 12.9 -30.0 Q16.55 -28.0 17.8 -23.95 L17.8 -27.8 Q18.4 -23.0 20.25 -19.8 L21.15 -21.7 Q21.0 -19.25 19.95 -17.0 L19.5 -16.7 18.35 -16.45 17.05 -14.5 16.45 -13.95 15.1 -12.9 10.35 -12.9 Q6.05 -13.8 2.3 -16.25 6.25 -14.7 9.8 -14.6 L6.2 -17.1 4.35 -19.7 7.5 -18.4 9.25 -18.2 M27.4 8.75 Q25.95 7.6 25.15 6.0 L23.25 2.1 Q22.85 5.65 23.8 9.75 21.95 5.75 21.7 1.35 L22.35 -3.35 23.25 -4.2 27.15 -5.2 Q30.2 -4.6 31.85 -2.85 31.3 -4.45 28.35 -5.65 L27.9 -7.15 31.75 -7.15 30.6 -8.0 32.4 -7.35 36.35 -4.65 38.9 -3.65 36.35 -3.7 Q34.55 -4.85 32.5 -4.9 35.35 -3.8 36.5 -2.0 L38.8 1.55 Q37.45 0.2 36.3 -0.15 L34.65 -2.2 36.4 3.2 35.7 2.5 35.95 4.0 Q36.2 6.75 37.2 8.55 35.8 7.5 35.15 3.8 L34.95 5.7 34.25 7.2 Q34.7 5.1 33.7 4.05 L32.85 2.2 Q32.15 1.1 32.85 -0.4 32.1 -0.4 31.7 1.9 31.25 4.4 32.0 5.65 L31.35 4.95 Q29.7 3.85 28.75 1.65 L28.95 4.95 27.4 1.55 Q26.25 2.95 26.55 4.85 26.75 7.55 28.15 9.25 L27.4 8.75 M8.9 -23.7 L10.9 -22.15 13.25 -21.55 9.9 -23.35 8.9 -23.7 M13.6 -23.25 Q16.8 -20.5 18.65 -17.4 L17.6 -20.1 13.6 -23.25 M29.05 -1.9 L28.7 -0.95 29.7 1.15 29.05 -1.9 M-40.45 15.4 L-41.6 14.35 Q-43.6 8.85 -40.25 8.05 -42.85 11.4 -40.25 14.35 -31.4 13.35 -34.1 2.1 -42.85 -9.75 -41.3 -21.35 -39.95 -25.7 -37.9 -29.25 -41.05 -28.25 -43.45 -23.6 -42.3 -27.3 -40.0 -29.8 L-36.0 -30.85 -30.15 -35.1 -33.65 -29.75 -35.55 -24.35 -37.05 -16.4 Q-36.9 -23.95 -34.2 -30.6 L-37.5 -29.4 -37.9 -29.25 -37.5 -29.4 -34.2 -30.6 Q-36.9 -23.95 -37.05 -16.4 L-36.9 -11.1 Q-36.3 -22.25 -32.1 -29.3 L-31.8 -29.7 -27.7 -35.0 -28.15 -28.75 -26.25 -36.0 -25.1 -27.15 -25.1 -18.65 -26.2 -12.75 -26.45 -13.3 Q-25.2 -18.35 -25.8 -24.45 L-26.5 -21.0 -27.7 -26.4 -28.25 -21.35 Q-29.0 -17.4 -31.3 -15.4 -30.15 -17.2 -30.4 -19.0 L-33.1 -15.2 -33.65 -10.35 -33.65 -4.1 -35.65 -9.8 -34.75 -3.4 Q-32.1 1.7 -31.5 6.8 -31.95 9.5 -33.1 10.6 L-36.8 15.1 -40.45 15.4 M-32.5 -21.7 L-33.65 -18.1 -29.85 -26.05 -32.5 -21.7 M-26.45 -28.65 L-25.8 -24.45 -26.45 -28.65" fill="#652d76" fill-rule="evenodd" stroke="none"/>
    <path d="M23.25 -4.2 L22.9 -4.75 25.45 -8.15 26.15 -9.05 25.45 -8.15 Q24.25 -7.75 24.0 -8.95 L21.2 -7.45 20.7 -7.9 23.9 -9.75 25.0 -10.4 23.9 -9.75 Q22.4 -10.45 22.15 -11.7 L20.1 -9.05 19.55 -9.5 22.15 -12.55 22.9 -13.45 22.15 -12.55 Q20.55 -12.6 20.4 -13.75 L17.8 -12.5 17.15 -12.95 20.4 -14.65 21.5 -15.2 20.4 -14.65 Q19.1 -15.4 19.5 -16.7 L19.95 -17.0 20.55 -17.65 Q20.65 -16.25 21.5 -15.2 21.55 -14.0 22.9 -13.45 23.25 -11.9 25.0 -10.4 25.0 -9.25 26.15 -9.05 26.25 -7.85 27.3 -7.9 26.55 -7.45 26.3 -6.8 L25.85 -7.5 24.2 -5.1 24.15 -5.05 23.25 -4.2" fill="#49c50a" fill-rule="evenodd" stroke="none"/>
    <path d="M20.85 -18.1 Q21.0 -16.75 22.6 -15.75 22.5 -14.6 23.65 -14.3 23.9 -12.5 26.1 -11.0 26.1 -10.05 26.85 -9.95 27.1 -9.0 28.05 -8.35 27.65 -8.2 27.35 -7.95 L27.3 -7.9 Q26.25 -7.85 26.15 -9.05 25.0 -9.25 25.0 -10.4 23.25 -11.9 22.9 -13.45 21.55 -14.0 21.5 -15.2 20.65 -16.25 20.55 -17.65 L20.85 -18.1 M23.65 -14.3 L22.9 -13.45 23.65 -14.3 M25.0 -10.4 L26.1 -11.0 25.0 -10.4 M26.85 -9.95 L26.15 -9.05 26.85 -9.95 M22.6 -15.75 L21.5 -15.2 22.6 -15.75" fill="#33ff00" fill-rule="evenodd" stroke="none"/>
    <path d="M22.9 -4.75 Q22.35 -6.3 21.2 -7.45 L24.0 -8.95 Q24.25 -7.75 25.45 -8.15 L22.9 -4.75 M20.7 -7.9 Q20.6 -8.55 20.1 -9.05 L22.15 -11.7 Q22.4 -10.45 23.9 -9.75 L20.7 -7.9 M19.55 -9.5 Q19.45 -11.3 17.8 -12.5 L20.4 -13.75 Q20.55 -12.6 22.15 -12.55 L19.55 -9.5 M17.15 -12.95 Q17.2 -13.45 16.45 -13.95 L17.05 -14.5 18.35 -16.45 19.5 -16.7 Q19.1 -15.4 20.4 -14.65 L17.15 -12.95 M26.3 -6.8 L26.15 -6.1 24.2 -5.1 25.85 -7.5 26.3 -6.8" fill="#4c862e" fill-rule="evenodd" stroke="none"/>
    <path d="M-22.85 -40.6 L-22.55 -40.8 Q-21.35 -40.3 -21.65 -39.35 L-22.15 -39.05 Q-24.05 -39.25 -23.25 -40.35 L-22.85 -40.6" fill="#ff9900" fill-rule="evenodd" stroke="none"/>
    <path d="M-22.15 -39.05 L-24.95 -37.3 -25.4 -37.05 Q-25.5 -37.85 -26.55 -38.45 L-26.1 -38.7 -25.6 -39.0 -24.5 -39.65 -23.25 -40.35 Q-24.05 -39.25 -22.15 -39.05" fill="#996600" fill-rule="evenodd" stroke="none"/>
    <path d="M-36.15 -32.75 Q-40.5 -33.1 -42.25 -34.65 L-36.05 -34.35 -33.65 -34.1 -36.15 -32.75 M-32.75 -2.6 L-30.7 1.2 -30.7 4.1 -32.75 -2.6 M-32.75 -11.7 L-32.05 -14.15 -30.3 -15.2 -32.75 -11.7" fill="#5e2f77" fill-rule="evenodd" stroke="none"/>
    <path d="M-21.65 -33.85 L-21.95 -33.1 Q-18.0 -29.4 -9.75 -27.25 1.25 -25.25 9.25 -18.2 10.1 -18.35 10.9 -18.85 L7.75 -20.9 11.0 -20.25 Q8.9 -21.55 8.05 -23.4 L6.85 -25.0 Q8.95 -24.15 11.0 -24.6 L9.3 -25.75 8.6 -26.35 6.2 -26.75 Q7.3 -27.5 9.4 -27.25 L9.7 -27.2 7.8 -27.95 Q5.85 -28.9 5.25 -30.0 6.75 -28.85 9.0 -28.2 L9.6 -28.05 11.1 -27.6 10.75 -28.05 10.5 -28.45 Q3.65 -32.25 -9.15 -32.3 -17.0 -33.0 -20.45 -36.6 L-21.3 -34.65 -21.65 -33.85 M-22.6 -34.8 L-23.1 -34.35 -21.95 -33.15 -21.95 -33.1 32.9 41.45 Q30.05 36.4 30.35 23.4 30.65 14.6 27.4 8.75 25.95 7.6 25.15 6.0 L23.25 2.1 Q22.85 5.65 23.8 9.75 21.95 5.75 21.7 1.35 L22.35 -3.35 23.25 -4.2 22.9 -4.75 Q22.35 -6.3 21.2 -7.45 L20.7 -7.9 Q20.6 -8.55 20.1 -9.05 L19.55 -9.5 Q19.45 -11.3 17.8 -12.5 L17.15 -12.95 Q17.2 -13.45 16.45 -13.95 L15.1 -12.9 10.35 -12.9 Q6.05 -13.8 2.3 -16.25 6.25 -14.7 9.8 -14.6 L6.2 -17.1 4.35 -19.7 7.5 -18.4 9.25 -18.2 M-21.9 -35.35 L-22.6 -34.8 M-21.8 -38.35 L-22.15 -39.05 -24.95 -37.3 Q-24.2 -35.65 -23.1 -34.35 M10.5 -28.45 L9.9 -29.25 13.8 -27.85 12.9 -30.0 11.65 -31.65 Q15.05 -30.25 17.3 -27.4 16.95 -29.55 18.35 -31.3 18.95 -26.9 21.2 -22.85 22.95 -26.75 26.15 -29.55 23.15 -26.35 21.95 -21.35 L20.85 -18.1 Q21.0 -16.75 22.6 -15.75 22.5 -14.6 23.65 -14.3 23.9 -12.5 26.1 -11.0 26.1 -10.05 26.85 -9.95 27.1 -9.0 28.05 -8.35 L31.25 -9.05 Q36.1 -9.6 39.55 -12.15 36.5 -9.4 32.55 -8.1 36.05 -5.4 40.15 -4.25 L38.9 -3.65 36.35 -3.7 Q38.75 -1.1 39.6 2.45 L38.8 1.55 Q37.45 0.2 36.3 -0.15 L37.1 3.9 36.4 3.2 35.7 2.5 35.95 4.0 Q36.2 6.75 37.2 8.55 35.8 7.5 35.15 3.8 L34.95 5.7 35.25 7.05 Q37.25 17.7 35.95 25.2 34.25 36.25 36.35 40.8 L36.65 41.45 Q37.3 42.55 38.25 43.2 39.15 43.65 40.2 43.2 41.6 41.85 41.5 39.95 42.1 38.8 42.75 39.75 L43.4 41.3 Q43.7 44.15 41.75 45.55 L38.75 45.65 Q36.0 44.8 34.75 43.65 L33.9 42.85 33.1 41.75 32.9 41.45 M21.5 -15.2 L20.4 -14.65 17.15 -12.95 M22.9 -13.45 L23.65 -14.3 M25.0 -10.4 L23.9 -9.75 20.7 -7.9 M27.35 -7.95 Q27.65 -8.2 28.05 -8.35 M25.45 -8.15 L26.15 -9.05 26.85 -9.95 M22.9 -13.45 L22.15 -12.55 19.55 -9.5 M26.3 -6.8 L26.15 -6.1 24.2 -5.1 24.15 -5.05 23.25 -4.2 M26.3 -6.8 Q26.55 -7.45 27.3 -7.9 M26.1 -11.0 L25.0 -10.4 M25.45 -8.15 L22.9 -4.75 M27.4 8.75 L28.15 9.25 Q26.75 7.55 26.55 4.85 26.25 2.95 27.4 1.55 L28.95 4.95 28.75 1.65 Q29.7 3.85 31.35 4.95 L32.0 5.65 32.7 6.35 Q32.15 4.2 32.85 2.2 L33.7 4.05 Q34.7 5.1 34.25 7.2 L34.95 5.7 M34.7 41.25 L36.35 40.8 M34.05 41.45 L34.7 41.25 M35.35 42.1 L36.65 41.45 M20.55 -17.65 L20.85 -18.1 M16.45 -13.95 L17.05 -14.5 18.35 -16.45 19.5 -16.7 19.95 -17.0 20.55 -17.65 M21.5 -15.2 L22.6 -15.75 M34.65 42.5 L35.35 42.1 M34.05 41.45 L33.1 41.75 M34.65 42.5 L33.9 42.85 M-25.6 -39.0 L-24.5 -39.65 -23.25 -40.35 -22.85 -40.6 -22.55 -40.8 Q-21.35 -40.3 -21.65 -39.35 L-22.15 -39.05 M-21.0 -45.25 L-22.45 -45.85 -26.4 -45.55 Q-27.8 -44.6 -27.85 -42.95 -28.2 -41.4 -27.6 -40.2 L-26.45 -39.35 -26.1 -38.7 -25.6 -39.0 M-21.0 -45.25 Q-20.2 -44.75 -20.05 -44.05 -19.95 -42.05 -20.75 -42.65 -21.45 -43.9 -23.55 -44.35 -24.25 -44.7 -24.95 -44.35 -23.45 -44.0 -23.2 -42.75 L-23.2 -41.35 -22.85 -40.6 M-40.45 15.4 L-41.6 14.35 Q-43.6 8.85 -40.25 8.05 -42.85 11.4 -40.25 14.35 -31.4 13.35 -34.1 2.1 -42.85 -9.75 -41.3 -21.35 -39.95 -25.7 -37.9 -29.25 -41.05 -28.25 -43.45 -23.6 -42.3 -27.3 -40.0 -29.8 -38.35 -31.55 -36.15 -32.75 -40.5 -33.1 -42.25 -34.65 L-36.05 -34.35 Q-32.6 -35.05 -29.1 -37.55 L-26.55 -38.45 -26.1 -38.7 M-26.55 -38.45 Q-25.5 -37.85 -25.4 -37.05 L-24.95 -37.3 M-20.45 -36.6 L-21.9 -35.35 M-21.8 -38.35 L-20.45 -36.6 M-37.05 -16.4 Q-36.9 -23.95 -34.2 -30.6 L-37.5 -29.4 -37.9 -29.25 M-31.8 -29.7 L-32.1 -29.3 Q-36.3 -22.25 -36.9 -11.1 L-37.05 -16.4 M-26.5 -21.0 L-25.8 -24.45 -26.45 -28.65 M-26.2 -12.75 L-25.95 -12.2 Q-22.3 -20.35 -25.4 -37.05 M-26.2 -12.75 L-26.45 -13.3 Q-25.2 -18.35 -25.8 -24.45 M-26.5 -21.0 Q-27.9 -15.65 -31.45 -11.6 -33.3 -6.6 -30.25 -0.85 -28.15 6.1 -30.65 9.4 -32.9 14.8 -27.55 11.0 -30.85 15.0 -32.25 11.85 -37.2 17.6 -40.45 15.4" fill="none" stroke="#333333" stroke-linecap="round" stroke-linejoin="round" stroke-opacity="0.52156866" stroke-width="0.05"/>
  </g>
</svg>
