<?xml version="1.0" encoding="UTF-8" standalone="no"?>
<svg xmlns:xlink="http://www.w3.org/1999/xlink" height="120.85px" width="89.85px" xmlns="http://www.w3.org/2000/svg">
  <g transform="matrix(1.0, 0.0, 0.0, 1.0, -230.05, -197.05)">
    <path d="M313.55 202.85 L313.9 202.95 Q314.8 203.15 315.7 203.5 L315.6 204.3 315.7 203.5 317.05 204.2 318.1 204.85 319.9 206.15 318.15 205.2 Q317.6 204.9 317.05 204.75 L317.05 204.2 317.05 204.75 315.6 204.3 314.6 204.1 313.55 202.85 314.6 204.1 313.0 204.0 309.85 204.5 309.0 204.8 Q308.2 205.1 307.4 205.55 L306.95 206.05 305.6 205.25 308.05 203.65 308.4 203.45 Q308.65 203.3 308.95 203.2 L313.55 202.85 M303.9 212.0 L303.9 212.7 303.9 215.05 303.85 216.45 303.8 218.55 303.55 222.65 303.5 223.75 303.25 226.45 303.1 228.0 302.75 231.3 302.55 232.65 302.3 234.25 301.15 234.25 302.55 232.65 301.15 234.25 299.5 234.25 299.5 231.6 299.5 230.0 299.5 228.45 299.5 225.15 301.3 225.95 301.7 224.1 303.5 223.75 301.7 224.1 301.3 225.95 299.5 225.15 299.75 223.95 301.0 224.45 301.0 223.05 303.55 222.65 301.0 223.05 301.0 224.45 299.75 223.95 300.85 218.4 301.0 217.5 302.05 212.0 302.25 210.95 302.75 208.4 305.0 205.85 305.6 205.25 306.95 206.05 306.45 206.6 306.4 206.6 305.0 205.85 306.4 206.6 Q303.75 209.6 303.9 212.0 M298.9 254.1 L298.15 255.25 297.3 256.65 296.4 258.25 295.9 259.25 295.0 261.2 292.6 259.65 294.8 257.7 295.75 256.85 295.85 256.8 297.1 255.65 298.0 254.9 298.9 254.1 M275.75 283.45 L272.7 285.45 271.65 286.1 267.2 288.65 265.65 289.45 263.8 290.3 259.9 290.75 261.0 289.95 262.0 289.95 265.25 288.5 265.65 289.45 265.25 288.5 262.0 289.95 261.0 289.95 259.9 290.75 257.75 291.0 256.9 290.8 255.1 290.3 Q258.35 289.05 261.5 287.45 L262.55 286.9 265.35 285.3 266.55 284.6 267.75 283.85 269.05 282.95 269.35 282.8 271.95 281.5 274.25 280.35 276.6 279.2 277.75 278.6 277.4 279.5 276.9 280.65 276.0 280.3 274.25 282.0 271.95 281.5 274.25 282.0 276.0 280.3 276.9 280.65 275.75 283.45 M318.1 204.85 L318.15 205.2 318.1 204.85 M308.95 203.2 L313.0 204.0 308.95 203.2 309.85 204.5 308.95 203.2 M303.9 215.05 L302.8 213.9 302.05 212.0 302.8 213.9 303.9 215.05 M303.9 212.7 L302.9 212.15 302.25 210.95 302.9 212.15 303.9 212.7 M303.85 216.45 L302.1 218.55 301.0 217.5 302.1 218.55 303.85 216.45 M303.8 218.55 L302.25 220.3 300.85 218.4 302.25 220.3 303.8 218.55 M303.25 226.45 L299.5 228.45 303.25 226.45 M303.1 228.0 L299.5 230.0 303.1 228.0 M302.75 231.3 L300.4 233.75 300.4 231.45 299.5 231.6 300.4 231.45 300.4 233.75 302.75 231.3 M272.7 285.45 L272.05 283.55 269.35 282.8 272.05 283.55 272.7 285.45 M265.35 285.3 L267.5 286.4 268.65 285.85 266.55 284.6 268.65 285.85 267.5 286.4 265.35 285.3 M261.5 287.45 L262.25 288.5 256.9 290.8 262.25 288.5 261.5 287.45 M267.75 283.85 L271.35 284.8 271.65 286.1 271.35 284.8 267.75 283.85 M262.55 286.9 L263.9 288.5 266.35 287.35 267.2 288.65 266.35 287.35 263.9 288.5 262.55 286.9 M297.3 256.65 L297.1 255.65 297.3 256.65 M295.85 256.8 L296.4 258.25 295.85 256.8 M295.9 259.25 L294.8 257.7 295.9 259.25 M298.0 254.9 L298.15 255.25 298.0 254.9 M277.4 279.5 L276.6 279.2 277.4 279.5 M309.0 204.8 L308.05 203.65 309.0 204.8" fill="#faf5e4" fill-rule="evenodd" stroke="none"/>
    <path d="M314.6 204.1 L315.6 204.3 317.05 204.75 Q317.6 204.9 318.15 205.2 L318.15 206.1 319.3 207.2 318.65 208.25 317.3 208.25 316.0 208.25 314.55 206.15 316.0 208.25 316.55 208.65 317.3 209.2 317.85 209.6 316.5 212.85 315.25 211.35 314.3 210.55 312.1 209.35 310.6 208.8 307.7 208.85 Q306.4 209.15 305.4 210.1 L303.9 212.0 Q303.75 209.6 306.4 206.6 L306.45 206.6 306.95 206.05 307.4 207.4 308.75 206.9 309.45 205.4 309.0 204.8 309.85 204.5 313.0 204.0 314.6 204.1 313.8 205.1 310.6 208.8 313.8 205.1 314.6 204.1 M319.9 206.15 L319.3 207.2 318.15 206.1 318.15 205.2 319.9 206.15 M300.65 243.15 L299.6 248.55 299.35 250.05 299.2 251.4 298.9 254.1 298.0 254.9 297.4 253.7 297.85 251.05 299.2 251.4 297.85 251.05 297.4 253.7 298.0 254.9 297.1 255.65 296.85 253.8 298.3 249.75 299.0 247.75 300.65 243.15 M284.65 276.45 L283.3 277.7 282.1 278.7 279.85 280.5 278.8 281.3 275.75 283.45 276.9 280.65 277.4 279.5 277.75 278.6 279.4 277.05 280.65 275.9 282.9 273.8 284.65 276.45 M263.8 290.3 Q260.55 291.15 258.25 291.95 L256.15 292.65 257.75 291.0 259.9 290.75 258.25 291.95 259.9 290.75 263.8 290.3 M236.3 315.8 L234.2 316.7 233.8 315.6 232.8 313.15 232.8 317.3 231.2 317.9 230.45 314.35 230.25 312.7 Q229.95 310.3 230.1 308.15 L230.25 306.8 Q230.8 302.75 234.55 299.0 L235.15 298.4 236.3 297.35 235.25 298.5 234.95 298.9 234.7 299.35 234.55 299.0 234.7 299.35 Q233.35 301.7 233.0 304.3 L231.15 306.35 231.6 307.6 232.9 306.15 231.6 307.6 231.15 306.35 233.0 304.3 232.9 306.15 232.95 307.15 233.1 308.8 233.45 310.55 232.85 310.85 232.5 311.4 232.85 310.85 233.45 310.55 Q234.2 313.4 236.3 315.8 M314.55 206.15 L315.5 204.85 315.6 204.3 315.5 204.85 314.55 206.15 312.65 208.6 312.1 209.35 312.65 208.6 314.55 206.15 M318.65 208.25 L317.05 205.85 317.05 204.75 317.05 205.85 318.65 208.25 M316.55 208.65 L314.3 210.55 316.55 208.65 M315.25 211.35 L317.3 209.2 315.25 211.35 M307.7 208.85 L310.0 207.05 310.4 205.3 309.85 204.5 310.4 205.3 310.0 207.05 307.7 208.85 M309.0 204.8 L309.45 205.4 308.75 206.9 307.4 207.4 306.95 206.05 307.4 205.55 Q308.2 205.1 309.0 204.8 M306.45 206.6 L306.85 208.1 305.4 210.1 306.85 208.1 306.45 206.6 306.4 206.6 306.45 206.6 M299.5 228.45 L298.85 228.75 299.5 228.45 299.5 230.0 299.5 231.6 298.4 231.75 299.5 231.6 299.5 234.25 298.7 236.1 297.8 236.1 298.7 236.1 297.55 238.7 297.8 236.1 298.0 234.55 298.25 232.75 298.4 231.75 298.6 230.5 298.85 228.75 299.5 225.15 299.5 228.45 M299.5 230.0 L298.6 230.5 299.5 230.0 M298.0 234.55 L298.6 234.35 299.0 232.75 298.25 232.75 299.0 232.75 298.6 234.35 298.0 234.55 M299.6 248.55 L299.0 247.75 299.6 248.55 M299.35 250.05 L298.3 249.75 299.35 250.05 M235.15 298.4 L235.25 298.5 235.15 298.4 M296.85 253.8 L297.1 255.65 295.85 256.8 295.75 256.85 295.8 256.7 296.85 253.8 M295.85 256.8 L295.8 256.7 295.85 256.8 M282.1 278.7 L279.4 277.05 282.1 278.7 M283.3 277.7 L280.65 275.9 283.3 277.7 M279.85 280.5 L277.4 279.5 279.85 280.5 M278.8 281.3 L276.9 280.65 278.8 281.3 M232.3 309.0 L233.1 308.8 232.3 309.0 M232.15 311.9 L232.5 311.4 232.15 311.9 232.8 313.15 232.15 311.9 231.75 312.5 232.15 311.9 M231.75 312.5 L230.45 314.35 231.75 312.5 M231.45 310.55 L230.1 308.15 231.45 310.55 M313.0 204.0 L313.8 205.1 313.0 204.0 M316.0 208.25 L312.65 208.6 316.0 208.25" fill="#e7d083" fill-rule="evenodd" stroke="none"/>
    <path d="M317.3 208.25 L317.6 208.9 317.85 209.6 317.3 209.2 317.6 208.9 317.3 209.2 316.55 208.65 316.0 208.25 317.3 208.25 M233.8 315.6 L232.8 317.3 232.8 313.15 233.8 315.6" fill="#9f8f5a" fill-rule="evenodd" stroke="none"/>
    <path d="M302.3 234.25 L301.95 236.55 301.7 237.85 301.45 239.25 301.2 240.6 300.65 243.15 299.7 242.45 298.9 245.1 298.15 243.7 295.95 245.45 298.15 243.7 298.9 245.1 299.7 242.45 300.65 243.15 299.0 247.75 297.7 245.85 295.6 246.9 297.7 245.85 299.0 247.75 298.3 249.75 297.0 249.4 297.0 251.3 294.6 250.75 297.0 251.3 297.0 249.4 298.3 249.75 296.85 253.8 296.65 252.55 294.3 251.65 296.65 252.55 296.85 253.8 295.8 256.7 295.75 256.85 294.8 257.7 293.9 256.4 291.5 256.95 292.25 255.9 Q293.4 254.2 294.3 251.65 L294.6 250.75 295.1 248.95 295.6 246.9 295.95 245.45 296.8 242.1 297.3 239.9 297.55 238.7 298.7 236.1 299.5 234.25 301.15 234.25 302.3 234.25 M256.15 292.65 L252.75 293.85 244.3 296.1 240.75 296.75 240.4 296.95 Q239.85 297.2 239.4 297.6 L238.2 298.7 Q237.2 299.8 236.5 301.4 L236.05 302.6 235.6 304.1 235.3 305.8 235.2 306.3 235.2 308.2 235.25 308.7 235.3 309.55 Q235.4 311.15 235.8 313.15 L236.3 315.8 Q234.2 313.4 233.45 310.55 L233.1 308.8 232.95 307.15 232.9 306.15 234.4 304.5 235.3 305.8 234.4 304.5 232.9 306.15 233.0 304.3 234.4 302.7 235.6 304.1 234.4 302.7 233.0 304.3 Q233.35 301.7 234.7 299.35 L234.95 298.9 235.25 298.5 236.3 297.35 237.35 296.15 238.3 295.4 239.0 295.0 Q240.2 294.35 241.8 294.05 L249.2 292.3 251.65 291.55 255.1 290.3 256.9 290.8 257.75 291.0 256.15 292.65 M301.95 236.55 L300.35 235.15 301.15 234.25 300.35 235.15 301.95 236.55 M301.7 237.85 L300.0 236.1 298.7 236.1 300.0 236.1 301.7 237.85 M301.2 240.6 L299.3 239.7 296.8 242.1 299.3 239.7 301.2 240.6 M301.45 239.25 L299.35 237.6 297.3 239.9 299.35 237.6 301.45 239.25 M269.05 282.95 L271.35 281.35 273.65 279.55 276.45 277.15 277.75 276.1 278.95 274.75 Q280.25 273.15 281.1 271.15 L282.85 273.75 282.9 273.8 280.65 275.9 279.4 277.05 277.75 276.1 279.4 277.05 277.75 278.6 276.6 279.2 274.25 280.35 271.95 281.5 269.35 282.8 269.05 282.95 M290.2 258.15 L291.5 256.95 293.9 256.4 294.8 257.7 292.6 259.65 290.2 258.15 M251.65 291.55 L248.9 294.0 244.85 295.2 244.3 296.1 244.85 295.2 248.9 294.0 251.65 291.55 M238.3 295.4 L239.4 297.6 238.3 295.4 M249.2 292.3 L247.3 293.9 240.4 295.5 240.4 296.95 240.4 295.5 247.3 293.9 249.2 292.3 M237.35 296.15 L238.2 298.7 237.35 296.15 M235.25 298.5 L236.5 301.4 235.25 298.5 M236.05 302.6 L234.7 299.35 236.05 302.6 M271.95 281.5 L271.35 281.35 271.95 281.5 M273.65 279.55 L274.25 280.35 273.65 279.55 M252.75 293.85 L254.55 291.75 256.9 290.8 254.55 291.75 252.75 293.85 M295.8 256.7 L294.8 254.2 292.25 255.9 294.8 254.2 295.8 256.7 M280.65 275.9 L278.95 274.75 280.65 275.9 M233.1 308.8 L235.2 308.2 233.1 308.8 M235.3 309.55 L233.45 310.55 235.3 309.55" fill="#f2e7bf" fill-rule="evenodd" stroke="none"/>
    <path d="M295.0 261.2 Q293.6 260.8 293.05 264.05 290.8 264.5 291.3 266.7 288.9 267.55 289.5 269.35 287.25 269.5 288.0 271.55 286.2 271.55 286.1 274.3 284.9 274.3 284.65 276.45 L282.9 273.8 282.85 273.75 Q283.3 272.4 284.1 272.0 284.2 270.55 285.7 269.65 286.35 267.8 287.2 267.45 L289.5 269.35 287.2 267.45 Q287.85 265.75 288.9 265.0 289.3 262.95 290.65 262.45 291.35 260.6 292.6 259.65 L295.0 261.2 M293.05 264.05 L290.65 262.45 293.05 264.05 M291.3 266.7 L288.9 265.0 291.3 266.7 M284.1 272.0 L286.1 274.3 284.1 272.0 M288.0 271.55 L285.7 269.65 288.0 271.55" fill="#5f1f00" fill-rule="evenodd" stroke="none"/>
    <path d="M281.1 271.15 Q282.3 271.8 282.2 269.85 284.45 270.55 283.9 268.1 286.2 268.1 285.55 266.1 287.35 265.9 287.2 263.8 289.5 263.25 288.8 261.2 290.85 260.15 290.2 258.15 L292.6 259.65 Q291.35 260.6 290.65 262.45 289.3 262.95 288.9 265.0 L287.2 263.8 288.9 265.0 Q287.85 265.75 287.2 267.45 286.35 267.8 285.7 269.65 284.2 270.55 284.1 272.0 283.3 272.4 282.85 273.75 L281.1 271.15 M288.8 261.2 L290.65 262.45 288.8 261.2 M283.9 268.1 L285.7 269.65 283.9 268.1 M285.55 266.1 L287.2 267.45 285.55 266.1 M284.1 272.0 L282.2 269.85 284.1 272.0" fill="#993300" fill-rule="evenodd" stroke="none"/>
    <path d="M315.7 203.5 Q314.8 203.15 313.9 202.95 L313.55 202.85 308.95 203.2 Q308.65 203.3 308.4 203.45 L303.65 203.25 Q301.9 202.6 303.65 201.6 305.85 201.65 308.4 203.45 306.95 201.75 306.75 198.1 307.4 195.6 308.4 198.95 L308.4 203.45 308.05 203.65 305.6 205.25 305.0 205.85 302.75 208.4 302.25 210.95 302.05 212.0 301.0 217.5 300.85 218.4 299.75 223.95 299.5 225.15 298.85 228.75 298.6 230.5 298.4 231.75 298.25 232.75 298.0 234.55 297.8 236.1 297.55 238.7 297.3 239.9 296.8 242.1 295.95 245.45 295.6 246.9 295.1 248.95 294.6 250.75 294.3 251.65 Q293.4 254.2 292.25 255.9 L291.5 256.95 290.2 258.15 Q290.85 260.15 288.8 261.2 289.5 263.25 287.2 263.8 L288.9 265.0 291.3 266.7 Q288.9 267.55 289.5 269.35 287.25 269.5 288.0 271.55 286.2 271.55 286.1 274.3 284.9 274.3 284.65 276.45 L283.3 277.7 282.1 278.7 279.85 280.5 278.8 281.3 275.75 283.45 272.7 285.45 271.65 286.1 267.2 288.65 265.65 289.45 263.8 290.3 Q260.55 291.15 258.25 291.95 L256.15 292.65 252.75 293.85 244.3 296.1 240.75 296.75 240.4 296.95 Q239.85 297.2 239.4 297.6 L238.2 298.7 Q237.2 299.8 236.5 301.4 L236.05 302.6 235.6 304.1 235.3 305.8 235.2 306.3 235.2 308.2 235.25 308.7 235.3 309.55 Q235.4 311.15 235.8 313.15 L236.3 315.8 234.2 316.7 233.8 315.6 232.8 317.3 231.2 317.9 230.45 314.35 230.25 312.7 Q229.95 310.3 230.1 308.15 L230.25 306.8 Q230.8 302.75 234.55 299.0 L235.15 298.4 236.3 297.35 237.35 296.15 238.3 295.4 239.0 295.0 302.75 208.4 M315.7 203.5 L317.05 204.2 318.1 204.85 319.9 206.15 319.3 207.2 318.65 208.25 317.3 208.25 317.6 208.9 317.85 209.6 316.5 212.85 315.25 211.35 314.3 210.55 312.1 209.35 310.6 208.8 307.7 208.85 Q306.4 209.15 305.4 210.1 L303.9 212.0 303.9 212.7 303.9 215.05 303.85 216.45 303.8 218.55 303.55 222.65 303.5 223.75 303.25 226.45 303.1 228.0 302.75 231.3 302.55 232.65 302.3 234.25 301.95 236.55 301.7 237.85 301.45 239.25 301.2 240.6 300.65 243.15 299.6 248.55 299.35 250.05 299.2 251.4 298.9 254.1 298.15 255.25 297.3 256.65 296.4 258.25 295.9 259.25 295.0 261.2 Q293.6 260.8 293.05 264.05 290.8 264.5 291.3 266.7 M314.55 206.15 L316.0 208.25 317.3 208.25 M313.0 204.0 L308.95 203.2 M239.0 295.0 Q240.2 294.35 241.8 294.05 L249.2 292.3 251.65 291.55 255.1 290.3 Q258.35 289.05 261.5 287.45 L262.55 286.9 265.35 285.3 266.55 284.6 267.75 283.85 269.05 282.95 271.35 281.35 273.65 279.55 276.45 277.15 277.75 276.1 278.95 274.75 Q280.25 273.15 281.1 271.15 282.3 271.8 282.2 269.85 284.45 270.55 283.9 268.1 286.2 268.1 285.55 266.1 287.35 265.9 287.2 263.8 M290.65 262.45 L293.05 264.05 M292.6 259.65 L290.2 258.15 M290.65 262.45 L288.8 261.2 M282.9 273.8 L282.85 273.75 281.1 271.15 M285.7 269.65 L283.9 268.1 M287.2 267.45 L285.55 266.1 M285.7 269.65 L288.0 271.55 M286.1 274.3 L284.1 272.0 282.2 269.85 M287.2 267.45 L289.5 269.35 M284.65 276.45 L282.9 273.8 M292.6 259.65 L295.0 261.2 M232.15 311.9 L232.8 313.15 233.8 315.6 M230.1 308.15 L231.45 310.55 M313.8 205.1 L313.0 204.0 M312.65 208.6 L316.0 208.25" fill="none" stroke="#000000" stroke-linecap="round" stroke-linejoin="round" stroke-opacity="0.4" stroke-width="0.05"/>
    <path d="M313.55 202.85 L314.6 204.1 313.8 205.1 310.6 208.8 M315.6 204.3 L315.7 203.5 M318.15 205.2 L318.1 204.85 M317.05 204.2 L317.05 204.75 317.05 205.85 318.65 208.25 M315.6 204.3 L315.5 204.85 314.55 206.15 312.65 208.6 312.1 209.35 M318.15 205.2 L318.15 206.1 319.3 207.2 M317.3 209.2 L317.6 208.9 M317.3 209.2 L315.25 211.35 M314.3 210.55 L316.55 208.65 M308.95 203.2 L309.85 204.5 310.4 205.3 310.0 207.05 307.7 208.85 M306.95 206.05 L307.4 207.4 308.75 206.9 309.45 205.4 309.0 204.8 308.05 203.65 M306.95 206.05 L305.6 205.25 M306.4 206.6 L306.45 206.6 306.85 208.1 305.4 210.1 M305.0 205.85 L306.4 206.6 M302.25 210.95 L302.9 212.15 303.9 212.7 M302.05 212.0 L302.8 213.9 303.9 215.05 M301.0 217.5 L302.1 218.55 303.85 216.45 M300.85 218.4 L302.25 220.3 303.8 218.55 M299.5 225.15 L301.3 225.95 301.7 224.1 303.5 223.75 M298.85 228.75 L299.5 228.45 303.25 226.45 M298.6 230.5 L299.5 230.0 303.1 228.0 M303.55 222.65 L301.0 223.05 301.0 224.45 299.75 223.95 M298.4 231.75 L299.5 231.6 300.4 231.45 300.4 233.75 302.75 231.3 M298.25 232.75 L299.0 232.75 298.6 234.35 298.0 234.55 M297.8 236.1 L298.7 236.1 300.0 236.1 301.7 237.85 M301.15 234.25 L302.55 232.65 M301.15 234.25 L300.35 235.15 301.95 236.55 M297.3 239.9 L299.35 237.6 301.45 239.25 M296.8 242.1 L299.3 239.7 301.2 240.6 M295.95 245.45 L298.15 243.7 298.9 245.1 299.7 242.45 300.65 243.15 M295.6 246.9 L297.7 245.85 299.0 247.75 299.6 248.55 M294.6 250.75 L297.0 251.3 297.0 249.4 298.3 249.75 299.35 250.05 M294.3 251.65 L296.65 252.55 296.85 253.8 297.1 255.65 297.3 256.65 M299.2 251.4 L297.85 251.05 297.4 253.7 298.0 254.9 298.15 255.25 M235.25 298.5 L235.15 298.4 M234.55 299.0 L234.7 299.35 236.05 302.6 M236.5 301.4 L235.25 298.5 M238.2 298.7 L237.35 296.15 M240.4 296.95 L240.4 295.5 247.3 293.9 249.2 292.3 M239.4 297.6 L238.3 295.4 M244.3 296.1 L244.85 295.2 248.9 294.0 251.65 291.55 M269.35 282.8 L272.05 283.55 272.7 285.45 M271.35 281.35 L271.95 281.5 274.25 282.0 276.0 280.3 276.9 280.65 278.8 281.3 M274.25 280.35 L273.65 279.55 M266.55 284.6 L268.65 285.85 267.5 286.4 265.35 285.3 M265.65 289.45 L265.25 288.5 262.0 289.95 261.0 289.95 259.9 290.75 258.25 291.95 M267.2 288.65 L266.35 287.35 263.9 288.5 262.55 286.9 M271.65 286.1 L271.35 284.8 267.75 283.85 M256.9 290.8 L262.25 288.5 261.5 287.45 M256.9 290.8 L254.55 291.75 252.75 293.85 M295.8 256.7 L295.85 256.8 296.4 258.25 M294.8 257.7 L295.9 259.25 M294.8 257.7 L293.9 256.4 291.5 256.95 M292.25 255.9 L294.8 254.2 295.8 256.7 M279.4 277.05 L282.1 278.7 M280.65 275.9 L283.3 277.7 M278.95 274.75 L280.65 275.9 M277.75 276.1 L279.4 277.05 M277.4 279.5 L279.85 280.5 M276.6 279.2 L277.4 279.5 M276.6 279.2 L274.25 280.35 M233.1 308.8 L232.3 309.0 M232.9 306.15 L231.6 307.6 231.15 306.35 233.0 304.3 234.4 302.7 235.6 304.1 M235.2 308.2 L233.1 308.8 M233.45 310.55 L235.3 309.55 M232.9 306.15 L234.4 304.5 235.3 305.8 M233.45 310.55 L232.85 310.85 232.5 311.4 232.15 311.9 231.75 312.5 230.45 314.35" fill="none" stroke="#4f3500" stroke-linecap="round" stroke-linejoin="round" stroke-opacity="0.21176471" stroke-width="0.05"/>
    <path d="M303.9 212.7 L303.9 215.05 302.8 213.9 302.05 212.0 302.25 210.95 302.9 212.15 303.9 212.7 M308.4 203.45 Q308.65 203.3 308.95 203.2 L310.4 205.3 310.0 207.05 307.7 208.85 Q306.4 209.15 305.4 210.1 L306.85 208.1 306.45 206.6 306.4 206.6 305.0 205.85 305.6 205.25 306.95 206.05 307.4 207.4 308.75 206.9 309.45 205.4 308.05 203.65 308.4 203.45 M316.55 208.65 L317.3 209.2 315.25 211.35 314.3 210.55 316.55 208.65 M319.3 207.2 L318.65 208.25 317.05 205.85 317.05 204.2 318.1 204.85 318.15 206.1 319.3 207.2 M313.9 202.95 Q314.8 203.15 315.7 203.5 L315.5 204.85 312.1 209.35 310.6 208.8 314.6 204.1 313.55 202.85 313.9 202.95 M300.85 218.4 L301.0 217.5 302.1 218.55 303.85 216.45 303.8 218.55 302.25 220.3 300.85 218.4 M301.2 240.6 L299.3 239.7 296.8 242.1 297.3 239.9 299.35 237.6 301.45 239.25 301.2 240.6 M298.4 231.75 L300.4 231.45 300.4 233.75 302.75 231.3 302.55 232.65 300.35 235.15 301.95 236.55 301.7 237.85 300.0 236.1 297.8 236.1 298.0 234.55 298.6 234.35 299.0 232.75 298.25 232.75 298.4 231.75 M298.85 228.75 L303.25 226.45 303.1 228.0 298.6 230.5 298.85 228.75 M301.7 224.1 L301.3 225.95 299.5 225.15 299.75 223.95 301.0 224.45 301.0 223.05 303.55 222.65 303.5 223.75 301.7 224.1 M300.65 243.15 L299.6 248.55 297.7 245.85 295.6 246.9 295.95 245.45 298.15 243.7 298.9 245.1 299.7 242.45 300.65 243.15 M294.3 251.65 L294.6 250.75 297.0 251.3 297.0 249.4 299.35 250.05 299.2 251.4 297.85 251.05 297.4 253.7 298.15 255.25 297.3 256.65 296.65 252.55 294.3 251.65 M234.7 299.35 L234.95 298.9 235.25 298.5 236.5 301.4 236.05 302.6 234.7 299.35 M239.4 297.6 L238.2 298.7 237.35 296.15 238.3 295.4 239.4 297.6 M240.4 295.5 L247.3 293.9 249.2 292.3 251.65 291.55 248.9 294.0 244.85 295.2 244.3 296.1 240.75 296.75 240.4 296.95 240.4 295.5 M269.35 282.8 L272.05 283.55 272.7 285.45 271.65 286.1 271.35 284.8 267.75 283.85 269.05 282.95 269.35 282.8 M266.35 287.35 L267.2 288.65 265.65 289.45 265.25 288.5 262.0 289.95 261.0 289.95 258.25 291.95 256.15 292.65 252.75 293.85 254.55 291.75 262.25 288.5 261.5 287.45 262.55 286.9 263.9 288.5 266.35 287.35 M267.5 286.4 L265.35 285.3 266.55 284.6 268.65 285.85 267.5 286.4 M295.9 259.25 L293.9 256.4 291.5 256.95 292.25 255.9 294.8 254.2 295.8 256.7 295.75 256.85 295.85 256.8 296.4 258.25 295.9 259.25 M283.3 277.7 L282.1 278.7 277.75 276.1 278.95 274.75 283.3 277.7 M235.3 305.8 L234.4 304.5 231.6 307.6 231.15 306.35 234.4 302.7 235.6 304.1 235.3 305.8 M232.3 309.0 L235.2 308.2 235.25 308.7 235.3 309.55 232.85 310.85 230.45 314.35 230.25 312.7 232.3 309.0 M279.85 280.5 L278.8 281.3 276.0 280.3 274.25 282.0 271.35 281.35 273.65 279.55 274.25 280.35 276.6 279.2 279.85 280.5" fill="#ffffff" fill-opacity="0.49019608" fill-rule="evenodd" stroke="none"/>
  </g>
</svg>
