<?xml version="1.0" encoding="UTF-8" standalone="no"?>
<svg xmlns:xlink="http://www.w3.org/1999/xlink" height="232.2px" width="221.2px" xmlns="http://www.w3.org/2000/svg">
  <g transform="matrix(1.0, 0.0, 0.0, 1.0, 110.85, 116.35)">
    <path d="M108.6 -64.25 L105.95 -58.3 Q99.4 -52.35 92.15 -54.95 84.0 -61.75 76.25 -73.7 57.5 -97.9 42.4 -104.2 39.65 -105.45 36.7 -106.2 31.0 -107.7 24.7 -107.8 16.8 -107.85 8.0 -105.6 -13.3 -94.7 -31.25 -69.4 -37.55 -63.3 -41.85 -65.6 -41.45 -69.3 -39.35 -71.95 -29.9 -84.05 -18.55 -96.4 7.05 -120.5 30.75 -114.75 34.8 -113.8 38.65 -112.0 L40.8 -110.95 Q65.15 -98.95 84.6 -66.75 92.7 -56.5 100.6 -59.0 104.75 -61.1 99.85 -64.1 98.3 -71.1 104.65 -68.6 107.4 -66.45 108.6 -64.25 M-54.9 -30.55 Q-54.4 -27.95 -54.7 -25.85 -57.45 -29.45 -62.35 -26.6 -79.1 -0.85 -84.0 36.7 -87.2 54.1 -84.8 73.55 -83.15 92.6 -87.7 99.7 -91.9 104.45 -96.75 103.25 -104.15 101.15 -106.35 94.95 -104.85 87.75 -107.95 86.0 -102.4 79.5 -101.7 84.75 -105.25 97.8 -95.95 100.35 -85.0 103.3 -88.45 60.3 -88.55 40.65 -81.15 6.2 -76.2 -12.05 -66.3 -30.9 -64.75 -33.9 -60.6 -34.95 L-57.7 -32.75 -54.9 -30.55" fill="#a96501" fill-rule="evenodd" stroke="none"/>
    <path d="M-41.85 -65.6 Q-37.55 -63.3 -31.25 -69.4 -13.3 -94.7 8.0 -105.6 16.8 -107.85 24.7 -107.8 31.0 -107.7 36.7 -106.2 39.65 -105.45 42.4 -104.2 57.5 -97.9 76.25 -73.7 84.0 -61.75 92.15 -54.95 99.4 -52.35 105.95 -58.3 L108.6 -64.25 Q111.1 -59.7 107.05 -55.2 93.7 -44.5 81.65 -60.45 57.9 -97.55 33.5 -102.5 L20.45 -102.9 Q-3.25 -99.45 -27.4 -65.9 L-28.55 -64.35 Q-31.05 -60.95 -36.65 -59.1 L-39.35 -61.45 -41.95 -63.7 -41.85 -65.6 M-54.7 -25.85 Q-54.9 -24.15 -55.65 -22.8 -86.75 30.8 -82.65 64.45 -77.0 110.65 -95.9 106.95 -114.75 103.2 -109.0 87.25 L-107.95 86.0 Q-104.85 87.75 -106.35 94.95 -104.15 101.15 -96.75 103.25 -91.9 104.45 -87.7 99.7 -83.15 92.6 -84.8 73.55 -87.2 54.1 -84.0 36.7 -79.1 -0.85 -62.35 -26.6 -57.45 -29.45 -54.7 -25.85" fill="#653d01" fill-rule="evenodd" stroke="none"/>
    <path d="M-41.95 -63.7 L-39.35 -61.45 -41.55 -58.0 -43.85 -61.85 -41.55 -58.0 -45.3 -52.1 -46.7 -49.95 -48.15 -52.55 -51.2 -53.0 -48.15 -52.55 -45.3 -52.1 -48.15 -52.55 -46.7 -49.95 -51.85 -41.95 -53.2 -42.55 -52.75 -40.5 -53.2 -42.55 -51.85 -41.95 -52.75 -40.5 -57.7 -32.75 -60.6 -34.95 Q-58.95 -39.75 -56.6 -44.25 -54.25 -48.8 -51.2 -53.0 -47.95 -57.6 -43.85 -61.85 L-41.95 -63.7 M-53.2 -42.55 L-56.6 -44.25 -53.2 -42.55" fill="#cccc00" fill-rule="evenodd" stroke="none"/>
    <path d="M-39.35 -61.45 L-36.65 -59.1 -39.05 -53.9 -41.55 -58.0 -39.05 -53.9 -40.4 -51.35 -45.3 -52.1 -40.4 -51.35 Q-42.1 -48.1 -43.95 -45.0 L-46.7 -49.95 -43.95 -45.0 Q-45.65 -42.3 -47.45 -39.75 -49.65 -40.8 -51.85 -41.95 -49.65 -40.8 -47.45 -39.75 L-51.5 -34.5 Q-53.15 -32.45 -54.9 -30.55 L-57.7 -32.75 -52.75 -40.5 -51.85 -41.95 -46.7 -49.95 -45.3 -52.1 -41.55 -58.0 -39.35 -61.45 M-51.5 -34.5 L-52.75 -40.5 -51.5 -34.5" fill="#8c8c00" fill-rule="evenodd" stroke="none"/>
    <path d="M108.6 -64.25 Q107.4 -66.45 104.65 -68.6 98.3 -71.1 99.85 -64.1 104.75 -61.1 100.6 -59.0 92.7 -56.5 84.6 -66.75 65.15 -98.95 40.8 -110.95 L38.65 -112.0 Q34.8 -113.8 30.75 -114.75 7.05 -120.5 -18.55 -96.4 -29.9 -84.05 -39.35 -71.95 -41.45 -69.3 -41.85 -65.6 L-41.95 -63.7 -39.35 -61.45 -36.65 -59.1 Q-31.05 -60.95 -28.55 -64.35 L-27.4 -65.9 M81.65 -60.45 Q93.7 -44.5 107.05 -55.2 111.1 -59.7 108.6 -64.25 M-60.6 -34.95 Q-58.95 -39.75 -56.6 -44.25 -54.25 -48.8 -51.2 -53.0 -47.95 -57.6 -43.85 -61.85 L-41.95 -63.7 M-39.05 -53.9 L-36.65 -59.1 M-40.4 -51.35 L-39.05 -53.9 M-43.95 -45.0 Q-42.1 -48.1 -40.4 -51.35 M-47.45 -39.75 Q-45.65 -42.3 -43.95 -45.0 M-47.45 -39.75 L-51.5 -34.5 Q-53.15 -32.45 -54.9 -30.55 -54.4 -27.95 -54.7 -25.85 -54.9 -24.15 -55.65 -22.8 -86.75 30.8 -82.65 64.45 -77.0 110.65 -95.9 106.95 -114.75 103.2 -109.0 87.25 L-107.95 86.0 Q-102.4 79.5 -101.7 84.75 -105.25 97.8 -95.95 100.35 -85.0 103.3 -88.45 60.3 -88.55 40.65 -81.15 6.2 -76.2 -12.05 -66.3 -30.9 -64.75 -33.9 -60.6 -34.95 L-57.7 -32.75 -54.9 -30.55" fill="none" stroke="#000000" stroke-linecap="round" stroke-linejoin="round" stroke-opacity="0.4" stroke-width="1.0"/>
    <path d="M-27.4 -65.9 Q-3.25 -99.45 20.45 -102.9 L33.5 -102.5 Q57.9 -97.55 81.65 -60.45" fill="none" stroke="#000000" stroke-linecap="round" stroke-linejoin="round" stroke-opacity="0.4" stroke-width="1.0"/>
    <path d="M-41.55 -58.0 L-39.05 -53.9 M-43.85 -61.85 L-41.55 -58.0 M-45.3 -52.1 L-40.4 -51.35 M-46.7 -49.95 L-43.95 -45.0 M-51.2 -53.0 L-48.15 -52.55 -45.3 -52.1 M-48.15 -52.55 L-46.7 -49.95 M-51.85 -41.95 Q-49.65 -40.8 -47.45 -39.75 M-51.85 -41.95 L-53.2 -42.55 -52.75 -40.5 -51.5 -34.5 M-56.6 -44.25 L-53.2 -42.55" fill="none" stroke="#333333" stroke-linecap="round" stroke-linejoin="round" stroke-opacity="0.3882353" stroke-width="0.05"/>
    <path d="M-101.65 94.0 L-98.9 98.9 Q-101.3 103.2 -104.55 105.35 L-109.6 99.5 Q-105.25 97.85 -101.65 94.0" fill="#cccc00" fill-rule="evenodd" stroke="none"/>
    <path d="M-101.65 94.0 L-98.9 98.9 Q-101.3 103.2 -104.55 105.35 L-109.6 99.5 Q-105.25 97.85 -101.65 94.0 Z" fill="none" stroke="#000000" stroke-linecap="round" stroke-linejoin="round" stroke-opacity="0.4" stroke-width="0.05"/>
    <path d="M-100.0 96.5 L-95.15 99.4 Q-95.15 104.35 -96.9 107.75 L-104.15 105.25 Q-101.2 101.65 -100.0 96.5" fill="#cccc00" fill-rule="evenodd" stroke="none"/>
    <path d="M-100.0 96.5 L-95.15 99.4 Q-95.15 104.35 -96.9 107.75 L-104.15 105.25 Q-101.2 101.65 -100.0 96.5 Z" fill="none" stroke="#000000" stroke-linecap="round" stroke-linejoin="round" stroke-opacity="0.4" stroke-width="0.05"/>
    <path d="M102.0 -61.2 Q107.25 -61.2 110.35 -58.9 109.3 -55.6 106.1 -52.85 103.65 -55.65 98.8 -57.65 101.3 -59.25 102.0 -61.2" fill="#cccc00" fill-rule="evenodd" stroke="none"/>
    <path d="M102.0 -61.2 Q107.25 -61.2 110.35 -58.9 109.3 -55.6 106.1 -52.85 103.65 -55.65 98.8 -57.65 101.3 -59.25 102.0 -61.2 Z" fill="none" stroke="#000000" stroke-linecap="round" stroke-linejoin="round" stroke-opacity="0.4" stroke-width="0.05"/>
    <path d="M95.4 -59.3 L100.95 -59.8 Q103.85 -55.8 104.45 -52.0 L97.1 -49.8 Q97.35 -54.4 95.4 -59.3" fill="#cccc00" fill-rule="evenodd" stroke="none"/>
    <path d="M95.4 -59.3 L100.95 -59.8 Q103.85 -55.8 104.45 -52.0 L97.1 -49.8 Q97.35 -54.4 95.4 -59.3 Z" fill="none" stroke="#000000" stroke-linecap="round" stroke-linejoin="round" stroke-opacity="0.4" stroke-width="0.05"/>
    <path d="M94.6 -59.45 Q94.55 -54.25 91.85 -51.1 88.0 -52.05 84.9 -55.15 88.2 -57.65 90.5 -62.45 92.3 -60.05 94.6 -59.45" fill="#cccc00" fill-rule="evenodd" stroke="none"/>
    <path d="M94.6 -59.45 Q94.55 -54.25 91.85 -51.1 88.0 -52.05 84.9 -55.15 88.2 -57.65 90.5 -62.45 92.3 -60.05 94.6 -59.45 Z" fill="none" stroke="#000000" stroke-linecap="round" stroke-linejoin="round" stroke-opacity="0.4" stroke-width="0.05"/>
    <path d="M73.15 -85.35 L58.5 -72.05 75.1 -83.55 Q76.25 -82.35 76.8 -81.1 77.6 -79.45 77.5 -77.6 40.1 -53.1 -8.2 -1.7 -37.8 29.8 -71.55 71.45 -80.2 83.35 -80.85 95.6 -81.7 112.5 -89.25 115.85 L-85.35 109.15 -88.95 111.25 Q-84.4 106.35 -82.8 97.05 -83.4 88.4 -81.3 82.1 -74.5 70.7 -64.75 59.45 L-64.4 59.05 -62.8 57.2 -63.6 58.0 -14.8 -1.45 -0.4 -16.65 -13.65 1.05 21.8 -35.05 46.05 -61.8 Q56.85 -73.6 53.85 -79.8 47.1 -85.0 53.25 -96.4 39.2 -74.55 23.9 -56.9 45.75 -89.15 50.65 -106.45 54.75 -104.1 57.95 -99.5 48.75 -88.75 58.25 -82.6 65.4 -79.4 69.6 -87.7 L73.15 -85.35" fill="#e6f8ff" fill-rule="evenodd" stroke="none"/>
    <path d="M75.1 -83.55 L58.5 -72.05 73.15 -85.35 75.1 -83.55 M50.65 -106.45 Q45.75 -89.15 23.9 -56.9 L17.55 -47.8 Q11.35 -38.85 -36.75 22.35 L-82.7 77.95 -63.6 58.0 -62.8 57.2 -64.4 59.05 -64.75 59.45 Q-74.5 70.7 -81.3 82.1 -83.4 88.4 -82.8 97.05 -84.4 106.35 -88.95 111.25 L-85.35 109.15 -89.25 115.85 Q-96.9 113.75 -90.5 106.85 -83.15 95.55 -84.8 88.0 -86.8 90.5 -88.7 92.1 -94.1 92.85 -87.55 78.9 -44.9 28.7 -15.85 -8.3 50.1 -92.45 45.4 -108.5 48.2 -107.85 50.65 -106.45 M13.35 -36.8 L11.45 -34.25 11.4 -34.3 13.35 -36.8" fill="#ceefff" fill-rule="evenodd" stroke="none"/>
    <path d="M23.9 -56.9 Q39.2 -74.55 53.25 -96.4 47.1 -85.0 53.85 -79.8 56.85 -73.6 46.05 -61.8 L21.8 -35.05 -13.65 1.05 -0.4 -16.65 -14.8 -1.45 -63.6 58.0 -82.7 77.95 -36.75 22.35 Q11.35 -38.85 17.55 -47.8 L23.9 -56.9 M11.45 -34.25 Q-8.95 -6.1 38.9 -58.45 49.75 -73.5 44.75 -73.05 32.5 -62.9 13.35 -36.8 L11.4 -34.3 11.45 -34.25" fill="#ffffff" fill-rule="evenodd" stroke="none"/>
    <path d="M73.15 -85.35 L69.6 -87.7 Q65.4 -79.4 58.25 -82.6 48.75 -88.75 57.95 -99.5 54.75 -104.1 50.65 -106.45 48.2 -107.85 45.4 -108.5 M-89.25 115.85 Q-81.7 112.5 -80.85 95.6 -80.2 83.35 -71.55 71.45 -37.8 29.8 -8.2 -1.7 40.1 -53.1 77.5 -77.6 77.6 -79.45 76.8 -81.1 76.25 -82.35 75.1 -83.55 L73.15 -85.35 M11.45 -34.25 Q-8.95 -6.1 38.9 -58.45 49.75 -73.5 44.75 -73.05 32.5 -62.9 13.35 -36.8 L11.45 -34.25 M-89.25 115.85 Q-96.9 113.75 -90.5 106.85 -83.15 95.55 -84.8 88.0 -86.8 90.5 -88.7 92.1 -94.1 92.85 -87.55 78.9" fill="none" stroke="#000033" stroke-linecap="round" stroke-linejoin="round" stroke-opacity="0.21960784" stroke-width="0.05"/>
    <path d="M-87.55 78.9 Q-44.9 28.7 -15.85 -8.3 50.1 -92.45 45.4 -108.5" fill="none" stroke="#000033" stroke-linecap="round" stroke-linejoin="round" stroke-opacity="0.21960784" stroke-width="0.05"/>
  </g>
</svg>
