<?xml version="1.0" encoding="UTF-8" standalone="no"?>
<svg xmlns:xlink="http://www.w3.org/1999/xlink" height="40.85px" width="38.75px" xmlns="http://www.w3.org/2000/svg">
  <g transform="matrix(1.0, 0.0, 0.0, 1.0, -316.3, -177.0)">
    <path d="M321.7 216.85 L316.3 208.9 327.3 177.0 333.1 188.7 322.15 215.85 321.7 216.85" fill="url(#gradient0)" fill-rule="evenodd" stroke="none"/>
    <path d="M334.4 191.35 L338.55 190.95 321.7 216.85 322.15 215.85 334.4 191.35" fill="#b69987" fill-rule="evenodd" stroke="none"/>
    <path d="M333.1 188.7 L334.4 191.35 322.15 215.85 333.1 188.7" fill="#e2d8d1" fill-rule="evenodd" stroke="none"/>
    <path d="M338.55 190.95 L355.05 189.35 332.15 217.25 321.7 216.85 338.55 190.95" fill="url(#gradient1)" fill-rule="evenodd" stroke="none"/>
    <path d="M355.05 189.35 L333.25 217.3 332.15 217.25 355.05 189.35" fill="url(#gradient2)" fill-rule="evenodd" stroke="none"/>
    <path d="M333.25 217.3 L332.8 217.85 321.7 216.85 332.15 217.25 333.25 217.3" fill="url(#gradient3)" fill-rule="evenodd" stroke="none"/>
    <path d="M338.55 190.95 L355.05 189.35 333.25 217.3 332.8 217.85 321.7 216.85 316.3 208.9 327.3 177.0 333.1 188.7 334.4 191.35 338.55 190.95 321.7 216.85 332.15 217.25 355.05 189.35 M321.7 216.85 L322.15 215.85 333.1 188.7 M322.15 215.85 L334.4 191.35" fill="none" stroke="#a17960" stroke-linecap="round" stroke-linejoin="round" stroke-opacity="0.2509804" stroke-width="0.05"/>
  </g>
  <defs>
    <radialGradient cx="0" cy="0" gradientTransform="matrix(0.0437, 0.0, 0.0, 0.0437, 320.45, 212.15)" gradientUnits="userSpaceOnUse" id="gradient0" r="819.2" spreadMethod="pad">
      <stop offset="0.027450980392156862" stop-color="#ae8e79"/>
      <stop offset="1.0" stop-color="#e2d8d1"/>
    </radialGradient>
    <radialGradient cx="0" cy="0" gradientTransform="matrix(0.0452, 0.0, 0.0, 0.0452, 327.7, 214.25)" gradientUnits="userSpaceOnUse" id="gradient1" r="819.2" spreadMethod="pad">
      <stop offset="0.027450980392156862" stop-color="#ae8e79"/>
      <stop offset="1.0" stop-color="#e2d8d1"/>
    </radialGradient>
    <radialGradient cx="0" cy="0" gradientTransform="matrix(0.022, 0.0, 0.0, 0.022, 343.6, 203.3)" gradientUnits="userSpaceOnUse" id="gradient2" r="819.2" spreadMethod="pad">
      <stop offset="0.027450980392156862" stop-color="#ae8e79"/>
      <stop offset="1.0" stop-color="#fafafa"/>
    </radialGradient>
    <radialGradient cx="0" cy="0" gradientTransform="matrix(0.0074, 0.0, 0.0, 0.0074, 327.2, 217.2)" gradientUnits="userSpaceOnUse" id="gradient3" r="819.2" spreadMethod="pad">
      <stop offset="0.027450980392156862" stop-color="#ae8e79"/>
      <stop offset="1.0" stop-color="#fafafa"/>
    </radialGradient>
  </defs>
</svg>
