<?xml version="1.0" encoding="UTF-8" standalone="no"?>
<svg xmlns:xlink="http://www.w3.org/1999/xlink" height="9.4px" width="11.45px" xmlns="http://www.w3.org/2000/svg">
  <g transform="matrix(1.0, 0.0, 0.0, 1.0, 0.0, 4.7)">
    <path d="M1.45 -3.65 L1.55 -4.05 Q2.05 -4.9 3.8 -4.65 L4.0 -4.65 4.35 -4.6 4.55 -4.55 5.2 -4.35 5.4 -4.3 6.55 -3.8 6.9 -3.65 7.35 -3.4 7.6 -3.25 8.1 -3.0 9.55 -1.9 9.65 -1.8 10.05 -1.4 10.65 -0.7 Q11.75 0.7 11.3 1.6 L11.2 1.7 9.85 4.05 9.45 4.45 7.55 4.65 9.0 2.2 8.05 2.05 7.5 1.85 7.4 1.85 5.7 1.1 5.25 0.85 4.95 0.7 4.55 0.4 4.25 0.2 3.95 0.0 3.7 -0.2 3.55 -0.35 3.25 -0.55 3.1 -0.7 2.6 -1.2 2.45 -1.35 2.25 -1.6 2.1 -1.75 1.8 -2.3 Q1.3 -3.1 1.45 -3.65" fill="#82c4cc" fill-rule="evenodd" stroke="none"/>
    <path d="M6.15 4.35 Q5.25 4.05 4.3 3.55 L3.85 3.25 3.55 3.1 3.15 2.85 2.85 2.6 2.1 2.1 1.85 1.85 1.7 1.75 1.2 1.25 1.05 1.1 2.45 -1.35 2.6 -1.2 3.1 -0.7 3.25 -0.55 3.55 -0.35 3.7 -0.2 3.95 0.0 Q6.9 2.4 6.6 3.0 L6.15 4.35" fill="#425a68" fill-rule="evenodd" stroke="none"/>
    <path d="M7.55 4.65 L6.65 4.45 6.15 4.35 6.6 3.0 Q6.9 2.4 3.95 0.0 L4.25 0.2 4.55 0.4 4.95 0.7 5.25 0.85 5.7 1.1 7.4 1.85 7.5 1.85 8.05 2.05 9.0 2.2 7.55 4.65" fill="#5f829a" fill-rule="evenodd" stroke="none"/>
    <path d="M1.05 1.1 L0.85 0.8 0.7 0.65 Q0.05 -0.25 0.0 -0.9 L0.0 -1.25 0.15 -1.6 0.4 -1.9 1.45 -3.65 Q1.3 -3.1 1.8 -2.3 L2.1 -1.75 2.25 -1.6 2.45 -1.35 1.05 1.1 M0.0 -1.25 L0.4 -1.9 0.0 -1.25" fill="#344650" fill-rule="evenodd" stroke="none"/>
    <path d="M4.35 -4.6 L4.55 -4.55 5.2 -4.35 5.4 -4.3 6.55 -3.8 6.9 -3.65 7.35 -3.4 7.6 -3.25 8.1 -3.0 9.55 -1.9 9.65 -1.8 10.05 -1.4 10.65 -0.7 Q11.75 0.7 11.3 1.6 L11.2 1.7 9.85 4.05 9.45 4.45 7.55 4.65 6.65 4.45 6.15 4.35 Q5.25 4.05 4.3 3.55 L3.85 3.25 3.55 3.1 3.15 2.85 2.85 2.6 2.1 2.1 1.85 1.85 1.7 1.75 1.2 1.25 1.05 1.1" fill="none" stroke="#585143" stroke-linecap="round" stroke-linejoin="round" stroke-width="0.05"/>
    <path d="M1.05 1.1 L0.85 0.8 0.7 0.65 Q0.05 -0.25 0.0 -0.9 L0.0 -1.25 0.15 -1.6 0.4 -1.9 1.45 -3.65 1.55 -4.05 Q2.05 -4.9 3.8 -4.65 L4.0 -4.65 4.35 -4.6 M0.4 -1.9 L0.0 -1.25" fill="none" stroke="#344650" stroke-linecap="round" stroke-linejoin="round" stroke-width="0.05"/>
  </g>
</svg>
