<?xml version="1.0" encoding="UTF-8" standalone="no"?>
<svg xmlns:xlink="http://www.w3.org/1999/xlink" height="78.5px" width="77.8px" xmlns="http://www.w3.org/2000/svg">
  <g transform="matrix(1.0, 0.0, 0.0, 1.0, 0.0, 0.0)">
    <path d="M2.15 73.55 L2.2 73.65 2.3 74.0 2.4 74.25 2.15 73.55 M2.95 75.0 L3.2 75.2 3.25 75.2 3.05 75.1 2.95 75.0" fill="#824f3e" fill-rule="evenodd" stroke="none"/>
    <path d="M2.15 78.35 L0.95 77.55 0.4 76.8 0.15 76.35 0.2 76.35 0.75 76.45 Q1.85 76.6 2.55 75.9 L3.05 75.1 3.25 75.2 4.3 75.7 4.7 75.75 4.7 75.95 Q4.8 77.05 4.1 77.75 3.35 78.45 2.25 78.35 L2.15 78.35" fill="#3c271e" fill-rule="evenodd" stroke="none"/>
    <path d="M0.2 76.35 L0.15 76.2 0.05 76.0 0.0 75.55 Q-0.05 74.85 0.2 74.35 L0.6 73.8 Q1.2 73.2 2.05 73.2 L2.1 73.25 2.1 73.35 2.15 73.5 2.15 73.55 2.4 74.25 2.45 74.3 2.45 74.35 2.5 74.4 2.65 74.65 2.95 75.0 3.05 75.1 2.55 75.9 Q1.85 76.6 0.75 76.45 L0.2 76.35" fill="#5c3a2e" fill-rule="evenodd" stroke="none"/>
    <path d="M4.7 75.75 L4.95 75.8 5.2 75.85 5.25 75.85 5.3 76.1 Q5.35 77.2 4.65 77.9 3.95 78.6 2.85 78.45 L2.55 78.45 2.5 78.4 2.4 78.4 2.35 78.4 2.15 78.35 2.25 78.35 Q3.35 78.45 4.1 77.75 4.8 77.05 4.7 75.95 L4.7 75.75" fill="#301f18" fill-rule="evenodd" stroke="none"/>
    <path d="M4.7 75.75 L4.95 75.8 5.2 75.85 5.25 75.85 5.3 76.1 Q5.35 77.2 4.65 77.9 3.95 78.6 2.85 78.45 L2.55 78.45 2.5 78.4 2.4 78.4 2.35 78.4 2.15 78.35 0.95 77.55 0.4 76.8 0.15 76.35 0.2 76.35 0.15 76.2 0.05 76.0 0.0 75.55 Q-0.05 74.85 0.2 74.35 L0.6 73.8 Q1.2 73.2 2.05 73.2 L2.1 73.25 2.1 73.35 2.15 73.5 2.15 73.55 2.4 74.25 2.45 74.3 2.45 74.35 2.5 74.4 2.65 74.65 2.95 75.0 3.05 75.1 3.25 75.2 4.3 75.7 4.7 75.75 Z" fill="none" stroke="#000000" stroke-linecap="round" stroke-linejoin="round" stroke-width="0.05"/>
    <path d="M31.6 44.8 L32.75 48.95 24.8 57.4 22.45 59.85 8.15 75.55 3.85 72.9 31.6 44.8" fill="#563c2b" fill-rule="evenodd" stroke="none"/>
    <path d="M31.25 43.6 L31.6 44.8 3.85 72.9 2.25 71.85 6.75 67.75 Q17.05 58.25 31.25 43.6" fill="#6d4936" fill-rule="evenodd" stroke="none"/>
    <path d="M31.6 44.8 L31.25 43.6 35.6 39.15 36.2 38.45 36.65 37.95 36.95 37.8 38.25 37.6 38.65 37.65 Q39.7 37.85 41.35 40.0 L41.3 40.05 35.9 45.65 32.75 48.95 31.6 44.8" fill="#442e22" fill-rule="evenodd" stroke="none"/>
    <path d="M32.75 48.95 L35.9 45.65 41.3 40.05 41.35 40.0 M38.25 37.6 L36.95 37.8 M36.65 37.95 L36.2 38.45 35.6 39.15 31.25 43.6 Q17.05 58.25 6.75 67.75 L2.25 71.85 M32.75 48.95 L24.8 57.4 22.45 59.85 8.15 75.55" fill="none" stroke="#000000" stroke-linecap="round" stroke-linejoin="round" stroke-width="0.05"/>
    <path d="M36.95 37.8 L36.65 37.95" fill="none" stroke="#000000" stroke-linecap="round" stroke-linejoin="round" stroke-width="0.05"/>
    <path d="M5.0 70.4 L4.6 69.25 4.65 69.4 4.85 70.0 5.0 70.4 M6.15 71.85 L5.95 71.65 6.35 72.0 6.15 71.85" fill="#824f3e" fill-rule="evenodd" stroke="none"/>
    <path d="M1.3 73.95 L2.25 74.1 Q4.05 74.3 5.25 73.15 L6.15 71.85 6.35 72.0 6.4 72.05 8.2 72.85 8.8 72.95 8.85 73.3 Q9.0 75.1 7.8 76.3 6.6 77.45 4.8 77.25 L4.6 77.25 Q3.5 76.85 2.55 75.9 L1.65 74.7 1.3 73.95" fill="#563c2b" fill-rule="evenodd" stroke="none"/>
    <path d="M5.0 70.4 L5.1 70.55 5.15 70.6 5.2 70.7 5.45 71.1 5.95 71.65 6.15 71.85 5.25 73.15 Q4.05 74.3 2.25 74.1 L1.3 73.95 1.3 73.9 1.25 73.65 1.1 73.3 1.0 72.6 1.05 72.6 Q0.9 71.45 1.35 70.6 L2.05 69.65 Q3.0 68.7 4.45 68.65 L4.5 68.75 4.5 68.9 4.6 69.15 4.6 69.25 5.0 70.4" fill="#694634" fill-rule="evenodd" stroke="none"/>
    <path d="M8.8 72.95 L9.3 73.05 9.65 73.05 9.7 73.05 9.7 73.1 9.75 73.05 9.85 73.5 Q9.95 75.35 8.8 76.5 7.55 77.65 5.75 77.45 L5.3 77.4 5.2 77.35 5.05 77.35 4.95 77.3 4.6 77.25 4.8 77.25 Q6.6 77.45 7.8 76.3 9.0 75.1 8.85 73.3 L8.8 72.95" fill="#3c271e" fill-rule="evenodd" stroke="none"/>
    <path d="M5.95 71.65 L5.45 71.1 5.2 70.7 5.15 70.6 5.1 70.55 5.0 70.4 4.6 69.25 4.6 69.15 4.5 68.9 4.5 68.75 4.45 68.65 Q3.0 68.7 2.05 69.65 L1.35 70.6 Q0.9 71.45 1.05 72.6 L1.0 72.6 1.1 73.3 1.25 73.65 1.3 73.9 1.3 73.95 1.65 74.7 2.55 75.9 Q3.5 76.85 4.6 77.25 L4.95 77.3 5.05 77.35 5.2 77.35 5.3 77.4 5.75 77.45 Q7.55 77.65 8.8 76.5 9.95 75.35 9.85 73.5 L9.75 73.05 9.7 73.1 9.7 73.05 9.65 73.05 9.3 73.05 8.8 72.95 8.2 72.85 6.4 72.05 6.35 72.0 6.15 71.85 5.95 71.65 Z" fill="none" stroke="#000000" stroke-linecap="round" stroke-linejoin="round" stroke-width="0.05"/>
    <path d="M15.85 57.65 L17.05 56.6 Q16.65 57.2 17.05 58.25 17.55 59.35 18.7 60.3 19.9 61.2 21.05 61.35 L21.6 61.4 20.4 62.0 17.75 62.25 19.4 63.0 17.7 64.75 Q15.05 62.5 15.1 62.0 15.1 61.25 16.95 62.75 14.95 59.85 15.5 58.85 L15.85 57.65 M6.85 73.15 L6.4 72.85 Q5.25 71.9 4.75 70.8 4.35 69.75 4.55 69.0 L6.1 67.25 Q6.8 70.2 8.2 72.95 L6.85 73.15 M9.15 63.95 L9.25 63.85 9.4 64.5 10.15 65.55 10.4 64.5 11.3 62.3 12.3 63.85 Q12.7 64.5 12.1 65.9 L12.8 64.05 13.3 64.1 15.6 65.8 13.25 66.15 14.25 66.3 Q14.65 66.4 15.0 67.3 15.3 68.2 10.2 67.75 L13.1 69.55 13.2 70.4 8.4 70.2 10.05 71.8 10.7 72.6 8.25 72.95 Q7.55 69.25 8.05 67.1 8.6 64.8 9.25 64.65 L9.15 63.95 M12.9 60.3 L13.0 60.15 13.0 61.4 14.9 64.15 13.3 64.1 13.2 64.0 12.8 64.0 Q13.25 62.35 12.75 61.25 L12.7 61.2 12.9 60.3" fill="#4d433a" fill-rule="evenodd" stroke="none"/>
    <path d="M6.1 67.25 L9.15 63.95 9.25 64.65 Q8.6 64.8 8.05 67.1 7.55 69.25 8.25 72.95 L8.2 72.95 Q6.8 70.2 6.1 67.25 M9.25 63.85 L12.9 60.3 12.7 61.2 12.75 61.25 Q13.25 62.35 12.8 64.0 L12.7 64.0 12.8 64.05 12.1 65.9 Q12.7 64.5 12.3 63.85 L11.3 62.3 10.4 64.5 10.15 65.55 9.4 64.5 9.25 63.85 M13.0 60.15 L15.85 57.65 15.5 58.85 Q14.95 59.85 16.95 62.75 15.1 61.25 15.1 62.0 15.05 62.5 17.7 64.75 L14.9 64.15 13.0 61.4 13.0 60.15" fill="#5c5047" fill-rule="evenodd" stroke="none"/>
    <path d="M21.6 61.4 L22.25 61.25 20.05 64.3 19.5 65.05 18.8 65.95 Q16.05 69.1 10.0 73.85 L8.75 73.9 6.85 73.15 8.2 72.95 8.25 72.95 10.7 72.6 10.05 71.8 8.4 70.2 13.2 70.4 13.1 69.55 10.2 67.75 Q15.3 68.2 15.0 67.3 14.65 66.4 14.25 66.3 L13.25 66.15 15.6 65.8 13.3 64.1 12.8 64.05 12.7 64.0 12.8 64.0 13.2 64.0 13.3 64.1 14.9 64.15 17.7 64.75 19.4 63.0 17.75 62.25 20.4 62.0 21.6 61.4" fill="#362f29" fill-rule="evenodd" stroke="none"/>
    <path d="M15.85 57.65 L17.05 56.6 Q16.65 57.2 17.05 58.25 17.55 59.35 18.7 60.3 19.9 61.2 21.05 61.35 L21.6 61.4 22.25 61.25 20.05 64.3 19.5 65.05 18.8 65.95 Q16.05 69.1 10.0 73.85 L8.75 73.9 6.85 73.15 6.4 72.85 Q5.25 71.9 4.75 70.8 4.35 69.75 4.55 69.0 L6.1 67.25 9.15 63.95 9.25 63.85 12.9 60.3 13.0 60.15 15.85 57.65 Z" fill="none" stroke="#000000" stroke-linecap="round" stroke-linejoin="round" stroke-width="0.05"/>
    <path d="M22.4 60.1 L22.15 60.85 Q21.7 61.35 20.7 61.1 19.75 60.85 18.75 60.0 17.75 59.15 17.35 58.2 17.0 57.25 17.45 56.75 17.7 56.45 18.1 56.4" fill="none" stroke="#000000" stroke-linecap="round" stroke-linejoin="round" stroke-width="1.0"/>
    <path d="M10.9 73.1 L10.6 74.05 Q10.0 74.7 8.7 74.4 7.4 74.1 6.15 73.0 4.85 71.9 4.35 70.65 3.85 69.4 4.45 68.75 L5.25 68.3" fill="none" stroke="#000000" stroke-linecap="round" stroke-linejoin="round" stroke-width="1.0"/>
    <path d="M39.75 46.3 L40.4 36.5 49.85 25.55 62.5 20.0 71.05 23.1 71.05 23.2 71.0 23.95 70.45 32.95 70.4 33.0 70.0 33.45 67.55 36.3 67.15 36.75 61.1 43.85 59.0 44.75 57.75 45.3 48.45 49.3 48.35 49.35 39.75 46.3" fill="#302925" fill-rule="evenodd" stroke="none"/>
    <path d="M71.05 23.2 L77.35 31.95 77.35 32.0 77.6 32.5 77.6 33.0 71.0 23.95 71.05 23.2" fill="#6d5f54" fill-rule="evenodd" stroke="none"/>
    <path d="M70.0 33.45 L70.4 33.0 74.1 38.25 74.1 38.2 77.05 42.35 76.8 42.65 70.5 33.9 70.0 33.45" fill="#4d433a" fill-rule="evenodd" stroke="none"/>
    <path d="M77.6 33.0 L77.1 42.4 77.05 42.35 74.1 38.2 74.1 38.25 70.4 33.0 70.45 32.95 71.0 23.95 77.6 33.0 M75.8 43.85 L67.95 52.95 63.9 45.05 67.15 36.75 67.55 36.3 70.0 33.45 70.5 33.9 76.8 42.65 75.8 43.85" fill="#d7a925" fill-rule="evenodd" stroke="none"/>
    <path d="M67.9 53.0 L67.65 53.25 59.75 56.6 54.8 58.65 51.4 53.85 51.6 53.85 49.45 50.75 57.75 45.3 59.0 44.75 61.1 43.85 63.2 46.75 63.35 46.95 65.85 50.45 66.0 50.4 67.9 53.0" fill="#895f2c" fill-rule="evenodd" stroke="none"/>
    <path d="M67.95 52.95 L68.2 53.45 67.9 53.0 67.95 52.95 67.9 53.0 66.0 50.4 65.85 50.45 63.35 46.95 63.2 46.75 61.1 43.85 67.15 36.75 63.9 45.05 67.95 52.95 M48.45 49.3 L57.75 45.3 49.45 50.75 48.45 49.3" fill="#e3b61c" fill-rule="evenodd" stroke="none"/>
    <path d="M54.8 58.65 L46.4 55.65 45.4 54.25 39.7 46.25 39.75 46.3 48.35 49.35 48.45 49.3 49.45 50.75 51.6 53.85 51.4 53.85 54.8 58.65" fill="#573c1c" fill-rule="evenodd" stroke="none"/>
    <path d="M59.75 56.6 L55.0 58.7 54.8 58.65 59.75 56.6" fill="#8e8e8e" fill-rule="evenodd" stroke="none"/>
    <path d="M39.75 46.3 L40.4 36.5 49.85 25.55 62.5 20.0 71.05 23.1 71.05 23.2 77.35 31.95 M77.35 32.0 L77.6 32.5 77.6 33.0 77.1 42.4 76.8 42.65 75.8 43.85 67.95 52.95 67.9 53.0 66.0 50.4 M67.9 53.0 L67.65 53.25 59.75 56.6 54.8 58.65 46.4 55.65 45.4 54.25 39.7 46.25 M55.0 58.7 L54.8 58.65 51.4 53.85 M39.75 46.3 L48.35 49.35 48.45 49.3 57.75 45.3 M59.0 44.75 L61.1 43.85 67.15 36.75 M67.55 36.3 L70.0 33.45 70.4 33.0 70.45 32.95 71.0 23.95 71.05 23.2 M63.2 46.75 L61.1 43.85 M65.85 50.45 L63.35 46.95 M48.45 49.3 L49.45 50.75 51.6 53.85 M74.1 38.2 L77.05 42.35 77.1 42.4 M70.4 33.0 L74.1 38.25" fill="none" stroke="#000000" stroke-linecap="round" stroke-linejoin="round" stroke-width="0.05"/>
    <path d="M57.75 45.3 L59.0 44.75 M67.15 36.75 L67.55 36.3 M63.35 46.95 L63.2 46.75" fill="none" stroke="#000000" stroke-linecap="round" stroke-linejoin="round" stroke-width="0.05"/>
    <path d="M76.8 42.65 L70.5 33.9 M71.0 23.95 L77.6 33.0" fill="none" stroke="#bea588" stroke-linecap="round" stroke-linejoin="round" stroke-width="0.05"/>
    <path d="M50.5 23.9 L52.3 22.45 58.15 22.75 69.45 24.3 69.5 24.35 69.7 30.8 70.5 31.3 70.4 33.15 50.5 23.9" fill="#6d5f54" fill-rule="evenodd" stroke="none"/>
    <path d="M52.3 22.45 L51.8 21.5 62.45 19.85 70.9 23.25 58.15 22.75 52.3 22.45" fill="#897469" fill-rule="evenodd" stroke="none"/>
    <path d="M46.6 26.95 L48.75 25.25 61.15 44.0 48.55 49.5 46.6 26.95" fill="#443c35" fill-rule="evenodd" stroke="none"/>
    <path d="M61.15 44.0 L48.75 25.25 50.5 23.9 70.4 33.15 70.55 33.2 61.15 44.05 61.15 44.0" fill="#4d433a" fill-rule="evenodd" stroke="none"/>
    <path d="M40.15 45.7 L39.8 46.4 39.9 36.3 43.4 28.55 44.35 28.65 40.15 45.7" fill="#211d1b" fill-rule="evenodd" stroke="none"/>
    <path d="M46.6 26.95 L48.55 49.5 39.75 46.55 40.15 45.7 44.35 28.65 46.6 26.95" fill="#302925" fill-rule="evenodd" stroke="none"/>
    <path d="M70.9 23.25 L71.05 23.4 70.5 31.3 69.7 30.8 69.5 24.35 69.45 24.3 58.15 22.75 70.9 23.25" fill="#bea588" fill-rule="evenodd" stroke="none"/>
    <path d="M48.55 49.5 L61.15 44.0" fill="none" stroke="#000000" stroke-linecap="round" stroke-linejoin="round" stroke-width="0.05"/>
    <path d="M52.5 22.55 L52.0 21.6 62.6 19.9 71.1 23.3 58.35 22.8 52.5 22.55 M70.7 31.35 L70.6 33.2 69.1 32.5 69.9 30.85 70.7 31.35" fill="#cba652" fill-rule="evenodd" stroke="none"/>
    <path d="M70.6 33.2 L70.75 33.25 61.4 44.1 61.35 44.05 48.95 25.3 50.7 23.95 69.1 32.5 70.6 33.2" fill="#bf8e3b" fill-rule="evenodd" stroke="none"/>
    <path d="M61.4 44.1 L61.35 44.1 61.35 44.05 61.4 44.1" fill="#4d433a" fill-rule="evenodd" stroke="none"/>
    <path d="M61.35 44.05 L48.75 49.6 46.9 28.5 46.8 26.95 48.95 25.3 61.35 44.05" fill="#895f2c" fill-rule="evenodd" stroke="none"/>
    <path d="M40.35 45.7 L40.0 46.45 40.05 36.3 43.65 28.6 44.55 28.7 40.35 45.7" fill="#211d1b" fill-rule="evenodd" stroke="none"/>
    <path d="M44.55 28.7 L46.8 26.95 46.9 28.5 44.55 28.7" fill="#302925" fill-rule="evenodd" stroke="none"/>
    <path d="M48.75 49.6 L39.95 46.6 40.35 45.7 44.55 28.7 46.9 28.5 48.75 49.6" fill="#573c1c" fill-rule="evenodd" stroke="none"/>
    <path d="M58.35 22.8 L71.1 23.3 71.25 23.5 70.7 31.35 69.9 30.85 69.65 24.35 69.65 24.3 58.35 22.8" fill="#e3b61c" fill-rule="evenodd" stroke="none"/>
    <path d="M52.5 22.55 L58.35 22.8 69.65 24.3 69.65 24.35 69.9 30.85 69.1 32.5 50.7 23.95 52.5 22.55" fill="#d7a925" fill-rule="evenodd" stroke="none"/>
    <path d="M61.35 44.05 L48.75 49.6" fill="none" stroke="#000000" stroke-linecap="round" stroke-linejoin="round" stroke-width="0.05"/>
    <path d="M58.95 48.0 Q59.75 47.6 60.65 48.0 61.6 48.35 62.15 49.2 L62.6 49.9 Q63.15 50.8 63.05 51.65 62.9 52.45 62.15 52.8 L57.35 54.9 Q56.6 55.2 55.7 54.9 54.8 54.5 54.25 53.6 L53.8 52.95 Q53.15 52.05 53.3 51.25 53.45 50.4 54.25 50.05 L58.95 48.0" fill="#a46b35" fill-rule="evenodd" stroke="none"/>
    <path d="M31.3 29.3 L31.2 29.35 22.6 26.3 23.25 16.5 32.7 5.55 45.35 0.0 53.9 3.1 53.9 3.2 53.85 3.95 53.3 12.95 53.25 13.0 52.85 13.45 50.4 16.3 50.0 16.75 43.95 23.85 41.85 24.75 40.6 25.3 31.3 29.3" fill="#302925" fill-rule="evenodd" stroke="none"/>
    <path d="M34.25 33.85 L34.45 33.85 32.3 30.75 40.6 25.3 41.85 24.75 43.95 23.85 46.05 26.75 46.2 26.95 48.7 30.45 48.85 30.4 50.75 33.0 50.5 33.25 42.6 36.6 37.65 38.65 34.25 33.85" fill="#895f2c" fill-rule="evenodd" stroke="none"/>
    <path d="M34.45 33.85 L34.25 33.85 37.65 38.65 29.25 35.65 28.25 34.25 22.55 26.25 22.6 26.3 31.2 29.35 31.3 29.3 32.3 30.75 34.45 33.85" fill="#573c1c" fill-rule="evenodd" stroke="none"/>
    <path d="M32.3 30.75 L31.3 29.3 40.6 25.3 32.3 30.75 M50.8 32.95 L51.05 33.45 50.75 33.0 50.8 32.95 50.75 33.0 48.85 30.4 48.7 30.45 46.2 26.95 46.05 26.75 43.95 23.85 50.0 16.75 46.75 25.05 50.8 32.95" fill="#e3b61c" fill-rule="evenodd" stroke="none"/>
    <path d="M53.9 3.2 L60.2 11.95 60.2 12.0 60.45 12.5 60.45 13.0 53.85 3.95 53.9 3.2" fill="#6d5f54" fill-rule="evenodd" stroke="none"/>
    <path d="M60.45 13.0 L59.95 22.4 59.9 22.35 56.95 18.2 56.95 18.25 53.25 13.0 53.3 12.95 53.85 3.95 60.45 13.0 M58.65 23.85 L50.8 32.95 46.75 25.05 50.0 16.75 50.4 16.3 52.85 13.45 53.35 13.9 59.65 22.65 58.65 23.85" fill="#d7a925" fill-rule="evenodd" stroke="none"/>
    <path d="M53.25 13.0 L56.95 18.25 56.95 18.2 59.9 22.35 59.65 22.65 53.35 13.9 52.85 13.45 53.25 13.0" fill="#4d433a" fill-rule="evenodd" stroke="none"/>
    <path d="M42.6 36.6 L37.85 38.7 37.65 38.65 42.6 36.6" fill="#8e8e8e" fill-rule="evenodd" stroke="none"/>
    <path d="M34.45 33.85 L32.3 30.75 31.3 29.3 31.2 29.35 22.6 26.3 23.25 16.5 32.7 5.55 45.35 0.0 53.9 3.1 53.9 3.2 60.2 11.95 M22.55 26.25 L28.25 34.25 29.25 35.65 37.65 38.65 34.25 33.85 M60.2 12.0 L60.45 12.5 60.45 13.0 59.95 22.4 59.65 22.65 58.65 23.85 50.8 32.95 50.75 33.0 48.85 30.4 M50.75 33.0 L50.5 33.25 42.6 36.6 37.65 38.65 37.85 38.7 M53.9 3.2 L53.85 3.95 53.3 12.95 53.25 13.0 56.95 18.25 M48.7 30.45 L46.2 26.95 M46.05 26.75 L43.95 23.85 41.85 24.75 M56.95 18.2 L59.9 22.35 59.95 22.4 M53.25 13.0 L52.85 13.45 50.4 16.3 M50.0 16.75 L43.95 23.85 M40.6 25.3 L31.3 29.3" fill="none" stroke="#000000" stroke-linecap="round" stroke-linejoin="round" stroke-width="0.05"/>
    <path d="M50.4 16.3 L50.0 16.75 M46.2 26.95 L46.05 26.75 M41.85 24.75 L40.6 25.3" fill="none" stroke="#000000" stroke-linecap="round" stroke-linejoin="round" stroke-width="0.05"/>
    <path d="M53.85 3.95 L60.45 13.0 M53.35 13.9 L59.65 22.65" fill="none" stroke="#bea588" stroke-linecap="round" stroke-linejoin="round" stroke-width="0.05"/>
    <path d="M41.8 28.0 Q42.6 27.6 43.5 28.0 44.45 28.35 45.0 29.2 L45.45 29.9 Q46.0 30.8 45.9 31.65 45.75 32.45 45.0 32.8 L40.2 34.9 Q39.45 35.2 38.55 34.9 37.65 34.5 37.1 33.6 L36.65 32.95 Q36.0 32.05 36.15 31.25 36.3 30.4 37.1 30.05 L41.8 28.0" fill="#a46b35" fill-rule="evenodd" stroke="none"/>
    <path d="M53.35 14.15 L59.35 22.25 M54.45 5.05 L60.35 13.8 M70.4 33.8 L76.3 41.8 M71.25 24.45 L77.3 33.2" fill="none" stroke="#ffcc33" stroke-linecap="round" stroke-linejoin="round" stroke-width="1.0"/>
  </g>
</svg>
