<?xml version="1.0" encoding="UTF-8" standalone="no"?>
<svg xmlns:xlink="http://www.w3.org/1999/xlink" height="81.7px" width="89.25px" xmlns="http://www.w3.org/2000/svg">
  <g transform="matrix(1.0, 0.0, 0.0, 1.0, 11.25, -12.8)">
    <path d="M57.05 13.45 L52.0 14.45 51.75 14.45 48.9 14.45 39.1 14.55 39.05 14.4 45.05 14.4 45.2 13.7 Q46.1 13.2 47.35 13.3 L47.2 13.05 47.15 12.8 53.65 12.8 57.05 13.45 M15.4 14.7 L14.25 14.75 14.35 14.55 15.4 14.6 15.4 14.7" fill="#7d705b" fill-rule="evenodd" stroke="none"/>
    <path d="M62.0 18.55 L62.0 18.6 61.95 18.6 62.0 18.55 M62.05 41.3 L62.05 46.15 61.85 46.15 60.3 46.15 59.65 46.15 56.4 46.15 55.1 46.15 54.35 46.15 41.35 46.15 48.15 44.95 48.15 42.75 54.95 43.1 55.25 42.55 58.25 41.1 57.05 37.05 60.05 35.05 60.65 30.95 61.15 30.75 61.65 29.35 62.0 27.25 62.05 29.95 62.05 32.95 62.05 41.3 M59.45 22.55 L58.05 24.25 56.6 19.45 55.2 19.0 58.35 18.8 59.85 22.25 59.65 22.5 59.45 22.55 M55.45 27.25 Q54.75 28.05 54.85 29.05 L52.35 26.55 56.75 25.35 56.95 25.95 56.05 26.65 55.45 27.25 M22.7 22.3 L25.0 20.9 25.1 22.1 31.4 23.5 31.9 27.7 27.4 27.6 26.8 28.4 27.0 34.05 25.6 33.85 25.0 37.65 16.35 33.95 16.65 33.65 Q18.45 30.9 16.6 27.75 L16.2 26.7 Q16.0 25.6 16.05 24.5 L18.05 23.6 18.35 22.85 18.95 22.8 19.65 21.8 20.15 21.8 22.0 21.2 22.7 22.3 M34.4 32.05 L35.7 26.1 41.0 32.55 Q39.8 32.45 39.1 33.4 38.75 33.95 38.8 34.65 L34.4 32.05" fill="#15130f" fill-rule="evenodd" stroke="none"/>
    <path d="M48.9 14.45 L51.55 15.8 51.85 17.0 60.25 17.0 60.5 18.7 61.6 18.45 62.0 18.55 61.95 18.6 62.0 18.6 62.05 27.15 62.0 27.25 61.65 29.35 61.15 30.75 60.65 30.95 60.05 35.05 57.05 37.05 58.25 41.1 55.25 42.55 54.95 43.1 48.15 42.75 48.15 44.95 41.35 46.15 37.35 46.15 37.8 46.25 38.4 46.4 Q40.1 46.9 40.3 47.6 L40.3 47.75 40.25 47.7 40.0 48.3 39.85 48.4 39.85 48.45 38.0 47.7 Q38.0 48.05 36.8 48.3 L33.9 48.65 31.0 48.3 Q29.8 48.05 29.8 47.7 L29.85 47.65 29.8 47.65 27.75 48.45 Q27.5 48.2 27.55 47.85 L27.55 47.8 Q27.5 46.95 29.55 46.35 L30.45 46.15 18.0 46.15 17.35 45.75 17.35 44.95 15.25 44.55 Q15.4 43.4 14.45 42.75 L12.6 42.75 12.55 41.55 12.6 41.15 12.8 17.4 16.15 17.3 15.45 14.75 39.1 14.55 48.9 14.45 M59.45 22.55 L59.65 22.5 59.85 22.25 58.35 18.8 55.2 19.0 56.6 19.45 58.05 24.25 59.45 22.55 M55.45 27.25 L56.05 26.65 56.95 25.95 56.75 25.35 52.35 26.55 54.85 29.05 Q54.75 28.05 55.45 27.25 M41.6 45.3 L40.8 43.45 Q39.4 44.15 38.0 44.9 L41.6 45.3 38.0 44.9 Q39.4 44.15 40.8 43.45 L41.6 45.3 M22.7 22.3 L22.0 21.2 20.15 21.8 19.65 21.8 18.95 22.8 18.35 22.85 18.05 23.6 16.05 24.5 Q16.0 25.6 16.2 26.7 L16.6 27.75 Q18.45 30.9 16.65 33.65 L16.35 33.95 25.0 37.65 25.6 33.85 27.0 34.05 26.8 28.4 27.4 27.6 31.9 27.7 31.4 23.5 25.1 22.1 25.0 20.9 22.7 22.3 M10.65 24.5 L10.8 24.5 10.7 25.15 10.65 24.5 M34.4 32.05 L38.8 34.65 Q38.75 33.95 39.1 33.4 39.8 32.45 41.0 32.55 L35.7 26.1 34.4 32.05" fill="#302b23" fill-rule="evenodd" stroke="none"/>
    <path d="M72.75 33.7 L62.05 41.3 62.05 32.95 Q63.3 33.55 63.55 35.25 L63.55 35.55 64.45 36.15 64.35 36.75 65.85 36.75 65.95 35.95 67.1 35.75 67.35 36.1 67.4 36.25 69.2 35.45 Q69.45 34.2 71.2 34.35 L71.8 33.95 Q71.8 33.55 72.3 33.6 L72.75 33.7 M2.1 39.25 L-4.75 34.45 -1.9 34.5 -0.6 35.7 -0.2 36.25 2.1 37.3 2.4 36.55 2.45 36.4 4.5 36.55 6.25 36.25 6.85 35.85 Q7.15 35.5 7.05 34.95 7.25 34.65 7.75 34.7 L9.0 33.6 5.75 41.85 4.3 40.8 2.1 39.25 M62.0 27.25 L63.6 28.15 65.0 28.05 65.0 28.95 67.2 29.45 67.9 29.55 68.55 30.0 62.05 29.95 62.0 27.25 M10.5 29.85 L2.9 29.85 7.35 29.65 7.25 28.6 7.3 28.55 7.35 28.5 7.65 28.4 8.35 28.6 8.35 27.0 9.35 26.8 9.5 27.15 10.5 29.85" fill="#b1a476" fill-rule="evenodd" stroke="none"/>
    <path d="M62.0 27.25 L62.05 27.15 62.0 27.25" fill="#000000" fill-rule="evenodd" stroke="none"/>
    <path d="M62.0 18.6 L78.0 29.95 68.55 30.0 67.9 29.55 67.2 29.45 65.0 28.95 65.0 28.05 63.6 28.15 62.0 27.25 62.05 27.15 62.0 18.6 M33.9 57.45 L31.15 57.45 31.1 51.2 33.8 53.0 33.9 57.45 M-11.25 29.8 L2.85 19.7 5.9 17.55 8.95 25.65 9.15 26.25 9.35 26.8 8.35 27.0 8.35 28.6 7.65 28.4 7.35 28.5 7.3 28.55 7.25 28.6 7.35 29.65 2.9 29.85 -11.25 29.8 M31.1 60.25 L33.9 60.25 33.9 66.65 31.1 66.65 31.1 60.25 M38.45 59.45 L38.45 58.25 42.1 58.85 38.45 59.45 M29.85 58.25 L29.85 59.45 26.55 58.75 29.85 58.25 M38.35 67.5 L42.0 68.1 38.35 68.7 38.35 67.5 M29.15 68.6 L26.45 68.0 29.15 67.6 29.15 68.6 M33.8 75.95 L31.0 75.95 31.0 69.5 33.8 69.5 33.8 75.95 M38.55 77.9 L38.5 76.7 42.2 77.3 38.55 77.9 M29.95 76.7 L29.95 77.9 26.6 77.2 29.95 76.7 M31.25 78.7 L34.05 78.7 34.05 85.1 31.25 85.1 31.25 78.7 M30.15 87.15 L26.85 86.5 30.15 86.0 30.15 87.15 M38.75 85.95 L42.4 86.55 38.75 87.15 38.75 85.95 M34.35 94.5 L31.45 87.8 34.25 87.8 34.35 94.5" fill="#f2ecd9" fill-rule="evenodd" stroke="none"/>
    <path d="M78.0 29.95 L72.75 33.7 72.3 33.6 Q71.8 33.55 71.8 33.95 L71.2 34.35 Q69.45 34.2 69.2 35.45 L67.4 36.25 67.35 36.1 67.1 35.75 65.95 35.95 65.85 36.75 64.35 36.75 64.45 36.15 63.55 35.55 63.55 35.25 Q63.3 33.55 62.05 32.95 L62.05 29.95 68.55 30.0 78.0 29.95 M36.7 51.0 L36.7 57.45 33.9 57.45 33.8 53.0 31.1 51.2 31.1 51.05 33.8 51.2 36.7 51.0 M-4.75 34.45 L-11.25 29.8 2.9 29.85 10.5 29.85 10.3 30.35 9.0 33.6 7.75 34.7 Q7.25 34.65 7.05 34.95 7.15 35.5 6.85 35.85 L6.25 36.25 4.5 36.55 2.45 36.4 2.4 36.55 2.1 37.3 -0.2 36.25 -0.6 35.7 -1.9 34.5 -4.75 34.45 M33.9 60.25 L36.7 60.2 36.7 66.65 33.9 66.65 33.9 60.25 M33.8 69.5 L36.6 69.5 36.6 75.95 33.8 75.95 33.8 69.5 M34.05 78.7 L36.8 78.65 36.85 85.1 34.05 85.1 34.05 78.7 M34.25 87.8 L37.0 87.8 34.35 94.5 34.25 87.8" fill="#cdc4a7" fill-rule="evenodd" stroke="none"/>
    <path d="M10.8 15.7 L10.75 15.7 10.75 15.6 10.8 15.7 M7.4 43.95 L7.35 43.95 7.35 43.9 7.4 43.95" fill="#675c4b" fill-rule="evenodd" stroke="none"/>
    <path d="M61.85 46.15 L63.0 51.6 61.95 52.5 38.2 50.65 38.35 50.4 41.6 49.3 61.45 51.0 60.3 46.15 61.85 46.15 M29.6 50.75 L12.25 52.8 9.5 52.35 10.3 48.55 3.3 48.05 1.5 46.95 2.4 42.75 2.85 42.9 3.15 43.05 3.2 42.95 3.0 46.95 10.55 47.35 10.7 46.75 10.8 45.85 10.8 45.65 11.15 45.85 11.1 45.95 11.75 46.15 12.0 46.15 11.35 50.25 14.25 51.6 27.0 49.4 29.25 50.35 29.6 50.75 M45.2 48.9 L45.15 48.9 40.2 48.5 40.25 48.2 41.1 47.9 55.35 46.9 55.1 46.15 56.4 46.15 56.55 46.75 56.05 47.6 45.2 48.9 M12.75 48.75 L12.95 47.65 26.4 48.25 27.25 48.75 19.5 49.25 12.75 48.75" fill="#ecc733" fill-rule="evenodd" stroke="none"/>
    <path d="M45.15 48.9 L45.2 48.9 60.35 49.85 59.65 46.15 60.3 46.15 61.45 51.0 41.6 49.3 38.35 50.4 39.55 48.6 39.85 48.45 39.85 48.4 40.2 48.5 45.15 48.9 M55.1 46.15 L55.35 46.9 41.1 47.9 40.25 48.2 40.25 47.7 40.3 47.75 40.3 47.6 54.4 46.45 54.35 46.15 55.1 46.15 M3.2 42.95 L3.85 43.3 4.0 43.35 3.6 46.3 10.7 46.75 10.55 47.35 3.0 46.95 3.2 42.95 M27.55 47.8 L27.55 47.85 27.45 48.7 27.9 48.55 28.05 48.65 29.25 50.35 27.0 49.4 14.25 51.6 11.35 50.25 12.0 46.15 13.25 46.15 13.1 46.9 27.5 47.8 27.55 47.8 M19.5 49.25 L27.25 48.75 26.4 48.25 12.95 47.65 12.75 48.75 12.5 49.8 19.5 49.25" fill="#a4860f" fill-rule="evenodd" stroke="none"/>
    <path d="M39.85 48.45 L39.55 48.6 39.3 48.7 38.3 49.15 33.9 49.65 29.7 49.2 28.5 48.85 28.05 48.65 27.9 48.55 27.75 48.45 29.8 47.65 29.8 47.7 Q29.8 48.05 31.0 48.3 L33.9 48.65 36.8 48.3 Q38.0 48.05 38.0 47.7 L39.85 48.45" fill="#615423" fill-rule="evenodd" stroke="none"/>
    <path d="M38.2 50.65 L38.15 50.7 36.7 51.0 33.8 51.2 31.1 51.05 29.6 50.75 29.25 50.35 28.05 48.65 28.5 48.85 29.7 49.2 33.9 49.65 38.3 49.15 39.3 48.7 39.55 48.6 38.35 50.4 38.2 50.65 M40.2 48.5 L39.85 48.4 40.0 48.3 40.25 47.7 40.25 48.2 40.2 48.5 M27.55 47.85 Q27.5 48.2 27.75 48.45 L27.9 48.55 27.45 48.7 27.55 47.85 M38.45 58.25 L38.45 59.45 29.85 59.45 29.85 58.25 38.45 58.25 M29.15 67.6 L29.75 67.5 38.35 67.5 38.35 68.7 29.75 68.7 29.15 68.6 29.15 67.6 M38.5 76.7 L38.55 77.9 29.95 77.9 29.95 76.7 38.5 76.7 M30.15 87.15 L30.15 86.0 38.75 85.95 38.75 87.15 30.15 87.15" fill="#897832" fill-rule="evenodd" stroke="none"/>
    <path d="M2.4 42.75 L2.1 42.65 2.1 39.25 4.3 40.8 7.1 44.05 7.25 43.9 7.35 43.9 7.35 43.95 7.4 43.95 11.95 38.55 12.1 38.4 12.25 38.3 12.35 38.25 10.65 32.85 10.3 30.35 10.5 29.85 9.5 27.15 9.35 26.8 9.15 26.25 8.95 25.65 5.9 17.55 2.85 19.7 2.75 12.85 12.25 14.6 10.8 15.7 10.75 15.6 7.25 15.2 9.3 17.65 8.55 19.3 10.35 20.3 10.45 24.3 10.6 24.5 10.65 24.5 10.7 25.15 10.8 24.5 10.85 23.8 11.85 22.8 11.0 17.4 12.8 17.4 12.6 41.15 12.55 41.55 12.6 42.75 12.6 43.9 11.15 45.85 10.8 45.65 10.8 45.85 6.3 44.2 5.5 43.9 3.85 43.3 3.2 42.95 3.15 43.05 2.85 42.9 2.4 42.75" fill="#7a6c58" fill-rule="evenodd" stroke="none"/>
    <path d="M2.75 12.85 L39.9 12.8 39.05 14.4 39.1 14.55 15.45 14.75 15.4 14.7 15.4 14.6 15.95 14.1 15.95 14.05 14.55 13.65 13.05 13.7 12.25 14.6 2.75 12.85" fill="#97886f" fill-rule="evenodd" stroke="none"/>
    <path d="M39.9 12.8 L47.15 12.8 47.2 13.05 47.35 13.3 Q46.1 13.2 45.2 13.7 L45.05 14.4 39.05 14.4 39.9 12.8 M14.25 14.75 L12.85 14.7 12.25 14.6 13.05 13.7 14.55 13.65 15.95 14.05 15.95 14.1 15.4 14.6 14.35 14.55 14.25 14.75" fill="#564d3f" fill-rule="evenodd" stroke="none"/>
    <path d="M57.05 13.45 L62.1 14.4 62.0 18.6 62.0 18.55 61.6 18.45 60.5 18.7 60.25 17.0 51.85 17.0 51.55 15.8 48.9 14.45 51.75 14.45 52.0 14.45 57.05 13.45 M10.45 24.3 L10.35 20.3 8.55 19.3 9.3 17.65 7.25 15.2 10.75 15.6 10.75 15.7 10.8 15.7 12.25 14.6 12.85 14.7 14.25 14.75 15.4 14.7 15.45 14.75 16.15 17.3 12.8 17.4 11.0 17.4 11.85 22.8 10.85 23.8 10.8 24.5 10.65 24.5 10.6 24.5 10.45 24.3 M10.3 30.35 L10.65 32.85 12.35 38.25 12.25 38.3 12.1 38.4 11.95 38.55 7.4 43.95 7.35 43.9 7.25 43.9 7.1 44.05 4.3 40.8 5.75 41.85 9.0 33.6 10.3 30.35 M11.15 45.85 L12.6 43.9 12.6 42.75 14.45 42.75 Q15.4 43.4 15.25 44.55 L17.35 44.95 17.35 45.75 18.0 46.15 13.25 46.15 12.0 46.15 11.75 46.15 11.1 45.95 11.15 45.85" fill="#514739" fill-rule="evenodd" stroke="none"/>
    <path d="M39.85 48.4 L39.85 48.45 M40.3 47.6 L40.3 47.75 40.25 47.7 M62.05 27.15 L62.0 27.25 M15.45 14.75 L15.4 14.7 M29.85 47.65 L29.8 47.7 M27.5 47.8 L27.55 47.8 27.5 47.8 M27.9 48.55 L27.75 48.45" fill="none" stroke="#000000" stroke-linecap="round" stroke-linejoin="round" stroke-width="0.05"/>
    <path d="M38.2 50.65 L38.15 50.7 M45.2 48.9 L45.15 48.9 M29.8 47.65 L29.85 47.65" fill="none" stroke="#000000" stroke-linecap="round" stroke-linejoin="round" stroke-width="0.05"/>
    <path d="M36.7 51.0 L36.7 57.45 M31.15 57.45 L31.1 51.2 M36.7 60.2 L36.7 66.65 M31.1 66.65 L31.1 60.25 M36.6 69.5 L36.6 75.95 M31.0 75.95 L31.0 69.5 M36.8 78.65 L36.85 85.1 M31.25 85.1 L31.25 78.7 M34.35 94.5 L31.45 87.8 M37.0 87.8 L34.35 94.5" fill="none" stroke="#cdc4a7" stroke-linecap="round" stroke-linejoin="round" stroke-width="0.05"/>
    <path d="M41.6 45.3 L38.0 44.9 Q39.4 44.15 40.8 43.45 L41.6 45.3 M10.45 24.3 L10.6 24.5 10.65 24.5 10.7 25.15 M15.95 14.05 L15.95 14.1 M12.35 38.25 L12.25 38.3 12.1 38.4 11.95 38.55 M7.4 43.95 L7.35 43.95 7.35 43.9 7.25 43.9 7.1 44.05" fill="none" stroke="#211d0c" stroke-linecap="round" stroke-linejoin="round" stroke-width="0.05"/>
    <path d="M38.15 50.7 L36.7 51.0 M31.1 51.2 L31.1 51.05 29.6 50.75" fill="none" stroke="#897832" stroke-linecap="round" stroke-linejoin="round" stroke-width="0.05"/>
  </g>
</svg>
