<?xml version="1.0" encoding="UTF-8" standalone="no"?>
<svg xmlns:xlink="http://www.w3.org/1999/xlink" height="58.8px" width="28.9px" xmlns="http://www.w3.org/2000/svg">
  <g transform="matrix(1.0, 0.0, 0.0, 1.0, -6.9, 26.0)">
    <path d="M31.5 -26.0 L31.75 -20.05 31.3 -15.15 30.65 -11.65 29.55 -7.15 29.25 -7.2 Q28.35 -7.8 27.55 -8.35 L26.95 -8.8 26.7 -9.0 24.8 -10.6 23.1 -12.35 23.95 -14.85 Q24.95 -17.45 26.65 -19.85 L27.85 -21.5 27.9 -21.65 29.0 -23.2 30.4 -24.75 31.5 -26.0 M35.65 -6.7 L35.8 -5.4 35.65 -6.0 35.65 -6.7" fill="#ffffff" fill-rule="evenodd" stroke="none"/>
    <path d="M23.95 8.45 L22.15 7.95 23.1 7.8 23.95 8.45 M13.7 -18.0 L14.4 -18.7 14.3 -18.05 14.3 -18.0 13.7 -18.0 M21.75 -19.35 L22.05 -19.7 Q26.65 -25.15 31.5 -26.0 L30.4 -24.75 29.0 -23.2 27.9 -21.65 27.85 -21.5 26.65 -19.85 Q24.95 -17.45 23.95 -14.85 L23.1 -12.35 21.25 -14.75 21.15 -14.85 19.95 -16.9 21.75 -19.35 M27.25 -2.25 L27.25 -2.3 26.75 -3.95 26.75 -4.0 28.75 -3.5 27.25 -2.25 M22.1 7.95 L22.15 7.95 22.1 7.95" fill="#e1e3f2" fill-rule="evenodd" stroke="none"/>
    <path d="M30.65 -11.65 L32.35 -9.95 35.65 -6.7 35.65 -6.0 35.6 -6.0 34.7 -5.65 34.45 -5.55 32.2 -4.75 30.3 -4.05 30.25 -4.05 28.3 -5.15 30.25 -4.05 28.75 -3.5 26.75 -4.0 25.85 -4.95 19.2 -12.5 19.15 -12.5 14.3 -18.0 14.3 -18.05 14.4 -18.7 15.05 -18.8 21.25 -19.8 21.75 -19.35 19.95 -16.9 21.15 -14.85 21.25 -14.75 23.1 -12.35 24.8 -10.6 26.7 -9.0 26.95 -8.8 27.55 -8.35 Q28.35 -7.8 29.25 -7.2 L29.5 -7.0 29.55 -7.1 29.55 -7.15 30.65 -11.65 M17.5 -16.85 L19.95 -16.9 17.5 -16.85 15.05 -18.8 17.5 -16.85 M20.9 -14.75 L19.2 -12.5 20.9 -14.75 M28.3 -5.15 L25.85 -4.95 28.3 -5.15 M29.5 -7.0 L32.2 -4.75 29.5 -7.0 M32.35 -9.95 L31.9 -8.15 32.35 -9.95 M31.9 -8.15 L34.45 -5.55 31.9 -8.15" fill="#b3b8c6" fill-rule="evenodd" stroke="none"/>
    <path d="M12.9 -8.65 L13.15 -11.75 13.3 -8.65 12.9 -8.65 M29.25 -7.2 L29.55 -7.15 29.55 -7.1 29.5 -7.0 29.25 -7.2 M15.5 -6.55 L16.0 -6.65 15.55 -6.35 15.5 -6.55 M18.15 -5.15 L18.2 -5.15 Q18.15 -4.2 18.6 -3.0 L18.7 -2.8 18.6 -2.85 18.35 -3.1 18.05 -3.85 18.0 -4.15 Q17.85 -4.65 18.15 -5.15 M25.6 0.9 L25.9 0.9 25.9 0.95 25.9 1.0 25.6 0.9 M23.95 5.7 L23.55 5.55 24.05 5.5 23.95 5.7 M34.7 -5.65 L34.6 -5.45 34.45 -5.55 34.7 -5.65 M35.65 -6.0 L35.8 -5.4 35.6 -6.0 35.65 -6.0" fill="#d4d0c8" fill-rule="evenodd" stroke="none"/>
    <path d="M35.8 -5.4 L33.6 -1.0 31.0 4.2 30.25 5.75 29.35 6.6 28.75 6.85 25.45 7.9 23.95 8.45 23.1 7.8 23.95 5.7 24.05 5.5 25.9 1.0 25.95 0.95 25.95 0.9 27.25 -2.25 28.75 -3.5 30.25 -4.05 30.3 -4.05 32.2 -4.75 34.45 -5.55 34.6 -5.45 32.15 -0.75 33.6 -1.0 32.15 -0.75 34.6 -5.45 34.7 -5.65 35.6 -6.0 35.8 -5.4 M30.25 -4.05 L28.5 0.15 25.95 0.95 28.5 0.15 30.25 -4.05 M25.45 7.9 L27.05 5.25 24.05 5.5 27.05 5.25 25.45 7.9 M28.75 6.85 L29.2 4.25 31.0 4.2 29.2 4.25 28.75 6.85" fill="#576075" fill-rule="evenodd" stroke="none"/>
    <path d="M15.75 -1.55 L15.25 -2.25 12.95 -5.65 12.7 -6.5 12.9 -8.65 13.3 -8.65 13.15 -11.75 13.7 -18.0 14.3 -18.0 19.15 -12.5 18.55 -10.6 15.85 -10.5 18.55 -10.6 19.15 -12.5 19.2 -12.5 25.85 -4.95 24.3 -3.0 25.85 -4.95 26.75 -4.0 26.75 -3.95 27.25 -2.3 27.25 -2.25 25.95 0.9 25.9 0.9 25.6 0.9 22.5 1.85 25.6 0.9 25.9 1.0 24.05 5.5 23.55 5.55 23.95 5.7 23.1 7.8 22.15 7.95 22.1 7.95 18.4 2.4 18.6 2.3 18.4 -1.6 18.6 2.3 18.3 2.3 15.75 -1.55 M15.85 -10.5 L16.0 -6.65 15.85 -10.5 M16.0 -6.65 L15.5 -6.55 15.55 -6.35 16.0 -6.65 17.45 -7.6 19.1 -6.0 17.45 -7.6 16.0 -6.65 M20.15 -4.7 L20.05 -5.05 19.8 -5.55 19.4 -5.9 19.1 -6.0 19.05 -6.0 18.65 -5.85 18.5 -5.75 18.3 -5.5 18.15 -5.15 Q17.85 -4.65 18.0 -4.15 L18.05 -3.85 18.35 -3.1 18.6 -2.85 18.7 -2.8 18.95 -2.65 19.2 -2.65 19.4 -2.7 19.7 -2.9 19.9 -3.15 20.15 -3.7 20.2 -4.35 20.15 -4.7 22.95 -4.8 20.15 -4.7 M24.3 -3.0 L23.0 -2.95 22.95 -4.8 23.0 -2.95 24.3 -3.0 M14.85 -9.2 L15.5 -6.55 14.85 -9.2 13.3 -8.65 14.85 -9.2 M15.95 -4.9 L18.0 -4.15 15.95 -4.9 16.05 -2.3 15.95 -4.9 M15.25 -2.25 L16.05 -2.3 15.25 -2.25 M20.85 0.45 L20.15 -1.65 19.7 -2.9 20.15 -1.65 20.85 0.45 22.45 0.35 22.5 1.85 22.45 0.35 20.85 0.45 M18.4 -1.6 L20.15 -1.65 18.4 -1.6 M22.5 1.85 L22.65 5.15 23.55 5.55 22.65 5.15 22.5 1.85" fill="#8189a0" fill-rule="evenodd" stroke="none"/>
    <path d="M19.1 -6.0 L19.4 -5.9 19.8 -5.55 20.05 -5.05 20.15 -4.7 20.2 -4.35 20.15 -3.7 19.9 -3.15 19.7 -2.9 19.4 -2.7 19.2 -2.65 18.95 -2.65 19.2 -2.95 19.3 -3.85 19.25 -4.3 19.15 -4.55 18.8 -4.9 18.5 -5.35 18.5 -5.6 18.65 -5.85 19.05 -6.0 19.1 -6.0" fill="#666666" fill-rule="evenodd" stroke="none"/>
    <path d="M18.65 -5.85 L18.5 -5.6 18.5 -5.35 18.8 -4.9 19.15 -4.55 19.25 -4.3 19.3 -3.85 19.2 -2.95 18.95 -2.65 18.7 -2.8 18.6 -3.0 Q18.15 -4.2 18.2 -5.15 L18.15 -5.15 18.3 -5.5 18.5 -5.75 18.65 -5.85" fill="#999999" fill-rule="evenodd" stroke="none"/>
    <path d="M25.9 0.95 L25.95 0.95 25.9 1.0 25.9 0.95" fill="#b0b5c4" fill-rule="evenodd" stroke="none"/>
    <path d="M12.65 17.75 L12.65 17.7 15.25 1.4 18.95 6.55 15.45 19.65 Q14.5 20.05 12.5 18.55 L12.5 18.5 12.65 17.75 M18.6 2.3 L18.4 2.4 18.3 2.3 18.6 2.3" fill="#353e7b" fill-rule="evenodd" stroke="none"/>
    <path d="M22.15 7.95 L17.55 18.75 16.7 20.45 16.15 20.75 15.15 20.75 Q13.7 20.45 12.5 18.55 14.5 20.05 15.45 19.65 L18.95 6.55 15.25 1.4 15.75 -1.55 18.3 2.3 18.4 2.4 22.1 7.95 22.15 7.95" fill="#22274f" fill-rule="evenodd" stroke="none"/>
    <path d="M17.55 18.75 Q18.05 18.85 18.1 19.6 18.1 20.35 17.35 21.4 L17.25 21.5 16.75 21.95 16.4 22.1 16.15 22.1 15.75 22.15 Q14.0 22.25 12.25 20.2 L12.1 20.0 11.65 19.15 11.7 18.9 Q11.85 17.9 12.65 17.75 L12.5 18.5 12.5 18.55 Q13.7 20.45 15.15 20.75 L16.15 20.75 16.7 20.45 17.55 18.75" fill="#000066" fill-rule="evenodd" stroke="none"/>
    <path d="M17.25 21.5 L16.95 22.15 16.4 22.1 16.75 21.95 17.25 21.5 M16.75 22.55 L16.45 23.15 16.45 22.9 16.4 22.85 16.75 22.55 M16.25 23.6 L16.05 23.95 16.05 23.55 16.25 23.6 M15.6 24.85 L15.25 25.6 15.25 25.35 15.35 24.85 15.6 24.85 M14.95 26.25 L14.85 26.5 14.45 26.5 14.45 26.45 14.95 26.25 M14.25 27.7 L14.15 27.85 13.6 27.85 13.85 27.75 14.1 27.7 14.25 27.7 M12.95 29.75 L12.7 29.9 12.4 30.05 11.6 30.05 11.4 30.05 11.1 29.8 12.7 29.75 12.95 29.75 M10.65 28.95 L10.65 28.85 10.55 28.55 10.55 28.5 10.3 28.3 10.2 28.25 10.15 28.4 9.85 30.8 9.35 29.05 9.0 29.05 9.65 27.55 9.5 27.25 10.6 27.95 9.5 27.25 9.3 27.1 10.65 27.6 10.65 27.45 10.75 26.5 10.9 25.35 10.95 24.85 11.15 23.3 12.7 23.5 Q13.35 24.2 14.35 24.3 L14.5 24.35 14.5 24.5 13.75 24.5 12.45 23.65 11.5 23.8 12.45 24.35 12.45 24.55 11.9 24.7 12.1 24.95 13.05 25.0 13.15 25.0 13.75 25.0 13.15 25.1 13.05 25.1 12.3 25.3 11.95 25.7 12.2 26.1 12.7 26.35 12.65 26.4 12.1 26.25 11.7 26.05 11.15 26.05 11.95 26.65 10.95 26.7 10.75 26.5 10.95 26.7 Q11.6 27.35 12.4 27.65 L11.6 27.65 11.6 27.9 11.4 27.9 11.4 28.25 11.55 28.5 11.4 28.6 11.35 28.65 10.65 28.05 10.65 28.95 M11.15 23.25 L11.35 22.0 11.65 19.15 12.1 20.0 12.2 20.25 12.25 20.2 Q14.0 22.25 15.75 22.15 L15.35 22.35 14.5 22.35 14.3 22.3 14.2 22.3 13.05 21.75 13.4 22.3 13.3 22.35 Q12.55 21.65 12.35 20.8 L12.2 20.25 12.55 22.1 12.55 22.35 12.05 22.15 12.05 22.8 12.3 23.1 11.35 22.6 11.7 22.95 11.15 23.25 M12.05 22.8 L11.35 22.0 12.05 22.8 M10.95 24.85 L12.1 24.95 10.95 24.85 M10.9 25.35 L11.7 26.05 10.9 25.35 M9.25 27.6 L8.3 28.7 Q8.75 29.05 8.9 29.8 L8.55 29.8 8.25 29.3 8.15 29.3 8.15 28.5 9.25 27.6 M10.6 27.95 L10.6 28.0 10.55 28.5 10.6 28.0 10.6 27.95 10.65 27.6 10.6 27.95 M10.65 28.05 L10.6 28.0 10.65 28.05 M10.65 27.45 L11.4 28.6 10.65 27.45" fill="#8b9dbe" fill-rule="evenodd" stroke="none"/>
    <path d="M16.95 22.15 L16.75 22.55 16.4 22.85 15.15 23.2 14.5 23.15 15.1 23.4 16.05 23.55 15.1 23.4 14.5 23.15 15.15 23.2 16.4 22.85 16.45 22.9 16.45 23.15 16.25 23.6 16.05 23.55 16.05 23.95 15.85 24.35 15.6 24.85 15.35 24.85 15.25 25.35 15.25 25.6 15.15 25.8 14.95 26.25 14.45 26.45 14.45 26.5 14.85 26.5 14.25 27.7 14.1 27.7 13.85 27.75 13.6 27.85 12.45 27.65 12.4 27.65 12.45 27.65 13.6 27.85 14.15 27.85 13.5 29.2 13.1 29.65 13.05 29.7 13.0 29.75 12.95 29.75 12.7 29.75 11.1 29.8 11.05 29.75 10.8 29.25 10.75 29.15 10.65 29.0 10.65 28.95 10.65 28.05 11.35 28.65 11.4 28.6 11.55 28.5 11.4 28.25 11.4 27.9 11.6 27.9 11.6 27.65 12.4 27.65 Q11.6 27.35 10.95 26.7 L11.95 26.65 11.15 26.05 11.7 26.05 12.1 26.25 12.65 26.4 12.7 26.35 12.2 26.1 11.95 25.7 12.3 25.3 13.05 25.1 13.15 25.1 13.75 25.0 13.15 25.0 13.05 25.0 12.1 24.95 11.9 24.7 12.45 24.55 12.45 24.35 11.5 23.8 12.45 23.65 13.75 24.5 14.5 24.5 14.5 24.35 14.35 24.3 Q13.35 24.2 12.7 23.5 L12.3 23.1 12.7 23.5 11.15 23.3 11.15 23.25 11.7 22.95 11.35 22.6 12.3 23.1 12.05 22.8 12.05 22.15 12.55 22.35 12.55 22.1 12.2 20.25 12.1 20.0 12.25 20.2 12.2 20.25 12.35 20.8 Q12.55 21.65 13.3 22.35 L13.4 22.3 13.05 21.75 14.2 22.3 14.3 22.3 14.5 22.35 15.35 22.35 15.75 22.15 16.15 22.1 16.4 22.1 16.95 22.15 M12.4 30.05 L11.85 30.2 11.4 30.05 11.6 30.05 12.4 30.05 M10.55 28.55 Q10.35 28.9 10.3 29.3 L10.3 30.5 10.3 31.65 Q10.3 32.3 10.95 32.3 10.65 32.3 10.5 32.8 L10.2 32.55 Q9.9 32.05 9.3 31.7 L8.65 32.4 8.95 30.5 Q8.2 30.65 8.4 31.0 L6.9 31.05 Q7.65 29.75 7.8 28.25 L9.3 27.1 9.5 27.25 9.65 27.55 9.0 29.05 9.35 29.05 9.85 30.8 10.15 28.4 10.2 28.25 10.3 28.3 10.55 28.5 10.55 28.55 M15.85 24.35 L14.5 24.35 15.85 24.35 M14.5 23.15 L13.55 22.6 13.3 22.35 13.55 22.6 14.5 23.15 M13.2 26.5 L12.7 26.4 12.65 26.4 12.7 26.4 13.2 26.5 M15.35 24.85 L15.1 24.85 13.75 25.0 15.1 24.85 15.35 24.85 M13.1 29.65 L12.45 29.4 11.8 28.95 12.45 29.4 13.1 29.65 M9.25 27.6 L9.5 27.25 9.25 27.6 8.15 28.5 8.15 29.3 8.25 29.3 8.55 29.8 8.9 29.8 Q8.75 29.05 8.3 28.7 L9.25 27.6 M8.95 30.5 L8.95 30.4 8.9 29.8 8.95 30.4 8.95 30.5" fill="#b0d5ea" fill-rule="evenodd" stroke="none"/>
    <path d="M31.5 -26.0 L31.75 -20.05 31.3 -15.15 30.65 -11.65 32.35 -9.95 35.65 -6.7 35.8 -5.4 33.6 -1.0 31.0 4.2 30.25 5.75 29.35 6.6 28.75 6.85 25.45 7.9 23.95 8.45 22.15 7.95 22.1 7.95 22.15 7.95 M18.1 19.6 Q18.1 20.35 17.35 21.4 L17.25 21.5 16.95 22.15 16.75 22.55 16.45 23.15 16.25 23.6 16.05 23.95 15.85 24.35 15.6 24.85 15.25 25.6 M15.15 25.8 L14.95 26.25 14.85 26.5 14.25 27.7 14.15 27.85 13.5 29.2 M15.75 -1.55 L15.25 -2.25 12.95 -5.65 12.7 -6.5 12.9 -8.65 13.15 -11.75 13.7 -18.0 14.4 -18.7 15.05 -18.8 21.25 -19.8 21.75 -19.35 22.05 -19.7 Q26.65 -25.15 31.5 -26.0 M14.3 -18.0 L14.3 -18.05 M19.2 -12.5 L19.15 -12.5 M16.0 -6.65 L17.45 -7.6 19.1 -6.0 19.4 -5.9 19.8 -5.55 20.05 -5.05 20.15 -4.7 22.95 -4.8 M16.0 -6.65 L15.55 -6.35 M19.05 -6.0 L19.1 -6.0 M18.65 -5.85 L18.5 -5.75 18.3 -5.5 18.15 -5.15 Q17.85 -4.65 18.0 -4.15 L15.95 -4.9 M18.7 -2.8 L18.95 -2.65 19.2 -2.65 19.4 -2.7 19.7 -2.9 19.9 -3.15 20.15 -3.7 20.2 -4.35 20.15 -4.7 M18.7 -2.8 L18.6 -2.85 18.35 -3.1 18.05 -3.85 18.0 -4.15 M18.65 -5.85 L19.05 -6.0 M19.7 -2.9 L20.15 -1.65 20.85 0.45 M25.6 0.9 L25.9 0.9 25.95 0.9 25.9 0.95 25.95 0.95 M27.25 -2.25 L27.25 -2.3 M26.75 -3.95 L26.75 -4.0 M30.25 -4.05 L30.3 -4.05 30.25 -4.05 M20.15 -1.65 L18.4 -1.6 M18.4 2.4 L22.1 7.95 M29.55 -7.15 L29.55 -7.1 29.5 -7.0 M34.7 -5.65 L34.45 -5.55 M35.65 -6.0 L35.8 -5.4 M35.6 -6.0 L35.65 -6.0 35.65 -6.7 M25.9 0.95 L25.9 1.0 M23.95 5.7 L24.05 5.5 M18.3 2.3 L15.75 -1.55 M12.5 18.5 L12.5 18.55 Q13.7 20.45 15.15 20.75 L16.15 20.75 16.7 20.45 17.55 18.75 M12.25 20.2 L12.1 20.0 M15.75 22.15 Q14.0 22.25 12.25 20.2 M15.75 22.15 L16.15 22.1 16.4 22.1 16.75 21.95 17.25 21.5" fill="none" stroke="#333333" stroke-linecap="round" stroke-linejoin="round" stroke-width="0.05"/>
    <path d="M17.5 -16.85 L15.05 -18.8 M15.85 -10.5 L18.55 -10.6 19.15 -12.5 M24.3 -3.0 L25.85 -4.95 28.3 -5.15 M14.85 -9.2 L13.3 -8.65 13.15 -11.75 M16.05 -2.3 L15.25 -2.25 M22.5 1.85 L25.6 0.9 M23.55 5.55 L22.65 5.15 22.5 1.85 M31.9 -8.15 L32.35 -9.95" fill="none" stroke="#00ccff" stroke-linecap="round" stroke-linejoin="round" stroke-width="0.05"/>
    <path d="M19.2 -12.5 L20.9 -14.75 M19.95 -16.9 L17.5 -16.85 M28.3 -5.15 L30.25 -4.05 28.5 0.15 25.95 0.95 M32.2 -4.75 L29.5 -7.0 M34.6 -5.45 L32.15 -0.75 33.6 -1.0 M34.6 -5.45 L34.7 -5.65 M34.45 -5.55 L31.9 -8.15 M24.05 5.5 L27.05 5.25 25.45 7.9 M31.0 4.2 L29.2 4.25 28.75 6.85" fill="none" stroke="#b3ffff" stroke-linecap="round" stroke-linejoin="round" stroke-width="0.05"/>
    <path d="M16.0 -6.65 L15.85 -10.5 M22.95 -4.8 L23.0 -2.95 24.3 -3.0 M15.55 -6.35 L15.5 -6.55 14.85 -9.2 M15.95 -4.9 L16.05 -2.3 M20.85 0.45 L22.45 0.35 22.5 1.85 M18.4 -1.6 L18.6 2.3" fill="none" stroke="#0033ff" stroke-linecap="round" stroke-linejoin="round" stroke-width="0.05"/>
    <path d="M22.15 7.95 L17.55 18.75 Q18.05 18.85 18.1 19.6 M13.5 29.2 L13.1 29.65 13.05 29.7 M13.0 29.75 L12.95 29.75 12.7 29.9 12.4 30.05 11.85 30.2 11.4 30.05 11.1 29.8 M10.65 28.85 L10.55 28.55 M10.65 27.6 L10.65 27.45 10.75 26.5 10.9 25.35 10.95 24.85 11.15 23.3 11.15 23.25 11.35 22.0 11.65 19.15 11.7 18.9 Q11.85 17.9 12.65 17.75 L12.65 17.7 15.25 1.4 15.75 -1.55 M12.65 17.75 L12.5 18.5 M10.55 28.5 L10.6 28.0 10.6 27.95 10.65 27.6" fill="none" stroke="#333333" stroke-linecap="round" stroke-linejoin="round" stroke-width="0.05"/>
    <path d="M12.1 20.0 L11.65 19.15 M16.4 22.85 L16.75 22.55 M12.7 29.75 L12.95 29.75" fill="none" stroke="#0000cc" stroke-linecap="round" stroke-linejoin="round" stroke-width="0.05"/>
    <path d="M10.55 28.55 Q10.35 28.9 10.3 29.3 L10.3 30.5 10.3 31.65 Q10.3 32.3 10.95 32.3 10.65 32.3 10.5 32.8 L10.2 32.55 Q9.9 32.05 9.3 31.7 L8.65 32.4 8.95 30.5 Q8.2 30.65 8.4 31.0 L6.9 31.05 Q7.65 29.75 7.8 28.25 L9.3 27.1 M12.1 20.0 L12.2 20.25 12.35 20.8 Q12.55 21.65 13.3 22.35 L13.55 22.6 14.5 23.15 15.1 23.4 16.05 23.55 16.25 23.6 M12.05 22.8 L12.3 23.1 12.7 23.5 Q13.35 24.2 14.35 24.3 L14.5 24.35 15.85 24.35 M11.35 22.0 L12.05 22.8 M16.4 22.85 L15.15 23.2 14.5 23.15 M12.7 23.5 L11.15 23.3 M15.35 24.85 L15.6 24.85 M12.1 24.95 L10.95 24.85 M12.65 26.4 L12.7 26.4 13.2 26.5 M13.75 25.0 L15.1 24.85 15.35 24.85 M14.45 26.45 L14.95 26.25 M11.7 26.05 L12.1 26.25 12.65 26.4 M10.75 26.5 L10.95 26.7 Q11.6 27.35 12.4 27.65 L12.45 27.65 13.6 27.85 14.15 27.85 M11.7 26.05 L10.9 25.35 M11.8 28.95 L12.45 29.4 13.1 29.65 M10.55 28.55 L10.55 28.5 M9.5 27.25 L9.25 27.6 8.3 28.7 Q8.75 29.05 8.9 29.8 L8.95 30.4 8.95 30.5 M11.1 29.8 L12.7 29.75 M11.4 28.6 L10.65 27.45" fill="none" stroke="#353e7b" stroke-linecap="round" stroke-linejoin="round" stroke-width="0.05"/>
    <path d="M15.25 25.6 L15.15 25.8 M13.05 29.7 L13.0 29.75 M14.3 22.3 L14.5 22.35 M12.55 22.1 L12.55 22.35 M10.6 28.0 L10.65 28.05 M14.25 30.5 L13.9 30.5" fill="none" stroke="#e1e3f2" stroke-linecap="round" stroke-linejoin="round" stroke-width="0.05"/>
    <path d="M11.1 29.8 L11.05 29.75 10.65 29.0 10.65 28.95 10.65 28.85 M9.3 27.1 L10.65 27.6 M10.6 27.95 L9.5 27.25" fill="none" stroke="#000000" stroke-linecap="round" stroke-linejoin="round" stroke-width="0.05"/>
    <path d="M27.85 -21.5 L26.65 -19.85 Q24.95 -17.45 23.95 -14.85 L23.1 -12.35" fill="none" stroke="#8189a0" stroke-linecap="round" stroke-linejoin="round" stroke-width="0.05"/>
  </g>
</svg>
