<?xml version="1.0" encoding="UTF-8" standalone="no"?>
<svg xmlns:xlink="http://www.w3.org/1999/xlink" height="23.9px" width="73.55px" xmlns="http://www.w3.org/2000/svg">
  <g transform="matrix(1.0, 0.0, 0.0, 1.0, -242.75, -204.1)">
    <path d="M255.15 208.75 L257.0 209.8 246.45 228.0 244.6 226.95 255.15 208.75" fill="url(#gradient0)" fill-rule="evenodd" stroke="none"/>
    <path d="M244.6 226.95 L242.75 225.9 253.25 207.65 255.15 208.75 244.6 226.95" fill="url(#gradient1)" fill-rule="evenodd" stroke="none"/>
    <path d="M316.3 204.15 L316.25 204.2 316.3 204.15" fill="url(#gradient2)" fill-rule="evenodd" stroke="none"/>
    <path d="M316.3 204.15 L316.1 204.2 316.15 204.1 316.3 204.15" fill="url(#gradient3)" fill-rule="evenodd" stroke="none"/>
    <path d="M244.6 226.95 L242.75 225.9 253.25 207.65 255.15 208.75 257.0 209.8 246.45 228.0 244.6 226.95 255.15 208.75" fill="none" stroke="#a17960" stroke-linecap="round" stroke-linejoin="round" stroke-opacity="0.2509804" stroke-width="0.05"/>
  </g>
  <defs>
    <radialGradient cx="0" cy="0" gradientTransform="matrix(0.0154, 0.0089, -0.0065, 0.0112, 249.85, 217.85)" gradientUnits="userSpaceOnUse" id="gradient0" r="819.2" spreadMethod="pad">
      <stop offset="0.027450980392156862" stop-color="#ae8e79"/>
      <stop offset="1.0" stop-color="#fafafa"/>
    </radialGradient>
    <radialGradient cx="0" cy="0" gradientTransform="matrix(0.0282, 0.0163, -0.0119, 0.0206, 253.95, 209.85)" gradientUnits="userSpaceOnUse" id="gradient1" r="819.2" spreadMethod="pad">
      <stop offset="0.027450980392156862" stop-color="#ae8e79"/>
      <stop offset="1.0" stop-color="#fafafa"/>
    </radialGradient>
    <radialGradient cx="0" cy="0" gradientTransform="matrix(0.0154, 0.0, 0.0, 0.0154, 321.05, 193.35)" gradientUnits="userSpaceOnUse" id="gradient2" r="819.2" spreadMethod="pad">
      <stop offset="0.0" stop-color="#000000"/>
      <stop offset="1.0" stop-color="#4ecf9e" stop-opacity="0.0"/>
    </radialGradient>
    <radialGradient cx="0" cy="0" gradientTransform="matrix(0.0287, 0.0, 0.0, 0.0287, 327.4, 184.4)" gradientUnits="userSpaceOnUse" id="gradient3" r="819.2" spreadMethod="pad">
      <stop offset="0.0" stop-color="#000000"/>
      <stop offset="1.0" stop-color="#4ecf9e" stop-opacity="0.0"/>
    </radialGradient>
  </defs>
</svg>
