<?xml version="1.0" encoding="UTF-8" standalone="no"?>
<svg xmlns:xlink="http://www.w3.org/1999/xlink" height="36.65px" width="46.65px" xmlns="http://www.w3.org/2000/svg">
  <g transform="matrix(1.0, 0.0, 0.0, 1.0, 23.35, 18.35)">
    <path d="M13.95 3.55 L14.15 3.85 14.15 4.2 14.1 4.5" fill="none" stroke="#8f8985" stroke-linecap="round" stroke-linejoin="round" stroke-width="0.05"/>
    <path d="M14.1 5.6 L16.35 12.35" fill="none" stroke="#000000" stroke-linecap="round" stroke-linejoin="round" stroke-opacity="0.28235295" stroke-width="0.05"/>
    <path d="M20.4 -14.6 Q20.4 -14.05 20.75 -13.25 L20.85 -13.05 9.55 8.2 9.35 7.7 9.25 7.6 Q8.1 8.15 7.2 9.25 L-23.15 -7.05 -23.15 -7.1 -22.95 -7.5 -23.05 -7.9 -23.35 -8.25 -17.65 -15.75 -7.05 -18.35 1.15 -17.2 1.35 -15.3 1.55 -14.85 3.05 -15.05 Q5.25 -15.4 7.25 -16.4 L20.4 -14.6" fill="url(#gradient0)" fill-rule="evenodd" stroke="none"/>
    <path d="M3.05 -15.05 L1.55 -14.85 1.35 -15.3 1.15 -17.2 3.05 -15.05" fill="#9c938b" fill-rule="evenodd" stroke="none"/>
    <path d="M9.55 8.2 L8.6 10.0 7.2 9.25 Q8.1 8.15 9.25 7.6 L9.35 7.7 9.55 8.2" fill="#5e5b59" fill-rule="evenodd" stroke="none"/>
    <path d="M20.85 -13.05 L9.55 8.2 8.6 10.0 11.3 18.3 18.65 10.95 23.3 -3.65 21.85 -12.7 M3.05 -15.05 Q5.25 -15.4 7.25 -16.4 L20.4 -14.6 M1.15 -17.2 L1.35 -15.3 1.55 -14.85 3.05 -15.05 M1.15 -17.2 L-7.05 -18.35 -17.65 -15.75 -23.35 -8.25 M-23.15 -7.05 L7.2 9.25 8.6 10.0 M-23.15 -5.8 L-19.15 2.35 Q-3.95 10.35 11.3 18.3" fill="none" stroke="#000000" stroke-linecap="round" stroke-linejoin="round" stroke-opacity="0.28235295" stroke-width="0.05"/>
    <path d="M20.4 -14.6 Q20.4 -14.05 20.75 -13.25 L20.85 -13.05 M-23.35 -8.25 L-23.05 -7.9 -22.95 -7.5 -23.15 -7.1 -23.15 -7.05" fill="none" stroke="#8f8985" stroke-linecap="round" stroke-linejoin="round" stroke-width="0.05"/>
    <path d="M3.05 -15.05 L1.15 -17.2" fill="none" stroke="#cdc5bc" stroke-linecap="round" stroke-linejoin="round" stroke-width="0.05"/>
  </g>
  <defs>
    <radialGradient cx="0" cy="0" gradientTransform="matrix(0.0443, 0.0, 0.0, 0.0443, -14.7, -14.35)" gradientUnits="userSpaceOnUse" id="gradient0" r="819.2" spreadMethod="pad">
      <stop offset="0.0" stop-color="#b4a69a"/>
      <stop offset="1.0" stop-color="#ffffff"/>
    </radialGradient>
  </defs>
</svg>
