<?xml version="1.0" encoding="UTF-8" standalone="no"?>
<svg xmlns:xlink="http://www.w3.org/1999/xlink" height="93.45px" width="82.25px" xmlns="http://www.w3.org/2000/svg">
  <g transform="matrix(1.0, 0.0, 0.0, 1.0, -244.0, -162.25)">
    <path d="M271.55 188.65 L271.85 188.6 271.7 189.55 271.5 189.4 271.55 188.65" fill="#828282" fill-rule="evenodd" stroke="none"/>
    <path d="M272.0 187.05 L271.85 188.6 271.55 188.65 271.45 187.8 272.0 187.05" fill="#4f4f4f" fill-rule="evenodd" stroke="none"/>
    <path d="M272.0 187.05 L271.45 187.8 271.55 188.65 271.85 188.6 M271.7 189.55 L271.5 189.4 271.55 188.65" fill="none" stroke="#000000" stroke-linecap="round" stroke-linejoin="round" stroke-opacity="0.24313726" stroke-width="0.05"/>
    <path d="M301.35 202.0 L301.45 201.15 308.65 191.85 310.35 191.1 313.65 190.75 313.8 191.2 305.5 201.3 304.65 201.45 303.75 201.6 301.35 202.0 M309.55 194.45 L308.45 195.05 308.65 196.3 305.6 199.4 304.65 201.45 305.6 199.4 308.65 196.3 308.45 195.05 309.55 194.45 M308.15 193.5 L308.4 194.3 308.15 193.5 M308.0 194.85 L308.2 196.05 305.3 199.05 303.75 201.6 305.3 199.05 308.2 196.05 308.0 194.85 307.85 193.7 308.0 194.85 309.5 194.1 308.0 194.85" fill="#4f4f4f" fill-rule="evenodd" stroke="none"/>
    <path d="M313.8 191.2 L313.85 191.3 315.1 191.4 322.3 197.6 322.55 197.75 326.25 200.9 325.65 202.05 325.85 202.55 319.6 210.7 Q319.1 210.8 318.65 211.2 L305.5 201.3 313.8 191.2 M316.6 204.45 L316.9 202.35 317.85 202.05 318.15 199.35 318.15 198.85 319.65 198.05 322.55 197.75 319.65 198.05 318.15 198.85 318.15 199.35 317.85 202.05 316.9 202.35 316.6 204.45 M316.5 199.4 L319.6 197.75 322.3 197.6 319.6 197.75 316.5 199.4 M317.85 198.95 L318.15 198.85 317.85 198.95 316.6 199.65 317.85 198.95 317.95 199.5 317.5 201.9 315.85 202.45 317.5 201.9 317.95 199.5 317.85 198.95 M316.9 202.35 L316.5 202.45 315.85 202.45 316.5 202.45 316.9 202.35 M316.35 204.45 L316.5 202.45 316.35 204.45 M315.55 202.55 L315.85 202.45 315.55 202.55" fill="url(#gradient0)" fill-rule="evenodd" stroke="none"/>
    <path d="M318.65 211.2 L318.3 211.5 313.7 211.7 Q313.2 211.3 312.8 211.35 L301.3 202.5 301.35 202.0 303.75 201.6 304.65 201.45 305.5 201.3 318.65 211.2" fill="#424242" fill-rule="evenodd" stroke="none"/>
    <path d="M313.8 191.2 L313.85 191.3 315.1 191.4 322.3 197.6 322.55 197.75 326.25 200.9 325.65 202.05 325.85 202.55 319.6 210.7 Q319.1 210.8 318.65 211.2 L305.5 201.3 304.65 201.45 303.75 201.6 301.35 202.0 M318.3 211.5 L313.7 211.7 Q313.2 211.3 312.8 211.35 L301.3 202.5 M301.45 201.15 L308.65 191.85 310.35 191.1 313.65 190.75 313.8 191.2 305.5 201.3 M322.55 197.75 L319.65 198.05 318.15 198.85 318.15 199.35 317.85 202.05 316.9 202.35 316.6 204.45 M317.85 198.95 L316.6 199.65 M318.15 198.85 L317.85 198.95 M315.85 202.45 L316.5 202.45 316.9 202.35" fill="none" stroke="#000000" stroke-linecap="round" stroke-linejoin="round" stroke-opacity="0.24313726" stroke-width="0.05"/>
    <path d="M307.85 193.7 L308.0 194.85 309.5 194.1 M303.75 201.6 L305.3 199.05 308.2 196.05 308.0 194.85" fill="none" stroke="#303030" stroke-linecap="round" stroke-linejoin="round" stroke-width="0.05"/>
    <path d="M308.4 194.3 L308.15 193.5 M304.65 201.45 L305.6 199.4 308.65 196.3 308.45 195.05 309.55 194.45" fill="none" stroke="#828282" stroke-linecap="round" stroke-linejoin="round" stroke-width="0.05"/>
    <path d="M322.3 197.6 L319.6 197.75 316.5 199.4 M317.85 198.95 L317.95 199.5 317.5 201.9 315.85 202.45 315.55 202.55 M316.5 202.45 L316.35 204.45" fill="none" stroke="#d7d7d7" stroke-linecap="round" stroke-linejoin="round" stroke-width="0.05"/>
    <path d="M278.7 189.95 L301.45 207.8 295.3 207.05 Q294.25 206.2 293.6 206.35 L271.7 189.55 271.85 188.6 275.75 189.05 277.25 189.25 278.7 189.95" fill="#424242" fill-rule="evenodd" stroke="none"/>
    <path d="M272.0 187.05 L285.65 169.35 Q287.4 168.9 288.85 167.9 L295.1 167.25 295.4 168.15 278.7 189.95 277.25 189.25 275.75 189.05 271.85 188.6 272.0 187.05 M284.6 172.5 L285.15 174.0 284.6 172.5 M287.25 173.6 L284.5 175.0 284.85 177.3 279.3 183.0 275.75 189.05 279.3 183.0 284.85 177.3 284.5 175.0 284.2 172.8 284.5 175.0 287.25 173.6 M287.4 174.3 L285.3 175.5 285.65 177.8 279.85 183.6 277.25 189.25 279.85 183.6 285.65 177.8 285.3 175.5 287.4 174.3" fill="#6a6a6a" fill-rule="evenodd" stroke="none"/>
    <path d="M295.4 168.15 L295.55 168.3 297.85 168.55 311.55 180.25 312.05 180.65 319.05 186.6 Q318.3 187.45 317.95 188.75 L318.3 189.7 306.45 205.1 Q305.5 205.4 303.35 206.65 303.25 206.65 303.2 206.75 L302.85 207.0 302.75 207.05 301.45 207.8 278.7 189.95 295.4 168.15 M300.55 183.7 L306.4 180.6 311.55 180.25 306.4 180.6 300.55 183.7 M303.15 182.9 L303.7 182.6 306.6 181.1 312.05 180.65 306.6 181.1 303.7 182.6 303.75 183.6 303.1 188.8 301.3 189.35 300.8 193.3 301.3 189.35 303.1 188.8 303.75 183.6 303.7 182.6 303.15 182.9 303.3 183.9 302.5 188.4 298.75 189.65 302.5 188.4 303.3 183.9 303.15 182.9 Q301.95 183.45 300.75 184.15 301.95 183.45 303.15 182.9 M299.5 189.85 L301.3 189.35 299.5 189.85 M300.3 193.3 L300.7 189.85 300.3 193.3" fill="url(#gradient1)" fill-rule="evenodd" stroke="none"/>
    <path d="M295.4 168.15 L295.55 168.3 297.85 168.55 311.55 180.25 312.05 180.65 319.05 186.6 Q318.3 187.45 317.95 188.75 L318.3 189.7 306.45 205.1 Q305.5 205.4 303.35 206.65 L304.0 206.6 M272.0 187.05 L285.65 169.35 Q287.4 168.9 288.85 167.9 L295.1 167.25 295.4 168.15 278.7 189.95 301.45 207.8 302.75 207.05 302.85 207.0 303.2 206.75 Q303.25 206.65 303.35 206.65 L302.85 207.0 M312.05 180.65 L306.6 181.1 303.7 182.6 303.75 183.6 303.1 188.8 301.3 189.35 300.8 193.3 M303.7 182.6 L303.15 182.9 Q301.95 183.45 300.75 184.15 M301.3 189.35 L299.5 189.85 M301.45 207.8 L295.3 207.05 Q294.25 206.2 293.6 206.35 L271.7 189.55 M278.7 189.95 L277.25 189.25 275.75 189.05 271.85 188.6" fill="none" stroke="#000000" stroke-linecap="round" stroke-linejoin="round" stroke-opacity="0.24313726" stroke-width="0.05"/>
    <path d="M275.75 189.05 L279.3 183.0 284.85 177.3 284.5 175.0 284.2 172.8 M284.5 175.0 L287.25 173.6" fill="none" stroke="#303030" stroke-linecap="round" stroke-linejoin="round" stroke-width="0.05"/>
    <path d="M285.15 174.0 L284.6 172.5 M277.25 189.25 L279.85 183.6 285.65 177.8 285.3 175.5 287.4 174.3" fill="none" stroke="#828282" stroke-linecap="round" stroke-linejoin="round" stroke-width="0.05"/>
    <path d="M311.55 180.25 L306.4 180.6 300.55 183.7 M303.15 182.9 L303.3 183.9 302.5 188.4 298.75 189.65 M300.7 189.85 L300.3 193.3" fill="none" stroke="#d7d7d7" stroke-linecap="round" stroke-linejoin="round" stroke-width="0.05"/>
    <path d="M276.95 162.7 L277.05 162.75 278.25 162.85 285.45 169.05 285.75 169.25 289.4 172.4 288.8 173.55 289.0 174.05 282.75 182.15 281.8 182.65 268.7 172.8 276.95 162.7 M279.65 170.9 L282.75 169.25 285.45 169.05 282.75 169.25 279.65 170.9 M279.0 173.95 L280.7 173.35 281.1 171.0 281.0 170.45 281.1 171.0 280.7 173.35 279.0 173.95 279.7 173.95 280.05 173.85 281.0 173.55 281.35 170.8 281.35 170.3 281.0 170.45 279.75 171.1 281.0 170.45 281.35 170.3 281.35 170.8 281.0 173.55 280.05 173.85 279.7 173.95 279.0 173.95 278.7 174.05 279.0 173.95 M281.35 170.3 L282.85 169.55 285.75 169.25 282.85 169.55 281.35 170.3 M279.55 175.9 L279.7 173.95 279.55 175.9 M279.8 175.95 L280.05 173.85 279.8 175.95" fill="url(#gradient2)" fill-rule="evenodd" stroke="none"/>
    <path d="M264.5 173.45 L264.6 172.6 271.8 163.3 Q272.75 163.05 273.5 162.55 L276.8 162.25 276.95 162.7 268.7 172.8 267.8 172.95 266.95 173.1 264.5 173.45 M272.75 165.95 L271.6 166.55 271.8 167.75 268.75 170.85 267.8 172.95 268.75 170.85 271.8 167.75 271.6 166.55 272.75 165.95 M271.3 164.95 L271.55 165.75 271.3 164.95 M272.65 165.55 L271.25 166.3 271.4 167.5 268.45 170.5 266.95 173.1 268.45 170.5 271.4 167.5 271.25 166.3 271.0 165.15 271.25 166.3 272.65 165.55" fill="#6a6a6a" fill-rule="evenodd" stroke="none"/>
    <path d="M281.8 182.65 L281.5 182.95 276.9 183.2 Q276.35 182.8 276.0 182.85 L264.45 173.95 264.5 173.45 266.95 173.1 267.8 172.95 268.7 172.8 281.8 182.65" fill="#424242" fill-rule="evenodd" stroke="none"/>
    <path d="M276.95 162.7 L277.05 162.75 278.25 162.85 285.45 169.05 285.75 169.25 289.4 172.4 288.8 173.55 289.0 174.05 282.75 182.15 281.8 182.65 268.7 172.8 267.8 172.95 266.95 173.1 264.5 173.45 M281.5 182.95 L276.9 183.2 Q276.35 182.8 276.0 182.85 L264.45 173.95 M264.6 172.6 L271.8 163.3 Q272.75 163.05 273.5 162.55 L276.8 162.25 276.95 162.7 268.7 172.8 M279.0 173.95 L279.7 173.95 280.05 173.85 281.0 173.55 281.35 170.8 281.35 170.3 281.0 170.45 279.75 171.1 M285.75 169.25 L282.85 169.55 281.35 170.3 M280.05 173.85 L279.8 175.95" fill="none" stroke="#000000" stroke-linecap="round" stroke-linejoin="round" stroke-opacity="0.24313726" stroke-width="0.05"/>
    <path d="M266.95 173.1 L268.45 170.5 271.4 167.5 271.25 166.3 271.0 165.15 M271.25 166.3 L272.65 165.55" fill="none" stroke="#303030" stroke-linecap="round" stroke-linejoin="round" stroke-width="0.05"/>
    <path d="M271.55 165.75 L271.3 164.95 M267.8 172.95 L268.75 170.85 271.8 167.75 271.6 166.55 272.75 165.95" fill="none" stroke="#828282" stroke-linecap="round" stroke-linejoin="round" stroke-width="0.05"/>
    <path d="M285.45 169.05 L282.75 169.25 279.65 170.9 M281.0 170.45 L281.1 171.0 280.7 173.35 279.0 173.95 278.7 174.05 M279.7 173.95 L279.55 175.9" fill="none" stroke="#d7d7d7" stroke-linecap="round" stroke-linejoin="round" stroke-width="0.05"/>
    <path d="M305.8 188.55 Q307.5 185.2 307.05 182.45 306.55 179.6 304.1 179.05 301.7 178.4 298.7 180.35 295.75 182.3 294.05 185.65 292.35 188.9 292.8 191.7 293.35 194.5 295.8 195.1 298.2 195.7 301.15 193.8 304.1 191.8 305.8 188.55" fill="#003c00" fill-rule="evenodd" stroke="none"/>
    <path d="M300.25 192.9 L301.15 192.3 302.3 191.5 303.1 190.7 304.8 188.25 Q305.8 186.3 305.85 184.7 L305.75 183.45 Q305.4 181.35 303.55 180.85 L303.45 180.8 303.35 180.8 302.5 180.7 301.15 180.85 Q299.65 182.3 299.05 183.65 L298.35 185.25 297.85 186.55 Q297.5 187.5 297.3 188.7 297.15 189.9 297.9 191.15 298.75 192.4 300.25 192.9 M303.25 182.45 Q303.6 182.6 303.6 183.8 L303.55 184.05 302.85 184.65 Q301.15 184.95 301.7 183.05 301.85 182.6 302.25 182.3 302.95 182.0 303.25 182.45 M303.15 187.2 L303.15 187.35 Q302.9 188.5 301.8 189.75 300.2 191.75 298.9 190.7 298.1 190.0 298.7 188.75 299.15 188.55 299.3 189.0 299.5 189.4 299.9 189.4 L300.45 189.15 Q301.35 188.15 301.1 187.1 L301.1 186.9 Q302.4 185.9 302.95 186.9 L303.1 187.15 303.15 187.2 303.2 186.6 303.3 187.55 303.15 187.2" fill="url(#gradient3)" fill-rule="evenodd" stroke="none"/>
    <path d="M301.15 180.85 L300.7 181.1 Q300.0 181.3 299.2 181.85 297.75 182.75 296.7 184.15 296.05 184.95 295.55 185.95 294.85 187.3 294.6 188.6 L294.5 189.95 294.55 190.4 294.6 190.7 294.9 191.65 294.95 191.85 295.6 192.7 295.75 192.85 296.05 193.1 296.8 193.35 296.9 193.35 Q298.5 193.75 300.25 192.9 298.75 192.4 297.9 191.15 297.15 189.9 297.3 188.7 297.5 187.5 297.85 186.55 L298.35 185.25 299.05 183.65 Q299.65 182.3 301.15 180.85" fill="#159971" fill-rule="evenodd" stroke="none"/>
    <path d="M303.25 182.45 Q302.95 182.0 302.25 182.3 301.85 182.6 301.7 183.05 301.15 184.95 302.85 184.65 L303.55 184.05 303.6 183.8 Q303.6 182.6 303.25 182.45 M303.15 187.2 L303.1 187.15 302.95 186.9 Q302.4 185.9 301.1 186.9 L301.1 187.1 Q301.35 188.15 300.45 189.15 L299.9 189.4 Q299.5 189.4 299.3 189.0 299.15 188.55 298.7 188.75 298.1 190.0 298.9 190.7 300.2 191.75 301.8 189.75 302.9 188.5 303.15 187.35 L303.15 187.2" fill="#ffffff" fill-rule="evenodd" stroke="none"/>
    <path d="M303.15 187.2 L303.3 187.55 303.2 186.6 303.15 187.2" fill="#7ceb8c" fill-rule="evenodd" stroke="none"/>
    <path d="M300.25 192.9 L301.15 192.3 302.3 191.5 303.1 190.7 304.8 188.25 Q305.8 186.3 305.85 184.7 L305.75 183.45 Q305.4 181.35 303.55 180.85 L303.45 180.8 303.35 180.8 302.5 180.7 301.15 180.85 300.7 181.1 Q300.0 181.3 299.2 181.85 297.75 182.75 296.7 184.15 296.05 184.95 295.55 185.95 294.85 187.3 294.6 188.6 L294.5 189.95 294.55 190.4 294.6 190.7 294.9 191.65 294.95 191.85 295.6 192.7 295.75 192.85 296.05 193.1 296.8 193.35 296.9 193.35 Q298.5 193.75 300.25 192.9 Z" fill="none" stroke="#000000" stroke-linecap="round" stroke-linejoin="round" stroke-opacity="0.24313726" stroke-width="0.05"/>
    <path d="M303.3 177.8 L299.65 179.0 296.45 181.65 294.5 184.45 292.9 187.8 292.55 190.65 293.75 194.05" fill="none" stroke="#4f4f4f" stroke-linecap="round" stroke-linejoin="round" stroke-width="0.05"/>
    <path d="M298.9 195.9 L303.65 192.65 307.15 187.95 309.0 184.15 307.0 180.8" fill="none" stroke="#d7d7d7" stroke-linecap="round" stroke-linejoin="round" stroke-width="0.05"/>
    <path d="M262.0 235.5 L262.85 236.05 264.05 240.3 254.8 248.25 255.25 252.45 252.95 251.8 252.5 250.55 250.9 249.45 261.15 234.9 262.0 235.5 M254.5 247.15 L262.9 239.5 261.95 236.6 262.9 239.5 254.5 247.15" fill="url(#gradient4)" fill-rule="evenodd" stroke="none"/>
    <path d="M262.1 235.35 L262.0 235.5 261.15 234.9 260.4 234.35 260.5 234.2 262.1 235.35" fill="url(#gradient5)" fill-rule="evenodd" stroke="none"/>
    <path d="M246.65 246.4 L250.8 245.45 255.15 234.05 257.35 233.9 259.55 233.75 260.4 234.35 261.15 234.9 250.9 249.45 249.4 248.35 248.05 248.35 246.65 246.4 M259.65 234.65 L256.1 235.1 252.2 245.45 256.1 235.1 259.65 234.65" fill="url(#gradient6)" fill-rule="evenodd" stroke="none"/>
    <path d="M253.4 253.1 L254.3 255.7 244.0 248.5 246.7 248.4 248.05 248.35 249.4 248.35 250.9 249.45 252.5 250.55 252.95 251.8 253.4 253.1" fill="url(#gradient7)" fill-rule="evenodd" stroke="none"/>
    <path d="M254.3 255.7 L253.25 255.7 244.4 249.5 244.0 248.5 254.3 255.7" fill="url(#gradient8)" fill-rule="evenodd" stroke="none"/>
    <path d="M246.7 248.4 L246.65 246.4 248.05 248.35 246.7 248.4" fill="url(#gradient9)" fill-rule="evenodd" stroke="none"/>
    <path d="M255.25 252.45 L253.4 253.1 252.95 251.8 255.25 252.45" fill="url(#gradient10)" fill-rule="evenodd" stroke="none"/>
    <path d="M262.1 235.35 L262.0 235.5 262.85 236.05 264.05 240.3 254.8 248.25 255.25 252.45 253.4 253.1 254.3 255.7 253.25 255.7 M244.4 249.5 L244.0 248.5 246.7 248.4 246.65 246.4 250.8 245.45 M257.35 233.9 L259.55 233.75 260.4 234.35 260.5 234.2 M261.15 234.9 L260.4 234.35 M261.15 234.9 L262.0 235.5 M250.9 249.45 L249.4 248.35 248.05 248.35 246.7 248.4 M252.95 251.8 L252.5 250.55 250.9 249.45 261.15 234.9 M244.0 248.5 L254.3 255.7 M253.4 253.1 L252.95 251.8 255.25 252.45 M248.05 248.35 L246.65 246.4" fill="none" stroke="#000000" stroke-linecap="round" stroke-linejoin="round" stroke-opacity="0.2509804" stroke-width="0.05"/>
    <path d="M261.95 236.6 L262.9 239.5 254.5 247.15 M252.2 245.45 L256.1 235.1 259.65 234.65" fill="none" stroke="#e1cbb5" stroke-linecap="round" stroke-linejoin="round" stroke-width="0.05"/>
    <path d="M258.9 245.25 L254.95 250.85 249.65 247.15 253.6 241.55 258.9 245.25" fill="#52351b" fill-rule="evenodd" stroke="none"/>
    <path d="M258.9 245.25 L254.95 250.85 249.65 247.15 253.6 241.55 258.9 245.25 Z" fill="none" stroke="#000000" stroke-linecap="round" stroke-linejoin="round" stroke-opacity="0.2509804" stroke-width="0.05"/>
    <path d="M262.9 237.5 L260.0 241.65 254.7 237.95 257.6 233.8 262.9 237.5" fill="#52351b" fill-rule="evenodd" stroke="none"/>
    <path d="M262.9 237.5 L260.0 241.65 254.7 237.95 257.6 233.8 262.9 237.5 Z" fill="none" stroke="#000000" stroke-linecap="round" stroke-linejoin="round" stroke-opacity="0.2509804" stroke-width="0.05"/>
  </g>
  <defs>
    <radialGradient cx="0" cy="0" gradientTransform="matrix(0.0222, 0.0027, -0.0027, 0.0222, 307.9, 201.3)" gradientUnits="userSpaceOnUse" id="gradient0" r="819.2" spreadMethod="pad">
      <stop offset="0.0" stop-color="#828282"/>
      <stop offset="0.9882352941176471" stop-color="#bcbcbc"/>
    </radialGradient>
    <radialGradient cx="0" cy="0" gradientTransform="matrix(0.0421, 0.0052, -0.0052, 0.0421, 284.25, 187.3)" gradientUnits="userSpaceOnUse" id="gradient1" r="819.2" spreadMethod="pad">
      <stop offset="0.0" stop-color="#828282"/>
      <stop offset="0.9882352941176471" stop-color="#bcbcbc"/>
    </radialGradient>
    <radialGradient cx="0" cy="0" gradientTransform="matrix(0.0222, 0.0027, -0.0027, 0.0222, 271.1, 172.8)" gradientUnits="userSpaceOnUse" id="gradient2" r="819.2" spreadMethod="pad">
      <stop offset="0.0" stop-color="#828282"/>
      <stop offset="0.9882352941176471" stop-color="#bcbcbc"/>
    </radialGradient>
    <radialGradient cx="0" cy="0" gradientTransform="matrix(-0.0113, -0.0028, -0.008, 0.0153, 299.85, 192.8)" gradientUnits="userSpaceOnUse" id="gradient3" r="819.2" spreadMethod="pad">
      <stop offset="0.0" stop-color="#159971"/>
      <stop offset="0.6039215686274509" stop-color="#93fe92"/>
      <stop offset="0.9882352941176471" stop-color="#f2fff2"/>
    </radialGradient>
    <radialGradient cx="0" cy="0" gradientTransform="matrix(0.0245, 0.0172, -0.0126, 0.0179, 252.6, 250.75)" gradientUnits="userSpaceOnUse" id="gradient4" r="819.2" spreadMethod="pad">
      <stop offset="0.0" stop-color="#412f18"/>
      <stop offset="0.596078431372549" stop-color="#b98046"/>
    </radialGradient>
    <radialGradient cx="0" cy="0" gradientTransform="matrix(0.0011, 8.0E-4, -8.0E-4, 0.0011, 261.4, 234.6)" gradientUnits="userSpaceOnUse" id="gradient5" r="819.2" spreadMethod="pad">
      <stop offset="0.0" stop-color="#412f18"/>
      <stop offset="0.596078431372549" stop-color="#b98046"/>
    </radialGradient>
    <radialGradient cx="0" cy="0" gradientTransform="matrix(0.0243, 0.0171, -0.0125, 0.0178, 249.45, 248.3)" gradientUnits="userSpaceOnUse" id="gradient6" r="819.2" spreadMethod="pad">
      <stop offset="0.0" stop-color="#412f18"/>
      <stop offset="0.596078431372549" stop-color="#b98046"/>
    </radialGradient>
    <radialGradient cx="0" cy="0" gradientTransform="matrix(0.0065, 0.0046, -0.0046, 0.0065, 250.05, 250.75)" gradientUnits="userSpaceOnUse" id="gradient7" r="819.2" spreadMethod="pad">
      <stop offset="0.0" stop-color="#412f18"/>
      <stop offset="0.596078431372549" stop-color="#b98046"/>
    </radialGradient>
    <radialGradient cx="0" cy="0" gradientTransform="matrix(0.0065, 0.0046, -0.0046, 0.0065, 248.2, 253.4)" gradientUnits="userSpaceOnUse" id="gradient8" r="819.2" spreadMethod="pad">
      <stop offset="0.0" stop-color="#412f18"/>
      <stop offset="0.596078431372549" stop-color="#b98046"/>
    </radialGradient>
    <radialGradient cx="0" cy="0" gradientTransform="matrix(0.0014, 0.001, -0.001, 0.0014, 247.1, 247.7)" gradientUnits="userSpaceOnUse" id="gradient9" r="819.2" spreadMethod="pad">
      <stop offset="0.0" stop-color="#412f18"/>
      <stop offset="0.596078431372549" stop-color="#b98046"/>
    </radialGradient>
    <radialGradient cx="0" cy="0" gradientTransform="matrix(0.0014, 0.001, -0.001, 0.0014, 253.9, 252.45)" gradientUnits="userSpaceOnUse" id="gradient10" r="819.2" spreadMethod="pad">
      <stop offset="0.0" stop-color="#412f18"/>
      <stop offset="0.596078431372549" stop-color="#b98046"/>
    </radialGradient>
  </defs>
</svg>
