<?xml version="1.0" encoding="UTF-8" standalone="no"?>
<svg xmlns:xlink="http://www.w3.org/1999/xlink" height="89.9px" width="153.8px" xmlns="http://www.w3.org/2000/svg">
  <g transform="matrix(1.0, 0.0, 0.0, 1.0, -198.55, -155.0)">
    <path d="M266.9 172.15 L324.35 156.35 Q330.15 154.0 335.25 155.8 L274.85 173.25 Q271.15 171.55 266.9 172.5 L266.9 172.15" fill="#c2dcda" fill-rule="evenodd" stroke="none"/>
    <path d="M335.25 155.8 Q339.15 157.15 342.65 161.0 L342.65 161.1 342.65 179.55 342.7 179.55 352.35 183.05 352.35 219.1 350.25 219.85 351.05 209.75 Q351.7 197.4 350.7 183.8 L341.5 186.55 342.4 180.0 342.45 179.65 342.25 179.7 341.2 161.5 281.6 178.4 281.15 178.55 Q278.25 174.8 274.85 173.25 L335.25 155.8 M342.65 161.1 L341.2 161.5 342.65 161.1 M342.65 179.55 L342.45 179.65 342.65 179.55 M352.35 183.05 L350.7 183.8 352.35 183.05 M266.9 185.45 L266.9 191.95 257.7 188.05 266.9 185.45" fill="#a0c9c5" fill-rule="evenodd" stroke="none"/>
    <path d="M342.25 179.7 L342.45 179.65 342.4 180.0 341.5 186.55 292.0 202.55 291.65 202.4 281.85 198.25 342.25 179.7 342.4 180.0 342.25 179.7" fill="#62a49e" fill-rule="evenodd" stroke="none"/>
    <path d="M341.5 186.55 L350.7 183.8 Q351.7 197.4 351.05 209.75 L337.75 220.85 309.8 221.75 305.1 229.95 291.05 232.15 291.65 202.65 292.0 202.55 341.5 186.55 M342.25 179.7 L281.85 198.25 281.6 198.15 281.6 178.75 281.6 178.4 341.2 161.5 342.25 179.7 M339.15 207.4 L340.85 211.3 339.15 207.4 M333.1 205.2 L333.65 215.15 333.1 205.2 M330.6 202.15 L320.35 214.9 330.6 202.15 M330.6 197.75 L304.6 211.3 330.6 197.75" fill="#55918c" fill-rule="evenodd" stroke="none"/>
    <path d="M350.25 219.85 L290.95 241.05 290.85 241.05 291.05 232.15 305.1 229.95 309.8 221.75 337.75 220.85 351.05 209.75 350.25 219.85" fill="#496d64" fill-rule="evenodd" stroke="none"/>
    <path d="M290.85 241.05 L256.6 226.65 257.7 188.05 266.9 191.95 266.9 185.45 266.9 172.5 Q271.15 171.55 274.85 173.25 278.25 174.8 281.15 178.55 L281.6 178.75 281.6 198.15 281.6 198.35 281.85 198.25 291.65 202.4 291.65 202.65 291.05 232.15 290.85 241.05" fill="#365c59" fill-rule="evenodd" stroke="none"/>
    <path d="M342.65 161.0 L342.85 161.05 342.65 161.1 342.65 179.55 342.7 179.55 M352.35 183.05 L352.35 219.1 350.25 219.85 290.95 241.05 290.85 241.05 256.6 226.65 248.45 222.7 M341.2 161.5 L342.65 161.1 342.65 161.0 M342.25 179.7 L342.45 179.65 342.65 179.55 M341.5 186.55 L350.7 183.8 352.35 183.05 M342.4 180.0 L342.25 179.7 281.85 198.25 291.65 202.4 292.0 202.55 341.5 186.55 M341.2 161.5 L281.6 178.4 281.6 178.75 281.6 198.15 281.85 198.25 281.6 198.35 281.6 198.15 M333.65 215.15 L333.1 205.2 M340.85 211.3 L339.15 207.4 M291.65 202.65 L292.0 202.55 M291.65 202.65 L291.65 202.4 M274.85 173.25 Q278.25 174.8 281.15 178.55 L281.6 178.4 M281.6 178.75 L281.15 178.55 M266.9 172.5 L266.4 172.25 266.9 172.15 266.9 172.5 Q271.15 171.55 274.85 173.25 M257.7 188.05 L266.9 191.95 266.9 185.45 257.7 188.05 256.6 226.65 M266.9 185.45 L266.9 172.5 M290.85 241.05 L291.05 232.15 291.65 202.65 M304.6 211.3 L330.6 197.75 M320.35 214.9 L330.6 202.15" fill="none" stroke="#000000" stroke-linecap="round" stroke-linejoin="round" stroke-opacity="0.3019608" stroke-width="0.05"/>
    <path d="M212.05 230.75 Q215.85 234.15 215.3 241.9 L207.15 244.8 Q206.1 240.2 203.75 236.8 L201.8 234.4 212.05 230.75" fill="#997846" fill-rule="evenodd" stroke="none"/>
    <path d="M250.3 229.25 Q254.5 224.95 253.0 220.1 252.5 218.45 251.35 216.75 L271.55 209.55 Q280.1 212.35 275.25 220.25 L250.3 229.25 M201.8 234.4 L203.75 236.8 Q206.1 240.2 207.15 244.8 201.75 245.6 198.7 240.4 197.85 235.65 201.8 234.4" fill="#715833" fill-rule="evenodd" stroke="none"/>
    <path d="M240.1 220.75 Q243.9 224.8 241.8 232.3 L233.55 235.3 Q234.65 227.15 229.6 224.5 L240.1 220.75" fill="#efedd3" fill-rule="evenodd" stroke="none"/>
    <path d="M251.35 216.75 Q252.5 218.45 253.0 220.1 254.5 224.95 250.3 229.25 L241.8 232.3 Q243.9 224.8 240.1 220.75 L251.35 216.75 M219.75 228.0 Q223.35 232.05 219.05 240.55 L215.3 241.9 Q215.85 234.15 212.05 230.75 L219.75 228.0" fill="#ddd79f" fill-rule="evenodd" stroke="none"/>
    <path d="M230.8 236.3 Q231.3 229.2 225.8 225.85 L229.6 224.5 Q234.65 227.15 233.55 235.3 L230.8 236.3" fill="#cac068" fill-rule="evenodd" stroke="none"/>
    <path d="M219.75 228.0 L225.8 225.85 Q231.3 229.2 230.8 236.3 L219.05 240.55 Q223.35 232.05 219.75 228.0" fill="#d5cd86" fill-rule="evenodd" stroke="none"/>
    <path d="M250.3 229.25 L275.25 220.25 Q280.1 212.35 271.55 209.55 L251.35 216.75 240.1 220.75 229.6 224.5 225.8 225.85 219.75 228.0 212.05 230.75 201.8 234.4 Q197.85 235.65 198.7 240.4 201.75 245.6 207.15 244.8 L215.3 241.9 219.05 240.55 230.8 236.3 233.55 235.3 241.8 232.3 250.3 229.25 M207.15 244.8 Q206.1 240.2 203.75 236.8 L201.8 234.4" fill="none" stroke="#000000" stroke-linecap="round" stroke-linejoin="round" stroke-opacity="0.3019608" stroke-width="0.05"/>
  </g>
</svg>
