<?xml version="1.0" encoding="UTF-8" standalone="no"?>
<svg xmlns:xlink="http://www.w3.org/1999/xlink" height="83.65px" width="86.15px" xmlns="http://www.w3.org/2000/svg">
  <g transform="matrix(1.0, 0.0, 0.0, 1.0, -231.9, -158.65)">
    <path d="M306.15 170.65 Q313.25 179.25 313.25 190.9 313.25 199.45 309.4 206.4 311.1 200.2 311.4 194.2 312.15 180.8 306.15 170.65 M287.85 210.85 Q272.45 205.6 262.25 189.2 261.95 185.1 263.15 181.05 L268.85 180.7 Q276.75 181.4 282.85 187.5 288.9 193.55 289.55 201.4 290.05 206.75 287.85 210.85 M295.15 212.65 Q296.65 208.1 296.15 202.65 295.25 191.75 286.8 183.3 278.6 175.1 268.1 173.9 269.8 172.2 271.75 170.8 277.6 166.55 285.5 165.0 292.05 167.25 297.1 172.5 305.7 181.5 304.95 194.9 304.5 203.8 299.85 213.15 L295.75 212.75 295.15 212.65" fill="#f4f3f2" fill-rule="evenodd" stroke="none"/>
    <path d="M296.25 219.4 Q294.25 220.5 292.15 221.25 L289.3 222.15 288.15 222.4 290.1 220.65 Q293.6 217.15 295.15 212.65 L295.75 212.75 299.85 213.15 296.25 219.4 M251.25 178.3 Q252.0 176.45 253.0 174.75 253.9 173.15 255.05 171.7 L255.9 170.6 Q265.1 162.85 277.0 163.4 281.5 163.65 285.5 165.0 277.6 166.55 271.75 170.8 269.8 172.2 268.1 173.9 L267.35 173.85 Q257.8 173.05 251.25 178.3 M263.15 181.05 Q261.95 185.1 262.25 189.2 272.45 205.6 287.85 210.85 286.8 212.75 285.2 214.35 280.15 219.4 272.25 218.7 264.4 218.05 258.35 212.0 252.25 205.9 251.55 198.0 250.85 190.15 255.95 185.1 259.0 182.0 263.15 181.05" fill="#d3cfcb" fill-rule="evenodd" stroke="none"/>
    <path d="M309.4 206.4 Q307.4 210.0 304.35 213.15 L304.25 213.3 299.85 213.15 Q304.5 203.8 304.95 194.9 305.7 181.5 297.1 172.5 292.05 167.25 285.5 165.0 291.7 163.75 299.15 164.2 301.6 165.85 303.85 168.1 L306.15 170.65 Q312.15 180.8 311.4 194.2 311.1 200.2 309.4 206.4 M263.15 181.05 L263.8 179.15 Q265.75 176.25 268.1 173.9 278.6 175.1 286.8 183.3 295.25 191.75 296.15 202.65 296.65 208.1 295.15 212.65 291.35 212.0 287.85 210.85 290.05 206.75 289.55 201.4 288.9 193.55 282.85 187.5 276.75 181.4 268.85 180.7 L263.15 181.05" fill="#4b636b" fill-rule="evenodd" stroke="none"/>
    <path d="M304.25 213.3 L303.85 213.7 Q300.3 217.2 296.25 219.4 L299.85 213.15 304.25 213.3 M288.15 222.4 L281.05 223.1 Q267.65 223.1 258.2 213.7 L255.1 210.1 Q248.8 201.8 248.8 190.9 248.8 184.1 251.25 178.3 257.8 173.05 267.35 173.85 L268.1 173.9 Q265.75 176.25 263.8 179.15 L263.15 181.05 Q259.0 182.0 255.95 185.1 250.85 190.15 251.55 198.0 252.25 205.9 258.35 212.0 264.4 218.05 272.25 218.7 280.15 219.4 285.2 214.35 286.8 212.75 287.85 210.85 291.35 212.0 295.15 212.65 293.6 217.15 290.1 220.65 L288.15 222.4 M255.9 170.6 L258.2 168.1 Q267.65 158.65 281.05 158.65 291.25 158.65 299.15 164.2 291.7 163.75 285.5 165.0 281.5 163.65 277.0 163.4 265.1 162.85 255.9 170.6" fill="#2c3a3f" fill-rule="evenodd" stroke="none"/>
    <path d="M306.15 170.65 Q313.25 179.25 313.25 190.9 313.25 199.45 309.4 206.4 307.4 210.0 304.35 213.15 M304.25 213.3 L303.85 213.7 Q300.3 217.2 296.25 219.4 294.25 220.5 292.15 221.25 L289.3 222.15 288.15 222.4 281.05 223.1 Q267.65 223.1 258.2 213.7 L255.1 210.1 Q248.8 201.8 248.8 190.9 248.8 184.1 251.25 178.3 252.0 176.45 253.0 174.75 253.9 173.15 255.05 171.7 M255.9 170.6 L258.2 168.1 Q267.65 158.65 281.05 158.65 291.25 158.65 299.15 164.2 301.6 165.85 303.85 168.1 L306.15 170.65" fill="none" stroke="#322b27" stroke-linecap="round" stroke-linejoin="round" stroke-width="0.05"/>
    <path d="M308.35 190.0 Q314.25 186.6 316.75 189.1 319.25 191.6 316.95 198.6 314.55 205.45 308.7 212.7 302.9 219.95 297.0 223.35 291.05 226.65 288.55 224.15 286.0 221.6 288.4 214.75 290.7 207.75 296.55 200.55 302.35 193.3 308.35 190.0 M313.6 192.55 Q298.65 202.8 292.85 219.5 298.65 202.8 313.6 192.55" fill="#4b636b" fill-rule="evenodd" stroke="none"/>
    <path d="M308.35 190.0 Q302.35 193.3 296.55 200.55 290.7 207.75 288.4 214.75 286.0 221.6 288.55 224.15 291.05 226.65 297.0 223.35 302.9 219.95 308.7 212.7 314.55 205.45 316.95 198.6 319.25 191.6 316.75 189.1 314.25 186.6 308.35 190.0" fill="none" stroke="#322b27" stroke-linecap="round" stroke-linejoin="round" stroke-width="0.05"/>
    <path d="M292.85 219.5 Q298.65 202.8 313.6 192.55" fill="none" stroke="#85a0a9" stroke-linecap="round" stroke-linejoin="round" stroke-width="0.05"/>
    <path d="M301.7 188.3 Q298.9 186.05 297.4 182.0 295.85 177.95 296.45 174.45 296.95 170.95 299.4 170.05 301.8 169.1 304.6 171.35 307.25 173.6 308.8 177.7 310.35 181.75 309.8 185.2 309.2 188.7 306.8 189.65 304.4 190.55 301.7 188.3" fill="#f9f8f8" fill-opacity="0.6" fill-rule="evenodd" stroke="none"/>
    <path d="M250.55 216.6 Q256.05 214.55 263.1 218.85 252.8 231.25 241.5 241.95 242.4 238.15 239.35 234.65 236.15 231.15 232.25 231.5 241.8 224.7 250.55 216.6" fill="#8b5143" fill-rule="evenodd" stroke="none"/>
    <path d="M241.5 241.95 Q238.9 243.3 234.95 239.4 230.85 235.25 232.25 231.5 236.15 231.15 239.35 234.65 242.4 238.15 241.5 241.95" fill="#bb7c5b" fill-rule="evenodd" stroke="none"/>
    <path d="M250.55 216.6 Q256.0 211.5 261.2 205.85 266.35 206.95 268.05 212.7 L263.1 218.85 Q256.05 214.55 250.55 216.6" fill="#6d3d36" fill-rule="evenodd" stroke="none"/>
    <path d="M268.05 212.7 Q266.35 206.95 261.2 205.85 256.0 211.5 250.55 216.6 241.8 224.7 232.25 231.5 230.85 235.25 234.95 239.4 238.9 243.3 241.5 241.95" fill="none" stroke="#322b27" stroke-linecap="round" stroke-linejoin="round" stroke-width="0.05"/>
    <path d="M263.1 218.85 L268.05 212.7 M241.5 241.95 Q252.8 231.25 263.1 218.85" fill="none" stroke="#c76d01" stroke-linecap="round" stroke-linejoin="round" stroke-width="0.05"/>
  </g>
</svg>
