<?xml version="1.0" encoding="UTF-8" standalone="no"?>
<svg xmlns:xlink="http://www.w3.org/1999/xlink" height="97.45px" width="90.8px" xmlns="http://www.w3.org/2000/svg">
  <g transform="matrix(1.0, 0.0, 0.0, 1.0, -229.55, -151.75)">
    <path d="M312.6 195.7 Q311.05 197.9 308.9 200.05 L308.3 200.65 Q309.1 200.3 309.85 200.05 315.1 198.35 317.85 200.4 318.15 200.6 318.45 200.9 L318.65 201.05 319.3 202.0 Q320.85 204.7 319.3 209.5 317.5 215.25 312.15 220.65 306.75 226.0 300.9 227.9 295.15 229.7 292.4 226.95 289.65 224.2 291.5 218.45 293.4 212.6 298.75 207.25 L299.25 206.75 298.6 207.0 297.7 207.35 Q291.9 209.2 289.15 206.45 L288.15 205.05 Q286.8 202.4 288.25 197.9 289.25 194.85 291.2 191.9 292.95 189.25 295.5 186.7 300.85 181.35 306.65 179.55 310.95 178.1 313.6 179.2 314.5 179.6 315.25 180.35 317.95 183.1 316.05 188.95 314.95 192.4 312.6 195.7" fill="#7e5e45" fill-rule="evenodd" stroke="none"/>
    <path d="M317.85 200.4 Q315.1 198.35 309.85 200.05 309.1 200.3 308.3 200.65 L308.9 200.05 Q311.05 197.9 312.6 195.7 L317.85 200.4 M313.6 179.2 Q310.95 178.1 306.65 179.55 300.85 181.35 295.5 186.7 292.95 189.25 291.2 191.9 L261.95 167.1 Q264.1 163.2 268.65 158.65 272.55 154.8 277.0 153.3 282.1 151.5 283.05 152.3 L313.6 179.2 M288.15 205.05 L289.15 206.45 Q291.9 209.2 297.7 207.35 L298.6 207.0 298.75 207.25 Q293.4 212.6 291.5 218.45 289.65 224.2 292.4 226.95 L277.0 213.5 Q273.3 207.05 280.5 198.15 L288.15 205.05 M288.25 181.3 Q288.35 171.6 294.3 165.95 282.0 163.3 271.9 167.25 L288.25 181.3" fill="#b49276" fill-rule="evenodd" stroke="none"/>
    <path d="M291.2 191.9 Q289.25 194.85 288.25 197.9 286.8 202.4 288.15 205.05 L280.5 198.15 Q273.3 207.05 277.0 213.5 L261.6 200.05 261.0 199.55 Q258.25 196.8 260.1 191.05 261.35 187.15 264.15 183.5 L261.1 180.6 Q260.5 180.0 260.2 176.55 259.85 172.55 260.7 169.95 261.15 168.55 261.95 167.1 L291.2 191.9 M280.5 198.15 L264.15 183.5 280.5 198.15" fill="#ceb8a6" fill-rule="evenodd" stroke="none"/>
    <path d="M288.25 181.3 L271.9 167.25 Q282.0 163.3 294.3 165.95 288.35 171.6 288.25 181.3" fill="#6c523c" fill-rule="evenodd" stroke="none"/>
    <path d="M312.6 195.7 Q311.05 197.9 308.9 200.05 L308.3 200.65 Q309.1 200.3 309.85 200.05 315.1 198.35 317.85 200.4 M264.15 183.5 L280.5 198.15 288.15 205.05" fill="none" stroke="#5c4510" stroke-linecap="round" stroke-linejoin="round" stroke-width="0.05"/>
    <path d="M277.0 213.5 Q273.3 207.05 280.5 198.15" fill="none" stroke="#865b17" stroke-linecap="round" stroke-linejoin="round" stroke-width="0.05"/>
    <path d="M288.25 181.3 Q288.35 171.6 294.3 165.95 282.0 163.3 271.9 167.25 L288.25 181.3" fill="none" stroke="#ceb8a6" stroke-linecap="round" stroke-linejoin="round" stroke-width="0.05"/>
    <path d="M317.85 200.4 L312.6 195.7 Q314.95 192.4 316.05 188.95 317.95 183.1 315.25 180.35 314.5 179.6 313.6 179.2 L283.05 152.3 Q282.1 151.5 277.0 153.3 272.55 154.8 268.65 158.65 264.1 163.2 261.95 167.1 261.15 168.55 260.7 169.95 259.85 172.55 260.2 176.55 260.5 180.0 261.1 180.6 L264.15 183.5 Q261.35 187.15 260.1 191.05 258.25 196.8 261.0 199.55 L261.6 200.05 277.0 213.5 292.4 226.95 Q295.15 229.7 300.9 227.9 306.75 226.0 312.15 220.65 317.5 215.25 319.3 209.5 320.85 204.7 319.3 202.0 L318.65 201.05 318.45 200.9 Q318.15 200.6 317.85 200.4 Z" fill="none" stroke="#000000" stroke-linecap="round" stroke-linejoin="round" stroke-opacity="0.6" stroke-width="0.6000000000000001"/>
    <path d="M244.55 231.7 Q264.6 216.15 278.7 197.05 284.15 198.5 284.1 205.5 267.95 226.15 249.75 243.35 248.85 234.85 244.55 231.7" fill="#8d3d3d" fill-rule="evenodd" stroke="none"/>
    <path d="M244.55 231.7 Q241.8 229.65 237.75 229.8 257.9 215.55 275.25 196.65 L278.7 197.05 Q264.6 216.15 244.55 231.7" fill="#ba7441" fill-rule="evenodd" stroke="none"/>
    <path d="M278.7 197.05 L275.25 196.65 Q257.9 215.55 237.75 229.8 241.8 229.65 244.55 231.7 248.85 234.85 249.75 243.35 267.95 226.15 284.1 205.5 284.15 198.5 278.7 197.05 Z" fill="none" stroke="#000000" stroke-linecap="round" stroke-linejoin="round" stroke-opacity="0.6" stroke-width="0.6000000000000001"/>
    <path d="M232.85 236.55 Q232.4 232.45 235.05 229.8 237.7 227.15 241.9 227.55 245.85 227.9 249.05 231.05 252.2 234.2 252.65 238.3 252.9 242.4 250.3 245.05 247.65 247.7 243.65 247.35 239.45 246.95 236.3 243.8 233.1 240.65 232.85 236.55" fill="#6c523c" fill-rule="evenodd" stroke="none"/>
    <path d="M232.85 236.55 Q233.1 240.65 236.3 243.8 239.45 246.95 243.65 247.35 247.65 247.7 250.3 245.05 252.9 242.4 252.65 238.3 252.2 234.2 249.05 231.05 245.85 227.9 241.9 227.55 237.7 227.15 235.05 229.8 232.4 232.45 232.85 236.55 Z" fill="none" stroke="#000000" stroke-linecap="round" stroke-linejoin="round" stroke-opacity="0.6" stroke-width="0.6000000000000001"/>
    <path d="M237.65 234.75 Q238.7 236.3 237.45 236.35 236.2 236.35 235.15 235.3 234.1 234.25 234.1 232.75 234.1 231.25 235.15 230.2 236.2 229.1 237.7 229.1 239.2 229.1 240.25 230.2 241.3 231.25 238.95 232.25 236.6 233.15 237.65 234.75" fill="#b5a89d" fill-rule="evenodd" stroke="none"/>
    <path d="M229.9 242.3 Q229.6 239.75 231.2 238.1 232.85 236.45 235.45 236.7 237.9 236.9 239.9 238.9 241.8 240.8 242.1 243.35 242.25 245.85 240.65 247.5 239.0 249.1 236.55 248.9 233.95 248.65 232.0 246.75 230.05 244.8 229.9 242.3" fill="#6c523c" fill-rule="evenodd" stroke="none"/>
    <path d="M229.9 242.3 Q230.05 244.8 232.0 246.75 233.95 248.65 236.55 248.9 239.0 249.1 240.65 247.5 242.25 245.85 242.1 243.35 241.8 240.8 239.9 238.9 237.9 236.9 235.45 236.7 232.85 236.45 231.2 238.1 229.6 239.75 229.9 242.3 Z" fill="none" stroke="#000000" stroke-linecap="round" stroke-linejoin="round" stroke-opacity="0.6" stroke-width="0.6000000000000001"/>
    <path d="M234.3 243.55 Q235.35 245.1 234.1 245.15 232.85 245.15 231.8 244.1 230.75 243.05 230.75 241.55 230.75 240.05 231.8 239.0 232.85 237.9 234.35 237.9 235.85 237.9 236.9 239.0 237.95 240.05 235.6 241.05 233.25 241.95 234.3 243.55" fill="#b5a89d" fill-rule="evenodd" stroke="none"/>
  </g>
</svg>
