<?xml version="1.0" encoding="UTF-8" standalone="no"?>
<svg xmlns:xlink="http://www.w3.org/1999/xlink" height="321.4px" width="210.65px" xmlns="http://www.w3.org/2000/svg">
  <g transform="matrix(1.0, 0.0, 0.0, 1.0, 105.3, 160.7)">
    <path d="M19.25 -135.25 L21.95 -144.25 25.25 -160.7 Q26.85 -149.5 25.25 -139.85 L27.45 -141.65 Q24.8 -114.15 13.45 -98.2 8.1 -100.6 4.05 -105.15 L4.35 -107.4 Q8.8 -123.45 8.8 -140.4 10.25 -145.85 12.65 -147.5 L12.65 -134.9 12.65 -122.3 Q15.95 -125.6 19.25 -135.25 M-5.6 -21.65 Q-7.8 -28.25 -7.8 -36.05 -7.8 -51.4 0.8 -62.3 9.45 -73.15 21.7 -73.15 33.9 -73.15 42.55 -62.3 49.45 -53.55 50.85 -42.0 37.2 -68.8 22.15 -67.4 7.1 -66.0 -0.05 -52.4 -7.05 -33.7 -5.6 -21.65 M41.65 -38.0 Q45.3 -26.0 43.45 -20.2 40.1 -14.8 37.7 -16.25 42.2 -22.55 42.25 -31.2 42.2 -35.05 41.65 -38.0 M-57.0 123.55 Q-54.45 118.4 -47.7 114.7 -37.9 111.5 -30.7 114.7 -25.75 112.9 -20.85 104.8 L-18.9 88.25 Q-12.6 95.65 -12.45 103.7 -11.4 122.4 -21.6 131.6 -36.8 149.6 -51.75 141.25 -57.9 135.15 -57.0 123.55 M-34.4 121.6 Q-34.4 120.2 -36.5 119.2 -38.55 118.25 -41.45 118.25 -44.35 118.25 -46.45 119.2 -48.5 120.2 -48.5 121.6 -48.5 123.0 -46.45 123.95 -44.35 124.95 -41.45 124.95 -38.55 124.95 -36.5 123.95 -34.4 123.0 -34.4 121.6 M-10.95 129.15 Q-7.4 127.9 -7.25 140.75 -15.5 157.8 -19.35 147.95 -20.65 130.7 -10.95 129.15" fill="#f7e3bb" fill-rule="evenodd" stroke="none"/>
    <path d="M27.45 -141.65 Q32.75 -146.95 35.15 -157.95 31.85 -128.85 30.8 -99.75 L30.5 -95.7 Q20.75 -94.95 13.45 -98.2 24.8 -114.15 27.45 -141.65 M12.65 -134.9 L19.25 -145.35 19.25 -135.25 Q15.95 -125.6 12.65 -122.3 L12.65 -134.9 M50.85 -42.0 Q51.2 -39.1 51.2 -36.05 51.2 -20.7 42.55 -9.85 33.9 1.05 21.7 1.05 9.45 1.05 0.8 -9.85 -3.45 -15.2 -5.6 -21.65 -7.05 -33.7 -0.05 -52.4 7.1 -66.0 22.15 -67.4 37.2 -68.8 50.85 -42.0 M41.65 -38.0 Q40.05 -43.25 36.95 -47.15 33.35 -51.7 28.7 -53.1 23.75 -45.7 25.35 -30.35 30.15 -21.25 37.7 -16.25 40.1 -14.8 43.45 -20.2 45.3 -26.0 41.65 -38.0 M20.7 -8.75 Q25.1 -13.4 22.45 -21.7 16.0 -22.05 13.65 -13.05 17.55 -9.35 20.7 -8.75 M26.05 -20.0 L26.75 -8.85 Q31.3 -9.6 34.95 -13.1 31.55 -19.2 26.05 -20.0 M11.6 -47.15 Q6.35 -40.55 6.4 -31.2 6.35 -25.05 8.65 -20.1 15.25 -21.95 20.5 -29.3 23.8 -39.95 20.5 -53.25 15.45 -52.0 11.6 -47.15 M7.1 16.2 Q6.4 15.6 5.3 15.3 11.75 16.0 15.75 14.3 14.8 18.5 15.45 22.65 L7.1 16.2 M6.15 102.9 Q0.15 123.3 0.0 150.35 -1.2 158.9 -9.15 160.7 -20.35 160.1 -23.8 150.35 -24.05 146.3 -30.2 149.4 -49.45 155.2 -53.85 147.9 -59.6 138.2 -58.15 126.75 -57.75 125.05 -57.0 123.55 -57.9 135.15 -51.75 141.25 -36.8 149.6 -21.6 131.6 -11.4 122.4 -12.45 103.7 -12.6 95.65 -18.9 88.25 L-18.45 84.45 Q-15.6 88.65 -12.1 92.05 -4.45 99.5 6.15 102.9 M-10.95 129.15 Q-20.65 130.7 -19.35 147.95 -15.5 157.8 -7.25 140.75 -7.4 127.9 -10.95 129.15" fill="#c4ab8a" fill-rule="evenodd" stroke="none"/>
    <path d="M30.8 -99.75 Q59.35 -92.25 88.35 -87.7 91.9 -75.2 105.35 -64.65 50.9 -71.1 -1.75 -87.1 L-27.5 -101.3 -19.6 -92.5 Q-38.4 -99.35 -50.95 -104.35 -54.8 -105.85 -59.9 -112.45 L-76.2 -139.25 Q-48.0 -125.8 -19.3 -115.4 -17.05 -112.35 -10.65 -109.3 L-5.25 -107.0 Q-3.4 -107.25 -5.25 -110.5 L4.35 -107.4 4.05 -105.15 3.3 -99.8 Q12.6 -89.45 30.2 -91.6 L30.5 -95.7 30.8 -99.75 M-78.1 -100.6 L-55.95 -58.65 -66.75 -61.4 Q-72.5 -80.2 -87.75 -104.85 L-78.1 -100.6 M-100.25 -67.65 L-90.95 -66.5 -64.7 -8.7 -75.6 -11.35 Q-84.5 -36.65 -100.25 -67.65" fill="#e7e8ed" fill-rule="evenodd" stroke="none"/>
    <path d="M3.3 -99.8 L4.05 -105.15 Q8.1 -100.6 13.45 -98.2 20.75 -94.95 30.5 -95.7 L30.2 -91.6 Q12.6 -89.45 3.3 -99.8 M11.6 -47.15 Q15.45 -52.0 20.5 -53.25 23.8 -39.95 20.5 -29.3 15.25 -21.95 8.65 -20.1 6.35 -25.05 6.4 -31.2 6.35 -40.55 11.6 -47.15 M26.05 -20.0 Q31.55 -19.2 34.95 -13.1 31.3 -9.6 26.75 -8.85 L26.05 -20.0 M20.7 -8.75 Q17.55 -9.35 13.65 -13.05 16.0 -22.05 22.45 -21.7 25.1 -13.4 20.7 -8.75 M37.7 -16.25 Q30.15 -21.25 25.35 -30.35 23.75 -45.7 28.7 -53.1 33.35 -51.7 36.95 -47.15 40.05 -43.25 41.65 -38.0 42.2 -35.05 42.25 -31.2 42.2 -22.55 37.7 -16.25 M63.0 -11.6 L64.2 -22.45 Q73.35 -24.25 81.75 -19.7 L75.9 11.8 63.0 -11.6 M-11.85 12.3 L-10.05 11.95 1.6 10.35 17.35 9.3 18.2 9.25 23.15 9.15 Q21.4 11.8 15.75 14.3 11.75 16.0 5.3 15.3 L5.1 15.25 -11.85 12.3 M-78.1 -100.6 L-76.25 -105.0 -63.75 -78.4 -53.2 -75.1 -53.55 -72.8 -54.3 -68.4 -54.7 -66.0 -55.55 -60.95 -55.95 -58.65 -78.1 -100.6 M-90.95 -66.5 L-89.75 -70.75 Q-78.75 -51.95 -71.75 -33.2 L-60.3 -30.65 -64.7 -8.7 -90.95 -66.5 M-39.4 -11.1 L-36.75 -30.1 Q-32.85 -29.95 -29.15 -28.4 L-25.4 -33.05 -25.4 -26.5 Q-23.1 -25.1 -20.85 -23.15 L-25.05 15.2 -39.4 -11.1" fill="#555879" fill-rule="evenodd" stroke="none"/>
    <path d="M105.35 -64.65 L103.6 -49.45 63.95 -51.6 103.55 -36.9 103.85 -35.75 103.5 -31.35 66.45 -32.05 103.1 -26.9 99.85 11.0 75.9 11.8 81.75 -19.7 Q73.35 -24.25 64.2 -22.45 L63.0 -11.6 61.35 3.35 51.9 11.1 Q37.9 9.25 23.15 9.15 L18.2 9.25 17.35 9.3 1.6 10.35 -10.05 11.95 -11.85 12.3 -12.25 12.35 -16.0 13.1 -25.05 15.2 -20.85 -23.15 Q-23.1 -25.1 -25.4 -26.5 L-25.4 -33.05 -29.15 -28.4 Q-32.85 -29.95 -36.75 -30.1 L-39.4 -11.1 -43.15 15.8 -80.6 17.05 -75.6 -11.35 -64.7 -8.7 -60.3 -30.65 -71.75 -33.2 -66.75 -61.4 -55.95 -58.65 -55.55 -60.95 -10.7 -57.55 -54.7 -66.0 -54.3 -68.4 -41.9 -66.2 -53.55 -72.8 -53.2 -75.1 -63.75 -78.4 -59.9 -100.35 -50.95 -104.35 Q-38.4 -99.35 -19.6 -92.5 L-11.65 -79.05 -1.75 -87.1 Q50.9 -71.1 105.35 -64.65 M50.85 -42.0 Q49.45 -53.55 42.55 -62.3 33.9 -73.15 21.7 -73.15 9.45 -73.15 0.8 -62.3 -7.8 -51.4 -7.8 -36.05 -7.8 -28.25 -5.6 -21.65 -3.45 -15.2 0.8 -9.85 9.45 1.05 21.7 1.05 33.9 1.05 42.55 -9.85 51.2 -20.7 51.2 -36.05 51.2 -39.1 50.85 -42.0" fill="#8386a7" fill-rule="evenodd" stroke="none"/>
    <path d="M103.6 -49.45 L100.6 -47.55 103.55 -36.9 63.95 -51.6 103.6 -49.45 M103.5 -31.35 Q100.9 -28.65 103.1 -26.9 L66.45 -32.05 103.5 -31.35 M-55.55 -60.95 L-54.7 -66.0 -10.7 -57.55 -55.55 -60.95 M-54.3 -68.4 L-53.55 -72.8 -41.9 -66.2 -54.3 -68.4" fill="#65688f" fill-rule="evenodd" stroke="none"/>
    <path d="M5.3 15.3 Q6.4 15.6 7.1 16.2 5.05 24.5 -3.25 28.7 -10.5 28.8 -16.8 22.65 -17.3 17.85 -16.0 13.1 L-12.25 12.35 -11.85 12.3 5.1 15.25 5.3 15.3" fill="#cc0000" fill-rule="evenodd" stroke="none"/>
    <path d="M-16.8 22.65 Q-10.5 28.8 -3.25 28.7 5.05 24.5 7.1 16.2 L15.45 22.65 17.8 24.75 Q18.65 37.35 14.65 41.65 L14.35 40.95 Q13.8 41.35 14.65 41.65 7.95 40.6 4.0 39.35 -1.35 37.65 -6.0 34.7 -12.6 30.55 -16.0 26.8 L-16.8 22.65" fill="#a60000" fill-rule="evenodd" stroke="none"/>
    <path d="M4.0 39.35 Q7.95 40.6 14.65 41.65 13.8 41.35 14.35 40.95 L14.65 41.65 Q17.8 48.85 14.3 53.2 14.85 64.85 10.45 73.2 6.0 72.3 2.0 70.35 L-1.9 68.1 Q-6.15 65.2 -9.85 60.95 L-8.45 60.95 -9.85 60.95 Q-14.25 55.85 -17.8 48.7 L-18.1 47.1 Q-7.75 61.0 2.65 53.15 4.1 47.85 4.0 39.35 M-8.45 60.95 Q-3.3 64.7 2.7 66.1 L3.85 58.9 Q9.45 56.95 14.3 53.2 9.45 56.95 3.85 58.9 L-1.6 60.3 -8.45 60.95" fill="#d7ac00" fill-rule="evenodd" stroke="none"/>
    <path d="M-18.1 47.1 Q-19.85 37.25 -16.0 26.8 -12.6 30.55 -6.0 34.7 -1.35 37.65 4.0 39.35 4.1 47.85 2.65 53.15 -7.75 61.0 -18.1 47.1 M3.85 58.9 L2.7 66.1 Q-3.3 64.7 -8.45 60.95 L-1.6 60.3 3.85 58.9" fill="#ffcc00" fill-rule="evenodd" stroke="none"/>
    <path d="M10.45 73.2 Q13.25 87.35 8.75 101.65 6.95 104.55 6.15 102.9 -4.45 99.5 -12.1 92.05 -15.6 88.65 -18.45 84.45 L-19.85 81.85 -20.15 77.8 Q-15.4 88.0 -7.65 89.55 -2.75 84.2 -1.9 68.1 L2.0 70.35 Q6.0 72.3 10.45 73.2" fill="#7a8e28" fill-rule="evenodd" stroke="none"/>
    <path d="M-5.25 -110.5 Q-3.4 -107.25 -5.25 -107.0 L-10.65 -109.3 -5.25 -110.5 M-76.2 -139.25 L-59.9 -112.45 Q-54.8 -105.85 -50.95 -104.35 L-59.9 -100.35 -63.75 -78.4 -76.25 -105.0 -82.9 -119.2 -76.2 -139.25 M-19.6 -92.5 L-27.5 -101.3 -1.75 -87.1 -11.65 -79.05 -19.6 -92.5 M-89.75 -70.75 L-95.2 -82.65 -87.75 -104.85 Q-72.5 -80.2 -66.75 -61.4 L-71.75 -33.2 Q-78.75 -51.95 -89.75 -70.75 M-80.6 17.05 Q-89.75 -19.7 -105.3 -52.6 L-100.25 -67.65 Q-84.5 -36.65 -75.6 -11.35 L-80.6 17.05" fill="#c2c4d3" fill-rule="evenodd" stroke="none"/>
    <path d="M-20.15 77.8 Q-20.95 64.25 -17.8 48.7 -14.25 55.85 -9.85 60.95 -6.15 65.2 -1.9 68.1 -2.75 84.2 -7.65 89.55 -15.4 88.0 -20.15 77.8" fill="#acc840" fill-rule="evenodd" stroke="none"/>
    <path d="M-34.4 121.6 Q-34.4 123.0 -36.5 123.95 -38.55 124.95 -41.45 124.95 -44.35 124.95 -46.45 123.95 -48.5 123.0 -48.5 121.6 -48.5 120.2 -46.45 119.2 -44.35 118.25 -41.45 118.25 -38.55 118.25 -36.5 119.2 -34.4 120.2 -34.4 121.6" fill="#fdf7ea" fill-rule="evenodd" stroke="none"/>
    <path d="M19.25 -135.25 L21.95 -144.25 25.25 -160.7 Q26.85 -149.5 25.25 -139.85 L27.45 -141.65 Q32.75 -146.95 35.15 -157.95 31.85 -128.85 30.8 -99.75 59.35 -92.25 88.35 -87.7 91.9 -75.2 105.35 -64.65 L103.6 -49.45 M103.85 -35.75 L103.5 -31.35 Q100.9 -28.65 103.1 -26.9 L99.85 11.0 75.9 11.8 75.75 12.45 M4.35 -107.4 Q8.8 -123.45 8.8 -140.4 10.25 -145.85 12.65 -147.5 L12.65 -134.9 19.25 -145.35 19.25 -135.25 M4.05 -105.15 L4.35 -107.4 -5.25 -110.5 Q-3.4 -107.25 -5.25 -107.0 L-10.65 -109.3 Q-17.05 -112.35 -19.3 -115.4 -48.0 -125.8 -76.2 -139.25 L-82.9 -119.2 -76.25 -105.0 -78.1 -100.6 -87.75 -104.85 -95.2 -82.65 -89.75 -70.75 -90.95 -66.5 -64.7 -8.7 -60.3 -30.65 M3.3 -99.8 L4.05 -105.15 Q8.1 -100.6 13.45 -98.2 20.75 -94.95 30.5 -95.7 L30.8 -99.75 M30.5 -95.7 L30.2 -91.6 M-5.6 -21.65 Q-7.8 -28.25 -7.8 -36.05 -7.8 -51.4 0.8 -62.3 9.45 -73.15 21.7 -73.15 33.9 -73.15 42.55 -62.3 49.45 -53.55 50.85 -42.0 51.2 -39.1 51.2 -36.05 51.2 -20.7 42.55 -9.85 33.9 1.05 21.7 1.05 9.45 1.05 0.8 -9.85 -3.45 -15.2 -5.6 -21.65 M11.6 -47.15 Q15.45 -52.0 20.5 -53.25 23.8 -39.95 20.5 -29.3 15.25 -21.95 8.65 -20.1 6.35 -25.05 6.4 -31.2 6.35 -40.55 11.6 -47.15 M26.05 -20.0 Q31.55 -19.2 34.95 -13.1 31.3 -9.6 26.75 -8.85 L26.05 -20.0 M20.7 -8.75 Q17.55 -9.35 13.65 -13.05 16.0 -22.05 22.45 -21.7 25.1 -13.4 20.7 -8.75 M37.7 -16.25 Q30.15 -21.25 25.35 -30.35 23.75 -45.7 28.7 -53.1 33.35 -51.7 36.95 -47.15 40.05 -43.25 41.65 -38.0 42.2 -35.05 42.25 -31.2 42.2 -22.55 37.7 -16.25 M61.35 3.35 L63.0 -11.6 75.9 11.8 M-11.85 12.3 L-10.05 11.95 1.6 10.35 17.35 9.3 18.2 9.25 23.15 9.15 Q37.9 9.25 51.9 11.1 M7.1 16.2 Q6.4 15.6 5.3 15.3 L5.1 15.25 M-12.25 12.35 L-16.0 13.1 Q-17.3 17.85 -16.8 22.65 L-16.0 26.8 Q-12.6 30.55 -6.0 34.7 -1.35 37.65 4.0 39.35 7.95 40.6 14.65 41.65 13.8 41.35 14.35 40.95 L14.65 41.65 Q18.65 37.35 17.8 24.75 L15.45 22.65 Q14.8 18.5 15.75 14.3 M7.1 16.2 L15.45 22.65 M14.65 41.65 Q17.8 48.85 14.3 53.2 14.85 64.85 10.45 73.2 13.25 87.35 8.75 101.65 6.95 104.55 6.15 102.9 0.15 123.3 0.0 150.35 -1.2 158.9 -9.15 160.7 -20.35 160.1 -23.8 150.35 -24.05 146.3 -30.2 149.4 -49.45 155.2 -53.85 147.9 -59.6 138.2 -58.15 126.75 -57.75 125.05 -57.0 123.55 -54.45 118.4 -47.7 114.7 -37.9 111.5 -30.7 114.7 -25.75 112.9 -20.85 104.8 L-18.9 88.25 -18.45 84.45 -19.85 81.85 -20.15 77.8 Q-20.95 64.25 -17.8 48.7 L-18.1 47.1 Q-19.85 37.25 -16.0 26.8 M-1.9 68.1 L2.0 70.35 Q6.0 72.3 10.45 73.2 M-8.45 60.95 L-9.85 60.95 Q-6.15 65.2 -1.9 68.1 M14.3 53.2 Q9.45 56.95 3.85 58.9 L-1.6 60.3 -8.45 60.95 M-5.25 -110.5 L-10.65 -109.3 M-100.25 -67.65 L-90.95 -66.5 M-100.25 -67.65 L-105.3 -52.6 Q-89.75 -19.7 -80.6 17.05 L-43.15 15.8 -43.25 16.35 M-25.05 15.2 L-16.0 13.1 M-25.05 15.2 L-25.15 15.8 M-18.45 84.45 Q-15.6 88.65 -12.1 92.05 -4.45 99.5 6.15 102.9 M-17.8 48.7 Q-14.25 55.85 -9.85 60.95 M-25.05 15.2 L-39.4 -11.1 -43.15 15.8" fill="none" stroke="#000000" stroke-linecap="round" stroke-linejoin="round" stroke-opacity="0.50980395" stroke-width="0.05"/>
    <path d="M103.6 -49.45 L100.6 -47.55 103.55 -36.9 103.85 -35.75 M51.9 11.1 L61.35 3.35" fill="none" stroke="#000000" stroke-linecap="round" stroke-linejoin="round" stroke-opacity="0.52156866" stroke-width="0.05"/>
    <path d="M5.1 15.25 L-11.85 12.3 -12.25 12.35 M15.75 14.3 Q11.75 16.0 5.3 15.3 M15.75 14.3 Q21.4 11.8 23.15 9.15" fill="none" stroke="#000000" stroke-linecap="round" stroke-linejoin="round" stroke-opacity="0.49803922" stroke-width="0.05"/>
  </g>
</svg>
