<?xml version="1.0" encoding="UTF-8" standalone="no"?>
<svg xmlns:xlink="http://www.w3.org/1999/xlink" height="339.65px" width="465.05px" xmlns="http://www.w3.org/2000/svg">
  <g transform="matrix(1.0, 0.0, 0.0, 1.0, 232.5, 169.8)">
    <path d="M145.4 -130.45 Q117.8 -129.4 96.4 -119.15 L92.95 -125.0 Q112.65 -132.0 135.45 -132.45 L145.4 -130.45" fill="#aa8c48" fill-rule="evenodd" stroke="none"/>
    <path d="M96.4 -119.15 L99.85 -113.3 Q99.15 -108.55 90.1 -103.75 L67.25 -165.35 66.55 -169.8 92.95 -125.0 96.4 -119.15 M37.3 -85.7 L6.5 -116.15 42.4 -91.4 37.3 -85.7 M202.0 -71.9 L156.45 -56.5 Q148.45 -59.65 148.85 -68.9 L232.45 -82.7 202.0 -71.9 M160.1 -5.45 L160.1 -5.5 Q159.4 -10.4 162.6 -15.7 L164.6 -18.55 214.7 26.75 160.1 -5.45 M128.25 8.85 L125.7 42.35 119.15 11.25 Q123.8 10.15 128.25 8.85" fill="#666666" fill-rule="evenodd" stroke="none"/>
    <path d="M90.1 -103.75 Q99.15 -108.55 99.85 -113.3 L96.4 -119.15 Q117.8 -129.4 145.4 -130.45 155.55 -128.2 165.0 -125.15 L171.0 -123.1 175.6 -119.95 Q141.8 -110.75 120.65 -93.3 147.2 -109.95 180.8 -115.85 L186.65 -110.35 Q190.95 -105.7 193.15 -101.0 L169.75 -81.2 156.9 -80.5 Q151.25 -79.85 148.85 -68.9 118.65 -47.75 83.0 -40.4 80.1 -45.6 73.95 -50.75 65.6 -55.75 50.45 -58.1 70.8 -81.9 94.3 -102.15 68.6 -82.35 47.6 -58.95 43.15 -60.1 36.45 -60.2 50.05 -87.9 76.75 -105.7 78.35 -101.7 90.1 -103.75 M50.45 -37.1 L50.45 -37.05 50.45 -37.1 M75.2 16.1 Q82.6 12.4 84.8 6.3 123.7 7.4 162.6 -15.7 159.4 -10.4 160.1 -5.5 L160.05 -5.45 Q146.05 3.6 128.25 8.85 123.8 10.15 119.15 11.25 L111.75 12.75 Q94.9 15.85 75.2 16.1 M193.05 -40.5 Q186.7 -29.45 178.25 -20.5 L175.55 -24.05 175.6 -24.05 193.05 -40.5 M175.6 -24.05 L175.55 -24.05 175.6 -24.05" fill="#a47617" fill-rule="evenodd" stroke="none"/>
    <path d="M90.1 -103.75 Q78.35 -101.7 76.75 -105.7 L74.95 -116.95 67.25 -165.35 90.1 -103.75 M148.85 -68.9 Q151.25 -79.85 156.9 -80.5 L169.75 -81.2 200.3 -82.8 232.55 -82.75 232.45 -82.7 148.85 -68.9 M6.5 -116.15 L48.5 -97.55 42.4 -91.4 6.5 -116.15 M178.25 -20.5 L214.75 26.8 214.7 26.75 164.6 -18.55 165.15 -19.25 Q170.65 -26.1 175.55 -24.05 L178.25 -20.5 M125.7 42.35 L111.75 12.75 119.15 11.25 125.7 42.35" fill="#999999" fill-rule="evenodd" stroke="none"/>
    <path d="M76.75 -105.7 Q50.05 -87.9 36.45 -60.2 43.15 -60.1 47.6 -58.95 L47.35 -38.5 37.8 -38.8 36.3 -38.0 24.75 -58.95 24.8 -58.95 Q36.65 -78.3 52.55 -96.9 35.15 -78.75 21.6 -57.25 L21.55 -57.2 33.7 -36.6 16.7 -27.15 Q11.65 -38.15 13.25 -49.1 24.05 -70.05 37.3 -85.7 L42.4 -91.4 48.5 -97.55 Q60.8 -109.2 74.95 -116.95 L76.75 -105.7 M50.45 -58.1 Q65.6 -55.75 73.95 -50.75 80.1 -45.6 83.0 -40.4 84.4 -37.85 85.05 -35.3 87.85 -27.0 88.25 -18.45 L73.2 -18.5 88.2 -12.05 Q87.7 -5.0 85.65 2.25 85.45 4.4 84.8 6.3 82.6 12.4 75.2 16.1 50.5 11.9 44.25 6.15 L59.0 -2.8 Q64.4 -8.5 65.5 -15.0 66.35 -20.7 63.7 -26.05 62.45 -28.5 60.5 -30.85 L55.05 -34.6 51.4 -36.6 50.45 -37.1 50.45 -58.1" fill="#ac8f2b" fill-rule="evenodd" stroke="none"/>
    <path d="M47.6 -58.95 Q68.6 -82.35 94.3 -102.15 70.8 -81.9 50.45 -58.1 L50.45 -37.1 50.45 -37.05 47.35 -38.5 47.6 -58.95 M83.0 -40.4 Q118.65 -47.75 148.85 -68.9 148.45 -59.65 156.45 -56.5 L202.0 -71.9 202.15 -70.8 Q202.85 -62.15 200.65 -56.45 197.35 -48.0 193.05 -40.5 L175.6 -24.05 175.55 -24.05 Q170.65 -26.1 165.15 -19.25 L164.6 -18.55 162.6 -15.7 Q123.7 7.4 84.8 6.3 85.45 4.4 85.65 2.25 87.7 -5.0 88.2 -12.05 143.15 -25.5 174.2 -55.35 142.25 -32.85 88.25 -18.45 87.85 -27.0 85.05 -35.3 84.4 -37.85 83.0 -40.4 M169.75 -81.2 L193.15 -101.0 Q197.1 -93.55 199.4 -86.25 L200.3 -82.8 169.75 -81.2 M180.8 -115.85 Q147.2 -109.95 120.65 -93.3 141.8 -110.75 175.6 -119.95 172.45 -115.7 180.8 -115.85 M21.55 -57.2 L21.6 -57.25 Q35.15 -78.75 52.55 -96.9 36.65 -78.3 24.8 -58.95 L24.75 -58.95 36.3 -38.0 33.7 -36.6 21.55 -57.2" fill="#7b5911" fill-rule="evenodd" stroke="none"/>
    <path d="M186.65 -110.35 L180.8 -115.85 Q172.45 -115.7 175.6 -119.95 L171.0 -123.1 165.0 -125.15 180.55 -134.9 197.1 -129.5 183.6 -121.75 201.55 -126.85 209.7 -122.0 186.65 -110.35 M36.3 -38.0 L37.8 -38.8 47.35 -38.5 50.45 -37.05 51.4 -36.6 55.05 -34.6 Q-30.3 15.1 -204.35 109.6 L-188.75 128.2 -210.2 138.65 -186.4 134.5 Q-183.75 138.35 -183.1 151.85 -183.65 162.15 -189.55 169.75 -206.5 170.8 -223.45 161.5 L-230.5 144.1 Q-235.4 127.5 -228.15 112.15 -59.9 17.5 16.7 -27.15 L33.7 -36.6 36.3 -38.0" fill="#c68835" fill-rule="evenodd" stroke="none"/>
    <path d="M-188.75 128.2 L-204.35 109.6 Q-30.3 15.1 55.05 -34.6 L60.5 -30.85 Q62.45 -28.5 63.7 -26.05 18.7 6.25 -31.7 37.75 L-188.75 128.2 M197.1 -129.5 Q194.9 -127.5 201.55 -126.85 L183.6 -121.75 197.1 -129.5" fill="#985101" fill-rule="evenodd" stroke="none"/>
    <path d="M193.15 -101.0 Q190.95 -105.7 186.65 -110.35 L209.7 -122.0 Q216.9 -110.3 214.65 -102.7 214.3 -94.5 205.4 -87.75 L199.4 -86.25 Q197.1 -93.55 193.15 -101.0 M-189.55 169.75 Q-183.65 162.15 -183.1 151.85 -183.75 138.35 -186.4 134.5 L-31.7 37.75 Q18.7 6.25 63.7 -26.05 66.35 -20.7 65.5 -15.0 64.4 -8.5 59.0 -2.8 L44.25 6.15 Q-33.9 53.7 -189.55 169.75" fill="#7c4201" fill-rule="evenodd" stroke="none"/>
    <path d="M88.2 -12.05 L73.2 -18.5 88.25 -18.45 Q142.25 -32.85 174.2 -55.35 143.15 -25.5 88.2 -12.05" fill="#45320a" fill-rule="evenodd" stroke="none"/>
    <path d="M-186.4 134.5 L-210.2 138.65 -188.75 128.2 -31.7 37.75 -186.4 134.5" fill="#5c3101" fill-rule="evenodd" stroke="none"/>
    <path d="M96.4 -119.15 L99.85 -113.3 Q99.15 -108.55 90.1 -103.75 78.35 -101.7 76.75 -105.7 L74.95 -116.95 67.25 -165.35 66.55 -169.8 92.95 -125.0 96.4 -119.15 M148.85 -68.9 Q151.25 -79.85 156.9 -80.5 L169.75 -81.2 200.3 -82.8 232.55 -82.75 232.45 -82.7 202.0 -71.9 156.45 -56.5 Q148.45 -59.65 148.85 -68.9 M193.15 -101.0 Q190.95 -105.7 186.65 -110.35 L180.8 -115.85 Q172.45 -115.7 175.6 -119.95 L171.0 -123.1 165.0 -125.15 Q155.55 -128.2 145.4 -130.45 L135.45 -132.45 Q112.65 -132.0 92.95 -125.0 M6.5 -116.15 L48.5 -97.55 Q60.8 -109.2 74.95 -116.95 M42.4 -91.4 L48.5 -97.55 M36.3 -38.0 L37.8 -38.8 M16.7 -27.15 Q11.65 -38.15 13.25 -49.1 24.05 -70.05 37.3 -85.7 L6.5 -116.15 M42.4 -91.4 L37.3 -85.7 M33.7 -36.6 L16.7 -27.15 Q-59.9 17.5 -228.15 112.15 M51.4 -36.6 L50.45 -37.05 M33.7 -36.6 L36.3 -38.0 M51.4 -36.6 L50.45 -37.1 M59.0 -2.8 L44.25 6.15 Q50.5 11.9 75.2 16.1 94.9 15.85 111.75 12.75 L125.7 42.35 128.25 8.85 Q123.8 10.15 119.15 11.25 L111.75 12.75 M160.1 -5.5 L160.05 -5.45 160.1 -5.45 160.1 -5.5 Q159.4 -10.4 162.6 -15.7 L164.6 -18.55 165.15 -19.25 Q170.65 -26.1 175.55 -24.05 L178.25 -20.5 214.75 26.8 214.7 26.75 160.1 -5.45 M197.1 -129.5 Q194.9 -127.5 201.55 -126.85 L209.7 -122.0 Q216.9 -110.3 214.65 -102.7 214.3 -94.5 205.4 -87.75 L199.4 -86.25 200.3 -82.8 M165.0 -125.15 L180.55 -134.9 197.1 -129.5 M202.0 -71.9 L202.15 -70.8 Q202.85 -62.15 200.65 -56.45 197.35 -48.0 193.05 -40.5 186.7 -29.45 178.25 -20.5 M193.15 -101.0 Q197.1 -93.55 199.4 -86.25 M160.05 -5.45 Q146.05 3.6 128.25 8.85 M44.25 6.15 Q-33.9 53.7 -189.55 169.75" fill="none" stroke="#000000" stroke-linecap="round" stroke-linejoin="round" stroke-opacity="0.47058824" stroke-width="0.05"/>
    <path d="M37.8 -38.8 L47.35 -38.5 50.45 -37.05 M55.05 -34.6 L51.4 -36.6 M55.05 -34.6 L60.5 -30.85 Q62.45 -28.5 63.7 -26.05 66.35 -20.7 65.5 -15.0 64.4 -8.5 59.0 -2.8" fill="none" stroke="#000000" stroke-linecap="round" stroke-linejoin="round" stroke-opacity="0.47058824" stroke-width="3.5"/>
    <path d="M175.55 -24.05 L175.6 -24.05" fill="none" stroke="#00ff00" stroke-linecap="round" stroke-linejoin="round" stroke-width="0.05"/>
    <path d="M-228.15 112.15 Q-235.4 127.5 -230.5 144.1 L-223.45 161.5 Q-206.5 170.8 -189.55 169.75" fill="none" stroke="#000000" stroke-linecap="round" stroke-linejoin="round" stroke-opacity="0.47058824" stroke-width="0.05"/>
  </g>
</svg>
