<?xml version="1.0" encoding="UTF-8" standalone="no"?>
<svg xmlns:xlink="http://www.w3.org/1999/xlink" height="84.8px" width="104.45px" xmlns="http://www.w3.org/2000/svg">
  <g transform="matrix(1.0, 0.0, 0.0, 1.0, 52.2, 42.4)">
    <path d="M-29.8 -6.15 L-32.6 -5.0 Q-37.3 -4.15 -39.9 -5.45 L-49.75 -9.65 Q-51.1 -10.4 -50.9 -11.25 L-47.45 -12.8 -32.95 -8.1 -29.8 -6.15 -32.95 -8.1 -47.45 -12.8 -38.15 -17.0 -36.65 -15.85 -35.1 -14.65 -36.2 -17.85 -34.35 -18.7 Q-31.85 -19.3 -29.95 -18.7 -24.0 -15.8 -18.05 -12.95 -19.5 -10.45 -29.8 -6.15 M-32.95 -8.1 L-35.1 -14.65 -32.95 -8.1" fill="#c0cdd1" fill-rule="evenodd" stroke="none"/>
    <path d="M-50.9 -11.25 Q-51.1 -10.4 -49.75 -9.65 L-39.9 -5.45 Q-37.3 -4.15 -32.6 -5.0 L-29.8 -6.15 -29.0 -4.95 -29.8 -6.15 Q-19.5 -10.45 -18.05 -12.95 -16.45 -11.9 -16.2 -9.8 -21.3 -10.1 -27.4 -6.0 L-29.0 -4.95 Q-32.05 -2.95 -33.45 -1.15 -34.05 4.45 -33.55 14.0 L-34.5 2.4 -34.8 1.2 Q-35.75 -1.9 -37.85 -3.6 -44.05 -7.0 -50.7 -9.05 -51.6 -8.25 -52.2 -6.55 -52.25 -9.05 -50.9 -11.25" fill="#dae2e4" fill-rule="evenodd" stroke="none"/>
    <path d="M-46.3 8.6 L-43.95 13.3 -45.05 13.3 -46.3 8.6 M-35.75 20.45 L-32.85 19.85 -31.15 19.85 -33.05 20.9 -34.35 20.45 -35.75 20.45 M-35.1 -14.65 L-36.65 -15.85 -36.2 -17.85 -35.1 -14.65 M-21.7 21.7 L-25.9 20.9 -22.3 20.3 -21.7 21.7 M-33.6 42.25 Q-31.4 41.9 -31.55 39.75 -31.05 41.5 -28.2 40.9 -30.65 42.9 -33.6 42.25 M-13.75 29.5 L-14.05 28.0 -11.9 30.0 -11.95 30.0 -13.75 29.5 M-50.05 3.75 L-52.2 3.85 -51.1 2.9 -50.05 3.75 M-52.2 31.55 Q-51.8 33.45 -48.45 35.95 L-50.7 35.0 Q-52.3 34.0 -52.2 32.95 L-52.2 31.55" fill="#728d94" fill-rule="evenodd" stroke="none"/>
    <path d="M-14.6 0.6 L-14.15 3.85 -10.35 28.9 -11.9 30.0 -14.05 28.0 -20.9 23.25 -21.7 21.7 -22.3 20.3 -25.9 20.9 -31.15 19.85 -32.85 19.85 -33.55 14.0 Q-34.05 4.45 -33.45 -1.15 -32.05 -2.95 -29.0 -4.95 L-27.4 -6.0 Q-21.3 -10.1 -16.2 -9.8 L-15.5 -5.65 -15.05 -2.15 -14.6 0.6 M-52.2 -3.8 L-46.65 6.45 -50.05 3.75 -51.1 2.9 -52.2 2.0 -52.2 -3.8 M-29.0 -4.95 L-27.8 7.2 -22.3 20.3 -27.8 7.2 -29.0 -4.95" fill="#9db0b5" fill-rule="evenodd" stroke="none"/>
    <path d="M33.35 -30.4 L32.95 -30.2 Q19.2 -23.5 6.8 -15.3 -4.1 -9.8 -15.05 -2.15 L-15.5 -5.65 Q12.35 -24.6 47.0 -42.4 50.1 -42.0 51.45 -40.5 L49.85 -39.65 33.35 -30.4 M-45.05 13.3 L-43.9 17.4 -45.85 19.6 -47.95 14.85 -45.05 13.3" fill="#c2a88d" fill-rule="evenodd" stroke="none"/>
    <path d="M6.8 -15.3 Q19.2 -23.5 32.95 -30.2 L33.35 -30.4 Q42.6 -34.95 52.25 -39.1 L52.0 -35.15 Q18.0 -19.45 -14.15 3.85 L-14.6 0.6 Q-4.3 -8.05 6.8 -15.3 M-43.95 13.3 L-42.15 16.05 -41.2 20.7 -42.0 23.7 -47.05 28.0 -46.6 25.1 -43.6 22.65 -46.45 23.9 -45.85 19.6 -43.9 17.4 -45.05 13.3 -43.95 13.3" fill="#af8c69" fill-rule="evenodd" stroke="none"/>
    <path d="M6.8 -15.3 Q-4.3 -8.05 -14.6 0.6 L-15.05 -2.15 Q-4.1 -9.8 6.8 -15.3 M52.25 -39.1 Q42.6 -34.95 33.35 -30.4 L49.85 -39.65 52.25 -39.1 M-45.85 19.6 L-46.45 23.9 -43.6 22.65 -46.6 25.1 -47.05 28.0 -49.5 26.15 Q-50.85 23.15 -50.85 18.8 -49.4 15.25 -47.95 14.85 L-45.85 19.6" fill="#876747" fill-rule="evenodd" stroke="none"/>
    <path d="M-33.05 20.9 L-31.15 19.85 -25.9 20.9 -21.7 21.7 -20.9 23.25 -14.05 28.0 -13.75 29.5 -13.5 31.05 -28.2 40.9 Q-31.05 41.5 -31.55 39.75 L-33.05 20.9" fill="#acbbbf" fill-rule="evenodd" stroke="none"/>
    <path d="M-52.2 -6.55 Q-51.6 -8.25 -50.7 -9.05 -44.05 -7.0 -37.85 -3.6 -35.75 -1.9 -34.8 1.2 L-34.5 2.4 -33.55 14.0 -32.85 19.85 -35.75 20.45 -38.35 21.45 -41.2 20.7 -42.15 16.05 -43.95 13.3 -46.3 8.6 -46.65 6.45 -52.2 -3.8 -52.2 -6.55" fill="#7b969b" fill-rule="evenodd" stroke="none"/>
    <path d="M-46.65 6.45 L-46.3 8.6 -45.05 13.3 -47.95 14.85 Q-49.4 15.25 -50.85 18.8 -50.85 23.15 -49.5 26.15 L-47.05 28.0 -42.0 23.7 -41.2 20.7 -38.35 21.45 -35.75 20.45 -34.35 20.45 -33.05 20.9 -31.55 39.75 Q-31.4 41.9 -33.6 42.25 L-48.45 35.95 Q-51.8 33.45 -52.2 31.55 L-52.2 3.85 -50.05 3.75 -46.65 6.45" fill="#839ca0" fill-rule="evenodd" stroke="none"/>
    <path d="M-14.6 0.6 L-14.15 3.85 -10.35 28.9 -11.9 30.0 -14.05 28.0 -20.9 23.25 -21.7 21.7 -25.9 20.9 -31.15 19.85 -33.05 20.9 -34.35 20.45 -35.75 20.45 -38.35 21.45 -41.2 20.7 -42.15 16.05 -43.95 13.3 -45.05 13.3 -46.3 8.6 -46.65 6.45 -50.05 3.75 -51.1 2.9 -52.2 2.0 -52.2 -3.8 -46.65 6.45 M49.85 -39.65 L51.45 -40.5 M-15.5 -5.65 L-15.05 -2.15 -14.6 0.6 M49.85 -39.65 L52.25 -39.1 M-50.9 -11.25 Q-52.25 -9.05 -52.2 -6.55 L-52.2 -3.8 M-29.0 -4.95 L-29.8 -6.15 -32.95 -8.1 -47.45 -12.8 -50.9 -11.25 M-35.1 -14.65 L-36.65 -15.85 -38.15 -17.0 -47.45 -12.8 M-36.2 -17.85 L-34.35 -18.7 Q-31.85 -19.3 -29.95 -18.7 -24.0 -15.8 -18.05 -12.95 -16.45 -11.9 -16.2 -9.8 L-15.5 -5.65 M-36.65 -15.85 L-36.2 -17.85 M-35.1 -14.65 L-32.95 -8.1 M-21.7 21.7 L-22.3 20.3 -27.8 7.2 -29.0 -4.95 M-33.6 42.25 Q-30.65 42.9 -28.2 40.9 L-13.5 31.05 -13.75 29.5 -11.95 30.0 -11.9 30.0 M-52.2 3.85 L-52.2 31.55 -52.2 32.95 Q-52.3 34.0 -50.7 35.0 L-48.45 35.95 -33.6 42.25 M-52.2 3.85 L-51.1 2.9 M-47.05 28.0 L-42.0 23.7 -41.2 20.7 M-47.95 14.85 L-45.05 13.3 M-47.05 28.0 L-49.5 26.15 Q-50.85 23.15 -50.85 18.8 -49.4 15.25 -47.95 14.85" fill="none" stroke="#000000" stroke-linecap="round" stroke-linejoin="round" stroke-opacity="0.3882353" stroke-width="0.05"/>
    <path d="M-14.15 3.85 Q18.0 -19.45 52.0 -35.15 L52.25 -39.1 M51.45 -40.5 Q50.1 -42.0 47.0 -42.4 12.35 -24.6 -15.5 -5.65" fill="none" stroke="#000000" stroke-linecap="round" stroke-linejoin="round" stroke-opacity="0.3882353" stroke-width="0.05"/>
  </g>
</svg>
