<?xml version="1.0" encoding="UTF-8" standalone="no"?>
<svg xmlns:xlink="http://www.w3.org/1999/xlink" height="87.75px" width="58.0px" xmlns="http://www.w3.org/2000/svg">
  <g transform="matrix(1.0, 0.0, 0.0, 1.0, -174.5, -209.7)">
    <path d="M179.45 290.4 L226.7 211.95 Q230.65 214.1 232.4 217.2 225.8 226.65 220.1 236.4 203.3 265.4 194.25 297.35 L188.25 295.65 188.65 293.8 190.35 285.05 185.15 294.25 Q181.95 292.65 179.45 290.4" fill="#775100" fill-rule="evenodd" stroke="none"/>
    <path d="M179.45 290.4 Q176.6 288.0 174.6 284.9 L221.6 209.8 Q224.4 210.7 226.7 211.95 L179.45 290.4" fill="#996600" fill-rule="evenodd" stroke="none"/>
    <path d="M188.65 293.8 L185.25 294.3 185.15 294.25 190.35 285.05 188.65 293.8" fill="#513600" fill-rule="evenodd" stroke="none"/>
    <path d="M226.7 211.95 Q224.4 210.7 221.6 209.8 L174.6 284.9 Q176.6 288.0 179.45 290.4 181.95 292.65 185.15 294.25 L190.35 285.05 188.65 293.8 185.25 294.3 185.15 294.25 M226.7 211.95 Q230.65 214.1 232.4 217.2 225.8 226.65 220.1 236.4 203.3 265.4 194.25 297.35 L188.25 295.65 188.65 293.8" fill="none" stroke="#000000" stroke-linecap="round" stroke-linejoin="round" stroke-opacity="0.4" stroke-width="0.2"/>
  </g>
</svg>
