<?xml version="1.0" encoding="UTF-8" standalone="no"?>
<svg xmlns:xlink="http://www.w3.org/1999/xlink" height="44.85px" width="60.45px" xmlns="http://www.w3.org/2000/svg">
  <g transform="matrix(1.0, 0.0, 0.0, 1.0, -93.55, -91.25)">
    <path d="M153.0 125.8 Q137.65 134.1 133.1 135.85 128.55 137.55 112.05 126.85 95.55 116.1 94.1 112.6 92.6 109.0 95.1 107.65 97.55 106.25 101.85 106.85 L153.0 125.8" fill="#666666" fill-opacity="0.3529412" fill-rule="evenodd" stroke="none"/>
    <path d="M104.0 98.0 L112.0 93.0 Q114.95 91.15 118.0 94.0 L128.0 97.0 134.0 97.0 138.0 99.5 Q142.5 101.85 145.0 101.0 149.0 99.65 153.0 107.0 L153.0 125.0 131.0 134.0 101.0 115.0 Q102.4 105.45 102.0 103.0 101.75 101.45 102.85 99.6 L104.0 98.0" fill="#ae6b2b" fill-rule="evenodd" stroke="none"/>
    <path d="M104.0 98.0 L102.85 99.6 Q101.75 101.45 102.0 103.0 102.4 105.45 101.0 115.0 L131.0 134.0 153.0 125.0 153.0 107.0 Q149.0 99.65 145.0 101.0 142.5 101.85 138.0 99.5 L134.0 97.0 128.0 97.0 118.0 94.0 Q114.95 91.15 112.0 93.0 L104.0 98.0 Z" fill="none" stroke="#533a13" stroke-linecap="round" stroke-linejoin="round" stroke-width="2.0"/>
    <path d="M106.0 97.9 Q106.25 97.3 107.3 96.8 L107.85 96.6 108.2 96.7 108.15 96.25 Q111.15 94.6 114.35 93.4 L114.7 93.5 Q117.6 94.75 120.55 95.65 L121.15 96.55 Q121.55 96.9 121.6 97.3 L121.9 97.0 Q121.85 96.45 122.15 96.1 L128.0 97.3 Q128.1 98.15 126.1 99.0 125.2 99.35 124.8 98.5 L123.05 99.7 Q122.35 100.0 121.9 99.3 121.45 98.55 121.45 98.0 121.0 98.55 119.75 99.05 119.05 99.3 118.65 98.65 L118.35 98.05 118.25 97.9 Q118.45 98.85 116.4 99.7 115.7 100.0 115.25 99.3 L115.2 99.2 115.1 99.3 115.35 99.45 115.6 99.75 115.75 100.2 115.65 100.5 115.35 101.0 Q114.4 101.6 113.75 100.7 L113.65 100.1 113.5 100.15 113.5 100.35 Q113.9 100.9 113.5 101.6 114.3 102.6 112.35 104.0 L111.35 104.15 Q111.55 104.55 110.6 104.5 L110.45 104.4 Q110.25 103.95 110.7 103.7 L110.8 103.7 110.35 103.05 Q109.45 103.4 108.8 102.45 L108.75 102.35 108.35 102.55 Q109.1 102.9 108.2 103.4 L108.05 103.45 Q107.3 103.0 107.65 102.7 107.15 102.75 106.8 102.25 L106.7 102.1 Q106.25 102.35 105.65 102.1 L105.45 102.0 105.2 102.0 105.05 101.95 105.0 101.8 Q104.4 101.95 104.05 101.35 102.8 99.35 104.8 98.6 105.15 98.15 106.0 97.9 M117.9 97.2 L117.8 97.25 118.0 97.45 117.9 97.2 M143.5 103.15 L143.35 103.25 Q142.0 102.85 143.15 102.2 144.25 102.4 143.5 103.15 M143.3 104.8 L143.15 104.9 Q141.8 104.5 142.9 103.9 L142.95 103.85 Q144.05 104.05 143.3 104.8 M146.6 103.45 Q145.3 103.05 146.4 102.45 L146.4 102.4 Q147.55 102.6 146.8 103.35 L146.6 103.45 M142.55 127.9 L142.3 127.9 Q138.85 129.75 135.1 131.25 L132.0 132.3 Q131.15 132.55 130.65 133.0 L130.55 132.75 Q130.35 132.25 130.65 131.65 L131.05 131.1 131.15 128.05 Q131.15 127.45 131.3 126.9 L131.55 126.05 131.3 125.6 Q130.7 124.45 131.3 123.3 L131.35 123.2 Q131.65 122.6 132.2 122.4 131.25 120.65 133.55 120.0 134.85 120.55 135.15 121.2 L135.6 121.05 Q135.4 120.05 136.8 119.7 138.45 120.35 138.2 121.1 138.45 120.9 138.95 120.8 141.25 122.05 139.25 123.0 139.65 123.45 139.2 123.95 L139.35 124.05 139.5 123.5 Q139.75 122.8 140.5 122.75 143.75 123.55 142.45 126.2 143.5 127.0 142.45 127.7 L142.55 127.9 M137.3 104.3 L136.8 104.15 135.9 104.85 Q134.35 105.9 133.7 104.25 L132.9 105.1 Q132.0 105.85 131.2 105.55 L130.95 105.65 Q130.45 105.85 130.05 105.65 129.75 106.3 128.25 106.9 127.6 107.2 127.15 106.55 125.75 104.3 128.4 103.6 L129.2 104.1 Q129.05 102.75 130.9 102.35 L131.25 102.2 131.95 102.0 132.05 102.05 Q131.0 99.75 133.5 99.15 133.65 98.85 133.95 98.65 L135.75 99.85 Q138.45 101.0 141.2 101.4 141.05 102.15 139.85 103.0 L139.3 103.3 138.7 103.95 Q138.15 104.5 137.3 104.3 M141.2 103.85 Q140.0 103.65 140.85 102.75 L141.0 102.65 Q142.2 102.95 141.3 103.8 L141.2 103.85 M122.3 105.05 L122.75 105.2 123.0 105.3 123.2 105.6 123.35 106.1 123.3 106.4 123.0 106.85 Q122.0 107.5 121.4 106.55 121.2 106.15 121.3 105.75 L121.65 105.3 122.3 105.1 122.3 105.05 M124.7 104.95 L124.55 104.9 Q124.35 104.4 124.8 104.2 L125.0 104.1 Q126.1 105.0 124.7 104.95 M126.55 105.9 L126.75 106.2 126.9 106.65 126.8 106.95 126.55 107.45 125.75 107.7 124.95 107.9 124.8 107.8 Q124.65 107.4 124.95 107.2 L124.9 107.1 124.85 106.35 Q124.95 106.05 125.2 105.9 L125.85 105.65 125.85 105.6 126.25 105.75 126.55 105.9 M127.5 108.35 L127.7 108.25 Q128.8 109.15 127.4 109.1 L127.25 109.05 Q127.05 108.55 127.5 108.35 M138.7 119.5 Q138.05 117.95 139.75 117.55 142.35 118.9 139.65 119.95 139.0 120.2 138.7 119.5 M115.95 103.1 L116.1 103.6 116.0 103.9 115.75 104.35 Q114.75 105.0 114.1 104.05 L114.05 103.3 Q114.15 103.0 114.4 102.8 L115.05 102.6 115.05 102.55 115.45 102.7 115.75 102.8 115.95 103.1" fill="#8c5722" fill-rule="evenodd" stroke="none"/>
    <path d="M132.65 114.7 L133.0 111.0 140.0 111.0 Q141.8 110.95 144.0 108.0 144.55 107.25 148.35 107.05 L152.0 107.0 152.0 122.3 151.7 122.55 150.55 121.85 149.6 122.3 Q149.3 121.5 147.8 120.7 150.65 119.05 147.1 117.25 144.65 118.0 145.2 119.6 L145.15 119.75 143.9 118.95 Q141.75 119.65 142.0 121.0 L141.85 121.15 141.3 121.6 140.5 121.0 Q141.1 120.5 141.2 120.0 143.6 118.45 140.4 116.8 142.05 115.35 139.0 113.75 135.65 114.85 137.95 117.4 138.2 117.7 138.55 117.7 138.3 117.95 138.3 118.3 L137.8 118.65 Q137.9 118.15 137.45 117.6 L137.45 117.45 137.4 117.3 Q137.2 116.75 136.65 116.75 L136.45 116.8 136.25 116.7 Q137.6 115.25 135.85 114.1 L136.0 113.65 135.95 113.5 Q135.75 113.0 135.2 112.95 L134.95 113.0 134.45 113.45 134.45 113.65 134.3 113.7 Q133.1 114.0 132.65 114.7 M151.7 120.0 Q151.4 119.5 150.75 119.6 L150.45 119.75 Q149.9 120.0 150.0 120.55 150.45 121.4 151.4 121.05 L151.75 120.6 151.75 120.15 151.7 120.0 M146.05 120.9 L146.45 121.2 Q145.7 121.7 145.7 122.35 L145.7 122.4 145.3 122.0 Q146.0 121.4 145.9 120.8 L145.95 120.75 146.05 120.9 M143.05 116.85 L143.0 116.65 Q142.85 116.15 142.25 116.1 L142.0 116.15 Q141.65 116.3 141.55 116.6 141.3 117.5 142.25 117.65 L142.6 117.5 143.05 116.85 M144.15 115.5 Q143.75 115.6 143.65 115.95 143.45 116.8 144.4 117.0 L144.75 116.85 Q145.15 116.65 145.15 116.15 L145.1 116.0 Q144.95 115.5 144.4 115.45 L144.15 115.5 M142.45 113.65 L142.4 113.5 Q142.25 113.0 141.7 112.95 L141.45 113.0 Q141.05 113.1 140.95 113.45 140.75 114.35 141.7 114.5 141.85 114.45 142.05 114.35 142.45 114.15 142.45 113.65 M150.7 115.85 Q150.55 115.3 150.0 115.25 L149.75 115.35 149.25 115.8 Q149.05 116.65 150.0 116.85 L150.35 116.7 Q150.75 116.45 150.75 116.0 L150.7 115.85" fill="#d08840" fill-rule="evenodd" stroke="none"/>
    <path d="M132.65 114.7 Q133.1 114.0 134.3 113.7 L134.45 113.65 134.45 113.45 134.95 113.0 135.2 112.95 Q135.75 113.0 135.95 113.5 L136.0 113.65 135.85 114.1 Q137.6 115.25 136.25 116.7 L136.45 116.8 136.65 116.75 Q137.2 116.75 137.4 117.3 L137.45 117.45 137.45 117.6 Q137.9 118.15 137.8 118.65 L138.3 118.3 Q138.3 117.95 138.55 117.7 138.2 117.7 137.95 117.4 135.65 114.85 139.0 113.75 142.05 115.35 140.4 116.8 143.6 118.45 141.2 120.0 141.1 120.5 140.5 121.0 L141.3 121.6 141.85 121.15 142.0 121.0 Q141.75 119.65 143.9 118.95 L145.15 119.75 145.2 119.6 Q144.65 118.0 147.1 117.25 150.65 119.05 147.8 120.7 149.3 121.5 149.6 122.3 L150.55 121.85 151.7 122.55 150.3 124.3 Q146.45 126.25 142.55 127.9 L142.45 127.7 Q143.5 127.0 142.45 126.2 143.75 123.55 140.5 122.75 139.75 122.8 139.5 123.5 L139.35 124.05 139.2 123.95 Q139.65 123.45 139.25 123.0 141.25 122.05 138.95 120.8 138.45 120.9 138.2 121.1 138.45 120.35 136.8 119.7 135.4 120.05 135.6 121.05 L135.15 121.2 Q134.85 120.55 133.55 120.0 131.25 120.65 132.2 122.4 131.65 122.6 131.35 123.2 L131.3 123.3 131.15 121.85 131.15 121.8 131.1 121.75 131.05 121.45 131.05 118.85 Q131.15 118.05 131.75 117.1 L132.5 116.3 Q132.2 115.35 132.65 114.7 M150.7 115.85 L150.75 116.0 Q150.75 116.45 150.35 116.7 L150.0 116.85 Q149.05 116.65 149.25 115.8 L149.75 115.35 150.0 115.25 Q150.55 115.3 150.7 115.85 M142.45 113.65 Q142.45 114.15 142.05 114.35 141.85 114.45 141.7 114.5 140.75 114.35 140.95 113.45 141.05 113.1 141.45 113.0 L141.7 112.95 Q142.25 113.0 142.4 113.5 L142.45 113.65 M144.15 115.5 L144.4 115.45 Q144.95 115.5 145.1 116.0 L145.15 116.15 Q145.15 116.65 144.75 116.85 L144.4 117.0 Q143.45 116.8 143.65 115.95 143.75 115.6 144.15 115.5 M143.05 116.85 L142.6 117.5 142.25 117.65 Q141.3 117.5 141.55 116.6 141.65 116.3 142.0 116.15 L142.25 116.1 Q142.85 116.15 143.0 116.65 L143.05 116.85 M146.05 120.9 L145.95 120.75 145.9 120.8 Q146.0 121.4 145.3 122.0 L145.7 122.4 145.7 122.35 Q145.7 121.7 146.45 121.2 L146.05 120.9 M151.7 120.0 L151.75 120.15 151.75 120.6 151.4 121.05 Q150.45 121.4 150.0 120.55 149.9 120.0 150.45 119.75 L150.75 119.6 Q151.4 119.5 151.7 120.0 M131.3 126.9 L131.3 125.6 131.55 126.05 131.3 126.9 M138.7 119.5 Q139.0 120.2 139.65 119.95 142.35 118.9 139.75 117.55 138.05 117.95 138.7 119.5 M151.3 126.95 L151.25 126.9 151.4 126.8 151.3 126.95" fill="#ae6b2b" fill-rule="evenodd" stroke="none"/>
    <path d="M130.55 132.75 L128.35 131.15 127.9 130.9 127.85 130.85 120.5 126.25 120.55 126.2 Q123.7 125.0 120.65 123.4 L120.5 123.45 Q121.25 121.6 118.15 120.45 117.7 120.55 117.3 120.8 L117.2 120.9 116.7 121.2 116.45 121.0 Q116.55 120.35 116.15 119.8 L116.2 119.6 Q117.65 118.55 115.25 117.35 L115.15 117.4 Q115.7 116.6 114.0 115.65 L114.15 115.6 Q117.3 114.4 114.3 112.85 112.25 113.25 113.05 115.1 L113.5 115.65 Q113.15 115.75 112.95 115.9 112.7 115.2 111.75 114.65 L111.9 113.45 Q112.4 112.7 111.05 111.9 113.55 110.7 110.75 109.25 L110.35 109.35 109.3 108.7 Q110.85 107.55 108.35 106.5 108.65 104.9 105.9 103.9 105.55 103.95 105.25 104.15 104.95 103.05 102.95 102.3 L103.0 102.0 131.0 112.0 131.05 118.85 131.05 121.45 130.6 120.35 Q131.05 124.15 131.15 128.05 L131.05 131.1 130.65 131.65 Q130.35 132.25 130.55 132.75 M123.35 121.5 L123.15 121.55 Q122.7 121.8 122.9 122.3 L123.05 122.35 Q124.45 122.4 123.35 121.5 M123.05 123.05 Q122.9 122.55 122.3 122.5 L122.05 122.55 Q121.7 122.65 121.6 123.0 121.35 123.9 122.3 124.05 L122.65 123.9 123.1 123.2 123.05 123.05 M122.5 117.25 L122.45 117.1 Q122.25 116.55 121.7 116.5 L121.45 116.6 120.95 117.05 Q120.75 117.9 121.7 118.1 L122.05 117.95 Q122.45 117.7 122.5 117.25 M123.65 126.6 Q123.45 127.45 124.4 127.65 L124.75 127.5 125.2 126.8 125.15 126.65 Q124.95 126.1 124.4 126.05 L124.15 126.15 123.65 126.6 M107.1 108.8 L107.35 109.1 106.75 109.65 106.15 108.95 106.9 108.55 106.95 108.5 107.1 108.8 M118.65 110.3 L118.45 110.35 Q117.95 110.6 118.15 111.05 L118.35 111.15 Q119.7 111.2 118.65 110.3 M114.75 106.85 Q114.6 106.35 114.0 106.3 L113.75 106.35 Q113.4 106.45 113.3 106.8 113.05 107.7 114.0 107.85 L114.35 107.7 114.8 107.0 114.75 106.85 M116.55 118.0 Q116.85 118.8 117.6 118.5 120.75 117.3 117.75 115.75 115.7 116.15 116.55 118.0 M119.2 119.05 L119.0 119.15 Q118.55 119.35 118.75 119.85 L118.9 119.9 Q120.3 119.95 119.2 119.05 M120.55 119.9 Q121.95 119.95 120.85 119.05 L120.65 119.15 Q120.2 119.35 120.4 119.85 L120.55 119.9 M113.25 112.2 Q113.6 113.0 114.35 112.7 117.5 111.5 114.5 109.95 112.45 110.35 113.25 112.2 M116.7 115.2 L116.85 115.3 Q118.25 115.35 117.2 114.45 L117.0 114.5 Q116.5 114.75 116.7 115.2 M116.85 112.8 Q118.25 112.85 117.2 111.95 L117.0 112.0 Q116.5 112.25 116.7 112.75 L116.85 112.8 M118.85 114.25 L118.65 114.3 Q118.15 114.55 118.4 115.0 L118.55 115.1 Q119.95 115.1 118.85 114.25" fill="#7e4f1f" fill-rule="evenodd" stroke="none"/>
    <path d="M120.5 126.25 L120.45 126.25 Q120.1 125.75 116.7 124.55 L112.0 121.35 Q104.4 117.3 101.35 115.0 102.45 110.0 102.05 107.65 101.8 106.15 102.2 104.7 102.6 103.35 102.4 102.35 L102.8 102.25 102.95 102.3 Q104.95 103.05 105.25 104.15 105.55 103.95 105.9 103.9 108.65 104.9 108.35 106.5 110.85 107.55 109.3 108.7 L110.35 109.35 110.75 109.25 Q113.55 110.7 111.05 111.9 112.4 112.7 111.9 113.45 L111.75 114.65 Q112.7 115.2 112.95 115.9 113.15 115.75 113.5 115.65 L113.05 115.1 Q112.25 113.25 114.3 112.85 117.3 114.4 114.15 115.6 L114.0 115.65 Q115.7 116.6 115.15 117.4 L115.25 117.35 Q117.65 118.55 116.2 119.6 L116.15 119.8 Q116.55 120.35 116.45 121.0 L116.7 121.2 117.2 120.9 117.3 120.8 Q117.7 120.55 118.15 120.45 121.25 121.6 120.5 123.45 L120.65 123.4 Q123.7 125.0 120.55 126.2 L120.5 126.25 M122.5 117.25 Q122.45 117.7 122.05 117.95 L121.7 118.1 Q120.75 117.9 120.95 117.05 L121.45 116.6 121.7 116.5 Q122.25 116.55 122.45 117.1 L122.5 117.25 M123.05 123.05 L123.1 123.2 122.65 123.9 122.3 124.05 Q121.35 123.9 121.6 123.0 121.7 122.65 122.05 122.55 L122.3 122.5 Q122.9 122.55 123.05 123.05 M123.35 121.5 Q124.45 122.4 123.05 122.35 L122.9 122.3 Q122.7 121.8 123.15 121.55 L123.35 121.5 M123.65 126.6 L124.15 126.15 124.4 126.05 Q124.95 126.1 125.15 126.65 L125.2 126.8 124.75 127.5 124.4 127.65 Q123.45 127.45 123.65 126.6 M114.75 106.85 L114.8 107.0 114.35 107.7 114.0 107.85 Q113.05 107.7 113.3 106.8 113.4 106.45 113.75 106.35 L114.0 106.3 Q114.6 106.35 114.75 106.85 M118.65 110.3 Q119.7 111.2 118.35 111.15 L118.15 111.05 Q117.95 110.6 118.45 110.35 L118.65 110.3 M107.1 108.8 L106.95 108.5 106.9 108.55 106.15 108.95 106.75 109.65 107.35 109.1 107.1 108.8 M102.25 117.3 L102.25 117.25 102.6 117.6 102.25 117.3 M118.85 114.25 Q119.95 115.1 118.55 115.1 L118.4 115.0 Q118.15 114.55 118.65 114.3 L118.85 114.25 M116.85 112.8 L116.7 112.75 Q116.5 112.25 117.0 112.0 L117.2 111.95 Q118.25 112.85 116.85 112.8 M116.7 115.2 Q116.5 114.75 117.0 114.5 L117.2 114.45 Q118.25 115.35 116.85 115.3 L116.7 115.2 M113.25 112.2 Q112.45 110.35 114.5 109.95 117.5 111.5 114.35 112.7 113.6 113.0 113.25 112.2 M120.55 119.9 L120.4 119.85 Q120.2 119.35 120.65 119.15 L120.85 119.05 Q121.95 119.95 120.55 119.9 M119.2 119.05 Q120.3 119.95 118.9 119.9 L118.75 119.85 Q118.55 119.35 119.0 119.15 L119.2 119.05 M116.55 118.0 Q115.7 116.15 117.75 115.75 120.75 117.3 117.6 118.5 116.85 118.8 116.55 118.0" fill="#472c12" fill-rule="evenodd" stroke="none"/>
    <path d="M102.95 102.3 L103.0 102.0 M101.05 115.05 L101.1 114.7" fill="none" stroke="#674318" stroke-linecap="round" stroke-linejoin="round" stroke-width="2.0"/>
    <path d="M141.6 128.4 L152.0 124.0 152.0 107.0 148.35 107.05 Q144.55 107.25 144.0 108.0 141.8 110.95 140.0 111.0 L133.0 111.0 131.05 130.5 131.05 130.95 M103.0 102.0 L131.0 112.0 131.05 130.5" fill="none" stroke="#000000" stroke-linecap="round" stroke-linejoin="round" stroke-opacity="0.5019608" stroke-width="0.05"/>
    <path d="M111.25 98.1 Q112.65 98.15 111.6 97.25 L111.4 97.35 111.05 97.75 110.75 97.45 110.55 97.55 Q110.2 97.7 110.25 98.05 109.9 98.2 110.05 98.65 L110.25 98.75 Q111.25 98.75 110.95 98.3 L111.25 98.1 M109.0 98.0 L114.0 96.0 111.0 99.0 109.0 102.0 109.0 98.0 M123.0 98.0 L129.0 100.0 125.0 100.0 126.0 101.0 119.0 102.0 116.0 104.0 116.0 101.0 119.0 98.0 123.0 98.0 M139.45 102.6 L141.0 103.0 142.0 103.0 137.0 107.0 128.0 108.0 129.0 105.0 136.0 104.0 137.0 102.0 138.95 102.5 Q138.5 102.75 138.75 103.2 L138.9 103.25 Q140.1 103.3 139.45 102.6 M119.05 100.8 Q119.7 101.15 120.3 100.55 L120.35 100.4 Q120.55 99.7 119.9 99.5 119.4 99.6 118.95 99.95 L118.9 100.25 118.95 100.65 118.65 100.4 118.45 100.45 Q117.95 100.65 118.15 101.15 L118.35 101.25 Q119.35 101.25 119.05 100.8 M120.55 101.45 Q121.95 101.45 120.85 100.6 L120.65 100.65 Q120.2 100.85 120.4 101.35 L120.55 101.45 M120.4 99.7 L120.55 99.8 Q121.95 99.8 120.85 98.9 L120.65 99.0 Q120.2 99.2 120.4 99.7 M129.9 106.65 Q131.3 106.65 130.2 105.75 L130.0 105.85 Q129.55 106.05 129.75 106.55 L129.9 106.65 M122.25 100.0 Q123.65 100.0 122.6 99.15 L122.4 99.2 Q121.9 99.4 122.1 99.9 L122.25 100.0 M122.8 100.15 L122.6 100.25 Q122.1 100.45 122.3 100.95 L122.5 101.05 Q123.85 101.05 122.8 100.15 M124.8 99.15 L124.6 99.2 Q124.15 99.4 124.35 99.9 L124.5 100.0 Q125.9 100.0 124.8 99.15 M131.45 104.75 L131.25 104.8 Q130.8 105.05 131.0 105.5 L131.15 105.6 Q132.55 105.6 131.45 104.75 M133.5 106.15 L133.65 106.2 Q135.05 106.25 133.95 105.35 L133.75 105.45 Q133.25 105.65 133.5 106.15 M135.55 106.7 Q136.35 106.0 135.2 105.75 L135.2 105.8 Q134.1 106.4 135.4 106.8 L135.55 106.7 M136.45 105.65 Q135.95 105.85 136.2 106.35 L136.35 106.4 Q137.75 106.45 136.65 105.55 L136.45 105.65 M135.15 104.8 L134.85 104.55 134.65 104.6 Q134.15 104.8 134.35 105.3 L134.5 105.4 Q135.55 105.4 135.25 104.95 L135.3 104.95 Q136.7 105.0 135.6 104.1 L135.4 104.2 Q135.0 104.4 135.15 104.8 M136.4 104.9 L136.55 104.95 Q137.95 105.0 136.85 104.1 L136.65 104.2 Q136.2 104.4 136.4 104.9 M139.7 104.4 Q140.8 103.9 139.75 103.3 L139.6 103.35 Q138.95 103.8 139.45 104.35 L139.7 104.4 M137.9 103.65 L137.7 103.7 Q137.2 103.95 137.45 104.4 L137.6 104.5 Q139.0 104.55 137.9 103.65 M137.55 102.75 Q137.05 102.95 137.25 103.45 L137.45 103.5 Q138.8 103.55 137.75 102.65 L137.55 102.75" fill="#ebcb98" fill-rule="evenodd" stroke="none"/>
    <path d="M111.25 98.1 L110.95 98.3 Q111.25 98.75 110.25 98.75 L110.05 98.65 Q109.9 98.2 110.25 98.05 110.2 97.7 110.55 97.55 L110.75 97.45 111.05 97.75 111.4 97.35 111.6 97.25 Q112.65 98.15 111.25 98.1 M138.95 102.5 L139.0 102.45 139.2 102.4 139.45 102.6 Q140.1 103.3 138.9 103.25 L138.75 103.2 Q138.5 102.75 138.95 102.5 M137.55 102.75 L137.75 102.65 Q138.8 103.55 137.45 103.5 L137.25 103.45 Q137.05 102.95 137.55 102.75 M137.9 103.65 Q139.0 104.55 137.6 104.5 L137.45 104.4 Q137.2 103.95 137.7 103.7 L137.9 103.65 M139.7 104.4 L139.45 104.35 Q138.95 103.8 139.6 103.35 L139.75 103.3 Q140.8 103.9 139.7 104.4 M136.4 104.9 Q136.2 104.4 136.65 104.2 L136.85 104.1 Q137.95 105.0 136.55 104.95 L136.4 104.9 M135.15 104.8 Q135.0 104.4 135.4 104.2 L135.6 104.1 Q136.7 105.0 135.3 104.95 L135.25 104.95 Q135.55 105.4 134.5 105.4 L134.35 105.3 Q134.15 104.8 134.65 104.6 L134.85 104.55 135.15 104.8 M136.45 105.65 L136.65 105.55 Q137.75 106.45 136.35 106.4 L136.2 106.35 Q135.95 105.85 136.45 105.65 M135.55 106.7 L135.4 106.8 Q134.1 106.4 135.2 105.8 L135.2 105.75 Q136.35 106.0 135.55 106.7 M133.5 106.15 Q133.25 105.65 133.75 105.45 L133.95 105.35 Q135.05 106.25 133.65 106.2 L133.5 106.15 M131.45 104.75 Q132.55 105.6 131.15 105.6 L131.0 105.5 Q130.8 105.05 131.25 104.8 L131.45 104.75 M124.8 99.15 Q125.9 100.0 124.5 100.0 L124.35 99.9 Q124.15 99.4 124.6 99.2 L124.8 99.15 M122.8 100.15 Q123.85 101.05 122.5 101.05 L122.3 100.95 Q122.1 100.45 122.6 100.25 L122.8 100.15 M122.25 100.0 L122.1 99.9 Q121.9 99.4 122.4 99.2 L122.6 99.15 Q123.65 100.0 122.25 100.0 M129.9 106.65 L129.75 106.55 Q129.55 106.05 130.0 105.85 L130.2 105.75 Q131.3 106.65 129.9 106.65 M120.4 99.7 Q120.2 99.2 120.65 99.0 L120.85 98.9 Q121.95 99.8 120.55 99.8 L120.4 99.7 M120.55 101.45 L120.4 101.35 Q120.2 100.85 120.65 100.65 L120.85 100.6 Q121.95 101.45 120.55 101.45 M119.05 100.8 Q119.35 101.25 118.35 101.25 L118.15 101.15 Q117.95 100.65 118.45 100.45 L118.65 100.4 118.95 100.65 118.9 100.25 118.95 99.95 Q119.4 99.6 119.9 99.5 120.55 99.7 120.35 100.4 L120.3 100.55 Q119.7 101.15 119.05 100.8" fill="#fbf1ea" fill-rule="evenodd" stroke="none"/>
    <path d="M109.0 98.0 L109.0 102.0 111.0 99.0 114.0 96.0 109.0 98.0 M123.0 98.0 L129.0 100.0 125.0 100.0 126.0 101.0 119.0 102.0 116.0 104.0 116.0 101.0 119.0 98.0 123.0 98.0 M139.45 102.6 L141.0 103.0 142.0 103.0 137.0 107.0 128.0 108.0 129.0 105.0 136.0 104.0 137.0 102.0 138.95 102.5" fill="none" stroke="#000000" stroke-linecap="round" stroke-linejoin="round" stroke-opacity="0.5019608" stroke-width="0.05"/>
    <path d="M153.0 125.8 Q137.65 134.1 133.1 135.85 128.55 137.55 112.05 126.85 95.55 116.1 94.1 112.6 92.6 109.0 95.1 107.65 97.55 106.25 101.85 106.85 L153.0 125.8" fill="#666666" fill-opacity="0.3529412" fill-rule="evenodd" stroke="none"/>
    <path d="M104.0 98.0 L112.0 93.0 Q114.95 91.15 118.0 94.0 L128.0 97.0 134.0 97.0 138.0 99.5 Q142.5 101.85 145.0 101.0 149.0 99.65 153.0 107.0 L153.0 125.0 131.0 134.0 101.0 115.0 Q102.4 105.45 102.0 103.0 101.75 101.45 102.85 99.6 L104.0 98.0" fill="#ae6b2b" fill-rule="evenodd" stroke="none"/>
    <path d="M104.0 98.0 L102.85 99.6 Q101.75 101.45 102.0 103.0 102.4 105.45 101.0 115.0 L131.0 134.0 153.0 125.0 153.0 107.0 Q149.0 99.65 145.0 101.0 142.5 101.85 138.0 99.5 L134.0 97.0 128.0 97.0 118.0 94.0 Q114.95 91.15 112.0 93.0 L104.0 98.0 Z" fill="none" stroke="#533a13" stroke-linecap="round" stroke-linejoin="round" stroke-width="2.0"/>
    <path d="M106.0 97.9 Q106.25 97.3 107.3 96.8 L107.85 96.6 108.2 96.7 108.15 96.25 Q111.15 94.6 114.35 93.4 L114.7 93.5 Q117.6 94.75 120.55 95.65 L121.15 96.55 Q121.55 96.9 121.6 97.3 L121.9 97.0 Q121.85 96.45 122.15 96.1 L128.0 97.3 Q128.1 98.15 126.1 99.0 125.2 99.35 124.8 98.5 L123.05 99.7 Q122.35 100.0 121.9 99.3 121.45 98.55 121.45 98.0 121.0 98.55 119.75 99.05 119.05 99.3 118.65 98.65 L118.35 98.05 118.25 97.9 Q118.45 98.85 116.4 99.7 115.7 100.0 115.25 99.3 L115.2 99.2 115.1 99.3 115.35 99.45 115.6 99.75 115.75 100.2 115.65 100.5 115.35 101.0 Q114.4 101.6 113.75 100.7 L113.65 100.1 113.5 100.15 113.5 100.35 Q113.9 100.9 113.5 101.6 114.3 102.6 112.35 104.0 L111.35 104.15 Q111.55 104.55 110.6 104.5 L110.45 104.4 Q110.25 103.95 110.7 103.7 L110.8 103.7 110.35 103.05 Q109.45 103.4 108.8 102.45 L108.75 102.35 108.35 102.55 Q109.1 102.9 108.2 103.4 L108.05 103.45 Q107.3 103.0 107.65 102.7 107.15 102.75 106.8 102.25 L106.7 102.1 Q106.25 102.35 105.65 102.1 L105.45 102.0 105.2 102.0 105.05 101.95 105.0 101.8 Q104.4 101.95 104.05 101.35 102.8 99.35 104.8 98.6 105.15 98.15 106.0 97.9 M117.9 97.2 L117.8 97.25 118.0 97.45 117.9 97.2 M143.3 104.8 L143.15 104.9 Q141.8 104.5 142.9 103.9 L142.95 103.85 Q144.05 104.05 143.3 104.8 M143.5 103.15 L143.35 103.25 Q142.0 102.85 143.15 102.2 144.25 102.4 143.5 103.15 M146.6 103.45 Q145.3 103.05 146.4 102.45 L146.4 102.4 Q147.55 102.6 146.8 103.35 L146.6 103.45 M142.55 127.9 L142.3 127.9 Q138.85 129.75 135.1 131.25 L132.0 132.3 Q131.15 132.55 130.65 133.0 L130.55 132.75 Q130.35 132.25 130.65 131.65 L131.05 131.1 131.15 128.05 Q131.15 127.45 131.3 126.9 L131.55 126.05 131.3 125.6 Q130.7 124.45 131.3 123.3 L131.35 123.2 Q131.65 122.6 132.2 122.4 131.25 120.65 133.55 120.0 134.85 120.55 135.15 121.2 L135.6 121.05 Q135.4 120.05 136.8 119.7 138.45 120.35 138.2 121.1 138.45 120.9 138.95 120.8 141.25 122.05 139.25 123.0 139.65 123.45 139.2 123.95 L139.35 124.05 139.5 123.5 Q139.75 122.8 140.5 122.75 143.75 123.55 142.45 126.2 143.5 127.0 142.45 127.7 L142.55 127.9 M136.8 104.15 L135.9 104.85 Q134.35 105.9 133.7 104.25 L132.9 105.1 Q132.0 105.85 131.2 105.55 L130.95 105.65 Q130.45 105.85 130.05 105.65 129.75 106.3 128.25 106.9 127.6 107.2 127.15 106.55 125.75 104.3 128.4 103.6 L129.2 104.1 Q129.05 102.75 130.9 102.35 L131.25 102.2 131.95 102.0 132.05 102.05 Q131.0 99.75 133.5 99.15 133.65 98.85 133.95 98.65 L135.75 99.85 Q138.45 101.0 141.2 101.4 141.05 102.15 139.85 103.0 L139.3 103.3 138.7 103.95 Q138.15 104.5 137.3 104.3 L136.8 104.15 M140.85 102.75 L141.0 102.65 Q142.2 102.95 141.3 103.8 L141.2 103.85 Q140.0 103.65 140.85 102.75 M124.7 104.95 L124.55 104.9 Q124.35 104.4 124.8 104.2 L125.0 104.1 Q126.1 105.0 124.7 104.95 M122.3 105.05 L122.75 105.2 123.0 105.3 123.2 105.6 123.35 106.1 123.3 106.4 123.0 106.85 Q122.0 107.5 121.4 106.55 121.2 106.15 121.3 105.75 L121.65 105.3 122.3 105.1 122.3 105.05 M126.55 105.9 L126.75 106.2 126.9 106.65 126.8 106.95 126.55 107.45 125.75 107.7 124.95 107.9 124.8 107.8 Q124.65 107.4 124.95 107.2 L124.9 107.1 124.85 106.35 Q124.95 106.05 125.2 105.9 L125.85 105.65 125.85 105.6 126.25 105.75 126.55 105.9 M127.5 108.35 L127.7 108.25 Q128.8 109.15 127.4 109.1 L127.25 109.05 Q127.05 108.55 127.5 108.35 M138.7 119.5 Q138.05 117.95 139.75 117.55 142.35 118.9 139.65 119.95 139.0 120.2 138.7 119.5 M115.95 103.1 L116.1 103.6 116.0 103.9 115.75 104.35 Q114.75 105.0 114.1 104.05 L114.05 103.3 Q114.15 103.0 114.4 102.8 L115.05 102.6 115.05 102.55 115.45 102.7 115.75 102.8 115.95 103.1" fill="#8c5722" fill-rule="evenodd" stroke="none"/>
    <path d="M132.65 114.7 L133.0 111.0 140.0 111.0 Q141.8 110.95 144.0 108.0 144.55 107.25 148.35 107.05 L152.0 107.0 152.0 122.3 151.7 122.55 150.55 121.85 149.6 122.3 Q149.3 121.5 147.8 120.7 150.65 119.05 147.1 117.25 144.65 118.0 145.2 119.6 L145.15 119.75 143.9 118.95 Q141.75 119.65 142.0 121.0 L141.85 121.15 141.3 121.6 140.5 121.0 Q141.1 120.5 141.2 120.0 143.6 118.45 140.4 116.8 142.05 115.35 139.0 113.75 135.65 114.85 137.95 117.4 138.2 117.7 138.55 117.7 138.3 117.95 138.3 118.3 L137.8 118.65 Q137.9 118.15 137.45 117.6 L137.45 117.45 137.4 117.3 Q137.2 116.75 136.65 116.75 L136.45 116.8 136.25 116.7 Q137.6 115.25 135.85 114.1 L136.0 113.65 135.95 113.5 Q135.75 113.0 135.2 112.95 L134.95 113.0 134.45 113.45 134.45 113.65 134.3 113.7 Q133.1 114.0 132.65 114.7 M151.7 120.0 Q151.4 119.5 150.75 119.6 L150.45 119.75 Q149.9 120.0 150.0 120.55 150.45 121.4 151.4 121.05 L151.75 120.6 151.75 120.15 151.7 120.0 M146.05 120.9 L146.45 121.2 Q145.7 121.7 145.7 122.35 L145.7 122.4 145.3 122.0 Q146.0 121.4 145.9 120.8 L145.95 120.75 146.05 120.9 M144.15 115.5 Q143.75 115.6 143.65 115.95 143.45 116.8 144.4 117.0 L144.75 116.85 Q145.15 116.65 145.15 116.15 L145.1 116.0 Q144.95 115.5 144.4 115.45 L144.15 115.5 M143.05 116.85 L143.0 116.65 Q142.85 116.15 142.25 116.1 L142.0 116.15 Q141.65 116.3 141.55 116.6 141.3 117.5 142.25 117.65 L142.6 117.5 143.05 116.85 M142.05 114.35 Q142.45 114.15 142.45 113.65 L142.4 113.5 Q142.25 113.0 141.7 112.95 L141.45 113.0 Q141.05 113.1 140.95 113.45 140.75 114.35 141.7 114.5 141.85 114.45 142.05 114.35 M150.7 115.85 Q150.55 115.3 150.0 115.25 L149.75 115.35 149.25 115.8 Q149.05 116.65 150.0 116.85 L150.35 116.7 Q150.75 116.45 150.75 116.0 L150.7 115.85" fill="#d08840" fill-rule="evenodd" stroke="none"/>
    <path d="M132.65 114.7 Q133.1 114.0 134.3 113.7 L134.45 113.65 134.45 113.45 134.95 113.0 135.2 112.95 Q135.75 113.0 135.95 113.5 L136.0 113.65 135.85 114.1 Q137.6 115.25 136.25 116.7 L136.45 116.8 136.65 116.75 Q137.2 116.75 137.4 117.3 L137.45 117.45 137.45 117.6 Q137.9 118.15 137.8 118.65 L138.3 118.3 Q138.3 117.95 138.55 117.7 138.2 117.7 137.95 117.4 135.65 114.85 139.0 113.75 142.05 115.35 140.4 116.8 143.6 118.45 141.2 120.0 141.1 120.5 140.5 121.0 L141.3 121.6 141.85 121.15 142.0 121.0 Q141.75 119.65 143.9 118.95 L145.15 119.75 145.2 119.6 Q144.65 118.0 147.1 117.25 150.65 119.05 147.8 120.7 149.3 121.5 149.6 122.3 L150.55 121.85 151.7 122.55 150.3 124.3 Q146.45 126.25 142.55 127.9 L142.45 127.7 Q143.5 127.0 142.45 126.2 143.75 123.55 140.5 122.75 139.75 122.8 139.5 123.5 L139.35 124.05 139.2 123.95 Q139.65 123.45 139.25 123.0 141.25 122.05 138.95 120.8 138.45 120.9 138.2 121.1 138.45 120.35 136.8 119.7 135.4 120.05 135.6 121.05 L135.15 121.2 Q134.85 120.55 133.55 120.0 131.25 120.65 132.2 122.4 131.65 122.6 131.35 123.2 L131.3 123.3 131.15 121.85 131.15 121.8 131.1 121.75 131.05 121.45 131.05 118.85 Q131.15 118.05 131.75 117.1 L132.5 116.3 Q132.2 115.35 132.65 114.7 M150.7 115.85 L150.75 116.0 Q150.75 116.45 150.35 116.7 L150.0 116.85 Q149.05 116.65 149.25 115.8 L149.75 115.35 150.0 115.25 Q150.55 115.3 150.7 115.85 M142.05 114.35 Q141.85 114.45 141.7 114.5 140.75 114.35 140.95 113.45 141.05 113.1 141.45 113.0 L141.7 112.95 Q142.25 113.0 142.4 113.5 L142.45 113.65 Q142.45 114.15 142.05 114.35 M143.05 116.85 L142.6 117.5 142.25 117.65 Q141.3 117.5 141.55 116.6 141.65 116.3 142.0 116.15 L142.25 116.1 Q142.85 116.15 143.0 116.65 L143.05 116.85 M144.15 115.5 L144.4 115.45 Q144.95 115.5 145.1 116.0 L145.15 116.15 Q145.15 116.65 144.75 116.85 L144.4 117.0 Q143.45 116.8 143.65 115.95 143.75 115.6 144.15 115.5 M146.05 120.9 L145.95 120.75 145.9 120.8 Q146.0 121.4 145.3 122.0 L145.7 122.4 145.7 122.35 Q145.7 121.7 146.45 121.2 L146.05 120.9 M151.7 120.0 L151.75 120.15 151.75 120.6 151.4 121.05 Q150.45 121.4 150.0 120.55 149.9 120.0 150.45 119.75 L150.75 119.6 Q151.4 119.5 151.7 120.0 M131.3 126.9 L131.3 125.6 131.55 126.05 131.3 126.9 M138.7 119.5 Q139.0 120.2 139.65 119.95 142.35 118.9 139.75 117.55 138.05 117.95 138.7 119.5 M151.3 126.95 L151.25 126.9 151.4 126.8 151.3 126.95" fill="#ae6b2b" fill-rule="evenodd" stroke="none"/>
    <path d="M130.55 132.75 L128.35 131.15 127.9 130.9 127.85 130.85 120.5 126.25 120.55 126.2 Q123.7 125.0 120.65 123.4 L120.5 123.45 Q121.25 121.6 118.15 120.45 117.7 120.55 117.3 120.8 L117.2 120.9 116.7 121.2 116.45 121.0 Q116.55 120.35 116.15 119.8 L116.2 119.6 Q117.65 118.55 115.25 117.35 L115.15 117.4 Q115.7 116.6 114.0 115.65 L114.15 115.6 Q117.3 114.4 114.3 112.85 112.25 113.25 113.05 115.1 L113.5 115.65 Q113.15 115.75 112.95 115.9 112.7 115.2 111.75 114.65 L111.9 113.45 Q112.4 112.7 111.05 111.9 113.55 110.7 110.75 109.25 L110.35 109.35 109.3 108.7 Q110.85 107.55 108.35 106.5 108.65 104.9 105.9 103.9 105.55 103.95 105.25 104.15 104.95 103.05 102.95 102.3 L103.0 102.0 131.0 112.0 131.05 118.85 131.05 121.45 130.6 120.35 Q131.05 124.15 131.15 128.05 L131.05 131.1 130.65 131.65 Q130.35 132.25 130.55 132.75 M123.05 123.05 Q122.9 122.55 122.3 122.5 L122.05 122.55 Q121.7 122.65 121.6 123.0 121.35 123.9 122.3 124.05 L122.65 123.9 123.1 123.2 123.05 123.05 M123.05 122.35 Q124.45 122.4 123.35 121.5 L123.15 121.55 Q122.7 121.8 122.9 122.3 L123.05 122.35 M122.45 117.1 Q122.25 116.55 121.7 116.5 L121.45 116.6 120.95 117.05 Q120.75 117.9 121.7 118.1 L122.05 117.95 Q122.45 117.7 122.5 117.25 L122.45 117.1 M123.65 126.6 Q123.45 127.45 124.4 127.65 L124.75 127.5 125.2 126.8 125.15 126.65 Q124.95 126.1 124.4 126.05 L124.15 126.15 123.65 126.6 M107.1 108.8 L107.35 109.1 106.75 109.65 106.15 108.95 106.9 108.55 106.95 108.5 107.1 108.8 M118.65 110.3 L118.45 110.35 Q117.95 110.6 118.15 111.05 L118.35 111.15 Q119.7 111.2 118.65 110.3 M114.75 106.85 Q114.6 106.35 114.0 106.3 L113.75 106.35 Q113.4 106.45 113.3 106.8 113.05 107.7 114.0 107.85 L114.35 107.7 114.8 107.0 114.75 106.85 M116.55 118.0 Q116.85 118.8 117.6 118.5 120.75 117.3 117.75 115.75 115.7 116.15 116.55 118.0 M120.4 119.85 L120.55 119.9 Q121.95 119.95 120.85 119.05 L120.65 119.15 Q120.2 119.35 120.4 119.85 M119.2 119.05 L119.0 119.15 Q118.55 119.35 118.75 119.85 L118.9 119.9 Q120.3 119.95 119.2 119.05 M113.25 112.2 Q113.6 113.0 114.35 112.7 117.5 111.5 114.5 109.95 112.45 110.35 113.25 112.2 M116.7 115.2 L116.85 115.3 Q118.25 115.35 117.2 114.45 L117.0 114.5 Q116.5 114.75 116.7 115.2 M116.7 112.75 L116.85 112.8 Q118.25 112.85 117.2 111.95 L117.0 112.0 Q116.5 112.25 116.7 112.75 M118.85 114.25 L118.65 114.3 Q118.15 114.55 118.4 115.0 L118.55 115.1 Q119.95 115.1 118.85 114.25" fill="#7e4f1f" fill-rule="evenodd" stroke="none"/>
    <path d="M120.5 126.25 L120.45 126.25 Q120.1 125.75 116.7 124.55 L112.0 121.35 Q104.4 117.3 101.35 115.0 102.45 110.0 102.05 107.65 101.8 106.15 102.2 104.7 102.6 103.35 102.4 102.35 L102.8 102.25 102.95 102.3 Q104.95 103.05 105.25 104.15 105.55 103.95 105.9 103.9 108.65 104.9 108.35 106.5 110.85 107.55 109.3 108.7 L110.35 109.35 110.75 109.25 Q113.55 110.7 111.05 111.9 112.4 112.7 111.9 113.45 L111.75 114.65 Q112.7 115.2 112.95 115.9 113.15 115.75 113.5 115.65 L113.05 115.1 Q112.25 113.25 114.3 112.85 117.3 114.4 114.15 115.6 L114.0 115.65 Q115.7 116.6 115.15 117.4 L115.25 117.35 Q117.65 118.55 116.2 119.6 L116.15 119.8 Q116.55 120.35 116.45 121.0 L116.7 121.2 117.2 120.9 117.3 120.8 Q117.7 120.55 118.15 120.45 121.25 121.6 120.5 123.45 L120.65 123.4 Q123.7 125.0 120.55 126.2 L120.5 126.25 M122.45 117.1 L122.5 117.25 Q122.45 117.7 122.05 117.95 L121.7 118.1 Q120.75 117.9 120.95 117.05 L121.45 116.6 121.7 116.5 Q122.25 116.55 122.45 117.1 M123.05 122.35 L122.9 122.3 Q122.7 121.8 123.15 121.55 L123.35 121.5 Q124.45 122.4 123.05 122.35 M123.05 123.05 L123.1 123.2 122.65 123.9 122.3 124.05 Q121.35 123.9 121.6 123.0 121.7 122.65 122.05 122.55 L122.3 122.5 Q122.9 122.55 123.05 123.05 M123.65 126.6 L124.15 126.15 124.4 126.05 Q124.95 126.1 125.15 126.65 L125.2 126.8 124.75 127.5 124.4 127.65 Q123.45 127.45 123.65 126.6 M114.75 106.85 L114.8 107.0 114.35 107.7 114.0 107.85 Q113.05 107.7 113.3 106.8 113.4 106.45 113.75 106.35 L114.0 106.3 Q114.6 106.35 114.75 106.85 M118.65 110.3 Q119.7 111.2 118.35 111.15 L118.15 111.05 Q117.95 110.6 118.45 110.35 L118.65 110.3 M107.1 108.8 L106.95 108.5 106.9 108.55 106.15 108.95 106.75 109.65 107.35 109.1 107.1 108.8 M102.25 117.3 L102.25 117.25 102.6 117.6 102.25 117.3 M118.85 114.25 Q119.95 115.1 118.55 115.1 L118.4 115.0 Q118.15 114.55 118.65 114.3 L118.85 114.25 M116.7 112.75 Q116.5 112.25 117.0 112.0 L117.2 111.95 Q118.25 112.85 116.85 112.8 L116.7 112.75 M116.7 115.2 Q116.5 114.75 117.0 114.5 L117.2 114.45 Q118.25 115.35 116.85 115.3 L116.7 115.2 M113.25 112.2 Q112.45 110.35 114.5 109.95 117.5 111.5 114.35 112.7 113.6 113.0 113.25 112.2 M119.2 119.05 Q120.3 119.95 118.9 119.9 L118.75 119.85 Q118.55 119.35 119.0 119.15 L119.2 119.05 M120.4 119.85 Q120.2 119.35 120.65 119.15 L120.85 119.05 Q121.95 119.95 120.55 119.9 L120.4 119.85 M116.55 118.0 Q115.7 116.15 117.75 115.75 120.75 117.3 117.6 118.5 116.85 118.8 116.55 118.0" fill="#472c12" fill-rule="evenodd" stroke="none"/>
    <path d="M102.95 102.3 L103.0 102.0 M101.05 115.05 L101.1 114.7" fill="none" stroke="#674318" stroke-linecap="round" stroke-linejoin="round" stroke-width="2.0"/>
    <path d="M141.6 128.4 L152.0 124.0 152.0 107.0 148.35 107.05 Q144.55 107.25 144.0 108.0 141.8 110.95 140.0 111.0 L133.0 111.0 131.05 130.5 131.05 130.95 M103.0 102.0 L131.0 112.0 131.05 130.5" fill="none" stroke="#000000" stroke-linecap="round" stroke-linejoin="round" stroke-opacity="0.5019608" stroke-width="0.05"/>
    <path d="M111.25 98.1 Q112.65 98.15 111.6 97.25 L111.4 97.35 111.05 97.75 110.75 97.45 110.55 97.55 Q110.2 97.7 110.25 98.05 109.9 98.2 110.05 98.65 L110.25 98.75 Q111.25 98.75 110.95 98.3 L111.25 98.1 M109.0 98.0 L114.0 96.0 111.0 99.0 109.0 102.0 109.0 98.0 M123.0 98.0 L129.0 100.0 125.0 100.0 126.0 101.0 119.0 102.0 116.0 104.0 116.0 101.0 119.0 98.0 123.0 98.0 M139.45 102.6 L141.0 103.0 142.0 103.0 137.0 107.0 128.0 108.0 129.0 105.0 136.0 104.0 137.0 102.0 138.95 102.5 Q138.5 102.75 138.75 103.2 L138.9 103.25 Q140.1 103.3 139.45 102.6 M120.35 100.4 Q120.55 99.7 119.9 99.5 119.4 99.6 118.95 99.95 L118.9 100.25 118.95 100.65 118.65 100.4 118.45 100.45 Q117.95 100.65 118.15 101.15 L118.35 101.25 Q119.35 101.25 119.05 100.8 119.7 101.15 120.3 100.55 L120.35 100.4 M120.4 101.35 L120.55 101.45 Q121.95 101.45 120.85 100.6 L120.65 100.65 Q120.2 100.85 120.4 101.35 M120.65 99.0 Q120.2 99.2 120.4 99.7 L120.55 99.8 Q121.95 99.8 120.85 98.9 L120.65 99.0 M129.9 106.65 Q131.3 106.65 130.2 105.75 L130.0 105.85 Q129.55 106.05 129.75 106.55 L129.9 106.65 M122.5 101.05 Q123.85 101.05 122.8 100.15 L122.6 100.25 Q122.1 100.45 122.3 100.95 L122.5 101.05 M122.25 100.0 Q123.65 100.0 122.6 99.15 L122.4 99.2 Q121.9 99.4 122.1 99.9 L122.25 100.0 M124.6 99.2 Q124.15 99.4 124.35 99.9 L124.5 100.0 Q125.9 100.0 124.8 99.15 L124.6 99.2 M131.45 104.75 L131.25 104.8 Q130.8 105.05 131.0 105.5 L131.15 105.6 Q132.55 105.6 131.45 104.75 M133.5 106.15 L133.65 106.2 Q135.05 106.25 133.95 105.35 L133.75 105.45 Q133.25 105.65 133.5 106.15 M135.4 106.8 L135.55 106.7 Q136.35 106.0 135.2 105.75 L135.2 105.8 Q134.1 106.4 135.4 106.8 M136.65 105.55 L136.45 105.65 Q135.95 105.85 136.2 106.35 L136.35 106.4 Q137.75 106.45 136.65 105.55 M136.4 104.9 L136.55 104.95 Q137.95 105.0 136.85 104.1 L136.65 104.2 Q136.2 104.4 136.4 104.9 M135.15 104.8 L134.85 104.55 134.65 104.6 Q134.15 104.8 134.35 105.3 L134.5 105.4 Q135.55 105.4 135.25 104.95 L135.3 104.95 Q136.7 105.0 135.6 104.1 L135.4 104.2 Q135.0 104.4 135.15 104.8 M139.7 104.4 Q140.8 103.9 139.75 103.3 L139.6 103.35 Q138.95 103.8 139.45 104.35 L139.7 104.4 M137.9 103.65 L137.7 103.7 Q137.2 103.95 137.45 104.4 L137.6 104.5 Q139.0 104.55 137.9 103.65 M137.75 102.65 L137.55 102.75 Q137.05 102.95 137.25 103.45 L137.45 103.5 Q138.8 103.55 137.75 102.65" fill="#ebcb98" fill-rule="evenodd" stroke="none"/>
    <path d="M111.25 98.1 L110.95 98.3 Q111.25 98.75 110.25 98.75 L110.05 98.65 Q109.9 98.2 110.25 98.05 110.2 97.7 110.55 97.55 L110.75 97.45 111.05 97.75 111.4 97.35 111.6 97.25 Q112.65 98.15 111.25 98.1 M138.95 102.5 L139.0 102.45 139.2 102.4 139.45 102.6 Q140.1 103.3 138.9 103.25 L138.75 103.2 Q138.5 102.75 138.95 102.5 M137.75 102.65 Q138.8 103.55 137.45 103.5 L137.25 103.45 Q137.05 102.95 137.55 102.75 L137.75 102.65 M137.9 103.65 Q139.0 104.55 137.6 104.5 L137.45 104.4 Q137.2 103.95 137.7 103.7 L137.9 103.65 M139.7 104.4 L139.45 104.35 Q138.95 103.8 139.6 103.35 L139.75 103.3 Q140.8 103.9 139.7 104.4 M135.15 104.8 Q135.0 104.4 135.4 104.2 L135.6 104.1 Q136.7 105.0 135.3 104.95 L135.25 104.95 Q135.55 105.4 134.5 105.4 L134.35 105.3 Q134.15 104.8 134.65 104.6 L134.85 104.55 135.15 104.8 M136.4 104.9 Q136.2 104.4 136.65 104.2 L136.85 104.1 Q137.95 105.0 136.55 104.95 L136.4 104.9 M136.65 105.55 Q137.75 106.45 136.35 106.4 L136.2 106.35 Q135.95 105.85 136.45 105.65 L136.65 105.55 M135.4 106.8 Q134.1 106.4 135.2 105.8 L135.2 105.75 Q136.35 106.0 135.55 106.7 L135.4 106.8 M133.5 106.15 Q133.25 105.65 133.75 105.45 L133.95 105.35 Q135.05 106.25 133.65 106.2 L133.5 106.15 M131.45 104.75 Q132.55 105.6 131.15 105.6 L131.0 105.5 Q130.8 105.05 131.25 104.8 L131.45 104.75 M124.6 99.2 L124.8 99.15 Q125.9 100.0 124.5 100.0 L124.35 99.9 Q124.15 99.4 124.6 99.2 M122.25 100.0 L122.1 99.9 Q121.9 99.4 122.4 99.2 L122.6 99.15 Q123.65 100.0 122.25 100.0 M122.5 101.05 L122.3 100.95 Q122.1 100.45 122.6 100.25 L122.8 100.15 Q123.85 101.05 122.5 101.05 M129.9 106.65 L129.75 106.55 Q129.55 106.05 130.0 105.85 L130.2 105.75 Q131.3 106.65 129.9 106.65 M120.65 99.0 L120.85 98.9 Q121.95 99.8 120.55 99.8 L120.4 99.7 Q120.2 99.2 120.65 99.0 M120.4 101.35 Q120.2 100.85 120.65 100.65 L120.85 100.6 Q121.95 101.45 120.55 101.45 L120.4 101.35 M120.35 100.4 L120.3 100.55 Q119.7 101.15 119.05 100.8 119.35 101.25 118.35 101.25 L118.15 101.15 Q117.95 100.65 118.45 100.45 L118.65 100.4 118.95 100.65 118.9 100.25 118.95 99.95 Q119.4 99.6 119.9 99.5 120.55 99.7 120.35 100.4" fill="#fbf1ea" fill-rule="evenodd" stroke="none"/>
    <path d="M109.0 98.0 L109.0 102.0 111.0 99.0 114.0 96.0 109.0 98.0 M123.0 98.0 L129.0 100.0 125.0 100.0 126.0 101.0 119.0 102.0 116.0 104.0 116.0 101.0 119.0 98.0 123.0 98.0 M139.45 102.6 L141.0 103.0 142.0 103.0 137.0 107.0 128.0 108.0 129.0 105.0 136.0 104.0 137.0 102.0 138.95 102.5" fill="none" stroke="#000000" stroke-linecap="round" stroke-linejoin="round" stroke-opacity="0.5019608" stroke-width="0.05"/>
  </g>
</svg>
