<?xml version="1.0" encoding="UTF-8" standalone="no"?>
<svg xmlns:xlink="http://www.w3.org/1999/xlink" height="224.0px" width="221.8px" xmlns="http://www.w3.org/2000/svg">
  <g transform="matrix(1.0, 0.0, 0.0, 1.0, 0.5, -18.35)">
    <path d="M209.6 21.3 L209.6 21.55 209.6 21.3 M211.5 22.8 L211.3 23.25 211.5 22.8 M207.35 22.45 L207.35 22.95 207.35 22.45 M203.05 23.8 L203.05 24.05 203.05 23.8 M205.25 23.1 L205.15 23.35 205.25 23.1 M203.25 21.15 Q203.0 21.15 202.8 21.3 203.0 21.15 203.25 21.15 M205.25 20.45 L205.55 20.95 205.25 20.45 M210.75 20.05 L211.35 20.7 Q215.7 25.0 215.7 31.2 L215.8 31.2 215.55 33.55 215.35 34.4 215.2 34.85 Q214.2 37.85 212.6 40.3 211.2 42.4 209.35 44.1 205.55 47.55 202.25 49.15 199.5 50.35 197.55 51.5 L197.5 51.55 196.95 51.9 197.7 50.4 196.05 50.4 196.05 48.95 194.9 48.95 194.9 48.75 195.0 48.7 195.2 48.45 195.2 47.5 194.9 47.5 194.9 47.2 194.45 47.1 194.0 47.05 193.8 46.7 193.55 46.25 193.25 46.55 193.25 46.2 192.95 45.7 192.8 45.85 192.7 45.7 191.15 46.45 Q190.9 46.3 190.8 46.45 190.9 46.3 191.15 46.45 L190.8 46.6 190.8 46.45 190.8 45.0 188.5 45.0 189.2 43.0 186.55 43.95 186.55 42.6 184.85 43.3 184.85 42.15 183.55 43.55 184.35 41.65 186.5 34.85 186.65 34.2 Q188.45 27.3 194.55 22.95 200.65 18.7 204.8 18.85 208.9 18.95 210.75 20.05 M192.95 45.7 L193.25 45.4 193.25 45.35 192.95 45.7 M213.1 25.3 L213.1 26.4 213.1 25.3 M213.05 29.9 L213.3 30.5 213.05 29.9 M214.15 29.0 L214.15 29.55 214.15 29.0 M214.35 34.2 L214.35 34.55 214.35 34.2 M213.2 35.95 L213.2 36.6 213.2 35.95 M213.45 32.55 L213.8 32.95 213.45 32.55 M202.75 46.45 L202.5 46.9 202.75 46.45 M205.15 45.2 L205.15 45.5 205.15 45.2 M204.15 40.15 L204.15 40.5 204.15 40.15 M207.05 40.5 L207.05 41.05 207.05 40.5 M203.5 42.6 L203.75 42.75 203.5 42.6 M206.25 37.4 L206.8 37.75 206.25 37.4 M212.35 39.2 L212.5 39.65 212.35 39.2 M210.55 41.05 L210.25 41.5 210.55 41.05 M210.05 38.2 L210.05 38.45 210.05 38.2 M206.8 30.85 L206.8 31.2 206.8 30.85 M211.6 32.55 L211.4 32.8 211.6 32.55 M211.8 34.7 L211.6 35.15 211.8 34.7 M208.2 35.35 L208.6 35.95 208.2 35.35 M210.35 36.4 L210.35 36.75 210.35 36.4 M209.3 32.45 L209.3 32.8 209.3 32.45 M204.25 33.0 L204.25 33.35 204.25 33.0 M205.55 35.45 L205.3 36.05 205.55 35.45 M206.55 33.3 L206.5 33.7 206.55 33.3 M205.15 26.7 L205.15 27.4 205.15 26.7 M204.25 29.2 L204.25 29.8 204.25 29.2 M206.5 28.7 L206.55 29.0 206.5 28.7 M203.2 27.25 L203.2 27.65 203.2 27.25 M206.95 24.95 L206.95 25.25 206.95 24.95 M211.1 29.55 L211.1 29.9 211.1 29.55 M209.7 29.05 L209.3 29.35 209.7 29.05 M209.0 26.5 Q208.4 26.7 208.6 26.75 208.4 26.7 209.0 26.5 M210.75 27.65 L211.05 27.8 210.75 27.65 M212.1 25.5 L212.05 25.75 212.1 25.5 M207.9 43.15 L207.9 43.65 207.9 43.15 M203.05 37.1 L203.05 38.1 203.05 37.1 M194.45 25.25 L194.45 25.7 194.45 25.25 M199.25 29.6 L198.7 30.25 199.25 29.6 M201.25 26.95 L201.25 27.2 201.25 26.95 M199.05 25.85 L199.05 26.2 199.05 25.85 M197.5 23.8 L197.5 24.05 197.5 23.8 M196.75 29.25 L196.4 29.7 196.75 29.25 M200.4 32.8 L200.55 33.2 200.4 32.8 M199.15 35.25 L199.15 35.8 199.15 35.25 M202.25 35.6 L202.2 35.95 202.25 35.6 M201.8 31.15 L202.0 31.3 201.8 31.15 M196.75 32.8 L196.75 33.35 196.75 32.8 M196.3 35.1 L196.2 35.45 196.3 35.1 M193.7 34.0 L193.8 34.45 193.7 34.0 M195.85 30.95 L195.85 31.4 195.85 30.95 M193.95 29.25 L193.95 29.55 193.95 29.25 M192.65 27.1 L192.45 27.75 192.65 27.1 M196.3 26.2 L196.55 26.75 196.3 26.2 M194.6 30.7 L194.6 31.3 194.6 30.7 M192.3 37.75 L192.3 38.2 192.3 37.75 M191.1 42.45 L191.1 42.95 191.1 42.45 M188.4 41.4 L188.6 41.75 188.4 41.4 M189.8 38.9 L189.85 39.55 189.8 38.9 M187.35 37.2 L187.35 37.65 187.35 37.2 M187.7 35.1 L187.6 35.6 187.7 35.1 M190.15 35.1 L190.15 35.5 190.15 35.1 M191.9 30.3 L191.65 30.8 191.9 30.3 M188.9 32.2 L188.95 32.45 188.9 32.2 M193.25 43.65 L193.25 44.2 193.25 43.65 M195.7 44.45 L195.95 44.65 195.7 44.45 M196.55 39.7 L197.0 40.15 196.55 39.7 M194.7 39.45 L194.95 39.7 194.7 39.45 M200.95 39.55 L201.25 40.1 200.95 39.55 M199.85 37.95 L199.15 38.3 199.85 37.95 M198.75 42.15 L198.9 42.45 198.75 42.15 M201.0 24.35 L200.85 24.95 201.0 24.35 M194.8 36.75 L194.95 37.2 194.8 36.75 M201.0 43.0 L201.1 43.4 201.0 43.0 M198.6 44.55 L199.05 44.7 198.6 44.55 M200.15 47.75 L200.15 48.2 200.15 47.75 M197.35 46.6 L197.35 46.9 197.35 46.6 M202.35 44.2 L202.65 44.4 202.35 44.2" fill="#8c4600" fill-rule="evenodd" stroke="none"/>
    <path d="M215.35 34.4 L215.55 33.55 215.8 31.2 215.7 31.2 Q215.7 25.0 211.35 20.7 L210.75 20.05 Q212.25 20.6 213.15 21.25 216.4 23.0 219.0 27.5 221.45 31.95 220.55 36.7 219.65 41.4 215.25 46.6 210.8 51.75 205.25 54.0 L198.2 56.7 198.25 55.0 199.35 53.25 198.15 53.25 198.15 52.1 197.3 52.1 197.0 52.1 197.45 51.7 197.5 51.6 197.5 51.55 197.55 51.5 Q199.5 50.35 202.25 49.15 205.55 47.55 209.35 44.1 211.2 42.4 212.6 40.3 214.2 37.85 215.2 34.85 L215.35 34.4 215.8 35.45 215.35 34.4 M215.6 24.75 L215.9 25.05 215.6 24.75 M216.95 27.65 L216.85 28.1 216.95 27.65 M217.5 29.95 L217.5 30.3 217.5 29.95 M216.95 32.65 Q217.05 32.65 217.2 32.8 217.05 32.65 216.95 32.65 M219.35 32.75 L219.35 33.1 219.35 32.75 M219.65 35.95 L219.9 36.4 219.65 35.95 M218.4 33.45 L218.4 34.0 218.4 33.45 M217.5 35.7 L217.55 36.15 217.5 35.7 M210.6 43.85 L210.6 44.1 210.6 43.85 M208.05 46.7 L208.35 47.05 208.05 46.7 M209.6 46.6 L209.85 46.95 209.6 46.6 M211.8 45.5 L212.3 46.05 211.8 45.5 M206.8 48.95 L206.8 49.4 206.8 48.95 M214.85 44.4 L214.3 44.55 214.85 44.4 M215.15 37.65 L215.55 38.1 215.15 37.65 M216.15 39.95 L216.15 40.45 216.15 39.95 M218.1 39.7 L218.1 39.95 218.1 39.7 M214.3 41.15 L214.8 41.4 214.3 41.15 M212.35 43.4 L212.65 44.25 212.35 43.4 M200.55 51.45 L200.85 51.9 200.55 51.45 M205.3 51.35 L205.4 51.7 205.3 51.35 M202.5 49.8 L202.65 50.25 202.5 49.8 M208.9 49.25 L208.9 49.65 208.9 49.25 M205.05 48.95 L205.05 49.55 205.05 48.95 M202.35 53.55 L202.75 53.75 202.35 53.55" fill="#663300" fill-rule="evenodd" stroke="none"/>
    <path d="M188.5 45.0 L190.8 45.0 190.8 46.45 190.8 46.6 191.15 46.45 192.7 45.7 192.8 45.85 182.9 54.7 182.85 55.0 182.5 55.25 177.8 61.8 177.3 62.1 177.0 60.25 175.75 61.65 175.5 60.25 151.7 85.85 133.25 104.55 Q133.8 103.0 133.9 101.15 133.8 103.0 133.25 104.55 L132.25 105.5 132.05 105.7 129.5 108.25 127.55 110.2 127.5 110.25 Q127.4 110.25 127.35 110.35 L127.05 110.65 127.0 110.7 126.9 110.75 126.8 110.9 126.6 111.05 126.4 111.3 117.25 120.15 117.1 120.35 116.0 121.4 116.0 121.45 115.75 121.7 115.75 121.75 105.35 131.65 103.55 133.35 101.85 134.95 101.55 135.25 101.5 135.35 100.85 134.9 100.7 134.75 100.6 134.7 100.45 134.6 99.9 134.3 99.8 134.25 99.75 134.2 99.35 133.95 99.05 133.75 99.15 133.7 99.3 133.5 100.15 132.8 101.3 131.75 101.55 131.5 105.05 128.9 Q109.15 125.6 112.95 121.7 L112.45 121.7 Q114.2 120.05 116.05 118.35 L133.9 101.15 148.2 86.25 148.75 85.85 158.65 76.5 171.6 63.1 184.35 49.65 188.5 45.0 M193.8 46.7 L194.0 47.05 194.45 47.1 194.45 47.15 193.8 47.15 193.8 46.7 M116.05 118.35 L114.8 119.7 112.95 121.7 114.8 119.7 116.05 118.35" fill="#c59e65" fill-rule="evenodd" stroke="none"/>
    <path d="M44.05 150.75 Q47.7 146.9 51.95 144.2 56.2 141.7 61.1 140.45 64.55 139.5 68.3 139.3 L70.4 139.2 70.85 139.2 Q83.7 139.2 93.2 147.6 L94.8 149.1 Q80.55 143.45 82.0 153.55 74.15 148.7 64.45 148.75 L63.95 148.75 61.85 148.9 Q58.1 149.1 54.65 149.95 49.8 151.2 45.5 153.8 42.0 155.95 38.95 158.95 L37.6 160.3 Q38.45 158.2 39.7 156.2 40.85 154.35 42.35 152.65 L44.05 150.75" fill="#450000" fill-rule="evenodd" stroke="none"/>
    <path d="M62.3 240.95 L62.25 241.05 62.3 241.05 62.2 241.85 61.2 240.8 Q58.0 237.15 55.9 233.0 53.2 227.75 52.35 221.55 L52.2 219.65 52.05 218.65 51.95 217.3 51.8 216.25 Q51.05 214.45 47.7 216.6 L47.45 216.75 Q36.0 228.95 19.2 230.1 12.05 230.5 5.55 228.75 10.55 226.0 15.1 219.5 L18.15 214.55 20.0 210.85 Q21.35 207.85 22.15 204.7 22.95 201.45 23.2 198.05 L23.3 194.75 23.3 194.5 23.15 191.9 13.7 191.6 7.85 190.25 Q5.1 189.35 2.5 188.05 L0.0 186.65 3.9 185.7 Q8.8 184.25 13.15 181.65 16.65 179.5 19.8 176.6 L20.9 175.55 20.95 175.5 22.35 174.05 25.1 170.8 25.3 170.5 Q28.7 166.15 30.6 161.4 L31.05 160.25 31.75 158.65 37.55 160.4 37.45 160.55 36.9 161.6 36.55 162.65 Q34.95 166.55 32.3 170.2 L32.05 170.45 31.0 171.8 29.45 173.85 28.3 175.15 27.5 176.05 Q24.8 178.85 21.7 181.0 17.45 183.95 12.45 185.7 L16.75 187.2 18.35 187.55 18.85 187.65 29.05 188.15 29.1 188.55 29.1 194.5 28.95 197.55 Q28.65 201.3 28.0 204.7 L26.95 209.0 26.6 210.25 Q25.0 215.25 22.9 218.8 21.65 220.9 20.25 222.5 L19.9 222.9 19.6 223.2 19.4 223.35 19.6 223.35 Q25.15 223.1 33.25 219.3 L36.6 217.6 Q42.5 214.3 46.3 210.15 L48.15 208.2 Q51.5 204.8 53.35 204.5 55.65 204.05 55.25 206.75 L55.15 207.55 Q54.6 211.9 55.1 215.95 55.85 221.95 58.9 227.4 L59.1 227.85 59.8 228.9 Q60.05 228.05 62.7 222.65 L63.1 221.85 Q65.2 217.65 67.5 214.85 L69.6 212.65 73.55 209.25 76.45 207.45 Q78.75 205.95 83.45 203.7 L84.45 203.2 86.45 202.15 88.45 207.6 86.3 208.7 Q85.75 208.9 85.25 209.2 79.8 211.85 75.15 216.3 L72.95 218.45 Q64.25 227.8 62.45 239.5 L62.3 240.95 M44.05 150.75 L43.95 150.7 45.25 149.25 Q48.9 145.4 53.15 142.7 57.4 140.2 62.3 138.95 65.75 138.0 69.5 137.8 L71.6 137.7 72.05 137.7 Q84.9 137.7 94.4 146.1 L96.0 147.6 Q103.7 155.05 105.15 165.4 L105.3 166.75 105.45 169.3 105.45 171.15 105.45 171.65 105.1 175.35 104.85 177.2 104.65 178.05 Q103.2 184.55 99.15 190.15 L98.0 191.65 97.95 191.65 Q101.35 186.9 102.95 181.55 L103.45 179.55 103.9 177.25 103.9 176.85 104.25 172.65 104.25 171.7 104.25 170.8 104.1 168.25 103.95 166.9 Q102.5 156.55 94.8 149.1 L93.2 147.6 Q83.7 139.2 70.85 139.2 L70.4 139.2 68.3 139.3 Q64.55 139.5 61.1 140.45 56.2 141.7 51.95 144.2 47.7 146.9 44.05 150.75" fill="#7d0000" fill-rule="evenodd" stroke="none"/>
    <path d="M37.6 160.4 L37.55 160.4 37.6 160.3 37.6 160.4" fill="#85756f" fill-rule="evenodd" stroke="none"/>
    <path d="M37.55 160.4 L37.6 160.4 Q64.25 155.8 79.1 160.45 56.5 193.25 20.25 222.5 21.65 220.9 22.9 218.8 25.0 215.25 26.6 210.25 L26.95 209.0 28.0 204.7 Q28.65 201.3 28.95 197.55 L29.1 194.5 29.1 188.55 29.05 188.15 18.85 187.65 18.35 187.55 16.75 187.2 12.45 185.7 Q17.45 183.95 21.7 181.0 24.8 178.85 27.5 176.05 L28.3 175.15 29.45 173.85 31.0 171.8 32.05 170.45 32.3 170.2 Q34.95 166.55 36.55 162.65 L36.9 161.6 37.45 160.55 37.55 160.4 M105.1 139.45 L105.05 139.45 105.1 139.4 105.1 139.45" fill="#a8948c" fill-rule="evenodd" stroke="none"/>
    <path d="M23.3 194.75 L18.1 194.5 23.3 194.5 23.3 194.75 M2.4 188.2 L2.15 188.05 0.0 186.65 2.5 188.05 2.4 188.2 M2.15 188.05 L2.5 188.05 2.15 188.05" fill="#8f7e78" fill-rule="evenodd" stroke="none"/>
    <path d="M92.75 130.65 L93.35 130.85 92.75 130.9 92.75 130.65" fill="#999999" fill-rule="evenodd" stroke="none"/>
    <path d="M74.35 134.25 Q78.7 130.3 85.1 129.9 L91.55 130.4 92.75 130.65 92.75 130.9 93.35 130.85 93.4 130.85 93.0 131.2 94.05 131.4 94.55 131.6 95.2 131.8 95.15 131.8 94.8 132.1 95.7 132.25 96.1 132.45 96.75 132.6 97.9 133.1 97.95 133.15 98.0 133.15 98.1 133.2 98.45 133.4 98.85 133.65 98.95 133.75 99.0 133.75 99.35 133.95 99.75 134.2 99.65 134.3 97.2 134.45 Q92.5 135.15 90.85 139.55 86.6 136.95 81.9 135.65 78.25 134.6 74.35 134.25" fill="#baa49c" fill-rule="evenodd" stroke="none"/>
    <path d="M99.65 134.3 L99.75 134.2 99.8 134.25 99.9 134.3 99.65 134.3" fill="#b8b8b8" fill-rule="evenodd" stroke="none"/>
    <path d="M94.8 149.1 Q102.5 156.55 103.95 166.9 L104.1 168.25 104.25 170.8 104.25 171.7 104.25 172.65 103.9 176.85 103.9 177.25 103.45 179.55 102.95 181.55 Q101.35 186.9 97.95 191.65 L97.55 192.2 96.25 193.8 95.0 195.25 96.3 191.75 97.0 189.15 97.45 186.4 97.65 184.65 97.75 182.25 97.8 181.8 97.75 180.35 97.65 177.8 97.65 177.55 97.5 176.5 Q97.2 174.2 96.55 172.05 L96.45 171.65 Q95.2 167.5 92.75 163.85 90.45 160.4 87.15 157.4 L86.8 157.1 Q84.5 155.05 82.0 153.55 80.55 143.45 94.8 149.1 M97.95 191.65 L96.3 191.75 97.95 191.65" fill="#630000" fill-rule="evenodd" stroke="none"/>
    <path d="M105.25 190.6 L102.5 195.5 102.15 195.2 Q103.9 193.0 105.25 190.6" fill="#cccccc" fill-rule="evenodd" stroke="none"/>
    <path d="M37.6 160.4 L37.6 160.3 38.95 158.95 Q42.0 155.95 45.5 153.8 49.8 151.2 54.65 149.95 58.1 149.1 61.85 148.9 L63.95 148.75 64.45 148.75 Q74.15 148.7 82.0 153.55 84.5 155.05 86.8 157.1 L87.15 157.4 Q90.45 160.4 92.75 163.85 95.2 167.5 96.45 171.65 L96.55 172.05 Q97.2 174.2 97.5 176.5 L97.65 177.55 96.6 177.6 97.65 177.55 97.65 177.8 97.75 180.35 97.8 181.8 97.75 182.25 97.65 184.65 97.4 181.85 97.8 181.8 97.4 181.85 96.6 177.6 Q95.8 174.65 94.45 172.15 90.5 164.95 81.9 161.45 L79.1 160.45 Q64.25 155.8 37.6 160.4" fill="#877771" fill-rule="evenodd" stroke="none"/>
    <path d="M95.0 195.25 L94.8 195.35 Q90.95 199.5 86.45 202.15 L84.45 203.2 83.45 203.7 Q78.75 205.95 76.45 207.45 L73.55 209.25 69.6 212.65 67.5 214.85 Q65.2 217.65 63.1 221.85 L62.7 222.65 Q60.05 228.05 59.8 228.9 L59.1 227.85 58.9 227.4 Q55.85 221.95 55.1 215.95 54.6 211.9 55.15 207.55 L55.25 206.75 Q55.65 204.05 53.35 204.5 51.5 204.8 48.15 208.2 L46.3 210.15 Q42.5 214.3 36.6 217.6 L33.25 219.3 Q25.15 223.1 19.6 223.35 L19.4 223.35 19.6 223.2 19.9 222.9 20.25 222.5 Q56.5 193.25 79.1 160.45 L81.9 161.45 Q90.5 164.95 94.45 172.15 95.8 174.65 96.6 177.6 L97.4 181.85 97.65 184.65 97.45 186.4 97.0 189.15 96.3 191.75 95.0 195.25" fill="#9c8a82" fill-rule="evenodd" stroke="none"/>
    <path d="M95.2 131.8 L102.7 124.8 104.1 123.45 110.25 119.1 115.8 112.25 118.15 109.95 122.3 105.9 122.75 105.5 123.8 104.4 123.95 104.25 124.05 104.1 133.75 94.4 141.0 87.4 142.95 85.5 166.35 61.85 167.45 60.7 183.55 43.55 184.85 42.15 184.85 43.3 186.55 42.6 186.55 43.95 189.2 43.0 188.5 45.0 184.35 49.65 171.6 63.1 158.65 76.5 148.75 85.85 148.2 86.25 Q144.65 88.25 141.0 87.4 144.65 88.25 148.2 86.25 L133.9 101.15 133.9 99.85 133.75 94.4 133.9 99.85 133.9 101.15 116.05 118.35 Q114.2 120.05 112.45 121.7 L104.85 128.6 101.55 131.5 101.3 131.75 100.15 132.8 99.3 133.5 99.15 133.7 99.05 133.75 99.0 133.75 98.95 133.75 98.85 133.65 98.8 133.6 98.45 133.4 98.1 133.2 98.0 133.15 97.9 133.1 96.75 132.6 96.1 132.45 95.7 132.25 94.8 132.1 95.15 131.8 95.2 131.8 M122.75 105.5 Q123.25 110.1 116.05 118.35 123.25 110.1 122.75 105.5" fill="#bd9560" fill-rule="evenodd" stroke="none"/>
    <path d="M198.2 56.7 L158.85 93.45 153.45 99.95 148.0 105.25 135.55 117.75 131.6 121.7 131.05 122.3 129.55 123.8 126.0 127.5 124.9 128.65 124.55 129.0 114.2 139.8 108.9 145.45 108.75 145.6 108.5 145.85 Q108.05 144.05 107.25 142.4 L107.3 142.4 107.45 142.2 108.35 141.15 107.4 142.05 107.2 142.2 107.15 142.15 106.75 141.4 106.65 141.3 106.85 141.15 111.1 136.8 113.3 134.5 Q117.8 129.7 119.85 128.2 L125.8 121.7 129.7 117.6 Q135.3 116.05 140.05 110.25 143.5 106.2 144.35 102.5 143.5 106.2 140.05 110.25 135.3 116.05 129.7 117.6 L144.35 102.5 148.35 98.5 184.35 63.6 185.85 62.2 197.0 52.1 197.3 52.1 198.15 52.1 198.15 53.25 199.35 53.25 198.25 55.0 198.2 56.7 M197.3 52.1 Q196.3 54.15 191.35 58.05 L185.85 62.2 191.35 58.05 Q196.3 54.15 197.3 52.1 M148.0 105.25 L147.75 103.1 147.55 101.5 Q147.55 100.2 148.35 98.5 147.55 100.2 147.55 101.5 L147.75 103.1 148.0 105.25 M131.05 122.3 Q128.6 121.65 126.9 123.05 122.85 126.35 120.5 127.7 L119.85 128.2 120.5 127.7 Q122.85 126.35 126.9 123.05 128.6 121.65 131.05 122.3 M112.45 121.7 L112.95 121.7 Q109.15 125.6 105.05 128.9 L101.55 131.5 104.85 128.6 112.45 121.7" fill="#7d5c38" fill-rule="evenodd" stroke="none"/>
    <path d="M193.25 46.55 L193.55 46.25 193.8 46.7 193.8 47.15 193.25 47.15 193.25 46.55 M194.45 47.1 L194.9 47.2 194.9 47.5 195.2 47.5 195.2 48.45 195.0 48.7 194.9 48.75 194.9 48.95 196.05 48.95 196.05 50.4 197.7 50.4 196.95 51.9 197.5 51.55 197.5 51.6 197.45 51.7 197.0 52.1 185.85 62.2 184.35 63.6 148.35 98.5 152.8 90.1 Q154.4 87.35 156.1 85.25 154.4 87.35 152.8 90.1 L148.35 98.5 144.35 102.5 129.7 117.6 125.8 121.7 119.85 128.2 Q117.8 129.7 113.3 134.5 L111.1 136.8 106.85 141.15 106.65 141.3 106.65 141.25 106.3 140.6 106.15 140.4 105.95 140.15 105.7 139.8 105.6 139.6 105.5 139.45 105.15 139.05 105.05 139.15 104.9 139.0 104.9 138.95 104.6 138.55 104.6 138.5 120.85 121.1 121.35 120.55 121.4 120.55 127.6 115.5 129.05 112.55 129.8 111.8 130.2 111.35 130.55 111.05 130.6 110.9 130.8 110.75 137.65 103.7 137.85 103.5 153.4 88.0 153.45 88.0 153.55 87.85 153.8 87.55 153.85 87.5 154.05 87.3 154.3 87.1 156.1 85.25 Q158.35 82.35 160.65 80.5 L161.1 80.05 177.3 62.1 177.8 61.8 182.5 55.25 182.85 55.0 182.9 54.7 194.25 48.3 194.3 48.2 194.45 48.1 194.45 47.15 194.45 47.1 M185.85 62.2 L160.65 80.5 185.85 62.2 M128.3 117.85 L129.7 117.6 128.3 117.85 M139.3 103.45 Q138.4 106.6 136.45 109.0 134.0 111.9 130.35 112.3 134.0 111.9 136.45 109.0 138.4 106.6 139.3 103.45 M144.5 98.75 Q144.8 100.55 144.35 102.5 144.8 100.55 144.5 98.75 M107.2 142.2 L107.4 142.05 108.35 141.15 107.45 142.2 107.3 142.4 107.2 142.2" fill="#8a663e" fill-rule="evenodd" stroke="none"/>
    <path d="M109.1 166.7 L109.25 167.95 109.45 170.9 109.45 171.45 109.2 177.0 109.05 178.0 108.5 181.2 Q106.8 188.6 102.15 195.2 L98.5 199.6 Q93.9 204.5 88.45 207.6 L86.45 202.15 Q90.95 199.5 94.8 195.35 L95.0 195.25 96.25 193.8 97.55 192.2 97.95 191.65 98.0 191.65 99.15 190.15 Q103.2 184.55 104.65 178.05 L104.85 177.2 105.1 175.35 105.45 171.65 105.45 171.15 105.45 169.3 105.3 166.75 105.15 165.4 Q103.7 155.05 96.0 147.6 L94.4 146.1 Q84.9 137.7 72.05 137.7 L71.6 137.7 69.5 137.8 Q65.75 138.0 62.3 138.95 57.4 140.2 53.15 142.7 48.9 145.4 45.25 149.25 L43.95 150.7 44.05 150.75 42.35 152.65 Q40.85 154.35 39.7 156.2 38.45 158.2 37.6 160.3 L37.55 160.4 31.75 158.65 Q32.8 156.2 34.25 153.95 36.45 150.65 39.25 147.6 43.6 143.0 48.55 140.0 53.5 137.0 59.15 135.6 63.2 134.5 67.6 134.2 L70.65 134.05 74.35 134.25 Q78.25 134.6 81.9 135.65 86.6 136.95 90.85 139.55 93.9 141.4 96.65 143.85 99.9 146.7 102.35 149.95 105.2 153.7 106.9 158.0 108.45 162.1 109.05 166.45 L109.1 166.7" fill="#540000" fill-rule="evenodd" stroke="none"/>
    <path d="M192.95 45.7 L193.25 45.35 193.25 45.4 192.95 45.7" fill="#f0c892" fill-rule="evenodd" stroke="none"/>
    <path d="M108.75 145.6 L109.4 147.7 109.9 147.2 110.65 149.65 110.7 149.85 110.9 150.85 111.1 151.5 111.1 151.55 Q112.7 160.0 109.2 166.55 L109.05 166.45 Q108.45 162.1 106.9 158.0 105.2 153.7 102.35 149.95 99.9 146.7 96.65 143.85 93.9 141.4 90.85 139.55 92.5 135.15 97.2 134.45 L99.65 134.3 99.9 134.3 100.05 134.4 100.25 134.55 101.4 135.45 101.1 135.7 101.05 135.75 100.85 135.9 100.95 136.0 101.05 136.1 101.1 136.15 101.6 136.75 101.9 137.1 101.95 137.15 102.0 137.2 102.1 137.3 102.2 137.45 102.55 137.95 103.0 138.55 103.05 138.55 103.8 137.8 104.05 138.2 104.6 138.95 104.65 138.9 104.7 138.9 104.8 139.1 105.05 139.45 105.1 139.45 105.25 139.65 105.4 139.55 105.85 140.25 105.9 140.2 106.05 140.4 106.55 141.15 106.65 141.3 106.75 141.4 107.15 142.15 107.2 142.2 107.3 142.4 107.25 142.4 Q108.05 144.05 108.5 145.85 L108.75 145.6" fill="#7d6d68" fill-rule="evenodd" stroke="none"/>
    <path d="M192.8 45.85 L192.95 45.7 193.25 46.2 193.25 46.55 193.25 47.15 193.8 47.15 194.45 47.15 194.45 48.1 194.3 48.2 194.25 48.3 182.9 54.7 192.8 45.85 M177.3 62.1 L161.1 80.05 160.65 80.5 Q158.35 82.35 156.1 85.25 L154.3 87.1 154.05 87.3 153.85 87.5 153.8 87.55 153.55 87.85 153.4 88.0 137.85 103.5 137.65 103.7 130.8 110.75 130.6 110.9 130.55 111.05 130.2 111.35 129.8 111.8 129.05 112.55 127.6 115.5 121.4 120.55 121.35 120.55 120.85 121.1 104.6 138.5 104.6 138.55 104.9 138.95 104.9 139.0 104.8 139.1 104.7 138.9 104.65 138.9 104.6 138.95 104.05 138.2 103.8 137.8 103.05 138.55 103.0 138.55 102.55 137.95 102.2 137.45 102.1 137.3 102.0 137.2 101.95 137.15 101.9 137.1 101.6 136.75 101.1 136.15 101.05 136.1 100.95 136.0 100.85 135.9 101.05 135.75 101.1 135.7 101.4 135.45 101.5 135.35 101.55 135.25 101.85 134.95 103.55 133.35 105.35 131.65 115.75 121.75 115.75 121.7 116.0 121.45 116.0 121.4 117.1 120.35 117.25 120.15 126.4 111.3 126.6 111.05 126.8 110.9 126.9 110.75 127.0 110.7 127.05 110.65 127.35 110.35 Q127.4 110.25 127.5 110.25 L127.55 110.2 129.5 108.25 132.05 105.7 132.25 105.5 133.25 104.55 151.7 85.85 175.5 60.25 175.75 61.65 177.0 60.25 177.3 62.1" fill="#d4ab74" fill-rule="evenodd" stroke="none"/>
    <path d="M102.5 195.5 Q100.2 199.45 98.05 202.0 94.4 206.3 90.8 208.45 L86.6 210.9 Q81.15 213.55 76.5 217.95 L74.3 220.1 Q65.65 229.45 62.3 240.95 L62.45 239.5 Q64.25 227.8 72.95 218.45 L75.15 216.3 Q79.8 211.85 85.25 209.2 85.75 208.9 86.3 208.7 L88.45 207.6 Q93.9 204.5 98.5 199.6 L102.15 195.2 102.5 195.5 M52.05 218.65 Q51.35 216.85 47.75 219.15 36.5 228.05 24.85 229.9 13.15 231.75 5.55 228.75 12.05 230.5 19.2 230.1 36.0 228.95 47.45 216.75 L47.7 216.6 Q51.05 214.45 51.8 216.25 L51.95 217.3 52.05 218.65 M18.1 194.5 Q15.35 194.15 12.6 193.25 9.65 192.3 6.1 190.4 4.3 189.4 2.4 188.2 L2.5 188.05 Q5.1 189.35 7.85 190.25 L13.7 191.6 23.15 191.9 23.3 194.5 18.1 194.5" fill="#3d0000" fill-rule="evenodd" stroke="none"/>
    <path d="M205.55 20.95 L205.25 20.45 M202.8 21.3 Q203.0 21.15 203.25 21.15 M205.15 23.35 L205.25 23.1 M203.05 24.05 L203.05 23.8 M207.35 22.95 L207.35 22.45 M211.3 23.25 L211.5 22.8 M209.6 21.55 L209.6 21.3 M215.35 34.4 L215.8 35.45 M123.8 104.4 L123.95 104.25 M197.5 51.55 L197.55 51.5 M215.9 25.05 L215.6 24.75 M213.1 26.4 L213.1 25.3 M217.5 30.3 L217.5 29.95 M216.85 28.1 L216.95 27.65 M214.15 29.55 L214.15 29.0 M213.3 30.5 L213.05 29.9 M217.2 32.8 Q217.05 32.65 216.95 32.65 M213.8 32.95 L213.45 32.55 M213.2 36.6 L213.2 35.95 M214.35 34.55 L214.35 34.2 M217.55 36.15 L217.5 35.7 M218.4 34.0 L218.4 33.45 M219.9 36.4 L219.65 35.95 M219.35 33.1 L219.35 32.75 M212.05 25.75 L212.1 25.5 M211.05 27.8 L210.75 27.65 M208.6 26.75 Q208.4 26.7 209.0 26.5 M209.3 29.35 L209.7 29.05 M211.1 29.9 L211.1 29.55 M206.95 25.25 L206.95 24.95 M203.2 27.65 L203.2 27.25 M206.55 29.0 L206.5 28.7 M204.25 29.8 L204.25 29.2 M205.15 27.4 L205.15 26.7 M206.5 33.7 L206.55 33.3 M205.3 36.05 L205.55 35.45 M204.25 33.35 L204.25 33.0 M209.3 32.8 L209.3 32.45 M210.35 36.75 L210.35 36.4 M208.6 35.95 L208.2 35.35 M211.6 35.15 L211.8 34.7 M211.4 32.8 L211.6 32.55 M206.8 31.2 L206.8 30.85 M210.05 38.45 L210.05 38.2 M210.25 41.5 L210.55 41.05 M212.5 39.65 L212.35 39.2 M206.8 37.75 L206.25 37.4 M203.75 42.75 L203.5 42.6 M207.05 41.05 L207.05 40.5 M204.15 40.5 L204.15 40.15 M205.15 45.5 L205.15 45.2 M202.5 46.9 L202.75 46.45 M206.8 49.4 L206.8 48.95 M212.3 46.05 L211.8 45.5 M209.85 46.95 L209.6 46.6 M208.35 47.05 L208.05 46.7 M210.6 44.1 L210.6 43.85 M207.9 43.65 L207.9 43.15 M214.8 41.4 L214.3 41.15 M218.1 39.95 L218.1 39.7 M216.15 40.45 L216.15 39.95 M215.55 38.1 L215.15 37.65 M214.3 44.55 L214.85 44.4 M203.05 38.1 L203.05 37.1 M212.65 44.25 L212.35 43.4 M197.5 24.05 L197.5 23.8 M199.05 26.2 L199.05 25.85 M201.25 27.2 L201.25 26.95 M198.7 30.25 L199.25 29.6 M194.45 25.7 L194.45 25.25 M196.55 26.75 L196.3 26.2 M192.45 27.75 L192.65 27.1 M193.95 29.55 L193.95 29.25 M195.85 31.4 L195.85 30.95 M193.8 34.45 L193.7 34.0 M196.2 35.45 L196.3 35.1 M196.75 33.35 L196.75 32.8 M202.0 31.3 L201.8 31.15 M202.2 35.95 L202.25 35.6 M199.15 35.8 L199.15 35.25 M200.55 33.2 L200.4 32.8 M188.95 32.45 L188.9 32.2 M191.65 30.8 L191.9 30.3 M190.15 35.5 L190.15 35.1 M187.6 35.6 L187.7 35.1 M187.35 37.65 L187.35 37.2 M189.85 39.55 L189.8 38.9 M188.6 41.75 L188.4 41.4 M191.1 42.95 L191.1 42.45 M192.3 38.2 L192.3 37.75 M198.9 42.45 L198.75 42.15 M199.15 38.3 L199.85 37.95 M201.25 40.1 L200.95 39.55 M194.95 39.7 L194.7 39.45 M197.0 40.15 L196.55 39.7 M195.95 44.65 L195.7 44.45 M193.25 44.2 L193.25 43.65 M197.35 46.9 L197.35 46.6 M200.15 48.2 L200.15 47.75 M199.05 44.7 L198.6 44.55 M201.1 43.4 L201.0 43.0 M194.95 37.2 L194.8 36.75 M200.85 24.95 L201.0 24.35 M200.85 51.9 L200.55 51.45 M202.65 50.25 L202.5 49.8 M205.4 51.7 L205.3 51.35 M202.65 44.4 L202.35 44.2 M202.75 53.75 L202.35 53.55 M205.05 49.55 L205.05 48.95 M208.9 49.65 L208.9 49.25" fill="none" stroke="#000000" stroke-linecap="round" stroke-linejoin="round" stroke-opacity="0.101960786" stroke-width="0.25"/>
    <path d="M183.55 43.55 L184.35 41.65 186.5 34.85 186.65 34.2 Q188.45 27.3 194.55 22.95 200.65 18.7 204.8 18.85 208.9 18.95 210.75 20.05 212.25 20.6 213.15 21.25 216.4 23.0 219.0 27.5 221.45 31.95 220.55 36.7 219.65 41.4 215.25 46.6 210.8 51.75 205.25 54.0 L198.2 56.7 158.85 93.45 153.45 99.95 148.0 105.25 135.55 117.75 131.6 121.7 M131.05 122.3 L129.55 123.8 126.0 127.5 124.9 128.65 124.55 129.0 114.2 139.8 108.9 145.45 M108.75 145.6 L109.4 147.7 109.9 147.2 M110.7 149.85 L110.9 150.85 111.1 151.5 111.1 151.55 Q112.7 160.0 109.2 166.55 M109.1 166.7 L109.25 167.95 109.45 170.9 109.45 171.45 109.2 177.0 109.05 178.0 108.5 181.2 Q106.8 188.6 102.15 195.2 M102.5 195.5 Q100.2 199.45 98.05 202.0 94.4 206.3 90.8 208.45 L86.6 210.9 Q81.15 213.55 76.5 217.95 L74.3 220.1 Q65.65 229.45 62.3 240.95 L62.25 241.05 62.3 241.05 M62.2 241.85 L61.2 240.8 Q58.0 237.15 55.9 233.0 53.2 227.75 52.35 221.55 L52.2 219.65 52.05 218.65 Q51.35 216.85 47.75 219.15 36.5 228.05 24.85 229.9 13.15 231.75 5.55 228.75 10.55 226.0 15.1 219.5 L18.15 214.55 20.0 210.85 Q21.35 207.85 22.15 204.7 22.95 201.45 23.2 198.05 L23.3 194.75 18.1 194.5 Q15.35 194.15 12.6 193.25 9.65 192.3 6.1 190.4 4.3 189.4 2.4 188.2 L2.15 188.05 0.0 186.65 3.9 185.7 Q8.8 184.25 13.15 181.65 16.65 179.5 19.8 176.6 L20.9 175.55 20.95 175.5 22.35 174.05 25.1 170.8 25.3 170.5 Q28.7 166.15 30.6 161.4 L31.05 160.25 31.75 158.65 Q32.8 156.2 34.25 153.95 36.45 150.65 39.25 147.6 43.6 143.0 48.55 140.0 53.5 137.0 59.15 135.6 63.2 134.5 67.6 134.2 L70.65 134.05 74.35 134.25 Q78.7 130.3 85.1 129.9 L91.55 130.4 92.75 130.65 M93.4 130.85 L93.0 131.2 94.05 131.4 94.55 131.6 95.2 131.8 102.7 124.8 104.1 123.45 110.25 119.1 115.8 112.25 118.15 109.95 122.3 105.9 122.75 105.5 123.8 104.4 M123.95 104.25 L124.05 104.1 133.75 94.4 141.0 87.4 142.95 85.5 166.35 61.85 167.45 60.7 183.55 43.55 M197.45 51.7 L197.5 51.6 197.5 51.55 M137.1 118.75 L136.4 119.45 M95.15 131.8 L95.2 131.8 M97.9 133.1 L97.95 133.15 98.0 133.15 98.1 133.2 M90.85 139.55 Q93.9 141.4 96.65 143.85 99.9 146.7 102.35 149.95 105.2 153.7 106.9 158.0 M74.35 134.25 Q78.25 134.6 81.9 135.65 86.6 136.95 90.85 139.55 M107.2 142.2 L107.3 142.4" fill="none" stroke="#000000" stroke-linecap="round" stroke-linejoin="round" stroke-opacity="0.2" stroke-width="1.0"/>
    <path d="M196.4 29.7 L196.75 29.25 M194.6 31.3 L194.6 30.7 M2.5 188.05 L2.15 188.05 M23.3 194.5 L18.1 194.5 M96.6 177.6 L97.65 177.55 M96.3 191.75 L97.95 191.65 M97.4 181.85 L97.8 181.8" fill="none" stroke="#000000" stroke-linecap="round" stroke-linejoin="round" stroke-opacity="0.050980393" stroke-width="0.05"/>
    <path d="M109.9 147.2 L110.65 149.65 110.7 149.85 M109.2 166.55 L109.1 166.7 109.05 166.45 Q108.45 162.1 106.9 158.0 M108.5 181.2 L107.35 185.6 107.35 185.7 107.2 186.2 105.8 189.45 105.4 190.3 105.25 190.6 Q103.9 193.0 102.15 195.2 M92.75 130.65 L93.35 130.85 93.4 130.85 M183.55 43.55 L184.85 42.15 184.85 43.3 186.55 42.6 186.55 43.95 189.2 43.0 188.5 45.0 190.8 45.0 190.8 46.45 190.8 46.6 191.15 46.45 192.7 45.7 192.8 45.85 M194.0 47.05 L194.45 47.1 194.9 47.2 194.9 47.5 M194.9 48.75 L194.9 48.95 196.05 48.95 196.05 50.4 197.7 50.4 196.95 51.9 197.5 51.55 M197.0 52.1 L197.45 51.7 M197.0 52.1 L197.3 52.1 198.15 52.1 198.15 53.25 199.35 53.25 198.25 55.0 198.2 56.7" fill="none" stroke="#000000" stroke-linecap="round" stroke-linejoin="round" stroke-opacity="0.15294118" stroke-width="1.0"/>
    <path d="M19.4 223.35 L19.6 223.2" fill="none" stroke="#000000" stroke-linecap="round" stroke-linejoin="round" stroke-opacity="0.101960786" stroke-width="0.5"/>
    <path d="M190.8 46.45 Q190.9 46.3 191.15 46.45 M160.65 80.5 L185.85 62.2 191.35 58.05 Q196.3 54.15 197.3 52.1 M156.1 85.25 Q158.35 82.35 160.65 80.5 M148.2 86.25 L148.75 85.85 158.65 76.5 M106.65 141.3 L106.85 141.15 111.1 136.8 113.3 134.5 Q117.8 129.7 119.85 128.2 L120.5 127.7 Q122.85 126.35 126.9 123.05 128.6 121.65 131.05 122.3 M129.7 117.6 L128.3 117.85 M156.1 85.25 Q154.4 87.35 152.8 90.1 L148.35 98.5 Q147.55 100.2 147.55 101.5 L147.75 103.1 148.0 105.25 M141.0 87.4 Q144.65 88.25 148.2 86.25 M133.9 101.15 Q133.8 103.0 133.25 104.55 M130.35 112.3 Q134.0 111.9 136.45 109.0 138.4 106.6 139.3 103.45 M133.9 101.15 L133.9 99.85 133.75 94.4 M144.35 102.5 Q143.5 106.2 140.05 110.25 135.3 116.05 129.7 117.6 M144.35 102.5 Q144.8 100.55 144.5 98.75 M101.55 131.5 L105.05 128.9 Q109.15 125.6 112.95 121.7 L114.8 119.7 116.05 118.35 Q123.25 110.1 122.75 105.5 M19.6 223.2 L19.9 222.9" fill="none" stroke="#000000" stroke-linecap="round" stroke-linejoin="round" stroke-opacity="0.050980393" stroke-width="1.0"/>
    <path d="M91.55 161.25 L92.5 162.3 Q93.95 163.65 95.65 163.9 97.35 164.1 98.4 163.0 99.35 162.0 99.0 160.4 98.75 158.55 97.25 157.35 95.85 155.95 94.2 155.8 92.4 155.55 91.4 156.55 90.45 157.55 90.75 159.1 90.2 156.85 91.5 155.5 92.8 154.2 95.1 154.55 97.3 154.75 99.05 156.45 101.0 158.15 101.35 160.4 101.85 162.6 100.5 163.9 99.25 165.3 97.0 165.05 94.8 164.65 92.95 162.9 L91.55 161.25" fill="#450000" fill-rule="evenodd" stroke="none"/>
    <path d="M94.1 157.0 Q92.85 156.75 92.15 157.5 91.5 158.15 91.7 159.25 L91.75 159.4 92.2 160.6 92.95 161.45 Q94.0 162.45 95.05 162.55 96.3 162.7 97.0 162.0 97.7 161.25 97.5 160.15 97.25 158.9 96.3 158.0 95.3 157.1 94.1 157.0 M90.75 159.1 Q90.45 157.55 91.4 156.55 92.4 155.55 94.2 155.8 95.85 155.95 97.25 157.35 98.75 158.55 99.0 160.4 99.35 162.0 98.4 163.0 97.35 164.1 95.65 163.9 93.95 163.65 92.5 162.3 L91.55 161.25 91.45 161.05 Q90.95 160.2 90.8 159.35 L90.75 159.1" fill="#630000" fill-rule="evenodd" stroke="none"/>
    <path d="M94.1 157.0 Q95.3 157.1 96.3 158.0 97.25 158.9 97.5 160.15 97.7 161.25 97.0 162.0 96.3 162.7 95.05 162.55 94.0 162.45 92.95 161.45 L92.2 160.6 91.75 159.4 91.7 159.25 Q91.5 158.15 92.15 157.5 92.85 156.75 94.1 157.0" fill="#7d0000" fill-rule="evenodd" stroke="none"/>
    <path d="M91.55 161.25 L92.95 162.9 Q94.8 164.65 97.0 165.05 99.25 165.3 100.5 163.9 101.85 162.6 101.35 160.4 101.0 158.15 99.05 156.45 97.3 154.75 95.1 154.55 92.8 154.2 91.5 155.5 90.2 156.85 90.75 159.1 L90.8 159.35 Q90.95 160.2 91.45 161.05 L91.55 161.25 Z" fill="none" stroke="#000000" stroke-linecap="round" stroke-linejoin="round" stroke-opacity="0.2" stroke-width="1.0"/>
    <path d="M75.75 146.45 Q75.2 144.2 76.5 142.85 77.8 141.55 80.1 141.9 82.3 142.1 84.05 143.8 86.0 145.5 86.35 147.75 86.85 149.95 85.5 151.25 84.25 152.65 82.0 152.4 79.8 152.0 77.95 150.25 L76.55 148.6 77.5 149.65 Q78.95 151.0 80.65 151.25 82.35 151.45 83.4 150.35 84.35 149.35 84.0 147.75 83.75 145.9 82.25 144.7 80.85 143.3 79.2 143.15 77.4 142.9 76.4 143.9 75.45 144.9 75.75 146.45" fill="#450000" fill-rule="evenodd" stroke="none"/>
    <path d="M77.15 144.85 Q76.5 145.5 76.7 146.6 L76.75 146.75 77.2 147.95 77.95 148.8 Q79.0 149.8 80.05 149.9 81.3 150.05 82.0 149.35 82.7 148.6 82.5 147.5 82.25 146.25 81.3 145.35 80.3 144.45 79.1 144.35 77.85 144.1 77.15 144.85 M75.75 146.45 Q75.45 144.9 76.4 143.9 77.4 142.9 79.2 143.15 80.85 143.3 82.25 144.7 83.75 145.9 84.0 147.75 84.35 149.35 83.4 150.35 82.35 151.45 80.65 151.25 78.95 151.0 77.5 149.65 L76.55 148.6 76.45 148.4 Q75.95 147.55 75.8 146.7 L75.75 146.45" fill="#630000" fill-rule="evenodd" stroke="none"/>
    <path d="M77.15 144.85 Q77.85 144.1 79.1 144.35 80.3 144.45 81.3 145.35 82.25 146.25 82.5 147.5 82.7 148.6 82.0 149.35 81.3 150.05 80.05 149.9 79.0 149.8 77.95 148.8 L77.2 147.95 76.75 146.75 76.7 146.6 Q76.5 145.5 77.15 144.85" fill="#7d0000" fill-rule="evenodd" stroke="none"/>
    <path d="M76.55 148.6 L77.95 150.25 Q79.8 152.0 82.0 152.4 84.25 152.65 85.5 151.25 86.85 149.95 86.35 147.75 86.0 145.5 84.05 143.8 82.3 142.1 80.1 141.9 77.8 141.55 76.5 142.85 75.2 144.2 75.75 146.45 L75.8 146.7 Q75.95 147.55 76.45 148.4 L76.55 148.6 Z" fill="none" stroke="#000000" stroke-linecap="round" stroke-linejoin="round" stroke-opacity="0.2" stroke-width="1.0"/>
    <path d="M105.1 143.65 Q104.65 144.55 103.75 145.25 102.85 145.95 101.0 145.75 L104.45 146.9 Q102.55 147.75 100.15 147.45 96.8 147.0 94.4 144.5 92.05 142.0 92.0 138.9 92.0 136.6 93.25 135.0 L93.55 134.75 Q95.9 132.9 99.3 133.35 101.85 133.65 103.85 135.15 L99.2 135.25 Q97.25 135.0 95.75 135.9 L95.7 135.95 Q94.05 137.3 94.05 139.55 94.05 141.8 95.75 143.6 97.45 145.35 99.75 145.7 L99.95 145.7 101.0 145.75 Q102.75 145.7 104.1 144.65 L105.1 143.65" fill="#7d0000" fill-rule="evenodd" stroke="none"/>
    <path d="M104.45 146.9 L105.9 146.0 106.15 145.8 105.05 146.9 104.95 147.0 Q102.55 148.75 99.3 148.35 95.95 147.9 93.55 145.4 91.2 142.9 91.15 139.8 91.15 136.85 93.25 135.0 92.0 136.6 92.0 138.9 92.05 142.0 94.4 144.5 96.8 147.0 100.15 147.45 102.55 147.75 104.45 146.9 L104.95 147.0 104.45 146.9" fill="#990000" fill-rule="evenodd" stroke="none"/>
    <path d="M105.1 143.65 Q105.5 142.7 105.5 141.55 105.5 139.25 103.75 137.4 102.0 135.55 99.5 135.25 L99.2 135.25 103.85 135.15 105.05 136.25 Q107.4 138.8 107.4 141.9 107.4 144.15 106.15 145.8 L105.9 146.0 104.45 146.9 101.0 145.75 Q102.85 145.95 103.75 145.25 104.65 144.55 105.1 143.65" fill="#5c0000" fill-rule="evenodd" stroke="none"/>
    <path d="M95.75 135.9 L95.7 135.95" fill="none" stroke="#000000" stroke-linecap="round" stroke-linejoin="round" stroke-width="0.05"/>
    <path d="M99.2 135.25 L99.5 135.25 Q102.0 135.55 103.75 137.4 105.5 139.25 105.5 141.55 105.5 142.7 105.1 143.65 104.65 144.55 103.75 145.25 102.85 145.95 101.0 145.75 M106.15 145.8 Q107.4 144.15 107.4 141.9 107.4 138.8 105.05 136.25 L103.85 135.15 Q101.85 133.65 99.3 133.35 95.9 132.9 93.55 134.75 L93.25 135.0 Q91.15 136.85 91.15 139.8 91.2 142.9 93.55 145.4 95.95 147.9 99.3 148.35 102.55 148.75 104.95 147.0 L104.45 146.9 M99.2 135.25 Q97.25 135.0 95.75 135.9 M106.15 145.8 L105.05 146.9 104.95 147.0" fill="none" stroke="#000000" stroke-linecap="round" stroke-linejoin="round" stroke-opacity="0.050980393" stroke-width="0.05"/>
  </g>
</svg>
