<?xml version="1.0" encoding="UTF-8" standalone="no"?>
<svg xmlns:xlink="http://www.w3.org/1999/xlink" height="48.5px" width="32.9px" xmlns="http://www.w3.org/2000/svg">
  <g transform="matrix(1.0, 0.0, 0.0, 1.0, -258.5, -176.2)">
    <path d="M282.25 177.7 Q284.05 178.45 285.75 179.55 291.45 182.7 291.35 188.9 L287.2 201.9 287.1 206.95 272.85 206.5 269.55 205.1 258.55 196.1 259.6 194.85 268.8 201.05 275.0 194.75 275.6 193.95 Q275.2 197.5 275.2 204.05 L283.65 204.3 286.1 199.9 288.25 193.5 Q289.4 189.65 287.9 185.95 286.2 181.7 282.9 179.05 L282.0 179.05 282.0 178.95 282.25 177.7 M273.3 199.95 L271.4 204.05 273.3 199.95" fill="#cccccc" fill-rule="evenodd" stroke="none"/>
    <path d="M259.6 194.85 L261.85 192.25 Q263.85 186.85 267.65 180.0 L267.8 179.8 Q272.35 175.3 277.75 176.5 280.05 176.85 282.2 177.7 L275.0 194.75 268.8 201.05 259.6 194.85" fill="#999999" fill-rule="evenodd" stroke="none"/>
    <path d="M272.85 206.5 L265.05 224.65 263.55 224.5 268.95 211.25 267.2 210.3 269.55 205.1 272.85 206.5" fill="#58382b" fill-rule="evenodd" stroke="none"/>
    <path d="M263.55 224.5 Q261.85 224.1 261.45 223.0 L267.2 210.3 268.95 211.25 263.55 224.5" fill="#a1664c" fill-rule="evenodd" stroke="none"/>
    <path d="M282.2 177.7 L282.25 177.7 282.0 178.95 282.0 179.05 282.9 179.05 Q286.2 181.7 287.9 185.95 289.4 189.65 288.25 193.5 L286.1 199.9 283.65 204.3 275.2 204.05 Q275.2 197.5 275.6 193.95 L275.0 194.75 282.2 177.7" fill="#8b8b8b" fill-rule="evenodd" stroke="none"/>
    <path d="M259.6 194.85 L261.85 192.25 Q263.85 186.85 267.65 180.0 L267.8 179.8 Q272.35 175.3 277.75 176.5 280.05 176.85 282.2 177.7 L282.25 177.7 Q284.05 178.45 285.75 179.55 291.45 182.7 291.35 188.9 L287.2 201.9 287.1 206.95 272.85 206.5 265.05 224.65 263.55 224.5 Q261.85 224.1 261.45 223.0 L267.2 210.3 269.55 205.1 258.55 196.1 259.6 194.85 M269.55 205.1 L272.85 206.5 M271.4 204.05 L273.3 199.95" fill="none" stroke="#69513b" stroke-linecap="round" stroke-linejoin="round" stroke-width="0.1"/>
  </g>
</svg>
