<?xml version="1.0" encoding="UTF-8" standalone="no"?>
<svg xmlns:xlink="http://www.w3.org/1999/xlink" height="180.3px" width="147.05px" xmlns="http://www.w3.org/2000/svg">
  <g transform="matrix(1.0, 0.0, 0.0, 1.0, 73.5, 90.15)">
    <path d="M-5.35 -79.85 L-5.5 -80.65 Q-5.6 -81.3 -5.3 -81.85 L-5.2 -86.65 Q-2.4 -90.15 0.4 -90.15 1.45 -90.15 2.65 -89.5 4.55 -87.05 2.7 -85.0 L0.45 -85.35 Q-1.95 -85.35 -3.75 -83.85 -4.95 -83.0 -5.3 -81.85 L-5.35 -79.85 M-7.4 -10.25 Q-3.7 -36.1 -6.05 -56.75 L-5.95 -58.7 Q-5.65 -59.75 -4.6 -60.5 L-4.25 -60.75 Q-2.45 -62.05 0.2 -62.05 L3.2 -61.6 4.25 -11.9 2.25 -12.35 -0.8 -12.6 Q-5.35 -12.5 -7.4 -10.25" fill="#ab8649" fill-rule="evenodd" stroke="none"/>
    <path d="M2.65 -89.5 Q4.25 -88.7 5.9 -86.6 L6.0 -82.0 Q5.6 -83.2 4.45 -84.05 L2.75 -85.0 2.7 -85.0 Q4.55 -87.05 2.65 -89.5 M4.7 -60.75 Q6.0 -59.85 6.4 -58.5 L6.45 -56.75 Q3.35 -35.8 7.2 -10.25 6.05 -11.4 4.25 -11.9 L3.2 -61.6 3.25 -61.6 4.7 -60.75" fill="#8f6a3f" fill-rule="evenodd" stroke="none"/>
    <path d="M6.05 -80.15 Q5.7 -79.0 4.55 -78.05 L4.55 -80.0 Q4.25 -80.95 3.35 -81.55 L2.8 -81.9 2.75 -81.95 0.35 -82.5 Q-1.45 -82.55 -2.8 -81.45 -3.7 -80.8 -3.95 -79.9 L-4.0 -78.05 Q-5.1 -78.85 -5.35 -79.85 L-5.3 -81.85 Q-4.95 -83.0 -3.75 -83.85 -1.95 -85.35 0.45 -85.35 L2.7 -85.0 2.75 -85.0 4.45 -84.05 Q5.6 -83.2 6.0 -82.0 L6.05 -80.15" fill="#694e2e" fill-rule="evenodd" stroke="none"/>
    <path d="M-4.6 -60.5 L-4.5 -63.7 -4.3 -69.5 -4.15 -75.95 -4.0 -78.05 -3.95 -79.9 Q-3.7 -80.8 -2.8 -81.45 -1.45 -82.55 0.35 -82.5 L2.75 -81.95 2.8 -81.9 Q3.9 -79.95 2.85 -77.95 1.75 -78.55 0.35 -78.55 -1.45 -78.55 -2.8 -77.4 L-4.15 -75.95 -2.8 -77.4 Q-1.45 -78.55 0.35 -78.55 1.75 -78.55 2.85 -77.95 4.85 -73.9 3.0 -71.5 4.5 -68.6 3.1 -65.6 1.9 -66.4 0.35 -66.4 -1.45 -66.4 -2.8 -65.25 L-4.5 -63.7 -2.8 -65.25 Q-1.45 -66.4 0.35 -66.4 1.9 -66.4 3.1 -65.6 4.45 -63.65 3.25 -61.6 L3.2 -61.6 0.2 -62.05 Q-2.45 -62.05 -4.25 -60.75 L-4.6 -60.5 M-4.3 -69.5 Q-3.75 -70.4 -2.8 -71.1 -1.45 -72.25 0.35 -72.2 1.85 -72.25 3.0 -71.5 1.85 -72.25 0.35 -72.2 -1.45 -72.25 -2.8 -71.1 -3.75 -70.4 -4.3 -69.5" fill="#aeab8c" fill-rule="evenodd" stroke="none"/>
    <path d="M4.55 -78.05 L4.55 -76.0 4.6 -69.6 4.65 -63.8 4.7 -60.75 3.25 -61.6 Q4.45 -63.65 3.1 -65.6 L3.45 -65.35 Q4.3 -64.7 4.65 -63.8 4.3 -64.7 3.45 -65.35 L3.1 -65.6 Q4.5 -68.6 3.0 -71.5 4.85 -73.9 2.85 -77.95 3.9 -79.95 2.8 -81.9 L3.35 -81.55 Q4.25 -80.95 4.55 -80.0 L4.55 -78.05 M4.6 -69.6 Q4.3 -70.6 3.4 -71.2 L3.0 -71.5 3.4 -71.2 Q4.3 -70.6 4.6 -69.6 M4.55 -76.0 Q4.3 -76.95 3.4 -77.55 L2.85 -77.95 3.4 -77.55 Q4.3 -76.95 4.55 -76.0" fill="#97916c" fill-rule="evenodd" stroke="none"/>
    <path d="M7.2 -10.25 Q8.25 -9.3 8.65 -7.7 L9.35 10.75 7.55 10.35 7.55 9.55 7.4 10.45 Q6.85 22.3 4.05 33.25 L3.95 33.25 Q4.7 22.85 4.8 14.0 L4.6 6.4 Q4.1 -4.15 2.25 -12.35 L4.25 -11.9 Q6.05 -11.4 7.2 -10.25" fill="#716f71" fill-rule="evenodd" stroke="none"/>
    <path d="M-9.5 10.05 Q-10.2 9.8 -9.5 9.6 L-9.5 10.05" fill="#639aff" fill-rule="evenodd" stroke="none"/>
    <path d="M54.25 10.55 L64.15 9.6 Q71.05 17.4 72.55 25.35 73.25 28.3 73.5 31.25 L73.5 32.0 73.5 32.05 73.45 32.05 Q65.65 35.25 58.0 31.5 59.0 26.55 58.05 21.25 57.1 15.55 54.25 10.55 M73.5 38.3 Q72.45 50.7 64.2 61.4 45.5 61.25 45.25 51.05 53.7 44.05 56.7 35.85 62.8 32.95 73.5 38.3 M34.2 84.0 L29.95 85.65 Q16.25 90.2 -0.3 90.15 -16.9 90.05 -30.9 85.2 -29.95 73.9 -21.35 63.2 L-13.85 64.75 Q-0.2 66.45 0.5 53.2 2.65 65.55 14.4 64.75 L22.35 62.95 Q42.05 66.4 34.2 84.0 M-42.4 80.0 Q-49.55 76.0 -55.75 70.45 -51.45 60.95 -39.05 55.5 -34.2 58.7 -28.55 60.8 -29.9 74.35 -42.4 80.0 M-73.5 35.15 L-73.4 32.25 Q-73.2 28.55 -72.45 24.75 L-71.8 22.0 Q-64.6 20.4 -58.5 24.25 -58.7 27.75 -58.0 31.15 L-57.6 32.75 Q-65.2 39.85 -73.5 35.15 M-70.35 17.6 Q-68.9 13.65 -66.1 9.05 L-58.5 10.1 -54.2 10.1 -54.5 10.55 Q-56.65 14.45 -57.6 18.7 -64.7 21.95 -70.35 17.6" fill="#c8cabf" fill-rule="evenodd" stroke="none"/>
    <path d="M14.15 11.65 L28.55 13.0 Q41.35 13.25 54.25 10.55 57.1 15.55 58.05 21.25 59.0 26.55 58.0 31.5 L56.7 35.85 Q53.7 44.05 45.25 51.05 L44.4 51.8 42.9 53.0 38.25 56.15 Q31.05 60.6 22.35 62.95 L14.4 64.75 Q2.65 65.55 0.5 53.2 -0.2 66.45 -13.85 64.75 L-21.35 63.2 Q-25.05 62.25 -28.55 60.8 -34.2 58.7 -39.05 55.5 L-42.0 53.55 -44.75 51.4 Q-55.0 42.85 -57.6 32.75 L-58.0 31.15 Q-58.7 27.75 -58.5 24.25 L-58.05 20.8 -57.6 18.7 Q-56.65 14.45 -54.5 10.55 L-54.2 10.1 Q-35.4 14.25 -9.5 10.6 L-7.95 10.35 -7.95 10.4 -7.65 10.4 Q-7.25 27.45 0.2 45.2 2.25 39.85 3.8 34.35 L3.9 33.9 Q3.9 33.55 4.05 33.25 9.05 17.65 14.15 11.65 M3.95 33.25 L4.05 33.25 Q3.9 33.55 3.9 33.9 L3.95 33.25 M7.4 10.45 L7.55 9.55 7.55 10.35 7.55 10.45 7.4 10.45" fill="#9c9a9c" fill-rule="evenodd" stroke="none"/>
    <path d="M73.5 32.05 L73.5 38.3 Q62.8 32.95 56.7 35.85 L58.0 31.5 Q65.65 35.25 73.45 32.05 L73.5 32.05" fill="#e8e7df" fill-rule="evenodd" stroke="none"/>
    <path d="M9.35 10.75 L9.45 10.75 14.15 11.65 Q9.05 17.65 4.05 33.25 6.85 22.3 7.4 10.45 L7.55 10.45 7.55 10.35 9.35 10.75" fill="#8f8d8f" fill-rule="evenodd" stroke="none"/>
    <path d="M-9.5 10.6 L-9.5 10.05 -9.5 9.6 -8.75 -7.65 Q-8.4 -9.25 -7.4 -10.25 -5.35 -12.5 -0.8 -12.6 L2.25 -12.35 Q4.1 -4.15 4.6 6.4 L4.8 14.0 Q4.7 22.85 3.95 33.25 L3.9 33.9 3.8 34.35 Q2.25 39.85 0.2 45.2 -7.25 27.45 -7.65 10.4 L-7.95 10.4 -7.95 10.35 -9.5 10.6" fill="#a7a6a8" fill-rule="evenodd" stroke="none"/>
    <path d="M64.2 61.4 L62.45 63.65 Q47.65 64.9 42.9 53.0 L44.4 51.8 45.25 51.05 Q45.5 61.25 64.2 61.4 M55.0 71.3 Q45.9 79.4 34.2 84.0 42.05 66.4 22.35 62.95 31.05 60.6 38.25 56.15 39.25 69.65 55.0 71.3" fill="#d7d8d1" fill-rule="evenodd" stroke="none"/>
    <path d="M62.45 63.65 Q60.3 66.4 57.5 68.95 L55.0 71.3 Q39.25 69.65 38.25 56.15 L42.9 53.0 Q47.65 64.9 62.45 63.65 M-30.9 85.2 Q-36.8 83.05 -42.4 80.0 -29.9 74.35 -28.55 60.8 -25.05 62.25 -21.35 63.2 -29.95 73.9 -30.9 85.2" fill="#b8b69c" fill-rule="evenodd" stroke="none"/>
    <path d="M-71.8 22.0 L-70.35 17.6 Q-64.7 21.95 -57.6 18.7 L-58.05 20.8 -58.5 24.25 Q-64.6 20.4 -71.8 22.0" fill="#ffffff" fill-rule="evenodd" stroke="none"/>
    <path d="M-60.25 66.0 L-63.3 62.25 Q-73.2 49.6 -73.5 35.15 -65.2 39.85 -57.6 32.75 -55.0 42.85 -44.75 51.4 L-42.0 53.55 Q-48.5 63.5 -60.25 66.0" fill="#bfbda6" fill-rule="evenodd" stroke="none"/>
    <path d="M-55.75 70.45 L-57.65 68.6 -60.25 66.0 Q-48.5 63.5 -42.0 53.55 L-39.05 55.5 Q-51.45 60.95 -55.75 70.45" fill="#ebece8" fill-rule="evenodd" stroke="none"/>
    <path d="M-5.35 -79.85 L-5.5 -80.65 Q-5.6 -81.3 -5.3 -81.85 L-5.2 -86.65 Q-2.4 -90.15 0.4 -90.15 1.45 -90.15 2.65 -89.5 4.25 -88.7 5.9 -86.6 L6.0 -82.0 6.15 -81.0 6.05 -80.15 Q5.7 -79.0 4.55 -78.05 L4.55 -76.0 4.6 -69.6 4.65 -63.8 4.7 -60.75 Q6.0 -59.85 6.4 -58.5 L6.55 -57.6 6.45 -56.75 Q3.35 -35.8 7.2 -10.25 8.25 -9.3 8.65 -7.7 L9.35 10.75 7.55 10.35 7.55 10.45 7.4 10.45 7.55 9.55 7.55 10.35 M9.45 10.75 L14.15 11.65 28.55 13.0 Q41.35 13.25 54.25 10.55 L64.15 9.6 Q71.05 17.4 72.55 25.35 73.25 28.3 73.5 31.25 L73.5 32.0 73.5 32.05 73.5 38.3 Q72.45 50.7 64.2 61.4 L62.45 63.65 Q60.3 66.4 57.5 68.95 L55.0 71.3 Q45.9 79.4 34.2 84.0 L29.95 85.65 Q16.25 90.2 -0.3 90.15 -16.9 90.05 -30.9 85.2 -36.8 83.05 -42.4 80.0 -49.55 76.0 -55.75 70.45 L-57.65 68.6 -60.25 66.0 -63.3 62.25 Q-73.2 49.6 -73.5 35.15 L-73.4 32.25 Q-73.2 28.55 -72.45 24.75 L-71.8 22.0 -70.35 17.6 Q-68.9 13.65 -66.1 9.05 L-58.5 10.1 -54.2 10.1 Q-35.4 14.25 -9.5 10.6 L-9.5 10.05 -9.5 9.6 -8.75 -7.65 Q-8.4 -9.25 -7.4 -10.25 -3.7 -36.1 -6.05 -56.75 L-6.15 -57.6 -5.95 -58.7 Q-5.65 -59.75 -4.6 -60.5 L-4.5 -63.7 -4.3 -69.5 -4.15 -75.95 -4.0 -78.05 Q-5.1 -78.85 -5.35 -79.85 L-5.3 -81.85 Q-4.95 -83.0 -3.75 -83.85 -1.95 -85.35 0.45 -85.35 L2.7 -85.0 2.75 -85.0 4.45 -84.05 Q5.6 -83.2 6.0 -82.0 L6.05 -80.15 M-4.0 -78.05 L-3.95 -79.9 Q-3.7 -80.8 -2.8 -81.45 -1.45 -82.55 0.35 -82.5 L2.75 -81.95 2.8 -81.9 3.35 -81.55 Q4.25 -80.95 4.55 -80.0 L4.55 -78.05 M3.25 -61.6 L4.7 -60.75 M6.4 -58.5 L6.45 -56.75 M3.2 -61.6 L3.25 -61.6 M-4.6 -60.5 L-4.25 -60.75 Q-2.45 -62.05 0.2 -62.05 L3.2 -61.6 M4.25 -11.9 Q6.05 -11.4 7.2 -10.25 M4.25 -11.9 L2.25 -12.35 -0.8 -12.6 Q-5.35 -12.5 -7.4 -10.25 M4.05 33.25 Q6.85 22.3 7.4 10.45 M-6.05 -56.75 L-5.95 -58.7 M3.9 33.9 L3.8 34.35 Q2.25 39.85 0.2 45.2 -7.25 27.45 -7.65 10.4 L-7.95 10.4 -7.95 10.35 -9.5 10.6 M-57.6 18.7 Q-56.65 14.45 -54.5 10.55 L-54.2 10.1 M-58.5 24.25 L-58.05 20.8 -57.6 18.7 M-57.6 32.75 L-58.0 31.15 Q-58.7 27.75 -58.5 24.25 M-42.0 53.55 L-44.75 51.4 Q-55.0 42.85 -57.6 32.75 M22.35 62.95 L14.4 64.75 Q2.65 65.55 0.5 53.2 -0.2 66.45 -13.85 64.75 L-21.35 63.2 Q-25.05 62.25 -28.55 60.8 -34.2 58.7 -39.05 55.5 L-42.0 53.55 M54.25 10.55 Q57.1 15.55 58.05 21.25 59.0 26.55 58.0 31.5 L56.7 35.85 Q53.7 44.05 45.25 51.05 L44.4 51.8 42.9 53.0 38.25 56.15 Q31.05 60.6 22.35 62.95 M3.9 33.9 Q3.9 33.55 4.05 33.25 M3.95 33.25 L3.9 33.9" fill="none" stroke="#000000" stroke-linecap="round" stroke-linejoin="round" stroke-opacity="0.4" stroke-width="0.05"/>
    <path d="M-4.15 -75.95 L-2.8 -77.4 Q-1.45 -78.55 0.35 -78.55 1.75 -78.55 2.85 -77.95 L3.4 -77.55 Q4.3 -76.95 4.55 -76.0 M3.1 -65.6 L3.45 -65.35 Q4.3 -64.7 4.65 -63.8 M3.0 -71.5 L3.4 -71.2 Q4.3 -70.6 4.6 -69.6 M3.0 -71.5 Q1.85 -72.25 0.35 -72.2 -1.45 -72.25 -2.8 -71.1 -3.75 -70.4 -4.3 -69.5 M-4.5 -63.7 L-2.8 -65.25 Q-1.45 -66.4 0.35 -66.4 1.9 -66.4 3.1 -65.6" fill="none" stroke="#000000" stroke-linecap="round" stroke-linejoin="round" stroke-opacity="0.4" stroke-width="0.05"/>
    <path d="M9.35 10.75 L9.45 10.75" fill="none" stroke="#66ff00" stroke-linecap="round" stroke-linejoin="round" stroke-width="0.05"/>
  </g>
</svg>
