<?xml version="1.0" encoding="UTF-8" standalone="no"?>
<svg xmlns:xlink="http://www.w3.org/1999/xlink" height="8.95px" width="14.35px" xmlns="http://www.w3.org/2000/svg">
  <g transform="matrix(1.0, 0.0, 0.0, 1.0, -358.3, -153.55)">
    <path d="M360.4 154.85 Q358.3 156.15 358.3 158.0 358.3 159.85 360.4 161.2 362.5 162.5 365.45 162.5 368.45 162.5 370.55 161.2 372.65 159.85 372.65 158.0 372.65 156.15 370.55 154.85 368.45 153.55 365.45 153.55 362.5 153.55 360.4 154.85 M366.75 154.95 Q367.65 155.05 367.75 155.75 L367.45 156.15 Q366.5 156.35 365.8 155.9 365.45 155.3 366.35 154.95 L366.75 154.95 M369.2 157.55 L368.95 157.6 Q372.5 159.85 368.35 161.2 365.95 162.0 364.1 161.2 365.2 160.55 366.8 160.1 L368.45 159.45 367.45 158.7 366.85 158.25 Q367.65 157.7 368.75 157.6 L369.2 157.55" fill="url(#gradient0)" fill-rule="evenodd" stroke="none"/>
    <path d="M369.2 157.55 L368.75 157.6 Q367.65 157.7 366.85 158.25 L367.45 158.7 368.45 159.45 366.8 160.1 Q365.2 160.55 364.1 161.2 365.95 162.0 368.35 161.2 372.5 159.85 368.95 157.6 L369.2 157.55 M366.75 154.95 L366.35 154.95 Q365.45 155.3 365.8 155.9 366.5 156.35 367.45 156.15 L367.75 155.75 Q367.65 155.05 366.75 154.95" fill="#fdfdbd" fill-rule="evenodd" stroke="none"/>
    <path d="M360.4 154.85 Q358.3 156.15 358.3 158.0 358.3 159.85 360.4 161.2 362.5 162.5 365.45 162.5 368.45 162.5 370.55 161.2 372.65 159.85 372.65 158.0 372.65 156.15 370.55 154.85 368.45 153.55 365.45 153.55 362.5 153.55 360.4 154.85 Z" fill="none" stroke="#f3653b" stroke-linecap="round" stroke-linejoin="round" stroke-opacity="0.36078432" stroke-width="0.05"/>
  </g>
  <defs>
    <radialGradient cx="0" cy="0" gradientTransform="matrix(-0.0144, 0.0, 0.0, 0.009, 368.25, 155.75)" gradientUnits="userSpaceOnUse" id="gradient0" r="819.2" spreadMethod="pad">
      <stop offset="0.0" stop-color="#f8f468"/>
      <stop offset="0.48627450980392156" stop-color="#fbb64b"/>
      <stop offset="1.0" stop-color="#f35f3a"/>
    </radialGradient>
  </defs>
</svg>
