<?xml version="1.0" encoding="UTF-8" standalone="no"?>
<svg xmlns:xlink="http://www.w3.org/1999/xlink" height="40.0px" width="47.0px" xmlns="http://www.w3.org/2000/svg">
  <g transform="matrix(1.0, 0.0, 0.0, 1.0, -236.25, -215.6)">
    <path d="M263.7 218.7 L244.5 234.75 240.2 252.65 260.9 251.35 280.05 233.05 283.25 234.45 262.6 254.05 236.25 255.6 241.4 234.2 262.45 215.6 263.7 218.7" fill="url(#gradient0)" fill-rule="evenodd" stroke="none"/>
    <path d="M280.05 233.05 L260.9 251.35 240.2 252.65 244.5 234.75 263.7 218.7 267.2 227.3 280.05 233.05" fill="url(#gradient1)" fill-rule="evenodd" stroke="none"/>
    <path d="M263.7 218.7 L262.45 215.6 241.4 234.2 236.25 255.6 262.6 254.05 283.25 234.45 280.05 233.05 267.2 227.3 263.7 218.7" fill="none" stroke="#000000" stroke-linecap="round" stroke-linejoin="round" stroke-opacity="0.28235295" stroke-width="0.05"/>
    <path d="M280.05 233.05 L260.9 251.35 240.2 252.65 244.5 234.75 263.7 218.7" fill="none" stroke="#b5a89c" stroke-linecap="round" stroke-linejoin="round" stroke-opacity="0.27058825" stroke-width="0.05"/>
  </g>
  <defs>
    <radialGradient cx="0" cy="0" gradientTransform="matrix(0.0443, 0.0107, -0.0107, 0.0443, 259.2, 252.85)" gradientUnits="userSpaceOnUse" id="gradient0" r="819.2" spreadMethod="pad">
      <stop offset="0.0" stop-color="#b4a69a"/>
      <stop offset="0.4627450980392157" stop-color="#dbe7db"/>
      <stop offset="1.0" stop-color="#b7aca0"/>
    </radialGradient>
    <radialGradient cx="0" cy="0" gradientTransform="matrix(0.0497, 0.012, -0.012, 0.0497, 273.35, 236.15)" gradientUnits="userSpaceOnUse" id="gradient1" r="819.2" spreadMethod="pad">
      <stop offset="0.0" stop-color="#b4a69a"/>
      <stop offset="0.4627450980392157" stop-color="#dbe7db"/>
      <stop offset="1.0" stop-color="#b7aca0"/>
    </radialGradient>
  </defs>
</svg>
