<?xml version="1.0" encoding="UTF-8" standalone="no"?>
<svg xmlns:xlink="http://www.w3.org/1999/xlink" height="84.7px" width="45.85px" xmlns="http://www.w3.org/2000/svg">
  <g transform="matrix(1.0, 0.0, 0.0, 1.0, 22.95, 42.3)">
    <path d="M21.25 -36.45 L21.2 -36.6 Q20.35 -39.2 18.35 -39.1 L18.05 -38.85 17.7 -39.5 17.7 -39.55 Q18.1 -40.5 19.45 -40.65 21.45 -40.2 22.2 -38.1 L21.25 -36.45 M2.65 6.1 L2.25 7.2 2.0 6.95 1.3 6.55 0.75 6.35 -0.1 6.2 -0.35 6.25 0.1 4.15 Q0.5 5.25 1.3 5.85 1.95 6.35 2.65 6.1 M1.25 -1.2 L3.35 -7.25 Q4.45 -5.95 6.15 -5.6 L4.7 -0.1 Q4.25 1.8 3.25 3.1 L2.2 3.2 2.05 3.1 1.9 2.2 1.65 1.05 1.6 0.6 1.65 0.35 1.7 -0.05 1.7 -0.55 1.65 -0.75 1.5 -1.0 1.3 -1.2 1.25 -1.2 M9.0 -24.15 L14.4 -42.3 17.15 -41.05 16.2 -39.85 15.75 -38.65 Q14.05 -36.05 13.25 -32.8 L11.3 -25.05 10.8 -24.8 9.0 -24.15 M8.35 -21.3 Q9.25 -21.7 10.2 -21.75 L10.3 -21.75 10.0 -20.25 9.8 -19.45 9.4 -19.25 Q8.5 -19.1 7.85 -18.2 6.9 -17.05 6.4 -15.65 5.9 -14.3 5.9 -12.65 L6.05 -12.45 6.95 -12.4 Q7.55 -13.2 7.8 -14.4 L8.15 -15.65 8.25 -15.8 8.7 -16.1 8.9 -16.1 8.0 -12.65 7.05 -9.05 Q5.3 -9.0 4.45 -10.0 L8.35 -21.3" fill="#674730" fill-rule="evenodd" stroke="none"/>
    <path d="M18.05 -38.85 L17.65 -38.55 17.4 -38.45 Q14.7 -32.95 13.35 -26.5 L13.15 -25.6 Q18.65 -26.35 21.2 -35.15 L21.25 -36.45 22.2 -38.1 Q21.45 -40.2 19.45 -40.65 18.1 -40.5 17.7 -39.55 L17.7 -39.5 18.05 -38.85 M17.15 -41.05 L18.35 -42.0 18.6 -42.05 18.85 -42.05 Q24.0 -41.45 22.6 -33.4 22.3 -31.6 21.35 -29.95 17.25 -23.2 12.2 -22.05 L12.0 -21.25 11.6 -19.7 Q11.45 -18.95 11.7 -18.4 L11.9 -17.35 12.0 -16.7 Q12.55 -12.85 11.15 -9.65 9.85 -6.9 7.95 -5.9 6.5 2.65 4.8 4.6 3.1 6.55 2.65 6.1 1.95 6.35 1.3 5.85 0.5 5.25 0.1 4.15 L-0.1 3.6 -0.35 1.6 -0.3 1.4 -0.1 0.55 0.15 -0.25 0.35 -0.7 0.45 -0.85 Q0.9 -1.4 1.25 -1.2 L1.3 -1.2 1.5 -1.0 1.65 -0.75 1.7 -0.55 1.7 -0.05 1.65 0.35 1.6 0.6 1.65 1.05 1.9 2.2 2.05 3.1 2.2 3.2 3.25 3.1 Q4.25 1.8 4.7 -0.1 L6.15 -5.6 Q4.45 -5.95 3.35 -7.25 2.15 -8.7 1.55 -11.2 1.75 -19.3 6.95 -22.95 L9.0 -24.15 10.8 -24.8 11.3 -25.05 13.25 -32.8 Q14.05 -36.05 15.75 -38.65 L16.2 -39.85 17.15 -41.05 M4.45 -10.0 Q5.3 -9.0 7.05 -9.05 L8.0 -12.65 8.9 -16.1 8.7 -16.1 8.25 -15.8 8.15 -15.65 7.8 -14.4 Q7.55 -13.2 6.95 -12.4 L6.05 -12.45 5.9 -12.65 Q5.9 -14.3 6.4 -15.65 6.9 -17.05 7.85 -18.2 8.5 -19.1 9.4 -19.25 L9.8 -19.45 10.0 -20.25 10.3 -21.75 10.2 -21.75 Q9.25 -21.7 8.35 -21.3 5.5 -20.0 3.65 -15.45 L3.6 -15.25 Q3.15 -11.5 4.45 -10.0 M8.85 -9.4 Q11.15 -12.0 10.3 -14.85 L8.9 -9.6 8.85 -9.4" fill="#996946" fill-rule="evenodd" stroke="none"/>
    <path d="M2.75 15.55 L5.15 15.85 5.55 15.85 3.65 21.1 3.1 22.75 -2.4 38.1 -5.45 37.55 -8.05 37.05 -8.65 33.8 -8.65 33.6 -8.85 33.75 -11.45 35.85 -13.7 34.6 Q-14.0 34.45 -14.35 34.25 L-16.35 33.1 -11.75 20.25 -10.35 16.4 -8.4 10.85 -8.25 10.95 -4.3 12.8 -3.15 13.0 -0.7 6.25 -0.35 6.25 -0.1 6.2 -3.65 16.8 -4.35 20.15 Q-2.0 12.95 0.75 6.35 L1.3 6.55 Q0.15 12.6 -2.15 17.5 L-5.1 23.75 -4.35 20.15 -5.1 23.75 Q-1.35 18.05 2.75 15.55 M-3.65 16.8 L-2.85 13.1 -3.15 13.0 -2.85 13.1 -3.65 16.8" fill="#9c9a9c" fill-rule="evenodd" stroke="none"/>
    <path d="M2.25 7.2 L2.5 7.45 0.1 14.45 -0.2 14.25 -2.15 17.5 Q0.15 12.6 1.3 6.55 L2.0 6.95 2.25 7.2" fill="#716f71" fill-rule="evenodd" stroke="none"/>
    <path d="M5.55 15.85 L7.3 15.85 5.8 21.2 5.4 21.2 4.4 21.55 3.65 21.1 5.55 15.85 M4.75 24.9 Q15.75 35.25 -0.2 42.35 L-2.4 38.1 3.1 22.75 Q4.1 23.55 4.75 24.9 M-20.75 34.95 Q-27.4 20.05 -13.6 18.7 -12.55 19.2 -11.75 20.25 L-16.35 33.1 -20.75 34.95 M-12.65 16.5 L-9.7 9.75 -9.6 9.85 -8.4 10.85 -10.35 16.4 -12.65 16.5" fill="#d7d8d1" fill-rule="evenodd" stroke="none"/>
    <path d="M0.1 14.45 L1.2 15.0 2.75 15.55 Q-1.35 18.05 -5.1 23.75 L-2.15 17.5 -0.2 14.25 0.1 14.45" fill="#8f8d8f" fill-rule="evenodd" stroke="none"/>
    <path d="M5.8 21.2 L4.75 24.9 Q4.1 23.55 3.1 22.75 L3.65 21.1 4.4 21.55 5.4 21.2 5.8 21.2 M-13.6 18.7 L-12.65 16.5 -10.35 16.4 -11.75 20.25 Q-12.55 19.2 -13.6 18.7" fill="#e8e7df" fill-rule="evenodd" stroke="none"/>
    <path d="M-0.1 6.2 L0.75 6.35 Q-2.0 12.95 -4.35 20.15 L-3.65 16.8 -0.1 6.2" fill="#b6b4b6" fill-rule="evenodd" stroke="none"/>
    <path d="M-0.2 42.35 L-5.75 41.65 -5.3 40.9 -5.3 40.8 Q-4.85 39.0 -5.45 37.55 L-2.4 38.1 -0.2 42.35 M-16.75 37.65 L-20.75 35.0 -20.75 34.95 -16.35 33.1 -14.35 34.25 Q-16.65 35.4 -16.75 37.65 M-8.65 33.8 L-8.85 33.75 -8.65 33.6 -8.65 33.8" fill="#e1e1e1" fill-rule="evenodd" stroke="none"/>
    <path d="M-5.75 41.65 L-11.0 40.2 -15.95 38.05 Q-15.4 35.95 -13.7 34.6 L-11.45 35.85 -8.85 33.75 -8.65 33.8 -8.05 37.05 -5.45 37.55 Q-4.85 39.0 -5.3 40.8 L-5.3 40.9 -5.75 41.65" fill="#c8cabf" fill-rule="evenodd" stroke="none"/>
    <path d="M-15.95 38.05 L-16.75 37.65 Q-16.65 35.4 -14.35 34.25 -14.0 34.45 -13.7 34.6 -15.4 35.95 -15.95 38.05" fill="#ffffff" fill-rule="evenodd" stroke="none"/>
    <path d="M2.65 6.1 L2.25 7.2 M-0.35 6.25 L0.1 4.15 -0.1 3.6 M1.25 -1.2 L3.35 -7.25 M9.0 -24.15 L14.4 -42.3 17.15 -41.05 M8.35 -21.3 L4.45 -10.0 M1.25 -1.2 L1.3 -1.2" fill="none" stroke="#000000" stroke-linecap="round" stroke-linejoin="round" stroke-opacity="0.4" stroke-width="0.05"/>
    <path d="M2.25 7.2 L2.5 7.45 0.1 14.45 1.2 15.0 2.75 15.55 5.15 15.85 5.55 15.85 3.65 21.1 3.1 22.75 -2.4 38.1 M-0.2 42.35 L-5.75 41.65 -11.0 40.2 -15.95 38.05 -16.75 37.65 -20.75 35.0 M-8.4 10.85 L-8.25 10.95 -4.3 12.8 -3.15 13.0 -0.7 6.25 -0.35 6.25 -0.1 6.2 M1.3 6.55 L2.0 6.95 2.25 7.2 M-4.35 20.15 L-5.1 23.75 -2.15 17.5 -0.2 14.25 0.1 14.45 M-11.75 20.25 L-10.35 16.4 -8.4 10.85 M-3.65 16.8 L-4.35 20.15 M-3.15 13.0 L-2.85 13.1 -3.65 16.8 M-8.65 33.8 L-8.65 33.6 -8.85 33.75 -11.45 35.85 M-8.65 33.8 L-8.05 37.05 M-16.35 33.1 L-11.75 20.25" fill="none" stroke="#69513b" stroke-linecap="round" stroke-linejoin="round" stroke-width="0.1"/>
    <path d="M5.55 15.85 L7.3 15.85 5.8 21.2 4.75 24.9 Q15.75 35.25 -0.2 42.35 M-20.75 35.0 L-20.75 34.95 Q-27.4 20.05 -13.6 18.7 L-12.65 16.5 -9.7 9.75 -9.6 9.85 -8.4 10.85" fill="none" stroke="#6f5a46" stroke-linecap="round" stroke-linejoin="round" stroke-width="0.1"/>
  </g>
</svg>
