<?xml version="1.0" encoding="UTF-8" standalone="no"?>
<svg xmlns:xlink="http://www.w3.org/1999/xlink" height="52.0px" width="49.5px" xmlns="http://www.w3.org/2000/svg">
  <g transform="matrix(1.0, 0.0, 0.0, 1.0, -250.2, -174.45)">
    <path d="M265.75 204.9 L266.6 203.95 268.15 206.15 268.5 205.05 267.5 203.1 268.5 205.05 268.15 206.15 266.6 203.95 267.5 203.1 270.9 199.55 270.15 205.25 269.25 206.5 268.3 207.9 266.8 207.5 265.75 204.9 M269.25 206.5 L269.05 205.7 268.25 206.85 268.3 207.9 268.25 206.85 269.05 205.7 269.25 206.5" fill="#faf5e4" fill-rule="evenodd" stroke="none"/>
    <path d="M269.25 206.5 L270.15 205.25 279.1 198.25 277.2 201.85 269.85 208.5 269.25 209.0 268.3 207.9 269.25 206.5 269.85 208.5 269.25 206.5 M257.9 219.35 L256.6 221.75 256.15 222.65 255.65 221.1 256.15 222.65 254.9 225.1 254.35 225.65 253.55 223.75 252.65 223.5 252.9 226.15 252.65 223.5 253.55 223.75 254.35 225.65 253.7 226.45 252.9 226.15 251.6 225.45 251.6 224.25 251.6 225.45 250.85 224.85 251.6 224.25 253.75 222.6 254.9 225.1 253.75 222.6 255.65 221.1 256.35 220.55 256.6 221.75 256.35 220.55 257.9 219.35 M283.85 182.3 L284.55 180.95 289.15 183.05 288.45 184.15 287.7 185.3 286.9 186.35 286.9 186.4 286.15 187.55 282.3 193.2 281.75 194.0 281.65 186.45 282.35 185.1 285.95 185.65 286.25 184.5 283.1 183.7 286.25 184.5 285.95 185.65 282.35 185.1 283.1 183.7 283.85 182.3 287.2 183.25 287.7 185.3 287.2 183.25 283.85 182.3 M286.9 186.4 L285.8 186.8 286.15 187.55 285.8 186.8 286.9 186.4" fill="#e7d083" fill-rule="evenodd" stroke="none"/>
    <path d="M265.75 204.9 L266.8 207.5 Q266.1 207.15 264.95 209.4 264.0 209.15 262.55 212.1 261.05 212.3 260.5 214.55 L260.4 210.75 260.55 210.3 Q261.85 210.75 262.4 208.4 L262.55 212.1 262.4 208.4 Q263.85 208.9 264.3 206.4 265.85 206.4 265.75 204.9 M264.3 206.4 L264.95 209.4 264.3 206.4" fill="#993300" fill-rule="evenodd" stroke="none"/>
    <path d="M266.8 207.5 L268.3 207.9 269.25 209.0 Q266.95 209.3 266.75 211.2 265.35 211.1 264.8 213.0 L263.7 214.45 Q262.5 214.3 261.4 217.4 L260.95 216.0 260.5 214.55 Q261.05 212.3 262.55 212.1 L263.7 214.45 262.55 212.1 Q264.0 209.15 264.95 209.4 L266.75 211.2 264.95 209.4 Q266.1 207.15 266.8 207.5" fill="#5f1f00" fill-rule="evenodd" stroke="none"/>
    <path d="M270.15 205.25 L270.9 199.55 281.65 186.45 281.75 194.0 279.1 198.25 270.15 205.25 M260.45 210.45 L260.4 210.75 259.4 213.3 258.6 212.25 259.4 213.3 258.9 214.8 257.8 213.15 258.9 214.8 258.35 216.8 257.1 217.05 256.25 214.75 257.1 217.05 258.35 216.8 258.05 217.9 Q257.9 218.65 257.9 219.35 L256.35 220.55 255.65 221.1 255.2 219.4 255.9 219.0 256.35 220.55 255.9 219.0 255.2 219.4 255.65 221.1 253.75 222.6 251.6 224.25 251.6 223.1 252.75 221.75 252.25 218.95 252.75 221.75 251.6 223.1 251.6 224.25 250.85 224.85 Q250.1 223.55 250.25 221.05 L252.25 218.95 253.2 217.95 253.75 222.6 253.2 217.95 255.45 215.55 256.25 214.75 257.8 213.15 258.6 212.25 260.45 210.45 M258.05 217.9 L256.8 218.2 255.45 215.55 256.8 218.2 258.05 217.9" fill="#f2e7bf" fill-rule="evenodd" stroke="none"/>
    <path d="M260.4 210.75 L260.5 214.55 259.4 213.3 260.5 214.55 260.95 216.0 261.4 217.4 260.15 218.95 260.35 217.45 259.45 218.05 258.8 220.6 259.45 218.05 260.35 217.45 260.15 218.95 258.8 220.6 256.9 222.85 256.6 221.75 256.9 222.85 256.35 223.45 254.9 225.1 256.15 222.65 256.6 221.75 257.9 219.35 Q257.9 218.65 258.05 217.9 L258.35 216.8 258.9 214.8 259.4 213.3 260.4 210.75 M260.95 216.0 L260.3 216.8 258.9 214.8 260.3 216.8 260.95 216.0 M258.05 217.9 L258.85 217.8 259.15 216.65 258.35 216.8 259.15 216.65 258.85 217.8 258.05 217.9 M287.7 185.3 L288.45 184.15 289.15 183.05 289.35 184.95 289.35 185.85 289.4 186.9 288.55 187.95 287.9 188.7 287.1 189.75 283.35 194.3 282.3 193.2 286.15 187.55 287.1 189.75 286.15 187.55 286.9 186.4 286.9 186.35 287.7 185.3 288.0 186.6 288.2 185.8 288.45 184.15 289.35 184.95 288.45 184.15 288.2 185.8 288.0 186.6 287.7 185.3 M289.35 185.85 L288.6 186.4 288.55 187.95 288.6 186.4 289.35 185.85 M287.9 188.7 L286.95 186.4 286.9 186.35 286.95 186.4 287.9 188.7 M286.95 186.4 L286.9 186.4 286.95 186.4 M256.15 222.65 L256.35 223.45 256.15 222.65" fill="#afa272" fill-rule="evenodd" stroke="none"/>
    <path d="M266.6 203.95 L265.75 204.9 266.8 207.5 268.3 207.9 269.25 209.0 269.85 208.5 277.2 201.85 283.35 194.3 287.1 189.75 287.9 188.7 288.55 187.95 289.4 186.9 289.35 185.85 289.35 184.95 289.15 183.05 284.55 180.95 283.85 182.3 283.1 183.7 282.35 185.1 281.65 186.45 270.9 199.55 267.5 203.1 266.6 203.95 M262.4 208.4 Q261.85 210.75 260.55 210.3 L260.4 210.75 260.5 214.55 260.95 216.0 261.4 217.4 Q262.5 214.3 263.7 214.45 L262.55 212.1 262.4 208.4 Q263.85 208.9 264.3 206.4 265.85 206.4 265.75 204.9 M260.45 210.45 L260.4 210.75 M264.95 209.4 L264.3 206.4 M260.55 210.3 L260.45 210.45 258.6 212.25 257.8 213.15 256.25 214.75 255.45 215.55 253.2 217.95 252.25 218.95 250.25 221.05 Q250.1 223.55 250.85 224.85 L251.6 225.45 252.9 226.15 253.7 226.45 254.35 225.65 254.9 225.1 256.35 223.45 256.9 222.85 258.8 220.6 260.15 218.95 261.4 217.4 M263.7 214.45 L264.8 213.0 Q265.35 211.1 266.75 211.2 L264.95 209.4 M266.75 211.2 Q266.95 209.3 269.25 209.0" fill="none" stroke="#000000" stroke-linecap="round" stroke-linejoin="round" stroke-opacity="0.4" stroke-width="0.05"/>
    <path d="M268.3 207.9 L268.25 206.85 269.05 205.7 269.25 206.5 269.85 208.5 M267.5 203.1 L268.5 205.05 268.15 206.15 266.6 203.95 M259.4 213.3 L260.5 214.55 M258.6 212.25 L259.4 213.3 M258.9 214.8 L260.3 216.8 260.95 216.0 M257.8 213.15 L258.9 214.8 M258.35 216.8 L259.15 216.65 258.85 217.8 258.05 217.9 256.8 218.2 255.45 215.55 M256.6 221.75 L256.9 222.85 M258.8 220.6 L259.45 218.05 260.35 217.45 260.15 218.95 M258.35 216.8 L257.1 217.05 256.25 214.75 M252.25 218.95 L252.75 221.75 251.6 223.1 251.6 224.25 251.6 225.45 M253.75 222.6 L253.2 217.95 M256.35 220.55 L255.9 219.0 255.2 219.4 255.65 221.1 256.15 222.65 256.35 223.45 M256.6 221.75 L256.35 220.55 M252.9 226.15 L252.65 223.5 253.55 223.75 254.35 225.65 M254.9 225.1 L253.75 222.6 M283.85 182.3 L287.2 183.25 287.7 185.3 288.0 186.6 288.2 185.8 288.45 184.15 289.35 184.95 M286.9 186.35 L286.95 186.4 287.9 188.7 M288.55 187.95 L288.6 186.4 289.35 185.85 M283.1 183.7 L286.25 184.5 285.95 185.65 282.35 185.1 M286.15 187.55 L285.8 186.8 286.9 186.4 286.95 186.4 M286.15 187.55 L287.1 189.75" fill="none" stroke="#593d00" stroke-linecap="round" stroke-linejoin="round" stroke-opacity="0.2" stroke-width="0.05"/>
    <path d="M282.35 193.05 L283.4 194.2 277.25 201.7 271.35 207.0 270.1 206.45 268.35 202.1 270.95 199.4 279.1 189.5 281.75 192.45 281.8 193.85 281.45 194.4 282.35 193.05" fill="#000000" fill-opacity="0.32156864" fill-rule="evenodd" stroke="none"/>
    <path d="M286.85 186.4 L286.9 186.4 287.9 188.75 287.1 189.75 285.8 186.75 286.85 186.4 M288.5 188.05 L288.6 186.35 289.35 185.9 289.4 186.9 288.5 188.05 M289.3 184.9 L288.45 184.15 288.2 185.8 288.0 186.6 287.2 183.25 283.85 182.35 284.5 180.95 289.15 183.05 289.3 184.9 M282.4 185.05 L283.1 183.7 286.25 184.55 285.95 185.7 282.4 185.05 M266.6 204.0 L267.5 203.1 268.4 205.05 268.1 206.2 266.6 204.0 M269.85 208.5 L269.25 209.0 268.3 207.9 268.2 206.85 269.05 205.7 269.85 208.5 M252.25 218.95 L253.15 217.95 253.75 222.6 254.9 225.1 254.35 225.7 253.55 223.75 252.65 223.5 252.9 226.2 251.55 225.45 251.6 223.1 252.8 221.8 252.25 218.95 M257.75 213.2 L258.6 212.3 260.45 214.6 260.95 216.0 260.3 216.8 257.75 213.2 M255.9 219.0 L256.85 222.85 256.35 223.45 255.2 219.4 255.9 219.0 M256.25 214.75 L257.15 217.0 259.15 216.65 258.85 217.8 256.85 218.25 255.45 215.6 256.25 214.75 M258.8 220.65 L259.4 218.05 260.3 217.45 260.15 219.0 258.8 220.65" fill="#ffffff" fill-opacity="0.34901962" fill-rule="evenodd" stroke="none"/>
    <path d="M269.9 188.45 L273.7 190.7 271.0 196.5 268.45 195.5 269.9 188.45 M270.25 186.8 L270.9 183.7 275.6 186.55 274.35 189.25 270.25 186.8 M291.4 202.25 L278.1 206.4 285.7 197.3 291.4 202.25" fill="#768776" fill-rule="evenodd" stroke="none"/>
    <path d="M273.7 190.7 L274.35 190.05 270.85 187.95 270.25 186.8 274.35 189.25 275.6 186.55 290.75 181.1 288.8 190.45 285.7 197.3 278.1 206.4 277.25 203.55 273.55 201.0 279.05 195.85 282.5 194.95 283.35 190.9 279.05 190.9 271.65 196.75 271.0 196.5 273.7 190.7 M299.7 186.1 L298.15 187.95 288.8 190.45 299.7 186.1 M277.25 203.55 L282.5 194.95 277.25 203.55" fill="#546554" fill-rule="evenodd" stroke="none"/>
    <path d="M269.9 188.45 L270.85 187.95 274.35 190.05 273.7 190.7 269.9 188.45 M291.1 174.45 L297.25 177.5 290.75 181.1 284.55 179.0 291.1 174.45 M298.15 187.95 L298.15 189.1 288.8 190.45 298.15 187.95 M282.5 194.95 L279.05 195.85 279.05 190.9 283.35 190.9 282.5 194.95" fill="#a8b9a8" fill-rule="evenodd" stroke="none"/>
    <path d="M270.9 183.7 L285.5 175.85 291.1 174.45 284.55 179.0 270.9 183.7" fill="#bac7ba" fill-rule="evenodd" stroke="none"/>
    <path d="M297.25 177.5 L299.7 186.1 288.8 190.45 298.15 189.1 291.4 202.25 285.7 197.3 288.8 190.45 290.75 181.1 275.6 186.55 270.9 183.7 284.55 179.0 290.75 181.1 297.25 177.5 M273.55 201.0 L271.65 196.75 279.05 190.9 279.05 195.85 273.55 201.0" fill="#7e8f7e" fill-rule="evenodd" stroke="none"/>
    <path d="M270.85 187.95 L269.9 188.45 268.45 195.5 271.0 196.5 271.65 196.75 279.05 190.9 283.35 190.9 282.5 194.95 277.25 203.55 273.55 201.0 271.65 196.75 M270.85 187.95 L270.25 186.8 270.9 183.7 285.5 175.85 291.1 174.45 297.25 177.5 299.7 186.1 298.15 187.95 298.15 189.1 291.4 202.25 278.1 206.4 277.25 203.55" fill="none" stroke="#000000" stroke-linecap="round" stroke-linejoin="round" stroke-opacity="0.4" stroke-width="0.05"/>
  </g>
</svg>
