<?xml version="1.0" encoding="UTF-8" standalone="no"?>
<svg xmlns:xlink="http://www.w3.org/1999/xlink" height="82.0px" width="82.65px" xmlns="http://www.w3.org/2000/svg">
  <g transform="matrix(1.0, 0.0, 0.0, 1.0, -234.95, -250.55)">
    <path d="M250.8 252.55 L248.85 253.2 247.4 251.35 250.4 251.15 250.8 252.55 M290.35 298.1 L291.65 297.9 291.55 300.7 290.35 299.1 289.9 298.55 290.35 298.1 M312.0 307.05 Q313.25 307.7 314.35 307.8 L314.3 309.65 Q313.75 309.2 313.0 309.25 L312.0 307.05 M298.1 331.35 L294.35 332.0 294.45 328.9 Q294.85 329.8 296.3 330.15 L298.4 329.25 298.1 331.35 M292.65 328.3 Q292.15 326.4 290.4 324.45 L289.4 323.45 288.65 322.8 289.35 320.8 290.1 321.75 290.95 322.7 Q292.35 324.0 293.3 324.55 L292.65 328.3 M289.85 309.0 L292.25 310.1 292.8 319.05 294.4 310.85 296.45 311.4 296.8 311.75 297.6 312.55 294.1 322.95 290.1 318.95 289.85 309.0 M294.8 323.65 L300.05 315.0 300.95 315.9 296.45 326.3 Q295.35 326.2 294.85 326.6 L294.7 325.05 Q295.25 325.0 295.5 324.35 L294.8 323.65 M298.7 327.55 L297.7 326.55 300.15 322.0 298.7 327.55" fill="#cc0000" fill-rule="evenodd" stroke="none"/>
    <path d="M248.85 253.2 L247.0 253.85 Q246.9 253.65 246.6 253.55 L245.55 253.5 243.9 255.15 242.4 251.65 247.4 251.35 248.85 253.2 M293.5 297.65 L297.0 297.05 294.0 304.75 292.95 302.9 292.55 302.3 293.5 297.65 M300.9 296.45 L303.7 296.05 303.05 298.4 302.35 298.0 300.6 298.95 300.9 296.45 M315.9 316.45 L315.65 318.5 307.9 322.85 306.7 321.65 311.4 311.65 311.6 312.65 312.55 313.6 310.0 319.95 315.9 316.45 M312.95 329.1 L311.9 329.25 310.75 328.8 310.35 325.3 311.25 326.2 312.15 327.1 312.95 329.1 M305.3 329.65 L305.1 330.25 300.2 331.05 301.85 316.8 302.7 317.65 303.55 318.5 305.3 329.65 M294.35 332.0 L291.1 332.45 292.45 331.9 Q293.2 330.15 292.65 328.3 L293.3 324.55 Q294.15 325.1 294.7 325.05 L294.85 326.6 294.35 327.5 Q294.2 328.25 294.45 328.9 L294.35 332.0 M236.45 256.1 L236.6 254.95 240.45 258.6 239.3 259.75 236.45 256.1 M300.95 301.7 L302.5 302.15 302.4 305.65 304.6 305.55 306.4 307.45 296.1 309.65 295.55 308.1 300.95 301.7 M308.0 309.05 L308.95 310.0 301.4 316.35 300.95 315.9 300.05 315.0 294.8 323.65 294.1 322.95 297.6 312.55 298.5 313.45 297.6 312.55 296.8 311.75 308.0 309.05 M298.5 313.45 L299.55 314.5 304.55 311.3 298.5 313.45 M299.55 314.5 L300.05 315.0 299.55 314.5" fill="#ba0000" fill-rule="evenodd" stroke="none"/>
    <path d="M304.7 295.85 L307.05 295.5 305.9 296.15 Q304.8 298.95 306.55 301.8 306.4 303.25 306.4 304.65 305.15 303.7 304.4 303.45 L304.7 295.85 M310.15 305.8 Q311.05 306.6 312.0 307.05 L313.0 309.25 312.55 309.3 Q311.05 309.7 311.4 311.65 L306.7 321.65 305.0 319.95 304.25 319.2 305.0 319.95 309.4 328.35 308.1 328.15 305.8 323.95 306.4 328.45 Q305.65 328.8 305.3 329.65 L303.55 318.5 304.25 319.2 308.9 312.15 302.7 317.65 301.85 316.8 300.2 331.05 298.1 331.35 298.4 329.25 299.75 328.6 298.7 327.55 300.15 322.0 297.7 326.55 296.45 326.3 300.95 315.9 301.4 316.35 308.95 310.0 309.4 310.45 Q310.85 309.9 309.4 307.85 L310.15 305.8 M314.35 307.8 Q315.7 307.95 316.95 307.4 L317.5 306.05 317.1 308.75 315.0 310.55 314.3 309.65 314.35 307.8 M314.05 326.3 L314.3 326.85 313.95 328.9 312.15 327.1 311.25 326.2 314.05 326.3 M239.9 251.85 L242.4 251.65 243.9 255.15 241.95 257.1 240.4 255.55 239.9 251.85 M250.4 251.15 L256.6 250.65 250.8 252.55 250.4 251.15 M301.85 316.8 L301.4 316.35 301.85 316.8" fill="#a80000" fill-rule="evenodd" stroke="none"/>
    <path d="M247.0 253.85 Q247.15 254.2 246.9 254.85 L245.8 255.95 244.9 256.85 244.05 257.7 243.0 258.75 242.0 259.75 240.4 261.35 239.7 262.05 238.85 261.9 238.55 261.6 246.6 253.55 Q246.9 253.65 247.0 253.85 M290.25 297.2 Q290.5 297.45 290.35 298.1 L289.9 298.55 283.6 304.85 283.15 305.3 282.35 305.2 290.25 297.2 M290.35 299.1 L291.55 300.7 292.55 302.3 292.95 302.9 294.0 304.75 294.65 306.0 295.25 307.4 295.55 308.1 296.1 309.65 296.3 310.55 Q291.25 306.4 287.6 301.95 L290.35 299.1" fill="#666666" fill-rule="evenodd" stroke="none"/>
    <path d="M245.8 255.95 Q266.35 277.8 288.2 298.35 L286.5 300.05 244.9 256.85 245.8 255.95 M243.0 258.75 L244.05 257.7 Q265.35 278.8 269.9 284.95 260.0 276.65 243.0 258.75" fill="#594f3e" fill-rule="evenodd" stroke="none"/>
    <path d="M288.2 298.35 L289.4 297.15 290.25 297.2 282.35 305.2 Q282.1 304.95 282.2 304.35 L283.3 303.25 284.9 301.65 286.5 300.05 288.2 298.35 M243.9 255.15 L245.55 253.5 246.6 253.55 238.55 261.6 Q238.3 261.35 238.35 260.7 L239.3 259.75 240.45 258.6 241.95 257.1 243.9 255.15 M285.6 306.35 L284.25 305.3 285.75 303.8 Q291.15 308.4 296.35 310.9 L296.45 311.4 294.4 310.85 292.45 310.2 292.25 310.1 289.85 309.0 288.05 307.9 288.0 307.85 285.6 306.35" fill="#8a8a8a" fill-rule="evenodd" stroke="none"/>
    <path d="M291.65 297.9 L293.5 297.65 292.55 302.3 291.55 300.7 291.65 297.9 M298.75 296.8 L300.9 296.45 300.6 298.95 298.85 299.8 300.55 301.5 300.95 301.7 295.55 308.1 295.25 307.4 294.65 306.0 298.75 296.8 M303.7 296.05 L304.7 295.85 304.4 303.45 Q303.45 303.2 303.1 304.05 L304.6 305.55 302.4 305.65 302.5 302.15 Q303.6 302.05 304.0 300.85 304.25 299.3 303.05 298.4 L303.7 296.05 M306.55 301.8 Q307.3 303.05 308.55 304.3 L308.95 304.7 308.55 306.8 307.75 305.9 306.4 304.65 Q306.4 303.25 306.55 301.8 M288.65 322.8 Q287.4 321.65 286.1 321.05 L285.45 319.0 285.95 318.9 Q288.05 318.2 286.6 315.45 L286.1 314.95 288.05 307.9 289.85 309.0 290.1 318.95 289.15 318.0 Q287.7 318.55 289.35 320.8 L288.65 322.8 M283.25 320.4 L281.25 320.8 280.6 321.95 282.2 311.65 283.25 320.4 M282.7 308.45 L283.15 305.3 283.6 304.85 284.25 305.3 285.6 306.35 284.9 313.75 284.45 314.6 282.7 308.45 M238.85 261.9 L237.8 264.55 236.15 260.1 236.1 260.05 236.45 256.1 239.3 259.75 238.35 260.7 Q238.3 261.35 238.55 261.6 L238.85 261.9 M236.45 268.1 L235.05 271.5 235.7 264.95 236.45 268.1 M306.4 307.45 L308.0 309.05 296.8 311.75 296.45 311.4 296.35 310.9 296.3 310.55 296.1 309.65 306.4 307.45 M292.25 310.1 L292.45 310.2 294.4 310.85 292.8 319.05 292.25 310.1 M299.55 314.5 L298.5 313.45 304.55 311.3 299.55 314.5" fill="#de1212" fill-rule="evenodd" stroke="none"/>
    <path d="M289.9 298.55 L290.35 299.1 287.6 301.95 Q291.25 306.4 296.3 310.55 L296.35 310.9 Q291.15 308.4 285.75 303.8 L284.25 305.3 283.6 304.85 289.9 298.55" fill="#303030" fill-rule="evenodd" stroke="none"/>
    <path d="M297.0 297.05 L298.75 296.8 294.65 306.0 294.0 304.75 297.0 297.05 M286.1 321.05 Q284.65 320.4 283.25 320.4 L282.2 311.65 282.7 308.45 284.45 314.6 283.05 317.3 Q283.85 319.0 285.45 319.0 L286.1 321.05 M285.6 306.35 L288.0 307.85 288.05 307.9 286.1 314.95 284.9 313.75 285.6 306.35" fill="#ff3636" fill-rule="evenodd" stroke="none"/>
    <path d="M316.6 312.35 L315.9 316.45 310.0 319.95 312.55 313.6 313.65 314.7 314.45 312.9 316.6 312.35 M315.65 318.5 L315.45 319.7 Q312.6 320.65 313.4 324.35 L309.45 324.4 310.35 325.3 310.75 328.8 309.4 328.35 305.0 319.95 306.7 321.65 307.9 322.85 315.65 318.5 M236.6 254.95 L236.8 252.05 240.4 255.55 241.95 257.1 240.45 258.6 236.6 254.95 M303.55 318.5 L302.7 317.65 308.9 312.15 304.25 319.2 303.55 318.5 M309.45 324.4 L307.9 322.85 309.45 324.4" fill="#960000" fill-rule="evenodd" stroke="none"/>
    <path d="M308.95 304.7 L310.15 305.8 309.4 307.85 308.55 306.8 308.95 304.7 M317.1 308.75 L316.6 312.35 314.45 312.9 315.25 311.2 315.0 310.55 317.1 308.75 M313.4 324.35 L314.05 326.3 311.25 326.2 310.35 325.3 309.45 324.4 313.4 324.35 M313.95 328.9 L312.95 329.1 312.15 327.1 313.95 328.9 M308.1 328.15 L306.4 328.45 305.8 323.95 308.1 328.15" fill="#720000" fill-rule="evenodd" stroke="none"/>
    <path d="M283.3 303.25 Q262.8 281.35 240.4 261.35 L242.0 259.75 284.9 301.65 283.3 303.25" fill="#7d7362" fill-rule="evenodd" stroke="none"/>
    <path d="M242.0 259.75 L243.0 258.75 Q260.0 276.65 269.9 284.95 265.35 278.8 244.05 257.7 L244.9 256.85 286.5 300.05 284.9 301.65 242.0 259.75" fill="#6b6150" fill-rule="evenodd" stroke="none"/>
    <path d="M237.8 264.55 L236.45 268.1 235.7 264.95 Q235.85 262.5 236.15 260.1 L237.8 264.55 M236.8 252.05 L239.9 251.85 240.4 255.55 236.8 252.05" fill="#f02424" fill-rule="evenodd" stroke="none"/>
    <path d="M250.8 252.55 L248.85 253.2 247.0 253.85 M245.8 255.95 Q266.35 277.8 288.2 298.35 M313.95 328.9 L312.95 329.1 311.9 329.25 310.75 328.8 309.4 328.35 308.1 328.15 306.4 328.45 Q305.65 328.8 305.3 329.65 L305.1 330.25 300.2 331.05 298.1 331.35 294.35 332.0 291.1 332.45 292.45 331.9 Q293.2 330.15 292.65 328.3 292.15 326.4 290.4 324.45 L289.4 323.45 288.65 322.8 Q287.4 321.65 286.1 321.05 284.65 320.4 283.25 320.4 L281.25 320.8 280.6 321.95 282.2 311.65 282.7 308.45 283.15 305.3 M283.3 303.25 Q262.8 281.35 240.4 261.35 M238.85 261.9 L237.8 264.55 236.45 268.1 235.05 271.5 235.7 264.95 Q235.85 262.5 236.15 260.1 M236.1 260.05 L236.45 256.1 236.6 254.95 236.8 252.05 239.9 251.85 242.4 251.65 247.4 251.35 250.4 251.15 256.6 250.65 250.8 252.55 M244.9 256.85 L286.5 300.05 M240.4 255.55 L241.95 257.1 M236.8 252.05 L240.4 255.55 M244.05 257.7 Q265.35 278.8 269.9 284.95 260.0 276.65 243.0 258.75 M284.25 305.3 L285.6 306.35 288.0 307.85 288.05 307.9 289.85 309.0 292.25 310.1 292.45 310.2 294.4 310.85 296.45 311.4 296.8 311.75 297.6 312.55 298.5 313.45 299.55 314.5 300.05 315.0 300.95 315.9 301.4 316.35 301.85 316.8 302.7 317.65 303.55 318.5 304.25 319.2 305.0 319.95 306.7 321.65 307.9 322.85 309.45 324.4 310.35 325.3 311.25 326.2 312.15 327.1 313.95 328.9 M284.25 305.3 L283.6 304.85 M284.9 301.65 L242.0 259.75 M286.1 314.95 L286.6 315.45 Q288.05 318.2 285.95 318.9 L285.45 319.0 Q283.85 319.0 283.05 317.3 L284.45 314.6 284.9 313.75 286.1 314.95 M289.35 320.8 Q287.7 318.55 289.15 318.0 L290.1 318.95 294.1 322.95 294.8 323.65 295.5 324.35 Q295.25 325.0 294.7 325.05 294.15 325.1 293.3 324.55 292.35 324.0 290.95 322.7 L290.1 321.75 289.35 320.8 M294.85 326.6 Q295.35 326.2 296.45 326.3 L297.7 326.55 298.7 327.55 299.75 328.6 298.4 329.25 296.3 330.15 Q294.85 329.8 294.45 328.9 294.2 328.25 294.35 327.5 L294.85 326.6" fill="none" stroke="#000000" stroke-linecap="round" stroke-linejoin="round" stroke-opacity="0.4" stroke-width="0.2"/>
    <path d="M247.0 253.85 Q247.15 254.2 246.9 254.85 L245.8 255.95 244.9 256.85 244.05 257.7 243.0 258.75 242.0 259.75 240.4 261.35 239.7 262.05 238.85 261.9 238.55 261.6 Q238.3 261.35 238.35 260.7 L239.3 259.75 240.45 258.6 241.95 257.1 243.9 255.15 245.55 253.5 246.6 253.55 Q246.9 253.65 247.0 253.85 M288.2 298.35 L289.4 297.15 290.25 297.2 Q290.5 297.45 290.35 298.1 L291.65 297.9 293.5 297.65 297.0 297.05 298.75 296.8 300.9 296.45 303.7 296.05 304.7 295.85 307.05 295.5 305.9 296.15 Q304.8 298.95 306.55 301.8 307.3 303.05 308.55 304.3 L308.95 304.7 310.15 305.8 Q311.05 306.6 312.0 307.05 313.25 307.7 314.35 307.8 315.7 307.95 316.95 307.4 L317.5 306.05 317.1 308.75 316.6 312.35 315.9 316.45 315.65 318.5 315.45 319.7 Q312.6 320.65 313.4 324.35 L314.05 326.3 314.3 326.85 313.95 328.9 M283.15 305.3 L282.35 305.2 Q282.1 304.95 282.2 304.35 L283.3 303.25 284.9 301.65 286.5 300.05 288.2 298.35 M290.35 298.1 L289.9 298.55 290.35 299.1 291.55 300.7 292.55 302.3 292.95 302.9 294.0 304.75 294.65 306.0 295.25 307.4 295.55 308.1 296.1 309.65 296.3 310.55 296.35 310.9 296.45 311.4 M303.05 298.4 L302.35 298.0 300.6 298.95 298.85 299.8 300.55 301.5 300.95 301.7 302.5 302.15 Q303.6 302.05 304.0 300.85 304.25 299.3 303.05 298.4 M304.6 305.55 L303.1 304.05 Q303.45 303.2 304.4 303.45 305.15 303.7 306.4 304.65 L307.75 305.9 308.55 306.8 309.4 307.85 Q310.85 309.9 309.4 310.45 L308.95 310.0 308.0 309.05 306.4 307.45 304.6 305.55 M313.0 309.25 L312.55 309.3 Q311.05 309.7 311.4 311.65 L311.6 312.65 312.55 313.6 313.65 314.7 314.45 312.9 315.25 311.2 315.0 310.55 314.3 309.65 Q313.75 309.2 313.0 309.25 M283.15 305.3 L283.6 304.85 289.9 298.55" fill="none" stroke="#000000" stroke-linecap="round" stroke-linejoin="round" stroke-opacity="0.4" stroke-width="0.2"/>
    <path d="M236.15 260.1 L236.1 260.05" fill="none" stroke="#00ff00" stroke-linecap="round" stroke-linejoin="round" stroke-width="0.2"/>
    <path d="M236.8 252.05 L238.4 251.95 240.45 254.0 253.55 250.9 256.6 250.65 247.0 253.85 Q247.15 254.2 246.9 254.85 L245.8 255.95 247.8 258.15 242.6 263.35 240.4 261.35 239.7 262.05 238.85 261.9 238.55 261.6 Q238.3 261.35 238.35 260.7 L241.95 257.1 236.8 252.05 M314.1 326.45 L314.3 326.85 313.95 328.9 296.45 311.4 296.35 310.9 296.3 310.55 296.1 309.65 295.55 308.1 295.25 307.4 294.65 306.0 294.0 304.75 292.95 302.9 292.55 302.3 291.55 300.7 290.35 299.1 289.9 298.55 290.35 298.1 291.8 297.85 294.8 301.85 Q297.55 306.7 298.0 310.35 L314.1 326.45" fill="#000000" fill-opacity="0.4" fill-rule="evenodd" stroke="none"/>
    <path d="M238.85 261.9 L235.05 271.5 239.2 255.45 236.85 252.3 236.8 252.05 241.95 257.1 238.35 260.7 Q238.3 261.35 238.55 261.6 L238.85 261.9 M291.8 297.85 L295.45 297.3 315.7 317.75 315.45 319.7 Q312.6 320.65 313.4 324.35 L314.05 326.3 314.1 326.45 298.0 310.35 Q297.55 306.7 294.8 301.85 L291.8 297.85 M313.95 328.9 L312.75 329.1 296.0 312.35 Q290.9 311.45 285.25 307.5 L284.4 307.65 283.0 306.25 283.15 305.3 283.6 304.85 284.25 305.3 285.6 306.35 288.0 307.85 288.05 307.9 289.85 309.0 292.25 310.1 292.45 310.2 294.4 310.85 296.45 311.4 313.95 328.9 M304.3 298.65 L304.6 301.05 303.35 302.8 301.35 302.5 300.8 301.65 300.95 301.7 302.5 302.15 Q303.6 302.05 304.0 300.85 304.25 299.3 303.05 298.4 L302.35 298.0 303.2 297.55 304.3 298.65 M305.3 303.15 L308.65 305.9 312.05 307.1 314.35 307.8 315.7 307.75 312.55 309.3 Q311.2 309.65 311.3 311.35 L309.4 310.45 Q310.85 309.9 309.4 307.85 L308.55 306.8 307.75 305.9 306.4 304.65 Q305.15 303.7 304.4 303.45 L304.1 303.45 305.3 303.15 M284.75 318.9 L285.45 319.0 285.95 318.9 Q288.05 318.2 286.6 315.45 L284.9 313.75 285.8 313.95 287.65 315.8 Q288.5 317.85 287.15 318.9 L285.15 319.2 284.75 318.9 M316.0 316.05 L313.65 314.7 315.25 311.2 315.0 310.55 314.3 309.65 314.2 309.55 317.05 309.1 316.0 316.05 M293.55 324.7 L294.7 325.05 Q295.25 325.0 295.5 324.35 L294.8 323.65 294.1 322.95 290.1 318.95 289.15 318.0 289.75 318.1 296.2 324.55 Q296.05 325.8 294.6 325.45 L293.55 324.7 M297.7 326.55 L298.5 326.75 300.9 329.15 297.1 330.45 296.3 330.15 299.75 328.6 297.7 326.55" fill="#000000" fill-opacity="0.2" fill-rule="evenodd" stroke="none"/>
    <path d="M284.75 318.9 L285.15 319.2 287.15 318.9 Q288.5 317.85 287.65 315.8 L285.8 313.95 284.9 313.75 283.05 317.3 Q283.65 318.6 284.75 318.9 M293.55 324.7 L294.6 325.45 Q296.05 325.8 296.2 324.55 L289.75 318.1 289.15 318.0 Q287.7 318.55 289.35 320.8 L290.1 321.75 290.95 322.7 Q292.35 324.0 293.3 324.55 L293.55 324.7 M280.6 321.95 L282.5 309.75 303.3 330.55 291.1 332.45 292.45 331.9 Q293.2 330.15 292.65 328.3 292.15 326.4 290.4 324.45 L289.4 323.45 288.65 322.8 Q287.4 321.65 286.1 321.05 284.65 320.4 283.25 320.4 L281.25 320.8 280.6 321.95 M297.7 326.55 L296.45 326.3 Q295.35 326.2 294.85 326.6 L294.35 327.5 Q294.2 328.25 294.45 328.9 294.85 329.8 296.3 330.15 L297.1 330.45 300.9 329.15 298.5 326.75 297.7 326.55" fill="#ffffff" fill-opacity="0.21960784" fill-rule="evenodd" stroke="none"/>
  </g>
</svg>
