<?xml version="1.0" encoding="UTF-8" standalone="no"?>
<svg xmlns:xlink="http://www.w3.org/1999/xlink" height="75.55px" width="88.9px" xmlns="http://www.w3.org/2000/svg">
  <g transform="matrix(1.0, 0.0, 0.0, 1.0, -214.25, -295.2)">
    <path d="M216.3 358.65 Q217.75 353.95 219.85 349.0 L222.45 348.8 Q221.55 350.55 219.9 358.1 L216.3 358.65" fill="#d3bd98" fill-rule="evenodd" stroke="none"/>
    <path d="M222.45 348.8 L233.4 341.35 226.4 354.8 219.9 358.1 Q221.55 350.55 222.45 348.8" fill="#ede3d3" fill-rule="evenodd" stroke="none"/>
    <path d="M219.8 370.25 L214.75 365.05 Q215.35 361.85 216.3 358.65 L219.9 358.1 Q218.95 362.85 219.8 370.25 M248.65 307.9 L248.7 307.85 249.8 306.8 248.65 307.9" fill="#f8ebcf" fill-rule="evenodd" stroke="none"/>
    <path d="M222.45 348.8 Q226.05 338.75 231.3 330.45 236.6 322.1 243.5 315.4 245.55 316.45 243.0 321.9 L233.4 341.35 222.45 348.8 M226.4 354.8 Q220.55 367.35 219.8 370.25 218.95 362.85 219.9 358.1 L226.4 354.8" fill="#ffffff" fill-rule="evenodd" stroke="none"/>
    <path d="M219.85 349.0 L222.4 343.75 Q226.35 336.25 230.5 329.75 L231.3 330.45 Q226.05 338.75 222.45 348.8 L219.85 349.0" fill="url(#gradient0)" fill-rule="evenodd" stroke="none"/>
    <path d="M249.8 306.8 L250.0 307.1 248.65 307.9 249.8 306.8" fill="url(#gradient1)" fill-rule="evenodd" stroke="none"/>
    <path d="M249.8 306.8 Q257.05 300.8 267.25 298.1 272.25 296.7 278.0 296.1 L280.8 295.9 284.4 295.7 Q289.2 295.75 293.1 296.7 298.9 298.1 302.65 301.45 L290.05 309.05 284.85 318.95 279.75 313.15 Q273.15 307.55 269.05 305.3 266.35 304.15 264.75 303.9 257.1 303.1 250.0 307.1 L249.8 306.8" fill="url(#gradient2)" fill-rule="evenodd" stroke="none"/>
    <path d="M250.0 307.1 Q257.1 303.1 264.75 303.9 266.35 304.15 269.05 305.3 273.15 307.55 279.75 313.15 L284.85 318.95 274.65 334.55 248.8 347.65 239.55 360.4 219.8 370.25 Q220.55 367.35 226.4 354.8 L233.4 341.35 243.0 321.9 Q245.55 316.45 243.5 315.4 236.6 322.1 231.3 330.45 L230.5 329.75 Q239.05 316.4 248.65 307.9 L250.0 307.1" fill="url(#gradient3)" fill-rule="evenodd" stroke="none"/>
    <path d="M284.85 318.95 L290.05 309.05 302.65 301.45 Q298.9 298.1 293.1 296.7 289.2 295.75 284.4 295.7 L280.8 295.9 278.0 296.1 Q272.25 296.7 267.25 298.1 257.05 300.8 249.8 306.8 L248.65 307.9 248.7 307.85 249.8 306.8 M284.85 318.95 L274.65 334.55 248.8 347.65 239.55 360.4 219.8 370.25 214.75 365.05 Q215.35 361.85 216.3 358.65 217.75 353.95 219.85 349.0 L222.4 343.75 Q226.35 336.25 230.5 329.75 239.05 316.4 248.65 307.9" fill="none" stroke="#54472d" stroke-linecap="round" stroke-linejoin="round" stroke-opacity="0.5019608" stroke-width="1.0"/>
  </g>
  <defs>
    <linearGradient gradientTransform="matrix(0.0214, -0.0428, 0.0244, 0.0122, 264.95, 308.6)" gradientUnits="userSpaceOnUse" id="gradient0" spreadMethod="pad" x1="-819.2" x2="819.2">
      <stop offset="0.0" stop-color="#f8ebcf"/>
      <stop offset="0.1803921568627451" stop-color="#d3f1f8"/>
      <stop offset="0.3607843137254902" stop-color="#74a596"/>
      <stop offset="0.4588235294117647" stop-color="#edb534"/>
      <stop offset="0.5803921568627451" stop-color="#2dbffd"/>
      <stop offset="0.6470588235294118" stop-color="#bbebf7"/>
      <stop offset="0.9882352941176471" stop-color="#c8ac80"/>
    </linearGradient>
    <linearGradient gradientTransform="matrix(-0.0491, 0.0161, -0.0048, -0.0147, 251.9, 316.4)" gradientUnits="userSpaceOnUse" id="gradient1" spreadMethod="pad" x1="-819.2" x2="819.2">
      <stop offset="0.0" stop-color="#f8ebcf"/>
      <stop offset="0.1803921568627451" stop-color="#d3f1f8"/>
      <stop offset="0.3607843137254902" stop-color="#74a596"/>
      <stop offset="0.4588235294117647" stop-color="#edb534"/>
      <stop offset="0.5803921568627451" stop-color="#2dbffd"/>
      <stop offset="0.6470588235294118" stop-color="#bbebf7"/>
      <stop offset="0.9882352941176471" stop-color="#c8ac80"/>
    </linearGradient>
    <linearGradient gradientTransform="matrix(-0.0133, 0.0155, -0.017, -0.0146, 271.75, 309.3)" gradientUnits="userSpaceOnUse" id="gradient2" spreadMethod="pad" x1="-819.2" x2="819.2">
      <stop offset="0.0" stop-color="#f8ebcf"/>
      <stop offset="0.1803921568627451" stop-color="#d3f1f8"/>
      <stop offset="0.3607843137254902" stop-color="#74a596"/>
      <stop offset="0.5803921568627451" stop-color="#2dbffd"/>
      <stop offset="0.6470588235294118" stop-color="#bbebf7"/>
      <stop offset="0.9882352941176471" stop-color="#c8ac80"/>
    </linearGradient>
    <linearGradient gradientTransform="matrix(0.0424, -0.039, 0.0154, 0.0167, 276.05, 307.85)" gradientUnits="userSpaceOnUse" id="gradient3" spreadMethod="pad" x1="-819.2" x2="819.2">
      <stop offset="0.0" stop-color="#f8ebcf"/>
      <stop offset="0.1803921568627451" stop-color="#d3f1f8"/>
      <stop offset="0.3607843137254902" stop-color="#74a596"/>
      <stop offset="0.5803921568627451" stop-color="#2dbffd"/>
      <stop offset="0.6470588235294118" stop-color="#bbebf7"/>
      <stop offset="0.9882352941176471" stop-color="#c8ac80"/>
    </linearGradient>
  </defs>
</svg>
