<?xml version="1.0" encoding="UTF-8" standalone="no"?>
<svg xmlns:xlink="http://www.w3.org/1999/xlink" height="145.8px" width="148.25px" xmlns="http://www.w3.org/2000/svg">
  <g transform="matrix(1.0, 0.0, 0.0, 1.0, -212.25, -128.95)">
    <path d="M212.35 260.55 L212.45 260.25 215.05 260.15 216.2 260.9 218.5 262.5 220.8 264.1 225.95 267.75 227.25 268.65 Q228.55 270.85 226.05 269.85 L212.35 260.55 M219.55 272.55 Q215.55 269.55 214.85 265.25 L222.8 271.1 Q223.45 273.55 219.7 272.6 L219.55 272.55" fill="#007979" fill-rule="evenodd" stroke="none"/>
    <path d="M231.15 271.35 Q232.75 272.85 232.3 274.1 L229.35 274.05 228.95 273.75 214.75 263.65 213.5 262.8 Q212.25 261.45 212.35 260.55 L226.05 269.85 Q228.55 270.85 227.25 268.65 L228.55 269.55 231.15 271.35 M227.05 274.15 Q222.65 274.85 219.65 272.65 L219.7 272.6 Q223.45 273.55 222.8 271.1 L227.05 274.15" fill="#005353" fill-rule="evenodd" stroke="none"/>
    <path d="M227.5 250.6 Q232.2 245.4 237.75 238.05 L238.75 240.15 241.75 237.15 251.15 223.85 249.2 221.9 Q258.6 208.1 269.9 189.6 L274.25 193.95 259.75 216.95 232.15 256.75 230.85 255.45 236.95 245.85 235.9 244.8 224.3 261.3 220.8 264.1 218.5 262.5 Q224.5 258.7 228.8 251.9 L227.5 250.6 M300.15 137.55 L304.85 129.05 308.5 131.4 305.9 136.6 307.55 138.25 310.5 132.7 312.4 134.0 307.5 141.7 Q306.7 141.2 305.9 140.8 L300.15 137.55 M268.5 199.0 L266.7 197.2 253.55 219.65 254.4 220.9 268.5 199.0" fill="#9c854e" fill-rule="evenodd" stroke="none"/>
    <path d="M216.2 260.9 Q221.05 257.85 227.5 250.6 L228.8 251.9 Q224.5 258.7 218.5 262.5 L216.2 260.9 M237.75 238.05 L249.2 221.9 251.15 223.85 241.75 237.15 238.75 240.15 237.75 238.05 M308.5 131.4 L310.5 132.7 307.55 138.25 305.9 136.6 308.5 131.4 M268.5 199.0 L254.4 220.9 253.55 219.65 266.7 197.2 268.5 199.0" fill="#8f7a47" fill-rule="evenodd" stroke="none"/>
    <path d="M228.95 273.75 L227.05 274.15 222.8 271.1 214.85 265.25 214.75 263.65 228.95 273.75 M219.65 272.65 L219.55 272.55 219.7 272.6 219.65 272.65" fill="#003333" fill-rule="evenodd" stroke="none"/>
    <path d="M312.4 134.0 L316.1 136.4 313.75 140.15 312.35 138.35 309.45 142.75 308.45 142.15 307.5 141.7 312.4 134.0 M277.75 197.35 L256.45 231.15 255.65 229.95 263.85 217.15 262.8 216.1 247.7 239.1 249.3 242.6 231.15 271.35 228.55 269.55 Q235.9 260.5 240.35 251.75 L239.3 250.7 232.45 261.25 Q229.25 266.45 225.95 267.75 L220.8 264.1 224.3 261.3 235.9 244.8 236.95 245.85 230.85 255.45 232.15 256.75 259.75 216.95 274.25 193.95 275.35 195.05 268.15 206.85 269.35 207.75 276.6 196.0 277.75 197.35" fill="#7a683d" fill-rule="evenodd" stroke="none"/>
    <path d="M269.9 189.6 L271.2 187.4 280.25 193.35 277.75 197.35 276.6 196.0 269.35 207.75 268.15 206.85 275.35 195.05 274.25 193.95 269.9 189.6 M313.75 140.15 L311.35 143.85 309.45 142.75 312.35 138.35 313.75 140.15 M256.45 231.15 L249.3 242.6 247.7 239.1 262.8 216.1 263.85 217.15 255.65 229.95 256.45 231.15 M227.25 268.65 L225.95 267.75 Q229.25 266.45 232.45 261.25 L239.3 250.7 240.35 251.75 Q235.9 260.5 228.55 269.55 L227.25 268.65" fill="#6d5c36" fill-rule="evenodd" stroke="none"/>
    <path d="M261.1 160.0 Q259.7 155.9 259.45 152.25 259.0 146.0 261.5 141.0 262.6 138.8 264.2 136.9 267.15 133.45 271.9 130.7 L275.95 130.25 Q282.3 130.1 284.7 134.6 L285.2 135.5 281.9 147.0 Q280.75 146.85 280.45 145.55 279.75 141.15 276.95 139.35 L275.95 130.25 275.95 138.85 Q274.65 138.25 273.1 138.2 269.5 138.9 266.45 141.25 L264.2 136.9 265.55 141.95 264.65 142.75 261.5 141.0 263.95 143.45 262.5 145.1 Q260.7 148.1 260.35 151.95 L259.45 152.25 260.35 151.95 Q260.05 155.55 261.1 160.0 M286.1 136.5 Q288.75 139.15 292.4 134.4 L291.5 141.4 284.75 147.65 284.8 146.2 283.0 146.9 286.1 136.5 M291.35 142.45 L290.85 146.45 284.1 158.2 284.7 149.1 291.35 142.45 M310.85 157.65 Q311.7 166.4 315.75 169.55 L334.65 190.25 Q329.05 195.05 321.7 194.6 L313.95 176.15 310.65 163.25 309.7 159.6 310.65 163.25 313.95 176.15 318.5 194.2 Q313.4 193.2 307.35 189.95 L309.2 169.7 307.75 176.05 304.95 188.55 301.35 186.25 300.75 182.25 299.75 176.45 309.7 159.6 310.85 157.65 M316.65 170.15 Q319.4 171.8 323.4 171.1 L325.3 170.3 325.35 170.35 Q330.15 167.95 332.0 163.7 L332.5 162.8 332.65 162.45 Q338.7 148.2 324.15 138.75 333.05 140.95 339.65 147.45 L341.55 149.45 Q344.15 154.45 344.95 160.05 L338.5 167.6 325.45 170.25 344.9 168.2 Q344.25 173.95 341.8 180.3 L340.3 183.2 327.6 181.2 316.65 170.15 M309.2 169.7 L310.65 163.25 309.2 169.7 M328.75 182.35 L339.1 185.1 335.65 189.35 328.75 182.35 M325.45 170.25 L325.3 170.3 325.45 170.25 M332.65 162.45 L339.65 147.45 332.65 162.45 M340.15 167.35 L345.1 162.6 345.05 166.35 340.15 167.35 M307.75 176.05 L300.75 182.25 307.75 176.05" fill="#e0c896" fill-rule="evenodd" stroke="none"/>
    <path d="M275.7 175.0 Q276.25 170.25 276.25 166.35 L276.3 166.3 Q276.25 162.75 275.85 159.95 274.9 154.0 271.75 151.35 270.2 150.0 267.95 149.55 266.05 149.65 264.8 150.6 260.85 153.65 263.2 165.4 261.85 162.65 261.1 160.0 260.05 155.55 260.35 151.95 L264.8 150.6 260.35 151.95 Q260.7 148.1 262.5 145.1 L263.95 143.45 261.5 141.0 264.65 142.75 265.55 141.95 266.6 146.2 263.95 143.45 266.6 146.2 265.55 141.95 264.2 136.9 266.45 141.25 Q269.5 138.9 273.1 138.2 274.65 138.25 275.95 138.85 L275.95 130.25 276.95 139.35 Q279.75 141.15 280.45 145.55 280.75 146.85 281.9 147.0 L285.2 135.5 286.1 136.5 283.0 146.9 284.8 146.2 284.75 147.65 291.5 141.4 291.35 142.45 284.7 149.1 284.1 158.2 290.85 146.45 290.4 150.5 275.7 175.0 M310.6 150.8 Q310.5 154.6 310.85 157.65 L309.7 159.6 307.65 153.55 309.7 159.6 299.75 176.45 300.75 182.25 301.35 186.25 304.95 188.55 307.75 176.05 309.2 169.7 307.35 189.95 Q313.4 193.2 318.5 194.2 L313.95 176.15 321.7 194.6 Q329.05 195.05 334.65 190.25 L315.75 169.55 316.65 170.15 327.6 181.2 340.3 183.2 341.8 180.3 Q344.25 173.95 344.9 168.2 L325.45 170.25 338.5 167.6 344.95 160.05 Q344.15 154.45 341.55 149.45 L339.65 147.45 342.35 141.55 Q350.1 145.1 355.15 152.85 357.6 156.7 359.4 161.5 L359.75 163.35 Q362.15 177.35 355.95 189.55 352.75 195.65 347.45 201.25 335.55 211.75 323.2 212.5 314.65 213.05 305.95 208.95 303.4 207.6 300.85 206.75 293.05 203.95 286.0 205.7 L287.95 193.35 289.1 185.6 289.1 183.9 307.65 153.55 309.85 150.05 310.6 150.8 M324.15 138.75 Q334.6 138.0 342.35 141.55 L339.65 147.45 Q333.05 140.95 324.15 138.75 M266.6 146.2 L271.75 151.35 266.6 146.2 M281.9 147.0 L279.85 153.85 276.3 166.3 279.85 153.85 281.9 147.0 M275.95 138.85 L275.85 159.95 275.95 138.85 M284.7 149.1 L279.85 153.85 284.7 149.1 M300.85 206.75 L304.95 188.55 300.85 206.75 M328.75 182.35 L327.6 181.2 328.75 182.35 335.65 189.35 339.1 185.1 328.75 182.35 M355.95 189.55 L339.1 185.1 355.95 189.55 M340.15 167.35 L338.5 167.6 340.15 167.35 345.05 166.35 345.1 162.6 340.15 167.35 M355.15 152.85 L345.1 162.6 355.15 152.85 M347.45 201.25 L335.65 189.35 347.45 201.25 M323.2 212.5 L318.5 194.2 323.2 212.5 M287.95 193.35 L300.75 182.25 287.95 193.35 M359.75 163.35 L345.05 166.35 359.75 163.35" fill="#dabd83" fill-rule="evenodd" stroke="none"/>
    <path d="M271.2 187.4 L269.05 185.95 270.95 182.85 276.2 185.0 298.7 149.6 277.65 185.65 281.45 187.25 309.45 142.75 311.35 143.85 314.0 145.3 310.6 150.8 309.85 150.05 307.65 153.55 289.1 183.9 289.1 185.6 283.15 195.35 280.25 193.35 271.2 187.4 M305.9 140.8 Q306.7 141.2 307.5 141.7 L308.45 142.15 289.5 168.7 305.9 140.8" fill="#333333" fill-rule="evenodd" stroke="none"/>
    <path d="M270.95 182.85 L275.7 175.0 290.4 150.5 298.65 136.75 300.15 137.55 305.9 140.8 289.5 168.7 308.45 142.15 309.45 142.75 281.45 187.25 277.65 185.65 298.7 149.6 276.2 185.0 270.95 182.85" fill="#666666" fill-rule="evenodd" stroke="none"/>
    <path d="M212.35 260.55 L212.45 260.25 215.05 260.15 216.2 260.9 Q221.05 257.85 227.5 250.6 232.2 245.4 237.75 238.05 L249.2 221.9 Q258.6 208.1 269.9 189.6 L271.2 187.4 269.05 185.95 270.95 182.85 275.7 175.0 Q276.25 170.25 276.25 166.35 M276.3 166.3 Q276.25 162.75 275.85 159.95 274.9 154.0 271.75 151.35 270.2 150.0 267.95 149.55 266.05 149.65 264.8 150.6 260.85 153.65 263.2 165.4 261.85 162.65 261.1 160.0 259.7 155.9 259.45 152.25 259.0 146.0 261.5 141.0 262.6 138.8 264.2 136.9 267.15 133.45 271.9 130.7 L275.95 130.25 Q282.3 130.1 284.7 134.6 L285.2 135.5 286.1 136.5 Q288.75 139.15 292.4 134.4 L291.5 141.4 291.35 142.45 290.85 146.45 290.4 150.5 298.65 136.75 300.15 137.55 304.85 129.05 308.5 131.4 310.5 132.7 312.4 134.0 316.1 136.4 313.75 140.15 311.35 143.85 314.0 145.3 310.6 150.8 Q310.5 154.6 310.85 157.65 311.7 166.4 315.75 169.55 L316.65 170.15 Q319.4 171.8 323.4 171.1 L325.3 170.3 325.35 170.35 Q330.15 167.95 332.0 163.7 L332.5 162.8 332.65 162.45 Q338.7 148.2 324.15 138.75 334.6 138.0 342.35 141.55 350.1 145.1 355.15 152.85 357.6 156.7 359.4 161.5 L359.75 163.35 Q362.15 177.35 355.95 189.55 352.75 195.65 347.45 201.25 335.55 211.75 323.2 212.5 314.65 213.05 305.95 208.95 303.4 207.6 300.85 206.75 293.05 203.95 286.0 205.7 L287.95 193.35 289.1 185.6 283.15 195.35 280.25 193.35 277.75 197.35 256.45 231.15 249.3 242.6 231.15 271.35 Q232.75 272.85 232.3 274.1 L229.35 274.05 228.95 273.75 227.05 274.15 Q222.65 274.85 219.65 272.65 L219.55 272.55 Q215.55 269.55 214.85 265.25 L214.75 263.65 213.5 262.8 Q212.25 261.45 212.35 260.55 M227.25 268.65 L225.95 267.75 220.8 264.1 218.5 262.5 216.2 260.9 M214.75 263.65 L228.95 273.75 M228.55 269.55 L231.15 271.35 M227.25 268.65 L228.55 269.55 M309.45 142.75 L311.35 143.85 M305.9 140.8 Q306.7 141.2 307.5 141.7 L308.45 142.15 309.45 142.75 M300.15 137.55 L305.9 140.8 M275.7 175.0 L290.4 150.5 M310.6 150.8 L309.85 150.05 307.65 153.55 289.1 183.9 289.1 185.6 M280.25 193.35 L271.2 187.4" fill="none" stroke="#000000" stroke-linecap="round" stroke-linejoin="round" stroke-opacity="0.3019608" stroke-width="0.2"/>
    <path d="M276.25 166.35 L276.3 166.3 279.85 153.85 281.9 147.0 285.2 135.5 M260.35 151.95 L259.45 152.25 M264.8 150.6 L260.35 151.95 M261.5 141.0 L263.95 143.45 266.6 146.2 265.55 141.95 264.2 136.9 M275.95 138.85 L275.95 130.25 M271.75 151.35 L266.6 146.2 M284.7 149.1 L291.35 142.45 M279.85 153.85 L284.7 149.1 M275.85 159.95 L275.95 138.85 M307.65 153.55 L309.7 159.6 310.65 163.25 313.95 176.15 318.5 194.2 323.2 212.5 M309.2 169.7 L307.75 176.05 304.95 188.55 300.85 206.75 M310.65 163.25 L309.2 169.7 M327.6 181.2 L328.75 182.35 339.1 185.1 355.95 189.55 M328.75 182.35 L335.65 189.35 347.45 201.25 M325.3 170.3 L325.45 170.25 338.5 167.6 340.15 167.35 345.1 162.6 355.15 152.85 M339.65 147.45 L332.65 162.45 M340.15 167.35 L345.05 166.35 359.75 163.35 M316.65 170.15 L327.6 181.2 M300.75 182.25 L307.75 176.05 M300.75 182.25 L287.95 193.35 M339.65 147.45 L342.35 141.55" fill="none" stroke="#261611" stroke-linecap="round" stroke-linejoin="round" stroke-opacity="0.12156863" stroke-width="0.2"/>
  </g>
</svg>
