<?xml version="1.0" encoding="UTF-8" standalone="no"?>
<svg xmlns:xlink="http://www.w3.org/1999/xlink" height="1077.75px" width="1514.15px" xmlns="http://www.w3.org/2000/svg">
  <g transform="matrix(1.0, 0.0, 0.0, 1.0, 2.0, 3.7)">
    <path d="M140.2 1046.05 L139.95 1045.9 139.6 1045.75 140.55 1044.0 140.55 1044.85 140.55 1046.25 140.2 1046.05 140.55 1044.85 140.2 1046.05" fill="#a19780" fill-rule="evenodd" stroke="none"/>
    <path d="M688.65 494.5 L687.4 494.6 687.05 494.6 688.45 494.0 688.5 494.1 688.65 494.5" fill="#615b4d" fill-rule="evenodd" stroke="none"/>
    <path d="M865.15 635.8 L864.8 637.4 Q900.8 659.35 962.95 663.5 L963.0 663.5 963.1 663.5 963.65 663.55 Q956.95 692.2 915.35 716.85 L907.25 721.4 907.9 721.55 848.05 755.1 Q905.3 720.4 934.6 697.8 899.9 700.85 873.85 691.95 866.35 687.85 840.75 675.55 L865.15 635.8 M173.4 1002.8 Q175.5 1005.5 177.0 1017.05 L176.75 1018.15 Q168.7 1051.0 140.55 1046.65 L140.55 1046.25 140.55 1044.85 140.55 1044.0 139.6 1045.75 Q125.2 1037.95 113.35 1029.8 L1.7 1070.85 102.1 998.15 Q105.75 993.55 104.7 985.55 97.3 977.5 87.05 971.75 80.6 968.1 73.05 965.4 L64.35 978.15 Q57.35 964.9 56.85 958.2 56.5 954.35 56.0 952.7 80.85 951.2 98.4 963.7 118.4 977.9 129.4 1002.55 132.95 1009.8 143.7 1019.1 154.4 1028.4 172.7 1002.85 L173.0 1003.05 173.4 1002.8 M113.35 1029.8 L122.6 1026.1 Q121.55 1018.35 119.4 1011.45 114.65 996.45 104.7 985.55 114.65 996.45 119.4 1011.45 121.55 1018.35 122.6 1026.1 L113.35 1029.8 M107.1 1014.7 L42.3 1048.7 Q-21.7 1080.45 60.5 1046.65 L114.85 1026.8 Q119.25 1015.25 107.1 1014.7 M140.55 1044.0 Q137.35 1020.5 129.4 1002.55 137.35 1020.5 140.55 1044.0" fill="#283c57" fill-rule="evenodd" stroke="none"/>
    <path d="M915.35 716.85 L907.9 721.55 907.25 721.4 915.35 716.85 M546.1 347.6 L546.1 347.45 546.25 347.5 546.1 347.6" fill="#4561a0" fill-rule="evenodd" stroke="none"/>
    <path d="M708.1 272.3 L708.6 272.55 708.6 272.6 Q715.2 275.95 721.25 282.85 715.2 275.95 708.6 272.6 L708.6 272.55 708.1 272.3 Q718.05 259.1 695.75 244.15 767.5 244.0 844.15 328.35 L845.7 330.1 844.15 328.35 840.7 268.85 Q871.45 302.2 870.85 352.15 L871.5 351.75 856.75 371.0 Q855.6 375.55 755.6 457.8 L750.6 455.75 Q745.25 453.85 739.3 452.8 745.25 453.85 750.6 455.75 L755.6 457.8 672.75 525.5 Q665.55 522.95 657.3 521.9 665.55 522.95 672.75 525.5 L570.6 608.25 Q566.45 605.55 561.9 603.8 L561.25 603.05 583.4 584.0 622.3 551.45 656.95 522.2 657.3 521.9 686.95 496.45 687.0 496.5 687.2 495.55 687.85 495.65 687.35 495.0 687.4 494.6 688.65 494.5 Q698.0 485.9 708.75 476.95 L723.45 464.25 724.2 463.55 723.95 463.9 739.3 452.8 746.65 447.5 747.45 451.8 746.65 447.5 767.3 432.55 Q762.5 405.5 752.75 382.15 734.7 339.0 699.8 308.45 703.75 320.7 686.35 321.5 680.55 321.3 674.15 314.9 L673.1 313.35 Q669.5 307.4 668.05 302.05 L668.0 302.0 667.9 301.6 Q663.05 282.85 684.3 271.0 697.0 266.8 708.1 272.3 M698.25 307.1 L699.8 308.45 698.25 307.1 M683.55 300.6 Q689.9 293.95 695.8 300.5 698.65 304.95 699.8 308.45 698.65 304.95 695.8 300.5 689.9 293.95 683.55 300.6 M871.5 351.75 L877.45 343.9 880.1 345.75 871.5 351.75 M854.55 319.65 Q863.25 345.05 856.75 371.0 L823.75 385.3 823.95 384.0 823.85 384.5 767.3 432.55 823.85 384.5 823.95 384.0 823.75 385.3 856.75 371.0 Q863.25 345.05 854.55 319.65 M721.5 466.7 L723.95 463.9 721.5 466.7 M723.45 464.25 L723.65 464.1 723.95 463.9 723.65 464.1 723.45 464.25 M723.65 464.1 L724.2 463.55 723.65 464.1 M431.1 684.6 L430.4 685.3 429.95 685.8 433.75 686.6 Q448.35 689.45 464.2 687.95 L472.95 688.5 Q465.15 692.1 457.25 694.2 477.7 700.55 480.55 715.2 479.45 739.0 457.0 753.55 L360.25 803.1 Q439.25 759.15 437.65 749.55 460.15 695.7 395.2 744.2 378.4 758.4 382.0 762.95 370.35 781.05 425.5 749.2 419.1 766.35 370.2 783.1 330.7 778.8 384.55 737.95 L425.95 707.7 Q434.1 702.55 439.85 701.9 L430.6 696.75 Q423.95 696.35 417.25 694.95 L307.8 803.35 345.9 807.6 301.45 809.3 287.65 822.7 Q269.15 839.45 251.25 854.05 249.95 855.1 253.7 871.5 243.5 857.05 240.8 858.4 178.8 911.85 120.8 935.15 110.65 927.8 98.9 921.5 177.5 886.4 245.25 837.2 267.85 820.8 289.2 802.85 326.0 771.9 359.2 736.35 355.4 743.8 409.9 678.75 L413.4 674.55 413.45 674.5 431.1 684.6 M307.8 803.35 Q298.65 802.9 289.2 802.85 298.65 802.9 307.8 803.35 M251.25 854.05 Q248.55 845.05 245.25 837.2 248.55 845.05 251.25 854.05 M64.5 944.2 Q61.3 919.0 87.45 918.85 91.65 918.55 95.9 921.6 L95.85 921.65 95.9 921.7 95.8 921.9 96.05 921.75 Q104.65 926.4 112.1 931.75 L118.3 936.55 95.7 952.7 Q82.8 943.55 64.6 944.65 64.7 944.2 64.5 944.2 M65.05 999.55 Q71.15 1003.0 75.55 1007.8 76.2 1012.55 74.0 1015.3 L14.25 1058.55 14.0 1058.4 56.7 995.8 Q61.2 997.4 65.05 999.55" fill="#63c7bc" fill-rule="evenodd" stroke="none"/>
    <path d="M590.7 631.85 L590.95 632.35 590.9 635.15 591.85 634.7 590.85 635.4 Q553.7 660.95 538.35 672.8 531.4 715.0 457.0 753.55 479.45 739.0 480.55 715.2 477.7 700.55 457.25 694.2 465.15 692.1 472.95 688.5 L464.2 687.95 Q511.15 683.5 568.25 640.75 L571.6 638.2 581.15 630.7 Q586.45 627.55 588.9 628.6 L590.7 631.85 M307.8 803.35 L417.25 694.95 Q423.95 696.35 430.6 696.75 L439.85 701.9 Q434.1 702.55 425.95 707.7 L384.55 737.95 Q330.7 778.8 370.2 783.1 419.1 766.35 425.5 749.2 370.35 781.05 382.0 762.95 378.4 758.4 395.2 744.2 460.15 695.7 437.65 749.55 439.25 759.15 360.25 803.1 420.35 788.2 355.05 806.5 L352.0 808.3 Q299.8 838.65 255.6 870.9 L253.6 872.35 253.5 872.0 253.5 872.4 Q194.5 915.55 149.65 962.0 140.65 951.05 129.25 941.65 140.65 951.05 149.65 962.0 157.7 971.85 163.85 982.95 169.05 992.35 172.85 1002.65 L172.7 1002.85 Q154.4 1028.4 143.7 1019.1 132.95 1009.8 129.4 1002.55 118.4 977.9 98.4 963.7 L129.25 941.65 Q125.2 938.3 120.8 935.15 178.8 911.85 240.8 858.4 243.5 857.05 253.7 871.5 249.95 855.1 251.25 854.05 269.15 839.45 287.65 822.7 L301.45 809.3 345.9 807.6 307.8 803.35 Q331.05 804.5 352.0 808.3 331.05 804.5 307.8 803.35 M251.25 854.05 Q253.65 862.0 255.6 870.9 253.65 862.0 251.25 854.05" fill="#4a639b" fill-rule="evenodd" stroke="none"/>
    <path d="M590.95 632.35 L591.4 633.2 590.9 635.15 590.95 632.35 M581.15 630.7 L587.15 625.75 588.9 628.6 Q586.45 627.55 581.15 630.7 M255.6 870.9 Q257.55 879.95 259.0 890.0 257.8 890.95 253.6 872.35 L255.6 870.9" fill="#243a8e" fill-rule="evenodd" stroke="none"/>
    <path d="M574.75 611.35 Q577.9 613.95 580.8 617.25 584.15 621.05 587.15 625.75 L581.15 630.7 571.6 638.2 568.25 640.75 Q511.15 683.5 464.2 687.95 448.35 689.45 433.75 686.6 L429.95 685.8 430.4 685.3 431.1 684.6 433.75 686.6 431.1 684.6 464.2 686.7 Q458.4 686.2 444.65 669.45 508.2 617.4 574.75 611.35 M120.8 935.15 Q125.2 938.3 129.25 941.65 L98.4 963.7 Q80.85 951.2 56.0 952.7 56.1 952.1 55.85 952.1 51.5 917.75 87.2 917.5 92.9 917.1 98.7 921.3 L98.6 921.35 98.7 921.4 98.55 921.65 98.9 921.5 Q110.65 927.8 120.8 935.15 M64.35 978.15 L73.05 965.4 Q80.6 968.1 87.05 971.75 97.3 977.5 104.7 985.55 105.75 993.55 102.1 998.15 L1.7 1070.85 1.3 1070.6 64.35 978.15 M64.5 944.2 Q64.7 944.2 64.6 944.65 82.8 943.55 95.7 952.7 L118.3 936.55 112.1 931.75 Q104.65 926.4 96.05 921.75 L95.8 921.9 95.9 921.7 95.85 921.65 95.9 921.6 Q91.65 918.55 87.45 918.85 61.3 919.0 64.5 944.2 M65.05 999.55 Q61.2 997.4 56.7 995.8 L14.0 1058.4 14.25 1058.55 74.0 1015.3 Q76.2 1012.55 75.55 1007.8 71.15 1003.0 65.05 999.55" fill="#2c7587" fill-rule="evenodd" stroke="none"/>
    <path d="M884.9 413.7 L884.7 414.6 819.1 466.7 806.05 478.4 793.15 489.95 791.95 491.05 786.05 495.2 Q783.3 498.95 778.95 502.9 L764.15 516.25 Q749.35 522.55 750.85 527.5 L750.5 527.75 708.35 559.7 Q703.95 550.2 697.95 543.05 703.95 550.2 708.35 559.7 660.75 595.4 595.75 643.2 593.7 637.85 591.4 633.2 L590.95 632.35 590.7 631.85 590.85 631.7 591.95 630.8 697.95 543.05 Q743.7 505.25 778.55 476.8 882.25 392.1 889.45 389.7 L884.9 413.7 M786.2 489.95 Q782.85 482.7 778.55 476.8 782.85 482.7 786.2 489.95 M803.8 478.0 L806.05 478.4 803.8 478.0" fill="#3f8078" fill-rule="evenodd" stroke="none"/>
    <path d="M980.95 661.6 Q973.2 615.85 958.9 591.7 944.6 567.5 895.6 533.7 846.6 499.85 778.95 502.9 783.3 498.95 786.05 495.2 L791.95 491.05 793.15 489.95 Q854.3 489.4 920.25 520.25 964.75 541.15 1011.2 576.25 1011.7 576.55 1015.05 580.2 1012.45 580.55 1009.3 581.9 994.6 592.95 1007.9 612.8 1020.5 623.35 1031.0 623.5 L1034.9 623.2 Q1018.5 650.2 1005.55 654.0 L992.25 657.85 980.95 661.6 M708.75 476.95 Q698.0 485.9 688.65 494.5 L688.5 494.1 688.45 494.0 700.4 481.75 Q637.0 385.6 542.95 412.2 L542.05 411.0 542.2 409.9 542.05 411.0 Q518.65 379.3 546.1 347.6 L546.25 347.5 Q575.25 344.3 627.25 373.7 679.2 403.1 708.75 476.95" fill="#57b0a5" fill-rule="evenodd" stroke="none"/>
    <path d="M778.95 502.9 Q846.6 499.85 895.6 533.7 944.6 567.5 958.9 591.7 973.2 615.85 980.95 661.6 980.6 660.5 964.75 663.4 L964.35 663.45 963.1 663.5 963.0 663.5 962.95 663.5 Q900.8 659.35 864.8 637.4 L865.15 635.8 Q880.75 556.45 767.35 514.9 765.65 515.55 764.15 516.25 L778.95 502.9" fill="#458c83" fill-rule="evenodd" stroke="none"/>
    <path d="M1034.9 623.2 L1031.0 623.5 Q1020.5 623.35 1007.9 612.8 994.6 592.95 1009.3 581.9 1012.45 580.55 1015.05 580.2 1011.7 576.55 1011.2 576.25 964.75 541.15 920.25 520.25 854.3 489.4 793.15 489.95 L806.05 478.4 Q853.8 469.9 936.35 500.7 986.3 520.35 1027.85 569.1 1043.7 579.35 1048.1 615.5 1042.0 621.9 1034.9 623.2 L1034.85 622.65 1034.9 623.2 M1015.8 581.0 L1015.05 580.2 Q1026.65 578.55 1026.95 596.9 1026.65 578.55 1015.05 580.2 L1015.8 581.0" fill="#76eddf" fill-rule="evenodd" stroke="none"/>
    <path d="M1214.8 80.5 L1217.95 79.3 Q1174.9 156.35 1107.15 198.15 980.35 294.0 918.95 367.3 L918.15 368.25 918.0 368.05 918.95 367.3 895.7 358.7 1214.8 80.5 M884.7 414.6 L884.9 413.7 885.65 413.85 884.7 414.6 M1056.35 491.25 L1056.3 491.2 1056.45 491.3 1056.35 491.25" fill="#39736c" fill-rule="evenodd" stroke="none"/>
    <path d="M1081.4 182.05 Q1118.75 116.8 1214.8 80.5 L895.7 358.7 896.05 356.75 880.1 345.75 Q970.05 282.85 1081.4 182.05" fill="#78f2e3" fill-rule="evenodd" stroke="none"/>
    <path d="M895.7 358.7 L918.95 367.3 918.0 368.05 889.45 389.7 Q882.25 392.1 778.55 476.8 L775.8 473.3 Q771.9 468.7 767.35 465.05 771.9 468.7 775.8 473.3 L778.55 476.8 Q743.7 505.25 697.95 543.05 695.75 540.45 693.35 538.15 695.75 540.45 697.95 543.05 L591.95 630.8 590.85 631.7 590.7 631.85 588.9 628.6 587.15 625.75 Q584.15 621.05 580.8 617.25 L675.7 538.3 693.35 538.15 694.15 538.15 689.3 534.65 Q687.45 533.15 685.45 531.85 L757.1 473.0 773.4 471.85 767.35 465.05 864.7 385.7 895.7 358.7" fill="#254d47" fill-rule="evenodd" stroke="none"/>
    <path d="M871.5 351.75 L880.1 345.75 896.05 356.75 895.7 358.7 864.7 385.7 767.35 465.05 Q765.4 463.5 763.3 462.1 759.65 459.65 755.6 457.8 759.65 459.65 763.3 462.1 765.4 463.5 767.35 465.05 L773.4 471.85 757.1 473.0 685.45 531.85 Q679.6 527.95 672.75 525.5 679.6 527.95 685.45 531.85 687.45 533.15 689.3 534.65 L694.15 538.15 693.35 538.15 675.7 538.3 580.8 617.25 Q577.9 613.95 574.75 611.35 572.75 609.65 570.6 608.25 572.75 609.65 574.75 611.35 508.2 617.4 444.65 669.45 458.4 686.2 464.2 686.7 L431.1 684.6 413.45 674.5 416.2 671.2 Q477.3 598.05 558.6 604.6 L558.9 604.55 559.8 604.3 561.9 603.8 Q566.45 605.55 570.6 608.25 L672.75 525.5 755.6 457.8 Q855.6 375.55 856.75 371.0 L871.5 351.75 M689.3 534.65 L693.35 538.15 689.3 534.65 M570.15 608.6 L570.6 608.25 570.15 608.6 M573.0 610.9 L574.75 611.35 573.0 610.9" fill="#89e0d6" fill-rule="evenodd" stroke="none"/>
    <path d="M918.15 368.25 Q974.3 350.9 1037.05 367.25 L947.7 392.05 Q1048.95 407.35 1093.3 486.9 1064.15 472.0 1056.45 491.35 1069.35 499.95 1073.0 517.0 1074.1 551.55 1046.6 556.1 L1036.75 556.8 1034.55 556.7 Q1024.05 553.8 1020.35 547.55 1015.3 537.55 1016.7 531.75 1017.8 527.1 1022.9 525.05 L1021.05 523.65 1019.4 522.45 Q968.3 494.65 921.2 480.6 877.05 467.4 836.7 466.5 827.8 466.3 819.1 466.7 L884.7 414.6 884.45 415.95 884.7 414.6 885.65 413.85 884.9 413.7 889.45 389.7 918.0 368.05 918.15 368.25 M631.3 332.25 Q648.4 322.25 655.25 341.1 L655.25 341.15 652.75 338.95 655.25 341.15 655.25 341.1 Q648.4 322.25 631.3 332.25 M1043.35 537.05 Q1046.15 525.7 1035.85 523.5 1027.65 523.15 1022.9 525.05 1027.65 523.15 1035.85 523.5 1046.15 525.7 1043.35 537.05 M746.65 447.5 L739.3 452.8 723.95 463.9 724.2 463.55 723.45 464.25 721.95 465.35 Q717.15 437.75 707.25 414.0 689.45 371.45 655.25 341.15 650.0 354.4 634.15 355.2 L628.45 355.05 Q608.1 347.2 606.4 332.9 L606.35 332.7 Q605.25 322.95 612.65 310.25 648.1 312.85 688.7 333.2 730.25 364.6 746.65 447.5 M1056.3 491.2 L1056.35 491.25 1056.45 491.3 1056.3 491.2 Q1048.75 486.2 1038.15 484.05 1048.75 486.2 1056.3 491.2 M1023.85 525.8 L1022.9 525.05 1023.85 525.8 M1056.45 491.35 L1056.35 491.25 1056.45 491.35 M996.6 369.8 Q946.5 370.45 889.45 389.7 946.5 370.45 996.6 369.8" fill="#53a89e" fill-rule="evenodd" stroke="none"/>
    <path d="M688.45 494.0 L687.05 494.6 Q631.85 424.45 536.1 459.1 L535.05 458.4 Q520.65 434.9 542.05 411.0 L542.95 412.2 Q637.0 385.6 700.4 481.75 L688.45 494.0" fill="url(#gradient0)" fill-rule="evenodd" stroke="none"/>
    <path d="M542.05 411.0 Q520.65 434.9 535.05 458.4 518.05 446.6 515.05 420.25 L516.55 419.65 Q506.2 382.75 543.65 347.85 506.2 382.75 516.55 419.65 L515.05 420.25 514.75 417.75 514.65 416.4 Q514.0 416.7 514.75 417.75 L515.05 420.25 Q463.95 440.85 436.25 481.15 L434.2 479.75 Q418.2 442.5 435.25 405.15 L436.45 405.5 Q469.85 360.1 543.65 347.85 537.15 348.35 546.1 347.6 518.65 379.3 542.05 411.0 M516.55 419.65 L514.75 417.75 516.55 419.65" fill="url(#gradient1)" fill-rule="evenodd" stroke="none"/>
    <path d="M764.15 516.25 Q765.65 515.55 767.35 514.9 880.75 556.45 865.15 635.8 L840.75 675.55 Q857.55 579.15 750.5 527.75 L750.85 527.5 Q749.35 522.55 764.15 516.25 756.45 522.95 750.85 527.5 756.45 522.95 764.15 516.25" fill="url(#gradient2)" fill-rule="evenodd" stroke="none"/>
    <path d="M824.55 132.4 L824.2 134.85 Q776.45 161.8 621.85 191.35 511.25 212.5 454.4 240.2 L394.2 233.2 Q472.35 182.25 711.6 147.1 L757.9 140.65 Q745.65 132.15 736.5 123.65 L737.3 96.3 Q765.3 122.85 822.5 132.1 L824.55 132.4 M404.85 285.95 Q378.7 345.95 435.25 405.15 418.2 442.5 434.2 479.75 299.5 388.25 346.6 290.2 L404.85 285.95 M756.95 137.35 L822.5 132.1 756.95 137.35 M711.6 147.1 L771.2 155.15 711.6 147.1 M397.0 350.45 L370.8 360.65 397.0 350.45 M418.2 389.8 L386.7 436.25 418.2 389.8" fill="url(#gradient3)" fill-rule="evenodd" stroke="none"/>
    <path d="M1403.6 492.35 Q1359.8 489.45 1310.3 460.45 L1307.3 458.65 Q1297.9 691.45 1203.6 765.3 L1161.7 703.55 Q1183.35 689.65 1200.1 670.05 L1200.55 669.5 Q1242.3 612.95 1253.3 442.15 1262.35 400.95 1284.5 380.65 1295.55 370.5 1309.9 365.6 1345.55 440.4 1427.9 453.0 L1403.6 492.35 M1310.3 460.45 L1284.5 380.65 1310.3 460.45 M907.9 721.55 Q998.1 741.9 1065.1 733.0 L1064.9 734.6 1065.1 733.0 1073.7 800.35 1056.3 800.1 Q982.3 797.1 844.5 756.2 845.95 753.65 848.05 755.1 L907.9 721.55" fill="url(#gradient4)" fill-rule="evenodd" stroke="none"/>
    <path d="M606.4 332.9 Q608.1 347.2 628.45 355.05 L634.15 355.2 Q650.0 354.4 655.25 341.15 689.45 371.45 707.25 414.0 717.15 437.75 721.95 465.35 L723.45 464.25 708.75 476.95 Q679.2 403.1 627.25 373.7 575.25 344.3 546.25 347.5 566.25 330.5 606.4 332.9" fill="#41857d" fill-rule="evenodd" stroke="none"/>
    <path d="M253.5 872.4 L253.5 872.0 253.6 872.35 253.5 872.4" fill="#3956e6" fill-rule="evenodd" stroke="none"/>
    <path d="M546.7 716.15 Q558.65 713.85 557.1 726.1 L508.85 758.15 Q495.9 756.45 500.45 746.55 L546.7 716.15 M107.1 1014.7 Q119.25 1015.25 114.85 1026.8 L60.5 1046.65 Q-21.7 1080.45 42.3 1048.7 L107.1 1014.7" fill="#667cff" fill-rule="evenodd" stroke="none"/>
    <path d="M1107.15 198.15 Q1149.9 177.35 1184.0 199.95 1114.5 214.4 1136.25 242.35 1207.45 278.2 1357.75 276.0 1387.55 363.7 1442.4 389.55 1484.45 400.9 1489.1 357.55 1515.15 387.6 1506.15 433.8 1504.05 444.8 1498.5 453.45 1459.7 457.85 1427.9 453.0 1345.55 440.4 1309.9 365.6 1295.55 370.5 1284.5 380.65 L1284.15 379.6 1284.5 380.65 Q1262.35 400.95 1253.3 442.15 1242.3 612.95 1200.55 669.5 L1200.1 670.05 Q1183.35 689.65 1161.7 703.55 1147.65 712.5 1131.6 719.05 1125.8 721.4 1119.8 723.45 1106.25 727.95 1091.4 731.0 1078.65 733.55 1065.1 733.0 998.1 741.9 907.9 721.55 L915.35 716.85 Q956.95 692.2 963.65 663.55 L963.95 663.5 964.05 663.5 964.1 663.5 964.35 663.45 964.35 663.6 964.35 663.45 964.75 663.4 Q980.6 660.5 980.95 661.6 L992.25 657.85 1005.55 654.0 Q1018.5 650.2 1034.9 623.2 1042.0 621.9 1048.1 615.5 1053.8 609.5 1058.6 599.0 1062.6 575.3 1046.6 556.1 1074.1 551.55 1073.0 517.0 1069.35 499.95 1056.45 491.35 1064.15 472.0 1093.3 486.9 1048.95 407.35 947.7 392.05 L1037.05 367.25 Q974.3 350.9 918.15 368.25 L918.95 367.3 Q980.35 294.0 1107.15 198.15 M1048.3 615.95 L1048.1 615.5 1048.3 615.95 M711.95 48.65 Q713.6 30.35 751.35 6.65 792.0 -10.15 832.6 15.45 758.85 17.3 791.6 55.05 857.1 83.4 925.1 83.2 950.35 170.9 1008.3 184.55 1027.85 188.55 1036.85 184.55 1060.4 166.3 1043.45 131.85 1078.15 149.1 1081.4 182.05 970.05 282.85 880.1 345.75 L877.45 343.9 871.5 351.75 870.85 352.15 Q871.45 302.2 840.7 268.85 L844.15 328.35 Q767.5 244.0 695.75 244.15 718.05 259.1 708.1 272.3 697.0 266.8 684.3 271.0 663.05 282.85 667.9 301.6 634.9 289.45 614.4 307.4 613.45 308.85 612.65 310.25 605.25 322.95 606.35 332.7 L606.4 332.9 Q566.25 330.5 546.25 347.5 L546.1 347.45 546.1 347.6 Q537.15 348.35 543.65 347.85 469.85 360.1 436.45 405.5 L435.25 405.15 Q378.7 345.95 404.85 285.95 409.8 274.6 417.65 263.25 431.75 251.2 454.4 240.2 511.25 212.5 621.85 191.35 776.45 161.8 824.2 134.85 L827.5 132.85 824.55 132.4 822.5 132.1 830.85 131.4 822.5 132.1 Q765.3 122.85 737.3 96.3 716.95 77.05 711.95 48.65 M1170.65 331.35 Q1177.0 362.1 1214.8 391.95 1185.4 350.5 1185.4 310.25 1141.9 333.7 1068.15 338.15 1125.95 347.4 1170.65 331.35 M436.25 403.5 L435.25 405.15 436.25 403.5 M788.1 175.25 Q836.35 199.6 881.05 183.55 887.4 214.3 925.2 244.15 895.8 202.7 895.8 162.45 852.3 185.9 788.1 175.25 M528.85 349.3 L543.65 347.85 528.85 349.3 M546.1 347.45 L546.2 345.65 546.1 347.45 M610.95 309.75 L612.65 310.25 610.95 309.75" fill="url(#gradient5)" fill-rule="evenodd" stroke="none"/>
    <path d="M667.9 301.6 L668.0 302.0 668.05 302.05 Q669.5 307.4 673.1 313.35 L674.15 314.9 Q680.55 321.3 686.35 321.5 703.75 320.7 699.8 308.45 734.7 339.0 752.75 382.15 762.5 405.5 767.3 432.55 L746.65 447.5 Q730.25 364.6 688.7 333.2 648.1 312.85 612.65 310.25 613.45 308.85 614.4 307.4 634.9 289.45 667.9 301.6" fill="#7dd6cb" fill-rule="evenodd" stroke="none"/>
    <path d="M1046.6 556.1 Q1062.6 575.3 1058.6 599.0 1053.8 609.5 1048.1 615.5 1043.7 579.35 1027.85 569.1 986.3 520.35 936.35 500.7 853.8 469.9 806.05 478.4 L819.1 466.7 Q827.8 466.3 836.7 466.5 877.05 467.4 921.2 480.6 968.3 494.65 1019.4 522.45 L1021.05 523.65 1022.9 525.05 Q1017.8 527.1 1016.7 531.75 1015.3 537.55 1020.35 547.55 1024.05 553.8 1034.55 556.7 L1036.75 556.8 1046.6 556.1" fill="#9efff4" fill-rule="evenodd" stroke="none"/>
    <path d="M1170.65 331.35 Q1125.95 347.4 1068.15 338.15 1141.9 333.7 1185.4 310.25 1185.4 350.5 1214.8 391.95 1177.0 362.1 1170.65 331.35" fill="url(#gradient6)" fill-rule="evenodd" stroke="none"/>
    <path d="M788.1 175.25 Q852.3 185.9 895.8 162.45 895.8 202.7 925.2 244.15 887.4 214.3 881.05 183.55 836.35 199.6 788.1 175.25" fill="url(#gradient7)" fill-rule="evenodd" stroke="none"/>
    <path d="M1065.1 733.0 Q1078.65 733.55 1091.4 731.0 1106.25 727.95 1119.8 723.45 1125.8 721.4 1131.6 719.05 1147.65 712.5 1161.7 703.55 L1203.6 765.3 Q1188.9 776.75 1172.15 784.4 1123.2 799.7 1073.7 800.35 L1065.1 733.0 1074.85 792.95 1065.1 733.0 M1133.6 765.75 L1123.15 733.15 1133.6 765.75" fill="url(#gradient8)" fill-rule="evenodd" stroke="none"/>
    <path d="M454.4 240.2 Q431.75 251.2 417.65 263.25 409.8 274.6 404.85 285.95 L346.6 290.2 Q352.95 277.0 362.6 263.65 371.8 247.75 394.2 233.2 L454.4 240.2" fill="url(#gradient9)" fill-rule="evenodd" stroke="none"/>
    <path d="M736.5 123.65 Q707.9 97.0 710.15 70.35 709.75 65.25 711.95 48.65 716.95 77.05 737.3 96.3 L736.5 123.65" fill="url(#gradient10)" fill-rule="evenodd" stroke="none"/>
    <path d="M1498.5 453.45 Q1485.9 473.0 1470.4 480.1 1438.85 494.65 1403.6 492.35 L1427.9 453.0 Q1459.7 457.85 1498.5 453.45" fill="url(#gradient11)" fill-rule="evenodd" stroke="none"/>
    <path d="M360.25 803.1 L457.0 753.55 Q531.4 715.0 538.35 672.8 553.7 660.95 590.85 635.4 578.4 683.65 548.45 714.95 L546.7 716.15 500.45 746.55 479.15 760.55 376.6 813.95 Q364.75 810.6 352.0 808.3 L355.05 806.5 Q420.35 788.2 360.25 803.1 M352.0 808.3 Q364.75 810.6 376.6 813.95 L355.25 809.65 366.1 821.1 260.7 888.65 259.0 890.0 Q257.55 879.95 255.6 870.9 299.8 838.65 352.0 808.3 M149.65 962.0 Q194.5 915.55 253.5 872.4 253.0 895.0 250.1 897.45 202.55 934.85 163.85 982.95 157.7 971.85 149.65 962.0" fill="#353c61" fill-rule="evenodd" stroke="none"/>
    <path d="M591.4 633.2 Q593.7 637.85 595.75 643.2 L596.0 643.85 584.45 687.9 Q573.0 731.1 472.95 776.7 415.95 802.65 388.2 817.5 367.2 828.7 362.95 833.55 304.1 873.5 261.3 909.55 201.55 959.85 173.15 1002.55 L172.85 1002.65 Q169.05 992.35 163.85 982.95 202.55 934.85 250.1 897.45 253.0 895.0 253.5 872.4 L253.6 872.35 Q257.8 890.95 259.0 890.0 L260.7 888.65 366.1 821.1 355.25 809.65 376.6 813.95 479.15 760.55 500.45 746.55 Q495.9 756.45 508.85 758.15 L557.1 726.1 Q558.65 713.85 546.7 716.15 L548.45 714.95 Q578.4 683.65 590.85 635.4 L591.85 634.7 590.9 635.15 591.4 633.2 M388.2 817.5 L376.6 813.95 388.2 817.5 M261.3 909.55 Q260.35 899.35 259.0 890.0 260.35 899.35 261.3 909.55" fill="#7081e6" fill-rule="evenodd" stroke="none"/>
    <path d="M253.5 872.4 L253.6 872.35" fill="none" stroke="#000000" stroke-linecap="round" stroke-linejoin="round" stroke-opacity="0.5019608" stroke-width="4.0"/>
    <path d="M568.25 640.75 L571.6 638.2" fill="none" stroke="#000000" stroke-linecap="round" stroke-linejoin="round" stroke-opacity="0.5019608" stroke-width="2.5"/>
    <path d="M1065.1 733.0 L1074.85 792.95" fill="none" stroke="#ffffff" stroke-linecap="round" stroke-linejoin="round" stroke-opacity="0.2" stroke-width="17.75"/>
    <path d="M1123.15 733.15 L1133.6 765.75 M370.8 360.65 L397.0 350.45" fill="none" stroke="#ffffff" stroke-linecap="round" stroke-linejoin="round" stroke-opacity="0.2" stroke-width="63.75"/>
    <path d="M1310.3 460.45 L1310.9 462.3 M1284.15 379.6 L1284.5 380.65 1310.3 460.45 M822.5 132.1 L756.95 137.35 M822.5 132.1 L830.85 131.4 M711.6 147.1 L701.15 145.7 M771.2 155.15 L711.6 147.1 M386.7 436.25 L418.2 389.8" fill="none" stroke="#ffffff" stroke-linecap="round" stroke-linejoin="round" stroke-opacity="0.2" stroke-width="4.25"/>
    <path d="M1107.15 198.15 Q1149.9 177.35 1184.0 199.95 1114.5 214.4 1136.25 242.35 1207.45 278.2 1357.75 276.0 1387.55 363.7 1442.4 389.55 1484.45 400.9 1489.1 357.55 1515.15 387.6 1506.15 433.8 1504.05 444.8 1498.5 453.45 1485.9 473.0 1470.4 480.1 1438.85 494.65 1403.6 492.35 1359.8 489.45 1310.3 460.45 L1307.3 458.65 Q1297.9 691.45 1203.6 765.3 L1204.1 766.05 M1427.9 453.0 Q1459.7 457.85 1498.5 453.45 M1284.5 380.65 Q1295.55 370.5 1309.9 365.6 1345.55 440.4 1427.9 453.0 M1214.8 80.5 L1217.95 79.3 Q1174.9 156.35 1107.15 198.15 980.35 294.0 918.95 367.3 L918.15 368.25 Q974.3 350.9 1037.05 367.25 L947.7 392.05 Q1048.95 407.35 1093.3 486.9 1064.15 472.0 1056.45 491.35 1069.35 499.95 1073.0 517.0 1074.1 551.55 1046.6 556.1 1062.6 575.3 1058.6 599.0 1053.8 609.5 1048.1 615.5 L1048.3 615.95 M1214.8 80.5 L1218.5 77.25 M711.95 48.65 Q713.6 30.35 751.35 6.65 792.0 -10.15 832.6 15.45 758.85 17.3 791.6 55.05 857.1 83.4 925.1 83.2 950.35 170.9 1008.3 184.55 1027.85 188.55 1036.85 184.55 1060.4 166.3 1043.45 131.85 1078.15 149.1 1081.4 182.05 1118.75 116.8 1214.8 80.5 L895.7 358.7 896.05 356.75 M918.95 367.3 L918.0 368.05 889.45 389.7 Q946.5 370.45 996.6 369.8 M824.2 134.85 L827.5 132.85 824.55 132.4 822.5 132.1 Q765.3 122.85 737.3 96.3 716.95 77.05 711.95 48.65 709.75 65.25 710.15 70.35 707.9 97.0 736.5 123.65 745.65 132.15 757.9 140.65 L711.6 147.1 Q472.35 182.25 394.2 233.2 371.8 247.75 362.6 263.65 352.95 277.0 346.6 290.2 299.5 388.25 434.2 479.75 418.2 442.5 435.25 405.15 L436.45 405.5 Q469.85 360.1 543.65 347.85 L528.85 349.3 M824.2 134.85 Q776.45 161.8 621.85 191.35 511.25 212.5 454.4 240.2 431.75 251.2 417.65 263.25 409.8 274.6 404.85 285.95 378.7 345.95 435.25 405.15 L436.25 403.5 M721.25 282.85 Q715.2 275.95 708.6 272.6 L708.6 272.55 708.1 272.3 Q697.0 266.8 684.3 271.0 663.05 282.85 667.9 301.6 L668.0 302.0 668.05 302.05 Q669.5 307.4 673.1 313.35 L674.15 314.9 Q680.55 321.3 686.35 321.5 703.75 320.7 699.8 308.45 L698.25 307.1 M844.15 328.35 Q767.5 244.0 695.75 244.15 718.05 259.1 708.1 272.3 M699.8 308.45 Q698.65 304.95 695.8 300.5 689.9 293.95 683.55 300.6 M652.75 338.95 L655.25 341.15 655.25 341.1 Q648.4 322.25 631.3 332.25 M746.65 447.5 L767.3 432.55 Q762.5 405.5 752.75 382.15 734.7 339.0 699.8 308.45 M871.5 351.75 L880.1 345.75 Q970.05 282.85 1081.4 182.05 M845.7 330.1 L844.15 328.35 840.7 268.85 Q871.45 302.2 870.85 352.15 L871.5 351.75 856.75 371.0 Q863.25 345.05 854.55 319.65 M755.6 457.8 Q759.65 459.65 763.3 462.1 765.4 463.5 767.35 465.05 L864.7 385.7 895.7 358.7 M767.3 432.55 L823.85 384.5 823.95 384.0 823.75 385.3 856.75 371.0 M884.7 414.6 L884.9 413.7 889.45 389.7 M778.55 476.8 Q782.85 482.7 786.2 489.95 M884.7 414.6 L884.45 415.95 M885.65 413.85 L884.7 414.6 819.1 466.7 Q827.8 466.3 836.7 466.5 877.05 467.4 921.2 480.6 968.3 494.65 1019.4 522.45 L1021.05 523.65 1022.9 525.05 Q1027.65 523.15 1035.85 523.5 1046.15 525.7 1043.35 537.05 M778.95 502.9 Q846.6 499.85 895.6 533.7 944.6 567.5 958.9 591.7 973.2 615.85 980.95 661.6 L992.25 657.85 1005.55 654.0 Q1018.5 650.2 1034.9 623.2 L1031.0 623.5 Q1020.5 623.35 1007.9 612.8 994.6 592.95 1009.3 581.9 1012.45 580.55 1015.05 580.2 1011.7 576.55 1011.2 576.25 964.75 541.15 920.25 520.25 854.3 489.4 793.15 489.95 L791.95 491.05 786.05 495.2 Q783.3 498.95 778.95 502.9 L764.15 516.25 Q765.65 515.55 767.35 514.9 880.75 556.45 865.15 635.8 L864.8 637.4 Q900.8 659.35 962.95 663.5 L963.0 663.5 963.1 663.5 963.65 663.55 963.95 663.5 964.05 663.5 964.1 663.5 964.35 663.45 964.35 663.6 964.35 663.45 964.75 663.4 Q980.6 660.5 980.95 661.6 M739.3 452.8 Q745.25 453.85 750.6 455.75 L755.6 457.8 M672.75 525.5 Q679.6 527.95 685.45 531.85 687.45 533.15 689.3 534.65 L693.35 538.15 Q695.75 540.45 697.95 543.05 703.95 550.2 708.35 559.7 L750.5 527.75 750.85 527.5 Q749.35 522.55 764.15 516.25 756.45 522.95 750.85 527.5 M767.35 465.05 Q771.9 468.7 775.8 473.3 L778.55 476.8 M746.65 447.5 L739.3 452.8 723.95 463.9 721.5 466.7 M747.45 451.8 L746.65 447.5 M612.65 310.25 Q605.25 322.95 606.35 332.7 L606.4 332.9 Q608.1 347.2 628.45 355.05 L634.15 355.2 Q650.0 354.4 655.25 341.15 689.45 371.45 707.25 414.0 717.15 437.75 721.95 465.35 L723.45 464.25 724.2 463.55 723.95 463.9 723.65 464.1 723.45 464.25 708.75 476.95 Q698.0 485.9 688.65 494.5 L688.5 494.1 688.45 494.0 700.4 481.75 Q637.0 385.6 542.95 412.2 L542.05 411.0 Q520.65 434.9 535.05 458.4 L536.1 459.1 Q631.85 424.45 687.05 494.6 L687.35 495.0 687.85 495.65 687.2 495.55 M686.95 496.45 L657.3 521.9 Q665.55 522.95 672.75 525.5 M570.6 608.25 Q572.75 609.65 574.75 611.35 577.9 613.95 580.8 617.25 584.15 621.05 587.15 625.75 L588.9 628.6 590.7 631.85 590.95 632.35 591.4 633.2 Q593.7 637.85 595.75 643.2 660.75 595.4 708.35 559.7 M793.15 489.95 L806.05 478.4 803.8 478.0 M724.2 463.55 L723.65 464.1 M657.3 521.9 L656.95 522.2 622.3 551.45 583.4 584.0 561.25 603.05 559.8 604.3 561.9 603.8 Q566.45 605.55 570.6 608.25 L570.15 608.6 M686.95 496.45 L686.45 495.75 M963.65 663.55 Q956.95 692.2 915.35 716.85 L907.9 721.55 Q998.1 741.9 1065.1 733.0 1078.65 733.55 1091.4 731.0 1106.25 727.95 1119.8 723.45 1125.8 721.4 1131.6 719.05 1147.65 712.5 1161.7 703.55 1183.35 689.65 1200.1 670.05 L1200.55 669.5 Q1242.3 612.95 1253.3 442.15 1262.35 400.95 1284.5 380.65 M934.6 697.8 Q905.3 720.4 848.05 755.1 L907.9 721.55 907.25 721.4 915.35 716.85 M865.15 635.8 L840.75 675.55 Q857.55 579.15 750.5 527.75 M1073.7 800.35 L1056.3 800.1 Q982.3 797.1 844.5 756.2 845.95 753.65 848.05 755.1 M1048.1 615.5 Q1042.0 621.9 1034.9 623.2 L1034.85 622.65 M806.05 478.4 L819.1 466.7 M1056.3 491.2 L1056.35 491.25 1056.45 491.35 M1056.3 491.2 Q1048.75 486.2 1038.15 484.05 M1022.9 525.05 L1023.85 525.8 M1046.6 556.1 L1036.75 556.8 1034.55 556.7 Q1024.05 553.8 1020.35 547.55 1015.3 537.55 1016.7 531.75 1017.8 527.1 1022.9 525.05 M1026.95 596.9 Q1026.65 578.55 1015.05 580.2 L1015.8 581.0 M1064.9 734.6 L1065.1 733.0 M1203.6 765.3 Q1188.9 776.75 1172.15 784.4 1123.2 799.7 1073.7 800.35 M546.25 347.5 L546.1 347.45 546.1 347.6 546.25 347.5 Q566.25 330.5 606.4 332.9 M546.1 347.6 Q537.15 348.35 543.65 347.85 506.2 382.75 516.55 419.65 L515.05 420.25 Q518.05 446.6 535.05 458.4 L534.75 460.4 M546.2 345.65 L546.1 347.45 M612.65 310.25 Q613.45 308.85 614.4 307.4 634.9 289.45 667.9 301.6 M612.65 310.25 L610.95 309.75 M708.75 476.95 Q679.2 403.1 627.25 373.7 575.25 344.3 546.25 347.5 M542.05 411.0 L542.2 409.9 M515.05 420.25 L514.75 417.75 Q514.0 416.7 514.65 416.4 L514.75 417.75 516.55 419.65 M515.05 420.25 Q463.95 440.85 436.25 481.15 L434.2 479.75 M464.2 687.95 Q448.35 689.45 433.75 686.6 L429.95 685.8 430.4 685.3 431.1 684.6 413.45 674.5 413.4 674.55 409.9 678.75 Q355.4 743.8 359.2 736.35 326.0 771.9 289.2 802.85 298.65 802.9 307.8 803.35 331.05 804.5 352.0 808.3 L355.05 806.5 M464.2 687.95 Q511.15 683.5 568.25 640.75 M571.6 638.2 L581.15 630.7 587.15 625.75 M431.1 684.6 L433.75 686.6 M413.45 674.5 L416.2 671.2 Q477.3 598.05 558.6 604.6 571.0 594.15 583.4 584.0 M574.75 611.35 L573.0 610.9 M595.75 643.2 L596.0 643.85 584.45 687.9 Q573.0 731.1 472.95 776.7 415.95 802.65 388.2 817.5 367.2 828.7 362.95 833.55 304.1 873.5 261.3 909.55 201.55 959.85 173.15 1002.55 173.55 1002.25 173.3 1002.7 L173.4 1002.8 Q175.5 1005.5 177.0 1017.05 L176.75 1018.15 Q168.7 1051.0 140.55 1046.65 L140.0 1046.55 140.2 1046.05 139.95 1045.9 139.6 1045.75 Q125.2 1037.95 113.35 1029.8 L1.7 1070.85 0.0 1072.05 M559.8 604.3 L558.9 604.55 558.6 604.6 M376.6 813.95 L388.2 817.5 M546.1 347.6 Q518.65 379.3 542.05 411.0 M376.6 813.95 Q364.75 810.6 352.0 808.3 M255.6 870.9 Q257.55 879.95 259.0 890.0 260.35 899.35 261.3 909.55 M255.6 870.9 Q253.65 862.0 251.25 854.05 248.55 845.05 245.25 837.2 267.85 820.8 289.2 802.85 M120.8 935.15 Q125.2 938.3 129.25 941.65 140.65 951.05 149.65 962.0 157.7 971.85 163.85 982.95 169.05 992.35 172.85 1002.65 L172.9 1002.75 173.0 1003.05 173.3 1002.7 M98.9 921.5 Q177.5 886.4 245.25 837.2 M104.7 985.55 Q97.3 977.5 87.05 971.75 80.6 968.1 73.05 965.4 L64.35 978.15 1.3 1070.6 0.85 1071.2 1.7 1070.85 M104.7 985.55 Q114.65 996.45 119.4 1011.45 121.55 1018.35 122.6 1026.1 L113.35 1029.8 M64.35 978.15 Q57.35 964.9 56.85 958.2 56.5 954.35 56.0 952.7 56.1 952.1 55.85 952.1 51.5 917.75 87.2 917.5 92.9 917.1 98.7 921.3 100.65 920.45 98.85 921.5 L98.9 921.5 Q110.65 927.8 120.8 935.15 M98.9 921.5 L98.55 921.65 98.7 921.4 98.6 921.35 98.7 921.3 98.7 921.4 98.85 921.5 98.55 921.65 M56.0 952.7 Q80.85 951.2 98.4 963.7 118.4 977.9 129.4 1002.55 137.35 1020.5 140.55 1044.0 L140.55 1044.85 140.55 1046.25 140.2 1046.05 140.55 1044.85 M140.55 1044.0 L139.6 1045.75" fill="none" stroke="#000000" stroke-linecap="round" stroke-linejoin="round" stroke-opacity="0.3019608" stroke-width="4.0"/>
    <path d="M688.9 493.85 L689.55 493.95 689.05 493.3 688.75 492.9 Q633.55 422.75 535.0 459.65 518.6 448.7 514.9 419.65 470.25 432.4 437.95 479.45 282.5 374.95 364.3 261.95 408.55 185.4 759.6 138.95 708.9 103.8 711.85 68.65 711.45 63.55 713.65 46.95 715.3 28.65 753.05 4.95 793.7 -11.85 834.3 13.75 760.55 15.6 793.3 53.35 858.8 81.7 926.8 81.5 947.35 168.9 1010.0 182.85 1029.55 186.85 1038.55 182.85 1062.1 164.6 1045.15 130.15 1079.85 147.4 1083.1 180.35 1121.05 114.05 1219.65 77.6 1176.6 154.65 1108.85 196.45 1151.6 175.65 1185.7 198.25 1116.2 212.7 1134.45 243.5 1209.15 276.5 1359.45 274.3 1389.25 362.0 1444.1 387.85 1486.15 399.2 1490.8 355.85 1516.85 385.9 1507.85 432.1 1505.75 443.1 1500.2 451.75 1487.6 471.3 1472.1 478.4 1400.05 511.6 1309.0 456.95 1298.15 726.0 1173.85 782.7 1116.1 804.4 1050.0 800.7 983.9 797.0 846.2 754.5 881.25 739.1 936.9 698.2 861.7 699.4 840.0 672.1 855.7 574.6 752.2 526.05 694.1 570.45 597.45 641.5 L597.7 642.15 586.15 686.2 Q574.7 729.4 474.65 775.0 374.55 820.6 364.65 831.85 223.6 927.6 174.85 1000.85 175.25 1000.55 175.0 1001.0 L175.1 1001.1 Q177.2 1003.8 178.7 1015.35 L178.45 1016.45 Q170.4 1049.3 142.25 1044.95 L141.7 1044.85 141.9 1044.35 141.65 1044.2 141.3 1044.05 Q126.9 1036.25 115.05 1028.1 L3.4 1069.15 1.7 1070.35 M3.4 1069.15 L2.55 1069.5 66.1 976.55 Q59.05 963.2 58.55 956.5 58.2 952.65 57.7 951.0 57.8 950.4 57.55 950.4 53.2 916.05 88.9 915.8 94.6 915.4 100.4 919.6 102.35 918.75 100.55 919.8 L100.6 919.8 Q250.55 852.85 362.35 732.9 357.1 742.1 411.6 677.05 L417.9 669.5 Q479.0 596.35 560.3 602.9 572.7 592.45 585.1 582.3 L624.0 549.75 Q638.6 537.75 688.65 494.75 L688.15 494.05 M563.6 602.1 L561.5 602.6 560.6 602.85 560.3 602.9 M585.1 582.3 L562.95 601.35 561.5 602.6 M100.6 919.8 L100.25 919.95 100.4 919.7 100.3 919.65 100.4 919.6 100.4 919.7 100.55 919.8 100.25 919.95 M141.9 1044.35 L142.25 1044.55 142.25 1043.15 141.9 1044.35 M142.25 1042.3 L142.25 1043.15 M174.7 1001.35 L175.0 1001.0" fill="none" stroke="#000000" stroke-linecap="round" stroke-linejoin="round" stroke-opacity="0.3019608" stroke-width="4.0"/>
  </g>
  <defs>
    <linearGradient gradientTransform="matrix(0.0972, 0.0, 0.0, 0.0538, 608.85, 450.5)" gradientUnits="userSpaceOnUse" id="gradient0" spreadMethod="pad" x1="-819.2" x2="819.2">
      <stop offset="0.0" stop-color="#171f36"/>
      <stop offset="1.0" stop-color="#4561a0"/>
    </linearGradient>
    <linearGradient gradientTransform="matrix(0.073, 0.0, 0.0, 0.0815, 486.25, 414.35)" gradientUnits="userSpaceOnUse" id="gradient1" spreadMethod="pad" x1="-819.2" x2="819.2">
      <stop offset="0.0" stop-color="#0c121c"/>
      <stop offset="1.0" stop-color="#283c57"/>
    </linearGradient>
    <linearGradient gradientTransform="matrix(0.0713, 0.0, 0.0, 0.0866, 808.9, 598.45)" gradientUnits="userSpaceOnUse" id="gradient2" spreadMethod="pad" x1="-819.2" x2="819.2">
      <stop offset="0.0" stop-color="#0c121c"/>
      <stop offset="1.0" stop-color="#283c57"/>
    </linearGradient>
    <linearGradient gradientTransform="matrix(0.2992, 0.0, 0.0, 0.2631, 579.45, 264.2)" gradientUnits="userSpaceOnUse" id="gradient3" spreadMethod="pad" x1="-819.2" x2="819.2">
      <stop offset="0.0" stop-color="#6795f0"/>
      <stop offset="1.0" stop-color="#283c57"/>
    </linearGradient>
    <linearGradient gradientTransform="matrix(0.3992, 0.0, 0.0, 0.2654, 1171.5, 582.95)" gradientUnits="userSpaceOnUse" id="gradient4" spreadMethod="pad" x1="-819.2" x2="819.2">
      <stop offset="0.0" stop-color="#6795f0"/>
      <stop offset="1.0" stop-color="#1e2c42"/>
    </linearGradient>
    <linearGradient gradientTransform="matrix(0.148, -0.2717, 0.5581, 0.3039, 973.65, 329.05)" gradientUnits="userSpaceOnUse" id="gradient5" spreadMethod="pad" x1="-819.2" x2="819.2">
      <stop offset="0.0" stop-color="#a1bfff"/>
      <stop offset="0.5058823529411764" stop-color="#73a5ff"/>
      <stop offset="0.9882352941176471" stop-color="#b7c6eb"/>
    </linearGradient>
    <linearGradient gradientTransform="matrix(0.148, -0.2717, 0.5581, 0.3039, 973.65, 329.05)" gradientUnits="userSpaceOnUse" id="gradient6" spreadMethod="pad" x1="-819.2" x2="819.2">
      <stop offset="0.00784313725490196" stop-color="#859cd4"/>
      <stop offset="0.5058823529411764" stop-color="#3f588c"/>
      <stop offset="0.9882352941176471" stop-color="#b7c6eb"/>
    </linearGradient>
    <linearGradient gradientTransform="matrix(0.148, -0.2717, 0.5581, 0.3039, 684.05, 181.25)" gradientUnits="userSpaceOnUse" id="gradient7" spreadMethod="pad" x1="-819.2" x2="819.2">
      <stop offset="0.00784313725490196" stop-color="#859cd4"/>
      <stop offset="0.5058823529411764" stop-color="#3f588c"/>
      <stop offset="0.9882352941176471" stop-color="#b7c6eb"/>
    </linearGradient>
    <linearGradient gradientTransform="matrix(0.3992, 0.0, 0.0, 0.2654, 1171.5, 582.95)" gradientUnits="userSpaceOnUse" id="gradient8" spreadMethod="pad" x1="-819.2" x2="819.2">
      <stop offset="0.0" stop-color="#6e9bff"/>
      <stop offset="1.0" stop-color="#3f5a8c"/>
    </linearGradient>
    <linearGradient gradientTransform="matrix(0.2992, 0.0, 0.0, 0.2631, 579.45, 264.2)" gradientUnits="userSpaceOnUse" id="gradient9" spreadMethod="pad" x1="-819.2" x2="819.2">
      <stop offset="0.0" stop-color="#9ebdff"/>
      <stop offset="1.0" stop-color="#436294"/>
    </linearGradient>
    <linearGradient gradientTransform="matrix(0.2992, 0.0, 0.0, 0.2631, 579.45, 264.2)" gradientUnits="userSpaceOnUse" id="gradient10" spreadMethod="pad" x1="-819.2" x2="819.2">
      <stop offset="0.0" stop-color="#a8c3ff"/>
      <stop offset="1.0" stop-color="#4f73ad"/>
    </linearGradient>
    <linearGradient gradientTransform="matrix(0.3992, 0.0, 0.0, 0.2654, 1171.5, 582.95)" gradientUnits="userSpaceOnUse" id="gradient11" spreadMethod="pad" x1="-819.2" x2="819.2">
      <stop offset="0.0" stop-color="#6795f0"/>
      <stop offset="1.0" stop-color="#5073b3"/>
    </linearGradient>
  </defs>
</svg>
