<?xml version="1.0" encoding="UTF-8" standalone="no"?>
<svg xmlns:xlink="http://www.w3.org/1999/xlink" height="964.9px" width="1078.45px" xmlns="http://www.w3.org/2000/svg">
  <g transform="matrix(1.0, 0.0, 0.0, 1.0, 2.0, 4.4)">
    <path d="M309.65 699.8 L310.35 700.35 305.45 706.55 Q304.7 710.95 298.3 713.45 L309.65 699.8" fill="#968454" fill-rule="evenodd" stroke="none"/>
    <path d="M214.95 719.95 L215.45 719.75 215.7 720.55 214.95 719.95" fill="#4d432b" fill-rule="evenodd" stroke="none"/>
    <path d="M471.95 501.7 L472.25 501.95 471.7 502.0 471.95 501.7" fill="#635d4f" fill-rule="evenodd" stroke="none"/>
    <path d="M714.3 228.9 L674.05 265.4 650.0 302.9 692.9 312.9 727.25 310.65 814.95 319.3 901.45 351.4 932.35 348.95 962.85 334.9 974.95 344.45 953.9 351.25 966.75 362.9 957.35 370.65 949.65 360.05 906.4 360.05 812.5 334.1 747.0 327.95 729.05 348.65 759.8 378.6 726.45 359.0 720.6 353.85 652.1 356.05 608.15 347.75 604.9 347.7 608.15 347.75 578.95 391.7 550.65 412.1 582.05 450.8 615.85 445.05 610.15 449.0 620.05 454.85 596.7 457.65 640.3 479.15 698.85 494.75 722.3 515.75 754.45 524.4 781.0 523.55 781.75 533.05 764.35 533.05 777.4 546.1 769.0 552.5 768.95 552.5 748.25 533.05 703.8 527.05 687.7 519.4 669.2 526.85 680.3 549.1 719.85 560.2 724.5 572.55 712.45 579.15 705.0 565.15 676.6 561.45 645.7 526.85 641.35 524.2 640.7 523.8 630.3 502.4 649.85 526.8 678.8 555.8 659.6 522.45 681.2 509.5 710.95 520.7 697.4 502.0 642.05 498.25 607.25 476.55 602.7 484.0 602.6 474.3 582.55 459.95 557.1 464.15 572.3 458.55 551.0 442.25 563.35 456.85 543.45 444.55 530.65 423.4 528.05 424.45 500.3 447.95 498.55 449.1 496.4 451.95 497.5 451.9 496.05 458.6 509.95 459.6 518.95 468.55 555.25 479.15 482.7 478.4 474.4 490.4 468.65 492.05 454.05 520.1 444.6 523.85 417.15 541.9 427.45 541.3 363.3 603.45 338.0 646.45 322.6 684.85 310.35 700.35 309.65 699.8 298.3 713.45 297.3 713.85 292.65 715.1 297.45 714.5 233.75 795.85 233.5 796.05 233.5 796.15 232.55 812.25 205.9 830.9 216.35 775.3 229.25 759.05 220.2 781.35 215.0 809.4 239.75 771.4 285.85 702.75 324.8 653.25 257.7 706.8 238.4 728.3 219.3 748.95 239.3 720.4 180.0 766.75 144.85 806.35 108.1 826.15 106.75 816.25 93.05 854.3 77.1 869.5 69.95 882.1 72.35 865.4 97.05 812.15 138.95 786.85 178.2 754.9 179.3 753.85 194.35 746.2 203.95 729.65 261.5 677.75 249.2 686.6 260.75 675.6 296.3 637.4 253.0 711.95 306.8 643.85 360.4 597.05 381.1 570.5 360.75 583.0 336.25 589.65 352.85 577.55 381.55 565.45 405.1 530.2 422.35 499.35 464.1 471.8 465.65 469.35 475.5 457.3 486.5 453.85 479.95 451.95 467.15 440.45 488.05 448.9 489.55 448.65 491.0 447.75 491.05 441.05 491.25 439.9 497.05 438.25 491.1 435.35 491.1 430.15 518.65 411.3 512.35 389.45 485.85 391.4 509.95 382.7 532.2 360.8 534.2 392.15 544.15 355.25 538.0 405.8 550.55 384.3 551.5 382.6 569.6 343.9 572.05 338.6 585.25 342.6 572.75 379.15 614.0 333.95 651.3 347.2 697.15 338.55 721.1 341.45 744.35 322.3 815.95 324.35 734.95 316.6 653.5 317.15 710.3 323.1 708.2 330.95 639.5 325.75 642.2 305.15 628.6 309.1 611.2 324.4 600.6 311.05 603.95 302.55 664.7 251.95 595.3 294.9 576.2 304.3 590.0 290.0 674.9 237.2 684.9 222.25 693.55 217.35 720.5 184.0 716.1 175.5 718.65 171.7 736.05 203.55 712.8 227.6 714.3 228.9 M655.45 438.25 L655.8 438.2 655.55 438.25 655.45 438.25 M230.55 799.9 L233.5 796.15 230.55 799.9 M950.9 360.05 L949.65 360.05 950.9 360.05 M761.85 530.55 L764.35 533.05 761.85 533.05 764.35 533.05 761.85 530.55 M214.95 719.95 L215.7 720.55 215.45 719.75 214.95 719.95 M433.9 517.8 L434.35 517.55 434.3 517.5 433.9 517.8" fill="#663300" fill-rule="evenodd" stroke="none"/>
    <path d="M640.7 523.8 L613.6 507.1 575.3 485.75 542.95 484.0 493.0 488.3 471.95 501.7 471.7 502.0 472.25 501.95 457.5 526.35 433.25 544.75 373.55 605.1 322.6 684.85 338.0 646.45 363.3 603.45 427.45 541.3 417.15 541.9 444.6 523.85 454.05 520.1 468.65 492.05 474.4 490.4 482.7 478.4 555.25 479.15 518.95 468.55 509.95 459.6 496.05 458.6 497.5 451.9 519.55 451.05 542.7 471.7 600.4 489.7 613.6 499.2 601.45 486.75 551.7 466.1 529.1 446.8 511.25 443.75 528.1 429.6 500.3 447.95 528.05 424.45 530.65 423.4 543.45 444.55 563.35 456.85 551.0 442.25 572.3 458.55 557.1 464.15 582.55 459.95 602.6 474.3 602.7 484.0 607.25 476.55 642.05 498.25 697.4 502.0 710.95 520.7 681.2 509.5 659.6 522.45 678.8 555.8 649.85 526.8 630.3 502.4 640.7 523.8 M625.55 210.25 L634.45 195.75 657.8 180.0 657.3 180.6 673.15 163.55 683.85 165.5 717.95 170.45 718.65 171.7 716.1 175.5 715.0 173.4 680.9 173.75 677.15 198.5 687.0 189.6 695.85 189.6 673.05 228.9 684.9 222.25 674.9 237.2 590.0 290.0 576.2 304.3 595.3 294.9 565.2 312.7 582.7 281.1 667.4 236.45 676.55 169.8 641.1 199.45 614.9 240.0 653.0 223.95 627.25 240.45 593.5 258.3 628.55 213.65 576.9 268.2 549.95 301.35 549.6 304.25 551.2 267.3 541.85 253.7 498.75 219.05 436.25 216.05 498.2 225.55 532.95 254.15 528.75 289.7 543.0 316.4 513.55 353.15 482.2 378.95 444.95 364.75 449.85 373.75 440.3 382.35 382.0 351.25 364.65 320.85 316.25 293.9 353.7 322.5 373.15 355.15 413.45 376.9 426.75 397.05 432.45 392.4 439.75 402.65 436.55 416.55 439.2 424.45 422.15 452.1 394.2 471.85 377.35 514.55 403.85 490.85 449.6 466.6 438.7 460.4 438.95 429.95 448.0 455.55 465.65 460.4 475.5 457.3 465.65 469.35 464.1 471.8 422.35 499.35 405.1 530.2 381.55 565.45 352.85 577.55 336.25 589.65 333.3 590.45 334.1 578.2 384.1 549.45 413.05 501.75 378.4 542.2 347.15 561.6 369.1 537.4 366.9 538.0 365.1 539.35 329.35 548.1 317.45 551.15 316.05 551.1 337.55 537.65 377.8 500.5 392.05 473.15 396.1 468.4 413.4 448.75 421.65 429.95 412.2 389.7 375.1 363.75 343.65 365.9 337.15 358.8 364.0 355.1 340.55 319.25 301.05 287.65 269.95 280.65 278.1 267.7 299.75 278.5 300.8 260.05 312.95 260.55 317.35 280.7 323.9 284.55 370.5 317.25 388.8 345.95 430.75 369.9 435.35 361.1 437.85 361.2 435.4 361.05 438.8 352.75 426.05 324.1 444.65 342.6 453.7 361.15 475.15 360.5 476.5 358.75 482.3 358.15 531.6 314.8 523.4 292.1 523.4 255.0 483.9 228.95 435.8 223.1 387.5 194.45 373.1 178.85 357.1 174.7 356.45 168.5 377.8 168.5 378.8 161.35 386.2 164.2 383.75 174.7 397.35 189.5 438.9 209.95 501.75 212.85 550.4 249.25 564.7 272.6 558.8 283.55 583.7 248.65 625.55 210.25 M603.95 302.55 L600.6 311.05 611.2 324.4 628.6 309.1 642.2 305.15 639.5 325.75 708.2 330.95 710.3 323.1 653.5 317.15 734.95 316.6 815.95 324.35 744.35 322.3 721.1 341.45 697.15 338.55 651.3 347.2 614.0 333.95 572.75 379.15 585.25 342.6 572.05 338.6 569.6 343.9 567.15 333.2 603.95 302.55 M550.55 384.3 L538.0 405.8 544.15 355.25 534.2 392.15 532.2 360.8 509.95 382.7 485.85 391.4 512.35 389.45 518.65 411.3 491.1 430.15 491.1 435.35 485.8 432.8 508.95 413.05 505.95 395.25 477.7 400.0 449.75 412.95 502.55 378.75 535.0 344.7 538.4 367.7 554.1 331.65 542.9 392.4 550.55 384.3 M491.05 441.05 L491.0 447.75 489.55 448.65 491.05 441.05 M467.15 440.45 L479.95 451.95 465.35 447.65 448.15 424.0 474.75 407.7 498.8 407.25 474.2 412.85 455.8 426.2 475.7 441.8 467.15 440.45 M296.3 637.4 L260.75 675.6 249.2 686.6 218.5 708.65 284.35 639.8 182.95 706.9 142.85 747.65 116.45 773.75 94.4 787.1 62.55 836.7 34.55 918.9 97.35 797.3 131.1 778.25 179.3 753.85 178.2 754.9 138.95 786.85 97.05 812.15 72.35 865.4 69.95 882.1 40.35 934.7 0.4 958.5 0.0 957.85 25.75 923.55 25.75 922.65 43.1 856.3 92.55 778.1 123.15 761.5 184.65 700.1 210.1 684.15 227.1 658.7 250.65 636.9 260.0 618.25 271.3 617.55 257.5 637.4 245.05 648.4 255.8 646.75 280.05 615.0 281.5 613.1 295.95 610.85 296.85 605.65 330.1 569.75 313.35 599.65 329.05 597.8 304.1 636.35 296.3 637.4 M483.6 358.15 L482.3 358.15 483.6 358.15 M387.5 345.2 L388.8 345.95 387.5 345.2 M280.4 598.45 L295.05 582.35 315.0 551.75 315.95 551.2 315.75 551.6 300.4 583.3 275.75 612.3 270.35 603.75 281.1 599.1 280.4 598.45 M393.3 517.7 L366.9 538.0 393.3 517.7 M315.75 551.6 L315.0 551.75 315.75 551.6 M158.7 741.3 L157.95 741.55 161.65 738.05 158.7 741.3 M280.05 615.0 L285.0 613.55 281.5 613.1 285.0 613.55 280.05 615.0 M306.75 609.85 L264.35 652.6 210.1 684.15 264.35 652.6 306.75 609.85 M184.4 731.65 L167.2 738.1 Q176.1 731.85 184.4 731.65 M490.05 488.3 L493.0 488.3 490.05 488.3 M471.7 502.0 L470.95 502.05 471.7 502.0 M433.25 544.75 L434.95 542.35 433.25 544.75" fill="#964b00" fill-rule="evenodd" stroke="none"/>
    <path d="M716.1 175.5 L720.5 184.0 693.55 217.35 684.9 222.25 673.05 228.9 695.85 189.6 687.0 189.6 677.15 198.5 680.9 173.75 715.0 173.4 716.1 175.5 M595.3 294.9 L664.7 251.95 603.95 302.55 567.15 333.2 569.6 343.9 551.5 382.6 550.55 384.3 542.9 392.4 554.1 331.65 538.4 367.7 535.0 344.7 502.55 378.75 449.75 412.95 477.7 400.0 505.95 395.25 508.95 413.05 485.8 432.8 491.1 435.35 497.05 438.25 491.25 439.9 491.05 441.05 489.55 448.65 488.05 448.9 467.15 440.45 475.7 441.8 455.8 426.2 474.2 412.85 498.8 407.25 474.75 407.7 448.15 424.0 465.35 447.65 479.95 451.95 486.5 453.85 475.5 457.3 465.65 460.4 448.0 455.55 438.95 429.95 438.7 460.4 449.6 466.6 403.85 490.85 377.35 514.55 394.2 471.85 422.15 452.1 439.2 424.45 436.55 416.55 439.75 402.65 432.45 392.4 426.75 397.05 413.45 376.9 373.15 355.15 353.7 322.5 316.25 293.9 364.65 320.85 382.0 351.25 440.3 382.35 449.85 373.75 444.95 364.75 482.2 378.95 513.55 353.15 543.0 316.4 528.75 289.7 532.95 254.15 498.2 225.55 436.25 216.05 498.75 219.05 541.85 253.7 551.2 267.3 549.6 304.25 549.95 301.35 576.9 268.2 628.55 213.65 593.5 258.3 627.25 240.45 653.0 223.95 614.9 240.0 641.1 199.45 676.55 169.8 667.4 236.45 582.7 281.1 565.2 312.7 595.3 294.9 M336.25 589.65 L360.75 583.0 381.1 570.5 360.4 597.05 306.8 643.85 253.0 711.95 296.3 637.4 304.1 636.35 329.05 597.8 313.35 599.65 330.1 569.75 296.85 605.65 295.95 610.85 281.5 613.1 275.75 612.3 300.4 583.3 315.75 551.6 315.95 551.2 315.95 551.1 316.05 551.1 317.45 551.15 329.35 548.1 365.1 539.35 366.9 538.0 369.1 537.4 347.15 561.6 378.4 542.2 413.05 501.75 384.1 549.45 334.1 578.2 333.3 590.45 336.25 589.65 M249.2 686.6 L261.5 677.75 203.95 729.65 194.35 746.2 179.3 753.85 131.1 778.25 97.35 797.3 34.55 918.9 62.55 836.7 94.4 787.1 116.45 773.75 142.85 747.65 182.95 706.9 284.35 639.8 218.5 708.65 249.2 686.6 M219.3 748.95 L238.4 728.3 Q253.0 718.95 281.1 689.9 L246.3 730.9 229.25 759.05 216.35 775.3 205.9 830.9 176.3 822.6 Q180.65 810.75 186.6 798.85 190.25 791.45 194.6 784.05 203.5 768.75 215.1 753.4 L219.3 748.95 M316.05 551.1 L315.95 551.2 316.05 551.1 M317.45 551.15 L315.75 551.6 317.45 551.15 M158.7 741.3 L161.65 738.05 157.95 741.55 158.7 741.3 M271.3 617.55 L280.05 615.0 255.8 646.75 245.05 648.4 257.5 637.4 271.3 617.55 M184.4 731.65 Q176.1 731.85 167.2 738.1 L184.4 731.65 M497.5 451.9 L496.4 451.95 498.55 449.1 500.3 447.95 528.1 429.6 511.25 443.75 529.1 446.8 551.7 466.1 601.45 486.75 613.6 499.2 600.4 489.7 542.7 471.7 519.55 451.05 497.5 451.9" fill="#b36313" fill-rule="evenodd" stroke="none"/>
    <path d="M93.05 854.3 L106.75 816.25 108.1 826.15 144.85 806.35 180.0 766.75 239.3 720.4 219.3 748.95 215.1 753.4 Q203.5 768.75 194.6 784.05 190.25 791.45 186.6 798.85 L172.25 806.95 167.5 820.25 167.45 820.25 166.15 819.9 120.9 827.6 93.05 854.3 M238.4 728.3 L257.7 706.8 324.8 653.25 285.85 702.75 239.75 771.4 215.0 809.4 220.2 781.35 229.25 759.05 246.3 730.9 281.1 689.9 Q253.0 718.95 238.4 728.3" fill="#4d2600" fill-rule="evenodd" stroke="none"/>
    <path d="M1028.5 221.25 L1038.2 243.95 1033.95 257.2 1020.3 253.3 1016.6 242.7 1002.65 239.35 993.5 227.15 1003.8 218.85 1015.0 217.4 1028.5 221.25 M534.85 5.7 L531.85 12.7 546.2 8.8 556.7 11.7 567.7 29.55 559.1 31.3 499.7 21.35 508.65 18.95 506.95 19.3 497.0 9.75 514.25 0.0 534.85 5.7 M497.55 27.15 L492.05 39.05 480.05 51.75 465.5 54.95 453.6 47.45 456.55 32.45 492.0 12.55 498.05 26.0 497.8 26.6 497.55 27.15 M340.55 130.1 L336.8 128.45 337.6 128.5 340.55 130.1" fill="#ab6f34" fill-rule="evenodd" stroke="none"/>
    <path d="M299.25 204.25 L299.35 206.15 298.5 204.95 299.25 204.25" fill="#73502e" fill-rule="evenodd" stroke="none"/>
    <path d="M497.85 26.6 L497.55 27.15 497.8 26.6 497.85 26.6 M477.45 62.85 L479.35 61.7 477.4 66.75 477.45 62.85 M484.0 89.05 L482.0 88.15 484.75 87.1 484.0 89.05 M330.9 120.3 L328.05 123.4 322.8 120.6 330.9 120.3" fill="#826344" fill-rule="evenodd" stroke="none"/>
    <path d="M1028.5 221.25 L1015.0 217.4 1003.8 218.85 993.5 227.15 1002.65 239.35 1016.6 242.7 1020.3 253.3 1033.95 257.2 1038.2 243.95 1028.5 221.25 M1029.7 210.85 L1041.8 244.25 1037.3 278.2 1042.95 282.4 1041.85 282.3 1040.15 282.1 1039.1 282.0 1019.45 279.95 940.6 300.05 844.7 299.6 946.3 307.3 1013.8 287.7 1030.3 289.35 1037.65 305.25 1038.75 317.85 1029.6 317.8 1023.8 335.15 1022.35 335.75 1005.9 342.35 1006.7 361.15 1014.8 360.85 1009.25 364.1 1005.85 366.05 999.7 379.5 1004.25 402.75 1008.2 399.1 1004.55 402.9 1003.1 404.4 956.0 400.15 922.0 404.75 863.1 384.8 796.4 382.6 862.5 387.5 922.7 413.3 962.55 408.75 1007.8 418.4 1006.7 418.9 1007.95 418.95 1010.7 419.0 1010.45 419.3 1000.75 430.05 991.75 426.25 969.85 437.65 966.15 461.65 965.0 462.95 956.7 471.9 956.85 501.6 954.25 523.45 903.3 515.25 902.7 516.45 895.4 530.05 936.0 556.2 892.8 554.05 904.5 572.3 888.5 571.2 881.25 577.9 880.8 577.5 880.65 577.4 880.6 577.35 835.45 540.65 809.1 486.05 674.35 435.85 809.35 497.55 829.35 549.1 874.85 586.2 873.55 593.5 871.95 596.85 873.3 595.05 854.35 627.1 855.75 644.2 854.85 644.05 821.0 638.5 789.7 659.05 780.8 676.15 780.0 675.85 754.9 665.9 754.65 666.05 716.5 684.15 703.8 703.55 700.7 686.4 679.2 681.35 687.65 630.5 663.85 570.45 682.25 634.25 672.7 678.45 672.3 678.6 671.6 678.8 640.55 687.45 653.3 642.9 632.2 565.9 556.4 505.15 495.25 496.75 479.6 505.45 472.25 501.95 471.95 501.7 493.0 488.3 542.95 484.0 575.3 485.75 613.6 507.1 640.7 523.8 641.35 524.2 645.7 526.85 676.6 561.45 705.0 565.15 712.45 579.15 724.5 572.55 719.85 560.2 680.3 549.1 669.2 526.85 687.7 519.4 703.8 527.05 748.25 533.05 768.95 552.5 769.0 552.5 777.4 546.1 764.35 533.05 781.75 533.05 781.0 523.55 754.45 524.4 722.3 515.75 698.85 494.75 640.3 479.15 596.7 457.65 620.05 454.85 647.85 466.2 704.65 476.6 715.3 490.25 759.05 496.6 698.9 455.05 655.55 438.25 655.8 438.2 655.45 438.25 641.05 432.65 662.6 422.2 746.65 452.65 738.8 415.8 717.35 398.25 757.4 379.0 759.8 378.6 729.05 348.65 747.0 327.95 812.5 334.1 906.4 360.05 949.65 360.05 957.35 370.65 966.75 362.9 953.9 351.25 974.95 344.45 962.85 334.9 932.35 348.95 901.45 351.4 814.95 319.3 727.25 310.65 692.9 312.9 650.0 302.9 674.05 265.4 714.3 228.9 754.45 263.55 859.65 274.6 910.0 263.7 925.55 278.05 931.05 258.9 962.3 245.35 985.05 204.15 1029.7 210.85 M1012.8 292.2 L1012.65 291.7 959.7 307.6 917.2 322.95 967.1 321.55 1002.55 331.15 1014.6 314.3 1012.8 292.2 M982.95 245.05 L970.4 245.05 962.55 254.65 935.75 262.55 928.1 291.75 1013.65 273.9 982.95 245.05 M710.7 245.85 L678.05 273.55 665.25 298.05 688.9 303.2 726.75 301.25 804.9 311.55 848.95 282.55 743.0 271.6 710.7 245.85 M798.45 388.25 L737.45 403.35 838.55 456.65 840.15 457.85 897.0 459.65 898.9 450.25 900.15 432.55 858.3 392.1 798.45 388.25 M905.05 460.6 L953.4 467.85 957.65 454.6 965.05 435.3 863.35 391.0 905.05 432.6 903.45 459.4 905.05 460.6 M909.55 486.4 L884.95 491.2 900.05 508.0 936.35 512.55 950.0 516.45 954.25 503.2 952.05 473.1 920.9 466.9 920.55 467.6 909.55 486.4 M826.6 560.5 L823.25 549.65 805.8 536.45 785.35 571.7 805.55 602.6 787.9 594.4 769.15 611.45 769.2 612.05 794.2 641.0 817.4 630.95 848.55 634.7 838.0 613.95 853.25 615.8 867.2 586.85 826.6 560.5 M874.95 586.25 L876.45 587.5 875.95 588.5 874.95 586.25 M655.55 438.25 L654.9 438.3 655.45 438.25 655.55 438.25 M784.0 661.25 L759.3 634.3 721.45 596.85 681.3 606.75 697.4 630.15 683.3 675.9 714.45 676.85 752.15 655.8 784.0 661.25 M567.7 29.55 L584.15 56.3 556.9 71.0 555.75 86.1 540.45 82.3 550.95 99.4 543.0 157.5 558.4 161.85 574.0 176.1 574.75 196.95 625.55 210.25 583.7 248.65 558.8 283.55 564.7 272.6 550.4 249.25 501.75 212.85 438.9 209.95 397.35 189.5 383.75 174.7 386.2 164.2 378.8 161.35 377.8 168.5 356.45 168.5 357.1 174.7 373.1 178.85 387.5 194.45 435.8 223.1 483.9 228.95 523.4 255.0 523.4 292.1 531.6 314.8 482.3 358.15 476.5 358.75 512.8 311.95 510.5 256.5 495.8 254.95 465.8 274.25 411.45 250.3 405.45 261.9 435.25 296.6 466.35 318.15 458.55 335.9 440.95 318.95 386.3 313.2 395.3 344.35 435.35 361.1 430.75 369.9 388.8 345.95 370.5 317.25 323.9 284.55 317.35 280.7 312.95 260.55 300.8 260.05 299.75 278.5 278.1 267.7 269.95 280.65 301.05 287.65 340.55 319.25 364.0 355.1 337.15 358.8 343.65 365.9 375.1 363.75 412.2 389.7 421.65 429.95 413.4 448.75 411.85 437.5 393.3 417.95 396.25 407.75 379.9 404.85 369.0 390.8 339.7 386.3 331.5 393.8 330.2 383.2 311.8 364.7 304.05 363.75 303.35 355.25 273.65 349.75 267.95 356.95 266.0 348.9 216.15 360.75 216.6 371.35 207.85 363.75 176.45 388.7 176.8 400.25 176.75 400.25 152.7 436.25 147.45 424.5 164.3 402.4 170.3 389.7 163.9 370.05 155.85 363.1 143.25 358.3 160.3 358.7 255.85 330.95 250.45 330.75 255.45 330.0 309.0 343.65 300.75 309.7 245.2 304.2 235.6 290.15 220.25 284.55 219.7 284.6 243.2 257.15 255.3 265.85 295.7 236.65 253.35 204.15 208.65 192.9 208.6 192.9 212.05 189.6 212.1 189.6 Q213.05 189.2 214.05 188.85 L251.9 195.45 300.65 217.7 301.25 223.75 407.05 233.9 379.35 197.85 289.55 176.6 293.0 175.0 296.1 165.8 278.05 157.0 290.05 156.3 305.25 173.15 352.15 186.2 310.05 129.45 311.25 117.1 327.3 124.25 328.05 123.4 330.9 120.3 331.95 120.25 336.35 114.3 329.35 93.05 352.2 96.6 366.15 90.75 384.85 79.9 399.9 97.3 381.65 89.3 360.15 99.05 363.2 114.55 383.5 117.45 386.95 125.2 435.25 159.75 476.55 130.95 450.4 119.5 471.0 120.7 456.3 109.0 482.0 88.15 484.0 89.05 481.8 94.5 496.75 96.6 499.55 87.1 504.25 89.3 477.35 71.2 477.4 66.75 479.35 61.7 477.45 62.85 477.5 59.9 458.2 56.75 453.55 57.05 452.8 50.2 453.05 50.15 453.6 47.45 465.5 54.95 480.05 51.75 492.05 39.05 497.55 27.15 497.85 26.6 498.05 26.0 492.0 12.55 497.0 9.75 506.95 19.3 508.65 18.95 499.7 21.35 559.1 31.3 567.7 29.55 M546.2 8.8 L531.85 12.7 534.85 5.7 546.2 8.8 M551.55 168.45 L524.55 161.95 536.8 99.45 522.25 109.7 486.2 181.3 519.7 204.55 517.3 214.2 554.8 239.95 565.35 258.05 578.6 239.35 604.55 213.65 562.8 203.25 563.9 178.1 551.55 168.45 M272.75 133.65 L278.85 149.2 268.55 146.5 272.75 133.65 M402.1 60.25 L402.05 59.55 403.0 60.2 402.1 60.25 M340.55 130.1 L337.6 128.5 336.8 128.45 340.55 130.1 M330.9 255.15 L371.95 300.55 433.6 309.65 408.9 282.7 371.05 245.25 330.9 255.15 M608.15 347.75 L652.1 356.05 614.85 356.6 591.6 394.2 594.05 405.45 571.45 413.2 596.35 443.05 621.7 441.0 615.85 445.05 582.05 450.8 550.65 412.1 578.95 391.7 608.15 347.75 M165.5 255.9 L160.65 245.9 166.45 247.3 173.05 250.2 178.8 254.65 171.55 255.05 165.5 255.9 M163.85 307.7 L150.65 296.2 164.85 293.35 166.85 308.95 163.85 307.7 M298.5 204.95 L299.35 206.15 299.25 204.25 300.55 216.9 283.3 208.0 292.1 210.6 292.15 210.75 295.75 209.4 293.8 209.15 293.75 209.15 298.5 204.95 M202.5 227.85 L208.0 231.8 195.65 230.8 202.5 227.85 M178.7 284.95 L182.95 285.8 178.9 285.9 178.7 284.95 M175.0 309.95 L171.5 309.4 174.4 307.5 175.0 309.95 M165.6 327.3 L161.15 320.75 178.1 320.25 Q171.0 324.3 167.45 327.4 L165.6 327.3 M164.1 362.2 L176.7 379.95 205.6 359.55 209.55 346.0 168.85 357.4 164.1 362.2" fill="#825328" fill-rule="evenodd" stroke="none"/>
    <path d="M453.05 50.15 L452.8 50.2 452.75 49.95 453.05 50.15 M498.05 26.0 L497.85 26.6 497.8 26.6 498.05 26.0 M293.8 209.15 L295.75 209.4 292.15 210.75 292.1 210.6 293.8 209.15" fill="#4f361f" fill-rule="evenodd" stroke="none"/>
    <path d="M672.3 678.6 L672.7 678.45 682.25 634.25 663.85 570.45 687.65 630.5 679.2 681.35 700.7 686.4 703.8 703.55 716.5 684.15 754.65 666.05 763.6 725.7 714.2 748.35 681.3 744.05 678.4 680.75 672.3 678.6 M874.85 586.2 L829.35 549.1 809.35 497.55 674.35 435.85 809.1 486.05 835.45 540.65 880.6 577.35 880.65 577.4 876.45 587.5 874.95 586.25 874.85 586.1 874.85 586.2 M880.8 577.5 L881.25 577.9 888.5 571.2 904.5 572.3 892.8 554.05 936.0 556.2 895.4 530.05 902.7 516.45 903.5 526.75 903.45 527.1 937.5 556.1 949.9 578.05 905.35 627.7 880.8 577.5 M1007.95 418.95 L1006.7 418.9 1007.8 418.4 962.55 408.75 922.7 413.3 862.5 387.5 796.4 382.6 863.1 384.8 922.0 404.75 956.0 400.15 1003.1 404.4 1007.8 418.4 1007.95 418.95 M1004.55 402.9 L1008.2 399.1 1004.25 402.75 999.7 379.5 1005.85 366.05 1009.25 364.1 1021.45 367.7 1019.55 367.95 1040.0 391.75 1041.4 392.5 1033.9 421.65 1004.55 402.9 M176.8 400.25 L176.45 388.7 207.85 363.75 216.6 371.35 216.15 360.75 266.0 348.9 267.95 356.95 273.65 349.75 303.35 355.25 304.05 363.75 311.8 364.7 330.2 383.2 331.5 393.8 339.7 386.3 369.0 390.8 379.9 404.85 396.25 407.75 393.3 417.95 411.85 437.5 413.4 448.75 396.1 468.4 386.05 440.55 354.3 404.5 335.6 405.5 307.25 385.5 295.95 371.9 222.2 377.95 176.8 400.25" fill="#57371a" fill-rule="evenodd" stroke="none"/>
    <path d="M671.6 678.8 L672.3 678.6 678.4 680.75 681.3 744.05 670.7 729.5 661.8 741.45 671.6 678.8 M754.65 666.05 L754.9 665.9 780.0 675.85 780.6 676.1 792.6 712.65 769.05 700.5 765.95 724.6 763.6 725.7 754.65 666.05" fill="#3d2512" fill-rule="evenodd" stroke="none"/>
    <path d="M854.85 644.05 L855.75 644.2 854.35 627.1 873.3 595.05 873.55 593.5 874.85 586.2 874.85 586.1 874.95 586.25 875.95 588.5 895.2 631.9 897.2 636.75 855.6 683.1 854.85 644.05 M1009.25 364.1 L1014.8 360.85 1006.7 361.15 1005.9 342.35 1022.35 335.75 1046.7 364.3 1046.65 364.5 1021.45 367.7 1009.25 364.1" fill="#452a14" fill-rule="evenodd" stroke="none"/>
    <path d="M873.3 595.05 L871.95 596.85 873.55 593.5 873.3 595.05 M880.65 577.4 L880.8 577.5 905.35 627.7 893.3 626.95 895.2 631.9 875.95 588.5 876.45 587.5 880.65 577.4 M902.7 516.45 L903.3 515.25 954.25 523.45 964.9 548.4 964.65 549.1 903.45 527.1 903.5 526.75 902.7 516.45 M1010.45 419.3 L1010.7 419.0 1007.95 418.95 1007.8 418.4 1003.1 404.4 1004.55 402.9 1033.9 421.65 1019.2 431.65 1027.35 447.05 1010.45 419.3 M1040.15 282.1 L1041.85 282.3 1061.5 311.45 1053.5 314.8 1058.8 321.15 1030.2 288.65 1039.5 282.05 1040.15 282.1" fill="#301c0e" fill-rule="evenodd" stroke="none"/>
    <path d="M965.0 462.95 L966.15 461.65 969.85 437.65 991.75 426.25 1000.75 430.05 1010.45 419.3 1027.35 447.05 1022.15 467.05 996.25 524.05 965.0 462.95" fill="#4d2f16" fill-rule="evenodd" stroke="none"/>
    <path d="M759.8 378.6 L757.4 379.0 717.35 398.25 738.8 415.8 746.65 452.65 662.6 422.2 641.05 432.65 655.45 438.25 654.9 438.3 655.55 438.25 698.9 455.05 759.05 496.6 715.3 490.25 704.65 476.6 647.85 466.2 620.05 454.85 610.15 449.0 615.85 445.05 621.7 441.0 596.35 443.05 571.45 413.2 594.05 405.45 591.6 394.2 614.85 356.6 652.1 356.05 720.6 353.85 726.45 359.0 759.8 378.6 M1012.8 292.2 L1014.6 314.3 1002.55 331.15 967.1 321.55 917.2 322.95 959.7 307.6 1012.65 291.7 1012.8 292.2 M982.95 245.05 L1013.65 273.9 928.1 291.75 935.75 262.55 962.55 254.65 970.4 245.05 982.95 245.05 M710.7 245.85 L743.0 271.6 848.95 282.55 804.9 311.55 726.75 301.25 688.9 303.2 665.25 298.05 678.05 273.55 710.7 245.85 M798.45 388.25 L858.3 392.1 900.15 432.55 898.9 450.25 897.0 459.65 840.15 457.85 838.55 456.65 737.45 403.35 798.45 388.25 M909.55 486.4 L920.55 467.6 920.9 466.9 952.05 473.1 954.25 503.2 950.0 516.45 936.35 512.55 900.05 508.0 884.95 491.2 909.55 486.4 M905.05 460.6 L903.45 459.4 905.05 432.6 863.35 391.0 965.05 435.3 957.65 454.6 953.4 467.85 905.05 460.6 M826.6 560.5 L867.2 586.85 853.25 615.8 838.0 613.95 848.55 634.7 817.4 630.95 794.2 641.0 769.2 612.05 769.15 611.45 787.9 594.4 805.55 602.6 785.35 571.7 805.8 536.45 823.25 549.65 826.6 560.5 M784.0 661.25 L752.15 655.8 714.45 676.85 683.3 675.9 697.4 630.15 681.3 606.75 721.45 596.85 759.3 634.3 784.0 661.25 M452.8 50.2 L453.55 57.05 458.2 56.75 477.5 59.9 477.45 62.85 477.4 66.75 477.35 71.2 504.25 89.3 499.55 87.1 496.75 96.6 481.8 94.5 484.0 89.05 484.75 87.1 482.0 88.15 456.3 109.0 471.0 120.7 450.4 119.5 476.55 130.95 435.25 159.75 386.95 125.2 383.5 117.45 363.2 114.55 360.15 99.05 381.65 89.3 399.9 97.3 384.85 79.9 366.15 90.75 352.2 96.6 329.35 93.05 336.35 114.3 331.95 120.25 330.9 120.3 322.8 120.6 328.05 123.4 327.3 124.25 311.25 117.1 310.05 129.45 352.15 186.2 305.25 173.15 290.05 156.3 278.05 157.0 296.1 165.8 293.0 175.0 289.55 176.6 379.35 197.85 407.05 233.9 301.25 223.75 300.65 217.7 251.9 195.45 214.05 188.85 Q213.05 189.2 212.1 189.6 L212.05 189.6 259.55 144.15 268.55 146.5 278.85 149.2 272.75 133.65 271.8 131.3 345.75 65.7 435.65 37.3 452.75 49.95 452.8 50.2 M208.6 192.9 L208.65 192.9 253.35 204.15 295.7 236.65 255.3 265.85 243.2 257.15 219.7 284.6 220.25 284.55 235.6 290.15 245.2 304.2 300.75 309.7 309.0 343.65 255.45 330.0 250.45 330.75 255.85 330.95 160.3 358.7 143.25 358.3 155.85 363.1 163.9 370.05 170.3 389.7 164.3 402.4 147.45 424.5 127.85 380.5 132.85 333.7 152.75 310.7 165.5 309.15 163.85 307.7 166.85 308.95 164.85 293.35 150.65 296.2 150.25 295.85 156.7 256.7 165.85 256.6 165.5 255.9 171.55 255.05 178.8 254.65 173.05 250.2 166.45 247.3 160.65 245.9 160.55 245.7 180.15 220.1 208.6 192.9 M435.35 361.1 L395.3 344.35 386.3 313.2 440.95 318.95 458.55 335.9 466.35 318.15 435.25 296.6 405.45 261.9 411.45 250.3 465.8 274.25 495.8 254.95 510.5 256.5 512.8 311.95 476.5 358.75 453.7 361.15 476.5 358.75 475.15 360.5 453.7 361.15 444.65 342.6 426.05 324.1 438.8 352.75 435.4 361.05 437.85 361.2 435.35 361.1 435.4 361.05 435.35 361.1 M551.55 168.45 L563.9 178.1 562.8 203.25 604.55 213.65 578.6 239.35 565.35 258.05 554.8 239.95 517.3 214.2 519.7 204.55 486.2 181.3 522.25 109.7 536.8 99.45 524.55 161.95 551.55 168.45 M402.1 60.25 L403.0 60.2 402.05 59.55 402.1 60.25 M330.9 255.15 L371.05 245.25 408.9 282.7 433.6 309.65 371.95 300.55 330.9 255.15 M298.5 204.95 L293.75 209.15 293.8 209.15 292.1 210.6 283.3 208.0 300.55 216.9 299.25 204.25 298.5 204.95 M164.1 362.2 L168.85 357.4 209.55 346.0 205.6 359.55 176.7 379.95 164.1 362.2 M165.6 327.3 L167.45 327.4 Q171.0 324.3 178.1 320.25 L161.15 320.75 165.6 327.3 M175.0 309.95 L174.4 307.5 171.5 309.4 175.0 309.95 M178.7 284.95 L178.9 285.9 182.95 285.8 178.7 284.95 M202.5 227.85 L195.65 230.8 208.0 231.8 202.5 227.85" fill="#99612f" fill-rule="evenodd" stroke="none"/>
    <path d="M780.8 676.15 L789.7 659.05 821.0 638.5 854.85 644.05 855.6 683.1 852.15 686.9 793.05 712.9 792.6 712.65 780.6 676.1 780.8 676.15" fill="#69401f" fill-rule="evenodd" stroke="none"/>
    <path d="M640.55 687.45 L671.6 678.8 661.8 741.45 588.85 731.85 638.4 691.35 640.55 687.45" fill="#663e1e" fill-rule="evenodd" stroke="none"/>
    <path d="M954.25 523.45 L956.85 501.6 956.7 471.9 965.0 462.95 996.25 524.05 995.45 525.75 966.3 549.7 964.65 549.1 964.9 548.4 954.25 523.45 M1022.35 335.75 L1023.8 335.15 1029.6 317.8 1038.75 317.85 1037.65 305.25 1030.3 289.35 1013.8 287.7 946.3 307.3 844.7 299.6 940.6 300.05 1019.45 279.95 1039.1 282.0 1039.5 282.05 1030.2 288.65 1058.8 321.15 1046.7 364.3 1022.35 335.75" fill="#6b411f" fill-rule="evenodd" stroke="none"/>
    <path d="M1041.85 282.3 L1042.95 282.4 1037.3 278.2 1041.8 244.25 1029.7 210.85 1049.8 222.9 1074.1 266.35 1061.5 311.45 1041.85 282.3" fill="#7d4c25" fill-rule="evenodd" stroke="none"/>
    <path d="M1029.7 210.85 L985.05 204.15 962.3 245.35 931.05 258.9 925.55 278.05 910.0 263.7 859.65 274.6 754.45 263.55 714.3 228.9 674.05 265.4 650.0 302.9 692.9 312.9 727.25 310.65 814.95 319.3 901.45 351.4 932.35 348.95 962.85 334.9 M769.0 552.5 L768.95 552.5 748.25 533.05 703.8 527.05 687.7 519.4 669.2 526.85 680.3 549.1 719.85 560.2 724.5 572.55 M712.45 579.15 L705.0 565.15 676.6 561.45 645.7 526.85 641.35 524.2 M640.7 523.8 L613.6 507.1 575.3 485.75 542.95 484.0 493.0 488.3 471.95 501.7 471.7 502.0 472.25 501.95 457.5 526.35 433.25 544.75 373.55 605.1 322.6 684.85 338.0 646.45 M472.25 501.95 L479.6 505.45 495.25 496.75 556.4 505.15 632.2 565.9 653.3 642.9 640.55 687.45 638.4 691.35 588.85 731.85 661.8 741.45 670.7 729.5 681.3 744.05 714.2 748.35 763.6 725.7 765.95 724.6 769.05 700.5 792.6 712.65 793.05 712.9 852.15 686.9 855.6 683.1 897.2 636.75 895.2 631.9 893.3 626.95 905.35 627.7 949.9 578.05 937.5 556.1 903.45 527.1 964.65 549.1 966.3 549.7 995.45 525.75 996.25 524.05 1022.15 467.05 1027.35 447.05 1019.2 431.65 1033.9 421.65 1041.4 392.5 1040.0 391.75 1019.55 367.95 1021.45 367.7 1046.65 364.5 1046.7 364.3 1058.8 321.15 1053.5 314.8 1061.5 311.45 1074.1 266.35 1049.8 222.9 1029.7 210.85 M625.55 210.25 L634.45 195.75 657.8 180.0 657.3 180.6 673.15 163.55 683.85 165.5 717.95 170.45 718.65 171.7 736.05 203.55 712.8 227.6 714.3 228.9 M69.95 882.1 L77.1 869.5 93.05 854.3 120.9 827.6 166.15 819.9 M205.9 830.9 L232.55 812.25 233.5 796.15 230.55 799.9 M567.7 29.55 L584.15 56.3 556.9 71.0 555.75 86.1 540.45 82.3 550.95 99.4 543.0 157.5 558.4 161.85 574.0 176.1 574.75 196.95 625.55 210.25 583.7 248.65 558.8 283.55 564.7 272.6 550.4 249.25 501.75 212.85 438.9 209.95 397.35 189.5 383.75 174.7 386.2 164.2 M534.85 5.7 L514.25 0.0 497.0 9.75 492.0 12.55 456.55 32.45 453.6 47.45 453.05 50.15 452.75 49.95 435.65 37.3 345.75 65.7 271.8 131.3 272.75 133.65 278.85 149.2 268.55 146.5 259.55 144.15 M567.7 29.55 L556.7 11.7 546.2 8.8 534.85 5.7 M152.7 436.25 L176.75 400.25 176.8 400.25 222.2 377.95 295.95 371.9 307.25 385.5 335.6 405.5 354.3 404.5 386.05 440.55 396.1 468.4 413.4 448.75 421.65 429.95 412.2 389.7 375.1 363.75 343.65 365.9 M337.15 358.8 L364.0 355.1 340.55 319.25 301.05 287.65 269.95 280.65 M268.55 146.5 L272.75 133.65 M160.65 245.9 L160.55 245.7 180.15 220.1 M150.65 296.2 L150.25 295.85 156.7 256.7 165.85 256.6 165.5 255.9 160.65 245.9 M147.45 424.5 L127.85 380.5 132.85 333.7 152.75 310.7 165.5 309.15 163.85 307.7 150.65 296.2 M280.4 598.45 L295.05 582.35 315.0 551.75 315.95 551.2 316.05 551.1 337.55 537.65 377.8 500.5 392.05 473.15 396.1 468.4 M25.75 922.65 L43.1 856.3 92.55 778.1 123.15 761.5 184.65 700.1 210.1 684.15 227.1 658.7 250.65 636.9 260.0 618.25 271.3 617.55 280.05 615.0 285.0 613.55 281.5 613.1 275.75 612.3 270.35 603.75 281.1 599.1 M210.1 684.15 L264.35 652.6 306.75 609.85 M186.6 798.85 Q190.25 791.45 194.6 784.05 203.5 768.75 215.1 753.4 M310.35 700.35 L322.6 684.85 M309.65 699.8 L298.3 713.45 297.3 713.85 292.65 715.1 297.45 714.5 233.75 795.85 233.5 796.05 233.5 796.15 M305.45 706.55 L310.35 700.35 M493.0 488.3 L490.05 488.3 M470.95 502.05 L471.7 502.0 M434.95 542.35 L433.25 544.75 M186.6 798.85 L172.25 806.95 167.5 820.25 M205.9 830.9 L176.3 822.6 Q180.65 810.75 186.6 798.85 M0.0 957.85 L25.75 923.55 M69.95 882.1 L40.35 934.7 0.4 958.5" fill="none" stroke="#000000" stroke-linecap="round" stroke-linejoin="round" stroke-opacity="0.5019608" stroke-width="4.0"/>
    <path d="M167.5 820.25 L167.45 820.25" fill="none" stroke="#000000" stroke-linecap="round" stroke-linejoin="round" stroke-opacity="0.101960786" stroke-width="3.25"/>
    <path d="M365.1 539.35 L366.9 538.0 393.3 517.7" fill="none" stroke="#000000" stroke-linecap="round" stroke-linejoin="round" stroke-opacity="0.2509804" stroke-width="3.25"/>
    <path d="M317.45 551.15 L329.35 548.1 365.1 539.35 M315.0 551.75 L315.75 551.6 317.45 551.15" fill="none" stroke="#000000" stroke-linecap="round" stroke-linejoin="round" stroke-opacity="0.2509804" stroke-width="4.0"/>
    <path d="M974.95 344.45 L953.9 351.25 966.75 362.9 M957.35 370.65 L949.65 360.05 M781.75 533.05 L764.35 533.05 777.4 546.1 M761.85 533.05 L764.35 533.05 761.85 530.55 M378.8 161.35 L377.8 168.5 356.45 168.5 M278.1 267.7 L299.75 278.5 300.8 260.05" fill="none" stroke="#000000" stroke-linecap="round" stroke-linejoin="round" stroke-opacity="0.5019608" stroke-width="1.75"/>
    <path d="M357.1 174.7 L373.1 178.85 387.5 194.45 435.8 223.1 483.9 228.95 523.4 255.0 523.4 292.1 531.6 314.8 M482.3 358.15 L483.6 358.15 M312.95 260.55 L317.35 280.7 323.9 284.55 370.5 317.25 388.8 345.95 430.75 369.9 435.35 361.1 435.4 361.05 438.8 352.75 426.05 324.1 444.65 342.6 453.7 361.15 476.5 358.75 482.3 358.15 M388.8 345.95 L387.5 345.2" fill="none" stroke="#000000" stroke-linecap="round" stroke-linejoin="round" stroke-opacity="0.2" stroke-width="4.0"/>
    <path d="M949.65 360.05 L906.4 360.05 812.5 334.1 747.0 327.95 729.05 348.65 759.8 378.6 M655.8 438.2 L655.55 438.25 654.9 438.3 M620.05 454.85 L596.7 457.65 640.3 479.15 698.85 494.75 722.3 515.75 754.45 524.4 781.0 523.55 M652.1 356.05 L720.6 353.85 726.45 359.0 M949.65 360.05 L950.9 360.05 M604.9 347.7 L608.15 347.75 652.1 356.05 M615.85 445.05 L610.15 449.0 620.05 454.85 M608.15 347.75 L578.95 391.7 550.65 412.1 582.05 450.8 615.85 445.05" fill="none" stroke="#000000" stroke-linecap="round" stroke-linejoin="round" stroke-opacity="0.3019608" stroke-width="4.0"/>
    <path d="M531.6 314.8 L482.3 358.15" fill="none" stroke="#000000" stroke-linecap="round" stroke-linejoin="round" stroke-opacity="0.4" stroke-width="4.0"/>
    <path d="M1028.8 209.0 L1040.9 242.4 1036.4 276.35 1042.05 280.55 1018.55 278.1 939.7 298.2 843.8 297.75 945.4 305.45 1012.9 285.85 1029.4 287.5 1036.75 303.4 1037.85 316.0 1028.7 315.95 1022.9 333.3 1005.0 340.5 1005.8 359.3 1013.9 359.0 1004.95 364.2 998.8 377.65 1003.35 400.9 1007.3 397.25 1002.2 402.55 955.1 398.3 921.1 402.9 862.2 382.95 795.5 380.75 861.6 385.65 921.8 411.45 961.65 406.9 1006.9 416.55 1005.8 417.05 1009.8 417.15 999.85 428.2 990.85 424.4 968.95 435.8 965.25 459.8 955.8 470.05 955.95 499.75 953.35 521.6 902.4 513.4 894.5 528.2 935.1 554.35 891.9 552.2 903.6 570.45 887.6 569.35 880.35 576.05 879.9 575.65 904.45 625.85 892.4 625.1 894.3 630.05 875.05 586.65 875.55 585.65 874.05 584.4 873.95 584.25 873.95 584.35 872.65 591.65 871.05 595.0 872.4 593.2 853.45 625.25 854.85 642.35 820.1 636.65 788.8 657.2 779.9 674.3 754.0 664.05 715.6 682.3 702.9 701.7 699.8 684.55 678.3 679.5 686.75 628.65 662.95 568.6 681.35 632.4 671.8 676.6 639.65 685.6 652.4 641.05 631.3 564.05 555.5 503.3 494.35 494.9 478.7 503.6 471.35 500.1 471.05 499.85 491.05 488.2 542.05 482.15 574.4 483.9 612.7 505.25 644.8 525.0 675.7 559.6 704.1 563.3 711.55 577.3 723.6 570.7 718.95 558.35 679.4 547.25 668.3 525.0 686.8 517.55 702.9 525.2 747.35 531.2 768.05 550.65 768.1 550.65 776.5 544.25 763.45 531.2 780.85 531.2 780.1 521.7 753.55 522.55 721.4 513.9 697.95 492.9 639.4 477.3 595.8 455.8 619.15 453.0 609.25 447.15 620.8 439.15 595.45 441.2 570.55 411.35 593.15 403.6 590.7 392.35 613.95 354.75 651.2 354.2 719.7 352.0 725.55 357.15 758.9 376.75 728.15 346.8 746.1 326.1 811.6 332.25 905.5 358.2 948.75 358.2 956.45 368.8 965.85 361.05 953.0 349.4 974.05 342.6 961.95 333.05 931.45 347.1 900.55 349.55 814.05 317.45 726.35 308.8 692.0 311.05 649.1 301.05 673.15 263.55 713.4 227.05 753.55 261.7 858.75 272.75 909.1 261.85 924.65 276.2 930.15 257.05 961.4 243.5 984.15 202.3 1028.8 209.0 M654.65 436.4 L654.9 436.35 654.55 436.4 654.65 436.4 M566.8 27.7 L583.25 54.45 556.0 69.15 554.85 84.25 539.55 80.45 550.05 97.55 542.1 155.65 557.5 160.0 573.1 174.25 573.85 195.1 624.65 208.4 582.8 246.8 557.9 281.7 563.8 270.75 549.5 247.4 500.85 211.0 438.0 208.1 396.45 187.65 382.85 172.85 385.3 162.35 377.9 159.5 376.9 166.65 355.55 166.65 356.2 172.85 372.2 177.0 386.6 192.6 434.9 221.25 483.0 227.1 522.5 253.15 522.5 290.25 530.7 312.95 475.85 360.4 452.8 359.3 443.75 340.75 425.15 322.25 437.9 350.9 434.5 359.2 434.45 359.25 429.85 368.05 387.9 344.1 369.6 315.4 323.0 282.7 316.45 278.85 312.05 258.7 299.9 258.2 298.85 276.65 277.2 265.85 269.05 278.8 300.15 285.8 339.65 317.4 363.1 353.25 336.25 356.95 342.75 364.05 374.2 361.9 411.3 387.85 420.8 428.1 412.5 446.9 410.95 435.65 392.4 416.1 395.35 405.9 379.0 403.0 368.1 388.95 338.8 384.45 330.6 391.95 329.3 381.35 310.9 362.85 303.15 361.9 302.45 353.4 272.75 347.9 267.05 355.1 265.1 347.05 215.25 358.9 215.7 369.5 206.95 361.9 175.55 386.85 175.9 398.4 175.85 398.4 151.8 434.4 126.95 378.65 131.95 331.85 151.85 308.85 164.6 307.3 162.95 305.85 165.95 307.1 163.95 291.5 149.75 294.35 149.35 294.0 155.8 254.85 164.95 254.75 164.6 254.05 170.65 253.2 177.9 252.8 172.15 248.35 165.55 245.45 159.75 244.05 159.65 243.85 179.25 218.25 258.65 142.3 277.95 147.35 270.9 129.45 344.85 63.85 434.75 35.45 451.85 48.1 451.9 48.35 452.15 48.3 452.7 45.6 464.6 53.1 479.15 49.9 491.15 37.2 496.65 25.3 496.95 24.75 497.15 24.15 491.1 10.7 496.1 7.9 506.05 17.45 507.75 17.1 498.8 19.5 558.2 29.45 566.8 27.7 M164.7 325.45 L166.55 325.55 Q170.1 322.45 177.2 318.4 L160.25 318.9 164.7 325.45 M170.6 307.55 L174.1 308.1 173.5 305.65 170.6 307.55 M177.8 283.1 L178.0 284.05 182.05 283.95 177.8 283.1 M201.6 226.0 L194.75 228.95 207.1 229.95 201.6 226.0 M298.35 202.4 L291.2 208.75 282.4 206.15 299.65 215.05 298.35 202.4 M327.15 121.55 L330.0 118.45 321.9 118.75 327.15 121.55 M336.7 126.65 L335.9 126.6 339.65 128.25 336.7 126.65 M401.15 57.7 L401.2 58.4 402.1 58.35 401.15 57.7 M481.1 86.3 L483.1 87.2 483.85 85.25 481.1 86.3 M476.5 64.9 L478.45 59.85 476.55 61.0 476.5 64.9" fill="url(#gradient0)" fill-rule="evenodd" stroke="none"/>
    <path d="M280.75 596.05 L295.4 579.95 315.35 549.35 316.3 548.8 316.4 548.7 337.9 535.25 378.15 498.1 392.4 470.75 396.45 466.0 386.4 438.15 354.65 402.1 335.95 403.1 307.6 383.1 296.3 369.5 222.55 375.55 177.15 397.85 177.1 397.85 153.05 433.85 128.2 378.1 133.2 331.3 153.1 308.3 165.85 306.75 150.6 293.45 157.05 254.3 166.2 254.2 160.9 243.3 180.5 217.7 259.9 141.75 268.9 144.1 273.1 131.25 272.15 128.9 346.1 63.3 436.0 34.9 453.4 47.75 456.9 30.05 514.6 -2.4 557.05 9.3 584.5 53.9 557.25 68.6 556.1 83.7 540.8 79.9 551.3 97.0 543.35 155.1 558.75 159.45 574.35 173.7 575.1 194.55 625.9 207.85 634.8 193.35 658.15 177.6 657.65 178.2 673.5 161.15 684.2 163.1 718.3 168.05 736.4 201.15 713.15 225.2 754.8 261.15 860.0 272.2 910.35 261.3 925.9 275.65 931.4 256.5 962.65 242.95 985.4 201.75 1030.05 208.45 1050.15 220.5 1074.45 263.95 1061.85 309.05 1053.85 312.4 1059.15 318.75 1047.0 362.1 1019.9 365.55 1040.35 389.35 1041.75 390.1 1034.25 419.25 1019.55 429.25 1027.7 444.65 1022.5 464.65 995.8 523.35 966.65 547.3 903.8 524.7 937.85 553.7 950.25 575.65 905.7 625.3 893.65 624.55 897.55 634.35 852.5 684.5 793.4 710.5 769.4 698.1 766.3 722.2 714.55 745.95 681.65 741.65 671.05 727.1 662.15 739.05 589.2 729.45 638.75 688.95 640.9 685.05 653.65 640.5 632.55 563.5 556.75 502.75 495.6 494.35 479.95 503.05 472.6 499.55 457.85 523.95 433.6 542.35 373.9 602.7 322.95 682.45 305.8 704.15 M273.1 131.25 L279.2 146.8 268.9 144.1 M26.1 920.25 L43.45 853.9 92.9 775.7 123.5 759.1 185.0 697.7 210.45 681.75 227.45 656.3 251.0 634.5 260.35 615.85 271.65 615.15 285.35 611.15 276.1 609.9 270.7 601.35 281.45 596.7 M167.85 817.85 L172.6 804.55 186.95 796.45 Q190.6 789.05 194.95 781.65 203.85 766.35 215.45 751.0 M310.0 697.4 L298.65 711.05 297.65 711.45 293.0 712.7 297.8 712.1 234.1 793.45 233.85 793.65 233.85 793.75 232.9 809.85 206.25 828.5 176.65 820.2 Q181.0 808.35 186.95 796.45 M471.3 499.65 L472.05 499.6 509.05 480.05 M472.05 499.6 L472.6 499.55 M435.3 539.95 L433.6 542.35 M416.1 443.7 L396.45 466.0 M338.35 644.05 L322.95 682.45 M233.85 793.75 L230.9 797.5 M166.5 817.5 L121.25 825.2 77.45 867.1 40.7 932.3 0.75 956.1 M0.35 955.45 L26.1 921.15" fill="none" stroke="#000000" stroke-linecap="round" stroke-linejoin="round" stroke-opacity="0.3019608" stroke-width="4.0"/>
  </g>
  <defs>
    <linearGradient gradientTransform="matrix(-0.195, 0.2422, -0.3901, -0.314, 413.9, 580.95)" gradientUnits="userSpaceOnUse" id="gradient0" spreadMethod="pad" x1="-819.2" x2="819.2">
      <stop offset="0.0" stop-color="#bdbdbd" stop-opacity="0.2627451"/>
      <stop offset="1.0" stop-color="#000000" stop-opacity="0.0"/>
    </linearGradient>
  </defs>
</svg>
