<?xml version="1.0" encoding="UTF-8" standalone="no"?>
<svg xmlns:xlink="http://www.w3.org/1999/xlink" height="92.75px" width="43.1px" xmlns="http://www.w3.org/2000/svg">
  <g transform="matrix(1.0, 0.0, 0.0, 1.0, -253.4, -154.1)">
    <path d="M259.7 175.3 L257.25 176.9 256.55 168.45 273.25 166.5 259.7 175.3 M271.75 188.3 L282.85 188.6 282.95 190.3 260.3 198.05 271.75 188.3 M284.2 205.3 Q284.5 208.2 284.95 210.95 L272.3 206.55 Q278.65 204.05 284.2 205.3 M261.3 244.9 L263.15 246.65 263.15 246.8 Q256.8 247.3 253.4 244.35 L253.5 227.9 Q253.75 230.7 254.5 233.3 256.35 239.65 261.3 244.9" fill="#dad381" fill-rule="evenodd" stroke="none"/>
    <path d="M257.25 176.9 L259.7 175.3 282.25 176.75 282.45 180.65 282.5 181.25 282.5 181.4 Q282.6 185.1 282.85 188.6 L271.75 188.3 263.15 188.05 256.95 190.2 257.25 184.45 257.25 176.9 M253.5 227.9 L253.7 224.8 Q259.75 223.55 263.1 229.85 L263.05 231.2 263.05 231.45 263.1 235.8 Q259.5 231.95 254.5 233.3 253.75 230.7 253.5 227.9 M254.45 215.1 L255.0 209.85 Q262.5 205.95 265.7 208.0 L266.15 207.9 265.9 209.0 Q264.8 213.8 264.1 218.5 L264.25 218.65 264.1 218.65 264.1 218.5 Q260.4 214.3 254.45 215.1 M268.4 208.4 L268.6 208.3 268.4 208.55 268.4 208.4 M271.85 234.65 Q276.3 230.1 280.8 230.6 L281.1 231.65 Q274.5 233.2 273.1 238.45 L271.85 234.65" fill="#faf9ee" fill-rule="evenodd" stroke="none"/>
    <path d="M256.95 190.2 L263.15 188.05 271.75 188.3 260.3 198.05 255.85 201.8 256.95 190.2 M273.25 166.5 L256.55 168.45 255.85 164.1 Q269.45 161.1 277.9 154.1 280.65 157.3 281.55 161.2 L281.6 161.6 281.75 165.45 273.25 166.5 M289.7 234.65 L283.2 235.9 283.1 235.9 283.0 235.9 282.9 235.9 Q281.85 233.8 281.1 231.65 L281.7 231.05 280.85 230.55 280.8 230.55 Q279.05 224.9 279.3 218.35 279.4 216.35 279.65 214.3 L280.5 218.3 Q282.3 224.5 286.7 229.7 288.8 232.2 291.55 234.5 L289.7 234.65 M274.95 242.55 L270.95 242.55 268.25 242.65 Q265.45 242.85 263.8 243.75 L263.75 243.65 Q263.25 239.8 263.1 235.8 L263.05 231.45 263.05 231.2 263.1 229.85 Q263.25 224.4 264.1 218.7 L264.25 218.75 264.25 218.65 264.1 218.5 Q264.8 213.8 265.9 209.0 L266.15 207.9 268.2 200.2 268.4 208.4 268.4 208.55 Q268.6 213.9 269.05 218.55 269.95 227.95 271.85 234.65 L273.1 238.45 Q273.95 240.7 274.95 242.55" fill="#e7e2ad" fill-rule="evenodd" stroke="none"/>
    <path d="M282.25 176.75 L259.7 175.3 273.25 166.5 281.75 165.45 282.25 176.75 M282.95 190.3 L283.95 201.95 283.95 202.3 284.2 205.3 Q278.65 204.05 272.3 206.55 L284.95 210.95 285.85 215.55 Q287.45 222.5 290.3 227.8 291.55 230.15 293.1 232.2 L296.2 234.65 296.1 234.7 291.55 234.65 291.55 234.5 Q288.8 232.2 286.7 229.7 282.3 224.5 280.5 218.3 L279.65 214.3 Q279.4 216.35 279.3 218.35 279.05 224.9 280.8 230.55 L280.8 230.6 Q276.3 230.1 271.85 234.65 269.95 227.95 269.05 218.55 268.6 213.9 268.4 208.55 L268.6 208.3 268.4 208.4 268.2 200.2 266.15 207.9 265.7 208.0 Q262.5 205.95 255.0 209.85 L255.55 204.65 255.85 201.8 260.3 198.05 282.95 190.3 M282.8 236.05 L282.2 236.95 282.1 238.1 282.0 238.75 Q281.55 241.3 279.15 242.1 L275.3 242.55 274.95 242.55 Q273.95 240.7 273.1 238.45 274.5 233.2 281.1 231.65 281.85 233.8 282.9 235.9 L282.8 236.05 M263.75 243.75 Q263.4 243.9 263.15 244.1 L261.3 244.9 Q256.35 239.65 254.5 233.3 259.5 231.95 263.1 235.8 263.25 239.8 263.75 243.65 L263.75 243.75 M253.7 224.8 L253.7 224.65 Q253.85 221.2 254.45 215.1 260.4 214.3 264.1 218.5 L264.1 218.65 264.1 218.7 Q263.25 224.4 263.1 229.85 259.75 223.55 253.7 224.8" fill="#f4f2dd" fill-rule="evenodd" stroke="none"/>
    <path d="M264.25 218.65 L264.25 218.75 264.1 218.7 264.1 218.65 264.25 218.65 M280.8 230.6 L280.8 230.55 280.85 230.55 281.7 231.05 281.1 231.65 280.8 230.6" fill="#efecbe" fill-rule="evenodd" stroke="none"/>
    <path d="M296.2 234.65 L296.4 234.7 296.45 234.8 296.1 234.7 296.2 234.65 M291.55 234.65 L289.7 234.65 291.55 234.5 291.55 234.65 M283.0 235.9 L282.8 236.05 282.9 235.9 283.0 235.9" fill="#555ba0" fill-rule="evenodd" stroke="none"/>
    <path d="M263.8 243.75 L263.75 243.75 263.75 243.65 263.8 243.75" fill="#00007d" fill-rule="evenodd" stroke="none"/>
    <path d="M263.15 246.65 L263.25 246.8 263.15 246.8 263.15 246.65" fill="#77bbff" fill-rule="evenodd" stroke="none"/>
    <path d="M282.85 188.6 Q282.6 185.1 282.5 181.4 L282.5 181.25 282.45 180.65 282.25 176.75 281.75 165.45 281.6 161.6 281.55 161.2 Q280.65 157.3 277.9 154.1 M282.85 188.6 L282.95 190.3 283.95 201.95 283.95 202.3 284.2 205.3 Q284.5 208.2 284.95 210.95 L285.85 215.55 Q287.45 222.5 290.3 227.8 291.55 230.15 293.1 232.2 L296.2 234.65 296.4 234.7 296.5 234.8 296.45 234.8 296.1 234.7 291.55 234.65 289.7 234.65 283.2 235.9 M282.8 236.05 L282.2 236.95 282.1 238.1 282.0 238.75 Q281.55 241.3 279.15 242.1 L275.3 242.55 274.95 242.55 270.95 242.55 268.25 242.65 Q265.45 242.85 263.8 243.75 L263.75 243.75 Q263.4 243.9 263.15 244.1 L261.3 244.9 263.15 246.65 263.25 246.8 263.15 246.8 Q256.8 247.3 253.4 244.35 M282.9 235.9 L282.8 236.05 M261.3 244.9 Q256.35 239.65 254.5 233.3 253.75 230.7 253.5 227.9" fill="none" stroke="#000000" stroke-linecap="round" stroke-linejoin="round" stroke-opacity="0.6" stroke-width="0.05"/>
    <path d="M283.1 235.9 L283.0 235.9" fill="none" stroke="#0f121c" stroke-linecap="round" stroke-linejoin="round" stroke-width="0.05"/>
  </g>
</svg>
