<?xml version="1.0" encoding="UTF-8" standalone="no"?>
<svg xmlns:xlink="http://www.w3.org/1999/xlink" height="116.0px" width="157.5px" xmlns="http://www.w3.org/2000/svg">
  <g transform="matrix(1.0, 0.0, 0.0, 1.0, -185.5, -127.15)">
    <path d="M228.8 156.8 Q215.85 142.3 195.85 143.6 186.0 144.25 186.25 136.2 186.3 135.05 187.55 133.95 199.55 123.3 214.1 131.45 230.85 140.85 250.0 139.1 L273.95 136.2 275.2 136.05 275.4 136.0 275.25 135.9 275.45 136.0 Q276.7 136.6 277.15 135.75 L280.15 135.3 Q299.7 132.05 319.2 135.0 332.3 136.8 340.1 147.0 344.65 152.9 339.6 158.85 329.2 171.2 313.6 163.0 300.1 155.9 285.35 153.2 L274.4 153.6" fill="none" stroke="#000000" stroke-linecap="round" stroke-linejoin="round" stroke-width="1.5"/>
    <path d="M297.95 169.35 L298.25 169.25 298.65 169.2 298.45 169.1 300.25 168.8 300.55 168.8 298.9 169.2 298.95 169.2 300.3 168.9 299.0 169.25 298.4 169.35 298.0 169.4 298.3 169.35 298.2 169.35 297.85 169.45 297.95 169.35 M303.0 168.3 L302.85 168.35 302.2 168.5 303.0 168.3" fill="none" stroke="#00cccc" stroke-linecap="round" stroke-linejoin="round" stroke-width="0.5"/>
    <path d="M212.35 232.5 L208.7 234.3 210.1 229.5 210.15 229.35 210.25 228.95 210.1 229.35 210.45 228.0 210.7 227.45 210.85 226.85 215.15 208.25 Q215.45 205.25 214.95 204.25 L214.0 202.1 212.85 199.0 Q211.9 196.05 211.6 193.0 L211.55 192.2 210.75 191.55 210.5 191.65 189.5 174.5 189.85 174.65 189.65 174.45 189.35 174.4 189.6 174.5 188.9 173.9 Q207.2 170.3 225.1 162.35 L225.55 162.05 Q229.25 158.95 234.0 156.65 L236.2 155.65 236.85 155.2 236.55 155.35 250.5 133.1 250.45 133.0 250.8 132.7 251.25 132.0 262.1 152.4 262.85 153.5 262.6 153.4 262.75 153.7 262.85 153.7 265.1 154.4 268.75 155.8 Q272.6 157.6 275.7 160.05 L279.0 162.75 285.35 164.65 292.6 166.7 Q298.75 167.95 304.3 167.75 L303.45 168.0 304.2 167.85 Q286.65 185.35 287.05 186.55 L287.15 186.75 287.3 186.55 287.3 187.1 287.25 187.15 286.8 190.5 286.3 192.7 285.95 193.7 285.65 194.7 285.45 195.3 285.15 196.2 283.1 200.7 Q280.55 205.8 277.0 210.0 L276.05 242.2 Q275.85 242.3 275.8 242.4 L275.6 242.3 253.45 226.25 249.75 223.9 249.05 223.8 248.0 223.45 247.2 223.3 239.65 221.45 239.55 221.45 239.0 221.5 237.4 221.15 Q231.5 223.3 212.75 232.35 L212.35 232.5 Z" fill="none" stroke="#000000" stroke-linecap="round" stroke-linejoin="round" stroke-width="1.5"/>
    <path d="M262.8 153.75 L263.4 153.0 264.5 152.65 266.7 152.6 267.25 152.7 267.35 152.7 267.8 152.75 268.25 152.85 268.3 152.85 267.85 153.45 267.65 153.45 266.7 153.35 266.2 153.25 264.15 153.25 Q263.4 153.45 262.8 153.75 M260.1 161.5 Q259.65 160.95 259.45 159.6 259.25 158.3 260.0 157.15 L261.3 155.45 Q262.35 154.65 263.85 154.25 L265.6 154.25 265.6 154.45 265.8 154.55 266.6 154.95 266.7 155.15 Q264.5 154.9 262.75 156.15 262.8 156.05 262.65 156.1 L261.7 157.05 Q260.35 158.8 260.65 160.3 260.9 161.85 261.4 162.0 L261.2 162.1 Q260.7 162.1 260.1 161.5" fill="#fcd67c" fill-rule="evenodd" stroke="none"/>
    <path d="M263.4 153.0 L265.55 150.5 265.65 150.45 Q266.55 149.3 268.25 149.25 L270.4 149.25 Q269.9 149.35 269.7 150.1 L269.0 150.0 267.0 150.05 265.65 150.45 267.0 150.05 269.0 150.0 269.7 150.1 270.55 150.25 270.25 150.55 268.25 152.85 267.8 152.75 267.35 152.7 267.25 152.7 266.7 152.6 264.5 152.65 263.4 153.0 M278.15 167.35 L277.75 167.8 277.55 168.0 Q276.15 169.05 274.45 169.35 L274.4 169.1 274.6 169.0 275.0 168.8 Q275.75 168.25 274.8 167.8 L274.3 167.65 273.95 167.7 274.0 167.6 Q274.85 167.3 275.7 166.7 276.5 165.9 276.65 164.2 L276.7 164.15 276.7 164.05 276.5 163.35 Q275.95 161.35 274.6 159.7 L276.15 159.15 Q277.75 161.15 278.55 163.6 278.95 166.1 278.15 167.35 M261.3 155.45 L262.8 153.75 Q263.4 153.45 264.15 153.25 L266.2 153.25 266.7 153.35 265.65 154.25 265.6 154.25 263.85 154.25 Q262.35 154.65 261.3 155.45" fill="#f4ffc8" fill-rule="evenodd" stroke="none"/>
    <path d="M270.4 149.25 Q272.35 149.4 274.4 150.15 277.7 151.7 280.6 154.1 L279.75 155.1 Q276.75 152.65 273.35 151.0 L270.55 150.25 269.7 150.1 Q269.9 149.35 270.4 149.25 M266.7 153.35 L267.65 153.45 267.85 153.45 270.6 154.3 Q274.0 155.85 277.0 158.3 L276.15 159.15 Q273.1 156.45 270.0 155.2 267.9 154.4 265.8 154.25 L265.65 154.25 266.7 153.35 M268.3 152.85 L268.25 152.85 270.25 150.55 274.9 152.2 Q277.55 153.8 279.65 155.7 L280.3 156.55 278.2 158.5 277.7 157.8 Q274.65 155.3 271.3 153.65 L268.35 152.85 268.3 152.85" fill="#ebb029" fill-rule="evenodd" stroke="none"/>
    <path d="M267.85 153.45 L268.3 152.85 268.35 152.85 271.3 153.65 Q274.65 155.3 277.7 157.8 L278.2 158.5 277.6 159.15 277.0 158.3 Q274.0 155.85 270.6 154.3 L267.85 153.45 M270.25 150.55 L270.55 150.25 273.35 151.0 Q276.75 152.65 279.75 155.1 L280.55 156.25 280.3 156.55 279.65 155.7 Q277.55 153.8 274.9 152.2 L270.25 150.55" fill="#a3782d" fill-rule="evenodd" stroke="none"/>
    <path d="M261.6 163.7 L260.1 161.5 Q260.7 162.1 261.2 162.1 L261.4 162.0 Q260.9 161.85 260.65 160.3 260.35 158.8 261.7 157.05 L262.65 156.1 Q262.8 156.05 262.75 156.15 264.5 154.9 266.7 155.15 266.85 155.4 266.5 155.65 L265.95 155.75 265.95 155.8 265.7 155.85 265.25 155.85 264.95 155.9 263.4 156.5 Q262.65 157.0 262.15 157.65 261.25 158.95 261.5 160.65 261.6 161.25 261.85 161.5 L262.15 161.85 263.9 164.3 Q262.9 164.6 261.6 163.7" fill="#edb848" fill-rule="evenodd" stroke="none"/>
    <path d="M274.45 169.35 L273.65 169.45 Q271.1 169.45 268.6 168.7 L267.6 168.4 Q264.55 166.9 262.6 164.95 L261.6 163.7 Q262.9 164.6 263.9 164.3 265.45 165.85 267.95 166.95 L269.0 167.35 272.6 167.85 274.0 167.6 273.95 167.7 274.3 167.65 274.8 167.8 Q275.75 168.25 275.0 168.8 L274.6 169.0 274.4 169.1 274.45 169.35 M265.6 154.25 L265.65 154.25 265.8 154.25 Q267.9 154.4 270.0 155.2 273.1 156.45 276.15 159.15 L274.6 159.7 Q272.45 157.55 269.8 156.65 268.45 156.15 267.25 155.95 L265.7 155.85 265.95 155.8 265.95 155.75 266.5 155.65 Q266.85 155.4 266.7 155.15 L266.6 154.95 265.8 154.55 265.6 154.45 265.6 154.25" fill="#e7ff84" fill-rule="evenodd" stroke="none"/>
    <path d="M274.0 167.6 L272.6 167.85 269.0 167.35 267.95 166.95 271.3 163.15 271.55 162.95 Q270.7 162.55 269.95 162.0 L270.3 161.5 272.15 162.55 Q274.3 163.3 276.5 163.35 L276.7 164.05 276.7 164.15 276.65 164.2 Q276.5 165.9 275.7 166.7 274.85 167.3 274.0 167.6" fill="#614718" fill-rule="evenodd" stroke="none"/>
    <path d="M270.3 161.5 L269.95 162.0 267.95 160.55 267.9 160.5 267.95 160.5 Q266.45 159.15 265.75 158.0 L262.15 161.85 261.85 161.5 Q261.6 161.25 261.5 160.65 261.25 158.95 262.15 157.65 262.65 157.0 263.4 156.5 L264.95 155.9 265.25 155.85 265.7 155.85 265.8 156.35 266.4 157.55 267.6 159.2 268.4 160.05 270.3 161.5" fill="#cb9d49" fill-rule="evenodd" stroke="none"/>
    <path d="M269.95 162.0 Q270.7 162.55 271.55 162.95 L271.3 163.15 267.95 166.95 Q265.45 165.85 263.9 164.3 L267.9 160.5 267.95 160.55 269.95 162.0" fill="#70521c" fill-rule="evenodd" stroke="none"/>
    <path d="M262.15 161.85 L265.75 158.0 Q266.45 159.15 267.95 160.5 L267.9 160.5 263.9 164.3 262.15 161.85" fill="#a4792e" fill-rule="evenodd" stroke="none"/>
    <path d="M280.6 154.1 Q282.45 156.5 283.2 159.6 283.0 161.65 282.15 162.65 L282.15 162.7 282.45 160.85 282.2 159.85 Q281.6 157.9 280.55 156.25 L279.75 155.1 280.6 154.1 M281.35 163.65 L281.3 163.7 280.45 164.7 280.55 163.75 280.3 162.7 Q279.7 160.65 278.45 158.8 L278.2 158.5 280.3 156.55 280.4 156.75 Q281.1 157.75 281.8 160.85 281.95 162.95 281.35 163.65 M279.35 165.9 L278.15 167.35 Q278.95 166.1 278.55 163.6 277.75 161.15 276.15 159.15 L277.0 158.3 277.6 159.15 Q278.8 160.9 279.45 163.0 L279.7 164.05 279.35 165.9" fill="#ab7c10" fill-rule="evenodd" stroke="none"/>
    <path d="M282.15 162.8 L281.35 163.65 Q281.95 162.95 281.8 160.85 281.1 157.75 280.4 156.75 L280.3 156.55 280.55 156.25 Q281.6 157.9 282.2 159.85 L282.45 160.85 282.15 162.7 282.15 162.8 M280.45 164.7 L279.35 165.9 279.7 164.05 279.45 163.0 Q278.8 160.9 277.6 159.15 L278.2 158.5 278.45 158.8 Q279.7 160.65 280.3 162.7 L280.55 163.75 280.45 164.7" fill="#7d5b22" fill-rule="evenodd" stroke="none"/>
    <path d="M262.8 153.75 L263.4 153.0 265.55 150.5 265.65 150.45 Q266.55 149.3 268.25 149.25 L270.4 149.25 Q272.35 149.4 274.4 150.15 277.7 151.7 280.6 154.1 282.45 156.5 283.2 159.6 283.0 161.65 282.15 162.65 L282.15 162.8 281.35 163.65 M281.3 163.7 L280.45 164.7 279.35 165.9 278.15 167.35 277.75 167.8 277.55 168.0 Q276.15 169.05 274.45 169.35 L273.65 169.45 Q271.1 169.45 268.6 168.7 L267.6 168.4 Q264.55 166.9 262.6 164.95 L261.6 163.7 260.1 161.5 Q259.65 160.95 259.45 159.6 259.25 158.3 260.0 157.15 L261.3 155.45 262.8 153.75 M265.65 150.45 L265.55 150.5 M272.15 162.55 L270.3 161.5 268.4 160.05 267.6 159.2 266.4 157.55 265.8 156.35 265.7 155.85 267.25 155.95 Q268.45 156.15 269.8 156.65 272.45 157.55 274.6 159.7 275.95 161.35 276.5 163.35 M265.6 154.25 L265.65 154.25 M282.15 162.7 L282.15 162.8 M277.6 159.15 Q278.8 160.9 279.45 163.0 L279.7 164.05 279.35 165.9" fill="none" stroke="#634819" stroke-linecap="round" stroke-linejoin="round" stroke-width="0.1"/>
    <path d="M265.65 150.45 L267.0 150.05 269.0 150.0 269.7 150.1 270.55 150.25 273.35 151.0 Q276.75 152.65 279.75 155.1 L280.55 156.25 Q281.6 157.9 282.2 159.85 L282.45 160.85 282.15 162.7" fill="none" stroke="#463311" stroke-linecap="round" stroke-linejoin="round" stroke-opacity="0.2" stroke-width="0.1"/>
    <path d="M267.95 166.95 L269.0 167.35 272.6 167.85 274.0 167.6 Q274.85 167.3 275.7 166.7 276.5 165.9 276.65 164.2 L276.7 164.15 276.7 164.05 276.5 163.35 Q274.3 163.3 272.15 162.55 M267.95 166.95 Q265.45 165.85 263.9 164.3" fill="none" stroke="#634819" stroke-linecap="round" stroke-linejoin="round" stroke-width="0.1"/>
    <path d="M222.0 166.4 L221.6 165.45 221.7 164.4 222.65 162.3 222.9 161.9 222.95 161.8 223.2 161.45 223.45 161.05 223.5 161.0 223.85 161.7 223.75 161.8 223.2 162.65 223.0 163.1 Q222.5 163.95 222.15 164.95 L222.0 166.4 M227.95 172.05 L226.0 171.8 Q224.7 171.5 223.95 170.3 L223.0 168.45 Q222.65 167.2 222.9 165.6 L223.65 164.05 223.8 164.15 223.95 163.95 Q224.25 163.6 224.7 163.45 L224.95 163.35 Q223.8 165.3 224.15 167.4 L224.15 167.45 Q224.2 167.9 224.6 168.75 225.6 170.7 227.1 171.05 L228.95 171.1 228.95 171.3 227.95 172.05" fill="#fcd67c" fill-rule="evenodd" stroke="none"/>
    <path d="M221.6 165.45 L220.2 162.55 220.2 162.45 220.15 162.45 Q219.55 161.1 220.15 159.55 L221.0 157.55 Q220.95 158.1 221.55 158.55 L222.0 157.9 222.2 158.3 223.45 161.05 223.2 161.45 222.95 161.8 222.9 161.9 222.65 162.3 221.7 164.4 221.6 165.45 M240.7 158.0 L241.0 158.55 241.05 158.85 Q241.5 160.5 241.05 162.2 L240.8 162.1 240.8 161.85 240.75 161.45 Q240.55 160.55 239.75 161.2 L239.4 161.6 239.35 161.95 239.25 161.9 239.1 160.0 Q238.75 158.9 237.25 158.05 L237.25 158.0 237.1 157.95 236.45 157.85 232.35 158.05 232.4 156.4 237.5 156.1 Q239.9 156.75 240.7 158.0 M223.0 168.45 L222.0 166.4 222.15 164.95 Q222.5 163.95 223.0 163.1 L223.2 162.65 223.65 164.0 223.65 164.05 222.9 165.6 Q222.65 167.2 223.0 168.45 M221.55 158.55 L221.2 159.25 220.4 161.05 220.2 162.45 220.4 161.05 221.2 159.25 221.55 158.55" fill="#f4ffc8" fill-rule="evenodd" stroke="none"/>
    <path d="M221.0 157.55 Q222.0 155.85 223.55 154.35 226.3 152.0 229.65 150.35 L230.2 151.5 Q226.75 153.2 223.9 155.65 222.85 156.7 222.0 157.9 L221.55 158.55 Q220.95 158.1 221.0 157.55 M223.2 162.65 L223.75 161.8 223.85 161.7 225.7 159.5 Q228.5 157.05 232.0 155.35 L232.4 156.4 Q228.75 158.1 226.35 160.45 224.75 162.05 223.75 163.85 L223.65 164.0 223.2 162.65 M223.5 161.0 L223.45 161.05 222.2 158.3 225.6 154.7 Q228.15 152.95 230.75 151.8 L231.75 151.6 232.75 154.3 231.8 154.5 Q228.25 156.2 225.5 158.65 L223.5 160.9 223.5 161.0" fill="#ebb029" fill-rule="evenodd" stroke="none"/>
    <path d="M223.85 161.7 L223.5 161.0 223.5 160.9 225.5 158.65 Q228.25 156.2 231.8 154.5 L232.75 154.3 233.05 155.1 232.0 155.35 Q228.5 157.05 225.7 159.5 L223.85 161.7 M222.2 158.3 L222.0 157.9 Q222.85 156.7 223.9 155.65 226.75 153.2 230.2 151.5 L231.65 151.2 231.75 151.6 230.75 151.8 Q228.15 152.95 225.6 154.7 L222.2 158.3" fill="#a3782d" fill-rule="evenodd" stroke="none"/>
    <path d="M230.6 171.55 L227.95 172.05 228.95 171.3 228.95 171.1 227.1 171.05 Q225.6 170.7 224.6 168.75 224.2 167.9 224.15 167.45 L224.15 167.4 Q223.8 165.3 224.95 163.35 225.25 163.35 225.25 163.75 L225.2 164.35 225.15 164.6 224.95 165.0 224.9 165.3 224.9 165.35 Q224.7 166.25 224.8 166.95 224.9 167.85 225.35 168.6 226.15 169.95 227.75 170.4 L228.65 170.4 229.15 170.3 232.1 169.7 Q231.9 170.75 230.6 171.55" fill="#edb848" fill-rule="evenodd" stroke="none"/>
    <path d="M241.05 162.2 L240.8 163.0 Q239.75 165.3 238.0 167.25 L237.35 168.0 Q234.75 170.2 232.15 171.2 L230.6 171.55 Q231.9 170.75 232.1 169.7 234.1 168.9 236.15 167.15 L236.95 166.3 Q238.15 164.9 238.85 163.25 L239.25 161.9 239.35 161.95 239.4 161.6 239.75 161.2 Q240.55 160.55 240.75 161.45 L240.8 161.85 240.8 162.1 241.05 162.2 M225.15 164.6 L225.2 164.35 225.25 163.75 Q225.25 163.35 224.95 163.35 L224.7 163.45 Q224.25 163.6 223.95 163.95 L223.8 164.15 223.65 164.05 223.65 164.0 223.75 163.85 Q224.75 162.05 226.35 160.45 228.75 158.1 232.4 156.4 L232.35 158.05 Q229.4 159.15 227.55 161.2 L225.85 163.25 225.15 164.6" fill="#e7ff84" fill-rule="evenodd" stroke="none"/>
    <path d="M239.25 161.9 L238.85 163.25 Q238.15 164.9 236.95 166.3 L236.15 167.15 234.1 162.5 234.0 162.2 232.5 163.3 232.25 162.7 233.9 161.45 Q235.5 159.85 236.45 157.85 L237.1 157.95 237.25 158.0 237.25 158.05 Q238.75 158.9 239.1 160.0 L239.25 161.9" fill="#614718" fill-rule="evenodd" stroke="none"/>
    <path d="M232.25 162.7 L232.5 163.3 230.35 164.5 230.3 164.5 Q228.5 165.3 227.15 165.4 L229.15 170.3 228.65 170.4 227.75 170.4 Q226.15 169.95 225.35 168.6 224.9 167.85 224.8 166.95 224.7 166.25 224.9 165.35 L224.9 165.3 224.95 165.0 225.15 164.6 225.65 164.7 226.95 164.65 228.95 164.25 230.1 163.85 232.25 162.7" fill="#cb9d49" fill-rule="evenodd" stroke="none"/>
    <path d="M232.5 163.3 L234.0 162.2 234.1 162.5 236.15 167.15 Q234.1 168.9 232.1 169.7 L230.3 164.5 230.35 164.5 232.5 163.3" fill="#70521c" fill-rule="evenodd" stroke="none"/>
    <path d="M229.15 170.3 L227.15 165.4 Q228.5 165.3 230.3 164.5 L232.1 169.7 229.15 170.3" fill="#a4792e" fill-rule="evenodd" stroke="none"/>
    <path d="M229.65 150.35 L235.75 150.15 Q237.55 151.2 238.15 152.4 L238.15 152.45 236.6 151.35 235.55 151.2 Q233.55 150.9 231.65 151.2 L230.2 151.5 229.65 150.35 M238.7 153.55 L238.75 153.65 239.25 154.75 238.45 154.35 237.4 154.1 233.1 154.2 232.75 154.3 231.75 151.6 231.95 151.6 236.3 152.0 Q238.25 152.7 238.7 153.55 M239.9 156.25 L240.7 158.0 Q239.9 156.75 237.5 156.1 L232.4 156.4 232.0 155.35 233.05 155.1 237.3 155.0 238.35 155.25 239.9 156.25" fill="#ab7c10" fill-rule="evenodd" stroke="none"/>
    <path d="M238.2 152.5 L238.7 153.55 Q238.25 152.7 236.3 152.0 L231.95 151.6 231.75 151.6 231.65 151.2 Q233.55 150.9 235.55 151.2 L236.6 151.35 238.15 152.45 238.2 152.5 M239.25 154.75 L239.9 156.25 238.35 155.25 237.3 155.0 233.05 155.1 232.75 154.3 233.1 154.2 237.4 154.1 238.45 154.35 239.25 154.75" fill="#7d5b22" fill-rule="evenodd" stroke="none"/>
    <path d="M222.0 166.4 L221.6 165.45 220.2 162.55 220.15 162.45 Q219.55 161.1 220.15 159.55 L221.0 157.55 Q222.0 155.85 223.55 154.35 226.3 152.0 229.65 150.35 L235.75 150.15 Q237.55 151.2 238.15 152.4 L238.2 152.5 238.7 153.55 M238.75 153.65 L239.25 154.75 239.9 156.25 240.7 158.0 241.0 158.55 241.05 158.85 Q241.5 160.5 241.05 162.2 L240.8 163.0 Q239.75 165.3 238.0 167.25 L237.35 168.0 Q234.75 170.2 232.15 171.2 L230.6 171.55 227.95 172.05 226.0 171.8 Q224.7 171.5 223.95 170.3 L223.0 168.45 222.0 166.4 M220.2 162.45 L220.2 162.55 M233.9 161.45 L232.25 162.7 230.1 163.85 228.95 164.25 226.95 164.65 225.65 164.7 225.15 164.6 225.85 163.25 227.55 161.2 Q229.4 159.15 232.35 158.05 L236.45 157.85 M223.65 164.0 L223.65 164.05 M238.15 152.45 L238.2 152.5 M233.05 155.1 L237.3 155.0 238.35 155.25 239.9 156.25" fill="none" stroke="#634819" stroke-linecap="round" stroke-linejoin="round" stroke-width="0.1"/>
    <path d="M220.2 162.45 L220.4 161.05 221.2 159.25 221.55 158.55 222.0 157.9 Q222.85 156.7 223.9 155.65 226.75 153.2 230.2 151.5 L231.65 151.2 Q233.55 150.9 235.55 151.2 L236.6 151.35 238.15 152.45" fill="none" stroke="#463311" stroke-linecap="round" stroke-linejoin="round" stroke-opacity="0.2" stroke-width="0.1"/>
    <path d="M236.15 167.15 L236.95 166.3 Q238.15 164.9 238.85 163.25 L239.25 161.9 239.1 160.0 Q238.75 158.9 237.25 158.05 L237.25 158.0 237.1 157.95 236.45 157.85 Q235.5 159.85 233.9 161.45 M236.15 167.15 Q234.1 168.9 232.1 169.7" fill="none" stroke="#634819" stroke-linecap="round" stroke-linejoin="round" stroke-width="0.1"/>
    <path d="M238.3 156.3 Q249.1 151.75 260.0 156.25 270.9 160.7 275.5 171.65 280.05 182.55 275.65 193.5 271.2 204.4 260.4 208.95 249.55 213.5 238.65 209.05 227.75 204.5 223.2 193.6 218.6 182.7 223.05 171.8 227.45 160.85 238.3 156.3" fill="url(#gradient0)" fill-rule="evenodd" stroke="none"/>
    <path d="M238.3 156.3 Q249.1 151.75 260.0 156.25 270.9 160.7 275.5 171.65 280.05 182.55 275.65 193.5 271.2 204.4 260.4 208.95 249.55 213.5 238.65 209.05 227.75 204.5 223.2 193.6 218.6 182.7 223.05 171.8 227.45 160.85 238.3 156.3 Z" fill="none" stroke="#000000" stroke-linecap="round" stroke-linejoin="round" stroke-width="1.5"/>
    <path d="M221.95 178.3 L227.3 168.3 Q230.8 172.6 235.6 174.6 L237.8 175.3 243.8 175.65 245.6 170.55 242.45 170.05 239.4 171.3 248.3 164.65 257.6 170.3 257.55 167.25 Q260.45 167.45 262.15 169.5 264.65 172.8 263.05 176.4 262.8 176.9 262.7 177.45 L262.65 178.4 262.85 179.2 263.95 179.8 Q264.35 180.1 264.85 180.1 L272.9 179.9 273.25 187.95 269.7 192.9 Q265.7 188.5 260.25 187.05 257.5 186.35 254.95 187.05 252.8 187.65 251.15 188.95 L248.85 183.5 Q242.05 182.35 238.15 188.0 L238.6 197.3 233.85 199.35 234.9 201.9 226.0 193.1 230.7 186.75 226.4 176.45 221.95 178.3" fill="#ec9cf3" fill-opacity="0.4509804" fill-rule="evenodd" stroke="none"/>
    <path d="M239.75 182.45 Q240.5 180.6 242.35 179.85 244.15 179.05 246.0 179.8 247.8 180.55 248.6 182.4 L248.75 182.8 248.65 182.8 Q247.75 183.15 247.4 184.05 247.05 184.85 247.4 185.7 L248.3 186.7 Q247.5 188.05 246.05 188.7 244.2 189.45 242.35 188.7 240.5 187.95 239.75 186.1 239.0 184.25 239.75 182.45" fill="#ffffff" fill-opacity="0.7019608" fill-rule="evenodd" stroke="none"/>
    <path d="M252.9 183.1 Q253.75 183.4 254.1 184.25 254.45 185.1 254.1 185.95 L252.85 187.2 Q251.95 187.55 251.1 187.2 L250.75 187.05 Q250.15 186.7 249.9 186.05 249.5 185.2 249.9 184.35 250.25 183.5 251.15 183.15 L251.2 183.1 Q252.05 182.75 252.9 183.1" fill="#ffffff" fill-rule="evenodd" stroke="none"/>
    <path d="M233.25 162.65 L232.95 163.15 233.0 163.1 233.25 162.65 M272.25 168.55 L275.15 174.3 Q275.7 176.65 275.75 179.05 275.8 181.75 275.1 184.5 274.4 187.3 272.95 190.15 L271.75 192.2 Q270.3 194.55 268.45 196.6 265.5 199.8 261.6 202.2 L259.15 203.55 256.85 204.6 253.35 205.85 Q248.3 207.4 243.4 207.3 L241.45 207.15 236.4 206.2 235.35 205.95 Q231.55 204.75 228.65 202.85 225.85 200.95 223.9 198.4 222.05 196.15 220.9 193.35 L220.1 191.05 Q219.1 187.75 219.2 184.45 219.25 182.15 219.9 179.8 220.55 177.05 222.0 174.25 L222.55 173.3 Q225.85 168.25 230.05 164.85 233.7 161.3 242.3 158.35 L242.6 158.3 242.85 158.2 243.1 158.1 Q246.4 157.25 249.75 157.15 L251.2 157.1 Q255.55 157.3 260.15 159.2 263.35 160.45 265.8 162.0 270.4 164.85 272.25 168.5 L272.25 168.55 M239.0 163.2 L235.3 165.15 Q229.15 168.9 225.95 175.15 225.15 176.6 224.65 178.05 222.2 184.8 224.9 191.2 226.9 195.9 230.9 198.75 L231.1 198.9 231.35 199.05 232.5 199.75 236.2 201.4 236.4 201.5 237.1 201.75 242.65 202.75 Q248.7 203.2 255.0 200.7 L255.4 200.5 Q262.0 197.7 266.1 192.75 267.75 190.7 269.0 188.35 L269.7 186.8 Q270.8 184.25 271.25 181.7 L271.4 179.15 Q271.4 175.65 270.0 172.25 266.7 164.45 257.8 161.75 248.9 159.0 239.6 162.95 L239.0 163.2" fill="url(#gradient1)" fill-rule="evenodd" stroke="none"/>
    <path d="M265.8 162.0 Q262.5 159.4 258.25 157.8 247.3 153.65 236.25 158.3 225.2 162.9 220.5 173.65 215.8 184.35 220.2 194.9 224.65 205.45 235.6 209.65 246.55 213.75 257.6 209.1 263.75 206.5 267.95 202.05 264.5 204.9 260.0 206.8 249.6 211.15 239.55 207.9 L235.55 206.25 M272.25 168.55 Q274.55 171.1 276.0 174.5 279.8 183.55 275.1 193.0 272.45 198.35 267.95 202.05" fill="none" stroke="#238156" stroke-linecap="round" stroke-linejoin="round" stroke-opacity="0.6313726" stroke-width="0.5"/>
    <path d="M236.9 215.15 L236.65 215.2" fill="none" stroke="#448463" stroke-linecap="round" stroke-linejoin="round" stroke-opacity="0.27058825" stroke-width="0.5"/>
    <path d="M239.15 154.5 L239.8 154.35 239.05 154.55 239.15 154.5 M236.9 155.35 L243.75 155.95 244.0 157.75 243.95 158.45 Q240.95 159.05 237.95 160.35 L237.4 160.55 Q238.75 159.35 238.1 157.35 237.75 156.25 236.8 155.4 L236.9 155.35 M250.3 157.4 L253.3 153.9 253.55 154.0 256.4 155.3 Q256.4 157.0 256.75 158.65 L256.75 158.75 Q253.4 157.85 250.05 157.85 L250.3 157.4 M226.1 162.2 L225.45 162.8 225.3 162.65 Q225.65 162.45 226.1 162.2 M226.45 163.9 L226.75 163.75 226.5 163.9 226.45 163.9" fill="url(#gradient2)" fill-rule="evenodd" stroke="none"/>
    <path d="M239.15 154.5 L239.05 154.55 239.8 154.35 239.15 154.5 M239.05 151.2 L240.4 151.0 Q246.45 150.05 247.75 144.6 L253.55 154.0 247.75 144.6 247.95 143.8 Q248.1 142.5 249.25 142.35 254.2 141.7 258.25 145.4 L262.65 153.7 256.65 154.65 256.4 155.3 253.55 154.0 253.3 153.9 250.3 157.4 243.75 155.95 236.9 155.35 237.8 155.0 238.25 154.85 238.6 154.7 236.45 155.3 239.05 151.2 M225.4 162.05 Q227.0 161.0 228.8 160.6 L233.5 160.45 233.65 160.45 Q234.95 160.65 236.0 161.2 233.15 162.6 230.85 164.4 L228.0 166.9 Q227.85 166.0 227.3 165.1 L226.55 164.0 227.3 165.1 Q227.85 166.0 228.0 166.9 224.85 170.05 222.85 174.15 221.2 177.4 220.6 180.65 L218.1 181.4 217.9 181.35 Q206.45 172.2 216.05 169.75 225.65 167.3 227.3 165.3 L226.55 164.0 226.75 163.75 226.45 163.9 225.6 162.95 226.1 162.2 Q225.65 162.45 225.3 162.65 L224.95 162.4 225.4 162.05 M227.85 165.0 Q229.2 164.15 230.85 164.4 229.2 164.15 227.85 165.0 M221.35 191.1 L221.9 192.65 Q223.05 195.4 224.8 197.6 223.8 197.9 222.65 197.0 221.0 195.55 220.7 193.7 220.45 192.25 221.35 191.1 M258.3 202.85 L261.7 200.85 263.15 201.2 Q264.9 201.65 266.5 202.65 L267.0 203.0 268.7 204.6 268.85 204.8 270.75 204.05 274.7 203.75 276.3 204.0 276.9 202.65 Q277.35 200.65 277.1 198.75 L276.95 197.7 279.4 196.8 Q281.95 195.75 284.2 194.2 L286.15 192.7 285.35 195.3 283.75 199.05 282.35 201.8 281.85 202.1 278.0 204.55 278.6 204.85 279.85 205.55 276.9 209.1 275.95 242.25 275.65 242.45 275.5 242.3 262.2 215.15 262.3 213.15 Q262.55 211.15 263.65 209.45 L263.7 209.35 Q262.15 208.0 259.55 207.9 L259.1 207.9 259.2 206.3 259.1 205.55 258.3 202.85 M273.3 184.55 Q273.9 181.95 273.9 179.45 275.2 180.15 276.8 180.25 276.95 181.5 277.25 182.75 277.55 184.05 278.15 185.2 277.55 184.05 277.25 182.75 276.95 181.5 276.8 180.25 L276.7 177.95 Q276.7 176.4 276.85 174.9 L277.0 172.9 Q277.15 171.3 277.7 169.85 L278.1 168.9 Q278.4 168.1 278.95 167.55 L279.2 167.35 Q279.8 166.75 279.95 165.6 280.1 164.45 279.25 163.5 L278.2 162.35 278.6 162.7 285.25 164.65 292.5 166.65 291.2 167.2 278.95 167.55 291.2 167.2 292.5 166.65 Q298.65 168.0 304.2 167.75 L303.35 168.05 300.45 168.8 300.15 168.85 298.35 169.1 298.6 169.2 298.15 169.25 297.85 169.35 297.7 169.45 298.1 169.35 298.2 169.4 297.9 169.45 298.3 169.4 295.4 170.05 293.5 170.5 291.2 171.1 293.5 170.5 292.4 170.8 291.2 171.1 284.45 173.15 284.1 173.3 Q282.2 174.2 281.45 176.5 280.95 178.05 281.4 179.75 281.85 181.5 282.8 183.2 L284.55 185.65 Q286.0 187.4 287.0 186.75 L287.15 187.15 286.7 190.5 284.45 190.7 Q283.05 190.4 281.9 189.6 L280.8 188.7 279.05 186.75 278.15 185.2 Q276.5 185.95 274.65 185.15 L273.3 184.55 M302.9 168.35 L302.1 168.5 302.7 168.35 302.9 168.35 M287.2 187.15 L287.05 186.75 287.2 186.55 287.2 187.15 M276.9 209.1 L276.9 208.8 276.8 209.0 276.9 209.1 M278.0 204.55 L276.3 204.0 278.0 204.55 M268.85 204.8 Q267.75 205.3 266.8 206.05 264.9 207.4 263.7 209.35 264.9 207.4 266.8 206.05 267.75 205.3 268.85 204.8 M246.35 209.7 L246.5 209.6 249.25 208.25 250.5 207.2 Q251.25 208.35 251.15 209.65 L250.6 211.5 249.55 213.25 247.45 215.65 Q245.75 217.15 243.55 217.5 L243.5 217.55 Q241.45 217.75 239.45 216.95 L237.05 215.6 235.85 214.55 Q237.45 214.45 239.15 213.0 L239.25 212.95 Q239.9 213.7 240.8 214.0 242.1 214.45 243.85 213.7 245.4 213.0 246.0 211.85 246.45 210.9 246.35 209.7" fill="url(#gradient3)" fill-rule="evenodd" stroke="none"/>
    <path d="M247.75 144.6 Q246.45 150.05 240.4 151.0 L239.05 151.2 251.15 132.0 258.25 145.4 Q254.2 141.7 249.25 142.35 248.1 142.5 247.95 143.8 L247.75 144.6" fill="url(#gradient4)" fill-rule="evenodd" stroke="none"/>
    <path d="M243.75 155.95 L250.3 157.4 250.05 157.85 243.95 158.45 244.0 157.75 243.75 155.95 M233.5 160.45 Q234.95 158.6 233.85 156.7 234.95 156.15 236.1 155.7 L236.8 155.4 Q237.75 156.25 238.1 157.35 238.75 159.35 237.4 160.55 L236.0 161.2 Q234.95 160.65 233.65 160.45 L233.5 160.45 M267.05 196.25 Q268.9 194.2 270.3 191.8 272.3 192.65 274.5 192.15 277.15 191.55 279.3 190.0 L280.8 188.7 281.9 189.6 Q283.05 190.4 284.45 190.7 L286.7 190.5 286.15 192.7 284.2 194.2 Q281.95 195.75 279.4 196.8 L276.95 197.7 275.05 198.25 271.8 198.95 267.95 198.8 267.05 196.25 M273.9 179.45 Q273.85 175.45 272.2 171.5 270.95 168.55 269.0 166.2 L269.25 166.15 271.55 165.95 271.6 165.35 Q271.6 165.1 271.75 165.05 L271.95 164.8 272.4 165.4 274.55 168.15 Q276.15 169.9 277.7 169.85 277.15 171.3 277.0 172.9 L276.85 174.9 Q274.7 174.35 273.3 171.85 272.1 169.5 271.6 167.0 L271.55 165.95 271.6 167.0 Q272.1 169.5 273.3 171.85 274.7 174.35 276.85 174.9 276.7 176.4 276.7 177.95 L276.8 180.25 Q275.2 180.15 273.9 179.45 M260.2 159.9 L258.35 159.25 256.75 158.75 256.75 158.65 Q256.4 157.0 256.4 155.3 L256.65 154.65 262.65 153.7 262.75 153.7 Q262.0 154.35 261.45 155.5 260.75 156.75 260.5 158.2 L260.2 159.9 M253.4 226.25 Q250.2 224.05 249.6 223.95 L249.0 223.8 247.95 223.45 247.85 223.45 247.1 223.3 Q245.15 222.45 243.5 217.55 L243.55 217.5 Q245.75 217.15 247.45 215.65 L249.55 213.25 Q251.55 213.85 253.25 215.45 L254.1 216.3 254.55 216.7 261.55 227.95 264.45 232.6 266.1 235.45 264.45 232.6 266.3 235.6 266.1 235.45 Q257.5 229.05 253.4 226.25 M248.8 214.8 L249.95 223.75 248.8 214.8" fill="url(#gradient5)" fill-rule="evenodd" stroke="none"/>
    <path d="M233.85 156.7 Q234.95 158.6 233.5 160.45 L228.8 160.6 Q227.0 161.0 225.4 162.05 229.15 158.95 233.85 156.7 M220.6 180.65 Q220.2 182.7 220.25 184.7 220.25 187.9 221.35 191.1 220.45 192.25 220.7 193.7 221.0 195.55 222.65 197.0 223.8 197.9 224.8 197.6 226.75 200.05 229.4 201.85 228.5 203.05 226.75 203.25 L226.6 203.3 222.7 203.05 Q221.25 202.65 220.0 201.95 218.6 201.1 217.65 199.95 216.5 198.55 215.9 196.95 214.0 197.65 212.75 199.05 211.8 196.05 211.5 193.0 L212.05 192.85 212.1 192.8 212.25 192.8 212.1 192.8 212.05 192.85 211.5 193.0 211.45 192.2 188.75 173.9 217.9 181.35 218.1 181.4 220.6 180.65 M252.05 205.25 L256.2 203.8 258.3 202.85 259.1 205.55 259.2 206.3 259.1 207.9 259.55 207.9 Q262.15 208.0 263.7 209.35 L263.65 209.45 Q262.55 211.15 262.3 213.15 L262.2 215.15 256.85 214.85 256.85 214.9 254.8 216.65 254.65 216.8 254.6 216.5 254.55 216.7 254.6 216.5 254.65 216.8 254.8 216.65 256.85 214.9 256.85 214.85 257.15 214.4 Q258.55 212.1 259.3 209.55 L259.55 208.45 259.3 209.55 Q258.55 212.1 257.15 214.4 L256.85 214.85 262.2 215.15 275.5 242.3 253.4 226.25 Q257.5 229.05 266.1 235.45 L266.3 235.6 264.45 232.6 261.55 227.95 254.55 216.7 254.1 216.3 253.25 215.45 Q251.55 213.85 249.55 213.25 L250.6 211.5 251.15 209.65 Q251.25 208.35 250.5 207.2 L251.55 206.05 252.05 205.25 M261.7 200.85 L264.15 199.05 267.05 196.25 267.95 198.8 271.8 198.95 275.05 198.25 276.95 197.7 277.1 198.75 Q277.35 200.65 276.9 202.65 L276.3 204.0 274.7 203.75 270.75 204.05 268.85 204.8 268.7 204.6 267.0 203.0 Q268.4 201.3 268.0 199.0 L267.95 198.8 268.0 199.0 Q268.4 201.3 267.0 203.0 L266.5 202.65 Q264.9 201.65 263.15 201.2 L261.7 200.85 M270.3 191.8 L271.3 190.0 Q272.65 187.25 273.3 184.55 L274.65 185.15 Q276.5 185.95 278.15 185.2 L279.05 186.75 280.8 188.7 279.3 190.0 Q277.15 191.55 274.5 192.15 272.3 192.65 270.3 191.8 M269.0 166.2 L266.5 163.65 Q264.8 162.2 262.8 161.1 L262.35 160.9 260.2 159.9 260.5 158.2 Q260.75 156.75 261.45 155.5 262.0 154.35 262.75 153.7 L265.0 154.45 268.65 155.85 268.9 157.8 269.0 158.25 Q265.7 158.55 263.45 160.55 L262.8 161.1 263.45 160.55 Q265.7 158.55 269.0 158.25 L268.9 157.8 268.65 155.85 Q273.2 157.9 276.7 161.0 L278.2 162.35 279.25 163.5 Q280.1 164.45 279.95 165.6 279.8 166.75 279.2 167.35 276.85 165.95 276.6 162.85 L276.7 161.0 276.6 162.85 Q276.85 165.95 279.2 167.35 L278.95 167.55 Q278.4 168.1 278.1 168.9 L277.7 169.85 Q276.15 169.9 274.55 168.15 L272.4 165.4 271.95 164.8 271.75 165.05 Q271.6 165.1 271.6 165.35 L271.55 165.95 269.25 166.15 269.0 166.2 M220.25 184.7 L219.5 184.8 Q218.0 185.15 217.15 186.3 215.85 187.9 215.4 190.05 215.1 191.4 215.1 192.7 L212.25 192.8 218.1 181.4 212.25 192.8 215.1 192.7 Q215.1 191.4 215.4 190.05 215.85 187.9 217.15 186.3 218.0 185.15 219.5 184.8 L220.25 184.7 M215.1 192.7 Q215.05 193.95 215.35 195.2 L215.9 196.95 215.35 195.2 Q215.05 193.95 215.1 192.7 M269.0 158.25 Q269.5 160.15 270.3 161.9 L271.95 164.8 270.3 161.9 Q269.5 160.15 269.0 158.25 M287.0 186.75 Q286.0 187.4 284.55 185.65 L282.8 183.2 Q281.85 181.5 281.4 179.75 280.95 178.05 281.45 176.5 282.2 174.2 284.1 173.3 L284.45 173.15 291.2 171.1 292.4 170.8 293.5 170.5 295.4 170.05 298.3 169.4 298.25 169.4 298.8 169.25 298.85 169.25 300.2 168.95 298.85 169.2 300.45 168.8 303.35 168.05 304.15 167.85 Q286.5 185.35 286.95 186.55 L287.05 186.75 287.2 187.15 287.15 187.15 287.0 186.75 287.05 186.75 287.0 186.75 M302.9 168.35 L302.7 168.35 302.1 168.5 302.9 168.35 M298.3 169.4 L298.85 169.25 298.3 169.4 M300.2 168.95 L302.1 168.5 300.2 168.95 M282.35 201.8 L279.85 205.55 278.6 204.85 278.0 204.55 281.85 202.1 282.35 201.8 M247.1 223.3 L239.5 221.5 239.45 221.4 238.7 220.75 238.45 220.45 238.9 220.85 237.05 218.7 235.5 216.25 234.55 214.6 235.85 214.55 237.05 215.6 239.45 216.95 Q241.45 217.75 243.5 217.55 245.15 222.45 247.1 223.3 M276.9 209.1 L276.8 209.0 276.9 208.8 276.9 209.1 M246.35 209.7 Q246.45 210.9 246.0 211.85 245.4 213.0 243.85 213.7 242.1 214.45 240.8 214.0 239.9 213.7 239.25 212.95 240.9 211.5 241.95 209.75 244.05 210.55 246.35 209.7 M254.65 216.8 L254.55 216.7 254.65 216.8 M261.55 227.95 L254.8 216.65 261.55 227.95 M239.45 221.4 L238.9 220.85 239.45 221.4" fill="url(#gradient6)" fill-rule="evenodd" stroke="none"/>
    <path d="M225.45 162.8 L225.6 162.95 226.45 163.9 226.5 163.9 226.55 164.0 227.3 165.3 Q225.65 167.3 216.05 169.75 206.45 172.2 217.9 181.35 L188.75 173.9 Q207.1 170.3 224.95 162.4 L225.3 162.65 225.45 162.8" fill="url(#gradient7)" fill-rule="evenodd" stroke="none"/>
    <path d="M226.5 163.9 L226.75 163.75 226.55 164.0 226.5 163.9" fill="url(#gradient8)" fill-rule="evenodd" stroke="none"/>
    <path d="M243.25 206.3 Q247.6 206.45 252.05 205.25 L251.55 206.05 250.5 207.2 249.25 208.25 246.5 209.6 246.35 209.7 Q244.05 210.55 241.95 209.75 L242.45 208.75 243.25 206.3" fill="url(#gradient9)" fill-rule="evenodd" stroke="none"/>
    <path d="M229.4 201.85 Q232.15 203.75 235.75 204.9 L236.0 205.0 236.8 205.25 Q236.75 206.65 236.15 208.05 234.9 211.0 231.9 211.1 L231.2 210.5 Q229.65 209.1 227.85 208.2 229.1 206.2 227.55 204.3 L226.6 203.3 226.75 203.25 Q228.5 203.05 229.4 201.85" fill="url(#gradient10)" fill-rule="evenodd" stroke="none"/>
    <path d="M236.8 205.25 Q240.0 206.15 243.25 206.3 L242.45 208.75 241.95 209.75 Q240.9 211.5 239.25 212.95 L239.15 213.0 Q237.45 214.45 235.85 214.55 L234.55 214.6 Q233.4 212.65 231.9 211.1 234.9 211.0 236.15 208.05 236.75 206.65 236.8 205.25" fill="url(#gradient11)" fill-rule="evenodd" stroke="none"/>
    <path d="M212.75 199.05 Q214.0 197.65 215.9 196.95 216.5 198.55 217.65 199.95 218.6 201.1 220.0 201.95 221.25 202.65 222.7 203.05 L226.6 203.3 227.55 204.3 Q229.1 206.2 227.85 208.2 L226.5 207.6 Q224.2 206.65 221.65 207.5 L221.0 207.7 220.6 207.9 Q219.2 205.5 216.85 204.5 L214.85 204.2 213.9 202.15 212.75 199.05" fill="url(#gradient12)" fill-rule="evenodd" stroke="none"/>
    <path d="M239.5 221.5 L238.9 221.5 237.25 221.2 Q230.75 223.45 208.6 234.3 219.15 208.8 220.6 207.9 L221.0 207.7 221.65 207.5 Q224.2 206.65 226.5 207.6 L227.85 208.2 Q229.65 209.1 231.2 210.5 L231.9 211.1 Q233.4 212.65 234.55 214.6 L235.5 216.25 237.05 218.7 238.9 220.85 238.45 220.45 238.7 220.75 239.45 221.4 239.5 221.5 M224.8 214.0 L221.0 207.7 224.8 214.0 224.85 214.05 Q225.3 215.1 229.5 218.45 L229.85 218.6 230.25 218.75 230.5 218.9 233.05 219.9 233.3 220.0 233.45 220.05 233.6 220.1 234.45 220.35 234.7 220.4 234.5 220.35 234.45 220.3 234.4 220.25 233.9 219.65 233.1 218.45 232.5 217.5 Q231.2 215.6 229.45 214.2 227.15 212.3 224.9 213.65 224.7 213.7 224.8 214.0 M237.95 220.95 L234.4 220.25 237.95 220.95 M229.5 218.45 Q229.8 218.7 230.25 218.75 229.8 218.7 229.5 218.45" fill="url(#gradient13)" fill-rule="evenodd" stroke="none"/>
    <path d="M224.8 214.0 Q224.7 213.7 224.9 213.65 227.15 212.3 229.45 214.2 231.2 215.6 232.5 217.5 L233.1 218.45 233.9 219.65 234.4 220.25 233.45 220.05 234.4 220.25 234.45 220.3 234.5 220.35 234.45 220.35 233.6 220.1 233.45 220.05 233.3 220.0 233.05 219.9 230.5 218.9 230.25 218.75 229.85 218.6 229.5 218.45 Q225.3 215.1 224.85 214.05 L224.8 214.0 M233.05 219.9 L230.25 218.75 233.05 219.9" fill="url(#gradient14)" fill-rule="evenodd" stroke="none"/>
    <path d="M208.6 234.3 Q216.6 207.75 214.85 204.2 L216.85 204.5 Q219.2 205.5 220.6 207.9 219.15 208.8 208.6 234.3" fill="url(#gradient15)" fill-rule="evenodd" stroke="none"/>
    <path d="M247.75 144.6 Q246.45 150.05 240.4 151.0 L239.05 151.2 M236.9 155.35 L243.75 155.95 250.3 157.4 253.3 153.9 253.55 154.0 247.75 144.6 247.95 143.8 Q248.1 142.5 249.25 142.35 254.2 141.7 258.25 145.4 M243.95 158.45 L244.0 157.75 243.75 155.95 M233.5 160.45 Q234.95 158.6 233.85 156.7 M225.4 162.05 Q227.0 161.0 228.8 160.6 L233.5 160.45 233.65 160.45 Q234.95 160.65 236.0 161.2 M237.4 160.55 Q238.75 159.35 238.1 157.35 237.75 156.25 236.8 155.4 M236.9 155.35 L236.45 155.3 M230.85 164.4 Q229.2 164.15 227.85 165.0 M225.45 162.8 L225.6 162.95 226.1 162.2 M225.3 162.65 L225.45 162.8 M226.45 163.9 L225.6 162.95 M226.75 163.75 L226.45 163.9 226.5 163.9 226.55 164.0 227.3 165.1 Q227.85 166.0 228.0 166.9 M226.75 163.75 L226.55 164.0 227.3 165.3 Q225.65 167.3 216.05 169.75 206.45 172.2 217.9 181.35 L188.75 173.9 M225.3 162.65 L224.95 162.4 M220.6 180.65 L218.1 181.4 212.25 192.8 215.1 192.7 Q215.1 191.4 215.4 190.05 215.85 187.9 217.15 186.3 218.0 185.15 219.5 184.8 L220.25 184.7 M218.1 181.4 L217.9 181.35 M212.25 192.8 L212.1 192.8 212.05 192.85 211.5 193.0 M212.75 199.05 Q214.0 197.65 215.9 196.95 L215.35 195.2 Q215.05 193.95 215.1 192.7 M221.35 191.1 Q220.45 192.25 220.7 193.7 221.0 195.55 222.65 197.0 223.8 197.9 224.8 197.6 M262.8 161.1 L263.45 160.55 Q265.7 158.55 269.0 158.25 L268.9 157.8 268.65 155.85 M262.75 153.7 Q262.0 154.35 261.45 155.5 260.75 156.75 260.5 158.2 L260.2 159.9 M269.0 166.2 L269.25 166.15 271.55 165.95 271.6 165.35 Q271.6 165.1 271.75 165.05 L271.95 164.8 270.3 161.9 Q269.5 160.15 269.0 158.25 M276.85 174.9 Q274.7 174.35 273.3 171.85 272.1 169.5 271.6 167.0 L271.55 165.95 M277.7 169.85 Q276.15 169.9 274.55 168.15 L272.4 165.4 271.95 164.8 M279.2 167.35 Q279.8 166.75 279.95 165.6 280.1 164.45 279.25 163.5 M276.7 161.0 L276.6 162.85 Q276.85 165.95 279.2 167.35 L278.95 167.55 291.2 167.2 292.5 166.65 M276.85 174.9 L277.0 172.9 Q277.15 171.3 277.7 169.85 L278.1 168.9 Q278.4 168.1 278.95 167.55 M256.75 158.75 L256.75 158.65 Q256.4 157.0 256.4 155.3 L253.55 154.0 M262.65 153.7 L256.65 154.65 256.4 155.3 M250.3 157.4 L250.05 157.85 M278.15 185.2 Q277.55 184.05 277.25 182.75 276.95 181.5 276.8 180.25 275.2 180.15 273.9 179.45 M280.8 188.7 L279.05 186.75 278.15 185.2 Q276.5 185.95 274.65 185.15 L273.3 184.55 M276.8 180.25 L276.7 177.95 Q276.7 176.4 276.85 174.9 M287.0 186.75 Q286.0 187.4 284.55 185.65 L282.8 183.2 Q281.85 181.5 281.4 179.75 280.95 178.05 281.45 176.5 282.2 174.2 284.1 173.3 L284.45 173.15 291.2 171.1 293.5 170.5 295.4 170.05 298.3 169.4 297.9 169.45 298.2 169.4 298.1 169.35 M276.95 197.7 L279.4 196.8 Q281.95 195.75 284.2 194.2 L286.15 192.7 M286.7 190.5 L284.45 190.7 Q283.05 190.4 281.9 189.6 L280.8 188.7 279.3 190.0 Q277.15 191.55 274.5 192.15 272.3 192.65 270.3 191.8 M298.3 169.4 L298.25 169.4 298.2 169.4 M302.9 168.35 L302.7 168.35 302.1 168.5 302.9 168.35 M298.85 169.25 L298.8 169.25 298.25 169.4 M300.2 168.95 L298.85 169.25 298.3 169.4 M302.1 168.5 L300.2 168.95 M287.2 186.55 L287.05 186.75 287.0 186.75 M278.0 204.55 L281.85 202.1 282.35 201.8 M267.0 203.0 L268.7 204.6 268.85 204.8 270.75 204.05 274.7 203.75 276.3 204.0 276.9 202.65 Q277.35 200.65 277.1 198.75 L276.95 197.7 275.05 198.25 271.8 198.95 267.95 198.8 268.0 199.0 Q268.4 201.3 267.0 203.0 L266.5 202.65 Q264.9 201.65 263.15 201.2 L261.7 200.85 M278.0 204.55 L278.6 204.85 279.85 205.55 M276.3 204.0 L278.0 204.55 M262.2 215.15 L262.3 213.15 Q262.55 211.15 263.65 209.45 L263.7 209.35 Q262.15 208.0 259.55 207.9 L259.1 207.9 259.2 206.3 259.1 205.55 258.3 202.85 M263.7 209.35 Q264.9 207.4 266.8 206.05 267.75 205.3 268.85 204.8 M254.55 216.7 L254.6 216.5 254.65 216.8 254.8 216.65 256.85 214.9 256.85 214.85 257.15 214.4 Q258.55 212.1 259.3 209.55 L259.55 208.45 M250.5 207.2 L251.55 206.05 252.05 205.25 M250.5 207.2 L249.25 208.25 246.5 209.6 246.35 209.7 Q246.45 210.9 246.0 211.85 245.4 213.0 243.85 213.7 242.1 214.45 240.8 214.0 239.9 213.7 239.25 212.95 L239.15 213.0 Q237.45 214.45 235.85 214.55 L237.05 215.6 239.45 216.95 Q241.45 217.75 243.5 217.55 L243.55 217.5 Q245.75 217.15 247.45 215.65 L249.55 213.25 250.6 211.5 251.15 209.65 Q251.25 208.35 250.5 207.2 M249.55 213.25 Q251.55 213.85 253.25 215.45 L254.1 216.3 254.55 216.7 254.65 216.8 M256.85 214.85 L262.2 215.15 275.5 242.3 M264.45 232.6 L266.1 235.45 M264.45 232.6 L261.55 227.95 254.8 216.65 M249.95 223.75 L248.8 214.8 M241.95 209.75 L242.45 208.75 243.25 206.3 M236.8 205.25 Q236.75 206.65 236.15 208.05 234.9 211.0 231.9 211.1 233.4 212.65 234.55 214.6 L235.85 214.55 M227.85 208.2 Q229.1 206.2 227.55 204.3 L226.6 203.3 222.7 203.05 Q221.25 202.65 220.0 201.95 218.6 201.1 217.65 199.95 216.5 198.55 215.9 196.95 M227.85 208.2 L226.5 207.6 Q224.2 206.65 221.65 207.5 L221.0 207.7 224.8 214.0 Q224.7 213.7 224.9 213.65 227.15 212.3 229.45 214.2 231.2 215.6 232.5 217.5 L233.1 218.45 233.9 219.65 234.4 220.25 237.95 220.95 M229.4 201.85 Q228.5 203.05 226.75 203.25 L226.6 203.3 M231.9 211.1 L231.2 210.5 Q229.65 209.1 227.85 208.2 M224.8 214.0 L224.85 214.05 Q225.3 215.1 229.5 218.45 229.8 218.7 230.25 218.75 L233.05 219.9 233.3 220.0 233.45 220.05 234.4 220.25 234.45 220.3 234.5 220.35 M229.85 218.6 L230.25 218.75 M238.9 220.85 L237.05 218.7 235.5 216.25 234.55 214.6 M238.9 220.85 L239.45 221.4 M239.25 212.95 Q240.9 211.5 241.95 209.75 244.05 210.55 246.35 209.7 M220.6 207.9 Q219.2 205.5 216.85 204.5 L214.85 204.2 M221.0 207.7 L220.6 207.9 Q219.15 208.8 208.6 234.3 M267.05 196.25 L267.95 198.8" fill="none" stroke="#238156" stroke-linecap="round" stroke-linejoin="round" stroke-opacity="0.6313726" stroke-width="0.5"/>
    <path d="M189.4 174.6 Q190.45 174.9 189.25 174.4 200.25 177.7 206.05 179.05 211.85 180.35 216.45 185.25 221.0 190.1 217.65 190.65 L210.35 191.65 189.4 174.6 M278.75 183.15 L281.3 177.25 301.9 169.4 Q301.2 170.0 302.1 169.3 295.05 176.05 291.6 179.8 288.15 183.5 282.85 184.7 277.6 185.9 278.75 183.15 M275.1 241.95 L250.55 224.05 248.7 215.65 Q247.85 211.75 254.3 215.3 260.75 218.85 264.3 224.9 267.85 230.9 275.3 242.1 274.35 240.85 275.1 241.95 M215.3 205.45 L215.65 206.1 Q211.55 194.5 215.65 201.3 219.75 208.05 217.2 213.65 L210.0 229.5 Q210.5 228.2 210.0 229.35 215.1 213.05 215.3 205.45" fill="#ffffff" fill-opacity="0.48235294" fill-rule="evenodd" stroke="none"/>
    <path d="M251.15 132.25 Q254.45 139.05 256.25 142.2 L258.7 146.75 260.8 150.7 262.7 153.5 Q255.9 149.45 247.55 151.55 254.65 141.2 250.4 133.0 L251.15 132.25" fill="#67a42b" fill-opacity="0.5803922" fill-rule="evenodd" stroke="none"/>
    <path d="M233.8 164.9 L234.0 164.55 233.85 164.85 233.8 164.9" fill="#ffffff" fill-opacity="0.87058824" fill-rule="evenodd" stroke="none"/>
    <path d="M279.7 163.55 Q278.8 164.35 278.3 165.6 L277.9 167.0 Q273.35 159.6 262.25 153.75 273.6 157.35 279.7 163.55 M284.35 186.25 L287.15 187.3 Q286.45 193.9 283.0 200.75 279.5 207.65 274.05 213.05 277.45 208.65 279.8 203.4 284.0 194.0 283.5 184.85 L284.35 186.25" fill="#0c0c0c" fill-opacity="0.16078432" fill-rule="evenodd" stroke="none"/>
  </g>
  <defs>
    <radialGradient cx="0" cy="0" gradientTransform="matrix(-0.0111, -0.0183, 0.021, -0.0128, 244.8, 185.2)" gradientUnits="userSpaceOnUse" id="gradient0" r="819.2" spreadMethod="pad">
      <stop offset="0.18823529411764706" stop-color="#ffffff"/>
      <stop offset="0.7294117647058823" stop-color="#b53793"/>
      <stop offset="0.9803921568627451" stop-color="#522129"/>
    </radialGradient>
    <linearGradient gradientTransform="matrix(-0.0115, -0.0273, 0.0324, -0.0136, 247.45, 182.15)" gradientUnits="userSpaceOnUse" id="gradient1" spreadMethod="pad" x1="-819.2" x2="819.2">
      <stop offset="0.0" stop-color="#a8e38e"/>
      <stop offset="0.984313725490196" stop-color="#e1f0b9"/>
      <stop offset="1.0" stop-color="#a7d94a"/>
    </linearGradient>
    <linearGradient gradientTransform="matrix(-0.0162, -0.0385, 0.0433, -0.0182, 249.3, 187.2)" gradientUnits="userSpaceOnUse" id="gradient2" spreadMethod="pad" x1="-819.2" x2="819.2">
      <stop offset="0.47843137254901963" stop-color="#4acc9b"/>
      <stop offset="1.0" stop-color="#93d98c"/>
    </linearGradient>
    <linearGradient gradientTransform="matrix(-0.0162, -0.0385, 0.0433, -0.0182, 195.35, 217.65)" gradientUnits="userSpaceOnUse" id="gradient3" spreadMethod="pad" x1="-819.2" x2="819.2">
      <stop offset="0.0" stop-color="#49cda5"/>
      <stop offset="0.5843137254901961" stop-color="#a7d94a"/>
    </linearGradient>
    <linearGradient gradientTransform="matrix(-0.0237, -0.0042, 0.0082, -0.046, 246.75, 150.65)" gradientUnits="userSpaceOnUse" id="gradient4" spreadMethod="pad" x1="-819.2" x2="819.2">
      <stop offset="0.1843137254901961" stop-color="#30af89"/>
      <stop offset="0.6784313725490196" stop-color="#a7d94a"/>
    </linearGradient>
    <linearGradient gradientTransform="matrix(-0.0162, -0.0385, 0.0433, -0.0182, 249.3, 187.2)" gradientUnits="userSpaceOnUse" id="gradient5" spreadMethod="pad" x1="-819.2" x2="819.2">
      <stop offset="0.0" stop-color="#49cda5"/>
      <stop offset="0.23529411764705882" stop-color="#4fcd9f"/>
      <stop offset="0.6196078431372549" stop-color="#a7d94a"/>
    </linearGradient>
    <linearGradient gradientTransform="matrix(-0.0162, -0.0385, 0.0433, -0.0182, 216.85, 184.95)" gradientUnits="userSpaceOnUse" id="gradient6" spreadMethod="pad" x1="-819.2" x2="819.2">
      <stop offset="0.0" stop-color="#2fb093"/>
      <stop offset="1.0" stop-color="#a7d94a"/>
    </linearGradient>
    <linearGradient gradientTransform="matrix(-0.0043, -0.0102, 0.0219, -0.0092, 210.2, 174.7)" gradientUnits="userSpaceOnUse" id="gradient7" spreadMethod="pad" x1="-819.2" x2="819.2">
      <stop offset="0.8823529411764706" stop-color="#31ae7e"/>
      <stop offset="1.0" stop-color="#a7d94a"/>
    </linearGradient>
    <linearGradient gradientTransform="matrix(-0.0162, -0.0385, 0.0433, -0.0182, 249.3, 187.2)" gradientUnits="userSpaceOnUse" id="gradient8" spreadMethod="pad" x1="-819.2" x2="819.2">
      <stop offset="0.37254901960784315" stop-color="#1a5941"/>
      <stop offset="1.0" stop-color="#a7d94a"/>
    </linearGradient>
    <linearGradient gradientTransform="matrix(-0.0162, -0.0385, 0.0433, -0.0182, 249.3, 187.2)" gradientUnits="userSpaceOnUse" id="gradient9" spreadMethod="pad" x1="-819.2" x2="819.2">
      <stop offset="0.0" stop-color="#49cda5"/>
      <stop offset="0.48627450980392156" stop-color="#a7d94a"/>
    </linearGradient>
    <linearGradient gradientTransform="matrix(-0.0162, -0.0385, 0.0433, -0.0182, 249.3, 187.2)" gradientUnits="userSpaceOnUse" id="gradient10" spreadMethod="pad" x1="-819.2" x2="819.2">
      <stop offset="0.14901960784313725" stop-color="#49cda5"/>
      <stop offset="0.6549019607843137" stop-color="#a7d94a"/>
      <stop offset="0.7607843137254902" stop-color="#a7d94a"/>
    </linearGradient>
    <linearGradient gradientTransform="matrix(-0.0162, -0.0385, 0.0433, -0.0182, 249.3, 187.2)" gradientUnits="userSpaceOnUse" id="gradient11" spreadMethod="pad" x1="-819.2" x2="819.2">
      <stop offset="0.20392156862745098" stop-color="#49cda5"/>
      <stop offset="0.7607843137254902" stop-color="#a7d94a"/>
    </linearGradient>
    <linearGradient gradientTransform="matrix(-0.0162, -0.0385, 0.0433, -0.0182, 249.3, 187.2)" gradientUnits="userSpaceOnUse" id="gradient12" spreadMethod="pad" x1="-819.2" x2="819.2">
      <stop offset="0.3058823529411765" stop-color="#49cda5"/>
      <stop offset="1.0" stop-color="#a7d94a"/>
    </linearGradient>
    <linearGradient gradientTransform="matrix(-0.0162, -0.0385, 0.0433, -0.0182, 249.3, 187.2)" gradientUnits="userSpaceOnUse" id="gradient13" spreadMethod="pad" x1="-819.2" x2="819.2">
      <stop offset="0.0" stop-color="#49cda5"/>
      <stop offset="0.5058823529411764" stop-color="#a7d94a"/>
    </linearGradient>
    <linearGradient gradientTransform="matrix(-0.0162, -0.0385, 0.0433, -0.0182, 249.3, 187.2)" gradientUnits="userSpaceOnUse" id="gradient14" spreadMethod="pad" x1="-819.2" x2="819.2">
      <stop offset="0.14901960784313725" stop-color="#49cda5"/>
      <stop offset="0.6549019607843137" stop-color="#a7d94a"/>
    </linearGradient>
    <linearGradient gradientTransform="matrix(-0.0162, -0.0385, 0.0433, -0.0182, 249.3, 187.2)" gradientUnits="userSpaceOnUse" id="gradient15" spreadMethod="pad" x1="-819.2" x2="819.2">
      <stop offset="0.0" stop-color="#49cda5"/>
      <stop offset="1.0" stop-color="#a7d94a"/>
    </linearGradient>
  </defs>
</svg>
