<?xml version="1.0" encoding="UTF-8" standalone="no"?>
<svg xmlns:xlink="http://www.w3.org/1999/xlink" height="190.3px" width="213.1px" xmlns="http://www.w3.org/2000/svg">
  <g transform="matrix(1.0, 0.0, 0.0, 1.0, -168.9, -105.3)">
    <path d="M318.9 132.9 Q323.2 124.15 341.7 117.8 L354.0 117.8 350.95 120.1 Q345.55 122.75 339.45 124.5 328.15 127.15 319.15 134.3 L317.85 135.95 Q322.45 140.6 319.6 146.85 L321.6 147.95 Q329.65 151.15 338.7 150.9 353.15 150.4 366.1 156.3 371.7 158.7 375.4 163.4 382.25 172.9 382.0 184.4 381.5 197.1 376.15 208.65 370.0 221.1 359.25 229.9 349.45 237.95 337.75 242.4 325.5 247.25 312.55 246.3 L296.9 244.6 291.5 243.35 279.3 236.6 272.9 233.1 276.1 227.2 278.5 228.65 295.15 238.7 298.6 239.7 324.3 241.9 Q337.25 239.7 344.6 235.8 L360.25 224.05 Q368.55 216.45 375.15 203.75 378.1 198.1 378.1 191.5 378.05 177.05 368.8 166.3 L362.7 160.7 Q351.65 153.1 337.95 153.35 326.95 153.35 317.9 147.95 314.25 145.75 313.05 142.15 L313.05 142.1 313.0 142.15 Q286.25 117.1 256.6 133.45 L255.8 134.05 Q245.75 139.15 234.25 139.4 L208.1 142.35 203.7 144.3 Q198.55 147.7 199.55 153.85 L200.5 157.75 Q203.7 170.2 223.4 198.45 L223.5 198.6 219.8 200.35 219.35 200.55 200.75 167.3 197.35 157.75 197.1 157.5 Q195.85 152.85 196.35 148.45 197.1 143.8 203.7 139.9 210.3 136.0 224.0 136.25 238.4 137.7 251.65 131.85 253.1 131.15 254.5 130.85 L254.5 130.75 253.65 129.85 239.2 121.85 239.2 117.95 256.8 128.3 Q258.95 126.05 260.45 123.05 L262.7 117.8 266.05 117.8 264.85 120.85 259.95 130.6 Q289.85 111.15 307.3 130.85 L307.8 131.35 Q314.75 130.9 317.15 132.15 318.85 118.45 308.5 105.35 317.55 106.0 320.15 125.7 L318.9 132.9 318.35 133.85 318.1 135.05 318.0 135.25 318.1 135.05 318.35 133.85 318.9 132.9 M317.95 135.45 L318.0 135.25 317.9 135.45 317.95 135.45 M318.1 135.05 L317.15 132.15 Q318.35 132.8 318.35 133.85 318.35 132.8 317.15 132.15 L318.1 135.05 M312.8 138.4 L312.7 138.3 312.7 138.35 310.9 138.05 312.8 138.5 312.85 138.95 Q314.35 139.7 315.25 140.35 316.25 141.05 316.45 141.6 L316.7 142.6 317.4 144.3 Q316.15 141.3 316.15 139.05 L316.35 139.0 316.25 138.7 315.55 138.7 312.8 138.35 312.8 138.4 M314.8 136.95 L315.55 138.7 314.8 136.95 M319.95 149.0 L317.6 139.2 319.95 149.0 319.6 146.85 319.95 149.0 318.7 146.05 319.95 149.0 M254.55 133.1 L256.6 133.45 254.55 133.1 M257.6 132.05 L254.5 130.85 257.6 132.05" fill="#6c260d" fill-rule="evenodd" stroke="none"/>
    <path d="M279.3 236.6 L279.45 238.15 264.3 262.35 260.35 224.45 275.8 201.45 278.5 228.65 276.1 227.2 272.9 233.1 279.3 236.6 M254.25 263.35 L223.45 295.6 223.15 295.5 221.95 281.9 234.45 267.5 234.2 265.3 235.65 256.25 233.7 254.5 235.2 253.1 Q239.75 252.8 236.7 251.75 L243.8 245.05 248.85 240.35 250.85 238.4 251.8 238.15 256.7 239.35 257.45 259.15 254.25 263.35 M236.15 256.7 L235.65 258.45 236.15 256.95 236.15 256.7" fill="#efa934" fill-rule="evenodd" stroke="none"/>
    <path d="M168.9 232.25 L180.9 225.95 181.65 225.55 Q202.05 229.65 219.5 223.7 L232.85 229.4 220.9 220.5 221.95 220.05 194.5 213.95 194.55 213.7 219.8 200.35 223.5 198.6 223.4 198.45 225.15 197.55 230.3 197.8 213.15 209.7 Q229.5 211.25 237.8 203.5 L246.45 204.4 Q259.95 195.45 275.8 201.45 L260.35 224.45 235.65 224.95 Q246.4 226.4 255.0 230.3 L254.15 231.15 253.55 230.8 254.15 231.15 Q251.7 233.65 249.85 237.4 L249.15 239.5 Q232.65 248.7 218.15 238.55 232.45 254.15 243.8 245.05 L236.7 251.75 Q233.05 250.4 218.55 247.95 195.65 241.0 192.55 236.15 182.25 240.45 200.65 251.95 L235.2 253.1 233.7 254.5 232.95 255.0 223.3 255.95 222.7 256.0 Q214.25 256.7 206.85 256.25 L197.3 255.0 Q182.2 252.0 172.75 242.75 L177.0 242.3 186.5 241.3 177.2 236.65 177.5 235.35 177.7 234.45 173.3 234.45 172.15 233.9 168.9 232.25 M241.9 198.35 L245.7 198.5 238.9 202.4 Q240.55 200.55 241.9 198.35 M260.95 213.5 L258.3 208.2 235.75 214.15 235.75 214.5 229.85 214.15 229.8 214.8 233.1 219.45 233.25 220.1 260.95 213.5" fill="#f4d528" fill-rule="evenodd" stroke="none"/>
    <path d="M260.95 213.5 L233.25 220.1 233.1 219.45 229.8 214.8 229.85 214.15 235.75 214.5 235.75 214.15 258.3 208.2 260.95 213.5 M235.2 253.1 L200.65 251.95 Q182.25 240.45 192.55 236.15 195.65 241.0 218.55 247.95 233.05 250.4 236.7 251.75 239.75 252.8 235.2 253.1" fill="#fceebe" fill-rule="evenodd" stroke="none"/>
    <path d="M245.7 198.5 L246.45 204.4 237.8 203.5 237.15 203.4 238.9 202.4 245.7 198.5" fill="#9c5f5f" fill-rule="evenodd" stroke="none"/>
    <path d="M181.65 225.55 L188.95 221.75 190.25 221.4 Q204.4 218.05 218.55 221.5 L220.9 220.5 232.85 229.4 219.5 223.7 Q202.05 229.65 181.65 225.55 M230.3 197.8 L241.9 198.35 Q240.55 200.55 238.9 202.4 L237.15 203.4 237.8 203.5 Q229.5 211.25 213.15 209.7 L230.3 197.8 M249.15 239.5 L248.85 240.35 243.8 245.05 Q232.45 254.15 218.15 238.55 232.65 248.7 249.15 239.5" fill="#f9dfb5" fill-rule="evenodd" stroke="none"/>
    <path d="M264.3 262.35 L260.85 262.7 257.2 232.8 254.15 231.15 255.0 230.3 Q246.4 226.4 235.65 224.95 L260.35 224.45 264.3 262.35 M169.85 243.05 L169.85 242.95 169.75 241.55 168.9 232.25 172.15 233.9 172.3 242.6 172.75 242.75 169.85 243.05 M190.15 221.0 L192.85 215.65 194.35 213.9 194.5 213.95 221.95 220.05 220.9 220.5 218.55 221.5 Q204.4 218.05 190.25 221.4 L190.15 221.0 M234.45 267.5 L221.95 281.9 218.3 272.15 219.75 267.25 218.05 261.15 222.7 256.0 223.9 269.45 234.45 267.5 M177.5 235.35 L177.2 236.65 186.5 241.3 177.0 242.3 177.15 236.65 177.5 235.35" fill="#cf8710" fill-rule="evenodd" stroke="none"/>
    <path d="M260.85 262.7 L254.25 263.35 257.45 259.15 256.7 239.35 256.2 236.65 254.5 234.95 Q254.0 234.7 253.25 235.95 L250.85 238.4 248.85 240.35 249.15 239.5 249.85 237.4 Q251.7 233.65 254.15 231.15 L257.2 232.8 260.85 262.7 M206.85 288.65 L203.15 287.1 197.3 255.0 206.85 256.25 206.85 288.65 M177.0 242.3 L172.75 242.75 172.3 242.6 172.15 233.9 173.3 234.45 177.7 234.45 177.5 235.35 177.15 236.65 177.0 242.3" fill="#a2690d" fill-rule="evenodd" stroke="none"/>
    <path d="M250.85 238.4 L253.25 235.95 Q254.0 234.7 254.5 234.95 L256.2 236.65 256.7 239.35 251.8 238.15 250.85 238.4" fill="#c49b9b" fill-rule="evenodd" stroke="none"/>
    <path d="M236.15 256.7 L236.15 256.95 235.65 258.45 236.15 256.7" fill="#845151" fill-rule="evenodd" stroke="none"/>
    <path d="M222.7 256.0 L223.3 255.95 232.95 255.0 233.7 254.5 235.65 256.25 234.2 265.3 234.45 267.5 223.9 269.45 222.7 256.0 223.3 255.95 222.7 256.0" fill="#ab7070" fill-rule="evenodd" stroke="none"/>
    <path d="M188.95 221.75 L190.15 221.0 190.25 221.4 188.95 221.75" fill="#8f5714" fill-rule="evenodd" stroke="none"/>
    <path d="M223.15 295.5 L206.85 288.65 206.85 256.25 Q214.25 256.7 222.7 256.0 L218.05 261.15 219.75 267.25 218.3 272.15 221.95 281.9 223.15 295.5 M203.15 287.1 L171.8 273.9 169.85 243.05 172.75 242.75 Q182.2 252.0 197.3 255.0 L203.15 287.1" fill="#e2b310" fill-rule="evenodd" stroke="none"/>
    <path d="M317.85 135.95 Q322.45 140.6 319.6 146.85 L319.95 149.0 318.7 146.05 M254.5 130.85 L253.65 129.85 239.2 121.85 239.2 117.95 256.8 128.3 M259.95 130.6 Q289.85 111.15 307.3 130.85 L307.8 131.35 Q314.75 130.9 317.15 132.15 318.85 118.45 308.5 105.35 317.55 106.0 320.15 125.7 L318.9 132.9 318.35 133.85 318.1 135.05 318.0 135.25 317.9 135.45 317.95 135.45 M318.35 133.85 Q318.35 132.8 317.15 132.15 L318.1 135.05 M312.7 138.3 L312.75 138.35 312.8 138.4 M315.55 138.7 L314.8 136.95 M312.7 138.35 L312.75 138.35 312.8 138.5 310.9 138.05 312.7 138.35 M316.15 139.05 L316.15 138.95 315.85 139.4 M313.0 142.15 L313.05 142.15 M313.0 142.15 Q286.25 117.1 256.6 133.45 L254.55 133.1 M316.35 139.0 L316.15 138.95 M317.6 139.2 L319.95 149.0 M253.65 129.85 L254.5 130.75 M254.5 130.85 L257.6 132.05" fill="none" stroke="#28383e" stroke-linecap="round" stroke-linejoin="round" stroke-opacity="0.5019608" stroke-width="0.1"/>
    <path d="M279.3 236.6 L279.45 238.15 264.3 262.35 260.85 262.7 254.25 263.35 223.45 295.6 M169.75 241.55 L168.9 232.25 180.9 225.95 M181.65 225.55 L188.95 221.75 190.15 221.0 192.85 215.65 194.35 213.9 194.55 213.7 219.8 200.35 M223.4 198.45 L225.15 197.55 230.3 197.8 241.9 198.35 245.7 198.5 246.45 204.4 Q259.95 195.45 275.8 201.45 L278.5 228.65" fill="none" stroke="#8f4b1b" stroke-linecap="round" stroke-linejoin="round" stroke-width="0.05"/>
    <path d="M223.15 295.5 L206.85 288.65 203.15 287.1 171.8 273.9 169.85 243.05 169.85 242.95 169.75 241.55 M253.55 230.8 L254.15 231.15 257.2 232.8 260.85 262.7 M222.7 256.0 L223.3 255.95 M172.75 242.75 Q182.2 252.0 197.3 255.0 L206.85 256.25 Q214.25 256.7 222.7 256.0 M177.5 235.35 L177.15 236.65 177.0 242.3 M172.15 233.9 L172.3 242.6 172.75 242.75 M206.85 256.25 L206.85 288.65 M197.3 255.0 L203.15 287.1" fill="none" stroke="#28383e" stroke-linecap="round" stroke-linejoin="round" stroke-opacity="0.5019608" stroke-width="0.1"/>
  </g>
</svg>
