<?xml version="1.0" encoding="UTF-8" standalone="no"?>
<svg xmlns:xlink="http://www.w3.org/1999/xlink" height="38.7px" width="41.15px" xmlns="http://www.w3.org/2000/svg">
  <g transform="matrix(1.0, 0.0, 0.0, 1.0, -253.0, -186.6)">
    <path d="M269.2 224.75 L268.9 224.8 268.45 224.8 Q263.05 225.0 258.75 220.3 254.25 215.35 253.6 207.85 252.9 200.3 256.5 194.65 259.9 189.35 265.1 188.55 L266.55 188.45 Q269.45 188.3 272.1 189.7 270.2 191.2 268.7 193.6 265.1 199.25 265.8 206.75 266.45 214.25 270.95 219.25 272.85 221.3 275.0 222.45 272.45 224.4 269.2 224.75" fill="#003333" fill-rule="evenodd" stroke="none"/>
    <path d="M269.2 224.75 L268.9 224.8 268.45 224.8 Q263.05 225.0 258.75 220.3 254.25 215.35 253.6 207.85 252.9 200.3 256.5 194.65 259.9 189.35 265.1 188.55 L265.9 188.45 266.55 188.45 Q271.45 187.0 277.4 187.1 L279.25 187.35 Q284.3 187.4 288.35 191.85 292.9 196.8 293.55 204.3 294.2 211.85 290.6 217.5 287.05 223.15 281.4 223.7 275.4 225.1 269.2 224.75 272.45 224.4 275.0 222.45 272.85 221.3 270.95 219.25 266.45 214.25 265.8 206.75 265.1 199.25 268.7 193.6 270.2 191.2 272.1 189.7 269.45 188.3 266.55 188.45 L265.1 188.55 M272.1 189.7 Q274.2 190.85 276.15 192.95 280.7 197.9 281.35 205.4 282.0 212.9 278.4 218.6 276.85 220.95 275.0 222.45" fill="none" stroke="#000000" stroke-linecap="round" stroke-linejoin="round" stroke-width="1.0"/>
  </g>
</svg>
