<?xml version="1.0" encoding="UTF-8" standalone="no"?>
<svg xmlns:xlink="http://www.w3.org/1999/xlink" height="345.5px" width="269.95px" xmlns="http://www.w3.org/2000/svg">
  <g transform="matrix(1.0, 0.0, 0.0, 1.0, -135.85, -17.0)">
    <path d="M200.35 279.1 L197.3 278.6 Q167.15 273.45 155.75 250.6 144.3 227.7 158.25 200.6 172.2 173.4 203.3 157.85 234.4 142.25 264.55 147.45 294.6 152.55 306.05 175.45 317.5 198.3 303.55 225.5 299.0 234.4 292.6 242.05 L292.6 241.95 Q292.65 240.8 292.05 240.3 289.25 237.85 285.65 236.85 L280.2 236.5 258.2 247.35 Q238.35 257.2 236.8 253.8 238.8 245.05 238.8 233.95 238.8 220.5 229.05 211.0 219.35 201.5 205.55 201.5 191.75 201.5 182.0 211.0 172.3 220.5 172.3 233.95 172.3 247.35 182.0 256.85 191.75 266.3 205.55 266.3 212.65 266.3 218.7 263.8 L215.4 267.0 Q214.15 268.1 212.75 268.55 204.1 271.15 200.3 278.8 L200.35 279.1" fill="#f2f2f2" fill-rule="evenodd" stroke="none"/>
    <path d="M292.6 242.05 Q279.4 257.7 258.5 268.15 228.95 282.9 200.35 279.1 L200.3 278.8 Q204.1 271.15 212.75 268.55 214.15 268.1 215.4 267.0 L218.7 263.8 Q212.65 266.3 205.55 266.3 191.75 266.3 182.0 256.85 172.3 247.35 172.3 233.95 172.3 220.5 182.0 211.0 191.75 201.5 205.55 201.5 219.35 201.5 229.05 211.0 238.8 220.5 238.8 233.95 238.8 245.05 236.8 253.8 238.35 257.2 258.2 247.35 L280.2 236.5 285.65 236.85 Q289.25 237.85 292.05 240.3 292.65 240.8 292.6 241.95 L292.6 242.05" fill="#b6b6b6" fill-rule="evenodd" stroke="none"/>
    <path d="M342.3 28.35 Q348.95 28.5 356.05 30.6 385.15 38.95 391.15 71.6 392.6 80.8 392.45 89.8 L391.9 96.65 Q390.15 112.2 382.4 127.15 370.2 149.7 351.75 165.4 L336.4 177.75 328.8 183.4 329.55 186.0 329.4 185.45 Q327.75 180.55 325.55 176.15 330.5 172.85 334.6 168.25 342.95 158.7 346.8 146.7 L346.8 146.55 344.7 140.85 344.65 140.75 344.55 140.7 340.1 139.05 340.0 139.0 339.9 139.05 336.4 141.0 Q326.0 146.75 314.4 148.95 315.15 145.1 314.45 141.25 313.45 135.15 309.85 130.7 308.9 129.05 307.45 127.85 306.6 127.15 305.6 126.55 L329.7 128.65 330.4 122.15 334.7 122.0 331.1 118.35 338.55 108.7 323.1 109.55 322.25 101.5 300.35 116.7 299.2 116.8 Q298.45 114.05 295.8 112.15 L295.45 111.95 Q294.1 111.1 292.45 110.75 288.15 110.4 284.35 112.5 L283.55 112.9 283.25 111.2 Q282.15 104.6 282.0 98.6 L282.0 97.25 Q281.7 87.2 283.5 77.1 284.25 72.5 285.7 68.25 L285.95 67.4 Q290.75 53.45 302.4 43.65 310.85 36.3 319.95 32.5 L321.2 31.95 324.75 30.75 Q333.25 28.0 342.3 28.35 M404.3 88.3 Q404.1 104.3 397.7 120.15 L397.65 120.2 397.65 120.25 396.6 122.8 395.5 125.25 395.45 125.35 Q383.2 152.2 361.75 172.2 344.1 188.5 332.75 200.6 L332.75 200.9 Q333.85 211.9 331.4 223.2 327.45 241.6 316.95 257.35 317.05 263.05 318.25 268.7 319.85 276.25 323.5 283.55 L326.1 282.35 329.45 284.75 329.5 275.7 Q329.3 274.95 329.45 274.75 331.3 271.9 333.75 270.95 L333.9 270.95 335.0 270.7 Q337.35 270.25 340.25 271.45 L340.5 271.55 342.5 274.65 342.55 274.6 348.55 266.3 Q354.35 259.6 351.6 254.1 L349.1 251.05 357.1 251.3 367.1 239.4 366.0 249.4 382.9 251.6 366.0 259.9 366.25 264.9 361.0 263.8 357.05 271.15 359.55 271.45 359.7 271.45 362.4 271.8 366.55 277.35 358.5 276.25 358.45 276.8 367.45 277.7 Q380.15 280.05 389.9 289.1 403.1 301.45 403.1 318.9 403.1 336.35 389.9 348.65 376.65 361.0 357.95 361.0 339.25 361.0 326.05 348.65 319.65 342.75 316.35 335.6 312.8 327.95 312.8 318.9 312.8 308.65 317.4 300.2 316.2 298.55 315.15 295.75 L314.85 294.9 312.5 288.45 311.9 286.75 Q310.55 282.8 309.85 279.85 309.05 276.85 308.55 273.7 L307.65 269.55 307.65 269.6 Q298.85 279.65 288.05 287.6 272.6 298.95 254.75 305.2 234.95 311.9 214.2 312.0 197.9 311.7 182.65 305.9 149.45 293.2 140.25 261.3 138.8 256.35 138.1 251.45 137.3 245.75 137.35 240.15 137.6 219.4 149.85 197.95 162.35 175.95 182.9 161.1 185.05 152.65 192.05 145.9 199.5 138.65 208.05 133.35 L208.1 133.3 208.0 131.75 Q208.85 118.25 218.45 110.15 219.6 109.2 220.9 109.05 222.1 108.9 223.45 109.55 225.7 110.5 225.7 112.95 226.0 117.25 226.75 120.95 L227.55 124.35 Q235.15 122.3 243.35 122.5 L243.5 122.55 Q245.5 123.55 247.45 124.8 250.25 126.35 252.75 128.3 257.6 132.05 261.45 137.0 L264.0 137.25 263.95 137.3 263.9 137.3 263.85 137.3 263.75 137.45 264.0 137.5 264.25 137.45 Q264.65 126.05 275.55 120.75 269.55 93.75 274.4 69.6 278.65 48.25 296.25 34.55 323.45 13.35 356.0 20.15 389.45 27.3 400.0 60.15 403.15 70.0 404.0 79.85 404.35 84.0 404.3 88.15 L404.3 88.2 404.3 88.3 M362.6 289.25 L364.4 289.6 366.65 290.1 Q364.55 291.65 361.3 292.05 L361.15 292.0 Q357.55 290.55 357.1 289.45 L357.05 288.8 362.0 289.15 362.35 289.2 362.6 289.25 M368.75 296.45 Q364.45 301.55 356.85 303.4 353.25 304.45 351.75 303.15 351.1 302.65 350.85 301.75 L351.3 303.95 Q350.0 306.7 347.5 308.15 345.7 309.15 343.3 309.45 337.35 308.4 336.1 303.65 L336.05 303.35 335.8 308.1 332.75 311.45 Q330.7 310.65 328.7 309.5 L328.5 310.5 Q327.35 316.05 328.55 321.25 329.75 326.45 333.3 331.25 L333.45 331.45 334.3 332.5 Q341.45 341.35 353.35 343.8 365.9 346.35 376.4 340.2 386.1 334.6 388.8 324.65 L389.2 322.9 Q391.5 311.6 384.2 301.85 382.25 299.2 379.9 297.1 377.4 294.9 374.45 293.25 372.5 292.15 370.4 291.35 L370.4 291.75 368.75 296.45 M310.2 149.6 L310.0 149.65 309.9 149.7 309.7 149.3 310.2 149.6 Z" fill="none" stroke="#000000" stroke-linecap="round" stroke-linejoin="round" stroke-width="3.0"/>
    <path d="M316.55 335.1 Q313.0 327.45 313.0 318.4 313.0 300.95 326.25 288.6 339.45 276.3 358.15 276.3 L367.65 277.2 Q363.8 280.8 358.4 281.65 L353.15 282.65 Q369.35 282.45 383.35 289.65 391.8 293.85 396.9 301.5 L395.55 303.7 393.9 302.6 Q400.45 313.7 396.1 325.1 391.65 336.65 381.5 343.4 364.7 354.65 345.35 346.85 L341.25 345.55 Q346.25 348.15 348.75 353.3 330.5 349.05 316.55 335.1 M362.8 288.75 L369.05 289.65 Q357.5 286.45 352.9 286.95 347.6 287.5 342.5 289.2 338.2 290.55 334.4 294.35 330.8 297.95 328.6 302.5 326.25 307.3 326.65 312.95 326.95 317.15 327.9 321.0 L328.75 320.75 Q329.95 325.95 333.5 330.75 L333.65 330.95 334.5 332.0 Q341.65 340.85 353.55 343.3 366.1 345.85 376.6 339.7 386.3 334.1 389.0 324.15 L389.4 322.4 390.0 322.75 Q392.65 318.25 392.3 312.3 391.95 306.95 389.05 302.15 385.6 296.4 379.8 294.6 380.35 295.9 380.1 296.6 377.6 294.4 374.65 292.75 370.15 290.2 364.6 289.1 L362.8 288.75 M320.85 322.5 Q332.8 339.35 325.45 327.25 322.6 320.15 323.95 309.1 326.5 299.35 333.5 290.7 L323.35 302.8 322.85 303.6 322.6 304.0 Q318.4 310.8 319.35 315.5 L320.25 319.8 320.85 322.5" fill="#c29d47" fill-rule="evenodd" stroke="none"/>
    <path d="M367.65 277.2 Q380.35 279.55 390.1 288.6 403.3 300.95 403.3 318.4 403.3 335.85 390.1 348.15 376.85 360.5 358.15 360.5 339.45 360.5 326.25 348.15 319.85 342.25 316.55 335.1 330.5 349.05 348.75 353.3 346.25 348.15 341.25 345.55 L345.35 346.85 Q364.7 354.65 381.5 343.4 391.65 336.65 396.1 325.1 400.45 313.7 393.9 302.6 L395.55 303.7 396.9 301.5 Q391.8 293.85 383.35 289.65 369.35 282.45 353.15 282.65 L358.4 281.65 Q363.8 280.8 367.65 277.2 M362.8 288.75 L362.55 288.7 362.2 288.65 Q351.0 287.05 341.5 292.55 331.0 298.7 328.7 310.0 327.55 315.55 328.75 320.75 L327.9 321.0 Q326.95 317.15 326.65 312.95 326.25 307.3 328.6 302.5 330.8 297.95 334.4 294.35 338.2 290.55 342.5 289.2 347.6 287.5 352.9 286.95 357.5 286.45 369.05 289.65 L362.8 288.75 M389.4 322.4 Q391.7 311.1 384.4 301.35 382.45 298.7 380.1 296.6 380.35 295.9 379.8 294.6 385.6 296.4 389.05 302.15 391.95 306.95 392.3 312.3 392.65 318.25 390.0 322.75 L389.4 322.4" fill="#9b7b33" fill-rule="evenodd" stroke="none"/>
    <path d="M320.85 322.5 L320.25 319.8 319.35 315.5 Q318.4 310.8 322.6 304.0 L322.85 303.6 323.35 302.8 333.5 290.7 Q326.5 299.35 323.95 309.1 322.6 320.15 325.45 327.25 332.8 339.35 320.85 322.5" fill="#f4e7b9" fill-rule="evenodd" stroke="none"/>
    <path d="M220.75 214.15 Q216.85 215.75 210.05 215.75 215.55 215.45 220.75 214.15" fill="#805224" fill-rule="evenodd" stroke="none"/>
    <path d="M237.95 197.55 Q238.3 199.05 232.25 202.8 226.2 206.5 221.55 205.95 L215.25 205.55 Q223.05 203.95 228.45 201.55 234.55 198.75 237.25 194.6 L237.95 197.55" fill="#efc683" fill-rule="evenodd" stroke="none"/>
    <path d="M201.3 215.6 L194.55 214.45 199.3 215.35 201.3 215.6" fill="url(#gradient0)" fill-rule="evenodd" stroke="none"/>
    <path d="M237.35 173.4 Q235.7 171.65 232.85 170.55 229.95 169.35 226.45 169.0 L218.35 169.4 213.9 170.25 210.8 171.05 Q208.3 171.7 206.0 172.7 199.8 175.15 194.6 179.0 186.4 185.05 184.8 191.5 183.7 195.2 185.25 197.95 L185.75 198.7 187.0 200.15 188.75 201.4 189.25 201.75 Q191.65 203.1 194.85 203.65 199.35 204.4 205.45 203.55 L211.95 202.25 215.75 201.0 Q221.55 198.95 226.9 195.45 237.15 188.6 238.95 181.15 239.85 177.25 238.1 174.5 L237.55 173.65 237.35 173.4 M219.7 168.0 Q230.7 167.05 236.9 171.25 243.55 175.65 240.95 183.4 238.3 191.15 227.9 197.6 224.0 200.0 219.85 201.75 213.0 204.55 205.5 205.45 200.25 206.0 196.1 205.55 190.6 204.85 186.9 202.3 180.2 197.9 182.8 190.15 185.45 182.45 195.85 176.0 206.15 169.5 218.25 168.15 L219.7 168.0" fill="url(#gradient1)" fill-rule="evenodd" stroke="none"/>
    <path d="M227.4 163.85 L233.75 164.55 Q241.75 166.15 247.1 170.3 250.25 172.7 251.9 175.6 253.1 177.55 253.6 179.7 254.9 185.0 252.75 190.4 250.65 195.75 246.2 200.4 241.8 204.85 235.7 208.3 228.9 211.95 220.75 214.15 215.55 215.45 210.05 215.75 L209.05 215.85 207.4 215.9 201.3 215.6 199.3 215.35 194.55 214.45 194.3 214.4 Q191.5 213.55 189.1 212.4 186.25 210.95 183.95 209.0 L182.45 207.6 181.65 206.7 Q180.5 205.4 179.7 203.95 176.65 198.7 178.2 192.0 180.6 181.85 192.3 173.9 194.1 172.6 196.1 171.5 190.75 175.25 185.15 180.8 179.55 186.3 179.3 193.45 179.0 200.5 183.85 204.1 189.85 208.65 199.55 209.25 206.45 209.2 201.4 211.0 L198.2 211.65 199.85 212.15 Q205.45 213.1 211.2 212.45 221.75 211.1 230.75 207.05 235.8 204.7 239.65 201.6 244.95 197.25 247.0 191.85 248.4 188.1 245.75 184.6 L241.55 188.55 Q243.45 184.9 243.5 181.1 243.5 175.45 238.75 170.8 234.3 166.45 227.4 163.85" fill="#633f1d" fill-rule="evenodd" stroke="none"/>
    <path d="M189.25 201.75 Q187.35 199.35 187.7 195.9 188.15 189.8 195.2 183.3 199.7 179.1 205.5 176.15 207.75 175.05 210.1 174.15 L213.05 173.0 217.4 171.75 Q221.65 170.65 225.4 170.55 L232.25 171.15 Q235.35 171.95 237.35 173.4 L237.55 173.65 238.1 174.5 Q239.85 177.25 238.95 181.15 237.15 188.6 226.9 195.45 221.55 198.95 215.75 201.0 L211.95 202.25 205.45 203.55 Q199.35 204.4 194.85 203.65 191.65 203.1 189.25 201.75" fill="#fbf4f0" fill-rule="evenodd" stroke="none"/>
    <path d="M237.35 173.4 Q235.35 171.95 232.25 171.15 L225.4 170.55 Q221.65 170.65 217.4 171.75 L213.05 173.0 210.1 174.15 Q207.75 175.05 205.5 176.15 199.7 179.1 195.2 183.3 188.15 189.8 187.7 195.9 187.35 199.35 189.25 201.75 L188.75 201.4 187.0 200.15 185.75 198.7 185.25 197.95 Q183.7 195.2 184.8 191.5 186.4 185.05 194.6 179.0 199.8 175.15 206.0 172.7 208.3 171.7 210.8 171.05 L213.9 170.25 218.35 169.4 226.45 169.0 Q229.95 169.35 232.85 170.55 235.7 171.65 237.35 173.4" fill="#999999" fill-rule="evenodd" stroke="none"/>
    <path d="M196.1 171.5 Q198.45 170.15 201.0 168.95 L202.25 168.45 Q205.3 167.1 208.65 166.2 213.2 164.85 218.25 164.3 L219.7 164.1 227.4 163.85 Q234.3 166.45 238.75 170.8 243.5 175.45 243.5 181.1 243.45 184.9 241.55 188.55 L245.75 184.6 Q248.4 188.1 247.0 191.85 244.95 197.25 239.65 201.6 235.8 204.7 230.75 207.05 221.75 211.1 211.2 212.45 205.45 213.1 199.85 212.15 L198.2 211.65 201.4 211.0 Q206.45 209.2 199.55 209.25 189.85 208.65 183.85 204.1 179.0 200.5 179.3 193.45 179.55 186.3 185.15 180.8 190.75 175.25 196.1 171.5 M219.7 168.0 L218.25 168.15 Q206.15 169.5 195.85 176.0 185.45 182.45 182.8 190.15 180.2 197.9 186.9 202.3 190.6 204.85 196.1 205.55 200.25 206.0 205.5 205.45 213.0 204.55 219.85 201.75 224.0 200.0 227.9 197.6 238.3 191.15 240.95 183.4 243.55 175.65 236.9 171.25 230.7 167.05 219.7 168.0 M237.95 197.55 L237.25 194.6 Q234.55 198.75 228.45 201.55 223.05 203.95 215.25 205.55 L221.55 205.95 Q226.2 206.5 232.25 202.8 238.3 199.05 237.95 197.55" fill="#b38b5e" fill-rule="evenodd" stroke="none"/>
    <path d="M196.1 171.5 Q198.45 170.15 201.0 168.95 L202.25 168.45 Q205.3 167.1 208.65 166.2 213.2 164.85 218.25 164.3 L219.7 164.1 227.4 163.85 233.75 164.55 Q241.75 166.15 247.1 170.3 250.25 172.7 251.9 175.6 253.1 177.55 253.6 179.7 254.9 185.0 252.75 190.4 250.65 195.75 246.2 200.4 241.8 204.85 235.7 208.3 228.9 211.95 220.75 214.15 215.55 215.45 210.05 215.75 L209.05 215.85 207.4 215.9 201.3 215.6 194.55 214.45 194.3 214.4 Q191.5 213.55 189.1 212.4 186.25 210.95 183.95 209.0 L182.45 207.6 181.65 206.7 Q180.5 205.4 179.7 203.95 176.65 198.7 178.2 192.0 180.6 181.85 192.3 173.9 194.1 172.6 196.1 171.5 M237.35 173.4 Q235.7 171.65 232.85 170.55 229.95 169.35 226.45 169.0 L218.35 169.4 213.9 170.25 210.8 171.05 Q208.3 171.7 206.0 172.7 199.8 175.15 194.6 179.0 186.4 185.05 184.8 191.5 183.7 195.2 185.25 197.95 L185.75 198.7 187.0 200.15 188.75 201.4 189.25 201.75 Q191.65 203.1 194.85 203.65 199.35 204.4 205.45 203.55 L211.95 202.25 215.75 201.0 Q221.55 198.95 226.9 195.45 237.15 188.6 238.95 181.15 239.85 177.25 238.1 174.5 L237.55 173.65 237.35 173.4 Z" fill="none" stroke="#2d2d2d" stroke-linecap="round" stroke-linejoin="round" stroke-opacity="0.5921569" stroke-width="0.5"/>
    <path d="M214.4 311.25 Q198.15 310.95 182.95 305.15 149.85 292.5 140.7 260.7 139.25 255.8 138.55 250.9 146.6 267.7 168.15 274.65 189.65 281.55 174.4 275.65 154.05 264.75 146.7 243.9 140.9 227.35 150.75 203.35 160.6 179.3 180.1 165.5 199.55 151.65 216.1 143.5 223.1 140.9 230.05 139.3 L233.55 138.55 Q242.05 136.8 250.45 136.55 262.35 136.1 274.1 138.55 L277.5 139.3 Q286.85 141.55 294.65 145.3 306.45 160.35 310.45 179.1 314.8 199.4 307.35 218.7 302.35 231.7 293.4 242.35 L307.75 232.8 Q309.0 246.8 300.95 258.45 289.45 275.0 272.15 285.1 259.7 292.45 245.65 295.85 220.75 301.8 195.8 296.9 182.5 293.95 171.3 285.8 178.6 298.75 192.45 305.15 203.0 309.9 214.4 311.25 M209.75 158.6 Q178.65 171.35 162.85 195.4 147.05 219.4 155.75 240.65 164.45 261.8 192.6 267.8 220.8 273.75 251.85 261.0 282.9 248.25 298.7 224.2 314.5 200.15 305.8 179.0 297.1 157.75 268.95 151.8 240.8 145.8 209.75 158.6 M254.45 282.65 Q272.6 275.25 273.6 269.95 274.65 264.6 276.2 259.0 264.95 270.9 247.85 275.0 232.9 278.5 213.75 276.9 217.3 278.15 226.85 284.1 236.35 290.05 254.45 282.65" fill="#bf9857" fill-rule="evenodd" stroke="none"/>
    <path d="M294.65 145.3 Q301.45 148.55 307.4 153.45 323.05 166.1 329.35 185.0 335.5 203.5 331.35 222.65 327.15 242.25 315.5 258.8 304.0 275.15 288.1 286.9 272.7 298.25 254.85 304.45 235.1 311.15 214.4 311.25 203.0 309.9 192.45 305.15 178.6 298.75 171.3 285.8 182.5 293.95 195.8 296.9 220.75 301.8 245.65 295.85 259.7 292.45 272.15 285.1 289.45 275.0 300.95 258.45 309.0 246.8 307.75 232.8 L293.4 242.35 Q302.35 231.7 307.35 218.7 314.8 199.4 310.45 179.1 306.45 160.35 294.65 145.3" fill="#916f37" fill-rule="evenodd" stroke="none"/>
    <path d="M254.45 282.65 Q236.35 290.05 226.85 284.1 217.3 278.15 213.75 276.9 232.9 278.5 247.85 275.0 264.95 270.9 276.2 259.0 274.65 264.6 273.6 269.95 272.6 275.25 254.45 282.65" fill="#f0e7b3" fill-rule="evenodd" stroke="none"/>
    <path d="M138.55 250.9 Q137.75 245.25 137.8 239.65 138.05 218.95 150.25 197.55 168.7 165.15 204.7 148.25 210.4 145.55 216.1 143.5 199.55 151.65 180.1 165.5 160.6 179.3 150.75 203.35 140.9 227.35 146.7 243.9 154.05 264.75 174.4 275.65 189.65 281.55 168.15 274.65 146.6 267.7 138.55 250.9" fill="#e0ce67" fill-rule="evenodd" stroke="none"/>
    <path d="M236.35 156.35 Q219.6 159.2 203.05 167.95 177.35 181.3 165.3 201.6 158.2 213.45 157.9 224.2 L157.95 227.1 Q158.3 233.25 160.95 239.15 169.1 257.0 194.8 261.35 L210.8 262.6 220.6 261.9 Q236.0 259.9 252.25 252.75 283.6 238.8 297.25 214.75 304.35 202.2 304.15 191.3 L304.0 187.85 Q302.95 179.9 297.95 173.0 285.55 156.0 256.75 154.95 252.85 154.8 249.0 155.0 242.6 155.2 236.35 156.35 M209.75 158.6 Q240.8 145.8 268.95 151.8 297.1 157.75 305.8 179.0 314.5 200.15 298.7 224.2 282.9 248.25 251.85 261.0 220.8 273.75 192.6 267.8 164.45 261.8 155.75 240.65 147.05 219.4 162.85 195.4 178.65 171.35 209.75 158.6" fill="url(#gradient2)" fill-rule="evenodd" stroke="none"/>
    <path d="M294.65 145.3 Q301.45 148.55 307.4 153.45 323.05 166.1 329.35 185.0 335.5 203.5 331.35 222.65 327.15 242.25 315.5 258.8 304.0 275.15 288.1 286.9 272.7 298.25 254.85 304.45 235.1 311.15 214.4 311.25 198.15 310.95 182.95 305.15 149.85 292.5 140.7 260.7 139.25 255.8 138.55 250.9 137.75 245.25 137.8 239.65 138.05 218.95 150.25 197.55 168.7 165.15 204.7 148.25 210.4 145.55 216.1 143.5 223.1 140.9 230.05 139.3 L233.55 138.55 Q242.05 136.8 250.45 136.55 262.35 136.1 274.1 138.55 L277.5 139.3 Q286.85 141.55 294.65 145.3 M236.35 156.35 Q242.6 155.2 249.0 155.0 252.85 154.8 256.75 154.95 285.55 156.0 297.95 173.0 302.95 179.9 304.0 187.85 L304.15 191.3 Q304.35 202.2 297.25 214.75 283.6 238.8 252.25 252.75 236.0 259.9 220.6 261.9 L210.8 262.6 194.8 261.35 Q169.1 257.0 160.95 239.15 158.3 233.25 157.95 227.1 L157.9 224.2 Q158.2 213.45 165.3 201.6 177.35 181.3 203.05 167.95 219.6 159.2 236.35 156.35 Z" fill="none" stroke="#2d2d2d" stroke-linecap="round" stroke-linejoin="round" stroke-opacity="0.5921569" stroke-width="0.5"/>
    <path d="M186.65 264.4 L196.95 265.15 Q193.0 266.25 186.65 264.4" fill="#805224" fill-rule="evenodd" stroke="none"/>
    <path d="M216.35 246.95 Q216.4 249.1 210.0 252.65 203.6 256.1 199.3 254.0 195.0 251.95 193.5 251.6 201.1 251.6 206.65 249.8 212.95 247.65 216.3 242.6 L216.35 246.95" fill="#efc683" fill-rule="evenodd" stroke="none"/>
    <path d="M172.3 258.1 L176.6 260.75 178.4 261.7 Q175.1 260.2 172.3 258.1" fill="url(#gradient3)" fill-rule="evenodd" stroke="none"/>
    <path d="M220.45 213.15 Q219.2 210.25 216.75 207.85 214.25 205.35 211.0 203.9 207.55 202.45 203.35 202.1 L198.95 202.0 195.9 202.3 Q193.45 202.5 191.05 203.2 184.75 204.85 179.15 208.8 170.3 214.9 167.55 223.35 165.8 228.25 166.7 232.5 L167.05 233.65 167.95 236.1 169.35 238.3 169.75 238.9 Q171.75 241.5 174.65 243.2 178.75 245.5 184.65 246.05 187.8 246.35 191.0 246.05 L194.8 245.45 Q200.65 244.2 206.35 240.85 217.3 234.3 220.45 224.4 222.0 219.2 220.9 214.9 L220.55 213.5 220.45 213.15 M204.85 200.55 Q215.4 202.35 220.45 210.0 225.85 218.0 221.9 228.05 217.95 238.1 206.95 244.1 202.75 246.4 198.55 247.65 191.55 249.6 184.35 248.7 179.3 248.0 175.5 246.15 170.45 243.65 167.45 239.05 162.0 230.95 165.95 221.0 169.9 210.95 180.9 204.95 191.85 198.85 203.45 200.35 L204.85 200.55" fill="url(#gradient4)" fill-rule="evenodd" stroke="none"/>
    <path d="M182.0 198.75 Q176.25 202.5 169.95 208.6 163.6 214.7 162.0 224.5 160.35 234.3 164.2 240.65 169.0 248.7 178.0 252.35 184.5 254.25 179.35 255.35 177.8 255.6 176.25 255.35 L177.7 256.45 Q182.85 259.35 188.35 260.1 198.55 261.2 207.75 258.1 212.95 256.3 217.2 253.05 223.0 248.5 225.95 241.55 228.0 236.7 226.2 231.15 L221.45 235.4 Q223.95 230.9 224.7 225.65 225.85 217.75 222.25 209.85 218.9 202.55 212.9 196.95 215.85 198.05 218.7 199.8 225.95 204.3 230.2 211.6 232.7 215.8 233.7 220.3 234.4 223.35 234.5 226.45 234.7 234.3 231.65 241.2 228.65 248.05 223.55 253.25 218.55 258.15 212.2 261.2 205.05 264.45 196.95 265.15 L186.65 264.4 185.65 264.2 184.1 263.8 Q181.1 262.9 178.4 261.7 L176.6 260.75 172.3 258.1 172.1 257.95 Q169.6 256.05 167.6 253.65 165.2 250.9 163.4 247.5 L162.25 245.15 161.65 243.7 Q160.8 241.5 160.35 239.25 158.45 231.05 161.25 222.25 165.45 208.8 178.0 201.0 179.95 199.75 182.0 198.75" fill="#633f1d" fill-rule="evenodd" stroke="none"/>
    <path d="M169.75 238.9 Q168.45 235.05 169.4 230.35 171.0 221.95 178.9 214.95 183.95 210.4 189.95 207.9 192.25 206.95 194.65 206.4 L197.65 205.7 201.95 205.15 Q206.15 204.8 209.75 205.75 213.25 206.6 216.05 208.6 218.85 210.55 220.45 213.15 L220.55 213.5 220.9 214.9 Q222.0 219.2 220.45 224.4 217.3 234.3 206.35 240.85 200.65 244.2 194.8 245.45 L191.0 246.05 Q187.8 246.35 184.65 246.05 178.75 245.5 174.65 243.2 171.75 241.5 169.75 238.9" fill="#fbf4f0" fill-rule="evenodd" stroke="none"/>
    <path d="M220.45 213.15 Q218.85 210.55 216.05 208.6 213.25 206.6 209.75 205.75 206.15 204.8 201.95 205.15 L197.65 205.7 194.65 206.4 Q192.25 206.95 189.95 207.9 183.95 210.4 178.9 214.95 171.0 221.95 169.4 230.35 168.45 235.05 169.75 238.9 L169.35 238.3 167.95 236.1 167.05 233.65 166.7 232.5 Q165.8 228.25 167.55 223.35 170.3 214.9 179.15 208.8 184.75 204.85 191.05 203.2 193.45 202.5 195.9 202.3 L198.95 202.0 203.35 202.1 Q207.55 202.45 211.0 203.9 214.25 205.35 216.75 207.85 219.2 210.25 220.45 213.15" fill="#999999" fill-rule="evenodd" stroke="none"/>
    <path d="M212.9 196.95 Q218.9 202.55 222.25 209.85 225.85 217.75 224.7 225.65 223.95 230.9 221.45 235.4 L226.2 231.15 Q228.0 236.7 225.95 241.55 223.0 248.5 217.2 253.05 212.95 256.3 207.75 258.1 198.55 261.2 188.35 260.1 182.85 259.35 177.7 256.45 L176.25 255.35 Q177.8 255.6 179.35 255.35 184.5 254.25 178.0 252.35 169.0 248.7 164.2 240.65 160.35 234.3 162.0 224.5 163.6 214.7 169.95 208.6 176.25 202.5 182.0 198.75 184.5 197.5 187.05 196.6 L188.35 196.2 Q191.5 195.25 194.8 194.9 199.4 194.35 204.25 194.95 L205.6 195.15 Q209.5 195.7 212.9 196.95 M204.85 200.55 L203.45 200.35 Q191.85 198.85 180.9 204.95 169.9 210.95 165.95 221.0 162.0 230.95 167.45 239.05 170.45 243.65 175.5 246.15 179.3 248.0 184.35 248.7 191.55 249.6 198.55 247.65 202.75 246.4 206.95 244.1 217.95 238.1 221.9 228.05 225.85 218.0 220.45 210.0 215.4 202.35 204.85 200.55 M216.35 246.95 L216.3 242.6 Q212.95 247.65 206.65 249.8 201.1 251.6 193.5 251.6 195.0 251.95 199.3 254.0 203.6 256.1 210.0 252.65 216.4 249.1 216.35 246.95" fill="#b38b5e" fill-rule="evenodd" stroke="none"/>
    <path d="M182.0 198.75 Q179.95 199.75 178.0 201.0 165.45 208.8 161.25 222.25 158.45 231.05 160.35 239.25 160.8 241.5 161.65 243.7 L162.25 245.15 163.4 247.5 Q165.2 250.9 167.6 253.65 169.6 256.05 172.1 257.95 L172.3 258.1 Q175.1 260.2 178.4 261.7 181.1 262.9 184.1 263.8 L185.65 264.2 186.65 264.4 196.95 265.15 Q205.05 264.45 212.2 261.2 218.55 258.15 223.55 253.25 228.65 248.05 231.65 241.2 234.7 234.3 234.5 226.45 234.4 223.35 233.7 220.3 232.7 215.8 230.2 211.6 225.95 204.3 218.7 199.8 215.85 198.05 212.9 196.95 209.5 195.7 205.6 195.15 L204.25 194.95 Q199.4 194.35 194.8 194.9 191.5 195.25 188.35 196.2 L187.05 196.6 Q184.5 197.5 182.0 198.75 M220.45 213.15 Q219.2 210.25 216.75 207.85 214.25 205.35 211.0 203.9 207.55 202.45 203.35 202.1 L198.95 202.0 195.9 202.3 Q193.45 202.5 191.05 203.2 184.75 204.85 179.15 208.8 170.3 214.9 167.55 223.35 165.8 228.25 166.7 232.5 L167.05 233.65 167.95 236.1 169.35 238.3 169.75 238.9 Q171.75 241.5 174.65 243.2 178.75 245.5 184.65 246.05 187.8 246.35 191.0 246.05 L194.8 245.45 Q200.65 244.2 206.35 240.85 217.3 234.3 220.45 224.4 222.0 219.2 220.9 214.9 L220.55 213.5 220.45 213.15 Z" fill="none" stroke="#2d2d2d" stroke-linecap="round" stroke-linejoin="round" stroke-opacity="0.5921569" stroke-width="0.5"/>
    <path d="M254.9 234.2 Q260.15 235.35 265.3 235.0 261.35 236.15 254.9 234.2" fill="#805224" fill-rule="evenodd" stroke="none"/>
    <path d="M284.8 216.05 Q284.9 218.3 278.4 221.95 272.0 225.55 267.65 223.4 263.35 221.25 261.8 220.9 269.5 220.9 275.05 219.0 281.4 216.8 284.75 211.55 L284.8 216.05" fill="#efc683" fill-rule="evenodd" stroke="none"/>
    <path d="M240.5 227.65 L244.8 230.4 246.65 231.4 Q243.3 229.8 240.5 227.65" fill="url(#gradient5)" fill-rule="evenodd" stroke="none"/>
    <path d="M288.9 180.95 Q287.65 177.9 285.25 175.4 282.7 172.8 279.45 171.3 275.95 169.8 271.7 169.4 269.6 169.2 267.3 169.35 L264.25 169.65 Q261.75 169.85 259.4 170.6 253.05 172.3 247.4 176.4 238.45 182.75 235.7 191.5 233.95 196.65 234.85 201.0 L235.2 202.25 236.1 204.75 Q236.65 205.9 237.5 207.05 L237.9 207.7 Q239.95 210.4 242.85 212.2 246.95 214.55 252.9 215.15 256.1 215.4 259.3 215.15 L263.15 214.5 Q269.0 213.2 274.8 209.75 285.8 202.9 288.9 192.6 290.55 187.2 289.4 182.75 L289.05 181.3 288.9 180.95 M273.25 167.85 Q283.85 169.7 288.9 177.65 294.35 186.0 290.4 196.4 286.4 206.85 275.35 213.1 271.15 215.5 266.9 216.8 259.85 218.8 252.6 217.85 247.55 217.15 243.7 215.2 238.6 212.6 235.6 207.85 230.1 199.45 234.1 189.1 238.05 178.65 249.15 172.4 260.15 166.05 271.85 167.65 L273.25 167.85" fill="url(#gradient6)" fill-rule="evenodd" stroke="none"/>
    <path d="M250.25 165.95 Q244.45 169.85 238.1 176.2 231.7 182.55 230.1 192.75 228.45 202.9 232.35 209.5 237.15 217.85 246.2 221.7 252.75 223.65 247.6 224.8 246.0 225.05 244.45 224.8 L245.95 225.95 Q251.1 228.95 256.65 229.75 266.9 230.9 276.15 227.65 281.4 225.8 285.65 222.4 291.5 217.65 294.5 210.45 296.5 205.4 294.7 199.65 L289.95 204.05 Q292.5 199.35 293.25 193.9 294.35 185.7 290.75 177.5 287.4 169.95 281.35 164.1 284.3 165.25 287.2 167.05 294.5 171.75 298.75 179.3 301.25 183.7 302.3 188.35 303.0 191.5 303.05 194.75 303.3 202.9 300.2 210.1 297.2 217.2 292.05 222.6 287.05 227.75 280.65 230.9 273.45 234.3 265.3 235.0 260.15 235.35 254.9 234.2 L253.95 234.0 252.35 233.55 246.65 231.4 244.8 230.4 240.5 227.65 240.3 227.5 Q237.8 225.5 235.75 223.05 233.3 220.15 231.5 216.65 L230.4 214.2 229.75 212.7 Q228.95 210.4 228.45 208.1 226.55 199.5 229.35 190.35 233.6 176.4 246.2 168.25 248.15 167.0 250.25 165.95" fill="#633f1d" fill-rule="evenodd" stroke="none"/>
    <path d="M237.9 207.7 Q236.6 203.7 237.55 198.8 239.15 190.1 247.1 182.8 252.2 178.05 258.25 175.45 260.55 174.45 263.0 173.9 L266.0 173.15 270.3 172.6 Q274.55 172.25 278.2 173.25 281.7 174.1 284.55 176.2 287.3 178.2 288.9 180.95 L289.05 181.3 289.4 182.75 Q290.55 187.2 288.9 192.6 285.8 202.9 274.8 209.75 269.0 213.2 263.15 214.5 L259.3 215.15 Q256.1 215.4 252.9 215.15 246.95 214.55 242.85 212.2 239.95 210.4 237.9 207.7" fill="#fbf4f0" fill-rule="evenodd" stroke="none"/>
    <path d="M288.9 180.95 Q287.3 178.2 284.55 176.2 281.7 174.1 278.2 173.25 274.55 172.25 270.3 172.6 L266.0 173.15 263.0 173.9 Q260.55 174.45 258.25 175.45 252.2 178.05 247.1 182.8 239.15 190.1 237.55 198.8 236.6 203.7 237.9 207.7 L237.5 207.05 Q236.65 205.9 236.1 204.75 L235.2 202.25 234.85 201.0 Q233.95 196.65 235.7 191.5 238.45 182.75 247.4 176.4 253.05 172.3 259.4 170.6 261.75 169.85 264.25 169.65 L267.3 169.35 Q269.6 169.2 271.7 169.4 275.95 169.8 279.45 171.3 282.7 172.8 285.25 175.4 287.65 177.9 288.9 180.95" fill="#999999" fill-rule="evenodd" stroke="none"/>
    <path d="M281.35 164.1 Q287.4 169.95 290.75 177.5 294.35 185.7 293.25 193.9 292.5 199.35 289.95 204.05 L294.7 199.65 Q296.5 205.4 294.5 210.45 291.5 217.65 285.65 222.4 281.4 225.8 276.15 227.65 266.9 230.9 256.65 229.75 251.1 228.95 245.95 225.95 L244.45 224.8 Q246.0 225.05 247.6 224.8 252.75 223.65 246.2 221.7 237.15 217.85 232.35 209.5 228.45 202.9 230.1 192.75 231.7 182.55 238.1 176.2 244.45 169.85 250.25 165.95 252.75 164.65 255.35 163.75 L256.65 163.3 Q259.8 162.3 263.15 161.95 267.75 161.35 272.6 162.0 L274.0 162.25 Q277.9 162.8 281.35 164.1 M273.25 167.85 L271.85 167.65 Q260.15 166.05 249.15 172.4 238.05 178.65 234.1 189.1 230.1 199.45 235.6 207.85 238.6 212.6 243.7 215.2 247.55 217.15 252.6 217.85 259.85 218.8 266.9 216.8 271.15 215.5 275.35 213.1 286.4 206.85 290.4 196.4 294.35 186.0 288.9 177.65 283.85 169.7 273.25 167.85 M284.8 216.05 L284.75 211.55 Q281.4 216.8 275.05 219.0 269.5 220.9 261.8 220.9 263.35 221.25 267.65 223.4 272.0 225.55 278.4 221.95 284.9 218.3 284.8 216.05" fill="#b38b5e" fill-rule="evenodd" stroke="none"/>
    <path d="M288.9 180.95 Q287.65 177.9 285.25 175.4 282.7 172.8 279.45 171.3 275.95 169.8 271.7 169.4 269.6 169.2 267.3 169.35 L264.25 169.65 Q261.75 169.85 259.4 170.6 253.05 172.3 247.4 176.4 238.45 182.75 235.7 191.5 233.95 196.65 234.85 201.0 L235.2 202.25 236.1 204.75 Q236.65 205.9 237.5 207.05 L237.9 207.7 Q239.95 210.4 242.85 212.2 246.95 214.55 252.9 215.15 256.1 215.4 259.3 215.15 L263.15 214.5 Q269.0 213.2 274.8 209.75 285.8 202.9 288.9 192.6 290.55 187.2 289.4 182.75 L289.05 181.3 288.9 180.95 M250.25 165.95 Q248.15 167.0 246.2 168.25 233.6 176.4 229.35 190.35 226.55 199.5 228.45 208.1 228.95 210.4 229.75 212.7 L230.4 214.2 231.5 216.65 Q233.3 220.15 235.75 223.05 237.8 225.5 240.3 227.5 L240.5 227.65 Q243.3 229.8 246.65 231.4 L252.35 233.55 253.95 234.0 254.9 234.2 Q260.15 235.35 265.3 235.0 273.45 234.3 280.65 230.9 287.05 227.75 292.05 222.6 297.2 217.2 300.2 210.1 303.3 202.9 303.05 194.75 303.0 191.5 302.3 188.35 301.25 183.7 298.75 179.3 294.5 171.75 287.2 167.05 284.3 165.25 281.35 164.1 277.9 162.8 274.0 162.25 L272.6 162.0 Q267.75 161.35 263.15 161.95 259.8 162.3 256.65 163.3 L255.35 163.75 Q252.75 164.65 250.25 165.95 Z" fill="none" stroke="#2d2d2d" stroke-linecap="round" stroke-linejoin="round" stroke-opacity="0.5921569" stroke-width="0.5"/>
    <path d="M336.6 177.25 L351.95 164.9 Q370.4 149.2 382.6 126.65 390.35 111.7 392.1 96.15 L392.65 89.3 Q392.8 80.3 391.35 71.1 385.35 38.45 356.25 30.1 349.15 28.0 342.5 27.85 333.45 27.5 324.95 30.25 L334.4 26.7 Q318.55 29.65 314.15 31.45 309.75 33.25 306.7 35.75 L300.75 41.1 297.45 44.4 Q293.25 48.7 289.95 53.75 287.8 57.05 286.5 60.45 L284.3 66.15 283.85 67.3 Q281.5 73.3 279.7 79.6 277.55 86.85 278.05 94.65 L278.6 104.9 279.15 115.6 284.55 112.0 Q288.35 109.9 292.65 110.25 294.3 110.6 295.65 111.45 L296.0 111.65 295.0 112.35 Q291.25 115.25 290.25 120.1 289.8 122.25 290.85 123.85 294.2 128.85 298.95 126.15 L295.55 133.15 293.95 133.6 Q289.45 130.7 284.8 128.35 279.35 125.75 276.45 120.35 L276.75 128.5 283.4 131.75 280.0 132.2 Q277.6 131.65 275.55 133.55 273.7 135.0 273.4 137.3 L275.0 138.45 Q283.9 146.25 295.6 146.3 292.1 150.45 286.15 151.7 274.35 154.05 266.9 145.05 264.4 141.95 264.4 138.15 264.25 125.8 275.75 120.25 269.75 93.25 274.6 69.1 278.85 47.75 296.45 34.05 323.65 12.85 356.2 19.65 389.65 26.8 400.2 59.65 403.35 69.5 404.2 79.35 L402.7 87.35 402.7 87.4 402.6 87.7 400.65 98.2 399.5 103.75 397.0 113.65 395.4 118.75 393.3 123.65 Q390.85 128.3 387.85 132.7 L382.05 141.35 Q379.05 145.85 375.55 149.95 L368.2 157.85 360.85 165.75 Q357.3 169.75 353.4 172.85 349.3 176.05 344.3 177.5 L336.6 177.25 M282.2 96.75 L282.2 98.1 282.0 98.7 282.2 96.75 M397.9 119.65 L397.85 119.7 397.85 119.75 395.4 118.75 397.9 119.65 M299.85 116.3 L300.55 116.2 322.45 101.0 323.3 109.05 338.75 108.2 331.3 117.85 334.2 120.8 333.85 120.7 Q329.6 120.0 325.8 118.2 323.1 116.95 320.5 118.2 318.35 119.3 317.05 121.0 319.5 122.25 322.45 122.85 319.5 123.2 316.7 123.9 L311.3 124.5 Q308.6 124.4 305.95 123.5 300.7 121.7 299.0 125.15 293.65 121.4 298.35 117.6 299.6 117.4 299.85 116.3 M342.75 274.1 L348.75 265.8 Q354.55 259.1 351.8 253.6 L349.3 250.55 357.3 250.8 367.3 238.9 366.2 248.9 383.1 251.1 379.65 252.8 378.5 252.95 Q376.45 253.35 374.5 254.05 L363.55 257.6 Q364.8 258.7 365.45 260.0 L366.2 259.4 366.45 264.4 361.2 263.3 361.45 262.55 Q359.5 261.9 358.0 260.35 357.6 263.8 355.3 266.0 L353.15 267.35 Q349.35 269.15 342.6 276.6 L342.75 274.1 M357.35 270.45 L357.25 270.65 356.95 271.15 359.75 272.9 359.9 270.95 362.6 271.3 366.75 276.85 Q362.8 273.05 358.6 274.45 L357.95 274.7 Q356.1 275.55 355.8 277.95 354.95 283.7 357.2 288.95 L357.8 290.2 Q358.9 292.5 361.35 291.5 L361.5 291.55 Q364.95 291.15 367.05 289.45 L370.6 289.05 370.6 291.25 370.3 290.9 Q366.75 294.4 362.4 297.35 362.5 295.45 361.2 294.45 361.2 296.7 361.95 297.65 L358.3 299.85 355.05 301.1 Q355.85 299.95 355.9 298.45 355.85 295.8 356.2 293.2 356.25 292.7 355.8 291.95 354.6 294.3 354.45 296.95 354.2 299.1 354.95 301.1 352.8 301.55 350.55 301.15 349.25 303.3 347.55 304.25 L343.9 303.5 Q342.65 303.0 341.7 302.25 L341.6 299.45 Q341.3 297.7 341.4 296.1 340.35 297.6 340.0 299.3 338.55 299.8 337.65 298.85 336.9 297.95 336.65 296.85 L336.3 296.1 335.8 295.0 Q336.05 293.2 336.7 291.55 L336.3 291.4 335.55 292.3 Q335.6 291.2 336.0 290.2 336.35 289.45 336.0 289.05 L334.9 289.1 Q333.65 288.35 333.55 286.15 L333.8 285.75 Q334.55 284.1 334.5 283.05 L333.7 284.0 333.4 284.45 Q333.15 283.05 332.55 281.75 331.95 280.45 332.1 279.1 L333.55 277.2 Q335.55 275.1 338.05 273.8 336.35 273.45 334.95 274.25 L332.85 275.65 332.9 274.35 Q332.9 272.4 334.5 271.4 L333.95 270.45 334.1 270.45 335.2 270.2 Q337.55 269.75 340.45 270.95 340.0 272.1 339.85 273.45 339.5 275.8 339.5 278.3 338.35 283.1 339.75 288.0 341.35 293.8 345.6 298.1 L346.1 297.55 Q342.5 291.6 343.0 288.9 L342.85 287.1 Q342.2 283.0 345.95 277.2 L346.35 276.6 Q350.05 275.4 352.45 275.55 L354.15 275.6 Q352.6 274.2 350.55 274.1 L348.0 274.25 348.75 273.25 Q350.25 271.1 352.9 270.7 L355.8 270.4 357.35 270.45 M312.7 287.95 L312.1 286.25 Q310.75 282.3 310.05 279.35 309.25 276.35 308.75 273.2 L307.85 269.05 307.25 269.5 307.75 268.95 307.8 268.85 307.65 268.55 307.75 268.55 308.25 268.3 309.05 267.3 308.65 267.8 308.55 267.95 308.95 268.3 Q315.5 263.55 318.05 268.3 317.8 275.2 316.75 280.8 315.7 286.45 312.7 287.95 M323.7 283.05 L326.3 281.85 326.75 284.75 Q327.15 288.25 328.6 291.45 330.2 294.9 332.7 297.65 L332.5 296.65 333.2 296.5 334.05 296.35 Q334.15 297.25 334.4 297.85 L334.05 298.15 334.05 298.1 333.2 296.5 334.25 303.1 331.75 305.1 Q331.5 303.3 330.55 301.9 L330.35 304.1 330.35 304.0 Q330.05 300.85 326.15 301.8 L323.55 301.55 323.6 301.1 Q323.7 299.6 324.3 298.25 L323.3 298.0 321.75 299.9 321.75 299.85 Q320.25 297.7 320.15 295.0 320.1 293.3 320.35 291.7 L320.6 291.25 322.6 287.65 321.25 288.05 321.3 287.4 321.45 285.05 Q322.35 283.85 323.7 283.05 M350.5 282.2 L349.5 283.0 Q347.35 284.65 346.85 287.45 346.45 289.95 346.5 292.5 L348.65 286.2 Q349.2 284.2 350.9 282.75 L350.5 282.2 M345.4 298.5 L344.6 298.9 Q345.55 301.2 347.8 301.35 347.4 299.05 345.4 298.5" fill="#807c59" fill-rule="evenodd" stroke="none"/>
    <path d="M336.6 177.25 L344.3 177.5 Q349.3 176.05 353.4 172.85 357.3 169.75 360.85 165.75 L368.2 157.85 375.55 149.95 Q379.05 145.85 382.05 141.35 L387.85 132.7 Q390.85 128.3 393.3 123.65 L395.4 118.75 397.0 113.65 399.5 103.75 400.65 98.2 402.6 87.7 402.7 87.4 402.7 87.35 404.2 79.35 Q404.55 83.5 404.5 87.65 L404.5 87.7 404.5 87.8 Q404.3 103.8 397.9 119.65 L395.4 118.75 397.85 119.75 396.8 122.3 395.7 124.75 395.65 124.85 Q383.4 151.7 361.95 171.7 344.05 188.25 332.6 200.45 331.5 190.95 329.0 182.9 L336.6 177.25 M295.6 146.3 Q283.9 146.25 275.0 138.45 L273.4 137.3 Q273.7 135.0 275.55 133.55 277.6 131.65 280.0 132.2 L283.4 131.75 276.75 128.5 276.45 120.35 Q279.35 125.75 284.8 128.35 289.45 130.7 293.95 133.6 L295.55 133.15 298.95 126.15 Q294.2 128.85 290.85 123.85 289.8 122.25 290.25 120.1 291.25 115.25 295.0 112.35 L296.0 111.65 Q298.65 113.55 299.4 116.3 L299.85 116.3 Q299.6 117.4 298.35 117.6 293.65 121.4 299.0 125.15 300.7 121.7 305.95 123.5 308.6 124.4 311.3 124.5 L316.7 123.9 Q319.5 123.2 322.45 122.85 319.5 122.25 317.05 121.0 318.35 119.3 320.5 118.2 323.1 116.95 325.8 118.2 329.6 120.0 333.85 120.7 L334.2 120.8 334.9 121.5 330.6 121.65 329.9 128.15 305.8 126.05 307.65 127.35 Q309.1 128.55 310.05 130.2 313.65 134.65 314.65 140.75 315.5 145.4 314.2 150.05 L312.6 150.55 298.5 141.35 Q297.35 144.2 295.6 146.3 M284.55 112.0 L279.15 115.6 278.6 104.9 278.05 94.65 Q277.55 86.85 279.7 79.6 281.5 73.3 283.85 67.3 L284.3 66.15 286.5 60.45 Q287.8 57.05 289.95 53.75 293.25 48.7 297.45 44.4 L300.75 41.1 306.7 35.75 Q309.75 33.25 314.15 31.45 318.55 29.65 334.4 26.7 L324.95 30.25 Q323.15 30.75 321.4 31.45 L320.15 32.0 Q311.05 35.8 302.6 43.15 290.95 52.95 286.15 66.9 L285.9 67.75 Q284.45 72.0 283.7 76.6 281.9 86.7 282.2 96.75 L282.0 98.7 282.2 98.1 Q282.35 104.1 283.45 110.7 L283.75 112.4 284.55 112.0 M379.65 252.8 L366.2 259.4 365.45 260.0 Q364.8 258.7 363.55 257.6 L374.5 254.05 Q376.45 253.35 378.5 252.95 L379.65 252.8 M361.2 263.3 L357.35 270.45 355.8 270.4 352.9 270.7 Q350.25 271.1 348.75 273.25 L348.0 274.25 350.55 274.1 Q352.6 274.2 354.15 275.6 L352.45 275.55 Q350.05 275.4 346.35 276.6 L345.95 277.2 Q342.2 283.0 342.85 287.1 L343.0 288.9 Q342.5 291.6 346.1 297.55 L345.6 298.1 Q341.35 293.8 339.75 288.0 338.35 283.1 339.5 278.3 339.5 275.8 339.85 273.45 340.0 272.1 340.45 270.95 L340.7 271.05 342.7 274.15 342.75 274.1 342.6 276.6 Q349.35 269.15 353.15 267.35 L355.3 266.0 Q357.6 263.8 358.0 260.35 359.5 261.9 361.45 262.55 L361.2 263.3 M357.25 270.65 L359.75 270.95 359.9 270.95 359.75 272.9 356.95 271.15 357.25 270.65 M366.75 276.85 L358.7 275.75 357.3 288.2 Q357.1 288.55 357.3 288.95 357.75 290.05 361.35 291.5 358.9 292.5 357.8 290.2 L357.2 288.95 Q354.95 283.7 355.8 277.95 356.1 275.55 357.95 274.7 L358.6 274.45 Q362.8 273.05 366.75 276.85 M370.6 291.25 L368.95 295.95 Q364.65 301.05 357.05 302.9 353.45 303.95 351.95 302.65 351.3 302.15 351.05 301.25 L351.5 303.45 Q350.2 306.2 347.7 307.65 345.9 308.65 343.5 308.95 337.55 307.9 336.3 303.15 L336.25 302.85 336.0 307.6 332.95 310.95 Q330.4 309.95 327.85 308.4 L325.7 307.0 325.75 306.9 328.65 306.5 329.35 306.3 Q330.05 305.25 330.35 304.1 L330.55 301.9 Q331.5 303.3 331.75 305.1 L334.25 303.1 333.2 296.5 334.05 298.1 334.05 298.15 Q336.0 301.45 339.6 303.35 L341.35 304.25 341.4 304.25 Q344.9 305.6 347.55 304.25 349.25 303.3 350.55 301.15 352.8 301.55 354.95 301.1 354.2 299.1 354.45 296.95 354.6 294.3 355.8 291.95 356.25 292.7 356.2 293.2 355.85 295.8 355.9 298.45 355.85 299.95 355.05 301.1 L358.3 299.85 361.95 297.65 Q361.2 296.7 361.2 294.45 362.5 295.45 362.4 297.35 366.75 294.4 370.3 290.9 L370.6 291.25 M323.8 305.6 L320.35 302.65 320.25 302.55 321.75 299.9 323.3 298.0 324.3 298.25 Q323.7 299.6 323.6 301.1 L323.55 301.55 Q323.55 302.85 324.05 304.05 324.3 304.8 323.8 305.6 M319.35 301.45 Q317.15 300.1 315.35 295.25 L315.05 294.4 312.7 287.95 Q315.7 286.45 316.75 280.8 317.8 275.2 318.05 268.3 315.5 263.55 308.95 268.3 L308.55 267.95 308.65 267.8 309.05 267.3 Q314.7 260.25 317.15 256.65 317.2 262.45 318.45 268.2 320.05 275.75 323.7 283.05 322.35 283.85 321.45 285.05 321.05 285.5 320.8 286.05 319.95 287.55 319.45 289.05 320.3 288.4 321.25 288.05 L322.6 287.65 320.6 291.25 320.35 291.7 318.8 293.75 318.45 294.25 Q318.25 297.7 319.35 301.45 M326.3 281.85 L329.65 284.25 329.65 282.45 Q330.6 284.6 330.95 286.7 L331.15 288.05 333.4 284.45 333.7 284.0 334.5 283.05 Q334.55 284.1 333.8 285.75 L333.55 286.15 332.6 288.7 332.05 290.2 331.75 290.5 Q331.2 290.0 331.65 292.05 L332.5 296.65 332.7 297.65 Q330.2 294.9 328.6 291.45 327.15 288.25 326.75 284.75 L326.3 281.85 M332.85 275.65 L334.95 274.25 Q336.35 273.45 338.05 273.8 335.55 275.1 333.55 277.2 L332.1 279.1 331.7 279.7 Q330.75 279.05 331.0 277.1 L332.85 275.65 M335.55 292.3 L336.3 291.4 336.7 291.55 Q336.05 293.2 335.8 295.0 L335.65 297.2 335.3 298.85 Q334.7 298.55 334.4 297.85 334.15 297.25 334.05 296.35 L334.05 296.1 Q334.3 293.95 335.55 292.3 M340.0 299.3 Q340.35 297.6 341.4 296.1 341.3 297.7 341.6 299.45 L341.7 302.25 341.4 304.15 340.2 302.9 Q339.8 302.1 339.8 301.1 L340.0 299.3 M350.5 282.2 L350.9 282.75 Q349.2 284.2 348.65 286.2 L346.5 292.5 Q346.45 289.95 346.85 287.45 347.35 284.65 349.5 283.0 L350.5 282.2 M345.4 298.5 Q347.4 299.05 347.8 301.35 345.55 301.2 344.6 298.9 L345.4 298.5" fill="#666148" fill-rule="evenodd" stroke="none"/>
    <path d="M325.7 307.0 L325.0 306.55 323.8 305.6 Q324.3 304.8 324.05 304.05 323.55 302.85 323.55 301.55 L326.15 301.8 Q330.05 300.85 330.35 304.0 L330.35 304.1 Q330.05 305.25 329.35 306.3 L328.65 306.5 325.75 306.9 325.7 307.0 M320.25 302.55 L320.0 301.75 319.35 301.45 Q318.25 297.7 318.45 294.25 L318.8 293.75 320.35 291.7 Q320.1 293.3 320.15 295.0 320.25 297.7 321.75 299.85 L321.75 299.9 320.25 302.55 M329.65 282.45 L329.7 275.2 Q329.5 274.45 329.65 274.25 331.5 271.4 333.95 270.45 L334.5 271.4 Q332.9 272.4 332.9 274.35 L332.85 275.65 331.0 277.1 Q330.75 279.05 331.7 279.7 L332.1 279.1 Q331.95 280.45 332.55 281.75 333.15 283.05 333.4 284.45 L331.15 288.05 330.95 286.7 Q330.6 284.6 329.65 282.45 M333.55 286.15 Q333.65 288.35 334.9 289.1 L336.0 289.05 Q336.35 289.45 336.0 290.2 335.6 291.2 335.55 292.3 334.3 293.95 334.05 296.1 L334.05 296.35 333.2 296.5 332.5 296.65 331.65 292.05 Q331.2 290.0 331.75 290.5 L332.05 290.2 332.6 288.7 333.55 286.15 M335.8 295.0 L336.3 296.1 336.65 296.85 Q336.9 297.95 337.65 298.85 338.55 299.8 340.0 299.3 L339.8 301.1 Q339.8 302.1 340.2 302.9 L341.4 304.15 341.7 302.25 Q342.65 303.0 343.9 303.5 L347.55 304.25 Q344.9 305.6 341.4 304.25 L341.35 304.25 339.6 303.35 Q336.0 301.45 334.05 298.15 L334.4 297.85 Q334.7 298.55 335.3 298.85 L335.65 297.2 335.8 295.0 M321.25 288.05 Q320.3 288.4 319.45 289.05 319.95 287.55 320.8 286.05 321.05 285.5 321.45 285.05 L321.3 287.4 321.25 288.05" fill="#a7a083" fill-rule="evenodd" stroke="none"/>
    <path d="M208.9 168.55 Q225.45 159.5 248.8 159.5 272.15 159.5 288.75 168.55 305.3 177.65 305.3 190.55 305.3 203.4 288.75 212.45 272.15 221.5 248.8 221.55 231.3 221.5 217.65 216.4 L217.05 215.5 Q216.45 215.0 215.6 215.05 L214.6 215.2 Q211.65 213.95 208.9 212.45 192.3 203.4 192.35 190.55 192.3 177.65 208.9 168.55 M217.2 212.4 L217.15 212.05 216.55 211.15 Q215.95 210.65 215.1 210.65 L214.15 210.9 213.65 211.15 Q213.05 211.7 213.05 212.4 213.05 213.1 213.65 213.6 214.25 214.1 215.1 214.1 215.95 214.1 216.55 213.6 217.15 213.1 217.2 212.4" fill="#382816" fill-opacity="0.47058824" fill-rule="evenodd" stroke="none"/>
    <path d="M185.85 219.45 L185.35 212.2 192.95 215.2 190.95 217.2 193.05 221.35 Q194.45 220.65 195.9 220.8 197.85 220.95 198.75 222.4 199.15 223.05 199.2 223.9 199.25 224.7 198.9 225.75 198.15 227.65 196.3 228.85 194.4 230.0 192.5 229.8 191.55 229.75 191.0 229.4 L184.75 235.55 186.3 237.6 178.45 239.8 180.6 232.8 182.7 234.45 189.5 227.85 Q189.0 226.6 189.5 225.05 189.9 223.95 190.8 223.05 L190.8 223.0 188.1 218.5 185.85 219.45" fill="#c8c8c8" fill-rule="evenodd" stroke="none"/>
    <path d="M217.2 212.4 Q217.15 213.1 216.55 213.6 215.95 214.1 215.1 214.1 214.25 214.1 213.65 213.6 213.05 213.1 213.05 212.4 213.05 211.7 213.65 211.15 L214.15 210.9 215.1 210.65 Q215.95 210.65 216.55 211.15 L217.15 212.05 217.2 212.4 M214.0 227.05 Q213.15 227.05 212.55 226.5 211.95 226.05 211.95 225.35 211.95 224.65 212.55 224.1 213.15 223.6 214.0 223.6 214.8 223.6 215.45 224.1 216.05 224.65 216.1 225.35 216.05 226.05 215.45 226.5 214.8 227.05 214.0 227.05 M206.5 234.35 Q207.35 234.3 208.0 234.8 208.6 235.35 208.6 236.1 208.6 236.75 208.0 237.25 207.35 237.8 206.5 237.8 205.65 237.8 205.05 237.25 204.45 236.75 204.45 236.1 204.45 235.35 205.05 234.8 205.65 234.3 206.5 234.35 M195.9 207.95 Q195.25 208.5 194.4 208.5 193.55 208.5 192.95 207.95 192.35 207.45 192.35 206.75 192.35 206.05 192.95 205.55 193.55 205.05 194.4 205.05 195.25 205.05 195.9 205.55 196.5 206.05 196.5 206.75 196.5 207.45 195.9 207.95 M180.55 215.75 Q179.7 215.7 179.1 215.15 178.5 214.65 178.5 214.0 178.5 213.3 179.1 212.75 179.7 212.25 180.55 212.25 181.4 212.25 182.0 212.75 182.6 213.3 182.65 214.0 182.6 214.65 182.0 215.15 181.4 215.7 180.55 215.75 M174.4 224.9 Q175.0 225.45 175.0 226.2 175.0 226.85 174.4 227.35 173.8 227.9 172.95 227.9 172.1 227.9 171.5 227.35 170.85 226.85 170.85 226.2 170.85 225.45 171.5 224.9 172.1 224.4 172.95 224.45 173.8 224.4 174.4 224.9 M176.75 240.0 Q176.15 240.55 175.3 240.6 174.45 240.55 173.85 240.0 173.2 239.5 173.2 238.85 173.2 238.15 173.85 237.6 174.45 237.1 175.3 237.1 176.15 237.1 176.75 237.6 177.35 238.15 177.4 238.85 177.35 239.5 176.75 240.0 M189.5 240.3 Q190.1 239.8 190.95 239.8 191.75 239.8 192.4 240.3 193.0 240.85 193.05 241.55 193.0 242.25 192.4 242.75 191.75 243.25 190.95 243.25 190.1 243.25 189.5 242.75 188.85 242.25 188.9 241.55 188.85 240.85 189.5 240.3" fill="#5a5a5a" fill-rule="evenodd" stroke="none"/>
    <path d="M199.15 225.45 Q198.3 227.35 196.35 228.45 194.35 229.5 192.35 229.15 L190.7 228.6 183.35 234.6 184.9 236.95 175.6 238.9 178.9 231.3 181.15 233.25 189.3 226.8 Q188.8 225.45 189.6 223.95 190.05 222.85 190.95 222.1 L191.05 222.0 188.55 217.15 186.05 217.85 186.2 210.65 193.8 214.55 191.6 216.2 193.55 220.55 196.35 220.3 Q198.4 220.65 199.2 222.15 200.05 223.65 199.15 225.45" fill="#000000" fill-rule="evenodd" stroke="none"/>
    <path d="M217.1 210.2 L215.6 209.1 215.25 207.9 215.5 194.9 Q211.0 203.6 206.05 205.2 204.45 205.75 203.25 206.4 L201.6 206.6 199.25 204.35 197.6 202.25 Q196.15 196.25 200.3 192.1 L200.2 192.05 Q196.45 194.75 191.15 194.6 188.05 194.45 186.15 192.4 186.9 189.35 190.3 185.45 191.05 184.55 192.25 184.1 L189.25 183.6 183.75 178.6 Q178.7 158.9 192.4 145.5 199.8 138.3 208.4 133.05 213.3 129.95 218.65 127.45 223.15 125.35 227.85 124.15 235.4 122.05 243.55 122.25 L247.5 124.45 252.85 128.0 253.1 131.25 Q253.8 137.5 249.05 139.5 L250.4 140.0 250.95 140.1 252.35 140.1 Q257.45 139.65 262.1 137.55 L264.45 136.95 Q276.05 134.15 287.95 135.4 302.95 136.2 310.25 149.4 L309.35 149.55 Q308.5 152.4 308.0 155.3 L307.65 157.55 306.85 159.8 Q304.2 165.9 296.05 178.7 284.05 197.3 266.0 193.25 283.35 197.65 254.55 201.25 242.8 201.0 235.6 193.45 L234.95 192.75 235.3 194.0 Q233.95 198.7 230.8 202.7 227.5 207.1 222.25 208.0 219.0 208.55 217.1 210.2 M201.4 145.6 L202.85 144.35 Q207.9 140.25 212.1 137.65 214.95 135.9 217.5 134.8 223.75 131.95 230.1 130.75 L230.35 130.75 Q234.95 130.9 234.95 136.4 234.95 141.9 235.8 146.3 L244.8 144.0 235.8 146.3 Q234.95 141.9 234.95 136.4 234.95 130.9 230.35 130.75 L230.1 130.75 Q223.75 131.95 217.5 134.8 214.95 135.9 212.1 137.65 207.9 140.25 202.85 144.35 L201.4 145.6 Q194.6 151.55 195.65 156.6 196.7 162.05 204.7 163.1 207.4 163.45 210.2 163.2 L210.2 162.9 Q206.8 162.55 203.25 160.5 199.65 158.35 199.3 154.3 198.95 150.3 201.4 145.6 M244.95 145.65 L246.1 150.9 249.05 150.25 Q255.65 148.2 262.6 146.4 271.4 143.8 280.4 144.6 288.7 145.6 292.15 153.4 295.6 161.25 290.15 168.25 285.95 173.65 280.1 177.05 277.35 178.7 274.25 179.5 L268.35 180.2 274.25 179.5 Q277.35 178.7 280.1 177.05 285.95 173.65 290.15 168.25 295.6 161.25 292.15 153.4 288.7 145.6 280.4 144.6 271.4 143.8 262.6 146.4 255.65 148.2 249.05 150.25 L246.1 150.9 244.95 145.65 M216.2 146.65 Q217.95 145.95 220.55 145.65 224.65 144.75 226.4 148.8 226.8 150.3 226.8 151.75 226.75 157.0 220.5 160.15 217.95 161.4 215.45 162.2 L210.2 163.2 215.45 162.2 Q217.95 161.4 220.5 160.15 226.75 157.0 226.8 151.75 226.8 150.3 226.4 148.8 224.65 144.75 220.55 145.65 217.95 145.95 216.2 146.65 L214.9 147.3 Q213.35 148.3 213.1 149.7 212.45 152.85 215.05 153.05 L217.5 152.6 Q214.8 150.6 216.2 146.65 M219.3 151.05 L217.5 152.6 219.3 151.05 M211.5 180.75 L214.4 176.6 Q210.05 178.15 205.6 180.55 200.4 183.4 202.1 185.75 202.65 186.6 204.15 187.4 206.15 188.05 207.75 185.8 L211.5 180.75 M214.5 191.35 L214.7 191.55 218.3 191.75 Q219.8 191.75 220.0 190.85 220.65 188.3 220.9 185.8 221.2 182.55 220.8 179.4 219.6 181.45 217.05 183.25 211.15 187.35 214.5 191.35 M201.2 191.2 L200.7 191.7 200.3 192.1 200.7 191.7 201.2 191.2 M200.35 180.4 L192.25 184.1 200.35 180.4 M264.6 158.05 L265.45 157.8 Q267.6 157.7 268.05 158.75 267.6 157.7 265.45 157.8 L264.6 158.05 Q256.55 160.75 260.15 163.45 262.45 165.05 265.5 165.65 260.45 162.3 264.6 158.05 M255.65 155.1 L256.25 154.8 Q258.45 153.55 260.85 152.6 269.15 149.2 274.0 152.4 278.85 155.5 277.35 160.6 275.8 165.65 269.95 165.95 L265.5 165.65 269.95 165.95 Q275.8 165.65 277.35 160.6 278.85 155.5 274.0 152.4 269.15 149.2 260.85 152.6 258.45 153.55 256.25 154.8 L255.65 155.1 Q250.55 157.9 246.45 162.05 240.45 168.15 247.65 173.45 254.85 178.7 264.05 179.95 L268.35 180.2 266.7 179.8 257.4 176.4 Q252.85 174.55 249.25 170.5 245.5 166.35 248.95 161.4 251.65 157.5 255.65 155.1" fill="#fbf4e3" fill-rule="evenodd" stroke="none"/>
    <path d="M252.85 128.0 Q258.05 132.0 262.1 137.55 257.45 139.65 252.35 140.1 L250.95 140.1 250.4 140.0 249.05 139.5 Q253.8 137.5 253.1 131.25 L252.85 128.0 M201.4 145.6 Q198.95 150.3 199.3 154.3 199.65 158.35 203.25 160.5 206.8 162.55 210.2 162.9 L210.2 163.2 Q207.4 163.45 204.7 163.1 196.7 162.05 195.65 156.6 194.6 151.55 201.4 145.6 M216.2 146.65 Q214.8 150.6 217.5 152.6 L215.05 153.05 Q212.45 152.85 213.1 149.7 213.35 148.3 214.9 147.3 L216.2 146.65 M202.1 185.75 Q200.4 183.4 205.6 180.55 210.05 178.15 214.4 176.6 L211.5 180.75 209.7 181.4 Q207.2 182.3 204.85 183.6 203.25 184.5 202.1 185.75 M214.5 191.35 Q211.15 187.35 217.05 183.25 219.6 181.45 220.8 179.4 221.2 182.55 220.9 185.8 219.3 185.7 217.75 187.25 215.8 189.05 214.5 191.35 M264.6 158.05 Q260.45 162.3 265.5 165.65 262.45 165.05 260.15 163.45 256.55 160.75 264.6 158.05 M255.65 155.1 Q251.65 157.5 248.95 161.4 245.5 166.35 249.25 170.5 252.85 174.55 257.4 176.4 L266.7 179.8 268.35 180.2 264.05 179.95 Q254.85 178.7 247.65 173.45 240.45 168.15 246.45 162.05 250.55 157.9 255.65 155.1" fill="#dfceaa" fill-rule="evenodd" stroke="none"/>
    <path d="M341.2 139.1 L344.65 140.4 346.7 146.1 Q342.9 158.05 334.6 167.55 327.05 176.05 316.65 179.85 L311.55 181.45 308.65 181.55 Q307.2 175.3 307.0 169.05 306.85 164.35 307.4 159.7 L311.35 159.15 311.0 159.9 Q311.6 161.7 313.6 162.2 315.5 162.75 316.55 160.9 L316.05 158.9 320.35 157.1 Q329.9 165.75 333.65 151.75 334.05 150.0 332.1 148.9 339.1 146.15 341.2 139.1 M208.4 133.05 Q208.1 132.15 208.15 131.25 209.05 117.75 218.65 109.65 219.8 108.7 221.1 108.55 219.65 111.8 220.65 115.55 221.9 120.3 226.95 120.45 L227.85 124.15 Q223.15 125.35 218.65 127.45 213.3 129.95 208.4 133.05" fill="#536d8c" fill-rule="evenodd" stroke="none"/>
    <path d="M310.25 149.4 Q324.35 147.55 336.7 140.7 L340.2 138.75 341.2 139.1 Q339.1 146.15 332.1 148.9 334.05 150.0 333.65 151.75 329.9 165.75 320.35 157.1 L316.05 158.9 316.55 160.9 Q315.5 162.75 313.6 162.2 311.6 161.7 311.0 159.9 L311.35 159.15 307.4 159.7 Q307.45 158.6 307.65 157.55 L308.0 155.3 Q308.5 152.4 309.35 149.55 L310.25 149.4 M221.1 108.55 Q222.3 108.4 223.6 109.05 225.9 110.0 225.9 112.45 226.2 116.7 226.95 120.45 221.9 120.3 220.65 115.55 219.65 111.8 221.1 108.55" fill="#5598bb" fill-rule="evenodd" stroke="none"/>
    <path d="M211.5 180.75 L207.75 185.8 Q206.15 188.05 204.15 187.4 202.65 186.6 202.1 185.75 203.25 184.5 204.85 183.6 207.2 182.3 209.7 181.4 L211.5 180.75 M220.9 185.8 Q220.65 188.3 220.0 190.85 219.8 191.75 218.3 191.75 L214.7 191.55 214.5 191.35 Q215.8 189.05 217.75 187.25 219.3 185.7 220.9 185.8" fill="#9d783c" fill-rule="evenodd" stroke="none"/>
    <path d="M311.55 181.45 L311.0 184.7 Q300.2 196.0 286.2 202.8 271.75 209.8 255.55 209.0 245.75 208.55 236.4 205.05 L236.5 206.75 Q228.05 217.65 217.1 210.2 219.0 208.55 222.25 208.0 227.5 207.1 230.8 202.7 233.95 198.7 235.3 194.0 L234.95 192.75 235.6 193.45 Q242.8 201.0 254.55 201.25 283.35 197.65 266.0 193.25 284.05 197.3 296.05 178.7 304.2 165.9 306.85 159.8 L307.65 157.55 Q307.45 158.6 307.4 159.7 306.85 164.35 307.0 169.05 307.2 175.3 308.65 181.55 L311.55 181.45 M215.25 207.9 Q207.35 211.0 201.6 206.6 L203.25 206.4 Q204.45 205.75 206.05 205.2 211.0 203.6 215.5 194.9 L215.25 207.9 M197.6 202.25 Q184.2 199.75 186.15 192.4 188.05 194.45 191.15 194.6 196.45 194.75 200.2 192.05 L200.3 192.1 Q196.15 196.25 197.6 202.25 M236.4 205.05 L236.15 199.4 Q236.0 196.55 235.3 194.0 236.0 196.55 236.15 199.4 L236.4 205.05" fill="#d5bb91" fill-rule="evenodd" stroke="none"/>
    <path d="M310.25 149.4 Q324.35 147.55 336.7 140.7 L340.2 138.75 341.2 139.1 344.65 140.4 346.7 146.1 Q342.9 158.05 334.6 167.55 327.05 176.05 316.65 179.85 L311.55 181.45 311.0 184.7 Q300.2 196.0 286.2 202.8 271.75 209.8 255.55 209.0 245.75 208.55 236.4 205.05 L236.5 206.75 Q228.05 217.65 217.1 210.2 L215.6 209.1 215.25 207.9 Q207.35 211.0 201.6 206.6 L199.25 204.35 197.6 202.25 Q184.2 199.75 186.15 192.4 186.9 189.35 190.3 185.45 191.05 184.55 192.25 184.1 L189.25 183.6 183.75 178.6 Q178.7 158.9 192.4 145.5 199.8 138.3 208.4 133.05 213.3 129.95 218.65 127.45 223.15 125.35 227.85 124.15 235.4 122.05 243.55 122.25 L247.5 124.45 252.85 128.0 Q258.05 132.0 262.1 137.55 L264.45 136.95 Q276.05 134.15 287.95 135.4 302.95 136.2 310.25 149.4 L309.35 149.55 Q308.5 152.4 308.0 155.3 L307.65 157.55 Q307.45 158.6 307.4 159.7 306.85 164.35 307.0 169.05 307.2 175.3 308.65 181.55 L311.55 181.45 M234.95 192.75 L235.3 194.0 Q236.0 196.55 236.15 199.4 L236.4 205.05 M262.1 137.55 Q257.45 139.65 252.35 140.1 L250.95 140.1 250.4 140.0 M200.3 192.1 L200.7 191.7 201.2 191.2 M215.25 207.9 L215.5 194.9 M197.6 202.25 Q196.15 196.25 200.3 192.1 M192.25 184.1 L200.35 180.4" fill="none" stroke="#b78128" stroke-linecap="round" stroke-linejoin="round" stroke-opacity="0.2627451" stroke-width="0.5"/>
    <path d="M268.35 180.2 L274.25 179.5 Q277.35 178.7 280.1 177.05 285.95 173.65 290.15 168.25 295.6 161.25 292.15 153.4 288.7 145.6 280.4 144.6 271.4 143.8 262.6 146.4 255.65 148.2 249.05 150.25 L246.1 150.9 244.95 145.65 M244.8 144.0 L235.8 146.3 Q234.95 141.9 234.95 136.4 234.95 130.9 230.35 130.75 L230.1 130.75 Q223.75 131.95 217.5 134.8 214.95 135.9 212.1 137.65 207.9 140.25 202.85 144.35 L201.4 145.6 Q194.6 151.55 195.65 156.6 196.7 162.05 204.7 163.1 207.4 163.45 210.2 163.2 L215.45 162.2 Q217.95 161.4 220.5 160.15 226.75 157.0 226.8 151.75 226.8 150.3 226.4 148.8 224.65 144.75 220.55 145.65 217.95 145.95 216.2 146.65 L214.9 147.3 Q213.35 148.3 213.1 149.7 212.45 152.85 215.05 153.05 L217.5 152.6 219.3 151.05 M268.05 158.75 Q267.6 157.7 265.45 157.8 L264.6 158.05 Q256.55 160.75 260.15 163.45 262.45 165.05 265.5 165.65 L269.95 165.95 Q275.8 165.65 277.35 160.6 278.85 155.5 274.0 152.4 269.15 149.2 260.85 152.6 258.45 153.55 256.25 154.8 L255.65 155.1 Q250.55 157.9 246.45 162.05 240.45 168.15 247.65 173.45 254.85 178.7 264.05 179.95 L268.35 180.2" fill="none" stroke="#8a5a20" stroke-linecap="round" stroke-linejoin="round" stroke-opacity="0.3529412" stroke-width="0.5"/>
  </g>
  <defs>
    <radialGradient cx="0" cy="0" gradientTransform="matrix(0.0506, -0.0132, 0.0193, 0.0324, 211.85, 190.85)" gradientUnits="userSpaceOnUse" id="gradient0" r="819.2" spreadMethod="pad">
      <stop offset="0.0" stop-color="#b16c27"/>
      <stop offset="1.0" stop-color="#af791f"/>
    </radialGradient>
    <linearGradient gradientTransform="matrix(0.0377, -0.0099, 0.011, 0.0185, 211.85, 186.8)" gradientUnits="userSpaceOnUse" id="gradient1" spreadMethod="pad" x1="-819.2" x2="819.2">
      <stop offset="0.0" stop-color="#693f16"/>
      <stop offset="1.0" stop-color="#af8e43"/>
    </linearGradient>
    <linearGradient gradientTransform="matrix(0.0954, 0.0, 0.0, 0.0731, 230.75, 209.8)" gradientUnits="userSpaceOnUse" id="gradient2" spreadMethod="pad" x1="-819.2" x2="819.2">
      <stop offset="0.0" stop-color="#693f16"/>
      <stop offset="1.0" stop-color="#af8e43"/>
    </linearGradient>
    <radialGradient cx="0" cy="0" gradientTransform="matrix(0.0501, -0.004, 0.0119, 0.0506, 193.1, 230.2)" gradientUnits="userSpaceOnUse" id="gradient3" r="819.2" spreadMethod="pad">
      <stop offset="0.0" stop-color="#b16c27"/>
      <stop offset="1.0" stop-color="#af791f"/>
    </radialGradient>
    <linearGradient gradientTransform="matrix(0.0374, -0.003, 0.0068, 0.0289, 193.9, 224.5)" gradientUnits="userSpaceOnUse" id="gradient4" spreadMethod="pad" x1="-819.2" x2="819.2">
      <stop offset="0.0" stop-color="#693f16"/>
      <stop offset="1.0" stop-color="#af8e43"/>
    </linearGradient>
    <radialGradient cx="0" cy="0" gradientTransform="matrix(0.0504, -0.0042, 0.012, 0.0526, 261.4, 198.65)" gradientUnits="userSpaceOnUse" id="gradient5" r="819.2" spreadMethod="pad">
      <stop offset="0.0" stop-color="#b16c27"/>
      <stop offset="1.0" stop-color="#af791f"/>
    </radialGradient>
    <linearGradient gradientTransform="matrix(0.0376, -0.0031, 0.0069, 0.0301, 262.25, 192.75)" gradientUnits="userSpaceOnUse" id="gradient6" spreadMethod="pad" x1="-819.2" x2="819.2">
      <stop offset="0.0" stop-color="#693f16"/>
      <stop offset="1.0" stop-color="#af8e43"/>
    </linearGradient>
  </defs>
</svg>
