<?xml version="1.0" encoding="UTF-8" standalone="no"?>
<svg xmlns:xlink="http://www.w3.org/1999/xlink" height="6.25px" width="9.2px" xmlns="http://www.w3.org/2000/svg">
  <g transform="matrix(1.0, 0.0, 0.0, 1.0, 0.1, 3.1)">
    <path d="M0.05 1.45 L0.0 1.15 0.05 0.85 0.05 1.45" fill="#cdc098" fill-rule="evenodd" stroke="none"/>
    <path d="M0.05 -0.8 L0.0 -1.1 Q0.0 -1.9 1.3 -2.45 L1.45 -2.5 1.85 -2.65 2.4 -2.8 2.55 -2.8 3.55 -2.95 3.85 -2.95 4.25 -3.0 4.5 -3.0 4.95 -3.0 6.4 -2.8 6.95 -2.7 7.65 -2.45 Q9.0 -1.9 9.0 -1.1 L9.0 -1.0 9.0 1.2 8.9 1.6 7.65 2.5 7.65 0.25 6.95 0.5 6.4 0.65 4.95 0.8 4.5 0.8 4.25 0.8 3.85 0.8 3.55 0.75 2.85 0.7 2.55 0.65 2.4 0.6 1.85 0.45 1.45 0.3 1.3 0.25 0.85 0.05 Q0.2 -0.35 0.05 -0.8 M1.85 -2.15 L1.75 -2.15 1.45 -2.0 Q0.65 -1.65 0.65 -1.15 L0.7 -0.9 Q0.8 -0.6 1.35 -0.3 L1.45 -0.25 1.75 -0.1 1.85 -0.1 2.4 0.1 2.55 0.1 2.85 0.15 3.55 0.25 3.85 0.25 4.25 0.3 4.5 0.3 4.95 0.3 6.4 0.1 6.95 0.0 7.25 -0.1 7.65 -0.3 7.75 -0.35 Q8.35 -0.65 8.4 -1.05 L8.4 -1.15 Q8.4 -1.75 7.25 -2.15 L6.95 -2.25 6.4 -2.4 4.95 -2.55 4.5 -2.55 4.25 -2.55 3.85 -2.55 3.55 -2.5 2.55 -2.35 2.4 -2.35 1.85 -2.15" fill="#f5f4de" fill-rule="evenodd" stroke="none"/>
    <path d="M7.65 2.5 L6.95 2.75 4.95 3.05 4.5 3.05 4.25 3.05 3.85 3.05 3.55 3.0 2.85 2.95 2.85 0.7 3.55 0.75 3.85 0.8 4.25 0.8 4.5 0.8 4.95 0.8 6.4 0.65 6.95 0.5 7.65 0.25 7.65 2.5" fill="#cbc087" fill-rule="evenodd" stroke="none"/>
    <path d="M2.85 2.95 L2.55 2.9 2.4 2.85 1.85 2.7 1.45 2.55 1.3 2.5 0.2 1.7 0.05 1.45 0.05 0.85 0.05 -0.8 Q0.2 -0.35 0.85 0.05 L1.3 0.25 1.45 0.3 1.85 0.45 2.4 0.6 2.55 0.65 2.85 0.7 2.85 2.95" fill="#a49646" fill-rule="evenodd" stroke="none"/>
    <path d="M1.85 -0.1 L1.75 -0.1 1.45 -0.25 1.35 -0.3 Q0.8 -0.6 0.7 -0.9 L0.65 -1.15 Q0.65 -1.65 1.45 -2.0 L1.75 -2.15 1.85 -2.15 1.85 -0.1" fill="#ae976a" fill-rule="evenodd" stroke="none"/>
    <path d="M1.85 -2.15 L2.4 -2.35 2.55 -2.35 3.55 -2.5 3.55 0.25 2.85 0.15 2.55 0.1 2.4 0.1 1.85 -0.1 1.85 -2.15" fill="#d3c7af" fill-rule="evenodd" stroke="none"/>
    <path d="M6.4 -2.4 L6.95 -2.25 7.25 -2.15 Q8.4 -1.75 8.4 -1.15 L8.4 -1.05 Q8.35 -0.65 7.75 -0.35 L7.65 -0.3 7.25 -0.1 6.95 0.0 6.4 0.1 6.4 -2.4" fill="#53452d" fill-rule="evenodd" stroke="none"/>
    <path d="M3.55 -2.5 L3.85 -2.55 4.25 -2.55 4.5 -2.55 4.95 -2.55 6.4 -2.4 6.4 0.1 4.95 0.3 4.5 0.3 4.25 0.3 3.85 0.25 3.55 0.25 3.55 -2.5" fill="#8a734a" fill-rule="evenodd" stroke="none"/>
    <path d="M0.05 -0.8 L0.0 -1.1 Q0.0 -1.9 1.3 -2.45 L1.45 -2.5 1.85 -2.65 2.4 -2.8 2.55 -2.8 3.55 -2.95 3.85 -2.95 4.25 -3.0 4.5 -3.0 4.95 -3.0 6.4 -2.8 6.95 -2.7 7.65 -2.45 Q9.0 -1.9 9.0 -1.1 L9.0 -1.0 9.0 1.2 8.9 1.6 7.65 2.5 6.95 2.75 4.95 3.05 4.5 3.05 4.25 3.05 3.85 3.05 3.55 3.0 2.85 2.95 2.55 2.9 2.4 2.85 1.85 2.7 1.45 2.55 1.3 2.5 0.2 1.7 0.05 1.45 0.0 1.15 0.05 0.85 0.05 -0.8 M0.05 0.85 L0.05 1.45" fill="none" stroke="#000000" stroke-linecap="round" stroke-linejoin="round" stroke-opacity="0.6" stroke-width="0.25"/>
    <path d="M1.7 1.0 L1.6 1.1 2.0 1.4 2.15 1.8 2.1 2.0 1.9 2.15 1.6 2.15 1.45 2.05 1.4 1.95 1.4 1.9 1.45 1.85 1.5 1.95 1.6 1.95 1.75 2.05 1.95 2.05 2.0 1.85 1.95 1.65 1.85 1.5 1.7 1.35 1.45 1.25 1.7 0.85 2.15 0.95 2.1 1.1 1.7 1.0" fill="#585143" fill-rule="evenodd" stroke="none"/>
    <path d="M3.0 1.1 L3.0 2.35 3.05 2.4 3.15 2.4 3.15 2.45 2.65 2.45 2.65 2.4 2.8 2.4 2.8 2.35 2.85 2.2 2.85 1.5 2.8 1.3 2.8 1.25 2.75 1.25 2.65 1.3 2.65 1.25 2.95 1.1 3.0 1.1" fill="#585143" fill-rule="evenodd" stroke="none"/>
    <path d="M3.6 1.5 L3.55 1.5 3.7 1.25 3.9 1.2 4.15 1.3 4.2 1.45 4.05 1.75 4.2 1.9 4.3 2.1 4.2 2.4 Q4.05 2.6 3.75 2.6 L3.6 2.55 3.55 2.45 3.55 2.4 3.65 2.4 3.75 2.45 3.8 2.5 3.9 2.5 4.05 2.4 4.15 2.2 4.1 2.1 4.05 2.0 3.95 1.95 3.8 1.9 3.75 1.9 3.75 1.85 3.9 1.8 4.0 1.7 4.05 1.55 4.0 1.4 3.85 1.35 Q3.7 1.35 3.6 1.5" fill="#585143" fill-rule="evenodd" stroke="none"/>
    <path d="M5.4 2.5 L4.6 2.6 4.6 2.55 5.15 1.9 5.2 1.65 5.15 1.45 4.95 1.35 4.8 1.45 4.65 1.6 4.75 1.35 5.0 1.2 5.3 1.3 5.4 1.5 5.35 1.7 5.1 2.1 4.8 2.45 5.15 2.4 5.35 2.35 5.45 2.25 5.4 2.5" fill="#585143" fill-rule="evenodd" stroke="none"/>
    <path d="M7.75 0.7 L7.75 0.75 7.55 0.85 Q7.45 0.85 7.4 0.95 L7.25 1.2 7.15 1.4 7.3 1.3 7.45 1.25 7.7 1.3 7.75 1.6 7.65 2.0 7.35 2.15 7.1 2.1 6.95 1.65 7.0 1.3 7.2 1.0 7.45 0.8 7.7 0.7 7.75 0.7 M7.15 1.5 L7.1 1.7 7.2 2.0 7.4 2.05 7.55 2.0 7.6 1.75 7.55 1.45 7.35 1.35 7.25 1.4 7.15 1.5" fill="#585143" fill-rule="evenodd" stroke="none"/>
  </g>
</svg>
