<?xml version="1.0" encoding="UTF-8" standalone="no"?>
<svg xmlns:xlink="http://www.w3.org/1999/xlink" height="37.3px" width="60.95px" xmlns="http://www.w3.org/2000/svg">
  <g transform="matrix(1.0, 0.0, 0.0, 1.0, -243.65, -174.3)">
    <path d="M261.8 175.1 Q264.3 175.55 266.3 176.65 L266.4 176.75 266.4 176.8 267.55 177.0 267.65 177.6 267.7 177.65 268.35 177.2 273.85 178.35 273.9 178.35 273.85 178.35 276.45 179.1 276.55 179.15 276.55 179.1 276.6 179.1 276.75 180.2 276.6 184.3 276.55 184.9 276.5 185.95 276.5 186.05 276.5 186.1 276.15 186.4 276.7 186.85 276.75 187.7 281.9 186.9 282.2 187.2 282.25 187.15 282.55 187.0 282.6 187.0 282.65 186.8 283.3 186.7 Q285.25 185.7 287.65 185.4 291.25 184.9 294.1 186.3 L295.9 187.45 299.85 191.0 300.45 191.55 Q301.5 192.65 301.75 194.1 L301.8 194.95 301.9 196.85 303.0 197.45 303.05 197.5 303.9 197.95 303.95 198.0 304.05 198.05 304.0 198.1 304.0 198.15 304.1 198.1 304.0 198.25 303.95 198.4 302.5 205.15 302.7 206.0 302.8 206.3 Q303.3 208.05 297.75 208.7 292.15 209.3 287.35 210.8 282.55 212.25 280.15 206.9 277.7 201.55 273.2 198.05 L273.4 195.95 273.4 195.9 273.95 195.45 273.65 195.15 273.65 195.1 273.7 195.0 273.65 194.0 273.7 193.4 273.7 191.4 Q270.8 194.0 268.85 197.55 265.9 202.8 260.95 200.95 256.0 199.1 250.15 198.1 244.3 197.1 245.0 195.35 L245.1 195.1 245.35 194.25 244.3 187.3 244.25 187.1 244.15 186.95 244.25 187.0 244.2 186.95 244.3 186.9 244.4 186.85 245.25 186.5 245.55 183.85 245.7 183.05 Q246.05 181.55 247.25 180.55 L247.95 180.0 248.7 179.5 Q248.25 179.65 247.95 179.9 L247.9 179.9 252.5 176.6 Q253.35 176.0 254.55 175.6 257.8 174.3 261.8 175.1 M257.0 178.85 L256.9 178.85 Q254.1 178.35 251.7 178.8 249.4 182.1 250.05 184.35 L250.1 184.35 Q251.95 183.55 252.9 182.55 254.45 180.7 257.0 178.85 M296.55 189.45 L296.55 189.4 292.3 189.1 Q294.7 191.15 296.1 193.15 296.7 193.95 297.85 194.65 298.2 192.55 296.55 189.5 L296.55 189.45" fill="#000000" fill-rule="evenodd" stroke="none"/>
    <path d="M261.8 175.1 Q264.3 175.55 266.3 176.65 L266.4 176.75 266.4 176.8 267.55 177.0 267.65 177.6 267.7 177.65 268.35 177.2 273.85 178.35 273.9 178.35 273.85 178.35 276.45 179.1 276.55 179.15 276.55 179.1 276.6 179.1 276.75 180.2 276.6 184.3 276.55 184.9 276.5 185.95 276.5 186.05 276.5 186.1 276.15 186.4 276.7 186.85 276.75 187.7 281.9 186.9 282.2 187.2 282.25 187.15 282.55 187.0 282.6 187.0 282.65 186.8 283.3 186.7 Q285.25 185.7 287.65 185.4 291.25 184.9 294.1 186.3 L295.9 187.45 299.85 191.0 300.45 191.55 Q301.5 192.65 301.75 194.1 L301.8 194.95 301.9 196.85 303.0 197.45 303.05 197.5 303.9 197.95 303.95 198.0 304.05 198.05 304.0 198.1 304.0 198.15 304.1 198.1 304.0 198.25 303.95 198.4 302.5 205.15 302.7 206.0 302.8 206.3 Q303.3 208.05 297.75 208.7 292.15 209.3 287.35 210.8 282.55 212.25 280.15 206.9 277.7 201.55 273.2 198.05 L273.4 195.95 273.4 195.9 273.95 195.45 273.65 195.15 273.65 195.1 273.7 195.0 273.65 194.0 273.7 193.4 273.7 191.4 Q270.8 194.0 268.85 197.55 265.9 202.8 260.95 200.95 256.0 199.1 250.15 198.1 244.3 197.1 245.0 195.35 L245.1 195.1 245.35 194.25 244.3 187.3 244.25 187.1 244.15 186.95 244.25 187.0 244.2 186.95 244.3 186.9 244.4 186.85 245.25 186.5 245.55 183.85 245.7 183.05 Q246.05 181.55 247.25 180.55 L247.95 180.0 248.7 179.5 Q248.25 179.65 247.95 179.9 L247.9 179.9 252.5 176.6 Q253.35 176.0 254.55 175.6 257.8 174.3 261.8 175.1 M257.0 178.85 Q254.45 180.7 252.9 182.55 251.95 183.55 250.1 184.35 L250.05 184.35 Q249.4 182.1 251.7 178.8 254.1 178.35 256.9 178.85 L257.0 178.85 M296.55 189.45 L296.55 189.4 292.3 189.1 Q294.7 191.15 296.1 193.15 296.7 193.95 297.85 194.65 298.2 192.55 296.55 189.5 L296.55 189.45 Z" fill="none" stroke="#000000" stroke-linecap="round" stroke-linejoin="round" stroke-width="1.0"/>
    <path d="M276.75 186.95 L274.8 189.2 272.0 192.25 268.85 195.75 266.5 198.75 Q265.6 200.0 264.8 200.2 L263.15 200.45 259.6 199.65 255.55 198.65 Q253.55 198.1 251.05 197.0 248.5 195.9 246.85 195.5 L245.15 195.1 Q245.65 193.6 245.55 193.05 L245.75 192.55 Q248.15 191.15 250.7 189.8 252.25 189.0 253.6 187.8 257.4 184.6 262.05 184.35 266.55 184.2 271.05 184.35 274.45 184.7 276.75 186.85 L276.75 186.95" fill="#423a2b" fill-rule="evenodd" stroke="none"/>
    <path d="M245.15 195.1 L246.85 195.5 Q248.5 195.9 251.05 197.0 253.55 198.1 255.55 198.65 L259.6 199.65 263.15 200.45 264.8 200.2 Q265.6 200.0 266.5 198.75 L268.85 195.75 272.0 192.25 274.8 189.2 276.75 186.95 276.85 189.05 Q271.8 192.25 268.9 197.55 265.95 202.8 261.0 200.95 256.05 199.1 250.2 198.1 244.35 197.1 245.05 195.35 L245.15 195.1" fill="#6b6243" fill-rule="evenodd" stroke="none"/>
    <path d="M264.55 199.8 L264.5 199.8 264.55 199.8 M244.3 187.1 L244.2 186.95 244.3 187.0 244.7 187.45 244.65 187.45 244.6 187.45 244.3 187.1 M245.3 188.05 L245.4 188.1 245.05 188.2 245.2 188.0 245.3 188.05 M264.9 192.4 L264.85 192.45 264.8 192.45 264.9 192.4" fill="#fceebe" fill-rule="evenodd" stroke="none"/>
    <path d="M276.6 179.15 L276.6 179.1 276.65 179.1 276.6 179.15 M264.7 192.5 L264.5 192.6 264.65 192.45 264.75 192.35 264.75 192.45 264.9 192.4 264.8 192.45 264.75 192.45 264.7 192.45 264.7 192.5" fill="#ecba48" fill-rule="evenodd" stroke="none"/>
    <path d="M267.8 189.95 L269.2 188.1 269.35 187.85 269.4 187.85 270.9 189.35 Q269.6 189.95 268.9 191.05 L267.8 189.95 M271.8 182.95 L272.6 183.85 271.6 186.65 270.4 185.45 Q271.0 184.05 271.8 182.95 M271.4 187.35 L271.1 188.45 269.65 187.2 269.75 187.0 270.05 186.25 271.4 187.35" fill="#ffffff" fill-rule="evenodd" stroke="none"/>
    <path d="M245.3 188.05 L245.35 188.05 245.4 188.1 245.3 188.05" fill="#987d23" fill-rule="evenodd" stroke="none"/>
    <path d="M245.45 194.65 L244.35 187.3 244.3 187.1 244.6 187.45 244.65 187.45 Q248.15 188.85 251.75 190.05 257.05 191.8 262.5 193.15 L264.7 192.65 264.6 195.85 264.55 198.2 264.1 198.8 Q262.7 197.4 262.35 195.4 262.2 196.55 261.6 197.45 L261.2 198.1 260.3 197.9 259.6 194.65 Q259.5 195.9 258.95 196.9 L258.6 197.55 257.4 195.5 257.05 194.7 256.55 197.4 255.65 197.55 Q254.95 194.95 255.0 192.35 254.95 193.5 254.3 194.7 L253.85 195.45 252.65 194.95 251.9 191.3 251.75 190.05 250.65 194.5 Q249.5 192.65 248.65 190.7 L247.75 193.2 246.1 189.9 Q246.2 190.75 245.75 191.6 245.55 192.0 245.45 194.65 M245.4 188.1 L245.35 188.05 245.3 188.05 245.2 188.0 245.05 188.2 245.4 188.1" fill="#8b3030" fill-rule="evenodd" stroke="none"/>
    <path d="M276.6 184.9 L276.55 185.95 276.55 186.05 276.55 186.1 276.1 186.5 276.55 185.95 275.8 186.75 275.3 186.75 275.4 185.05 Q274.7 185.25 274.25 185.7 273.6 186.35 273.5 187.45 273.3 185.95 272.85 185.45 L272.15 187.2 271.95 187.8 271.9 188.0 271.65 188.9 271.35 189.8 271.05 191.05 270.6 191.45 269.85 192.0 Q269.15 192.65 268.75 193.5 L268.45 193.95 268.1 192.95 267.0 195.4 Q266.25 197.1 264.7 197.8 L264.65 199.35 264.5 199.6 264.55 198.2 264.6 195.85 Q266.15 195.15 266.9 193.45 L268.0 191.0 268.4 192.1 268.9 191.05 Q269.6 189.95 270.9 189.35 L270.9 189.3 271.1 188.45 271.4 187.35 271.6 186.65 272.6 183.85 272.75 183.5 273.25 184.55 273.4 185.5 273.5 184.85 Q273.9 183.55 275.3 183.1 L275.2 184.8 276.6 184.9" fill="#ce261e" fill-rule="evenodd" stroke="none"/>
    <path d="M276.1 186.5 L270.95 193.1 270.85 193.25 264.6 199.7 264.5 199.6 264.65 199.35 264.7 197.8 Q266.25 197.1 267.0 195.4 L268.1 192.95 268.45 193.95 268.75 193.5 Q269.15 192.65 269.85 192.0 L270.6 191.45 271.05 191.05 271.35 189.8 271.65 188.9 271.9 188.0 271.95 187.8 272.15 187.2 272.85 185.45 Q273.3 185.95 273.5 187.45 273.6 186.35 274.25 185.7 274.7 185.25 275.4 185.05 L275.3 186.75 275.8 186.75 276.55 185.95 276.1 186.5" fill="#f48415" fill-rule="evenodd" stroke="none"/>
    <path d="M264.5 199.6 L264.55 199.75 264.55 199.8 264.5 199.8 260.05 199.3 254.6 197.9 Q252.1 197.25 249.65 196.0 247.0 194.8 245.45 194.65 245.55 192.0 245.75 191.6 246.2 190.75 246.1 189.9 L247.75 193.2 248.65 190.7 Q249.5 192.65 250.65 194.5 L251.75 190.05 251.9 191.3 252.65 194.95 253.85 195.45 254.3 194.7 Q254.95 193.5 255.0 192.35 254.95 194.95 255.65 197.55 L256.55 197.4 257.05 194.7 257.4 195.5 258.6 197.55 258.95 196.9 Q259.5 195.9 259.6 194.65 L260.3 197.9 261.2 198.1 261.6 197.45 Q262.2 196.55 262.35 195.4 262.7 197.4 264.1 198.8 L264.55 198.2 264.5 199.6" fill="#ca690b" fill-rule="evenodd" stroke="none"/>
    <path d="M250.15 184.35 Q252.0 183.55 252.95 182.55 255.25 179.8 259.75 177.05 L259.65 177.15 261.0 176.6 261.05 176.6 263.05 176.1 267.6 177.0 267.7 177.65 268.4 177.2 273.9 178.35 273.95 178.35 273.9 178.35 276.5 179.1 276.55 179.15 276.4 179.2 275.85 179.45 275.45 179.65 Q273.3 180.75 271.8 182.95 271.0 184.05 270.4 185.45 L270.05 186.25 269.75 187.0 269.65 187.2 269.65 187.4 269.4 187.85 269.35 187.85 269.2 188.1 269.3 187.85 Q267.85 187.1 266.1 186.75 L265.2 186.5 254.9 185.05 253.9 184.9 250.15 184.35 M244.3 187.0 L244.25 186.95 244.35 186.9 244.45 186.85 245.35 186.45 245.4 186.4 251.0 186.85 256.55 187.65 262.45 188.7 Q265.0 189.15 267.55 190.2 266.25 191.5 264.75 192.35 L264.65 192.45 264.5 192.6 264.7 192.5 264.7 192.65 262.5 193.15 Q257.05 191.8 251.75 190.05 248.15 188.85 244.65 187.45 L244.7 187.45 244.3 187.0 M256.8 183.1 L253.9 184.9 256.8 183.1 M254.9 185.05 L256.35 184.1 254.9 185.05 M266.35 185.65 L265.2 186.5 266.35 185.65 M264.05 177.55 L262.2 179.1 264.05 177.55" fill="#cfa034" fill-rule="evenodd" stroke="none"/>
    <path d="M276.55 179.15 L276.6 179.15 276.65 179.1 276.8 180.2 276.65 184.3 276.6 184.9 275.2 184.8 275.3 183.1 Q273.9 183.55 273.5 184.85 L273.4 185.5 273.25 184.55 272.75 183.5 272.6 183.85 271.8 182.95 Q273.3 180.75 275.45 179.65 L275.85 179.45 276.4 179.2 276.55 179.15 M267.55 190.2 L267.8 189.95 268.9 191.05 268.4 192.1 268.0 191.0 266.9 193.45 Q266.15 195.15 264.6 195.85 L264.7 192.65 264.7 192.5 264.7 192.45 264.75 192.45 264.8 192.45 264.85 192.45 264.9 192.4 264.75 192.45 264.75 192.35 Q266.25 191.5 267.55 190.2 M270.4 185.45 L271.6 186.65 271.4 187.35 270.05 186.25 270.4 185.45 M269.65 187.2 L271.1 188.45 270.9 189.3 270.9 189.35 269.4 187.85 269.65 187.4 269.65 187.2" fill="#aa3f17" fill-rule="evenodd" stroke="none"/>
    <path d="M245.4 186.4 L246.85 185.75 247.4 185.45 247.45 185.45 247.5 185.4 249.55 184.55 249.9 184.45 250.15 184.35 253.9 184.9 254.9 185.05 254.2 185.5 253.5 185.95 254.2 185.5 254.9 185.05 265.2 186.5 266.1 186.75 Q267.85 187.1 269.3 187.85 L269.2 188.1 267.8 189.95 267.55 190.2 Q265.0 189.15 262.45 188.7 L256.55 187.65 251.0 186.85 253.9 184.9 251.0 186.85 245.4 186.4 M263.5 187.65 L265.2 186.5 263.5 187.65" fill="#bd872f" fill-rule="evenodd" stroke="none"/>
    <path d="M253.9 184.9 L256.8 183.1 M253.9 184.9 L251.0 186.85 M265.2 186.5 L263.5 187.65 M254.9 185.05 L254.2 185.5 253.5 185.95 M256.35 184.1 L254.9 185.05 M265.2 186.5 L266.35 185.65 M262.2 179.1 L264.05 177.55" fill="none" stroke="#28383e" stroke-linecap="round" stroke-linejoin="round" stroke-opacity="0.5019608" stroke-width="0.1"/>
    <path d="M262.8 181.05 Q260.3 179.35 256.95 178.7 254.1 178.2 251.65 178.65 L250.8 178.85 249.8 179.2 Q248.75 179.55 248.0 180.0 L252.6 176.7 Q253.45 176.1 254.65 175.7 257.85 174.45 261.8 175.2 265.7 175.95 268.45 178.2 271.25 180.45 271.25 183.15 L271.25 183.6 270.65 184.7 270.25 185.75 270.25 185.2 Q270.35 184.0 270.0 182.9 L269.95 182.35 269.85 182.55 269.6 182.75 269.25 182.95 269.25 182.55 269.2 180.35 Q269.15 179.9 268.9 179.95 268.05 180.05 267.45 180.9 L267.2 181.45 Q267.1 180.5 266.45 179.85 L265.7 179.45 265.7 180.3 Q265.7 181.5 264.6 181.35 L262.8 181.05" fill="#c24141" fill-rule="evenodd" stroke="none"/>
    <path d="M248.0 180.0 Q248.75 179.55 249.8 179.2 L250.8 178.85 251.65 178.65 Q249.25 182.15 250.0 184.45 L245.25 186.6 245.6 183.85 245.75 183.05 Q246.1 181.55 247.3 180.55 L248.0 180.0" fill="#692121" fill-rule="evenodd" stroke="none"/>
    <path d="M262.8 181.05 L264.6 181.35 Q265.7 181.5 265.7 180.3 L265.7 179.45 266.45 179.85 Q267.1 180.5 267.2 181.45 L267.45 180.9 Q268.05 180.05 268.9 179.95 269.15 179.9 269.2 180.35 L269.25 182.55 269.25 182.95 269.6 182.75 269.85 182.55 269.95 182.35 270.0 182.9 Q270.35 184.0 270.25 185.2 L270.25 185.75 269.7 187.15 268.3 189.05 268.4 188.85 268.7 188.25 268.95 186.9 269.05 184.8 Q268.95 185.25 268.4 185.3 L268.4 185.0 268.15 182.55 267.0 184.25 Q266.45 183.05 265.6 183.9 264.9 182.75 263.6 181.7 L262.8 181.05" fill="#ec0000" fill-rule="evenodd" stroke="none"/>
    <path d="M265.6 183.9 Q266.45 183.05 267.0 184.25 L268.15 182.55 268.4 185.0 268.4 185.3 Q268.95 185.25 269.05 184.8 L268.95 186.9 268.7 188.25 268.4 188.85 268.3 189.05 267.35 190.3 266.4 186.1 Q266.25 184.95 265.6 183.9" fill="#ef9527" fill-rule="evenodd" stroke="none"/>
    <path d="M251.65 178.65 Q254.1 178.2 256.95 178.7 260.3 179.35 262.8 181.05 L263.6 181.7 Q264.9 182.75 265.6 183.9 266.25 184.95 266.4 186.1 L267.35 190.3 268.3 189.05 269.7 187.15 270.25 185.75 270.65 184.7 271.25 183.6 271.25 183.15 Q271.25 180.45 268.45 178.2 265.7 175.95 261.8 175.2 257.85 174.45 254.65 175.7 253.45 176.1 252.6 176.7 L248.0 180.0 Q248.75 179.55 249.8 179.2 L250.8 178.85 251.65 178.65 Q249.25 182.15 250.0 184.45 L245.25 186.6 245.6 183.85 245.75 183.05 Q246.1 181.55 247.3 180.55 L248.0 180.0 M268.4 188.85 L268.3 189.05" fill="none" stroke="#8f2c2c" stroke-linecap="round" stroke-linejoin="round" stroke-width="0.2"/>
    <path d="M302.7 206.0 Q302.35 204.55 302.5 204.0 L302.3 203.5 297.85 200.45 295.2 198.35 Q291.8 194.95 287.5 194.4 L279.0 193.8 Q275.75 193.95 273.45 195.9 L273.45 196.0 275.1 198.3 277.6 201.5 280.3 205.15 282.35 208.25 Q283.15 209.55 283.9 209.8 L285.4 210.15 288.8 209.6 292.7 208.85 297.05 207.55 Q299.5 206.6 301.05 206.3 L302.7 206.0" fill="#423a2b" fill-rule="evenodd" stroke="none"/>
    <path d="M273.45 196.0 L273.25 198.05 Q277.8 201.5 280.2 206.95 282.6 212.3 287.4 210.75 292.2 209.25 297.75 208.65 303.3 208.05 302.8 206.3 L302.7 206.0 301.05 206.3 Q299.5 206.6 297.05 207.55 L292.7 208.85 288.8 209.6 285.4 210.15 283.9 209.8 Q283.15 209.55 282.35 208.25 L280.3 205.15 277.6 201.5 275.1 198.3 273.45 196.0" fill="#6b6243" fill-rule="evenodd" stroke="none"/>
    <path d="M284.15 209.4 L284.2 209.45 284.15 209.4 M304.0 198.25 L304.1 198.1 304.0 198.15 303.65 198.55 303.7 198.55 303.75 198.55 304.0 198.25 M302.95 199.1 L303.25 199.25 303.1 199.0 303.0 199.05 302.95 199.1 M284.25 202.1 L284.3 202.15 284.35 202.15 284.25 202.1" fill="#fceebe" fill-rule="evenodd" stroke="none"/>
    <path d="M274.05 188.3 L274.05 188.25 274.0 188.25 274.05 188.3 M284.45 202.2 L284.65 202.35 284.5 202.15 284.4 202.05 284.4 202.15 284.25 202.1 284.35 202.15 284.4 202.15 284.45 202.15 284.45 202.2" fill="#ecba48" fill-rule="evenodd" stroke="none"/>
    <path d="M281.65 199.5 L280.5 197.55 280.35 197.35 280.3 197.35 278.8 198.7 Q279.95 199.4 280.6 200.55 L281.65 199.5 M278.35 192.35 L277.55 193.2 278.35 196.0 279.5 194.9 278.35 192.35 M278.45 196.75 L278.65 197.8 280.1 196.7 280.05 196.5 279.8 195.7 278.45 196.75" fill="#ffffff" fill-rule="evenodd" stroke="none"/>
    <path d="M302.95 199.1 L303.0 199.05 302.95 199.1" fill="#987d23" fill-rule="evenodd" stroke="none"/>
    <path d="M302.5 205.55 L303.95 198.4 304.0 198.25 303.75 198.55 303.7 198.55 296.8 200.65 286.45 203.0 284.45 202.35 284.35 205.5 284.25 207.8 284.6 208.45 Q286.0 207.2 286.5 205.2 286.55 206.35 287.05 207.3 L287.4 207.95 288.25 207.8 289.15 204.65 Q289.15 205.9 289.6 206.95 L289.9 207.6 291.1 205.65 291.5 204.85 291.8 207.6 292.65 207.8 Q293.5 205.25 293.6 202.7 293.6 203.85 294.1 205.05 L294.5 205.8 295.65 205.4 296.6 201.85 296.8 200.65 297.6 205.05 299.7 201.5 300.35 204.0 302.15 200.85 Q302.0 201.7 302.35 202.55 L302.5 205.55 M303.0 199.05 L303.1 199.0 303.25 199.25 302.95 199.1 303.0 199.05" fill="#8b3030" fill-rule="evenodd" stroke="none"/>
    <path d="M273.7 193.95 L273.7 195.0 273.65 195.1 273.65 195.15 274.1 195.6 273.7 195.0 274.35 195.85 274.85 195.9 Q274.7 194.75 274.85 194.15 L275.9 194.9 Q276.45 195.6 276.5 196.7 276.8 195.2 277.2 194.75 L277.75 196.55 277.9 197.15 277.95 197.3 278.15 198.2 278.35 199.15 278.55 200.4 279.0 200.8 279.65 201.4 Q280.25 202.1 280.55 202.95 L280.8 203.4 281.25 202.45 282.1 204.9 Q282.7 206.65 284.15 207.4 L284.1 208.95 284.2 209.25 284.25 207.8 284.35 205.5 Q282.9 204.7 282.3 203.0 L281.45 200.55 281.0 201.6 280.6 200.55 Q279.95 199.4 278.8 198.7 L278.8 198.65 278.65 197.8 278.45 196.75 278.35 196.0 277.55 193.2 277.45 192.85 Q277.1 193.15 276.9 193.85 L276.7 194.75 276.65 194.1 Q276.35 192.8 275.05 192.3 274.9 192.85 275.05 193.95 L273.7 193.95" fill="#ce261e" fill-rule="evenodd" stroke="none"/>
    <path d="M274.1 195.6 L278.55 202.4 278.6 202.55 284.1 209.3 284.2 209.25 284.1 208.95 284.15 207.4 Q282.7 206.65 282.1 204.9 L281.25 202.45 280.8 203.4 280.55 202.95 Q280.25 202.1 279.65 201.4 L279.0 200.8 278.55 200.4 278.35 199.15 278.15 198.2 277.95 197.3 277.9 197.15 277.75 196.55 277.2 194.75 Q276.8 195.2 276.5 196.7 276.45 195.6 275.9 194.9 L274.85 194.15 Q274.7 194.75 274.85 195.9 L274.35 195.85 273.7 195.0 274.1 195.6" fill="#f48415" fill-rule="evenodd" stroke="none"/>
    <path d="M284.2 209.25 L284.15 209.35 284.15 209.4 284.2 209.45 288.4 209.2 293.6 208.15 Q296.0 207.7 298.4 206.65 300.95 205.6 302.5 205.55 L302.35 202.55 Q302.0 201.7 302.15 200.85 L300.35 204.0 299.7 201.5 297.6 205.05 296.8 200.65 296.6 201.85 295.65 205.4 294.5 205.8 294.1 205.05 Q293.6 203.85 293.6 202.7 293.5 205.25 292.65 207.8 L291.8 207.6 291.5 204.85 291.1 205.65 289.9 207.6 289.6 206.95 Q289.15 205.9 289.15 204.65 L288.25 207.8 287.4 207.95 287.05 207.3 Q286.55 206.35 286.5 205.2 286.0 207.2 284.6 208.45 L284.25 207.8 284.2 209.25" fill="#ca690b" fill-rule="evenodd" stroke="none"/>
    <path d="M294.15 195.5 L292.85 194.5 294.15 195.5 295.1 195.4 292.5 193.45 295.1 195.4 298.7 195.15 Q297.0 194.25 296.15 193.15 294.15 190.3 290.1 187.35 L290.2 187.45 288.9 186.8 Q288.05 186.4 287.05 186.15 L282.7 186.8 282.55 187.4 281.95 186.95 276.65 187.65 276.6 187.65 276.65 187.65 274.15 188.25 274.1 188.3 274.25 188.35 274.8 188.65 275.1 188.85 Q277.1 190.1 278.35 192.35 L279.5 194.9 279.8 195.7 280.05 196.5 280.1 196.7 280.1 196.9 280.3 197.35 280.35 197.35 280.5 197.55 280.4 197.35 Q281.8 196.7 283.5 196.45 L284.35 196.3 294.15 195.5 M283.35 195.35 L284.35 196.3 283.35 195.35 M304.0 198.15 L304.05 198.1 303.95 198.0 303.85 197.95 303.1 197.5 303.05 197.45 297.7 197.55 292.4 198.0 286.8 198.6 Q284.35 198.9 281.9 199.8 L284.4 202.05 284.5 202.15 284.65 202.35 284.45 202.2 284.45 202.35 286.45 203.0 296.8 200.65 303.7 198.55 303.65 198.55 304.0 198.15 M286.0 187.55 L287.65 189.15 286.0 187.55" fill="#cfa034" fill-rule="evenodd" stroke="none"/>
    <path d="M274.1 188.3 L274.05 188.3 274.0 188.25 273.85 189.35 273.7 193.4 273.7 193.95 275.05 193.95 Q274.9 192.85 275.05 192.3 276.35 192.8 276.65 194.1 L276.7 194.75 276.9 193.85 Q277.1 193.15 277.45 192.85 L277.55 193.2 278.35 192.35 Q277.1 190.1 275.1 188.85 L274.8 188.65 274.25 188.35 274.1 188.3 M281.9 199.8 L281.65 199.5 280.6 200.55 281.0 201.6 281.45 200.55 282.3 203.0 Q282.9 204.7 284.35 205.5 L284.45 202.35 284.45 202.2 284.45 202.15 284.4 202.15 284.35 202.15 284.3 202.15 284.25 202.1 284.4 202.15 284.4 202.05 281.9 199.8 M279.5 194.9 L278.35 196.0 278.45 196.75 279.8 195.7 279.5 194.9 M280.1 196.7 L278.65 197.8 278.8 198.65 278.8 198.7 280.3 197.35 280.1 196.9 280.1 196.7" fill="#aa3f17" fill-rule="evenodd" stroke="none"/>
    <path d="M294.15 195.5 L284.35 196.3 283.5 196.45 Q281.8 196.7 280.4 197.35 L280.5 197.55 281.65 199.5 281.9 199.8 Q284.35 198.9 286.8 198.6 L292.4 198.0 297.7 197.55 295.1 195.4 297.7 197.55 303.05 197.45 301.7 196.7 301.2 196.4 301.15 196.35 301.1 196.3 299.2 195.4 298.9 195.25 298.7 195.15 295.1 195.4 294.15 195.5 294.8 196.0 295.45 196.5 294.8 196.0 294.15 195.5 M285.85 197.55 L284.35 196.3 285.85 197.55" fill="#bd872f" fill-rule="evenodd" stroke="none"/>
    <path d="M292.85 194.5 L294.15 195.5 294.8 196.0 295.45 196.5 M284.35 196.3 L283.35 195.35 M292.5 193.45 L295.1 195.4 297.7 197.55 M284.35 196.3 L285.85 197.55 M287.65 189.15 L286.0 187.55" fill="none" stroke="#28383e" stroke-linecap="round" stroke-linejoin="round" stroke-opacity="0.5019608" stroke-width="0.1"/>
    <path d="M286.45 191.1 Q288.8 189.55 291.85 189.1 L296.65 189.4 297.4 189.65 298.35 190.05 299.9 191.0 295.95 187.45 Q295.2 186.8 294.15 186.3 291.35 184.9 287.7 185.35 284.1 185.85 281.5 187.9 278.8 189.95 278.65 192.6 L278.6 193.05 279.1 194.2 279.4 195.2 279.45 194.65 Q279.4 193.5 279.75 192.4 L279.85 191.9 279.95 192.1 280.15 192.3 280.45 192.5 280.5 192.1 280.65 189.95 Q280.75 189.55 280.95 189.6 281.75 189.75 282.25 190.65 L282.4 191.2 Q282.55 190.25 283.2 189.65 283.4 189.35 283.85 189.3 L283.8 190.15 Q283.75 191.35 284.75 191.25 L286.45 191.1" fill="#c24141" fill-rule="evenodd" stroke="none"/>
    <path d="M299.9 191.0 L298.35 190.05 297.4 189.65 296.65 189.4 Q298.6 193.0 297.8 195.25 L302.0 197.65 301.85 194.95 301.75 194.15 Q301.55 192.6 300.5 191.6 L299.9 191.0" fill="#692121" fill-rule="evenodd" stroke="none"/>
    <path d="M286.45 191.1 L284.75 191.25 Q283.75 191.35 283.8 190.15 L283.85 189.3 Q283.4 189.35 283.2 189.65 282.55 190.25 282.4 191.2 L282.25 190.65 Q281.75 189.75 280.95 189.6 280.75 189.55 280.65 189.95 L280.5 192.1 280.45 192.5 280.15 192.3 279.95 192.1 279.85 191.9 279.75 192.4 Q279.4 193.5 279.45 194.65 L279.4 195.2 279.8 196.65 280.95 198.6 280.85 198.4 280.65 197.75 280.5 196.45 280.55 194.35 Q280.6 194.8 281.05 194.9 L281.1 194.6 281.5 192.2 282.45 193.95 Q283.0 192.8 283.7 193.7 284.4 192.6 285.65 191.65 L286.45 191.1" fill="#ec0000" fill-rule="evenodd" stroke="none"/>
    <path d="M283.7 193.7 Q283.0 192.8 282.45 193.95 L281.5 192.2 281.1 194.6 281.05 194.9 Q280.6 194.8 280.55 194.35 L280.5 196.45 280.65 197.75 280.85 198.4 280.95 198.6 281.75 199.9 282.85 195.8 Q283.05 194.65 283.7 193.7" fill="#ef9527" fill-rule="evenodd" stroke="none"/>
    <path d="M296.65 189.4 L291.85 189.1 Q288.8 189.55 286.45 191.1 L285.65 191.65 Q284.4 192.6 283.7 193.7 283.05 194.65 282.85 195.8 L281.75 199.9 280.95 198.6 279.8 196.65 279.4 195.2 279.1 194.2 278.6 193.05 278.65 192.6 Q278.8 189.95 281.5 187.9 284.1 185.85 287.7 185.35 291.35 184.9 294.15 186.3 295.2 186.8 295.95 187.45 L299.9 191.0 298.35 190.05 297.4 189.65 296.65 189.4 Q298.6 193.0 297.8 195.25 L302.0 197.65 301.85 194.95 301.75 194.15 Q301.55 192.6 300.5 191.6 L299.9 191.0 M280.85 198.4 L280.95 198.6" fill="none" stroke="#8f2c2c" stroke-linecap="round" stroke-linejoin="round" stroke-width="0.2"/>
  </g>
</svg>
