<?xml version="1.0" encoding="UTF-8" standalone="no"?>
<svg xmlns:xlink="http://www.w3.org/1999/xlink" height="42.05px" width="60.45px" xmlns="http://www.w3.org/2000/svg">
  <g transform="matrix(1.0, 0.0, 0.0, 1.0, -243.25, -174.3)">
    <path d="M257.05 178.85 L256.95 178.85 Q254.15 178.35 251.75 178.8 251.0 180.2 251.25 181.25 251.45 182.25 252.6 182.8 L252.7 182.85 252.95 182.55 Q254.5 180.7 257.05 178.85 M261.85 175.1 Q264.35 175.55 266.35 176.65 L266.45 176.75 266.45 176.8 267.6 177.0 267.7 177.6 267.75 177.65 268.4 177.2 273.9 178.35 273.95 178.35 273.9 178.35 276.5 179.1 276.6 179.15 276.6 179.1 276.65 179.1 Q276.95 181.85 276.65 184.55 L276.6 185.5 277.65 185.7 277.85 188.35 280.95 187.65 281.55 188.1 281.6 188.05 281.65 187.45 282.75 187.25 282.75 187.2 282.8 187.1 Q284.6 186.0 286.95 185.55 290.5 184.75 293.45 186.05 294.5 186.45 295.35 187.05 L299.45 190.35 299.5 190.4 300.1 190.9 Q301.2 191.95 301.6 193.5 L301.7 194.3 302.0 196.95 302.0 197.0 302.6 197.3 302.7 197.35 302.75 197.4 302.75 197.45 302.85 197.4 302.75 197.55 302.7 197.75 301.8 204.45 303.2 205.7 302.3 209.8 297.95 212.4 297.85 212.3 296.85 211.55 296.3 211.8 296.3 213.35 295.05 213.65 295.0 213.5 294.1 212.45 293.35 212.65 292.55 214.15 284.3 215.85 282.95 214.25 282.8 213.1 282.25 213.1 282.2 213.2 280.7 211.05 280.55 210.0 279.85 209.95 279.75 210.05 278.4 208.1 278.3 206.7 277.8 205.55 277.45 204.85 276.0 205.25 274.5 203.4 274.35 202.85 274.35 202.8 273.85 202.8 273.8 202.85 273.75 202.8 272.55 201.0 272.35 199.6 272.6 196.15 273.55 195.95 273.5 195.0 273.45 194.7 272.3 194.4 Q271.75 195.1 271.35 196.25 L271.2 197.65 269.7 199.6 269.65 199.5 268.85 199.55 268.7 200.6 267.0 202.75 266.95 202.65 266.4 202.65 266.2 203.8 264.7 205.4 255.55 203.7 254.65 202.2 253.85 202.0 252.85 203.05 252.8 203.2 251.4 202.9 251.4 201.35 250.8 201.1 249.7 201.85 249.6 201.95 244.75 199.35 243.75 195.25 245.35 194.0 244.35 187.3 244.3 187.1 244.2 186.95 244.3 187.0 244.25 186.95 244.35 186.9 244.45 186.85 245.2 186.55 245.2 186.5 245.5 183.85 245.65 183.0 Q246.0 181.45 247.25 180.45 L247.2 180.45 247.95 179.9 252.55 176.6 Q253.4 176.0 254.6 175.6 257.85 174.3 261.85 175.1 M247.75 185.3 Q248.25 185.05 249.55 184.55 L250.05 184.5 250.95 184.0 250.95 183.95 250.95 183.9 Q249.4 183.65 248.0 182.1 L247.75 185.3 M297.55 194.95 L298.0 195.0 299.6 195.75 299.4 192.55 Q298.15 194.05 296.8 194.35 L296.8 194.4 296.75 194.5 297.55 194.95 M291.35 189.3 L291.25 189.25 291.2 189.2 291.1 189.2 Q293.5 191.1 294.9 193.0 L295.15 193.3 295.2 193.25 Q297.25 192.15 296.0 189.2 L291.35 189.3" fill="#000000" fill-rule="evenodd" stroke="none"/>
    <path d="M257.05 178.85 Q254.5 180.7 252.95 182.55 L252.7 182.85 252.6 182.8 Q251.45 182.25 251.25 181.25 251.0 180.2 251.75 178.8 254.15 178.35 256.95 178.85 L257.05 178.85 M261.85 175.1 Q264.35 175.55 266.35 176.65 L266.45 176.75 266.45 176.8 267.6 177.0 267.7 177.6 267.75 177.65 268.4 177.2 273.9 178.35 273.95 178.35 273.9 178.35 276.5 179.1 276.6 179.15 276.6 179.1 276.65 179.1 Q276.95 181.85 276.65 184.55 L276.6 185.5 277.65 185.7 277.85 188.35 280.95 187.65 281.55 188.1 281.6 188.05 281.65 187.45 282.75 187.25 282.75 187.2 282.8 187.1 Q284.6 186.0 286.95 185.55 290.5 184.75 293.45 186.05 294.5 186.45 295.35 187.05 L299.45 190.35 299.5 190.4 300.1 190.9 Q301.2 191.95 301.6 193.5 L301.7 194.3 302.0 196.95 302.0 197.0 302.6 197.3 302.7 197.35 302.75 197.4 302.75 197.45 302.85 197.4 302.75 197.55 302.7 197.75 301.8 204.45 303.2 205.7 302.3 209.8 297.95 212.4 297.85 212.3 296.85 211.55 296.3 211.8 296.3 213.35 295.05 213.65 295.0 213.5 294.1 212.45 293.35 212.65 292.55 214.15 284.3 215.85 282.95 214.25 282.8 213.1 282.25 213.1 282.2 213.2 280.7 211.05 280.55 210.0 279.85 209.95 279.75 210.05 278.4 208.1 278.3 206.7 277.8 205.55 277.45 204.85 276.0 205.25 274.5 203.4 274.35 202.85 274.35 202.8 273.85 202.8 273.8 202.85 273.75 202.8 272.55 201.0 272.35 199.6 272.6 196.15 273.55 195.95 273.5 195.0 273.45 194.7 272.3 194.4 Q271.75 195.1 271.35 196.25 L271.2 197.65 269.7 199.6 269.65 199.5 268.85 199.55 268.7 200.6 267.0 202.75 266.95 202.65 266.4 202.65 266.2 203.8 264.7 205.4 255.55 203.7 254.65 202.2 253.85 202.0 252.85 203.05 252.8 203.2 251.4 202.9 251.4 201.35 250.8 201.1 249.7 201.85 249.6 201.95 244.75 199.35 243.75 195.25 245.35 194.0 244.35 187.3 244.3 187.1 244.2 186.95 244.3 187.0 244.25 186.95 244.35 186.9 244.45 186.85 245.2 186.55 245.2 186.5 245.5 183.85 245.65 183.0 Q246.0 181.45 247.25 180.45 L247.2 180.45 247.95 179.9 252.55 176.6 Q253.4 176.0 254.6 175.6 257.85 174.3 261.85 175.1 M247.75 185.3 Q248.25 185.05 249.55 184.55 L250.05 184.5 250.95 184.0 250.95 183.95 250.95 183.9 Q249.4 183.65 248.0 182.1 L247.75 185.3 M291.35 189.3 L296.0 189.2 Q297.25 192.15 295.2 193.25 L295.15 193.3 294.9 193.0 Q293.5 191.1 291.1 189.2 L291.2 189.2 291.25 189.25 291.35 189.3 M297.55 194.95 L296.75 194.5 296.8 194.4 296.8 194.35 Q298.15 194.05 299.4 192.55 L299.6 195.75 298.0 195.0 297.55 194.95 Z" fill="none" stroke="#000000" stroke-linecap="round" stroke-linejoin="round" stroke-width="1.0"/>
    <path d="M253.85 202.0 L252.85 203.05 253.25 201.8 253.85 202.0 M250.8 201.1 L249.7 201.85 250.25 200.85 250.8 201.1" fill="#000000" fill-rule="evenodd" stroke="none"/>
    <path d="M243.75 195.25 L245.55 193.8 261.85 182.55 277.65 185.7 264.65 201.25 Q253.35 199.7 243.75 195.25" fill="#666666" fill-rule="evenodd" stroke="none"/>
    <path d="M243.75 195.25 Q253.35 199.7 264.65 201.25 L264.7 205.4 255.55 203.7 254.65 202.2 253.85 202.0 253.25 201.8 252.85 203.05 252.8 203.2 251.4 202.9 251.4 201.35 250.8 201.1 250.25 200.85 249.7 201.85 249.6 201.95 244.75 199.35 243.75 195.25 M276.3 192.35 L275.7 192.35 275.85 191.75 276.3 192.35 M273.9 194.8 L272.3 194.4 Q272.95 193.4 273.85 193.2 L273.9 194.8 M269.65 199.5 L268.85 199.55 268.95 198.65 269.65 199.5 M266.95 202.65 L266.4 202.65 266.5 201.85 266.95 202.65" fill="#4f4f4f" fill-rule="evenodd" stroke="none"/>
    <path d="M264.65 201.25 L277.65 185.7 277.9 189.15 277.7 190.55 276.35 192.35 276.3 192.4 276.3 192.35 275.85 191.75 275.7 192.35 275.7 192.4 275.55 192.95 273.9 194.8 273.85 193.2 Q272.95 193.4 272.3 194.4 271.75 195.1 271.35 196.25 L271.2 197.65 269.7 199.6 269.65 199.5 268.95 198.65 268.85 199.55 268.7 200.6 267.0 202.75 266.95 202.65 266.5 201.85 266.4 202.65 266.2 203.8 264.7 205.4 264.65 201.25" fill="#8b8b8b" fill-rule="evenodd" stroke="none"/>
    <path d="M264.55 199.8 L264.5 199.8 264.55 199.8 M244.3 187.1 L244.2 186.95 244.3 187.0 244.7 187.45 244.65 187.45 244.6 187.45 244.3 187.1" fill="#fceebe" fill-rule="evenodd" stroke="none"/>
    <path d="M276.6 179.15 L276.6 179.1 276.65 179.1 276.6 179.15 M264.7 192.5 L264.5 192.6 264.65 192.45 264.75 192.35 264.7 192.5" fill="#ecba48" fill-rule="evenodd" stroke="none"/>
    <path d="M276.55 185.95 L276.55 186.05 276.55 186.1 276.1 186.5 276.55 185.95" fill="#ce261e" fill-rule="evenodd" stroke="none"/>
    <path d="M245.4 186.4 L246.85 185.75 247.4 185.45 247.45 185.45 247.5 185.4 249.55 184.55 250.05 184.5 252.45 183.0 252.5 183.05 253.9 184.9 254.9 185.05 254.2 185.5 253.5 185.95 254.2 185.5 254.9 185.05 265.2 186.5 265.6 186.2 267.3 185.75 272.4 184.85 272.6 184.75 272.05 185.3 269.2 188.1 267.55 190.2 Q265.0 189.15 262.45 188.7 L256.55 187.65 251.0 186.85 253.9 184.9 251.0 186.85 245.4 186.4 M263.5 187.65 L265.2 186.5 263.5 187.65" fill="#bd872f" fill-rule="evenodd" stroke="none"/>
    <path d="M264.5 199.6 L264.55 199.75 264.55 199.8 264.5 199.8 260.05 199.3 254.65 198.05 249.4 196.35 Q246.75 195.3 245.45 194.65 L244.35 187.3 244.3 187.1 244.6 187.45 244.65 187.45 Q248.15 188.85 251.75 190.05 257.05 191.8 262.5 193.15 L264.7 192.65 264.5 199.6" fill="#ae7455" fill-rule="evenodd" stroke="none"/>
    <path d="M252.5 183.05 L252.95 182.55 Q255.25 179.8 259.75 177.05 L259.65 177.15 261.0 176.6 261.05 176.6 263.05 176.1 267.6 177.0 267.7 177.65 268.4 177.2 273.9 178.35 273.95 178.35 273.9 178.35 276.5 179.1 276.55 179.15 Q274.5 181.35 273.05 183.8 L272.4 184.85 267.3 185.75 265.6 186.2 265.2 186.5 254.9 185.05 253.9 184.9 252.5 183.05 M244.3 187.0 L244.25 186.95 244.35 186.9 244.45 186.85 245.35 186.45 245.4 186.4 251.0 186.85 256.55 187.65 262.45 188.7 Q265.0 189.15 267.55 190.2 L264.75 192.35 264.65 192.45 264.5 192.6 264.7 192.5 264.7 192.65 262.5 193.15 Q257.05 191.8 251.75 190.05 248.15 188.85 244.65 187.45 L244.7 187.45 244.3 187.0 M256.8 183.1 L253.9 184.9 256.8 183.1 M254.9 185.05 L256.35 184.1 254.9 185.05 M265.6 186.2 L266.35 185.65 265.6 186.2 M264.05 177.55 L262.2 179.1 264.05 177.55" fill="#cda750" fill-rule="evenodd" stroke="none"/>
    <path d="M276.55 179.15 L276.6 179.15 276.65 179.1 Q276.95 181.85 276.65 184.55 L276.55 185.95 276.1 186.5 270.95 193.1 264.5 199.6 264.7 192.65 264.7 192.5 264.75 192.35 267.55 190.2 269.2 188.1 272.05 185.3 272.6 184.75 272.4 184.85 273.05 183.8 Q274.5 181.35 276.55 179.15" fill="#e4dab8" fill-rule="evenodd" stroke="none"/>
    <path d="M253.9 184.9 L256.8 183.1 M253.9 184.9 L251.0 186.85 M265.6 186.2 L265.2 186.5 263.5 187.65 M254.9 185.05 L254.2 185.5 253.5 185.95 M256.35 184.1 L254.9 185.05 M266.35 185.65 L265.6 186.2 M262.2 179.1 L264.05 177.55" fill="none" stroke="#28383e" stroke-linecap="round" stroke-linejoin="round" stroke-opacity="0.5019608" stroke-width="0.1"/>
    <path d="M248.0 180.0 L252.6 176.7 Q253.45 176.1 254.65 175.7 257.85 174.45 261.8 175.2 265.7 175.95 268.45 178.2 271.25 180.45 273.5 183.05 L272.15 185.2 267.85 182.7 269.9 187.4 267.35 190.3 266.4 186.1 Q266.25 184.95 265.6 183.9 264.9 182.75 263.6 181.7 L262.8 181.05 Q260.3 179.35 256.95 178.7 254.1 178.2 251.65 178.65 L250.8 178.85 249.8 179.2 Q248.75 179.55 248.0 180.0" fill="#569fa9" fill-rule="evenodd" stroke="none"/>
    <path d="M248.0 180.0 Q248.75 179.55 249.8 179.2 L250.8 178.85 251.65 178.65 Q250.1 181.75 252.55 182.9 L251.05 183.95 Q249.45 183.7 248.0 182.1 L247.75 185.65 245.25 186.6 245.6 183.85 245.75 183.05 Q246.1 181.55 247.3 180.55 L248.0 180.0" fill="#2e5556" fill-rule="evenodd" stroke="none"/>
    <path d="M251.65 178.65 Q254.1 178.2 256.95 178.7 260.3 179.35 262.8 181.05 L263.6 181.7 Q264.9 182.75 265.6 183.9 266.25 184.95 266.4 186.1 L267.35 190.3 269.9 187.4 267.85 182.7 272.15 185.2 273.5 183.05 Q271.25 180.45 268.45 178.2 265.7 175.95 261.8 175.2 257.85 174.45 254.65 175.7 253.45 176.1 252.6 176.7 L248.0 180.0 Q248.75 179.55 249.8 179.2 L250.8 178.85 251.65 178.65 Q250.1 181.75 252.55 182.9 L251.05 183.95 M247.75 185.65 L245.25 186.6 245.6 183.85 245.75 183.05 Q246.1 181.55 247.3 180.55 L248.0 180.0" fill="none" stroke="#2d5657" stroke-linecap="round" stroke-linejoin="round" stroke-width="0.2"/>
    <path d="M294.1 212.45 L295.0 213.5 294.6 212.25 294.1 212.45 M296.85 211.55 L297.85 212.3 297.35 211.3 296.85 211.55" fill="#000000" fill-rule="evenodd" stroke="none"/>
    <path d="M303.2 205.7 L301.6 204.25 286.85 193.0 272.6 196.15 284.3 211.7 Q294.55 210.15 303.2 205.7" fill="#666666" fill-rule="evenodd" stroke="none"/>
    <path d="M303.2 205.7 Q294.55 210.15 284.3 211.7 L284.3 215.85 292.55 214.15 293.35 212.65 294.1 212.45 294.6 212.25 295.0 213.5 295.05 213.65 296.3 213.35 296.3 211.8 296.85 211.55 297.35 211.3 297.85 212.3 297.9 212.4 302.3 209.8 303.2 205.7 M273.8 202.8 L274.35 202.8 274.2 202.2 273.8 202.8 M275.95 205.25 L277.4 204.85 Q276.85 203.85 276.0 203.65 L275.95 205.25 M279.8 209.95 L280.55 210.0 280.45 209.1 279.8 209.95 M282.25 213.1 L282.75 213.1 282.65 212.3 282.25 213.1" fill="#4f4f4f" fill-rule="evenodd" stroke="none"/>
    <path d="M284.3 211.7 L272.6 196.15 272.35 199.6 272.55 201.0 273.75 202.8 273.8 202.85 273.8 202.8 274.2 202.2 274.35 202.8 274.35 202.85 274.5 203.4 275.95 205.25 276.0 203.65 Q276.85 203.85 277.4 204.85 L278.25 206.7 278.4 208.1 279.75 210.05 279.8 209.95 280.45 209.1 280.55 210.0 280.65 211.05 282.2 213.2 282.25 213.1 282.65 212.3 282.75 213.1 282.9 214.25 284.3 215.85 284.3 211.7" fill="#8b8b8b" fill-rule="evenodd" stroke="none"/>
    <path d="M284.4 210.25 L284.45 210.25 284.4 210.25 M302.7 197.55 L302.8 197.4 302.7 197.45 302.35 197.9 302.4 197.9 302.45 197.9 302.7 197.55" fill="#fceebe" fill-rule="evenodd" stroke="none"/>
    <path d="M273.55 189.6 L273.55 189.55 273.5 189.55 273.55 189.6 M284.3 202.95 L284.45 203.05 284.3 202.9 284.25 202.8 284.3 202.95" fill="#ecba48" fill-rule="evenodd" stroke="none"/>
    <path d="M273.55 196.4 L273.55 196.5 273.55 196.55 274.0 196.95 273.55 196.4" fill="#ce261e" fill-rule="evenodd" stroke="none"/>
    <path d="M293.15 195.5 L283.85 196.95 283.45 196.65 Q282.95 196.35 281.95 196.2 L277.3 195.3 277.15 195.2 277.65 195.75 Q278.7 197.3 280.2 198.55 L281.7 200.65 Q284.0 199.6 286.3 199.15 L291.65 198.1 296.65 197.3 301.7 196.85 300.4 196.2 299.9 195.9 299.85 195.9 299.8 195.85 297.95 195.0 297.5 194.95 Q297.25 194.9 295.35 193.45 L295.3 193.5 294.05 195.35 293.15 195.5 293.75 195.95 294.4 196.4 293.75 195.95 293.15 195.5 M296.65 197.3 L294.05 195.35 296.65 197.3 M285.35 198.1 L283.85 196.95 285.35 198.1" fill="#bd872f" fill-rule="evenodd" stroke="none"/>
    <path d="M284.45 210.05 L284.4 210.2 284.4 210.25 284.45 210.25 288.5 209.75 293.35 208.5 298.1 206.8 301.65 205.1 302.65 197.75 302.7 197.55 302.45 197.9 302.4 197.9 296.0 200.5 Q291.2 202.25 286.25 203.6 L284.3 203.1 284.45 210.05" fill="#ae7455" fill-rule="evenodd" stroke="none"/>
    <path d="M293.15 195.5 L291.8 194.55 293.15 195.5 294.05 195.35 291.4 193.55 294.05 195.35 295.3 193.5 294.9 193.0 Q292.8 190.25 288.75 187.5 L288.85 187.6 287.6 187.05 285.75 186.55 281.65 187.45 281.55 188.1 280.95 187.65 275.95 188.8 275.9 188.8 275.95 188.8 273.6 189.55 273.55 189.6 Q275.45 191.8 276.75 194.25 L277.3 195.3 281.95 196.2 Q282.95 196.35 283.45 196.65 L283.85 196.95 293.15 195.5 M282.8 196.1 L283.45 196.65 282.8 196.1 M302.7 197.45 L302.75 197.4 302.65 197.35 302.55 197.3 301.75 196.9 301.7 196.85 296.65 197.3 291.65 198.1 286.3 199.15 Q284.0 199.6 281.7 200.65 L284.25 202.8 284.3 202.9 284.45 203.05 284.3 202.95 284.3 203.1 286.25 203.6 Q291.2 202.25 296.0 200.5 L302.4 197.9 302.35 197.9 302.7 197.45 M284.85 188.0 L286.55 189.55 284.85 188.0" fill="#cda750" fill-rule="evenodd" stroke="none"/>
    <path d="M273.5 189.55 Q273.2 192.3 273.5 195.0 L273.55 196.4 274.0 196.95 278.65 203.55 284.45 210.05 284.3 203.1 284.3 202.95 284.25 202.8 281.7 200.65 280.2 198.55 Q278.7 197.3 277.65 195.75 L277.15 195.2 277.3 195.3 276.75 194.25 Q275.45 191.8 273.55 189.6 L273.5 189.55" fill="#e4dab8" fill-rule="evenodd" stroke="none"/>
    <path d="M291.8 194.55 L293.15 195.5 293.75 195.95 294.4 196.4 M283.85 196.95 L283.45 196.65 282.8 196.1 M291.4 193.55 L294.05 195.35 296.65 197.3 M283.85 196.95 L285.35 198.1 M286.55 189.55 L284.85 188.0" fill="none" stroke="#28383e" stroke-linecap="round" stroke-linejoin="round" stroke-opacity="0.5019608" stroke-width="0.1"/>
    <path d="M299.35 190.45 L295.2 187.15 Q294.45 186.55 293.35 186.15 290.45 184.9 286.9 185.65 283.4 186.4 280.9 188.65 278.35 190.9 276.35 193.5 L277.55 195.65 281.45 193.15 279.6 197.85 281.9 200.75 282.75 196.55 Q282.9 195.4 283.45 194.35 284.1 193.2 285.25 192.15 L286.0 191.5 Q288.25 189.8 291.3 189.15 293.85 188.65 296.05 189.1 L296.85 189.3 297.75 189.65 299.35 190.45" fill="#569fa9" fill-rule="evenodd" stroke="none"/>
    <path d="M299.35 190.45 L297.75 189.65 296.85 189.3 296.05 189.1 Q297.45 192.2 295.25 193.35 L296.6 194.4 Q298.05 194.15 299.35 192.55 L299.6 196.1 301.85 197.05 301.55 194.3 301.4 193.5 Q301.1 192.0 300.0 191.0 L299.35 190.45" fill="#2e5556" fill-rule="evenodd" stroke="none"/>
    <path d="M296.05 189.1 Q293.85 188.65 291.3 189.15 288.25 189.8 286.0 191.5 L285.25 192.15 Q284.1 193.2 283.45 194.35 282.9 195.4 282.75 196.55 L281.9 200.75 279.6 197.85 281.45 193.15 277.55 195.65 276.35 193.5 Q278.35 190.9 280.9 188.65 283.4 186.4 286.9 185.65 290.45 184.9 293.35 186.15 294.45 186.55 295.2 187.15 L299.35 190.45 297.75 189.65 296.85 189.3 296.05 189.1 Q297.45 192.2 295.25 193.35 L296.6 194.4 M299.6 196.1 L301.85 197.05 301.55 194.3 301.4 193.5 Q301.1 192.0 300.0 191.0 L299.35 190.45" fill="none" stroke="#2d5657" stroke-linecap="round" stroke-linejoin="round" stroke-width="0.2"/>
  </g>
</svg>
