<?xml version="1.0" encoding="UTF-8" standalone="no"?>
<svg xmlns:xlink="http://www.w3.org/1999/xlink" height="214.15px" width="258.6px" xmlns="http://www.w3.org/2000/svg">
  <g transform="matrix(1.0, 0.0, 0.0, 1.0, -174.45, -109.45)">
    <path d="M322.9 232.6 Q378.95 248.75 433.05 248.35 L415.7 252.4 359.15 249.7 Q325.15 246.8 293.5 229.85 L305.1 242.85 277.05 226.45 302.4 249.7 324.25 259.3 Q333.3 266.3 345.3 270.3 315.55 276.25 290.75 264.75 L307.15 276.4 257.25 266.1 Q235.65 252.45 220.3 230.55 L227.1 243.55 Q231.65 260.9 242.2 270.9 256.25 280.15 271.65 288.7 255.25 278.45 242.6 264.45 266.7 278.25 288.7 279.8 292.75 284.4 297.7 288.45 313.65 301.55 338.65 308.55 L327.0 310.85 Q281.9 311.5 252.45 288.7 L252.45 298.95 Q230.6 286.4 196.0 253.8 189.6 244.0 184.05 233.3 L205.25 240.15 220.3 245.6 Q190.85 218.2 179.2 188.55 176.6 179.9 174.45 170.35 184.05 185.4 210.7 207.95 L218.9 214.8 Q195.85 177.2 180.95 128.85 178.65 119.05 177.2 109.45 192.95 143.2 215.5 165.55 L234.65 188.8 Q218.05 165.8 215.65 149.85 229.75 169.95 257.2 188.1 L275.7 199.75 Q257.15 183.5 251.75 167.3 300.95 212.4 352.3 225.75 L348.4 228.1 312.65 222.35 270.25 206.6 322.9 232.6 M207.55 176.5 L206.6 175.15 207.55 176.5 Q208.15 178.95 209.45 181.65 L209.85 182.4 220.3 205.25 240.8 221.65 265.45 229.85 246.95 213.45 Q221.15 194.95 207.55 176.5" fill="#cc9900" fill-rule="evenodd" stroke="none"/>
    <path d="M415.7 252.4 Q370.7 261.75 324.25 259.3 L302.4 249.7 277.05 226.45 305.1 242.85 293.5 229.85 Q325.15 246.8 359.15 249.7 L415.7 252.4 M345.3 270.3 L352.3 272.3 Q320.5 285.45 288.7 279.8 266.7 278.25 242.6 264.45 233.95 254.9 227.1 243.55 L220.3 230.55 Q235.65 252.45 257.25 266.1 L307.15 276.4 290.75 264.75 Q315.55 276.25 345.3 270.3 M327.0 310.85 Q292.95 316.45 262.7 308.55 L272.3 323.6 Q225.2 298.4 196.0 253.8 230.6 286.4 252.45 298.95 L252.45 288.7 Q281.9 311.5 327.0 310.85 M205.25 240.15 Q188.95 220.85 179.2 188.55 190.85 218.2 220.3 245.6 L205.25 240.15 M210.7 207.95 Q189.8 167.0 180.95 128.85 195.85 177.2 218.9 214.8 L210.7 207.95 M215.5 165.55 L208.65 138.2 Q211.6 144.1 215.65 149.85 218.05 165.8 234.65 188.8 L215.5 165.55 M257.2 188.1 L246.95 162.8 251.75 167.3 Q257.15 183.5 275.7 199.75 L257.2 188.1 M348.4 228.1 Q337.35 233.85 322.9 232.6 L270.25 206.6 312.65 222.35 348.4 228.1 M246.95 213.45 L265.45 229.85 240.8 221.65 220.3 205.25 209.85 182.4 Q213.45 189.1 221.65 197.05 238.4 212.35 246.95 213.45" fill="#9f7800" fill-rule="evenodd" stroke="none"/>
    <path d="M322.9 232.6 Q378.95 248.75 433.05 248.35 L415.7 252.4 Q370.7 261.75 324.25 259.3 333.3 266.3 345.3 270.3 L352.3 272.3 Q320.5 285.45 288.7 279.8 292.75 284.4 297.7 288.45 313.65 301.55 338.65 308.55 L327.0 310.85 Q292.95 316.45 262.7 308.55 L272.3 323.6 Q225.2 298.4 196.0 253.8 189.6 244.0 184.05 233.3 L205.25 240.15 Q188.95 220.85 179.2 188.55 176.6 179.9 174.45 170.35 184.05 185.4 210.7 207.95 189.8 167.0 180.95 128.85 178.65 119.05 177.2 109.45 192.95 143.2 215.5 165.55 L208.65 138.2 Q211.6 144.1 215.65 149.85 229.75 169.95 257.2 188.1 L246.95 162.8 251.75 167.3 Q300.95 212.4 352.3 225.75 L348.4 228.1 Q337.35 233.85 322.9 232.6 M206.6 175.15 L207.55 176.5 Q221.15 194.95 246.95 213.45 238.4 212.35 221.65 197.05 213.45 189.1 209.85 182.4 M209.45 181.65 Q208.15 178.95 207.55 176.5 M227.1 243.55 Q231.65 260.9 242.2 270.9 256.25 280.15 271.65 288.7 255.25 278.45 242.6 264.45 233.95 254.9 227.1 243.55 Z" fill="none" stroke="#513600" stroke-linecap="round" stroke-linejoin="round" stroke-opacity="0.4" stroke-width="0.05"/>
  </g>
</svg>
