<?xml version="1.0" encoding="UTF-8" standalone="no"?>
<svg xmlns:xlink="http://www.w3.org/1999/xlink" height="33.35px" width="56.25px" xmlns="http://www.w3.org/2000/svg">
  <g transform="matrix(1.0, 0.0, 0.0, 1.0, -246.85, -183.3)">
    <path d="M265.9 192.1 Q267.2 189.85 268.15 188.9 272.65 183.95 277.5 183.6 L277.5 183.55 Q286.85 185.55 296.3 196.15 L298.35 198.65 296.9 199.8 Q290.5 189.1 281.25 186.4 280.25 188.2 282.3 190.85 L289.95 199.95 Q272.15 201.15 265.9 192.1 M301.45 203.8 L303.1 207.6 300.95 213.85 293.25 215.65 290.0 213.4 289.0 208.65 285.05 207.0 282.2 209.7 277.35 210.45 274.2 214.0 266.35 215.75 258.85 209.75 260.95 203.05 Q276.95 207.75 295.4 206.1 300.15 212.15 300.95 213.85 300.5 208.1 299.4 205.2 L301.45 203.8" fill="#c6e8f4" fill-rule="evenodd" stroke="none"/>
    <path d="M289.95 199.95 L282.3 190.85 Q280.25 188.2 281.25 186.4 290.5 189.1 296.9 199.8 L289.95 199.95 M295.4 206.1 L299.4 205.2 Q300.5 208.1 300.95 213.85 300.15 212.15 295.4 206.1" fill="#ffffff" fill-rule="evenodd" stroke="none"/>
    <path d="M259.9 189.9 Q263.1 187.45 266.05 185.95 272.0 182.75 276.75 183.4 L277.5 183.6 Q272.65 183.95 268.15 188.9 267.2 189.85 265.9 192.1 263.35 188.9 259.9 189.9 M293.25 215.65 L288.8 216.65 282.2 212.25 274.2 214.0 277.35 210.45 282.2 209.7 285.05 207.0 289.0 208.65 290.0 213.4 293.25 215.65 M258.85 209.75 L254.8 205.2 246.85 206.15 Q248.55 201.8 251.6 197.9 253.6 201.4 260.95 203.05 L258.85 209.75" fill="#839eb8" fill-rule="evenodd" stroke="none"/>
    <path d="M277.5 183.6 L276.75 183.4 277.5 183.55 277.5 183.6" fill="#f8ebcf" fill-rule="evenodd" stroke="none"/>
    <path d="M295.4 206.1 L289.95 199.95 296.9 199.8 Q297.6 200.6 299.4 205.2 L295.4 206.1" fill="#d5deec" fill-rule="evenodd" stroke="none"/>
    <path d="M298.35 198.65 Q300.1 201.1 301.45 203.8 L299.4 205.2 Q297.6 200.6 296.9 199.8 L298.35 198.65 M289.95 199.95 L295.4 206.1 Q276.95 207.75 260.95 203.05 263.9 195.6 265.9 192.1 272.15 201.15 289.95 199.95" fill="#bed8eb" fill-rule="evenodd" stroke="none"/>
    <path d="M259.9 189.9 Q263.35 188.9 265.9 192.1 263.9 195.6 260.95 203.05 253.6 201.4 251.6 197.9 253.65 195.25 256.3 192.85 L258.35 191.15 259.9 189.9" fill="#5183b3" fill-rule="evenodd" stroke="none"/>
    <path d="M276.75 183.4 Q272.0 182.75 266.05 185.95 263.1 187.45 259.9 189.9 L258.35 191.15 256.3 192.85 Q253.65 195.25 251.6 197.9 248.55 201.8 246.85 206.15 L254.8 205.2 258.85 209.75 266.35 215.75 274.2 214.0 282.2 212.25 288.8 216.65 293.25 215.65 300.95 213.85 303.1 207.6 301.45 203.8 Q300.1 201.1 298.35 198.65 L296.3 196.15 Q286.85 185.55 277.5 183.55 L276.75 183.4 277.5 183.6" fill="none" stroke="#53472d" stroke-linecap="round" stroke-linejoin="round" stroke-width="0.05"/>
    <path d="M293.25 215.65 L290.0 213.4 289.0 208.65 285.05 207.0" fill="none" stroke="#755835" stroke-linecap="round" stroke-linejoin="round" stroke-width="0.05"/>
    <path d="M285.05 207.0 L282.2 209.7 277.35 210.45 274.2 214.0" fill="none" stroke="#a48148" stroke-linecap="round" stroke-linejoin="round" stroke-width="0.05"/>
  </g>
</svg>
