<?xml version="1.0" encoding="UTF-8" standalone="no"?>
<svg xmlns:xlink="http://www.w3.org/1999/xlink" height="54.5px" width="61.0px" xmlns="http://www.w3.org/2000/svg">
  <g transform="matrix(1.0, 0.0, 0.0, 1.0, -244.45, -172.7)">
    <path d="M266.15 193.3 L267.0 197.0 266.15 193.3 M274.85 202.3 Q272.95 199.55 271.25 198.25 L269.4 197.05 267.0 197.0 267.75 199.6 267.2 199.75 244.45 187.2 260.9 191.9 264.2 192.8 266.1 188.45 269.65 185.95 281.9 186.85 297.35 172.7 287.1 187.3 288.55 187.65 291.25 190.55 291.25 190.75 291.7 191.35 294.55 196.8 299.75 201.55 300.45 203.5 298.95 206.55 305.45 208.7 305.1 211.8 303.55 212.05 297.35 213.05 291.85 215.0 285.85 215.95 285.45 215.4 283.0 210.6 280.05 211.0 274.45 205.95 274.85 202.3 M302.9 215.0 L301.5 221.45 299.15 222.8 298.35 218.25 298.35 217.7 302.9 215.0 M290.7 218.25 L288.15 226.2 285.85 227.2 285.7 221.75 290.7 218.25 M293.1 203.35 Q293.55 203.65 294.05 203.35 295.0 203.0 295.2 201.85 295.3 201.05 294.55 199.6 293.9 198.45 292.5 197.45 291.35 196.8 290.45 197.0 L289.9 197.2 Q289.6 197.35 289.35 198.3 289.15 199.3 289.9 200.95 290.7 202.2 291.85 202.85 L293.1 203.35 M286.95 206.35 L287.5 206.35 Q288.25 206.05 288.35 205.0 288.55 203.9 287.9 202.6 287.05 201.3 285.85 200.6 284.75 199.85 284.0 200.1 283.25 200.25 283.05 201.15 L283.05 201.4 Q283.0 202.4 283.75 203.75 284.4 205.05 285.45 205.8 L286.95 206.35" fill="#bcc460" fill-rule="evenodd" stroke="none"/>
    <path d="M267.0 197.0 L269.4 197.05 271.25 198.25 Q272.95 199.55 274.85 202.3 L274.45 205.95 280.05 211.0 267.2 207.85 261.5 214.5 256.2 208.0 257.65 198.45 261.2 201.9 267.2 199.75 261.2 201.9 257.65 198.45 244.45 187.2 267.2 199.75 267.75 199.6 267.0 197.0 M297.35 172.7 L291.25 190.55 288.55 187.65 287.1 187.3 297.35 172.7 M303.55 212.05 L302.9 215.0 298.35 217.7 297.35 213.05 303.55 212.05 M291.85 215.0 L290.7 218.25 285.7 221.75 285.45 215.95 285.85 215.95 291.85 215.0 M260.9 191.9 L266.1 188.45 264.2 192.8 260.9 191.9" fill="#9e9b5c" fill-rule="evenodd" stroke="none"/>
    <path d="M267.0 197.0 L266.15 193.3 M267.0 197.0 L267.75 199.6 267.2 199.75 261.2 201.9 257.65 198.45 256.2 208.0 261.5 214.5 267.2 207.85 280.05 211.0 274.45 205.95 274.85 202.3 M297.35 172.7 L291.25 190.55 M291.25 190.75 L291.7 191.35 M300.45 203.5 L298.95 206.55 M305.45 208.7 L305.1 211.8 303.55 212.05 297.35 213.05 291.85 215.0 285.85 215.95 285.45 215.4 283.0 210.6 280.05 211.0 M301.5 221.45 L299.15 222.8 298.35 218.25 M298.35 217.7 L297.35 213.05 M288.15 226.2 L285.85 227.2 285.7 221.75 285.45 215.95 M260.9 191.9 L266.1 188.45 M257.65 198.45 L244.45 187.2 M289.9 197.2 L290.45 197.0 Q291.35 196.8 292.5 197.45 293.9 198.45 294.55 199.6 295.3 201.05 295.2 201.85 295.0 203.0 294.05 203.35 293.55 203.65 293.1 203.35 M283.05 201.15 Q283.25 200.25 284.0 200.1 284.75 199.85 285.85 200.6 287.05 201.3 287.9 202.6 288.55 203.9 288.35 205.0 288.25 206.05 287.5 206.35 L286.95 206.35" fill="none" stroke="#4a4122" stroke-linecap="round" stroke-linejoin="round" stroke-opacity="0.68235296" stroke-width="0.05"/>
  </g>
</svg>
