<?xml version="1.0" encoding="UTF-8" standalone="no"?>
<svg xmlns:xlink="http://www.w3.org/1999/xlink" height="32.7px" width="59.6px" xmlns="http://www.w3.org/2000/svg">
  <g transform="matrix(1.0, 0.0, 0.0, 1.0, -245.15, -183.55)">
    <path d="M289.7 199.3 L289.6 196.4 289.7 199.3 M280.9 200.35 L282.2 198.5 280.9 200.35 M296.45 195.55 L294.3 193.3 296.45 195.55 M272.0 183.65 L278.3 184.05 Q285.0 185.15 290.25 188.05 294.5 190.4 297.8 193.85 L298.95 195.15 300.7 201.65 295.65 206.9 294.15 207.65 287.7 210.9 287.6 211.0 287.6 211.2 272.2 210.05 Q269.0 208.65 266.25 206.8 L265.2 206.1 265.95 204.5 265.2 206.1 Q257.35 200.45 257.95 193.65 L257.95 193.55 Q258.4 189.45 261.75 186.3 L262.35 185.75 Q266.2 184.15 270.3 183.75 L272.0 183.65 M264.35 186.15 L261.75 186.3 264.35 186.15 M291.8 202.95 L294.15 207.65 291.8 202.95 M261.55 192.25 L257.95 193.55 261.55 192.25 M262.15 194.05 L265.05 193.85 262.15 194.05 M271.0 198.2 L273.2 196.95 271.0 198.2" fill="#8f9731" fill-rule="evenodd" stroke="none"/>
    <path d="M294.15 207.65 L295.65 206.9 300.7 201.65 298.95 195.15 Q305.15 202.1 304.75 206.65 304.35 211.0 297.2 213.7 L294.15 207.65" fill="#d56a00" fill-rule="evenodd" stroke="none"/>
    <path d="M295.2 214.2 L295.2 214.25 295.2 214.2" fill="#3f5232" fill-rule="evenodd" stroke="none"/>
    <path d="M295.2 214.25 L289.2 215.65 Q282.3 216.65 273.95 215.95 267.35 215.35 261.85 213.85 257.05 212.6 253.1 210.65 246.6 207.35 245.35 203.6 245.1 202.55 245.2 201.5 245.5 197.8 251.4 192.75 L250.5 197.85 250.0 200.45 263.95 209.15 263.8 209.35 263.9 209.35 272.2 210.05 Q279.25 213.15 288.35 214.0 L288.55 214.0 295.2 214.2 295.2 214.25 M289.2 215.65 L288.55 214.0 289.2 215.65 M245.35 203.6 Q247.25 200.45 250.5 197.85 247.25 200.45 245.35 203.6 M261.85 213.85 L263.8 209.35 261.85 213.85" fill="#663300" fill-rule="evenodd" stroke="none"/>
    <path d="M297.2 213.7 L295.65 214.2 295.2 214.25 295.2 214.2 288.55 214.0 288.55 213.85 287.6 211.2 287.6 211.0 287.7 210.9 294.15 207.65 297.2 213.7" fill="#b35900" fill-rule="evenodd" stroke="none"/>
    <path d="M288.55 213.85 L288.35 214.0 Q279.25 213.15 272.2 210.05 L287.6 211.2 288.55 213.85" fill="#a45200" fill-rule="evenodd" stroke="none"/>
    <path d="M288.35 214.0 L288.55 213.85 288.55 214.0 288.35 214.0" fill="#e7d885" fill-rule="evenodd" stroke="none"/>
    <path d="M257.9 193.55 L257.95 193.55 257.95 193.65 257.9 193.55" fill="#dfc262" fill-rule="evenodd" stroke="none"/>
    <path d="M262.35 185.75 L261.75 186.3 Q258.4 189.45 257.95 193.55 L257.9 193.55 Q253.6 195.45 250.5 197.85 L251.4 192.75 254.2 190.45 255.85 189.3 Q259.05 187.1 262.35 185.75" fill="#717726" fill-rule="evenodd" stroke="none"/>
    <path d="M257.9 193.55 L257.95 193.65 Q257.35 200.45 265.2 206.1 L263.95 209.15 265.2 206.1 266.25 206.8 Q269.0 208.65 272.2 210.05 L263.9 209.35 263.95 209.15 250.0 200.45 250.5 197.85 Q253.6 195.45 257.9 193.55" fill="#787e29" fill-rule="evenodd" stroke="none"/>
    <path d="M263.8 209.35 L263.95 209.15 263.9 209.35 263.8 209.35" fill="#dbc860" fill-rule="evenodd" stroke="none"/>
    <path d="M290.25 188.05 L292.05 188.3 M294.3 193.3 L296.45 195.55 M272.0 183.65 L270.3 183.75" fill="none" stroke="#698543" stroke-linecap="round" stroke-linejoin="round" stroke-width="0.25"/>
    <path d="M282.2 198.5 L280.9 200.35 M289.6 196.4 L289.7 199.3 M261.75 186.3 L264.35 186.15 M273.2 196.95 L271.0 198.2 M265.05 193.85 L262.15 194.05" fill="none" stroke="#3f5232" stroke-linecap="round" stroke-linejoin="round" stroke-width="0.25"/>
    <path d="M288.55 214.0 L289.2 215.65 M288.55 214.0 L288.55 213.85 287.6 211.2 287.6 211.0 287.7 210.9 M297.2 213.7 L294.15 207.65 291.8 202.95 M257.95 193.55 L257.9 193.55 Q253.6 195.45 250.5 197.85 247.25 200.45 245.35 203.6 M257.95 193.55 L261.55 192.25 M265.2 206.1 L265.95 204.5 M263.95 209.15 L263.8 209.35 261.85 213.85 M263.95 209.15 L265.2 206.1" fill="none" stroke="#af9d3d" stroke-linecap="round" stroke-linejoin="round" stroke-width="0.25"/>
    <path d="M251.4 192.75 L254.2 190.45 255.85 189.3 Q259.05 187.1 262.35 185.75" fill="none" stroke="#9c801f" stroke-linecap="round" stroke-linejoin="round" stroke-width="0.25"/>
  </g>
</svg>
