<?xml version="1.0" encoding="UTF-8" standalone="no"?>
<svg xmlns:xlink="http://www.w3.org/1999/xlink" height="186.7px" width="171.25px" xmlns="http://www.w3.org/2000/svg">
  <g transform="matrix(1.0, 0.0, 0.0, 1.0, -189.85, -106.6)">
    <path d="M301.2 206.55 Q311.75 210.5 319.25 203.25 316.05 201.55 319.25 195.85 322.1 195.5 323.7 198.3 330.45 195.15 329.4 187.2 325.5 185.7 325.95 181.95 327.95 179.6 331.85 181.0 334.65 178.85 332.85 170.35 333.45 161.95 338.05 163.45 341.9 168.75 340.05 173.1 350.9 171.1 353.15 176.8 354.35 180.5 349.7 181.25 355.05 184.05 357.1 189.4 357.4 191.5 354.15 190.9 360.35 194.55 361.05 201.3 361.65 203.8 357.35 200.55 361.45 213.5 359.35 223.55 356.05 237.35 348.95 242.85 349.3 238.3 346.2 233.7 345.25 232.3 343.95 231.4 340.0 225.55 344.75 218.1 348.45 215.45 349.2 206.95 346.75 204.55 343.4 208.3 341.85 199.75 339.0 192.5 341.6 192.85 342.55 190.65 341.95 182.55 336.85 187.65 L331.65 199.8 Q323.55 215.05 302.95 217.0 304.0 213.75 299.75 208.7 301.2 207.75 301.2 206.55 M205.1 217.8 L194.8 226.75 Q190.75 223.05 192.6 218.35 190.25 221.2 189.85 218.35 190.65 209.25 196.3 205.75 192.55 207.65 192.1 203.0 192.0 196.7 198.75 196.1 196.5 193.0 198.75 189.9 202.25 186.4 205.7 187.15 203.6 184.6 205.7 181.25 209.05 177.0 212.4 178.5 210.7 176.85 212.4 174.3 216.85 169.8 220.45 171.35 221.6 174.5 223.15 176.65 222.05 178.75 221.25 180.75 219.55 184.6 218.8 187.65 214.85 195.55 209.15 196.3 207.55 193.6 204.65 197.25 202.45 201.9 206.15 204.0 L201.7 206.2 Q198.95 209.4 202.7 211.65 L200.75 213.65 Q199.6 217.65 205.1 217.8" fill="#d9d2c4" fill-rule="evenodd" stroke="none"/>
    <path d="M343.95 231.4 Q342.55 230.4 340.75 230.0 336.15 227.1 336.05 222.4 336.0 226.35 333.1 226.5 328.45 225.35 327.4 221.55 327.2 225.9 324.2 226.5 319.95 227.65 317.5 222.05 316.45 228.05 312.8 228.0 L311.8 226.05 Q306.7 220.95 301.6 220.95 L301.2 219.35 Q302.55 218.3 302.95 217.0 323.55 215.05 331.65 199.8 L336.85 187.65 Q341.95 182.55 342.55 190.65 341.6 192.85 339.0 192.5 341.85 199.75 343.4 208.3 346.75 204.55 349.2 206.95 348.45 215.45 344.75 218.1 340.0 225.55 343.95 231.4 M221.35 219.25 L213.85 214.15 Q214.25 219.35 210.9 219.85 205.8 221.2 206.45 216.6 L205.1 217.8 Q199.6 217.65 200.75 213.65 L202.7 211.65 Q198.95 209.4 201.7 206.2 L206.15 204.0 Q202.45 201.9 204.65 197.25 207.55 193.6 209.15 196.3 214.85 195.55 218.8 187.65 218.35 189.45 218.2 191.0 218.0 192.7 218.2 194.1 L218.3 194.6 219.7 196.8 221.25 198.5 Q222.45 199.65 223.95 200.65 225.8 201.85 228.15 202.8 225.8 206.55 227.2 208.7 223.6 214.05 221.35 219.25" fill="#baae94" fill-rule="evenodd" stroke="none"/>
    <path d="M220.65 142.2 Q220.6 140.15 221.55 137.95 225.4 130.5 230.8 126.65 236.85 122.3 244.8 122.6 252.25 122.55 257.1 124.8 237.65 134.55 239.15 151.95 L235.9 151.7 Q231.45 151.45 227.0 151.55 220.7 147.35 220.65 142.2" fill="#ffff99" fill-rule="evenodd" stroke="none"/>
    <path d="M222.8 266.1 L221.3 266.1 223.8 261.15 225.75 258.2 228.75 261.1 223.75 266.1 222.8 266.1 M210.5 237.75 L207.2 237.65 Q211.85 233.5 217.75 232.25 L219.65 231.95 223.5 231.75 223.45 233.65 Q216.5 233.95 210.5 237.75 M218.8 165.3 L216.85 165.15 Q211.9 161.15 212.15 155.25 L213.75 149.2 Q215.1 144.7 216.95 140.6 218.35 137.55 220.05 134.7 223.45 128.9 228.0 124.1 220.3 120.6 231.7 118.9 238.2 105.35 243.3 106.75 L244.05 107.4 Q233.9 115.65 230.8 126.65 225.4 130.5 221.55 137.95 220.6 140.15 220.65 142.2 L214.85 153.05 Q213.95 161.0 218.05 162.0 L218.8 165.3 M244.45 114.8 Q253.75 109.3 263.85 111.95 266.4 112.95 267.0 114.2 256.05 112.7 247.0 118.9 239.35 118.15 243.55 115.35 L244.45 114.8 M217.1 162.2 L218.05 162.0 217.1 162.2" fill="#91d700" fill-rule="evenodd" stroke="none"/>
    <path d="M287.5 288.4 Q286.2 288.05 285.0 287.2 285.8 284.0 284.3 280.85 L286.55 276.3 290.35 277.0 290.35 273.8 292.05 273.8 Q293.15 285.9 287.5 288.4 M271.0 292.65 Q269.25 292.1 267.55 291.1 267.1 289.65 266.95 288.3 266.5 285.2 267.25 282.5 268.6 277.55 274.05 274.05 L276.8 274.55 Q283.6 285.55 271.0 292.65 M253.7 289.6 Q252.05 287.05 252.25 284.2 252.45 279.9 255.75 275.6 L259.85 274.25 Q261.5 275.05 262.85 276.1 262.1 288.15 253.7 289.6 M244.25 282.55 Q243.2 280.45 243.4 277.65 243.55 275.05 244.65 271.9 L245.55 272.3 248.5 271.75 Q247.35 278.6 244.25 282.55 M231.65 284.95 L227.75 284.15 Q226.15 280.9 226.3 277.8 226.5 273.65 229.9 269.8 L233.0 268.85 Q238.4 280.2 231.65 284.95 M222.35 278.7 Q219.05 278.8 216.1 276.5 217.6 268.4 222.8 266.1 L223.75 266.1 226.45 266.1 Q226.25 272.9 222.35 278.7 M209.2 131.75 Q212.5 129.45 220.05 134.7 218.35 137.55 216.95 140.6 210.25 139.5 209.2 131.75 M226.9 166.7 Q229.25 168.5 232.2 171.6 234.45 177.4 233.3 179.65 232.95 180.4 232.2 180.75 L229.55 180.8 229.25 180.75 Q227.8 180.5 226.5 179.8 232.7 177.9 226.9 166.7 M265.4 183.7 Q276.95 173.0 260.25 168.8 263.45 167.1 268.0 166.05 275.65 169.05 283.2 173.6 278.1 183.6 265.4 183.7 M292.3 135.7 Q285.5 151.55 276.75 153.05 274.1 148.1 276.75 143.15 287.25 135.2 292.3 135.7 M261.1 216.4 Q262.15 220.15 258.65 219.35 L257.55 217.0 255.85 214.55 Q253.9 212.2 251.2 210.95 248.9 209.95 253.2 208.95 255.9 210.6 257.9 212.5 259.85 214.3 261.1 216.4 M253.8 221.0 L254.2 222.35 Q254.5 225.3 251.95 224.55 L251.25 222.4 250.25 220.5 Q248.8 218.25 246.5 216.65 L246.25 215.5 Q246.15 213.85 249.0 215.15 L251.75 217.75 Q253.15 219.35 253.8 221.0 M247.25 226.05 L248.0 227.75 248.0 229.5 246.3 228.1 244.6 226.65 241.25 223.85 Q238.55 220.95 243.05 222.1 244.9 223.25 246.1 224.5 L247.25 226.05 M243.8 232.45 L244.55 233.95 Q245.15 238.05 241.8 236.2 L241.15 234.6 239.7 232.35 Q237.95 230.3 235.15 229.0 234.2 225.55 237.6 227.3 239.75 228.4 241.3 229.7 242.85 231.0 243.8 232.45 M236.9 239.0 L240.05 241.8 237.65 241.1 235.75 240.9 230.7 238.65 Q227.35 234.35 231.35 235.3 L233.4 235.95 235.75 238.0 236.9 239.0" fill="#f0e0c2" fill-rule="evenodd" stroke="none"/>
    <path d="M292.05 273.8 Q298.45 278.3 296.05 285.7 291.4 289.35 287.5 288.4 293.15 285.9 292.05 273.8 M285.0 287.2 Q284.5 289.15 283.15 291.1 276.8 294.45 271.0 292.65 283.6 285.55 276.8 274.55 L279.6 275.05 Q282.9 277.95 284.3 280.85 285.8 284.0 285.0 287.2 M266.95 288.3 Q263.0 293.75 253.7 289.6 262.1 288.15 262.85 276.1 266.0 278.55 267.25 282.5 266.5 285.2 266.95 288.3 M252.25 284.2 Q248.75 287.05 245.3 284.15 L244.25 282.55 Q247.35 278.6 248.5 271.75 L251.5 271.2 Q250.55 275.2 247.8 278.25 L255.75 275.6 Q252.45 279.9 252.25 284.2 M242.75 279.6 Q240.1 286.0 231.65 284.95 238.4 280.2 233.0 268.85 L236.15 267.85 237.9 268.7 Q242.3 271.25 242.75 279.6 M226.3 277.8 Q224.25 278.65 222.35 278.7 226.25 272.9 226.45 266.1 L228.25 266.1 228.25 270.3 229.9 269.8 Q226.5 273.65 226.3 277.8 M213.75 149.2 Q206.1 140.9 209.2 131.75 210.25 139.5 216.95 140.6 215.1 144.7 213.75 149.2 M292.3 135.7 Q293.6 143.2 288.1 156.0 280.05 159.95 276.75 153.05 285.5 151.55 292.3 135.7" fill="#d1bb90" fill-rule="evenodd" stroke="none"/>
    <path d="M304.1 237.05 L310.35 243.1 304.4 242.65 304.1 237.05 M291.25 268.5 L295.8 273.8 292.05 273.8 290.35 273.8 290.35 277.0 286.55 276.3 279.6 275.05 276.8 274.55 274.05 274.05 270.05 273.3 265.85 276.75 263.5 275.3 Q266.5 274.9 267.8 270.3 267.15 264.65 262.1 261.65 257.8 256.4 251.7 256.7 L250.0 261.65 251.35 265.35 252.0 267.1 Q251.95 269.25 251.5 271.2 L248.5 271.75 245.55 272.3 244.65 271.9 237.9 268.7 236.15 267.85 233.0 268.85 229.9 269.8 228.25 270.3 233.4 265.6 228.75 261.1 225.75 258.2 229.2 259.2 231.65 258.45 227.35 251.95 235.9 249.8 Q240.3 250.15 243.35 251.3 245.95 252.35 247.55 254.0 249.25 250.9 257.65 249.55 260.9 250.65 262.95 251.75 270.8 248.9 272.15 243.25 L277.0 242.15 276.75 245.3 Q275.5 247.6 274.95 250.2 274.0 254.5 275.0 259.65 L277.2 267.6 Q280.05 271.45 285.4 268.85 L291.25 268.5 M291.55 123.45 Q294.85 125.8 297.75 129.05 308.55 123.4 309.9 129.05 311.35 134.6 305.9 135.2 315.0 135.75 313.6 144.85 311.75 150.95 307.15 147.85 312.2 165.3 306.55 177.65 301.95 177.15 296.0 178.5 294.3 179.3 293.3 180.3 288.25 176.6 283.2 173.6 275.65 169.05 268.0 166.05 250.9 159.25 233.45 159.95 220.9 154.35 235.9 151.7 L239.15 151.95 248.9 153.15 Q265.35 149.75 265.6 136.2 264.2 128.05 257.1 124.8 273.4 118.35 291.55 123.45 M282.65 164.15 Q266.5 156.05 248.9 153.15 266.5 156.05 282.65 164.15 M276.75 153.05 Q280.05 159.95 288.1 156.0 293.6 143.2 292.3 135.7 287.25 135.2 276.75 143.15 274.1 148.1 276.75 153.05 M274.95 250.2 L266.35 254.7 Q265.75 253.2 262.95 251.75 265.75 253.2 266.35 254.7 L274.95 250.2 M249.45 263.7 L245.05 259.9 Q242.1 255.6 243.35 251.3 242.1 255.6 245.05 259.9 L249.45 263.7 251.35 265.35 249.45 263.7 240.1 260.9 249.45 263.7" fill="#395500" fill-rule="evenodd" stroke="none"/>
    <path d="M220.45 171.35 L219.55 168.6 218.8 165.3 Q220.2 163.3 223.05 164.35 224.4 164.85 226.05 166.05 L226.9 166.7 Q232.7 177.9 226.5 179.8 L225.25 178.9 223.15 176.65 Q221.6 174.5 220.45 171.35 M252.5 181.6 Q252.05 174.05 258.5 169.8 L260.25 168.8 Q276.95 173.0 265.4 183.7 L257.85 183.0 255.6 182.55 252.5 181.6" fill="#ffffff" fill-rule="evenodd" stroke="none"/>
    <path d="M306.55 177.65 Q313.7 178.35 317.55 183.45 316.95 185.15 316.0 186.55 312.8 186.9 310.6 184.45 305.0 180.4 296.5 185.95 292.55 184.15 292.2 181.5 L293.3 180.3 Q294.3 179.3 296.0 178.5 301.95 177.15 306.55 177.65 M226.9 166.7 L226.05 166.05 Q244.65 163.65 258.5 169.8 252.05 174.05 252.5 181.6 L251.35 181.3 252.5 181.6 255.6 182.55 257.85 183.0 Q260.35 184.9 259.15 186.85 256.9 187.65 255.95 188.9 254.5 191.3 260.3 193.75 258.9 196.15 257.15 197.85 251.6 194.9 246.05 194.65 253.35 197.2 255.45 199.25 250.65 202.2 245.25 201.55 243.35 198.25 237.45 198.95 235.5 197.4 231.15 198.85 229.2 201.0 228.15 202.8 225.8 201.85 223.95 200.65 223.0 199.0 222.7 197.4 227.3 193.7 232.35 192.75 227.85 192.45 222.65 194.6 223.2 191.2 226.65 187.85 230.25 188.6 230.75 186.95 235.15 183.1 232.2 180.75 241.5 178.95 251.35 181.3 252.05 178.8 247.8 176.3 242.25 173.45 236.65 176.3 L233.3 179.65 Q234.45 177.4 232.2 171.6 229.25 168.5 226.9 166.7 M261.1 216.4 Q277.85 216.3 290.9 208.95 295.3 214.35 295.5 221.55 293.5 224.3 292.1 226.9 291.6 217.4 289.3 219.1 289.65 223.5 287.6 223.05 283.7 216.85 282.65 220.05 284.3 226.5 287.6 228.0 287.75 234.0 285.1 233.45 283.4 224.55 281.65 227.25 281.05 235.3 276.95 238.1 276.55 232.05 274.3 225.7 L272.5 227.75 Q271.55 240.85 255.75 244.3 247.95 243.9 240.05 241.8 L236.9 239.0 Q238.55 234.6 241.15 234.6 L241.8 236.2 Q245.15 238.05 244.55 233.95 L243.8 232.45 Q242.25 228.4 246.3 228.1 L248.0 229.5 248.0 227.75 247.25 226.05 Q249.25 221.45 251.25 222.4 L251.95 224.55 Q254.5 225.3 254.2 222.35 L253.8 221.0 Q254.8 217.2 257.55 217.0 L258.65 219.35 Q262.15 220.15 261.1 216.4 M275.25 224.55 L274.3 225.7 275.25 224.55 M276.7 219.3 Q274.7 220.55 276.7 221.8 278.8 226.05 280.9 223.55 282.75 222.25 280.9 220.05 278.8 216.8 276.7 219.3 M246.25 215.5 L246.5 216.65 Q248.8 218.25 250.25 220.5 246.3 218.75 246.1 224.5 244.9 223.25 243.05 222.1 238.55 220.95 241.25 223.85 L244.6 226.65 Q240.05 226.35 241.3 229.7 239.75 228.4 237.6 227.3 234.2 225.55 235.15 229.0 237.95 230.3 239.7 232.35 235.95 233.2 235.75 238.0 L233.4 235.95 231.35 235.3 Q227.9 224.65 232.0 211.2 235.5 211.8 239.0 209.1 240.35 214.15 246.25 215.5 M225.15 221.5 Q224.05 225.4 223.65 229.25 222.25 231.2 220.9 229.6 L225.15 221.5" fill="#582578" fill-rule="evenodd" stroke="none"/>
    <path d="M301.6 220.95 L303.7 233.0 Q299.5 221.75 297.7 226.25 301.95 232.9 300.45 238.6 293.8 229.35 294.5 233.65 295.15 238.45 292.1 238.6 289.55 235.7 292.1 226.9 293.5 224.3 295.5 221.55 295.3 214.35 290.9 208.95 277.85 216.3 261.1 216.4 259.85 214.3 257.9 212.5 255.9 210.6 253.2 208.95 248.9 209.95 251.2 210.95 253.9 212.2 255.85 214.55 251.5 214.75 251.75 217.75 L249.0 215.15 Q246.15 213.85 246.25 215.5 240.35 214.15 239.0 209.1 L241.65 206.55 Q243.45 204.5 245.25 201.55 250.65 202.2 255.45 199.25 260.15 203.45 259.95 207.1 L262.35 206.8 265.6 206.2 Q264.15 202.0 257.15 197.85 258.9 196.15 260.3 193.75 L262.55 194.15 264.85 196.35 Q270.0 201.4 270.3 204.95 L265.6 206.2 270.3 204.95 275.7 203.0 Q274.35 198.7 266.65 194.4 273.3 194.2 277.2 192.4 280.3 188.2 276.15 186.85 271.55 185.45 263.6 185.95 260.95 186.25 259.15 186.85 260.35 184.9 257.85 183.0 L265.4 183.7 Q278.1 183.6 283.2 173.6 288.25 176.6 293.3 180.3 L292.2 181.5 Q292.55 184.15 296.5 185.95 305.0 180.4 310.6 184.45 312.8 186.9 316.0 186.55 313.0 190.65 306.4 191.65 298.15 194.25 294.3 191.65 L289.1 195.8 Q300.4 197.95 301.2 206.55 301.2 207.75 299.75 208.7 304.0 213.75 302.95 217.0 302.55 218.3 301.2 219.35 L301.6 220.95 M226.05 166.05 Q224.4 164.85 223.05 164.35 L221.15 161.35 Q227.35 160.15 233.45 159.95 250.9 159.25 268.0 166.05 263.45 167.1 260.25 168.8 L258.5 169.8 Q244.65 163.65 226.05 166.05 M232.2 180.75 Q232.95 180.4 233.3 179.65 L236.65 176.3 Q242.25 173.45 247.8 176.3 252.05 178.8 251.35 181.3 241.5 178.95 232.2 180.75 M289.1 195.8 Q284.6 198.75 280.15 201.0 L275.7 203.0 280.15 201.0 Q284.6 198.75 289.1 195.8 M291.55 183.45 Q291.6 182.4 292.2 181.5 291.6 182.4 291.55 183.45 M255.75 244.3 Q271.55 240.85 272.5 227.75 L274.3 225.7 Q276.55 232.05 276.95 238.1 L277.0 242.15 272.15 243.25 Q264.0 244.7 255.75 244.3 M294.0 242.85 Q296.55 241.35 297.25 246.3 L295.0 249.75 Q292.7 251.0 291.3 248.0 291.4 244.1 294.0 242.85 M262.35 206.8 Q257.8 208.65 257.9 212.5 257.8 208.65 262.35 206.8 M259.95 207.1 L241.65 206.55 259.95 207.1" fill="#381952" fill-rule="evenodd" stroke="none"/>
    <path d="M223.8 261.15 L220.55 258.7 222.9 255.45 222.9 253.25 222.9 249.55 222.9 240.65 Q219.6 239.1 215.65 238.35 L210.5 237.75 Q216.5 233.95 223.45 233.65 L223.55 236.15 Q226.7 239.65 235.75 240.9 L237.65 241.1 240.05 241.8 Q247.95 243.9 255.75 244.3 264.0 244.7 272.15 243.25 270.8 248.9 262.95 251.75 260.9 250.65 257.65 249.55 249.25 250.9 247.55 254.0 245.95 252.35 243.35 251.3 240.3 250.15 235.9 249.8 L227.35 251.95 226.0 252.25 224.75 241.6 222.9 240.65 224.75 241.6 226.0 252.25 227.35 251.95 231.65 258.45 229.2 259.2 225.75 258.2 223.8 261.15 M244.05 107.4 Q247.35 110.7 244.45 114.8 L243.55 115.35 Q239.35 118.15 247.0 118.9 256.05 112.7 267.0 114.2 267.65 115.6 265.9 117.3 281.0 116.05 291.55 123.45 273.4 118.35 257.1 124.8 252.25 122.55 244.8 122.6 236.85 122.3 230.8 126.65 233.9 115.65 244.05 107.4 M220.65 142.2 Q220.7 147.35 227.0 151.55 231.45 151.45 235.9 151.7 220.9 154.35 233.45 159.95 227.35 160.15 221.15 161.35 L218.05 162.0 Q213.95 161.0 214.85 153.05 L220.65 142.2 M227.0 151.55 L220.05 151.8 227.0 151.55 M265.9 117.3 L264.85 117.4 265.9 117.3 M251.5 271.2 Q251.95 269.25 252.0 267.1 L251.35 265.35 250.0 261.65 251.7 256.7 Q257.8 256.4 262.1 261.65 267.15 264.65 267.8 270.3 266.5 274.9 263.5 275.3 L261.15 273.8 259.85 274.25 255.75 275.6 247.8 278.25 Q250.55 275.2 251.5 271.2 M228.75 261.1 L233.4 265.6 228.25 270.3 228.25 266.1 226.45 266.1 223.75 266.1 228.75 261.1" fill="#669900" fill-rule="evenodd" stroke="none"/>
    <path d="M218.15 229.45 Q219.1 224.4 221.35 219.25 223.6 214.05 227.2 208.7 227.95 209.8 229.7 210.45 L232.0 211.2 Q227.9 224.65 231.35 235.3 227.35 234.35 230.7 238.65 L235.75 240.9 Q226.7 239.65 223.55 236.15 L223.45 233.65 223.5 231.75 223.65 229.25 Q224.05 225.4 225.15 221.5 226.7 216.0 229.7 210.45 226.7 216.0 225.15 221.5 L220.9 229.6 Q220.0 226.25 222.5 223.8 220.35 223.8 218.15 229.45 M223.05 164.35 Q220.2 163.3 218.8 165.3 L218.05 162.0 221.15 161.35 223.05 164.35 M226.65 187.85 Q223.2 191.2 222.65 194.6 L219.7 196.8 218.3 194.6 218.2 194.1 Q220.75 190.0 223.9 188.45 221.05 188.15 218.2 191.0 218.35 189.45 218.8 187.65 219.55 184.6 221.25 180.75 222.05 178.75 223.15 176.65 L225.25 178.9 221.25 180.75 Q220.9 183.5 223.8 186.2 225.2 187.45 226.65 187.85 M260.3 193.75 Q254.5 191.3 255.95 188.9 256.9 187.65 259.15 186.85 260.95 186.25 263.6 185.95 271.55 185.45 276.15 186.85 280.3 188.2 277.2 192.4 273.3 194.2 266.65 194.4 L257.4 190.9 262.55 194.15 260.3 193.75 M257.55 217.0 Q254.8 217.2 253.8 221.0 253.15 219.35 251.75 217.75 251.5 214.75 255.85 214.55 L257.55 217.0 M251.25 222.4 Q249.25 221.45 247.25 226.05 L246.1 224.5 Q246.3 218.75 250.25 220.5 L251.25 222.4 M246.3 228.1 Q242.25 228.4 243.8 232.45 242.85 231.0 241.3 229.7 240.05 226.35 244.6 226.65 L246.3 228.1 M241.15 234.6 Q238.55 234.6 236.9 239.0 L235.75 238.0 Q235.95 233.2 239.7 232.35 L241.15 234.6 M223.95 200.65 Q222.45 199.65 221.25 198.5 L222.7 197.4 Q223.0 199.0 223.95 200.65" fill="#9467b0" fill-rule="evenodd" stroke="none"/>
    <path d="M222.9 253.25 Q220.75 254.5 218.55 250.55 215.55 247.2 215.5 241.45 219.65 243.35 222.9 249.55 L222.9 253.25 M217.75 232.25 L218.15 229.45 Q220.35 223.8 222.5 223.8 220.0 226.25 220.9 229.6 L219.65 231.95 217.75 232.25 M222.7 197.4 Q222.4 196.0 222.65 194.6 227.85 192.45 232.35 192.75 227.3 193.7 222.7 197.4 M255.45 199.25 Q253.35 197.2 246.05 194.65 251.6 194.9 257.15 197.85 L255.45 199.25 M292.1 226.9 Q286.25 237.2 289.1 244.3 283.55 251.95 276.75 245.3 L277.0 242.15 276.95 238.1 Q281.05 235.3 281.65 227.25 283.4 224.55 285.1 233.45 287.75 234.0 287.6 228.0 284.3 226.5 282.65 220.05 283.7 216.85 287.6 223.05 289.65 223.5 289.3 219.1 291.6 217.4 292.1 226.9 M276.7 219.3 Q278.8 216.8 280.9 220.05 282.75 222.25 280.9 223.55 278.8 226.05 276.7 221.8 274.7 220.55 276.7 219.3 M286.1 257.0 Q286.05 260.85 283.9 260.95 281.35 258.1 284.15 255.25 285.95 253.9 286.1 257.0" fill="#b13033" fill-rule="evenodd" stroke="none"/>
    <path d="M222.65 194.6 Q222.4 196.0 222.7 197.4 L221.25 198.5 219.7 196.8 222.65 194.6 M218.2 191.0 Q221.05 188.15 223.9 188.45 220.75 190.0 218.2 194.1 218.0 192.7 218.2 191.0 M262.55 194.15 L257.4 190.9 266.65 194.4 262.55 194.15" fill="#d66568" fill-rule="evenodd" stroke="none"/>
    <path d="M226.5 179.8 Q227.8 180.5 229.25 180.75 L229.55 180.8 232.2 180.75 Q235.15 183.1 230.75 186.95 230.25 188.6 226.65 187.85 225.2 187.45 223.8 186.2 220.9 183.5 221.25 180.75 L225.25 178.9 226.5 179.8" fill="#b59bca" fill-rule="evenodd" stroke="none"/>
    <path d="M239.15 151.95 Q237.65 134.55 257.1 124.8 264.2 128.05 265.6 136.2 265.35 149.75 248.9 153.15 L239.15 151.95" fill="#ccba39" fill-rule="evenodd" stroke="none"/>
    <path d="M303.7 233.0 L304.1 237.05 304.4 242.65 Q304.6 250.15 303.7 257.7 301.1 265.0 294.55 266.35 292.95 267.8 291.25 268.5 L285.4 268.85 Q280.05 271.45 277.2 267.6 L275.0 259.65 Q274.0 254.5 274.95 250.2 275.5 247.6 276.75 245.3 283.55 251.95 289.1 244.3 286.25 237.2 292.1 226.9 289.55 235.7 292.1 238.6 295.15 238.45 294.5 233.65 293.8 229.35 300.45 238.6 301.95 232.9 297.7 226.25 299.5 221.75 303.7 233.0 M215.5 241.45 Q215.45 239.95 215.65 238.35 219.6 239.1 222.9 240.65 L222.9 249.55 Q219.65 243.35 215.5 241.45 M257.15 197.85 Q264.15 202.0 265.6 206.2 L262.35 206.8 259.95 207.1 Q260.15 203.45 255.45 199.25 L257.15 197.85 M270.3 204.95 Q270.0 201.4 264.85 196.35 L262.55 194.15 266.65 194.4 Q274.35 198.7 275.7 203.0 L270.3 204.95 M294.0 242.85 Q291.4 244.1 291.3 248.0 292.7 251.0 295.0 249.75 L297.25 246.3 Q296.55 241.35 294.0 242.85 M286.1 257.0 Q285.95 253.9 284.15 255.25 281.35 258.1 283.9 260.95 286.05 260.85 286.1 257.0 M223.65 229.25 L223.5 231.75 219.65 231.95 220.9 229.6 Q222.25 231.2 223.65 229.25" fill="#6a1e2d" fill-rule="evenodd" stroke="none"/>
    <path d="M243.4 277.65 L242.75 279.6 Q242.3 271.25 237.9 268.7 L244.65 271.9 Q243.55 275.05 243.4 277.65 M263.5 275.3 L265.85 276.75 270.05 273.3 274.05 274.05 Q268.6 277.55 267.25 282.5 266.0 278.55 262.85 276.1 261.5 275.05 259.85 274.25 L261.15 273.8 263.5 275.3 M279.6 275.05 L286.55 276.3 284.3 280.85 Q282.9 277.95 279.6 275.05" fill="#cf7b16" fill-rule="evenodd" stroke="none"/>
    <path d="M239.0 209.1 Q235.5 211.8 232.0 211.2 L229.7 210.45 Q227.95 209.8 227.2 208.7 225.8 206.55 228.15 202.8 229.2 201.0 231.15 198.85 235.5 197.4 237.45 198.95 243.35 198.25 245.25 201.55 243.45 204.5 241.65 206.55 L239.0 209.1 M233.15 204.75 Q234.05 201.4 237.45 198.95 234.05 201.4 233.15 204.75" fill="#fdb0c1" fill-rule="evenodd" stroke="none"/>
    <path d="M232.2 180.75 Q232.95 180.4 233.3 179.65 M251.35 181.3 L252.5 181.6" fill="none" stroke="#381952" stroke-linecap="round" stroke-linejoin="round" stroke-width="0.05"/>
    <path d="M301.2 206.55 Q311.75 210.5 319.25 203.25 316.05 201.55 319.25 195.85 322.1 195.5 323.7 198.3 330.45 195.15 329.4 187.2 325.5 185.7 325.95 181.95 327.95 179.6 331.85 181.0 334.65 178.85 332.85 170.35 333.45 161.95 338.05 163.45 341.9 168.75 340.05 173.1 350.9 171.1 353.15 176.8 354.35 180.5 349.7 181.25 355.05 184.05 357.1 189.4 357.4 191.5 354.15 190.9 360.35 194.55 361.05 201.3 361.65 203.8 357.35 200.55 361.45 213.5 359.35 223.55 356.05 237.35 348.95 242.85 349.3 238.3 346.2 233.7 345.25 232.3 343.95 231.4 342.55 230.4 340.75 230.0 336.15 227.1 336.05 222.4 336.0 226.35 333.1 226.5 328.45 225.35 327.4 221.55 327.2 225.9 324.2 226.5 319.95 227.65 317.5 222.05 316.45 228.05 312.8 228.0 L311.8 226.05 Q306.7 220.95 301.6 220.95 M221.35 219.25 L213.85 214.15 Q214.25 219.35 210.9 219.85 205.8 221.2 206.45 216.6 L205.1 217.8 194.8 226.75 Q190.75 223.05 192.6 218.35 190.25 221.2 189.85 218.35 190.65 209.25 196.3 205.75 192.55 207.65 192.1 203.0 192.0 196.7 198.75 196.1 196.5 193.0 198.75 189.9 202.25 186.4 205.7 187.15 203.6 184.6 205.7 181.25 209.05 177.0 212.4 178.5 210.7 176.85 212.4 174.3 216.85 169.8 220.45 171.35 M261.1 216.4 Q262.15 220.15 258.65 219.35 L257.55 217.0 255.85 214.55 Q253.9 212.2 251.2 210.95 248.9 209.95 253.2 208.95 255.9 210.6 257.9 212.5 259.85 214.3 261.1 216.4 M253.8 221.0 L254.2 222.35 Q254.5 225.3 251.95 224.55 L251.25 222.4 250.25 220.5 Q248.8 218.25 246.5 216.65 L246.25 215.5 Q246.15 213.85 249.0 215.15 L251.75 217.75 Q253.15 219.35 253.8 221.0 M247.25 226.05 L248.0 227.75 248.0 229.5 246.3 228.1 244.6 226.65 241.25 223.85 Q238.55 220.95 243.05 222.1 244.9 223.25 246.1 224.5 L247.25 226.05 M243.8 232.45 L244.55 233.95 Q245.15 238.05 241.8 236.2 L241.15 234.6 239.7 232.35 Q237.95 230.3 235.15 229.0 234.2 225.55 237.6 227.3 239.75 228.4 241.3 229.7 242.85 231.0 243.8 232.45 M236.9 239.0 L240.05 241.8 237.65 241.1 235.75 240.9 230.7 238.65 Q227.35 234.35 231.35 235.3 L233.4 235.95 235.75 238.0 236.9 239.0" fill="none" stroke="#867964" stroke-linecap="round" stroke-linejoin="round" stroke-width="0.05"/>
    <path d="M304.1 237.05 L310.35 243.1 304.4 242.65 M291.25 268.5 L295.8 273.8 292.05 273.8 290.35 273.8 290.35 277.0 286.55 276.3 279.6 275.05 276.8 274.55 274.05 274.05 270.05 273.3 265.85 276.75 263.5 275.3 261.15 273.8 259.85 274.25 255.75 275.6 247.8 278.25 Q250.55 275.2 251.5 271.2 251.95 269.25 252.0 267.1 L251.35 265.35 249.45 263.7 240.1 260.9 M222.8 266.1 L221.3 266.1 223.8 261.15 220.55 258.7 222.9 255.45 222.9 253.25 222.9 249.55 222.9 240.65 224.75 241.6 226.0 252.25 227.35 251.95 235.9 249.8 Q240.3 250.15 243.35 251.3 245.95 252.35 247.55 254.0 249.25 250.9 257.65 249.55 260.9 250.65 262.95 251.75 265.75 253.2 266.35 254.7 L274.95 250.2 M215.65 238.35 L210.5 237.75 207.2 237.65 Q211.85 233.5 217.75 232.25 L219.65 231.95 223.5 231.75 223.45 233.65 223.55 236.15 Q226.7 239.65 235.75 240.9 M218.8 165.3 L216.85 165.15 Q211.9 161.15 212.15 155.25 L213.75 149.2 Q215.1 144.7 216.95 140.6 218.35 137.55 220.05 134.7 223.45 128.9 228.0 124.1 220.3 120.6 231.7 118.9 238.2 105.35 243.3 106.75 L244.05 107.4 Q247.35 110.7 244.45 114.8 253.75 109.3 263.85 111.95 266.4 112.95 267.0 114.2 267.65 115.6 265.9 117.3 281.0 116.05 291.55 123.45 294.85 125.8 297.75 129.05 308.55 123.4 309.9 129.05 311.35 134.6 305.9 135.2 315.0 135.75 313.6 144.85 311.75 150.95 307.15 147.85 312.2 165.3 306.55 177.65 M227.0 151.55 Q231.45 151.45 235.9 151.7 L239.15 151.95 248.9 153.15 Q266.5 156.05 282.65 164.15 M218.05 162.0 L217.1 162.2 M221.15 161.35 L218.05 162.0 M220.05 151.8 L227.0 151.55 M233.45 159.95 Q227.35 160.15 221.15 161.35 M264.85 117.4 L265.9 117.3 M244.45 114.8 L243.55 115.35 M268.0 166.05 Q250.9 159.25 233.45 159.95 M283.2 173.6 Q275.65 169.05 268.0 166.05 M293.3 180.3 Q288.25 176.6 283.2 173.6 M240.05 241.8 Q247.95 243.9 255.75 244.3 264.0 244.7 272.15 243.25 L277.0 242.15 M248.5 271.75 L251.5 271.2 M243.35 251.3 Q242.1 255.6 245.05 259.9 L249.45 263.7 M251.35 265.35 L250.0 261.65 M248.5 271.75 L245.55 272.3 244.65 271.9 237.9 268.7 236.15 267.85 233.0 268.85 229.9 269.8 228.25 270.3 228.25 266.1 226.45 266.1 223.75 266.1 222.8 266.1 M229.2 259.2 L225.75 258.2 223.8 261.15 M215.65 238.35 Q219.6 239.1 222.9 240.65" fill="none" stroke="#2d4200" stroke-linecap="round" stroke-linejoin="round" stroke-width="0.05"/>
    <path d="M230.8 126.65 Q225.4 130.5 221.55 137.95 220.6 140.15 220.65 142.2 220.7 147.35 227.0 151.55 M257.1 124.8 Q252.25 122.55 244.8 122.6 236.85 122.3 230.8 126.65 M248.9 153.15 Q265.35 149.75 265.6 136.2 264.2 128.05 257.1 124.8" fill="none" stroke="#786d1f" stroke-linecap="round" stroke-linejoin="round" stroke-width="0.05"/>
    <path d="M292.05 273.8 Q298.45 278.3 296.05 285.7 291.4 289.35 287.5 288.4 286.2 288.05 285.0 287.2 284.5 289.15 283.15 291.1 276.8 294.45 271.0 292.65 269.25 292.1 267.55 291.1 267.1 289.65 266.95 288.3 263.0 293.75 253.7 289.6 252.05 287.05 252.25 284.2 248.75 287.05 245.3 284.15 L244.25 282.55 Q243.2 280.45 243.4 277.65 243.55 275.05 244.65 271.9 M242.75 279.6 Q240.1 286.0 231.65 284.95 L227.75 284.15 Q226.15 280.9 226.3 277.8 224.25 278.65 222.35 278.7 219.05 278.8 216.1 276.5 217.6 268.4 222.8 266.1 M220.45 171.35 L219.55 168.6 218.8 165.3 Q220.2 163.3 223.05 164.35 224.4 164.85 226.05 166.05 L226.9 166.7 Q229.25 168.5 232.2 171.6 234.45 177.4 233.3 179.65 M213.75 149.2 Q206.1 140.9 209.2 131.75 212.5 129.45 220.05 134.7 M226.5 179.8 Q227.8 180.5 229.25 180.75 L229.55 180.8 232.2 180.75 M252.5 181.6 Q252.05 174.05 258.5 169.8 L260.25 168.8 Q263.45 167.1 268.0 166.05 M225.25 178.9 L223.15 176.65 Q221.6 174.5 220.45 171.35 M225.25 178.9 L226.5 179.8 M252.5 181.6 L255.6 182.55 257.85 183.0 265.4 183.7 Q278.1 183.6 283.2 173.6 M276.75 153.05 Q280.05 159.95 288.1 156.0 293.6 143.2 292.3 135.7 287.25 135.2 276.75 143.15 274.1 148.1 276.75 153.05 M262.85 276.1 Q261.5 275.05 259.85 274.25 M255.75 275.6 Q252.45 279.9 252.25 284.2 M267.25 282.5 Q266.5 285.2 266.95 288.3 M274.05 274.05 Q268.6 277.55 267.25 282.5 266.0 278.55 262.85 276.1 M237.9 268.7 Q242.3 271.25 242.75 279.6 M284.3 280.85 L286.55 276.3 M285.0 287.2 Q285.8 284.0 284.3 280.85 282.9 277.95 279.6 275.05 M229.9 269.8 Q226.5 273.65 226.3 277.8" fill="none" stroke="#7e5e3d" stroke-linecap="round" stroke-linejoin="round" stroke-width="0.05"/>
    <path d="M301.6 220.95 L303.7 233.0 M218.15 229.45 Q219.1 224.4 221.35 219.25 223.6 214.05 227.2 208.7 M306.55 177.65 Q313.7 178.35 317.55 183.45 316.95 185.15 316.0 186.55 M306.4 191.65 Q298.15 194.25 294.3 191.65 L289.1 195.8 Q300.4 197.95 301.2 206.55 301.2 207.75 299.75 208.7 304.0 213.75 302.95 217.0 302.55 218.3 301.2 219.35 L301.6 220.95 M218.8 165.3 L218.05 162.0 M223.15 176.65 Q222.05 178.75 221.25 180.75 219.55 184.6 218.8 187.65 218.35 189.45 218.2 191.0 M218.2 194.1 L218.3 194.6 219.7 196.8 M265.6 206.2 L270.3 204.95 M275.7 203.0 L280.15 201.0 Q284.6 198.75 289.1 195.8 M296.5 185.95 Q305.0 180.4 310.6 184.45 M292.2 181.5 Q291.6 182.4 291.55 183.45 M306.55 177.65 Q301.95 177.15 296.0 178.5 294.3 179.3 293.3 180.3 L292.2 181.5 M272.5 227.75 L274.3 225.7 275.25 224.55 M250.25 220.5 Q246.3 218.75 246.1 224.5 M235.75 238.0 Q235.95 233.2 239.7 232.35 M241.3 229.7 Q240.05 226.35 244.6 226.65 M255.85 214.55 Q251.5 214.75 251.75 217.75 M257.9 212.5 Q257.8 208.65 262.35 206.8 M241.65 206.55 L259.95 207.1 M276.95 238.1 Q276.55 232.05 274.3 225.7 M223.95 200.65 Q225.8 201.85 228.15 202.8 M229.7 210.45 Q226.7 216.0 225.15 221.5 224.05 225.4 223.65 229.25 M221.25 198.5 Q222.45 199.65 223.95 200.65" fill="none" stroke="#582578" stroke-linecap="round" stroke-linejoin="round" stroke-width="0.05"/>
    <path d="M303.7 233.0 L304.1 237.05 304.4 242.65 Q304.6 250.15 303.7 257.7 301.1 265.0 294.55 266.35 292.95 267.8 291.25 268.5 L285.4 268.85 Q280.05 271.45 277.2 267.6 L275.0 259.65 Q274.0 254.5 274.95 250.2 275.5 247.6 276.75 245.3 L277.0 242.15 276.95 238.1 M222.9 253.25 Q220.75 254.5 218.55 250.55 215.55 247.2 215.5 241.45 215.45 239.95 215.65 238.35 M217.75 232.25 L218.15 229.45 M218.2 191.0 Q218.0 192.7 218.2 194.1 M259.95 207.1 L262.35 206.8 265.6 206.2 M270.3 204.95 L275.7 203.0 M219.7 196.8 L221.25 198.5" fill="none" stroke="#990000" stroke-linecap="round" stroke-linejoin="round" stroke-width="0.05"/>
    <path d="M243.4 277.65 L242.75 279.6 M316.0 186.55 Q313.0 190.65 306.4 191.65 M239.0 209.1 Q235.5 211.8 232.0 211.2 L229.7 210.45 Q227.95 209.8 227.2 208.7 225.8 206.55 228.15 202.8 229.2 201.0 231.15 198.85 235.5 197.4 237.45 198.95 243.35 198.25 245.25 201.55 243.45 204.5 241.65 206.55 L239.0 209.1 M237.45 198.95 Q234.05 201.4 233.15 204.75 M223.65 229.25 L223.5 231.75" fill="none" stroke="#000000" stroke-linecap="round" stroke-linejoin="round" stroke-width="0.05"/>
  </g>
</svg>
