<?xml version="1.0" encoding="UTF-8" standalone="no"?>
<svg xmlns:xlink="http://www.w3.org/1999/xlink" height="100.55px" width="67.9px" xmlns="http://www.w3.org/2000/svg">
  <g transform="matrix(1.0, 0.0, 0.0, 1.0, -54.45, 0.5)">
    <path d="M120.85 4.35 L114.1 10.25 100.2 24.5 94.55 33.75 92.0 30.9 93.1 29.1 95.85 24.45 110.4 0.0 113.0 0.0 Q97.2 33.0 110.5 8.05 L117.35 0.05 118.2 0.05 120.85 4.35 M85.9 40.7 L85.9 40.8 85.85 40.8 85.9 40.7 M115.0 37.65 L115.0 38.35 Q115.0 42.25 111.65 45.45 L112.0 45.75 113.5 47.3 106.6 58.4 Q89.7 79.3 70.45 73.55 L70.0 75.05 70.85 77.65 71.25 76.6 71.35 77.8 71.4 79.15 72.05 81.0 72.05 81.05 74.75 86.55 Q77.3 91.8 86.55 94.5 104.05 97.75 115.25 89.35 L112.25 92.8 112.15 92.85 112.0 92.85 111.75 92.85 Q106.85 96.2 100.9 97.9 L99.55 98.25 Q94.35 99.5 88.35 99.55 L87.7 99.55 Q74.45 99.35 65.0 92.85 L64.75 92.85 64.6 92.85 Q62.35 90.6 60.6 88.1 57.6 83.8 56.2 78.85 54.9 74.4 54.95 69.4 54.9 59.2 60.2 51.25 62.1 48.35 64.75 45.75 61.0 42.45 61.0 38.35 61.0 37.5 61.15 36.75 62.05 31.9 68.55 28.3 L64.35 36.2 66.15 42.25 66.9 42.65 Q68.45 48.45 93.35 49.75 L105.8 46.95 Q113.25 42.05 115.0 37.65 M64.75 45.75 L64.85 45.85 Q66.5 47.3 68.9 48.6 76.8 52.85 88.0 52.85 99.2 52.85 107.1 48.6 109.85 47.1 111.65 45.45 109.85 47.1 107.1 48.6 99.2 52.85 88.0 52.85 76.8 52.85 68.9 48.6 66.5 47.3 64.85 45.85 L64.75 45.75 M72.15 67.95 Q72.75 67.4 72.3 67.35 L72.15 67.95" fill="#ab7e34" fill-rule="evenodd" stroke="none"/>
    <path d="M92.0 30.9 L94.55 33.75 100.2 24.5 114.1 10.25 120.85 4.35 121.85 5.95 110.15 18.95 105.1 23.85 103.3 26.4 100.15 30.75 96.05 36.8 93.6 40.4 90.25 40.85 88.5 40.85 85.9 40.8 85.9 40.7 89.05 35.65 92.0 30.9" fill="#93652f" fill-rule="evenodd" stroke="none"/>
    <path d="M117.35 0.05 L110.5 8.05 Q97.2 33.0 113.0 0.0 L117.35 0.05" fill="#6d4b23" fill-rule="evenodd" stroke="none"/>
    <path d="M93.1 29.1 L92.0 30.9 89.05 35.65 80.65 36.1 79.9 39.95 77.15 39.1 75.55 38.4 Q72.5 36.85 72.5 34.85 72.5 32.35 77.15 30.6 81.85 28.85 88.5 28.85 L93.1 29.1 M96.05 36.8 L100.15 30.75 Q104.5 32.45 104.5 34.85 104.5 36.9 101.35 38.45 L99.8 39.1 99.7 39.15 96.05 36.8" fill="#6d4723" fill-rule="evenodd" stroke="none"/>
    <path d="M95.85 24.45 L93.1 29.1 88.5 28.85 Q81.85 28.85 77.15 30.6 72.5 32.35 72.5 34.85 72.5 36.85 75.55 38.4 L77.15 39.1 79.9 39.95 85.85 40.8 85.9 40.8 88.5 40.85 90.25 40.85 93.6 40.4 95.35 40.05 95.25 40.15 99.7 39.15 99.8 39.1 101.35 38.45 Q104.5 36.9 104.5 34.85 104.5 32.45 100.15 30.75 L103.3 26.4 Q105.3 27.1 107.1 28.1 114.55 32.1 115.0 37.65 113.25 42.05 105.8 46.95 L93.35 49.75 Q68.45 48.45 66.9 42.65 L66.15 42.25 64.35 36.2 68.55 28.3 68.9 28.1 Q76.8 23.85 88.0 23.85 L95.85 24.45 M107.1 34.95 L107.55 35.35 106.9 37.3 105.35 39.05 Q104.7 40.35 105.15 41.65 L108.6 41.45 Q110.7 38.7 108.85 35.8 L107.1 34.95 M113.5 47.3 Q121.8 56.65 121.8 69.4 121.8 74.4 120.55 78.85 118.9 84.5 115.25 89.35 104.05 97.75 86.55 94.5 77.3 91.8 74.75 86.55 L72.05 81.05 72.05 81.0 71.4 79.15 71.35 77.8 71.25 76.6 70.85 77.65 70.0 75.05 70.45 73.55 Q89.7 79.3 106.6 58.4 L113.5 47.3 M112.55 58.6 L109.7 60.35 109.7 61.85 Q110.75 64.6 113.6 65.8 L113.85 65.8 Q115.9 63.5 115.15 59.7 L114.05 58.6 112.55 58.6 M100.25 42.8 L99.2 43.15 Q94.75 43.0 90.95 44.4 L90.6 44.55 Q93.55 46.85 97.75 46.35 L100.25 44.2 100.25 42.8 M72.15 67.95 L72.3 67.35 Q72.75 67.4 72.15 67.95" fill="#cfac5f" fill-rule="evenodd" stroke="none"/>
    <path d="M107.1 34.95 L108.85 35.8 Q110.7 38.7 108.6 41.45 L105.15 41.65 Q104.7 40.35 105.35 39.05 L106.9 37.3 107.55 35.35 107.1 34.95 M112.55 58.6 L114.05 58.6 115.15 59.7 Q115.9 63.5 113.85 65.8 L113.6 65.8 Q110.75 64.6 109.7 61.85 L109.7 60.35 112.55 58.6 M100.25 42.8 L100.25 44.2 97.75 46.35 Q93.55 46.85 90.6 44.55 L90.95 44.4 Q94.75 43.0 99.2 43.15 L100.25 42.8" fill="#ebdabe" fill-rule="evenodd" stroke="none"/>
    <path d="M89.05 35.65 L85.9 40.7 85.85 40.8 79.9 39.95 80.65 36.1 89.05 35.65 M93.6 40.4 L96.05 36.8 99.7 39.15 95.25 40.15 95.35 40.05 93.6 40.4" fill="#493216" fill-rule="evenodd" stroke="none"/>
    <path d="M120.85 4.35 L118.2 0.05 117.35 0.05 113.0 0.0 110.4 0.0 95.85 24.45 93.1 29.1 92.0 30.9 89.05 35.65 85.9 40.7 M93.6 40.4 L96.05 36.8 100.15 30.75 103.3 26.4 105.1 23.85 110.15 18.95 121.85 5.95 120.85 4.35 M68.55 28.3 L68.9 28.1 Q76.8 23.85 88.0 23.85 L95.85 24.45 M103.3 26.4 Q105.3 27.1 107.1 28.1 114.55 32.1 115.0 37.65 L115.0 38.35 Q115.0 42.25 111.65 45.45 L112.0 45.75 113.5 47.3 Q121.8 56.65 121.8 69.4 121.8 74.4 120.55 78.85 118.9 84.5 115.25 89.35 L112.25 92.8 112.15 92.85 M112.0 92.85 L111.75 92.85 Q106.85 96.2 100.9 97.9 L99.55 98.25 Q94.35 99.5 88.35 99.55 L87.7 99.55 Q74.45 99.35 65.0 92.85 L64.75 92.85 M64.6 92.85 Q62.35 90.6 60.6 88.1 57.6 83.8 56.2 78.85 54.9 74.4 54.95 69.4 54.9 59.2 60.2 51.25 62.1 48.35 64.75 45.75 61.0 42.45 61.0 38.35 61.0 37.5 61.15 36.75 62.05 31.9 68.55 28.3 M111.65 45.45 Q109.85 47.1 107.1 48.6 99.2 52.85 88.0 52.85 76.8 52.85 68.9 48.6 66.5 47.3 64.85 45.85 L64.75 45.75" fill="none" stroke="#3d2c12" stroke-linecap="round" stroke-linejoin="round" stroke-width="1.0"/>
  </g>
</svg>
