<?xml version="1.0" encoding="UTF-8" standalone="no"?>
<svg xmlns:xlink="http://www.w3.org/1999/xlink" height="66.8px" width="118.1px" xmlns="http://www.w3.org/2000/svg">
  <g transform="matrix(1.0, 0.0, 0.0, 1.0, 10.8, -40.4)">
    <path d="M13.95 43.65 L33.3 45.7 36.65 57.2 39.85 89.55 39.3 89.6 20.0 88.15 39.3 89.6 39.85 89.55 40.15 92.6 41.35 104.55 25.1 106.05 20.9 91.25 20.0 88.15 19.1 85.05 15.35 85.05 14.75 54.8 14.5 53.3 14.4 53.6 14.5 52.85 13.95 43.65 M40.15 92.6 L39.5 92.7 20.9 91.25 39.5 92.7 40.15 92.6" fill="#b9a48c" fill-rule="evenodd" stroke="none"/>
    <path d="M-4.15 92.1 L-4.2 91.2 -4.9 56.3 -10.3 44.35 -2.05 47.2 Q-4.95 42.4 -1.0 42.65 L13.95 43.65 14.5 52.85 14.4 53.6 14.5 53.3 14.75 54.8 15.35 85.05 15.45 88.6 15.5 92.35 15.45 92.35 15.5 92.35 15.45 92.35 15.5 92.35 15.8 105.75 2.1 105.55 9.05 101.15 -3.4 91.45 -3.9 92.1 -2.4 94.75 -0.5 103.8 -3.9 105.0 -3.95 105.0 -3.95 103.25 -3.9 92.1 -4.15 92.1 M104.0 72.55 L103.6 105.55 82.5 105.5 78.45 101.45 79.65 94.85 80.35 91.1 86.5 57.2 88.25 53.85 Q96.45 52.45 95.9 52.0 L96.05 51.95 99.75 57.2 102.8 69.8 Q103.2 74.0 103.75 77.05 L104.0 72.55 M103.45 90.6 L80.35 91.1 103.45 90.6 M-3.65 88.1 L15.45 88.6 -3.65 88.1 M103.2 93.55 L79.65 94.85 103.2 93.55 M15.45 92.35 L-4.2 91.2 15.45 92.35" fill="#b19f7b" fill-rule="evenodd" stroke="none"/>
    <path d="M53.5 45.1 L54.1 44.5 Q54.8 44.55 56.45 45.45 L53.5 45.1" fill="#dacebc" fill-rule="evenodd" stroke="none"/>
    <path d="M33.3 45.7 L40.1 45.45 43.1 53.85 44.1 53.85 53.5 45.1 56.45 45.45 55.85 57.2 55.3 87.1 55.3 87.15 39.85 89.55 55.3 87.15 55.25 90.05 40.15 92.6 55.25 90.05 54.95 106.45 41.35 104.55 40.15 92.6 39.85 89.55 36.65 57.2 33.3 45.7" fill="#dccfc0" fill-rule="evenodd" stroke="none"/>
    <path d="M78.1 50.6 L79.1 43.45 84.15 43.35 90.9 47.95 87.9 53.9 87.8 54.05 87.6 53.95 81.4 51.4 78.1 50.6" fill="#d1c4ad" fill-rule="evenodd" stroke="none"/>
    <path d="M56.45 45.45 L75.1 44.55 78.1 50.6 81.4 51.4 87.6 53.95 87.8 54.05 87.9 53.9 88.15 53.85 88.4 53.55 88.25 53.85 86.5 57.2 80.35 91.1 79.65 94.85 78.95 94.9 55.25 90.05 78.95 94.9 79.65 94.85 78.45 101.45 72.1 95.1 73.85 106.7 54.95 106.45 55.25 90.05 55.3 87.15 55.3 87.1 55.85 57.2 56.45 45.45 M55.3 87.1 L80.35 91.1 55.3 87.1" fill="#b9a88c" fill-rule="evenodd" stroke="none"/>
    <path d="M91.25 43.2 L88.65 40.9 100.2 41.9 100.2 50.95 91.25 43.2 M-3.95 103.25 L-4.15 92.1 -3.9 92.1 -3.95 103.25 M-0.5 103.8 L-2.4 94.75 Q-0.1 98.25 4.35 102.1 L-0.5 103.8 M90.9 47.95 L95.4 51.05 96.05 51.95 95.9 52.0 Q96.45 52.45 88.25 53.85 L88.4 53.55 88.15 53.85 87.9 53.9 90.9 47.95" fill="#c9bb9c" fill-rule="evenodd" stroke="none"/>
    <path d="M84.15 43.35 L91.25 43.2 100.2 50.95 101.65 52.2 101.7 53.3 101.75 53.8 Q101.8 55.55 102.0 57.1 L102.0 57.2 Q102.3 64.45 102.8 69.8 L99.75 57.2 96.05 51.95 95.4 51.05 90.9 47.95 84.15 43.35 M2.1 105.55 L-3.9 105.45 -3.9 105.0 -0.5 103.8 4.35 102.1 Q-0.1 98.25 -2.4 94.75 L-3.9 92.1 -3.4 91.45 9.05 101.15 2.1 105.55" fill="#9f845c" fill-rule="evenodd" stroke="none"/>
    <path d="M19.4 88.15 L21.1 105.85 15.8 105.75 15.5 92.35 15.45 88.6 18.8 88.1 15.45 88.6 15.35 85.05 19.1 85.05 19.4 88.15 M18.9 91.85 L15.5 92.35 18.9 91.85" fill="#d1c0ad" fill-rule="evenodd" stroke="none"/>
    <path d="M100.2 41.9 L100.85 41.95 104.15 43.55 102.0 57.1 Q101.8 55.55 101.75 53.8 L101.7 53.3 101.65 52.2 100.2 50.95 100.2 41.9" fill="#ae966f" fill-rule="evenodd" stroke="none"/>
    <path d="M104.15 43.55 L106.8 44.85 104.85 57.2 104.0 72.55 103.75 77.05 Q103.2 74.0 102.8 69.8 102.3 64.45 102.0 57.2 L102.0 57.1 104.15 43.55" fill="#9f8559" fill-rule="evenodd" stroke="none"/>
    <path d="M-4.15 92.1 L-4.2 91.2 -4.9 56.3 -10.3 44.35 -2.05 47.2 Q-4.95 42.4 -1.0 42.65 L13.95 43.65 33.3 45.7 40.1 45.45 43.1 53.85 M44.1 53.85 L53.5 45.1 54.1 44.5 Q54.8 44.55 56.45 45.45 L75.1 44.55 78.1 50.6 79.1 43.45 84.15 43.35 91.25 43.2 88.65 40.9 100.2 41.9 100.85 41.95 104.15 43.55 106.8 44.85 104.85 57.2 104.0 72.55 103.6 105.55 82.5 105.5 78.45 101.45 72.1 95.1 73.85 106.7 54.95 106.45 41.35 104.55 25.1 106.05 20.9 91.25 20.0 88.15 19.1 85.05 19.4 88.15 21.1 105.85 15.8 105.75 2.1 105.55 -3.9 105.45 -3.9 105.0 -3.95 105.0 -3.95 103.25 -4.15 92.1 M-2.4 94.75 L-3.9 92.1 -3.95 103.25 M-3.9 105.0 L-0.5 103.8 M102.8 69.8 Q102.3 64.45 102.0 57.2 L102.0 57.1 M102.8 69.8 Q103.2 74.0 103.75 77.05 L104.0 72.55" fill="none" stroke="#595916" stroke-linecap="round" stroke-linejoin="round" stroke-opacity="0.3137255" stroke-width="1.0"/>
    <path d="M-2.4 94.75 Q-0.1 98.25 4.35 102.1 L-0.5 103.8 M100.2 50.95 L101.65 52.2 101.7 53.3 101.75 53.8 Q101.8 55.55 102.0 57.1 M100.2 50.95 L91.25 43.2" fill="none" stroke="#5b4935" stroke-linecap="round" stroke-linejoin="round" stroke-width="0.05"/>
    <path d="M20.0 88.15 L19.4 88.15 M20.0 88.15 L39.3 89.6 39.85 89.55 M15.5 92.35 L15.45 92.35 15.5 92.35 18.9 91.85 M15.45 88.6 L18.8 88.1 M20.9 91.25 L39.5 92.7 40.15 92.6 M55.25 90.05 L78.95 94.9 79.65 94.85 M80.35 91.1 L55.3 87.1" fill="none" stroke="#0183a3" stroke-linecap="round" stroke-linejoin="round" stroke-width="1.0"/>
    <path d="M39.85 89.55 L55.3 87.15 M40.15 92.6 L55.25 90.05" fill="none" stroke="#02a3b9" stroke-linecap="round" stroke-linejoin="round" stroke-width="1.0"/>
    <path d="M80.35 91.1 L103.45 90.6 M15.45 88.6 L-3.65 88.1 M79.65 94.85 L103.2 93.55 M-4.2 91.2 L15.45 92.35" fill="none" stroke="#016472" stroke-linecap="round" stroke-linejoin="round" stroke-width="1.0"/>
  </g>
</svg>
