<?xml version="1.0" encoding="UTF-8" standalone="no"?>
<svg xmlns:xlink="http://www.w3.org/1999/xlink" height="129.25px" width="131.0px" xmlns="http://www.w3.org/2000/svg">
  <g transform="matrix(1.0, 0.0, 0.0, 1.0, 65.5, 64.55)">
    <path d="M-1.05 -45.6 Q-4.15 -56.05 -8.7 -44.8 L-11.95 -45.55 Q-15.2 -53.7 -19.65 -49.55 -24.25 -62.1 -26.9 -49.45 -29.6 -54.7 -35.2 -49.0 L-35.2 -58.6 -25.15 -59.25 Q-18.0 -59.25 -11.95 -58.05 -6.55 -57.0 -2.05 -54.95 L-0.8 -54.35 -0.8 -45.6 -1.05 -45.6" fill="#83832c" fill-rule="evenodd" stroke="none"/>
    <path d="M-35.2 -49.0 Q-29.6 -54.7 -26.9 -49.45 -24.25 -62.1 -19.65 -49.55 -15.2 -53.7 -11.95 -45.55 L-8.7 -44.8 Q-4.15 -56.05 -1.05 -45.6 L-0.8 -45.45 2.75 -43.35 Q3.35 -41.5 2.45 -39.85 L4.5 -38.15 Q2.1 -35.95 -2.05 -34.1 -11.6 -29.75 -25.15 -29.75 -38.75 -29.75 -48.35 -34.1 -52.75 -36.1 -55.1 -38.45 L-53.2 -40.0 Q-52.2 -43.1 -49.65 -45.9 -42.7 -48.95 -35.2 -49.0" fill="#000000" fill-rule="evenodd" stroke="none"/>
    <path d="M-0.8 -54.35 L-2.05 -54.95 Q-6.55 -57.0 -11.95 -58.05 -18.0 -59.25 -25.15 -59.25 L-35.2 -58.6 Q-42.5 -57.55 -48.35 -54.95 -57.9 -50.6 -57.9 -44.5 -57.9 -41.2 -55.1 -38.45 -52.75 -36.1 -48.35 -34.1 -38.75 -29.75 -25.15 -29.75 -11.6 -29.75 -2.05 -34.1 2.1 -35.95 4.5 -38.15 7.55 -41.05 7.6 -44.5 7.55 -50.2 -0.8 -54.35 M-64.75 -42.0 L-64.9 -43.05 -64.9 -44.95 -64.75 -46.25 Q-63.4 -53.2 -53.25 -58.3 L-48.3 -60.45 Q-38.15 -64.15 -24.95 -64.15 -14.4 -64.15 -5.8 -61.75 -0.9 -60.45 3.35 -58.3 14.9 -52.5 15.05 -44.35 L15.05 -43.9 Q15.0 -40.5 12.9 -37.45 L11.65 -35.9 9.95 -36.55 Q9.45 -37.0 9.6 -36.15 L9.75 -35.25 10.35 -34.6 7.35 -32.35 7.3 -32.3 3.35 -30.05 Q-1.0 -27.9 -5.95 -26.5 L-7.65 -26.05 -8.4 -26.15 -8.3 -25.9 -15.9 -24.6 Q-16.1 -25.4 -17.1 -26.0 L-18.2 -26.7 -17.55 -24.45 -24.95 -24.15 -35.2 -24.75 Q-45.3 -26.05 -53.25 -30.05 -56.05 -31.45 -58.15 -32.95 -61.1 -35.05 -62.75 -37.45 -64.3 -39.65 -64.75 -42.0" fill="#afaf3a" fill-rule="evenodd" stroke="none"/>
    <path d="M-0.8 -45.6 L-0.8 -54.35 Q7.55 -50.2 7.6 -44.5 7.55 -41.05 4.5 -38.15 L2.45 -39.85 Q3.35 -41.5 2.75 -43.35 L-0.8 -45.45 -0.8 -45.6 M15.05 -43.9 L15.05 -30.45 14.6 -27.55 Q13.75 -24.7 11.25 -22.1 L10.8 -21.65 Q9.35 -20.25 7.35 -18.95 L7.35 -32.3 7.35 -32.35 10.35 -34.6 10.9 -33.95 12.35 -35.6 11.65 -35.9 12.9 -37.45 Q15.0 -40.5 15.05 -43.9 M-60.4 -21.35 Q-64.0 -24.7 -64.75 -28.6 L-64.95 -30.75 -64.95 -31.25 -64.9 -31.8 -64.9 -42.0 -64.75 -42.0 Q-64.3 -39.65 -62.75 -37.45 -61.1 -35.05 -58.15 -32.95 -56.05 -31.45 -53.25 -30.05 -45.3 -26.05 -35.2 -24.75 L-35.2 -11.35 -39.5 -12.05 Q-47.05 -13.55 -53.25 -16.65 L-54.25 -17.15 Q-57.95 -19.15 -60.4 -21.35" fill="#6b6b23" fill-rule="evenodd" stroke="none"/>
    <path d="M-1.05 -45.6 L-0.8 -45.6 -0.8 -45.45 -1.05 -45.6" fill="#5a5a5a" fill-rule="evenodd" stroke="none"/>
    <path d="M-35.2 -58.6 L-35.2 -49.0 Q-42.7 -48.95 -49.65 -45.9 -52.2 -43.1 -53.2 -40.0 L-55.1 -38.45 Q-57.9 -41.2 -57.9 -44.5 -57.9 -50.6 -48.35 -54.95 -42.5 -57.55 -35.2 -58.6" fill="#a3a336" fill-rule="evenodd" stroke="none"/>
    <path d="M-35.2 -24.75 L-24.95 -24.15 -17.55 -24.45 -17.1 -22.25 -17.1 -22.1 Q-15.6 -23.55 -15.9 -24.6 L-8.3 -25.9 -7.65 -24.1 Q-7.05 -24.45 -7.15 -25.4 L-7.3 -26.0 -7.65 -26.05 -5.95 -26.5 Q-1.0 -27.9 3.35 -30.05 L7.3 -32.3 7.35 -32.3 7.35 -18.95 4.35 -17.15 3.35 -16.65 Q-0.05 -14.95 -3.8 -13.7 L-6.2 -18.5 -5.85 -13.1 -5.95 -13.1 -7.9 -12.6 -13.25 -11.55 -14.65 -11.35 -14.7 -11.6 -13.65 -17.0 -16.1 -11.2 -24.95 -10.75 -35.2 -11.35 -35.2 -24.75" fill="#9b9a33" fill-rule="evenodd" stroke="none"/>
    <path d="M10.8 -21.65 L9.9 -11.7 3.1 -3.0 4.35 -17.15 7.35 -18.95 Q9.35 -20.25 10.8 -21.65 M-59.35 -8.9 L-60.4 -21.35 Q-57.95 -19.15 -54.25 -17.15 L-53.35 -4.1 -59.35 -8.9" fill="#3f2701" fill-rule="evenodd" stroke="none"/>
    <path d="M-51.0 31.55 Q-55.25 28.7 -56.45 25.2 L-59.35 -8.9 -53.35 -4.1 -54.25 -17.15 -53.25 -16.65 Q-47.05 -13.55 -39.5 -12.05 L-38.9 0.9 -53.35 -4.1 -51.0 31.55 M-3.8 -13.7 Q-0.05 -14.95 3.35 -16.65 L4.35 -17.15 3.1 -3.0 -8.85 1.1 -7.9 -12.6 -5.95 -13.1 -5.85 -13.1 -3.8 -13.7" fill="#4e3101" fill-rule="evenodd" stroke="none"/>
    <path d="M-38.9 0.9 L-39.5 -12.05 -35.2 -11.35 -24.95 -10.75 -16.1 -11.2 -14.7 -11.35 -14.65 -11.35 -13.25 -11.55 -13.25 1.1 -13.25 -11.55 -7.9 -12.6 -8.85 1.1 -13.25 1.1 -38.9 0.9" fill="#5f3a01" fill-rule="evenodd" stroke="none"/>
    <path d="M-37.25 37.05 Q-41.4 36.2 -45.05 34.7 L-47.6 33.55 -51.0 31.55 -53.35 -4.1 -38.9 0.9 -37.25 37.05 M-45.05 18.1 L-45.05 34.7 -45.05 18.1" fill="#665333" fill-rule="evenodd" stroke="none"/>
    <path d="M-17.55 -24.45 L-18.2 -26.7 -17.1 -26.0 Q-16.1 -25.4 -15.9 -24.6 -15.6 -23.55 -17.1 -22.1 L-17.1 -22.25 -17.55 -24.45 M-8.3 -25.9 L-8.4 -26.15 -7.65 -26.05 -7.3 -26.0 -7.15 -25.4 Q-7.05 -24.45 -7.65 -24.1 L-8.3 -25.9 M10.35 -34.6 L9.75 -35.25 9.6 -36.15 Q9.45 -37.0 9.95 -36.55 L11.65 -35.9 12.35 -35.6 10.9 -33.95 10.35 -34.6" fill="#c7c658" fill-rule="evenodd" stroke="none"/>
    <path d="M7.3 -32.3 L7.35 -32.35 7.35 -32.3 7.3 -32.3" fill="#c6ccce" fill-rule="evenodd" stroke="none"/>
    <path d="M-14.7 -11.35 L-16.1 -11.2 -13.65 -17.0 -14.7 -11.6 -14.7 -11.35 M-3.8 -13.7 L-5.85 -13.1 -6.2 -18.5 -3.8 -13.7" fill="#422522" fill-rule="evenodd" stroke="none"/>
    <path d="M-14.65 -11.35 L-14.7 -11.35 -14.7 -11.6 -14.65 -11.35" fill="#94574b" fill-rule="evenodd" stroke="none"/>
    <path d="M-11.35 36.8 L-15.55 37.6 -16.95 37.8 -22.75 35.8 -19.6 38.05 -24.95 38.25 -28.3 38.2 -37.25 37.05 -38.9 0.9 -13.25 1.1 -8.85 1.1 -11.35 36.8 M-20.4 34.95 L-24.65 33.75 -20.75 35.7 -20.4 34.95 M-28.3 13.05 L-28.3 38.2 -28.3 13.05 M-13.25 15.75 L-13.25 1.1 -13.25 15.75" fill="#78623d" fill-rule="evenodd" stroke="none"/>
    <path d="M9.9 -11.7 L6.6 25.05 Q5.25 29.1 -0.1 32.3 L3.1 -3.0 9.9 -11.7" fill="#745e3a" fill-rule="evenodd" stroke="none"/>
    <path d="M-0.1 32.3 L-2.3 33.55 Q-6.45 35.6 -11.35 36.8 L-8.85 1.1 3.1 -3.0 -0.1 32.3" fill="#8d7347" fill-rule="evenodd" stroke="none"/>
    <path d="M-16.95 37.8 L-19.6 38.05 -22.75 35.8 -16.95 37.8 M-20.4 34.95 L-20.75 35.7 -24.65 33.75 -20.4 34.95" fill="#ffffff" fill-rule="evenodd" stroke="none"/>
    <path d="M-35.2 -49.0 Q-29.6 -54.7 -26.9 -49.45 -24.25 -62.1 -19.65 -49.55 -15.2 -53.7 -11.95 -45.55 L-8.7 -44.8 Q-4.15 -56.05 -1.05 -45.6 M-35.2 -49.0 Q-42.7 -48.95 -49.65 -45.9 -52.2 -43.1 -53.2 -40.0 L-55.1 -38.45 M4.5 -38.15 L2.45 -39.85 Q3.35 -41.5 2.75 -43.35 L-0.8 -45.45" fill="none" stroke="#424242" stroke-linecap="round" stroke-linejoin="round" stroke-width="1.0"/>
    <path d="M-13.25 1.1 L-13.25 -11.55 M-28.3 38.2 L-28.3 13.05 M-45.05 34.7 L-45.05 18.1 M-13.25 1.1 L-13.25 15.75" fill="none" stroke="#633e01" stroke-linecap="round" stroke-linejoin="round" stroke-width="0.05"/>
    <path d="M15.0 -44.25 L15.0 -30.35 Q14.95 -28.9 14.55 -27.45 13.6 -24.3 10.75 -21.55 L6.55 25.15 Q5.2 29.2 -0.15 32.4 L-2.35 33.65 Q-6.5 35.7 -11.4 36.9 -17.6 38.35 -25.0 38.35 -31.65 38.35 -37.3 37.15 -42.95 36.0 -47.65 33.65 L-51.05 31.65 Q-55.3 28.8 -56.5 25.3 L-60.45 -21.25 Q-64.05 -24.6 -64.8 -28.5 L-65.0 -30.65 -65.0 -31.15 -64.95 -31.7 -64.95 -41.9 -64.8 -41.9 -64.95 -42.95 -64.95 -44.85 -64.8 -46.15 Q-63.45 -53.1 -53.3 -58.2 -41.55 -64.05 -25.0 -64.05 -8.45 -64.05 3.3 -58.2 14.85 -52.4 15.0 -44.25 Z" fill="none" stroke="#000000" stroke-linecap="round" stroke-linejoin="round" stroke-width="1.0"/>
    <path d="M-9.35 -39.95 L-8.55 -39.8 M-7.0 -39.45 L-6.25 -39.3 M-43.35 -38.2 L-41.55 -38.75 M-46.15 -37.3 L-44.9 -37.7 M-39.15 -39.45 Q-24.05 -43.95 -11.15 -40.25" fill="none" stroke="#555555" stroke-linecap="round" stroke-linejoin="round" stroke-width="1.0"/>
    <path d="M-50.4 -40.8 L-52.6 -53.0 -62.2 -53.15 Q-57.35 -58.3 -53.05 -60.45 L-49.55 -61.75 Q-40.4 -63.15 -39.3 -60.45 -38.9 -59.35 -39.8 -57.55 -38.15 -53.05 -38.15 -48.9 L-38.1 -44.8 -50.4 -40.8 M-52.15 -56.65 Q-47.35 -59.0 -45.1 -58.95 -42.85 -58.9 -42.6 -58.5 -42.35 -58.1 -42.35 -58.45 -42.35 -58.8 -43.85 -59.6 -45.35 -60.4 -47.5 -60.15 L-51.15 -59.35 Q-52.65 -58.8 -54.8 -56.55 -56.95 -54.3 -52.15 -56.65 M-32.95 -17.25 L-36.9 -22.05 -37.7 -10.2 Q-43.45 18.0 -48.65 -14.15 L-50.1 -28.45 Q-62.35 -38.35 -43.3 -32.0 L-29.4 -29.9 -32.55 -26.4 -32.95 -17.25 M5.3 -27.0 L5.0 -28.3 Q4.7 -28.85 4.25 -28.85 3.8 -28.85 3.5 -28.3 3.2 -27.75 3.2 -27.0 3.2 -26.25 3.5 -25.7 3.8 -25.15 4.25 -25.15 4.7 -25.15 5.0 -25.7 L5.3 -27.0 M-42.1 -22.5 Q-42.1 -24.75 -42.55 -24.75 -43.0 -24.75 -43.6 -22.7 -44.2 -20.65 -44.15 -17.45 -44.1 -14.25 -43.55 -11.9 L-43.3 -10.9 -42.9 -14.9 Q-42.1 -20.3 -42.1 -22.5 M2.55 -37.5 L2.6 -37.55 2.65 -37.5 9.0 -33.1 Q5.15 14.35 2.7 -22.9 L-5.05 -33.75 2.55 -37.5" fill="#000000" fill-rule="evenodd" stroke="none"/>
    <path d="M-52.15 -56.65 Q-56.95 -54.3 -54.8 -56.55 -52.65 -58.8 -51.15 -59.35 L-47.5 -60.15 Q-45.35 -60.4 -43.85 -59.6 -42.35 -58.8 -42.35 -58.45 -42.35 -58.1 -42.6 -58.5 -42.85 -58.9 -45.1 -58.95 -47.35 -59.0 -52.15 -56.65 M-42.1 -22.5 Q-42.1 -20.3 -42.9 -14.9 L-43.3 -10.9 -43.55 -11.9 Q-44.1 -14.25 -44.15 -17.45 -44.2 -20.65 -43.6 -22.7 -43.0 -24.75 -42.55 -24.75 -42.1 -24.75 -42.1 -22.5 M5.3 -27.0 L5.0 -25.7 Q4.7 -25.15 4.25 -25.15 3.8 -25.15 3.5 -25.7 3.2 -26.25 3.2 -27.0 3.2 -27.75 3.5 -28.3 3.8 -28.85 4.25 -28.85 4.7 -28.85 5.0 -28.3 L5.3 -27.0" fill="#ffffff" fill-rule="evenodd" stroke="none"/>
    <path d="M-38.1 -44.8 L-38.15 -48.9 Q-38.15 -53.05 -39.8 -57.55 -38.9 -59.35 -39.3 -60.45 -40.4 -63.15 -49.55 -61.75 L-53.05 -60.45 Q-57.35 -58.3 -62.2 -53.15 L-52.6 -53.0 -50.4 -40.8 M-38.1 -44.8 L-37.15 -48.45 M-32.95 -17.25 L-32.55 -26.4 -29.4 -29.9 -43.3 -32.0 Q-62.35 -38.35 -50.1 -28.45 L-48.65 -14.15 Q-43.45 18.0 -37.7 -10.2 L-36.9 -22.05 -32.95 -17.25 M2.55 -37.5 L-5.05 -33.75 2.7 -22.9 Q5.15 14.35 9.0 -33.1 L2.65 -37.5 2.6 -37.55 2.55 -37.5 Z" fill="none" stroke="#424242" stroke-linecap="round" stroke-linejoin="round" stroke-width="1.0"/>
    <path d="M4.7 34.9 L2.45 36.05 -0.7 37.6 2.45 36.05 4.7 34.9 M-19.75 30.7 L-7.75 26.35 -5.8 27.25 -16.75 31.7 -5.8 27.25 15.8 37.4 17.8 38.35 6.9 45.4 7.65 43.05 9.0 38.65 2.8 42.05 2.65 41.8 -0.45 39.15 -2.3 37.6 -1.6 34.05 -10.4 36.15 -4.75 31.95 -10.9 33.7 -11.75 33.4 -4.35 30.05 -11.75 33.4 -15.2 32.25 -15.95 32.0 -16.75 31.7 -19.75 30.7 M-6.75 30.05 L-15.2 32.25 -6.75 30.05 M2.45 36.05 L-0.45 39.15 2.45 36.05 M7.65 43.05 L15.8 37.4 7.65 43.05 M-6.75 34.3 L1.1 31.25 -6.75 34.3 M21.05 36.25 L21.0 36.25 20.95 36.15 21.05 36.25" fill="#cccc66" fill-rule="evenodd" stroke="none"/>
    <path d="M8.35 16.2 L11.05 13.75 8.35 16.2 M-6.85 20.0 L7.55 12.2 11.05 13.75 21.3 18.3 26.7 20.65 26.9 20.75 31.85 22.95 41.8 27.35 29.7 34.05 29.35 34.25 23.75 34.25 23.65 34.45 7.7 26.9 -6.85 20.0 M17.4 23.1 L7.7 26.9 17.4 23.1" fill="#876d43" fill-rule="evenodd" stroke="none"/>
    <path d="M17.15 55.85 L12.2 61.2 3.35 64.05 -10.05 57.7 -8.3 53.45 -13.9 55.2 -19.55 51.35 -28.0 47.1 -30.85 37.95 -31.05 37.75 -25.6 32.3 -25.25 32.65 -19.75 30.7 -16.75 31.7 -15.95 32.0 -15.2 32.25 -11.75 33.4 -10.9 33.7 -4.75 31.95 -10.4 36.15 -1.6 34.05 -2.3 37.6 -0.45 39.15 2.65 41.8 2.8 42.05 9.0 38.65 7.65 43.05 6.9 45.4 6.2 47.8 14.25 44.3 14.65 45.0 16.6 48.55 16.75 48.85 17.15 55.85 M-20.4 34.95 L-24.65 33.75 -20.75 35.7 -20.4 34.95 M-11.75 33.4 L-13.1 34.0 -11.75 33.4 M-8.6 42.55 L-5.3 45.15 -2.75 43.45 -8.6 42.55 M14.65 45.0 L13.45 45.75 14.65 45.0 M7.1 54.15 L7.35 55.8 10.45 51.55 7.1 54.15 M16.6 48.55 L15.55 49.65 16.6 48.55" fill="#000000" fill-rule="evenodd" stroke="none"/>
    <path d="M-20.4 34.95 L-20.75 35.7 -24.65 33.75 -20.4 34.95 M-8.6 42.55 L-2.75 43.45 -5.3 45.15 -8.6 42.55 M7.1 54.15 L10.45 51.55 7.35 55.8 7.1 54.15" fill="#ffffff" fill-rule="evenodd" stroke="none"/>
    <path d="M24.2 47.8 L24.15 48.15 17.15 55.85 16.75 48.85 16.6 48.55 14.65 45.0 14.25 44.3 6.2 47.8 6.9 45.4 17.8 38.35 15.8 37.4 -5.8 27.25 -7.75 26.35 -6.65 25.95 -4.0 25.0 18.9 35.25 20.95 36.15 21.0 36.25 21.05 36.25 24.5 40.1 24.2 47.8 M19.8 45.15 L16.6 48.55 19.8 45.15 M15.8 37.4 L18.9 35.25 15.8 37.4 M20.4 41.2 L14.65 45.0 20.4 41.2" fill="#afaf3a" fill-rule="evenodd" stroke="none"/>
    <path d="M27.3 49.5 L24.2 47.8 24.5 40.1 21.05 36.25 20.95 36.15 18.9 35.25 -4.0 25.0 -6.65 25.95 -6.85 20.0 7.7 26.9 23.65 34.45 23.75 34.45 23.75 34.5 26.95 39.15 27.0 39.75 27.3 49.5" fill="#3f2701" fill-rule="evenodd" stroke="none"/>
    <path d="M21.3 18.3 L41.8 4.8 52.7 -5.1 54.15 -4.95 Q52.55 -3.85 51.7 -2.65 L51.55 -2.55 Q54.75 -2.8 59.0 -4.45 L59.75 -4.4 60.5 -3.3 59.85 -2.85 59.3 -2.4 56.8 0.05 Q56.35 0.55 56.15 1.35 L56.0 1.55 Q54.45 2.35 53.0 3.3 L54.95 2.5 56.0 1.55 Q58.9 -0.1 62.0 -1.1 L63.35 0.9 56.4 8.1 26.9 20.75 26.7 20.65 21.3 18.3 M49.95 3.5 L59.3 -2.4 49.95 3.5 M43.65 11.65 L27.05 20.1 43.65 11.65" fill="#a78652" fill-rule="evenodd" stroke="none"/>
    <path d="M54.15 -4.95 L59.0 -4.45 Q54.75 -2.8 51.55 -2.55 L51.7 -2.65 Q52.55 -3.85 54.15 -4.95 M60.5 -3.3 L62.0 -1.1 Q58.9 -0.1 56.0 1.55 L54.95 2.5 53.0 3.3 Q54.45 2.35 56.0 1.55 L56.15 1.35 Q56.35 0.55 56.8 0.05 L59.3 -2.4 59.85 -2.85 60.5 -3.3 M63.35 0.9 L65.05 3.4 64.35 10.45 53.75 13.65 36.85 20.0 31.85 22.95 26.9 20.75 56.4 8.1 63.35 0.9" fill="#665333" fill-rule="evenodd" stroke="none"/>
    <path d="M23.75 34.45 L23.65 34.45 23.75 34.25 23.75 34.45" fill="#d78702" fill-rule="evenodd" stroke="none"/>
    <path d="M23.75 34.5 L23.75 34.45 23.75 34.25 23.75 34.5" fill="#fcb847" fill-rule="evenodd" stroke="none"/>
    <path d="M23.75 34.5 L23.75 34.25 29.35 34.25 29.8 34.25 27.35 39.75 26.95 39.15 23.75 34.5 M26.85 35.65 L26.6 35.8 26.85 35.8 26.85 35.65" fill="#dfd2bf" fill-rule="evenodd" stroke="none"/>
    <path d="M29.7 34.05 L29.8 34.25 29.35 34.25 29.7 34.05 M27.35 39.75 L27.0 39.75 26.95 39.15 27.35 39.75" fill="#895501" fill-rule="evenodd" stroke="none"/>
    <path d="M41.8 27.35 L41.05 42.15 Q34.5 46.0 28.0 49.9 L27.3 49.5 27.0 39.75 27.35 39.75 29.8 34.25 29.7 34.05 41.8 27.35 M37.0 36.7 L40.0 34.9 37.0 36.7" fill="#645131" fill-rule="evenodd" stroke="none"/>
    <path d="M-0.7 37.6 L2.45 36.05 4.7 34.9 M-15.2 32.25 L-6.75 30.05 M-16.75 31.7 L-5.8 27.25 M-11.75 33.4 L-4.35 30.05 M-13.1 34.0 L-11.75 33.4 M-0.45 39.15 L2.45 36.05 M16.6 48.55 L19.8 45.15 M15.8 37.4 L7.65 43.05 M13.45 45.75 L14.65 45.0 20.4 41.2 M15.55 49.65 L16.6 48.55 M1.1 31.25 L-6.75 34.3 M18.9 35.25 L15.8 37.4" fill="none" stroke="#83832c" stroke-linecap="round" stroke-linejoin="round" stroke-width="0.05"/>
    <path d="M11.05 13.75 L8.35 16.2 M7.7 26.9 L17.4 23.1 M59.3 -2.4 L49.95 3.5 M59.85 -2.85 L59.3 -2.4 M40.0 34.9 L37.0 36.7 M27.05 20.1 L43.65 11.65" fill="none" stroke="#633e01" stroke-linecap="round" stroke-linejoin="round" stroke-width="0.05"/>
    <path d="M-15.95 32.0 L-15.2 32.25 -11.75 33.4 -10.9 33.7 -4.75 31.95 -10.4 36.15 -1.6 34.05 -2.3 37.6 -0.45 39.15 2.65 41.8 2.8 42.05 9.0 38.65 7.65 43.05 6.9 45.4 6.2 47.8 14.25 44.3 14.65 45.0 16.6 48.55 16.75 48.85 17.15 55.85 M-19.75 30.7 L-16.75 31.7" fill="none" stroke="#424242" stroke-linecap="round" stroke-linejoin="round" stroke-width="1.0"/>
    <path d="M26.9 20.75 L31.85 22.95 M21.3 18.3 L26.7 20.65" fill="none" stroke="#000000" stroke-linecap="round" stroke-linejoin="round" stroke-width="1.0"/>
    <path d="M-6.75 26.1 L-25.3 32.8 -25.7 32.45 -31.15 37.95 -30.95 38.1 -28.1 47.25 -19.65 51.5 -14.0 55.35 -8.35 53.6 -10.15 57.85 3.25 64.2 12.1 61.35 24.05 48.3 24.1 47.95 27.9 50.05 40.95 42.3 41.7 27.5 31.75 23.1 36.75 20.15 53.65 13.8 64.25 10.6 65.0 3.55 59.65 -4.25 52.6 -4.95 41.7 4.95 21.2 18.45 7.45 12.35 -6.95 20.15 -6.75 26.1 Z" fill="none" stroke="#000000" stroke-linecap="round" stroke-linejoin="round" stroke-width="1.0"/>
  </g>
</svg>
