<?xml version="1.0" encoding="UTF-8" standalone="no"?>
<svg xmlns:xlink="http://www.w3.org/1999/xlink" height="99.75px" width="186.5px" xmlns="http://www.w3.org/2000/svg">
  <g transform="matrix(1.0, 0.0, 0.0, 1.0, -90.45, -202.5)">
    <path d="M147.5 211.65 L162.0 210.9 Q174.4 211.7 178.55 217.15 179.4 218.25 179.9 219.55 181.7 224.1 178.7 229.45 176.65 233.1 172.35 237.1 168.15 241.05 162.8 244.4 166.25 245.05 169.95 246.3 174.25 248.2 175.9 252.65 175.45 249.6 173.4 247.55 L173.35 247.55 173.4 247.55 Q172.1 246.3 170.2 245.45 179.4 241.55 187.75 243.45 L193.45 244.55 Q197.5 246.5 198.7 250.55 L198.9 251.4 198.7 250.3 Q197.75 246.1 195.85 244.85 197.2 244.1 198.7 243.7 202.4 242.65 207.2 243.55 213.95 244.85 213.75 245.7 L211.2 253.35 211.9 252.1 Q218.85 240.1 229.3 228.45 239.8 216.75 245.3 211.7 L245.65 211.4 Q247.35 209.8 248.85 208.65 257.15 201.9 258.75 206.15 259.5 208.15 259.85 210.9 260.5 216.3 259.4 224.35 L258.8 228.35 258.65 229.15 258.75 228.65 258.45 230.65 256.2 247.15 252.1 251.8 257.25 247.8 257.5 244.15 259.8 241.8 260.85 240.9 Q263.9 238.3 267.0 237.6 271.8 236.45 274.1 240.5 275.2 242.4 274.5 247.25 L273.35 252.55 Q271.4 260.0 267.9 268.35 L249.35 274.95 268.8 269.1 272.0 260.3 Q273.3 259.65 274.2 261.15 275.1 262.6 274.9 265.25 274.35 270.8 268.5 281.8 266.3 285.95 261.35 287.25 L251.15 288.2 Q240.35 288.6 236.5 285.7 240.05 280.35 239.5 275.0 237.55 263.3 228.95 266.65 235.7 265.3 237.4 270.75 240.2 277.7 235.4 286.05 233.7 288.7 231.25 289.95 223.9 293.4 217.05 291.7 213.05 293.75 208.6 292.4 202.85 290.6 200.8 287.4 201.95 291.05 208.85 293.5 202.15 296.7 196.0 297.55 L194.8 297.7 Q191.8 298.0 188.95 297.7 179.05 293.75 175.8 288.35 179.65 295.1 185.8 297.05 L172.2 299.45 172.35 299.5 171.6 299.55 163.15 300.25 Q155.15 300.4 151.95 298.15 145.95 295.95 138.3 279.45 141.05 290.25 147.95 296.85 128.95 295.05 118.2 288.6 114.85 286.55 112.9 284.35 110.65 281.8 110.2 279.05 109.35 273.85 110.6 269.9 L110.9 268.6 Q112.65 263.3 121.95 259.7 118.15 259.4 112.55 264.1 114.25 261.3 116.15 258.9 L111.0 258.8 Q96.15 257.85 93.1 250.2 91.1 245.1 95.1 239.05 96.95 236.2 100.15 233.15 L100.65 232.65 Q104.65 228.85 109.75 225.6 112.65 223.7 116.0 222.0 119.05 220.4 122.5 219.0 125.7 217.6 129.2 216.35 136.65 213.7 143.65 212.3 L147.5 211.65 M136.05 225.5 L139.05 224.75 142.25 224.0 146.15 223.2 155.6 222.15 163.45 222.6 164.7 222.0 164.9 221.75 164.45 222.6 162.8 224.7 159.8 227.2 156.15 229.8 Q148.0 236.3 136.15 240.15 124.15 243.95 115.85 243.65 109.2 243.4 105.35 241.9 L105.7 241.95 106.9 242.0 107.6 241.95 107.8 241.95 108.0 241.9 109.15 240.7 115.75 235.3 Q115.9 235.15 116.1 235.05 118.45 233.3 120.95 231.8 124.7 229.55 128.9 227.9 132.3 226.5 136.05 225.5 M132.9 268.4 L142.85 268.0 Q144.7 267.05 145.5 265.15 144.6 261.45 144.75 260.65 L146.45 263.95 Q155.05 264.8 164.45 260.3 167.0 256.2 167.2 255.05 167.2 256.25 165.15 260.75 182.4 262.2 188.5 258.65 L191.75 252.8 Q188.7 259.25 189.75 258.55 L191.8 259.5 195.8 261.05 197.6 261.1 198.55 261.05 198.7 261.0 198.75 261.0 202.35 260.4 202.55 259.85 204.45 256.85 204.5 256.8 204.55 256.7 203.0 260.65 203.3 260.75 204.2 261.0 206.1 260.9 206.2 260.9 Q208.4 257.7 209.75 256.1 206.2 262.95 203.9 270.85 L203.4 272.55 Q199.95 273.95 195.85 274.15 188.25 278.4 188.95 282.8 188.05 278.15 192.4 275.2 185.45 272.85 174.15 273.7 164.8 277.3 159.6 282.25 160.0 280.45 167.4 275.5 167.45 271.85 152.85 269.95 L139.45 268.6 132.9 268.4 Z" fill="none" stroke="#000000" stroke-linecap="round" stroke-linejoin="round" stroke-opacity="0.6" stroke-width="4.0"/>
  </g>
</svg>
