<?xml version="1.0" encoding="UTF-8" standalone="no"?>
<svg xmlns:xlink="http://www.w3.org/1999/xlink" height="67.8px" width="61.6px" xmlns="http://www.w3.org/2000/svg">
  <g transform="matrix(1.0, 0.0, 0.0, 1.0, -1.75, 0.0)">
    <path d="M34.7 18.05 L36.9 20.55 34.95 23.6 34.0 24.9 32.2 26.1 32.45 25.95 Q22.8 36.95 21.4 52.35 L21.25 52.8 Q21.25 37.85 31.8 26.35 L30.65 27.0 29.65 27.65 Q27.8 28.15 26.85 26.6 L26.7 26.35 27.3 25.5 32.7 19.35 33.1 19.05 29.25 24.95 33.8 18.6 34.7 18.05 M40.1 22.0 L41.7 22.15 41.6 22.35 Q39.85 24.75 42.1 22.15 44.2 22.1 45.9 21.15 L46.0 26.2 46.4 20.8 47.7 19.7 48.5 20.95 49.05 23.0 45.65 32.45 Q44.25 45.45 35.45 55.4 32.3 58.9 31.15 58.5 36.95 52.05 40.95 44.05 43.65 38.7 44.15 32.65 44.4 29.65 44.0 26.45 L41.45 29.75 39.1 30.5 Q39.55 29.65 39.5 28.8 39.45 27.7 38.8 30.55 L36.75 26.85 40.1 22.0 M53.7 21.85 L54.5 23.05 Q55.9 25.25 57.1 27.65 59.3 32.0 58.7 37.05 57.65 45.65 51.75 52.15 L52.55 49.8 50.65 53.25 Q51.95 48.0 54.95 40.75 57.8 33.8 55.15 26.8 56.0 29.9 53.2 40.95 51.7 46.9 47.45 51.65 L47.65 51.15 48.6 49.55 Q52.15 42.9 53.9 35.65 L54.4 28.9 53.45 23.25 53.7 21.85 M37.65 63.35 L48.05 59.55 40.2 64.8 37.1 65.25 36.7 65.5 35.6 66.0 36.15 65.4 33.1 65.85 31.75 65.85 23.4 64.65 23.3 57.15 37.65 63.35 M53.75 27.4 L54.3 28.75 51.55 28.85 51.5 28.45 51.4 27.7 53.75 27.4 M35.85 26.25 L30.8 36.15 28.3 44.65 26.35 39.6 31.75 28.3 37.2 22.2 37.8 22.5 35.95 26.05 35.85 26.25 M18.15 48.65 Q16.95 48.8 16.7 49.35 16.35 50.1 16.9 51.25 L15.45 60.75 9.75 55.55 8.55 54.1 Q4.45 48.7 3.25 42.05 2.0 35.2 3.8 28.5 5.6 21.95 10.1 16.95 15.15 11.4 21.9 8.8 L34.0 12.8 Q33.25 13.15 33.25 13.5 33.35 15.3 34.15 17.1 29.85 20.2 26.7 24.6 22.9 29.8 20.6 35.8 18.25 41.9 18.15 48.65 M17.45 51.95 L21.65 56.05 20.4 60.65 17.45 51.95 M36.7 65.5 L36.15 65.4 36.7 65.5" fill="#536439" fill-rule="evenodd" stroke="none"/>
    <path d="M34.2 12.7 L34.4 17.35 34.3 17.4 34.15 17.1 Q33.35 15.3 33.25 13.5 33.25 13.15 34.0 12.8 L34.2 12.7 M16.9 51.25 L17.4 51.25 17.45 51.95 20.4 60.65 21.65 56.05 21.85 55.75 Q24.45 51.45 23.3 57.15 L23.4 64.65 22.35 64.3 23.4 64.65 31.75 65.85 33.1 65.85 30.2 67.8 22.35 64.3 Q18.7 63.0 15.45 60.75 L16.9 51.25 M34.55 17.8 L33.8 18.6 29.25 24.95 33.1 19.05 33.75 18.5 34.0 18.3 34.55 17.8" fill="#4f5f33" fill-rule="evenodd" stroke="none"/>
    <path d="M49.5 12.7 L48.8 11.15 59.15 11.7 54.55 14.4 59.3 21.05 55.2 18.2 49.5 12.7 M39.1 30.5 L38.25 32.05 38.8 30.55 Q39.45 27.7 39.5 28.8 39.55 29.65 39.1 30.5" fill="#ebefd6" fill-rule="evenodd" stroke="none"/>
    <path d="M39.05 7.8 L34.2 12.7 34.0 12.8 21.9 8.8 39.05 7.8" fill="url(#gradient0)" fill-rule="evenodd" stroke="none"/>
    <path d="M49.0 18.05 L49.5 12.7 55.2 18.2 55.95 19.15 53.95 20.7 49.0 18.05 M34.4 17.35 L34.6 17.8 34.55 17.8 34.3 17.4 34.4 17.35 M36.9 20.55 Q37.65 21.15 38.55 21.5 L37.8 22.5 37.2 22.2 34.95 23.6 36.9 20.55 M39.05 21.7 L40.1 22.0 36.75 26.85 35.85 26.25 35.95 26.05 39.05 21.7 M53.75 27.4 L51.4 27.7 51.5 28.45 51.55 28.85 53.0 32.8 50.55 30.55 50.6 27.6 49.75 23.45 50.25 25.1 Q50.4 26.1 51.85 24.65 L53.55 26.65 53.75 27.4 M30.65 46.25 L30.5 46.05 Q33.25 47.45 30.65 46.25" fill="#93be6f" fill-rule="evenodd" stroke="none"/>
    <path d="M38.55 21.5 L39.05 21.7 35.95 26.05 37.8 22.5 38.55 21.5 M41.7 22.15 L42.1 22.15 Q39.85 24.75 41.6 22.35 L41.7 22.15 M45.9 21.15 L46.4 20.8 46.0 26.2 45.9 21.15 M31.75 28.3 Q32.8 26.55 34.0 24.9 L34.95 23.6 37.2 22.2 31.75 28.3" fill="#d6f4bf" fill-rule="evenodd" stroke="none"/>
    <path d="M48.05 19.35 L49.0 18.05 53.95 20.7 54.0 21.3 53.95 21.35 51.85 24.65 Q50.4 26.1 50.25 25.1 L49.75 23.45 50.6 27.6 49.05 23.0 48.5 20.95 48.05 19.35 M56.85 20.45 Q56.15 20.45 55.65 20.8 L55.45 20.95 56.2 19.55 56.85 20.45" fill="#d8fdba" fill-rule="evenodd" stroke="none"/>
    <path d="M34.6 17.8 L34.7 18.05 33.8 18.6 34.55 17.8 34.6 17.8 M47.7 19.7 L48.05 19.35 48.5 20.95 47.7 19.7 M47.65 51.15 Q44.8 55.55 37.65 63.35 L23.3 57.15 Q24.45 51.45 21.85 55.75 L21.65 56.05 17.45 51.95 17.4 51.25 16.9 51.25 Q16.35 50.1 16.7 49.35 16.95 48.8 18.15 48.65 19.8 35.65 27.3 25.5 L26.7 26.35 26.85 26.6 Q27.8 28.15 29.65 27.65 L30.65 27.0 31.8 26.35 Q21.25 37.85 21.25 52.8 L21.4 52.35 Q22.8 36.95 32.45 25.95 L32.2 26.1 34.0 24.9 Q32.8 26.55 31.75 28.3 L26.35 39.6 28.3 44.65 30.8 36.15 35.85 26.25 36.75 26.85 38.8 30.55 38.25 32.05 39.1 30.5 41.45 29.75 44.0 26.45 Q44.4 29.65 44.15 32.65 43.65 38.7 40.95 44.05 36.95 52.05 31.15 58.5 32.3 58.9 35.45 55.4 44.25 45.45 45.65 32.45 L49.05 23.0 50.6 27.6 50.55 30.55 53.0 32.8 51.55 28.85 54.3 28.75 54.4 28.9 53.9 35.65 Q52.15 42.9 48.6 49.55 L47.65 51.15 M33.75 18.5 L33.1 19.05 32.7 19.35 33.75 18.5 M30.65 46.25 Q33.25 47.45 30.5 46.05 L30.65 46.25" fill="url(#gradient1)" fill-rule="evenodd" stroke="none"/>
    <path d="M53.95 21.35 L54.0 21.3 54.5 23.05 55.1 21.65 55.45 20.95 55.65 20.8 Q56.15 20.45 56.85 20.45 58.45 22.9 59.55 25.6 L59.95 26.75 61.25 33.8 61.3 34.1 Q62.0 40.1 60.0 46.0 57.75 52.7 52.7 57.45 L52.35 57.8 40.2 64.8 48.05 59.55 37.65 63.35 Q44.8 55.55 47.65 51.15 L47.45 51.65 Q51.7 46.9 53.2 40.95 56.0 29.9 55.15 26.8 57.8 33.8 54.95 40.75 51.95 48.0 50.65 53.25 L49.1 56.65 51.75 52.15 Q57.65 45.65 58.7 37.05 59.3 32.0 57.1 27.65 55.9 25.25 54.5 23.05 L53.7 21.85 53.95 21.35 M53.45 23.25 L54.4 28.9 54.3 28.75 53.75 27.4 53.55 26.65 Q53.2 24.95 53.45 23.25" fill="#88aa66" fill-rule="evenodd" stroke="none"/>
    <path d="M53.95 20.7 L55.95 19.15 56.2 19.55 55.45 20.95 55.1 21.65 54.5 23.05 54.0 21.3 53.95 20.7 M27.3 25.5 Q19.8 35.65 18.15 48.65 18.25 41.9 20.6 35.8 22.9 29.8 26.7 24.6 29.85 20.2 34.15 17.1 L34.3 17.4 34.55 17.8 34.0 18.3 33.75 18.5 32.7 19.35 27.3 25.5" fill="#6c874c" fill-rule="evenodd" stroke="none"/>
    <path d="M53.95 21.35 L53.7 21.85 53.45 23.25 Q53.2 24.95 53.55 26.65 L51.85 24.65 53.95 21.35 M51.75 52.15 L49.1 56.65 50.65 53.25 52.55 49.8 51.75 52.15" fill="#a7d485" fill-rule="evenodd" stroke="none"/>
    <path d="M49.5 12.7 L49.0 18.05 48.05 19.35 47.7 19.7 46.4 20.8 45.9 21.15 Q44.2 22.1 42.1 22.15 L41.7 22.15 40.1 22.0 39.05 21.7 38.55 21.5 Q37.65 21.15 36.9 20.55 L34.7 18.05 34.6 17.8 34.4 17.35 34.2 12.7 39.05 7.8 48.8 11.15 49.5 12.7" fill="#ffcc00" fill-rule="evenodd" stroke="none"/>
    <path d="M55.95 19.15 L55.2 18.2 49.5 12.7 M40.2 64.8 L52.35 57.8 52.7 57.45 Q57.75 52.7 60.0 46.0 62.0 40.1 61.3 34.1 M61.25 33.8 L59.95 26.75 59.55 25.6 Q58.45 22.9 56.85 20.45 L56.2 19.55 55.95 19.15 M21.9 8.8 Q15.15 11.4 10.1 16.95 5.6 21.95 3.8 28.5 2.0 35.2 3.25 42.05 4.45 48.7 8.55 54.1 L9.75 55.55 15.45 60.75 Q18.7 63.0 22.35 64.3 L23.4 64.65 M39.05 7.8 L21.9 8.8 M33.1 65.85 L31.75 65.85 M33.1 65.85 L36.15 65.4 36.7 65.5 M37.1 65.25 L40.2 64.8" fill="none" stroke="#4f5f33" stroke-linecap="round" stroke-linejoin="round" stroke-width="2.0"/>
    <path d="M49.0 18.05 L49.5 12.7 48.8 11.15 39.05 7.8 34.2 12.7 34.4 17.35 34.6 17.8 34.7 18.05 36.9 20.55 Q37.65 21.15 38.55 21.5 L39.05 21.7 40.1 22.0 41.7 22.15 42.1 22.15 Q44.2 22.1 45.9 21.15 L46.4 20.8 47.7 19.7 48.05 19.35 49.0 18.05 Z" fill="none" stroke="#4f5f33" stroke-linecap="round" stroke-linejoin="round" stroke-width="0.05"/>
    <path d="M21.5 4.45 L24.2 4.4 Q26.65 4.95 29.75 6.4 L34.9 9.35 Q36.9 10.85 36.6 11.5 L33.85 11.6 Q31.4 11.0 28.3 9.55 25.15 8.05 23.2 6.6 21.15 5.1 21.5 4.45" fill="#849c66" fill-rule="evenodd" stroke="none"/>
    <path d="M21.5 4.45 L24.2 4.4 Q26.65 4.95 29.75 6.4 L34.9 9.35 Q36.9 10.85 36.6 11.5 L33.85 11.6 Q31.4 11.0 28.3 9.55 25.15 8.05 23.2 6.6 21.15 5.1 21.5 4.45 Z" fill="none" stroke="#336600" stroke-linecap="round" stroke-linejoin="round" stroke-width="0.05"/>
    <path d="M28.4 0.05 Q29.3 -0.2 31.55 1.15 33.75 2.5 35.95 4.6 38.15 6.7 39.1 8.4 40.05 10.1 39.15 10.35 38.2 10.55 36.0 9.25 33.8 7.9 31.6 5.8 29.35 3.65 28.45 2.0 27.5 0.3 28.4 0.05" fill="#849c66" fill-rule="evenodd" stroke="none"/>
    <path d="M28.4 0.05 Q29.3 -0.2 31.55 1.15 33.75 2.5 35.95 4.6 38.15 6.7 39.1 8.4 40.05 10.1 39.15 10.35 38.2 10.55 36.0 9.25 33.8 7.9 31.6 5.8 29.35 3.65 28.45 2.0 27.5 0.3 28.4 0.05 Z" fill="none" stroke="#336600" stroke-linecap="round" stroke-linejoin="round" stroke-width="0.05"/>
    <path d="M39.8 1.0 Q41.05 1.25 42.3 2.95 43.5 4.65 44.05 6.75 44.55 8.8 44.1 10.1 43.55 11.4 42.35 11.15 41.1 10.9 39.85 9.2 38.6 7.5 38.1 5.45 37.6 3.35 38.1 2.05 38.55 0.75 39.8 1.0" fill="#849c66" fill-rule="evenodd" stroke="none"/>
    <path d="M39.8 1.0 Q41.05 1.25 42.3 2.95 43.5 4.65 44.05 6.75 44.55 8.8 44.1 10.1 43.55 11.4 42.35 11.15 41.1 10.9 39.85 9.2 38.6 7.5 38.1 5.45 37.6 3.35 38.1 2.05 38.55 0.75 39.8 1.0 Z" fill="none" stroke="#336600" stroke-linecap="round" stroke-linejoin="round" stroke-width="0.05"/>
    <path d="M50.15 9.05 Q49.1 10.55 47.5 11.2 45.9 11.8 44.75 11.2 43.55 10.55 43.5 9.05 43.4 7.5 44.45 6.0 45.5 4.5 47.1 3.85 48.7 3.2 49.85 3.85 51.05 4.5 51.15 6.0 51.2 7.5 50.15 9.05" fill="#849c66" fill-rule="evenodd" stroke="none"/>
    <path d="M50.15 9.05 Q49.1 10.55 47.5 11.2 45.9 11.8 44.75 11.2 43.55 10.55 43.5 9.05 43.4 7.5 44.45 6.0 45.5 4.5 47.1 3.85 48.7 3.2 49.85 3.85 51.05 4.5 51.15 6.0 51.2 7.5 50.15 9.05 Z" fill="none" stroke="#336600" stroke-linecap="round" stroke-linejoin="round" stroke-width="0.05"/>
    <path d="M51.95 11.3 Q54.45 10.9 56.8 11.2 59.1 11.5 59.9 12.35 60.65 13.2 59.45 14.1 58.2 14.95 55.7 15.4 53.15 15.8 50.85 15.5 48.5 15.2 47.75 14.4 46.95 13.5 48.2 12.65 49.4 11.75 51.95 11.3" fill="#849c66" fill-rule="evenodd" stroke="none"/>
    <path d="M51.95 11.3 Q54.45 10.9 56.8 11.2 59.1 11.5 59.9 12.35 60.65 13.2 59.45 14.1 58.2 14.95 55.7 15.4 53.15 15.8 50.85 15.5 48.5 15.2 47.75 14.4 46.95 13.5 48.2 12.65 49.4 11.75 51.95 11.3 Z" fill="none" stroke="#336600" stroke-linecap="round" stroke-linejoin="round" stroke-width="0.05"/>
    <path d="M63.35 20.65 Q63.4 21.4 61.2 21.35 59.0 21.3 55.85 20.45 52.65 19.55 50.35 18.4 48.0 17.2 47.9 16.45 47.8 15.65 50.05 15.7 L55.4 16.65 Q58.6 17.5 60.9 18.65 63.25 19.85 63.35 20.65" fill="#849c66" fill-rule="evenodd" stroke="none"/>
    <path d="M63.35 20.65 Q63.4 21.4 61.2 21.35 59.0 21.3 55.85 20.45 52.65 19.55 50.35 18.4 48.0 17.2 47.9 16.45 47.8 15.65 50.05 15.7 L55.4 16.65 Q58.6 17.5 60.9 18.65 63.25 19.85 63.35 20.65 Z" fill="none" stroke="#336600" stroke-linecap="round" stroke-linejoin="round" stroke-width="0.05"/>
    <path d="M62.95 23.85 L60.2 23.9 Q57.75 23.3 54.65 21.85 51.55 20.4 49.55 18.9 47.5 17.4 47.85 16.75 L50.6 16.7 Q53.0 17.25 56.15 18.75 L61.25 21.7 Q63.25 23.15 62.95 23.85" fill="#849c66" fill-rule="evenodd" stroke="none"/>
    <path d="M62.95 23.85 L60.2 23.9 Q57.75 23.3 54.65 21.85 51.55 20.4 49.55 18.9 47.5 17.4 47.85 16.75 L50.6 16.7 Q53.0 17.25 56.15 18.75 L61.25 21.7 Q63.25 23.15 62.95 23.85 Z" fill="none" stroke="#336600" stroke-linecap="round" stroke-linejoin="round" stroke-width="0.05"/>
    <path d="M55.95 28.15 Q55.05 28.4 52.85 27.05 50.6 25.7 48.4 23.6 46.2 21.5 45.25 19.8 44.3 18.1 45.25 17.9 46.15 17.65 48.35 19.0 50.55 20.3 52.8 22.45 55.0 24.55 55.95 26.25 56.85 27.9 55.95 28.15" fill="#849c66" fill-rule="evenodd" stroke="none"/>
    <path d="M55.95 28.15 Q55.05 28.4 52.85 27.05 50.6 25.7 48.4 23.6 46.2 21.5 45.25 19.8 44.3 18.1 45.25 17.9 46.15 17.65 48.35 19.0 50.55 20.3 52.8 22.45 55.0 24.55 55.95 26.25 56.85 27.9 55.95 28.15 Z" fill="none" stroke="#336600" stroke-linecap="round" stroke-linejoin="round" stroke-width="0.05"/>
    <path d="M34.5 23.95 Q33.3 23.3 33.25 21.8 33.15 20.3 34.2 18.8 35.25 17.25 36.85 16.65 38.45 16.0 39.65 16.65 40.8 17.25 40.9 18.75 40.95 20.3 39.9 21.8 38.85 23.3 37.25 23.95 35.65 24.6 34.5 23.95" fill="#849c66" fill-rule="evenodd" stroke="none"/>
    <path d="M34.5 23.95 Q33.3 23.3 33.25 21.8 33.15 20.3 34.2 18.8 35.25 17.25 36.85 16.65 38.45 16.0 39.65 16.65 40.8 17.25 40.9 18.75 40.95 20.3 39.9 21.8 38.85 23.3 37.25 23.95 35.65 24.6 34.5 23.95 Z" fill="none" stroke="#336600" stroke-linecap="round" stroke-linejoin="round" stroke-width="0.05"/>
    <path d="M24.6 16.0 Q23.8 15.1 25.05 14.25 26.25 13.35 28.8 12.95 L33.65 12.8 Q35.95 13.1 36.75 13.95 37.5 14.8 36.3 15.7 35.05 16.55 32.55 17.0 L27.7 17.15 Q25.35 16.8 24.6 16.0" fill="#849c66" fill-rule="evenodd" stroke="none"/>
    <path d="M24.6 16.0 Q23.8 15.1 25.05 14.25 26.25 13.35 28.8 12.95 L33.65 12.8 Q35.95 13.1 36.75 13.95 37.5 14.8 36.3 15.7 35.05 16.55 32.55 17.0 L27.7 17.15 Q25.35 16.8 24.6 16.0 Z" fill="none" stroke="#336600" stroke-linecap="round" stroke-linejoin="round" stroke-width="0.05"/>
    <path d="M21.05 7.7 Q20.95 6.9 23.15 6.95 25.35 7.0 28.55 7.9 31.7 8.75 34.05 9.95 36.35 11.1 36.45 11.9 36.55 12.65 34.35 12.6 32.15 12.55 28.95 11.7 25.75 10.8 23.45 9.65 21.1 8.45 21.05 7.7" fill="#849c66" fill-rule="evenodd" stroke="none"/>
    <path d="M21.05 7.7 Q20.95 6.9 23.15 6.95 25.35 7.0 28.55 7.9 31.7 8.75 34.05 9.95 36.35 11.1 36.45 11.9 36.55 12.65 34.35 12.6 32.15 12.55 28.95 11.7 25.75 10.8 23.45 9.65 21.1 8.45 21.05 7.7 Z" fill="none" stroke="#336600" stroke-linecap="round" stroke-linejoin="round" stroke-width="0.05"/>
  </g>
  <defs>
    <linearGradient gradientTransform="matrix(1.0, 0.0, 0.0, 1.0, -102.55, -59.75)" gradientUnits="userSpaceOnUse" id="gradient0" spreadMethod="pad" x1="-819.2" x2="819.2">
      <stop offset="0.0" stop-color="#93be6f"/>
      <stop offset="1.0" stop-color="#4f5f33"/>
    </linearGradient>
    <radialGradient cx="0" cy="0" gradientTransform="matrix(0.0405, 0.0, 0.0, 0.0405, 43.55, 31.8)" gradientUnits="userSpaceOnUse" id="gradient1" r="819.2" spreadMethod="pad">
      <stop offset="0.0" stop-color="#a7d485"/>
      <stop offset="1.0" stop-color="#5c6f3b"/>
    </radialGradient>
  </defs>
</svg>
