<?xml version="1.0" encoding="UTF-8" standalone="no"?>
<svg xmlns:xlink="http://www.w3.org/1999/xlink" height="35.0px" width="22.75px" xmlns="http://www.w3.org/2000/svg">
  <g transform="matrix(1.0, 0.0, 0.0, 1.0, -14.6, -11.65)">
    <path d="M20.15 17.4 L24.45 17.75 25.75 18.95 27.05 18.1 28.6 19.8 27.05 18.1 25.75 18.95 24.45 17.75 20.15 17.4 M21.65 23.25 L25.25 23.45 26.7 24.7 28.7 23.2 26.7 24.7 25.25 23.45 21.65 23.25 M28.45 21.05 L24.05 19.85 22.3 21.4 20.4 19.4 22.3 21.4 24.05 19.85 28.45 21.05 M18.5 24.9 Q19.45 23.8 19.45 22.95 L18.55 18.3 Q17.65 14.5 14.85 11.65 L32.85 18.1 Q35.7 21.6 35.55 26.2 L35.55 26.35 31.05 26.15 30.35 26.1 30.1 26.1 18.5 24.9" fill="#f4f1d0" fill-rule="evenodd" stroke="none"/>
    <path d="M18.5 24.9 L30.1 26.1 30.35 26.1 31.05 26.15 35.55 26.35 35.5 26.55 Q34.95 28.75 33.1 32.4 L29.9 30.85 26.1 29.05 17.8 30.55 14.9 31.1 15.1 30.15 Q15.95 26.7 18.45 24.9 L18.5 24.9 M33.2 43.15 L37.35 43.2 Q37.5 45.25 35.85 46.35 L18.15 46.65 Q19.1 46.4 19.35 45.2 L19.45 44.5 19.15 42.95 33.2 43.15 M32.65 30.7 L29.9 30.85 32.65 30.7" fill="#e3dc82" fill-rule="evenodd" stroke="none"/>
    <path d="M33.1 32.4 L33.05 32.5 Q31.2 36.05 31.0 37.05 30.35 40.15 33.2 43.15 L19.15 42.95 19.45 44.5 19.35 45.2 Q19.1 46.4 18.15 46.65 L17.85 46.65 Q16.65 46.7 15.8 44.45 L15.45 43.4 Q14.5 40.3 14.6 36.8 14.5 33.3 14.9 31.1 L17.8 30.55 26.1 29.05 29.9 30.85 27.55 31.4 22.55 29.8 20.3 31.25 17.8 30.55 20.3 31.25 22.55 29.8 27.55 31.4 29.9 30.85 33.1 32.4 M17.7 35.8 L20.1 36.8 22.85 36.5 25.6 37.65 29.1 37.15 25.6 37.65 22.85 36.5 20.1 36.8 17.7 35.8 M24.75 41.65 L30.75 41.4 24.75 41.65 M29.9 38.75 L23.8 39.0 29.9 38.75 M24.75 40.4 L29.9 40.8 24.75 40.4 M29.6 33.45 L26.65 33.95 19.55 33.35 26.65 33.95 29.6 33.45" fill="#eae4a2" fill-rule="evenodd" stroke="none"/>
    <path d="M20.4 19.4 L22.3 21.4 24.05 19.85 28.45 21.05 M28.7 23.2 L26.7 24.7 25.25 23.45 21.65 23.25 M28.6 19.8 L27.05 18.1 25.75 18.95 24.45 17.75 20.15 17.4 M35.55 26.35 L35.55 26.2 Q35.7 21.6 32.85 18.1 L14.85 11.65 Q17.65 14.5 18.55 18.3 L19.45 22.95 Q19.45 23.8 18.5 24.9 L30.1 26.1 M30.35 26.1 L31.05 26.15 M35.55 26.35 L35.5 26.55 Q34.95 28.75 33.1 32.4 L33.05 32.5 Q31.2 36.05 31.0 37.05 30.35 40.15 33.2 43.15 L37.35 43.2 Q37.5 45.25 35.85 46.35 L18.15 46.65 17.85 46.65 Q16.65 46.7 15.8 44.45 L15.45 43.4 Q14.5 40.3 14.6 36.8 14.5 33.3 14.9 31.1 L15.1 30.15 Q15.95 26.7 18.45 24.9 L18.5 24.9 M29.1 37.15 L25.6 37.65 22.85 36.5 20.1 36.8 17.7 35.8 M33.2 43.15 L19.15 42.95 19.45 44.5 19.35 45.2 Q19.1 46.4 18.15 46.65 M17.8 30.55 L20.3 31.25 22.55 29.8 27.55 31.4 29.9 30.85 32.65 30.7 M19.55 33.35 L26.65 33.95 29.6 33.45 M29.9 40.8 L24.75 40.4 M23.8 39.0 L29.9 38.75 M30.75 41.4 L24.75 41.65" fill="none" stroke="#4a0f0f" stroke-linecap="round" stroke-linejoin="round" stroke-opacity="0.36078432" stroke-width="0.05"/>
  </g>
</svg>
