<?xml version="1.0" encoding="UTF-8" standalone="no"?>
<svg xmlns:xlink="http://www.w3.org/1999/xlink" height="15.75px" width="35.7px" xmlns="http://www.w3.org/2000/svg">
  <g transform="matrix(1.0, 0.0, 0.0, 1.0, -305.25, -170.05)">
    <path d="M337.7 180.0 Q338.0 178.8 331.15 172.7 338.2 178.1 340.45 176.25 342.05 180.55 337.7 180.0 M311.5 181.0 Q312.35 181.9 321.1 179.0 312.9 182.45 313.4 185.3 308.85 184.55 311.5 181.0 M308.15 178.0 Q303.6 177.25 306.25 173.7 307.1 174.6 315.85 171.7 307.65 175.15 308.15 178.0" fill="#999804" fill-rule="evenodd" stroke="none"/>
    <path d="M337.7 180.0 Q338.0 178.8 331.15 172.7 L329.5 172.1 M331.15 172.7 Q338.2 178.1 340.45 176.25 M331.15 172.7 L329.8 171.2 M315.85 171.7 L317.2 170.55 M315.85 171.7 L317.8 171.25 M311.5 181.0 Q312.35 181.9 321.1 179.0 L322.45 177.85 M306.25 173.7 Q307.1 174.6 315.85 171.7 307.65 175.15 308.15 178.0 M321.1 179.0 L323.05 178.55 M321.1 179.0 Q312.9 182.45 313.4 185.3" fill="none" stroke="#767603" stroke-linecap="round" stroke-linejoin="round" stroke-width="1.0"/>
  </g>
</svg>
