<?xml version="1.0" encoding="UTF-8" standalone="no"?>
<svg xmlns:xlink="http://www.w3.org/1999/xlink" height="251.6px" width="182.65px" xmlns="http://www.w3.org/2000/svg">
  <g transform="matrix(1.0, 0.0, 0.0, 1.0, -165.2, -67.75)">
    <path d="M266.2 212.35 Q270.5 223.6 280.1 234.3 252.2 233.85 230.1 227.4 L233.4 212.15 218.95 223.5 Q182.05 208.8 170.4 177.1 153.45 131.6 191.6 67.75 182.15 93.05 187.1 110.4 190.55 122.35 192.8 125.1 189.35 143.3 192.25 158.45 L189.85 160.55 189.95 160.65 193.35 163.65 Q194.95 169.85 197.85 175.4 L184.45 169.95 181.15 179.1 188.85 185.6 188.5 193.55 204.35 194.85 209.85 191.4 Q213.05 194.45 216.95 197.0 L224.85 192.5 221.05 199.7 228.2 203.5 247.95 185.85 245.35 209.3 251.6 210.6 250.2 215.25 252.4 221.85 257.1 215.65 255.65 211.2 266.2 212.35 M337.8 319.25 L334.05 319.35 339.75 315.65 339.85 315.65 337.8 319.25 M176.0 148.25 L180.45 156.15 185.2 155.75 188.0 148.2 180.65 144.05 176.0 148.25" fill="#ffffff" fill-rule="evenodd" stroke="none"/>
    <path d="M291.1 139.05 L296.0 136.65 Q298.95 134.9 300.1 132.9 L300.85 131.15 Q303.05 124.65 295.95 116.5 317.5 130.45 322.55 144.9 325.7 154.15 322.6 164.35 320.1 172.2 313.7 180.95 315.8 177.1 313.45 172.4 311.1 167.75 307.85 166.8 L306.25 166.4 300.0 155.1 301.0 153.8 299.05 153.5 291.1 139.05 M295.45 152.45 Q293.5 150.95 292.5 149.9 L290.25 147.95 Q285.75 145.0 281.4 145.85 276.9 146.65 274.6 152.1 L273.9 153.9 272.35 158.65 272.25 158.65 Q272.0 156.65 272.4 155.3 273.05 152.65 273.3 152.4 274.95 144.6 280.65 143.6 286.05 142.55 291.85 147.1 L294.0 149.45 Q294.85 150.4 295.85 152.25 L295.45 152.45 M276.2 168.0 L276.45 168.15 276.85 168.4 279.35 169.5 Q284.3 171.2 289.8 169.45 L292.25 168.45 292.4 168.35 Q295.65 166.75 297.7 163.9 L298.4 162.15 298.55 161.65 300.1 161.1 300.45 162.45 298.05 165.0 294.15 169.35 284.5 172.3 279.9 170.9 274.3 169.35 274.65 168.25 276.2 168.0 M260.8 163.5 L256.5 167.65 248.5 167.7 260.8 163.5 M192.25 158.45 L200.4 150.7 208.3 154.35 208.7 161.8 195.75 165.6 193.35 163.65 Q192.65 161.05 192.25 158.45 M197.85 175.4 L200.75 176.65 218.85 170.8 224.6 176.7 216.75 187.2 209.85 191.4 Q202.4 184.4 197.85 175.4 M251.6 210.6 L253.45 204.1 255.65 211.2 251.6 210.6" fill="#94a5b4" fill-rule="evenodd" stroke="none"/>
    <path d="M278.9 114.95 L280.8 115.75 282.25 119.8 278.4 139.95 272.9 141.35 265.7 120.05 270.6 122.1 269.8 118.7 278.9 114.95 M303.15 179.4 L329.2 253.75 315.7 260.55 287.65 181.9 303.15 179.4 M331.0 259.0 L333.65 266.5 320.65 274.6 317.95 266.9 331.0 259.0 M337.0 275.9 L338.5 280.35 326.1 290.05 323.75 283.4 337.0 275.9 M340.4 292.85 L329.7 311.9 326.1 301.6 Q327.9 301.0 329.7 300.2 335.75 297.6 340.4 292.85" fill="#5a4e39" fill-rule="evenodd" stroke="none"/>
    <path d="M269.65 142.1 L262.1 120.65 265.65 116.55 277.25 114.25 278.9 114.95 269.8 118.7 270.6 122.1 265.7 120.05 272.9 141.35 269.65 142.1 M329.45 312.4 L329.35 312.4 326.8 312.95 322.3 300.35 325.0 298.55 325.7 300.65 326.1 301.6 329.7 311.9 329.45 312.4 M322.85 292.5 L320.3 285.4 323.75 283.4 326.1 290.05 322.85 292.5 M317.25 276.75 L314.5 268.95 317.95 266.9 320.65 274.6 317.25 276.75 M312.15 262.35 L283.95 182.45 287.65 181.9 315.7 260.55 312.15 262.35" fill="#877556" fill-rule="evenodd" stroke="none"/>
    <path d="M270.75 145.05 L270.5 144.4 289.85 141.4 291.85 147.1 Q286.05 142.55 280.65 143.6 274.95 144.6 273.3 152.4 L270.75 145.05 M282.8 179.15 L281.2 174.7 295.85 174.8 282.8 179.15 M272.3 158.95 L272.1 159.5 272.35 159.4 272.3 158.95 272.35 158.65 273.9 153.9 274.6 152.1 Q276.9 146.65 281.4 145.85 285.75 145.0 290.25 147.95 L292.5 149.9 Q293.5 150.95 295.45 152.45 L292.35 152.75 291.55 152.85 291.75 153.0 Q284.15 153.75 276.7 157.55 L276.7 157.25 276.25 157.5 Q274.25 158.35 272.35 159.4 L272.5 160.35 273.15 162.7 267.6 163.55 272.25 158.65 272.3 158.95 M296.2 152.95 L299.05 153.5 301.0 153.8 300.0 155.1 297.85 157.6 297.4 156.1 296.1 153.0 296.2 152.95" fill="#4e606d" fill-rule="evenodd" stroke="none"/>
    <path d="M272.5 160.35 L272.35 159.4 Q274.25 158.35 276.25 157.5 L276.7 157.55 276.75 158.3 276.85 158.45 276.9 158.55 Q274.7 159.4 272.5 160.35" fill="#dc9158" fill-rule="evenodd" stroke="none"/>
    <path d="M266.2 212.35 L255.65 211.2 253.45 204.1 251.6 210.6 245.35 209.3 247.95 185.85 228.2 203.5 221.05 199.7 224.85 192.5 216.95 197.0 Q213.05 194.45 209.85 191.4 L216.75 187.2 224.6 176.7 218.85 170.8 200.75 176.65 197.85 175.4 Q194.95 169.85 193.35 163.65 L195.75 165.6 208.7 161.8 208.3 154.35 200.4 150.7 192.25 158.45 Q189.35 143.3 192.8 125.1 200.6 136.9 215.75 143.1 228.6 148.3 243.3 149.35 258.0 150.35 270.75 145.05 L273.3 152.4 Q273.05 152.65 272.4 155.3 272.0 156.65 272.25 158.65 L267.6 163.55 273.15 162.7 273.15 162.75 Q274.35 166.75 276.2 168.0 L274.65 168.25 274.3 169.35 279.9 170.9 280.45 172.55 Q253.55 176.9 266.2 212.35 M342.85 319.2 L337.8 319.25 339.85 315.65 339.75 315.65 338.0 313.45 341.4 312.5 342.85 319.2 M260.8 163.5 L248.5 167.7 256.5 167.65 260.8 163.5" fill="#adbac6" fill-rule="evenodd" stroke="none"/>
    <path d="M273.15 162.7 L272.5 160.35 Q274.7 159.4 276.9 158.55 277.5 159.6 279.9 159.9 282.55 160.1 285.75 159.15 289.0 158.25 290.85 156.7 292.65 155.15 292.3 153.9 L292.25 153.8 291.75 153.0 291.55 152.85 292.35 152.75 292.85 153.75 Q295.55 160.35 292.4 168.35 L292.25 168.45 289.8 169.45 Q284.3 171.2 279.35 169.5 L276.85 168.4 276.45 168.15 276.2 168.0 Q274.35 166.75 273.15 162.75 L273.15 162.7" fill="#ebc0a0" fill-rule="evenodd" stroke="none"/>
    <path d="M270.2 143.5 Q268.8 143.05 269.65 142.1 L272.9 141.35 278.4 139.95 288.45 137.4 Q289.25 137.85 288.9 138.7 L270.2 143.5 M289.35 139.95 L291.1 139.05 299.05 153.5 296.2 152.95 295.85 152.25 Q294.85 150.4 294.0 149.45 L291.85 147.1 289.85 141.4 289.35 139.95 M306.25 166.4 L298.65 166.8 298.05 165.0 300.45 162.45 300.1 161.1 298.55 161.65 Q298.65 160.35 297.85 157.6 L300.0 155.1 306.25 166.4 M300.9 173.05 Q302.15 173.7 301.5 174.75 L283.45 181.0 Q282.25 180.4 282.8 179.15 L295.85 174.8 300.9 173.05" fill="#71879b" fill-rule="evenodd" stroke="none"/>
    <path d="M270.5 144.4 L270.2 143.5 288.9 138.7 289.35 139.95 289.85 141.4 270.5 144.4 M298.65 166.8 L300.9 173.05 295.85 174.8 281.2 174.7 280.45 172.55 279.9 170.9 284.5 172.3 294.15 169.35 298.05 165.0 298.65 166.8 M341.55 305.45 L344.4 319.15 342.85 319.2 341.4 312.5 338.0 313.45 335.25 310.0 Q338.5 308.2 341.55 305.45" fill="#323f47" fill-rule="evenodd" stroke="none"/>
    <path d="M276.9 158.55 L276.85 158.45 292.25 153.8 292.3 153.9 Q292.65 155.15 290.85 156.7 289.0 158.25 285.75 159.15 282.55 160.1 279.9 159.9 277.5 159.6 276.9 158.55" fill="#b32d2d" fill-rule="evenodd" stroke="none"/>
    <path d="M276.7 157.55 Q284.15 153.75 291.75 153.0 L292.25 153.8 276.85 158.45 276.75 158.3 276.7 157.55" fill="#932424" fill-rule="evenodd" stroke="none"/>
    <path d="M292.35 152.75 L295.45 152.45 296.2 152.95 296.1 152.95 296.1 153.0 297.4 156.1 297.85 157.6 Q298.65 160.35 298.55 161.65 L298.4 162.15 297.7 163.9 Q295.65 166.75 292.4 168.35 295.55 160.35 292.85 153.75 L292.35 152.75" fill="#faefe7" fill-rule="evenodd" stroke="none"/>
    <path d="M282.25 119.8 L288.45 137.4 278.4 139.95 282.25 119.8 M301.5 174.75 L303.15 179.4 287.65 181.9 283.95 182.45 283.45 181.0 301.5 174.75 M329.2 253.75 L331.0 259.0 317.95 266.9 314.5 268.95 312.15 262.35 315.7 260.55 329.2 253.75 M333.65 266.5 L337.0 275.9 323.75 283.4 320.3 285.4 317.25 276.75 320.65 274.6 333.65 266.5 M338.5 280.35 L340.95 287.25 Q342.15 286.4 343.45 285.6 L347.85 298.25 Q344.85 302.35 341.6 305.4 L341.55 305.45 Q338.5 308.2 335.25 310.0 332.6 311.45 329.85 312.25 L329.45 312.4 329.7 311.9 340.4 292.85 342.15 290.8 340.95 287.25 342.15 290.8 340.4 292.85 Q335.75 297.6 329.7 300.2 327.9 301.0 326.1 301.6 L325.7 300.65 325.0 298.55 322.85 292.5 326.1 290.05 338.5 280.35" fill="#42392b" fill-rule="evenodd" stroke="none"/>
    <path d="M255.65 211.2 L257.1 215.65 252.4 221.85 250.2 215.25 251.6 210.6 255.65 211.2 M209.85 191.4 L204.35 194.85 188.5 193.55 188.85 185.6 181.15 179.1 184.45 169.95 197.85 175.4 Q202.4 184.4 209.85 191.4 M193.35 163.65 L189.95 160.65 189.85 160.55 192.25 158.45 Q192.65 161.05 193.35 163.65 M176.0 148.25 L180.65 144.05 188.0 148.2 185.2 155.75 180.45 156.15 176.0 148.25" fill="#e7e7de" fill-rule="evenodd" stroke="none"/>
    <path d="M192.8 125.1 Q190.55 122.35 187.1 110.4 182.15 93.05 191.6 67.75 153.45 131.6 170.4 177.1 182.05 208.8 218.95 223.5 L233.4 212.15 230.1 227.4 Q252.2 233.85 280.1 234.3 270.5 223.6 266.2 212.35 253.55 176.9 280.45 172.55 L281.2 174.7 282.8 179.15 295.85 174.8 300.9 173.05 Q302.15 173.7 301.5 174.75 L303.15 179.4 329.2 253.75 331.0 259.0 333.65 266.5 337.0 275.9 338.5 280.35 340.95 287.25 Q342.15 286.4 343.45 285.6 L347.85 298.25 Q344.85 302.35 341.6 305.4 L341.55 305.45 344.4 319.15 342.85 319.2 337.8 319.25 334.05 319.35 339.75 315.65 338.0 313.45 335.25 310.0 Q332.6 311.45 329.85 312.25 L329.45 312.4 M192.8 125.1 Q200.6 136.9 215.75 143.1 228.6 148.3 243.3 149.35 258.0 150.35 270.75 145.05 L270.5 144.4 270.2 143.5 Q268.8 143.05 269.65 142.1 L262.1 120.65 265.65 116.55 277.25 114.25 278.9 114.95 280.8 115.75 282.25 119.8 288.45 137.4 Q289.25 137.85 288.9 138.7 L289.35 139.95 291.1 139.05 296.0 136.65 Q298.95 134.9 300.1 132.9 L300.85 131.15 Q303.05 124.65 295.95 116.5 317.5 130.45 322.55 144.9 325.7 154.15 322.6 164.35 320.1 172.2 313.7 180.95 315.8 177.1 313.45 172.4 311.1 167.75 307.85 166.8 L306.25 166.4 298.65 166.8 300.9 173.05 M329.35 312.4 L326.8 312.95 322.3 300.35 325.0 298.55 322.85 292.5 320.3 285.4 317.25 276.75 314.5 268.95 312.15 262.35 283.95 182.45 283.45 181.0 Q282.25 180.4 282.8 179.15 M272.3 158.95 L272.1 159.5 272.35 159.4 272.3 158.95 272.25 158.65 267.6 163.55 273.15 162.7 272.5 160.35 272.35 159.4 Q274.25 158.35 276.25 157.5 L276.7 157.25 276.7 157.55 Q284.15 153.75 291.75 153.0 L291.55 152.85 292.35 152.75 295.45 152.45 Q293.5 150.95 292.5 149.9 L290.25 147.95 Q285.75 145.0 281.4 145.85 276.9 146.65 274.6 152.1 L273.9 153.9 272.35 158.65 272.3 158.95 M276.2 168.0 Q274.35 166.75 273.15 162.75 L273.15 162.7 M292.25 168.45 L289.8 169.45 Q284.3 171.2 279.35 169.5 L276.85 168.4 276.45 168.15 276.2 168.0 274.65 168.25 274.3 169.35 279.9 170.9 284.5 172.3 294.15 169.35 298.05 165.0 300.45 162.45 300.1 161.1 298.55 161.65 298.4 162.15 297.7 163.9 Q295.65 166.75 292.4 168.35 M289.35 139.95 L289.85 141.4 291.85 147.1 294.0 149.45 Q294.85 150.4 295.85 152.25 L296.2 152.95 299.05 153.5 301.0 153.8 300.0 155.1 297.85 157.6 Q298.65 160.35 298.55 161.65 M269.65 142.1 L272.9 141.35 278.4 139.95 288.45 137.4 M276.85 158.45 L276.75 158.3 276.7 157.55 276.25 157.5 M276.9 158.55 L276.85 158.45 M292.25 153.8 L291.75 153.0 M272.25 158.65 Q272.0 156.65 272.4 155.3 273.05 152.65 273.3 152.4 L270.75 145.05 M292.25 153.8 L292.3 153.9 Q292.65 155.15 290.85 156.7 289.0 158.25 285.75 159.15 282.55 160.1 279.9 159.9 277.5 159.6 276.9 158.55 M295.45 152.45 L295.85 152.25 M296.2 152.95 L296.1 152.95 296.1 153.0 297.4 156.1 297.85 157.6 M296.2 152.95 L295.45 152.45 M273.3 152.4 Q274.95 144.6 280.65 143.6 286.05 142.55 291.85 147.1 M270.2 143.5 L288.9 138.7 M298.05 165.0 L298.65 166.8 M279.9 170.9 L280.45 172.55 M283.45 181.0 L301.5 174.75 M317.25 276.75 L320.65 274.6 333.65 266.5 M317.95 266.9 L314.5 268.95 M317.95 266.9 L331.0 259.0 M315.7 260.55 L312.15 262.35 M329.2 253.75 L315.7 260.55 M340.95 287.25 L342.15 290.8 340.4 292.85 Q335.75 297.6 329.7 300.2 327.9 301.0 326.1 301.6 M320.3 285.4 L323.75 283.4 337.0 275.9 M322.85 292.5 L326.1 290.05 338.5 280.35 M335.25 310.0 Q338.5 308.2 341.55 305.45 M325.0 298.55 L325.7 300.65" fill="none" stroke="#000000" stroke-linecap="round" stroke-linejoin="round" stroke-opacity="0.2509804" stroke-width="0.05"/>
  </g>
</svg>
