<?xml version="1.0" encoding="UTF-8" standalone="no"?>
<svg xmlns:xlink="http://www.w3.org/1999/xlink" height="9.8px" width="16.0px" xmlns="http://www.w3.org/2000/svg">
  <g transform="matrix(1.0, 0.0, 0.0, 1.0, 0.25, 0.25)">
    <path d="M15.5 6.7 Q15.5 5.1 14.35 3.3 L10.8 2.85 Q5.6 2.0 0.0 0.0 L0.15 0.05 Q8.1 4.8 15.5 6.7" fill="#cac55e" fill-rule="evenodd" stroke="none"/>
    <path d="M15.25 8.35 L15.5 6.7 Q8.1 4.8 0.15 0.05 2.7 2.65 6.05 4.8 10.85 7.1 15.25 8.35" fill="#c7dba2" fill-rule="evenodd" stroke="none"/>
    <path d="M6.05 4.8 Q8.95 6.7 12.4 8.3 13.5 8.8 14.75 9.3 L15.25 8.35 Q10.85 7.1 6.05 4.8" fill="#e1ecce" fill-rule="evenodd" stroke="none"/>
    <path d="M6.05 4.8 Q8.95 6.7 12.4 8.3 13.5 8.8 14.75 9.3 L15.25 8.35 15.5 6.7 Q15.5 5.1 14.35 3.3 L10.8 2.85 Q5.6 2.0 0.0 0.0 L0.15 0.05 Q2.7 2.65 6.05 4.8 Z" fill="none" stroke="#000000" stroke-linecap="round" stroke-linejoin="round" stroke-opacity="0.3019608" stroke-width="0.5"/>
  </g>
</svg>
