<?xml version="1.0" encoding="UTF-8" standalone="no"?>
<svg xmlns:xlink="http://www.w3.org/1999/xlink" height="89.55px" width="81.3px" xmlns="http://www.w3.org/2000/svg">
  <g transform="matrix(1.0, 0.0, 0.0, 1.0, -234.3, -155.7)">
    <path d="M287.95 180.25 L287.8 180.0 287.6 179.9 Q282.7 174.5 275.25 172.2 L274.25 171.95 Q266.1 171.0 266.65 188.95 L266.7 189.7 Q267.3 196.65 279.75 191.45 L280.65 191.15 Q292.05 187.45 287.95 180.25 M296.65 242.95 L293.9 244.95 Q295.15 235.6 279.95 237.7 L273.65 232.15 Q286.5 222.6 285.65 213.3 298.2 214.9 305.95 210.15 L315.3 217.2 Q295.65 228.9 296.65 242.95 M269.95 158.1 Q280.85 160.85 289.95 156.0 292.55 185.4 309.8 209.0 290.35 187.7 263.1 229.75 264.55 219.4 259.25 213.55 261.05 212.6 262.85 211.0 266.0 208.2 265.85 206.5 265.65 204.75 264.7 202.4 263.7 200.0 261.15 199.95 258.6 199.9 255.5 202.7 252.5 205.35 251.3 208.4 248.8 207.45 245.85 206.85 L245.75 206.7 Q248.8 194.0 234.6 188.15 247.95 175.15 252.6 161.9 257.65 161.05 259.85 157.7 265.15 161.2 269.95 158.1 M269.25 163.6 Q267.85 161.8 265.35 161.85 262.85 161.85 261.25 164.4 259.6 166.9 259.15 168.4 258.7 169.9 260.4 171.8 262.05 173.7 264.55 173.85 267.1 173.95 267.15 172.0 267.15 170.05 268.9 167.75 270.6 165.45 269.25 163.6 M255.0 188.95 Q252.45 191.75 257.75 193.9 L258.1 194.1 Q262.5 196.45 264.25 192.45 L264.3 192.3 264.3 192.2 Q265.1 188.6 264.05 185.3 L263.9 184.85 263.6 184.45 Q261.55 182.4 255.3 188.7 L255.0 188.95" fill="#a63200" fill-rule="evenodd" stroke="none"/>
    <path d="M287.95 180.25 Q292.05 187.45 280.65 191.15 L279.75 191.45 Q267.3 196.65 266.7 189.7 L266.65 188.95 Q266.1 171.0 274.25 171.95 L275.25 172.2 Q282.7 174.5 287.6 179.9 L287.8 180.0 287.95 180.25" fill="#d74100" fill-rule="evenodd" stroke="none"/>
    <path d="M255.0 188.95 L255.3 188.7 Q261.55 182.4 263.6 184.45 L263.9 184.85 264.05 185.3 Q265.1 188.6 264.3 192.2 L264.3 192.3 264.25 192.45 Q262.5 196.45 258.1 194.1 L257.75 193.9 Q252.45 191.75 255.0 188.95" fill="#ff7a42" fill-rule="evenodd" stroke="none"/>
    <path d="M296.65 242.95 L293.9 244.95 Q295.15 235.6 279.95 237.7 L273.65 232.15 Q286.5 222.6 285.65 213.3 298.2 214.9 305.95 210.15 L315.3 217.2 Q295.65 228.9 296.65 242.95 M269.95 158.1 Q280.85 160.85 289.95 156.0 292.55 185.4 309.8 209.0 290.35 187.7 263.1 229.75 264.55 219.4 259.25 213.55 261.05 212.6 262.85 211.0 266.0 208.2 265.85 206.5 265.65 204.75 264.7 202.4 263.7 200.0 261.15 199.95 258.6 199.9 255.5 202.7 252.5 205.35 251.3 208.4 248.8 207.45 245.85 206.85 L245.75 206.7 Q248.8 194.0 234.6 188.15 247.95 175.15 252.6 161.9 M269.25 163.6 Q270.6 165.45 268.9 167.75 267.15 170.05 267.15 172.0 267.1 173.95 264.55 173.85 262.05 173.7 260.4 171.8 258.7 169.9 259.15 168.4 259.6 166.9 261.25 164.4 262.85 161.85 265.35 161.85 267.85 161.8 269.25 163.6" fill="none" stroke="#000000" stroke-linecap="round" stroke-linejoin="round" stroke-opacity="0.3529412" stroke-width="0.6000000000000001"/>
    <path d="M252.6 161.9 Q257.65 161.05 259.85 157.7 265.15 161.2 269.95 158.1" fill="none" stroke="#000000" stroke-linecap="round" stroke-linejoin="round" stroke-opacity="0.3529412" stroke-width="0.6000000000000001"/>
  </g>
</svg>
