<?xml version="1.0" encoding="UTF-8" standalone="no"?>
<svg xmlns:xlink="http://www.w3.org/1999/xlink" height="126.7px" width="124.1px" xmlns="http://www.w3.org/2000/svg">
  <g transform="matrix(1.0, 0.0, 0.0, 1.0, -212.9, -154.75)">
    <path d="M255.2 278.8 Q246.85 276.15 246.85 272.4 246.85 268.65 255.2 265.95 263.5 263.35 275.25 263.35 287.0 263.35 295.35 265.95 303.65 268.65 303.65 272.4 303.65 276.15 295.35 278.8 287.0 281.45 275.25 281.45 263.5 281.45 255.2 278.8" fill="#333333" fill-opacity="0.7411765" fill-rule="evenodd" stroke="none"/>
    <path d="M249.6 218.25 L243.65 220.55 Q239.3 222.3 235.45 224.5 229.8 227.75 225.3 231.95" fill="none" stroke="#000000" stroke-linecap="round" stroke-linejoin="round" stroke-opacity="0.41960785" stroke-width="0.05"/>
    <path d="M223.6 232.4 Q224.15 232.85 225.65 232.4 229.4 230.4 230.2 227.5 L228.1 227.6 Q228.65 229.7 223.6 232.4" fill="#cc9900" fill-rule="evenodd" stroke="none"/>
    <path d="M223.6 232.4 Q228.65 229.7 228.1 227.6 225.5 228.1 223.6 230.5 223.05 231.9 223.6 232.4" fill="#ffcc33" fill-rule="evenodd" stroke="none"/>
    <path d="M228.1 227.6 L230.2 227.5 Q229.4 230.4 225.65 232.4 224.15 232.85 223.6 232.4 223.05 231.9 223.6 230.5 225.5 228.1 228.1 227.6 Z" fill="none" stroke="#000000" stroke-linecap="round" stroke-linejoin="round" stroke-opacity="0.41960785" stroke-width="0.05"/>
    <path d="M228.75 231.5 Q229.35 231.8 230.75 231.1 233.75 228.45 233.7 225.65 L231.75 226.2 Q232.85 227.95 228.75 231.5" fill="#cc9900" fill-rule="evenodd" stroke="none"/>
    <path d="M228.75 231.5 Q232.85 227.95 231.75 226.2 229.3 227.2 228.15 229.8 228.0 231.2 228.75 231.5" fill="#ffcc33" fill-rule="evenodd" stroke="none"/>
    <path d="M231.75 226.2 L233.7 225.65 Q233.75 228.45 230.75 231.1 229.35 231.8 228.75 231.5 228.0 231.2 228.15 229.8 229.3 227.2 231.75 226.2 Z" fill="none" stroke="#000000" stroke-linecap="round" stroke-linejoin="round" stroke-opacity="0.41960785" stroke-width="0.05"/>
    <path d="M232.65 231.55 Q233.4 231.65 234.5 230.55 236.75 226.95 236.0 224.0 234.95 224.45 234.2 225.1 235.75 226.65 232.65 231.55" fill="#cc9900" fill-rule="evenodd" stroke="none"/>
    <path d="M232.65 231.55 Q235.75 226.65 234.2 225.1 232.15 226.85 231.65 229.9 231.95 231.4 232.65 231.55" fill="#ffcc33" fill-rule="evenodd" stroke="none"/>
    <path d="M234.2 225.1 Q234.95 224.45 236.0 224.0 236.75 226.95 234.5 230.55 233.4 231.65 232.65 231.55 231.95 231.4 231.65 229.9 232.15 226.85 234.2 225.1 Z" fill="none" stroke="#000000" stroke-linecap="round" stroke-linejoin="round" stroke-opacity="0.41960785" stroke-width="0.05"/>
    <path d="M236.8 230.8 Q237.55 230.7 238.35 229.35 239.55 225.2 238.05 222.65 L236.6 224.15 Q238.5 225.25 236.8 230.8" fill="#cc9900" fill-rule="evenodd" stroke="none"/>
    <path d="M236.8 230.8 Q238.5 225.25 236.6 224.15 235.05 226.4 235.45 229.45 236.1 230.8 236.8 230.8" fill="#ffcc33" fill-rule="evenodd" stroke="none"/>
    <path d="M236.6 224.15 L238.05 222.65 Q239.55 225.2 238.35 229.35 237.55 230.7 236.8 230.8 236.1 230.8 235.45 229.45 235.05 226.4 236.6 224.15 Z" fill="none" stroke="#000000" stroke-linecap="round" stroke-linejoin="round" stroke-opacity="0.41960785" stroke-width="0.05"/>
    <path d="M239.5 229.0 Q240.25 228.9 241.1 227.65 242.4 223.95 241.0 221.7 L239.5 223.1 Q241.4 224.05 239.5 229.0" fill="#cc9900" fill-rule="evenodd" stroke="none"/>
    <path d="M239.5 229.0 Q241.4 224.05 239.5 223.1 237.9 225.15 238.2 227.85 238.8 229.0 239.5 229.0" fill="#ffcc33" fill-rule="evenodd" stroke="none"/>
    <path d="M239.5 223.1 L241.0 221.7 Q242.4 223.95 241.1 227.65 240.25 228.9 239.5 229.0 238.8 229.0 238.2 227.85 237.9 225.15 239.5 223.1 Z" fill="none" stroke="#000000" stroke-linecap="round" stroke-linejoin="round" stroke-opacity="0.41960785" stroke-width="0.05"/>
    <path d="M226.55 226.55 Q226.7 225.9 227.95 225.15 231.45 224.1 233.35 225.65 L231.9 226.95 Q231.3 225.1 226.55 226.55" fill="#cc9900" fill-rule="evenodd" stroke="none"/>
    <path d="M226.55 226.55 Q231.3 225.1 231.9 226.95 229.8 228.4 227.35 227.9 226.35 227.25 226.55 226.55" fill="#ffcc33" fill-rule="evenodd" stroke="none"/>
    <path d="M231.9 226.95 L233.35 225.65 Q231.45 224.1 227.95 225.15 226.7 225.9 226.55 226.55 226.35 227.25 227.35 227.9 229.8 228.4 231.9 226.95 Z" fill="none" stroke="#000000" stroke-linecap="round" stroke-linejoin="round" stroke-opacity="0.41960785" stroke-width="0.05"/>
    <path d="M228.25 222.95 Q228.55 222.35 230.1 222.05 234.4 222.4 236.25 224.75 235.25 225.3 234.3 225.55 234.0 223.35 228.25 222.95" fill="#cc9900" fill-rule="evenodd" stroke="none"/>
    <path d="M228.25 222.95 Q234.0 223.35 234.3 225.55 231.7 226.2 228.95 224.7 227.9 223.65 228.25 222.95" fill="#ffcc33" fill-rule="evenodd" stroke="none"/>
    <path d="M234.3 225.55 Q235.25 225.3 236.25 224.75 234.4 222.4 230.1 222.05 228.55 222.35 228.25 222.95 227.9 223.65 228.95 224.7 231.7 226.2 234.3 225.55 Z" fill="none" stroke="#000000" stroke-linecap="round" stroke-linejoin="round" stroke-opacity="0.41960785" stroke-width="0.05"/>
    <path d="M231.7 220.45 Q232.2 219.9 233.7 220.0 237.5 221.2 238.5 223.8 L236.55 224.1 Q236.9 222.0 231.7 220.45" fill="#cc9900" fill-rule="evenodd" stroke="none"/>
    <path d="M231.7 220.45 Q236.9 222.0 236.55 224.1 233.95 224.15 231.9 222.2 231.25 221.0 231.7 220.45" fill="#ffcc33" fill-rule="evenodd" stroke="none"/>
    <path d="M236.55 224.1 L238.5 223.8 Q237.5 221.2 233.7 220.0 232.2 219.9 231.7 220.45 231.25 221.0 231.9 222.2 233.95 224.15 236.55 224.1 Z" fill="none" stroke="#000000" stroke-linecap="round" stroke-linejoin="round" stroke-opacity="0.41960785" stroke-width="0.05"/>
    <path d="M234.35 219.0 Q234.85 218.45 236.35 218.45 239.95 219.5 240.85 221.95 L238.95 222.3 Q239.35 220.25 234.35 219.0" fill="#cc9900" fill-rule="evenodd" stroke="none"/>
    <path d="M234.35 219.0 Q239.35 220.25 238.95 222.3 236.4 222.45 234.5 220.65 233.9 219.5 234.35 219.0" fill="#ffcc33" fill-rule="evenodd" stroke="none"/>
    <path d="M238.95 222.3 L240.85 221.95 Q239.95 219.5 236.35 218.45 234.85 218.45 234.35 219.0 233.9 219.5 234.5 220.65 236.4 222.45 238.95 222.3 Z" fill="none" stroke="#000000" stroke-linecap="round" stroke-linejoin="round" stroke-opacity="0.41960785" stroke-width="0.05"/>
    <path d="M241.9 227.5 Q242.65 227.4 243.5 226.15 244.8 222.45 243.4 220.2 L241.9 221.6 Q243.8 222.55 241.9 227.5" fill="#cc9900" fill-rule="evenodd" stroke="none"/>
    <path d="M241.9 227.5 Q243.8 222.55 241.9 221.6 240.3 223.65 240.6 226.35 241.2 227.5 241.9 227.5" fill="#ffcc33" fill-rule="evenodd" stroke="none"/>
    <path d="M241.9 221.6 L243.4 220.2 Q244.8 222.45 243.5 226.15 242.65 227.4 241.9 227.5 241.2 227.5 240.6 226.35 240.3 223.65 241.9 221.6 Z" fill="none" stroke="#000000" stroke-linecap="round" stroke-linejoin="round" stroke-opacity="0.41960785" stroke-width="0.05"/>
    <path d="M236.7 217.45 Q237.2 216.9 238.7 216.9 242.3 217.95 243.2 220.4 L241.3 220.75 Q241.7 218.7 236.7 217.45" fill="#cc9900" fill-rule="evenodd" stroke="none"/>
    <path d="M236.7 217.45 Q241.7 218.7 241.3 220.75 238.75 220.9 236.85 219.1 236.25 217.95 236.7 217.45" fill="#ffcc33" fill-rule="evenodd" stroke="none"/>
    <path d="M241.3 220.75 L243.2 220.4 Q242.3 217.95 238.7 216.9 237.2 216.9 236.7 217.45 236.25 217.95 236.85 219.1 238.75 220.9 241.3 220.75 Z" fill="none" stroke="#000000" stroke-linecap="round" stroke-linejoin="round" stroke-opacity="0.41960785" stroke-width="0.05"/>
    <path d="M244.6 226.9 Q245.35 226.8 246.2 225.55 247.5 221.85 246.1 219.6 L244.6 221.0 Q246.5 221.95 244.6 226.9" fill="#cc9900" fill-rule="evenodd" stroke="none"/>
    <path d="M244.6 226.9 Q246.5 221.95 244.6 221.0 243.0 223.05 243.3 225.75 243.9 226.9 244.6 226.9" fill="#ffcc33" fill-rule="evenodd" stroke="none"/>
    <path d="M244.6 221.0 L246.1 219.6 Q247.5 221.85 246.2 225.55 245.35 226.8 244.6 226.9 243.9 226.9 243.3 225.75 243.0 223.05 244.6 221.0 Z" fill="none" stroke="#000000" stroke-linecap="round" stroke-linejoin="round" stroke-opacity="0.41960785" stroke-width="0.05"/>
    <path d="M239.4 216.9 Q239.9 216.35 241.4 216.35 245.0 217.4 245.9 219.85 L244.0 220.2 Q244.4 218.15 239.4 216.9" fill="#cc9900" fill-rule="evenodd" stroke="none"/>
    <path d="M239.4 216.9 Q244.4 218.15 244.0 220.2 241.45 220.35 239.55 218.55 238.95 217.4 239.4 216.9" fill="#ffcc33" fill-rule="evenodd" stroke="none"/>
    <path d="M244.0 220.2 L245.9 219.85 Q245.0 217.4 241.4 216.35 239.9 216.35 239.4 216.9 238.95 217.4 239.55 218.55 241.45 220.35 244.0 220.2 Z" fill="none" stroke="#000000" stroke-linecap="round" stroke-linejoin="round" stroke-opacity="0.41960785" stroke-width="0.05"/>
    <path d="M251.7 211.65 L243.2 212.6 Q236.95 213.4 231.2 214.95 222.75 217.25 215.45 221.3" fill="none" stroke="#000000" stroke-linecap="round" stroke-linejoin="round" stroke-opacity="0.41960785" stroke-width="0.05"/>
    <path d="M213.1 221.35 Q213.65 222.15 215.75 222.15 221.3 220.8 223.35 217.2 221.95 216.65 220.65 216.55 220.65 219.55 213.1 221.35" fill="#cc9900" fill-rule="evenodd" stroke="none"/>
    <path d="M213.1 221.35 Q220.65 219.55 220.65 216.55 217.0 216.25 213.7 218.8 212.5 220.5 213.1 221.35" fill="#ffcc33" fill-rule="evenodd" stroke="none"/>
    <path d="M220.65 216.55 Q221.95 216.65 223.35 217.2 221.3 220.8 215.75 222.15 213.65 222.15 213.1 221.35 212.5 220.5 213.7 218.8 217.0 216.25 220.65 216.55 Z" fill="none" stroke="#000000" stroke-linecap="round" stroke-linejoin="round" stroke-opacity="0.41960785" stroke-width="0.05"/>
    <path d="M220.0 222.0 L222.75 222.15 Q227.6 219.7 228.5 215.9 L225.8 215.95 Q226.6 218.75 220.0 222.0" fill="#cc9900" fill-rule="evenodd" stroke="none"/>
    <path d="M220.0 222.0 Q226.6 218.75 225.8 215.95 222.25 216.45 219.9 219.55 219.25 221.35 220.0 222.0" fill="#ffcc33" fill-rule="evenodd" stroke="none"/>
    <path d="M225.8 215.95 L228.5 215.9 Q227.6 219.7 222.75 222.15 L220.0 222.0 Q219.25 221.35 219.9 219.55 222.25 216.45 225.8 215.95 Z" fill="none" stroke="#000000" stroke-linecap="round" stroke-linejoin="round" stroke-opacity="0.41960785" stroke-width="0.05"/>
    <path d="M225.25 223.4 Q226.15 223.85 228.0 222.8 232.15 218.65 232.15 214.45 230.7 214.75 229.5 215.3 231.0 217.95 225.25 223.4" fill="#cc9900" fill-rule="evenodd" stroke="none"/>
    <path d="M225.25 223.4 Q231.0 217.95 229.5 215.3 226.2 216.95 224.55 220.9 224.35 223.0 225.25 223.4" fill="#ffcc33" fill-rule="evenodd" stroke="none"/>
    <path d="M229.5 215.3 Q230.7 214.75 232.15 214.45 232.15 218.65 228.0 222.8 226.15 223.85 225.25 223.4 224.35 223.0 224.55 220.9 226.2 216.95 229.5 215.3 Z" fill="none" stroke="#000000" stroke-linecap="round" stroke-linejoin="round" stroke-opacity="0.41960785" stroke-width="0.05"/>
    <path d="M230.95 223.9 Q231.9 224.05 233.4 222.55 236.35 217.45 235.3 213.35 L232.95 214.95 Q235.05 217.05 230.95 223.9" fill="#cc9900" fill-rule="evenodd" stroke="none"/>
    <path d="M230.95 223.9 Q235.05 217.05 232.95 214.95 230.15 217.35 229.6 221.6 229.95 223.7 230.95 223.9" fill="#ffcc33" fill-rule="evenodd" stroke="none"/>
    <path d="M232.95 214.95 L235.3 213.35 Q236.35 217.45 233.4 222.55 231.9 224.05 230.95 223.9 229.95 223.7 229.6 221.6 230.15 217.35 232.95 214.95 Z" fill="none" stroke="#000000" stroke-linecap="round" stroke-linejoin="round" stroke-opacity="0.41960785" stroke-width="0.05"/>
    <path d="M235.05 222.5 Q236.0 222.65 237.5 221.3 240.45 216.8 239.4 213.2 238.05 213.85 237.05 214.6 239.15 216.5 235.05 222.5" fill="#cc9900" fill-rule="evenodd" stroke="none"/>
    <path d="M235.05 222.5 Q239.15 216.5 237.05 214.6 234.25 216.75 233.7 220.5 234.05 222.3 235.05 222.5" fill="#ffcc33" fill-rule="evenodd" stroke="none"/>
    <path d="M237.05 214.6 Q238.05 213.85 239.4 213.2 240.45 216.8 237.5 221.3 236.0 222.65 235.05 222.5 234.05 222.3 233.7 220.5 234.25 216.75 237.05 214.6 Z" fill="none" stroke="#000000" stroke-linecap="round" stroke-linejoin="round" stroke-opacity="0.41960785" stroke-width="0.05"/>
    <path d="M218.9 214.55 Q219.4 213.7 221.25 213.2 226.15 213.1 228.1 215.75 L225.75 217.0 Q225.6 214.3 218.9 214.55" fill="#cc9900" fill-rule="evenodd" stroke="none"/>
    <path d="M218.9 214.55 Q225.6 214.3 225.75 217.0 222.55 218.15 219.55 216.65 218.4 215.45 218.9 214.55" fill="#ffcc33" fill-rule="evenodd" stroke="none"/>
    <path d="M225.75 217.0 L228.1 215.75 Q226.15 213.1 221.25 213.2 219.4 213.7 218.9 214.55 218.4 215.45 219.55 216.65 222.55 218.15 225.75 217.0 Z" fill="none" stroke="#000000" stroke-linecap="round" stroke-linejoin="round" stroke-opacity="0.41960785" stroke-width="0.05"/>
    <path d="M222.45 210.35 Q223.1 209.6 225.15 209.8 230.55 211.8 232.25 215.6 L229.45 215.9 Q229.8 212.9 222.45 210.35" fill="#cc9900" fill-rule="evenodd" stroke="none"/>
    <path d="M222.45 210.35 Q229.8 212.9 229.45 215.9 225.8 215.85 222.8 212.95 221.75 211.15 222.45 210.35" fill="#ffcc33" fill-rule="evenodd" stroke="none"/>
    <path d="M229.45 215.9 L232.25 215.6 Q230.55 211.8 225.15 209.8 223.1 209.6 222.45 210.35 221.75 211.15 222.8 212.95 225.8 215.85 229.45 215.9 Z" fill="none" stroke="#000000" stroke-linecap="round" stroke-linejoin="round" stroke-opacity="0.41960785" stroke-width="0.05"/>
    <path d="M227.8 208.2 L230.5 208.3 Q235.0 211.3 235.45 215.15 L232.8 214.85 Q233.9 212.15 227.8 208.2" fill="#cc9900" fill-rule="evenodd" stroke="none"/>
    <path d="M227.8 208.2 Q233.9 212.15 232.8 214.85 229.4 214.05 227.35 210.65 227.0 208.8 227.8 208.2" fill="#ffcc33" fill-rule="evenodd" stroke="none"/>
    <path d="M232.8 214.85 L235.45 215.15 Q235.0 211.3 230.5 208.3 L227.8 208.2 Q227.0 208.8 227.35 210.65 229.4 214.05 232.8 214.85 Z" fill="none" stroke="#000000" stroke-linecap="round" stroke-linejoin="round" stroke-opacity="0.41960785" stroke-width="0.05"/>
    <path d="M231.8 207.2 Q232.55 206.65 234.45 207.2 238.8 209.9 239.2 213.5 L236.5 213.3 Q237.7 210.7 231.8 207.2" fill="#cc9900" fill-rule="evenodd" stroke="none"/>
    <path d="M231.8 207.2 Q237.7 210.7 236.5 213.3 233.2 212.65 231.3 209.55 230.95 207.75 231.8 207.2" fill="#ffcc33" fill-rule="evenodd" stroke="none"/>
    <path d="M236.5 213.3 L239.2 213.5 Q238.8 209.9 234.45 207.2 232.55 206.65 231.8 207.2 230.95 207.75 231.3 209.55 233.2 212.65 236.5 213.3 Z" fill="none" stroke="#000000" stroke-linecap="round" stroke-linejoin="round" stroke-opacity="0.41960785" stroke-width="0.05"/>
    <path d="M238.7 221.3 Q239.65 221.45 241.15 220.1 244.1 215.6 243.05 212.0 241.7 212.65 240.7 213.4 242.8 215.3 238.7 221.3" fill="#cc9900" fill-rule="evenodd" stroke="none"/>
    <path d="M238.7 221.3 Q242.8 215.3 240.7 213.4 237.9 215.55 237.35 219.3 237.7 221.1 238.7 221.3" fill="#ffcc33" fill-rule="evenodd" stroke="none"/>
    <path d="M240.7 213.4 Q241.7 212.65 243.05 212.0 244.1 215.6 241.15 220.1 239.65 221.45 238.7 221.3 237.7 221.1 237.35 219.3 237.9 215.55 240.7 213.4 Z" fill="none" stroke="#000000" stroke-linecap="round" stroke-linejoin="round" stroke-opacity="0.41960785" stroke-width="0.05"/>
    <path d="M235.45 205.95 Q236.2 205.4 238.1 205.95 242.45 208.65 242.85 212.25 L240.15 212.05 Q241.35 209.45 235.45 205.95" fill="#cc9900" fill-rule="evenodd" stroke="none"/>
    <path d="M235.45 205.95 Q241.35 209.45 240.15 212.05 236.85 211.4 234.95 208.3 234.6 206.5 235.45 205.95" fill="#ffcc33" fill-rule="evenodd" stroke="none"/>
    <path d="M240.15 212.05 L242.85 212.25 Q242.45 208.65 238.1 205.95 236.2 205.4 235.45 205.95 234.6 206.5 234.95 208.3 236.85 211.4 240.15 212.05 Z" fill="none" stroke="#000000" stroke-linecap="round" stroke-linejoin="round" stroke-opacity="0.41960785" stroke-width="0.05"/>
    <path d="M242.3 221.5 Q243.25 221.65 244.75 220.3 247.7 215.8 246.65 212.2 L244.3 213.6 Q246.4 215.5 242.3 221.5" fill="#cc9900" fill-rule="evenodd" stroke="none"/>
    <path d="M242.3 221.5 Q246.4 215.5 244.3 213.6 241.5 215.75 240.95 219.5 241.3 221.3 242.3 221.5" fill="#ffcc33" fill-rule="evenodd" stroke="none"/>
    <path d="M244.3 213.6 L246.65 212.2 Q247.7 215.8 244.75 220.3 243.25 221.65 242.3 221.5 241.3 221.3 240.95 219.5 241.5 215.75 244.3 213.6 Z" fill="none" stroke="#000000" stroke-linecap="round" stroke-linejoin="round" stroke-opacity="0.41960785" stroke-width="0.05"/>
    <path d="M239.1 206.2 Q239.85 205.65 241.75 206.2 246.1 208.9 246.5 212.5 L243.8 212.3 Q245.0 209.7 239.1 206.2" fill="#cc9900" fill-rule="evenodd" stroke="none"/>
    <path d="M239.1 206.2 Q245.0 209.7 243.8 212.3 240.5 211.65 238.6 208.55 238.25 206.75 239.1 206.2" fill="#ffcc33" fill-rule="evenodd" stroke="none"/>
    <path d="M243.8 212.3 L246.5 212.5 Q246.1 208.9 241.75 206.2 239.85 205.65 239.1 206.2 238.25 206.75 238.6 208.55 240.5 211.65 243.8 212.3 Z" fill="none" stroke="#000000" stroke-linecap="round" stroke-linejoin="round" stroke-opacity="0.41960785" stroke-width="0.05"/>
    <path d="M270.2 215.35 Q270.65 217.1 270.65 219.1 L270.65 219.9 Q270.35 225.35 266.4 229.25 262.2 233.5 256.25 233.5 250.3 233.5 246.05 229.25 L245.75 228.95 Q245.15 227.8 245.35 225.35 249.9 232.4 258.3 231.6 268.25 229.95 269.35 219.65 269.95 217.6 268.7 213.65 269.25 215.15 270.2 215.35" fill="#b5f000" fill-rule="evenodd" stroke="none"/>
    <path d="M245.75 228.95 Q241.85 224.85 241.85 219.1 241.85 213.15 246.05 208.9 L246.25 208.75 Q250.45 204.7 256.25 204.7 262.2 204.7 266.4 208.9 269.25 211.75 270.2 215.35 269.25 215.15 268.7 213.65 265.05 208.6 259.2 206.6 264.05 213.45 256.5 217.65 248.9 221.8 244.25 215.35 242.55 221.0 245.35 225.35 245.15 227.8 245.75 228.95 M254.85 211.4 Q256.2 211.4 257.15 210.6 258.1 209.8 258.1 208.65 258.1 207.5 257.15 206.7 256.2 205.9 254.85 205.9 253.5 205.9 252.55 206.7 251.6 207.5 251.6 208.65 251.6 209.8 252.55 210.6 253.5 211.4 254.85 211.4" fill="#ccff33" fill-rule="evenodd" stroke="none"/>
    <path d="M254.85 211.4 Q253.5 211.4 252.55 210.6 251.6 209.8 251.6 208.65 251.6 207.5 252.55 206.7 253.5 205.9 254.85 205.9 256.2 205.9 257.15 206.7 258.1 207.5 258.1 208.65 258.1 209.8 257.15 210.6 256.2 211.4 254.85 211.4" fill="#ffffff" fill-rule="evenodd" stroke="none"/>
    <path d="M268.7 213.65 Q269.95 217.6 269.35 219.65 268.25 229.95 258.3 231.6 249.9 232.4 245.35 225.35 242.55 221.0 244.25 215.35 248.9 221.8 256.5 217.65 264.05 213.45 259.2 206.6 265.05 208.6 268.7 213.65 M266.55 221.15 Q265.55 220.25 265.85 218.85 266.0 216.95 267.55 217.2 266.0 216.95 265.85 218.85 265.55 220.25 266.55 221.15" fill="#99cc00" fill-rule="evenodd" stroke="none"/>
    <path d="M270.2 215.35 Q270.65 217.1 270.65 219.1 L270.65 219.9 Q270.35 225.35 266.4 229.25 262.2 233.5 256.25 233.5 250.3 233.5 246.05 229.25 L245.75 228.95 Q241.85 224.85 241.85 219.1 241.85 213.15 246.05 208.9 L246.25 208.75 Q250.45 204.7 256.25 204.7 262.2 204.7 266.4 208.9 269.25 211.75 270.2 215.35" fill="none" stroke="#000000" stroke-linecap="round" stroke-linejoin="round" stroke-opacity="0.38039216" stroke-width="0.05"/>
    <path d="M267.55 217.2 Q266.0 216.95 265.85 218.85 265.55 220.25 266.55 221.15" fill="none" stroke="#000000" stroke-linecap="round" stroke-linejoin="round" stroke-opacity="0.38039216" stroke-width="0.05"/>
    <path d="M328.95 157.9 Q322.3 163.0 318.8 170.8 324.55 166.75 329.8 160.0 331.95 154.7 328.95 157.9 M316.5 172.35 Q318.5 165.55 326.75 158.1 334.95 150.6 331.45 159.8 328.2 164.7 321.15 170.1 329.45 166.25 334.2 167.15 340.7 171.25 332.0 173.6 325.05 174.7 318.1 172.85 L317.35 172.85 317.3 172.85 316.6 173.35 316.5 173.4 Q326.75 180.5 326.75 191.45 326.75 203.9 313.55 212.65 300.4 221.45 281.8 221.45 L270.05 220.5 268.75 220.25 265.7 219.55 265.7 217.85 Q273.2 219.9 281.95 219.9 299.65 219.9 312.15 211.55 324.7 203.2 324.7 191.4 324.7 179.6 312.15 171.25 299.65 162.9 281.95 162.9 264.25 162.9 251.7 171.25 239.2 179.6 239.2 191.4 239.2 200.85 247.25 208.1 L245.65 209.35 Q236.85 201.6 236.85 191.45 236.85 179.0 250.0 170.2 263.2 161.45 281.8 161.45 300.4 161.45 313.55 170.2 L316.5 172.35 M334.05 171.3 Q336.45 169.75 332.85 168.2 323.35 169.7 319.3 172.45 325.9 174.0 334.05 171.3" fill="#6f0000" fill-rule="evenodd" stroke="none"/>
    <path d="M328.95 157.9 Q331.95 154.7 329.8 160.0 324.55 166.75 318.8 170.8 322.3 163.0 328.95 157.9 M334.05 171.3 Q325.9 174.0 319.3 172.45 323.35 169.7 332.85 168.2 336.45 169.75 334.05 171.3 Z" fill="none" stroke="#990000" stroke-linecap="round" stroke-linejoin="round" stroke-width="0.05"/>
    <path d="M265.65 219.0 L273.55 222.1 Q279.4 224.45 284.6 227.4 292.15 231.75 298.15 237.45" fill="none" stroke="#000000" stroke-linecap="round" stroke-linejoin="round" stroke-opacity="0.41960785" stroke-width="0.05"/>
    <path d="M300.5 238.15 L297.75 238.25 Q292.8 235.5 291.7 231.55 L294.45 231.7 Q293.7 234.55 300.5 238.15" fill="#cc9900" fill-rule="evenodd" stroke="none"/>
    <path d="M300.5 238.15 Q293.7 234.55 294.45 231.7 298.05 232.3 300.55 235.55 301.25 237.5 300.5 238.15" fill="#ffcc33" fill-rule="evenodd" stroke="none"/>
    <path d="M294.45 231.7 L291.7 231.55 Q292.8 235.5 297.75 238.25 L300.5 238.15 Q301.25 237.5 300.55 235.55 298.05 232.3 294.45 231.7 Z" fill="none" stroke="#000000" stroke-linecap="round" stroke-linejoin="round" stroke-opacity="0.41960785" stroke-width="0.05"/>
    <path d="M293.7 237.0 Q292.8 237.4 290.95 236.5 286.95 232.85 287.05 229.05 L289.65 229.75 Q288.15 232.2 293.7 237.0" fill="#cc9900" fill-rule="evenodd" stroke="none"/>
    <path d="M293.7 237.0 Q288.15 232.2 289.65 229.75 292.9 231.15 294.45 234.7 294.6 236.6 293.7 237.0" fill="#ffcc33" fill-rule="evenodd" stroke="none"/>
    <path d="M289.65 229.75 L287.05 229.05 Q286.95 232.85 290.95 236.5 292.8 237.4 293.7 237.0 294.6 236.6 294.45 234.7 292.9 231.15 289.65 229.75 Z" fill="none" stroke="#000000" stroke-linecap="round" stroke-linejoin="round" stroke-opacity="0.41960785" stroke-width="0.05"/>
    <path d="M288.2 236.95 Q287.25 237.1 285.75 235.6 282.8 230.65 283.85 226.65 L286.2 228.15 Q284.1 230.3 288.2 236.95" fill="#cc9900" fill-rule="evenodd" stroke="none"/>
    <path d="M288.2 236.95 Q284.1 230.3 286.2 228.15 289.0 230.5 289.55 234.7 289.2 236.75 288.2 236.95" fill="#ffcc33" fill-rule="evenodd" stroke="none"/>
    <path d="M286.2 228.15 L283.85 226.65 Q282.8 230.65 285.75 235.6 287.25 237.1 288.2 236.95 289.2 236.75 289.55 234.7 289.0 230.5 286.2 228.15 Z" fill="none" stroke="#000000" stroke-linecap="round" stroke-linejoin="round" stroke-opacity="0.41960785" stroke-width="0.05"/>
    <path d="M282.6 235.95 Q281.6 235.9 280.55 234.0 279.0 228.45 281.05 224.85 L282.95 226.9 Q280.4 228.45 282.6 235.95" fill="#cc9900" fill-rule="evenodd" stroke="none"/>
    <path d="M282.6 235.95 Q280.4 228.45 282.95 226.9 285.0 229.9 284.5 234.15 283.6 236.05 282.6 235.95" fill="#ffcc33" fill-rule="evenodd" stroke="none"/>
    <path d="M282.95 226.9 L281.05 224.85 Q279.0 228.45 280.55 234.0 281.6 235.9 282.6 235.95 283.6 236.05 284.5 234.15 285.0 229.9 282.95 226.9 Z" fill="none" stroke="#000000" stroke-linecap="round" stroke-linejoin="round" stroke-opacity="0.41960785" stroke-width="0.05"/>
    <path d="M279.05 233.6 Q278.05 233.5 276.95 231.8 275.25 226.8 277.2 223.7 L279.1 225.55 Q276.6 226.85 279.05 233.6" fill="#cc9900" fill-rule="evenodd" stroke="none"/>
    <path d="M279.05 233.6 Q276.6 226.85 279.1 225.55 281.25 228.3 280.85 232.0 280.05 233.65 279.05 233.6" fill="#ffcc33" fill-rule="evenodd" stroke="none"/>
    <path d="M279.1 225.55 L277.2 223.7 Q275.25 226.8 276.95 231.8 278.05 233.5 279.05 233.6 280.05 233.65 280.85 232.0 281.25 228.3 279.1 225.55 Z" fill="none" stroke="#000000" stroke-linecap="round" stroke-linejoin="round" stroke-opacity="0.41960785" stroke-width="0.05"/>
    <path d="M296.55 230.1 Q296.35 229.2 294.65 228.2 289.9 226.8 287.35 228.9 L289.3 230.65 Q290.15 228.1 296.55 230.1" fill="#cc9900" fill-rule="evenodd" stroke="none"/>
    <path d="M296.55 230.1 Q290.15 228.1 289.3 230.65 292.1 232.6 295.4 231.95 296.75 231.1 296.55 230.1" fill="#ffcc33" fill-rule="evenodd" stroke="none"/>
    <path d="M289.3 230.65 L287.35 228.9 Q289.9 226.8 294.65 228.2 296.35 229.2 296.55 230.1 296.75 231.1 295.4 231.95 292.1 232.6 289.3 230.65 Z" fill="none" stroke="#000000" stroke-linecap="round" stroke-linejoin="round" stroke-opacity="0.41960785" stroke-width="0.05"/>
    <path d="M294.35 225.2 Q293.95 224.3 291.85 224.0 286.1 224.5 283.55 227.7 284.8 228.4 286.1 228.7 286.55 225.75 294.35 225.2" fill="#cc9900" fill-rule="evenodd" stroke="none"/>
    <path d="M294.35 225.2 Q286.55 225.75 286.1 228.7 289.65 229.65 293.35 227.6 294.75 226.15 294.35 225.2" fill="#ffcc33" fill-rule="evenodd" stroke="none"/>
    <path d="M286.1 228.7 Q284.8 228.4 283.55 227.7 286.1 224.5 291.85 224.0 293.95 224.3 294.35 225.2 294.75 226.15 293.35 227.6 289.65 229.65 286.1 228.7 Z" fill="none" stroke="#000000" stroke-linecap="round" stroke-linejoin="round" stroke-opacity="0.41960785" stroke-width="0.05"/>
    <path d="M289.7 221.8 Q289.05 221.05 287.05 221.2 281.95 222.9 280.5 226.45 L283.15 226.9 Q282.75 224.0 289.7 221.8" fill="#cc9900" fill-rule="evenodd" stroke="none"/>
    <path d="M289.7 221.8 Q282.75 224.0 283.15 226.9 286.65 226.9 289.45 224.25 290.35 222.6 289.7 221.8" fill="#ffcc33" fill-rule="evenodd" stroke="none"/>
    <path d="M283.15 226.9 L280.5 226.45 Q281.95 222.9 287.05 221.2 289.05 221.05 289.7 221.8 290.35 222.6 289.45 224.25 286.65 226.9 283.15 226.9 Z" fill="none" stroke="#000000" stroke-linecap="round" stroke-linejoin="round" stroke-opacity="0.41960785" stroke-width="0.05"/>
    <path d="M286.1 219.8 Q285.45 219.1 283.5 219.15 278.65 220.65 277.35 223.95 L279.9 224.45 Q279.45 221.65 286.1 219.8" fill="#cc9900" fill-rule="evenodd" stroke="none"/>
    <path d="M286.1 219.8 Q279.45 221.65 279.9 224.45 283.3 224.6 286.0 222.15 286.75 220.6 286.1 219.8" fill="#ffcc33" fill-rule="evenodd" stroke="none"/>
    <path d="M279.9 224.45 L277.35 223.95 Q278.65 220.65 283.5 219.15 285.45 219.1 286.1 219.8 286.75 220.6 286.0 222.15 283.3 224.6 279.9 224.45 Z" fill="none" stroke="#000000" stroke-linecap="round" stroke-linejoin="round" stroke-opacity="0.41960785" stroke-width="0.05"/>
    <path d="M275.8 231.5 Q274.8 231.4 273.7 229.7 272.0 224.7 273.95 221.6 L275.85 223.45 Q273.35 224.75 275.8 231.5" fill="#cc9900" fill-rule="evenodd" stroke="none"/>
    <path d="M275.8 231.5 Q273.35 224.75 275.85 223.45 278.0 226.2 277.6 229.9 276.8 231.55 275.8 231.5" fill="#ffcc33" fill-rule="evenodd" stroke="none"/>
    <path d="M275.85 223.45 L273.95 221.6 Q272.0 224.7 273.7 229.7 274.8 231.4 275.8 231.5 276.8 231.55 277.6 229.9 278.0 226.2 275.85 223.45 Z" fill="none" stroke="#000000" stroke-linecap="round" stroke-linejoin="round" stroke-opacity="0.41960785" stroke-width="0.05"/>
    <path d="M282.85 217.7 Q282.2 217.0 280.25 217.05 275.4 218.55 274.1 221.85 L276.65 222.35 Q276.2 219.55 282.85 217.7" fill="#cc9900" fill-rule="evenodd" stroke="none"/>
    <path d="M282.85 217.7 Q276.2 219.55 276.65 222.35 280.05 222.5 282.75 220.05 283.5 218.5 282.85 217.7" fill="#ffcc33" fill-rule="evenodd" stroke="none"/>
    <path d="M276.65 222.35 L274.1 221.85 Q275.4 218.55 280.25 217.05 282.2 217.0 282.85 217.7 283.5 218.5 282.75 220.05 280.05 222.5 276.65 222.35 Z" fill="none" stroke="#000000" stroke-linecap="round" stroke-linejoin="round" stroke-opacity="0.41960785" stroke-width="0.05"/>
    <path d="M272.25 230.8 Q271.25 230.7 270.15 229.0 268.45 224.0 270.4 220.9 L272.3 222.75 Q269.8 224.05 272.25 230.8" fill="#cc9900" fill-rule="evenodd" stroke="none"/>
    <path d="M272.25 230.8 Q269.8 224.05 272.3 222.75 274.45 225.5 274.05 229.2 273.25 230.85 272.25 230.8" fill="#ffcc33" fill-rule="evenodd" stroke="none"/>
    <path d="M272.3 222.75 L270.4 220.9 Q268.45 224.0 270.15 229.0 271.25 230.7 272.25 230.8 273.25 230.85 274.05 229.2 274.45 225.5 272.3 222.75 Z" fill="none" stroke="#000000" stroke-linecap="round" stroke-linejoin="round" stroke-opacity="0.41960785" stroke-width="0.05"/>
    <path d="M279.3 217.0 Q278.65 216.3 276.7 216.35 271.85 217.85 270.55 221.15 L273.1 221.65 Q272.65 218.85 279.3 217.0" fill="#cc9900" fill-rule="evenodd" stroke="none"/>
    <path d="M279.3 217.0 Q272.65 218.85 273.1 221.65 276.5 221.8 279.2 219.35 279.95 217.8 279.3 217.0" fill="#ffcc33" fill-rule="evenodd" stroke="none"/>
    <path d="M273.1 221.65 L270.55 221.15 Q271.85 217.85 276.7 216.35 278.65 216.3 279.3 217.0 279.95 217.8 279.2 219.35 276.5 221.8 273.1 221.65 Z" fill="none" stroke="#000000" stroke-linecap="round" stroke-linejoin="round" stroke-opacity="0.41960785" stroke-width="0.05"/>
    <path d="M266.0 218.4 L270.3 223.85 Q273.5 227.9 275.95 232.1 279.5 238.2 281.4 244.65" fill="none" stroke="#000000" stroke-linecap="round" stroke-linejoin="round" stroke-opacity="0.41960785" stroke-width="0.05"/>
    <path d="M282.85 246.15 Q282.05 246.3 280.85 245.1 278.45 241.1 279.3 237.9 L281.2 239.1 Q279.5 240.85 282.85 246.15" fill="#cc9900" fill-rule="evenodd" stroke="none"/>
    <path d="M282.85 246.15 Q279.5 240.85 281.2 239.1 283.5 241.0 283.95 244.35 283.65 246.0 282.85 246.15" fill="#ffcc33" fill-rule="evenodd" stroke="none"/>
    <path d="M281.2 239.1 L279.3 237.9 Q278.45 241.1 280.85 245.1 282.05 246.3 282.85 246.15 283.65 246.0 283.95 244.35 283.5 241.0 281.2 239.1 Z" fill="none" stroke="#000000" stroke-linecap="round" stroke-linejoin="round" stroke-opacity="0.41960785" stroke-width="0.05"/>
    <path d="M278.5 242.55 Q277.7 242.45 276.8 241.1 275.45 236.85 277.05 234.25 L278.6 235.75 Q276.55 236.9 278.5 242.55" fill="#cc9900" fill-rule="evenodd" stroke="none"/>
    <path d="M278.5 242.55 Q276.55 236.9 278.6 235.75 280.35 238.05 280.0 241.2 279.3 242.6 278.5 242.55" fill="#ffcc33" fill-rule="evenodd" stroke="none"/>
    <path d="M278.6 235.75 L277.05 234.25 Q275.45 236.85 276.8 241.1 277.7 242.45 278.5 242.55 279.3 242.6 280.0 241.2 280.35 238.05 278.6 235.75 Z" fill="none" stroke="#000000" stroke-linecap="round" stroke-linejoin="round" stroke-opacity="0.41960785" stroke-width="0.05"/>
    <path d="M274.6 240.25 Q273.85 240.0 273.4 238.3 273.3 233.6 275.7 231.2 276.4 232.2 276.75 233.25 274.4 233.9 274.6 240.25" fill="#cc9900" fill-rule="evenodd" stroke="none"/>
    <path d="M274.6 240.25 Q274.4 233.9 276.75 233.25 277.8 236.05 276.45 239.2 275.4 240.5 274.6 240.25" fill="#ffcc33" fill-rule="evenodd" stroke="none"/>
    <path d="M276.75 233.25 Q276.4 232.2 275.7 231.2 273.3 233.6 273.4 238.3 273.85 240.0 274.6 240.25 275.4 240.5 276.45 239.2 277.8 236.05 276.75 233.25 Z" fill="none" stroke="#000000" stroke-linecap="round" stroke-linejoin="round" stroke-opacity="0.41960785" stroke-width="0.05"/>
    <path d="M271.05 237.25 Q270.4 236.8 270.4 235.1 271.6 230.5 274.5 228.8 L275.0 231.0 Q272.55 231.05 271.05 237.25" fill="#cc9900" fill-rule="evenodd" stroke="none"/>
    <path d="M271.05 237.25 Q272.55 231.05 275.0 231.0 275.2 234.0 273.1 236.7 271.7 237.7 271.05 237.25" fill="#ffcc33" fill-rule="evenodd" stroke="none"/>
    <path d="M275.0 231.0 L274.5 228.8 Q271.6 230.5 270.4 235.1 270.4 236.8 271.05 237.25 271.7 237.7 273.1 236.7 275.2 234.0 275.0 231.0 Z" fill="none" stroke="#000000" stroke-linecap="round" stroke-linejoin="round" stroke-opacity="0.41960785" stroke-width="0.05"/>
    <path d="M269.55 234.15 Q268.9 233.7 268.8 232.1 269.65 227.85 272.3 226.4 L272.9 228.5 Q270.6 228.4 269.55 234.15" fill="#cc9900" fill-rule="evenodd" stroke="none"/>
    <path d="M269.55 234.15 Q270.6 228.4 272.9 228.5 273.25 231.35 271.45 233.75 270.2 234.6 269.55 234.15" fill="#ffcc33" fill-rule="evenodd" stroke="none"/>
    <path d="M272.9 228.5 L272.3 226.4 Q269.65 227.85 268.8 232.1 268.9 233.7 269.55 234.15 270.2 234.6 271.45 233.75 273.25 231.35 272.9 228.5 Z" fill="none" stroke="#000000" stroke-linecap="round" stroke-linejoin="round" stroke-opacity="0.41960785" stroke-width="0.05"/>
    <path d="M283.3 238.8 Q283.5 238.1 282.7 236.7 279.9 233.8 277.25 234.2 277.5 235.4 277.9 236.25 279.5 234.8 283.3 238.8" fill="#cc9900" fill-rule="evenodd" stroke="none"/>
    <path d="M283.3 238.8 Q279.5 234.8 277.9 236.25 279.1 238.8 281.7 239.65 283.0 239.6 283.3 238.8" fill="#ffcc33" fill-rule="evenodd" stroke="none"/>
    <path d="M277.9 236.25 Q277.5 235.4 277.25 234.2 279.9 233.8 282.7 236.7 283.5 238.1 283.3 238.8 283.0 239.6 281.7 239.65 279.1 238.8 277.9 236.25 Z" fill="none" stroke="#000000" stroke-linecap="round" stroke-linejoin="round" stroke-opacity="0.41960785" stroke-width="0.05"/>
    <path d="M283.7 234.5 Q283.8 233.7 282.4 232.6 278.15 230.65 275.05 231.85 L276.45 233.65 Q278.0 231.75 283.7 234.5" fill="#cc9900" fill-rule="evenodd" stroke="none"/>
    <path d="M283.7 234.5 Q278.0 231.75 276.45 233.65 278.6 235.7 282.05 235.75 283.65 235.3 283.7 234.5" fill="#ffcc33" fill-rule="evenodd" stroke="none"/>
    <path d="M276.45 233.65 L275.05 231.85 Q278.15 230.65 282.4 232.6 283.8 233.7 283.7 234.5 283.65 235.3 282.05 235.75 278.6 235.7 276.45 233.65 Z" fill="none" stroke="#000000" stroke-linecap="round" stroke-linejoin="round" stroke-opacity="0.41960785" stroke-width="0.05"/>
    <path d="M281.85 230.2 Q281.65 229.4 280.2 228.7 275.9 227.85 273.45 229.75 L275.2 231.1 Q276.05 228.9 281.85 230.2" fill="#cc9900" fill-rule="evenodd" stroke="none"/>
    <path d="M281.85 230.2 Q276.05 228.9 275.2 231.1 277.6 232.6 280.7 231.8 282.0 231.0 281.85 230.2" fill="#ffcc33" fill-rule="evenodd" stroke="none"/>
    <path d="M275.2 231.1 L273.45 229.75 Q275.9 227.85 280.2 228.7 281.65 229.4 281.85 230.2 282.0 231.0 280.7 231.8 277.6 232.6 275.2 231.1 Z" fill="none" stroke="#000000" stroke-linecap="round" stroke-linejoin="round" stroke-opacity="0.41960785" stroke-width="0.05"/>
    <path d="M280.1 227.35 Q279.9 226.55 278.55 225.85 274.5 224.85 272.2 226.7 L273.9 228.05 Q274.65 225.9 280.1 227.35" fill="#cc9900" fill-rule="evenodd" stroke="none"/>
    <path d="M280.1 227.35 Q274.65 225.9 273.9 228.05 276.15 229.6 279.05 228.9 280.3 228.15 280.1 227.35" fill="#ffcc33" fill-rule="evenodd" stroke="none"/>
    <path d="M273.9 228.05 L272.2 226.7 Q274.5 224.85 278.55 225.85 279.9 226.55 280.1 227.35 280.3 228.15 279.05 228.9 276.15 229.6 273.9 228.05 Z" fill="none" stroke="#000000" stroke-linecap="round" stroke-linejoin="round" stroke-opacity="0.41960785" stroke-width="0.05"/>
    <path d="M268.05 231.4 Q267.4 230.95 267.3 229.35 268.15 225.1 270.8 223.65 L271.4 225.75 Q269.1 225.65 268.05 231.4" fill="#cc9900" fill-rule="evenodd" stroke="none"/>
    <path d="M268.05 231.4 Q269.1 225.65 271.4 225.75 271.75 228.6 269.95 231.0 268.7 231.85 268.05 231.4" fill="#ffcc33" fill-rule="evenodd" stroke="none"/>
    <path d="M271.4 225.75 L270.8 223.65 Q268.15 225.1 267.3 229.35 267.4 230.95 268.05 231.4 268.7 231.85 269.95 231.0 271.75 228.6 271.4 225.75 Z" fill="none" stroke="#000000" stroke-linecap="round" stroke-linejoin="round" stroke-opacity="0.41960785" stroke-width="0.05"/>
    <path d="M278.65 224.55 Q278.45 223.75 277.1 223.05 273.05 222.05 270.75 223.9 L272.45 225.25 Q273.2 223.1 278.65 224.55" fill="#cc9900" fill-rule="evenodd" stroke="none"/>
    <path d="M278.65 224.55 Q273.2 223.1 272.45 225.25 274.7 226.8 277.6 226.1 278.85 225.35 278.65 224.55" fill="#ffcc33" fill-rule="evenodd" stroke="none"/>
    <path d="M272.45 225.25 L270.75 223.9 Q273.05 222.05 277.1 223.05 278.45 223.75 278.65 224.55 278.85 225.35 277.6 226.1 274.7 226.8 272.45 225.25 Z" fill="none" stroke="#000000" stroke-linecap="round" stroke-linejoin="round" stroke-opacity="0.41960785" stroke-width="0.05"/>
    <path d="M265.85 229.4 Q265.2 228.95 265.1 227.35 265.95 223.1 268.6 221.65 L269.2 223.75 Q266.9 223.65 265.85 229.4" fill="#cc9900" fill-rule="evenodd" stroke="none"/>
    <path d="M265.85 229.4 Q266.9 223.65 269.2 223.75 269.55 226.6 267.75 229.0 266.5 229.85 265.85 229.4" fill="#ffcc33" fill-rule="evenodd" stroke="none"/>
    <path d="M269.2 223.75 L268.6 221.65 Q265.95 223.1 265.1 227.35 265.2 228.95 265.85 229.4 266.5 229.85 267.75 229.0 269.55 226.6 269.2 223.75 Z" fill="none" stroke="#000000" stroke-linecap="round" stroke-linejoin="round" stroke-opacity="0.41960785" stroke-width="0.05"/>
    <path d="M276.45 222.6 Q276.25 221.8 274.9 221.1 270.85 220.1 268.55 221.95 L270.25 223.3 Q271.0 221.15 276.45 222.6" fill="#cc9900" fill-rule="evenodd" stroke="none"/>
    <path d="M276.45 222.6 Q271.0 221.15 270.25 223.3 272.5 224.85 275.4 224.15 276.65 223.4 276.45 222.6" fill="#ffcc33" fill-rule="evenodd" stroke="none"/>
    <path d="M270.25 223.3 L268.55 221.95 Q270.85 220.1 274.9 221.1 276.25 221.8 276.45 222.6 276.65 223.4 275.4 224.15 272.5 224.85 270.25 223.3 Z" fill="none" stroke="#000000" stroke-linecap="round" stroke-linejoin="round" stroke-opacity="0.41960785" stroke-width="0.05"/>
  </g>
</svg>
