<?xml version="1.0" encoding="UTF-8" standalone="no"?>
<svg xmlns:xlink="http://www.w3.org/1999/xlink" height="93.15px" width="43.3px" xmlns="http://www.w3.org/2000/svg">
  <g transform="matrix(1.0, 0.0, 0.0, 1.0, -253.3, -153.9)">
    <path d="M263.75 243.95 L263.7 243.95 263.7 243.85 263.75 243.95 M270.4 228.45 L270.4 228.5 270.25 228.55 270.4 228.45" fill="#2c2d02" fill-rule="evenodd" stroke="none"/>
    <path d="M270.25 228.55 L270.4 228.4 270.4 228.45 270.25 228.55" fill="#0284c1" fill-rule="evenodd" stroke="none"/>
    <path d="M263.1 246.85 L263.2 247.0 263.1 247.0 263.1 246.85" fill="#ccff00" fill-rule="evenodd" stroke="none"/>
    <path d="M296.3 234.8 L296.5 234.9 296.55 234.95 296.2 234.9 296.3 234.8 M291.6 234.8 L289.8 234.8 291.6 234.65 291.6 234.8 M283.0 236.05 L282.8 236.2 282.95 236.05 283.0 236.05" fill="#555ba0" fill-rule="evenodd" stroke="none"/>
    <path d="M270.4 228.4 L270.4 228.45 270.4 228.4" fill="#ae9937" fill-rule="evenodd" stroke="none"/>
    <path d="M279.35 222.2 Q279.15 218.4 279.7 214.35 280.2 217.95 281.5 221.3 L280.15 222.4 279.35 222.3 279.35 222.2" fill="#7c6d27" fill-rule="evenodd" stroke="none"/>
    <path d="M254.85 210.6 L255.45 204.7 Q256.9 191.65 257.15 184.4 257.5 173.15 255.75 163.95 L260.15 162.85 Q267.1 160.85 272.5 157.7 275.45 155.95 277.95 153.9 280.7 157.1 281.55 161.0 L281.65 161.45 282.45 180.55 282.55 181.15 Q282.95 192.8 284.0 201.95 L284.0 202.3 Q284.55 210.4 286.25 216.95 L283.45 216.3 281.85 217.35 281.5 221.3 Q280.2 217.95 279.7 214.35 279.15 218.4 279.35 222.2 L278.05 222.1 276.7 223.45 277.05 227.7 276.25 228.55 272.85 227.6 270.4 228.45 270.4 228.4 Q268.25 217.1 268.15 200.2 265.7 208.6 264.4 216.45 L263.3 213.55 259.15 210.0 254.85 210.6 M280.1 204.15 L276.0 199.25 278.8 191.2 274.1 187.15 277.35 181.2 272.5 175.5 276.15 169.05 272.15 164.65 276.15 169.05 272.5 175.5 277.35 181.2 274.1 187.15 278.8 191.2 276.0 199.25 280.1 204.15 M275.1 161.55 Q274.45 159.4 272.5 157.7 274.45 159.4 275.1 161.55 M267.3 196.0 L263.5 191.0 267.2 184.85 262.6 179.5 266.6 173.25 261.95 169.6 266.6 173.25 262.6 179.5 267.2 184.85 263.5 191.0 267.3 196.0 M262.45 166.45 Q262.6 164.65 260.15 162.85 262.6 164.65 262.45 166.45 M277.95 211.45 L275.15 210.9 275.05 211.0 273.95 213.65 275.3 215.65 277.95 216.25 278.05 211.45 277.95 211.45" fill="#f2d117" fill-rule="evenodd" stroke="none"/>
    <path d="M264.4 216.45 Q265.7 208.6 268.15 200.2 268.25 217.1 270.4 228.4 L270.25 228.55 267.6 230.85 266.15 230.55 263.2 226.35 Q263.55 221.5 264.4 216.45" fill="#d6a70a" fill-rule="evenodd" stroke="none"/>
    <path d="M286.25 216.95 Q288.6 226.25 293.2 232.35 L296.3 234.8 296.2 234.9 291.6 234.8 291.6 234.65 Q284.8 228.95 281.75 221.9 L281.5 221.3 281.85 217.35 283.45 216.3 286.25 216.95 M282.8 236.2 L282.25 237.1 282.1 238.3 282.05 238.9 Q281.55 241.5 279.2 242.25 L275.3 242.75 274.95 242.75 Q272.05 237.35 270.4 228.5 L270.4 228.45 272.85 227.6 276.25 228.55 277.05 227.7 276.7 223.45 278.05 222.1 279.35 222.2 279.35 222.3 Q279.75 229.8 282.95 236.05 L282.8 236.2 M263.7 243.95 L263.1 244.3 261.25 245.15 Q254.25 237.7 253.4 228.05 L253.6 224.75 Q253.8 220.1 254.85 210.6 L259.15 210.0 263.3 213.55 264.4 216.45 Q263.55 221.5 263.2 226.35 262.6 235.5 263.7 243.85 L263.7 243.95 M277.95 211.45 L278.05 211.45 277.95 216.25 275.3 215.65 273.95 213.65 275.05 211.0 275.15 210.9 277.95 211.45" fill="#b08a09" fill-rule="evenodd" stroke="none"/>
    <path d="M289.8 234.8 L283.25 236.05 283.15 236.05 283.0 236.05 282.95 236.05 Q279.75 229.8 279.35 222.3 L280.15 222.4 281.5 221.3 281.75 221.9 Q284.8 228.95 291.6 234.65 L289.8 234.8 M274.95 242.75 L270.95 242.75 Q266.2 242.7 263.75 243.95 L263.7 243.85 Q262.6 235.5 263.2 226.35 L266.15 230.55 267.6 230.85 270.25 228.55 270.4 228.5 Q272.05 237.35 274.95 242.75 M261.25 245.15 L263.1 246.85 263.1 247.0 Q256.75 247.5 253.3 244.55 L253.4 228.05 Q254.25 237.7 261.25 245.15" fill="#514004" fill-rule="evenodd" stroke="none"/>
    <path d="M277.95 153.9 Q280.7 157.1 281.55 161.0 L281.65 161.45 282.45 180.55 282.55 181.15 Q282.95 192.8 284.0 201.95 L284.0 202.3 Q284.55 210.4 286.25 216.95 288.6 226.25 293.2 232.35 L296.3 234.8 296.5 234.9 296.6 234.95 296.55 234.95 296.2 234.9 291.6 234.8 289.8 234.8 283.25 236.05 M283.15 236.05 L283.0 236.05 M282.8 236.2 L282.25 237.1 282.1 238.3 282.05 238.9 Q281.55 241.5 279.2 242.25 L275.3 242.75 274.95 242.75 270.95 242.75 Q266.2 242.7 263.75 243.95 L263.7 243.95 263.1 244.3 261.25 245.15 263.1 246.85 263.2 247.0 263.1 247.0 Q256.75 247.5 253.3 244.55 M253.4 228.05 Q254.25 237.7 261.25 245.15 M282.8 236.2 L282.95 236.05" fill="none" stroke="#0f121c" stroke-linecap="round" stroke-linejoin="round" stroke-width="0.05"/>
    <path d="M272.15 164.65 L276.15 169.05 272.5 175.5 277.35 181.2 274.1 187.15 278.8 191.2 276.0 199.25 280.1 204.15 M261.95 169.6 L266.6 173.25 262.6 179.5 267.2 184.85 263.5 191.0 267.3 196.0" fill="none" stroke="#fbeea8" stroke-linecap="round" stroke-linejoin="round" stroke-width="1.0"/>
    <path d="M272.5 157.7 Q274.45 159.4 275.1 161.55 M260.15 162.85 Q262.6 164.65 262.45 166.45" fill="none" stroke="#b08a09" stroke-linecap="round" stroke-linejoin="round" stroke-width="0.05"/>
  </g>
</svg>
