<?xml version="1.0" encoding="UTF-8" standalone="no"?>
<svg xmlns:xlink="http://www.w3.org/1999/xlink" height="101.3px" width="153.8px" xmlns="http://www.w3.org/2000/svg">
  <g transform="matrix(1.0, 0.0, 0.0, 1.0, -198.05, -149.3)">
    <path d="M337.0 162.7 L337.0 162.65 336.95 162.75 333.1 164.85 332.9 164.75 332.85 164.8 329.35 173.65 326.25 176.95 Q323.5 173.3 318.5 170.1 L316.65 168.95 315.15 168.1 314.6 167.8 328.5 161.55 337.0 162.65 337.0 162.7 M198.15 193.5 L204.3 193.5 Q211.15 193.75 218.7 195.5 L218.6 196.85 218.3 200.65 218.2 203.0 215.05 208.4 205.85 204.0 198.15 193.5 M212.3 162.7 L212.3 162.65 220.8 161.55 234.85 167.8 232.65 169.05 Q226.35 172.7 223.1 177.0 L219.95 173.65 216.45 164.75 212.3 162.7 M266.95 159.5 L271.65 153.2 277.25 149.4 283.65 155.2 286.2 159.8 274.7 159.25 269.25 159.4 266.95 159.5 M331.7 203.0 L331.65 200.65 331.3 196.85 331.2 195.5 Q338.75 193.75 345.6 193.5 L351.75 193.5 344.05 204.0 334.85 208.4 331.7 203.0" fill="#e3c764" fill-rule="evenodd" stroke="none"/>
    <path d="M337.0 162.65 L337.0 162.7 330.65 182.0 329.3 183.3 Q328.55 179.95 326.25 176.95 L329.35 173.65 332.85 164.8 332.9 164.75 333.1 164.85 336.95 162.75 337.0 162.65 M219.8 221.45 L210.65 214.8 202.65 206.0 198.15 193.5 205.85 204.0 215.05 208.4 218.2 203.0 Q218.1 210.6 219.75 218.4 L219.7 219.8 219.8 221.45 M220.1 183.35 L218.7 182.0 212.3 162.7 216.45 164.75 219.95 173.65 223.1 177.0 Q220.85 180.0 220.1 183.35 M331.7 203.0 L334.85 208.4 344.05 204.0 351.75 193.5 347.25 206.0 339.25 214.8 330.15 221.45 330.2 219.8 330.15 218.4 Q331.8 210.6 331.7 203.0" fill="#c79625" fill-rule="evenodd" stroke="none"/>
    <path d="M326.25 176.95 Q328.55 179.95 329.3 183.3 L329.55 184.65 329.7 186.4 329.7 186.8 329.65 188.2 329.6 188.9 Q329.0 193.0 326.3 196.65 L326.05 198.8 323.5 207.9 323.5 199.7 318.85 203.3 315.75 205.15 313.6 206.25 307.8 208.85 307.15 209.1 Q298.6 212.25 289.2 213.0 285.4 211.2 277.0 210.15 291.25 209.9 302.3 205.95 L304.2 205.25 308.7 203.25 311.0 202.0 313.35 200.6 313.95 200.15 317.4 197.45 319.85 194.8 326.25 196.65 326.3 196.65 326.25 196.65 319.85 194.8 Q322.35 191.5 322.85 187.85 L322.9 187.25 322.95 186.35 322.95 186.05 322.8 184.1 Q322.6 182.5 322.0 181.0 320.95 178.4 318.8 176.0 L317.9 175.05 Q316.2 173.4 313.95 171.85 312.2 170.65 310.15 169.55 L308.7 168.8 Q300.0 164.4 289.05 162.75 L285.6 162.25 274.3 161.65 271.6 161.7 269.4 161.7 266.95 159.5 269.4 161.7 Q261.4 162.2 255.0 163.6 251.55 164.3 248.35 165.35 243.9 166.8 239.9 168.8 238.3 169.6 236.85 170.45 233.25 172.55 230.85 174.95 L230.5 175.25 Q227.9 177.9 226.7 180.85 L226.1 182.75 Q225.65 184.35 225.7 186.05 L225.7 186.65 225.8 188.0 225.85 188.25 Q226.5 192.4 229.8 196.05 L224.0 197.7 229.8 196.05 Q231.75 198.2 234.7 200.2 L231.6 203.95 230.6 203.3 Q226.55 200.65 224.0 197.7 220.6 193.75 219.9 189.3 L219.85 189.0 219.7 186.8 219.7 186.3 Q219.75 184.8 220.1 183.35 220.85 180.0 223.1 177.0 226.35 172.7 232.65 169.05 L234.85 167.8 235.8 167.3 Q240.4 165.0 245.55 163.35 255.3 160.25 266.95 159.5 L269.25 159.4 271.6 161.7 269.25 159.4 274.7 159.25 286.2 159.8 288.35 160.05 291.4 160.5 Q303.75 162.4 313.6 167.3 L314.6 167.85 315.15 168.1 316.65 168.95 318.5 170.1 Q323.5 173.3 326.25 176.95 M286.7 246.75 L286.6 246.8 286.7 246.75 M326.3 196.65 L326.25 196.65 326.3 196.65 M323.5 199.7 L317.4 197.45 323.5 199.7 M245.55 163.35 L248.35 165.35 245.55 163.35 M219.7 186.3 L225.7 186.65 219.7 186.3 M288.35 160.05 L285.6 162.25 288.35 160.05 M318.5 170.1 L313.95 171.85 318.5 170.1 M289.05 162.75 L291.4 160.5 289.05 162.75 M329.7 186.4 L322.95 186.35 329.7 186.4 M307.8 208.85 L304.2 205.25 307.8 208.85 M307.15 209.1 L302.3 205.95 307.15 209.1 M268.1 210.2 Q263.6 210.5 259.35 212.6 254.25 212.25 248.3 210.5 L252.55 207.85 248.3 210.5 Q243.8 209.15 238.9 207.05 L242.3 205.0 Q247.6 206.7 252.55 207.85 260.75 209.75 268.1 210.2" fill="#ea8915" fill-rule="evenodd" stroke="none"/>
    <path d="M329.65 188.9 Q333.25 204.05 329.65 218.45 L329.7 219.8 329.65 221.05 329.65 221.3 Q328.65 231.75 313.6 239.25 301.9 245.15 286.7 246.75 298.75 236.95 295.95 221.8 294.4 215.4 289.2 213.0 298.6 212.25 307.15 209.1 L307.8 208.85 313.6 206.25 315.75 205.15 318.85 203.3 323.5 199.7 323.5 207.9 326.05 198.8 326.3 196.65 Q329.0 193.0 329.6 188.9 L329.65 188.9 M263.7 246.85 Q247.85 245.3 235.8 239.25 220.9 231.8 219.8 221.45 L219.7 219.8 219.75 218.4 Q218.1 210.6 218.2 203.0 L218.3 200.65 218.6 196.85 218.75 195.5 Q219.15 192.4 219.9 189.3 220.6 193.75 224.0 197.7 226.55 200.65 230.6 203.3 L231.6 203.95 231.6 210.4 234.7 210.4 238.9 207.05 Q243.8 209.15 248.3 210.5 254.25 212.25 259.35 212.6 253.8 215.25 252.95 221.4 250.05 238.95 263.7 246.85 M309.0 210.05 L307.8 208.85 309.0 210.05 M223.95 203.4 L224.0 197.7 223.95 203.4 M281.5 188.55 Q265.4 192.55 252.85 184.0 248.45 179.65 248.35 174.6 L248.35 165.35 Q251.55 164.3 255.0 163.6 261.4 162.2 269.4 161.7 L271.6 161.7 274.3 161.65 285.6 162.25 285.6 165.8 289.05 172.6 289.05 162.75 Q300.0 164.4 308.7 168.8 L310.15 169.55 305.65 177.0 Q302.05 181.65 289.25 186.15 L283.85 187.9 281.5 188.55 281.5 185.8 281.5 188.55 M271.6 161.7 L271.6 187.6 269.4 161.7 271.6 187.6 271.6 161.7 M255.0 183.0 L255.0 163.6 255.0 183.0 M289.05 162.75 L289.05 172.6 285.6 165.8 285.6 162.25 289.05 162.75 M289.25 186.15 L289.25 182.0 289.25 186.15 M307.15 219.4 L307.15 209.1 307.15 219.4 M307.8 219.4 L307.8 208.85 307.8 219.4 M262.85 218.9 Q265.75 216.85 268.8 215.95 272.55 214.8 276.6 215.45 280.5 216.0 284.65 218.2 L279.85 229.2 Q280.3 233.95 283.15 237.8 L284.65 239.6 288.45 239.6 Q285.95 243.3 280.15 245.55 L276.85 246.6 272.65 246.6 Q264.7 244.55 260.65 238.6 L265.05 238.6 265.8 236.9 Q266.7 234.35 267.65 229.6 L262.85 218.9 M276.6 222.0 L276.6 215.45 276.6 222.0 M272.65 234.4 L272.65 246.6 272.65 234.4 M280.1 239.8 L280.15 245.55 280.1 239.8 M246.65 243.2 L246.65 231.2 246.65 243.2 M248.3 221.2 L248.3 210.5 248.3 221.2 M231.6 215.0 L231.6 210.4 231.6 215.0 M268.8 225.4 L268.8 215.95 268.8 225.4 M222.45 223.4 L219.8 221.45 222.45 223.4" fill="#aa591e" fill-rule="evenodd" stroke="none"/>
    <path d="M236.85 170.45 Q238.3 169.6 239.9 168.8 243.9 166.8 248.35 165.35 L248.35 174.6 Q248.45 179.65 252.85 184.0 265.4 192.55 281.5 188.55 L281.5 193.9 281.5 188.55 283.85 187.9 289.25 186.15 289.25 194.75 289.25 186.15 Q302.05 181.65 305.65 177.0 L310.15 169.55 Q312.2 170.65 313.95 171.85 316.2 173.4 317.9 175.05 316.85 182.1 313.95 188.45 L313.95 171.85 313.95 188.45 311.45 193.2 Q309.25 197.55 304.9 199.05 297.75 196.1 289.25 194.75 L281.5 193.9 274.3 193.65 Q262.0 193.65 251.9 196.3 L247.05 195.05 244.65 194.4 Q238.15 191.25 236.9 186.6 235.5 177.85 236.85 170.45 M247.05 186.6 L247.05 195.05 247.05 186.6 M248.35 179.25 L248.35 174.6 248.35 179.25 M234.7 210.4 L231.6 210.4 231.6 203.95 234.7 200.2 234.7 204.2 234.7 210.4" fill="#a0541b" fill-rule="evenodd" stroke="none"/>
    <path d="M319.85 194.8 L317.4 197.45 313.95 200.15 313.95 188.45 313.95 200.15 313.35 200.6 311.0 202.0 308.7 200.8 Q306.85 199.85 304.9 199.05 309.25 197.55 311.45 193.2 L313.95 188.45 Q316.85 182.1 317.9 175.05 L318.8 176.0 Q320.95 178.4 322.0 181.0 322.6 182.5 322.8 184.1 L322.95 186.05 322.95 186.35 322.9 187.25 322.85 187.85 Q322.35 191.5 319.85 194.8 M225.7 186.65 L225.7 186.05 Q225.65 184.35 226.1 182.75 L226.7 180.85 Q227.9 177.9 230.5 175.25 L230.85 174.95 Q233.25 172.55 236.85 170.45 235.5 177.85 236.9 186.6 238.15 191.25 244.65 194.4 L247.05 195.05 247.05 197.8 247.05 195.05 251.9 196.3 247.05 197.8 Q243.3 199.05 239.9 200.8 238.7 201.4 234.7 204.2 L234.7 200.2 Q231.75 198.2 229.8 196.05 226.5 192.4 225.85 188.25 L225.8 188.0 225.7 186.65 M230.55 184.4 L230.5 175.25 230.55 184.4 M234.7 204.2 Q236.4 201.3 235.3 200.6 L234.7 200.2 235.3 200.6 Q236.4 201.3 234.7 204.2" fill="#884717" fill-rule="evenodd" stroke="none"/>
    <path d="M286.6 246.8 L281.3 249.2 Q276.65 251.25 271.9 250.05 267.15 248.85 263.7 246.85 250.05 238.95 252.95 221.4 253.8 215.25 259.35 212.6 263.6 210.5 268.1 210.2 L277.0 210.15 Q285.4 211.2 289.2 213.0 294.4 215.4 295.95 221.8 298.75 236.95 286.7 246.75 L286.6 246.8 M284.65 218.2 L284.65 216.2 Q272.75 209.9 262.85 216.9 L262.85 218.9 267.65 229.6 Q266.7 234.35 265.8 236.9 L262.1 236.9 260.65 238.6 Q264.7 244.55 272.65 246.6 L276.85 246.6 280.15 245.55 Q285.95 243.3 288.45 239.6 L287.3 237.8 283.15 237.8 Q280.3 233.95 279.85 229.2 L284.65 218.2" fill="#3e1e11" fill-rule="evenodd" stroke="none"/>
    <path d="M284.65 216.2 L284.65 218.2 Q280.5 216.0 276.6 215.45 272.55 214.8 268.8 215.95 265.75 216.85 262.85 218.9 L262.85 216.9 Q272.75 209.9 284.65 216.2 M283.15 237.8 L287.3 237.8 288.45 239.6 284.65 239.6 283.15 237.8 M260.65 238.6 L262.1 236.9 265.8 236.9 265.05 238.6 260.65 238.6" fill="#774b20" fill-rule="evenodd" stroke="none"/>
    <path d="M337.0 162.7 L337.0 162.65 328.5 161.55 314.6 167.8 315.15 168.1 316.65 168.95 M329.3 183.3 L330.65 182.0 337.0 162.7 337.0 162.65 M220.1 183.35 L218.7 182.0 212.3 162.7 212.3 162.65 220.8 161.55 234.85 167.8 232.65 169.05" fill="none" stroke="#000000" stroke-linecap="round" stroke-linejoin="round" stroke-opacity="0.32156864" stroke-width="0.25"/>
    <path d="M326.25 176.95 Q328.55 179.95 329.3 183.3 L329.55 184.65 329.7 186.4 329.7 186.8 329.65 188.2 329.65 188.9 Q333.25 204.05 329.65 218.45 L329.7 219.8 329.65 221.05 M316.65 168.95 L318.5 170.1 Q323.5 173.3 326.25 176.95 M329.65 221.3 Q328.65 231.75 313.6 239.25 301.9 245.15 286.7 246.75 L286.6 246.8 281.3 249.2 Q276.65 251.25 271.9 250.05 267.15 248.85 263.7 246.85 247.85 245.3 235.8 239.25 220.9 231.8 219.8 221.45 L210.65 214.8 202.65 206.0 198.15 193.5 204.3 193.5 Q211.15 193.75 218.7 195.5 L218.6 196.85 218.75 195.5 Q219.15 192.4 219.9 189.3 L219.85 189.0 219.7 186.8 219.7 186.3 Q219.75 184.8 220.1 183.35 220.85 180.0 223.1 177.0 226.35 172.7 232.65 169.05 M234.85 167.8 L235.8 167.3 Q240.4 165.0 245.55 163.35 255.3 160.25 266.95 159.5 L271.65 153.2 277.25 149.4 283.65 155.2 286.2 159.8 288.35 160.05 291.4 160.5 Q303.75 162.4 313.6 167.3 L314.6 167.85 315.15 168.1 M329.6 188.9 L329.65 188.2 M329.6 188.9 Q329.0 193.0 326.3 196.65 L326.25 196.65 M323.5 199.7 L318.85 203.3 315.75 205.15 313.6 206.25 307.8 208.85 309.0 210.05 M319.85 194.8 L317.4 197.45 313.95 200.15 313.95 188.45 313.95 171.85 318.5 170.1 M351.75 193.5 L345.6 193.5 Q338.75 193.75 331.2 195.5 L331.3 196.85 331.65 200.65 331.7 203.0 Q331.8 210.6 330.15 218.4 L330.2 219.8 330.15 221.45 339.25 214.8 347.25 206.0 351.75 193.5 M236.85 170.45 Q238.3 169.6 239.9 168.8 243.9 166.8 248.35 165.35 L245.55 163.35 M225.7 186.65 L225.7 186.05 Q225.65 184.35 226.1 182.75 L226.7 180.85 Q227.9 177.9 230.5 175.25 L230.85 174.95 Q233.25 172.55 236.85 170.45 M247.05 195.05 L247.05 186.6 M230.5 175.25 L230.55 184.4 M231.6 203.95 L230.6 203.3 Q226.55 200.65 224.0 197.7 L223.95 203.4 M229.8 196.05 Q226.5 192.4 225.85 188.25 L225.8 188.0 225.7 186.65 219.7 186.3 M224.0 197.7 L229.8 196.05 Q231.75 198.2 234.7 200.2 L235.3 200.6 Q236.4 201.3 234.7 204.2 238.7 201.4 239.9 200.8 243.3 199.05 247.05 197.8 L247.05 195.05 M251.9 196.3 Q262.0 193.65 274.3 193.65 L281.5 193.9 281.5 188.55 281.5 185.8 M248.35 174.6 L248.35 179.25 M224.0 197.7 Q220.6 193.75 219.9 189.3 M269.25 159.4 L266.95 159.5 269.4 161.7 271.6 161.7 269.25 159.4 274.7 159.25 286.2 159.8 M271.6 161.7 L274.3 161.65 285.6 162.25 288.35 160.05 M248.35 165.35 Q251.55 164.3 255.0 163.6 261.4 162.2 269.4 161.7 L271.6 187.6 271.6 161.7 M247.05 197.8 L251.9 196.3 M255.0 163.6 L255.0 183.0 M248.35 165.35 L248.35 174.6 M289.05 162.75 Q300.0 164.4 308.7 168.8 L310.15 169.55 Q312.2 170.65 313.95 171.85 316.2 173.4 317.9 175.05 L318.8 176.0 Q320.95 178.4 322.0 181.0 322.6 182.5 322.8 184.1 L322.95 186.05 322.95 186.35 329.7 186.4 M285.6 162.25 L285.6 165.8 289.05 172.6 289.05 162.75 285.6 162.25 M291.4 160.5 L289.05 162.75 M289.25 182.0 L289.25 186.15 289.25 194.75 Q297.75 196.1 304.9 199.05 306.85 199.85 308.7 200.8 L311.0 202.0 313.35 200.6 313.95 200.15 M322.95 186.35 L322.9 187.25 322.85 187.85 Q322.35 191.5 319.85 194.8 M281.5 193.9 L289.25 194.75 M307.8 208.85 L307.15 209.1 307.15 219.4 M307.15 209.1 Q298.6 212.25 289.2 213.0 294.4 215.4 295.95 221.8 298.75 236.95 286.7 246.75 L286.6 246.8 M304.2 205.25 L307.8 208.85 307.8 219.4 M311.0 202.0 L308.7 203.25 304.2 205.25 302.3 205.95 307.15 209.1 M284.65 216.2 Q272.75 209.9 262.85 216.9 M262.85 218.9 Q265.75 216.85 268.8 215.95 272.55 214.8 276.6 215.45 280.5 216.0 284.65 218.2 M277.0 210.15 L268.1 210.2 Q263.6 210.5 259.35 212.6 253.8 215.25 252.95 221.4 250.05 238.95 263.7 246.85 M276.6 215.45 L276.6 222.0 M248.3 210.5 Q254.25 212.25 259.35 212.6 M252.55 207.85 L248.3 210.5 Q243.8 209.15 238.9 207.05 M231.6 210.4 L231.6 215.0 M248.3 210.5 L248.3 221.2 M246.65 231.2 L246.65 243.2 M280.15 245.55 L280.1 239.8 M272.65 246.6 L272.65 234.4 M268.8 215.95 L268.8 225.4 M268.1 210.2 Q260.75 209.75 252.55 207.85 247.6 206.7 242.3 205.0 M302.3 205.95 Q291.25 209.9 277.0 210.15 285.4 211.2 289.2 213.0 M219.8 221.45 L219.7 219.8 219.75 218.4 Q218.1 210.6 218.2 203.0 L218.3 200.65 218.6 196.85 M219.8 221.45 L222.45 223.4" fill="none" stroke="#774b20" stroke-linecap="round" stroke-linejoin="round" stroke-width="0.25"/>
    <path d="M326.3 196.65 L326.05 198.8 323.5 207.9 323.5 199.7 317.4 197.45 M326.3 196.65 L326.25 196.65 319.85 194.8 M284.65 218.2 L284.65 216.2 M262.85 216.9 L262.85 218.9 267.65 229.6 Q266.7 234.35 265.8 236.9 L265.05 238.6 260.65 238.6 262.1 236.9 265.8 236.9 M284.65 218.2 L279.85 229.2 Q280.3 233.95 283.15 237.8 L287.3 237.8 288.45 239.6 Q285.95 243.3 280.15 245.55 L276.85 246.6 272.65 246.6 Q264.7 244.55 260.65 238.6 M283.15 237.8 L284.65 239.6 288.45 239.6 M238.9 207.05 L234.7 210.4 231.6 210.4 231.6 203.95 234.7 200.2 234.7 204.2 234.7 210.4 M242.3 205.0 L238.9 207.05" fill="none" stroke="#774b20" stroke-linecap="round" stroke-linejoin="round" stroke-width="0.25"/>
  </g>
</svg>
