<?xml version="1.0" encoding="UTF-8" standalone="no"?>
<svg xmlns:xlink="http://www.w3.org/1999/xlink" height="173.0px" width="111.25px" xmlns="http://www.w3.org/2000/svg">
  <g transform="matrix(1.0, 0.0, 0.0, 1.0, -48.2, 0.0)">
    <path d="M105.75 15.5 L109.9 15.65 118.0 15.65 Q122.35 14.55 123.75 13.05 124.6 12.15 124.4 11.15 L131.35 23.05 127.95 21.45 124.8 15.85 Q120.75 18.05 112.75 18.7 L111.15 18.8 105.75 15.5 M128.0 25.55 L128.7 24.45 128.95 23.9 143.5 57.8 134.7 53.95 127.5 31.35 128.0 25.55 M142.5 69.35 L156.2 115.1 149.1 113.75 135.3 81.55 142.5 69.35 M144.1 142.35 L151.2 135.7 147.25 151.1 144.1 154.15 144.1 142.35" fill="#ffffff" fill-rule="evenodd" stroke="none"/>
    <path d="M88.35 15.9 L88.45 15.85 Q95.1 15.15 104.5 15.45 L105.75 15.5 111.15 18.8 Q104.7 19.2 95.9 18.65 L92.8 21.55 Q91.0 23.2 89.45 21.95 87.1 20.95 88.35 15.9 L83.1 16.65 85.05 16.3 85.1 16.3 88.35 15.9 M123.2 28.9 Q126.4 27.6 128.0 25.55 L127.5 31.35 134.7 53.95 143.5 57.8 128.95 23.9 129.1 23.55 127.95 21.45 131.35 23.05 146.3 59.05 147.85 62.85 120.1 71.55 Q105.7 74.45 91.3 67.75 86.4 56.85 97.5 43.25 106.25 43.95 123.2 33.95 L123.2 28.9 M159.45 119.1 L150.5 121.15 Q138.8 128.6 123.3 129.95 L94.3 125.55 Q84.15 110.45 92.5 91.15 101.3 93.55 110.1 91.15 L135.3 81.55 149.1 113.75 156.2 115.1 142.5 69.35 144.05 66.7 Q151.2 85.8 158.6 115.55 L159.45 119.1 M151.2 135.7 L153.05 133.95 Q152.15 141.0 150.45 148.0 L150.45 148.05 146.7 157.0 118.5 162.35 Q111.15 156.75 108.1 150.35 L118.5 149.95 Q131.3 149.05 144.1 142.35 L144.1 154.15 147.25 151.1 151.2 135.7" fill="#f2e4c1" fill-rule="evenodd" stroke="none"/>
    <path d="M83.05 10.85 L85.1 16.3 85.05 16.3 83.1 16.65 Q81.95 10.95 83.55 12.25 L83.05 10.85 M95.9 18.65 Q104.7 19.2 111.15 18.8 L112.75 18.7 Q120.75 18.05 124.8 15.85 L127.95 21.45 129.1 23.55 128.95 23.9 128.7 24.45 Q127.1 25.2 123.0 27.5 L110.25 29.35 Q107.3 29.8 102.3 28.0 102.65 26.45 101.3 21.75 98.8 21.15 95.9 18.65 M124.4 11.15 Q124.6 12.15 123.75 13.05 115.1 0.75 96.35 1.15 106.45 2.9 104.85 3.85 L86.9 3.85 Q83.6 4.2 81.5 6.95 L81.5 10.25 80.3 10.25 79.4 8.55 67.75 7.85 Q61.2 7.85 53.5 9.6 53.15 11.05 63.8 12.8 L65.45 13.05 77.05 16.45 78.9 16.95 79.9 17.25 83.1 18.15 83.1 20.95 Q67.7 18.85 56.35 13.8 69.6 20.25 65.75 20.1 55.5 17.0 49.15 12.15 49.85 11.3 52.75 9.25 L52.85 9.15 52.9 9.1 Q55.45 7.3 78.3 6.25 84.0 0.45 101.2 0.0 117.85 2.3 123.3 9.45 L123.9 10.35 124.4 11.15 M85.1 16.3 L85.05 16.3 85.1 16.3" fill="#995210" fill-rule="evenodd" stroke="none"/>
    <path d="M118.0 15.65 Q112.55 6.35 88.15 6.05 L84.75 6.05 82.3 8.85 83.05 10.85 83.55 12.25 Q81.95 10.95 83.1 16.65 L83.1 18.15 79.9 17.25 80.45 15.0 Q81.25 13.05 80.1 11.7 L79.6 14.9 78.9 16.95 77.05 16.45 77.55 14.65 78.25 10.1 Q74.75 9.1 70.35 10.1 L63.8 12.8 Q53.15 11.05 53.5 9.6 61.2 7.85 67.75 7.85 L79.4 8.55 80.3 10.25 81.5 10.25 81.5 6.95 Q83.6 4.2 86.9 3.85 L104.85 3.85 Q106.45 2.9 96.35 1.15 115.1 0.75 123.75 13.05 122.35 14.55 118.0 15.65 M49.15 12.15 Q55.5 17.0 65.75 20.1 69.6 20.25 56.35 13.8 67.7 18.85 83.1 20.95 L83.1 23.75 81.45 28.2 Q58.95 25.1 49.0 17.0 47.3 14.35 49.15 12.15 M80.3 10.25 L78.25 10.1 80.3 10.25 M121.7 29.4 Q113.0 32.05 94.7 29.75 L95.9 18.65 Q98.8 21.15 101.3 21.75 102.65 26.45 102.3 28.0 107.3 29.8 110.25 29.35 L123.0 27.5 Q127.1 25.2 128.7 24.45 L128.0 25.55 Q126.4 27.6 123.2 28.9 L122.75 29.05 122.65 29.1 121.7 29.4" fill="#68390b" fill-rule="evenodd" stroke="none"/>
    <path d="M88.35 15.9 L88.35 15.85 88.35 15.9 Q87.1 20.95 89.45 21.95 91.0 23.2 92.8 21.55 L95.9 18.65 89.7 29.55 81.5 28.2 81.45 28.2 83.1 23.75 83.1 20.95 83.1 18.15 83.1 16.65 88.35 15.9 M121.7 29.4 L122.65 29.1 122.75 29.05 123.2 28.9 123.2 33.95 Q106.25 43.95 97.5 43.25 86.4 56.85 91.3 67.75 105.7 74.45 120.1 71.55 L147.85 62.85 144.05 66.7 142.5 69.35 135.3 81.55 110.1 91.15 Q101.3 93.55 92.5 91.15 84.15 110.45 94.3 125.55 L123.3 129.95 Q138.8 128.6 150.5 121.15 L159.45 119.1 153.85 125.35 153.05 133.95 151.2 135.7 144.1 142.35 Q131.3 149.05 118.5 149.95 L108.1 150.35 Q111.15 156.75 118.5 162.35 L146.7 157.0 150.45 148.05 150.45 148.0 Q148.8 154.65 146.45 161.25 L128.9 173.0 114.7 170.65 Q101.15 161.85 93.7 146.35 111.7 146.95 130.9 141.55 L143.4 131.25 123.85 137.15 116.95 139.1 112.85 140.25 Q109.1 139.3 85.3 138.0 73.05 122.25 74.95 107.75 82.15 97.65 83.7 87.55 91.35 89.4 106.5 87.55 L125.85 76.1 108.4 80.6 85.7 80.6 Q74.3 56.7 85.7 37.15 L99.3 36.75 121.7 29.4 M122.75 29.05 L123.2 28.9 122.75 29.05 M144.05 66.7 L134.9 73.75 125.85 76.1 134.9 73.75 144.05 66.7 M143.4 131.25 L153.85 125.35 143.4 131.25" fill="#b5a179" fill-rule="evenodd" stroke="none"/>
    <path d="M95.9 18.65 L94.7 29.75 Q113.0 32.05 121.7 29.4 L99.3 36.75 85.7 37.15 Q74.3 56.7 85.7 80.6 L72.65 80.6 85.7 80.6 108.4 80.6 125.85 76.1 106.5 87.55 Q91.35 89.4 83.7 87.55 82.15 97.65 74.95 107.75 73.05 122.25 85.3 138.0 109.1 139.3 112.85 140.25 L116.95 139.1 123.85 137.15 143.4 131.25 130.9 141.55 Q111.7 146.95 93.7 146.35 101.15 161.85 114.7 170.65 L100.55 168.25 Q84.25 154.6 76.6 137.55 73.4 137.55 68.0 134.75 66.2 109.0 72.65 80.6 L67.75 76.95 Q68.75 57.1 75.75 43.1 82.6 29.3 81.5 28.2 L89.7 29.55 95.9 18.65 M76.6 137.55 L85.3 138.0 76.6 137.55" fill="#8f7f5f" fill-rule="evenodd" stroke="none"/>
    <path d="M88.35 15.9 L88.45 15.85 Q95.1 15.15 104.5 15.45 L105.75 15.5 109.9 15.65 118.0 15.65 Q122.35 14.55 123.75 13.05 124.6 12.15 124.4 11.15 L131.35 23.05 146.3 59.05 147.85 62.85 144.05 66.7 Q151.2 85.8 158.6 115.55 L159.45 119.1 153.85 125.35 153.05 133.95 Q152.15 141.0 150.45 148.0 148.8 154.65 146.45 161.25 L128.9 173.0 114.7 170.65 100.55 168.25 Q84.25 154.6 76.6 137.55 73.4 137.55 68.0 134.75 66.2 109.0 72.65 80.6 L67.75 76.95 Q68.75 57.1 75.75 43.1 82.6 29.3 81.5 28.2 L81.45 28.2 83.1 23.75 83.1 20.95 83.1 18.15 79.9 17.25 78.9 16.95 77.05 16.45 65.45 13.05 M82.3 8.85 L83.05 10.85 85.1 16.3 88.35 15.9 M123.9 10.35 L123.3 9.45 M78.9 16.95 L79.6 14.9 80.1 11.7 Q81.25 13.05 80.45 15.0 L79.9 17.25 M77.55 14.65 L77.05 16.45 M78.25 10.1 L77.55 14.65 M85.05 16.3 L83.1 16.65 83.1 18.15 M85.05 16.3 L85.1 16.3" fill="none" stroke="#000000" stroke-linecap="round" stroke-linejoin="round" stroke-opacity="0.3529412" stroke-width="0.05"/>
    <path d="M118.0 15.65 Q112.55 6.35 88.15 6.05 L84.75 6.05 82.3 8.85 M95.9 18.65 Q104.7 19.2 111.15 18.8 L112.75 18.7 Q120.75 18.05 124.8 15.85 L127.95 21.45 129.1 23.55 128.95 23.9 128.7 24.45 128.0 25.55 Q126.4 27.6 123.2 28.9 L122.75 29.05 122.65 29.1 M124.4 11.15 L123.9 10.35 M123.3 9.45 Q117.85 2.3 101.2 0.0 84.0 0.45 78.3 6.25 55.45 7.3 52.9 9.1 L52.85 9.15 52.75 9.25 Q49.85 11.3 49.15 12.15 47.3 14.35 49.0 17.0 58.95 25.1 81.45 28.2 M65.45 13.05 L63.8 12.8 Q53.15 11.05 53.5 9.6 M63.8 12.8 L70.35 10.1 Q74.75 9.1 78.25 10.1 L80.3 10.25 M85.1 16.3 L85.05 16.3 M95.9 18.65 L94.7 29.75 Q113.0 32.05 121.7 29.4 M72.65 80.6 L85.7 80.6 108.4 80.6 125.85 76.1 134.9 73.75 144.05 66.7 M153.85 125.35 L143.4 131.25 123.85 137.15 116.95 139.1 112.85 140.25 Q109.1 139.3 85.3 138.0 L76.6 137.55" fill="none" stroke="#000000" stroke-linecap="round" stroke-linejoin="round" stroke-opacity="0.3529412" stroke-width="0.05"/>
    <path d="M123.2 28.9 L122.75 29.05" fill="none" stroke="#00ff00" stroke-linecap="round" stroke-linejoin="round" stroke-width="0.05"/>
  </g>
</svg>
