<?xml version="1.0" encoding="UTF-8" standalone="no"?>
<svg xmlns:xlink="http://www.w3.org/1999/xlink" height="9.9px" width="2.1px" xmlns="http://www.w3.org/2000/svg">
  <g transform="matrix(1.0, 0.0, 0.0, 1.0, 0.0, 4.95)">
    <path d="M1.05 -4.95 Q1.5 -4.95 1.8 -3.5 L2.1 0.0 1.8 3.5 Q1.5 4.95 1.05 4.95 0.6 4.95 0.3 3.5 0.0 2.05 0.0 0.0 0.0 -2.05 0.3 -3.5 0.6 -4.95 1.05 -4.95" fill="#f7f6e5" fill-rule="evenodd" stroke="none"/>
    <path d="M1.6 -0.75 L1.8 1.5 1.6 3.75 Q1.4 4.65 1.1 4.65 0.8 4.65 0.6 3.75 0.45 2.8 0.45 1.5 0.45 0.15 0.6 -0.75 0.8 -1.7 1.1 -1.7 1.4 -1.7 1.6 -0.75" fill="#cbc087" fill-rule="evenodd" stroke="none"/>
  </g>
</svg>
