<?xml version="1.0" encoding="UTF-8" standalone="no"?>
<svg xmlns:xlink="http://www.w3.org/1999/xlink" height="86.3px" width="165.0px" xmlns="http://www.w3.org/2000/svg">
  <g transform="matrix(1.0, 0.0, 0.0, 1.0, -138.75, -106.95)">
    <path d="M236.2 123.0 L235.3 116.3 236.2 123.0 M213.3 116.1 L221.5 116.0 Q228.6 116.0 235.3 116.3 247.65 116.85 258.5 118.45 L277.2 107.6 283.9 124.1 Q287.85 125.4 291.05 126.75 295.7 128.8 298.7 131.0 302.35 133.75 303.5 136.75 L303.5 142.25 Q302.1 146.0 296.85 149.25 L291.6 152.0 Q286.65 149.8 279.8 147.85 255.65 141.0 221.5 141.0 187.35 141.0 163.15 147.85 156.3 149.8 151.4 152.0 147.85 150.4 145.3 148.7 139.65 144.95 139.1 140.55 L139.05 138.6 Q140.0 130.35 158.9 124.15 L165.6 107.6 184.3 118.45 Q197.7 116.5 213.3 116.1 M163.85 122.65 L163.15 122.85 158.9 124.15 163.15 122.85 163.85 122.65 Q169.25 121.15 175.1 120.0 L171.0 116.8 163.85 122.65 M178.4 122.6 L175.1 120.0 184.3 118.45 175.1 120.0 178.4 122.6 M296.0 133.0 L298.7 131.0 296.0 133.0 M278.9 122.6 L278.95 122.65 279.65 122.85 283.95 124.15 283.9 124.1 283.95 124.15 279.65 122.85 278.95 122.65 278.9 122.6 274.1 118.7 271.8 116.8 267.75 120.0 271.4 120.75 Q275.25 121.6 278.9 122.6 M258.5 118.45 L263.65 119.25 267.7 120.0 267.75 120.0 267.7 120.0 263.65 119.25 258.5 118.45 M291.05 126.75 L278.0 136.4 291.05 126.75" fill="#000000" fill-rule="evenodd" stroke="none"/>
    <path d="M139.1 140.55 Q139.65 144.95 145.3 148.7 147.85 150.4 151.4 152.0 154.3 153.25 157.9 154.5 L163.15 156.1 172.5 158.45 172.5 172.0 172.5 158.45 Q193.7 163.0 221.5 163.0 251.2 163.0 273.35 157.8 L279.8 156.1 285.1 154.5 291.6 152.0 296.85 149.25 Q302.1 146.0 303.5 142.25 L303.5 172.25 Q300.5 180.25 279.8 186.1 L277.35 186.8 Q253.95 193.0 221.5 193.0 187.9 193.0 163.95 186.35 L163.15 186.1 Q139.0 179.25 139.0 169.5 L139.1 167.2 139.1 140.55 M163.95 178.4 L163.95 186.35 163.95 178.4 M296.85 161.2 L296.85 149.25 296.85 161.2 M277.35 175.6 L277.35 186.8 277.35 175.6 M273.35 170.0 L273.35 157.8 273.35 170.0 M153.2 173.2 L153.2 170.4 153.2 173.2 M144.6 169.0 L149.8 165.8 144.6 169.0 M139.1 167.2 L147.8 160.6 139.1 167.2 M145.3 157.2 L145.3 148.7 145.3 157.2" fill="#333333" fill-rule="evenodd" stroke="none"/>
    <path d="M235.3 116.3 L236.2 123.0 M235.3 116.3 L234.0 107.2 M213.3 116.1 L221.5 116.0 Q228.6 116.0 235.3 116.3 247.65 116.85 258.5 118.45 L277.2 107.6 283.9 124.1 Q287.85 125.4 291.05 126.75 L298.0 121.6 M211.6 111.4 L213.3 116.1 Q197.7 116.5 184.3 118.45 L175.1 120.0 178.4 122.6 M158.9 124.15 L163.15 122.85 163.85 122.65 171.0 116.8 175.1 120.0 Q169.25 121.15 163.85 122.65 M184.3 118.45 L165.6 107.6 158.9 124.15 Q140.0 130.35 139.05 138.6 L139.1 140.55 Q139.65 144.95 145.3 148.7 147.85 150.4 151.4 152.0 156.3 149.8 163.15 147.85 187.35 141.0 221.5 141.0 255.65 141.0 279.8 147.85 286.65 149.8 291.6 152.0 L296.85 149.25 Q302.1 146.0 303.5 142.25 L303.5 136.75 Q302.35 133.75 298.7 131.0 L296.0 133.0 M172.5 158.45 L163.15 156.1 157.9 154.5 Q154.3 153.25 151.4 152.0 M303.5 142.25 L303.5 172.25 Q300.5 180.25 279.8 186.1 L277.35 186.8 Q253.95 193.0 221.5 193.0 187.9 193.0 163.95 186.35 L163.15 186.1 Q139.0 179.25 139.0 169.5 L139.1 167.2 139.1 140.55 139.0 139.5 139.05 138.6 M273.35 157.8 Q251.2 163.0 221.5 163.0 193.7 163.0 172.5 158.45 M291.05 126.75 Q295.7 128.8 298.7 131.0 L302.2 128.4 M283.9 124.1 L283.95 124.15 279.65 122.85 278.95 122.65 278.9 122.6 Q275.25 121.6 271.4 120.75 L267.75 120.0 267.7 120.0 263.65 119.25 258.5 118.45 M274.1 118.7 L271.8 116.8 267.75 120.0 M278.9 122.6 L274.1 118.7 271.4 120.75 M291.6 152.0 L285.1 154.5 279.8 156.1 273.35 157.8 M278.0 136.4 L291.05 126.75 M147.8 160.6 L139.1 167.2 M149.8 165.8 L144.6 169.0 M153.2 170.4 L153.2 173.2" fill="none" stroke="#351b00" stroke-linecap="round" stroke-linejoin="round" stroke-opacity="0.4509804" stroke-width="0.5"/>
    <path d="M172.5 158.45 L172.5 172.0 M163.95 186.35 L163.95 178.4 M273.35 157.8 L273.35 170.0 M277.35 186.8 L277.35 175.6 M296.85 149.25 L296.85 161.2 M145.3 148.7 L145.3 157.2" fill="none" stroke="#000000" stroke-linecap="round" stroke-linejoin="round" stroke-opacity="0.4509804" stroke-width="0.5"/>
  </g>
</svg>
