<?xml version="1.0" encoding="UTF-8" standalone="no"?>
<svg xmlns:xlink="http://www.w3.org/1999/xlink" height="54.0px" width="61.05px" xmlns="http://www.w3.org/2000/svg">
  <g transform="matrix(1.0, 0.0, 0.0, 1.0, -254.05, -218.55)">
    <path d="M307.5 263.8 L307.6 263.85 307.6 263.9 307.5 263.8" fill="#fffdea" fill-rule="evenodd" stroke="none"/>
    <path d="M282.5 226.7 L282.15 226.4 282.95 226.6 282.5 226.7 M307.65 254.4 L307.65 254.3 308.3 254.3 307.65 254.4 M303.45 252.7 L303.3 252.85 303.15 252.8 303.45 252.7 M302.05 257.2 L302.05 257.05 302.15 257.05 302.05 257.2" fill="#d9cebf" fill-rule="evenodd" stroke="none"/>
    <path d="M290.35 239.6 L290.55 240.0 Q288.8 246.5 284.55 241.1 282.4 238.5 285.55 237.2 L285.35 236.8 Q288.7 236.5 290.35 239.6 M302.05 257.2 Q303.3 257.75 302.45 258.85 301.45 260.15 300.8 259.75 300.3 259.5 300.0 258.35 L300.1 258.2 Q300.65 257.1 301.75 257.05 L302.05 257.05 302.05 257.2" fill="#003300" fill-rule="evenodd" stroke="none"/>
    <path d="M297.3 255.6 L297.2 255.65 296.05 256.75 295.8 257.1 295.5 257.85 295.2 258.6 295.1 258.75 Q294.85 258.85 294.9 259.2 L294.85 259.45 294.8 259.6 294.75 260.7 294.75 263.7 294.8 264.1 294.85 264.2 294.95 264.7 294.95 264.85 295.05 265.1 295.1 265.35 Q295.25 265.85 295.0 266.2 L294.9 266.3 294.7 266.4 294.6 266.5 Q293.55 266.8 293.25 267.6 L293.25 267.35 293.3 266.95 293.35 266.7 293.4 266.2 293.4 262.7 293.45 261.35 Q293.55 260.15 292.75 259.45 L292.65 259.4 292.4 259.3 292.25 259.2 292.1 259.05 Q291.85 258.95 291.9 258.6 L291.85 258.2 291.8 257.95 291.7 257.45 Q291.65 257.0 291.9 256.7 292.05 256.45 292.3 256.35 L294.25 255.45 294.9 255.3 Q295.3 255.25 295.5 254.95 L296.15 254.45 296.35 254.3 296.55 254.15 296.75 254.05 297.55 253.45 297.6 253.35 297.65 251.1 297.7 248.85 297.8 248.65 Q298.1 248.4 298.0 247.95 L298.05 247.7 298.4 247.35 298.5 247.25 298.85 247.05 299.3 246.75 301.25 245.7 301.25 246.45 301.3 246.7 301.35 246.85 301.7 248.35 301.7 248.45 301.75 249.6 301.8 250.05 301.65 250.2 Q301.25 250.35 300.95 250.65 L300.7 250.8 300.55 251.0 300.15 251.45 300.0 251.6 Q299.65 251.9 299.45 252.35 L299.1 252.65 298.7 253.2 298.4 253.75 298.4 253.8 297.3 255.6" fill="#ff6600" fill-rule="evenodd" stroke="none"/>
    <path d="M301.25 245.7 L299.3 246.75 298.85 247.05 298.5 247.25 298.4 247.35 298.05 247.7 298.0 247.95 Q298.1 248.4 297.8 248.65 L297.7 248.85 297.65 251.1 297.6 253.35 297.55 253.45 296.75 254.05 296.55 254.15 296.35 254.3 296.15 254.45 295.5 254.95 Q295.3 255.25 294.9 255.3 L294.25 255.45 292.3 256.35 Q292.05 256.45 291.9 256.7 291.65 257.0 291.7 257.45 L291.8 257.95 291.85 258.2 291.9 258.6 Q291.85 258.95 292.1 259.05 L292.25 259.2 292.4 259.3 292.65 259.4 292.75 259.45 Q293.55 260.15 293.45 261.35 L293.4 262.7 293.4 266.2 293.35 266.7 293.3 266.95 293.25 267.35 293.25 267.6 Q293.55 266.8 294.6 266.5 L294.7 266.4 294.9 266.3 295.0 266.2 Q295.25 265.85 295.1 265.35 L295.05 265.1 294.95 264.85 294.95 264.7 294.85 264.2 294.8 264.1 294.75 263.7 294.75 260.7 294.8 259.6 294.85 259.45 294.9 259.2 Q294.85 258.85 295.1 258.75 L295.2 258.6 295.5 257.85 295.8 257.1 296.05 256.75 297.2 255.65 297.3 255.6 Q296.3 257.5 295.8 259.6 L295.6 260.7 295.45 261.2 295.25 262.85 Q295.15 264.55 295.6 266.1 L295.6 266.15 295.6 266.1 Q295.15 264.55 295.25 262.85 L295.45 261.2 295.6 260.7 295.8 259.6 Q298.5 260.5 297.7 263.95 L297.8 264.05 298.55 264.4 300.75 265.35 305.8 265.7 305.95 265.5 306.0 264.8 306.45 264.6 306.45 264.65 306.6 264.85 307.6 263.9 307.6 263.85 307.5 263.8 Q306.25 262.85 306.45 261.3 307.85 260.25 309.5 260.9 L309.75 260.3 Q310.65 257.65 310.6 254.55 L310.3 252.05 Q312.45 254.55 313.6 257.4 313.4 259.9 312.7 262.35 L311.95 264.7 311.5 265.3 310.9 265.5 Q310.3 265.9 309.65 265.95 L309.4 267.0 309.5 267.25 309.65 267.4 310.3 267.5 310.35 267.6 310.45 268.1 310.35 268.4 310.05 268.55 309.55 268.7 Q308.25 267.1 306.25 267.2 L303.85 267.35 303.6 267.6 303.55 267.7 303.45 267.75 303.45 267.95 303.7 268.5 303.6 269.25 302.05 268.85 302.45 267.95 302.8 267.75 302.8 267.25 302.4 266.75 302.0 266.3 301.9 266.2 Q300.15 265.95 299.5 267.45 298.9 268.9 299.45 270.3 296.8 268.8 295.6 266.15 L291.9 268.7 Q293.2 265.3 291.75 261.85 290.2 258.3 285.95 258.8 L285.75 259.0 Q285.05 259.35 284.7 260.1 L283.75 261.4 283.75 262.6 284.55 263.0 285.55 265.2 281.75 266.2 281.55 264.4 282.15 263.0 282.1 262.6 281.95 262.4 281.75 262.2 281.15 261.6 Q278.3 260.65 275.35 261.2 270.4 261.0 267.3 264.8 L266.05 264.5 Q265.6 264.35 265.4 264.05 L265.1 263.4 265.3 262.2 265.5 262.0 267.0 261.65 267.45 261.35 267.7 260.8 267.1 258.2 Q265.45 258.15 263.95 257.1 263.25 256.65 262.5 256.6 L261.5 255.2 259.65 249.6 Q257.85 243.7 257.4 237.65 260.1 230.8 265.45 224.8 264.85 227.75 264.75 230.8 264.55 238.3 266.85 244.6 L267.45 246.1 Q271.35 244.6 274.95 247.0 275.3 250.8 272.35 253.0 L272.05 253.2 274.6 255.55 274.85 255.05 274.95 255.0 275.95 255.4 276.15 257.15 276.55 257.6 Q282.45 258.35 288.7 256.8 291.6 256.1 294.1 254.55 L295.95 253.6 296.15 253.35 Q294.25 245.1 300.8 242.95 L301.35 245.6 301.65 246.85 302.1 249.9 301.95 250.0 301.8 250.05 301.75 249.6 301.7 248.45 301.7 248.35 301.35 246.85 301.3 246.7 301.25 246.45 301.25 245.7 M298.4 253.8 L298.4 253.75 298.7 253.2 299.1 252.65 299.45 252.35 Q299.65 251.9 300.0 251.6 L300.15 251.45 300.55 251.0 300.7 250.8 300.95 250.65 Q301.25 250.35 301.65 250.2 L301.8 250.05 301.95 250.0 302.1 249.9 302.15 250.45 Q300.9 251.05 299.85 251.95 L298.4 253.8 M282.5 226.7 Q283.25 227.5 283.15 228.8 L283.15 229.0 Q282.15 229.7 280.75 229.4 280.25 228.75 280.4 227.8 L280.55 227.2 282.5 226.7 M270.9 233.0 L270.35 233.65 Q269.8 234.35 269.9 235.2 L270.9 237.0 271.7 237.0 Q272.95 237.2 273.95 236.6 L273.95 236.2 Q273.95 233.85 271.7 233.0 L270.9 233.0 M271.9 230.4 L270.3 230.2 273.95 230.2 Q276.95 233.7 277.55 238.6 L276.75 239.05 279.55 242.4 279.75 243.4 275.5 239.55 275.35 239.6 275.4 240.8 Q275.55 241.7 274.95 242.2 274.45 242.2 274.3 241.8 L274.0 241.0 273.95 240.8 Q273.7 240.4 273.65 240.95 L273.25 241.55 272.7 241.8 272.05 241.05 271.9 241.0 271.7 241.0 271.3 241.0 271.1 239.6 Q267.6 237.7 267.9 233.6 267.95 232.65 268.3 231.8 269.8 230.6 271.9 230.4 M268.3 242.2 Q269.9 242.15 269.35 243.75 L269.1 244.2 267.7 244.0 Q266.95 243.3 267.35 242.3 L267.7 242.0 268.3 242.2 M279.35 253.6 L277.75 253.8 Q276.9 253.4 277.25 252.7 277.3 252.4 277.75 252.2 L279.15 252.2 279.35 253.6 M307.65 254.4 Q308.5 254.45 309.15 254.95 L309.3 255.7 Q309.4 257.4 308.0 258.2 L307.9 258.8 307.75 258.8 307.65 258.8 307.6 258.8 307.35 259.1 307.1 259.0 306.95 258.75 Q306.9 258.55 306.85 258.7 L306.8 258.8 306.7 259.1 306.45 259.3 Q306.15 259.05 306.25 258.7 L306.25 258.2 306.2 258.2 304.45 259.8 304.55 259.35 305.7 258.0 305.35 257.8 Q305.6 255.75 306.85 254.3 L307.65 254.3 307.65 254.4 M304.15 253.05 L304.2 253.3 304.05 253.95 303.05 253.8 303.05 253.7 Q302.95 253.15 303.3 252.85 L304.15 253.05 M308.05 255.45 L307.75 255.45 Q306.8 255.8 306.85 256.8 L306.85 256.95 307.75 257.15 308.05 257.15 308.5 256.4 308.3 255.75 308.05 255.45 M309.4 259.2 L309.55 259.35 309.4 260.05 308.8 260.1 308.7 259.95 Q308.45 259.25 309.15 259.3 L309.4 259.2 M305.3 263.45 L305.5 263.65 Q305.6 263.95 305.3 264.1 L304.65 264.05 304.7 263.45 305.3 263.45" fill="#ff9900" fill-rule="evenodd" stroke="none"/>
    <path d="M290.35 239.6 Q288.7 236.5 285.35 236.8 L285.55 237.2 Q282.4 238.5 284.55 241.1 288.8 246.5 290.55 240.0 L290.35 239.6 M297.3 255.6 L298.4 253.8 299.85 251.95 Q300.9 251.05 302.15 250.45 L305.05 249.55 Q308.05 250.05 310.25 251.95 L310.3 252.05 310.6 254.55 Q310.65 257.65 309.75 260.3 L309.5 260.9 Q307.85 260.25 306.45 261.3 306.25 262.85 307.5 263.8 L307.6 263.9 306.6 264.85 306.45 264.65 306.45 264.6 306.0 264.8 305.95 265.5 305.8 265.7 300.75 265.35 298.55 264.4 297.8 264.05 297.7 263.95 Q298.5 260.5 295.8 259.6 296.3 257.5 297.3 255.6 M300.8 242.95 Q294.25 245.1 296.15 253.35 L295.95 253.6 294.1 254.55 Q291.6 256.1 288.7 256.8 282.45 258.35 276.55 257.6 L276.15 257.15 275.95 255.4 274.95 255.0 274.85 255.05 274.6 255.55 272.05 253.2 272.35 253.0 Q275.3 250.8 274.95 247.0 271.35 244.6 267.45 246.1 L266.85 244.6 Q264.55 238.3 264.75 230.8 264.85 227.75 265.45 224.8 L265.6 224.6 Q270.95 220.0 278.3 218.8 285.6 220.0 290.95 224.6 298.4 232.95 300.8 242.95 M257.4 237.65 Q257.85 243.7 259.65 249.6 L261.5 255.2 262.5 256.6 Q263.25 256.65 263.95 257.1 265.45 258.15 267.1 258.2 L267.7 260.8 267.45 261.35 267.0 261.65 265.5 262.0 265.3 262.2 265.1 263.4 265.4 264.05 Q265.6 264.35 266.05 264.5 L267.3 264.8 Q270.4 261.0 275.35 261.2 278.3 260.65 281.15 261.6 L281.75 262.2 281.95 262.4 282.1 262.6 282.15 263.0 281.55 264.4 281.75 266.2 285.55 265.2 284.55 263.0 283.75 262.6 283.75 261.4 284.7 260.1 Q285.05 259.35 285.75 259.0 L285.95 258.8 Q290.2 258.3 291.75 261.85 293.2 265.3 291.9 268.7 L288.7 270.25 286.25 271.1 Q282.3 272.3 278.3 272.3 274.25 272.3 270.3 271.1 L267.85 270.25 Q258.85 266.55 255.2 258.6 253.45 252.45 255.2 245.6 255.9 241.45 257.4 237.65 M282.5 226.7 L280.55 227.2 280.4 227.8 Q280.25 228.75 280.75 229.4 282.15 229.7 283.15 229.0 L283.15 228.8 Q283.25 227.5 282.5 226.7 L282.95 226.6 282.15 226.4 282.5 226.7 M270.9 233.0 L271.7 233.0 Q273.95 233.85 273.95 236.2 L273.95 236.6 Q272.95 237.2 271.7 237.0 L270.9 237.0 269.9 235.2 Q269.8 234.35 270.35 233.65 L270.9 233.0 M279.35 253.6 L279.15 252.2 277.75 252.2 Q277.3 252.4 277.25 252.7 276.9 253.4 277.75 253.8 L279.35 253.6 M268.3 242.2 L267.7 242.0 267.35 242.3 Q266.95 243.3 267.7 244.0 L269.1 244.2 269.35 243.75 Q269.9 242.15 268.3 242.2 M271.9 230.4 Q269.8 230.6 268.3 231.8 267.95 232.65 267.9 233.6 267.6 237.7 271.1 239.6 L271.3 241.0 271.7 241.0 271.9 241.0 272.05 241.05 272.7 241.8 273.25 241.55 273.65 240.95 Q273.7 240.4 273.95 240.8 L274.0 241.0 274.3 241.8 Q274.45 242.2 274.95 242.2 275.55 241.7 275.4 240.8 L275.35 239.6 275.5 239.55 279.75 243.4 279.55 242.4 276.75 239.05 277.55 238.6 Q276.95 233.7 273.95 230.2 L270.3 230.2 271.9 230.4 M304.15 253.05 L303.3 252.85 Q302.95 253.15 303.05 253.7 L303.05 253.8 304.05 253.95 304.2 253.3 304.15 253.05 M307.65 254.3 L306.85 254.3 Q305.6 255.75 305.35 257.8 L305.7 258.0 304.55 259.35 304.45 259.8 306.2 258.2 306.25 258.2 306.25 258.7 Q306.15 259.05 306.45 259.3 L306.7 259.1 306.8 258.8 306.85 258.7 Q306.9 258.55 306.95 258.75 L307.1 259.0 307.35 259.1 307.6 258.8 307.65 258.8 307.75 258.8 307.9 258.8 308.0 258.2 Q309.4 257.4 309.3 255.7 L309.15 254.95 Q308.5 254.45 307.65 254.4 L308.3 254.3 307.65 254.3 M308.05 255.45 L308.3 255.75 308.5 256.4 308.05 257.15 307.75 257.15 306.85 256.95 306.85 256.8 Q306.8 255.8 307.75 255.45 L308.05 255.45 M309.4 259.2 L309.15 259.3 Q308.45 259.25 308.7 259.95 L308.8 260.1 309.4 260.05 309.55 259.35 309.4 259.2 M299.45 270.3 Q298.9 268.9 299.5 267.45 300.15 265.95 301.9 266.2 L302.0 266.3 302.4 266.75 302.8 267.25 302.8 267.75 302.45 267.95 302.05 268.85 303.6 269.25 303.7 268.5 303.45 267.95 303.45 267.75 303.55 267.7 303.6 267.6 303.85 267.35 306.25 267.2 Q308.25 267.1 309.55 268.7 L310.05 268.55 310.35 268.4 310.45 268.1 310.35 267.6 310.3 267.5 309.65 267.4 309.5 267.25 309.4 267.0 309.65 265.95 Q310.3 265.9 310.9 265.5 L311.5 265.3 311.95 264.7 312.7 262.35 Q313.4 259.9 313.6 257.4 L314.5 260.7 Q315.2 263.55 314.5 266.1 313.0 269.4 309.3 270.95 L308.35 271.3 305.05 271.8 301.75 271.3 300.75 270.95 299.45 270.3 M305.3 263.45 L304.7 263.45 304.65 264.05 305.3 264.1 Q305.6 263.95 305.5 263.65 L305.3 263.45 M303.45 252.7 L303.15 252.8 303.3 252.85 303.45 252.7 M302.05 257.05 L301.75 257.05 Q300.65 257.1 300.1 258.2 L300.0 258.35 Q300.3 259.5 300.8 259.75 301.45 260.15 302.45 258.85 303.3 257.75 302.05 257.2 L302.15 257.05 302.05 257.05" fill="#000000" fill-rule="evenodd" stroke="none"/>
    <path d="M297.3 255.6 L298.4 253.8 299.85 251.95 Q300.9 251.05 302.15 250.45 L302.1 249.9 301.65 246.85 301.35 245.6 300.8 242.95 Q298.4 232.95 290.95 224.6 285.6 220.0 278.3 218.8 270.95 220.0 265.6 224.6 L265.45 224.8 Q260.1 230.8 257.4 237.65 255.9 241.45 255.2 245.6 253.45 252.45 255.2 258.6 258.85 266.55 267.85 270.25 L270.3 271.1 Q274.25 272.3 278.3 272.3 282.3 272.3 286.25 271.1 L288.7 270.25 291.9 268.7 295.6 266.15 295.6 266.1 Q295.15 264.55 295.25 262.85 L295.45 261.2 295.6 260.7 295.8 259.6 Q296.3 257.5 297.3 255.6 M310.3 252.05 L310.25 251.95 Q308.05 250.05 305.05 249.55 L302.15 250.45 M313.6 257.4 Q312.45 254.55 310.3 252.05 M299.45 270.3 L300.75 270.95 301.75 271.3 305.05 271.8 308.35 271.3 309.3 270.95 Q313.0 269.4 314.5 266.1 315.2 263.55 314.5 260.7 L313.6 257.4 M295.6 266.15 Q296.8 268.8 299.45 270.3" fill="none" stroke="#5a451b" stroke-linecap="round" stroke-linejoin="round" stroke-width="0.5"/>
    <path d="M298.4 253.8 L298.4 253.75 M301.8 250.05 L301.75 249.6 301.7 248.45 301.7 248.35 301.35 246.85 301.3 246.7 301.25 246.45 301.25 245.7 M302.1 249.9 L301.95 250.0 301.8 250.05" fill="none" stroke="#ffffff" stroke-linecap="round" stroke-linejoin="round" stroke-width="0.05"/>
  </g>
</svg>
