<?xml version="1.0" encoding="UTF-8" standalone="no"?>
<svg xmlns:xlink="http://www.w3.org/1999/xlink" height="287.15px" width="353.55px" xmlns="http://www.w3.org/2000/svg">
  <g transform="matrix(1.0, 0.0, 0.0, 1.0, -98.2, -56.4)">
    <path d="M298.25 127.2 L286.15 96.7 282.15 85.25 Q291.35 83.15 299.55 96.75 L298.25 127.2" fill="url(#gradient0)" fill-rule="evenodd" stroke="none"/>
    <path d="M286.15 96.7 L298.25 127.2 301.2 134.75 307.2 149.95 310.9 159.3 317.6 176.4 Q316.2 176.95 314.85 177.65 299.8 137.2 286.15 96.7" fill="#ffcc33" fill-rule="evenodd" stroke="none"/>
    <path d="M298.25 127.2 L299.55 96.75 Q302.35 101.4 305.05 107.95 L301.2 134.75 298.25 127.2 M282.15 85.25 L286.15 96.7 Q299.8 137.2 314.85 177.65 L313.15 178.65 Q275.4 126.9 282.15 85.25 M310.9 159.3 L307.2 149.95 309.05 143.3 315.3 135.55 316.55 142.05 310.9 159.3" fill="#ffdf5e" fill-rule="evenodd" stroke="none"/>
    <path d="M307.2 149.95 L301.2 134.75 305.05 107.95 Q308.25 115.6 311.25 125.95 L309.05 143.3 307.2 149.95" fill="url(#gradient1)" fill-rule="evenodd" stroke="none"/>
    <path d="M317.6 176.4 L310.9 159.3 316.55 142.05 Q319.0 156.75 319.35 175.95 L317.6 176.4" fill="url(#gradient2)" fill-rule="evenodd" stroke="none"/>
    <path d="M286.15 96.7 L298.25 127.2 301.2 134.75 307.2 149.95 310.9 159.3 317.6 176.4 M299.55 96.75 Q291.35 83.15 282.15 85.25 275.4 126.9 313.15 178.65 M305.05 107.95 Q302.35 101.4 299.55 96.75 M316.55 142.05 L315.3 135.55 309.05 143.3 311.25 125.95 Q308.25 115.6 305.05 107.95 M316.55 142.05 Q319.0 156.75 319.35 175.95" fill="none" stroke="#000000" stroke-linecap="round" stroke-linejoin="round" stroke-opacity="0.41960785" stroke-width="0.05"/>
    <path d="M322.9 126.8 L324.6 98.05 325.8 87.4 Q335.7 88.1 337.75 101.65 L322.9 126.8" fill="url(#gradient3)" fill-rule="evenodd" stroke="none"/>
    <path d="M324.6 98.05 L322.9 126.8 322.5 133.85 321.6 148.15 321.05 156.95 320.0 173.05 316.75 173.35 Q319.95 135.55 324.6 98.05" fill="#ffcc33" fill-rule="evenodd" stroke="none"/>
    <path d="M322.9 126.8 L337.75 101.65 Q338.4 106.3 338.15 112.45 L322.5 133.85 322.9 126.8 M325.8 87.4 L324.6 98.05 Q319.95 135.55 316.75 173.35 L314.6 173.75 Q300.6 120.5 325.8 87.4 M321.05 156.95 L321.6 148.15 326.35 143.05 335.9 138.25 334.25 144.0 321.05 156.95" fill="#ffdf5e" fill-rule="evenodd" stroke="none"/>
    <path d="M321.6 148.15 L322.5 133.85 338.15 112.45 Q337.8 119.75 336.2 129.15 L326.35 143.05 321.6 148.15" fill="url(#gradient4)" fill-rule="evenodd" stroke="none"/>
    <path d="M320.0 173.05 L321.05 156.95 334.25 144.0 Q330.1 157.0 321.9 173.15 L320.0 173.05" fill="url(#gradient5)" fill-rule="evenodd" stroke="none"/>
    <path d="M324.6 98.05 L322.9 126.8 322.5 133.85 321.6 148.15 321.05 156.95 320.0 173.05 M337.75 101.65 Q335.7 88.1 325.8 87.4 300.6 120.5 314.6 173.75 M338.15 112.45 Q338.4 106.3 337.75 101.65 M334.25 144.0 L335.9 138.25 326.35 143.05 336.2 129.15 Q337.8 119.75 338.15 112.45 M334.25 144.0 Q330.1 157.0 321.9 173.15" fill="none" stroke="#000000" stroke-linecap="round" stroke-linejoin="round" stroke-opacity="0.41960785" stroke-width="0.05"/>
    <path d="M213.45 342.45 L211.8 342.2 Q194.95 339.35 184.95 330.6 179.05 320.7 176.7 309.65 187.45 325.6 217.05 327.55 L213.45 342.45 M125.25 301.2 L120.05 300.05 Q112.1 298.1 104.5 295.05 98.05 285.25 98.2 274.05 111.8 284.4 130.85 287.25 L125.25 301.2 M426.65 220.0 L421.3 229.4 421.25 229.4 421.25 222.4 Q422.9 217.9 414.05 215.55 L415.4 215.2 417.4 214.5 421.6 215.2 Q426.25 216.55 426.65 220.0 M289.85 261.25 L298.6 271.7 302.7 290.35 293.95 272.9 Q289.95 265.5 284.05 263.7 L270.65 251.3 289.85 261.25 M309.7 268.8 Q312.3 279.05 309.7 280.45 309.45 269.95 300.35 259.45 L309.7 268.8" fill="#c18300" fill-rule="evenodd" stroke="none"/>
    <path d="M435.35 209.6 Q435.8 212.3 435.45 215.2 L435.0 217.55 Q432.75 223.4 427.85 226.6 425.0 228.4 421.3 229.4 L426.65 220.0 Q429.8 218.05 432.1 215.2 434.0 212.75 435.35 209.6" fill="#ffdf5e" fill-rule="evenodd" stroke="none"/>
    <path d="M294.6 158.55 Q297.7 155.75 302.15 153.45 367.4 157.4 419.85 191.35 433.55 199.35 435.35 209.6 434.0 212.75 432.1 215.2 429.8 218.05 426.65 220.0 426.25 216.55 421.6 215.2 L417.4 214.5 Q419.45 213.6 421.05 212.3 424.85 204.75 410.55 197.15 378.75 175.05 337.7 166.8 320.85 160.8 307.95 165.65 300.45 178.0 357.1 202.35 380.65 212.4 396.2 215.2 407.1 217.15 414.05 215.55 422.9 217.9 421.25 222.4 L402.95 223.95 Q385.75 221.1 370.9 217.5 341.35 210.35 321.0 200.05 298.25 188.5 294.6 158.55" fill="url(#gradient6)" fill-rule="evenodd" stroke="none"/>
    <path d="M437.8 253.6 Q438.95 260.35 438.5 266.5 439.15 272.2 436.75 276.9 435.65 279.1 433.85 281.05 421.0 291.15 400.05 295.05 397.95 288.7 391.9 290.4 383.9 295.3 383.15 302.05 L370.9 307.0 Q263.3 349.8 213.45 342.45 L217.05 327.55 Q267.05 330.75 370.9 294.0 L382.55 289.8 Q390.9 273.05 397.1 277.55 426.65 280.55 436.75 256.3 L437.8 253.6 M175.4 300.9 Q148.75 305.8 125.25 301.2 L130.85 287.25 135.45 287.85 Q153.3 289.6 175.65 285.2 174.75 293.3 175.4 300.9" fill="#996600" fill-rule="evenodd" stroke="none"/>
    <path d="M427.85 226.6 Q434.15 238.3 436.75 248.75 L437.8 253.6 436.75 256.3 Q426.65 280.55 397.1 277.55 390.9 273.05 382.55 289.8 L370.9 294.0 Q267.05 330.75 217.05 327.55 172.15 301.4 210.95 289.7 250.0 277.8 284.05 263.7 289.95 265.5 293.95 272.9 L302.7 290.35 298.6 271.7 289.85 261.25 Q348.1 227.85 305.0 205.85 297.75 203.1 288.6 200.6 296.05 198.45 286.85 190.05 289.8 187.3 290.35 183.55 288.7 180.95 287.9 178.25 287.1 175.8 287.0 173.25 287.2 169.4 288.8 166.05 290.1 163.15 292.45 160.6 L294.6 158.55 Q298.25 188.5 321.0 200.05 341.35 210.35 370.9 217.5 385.75 221.1 402.95 223.95 L421.25 222.4 421.25 229.4 421.3 229.4 Q425.0 228.4 427.85 226.6 M311.45 200.05 Q296.0 192.65 290.35 183.55 296.0 192.65 311.45 200.05 M309.7 268.8 L300.35 259.45 Q309.45 269.95 309.7 280.45 312.3 279.05 309.7 268.8 M404.15 229.8 Q414.25 231.15 421.25 229.4 414.25 231.15 404.15 229.8" fill="url(#gradient7)" fill-rule="evenodd" stroke="none"/>
    <path d="M288.8 166.05 Q287.2 169.4 287.0 173.25 287.1 175.8 287.9 178.25 251.5 180.15 242.65 165.05 241.0 159.4 256.65 158.05 276.9 158.95 288.8 166.05 M307.95 165.65 Q320.85 160.8 337.7 166.8 378.75 175.05 410.55 197.15 424.85 204.75 421.05 212.3 419.45 213.6 417.4 214.5 L415.4 215.2 414.05 215.55 Q407.1 217.15 396.2 215.2 380.65 212.4 357.1 202.35 300.45 178.0 307.95 165.65" fill="#957700" fill-rule="evenodd" stroke="none"/>
    <path d="M98.2 274.05 Q98.25 271.2 98.7 268.25 108.15 214.05 151.7 197.7 181.9 185.4 210.65 190.3 217.65 191.45 224.55 193.65 250.85 193.2 260.15 184.3 234.9 178.55 227.85 163.6 228.7 161.35 230.4 158.85 262.95 144.75 292.45 160.6 290.1 163.15 288.8 166.05 276.9 158.95 256.65 158.05 241.0 159.4 242.65 165.05 251.5 180.15 287.9 178.25 288.7 180.95 290.35 183.55 289.8 187.3 286.85 190.05 281.9 194.55 270.15 196.2 222.65 186.55 196.0 230.95 193.75 234.7 191.8 238.4 154.85 272.55 110.95 264.75 113.9 281.0 135.45 287.85 L130.85 287.25 Q111.8 284.4 98.2 274.05" fill="url(#gradient8)" fill-rule="evenodd" stroke="none"/>
    <path d="M176.7 309.65 Q175.75 305.35 175.4 300.9 174.75 293.3 175.65 285.2 178.1 263.55 191.8 238.4 193.75 234.7 196.0 230.95 222.65 186.55 270.15 196.2 L288.6 200.6 Q297.75 203.1 305.0 205.85 348.1 227.85 289.85 261.25 L270.65 251.3 284.05 263.7 Q250.0 277.8 210.95 289.7 172.15 301.4 217.05 327.55 187.45 325.6 176.7 309.65" fill="url(#gradient9)" fill-rule="evenodd" stroke="none"/>
    <path d="M286.85 190.05 Q296.05 198.45 288.6 200.6 L270.15 196.2 Q281.9 194.55 286.85 190.05" fill="url(#gradient10)" fill-rule="evenodd" stroke="none"/>
    <path d="M210.65 190.3 Q227.05 184.55 233.9 177.9 224.3 172.7 227.85 163.6 234.9 178.55 260.15 184.3 250.85 193.2 224.55 193.65 217.65 191.45 210.65 190.3" fill="url(#gradient11)" fill-rule="evenodd" stroke="none"/>
    <path d="M191.8 238.4 Q178.1 263.55 175.65 285.2 153.3 289.6 135.45 287.85 113.9 281.0 110.95 264.75 154.85 272.55 191.8 238.4" fill="url(#gradient12)" fill-rule="evenodd" stroke="none"/>
    <path d="M435.35 209.6 Q435.8 212.3 435.45 215.2 L435.0 217.55 Q432.75 223.4 427.85 226.6 434.15 238.3 436.75 248.75 L437.8 253.6 Q438.95 260.35 438.5 266.5 439.15 272.2 436.75 276.9 435.65 279.1 433.85 281.05 421.0 291.15 400.05 295.05 397.95 288.7 391.9 290.4 383.9 295.3 383.15 302.05 L370.9 307.0 Q263.3 349.8 213.45 342.45 L211.8 342.2 Q194.95 339.35 184.95 330.6 179.05 320.7 176.7 309.65 175.75 305.35 175.4 300.9 148.75 305.8 125.25 301.2 L120.05 300.05 Q112.1 298.1 104.5 295.05 98.05 285.25 98.2 274.05 98.25 271.2 98.7 268.25 108.15 214.05 151.7 197.7 181.9 185.4 210.65 190.3 227.05 184.55 233.9 177.9 224.3 172.7 227.85 163.6 228.7 161.35 230.4 158.85 262.95 144.75 292.45 160.6 L294.6 158.55 Q297.7 155.75 302.15 153.45 367.4 157.4 419.85 191.35 433.55 199.35 435.35 209.6 M421.3 229.4 Q425.0 228.4 427.85 226.6 M217.05 327.55 Q267.05 330.75 370.9 294.0 L382.55 289.8 Q390.9 273.05 397.1 277.55 426.65 280.55 436.75 256.3 L437.8 253.6 M292.45 160.6 Q290.1 163.15 288.8 166.05 287.2 169.4 287.0 173.25 287.1 175.8 287.9 178.25 288.7 180.95 290.35 183.55 296.0 192.65 311.45 200.05 M421.05 212.3 Q419.45 213.6 417.4 214.5 L415.4 215.2 414.05 215.55 Q407.1 217.15 396.2 215.2 380.65 212.4 357.1 202.35 300.45 178.0 307.95 165.65 M288.6 200.6 Q297.75 203.1 305.0 205.85 M217.05 327.55 Q187.45 325.6 176.7 309.65 M270.15 196.2 Q281.9 194.55 286.85 190.05 289.8 187.3 290.35 183.55 M288.6 200.6 L270.15 196.2 Q222.65 186.55 196.0 230.95 193.75 234.7 191.8 238.4 178.1 263.55 175.65 285.2 174.75 293.3 175.4 300.9 M421.25 229.4 L421.3 229.4 M421.25 229.4 Q414.25 231.15 404.15 229.8 M242.65 165.05 Q251.5 180.15 287.9 178.25 M224.55 193.65 Q217.65 191.45 210.65 190.3 M130.85 287.25 L135.45 287.85 Q153.3 289.6 175.65 285.2 M98.2 274.05 Q111.8 284.4 130.85 287.25" fill="none" stroke="#000000" stroke-linecap="round" stroke-linejoin="round" stroke-opacity="0.43137255" stroke-width="0.05"/>
    <path d="M377.3 128.15 L371.55 75.75 368.7 56.4 Q354.3 57.85 352.9 82.7 L377.3 128.15" fill="url(#gradient13)" fill-rule="evenodd" stroke="none"/>
    <path d="M371.55 75.75 L377.3 128.15 378.7 141.2 381.55 167.2 383.3 183.3 386.6 212.7 391.35 213.15 Q382.55 144.15 371.55 75.75" fill="#ffcc33" fill-rule="evenodd" stroke="none"/>
    <path d="M377.3 128.15 L352.9 82.7 Q352.4 91.2 353.45 102.5 L378.7 141.2 377.3 128.15 M368.7 56.4 L371.55 75.75 Q382.55 144.15 391.35 213.15 L394.5 213.8 Q409.1 116.05 368.7 56.4 M383.3 183.3 L381.55 167.2 374.1 158.1 359.55 149.55 Q360.9 154.65 362.6 160.05 L383.3 183.3" fill="#ffdf5e" fill-rule="evenodd" stroke="none"/>
    <path d="M381.55 167.2 L378.7 141.2 353.45 102.5 Q354.7 115.75 358.1 132.95 L374.1 158.1 381.55 167.2" fill="url(#gradient14)" fill-rule="evenodd" stroke="none"/>
    <path d="M386.6 212.7 L383.3 183.3 362.6 160.05 Q370.05 183.6 383.8 212.85 L386.6 212.7" fill="url(#gradient15)" fill-rule="evenodd" stroke="none"/>
    <path d="M371.55 75.75 L377.3 128.15 378.7 141.2 381.55 167.2 383.3 183.3 386.6 212.7 M352.9 82.7 Q354.3 57.85 368.7 56.4 409.1 116.05 394.5 213.8 M353.45 102.5 Q352.4 91.2 352.9 82.7 M362.6 160.05 Q360.9 154.65 359.55 149.55 L374.1 158.1 358.1 132.95 Q354.7 115.75 353.45 102.5 M362.6 160.05 Q370.05 183.6 383.8 212.85" fill="none" stroke="#000000" stroke-linecap="round" stroke-linejoin="round" stroke-opacity="0.41960785" stroke-width="0.05"/>
    <path d="M419.3 147.2 L433.35 105.15 439.3 89.8 Q453.85 94.7 451.4 115.7 L419.3 147.2" fill="url(#gradient16)" fill-rule="evenodd" stroke="none"/>
    <path d="M433.35 105.15 L419.3 147.2 415.8 157.65 408.8 178.55 404.5 191.45 396.5 215.0 391.55 214.15 Q411.4 159.15 433.35 105.15" fill="#ffcc33" fill-rule="evenodd" stroke="none"/>
    <path d="M419.3 147.2 L451.4 115.7 Q450.55 122.9 447.7 132.0 L415.8 157.65 419.3 147.2 M439.3 89.8 L433.35 105.15 Q411.4 159.15 391.55 214.15 L388.25 213.9 Q388.6 128.95 439.3 89.8 M404.5 191.45 L408.8 178.55 417.9 172.9 434.1 169.5 429.35 177.45 404.5 191.45" fill="#ffdf5e" fill-rule="evenodd" stroke="none"/>
    <path d="M408.8 178.55 L415.8 157.65 447.7 132.0 Q444.35 142.7 438.2 156.1 L417.9 172.9 408.8 178.55" fill="url(#gradient17)" fill-rule="evenodd" stroke="none"/>
    <path d="M396.5 215.0 L404.5 191.45 429.35 177.45 Q418.0 195.1 399.35 215.85 L396.5 215.0" fill="url(#gradient18)" fill-rule="evenodd" stroke="none"/>
    <path d="M433.35 105.15 L419.3 147.2 415.8 157.65 408.8 178.55 404.5 191.45 396.5 215.0 M451.4 115.7 Q453.85 94.7 439.3 89.8 388.6 128.95 388.25 213.9 M447.7 132.0 Q450.55 122.9 451.4 115.7 M429.35 177.45 L434.1 169.5 417.9 172.9 438.2 156.1 Q444.35 142.7 447.7 132.0 M429.35 177.45 Q418.0 195.1 399.35 215.85" fill="none" stroke="#000000" stroke-linecap="round" stroke-linejoin="round" stroke-opacity="0.41960785" stroke-width="0.05"/>
  </g>
  <defs>
    <linearGradient gradientTransform="matrix(0.0095, -0.007, 0.0157, 0.0213, 293.2, 104.05)" gradientUnits="userSpaceOnUse" id="gradient0" spreadMethod="pad" x1="-819.2" x2="819.2">
      <stop offset="0.0" stop-color="#ffe888"/>
      <stop offset="1.0" stop-color="#fff2c4"/>
    </linearGradient>
    <linearGradient gradientTransform="matrix(0.0114, -0.0083, 0.0127, 0.0173, 306.15, 128.95)" gradientUnits="userSpaceOnUse" id="gradient1" spreadMethod="pad" x1="-819.2" x2="819.2">
      <stop offset="0.0" stop-color="#ffe888"/>
      <stop offset="1.0" stop-color="#fff2c4"/>
    </linearGradient>
    <linearGradient gradientTransform="matrix(0.0096, -0.007, 0.0105, 0.0143, 317.25, 159.5)" gradientUnits="userSpaceOnUse" id="gradient2" spreadMethod="pad" x1="-819.2" x2="819.2">
      <stop offset="0.0" stop-color="#ffe888"/>
      <stop offset="1.0" stop-color="#fff2c4"/>
    </linearGradient>
    <linearGradient gradientTransform="matrix(0.0124, -0.0033, 0.0059, 0.0219, 328.2, 106.05)" gradientUnits="userSpaceOnUse" id="gradient3" spreadMethod="pad" x1="-819.2" x2="819.2">
      <stop offset="0.0" stop-color="#ffe888"/>
      <stop offset="1.0" stop-color="#fff2c4"/>
    </linearGradient>
    <linearGradient gradientTransform="matrix(0.0149, -0.004, 0.0048, 0.0178, 329.9, 130.3)" gradientUnits="userSpaceOnUse" id="gradient4" spreadMethod="pad" x1="-819.2" x2="819.2">
      <stop offset="0.0" stop-color="#ffe888"/>
      <stop offset="1.0" stop-color="#fff2c4"/>
    </linearGradient>
    <linearGradient gradientTransform="matrix(0.0126, -0.0034, 0.0039, 0.0147, 327.2, 158.8)" gradientUnits="userSpaceOnUse" id="gradient5" spreadMethod="pad" x1="-819.2" x2="819.2">
      <stop offset="0.0" stop-color="#ffe888"/>
      <stop offset="1.0" stop-color="#fff2c4"/>
    </linearGradient>
    <linearGradient gradientTransform="matrix(0.0859, 0.0, 0.0, 0.043, 364.95, 188.7)" gradientUnits="userSpaceOnUse" id="gradient6" spreadMethod="pad" x1="-819.2" x2="819.2">
      <stop offset="0.0" stop-color="#ffe888"/>
      <stop offset="1.0" stop-color="#fff2c4"/>
    </linearGradient>
    <linearGradient gradientTransform="matrix(0.1494, 0.0, 0.0, 0.1033, 315.35, 243.15)" gradientUnits="userSpaceOnUse" id="gradient7" spreadMethod="pad" x1="-819.2" x2="819.2">
      <stop offset="0.0" stop-color="#ffdf5e"/>
      <stop offset="1.0" stop-color="#ecbd02"/>
    </linearGradient>
    <linearGradient gradientTransform="matrix(0.1186, 0.0, 0.0, 0.0828, 195.3, 220.0)" gradientUnits="userSpaceOnUse" id="gradient8" spreadMethod="pad" x1="-819.2" x2="819.2">
      <stop offset="0.0" stop-color="#ffe888"/>
      <stop offset="1.0" stop-color="#fff2c4"/>
    </linearGradient>
    <linearGradient gradientTransform="matrix(0.0905, 0.0, 0.0, 0.0812, 249.25, 261.0)" gradientUnits="userSpaceOnUse" id="gradient9" spreadMethod="pad" x1="-819.2" x2="819.2">
      <stop offset="0.0" stop-color="#ffe888"/>
      <stop offset="1.0" stop-color="#fff2c4"/>
    </linearGradient>
    <linearGradient gradientTransform="matrix(0.0133, 0.0, 0.0, 0.0064, 281.05, 195.3)" gradientUnits="userSpaceOnUse" id="gradient10" spreadMethod="pad" x1="-819.2" x2="819.2">
      <stop offset="0.0" stop-color="#ffe888"/>
      <stop offset="1.0" stop-color="#fff2c4"/>
    </linearGradient>
    <linearGradient gradientTransform="matrix(0.0302, 0.0, 0.0, 0.0183, 235.4, 178.6)" gradientUnits="userSpaceOnUse" id="gradient11" spreadMethod="pad" x1="-819.2" x2="819.2">
      <stop offset="0.0" stop-color="#ffdf5e"/>
      <stop offset="1.0" stop-color="#ecbd02"/>
    </linearGradient>
    <linearGradient gradientTransform="matrix(0.0493, 0.0, 0.0, 0.0305, 151.35, 263.35)" gradientUnits="userSpaceOnUse" id="gradient12" spreadMethod="pad" x1="-819.2" x2="819.2">
      <stop offset="0.0" stop-color="#ffdf5e"/>
      <stop offset="1.0" stop-color="#ecbd02"/>
    </linearGradient>
    <linearGradient gradientTransform="matrix(-0.0185, -0.0057, -0.0062, 0.0403, 367.2, 90.45)" gradientUnits="userSpaceOnUse" id="gradient13" spreadMethod="pad" x1="-819.2" x2="819.2">
      <stop offset="0.0" stop-color="#ffe888"/>
      <stop offset="1.0" stop-color="#fff2c4"/>
    </linearGradient>
    <linearGradient gradientTransform="matrix(-0.0221, -0.0068, -0.005, 0.0327, 367.55, 134.8)" gradientUnits="userSpaceOnUse" id="gradient14" spreadMethod="pad" x1="-819.2" x2="819.2">
      <stop offset="0.0" stop-color="#ffe888"/>
      <stop offset="1.0" stop-color="#fff2c4"/>
    </linearGradient>
    <linearGradient gradientTransform="matrix(-0.0187, -0.0058, -0.0041, 0.0269, 374.55, 186.9)" gradientUnits="userSpaceOnUse" id="gradient15" spreadMethod="pad" x1="-819.2" x2="819.2">
      <stop offset="0.0" stop-color="#ffe888"/>
      <stop offset="1.0" stop-color="#fff2c4"/>
    </linearGradient>
    <linearGradient gradientTransform="matrix(0.0198, 0.0, 0.0, 0.035, 435.5, 118.5)" gradientUnits="userSpaceOnUse" id="gradient16" spreadMethod="pad" x1="-819.2" x2="819.2">
      <stop offset="0.0" stop-color="#ffe888"/>
      <stop offset="1.0" stop-color="#fff2c4"/>
    </linearGradient>
    <linearGradient gradientTransform="matrix(0.0237, 0.0, 0.0, 0.0284, 428.25, 155.25)" gradientUnits="userSpaceOnUse" id="gradient17" spreadMethod="pad" x1="-819.2" x2="819.2">
      <stop offset="0.0" stop-color="#ffe888"/>
      <stop offset="1.0" stop-color="#fff2c4"/>
    </linearGradient>
    <linearGradient gradientTransform="matrix(0.0201, 0.0, 0.0, 0.0234, 412.9, 196.65)" gradientUnits="userSpaceOnUse" id="gradient18" spreadMethod="pad" x1="-819.2" x2="819.2">
      <stop offset="0.0" stop-color="#ffe888"/>
      <stop offset="1.0" stop-color="#fff2c4"/>
    </linearGradient>
  </defs>
</svg>
