<?xml version="1.0" encoding="UTF-8" standalone="no"?>
<svg xmlns:xlink="http://www.w3.org/1999/xlink" height="10.95px" width="30.65px" xmlns="http://www.w3.org/2000/svg">
  <g transform="matrix(1.0, 0.0, 0.0, 1.0, -259.65, -194.05)">
    <path d="M277.3 198.6 L277.35 198.55 277.45 198.6 277.4 198.6 277.35 198.6 277.3 198.6" fill="#fbf131" fill-rule="evenodd" stroke="none"/>
    <path d="M275.4 195.3 L275.5 195.3 275.55 195.4 275.5 195.5 275.4 195.55 275.3 195.5 275.25 195.4 275.3 195.3 275.4 195.3 M283.9 197.8 L283.6 197.7 283.5 197.6 283.6 197.4 283.9 197.35 284.15 197.4 284.25 197.6 284.15 197.7 283.9 197.8 M281.25 198.9 L281.45 198.85 281.65 198.9 281.7 199.0 281.65 199.05 281.45 199.1 281.25 199.05 281.2 199.0 281.25 198.9 M277.4 198.6 L277.4 198.65 277.35 198.7 277.3 198.7 277.25 198.7 277.25 198.6 277.3 198.6 277.35 198.6 277.4 198.6 M267.8 199.95 L267.75 199.95 267.7 199.95 267.7 199.9 267.7 199.85 267.8 199.85 267.8 199.95" fill="#ffffff" fill-rule="evenodd" stroke="none"/>
    <path d="M275.4 195.3 L275.3 195.3 275.25 195.4 275.3 195.5 275.4 195.55 275.5 195.5 275.55 195.4 275.5 195.3 275.4 195.3 M275.85 195.35 L276.15 195.75 275.85 196.2 275.15 196.35 274.45 196.2 274.15 195.75 Q274.15 195.5 274.45 195.35 L275.15 195.2 275.45 195.2 275.85 195.35 M282.55 197.35 L283.6 197.1 284.65 197.35 Q285.1 197.6 285.1 198.0 L284.65 198.6 283.6 198.85 282.55 198.6 Q282.1 198.35 282.15 198.0 282.1 197.6 282.55 197.35 M281.25 198.9 L281.2 199.0 281.25 199.05 281.45 199.1 281.65 199.05 281.7 199.0 281.65 198.9 281.45 198.85 281.25 198.9 M283.9 197.8 L284.15 197.7 284.25 197.6 284.15 197.4 283.9 197.35 283.6 197.4 283.5 197.6 283.6 197.7 283.9 197.8 M282.15 199.2 L281.8 199.6 280.95 199.75 280.1 199.6 279.8 199.2 Q279.75 198.95 280.1 198.8 L280.95 198.65 281.8 198.8 282.15 199.2 M277.35 198.55 L277.3 198.6 277.25 198.6 277.25 198.7 277.3 198.7 277.35 198.7 277.4 198.65 277.4 198.6 277.45 198.6 277.55 198.8 277.45 199.0 277.15 199.1 276.9 199.0 276.8 198.8 276.9 198.6 277.15 198.5 277.35 198.55 M267.85 199.85 L268.0 200.05 267.85 200.25 267.6 200.35 267.35 200.25 267.25 200.05 267.35 199.85 267.6 199.75 267.75 199.8 267.8 199.8 267.85 199.85 M267.8 199.95 L267.8 199.85 267.7 199.85 267.7 199.9 267.7 199.95 267.75 199.95 267.8 199.95" fill="#56b54f" fill-rule="evenodd" stroke="none"/>
    <path d="M267.15 195.7 Q268.0 195.1 269.25 195.35 L271.3 195.65 272.95 195.4 273.7 194.45 Q273.85 193.85 275.0 194.1 L275.8 194.45 Q276.65 195.2 277.25 195.25 277.95 195.3 278.7 195.8 279.15 196.1 279.1 196.6 279.05 196.9 279.75 197.0 283.75 195.8 284.85 196.45 L286.65 196.85 Q287.6 197.15 287.75 197.85 288.25 199.1 284.7 199.25 284.05 199.2 284.0 199.45 L284.3 199.9 Q284.6 200.15 284.35 200.65 284.1 201.15 283.35 200.95 283.15 200.95 282.7 200.45 L281.5 200.3 280.85 200.4 279.95 200.4 278.95 201.0 Q278.05 201.65 277.15 201.7 275.7 201.8 276.55 200.9 L277.55 199.55 Q276.9 198.7 274.45 199.3 L272.75 199.95 271.2 200.55 269.55 200.85 267.4 201.5 Q266.25 201.6 265.5 200.9 L265.15 200.7 264.8 200.25 264.8 199.9 264.8 199.3 265.0 198.75 265.4 198.5 Q266.0 198.2 267.35 198.5 270.55 199.4 270.55 198.45 L270.55 198.0 Q270.45 197.6 269.95 197.55 L267.05 196.75 Q266.3 196.25 267.15 195.7 M270.8 197.9 Q271.3 197.6 269.0 196.9 266.75 196.2 267.1 196.05 266.75 196.2 269.0 196.9 271.3 197.6 270.8 197.9 M289.2 199.7 L288.4 199.5 288.1 199.15 288.1 199.1 Q288.1 198.85 288.4 198.7 L289.2 198.55 289.95 198.7 290.3 199.1 289.95 199.5 289.2 199.7 M285.65 202.55 L285.95 202.45 286.1 202.45 286.4 202.5 286.5 202.55 286.7 202.75 286.5 203.0 286.4 203.05 286.1 203.1 285.95 203.1 285.65 203.0 285.45 202.75 285.65 202.55 M289.75 199.25 L288.1 199.15 289.75 199.25 M276.45 198.75 Q274.05 198.7 272.15 199.75 270.25 200.75 268.75 200.7 266.7 201.7 265.25 200.25 266.7 201.7 268.75 200.7 270.25 200.75 272.15 199.75 274.05 198.7 276.45 198.75 M279.75 200.15 Q278.0 201.55 276.8 201.3 278.0 201.55 279.75 200.15 M273.2 204.55 L273.0 204.85 272.55 205.0 272.1 204.85 271.9 204.55 272.1 204.25 Q272.25 204.1 272.55 204.1 L273.0 204.25 273.2 204.55 M262.2 199.45 L261.15 199.65 260.1 199.45 259.75 199.15 259.65 198.85 Q259.65 198.55 260.1 198.3 L261.15 198.05 262.2 198.3 Q262.65 198.55 262.65 198.85 L262.2 199.45 M287.35 197.85 Q287.8 199.1 283.9 198.95 287.8 199.1 287.35 197.85 M262.2 199.1 L259.75 199.15 262.2 199.1" fill="#56b54f" fill-opacity="0.5019608" fill-rule="evenodd" stroke="none"/>
    <path d="M267.1 196.05 Q266.75 196.2 269.0 196.9 271.3 197.6 270.8 197.9" fill="none" stroke="#bfe264" stroke-linecap="round" stroke-linejoin="round" stroke-width="0.05"/>
    <path d="M288.1 199.15 L289.75 199.25" fill="none" stroke="#dbeea8" stroke-linecap="round" stroke-linejoin="round" stroke-width="0.05"/>
    <path d="M276.8 201.3 Q278.0 201.55 279.75 200.15 M265.25 200.25 Q266.7 201.7 268.75 200.7 270.25 200.75 272.15 199.75 274.05 198.7 276.45 198.75 M259.75 199.15 L262.2 199.1 M283.9 198.95 Q287.8 199.1 287.35 197.85" fill="none" stroke="#dbeea8" stroke-linecap="round" stroke-linejoin="round" stroke-width="0.05"/>
  </g>
</svg>
