<?xml version="1.0" encoding="UTF-8" standalone="no"?>
<svg xmlns:xlink="http://www.w3.org/1999/xlink" height="75.7px" width="53.5px" xmlns="http://www.w3.org/2000/svg">
  <g transform="matrix(1.0, 0.0, 0.0, 1.0, 0.5, 0.5)">
    <path d="M26.7 7.35 L22.05 6.75 Q20.15 6.15 20.15 5.3 20.15 4.45 22.05 3.9 L26.7 3.3 31.3 3.9 Q33.2 4.45 33.2 5.3 33.2 6.15 31.3 6.75 L26.7 7.35 Z" fill="none" stroke="#a2d9fe" stroke-linecap="round" stroke-linejoin="round" stroke-width="0.05"/>
    <path d="M25.75 1.3 L25.75 1.25 Q21.9 -0.1 18.9 2.65 L17.45 4.2 16.95 5.0 17.35 5.15 17.5 5.1 Q18.1 3.75 19.55 3.15 21.85 2.05 24.4 1.65 L25.5 1.5 25.5 1.6 25.5 1.7 25.6 1.65 25.7 1.5 25.95 1.5 25.85 1.45 25.75 1.4 25.75 1.3 M19.7 7.35 Q19.4 7.05 17.7 6.5 16.1 6.0 16.15 5.6 L16.15 5.45 Q16.2 3.25 19.15 1.65 22.1 0.0 26.35 0.0 30.6 0.0 33.6 1.65 35.4 2.65 36.1 3.85 36.6 4.65 36.6 5.6 36.6 6.0 34.95 6.7 33.15 7.45 32.9 7.7 L32.1 10.3 Q30.1 17.5 30.1 27.65 30.1 35.45 31.25 41.5 L32.1 45.0 32.7 47.0 Q34.1 49.4 36.95 51.45 38.9 52.85 41.1 53.75 L42.9 54.45 Q52.5 58.4 52.5 64.0 52.5 69.6 42.9 73.6 40.2 74.65 35.3 74.6 27.85 74.5 26.25 74.65 L23.5 74.65 22.65 74.65 22.65 73.85 21.7 72.35 22.75 72.4 22.95 72.25 22.95 72.2 22.9 72.15 21.7 72.05 21.45 72.0 21.45 72.35 Q16.2 72.1 11.25 70.8 8.4 70.0 6.1 68.3 L5.75 68.2 4.8 67.45 Q4.05 67.0 3.7 66.2 L3.1 65.4 2.85 64.7 Q2.6 64.2 2.65 63.7 2.7 62.95 3.05 62.35 L3.15 62.25 Q3.15 61.9 3.45 61.7 L3.5 61.6 3.55 61.55 3.8 61.3 3.9 61.2 Q5.15 60.0 6.7 59.05 7.4 58.65 8.15 58.4 11.8 57.2 15.65 57.05 L15.65 57.45 16.6 57.4 16.7 57.25 16.7 57.15 16.65 57.15 16.5 57.05 21.75 54.5 27.6 45.7 26.5 7.25 26.45 7.25 22.4 6.85 21.15 6.4 20.75 6.25 20.45 6.05 19.0 5.85 19.7 7.35 M18.4 4.85 L19.0 5.85 18.4 4.85 M34.35 4.8 Q33.6 5.9 32.9 7.7 33.6 5.9 34.35 4.8" fill="#0099ff" fill-opacity="0.15294118" fill-rule="evenodd" stroke="none"/>
    <path d="M22.65 74.65 L17.45 74.7 Q12.55 74.75 9.75 73.6 0.0 69.65 0.0 64.05 0.0 58.45 9.75 54.5 L11.6 53.8 Q13.85 52.85 15.8 51.5 18.65 49.45 20.1 47.05 L20.7 45.05 21.55 41.55 Q22.7 35.5 22.7 27.7 22.7 17.55 20.7 10.35 L19.7 7.35 19.0 5.85 20.45 6.05 20.75 6.25 21.15 6.4 22.4 6.85 26.45 7.25 26.5 7.25 27.6 45.7 21.75 54.5 16.5 57.05 16.1 57.0 15.65 57.05 Q11.8 57.2 8.15 58.4 7.4 58.65 6.7 59.05 5.15 60.0 3.9 61.2 L3.8 61.3 3.55 61.55 3.5 61.6 3.45 61.7 Q3.15 61.9 3.15 62.25 L3.05 62.35 Q2.7 62.95 2.65 63.7 2.6 64.2 2.85 64.7 L3.1 65.4 3.7 66.2 Q4.05 67.0 4.8 67.45 L5.75 68.2 5.9 68.25 6.1 68.3 Q8.4 70.0 11.25 70.8 16.2 72.1 21.45 72.35 L21.7 72.35 22.65 73.85 22.65 74.65" fill="#0099ff" fill-opacity="0.2509804" fill-rule="evenodd" stroke="none"/>
    <path d="M25.75 1.3 L25.75 1.4 25.85 1.45 25.95 1.5 25.7 1.5 25.6 1.65 25.5 1.7 25.5 1.6 25.5 1.5 24.4 1.65 Q21.85 2.05 19.55 3.15 18.1 3.75 17.5 5.1 L17.35 5.15 16.95 5.0 17.45 4.2 18.9 2.65 Q21.9 -0.1 25.75 1.25 L25.75 1.3" fill="#46b5ff" fill-opacity="0.34117648" fill-rule="evenodd" stroke="none"/>
    <path d="M19.7 7.35 L19.0 5.85 18.4 4.85 M32.9 7.7 Q33.6 5.9 34.35 4.8" fill="none" stroke="#7dcbff" stroke-linecap="round" stroke-linejoin="round" stroke-width="0.05"/>
    <path d="M19.7 7.35 Q19.4 7.05 17.7 6.5 16.1 6.0 16.15 5.6 L16.15 5.45 Q16.2 3.25 19.15 1.65 22.1 0.0 26.35 0.0 30.6 0.0 33.6 1.65 35.4 2.65 36.1 3.85 36.6 4.65 36.6 5.6 36.6 6.0 34.95 6.7 33.15 7.45 32.9 7.7 L32.1 10.3 Q30.1 17.5 30.1 27.65 30.1 35.45 31.25 41.5 L32.1 45.0 32.7 47.0 Q34.1 49.4 36.95 51.45 38.9 52.85 41.1 53.75 L42.9 54.45 Q52.5 58.4 52.5 64.0 52.5 69.6 42.9 73.6 40.2 74.65 35.3 74.6 27.85 74.5 26.25 74.65 L23.5 74.65 22.65 74.65 17.45 74.7 Q12.55 74.75 9.75 73.6 0.0 69.65 0.0 64.05 0.0 58.45 9.75 54.5 L11.6 53.8 Q13.85 52.85 15.8 51.5 18.65 49.45 20.1 47.05 L20.7 45.05 21.55 41.55 Q22.7 35.5 22.7 27.7 22.7 17.55 20.7 10.35 L19.7 7.35 Z" fill="none" stroke="#a2d9fe" stroke-linecap="round" stroke-linejoin="round" stroke-width="1.0"/>
    <path d="M28.85 2.1 L29.2 2.55 28.85 2.95 28.1 3.15 27.3 2.95 27.0 2.55 Q26.95 2.3 27.3 2.1 L28.1 1.95 28.85 2.1 M33.35 2.8 Q34.35 3.3 34.8 4.2 35.25 5.05 34.9 5.7 34.5 6.35 34.1 5.3 33.65 4.2 32.4 4.25 L30.4 4.0 Q29.7 3.75 30.05 3.1 30.4 2.4 31.35 2.35 32.3 2.25 33.35 2.8 M29.15 39.25 Q29.35 40.8 30.3 44.5 31.2 48.15 30.8 49.4 L29.4 49.45 Q28.4 48.25 28.2 46.7 L28.0 43.0 28.2 39.25 Q28.4 37.7 28.65 37.7 28.95 37.7 29.15 39.25 M32.0 51.4 Q33.45 51.4 34.5 52.05 35.5 52.7 35.55 53.6 35.5 54.5 34.5 55.15 33.45 55.8 32.0 55.8 30.55 55.8 29.5 55.15 28.5 54.5 28.5 53.6 28.5 52.7 29.5 52.05 30.55 51.4 32.0 51.4 M37.0 56.5 Q36.1 56.15 37.75 55.2 39.35 54.25 41.35 55.85 43.35 57.4 45.6 58.0 47.85 58.55 48.55 59.4 49.25 60.3 49.15 61.65 49.05 63.05 48.6 63.55 L47.05 64.4 44.4 64.6 Q43.3 64.45 44.55 63.9 45.8 63.35 47.4 61.6 49.0 59.8 40.4 56.9 L37.0 56.5" fill="#ffffff" fill-rule="evenodd" stroke="none"/>
    <path d="M20.35 8.25 Q21.15 8.05 22.2 10.75 23.3 13.4 24.1 17.35 24.8 21.3 24.8 24.15 24.75 27.05 24.0 27.2 23.2 27.35 23.05 24.6 L22.75 17.9 Q22.5 13.95 21.05 11.15 19.6 8.35 20.35 8.25 M22.8 49.3 L21.25 51.75 Q20.35 52.7 19.8 52.45 19.25 52.2 19.3 50.95 19.4 49.7 20.05 48.15 20.7 46.6 21.55 45.65 22.45 44.75 23.0 45.0 23.55 45.2 23.5 46.5 23.45 47.75 22.8 49.3 M23.75 51.75 L24.5 50.95 Q24.9 51.9 24.95 52.95 L24.5 54.9 Q23.5 55.6 22.2 56.0 L17.95 56.65 13.4 56.85 Q11.0 57.0 9.5 57.95 L8.9 57.6 10.2 56.45 Q11.75 54.95 13.6 53.9 14.9 53.15 16.15 52.6 L16.55 52.4 Q17.9 53.2 19.65 53.2 22.05 53.2 23.75 51.75 M8.5 63.85 Q10.25 65.95 13.0 66.9 15.75 67.85 18.65 68.15 22.35 68.5 20.35 71.75 18.8 74.3 15.5 74.1 12.4 73.9 9.55 73.05 6.7 72.2 4.15 70.6 1.65 68.95 0.8 66.15 -0.2 62.7 2.2 60.9 4.55 59.05 7.4 59.3 6.05 61.05 8.5 63.85" fill="#0099ff" fill-opacity="0.43137255" fill-rule="evenodd" stroke="none"/>
    <path d="M18.05 50.95 L17.25 51.5" fill="none" stroke="#ffffff" stroke-linecap="round" stroke-linejoin="round" stroke-width="0.05"/>
  </g>
</svg>
