<?xml version="1.0" encoding="UTF-8" standalone="no"?>
<svg xmlns:xlink="http://www.w3.org/1999/xlink" height="233.25px" width="141.1px" xmlns="http://www.w3.org/2000/svg">
  <g transform="matrix(1.0, 0.0, 0.0, 1.0, -204.4, -83.35)">
    <path d="M320.3 258.55 L320.25 259.1 Q321.5 261.45 323.2 263.5 L327.05 267.25 Q330.15 266.15 333.55 265.55 L329.4 268.15 329.7 271.4 330.25 271.65 330.75 271.95 333.95 273.5 335.6 271.35 343.0 268.1 345.2 269.4 344.4 272.35 342.0 270.4 336.85 272.35 336.45 272.5 336.1 275.95 338.45 277.25 334.45 278.45 331.25 275.35 327.95 276.65 Q326.25 279.35 325.8 283.05 L325.9 284.65 Q324.85 286.05 323.55 286.5 L323.35 283.45 320.35 281.85 319.25 281.8 319.05 281.8 318.1 282.8 318.1 281.3 319.55 280.15 320.4 279.9 322.85 279.95 324.3 277.6 325.3 276.0 323.7 273.75 318.25 274.5 318.1 274.6 318.1 259.45 320.3 258.55 M318.4 289.25 L318.15 289.3 318.1 289.05 318.1 288.6 318.55 289.15 318.4 289.25 M266.7 276.15 L267.7 280.2 267.7 280.15 267.8 281.15 271.35 286.25 268.0 285.6 263.7 287.7 263.5 290.4 264.9 291.3 266.95 292.6 268.7 291.35 269.15 291.05 269.4 291.1 268.7 291.35 269.4 291.1 276.3 292.4 276.9 293.05 Q277.05 297.1 274.05 298.45 L273.9 298.45 274.55 293.8 270.5 292.3 270.3 292.45 269.55 293.0 268.05 295.9 269.15 298.65 Q268.0 298.9 266.7 298.2 L266.1 296.75 Q264.2 293.8 261.85 292.3 L258.9 292.8 257.9 297.1 254.45 298.05 255.65 295.75 253.95 292.95 253.6 293.05 249.0 293.9 248.1 296.8 246.25 294.65 247.35 292.45 254.05 291.55 256.15 292.55 256.4 292.15 257.8 289.65 258.35 288.65 257.25 285.65 253.15 285.5 Q255.85 284.3 258.6 283.7 259.4 281.1 259.8 278.5 260.15 275.9 260.1 273.25 L259.0 271.55 254.55 272.05 254.3 272.05 253.9 272.1 254.05 272.1 254.3 272.05 254.05 272.1 264.65 269.6 264.85 269.65 265.05 269.65 266.7 276.15 M232.4 151.5 Q212.0 140.75 204.5 114.25 L214.9 114.25 Q214.95 117.25 217.35 122.25 219.7 127.2 231.5 144.95 L232.4 151.5 M258.15 97.0 L261.9 89.85 Q266.8 84.35 272.5 83.45 L272.5 88.25 268.8 89.95 268.75 89.8 268.7 89.8 268.7 90.0 265.9 91.25 262.85 95.7 258.15 97.0 M260.9 164.25 L261.15 184.25 259.75 184.25 259.4 183.1 249.1 145.25 249.35 145.05 249.0 145.1 246.25 138.1 243.2 128.05 235.95 118.6 234.65 118.5 233.85 116.9 233.85 116.95 234.85 117.75 238.7 116.85 240.0 112.35 242.6 113.8 245.95 109.55 244.95 104.85 246.4 104.2 247.4 102.7 248.15 103.1 250.6 104.3 252.7 105.3 253.15 105.35 249.8 109.75 248.65 109.85 248.5 109.85 247.8 109.9 243.65 115.4 243.4 115.3 242.8 115.6 241.4 116.4 239.9 119.1 245.5 123.8 246.6 126.1 246.65 126.2 248.7 130.6 248.75 130.7 250.85 135.15 252.85 139.4 252.85 139.45 253.85 144.35 249.35 145.05 253.85 144.35 260.9 164.25 M275.45 96.85 L277.35 95.05 277.9 94.45 279.15 95.65 280.6 95.9 280.65 97.05 280.8 100.7 284.85 103.95 286.75 101.85 288.35 104.7 289.0 105.85 292.65 105.75 293.35 104.7 293.05 106.4 291.9 106.85 289.85 107.65 291.9 106.85 287.65 117.85 287.4 128.35 286.6 135.8 286.45 135.85 Q284.1 153.7 292.05 179.95 287.05 168.5 281.3 157.05 L282.1 136.35 281.85 131.35 282.55 132.05 281.85 131.35 281.8 131.35 282.6 126.7 283.4 121.85 283.4 121.75 284.2 116.95 284.2 116.85 284.6 114.35 288.5 108.35 286.5 106.1 285.1 105.75 284.5 105.6 284.3 105.75 279.25 101.5 278.65 101.65 278.5 101.7 277.45 101.9 273.45 98.5 273.8 98.35 275.45 96.85 M285.2 105.1 L285.1 105.75 285.2 105.1 M229.55 130.6 L229.7 131.85 229.55 130.6 M242.5 115.05 L242.8 115.6 242.5 115.05 M238.25 118.8 L235.95 118.6 238.25 118.8 M284.0 122.3 L283.4 121.85 284.0 122.3 M248.2 131.3 L248.75 130.7 248.2 131.3 M252.25 140.3 L252.85 139.45 252.25 140.3 M249.05 137.3 L250.85 135.15 249.05 137.3 M284.7 128.3 L282.6 126.7 284.7 128.3 M286.45 135.85 L282.1 136.35 286.45 135.85 M258.25 289.85 L257.8 289.65 258.25 289.85 M259.5 290.35 L258.9 292.8 259.5 290.35 M262.65 292.15 L261.85 292.3 262.65 292.15 M266.1 296.75 L265.1 294.45 266.1 296.75" fill="#3e1e11" fill-rule="evenodd" stroke="none"/>
    <path d="M333.55 265.55 L337.6 265.05 338.0 265.25 334.9 266.35 330.8 271.95 330.25 271.65 329.7 271.4 329.4 268.15 333.55 265.55 M249.75 287.45 L249.95 287.05 Q251.55 286.15 253.15 285.5 L257.25 285.65 258.35 288.65 257.8 289.65 252.5 286.85 249.75 287.45 M334.0 266.65 L334.9 266.35 334.0 266.65 M254.65 113.85 L252.9 120.1 252.3 120.45 251.85 120.05 252.3 120.45 Q250.65 126.35 246.6 126.1 L245.5 123.8 239.9 119.1 241.4 116.4 242.8 115.6 243.4 115.3 243.65 115.4 247.8 109.9 248.5 109.85 248.65 109.85 Q248.5 112.05 250.1 113.65 252.3 115.65 254.65 113.85 M278.5 101.7 L278.65 101.65 279.25 101.5 284.3 105.75 284.5 105.6 285.1 105.75 286.5 106.1 288.5 108.35 284.6 114.35 284.2 116.85 Q281.8 117.7 279.7 115.6 278.7 114.6 277.8 112.9 L277.15 112.7 274.1 107.1 Q276.65 108.25 278.1 105.75 279.1 103.75 278.5 101.7 M278.9 106.1 L281.0 109.25 Q283.05 110.95 284.4 108.8 L285.1 105.75 284.4 108.8 Q283.05 110.95 281.0 109.25 L278.9 106.1 M278.1 112.35 L277.8 112.9 278.1 112.35 M249.4 114.2 L247.95 117.85 Q246.25 120.1 244.3 118.35 L242.8 115.6 244.3 118.35 Q246.25 120.1 247.95 117.85 L249.4 114.2 M253.25 286.65 L252.5 286.85 253.25 286.65" fill="#603d1a" fill-rule="evenodd" stroke="none"/>
    <path d="M338.0 265.25 L340.9 266.9 336.65 268.35 333.55 273.25 330.8 271.95 334.9 266.35 338.0 265.25 M271.35 286.25 L271.6 286.6 272.95 288.35 270.05 287.15 266.1 288.5 266.05 288.65 264.9 291.3 263.5 290.4 263.7 287.7 268.0 285.6 271.35 286.25 M248.35 290.35 L249.75 287.45 252.5 286.85 257.8 289.65 256.4 292.15 252.05 289.45 248.35 290.35 M318.1 274.6 L318.25 274.5 323.7 273.75 325.3 276.0 324.3 277.6 321.75 276.0 321.65 275.9 318.1 276.8 318.1 274.6 M254.1 124.5 L255.7 129.4 Q254.45 132.7 252.9 134.15 L251.4 135.0 250.85 135.15 248.75 130.7 248.95 130.65 249.75 130.35 Q252.4 129.1 254.1 124.5 M257.2 133.55 L258.8 138.3 258.7 139.6 Q258.1 143.0 253.85 144.35 L252.85 139.45 252.85 139.4 253.7 139.1 Q255.45 138.2 256.55 135.5 L257.2 133.55 M277.15 117.25 Q278.4 119.25 279.7 120.35 281.05 121.5 282.4 121.75 L283.4 121.85 282.6 126.7 280.5 126.25 279.7 125.7 279.15 125.25 Q278.05 124.2 276.85 122.4 L277.0 120.0 277.15 117.25 M276.55 126.8 Q277.2 128.1 277.95 129.0 L279.7 130.7 Q280.7 131.35 281.8 131.35 L281.85 131.35 282.1 136.35 Q278.3 136.2 276.9 133.55 L276.65 133.05 276.25 131.8 276.55 126.8" fill="#774b20" fill-rule="evenodd" stroke="none"/>
    <path d="M340.9 266.9 L343.0 268.1 335.6 271.35 333.95 273.5 333.55 273.25 336.65 268.35 340.9 266.9 M272.95 288.35 L274.5 290.3 276.3 292.4 269.4 291.1 269.15 291.05 268.7 291.35 266.95 292.6 264.9 291.3 266.05 288.65 266.1 288.5 270.05 287.15 272.95 288.35 M247.35 292.45 L248.35 290.35 252.05 289.45 256.4 292.15 256.15 292.55 254.05 291.55 247.35 292.45 M324.3 277.6 L322.85 279.95 320.4 279.9 319.8 279.95 319.55 280.15 318.1 281.3 318.1 280.3 318.1 276.8 321.65 275.9 321.75 276.0 324.3 277.6 M257.0 106.5 L256.0 109.1 255.9 109.55 254.65 113.85 Q252.3 115.65 250.1 113.65 248.5 112.05 248.65 109.85 L249.8 109.75 253.15 105.35 254.0 105.4 256.45 105.65 256.55 105.65 257.0 106.5 M252.3 120.45 L252.85 120.9 254.1 124.5 Q252.4 129.1 249.75 130.35 L248.95 130.65 248.75 130.7 248.7 130.6 246.65 126.2 246.6 126.1 Q250.65 126.35 252.3 120.45 M255.7 129.4 L257.2 133.55 256.55 135.5 Q255.45 138.2 253.7 139.1 L252.85 139.4 250.85 135.15 251.4 135.0 252.9 134.15 Q254.45 132.7 255.7 129.4 M258.7 139.6 L258.75 139.65 258.95 138.05 Q259.1 136.4 260.05 144.4 260.6 149.45 260.9 164.25 L253.85 144.35 Q258.1 143.0 258.7 139.6 M270.55 99.65 L272.7 98.8 273.45 98.5 277.45 101.9 278.5 101.7 Q279.1 103.75 278.1 105.75 276.65 108.25 274.1 107.1 L272.0 103.25 271.75 102.85 270.3 100.6 270.5 99.65 270.55 99.65 M284.2 116.85 L284.2 116.95 283.4 121.75 283.4 121.85 282.4 121.75 Q281.05 121.5 279.7 120.35 278.4 119.25 277.15 117.25 L277.4 113.45 277.8 112.9 Q278.7 114.6 279.7 115.6 281.8 117.7 284.2 116.85 M276.85 122.4 Q278.05 124.2 279.15 125.25 L279.7 125.7 280.5 126.25 282.6 126.7 281.8 131.35 Q280.7 131.35 279.7 130.7 L277.95 129.0 Q277.2 128.1 276.55 126.8 L276.85 122.4 M276.5 133.45 L276.9 133.55 Q278.3 136.2 282.1 136.35 L281.3 157.05 276.5 133.45 M274.5 290.3 L272.15 289.7 269.4 291.1 272.15 289.7 274.5 290.3 M319.55 280.15 L318.1 280.3 319.55 280.15" fill="#6d441d" fill-rule="evenodd" stroke="none"/>
    <path d="M343.95 277.9 L342.25 278.2 338.45 277.25 336.1 275.95 336.45 272.5 336.85 272.35 339.0 275.3 343.95 277.9 M323.55 286.5 L323.95 290.7 322.5 290.7 322.7 285.45 319.25 281.8 320.35 281.85 323.35 283.45 323.55 286.5 M330.45 307.9 Q328.1 310.45 327.35 312.05 326.55 313.65 320.85 316.45 L316.45 316.0 Q310.65 314.15 305.7 312.1 L316.5 312.9 320.85 316.45 316.5 312.9 Q323.4 311.5 328.7 305.3 L330.45 307.9 M271.7 301.75 L270.65 302.45 269.15 298.65 268.05 295.9 269.55 293.0 270.3 292.45 269.35 297.3 271.7 301.75 M254.45 298.05 L252.1 300.75 Q251.45 301.05 250.75 301.4 L253.25 296.7 253.6 293.05 253.95 292.95 255.65 295.75 254.45 298.05 M280.75 87.7 L283.7 86.7 289.0 89.3 289.0 91.95 293.1 90.5 296.1 94.05 296.1 94.1 296.05 95.45 295.9 95.5 291.75 96.5 288.35 104.7 286.75 101.85 287.9 100.65 288.75 96.8 284.15 96.3 280.65 97.05 280.6 95.9 280.55 95.85 283.1 95.1 285.65 90.25 285.7 90.25 280.75 87.7 M256.75 101.95 L257.0 106.5 256.55 105.65 256.45 105.65 254.0 105.4 252.7 105.3 250.6 104.3 248.15 103.1 248.15 98.3 256.75 101.95 M268.65 90.4 Q269.5 90.9 269.5 90.1 271.0 90.75 272.5 91.45 L275.7 92.85 277.35 95.05 275.45 96.85 272.7 93.45 269.45 91.75 268.65 90.4 M288.85 96.35 L288.75 96.8 288.85 96.35 290.1 96.35 292.75 93.9 289.0 91.95 288.85 96.35 M293.65 93.05 L292.75 93.9 293.65 93.05 M240.0 112.35 L237.9 107.75 240.0 112.35 238.7 116.85 234.85 117.75 233.85 116.95 230.9 109.1 230.7 108.9 226.9 104.25 237.9 107.75 244.1 100.85 244.95 104.85 245.95 109.55 242.6 113.8 240.0 112.35 M296.1 94.05 L296.1 94.1 296.1 94.05" fill="#c79625" fill-rule="evenodd" stroke="none"/>
    <path d="M344.4 272.35 L344.95 273.3 345.4 277.65 344.55 277.85 343.95 277.9 339.0 275.3 336.85 272.35 342.0 270.4 344.4 272.35 M322.5 290.7 L319.9 290.6 318.6 289.15 318.55 289.15 318.1 288.6 318.1 282.8 319.05 281.8 319.25 281.8 322.7 285.45 322.5 290.7 M273.9 298.45 L273.55 300.35 271.7 301.75 269.35 297.3 270.3 292.45 270.5 292.3 274.55 293.8 273.9 298.45 M250.75 301.4 L250.3 301.6 249.6 301.9 248.1 297.9 248.1 296.8 249.0 293.9 253.6 293.05 253.25 296.7 250.75 301.4 M222.1 104.25 L227.3 100.7 235.75 103.15 234.5 99.5 239.7 96.3 244.1 100.85 244.9 95.5 250.1 93.1 256.55 97.45 256.75 101.95 248.15 98.3 248.15 103.1 247.4 102.7 246.4 104.2 244.95 104.85 244.1 100.85 237.9 107.75 235.75 103.15 237.9 107.75 226.9 104.25 222.1 104.25 M296.05 95.45 L296.05 95.55 295.65 101.15 293.35 104.7 292.65 105.75 289.0 105.85 288.35 104.7 291.75 96.5 295.9 95.5 296.05 95.45 M262.85 95.7 L265.9 91.25 268.65 90.4 268.7 90.0 268.7 89.8 268.75 89.8 268.8 89.95 268.95 90.3 268.65 90.4 268.95 90.3 268.65 90.4 269.45 91.75 272.7 93.45 275.45 96.85 273.8 98.35 272.7 98.8 270.55 99.65 268.45 94.2 268.4 94.2 262.85 95.7 M280.65 97.05 L284.15 96.3 288.75 96.8 287.9 100.65 286.75 101.85 284.85 103.95 280.8 100.7 280.65 97.05" fill="#e3c764" fill-rule="evenodd" stroke="none"/>
    <path d="M318.15 289.3 L319.7 298.7 339.3 285.85 Q333.6 295.0 328.4 300.65 L330.5 296.7 330.25 297.05 329.35 298.1 328.7 299.5 326.95 300.95 Q324.1 303.8 320.5 306.5 L320.7 305.5 322.3 302.9 323.15 301.25 Q319.55 305.35 314.1 308.3 L312.1 308.1 Q311.05 308.1 311.1 307.3 311.25 306.7 311.75 306.15 L312.55 305.3 310.9 305.7 308.1 305.7 306.8 305.45 302.7 302.5 303.85 301.65 306.3 301.2 301.1 297.95 301.4 298.0 298.95 296.75 304.9 296.75 297.0 294.3 294.15 290.2 299.6 290.7 297.8 290.0 295.95 288.95 288.15 278.3 291.9 279.3 293.3 278.9 Q290.3 275.1 287.9 269.9 L292.3 273.1 285.45 264.75 283.2 260.4 282.95 259.35 Q285.95 260.05 291.9 264.8 L290.5 260.7 288.5 258.3 285.9 254.2 Q282.25 248.05 281.3 241.9 L288.0 246.15 Q287.3 244.5 287.6 244.5 L276.8 222.1 276.65 220.55 276.5 218.1 Q279.65 221.25 283.3 223.1 282.35 221.1 282.0 217.15 281.65 213.95 278.65 208.25 L276.9 205.1 Q285.45 212.55 282.9 206.35 280.35 200.15 278.6 195.0 L282.5 196.1 272.9 182.1 273.4 182.3 276.2 183.75 278.3 184.9 Q266.2 154.0 266.3 144.9 L272.4 150.85 274.5 153.3 273.9 152.3 272.4 150.85 270.6 148.15 268.1 143.8 Q262.75 133.1 264.9 121.1 L271.9 136.9 Q267.15 120.2 269.9 115.3 L271.8 117.9 273.7 120.5 273.7 120.3 Q273.95 118.0 273.5 116.0 275.05 117.55 277.0 120.0 L276.85 122.4 276.55 126.8 276.25 131.8 276.65 133.05 276.9 133.55 276.5 133.45 276.65 133.05 276.5 133.45 281.3 157.05 Q287.05 168.5 292.05 179.95 L292.55 181.15 Q300.15 198.65 306.05 216.15 313.0 236.75 317.65 257.35 L318.1 259.45 318.1 274.6 318.1 276.8 318.1 280.3 318.1 281.3 318.1 282.8 318.1 288.6 318.1 289.05 318.15 289.3 M230.2 271.65 L225.5 271.0 223.7 270.65 223.85 270.5 217.7 268.7 225.9 259.9 233.7 245.1 230.7 245.1 237.8 230.25 Q238.95 216.6 238.35 202.65 L235.95 206.3 Q236.5 198.4 236.45 190.55 L234.3 192.5 236.35 185.3 235.95 177.8 234.15 184.5 234.15 164.55 232.4 151.5 231.5 144.95 230.6 138.45 230.5 137.4 Q232.9 141.85 234.65 146.3 234.4 149.8 233.5 153.1 L233.5 153.3 233.9 151.7 234.9 155.7 235.0 155.05 235.3 155.1 236.7 160.3 237.2 164.35 Q237.8 168.7 239.1 172.7 240.75 183.75 242.55 194.3 L242.9 196.9 243.3 193.1 Q245.45 200.95 244.7 209.9 246.55 206.8 247.8 203.1 L249.0 208.6 249.05 208.55 249.05 208.6 249.05 212.25 Q246.5 218.15 245.65 224.3 L247.1 222.1 Q246.1 231.75 242.4 241.65 241.65 243.6 241.3 245.3 241.95 245.35 242.85 244.65 243.45 244.15 243.9 244.1 L245.3 242.7 246.1 241.3 246.1 242.5 244.2 248.45 244.9 247.7 246.1 246.7 Q246.1 250.7 243.8 254.25 L242.5 256.5 Q238.15 261.8 234.75 266.75 L234.1 267.5 237.4 265.15 238.7 264.1 238.1 266.1 Q235.55 267.75 232.5 269.9 L230.2 271.65 M204.5 114.25 L212.5 104.25 222.1 104.25 226.9 104.25 230.7 108.9 219.3 106.7 221.1 107.9 224.1 108.7 217.9 108.3 217.3 107.9 212.9 107.9 215.45 108.7 215.7 108.9 217.3 109.3 218.1 109.9 220.7 110.3 212.3 111.3 Q211.75 111.2 211.7 111.5 L213.7 112.3 214.3 112.7 215.9 113.1 216.3 113.5 Q218.35 114.1 220.05 115.05 L221.2 115.3 217.5 115.3 217.75 116.4 214.9 114.25 204.5 114.25 M274.1 143.1 L271.9 136.9 274.1 143.1 M274.5 126.3 L271.8 117.9 274.5 126.3 M259.4 183.1 L259.75 184.25 259.4 184.25 259.4 183.1 M286.3 183.7 L286.3 181.3 286.3 183.7 M288.65 221.85 Q288.15 221.0 288.1 220.05 L288.1 221.3 289.0 222.4 288.65 221.85 M298.1 241.7 L298.1 238.3 298.1 241.7 M289.5 217.1 L289.5 214.7 289.5 217.1 M289.0 222.4 Q290.4 224.75 291.3 225.7 L291.15 225.15 289.0 222.4 M304.9 247.3 L304.9 244.5 304.9 247.3 M280.6 232.5 L280.6 232.75 280.4 232.35 280.6 232.5 M245.65 224.3 L245.5 224.5 245.6 224.5 245.65 224.3 M309.7 250.9 L309.65 250.75 309.3 250.9 309.7 250.9 M225.5 271.0 L223.85 270.5 225.5 271.0 M313.7 298.7 L319.7 298.7 313.7 298.7" fill="#ea8915" fill-rule="evenodd" stroke="none"/>
    <path d="M305.7 312.1 Q297.25 308.55 291.3 304.5 274.2 292.9 266.7 276.15 L265.05 269.65 264.85 269.65 264.65 269.6 Q267.9 247.35 265.3 225.05 L261.15 189.45 261.15 184.25 261.15 189.45 265.3 225.05 Q267.9 247.35 264.65 269.6 L254.05 272.1 Q247.25 272.65 240.45 272.45 L230.95 271.75 230.2 271.65 232.5 269.9 Q235.55 267.75 238.1 266.1 L238.7 264.1 237.4 265.15 234.1 267.5 234.75 266.75 Q238.15 261.8 242.5 256.5 L243.8 254.25 Q246.1 250.7 246.1 246.7 L244.9 247.7 244.2 248.45 246.1 242.5 246.1 241.3 245.3 242.7 243.9 244.1 Q243.45 244.15 242.85 244.65 241.95 245.35 241.3 245.3 241.65 243.6 242.4 241.65 246.1 231.75 247.1 222.1 L245.65 224.3 Q246.5 218.15 249.05 212.25 L249.05 208.6 249.05 208.55 249.0 208.6 247.8 203.1 Q246.55 206.8 244.7 209.9 245.45 200.95 243.3 193.1 L242.9 196.9 242.55 194.3 Q240.75 183.75 239.1 172.7 237.8 168.7 237.2 164.35 L236.7 160.3 235.3 155.1 235.0 155.05 234.9 155.7 233.9 151.7 233.5 153.3 233.5 153.1 Q234.4 149.8 234.65 146.3 232.9 141.85 230.5 137.4 L229.9 133.05 229.85 133.05 229.7 131.85 229.55 130.6 228.75 124.85 217.75 116.4 217.5 115.3 221.2 115.3 220.05 115.05 Q218.35 114.1 216.3 113.5 L215.9 113.1 214.3 112.7 213.7 112.3 211.7 111.5 Q211.75 111.2 212.3 111.3 L220.7 110.3 218.1 109.9 217.3 109.3 215.7 108.9 215.45 108.7 212.9 107.9 217.3 107.9 217.9 108.3 224.1 108.7 221.1 107.9 219.3 106.7 230.7 108.9 230.9 109.1 233.85 116.95 233.85 116.9 234.65 118.5 235.95 118.6 243.2 128.05 246.25 138.1 249.0 145.1 249.35 145.05 249.1 145.25 259.4 183.1 259.4 184.25 259.75 184.25 261.15 184.25 260.9 164.25 Q260.6 149.45 260.05 144.4 259.1 136.4 258.95 138.05 L258.75 139.65 258.7 139.6 258.8 138.3 257.2 133.55 255.7 129.4 254.1 124.5 252.85 120.9 252.3 120.45 252.9 120.1 254.65 113.85 255.9 109.55 256.0 109.1 257.0 106.5 256.75 101.95 256.55 97.45 258.15 97.0 262.85 95.7 268.4 94.2 268.45 94.2 270.55 99.65 270.5 99.65 270.3 100.6 271.75 102.85 272.0 103.25 274.1 107.1 277.15 112.7 277.8 112.9 277.4 113.45 277.15 117.25 277.0 120.0 Q275.05 117.55 273.5 116.0 L271.2 113.95 Q269.3 112.5 268.3 113.05 269.3 112.5 271.2 113.95 L273.5 116.0 Q273.95 118.0 273.7 120.3 L273.7 120.5 271.8 117.9 269.9 115.3 Q267.15 120.2 271.9 136.9 L264.9 121.1 Q262.75 133.1 268.1 143.8 L270.6 148.15 272.4 150.85 273.9 152.3 274.5 153.3 272.4 150.85 266.3 144.9 Q266.2 154.0 278.3 184.9 L276.2 183.75 273.4 182.3 272.9 182.1 282.5 196.1 278.6 195.0 Q280.35 200.15 282.9 206.35 285.45 212.55 276.9 205.1 L278.65 208.25 Q281.65 213.95 282.0 217.15 282.35 221.1 283.3 223.1 279.65 221.25 276.5 218.1 L276.65 220.55 276.8 222.1 287.6 244.5 Q287.3 244.5 288.0 246.15 L281.3 241.9 Q282.25 248.05 285.9 254.2 L288.5 258.3 290.5 260.7 291.9 264.8 Q285.95 260.05 282.95 259.35 L283.2 260.4 285.45 264.75 292.3 273.1 287.9 269.9 Q290.3 275.1 293.3 278.9 L291.9 279.3 288.15 278.3 295.95 288.95 297.8 290.0 299.6 290.7 294.15 290.2 297.0 294.3 304.9 296.75 298.95 296.75 301.4 298.0 301.1 297.95 306.3 301.2 303.85 301.65 302.7 302.5 306.8 305.45 308.1 305.7 310.9 305.7 312.55 305.3 311.75 306.15 Q311.25 306.7 311.1 307.3 311.05 308.1 312.1 308.1 L314.1 308.3 Q319.55 305.35 323.15 301.25 L322.3 302.9 320.7 305.5 320.5 306.5 Q324.1 303.8 326.95 300.95 L328.7 299.5 329.35 298.1 330.25 297.05 330.5 296.7 328.4 300.65 Q333.6 295.0 339.3 285.85 L328.7 305.3 Q323.4 311.5 316.5 312.9 L305.7 312.1 M272.5 83.45 L280.75 87.7 285.7 90.25 285.65 90.25 283.1 95.1 280.55 95.85 280.6 95.9 279.15 95.65 277.9 94.45 277.35 95.05 275.7 92.85 272.5 91.45 272.5 88.25 272.5 83.45 M296.05 95.55 L299.7 97.45 Q295.35 115.0 299.7 147.45 301.55 179.8 312.5 209.85 L330.1 248.25 Q328.8 254.6 320.3 258.55 L318.1 259.45 317.65 257.35 Q313.0 236.75 306.05 216.15 300.15 198.65 292.55 181.15 L292.05 179.95 Q284.1 153.7 286.45 135.85 L286.6 135.8 287.4 128.35 287.65 117.85 291.9 106.85 293.05 106.4 293.35 104.7 295.65 101.15 296.05 95.55 M272.7 98.8 L273.8 98.35 273.45 98.5 272.7 98.8 M288.85 96.35 L289.0 91.95 292.75 93.9 290.1 96.35 288.85 96.35 M254.0 105.4 L253.15 105.35 252.7 105.3 254.0 105.4 M261.15 189.45 L259.75 184.25 261.15 189.45 M288.65 221.85 L289.0 222.4 288.1 221.3 288.1 220.05 Q288.15 221.0 288.65 221.85 M289.0 222.4 L291.15 225.15 291.3 225.7 Q290.4 224.75 289.0 222.4 M245.65 224.3 L245.6 224.5 245.5 224.5 245.65 224.3 M280.6 232.5 L280.4 232.35 280.6 232.75 280.6 232.5 M309.7 250.9 L309.3 250.9 309.65 250.75 309.7 250.9 M285.9 254.2 L280.1 245.9 285.9 254.2" fill="#aa591e" fill-rule="evenodd" stroke="none"/>
    <path d="M339.3 285.85 Q337.25 297.1 330.45 307.9 L328.7 305.3 339.3 285.85" fill="#c9ae72" fill-rule="evenodd" stroke="none"/>
    <path d="M274.05 298.45 L273.9 298.45 274.05 298.45" fill="#cdb8ab" fill-rule="evenodd" stroke="none"/>
    <path d="M320.3 258.55 L320.25 259.1 Q321.5 261.45 323.2 263.5 L327.05 267.25 Q330.15 266.15 333.55 265.55 L337.6 265.05 338.0 265.25 340.9 266.9 343.0 268.1 345.2 269.4 344.4 272.35 344.95 273.3 345.4 277.65 344.55 277.85 M343.95 277.9 L342.25 278.2 338.45 277.25 334.45 278.45 331.25 275.35 327.95 276.65 Q326.25 279.35 325.8 283.05 L325.9 284.65 Q324.85 286.05 323.55 286.5 L323.95 290.7 322.5 290.7 319.9 290.6 318.6 289.15 318.4 289.25 318.15 289.3 319.7 298.7 339.3 285.85 Q337.25 297.1 330.45 307.9 328.1 310.45 327.35 312.05 326.55 313.65 320.85 316.45 L316.45 316.0 Q310.65 314.15 305.7 312.1 297.25 308.55 291.3 304.5 274.2 292.9 266.7 276.15 L267.7 280.2 267.7 280.15 267.8 281.15 271.35 286.25 271.6 286.6 272.95 288.35 274.5 290.3 276.3 292.4 276.9 293.05 Q277.05 297.1 274.05 298.45 L273.9 298.45 273.55 300.35 271.7 301.75 270.65 302.45 269.15 298.65 Q268.0 298.9 266.7 298.2 L266.1 296.75 Q264.2 293.8 261.85 292.3 L258.9 292.8 257.9 297.1 254.45 298.05 252.1 300.75 Q251.45 301.05 250.75 301.4 M250.3 301.6 L249.6 301.9 248.1 297.9 248.1 296.8 246.25 294.65 247.35 292.45 248.35 290.35 249.75 287.45 249.95 287.05 Q251.55 286.15 253.15 285.5 255.85 284.3 258.6 283.7 259.4 281.1 259.8 278.5 260.15 275.9 260.1 273.25 L259.0 271.55 254.55 272.05 254.3 272.05 253.9 272.1 254.05 272.1 Q247.25 272.65 240.45 272.45 L230.95 271.75 230.2 271.65 225.5 271.0 223.7 270.65 223.85 270.5 217.7 268.7 225.9 259.9 233.7 245.1 230.7 245.1 237.8 230.25 Q238.95 216.6 238.35 202.65 L235.95 206.3 Q236.5 198.4 236.45 190.55 L234.3 192.5 236.35 185.3 235.95 177.8 234.15 184.5 234.15 164.55 232.4 151.5 231.5 144.95 230.6 138.45 229.85 133.05 229.7 131.85 229.55 130.6 228.75 124.85 M212.5 104.25 L222.1 104.25 227.3 100.7 235.75 103.15 234.5 99.5 239.7 96.3 244.1 100.85 244.9 95.5 250.1 93.1 256.55 97.45 258.15 97.0 262.85 95.7 265.9 91.25 268.65 90.4 268.95 90.3 269.5 90.1 M272.5 83.45 L280.75 87.7 283.7 86.7 289.0 89.3 M289.0 91.95 L293.1 90.5 296.1 94.05 296.1 94.1 M296.05 95.55 L299.7 97.45 Q295.35 115.0 299.7 147.45 301.55 179.8 312.5 209.85 L330.1 248.25 Q328.8 254.6 320.3 258.55 L318.1 259.45 318.1 274.6 318.1 276.8 318.1 280.3 319.55 280.15 320.4 279.9 M318.1 281.3 L318.1 282.8 319.05 281.8 319.25 281.8 320.35 281.85 323.35 283.45 323.55 286.5 M330.8 271.95 L334.9 266.35 334.0 266.65 M330.75 271.95 L330.8 271.95 M333.55 273.25 L336.65 268.35 340.9 266.9 M338.0 265.25 L334.9 266.35 M336.85 272.35 L336.45 272.5 336.1 275.95 338.45 277.25 M344.4 272.35 L342.0 270.4 336.85 272.35 M339.3 285.85 L328.7 305.3 330.45 307.9 M256.55 97.45 L256.75 101.95 257.0 106.5 M258.7 139.6 L258.75 139.65 258.95 138.05 Q259.1 136.4 260.05 144.4 260.6 149.45 260.9 164.25 L261.15 184.25 261.15 189.45 265.3 225.05 Q267.9 247.35 264.65 269.6 L264.85 269.65 265.05 269.65 266.7 276.15 M272.5 88.25 L272.5 83.45 M272.5 91.45 L272.5 88.25 M289.0 91.95 L292.75 93.9 M262.85 95.7 L268.4 94.2 M237.9 107.75 L240.0 112.35 M244.95 104.85 L244.1 100.85 M237.9 107.75 L235.75 103.15 M230.7 108.9 L230.9 109.1 233.85 116.95 M226.9 104.25 L230.7 108.9 M222.1 104.25 L226.9 104.25 M268.3 113.05 Q269.3 112.5 271.2 113.95 L273.5 116.0 Q275.05 117.55 277.0 120.0 M271.9 136.9 L274.1 143.1 M271.8 117.9 L274.5 126.3 M249.35 145.05 L249.1 145.25 259.4 183.1 259.75 184.25 261.15 189.45 M276.5 133.45 L276.9 133.55 M276.65 133.05 L276.5 133.45 281.3 157.05 282.1 136.35 M288.15 278.3 L295.95 288.95 M286.3 181.3 L286.3 183.7 M318.1 259.45 L317.65 257.35 Q313.0 236.75 306.05 216.15 300.15 198.65 292.55 181.15 L292.05 179.95 Q287.05 168.5 281.3 157.05 M286.45 135.85 Q284.1 153.7 292.05 179.95 M248.15 103.1 L248.15 98.3 M289.5 214.7 L289.5 217.1 M298.1 238.3 L298.1 241.7 M304.9 244.5 L304.9 247.3 M254.05 272.1 L254.3 272.05 M256.4 292.15 L252.05 289.45 248.35 290.35 M248.1 296.8 L249.0 293.9 253.6 293.05 253.95 292.95 255.65 295.75 254.45 298.05 M249.75 287.45 L252.5 286.85 253.25 286.65 M257.8 289.65 L258.25 289.85 M261.85 292.3 L262.65 292.15 M258.9 292.8 L259.5 290.35 M252.5 286.85 L257.8 289.65 M264.9 291.3 L266.05 288.65 266.1 288.5 270.05 287.15 272.95 288.35 M269.4 291.1 L272.15 289.7 274.5 290.3 M265.1 294.45 L266.1 296.75 M269.15 298.65 L268.05 295.9 269.55 293.0 270.3 292.45 270.5 292.3 274.55 293.8 273.9 298.45 M268.7 291.35 L269.4 291.1 M254.05 272.1 L264.65 269.6 M324.3 277.6 L321.75 276.0 321.65 275.9 318.1 276.8 M318.1 280.3 L318.1 281.3 M318.1 288.6 L318.1 289.05 318.15 289.3 M318.1 288.6 L318.55 289.15 318.6 289.15 M318.1 282.8 L318.1 288.6 M280.1 245.9 L285.9 254.2 M223.85 270.5 L225.5 271.0 M316.5 312.9 L320.85 316.45 M319.7 298.7 L313.7 298.7 M316.5 312.9 L305.7 312.1 M328.7 305.3 Q323.4 311.5 316.5 312.9" fill="none" stroke="#774b20" stroke-linecap="round" stroke-linejoin="round" stroke-width="0.25"/>
    <path d="M232.4 151.5 Q212.0 140.75 204.5 114.25 L212.5 104.25 M258.15 97.0 L261.9 89.85 Q266.8 84.35 272.5 83.45 M289.0 89.3 L289.0 91.95 288.85 96.35 288.75 96.8 287.9 100.65 286.75 101.85 288.35 104.7 289.0 105.85 292.65 105.75 293.35 104.7 295.65 101.15 296.05 95.55 296.05 95.45 296.1 94.1 296.1 94.05 M257.0 106.5 L256.0 109.1 M255.9 109.55 L254.65 113.85 252.9 120.1 M252.3 120.45 L252.85 120.9 254.1 124.5 255.7 129.4 257.2 133.55 258.8 138.3 M265.9 91.25 L268.7 90.0 268.7 89.8 268.75 89.8 M268.8 89.95 L272.5 88.25 M268.7 90.0 L268.65 90.4 M275.45 96.85 L277.35 95.05 275.7 92.85 272.5 91.45 Q271.0 90.75 269.5 90.1 M268.4 94.2 L268.45 94.2 270.55 99.65 272.7 98.8 273.8 98.35 275.45 96.85 M280.6 95.9 L279.15 95.65 277.9 94.45 277.35 95.05 M280.6 95.9 L280.65 97.05 280.8 100.7 284.85 103.95 286.75 101.85 M292.75 93.9 L293.65 93.05 M285.65 90.25 L283.1 95.1 280.55 95.85 M292.75 93.9 L290.1 96.35 288.85 96.35 M217.75 116.4 L228.75 124.85 M229.85 133.05 L229.9 133.05 M233.85 116.9 L234.65 118.5 235.95 118.6 238.25 118.8 M231.5 144.95 Q219.7 127.2 217.35 122.25 214.95 117.25 214.9 114.25 L204.5 114.25 M214.9 114.25 L217.75 116.4 M291.9 106.85 L293.05 106.4 293.35 104.7 M291.9 106.85 L289.85 107.65 M277.8 112.9 L277.4 113.45 277.15 117.25 277.0 120.0 276.85 122.4 276.55 126.8 276.25 131.8 M286.6 135.8 L287.4 128.35 287.65 117.85 291.9 106.85 M274.1 107.1 L277.15 112.7 M277.8 112.9 L278.1 112.35 M270.55 99.65 L270.5 99.65 270.3 100.6 271.75 102.85 M272.0 103.25 L274.1 107.1 M254.0 105.4 L256.45 105.65 256.55 105.65 257.0 106.5 M248.15 103.1 L247.4 102.7 246.4 104.2 244.95 104.85 M252.7 105.3 L250.6 104.3 M252.3 120.45 L251.85 120.05 M254.0 105.4 L252.7 105.3 M249.0 145.1 L246.25 138.1 243.2 128.05 235.95 118.6" fill="none" stroke="#000000" stroke-linecap="round" stroke-linejoin="round" stroke-opacity="0.32156864" stroke-width="0.25"/>
    <path d="M252.9 120.1 L252.3 120.45 Q250.65 126.35 246.6 126.1 L246.65 126.2 M258.8 138.3 L258.7 139.6 Q258.1 143.0 253.85 144.35 L249.35 145.05 249.0 145.1 M278.5 101.7 L278.65 101.65 M285.1 105.75 L285.2 105.1 M242.8 115.6 L242.5 115.05 M285.1 105.75 L284.4 108.8 Q283.05 110.95 281.0 109.25 L278.9 106.1 M284.2 116.95 L284.2 116.85 Q281.8 117.7 279.7 115.6 278.7 114.6 277.8 112.9 L277.15 112.7 M277.15 117.25 Q278.4 119.25 279.7 120.35 281.05 121.5 282.4 121.75 L283.4 121.85 284.0 122.3 M286.45 135.85 L286.6 135.8 M278.5 101.7 Q279.1 103.75 278.1 105.75 276.65 108.25 274.1 107.1 M276.85 122.4 Q278.05 124.2 279.15 125.25 L279.7 125.7 280.5 126.25 282.6 126.7 284.7 128.3 M248.65 109.85 Q248.5 112.05 250.1 113.65 252.3 115.65 254.65 113.85 M248.65 109.85 L248.5 109.85 M242.8 115.6 L244.3 118.35 Q246.25 120.1 247.95 117.85 L249.4 114.2 M257.2 133.55 L256.55 135.5 Q255.45 138.2 253.7 139.1 L252.85 139.4 252.85 139.45 252.25 140.3 M254.1 124.5 Q252.4 129.1 249.75 130.35 L248.95 130.65 248.75 130.7 248.2 131.3 M250.85 135.15 L251.4 135.0 252.9 134.15 Q254.45 132.7 255.7 129.4 M250.85 135.15 L249.05 137.3 M276.55 126.8 Q277.2 128.1 277.95 129.0 L279.7 130.7 Q280.7 131.35 281.8 131.35 L281.85 131.35 282.55 132.05 M276.9 133.55 L276.65 133.05 276.25 131.8 M282.1 136.35 Q278.3 136.2 276.9 133.55 M282.1 136.35 L286.45 135.85" fill="none" stroke="#3e1e11" stroke-linecap="round" stroke-linejoin="round" stroke-width="0.25"/>
  </g>
</svg>
