<?xml version="1.0" encoding="UTF-8" standalone="no"?>
<svg xmlns:xlink="http://www.w3.org/1999/xlink" height="149.15px" width="155.8px" xmlns="http://www.w3.org/2000/svg">
  <g transform="matrix(1.0, 0.0, 0.0, 1.0, 77.9, 74.55)">
    <path d="M72.3 -72.85 L70.8 -73.65 70.75 -74.2 Q74.2 -73.2 76.2 -71.5 L76.1 -71.35 75.75 -71.45 74.4 -71.95 72.3 -72.85 M-77.75 70.5 Q-78.15 68.8 -77.35 66.45 -75.9 62.0 -73.3 61.5 L-71.5 61.55 -70.85 61.75 -68.95 62.8 -68.8 62.85 Q-65.75 64.95 -66.05 68.0 -66.2 69.05 -66.75 70.3 L-68.85 71.95 -71.3 72.7 -74.15 72.6 -77.75 70.5 M14.4 -10.75 L14.45 -10.85 14.65 -11.1 14.7 -11.15 14.65 -10.95 16.25 -11.65 18.05 -11.9 19.85 -11.4 Q20.7 -11.0 21.05 -10.05 L21.55 -8.25 21.5 -6.45 Q21.0 -5.5 20.1 -5.2 L19.45 -5.05 15.05 -5.25 14.35 -5.85 Q13.65 -6.5 13.75 -7.45 13.75 -8.4 14.1 -9.3 L14.6 -10.9 14.45 -10.85 14.6 -10.9 14.4 -10.75 M14.6 -10.9 L14.65 -10.95 14.6 -10.9 M16.25 -9.95 L16.1 -9.9 16.25 -9.9 16.25 -9.95 M-67.55 68.15 L-67.65 68.15 -67.55 68.15" fill="#feefb4" fill-rule="evenodd" stroke="none"/>
    <path d="M70.8 -73.65 L72.3 -72.85 Q71.15 -70.6 71.8 -68.6 73.25 -63.9 73.6 -59.5 74.0 -54.8 73.25 -50.4 72.45 -45.65 71.2 -41.0 L68.7 -31.7 Q67.4 -27.0 65.75 -22.4 L62.55 -13.75 Q60.75 -9.15 57.6 -5.6 54.4 -2.05 52.1 2.75 L51.95 2.95 Q50.05 5.35 48.05 7.0 L40.75 13.3 Q37.5 16.2 34.5 19.45 L32.6 20.95 Q35.75 17.7 38.4 13.7 41.1 9.7 44.05 6.45 46.8 3.35 49.35 0.9 52.35 -2.1 55.45 -5.8 58.45 -9.4 60.15 -13.9 L63.25 -22.85 Q64.55 -27.35 66.65 -31.8 68.7 -36.2 69.95 -40.65 L71.9 -49.55 Q72.6 -54.0 72.05 -58.6 71.4 -63.2 71.15 -67.75 L70.8 -73.65 M74.4 -71.95 L75.75 -71.45 Q75.35 -66.9 76.4 -62.5 77.3 -58.2 77.0 -53.55 76.7 -49.0 75.75 -44.35 74.8 -39.95 73.2 -35.5 71.65 -31.1 71.25 -26.5 L70.5 -21.8 70.35 -21.1 69.1 -18.8 64.9 -10.6 Q62.85 -6.45 60.45 -2.65 57.85 1.45 54.85 5.3 L48.55 12.25 48.5 12.2 53.85 5.85 Q56.65 2.7 59.0 -1.4 L63.45 -9.85 Q65.0 -12.95 65.75 -16.3 66.65 -20.9 68.6 -25.55 70.45 -29.95 71.85 -34.45 73.35 -39.05 74.35 -43.7 75.3 -48.25 75.4 -52.75 L75.15 -61.65 74.4 -71.95 M26.8 17.1 Q26.15 20.3 28.4 21.55 L29.7 22.05 26.5 21.95 Q25.55 17.7 25.4 13.0 L24.7 3.8 Q24.2 -0.7 20.1 -5.2 21.0 -5.5 21.5 -6.45 L21.8 -7.25 Q22.3 -9.6 21.65 -11.0 23.25 -8.05 24.35 -5.1 L24.6 -4.3 Q26.4 1.15 26.55 6.8 26.65 11.9 26.9 16.3 L26.9 16.6 26.8 17.1 M19.2 5.6 Q18.8 1.2 16.4 -2.6 19.95 1.75 22.0 5.8 23.15 8.25 22.95 10.55 22.55 15.15 23.05 19.45 23.45 23.3 22.35 27.35 20.05 28.65 17.6 30.85 L15.3 33.35 Q12.3 36.95 8.25 39.0 4.3 41.05 0.35 43.55 L-7.75 48.6 Q-11.85 50.95 -15.75 52.7 -19.95 54.6 -24.15 55.9 L-33.25 58.5 Q-37.45 59.65 -41.95 61.35 -46.8 63.05 -51.2 61.75 -55.5 60.45 -59.75 61.1 -63.9 61.6 -68.85 62.75 L-68.95 62.8 -70.85 61.75 Q-66.95 60.4 -62.65 59.5 L-58.25 59.2 -48.65 59.85 Q-44.1 60.0 -39.8 57.75 -35.5 55.45 -30.65 54.3 L-21.3 52.1 Q-17.7 51.25 -14.4 49.95 -12.3 49.15 -10.9 47.5 L-10.75 47.3 -7.25 45.3 -6.9 45.05 -6.7 45.0 Q-2.8 43.9 1.1 41.8 5.05 39.65 8.35 37.1 8.55 36.95 8.8 36.85 10.55 36.8 11.8 35.8 13.7 34.15 14.75 30.85 15.3 29.05 16.25 28.05 17.2 27.0 18.55 26.85 22.05 26.5 21.8 23.2 21.5 18.4 20.7 14.45 L19.2 5.6 M-66.05 68.0 Q-62.95 67.0 -60.1 66.95 L-51.05 65.9 Q-46.35 64.9 -41.85 63.45 -37.3 62.0 -32.6 62.2 -27.85 62.45 -23.75 60.65 L-15.3 57.05 -6.5 53.4 -0.2 51.0 Q4.3 49.5 8.0 46.5 L15.35 40.3 Q18.9 37.3 21.85 34.1 24.85 30.85 28.6 29.1 L29.1 28.85 Q31.75 27.1 33.9 24.85 36.9 21.5 41.0 19.1 L42.05 18.4 Q39.6 21.75 36.3 24.2 L28.8 29.8 Q24.95 32.65 21.8 36.1 18.65 39.6 14.9 42.1 11.0 44.65 7.4 47.45 3.9 50.05 -0.65 51.8 -3.5 52.45 -5.85 54.2 -9.85 57.15 -14.45 58.75 -18.95 60.35 -23.35 62.15 -27.8 63.85 -32.2 65.0 L-41.35 66.85 -50.5 68.1 Q-55.3 68.65 -59.35 69.8 L-67.6 71.85 -66.75 70.3 Q-66.2 69.05 -66.05 68.0" fill="#bb9e2b" fill-rule="evenodd" stroke="none"/>
    <path d="M72.3 -72.85 L74.4 -71.95 75.15 -61.65 75.4 -52.75 Q75.3 -48.25 74.35 -43.7 73.35 -39.05 71.85 -34.45 70.45 -29.95 68.6 -25.55 66.65 -20.9 65.75 -16.3 65.0 -12.95 63.45 -9.85 L59.0 -1.4 Q56.65 2.7 53.85 5.85 L48.5 12.2 48.15 12.65 48.0 12.8 42.1 18.3 42.05 18.4 41.0 19.1 Q36.9 21.5 33.9 24.85 31.75 27.1 29.1 28.85 L28.6 29.1 Q24.85 30.85 21.85 34.1 18.9 37.3 15.35 40.3 L8.0 46.5 Q4.3 49.5 -0.2 51.0 L-6.5 53.4 -15.3 57.05 -23.75 60.65 Q-27.85 62.45 -32.6 62.2 -37.3 62.0 -41.85 63.45 -46.35 64.9 -51.05 65.9 L-60.1 66.95 Q-62.95 67.0 -66.05 68.0 -65.75 64.95 -68.8 62.85 L-68.85 62.75 Q-63.9 61.6 -59.75 61.1 -55.5 60.45 -51.2 61.75 -46.8 63.05 -41.95 61.35 -37.45 59.65 -33.25 58.5 L-24.15 55.9 Q-19.95 54.6 -15.75 52.7 -11.85 50.95 -7.75 48.6 L0.35 43.55 Q4.3 41.05 8.25 39.0 12.3 36.95 15.3 33.35 L17.6 30.85 Q20.05 28.65 22.35 27.35 23.45 23.3 23.05 19.45 22.55 15.15 22.95 10.55 23.15 8.25 22.0 5.8 19.95 1.75 16.4 -2.6 L16.15 -2.95 14.15 -5.5 15.05 -5.25 19.45 -5.05 20.1 -5.2 Q24.2 -0.7 24.7 3.8 L25.4 13.0 Q25.55 17.7 26.5 21.95 L29.7 22.05 Q31.3 22.35 32.6 20.95 L34.5 19.45 Q37.5 16.2 40.75 13.3 L48.05 7.0 Q50.05 5.35 51.95 2.95 L52.1 2.75 Q54.4 -2.05 57.6 -5.6 60.75 -9.15 62.55 -13.75 L65.75 -22.4 Q67.4 -27.0 68.7 -31.7 L71.2 -41.0 Q72.45 -45.65 73.25 -50.4 74.0 -54.8 73.6 -59.5 73.25 -63.9 71.8 -68.6 71.15 -70.6 72.3 -72.85" fill="#ddc46c" fill-rule="evenodd" stroke="none"/>
    <path d="M75.75 -71.45 L76.1 -71.35 Q78.4 -61.75 77.8 -52.75 77.25 -43.85 74.7 -34.55 73.1 -28.65 71.1 -22.85 L70.7 -21.75 70.5 -21.8 71.25 -26.5 Q71.65 -31.1 73.2 -35.5 74.8 -39.95 75.75 -44.35 76.7 -49.0 77.0 -53.55 77.3 -58.2 76.4 -62.5 75.35 -66.9 75.75 -71.45 M26.95 17.05 Q31.4 18.3 38.45 10.45 L51.85 -4.0 Q58.2 -10.65 62.45 -22.3 66.7 -33.95 69.1 -43.15 71.65 -52.7 71.3 -61.45 71.05 -67.85 69.25 -74.55 L70.8 -73.65 71.15 -67.75 Q71.4 -63.2 72.05 -58.6 72.6 -54.0 71.9 -49.55 L69.95 -40.65 Q68.7 -36.2 66.65 -31.8 64.55 -27.35 63.25 -22.85 L60.15 -13.9 Q58.45 -9.4 55.45 -5.8 52.35 -2.1 49.35 0.9 46.8 3.35 44.05 6.45 41.1 9.7 38.4 13.7 35.75 17.7 32.6 20.95 31.25 21.8 29.7 22.05 L28.4 21.55 Q26.15 20.3 26.8 17.1 L26.95 17.05 M48.55 12.25 L54.85 5.3 Q57.85 1.45 60.45 -2.65 62.85 -6.45 64.9 -10.6 L69.1 -18.8 70.35 -21.1 70.15 -20.15 70.0 -19.8 68.7 -16.3 Q65.15 -6.95 59.6 0.55 54.05 8.0 47.55 15.0 41.2 21.85 34.2 27.9 L20.8 39.05 Q14.25 44.25 6.05 49.2 -2.05 54.05 -10.1 58.15 -18.4 62.35 -27.7 65.35 -36.55 68.15 -45.65 70.3 -54.75 72.45 -63.35 73.6 L-68.8 74.6 -70.35 74.5 Q-68.55 73.2 -67.6 71.85 L-59.35 69.8 Q-55.3 68.65 -50.5 68.1 L-41.35 66.85 -32.2 65.0 Q-27.8 63.85 -23.35 62.15 -18.95 60.35 -14.45 58.75 -9.85 57.15 -5.85 54.2 -3.5 52.45 -0.65 51.8 3.9 50.05 7.4 47.45 11.0 44.65 14.9 42.1 18.65 39.6 21.8 36.1 24.95 32.65 28.8 29.8 L36.3 24.2 Q39.6 21.75 42.05 18.4 L42.1 18.3 48.0 12.8 48.15 12.65 48.55 12.25 M-73.3 61.5 Q-66.6 59.0 -57.25 58.35 -48.25 57.65 -41.1 55.45 -34.0 53.2 -25.05 51.15 -16.1 49.1 -8.85 44.15 -1.7 39.2 7.0 35.5 12.25 33.2 16.05 27.9 17.75 25.55 19.15 22.65 L19.1 22.05 Q18.75 15.2 19.2 8.75 L19.2 5.6 20.7 14.45 Q21.5 18.4 21.8 23.2 22.05 26.5 18.55 26.85 17.2 27.0 16.25 28.05 15.3 29.05 14.75 30.85 13.7 34.15 11.8 35.8 10.55 36.8 8.8 36.85 8.55 36.95 8.35 37.1 5.05 39.65 1.1 41.8 -2.8 43.9 -6.7 45.0 L-6.9 45.05 -7.25 45.3 -10.75 47.3 -10.9 47.5 Q-12.3 49.15 -14.4 49.95 -17.7 51.25 -21.3 52.1 L-30.65 54.3 Q-35.5 55.45 -39.8 57.75 -44.1 60.0 -48.65 59.85 L-58.25 59.2 -62.65 59.5 Q-66.95 60.4 -70.85 61.75 L-71.5 61.55 -73.3 61.5 M42.05 18.4 Q45.2 16.25 48.0 12.8 45.2 16.25 42.05 18.4 M-1.85 41.0 Q-1.1 40.8 -0.45 40.15 -1.1 40.8 -1.85 41.0 M-9.8 45.8 L-10.75 47.3 -9.8 45.8 M11.8 35.8 Q10.0 36.0 8.8 36.85 10.0 36.0 11.8 35.8" fill="#9d8224" fill-rule="evenodd" stroke="none"/>
    <path d="M29.7 22.05 Q31.25 21.8 32.6 20.95 31.3 22.35 29.7 22.05 M70.5 -21.8 L70.7 -21.75 70.7 -21.7 70.5 -21.8 M70.15 -20.15 L70.35 -21.1 70.7 -21.7 70.15 -20.15 M48.0 12.8 L48.15 12.65 48.0 12.8" fill="#c09501" fill-rule="evenodd" stroke="none"/>
    <path d="M25.3 -16.15 L24.15 -18.0 23.95 -17.95 23.4 -17.85 Q20.1 -17.4 16.95 -18.65 L16.15 -19.0 Q13.95 -21.2 16.2 -21.75 15.05 -23.8 14.5 -26.7 L14.35 -27.5 14.35 -27.8 Q14.45 -30.8 15.45 -33.8 16.7 -37.65 18.5 -41.0 20.3 -44.4 22.75 -47.05 L23.3 -47.5 23.5 -46.65 24.05 -40.6 24.1 -39.55 Q24.25 -35.55 26.65 -33.1 29.4 -30.35 30.3 -26.8 31.0 -24.35 30.3 -21.65 29.8 -19.4 29.1 -18.75 30.6 -17.4 27.8 -16.65 L26.95 -16.45 26.35 -16.5 25.3 -16.15 M21.55 -28.8 Q21.6 -26.6 22.45 -24.6 19.7 -25.8 18.05 -27.85 18.4 -24.25 20.45 -21.65 21.75 -19.85 23.3 -19.4 L24.4 -20.5 24.6 -20.4 25.65 -19.25 25.9 -18.8 26.0 -18.8 Q26.65 -18.7 27.05 -19.2 29.2 -21.95 28.6 -25.9 L25.2 -23.85 24.55 -24.35 Q23.4 -27.7 22.65 -31.2 22.05 -33.75 22.15 -36.2 21.7 -33.75 21.6 -31.3 L21.55 -28.8" fill="#88b32f" fill-rule="evenodd" stroke="none"/>
    <path d="M24.35 -5.1 L25.8 -7.8 Q27.4 -11.95 25.3 -16.15 L26.35 -16.5 26.45 -16.3 Q28.2 -11.75 26.55 -7.6 L26.5 -7.45 25.15 -5.0 24.6 -4.3 24.35 -5.1 M16.15 -19.0 Q13.3 -20.5 11.85 -23.3 11.0 -25.05 9.55 -26.35 11.95 -25.5 14.05 -25.25 L13.6 -27.45 Q13.25 -30.0 13.65 -31.9 L14.25 -34.8 14.35 -35.15 Q15.6 -38.6 17.45 -41.55 L17.6 -41.8 Q19.5 -44.85 22.45 -46.8 L22.75 -47.05 Q20.3 -44.4 18.5 -41.0 16.7 -37.65 15.45 -33.8 14.45 -30.8 14.35 -27.8 L14.35 -27.5 14.5 -26.7 Q15.05 -23.8 16.2 -21.75 13.95 -21.2 16.15 -19.0 M23.5 -46.65 Q24.4 -43.55 25.6 -40.65 26.9 -37.3 28.65 -34.4 30.6 -31.1 31.25 -27.3 31.75 -24.4 30.9 -21.55 L30.8 -21.3 Q32.65 -20.65 34.5 -20.85 32.95 -17.55 29.35 -16.7 L26.95 -16.45 27.8 -16.65 Q30.6 -17.4 29.1 -18.75 29.8 -19.4 30.3 -21.65 31.0 -24.35 30.3 -26.8 29.4 -30.35 26.65 -33.1 24.25 -35.55 24.1 -39.55 L24.05 -40.6 23.5 -46.65" fill="#669900" fill-rule="evenodd" stroke="none"/>
    <path d="M21.55 -28.8 L21.6 -31.3 Q21.7 -33.75 22.15 -36.2 22.05 -33.75 22.65 -31.2 23.4 -27.7 24.55 -24.35 L25.2 -23.85 28.6 -25.9 Q29.2 -21.95 27.05 -19.2 26.65 -18.7 26.0 -18.8 L25.9 -18.8 25.65 -19.25 24.6 -20.4 24.4 -20.5 23.3 -19.4 Q21.75 -19.85 20.45 -21.65 18.4 -24.25 18.05 -27.85 19.7 -25.8 22.45 -24.6 21.6 -26.6 21.55 -28.8" fill="#b8da70" fill-rule="evenodd" stroke="none"/>
    <path d="M-70.35 74.5 Q-75.75 74.25 -77.7 70.7 L-77.7 70.65 -77.8 70.45 -77.75 70.5 -74.15 72.6 -71.3 72.7 -68.85 71.95 -66.75 70.3 -67.6 71.85 Q-68.55 73.2 -70.35 74.5 M14.15 -5.5 Q13.25 -5.9 12.95 -6.6 12.3 -8.05 14.4 -10.75 L14.6 -10.9 14.1 -9.3 Q13.75 -8.4 13.75 -7.45 13.65 -6.5 14.35 -5.85 L15.05 -5.25 14.15 -5.5 M14.7 -11.15 L14.85 -11.35 15.0 -11.5 Q15.55 -12.2 16.15 -12.45 20.35 -13.2 21.55 -11.2 L21.65 -11.0 Q22.3 -9.6 21.8 -7.25 L21.5 -6.45 21.55 -8.25 21.05 -10.05 Q20.7 -11.0 19.85 -11.4 L18.05 -11.9 16.25 -11.65 14.65 -10.95 14.7 -11.15 M-77.7 70.65 L-77.75 70.5 -77.7 70.65 M-67.55 68.15 L-67.65 68.15 -67.55 68.15" fill="#c7b778" fill-rule="evenodd" stroke="none"/>
    <path d="M48.5 12.2 L48.55 12.25 48.15 12.65 48.5 12.2" fill="#e1b504" fill-rule="evenodd" stroke="none"/>
    <path d="M-68.85 62.75 L-68.8 62.85 -68.95 62.8 -68.85 62.75" fill="#ecc528" fill-rule="evenodd" stroke="none"/>
    <path d="M70.8 -73.65 L72.3 -72.85 74.4 -71.95 75.75 -71.45 76.1 -71.35 76.5 -71.25 76.2 -71.5 Q74.2 -73.2 70.75 -74.2 L69.25 -74.55 Q71.05 -67.85 71.3 -61.45 71.65 -52.7 69.1 -43.15 66.7 -33.95 62.45 -22.3 58.2 -10.65 51.85 -4.0 L38.45 10.45 Q31.4 18.3 26.95 17.05 L26.9 16.6 26.8 17.1 M70.8 -73.65 L69.25 -74.55 M70.35 -21.1 L70.5 -21.8 M70.7 -21.75 L71.1 -22.85 Q73.1 -28.65 74.7 -34.55 77.25 -43.85 77.8 -52.75 78.4 -61.75 76.1 -71.35 M70.35 -21.1 L70.15 -20.15 70.7 -21.7 70.35 -21.1 M70.15 -20.15 L70.0 -19.8 68.7 -16.3 Q65.15 -6.95 59.6 0.55 54.05 8.0 47.55 15.0 41.2 21.85 34.2 27.9 L20.8 39.05 Q14.25 44.25 6.05 49.2 -2.05 54.05 -10.1 58.15 -18.4 62.35 -27.7 65.35 -36.55 68.15 -45.65 70.3 -54.75 72.45 -63.35 73.6 L-68.8 74.6 -70.35 74.5 Q-75.75 74.25 -77.7 70.7 -77.6 71.15 -77.8 70.45 L-77.7 70.65 -77.7 70.7 M-77.75 70.5 Q-78.15 68.8 -77.35 66.45 -75.9 62.0 -73.3 61.5 -66.6 59.0 -57.25 58.35 -48.25 57.65 -41.1 55.45 -34.0 53.2 -25.05 51.15 -16.1 49.1 -8.85 44.15 -1.7 39.2 7.0 35.5 12.25 33.2 16.05 27.9 17.75 25.55 19.15 22.65 L19.1 22.05 Q18.75 15.2 19.2 8.75 L19.2 5.6 Q18.8 1.2 16.4 -2.6 L16.15 -2.95 14.15 -5.5 Q13.25 -5.9 12.95 -6.6 12.3 -8.05 14.4 -10.75 L14.45 -10.85 14.65 -11.1 14.7 -11.15 14.85 -11.35 15.0 -11.5 Q15.55 -12.2 16.15 -12.45 20.35 -13.2 21.55 -11.2 L21.65 -11.0 Q23.25 -8.05 24.35 -5.1 L24.6 -4.3 Q26.4 1.15 26.55 6.8 26.65 11.9 26.9 16.3 L26.9 16.6 M70.7 -21.75 L70.7 -21.7 M14.65 -10.95 L14.6 -10.9 14.4 -10.75 M15.05 -5.25 L19.45 -5.05 20.1 -5.2 Q21.0 -5.5 21.5 -6.45 L21.8 -7.25 Q22.3 -9.6 21.65 -11.0 M14.45 -10.85 L14.6 -10.9 M14.7 -11.15 L14.65 -10.95 M14.15 -5.5 L15.05 -5.25 M-68.8 62.85 Q-65.75 64.95 -66.05 68.0 -66.2 69.05 -66.75 70.3 L-67.6 71.85 Q-68.55 73.2 -70.35 74.5 M-70.85 61.75 L-68.95 62.8 -68.8 62.85 M-77.75 70.5 L-77.7 70.65 M-73.3 61.5 L-71.5 61.55 -70.85 61.75" fill="none" stroke="#80691c" stroke-linecap="round" stroke-linejoin="round" stroke-width="0.05"/>
    <path d="M24.35 -5.1 L25.8 -7.8 Q27.4 -11.95 25.3 -16.15 L24.15 -18.0 23.95 -17.95 23.4 -17.85 Q20.1 -17.4 16.95 -18.65 L16.15 -19.0 Q13.3 -20.5 11.85 -23.3 11.0 -25.05 9.55 -26.35 11.95 -25.5 14.05 -25.25 L13.6 -27.45 Q13.25 -30.0 13.65 -31.9 L14.25 -34.8 14.35 -35.15 Q15.6 -38.6 17.45 -41.55 L17.6 -41.8 Q19.5 -44.85 22.45 -46.8 L22.75 -47.05 23.3 -47.5 23.5 -46.65 Q24.4 -43.55 25.6 -40.65 26.9 -37.3 28.65 -34.4 30.6 -31.1 31.25 -27.3 31.75 -24.4 30.9 -21.55 L30.8 -21.3 Q32.65 -20.65 34.5 -20.85 32.95 -17.55 29.35 -16.7 L26.95 -16.45 26.35 -16.5 26.45 -16.3 Q28.2 -11.75 26.55 -7.6 L26.5 -7.45 25.15 -5.0 24.6 -4.3" fill="none" stroke="#336600" stroke-linecap="round" stroke-linejoin="round" stroke-width="0.05"/>
    <path d="M29.7 22.05 Q31.25 21.8 32.6 20.95 M11.8 35.8 Q10.55 36.8 8.8 36.85 10.0 36.0 11.8 35.8 M48.15 12.65 L48.0 12.8 Q45.2 16.25 42.05 18.4 M-10.75 47.3 L-9.8 45.8 M-0.45 40.15 Q-1.1 40.8 -1.85 41.0" fill="none" stroke="#c09501" stroke-linecap="round" stroke-linejoin="round" stroke-width="0.05"/>
  </g>
</svg>
