<?xml version="1.0" encoding="UTF-8" standalone="no"?>
<svg xmlns:xlink="http://www.w3.org/1999/xlink" height="60.95px" width="107.9px" xmlns="http://www.w3.org/2000/svg">
  <g transform="matrix(1.0, 0.0, 0.0, 1.0, -221.0, -169.5)">
    <path d="M326.75 190.05 Q324.8 195.05 320.25 198.1 315.7 201.1 312.25 202.4 305.05 205.1 296.45 206.5 L294.35 206.65 294.35 205.3 Q302.95 203.9 310.15 201.2 313.6 199.9 316.25 198.5 324.25 194.15 324.65 188.65 L324.65 187.45 Q319.75 180.7 310.65 176.75 306.0 174.75 300.3 173.45 L299.9 173.35 298.6 173.0 297.15 172.55 284.7 171.25 284.7 171.75 272.75 171.35 259.45 172.25 Q248.95 173.5 240.5 176.7 L240.3 176.75 Q228.9 181.05 226.45 186.7 226.0 187.65 225.9 188.7 L225.8 188.65 225.8 187.45 225.8 187.25 225.85 187.15 225.5 186.0 Q225.15 185.25 225.35 184.85 227.55 179.7 240.3 174.9 L240.5 174.85 Q248.9 171.7 259.35 170.4 L272.75 169.5 286.9 169.95 Q293.8 170.55 299.9 171.9 L299.9 172.1 303.8 172.85 310.15 174.9 310.65 175.1 Q321.6 179.3 325.3 184.85 325.6 187.45 326.75 190.0 L326.75 190.05" fill="#0d9ba2" fill-opacity="0.9607843" fill-rule="evenodd" stroke="none"/>
    <path d="M296.45 206.5 Q305.05 205.1 312.25 202.4 315.7 201.1 320.25 198.1 324.8 195.05 326.75 190.05 327.9 192.8 328.45 195.55 329.45 200.5 328.1 205.15 324.8 209.15 320.8 212.4 L319.9 213.1 Q314.3 217.35 307.2 219.7 304.1 220.95 304.4 218.6 L303.65 219.1 Q306.1 211.55 296.45 206.5 M304.35 208.9 Q320.15 205.1 328.45 195.55 320.15 205.1 304.35 208.9" fill="#096977" fill-opacity="0.9607843" fill-rule="evenodd" stroke="none"/>
    <path d="M310.65 176.75 Q319.75 180.7 324.65 187.45 L324.65 188.65 Q324.25 194.15 316.25 198.5 313.8 197.15 310.65 195.95 L310.65 195.75 310.65 176.75" fill="#b08959" fill-rule="evenodd" stroke="none"/>
    <path d="M303.8 172.85 L299.9 172.1 299.9 171.9 303.8 172.85 M225.8 188.65 L225.9 188.7 225.85 189.0 225.8 188.65 M299.9 173.35 L300.3 173.45 299.9 173.45 299.9 173.35 M299.9 188.95 L299.9 192.75 294.55 191.75 Q298.0 190.45 299.9 188.95 M310.15 195.75 L310.65 195.75 310.65 195.95 310.15 195.75" fill="#86683e" fill-rule="evenodd" stroke="none"/>
    <path d="M284.7 171.75 L284.7 171.25 297.15 172.55 298.6 173.0 299.9 173.35 299.9 173.45 299.9 180.3 Q296.25 176.45 286.9 171.8 L284.7 171.75" fill="#937046" fill-rule="evenodd" stroke="none"/>
    <path d="M300.3 173.45 Q306.0 174.75 310.65 176.75 L310.65 195.75 310.15 195.75 Q305.35 193.95 299.9 192.75 L299.9 188.95 Q304.6 185.25 299.9 180.3 L299.9 173.45 300.3 173.45" fill="#9b764a" fill-rule="evenodd" stroke="none"/>
    <path d="M240.3 176.75 L240.5 176.7 240.5 176.75 240.3 176.75 M284.7 171.75 L286.9 171.8 Q296.25 176.45 299.9 180.3 304.6 185.25 299.9 188.95 298.0 190.45 294.55 191.75 L284.35 190.6 284.7 171.75" fill="#685231" fill-rule="evenodd" stroke="none"/>
    <path d="M259.45 172.25 L272.75 171.35 284.7 171.75 284.35 190.6 277.7 190.3 272.75 190.3 260.1 191.1 259.45 172.25" fill="#624a2f" fill-rule="evenodd" stroke="none"/>
    <path d="M294.35 205.3 L294.35 206.65 293.95 208.5 293.75 209.0 Q300.85 212.35 300.85 216.95 300.85 220.55 296.55 223.4 299.2 221.0 299.2 218.2 L299.2 217.85 298.85 217.75 298.95 216.7 298.95 216.65 298.9 216.4 298.85 216.2 Q298.0 213.95 295.2 212.0 293.35 210.7 290.6 209.6 L290.65 209.45 289.8 209.25 279.2 206.7 278.85 206.6 278.75 205.2 Q278.8 204.2 279.2 203.2 280.2 200.35 283.1 199.1 285.95 197.85 289.05 199.0 292.1 200.1 293.55 202.85 294.15 204.05 294.35 205.3 M284.35 200.7 Q282.1 201.65 281.3 203.9 281.0 204.7 281.0 205.5 L281.05 206.6 292.3 209.3 292.75 208.45 292.9 208.05 293.2 206.6 293.2 205.55 292.6 203.65 Q291.45 201.45 289.05 200.6 L284.35 200.7 M293.2 210.05 L293.75 209.0 293.2 210.05 M256.4 207.5 L256.4 207.65 254.7 207.9 254.7 207.85 254.6 207.25 254.55 206.85 254.4 206.25 Q253.85 204.75 252.45 203.9 250.75 202.85 248.75 203.3 247.35 203.6 246.45 204.45 L245.65 205.35 Q244.6 206.85 244.85 208.55 L244.95 208.95 Q245.2 210.1 245.95 210.95 L246.8 210.65 245.65 211.3 245.35 211.4 244.25 211.8 Q243.2 210.6 242.85 209.0 L242.75 208.5 Q242.45 206.15 243.85 204.05 L244.95 202.8 Q246.25 201.55 248.15 201.15 250.95 200.55 253.3 202.0 255.25 203.2 256.0 205.3 L256.25 206.1 256.35 206.65 256.4 207.5 M280.95 215.7 Q282.35 216.0 283.45 216.95 285.05 218.4 285.05 220.45 285.05 221.45 284.7 222.3 L283.45 223.9 Q281.85 225.35 279.6 225.35 277.35 225.35 275.75 223.9 274.7 223.0 274.35 221.8 L274.15 220.45 Q274.15 218.4 275.75 216.95 276.3 216.45 276.95 216.15 278.15 215.55 279.6 215.55 L280.95 215.7 M277.7 222.55 Q278.75 222.55 279.45 222.0 280.2 221.45 280.25 220.65 280.2 219.85 279.45 219.25 278.75 218.7 277.7 218.75 276.65 218.7 275.9 219.25 275.15 219.85 275.2 220.65 275.15 221.45 275.9 222.0 276.65 222.55 277.7 222.55 M260.9 210.0 Q262.45 210.6 263.75 211.8 266.45 214.35 266.45 217.95 266.45 221.3 264.1 223.7 L263.75 224.05 Q261.05 226.6 257.25 226.6 253.45 226.6 250.75 224.05 248.05 221.55 248.05 217.95 248.05 214.35 250.75 211.8 253.45 209.3 257.25 209.3 259.2 209.3 260.9 210.0 M258.45 216.55 Q257.45 215.8 256.0 215.8 254.55 215.8 253.5 216.55 252.5 217.35 252.5 218.45 252.5 219.55 253.5 220.3 254.55 221.1 256.0 221.1 257.45 221.1 258.45 220.3 259.5 219.55 259.5 218.45 259.5 217.35 258.45 216.55" fill="#053743" fill-opacity="0.9607843" fill-rule="evenodd" stroke="none"/>
    <path d="M284.35 200.7 L289.05 200.6 Q291.45 201.45 292.6 203.65 L293.2 205.55 293.2 206.6 292.9 208.05 292.75 208.45 292.3 209.3 281.05 206.6 281.0 205.5 Q281.0 204.7 281.3 203.9 282.1 201.65 284.35 200.7" fill="#09657b" fill-opacity="0.9607843" fill-rule="evenodd" stroke="none"/>
    <path d="M245.65 211.3 L245.0 211.75 245.35 211.4 245.65 211.3 M277.7 222.55 Q276.65 222.55 275.9 222.0 275.15 221.45 275.2 220.65 275.15 219.85 275.9 219.25 276.65 218.7 277.7 218.75 278.75 218.7 279.45 219.25 280.2 219.85 280.25 220.65 280.2 221.45 279.45 222.0 278.75 222.55 277.7 222.55 M258.45 216.55 Q259.5 217.35 259.5 218.45 259.5 219.55 258.45 220.3 257.45 221.1 256.0 221.1 254.55 221.1 253.5 220.3 252.5 219.55 252.5 218.45 252.5 217.35 253.5 216.55 254.55 215.8 256.0 215.8 257.45 215.8 258.45 216.55" fill="#ffffff" fill-opacity="0.9607843" fill-rule="evenodd" stroke="none"/>
    <path d="M295.2 212.0 Q298.0 213.95 298.85 216.2 L298.9 216.4 298.95 216.65 298.95 216.7 298.85 217.75 Q296.6 217.7 294.9 216.85 292.8 215.85 292.8 214.45 292.8 213.0 294.9 212.0 L294.95 212.0 295.2 212.0" fill="#000000" fill-rule="evenodd" stroke="none"/>
    <path d="M294.35 206.65 L296.45 206.5 Q306.1 211.55 303.65 219.1 L304.4 218.6 Q299.4 224.7 293.7 228.5 285.3 230.3 277.7 230.45 L272.75 230.45 272.75 230.4 Q283.05 230.05 290.6 226.85 294.4 225.25 296.55 223.4 300.85 220.55 300.85 216.95 300.85 212.35 293.75 209.0 L293.95 208.5 294.35 206.65" fill="#032327" fill-opacity="0.9607843" fill-rule="evenodd" stroke="none"/>
    <path d="M304.4 218.6 Q304.1 220.95 307.2 219.7 314.3 217.35 319.9 213.1 L320.8 212.4 Q324.8 209.15 328.1 205.15 326.55 210.15 322.3 214.75 L322.2 214.85 Q316.65 221.1 310.15 223.55 301.55 226.75 293.7 228.5 299.4 224.7 304.4 218.6" fill="#075251" fill-opacity="0.9607843" fill-rule="evenodd" stroke="none"/>
    <path d="M290.6 209.6 L289.8 209.25 290.65 209.45 290.6 209.6 M279.2 206.7 L269.4 206.2 259.05 207.05 256.4 207.5 256.35 206.65 260.7 205.8 271.05 204.95 278.75 205.2 278.85 206.6 279.2 206.7" fill="#07586b" fill-opacity="0.9607843" fill-rule="evenodd" stroke="none"/>
    <path d="M225.9 188.7 Q226.0 187.65 226.45 186.7 228.9 181.05 240.3 176.75 L240.5 176.75 240.5 195.65 240.3 195.75 Q236.8 197.05 234.2 198.5 226.45 194.3 225.85 189.0 L225.9 188.7" fill="#241b11" fill-rule="evenodd" stroke="none"/>
    <path d="M240.5 176.7 Q248.95 173.5 259.45 172.25 L260.1 191.1 Q249.2 192.4 240.5 195.65 L240.5 176.75 240.5 176.7 M245.75 217.55 Q245.3 218.05 244.6 218.05 243.9 218.05 243.4 217.55 242.95 217.05 242.95 216.35 242.95 215.65 243.4 215.15 243.9 214.65 244.6 214.65 245.3 214.65 245.75 215.15 246.25 215.65 246.25 216.35 246.25 217.05 245.75 217.55" fill="#4e3a25" fill-rule="evenodd" stroke="none"/>
    <path d="M225.5 186.0 L225.85 187.15 225.8 187.25 225.8 187.45 225.8 188.65 225.85 189.0 Q226.45 194.3 234.2 198.5 L236.3 199.55 240.3 201.2 244.95 202.8 243.85 204.05 Q242.45 206.15 242.75 208.5 227.0 204.45 222.05 194.0 227.0 204.45 242.75 208.5 L242.85 209.0 Q243.2 210.6 244.25 211.8 L244.45 212.1 Q242.2 213.7 241.3 215.55 231.2 213.0 221.8 204.1 L221.6 203.4 221.2 201.4 222.05 194.0 222.45 190.6 Q223.35 188.15 224.8 185.7 L225.5 186.0 M246.3 225.45 L246.25 225.65 246.3 225.45" fill="#065059" fill-opacity="0.9607843" fill-rule="evenodd" stroke="none"/>
    <path d="M254.7 207.9 L254.7 207.95 246.8 210.65 245.95 210.95 Q245.2 210.1 244.95 208.95 L244.85 208.55 Q244.6 206.85 245.65 205.35 L246.45 204.45 Q247.35 203.6 248.75 203.3 250.75 202.85 252.45 203.9 253.85 204.75 254.4 206.25 L254.55 206.85 254.6 207.25 254.7 207.85 254.7 207.9" fill="#075365" fill-opacity="0.9607843" fill-rule="evenodd" stroke="none"/>
    <path d="M225.35 184.85 Q225.15 185.25 225.5 186.0 L224.8 185.7 225.35 184.85 M245.0 211.75 L244.45 212.1 244.25 211.8 245.35 211.4 245.0 211.75 M246.3 225.45 L247.35 226.0 246.25 225.65 246.3 225.45 M260.7 205.8 L256.35 206.65 256.25 206.1 256.0 205.3 257.2 205.45 260.7 205.8 M222.05 194.0 L221.2 201.4 Q220.4 196.1 222.45 190.6 L222.05 194.0" fill="#bb8044" fill-rule="evenodd" stroke="none"/>
    <path d="M241.3 215.55 L240.8 217.05 240.7 218.2 Q240.7 222.3 246.3 225.45 L246.25 225.65 240.3 223.55 Q237.9 222.65 235.75 221.3 231.75 218.85 228.25 214.85 L228.15 214.75 225.85 212.0 Q222.95 208.1 221.8 204.1 231.2 213.0 241.3 215.55" fill="#04373e" fill-opacity="0.9607843" fill-rule="evenodd" stroke="none"/>
    <path d="M271.85 230.45 L272.75 230.4 272.75 230.45 271.85 230.45" fill="url(#gradient0)" fill-rule="evenodd" stroke="none"/>
    <path d="M298.85 217.75 L299.2 217.85 299.2 218.2 Q299.2 221.0 296.55 223.4 294.4 225.25 290.6 226.85 283.05 230.05 272.75 230.4 L271.85 230.45 269.95 230.45 Q257.85 230.45 249.25 226.85 L247.35 226.0 246.3 225.45 Q240.7 222.3 240.7 218.2 L240.8 217.05 241.3 215.55 Q242.2 213.7 244.45 212.1 L245.0 211.75 245.65 211.3 246.8 210.65 254.7 207.95 254.7 207.9 256.4 207.65 256.4 207.5 259.05 207.05 269.4 206.2 279.2 206.7 289.8 209.25 290.6 209.6 Q293.35 210.7 295.2 212.0 L294.95 212.0 294.9 212.0 Q292.8 213.0 292.8 214.45 292.8 215.85 294.9 216.85 296.6 217.7 298.85 217.75 M280.95 215.7 L279.6 215.55 Q278.15 215.55 276.95 216.15 276.3 216.45 275.75 216.95 274.15 218.4 274.15 220.45 L274.35 221.8 Q274.7 223.0 275.75 223.9 277.35 225.35 279.6 225.35 281.85 225.35 283.45 223.9 L284.7 222.3 Q285.05 221.45 285.05 220.45 285.05 218.4 283.45 216.95 282.35 216.0 280.95 215.7 M260.9 210.0 Q259.2 209.3 257.25 209.3 253.45 209.3 250.75 211.8 248.05 214.35 248.05 217.95 248.05 221.55 250.75 224.05 253.45 226.6 257.25 226.6 261.05 226.6 263.75 224.05 L264.1 223.7 Q266.45 221.3 266.45 217.95 266.45 214.35 263.75 211.8 262.45 210.6 260.9 210.0 M245.75 217.55 Q246.25 217.05 246.25 216.35 246.25 215.65 245.75 215.15 245.3 214.65 244.6 214.65 243.9 214.65 243.4 215.15 242.95 215.65 242.95 216.35 242.95 217.05 243.4 217.55 243.9 218.05 244.6 218.05 245.3 218.05 245.75 217.55" fill="#ffffff" fill-rule="evenodd" stroke="none"/>
    <path d="M326.75 190.05 L326.75 190.0 Q325.6 187.45 325.3 184.85 321.6 179.3 310.65 175.1 L310.15 174.9 303.8 172.85 299.9 171.9 Q293.8 170.55 286.9 169.95 L272.75 169.5 259.35 170.4 Q248.9 171.7 240.5 174.85 L240.3 174.9 Q227.55 179.7 225.35 184.85 L224.8 185.7 Q223.35 188.15 222.45 190.6 220.4 196.1 221.2 201.4 L221.6 203.4 M225.8 187.45 L225.8 188.65 225.85 189.0 Q226.45 194.3 234.2 198.5 236.8 197.05 240.3 195.75 L240.5 195.65 Q249.2 192.4 260.1 191.1 L272.75 190.3 277.7 190.3 284.35 190.6 294.55 191.75 299.9 192.75 Q305.35 193.95 310.15 195.75 L310.65 195.95 Q313.8 197.15 316.25 198.5 313.6 199.9 310.15 201.2 302.95 203.9 294.35 205.3 M324.65 187.45 L324.65 188.65 Q324.25 194.15 316.25 198.5 M328.1 205.15 Q329.45 200.5 328.45 195.55 327.9 192.8 326.75 190.05 M293.7 228.5 Q285.3 230.3 277.7 230.45 L272.75 230.45 271.85 230.45 M293.7 228.5 Q301.55 226.75 310.15 223.55 316.65 221.1 322.2 214.85 L322.3 214.75 Q326.55 210.15 328.1 205.15 M244.95 202.8 L240.3 201.2 236.3 199.55 234.2 198.5 M256.0 205.3 L257.2 205.45 260.7 205.8 M246.25 225.65 L240.3 223.55 Q237.9 222.65 235.75 221.3 231.75 218.85 228.25 214.85 L228.15 214.75 225.85 212.0 Q222.95 208.1 221.8 204.1 M246.25 225.65 L247.35 226.0" fill="none" stroke="#000000" stroke-linecap="round" stroke-linejoin="round" stroke-opacity="0.3529412" stroke-width="0.05"/>
    <path d="M278.75 205.2 Q278.8 204.2 279.2 203.2 280.2 200.35 283.1 199.1 285.95 197.85 289.05 199.0 292.1 200.1 293.55 202.85 294.15 204.05 294.35 205.3 M298.85 217.75 L299.2 217.85 299.2 218.2 Q299.2 221.0 296.55 223.4 294.4 225.25 290.6 226.85 283.05 230.05 272.75 230.4 L271.85 230.45 269.95 230.45 Q257.85 230.45 249.25 226.85 L247.35 226.0 246.3 225.45 Q240.7 222.3 240.7 218.2 L240.8 217.05 241.3 215.55 Q242.2 213.7 244.45 212.1 L245.0 211.75 245.35 211.4 M293.75 209.0 L293.2 210.05 M298.85 217.75 Q296.6 217.7 294.9 216.85 292.8 215.85 292.8 214.45 292.8 213.0 294.9 212.0 L294.95 212.0 295.2 212.0 Q293.35 210.7 290.6 209.6 L289.8 209.25 M279.2 206.7 L269.4 206.2 259.05 207.05 256.4 207.5 256.4 207.65 M245.65 211.3 L245.0 211.75 M280.95 215.7 Q282.35 216.0 283.45 216.95 285.05 218.4 285.05 220.45 285.05 221.45 284.7 222.3 L283.45 223.9 Q281.85 225.35 279.6 225.35 277.35 225.35 275.75 223.9 274.7 223.0 274.35 221.8 L274.15 220.45 Q274.15 218.4 275.75 216.95 276.3 216.45 276.95 216.15 278.15 215.55 279.6 215.55 L280.95 215.7 M279.2 206.7 L278.85 206.6 278.75 205.2 271.05 204.95 260.7 205.8 256.35 206.65 256.4 207.5 M277.7 222.55 Q276.65 222.55 275.9 222.0 275.15 221.45 275.2 220.65 275.15 219.85 275.9 219.25 276.65 218.7 277.7 218.75 278.75 218.7 279.45 219.25 280.2 219.85 280.25 220.65 280.2 221.45 279.45 222.0 278.75 222.55 277.7 222.55 M244.95 202.8 Q246.25 201.55 248.15 201.15 250.95 200.55 253.3 202.0 255.25 203.2 256.0 205.3 L256.25 206.1 256.35 206.65 M260.9 210.0 Q262.45 210.6 263.75 211.8 266.45 214.35 266.45 217.95 266.45 221.3 264.1 223.7 L263.75 224.05 Q261.05 226.6 257.25 226.6 253.45 226.6 250.75 224.05 248.05 221.55 248.05 217.95 248.05 214.35 250.75 211.8 253.45 209.3 257.25 209.3 259.2 209.3 260.9 210.0 M258.45 216.55 Q259.5 217.35 259.5 218.45 259.5 219.55 258.45 220.3 257.45 221.1 256.0 221.1 254.55 221.1 253.5 220.3 252.5 219.55 252.5 218.45 252.5 217.35 253.5 216.55 254.55 215.8 256.0 215.8 257.45 215.8 258.45 216.55 M245.75 217.55 Q245.3 218.05 244.6 218.05 243.9 218.05 243.4 217.55 242.95 217.05 242.95 216.35 242.95 215.65 243.4 215.15 243.9 214.65 244.6 214.65 245.3 214.65 245.75 215.15 246.25 215.65 246.25 216.35 246.25 217.05 245.75 217.55" fill="none" stroke="#88592d" stroke-linecap="round" stroke-linejoin="round" stroke-width="0.05"/>
    <path d="M294.35 205.3 L294.35 206.65 293.95 208.5 293.75 209.0 Q300.85 212.35 300.85 216.95 300.85 220.55 296.55 223.4 M295.2 212.0 Q298.0 213.95 298.85 216.2 L298.9 216.4 298.95 216.65 298.95 216.7 298.85 217.75 M242.75 208.5 Q242.45 206.15 243.85 204.05 L244.95 202.8 M242.75 208.5 L242.85 209.0 Q243.2 210.6 244.25 211.8" fill="none" stroke="#4a6064" stroke-linecap="round" stroke-linejoin="round" stroke-width="0.05"/>
    <path d="M307.2 219.7 Q314.3 217.35 319.9 213.1 M320.8 212.4 Q324.8 209.15 328.1 205.15 M328.45 195.55 Q320.15 205.1 304.35 208.9 M222.05 194.0 L221.2 201.4 M221.6 203.4 L221.8 204.1 Q231.2 213.0 241.3 215.55 M222.45 190.6 L222.05 194.0 Q227.0 204.45 242.75 208.5" fill="none" stroke="#ffffff" stroke-linecap="round" stroke-linejoin="round" stroke-opacity="0.3529412" stroke-width="0.05"/>
  </g>
  <defs>
    <linearGradient gradientTransform="matrix(0.0629, 0.0, 0.0, 0.0278, 277.35, 207.65)" gradientUnits="userSpaceOnUse" id="gradient0" spreadMethod="pad" x1="-819.2" x2="819.2">
      <stop offset="0.6352941176470588" stop-color="#674718"/>
      <stop offset="1.0" stop-color="#9c6938"/>
    </linearGradient>
  </defs>
</svg>
