<?xml version="1.0" encoding="UTF-8" standalone="no"?>
<svg xmlns:xlink="http://www.w3.org/1999/xlink" height="150.1px" width="170.7px" xmlns="http://www.w3.org/2000/svg">
  <g transform="matrix(1.0, 0.0, 0.0, 1.0, -197.55, -139.3)">
    <path d="M280.5 156.75 Q280.5 155.6 279.65 154.75 278.85 153.95 277.75 154.0 276.6 153.95 275.75 154.75 274.95 155.6 275.0 156.75 274.95 157.85 275.75 158.65 276.6 159.5 277.75 159.5 278.85 159.5 279.65 158.65 280.5 157.85 280.5 156.75 M308.7 176.95 Q308.3 175.85 307.45 175.0 306.0 173.55 303.9 173.55 301.8 173.55 300.3 175.0 299.35 176.0 299.05 177.25 L293.75 178.05 Q291.25 178.6 290.0 179.35 L289.9 179.4 Q288.6 180.05 288.55 180.9 283.2 176.85 277.15 174.6 L277.0 174.55 271.4 172.85 Q266.0 171.65 260.15 171.65 252.8 171.65 246.25 173.55 L241.95 175.05 241.8 175.1 240.1 175.85 Q236.45 177.5 233.1 179.85 L228.15 179.65 Q221.4 179.65 216.7 180.85 213.55 181.7 212.5 182.8 215.8 177.3 220.4 172.35 L221.3 171.4 221.8 170.9 222.6 170.05 Q231.2 161.45 241.45 156.8 253.85 151.05 268.65 151.1 295.65 151.1 314.75 170.15 319.0 174.45 322.35 179.15 321.05 178.55 318.95 178.05 L308.7 176.95 M284.05 169.35 Q285.1 168.35 285.1 166.9 285.1 165.45 284.05 164.4 283.05 163.4 281.6 163.4 280.15 163.4 279.1 164.4 278.1 165.45 278.1 166.9 278.1 168.35 279.1 169.35 280.15 170.4 281.6 170.4 283.05 170.4 284.05 169.35 M297.8 204.0 Q300.2 209.4 300.8 215.75 L300.7 216.15 Q298.0 224.5 292.05 230.6 282.25 240.75 268.35 240.8 257.7 240.75 252.2 237.2 L250.35 235.7 Q252.8 234.6 255.65 233.8 252.8 234.6 250.35 235.7 L245.55 231.25 Q236.65 221.35 236.65 207.35 236.65 194.25 244.4 184.75 L244.4 184.7 244.65 184.45 242.5 181.9 239.55 180.85 237.45 180.4 Q245.4 175.9 254.8 176.6 L255.25 176.6 257.55 176.9 Q261.65 177.5 265.6 178.65 256.5 178.6 249.4 186.05 241.05 194.85 241.05 207.3 241.05 219.7 249.4 228.5 251.15 230.3 255.65 233.8 260.25 237.3 269.65 237.35 281.45 237.3 289.85 228.5 298.2 219.7 298.05 207.65 L297.8 204.0 M254.8 176.6 L254.2 176.85 Q249.55 178.9 245.55 183.4 L244.65 184.45 245.55 183.4 Q249.55 178.9 254.2 176.85 L254.8 176.6" fill="#a8e3e8" fill-rule="evenodd" stroke="none"/>
    <path d="M280.5 156.75 Q280.5 157.85 279.65 158.65 278.85 159.5 277.75 159.5 276.6 159.5 275.75 158.65 274.95 157.85 275.0 156.75 274.95 155.6 275.75 154.75 276.6 153.95 277.75 154.0 278.85 153.95 279.65 154.75 280.5 155.6 280.5 156.75 M322.35 179.15 Q319.0 174.45 314.75 170.15 295.65 151.1 268.65 151.1 253.85 151.05 241.45 156.8 231.2 161.45 222.6 170.05 L221.8 170.9 221.3 171.4 220.4 172.35 Q207.95 179.0 200.15 195.9 204.85 176.6 219.8 161.6 229.7 151.7 241.5 146.35 255.65 139.8 272.55 139.8 303.45 139.8 325.25 161.6 333.65 170.05 338.85 179.8 L331.2 197.2 Q328.7 188.9 324.0 181.55 L324.15 180.95 Q324.15 179.95 322.35 179.15 M284.05 169.35 Q283.05 170.4 281.6 170.4 280.15 170.4 279.1 169.35 278.1 168.35 278.1 166.9 278.1 165.45 279.1 164.4 280.15 163.4 281.6 163.4 283.05 163.4 284.05 164.4 285.1 165.45 285.1 166.9 285.1 168.35 284.05 169.35 M333.5 223.35 Q339.9 214.7 341.6 185.6 347.1 198.8 347.1 214.35 347.1 236.3 336.05 253.7 L331.3 253.05 325.8 248.05 327.1 245.55 Q330.65 238.6 332.3 230.85 333.1 227.2 333.5 223.35" fill="#eefafb" fill-rule="evenodd" stroke="none"/>
    <path d="M299.05 177.25 Q299.35 176.0 300.3 175.0 301.8 173.55 303.9 173.55 306.0 173.55 307.45 175.0 308.3 175.85 308.7 176.95 L308.95 178.6 Q308.95 180.7 307.65 180.85 306.3 180.95 304.15 181.55 L300.45 181.45 Q298.85 180.7 298.85 178.6 L299.05 177.25 M332.7 203.75 Q332.7 206.9 330.45 209.1 328.25 211.35 325.1 211.35 321.95 211.35 319.7 209.1 317.5 206.9 317.5 203.75 317.5 200.6 319.7 198.35 321.95 196.15 325.1 196.15 328.25 196.15 330.45 198.35 L330.6 198.5 Q331.55 199.5 332.1 200.75 L332.7 203.6 332.7 203.75 M305.5 236.05 Q308.4 236.85 310.7 239.15 314.25 242.7 314.25 247.7 314.25 252.7 310.7 256.25 307.15 259.8 302.15 259.8 297.15 259.8 293.6 256.25 L292.6 255.15 294.1 253.7 Q302.05 245.8 305.5 236.05 M227.8 267.2 L222.5 262.35 Q216.45 256.35 212.35 249.5 214.8 248.35 217.8 248.35 220.75 248.35 223.25 249.5 L229.65 256.4 Q230.25 258.15 230.25 260.15 230.25 264.15 227.8 267.2 M217.8 205.5 L217.3 205.05 Q215.8 203.55 215.8 201.4 L215.8 201.35 215.8 201.05 Q215.95 199.1 217.3 197.7 L217.4 197.65 Q218.9 196.2 221.0 196.2 L221.8 196.25 Q219.25 200.65 217.8 205.5" fill="#e1c9a8" fill-rule="evenodd" stroke="none"/>
    <path d="M308.7 176.95 L318.95 178.05 Q321.05 178.55 322.35 179.15 L324.0 181.55 Q323.2 182.85 318.95 183.8 313.75 185.0 306.35 185.0 L292.5 184.2 292.2 183.9 290.5 182.45 288.6 180.9 288.55 180.9 Q288.6 180.05 289.9 179.4 L290.0 179.35 Q291.25 178.6 293.75 178.05 L299.05 177.25 298.85 178.6 Q298.85 180.7 300.45 181.45 L304.15 181.55 Q306.3 180.95 307.65 180.85 308.95 180.7 308.95 178.6 L308.7 176.95 M212.5 182.8 Q213.55 181.7 216.7 180.85 221.4 179.65 228.15 179.65 L233.1 179.85 237.45 180.4 Q232.65 183.05 228.35 187.6 L228.0 188.0 228.35 187.6 Q232.65 183.05 237.45 180.4 L239.55 180.85 242.5 181.9 244.65 184.45 244.4 184.7 244.4 184.75 Q243.35 185.9 239.55 186.9 L237.6 187.35 228.15 188.15 228.0 188.0 227.85 188.15 223.95 188.0 223.6 188.0 217.1 187.1 216.65 187.0 211.95 183.7 212.0 183.6 212.5 182.8 M223.95 188.0 L226.1 185.7 Q229.45 182.35 233.1 179.85 229.45 182.35 226.1 185.7 L223.95 188.0" fill="#e0b196" fill-rule="evenodd" stroke="none"/>
    <path d="M220.4 172.35 Q215.8 177.3 212.5 182.8 L212.0 183.6 211.95 183.7 Q203.4 198.2 203.45 216.3 203.4 234.75 212.35 249.5 216.45 256.35 222.5 262.35 L227.8 267.2 Q232.55 271.05 237.7 273.9 L244.5 277.1 Q255.65 281.45 268.65 281.5 295.65 281.45 314.75 262.35 321.45 255.65 325.8 248.05 L331.3 253.05 327.7 252.6 327.45 252.5 317.3 274.05 Q298.0 288.9 272.55 288.9 257.75 288.85 245.0 283.85 L244.6 283.7 241.5 282.35 Q231.95 277.95 223.65 270.65 L219.8 267.05 Q213.0 260.2 208.3 252.5 198.0 235.6 198.05 214.35 198.0 204.65 200.15 195.9 207.95 179.0 220.4 172.35 M244.6 283.7 Q240.25 278.7 237.7 273.9 240.25 278.7 244.6 283.7" fill="#4dabb0" fill-rule="evenodd" stroke="none"/>
    <path d="M233.1 179.85 Q236.45 177.5 240.1 175.85 L241.8 175.1 241.95 175.05 243.8 174.55 246.25 173.55 Q252.8 171.65 260.15 171.65 266.0 171.65 271.4 172.85 272.9 173.8 277.0 174.55 L277.15 174.6 Q283.2 176.85 288.55 180.9 L288.55 180.95 288.6 180.9 290.5 182.45 287.25 185.25 Q293.2 189.8 297.4 197.5 300.5 203.25 300.9 206.65 301.4 210.85 301.1 215.3 L300.8 215.75 Q300.2 209.4 297.8 204.0 296.1 200.1 293.5 196.7 290.95 193.4 287.55 190.55 277.55 182.1 265.6 178.65 261.65 177.5 257.55 176.9 L255.25 176.6 254.8 176.6 Q245.4 175.9 237.45 180.4 L233.1 179.85 M289.25 182.1 Q288.55 181.55 288.55 180.95 288.55 181.55 289.25 182.1" fill="#d0f0f2" fill-rule="evenodd" stroke="none"/>
    <path d="M287.25 185.25 L290.5 182.45 292.2 183.9 292.5 184.2 294.1 185.7 Q308.2 199.8 308.2 219.75 308.2 228.45 305.5 236.05 L302.15 235.6 Q300.05 235.6 298.25 236.25 L299.35 232.95 Q301.1 226.75 301.05 219.85 L300.85 216.2 301.1 215.3 Q301.4 210.85 300.9 206.65 300.5 203.25 297.4 197.5 293.2 189.8 287.25 185.25 M234.55 256.55 Q245.05 264.2 258.55 264.2 276.25 264.2 288.75 251.05 L290.2 249.5 Q290.6 252.65 292.6 255.15 279.0 267.8 260.15 267.8 250.55 267.8 242.35 264.55 L240.1 263.6 234.2 260.3 Q234.2 258.4 234.55 256.55" fill="#ece7a4" fill-rule="evenodd" stroke="none"/>
    <path d="M305.5 236.05 Q308.2 228.45 308.2 219.75 308.2 199.8 294.1 185.7 L292.5 184.2 306.35 185.0 Q313.75 185.0 318.95 183.8 323.2 182.85 324.0 181.55 328.7 188.9 331.2 197.2 L332.1 200.75 Q331.55 199.5 330.6 198.5 L330.45 198.35 Q328.25 196.15 325.1 196.15 321.95 196.15 319.7 198.35 317.5 200.6 317.5 203.75 317.5 206.9 319.7 209.1 321.95 211.35 325.1 211.35 328.25 211.35 330.45 209.1 332.7 206.9 332.7 203.75 L332.75 203.75 Q333.85 209.8 333.85 216.3 L333.5 223.35 Q333.1 227.2 332.3 230.85 330.65 238.6 327.1 245.55 L325.8 248.05 Q321.45 255.65 314.75 262.35 295.65 281.45 268.65 281.5 255.65 281.45 244.5 277.1 L237.7 273.9 Q234.1 266.95 234.2 260.3 234.1 266.95 237.7 273.9 232.55 271.05 227.8 267.2 230.25 264.15 230.25 260.15 230.25 258.15 229.65 256.4 L234.2 260.3 240.1 263.6 242.35 264.55 Q250.55 267.8 260.15 267.8 279.0 267.8 292.6 255.15 L293.6 256.25 Q297.15 259.8 302.15 259.8 307.15 259.8 310.7 256.25 314.25 252.7 314.25 247.7 314.25 242.7 310.7 239.15 308.4 236.85 305.5 236.05 M212.35 249.5 Q203.4 234.75 203.45 216.3 203.4 198.2 211.95 183.7 L216.65 187.0 217.1 187.1 223.6 188.0 223.95 188.0 227.85 188.15 Q224.3 191.95 221.8 196.25 L221.0 196.2 Q218.9 196.2 217.4 197.65 L217.3 197.7 Q215.95 199.1 215.8 201.05 L215.8 201.35 215.7 201.35 Q213.2 207.55 212.5 214.6 210.65 233.8 223.25 249.5 220.75 248.35 217.8 248.35 214.8 248.35 212.35 249.5" fill="#d0794f" fill-rule="evenodd" stroke="none"/>
    <path d="M331.2 197.2 L338.85 179.8 341.6 185.6 Q339.9 214.7 333.5 223.35 L333.85 216.3 Q333.85 209.8 332.75 203.75 L332.7 203.6 332.1 200.75 331.2 197.2 M317.3 274.05 L327.45 252.5 327.7 252.6 331.3 253.05 336.05 253.7 334.5 256.0 Q330.5 261.8 325.25 267.05 321.4 270.85 317.3 274.05" fill="#9bdddd" fill-rule="evenodd" stroke="none"/>
    <path d="M301.1 215.3 L300.85 216.2 300.7 216.15 300.8 215.75 301.1 215.3 M300.8 215.75 L300.85 216.2 300.8 215.75" fill="#c2611f" fill-rule="evenodd" stroke="none"/>
    <path d="M300.85 216.2 L301.05 219.85 Q301.1 226.75 299.35 232.95 L294.85 238.0 294.55 238.3 293.6 239.15 293.6 239.2 Q282.55 248.95 267.3 248.95 254.45 248.95 248.2 244.6 L242.7 240.5 Q245.85 237.7 250.35 235.7 245.85 237.7 242.7 240.5 L239.7 238.0 Q228.3 227.05 228.3 211.6 228.3 197.6 237.6 187.35 L239.55 186.9 Q243.35 185.9 244.4 184.75 236.65 194.25 236.65 207.35 236.65 221.35 245.55 231.25 L250.35 235.7 252.2 237.2 Q257.7 240.75 268.35 240.8 282.25 240.75 292.05 230.6 298.0 224.5 300.7 216.15 L300.85 216.2" fill="#854323" fill-rule="evenodd" stroke="none"/>
    <path d="M299.35 232.95 L298.25 236.25 Q296.25 236.9 294.55 238.3 L294.85 238.0 299.35 232.95 M242.7 240.5 L248.2 244.6 Q254.45 248.95 267.3 248.95 282.55 248.95 293.6 239.2 290.05 242.75 290.05 247.7 L290.2 249.5 288.75 251.05 Q276.25 264.2 258.55 264.2 245.05 264.2 234.55 256.55 235.9 248.6 239.7 243.7 241.0 242.0 242.7 240.5 241.0 242.0 239.7 243.7 235.9 248.6 234.55 256.55 231.3 254.15 228.35 251.05 215.85 237.9 215.9 219.35 215.85 212.0 217.8 205.5 219.2 206.6 221.0 206.6 223.15 206.6 224.65 205.05 226.2 203.55 226.2 201.4 226.2 199.25 224.65 197.7 223.45 196.5 221.8 196.25 224.3 191.95 227.85 188.15 L228.15 188.15 237.6 187.35 Q228.3 197.6 228.3 211.6 228.3 227.05 239.7 238.0 L242.7 240.5 M226.5 228.75 Q227.75 227.5 227.75 225.75 227.75 224.0 226.5 222.75 225.25 221.5 223.5 221.5 221.75 221.5 220.5 222.75 219.25 224.0 219.25 225.75 219.25 227.5 220.5 228.75 221.75 230.0 223.5 230.0 225.25 230.0 226.5 228.75" fill="#a45533" fill-rule="evenodd" stroke="none"/>
    <path d="M298.25 236.25 Q300.05 235.6 302.15 235.6 L305.5 236.05 Q302.05 245.8 294.1 253.7 L292.6 255.15 Q290.6 252.65 290.2 249.5 295.5 243.35 298.25 236.25" fill="#faf9e7" fill-rule="evenodd" stroke="none"/>
    <path d="M217.8 205.5 Q215.85 212.0 215.9 219.35 215.85 237.9 228.35 251.05 231.3 254.15 234.55 256.55 234.2 258.4 234.2 260.3 L229.65 256.4 223.25 249.5 Q210.65 233.8 212.5 214.6 213.2 207.55 215.7 201.35 L215.8 201.4 Q215.8 203.55 217.3 205.05 L217.8 205.5" fill="#d7b564" fill-rule="evenodd" stroke="none"/>
    <path d="M293.6 239.2 L293.6 239.15 294.55 238.3 Q296.25 236.9 298.25 236.25 295.5 243.35 290.2 249.5 L290.05 247.7 Q290.05 242.75 293.6 239.2 M221.8 196.25 Q223.45 196.5 224.65 197.7 226.2 199.25 226.2 201.4 226.2 203.55 224.65 205.05 223.15 206.6 221.0 206.6 219.2 206.6 217.8 205.5 219.25 200.65 221.8 196.25 M226.5 228.75 Q225.25 230.0 223.5 230.0 221.75 230.0 220.5 228.75 219.25 227.5 219.25 225.75 219.25 224.0 220.5 222.75 221.75 221.5 223.5 221.5 225.25 221.5 226.5 222.75 227.75 224.0 227.75 225.75 227.75 227.5 226.5 228.75" fill="#d39174" fill-rule="evenodd" stroke="none"/>
    <path d="M215.8 201.4 L215.7 201.35 215.8 201.35 215.8 201.4" fill="#c79858" fill-rule="evenodd" stroke="none"/>
    <path d="M299.05 177.25 Q299.35 176.0 300.3 175.0 301.8 173.55 303.9 173.55 306.0 173.55 307.45 175.0 308.3 175.85 308.7 176.95 L318.95 178.05 Q321.05 178.55 322.35 179.15 324.15 179.95 324.15 180.95 L324.0 181.55 322.35 179.15 M222.6 170.05 L221.8 170.9 M212.5 182.8 Q213.55 181.7 216.7 180.85 221.4 179.65 228.15 179.65 L233.1 179.85 Q229.45 182.35 226.1 185.7 L223.95 188.0 M288.55 180.9 Q288.6 180.05 289.9 179.4 L290.0 179.35 Q291.25 178.6 293.75 178.05 L299.05 177.25 M288.6 180.9 L288.55 180.9 288.55 180.95 Q288.55 181.55 289.25 182.1 M287.25 185.25 Q293.2 189.8 297.4 197.5 300.5 203.25 300.9 206.65 301.4 210.85 301.1 215.3 L300.85 216.2 301.05 219.85 Q301.1 226.75 299.35 232.95 L298.25 236.25 M292.5 184.2 L292.2 183.9 M290.5 182.45 L288.6 180.9 M265.6 178.65 Q277.55 182.1 287.55 190.55 290.95 193.4 293.5 196.7 296.1 200.1 297.8 204.0 300.2 209.4 300.8 215.75 L301.1 215.3 M338.85 179.8 Q333.65 170.05 325.25 161.6 303.45 139.8 272.55 139.8 255.65 139.8 241.5 146.35 229.7 151.7 219.8 161.6 204.85 176.6 200.15 195.9 198.0 204.65 198.05 214.35 198.0 235.6 208.3 252.5 213.0 260.2 219.8 267.05 L223.65 270.65 Q231.95 277.95 241.5 282.35 L244.6 283.7 245.0 283.85 Q257.75 288.85 272.55 288.9 298.0 288.9 317.3 274.05 321.4 270.85 325.25 267.05 330.5 261.8 334.5 256.0 L336.05 253.7 Q347.1 236.3 347.1 214.35 347.1 198.8 341.6 185.6 L338.85 179.8 M332.7 203.75 L332.7 203.6 332.75 203.75 M300.85 216.2 L300.8 215.75 300.7 216.15 M211.95 183.7 L212.0 183.6 212.5 182.8 M297.8 204.0 L298.05 207.65 Q298.2 219.7 289.85 228.5 281.45 237.3 269.65 237.35 260.25 237.3 255.65 233.8 251.15 230.3 249.4 228.5 241.05 219.7 241.05 207.3 241.05 194.85 249.4 186.05 256.5 178.6 265.6 178.65 261.65 177.5 257.55 176.9 L255.25 176.6 254.8 176.6 Q245.4 175.9 237.45 180.4 L233.1 179.85 M227.85 188.15 L228.0 188.0 228.35 187.6 Q232.65 183.05 237.45 180.4 L239.55 180.85 242.5 181.9 M228.15 188.15 L227.85 188.15 M244.65 184.45 L245.55 183.4 Q249.55 178.9 254.2 176.85 L254.8 176.6 M244.4 184.75 L244.4 184.7 244.65 184.45" fill="none" stroke="#4a530f" stroke-linecap="round" stroke-linejoin="round" stroke-width="1.0"/>
    <path d="M322.35 179.15 Q319.0 174.45 314.75 170.15 295.65 151.1 268.65 151.1 253.85 151.05 241.45 156.8 231.2 161.45 222.6 170.05 M221.8 170.9 L221.3 171.4 M220.4 172.35 Q215.8 177.3 212.5 182.8 M233.1 179.85 Q236.45 177.5 240.1 175.85 L241.8 175.1 241.95 175.05 243.8 174.55 246.25 173.55 Q252.8 171.65 260.15 171.65 266.0 171.65 271.4 172.85 272.9 173.8 277.0 174.55 L277.15 174.6 Q283.2 176.85 288.55 180.9" fill="none" stroke="#238087" stroke-linecap="round" stroke-linejoin="round" stroke-width="1.0"/>
    <path d="M237.7 273.9 Q240.25 278.7 244.6 283.7" fill="none" stroke="#a8e3e8" stroke-linecap="round" stroke-linejoin="round" stroke-width="1.0"/>
    <path d="M250.35 235.7 Q245.85 237.7 242.7 240.5 241.0 242.0 239.7 243.7 235.9 248.6 234.55 256.55" fill="none" stroke="#3f1f10" stroke-linecap="round" stroke-linejoin="round" stroke-width="1.0"/>
    <path d="M234.2 260.3 Q234.2 258.4 234.55 256.55" fill="none" stroke="#eefafb" stroke-linecap="round" stroke-linejoin="round" stroke-width="1.0"/>
    <path d="M255.65 233.8 Q252.8 234.6 250.35 235.7" fill="none" stroke="#289199" stroke-linecap="round" stroke-linejoin="round" stroke-width="1.0"/>
    <path d="M234.2 260.3 Q234.1 266.95 237.7 273.9 232.55 271.05 227.8 267.2 L222.5 262.35 Q216.45 256.35 212.35 249.5 203.4 234.75 203.45 216.3 203.4 198.2 211.95 183.7" fill="none" stroke="#a45533" stroke-linecap="round" stroke-linejoin="round" stroke-width="1.0"/>
    <path d="M330.0 187.3 Q330.15 183.95 333.1 180.0 L333.15 179.85 Q346.4 180.4 356.3 190.4 363.35 197.6 366.15 207.0 354.65 190.2 330.0 187.3 M325.85 251.3 Q326.3 246.45 332.45 241.5 338.8 241.2 343.35 235.45 L341.55 247.0 325.85 251.3" fill="#eefafb" fill-rule="evenodd" stroke="none"/>
    <path d="M343.35 235.45 L344.2 234.4 Q349.0 227.5 348.7 218.05 348.4 208.55 343.2 201.95 340.05 198.05 336.2 196.5 L335.65 196.15 Q329.7 192.4 330.0 187.3 354.65 190.2 366.15 207.0 L366.65 208.85 Q367.55 213.1 367.7 217.7 368.25 233.75 358.05 245.5 347.8 257.25 332.85 257.7 L327.8 257.6 Q325.55 254.45 325.85 251.3 L341.55 247.0 343.35 235.45" fill="#9bdddd" fill-rule="evenodd" stroke="none"/>
    <path d="M343.35 235.45 L344.2 234.4 Q349.0 227.5 348.7 218.05 348.4 208.55 343.2 201.95 340.05 198.05 336.2 196.5 L335.65 196.15 Q329.7 192.4 330.0 187.3 330.15 183.95 333.1 180.0 L333.15 179.85 Q346.4 180.4 356.3 190.4 363.35 197.6 366.15 207.0 M366.65 208.85 Q367.55 213.1 367.7 217.7 368.25 233.75 358.05 245.5 347.8 257.25 332.85 257.7 L327.8 257.6 Q325.55 254.45 325.85 251.3 326.3 246.45 332.45 241.5 338.8 241.2 343.35 235.45" fill="none" stroke="#4a530f" stroke-linecap="round" stroke-linejoin="round" stroke-width="1.0"/>
    <path d="M306.4 177.0 Q306.4 178.05 305.6 178.85 304.85 179.6 303.75 179.65 302.65 179.6 301.85 178.85 301.1 178.05 301.1 177.0 301.1 175.85 301.85 175.1 302.65 174.3 303.75 174.35 304.85 174.3 305.6 175.1 306.4 175.85 306.4 177.0" fill="#eefafb" fill-rule="evenodd" stroke="none"/>
    <path d="M328.9 200.7 Q328.9 202.05 327.9 203.0 326.95 203.95 325.65 204.0 324.25 203.95 323.3 203.0 322.35 202.05 322.35 200.7 322.35 199.35 323.3 198.35 324.25 197.4 325.65 197.45 326.95 197.4 327.9 198.35 328.9 199.35 328.9 200.7" fill="#eefafb" fill-rule="evenodd" stroke="none"/>
    <path d="M310.7 244.5 Q310.7 246.45 309.2 247.95 307.8 249.35 305.75 249.45 303.7 249.35 302.2 247.95 300.8 246.45 300.8 244.5 300.8 242.35 302.2 240.95 303.7 239.5 305.75 239.55 307.8 239.5 309.2 240.95 310.7 242.35 310.7 244.5" fill="#eefafb" fill-rule="evenodd" stroke="none"/>
  </g>
</svg>
