<?xml version="1.0" encoding="UTF-8" standalone="no"?>
<svg xmlns:xlink="http://www.w3.org/1999/xlink" height="69.2px" width="61.65px" xmlns="http://www.w3.org/2000/svg">
  <g transform="matrix(1.0, 0.0, 0.0, 1.0, -20.35, -12.8)">
    <path d="M81.25 42.35 Q82.0 45.3 82.0 48.45 L81.7 52.25 81.55 53.05 80.25 57.05 79.5 59.0 79.1 59.85 77.9 62.1 75.55 65.75 74.25 63.85 Q76.35 61.4 78.05 50.3 L78.4 47.55 78.2 44.7 Q77.35 38.45 73.2 29.5 L77.4 33.2 78.4 34.1 80.65 40.3 81.25 42.35" fill="#937860" fill-opacity="0.5019608" fill-rule="evenodd" stroke="none"/>
    <path d="M73.15 29.5 L70.4 27.35 69.7 26.8 68.5 25.95 68.0 25.6 67.55 25.45 66.65 25.15 65.95 24.95 64.55 24.6 61.8 24.0 55.95 23.45 Q54.8 23.3 45.6 27.75 38.65 31.05 33.25 38.9 L31.6 41.35 29.8 44.5 Q28.8 46.55 28.1 48.65 L27.35 50.95 27.25 51.4 27.0 52.35 Q26.5 54.6 26.3 56.9 L26.15 59.6 26.2 60.7 26.2 60.85 26.2 61.4 26.2 61.55 Q26.3 64.05 26.8 66.55 27.3 69.5 28.05 72.1 L28.45 73.3 28.65 73.8 29.45 75.8 Q30.85 79.05 32.9 81.6 L33.25 82.0 28.95 80.55 26.05 76.5 25.0 74.3 24.3 72.7 Q21.85 67.05 20.65 61.7 L20.55 60.5 Q19.6 50.85 23.6 42.1 L24.45 40.3 24.7 39.85 25.25 38.85 26.95 36.2 27.45 35.45 28.05 34.65 30.15 32.1 31.8 30.35 32.45 29.7 34.3 28.05 36.6 26.2 Q42.1 22.0 49.4 19.05 L50.5 18.6 53.55 18.8 57.1 19.3 61.3 20.35 62.1 20.6 62.2 20.65 62.55 20.75 64.35 21.65 Q70.8 25.1 77.4 33.2 L73.2 29.5 73.15 29.45 73.15 29.5" fill="#e7e0cd" fill-opacity="0.4627451" fill-rule="evenodd" stroke="none"/>
    <path d="M81.25 42.35 Q82.0 45.3 82.0 48.45 M81.7 52.25 L81.55 53.05 80.25 57.05 M79.1 59.85 L77.9 62.1 75.55 65.75 74.25 63.85 Q76.35 61.4 78.05 50.3 M78.2 44.7 Q77.35 38.45 73.2 29.5 L73.15 29.5 70.4 27.35 M69.7 26.8 L68.5 25.95 68.0 25.6 67.55 25.45 M66.65 25.15 L65.95 24.95 64.55 24.6 61.8 24.0 55.95 23.45 Q54.8 23.3 45.6 27.75 38.65 31.05 33.25 38.9 L31.6 41.35 29.8 44.5 Q28.8 46.55 28.1 48.65 L27.35 50.95 27.25 51.4 27.0 52.35 Q26.5 54.6 26.3 56.9 L26.15 59.6 M26.2 61.55 Q26.3 64.05 26.8 66.55 27.3 69.5 28.05 72.1 L28.45 73.3 M29.45 75.8 Q30.85 79.05 32.9 81.6 L33.25 82.0 28.95 80.55 26.05 76.5 25.0 74.3 24.3 72.7 Q21.85 67.05 20.65 61.7 L20.55 60.5 Q19.6 50.85 23.6 42.1 L24.45 40.3 24.7 39.85 M25.25 38.85 L26.95 36.2 M27.45 35.45 L28.05 34.65 30.15 32.1 31.8 30.35 M32.45 29.7 L34.3 28.05 36.6 26.2 Q42.1 22.0 49.4 19.05 L50.5 18.6 53.55 18.8 57.1 19.3 61.3 20.35 M62.1 20.6 L62.2 20.65 62.55 20.75 64.35 21.65 Q70.8 25.1 77.4 33.2 L78.4 34.1 80.65 40.3 M73.15 29.5 L73.15 29.45 73.2 29.5 77.4 33.2" fill="none" stroke="#000000" stroke-linecap="round" stroke-linejoin="round" stroke-opacity="0.2" stroke-width="0.05"/>
    <path d="M53.75 22.05 L53.75 22.0 53.75 22.05" fill="#e7e0cd" fill-rule="evenodd" stroke="none"/>
    <path d="M48.2 19.85 L47.7 21.1 48.4 22.65 47.7 21.1 48.2 19.85 48.45 19.25 50.95 18.45 51.35 18.75 53.1 20.25 53.3 20.75 53.1 20.25 51.35 18.75 54.4 12.8 56.8 14.0 57.95 20.8 59.6 21.8 59.35 22.8 58.15 24.25 54.55 22.65 55.9 21.15 53.75 22.05 53.75 22.0 53.75 22.05 53.2 24.3 50.7 24.9 49.25 24.4 48.8 23.35 48.4 22.65 44.3 22.05 48.8 23.35 45.1 25.55 47.7 24.95 43.85 28.9 42.95 28.15 42.4 22.6 38.35 18.9 39.35 17.05 48.2 19.85 M53.65 21.65 L53.75 22.0 53.65 21.65 55.35 19.2 53.3 20.75 53.65 21.65" fill="#e7e0cd" fill-opacity="0.4627451" fill-rule="evenodd" stroke="none"/>
    <path d="M38.35 18.9 L42.4 22.6 42.95 28.15 43.85 28.9 47.7 24.95 45.1 25.55 48.8 23.35 44.3 22.05 48.4 22.65 48.8 23.35 49.25 24.4 50.7 24.9 53.2 24.3 53.75 22.05 54.55 24.15 54.5 24.25 54.55 24.15 53.75 22.05 55.9 21.15 54.55 22.65 58.15 24.25 59.35 22.8 59.6 21.8 60.85 22.55 59.4 25.65 54.5 24.25 54.45 24.35 53.55 25.75 49.8 26.35 49.25 25.25 44.55 30.85 41.45 29.4 41.5 24.1 37.8 19.9 38.35 18.9 M53.65 21.65 L53.3 20.75 55.35 19.2 53.65 21.65 M49.25 24.4 L49.35 24.55 49.25 24.4 M49.55 24.95 L49.35 24.55 49.25 25.25 49.55 24.95" fill="#937860" fill-opacity="0.5019608" fill-rule="evenodd" stroke="none"/>
    <path d="M48.4 22.65 L47.7 21.1 48.2 19.85 39.35 17.05 38.35 18.9 37.8 19.9 41.5 24.1 41.45 29.4 44.55 30.85 49.25 25.25 49.55 24.95 49.35 24.55 49.25 25.25 49.8 26.35 53.55 25.75 54.45 24.35 54.5 24.25 59.4 25.65 60.85 22.55 59.6 21.8 57.95 20.8 56.8 14.0 54.4 12.8 51.35 18.75 50.95 18.45 48.45 19.25 48.2 19.85 M45.1 25.55 L48.8 23.35 49.25 24.4 49.35 24.55 M44.3 22.05 L48.4 22.65 48.8 23.35 M53.75 22.05 L53.75 22.0 53.65 21.65 53.3 20.75 53.1 20.25 51.35 18.75 M55.35 19.2 L53.3 20.75 M53.75 22.05 L54.55 24.15 54.5 24.25 M55.9 21.15 L53.75 22.05 53.75 22.0" fill="none" stroke="#000000" stroke-linecap="round" stroke-linejoin="round" stroke-opacity="0.13333334" stroke-width="0.05"/>
  </g>
</svg>
