<?xml version="1.0" encoding="UTF-8" standalone="no"?>
<svg xmlns:xlink="http://www.w3.org/1999/xlink" height="63.3px" width="66.45px" xmlns="http://www.w3.org/2000/svg">
  <g transform="matrix(1.0, 0.0, 0.0, 1.0, 0.0, 0.0)">
    <path d="M52.95 12.85 Q57.2 16.2 59.85 23.3 61.0 26.4 61.5 29.1 55.35 34.2 50.65 24.15 L51.3 23.3 51.7 22.7 52.35 21.55 52.6 20.95 Q53.75 17.7 52.95 12.85 M61.35 35.75 Q65.8 39.3 66.4 44.0 L65.75 44.6 65.9 43.4 Q65.8 42.55 65.0 40.9 64.2 39.25 63.6 38.85 L62.25 37.8 Q61.55 37.2 61.75 38.75 61.9 40.35 63.05 41.95 L64.75 44.6 65.15 45.15 Q58.0 51.2 55.85 44.2 58.9 42.0 58.7 40.4 60.6 38.45 61.35 35.75 M55.7 17.45 L54.6 16.1 Q53.9 15.5 54.1 17.05 54.25 18.65 55.4 20.25 56.55 21.8 57.3 23.25 58.05 24.7 59.1 25.35 60.1 26.0 59.1 23.5 58.05 20.95 57.05 19.6 L55.7 17.45" fill="#ffaf2b" fill-rule="evenodd" stroke="none"/>
    <path d="M21.5 0.1 Q24.8 -0.1 28.9 0.05 37.35 0.35 42.35 1.6 47.15 2.8 48.85 4.85 52.35 9.05 52.95 12.85 53.75 17.7 52.6 20.95 L52.35 21.55 51.7 22.7 51.3 23.3 50.65 24.15 49.1 26.25 Q51.3 23.1 52.05 18.2 50.05 4.05 33.1 1.35 L37.7 1.45 Q31.2 -0.1 21.5 0.1" fill="url(#gradient0)" fill-rule="evenodd" stroke="none"/>
    <path d="M38.6 45.0 Q38.5 46.9 34.5 47.05 L32.15 47.4 Q27.5 46.25 35.45 42.35 L37.05 41.75 Q38.65 43.75 38.6 45.0 M16.55 0.75 L17.25 0.6 21.5 0.1 Q31.2 -0.1 37.7 1.45 L33.1 1.35 Q50.05 4.05 52.05 18.2 51.3 23.1 49.1 26.25 L48.95 26.4 48.75 26.7 47.7 28.0 47.2 28.65 46.95 28.95 46.4 32.25 Q44.75 39.5 39.4 41.25 47.55 32.1 44.4 17.3 L30.1 7.1 27.8 4.85 Q26.7 4.5 30.35 1.25 22.75 1.55 17.85 6.3 L12.4 8.6 Q12.5 3.25 17.25 0.65 L16.55 0.75 M6.3 19.25 L6.25 19.25 6.3 19.2 6.3 19.25" fill="url(#gradient1)" fill-rule="evenodd" stroke="none"/>
    <path d="M53.2 61.25 L52.15 60.55 Q53.65 56.8 53.15 51.15 L52.65 49.6 Q51.5 46.7 48.8 44.85 L49.35 43.8 Q50.8 41.25 49.85 35.8 48.95 30.7 47.2 28.65 L47.7 28.0 Q50.05 30.3 50.95 35.75 L51.25 39.2 Q51.25 42.5 49.95 44.5 L52.0 46.55 Q53.55 48.6 54.05 51.4 L54.25 53.1 Q54.45 56.7 53.2 61.25" fill="#c45c11" fill-rule="evenodd" stroke="none"/>
    <path d="M61.5 29.1 L61.75 32.45 Q57.65 38.65 51.25 39.2 L50.95 35.75 Q50.05 30.3 47.7 28.0 L48.75 26.7 48.95 26.4 49.1 26.25 50.65 24.15 Q55.35 34.2 61.5 29.1 M66.4 44.0 L66.4 46.85 Q60.3 53.4 54.25 53.1 L54.05 51.4 Q53.55 48.6 52.0 46.55 L55.85 44.2 Q58.0 51.2 65.15 45.15 65.4 45.4 65.65 44.95 L65.75 44.6 66.4 44.0" fill="#f5931b" fill-rule="evenodd" stroke="none"/>
    <path d="M52.65 49.6 Q51.45 48.65 46.5 46.65 41.5 44.7 38.6 45.0 38.65 43.75 37.05 41.75 L39.4 41.25 Q44.75 39.5 46.4 32.25 L46.95 28.95 47.2 28.65 Q48.95 30.7 49.85 35.8 50.8 41.25 49.35 43.8 L48.8 44.85 Q51.5 46.7 52.65 49.6 M17.65 32.95 L23.15 32.15 35.1 28.5 35.25 29.45 34.35 29.85 28.8 32.0 25.3 33.0 24.8 33.1 23.95 33.3 21.35 33.75 19.15 34.05 18.05 34.1 18.0 34.05 17.65 32.95 M13.4 32.65 L13.2 33.75 Q4.9 33.35 2.75 30.6 L3.0 29.45 Q4.9 31.35 8.8 32.15 L13.4 32.65" fill="#6d270a" fill-rule="evenodd" stroke="none"/>
    <path d="M55.85 44.2 L52.0 46.55 49.95 44.5 Q55.7 43.35 58.7 40.4 58.9 42.0 55.85 44.2" fill="#ec7a0b" fill-rule="evenodd" stroke="none"/>
    <path d="M61.75 32.45 L61.45 35.25 61.35 35.75 Q60.6 38.45 58.7 40.4 55.7 43.35 49.95 44.5 51.25 42.5 51.25 39.2 57.65 38.65 61.75 32.45 M66.4 46.85 L65.95 49.0 Q62.85 59.7 53.2 61.25 54.45 56.7 54.25 53.1 60.3 53.4 66.4 46.85" fill="#dc730a" fill-rule="evenodd" stroke="none"/>
    <path d="M3.6 40.7 L6.1 40.65 5.3 39.75 11.2 41.05 10.5 40.2 Q11.7 39.95 12.45 38.6 L13.6 35.45 Q14.8 34.95 14.0 33.75 L14.15 32.65 Q15.6 31.9 14.2 30.95 L14.35 27.6 Q14.35 25.4 13.85 24.6 L14.45 24.3 13.85 24.6 Q8.7 21.75 7.5 19.65 L7.45 19.6 Q6.85 19.2 6.3 19.25 5.1 20.2 4.5 21.3 L3.6 22.9 2.75 24.75 Q2.4 25.8 2.35 26.9 1.95 26.75 1.7 27.45 L1.65 27.8 0.55 25.5 Q2.45 21.95 3.65 16.5 3.95 15.2 3.25 14.3 4.5 8.45 6.85 6.35 L9.85 3.6 Q12.1 1.65 16.55 0.75 L17.25 0.65 Q12.5 3.25 12.4 8.6 L17.85 6.3 Q22.75 1.55 30.35 1.25 26.7 4.5 27.8 4.85 L30.1 7.1 44.4 17.3 Q47.55 32.1 39.4 41.25 L37.05 41.75 35.45 42.35 Q33.5 43.15 28.75 43.75 L23.85 43.8 Q13.05 43.6 3.6 40.7 M35.7 33.65 L36.1 31.6 Q37.4 30.0 35.7 29.2 L35.6 28.3 36.3 27.75 Q37.05 26.75 35.6 25.65 33.7 19.75 31.75 16.5 L31.7 16.4 Q30.05 15.75 28.4 15.8 25.2 15.9 22.0 18.4 17.0 22.25 14.8 22.3 L14.6 22.0 14.8 22.3 14.75 22.5 14.6 23.75 14.6 23.85 14.5 23.85 14.4 25.3 Q14.35 27.4 14.6 28.65 15.05 30.3 15.4 30.5 L15.1 31.85 Q15.05 32.95 16.2 33.0 L16.25 33.05 16.7 34.15 Q16.2 34.95 16.5 35.6 16.8 36.3 18.25 36.75 19.3 39.5 23.6 41.9 L23.75 42.0 23.9 42.1 26.05 42.45 26.35 42.45 28.9 42.05 Q31.25 41.2 33.0 38.95 L33.55 38.25 34.85 36.0 35.7 33.65 M14.45 24.3 L14.5 23.85 14.45 24.3 Q14.05 24.0 13.55 22.4 L13.5 21.8 13.45 21.65 9.2 19.55 5.9 14.9 4.5 15.55 5.25 19.3 6.05 18.75 7.7 18.75 8.5 20.4 Q11.15 22.2 13.55 22.4 14.05 24.0 14.45 24.3 M14.65 11.9 L15.45 9.15 14.65 11.9 14.5 12.4 Q13.4 16.8 13.45 20.65 L14.6 22.0 Q15.15 21.75 15.75 21.45 L22.05 17.15 14.65 20.8 Q13.9 16.7 14.65 11.9 M6.3 19.25 L6.3 19.2 6.25 19.25 6.3 19.25 M14.5 23.85 L14.6 23.85 14.55 24.4 14.5 23.85 M17.55 41.6 L20.85 42.0 16.65 37.9 17.55 41.6" fill="url(#gradient2)" fill-rule="evenodd" stroke="none"/>
    <path d="M14.8 22.3 Q17.0 22.25 22.0 18.4 25.2 15.9 28.4 15.8 30.05 15.75 31.7 16.4 L31.75 16.5 Q33.7 19.75 35.6 25.65 37.05 26.75 36.3 27.75 L35.6 28.3 35.7 29.2 Q37.4 30.0 36.1 31.6 L35.7 33.65 Q33.15 39.0 27.1 40.55 L28.9 40.55 Q31.15 40.05 33.55 38.25 L33.0 38.95 Q31.25 41.2 28.9 42.05 L26.35 42.45 26.05 42.45 Q21.7 40.55 19.85 36.9 L24.0 36.8 Q19.6 36.4 17.4 35.25 15.9 34.4 17.3 34.15 L16.7 34.15 16.25 33.05 16.3 33.0 16.85 33.0 Q15.4 32.5 16.5 31.7 20.4 28.8 25.35 27.5 L29.8 26.5 25.35 27.5 Q20.7 28.65 16.25 30.25 14.9 26.8 16.25 23.0 L14.6 23.85 14.6 23.75 14.75 22.5 14.8 22.3 M23.9 42.1 L23.75 42.0 23.6 41.9 23.9 42.1 M13.85 24.6 Q14.35 25.4 14.35 27.6 L14.2 30.95 Q15.6 31.9 14.15 32.65 L14.0 33.75 Q14.8 34.95 13.6 35.45 L12.45 38.6 Q11.7 39.95 10.5 40.2 L8.65 40.05 Q4.05 36.8 3.7 33.5 6.45 35.5 11.0 35.7 L12.55 35.65 11.0 35.7 Q12.4 35.4 10.65 35.1 8.85 34.75 5.8 33.6 2.75 32.4 1.85 30.65 1.8 30.0 2.15 29.55 L2.2 29.55 2.15 29.45 2.15 28.7 3.0 29.45 2.75 30.6 Q4.9 33.35 13.2 33.75 L13.4 32.65 14.15 32.65 13.4 32.65 8.8 32.15 Q10.8 31.75 9.1 30.8 L4.85 28.2 3.35 27.45 2.95 27.25 2.35 26.9 Q2.4 25.8 2.75 24.75 4.0 24.3 5.4 24.75 L7.45 19.6 7.5 19.65 Q8.7 21.75 13.85 24.6 M34.6 25.65 Q33.35 20.7 30.55 17.3 28.35 17.95 27.4 19.05 29.55 22.6 29.8 26.5 31.6 26.8 32.15 27.45 34.6 27.7 35.85 26.55 35.45 26.05 34.6 25.65 M17.65 32.95 L16.85 33.0 17.65 32.95 18.0 34.05 18.05 34.1 19.15 34.05 21.35 33.75 23.95 33.3 24.8 33.1 25.3 33.0 28.8 32.0 Q31.75 31.85 32.4 32.7 33.75 32.95 35.75 31.15 36.35 30.0 34.35 29.85 L35.25 29.45 35.1 28.5 23.15 32.15 17.65 32.95 M35.6 28.3 L35.1 28.5 35.6 28.3 M14.0 33.75 L13.2 33.75 14.0 33.75 M36.1 31.6 Q34.2 33.35 32.1 34.5 28.7 36.3 24.55 36.75 L24.0 36.8 24.55 36.75 Q28.7 36.3 32.1 34.5 34.2 33.35 36.1 31.6 M17.3 34.15 L18.05 34.1 17.3 34.15 M13.5 30.85 Q8.45 29.7 4.85 28.2 8.45 29.7 13.5 30.85 M2.2 29.55 L2.75 30.6 2.2 29.55 M35.7 29.2 L35.25 29.45 35.7 29.2" fill="#aa7322" fill-rule="evenodd" stroke="none"/>
    <path d="M35.7 33.65 L34.85 36.0 33.55 38.25 Q31.15 40.05 28.9 40.55 L27.1 40.55 Q33.15 39.0 35.7 33.65 M26.05 42.45 L23.9 42.1 23.6 41.9 Q19.3 39.5 18.25 36.75 16.8 36.3 16.5 35.6 16.2 34.95 16.7 34.15 L17.3 34.15 Q15.9 34.4 17.4 35.25 19.6 36.4 24.0 36.8 L19.85 36.9 18.25 36.75 19.85 36.9 Q21.7 40.55 26.05 42.45 M16.2 33.0 Q15.05 32.95 15.1 31.85 L15.4 30.5 Q15.05 30.3 14.6 28.65 14.35 27.4 14.4 25.3 L14.5 23.85 14.55 24.4 14.6 23.85 16.25 23.0 Q14.9 26.8 16.25 30.25 20.7 28.65 25.35 27.5 20.4 28.8 16.5 31.7 15.4 32.5 16.85 33.0 L16.3 33.0 16.2 33.0 M29.8 26.5 Q29.55 22.6 27.4 19.05 28.35 17.95 30.55 17.3 33.35 20.7 34.6 25.65 L29.8 26.5 34.6 25.65 Q35.45 26.05 35.85 26.55 34.6 27.7 32.15 27.45 31.6 26.8 29.8 26.5 M2.75 24.75 L3.6 22.9 4.5 21.3 Q5.1 20.2 6.3 19.25 6.85 19.2 7.45 19.6 L5.4 24.75 Q4.0 24.3 2.75 24.75 M1.85 30.65 Q2.75 32.4 5.8 33.6 8.85 34.75 10.65 35.1 12.4 35.4 11.0 35.7 6.45 35.5 3.7 33.5 4.05 36.8 8.65 40.05 L7.95 39.8 Q4.9 38.45 3.5 35.85 2.7 34.35 2.6 32.55 1.9 31.45 1.85 30.65 M2.95 27.25 L3.35 27.45 4.85 28.2 9.1 30.8 Q10.8 31.75 8.8 32.15 4.9 31.35 3.0 29.45 L2.15 28.7 1.65 27.8 1.7 27.45 Q1.95 26.75 2.35 26.9 L2.95 27.25 M3.7 33.5 L2.6 32.55 3.7 33.5 M34.35 29.85 Q36.35 30.0 35.75 31.15 33.75 32.95 32.4 32.7 31.75 31.85 28.8 32.0 L34.35 29.85" fill="url(#gradient3)" fill-rule="evenodd" stroke="none"/>
    <path d="M4.5 45.3 L3.55 44.95 Q1.8 44.05 2.3 42.4 2.6 41.35 3.6 40.7 13.05 43.6 23.85 43.8 L8.65 42.75 Q2.1 44.15 8.7 46.75 L4.5 45.3 M5.3 39.75 Q4.15 38.2 2.3 34.35 -0.35 30.25 0.05 26.35 L0.55 25.5 1.65 27.8 2.15 28.7 2.15 29.45 2.15 29.55 Q1.8 30.0 1.85 30.65 1.9 31.45 2.6 32.55 2.7 34.35 3.5 35.85 4.9 38.45 7.95 39.8 L8.65 40.05 10.5 40.2 11.2 41.05 5.3 39.75 M14.65 11.9 Q13.9 16.7 14.65 20.8 L22.05 17.15 15.75 21.45 Q15.15 21.75 14.6 22.0 L13.45 20.65 Q13.4 16.8 14.5 12.4 L14.65 11.9 M8.5 20.4 L7.7 18.75 6.05 18.75 5.25 19.3 4.5 15.55 5.9 14.9 9.2 19.55 13.45 21.65 13.5 21.8 13.55 22.4 Q11.15 22.2 8.5 20.4 M17.55 41.6 L16.65 37.9 20.85 42.0 17.55 41.6" fill="url(#gradient4)" fill-rule="evenodd" stroke="none"/>
    <path d="M2.15 29.55 L2.15 29.45 2.2 29.55 2.15 29.55" fill="#ffe242" fill-rule="evenodd" stroke="none"/>
    <path d="M34.5 47.05 L35.05 49.05 33.85 49.65 32.65 50.25 Q34.85 55.7 29.6 60.2 28.85 60.15 28.2 59.6 32.1 56.95 31.3 50.45 L30.25 50.45 29.2 50.45 Q29.2 54.75 27.1 58.0 L26.5 56.3 26.5 56.25 Q27.4 53.95 27.65 50.4 L27.7 47.8 27.65 50.4 Q27.4 53.95 26.5 56.25 L25.25 50.85 Q25.8 57.0 22.7 60.25 L21.35 59.95 Q24.65 54.65 22.75 50.05 L20.85 50.05 19.0 50.05 18.4 52.1 Q18.2 55.0 18.75 56.9 17.8 60.3 16.3 61.9 L16.1 62.1 15.95 62.25 16.6 60.15 Q17.4 57.15 17.2 53.5 L17.1 52.1 15.8 52.05 Q16.15 61.3 11.1 62.9 9.6 61.9 9.25 61.05 14.35 57.2 12.7 50.3 L10.25 50.3 8.95 50.3 Q8.0 53.75 8.25 56.8 L8.3 57.1 Q7.85 62.1 4.45 60.25 9.5 59.3 5.2 48.05 L3.9 48.05 2.6 48.05 Q3.35 46.7 4.5 45.3 L8.7 46.75 10.1 47.1 19.6 48.0 27.7 47.8 32.15 47.4 34.5 47.05 M19.6 48.0 L19.0 50.05 19.6 48.0 M8.95 50.3 L10.1 47.1 8.95 50.3" fill="url(#gradient5)" fill-rule="evenodd" stroke="none"/>
    <path d="M28.2 59.6 Q27.55 59.05 27.1 58.0 29.2 54.75 29.2 50.45 L30.25 50.45 31.3 50.45 Q32.1 56.95 28.2 59.6 M21.35 59.95 Q19.45 59.2 18.75 56.9 18.2 55.0 18.4 52.1 L19.0 50.05 20.85 50.05 22.75 50.05 Q24.65 54.65 21.35 59.95 M9.25 61.05 Q8.5 59.15 8.3 57.1 L8.25 56.8 Q8.0 53.75 8.95 50.3 L10.25 50.3 12.7 50.3 Q14.35 57.2 9.25 61.05 M4.45 60.25 Q-1.2 54.75 2.6 48.05 L3.9 48.05 5.2 48.05 Q9.5 59.3 4.45 60.25 M3.45 56.55 Q1.8 52.6 3.9 48.05 1.8 52.6 3.45 56.55 M20.85 56.5 Q20.2 53.55 20.85 50.05 20.2 53.55 20.85 56.5 M30.25 56.15 L30.25 50.45 30.25 56.15 M10.25 57.65 Q9.35 54.15 10.25 50.3 9.35 54.15 10.25 57.65" fill="url(#gradient6)" fill-rule="evenodd" stroke="none"/>
    <path d="M32.15 47.4 L27.7 47.8 19.6 48.0 10.1 47.1 8.7 46.75 Q2.1 44.15 8.65 42.75 L23.85 43.8 28.75 43.75 Q33.5 43.15 35.45 42.35 27.5 46.25 32.15 47.4" fill="url(#gradient7)" fill-rule="evenodd" stroke="none"/>
    <path d="M35.05 49.05 Q36.6 56.0 32.2 59.25 30.75 60.25 29.6 60.2 34.85 55.7 32.65 50.25 L33.85 49.65 Q35.0 53.25 33.85 55.35 35.0 53.25 33.85 49.65 L35.05 49.05 M26.5 56.3 Q25.25 59.45 22.7 60.25 25.8 57.0 25.25 50.85 L26.5 56.25 26.5 56.3 M15.95 62.25 Q13.95 63.95 11.1 62.9 16.15 61.3 15.8 52.05 L17.1 52.1 17.2 53.5 Q17.4 57.15 16.6 60.15 L15.95 62.25 M17.2 53.5 Q17.05 58.15 14.9 61.25 17.05 58.15 17.2 53.5" fill="#faf2e2" fill-rule="evenodd" stroke="none"/>
    <path d="M55.7 17.45 L57.05 19.6 Q58.05 20.95 59.1 23.5 60.1 26.0 59.1 25.35 58.05 24.7 57.3 23.25 56.55 21.8 55.4 20.25 54.25 18.65 54.1 17.05 53.9 15.5 54.6 16.1 L55.7 17.45 M65.15 45.15 L64.75 44.6 63.05 41.95 Q61.9 40.35 61.75 38.75 61.55 37.2 62.25 37.8 L63.6 38.85 Q64.2 39.25 65.0 40.9 65.8 42.55 65.9 43.4 L65.75 44.6 65.65 44.95 Q65.4 45.4 65.15 45.15" fill="#ffd779" fill-rule="evenodd" stroke="none"/>
    <path d="M21.5 0.1 Q24.8 -0.1 28.9 0.05 37.35 0.35 42.35 1.6 47.15 2.8 48.85 4.85 52.35 9.05 52.95 12.85 57.2 16.2 59.85 23.3 61.0 26.4 61.5 29.1 L61.75 32.45 61.45 35.25 61.35 35.75 Q65.8 39.3 66.4 44.0 L66.4 46.85 65.95 49.0 Q62.85 59.7 53.2 61.25 L52.15 60.55 Q53.65 56.8 53.15 51.15 L52.65 49.6 Q51.45 48.65 46.5 46.65 41.5 44.7 38.6 45.0 38.5 46.9 34.5 47.05 L35.05 49.05 Q36.6 56.0 32.2 59.25 30.75 60.25 29.6 60.2 28.85 60.15 28.2 59.6 27.55 59.05 27.1 58.0 L26.5 56.3 Q25.25 59.45 22.7 60.25 L21.35 59.95 Q19.45 59.2 18.75 56.9 17.8 60.3 16.3 61.9 L16.1 62.1 15.95 62.25 Q13.95 63.95 11.1 62.9 9.6 61.9 9.25 61.05 8.5 59.15 8.3 57.1 7.85 62.1 4.45 60.25 -1.2 54.75 2.6 48.05 3.35 46.7 4.5 45.3 L3.55 44.95 Q1.8 44.05 2.3 42.4 2.6 41.35 3.6 40.7 L6.1 40.65 5.3 39.75 Q4.15 38.2 2.3 34.35 -0.35 30.25 0.05 26.35 L0.55 25.5 Q2.45 21.95 3.65 16.5 3.95 15.2 3.25 14.3 4.5 8.45 6.85 6.35 L9.85 3.6 Q12.1 1.65 16.55 0.75 L17.25 0.6 21.5 0.1 M49.1 26.25 L50.65 24.15 51.3 23.3 51.7 22.7 52.35 21.55 52.6 20.95 Q53.75 17.7 52.95 12.85 M47.2 28.65 L47.7 28.0 48.75 26.7 48.95 26.4 49.1 26.25 M39.4 41.25 Q44.75 39.5 46.4 32.25 L46.95 28.95 47.2 28.65 Q48.95 30.7 49.85 35.8 50.8 41.25 49.35 43.8 L48.8 44.85 Q51.5 46.7 52.65 49.6 M52.0 46.55 Q53.55 48.6 54.05 51.4 L54.25 53.1 Q54.45 56.7 53.2 61.25 M51.25 39.2 L50.95 35.75 Q50.05 30.3 47.7 28.0 M49.95 44.5 Q51.25 42.5 51.25 39.2 M49.95 44.5 L52.0 46.55 M58.7 40.4 Q55.7 43.35 49.95 44.5 M61.35 35.75 Q60.6 38.45 58.7 40.4 M39.4 41.25 L37.05 41.75 Q38.65 43.75 38.6 45.0 M14.8 22.3 Q17.0 22.25 22.0 18.4 25.2 15.9 28.4 15.8 30.05 15.75 31.7 16.4 L31.75 16.5 Q33.7 19.75 35.6 25.65 37.05 26.75 36.3 27.75 L35.6 28.3 35.7 29.2 Q37.4 30.0 36.1 31.6 L35.7 33.65 34.85 36.0 33.55 38.25 33.0 38.95 Q31.25 41.2 28.9 42.05 L26.35 42.45 26.05 42.45 23.9 42.1 23.75 42.0 23.6 41.9 Q19.3 39.5 18.25 36.75 16.8 36.3 16.5 35.6 16.2 34.95 16.7 34.15 L16.25 33.05 16.2 33.0 Q15.05 32.95 15.1 31.85 L15.4 30.5 Q15.05 30.3 14.6 28.65 14.35 27.4 14.4 25.3 L14.5 23.85 14.6 23.85 14.6 23.75 14.75 22.5 14.8 22.3 14.6 22.0 M14.45 24.3 L13.85 24.6 Q14.35 25.4 14.35 27.6 L14.2 30.95 Q15.6 31.9 14.15 32.65 L14.0 33.75 Q14.8 34.95 13.6 35.45 L12.45 38.6 Q11.7 39.95 10.5 40.2 L8.65 40.05 7.95 39.8 Q4.9 38.45 3.5 35.85 2.7 34.35 2.6 32.55 L3.7 33.5 Q6.45 35.5 11.0 35.7 L12.55 35.65 M29.8 26.5 L34.6 25.65 M29.8 26.5 L25.35 27.5 M2.75 24.75 L3.6 22.9 4.5 21.3 Q5.1 20.2 6.3 19.25 L6.25 19.25 6.3 19.2 6.3 19.25 Q6.85 19.2 7.45 19.6 L7.5 19.65 Q8.7 21.75 13.85 24.6 M14.55 24.4 L14.6 23.85 M13.4 32.65 L13.2 33.75 14.0 33.75 M13.4 32.65 L14.15 32.65 M17.3 34.15 L16.7 34.15 M24.0 36.8 L24.55 36.75 Q28.7 36.3 32.1 34.5 34.2 33.35 36.1 31.6 M18.05 34.1 L18.0 34.05 17.65 32.95 M18.25 36.75 L19.85 36.9 24.0 36.8 M28.8 32.0 L25.3 33.0 24.8 33.1 23.95 33.3 21.35 33.75 19.15 34.05 18.05 34.1 17.3 34.15 M2.95 27.25 L3.35 27.45 4.85 28.2 Q8.45 29.7 13.5 30.85 M1.65 27.8 L1.7 27.45 Q1.95 26.75 2.35 26.9 2.4 25.8 2.75 24.75 M2.15 29.55 Q1.8 30.0 1.85 30.65 1.9 31.45 2.6 32.55 M2.15 29.45 L2.15 29.55 M2.2 29.55 L2.15 29.45 2.15 28.7 1.65 27.8 M3.0 29.45 L2.75 30.6 Q4.9 33.35 13.2 33.75 M2.75 30.6 L2.2 29.55 M2.15 28.7 L3.0 29.45 Q4.9 31.35 8.8 32.15 L13.4 32.65 M8.7 46.75 L10.1 47.1 19.6 48.0 27.7 47.8 32.15 47.4 34.5 47.05 M35.45 42.35 Q33.5 43.15 28.75 43.75 L23.85 43.8 Q13.05 43.6 3.6 40.7 M8.7 46.75 L4.5 45.3 M35.25 29.45 L34.35 29.85 28.8 32.0 M35.1 28.5 L35.25 29.45 35.7 29.2 M23.6 41.9 L23.9 42.1 M26.5 56.25 L26.5 56.3 M27.7 47.8 L27.65 50.4 Q27.4 53.95 26.5 56.25 M18.75 56.9 Q18.2 55.0 18.4 52.1 L19.0 50.05 19.6 48.0 M8.95 50.3 Q8.0 53.75 8.25 56.8 L8.3 57.1 M10.1 47.1 L8.95 50.3" fill="none" stroke="#000000" stroke-linecap="round" stroke-linejoin="round" stroke-opacity="0.4117647" stroke-width="0.05"/>
    <path d="M14.5 23.85 L14.45 24.3 Q14.05 24.0 13.55 22.4 M16.85 33.0 L17.65 32.95 23.15 32.15 35.1 28.5 35.6 28.3 M15.45 9.15 L14.65 11.9 14.5 12.4 Q13.4 16.8 13.45 20.65 M14.5 23.85 L14.55 24.4 M16.85 33.0 L16.3 33.0 16.2 33.0" fill="none" stroke="#000000" stroke-linecap="round" stroke-linejoin="round" stroke-opacity="0.4117647" stroke-width="0.05"/>
    <path d="M3.9 48.05 Q1.8 52.6 3.45 56.55 M33.85 49.65 Q35.0 53.25 33.85 55.35 M20.85 50.05 Q20.2 53.55 20.85 56.5 M30.25 50.45 L30.25 56.15 M14.9 61.25 Q17.05 58.15 17.2 53.5 M10.25 50.3 Q9.35 54.15 10.25 57.65" fill="none" stroke="#8a6d51" stroke-linecap="round" stroke-linejoin="round" stroke-width="0.05"/>
  </g>
  <defs>
    <linearGradient gradientTransform="matrix(0.025, 0.0, 0.0, 0.0177, 32.8, 14.45)" gradientUnits="userSpaceOnUse" id="gradient0" spreadMethod="pad" x1="-819.2" x2="819.2">
      <stop offset="0.0" stop-color="#56628f"/>
      <stop offset="1.0" stop-color="#b7c8d9"/>
    </linearGradient>
    <linearGradient gradientTransform="matrix(0.025, 0.0, 0.0, 0.0177, 32.8, 14.45)" gradientUnits="userSpaceOnUse" id="gradient1" spreadMethod="pad" x1="-819.2" x2="819.2">
      <stop offset="0.0" stop-color="#56628f"/>
      <stop offset="1.0" stop-color="#89a6c2"/>
    </linearGradient>
    <linearGradient gradientTransform="matrix(0.0293, 0.0, 0.0, 0.0263, 23.95, 22.2)" gradientUnits="userSpaceOnUse" id="gradient2" spreadMethod="pad" x1="-819.2" x2="819.2">
      <stop offset="0.0" stop-color="#56628f"/>
      <stop offset="0.3137254901960784" stop-color="#1d2530"/>
      <stop offset="0.5803921568627451" stop-color="#263c48"/>
      <stop offset="1.0" stop-color="#8085b3"/>
    </linearGradient>
    <linearGradient gradientTransform="matrix(0.0182, -0.0049, 0.0014, 0.0054, 17.35, 24.9)" gradientUnits="userSpaceOnUse" id="gradient3" spreadMethod="pad" x1="-819.2" x2="819.2">
      <stop offset="0.0" stop-color="#ed981b"/>
      <stop offset="1.0" stop-color="#ffe242"/>
    </linearGradient>
    <linearGradient gradientTransform="matrix(0.025, 0.0, 0.0, 0.0177, 32.8, 14.45)" gradientUnits="userSpaceOnUse" id="gradient4" spreadMethod="pad" x1="-819.2" x2="819.2">
      <stop offset="0.06274509803921569" stop-color="#777c80"/>
      <stop offset="1.0" stop-color="#89a6c2"/>
    </linearGradient>
    <linearGradient gradientTransform="matrix(0.0128, -0.0074, 0.0047, 0.0082, 13.4, 56.7)" gradientUnits="userSpaceOnUse" id="gradient5" spreadMethod="pad" x1="-819.2" x2="819.2">
      <stop offset="0.0" stop-color="#91725e"/>
      <stop offset="1.0" stop-color="#836841"/>
    </linearGradient>
    <linearGradient gradientTransform="matrix(0.0128, -0.0074, 0.0047, 0.0082, 13.4, 56.7)" gradientUnits="userSpaceOnUse" id="gradient6" spreadMethod="pad" x1="-819.2" x2="819.2">
      <stop offset="0.0" stop-color="#dfbb97"/>
      <stop offset="1.0" stop-color="#97794f"/>
    </linearGradient>
    <linearGradient gradientTransform="matrix(0.0208, 0.0036, -7.0E-4, 0.0044, 23.75, 44.35)" gradientUnits="userSpaceOnUse" id="gradient7" spreadMethod="pad" x1="-819.2" x2="819.2">
      <stop offset="0.0" stop-color="#56628f"/>
      <stop offset="0.3137254901960784" stop-color="#1d2530"/>
      <stop offset="0.5803921568627451" stop-color="#263c48"/>
      <stop offset="1.0" stop-color="#8085b3"/>
    </linearGradient>
  </defs>
</svg>
