<?xml version="1.0" encoding="UTF-8" standalone="no"?>
<svg xmlns:xlink="http://www.w3.org/1999/xlink" height="36.25px" width="52.4px" xmlns="http://www.w3.org/2000/svg">
  <g transform="matrix(1.0, 0.0, 0.0, 1.0, -76.65, -53.85)">
    <path d="M111.35 56.2 L111.75 56.2 112.3 56.3 Q119.15 57.3 123.95 62.5 128.9 67.95 128.55 74.8 128.3 81.75 122.8 86.0 117.7 90.0 110.95 89.55 L109.05 89.35 Q105.4 88.85 102.2 87.0 104.85 86.1 107.15 84.25 112.6 79.95 112.85 73.1 113.2 66.2 108.25 60.75 106.15 58.5 103.6 56.95 107.15 55.8 111.35 56.2" fill="#003333" fill-rule="evenodd" stroke="none"/>
    <path d="M110.95 89.55 L109.9 89.5 109.05 89.35 Q102.65 89.55 95.05 88.15 L92.75 87.55 Q86.35 86.4 81.85 81.5 76.85 76.05 77.15 69.2 77.55 62.25 82.95 58.0 88.4 53.7 95.6 54.45 103.5 54.55 111.35 56.2 L111.75 56.2 112.3 56.3 Q119.15 57.3 123.95 62.5 128.9 67.95 128.55 74.8 128.3 81.75 122.8 86.0 117.7 90.0 110.95 89.55 L109.05 89.35 Q105.4 88.85 102.2 87.0 99.75 85.5 97.55 83.15 92.5 77.75 92.9 70.9 93.2 64.05 98.7 59.7 101.0 57.9 103.6 56.95 107.15 55.8 111.35 56.2 M103.6 56.95 Q106.15 58.5 108.25 60.75 113.2 66.2 112.85 73.1 112.6 79.95 107.15 84.25 104.85 86.1 102.2 87.0" fill="none" stroke="#000000" stroke-linecap="round" stroke-linejoin="round" stroke-width="1.0"/>
  </g>
</svg>
