<?xml version="1.0" encoding="UTF-8" standalone="no"?>
<svg xmlns:xlink="http://www.w3.org/1999/xlink" height="204.35px" width="332.85px" xmlns="http://www.w3.org/2000/svg">
  <g transform="matrix(1.0, 0.0, 0.0, 1.0, -149.65, -34.65)">
    <path d="M283.4 36.15 L330.55 44.85 330.6 44.85 351.4 48.65 351.65 48.8 351.85 49.0 354.35 53.9 354.4 54.4 352.4 60.6 352.7 60.75 360.25 68.0 360.45 68.35 361.0 71.9 360.85 72.4 355.95 79.15 355.55 79.4 363.7 82.05 370.2 84.35 370.75 84.55 374.9 86.1 Q383.85 89.55 392.65 93.6 L399.75 97.0 457.25 135.65 479.75 166.45 481.85 168.3 482.1 168.75 481.95 169.2 481.5 169.45 480.75 167.5 481.0 177.35 475.4 170.75 475.35 170.75 475.2 170.85 473.9 171.9 459.05 209.6 458.7 209.95 458.25 209.95 457.85 209.65 443.15 183.4 396.05 126.95 345.9 88.3 345.9 88.35 345.55 88.7 335.75 93.25 Q345.6 98.95 355.25 105.2 L365.5 112.0 371.2 116.4 376.3 121.15 370.9 131.45 373.45 140.35 373.4 140.7 Q364.7 153.15 354.65 164.4 L354.05 165.05 349.1 170.35 346.45 173.05 Q339.75 179.8 332.45 186.1 L332.6 186.6 332.5 186.85 330.35 188.8 326.35 192.15 322.75 195.15 321.2 196.35 312.45 203.55 312.5 203.65 312.5 203.85 312.35 204.05 312.1 204.1 311.95 204.0 307.3 206.85 306.75 207.25 306.75 207.2 306.15 207.7 302.9 209.85 302.6 210.1 302.0 210.45 293.95 215.95 302.0 210.45 302.05 210.65 301.75 211.05 298.25 213.5 295.95 215.1 294.7 215.95 294.2 216.05 293.95 215.95 293.8 215.8 292.8 216.55 280.2 225.2 280.05 225.45 279.9 225.6 277.8 226.8 277.8 226.85 277.2 227.15 Q272.3 229.85 267.3 231.9 262.5 233.75 257.5 235.1 248.0 237.45 238.05 237.45 L238.1 237.5 236.2 237.5 236.2 237.45 228.35 236.3 228.0 236.05 227.9 235.65 228.25 229.25 228.35 228.9 228.65 228.65 229.0 228.7 229.35 228.8 229.4 228.7 229.8 228.35 249.45 221.4 249.95 221.4 250.25 221.8 253.75 207.35 237.85 188.25 224.0 187.75 223.65 187.65 223.45 187.45 223.35 187.1 223.75 181.9 223.8 181.75 223.75 181.6 223.9 181.35 224.2 181.15 306.2 158.45 306.25 158.45 347.95 133.05 347.9 132.85 347.6 132.6 339.2 121.15 338.85 121.05 318.15 105.1 310.05 107.6 309.7 107.55 301.1 105.15 297.55 111.1 295.25 114.4 292.7 117.7 292.5 117.9 292.25 117.95 261.0 120.85 260.6 120.8 246.0 112.9 242.95 113.25 241.6 113.45 Q224.65 115.15 207.45 113.65 L207.45 113.6 Q181.85 111.4 157.25 104.25 L156.95 104.05 151.35 98.15 151.2 97.85 151.2 97.5 153.05 92.15 153.15 91.8 Q155.7 83.8 156.95 75.55 L157.65 69.75 154.5 63.55 154.4 63.3 Q154.35 63.15 154.45 63.0 L157.15 56.75 157.35 56.5 157.6 56.35 172.2 52.3 170.6 53.0 173.35 52.0 174.45 51.65 174.35 51.5 174.4 51.4 174.8 51.1 215.8 38.6 215.95 38.55 283.3 36.15 283.4 36.15 M175.55 51.7 L175.2 51.75 175.1 51.8 175.05 51.85 174.4 51.95 173.0 52.35 170.6 53.0 173.0 52.35 174.4 51.95 175.05 51.85 175.1 51.8 175.2 51.75 175.55 51.7 M404.85 122.6 L404.0 123.55 404.0 123.6 404.85 122.6 405.1 122.25 404.85 122.6 M280.2 225.2 L280.15 224.7 277.25 226.95 280.2 225.2 277.25 226.95 280.15 224.7 280.2 225.2 M330.35 188.8 L321.2 196.35 330.35 188.8 M282.4 66.05 L289.05 61.35 303.15 62.15 309.9 68.75 309.85 69.55 309.75 69.55 312.65 70.05 312.3 69.8 312.1 69.4 312.2 69.0 Q312.35 68.8 312.6 68.75 L331.65 64.7 Q312.9 59.8 293.7 56.2 278.35 53.25 262.8 51.55 L256.25 50.85 256.05 50.85 231.0 56.05 Q222.75 57.75 214.65 59.95 196.2 64.85 178.45 72.15 L175.8 73.0 230.75 77.9 241.8 78.9 273.1 76.0 273.6 76.7 Q277.15 73.75 281.1 71.4 L281.05 70.9 Q281.1 70.65 281.3 70.5 L281.75 70.2 282.4 66.05 M279.05 94.45 L279.1 93.6 278.65 94.4 278.65 94.5 278.95 94.45 279.05 94.45 M314.05 70.3 L312.65 70.05 314.05 70.3 M173.0 52.35 L175.05 51.85 173.0 52.35 M301.4 104.5 L301.3 104.6 301.4 104.5 M307.1 207.35 L307.05 207.3 307.3 207.2 307.1 207.35" fill="#000000" fill-rule="evenodd" stroke="none"/>
    <path d="M479.75 166.45 L457.25 135.65 399.75 97.0 392.65 93.6 Q383.85 89.55 374.9 86.1 L370.75 84.55 370.2 84.35 363.7 82.05 355.55 79.4 355.95 79.15 360.85 72.4 361.0 71.9 360.45 68.35 360.25 68.0 352.7 60.75 352.4 60.6 354.4 54.4 354.35 53.9 351.85 49.0 351.65 48.8 351.4 48.65 330.6 44.85 330.55 44.85 283.4 36.15 M283.3 36.15 L215.95 38.55 M215.8 38.6 L174.8 51.1 174.4 51.4 174.35 51.5 173.35 52.0 172.2 52.3 157.6 56.35 M174.45 51.65 L173.35 52.0 170.6 53.0 173.0 52.35 174.4 51.95 175.05 51.85 175.1 51.8 175.2 51.75 175.55 51.7 M332.45 186.1 Q339.75 179.8 346.45 173.05 L349.1 170.35 354.05 165.05 354.65 164.4 Q364.7 153.15 373.4 140.7 L373.45 140.35 370.9 131.45 376.3 121.15 371.2 116.4 365.5 112.0 355.25 105.2 Q345.6 98.95 335.75 93.25 L345.55 88.7 345.9 88.35 345.9 88.3 396.05 126.95 443.15 183.4 457.85 209.65 458.25 209.95 458.7 209.95 459.05 209.6 473.9 171.9 475.2 170.85 475.35 170.75 475.4 170.75 481.0 177.35 480.75 167.5 M404.85 122.6 L404.0 123.6 404.0 123.55 404.85 122.6 405.1 122.25 M154.5 63.55 L157.65 69.75 156.95 75.55 Q155.7 83.8 153.15 91.8 L153.05 92.15 151.2 97.5 151.2 97.85 151.35 98.15 156.95 104.05 157.25 104.25 Q181.85 111.4 207.45 113.6 L207.45 113.65 Q224.65 115.15 241.6 113.45 L242.95 113.25 246.0 112.9 260.6 120.8 261.0 120.85 292.25 117.95 292.5 117.9 292.7 117.7 295.25 114.4 297.55 111.1 301.1 105.15 309.7 107.55 310.05 107.6 318.15 105.1 338.85 121.05 339.2 121.15 347.6 132.6 347.9 132.85 347.95 133.05 306.25 158.45 306.2 158.45 224.2 181.15 M223.75 181.9 L223.35 187.1 223.45 187.45 223.65 187.65 224.0 187.75 237.85 188.25 253.75 207.35 250.25 221.8 249.95 221.4 249.45 221.4 229.8 228.35 229.4 228.7 229.35 228.8 229.0 228.7 228.65 228.65 228.35 228.9 228.25 229.25 227.9 235.65 228.0 236.05 228.35 236.3 236.2 237.45 236.2 237.5 238.1 237.5 238.05 237.45 Q248.0 237.45 257.5 235.1 262.5 233.75 267.3 231.9 272.3 229.85 277.2 227.15 L277.8 226.85 M280.2 225.2 L277.25 226.95 280.15 224.7 280.2 225.2 292.8 216.55 293.8 215.8 M293.95 215.95 L302.0 210.45 302.6 210.1 302.9 209.85 306.15 207.7 306.75 207.25 307.3 206.85 311.95 204.0 M312.5 203.65 L312.45 203.55 321.2 196.35 330.35 188.8 332.5 186.85 333.55 185.9 M282.4 66.05 L289.05 61.35 303.15 62.15 309.9 68.75 309.85 69.55 309.75 69.55 312.65 70.05 312.3 69.8 312.1 69.4 312.2 69.0 Q312.35 68.8 312.6 68.75 L331.65 64.7 Q312.9 59.8 293.7 56.2 278.35 53.25 262.8 51.55 L256.25 50.85 256.05 50.85 231.0 56.05 Q222.75 57.75 214.65 59.95 196.2 64.85 178.45 72.15 L175.8 73.0 230.75 77.9 241.8 78.9 273.1 76.0 273.6 76.7 Q277.15 73.75 281.1 71.4 L281.05 70.9 Q281.1 70.65 281.3 70.5 L281.75 70.2 282.4 66.05 M279.05 94.45 L278.95 94.45 278.65 94.5 278.65 94.4 279.1 93.6 279.05 94.45 M312.65 70.05 L314.05 70.3 M175.05 51.85 L173.0 52.35 M301.4 104.5 L301.3 104.6 301.4 104.5 M157.15 56.75 L154.45 63.0 M292.8 216.55 L293.95 215.95" fill="none" stroke="#000000" stroke-linecap="round" stroke-linejoin="round" stroke-width="3.0"/>
    <path d="M481.5 168.65 L481.1 177.3 475.05 170.1 479.25 166.7 481.5 168.65 M229.95 229.45 L230.1 228.9 249.75 221.9 250.9 222.2 249.6 227.65 236.8 231.35 229.95 229.45" fill="#333333" fill-rule="evenodd" stroke="none"/>
    <path d="M153.8 92.25 L153.9 91.85 155.15 93.35 153.8 92.25 M281.75 70.95 L282.5 65.95 289.15 61.25 303.25 62.05 310.0 68.65 309.9 69.45 309.8 69.5 301.65 68.05 294.75 72.2 286.15 68.5 Q284.55 69.25 283.05 70.15 282.4 70.5 281.75 70.95 M261.4 102.7 L261.2 101.05 261.5 102.7 261.4 102.7" fill="#454545" fill-rule="evenodd" stroke="none"/>
    <path d="M353.3 56.0 L351.7 60.9 350.85 63.55 349.6 68.75 349.55 68.9 Q348.65 72.25 346.85 75.0 346.35 75.75 346.55 76.65 L345.75 76.45 Q343.0 74.6 344.95 69.35 346.85 64.1 345.25 65.05 343.65 66.0 335.0 73.65 L333.6 73.35 Q323.3 71.0 312.85 69.3 L334.5 64.65 344.2 56.45 Q342.2 56.05 338.0 54.2 333.8 52.4 326.0 51.2 305.7 46.1 291.75 44.75 L269.2 43.2 Q260.5 43.0 254.7 43.3 240.7 43.75 226.8 46.05 L232.95 49.7 222.35 47.5 Q213.8 45.75 204.5 49.75 195.15 53.75 184.35 53.7 180.15 53.75 181.25 49.75 L216.1 39.1 277.3 36.9 283.0 38.4 Q292.75 40.85 302.7 42.4 315.05 44.35 327.6 45.3 L330.45 45.85 343.65 49.25 Q352.15 51.5 353.3 56.0 M370.85 84.45 L375.0 86.0 384.35 89.8 392.75 93.5 Q396.3 95.1 399.85 96.85 L457.35 135.5 481.5 168.65 479.25 166.7 475.05 170.1 473.45 171.4 458.55 209.25 443.85 183.0 396.6 126.4 344.55 86.25 305.7 72.4 302.3 75.65 Q314.15 81.2 325.65 87.45 L329.4 89.5 329.45 89.5 335.4 92.85 Q350.8 101.75 365.6 111.95 L371.3 116.3 Q374.0 118.55 376.35 121.05 L371.0 131.4 364.8 143.25 364.45 143.1 362.8 146.6 360.15 152.3 356.95 158.9 354.55 164.1 354.7 164.3 354.75 164.3 354.15 164.95 349.2 170.25 346.55 172.95 Q339.8 179.75 332.45 186.1 L332.3 186.25 332.05 186.4 326.05 191.55 322.4 194.5 322.0 194.0 310.6 201.6 285.6 215.75 269.85 223.2 263.4 225.2 Q259.05 226.55 254.6 227.1 L258.3 215.6 260.55 207.45 252.95 192.7 258.65 191.65 Q290.65 185.3 319.7 164.4 L312.95 161.65 Q316.0 159.6 325.0 154.5 334.0 149.35 342.0 142.7 350.0 136.05 350.45 138.8 L358.0 127.5 Q352.85 133.8 342.25 140.65 331.6 147.45 322.1 153.25 L311.85 159.45 312.65 161.1 311.8 159.45 309.05 160.85 Q301.0 164.65 292.5 167.65 268.35 176.0 237.9 183.25 L236.15 183.7 242.8 184.85 224.5 182.0 224.45 181.95 224.45 181.7 306.5 158.95 348.6 133.3 348.65 132.55 362.45 120.9 363.5 118.65 Q358.9 114.0 354.05 109.8 L354.0 109.75 Q342.05 99.45 328.25 91.6 314.95 84.15 301.35 77.45 L298.55 76.05 Q306.95 85.1 317.5 92.15 320.15 94.05 322.05 97.0 323.7 99.45 304.55 91.0 L305.7 91.85 305.75 91.9 Q317.85 101.1 311.4 98.95 L304.4 93.6 293.65 88.55 276.1 80.25 Q273.6 87.45 275.95 90.0 278.2 92.55 280.1 93.15 L279.05 95.0 279.2 93.45 272.5 88.65 270.75 79.35 270.75 79.2 273.3 76.9 273.95 77.55 Q278.0 76.0 282.15 77.8 286.55 79.65 300.25 86.0 L291.85 80.05 285.8 72.05 Q285.0 71.15 283.85 70.55 L283.05 70.15 Q284.55 69.25 286.15 68.5 L294.75 72.2 301.65 68.05 309.8 69.5 333.6 73.35 334.9 73.7 334.95 73.7 335.3 73.8 387.55 101.8 387.3 102.35 Q392.45 105.1 397.25 108.15 L402.65 111.6 Q410.9 117.2 419.0 123.3 426.85 129.1 434.1 135.2 441.55 141.35 449.75 147.25 L455.05 151.35 Q454.2 148.0 453.6 147.3 L452.2 145.35 Q448.55 140.35 444.6 136.1 437.4 128.15 429.15 121.15 L423.5 116.9 417.25 112.85 Q412.65 110.15 407.75 108.3 L407.05 108.95 404.35 107.0 398.85 102.65 Q395.75 99.5 392.0 96.75 L391.1 96.15 Q387.5 93.6 383.6 91.6 L383.45 91.55 374.65 86.9 370.85 84.45 M158.4 69.5 L155.15 63.15 155.35 62.7 157.2 58.35 Q159.15 57.5 162.5 65.1 167.95 77.45 175.65 81.55 191.55 89.3 209.1 91.65 238.8 98.4 223.5 92.95 L215.35 90.25 198.45 84.95 Q184.45 78.2 191.65 76.7 L227.25 80.3 250.75 81.0 250.9 80.5 252.15 80.9 257.75 82.9 256.95 85.45 257.0 85.6 255.8 85.45 252.2 85.2 255.0 85.5 249.6 85.5 245.7 85.6 236.1 85.1 223.75 83.75 Q206.95 81.75 214.75 84.55 222.5 87.35 237.05 89.65 L221.2 88.95 218.55 88.4 224.25 90.65 Q232.9 93.75 241.95 95.3 251.0 96.25 256.35 98.35 L220.1 106.65 205.45 104.65 Q186.1 99.8 176.45 94.45 L176.3 94.4 175.6 93.95 173.3 93.5 173.25 93.5 Q167.65 92.95 179.3 103.6 175.2 102.85 173.45 102.3 L169.95 101.1 166.55 99.8 Q162.05 98.05 158.1 95.45 163.2 94.65 165.85 87.85 L163.75 79.9 158.4 69.5 M404.1 123.45 L404.7 122.7 404.1 123.45" fill="#575757" fill-rule="evenodd" stroke="none"/>
    <path d="M344.55 86.25 L345.4 88.05 335.6 92.55 335.4 92.85 329.45 89.5 329.4 89.5 325.65 87.45 Q314.15 81.2 302.3 75.65 L305.7 72.4 344.55 86.25 M318.35 104.3 L309.95 106.85 300.95 104.25 301.2 103.55 Q303.05 99.5 304.05 95.2 L304.4 93.6 311.4 98.95 318.35 104.3 M273.7 76.55 L273.6 76.65 273.2 75.95 273.7 76.55" fill="#000000" fill-rule="evenodd" stroke="none"/>
    <path d="M155.35 62.7 Q156.0 58.85 157.2 58.35 L155.35 62.7 M168.05 66.4 L166.5 65.1 167.2 64.5 168.05 66.4" fill="#44491d" fill-rule="evenodd" stroke="none"/>
    <path d="M322.4 194.5 Q314.45 200.95 306.2 206.95 L303.1 209.25 295.65 214.45 282.25 223.3 280.3 224.5 277.55 226.15 Q272.45 229.05 267.15 231.15 262.35 233.05 257.45 234.35 248.05 236.7 238.15 236.7 L238.05 236.25 Q244.15 234.55 249.4 231.75 L253.1 229.45 Q253.9 228.95 254.3 227.95 L254.6 227.15 254.6 227.1 Q259.05 226.55 263.4 225.2 L269.85 223.2 285.6 215.75 310.6 201.6 322.0 194.0 322.4 194.5 M330.5 45.35 L330.55 45.35 330.45 45.85 330.5 45.35" fill="#524921" fill-rule="evenodd" stroke="none"/>
    <path d="M236.3 236.7 L228.65 235.55 229.0 229.2 229.95 229.45 236.8 231.35 249.6 227.65 250.9 222.2 254.55 207.05 238.3 187.5 224.1 187.0 224.45 181.95 224.5 182.0 242.8 184.85 252.95 192.7 260.55 207.45 258.3 215.6 254.6 227.1 254.6 227.15 254.3 227.95 Q253.9 228.95 253.1 229.45 L249.4 231.75 Q244.15 234.55 238.05 236.25 L236.3 236.7" fill="#bfac99" fill-rule="evenodd" stroke="none"/>
    <path d="M238.15 236.7 L236.3 236.7 238.05 236.25 238.15 236.7 M397.75 107.3 L398.0 106.85 Q399.45 107.4 400.65 108.15 403.05 109.65 405.6 110.85 L407.65 111.9 397.75 107.3" fill="#66612b" fill-rule="evenodd" stroke="none"/>
    <path d="M351.7 60.9 L352.35 61.1 359.9 68.35 360.45 71.9 355.55 78.7 355.5 79.25 363.8 81.9 Q367.05 83.0 370.35 84.25 L370.85 84.45 374.65 86.9 383.45 91.55 383.6 91.6 Q387.5 93.6 391.1 96.15 L392.0 96.75 Q395.75 99.5 398.85 102.65 L404.35 107.0 407.05 108.95 415.75 114.9 423.2 119.9 407.65 111.9 405.6 110.85 Q403.05 109.65 400.65 108.15 399.45 107.4 398.0 106.85 L397.75 107.3 387.55 101.8 335.3 73.8 335.0 73.65 Q343.65 66.0 345.25 65.05 346.85 64.1 344.95 69.35 343.0 74.6 345.75 76.45 L346.55 76.65 Q346.35 75.75 346.85 75.0 348.65 72.25 349.55 68.9 L349.6 68.75 350.85 63.55 351.7 60.9 M371.0 131.4 L373.55 140.25 373.5 140.6 Q364.8 153.05 354.75 164.3 L354.7 164.3 354.55 164.1 356.95 158.9 360.15 152.3 362.8 146.6 364.45 143.1 364.8 143.25 371.0 131.4 M348.65 132.55 L348.25 132.15 339.7 120.5 339.4 120.4 318.35 104.3 311.4 98.95 Q317.85 101.1 305.75 91.9 L305.7 91.85 304.55 91.0 Q323.7 99.45 322.05 97.0 320.15 94.05 317.5 92.15 306.95 85.1 298.55 76.05 L301.35 77.45 Q314.95 84.15 328.25 91.6 342.05 99.45 354.0 109.75 L354.05 109.8 Q358.9 114.0 363.5 118.65 L362.45 120.9 348.65 132.55 M301.2 103.55 L300.85 104.25 Q299.25 107.55 297.1 110.65 L294.8 113.9 292.3 117.2 261.0 120.1 246.25 112.15 241.6 112.7 241.55 112.7 Q224.7 114.45 207.65 112.9 182.1 110.65 157.5 103.5 L151.9 97.6 153.8 92.25 155.15 93.35 153.9 91.85 Q156.45 83.8 157.7 75.6 L158.4 69.5 163.75 79.9 165.85 87.85 Q163.2 94.65 158.1 95.45 162.05 98.05 166.55 99.8 L169.95 101.1 173.45 102.3 Q175.2 102.85 179.3 103.6 167.65 92.95 173.25 93.5 L173.3 93.5 175.6 93.95 176.3 94.4 176.45 94.45 Q186.1 99.8 205.45 104.65 L220.1 106.65 256.35 98.35 Q251.0 96.25 241.95 95.3 232.9 93.75 224.25 90.65 L218.55 88.4 221.2 88.95 Q245.15 92.6 274.55 94.35 L258.35 90.15 Q260.1 90.85 253.2 88.7 245.3 86.25 236.1 85.1 L245.7 85.6 249.6 85.5 255.0 85.5 252.2 85.2 255.8 85.45 257.0 85.6 256.95 85.45 257.75 82.9 252.15 80.9 270.75 79.35 272.5 88.65 279.2 93.45 278.75 94.3 278.85 95.25 279.05 95.0 280.1 93.15 Q278.2 92.55 275.95 90.0 273.6 87.45 276.1 80.25 L293.65 88.55 293.5 88.8 302.25 92.9 301.85 94.5 Q300.7 94.9 299.95 95.55 297.8 97.15 295.55 99.25 294.05 100.6 292.55 100.4 L294.25 101.0 Q296.0 101.5 297.75 99.95 299.95 97.85 302.1 96.25 302.85 95.6 304.05 95.2 303.05 99.5 301.2 103.55 M172.15 52.5 L181.25 49.75 Q180.15 53.75 184.35 53.7 195.15 53.75 204.5 49.75 213.8 45.75 222.35 47.5 L232.95 49.7 226.8 46.05 Q240.7 43.75 254.7 43.3 260.5 43.0 269.2 43.2 L291.75 44.75 Q305.7 46.1 326.0 51.2 333.8 52.4 338.0 54.2 342.2 56.05 344.2 56.45 L334.5 64.65 Q314.45 59.3 293.95 55.45 275.3 51.9 256.45 50.1 L256.4 50.7 231.1 55.95 Q204.1 61.5 178.55 72.05 L175.9 72.9 175.65 72.75 175.65 72.7 175.45 72.7 173.55 72.35 172.55 71.55 168.05 66.4 167.2 64.5 Q160.15 59.3 172.15 52.5 M286.0 99.6 L281.3 104.35 Q278.8 106.5 276.0 108.5 L275.65 108.75 275.1 109.1 272.0 111.35 264.4 111.65 264.45 112.2 Q268.7 115.8 271.15 114.7 273.6 113.5 277.15 110.6 L282.85 105.9 Q284.75 104.35 288.6 98.6 L288.25 98.25 287.8 97.45 286.0 99.6 M261.4 102.7 L261.5 102.7 261.2 101.05 261.4 102.7" fill="#050505" fill-rule="evenodd" stroke="none"/>
    <path d="M330.55 45.35 L351.4 49.2 353.9 54.1 353.3 56.0 Q352.15 51.5 343.65 49.25 L330.45 45.85 330.55 45.35 M157.2 58.35 L157.85 56.85 172.15 52.5 Q160.15 59.3 167.2 64.5 L166.5 65.1 168.05 66.4 172.55 71.55 173.55 72.35 175.45 72.7 175.65 72.7 175.65 72.75 175.9 72.9 230.85 77.8 241.9 78.8 273.2 75.95 273.6 76.65 273.7 76.55 Q277.5 73.45 281.75 70.95 282.4 70.5 283.05 70.15 L283.85 70.55 Q285.0 71.15 285.8 72.05 L291.85 80.05 300.25 86.0 Q286.55 79.65 282.15 77.8 278.0 76.0 273.95 77.55 L273.3 76.9 270.75 79.2 270.75 79.35 252.15 80.9 250.9 80.5 250.75 81.0 227.25 80.3 191.65 76.7 Q184.45 78.2 198.45 84.95 L215.35 90.25 223.5 92.95 Q238.8 98.4 209.1 91.65 191.55 89.3 175.65 81.55 167.95 77.45 162.5 65.1 159.15 57.5 157.2 58.35 M277.3 36.9 L283.45 36.65 330.5 45.35 330.45 45.85 327.6 45.3 Q315.05 44.35 302.7 42.4 292.75 40.85 283.0 38.4 L277.3 36.9 M387.55 101.8 L397.75 107.3 407.65 111.9 423.2 119.9 415.75 114.9 407.05 108.95 407.75 108.3 Q412.65 110.15 417.25 112.85 L423.5 116.9 429.15 121.15 Q437.4 128.15 444.6 136.1 448.55 140.35 452.2 145.35 L453.6 147.3 Q454.2 148.0 455.05 151.35 L449.75 147.25 Q441.55 141.35 434.1 135.2 426.85 129.1 419.0 123.3 410.9 117.2 402.65 111.6 L397.25 108.15 Q392.45 105.1 387.3 102.35 L387.55 101.8 M242.8 184.85 L236.15 183.7 237.9 183.25 Q268.35 176.0 292.5 167.65 301.0 164.65 309.05 160.85 L311.8 159.45 312.65 161.1 311.85 159.45 322.1 153.25 Q331.6 147.45 342.25 140.65 352.85 133.8 358.0 127.5 L350.45 138.8 Q350.0 136.05 342.0 142.7 334.0 149.35 325.0 154.5 316.0 159.6 312.95 161.65 L319.7 164.4 Q290.65 185.3 258.65 191.65 L252.95 192.7 242.8 184.85 M236.1 85.1 Q245.3 86.25 253.2 88.7 260.1 90.85 258.35 90.15 L274.55 94.35 Q245.15 92.6 221.2 88.95 L237.05 89.65 Q222.5 87.35 214.75 84.55 206.95 81.75 223.75 83.75 L236.1 85.1 M288.25 98.25 L288.6 98.6 Q284.75 104.35 282.85 105.9 L277.15 110.6 Q273.6 113.5 271.15 114.7 268.7 115.8 264.45 112.2 L264.4 111.65 272.0 111.35 275.1 109.1 275.65 108.75 276.0 108.5 Q278.8 106.5 281.3 104.35 L286.0 99.6 Q286.05 100.45 288.25 98.25" fill="#b3b3b3" fill-rule="evenodd" stroke="none"/>
    <path d="M373.5 140.6 Q364.8 153.05 354.75 164.3 L354.15 164.95 349.2 170.25 346.55 172.95 Q339.8 179.75 332.45 186.1" fill="none" stroke="#799261" stroke-linecap="round" stroke-linejoin="round" stroke-opacity="0.57254905" stroke-width="1.0"/>
    <path d="M292.35 189.05 L294.1 187.4 288.7 170.25 295.95 164.45 299.25 165.4 302.7 166.55 Q309.2 164.65 317.5 165.5 L320.15 167.3 Q313.6 168.65 308.1 173.95 L305.05 191.8 313.9 195.3 Q320.4 192.7 324.4 183.75 L325.4 187.45 Q323.95 191.35 322.0 194.0 L311.0 201.35 311.35 201.9 307.15 200.25 305.45 199.6 306.55 203.9 305.45 199.6 307.15 200.25 307.0 200.65 Q306.6 201.8 307.1 202.9 L307.45 203.4 306.55 203.9 300.75 207.15 300.1 203.35 300.0 202.95 296.8 203.5 296.2 203.65 293.8 200.05 297.8 197.8 296.2 193.3 292.15 194.6 291.85 193.6 292.0 189.5 292.35 189.05 M300.9 182.65 L300.1 189.2 294.05 174.65 295.8 171.5 Q298.4 169.6 300.45 171.0 302.0 171.5 301.95 174.35 L301.7 176.2 301.95 174.35 Q302.0 171.5 300.45 171.0 298.4 169.6 295.8 171.5 L294.05 174.65 300.1 189.2 300.9 182.65 301.7 176.2 Q300.5 175.8 299.35 176.45 298.2 177.05 297.8 178.4 297.35 179.7 297.9 180.95 298.45 182.1 299.7 182.5 L300.9 182.65" fill="#ffffff" fill-rule="evenodd" stroke="none"/>
    <path d="M292.35 189.05 L292.0 189.5 291.85 193.6 292.15 194.6 290.95 195.05 290.4 195.5 289.5 199.1 293.8 200.05 296.2 203.65 296.8 203.6 297.2 209.15 291.55 212.35 291.8 209.7 290.9 206.55 278.1 213.65 276.55 214.3 276.3 218.85 276.9 219.85 269.85 223.2 Q270.65 218.7 270.15 214.4 L274.55 212.5 273.45 205.85 268.8 206.75 268.65 205.75 Q265.25 197.1 259.3 191.15 L265.5 189.2 265.65 189.2 265.95 190.15 272.45 188.65 273.8 190.5 276.9 189.25 275.4 187.15 277.85 186.3 281.6 189.95 284.2 188.6 281.15 184.4 287.7 182.4 287.75 182.5 291.0 186.8 292.35 189.05 M286.8 193.3 L273.05 199.5 276.1 205.7 276.5 208.25 279.2 206.65 279.1 203.65 278.25 201.6 287.55 196.4 286.8 193.3 M285.6 215.75 L285.05 216.0 285.1 215.5 285.6 215.75 M288.9 213.75 L287.8 213.95 286.5 212.4 289.45 210.4 288.9 213.75 M282.1 214.8 L282.25 216.65 280.7 218.6 278.7 216.35 282.1 214.8" fill="#e0e0bc" fill-rule="evenodd" stroke="none"/>
    <path d="M292.15 194.6 L296.2 193.3 297.8 197.8 293.8 200.05 289.5 199.1 290.4 195.5 290.95 195.05 292.15 194.6 M268.8 206.75 L273.45 205.85 274.55 212.5 270.15 214.4 268.65 214.6 266.2 211.7 266.25 207.25 268.8 206.75" fill="#9b2020" fill-rule="evenodd" stroke="none"/>
    <path d="M307.15 200.25 L311.35 201.9 311.95 203.0 310.8 204.1 308.7 204.3 Q307.9 204.0 307.45 203.4 L307.1 202.9 Q306.6 201.8 307.0 200.65 L307.15 200.25 M300.9 182.65 L299.7 182.5 Q298.45 182.1 297.9 180.95 297.35 179.7 297.8 178.4 298.2 177.05 299.35 176.45 300.5 175.8 301.7 176.2 L300.9 182.65" fill="#333333" fill-rule="evenodd" stroke="none"/>
    <path d="M259.3 191.15 L257.85 189.7 Q250.8 183.4 253.25 181.65 L278.45 173.95 Q282.85 176.2 287.7 182.4 L281.15 184.4 279.3 181.85 264.25 186.5 264.45 187.2 265.5 189.2 259.3 191.15" fill="#eeedd9" fill-rule="evenodd" stroke="none"/>
    <path d="M281.15 184.4 L284.2 188.6 281.6 189.95 277.85 186.3 275.4 187.15 276.9 189.25 273.8 190.5 272.45 188.65 265.95 190.15 265.65 189.2 281.15 184.4 M276.9 219.85 L276.3 218.85 276.55 214.3 278.1 213.65 290.9 206.55 291.8 209.7 291.55 212.35 291.45 213.95 289.1 216.4 286.35 216.15 285.6 215.75 285.1 215.5 285.05 216.0 284.85 217.7 283.25 220.9 279.85 222.1 277.7 221.05 276.9 219.85 M286.8 193.3 L287.55 196.4 278.25 201.6 279.1 203.65 279.2 206.65 276.5 208.25 276.1 205.7 273.05 199.5 286.8 193.3 M288.9 213.75 L289.45 210.4 286.5 212.4 287.8 213.95 288.9 213.75 M282.1 214.8 L278.7 216.35 280.7 218.6 282.25 216.65 282.1 214.8" fill="#524921" fill-rule="evenodd" stroke="none"/>
    <path d="M265.5 189.2 L264.45 187.2 264.25 186.5 279.3 181.85 281.15 184.4 265.65 189.2 265.5 189.2" fill="#a79145" fill-rule="evenodd" stroke="none"/>
    <path d="M300.75 207.15 L306.55 203.9 307.45 203.4 Q307.9 204.0 308.7 204.3 L310.8 204.1 311.95 203.0 312.3 203.7 307.1 206.9 301.65 210.6 301.4 210.25 301.3 210.15 300.75 207.15 M311.35 201.9 L311.0 201.35 322.0 194.0 319.9 196.45 312.3 203.7 311.95 203.0 311.35 201.9 M307.1 206.9 L306.55 203.9 307.1 206.9" fill="#d5d5d5" fill-rule="evenodd" stroke="none"/>
    <path d="M269.85 223.2 L276.9 219.85 277.7 221.05 279.85 222.1 283.25 220.9 284.85 217.7 285.05 216.0 285.6 215.75 286.35 216.15 289.1 216.4 291.45 213.95 291.55 212.35 297.2 209.15 297.5 212.85 Q285.65 222.7 267.45 231.0 269.1 227.05 269.85 223.2" fill="#b6b561" fill-rule="evenodd" stroke="none"/>
    <path d="M292.15 194.6 L296.2 193.3 297.8 197.8 293.8 200.05 289.5 199.1 290.4 195.5 M300.1 203.35 L300.75 207.15 301.3 210.15 M306.55 203.9 L305.45 199.6 307.15 200.25 311.35 201.9 311.95 203.0 312.3 203.7 M301.7 176.2 L301.95 174.35 Q302.0 171.5 300.45 171.0 298.4 169.6 295.8 171.5 L294.05 174.65 300.1 189.2 300.9 182.65 301.7 176.2 M292.15 194.6 L290.95 195.05 M306.55 203.9 L307.1 206.9" fill="none" stroke="#897c38" stroke-linecap="round" stroke-linejoin="round" stroke-width="0.5"/>
  </g>
</svg>
