<?xml version="1.0" encoding="UTF-8" standalone="no"?>
<svg xmlns:xlink="http://www.w3.org/1999/xlink" height="51.9px" width="86.7px" xmlns="http://www.w3.org/2000/svg">
  <g transform="matrix(1.0, 0.0, 0.0, 1.0, -231.6, -174.5)">
    <path d="M256.65 175.85 Q256.2 178.45 256.2 180.75 L253.05 181.45 256.2 180.75 Q256.2 178.45 256.65 175.85 L274.95 174.8 Q292.2 174.8 304.4 177.9 316.5 181.0 316.6 185.45 L316.6 185.6 Q316.5 188.85 309.8 191.4 L305.7 190.05 304.4 189.7 Q292.2 186.6 274.95 186.6 L257.65 187.55 Q256.8 186.0 256.5 184.1 L254.9 184.55 256.5 184.1 Q256.8 186.0 257.65 187.55 L256.7 187.65 254.9 184.55 253.05 181.45 250.3 176.85 256.65 175.85 M264.4 181.8 L256.5 184.1 Q256.2 182.5 256.2 180.75 L261.1 179.8 256.2 180.75 Q256.2 182.5 256.5 184.1 L264.4 181.8 M291.05 195.4 L291.35 192.8 293.1 192.8 291.35 192.8 291.05 195.4 275.2 196.2 274.95 196.2 261.45 195.65 257.9 189.65 274.95 188.75 291.75 189.6 Q298.65 190.4 304.4 191.85 L305.45 192.15 306.65 192.45 305.35 192.8 304.4 193.05 Q298.35 194.6 291.05 195.4 M288.5 190.9 L291.55 191.4 291.35 192.8 288.15 192.7 291.35 192.8 291.55 191.4 288.5 190.9 M293.4 191.65 L291.55 191.4 291.75 189.6 291.55 191.4 293.4 191.65 M308.85 205.0 L308.7 204.95 306.65 204.3 Q315.25 201.75 316.45 198.4 L316.6 199.35 316.6 199.55 Q316.5 202.8 309.8 205.35 L308.85 205.0" fill="#6f5439" fill-rule="evenodd" stroke="none"/>
    <path d="M250.3 176.85 L253.05 181.45 254.9 184.55 256.7 187.65 Q250.65 188.4 245.5 189.7 242.4 190.5 240.1 191.4 233.4 188.85 233.3 185.6 L233.3 185.4 Q233.45 181.0 245.5 177.9 L250.3 176.85 M261.45 195.65 L257.15 195.2 Q250.85 194.45 245.5 193.05 L243.3 192.45 245.5 191.85 Q251.15 190.4 257.9 189.65 L261.45 195.65 M243.3 204.3 L240.1 205.35 Q233.4 202.8 233.3 199.55 L233.3 199.35 233.5 198.4 Q234.65 201.75 243.3 204.3" fill="#5b452f" fill-rule="evenodd" stroke="none"/>
    <path d="M261.45 195.65 L274.95 196.2 275.2 196.2 275.15 198.65 275.15 200.95 272.15 202.15 268.0 203.85 259.2 201.9 258.7 200.25 258.1 198.35 257.15 195.2 261.45 195.65 M259.25 198.55 L258.1 198.35 259.25 198.55 M273.55 198.8 L275.15 198.65 273.55 198.8 M251.05 208.25 L256.15 209.05 274.9 210.15 279.6 214.7 278.4 215.3 279.6 214.7 281.65 216.65 283.55 218.45 282.95 221.8 280.3 221.9 274.95 222.0 256.15 220.85 250.4 219.95 249.0 215.8 248.4 214.0 248.9 213.0 250.15 213.4 248.9 213.0 251.05 208.25 M288.4 209.6 Q296.6 208.9 303.35 207.3 305.25 209.3 304.3 212.65 L300.3 214.6 297.8 214.75 296.05 214.85 291.0 215.15 288.4 209.6 M258.7 200.25 L259.8 200.35 258.7 200.25 M270.9 202.0 L272.15 202.15 270.9 202.0 M296.25 212.7 L296.05 214.85 296.25 212.7 M281.65 216.65 L278.55 217.85 281.65 216.65 M297.55 212.7 L297.8 214.75 297.55 212.7 M246.9 198.15 L246.5 199.25 246.9 198.15 248.55 199.3 248.05 202.6 243.3 202.45 241.0 200.45 242.0 198.75 242.45 199.1 242.0 198.75 243.65 195.9 245.85 197.4 246.9 198.15 M245.25 198.9 L245.85 197.4 245.25 198.9 M250.25 216.0 L249.0 215.8 250.25 216.0" fill="#a37343" fill-rule="evenodd" stroke="none"/>
    <path d="M291.05 195.4 Q298.35 194.6 304.4 193.05 L305.35 192.8 Q307.8 198.95 303.65 205.1 293.65 207.55 280.3 207.95 L274.95 208.05 267.1 207.85 Q258.85 207.45 251.95 206.25 L245.5 204.9 243.3 204.3 Q234.65 201.75 233.5 198.4 L233.3 197.45 Q230.55 191.65 233.3 185.6 233.4 188.85 240.1 191.4 L243.3 192.45 245.5 193.05 Q250.85 194.45 257.15 195.2 L258.1 198.35 258.7 200.25 252.15 199.65 258.7 200.25 259.2 201.9 268.0 203.85 272.15 202.15 277.4 202.7 272.15 202.15 275.15 200.95 275.15 198.65 279.05 198.2 275.15 198.65 275.2 196.2 291.05 195.4 M240.1 205.35 L245.5 207.0 251.05 208.25 248.9 213.0 248.4 214.0 249.0 215.8 250.4 219.95 245.5 218.85 Q233.45 215.75 233.3 211.4 230.55 205.6 233.3 199.55 233.4 202.8 240.1 205.35 M274.9 210.15 L274.95 210.15 280.3 210.1 288.4 209.6 291.0 215.15 296.05 214.85 295.65 218.25 296.05 214.85 297.8 214.75 300.3 214.6 304.3 212.65 Q304.0 216.45 301.7 219.5 293.35 221.3 282.95 221.8 L283.55 218.45 281.65 216.65 285.75 215.0 281.65 216.65 279.6 214.7 274.9 210.15 M256.5 198.0 L258.1 198.35 256.5 198.0 M298.15 217.8 L297.8 214.75 298.15 217.8 M285.2 211.7 L279.6 214.7 285.2 211.7 M246.9 198.15 L245.85 197.4 243.65 195.9 242.0 198.75 241.0 200.45 243.3 202.45 248.05 202.6 248.55 199.3 246.9 198.15 247.45 196.6 246.9 198.15 M239.6 197.4 L242.0 198.75 239.6 197.4 M246.4 195.95 L245.85 197.4 246.4 195.95 M243.4 211.2 L248.9 213.0 243.4 211.2 M242.95 214.75 L249.0 215.8 242.95 214.75" fill="#98734e" fill-rule="evenodd" stroke="none"/>
    <path d="M309.8 191.4 Q316.5 188.85 316.6 185.6 319.4 191.1 316.6 197.4 L316.45 198.4 Q315.25 201.75 306.65 204.3 L304.4 204.9 303.65 205.1 Q307.8 198.95 305.35 192.8 L306.65 192.45 309.8 191.4 M301.7 219.5 Q304.0 216.45 304.3 212.65 L310.25 209.15 309.05 205.6 309.8 205.35 Q316.5 202.8 316.6 199.55 319.4 205.05 316.6 211.35 316.45 215.75 304.4 218.85 L301.7 219.5" fill="#806142" fill-rule="evenodd" stroke="none"/>
    <path d="M303.35 207.3 L304.4 207.0 309.05 205.6 310.25 209.15 304.3 212.65 Q305.25 209.3 303.35 207.3" fill="#886037" fill-rule="evenodd" stroke="none"/>
    <path d="M261.1 179.8 L256.2 180.75 Q256.2 182.5 256.5 184.1 L264.4 181.8 M253.05 181.45 L256.2 180.75 Q256.2 178.45 256.65 175.85 M254.9 184.55 L256.5 184.1 Q256.8 186.0 257.65 187.55 M288.15 192.7 L291.35 192.8 291.55 191.4 288.5 190.9 M293.1 192.8 L291.35 192.8 291.05 195.4 M291.75 189.6 L291.55 191.4 293.4 191.65" fill="none" stroke="#4e3a27" stroke-linecap="round" stroke-linejoin="round" stroke-width="0.05"/>
    <path d="M257.15 195.2 L258.1 198.35 259.25 198.55 M272.15 202.15 L277.4 202.7 M272.15 202.15 L275.15 200.95 275.15 198.65 273.55 198.8 M309.05 205.6 L308.85 205.0 308.7 204.95 M275.15 198.65 L279.05 198.2 M275.2 196.2 L275.15 198.65 M258.7 200.25 L252.15 199.65 M258.7 200.25 L258.1 198.35 256.5 198.0 M259.8 200.35 L258.7 200.25 259.2 201.9 268.0 203.85 272.15 202.15 270.9 202.0 M281.65 216.65 L285.75 215.0 M304.3 212.65 L300.3 214.6 297.8 214.75 298.15 217.8 M288.4 209.6 L291.0 215.15 296.05 214.85 296.25 212.7 M279.6 214.7 L285.2 211.7 M309.05 205.6 L310.25 209.15 304.3 212.65 M296.05 214.85 L295.65 218.25 M296.05 214.85 L297.8 214.75 297.55 212.7 M246.5 199.25 L246.9 198.15 245.85 197.4 245.25 198.9 M246.9 198.15 L248.55 199.3 248.05 202.6 243.3 202.45 241.0 200.45 242.0 198.75 239.6 197.4 M242.45 199.1 L242.0 198.75 243.65 195.9 245.85 197.4 246.4 195.95 M246.9 198.15 L247.45 196.6 M248.9 213.0 L243.4 211.2 M249.0 215.8 L242.95 214.75" fill="none" stroke="#6f5439" stroke-linecap="round" stroke-linejoin="round" stroke-width="0.05"/>
    <path d="M281.65 216.65 L283.55 218.45 282.95 221.8 M278.4 215.3 L279.6 214.7 274.9 210.15 M278.55 217.85 L281.65 216.65 279.6 214.7 M250.15 213.4 L248.9 213.0 248.4 214.0 249.0 215.8 250.25 216.0 M249.0 215.8 L250.4 219.95 M248.9 213.0 L251.05 208.25" fill="none" stroke="#6f5439" stroke-linecap="round" stroke-linejoin="round" stroke-width="0.05"/>
    <path d="M257.65 187.55 L274.95 186.6 Q292.2 186.6 304.4 189.7 L305.7 190.05 309.8 191.4 Q316.5 188.85 316.6 185.6 M291.05 195.4 Q298.35 194.6 304.4 193.05 L305.35 192.8 306.65 192.45 305.45 192.15 304.4 191.85 Q298.65 190.4 291.75 189.6 L274.95 188.75 257.9 189.65 Q251.15 190.4 245.5 191.85 L243.3 192.45 240.1 191.4 Q233.4 188.85 233.3 185.6 M275.2 196.2 L274.95 196.2 261.45 195.65 257.15 195.2 Q250.85 194.45 245.5 193.05 L243.3 192.45 M303.65 205.1 Q293.65 207.55 280.3 207.95 L274.95 208.05 267.1 207.85 Q258.85 207.45 251.95 206.25 L245.5 204.9 243.3 204.3 240.1 205.35 245.5 207.0 251.05 208.25 256.15 209.05 274.9 210.15 274.95 210.15 280.3 210.1 288.4 209.6 Q296.6 208.9 303.35 207.3 L304.4 207.0 309.05 205.6 309.8 205.35 Q316.5 202.8 316.6 199.55 L316.6 199.35 316.45 198.4 Q315.25 201.75 306.65 204.3 L304.4 204.9 303.65 205.1 M308.7 204.95 L306.65 204.3 M291.05 195.4 L275.2 196.2 M256.7 187.65 L257.65 187.55 M233.3 199.55 L233.3 199.35 233.5 198.4 Q234.65 201.75 243.3 204.3 M309.8 191.4 L306.65 192.45 M308.85 205.0 L309.8 205.35 M256.7 187.65 Q250.65 188.4 245.5 189.7 242.4 190.5 240.1 191.4 M240.1 205.35 Q233.4 202.8 233.3 199.55" fill="none" stroke="#000000" stroke-linecap="round" stroke-linejoin="round" stroke-opacity="0.6" stroke-width="0.05"/>
    <path d="M256.65 175.85 L250.3 176.85 245.5 177.9 Q233.45 181.0 233.3 185.4 L233.3 185.6 Q230.55 191.65 233.3 197.45 L233.5 198.4 M316.6 185.6 L316.6 185.45 Q316.5 181.0 304.4 177.9 292.2 174.8 274.95 174.8 L256.65 175.85 M282.95 221.8 Q293.35 221.3 301.7 219.5 L304.4 218.85 Q316.45 215.75 316.6 211.35 319.4 205.05 316.6 199.55 M282.95 221.8 L280.3 221.9 274.95 222.0 256.15 220.85 250.4 219.95 245.5 218.85 Q233.45 215.75 233.3 211.4 230.55 205.6 233.3 199.55 M316.6 185.6 Q319.4 191.1 316.6 197.4 L316.45 198.4" fill="none" stroke="#000000" stroke-linecap="round" stroke-linejoin="round" stroke-opacity="0.6" stroke-width="0.6000000000000001"/>
    <path d="M270.45 205.3 L270.45 208.0 270.4 208.0 270.4 210.05 267.95 206.4 268.0 206.4 270.45 205.3 M261.65 221.4 L256.75 220.85 253.5 220.4 253.5 202.95 261.65 204.2 261.65 221.4" fill="#dab465" fill-rule="evenodd" stroke="none"/>
    <path d="M253.5 202.95 L253.5 194.75 255.75 195.1 261.65 195.7 270.45 196.15 270.45 205.3 268.0 206.4 267.95 206.4 270.4 210.05 270.4 210.1 270.45 210.1 270.45 221.9 261.65 221.4 261.65 204.2 253.5 202.95" fill="#c59530" fill-rule="evenodd" stroke="none"/>
    <path d="M270.45 221.9 L261.65 221.4 256.75 220.85 253.5 220.4" fill="none" stroke="#000000" stroke-linecap="round" stroke-linejoin="round" stroke-opacity="0.6" stroke-width="0.6000000000000001"/>
    <path d="M253.5 202.95 L253.5 194.75 255.75 195.1 261.65 195.7 270.45 196.15 M253.5 220.4 L253.5 202.95" fill="none" stroke="#efdfbe" stroke-linecap="round" stroke-linejoin="round" stroke-width="0.6000000000000001"/>
    <path d="M270.45 196.15 L270.45 205.3 270.45 208.0 270.4 208.0 270.4 210.05 270.4 210.1 270.45 210.1 270.45 221.9" fill="none" stroke="#000000" stroke-linecap="round" stroke-linejoin="round" stroke-opacity="0.6" stroke-width="0.6000000000000001"/>
    <path d="M261.0 225.85 L254.5 217.5 260.0 217.15 260.1 217.15 261.0 225.85" fill="#f7de95" fill-rule="evenodd" stroke="none"/>
    <path d="M262.95 190.95 L262.95 193.55 257.2 193.0 257.2 192.3 Q259.95 188.8 262.75 190.8 L262.95 190.95 M254.5 217.5 L254.45 217.45 256.6 201.5 260.55 202.0 260.0 217.15 254.5 217.5" fill="#fbeec6" fill-rule="evenodd" stroke="none"/>
    <path d="M265.7 202.7 L268.0 218.95 260.1 217.15 260.0 217.15 260.55 202.0 265.7 202.7" fill="#c68c40" fill-rule="evenodd" stroke="none"/>
    <path d="M257.2 194.2 L264.9 195.05 268.5 195.45 268.5 198.85 252.85 197.3 252.85 193.7 257.2 194.2 M268.0 218.95 L261.15 226.1 261.0 225.85 260.1 217.15 268.0 218.95" fill="#dab465" fill-rule="evenodd" stroke="none"/>
    <path d="M265.3 200.05 L265.7 202.7 260.55 202.0 260.65 199.55 265.3 200.05" fill="#9b6d2f" fill-rule="evenodd" stroke="none"/>
    <path d="M257.2 193.0 L262.95 193.55 262.95 190.95 Q263.95 191.7 264.9 193.15 L264.9 195.05 257.2 194.2 257.2 193.0 M256.6 201.5 L256.95 199.15 260.65 199.55 260.55 202.0 256.6 201.5" fill="#f5d676" fill-rule="evenodd" stroke="none"/>
    <path d="M268.5 195.45 L270.2 195.65 270.2 200.65 265.3 200.05 260.65 199.55 256.95 199.15 252.85 198.7 252.85 197.3 268.5 198.85 268.5 195.45" fill="#bc8d2e" fill-rule="evenodd" stroke="none"/>
    <path d="M261.15 226.1 L261.0 225.85 M260.1 217.15 L260.0 217.15" fill="none" stroke="#000000" stroke-linecap="round" stroke-linejoin="round" stroke-opacity="0.6" stroke-width="0.05"/>
    <path d="M257.2 194.2 L264.9 195.05 M260.65 199.55 L256.95 199.15 M260.65 199.55 L265.3 200.05" fill="none" stroke="#000000" stroke-linecap="round" stroke-linejoin="round" stroke-opacity="0.6" stroke-width="0.05"/>
    <path d="M257.2 193.0 L257.2 194.2 252.85 193.7 252.85 197.3 252.85 198.7 256.95 199.15 256.6 201.5 254.45 217.45 254.5 217.5 261.0 225.85 M264.9 195.05 L264.9 193.15 Q263.95 191.7 262.95 190.95 M262.75 190.8 Q259.95 188.8 257.2 192.3 L257.2 193.0 M268.5 195.45 L270.2 195.65 270.2 200.65 265.3 200.05 265.7 202.7 268.0 218.95 261.15 226.1 M264.9 195.05 L268.5 195.45" fill="none" stroke="#000000" stroke-linecap="round" stroke-linejoin="round" stroke-opacity="0.6" stroke-width="0.6000000000000001"/>
  </g>
</svg>
