<?xml version="1.0" encoding="UTF-8" standalone="no"?>
<svg xmlns:xlink="http://www.w3.org/1999/xlink" height="100.95px" width="160.8px" xmlns="http://www.w3.org/2000/svg">
  <g transform="matrix(1.0, 0.0, 0.0, 1.0, 80.35, 50.5)">
    <path d="M2.4 -42.05 Q36.55 -51.0 40.4 -38.3 84.55 -30.5 77.4 -8.7 85.85 3.55 70.8 17.9 69.7 15.15 67.65 11.95 64.9 0.8 52.15 3.75 L53.7 -0.8 Q57.0 -13.85 44.1 -21.2 31.45 -39.35 7.2 -30.25 1.75 -32.25 -3.4 -33.4 -6.7 -40.85 2.4 -42.05 M77.4 -8.7 Q75.65 -11.25 73.0 -13.7 75.65 -11.25 77.4 -8.7" fill="#cc0000" fill-rule="evenodd" stroke="none"/>
    <path d="M-3.4 -33.4 Q1.75 -32.25 7.2 -30.25 31.45 -39.35 44.1 -21.2 57.0 -13.85 53.7 -0.8 46.3 -16.35 19.55 -16.4 11.35 -13.1 -4.6 -16.05 -10.05 -27.75 -3.4 -33.4" fill="#a60000" fill-rule="evenodd" stroke="none"/>
    <path d="M70.8 17.9 Q76.7 33.25 51.6 33.85 48.55 45.35 27.6 39.9 L21.7 38.15 Q5.1 43.6 4.55 31.2 -18.65 40.7 -29.65 23.75 -45.3 23.55 -53.05 20.85 -63.3 17.25 -59.6 9.25 -59.0 -1.55 -50.0 0.2 -48.95 20.75 -2.95 13.55 37.0 19.55 48.95 9.8 50.9 6.65 52.15 3.75 64.9 0.8 67.65 11.95 69.7 15.15 70.8 17.9 M47.85 33.85 L51.6 33.85 47.85 33.85" fill="#acc840" fill-rule="evenodd" stroke="none"/>
    <path d="M27.6 39.9 Q8.35 58.1 -14.65 44.9 -34.45 53.6 -52.95 41.25 L-53.2 41.3 Q-57.95 42.35 -61.75 41.9 -66.25 25.45 -53.05 20.85 -45.3 23.55 -29.65 23.75 -18.65 40.7 4.55 31.2 5.1 43.6 21.7 38.15 L27.6 39.9 M-7.75 41.25 Q-11.2 43.4 -14.65 44.9 -11.2 43.4 -7.75 41.25 M-43.55 38.15 Q-48.65 40.3 -52.95 41.25 -48.65 40.3 -43.55 38.15" fill="#7a8e28" fill-rule="evenodd" stroke="none"/>
    <path d="M-74.7 -6.0 Q-83.85 -23.05 -60.7 -33.5 -42.85 -54.25 -29.2 -41.45 -15.55 -59.2 2.4 -42.05 -6.7 -40.85 -3.4 -33.4 -25.8 -38.45 -41.95 -27.05 -54.3 -24.75 -51.75 -6.6 -51.35 -3.45 -50.0 0.2 -59.0 -1.55 -59.6 9.25 -79.65 -1.95 -63.4 -7.0 -63.25 -12.75 -74.7 -6.0 M-52.15 -31.9 Q-51.5 -33.0 -60.7 -33.5 -51.5 -33.0 -52.15 -31.9" fill="#ffcc00" fill-rule="evenodd" stroke="none"/>
    <path d="M-61.75 41.9 Q-74.3 37.5 -73.95 21.75 -86.4 5.8 -74.7 -6.0 -63.25 -12.75 -63.4 -7.0 -79.65 -1.95 -59.6 9.25 -63.3 17.25 -53.05 20.85 -66.25 25.45 -61.75 41.9 M-4.6 -16.05 Q-10.45 -17.1 -17.35 -19.05 -40.1 -20.2 -51.75 -6.6 -54.3 -24.75 -41.95 -27.05 -25.8 -38.45 -3.4 -33.4 -10.05 -27.75 -4.6 -16.05 M-70.3 11.45 Q-75.05 15.7 -73.95 21.75 -75.05 15.7 -70.3 11.45" fill="#d7ac00" fill-rule="evenodd" stroke="none"/>
    <path d="M2.4 -42.05 Q36.55 -51.0 40.4 -38.3 84.55 -30.5 77.4 -8.7 85.85 3.55 70.8 17.9 76.7 33.25 51.6 33.85 48.55 45.35 27.6 39.9 8.35 58.1 -14.65 44.9 -34.45 53.6 -52.95 41.25 L-53.2 41.3 Q-57.95 42.35 -61.75 41.9 -74.3 37.5 -73.95 21.75 -86.4 5.8 -74.7 -6.0 -83.85 -23.05 -60.7 -33.5 -42.85 -54.25 -29.2 -41.45 -15.55 -59.2 2.4 -42.05 M53.7 -0.8 L52.15 3.75 Q64.9 0.8 67.65 11.95 69.7 15.15 70.8 17.9 M73.0 -13.7 Q75.65 -11.25 77.4 -8.7 M51.6 33.85 L47.85 33.85 M-50.0 0.2 Q-48.95 20.75 -2.95 13.55 37.0 19.55 48.95 9.8 50.9 6.65 52.15 3.75 M27.6 39.9 L21.7 38.15 M53.7 -0.8 Q46.3 -16.35 19.55 -16.4 11.35 -13.1 -4.6 -16.05 -10.45 -17.1 -17.35 -19.05 -40.1 -20.2 -51.75 -6.6 -51.35 -3.45 -50.0 0.2 M-60.7 -33.5 Q-51.5 -33.0 -52.15 -31.9 M-73.95 21.75 Q-75.05 15.7 -70.3 11.45 M-52.95 41.25 Q-48.65 40.3 -43.55 38.15 M-14.65 44.9 Q-11.2 43.4 -7.75 41.25" fill="none" stroke="#000000" stroke-linecap="round" stroke-linejoin="round" stroke-opacity="0.56078434" stroke-width="0.05"/>
  </g>
</svg>
