<?xml version="1.0" encoding="UTF-8" standalone="no"?>
<svg xmlns:xlink="http://www.w3.org/1999/xlink" height="129.85px" width="128.3px" xmlns="http://www.w3.org/2000/svg">
  <g transform="matrix(1.0, 0.0, 0.0, 1.0, -187.3, -87.35)">
    <path d="M232.25 123.05 L227.9 123.2 232.0 123.95 231.9 124.25 232.0 123.95 235.7 124.6 231.9 124.25 225.75 123.7 223.5 121.95 217.9 126.35 Q214.2 127.45 210.55 130.25 L206.75 133.55 203.65 136.85 194.2 151.1 193.65 149.5 194.7 142.15 196.3 136.85 201.55 124.75 210.5 114.25 217.9 107.9 218.95 110.0 232.25 123.05 M234.9 125.95 L235.05 125.8 235.35 126.1 234.9 125.95 M270.0 132.65 L276.85 122.65 288.45 110.0 292.65 114.25 295.8 115.3 290.0 121.1 Q279.95 137.65 297.9 154.25 L309.0 163.45 Q307.55 171.6 303.95 179.0 303.2 184.25 299.85 195.45 L299.75 195.45 299.85 195.5 299.15 197.7 288.55 217.2 295.85 191.95 296.1 192.15 296.35 192.55 296.4 192.35 296.6 191.75 296.6 191.85 296.6 191.7 296.6 191.65 296.55 191.5 296.35 190.3 294.75 181.65 291.05 171.65 Q291.8 160.45 291.75 157.7 291.7 154.9 289.05 159.85 288.35 154.25 285.3 147.4 L278.55 140.35 277.65 136.2 275.55 137.95 270.0 132.65" fill="#ded5a5" fill-rule="evenodd" stroke="none"/>
    <path d="M246.05 95.0 L245.5 95.55 Q243.65 97.4 243.7 100.0 243.65 103.15 246.3 105.3 248.95 107.4 252.65 107.4 256.3 107.4 258.95 105.3 L259.5 104.75 259.75 104.5 Q261.55 102.65 261.6 100.0 L261.45 98.55 261.6 97.8 Q261.6 96.65 260.2 95.8 L257.2 95.0 Q257.8 94.9 255.15 94.35 L258.95 94.75 Q256.3 92.6 252.65 92.65 248.95 92.6 246.3 94.75 L246.05 95.0 M232.25 123.05 L218.95 110.0 217.9 107.9 Q234.45 87.45 247.1 87.35 259.8 87.25 268.95 100.0 L278.45 103.7 288.45 110.0 276.85 122.65 270.0 132.65 269.5 132.65 Q262.5 127.6 255.2 125.0 250.3 123.3 245.25 122.65 L232.25 123.05 M282.65 202.15 L291.9 188.25 292.15 188.5 Q292.8 188.55 295.55 191.1 L295.3 191.4 292.15 188.5 295.3 191.4 292.65 194.25 282.65 202.15 M306.95 123.8 L308.2 123.9 Q306.7 122.1 304.75 122.15 302.65 122.1 301.1 124.25 L300.3 125.55 Q299.5 127.3 299.5 129.5 299.5 132.65 301.1 134.75 302.65 136.85 304.75 136.85 306.85 136.85 308.45 134.75 L309.5 132.9 309.6 132.6 Q309.1 132.45 308.55 132.1 L308.1 131.8 308.5 131.65 Q309.5 131.1 309.65 129.5 309.7 127.85 308.8 126.1 308.0 124.65 306.95 123.8 M309.0 163.45 L297.9 154.25 Q279.95 137.65 290.0 121.1 L295.8 115.3 297.65 115.8 Q317.9 122.7 315.3 136.1 314.15 141.55 311.9 146.35 L309.5 154.25 309.5 156.6 309.0 163.45 M291.05 171.65 L294.75 181.65 Q293.45 179.0 291.05 175.3 L291.05 171.65" fill="#7c6a2e" fill-rule="evenodd" stroke="none"/>
    <path d="M193.65 149.5 L194.2 151.1 203.65 136.85 206.75 133.55 210.55 130.25 209.0 133.0 204.25 141.55 205.9 142.2 202.6 145.85 Q201.15 147.5 199.95 149.5 L199.9 149.65 199.2 150.85 Q197.6 153.6 196.55 156.9 L195.5 160.05 Q194.45 158.75 199.2 150.85 193.5 159.5 194.45 162.15 L194.2 162.4 Q192.1 162.4 189.45 165.55 185.4 170.35 188.9 162.7 192.45 155.05 193.4 151.1 193.45 150.25 193.65 149.5 M209.0 133.0 L206.75 133.55 209.0 133.0 M230.75 128.1 L230.8 128.05 230.75 128.1 M269.5 132.65 L270.0 132.65 275.55 137.95 277.65 136.2 278.55 140.35 278.15 140.95 277.65 136.2 278.15 140.95 278.55 140.35 285.3 147.4 Q288.35 154.25 289.05 159.85 291.7 154.9 291.75 157.7 291.8 160.45 291.05 171.65 L291.05 175.3 295.95 189.7 284.25 172.7 284.25 170.6 284.15 169.0 287.25 162.0 287.45 161.55 Q286.3 151.75 278.15 140.95 L277.15 142.25 267.85 133.95 269.5 132.65 M230.8 128.05 L232.05 125.75 232.05 127.35 230.8 128.05 M289.05 159.85 L287.25 162.0 289.05 159.85" fill="#ff9999" fill-rule="evenodd" stroke="none"/>
    <path d="M227.9 123.2 L232.25 123.05 232.0 123.95 232.25 123.05 245.25 122.65 Q250.3 123.3 255.2 125.0 262.5 127.6 269.5 132.65 L267.85 133.95 264.4 131.75 255.2 128.45 252.6 129.4 Q247.85 127.85 242.65 127.4 L232.6 127.9 233.05 127.55 234.85 126.0 234.9 125.95 235.35 126.1 235.05 125.8 236.35 124.7 234.45 125.9 232.2 127.25 232.05 127.35 232.05 125.75 231.65 125.2 231.9 124.25 235.7 124.6 232.0 123.95 227.9 123.2 M234.65 127.15 L233.05 127.55 234.65 127.15" fill="#fe4343" fill-rule="evenodd" stroke="none"/>
    <path d="M291.6 187.95 L288.15 184.25 291.4 187.5 285.3 175.0 Q281.7 194.05 271.6 201.1 L252.9 205.05 272.65 185.3 228.95 200.6 227.6 200.05 249.75 172.4 249.45 172.15 250.0 172.15 249.75 172.4 250.0 172.15 267.4 175.85 272.1 175.85 278.2 174.25 282.3 173.2 281.05 175.95 278.2 174.25 281.05 175.95 282.3 173.2 284.25 172.7 295.95 189.7 296.35 190.3 296.1 190.6 296.2 190.8 295.9 191.8 295.55 191.1 295.9 191.8 296.2 190.8 296.4 191.2 296.6 191.75 296.4 192.35 296.35 192.55 296.1 192.15 295.85 191.95 295.3 191.4 295.55 191.1 Q292.8 188.55 292.15 188.5 L291.9 188.25 291.6 187.95 291.4 187.5 291.6 187.95 M296.55 191.5 L296.6 191.65 296.6 191.7 296.55 191.5 M296.4 192.35 L296.1 192.15 295.9 191.8 295.85 191.95 295.9 191.8 296.1 192.15 296.4 192.35" fill="#5c4a23" fill-rule="evenodd" stroke="none"/>
    <path d="M252.9 205.05 L251.6 206.4 245.25 205.6 241.3 204.8 238.4 204.3 Q232.2 202.75 228.95 200.6 L272.65 185.3 252.9 205.05 245.25 205.6 252.9 205.05" fill="#9e7041" fill-rule="evenodd" stroke="none"/>
    <path d="M199.9 149.65 Q199.6 150.05 199.45 150.55 L199.2 150.85 199.9 149.65 M196.55 156.9 L205.5 182.4 Q207.5 185.4 210.0 187.7 219.65 196.65 227.6 200.05 L228.95 200.6 Q232.2 202.75 238.4 204.3 L241.3 204.8 245.25 205.6 251.6 206.4 252.9 205.05 271.6 201.1 Q281.7 194.05 285.3 175.0 L291.4 187.5 288.15 184.25 291.6 187.95 291.65 188.05 291.9 188.25 291.65 188.05 291.6 187.95 291.9 188.25 282.65 202.15 281.6 203.2 266.85 209.55 251.6 211.1 245.8 210.6 227.35 205.85 224.45 204.0 223.95 203.75 216.8 199.55 211.05 194.8 210.5 194.25 Q206.95 190.05 203.65 184.55 L194.45 162.4 194.2 162.4 194.45 162.15 Q193.5 159.5 199.2 150.85 194.45 158.75 195.5 160.05 L196.55 156.9 M194.45 162.15 L194.45 162.4 194.45 162.15 M203.65 184.55 L205.5 182.4 203.65 184.55 M294.75 181.65 L296.35 190.3 296.55 191.5 296.6 191.7 296.6 191.85 296.6 191.75 296.6 191.7 296.6 191.75 296.4 191.2 296.25 190.65 296.35 190.3 295.95 189.7 291.05 175.3 Q293.45 179.0 294.75 181.65 M296.4 191.2 L296.55 191.5 296.4 191.2" fill="#a80202" fill-rule="evenodd" stroke="none"/>
    <path d="M205.9 142.2 L219.45 143.15 224.0 147.85 226.1 138.55 228.15 154.45 229.2 155.85 205.5 182.4 196.55 156.9 Q197.6 153.6 199.2 150.85 L199.45 150.55 Q199.6 150.05 199.9 149.65 L199.95 149.5 Q201.15 147.5 202.6 145.85 L205.9 142.2 M224.0 147.85 Q225.7 151.5 228.15 154.45 225.7 151.5 224.0 147.85" fill="#45351b" fill-rule="evenodd" stroke="none"/>
    <path d="M205.5 182.4 L229.2 155.85 Q231.7 159.3 234.75 162.15 L235.8 163.75 249.45 172.15 249.75 172.4 227.6 200.05 Q219.65 196.65 210.0 187.7 207.5 185.4 205.5 182.4" fill="#5f4825" fill-rule="evenodd" stroke="none"/>
    <path d="M246.05 95.0 L246.3 94.75 Q248.95 92.6 252.65 92.65 256.3 92.6 258.95 94.75 L255.15 94.35 Q257.8 94.9 257.2 95.0 L256.8 95.0 Q254.8 95.0 253.4 95.8 252.0 96.65 252.0 97.8 252.0 98.95 253.4 99.75 254.8 100.6 256.8 100.6 258.8 100.6 260.2 99.75 261.1 99.25 261.45 98.55 L261.6 100.0 Q261.55 102.65 259.75 104.5 L259.5 104.75 Q242.25 104.1 246.05 95.0 M255.15 94.35 L253.8 94.1 255.15 94.35 M306.95 123.8 L306.5 123.45 305.8 123.1 304.1 123.15 Q303.05 123.65 303.0 125.3 302.9 126.9 303.8 128.7 304.7 130.45 306.15 131.3 L307.2 131.8 308.1 131.8 308.55 132.1 Q309.1 132.45 309.6 132.6 L309.5 132.9 Q300.05 135.0 300.3 125.55 L301.1 124.25 Q302.65 122.1 304.75 122.15 306.7 122.1 308.2 123.9 L306.95 123.8" fill="#fdfcfb" fill-rule="evenodd" stroke="none"/>
    <path d="M259.5 104.75 L258.95 105.3 Q256.3 107.4 252.65 107.4 248.95 107.4 246.3 105.3 243.65 103.15 243.7 100.0 243.65 97.4 245.5 95.55 L246.05 95.0 Q242.25 104.1 259.5 104.75 M300.3 125.55 Q300.05 135.0 309.5 132.9 L308.45 134.75 Q306.85 136.85 304.75 136.85 302.65 136.85 301.1 134.75 299.5 132.65 299.5 129.5 299.5 127.3 300.3 125.55" fill="#ebe0c9" fill-rule="evenodd" stroke="none"/>
    <path d="M257.2 95.0 L260.2 95.8 Q261.6 96.65 261.6 97.8 L261.45 98.55 Q261.1 99.25 260.2 99.75 258.8 100.6 256.8 100.6 254.8 100.6 253.4 99.75 252.0 98.95 252.0 97.8 252.0 96.65 253.4 95.8 254.8 95.0 256.8 95.0 L257.2 95.0 M308.1 131.8 L307.2 131.8 306.15 131.3 Q304.7 130.45 303.8 128.7 302.9 126.9 303.0 125.3 303.05 123.65 304.1 123.15 L305.8 123.1 306.5 123.45 306.95 123.8 Q308.0 124.65 308.8 126.1 309.7 127.85 309.65 129.5 309.5 131.1 308.5 131.65 L308.1 131.8" fill="#302612" fill-rule="evenodd" stroke="none"/>
    <path d="M205.9 142.2 L204.25 141.55 209.0 133.0 Q219.9 126.8 230.8 128.05 L230.75 128.1 226.15 138.5 230.75 128.1 230.8 128.05 232.45 127.65 230.8 128.05 232.05 127.35 232.2 127.25 232.45 127.65 232.6 127.9 242.65 127.4 Q247.85 127.85 252.6 129.4 L255.2 128.45 264.4 131.75 267.85 133.95 277.15 142.25 274.95 145.3 271.1 154.95 274.95 145.3 277.15 142.25 278.15 140.95 Q286.3 151.75 287.45 161.55 L287.25 162.0 284.15 169.0 282.3 173.2 278.2 174.25 267.45 163.95 271.1 154.95 246.65 140.75 246.15 140.45 242.65 146.35 226.15 138.5 226.1 138.55 224.0 147.85 219.45 143.15 205.9 142.2 M252.6 129.4 L246.15 140.45 252.6 129.4" fill="#f4ece3" fill-rule="evenodd" stroke="none"/>
    <path d="M210.55 130.25 Q214.2 127.45 217.9 126.35 L223.5 121.95 225.75 123.7 231.9 124.25 231.65 125.2 232.05 125.75 230.8 128.05 Q219.9 126.8 209.0 133.0 L210.55 130.25" fill="#cc0d1c" fill-rule="evenodd" stroke="none"/>
    <path d="M259.5 104.75 L258.95 105.3 Q256.3 107.4 252.65 107.4 248.95 107.4 246.3 105.3 243.65 103.15 243.7 100.0 243.65 97.4 245.5 95.55 L246.05 95.0 246.3 94.75 Q248.95 92.6 252.65 92.65 256.3 92.6 258.95 94.75 L255.15 94.35 253.8 94.1 M261.45 98.55 L261.6 100.0 Q261.55 102.65 259.75 104.5 L259.5 104.75 Q242.25 104.1 246.05 95.0 M227.9 123.2 L232.25 123.05 245.25 122.65 Q250.3 123.3 255.2 125.0 262.5 127.6 269.5 132.65 M217.9 107.9 L210.5 114.25 201.55 124.75 196.3 136.85 194.7 142.15 193.65 149.5 194.2 151.1 203.65 136.85 206.75 133.55 210.55 130.25 Q214.2 127.45 217.9 126.35 L223.5 121.95 225.75 123.7 231.9 124.25 232.0 123.95 232.25 123.05 M206.75 133.55 L209.0 133.0 210.55 130.25 M209.0 133.0 L204.25 141.55 205.9 142.2 219.45 143.15 224.0 147.85 226.1 138.55 226.15 138.5 230.75 128.1 230.8 128.05 Q219.9 126.8 209.0 133.0 M205.9 142.2 L202.6 145.85 Q201.15 147.5 199.95 149.5 L199.9 149.65 Q199.6 150.05 199.45 150.55 L199.2 150.85 Q197.6 153.6 196.55 156.9 L205.5 182.4 229.2 155.85 228.15 154.45 Q225.7 151.5 224.0 147.85 M234.45 125.9 L234.85 126.0 234.9 125.95 235.05 125.8 236.35 124.7 M232.45 127.65 L233.05 127.55 234.65 127.15 M232.05 125.75 L231.65 125.2 231.9 124.25 M288.45 110.0 L278.45 103.7 268.95 100.0 Q259.8 87.25 247.1 87.35 234.45 87.45 217.9 107.9 M230.75 128.1 L230.8 128.05 232.05 125.75 M232.05 127.35 L232.2 127.25 M232.45 127.65 L230.8 128.05 232.05 127.35 M233.05 127.55 L232.6 127.9 242.65 127.4 Q247.85 127.85 252.6 129.4 L255.2 128.45 264.4 131.75 267.85 133.95 277.15 142.25 274.95 145.3 271.1 154.95 267.45 163.95 278.2 174.25 282.3 173.2 284.15 169.0 284.25 170.6 284.25 172.7 295.95 189.7 296.35 190.3 296.55 191.5 296.6 191.65 296.6 191.7 296.6 191.85 M226.15 138.5 L242.65 146.35 246.15 140.45 252.6 129.4 M199.9 149.65 L199.2 150.85 Q193.5 159.5 194.45 162.15 L194.45 162.4 M189.45 165.55 Q185.4 170.35 188.9 162.7 192.45 155.05 193.4 151.1 M227.6 200.05 Q219.65 196.65 210.0 187.7 207.5 185.4 205.5 182.4 L203.65 184.55 Q206.95 190.05 210.5 194.25 L211.05 194.8 216.8 199.55 223.95 203.75 224.45 204.0 227.35 205.85 245.8 210.6 251.6 211.1 266.85 209.55 281.6 203.2 282.65 202.15 292.65 194.25 295.3 191.4 295.85 191.95 295.9 191.8 296.1 192.15 296.4 192.35 296.35 192.55 296.1 192.15 295.85 191.95 288.55 217.2 299.15 197.7 299.85 195.5 299.85 195.45 Q303.2 184.25 303.95 179.0 307.55 171.6 309.0 163.45 L309.5 156.6 309.5 154.25 311.9 146.35 Q314.15 141.55 315.3 136.1 317.9 122.7 297.65 115.8 L295.8 115.3 292.65 114.25 288.45 110.0 M291.9 188.25 L291.65 188.05 291.6 187.95 291.4 187.5 285.3 175.0 Q281.7 194.05 271.6 201.1 L252.9 205.05 251.6 206.4 245.25 205.6 241.3 204.8 238.4 204.3 Q232.2 202.75 228.95 200.6 L227.6 200.05 249.75 172.4 250.0 172.15 249.45 172.15 235.8 163.75 234.75 162.15 Q231.7 159.3 229.2 155.85 M228.15 154.45 L226.1 138.55 M308.2 123.9 Q306.7 122.1 304.75 122.15 302.65 122.1 301.1 124.25 L300.3 125.55 Q300.05 135.0 309.5 132.9 L309.6 132.6 M295.8 115.3 L290.0 121.1 Q279.95 137.65 297.9 154.25 L309.0 163.45 M309.5 132.9 L308.45 134.75 Q306.85 136.85 304.75 136.85 302.65 136.85 301.1 134.75 299.5 132.65 299.5 129.5 299.5 127.3 300.3 125.55 M246.65 140.75 L271.1 154.95 M284.15 169.0 L287.25 162.0 287.45 161.55 Q286.3 151.75 278.15 140.95 L277.15 142.25 M277.65 136.2 L278.15 140.95 278.55 140.35 285.3 147.4 Q288.35 154.25 289.05 159.85 291.7 154.9 291.75 157.7 291.8 160.45 291.05 171.65 L294.75 181.65 296.35 190.3 296.1 190.6 296.2 190.8 296.25 190.65 296.35 190.3 M296.6 191.75 L296.4 192.35 M277.65 136.2 L275.55 137.95 270.0 132.65 M278.2 174.25 L281.05 175.95 282.3 173.2 284.25 172.7 M278.2 174.25 L272.1 175.85 267.4 175.85 250.0 172.15 M287.25 162.0 L289.05 159.85 M291.9 188.25 L292.15 188.5 295.3 191.4 295.55 191.1 295.9 191.8 296.2 190.8 296.4 191.2 296.55 191.5 296.6 191.7 296.6 191.75 M245.25 205.6 L252.9 205.05 272.65 185.3 228.95 200.6" fill="none" stroke="#33444a" stroke-linecap="round" stroke-linejoin="round" stroke-opacity="0.6313726" stroke-width="0.05"/>
  </g>
</svg>
