<?xml version="1.0" encoding="UTF-8" standalone="no"?>
<svg xmlns:xlink="http://www.w3.org/1999/xlink" height="20.4px" width="21.3px" xmlns="http://www.w3.org/2000/svg">
  <g transform="matrix(1.0, 0.0, 0.0, 1.0, -264.3, -189.75)">
    <path d="M278.85 199.2 L282.95 200.95 285.5 204.8 284.0 207.1 283.55 206.85 282.75 206.3 282.75 206.25 283.25 205.8 282.75 206.25 282.65 206.3 278.9 202.55 272.4 201.05 270.85 196.25 273.05 191.3 272.85 193.55 274.15 196.15 275.2 195.85 277.95 189.85 278.45 192.85 278.1 197.75 278.85 199.05 278.85 199.2 M274.8 197.35 L274.15 196.15 274.8 197.35 M277.2 208.55 L271.4 205.1 271.35 205.1 271.8 204.0 271.8 203.95 275.1 204.8 274.7 204.95 277.6 208.0 277.2 208.55" fill="#bfa464" fill-rule="evenodd" stroke="none"/>
    <path d="M282.15 207.55 L282.75 206.3 283.55 206.85 282.6 208.7 282.15 207.55" fill="#d8cfbe" fill-rule="evenodd" stroke="none"/>
    <path d="M282.75 206.25 L282.75 206.3 282.65 206.3 282.75 206.25" fill="#d0b77d" fill-rule="evenodd" stroke="none"/>
    <path d="M282.65 206.3 L282.75 206.3 282.15 207.55 282.05 207.7 281.35 207.05 279.95 205.85 277.6 203.75 275.1 204.8 271.8 203.95 271.8 204.0 271.35 205.1 271.4 205.1 277.2 208.55 275.85 210.05 272.45 207.35 270.55 209.55 267.75 205.7 267.9 205.35 267.9 205.4 268.5 204.1 268.85 203.4 270.85 196.25 272.4 201.05 278.9 202.55 282.65 206.3" fill="#7b6533" fill-rule="evenodd" stroke="none"/>
    <path d="M279.95 205.85 L281.35 207.05 279.45 209.4 Q279.3 207.85 279.95 205.85" fill="#ffffff" fill-rule="evenodd" stroke="none"/>
    <path d="M278.85 199.2 L278.85 199.05 278.1 197.75 M277.95 189.85 L275.2 195.85 274.15 196.15 274.8 197.35 M282.75 206.3 L282.75 206.25 282.75 206.3 283.55 206.85 284.0 207.1 285.5 204.8 M270.85 196.25 L268.85 203.4 268.5 204.1 M267.9 205.35 L267.75 205.7 270.55 209.55 272.45 207.35 275.85 210.05 M275.1 204.8 L277.6 203.75 279.95 205.85 281.35 207.05 282.05 207.7 282.15 207.55 282.75 206.3 M282.75 206.25 L283.25 205.8 M270.85 196.25 L273.05 191.3 M275.1 204.8 L274.7 204.95" fill="none" stroke="#634f2e" stroke-linecap="round" stroke-linejoin="round" stroke-width="0.25"/>
    <path d="M282.6 208.7 L282.15 207.55 M279.45 209.4 Q279.3 207.85 279.95 205.85" fill="none" stroke="#859e8d" stroke-linecap="round" stroke-linejoin="round" stroke-width="0.05"/>
    <path d="M278.0 199.95 Q277.3 199.8 276.9 199.1 276.45 198.4 276.6 197.6 276.7 196.75 277.45 196.3 278.0 195.75 278.8 195.9 279.5 196.05 280.0 196.75 280.45 197.45 280.3 198.25 280.1 199.1 279.45 199.65 278.75 200.1 278.0 199.95" fill="#f0ece8" fill-rule="evenodd" stroke="none"/>
    <path d="M280.0 198.35 L279.65 198.9 Q279.35 198.95 279.0 198.65 L278.55 197.9 278.5 197.0 Q278.6 196.6 278.9 196.55 L279.5 196.7 279.95 197.45 280.0 198.35" fill="#000000" fill-rule="evenodd" stroke="none"/>
    <path d="M276.4 201.1 Q275.6 201.2 275.0 200.7 274.35 200.15 274.3 199.3 274.15 198.55 274.65 197.8 275.1 197.15 275.8 197.05 276.6 196.9 277.25 197.5 277.85 198.0 277.95 198.8 278.1 199.6 277.65 200.3 277.1 200.95 276.4 201.1" fill="#f0ece8" fill-rule="evenodd" stroke="none"/>
    <path d="M277.75 199.7 L277.3 200.2 276.75 199.8 Q276.55 199.45 276.5 198.9 L276.5 197.85 Q276.65 197.5 276.95 197.45 277.25 197.4 277.5 197.75 L277.85 198.7 277.75 199.7" fill="#000000" fill-rule="evenodd" stroke="none"/>
    <path d="M283.95 204.55 L282.0 203.2 283.9 200.95 285.2 201.8 283.95 204.55" fill="#351d00" fill-rule="evenodd" stroke="none"/>
    <path d="M268.5 204.1 L267.9 205.35 264.4 203.4 264.9 201.9 268.5 204.1" fill="#7b6533" fill-rule="evenodd" stroke="none"/>
    <path d="M264.9 201.9 L265.45 200.45 267.25 200.95 268.5 204.1 264.9 201.9" fill="#bfa464" fill-rule="evenodd" stroke="none"/>
    <path d="M268.5 204.1 L267.9 205.35 264.4 203.4 264.9 201.9 265.45 200.45" fill="none" stroke="#634f2e" stroke-linecap="round" stroke-linejoin="round" stroke-width="0.25"/>
  </g>
</svg>
