<?xml version="1.0" encoding="UTF-8" standalone="no"?>
<svg xmlns:xlink="http://www.w3.org/1999/xlink" height="66.1px" width="109.95px" xmlns="http://www.w3.org/2000/svg">
  <g transform="matrix(1.0, 0.0, 0.0, 1.0, 0.0, 0.0)">
    <path d="M70.65 14.6 Q72.35 9.5 71.9 2.85 71.75 0.5 72.15 0.1 78.05 10.05 76.25 16.45 L70.65 14.6 M87.0 18.8 L89.1 15.05 Q90.1 13.85 90.95 14.45 90.85 17.85 90.15 20.45 89.1 24.4 86.6 26.45 84.8 25.9 84.2 23.65 L86.25 20.05 87.0 18.8 M8.7 46.65 Q6.15 43.25 5.4 38.7 4.05 30.15 8.95 33.85 11.5 37.35 11.8 40.3 12.25 45.15 8.7 46.65 M23.2 35.25 Q20.2 28.95 18.65 17.0 17.55 5.6 20.1 7.0 21.65 20.8 24.9 30.2 27.8 38.75 29.8 41.95 L28.25 41.35 Q25.35 39.8 23.2 35.25 M48.4 10.3 Q48.5 8.7 48.2 7.0 47.45 2.45 49.75 3.95 51.6 6.4 51.55 10.8 L51.3 14.0 48.85 14.4 47.55 13.95 Q48.15 12.5 48.35 10.95 L48.4 10.3 M70.45 26.85 L71.35 25.05 Q72.45 22.1 73.25 22.5 73.55 32.6 68.05 37.75 66.25 36.45 66.75 31.9 68.6 30.35 70.45 26.85" fill="#fefde0" fill-rule="evenodd" stroke="none"/>
    <path d="M71.45 57.1 L71.5 58.25 71.45 59.35 71.4 59.9 Q65.65 62.5 60.3 64.0 47.0 66.45 30.5 66.05 -1.35 65.2 0.05 57.0 L0.65 57.15 Q1.6 60.5 16.55 62.1 31.45 63.7 53.25 59.35 67.0 56.75 72.1 47.1 73.75 43.95 74.1 40.6 L74.05 40.6 68.8 38.1 Q69.7 38.4 71.05 38.1 72.8 36.85 73.75 35.0 75.3 31.85 74.65 26.95 74.1 22.95 73.25 22.5 72.45 22.1 71.35 25.05 L70.45 26.85 69.9 25.95 Q68.35 23.45 66.2 21.3 L66.5 21.05 Q67.8 20.85 68.9 19.75 70.0 18.6 67.3 17.0 64.55 15.35 63.15 15.45 61.85 15.55 60.3 16.5 L60.25 16.5 60.25 16.45 60.2 16.45 60.1 16.65 Q58.45 17.65 58.7 18.85 L57.0 18.0 Q53.75 16.05 48.85 14.4 L51.3 14.0 53.4 12.85 53.45 12.8 53.6 12.7 53.75 10.25 Q55.95 9.95 57.95 10.9 65.9 15.55 75.35 18.1 80.65 19.4 86.25 20.05 L84.2 23.65 Q84.8 25.9 86.6 26.45 88.25 27.0 90.9 26.05 92.8 23.6 92.85 20.6 L99.85 20.65 Q110.35 20.75 103.8 32.85 97.25 44.95 84.35 52.9 79.05 56.15 74.05 58.65 73.1 55.75 70.75 54.1 L71.45 57.1" fill="url(#gradient0)" fill-rule="evenodd" stroke="none"/>
    <path d="M78.95 17.2 L87.0 18.8 86.25 20.05 Q80.65 19.4 75.35 18.1 65.9 15.55 57.95 10.9 55.95 9.95 53.75 10.25 L53.55 9.15 Q58.05 8.75 62.4 10.95 66.45 13.0 70.65 14.6 L76.25 16.45 78.95 17.2 M0.35 56.0 L1.3 54.3 Q3.5 51.25 9.3 47.4 L9.35 47.35 11.0 46.25 Q14.85 43.8 18.2 40.7 L23.2 35.25 Q25.35 39.8 28.25 41.35 L30.15 42.5 Q34.1 44.75 38.1 46.0 38.5 47.7 41.35 48.15 42.3 48.8 43.15 48.45 L43.5 48.25 Q44.3 48.25 44.9 47.3 L44.95 47.3 46.45 47.6 Q46.9 49.8 50.35 50.8 53.95 51.85 55.7 51.85 57.45 51.8 60.5 50.0 L61.55 49.25 Q65.95 48.95 69.1 46.6 73.5 43.3 62.8 38.75 52.35 34.3 44.15 26.45 L43.9 26.2 35.05 21.25 34.3 20.8 Q41.1 13.4 47.5 10.7 L48.4 10.3 48.35 10.95 Q48.15 12.5 47.55 13.95 L48.85 14.4 Q53.75 16.05 57.0 18.0 L58.7 18.85 58.7 18.9 Q58.9 20.05 59.7 21.4 60.5 22.7 62.8 21.95 L66.05 21.1 66.2 21.3 Q68.35 23.45 69.9 25.95 L70.45 26.85 Q68.6 30.35 66.75 31.9 66.25 36.45 68.05 37.75 L68.1 37.8 68.8 38.1 74.05 40.6 74.1 40.6 Q73.75 43.95 72.1 47.1 67.0 56.75 53.25 59.35 31.45 63.7 16.55 62.1 1.6 60.5 0.65 57.15 L0.35 56.0 M61.65 26.75 Q62.2 27.65 63.75 27.65 65.5 27.65 65.5 26.2 65.5 24.55 63.25 24.55 61.4 24.55 61.4 25.85 L61.65 26.75 M46.7 53.9 Q46.7 52.4 44.65 51.5 42.95 50.75 40.85 50.75 L38.7 51.15 Q38.3 51.1 37.85 51.4 36.75 52.15 36.65 53.2 L36.65 53.4 Q36.65 54.4 37.55 55.1 L37.9 55.8 Q39.1 57.45 40.45 57.45 41.7 57.45 44.1 56.25 46.7 54.95 46.7 53.9 M19.55 49.65 Q21.9 49.65 21.9 48.0 21.65 46.15 19.85 46.15 18.0 46.15 18.0 48.05 L18.1 48.9 Q18.4 49.65 19.55 49.65 M28.7 53.65 Q28.7 52.55 27.4 51.7 26.0 50.75 23.85 50.75 21.7 50.75 20.35 51.85 L20.25 51.95 19.85 52.15 Q18.45 53.15 18.45 54.5 18.45 55.85 19.85 56.8 21.3 57.8 23.35 57.8 25.4 57.8 26.8 56.8 L27.65 56.1 Q28.7 55.35 28.7 53.65" fill="url(#gradient1)" fill-rule="evenodd" stroke="none"/>
    <path d="M66.05 21.1 L62.8 21.95 Q60.5 22.7 59.7 21.4 58.9 20.05 58.7 18.9 L58.7 18.85 Q61.9 20.25 60.3 16.55 L60.3 16.5 Q63.55 18.6 66.05 21.1 M38.1 46.0 Q41.5 47.0 44.9 47.3 44.3 48.25 43.5 48.25 L43.15 48.45 Q42.3 48.8 41.35 48.15 38.5 47.7 38.1 46.0 M61.65 26.75 L61.4 25.85 Q61.4 24.55 63.25 24.55 65.5 24.55 65.5 26.2 65.5 27.65 63.75 27.65 62.2 27.65 61.65 26.75 M46.45 47.6 L57.7 49.15 61.55 49.25 60.5 50.0 Q57.45 51.8 55.7 51.85 53.95 51.85 50.35 50.8 46.9 49.8 46.45 47.6 M46.7 53.9 Q46.7 54.95 44.1 56.25 41.7 57.45 40.45 57.45 39.1 57.45 37.9 55.8 L37.55 55.1 Q36.65 54.4 36.65 53.4 L36.65 53.2 Q36.75 52.15 37.85 51.4 38.3 51.1 38.7 51.15 L40.85 50.75 Q42.95 50.75 44.65 51.5 46.7 52.4 46.7 53.9 M28.7 53.65 Q28.7 55.35 27.65 56.1 L26.8 56.8 Q25.4 57.8 23.35 57.8 21.3 57.8 19.85 56.8 18.45 55.85 18.45 54.5 18.45 53.15 19.85 52.15 L20.25 51.95 20.35 51.85 Q21.7 50.75 23.85 50.75 26.0 50.75 27.4 51.7 28.7 52.55 28.7 53.65 M19.55 49.65 Q18.4 49.65 18.1 48.9 L18.0 48.05 Q18.0 46.15 19.85 46.15 21.65 46.15 21.9 48.0 21.9 49.65 19.55 49.65" fill="#ffffff" fill-rule="evenodd" stroke="none"/>
    <path d="M60.25 16.45 L60.25 16.5 60.3 16.5 60.3 16.55 60.1 16.65 60.25 16.45" fill="url(#gradient2)" fill-rule="evenodd" stroke="none"/>
    <path d="M58.7 18.85 Q58.45 17.65 60.1 16.65 L60.3 16.55 Q61.9 20.25 58.7 18.85 M60.3 16.5 Q61.85 15.55 63.15 15.45 64.55 15.35 67.3 17.0 70.0 18.6 68.9 19.75 67.8 20.85 66.5 21.05 L66.05 21.1 Q63.55 18.6 60.3 16.5 M38.1 46.0 L38.0 45.3 Q38.0 44.25 39.3 42.85 40.7 41.35 42.15 41.35 45.4 41.35 45.7 44.95 45.7 45.75 45.15 46.85 L44.9 47.3 Q41.5 47.0 38.1 46.0 M46.45 47.6 L46.4 47.3 Q46.05 44.85 48.9 42.9 51.8 40.95 55.4 41.05 59.0 41.1 58.3 43.5 57.55 45.9 60.55 47.05 62.85 47.95 61.55 49.25 L57.7 49.15 46.45 47.6" fill="#b7b7b7" fill-rule="evenodd" stroke="none"/>
    <path d="M60.1 16.65 L60.2 16.45 60.25 16.45 60.1 16.65" fill="url(#gradient3)" fill-rule="evenodd" stroke="none"/>
    <path d="M72.15 0.1 Q72.8 -0.7 75.35 5.05 78.5 11.35 78.95 17.2 L76.25 16.45 Q78.05 10.05 72.15 0.1 M90.95 14.45 Q91.8 15.05 92.45 17.5 L92.8 19.45 92.85 20.6 Q92.8 23.6 90.9 26.05 88.25 27.0 86.6 26.45 89.1 24.4 90.15 20.45 90.85 17.85 90.95 14.45 M9.3 47.4 L8.7 46.65 Q12.25 45.15 11.8 40.3 11.5 37.35 8.95 33.85 L10.4 35.1 Q14.05 38.7 18.2 40.7 14.85 43.8 11.0 46.25 L9.35 47.35 9.3 47.4 M20.1 7.0 Q21.0 7.45 22.3 9.4 27.15 16.65 34.3 20.8 L35.05 21.25 43.9 26.2 44.15 26.45 Q45.05 27.6 45.1 32.75 45.1 34.95 43.4 36.85 42.45 37.85 41.0 38.75 L39.95 39.35 Q37.45 40.7 33.7 41.8 L29.8 41.95 Q27.8 38.75 24.9 30.2 21.65 20.8 20.1 7.0 M49.75 3.95 L50.9 4.85 Q52.95 6.8 53.55 9.15 L53.75 10.25 53.6 12.7 53.45 12.8 53.4 12.85 51.3 14.0 51.55 10.8 Q51.6 6.4 49.75 3.95 M73.25 22.5 Q74.1 22.95 74.65 26.95 75.3 31.85 73.75 35.0 72.8 36.85 71.05 38.1 69.7 38.4 68.8 38.1 L68.1 37.8 68.05 37.75 Q73.55 32.6 73.25 22.5" fill="#c1ac57" fill-rule="evenodd" stroke="none"/>
    <path d="M0.05 57.0 L0.35 56.0 0.65 57.15 0.05 57.0 M66.5 21.05 L66.2 21.3 66.05 21.1 66.5 21.05 M44.9 47.3 L45.15 46.85 Q45.7 45.75 45.7 44.95 45.4 41.35 42.15 41.35 40.7 41.35 39.3 42.85 38.0 44.25 38.0 45.3 L38.1 46.0 Q34.1 44.75 30.15 42.5 L28.25 41.35 29.8 41.95 33.7 41.8 Q37.45 40.7 39.95 39.35 L41.0 38.75 Q42.45 37.85 43.4 36.85 45.1 34.95 45.1 32.75 45.05 27.6 44.15 26.45 52.35 34.3 62.8 38.75 73.5 43.3 69.1 46.6 65.95 48.95 61.55 49.25 62.85 47.95 60.55 47.05 57.55 45.9 58.3 43.5 59.0 41.1 55.4 41.05 51.8 40.95 48.9 42.9 46.05 44.85 46.4 47.3 L46.45 47.6 44.95 47.3 44.9 47.3" fill="#870e01" fill-rule="evenodd" stroke="none"/>
    <path d="M92.8 19.45 L99.85 19.7 Q120.0 19.6 99.65 43.5 90.1 54.6 74.45 60.25 L74.05 58.65 Q79.05 56.15 84.35 52.9 97.25 44.95 103.8 32.85 110.35 20.75 99.85 20.65 L92.85 20.6 92.8 19.45" fill="url(#gradient4)" fill-rule="evenodd" stroke="none"/>
    <path d="M74.45 60.25 L73.0 60.1 72.75 59.25 71.45 57.1 70.75 54.1 Q73.1 55.75 74.05 58.65 L74.45 60.25" fill="#e9c9a0" fill-rule="evenodd" stroke="none"/>
    <path d="M71.4 59.9 L71.0 61.4 Q65.95 62.95 60.3 64.0 65.65 62.5 71.4 59.9" fill="#cb2400" fill-rule="evenodd" stroke="none"/>
    <path d="M70.65 14.6 Q72.35 9.5 71.9 2.85 71.75 0.5 72.15 0.1 72.8 -0.7 75.35 5.05 78.5 11.35 78.95 17.2 L87.0 18.8 89.1 15.05 Q90.1 13.85 90.95 14.45 91.8 15.05 92.45 17.5 L92.8 19.45 99.85 19.7 Q120.0 19.6 99.65 43.5 90.1 54.6 74.45 60.25 L73.0 60.1 72.75 59.25 71.45 57.1 71.5 58.25 71.45 59.35 71.4 59.9 71.0 61.4 Q65.95 62.95 60.3 64.0 47.0 66.45 30.5 66.05 -1.35 65.2 0.05 57.0 L0.35 56.0 1.3 54.3 Q3.5 51.25 9.3 47.4 L8.7 46.65 Q6.15 43.25 5.4 38.7 4.05 30.15 8.95 33.85 L10.4 35.1 Q14.05 38.7 18.2 40.7 L23.2 35.25 Q20.2 28.95 18.65 17.0 17.55 5.6 20.1 7.0 21.0 7.45 22.3 9.4 27.15 16.65 34.3 20.8 41.1 13.4 47.5 10.7 L48.4 10.3 Q48.5 8.7 48.2 7.0 47.45 2.45 49.75 3.95 L50.9 4.85 Q52.95 6.8 53.55 9.15 58.05 8.75 62.4 10.95 66.45 13.0 70.65 14.6 L76.25 16.45 78.95 17.2 M70.45 26.85 L71.35 25.05 Q72.45 22.1 73.25 22.5 74.1 22.95 74.65 26.95 75.3 31.85 73.75 35.0 72.8 36.85 71.05 38.1 69.7 38.4 68.8 38.1 M51.3 14.0 L53.4 12.85 53.45 12.8 53.6 12.7 53.75 10.25 53.55 9.15 M48.4 10.3 L48.35 10.95 Q48.15 12.5 47.55 13.95 M48.85 14.4 L51.3 14.0 M44.15 26.45 Q45.05 27.6 45.1 32.75 45.1 34.95 43.4 36.85 42.45 37.85 41.0 38.75 L39.95 39.35 Q37.45 40.7 33.7 41.8 L29.8 41.95 28.25 41.35 Q25.35 39.8 23.2 35.25 M34.3 20.8 L35.05 21.25 43.9 26.2 M68.05 37.75 Q66.25 36.45 66.75 31.9 68.6 30.35 70.45 26.85 M86.25 20.05 L84.2 23.65 Q84.8 25.9 86.6 26.45 88.25 27.0 90.9 26.05 92.8 23.6 92.85 20.6 L92.8 19.45 M74.05 58.65 L74.45 60.25 M87.0 18.8 L86.25 20.05 M74.05 58.65 Q73.1 55.75 70.75 54.1 L71.45 57.1 M9.3 47.4 L9.35 47.35 11.0 46.25 Q14.85 43.8 18.2 40.7" fill="none" stroke="#000000" stroke-linecap="round" stroke-linejoin="round" stroke-opacity="0.49803922" stroke-width="0.05"/>
  </g>
  <defs>
    <linearGradient gradientTransform="matrix(0.0175, 0.0101, -0.0261, 0.0452, 76.35, 54.8)" gradientUnits="userSpaceOnUse" id="gradient0" spreadMethod="pad" x1="-819.2" x2="819.2">
      <stop offset="0.44313725490196076" stop-color="#870e01"/>
      <stop offset="0.9921568627450981" stop-color="#4b0901"/>
    </linearGradient>
    <linearGradient gradientTransform="matrix(-0.0169, -0.0169, 0.0311, -0.0311, 38.6, 44.55)" gradientUnits="userSpaceOnUse" id="gradient1" spreadMethod="pad" x1="-819.2" x2="819.2">
      <stop offset="0.4392156862745098" stop-color="#cb2400"/>
      <stop offset="0.9803921568627451" stop-color="#ffffff"/>
    </linearGradient>
    <radialGradient cx="0" cy="0" gradientTransform="matrix(0.0735, 0.0, 0.0, 0.0735, 45.85, 18.0)" gradientUnits="userSpaceOnUse" id="gradient2" r="819.2" spreadMethod="pad">
      <stop offset="0.0" stop-color="#ffffff"/>
      <stop offset="0.4745098039215686" stop-color="#cb2400"/>
    </radialGradient>
    <radialGradient cx="0" cy="0" gradientTransform="matrix(0.0735, 0.0, 0.0, 0.0735, 45.85, 18.0)" gradientUnits="userSpaceOnUse" id="gradient3" r="819.2" spreadMethod="pad">
      <stop offset="0.12549019607843137" stop-color="#ffffff"/>
      <stop offset="0.4745098039215686" stop-color="#cb2400"/>
    </radialGradient>
    <linearGradient gradientTransform="matrix(-0.0219, 0.0, 0.0, -0.0249, 92.0, 39.85)" gradientUnits="userSpaceOnUse" id="gradient4" spreadMethod="pad" x1="-819.2" x2="819.2">
      <stop offset="0.03137254901960784" stop-color="#ffffff"/>
      <stop offset="0.4549019607843137" stop-color="#cb2400"/>
    </linearGradient>
  </defs>
</svg>
