<?xml version="1.0" encoding="UTF-8" standalone="no"?>
<svg xmlns:xlink="http://www.w3.org/1999/xlink" height="24.6px" width="31.55px" xmlns="http://www.w3.org/2000/svg">
  <g transform="matrix(1.0, 0.0, 0.0, 1.0, 15.3, 11.75)">
    <path d="M-1.75 -9.3 L-1.95 -9.15 -2.05 -8.85 -1.95 -8.6 -1.75 -8.55 -1.55 -8.7 -1.5 -8.75 -1.45 -9.05 -1.5 -9.25 -1.5 -9.3 -1.75 -9.35 -1.75 -9.3 M2.95 -10.75 L2.7 -10.55 2.65 -10.25 2.7 -10.0 2.95 -9.95 3.1 -10.1 3.15 -10.15 3.25 -10.45 3.25 -10.5 3.2 -10.65 3.15 -10.7 2.95 -10.75 M1.0 -8.15 L0.8 -8.2 0.55 -8.1 0.2 -7.9 -0.15 -7.55 -0.3 -6.55 0.05 -5.65 Q0.3 -5.25 0.6 -5.35 L1.1 -5.8 1.45 -7.05 Q1.65 -7.85 1.3 -8.05 L1.0 -8.15" fill="#613f1d" fill-rule="evenodd" stroke="none"/>
    <path d="M0.2 -7.9 L0.0 -9.85 Q-0.25 -10.55 -0.65 -10.75 -1.05 -10.9 -1.4 -10.55 L-1.75 -9.3 -1.95 -9.15 -2.05 -8.85 -1.95 -8.6 -1.75 -8.55 -1.55 -8.7 -1.5 -8.75 -1.45 -9.05 -1.5 -9.25 -1.5 -9.3 -1.75 -9.35 -1.75 -9.3 M2.95 -10.75 L2.7 -10.55 2.65 -10.25 2.7 -10.0 2.95 -9.95 3.1 -10.1 3.15 -10.15 3.25 -10.45 3.25 -10.5 3.2 -10.65 3.15 -10.7 2.95 -10.75 Q2.9 -11.5 2.55 -11.7 2.25 -11.85 1.85 -11.45 1.45 -11.05 1.2 -10.2 0.95 -9.3 1.0 -8.15 L0.8 -8.2 0.55 -8.1 0.2 -7.9 -0.15 -7.55 -0.3 -6.55 0.05 -5.65 Q0.3 -5.25 0.6 -5.35 L1.1 -5.8 1.45 -7.05 Q1.65 -7.85 1.3 -8.05 L1.0 -8.15" fill="none" stroke="#000000" stroke-linecap="round" stroke-linejoin="round" stroke-opacity="0.5019608" stroke-width="0.05"/>
    <path d="M-6.8 5.9 L-5.9 6.2 -4.05 2.9 -5.15 3.0 -4.05 2.9 -5.9 6.2 -6.8 5.9 -7.4 7.2 -7.95 9.0 Q-8.1 10.15 -7.75 10.95 -7.4 11.65 -6.5 12.0 L-6.35 12.05 -5.35 12.25 -6.45 11.4 -6.5 12.0 -6.45 11.4 -5.35 12.25 -4.25 12.15 -2.75 11.5 -2.7 11.4 -1.9 10.7 -1.85 10.7 -1.45 9.7 -2.1 6.65 -1.65 6.55 -1.55 6.1 -0.9 2.7 -1.55 6.1 -1.65 6.55 -2.1 6.65 -3.45 7.05 -2.5 3.8 -2.05 3.75 -1.8 2.95 -0.9 2.7 -0.65 2.65 -0.15 -0.05 -0.65 2.65 -0.9 2.7 -1.8 2.95 -0.45 -1.0 -0.7 -1.3 -0.85 -1.3 -1.05 -1.35 Q-1.95 -1.4 -2.75 -0.45 L-5.15 3.0 -5.4 3.3 -6.8 5.9 M-4.05 2.9 L-3.45 2.05 -1.05 -1.35 -3.45 2.05 -4.05 2.9 M-6.45 11.4 L-6.45 11.2 -5.45 8.15 -5.35 7.15 -6.5 7.75 -7.75 10.95 -6.5 7.75 -5.35 7.15 -5.45 8.15 -6.45 11.2 -6.45 11.4 M-5.9 6.2 L-6.5 7.75 -5.9 6.2 M-0.15 -0.05 L-0.45 -0.95 -0.45 -1.0 -1.8 2.95 -2.05 3.75 -2.5 3.8 -3.45 7.05 -2.1 6.65 -1.45 9.7 -1.85 10.7 -1.1 9.8 Q-0.6 9.0 -0.25 8.0 L0.05 7.0 Q0.5 5.25 0.4 3.45 L0.4 2.9 -0.45 6.2 0.4 2.9 -0.15 -0.05 M-2.5 3.8 L-3.5 3.8 -2.8 2.5 -3.45 2.05 -2.8 2.5 -3.5 3.8 -5.25 7.05 -5.35 7.15 -5.25 7.05 -3.5 3.8 -2.5 3.8 M-2.8 2.5 L-2.65 2.2 -0.7 -1.3 -2.65 2.2 -2.8 2.5 M-3.75 7.8 L-3.75 7.9 -3.7 7.8 -3.45 7.05 -3.7 7.8 -3.75 7.8 -5.45 8.15 -3.75 7.8 -3.7 7.8 -3.75 7.9 -3.75 7.8 M-1.55 6.1 L-0.9 5.6 0.05 7.0 -0.9 5.6 -1.55 6.1 M-1.4 9.7 L-1.1 9.8 -1.4 9.7 M-3.75 7.9 L-3.6 11.1 -2.7 11.4 -3.6 11.1 -3.75 7.9 M-3.6 11.1 L-3.6 11.35 -4.25 12.15 -3.6 11.35 -3.6 11.1" fill="#9bddc8" fill-rule="evenodd" stroke="none"/>
    <path d="M-5.15 3.0 L-4.05 2.9 -5.9 6.2 -6.8 5.9 M-1.05 -1.35 L-3.45 2.05 -4.05 2.9 M-6.5 12.0 L-6.45 11.4 -5.35 12.25 M-7.75 10.95 L-6.5 7.75 -5.35 7.15 -5.45 8.15 -6.45 11.2 -6.45 11.4 M-6.5 7.75 L-5.9 6.2 M-0.15 -0.05 L-0.65 2.65 -0.9 2.7 -1.8 2.95 -0.45 -1.0 M-0.9 2.7 L-1.55 6.1 -1.65 6.55 -2.1 6.65 -3.45 7.05 -2.5 3.8 -2.05 3.75 -1.8 2.95 M-3.45 2.05 L-2.8 2.5 -3.5 3.8 -5.25 7.05 -5.35 7.15 M-0.7 -1.3 L-2.65 2.2 -2.8 2.5 M-3.5 3.8 L-2.5 3.8 M0.05 7.0 L-0.9 5.6 -1.55 6.1 M-3.45 7.05 L-3.7 7.8 -3.75 7.8 -5.45 8.15 M-3.7 7.8 L-3.75 7.9 -3.75 7.8 M-1.1 9.8 L-1.4 9.7 M-1.85 10.7 L-1.45 9.7 -2.1 6.65 M-2.7 11.4 L-3.6 11.1 -3.75 7.9 M-4.25 12.15 L-3.6 11.35 -3.6 11.1 M0.4 2.9 L-0.45 6.2" fill="none" stroke="#bbe8d9" stroke-linecap="round" stroke-linejoin="round" stroke-width="0.05"/>
    <path d="M-6.8 5.9 L-5.4 3.3 -5.15 3.0 -2.75 -0.45 Q-1.95 -1.4 -1.05 -1.35 L-0.85 -1.3 -0.7 -1.3 -0.45 -1.0 -0.45 -0.95 -0.15 -0.05 0.4 2.9 0.4 3.45 Q0.5 5.25 0.05 7.0 L-0.25 8.0 Q-0.6 9.0 -1.1 9.8 L-1.85 10.7 -1.9 10.7 -2.7 11.4 -2.75 11.5 -4.25 12.15 -5.35 12.25 -6.35 12.05 -6.5 12.0 Q-7.4 11.65 -7.75 10.95 -8.1 10.15 -7.95 9.0 L-7.4 7.2 -6.8 5.9 Z" fill="none" stroke="#33737d" stroke-linecap="round" stroke-linejoin="round" stroke-width="0.05"/>
    <path d="M1.75 -2.05 L1.55 -1.6 2.85 1.55 3.1 2.2 3.6 1.95 4.6 1.35 3.9 0.5 3.75 0.25 1.75 -2.05 3.75 0.25 3.9 0.5 4.6 1.35 3.6 1.95 3.1 2.2 2.85 1.55 1.55 -1.6 1.55 -1.55 1.25 -0.45 Q0.8 1.2 0.7 2.8 L0.65 3.4 Q0.6 5.2 1.05 6.7 L1.35 7.5 2.2 8.8 2.95 9.25 3.0 9.25 3.75 9.45 3.85 9.5 5.35 9.3 6.45 8.7 7.45 7.9 7.55 7.75 Q8.5 6.9 8.85 5.95 9.2 4.95 9.0 3.9 L8.5 2.45 7.9 1.45 6.45 -0.25 6.2 -0.45 3.8 -2.4 2.15 -2.3 1.9 -2.15 1.75 -2.05 M5.15 0.15 L7.0 2.35 7.6 3.5 8.85 5.95 7.6 3.5 7.0 2.35 7.9 1.45 7.0 2.35 5.15 0.15 6.2 -0.45 5.15 0.15 4.55 -0.35 2.15 -2.3 4.55 -0.35 5.15 0.15 M6.55 4.55 L7.5 7.0 7.55 7.2 6.45 8.7 7.55 7.2 7.5 7.0 6.55 4.55 6.4 3.6 6.3 3.6 4.6 1.35 6.3 3.6 6.4 3.6 6.55 4.55 4.8 5.25 4.75 5.25 4.55 4.65 4.75 5.25 4.8 5.25 6.55 4.55 M7.6 3.5 L6.4 3.6 7.6 3.5 M0.7 2.8 L1.55 5.6 0.7 2.8 M4.8 5.35 L4.65 8.65 3.75 9.45 4.65 8.65 4.65 8.9 5.35 9.3 4.65 8.9 4.65 8.65 4.8 5.35 4.8 5.25 4.8 5.35 4.75 5.25 4.8 5.35 M3.15 5.1 L2.5 8.5 2.95 9.25 2.5 8.5 3.15 5.1 4.55 4.65 3.6 1.95 4.55 4.65 3.15 5.1 2.7 5.25 2.6 4.85 1.95 1.85 2.85 1.55 1.95 1.85 2.6 4.85 2.7 5.25 3.15 5.1 M2.45 8.55 L2.2 8.8 2.45 8.55 M2.6 4.85 L2.0 4.75 1.05 6.7 2.0 4.75 2.6 4.85 M4.55 -0.35 L3.9 0.5 4.55 -0.35 M1.95 1.85 L1.75 1.9 1.25 -0.45 1.75 1.9 1.95 1.85" fill="#9bddc8" fill-rule="evenodd" stroke="none"/>
    <path d="M1.05 6.7 L1.35 7.5 2.2 8.8 2.95 9.25 3.0 9.25 3.75 9.45 3.85 9.5 5.35 9.3 6.45 8.7 7.45 7.9 7.55 7.75 Q8.5 6.9 8.85 5.95 9.2 4.95 9.0 3.9 L8.5 2.45 7.9 1.45 6.45 -0.25 6.2 -0.45 3.8 -2.4 2.15 -2.3" fill="none" stroke="#33737d" stroke-linecap="round" stroke-linejoin="round" stroke-width="0.05"/>
    <path d="M1.75 -2.05 L3.75 0.25 3.9 0.5 4.6 1.35 3.6 1.95 3.1 2.2 2.85 1.55 1.55 -1.6 M6.2 -0.45 L5.15 0.15 4.55 -0.35 2.15 -2.3 M3.6 1.95 L4.55 4.65 3.15 5.1 2.7 5.25 2.6 4.85 1.95 1.85 2.85 1.55 M1.25 -0.45 L1.75 1.9 1.95 1.85 M3.9 0.5 L4.55 -0.35 M1.05 6.7 L2.0 4.75 2.6 4.85 M4.6 1.35 L6.3 3.6 6.4 3.6 6.55 4.55 4.8 5.25 4.75 5.25 4.55 4.65 M4.8 5.25 L4.8 5.35 4.75 5.25 M3.75 9.45 L4.65 8.65 4.65 8.9 5.35 9.3 M2.2 8.8 L2.45 8.55 M2.95 9.25 L2.5 8.5 3.15 5.1 M4.65 8.65 L4.8 5.35 M1.55 5.6 L0.7 2.8 M8.85 5.95 L7.6 3.5 7.0 2.35 7.9 1.45 M6.4 3.6 L7.6 3.5 M6.45 8.7 L7.55 7.2 7.5 7.0 6.55 4.55 M7.0 2.35 L5.15 0.15" fill="none" stroke="#bbe8d9" stroke-linecap="round" stroke-linejoin="round" stroke-width="0.05"/>
    <path d="M7.05 -1.55 L0.05 -3.5 -0.3 2.5 Q2.4 4.3 8.15 1.95 L7.05 -1.55" fill="#33737d" fill-opacity="0.5019608" fill-rule="evenodd" stroke="none"/>
    <path d="M-6.05 2.45 L0.95 -3.7 1.3 2.0 Q-1.4 5.5 -7.15 6.55 L-6.05 2.45" fill="#33737d" fill-opacity="0.5019608" fill-rule="evenodd" stroke="none"/>
    <path d="M10.25 -8.0 L9.8 -8.4 7.2 -8.25 Q5.85 -7.65 4.65 -6.65 L3.35 -5.5 3.1 -5.3 2.95 -5.15 Q2.35 -4.25 2.1 -3.5 1.65 -1.95 2.55 -0.6 1.65 -1.45 0.9 -2.6 0.7 -2.9 0.8 -3.4 L0.95 -4.0 1.4 -5.0 Q1.9 -5.75 2.75 -6.3 L7.65 -9.1 Q9.95 -10.3 12.35 -10.8 L14.2 -10.95 15.25 -10.55 Q16.55 -9.65 16.15 -6.9 L15.85 -5.35 Q15.15 -3.0 13.55 -1.05 L12.6 -0.1 Q10.95 1.4 9.0 1.7 L8.95 1.7 Q6.85 1.9 5.1 1.15 L8.15 0.95 9.1 0.65 Q10.2 0.25 11.35 -0.8 L11.85 -1.15 Q13.0 -2.3 12.45 -2.85 L11.85 -3.45 11.35 -3.9 Q10.95 -4.3 10.75 -5.6 L10.7 -6.25 10.25 -8.0 Q12.05 -8.85 13.9 -8.5 L13.85 -8.45 14.2 -7.4 13.85 -8.45 13.9 -8.5 Q12.05 -8.85 10.25 -8.0 M14.2 -7.4 L13.25 -7.2 12.0 -6.6 11.95 -6.6 Q11.45 -6.3 11.4 -5.75 L10.75 -5.6 11.4 -5.75 11.35 -5.6 Q11.35 -4.9 11.9 -4.55 12.35 -4.25 13.05 -4.75 L14.25 -5.8 14.6 -6.25 14.75 -6.8 14.7 -7.1 14.35 -7.4 14.2 -7.4 M15.05 -5.4 L15.0 -5.25 14.6 -6.25 15.0 -5.25 15.05 -5.4 M14.35 -9.2 L14.9 -8.65 15.35 -7.95 15.35 -9.05 15.3 -9.1 14.65 -9.65 Q13.0 -10.65 10.25 -9.2 12.85 -10.3 14.35 -9.2 L13.9 -8.5 14.35 -9.2 M12.6 -0.1 L12.4 -0.75 14.15 -3.0 14.15 -3.05 15.0 -5.25 15.85 -5.35 15.0 -5.25 14.15 -3.05 14.15 -3.0 12.4 -0.75 12.6 -0.1 M15.25 -10.55 L14.65 -9.65 15.25 -10.55 M12.4 -0.75 L12.4 -0.8 12.4 -0.75 12.3 -0.6 12.4 -0.75 M0.95 -4.0 L2.1 -3.5 0.95 -4.0 M1.4 -5.0 L3.35 -5.5 1.4 -5.0 M11.85 -3.45 L14.15 -3.05 11.85 -3.45 M12.35 -0.75 L11.85 -1.15 12.35 -0.75 M9.1 0.65 L9.0 1.7 9.1 0.65" fill="#c9ede1" fill-rule="evenodd" stroke="none"/>
    <path d="M10.1 -5.55 Q9.7 -4.55 10.4 -3.75 11.15 -2.85 10.0 -1.6 8.8 -0.35 7.15 0.15 L4.3 0.1 Q3.15 -0.45 3.15 -1.75 3.15 -2.5 3.45 -3.4 3.75 -4.45 4.3 -5.05 5.5 -6.3 7.15 -6.8 L9.65 -6.9 Q10.5 -6.45 10.1 -5.55 M14.65 -9.65 L15.3 -9.1 15.35 -9.05 15.35 -7.95 14.9 -8.65 14.35 -9.2 14.65 -9.65 14.35 -9.2 Q12.85 -10.3 10.25 -9.2 13.0 -10.65 14.65 -9.65 M6.2 -4.05 L6.35 -4.35 6.35 -4.4 6.2 -4.8 5.7 -4.7 5.35 -4.2 5.15 -4.15 Q4.55 -3.95 4.1 -3.4 3.65 -2.75 3.65 -2.1 3.65 -1.4 4.1 -1.1 4.55 -0.7 5.15 -0.9 L6.25 -1.75 Q6.7 -2.3 6.7 -3.0 L6.25 -4.05 6.2 -4.05" fill="#f5fcfa" fill-rule="evenodd" stroke="none"/>
    <path d="M10.25 -8.0 L10.1 -8.0 10.25 -8.0 10.7 -6.25 10.75 -5.6 10.65 -5.6 10.75 -5.6 Q10.95 -4.3 11.35 -3.9 L11.85 -3.45 12.45 -2.85 Q13.0 -2.3 11.85 -1.15 L11.35 -0.8 Q10.2 0.25 9.1 0.65 L8.15 0.95 5.1 1.15 4.45 0.85 2.55 -0.6 Q1.65 -1.95 2.1 -3.5 2.35 -4.25 2.95 -5.15 L3.1 -5.3 3.35 -5.5 4.65 -6.65 Q5.85 -7.65 7.2 -8.25 L9.8 -8.4 10.25 -8.0 M9.15 0.5 L9.1 0.65 9.15 0.5 M10.1 -5.55 Q10.5 -6.45 9.65 -6.9 L7.15 -6.8 Q5.5 -6.3 4.3 -5.05 3.75 -4.45 3.45 -3.4 3.15 -2.5 3.15 -1.75 3.15 -0.45 4.3 0.1 L7.15 0.15 Q8.8 -0.35 10.0 -1.6 11.15 -2.85 10.4 -3.75 9.7 -4.55 10.1 -5.55" fill="#a6d3db" fill-rule="evenodd" stroke="none"/>
    <path d="M11.4 -5.75 Q11.45 -6.3 11.95 -6.6 L12.0 -6.6 13.25 -7.2 14.2 -7.4 14.55 -6.45 11.4 -5.75 14.55 -6.45 14.2 -7.4 14.35 -7.4 14.7 -7.1 14.75 -6.8 14.6 -6.25 14.25 -5.8 13.05 -4.75 Q12.35 -4.25 11.9 -4.55 11.35 -4.9 11.35 -5.6 L11.4 -5.75 M14.65 -6.45 L14.55 -6.45 14.6 -6.25 14.55 -6.45 14.65 -6.45 M5.35 -4.2 L5.7 -4.7 6.2 -4.8 6.35 -4.4 6.35 -4.35 6.2 -4.05 6.1 -3.75 5.8 -3.3 Q5.7 -3.15 5.55 -3.2 L5.45 -3.2 Q5.3 -3.3 5.3 -3.55 L5.35 -4.15 5.35 -4.2" fill="#ffffff" fill-rule="evenodd" stroke="none"/>
    <path d="M5.35 -4.2 L5.35 -4.15 5.3 -3.55 Q5.3 -3.3 5.45 -3.2 L5.55 -3.2 Q5.7 -3.15 5.8 -3.3 L6.1 -3.75 6.2 -4.05 6.25 -4.05 6.7 -3.0 Q6.7 -2.3 6.25 -1.75 L5.15 -0.9 Q4.55 -0.7 4.1 -1.1 3.65 -1.4 3.65 -2.1 3.65 -2.75 4.1 -3.4 4.55 -3.95 5.15 -4.15 L5.35 -4.2" fill="#33737d" fill-rule="evenodd" stroke="none"/>
    <path d="M2.55 -0.6 L4.45 0.85 5.1 1.15 Q6.85 1.9 8.95 1.7 L9.0 1.7 Q10.95 1.4 12.6 -0.1 L13.55 -1.05 Q15.15 -3.0 15.85 -5.35 L16.15 -6.9 Q16.55 -9.65 15.25 -10.55 L14.2 -10.95 12.35 -10.8 Q9.95 -10.3 7.65 -9.1 L2.75 -6.3 Q1.9 -5.75 1.4 -5.0 L0.95 -4.0 0.8 -3.4 Q0.7 -2.9 0.9 -2.6 1.65 -1.45 2.55 -0.6" fill="none" stroke="#33737d" stroke-linecap="round" stroke-linejoin="round" stroke-width="0.05"/>
    <path d="M10.1 -8.0 L10.25 -8.0 Q12.05 -8.85 13.9 -8.5 L13.85 -8.45 14.2 -7.4 14.55 -6.45 14.65 -6.45 M9.1 0.65 L9.15 0.5 M10.75 -5.6 L11.4 -5.75 14.55 -6.45 14.6 -6.25 15.0 -5.25 15.05 -5.4 M14.35 -9.2 L13.9 -8.5 M14.35 -9.2 L14.65 -9.65 15.25 -10.55 M15.85 -5.35 L15.0 -5.25 14.15 -3.05 14.15 -3.0 12.4 -0.75 12.6 -0.1 M12.4 -0.75 L12.3 -0.6 M12.4 -0.8 L12.4 -0.75 M10.75 -5.6 L10.65 -5.6 M9.0 1.7 L9.1 0.65 M11.85 -1.15 L12.35 -0.75 M14.15 -3.05 L11.85 -3.45 M3.35 -5.5 L1.4 -5.0 M2.1 -3.5 L0.95 -4.0" fill="none" stroke="#92dac5" stroke-linecap="round" stroke-linejoin="round" stroke-width="0.05"/>
    <path d="M1.4 0.0 L1.6 -4.75 -0.6 -4.2 0.2 12.65 0.4 12.85 0.25 0.8 0.85 0.9 1.4 0.0" fill="#482f15" fill-rule="evenodd" stroke="none"/>
    <path d="M0.4 12.85 Q0.75 12.95 0.8 12.5 L1.4 0.0 0.85 0.9 0.25 0.8 0.4 12.85" fill="#825426" fill-rule="evenodd" stroke="none"/>
    <path d="M1.4 0.0 L1.6 -4.75 -0.6 -4.2 0.2 12.65 0.4 12.85 Q0.75 12.95 0.8 12.5 L1.4 0.0 Z" fill="none" stroke="#000000" stroke-linecap="round" stroke-linejoin="round" stroke-opacity="0.5019608" stroke-width="0.05"/>
    <path d="M-9.8 0.6 L-9.75 -0.15 -9.3 -2.1 Q-11.1 -1.85 -12.95 -0.4 L-12.9 -0.35 -13.25 0.9 -12.9 -0.35 -12.95 -0.4 Q-11.1 -1.85 -9.3 -2.1 L-8.85 -2.8 Q-7.65 -3.9 -6.25 -4.15 -4.9 -4.45 -3.7 -4.15 L-2.4 -3.8 Q-2.25 -3.7 -2.15 -3.7 L-2.0 -3.65 Q-1.4 -3.15 -1.15 -2.5 -0.7 -1.25 -1.6 0.7 -0.7 -0.75 0.05 -2.3 L0.15 -3.2 0.0 -3.7 -0.45 -4.4 Q-0.95 -4.85 -1.8 -4.9 L-6.7 -4.8 Q-9.0 -4.6 -11.4 -3.7 L-13.25 -2.65 -14.3 -1.65 Q-15.6 0.05 -15.2 2.5 L-14.9 3.85 Q-14.2 5.9 -12.6 6.85 L-11.65 7.2 Q-10.0 7.7 -8.05 6.8 L-8.0 6.8 Q-5.9 5.8 -4.15 3.95 -5.7 4.95 -7.2 5.55 L-8.15 5.85 -8.05 6.8 -8.15 5.85 -10.4 5.8 -10.9 5.65 -11.4 6.35 -10.9 5.65 Q-12.05 5.2 -11.5 4.35 L-10.9 3.45 -10.4 2.6 Q-10.0 2.0 -9.8 0.6 L-10.45 0.85 -9.8 0.6 M-13.25 0.9 Q-12.85 0.55 -12.3 0.5 L-11.05 0.3 -11.0 0.3 Q-10.5 0.3 -10.45 0.85 L-10.4 1.0 Q-10.4 1.7 -10.95 2.35 -11.4 2.95 -12.1 2.85 L-13.3 2.5 -13.65 2.25 -13.8 1.8 -13.75 1.5 -13.4 1.0 -13.25 0.9 M-13.4 -0.8 L-12.95 -0.4 -13.4 -0.8 -13.95 0.05 -14.4 1.05 -14.4 -0.15 -14.35 -0.2 -13.7 -1.15 Q-12.05 -3.15 -9.3 -3.3 -11.9 -2.8 -13.4 -0.8 M-14.1 3.4 L-14.05 3.45 -13.65 2.25 -14.05 3.45 -14.1 3.4 M-14.3 -1.65 L-13.7 -1.15 -14.3 -1.65 M-11.65 7.2 L-11.45 6.45 -13.2 5.2 -13.2 5.15 -14.05 3.45 -14.9 3.85 -14.05 3.45 -13.2 5.15 -13.2 5.2 -11.45 6.45 -11.65 7.2 M-11.45 6.45 L-11.45 6.4 -11.45 6.45 -11.35 6.5 -11.45 6.45 M-13.2 5.15 L-10.9 3.45 -13.2 5.15 M0.0 -3.7 L-1.15 -2.5 0.0 -3.7 M-0.45 -4.4 L-2.4 -3.8 -0.45 -4.4" fill="#c9ede1" fill-rule="evenodd" stroke="none"/>
    <path d="M-9.15 0.25 Q-8.75 0.95 -9.45 2.25 -10.2 3.55 -9.05 4.1 L-6.2 4.15 Q-4.55 3.65 -3.35 2.4 -2.2 1.15 -2.2 -0.15 -2.2 -0.9 -2.5 -1.6 -2.8 -2.45 -3.35 -2.75 L-6.2 -2.8 Q-7.85 -2.3 -8.7 -1.4 -9.55 -0.45 -9.15 0.25 M-13.4 -0.8 Q-11.9 -2.8 -9.3 -3.3 -12.05 -3.15 -13.7 -1.15 L-14.35 -0.2 -14.4 -0.15 -14.4 1.05 -13.95 0.05 -13.4 -0.8 -13.7 -1.15 -13.4 -0.8 M-5.25 -0.55 L-5.4 -0.85 -5.4 -0.9 -5.25 -1.3 -4.75 -1.6 -4.4 -1.3 -4.2 -1.35 -3.15 -1.2 Q-2.7 -0.85 -2.7 -0.2 -2.7 0.5 -3.15 1.1 -3.6 1.7 -4.2 1.9 L-5.3 1.75 Q-5.75 1.4 -5.75 0.7 -5.75 0.05 -5.3 -0.55 L-5.25 -0.55" fill="#f5fcfa" fill-rule="evenodd" stroke="none"/>
    <path d="M-9.3 -2.1 L-9.75 -0.15 -9.8 0.6 -9.7 0.5 -9.8 0.6 Q-10.0 2.0 -10.4 2.6 L-10.9 3.45 -11.5 4.35 Q-12.05 5.2 -10.9 5.65 L-10.4 5.8 -8.15 5.85 -7.2 5.55 Q-5.7 4.95 -4.15 3.95 L-3.5 3.25 -1.6 0.7 Q-0.7 -1.25 -1.15 -2.5 -1.4 -3.15 -2.0 -3.65 L-2.15 -3.7 Q-2.25 -3.7 -2.4 -3.8 L-3.7 -4.15 Q-4.9 -4.45 -6.25 -4.15 -7.65 -3.9 -8.85 -2.8 L-9.3 -2.1 -9.15 -2.2 -9.3 -2.1 M-9.15 0.25 Q-9.55 -0.45 -8.7 -1.4 -7.85 -2.3 -6.2 -2.8 L-3.35 -2.75 Q-2.8 -2.45 -2.5 -1.6 -2.2 -0.9 -2.2 -0.15 -2.2 1.15 -3.35 2.4 -4.55 3.65 -6.2 4.15 L-9.05 4.1 Q-10.2 3.55 -9.45 2.25 -8.75 0.95 -9.15 0.25 M-8.2 5.7 L-8.15 5.85 -8.2 5.7" fill="#a6d3db" fill-rule="evenodd" stroke="none"/>
    <path d="M-10.45 0.85 Q-10.5 0.3 -11.0 0.3 L-11.05 0.3 -12.3 0.5 Q-12.85 0.55 -13.25 0.9 L-13.4 1.0 -13.75 1.5 -13.8 1.8 -13.65 2.25 -13.3 2.5 -12.1 2.85 Q-11.4 2.95 -10.95 2.35 -10.4 1.7 -10.4 1.0 L-10.45 0.85 -13.6 2.05 -13.25 0.9 -13.6 2.05 -10.45 0.85 M-13.7 2.05 L-13.6 2.05 -13.65 2.25 -13.6 2.05 -13.7 2.05 M-5.25 -0.55 L-5.15 -0.35 -4.85 -0.1 -4.6 -0.1 -4.5 -0.2 Q-4.35 -0.4 -4.35 -0.65 L-4.4 -1.25 -4.4 -1.3 -4.75 -1.6 -5.25 -1.3 -5.4 -0.9 -5.4 -0.85 -5.25 -0.55" fill="#ffffff" fill-rule="evenodd" stroke="none"/>
    <path d="M-4.4 -1.3 L-4.4 -1.25 -4.35 -0.65 Q-4.35 -0.4 -4.5 -0.2 L-4.6 -0.1 -4.85 -0.1 -5.15 -0.35 -5.25 -0.55 -5.3 -0.55 Q-5.75 0.05 -5.75 0.7 -5.75 1.4 -5.3 1.75 L-4.2 1.9 Q-3.6 1.7 -3.15 1.1 -2.7 0.5 -2.7 -0.2 -2.7 -0.85 -3.15 -1.2 L-4.2 -1.35 -4.4 -1.3" fill="#33737d" fill-rule="evenodd" stroke="none"/>
    <path d="M-1.6 0.7 L-3.5 3.25 -4.15 3.95 Q-5.9 5.8 -8.0 6.8 L-8.05 6.8 Q-10.0 7.7 -11.65 7.2 L-12.6 6.85 Q-14.2 5.9 -14.9 3.85 L-15.2 2.5 Q-15.6 0.05 -14.3 -1.65 L-13.25 -2.65 -11.4 -3.7 Q-9.0 -4.6 -6.7 -4.8 L-1.8 -4.9 Q-0.95 -4.85 -0.45 -4.4 L0.0 -3.7 0.15 -3.2 0.05 -2.3 Q-0.7 -0.75 -1.6 0.7" fill="none" stroke="#33737d" stroke-linecap="round" stroke-linejoin="round" stroke-width="0.05"/>
    <path d="M-9.8 0.6 L-10.45 0.85 -13.6 2.05 -13.25 0.9 -12.9 -0.35 -12.95 -0.4 Q-11.1 -1.85 -9.3 -2.1 L-9.15 -2.2 M-8.15 5.85 L-8.2 5.7 M-13.65 2.25 L-14.05 3.45 -14.1 3.4 M-12.95 -0.4 L-13.4 -0.8 -13.7 -1.15 -14.3 -1.65 M-14.9 3.85 L-14.05 3.45 -13.2 5.15 -13.2 5.2 -11.45 6.45 -11.65 7.2 M-13.65 2.25 L-13.6 2.05 -13.7 2.05 M-11.45 6.45 L-11.35 6.5 M-11.45 6.4 L-11.45 6.45 M-9.8 0.6 L-9.7 0.5 M-10.9 3.45 L-13.2 5.15 M-8.15 5.85 L-8.05 6.8 M-10.9 5.65 L-11.4 6.35 M-2.4 -3.8 L-0.45 -4.4 M-1.15 -2.5 L0.0 -3.7" fill="none" stroke="#92dac5" stroke-linecap="round" stroke-linejoin="round" stroke-width="0.05"/>
    <path d="M1.85 -4.0 L1.85 -3.85 1.85 -4.0 1.85 -4.2 1.85 -4.35 1.85 -4.0 M0.05 -1.15 L0.05 -1.1 -0.05 -1.25 0.05 -1.15" fill="#4a6060" fill-rule="evenodd" stroke="none"/>
    <path d="M1.85 -4.0 L1.85 -3.85 1.85 -4.0 1.85 -4.35 1.85 -4.45 2.15 -4.4 1.65 -5.45 1.45 -6.0 Q1.05 -6.65 0.5 -6.5 -0.05 -6.35 -0.45 -5.4 L-0.55 -5.1 -1.1 -4.2 -1.0 -4.15 -1.3 -3.4 -1.2 -3.4 -0.45 -3.75 -0.65 -2.9 -0.25 -3.25 -0.1 -2.35 0.35 -3.05 0.7 -2.15 0.85 -2.95 1.55 -2.75 1.35 -3.35 1.85 -3.25 2.15 -3.3 1.85 -4.0 M0.2 -3.95 L0.05 -3.45 -0.2 -4.1 0.2 -3.95 M1.55 -4.65 L1.15 -4.2 0.95 -5.0 1.55 -4.65" fill="#a86c31" fill-rule="evenodd" stroke="none"/>
    <path d="M1.85 -3.25 L1.35 -3.35 1.55 -2.75 0.85 -2.95 0.7 -2.15 0.35 -3.05 -0.1 -2.35 -0.25 -3.25 -0.65 -2.9 -0.45 -3.75 -1.2 -3.4 -0.9 -3.45 -1.1 -2.5 -0.85 -2.75 -0.9 -1.25 -0.55 -1.9 -0.45 -1.7 -0.55 -0.7 0.05 -1.15 -0.05 -1.25 0.05 -1.1 0.25 -0.6 0.45 -1.15 0.5 -1.25 0.8 -1.3 1.05 -1.0 1.15 -1.65 1.55 -1.25 1.65 -2.05 1.9 -2.2 1.85 -3.25 M1.55 -4.65 L0.95 -5.0 1.15 -4.2 1.55 -4.65 M0.2 -3.95 L-0.2 -4.1 0.05 -3.45 0.2 -3.95" fill="#895827" fill-rule="evenodd" stroke="none"/>
    <path d="M1.85 -4.0 L1.85 -4.35 1.85 -4.2 1.85 -4.0 2.15 -3.3 1.85 -3.25 1.9 -2.2 1.65 -2.05 1.55 -1.25 1.15 -1.65 1.05 -1.0 0.8 -1.3 0.5 -1.25 0.45 -1.15 0.25 -0.6 0.05 -1.1 0.05 -1.15 -0.55 -0.7 -0.45 -1.7 -0.55 -1.9 -0.9 -1.25 -0.85 -2.75 -1.1 -2.5 -0.9 -3.45 -1.2 -3.4 -1.3 -3.4 -1.0 -4.15 -1.1 -4.2 -0.55 -5.1 -0.45 -5.4 Q-0.05 -6.35 0.5 -6.5 1.05 -6.65 1.45 -6.0 L1.65 -5.45 2.15 -4.4 1.85 -4.45 1.85 -4.35" fill="none" stroke="#000000" stroke-linecap="round" stroke-linejoin="round" stroke-opacity="0.5019608" stroke-width="0.05"/>
    <path d="M0.5 -7.55 L0.3 -7.9 -0.1 -7.8 -0.45 -7.25 -0.5 -6.6 Q-0.5 -6.3 -0.3 -6.25 -0.15 -6.15 0.0 -6.4 L0.3 -6.95 0.5 -7.55 M0.4 -7.6 L0.3 -7.35 0.1 -7.2 -0.15 -7.2 -0.25 -7.45 -0.15 -7.7 0.1 -7.85 0.3 -7.85 0.4 -7.6" fill="#cce03a" fill-rule="evenodd" stroke="none"/>
    <path d="M0.4 -7.6 L0.3 -7.85 0.1 -7.85 -0.15 -7.7 -0.25 -7.45 -0.15 -7.2 0.1 -7.2 0.3 -7.35 0.4 -7.6" fill="#f8eeb8" fill-rule="evenodd" stroke="none"/>
    <path d="M0.5 -7.55 L0.3 -6.95 0.0 -6.4 Q-0.15 -6.15 -0.3 -6.25 -0.5 -6.3 -0.5 -6.6 L-0.45 -7.25 -0.1 -7.8 0.3 -7.9 0.5 -7.55 Z" fill="none" stroke="#000000" stroke-linecap="round" stroke-linejoin="round" stroke-opacity="0.5019608" stroke-width="0.05"/>
    <path d="M1.65 -7.9 L1.3 -8.2 0.95 -8.1 0.75 -7.65 Q0.75 -7.4 0.9 -7.15 L1.25 -6.75 1.55 -6.8 1.75 -7.3 1.65 -7.9 M1.1 -7.5 L0.9 -7.55 0.8 -7.75 0.9 -8.05 1.1 -8.15 1.35 -8.15 1.45 -7.95 1.35 -7.65 1.1 -7.5" fill="#cce03a" fill-rule="evenodd" stroke="none"/>
    <path d="M1.1 -7.5 L1.35 -7.65 1.45 -7.95 1.35 -8.15 1.1 -8.15 0.9 -8.05 0.8 -7.75 0.9 -7.55 1.1 -7.5" fill="#f8eeb8" fill-rule="evenodd" stroke="none"/>
    <path d="M1.65 -7.9 L1.3 -8.2 0.95 -8.1 0.75 -7.65 Q0.75 -7.4 0.9 -7.15 L1.25 -6.75 1.55 -6.8 1.75 -7.3 1.65 -7.9 Z" fill="none" stroke="#000000" stroke-linecap="round" stroke-linejoin="round" stroke-opacity="0.5019608" stroke-width="0.05"/>
  </g>
</svg>
