<?xml version="1.0" encoding="UTF-8" standalone="no"?>
<svg xmlns:xlink="http://www.w3.org/1999/xlink" height="148.7px" width="147.2px" xmlns="http://www.w3.org/2000/svg">
  <g transform="matrix(1.0, 0.0, 0.0, 1.0, 73.6, 74.35)">
    <path d="M3.65 -69.9 L1.4 -70.3 0.55 -70.55 -1.75 -71.05 -2.25 -71.1 -6.4 -70.75 -6.45 -70.75 -7.7 -70.5 -10.0 -69.7 -10.7 -69.3 -11.45 -68.8 -12.05 -68.35 Q-11.8 -63.0 -13.4 -58.1 L-13.95 -55.9 Q-14.5 -51.9 -16.55 -48.3 L-20.95 -47.7 Q-13.95 -58.65 -12.95 -67.55 L-12.85 -68.95 -12.2 -69.8 -12.15 -69.85 Q-9.45 -73.2 -6.4 -73.75 -5.2 -73.95 -3.95 -73.75 1.3 -72.9 3.65 -69.9" fill="#eae1bf" fill-rule="evenodd" stroke="none"/>
    <path d="M-6.45 -70.75 L-6.4 -70.75 -2.25 -71.1 -1.75 -71.05 0.55 -70.55 1.4 -70.3 3.65 -69.9 3.05 -68.7 Q1.05 -65.0 -0.05 -61.35 L-0.25 -60.4 -0.4 -59.5 -0.7 -60.0 -0.95 -61.8 -1.35 -63.6 Q-1.9 -65.45 -3.1 -66.3 L-3.05 -61.35 Q-3.0 -57.1 -4.95 -53.6 L-5.25 -54.1 -5.8 -56.35 -6.3 -60.85 Q-7.45 -56.15 -10.3 -51.8 L-12.4 -48.55 -15.05 -48.45 -14.15 -50.1 Q-10.8 -56.1 -8.35 -62.65 -7.2 -65.8 -6.6 -69.0 L-6.5 -69.95 -6.45 -70.75" fill="#c1a846" fill-rule="evenodd" stroke="none"/>
    <path d="M-16.55 -48.3 Q-14.5 -51.9 -13.95 -55.9 L-13.4 -58.1 Q-11.8 -63.0 -12.05 -68.35 L-11.45 -68.8 -10.7 -69.3 -10.0 -69.7 -7.7 -70.5 -6.45 -70.75 -6.5 -69.95 -6.6 -69.0 Q-7.2 -65.8 -8.35 -62.65 -10.8 -56.1 -14.15 -50.1 L-15.05 -48.45 -16.55 -48.3" fill="#d2c079" fill-rule="evenodd" stroke="none"/>
    <path d="M-12.4 -48.55 L-10.3 -51.8 Q-7.45 -56.15 -6.3 -60.85 L-5.8 -56.35 -5.25 -54.1 -4.95 -53.6 Q-3.0 -57.1 -3.05 -61.35 L-3.1 -66.3 Q-1.9 -65.45 -1.35 -63.6 L-0.95 -61.8 -0.7 -60.0 -0.4 -59.5 -0.25 -60.4 -0.05 -61.35 Q1.05 -65.0 3.05 -68.7 L3.65 -69.9 Q4.65 -68.6 5.15 -66.9 1.4 -56.9 3.65 -44.4 L2.15 -45.2 2.15 -45.25 Q0.8 -51.6 1.4 -58.15 0.6 -55.65 0.1 -53.15 -0.4 -50.95 -1.15 -49.3 L-1.6 -50.0 -1.95 -51.75 Q-2.3 -53.15 -2.25 -54.65 L-2.45 -54.65 -4.2 -50.2 -5.15 -47.8 -12.4 -48.55" fill="#998433" fill-rule="evenodd" stroke="none"/>
    <path d="M-5.15 -47.8 L-4.2 -50.2 -2.45 -54.65 -2.25 -54.65 Q-2.3 -53.15 -1.95 -51.75 L-1.6 -50.0 -1.15 -49.3 Q-0.4 -50.95 0.1 -53.15 0.6 -55.65 1.4 -58.15 0.8 -51.6 2.15 -45.25 L2.15 -45.2 Q-1.3 -46.95 -5.15 -47.8" fill="#6f6025" fill-rule="evenodd" stroke="none"/>
    <path d="M3.65 -69.9 Q1.3 -72.9 -3.95 -73.75 -5.2 -73.95 -6.4 -73.75 -9.45 -73.2 -12.15 -69.85 L-12.2 -69.8 -12.85 -68.95 -12.95 -67.55 Q-13.95 -58.65 -20.95 -47.7 L-16.55 -48.3 -15.05 -48.45 -12.4 -48.55 -5.15 -47.8 Q-1.3 -46.95 2.15 -45.2 L3.65 -44.4 Q1.4 -56.9 5.15 -66.9 4.65 -68.6 3.65 -69.9 Z" fill="none" stroke="#000000" stroke-linecap="round" stroke-linejoin="round" stroke-opacity="0.4" stroke-width="1.0"/>
    <path d="M-20.45 -50.25 L-28.0 -44.9 Q-21.2 -44.65 -14.4 -45.1 1.3 -46.2 7.45 -36.3 L-3.6 -34.3 Q-6.35 -41.75 -15.15 -41.8 -20.1 -41.8 -24.7 -39.85 -38.5 -34.15 -51.75 -33.4 -38.4 -46.55 -20.45 -50.25 M-31.55 -9.95 L-33.55 -9.8 -33.55 -9.85 Q-11.6 -23.05 13.85 -19.25 16.35 -16.0 15.4 -11.95 13.9 -5.65 8.95 -1.75 L8.5 -8.9 Q-1.4 10.1 -25.15 13.75 -29.3 14.35 -32.3 11.5 -41.7 2.7 -31.55 -9.95" fill="#eae1bf" fill-rule="evenodd" stroke="none"/>
    <path d="M-51.75 -33.4 Q-38.5 -34.15 -24.7 -39.85 -20.1 -41.8 -15.15 -41.8 -6.35 -41.75 -3.6 -34.3 L7.45 -36.3 Q1.3 -46.2 -14.4 -45.1 -21.2 -44.65 -28.0 -44.9 L-20.45 -50.25 -19.4 -50.45 Q6.7 -53.85 16.6 -33.2 10.0 -31.85 2.35 -28.95 -7.0 -24.65 -15.35 -18.55 -1.35 -25.2 14.0 -25.05 L19.2 -20.9 Q34.4 -7.15 18.7 3.05 L17.95 2.15 Q15.25 -1.35 15.55 -5.9 L15.2 -3.1 Q14.45 1.6 10.75 4.25 -6.0 16.2 -27.55 19.55 -30.75 20.2 -33.65 18.6 -47.05 11.5 -39.15 -3.35 L-49.35 6.05 -46.0 -4.1 -46.4 -4.9 -34.1 -35.25 Q-37.15 -34.1 -39.9 -32.5 -47.45 -28.35 -55.35 -25.65 L-51.85 -33.35 -51.8 -33.35 -51.75 -33.4 M43.4 -1.2 L43.35 -1.25 43.5 -1.4 43.4 -1.2 M-31.55 -9.95 Q-41.7 2.7 -32.3 11.5 -29.3 14.35 -25.15 13.75 -1.4 10.1 8.5 -8.9 L8.95 -1.75 Q13.9 -5.65 15.4 -11.95 16.35 -16.0 13.85 -19.25 -11.6 -23.05 -33.55 -9.85 L-33.55 -9.8 -31.55 -9.95 M-63.4 -18.9 L-63.1 -18.7 -63.5 -18.8 -63.4 -18.9" fill="#d2c079" fill-rule="evenodd" stroke="none"/>
    <path d="M-51.85 -33.35 L-55.35 -25.65 Q-47.45 -28.35 -39.9 -32.5 -37.15 -34.1 -34.1 -35.25 L-46.4 -4.9 -46.0 -4.1 -49.35 6.05 -39.15 -3.35 Q-47.05 11.5 -33.65 18.6 -30.75 20.2 -27.55 19.55 -6.0 16.2 10.75 4.25 14.45 1.6 15.2 -3.1 L15.55 -5.9 Q15.25 -1.35 17.95 2.15 L18.7 3.05 Q34.4 -7.15 19.2 -20.9 L14.0 -25.05 Q-1.35 -25.2 -15.35 -18.55 -7.0 -24.65 2.35 -28.95 10.0 -31.85 16.6 -33.2 29.2 -35.85 38.0 -33.0 40.65 -22.75 40.55 -12.5 40.45 -0.1 30.85 9.1 33.6 7.9 36.2 6.05 40.3 3.0 43.35 -1.25 L43.4 -1.2 38.1 7.85 Q27.85 25.65 7.95 31.3 L7.45 31.1 13.3 14.95 13.0 14.85 Q2.7 21.3 -8.3 26.75 -15.5 30.4 -22.25 34.75 -33.05 41.6 -42.95 33.8 -45.0 32.25 -46.15 30.3 -51.5 21.1 -45.85 9.55 -50.05 17.3 -53.9 25.25 -55.2 28.0 -55.9 31.1 -60.25 23.85 -58.6 15.95 -55.9 2.9 -47.25 -7.4 L-49.7 -5.6 Q-53.3 -2.8 -56.25 0.6 L-60.95 6.3 -59.05 1.65 Q-52.5 -13.35 -42.05 -26.05 L-42.25 -26.2 Q-47.7 -22.05 -52.3 -17.2 L-59.95 -8.9 -59.85 -24.05 Q-56.1 -29.2 -51.85 -33.35" fill="#c1a846" fill-rule="evenodd" stroke="none"/>
    <path d="M-59.85 -24.05 L-59.95 -8.9 -52.3 -17.2 Q-47.7 -22.05 -42.25 -26.2 L-42.05 -26.05 Q-52.5 -13.35 -59.05 1.65 L-60.95 6.3 -56.25 0.6 Q-53.3 -2.8 -49.7 -5.6 L-47.25 -7.4 Q-55.9 2.9 -58.6 15.95 -60.25 23.85 -55.9 31.1 -55.2 28.0 -53.9 25.25 -50.05 17.3 -45.85 9.55 -51.5 21.1 -46.15 30.3 -45.0 32.25 -42.95 33.8 -33.05 41.6 -22.25 34.75 -15.5 30.4 -8.3 26.75 2.7 21.3 13.0 14.85 L13.3 14.95 7.45 31.1 7.95 31.3 Q27.85 25.65 38.1 7.85 L43.4 -1.2 43.5 -1.4 43.35 -1.25 Q40.3 3.0 36.2 6.05 33.6 7.9 30.85 9.1 40.45 -0.1 40.55 -12.5 40.65 -22.75 38.0 -33.0 47.4 -30.05 52.5 -20.85 54.5 -15.9 55.0 -10.75 43.85 15.6 21.5 32.95 8.0 43.45 -6.75 52.4 L-2.2 36.7 -2.45 36.55 Q-23.65 69.15 -48.65 45.55 -51.5 42.85 -52.35 38.7 L-52.85 57.45 Q-72.75 21.35 -63.1 -18.7 L-63.4 -18.9 -62.85 -19.8 -59.85 -24.05" fill="#998433" fill-rule="evenodd" stroke="none"/>
    <path d="M-63.1 -18.7 Q-72.75 21.35 -52.85 57.45 L-52.35 38.7 Q-51.5 42.85 -48.65 45.55 -23.65 69.15 -2.45 36.55 L-2.2 36.7 -6.75 52.4 Q8.0 43.45 21.5 32.95 43.85 15.6 55.0 -10.75 56.25 3.8 45.15 20.0 21.2 51.9 -21.95 68.35 -51.85 79.35 -58.95 68.35 -68.5 53.35 -71.85 32.15 -76.55 4.85 -63.5 -18.8 L-63.1 -18.7" fill="#6f6025" fill-rule="evenodd" stroke="none"/>
    <path d="M-20.45 -50.25 Q-38.4 -46.55 -51.75 -33.4 L-51.8 -33.35 -51.85 -33.35 Q-56.1 -29.2 -59.85 -24.05 L-62.85 -19.8 -63.4 -18.9 -63.5 -18.8 Q-76.55 4.85 -71.85 32.15 -68.5 53.35 -58.95 68.35 -51.85 79.35 -21.95 68.35 21.2 51.9 45.15 20.0 56.25 3.8 55.0 -10.75 54.5 -15.9 52.5 -20.85 47.4 -30.05 38.0 -33.0 29.2 -35.85 16.6 -33.2 6.7 -53.85 -19.4 -50.45 L-20.45 -50.25 M2.35 -28.95 Q10.0 -31.85 16.6 -33.2" fill="none" stroke="#000000" stroke-linecap="round" stroke-linejoin="round" stroke-opacity="0.4" stroke-width="1.0"/>
    <path d="M34.8 -23.85 Q42.1 -25.8 49.1 -29.55 L49.4 -29.7 52.0 -31.15 57.85 -35.0 Q58.75 -35.5 59.65 -35.25 L60.15 -35.05 59.25 -34.35 Q58.55 -33.0 57.15 -31.9 L53.95 -29.7 52.85 -28.95 Q51.6 -27.85 49.9 -27.0 L41.9 -23.05 41.15 -22.8 40.65 -22.65 34.2 -21.85 Q33.95 -22.55 34.2 -23.1 L34.8 -23.85 M70.5 -7.55 L70.7 -7.15 68.05 -5.7 Q66.95 -5.1 65.75 -5.0 L57.65 -4.5 50.4 -5.2 44.1 -6.8 Q44.1 -8.8 45.7 -9.1 57.2 -6.05 70.5 -7.55" fill="#eae1bf" fill-rule="evenodd" stroke="none"/>
    <path d="M34.2 -21.85 L40.65 -22.65 34.75 -20.8 34.2 -21.85 M41.9 -23.05 L49.9 -27.0 Q51.6 -27.85 52.85 -28.95 L53.95 -29.7 57.15 -31.9 Q58.55 -33.0 59.25 -34.35 L60.15 -35.05 Q61.25 -34.5 62.4 -32.7 64.85 -28.4 63.65 -26.15 L59.55 -25.05 Q58.45 -25.75 57.55 -26.75 56.5 -27.9 56.25 -29.15 L56.25 -29.3 55.5 -29.05 Q54.5 -28.9 53.55 -28.2 49.45 -24.95 44.55 -23.85 L43.1 -23.45 41.9 -23.05 M58.85 -33.2 Q58.15 -29.3 61.4 -28.4 61.8 -31.65 58.85 -33.2 M44.1 -6.8 L50.4 -5.2 57.65 -4.5 65.75 -5.0 Q66.95 -5.1 68.05 -5.7 L70.7 -7.15 70.5 -7.55 71.15 -7.45 Q73.0 -6.95 73.1 -3.2 72.9 1.9 70.75 3.35 68.9 2.65 67.0 2.25 66.45 0.95 66.2 -0.55 65.95 -2.5 66.4 -3.6 L49.05 -3.0 44.9 -3.25 Q44.1 -5.45 44.1 -6.8 M70.4 -5.4 Q67.8 -2.3 70.05 0.2 73.35 -2.6 70.4 -5.4" fill="#d2c079" fill-rule="evenodd" stroke="none"/>
    <path d="M40.65 -22.65 L41.15 -22.8 41.9 -23.05 43.1 -23.45 44.55 -23.85 Q49.45 -24.95 53.55 -28.2 54.5 -28.9 55.5 -29.05 L56.25 -29.3 56.25 -29.15 Q56.5 -27.9 57.55 -26.75 58.45 -25.75 59.55 -25.05 L56.95 -24.05 56.6 -24.45 Q56.3 -24.8 55.85 -24.8 L55.4 -24.8 52.25 -24.05 50.35 -23.45 49.25 -22.95 Q46.65 -21.1 43.65 -19.95 40.95 -18.95 38.65 -17.45 35.8 -19.35 34.75 -20.8 L40.65 -22.65 M61.4 -28.4 Q58.15 -29.3 58.85 -33.2 61.8 -31.65 61.4 -28.4 M44.9 -3.25 L49.05 -3.0 66.4 -3.6 Q65.95 -2.5 66.2 -0.55 66.45 0.95 67.0 2.25 L65.5 2.0 Q65.15 0.8 64.2 -0.35 62.25 -2.75 59.05 -2.15 54.65 -1.25 49.95 -1.4 L47.3 -1.8 45.25 -2.3 44.9 -3.25 M70.05 0.2 Q67.8 -2.3 70.4 -5.4 73.35 -2.6 70.05 0.2" fill="#c1a846" fill-rule="evenodd" stroke="none"/>
    <path d="M56.95 -24.05 Q50.1 -21.05 43.65 -14.45 40.65 -16.05 38.65 -17.45 40.95 -18.95 43.65 -19.95 46.65 -21.1 49.25 -22.95 L50.35 -23.45 52.25 -24.05 55.4 -24.8 55.85 -24.8 Q56.3 -24.8 56.6 -24.45 L56.95 -24.05 M45.25 -2.3 L47.3 -1.8 49.95 -1.4 Q54.65 -1.25 59.05 -2.15 62.25 -2.75 64.2 -0.35 65.15 0.8 65.5 2.0 57.75 0.85 48.25 3.8 46.3 0.25 45.25 -2.3" fill="#998433" fill-rule="evenodd" stroke="none"/>
    <path d="M60.15 -35.05 L59.65 -35.25 Q58.75 -35.5 57.85 -35.0 L52.0 -31.15 49.4 -29.7 49.1 -29.55 Q42.1 -25.8 34.8 -23.85 M60.15 -35.05 Q61.25 -34.5 62.4 -32.7 64.85 -28.4 63.65 -26.15 L59.55 -25.05 56.95 -24.05 Q50.1 -21.05 43.65 -14.45 M61.4 -28.4 Q58.15 -29.3 58.85 -33.2" fill="none" stroke="#000000" stroke-linecap="round" stroke-linejoin="round" stroke-opacity="0.4" stroke-width="1.0"/>
    <path d="M70.5 -7.55 Q57.2 -6.05 45.7 -9.1 M67.0 2.25 Q68.9 2.65 70.75 3.35 72.9 1.9 73.1 -3.2 73.0 -6.95 71.15 -7.45 L70.5 -7.55 M65.5 2.0 L67.0 2.25 M48.25 3.8 Q57.75 0.85 65.5 2.0 M70.05 0.2 Q67.8 -2.3 70.4 -5.4" fill="none" stroke="#000000" stroke-linecap="round" stroke-linejoin="round" stroke-opacity="0.4" stroke-width="1.0"/>
    <path d="M-66.0 44.7 Q-67.3 41.2 -68.45 36.8 -70.15 30.75 -70.6 27.35 L-69.55 25.5 Q-61.95 12.4 -50.05 3.95 -44.0 -0.65 -38.05 -3.35 -37.55 2.0 -31.85 12.85 -39.05 15.15 -46.25 20.8 -59.15 29.6 -66.0 44.7 M-33.7 28.75 L-33.0 29.9 Q-30.45 34.15 -25.75 39.35 -33.75 40.4 -42.0 46.8 -49.85 52.2 -54.85 60.85 -58.7 57.05 -59.9 55.05 L-60.1 54.75 -60.0 54.65 Q-54.05 42.15 -43.2 34.55 -38.45 30.75 -33.7 28.75 M11.2 49.1 L12.05 51.05 4.95 55.5 2.6 52.0 4.1 50.9 11.2 49.1 M-39.2 73.0 L-39.0 72.25 Q-36.35 61.95 -29.35 57.5 -21.55 51.35 -13.8 55.1 -8.8 56.65 -6.0 61.4 -13.6 65.15 -21.95 68.35 -31.6 71.9 -38.8 73.15 L-39.2 73.0" fill="#b45c07" fill-rule="evenodd" stroke="none"/>
    <path d="M24.55 25.0 Q27.1 30.9 28.95 37.85 L19.75 45.55 Q18.5 41.35 16.85 37.7 L16.7 37.35 Q19.55 33.45 24.55 25.0 M9.6 45.9 L11.2 49.1 4.1 50.9 9.6 45.9" fill="#f79433" fill-rule="evenodd" stroke="none"/>
    <path d="M-3.3 46.05 L-2.65 45.35 3.6 37.75 3.65 37.85 Q7.05 41.25 9.6 45.9 L4.1 50.9 2.6 52.0 2.0 51.25 Q-0.4 48.25 -3.3 46.05 M18.7 14.8 Q21.95 19.4 24.55 25.0 19.55 33.45 16.7 37.35 14.1 32.0 10.75 27.75 14.75 23.15 18.7 14.8" fill="#fbc895" fill-rule="evenodd" stroke="none"/>
    <path d="M-31.85 12.85 Q-37.55 2.0 -38.05 -3.35 -20.45 -11.25 -3.2 -2.75 L0.2 -1.0 Q4.85 1.3 8.9 4.45 14.4 8.8 18.7 14.8 14.75 23.15 10.75 27.75 4.6 19.9 -4.35 15.85 -18.1 8.4 -31.85 12.85 M-25.75 39.35 Q-30.45 34.15 -33.0 29.9 L-33.7 28.75 Q-28.85 26.5 -23.95 26.15 -16.1 25.5 -8.2 29.7 -1.4 32.45 3.6 37.75 L-2.65 45.35 -3.3 46.05 Q-6.6 43.55 -10.5 42.05 -13.8 40.35 -17.05 39.65 L-25.75 39.35" fill="#f9ae64" fill-rule="evenodd" stroke="none"/>
    <path d="M-70.6 27.35 Q-70.15 30.75 -68.45 36.8 -67.3 41.2 -66.0 44.7 L-67.8 49.2 Q-70.4 41.2 -71.85 32.15 L-72.1 30.4 -70.6 27.35 M-59.9 55.05 Q-58.7 57.05 -54.85 60.85 -56.75 64.15 -58.25 67.85 L-60.3 66.1 -62.85 61.4 Q-61.7 57.95 -60.2 54.85 L-59.9 55.05 M-38.8 73.15 L-39.25 73.25 -39.2 73.0 -38.8 73.15" fill="#723c05" fill-rule="evenodd" stroke="none"/>
    <path d="M-60.1 54.75 L-59.9 55.05 -60.2 54.85 -60.1 54.75" fill="#613305" fill-rule="evenodd" stroke="none"/>
    <path d="M-23.75 -14.85 L-32.95 -14.15 -31.05 -25.05 -31.05 -25.35 -30.8 -25.0 Q-28.1 -22.35 -23.65 -21.2 L-23.75 -14.85" fill="#f9ae64" fill-rule="evenodd" stroke="none"/>
    <path d="M-20.6 -19.7 L-18.55 -15.4 -23.75 -14.85 -23.65 -21.2 Q-22.25 -20.05 -20.6 -19.7" fill="#f48313" fill-rule="evenodd" stroke="none"/>
    <path d="M-31.05 -25.35 L-29.15 -36.85 -21.1 -20.45 -20.8 -20.1 Q-20.55 -20.0 -20.6 -19.7 -22.25 -20.05 -23.65 -21.2 -28.1 -22.35 -30.8 -25.0 L-31.05 -25.35" fill="#fbc895" fill-rule="evenodd" stroke="none"/>
    <path d="M26.3 -14.25 L20.85 4.3 10.85 -4.9 26.3 -14.25" fill="#f48313" fill-rule="evenodd" stroke="none"/>
    <path d="M-51.5 -12.2 L-44.95 -20.8 -36.7 -11.45 Q-43.85 -8.55 -50.75 -5.25 L-51.5 -12.2" fill="#f9ae64" fill-rule="evenodd" stroke="none"/>
    <path d="M-51.5 -12.2 L-53.75 -30.3 -44.95 -20.8 -51.5 -12.2" fill="#f48313" fill-rule="evenodd" stroke="none"/>
    <path d="M27.4 20.65 L22.2 10.75 36.9 9.45 27.4 20.65" fill="#f79433" fill-rule="evenodd" stroke="none"/>
  </g>
</svg>
