<?xml version="1.0" encoding="UTF-8" standalone="no"?>
<svg xmlns:xlink="http://www.w3.org/1999/xlink" height="194.1px" width="159.3px" xmlns="http://www.w3.org/2000/svg">
  <g transform="matrix(1.0, 0.0, 0.0, 1.0, -195.5, -102.65)">
    <path d="M287.2 289.05 L278.45 289.75 274.25 266.35 287.2 265.3 287.2 289.05" fill="#6b0101" fill-rule="evenodd" stroke="none"/>
    <path d="M340.3 283.45 L334.0 284.15 Q332.25 269.85 330.85 255.15 L340.3 254.1 340.3 283.45" fill="#6b0101" fill-rule="evenodd" stroke="none"/>
    <path d="M350.1 269.5 L343.8 270.2 Q342.05 255.85 340.65 241.2 L350.1 240.15 350.1 269.5" fill="#6b0101" fill-rule="evenodd" stroke="none"/>
    <path d="M244.55 295.7 L235.8 296.75 231.6 259.7 244.55 258.3 244.55 295.7" fill="#6b0101" fill-rule="evenodd" stroke="none"/>
    <path d="M213.2 274.4 L207.1 275.25 204.15 244.6 213.2 243.45 213.2 274.4" fill="#6b0101" fill-rule="evenodd" stroke="none"/>
    <path d="M297.35 189.3 L297.5 189.5 297.0 189.5 297.35 189.3" fill="#525252" fill-rule="evenodd" stroke="none"/>
    <path d="M303.45 208.0 L304.3 210.45 303.25 210.45 303.25 208.0 303.45 208.0 M306.05 235.25 L312.0 232.8 312.9 235.25 306.05 235.25 M242.1 235.25 L236.0 235.25 236.55 233.0 242.1 235.25" fill="#212121" fill-rule="evenodd" stroke="none"/>
    <path d="M197.2 256.75 Q196.0 254.55 196.0 252.05 196.05 240.85 219.6 229.3 225.4 226.55 236.2 223.75 L236.2 232.8 236.55 233.0 236.0 235.25 242.1 235.25 Q248.25 237.55 254.5 238.95 224.45 243.0 197.2 256.75" fill="#34415f" fill-rule="evenodd" stroke="none"/>
    <path d="M240.9 209.4 L248.95 167.3 247.9 163.25 249.7 124.65 250.7 103.15 269.9 138.45 272.15 208.35 Q291.05 201.0 294.9 203.45 299.4 206.15 302.55 205.4 L303.45 208.0 303.25 208.0 Q292.75 212.05 281.95 212.9 L274.25 213.25 Q266.3 213.2 258.2 211.5 L249.8 209.4 240.9 209.4 M249.7 124.65 L253.05 126.55 254.8 136.5 251.85 141.65 254.8 136.5 253.05 126.55 249.7 124.65 M252.85 125.6 L253.05 126.55 252.85 125.6 M261.35 144.3 L256.6 146.55 254.45 147.55 256.6 146.55 254.8 136.5 258.05 130.85 254.8 136.5 256.6 146.55 261.35 144.3 M261.05 167.9 L260.65 169.15 261.05 167.9 M261.35 188.25 L256.35 185.6 251.5 183.0 256.35 185.6 Q257.6 178.0 260.5 169.5 L260.65 169.15 256.6 146.55 260.65 169.15 260.5 169.5 Q257.6 178.0 256.35 185.6 L261.35 188.25 M256.35 185.6 Q254.0 199.6 257.1 210.55 254.0 199.6 256.35 185.6" fill="#425379" fill-rule="evenodd" stroke="none"/>
    <path d="M312.0 222.0 L312.7 222.15 Q318.35 224.1 323.55 226.35 L324.25 226.7 330.7 232.65 Q331.8 243.4 302.2 244.0 289.75 249.5 300.3 255.0 L262.05 259.7 240.2 262.85 237.55 263.2 236.55 263.4 236.55 263.55 Q231.0 265.9 225.5 268.3 L219.6 267.25 Q201.35 264.1 197.2 256.75 224.45 243.0 254.5 238.95 L258.2 239.8 Q266.2 241.25 274.25 241.2 289.15 241.15 304.15 235.95 L306.05 235.25 312.9 235.25 312.0 232.8 312.0 222.0 M247.95 250.25 L243.8 248.5 Q250.4 243.45 258.1 240.05 250.4 243.45 243.8 248.5 L247.95 250.25 M242.7 258.75 L234.85 256.55 Q239.05 252.1 243.8 248.5 239.05 252.1 234.85 256.55 L242.7 258.75 M243.8 248.5 L240.1 246.95 243.8 248.5 M229.9 255.15 L234.85 256.55 230.55 261.4 234.85 256.55 229.9 255.15" fill="#4f6391" fill-rule="evenodd" stroke="none"/>
    <path d="M312.0 221.1 Q325.55 224.3 331.25 226.85 L332.1 227.2 Q337.95 229.95 342.25 232.65 354.3 240.45 354.3 248.55 354.3 259.65 331.25 264.6 L319.0 266.7 Q311.4 268.4 303.1 269.5 L275.15 271.1 Q259.55 271.1 246.15 269.35 238.8 269.45 232.15 269.0 L225.5 268.3 Q231.0 265.9 236.55 263.55 L237.05 263.4 236.55 263.4 237.55 263.2 240.2 262.85 262.05 259.7 300.3 255.0 310.95 253.8 Q336.0 250.95 338.75 246.25 340.9 242.6 330.7 232.65 L324.25 226.7 323.55 226.35 Q318.35 224.1 312.7 222.15 L312.0 222.0 312.0 221.1" fill="#657aab" fill-rule="evenodd" stroke="none"/>
    <path d="M330.7 232.65 Q340.9 242.6 338.75 246.25 336.0 250.95 310.95 253.8 L300.3 255.0 Q289.75 249.5 302.2 244.0 331.8 243.4 330.7 232.65 M269.9 138.45 L297.35 189.3 297.0 189.5 302.55 205.4 Q299.4 206.15 294.9 203.45 291.05 201.0 272.15 208.35 L269.9 138.45" fill="#7b8db7" fill-rule="evenodd" stroke="none"/>
    <path d="M312.0 221.1 L312.0 222.0 312.0 232.8 306.05 235.25 304.15 235.95 Q289.15 241.15 274.25 241.2 266.2 241.25 258.2 239.8 L258.2 211.5 Q266.3 213.2 274.25 213.25 L281.95 212.9 Q292.75 212.05 303.25 208.0 L303.25 210.45 304.3 210.45 312.0 210.45 312.0 221.1" fill="#e4cb18" fill-rule="evenodd" stroke="none"/>
    <path d="M236.2 223.75 L236.2 209.4 240.9 209.4 249.8 209.4 258.2 211.5 258.2 239.8 254.5 238.95 Q248.25 237.55 242.1 235.25 L236.55 233.0 236.2 232.8 236.2 223.75" fill="#a79512" fill-rule="evenodd" stroke="none"/>
    <path d="M225.5 268.3 L232.15 269.0 Q238.8 269.45 246.15 269.35 259.55 271.1 275.15 271.1 L303.1 269.5 Q311.4 268.4 319.0 266.7 L331.25 264.6 Q354.3 259.65 354.3 248.55 354.3 240.45 342.25 232.65 337.95 229.95 332.1 227.2 L331.25 226.85 Q325.55 224.3 312.0 221.1 L312.0 210.45 304.3 210.45 303.45 208.0 302.55 205.4 297.0 189.5 M225.5 268.3 L219.6 267.25 Q201.35 264.1 197.2 256.75 196.0 254.55 196.0 252.05 196.05 240.85 219.6 229.3 225.4 226.55 236.2 223.75 L236.2 209.4 240.9 209.4 248.95 167.3 247.9 163.25 249.7 124.65 250.7 103.15 269.9 138.45 297.35 189.3 M253.05 126.55 L252.85 125.6 M260.65 169.15 L261.05 167.9" fill="none" stroke="#000000" stroke-linecap="round" stroke-linejoin="round" stroke-opacity="0.6" stroke-width="1.0"/>
    <path d="M251.85 141.65 L254.8 136.5 253.05 126.55 249.7 124.65 M254.45 147.55 L256.6 146.55 254.8 136.5 258.05 130.85 M256.6 146.55 L261.35 144.3 M251.5 183.0 L256.35 185.6 Q257.6 178.0 260.5 169.5 L260.65 169.15 256.6 146.55 M256.35 185.6 L261.35 188.25 M258.1 240.05 Q250.4 243.45 243.8 248.5 L247.95 250.25 M243.8 248.5 Q239.05 252.1 234.85 256.55 L242.7 258.75 M230.55 261.4 L234.85 256.55 229.9 255.15 M240.1 246.95 L243.8 248.5 M257.1 210.55 Q254.0 199.6 256.35 185.6" fill="none" stroke="#000000" stroke-linecap="round" stroke-linejoin="round" stroke-opacity="0.4" stroke-width="1.0"/>
  </g>
</svg>
