<?xml version="1.0" encoding="UTF-8" standalone="no"?>
<svg xmlns:xlink="http://www.w3.org/1999/xlink" height="113.85px" width="94.85px" xmlns="http://www.w3.org/2000/svg">
  <g transform="matrix(1.0, 0.0, 0.0, 1.0, -227.55, -143.55)">
    <path d="M306.75 192.15 L302.95 186.85 Q290.9 171.6 274.6 171.8 258.25 172.0 247.1 187.05 L244.3 191.15 Q243.1 191.75 242.75 193.3 L242.6 194.0 Q235.95 205.85 236.0 218.45 235.95 231.0 244.1 237.9 L245.95 239.3 Q244.75 241.1 244.8 243.15 L245.0 246.05 244.35 245.75 243.6 245.35 Q240.25 243.65 237.7 241.45 228.0 233.3 228.05 218.35 228.0 204.4 234.85 191.25 L236.15 188.8 237.05 187.35 240.1 182.65 241.25 181.05 Q254.5 163.15 273.95 162.9 293.35 162.65 307.65 180.8 321.9 198.9 321.9 218.35 321.9 237.75 310.9 244.1 L308.7 245.2 308.7 245.15 309.0 243.15 Q309.0 240.9 307.5 238.9 314.95 233.1 314.95 218.45 314.95 205.6 307.55 193.5 L307.6 193.25 Q307.6 192.65 306.75 192.15" fill="#cccce5" fill-rule="evenodd" stroke="none"/>
    <path d="M244.3 191.15 L247.1 187.05 Q258.25 172.0 274.6 171.8 290.9 171.6 302.95 186.85 L306.75 192.15 Q298.5 188.45 289.6 187.05 279.7 185.75 270.5 189.75 267.45 190.95 264.65 190.25 254.2 187.2 244.3 191.15" fill="#eeeef7" fill-rule="evenodd" stroke="none"/>
    <path d="M306.75 192.15 Q307.6 192.65 307.6 193.25 L307.55 193.5 305.55 195.0 303.75 194.45 Q298.25 192.95 288.7 195.05 284.3 196.05 280.8 197.35 271.45 200.95 261.65 200.0 251.5 199.6 242.6 194.0 L242.75 193.3 Q243.1 191.75 244.3 191.15 254.2 187.2 264.65 190.25 267.45 190.95 270.5 189.75 279.7 185.75 289.6 187.05 298.5 188.45 306.75 192.15" fill="#a995b9" fill-rule="evenodd" stroke="none"/>
    <path d="M307.55 193.5 Q314.95 205.6 314.95 218.45 314.95 233.1 307.5 238.9 309.0 240.9 309.0 243.15 L308.7 245.15 308.55 245.25 Q299.4 252.3 282.1 253.3 L280.7 253.35 Q263.9 254.0 246.05 247.05 L245.6 246.35 245.0 246.05 244.8 243.15 Q244.75 241.1 245.95 239.3 L244.1 237.9 Q235.95 231.0 236.0 218.45 235.95 205.85 242.6 194.0 251.5 199.6 261.65 200.0 271.45 200.95 280.8 197.35 284.3 196.05 288.7 195.05 298.25 192.95 303.75 194.45 L305.55 195.0 307.55 193.5 M296.5 205.25 Q293.95 205.25 292.15 207.0 290.4 208.8 290.4 211.35 290.4 213.9 292.15 215.65 293.95 217.45 296.5 217.45 299.0 217.45 300.8 215.65 302.6 213.9 302.6 211.35 302.6 208.8 300.8 207.0 299.0 205.25 296.5 205.25 M272.55 216.65 Q271.4 217.8 271.4 219.45 271.4 221.05 272.55 222.2 273.65 223.35 275.3 223.35 276.95 223.35 278.1 222.2 279.2 221.05 279.25 219.45 279.2 217.8 278.1 216.65 276.95 215.5 275.3 215.5 273.65 215.5 272.55 216.65 M281.8 207.45 Q282.3 207.95 283.05 207.95 283.75 207.95 284.3 207.45 284.85 206.9 284.85 206.15 284.85 205.4 284.3 204.9 283.75 204.35 283.05 204.35 282.3 204.35 281.8 204.9 281.25 205.4 281.25 206.15 281.25 206.9 281.8 207.45 M245.95 239.3 L249.1 241.15 251.05 242.25 Q266.75 248.65 281.45 247.8 296.0 247.0 303.75 241.1 304.75 240.65 305.7 240.15 L307.5 238.9 Q305.25 235.85 299.6 233.45 290.15 229.4 276.9 229.4 263.6 229.4 254.2 233.45 L253.5 233.75 Q248.0 236.2 245.95 239.3" fill="#9a83ad" fill-rule="evenodd" stroke="none"/>
    <path d="M281.8 207.45 Q281.25 206.9 281.25 206.15 281.25 205.4 281.8 204.9 282.3 204.35 283.05 204.35 283.75 204.35 284.3 204.9 284.85 205.4 284.85 206.15 284.85 206.9 284.3 207.45 283.75 207.95 283.05 207.95 282.3 207.95 281.8 207.45 M272.55 216.65 Q273.65 215.5 275.3 215.5 276.95 215.5 278.1 216.65 279.2 217.8 279.25 219.45 279.2 221.05 278.1 222.2 276.95 223.35 275.3 223.35 273.65 223.35 272.55 222.2 271.4 221.05 271.4 219.45 271.4 217.8 272.55 216.65 M296.5 205.25 Q299.0 205.25 300.8 207.0 302.6 208.8 302.6 211.35 302.6 213.9 300.8 215.65 299.0 217.45 296.5 217.45 293.95 217.45 292.15 215.65 290.4 213.9 290.4 211.35 290.4 208.8 292.15 207.0 293.95 205.25 296.5 205.25" fill="#8d8dc7" fill-opacity="0.7019608" fill-rule="evenodd" stroke="none"/>
    <path d="M307.5 238.9 L305.7 240.15 Q304.75 240.65 303.75 241.1 296.0 247.0 281.45 247.8 266.75 248.65 251.05 242.25 L249.1 241.15 245.95 239.3 Q248.0 236.2 253.5 233.75 L254.2 233.45 Q263.6 229.4 276.9 229.4 290.15 229.4 299.6 233.45 305.25 235.85 307.5 238.9" fill="#85699c" fill-rule="evenodd" stroke="none"/>
    <path d="M308.55 245.25 L308.65 245.3 Q307.15 249.6 299.6 252.85 290.8 256.6 278.65 256.85 L280.7 253.35 282.1 253.3 Q299.4 252.3 308.55 245.25" fill="#8484c1" fill-rule="evenodd" stroke="none"/>
    <path d="M278.65 256.85 L276.9 256.9 265.85 256.1 Q259.45 255.1 254.2 252.85 248.2 250.25 246.05 247.05 263.9 254.0 280.7 253.35 L278.65 256.85" fill="#b0b0d7" fill-rule="evenodd" stroke="none"/>
    <path d="M244.3 191.15 L247.1 187.05 Q258.25 172.0 274.6 171.8 290.9 171.6 302.95 186.85 L306.75 192.15 Q307.6 192.65 307.6 193.25 L307.55 193.5 Q314.95 205.6 314.95 218.45 314.95 233.1 307.5 238.9 L305.7 240.15 Q304.75 240.65 303.75 241.1 296.0 247.0 281.45 247.8 266.75 248.65 251.05 242.25 L249.1 241.15 245.95 239.3 244.1 237.9 Q235.95 231.0 236.0 218.45 235.95 205.85 242.6 194.0 L242.75 193.3 Q243.1 191.75 244.3 191.15 254.2 187.2 264.65 190.25 267.45 190.95 270.5 189.75 279.7 185.75 289.6 187.05 298.5 188.45 306.75 192.15" fill="none" stroke="#7db8ba" stroke-linecap="round" stroke-linejoin="round" stroke-width="1.0"/>
    <path d="M308.7 245.2 L310.9 244.1 Q321.9 237.75 321.9 218.35 321.9 198.9 307.65 180.8 293.35 162.65 273.95 162.9 254.5 163.15 241.25 181.05 L240.1 182.65 237.05 187.35 236.15 188.8 234.85 191.25 Q228.0 204.4 228.05 218.35 228.0 233.3 237.7 241.45 240.25 243.65 243.6 245.35 L244.35 245.75 245.0 246.05 245.6 246.35 M308.7 245.2 L308.65 245.25 308.6 245.25 308.55 245.25" fill="none" stroke="#000000" stroke-linecap="round" stroke-linejoin="round" stroke-opacity="0.8" stroke-width="1.0"/>
    <path d="M280.7 253.35 L282.1 253.3 Q299.4 252.3 308.55 245.25 M280.7 253.35 Q263.9 254.0 246.05 247.05" fill="none" stroke="#6161af" stroke-linecap="round" stroke-linejoin="round" stroke-width="1.0"/>
    <path d="M308.65 245.3 Q307.15 249.6 299.6 252.85 290.8 256.6 278.65 256.85 L276.9 256.9 265.85 256.1 Q259.45 255.1 254.2 252.85 248.2 250.25 246.05 247.05" fill="none" stroke="#000000" stroke-linecap="round" stroke-linejoin="round" stroke-opacity="0.8" stroke-width="1.0"/>
    <path d="M253.3 161.15 Q255.05 162.95 258.2 164.5 260.7 165.85 263.6 166.7 260.7 165.85 258.2 164.5 255.05 162.95 253.3 161.15 251.1 158.85 251.1 156.1 251.1 151.15 258.2 147.5 265.2 144.0 275.15 144.05 285.1 144.0 292.15 147.5 299.15 151.15 299.15 156.1 299.15 159.9 296.25 161.8 L292.15 164.5 Q289.25 165.95 285.95 166.9 280.85 165.6 274.4 165.6 268.35 165.6 263.6 166.7 261.5 167.1 259.65 167.85 253.85 169.95 253.55 172.85 L253.3 161.15 M273.15 148.2 Q266.75 148.4 262.1 149.85 256.55 151.65 256.55 154.2 256.55 156.7 262.1 158.5 267.6 160.3 275.45 160.3 L279.65 160.1 Q284.8 159.75 288.75 158.5 294.3 156.7 294.3 154.2 294.3 151.65 288.75 149.85 283.2 148.1 275.45 148.2 L273.15 148.2 275.45 148.2 Q283.2 148.1 288.75 149.85 294.3 151.65 294.3 154.2 294.3 156.7 288.75 158.5 284.8 159.75 279.65 160.1 274.45 155.5 273.15 148.2 M292.45 169.15 L296.25 167.05 296.3 172.2 Q296.25 170.9 292.45 169.15" fill="#cccce5" fill-rule="evenodd" stroke="none"/>
    <path d="M263.6 166.7 Q268.35 165.6 274.4 165.6 280.85 165.6 285.95 166.9 281.05 168.15 275.15 168.15 L274.85 168.15 Q268.6 168.1 263.6 166.7 M279.65 160.1 L275.45 160.3 Q267.6 160.3 262.1 158.5 256.55 156.7 256.55 154.2 256.55 151.65 262.1 149.85 266.75 148.4 273.15 148.2 274.45 155.5 279.65 160.1" fill="#b1b1d8" fill-rule="evenodd" stroke="none"/>
    <path d="M285.95 166.9 Q289.25 165.95 292.15 164.5 L296.25 161.8 296.25 167.05 292.45 169.15 289.05 171.2 Q282.0 172.15 275.05 168.25 L275.15 168.15 Q281.05 168.15 285.95 166.9" fill="#8d8dc7" fill-rule="evenodd" stroke="none"/>
    <path d="M253.55 172.85 Q253.85 169.95 259.65 167.85 261.5 167.1 263.6 166.7 268.6 168.1 274.85 168.15 L275.15 168.15 275.05 168.25 Q282.0 172.15 289.05 171.2 L292.45 169.15 Q296.25 170.9 296.3 172.2 L296.3 172.35 296.25 172.8 Q295.65 176.15 289.15 178.5 283.05 180.75 274.4 180.75 265.7 180.75 259.65 178.5 253.45 176.3 253.55 173.2 L253.55 172.85" fill="#8d8dc7" fill-opacity="0.7019608" fill-rule="evenodd" stroke="none"/>
    <path d="M296.3 172.2 L296.3 172.35" fill="none" stroke="#000000" stroke-linecap="round" stroke-linejoin="round" stroke-opacity="0.6" stroke-width="1.0"/>
    <path d="M296.3 172.35 L296.25 172.8" fill="none" stroke="#000000" stroke-linecap="round" stroke-linejoin="round" stroke-opacity="0.6" stroke-width="1.0"/>
    <path d="M263.6 166.7 Q260.7 165.85 258.2 164.5 255.05 162.95 253.3 161.15 M253.55 172.85 Q253.85 169.95 259.65 167.85 261.5 167.1 263.6 166.7 268.35 165.6 274.4 165.6 280.85 165.6 285.95 166.9 289.25 165.95 292.15 164.5 L296.25 161.8 M279.65 160.1 L275.45 160.3 Q267.6 160.3 262.1 158.5 256.55 156.7 256.55 154.2 256.55 151.65 262.1 149.85 266.75 148.4 273.15 148.2 L275.45 148.2 Q283.2 148.1 288.75 149.85 294.3 151.65 294.3 154.2 294.3 156.7 288.75 158.5 284.8 159.75 279.65 160.1 M275.15 168.15 L274.85 168.15 Q268.6 168.1 263.6 166.7 M285.95 166.9 Q281.05 168.15 275.15 168.15 M292.45 169.15 Q296.25 170.9 296.3 172.2" fill="none" stroke="#7db8ba" stroke-linecap="round" stroke-linejoin="round" stroke-width="1.0"/>
    <path d="M296.25 172.8 Q295.65 176.15 289.15 178.5 283.05 180.75 274.4 180.75 265.7 180.75 259.65 178.5 253.45 176.3 253.55 173.2 L253.55 172.85" fill="none" stroke="#9c9ccd" stroke-linecap="round" stroke-linejoin="round" stroke-width="1.0"/>
    <path d="M296.25 161.8 Q299.15 159.9 299.15 156.1 299.15 151.15 292.15 147.5 285.1 144.0 275.15 144.05 265.2 144.0 258.2 147.5 251.1 151.15 251.1 156.1 251.1 158.85 253.3 161.15" fill="none" stroke="#000000" stroke-linecap="round" stroke-linejoin="round" stroke-opacity="0.8" stroke-width="1.0"/>
    <path d="M253.3 161.15 L253.55 172.85 M296.25 167.05 L296.25 161.8 M296.3 172.2 L296.25 167.05" fill="none" stroke="#000000" stroke-linecap="round" stroke-linejoin="round" stroke-opacity="0.8" stroke-width="1.0"/>
    <path d="M312.7 204.35 L313.15 204.7 Q314.45 268.45 244.6 241.65 304.9 252.8 312.7 204.35" fill="#ffffff" fill-opacity="0.4" fill-rule="evenodd" stroke="none"/>
    <path d="M256.35 198.75 Q248.85 202.35 247.8 210.05 246.65 217.75 243.25 217.95 239.75 218.2 237.25 211.75 234.75 205.35 236.55 197.4 238.3 189.45 243.25 184.65 248.25 179.9 253.55 181.05 258.8 182.25 261.3 188.65 263.75 195.1 256.35 198.75" fill="#ffffff" fill-opacity="0.8" fill-rule="evenodd" stroke="none"/>
    <path d="M258.05 159.4 L265.1 160.95 272.15 162.5 Q275.1 163.1 274.85 164.3 274.6 165.5 271.45 165.7 L264.25 165.1 Q260.1 164.2 257.3 162.7 254.55 161.2 254.8 160.0 255.05 158.8 258.05 159.4" fill="#ffffff" fill-opacity="0.6" fill-rule="evenodd" stroke="none"/>
    <path d="M280.55 148.85 L285.4 149.9 290.3 150.8 Q292.3 151.25 292.5 150.3 292.7 149.35 290.85 148.25 288.95 147.1 286.1 146.55 L281.1 146.2 Q278.9 146.5 278.7 147.45 278.5 148.4 280.55 148.85" fill="#ffffff" fill-opacity="0.6" fill-rule="evenodd" stroke="none"/>
    <path d="M237.25 224.35 Q238.7 222.85 240.75 222.85 242.75 222.85 244.2 224.35 245.65 225.85 245.65 228.0 245.65 230.15 244.2 231.65 242.75 233.15 240.75 233.15 238.7 233.15 237.25 231.65 235.8 230.15 235.8 228.0 235.8 225.85 237.25 224.35" fill="#ffffff" fill-opacity="0.6" fill-rule="evenodd" stroke="none"/>
    <path d="M254.2 175.7 L253.5 175.1 Q252.0 173.35 251.15 171.3 L251.15 171.15 Q250.9 170.2 251.15 169.25 L251.2 169.25 Q252.15 169.45 253.35 170.05 252.15 169.45 251.2 169.25 251.35 166.7 253.1 165.8 L253.35 170.05 Q255.25 170.95 257.75 172.75 L258.25 173.0 Q260.4 174.7 261.05 176.9 258.55 177.95 254.2 175.7 M287.25 178.65 L290.65 174.3 290.9 173.9 Q293.4 171.25 296.4 170.15 297.2 169.85 298.05 169.7 L298.8 169.55 298.95 169.7 298.35 170.9 297.95 171.7 296.2 174.65 296.1 174.8 Q292.45 178.6 288.35 179.25 L287.25 178.65 M264.8 181.4 L264.7 181.35 263.7 180.9 Q261.95 179.45 261.2 177.2 L267.8 177.55 268.35 177.6 Q271.35 178.3 273.15 180.0 271.8 183.0 264.8 181.4 M286.75 178.45 Q284.0 182.15 276.45 182.4 L273.55 180.4 Q276.2 179.1 279.9 178.3 L280.4 178.1 286.75 178.45" fill="#cda338" fill-rule="evenodd" stroke="none"/>
    <path d="M254.2 175.7 Q258.55 177.95 261.05 176.9 L261.2 177.2 Q261.95 179.45 263.7 180.9 L263.8 181.3 Q260.15 179.75 257.55 178.2 L257.3 178.0 254.2 175.7 M287.25 178.65 L288.35 179.25 Q292.45 178.6 296.1 174.8 L293.05 178.3 290.85 179.65 288.95 180.15 Q281.35 183.45 276.9 182.85 L276.95 182.75 276.45 182.4 276.95 182.75 276.45 182.8 Q268.9 183.0 264.8 181.4 271.8 183.0 273.15 180.0 L273.25 180.05 273.55 180.4 276.45 182.4 Q284.0 182.15 286.75 178.45 L287.25 178.65 M298.8 169.55 L298.05 169.7 Q297.2 169.85 296.4 170.15 L296.35 164.55 Q298.6 166.75 298.95 169.55 L298.8 169.55 M288.35 179.25 L290.25 179.6 288.95 180.15 290.25 179.6 288.35 179.25" fill="#a2642f" fill-rule="evenodd" stroke="none"/>
    <path d="M251.2 169.25 L251.15 169.25 Q250.9 170.2 251.15 171.15 L251.15 171.3 Q252.0 173.35 253.5 175.1 L254.2 175.7 257.3 178.0 Q255.0 176.85 253.5 175.1 M261.05 176.9 Q260.4 174.7 258.25 173.0 L257.75 172.75 Q255.25 170.95 253.35 170.05 252.15 169.45 251.2 169.25 M296.4 170.15 Q293.4 171.25 290.9 173.9 L290.65 174.3 287.25 178.65 288.35 179.25 290.25 179.6 288.95 180.15 Q281.35 183.45 276.9 182.85 L276.45 182.8 Q268.9 183.0 264.8 181.4 M296.2 174.65 L297.95 171.7 298.35 170.9 298.95 169.7 299.0 169.65 299.05 169.55 298.95 169.55 298.8 169.55 298.05 169.7 Q297.2 169.85 296.4 170.15 M293.05 178.3 L296.1 175.35 Q297.35 173.65 297.95 171.7 M257.55 178.2 Q258.75 179.3 260.35 180.05 267.0 183.15 275.5 183.15 L276.45 183.15 Q284.35 182.95 290.2 180.0 L290.85 179.65 288.95 180.15 M264.7 181.35 L263.7 180.9 263.8 181.3 Q260.15 179.75 257.55 178.2 L257.3 178.0 M287.25 178.65 L286.75 178.45 280.4 178.1 279.9 178.3 Q276.2 179.1 273.55 180.4 L276.45 182.4 276.95 182.75 276.45 182.8 M273.55 180.4 L273.25 180.05 M290.85 179.65 L293.05 178.3 296.1 174.8 M261.2 177.2 L261.05 176.9 M261.2 177.2 Q261.95 179.45 263.7 180.9 M273.15 180.0 Q271.35 178.3 268.35 177.6 L267.8 177.55 261.2 177.2" fill="none" stroke="#000000" stroke-linecap="round" stroke-linejoin="round" stroke-opacity="0.4" stroke-width="0.4"/>
    <path d="M251.2 169.25 Q251.35 166.7 253.1 165.8 L253.35 170.05 M296.4 170.15 L296.35 164.55 Q298.6 166.75 298.95 169.55" fill="none" stroke="#000000" stroke-linecap="round" stroke-linejoin="round" stroke-opacity="0.4" stroke-width="0.4"/>
  </g>
</svg>
