<?xml version="1.0" encoding="UTF-8" standalone="no"?>
<svg xmlns:xlink="http://www.w3.org/1999/xlink" height="116.25px" width="115.95px" xmlns="http://www.w3.org/2000/svg">
  <g transform="matrix(1.0, 0.0, 0.0, 1.0, -217.0, -142.35)">
    <path d="M264.5 173.35 Q263.7 174.45 263.7 175.65 263.7 179.1 270.75 181.55 276.3 183.5 283.65 183.9 L287.8 184.05 298.2 183.25 304.85 181.55 Q310.3 179.7 311.55 177.2 312.85 182.8 311.3 190.1 310.35 194.3 308.65 198.3 L308.7 198.95 Q308.75 200.05 308.15 200.7 L307.75 201.0 Q304.25 207.9 298.35 214.35 L275.55 208.35 265.8 205.8 262.7 192.9 256.4 180.4 Q260.65 176.35 264.5 173.35 M274.15 167.1 L274.55 168.6 270.75 169.65 268.0 170.8 Q271.2 168.55 274.15 167.1 M297.4 203.1 Q296.7 202.4 295.75 202.4 294.75 202.4 294.1 203.1 293.4 203.8 293.4 204.75 293.4 205.7 294.1 206.4 294.75 207.1 295.75 207.1 296.7 207.1 297.4 206.4 298.1 205.7 298.1 204.75 298.1 203.8 297.4 203.1 M275.3 199.1 Q277.2 199.1 278.6 197.75 280.0 196.35 280.0 194.4 280.0 192.5 278.6 191.15 277.2 189.75 275.3 189.7 273.35 189.75 272.0 191.15 270.6 192.5 270.6 194.4 270.6 196.35 272.0 197.75 273.35 199.1 275.3 199.1 M288.6 188.25 Q288.55 187.6 288.15 187.2 287.7 186.75 287.1 186.75 286.45 186.75 286.05 187.2 285.6 187.6 285.6 188.25 285.6 188.85 286.05 189.3 286.45 189.75 287.1 189.75 L288.15 189.3 Q288.55 188.85 288.6 188.25" fill="#919a11" fill-rule="evenodd" stroke="none"/>
    <path d="M264.5 173.35 Q260.65 176.35 256.4 180.4 L262.7 192.9 Q250.6 186.75 255.3 174.95 269.15 161.7 285.15 158.2 293.65 156.35 300.25 157.8 L299.6 158.45 300.45 159.35 301.65 158.15 Q307.25 159.75 311.4 163.9 315.85 168.3 317.35 174.5 L316.15 175.65 316.85 176.4 317.6 175.65 Q318.8 182.0 317.05 190.1 313.55 205.85 300.65 219.6 L275.55 208.35 298.35 214.35 Q304.25 207.9 307.75 201.0 L308.15 200.7 Q308.75 200.05 308.7 198.95 310.65 194.6 311.65 190.05 313.35 182.35 311.8 176.55 L311.95 175.65 Q311.9 173.85 310.15 172.4 308.85 170.0 306.9 168.05 301.0 162.15 291.5 162.5 L284.95 163.3 284.55 163.4 Q279.95 164.35 275.6 166.3 274.8 166.4 274.35 166.85 L274.15 167.1 Q271.2 168.55 268.0 170.8 265.55 171.95 264.5 173.35" fill="#e8eba2" fill-rule="evenodd" stroke="none"/>
    <path d="M311.55 177.2 Q310.3 179.7 304.85 181.55 L298.2 183.25 287.8 184.05 283.65 183.9 Q276.3 183.5 270.75 181.55 263.7 179.1 263.7 175.65 263.7 174.45 264.5 173.35 265.55 171.95 268.0 170.8 L270.75 169.65 274.55 168.6 274.15 167.1 274.35 166.85 Q274.8 166.4 275.6 166.3 L275.45 166.4 279.3 167.75 287.8 167.25 Q297.8 167.2 304.85 169.65 307.7 170.65 309.4 171.85 L310.15 172.4 Q311.9 173.85 311.95 175.65 L311.8 176.55 311.55 177.2 M300.05 173.7 Q299.35 174.4 299.3 175.3 299.2 176.15 299.5 176.2 L301.0 176.35 303.15 176.35 Q304.05 176.3 304.05 175.35 304.05 174.4 303.35 173.7 302.65 173.0 301.7 173.0 300.7 173.0 300.05 173.7 M297.4 203.1 Q298.1 203.8 298.1 204.75 298.1 205.7 297.4 206.4 296.7 207.1 295.75 207.1 294.75 207.1 294.1 206.4 293.4 205.7 293.4 204.75 293.4 203.8 294.1 203.1 294.75 202.4 295.75 202.4 296.7 202.4 297.4 203.1 M288.6 188.25 Q288.55 188.85 288.15 189.3 L287.1 189.75 Q286.45 189.75 286.05 189.3 285.6 188.85 285.6 188.25 285.6 187.6 286.05 187.2 286.45 186.75 287.1 186.75 287.7 186.75 288.15 187.2 288.55 187.6 288.6 188.25 M275.3 199.1 Q273.35 199.1 272.0 197.75 270.6 196.35 270.6 194.4 270.6 192.5 272.0 191.15 273.35 189.75 275.3 189.7 277.2 189.75 278.6 191.15 280.0 192.5 280.0 194.4 280.0 196.35 278.6 197.75 277.2 199.1 275.3 199.1" fill="#b3bf15" fill-rule="evenodd" stroke="none"/>
    <path d="M309.4 171.85 Q307.7 170.65 304.85 169.65 297.8 167.2 287.8 167.25 L279.3 167.75 275.45 166.4 275.6 166.3 Q279.95 164.35 284.55 163.4 L284.95 163.3 291.5 162.5 Q300.7 162.35 306.55 168.15 308.25 169.8 309.4 171.85 M300.05 173.7 Q300.7 173.0 301.7 173.0 302.65 173.0 303.35 173.7 304.05 174.4 304.05 175.35 304.05 176.3 303.15 176.35 L301.0 176.35 299.5 176.2 Q299.2 176.15 299.3 175.3 299.35 174.4 300.05 173.7" fill="#dbe070" fill-rule="evenodd" stroke="none"/>
    <path d="M262.7 192.9 L265.8 205.8 275.55 208.35 298.35 214.35 M255.3 174.95 Q250.6 186.75 262.7 192.9 M275.55 208.35 L300.65 219.6" fill="none" stroke="#000000" stroke-linecap="round" stroke-linejoin="round" stroke-opacity="0.8" stroke-width="1.0"/>
    <path d="M298.35 214.35 Q304.25 207.9 307.75 201.0 M284.95 163.3 L291.5 162.5 Q301.0 162.15 306.9 168.05 308.85 170.0 310.15 172.4 M311.8 176.55 Q313.35 182.35 311.65 190.05 310.65 194.6 308.7 198.95" fill="none" stroke="#f1f3cb" stroke-linecap="round" stroke-linejoin="round" stroke-width="1.0"/>
    <path d="M300.25 157.8 Q293.65 156.35 285.15 158.2 269.15 161.7 255.3 174.95 M300.65 219.6 Q313.55 205.85 317.05 190.1 318.8 182.0 317.6 175.65" fill="none" stroke="#919a11" stroke-linecap="round" stroke-linejoin="round" stroke-width="1.0"/>
    <path d="M282.35 160.55 Q288.5 158.35 293.75 159.35 299.0 160.4 300.3 164.05 301.6 167.65 296.4 165.55 291.15 163.4 286.1 172.0 281.0 180.55 272.25 182.4 263.5 184.2 266.3 177.7 269.05 171.15 272.65 166.95 276.2 162.7 282.35 160.55" fill="#ffffff" fill-opacity="0.6" fill-rule="evenodd" stroke="none"/>
    <path d="M296.35 214.05 L297.35 213.25 306.65 204.95 301.3 215.0 300.4 216.4 287.45 236.15 283.95 238.05 285.2 238.0 284.0 239.2 284.2 238.3 277.35 246.25 267.95 251.45 264.1 253.6 263.05 251.85 264.1 253.6 260.6 255.5 256.7 251.8 263.2 242.8 254.35 249.55 245.8 241.2 252.25 234.85 254.9 237.7 252.25 234.85 257.55 229.55 278.85 208.25 282.45 205.95 295.7 197.3 285.05 213.85 295.15 204.95 290.8 212.5 283.4 225.3 296.35 214.05 M241.45 236.85 L239.8 235.2 238.8 234.2 256.4 214.2 260.55 209.45 263.2 211.5 260.55 209.45 266.95 202.25 267.95 200.65 282.5 194.6 277.85 203.95 277.05 205.45 241.45 236.85 M235.6 231.0 L235.35 230.75 224.0 219.1 223.85 218.95 Q216.3 211.5 217.75 209.25 L238.25 191.35 237.8 191.3 238.55 190.55 238.4 190.4 255.45 171.55 269.2 157.1 263.05 167.85 262.15 168.75 262.45 169.05 258.7 175.5 253.85 181.25 242.75 194.25 241.1 192.7 242.75 194.25 239.0 198.6 238.15 199.65 232.75 207.35 234.1 209.3 263.1 183.4 265.9 181.8 276.55 172.45 267.4 190.0 264.7 194.5 235.6 231.0 M266.05 248.35 L267.95 251.45 266.05 248.35 M258.2 216.2 L256.4 214.2 258.2 216.2 M278.65 225.65 L276.75 222.25 275.65 220.15 276.75 222.25 285.05 213.85 276.75 222.25 278.65 225.65 M259.85 232.75 L257.55 229.55 259.85 232.75 M239.0 198.6 L236.8 196.4 239.0 198.6 M268.65 230.35 L272.75 226.25 273.65 227.45 272.75 226.25 268.65 230.35 M276.75 222.25 L272.75 226.25 270.65 223.35 272.75 226.25 276.75 222.25 M224.0 219.1 L229.75 213.25 231.65 215.15 229.75 213.25 224.0 219.1 M223.85 218.95 L228.9 212.4 227.5 211.0 228.9 212.4 223.85 218.95 M231.8 206.0 L232.75 207.35 228.9 212.4 229.75 213.25 234.1 209.3 237.15 213.65 234.1 209.3 229.75 213.25 228.9 212.4 232.75 207.35 231.8 206.0 M283.4 225.3 L263.2 242.8 283.4 225.3" fill="#b5cc33" fill-rule="evenodd" stroke="none"/>
    <path d="M290.8 212.5 L297.0 210.9 296.35 214.05 283.4 225.3 290.8 212.5 M300.55 216.45 L303.85 219.75 287.45 236.15 300.4 216.4 300.55 216.45 M253.85 181.25 L266.65 174.15 263.35 183.25 263.1 183.4 234.1 209.3 232.75 207.35 238.15 199.65 239.0 198.6 241.45 201.05 239.0 198.6 242.75 194.25 244.4 195.7 242.75 194.25 253.85 181.25" fill="#a5b92f" fill-rule="evenodd" stroke="none"/>
    <path d="M277.35 246.25 L269.55 254.05 265.5 258.1 Q262.5 257.3 260.6 255.5 L264.1 253.6 265.1 255.3 264.1 253.6 267.95 251.45 269.55 254.05 267.95 251.45 277.35 246.25 M256.7 251.8 L254.35 249.55 263.2 242.8 256.7 251.8 M245.8 241.2 L241.45 236.85 277.05 205.45 277.85 203.95 284.7 199.7 282.45 205.95 278.85 208.25 257.55 229.55 252.25 234.85 250.9 233.4 252.25 234.85 245.8 241.2 M256.4 227.9 L257.55 229.55 256.4 227.9" fill="#97aa2b" fill-rule="evenodd" stroke="none"/>
    <path d="M238.8 234.2 L235.6 231.0 264.7 194.5 267.4 190.0 267.95 189.65 272.15 188.05 278.0 184.5 274.8 189.5 274.35 190.25 267.95 200.65 266.95 202.25 260.55 209.45 259.85 208.85 260.55 209.45 256.4 214.2 254.25 211.85 256.4 214.2 238.8 234.2" fill="#889926" fill-rule="evenodd" stroke="none"/>
    <path d="M290.8 212.5 L297.0 210.9 296.35 214.05 297.35 213.25 306.65 204.95 301.3 215.0 300.55 216.45 M262.45 169.05 L258.7 175.5 253.85 181.25 266.65 174.15 263.35 183.25 263.1 183.4 265.9 181.8 276.55 172.45 267.4 190.0 267.95 189.65 272.15 188.05 278.0 184.5 274.8 189.5 274.35 190.25 267.95 200.65 282.5 194.6 277.85 203.95 284.7 199.7 282.45 205.95 295.7 197.3 285.05 213.85 295.15 204.95 290.8 212.5 283.4 225.3 296.35 214.05 M301.3 215.0 L300.4 216.4 287.45 236.15 M264.1 253.6 L265.1 255.3 M263.05 251.85 L264.1 253.6 267.95 251.45 266.05 248.35 M267.95 251.45 L269.55 254.05 M267.95 251.45 L277.35 246.25 M260.6 255.5 L264.1 253.6 M274.8 189.5 L274.35 190.25 M267.4 190.0 L264.7 194.5 235.6 231.0 M260.55 209.45 L263.2 211.5 M260.55 209.45 L266.95 202.25 267.95 200.65 M259.85 208.85 L260.55 209.45 256.4 214.2 258.2 216.2 M277.85 203.95 L277.05 205.45 241.45 236.85 M282.45 205.95 L278.85 208.25 257.55 229.55 259.85 232.75 M275.65 220.15 L276.75 222.25 285.05 213.85 M276.75 222.25 L278.65 225.65 M242.75 194.25 L244.4 195.7 M241.1 192.7 L242.75 194.25 253.85 181.25 M239.0 198.6 L238.15 199.65 232.75 207.35 234.1 209.3 263.1 183.4 M239.0 198.6 L241.45 201.05 M236.8 196.4 L239.0 198.6 242.75 194.25 M232.75 207.35 L228.9 212.4 229.75 213.25 234.1 209.3 237.15 213.65 M232.75 207.35 L231.8 206.0 M227.5 211.0 L228.9 212.4 223.85 218.95 M231.65 215.15 L229.75 213.25 224.0 219.1 M270.65 223.35 L272.75 226.25 276.75 222.25 M273.65 227.45 L272.75 226.25 268.65 230.35 M252.25 234.85 L254.9 237.7 M250.9 233.4 L252.25 234.85 257.55 229.55 256.4 227.9 M254.25 211.85 L256.4 214.2 238.8 234.2 M256.7 251.8 L263.2 242.8 254.35 249.55 M252.25 234.85 L245.8 241.2 M263.2 242.8 L283.4 225.3" fill="none" stroke="#000000" stroke-linecap="round" stroke-linejoin="round" stroke-opacity="0.6" stroke-width="0.4"/>
    <path d="M300.55 216.45 L303.85 219.75" fill="none" stroke="#000000" stroke-linecap="round" stroke-linejoin="round" stroke-opacity="0.6" stroke-width="0.4"/>
    <path d="M287.45 236.15 L283.95 238.05 M284.2 238.3 L277.35 246.25 M245.8 241.2 L241.45 236.85 M239.8 235.2 L238.8 234.2 235.6 231.0 235.35 230.75 M255.45 171.55 L269.2 157.1 263.05 167.85" fill="none" stroke="#000000" stroke-linecap="round" stroke-linejoin="round" stroke-opacity="0.6" stroke-width="1.0"/>
    <path d="M303.85 219.75 L287.45 236.15 M277.35 246.25 L269.55 254.05 265.5 258.1 Q262.5 257.3 260.6 255.5 L256.7 251.8 254.35 249.55 245.8 241.2 M241.45 236.85 L239.8 235.2 M235.35 230.75 L224.0 219.1 223.85 218.95 Q216.3 211.5 217.75 209.25 L238.25 191.35 M238.4 190.4 L255.45 171.55" fill="none" stroke="#000000" stroke-linecap="round" stroke-linejoin="round" stroke-opacity="0.6" stroke-width="1.0"/>
    <path d="M276.8 233.5 L284.2 238.0 Q286.3 241.4 282.4 241.2 L282.05 240.95 274.1 236.0 Q277.05 236.35 276.8 233.5 M235.55 194.05 L235.5 193.9 Q235.1 190.0 238.6 192.1 248.65 210.65 264.5 224.3 L264.45 224.35 265.25 225.15 265.4 225.0 Q269.4 228.4 273.85 231.45 274.75 234.55 271.3 234.1 248.7 217.9 235.55 194.05" fill="#ad9d2c" fill-rule="evenodd" stroke="none"/>
    <path d="M276.8 233.5 Q277.05 236.35 274.1 236.0 L272.4 237.6 268.55 240.95 Q264.75 244.45 261.85 248.75 L260.1 248.4 Q262.3 243.7 266.05 239.35 268.05 236.95 270.65 234.75 L271.3 234.1 Q274.75 234.55 273.85 231.45 L276.8 233.5" fill="#675e1b" fill-rule="evenodd" stroke="none"/>
    <path d="M274.1 236.0 L282.05 240.95 278.1 245.6 268.55 240.95 272.4 237.6 274.1 236.0 M266.05 239.35 L256.1 231.2 257.15 229.55 254.55 226.45 253.15 226.85 249.35 222.15 249.5 221.0 246.65 218.05 245.6 218.4 236.75 206.95 238.2 205.6 236.15 203.45 235.5 203.6 235.35 203.65 235.3 203.5 231.35 197.15 235.55 194.05 Q248.7 217.9 271.3 234.1 L270.65 234.75 Q268.05 236.95 266.05 239.35" fill="#778622" fill-rule="evenodd" stroke="none"/>
    <path d="M284.2 238.0 L276.8 233.5 273.85 231.45 Q269.4 228.4 265.4 225.0" fill="none" stroke="#ad9d2c" stroke-linecap="round" stroke-linejoin="round" stroke-width="1.0"/>
    <path d="M282.4 241.2 Q286.3 241.4 284.2 238.0 M260.1 248.4 Q262.3 243.7 266.05 239.35 268.05 236.95 270.65 234.75 L271.3 234.1" fill="none" stroke="#ad9d2c" stroke-linecap="round" stroke-linejoin="round" stroke-width="1.0"/>
    <path d="M274.1 236.0 L282.05 240.95 282.4 241.2 M235.55 194.05 L235.5 193.9 M271.3 234.1 Q248.7 217.9 235.55 194.05" fill="none" stroke="#675e1b" stroke-linecap="round" stroke-linejoin="round" stroke-width="1.0"/>
    <path d="M238.6 192.1 Q248.65 210.65 264.5 224.3" fill="none" stroke="#d5c557" stroke-linecap="round" stroke-linejoin="round" stroke-width="1.0"/>
    <path d="M235.5 193.9 Q235.1 190.0 238.6 192.1" fill="none" stroke="#d5c557" stroke-linecap="round" stroke-linejoin="round" stroke-width="1.0"/>
    <path d="M235.5 203.6 L235.35 203.65" fill="none" stroke="#919a11" stroke-linecap="round" stroke-linejoin="round" stroke-width="1.0"/>
    <path d="M235.35 203.65 L235.3 203.5" fill="none" stroke="#66ff00" stroke-linecap="round" stroke-linejoin="round" stroke-width="1.0"/>
    <path d="M325.3 165.3 L327.05 167.05 Q319.95 169.55 317.45 176.65 L314.3 173.5 325.3 165.3 M301.8 161.0 L298.95 158.15 Q305.7 155.3 308.55 148.55 L310.0 150.0 301.8 161.0" fill="#e8eba2" fill-rule="evenodd" stroke="none"/>
    <path d="M315.35 142.85 L318.9 146.4 315.35 151.65 321.45 150.45 322.7 150.2 332.45 159.95 325.3 165.3 310.0 150.0 315.35 142.85" fill="#935926" fill-rule="evenodd" stroke="none"/>
    <path d="M314.3 173.5 L311.6 175.5 299.75 163.65 301.8 161.0 314.3 173.5" fill="#ad9d2c" fill-rule="evenodd" stroke="none"/>
    <path d="M318.9 146.4 L321.45 150.45 315.35 151.65 318.9 146.4" fill="#503114" fill-rule="evenodd" stroke="none"/>
    <path d="M301.8 161.0 L310.0 150.0 325.3 165.3 314.3 173.5 301.8 161.0" fill="#bb9335" fill-rule="evenodd" stroke="none"/>
    <path d="M332.45 159.95 L325.3 165.3 M310.0 150.0 L315.35 142.85" fill="none" stroke="#000000" stroke-linecap="round" stroke-linejoin="round" stroke-opacity="0.8" stroke-width="1.0"/>
    <path d="M315.35 142.85 L318.9 146.4 M322.7 150.2 L332.45 159.95" fill="none" stroke="#000000" stroke-linecap="round" stroke-linejoin="round" stroke-opacity="0.8" stroke-width="1.0"/>
    <path d="M318.9 146.4 L321.45 150.45 322.7 150.2" fill="none" stroke="#000000" stroke-linecap="round" stroke-linejoin="round" stroke-opacity="0.6" stroke-width="1.0"/>
    <path d="M301.8 161.0 L310.0 150.0 M325.3 165.3 L314.3 173.5 301.8 161.0" fill="none" stroke="#63672c" stroke-linecap="round" stroke-linejoin="round" stroke-width="0.4"/>
    <path d="M310.0 150.0 L325.3 165.3" fill="none" stroke="#63672c" stroke-linecap="round" stroke-linejoin="round" stroke-width="0.4"/>
    <path d="M317.45 176.65 L314.3 173.5 311.6 175.5 M299.75 163.65 L301.8 161.0 298.95 158.15" fill="none" stroke="#ad9d2c" stroke-linecap="round" stroke-linejoin="round" stroke-width="0.4"/>
    <path d="M311.6 175.5 L299.75 163.65" fill="none" stroke="#ad9d2c" stroke-linecap="round" stroke-linejoin="round" stroke-width="0.4"/>
    <path d="M325.3 165.3 L327.05 167.05 Q319.95 169.55 317.45 176.65 M298.95 158.15 Q305.7 155.3 308.55 148.55 L310.0 150.0" fill="none" stroke="#919a11" stroke-linecap="round" stroke-linejoin="round" stroke-width="1.0"/>
  </g>
</svg>
