<?xml version="1.0" encoding="UTF-8" standalone="no"?>
<svg xmlns:xlink="http://www.w3.org/1999/xlink" height="113.85px" width="94.85px" xmlns="http://www.w3.org/2000/svg">
  <g transform="matrix(1.0, 0.0, 0.0, 1.0, -227.55, -143.55)">
    <path d="M306.75 192.15 L302.95 186.85 Q290.9 171.6 274.6 171.8 258.25 172.0 247.1 187.05 L244.3 191.15 Q243.1 191.75 242.75 193.3 L242.6 194.0 Q235.95 205.85 236.0 218.45 235.95 231.0 244.1 237.9 L245.95 239.3 Q244.75 241.1 244.8 243.15 L245.0 246.05 244.35 245.75 243.6 245.35 Q240.25 243.65 237.7 241.45 228.0 233.3 228.05 218.35 228.0 204.4 234.85 191.25 L236.15 188.8 237.05 187.35 240.1 182.65 241.25 181.05 Q254.5 163.15 273.95 162.9 293.35 162.65 307.65 180.8 321.9 198.9 321.9 218.35 321.9 237.75 310.9 244.1 L308.7 245.2 308.7 245.15 309.0 243.15 Q309.0 240.9 307.5 238.9 314.95 233.1 314.95 218.45 314.95 205.6 307.55 193.5 L307.6 193.25 Q307.6 192.65 306.75 192.15 M278.65 256.85 L276.9 256.9 265.85 256.1 Q259.45 255.1 254.2 252.85 248.2 250.25 246.05 247.05 263.9 254.0 280.7 253.35 L278.65 256.85" fill="#b0c657" fill-rule="evenodd" stroke="none"/>
    <path d="M244.3 191.15 L247.1 187.05 Q258.25 172.0 274.6 171.8 290.9 171.6 302.95 186.85 L306.75 192.15 Q298.5 188.45 289.6 187.05 279.7 185.75 270.5 189.75 267.45 190.95 264.65 190.25 254.2 187.2 244.3 191.15 M308.55 245.25 L308.65 245.3 Q307.15 249.6 299.6 252.85 290.8 256.6 278.65 256.85 L280.7 253.35 282.1 253.3 Q299.4 252.3 308.55 245.25" fill="#89a837" fill-rule="evenodd" stroke="none"/>
    <path d="M307.55 193.5 Q314.95 205.6 314.95 218.45 314.95 233.1 307.5 238.9 305.25 235.85 299.6 233.45 290.15 229.4 276.9 229.4 263.6 229.4 254.2 233.45 L253.5 233.75 Q248.0 236.2 245.95 239.3 L244.1 237.9 Q235.95 231.0 236.0 218.45 235.95 205.85 242.6 194.0 251.5 199.6 261.65 200.0 271.45 200.95 280.8 197.35 284.3 196.05 288.7 195.05 298.25 192.95 303.75 194.45 L305.55 195.0 307.55 193.5 M281.25 206.15 Q281.25 206.9 281.8 207.45 282.3 207.95 283.05 207.95 283.75 207.95 284.3 207.45 284.85 206.9 284.85 206.15 284.85 205.4 284.3 204.9 283.75 204.35 283.05 204.35 282.3 204.35 281.8 204.9 281.25 205.4 281.25 206.15 M278.1 216.65 Q276.95 215.5 275.3 215.5 273.65 215.5 272.55 216.65 271.4 217.8 271.4 219.45 271.4 221.05 272.55 222.2 273.65 223.35 275.3 223.35 276.95 223.35 278.1 222.2 279.2 221.05 279.25 219.45 279.2 217.8 278.1 216.65 M296.5 205.25 Q293.95 205.25 292.15 207.0 290.4 208.8 290.4 211.35 290.4 213.9 292.15 215.65 293.95 217.45 296.5 217.45 299.0 217.45 300.8 215.65 302.6 213.9 302.6 211.35 302.6 208.8 300.8 207.0 299.0 205.25 296.5 205.25" fill="#d86c01" fill-rule="evenodd" stroke="none"/>
    <path d="M306.75 192.15 Q307.6 192.65 307.6 193.25 L307.55 193.5 305.55 195.0 303.75 194.45 Q298.25 192.95 288.7 195.05 284.3 196.05 280.8 197.35 271.45 200.95 261.65 200.0 251.5 199.6 242.6 194.0 L242.75 193.3 Q243.1 191.75 244.3 191.15 254.2 187.2 264.65 190.25 267.45 190.95 270.5 189.75 279.7 185.75 289.6 187.05 298.5 188.45 306.75 192.15" fill="#ff910b" fill-rule="evenodd" stroke="none"/>
    <path d="M281.25 206.15 Q281.25 205.4 281.8 204.9 282.3 204.35 283.05 204.35 283.75 204.35 284.3 204.9 284.85 205.4 284.85 206.15 284.85 206.9 284.3 207.45 283.75 207.95 283.05 207.95 282.3 207.95 281.8 207.45 281.25 206.9 281.25 206.15 M245.95 239.3 Q248.0 236.2 253.5 233.75 L254.2 233.45 Q263.6 229.4 276.9 229.4 290.15 229.4 299.6 233.45 305.25 235.85 307.5 238.9 L305.7 240.15 Q304.75 240.65 303.75 241.1 296.0 247.0 281.45 247.8 266.75 248.65 251.05 242.25 L249.1 241.15 245.95 239.3 M278.1 216.65 Q279.2 217.8 279.25 219.45 279.2 221.05 278.1 222.2 276.95 223.35 275.3 223.35 273.65 223.35 272.55 222.2 271.4 221.05 271.4 219.45 271.4 217.8 272.55 216.65 273.65 215.5 275.3 215.5 276.95 215.5 278.1 216.65 M296.5 205.25 Q299.0 205.25 300.8 207.0 302.6 208.8 302.6 211.35 302.6 213.9 300.8 215.65 299.0 217.45 296.5 217.45 293.95 217.45 292.15 215.65 290.4 213.9 290.4 211.35 290.4 208.8 292.15 207.0 293.95 205.25 296.5 205.25" fill="#ffba66" fill-rule="evenodd" stroke="none"/>
    <path d="M307.5 238.9 Q309.0 240.9 309.0 243.15 L308.7 245.15 308.55 245.25 Q299.4 252.3 282.1 253.3 L280.7 253.35 Q263.9 254.0 246.05 247.05 L245.6 246.35 245.0 246.05 244.8 243.15 Q244.75 241.1 245.95 239.3 L249.1 241.15 251.05 242.25 Q266.75 248.65 281.45 247.8 296.0 247.0 303.75 241.1 304.75 240.65 305.7 240.15 L307.5 238.9" fill="#657b28" fill-rule="evenodd" stroke="none"/>
    <path d="M244.3 191.15 L247.1 187.05 Q258.25 172.0 274.6 171.8 290.9 171.6 302.95 186.85 L306.75 192.15 Q307.6 192.65 307.6 193.25 L307.55 193.5 Q314.95 205.6 314.95 218.45 314.95 233.1 307.5 238.9 L305.7 240.15 Q304.75 240.65 303.75 241.1 M245.95 239.3 L244.1 237.9 Q235.95 231.0 236.0 218.45 235.95 205.85 242.6 194.0 L242.75 193.3 Q243.1 191.75 244.3 191.15 M251.05 242.25 L249.1 241.15 245.95 239.3" fill="none" stroke="#d3e0a3" stroke-linecap="round" stroke-linejoin="round" stroke-width="1.0"/>
    <path d="M308.7 245.2 L310.9 244.1 Q321.9 237.75 321.9 218.35 321.9 198.9 307.65 180.8 293.35 162.65 273.95 162.9 254.5 163.15 241.25 181.05 L240.1 182.65 237.05 187.35 236.15 188.8 234.85 191.25 Q228.0 204.4 228.05 218.35 228.0 233.3 237.7 241.45 240.25 243.65 243.6 245.35 L244.35 245.75 245.0 246.05 245.6 246.35 M308.7 245.2 L308.65 245.25 308.6 245.25 308.55 245.25 M308.65 245.3 Q307.15 249.6 299.6 252.85 290.8 256.6 278.65 256.85 L276.9 256.9 265.85 256.1 Q259.45 255.1 254.2 252.85 248.2 250.25 246.05 247.05" fill="none" stroke="#000000" stroke-linecap="round" stroke-linejoin="round" stroke-opacity="0.8" stroke-width="1.0"/>
    <path d="M244.3 191.15 Q254.2 187.2 264.65 190.25 267.45 190.95 270.5 189.75 279.7 185.75 289.6 187.05 298.5 188.45 306.75 192.15" fill="none" stroke="#ffba66" stroke-linecap="round" stroke-linejoin="round" stroke-width="1.0"/>
    <path d="M303.75 241.1 Q296.0 247.0 281.45 247.8 266.75 248.65 251.05 242.25" fill="none" stroke="#d3e0a3" stroke-linecap="round" stroke-linejoin="round" stroke-width="1.0"/>
    <path d="M280.7 253.35 L282.1 253.3 Q299.4 252.3 308.55 245.25 M280.7 253.35 Q263.9 254.0 246.05 247.05" fill="none" stroke="#b9ce6f" stroke-linecap="round" stroke-linejoin="round" stroke-width="1.0"/>
    <path d="M275.1 168.15 L275.15 168.15 275.1 168.3 275.1 168.15" fill="#8d8dc7" fill-opacity="0.7019608" fill-rule="evenodd" stroke="none"/>
    <path d="M273.1 148.2 Q266.75 148.4 262.1 149.9 256.55 151.7 256.55 154.2 256.55 156.7 262.1 158.45 267.6 160.25 275.4 160.3 L279.65 160.15 Q284.8 159.75 288.8 158.45 294.3 156.7 294.3 154.2 294.3 151.7 288.8 149.9 283.25 148.15 275.4 148.15 L273.1 148.2 275.4 148.15 Q283.25 148.15 288.8 149.9 294.3 151.7 294.3 154.2 294.3 156.7 288.8 158.45 284.8 159.75 279.65 160.15 274.5 155.45 273.1 148.2 M253.3 161.15 Q255.05 163.0 258.15 164.55 260.7 165.85 263.6 166.7 260.7 165.85 258.15 164.55 255.05 163.0 253.3 161.15 251.15 158.85 251.15 156.1 251.15 151.1 258.15 147.5 265.15 144.05 275.15 144.05 285.1 144.05 292.15 147.5 299.1 151.1 299.1 156.1 299.15 159.85 296.25 161.8 L292.15 164.55 Q289.25 166.0 285.95 166.9 280.85 165.6 274.4 165.6 268.4 165.6 263.6 166.7 261.5 167.15 259.6 167.85 253.85 169.95 253.55 172.85 L253.3 161.15 M296.3 172.15 Q296.25 170.9 292.45 169.2 L296.25 167.05 296.3 172.15" fill="#b0c657" fill-rule="evenodd" stroke="none"/>
    <path d="M279.65 160.15 L275.4 160.3 Q267.6 160.25 262.1 158.45 256.55 156.7 256.55 154.2 256.55 151.7 262.1 149.9 266.75 148.4 273.1 148.2 274.5 155.45 279.65 160.15 M253.55 172.85 Q253.85 169.95 259.6 167.85 261.5 167.15 263.6 166.7 268.4 165.6 274.4 165.6 280.85 165.6 285.95 166.9 281.05 168.15 275.15 168.15 L275.1 168.15 275.1 168.3 Q282.05 172.15 289.05 171.25 L292.45 169.2 Q296.25 170.9 296.3 172.15 L296.3 172.35 296.25 172.8 Q295.65 176.15 289.15 178.5 283.05 180.75 274.4 180.75 265.7 180.75 259.6 178.5 253.5 176.3 253.5 173.2 L253.55 172.85 M263.6 166.7 Q268.65 168.1 274.8 168.15 L275.1 168.15 274.8 168.15 Q268.65 168.1 263.6 166.7" fill="#89a837" fill-rule="evenodd" stroke="none"/>
    <path d="M285.95 166.9 Q289.25 166.0 292.15 164.55 L296.25 161.8 296.25 167.05 292.45 169.2 289.05 171.25 Q282.05 172.15 275.1 168.3 L275.15 168.15 Q281.05 168.15 285.95 166.9" fill="#607526" fill-rule="evenodd" stroke="none"/>
    <path d="M296.3 172.15 L296.3 172.35" fill="none" stroke="#000000" stroke-linecap="round" stroke-linejoin="round" stroke-opacity="0.6" stroke-width="1.0"/>
    <path d="M296.3 172.35 L296.25 172.8" fill="none" stroke="#000000" stroke-linecap="round" stroke-linejoin="round" stroke-opacity="0.6" stroke-width="1.0"/>
    <path d="M296.25 161.8 Q299.15 159.85 299.1 156.1 299.1 151.1 292.15 147.5 285.1 144.05 275.15 144.05 265.15 144.05 258.15 147.5 251.15 151.1 251.15 156.1 251.15 158.85 253.3 161.15" fill="none" stroke="#000000" stroke-linecap="round" stroke-linejoin="round" stroke-opacity="0.8" stroke-width="1.0"/>
    <path d="M253.3 161.15 L253.55 172.85 M296.3 172.15 L296.25 167.05 296.25 161.8" fill="none" stroke="#000000" stroke-linecap="round" stroke-linejoin="round" stroke-opacity="0.8" stroke-width="1.0"/>
    <path d="M279.65 160.15 L275.4 160.3 Q267.6 160.25 262.1 158.45 256.55 156.7 256.55 154.2 256.55 151.7 262.1 149.9 266.75 148.4 273.1 148.2 L275.4 148.15 Q283.25 148.15 288.8 149.9 294.3 151.7 294.3 154.2 294.3 156.7 288.8 158.45 284.8 159.75 279.65 160.15 M263.6 166.7 Q260.7 165.85 258.15 164.55 255.05 163.0 253.3 161.15 M253.55 172.85 Q253.85 169.95 259.6 167.85 261.5 167.15 263.6 166.7 268.4 165.6 274.4 165.6 280.85 165.6 285.95 166.9 289.25 166.0 292.15 164.55 L296.25 161.8 M275.15 168.15 L275.1 168.15 274.8 168.15 Q268.65 168.1 263.6 166.7 M275.15 168.15 Q281.05 168.15 285.95 166.9 M292.45 169.2 Q296.25 170.9 296.3 172.15" fill="none" stroke="#d3e0a3" stroke-linecap="round" stroke-linejoin="round" stroke-width="1.0"/>
    <path d="M296.25 172.8 Q295.65 176.15 289.15 178.5 283.05 180.75 274.4 180.75 265.7 180.75 259.6 178.5 253.5 176.3 253.5 173.2 L253.55 172.85" fill="none" stroke="#b3ca60" stroke-linecap="round" stroke-linejoin="round" stroke-width="1.0"/>
    <path d="M312.7 204.4 L313.15 204.7 Q314.45 268.5 244.55 241.65 304.95 252.85 312.7 204.4" fill="#ffffff" fill-opacity="0.4" fill-rule="evenodd" stroke="none"/>
    <path d="M256.35 198.75 Q248.85 202.35 247.8 210.05 246.65 217.75 243.25 217.95 239.75 218.2 237.25 211.75 234.75 205.35 236.55 197.4 238.3 189.45 243.25 184.65 248.25 179.9 253.55 181.05 258.8 182.25 261.3 188.65 263.75 195.1 256.35 198.75" fill="#ffffff" fill-opacity="0.8" fill-rule="evenodd" stroke="none"/>
    <path d="M258.05 159.4 L265.1 160.95 272.15 162.5 Q275.1 163.1 274.85 164.3 274.6 165.5 271.45 165.7 L264.25 165.1 Q260.1 164.2 257.3 162.7 254.55 161.2 254.8 160.0 255.05 158.8 258.05 159.4" fill="#ffffff" fill-opacity="0.6" fill-rule="evenodd" stroke="none"/>
    <path d="M280.55 148.85 L285.4 149.9 290.3 150.8 Q292.3 151.25 292.5 150.3 292.7 149.35 290.85 148.25 288.95 147.1 286.1 146.55 L281.1 146.2 Q278.9 146.5 278.7 147.45 278.5 148.4 280.55 148.85" fill="#ffffff" fill-opacity="0.6" fill-rule="evenodd" stroke="none"/>
    <path d="M237.25 224.35 Q238.7 222.85 240.75 222.85 242.75 222.85 244.2 224.35 245.65 225.85 245.65 228.0 245.65 230.15 244.2 231.65 242.75 233.15 240.75 233.15 238.7 233.15 237.25 231.65 235.8 230.15 235.8 228.0 235.8 225.85 237.25 224.35" fill="#ffffff" fill-opacity="0.6" fill-rule="evenodd" stroke="none"/>
    <path d="M254.25 176.75 L253.55 176.15 Q252.05 174.4 251.2 172.35 L251.2 172.2 Q250.95 171.25 251.2 170.3 L251.25 170.3 Q252.2 170.5 253.4 171.1 252.2 170.5 251.25 170.3 251.4 167.75 253.15 166.85 L253.4 171.1 Q255.3 172.0 257.8 173.8 L258.3 174.05 Q260.45 175.75 261.1 177.95 258.6 179.0 254.25 176.75 M287.3 179.7 L290.7 175.35 290.95 174.95 Q293.45 172.3 296.45 171.2 L298.1 170.75 298.85 170.6 299.0 170.75 298.4 171.95 298.0 172.75 296.25 175.7 296.15 175.85 Q292.5 179.65 288.4 180.3 L287.3 179.7 M286.8 179.5 Q284.05 183.2 276.5 183.45 L273.6 181.45 Q276.25 180.15 279.95 179.35 L280.45 179.15 286.8 179.5 M273.2 181.05 Q271.85 184.05 264.85 182.45 L264.75 182.4 263.75 181.95 Q262.0 180.5 261.25 178.25 L267.85 178.6 268.4 178.65 Q271.4 179.35 273.2 181.05" fill="#cda338" fill-rule="evenodd" stroke="none"/>
    <path d="M254.25 176.75 Q258.6 179.0 261.1 177.95 L261.25 178.25 Q262.0 180.5 263.75 181.95 L263.85 182.35 Q260.2 180.8 257.6 179.25 L257.35 179.05 Q255.5 177.9 254.25 176.75 M287.3 179.7 L288.4 180.3 Q292.5 179.65 296.15 175.85 294.65 178.0 293.1 179.35 L290.9 180.7 289.0 181.2 Q281.4 184.5 276.95 183.9 L277.0 183.8 276.5 183.45 277.0 183.8 276.5 183.85 Q268.95 184.05 264.85 182.45 271.85 184.05 273.2 181.05 L273.3 181.1 273.6 181.45 276.5 183.45 Q284.05 183.2 286.8 179.5 L287.3 179.7 M298.85 170.6 L298.1 170.75 296.45 171.2 296.4 165.6 Q298.65 167.8 299.0 170.6 L298.85 170.6 M288.4 180.3 L290.3 180.65 289.0 181.2 290.3 180.65 288.4 180.3" fill="#a2642f" fill-rule="evenodd" stroke="none"/>
    <path d="M251.25 170.3 L251.2 170.3 Q250.95 171.25 251.2 172.2 L251.2 172.35 Q252.05 174.4 253.55 176.15 L254.25 176.75 Q255.5 177.9 257.35 179.05 255.05 177.9 253.55 176.15 M261.1 177.95 Q260.45 175.75 258.3 174.05 L257.8 173.8 Q255.3 172.0 253.4 171.1 252.2 170.5 251.25 170.3 M296.45 171.2 Q293.45 172.3 290.95 174.95 L290.7 175.35 287.3 179.7 288.4 180.3 290.3 180.65 289.0 181.2 Q281.4 184.5 276.95 183.9 L276.5 183.85 277.0 183.8 276.5 183.45 273.6 181.45 273.3 181.1 M296.25 175.7 L298.0 172.75 298.4 171.95 299.0 170.75 299.05 170.7 299.1 170.6 299.0 170.6 298.85 170.6 298.1 170.75 296.45 171.2 M293.1 179.35 L296.15 176.4 Q297.4 174.7 298.0 172.75 M287.3 179.7 L286.8 179.5 280.45 179.15 279.95 179.35 Q276.25 180.15 273.6 181.45 M290.9 180.7 L289.0 181.2 M257.6 179.25 Q258.8 180.35 260.4 181.1 267.05 184.2 275.55 184.2 L276.5 184.2 Q284.4 184.0 290.25 181.05 L290.9 180.7 293.1 179.35 Q294.65 178.0 296.15 175.85 M264.85 182.45 Q268.95 184.05 276.5 183.85 M273.2 181.05 Q271.4 179.35 268.4 178.65 L267.85 178.6 261.25 178.25 Q262.0 180.5 263.75 181.95 L264.75 182.4 M261.25 178.25 L261.1 177.95 M263.75 181.95 L263.85 182.35 Q260.2 180.8 257.6 179.25 L257.35 179.05" fill="none" stroke="#000000" stroke-linecap="round" stroke-linejoin="round" stroke-opacity="0.4" stroke-width="0.4"/>
    <path d="M251.25 170.3 Q251.4 167.75 253.15 166.85 L253.4 171.1 M296.45 171.2 L296.4 165.6 Q298.65 167.8 299.0 170.6" fill="none" stroke="#000000" stroke-linecap="round" stroke-linejoin="round" stroke-opacity="0.4" stroke-width="0.4"/>
  </g>
</svg>
