<?xml version="1.0" encoding="UTF-8" standalone="no"?>
<svg xmlns:xlink="http://www.w3.org/1999/xlink" height="78.95px" width="108.7px" xmlns="http://www.w3.org/2000/svg">
  <g transform="matrix(1.0, 0.0, 0.0, 1.0, -220.75, -160.65)">
    <path d="M319.6 166.5 L319.25 162.1 Q319.6 161.75 320.0 161.75 321.45 161.05 323.6 160.65 320.7 164.3 320.0 167.95 320.0 167.2 319.6 166.5 M313.45 202.85 L323.25 190.45 326.9 181.75 Q332.35 189.4 326.15 199.9 322.55 205.75 315.6 212.65 315.6 207.55 313.45 202.85 M326.15 199.9 Q326.15 193.75 323.25 190.45 326.15 193.75 326.15 199.9" fill="#427882" fill-rule="evenodd" stroke="none"/>
    <path d="M319.6 166.5 Q318.55 164.65 313.8 165.05 318.55 164.65 319.6 166.5 320.0 167.2 320.0 167.95 L320.0 168.65 Q319.25 171.55 320.35 173.75 321.1 175.95 323.25 177.75 313.1 171.95 308.0 181.4 313.1 171.95 323.25 177.75 L323.6 178.1 Q325.45 179.55 326.9 181.75 L323.25 190.45 313.45 202.85 Q310.15 195.55 302.2 189.4 304.7 187.95 307.65 186.85 L312.7 186.45 309.1 186.1 Q308.0 183.55 308.0 181.4 305.8 170.85 313.8 165.05 316.0 163.2 319.25 162.1 L319.6 166.5 M312.7 186.45 Q320.0 186.45 323.25 190.45 320.0 186.45 312.7 186.45" fill="#569ca9" fill-rule="evenodd" stroke="none"/>
    <path d="M313.8 165.05 Q318.55 164.65 319.6 166.5 320.0 167.2 320.0 167.95 L320.0 168.65 M319.25 162.1 Q316.0 163.2 313.8 165.05 305.8 170.85 308.0 181.4 313.1 171.95 323.25 177.75 L323.6 178.1 Q325.45 179.55 326.9 181.75 332.35 189.4 326.15 199.9 322.55 205.75 315.6 212.65 M320.0 161.75 Q321.45 161.05 323.6 160.65 320.7 164.3 320.0 167.95 M307.65 186.85 L312.7 186.45 Q320.0 186.45 323.25 190.45 326.15 193.75 326.15 199.9 M309.1 186.1 Q308.0 183.55 308.0 181.4" fill="none" stroke="#000000" stroke-linecap="round" stroke-linejoin="round" stroke-opacity="0.6" stroke-width="0.05"/>
    <path d="M312.7 186.45 L309.1 186.1 Q308.35 186.45 307.65 186.85 304.7 187.95 302.2 189.4 310.15 195.55 313.45 202.85 315.6 207.55 315.6 212.65" fill="none" stroke="#000000" stroke-linecap="round" stroke-linejoin="round" stroke-opacity="0.6" stroke-width="0.05"/>
    <path d="M319.25 162.1 Q319.6 161.75 320.0 161.75" fill="none" stroke="#66ff00" stroke-linecap="round" stroke-linejoin="round" stroke-width="0.05"/>
    <path d="M260.5 181.45 L269.0 183.85 Q267.3 186.5 265.75 189.45 L265.05 189.4 260.5 181.45" fill="#68a6b3" fill-rule="evenodd" stroke="none"/>
    <path d="M260.5 181.45 L265.05 189.4 256.15 189.65 260.5 181.45" fill="#acced5" fill-rule="evenodd" stroke="none"/>
    <path d="M265.05 189.4 L265.75 189.45 Q267.3 186.5 269.0 183.85 L260.5 181.45 265.05 189.4 256.15 189.65 260.5 181.45 M265.75 189.45 L265.35 189.95 265.05 189.4" fill="none" stroke="#000000" stroke-linecap="round" stroke-linejoin="round" stroke-opacity="0.6" stroke-width="0.05"/>
    <path d="M278.2 182.65 L278.55 182.65 Q294.8 179.15 313.45 192.65 318.7 198.2 321.65 201.95 324.75 205.9 325.25 207.75 320.4 216.45 310.4 221.85 L309.45 218.9 304.45 221.25 305.7 224.05 305.0 224.35 Q290.55 230.1 267.85 230.45 L267.65 230.3 Q259.0 206.75 274.6 186.85 L277.5 198.2 285.7 190.45 274.95 186.45 Q276.45 184.5 278.2 182.65 M306.45 201.25 L306.3 204.7 313.55 204.2 312.3 200.7 312.2 200.7 306.45 201.25 M298.0 193.8 L290.25 193.4 287.85 198.9 293.3 203.25 300.1 200.7 298.0 193.8" fill="#af8630" fill-rule="evenodd" stroke="none"/>
    <path d="M243.3 226.45 L243.5 221.9 244.95 221.9 250.6 221.75 Q255.85 221.3 258.4 213.75 L258.75 213.9 Q262.75 204.05 253.5 199.95 L252.75 199.95 252.2 199.95 250.4 199.55 Q253.05 190.05 262.95 185.4 269.75 183.3 277.1 183.05 L278.2 182.65 Q276.45 184.5 274.95 186.45 L285.7 190.45 277.5 198.2 274.6 186.85 Q259.0 206.75 267.65 230.3 L267.65 230.45 Q263.6 230.4 256.2 228.65 247.45 226.7 243.3 226.45" fill="#896825" fill-rule="evenodd" stroke="none"/>
    <path d="M325.25 207.75 Q328.8 210.0 329.1 212.1 L329.1 212.45 Q329.2 215.05 327.25 218.65 320.3 237.95 268.55 239.55 264.65 234.6 267.65 230.45 L267.85 230.45 Q290.55 230.1 305.0 224.35 L305.7 224.05 305.9 224.75 Q310.3 225.05 310.85 225.9 L316.15 222.6 310.55 222.4 310.4 221.85 Q320.4 216.45 325.25 207.75" fill="#e8954a" fill-rule="evenodd" stroke="none"/>
    <path d="M268.55 239.55 L252.95 238.8 Q243.75 237.75 242.05 236.45 238.6 233.9 238.95 231.0 239.45 228.45 243.3 226.45 247.45 226.7 256.2 228.65 263.6 230.4 267.65 230.45 264.65 234.6 268.55 239.55" fill="#e0791d" fill-rule="evenodd" stroke="none"/>
    <path d="M298.0 193.8 L300.1 200.7 293.3 203.25 287.85 198.9 290.25 193.4 298.0 193.8 M306.45 201.25 L312.2 200.7 312.3 200.7 313.55 204.2 306.3 204.7 306.45 201.25 M305.7 224.05 L304.45 221.25 309.45 218.9 310.4 221.85 Q308.15 223.05 305.7 224.05" fill="#afa936" fill-rule="evenodd" stroke="none"/>
    <path d="M310.4 221.85 L310.55 222.4 316.15 222.6 310.85 225.9 Q310.3 225.05 305.9 224.75 L305.7 224.05 Q308.15 223.05 310.4 221.85" fill="#827d28" fill-rule="evenodd" stroke="none"/>
    <path d="M325.25 207.75 Q328.8 210.0 329.1 212.1 L329.1 212.45 Q329.2 215.05 327.25 218.65 320.3 237.95 268.55 239.55 L252.95 238.8 Q243.75 237.75 242.05 236.45 238.6 233.9 238.95 231.0 239.45 228.45 243.3 226.45 L243.5 221.9 244.95 221.9 250.6 221.75 Q255.85 221.3 258.4 213.75 M258.75 213.9 Q262.75 204.05 253.5 199.95 L252.75 199.95 252.2 199.95 250.4 199.55 Q253.05 190.05 262.95 185.4 269.75 183.3 277.1 183.05 L278.2 182.65 278.55 182.65 Q294.8 179.15 313.45 192.65 318.7 198.2 321.65 201.95 324.75 205.9 325.25 207.75 M267.85 230.45 L267.65 230.45 Q263.6 230.4 256.2 228.65 247.45 226.7 243.3 226.45 M267.65 230.3 L267.85 230.45 M267.65 230.3 L267.65 230.45" fill="none" stroke="#000000" stroke-linecap="round" stroke-linejoin="round" stroke-opacity="0.6" stroke-width="0.05"/>
    <path d="M325.25 207.75 Q320.4 216.45 310.4 221.85 308.15 223.05 305.7 224.05 L305.0 224.35 Q290.55 230.1 267.85 230.45" fill="none" stroke="#eff2f5" stroke-linecap="round" stroke-linejoin="round" stroke-width="0.05"/>
    <path d="M244.4 196.65 L244.4 197.4 244.4 198.1 244.75 198.1 Q245.5 204.3 244.4 208.65 L253.5 206.45 Q256.75 205.35 260.4 204.65 260.75 204.65 260.75 205.35 270.55 222.45 250.55 229.0 246.2 230.45 241.1 231.2 225.15 230.8 224.05 219.2 223.7 215.9 224.4 211.9 227.65 203.9 227.3 199.2 226.6 193.75 220.75 193.4 222.95 189.0 226.2 186.85 L236.05 191.9 244.4 196.65 M236.05 191.9 Q235.65 198.1 227.3 199.2 235.65 198.1 236.05 191.9 M250.55 229.0 Q258.55 218.45 253.5 206.45 258.55 218.45 250.55 229.0 M224.05 219.2 Q241.1 220.25 244.4 208.65 241.1 220.25 224.05 219.2" fill="#427882" fill-rule="evenodd" stroke="none"/>
    <path d="M226.2 186.85 Q229.5 184.65 234.2 185.0 L235.3 185.0 Q244.05 186.45 244.4 196.65 L236.05 191.9 226.2 186.85 M244.75 198.1 L244.75 197.75 245.85 197.4 Q246.55 196.65 247.65 196.65 251.65 195.55 256.75 199.2 258.95 202.1 260.4 204.65 256.75 205.35 253.5 206.45 L244.4 208.65 Q245.5 204.3 244.75 198.1 M234.2 185.0 Q236.05 189.0 236.05 191.9 236.05 189.0 234.2 185.0 M247.65 196.65 Q251.3 201.75 253.5 206.45 251.3 201.75 247.65 196.65" fill="#569ca9" fill-rule="evenodd" stroke="none"/>
    <path d="M226.2 186.85 Q229.5 184.65 234.2 185.0 L235.3 185.0 Q244.05 186.45 244.4 196.65 L244.4 197.4 Q244.4 197.75 244.75 198.1 L244.75 197.75 245.85 197.4 Q246.55 196.65 247.65 196.65 251.65 195.55 256.75 199.2 258.95 202.1 260.4 204.65 M260.75 205.35 Q270.55 222.45 250.55 229.0 246.2 230.45 241.1 231.2 225.15 230.8 224.05 219.2 223.7 215.9 224.4 211.9 227.65 203.9 227.3 199.2 226.6 193.75 220.75 193.4 222.95 189.0 226.2 186.85 M236.05 191.9 Q236.05 189.0 234.2 185.0 M244.4 197.4 L244.4 198.1 244.75 198.1 Q245.5 204.3 244.4 208.65 241.1 220.25 224.05 219.2 M253.5 206.45 Q251.3 201.75 247.65 196.65 M227.3 199.2 Q235.65 198.1 236.05 191.9 M253.5 206.45 Q258.55 218.45 250.55 229.0" fill="none" stroke="#000000" stroke-linecap="round" stroke-linejoin="round" stroke-opacity="0.6" stroke-width="0.05"/>
    <path d="M281.85 180.3 L289.45 187.6 Q286.2 189.4 282.9 191.6 282.55 191.6 282.2 191.25 282.2 185.8 281.85 180.3" fill="#68a6b3" fill-rule="evenodd" stroke="none"/>
    <path d="M282.2 191.25 Q277.45 188.7 272.75 186.5 L281.85 180.3 Q282.2 185.8 282.2 191.25" fill="#acced5" fill-rule="evenodd" stroke="none"/>
    <path d="M282.2 191.25 Q277.45 188.7 272.75 186.5 L281.85 180.3 289.45 187.6 Q286.2 189.4 282.9 191.6 282.55 191.95 282.2 191.95 L282.2 191.25 Q282.2 185.8 281.85 180.3 M282.2 191.25 Q282.55 191.6 282.9 191.6" fill="none" stroke="#000000" stroke-linecap="round" stroke-linejoin="round" stroke-opacity="0.6" stroke-width="0.05"/>
    <path d="M304.6 210.15 L305.05 218.5 305.0 218.85 305.05 219.75 304.65 219.7 296.75 216.4 296.7 215.45 304.6 210.15 M304.65 219.7 L305.05 218.5 304.65 219.7" fill="#68a6b3" fill-rule="evenodd" stroke="none"/>
    <path d="M304.45 209.9 L306.65 208.8 307.45 208.4 306.2 213.55 305.6 216.1 305.05 218.5 304.6 210.15 304.45 209.9 304.6 210.15 296.7 215.45 296.9 203.15 297.85 204.05 304.45 209.9" fill="#acced5" fill-rule="evenodd" stroke="none"/>
    <path d="M306.65 208.8 L304.45 209.9 297.85 204.05 306.65 208.65 306.65 208.8" fill="#e6f0f2" fill-rule="evenodd" stroke="none"/>
    <path d="M305.05 219.75 L305.15 219.75 304.6 223.65 297.05 219.9 296.55 216.4 296.75 216.4 304.65 219.7 305.05 219.75" fill="#896825" fill-rule="evenodd" stroke="none"/>
    <path d="M297.85 204.05 L304.45 209.9 304.6 210.15 305.05 218.5 305.6 216.1 M306.2 213.55 L307.45 208.4 M305.05 219.75 L304.65 219.7 296.75 216.4 296.7 215.45 296.9 203.15 297.85 204.05 M305.05 219.75 L305.0 218.85 305.05 218.5 304.65 219.7 M304.6 210.15 L296.7 215.45" fill="none" stroke="#000000" stroke-linecap="round" stroke-linejoin="round" stroke-opacity="0.6" stroke-width="0.05"/>
    <path d="M304.45 209.9 L306.65 208.8 307.45 208.4 306.65 208.65 297.85 204.05" fill="none" stroke="#000000" stroke-linecap="round" stroke-linejoin="round" stroke-opacity="0.6" stroke-width="0.05"/>
  </g>
</svg>
