<?xml version="1.0" encoding="UTF-8" standalone="no"?>
<svg xmlns:xlink="http://www.w3.org/1999/xlink" height="84.85px" width="43.85px" xmlns="http://www.w3.org/2000/svg">
  <g transform="matrix(1.0, 0.0, 0.0, 1.0, -22.55, -18.0)">
    <path d="M27.8 85.5 Q32.75 98.55 43.75 102.85 32.2 95.3 30.35 85.2 L28.6 84.75 27.8 85.5" fill="#9edd5e" fill-rule="evenodd" stroke="none"/>
    <path d="M27.8 85.5 Q32.75 98.55 43.75 102.85 32.2 95.3 30.35 85.2 L28.6 84.75 27.8 85.5 Z" fill="none" stroke="#000000" stroke-linecap="round" stroke-linejoin="round" stroke-opacity="0.12156863" stroke-width="0.05"/>
    <path d="M29.55 81.2 Q25.65 94.45 31.7 100.85 27.1 91.3 31.7 81.5 L30.6 80.7 29.55 81.2" fill="#d1dd5e" fill-rule="evenodd" stroke="none"/>
    <path d="M29.55 81.2 Q25.65 94.45 31.7 100.85 27.1 91.3 31.7 81.5 L30.6 80.7 29.55 81.2 Z" fill="none" stroke="#000000" stroke-linecap="round" stroke-linejoin="round" stroke-opacity="0.12156863" stroke-width="0.05"/>
    <path d="M30.9 82.7 L29.5 82.1 28.5 82.9 Q28.25 96.95 36.9 102.25 28.95 93.55 30.9 82.7" fill="#7ccb2c" fill-rule="evenodd" stroke="none"/>
    <path d="M30.9 82.7 L29.5 82.1 28.5 82.9 Q28.25 96.95 36.9 102.25 28.95 93.55 30.9 82.7 Z" fill="none" stroke="#000000" stroke-linecap="round" stroke-linejoin="round" stroke-opacity="0.12156863" stroke-width="0.05"/>
    <path d="M31.15 81.55 L30.75 80.55 29.95 80.8 Q23.4 92.0 24.8 99.15 25.3 89.5 31.15 81.55" fill="#5e9a21" fill-rule="evenodd" stroke="none"/>
    <path d="M31.15 81.55 L30.75 80.55 29.95 80.8 Q23.4 92.0 24.8 99.15 25.3 89.5 31.15 81.55 Z" fill="none" stroke="#000000" stroke-linecap="round" stroke-linejoin="round" stroke-opacity="0.12156863" stroke-width="0.05"/>
    <path d="M32.9 82.85 L31.5 82.45 30.8 83.05 Q34.1 93.75 42.8 97.55 33.8 91.1 32.9 82.85" fill="#94a01b" fill-rule="evenodd" stroke="none"/>
    <path d="M32.9 82.85 L31.5 82.45 30.8 83.05 Q34.1 93.75 42.8 97.55 33.8 91.1 32.9 82.85 Z" fill="none" stroke="#000000" stroke-linecap="round" stroke-linejoin="round" stroke-opacity="0.12156863" stroke-width="0.05"/>
    <path d="M26.0 72.7 Q41.35 36.3 66.4 18.0 38.95 44.8 31.3 71.8 L27.35 74.15 26.0 72.7" fill="#9edd5e" fill-rule="evenodd" stroke="none"/>
    <path d="M26.0 72.7 Q41.35 36.3 66.4 18.0 38.95 44.8 31.3 71.8 L27.35 74.15 26.0 72.7 Z" fill="none" stroke="#000000" stroke-linecap="round" stroke-linejoin="round" stroke-opacity="0.12156863" stroke-width="0.05"/>
    <path d="M28.0 82.65 Q24.65 51.55 40.0 31.2 26.65 58.6 32.7 80.5 L30.0 83.3 28.0 82.65" fill="#d1dd5e" fill-rule="evenodd" stroke="none"/>
    <path d="M28.0 82.65 Q24.65 51.55 40.0 31.2 26.65 58.6 32.7 80.5 L30.0 83.3 28.0 82.65 Z" fill="none" stroke="#000000" stroke-linecap="round" stroke-linejoin="round" stroke-opacity="0.12156863" stroke-width="0.05"/>
    <path d="M31.15 77.8 Q29.45 79.0 27.85 80.3 L26.0 79.0 Q30.9 43.2 51.2 24.1 31.0 51.55 31.15 77.8" fill="#7ccb2c" fill-rule="evenodd" stroke="none"/>
    <path d="M31.15 77.8 Q29.45 79.0 27.85 80.3 L26.0 79.0 Q30.9 43.2 51.2 24.1 31.0 51.55 31.15 77.8 Z" fill="none" stroke="#000000" stroke-linecap="round" stroke-linejoin="round" stroke-opacity="0.12156863" stroke-width="0.05"/>
    <path d="M31.6 80.7 L30.4 83.4 28.8 83.25 Q18.95 59.15 24.65 39.95 22.0 64.35 31.6 80.7" fill="#5e9a21" fill-rule="evenodd" stroke="none"/>
    <path d="M31.6 80.7 L30.4 83.4 28.8 83.25 Q18.95 59.15 24.65 39.95 22.0 64.35 31.6 80.7 Z" fill="none" stroke="#000000" stroke-linecap="round" stroke-linejoin="round" stroke-opacity="0.12156863" stroke-width="0.05"/>
    <path d="M35.4 76.05 L32.25 78.1 31.1 77.05 Q42.2 47.5 62.1 31.95 40.6 54.4 35.4 76.05" fill="#94a01b" fill-rule="evenodd" stroke="none"/>
    <path d="M35.4 76.05 L32.25 78.1 31.1 77.05 Q42.2 47.5 62.1 31.95 40.6 54.4 35.4 76.05 Z" fill="none" stroke="#000000" stroke-linecap="round" stroke-linejoin="round" stroke-opacity="0.12156863" stroke-width="0.05"/>
    <path d="M29.8 75.45 Q42.85 56.45 59.35 51.45 40.45 61.2 32.95 76.25 L30.4 76.7 29.8 75.45" fill="#9edd5e" fill-rule="evenodd" stroke="none"/>
    <path d="M29.8 75.45 Q42.85 56.45 59.35 51.45 40.45 61.2 32.95 76.25 L30.4 76.7 29.8 75.45 Z" fill="none" stroke="#000000" stroke-linecap="round" stroke-linejoin="round" stroke-opacity="0.12156863" stroke-width="0.05"/>
    <path d="M29.75 82.25 Q31.45 61.65 42.65 52.8 31.8 66.65 32.65 82.15 L30.8 83.25 29.75 82.25" fill="#d1dd5e" fill-rule="evenodd" stroke="none"/>
    <path d="M29.75 82.25 Q31.45 61.65 42.65 52.8 31.8 66.65 32.65 82.15 L30.8 83.25 29.75 82.25 Z" fill="none" stroke="#000000" stroke-linecap="round" stroke-linejoin="round" stroke-opacity="0.12156863" stroke-width="0.05"/>
    <path d="M32.15 80.05 Q31.05 80.35 29.95 80.8 L29.05 79.45 Q36.05 58.05 49.9 51.3 35.15 63.35 32.15 80.05" fill="#7ccb2c" fill-rule="evenodd" stroke="none"/>
    <path d="M32.15 80.05 Q31.05 80.35 29.95 80.8 L29.05 79.45 Q36.05 58.05 49.9 51.3 35.15 63.35 32.15 80.05 Z" fill="none" stroke="#000000" stroke-linecap="round" stroke-linejoin="round" stroke-opacity="0.12156863" stroke-width="0.05"/>
    <path d="M31.95 81.95 L31.0 83.35 30.1 82.8 Q27.3 64.95 32.8 54.3 28.45 69.05 31.95 81.95" fill="#5e9a21" fill-rule="evenodd" stroke="none"/>
    <path d="M31.95 81.95 L31.0 83.35 30.1 82.8 Q27.3 64.95 32.8 54.3 28.45 69.05 31.95 81.95 Z" fill="none" stroke="#000000" stroke-linecap="round" stroke-linejoin="round" stroke-opacity="0.12156863" stroke-width="0.05"/>
    <path d="M34.75 80.05 L32.7 80.5 32.2 79.55 Q42.0 63.7 55.25 59.15 40.3 67.7 34.75 80.05" fill="#94a01b" fill-rule="evenodd" stroke="none"/>
    <path d="M34.75 80.05 L32.7 80.5 32.2 79.55 Q42.0 63.7 55.25 59.15 40.3 67.7 34.75 80.05 Z" fill="none" stroke="#000000" stroke-linecap="round" stroke-linejoin="round" stroke-opacity="0.12156863" stroke-width="0.05"/>
    <path d="M33.2 77.7 L33.95 75.9 36.75 78.25 36.2 81.0 34.8 79.95 33.2 77.7 M35.25 82.45 L32.6 83.8 31.0 81.7 30.8 79.6 32.3 79.7 32.35 79.8 32.55 81.0 35.25 82.45 M30.5 83.9 L28.8 83.3 27.4 79.55 28.05 77.75 29.05 79.45 30.5 83.9 M26.4 80.65 L24.35 79.65 24.25 79.5 24.15 77.5 27.15 75.85 27.35 76.95 25.35 78.05 26.4 80.65" fill="#98a045" fill-rule="evenodd" stroke="none"/>
    <path d="M36.2 81.0 L35.75 82.8 35.25 82.45 32.55 81.0 32.35 79.8 33.2 77.7 34.8 79.95 36.2 81.0 M32.6 83.8 L30.8 84.75 30.5 83.9 29.05 79.45 30.8 79.6 31.0 81.7 32.6 83.8 M28.8 83.3 L27.3 82.8 26.4 80.65 25.35 78.05 27.35 76.95 27.5 76.85 28.05 77.75 27.4 79.55 28.8 83.3 M24.25 79.5 L22.55 77.25 Q24.2 74.85 26.9 74.15 L27.15 75.85 24.15 77.5 24.25 79.5" fill="#c6cc88" fill-rule="evenodd" stroke="none"/>
    <path d="M33.2 77.7 L33.95 75.9 36.75 78.25 36.2 81.0 35.75 82.8 35.25 82.45 32.6 83.8 30.8 84.75 30.5 83.9 28.8 83.3 27.3 82.8 26.4 80.65 24.35 79.65 24.25 79.5 22.55 77.25 Q24.2 74.85 26.9 74.15 L27.15 75.85 27.35 76.95 27.5 76.85 28.05 77.75 29.05 79.45 30.8 79.6 32.3 79.7 32.35 79.8 33.2 77.7 M32.35 79.8 L32.55 81.0 35.25 82.45 M27.35 76.95 L25.35 78.05 26.4 80.65 M29.05 79.45 L30.5 83.9" fill="none" stroke="#000000" stroke-linecap="round" stroke-linejoin="round" stroke-opacity="0.12156863" stroke-width="0.05"/>
  </g>
</svg>
