<?xml version="1.0" encoding="UTF-8" standalone="no"?>
<svg xmlns:xlink="http://www.w3.org/1999/xlink" height="89.85px" width="94.25px" xmlns="http://www.w3.org/2000/svg">
  <g transform="matrix(1.0, 0.0, 0.0, 1.0, -227.85, -155.05)">
    <path d="M266.7 157.1 L268.55 155.7 268.75 155.7 269.1 155.6 272.7 155.3 Q286.2 154.5 297.5 161.0 300.4 162.75 303.3 165.0 L307.15 168.35 309.3 170.5 309.2 170.55 307.3 170.85 307.15 170.9 307.05 170.95 301.65 170.3 302.3 165.95 Q302.25 164.5 301.05 165.1 300.3 167.55 299.95 170.2 L297.5 170.25 Q294.15 170.3 291.55 171.05 L290.2 165.5 Q289.6 164.0 288.8 165.0 289.0 168.15 290.05 171.45 288.7 171.9 287.7 172.5 285.65 173.7 284.2 175.6 L282.8 173.8 Q281.95 173.1 281.45 174.1 L283.25 176.9 Q281.35 179.45 280.15 183.15 L279.75 184.5 Q280.4 186.1 282.05 186.05 L281.95 186.1 Q279.45 188.4 281.95 190.05 L281.3 197.05 275.35 199.3 278.45 195.9 277.8 196.0 275.1 196.2 Q274.6 193.75 273.2 196.35 L272.1 196.45 269.1 197.0 262.8 194.1 262.85 193.85 263.25 189.7 263.6 186.7 263.75 185.15 264.15 181.45 263.8 179.8 264.55 177.95 264.75 175.8 265.9 173.7 265.2 171.4 265.25 171.25 271.45 168.3 272.85 168.25 Q275.25 166.85 272.65 166.35 L266.9 166.65 266.8 163.05 270.85 160.75 271.35 160.65 Q273.25 159.55 271.2 159.15 L266.45 159.5 266.7 157.1 M269.85 192.95 L272.1 196.45 269.85 192.95 M273.7 158.3 L272.7 158.7 272.75 159.35 275.05 158.7 273.7 158.3 M272.35 161.25 L271.95 162.4 275.25 164.2 274.65 162.55 272.35 161.25 M282.9 162.45 L287.25 162.85 287.7 159.3 284.9 158.25 282.6 159.35 282.9 162.45 M278.75 161.75 L280.1 162.2 280.9 160.8 278.55 159.0 278.75 161.75 M286.0 163.7 L281.85 163.6 279.4 165.35 279.35 165.4 279.7 172.1 286.2 168.55 286.0 163.7 M275.35 165.95 L276.75 166.85 278.25 165.35 277.05 165.35 275.35 165.95 M274.05 168.55 L273.65 169.8 276.9 172.45 277.5 170.95 276.65 170.4 274.05 168.55 M278.15 187.2 L274.8 186.0 275.1 188.3 278.5 188.35 278.15 187.2 M269.3 191.3 L270.7 192.0 273.2 191.95 276.85 191.8 276.7 190.1 269.3 191.3 M279.05 195.25 Q278.4 195.6 277.8 196.0 278.4 195.6 279.05 195.25 M278.1 192.9 L276.6 194.65 278.1 192.9 M273.5 194.15 L273.2 191.95 273.5 194.15" fill="#c7c701" fill-rule="evenodd" stroke="none"/>
    <path d="M318.4 185.85 L320.0 185.6 319.45 186.9 313.45 189.05 318.6 189.1 319.85 189.1 319.8 189.2 319.65 190.6 312.75 192.9 319.35 192.35 320.6 192.25 320.6 192.3 320.6 192.25 320.6 192.3 320.2 194.2 314.0 196.5 318.8 197.8 318.85 198.35 319.05 201.2 319.05 201.4 316.55 203.15 315.5 203.2 313.9 200.0 312.2 199.3 Q311.5 198.15 310.55 199.1 310.65 201.1 311.05 203.3 L304.8 203.55 302.55 201.5 Q302.8 200.1 301.55 200.4 L299.75 203.8 291.05 204.0 287.2 201.5 287.65 199.25 286.75 198.4 286.85 198.1 291.7 201.05 Q295.65 201.55 299.2 200.9 302.6 200.15 304.1 198.2 304.7 196.2 303.85 194.2 L303.75 192.95 303.65 192.15 303.15 190.65 303.55 189.85 Q304.45 187.7 304.55 184.7 L304.25 182.9 304.0 181.95 Q303.55 180.1 305.0 178.75 L305.15 178.55 305.95 177.45 Q306.25 176.3 305.75 175.15 L300.05 175.35 300.0 175.2 Q286.6 175.9 282.65 183.35 280.6 185.1 280.15 183.15 281.35 179.45 283.25 176.9 L284.2 178.05 Q285.3 178.1 285.25 177.05 L284.2 175.6 Q285.65 173.7 287.7 172.5 288.7 171.9 290.05 171.45 290.0 171.85 290.25 172.3 291.35 173.2 291.7 171.75 L291.55 171.05 Q294.15 170.3 297.5 170.25 L299.95 170.2 299.85 171.7 Q300.6 172.8 301.45 171.55 L301.65 170.3 307.05 170.95 307.15 170.9 307.2 170.9 307.3 170.85 Q308.95 170.85 310.3 172.2 L310.4 172.35 Q315.35 178.5 317.55 186.0 L318.4 185.85 M234.9 224.25 L233.3 221.8 234.8 221.5 Q241.95 219.2 246.6 214.25 L246.85 215.55 247.0 216.0 Q248.0 219.55 248.9 217.1 L248.9 216.95 248.4 213.75 249.45 214.35 Q252.65 215.8 256.1 216.3 260.45 216.9 265.2 215.7 L267.6 215.0 266.55 218.55 266.4 219.05 Q265.35 223.95 267.85 221.15 L267.95 220.8 269.55 216.0 270.7 217.45 Q272.85 219.9 275.6 221.4 278.2 222.7 281.35 223.15 L284.4 223.35 284.1 223.65 283.9 223.95 Q282.3 226.5 284.55 226.05 L284.8 226.0 286.6 223.95 287.8 224.85 Q291.1 227.3 294.9 228.55 L294.1 229.55 295.95 230.4 Q287.8 239.35 269.7 240.25 252.7 239.75 240.55 229.0 242.25 232.4 245.5 234.95 241.35 231.95 237.7 227.85 L234.9 224.25 M228.5 196.45 Q229.45 182.75 238.55 172.05 L239.2 172.45 239.3 172.5 Q233.55 180.35 229.6 193.8 L229.5 194.2 229.95 195.15 Q234.7 182.1 241.15 173.65 L241.85 174.15 245.25 171.2 244.15 170.15 Q250.95 163.0 259.45 159.85 257.75 158.9 252.2 161.55 L252.1 161.65 Q248.95 162.65 242.65 168.8 L242.1 168.3 Q251.85 158.7 265.55 156.1 L266.7 157.1 266.45 159.5 262.3 159.75 Q260.05 160.15 261.0 161.15 L261.05 161.15 261.25 161.8 261.5 162.75 266.0 163.25 265.7 166.7 261.3 166.85 Q258.9 167.15 259.4 168.25 L259.25 168.25 259.75 170.15 265.2 171.4 265.9 173.7 264.75 175.8 261.95 175.0 261.85 178.55 264.55 177.95 263.8 179.8 264.15 181.45 260.75 184.45 263.75 185.15 263.6 186.7 258.9 187.2 260.0 192.55 263.25 189.7 262.85 193.85 255.5 202.95 250.75 203.8 245.55 199.45 245.5 199.35 Q243.9 197.25 243.8 200.15 L243.7 199.8 243.15 199.35 242.1 198.45 240.5 197.05 235.9 200.65 233.8 193.45 229.75 198.0 228.5 196.45 M298.35 171.7 Q299.45 172.2 300.05 175.35 299.45 172.2 298.35 171.7 M303.95 173.1 L304.45 173.5 305.75 175.15 304.45 173.5 303.95 173.1 M305.8 190.35 L303.55 189.85 305.8 190.35 M281.95 190.05 L282.9 190.65 283.05 190.95 Q282.7 193.45 284.45 196.2 L286.15 197.55 286.2 197.6 Q284.9 198.25 283.8 199.2 L281.25 197.5 281.3 197.05 281.95 190.05 M309.3 185.5 L305.8 186.25 309.3 185.5 M317.55 186.0 L312.5 186.55 317.55 186.0 M308.1 188.55 L305.8 188.7 308.1 188.55 M289.5 230.1 L289.2 229.6 289.5 230.1 M286.95 226.65 L289.2 229.6 290.6 229.05 288.05 226.6 286.95 226.65 M286.35 231.55 L286.45 231.6 287.65 231.75 286.6 227.6 286.0 227.7 286.35 231.55 M279.45 224.05 L276.35 223.65 276.4 225.25 279.7 224.7 279.55 224.05 279.45 224.05 M281.45 224.9 L282.2 224.7 281.45 224.9 277.9 226.25 278.6 227.65 282.15 225.45 281.45 224.9 M280.25 224.15 L279.55 224.05 280.25 224.15 M270.95 225.5 L272.05 225.6 269.6 220.55 269.3 220.65 269.2 220.7 269.35 221.1 270.85 225.5 270.95 225.5 M260.75 220.35 L261.05 221.45 264.85 220.05 264.8 219.3 260.75 220.35 260.2 220.45 260.75 220.35 M268.1 224.75 L268.1 224.85 269.0 225.25 268.7 222.55 268.2 222.6 268.15 222.65 268.1 224.75 M266.3 229.35 Q266.15 228.5 265.6 227.95 L265.35 227.7 265.05 226.85 262.95 226.5 261.15 227.7 261.5 229.1 261.5 229.4 261.5 229.45 261.65 230.15 Q261.75 230.6 262.15 231.1 262.8 231.8 263.85 231.9 264.85 231.95 265.55 231.35 266.2 230.65 266.3 229.7 L266.3 229.35 M269.65 234.65 Q269.85 235.3 270.8 236.05 272.25 237.15 274.35 237.4 276.4 237.45 277.85 236.65 279.4 235.75 279.45 234.3 L279.1 233.05 278.5 232.35 278.45 232.3 278.15 231.1 276.25 230.5 Q273.2 230.2 270.05 232.0 L269.85 233.3 269.6 233.8 269.65 234.65 M258.4 161.75 L259.9 161.35 258.4 161.75 M259.4 159.15 L260.1 159.8 259.4 159.15 M255.65 165.85 L258.45 167.15 255.65 165.85 M256.2 170.4 L258.5 169.4 256.2 170.4 M254.3 182.1 L248.8 179.65 247.4 184.7 254.3 182.1 M249.75 177.4 L253.85 179.75 255.95 175.05 252.75 172.35 249.75 177.4 M241.85 177.75 L244.15 181.7 247.65 178.25 241.85 177.75 M255.85 179.9 L257.5 185.15 261.85 181.5 255.85 179.9 M256.9 178.05 L260.75 179.4 259.1 175.0 256.9 178.05 M255.8 182.85 L250.7 187.1 255.35 189.15 255.8 182.85 M242.75 190.55 L242.35 189.45 Q241.9 188.95 241.45 188.85 L240.5 188.9 240.4 189.6 Q240.35 190.15 240.75 190.7 L241.5 191.6 Q241.95 191.75 242.4 191.4 L242.75 190.55 M237.75 185.05 Q237.4 185.05 236.85 186.0 236.15 186.9 236.15 188.2 L236.15 190.4 Q236.7 191.25 237.6 191.3 238.45 191.2 239.15 190.3 239.75 189.35 239.8 188.1 239.8 186.75 239.2 185.95 238.55 185.0 237.75 185.05 M258.3 194.3 L256.9 188.9 253.6 194.3 258.3 194.3 M249.6 193.8 L247.05 199.15 249.6 193.8 M259.4 163.55 L261.25 161.8 259.4 163.55 M264.0 221.35 L262.0 223.45 262.9 224.1 264.65 221.3 264.15 221.2 264.0 221.35 M252.6 217.35 L254.5 217.9 254.55 217.8 255.4 216.9 253.05 217.05 252.6 217.35 251.65 217.1 252.6 217.35 M252.7 218.7 L252.95 218.9 253.8 218.7 251.65 217.1 250.5 216.2 250.1 216.65 252.7 218.7 M249.65 216.35 L250.1 216.65 249.65 216.35 M242.75 221.5 L243.15 222.9 245.25 218.7 245.2 217.9 242.75 221.5 M246.55 218.15 L246.0 218.35 245.45 220.1 245.45 220.15 245.45 220.1 245.5 220.15 246.4 220.55 246.55 218.15 M245.45 220.15 L245.5 220.15 245.45 220.15 M264.15 221.2 L264.6 220.7 264.15 221.2" fill="#a39550" fill-rule="evenodd" stroke="none"/>
    <path d="M266.45 159.5 L271.2 159.15 Q273.25 159.55 271.35 160.65 L270.85 160.75 266.3 161.15 261.05 161.15 261.0 161.15 Q260.05 160.15 262.3 159.75 L266.45 159.5 M266.9 166.65 L272.65 166.35 Q275.25 166.85 272.85 168.25 L271.45 168.3 265.5 168.65 259.65 168.6 259.4 168.25 Q258.9 167.15 261.3 166.85 L265.7 166.7 266.9 166.65 M299.95 170.2 Q300.3 167.55 301.05 165.1 302.25 164.5 302.3 165.95 L301.65 170.3 301.45 171.55 Q300.6 172.8 299.85 171.7 L299.95 170.2 M291.55 171.05 L291.7 171.75 Q291.35 173.2 290.25 172.3 290.0 171.85 290.05 171.45 289.0 168.15 288.8 165.0 289.6 164.0 290.2 165.5 L291.55 171.05 M284.2 175.6 L285.25 177.05 Q285.3 178.1 284.2 178.05 L283.25 176.9 281.45 174.1 Q281.95 173.1 282.8 173.8 L284.2 175.6 M283.8 199.2 Q284.9 198.25 286.2 197.6 L286.15 197.55 286.25 197.55 Q286.85 197.65 286.85 198.1 L286.75 198.4 286.45 198.9 285.05 200.0 282.0 202.55 Q280.65 203.0 280.9 201.65 L283.8 199.2 M270.95 202.95 L271.55 200.75 271.75 200.05 271.9 200.6 Q272.45 202.65 273.7 202.1 L273.05 204.35 271.5 209.5 270.4 209.55 Q269.75 208.95 269.65 207.5 L270.35 205.2 270.95 202.95 M267.6 215.0 L268.25 212.7 Q268.2 213.9 268.4 214.65 268.65 215.75 269.4 215.8 L269.65 215.8 269.55 216.0 267.95 220.8 Q266.8 220.5 266.55 218.55 L267.6 215.0 M299.75 203.8 L301.55 200.4 Q302.8 200.1 302.55 201.5 L301.6 203.65 300.25 206.85 Q299.1 207.85 298.65 206.5 299.05 205.1 299.75 203.8 M311.05 203.3 Q310.65 201.1 310.55 199.1 311.5 198.15 312.2 199.3 L312.4 199.7 313.1 203.25 313.9 206.7 Q313.45 208.4 312.05 207.25 311.4 205.2 311.05 203.3 M293.5 211.55 L293.85 211.1 Q297.05 208.4 296.55 211.55 L295.2 213.5 Q294.85 213.75 294.65 214.1 293.6 214.05 293.5 213.1 293.3 212.45 293.5 211.55 M289.9 216.2 L290.05 217.75 Q290.3 218.45 290.9 218.9 L287.65 222.8 Q287.1 222.45 287.0 221.55 L286.8 220.2 289.6 216.6 289.9 216.2 M284.55 226.05 Q282.3 226.5 283.9 223.95 283.55 225.85 284.55 226.05 M243.8 200.15 Q243.9 197.25 245.5 199.35 L245.55 199.45 246.4 203.0 245.15 203.2 245.05 203.15 Q244.55 202.9 244.1 202.3 L243.8 201.0 243.8 200.15 M245.05 207.0 L245.0 206.7 245.2 207.0 246.05 207.65 Q246.5 207.8 247.25 207.3 L248.25 212.85 247.1 212.75 246.1 211.85 245.05 207.0 M248.9 216.95 L248.9 217.1 Q248.0 219.55 247.0 216.0 L246.85 215.55 Q247.75 216.85 248.9 216.95" fill="#dbb666" fill-rule="evenodd" stroke="none"/>
    <path d="M270.85 160.75 L266.8 163.05 266.9 166.65 265.7 166.7 266.0 163.25 266.3 161.15 270.85 160.75 M271.45 168.3 L265.25 171.25 265.5 168.65 271.45 168.3 M262.8 194.1 L269.1 197.0 272.1 196.45 272.75 197.15 272.1 196.45 273.2 196.35 272.75 197.15 272.3 198.15 271.75 200.05 271.55 200.75 269.15 201.65 267.9 200.65 262.75 194.5 262.8 194.1 M272.7 158.7 L273.7 158.3 275.05 158.7 272.75 159.35 272.7 158.7 M274.65 162.55 L275.25 164.2 271.95 162.4 272.35 161.25 274.65 162.55 M277.05 165.35 L278.25 165.35 276.75 166.85 275.35 165.95 277.05 165.35 M276.65 170.4 L277.5 170.95 276.9 172.45 273.65 169.8 274.05 168.55 276.65 170.4 M274.8 186.0 L278.15 187.2 278.5 188.35 275.1 188.3 274.8 186.0 M276.7 190.1 L276.85 191.8 273.2 191.95 270.7 192.0 269.3 191.3 276.7 190.1 M275.1 196.2 L277.8 196.0 274.9 197.4 277.8 196.0 278.45 195.9 275.35 199.3 274.3 199.7 274.9 197.4 Q274.95 196.9 275.15 196.55 L275.1 196.2" fill="#9d9c06" fill-rule="evenodd" stroke="none"/>
    <path d="M278.75 161.75 L278.55 159.0 280.9 160.8 280.1 162.2 278.75 161.75 M282.9 162.45 L282.6 159.35 284.9 158.25 287.7 159.3 287.25 162.85 282.9 162.45 M286.0 163.7 L286.2 168.55 279.7 172.1 279.35 165.4 279.4 165.35 281.85 163.6 286.0 163.7" fill="#f5f503" fill-rule="evenodd" stroke="none"/>
    <path d="M280.15 183.15 Q280.6 185.1 282.65 183.35 286.6 175.9 300.0 175.2 L300.05 175.35 305.75 175.15 Q306.25 176.3 305.95 177.45 L305.15 178.55 305.0 178.75 304.45 179.15 301.65 179.0 Q297.65 177.7 293.45 178.55 290.75 178.7 288.25 180.55 L287.8 180.95 287.05 181.25 287.0 181.25 287.1 181.55 Q286.3 182.3 285.9 183.35 285.45 183.95 285.35 184.8 285.05 185.6 285.1 186.55 L285.1 186.7 Q285.1 189.8 286.65 191.85 283.8 190.6 282.05 188.05 L281.95 186.1 282.05 186.05 Q280.4 186.1 279.75 184.5 L280.15 183.15 M298.2 177.15 Q299.6 176.3 300.0 175.2 299.6 176.3 298.2 177.15 M282.05 186.05 L283.2 185.75 285.9 183.35 283.2 185.75 282.05 186.05 M287.0 181.25 Q284.95 182.2 283.2 184.1 284.95 182.2 287.0 181.25" fill="#727157" fill-rule="evenodd" stroke="none"/>
    <path d="M287.1 181.55 L287.15 181.45 287.8 180.95 288.25 180.55 Q290.75 178.7 293.45 178.55 297.65 177.7 301.65 179.0 L302.7 179.9 Q296.7 178.7 290.8 181.25 287.7 182.5 285.35 184.8 285.45 183.95 285.9 183.35 286.3 182.3 287.1 181.55" fill="#baa449" fill-rule="evenodd" stroke="none"/>
    <path d="M285.35 184.8 Q287.7 182.5 290.8 181.25 296.7 178.7 302.7 179.9 L302.8 180.05 304.0 181.95 304.25 182.9 Q293.45 179.8 285.1 186.7 L285.1 186.55 Q285.05 185.6 285.35 184.8" fill="#e4da56" fill-rule="evenodd" stroke="none"/>
    <path d="M302.7 179.9 L301.65 179.0 304.45 179.15 305.0 178.75 Q303.55 180.1 304.0 181.95 L302.8 180.05 302.7 179.9 M295.0 195.35 Q298.6 195.1 301.45 192.8 L302.45 191.75 Q303.55 193.25 300.75 195.55 L295.0 195.35" fill="#4f4626" fill-rule="evenodd" stroke="none"/>
    <path d="M310.4 172.35 L314.6 176.85 Q317.05 181.35 318.4 185.85 L317.55 186.0 Q315.35 178.5 310.4 172.35 L310.3 172.2 310.4 172.35 M321.4 193.85 L321.95 194.9 321.1 199.9 320.3 200.15 320.55 203.9 319.15 201.35 319.05 201.2 318.85 198.35 318.8 197.65 319.6 197.4 320.2 194.2 320.6 192.3 321.4 193.85 M318.3 205.8 L320.05 206.8 Q319.1 212.7 317.15 217.4 L315.65 220.5 312.85 224.95 308.1 230.45 306.15 232.45 Q304.85 234.15 302.35 236.15 300.15 237.65 295.25 239.95 285.3 244.75 272.35 244.75 L267.45 244.6 Q255.95 243.8 247.0 237.45 242.85 234.45 239.2 230.35 236.8 227.6 234.9 224.25 L237.7 227.85 Q241.35 231.95 245.5 234.95 254.45 241.3 265.95 242.1 L270.85 242.25 Q283.8 242.25 293.75 237.45 298.65 235.15 300.85 233.65 303.35 231.65 304.65 229.95 L306.6 227.95 311.35 222.45 314.15 218.0 315.65 214.9 Q317.35 210.8 318.3 205.8 M230.3 212.45 L229.75 210.55 239.1 205.95 239.25 205.95 244.7 204.95 245.0 206.7 245.05 207.0 240.15 207.9 239.3 207.4 239.1 208.35 230.3 212.45 M302.05 186.35 L302.1 186.75 Q302.05 187.6 301.65 188.25 L300.5 188.9 Q299.75 188.9 299.3 188.35 298.85 187.7 298.9 186.95 298.85 186.05 299.4 185.4 299.45 185.1 299.8 185.0 299.6 185.1 299.75 185.4 299.7 186.0 300.1 186.5 300.45 186.9 301.05 186.9 301.6 186.8 302.05 186.4 L302.05 186.35 M269.15 201.65 L270.95 202.95 270.35 205.2 267.25 203.15 249.0 206.35 249.45 214.35 248.4 213.75 248.25 212.85 247.25 207.3 246.65 204.55 250.75 203.8 255.5 202.95 267.9 200.65 269.15 201.65 M271.5 209.5 L273.05 204.35 Q282.3 210.1 292.55 212.8 L291.3 214.4 290.9 214.9 Q281.95 212.6 273.9 207.55 L270.7 217.45 269.55 216.0 269.65 215.8 271.5 209.5 M295.2 213.5 Q304.9 215.5 315.65 214.9 L314.15 218.0 303.8 216.75 295.95 215.75 287.8 224.85 286.6 223.95 287.65 222.8 290.9 218.9 294.65 214.1 Q294.85 213.75 295.2 213.5 M266.3 229.35 L265.85 229.1 Q263.65 228.15 261.65 230.15 L261.5 229.45 261.5 229.4 261.5 229.1 Q261.55 228.25 262.2 227.7 262.95 227.0 263.95 227.1 264.7 227.15 265.35 227.7 L265.6 227.95 Q266.15 228.5 266.3 229.35 M269.65 234.65 L269.6 233.8 269.85 233.3 Q270.3 232.6 271.45 232.4 L274.75 231.4 Q276.5 230.75 278.0 231.85 L278.45 232.3 278.5 232.35 278.5 232.4 Q275.3 234.6 269.65 234.65" fill="#42445e" fill-rule="evenodd" stroke="none"/>
    <path d="M299.8 185.0 Q299.45 185.1 299.4 185.4 298.85 186.05 298.9 186.95 298.85 187.7 299.3 188.35 299.75 188.9 300.5 188.9 L301.65 188.25 Q302.05 187.6 302.1 186.75 L302.05 186.35 302.45 185.3 Q302.45 184.65 302.05 184.3 301.65 183.75 301.1 183.85 300.45 183.85 300.1 184.35 299.8 184.65 299.8 185.0 M304.25 182.9 L304.55 184.7 Q304.45 187.7 303.55 189.85 L303.15 190.65 302.95 191.05 302.45 191.75 301.45 192.8 Q298.6 195.1 295.0 195.35 L294.85 195.3 294.75 195.25 294.6 195.2 294.3 195.25 292.7 194.75 288.55 193.2 286.65 191.85 Q285.1 189.8 285.1 186.7 293.45 179.8 304.25 182.9 M294.6 195.2 L292.7 194.75 294.6 195.2" fill="#f9f7d9" fill-rule="evenodd" stroke="none"/>
    <path d="M302.05 186.35 L302.05 186.4 Q301.6 186.8 301.05 186.9 300.45 186.9 300.1 186.5 299.7 186.0 299.75 185.4 299.6 185.1 299.8 185.0 299.8 184.65 300.1 184.35 300.45 183.85 301.1 183.85 301.65 183.75 302.05 184.3 302.45 184.65 302.45 185.3 L302.05 186.35" fill="#fdfcf4" fill-rule="evenodd" stroke="none"/>
    <path d="M228.45 200.05 L228.45 198.95 228.5 196.45 229.75 198.0 233.8 193.45 235.9 200.65 240.5 197.05 242.1 198.45 243.15 199.35 243.7 199.8 243.8 200.15 243.8 201.0 244.1 202.3 244.7 204.95 239.25 205.95 239.25 205.9 238.8 203.25 237.25 202.8 232.1 201.2 228.45 200.05 M265.25 171.25 L265.2 171.4 259.75 170.15 259.25 168.25 259.4 168.25 259.65 168.6 265.5 168.65 265.25 171.25 M262.85 193.85 L262.8 194.1 262.75 194.5 267.9 200.65 255.5 202.95 262.85 193.85 M266.3 161.15 L266.0 163.25 261.5 162.75 261.25 161.8 261.05 161.15 266.3 161.15 M286.65 191.85 L288.55 193.2 292.7 194.75 294.3 195.25 294.6 195.2 294.75 195.25 294.85 195.3 295.0 195.35 300.75 195.55 Q303.55 193.25 302.45 191.75 L302.95 191.05 303.15 190.65 303.65 192.15 303.75 192.95 303.85 194.2 Q303.75 197.1 301.0 198.9 292.1 200.6 286.3 195.4 284.15 193.5 283.05 190.95 L282.9 190.65 281.95 190.05 Q279.45 188.4 281.95 186.1 L282.05 188.05 Q283.8 190.6 286.65 191.85 M304.65 229.95 Q303.35 231.65 300.85 233.65 298.65 235.15 293.75 237.45 283.8 242.25 270.85 242.25 L265.95 242.1 Q254.45 241.3 245.5 234.95 242.25 232.4 240.55 229.0 252.7 239.75 269.7 240.25 287.8 239.35 295.95 230.4 L294.1 229.55 294.9 228.55 295.0 228.6 Q299.4 230.0 304.65 229.95 M289.2 229.6 L286.95 226.65 288.05 226.6 290.6 229.05 289.2 229.6 M286.0 227.7 L286.6 227.6 287.65 231.75 286.45 231.6 286.35 231.55 286.0 227.7 M276.35 223.65 L279.45 224.05 279.55 224.05 279.7 224.7 276.4 225.25 276.35 223.65 M281.45 224.9 L282.15 225.45 278.6 227.65 277.9 226.25 281.45 224.9 M269.35 221.1 L269.2 220.7 269.3 220.65 269.6 220.55 272.05 225.6 270.95 225.5 270.85 225.5 269.35 221.1 M264.8 219.3 L264.85 220.05 261.05 221.45 260.75 220.35 264.8 219.3 M268.15 222.65 L268.2 222.6 268.7 222.55 269.0 225.25 268.1 224.85 268.1 224.75 268.15 222.65 M265.35 227.7 Q264.7 227.15 263.95 227.1 262.95 227.0 262.2 227.7 261.55 228.25 261.5 229.1 L261.15 227.7 262.95 226.5 265.05 226.85 265.35 227.7 M269.85 233.3 L270.05 232.0 Q273.2 230.2 276.25 230.5 L278.15 231.1 278.45 232.3 278.0 231.85 Q276.5 230.75 274.75 231.4 L271.45 232.4 Q270.3 232.6 269.85 233.3 M245.55 199.45 L250.75 203.8 246.65 204.55 246.4 203.0 245.55 199.45 M232.75 196.1 L232.1 201.2 232.75 196.1 M240.15 198.55 L237.25 202.8 240.15 198.55 M262.0 223.45 L264.0 221.35 264.15 221.2 264.65 221.3 262.9 224.1 262.0 223.45 M254.55 217.8 L254.5 217.9 252.6 217.35 253.05 217.05 255.4 216.9 254.55 217.8 M251.65 217.1 L253.8 218.7 252.95 218.9 252.7 218.7 250.1 216.65 250.5 216.2 251.65 217.1 M245.2 217.9 L245.25 218.7 243.15 222.9 242.75 221.5 245.2 217.9 M245.45 220.1 L246.0 218.35 246.55 218.15 246.4 220.55 245.5 220.15 245.45 220.1" fill="#8f8146" fill-rule="evenodd" stroke="none"/>
    <path d="M264.75 175.8 L264.55 177.95 261.85 178.55 261.95 175.0 264.75 175.8 M263.6 186.7 L263.25 189.7 260.0 192.55 258.9 187.2 263.6 186.7 M255.95 175.05 L253.85 179.75 249.75 177.4 252.75 172.35 255.95 175.05 M247.65 178.25 L244.15 181.7 241.85 177.75 247.65 178.25 M261.85 181.5 L257.5 185.15 255.85 179.9 261.85 181.5 M250.7 187.1 L255.8 182.85 255.35 189.15 250.7 187.1" fill="#ad7e30" fill-rule="evenodd" stroke="none"/>
    <path d="M275.1 196.2 L275.15 196.55 Q274.95 196.9 274.9 197.4 L274.3 199.7 273.7 202.1 Q272.45 202.65 271.9 200.6 L271.75 200.05 272.3 198.15 272.75 197.15 273.2 196.35 Q274.6 193.75 275.1 196.2 M269.65 207.5 Q269.75 208.95 270.4 209.55 L271.5 209.5 269.65 215.8 269.4 215.8 Q268.65 215.75 268.4 214.65 268.2 213.9 268.25 212.7 L268.3 212.4 269.65 207.5 M291.3 214.4 L292.55 212.8 293.5 211.55 Q293.3 212.45 293.5 213.1 293.6 214.05 294.65 214.1 L290.9 218.9 Q290.3 218.45 290.05 217.75 L289.9 216.2 291.3 214.4 M287.65 222.8 L286.6 223.95 284.8 226.0 284.55 226.05 Q283.55 225.85 283.9 223.95 L284.1 223.65 284.4 223.35 286.8 220.2 287.0 221.55 Q287.1 222.45 287.65 222.8 M267.95 220.8 L267.85 221.15 Q265.35 223.95 266.4 219.05 L266.55 218.55 Q266.8 220.5 267.95 220.8 M244.7 204.95 L244.1 202.3 Q244.55 202.9 245.05 203.15 L245.15 203.2 246.4 203.0 246.65 204.55 247.25 207.3 Q246.5 207.8 246.05 207.65 L245.2 207.0 245.0 206.7 244.7 204.95 M246.1 211.85 L247.1 212.75 248.25 212.85 248.4 213.75 248.9 216.95 Q247.75 216.85 246.85 215.55 L246.6 214.25 246.1 211.85" fill="#eec56a" fill-rule="evenodd" stroke="none"/>
    <path d="M318.35 205.45 L318.3 205.8 Q317.35 210.8 315.65 214.9 304.9 215.5 295.2 213.5 L296.55 211.55 Q297.05 208.4 293.85 211.1 L293.5 211.55 292.55 212.8 Q282.3 210.1 273.05 204.35 L273.7 202.1 274.3 199.7 275.35 199.3 281.3 197.05 281.25 197.5 283.8 199.2 280.9 201.65 Q280.65 203.0 282.0 202.55 L285.05 200.0 287.2 201.5 291.05 204.0 299.75 203.8 Q299.05 205.1 298.65 206.5 299.1 207.85 300.25 206.85 L301.6 203.65 304.8 203.55 311.05 203.3 Q311.4 205.2 312.05 207.25 313.45 208.4 313.9 206.7 L313.1 203.25 315.5 203.2 316.55 203.15 318.55 204.3 318.35 205.45 M229.75 210.55 L228.85 210.85 Q227.9 207.7 228.0 204.65 228.0 202.65 228.45 200.75 L228.45 200.05 232.1 201.2 237.25 202.8 238.8 203.25 239.25 205.9 239.1 205.95 229.75 210.55 M271.55 200.75 L270.95 202.95 269.15 201.65 271.55 200.75 M291.65 205.85 L293.75 209.8 291.65 205.85 M294.8 205.9 L294.75 208.8 294.8 205.9 M302.65 206.3 L298.3 209.8 302.65 206.3 M304.2 209.15 L298.25 211.7 304.2 209.15 M237.25 202.8 L236.2 204.15 237.25 202.8 M232.0 202.6 L232.1 201.2 232.0 202.6" fill="#82815f" fill-rule="evenodd" stroke="none"/>
    <path d="M283.05 190.95 Q284.15 193.5 286.3 195.4 292.1 200.6 301.0 198.9 303.75 197.1 303.85 194.2 304.7 196.2 304.1 198.2 302.6 200.15 299.2 200.9 295.65 201.55 291.7 201.05 L286.85 198.1 Q286.85 197.65 286.25 197.55 L286.15 197.55 284.45 196.2 Q282.7 193.45 283.05 190.95 M286.75 198.4 L287.65 199.25 287.2 201.5 285.05 200.0 286.45 198.9 286.75 198.4 M302.55 201.5 L304.8 203.55 301.6 203.65 302.55 201.5 M312.2 199.3 L313.9 200.0 315.5 203.2 313.1 203.25 312.4 199.7 312.2 199.3 M318.8 197.8 L314.0 196.5 320.2 194.2 319.6 197.4 318.8 197.65 318.8 197.8 M319.35 192.35 L312.75 192.9 319.65 190.6 319.35 192.35 M318.6 189.1 L313.45 189.05 319.45 186.9 318.6 189.1" fill="#827540" fill-rule="evenodd" stroke="none"/>
    <path d="M234.8 221.5 L233.9 220.0 232.95 218.4 232.9 218.35 233.9 217.45 233.5 217.1 233.35 216.95 233.2 217.05 232.5 217.5 231.45 215.4 235.85 213.35 234.35 212.9 231.05 214.5 230.3 212.45 239.1 208.35 239.3 207.4 240.15 207.9 245.05 207.0 246.1 211.85 246.6 214.25 Q241.95 219.2 234.8 221.5 M270.35 205.2 L269.65 207.5 268.3 212.4 268.25 212.7 267.6 215.0 265.2 215.7 Q260.45 216.9 256.1 216.3 252.65 215.8 249.45 214.35 L249.0 206.35 267.25 203.15 270.35 205.2 M303.8 216.75 L303.25 218.05 300.05 218.45 299.55 218.55 298.05 218.7 301.45 220.7 300.6 223.6 295.65 222.05 299.35 225.7 295.0 228.6 294.9 228.55 Q291.1 227.3 287.8 224.85 L295.95 215.75 303.8 216.75 M290.9 214.9 L289.6 216.6 286.8 220.2 284.4 223.35 281.35 223.15 Q278.2 222.7 275.6 221.4 272.85 219.9 270.7 217.45 L273.9 207.55 Q281.95 212.6 290.9 214.9 M261.65 230.15 Q263.65 228.15 265.85 229.1 L266.3 229.35 266.3 229.7 Q266.2 230.65 265.55 231.35 264.85 231.95 263.85 231.9 262.8 231.8 262.15 231.1 261.75 230.6 261.65 230.15 M278.5 232.35 L279.1 233.05 279.45 234.3 Q279.4 235.75 277.85 236.65 276.4 237.45 274.35 237.4 272.25 237.15 270.8 236.05 269.85 235.3 269.65 234.65 275.3 234.6 278.5 232.4 L278.5 232.35 M240.85 215.45 L239.9 216.0 240.85 215.45 M239.8 216.1 L234.45 219.6 234.85 220.0 241.8 216.55 239.9 216.0 239.8 216.1 M235.05 212.55 L234.35 212.9 235.05 212.55 M234.45 219.6 L233.9 220.0 234.45 219.6" fill="#585b7c" fill-rule="evenodd" stroke="none"/>
    <path d="M309.2 170.55 L310.9 172.3 310.4 172.35 310.3 172.2 Q308.95 170.85 307.3 170.85 L309.2 170.55 M320.5 190.4 L320.6 190.55 321.4 192.05 321.4 193.85 320.6 192.3 320.6 192.25 319.35 192.35 319.65 190.6 319.8 189.2 320.5 190.4" fill="#41425a" fill-rule="evenodd" stroke="none"/>
    <path d="M320.0 185.6 L321.3 188.25 321.25 188.3 320.5 190.4 319.8 189.2 319.85 189.1 318.6 189.1 319.45 186.9 320.0 185.6 M320.55 203.9 L318.35 205.45 318.55 204.3 316.55 203.15 319.05 201.4 319.15 201.35 320.55 203.9" fill="#2e2f41" fill-rule="evenodd" stroke="none"/>
    <path d="M232.9 218.35 L232.5 217.5 233.2 217.05 233.35 216.95 233.5 217.1 233.9 217.45 232.9 218.35 M231.45 215.4 L231.45 215.35 231.05 214.5 234.35 212.9 235.85 213.35 231.45 215.4 M314.15 218.0 L311.35 222.45 306.6 227.95 304.65 229.95 Q299.4 230.0 295.0 228.6 L299.35 225.7 295.65 222.05 300.6 223.6 301.45 220.7 298.05 218.7 299.55 218.55 300.05 218.45 303.25 218.05 303.8 216.75 314.15 218.0 M311.35 222.45 L300.05 218.45 311.35 222.45 M301.05 224.95 L306.6 227.95 301.05 224.95 M234.45 219.6 L239.8 216.1 239.9 216.0 241.8 216.55 234.85 220.0 234.45 219.6" fill="#9f9bc4" fill-rule="evenodd" stroke="none"/>
    <path d="M242.65 168.8 Q248.95 162.65 252.1 161.65 L252.2 161.55 Q257.75 158.9 259.45 159.85 250.95 163.0 244.15 170.15 L242.65 168.8 M241.15 173.65 Q234.7 182.1 229.95 195.15 L229.5 194.2 229.6 193.8 Q233.55 180.35 239.3 172.5 L241.15 173.65" fill="#baad72" fill-rule="evenodd" stroke="none"/>
    <path d="M239.2 172.45 L240.2 171.35 Q241.25 170.1 242.45 169.0 L242.65 168.8 244.15 170.15 245.25 171.2 241.85 174.15 241.15 173.65 239.3 172.5 239.2 172.45" fill="#76799e" fill-rule="evenodd" stroke="none"/>
    <path d="M264.15 181.45 L263.75 185.15 260.75 184.45 264.15 181.45 M247.4 184.7 L248.8 179.65 254.3 182.1 247.4 184.7 M260.75 179.4 L256.9 178.05 259.1 175.0 260.75 179.4 M237.75 185.05 Q238.55 185.0 239.2 185.95 239.8 186.75 239.8 188.1 239.75 189.35 239.15 190.3 238.45 191.2 237.6 191.3 236.7 191.25 236.15 190.4 L236.15 188.2 Q236.15 186.9 236.85 186.0 237.4 185.05 237.75 185.05 M242.75 190.55 L242.4 191.4 Q241.95 191.75 241.5 191.6 L240.75 190.7 Q240.35 190.15 240.4 189.6 L240.5 188.9 241.45 188.85 Q241.9 188.95 242.35 189.45 L242.75 190.55 M253.6 194.3 L256.9 188.9 258.3 194.3 253.6 194.3" fill="#99702c" fill-rule="evenodd" stroke="none"/>
    <path d="M266.7 157.1 L268.55 155.7 268.75 155.7 269.1 155.6 272.7 155.3 Q286.2 154.5 297.5 161.0 300.4 162.75 303.3 165.0 L307.15 168.35 309.3 170.5 309.2 170.55 307.3 170.85 Q308.95 170.85 310.3 172.2 L310.4 172.35 Q315.35 178.5 317.55 186.0 L318.4 185.85 320.0 185.6 319.45 186.9 318.6 189.1 313.45 189.05 M321.95 194.9 L321.1 199.9 320.3 200.15 320.55 203.9 318.35 205.45 318.3 205.8 320.05 206.8 Q319.1 212.7 317.15 217.4 L315.65 220.5 312.85 224.95 308.1 230.45 306.15 232.45 Q304.85 234.15 302.35 236.15 300.15 237.65 295.25 239.95 285.3 244.75 272.35 244.75 L267.45 244.6 Q255.95 243.8 247.0 237.45 242.85 234.45 239.2 230.35 236.8 227.6 234.9 224.25 L233.3 221.8 234.8 221.5 233.9 220.0 232.95 218.4 M232.9 218.35 L232.5 217.5 231.45 215.4 M231.45 215.35 L231.05 214.5 230.3 212.45 229.75 210.55 228.85 210.85 Q227.9 207.7 228.0 204.65 228.0 202.65 228.45 200.75 L228.45 200.05 228.45 198.95 228.5 196.45 Q229.45 182.75 238.55 172.05 L239.2 172.45 240.2 171.35 Q241.25 170.1 242.45 169.0 L242.65 168.8 242.1 168.3 Q251.85 158.7 265.55 156.1 L266.7 157.1 M307.05 170.95 L307.15 170.9 307.3 170.85 307.2 170.9 307.15 170.9 M287.1 181.55 L287.15 181.45 287.8 180.95 287.05 181.25 287.0 181.25 M287.1 181.55 Q286.3 182.3 285.9 183.35 285.45 183.95 285.35 184.8 M294.6 195.2 L294.75 195.25 M294.85 195.3 L295.0 195.35 M282.05 186.05 L281.95 186.1 M316.55 203.15 L319.05 201.4 319.05 201.2 318.85 198.35 318.8 197.65 318.8 197.8 M320.2 194.2 L320.6 192.3 320.6 192.25 319.35 192.35 312.75 192.9 M319.65 190.6 L319.8 189.2 319.85 189.1 318.6 189.1 M315.65 214.9 Q317.35 210.8 318.3 205.8 M312.5 186.55 L317.55 186.0 M319.65 190.6 L319.35 192.35 M318.8 197.65 L319.6 197.4 320.2 194.2 M316.55 203.15 L318.55 204.3 318.35 205.45 M314.15 218.0 L315.65 214.9 M314.15 218.0 L311.35 222.45 306.6 227.95 304.65 229.95 Q303.35 231.65 300.85 233.65 298.65 235.15 293.75 237.45 283.8 242.25 270.85 242.25 L265.95 242.1 Q254.45 241.3 245.5 234.95 241.35 231.95 237.7 227.85 L234.9 224.25 M294.9 228.55 L295.0 228.6 M286.6 223.95 L287.8 224.85 M269.55 216.0 L270.7 217.45 M266.3 229.35 Q266.15 228.5 265.6 227.95 L265.35 227.7 Q264.7 227.15 263.95 227.1 262.95 227.0 262.2 227.7 261.55 228.25 261.5 229.1 M261.5 229.45 L261.65 230.15 M269.65 234.65 L269.6 233.8 269.85 233.3 Q270.3 232.6 271.45 232.4 L274.75 231.4 Q276.5 230.75 278.0 231.85 L278.45 232.3 278.5 232.35 M242.65 168.8 L244.15 170.15 245.25 171.2 241.85 174.15 241.15 173.65 239.3 172.5 239.2 172.45 M239.25 205.9 L239.1 205.95 239.25 205.95 M248.4 213.75 L249.45 214.35" fill="none" stroke="#000000" stroke-linecap="round" stroke-linejoin="round" stroke-opacity="0.8" stroke-width="0.30000000000000004"/>
    <path d="M266.45 159.5 L271.2 159.15 Q273.25 159.55 271.35 160.65 L270.85 160.75 266.3 161.15 261.05 161.15 261.0 161.15 Q260.05 160.15 262.3 159.75 L266.45 159.5 M266.9 166.65 L272.65 166.35 Q275.25 166.85 272.85 168.25 L271.45 168.3 265.5 168.65 259.65 168.6 259.4 168.25 Q258.9 167.15 261.3 166.85 L265.7 166.7 266.9 166.65 M299.95 170.2 Q300.3 167.55 301.05 165.1 302.25 164.5 302.3 165.95 L301.65 170.3 301.45 171.55 Q300.6 172.8 299.85 171.7 L299.95 170.2 M291.55 171.05 L291.7 171.75 Q291.35 173.2 290.25 172.3 290.0 171.85 290.05 171.45 289.0 168.15 288.8 165.0 289.6 164.0 290.2 165.5 L291.55 171.05 M284.2 175.6 L285.25 177.05 Q285.3 178.1 284.2 178.05 L283.25 176.9 281.45 174.1 Q281.95 173.1 282.8 173.8 L284.2 175.6 M275.1 196.2 L275.15 196.55 Q274.95 196.9 274.9 197.4 L274.3 199.7 273.7 202.1 273.05 204.35 271.5 209.5 269.65 215.8 269.55 216.0 267.95 220.8 267.85 221.15 Q265.35 223.95 266.4 219.05 L266.55 218.55 267.6 215.0 268.25 212.7 M283.8 199.2 Q284.9 198.25 286.2 197.6 L286.15 197.55 286.25 197.55 Q286.85 197.65 286.85 198.1 L286.75 198.4 286.45 198.9 285.05 200.0 282.0 202.55 Q280.65 203.0 280.9 201.65 L283.8 199.2 M271.75 200.05 L272.3 198.15 272.75 197.15 273.2 196.35 Q274.6 193.75 275.1 196.2 M270.95 202.95 L271.55 200.75 271.75 200.05 M270.95 202.95 L270.35 205.2 269.65 207.5 268.3 212.4 M299.75 203.8 L301.55 200.4 Q302.8 200.1 302.55 201.5 L301.6 203.65 300.25 206.85 Q299.1 207.85 298.65 206.5 299.05 205.1 299.75 203.8 M311.05 203.3 Q310.65 201.1 310.55 199.1 311.5 198.15 312.2 199.3 L312.4 199.7 313.1 203.25 313.9 206.7 Q313.45 208.4 312.05 207.25 311.4 205.2 311.05 203.3 M293.5 211.55 L293.85 211.1 Q297.05 208.4 296.55 211.55 L295.2 213.5 Q294.85 213.75 294.65 214.1 L290.9 218.9 287.65 222.8 286.6 223.95 284.8 226.0 284.55 226.05 Q282.3 226.5 283.9 223.95 L284.1 223.65 284.4 223.35 286.8 220.2 289.6 216.6 289.9 216.2 291.3 214.4 292.55 212.8 293.5 211.55 M243.8 200.15 Q243.9 197.25 245.5 199.35 L245.55 199.45 246.4 203.0 246.65 204.55 247.25 207.3 248.25 212.85 248.4 213.75 248.9 216.95 248.9 217.1 Q248.0 219.55 247.0 216.0 L246.85 215.55 246.6 214.25 246.1 211.85 245.05 207.0 245.0 206.7 244.7 204.95 244.1 202.3 243.8 201.0 243.8 200.15" fill="none" stroke="#5c4216" stroke-linecap="round" stroke-linejoin="round" stroke-opacity="0.6" stroke-width="0.30000000000000004"/>
    <path d="M272.1 196.45 L269.85 192.95 M272.7 158.7 L273.7 158.3 M274.65 162.55 L272.35 161.25 M301.65 170.3 L307.05 170.95 M299.95 170.2 L297.5 170.25 Q294.15 170.3 291.55 171.05 M290.05 171.45 Q288.7 171.9 287.7 172.5 285.65 173.7 284.2 175.6 M283.25 176.9 Q281.35 179.45 280.15 183.15 L279.75 184.5 Q280.4 186.1 282.05 186.05 L283.2 185.75 285.9 183.35 M305.75 175.15 L304.45 173.5 303.95 173.1 M301.65 179.0 Q297.65 177.7 293.45 178.55 290.75 178.7 288.25 180.55 L287.8 180.95 M285.1 186.7 L285.1 186.55 Q285.05 185.6 285.35 184.8 M301.65 179.0 L304.45 179.15 305.0 178.75 M305.95 177.45 Q306.25 176.3 305.75 175.15 M285.1 186.7 Q285.1 189.8 286.65 191.85 L288.55 193.2 292.7 194.75 294.6 195.2 294.3 195.25 292.7 194.75 M294.75 195.25 L294.85 195.3 M295.0 195.35 Q298.6 195.1 301.45 192.8 L302.45 191.75 M277.05 165.35 L275.35 165.95 M276.65 170.4 L274.05 168.55 M278.15 187.2 L274.8 186.0 M282.9 190.65 L283.05 190.95 M276.7 190.1 L269.3 191.3 M274.9 197.4 L277.8 196.0 Q278.4 195.6 279.05 195.25 M281.95 190.05 Q279.45 188.4 281.95 186.1 M276.6 194.65 L278.1 192.9 M272.75 197.15 L272.1 196.45 M273.2 191.95 L273.5 194.15 M269.15 201.65 L270.95 202.95 M267.9 200.65 L269.15 201.65 M249.45 214.35 Q252.65 215.8 256.1 216.3 260.45 216.9 265.2 215.7 L267.6 215.0 M293.75 209.8 L291.65 205.85 M295.2 213.5 Q304.9 215.5 315.65 214.9 M298.25 211.7 L304.2 209.15 M298.3 209.8 L302.65 206.3 M294.75 208.8 L294.8 205.9 M283.2 184.1 Q284.95 182.2 287.0 181.25 M287.8 224.85 Q291.1 227.3 294.9 228.55 M292.55 212.8 Q282.3 210.1 273.05 204.35 M270.7 217.45 Q272.85 219.9 275.6 221.4 278.2 222.7 281.35 223.15 L284.4 223.35 M289.2 229.6 L289.5 230.1 M286.95 226.65 L289.2 229.6 M286.35 231.55 L286.0 227.7 M295.0 228.6 Q299.4 230.0 304.65 229.95 M276.35 223.65 L279.45 224.05 M279.55 224.05 L280.25 224.15 M282.2 224.7 L281.45 224.9 277.9 226.25 M270.95 225.5 L270.85 225.5 269.35 221.1 M260.75 220.35 L260.2 220.45 M268.1 224.75 L268.15 222.65 M260.1 159.8 L259.4 159.15 M259.9 161.35 L258.4 161.75 M258.45 167.15 L255.65 165.85 M258.5 169.4 L256.2 170.4 M247.4 184.7 L254.3 182.1 M249.75 177.4 L253.85 179.75 255.95 175.05 M247.65 178.25 L244.15 181.7 241.85 177.75 M260.75 184.45 L263.75 185.15 M255.85 179.9 L257.5 185.15 261.85 181.5 M256.9 178.05 L260.75 179.4 M261.85 178.55 L264.55 177.95 M255.8 182.85 L255.35 189.15 250.7 187.1 M242.1 198.45 L243.15 199.35 M250.75 203.8 L255.5 202.95 267.9 200.65 M232.1 201.2 L232.0 202.6 M236.2 204.15 L237.25 202.8 240.15 198.55 M239.25 205.95 L244.7 204.95 M232.1 201.2 L232.75 196.1 M239.1 205.95 L229.75 210.55 M258.3 194.3 L253.6 194.3 M258.9 187.2 L260.0 192.55 263.25 189.7 M247.05 199.15 L249.6 193.8 M246.65 204.55 L250.75 203.8 M261.25 161.8 L259.4 163.55 M264.0 221.35 L262.0 223.45 M254.55 217.8 L254.5 217.9 252.6 217.35 251.65 217.1 M252.7 218.7 L250.1 216.65 249.65 216.35 M246.6 214.25 Q241.95 219.2 234.8 221.5 M245.2 217.9 L242.75 221.5 M245.45 220.1 L246.0 218.35 246.55 218.15 M245.5 220.15 L245.45 220.15 M264.8 219.3 L260.75 220.35 M264.6 220.7 L264.15 221.2" fill="none" stroke="#000000" stroke-linecap="round" stroke-linejoin="round" stroke-opacity="0.3019608" stroke-width="0.30000000000000004"/>
    <path d="M300.05 175.35 Q299.45 172.2 298.35 171.7 M303.55 189.85 L305.8 190.35 M300.0 175.2 Q299.6 176.3 298.2 177.15 M281.95 190.05 L282.9 190.65 M283.05 190.95 Q284.15 193.5 286.3 195.4 292.1 200.6 301.0 198.9 303.75 197.1 303.85 194.2 L303.75 192.95 M303.65 192.15 L303.15 190.65 M305.8 186.25 L309.3 185.5 M305.8 188.7 L308.1 188.55 M299.55 218.55 L300.05 218.45 311.35 222.45 M261.65 230.15 Q261.75 230.6 262.15 231.1 262.8 231.8 263.85 231.9 264.85 231.95 265.55 231.35 266.2 230.65 266.3 229.7 L266.3 229.35 M278.5 232.35 L279.1 233.05 279.45 234.3 Q279.4 235.75 277.85 236.65 276.4 237.45 274.35 237.4 272.25 237.15 270.8 236.05 269.85 235.3 269.65 234.65 M306.6 227.95 L301.05 224.95 M239.9 216.0 L240.85 215.45 M239.8 216.1 L234.45 219.6 233.9 220.0 M234.35 212.9 L231.05 214.5 M232.5 217.5 L233.2 217.05 M233.35 216.95 L233.5 217.1 M234.35 212.9 L235.05 212.55" fill="none" stroke="#000000" stroke-linecap="round" stroke-linejoin="round" stroke-opacity="0.3019608" stroke-width="0.2"/>
    <path d="M320.6 192.3 L320.6 192.25 M319.15 201.35 L319.05 201.2 M245.45 220.15 L245.45 220.1" fill="none" stroke="#66ff00" stroke-linecap="round" stroke-linejoin="round" stroke-width="0.2"/>
  </g>
</svg>
