<?xml version="1.0" encoding="UTF-8" standalone="no"?>
<svg xmlns:xlink="http://www.w3.org/1999/xlink" height="99.0px" width="101.2px" xmlns="http://www.w3.org/2000/svg">
  <g transform="matrix(1.0, 0.0, 0.0, 1.0, -224.3, -150.45)">
    <path d="M308.45 154.5 Q312.35 156.7 315.6 160.4 317.2 162.2 318.6 164.45 L314.9 164.25 Q313.35 161.75 311.6 159.8 308.85 156.65 305.6 154.6 L308.45 154.5 M256.8 158.3 L262.65 159.65 Q263.15 159.75 264.2 160.65 L265.7 162.35 265.2 163.35 264.3 165.5 Q263.1 162.85 261.5 161.1 259.5 158.95 256.8 158.3" fill="#79580b" fill-rule="evenodd" stroke="none"/>
    <path d="M305.6 154.6 Q308.85 156.65 311.6 159.8 L313.8 164.2 Q320.75 179.1 318.95 187.9 315.3 185.9 311.5 190.2 311.75 183.45 308.8 176.85 306.25 164.5 297.2 159.7 283.9 153.85 268.95 162.4 268.5 160.6 267.65 159.5 271.5 154.2 278.45 152.55 280.45 151.85 282.75 151.45 L286.6 150.8 289.95 150.55 294.3 150.7 298.15 151.4 Q301.9 152.3 305.15 154.3 L305.6 154.6 M226.7 205.4 Q225.65 202.65 225.05 200.1 226.7 196.05 229.5 198.45 L229.3 197.2 262.35 195.5 262.4 196.8 229.5 198.5 229.95 200.75 Q231.15 205.65 234.55 210.45 L234.8 210.8 234.85 210.85 Q239.35 215.1 244.65 218.6 250.55 222.4 255.7 227.85 259.0 231.35 262.0 235.7 L262.1 235.85 Q260.45 236.8 260.1 239.05 254.1 228.4 244.6 222.8 L244.25 222.45 Q234.2 217.15 226.7 205.4 M224.45 195.6 L224.4 193.15 Q224.3 186.7 226.65 179.75 232.9 160.0 251.5 158.05 L256.25 158.15 256.45 158.2 256.6 158.25 256.8 158.3 Q259.5 158.95 261.5 161.1 259.7 162.7 259.45 164.65 251.15 161.35 244.6 165.15 238.25 168.6 238.25 168.85 227.55 177.9 227.5 194.2 225.9 193.45 224.45 195.6 M311.1 194.3 Q315.2 190.6 318.45 192.35 312.8 211.6 295.25 220.25 277.0 229.15 268.6 239.9 268.1 237.75 266.85 236.0 L267.1 235.7 269.05 233.55 Q276.25 225.35 287.3 219.85 294.7 216.0 301.9 210.8 308.05 204.0 310.45 196.9 L311.0 194.35 311.1 194.3 M266.05 237.05 L265.0 238.55 264.4 176.9 264.15 177.55 262.45 175.1 262.4 170.25 262.4 169.75 262.6 170.1 Q263.4 171.0 264.2 172.6 L264.9 170.85 265.8 169.3 265.9 192.6 265.9 193.3 267.6 193.15 268.05 194.95 311.3 192.7 311.0 194.25 265.95 196.6 265.95 198.15 266.05 237.05 M226.15 185.85 Q226.55 182.55 228.25 178.55 226.55 182.55 226.15 185.85 M229.5 198.45 L229.5 198.5 229.5 198.45 M290.65 220.4 Q281.6 224.6 273.35 231.45 281.6 224.6 290.65 220.4 M248.0 160.35 Q234.55 164.75 229.9 175.4 234.55 164.75 248.0 160.35" fill="#d59604" fill-rule="evenodd" stroke="none"/>
    <path d="M308.45 154.5 L305.6 154.6 305.15 154.3 Q301.9 152.3 298.15 151.4 L303.2 152.25 Q305.95 153.05 308.45 154.5 M314.9 164.25 L318.6 164.45 320.8 168.2 Q325.25 177.2 325.5 186.25 L325.15 190.35 324.5 194.5 Q321.95 204.9 313.45 214.5 304.85 221.1 295.75 225.9 281.3 233.25 272.35 244.75 270.75 246.65 269.4 248.7 L264.65 249.25 Q266.3 246.55 268.35 244.15 277.3 232.65 291.75 225.3 300.85 220.5 309.45 213.9 317.95 204.3 320.5 193.95 L320.5 193.9 321.15 189.75 321.5 185.65 Q321.25 176.6 316.8 167.6 L314.9 164.25" fill="#624709" fill-rule="evenodd" stroke="none"/>
    <path d="M311.6 159.8 Q313.35 161.75 314.9 164.25 L316.8 167.6 Q321.25 176.6 321.5 185.65 L321.15 189.75 320.5 193.9 320.45 193.9 320.5 193.95 Q317.95 204.3 309.45 213.9 300.85 220.5 291.75 225.3 277.3 232.65 268.35 244.15 266.3 246.55 264.65 249.25 L264.6 249.35 264.55 249.25 Q262.3 245.15 259.95 241.6 252.1 230.3 241.9 222.9 235.85 218.55 231.15 213.0 228.15 209.2 226.7 205.4 234.2 217.15 244.25 222.45 L244.6 222.8 Q254.1 228.4 260.1 239.05 260.45 236.8 262.1 235.85 L262.65 236.6 264.4 239.4 264.6 239.05 265.0 238.55 266.05 237.05 266.85 236.0 Q268.1 237.75 268.6 239.9 277.0 229.15 295.25 220.25 312.8 211.6 318.45 192.35 315.2 190.6 311.1 194.3 L311.0 194.25 311.3 192.7 311.3 192.65 Q311.35 191.35 311.55 190.3 L311.5 190.2 Q315.3 185.9 318.95 187.9 320.75 179.1 313.8 164.2 L311.6 159.8 M225.05 200.1 Q224.6 197.8 224.45 195.6 225.9 193.45 227.5 194.2 227.55 177.9 238.25 168.85 238.25 168.6 244.6 165.15 251.15 161.35 259.45 164.65 259.7 162.7 261.5 161.1 263.1 162.85 264.3 165.5 L265.2 163.35 265.7 162.35 Q266.3 161.1 267.65 159.5 268.5 160.6 268.95 162.4 283.9 153.85 297.2 159.7 306.25 164.5 308.8 176.85 L307.8 174.8 Q303.25 166.15 295.75 162.9 287.45 159.45 276.15 162.45 271.85 163.25 269.1 165.7 267.15 167.15 265.8 169.3 L264.9 170.85 264.2 172.6 Q263.4 171.0 262.6 170.1 L262.4 169.75 259.7 167.45 Q256.85 165.9 253.05 166.45 236.8 167.65 231.2 183.65 228.9 189.95 229.2 195.7 L229.3 197.15 229.3 197.2 229.5 198.45 Q226.7 196.05 225.05 200.1" fill="#a97a0e" fill-rule="evenodd" stroke="none"/>
    <path d="M295.75 162.9 Q303.25 166.15 307.8 174.8 L308.8 176.85 Q311.75 183.45 311.5 190.2 L311.55 190.3 268.75 193.15 267.85 168.9 Q280.4 160.95 295.75 162.9 M310.45 196.9 Q308.05 204.0 301.9 210.8 294.7 216.0 287.3 219.85 276.25 225.35 269.05 233.55 L268.75 199.2 310.45 196.9 M230.0 195.6 Q236.4 167.9 262.4 170.25 L262.45 175.1 262.5 193.45 230.0 195.6" fill="#b06100" fill-rule="evenodd" stroke="none"/>
    <path d="M311.0 194.25 L311.1 194.3 311.0 194.35 311.0 194.25 M320.5 193.9 L320.5 193.95 320.45 193.9 320.5 193.9" fill="#a3a3a3" fill-rule="evenodd" stroke="none"/>
    <path d="M266.85 236.0 L266.05 237.05 265.95 198.15 265.95 196.6 311.0 194.25 311.0 194.35 310.45 196.9 268.75 199.2 269.05 233.55 267.1 235.7 266.85 236.0 M268.75 193.15 L267.6 193.15 265.9 193.3 265.9 192.6 265.8 169.3 Q267.15 167.15 269.1 165.7 271.85 163.25 276.15 162.45 287.45 159.45 295.75 162.9 280.4 160.95 267.85 168.9 L268.75 193.15 M229.2 195.7 Q228.9 189.95 231.2 183.65 236.8 167.65 253.05 166.45 256.85 165.9 259.7 167.45 L262.4 169.75 262.4 170.25 Q236.4 167.9 230.0 195.6 L229.2 195.7" fill="#7d4500" fill-rule="evenodd" stroke="none"/>
    <path d="M265.0 238.55 L264.6 239.05 264.4 239.4 262.65 236.6 262.6 220.45 262.5 199.3 262.45 196.8 262.4 196.8 262.35 195.5 229.3 197.2 229.3 197.15 229.2 195.7 230.0 195.6 262.5 193.45 262.45 175.1 264.15 177.55 264.4 176.9 265.0 238.55 M311.3 192.65 L311.3 192.7 268.05 194.95 267.6 193.15 268.75 193.15 311.55 190.3 Q311.35 191.35 311.3 192.65" fill="#ffe243" fill-rule="evenodd" stroke="none"/>
    <path d="M262.65 236.6 L262.1 235.85 262.0 235.7 Q259.0 231.35 255.7 227.85 260.5 229.1 262.6 220.45 L262.65 236.6 M262.4 196.8 L262.45 196.8 262.5 199.3 258.75 199.1 Q245.55 198.5 233.9 200.4 231.3 203.4 234.55 210.45 231.15 205.65 229.95 200.75 L229.5 198.5 262.4 196.8" fill="#7b0202" fill-rule="evenodd" stroke="none"/>
    <path d="M262.5 199.3 L262.6 220.45 Q260.5 229.1 255.7 227.85 250.55 222.4 244.65 218.6 239.35 215.1 234.85 210.85 L234.8 210.8 234.55 210.45 Q231.3 203.4 233.9 200.4 245.55 198.5 258.75 199.1 L262.5 199.3 M249.2 200.6 Q241.8 198.65 235.75 202.7 234.05 209.75 241.45 214.15 256.8 224.85 259.5 211.35 260.45 206.95 258.75 204.85 256.95 202.6 249.2 200.6" fill="#d20404" fill-rule="evenodd" stroke="none"/>
    <path d="M239.0 202.05 Q237.5 203.2 237.5 204.9 237.5 206.5 239.0 207.75 240.45 208.9 242.65 208.9 244.8 208.8 246.45 207.6 247.95 206.25 248.0 204.65 247.9 202.9 246.4 201.8 244.75 200.55 242.65 200.65 240.4 200.7 239.0 202.05 M249.2 200.6 Q256.95 202.6 258.75 204.85 260.45 206.95 259.5 211.35 256.8 224.85 241.45 214.15 234.05 209.75 235.75 202.7 241.8 198.65 249.2 200.6" fill="#fc4e4e" fill-rule="evenodd" stroke="none"/>
    <path d="M239.0 202.05 Q240.4 200.7 242.65 200.65 244.75 200.55 246.4 201.8 247.9 202.9 248.0 204.65 247.95 206.25 246.45 207.6 244.8 208.8 242.65 208.9 240.45 208.9 239.0 207.75 237.5 206.5 237.5 204.9 237.5 203.2 239.0 202.05" fill="#fe9b8d" fill-rule="evenodd" stroke="none"/>
    <path d="M305.6 154.6 Q308.85 156.65 311.6 159.8 313.35 161.75 314.9 164.25 L316.8 167.6 Q321.25 176.6 321.5 185.65 L321.15 189.75 320.5 193.9 320.5 193.95 Q317.95 204.3 309.45 213.9 300.85 220.5 291.75 225.3 277.3 232.65 268.35 244.15 266.3 246.55 264.65 249.25 L264.6 249.35 264.55 249.25 Q262.3 245.15 259.95 241.6 252.1 230.3 241.9 222.9 235.85 218.55 231.15 213.0 228.15 209.2 226.7 205.4 225.65 202.65 225.05 200.1 224.6 197.8 224.45 195.6 L224.4 193.15 Q224.3 186.7 226.65 179.75 232.9 160.0 251.5 158.05 L256.25 158.15 M265.7 162.35 Q266.3 161.1 267.65 159.5 271.5 154.2 278.45 152.55 280.45 151.85 282.75 151.45 L286.6 150.8 289.95 150.55 294.3 150.7 M305.15 154.3 Q301.9 152.3 298.15 151.4 M295.75 162.9 Q303.25 166.15 307.8 174.8 L308.8 176.85 Q311.75 183.45 311.5 190.2 L311.55 190.3 Q311.35 191.35 311.3 192.65 M266.85 236.0 L266.05 237.05 265.0 238.55 M264.6 239.05 L264.4 239.4 262.65 236.6 262.1 235.85 M311.0 194.35 L311.0 194.25 265.95 196.6 M311.3 192.7 L311.0 194.25 M311.0 194.35 L310.45 196.9 Q308.05 204.0 301.9 210.8 294.7 216.0 287.3 219.85 276.25 225.35 269.05 233.55 L267.1 235.7 M256.8 158.3 Q259.5 158.95 261.5 161.1 263.1 162.85 264.3 165.5 L265.2 163.35 M229.3 197.15 L229.2 195.7 Q228.9 189.95 231.2 183.65 236.8 167.65 253.05 166.45 256.85 165.9 259.7 167.45 L262.4 169.75 262.6 170.1 Q263.4 171.0 264.2 172.6 L264.9 170.85 265.8 169.3 Q267.15 167.15 269.1 165.7 271.85 163.25 276.15 162.45 287.45 159.45 295.75 162.9 M229.5 198.45 L229.3 197.2 M262.4 196.8 L262.45 196.8 M229.2 195.7 L230.0 195.6 M229.5 198.5 L229.5 198.45 M234.55 210.45 Q231.15 205.65 229.95 200.75 L229.5 198.5 262.4 196.8 M234.8 210.8 L234.85 210.85 Q239.35 215.1 244.65 218.6 250.55 222.4 255.7 227.85 259.0 231.35 262.0 235.7" fill="none" stroke="#000000" stroke-linecap="round" stroke-linejoin="round" stroke-opacity="0.6" stroke-width="0.2"/>
    <path d="M311.0 194.25 L311.1 194.3 Q315.2 190.6 318.45 192.35 M229.5 198.45 Q226.7 196.05 225.05 200.1" fill="none" stroke="#000000" stroke-linecap="round" stroke-linejoin="round" stroke-opacity="0.6" stroke-width="0.4"/>
    <path d="M228.25 178.55 Q226.55 182.55 226.15 185.85 M229.9 175.4 Q234.55 164.75 248.0 160.35 M273.35 231.45 Q281.6 224.6 290.65 220.4" fill="none" stroke="#ffe243" stroke-linecap="round" stroke-linejoin="round" stroke-width="2.0"/>
    <path d="M265.95 198.15 L266.05 237.05 M262.45 196.8 L262.5 199.3 M262.6 220.45 L262.65 236.6 M265.8 169.3 L265.9 192.6" fill="none" stroke="#000000" stroke-linecap="round" stroke-linejoin="round" stroke-opacity="0.6" stroke-width="0.2"/>
  </g>
</svg>
