<?xml version="1.0" encoding="UTF-8" standalone="no"?>
<svg xmlns:xlink="http://www.w3.org/1999/xlink" height="111.6px" width="85.4px" xmlns="http://www.w3.org/2000/svg">
  <g transform="matrix(1.0, 0.0, 0.0, 1.0, -232.25, -144.15)">
    <path d="M259.65 166.2 L261.35 162.25 262.5 165.95 264.5 174.7 265.65 180.45 264.7 182.35 Q263.1 181.35 261.65 183.1 L256.15 178.5 255.7 176.75 Q257.45 171.55 259.65 166.2 M297.85 248.7 L296.3 253.05 293.4 247.45 Q293.1 247.15 293.25 247.05 L296.45 246.55 297.85 248.7 M258.45 248.45 L256.7 252.05 254.45 246.35 252.15 238.9 256.85 232.65 259.35 229.55 266.25 220.45 266.25 220.6 266.2 221.25 266.2 221.6 264.7 229.5 262.4 238.1 Q260.65 243.4 258.45 248.45 M236.0 220.65 L235.65 216.65 Q234.15 199.45 235.7 183.4 L235.85 182.4 239.85 187.35 Q238.25 200.25 239.5 214.95 L244.6 211.05 244.6 211.4 240.4 220.2 240.9 224.45 240.85 224.5 Q239.6 224.75 239.3 226.05 L238.25 227.15 238.05 227.2 Q237.35 227.3 237.15 228.4 L237.0 228.5 Q236.35 224.55 236.0 220.65 M238.7 164.8 L239.45 161.3 240.0 163.15 239.8 163.0 238.7 164.8 M301.5 174.55 Q303.8 183.0 304.9 192.1 305.85 201.85 305.25 212.1 304.85 219.15 303.7 226.4 L302.2 225.25 Q301.05 223.2 299.4 223.0 L299.3 222.9 298.3 222.05 296.4 220.55 Q296.05 219.45 295.0 219.4 L295.0 219.45 294.75 219.25 294.85 219.45 294.25 220.0 292.05 217.9 Q293.15 203.7 290.05 189.5 L297.15 180.25 301.45 174.55 301.5 174.55 M295.25 158.3 L295.85 159.5 294.5 161.1 293.65 160.75 295.25 158.3 M238.25 217.1 L237.6 217.05 235.65 216.65 237.6 217.05 237.35 206.85 237.6 217.05 238.25 217.1 M237.6 217.05 L238.05 227.2 237.6 217.05 M298.6 185.15 L300.35 193.6 295.8 193.35 300.35 193.6 298.6 185.15 295.3 184.9 298.6 185.15 297.15 180.25 298.6 185.15 301.65 185.5 298.6 185.15 M301.35 202.3 L300.35 193.6 303.65 193.7 300.35 193.6 301.35 202.3 M260.45 235.0 L258.65 233.8 259.35 229.55 258.65 233.8 260.45 235.0 M256.85 232.65 L258.65 233.8 256.7 241.9 258.65 233.8 256.85 232.65 M301.6 235.95 L301.4 236.75 299.1 234.2 299.25 234.05 301.6 235.95" fill="#5bb700" fill-rule="evenodd" stroke="none"/>
    <path d="M252.55 166.6 L259.65 166.2 Q257.45 171.55 255.7 176.75 254.35 171.5 252.55 166.6 M262.5 165.95 L266.1 165.45 264.5 174.7 262.5 165.95 M267.05 165.25 L271.75 164.2 Q270.45 169.15 269.5 174.85 L267.05 165.25 M272.8 163.85 L275.75 162.9 Q275.15 166.5 274.8 170.3 L272.8 163.85 M279.25 161.5 Q280.5 160.85 282.25 160.15 L283.15 158.65 299.75 165.2 299.85 165.3 299.1 166.25 298.35 167.1 282.05 160.55 Q280.3 162.0 280.35 163.5 L296.55 169.15 294.95 171.1 280.4 163.55 280.35 163.55 279.25 161.5 M299.75 151.65 Q300.1 151.4 300.6 151.2 L300.0 155.0 295.85 159.5 295.25 158.3 299.8 151.7 299.75 151.65 M302.55 150.2 Q306.5 147.9 311.35 145.35 L311.3 145.45 Q309.3 154.75 307.9 163.3 L306.3 158.45 307.9 156.75 305.25 155.15 304.7 154.9 302.55 150.2 M234.1 233.65 L234.85 229.1 236.0 220.65 Q236.35 224.55 237.0 228.5 L237.15 228.4 247.15 237.5 246.25 238.9 236.15 229.5 Q235.35 229.3 235.3 230.35 L236.3 231.25 234.1 233.65 M235.7 183.4 L235.65 182.1 235.85 182.4 235.7 183.4 M235.45 180.45 L234.95 177.05 235.55 177.4 235.45 180.45 M234.25 171.45 L233.05 164.2 238.35 165.25 234.25 171.4 234.25 171.45 M243.7 165.7 L243.85 165.75 236.8 178.55 235.8 177.45 243.7 165.7 M247.55 166.45 L248.0 166.45 248.9 166.5 248.2 170.55 247.85 168.5 248.0 168.35 247.85 167.9 247.55 166.45 M245.65 166.85 L246.9 167.6 238.85 180.7 237.9 179.65 245.65 166.85 M303.7 226.4 L304.2 226.85 290.75 239.05 289.25 237.4 302.2 225.35 302.2 225.25 303.7 226.4 M238.25 227.15 L239.3 226.05 248.6 235.5 248.55 235.65 238.25 227.15 M294.85 219.45 L294.75 219.25 295.0 219.45 294.85 219.45 M296.4 220.55 L298.3 222.05 298.3 222.1 296.45 220.7 296.4 220.55 M299.3 222.9 L299.4 223.0 299.35 223.0 287.65 235.45 286.25 233.6 299.25 222.95 299.3 222.9" fill="#cabc96" fill-rule="evenodd" stroke="none"/>
    <path d="M244.5 240.85 L243.95 242.7 243.45 240.6 244.0 239.95 244.55 240.3 Q244.45 240.45 244.5 240.85 M244.65 165.9 Q245.5 163.35 246.5 161.0 L247.55 166.45 247.85 167.9 Q247.4 167.3 246.9 167.6 L245.65 166.85 Q245.15 166.1 244.65 165.9 M247.85 168.5 L248.2 170.55 248.1 171.1 246.9 169.9 247.85 168.5 M246.55 185.9 L247.8 187.25 Q251.3 191.3 254.0 195.55 253.55 196.6 254.1 198.0 253.3 198.85 254.05 199.9 253.1 201.45 253.9 202.8 253.2 203.2 253.2 203.85 L250.25 200.2 245.5 194.35 246.55 185.9 M298.35 167.1 L299.1 166.25 301.45 174.55 297.15 180.25 290.05 189.5 289.6 190.05 287.45 179.45 290.4 175.8 290.8 176.1 292.8 173.65 Q294.45 172.75 294.95 171.1 L296.55 169.15 Q297.8 168.75 298.35 167.1 M239.85 187.35 L241.85 189.8 242.25 190.4 245.35 194.15 245.3 194.7 Q244.6 202.9 244.6 211.05 L239.5 214.95 Q238.25 200.25 239.85 187.35 M241.85 189.8 L241.8 190.25 241.0 190.05 241.8 190.25 241.85 189.8 M241.25 195.4 L241.8 190.25 242.25 190.4 241.8 190.25 241.25 195.4 M240.9 224.45 L240.4 220.2 244.6 211.4 Q244.5 216.0 244.75 220.6 L244.8 221.05 243.75 222.55 242.9 223.6 242.3 222.9 240.9 224.45" fill="#54a800" fill-rule="evenodd" stroke="none"/>
    <path d="M283.15 158.65 Q282.65 157.8 284.1 156.95 L285.15 157.3 289.6 159.05 293.65 160.75 294.5 161.1 297.15 162.1 301.15 163.7 301.25 163.75 Q301.0 165.0 299.85 165.3 L299.75 165.2 283.15 158.65 M234.35 176.0 L233.1 174.7 233.45 174.3 235.1 171.95 235.6 171.25 236.9 169.5 240.9 164.05 240.9 163.95 Q241.65 163.6 241.85 164.6 L234.35 176.0 M243.85 165.75 Q244.25 165.55 244.65 165.9 245.15 166.1 245.65 166.85 L237.9 179.65 Q236.75 179.35 236.8 178.55 L243.85 165.75 M246.9 169.9 L246.15 171.2 245.75 171.8 242.7 176.7 240.45 180.2 239.6 181.55 Q238.8 181.5 238.85 180.7 L246.9 167.6 Q247.4 167.3 247.85 167.9 L248.0 168.35 247.85 168.5 246.9 169.9 M296.55 169.15 L280.35 163.5 Q280.3 162.0 282.05 160.55 L298.35 167.1 Q297.8 168.75 296.55 169.15 M278.7 166.5 L292.8 173.65 290.8 176.1 290.4 175.8 286.0 173.05 282.5 170.9 279.15 168.85 277.85 168.0 Q277.5 167.05 278.7 166.5 M304.2 226.85 Q305.15 226.55 305.85 228.25 L304.7 229.3 299.45 233.8 299.25 234.05 299.1 234.2 297.0 236.0 292.3 240.2 291.9 240.6 Q290.5 240.0 290.75 239.05 L304.2 226.85 M238.05 227.2 L238.25 227.15 248.55 235.65 Q248.5 236.7 247.15 237.5 L237.15 228.4 Q237.35 227.3 238.05 227.2 M240.85 224.5 L240.9 224.45 242.3 222.9 242.9 223.6 244.45 225.25 246.2 227.25 250.35 231.85 250.9 232.4 Q250.9 233.2 250.05 233.5 L240.9 224.5 240.85 224.5 M235.3 230.35 Q235.35 229.3 236.15 229.5 L246.25 238.9 Q246.45 239.5 245.45 239.95 L244.55 239.15 239.9 234.7 238.2 233.05 236.3 231.25 235.3 230.35 M294.25 220.0 L294.85 219.45 295.0 219.45 295.0 219.4 Q296.05 219.45 296.4 220.55 L296.45 220.7 284.15 231.2 282.3 229.0 283.6 228.0 286.8 225.55 294.25 220.0 M299.4 223.0 Q301.05 223.2 302.2 225.25 L302.2 225.35 289.25 237.4 Q287.55 236.45 287.65 235.45 L299.35 223.0 299.4 223.0" fill="#e8e1d0" fill-rule="evenodd" stroke="none"/>
    <path d="M285.15 157.3 L290.45 146.25 299.75 151.65 299.8 151.7 295.25 158.3 293.65 160.75 289.6 159.05 285.15 157.3 M315.25 237.55 L317.25 239.0 315.95 240.1 315.8 240.25 314.3 241.5 299.45 233.8 304.7 229.3 306.55 230.7 309.45 233.15 315.25 237.55 M308.1 244.2 L309.4 245.65 307.7 246.95 297.0 236.0 299.1 234.2 301.4 236.75 306.7 242.65 308.1 244.2 M236.2 239.05 L232.75 235.1 234.1 233.65 236.3 231.25 238.2 233.05 237.85 233.5 238.2 233.05 239.9 234.7 236.2 239.05 M238.35 165.25 L238.7 164.8 239.8 163.0 240.0 163.15 240.9 164.05 236.9 169.5 235.6 171.25 235.1 171.95 234.25 171.4 238.35 165.25 M246.15 171.2 L246.9 169.9 248.1 171.1 256.15 178.5 261.65 183.1 261.55 183.25 Q261.55 186.8 261.85 190.7 L259.7 193.65 256.85 194.1 246.35 178.9 242.7 176.7 245.75 171.8 246.15 171.2 246.1 172.1 248.2 173.95 246.1 172.1 246.15 171.2 M246.1 172.1 L245.75 171.8 246.1 172.1 M279.15 168.85 L282.5 170.9 286.0 173.05 273.15 191.2 271.25 191.55 271.55 182.05 271.4 181.9 274.05 177.6 279.15 168.85 M280.9 177.45 L278.9 176.8 282.5 170.9 278.9 176.8 280.9 177.45 M305.25 155.15 L297.15 162.1 294.5 161.1 295.85 159.5 300.0 155.0 301.75 153.05 304.7 154.9 305.25 155.15 M289.9 158.5 L289.6 159.05 289.9 158.5 M246.2 227.25 L244.45 225.25 242.9 223.6 243.75 222.55 244.8 221.05 248.8 214.95 Q249.0 214.4 249.35 214.0 L252.75 206.4 254.05 207.8 254.15 207.95 256.85 210.8 259.3 213.55 258.7 214.95 256.2 211.45 256.85 210.8 256.2 211.45 258.7 214.95 256.5 218.9 Q254.1 222.35 250.75 225.4 L246.25 227.15 246.2 227.25 M292.05 217.9 L294.25 220.0 286.8 225.55 270.2 208.3 270.6 203.8 274.45 203.5 278.75 203.2 279.1 203.7 Q282.15 207.55 285.75 211.35 L292.05 217.9 M283.35 213.8 L283.85 212.6 289.1 217.65 283.85 212.6 283.35 213.8 M280.9 207.6 L280.0 208.9 274.45 203.5 280.0 208.9 280.9 207.6 M263.5 206.4 L263.8 208.15 261.5 210.55 256.45 204.8 261.2 204.45 263.5 206.4 M253.5 213.8 L250.5 217.6 249.65 216.85 250.5 217.6 253.5 213.8 M244.45 225.25 L250.5 217.6 244.45 225.25 M253.3 209.35 L254.15 207.95 253.3 209.35 M283.85 212.6 L280.0 208.9 283.85 212.6 M278.9 176.8 L273.0 186.65 278.9 176.8" fill="#7b7a41" fill-rule="evenodd" stroke="none"/>
    <path d="M248.05 244.75 L247.1 246.75 247.05 246.5 248.05 244.75 M248.9 166.5 Q249.35 163.3 250.05 160.25 L252.55 166.6 Q254.35 171.5 255.7 176.75 L256.15 178.5 248.1 171.1 248.2 170.55 248.9 166.5 M245.35 194.15 L245.5 194.35 245.3 194.7 245.5 194.35 250.25 200.2 253.2 203.85 Q253.15 204.3 253.6 204.8 L252.75 206.4 249.35 214.0 Q249.0 214.4 248.8 214.95 L244.8 221.05 244.75 220.6 Q244.5 216.0 244.6 211.4 L244.6 211.05 Q244.6 202.9 245.3 194.7 L245.35 194.15 M247.25 204.35 L249.95 204.75 249.35 214.0 249.95 204.75 247.25 204.35 M251.3 205.0 L249.95 204.75 250.25 200.2 249.95 204.75 251.3 205.0 M246.85 214.8 L248.8 214.95 246.85 214.8" fill="#66cc00" fill-rule="evenodd" stroke="none"/>
    <path d="M314.3 241.5 L311.25 243.9 310.95 243.65 307.4 240.75 301.6 235.95 299.25 234.05 299.45 233.8 314.3 241.5 M307.7 246.95 L304.35 249.55 303.15 250.55 300.3 252.75 297.85 248.7 296.45 246.55 292.3 240.2 297.0 236.0 307.7 246.95 M243.45 240.6 L240.6 244.4 236.2 239.05 239.9 234.7 244.55 239.15 Q244.2 239.5 244.0 239.95 L243.45 240.6 M233.45 174.3 L232.65 173.7 234.25 171.45 234.25 171.4 235.1 171.95 233.45 174.3 M242.7 176.7 L246.35 178.9 256.85 194.1 254.15 194.7 254.1 195.15 254.0 195.55 Q251.3 191.3 247.8 187.25 L246.55 185.9 245.1 184.4 242.75 182.2 240.95 180.5 240.45 180.2 242.7 176.7 M273.15 191.2 L286.0 173.05 290.4 175.8 287.45 179.45 287.25 178.5 287.45 179.45 287.25 179.75 283.1 185.25 281.2 187.8 279.7 190.0 273.15 191.2 M306.3 158.45 L305.75 158.9 301.15 163.7 297.15 162.1 305.25 155.15 307.9 156.75 306.3 158.45 M250.35 231.85 L246.2 227.25 246.25 227.15 250.75 225.4 Q254.1 222.35 256.5 218.9 L258.7 214.95 259.3 213.55 263.1 217.65 260.1 220.5 Q257.7 222.95 254.7 226.55 L250.9 231.15 250.7 229.85 250.9 231.15 250.35 231.85 M283.6 228.0 Q278.8 221.8 274.15 216.75 L271.4 213.8 269.85 212.35 269.85 212.3 Q269.95 210.25 270.2 208.3 L286.8 225.55 283.6 228.0 M266.15 213.05 Q266.3 212.4 266.7 212.2 266.55 212.3 266.55 212.55 L265.4 215.05 261.5 210.55 263.8 208.15 264.6 212.9 Q265.2 211.85 266.15 213.05 M263.15 204.35 L263.5 206.4 261.2 204.45 263.15 204.35" fill="#59582f" fill-rule="evenodd" stroke="none"/>
    <path d="M261.85 190.7 Q261.55 186.8 261.55 183.25 L261.65 183.1 Q263.1 181.35 264.7 182.35 L265.3 182.75 265.2 185.7 265.2 185.95 265.2 192.05 265.2 192.65 265.2 193.75 265.2 194.1 265.25 196.5 265.3 198.9 265.45 201.7 265.5 203.2 265.55 204.15 265.85 208.4 266.15 213.05 Q265.2 211.85 264.6 212.9 L263.8 208.15 263.5 206.4 263.15 204.35 262.85 201.95 262.65 200.1 262.5 199.25 262.4 197.9 262.35 196.85 262.3 196.35 262.15 194.35 262.0 193.25 261.85 190.7 M271.4 181.9 L271.55 182.05 271.25 191.55 271.2 193.05 271.15 193.5 271.05 195.8 270.95 198.55 270.75 201.2 270.6 203.8 270.2 208.3 Q269.95 210.25 269.85 212.3 L269.85 212.35 Q268.85 211.6 267.8 212.7 L267.85 211.35 269.15 182.3 Q270.15 181.1 271.4 181.9" fill="#e3ddcc" fill-rule="evenodd" stroke="none"/>
    <path d="M234.95 177.05 L234.35 176.0 241.85 164.6 243.7 165.7 235.8 177.45 235.55 177.4 234.95 177.05 M280.35 163.55 L280.4 163.55 294.95 171.1 Q294.45 172.75 292.8 173.65 L278.7 166.5 280.35 163.55 M239.3 226.05 Q239.6 224.75 240.85 224.5 L240.9 224.5 250.05 233.5 248.6 235.5 239.3 226.05 M296.45 220.7 L298.3 222.1 299.25 222.95 286.25 233.6 Q284.5 232.8 284.15 231.2 L296.45 220.7" fill="#eee9dd" fill-rule="evenodd" stroke="none"/>
    <path d="M275.75 162.9 Q276.05 159.95 276.75 157.1 L279.25 161.5 280.35 163.55 278.7 166.5 Q277.5 167.05 277.85 168.0 L279.15 168.85 274.05 177.6 Q274.2 173.95 274.8 170.3 275.15 166.5 275.75 162.9 M300.6 151.2 Q300.8 149.4 301.25 147.75 L302.55 150.2 304.7 154.9 301.75 153.05 300.0 155.0 300.6 151.2 M310.25 171.25 L310.35 171.65 Q316.3 195.4 311.65 222.55 L311.45 223.55 311.25 224.65 309.45 233.15 306.55 230.7 304.7 229.3 305.85 228.25 Q305.15 226.55 304.2 226.85 L303.7 226.4 Q304.85 219.15 305.25 212.1 305.85 201.85 304.9 192.1 303.8 183.0 301.5 174.55 L308.4 165.6 305.75 158.9 306.3 158.45 307.9 163.3 Q309.25 167.2 310.25 171.25 M304.35 249.55 Q303.8 250.65 303.5 251.85 L303.15 250.55 304.35 249.55 M283.75 249.45 L280.65 255.35 279.4 250.4 278.15 244.15 Q277.15 239.95 276.65 235.95 L277.75 231.55 286.5 243.05 283.75 249.45 M306.2 221.4 L307.5 222.3 306.55 230.7 307.5 222.3 306.2 221.4 M289.6 190.05 L290.05 189.5 Q293.15 203.7 292.05 217.9 L285.75 211.35 Q282.15 207.55 279.1 203.7 L279.55 203.2 280.65 203.1 Q281.35 202.1 281.0 201.2 L284.8 196.2 289.6 190.05 M298.3 222.05 L299.3 222.9 299.25 222.95 298.3 222.1 298.3 222.05 M285.75 211.35 Q285.7 203.8 284.8 196.2 285.7 203.8 285.75 211.35 M311.25 224.65 L307.5 222.3 310.4 197.95 307.5 222.3 311.25 224.65 M307.4 240.75 L306.7 242.65 301.4 236.75 301.6 235.95 307.4 240.75" fill="#499300" fill-rule="evenodd" stroke="none"/>
    <path d="M271.75 164.2 Q271.85 163.15 272.25 162.2 L272.8 163.85 274.8 170.3 Q274.2 173.95 274.05 177.6 L271.4 181.9 Q270.15 181.1 269.15 182.3 268.65 181.95 268.25 181.9 268.8 178.2 269.5 174.85 270.45 169.15 271.75 164.2 M276.65 251.0 L275.8 254.6 274.35 251.5 Q271.25 244.7 269.35 237.8 268.1 233.65 267.4 229.5 266.65 225.6 266.2 221.6 L266.2 221.25 266.25 220.6 266.25 220.45 266.25 220.6 266.25 220.45 267.65 212.5 267.8 212.7 Q268.85 211.6 269.85 212.35 L271.4 213.8 274.15 216.75 Q278.8 221.8 283.6 228.0 L282.3 229.0 284.15 231.2 Q284.5 232.8 286.25 233.6 L287.65 235.45 Q287.55 236.45 289.25 237.4 L290.75 239.05 Q290.5 240.0 291.9 240.6 L292.3 240.2 296.45 246.55 293.25 247.05 289.8 247.5 286.5 243.05 277.75 231.55 276.65 235.95 Q277.15 239.95 278.15 244.15 L276.65 251.0 M248.9 243.25 L248.2 244.5 248.05 244.75 247.05 246.5 247.0 246.5 246.95 245.9 246.7 243.45 Q246.35 242.25 245.85 241.6 245.3 240.65 244.55 240.3 L244.0 239.95 Q244.2 239.5 244.55 239.15 L245.45 239.95 Q246.45 239.5 246.25 238.9 L247.15 237.5 Q248.5 236.7 248.55 235.65 L248.6 235.5 250.05 233.5 Q250.9 233.2 250.9 232.4 L250.35 231.85 250.9 231.15 252.15 238.9 249.1 242.9 248.9 243.25 M235.65 182.1 L235.35 181.85 235.45 180.45 235.55 177.4 235.8 177.45 236.8 178.55 Q236.75 179.35 237.9 179.65 L238.85 180.7 Q238.8 181.5 239.6 181.55 L240.45 180.2 240.95 180.5 242.75 182.2 245.1 184.4 246.55 185.9 245.5 194.35 245.35 194.15 242.25 190.4 241.85 189.8 239.85 187.35 235.85 182.4 235.65 182.1 M299.1 166.25 L299.85 165.3 Q301.0 165.0 301.25 163.75 L301.15 163.7 305.75 158.9 308.4 165.6 301.5 174.55 301.45 174.55 299.1 166.25 M279.7 190.0 L281.2 187.8 283.1 185.25 287.25 179.75 287.45 179.45 289.6 190.05 284.8 196.2 281.0 201.2 280.45 200.3 Q278.95 199.25 280.25 197.7 281.65 195.55 280.05 194.6 279.05 193.7 279.9 192.65 281.2 191.3 279.75 190.0 L279.7 190.0 M268.5 226.25 L271.25 225.3 272.5 231.8 269.65 231.9 272.5 231.8 271.25 225.3 268.5 226.25 M274.35 231.8 L272.5 231.8 274.35 231.8 M270.75 222.2 L271.25 225.3 272.65 224.8 271.25 225.3 270.75 222.2 M272.5 231.8 L273.7 238.1 272.5 231.8" fill="#408000" fill-rule="evenodd" stroke="none"/>
    <path d="M266.1 165.45 L266.45 163.25 267.05 165.25 269.5 174.85 Q268.8 178.2 268.25 181.9 266.65 181.5 265.3 182.75 L264.7 182.35 265.65 180.45 264.5 174.7 266.1 165.45 M264.55 251.8 L264.1 252.9 263.9 251.45 Q262.9 244.7 262.4 238.1 L264.7 229.5 266.2 221.6 Q266.65 225.6 267.4 229.5 268.1 233.65 269.35 237.8 267.35 245.05 264.55 251.8" fill="#3a7500" fill-rule="evenodd" stroke="none"/>
    <path d="M268.25 181.9 Q268.65 181.95 269.15 182.3 L267.85 211.35 267.8 212.7 267.65 212.5 Q267.15 211.85 266.7 212.2 266.3 212.4 266.15 213.05 L265.85 208.4 265.55 204.15 265.5 203.2 265.45 201.7 265.3 198.9 265.25 196.5 265.2 194.1 265.2 193.75 265.2 192.65 265.2 192.05 265.2 185.95 265.2 185.7 265.3 182.75 Q266.65 181.5 268.25 181.9 M267.85 211.35 L267.65 212.5 267.85 211.35" fill="#d2c7aa" fill-rule="evenodd" stroke="none"/>
    <path d="M311.3 145.45 L315.8 144.55 310.25 171.25 Q309.25 167.2 307.9 163.3 309.3 154.75 311.3 145.45 M311.45 223.55 L315.25 237.55 309.45 233.15 311.25 224.65 311.45 223.55" fill="#8c7946" fill-rule="evenodd" stroke="none"/>
    <path d="M247.05 246.5 L247.0 246.6 247.0 246.5 247.05 246.5 M301.15 163.7 L301.25 163.75 301.15 163.7 M279.1 203.7 L278.75 203.2 279.55 203.2 279.1 203.7 M269.85 212.3 L269.85 212.35 269.85 212.3 M279.7 190.0 L279.75 190.0 279.7 190.0" fill="#59582f" fill-opacity="0.5019608" fill-rule="evenodd" stroke="none"/>
    <path d="M256.85 194.1 L259.7 193.65 262.0 193.25 262.15 194.35 254.1 195.15 254.15 194.7 256.85 194.1 M271.25 191.55 L273.15 191.2 279.7 190.0 279.75 190.0 Q281.2 191.3 279.9 192.65 L271.15 193.5 271.2 193.05 271.25 191.55 M278.75 203.2 L274.45 203.5 270.6 203.8 270.75 201.2 280.45 200.3 281.0 201.2 Q281.35 202.1 280.65 203.1 L279.55 203.2 278.75 203.2 M280.05 194.6 Q281.65 195.55 280.25 197.7 L270.95 198.55 271.05 195.8 280.05 194.6 M262.85 201.95 L263.15 204.35 261.2 204.45 256.45 204.8 253.85 205.0 253.6 204.8 Q253.15 204.3 253.2 203.85 253.2 203.2 253.9 202.8 L262.85 201.95 M262.35 196.85 L262.4 197.9 262.5 199.25 254.05 199.9 Q253.3 198.85 254.1 198.0 L262.35 196.85" fill="#c7b894" fill-rule="evenodd" stroke="none"/>
    <path d="M254.0 195.55 L254.1 195.15 262.15 194.35 262.3 196.35 262.35 196.85 254.1 198.0 Q253.55 196.6 254.0 195.55 M279.9 192.65 Q279.05 193.7 280.05 194.6 L271.05 195.8 271.15 193.5 279.9 192.65 M280.25 197.7 Q278.95 199.25 280.45 200.3 L270.75 201.2 270.95 198.55 280.25 197.7 M262.5 199.25 L262.65 200.1 262.85 201.95 253.9 202.8 Q253.1 201.45 254.05 199.9 L262.5 199.25" fill="#d3c7ab" fill-rule="evenodd" stroke="none"/>
    <path d="M259.7 193.65 L261.85 190.7 262.0 193.25 259.7 193.65 M253.6 204.8 L253.85 205.0 256.45 204.8 261.5 210.55 265.4 215.05 263.1 217.65 259.3 213.55 256.85 210.8 254.15 207.95 254.05 207.8 252.75 206.4 253.6 204.8" fill="#acaa62" fill-rule="evenodd" stroke="none"/>
    <path d="M267.65 212.5 L266.25 220.45 259.35 229.55 256.85 232.65 252.15 238.9 250.9 231.15 254.7 226.55 Q257.7 222.95 260.1 220.5 L263.1 217.65 265.4 215.05 266.55 212.55 Q266.55 212.3 266.7 212.2 267.15 211.85 267.65 212.5" fill="#458a00" fill-rule="evenodd" stroke="none"/>
    <path d="M310.95 243.65 L308.1 244.2 306.7 242.65 307.4 240.75 310.95 243.65 M293.4 247.45 L283.75 249.45 286.5 243.05 289.8 247.5 293.25 247.05 Q293.1 247.15 293.4 247.45 M279.4 250.4 L276.65 251.0 278.15 244.15 279.4 250.4 M274.35 251.5 L266.75 253.05 264.55 251.8 Q267.35 245.05 269.35 237.8 271.25 244.7 274.35 251.5 M263.9 251.45 L258.45 248.45 Q260.65 243.4 262.4 238.1 262.9 244.7 263.9 251.45 M254.45 246.35 L248.9 243.25 249.1 242.9 252.15 238.9 254.45 246.35 M245.85 241.6 L244.5 240.85 Q244.45 240.45 244.55 240.3 245.3 240.65 245.85 241.6" fill="#9b864f" fill-rule="evenodd" stroke="none"/>
    <path d="M252.55 166.6 L259.65 166.2 261.35 162.25 262.5 165.95 266.1 165.45 266.45 163.25 267.05 165.25 271.75 164.2 Q271.85 163.15 272.25 162.2 L272.8 163.85 275.75 162.9 Q276.05 159.95 276.75 157.1 L279.25 161.5 Q280.5 160.85 282.25 160.15 L283.15 158.65 Q282.65 157.8 284.1 156.95 L285.15 157.3 290.45 146.25 299.75 151.65 Q300.1 151.4 300.6 151.2 300.8 149.4 301.25 147.75 L302.55 150.2 Q306.5 147.9 311.35 145.35 L311.3 145.45 315.8 144.55 310.25 171.25 M310.35 171.65 Q316.3 195.4 311.65 222.55 L311.45 223.55 315.25 237.55 317.25 239.0 315.95 240.1 M315.8 240.25 L314.3 241.5 311.25 243.9 310.95 243.65 308.1 244.2 309.4 245.65 307.7 246.95 304.35 249.55 Q303.8 250.65 303.5 251.85 L303.15 250.55 300.3 252.75 297.85 248.7 296.3 253.05 293.4 247.45 283.75 249.45 280.65 255.35 279.4 250.4 276.65 251.0 275.8 254.6 274.35 251.5 266.75 253.05 264.55 251.8 264.1 252.9 263.9 251.45 258.45 248.45 256.7 252.05 254.45 246.35 248.9 243.25 248.2 244.5 M248.05 244.75 L247.1 246.75 247.05 246.5 M246.95 245.9 L246.7 243.45 Q246.35 242.25 245.85 241.6 L244.5 240.85 243.95 242.7 243.45 240.6 240.6 244.4 236.2 239.05 232.75 235.1 234.1 233.65 234.85 229.1 236.0 220.65 235.65 216.65 Q234.15 199.45 235.7 183.4 L235.65 182.1 235.35 181.85 235.45 180.45 234.95 177.05 234.35 176.0 233.1 174.7 M233.45 174.3 L232.65 173.7 234.25 171.45 233.05 164.2 238.35 165.25 M238.7 164.8 L239.45 161.3 240.0 163.15 240.9 164.05 240.9 163.95 Q241.65 163.6 241.85 164.6 L243.7 165.7 M243.85 165.75 Q244.25 165.55 244.65 165.9 245.5 163.35 246.5 161.0 L247.55 166.45 248.0 166.45 248.9 166.5 Q249.35 163.3 250.05 160.25 L252.55 166.6" fill="none" stroke="#000000" stroke-linecap="round" stroke-linejoin="round" stroke-opacity="0.8" stroke-width="0.8"/>
    <path d="M246.9 169.9 L246.15 171.2 245.75 171.8 242.7 176.7 240.45 180.2 239.6 181.55 Q238.8 181.5 238.85 180.7 L237.9 179.65 Q236.75 179.35 236.8 178.55 L235.8 177.45 235.55 177.4 234.95 177.05 M248.0 168.35 L247.85 168.5 246.9 169.9 M298.35 167.1 L299.1 166.25 299.85 165.3 Q301.0 165.0 301.25 163.75 M294.95 171.1 L296.55 169.15 Q297.8 168.75 298.35 167.1 M292.8 173.65 Q294.45 172.75 294.95 171.1 M279.15 168.85 L277.85 168.0 M282.5 170.9 L279.15 168.85 M271.4 181.9 L271.55 182.05 271.25 191.55 271.2 193.05 271.15 193.5 271.05 195.8 270.95 198.55 280.25 197.7 Q278.95 199.25 280.45 200.3 L281.0 201.2 Q281.35 202.1 280.65 203.1 L279.55 203.2 278.75 203.2 274.45 203.5 270.6 203.8 270.2 208.3 Q269.95 210.25 269.85 212.3 L269.85 212.35 Q268.85 211.6 267.8 212.7 L267.65 212.5 Q267.15 211.85 266.7 212.2 266.3 212.4 266.15 213.05 L265.85 208.4 265.55 204.15 265.5 203.2 265.45 201.7 265.3 198.9 265.25 196.5 265.2 194.1 265.2 193.75 265.2 192.65 265.2 192.05 265.2 185.95 265.2 185.7 265.3 182.75 M286.0 173.05 L282.5 170.9 M269.15 182.3 Q270.15 181.1 271.4 181.9 M305.85 228.25 L304.7 229.3 299.45 233.8 299.25 234.05 299.1 234.2 297.0 236.0 292.3 240.2 291.9 240.6 Q290.5 240.0 290.75 239.05 L289.25 237.4 Q287.55 236.45 287.65 235.45 L286.25 233.6 Q284.5 232.8 284.15 231.2 L282.3 229.0 M290.4 175.8 L286.0 173.05 M290.4 175.8 L290.8 176.1 292.8 173.65 M307.9 163.3 Q309.3 154.75 311.3 145.45 M250.05 233.5 Q250.9 233.2 250.9 232.4 M246.25 238.9 L247.15 237.5 Q248.5 236.7 248.55 235.65 M236.3 231.25 L235.3 230.35 M238.2 233.05 L236.3 231.25 M239.9 234.7 L238.2 233.05 M279.9 192.65 Q279.05 193.7 280.05 194.6 281.65 195.55 280.25 197.7 M279.75 190.0 Q281.2 191.3 279.9 192.65 L271.15 193.5 M270.95 198.55 L270.75 201.2 270.6 203.8 M264.6 212.9 Q265.2 211.85 266.15 213.05 M262.5 199.25 L254.05 199.9 M254.1 195.15 L262.15 194.35 M253.85 205.0 L256.45 204.8 261.2 204.45 263.15 204.35 M246.25 238.9 Q246.45 239.5 245.45 239.95 L244.55 239.15 239.9 234.7 M250.05 233.5 L248.6 235.5" fill="none" stroke="#000000" stroke-linecap="round" stroke-linejoin="round" stroke-opacity="0.4" stroke-width="0.4"/>
    <path d="M248.2 244.5 L248.05 244.75 M238.35 165.25 L238.7 164.8 239.8 163.0 240.0 163.15 M252.55 166.6 Q254.35 171.5 255.7 176.75 257.45 171.55 259.65 166.2 M247.85 167.9 L247.55 166.45 M248.2 170.55 L248.9 166.5 M247.85 168.5 L248.2 170.55 M248.1 171.1 L256.15 178.5 261.65 183.1 M246.9 169.9 L248.1 171.1 M240.45 180.2 L240.95 180.5 242.75 182.2 245.1 184.4 246.55 185.9 247.8 187.25 Q251.3 191.3 254.0 195.55 M279.25 161.5 L280.35 163.55 M279.15 168.85 L274.05 177.6 271.4 181.9 M272.8 163.85 L274.8 170.3 Q275.15 166.5 275.75 162.9 M269.5 174.85 L267.05 165.25 M271.75 164.2 Q270.45 169.15 269.5 174.85 M266.1 165.45 L264.5 174.7 262.5 165.95 M305.75 158.9 L306.3 158.45 307.9 156.75 305.25 155.15 304.7 154.9 302.55 150.2 M301.15 163.7 L305.75 158.9 M304.7 229.3 L306.55 230.7 309.45 233.15 315.25 237.55 M300.0 155.0 L301.75 153.05 304.7 154.9 M299.75 151.65 L299.8 151.7 295.25 158.3 295.85 159.5 300.0 155.0 300.6 151.2 M294.5 161.1 L295.85 159.5 M279.7 190.0 L281.2 187.8 283.1 185.25 287.25 179.75 287.45 179.45 290.4 175.8 M307.9 163.3 Q309.25 167.2 310.25 171.25 M293.65 160.75 L295.25 158.3 M306.3 158.45 L307.9 163.3 M234.25 171.4 L234.25 171.45 M238.35 165.25 L234.25 171.4 M235.7 183.4 L235.85 182.4 M242.9 223.6 L243.75 222.55 244.8 221.05 248.8 214.95 Q249.0 214.4 249.35 214.0 L252.75 206.4 253.6 204.8 M237.0 228.5 Q236.35 224.55 236.0 220.65 M236.3 231.25 L234.1 233.65 M292.05 217.9 L294.25 220.0 M292.05 217.9 L285.75 211.35 Q282.15 207.55 279.1 203.7 L278.75 203.2 M283.6 228.0 Q278.8 221.8 274.15 216.75 L271.4 213.8 269.85 212.35 269.85 212.3 M269.35 237.8 Q271.25 244.7 274.35 251.5 M311.45 223.55 L311.25 224.65 309.45 233.15 M263.1 217.65 L265.4 215.05 266.55 212.55 Q266.55 212.3 266.7 212.2 M250.35 231.85 L250.9 231.15 254.7 226.55 Q257.7 222.95 260.1 220.5 L263.1 217.65 M262.4 238.1 Q262.9 244.7 263.9 251.45 M261.2 204.45 L263.5 206.4 M278.15 244.15 L279.4 250.4 M264.55 251.8 Q267.35 245.05 269.35 237.8 M278.15 244.15 L276.65 251.0 M244.5 240.85 Q244.45 240.45 244.55 240.3 M244.0 239.95 L243.45 240.6 M244.55 239.15 Q244.2 239.5 244.0 239.95 M258.45 248.45 Q260.65 243.4 262.4 238.1 M252.15 238.9 L254.45 246.35 M307.4 240.75 L306.7 242.65 308.1 244.2 M307.4 240.75 L310.95 243.65 M303.15 250.55 L304.35 249.55 M301.6 235.95 L299.25 234.05 M299.1 234.2 L301.4 236.75 306.7 242.65 M293.25 247.05 Q293.1 247.15 293.4 247.45 M296.45 246.55 L292.3 240.2 M296.45 246.55 L297.85 248.7 M286.5 243.05 L283.75 249.45 M301.6 235.95 L307.4 240.75" fill="none" stroke="#000000" stroke-linecap="round" stroke-linejoin="round" stroke-opacity="0.6" stroke-width="0.4"/>
    <path d="M310.25 171.25 L310.35 171.65 M315.95 240.1 L315.8 240.25 M246.15 171.2 L246.1 172.1 248.2 173.95 M245.75 171.8 L246.1 172.1 M282.5 170.9 L278.9 176.8 280.9 177.45 M306.55 230.7 L307.5 222.3 306.2 221.4 M289.6 159.05 L289.9 158.5 M287.45 179.45 L287.25 178.5 M301.45 174.55 L299.1 166.25 M235.6 171.25 L236.9 169.5 M245.5 194.35 L246.55 185.9 M242.25 190.4 L241.8 190.25 241.25 195.4 M241.0 190.05 L241.8 190.25 241.85 189.8 M235.65 216.65 L237.6 217.05 237.35 206.85 M237.6 217.05 L238.25 217.1 M238.2 233.05 L237.85 233.5 M238.05 227.2 L237.6 217.05 M289.6 190.05 L287.45 179.45 M303.65 193.7 L300.35 193.6 301.35 202.3 M295.3 184.9 L298.6 185.15 297.15 180.25 M298.6 185.15 L301.65 185.5 M295.8 193.35 L300.35 193.6 298.6 185.15 M289.1 217.65 L283.85 212.6 283.35 213.8 M274.45 203.5 L280.0 208.9 280.9 207.6 M267.65 212.5 L266.25 220.45 266.25 220.6 266.2 221.25 M310.4 197.95 L307.5 222.3 311.25 224.65 M284.8 196.2 Q285.7 203.8 285.75 211.35 M267.65 212.5 L267.85 211.35 M245.3 194.7 L245.5 194.35 M250.25 200.2 L249.95 204.75 251.3 205.0 M249.35 214.0 L249.95 204.75 247.25 204.35 M252.75 206.4 L254.05 207.8 254.15 207.95 256.85 210.8 259.3 213.55 263.1 217.65 M258.7 214.95 L256.2 211.45 256.85 210.8 M249.65 216.85 L250.5 217.6 253.5 213.8 M248.8 214.95 L246.85 214.8 M250.9 231.15 L250.7 229.85 M250.5 217.6 L244.45 225.25 M269.65 231.9 L272.5 231.8 271.25 225.3 268.5 226.25 M272.65 224.8 L271.25 225.3 270.75 222.2 M272.5 231.8 L274.35 231.8 M254.15 207.95 L253.3 209.35 M256.7 241.9 L258.65 233.8 256.85 232.65 M259.35 229.55 L258.65 233.8 260.45 235.0 M280.0 208.9 L283.85 212.6 M252.15 238.9 L250.9 231.15 M273.7 238.1 L272.5 231.8 M273.0 186.65 L278.9 176.8" fill="none" stroke="#000000" stroke-linecap="round" stroke-linejoin="round" stroke-opacity="0.4" stroke-width="0.2"/>
  </g>
</svg>
