<?xml version="1.0" encoding="UTF-8" standalone="no"?>
<svg xmlns:xlink="http://www.w3.org/1999/xlink" height="96.35px" width="98.95px" xmlns="http://www.w3.org/2000/svg">
  <g transform="matrix(1.0, 0.0, 0.0, 1.0, -225.5, -151.8)">
    <path d="M289.5 164.8 L278.8 166.35 273.1 167.0 273.1 164.75 273.1 167.0 268.0 167.8 268.0 165.5 273.1 164.75 292.55 162.0 292.5 164.45 292.55 162.0 312.3 159.25 312.3 161.8 303.8 162.9 296.0 164.05 292.5 164.45 289.5 164.8 M313.05 157.65 L312.2 157.1 314.85 154.0 314.9 154.0 318.0 155.85 315.25 159.05 315.15 158.95 313.35 157.8 313.05 157.65 M292.6 174.25 L292.55 177.9 289.55 178.1 292.6 174.25 M257.4 181.2 L255.55 181.4 255.55 178.75 257.4 181.15 257.4 181.2 M233.0 183.6 L230.9 183.75 231.0 171.7 231.05 171.05 231.05 170.65 240.4 169.35 255.65 167.25 264.8 165.9 264.8 168.2 261.95 168.5 255.55 169.45 251.2 169.95 244.45 170.95 240.4 171.5 236.5 172.05 233.1 172.4 233.0 183.6 M315.15 158.95 L314.85 154.0 315.15 158.95 M230.35 167.1 L230.35 169.95 228.1 170.25 228.1 167.5 228.1 167.45 230.35 167.1 M230.35 169.95 L228.1 167.5 230.35 169.95 M240.4 169.35 L240.4 171.5 240.4 169.35 M255.65 167.25 L255.55 169.45 255.65 167.25" fill="#9a5501" fill-rule="evenodd" stroke="none"/>
    <path d="M278.8 166.35 L289.5 164.8 Q290.3 168.75 288.55 172.9 287.15 175.7 284.75 178.65 L281.2 178.9 Q281.85 176.2 281.65 173.75 281.15 169.75 278.8 166.35 M312.3 161.8 L312.3 176.0 306.4 176.55 303.8 162.9 312.3 161.8" fill="#c56c01" fill-rule="evenodd" stroke="none"/>
    <path d="M273.1 167.0 L278.8 166.35 Q281.15 169.75 281.65 173.75 281.85 176.2 281.2 178.9 L275.95 179.45 275.8 179.45 273.1 177.15 273.1 167.0 M249.9 181.95 L244.8 182.45 245.4 177.9 Q245.4 174.25 244.45 170.95 L251.2 169.95 Q251.75 173.5 251.35 177.2 250.9 179.5 249.9 181.95 M273.05 179.75 L273.05 179.5 273.3 179.75 273.05 179.75" fill="#e98101" fill-rule="evenodd" stroke="none"/>
    <path d="M289.5 164.8 L292.5 164.45 292.6 174.25 292.5 164.45 296.0 164.05 296.1 177.55 292.55 177.9 292.6 174.25 289.55 178.1 284.75 178.65 Q287.15 175.7 288.55 172.9 290.3 168.75 289.5 164.8 M273.1 167.0 L273.1 177.15 267.95 172.9 268.0 167.8 273.1 167.0 M233.75 229.2 Q233.5 227.3 232.9 227.3 L232.2 227.2 237.95 222.2 233.75 229.2 M255.55 181.4 L249.9 181.95 Q250.9 179.5 251.35 177.2 251.75 173.5 251.2 169.95 L255.55 169.45 261.95 168.5 262.45 175.45 257.4 181.15 255.55 178.75 255.55 181.4 M244.8 182.45 L240.35 182.85 240.4 171.5 244.45 170.95 Q245.4 174.25 245.4 177.9 L244.8 182.45 M238.55 183.05 L233.0 183.6 233.1 172.4 236.5 172.05 238.55 183.05 M301.2 238.4 Q297.9 240.65 294.6 242.35 294.75 227.1 291.3 213.45 288.45 202.6 283.5 193.1 L282.6 191.45 Q281.65 189.45 280.55 187.8 L282.8 187.65 283.1 187.65 283.25 187.65 286.5 192.85 286.6 192.95 286.6 193.0 286.7 193.25 Q298.8 212.7 301.2 238.4 M266.7 173.45 L266.15 173.55 266.7 173.45 273.05 179.5 273.05 179.75 264.8 180.45 264.85 174.95 266.15 173.55 266.35 173.4 266.7 173.45 M262.6 177.7 L262.7 180.65 259.7 181.0 262.6 177.7 M245.8 215.15 Q247.0 211.55 249.1 208.75 251.35 205.45 254.65 203.2 258.7 200.15 264.55 198.55 258.0 202.75 253.25 207.3 250.2 210.0 247.9 213.0 246.65 214.55 245.55 216.25 L245.35 216.5 Q245.5 215.7 245.8 215.15 M255.55 178.75 L255.55 169.45 255.55 178.75" fill="#cd7101" fill-rule="evenodd" stroke="none"/>
    <path d="M268.0 162.45 L309.05 156.35 308.1 154.9 268.0 160.95 268.05 160.25 318.85 152.3 318.85 152.45 318.95 159.6 318.9 162.0 316.05 175.55 312.3 176.0 312.3 161.8 312.3 159.25 313.35 157.8 315.15 158.95 315.25 159.05 318.0 155.85 314.9 154.0 314.85 154.0 312.2 157.1 313.05 157.65 268.0 163.9 268.0 162.45 M228.95 183.95 L226.85 184.15 226.95 166.7 264.8 160.8 264.8 161.45 259.25 162.35 259.9 163.65 264.8 162.9 264.75 164.4 231.8 168.95 231.05 170.65 231.05 171.05 231.0 171.7 228.95 183.95 M231.9 167.8 L259.0 163.9 257.9 162.75 231.3 166.8 231.9 167.8 M228.1 170.25 L230.35 169.95 230.35 167.1 228.1 167.45 228.1 167.5 228.1 170.25" fill="#91acb5" fill-rule="evenodd" stroke="none"/>
    <path d="M268.0 160.95 L308.1 154.9 309.05 156.35 268.0 162.45 268.0 160.95 M231.9 167.8 L231.3 166.8 257.9 162.75 259.0 163.9 231.9 167.8 M264.8 162.9 L259.9 163.65 259.25 162.35 264.8 161.45 264.8 162.9" fill="#baccd1" fill-rule="evenodd" stroke="none"/>
    <path d="M292.55 162.0 L273.1 164.75 268.0 165.5 268.0 167.8 267.95 172.9 273.1 177.15 275.8 179.45 275.95 179.55 273.45 179.8 273.3 179.75 273.05 179.5 266.7 173.45 266.35 173.4 266.15 173.55 264.85 174.95 262.6 177.7 259.7 181.0 259.6 181.1 257.3 181.35 257.4 181.2 257.4 181.15 262.45 175.45 264.75 172.8 264.8 168.2 264.8 165.9 255.65 167.25 240.4 169.35 231.05 170.65 231.8 168.95 264.75 164.4 264.8 165.9 264.75 164.4 264.8 162.9 264.8 161.45 264.8 160.8 264.8 160.25 268.05 159.7 268.05 160.25 268.0 160.95 268.0 162.45 268.0 163.9 313.05 157.65 313.35 157.8 312.3 159.25 292.55 162.0 M316.05 175.55 L318.9 162.0 319.0 175.35 316.05 175.55 M230.9 183.75 L228.95 183.95 231.0 171.7 230.9 183.75 M268.0 163.9 L268.0 165.5 268.0 163.9" fill="#61848f" fill-rule="evenodd" stroke="none"/>
    <path d="M296.1 177.55 L296.0 164.05 303.8 162.9 306.4 176.55 296.1 177.55 M240.35 182.85 L238.55 183.05 236.5 172.05 240.4 171.5 240.35 182.85 M264.8 168.2 L264.75 172.8 262.45 175.45 261.95 168.5 264.8 168.2 M264.85 174.95 L264.8 180.45 262.7 180.65 262.6 177.7 264.85 174.95" fill="#de7a01" fill-rule="evenodd" stroke="none"/>
    <path d="M318.9 162.0 L318.95 159.6 318.85 152.45 322.4 153.95 323.35 176.05 323.3 176.05 319.8 175.5 319.8 175.4 319.0 175.45 319.0 175.35 318.9 162.0" fill="#3f545c" fill-rule="evenodd" stroke="none"/>
    <path d="M243.7 238.8 L241.25 236.9 243.75 233.35 245.55 230.7 Q245.45 232.7 245.5 235.15 L245.55 235.25 Q248.7 237.8 252.2 236.75 251.35 232.75 251.0 229.05 L257.9 233.55 250.85 225.35 Q250.8 223.45 250.9 221.9 L254.55 212.95 251.2 216.8 Q251.75 211.95 253.25 207.3 258.0 202.75 264.55 198.55 258.7 200.15 254.65 203.2 255.85 199.7 257.55 196.3 L254.65 196.0 254.55 196.25 Q251.15 201.75 249.1 208.75 247.0 211.55 245.8 215.15 248.05 204.1 252.8 193.95 248.05 204.1 245.8 215.15 245.5 215.7 245.35 216.5 L245.55 216.25 Q246.65 214.55 247.9 213.0 246.75 217.4 246.35 222.45 L244.75 221.2 Q245.0 218.65 245.55 216.25 245.0 218.65 244.75 221.2 L237.1 215.5 244.45 223.65 246.0 225.4 245.9 226.1 243.9 230.05 240.6 236.35 Q236.9 233.2 233.75 229.2 L237.95 222.2 232.2 227.2 232.2 227.25 Q226.95 220.1 226.15 209.75 225.9 208.45 226.05 195.45 L252.8 193.95 253.15 193.15 Q266.75 188.3 282.6 191.45 L283.5 193.1 Q288.45 202.6 291.3 213.45 295.05 245.4 267.35 242.85 257.15 241.75 243.7 236.0 L243.75 233.35 243.7 236.0 243.7 238.8 M226.1 191.65 L226.1 189.3 226.3 184.25 234.55 183.45 244.25 182.6 255.4 181.55 257.3 181.35 259.6 181.1 267.25 180.4 273.45 179.8 275.95 179.55 280.35 179.15 293.0 177.9 307.45 176.5 319.0 175.45 319.8 175.4 319.8 175.5 320.05 179.7 Q319.7 181.35 317.75 182.9 315.6 184.25 311.8 185.6 L307.55 185.95 307.5 179.45 Q307.05 181.8 304.05 183.85 301.8 185.25 298.25 186.65 L292.95 187.0 292.95 180.9 Q291.55 183.1 289.1 185.0 287.0 186.4 284.2 187.55 L283.65 187.65 283.25 187.65 283.1 187.65 282.8 187.65 280.55 187.8 280.2 187.85 280.2 182.9 Q280.1 184.5 279.15 185.85 277.4 187.6 273.5 188.3 L267.25 188.75 267.25 184.55 Q266.75 185.6 265.45 186.75 264.0 188.0 261.75 189.2 L255.35 189.65 255.4 188.55 255.4 185.55 253.75 187.75 Q252.0 189.05 249.4 190.0 L244.2 190.4 244.2 185.35 Q243.9 187.05 242.05 188.6 240.4 189.7 237.7 190.85 L237.3 190.85 234.5 191.05 234.55 187.3 234.55 183.45 234.55 187.3 233.0 189.3 Q231.2 190.95 228.25 191.5 L226.1 191.65 M320.25 191.05 Q320.2 193.25 320.45 196.15 320.45 204.05 319.95 209.2 318.25 223.15 309.4 231.65 305.35 235.35 301.2 238.4 298.8 212.7 286.7 193.25 L286.6 193.0 286.6 192.95 286.5 192.85 286.5 192.75 320.25 191.05 M293.0 177.9 L292.95 180.9 293.0 177.9 M267.25 180.4 L267.25 184.55 267.25 180.4 M255.4 181.55 L255.4 185.55 255.4 181.55 M244.25 182.6 L244.2 185.35 244.25 182.6 M243.3 197.6 Q235.85 194.9 228.25 198.4 226.85 210.25 231.25 219.4 229.5 210.4 230.75 202.05 236.5 197.7 243.3 197.6 M243.9 230.05 Q244.0 226.75 244.45 223.65 244.0 226.75 243.9 230.05 M307.45 176.5 L307.5 179.45 307.45 176.5 M280.2 182.35 L280.35 179.15 280.2 182.35" fill="#fbbb52" fill-rule="evenodd" stroke="none"/>
    <path d="M323.3 176.05 L323.95 196.35 Q323.95 204.1 323.45 209.2 321.75 223.15 312.9 231.65 308.9 235.35 304.7 238.4 301.75 240.4 298.7 242.0 298.35 242.2 298.1 242.35 288.05 247.3 276.9 247.4 286.1 246.5 294.6 242.35 297.9 240.65 301.2 238.4 305.35 235.35 309.4 231.65 318.25 223.15 319.95 209.2 320.45 204.05 320.45 196.15 320.2 193.25 320.25 191.05 L320.1 185.05 320.1 182.7 320.1 182.05 320.05 179.7 319.8 175.5 323.3 176.05" fill="#9e5701" fill-rule="evenodd" stroke="none"/>
    <path d="M320.05 179.7 L320.1 182.05 320.1 182.7 320.1 185.05 311.8 185.6 Q315.6 184.25 317.75 182.9 319.7 181.35 320.05 179.7 M267.25 184.55 L267.25 188.75 261.75 189.2 Q264.0 188.0 265.45 186.75 266.75 185.6 267.25 184.55 M273.5 188.3 Q277.4 187.6 279.15 185.85 280.1 184.5 280.2 182.9 L280.2 187.85 273.5 188.3 M284.2 187.55 Q287.0 186.4 289.1 185.0 291.55 183.1 292.95 180.9 L292.95 187.0 284.2 187.55 M255.4 185.55 L255.4 188.55 254.9 189.6 249.4 190.0 Q252.0 189.05 253.75 187.75 L255.4 185.55 M237.7 190.85 Q240.4 189.7 242.05 188.6 243.9 187.05 244.2 185.35 L244.2 190.4 237.7 190.85 M228.25 191.5 Q231.2 190.95 233.0 189.3 L234.55 187.3 234.5 191.05 228.25 191.5 M307.5 179.45 L307.55 185.95 298.25 186.65 Q301.8 185.25 304.05 183.85 307.05 181.8 307.5 179.45" fill="#e48107" fill-rule="evenodd" stroke="none"/>
    <path d="M276.9 247.4 L270.25 247.6 266.35 247.35 Q253.5 245.85 243.7 238.8 L243.7 236.0 Q257.15 241.75 267.35 242.85 295.05 245.4 291.3 213.45 294.75 227.1 294.6 242.35 286.1 246.5 276.9 247.4 M226.05 195.45 L226.1 191.65 228.25 191.5 234.5 191.05 237.3 190.85 237.7 190.85 244.2 190.4 249.4 190.0 254.9 189.6 255.35 189.65 261.75 189.2 267.25 188.75 273.5 188.3 280.2 187.85 280.55 187.8 Q281.65 189.45 282.6 191.45 266.75 188.3 253.15 193.15 L252.8 193.95 226.05 195.45 M320.1 185.05 L320.25 191.05 286.5 192.75 286.5 192.85 283.25 187.65 283.65 187.65 284.2 187.55 292.95 187.0 298.25 186.65 307.55 185.95 311.8 185.6 320.1 185.05 M253.15 193.15 Q253.9 191.3 254.9 189.6 253.9 191.3 253.15 193.15" fill="#ff9900" fill-rule="evenodd" stroke="none"/>
    <path d="M249.1 208.75 Q251.15 201.75 254.55 196.25 L254.65 196.0 257.55 196.3 Q255.85 199.7 254.65 203.2 251.35 205.45 249.1 208.75 M253.25 207.3 Q251.75 211.95 251.2 216.8 L246.5 222.6 246.35 222.45 Q246.75 217.4 247.9 213.0 250.2 210.0 253.25 207.3 M250.9 221.9 Q250.8 223.45 250.85 225.35 L249.9 224.2 250.9 221.9 M251.0 229.05 Q251.35 232.75 252.2 236.75 248.7 237.8 245.55 235.25 L245.5 235.15 Q245.45 232.7 245.55 230.7 L248.1 227.1 251.0 229.05 M243.3 197.6 Q236.5 197.7 230.75 202.05 229.5 210.4 231.25 219.4 226.85 210.25 228.25 198.4 235.85 194.9 243.3 197.6 M246.0 225.4 L246.2 225.55 245.9 226.1 246.0 225.4" fill="#fde3b8" fill-rule="evenodd" stroke="none"/>
    <path d="M241.25 236.9 L237.9 241.65 240.6 236.35 243.9 230.05 245.9 226.1 246.2 225.55 246.0 225.4 244.45 223.65 237.1 215.5 244.75 221.2 246.35 222.45 246.5 222.6 251.2 216.8 254.55 212.95 250.9 221.9 249.9 224.2 250.85 225.35 257.9 233.55 251.0 229.05 248.1 227.1 245.55 230.7 243.75 233.35 241.25 236.9" fill="#fef3e0" fill-rule="evenodd" stroke="none"/>
    <path d="M273.1 167.0 L273.1 177.15 M292.5 164.45 L292.6 174.25 292.55 177.9 M273.05 179.75 L273.05 179.5 M257.4 181.15 L255.55 178.75 255.55 181.4 M289.55 178.1 L292.6 174.25 M255.55 169.45 L255.55 178.75 M240.4 171.5 L240.35 182.85" fill="none" stroke="#fe910a" stroke-linecap="round" stroke-linejoin="round" stroke-width="0.4"/>
    <path d="M292.5 164.45 L292.55 162.0 M273.1 164.75 L273.1 167.0 M312.2 157.1 L314.85 154.0 314.9 154.0 318.0 155.85 M228.1 170.25 L228.1 167.5 228.1 167.45 230.35 167.1 M240.4 171.5 L240.4 169.35 M255.55 169.45 L255.65 167.25" fill="none" stroke="#cd7101" stroke-linecap="round" stroke-linejoin="round" stroke-width="0.4"/>
    <path d="M312.3 159.25 L312.3 161.8 312.3 176.0" fill="none" stroke="#dde6e8" stroke-linecap="round" stroke-linejoin="round" stroke-width="0.4"/>
    <path d="M313.05 157.65 L312.2 157.1 M318.0 155.85 L315.25 159.05 315.15 158.95 313.35 157.8 313.05 157.65 M314.85 154.0 L315.15 158.95 M230.35 167.1 L230.35 169.95 228.1 170.25 M228.1 167.5 L230.35 169.95" fill="none" stroke="#5a3201" stroke-linecap="round" stroke-linejoin="round" stroke-width="0.4"/>
    <path d="M292.55 162.0 L273.1 164.75 268.0 165.5 M318.95 159.6 L318.85 152.45 318.85 152.3 M292.55 162.0 L312.3 159.25 M319.0 175.35 L318.9 162.0 M231.05 171.05 L231.0 171.7 230.9 183.75 M231.05 170.65 L240.4 169.35 255.65 167.25 264.8 165.9" fill="none" stroke="#597b86" stroke-linecap="round" stroke-linejoin="round" stroke-width="0.4"/>
    <path d="M318.85 152.45 L322.4 153.95 323.35 176.05 323.3 176.05 323.95 196.35" fill="none" stroke="#000000" stroke-linecap="round" stroke-linejoin="round" stroke-opacity="0.8" stroke-width="1.0"/>
    <path d="M234.55 183.45 L244.25 182.6 255.4 181.55 257.3 181.35 M319.0 175.45 L319.8 175.4 319.8 175.5 320.05 179.7 320.1 182.05 320.1 182.7 320.1 185.05 320.25 191.05 Q320.2 193.25 320.45 196.15 320.45 204.05 319.95 209.2 318.25 223.15 309.4 231.65 305.35 235.35 301.2 238.4 297.9 240.65 294.6 242.35 286.1 246.5 276.9 247.4 M275.95 179.55 L280.35 179.15 293.0 177.9 307.45 176.5 319.0 175.45 M259.6 181.1 L267.25 180.4 273.45 179.8 M282.8 187.65 L283.1 187.65 M254.9 189.6 Q253.9 191.3 253.15 193.15 L252.8 193.95 Q248.05 204.1 245.8 215.15 M282.6 191.45 Q281.65 189.45 280.55 187.8 M243.75 233.35 L243.7 236.0 243.7 238.8 M291.3 213.45 Q288.45 202.6 283.5 193.1 L282.6 191.45 M245.55 216.25 Q245.0 218.65 244.75 221.2 M244.45 223.65 Q244.0 226.75 243.9 230.05 M291.3 213.45 Q294.75 227.1 294.6 242.35" fill="none" stroke="#333333" stroke-linecap="round" stroke-linejoin="round" stroke-opacity="0.6" stroke-width="0.4"/>
    <path d="M268.0 162.45 L268.0 163.9 268.0 165.5 268.0 167.8 267.95 172.9 M268.05 160.25 L268.0 160.95 268.0 162.45 M268.05 159.7 L268.05 160.25 M266.15 173.55 L264.85 174.95 262.6 177.7 259.7 181.0 259.6 181.1 257.3 181.35 M273.05 179.5 L266.7 173.45 M273.45 179.8 L273.3 179.75 273.05 179.5 M273.45 179.8 L275.95 179.55" fill="none" stroke="#33464d" stroke-linecap="round" stroke-linejoin="round" stroke-width="0.4"/>
    <path d="M318.85 152.3 L268.05 160.25 M276.9 247.4 L270.25 247.6 266.35 247.35 Q253.5 245.85 243.7 238.8 L241.25 236.9 M240.6 236.35 Q236.9 233.2 233.75 229.2 233.5 227.3 232.9 227.3 L232.2 227.2 232.2 227.25 Q226.95 220.1 226.15 209.75 225.9 208.45 226.05 195.45 L226.1 191.65 226.1 189.3 226.3 184.25 M226.85 184.15 L226.95 166.7 264.8 160.8 264.8 160.25 268.05 159.7" fill="none" stroke="#272727" stroke-linecap="round" stroke-linejoin="round" stroke-opacity="0.8" stroke-width="1.0"/>
    <path d="M257.3 181.35 L257.4 181.2 257.4 181.15 262.45 175.45 264.75 172.8 264.8 168.2 264.8 165.9 264.75 164.4 264.8 162.9 264.8 161.45 264.8 160.8" fill="none" stroke="#8da9b1" stroke-linecap="round" stroke-linejoin="round" stroke-width="0.4"/>
    <path d="M266.35 173.4 L266.15 173.55" fill="none" stroke="#164ea9" stroke-linecap="round" stroke-linejoin="round" stroke-width="0.4"/>
    <path d="M266.15 173.55 L266.7 173.45" fill="none" stroke="#000000" stroke-linecap="round" stroke-linejoin="round" stroke-opacity="0.6" stroke-width="0.4"/>
    <path d="M267.25 184.55 L267.25 188.75 273.5 188.3 280.2 187.85 280.55 187.8 282.8 187.65 M280.2 182.9 L280.2 187.85 M283.1 187.65 L283.25 187.65 283.65 187.65 M292.95 180.9 L293.0 177.9 M267.25 184.55 L267.25 180.4 M261.75 189.2 L267.25 188.75 M255.4 185.55 L255.4 188.55 255.35 189.65 261.75 189.2 M254.9 189.6 L255.35 189.65 M255.4 188.55 L254.9 189.6 249.4 190.0 244.2 190.4 244.2 185.35 244.25 182.6 M255.4 185.55 L255.4 181.55 M237.7 190.85 L244.2 190.4 M234.55 187.3 L234.55 183.45 M234.55 187.3 L234.5 191.05 237.3 190.85 M226.1 191.65 L228.25 191.5 234.5 191.05 M307.55 185.95 L311.8 185.6 320.1 185.05 M307.5 179.45 L307.55 185.95 298.25 186.65 292.95 187.0 284.2 187.55 M307.5 179.45 L307.45 176.5 M292.95 180.9 L292.95 187.0 M280.35 179.15 L280.2 182.35" fill="none" stroke="#333333" stroke-linecap="round" stroke-linejoin="round" stroke-opacity="0.6" stroke-width="0.4"/>
    <path d="M245.8 215.15 Q247.0 211.55 249.1 208.75 251.35 205.45 254.65 203.2 258.7 200.15 264.55 198.55 M232.2 227.2 L237.95 222.2" fill="none" stroke="#fde3b8" stroke-linecap="round" stroke-linejoin="round" stroke-width="0.4"/>
    <path d="M323.95 196.35 Q323.95 204.1 323.45 209.2 321.75 223.15 312.9 231.65 308.9 235.35 304.7 238.4 301.75 240.4 298.7 242.0 298.35 242.2 298.1 242.35 288.05 247.3 276.9 247.4" fill="none" stroke="#272727" stroke-linecap="round" stroke-linejoin="round" stroke-opacity="0.8" stroke-width="1.0"/>
  </g>
</svg>
