<?xml version="1.0" encoding="UTF-8" standalone="no"?>
<svg xmlns:xlink="http://www.w3.org/1999/xlink" height="113.2px" width="88.25px" xmlns="http://www.w3.org/2000/svg">
  <g transform="matrix(1.0, 0.0, 0.0, 1.0, -230.85, -143.35)">
    <path d="M262.2 147.1 L265.3 167.1 Q264.2 167.3 263.35 167.8 L260.55 151.15 260.15 148.3 Q261.1 147.6 262.2 147.1 M291.7 160.25 L294.55 158.7 294.9 158.85 Q296.45 159.55 297.45 160.55 L298.0 161.1 294.95 162.7 294.9 162.65 294.25 161.95 Q293.25 160.95 291.7 160.25 M281.7 178.75 L298.6 170.75 300.3 173.65 286.05 179.4 290.6 187.65 290.9 188.05 Q298.15 203.85 301.65 216.05 302.85 221.3 302.7 222.1 302.35 222.8 302.65 226.6 302.75 234.2 299.25 237.8 295.6 245.2 287.85 248.25 L283.4 240.7 287.85 248.25 284.4 249.35 281.85 251.35 280.3 250.7 277.85 242.8 281.25 241.7 283.4 240.7 Q286.65 238.9 289.5 236.4 L289.75 236.85 Q291.4 239.85 295.6 240.6 291.65 238.25 291.15 234.6 299.05 225.3 296.0 212.6 295.2 210.05 294.7 207.7 L294.1 205.8 Q291.7 197.65 289.15 191.55 286.45 185.6 283.65 181.5 L283.5 181.3 283.05 180.6 282.55 180.0 282.1 179.4 281.7 178.75 M301.85 166.25 L298.6 167.55 Q298.1 166.7 296.9 166.35 L299.75 164.85 300.1 164.95 Q301.35 165.3 301.85 166.25 M274.4 255.5 L274.4 255.55 273.95 255.5 273.8 255.45 269.15 255.45 263.4 253.65 Q261.05 252.9 258.9 251.45 L258.8 251.35 258.15 249.9 Q263.6 253.0 269.6 253.35 L271.85 253.35 Q271.1 250.95 269.95 249.1 L274.4 255.5 273.95 255.5 274.4 255.5 M234.35 224.15 L233.5 221.65 242.1 220.95 242.5 222.05 Q242.55 222.65 242.9 223.35 L234.35 224.15 M302.8 183.45 L306.2 187.8 308.0 195.3 306.25 195.85 305.65 195.85 Q299.5 195.8 295.3 192.7 L295.05 192.55 294.65 190.8 Q299.25 194.8 305.95 194.0 L305.65 191.45 Q304.9 186.95 302.8 183.45 M247.3 230.85 Q253.15 238.5 264.15 242.9 L264.5 243.0 267.35 243.7 267.75 243.75 Q273.1 243.95 277.85 242.8 L280.3 250.7 Q274.85 250.35 269.85 249.0 267.95 246.2 264.85 244.35 262.8 244.75 261.35 245.85 257.4 243.8 253.75 241.35 247.55 235.75 247.3 230.85 M250.9 180.15 L250.85 180.2 250.0 181.8 247.35 174.15 250.9 180.15 M243.4 187.15 L245.1 191.8 244.4 193.35 Q241.9 196.3 238.75 195.35 L237.95 194.4 237.35 193.75 238.05 193.85 Q241.45 194.0 244.15 190.95 243.95 188.85 243.4 187.15 M281.25 241.7 L284.4 249.35 281.25 241.7" fill="#849f9f" fill-rule="evenodd" stroke="none"/>
    <path d="M290.4 159.55 Q284.95 153.15 281.2 150.15 L280.25 149.5 Q274.5 145.15 268.45 145.15 L266.4 145.35 270.95 143.8 271.65 143.75 Q277.7 143.75 283.45 148.1 L284.4 148.75 Q288.15 151.7 293.6 158.1 L290.4 159.55 293.6 158.1 293.8 158.35 Q294.15 158.45 294.55 158.7 L291.7 160.25 290.6 159.75 290.4 159.55 M295.55 166.05 L295.6 165.8 Q295.9 164.3 295.0 162.8 L294.95 162.7 298.0 161.1 298.2 161.4 Q299.1 162.95 298.75 164.5 L298.75 164.65 299.75 164.85 296.9 166.35 295.55 166.05 M298.6 170.75 Q299.15 169.1 298.9 168.15 L298.6 167.55 301.85 166.25 302.1 166.75 Q302.35 167.65 301.85 169.25 L301.8 169.35 303.5 172.25 Q310.95 185.9 317.15 208.45 318.65 213.8 318.7 218.95 318.75 233.0 308.05 243.2 302.3 248.6 295.05 251.45 300.4 248.8 304.85 244.6 315.55 234.4 315.5 220.35 315.45 215.2 313.95 209.85 307.75 187.3 300.3 173.65 L298.6 170.75 301.85 169.25 298.6 170.75 M298.75 164.5 L295.6 165.8 298.75 164.5" fill="#658383" fill-rule="evenodd" stroke="none"/>
    <path d="M266.4 145.35 L268.45 145.15 Q274.5 145.15 280.25 149.5 L281.2 150.15 Q284.95 153.15 290.4 159.55 L290.6 159.75 291.7 160.25 291.65 160.3 281.8 172.1 294.25 161.95 294.9 162.65 294.95 162.7 295.0 162.8 Q295.9 164.3 295.6 165.8 L295.55 166.05 280.3 176.95 295.55 166.05 296.9 166.35 289.0 172.65 298.9 168.15 Q299.15 169.1 298.6 170.75 L281.7 178.75 280.3 176.95 278.35 174.55 275.85 171.8 274.85 170.9 Q270.4 166.95 265.55 167.05 L265.3 167.1 262.2 147.1 Q264.05 146.05 266.1 145.45 L266.4 145.35 M290.6 159.75 L278.35 174.55 290.6 159.75 M286.55 161.2 L286.6 158.65 279.65 151.4 268.95 146.6 265.85 148.6 Q278.3 150.7 286.55 161.2 M287.85 248.25 Q295.6 245.2 299.25 237.8 302.75 234.2 302.65 226.6 302.35 222.8 302.7 222.1 302.85 221.3 301.65 216.05 298.15 203.85 290.9 188.05 L290.6 187.65 286.05 179.4 300.3 173.65 Q307.75 187.3 313.95 209.85 315.45 215.2 315.5 220.35 315.55 234.4 304.85 244.6 300.4 248.8 295.05 251.45 L294.1 251.9 290.85 253.2 Q290.05 257.1 286.45 254.5 284.75 257.4 281.75 255.2 L274.4 255.5 269.95 249.1 269.85 249.0 Q274.85 250.35 280.3 250.7 L281.85 251.35 284.4 249.35 286.45 254.5 284.4 249.35 287.85 248.25 290.85 253.2 287.85 248.25 M258.8 251.35 Q244.65 243.75 237.5 231.05 235.5 227.55 234.35 224.15 L242.9 223.35 245.0 227.5 247.3 230.85 Q247.55 235.75 253.75 241.35 257.4 243.8 261.35 245.85 260.6 246.15 260.1 246.8 258.8 247.9 258.1 249.75 L258.1 249.8 258.15 249.9 258.8 251.35 M233.5 221.65 Q232.25 220.85 232.0 219.95 L241.7 219.35 242.1 220.95 233.5 221.65 M232.2 218.0 L232.6 217.25 Q231.25 216.0 231.25 214.45 L241.15 216.3 241.15 216.4 241.35 217.9 241.5 218.75 232.2 218.0 M231.8 211.9 L232.3 211.0 233.95 211.7 236.2 197.55 239.45 199.05 237.85 194.6 237.95 194.4 238.75 195.35 Q241.9 196.3 244.4 193.35 L245.1 191.8 243.4 187.15 243.35 187.0 243.3 186.85 242.75 185.6 Q242.1 184.15 241.2 183.05 L244.95 169.9 247.15 172.0 247.5 165.3 247.65 165.05 Q251.5 157.8 256.95 154.4 L256.8 153.85 Q258.4 151.0 260.55 151.15 L263.35 167.8 Q261.95 168.2 260.85 168.95 L256.95 154.4 260.85 168.95 Q255.25 172.1 251.05 179.9 L250.9 180.15 247.35 174.15 250.0 181.8 249.75 182.3 Q244.95 192.0 241.65 208.25 241.4 209.15 241.3 210.15 240.95 212.45 241.05 214.75 L241.1 215.6 231.8 211.9 M302.8 183.45 L301.8 181.95 299.75 179.4 Q297.55 181.3 296.3 183.6 294.45 186.7 294.1 190.5 L294.65 190.8 295.05 192.55 295.3 192.7 Q299.5 195.8 305.65 195.85 L306.25 195.85 308.0 195.3 306.2 187.8 302.8 183.45 M241.05 214.75 L233.95 211.7 241.05 214.75 M232.6 217.25 L241.35 217.9 232.6 217.25 M281.75 255.2 L280.3 250.7 281.75 255.2" fill="#cfdada" fill-rule="evenodd" stroke="none"/>
    <path d="M294.25 161.95 L281.8 172.1 291.65 160.3 291.7 160.25 Q293.25 160.95 294.25 161.95 M286.55 161.2 Q278.3 150.7 265.85 148.6 L268.95 146.6 279.65 151.4 286.6 158.65 286.55 161.2 M298.9 168.15 L289.0 172.65 296.9 166.35 Q298.1 166.7 298.6 167.55 L298.9 168.15 M232.0 219.95 Q231.7 219.05 232.2 218.0 L241.5 218.75 241.7 219.35 232.0 219.95 M231.25 214.45 Q231.2 213.2 231.8 211.9 L241.1 215.6 241.15 216.3 231.25 214.45 M232.3 211.0 Q232.25 207.85 233.0 204.7 241.05 164.75 256.15 151.3 257.25 147.05 260.15 148.3 L260.55 151.15 Q258.4 151.0 256.8 153.85 L256.95 154.4 Q251.5 157.8 247.65 165.05 L247.5 165.3 247.15 172.0 244.95 169.9 241.2 183.05 240.8 182.65 Q238.0 186.65 237.4 191.9 237.15 192.7 237.25 193.75 L237.35 193.75 237.95 194.4 237.85 194.6 239.45 199.05 236.2 197.55 233.95 211.7 232.3 211.0 M256.15 151.3 L256.8 153.85 256.15 151.3" fill="#e7edea" fill-rule="evenodd" stroke="none"/>
    <path d="M265.3 167.1 L265.55 167.05 Q270.4 166.95 274.85 170.9 L275.85 171.8 280.95 181.5 Q291.4 203.45 290.3 215.8 284.6 214.65 280.65 214.65 276.75 211.65 271.7 209.65 275.15 211.85 278.2 214.8 L277.2 214.9 Q275.05 215.15 273.65 215.95 L265.65 218.85 Q246.2 221.1 241.3 210.15 241.4 209.15 241.65 208.25 244.95 192.0 249.75 182.3 L250.0 181.8 Q251.45 180.4 253.1 180.0 250.55 183.3 248.55 187.7 244.95 195.2 244.4 201.7 243.75 208.05 246.5 210.0 249.3 211.9 251.1 200.75 252.8 189.4 256.15 183.75 256.95 182.2 258.05 180.9 259.4 181.75 260.95 183.3 259.9 181.1 258.7 179.95 261.2 177.0 264.2 175.6 268.9 173.25 265.5 171.85 262.25 170.3 257.15 175.2 255.55 176.7 254.2 178.5 252.65 178.75 251.05 179.9 255.25 172.1 260.85 168.95 261.95 168.2 263.35 167.8 264.2 167.3 265.3 167.1 M267.85 182.3 Q267.55 182.0 267.2 182.05 266.75 182.05 266.65 182.45 L266.5 183.35 Q266.4 183.7 266.65 184.0 L267.2 184.3 267.8 183.95 268.1 183.15 267.85 182.3 M263.3 189.45 Q264.15 188.55 264.2 187.35 264.1 186.1 263.3 185.35 262.45 184.45 261.35 184.45 260.2 184.55 259.4 185.4 258.55 186.3 258.6 187.55 258.6 188.65 259.4 189.55 260.2 190.3 261.3 190.3 262.4 190.2 263.3 189.45 M259.45 206.3 Q260.25 206.25 260.9 205.5 261.55 204.75 261.55 203.65 261.55 202.4 260.95 201.6 260.3 200.8 259.5 200.85 258.5 200.7 258.3 201.8 L257.9 203.8 Q257.75 204.8 258.2 205.55 258.5 206.1 259.45 206.3 M260.6 194.95 Q260.2 194.4 259.6 194.45 258.95 194.3 258.5 194.75 258.05 195.0 258.05 195.5 257.95 195.95 258.55 196.3 L259.6 196.6 260.55 196.5 261.0 195.8 Q260.9 195.2 260.6 194.95 M278.7 184.7 Q276.5 183.3 274.55 184.25 272.55 184.95 271.95 187.4 271.2 189.7 272.25 192.4 L273.05 193.85 Q273.75 195.1 274.95 196.0 L275.35 196.3 Q277.3 197.6 279.45 197.0 L280.45 196.55 281.7 195.15 282.3 193.8 Q282.95 191.35 282.0 188.7 280.9 185.9 278.7 184.7" fill="#7ccaff" fill-rule="evenodd" stroke="none"/>
    <path d="M254.2 178.5 Q255.55 176.7 257.15 175.2 262.25 170.3 265.5 171.85 268.9 173.25 264.2 175.6 261.2 177.0 258.7 179.95 256.75 178.0 254.2 178.5 M258.05 180.9 Q256.95 182.2 256.15 183.75 252.8 189.4 251.1 200.75 249.3 211.9 246.5 210.0 243.75 208.05 244.4 201.7 244.95 195.2 248.55 187.7 250.55 183.3 253.1 180.0 255.45 179.35 258.05 180.9" fill="#b7e2ff" fill-rule="evenodd" stroke="none"/>
    <path d="M278.7 184.7 Q280.9 185.9 282.0 188.7 282.95 191.35 282.3 193.8 L281.7 195.15 280.45 196.55 279.45 197.0 Q277.3 197.6 275.35 196.3 L274.95 196.0 Q273.75 195.1 273.05 193.85 L272.25 192.4 Q271.2 189.7 271.95 187.4 272.55 184.95 274.55 184.25 276.5 183.3 278.7 184.7" fill="#ffffff" fill-rule="evenodd" stroke="none"/>
    <path d="M267.85 182.3 L268.1 183.15 267.8 183.95 267.2 184.3 266.65 184.0 Q266.4 183.7 266.5 183.35 L266.65 182.45 Q266.75 182.05 267.2 182.05 267.55 182.0 267.85 182.3 M260.6 194.95 Q260.9 195.2 261.0 195.8 L260.55 196.5 259.6 196.6 258.55 196.3 Q257.95 195.95 258.05 195.5 258.05 195.0 258.5 194.75 258.95 194.3 259.6 194.45 260.2 194.4 260.6 194.95 M259.45 206.3 Q258.5 206.1 258.2 205.55 257.75 204.8 257.9 203.8 L258.3 201.8 Q258.5 200.7 259.5 200.85 260.3 200.8 260.95 201.6 261.55 202.4 261.55 203.65 261.55 204.75 260.9 205.5 260.25 206.25 259.45 206.3" fill="#c4e8ff" fill-rule="evenodd" stroke="none"/>
    <path d="M263.3 189.45 Q262.4 190.2 261.3 190.3 260.2 190.3 259.4 189.55 258.6 188.65 258.6 187.55 258.55 186.3 259.4 185.4 260.2 184.55 261.35 184.45 262.45 184.45 263.3 185.35 264.1 186.1 264.2 187.35 264.15 188.55 263.3 189.45" fill="#e1f3ff" fill-rule="evenodd" stroke="none"/>
    <path d="M294.65 190.8 L294.1 190.5 Q294.45 186.7 296.3 183.6 295.1 186.6 294.95 189.85 L295.0 189.8 Q300.3 193.2 305.65 191.45 L305.95 194.0 Q299.25 194.8 294.65 190.8 M278.2 214.8 Q275.15 211.85 271.7 209.65 276.75 211.65 280.65 214.65 285.15 218.1 287.85 222.8 290.8 228.0 291.15 234.6 L290.35 235.5 290.1 235.75 Q289.6 229.65 286.85 224.8 284.35 220.45 280.4 217.2 L278.2 214.8 M250.85 180.2 L250.9 180.15 251.05 179.9 Q252.65 178.75 254.2 178.5 256.75 178.0 258.7 179.95 259.9 181.1 260.95 183.3 259.4 181.75 258.05 180.9 255.45 179.35 253.1 180.0 251.45 180.4 250.0 181.8 L250.85 180.2 M243.4 187.15 Q243.95 188.85 244.15 190.95 241.45 194.0 238.05 193.85 L237.35 193.75 237.25 193.75 Q237.15 192.7 237.4 191.9 L238.6 192.25 Q240.9 192.6 243.6 190.45 L243.65 190.45 Q243.45 187.85 242.75 185.6 L243.3 186.85 243.35 187.0 243.4 187.15 M269.6 253.35 Q269.4 250.8 267.7 248.4 266.45 246.6 264.55 245.2 L264.55 245.15 Q262.95 245.3 261.7 246.0 260.8 246.25 260.1 246.8 260.6 246.15 261.35 245.85 262.8 244.75 264.85 244.35 267.95 246.2 269.85 249.0 L269.95 249.1 Q271.1 250.95 271.85 253.35 L269.6 253.35" fill="#1f94a0" fill-rule="evenodd" stroke="none"/>
    <path d="M241.3 210.15 Q246.2 221.1 265.65 218.85 L273.65 215.95 Q275.05 215.15 277.2 214.9 L278.2 214.8 280.4 217.2 Q283.5 220.95 285.8 225.6 270.65 243.6 243.95 223.2 L242.5 222.05 242.1 220.95 241.7 219.35 241.5 218.75 241.35 217.9 241.15 216.4 241.15 216.3 241.1 215.6 241.05 214.75 Q240.95 212.45 241.3 210.15 M280.65 214.65 Q284.6 214.65 290.3 215.8 289.9 218.8 288.85 221.25 L287.85 222.8 Q285.15 218.1 280.65 214.65" fill="#7de0fd" fill-rule="evenodd" stroke="none"/>
    <path d="M298.95 181.15 Q298.8 181.15 298.8 181.25 296.3 183.8 296.0 187.7 298.45 184.7 301.5 184.2 301.5 182.75 300.0 181.3 299.55 180.8 298.95 181.15 M296.3 183.6 Q297.55 181.3 299.75 179.4 L301.8 181.95 302.8 183.45 Q304.9 186.95 305.65 191.45 300.3 193.2 295.0 189.8 L294.95 189.85 Q295.1 186.6 296.3 183.6 M242.75 185.6 Q243.45 187.85 243.65 190.45 L243.6 190.45 Q240.9 192.6 238.6 192.25 L237.4 191.9 Q238.0 186.65 240.8 182.65 L241.2 183.05 Q242.1 184.15 242.75 185.6 M241.3 183.95 L241.25 183.9 241.0 183.8 Q240.75 183.75 240.55 184.15 239.6 185.25 239.7 186.35 L240.25 186.45 Q241.6 186.9 243.0 188.8 242.75 185.8 241.3 183.95 M258.15 249.9 L258.1 249.8 258.1 249.75 Q258.8 247.9 260.1 246.8 260.8 246.25 261.7 246.0 262.95 245.3 264.55 245.15 L264.55 245.2 Q266.45 246.6 267.7 248.4 269.4 250.8 269.6 253.35 263.6 253.0 258.15 249.9 M259.1 249.05 Q259.1 249.55 259.7 249.85 261.2 250.9 262.4 250.8 261.8 248.5 262.95 246.55 L263.25 246.15 262.45 246.3 Q260.1 247.0 259.15 248.9 L259.1 249.05" fill="#12ccf3" fill-rule="evenodd" stroke="none"/>
    <path d="M298.95 181.15 Q299.55 180.8 300.0 181.3 301.5 182.75 301.5 184.2 298.45 184.7 296.0 187.7 296.3 183.8 298.8 181.25 298.8 181.15 298.95 181.15 M241.3 183.95 Q242.75 185.8 243.0 188.8 241.6 186.9 240.25 186.45 L239.7 186.35 Q239.6 185.25 240.55 184.15 240.75 183.75 241.0 183.8 L241.25 183.9 241.3 183.95 M259.1 249.05 L259.15 248.9 Q260.1 247.0 262.45 246.3 L263.25 246.15 262.95 246.55 Q261.8 248.5 262.4 250.8 261.2 250.9 259.7 249.85 259.1 249.55 259.1 249.05" fill="#c5f2fc" fill-rule="evenodd" stroke="none"/>
    <path d="M291.15 234.6 Q291.65 238.25 295.6 240.6 291.4 239.85 289.75 236.85 L289.5 236.4 290.1 235.75 290.35 235.5 291.15 234.6" fill="#779595" fill-rule="evenodd" stroke="none"/>
    <path d="M290.1 235.75 L289.5 236.4 Q288.1 230.5 285.8 225.6 283.5 220.95 280.4 217.2 284.35 220.45 286.85 224.8 289.6 229.65 290.1 235.75" fill="#166a74" fill-rule="evenodd" stroke="none"/>
    <path d="M275.85 171.8 L278.35 174.55 280.3 176.95 281.7 178.75 282.1 179.4 282.55 180.0 283.05 180.6 283.5 181.3 283.65 181.5 Q286.45 185.6 289.15 191.55 291.7 197.65 294.1 205.8 L294.7 207.7 Q295.2 210.05 296.0 212.6 299.05 225.3 291.15 234.6 290.8 228.0 287.85 222.8 L288.85 221.25 Q289.9 218.8 290.3 215.8 291.4 203.45 280.95 181.5 L275.85 171.8 M289.5 236.4 Q286.65 238.9 283.4 240.7 L281.25 241.7 277.85 242.8 Q273.1 243.95 267.75 243.75 L267.35 243.7 264.5 243.0 264.15 242.9 Q253.15 238.5 247.3 230.85 L245.0 227.5 242.9 223.35 Q242.55 222.65 242.5 222.05 L243.95 223.2 Q270.65 243.6 285.8 225.6 288.1 230.5 289.5 236.4" fill="#0293bd" fill-rule="evenodd" stroke="none"/>
    <path d="M293.6 158.1 Q288.15 151.7 284.4 148.75 L283.45 148.1 Q277.7 143.75 271.65 143.75 L270.95 143.8 266.4 145.35 266.1 145.45 Q264.05 146.05 262.2 147.1 261.1 147.6 260.15 148.3 257.25 147.05 256.15 151.3 241.05 164.75 233.0 204.7 232.25 207.85 232.3 211.0 L231.8 211.9 Q231.2 213.2 231.25 214.45 231.25 216.0 232.6 217.25 L232.2 218.0 Q231.7 219.05 232.0 219.95 232.25 220.85 233.5 221.65 L234.35 224.15 Q235.5 227.55 237.5 231.05 244.65 243.75 258.8 251.35 M294.55 158.7 Q294.15 158.45 293.8 158.35 L293.6 158.1 M301.85 169.25 Q302.35 167.65 302.1 166.75 L301.85 166.25 Q301.35 165.3 300.1 164.95 L299.75 164.85 298.75 164.65 298.75 164.5 Q299.1 162.95 298.2 161.4 L298.0 161.1 297.45 160.55 Q296.45 159.55 294.9 158.85 L294.55 158.7 M301.85 169.25 L301.8 169.35 303.5 172.25 Q310.95 185.9 317.15 208.45 318.65 213.8 318.7 218.95 318.75 233.0 308.05 243.2 302.3 248.6 295.05 251.45 L294.1 251.9 290.85 253.2 Q290.05 257.1 286.45 254.5 284.75 257.4 281.75 255.2 L274.4 255.5 M273.8 255.45 L269.15 255.45 263.4 253.65 Q261.05 252.9 258.9 251.45" fill="none" stroke="#000000" stroke-linecap="round" stroke-linejoin="round" stroke-opacity="0.6" stroke-width="0.8"/>
    <path d="M266.4 145.35 L268.45 145.15 Q274.5 145.15 280.25 149.5 L281.2 150.15 Q284.95 153.15 290.4 159.55 L290.6 159.75 291.7 160.25 Q293.25 160.95 294.25 161.95 L294.9 162.65 M265.3 167.1 L265.55 167.05 Q270.4 166.95 274.85 170.9 L275.85 171.8 278.35 174.55 280.3 176.95 281.7 178.75 282.1 179.4 M295.55 166.05 L295.6 165.8 Q295.9 164.3 295.0 162.8 L294.95 162.7 M298.6 170.75 Q299.15 169.1 298.9 168.15 L298.6 167.55 Q298.1 166.7 296.9 166.35 L295.55 166.05 M282.55 180.0 L283.05 180.6 283.5 181.3 283.65 181.5 Q286.45 185.6 289.15 191.55 291.7 197.65 294.1 205.8 L294.7 207.7 Q295.2 210.05 296.0 212.6 299.05 225.3 291.15 234.6 L290.35 235.5 290.1 235.75 289.5 236.4 Q286.65 238.9 283.4 240.7 L281.25 241.7 277.85 242.8 Q273.1 243.95 267.75 243.75 M300.3 173.65 L298.6 170.75 M258.9 251.45 L258.8 251.35 M260.85 168.95 Q261.95 168.2 263.35 167.8 264.2 167.3 265.3 167.1 M249.75 182.3 Q244.95 192.0 241.65 208.25 241.4 209.15 241.3 210.15 240.95 212.45 241.05 214.75 L241.1 215.6 241.15 216.3 M242.5 222.05 Q242.55 222.65 242.9 223.35 L245.0 227.5 247.3 230.85 Q253.15 238.5 264.15 242.9 M250.0 181.8 L250.85 180.2 M251.05 179.9 Q255.25 172.1 260.85 168.95 M241.35 217.9 L241.15 216.4 M241.5 218.75 L241.35 217.9 M241.7 219.35 L241.5 218.75 M242.5 222.05 L242.1 220.95 241.7 219.35 M274.4 255.5 L273.95 255.5 M300.3 173.65 Q307.75 187.3 313.95 209.85 315.45 215.2 315.5 220.35 315.55 234.4 304.85 244.6 300.4 248.8 295.05 251.45" fill="none" stroke="#000000" stroke-linecap="round" stroke-linejoin="round" stroke-opacity="0.3019608" stroke-width="0.6000000000000001"/>
    <path d="M290.4 159.55 L293.6 158.1 M278.35 174.55 L290.6 159.75 M280.3 176.95 L295.55 166.05 M281.7 178.75 L298.6 170.75 301.85 169.25 M283.4 240.7 L287.85 248.25 290.85 253.2 M295.6 165.8 L298.75 164.5 M256.8 153.85 L256.95 154.4 260.85 168.95 M263.35 167.8 L260.55 151.15 260.15 148.3 M256.8 153.85 L256.15 151.3 M264.15 242.9 L264.5 243.0 267.35 243.7 267.75 243.75 M233.95 211.7 L241.05 214.75 M233.95 211.7 L232.3 211.0 M241.35 217.9 L232.6 217.25 M242.1 220.95 L233.5 221.65 M284.4 249.35 L281.25 241.7 M280.3 250.7 L281.75 255.2 M284.4 249.35 L286.45 254.5 M280.3 250.7 L277.85 242.8" fill="none" stroke="#000000" stroke-linecap="round" stroke-linejoin="round" stroke-opacity="0.3019608" stroke-width="0.6000000000000001"/>
    <path d="M258.7 179.95 Q259.9 181.1 260.95 183.3 M251.05 179.9 Q252.65 178.75 254.2 178.5" fill="none" stroke="#b7e2ff" stroke-linecap="round" stroke-linejoin="round" stroke-width="0.6000000000000001"/>
    <path d="M273.95 255.5 L273.8 255.45" fill="none" stroke="#000000" stroke-linecap="round" stroke-linejoin="round" stroke-opacity="0.6" stroke-width="0.6000000000000001"/>
    <path d="M291.15 234.6 Q291.65 238.25 295.6 240.6 M250.9 180.15 L247.35 174.15" fill="none" stroke="#e7edea" stroke-linecap="round" stroke-linejoin="round" stroke-width="0.6000000000000001"/>
    <path d="M254.2 178.5 Q256.75 178.0 258.7 179.95" fill="none" stroke="#e1f3ff" stroke-linecap="round" stroke-linejoin="round" stroke-width="0.6000000000000001"/>
    <path d="M271.7 209.65 Q276.75 211.65 280.65 214.65 285.15 218.1 287.85 222.8 290.8 228.0 291.15 234.6" fill="none" stroke="#b7e2ff" stroke-linecap="round" stroke-linejoin="round" stroke-width="0.6000000000000001"/>
  </g>
</svg>
