<?xml version="1.0" encoding="UTF-8" standalone="no"?>
<svg xmlns:xlink="http://www.w3.org/1999/xlink" height="111.35px" width="109.85px" xmlns="http://www.w3.org/2000/svg">
  <g transform="matrix(1.0, 0.0, 0.0, 1.0, -220.05, -144.3)">
    <path d="M264.6 151.05 L264.65 145.55 266.95 145.2 272.4 144.5 272.4 145.1 267.0 146.7 267.05 150.8 264.6 151.05 M272.45 158.3 L272.45 159.2 266.8 161.05 266.3 163.2 264.7 163.5 264.65 159.1 270.65 158.5 272.45 158.3 M291.7 168.3 L294.5 165.35 300.85 170.8 300.35 171.4 294.4 169.15 293.45 169.6 291.7 168.3 M301.1 158.5 L305.6 153.85 307.7 155.45 312.3 159.35 311.55 160.05 306.75 158.3 306.25 158.2 305.4 157.75 305.3 157.9 303.1 160.25 301.1 158.5 M308.25 192.85 L312.2 192.8 312.2 195.55 308.5 195.15 308.25 192.85 M322.45 192.6 L329.55 192.55 329.6 195.45 329.7 197.8 324.75 197.35 324.65 197.35 322.85 201.65 322.55 201.7 322.55 199.95 322.55 199.75 322.5 195.45 322.45 192.6 M313.9 236.5 L314.85 237.5 310.3 241.35 308.15 243.15 299.95 234.8 302.0 233.05 302.65 232.45 302.8 232.3 307.1 235.9 307.25 236.05 309.85 238.05 313.9 236.5 M272.85 255.4 L267.7 254.65 265.2 254.3 265.2 244.45 267.65 244.75 268.7 244.85 268.75 244.85 268.95 249.7 269.15 253.0 272.85 255.4 M265.1 235.9 L265.1 235.4 265.45 235.5 267.15 235.85 267.2 236.1 265.1 235.9 M246.3 226.2 L246.2 226.3 241.35 220.75 242.2 219.8 245.3 223.8 246.3 226.2 M235.75 236.9 L235.25 237.5 232.0 233.75 230.6 231.85 236.3 226.0 237.75 227.8 237.9 227.95 236.1 231.7 236.0 231.9 234.95 234.15 235.75 236.9 M221.2 201.2 L220.25 201.25 220.25 196.55 220.25 194.3 227.9 194.15 227.9 196.45 227.9 197.9 224.2 198.5 221.6 198.95 221.2 201.2 M234.8 194.1 L236.4 194.0 Q236.15 195.25 236.2 196.7 L234.75 197.05 234.75 196.9 234.8 194.1 M234.8 168.45 L231.6 165.15 233.0 163.5 236.15 159.6 239.45 162.85 239.1 163.35 236.4 162.3 233.7 164.15 233.0 163.5 233.7 164.15 236.2 166.7 234.8 168.45 M244.45 167.85 L248.4 171.75 247.7 172.4 242.65 169.95 244.45 167.85 M266.0 147.3 L266.0 148.3 266.0 147.3 M266.95 145.2 L267.0 146.7 266.95 145.2 M233.55 165.35 L234.05 165.9 233.55 165.35 M224.5 195.6 L223.75 195.55 224.5 195.6 M224.2 197.65 L224.2 198.5 224.2 197.65 M220.25 196.55 L227.9 196.45 220.25 196.55 M232.0 233.75 L237.75 227.8 232.0 233.75 M234.65 229.75 L234.1 230.25 234.65 229.75 M305.1 156.5 L304.35 157.25 305.1 156.5 M307.7 155.45 L305.4 157.75 307.7 155.45 M327.0 194.15 L325.75 194.15 327.0 194.15 M326.45 196.25 L326.4 196.9 326.45 196.25 M329.6 195.45 L322.5 195.45 329.6 195.45 M310.3 241.35 L302.0 233.05 310.3 241.35 M304.9 237.35 L305.5 238.15 304.9 237.35 M266.75 248.95 L266.65 249.9 266.75 248.95 M267.7 254.65 L267.65 244.75 267.7 254.65" fill="#d6d6d6" fill-rule="evenodd" stroke="none"/>
    <path d="M312.2 192.8 Q314.65 193.55 316.8 192.8 L322.45 192.6 322.5 195.45 322.55 199.75 Q319.85 200.8 316.9 197.45 L316.8 192.8 316.9 197.45 Q314.5 199.4 312.2 195.7 L312.2 195.55 312.2 192.8 M300.25 223.45 Q301.45 224.95 303.45 226.25 304.25 228.0 306.5 229.2 L302.8 232.3 302.65 232.45 Q301.0 231.7 300.8 228.65 299.0 227.5 298.5 225.3 L300.25 223.45 M265.2 244.45 Q265.9 242.65 265.1 241.0 265.7 238.4 265.1 235.9 L267.2 236.1 Q269.7 239.4 268.1 241.3 270.0 242.95 268.7 244.85 L267.65 244.75 265.2 244.45 M227.9 194.15 L230.7 194.05 Q232.7 194.65 234.8 194.1 L234.75 196.9 Q232.65 199.05 230.7 197.55 229.25 198.8 227.9 197.95 L227.9 197.9 227.9 196.45 227.9 194.15 M239.45 162.85 L239.9 163.5 Q240.65 164.7 242.1 165.5 242.95 166.8 244.45 167.85 L242.65 169.95 242.6 170.0 Q239.9 170.15 240.9 166.9 238.75 167.05 239.0 163.4 L239.1 163.35 239.45 162.85 M264.65 159.1 Q265.4 156.9 264.7 155.4 265.05 152.8 264.6 151.05 L267.05 150.8 267.25 150.75 Q270.2 152.6 269.05 154.85 L264.7 155.4 269.05 154.85 Q271.2 156.15 270.65 158.5 L264.65 159.1 M242.1 165.5 L240.9 166.9 242.1 165.5 M230.7 194.05 L230.7 197.55 230.7 194.05 M303.45 226.25 L300.8 228.65 303.45 226.25 M265.1 241.0 L268.1 241.3 265.1 241.0" fill="#928f4e" fill-rule="evenodd" stroke="none"/>
    <path d="M272.4 145.1 L272.35 150.05 267.25 150.75 267.05 150.8 267.0 146.7 272.4 145.1 M272.45 159.2 L272.4 162.75 268.95 162.9 266.3 163.2 266.8 161.05 272.45 159.2 M311.55 160.05 L307.7 163.95 303.1 160.25 305.3 157.9 305.4 157.75 306.25 158.2 306.75 158.3 311.55 160.05 M300.35 171.4 L298.15 173.6 296.15 171.75 293.45 169.6 294.4 169.15 300.35 171.4 M329.7 197.8 L329.7 201.7 322.85 201.65 324.65 197.35 324.75 197.35 329.7 197.8 M312.25 201.65 L308.75 201.65 308.75 200.3 308.75 199.25 308.5 195.15 312.2 195.55 312.2 195.7 312.25 201.65 M306.5 229.2 L313.9 236.5 309.85 238.05 307.25 236.05 307.1 235.9 302.8 232.3 306.5 229.2 M273.0 236.3 L273.0 236.65 267.2 236.1 267.15 235.85 267.55 235.9 269.4 236.1 273.0 236.3 M273.05 245.4 L273.05 255.45 272.85 255.4 269.15 253.0 268.95 249.7 268.75 244.85 273.05 245.4 M247.0 225.55 L246.3 226.2 245.3 223.8 247.0 225.55 M240.95 231.65 L235.75 236.9 234.95 234.15 236.0 231.9 236.1 231.7 237.9 227.95 240.95 231.65 M236.2 201.3 L234.75 201.3 234.75 197.1 234.75 197.05 236.2 196.7 236.1 199.4 236.2 201.3 M227.9 201.25 L221.2 201.2 221.6 198.95 224.2 198.5 227.9 197.9 227.9 197.95 227.9 201.25 M243.4 177.2 L239.65 173.4 242.6 170.0 242.65 169.95 247.7 172.4 Q246.3 173.6 245.1 175.15 L243.4 177.2 M267.7 147.5 L268.2 147.45 267.7 147.5 M239.1 163.35 L239.0 163.4 236.2 166.7 233.7 164.15 236.4 162.3 239.1 163.35 M234.8 164.4 L235.1 164.05 234.8 164.4 M269.5 249.85 L268.95 249.7 269.5 249.85" fill="#a3a3a3" fill-rule="evenodd" stroke="none"/>
    <path d="M272.35 150.05 Q271.7 152.3 272.45 154.45 272.0 156.3 272.45 158.3 L270.65 158.5 Q271.2 156.15 269.05 154.85 270.2 152.6 267.25 150.75 L272.35 150.05 M294.5 165.35 Q296.75 164.15 297.55 162.25 299.75 160.45 301.1 158.5 L303.1 160.25 307.7 163.95 Q305.25 165.25 303.95 167.7 302.2 168.85 300.85 170.8 L294.5 165.35 M322.55 201.7 Q319.65 200.85 316.95 201.7 314.65 201.1 312.25 201.65 L312.2 195.7 Q314.5 199.4 316.9 197.45 319.85 200.8 322.55 199.75 L322.55 199.95 322.55 201.7 M308.75 201.65 Q308.15 214.1 300.25 223.45 L298.5 225.3 Q299.0 227.5 300.8 228.65 301.0 231.7 302.65 232.45 L302.0 233.05 299.95 234.8 Q299.05 232.6 297.1 231.9 295.9 230.1 294.45 228.8 285.55 235.65 274.7 236.25 L273.0 234.15 Q271.65 233.2 270.45 232.8 L269.7 232.4 266.3 231.05 Q265.6 230.65 265.1 230.55 258.85 228.0 252.85 226.4 L252.3 226.2 251.65 225.7 249.15 223.3 Q246.7 220.7 245.0 217.9 L244.7 217.25 Q242.45 213.75 241.1 209.85 239.2 204.3 236.95 207.5 236.25 204.45 236.2 201.3 L236.1 199.4 236.2 196.7 Q236.15 195.25 236.4 194.0 237.65 184.65 243.4 177.2 L245.1 175.15 Q246.3 173.6 247.7 172.4 L248.4 171.75 Q250.6 169.65 253.2 168.05 L258.65 168.7 Q260.0 168.3 262.05 168.7 L264.75 168.7 271.0 168.4 272.5 168.2 281.5 166.4 Q284.5 166.9 289.05 171.05 L295.0 176.9 298.3 180.7 Q299.9 187.25 302.6 192.95 L304.15 196.0 305.3 197.9 305.65 198.45 Q307.0 200.2 308.75 200.3 L308.75 201.65 M273.0 236.65 Q272.2 238.9 273.0 241.8 272.3 243.35 273.05 245.4 L268.75 244.85 268.7 244.85 Q270.0 242.95 268.1 241.3 269.7 239.4 267.2 236.1 L273.0 236.65 M243.4 229.0 Q243.2 229.1 243.15 229.45 241.65 229.95 240.95 231.65 L237.9 227.95 237.75 227.8 236.3 226.0 Q237.75 225.4 238.35 223.85 L239.9 222.65 243.4 229.0 M234.75 201.3 Q232.8 200.6 230.7 201.25 229.3 200.65 227.9 201.25 L227.9 197.95 Q229.25 198.8 230.7 197.55 232.65 199.05 234.75 196.9 L234.75 197.05 234.75 197.1 234.75 201.3 M239.65 173.4 Q238.85 171.5 237.4 171.05 236.2 169.25 234.8 168.45 L236.2 166.7 239.0 163.4 Q238.75 167.05 240.9 166.9 L237.4 171.05 240.9 166.9 Q239.9 170.15 242.6 170.0 L239.65 173.4 M272.45 154.45 L269.05 154.85 272.45 154.45 M272.5 170.65 Q270.55 170.5 268.6 170.7 L264.75 171.25 Q258.35 172.45 253.35 176.6 251.5 178.0 249.95 179.9 L248.15 182.05 Q244.1 187.35 243.1 193.9 242.6 196.3 242.75 199.05 L242.85 201.35 242.9 201.6 Q243.3 208.7 247.2 214.55 248.35 216.35 250.0 218.2 L252.15 220.25 250.0 218.2 Q248.35 216.35 247.2 214.55 L253.75 207.8 Q255.35 213.2 258.8 213.45 L252.15 220.25 Q255.7 223.6 260.25 225.5 L260.25 225.75 260.8 225.75 260.8 225.65 Q262.7 226.35 265.05 226.85 L268.95 227.4 272.9 227.45 Q280.5 226.9 286.75 222.4 L287.85 222.4 Q291.7 222.4 295.95 220.6 296.0 220.45 296.4 220.4 296.65 220.1 297.1 219.85 299.2 218.15 300.15 215.15 L300.45 214.1 Q300.35 208.65 298.45 203.85 L298.65 201.6 298.75 198.9 Q298.75 195.85 298.2 193.0 298.75 195.85 298.75 198.9 L298.65 201.6 288.05 201.5 Q291.1 197.3 287.85 193.2 L298.2 193.0 Q297.3 188.9 295.4 185.45 L295.4 185.15 295.25 185.15 Q293.7 182.45 291.7 180.25 L289.3 177.9 Q287.35 176.0 285.4 174.8 279.5 170.95 272.5 170.65 M264.75 178.0 Q269.1 175.8 272.65 178.8 L272.6 185.15 270.6 184.7 268.7 184.7 Q266.5 184.65 264.85 185.4 L264.75 178.0 M253.15 187.2 Q254.05 182.7 259.0 182.1 L263.05 186.2 Q261.2 187.05 259.85 188.8 258.5 190.05 257.65 191.75 L253.15 187.2 M274.7 190.4 L275.4 191.1 Q276.35 192.0 277.05 193.25 274.9 193.4 273.3 194.0 L272.75 193.4 Q271.55 192.2 270.2 191.85 L268.6 191.75 267.3 191.85 Q265.55 192.1 264.5 193.55 264.0 193.9 263.65 194.55 L263.15 195.55 Q262.75 196.45 262.85 197.75 262.8 198.7 263.15 199.8 L263.9 201.15 265.85 206.8 265.65 206.65 Q264.2 206.05 263.0 205.2 L262.75 204.0 262.35 201.15 262.35 198.9 262.55 196.75 Q263.45 192.15 267.85 191.0 268.85 190.45 270.45 190.4 L273.5 190.35 274.7 190.4 M260.25 201.1 Q259.65 199.5 259.7 197.95 259.7 199.45 260.3 201.05 L260.25 201.1 M279.7 190.1 L277.95 188.2 Q276.4 186.7 274.8 185.9 L281.75 178.65 Q286.95 179.9 287.45 184.45 L280.55 191.55 279.7 190.1 M249.3 193.8 L256.95 193.7 Q256.25 195.5 256.3 197.7 256.3 199.6 256.85 201.35 L250.2 201.4 Q247.75 197.95 249.3 193.8 M230.7 201.25 L230.7 197.55 230.7 201.25 M238.35 223.85 L243.15 229.45 238.35 223.85 M285.25 208.2 L293.3 216.15 289.7 220.05 287.45 222.0 279.5 214.0 Q285.45 214.15 285.25 208.2 M272.75 216.4 L272.9 221.3 Q268.85 225.1 265.0 221.7 L264.95 215.45 Q268.35 219.6 272.75 216.4 M273.0 241.8 L268.1 241.3 273.0 241.8 M297.55 162.25 L303.95 167.7 297.55 162.25 M316.95 201.7 L316.9 197.45 316.95 201.7 M294.45 228.8 L296.65 227.05 298.5 225.3 296.65 227.05 294.45 228.8 M297.1 231.9 L300.8 228.65 297.1 231.9" fill="#55542d" fill-rule="evenodd" stroke="none"/>
    <path d="M272.4 162.75 Q282.85 162.6 291.7 168.3 L293.45 169.6 296.15 171.75 298.15 173.6 Q302.75 178.3 305.5 184.05 L305.95 185.2 306.25 185.9 306.3 187.05 306.75 187.1 Q307.65 189.8 308.25 192.85 L308.5 195.15 308.75 199.25 308.75 200.3 Q307.0 200.2 305.65 198.45 L305.3 197.9 304.15 196.0 302.6 192.95 Q299.9 187.25 298.3 180.7 L295.0 176.9 289.05 171.05 Q284.5 166.9 281.5 166.4 L272.5 168.2 271.0 168.4 264.75 168.7 262.05 168.7 Q260.0 168.3 258.65 168.7 L253.2 168.05 Q258.4 164.75 264.7 163.5 L266.3 163.2 268.95 162.9 272.4 162.75 M274.7 236.25 L273.0 236.3 269.4 236.1 267.55 235.9 267.15 235.85 265.45 235.5 265.1 235.4 Q260.75 234.55 257.05 232.75 L256.0 232.25 255.85 232.2 254.3 231.35 252.15 229.95 252.15 229.3 251.1 229.25 247.0 225.55 245.3 223.8 242.2 219.8 Q238.35 214.05 236.95 207.5 239.2 204.3 241.1 209.85 242.45 213.75 244.7 217.25 L245.0 217.9 Q246.7 220.7 249.15 223.3 L251.65 225.7 252.3 226.2 252.85 226.4 Q258.85 228.0 265.1 230.55 265.6 230.65 266.3 231.05 L269.7 232.4 270.45 232.8 Q271.65 233.2 273.0 234.15 L274.7 236.25 M298.45 203.85 Q300.35 208.65 300.45 214.1 L300.15 215.15 Q299.2 218.15 297.1 219.85 296.65 220.1 296.4 220.4 296.0 220.45 295.95 220.6 291.7 222.4 287.85 222.4 L286.75 222.4 Q286.95 222.1 287.45 222.0 L289.7 220.05 293.3 216.15 Q297.4 210.65 298.45 203.85 M273.7 200.85 L272.65 198.85 274.55 198.9 273.7 200.85 M265.55 198.95 L265.45 199.0 265.55 198.95 266.45 200.4 266.25 200.15 265.45 199.0 265.3 198.5 265.55 198.95" fill="#7a7941" fill-rule="evenodd" stroke="none"/>
    <path d="M246.2 226.3 Q244.5 227.15 243.4 229.0 L239.9 222.65 241.35 220.75 246.2 226.3 M264.75 171.25 L268.6 170.7 Q270.55 170.5 272.5 170.65 L272.65 178.8 Q269.1 175.8 264.75 178.0 L264.75 171.25 M285.4 174.8 Q287.35 176.0 289.3 177.9 L291.7 180.25 287.45 184.45 Q286.95 179.9 281.75 178.65 L285.4 174.8 M272.9 227.45 L268.95 227.4 265.05 226.85 265.0 221.7 Q268.85 225.1 272.9 221.3 L272.9 227.45 M242.85 201.35 L242.75 199.05 Q242.6 196.3 243.1 193.9 L249.3 193.8 Q247.75 197.95 250.2 201.4 L242.85 201.35 M248.15 182.05 L249.95 179.9 Q251.5 178.0 253.35 176.6 L259.0 182.1 Q254.05 182.7 253.15 187.2 L248.15 182.05 M262.25 204.55 L262.25 204.5 262.15 204.4 Q260.7 202.85 260.25 201.1 L260.3 201.05 Q260.8 202.75 262.25 204.25 L262.3 204.3 Q262.35 204.25 262.4 204.35 L262.25 204.55 M281.25 193.25 L287.85 193.2 Q291.1 197.3 288.05 201.5 L281.4 201.5 281.45 201.35 282.0 197.6 Q281.9 195.3 281.25 193.25 M272.65 198.85 L273.7 200.85 272.85 201.95 Q271.05 203.65 268.65 203.7 L267.9 203.65 266.45 200.4 Q267.2 201.05 268.5 201.2 269.9 201.15 270.9 200.25 271.85 199.2 271.85 197.85 L271.65 196.6 272.65 198.85 M280.6 203.6 L285.25 208.2 Q285.45 214.15 279.5 214.0 L274.9 209.35 278.05 207.05 Q279.65 205.45 280.6 203.6 M272.75 210.15 L272.75 216.4 Q268.35 219.6 264.95 215.45 L264.95 210.0 268.8 210.65 271.25 210.55 272.75 210.15 M258.8 213.45 Q255.35 213.2 253.75 207.8 L257.75 203.7 Q258.5 205.25 259.9 206.65 261.15 207.85 262.6 208.85 L263.05 209.2 258.8 213.45" fill="#3e3d20" fill-rule="evenodd" stroke="none"/>
    <path d="M263.05 186.2 Q263.8 185.65 264.85 185.4 266.5 184.65 268.7 184.7 L270.6 184.7 272.6 185.15 Q273.25 185.2 274.05 185.6 L274.8 185.9 Q276.4 186.7 277.95 188.2 L279.7 190.1 280.55 191.55 281.25 193.25 Q281.9 195.3 282.0 197.6 L281.45 201.35 281.4 201.5 280.6 203.6 Q279.65 205.45 278.05 207.05 L274.9 209.35 272.75 210.15 271.25 210.55 268.8 210.65 264.95 210.0 263.05 209.2 262.6 208.85 Q261.15 207.85 259.9 206.65 258.5 205.25 257.75 203.7 L256.85 201.35 Q256.3 199.6 256.3 197.7 256.25 195.5 256.95 193.7 257.1 192.6 257.65 191.75 258.5 190.05 259.85 188.8 261.2 187.05 263.05 186.2 M274.7 190.4 L273.5 189.6 271.9 188.9 Q270.4 188.35 268.9 188.55 L268.7 188.6 265.85 189.0 Q264.15 189.5 262.85 190.8 264.15 189.45 265.75 188.85 267.0 188.25 268.7 188.25 266.95 188.2 265.7 188.8 263.8 189.45 262.35 191.1 L262.25 191.15 Q260.85 192.5 260.25 194.35 259.65 195.8 259.7 197.75 L259.7 197.95 Q259.65 199.5 260.25 201.1 260.7 202.85 262.15 204.4 L262.25 204.5 262.25 204.55 263.0 205.2 Q264.2 206.05 265.65 206.65 L265.85 206.8 266.55 206.95 268.0 207.25 Q268.05 207.1 268.2 207.25 L268.75 207.25 268.95 207.3 272.3 206.75 Q273.95 205.95 275.4 204.65 277.05 202.9 277.75 200.85 L277.85 200.55 278.1 199.35 278.15 197.85 278.15 197.5 277.95 195.65 277.6 194.5 277.05 193.25 Q276.35 192.0 275.4 191.1 L274.7 190.4" fill="#ffe243" fill-rule="evenodd" stroke="none"/>
    <path d="M259.7 197.95 L259.7 197.75 Q259.65 195.8 260.25 194.35 260.85 192.5 262.25 191.15 L262.35 191.1 Q263.8 189.45 265.7 188.8 266.95 188.2 268.7 188.25 267.0 188.25 265.75 188.85 264.15 189.45 262.85 190.8 264.15 189.5 265.85 189.0 L268.7 188.6 268.9 188.55 Q270.4 188.35 271.9 188.9 L273.5 189.6 274.7 190.4 273.5 190.35 270.45 190.4 Q268.85 190.45 267.85 191.0 263.45 192.15 262.55 196.75 L262.35 198.9 262.35 201.15 262.75 204.0 263.0 205.2 262.25 204.55 262.4 204.35 Q262.35 204.25 262.3 204.3 L262.25 204.25 Q260.8 202.75 260.3 201.05 259.7 199.45 259.7 197.95 M277.85 200.55 L277.75 200.85 Q277.05 202.9 275.4 204.65 273.95 205.95 272.3 206.75 L268.95 207.3 268.75 207.25 268.2 207.25 Q268.05 207.1 268.0 207.25 L266.55 206.95 265.85 206.8 263.9 201.15 264.5 201.9 264.6 202.0 Q265.9 203.4 267.9 203.65 L268.65 203.7 Q271.05 203.65 272.85 201.95 L273.7 200.85 274.55 198.9 274.55 197.7 274.4 196.35 277.85 200.55 M262.85 190.8 L262.35 191.1 262.85 190.8" fill="#292916" fill-rule="evenodd" stroke="none"/>
    <path d="M277.05 193.25 L277.6 194.5 277.95 195.65 278.15 197.5 278.15 197.85 278.1 199.35 277.85 200.55 274.4 196.35 273.8 194.7 273.3 194.0 Q274.9 193.4 277.05 193.25" fill="#72713d" fill-rule="evenodd" stroke="none"/>
    <path d="M263.9 201.15 L263.15 199.8 Q262.8 198.7 262.85 197.75 262.75 196.45 263.15 195.55 L263.65 194.55 Q264.0 193.9 264.5 193.55 265.55 192.1 267.3 191.85 L268.6 191.75 270.2 191.85 Q271.55 192.2 272.75 193.4 L273.3 194.0 273.8 194.7 274.4 196.35 274.55 197.7 274.55 198.9 272.65 198.85 271.65 196.6 271.6 196.55 271.55 196.45 271.55 196.4 271.25 195.9 270.85 195.45 270.4 195.05 Q269.4 194.4 268.5 194.45 267.05 194.45 266.15 195.5 265.15 196.4 265.25 197.8 L265.25 197.95 265.3 198.5 265.45 199.0 266.25 200.15 266.45 200.4 267.9 203.65 Q265.9 203.4 264.6 202.0 L264.5 201.9 263.9 201.15 M270.2 191.85 L269.6 194.1 270.2 191.85 M263.15 199.8 L264.05 199.6 263.15 199.8 M263.15 195.55 L264.45 196.05 263.15 195.55 M263.65 194.55 L264.85 195.2 263.65 194.55 M267.3 191.85 L267.5 193.5 267.3 191.85 M264.6 202.0 L265.85 200.9 264.6 202.0 M273.8 194.7 L272.45 195.6 273.8 194.7" fill="#969450" fill-rule="evenodd" stroke="none"/>
    <path d="M265.3 198.5 L265.25 197.95 265.25 197.8 Q265.15 196.4 266.15 195.5 267.05 194.45 268.5 194.45 269.4 194.4 270.4 195.05 L270.85 195.45 271.25 195.9 Q269.6 201.0 265.55 198.95 L265.3 198.5" fill="#b3b06f" fill-rule="evenodd" stroke="none"/>
    <path d="M271.65 196.6 L271.85 197.85 Q271.85 199.2 270.9 200.25 269.9 201.15 268.5 201.2 267.2 201.05 266.45 200.4 L265.55 198.95 Q269.6 201.0 271.25 195.9 L271.55 196.4 271.55 196.45 271.6 196.55 271.65 196.6" fill="#616032" fill-rule="evenodd" stroke="none"/>
    <path d="M264.6 151.05 L264.65 145.55 266.95 145.2 272.4 144.5 272.4 145.1 272.35 150.05 Q271.7 152.3 272.45 154.45 272.0 156.3 272.45 158.3 L272.45 159.2 272.4 162.75 M291.7 168.3 L294.5 165.35 Q296.75 164.15 297.55 162.25 299.75 160.45 301.1 158.5 L305.6 153.85 307.7 155.45 312.3 159.35 311.55 160.05 307.7 163.95 Q305.25 165.25 303.95 167.7 302.2 168.85 300.85 170.8 L300.35 171.4 298.15 173.6 M308.25 192.85 L312.2 192.8 Q314.65 193.55 316.8 192.8 L322.45 192.6 329.55 192.55 329.6 195.45 329.7 197.8 329.7 201.7 322.85 201.65 322.55 201.7 Q319.65 200.85 316.95 201.7 314.65 201.1 312.25 201.65 L308.75 201.65 M300.25 223.45 Q301.45 224.95 303.45 226.25 304.25 228.0 306.5 229.2 L313.9 236.5 314.85 237.5 310.3 241.35 308.15 243.15 299.95 234.8 Q299.05 232.6 297.1 231.9 295.9 230.1 294.45 228.8 M273.0 236.3 L273.0 236.65 Q272.2 238.9 273.0 241.8 272.3 243.35 273.05 245.4 L273.05 255.45 272.85 255.4 267.7 254.65 265.2 254.3 265.2 244.45 Q265.9 242.65 265.1 241.0 265.7 238.4 265.1 235.9 L265.1 235.4 M247.0 225.55 L246.3 226.2 246.2 226.3 Q244.5 227.15 243.4 229.0 243.2 229.1 243.15 229.45 241.65 229.95 240.95 231.65 L235.75 236.9 235.25 237.5 232.0 233.75 230.6 231.85 236.3 226.0 Q237.75 225.4 238.35 223.85 L239.9 222.65 241.35 220.75 242.2 219.8 M236.2 201.3 L234.75 201.3 Q232.8 200.6 230.7 201.25 229.3 200.65 227.9 201.25 L221.2 201.2 220.25 201.25 220.25 196.55 220.25 194.3 227.9 194.15 230.7 194.05 Q232.7 194.65 234.8 194.1 L236.4 194.0 M243.4 177.2 L239.65 173.4 Q238.85 171.5 237.4 171.05 236.2 169.25 234.8 168.45 L231.6 165.15 233.0 163.5 236.15 159.6 239.45 162.85 239.9 163.5 Q240.65 164.7 242.1 165.5 242.95 166.8 244.45 167.85 L248.4 171.75 M264.7 163.5 L264.65 159.1 Q265.4 156.9 264.7 155.4 265.05 152.8 264.6 151.05 L267.05 150.8 267.0 146.7 266.95 145.2 M266.0 148.3 L266.0 147.3 M267.25 150.75 L267.05 150.8 M268.2 147.45 L267.7 147.5 M272.35 150.05 L267.25 150.75 M269.05 154.85 L272.45 154.45 M272.45 158.3 L270.65 158.5 264.65 159.1 M269.05 154.85 L264.7 155.4 M264.75 171.25 L264.75 178.0 264.85 185.4 M272.65 178.8 L272.5 170.65 M259.0 182.1 L253.35 176.6 M272.6 185.15 L272.65 178.8 M263.05 186.2 L259.0 182.1 M280.55 191.55 L287.45 184.45 291.7 180.25 M281.75 178.65 L274.8 185.9 M281.75 178.65 L285.4 174.8 M233.7 164.15 L233.0 163.5 M239.1 163.35 L239.0 163.4 236.2 166.7 233.7 164.15 M240.9 166.9 L242.1 165.5 M239.1 163.35 L239.45 162.85 M242.65 169.95 L242.6 170.0 239.65 173.4 M244.45 167.85 L242.65 169.95 M234.05 165.9 L233.55 165.35 M236.2 166.7 L234.8 168.45 M240.9 166.9 L237.4 171.05 M235.1 164.05 L234.8 164.4 M243.1 193.9 L249.3 193.8 256.95 193.7 M257.65 191.75 L253.15 187.2 248.15 182.05 M234.75 201.3 L234.75 197.1 M234.75 197.05 L234.75 196.9 234.8 194.1 M230.7 197.55 L230.7 201.25 M250.2 201.4 L242.85 201.35 M250.2 201.4 L256.85 201.35 M224.2 198.5 L224.2 197.65 M223.75 195.55 L224.5 195.6 M227.9 197.9 L227.9 196.45 220.25 196.55 M230.7 197.55 L230.7 194.05 M227.9 201.25 L227.9 197.95 227.9 197.9 M227.9 196.45 L227.9 194.15 M237.9 227.95 L237.75 227.8 232.0 233.75 M240.95 231.65 L237.9 227.95 M236.1 231.7 L236.0 231.9 M234.1 230.25 L234.65 229.75 M246.2 226.3 L241.35 220.75 M237.75 227.8 L236.3 226.0 M243.15 229.45 L238.35 223.85 M281.25 193.25 L287.85 193.2 298.2 193.0 M281.4 201.5 L288.05 201.5 298.65 201.6 M280.6 203.6 L285.25 208.2 293.3 216.15 M272.75 210.15 L272.75 216.4 272.9 221.3 272.9 227.45 M274.9 209.35 L279.5 214.0 287.45 222.0 M260.25 201.1 L260.3 201.05 M258.8 213.45 L263.05 209.2 M257.75 203.7 L253.75 207.8 247.2 214.55 M264.95 210.0 L264.95 215.45 265.0 221.7 265.05 226.85 M267.2 236.1 L265.1 235.9 M273.0 236.65 L267.2 236.1 M268.1 241.3 L273.0 241.8 M258.8 213.45 L252.15 220.25 M305.4 157.75 L307.7 155.45 M304.35 157.25 L305.1 156.5 M307.7 163.95 L303.1 160.25 301.1 158.5 M306.25 158.2 L306.75 158.3 M303.1 160.25 L305.3 157.9 M300.85 170.8 L294.5 165.35 M303.95 167.7 L297.55 162.25 M326.4 196.9 L326.45 196.25 M325.75 194.15 L327.0 194.15 M316.9 197.45 L316.95 201.7 M316.9 197.45 L316.8 192.8 M322.55 199.75 L322.5 195.45 322.45 192.6 M322.55 201.7 L322.55 199.95 M322.5 195.45 L329.6 195.45 M312.2 195.7 L312.2 195.55 312.2 192.8 M312.2 195.7 L312.25 201.65 M300.8 228.65 L303.45 226.25 M302.65 232.45 L302.0 233.05 310.3 241.35 M302.8 232.3 L302.65 232.45 M300.8 228.65 L297.1 231.9 M302.0 233.05 L299.95 234.8 M305.5 238.15 L304.9 237.35 M307.25 236.05 L307.1 235.9 M302.8 232.3 L306.5 229.2 M266.65 249.9 L266.75 248.95 M268.7 244.85 L267.65 244.75 267.7 254.65 M268.75 244.85 L268.7 244.85 M268.1 241.3 L265.1 241.0 M268.95 249.7 L269.5 249.85 M267.65 244.75 L265.2 244.45 M273.05 245.4 L268.75 244.85" fill="none" stroke="#000000" stroke-linecap="round" stroke-linejoin="round" stroke-opacity="0.6" stroke-width="0.4"/>
    <path d="M272.4 162.75 Q282.85 162.6 291.7 168.3 L293.45 169.6 296.15 171.75 298.15 173.6 Q302.75 178.3 305.5 184.05 L305.95 185.2 306.25 185.9 M251.1 229.25 L247.0 225.55 245.3 223.8 242.2 219.8 Q238.35 214.05 236.95 207.5 236.25 204.45 236.2 201.3 L236.1 199.4 236.2 196.7 Q236.15 195.25 236.4 194.0 237.65 184.65 243.4 177.2 L245.1 175.15 Q246.3 173.6 247.7 172.4 L248.4 171.75 Q250.6 169.65 253.2 168.05 258.4 164.75 264.7 163.5 L266.3 163.2 268.95 162.9 272.4 162.75 M295.4 185.45 Q297.3 188.9 298.2 193.0 298.75 195.85 298.75 198.9 L298.65 201.6 298.45 203.85 Q297.4 210.65 293.3 216.15 L289.7 220.05 287.45 222.0 Q286.95 222.1 286.75 222.4 280.5 226.9 272.9 227.45 L268.95 227.4 265.05 226.85 Q262.7 226.35 260.8 225.65" fill="none" stroke="#989650" stroke-linecap="round" stroke-linejoin="round" stroke-width="1.0"/>
    <path d="M264.75 171.25 L268.6 170.7 Q270.55 170.5 272.5 170.65 279.5 170.95 285.4 174.8 287.35 176.0 289.3 177.9 L291.7 180.25 Q293.7 182.45 295.25 185.15 M260.25 225.5 Q255.7 223.6 252.15 220.25 L250.0 218.2 Q248.35 216.35 247.2 214.55 243.3 208.7 242.9 201.6 L242.85 201.35 242.75 199.05 Q242.6 196.3 243.1 193.9 244.1 187.35 248.15 182.05 L249.95 179.9 Q251.5 178.0 253.35 176.6 258.35 172.45 264.75 171.25" fill="none" stroke="#000000" stroke-linecap="round" stroke-linejoin="round" stroke-opacity="0.8" stroke-width="1.0"/>
    <path d="M259.7 197.95 L259.7 197.75 Q259.65 195.8 260.25 194.35 260.85 192.5 262.25 191.15 L262.35 191.1 Q263.8 189.45 265.7 188.8 266.95 188.2 268.7 188.25 267.0 188.25 265.75 188.85 264.15 189.45 262.85 190.8 264.15 189.5 265.85 189.0 L268.7 188.6 268.9 188.55 Q270.4 188.35 271.9 188.9 L273.5 189.6 274.7 190.4 M259.7 197.95 Q259.7 199.45 260.3 201.05 260.8 202.75 262.25 204.25 L262.3 204.3 Q262.35 204.25 262.4 204.35 L262.25 204.55 M279.7 190.1 L280.55 191.55 281.25 193.25 Q281.9 195.3 282.0 197.6 L281.45 201.35 281.4 201.5 280.6 203.6 Q279.65 205.45 278.05 207.05 L274.9 209.35 272.75 210.15 271.25 210.55 268.8 210.65 264.95 210.0 263.05 209.2 262.6 208.85 M262.35 191.1 L262.85 190.8" fill="none" stroke="#ceaf00" stroke-linecap="round" stroke-linejoin="round" stroke-width="1.0"/>
    <path d="M263.05 186.2 Q263.8 185.65 264.85 185.4 266.5 184.65 268.7 184.7 L270.6 184.7 M277.95 195.65 L278.15 197.5 M278.1 199.35 L277.85 200.55 277.75 200.85 Q277.05 202.9 275.4 204.65 273.95 205.95 272.3 206.75 L268.95 207.3 268.75 207.25 268.2 207.25 M268.0 207.25 L266.55 206.95 M257.65 191.75 Q258.5 190.05 259.85 188.8 261.2 187.05 263.05 186.2 M274.8 185.9 Q276.4 186.7 277.95 188.2 L279.7 190.1 M274.8 185.9 L274.05 185.6 M256.95 193.7 Q257.1 192.6 257.65 191.75 M256.85 201.35 Q256.3 199.6 256.3 197.7 256.25 195.5 256.95 193.7 M262.6 208.85 Q261.15 207.85 259.9 206.65 258.5 205.25 257.75 203.7 L256.85 201.35" fill="none" stroke="#fff1a4" stroke-linecap="round" stroke-linejoin="round" stroke-width="1.0"/>
    <path d="M274.55 198.9 L272.65 198.85 M269.6 194.1 L270.2 191.85 M264.45 196.05 L263.15 195.55 M264.05 199.6 L263.15 199.8 M267.5 193.5 L267.3 191.85 M264.85 195.2 L263.65 194.55 M265.85 200.9 L264.6 202.0 M272.45 195.6 L273.8 194.7" fill="none" stroke="#3e3d20" stroke-linecap="round" stroke-linejoin="round" stroke-width="0.2"/>
    <path d="M271.65 196.6 L271.85 197.85 Q271.85 199.2 270.9 200.25 269.9 201.15 268.5 201.2 267.2 201.05 266.45 200.4 L266.25 200.15 265.45 199.0 265.3 198.5 265.25 197.95 265.25 197.8 Q265.15 196.4 266.15 195.5 267.05 194.45 268.5 194.45 269.4 194.4 270.4 195.05 L270.85 195.45 271.25 195.9 271.55 196.4 M271.55 196.45 L271.6 196.55 271.65 196.6" fill="none" stroke="#3e3d20" stroke-linecap="round" stroke-linejoin="round" stroke-width="0.4"/>
    <path d="M271.55 196.4 L271.55 196.45 M265.45 199.0 L265.55 198.95 265.3 198.5 M266.45 200.4 L265.55 198.95" fill="none" stroke="#3e3d20" stroke-linecap="round" stroke-linejoin="round" stroke-width="0.4"/>
    <path d="M306.75 187.1 Q307.65 189.8 308.25 192.85 L308.5 195.15 308.75 199.25 308.75 200.3 308.75 201.65 Q308.15 214.1 300.25 223.45 L298.5 225.3 296.65 227.05 294.45 228.8 Q285.55 235.65 274.7 236.25 L273.0 236.3 269.4 236.1 267.55 235.9 267.15 235.85 265.45 235.5 265.1 235.4 Q260.75 234.55 257.05 232.75 L256.0 232.25 255.85 232.2 254.3 231.35 252.15 229.95" fill="none" stroke="#292916" stroke-linecap="round" stroke-linejoin="round" stroke-width="1.0"/>
  </g>
</svg>
