<?xml version="1.0" encoding="UTF-8" standalone="no"?>
<svg xmlns:xlink="http://www.w3.org/1999/xlink" height="27.8px" width="24.85px" xmlns="http://www.w3.org/2000/svg">
  <g transform="matrix(1.0, 0.0, 0.0, 1.0, -262.55, -186.05)">
    <path d="M263.8 199.6 Q266.25 193.9 270.25 189.5 L272.35 187.25 272.05 188.25 274.1 187.9 273.9 189.6 273.95 189.6 273.3 191.1 273.95 189.6 274.0 189.5 276.65 187.5 277.75 190.2 278.9 188.35 280.25 188.75 280.8 188.9 280.45 186.9 Q282.5 188.05 286.3 192.4 L286.35 192.6 286.35 193.0 Q286.35 195.55 286.05 196.1 L282.05 200.7 278.15 202.5 Q275.65 204.05 274.25 204.1 270.25 204.05 267.1 202.25 L265.1 200.85 263.8 199.6 M267.25 201.4 L267.1 202.25 267.25 201.4 268.85 201.9 269.15 200.25 267.8 199.9 266.55 199.55 265.9 201.0 267.25 201.4 M269.0 196.85 L267.8 199.9 269.0 196.85 269.8 197.45 270.4 196.6 269.4 195.85 268.8 195.45 268.1 196.2 269.0 196.85 M270.15 195.0 L269.4 195.85 270.15 195.0 271.25 195.7 272.6 194.4 271.2 193.65 270.15 193.15 269.15 194.35 270.15 195.0 M272.4 192.25 L271.2 193.65 272.4 192.25 274.0 192.75 275.0 191.65 273.3 191.1 271.85 190.6 271.35 191.9 272.4 192.25 M284.1 193.15 L282.6 191.15 281.35 190.9 280.25 188.75 281.35 190.9 282.6 191.15 284.1 193.15" fill="#eedea8" fill-rule="evenodd" stroke="none"/>
    <path d="M267.25 201.4 L265.9 201.0 266.55 199.55 267.8 199.9 269.15 200.25 268.85 201.9 267.25 201.4 M269.0 196.85 L268.1 196.2 268.8 195.45 269.4 195.85 270.4 196.6 269.8 197.45 269.0 196.85 M270.15 195.0 L269.15 194.35 270.15 193.15 271.2 193.65 272.6 194.4 271.25 195.7 270.15 195.0 M272.4 192.25 L271.35 191.9 271.85 190.6 273.3 191.1 275.0 191.65 274.0 192.75 272.4 192.25" fill="#7d5320" fill-rule="evenodd" stroke="none"/>
    <path d="M263.8 199.6 L265.1 200.85 267.1 202.25 Q270.25 204.05 274.25 204.1 275.65 204.05 278.15 202.5 L282.05 200.7 286.05 196.1 Q286.35 195.55 286.35 193.0 L286.35 192.6 Q287.3 195.6 287.3 197.6 286.7 199.4 286.0 205.6 L285.65 206.2 285.5 206.65 285.0 207.45 284.85 207.6 282.05 211.35 Q279.25 215.9 275.5 211.75 L270.5 205.7 Q269.5 204.85 268.4 204.55 L268.15 204.5 267.2 204.35 265.2 207.1 264.7 209.55 263.05 208.35 Q262.35 205.4 262.9 202.45 L263.8 199.6 M273.95 189.6 L273.9 189.6 274.0 189.5 273.95 189.6 M285.5 206.65 L284.25 206.5 285.5 206.65 M283.15 206.4 L283.25 207.25 283.85 207.6 284.25 206.5 284.4 205.95 284.4 205.9 284.6 205.35 283.5 205.35 283.15 206.4 282.1 206.7 283.15 206.4 M280.8 207.65 L281.05 208.9 282.15 208.0 282.1 206.7 281.9 205.85 280.8 206.45 280.8 207.65 279.9 208.4 280.8 207.65 M278.85 209.25 L279.1 210.45 280.15 209.6 279.9 208.4 279.75 206.95 278.5 207.4 278.85 209.25 277.8 210.1 278.85 209.25 M268.4 204.55 L267.0 203.15 267.1 202.25 267.0 203.15 268.4 204.55 M265.3 204.45 L267.2 204.35 265.3 204.45" fill="#d0bc77" fill-rule="evenodd" stroke="none"/>
    <path d="M286.0 205.6 L286.25 207.0 285.1 208.15 284.85 207.6 285.0 207.45 285.5 206.65 286.0 205.6 M283.15 206.4 L283.5 205.35 284.6 205.35 284.4 205.9 284.4 205.95 284.25 206.5 283.85 207.6 283.25 207.25 283.15 206.4 M282.1 206.7 L282.15 208.0 281.05 208.9 280.8 207.65 280.8 206.45 281.9 205.85 282.1 206.7 M279.9 208.4 L280.15 209.6 279.1 210.45 278.85 209.25 278.5 207.4 279.75 206.95 279.9 208.4" fill="#442b11" fill-rule="evenodd" stroke="none"/>
    <path d="M272.05 188.25 L272.35 187.25 270.25 189.5 Q266.25 193.9 263.8 199.6 L262.9 202.45 Q262.35 205.4 263.05 208.35 L264.7 209.55 264.75 209.6 264.65 209.65 264.7 209.55 265.2 207.1 267.2 204.35 265.3 204.45 M273.9 189.6 L274.1 187.9 M280.45 186.9 L279.55 186.15 M280.45 186.9 Q282.5 188.05 286.3 192.4 L286.35 192.6 Q287.3 195.6 287.3 197.6 286.7 199.4 286.0 205.6 M284.85 207.6 L282.05 211.35 Q279.25 215.9 275.5 211.75 L270.5 205.7 Q269.5 204.85 268.4 204.55 L268.15 204.5 267.2 204.35 M278.9 188.35 L280.25 188.75 280.8 188.9 M276.65 187.5 L277.75 190.2 M273.9 189.6 L274.0 189.5 M285.5 206.65 L285.65 206.2 M285.5 206.65 L285.0 207.45" fill="none" stroke="#745c29" stroke-linecap="round" stroke-linejoin="round" stroke-width="0.25"/>
    <path d="M267.1 202.25 L267.25 201.4 M267.8 199.9 L269.0 196.85 M269.4 195.85 L270.15 195.0 M271.2 193.65 L272.4 192.25 M273.3 191.1 L273.95 189.6 M280.25 188.75 L281.35 190.9 282.6 191.15 284.1 193.15" fill="none" stroke="#a68a4d" stroke-linecap="round" stroke-linejoin="round" stroke-width="0.25"/>
    <path d="M274.0 189.5 L273.95 189.6 M284.25 206.5 L285.5 206.65 M283.15 206.4 L282.1 206.7 M280.8 207.65 L279.9 208.4 M278.85 209.25 L277.8 210.1 M267.1 202.25 L267.0 203.15 268.4 204.55" fill="none" stroke="#a5853a" stroke-linecap="round" stroke-linejoin="round" stroke-width="0.25"/>
    <path d="M278.1 200.9 Q278.5 200.05 279.25 199.75 L280.5 199.95 Q281.0 200.5 281.1 201.45 L280.65 203.35 279.45 204.4 Q278.7 204.6 278.25 204.15 277.65 203.65 277.65 202.7 277.6 201.7 278.1 200.9 M284.9 198.65 Q285.35 199.05 285.4 200.05 L284.95 201.7 Q284.5 202.45 283.9 202.8 283.2 203.0 282.7 202.5 282.2 202.05 282.2 201.2 282.15 200.3 282.65 199.45 283.1 198.65 283.7 198.4 284.35 198.2 284.9 198.65" fill="#241f11" fill-rule="evenodd" stroke="none"/>
  </g>
</svg>
