<?xml version="1.0" encoding="UTF-8" standalone="no"?>
<svg xmlns:xlink="http://www.w3.org/1999/xlink" height="27.8px" width="24.85px" xmlns="http://www.w3.org/2000/svg">
  <g transform="matrix(1.0, 0.0, 0.0, 1.0, -262.55, -186.05)">
    <path d="M280.8 188.9 L280.45 186.9 Q282.5 188.05 286.3 192.4 L286.35 192.6 286.35 193.0 Q286.35 195.55 286.05 196.1 L283.25 199.35 Q275.2 204.05 274.25 204.1 270.25 204.05 267.1 202.25 L267.25 201.4 267.1 202.25 265.1 200.85 263.8 199.6 Q266.25 193.9 270.25 189.5 L272.35 187.25 272.05 188.25 274.1 187.9 273.9 189.6 273.95 189.6 274.0 189.5 276.65 187.5 277.75 190.2 278.9 188.35 280.25 188.75 280.8 188.9 M284.1 193.15 L282.6 191.15 281.35 190.9 280.25 188.75 281.35 190.9 282.6 191.15 284.1 193.15 M273.3 191.1 L273.95 189.6 273.3 191.1 271.85 190.6 271.35 191.9 272.4 192.25 274.0 192.75 275.0 191.65 273.3 191.1 M271.2 193.65 L272.4 192.25 271.2 193.65 270.15 193.15 269.15 194.35 270.15 195.0 271.25 195.7 272.6 194.4 271.2 193.65 M269.4 195.85 L270.15 195.0 269.4 195.85 268.8 195.45 268.1 196.2 269.0 196.85 269.8 197.45 270.4 196.6 269.4 195.85 M267.8 199.9 L269.0 196.85 267.8 199.9 266.55 199.55 265.9 201.0 267.25 201.4 268.85 201.9 269.15 200.25 267.8 199.9" fill="#464633" fill-rule="evenodd" stroke="none"/>
    <path d="M273.9 189.6 L274.0 189.5 273.95 189.6 273.9 189.6" fill="#d0bc77" fill-rule="evenodd" stroke="none"/>
    <path d="M273.3 191.1 L275.0 191.65 274.0 192.75 272.4 192.25 271.35 191.9 271.85 190.6 273.3 191.1 M271.2 193.65 L272.6 194.4 271.25 195.7 270.15 195.0 269.15 194.35 270.15 193.15 271.2 193.65 M269.4 195.85 L270.4 196.6 269.8 197.45 269.0 196.85 268.1 196.2 268.8 195.45 269.4 195.85 M267.8 199.9 L269.15 200.25 268.85 201.9 267.25 201.4 265.9 201.0 266.55 199.55 267.8 199.9" fill="#e0cf78" fill-rule="evenodd" stroke="none"/>
    <path d="M267.1 202.25 Q270.25 204.05 274.25 204.1 275.2 204.05 283.25 199.35 L286.05 196.1 Q286.35 195.55 286.35 193.0 L286.35 192.6 Q287.3 195.6 287.3 197.6 286.7 199.4 286.0 205.6 L285.65 206.2 285.5 206.65 285.0 207.45 284.85 207.6 282.05 211.35 Q279.25 215.9 275.5 211.75 L270.5 205.7 Q269.5 204.85 268.4 204.55 L268.15 204.5 267.2 204.35 265.2 207.1 264.7 209.55 263.05 208.35 Q262.35 205.4 262.9 202.45 L263.8 199.6 265.1 200.85 267.1 202.25 267.0 203.15 268.4 204.55 267.0 203.15 267.1 202.25 M284.25 206.5 L284.4 205.95 284.4 205.9 284.6 205.35 283.5 205.35 283.15 206.4 282.1 206.7 283.15 206.4 283.25 207.25 283.85 207.6 284.25 206.5 285.5 206.65 284.25 206.5 M280.8 207.65 L281.05 208.9 282.15 208.0 282.1 206.7 281.9 205.85 280.8 206.45 280.8 207.65 279.9 208.4 280.8 207.65 M278.85 209.25 L279.1 210.45 280.15 209.6 279.9 208.4 279.75 206.95 278.5 207.4 278.85 209.25 277.8 210.1 278.85 209.25 M265.3 204.45 L267.2 204.35 265.3 204.45" fill="#181512" fill-rule="evenodd" stroke="none"/>
    <path d="M286.0 205.6 L286.25 207.0 285.1 208.15 284.85 207.6 285.0 207.45 285.5 206.65 286.0 205.6 M283.15 206.4 L283.5 205.35 284.6 205.35 284.4 205.9 284.4 205.95 284.25 206.5 283.85 207.6 283.25 207.25 283.15 206.4 M282.1 206.7 L282.15 208.0 281.05 208.9 280.8 207.65 280.8 206.45 281.9 205.85 282.1 206.7 M279.9 208.4 L280.15 209.6 279.1 210.45 278.85 209.25 278.5 207.4 279.75 206.95 279.9 208.4" fill="#ac9b40" fill-rule="evenodd" stroke="none"/>
    <path d="M280.45 186.9 L279.55 186.15 M278.9 188.35 L280.25 188.75 280.8 188.9 M276.65 187.5 L277.75 190.2 M286.35 192.6 L286.3 192.4 Q282.5 188.05 280.45 186.9 M286.35 192.6 Q287.3 195.6 287.3 197.6 286.7 199.4 286.0 205.6 M284.85 207.6 L282.05 211.35 Q279.25 215.9 275.5 211.75 L270.5 205.7 Q269.5 204.85 268.4 204.55 L268.15 204.5 267.2 204.35 265.2 207.1 264.7 209.55 264.75 209.6 264.65 209.65 264.7 209.55 263.05 208.35 Q262.35 205.4 262.9 202.45 L263.8 199.6 Q266.25 193.9 270.25 189.5 L272.35 187.25 272.05 188.25 M274.1 187.9 L273.9 189.6 274.0 189.5 273.95 189.6 M285.5 206.65 L285.65 206.2 M285.5 206.65 L285.0 207.45 M267.2 204.35 L265.3 204.45" fill="none" stroke="#181512" stroke-linecap="round" stroke-linejoin="round" stroke-width="0.25"/>
    <path d="M280.25 188.75 L281.35 190.9 282.6 191.15 284.1 193.15 M284.25 206.5 L285.5 206.65 M280.8 207.65 L279.9 208.4 M278.85 209.25 L277.8 210.1 M282.1 206.7 L283.15 206.4 M273.95 189.6 L273.3 191.1 M272.4 192.25 L271.2 193.65 M270.15 195.0 L269.4 195.85 M269.0 196.85 L267.8 199.9 M267.25 201.4 L267.1 202.25 267.0 203.15 268.4 204.55" fill="none" stroke="#967949" stroke-linecap="round" stroke-linejoin="round" stroke-width="0.25"/>
    <path d="M284.0 198.15 Q284.45 198.0 284.85 198.35 285.35 198.8 285.4 199.7 L284.95 201.45 Q284.5 202.25 283.85 202.5 L282.7 202.3 Q282.2 201.9 282.2 201.05 282.15 200.45 282.35 199.9 L282.6 199.3 Q283.05 198.45 283.7 198.2 L284.0 198.15" fill="#9b834a" fill-rule="evenodd" stroke="none"/>
    <path d="M279.25 199.7 Q279.95 199.35 280.55 199.9 281.0 200.3 281.05 201.25 L281.05 201.35 Q281.1 202.3 280.65 203.2 280.15 204.05 279.45 204.3 L278.25 204.2 Q277.65 203.65 277.6 202.7 L277.6 202.65 Q277.6 201.7 278.1 200.85 278.5 199.95 279.25 199.7" fill="#b59755" fill-rule="evenodd" stroke="none"/>
  </g>
</svg>
