<?xml version="1.0" encoding="UTF-8" standalone="no"?>
<svg xmlns:xlink="http://www.w3.org/1999/xlink" height="97.75px" width="74.2px" xmlns="http://www.w3.org/2000/svg">
  <g transform="matrix(1.0, 0.0, 0.0, 1.0, 37.1, 48.85)">
    <path d="M-30.5 -0.5 L-30.55 -0.5 -30.5 -0.5" fill="#63030d" fill-rule="evenodd" stroke="none"/>
    <path d="M-21.1 13.15 L-21.15 13.15 -21.1 13.1 -21.1 13.15 M11.05 39.05 L11.1 39.2 9.6 39.7 11.05 39.05" fill="#c4061a" fill-rule="evenodd" stroke="none"/>
    <path d="M6.3 -7.5 L11.05 -6.3 6.2 -7.2 6.3 -7.5" fill="#630008" fill-rule="evenodd" stroke="none"/>
    <path d="M-16.6 12.15 L-18.9 11.15 -18.85 11.05 -16.6 12.15" fill="#cf035a" fill-rule="evenodd" stroke="none"/>
    <path d="M15.0 36.75 L15.2 36.75 Q15.1 36.75 15.05 36.85 L15.0 36.75" fill="#db114e" fill-rule="evenodd" stroke="none"/>
    <path d="M-18.9 11.15 L-21.65 9.75 -18.85 11.05 -18.9 11.15" fill="#4d152d" fill-rule="evenodd" stroke="none"/>
    <path d="M32.6 27.5 L31.5 29.6 28.25 32.3 27.9 32.6 25.65 34.05 23.2 35.5 22.35 35.95 19.75 37.2 16.95 38.45 16.7 38.55 13.75 39.65 11.85 40.25 8.1 41.15 7.75 41.2 4.6 41.65 4.05 41.65 3.5 41.7 4.55 41.5 7.55 40.6 7.65 40.55 9.5 39.75 9.6 39.7 11.1 39.2 16.4 37.4 16.55 37.8 Q19.95 35.75 23.4 33.75 L32.6 27.5 M-21.1 13.1 L-21.1 13.15 -21.1 13.1 M-18.05 24.8 L-20.8 22.65 -20.85 22.5 -20.9 20.8 -20.6 17.05 -20.6 16.9 -18.25 17.25 -18.3 17.5 -18.55 18.1 -18.1 24.2 -18.05 24.8" fill="#8c0010" fill-rule="evenodd" stroke="none"/>
    <path d="M-18.2 17.25 L-18.1 17.25 -18.1 17.3 -18.15 17.5 -18.15 17.55 -18.25 17.5 -18.3 17.5 -18.2 17.3 -18.2 17.25" fill="#8d0311" fill-rule="evenodd" stroke="none"/>
    <path d="M-17.6 15.4 L-17.5 15.45 -17.6 15.4 M-18.25 17.25 L-18.2 17.25 -18.2 17.3 -18.25 17.25" fill="#9d0043" fill-rule="evenodd" stroke="none"/>
    <path d="M-18.2 17.3 L-18.3 17.5 -18.25 17.25 -18.2 17.3" fill="#91003e" fill-rule="evenodd" stroke="none"/>
    <path d="M-18.1 17.25 L-18.05 17.3 -18.15 17.5 -18.1 17.3 -18.1 17.25" fill="#ff0000" fill-opacity="0.49019608" fill-rule="evenodd" stroke="none"/>
    <path d="M-18.15 17.55 L-18.3 17.5 -18.25 17.5 -18.15 17.55" fill="#75000f" fill-rule="evenodd" stroke="none"/>
    <path d="M28.05 32.75 L26.15 35.35 25.65 34.05 27.9 32.6 28.05 32.75" fill="#310c18" fill-rule="evenodd" stroke="none"/>
    <path d="M15.0 36.85 L15.0 36.75 15.05 36.85 15.0 36.85" fill="#e70463" fill-rule="evenodd" stroke="none"/>
    <path d="M21.45 6.6 L22.9 8.35 Q26.4 13.85 26.4 20.8 26.4 24.75 25.3 28.15 L17.85 34.9 17.8 34.95 17.15 35.45 Q16.7 35.75 15.2 36.75 L15.0 36.75 6.5 37.7 -0.05 36.05 -3.3 33.35 -3.35 32.55 -3.85 27.35 -2.55 20.8 -2.2 19.2 -2.45 17.5 -0.95 17.55 -1.15 19.7 Q-1.15 24.65 2.35 28.15 5.85 31.65 10.8 31.65 15.75 31.65 19.25 28.15 22.75 24.65 22.75 19.7 22.75 14.75 19.25 11.25 15.75 7.75 10.8 7.75 5.85 7.75 2.35 11.25 0.6 13.0 -0.25 15.15 L-2.85 14.8 -2.85 14.7 -3.3 11.55 -6.55 8.3 -10.6 7.3 Q-2.25 5.35 -7.4 2.95 7.45 -2.3 14.55 1.85 19.3 4.65 21.45 6.6" fill="#ff6600" fill-rule="evenodd" stroke="none"/>
    <path d="M26.15 35.35 L25.15 36.6 25.1 36.6 Q22.8 39.3 20.5 41.2 16.7 44.4 12.5 46.05 L8.95 47.2 Q5.55 48.0 1.85 48.05 -11.8 48.0 -21.45 36.6 -25.55 31.7 -27.8 26.3 -29.15 23.05 -30.05 19.25 L-30.65 15.65 -31.0 9.7 -31.0 8.95 -29.95 9.75 -29.3 10.2 -29.25 10.25 -25.7 12.25 -21.9 13.95 -21.5 14.15 -20.1 14.65 -20.6 16.9 -20.6 17.05 -20.9 20.8 -20.85 22.5 -20.8 22.65 -20.35 26.0 Q-19.0 32.5 -13.95 37.5 -7.05 44.45 2.75 44.45 6.75 44.45 10.1 43.35 L12.35 42.5 Q15.15 41.25 17.75 39.15 L19.75 37.2 22.35 35.95 23.2 35.5 25.65 34.05 26.15 35.35 M-2.55 20.8 L-3.85 27.35 -3.35 32.55 -9.0 30.25 -9.35 29.5 -18.1 24.2 -18.55 18.1 -18.3 17.5 -18.15 17.55 -18.15 17.5 -18.05 17.3 -18.1 17.25 -18.2 17.25 -17.5 15.45 -16.95 15.6 -9.5 17.05 -10.0 19.25 Q-8.15 32.5 -2.55 20.8 M-8.75 13.95 L-10.75 13.55 -16.2 12.25 -15.3 9.95 -14.35 9.35 -10.15 9.1 -8.05 10.9 -8.75 13.95" fill="#a61515" fill-rule="evenodd" stroke="none"/>
    <path d="M28.55 -30.0 L29.25 -29.1 29.4 -26.3 28.1 -25.75 28.1 -25.85 28.05 -25.8 27.4 -25.45 Q23.55 -23.25 18.75 -22.2 L9.65 -21.35 Q12.8 -21.85 15.95 -22.95 L18.2 -23.8 24.85 -25.9 27.35 -27.3 28.55 -30.0 M-31.1 8.85 L-31.2 8.75 Q-33.9 6.5 -35.1 4.05 -36.15 1.95 -36.2 -0.25 L-36.15 -0.9 -30.3 -5.1 -29.95 -5.3 -30.15 -4.15 -33.65 -0.75 -35.1 4.05 -34.75 3.8 Q-33.6 5.95 -30.6 8.1 L-28.75 9.35 -26.55 10.6 -21.15 13.15 -21.1 13.15 -21.1 13.1 -15.65 14.4 -13.65 14.85 -12.25 15.05 -2.25 16.4 -0.7 16.5 1.95 16.6 2.25 16.6 2.55 16.6 2.65 16.6 3.25 16.6 13.05 16.0 13.1 16.35 7.0 17.25 2.75 17.55 2.7 17.55 -0.3 17.6 -0.95 17.55 -2.45 17.5 -8.85 17.15 -9.5 17.05 -16.95 15.6 -17.5 15.45 -17.6 15.4 -20.1 14.65 -21.5 14.15 -21.9 13.95 -25.7 12.25 -29.25 10.25 -29.3 10.2 -29.95 9.75 -31.0 8.95 -31.1 8.85 M-3.35 32.55 L-3.3 33.35 -0.05 36.05 6.5 37.7 15.0 36.75 15.0 36.85 Q13.0 38.15 11.05 39.05 L9.6 39.7 9.5 39.75 7.65 40.55 7.55 40.6 4.55 41.5 3.5 41.7 3.5 41.75 -1.65 41.5 -9.3 38.25 -15.3 32.8 -18.0 25.15 -18.05 24.8 -18.1 24.2 -9.35 29.5 -9.0 30.25 -3.35 32.55" fill="#791111" fill-rule="evenodd" stroke="none"/>
    <path d="M3.5 41.7 L4.05 41.65 4.6 41.65 7.75 41.2 8.1 41.15 11.85 40.25 13.75 39.65 16.7 38.55 16.95 38.45 19.75 37.2 17.75 39.15 Q15.15 41.25 12.35 42.5 L10.1 43.35 Q6.75 44.45 2.75 44.45 -7.05 44.45 -13.95 37.5 -19.0 32.5 -20.35 26.0 L-20.8 22.65 -18.05 24.8 -18.0 25.15 -15.3 32.8 -9.3 38.25 -1.65 41.5 3.5 41.75 3.5 41.7 M-17.6 15.4 L-17.5 15.45 -18.2 17.25 -18.25 17.25 -20.6 16.9 -20.1 14.65 -17.6 15.4" fill="#600d0d" fill-rule="evenodd" stroke="none"/>
    <path d="M35.75 18.65 L35.05 22.8 32.6 27.5 23.4 33.75 Q19.95 35.75 16.55 37.8 L16.4 37.4 11.1 39.2 11.05 39.05 Q13.0 38.15 15.0 36.85 L15.05 36.85 Q15.1 36.75 15.2 36.75 16.7 35.75 17.15 35.45 L17.8 34.95 17.85 34.9 23.95 31.8 31.05 25.0 35.75 18.65 M24.9 -31.65 L26.55 -28.85 25.9 -28.3 22.35 -28.7 14.55 -28.25 14.5 -28.4 15.45 -28.85 19.15 -30.35 19.35 -30.2 Q20.65 -29.4 21.3 -29.9 21.75 -30.25 21.65 -31.1 L21.95 -31.2 24.85 -31.8 24.9 -31.65 M-17.25 -7.8 Q-16.9 -3.15 -15.35 2.1 L-13.95 4.1 -18.85 11.05 -21.65 9.75 Q-30.9 4.75 -30.55 -0.05 L-30.5 -0.5 Q-30.15 -2.85 -27.6 -4.5 L-27.4 -4.65 Q-26.2 -5.5 -24.25 -6.15 L-22.25 -6.75 -17.25 -7.8 M-17.35 -9.7 L-21.05 -9.4 -27.2 -8.35 -26.45 -13.7 -26.3 -14.35 -25.85 -16.2 -25.8 -16.4 -25.0 -18.8 Q-21.75 -27.95 -13.95 -33.35 -8.15 -37.4 0.25 -39.3 -5.05 -36.15 -8.75 -32.3 -16.85 -23.95 -17.35 -12.45 L-17.35 -9.7 M-0.25 15.15 Q0.6 13.0 2.35 11.25 5.85 7.75 10.8 7.75 15.75 7.75 19.25 11.25 22.75 14.75 22.75 19.7 22.75 24.65 19.25 28.15 15.75 31.65 10.8 31.65 5.85 31.65 2.35 28.15 -1.15 24.65 -1.15 19.7 L-0.95 17.55 -0.3 17.6 2.7 17.55 2.75 17.55 7.0 17.25 13.1 16.35 13.15 16.35 13.2 16.35 13.35 16.3 17.95 15.15 13.15 15.65 13.05 15.65 Q8.2 15.9 2.7 15.5 L2.65 15.5 -0.25 15.15 M-2.45 17.5 L-2.2 19.2 -2.55 20.8 Q-8.15 32.5 -10.0 19.25 L-9.5 17.05 -8.85 17.15 -2.45 17.5 M-2.85 14.7 L-7.35 14.2 -7.55 14.2 -7.7 14.15 -8.75 13.95 -8.05 10.9 -10.15 9.1 -14.35 9.35 -10.6 7.3 -6.55 8.3 -3.3 11.55 -2.85 14.7" fill="#c13513" fill-rule="evenodd" stroke="none"/>
    <path d="M36.0 17.1 L35.75 18.65 31.05 25.0 23.95 31.8 17.85 34.9 25.3 28.15 28.0 25.1 33.2 20.75 36.0 17.1" fill="#f28500" fill-rule="evenodd" stroke="none"/>
    <path d="M34.6 9.4 L34.9 9.4 36.25 15.8 36.0 17.1 33.2 20.75 28.0 25.1 30.55 21.95 33.9 16.8 33.75 17.55 34.05 16.55 34.05 16.5 34.05 16.45 34.3 15.55 34.35 14.8 34.6 9.4 M-35.95 -2.85 Q-35.15 -5.05 -32.2 -6.55 L-33.15 -4.15 -30.3 -5.1 -36.15 -0.9 -35.95 -2.85" fill="#ff910b" fill-rule="evenodd" stroke="none"/>
    <path d="M-32.2 -6.55 Q-30.9 -7.25 -29.55 -7.65 L-29.95 -5.3 -30.3 -5.1 -33.15 -4.15 -32.2 -6.55" fill="#ff9f2b" fill-rule="evenodd" stroke="none"/>
    <path d="M28.2 -30.5 L28.55 -30.0 27.35 -27.3 24.85 -25.9 18.2 -23.8 Q22.3 -25.55 25.9 -28.3 L26.55 -28.85 28.2 -30.5 M13.1 16.35 L13.05 16.0 3.25 16.6 2.65 16.6 2.55 16.6 2.25 16.6 1.95 16.6 -0.7 16.5 -2.25 16.4 -12.25 15.05 -13.65 14.85 -15.65 14.4 -21.1 13.1 -21.15 13.15 -26.55 10.6 -28.75 9.35 -30.6 8.1 Q-33.6 5.95 -34.75 3.8 L-35.1 4.05 -33.65 -0.75 -30.15 -4.15 -30.55 -0.5 -30.6 -0.1 -30.55 -0.05 Q-30.9 4.75 -21.65 9.75 L-18.9 11.15 -16.6 12.15 -16.2 12.25 -10.75 13.55 -8.75 13.95 -7.7 14.15 -7.55 14.2 -7.35 14.2 -2.85 14.7 -2.85 14.8 -0.25 15.15 2.65 15.5 2.7 15.5 Q8.2 15.9 13.05 15.65 L13.15 15.65 17.95 15.15 13.35 16.3 13.2 16.35 13.15 16.35 13.1 16.35" fill="#e9680a" fill-rule="evenodd" stroke="none"/>
    <path d="M25.1 -31.8 L25.6 -31.9 27.65 -31.25 28.2 -30.5 26.55 -28.85 24.9 -31.65 25.1 -31.8" fill="#b95309" fill-rule="evenodd" stroke="none"/>
    <path d="M28.1 -25.75 L29.55 -21.95 32.25 -11.7 32.75 -9.45 33.55 -5.2 34.2 -0.45 34.5 2.95 34.6 9.3 28.1 7.15 23.45 6.85 27.0 8.15 30.35 10.6 33.95 16.35 33.9 16.8 30.55 21.95 28.0 25.1 25.3 28.15 Q26.4 24.75 26.4 20.8 26.4 13.85 22.9 8.35 L21.45 6.6 Q6.95 -9.55 -12.05 2.7 L-13.95 4.1 -15.35 2.1 Q-16.9 -3.15 -17.25 -7.8 -7.0 -9.35 6.2 -7.2 L11.05 -6.3 6.3 -7.5 0.5 -8.55 Q-9.3 -10.15 -17.35 -9.7 L-17.35 -12.45 Q-16.85 -23.95 -8.75 -32.3 -5.05 -36.15 0.25 -39.3 -8.15 -37.4 -13.95 -33.35 -21.75 -27.95 -25.0 -18.8 L-25.8 -16.4 -25.85 -16.2 -26.3 -14.35 -26.45 -13.7 -27.2 -8.35 -29.55 -7.65 -28.75 -11.6 -27.9 -15.35 -27.4 -17.2 Q-25.3 -24.95 -23.7 -28.45 -22.65 -30.65 -20.2 -34.3 L-19.5 -35.3 Q-17.0 -38.95 -14.2 -41.55 -7.25 -48.05 1.55 -48.0 10.25 -48.05 17.2 -41.55 20.0 -38.95 22.5 -35.3 L24.85 -31.8 21.95 -31.2 21.65 -31.1 21.55 -31.85 Q21.15 -33.3 20.0 -34.85 18.85 -36.4 17.55 -37.15 16.25 -37.95 15.6 -37.5 14.95 -37.0 15.35 -35.55 15.75 -34.1 16.9 -32.55 17.95 -31.15 19.15 -30.35 L15.45 -28.85 14.5 -28.4 14.55 -28.25 22.35 -28.7 25.9 -28.3 Q22.3 -25.55 18.2 -23.8 L15.95 -22.95 Q12.8 -21.85 9.65 -21.35 L18.75 -22.2 Q23.55 -23.25 27.4 -25.45 L28.05 -25.8 28.1 -25.75 M22.55 -20.15 L23.95 -17.1 27.15 -8.2 27.5 -7.1 28.2 -4.9 29.35 -0.75 30.4 3.9 30.75 5.8 32.2 5.2 32.1 3.15 31.65 -1.65 31.0 -5.9 30.6 -8.15 30.6 -8.2 28.3 -18.5 27.2 -21.95 26.9 -21.9 26.35 -21.1 24.2 -20.7 22.45 -20.7 22.35 -20.7 22.55 -20.15 M34.05 16.55 L34.05 16.45 34.05 16.5 34.05 16.55" fill="#ff9411" fill-rule="evenodd" stroke="none"/>
    <path d="M6.2 -7.2 Q-7.0 -9.35 -17.25 -7.8 L-22.25 -6.75 -21.05 -9.4 -17.35 -9.7 Q-9.3 -10.15 0.5 -8.55 L6.3 -7.5 6.2 -7.2" fill="#a92412" fill-rule="evenodd" stroke="none"/>
    <path d="M-21.05 -9.4 L-22.25 -6.75 -24.25 -6.15 Q-26.2 -5.5 -27.4 -4.65 L-27.6 -4.5 Q-30.15 -2.85 -30.5 -0.5 L-30.55 -0.5 -30.15 -4.15 -29.95 -5.3 -29.55 -7.65 -27.2 -8.35 -21.05 -9.4" fill="#801d04" fill-rule="evenodd" stroke="none"/>
    <path d="M34.6 9.3 L34.6 9.4 34.35 14.8 34.3 15.55 34.05 16.45 34.05 16.55 33.75 17.55 33.9 16.8 33.95 16.35 30.35 10.6 27.0 8.15 23.45 6.85 28.1 7.15 34.6 9.3" fill="#9e2305" fill-rule="evenodd" stroke="none"/>
    <path d="M21.65 -31.1 Q21.75 -30.25 21.3 -29.9 20.65 -29.4 19.35 -30.2 L19.15 -30.35 Q17.95 -31.15 16.9 -32.55 15.75 -34.1 15.35 -35.55 14.95 -37.0 15.6 -37.5 16.25 -37.95 17.55 -37.15 18.85 -36.4 20.0 -34.85 21.15 -33.3 21.55 -31.85 L21.65 -31.1 M22.55 -20.15 L22.35 -20.7 22.45 -20.7 24.2 -20.7 26.35 -21.1 26.9 -21.9 27.2 -21.95 28.3 -18.5 30.6 -8.2 30.6 -8.15 31.0 -5.9 31.65 -1.65 32.1 3.15 32.2 5.2 30.75 5.8 30.4 3.9 29.35 -0.75 28.2 -4.9 27.5 -7.1 27.15 -8.2 23.95 -17.1 22.55 -20.15" fill="#ffe079" fill-rule="evenodd" stroke="none"/>
    <path d="M-13.95 4.1 L-12.05 2.7 Q6.95 -9.55 21.45 6.6 19.3 4.65 14.55 1.85 7.45 -2.3 -7.4 2.95 -2.25 5.35 -10.6 7.3 L-14.35 9.35 -15.3 9.95 -16.2 12.25 -16.6 12.15 -18.85 11.05 -13.95 4.1" fill="#ffaf2b" fill-rule="evenodd" stroke="none"/>
    <path d="M34.9 9.4 L36.25 15.8 36.0 17.1 35.75 18.65 35.05 22.8 32.6 27.5 31.5 29.6 28.25 32.3 27.9 32.6" fill="none" stroke="#5e0000" stroke-linecap="round" stroke-linejoin="round" stroke-width="1.75"/>
    <path d="M25.1 -31.8 L25.6 -31.9 27.65 -31.25 28.2 -30.5 28.55 -30.0 29.25 -29.1 29.4 -26.3 28.1 -25.75 29.55 -21.95 32.25 -11.7 32.75 -9.45 33.55 -5.2 34.2 -0.45 34.5 2.95 34.6 9.3 M28.25 32.3 L28.05 32.75 26.15 35.35 25.15 36.6 25.1 36.6 Q22.8 39.3 20.5 41.2 16.7 44.4 12.5 46.05 L8.95 47.2 Q5.55 48.0 1.85 48.05 -11.8 48.0 -21.45 36.6 -25.55 31.7 -27.8 26.3 -29.15 23.05 -30.05 19.25 L-30.65 15.65 -31.1 9.7 -31.1 8.85 -31.2 8.75 Q-33.9 6.5 -35.1 4.05 -36.15 1.95 -36.2 -0.25 L-36.25 -0.85 -36.2 -1.85 -35.95 -2.85 Q-35.15 -5.05 -32.2 -6.55 -30.9 -7.25 -29.55 -7.65 L-28.75 -11.6 -27.9 -15.35 -27.4 -17.2 Q-25.3 -24.95 -23.7 -28.45 -22.65 -30.65 -20.2 -34.3 L-19.5 -35.3 Q-17.0 -38.95 -14.2 -41.55 -7.25 -48.05 1.55 -48.0 10.25 -48.05 17.2 -41.55 20.0 -38.95 22.5 -35.3 L24.85 -31.8 25.1 -31.8 M28.1 -25.85 L28.1 -25.75 M-36.15 -0.9 L-36.2 -0.25 M-36.15 -0.9 L-35.95 -2.85 M-30.65 15.65 L-31.0 9.7 -31.0 8.95 -31.1 8.85" fill="none" stroke="#940b0b" stroke-linecap="round" stroke-linejoin="round" stroke-width="1.75"/>
  </g>
</svg>
