<?xml version="1.0" encoding="UTF-8" standalone="no"?>
<svg xmlns:xlink="http://www.w3.org/1999/xlink" height="37.8px" width="39.0px" xmlns="http://www.w3.org/2000/svg">
  <g transform="matrix(1.0, 0.0, 0.0, 1.0, -254.35, -190.3)">
    <path d="M287.05 217.45 Q286.1 212.3 283.3 208.35 279.35 202.7 273.95 202.85 268.55 202.95 264.85 208.75 262.25 212.85 261.55 218.05 261.2 215.85 261.15 213.45 260.95 205.4 264.65 199.65 268.35 193.8 273.75 193.7 279.15 193.55 283.1 199.2 287.05 204.8 287.25 212.9 L287.05 217.45" fill="url(#gradient0)" fill-rule="evenodd" stroke="none"/>
    <path d="M264.0 225.4 L264.45 225.65 264.5 225.65 266.5 226.65 268.45 227.45 267.95 227.35 Q266.0 226.7 264.15 225.65 L262.8 224.85 263.35 225.1 264.0 225.4 M284.15 225.2 L284.7 224.9 285.3 224.6 284.0 225.45 280.35 227.15 279.8 227.3 283.65 225.45 283.65 225.4 284.15 225.2" fill="#8c8c8c" fill-rule="evenodd" stroke="none"/>
    <path d="M275.9 190.75 L276.6 190.3 275.9 190.75" fill="#edcd9e" fill-rule="evenodd" stroke="none"/>
    <path d="M260.25 222.35 L260.8 222.95 264.0 225.4 263.35 225.1 Q261.8 224.1 260.6 222.95 L260.25 222.35 M287.7 222.15 L287.35 222.7 284.7 224.9 284.15 225.2 Q285.85 224.1 287.2 222.75 L287.7 222.15" fill="#cccccc" fill-rule="evenodd" stroke="none"/>
    <path d="M273.25 226.95 L273.9 226.15 Q274.6 225.1 274.75 224.15 L274.75 223.75 275.2 223.65 Q277.8 223.1 278.7 222.6 L280.4 221.35 Q282.3 219.6 283.0 217.1 L282.9 217.1 283.1 216.65 283.15 216.55 Q283.5 214.95 283.35 213.45 285.6 212.05 288.75 211.5 285.9 211.85 283.0 211.5 L283.0 211.8 282.65 210.85 282.65 211.0 282.6 210.75 Q282.3 208.0 280.1 205.95 L279.45 205.45 279.5 205.4 Q279.85 203.7 280.75 202.2 279.75 203.6 278.2 204.6 L278.15 204.65 276.05 203.25 Q274.7 201.0 274.55 198.8 L274.5 198.35 274.55 198.45 274.85 196.75 275.2 196.0 275.65 195.9 276.9 196.2 278.15 197.4 278.3 198.15 278.15 199.1 Q277.5 199.95 276.65 199.25 L276.35 198.65 276.35 198.3 276.4 198.15 276.95 198.45 277.4 198.6 277.55 197.8 277.0 197.2 276.65 197.05 Q276.05 197.1 275.7 197.85 L275.5 198.45 275.5 198.6 275.55 198.8 275.8 200.2 276.65 201.25 Q277.4 202.1 277.7 201.9 279.95 200.05 279.7 197.75 L279.7 197.5 Q283.15 197.7 283.4 200.9 L283.55 202.3 Q284.1 205.35 287.1 206.4 L288.25 206.7 Q289.75 210.4 289.85 214.35 L289.6 217.2 288.0 216.2 Q285.15 217.75 285.2 220.85 286.65 221.9 288.35 220.85 L287.75 222.05 287.7 222.15 287.2 222.75 Q285.85 224.1 284.15 225.2 L283.65 225.4 283.65 225.45 281.65 226.15 Q277.5 227.25 273.25 226.95 M280.2 221.55 L280.3 221.6 Q282.15 222.2 283.7 223.35 282.3 222.05 281.5 220.2 L280.65 221.25 280.2 221.55" fill="url(#gradient1)" fill-rule="evenodd" stroke="none"/>
    <path d="M280.2 221.55 L280.65 221.25 281.5 220.2 Q282.3 222.05 283.7 223.35 282.15 222.2 280.3 221.6 L280.2 221.55" fill="url(#gradient2)" fill-rule="evenodd" stroke="none"/>
    <path d="M283.0 211.8 L283.0 211.5 Q285.9 211.85 288.75 211.5 285.6 212.05 283.35 213.45 L283.3 213.5 283.0 212.15 283.0 211.8" fill="url(#gradient3)" fill-rule="evenodd" stroke="none"/>
    <path d="M266.05 208.45 Q265.0 207.1 263.5 206.2 L266.8 207.35 266.9 207.4 Q266.4 207.75 266.05 208.45" fill="url(#gradient4)" fill-rule="evenodd" stroke="none"/>
    <path d="M265.15 211.65 Q263.1 210.45 260.95 209.85 L265.5 210.0 265.35 211.1 265.15 211.65" fill="url(#gradient5)" fill-rule="evenodd" stroke="none"/>
    <path d="M274.75 223.75 L274.8 223.65 275.2 223.65 Q274.3 220.7 270.85 218.85 L271.6 219.0 272.2 219.25 274.3 219.4 274.6 219.35 277.6 218.55 277.7 218.55 Q277.85 218.4 277.95 218.4 L278.85 217.9 279.45 217.45 279.35 217.5 Q282.05 215.75 282.65 213.1 282.85 212.0 282.65 211.0 L282.65 210.85 283.0 211.8 283.0 212.15 283.3 213.5 283.35 213.45 Q283.5 214.95 283.15 216.55 L283.1 216.65 282.9 217.1 283.0 217.1 Q282.3 219.6 280.4 221.35 L278.7 222.6 Q277.8 223.1 275.2 223.65 L274.75 223.75" fill="#bb4492" fill-rule="evenodd" stroke="none"/>
    <path d="M264.5 225.65 Q267.95 226.9 271.55 227.1 L273.25 226.95 Q277.5 227.25 281.65 226.15 L283.65 225.45 279.8 227.3 269.75 227.75 268.45 227.45 266.5 226.65 264.5 225.65" fill="#652554" fill-rule="evenodd" stroke="none"/>
    <path d="M268.5 196.75 L268.25 197.65 266.55 198.1 Q265.8 198.35 265.3 198.9 264.75 199.45 264.35 200.15 264.65 201.0 264.45 201.95 264.3 202.8 263.5 203.2 L261.35 203.4 Q258.9 207.15 258.3 211.4 257.7 215.65 258.8 219.9 L258.15 218.65 256.4 215.0 257.4 210.45 Q258.15 206.55 258.35 202.65 L258.9 201.85 Q263.2 195.8 270.5 193.9 271.9 193.95 272.4 195.05 L272.65 195.5 Q271.7 194.75 270.95 194.75 L269.8 195.0 Q268.8 195.85 268.5 196.75 M259.35 220.9 L259.55 221.1 259.85 221.65 260.15 222.2 260.2 222.3 259.7 221.5 259.35 220.9" fill="url(#gradient6)" fill-rule="evenodd" stroke="none"/>
    <path d="M279.7 197.5 Q279.75 196.25 279.15 195.65 L278.15 194.85 277.3 194.75 Q275.7 194.65 274.2 195.4 274.65 194.9 275.25 194.5 276.2 193.85 277.75 193.85 280.8 194.6 283.35 196.15 L285.05 197.5 Q287.2 199.3 288.8 201.5 289.65 203.85 289.85 206.35 290.05 209.3 290.7 212.15 L291.35 214.75 289.75 218.4 289.45 219.15 Q288.85 220.7 287.75 222.05 L288.35 220.85 Q286.65 221.9 285.2 220.85 285.15 217.75 288.0 216.2 L289.6 217.2 289.85 214.35 Q289.75 210.4 288.25 206.7 L287.1 206.4 Q284.1 205.35 283.55 202.3 L283.4 200.9 Q283.15 197.7 279.7 197.5" fill="url(#gradient7)" fill-rule="evenodd" stroke="none"/>
    <path d="M289.75 218.4 L291.35 214.75 290.7 212.15 Q290.05 209.3 289.85 206.35 289.65 203.85 288.8 201.5 L290.6 203.25 Q293.35 205.9 293.35 209.0 293.4 210.7 292.55 212.5 L289.75 218.4" fill="url(#gradient8)" fill-rule="evenodd" stroke="none"/>
    <path d="M258.35 202.65 Q258.15 206.55 257.4 210.45 L256.4 215.0 258.15 218.65 258.05 218.55 255.15 212.8 Q254.4 211.2 254.35 209.75 L254.65 210.3 254.35 209.65 Q254.1 206.35 257.1 203.45 L259.0 201.65 258.9 201.8 258.85 201.85 258.35 202.65" fill="url(#gradient9)" fill-rule="evenodd" stroke="none"/>
    <path d="M268.5 196.75 L268.75 196.5 Q269.35 195.95 270.25 195.85 L272.1 196.05 Q273.0 196.4 273.45 197.15 L272.1 196.8 Q271.1 196.75 270.25 197.15 269.4 197.55 269.0 198.5 268.65 199.3 268.8 200.25 268.9 201.2 269.85 201.85 270.8 202.45 272.45 201.65 L272.7 201.55 273.2 201.15 273.35 199.9 Q273.0 199.15 272.3 199.2 L271.2 199.55 270.85 200.15 Q270.45 199.45 270.95 198.75 272.0 197.75 273.35 198.0 L273.8 198.1 274.15 198.85 Q274.6 200.25 273.85 201.65 273.1 203.15 271.95 203.7 269.75 204.75 269.3 205.05 L268.05 205.95 267.9 206.15 267.85 206.2 266.9 207.25 266.8 207.35 263.5 206.2 Q265.0 207.1 266.05 208.45 265.65 209.2 265.5 210.0 L260.95 209.85 Q263.1 210.45 265.15 211.65 264.3 214.05 264.9 216.7 L265.15 217.65 265.1 217.7 264.95 217.95 264.1 218.95 262.55 220.2 263.3 219.85 263.8 219.6 263.85 219.6 Q264.7 219.15 265.7 218.95 L265.75 219.05 265.8 219.05 Q266.8 220.95 268.8 222.3 268.85 224.45 268.25 226.55 269.05 224.6 270.65 223.1 L274.8 223.65 274.75 223.75 274.75 224.15 Q274.6 225.1 273.9 226.15 L273.25 226.95 271.55 227.1 Q267.95 226.9 264.5 225.65 L264.45 225.65 264.0 225.4 260.8 222.95 260.25 222.35 260.2 222.3 260.15 222.2 259.95 221.8 259.55 221.1 259.35 220.9 258.8 219.9 Q257.7 215.65 258.3 211.4 258.9 207.15 261.35 203.4 L263.5 203.2 Q264.3 202.8 264.45 201.95 264.65 201.0 264.35 200.15 264.75 199.45 265.3 198.9 265.8 198.35 266.55 198.1 L268.25 197.65 268.5 196.75" fill="url(#gradient10)" fill-rule="evenodd" stroke="none"/>
    <path d="M265.7 218.95 Q264.7 219.15 263.85 219.6 L263.8 219.6 263.3 219.85 262.55 220.2 264.1 218.95 264.95 217.95 265.1 217.7 265.15 217.65 265.2 217.6 265.25 217.5 265.65 218.45 265.8 218.95 265.75 218.95 265.7 218.95" fill="url(#gradient11)" fill-rule="evenodd" stroke="none"/>
    <path d="M270.65 223.1 Q269.05 224.6 268.25 226.55 268.85 224.45 268.8 222.3 L268.8 222.25 268.8 222.15 269.35 222.5 270.8 223.0 270.65 223.1" fill="url(#gradient12)" fill-rule="evenodd" stroke="none"/>
    <path d="M278.15 204.65 L278.2 204.6 Q279.75 203.6 280.75 202.2 279.85 203.7 279.5 205.4 L279.45 205.45 279.45 205.5 279.1 205.2 279.05 205.15 278.05 204.7 278.15 204.65" fill="url(#gradient13)" fill-rule="evenodd" stroke="none"/>
    <path d="M274.8 223.65 L270.65 223.1 270.8 223.0 269.35 222.5 268.8 222.15 268.8 222.25 268.8 222.3 Q266.8 220.95 265.8 219.05 L265.85 219.05 265.7 218.55 265.65 218.45 265.25 217.5 265.2 217.6 265.15 217.65 264.9 216.7 Q264.3 214.05 265.15 211.65 L265.35 211.1 265.4 210.95 265.35 211.15 265.3 211.7 265.45 213.25 Q266.0 215.9 268.8 217.65 L268.75 217.65 269.35 218.05 270.25 218.55 271.6 219.0 270.85 218.85 Q274.3 220.7 275.2 223.65 L274.8 223.65" fill="#ebabbf" fill-rule="evenodd" stroke="none"/>
    <path d="M272.7 201.55 L272.45 201.65 M274.55 198.45 L274.5 198.35" fill="none" stroke="#000000" stroke-linecap="round" stroke-linejoin="round" stroke-opacity="0.3019608" stroke-width="0.05"/>
    <path d="M284.6 197.45 Q286.65 198.95 288.3 201.95 289.95 204.9 290.2 207.65 290.5 210.4 289.25 211.3 287.95 212.2 285.9 210.75 283.85 209.3 282.2 206.3 280.55 203.3 280.3 200.55 280.0 197.85 281.3 196.95 282.55 196.0 284.6 197.45" fill="url(#gradient14)" fill-rule="evenodd" stroke="none"/>
    <path d="M287.4 211.2 Q287.2 212.5 286.6 213.1 286.05 213.7 285.4 213.35 284.8 213.05 284.5 211.85 284.2 210.7 284.4 209.45 284.55 208.25 285.2 207.65 285.75 207.0 286.4 207.35 287.0 207.75 287.3 208.9 287.6 209.95 287.4 211.2" fill="url(#gradient15)" fill-rule="evenodd" stroke="none"/>
  </g>
  <defs>
    <linearGradient gradientTransform="matrix(0.0159, -4.0E-4, 3.0E-4, 0.0147, 274.0, 205.65)" gradientUnits="userSpaceOnUse" id="gradient0" spreadMethod="pad" x1="-819.2" x2="819.2">
      <stop offset="0.0" stop-color="#eee67d"/>
      <stop offset="0.6823529411764706" stop-color="#cf9c44"/>
      <stop offset="0.8862745098039215" stop-color="#ce9942"/>
    </linearGradient>
    <radialGradient cx="0" cy="0" gradientTransform="matrix(-0.0017, 0.0322, -0.0358, -0.0019, 280.9, 210.2)" gradientUnits="userSpaceOnUse" id="gradient1" r="819.2" spreadMethod="pad">
      <stop offset="0.16862745098039217" stop-color="#f1499e"/>
      <stop offset="0.8862745098039215" stop-color="#212121"/>
    </radialGradient>
    <linearGradient gradientTransform="matrix(0.0021, 0.0, 0.0, 0.0019, 281.95, 221.75)" gradientUnits="userSpaceOnUse" id="gradient2" spreadMethod="pad" x1="-819.2" x2="819.2">
      <stop offset="0.0" stop-color="#eee67d"/>
      <stop offset="0.6823529411764706" stop-color="#cf9c44"/>
      <stop offset="0.8862745098039215" stop-color="#ce9942"/>
    </linearGradient>
    <linearGradient gradientTransform="matrix(0.0035, 0.0, 0.0, 0.0012, 285.85, 212.5)" gradientUnits="userSpaceOnUse" id="gradient3" spreadMethod="pad" x1="-819.2" x2="819.2">
      <stop offset="0.0" stop-color="#eee67d"/>
      <stop offset="0.6823529411764706" stop-color="#cf9c44"/>
      <stop offset="0.8862745098039215" stop-color="#ce9942"/>
    </linearGradient>
    <linearGradient gradientTransform="matrix(0.0021, 0.0, 0.0, 0.0014, 265.2, 207.3)" gradientUnits="userSpaceOnUse" id="gradient4" spreadMethod="pad" x1="-819.2" x2="819.2">
      <stop offset="0.0" stop-color="#eee67d"/>
      <stop offset="0.6823529411764706" stop-color="#cf9c44"/>
      <stop offset="0.8862745098039215" stop-color="#ce9942"/>
    </linearGradient>
    <linearGradient gradientTransform="matrix(0.0028, 0.0, 0.0, 0.0011, 263.2, 210.75)" gradientUnits="userSpaceOnUse" id="gradient5" spreadMethod="pad" x1="-819.2" x2="819.2">
      <stop offset="0.0" stop-color="#eee67d"/>
      <stop offset="0.6823529411764706" stop-color="#cf9c44"/>
      <stop offset="0.8862745098039215" stop-color="#ce9942"/>
    </linearGradient>
    <radialGradient cx="0" cy="0" gradientTransform="matrix(0.0201, 0.0, 0.0, 0.0201, 264.0, 207.7)" gradientUnits="userSpaceOnUse" id="gradient6" r="819.2" spreadMethod="pad">
      <stop offset="0.0" stop-color="#f26caf"/>
      <stop offset="0.8862745098039215" stop-color="#df86b3"/>
    </radialGradient>
    <radialGradient cx="0" cy="0" gradientTransform="matrix(0.0197, 0.0, 0.0, 0.0197, 284.1, 207.7)" gradientUnits="userSpaceOnUse" id="gradient7" r="819.2" spreadMethod="pad">
      <stop offset="0.0" stop-color="#f26caf"/>
      <stop offset="0.8862745098039215" stop-color="#df86b3"/>
    </radialGradient>
    <radialGradient cx="0" cy="0" gradientTransform="matrix(0.0109, 0.0, 0.0, 0.0109, 291.05, 209.95)" gradientUnits="userSpaceOnUse" id="gradient8" r="819.2" spreadMethod="pad">
      <stop offset="0.09803921568627451" stop-color="#e668b0"/>
      <stop offset="0.6549019607843137" stop-color="#dff8b1"/>
    </radialGradient>
    <radialGradient cx="0" cy="0" gradientTransform="matrix(0.0107, 0.0, 0.0, 0.0107, 256.65, 210.15)" gradientUnits="userSpaceOnUse" id="gradient9" r="819.2" spreadMethod="pad">
      <stop offset="0.09803921568627451" stop-color="#e668b0"/>
      <stop offset="0.6549019607843137" stop-color="#dff8b1"/>
    </radialGradient>
    <radialGradient cx="0" cy="0" gradientTransform="matrix(2.0E-4, 0.0478, -0.0366, 2.0E-4, 269.2, 211.8)" gradientUnits="userSpaceOnUse" id="gradient10" r="819.2" spreadMethod="pad">
      <stop offset="0.0" stop-color="#f1499e"/>
      <stop offset="0.8862745098039215" stop-color="#212121"/>
    </radialGradient>
    <linearGradient gradientTransform="matrix(0.0016, -0.0017, 5.0E-4, 8.0E-4, 264.25, 219.5)" gradientUnits="userSpaceOnUse" id="gradient11" spreadMethod="pad" x1="-819.2" x2="819.2">
      <stop offset="0.0" stop-color="#eee67d"/>
      <stop offset="0.6823529411764706" stop-color="#cf9c44"/>
      <stop offset="0.8862745098039215" stop-color="#ce9942"/>
    </linearGradient>
    <linearGradient gradientTransform="matrix(8.0E-4, 0.0022, -0.0021, 8.0E-4, 269.3, 224.05)" gradientUnits="userSpaceOnUse" id="gradient12" spreadMethod="pad" x1="-819.2" x2="819.2">
      <stop offset="0.0" stop-color="#eee67d"/>
      <stop offset="0.6823529411764706" stop-color="#cf9c44"/>
      <stop offset="0.8862745098039215" stop-color="#ce9942"/>
    </linearGradient>
    <linearGradient gradientTransform="matrix(-2.0E-4, -0.0018, 0.0018, -4.0E-4, 279.4, 204.0)" gradientUnits="userSpaceOnUse" id="gradient13" spreadMethod="pad" x1="-819.2" x2="819.2">
      <stop offset="0.0" stop-color="#eee67d"/>
      <stop offset="0.6823529411764706" stop-color="#cf9c44"/>
      <stop offset="0.8862745098039215" stop-color="#ce9942"/>
    </linearGradient>
    <radialGradient cx="0" cy="0" gradientTransform="matrix(0.0061, -0.0044, 0.0048, 0.0088, 285.2, 204.15)" gradientUnits="userSpaceOnUse" id="gradient14" r="819.2" spreadMethod="pad">
      <stop offset="0.09803921568627451" stop-color="#ffffff" stop-opacity="0.6627451"/>
      <stop offset="0.6549019607843137" stop-color="#ffffff" stop-opacity="0.0"/>
    </radialGradient>
    <radialGradient cx="0" cy="0" gradientTransform="matrix(0.003, 0.0018, -6.0E-4, 0.0037, 285.85, 210.3)" gradientUnits="userSpaceOnUse" id="gradient15" r="819.2" spreadMethod="pad">
      <stop offset="0.09803921568627451" stop-color="#ffffff" stop-opacity="0.67058825"/>
      <stop offset="0.6549019607843137" stop-color="#ffffff" stop-opacity="0.0"/>
    </radialGradient>
  </defs>
</svg>
