<?xml version="1.0" encoding="UTF-8" standalone="no"?>
<svg xmlns:xlink="http://www.w3.org/1999/xlink" height="196.1px" width="150.95px" xmlns="http://www.w3.org/2000/svg">
  <g transform="matrix(1.0, 0.0, 0.0, 1.0, -155.5, -51.5)">
    <path d="M166.3 135.8 L159.1 117.45 159.15 117.45 219.85 90.25 221.1 90.75 220.55 92.95 237.6 92.6 233.75 87.75 229.5 85.0 241.3 85.25 240.35 82.25 240.25 82.0 250.9 67.8 251.5 58.0 254.35 64.9 266.75 53.0 260.5 70.25 262.65 84.55 269.3 82.5 265.3 75.25 266.1 74.25 268.95 72.1 Q271.5 70.9 274.1 69.75 L275.45 74.55 280.5 85.25 276.75 90.0 276.6 93.45 289.6 88.6 302.6 71.5 296.4 98.7 296.25 98.6 296.1 98.65 282.35 107.1 282.2 107.25 282.25 107.45 282.4 107.55 282.6 107.5 282.5 107.6 282.9 107.65 279.55 113.45 276.9 109.15 276.5 109.2 276.6 109.15 276.7 109.0 276.65 108.85 267.85 94.55 267.8 94.55 267.65 94.4 267.5 94.45 267.35 94.6 267.4 94.8 276.2 109.0 276.3 109.15 279.3 113.95 279.3 114.05 279.35 114.1 279.4 114.15 293.0 136.15 Q292.9 136.05 292.95 135.95 L292.95 136.0 293.05 136.2 304.85 148.95 304.95 149.0 299.0 187.75 279.85 219.7 279.5 219.45 278.0 229.75 277.3 230.35 277.25 230.35 277.05 230.3 277.0 230.3 219.95 245.5 219.45 245.95 218.9 246.1 218.9 246.05 192.75 231.5 192.55 230.7 192.3 230.75 157.0 191.25 163.85 185.95 163.9 186.0 164.05 186.05 164.25 186.0 164.3 185.8 166.65 136.0 166.6 135.85 166.4 135.75 166.3 135.8 M262.55 84.9 L262.45 85.0 262.5 85.2 262.55 85.25 262.7 85.3 262.9 85.25 262.95 85.05 262.95 85.0 262.9 84.9 262.75 84.8 262.7 84.8 262.65 84.55 262.45 84.65 262.5 84.75 262.55 84.9 M267.0 91.2 L266.85 91.3 268.65 93.55 267.0 91.2 M273.45 76.2 L273.45 76.3 273.5 76.25 273.45 76.2 M267.85 94.55 L268.9 94.1 268.85 94.05 267.85 94.55 M276.1 93.15 L275.95 93.3 Q275.85 93.35 275.9 93.5 L279.85 108.55 280.0 108.7 280.2 108.7 280.35 108.6 280.35 108.4 276.4 93.35 276.3 93.2 276.1 93.15 M279.5 133.25 L279.4 133.1 238.0 107.5 237.9 107.45 237.75 107.4 237.7 107.45 237.6 107.55 237.55 107.7 237.55 107.75 210.1 119.6 209.95 119.5 209.75 119.5 209.65 119.6 193.15 161.05 193.15 161.25 193.25 161.4 187.35 162.0 185.3 160.85 178.9 189.5 181.8 190.9 181.85 191.25 187.3 211.3 187.25 211.35 187.1 211.5 187.15 211.7 187.3 211.8 240.15 228.5 240.35 228.5 240.45 228.35 240.45 228.15 240.4 228.1 263.65 207.95 264.4 208.8 264.0 207.75 277.75 181.75 278.15 133.3 278.95 133.3 279.35 133.55 279.45 133.45 279.5 133.25 279.5 133.45 279.35 133.55 298.55 145.4 298.45 145.3 Q298.4 145.15 298.5 145.1 L298.65 144.95 298.85 145.0 279.45 133.1 279.5 133.25 M166.5 126.75 L166.4 126.85 166.5 127.0 166.6 126.9 166.5 126.75 M294.55 110.0 L294.6 110.0 294.9 110.65 287.7 114.0 281.0 115.0 Q280.85 115.0 280.8 115.1 L280.75 115.3 280.8 115.4 280.75 115.4 279.85 113.95 283.45 107.75 294.45 110.0 294.55 110.0 M282.65 107.15 L282.5 107.05 282.75 107.1 282.65 107.15" fill="#000000" fill-rule="evenodd" stroke="none"/>
    <path d="M277.3 230.35 L277.35 230.5 277.35 230.7 277.2 230.8 219.0 246.3 219.1 246.2 219.15 246.2 219.45 245.95 219.95 245.5 277.0 230.3 277.05 230.3 277.25 230.35 277.3 230.35 M163.85 185.95 L163.8 185.8 166.15 136.0 166.25 135.85 166.3 135.8 166.4 135.75 166.6 135.85 166.65 136.0 164.3 185.8 164.25 186.0 164.05 186.05 163.9 186.0 163.85 185.95 M262.7 84.8 L262.75 84.8 262.9 84.9 262.95 85.0 262.95 85.05 262.9 85.25 262.7 85.3 262.55 85.25 262.5 85.2 262.45 85.0 262.55 84.9 262.55 84.85 262.7 84.8 M276.1 93.15 L276.3 93.2 276.4 93.35 280.35 108.4 280.35 108.6 280.2 108.7 280.0 108.7 279.85 108.55 275.9 93.5 Q275.85 93.35 275.95 93.3 L276.1 93.15 M237.55 107.75 L237.55 107.7 237.6 107.55 237.7 107.45 237.75 107.4 237.9 107.45 238.0 107.5 279.4 133.1 279.5 133.25 279.45 133.45 279.35 133.55 278.95 133.3 237.8 107.95 237.7 107.9 237.55 107.75 M279.5 133.25 L279.45 133.1 298.85 145.0 298.65 144.95 298.5 145.1 Q298.4 145.15 298.45 145.3 L298.55 145.4 279.35 133.55 279.5 133.45 279.5 133.25 M193.25 161.4 L193.15 161.25 193.15 161.05 209.65 119.6 209.75 119.5 209.95 119.5 210.1 119.6 210.1 119.8 193.6 161.25 193.45 161.4 193.3 161.4 193.25 161.4 M240.4 228.1 L240.45 228.15 240.45 228.35 240.35 228.5 240.15 228.5 187.3 211.8 187.15 211.7 187.1 211.5 187.25 211.35 187.3 211.3 187.45 211.3 240.3 228.0 240.4 228.1" fill="#333333" fill-rule="evenodd" stroke="none"/>
    <path d="M273.45 76.2 L273.5 76.25 273.45 76.3 273.45 76.2 M267.0 91.2 L268.65 93.55 266.85 91.3 267.0 91.2 M276.1 93.15 L275.95 93.3 Q275.85 93.35 275.9 93.5 L279.85 108.55 280.0 108.7 280.2 108.7 280.35 108.6 280.35 108.4 276.4 93.35 276.3 93.2 276.1 93.15 M166.5 126.75 L166.4 126.85 166.5 127.0 166.6 126.9 166.5 126.75" fill="none" stroke="#333333" stroke-linecap="round" stroke-linejoin="round" stroke-width="4.0"/>
    <path d="M166.3 135.8 L159.1 117.45 159.15 117.45 219.85 90.25 221.1 90.75 220.55 92.95 237.6 92.6 233.75 87.75 229.5 85.0 241.3 85.25 240.35 82.25 240.25 82.0 250.9 67.8 251.5 58.0 254.35 64.9 266.75 53.0 260.5 70.25 262.65 84.55 269.3 82.5 265.3 75.25 266.1 74.25 268.95 72.1 Q271.5 70.9 274.1 69.75 L275.45 74.55 280.5 85.25 276.75 90.0 276.6 93.45 289.6 88.6 302.6 71.5 296.4 98.7 296.25 98.6 296.1 98.65 282.35 107.1 282.2 107.25 282.25 107.45 282.4 107.55 282.6 107.5 282.5 107.6 282.9 107.65 279.55 113.45 276.9 109.15 276.5 109.2 276.6 109.15 276.7 109.0 276.65 108.85 267.85 94.55 267.8 94.55 267.65 94.4 267.5 94.45 267.35 94.6 267.4 94.8 276.2 109.0 276.3 109.15 279.3 113.95 279.3 114.05 279.35 114.1 279.4 114.15 293.0 136.15 Q292.9 136.05 292.95 135.95 L292.95 136.0 293.05 136.2 304.85 148.95 304.95 149.0 299.0 187.75 279.85 219.7 279.5 219.45 278.0 229.75 277.3 230.35 277.25 230.35 277.05 230.3 277.0 230.3 219.95 245.5 219.45 245.95 218.9 246.1 218.9 246.05 192.75 231.5 192.55 230.7 192.3 230.75 157.0 191.25 163.85 185.95 163.9 186.0 164.05 186.05 164.25 186.0 164.3 185.8 166.65 136.0 166.6 135.85 166.4 135.75 166.3 135.8 M262.55 84.9 L262.45 85.0 262.5 85.2 262.55 85.25 262.7 85.3 262.9 85.25 262.95 85.05 262.95 85.0 262.9 84.9 262.75 84.8 262.7 84.8 262.65 84.55 262.45 84.65 262.5 84.75 262.55 84.9 M267.85 94.55 L268.85 94.05 268.9 94.1 267.85 94.55 M279.5 133.25 L279.4 133.1 238.0 107.5 237.9 107.45 237.75 107.4 237.7 107.45 237.6 107.55 237.55 107.7 237.55 107.75 210.1 119.6 209.95 119.5 209.75 119.5 209.65 119.6 193.15 161.05 193.15 161.25 193.25 161.4 187.35 162.0 185.3 160.85 178.9 189.5 181.8 190.9 181.85 191.25 187.3 211.3 187.25 211.35 187.1 211.5 187.15 211.7 187.3 211.8 240.15 228.5 240.35 228.5 240.45 228.35 240.45 228.15 240.4 228.1 263.65 207.95 264.4 208.8 264.0 207.75 277.75 181.75 278.15 133.3 278.95 133.3 279.35 133.55 298.55 145.4 298.45 145.3 Q298.4 145.15 298.5 145.1 L298.65 144.95 298.85 145.0 279.45 133.1 279.5 133.25 M281.6 115.4 L288.35 114.0 300.7 107.9 294.95 109.5 284.95 106.75" fill="none" stroke="#ac9b82" stroke-linecap="round" stroke-linejoin="round" stroke-width="3.0"/>
    <path d="M265.3 75.0 L270.7 78.1 270.85 78.0 271.45 77.85 273.45 76.05 273.6 79.95 273.25 81.0 273.05 81.1 276.75 89.75 277.25 92.2 276.35 93.25 276.15 93.15 276.35 93.25 277.25 92.2 289.6 88.35 296.2 98.6 Q289.3 102.8 282.45 107.05 L280.7 108.1 280.1 108.2 276.15 93.15 265.4 88.65 262.7 84.8 262.65 84.3 269.3 82.25 265.3 75.0 M275.5 74.5 L275.45 74.3 275.55 74.5 275.5 74.5 M240.25 81.75 L250.9 67.55 251.5 57.75 254.35 64.65 266.75 52.75 260.5 70.0 260.55 70.25 257.6 72.5 254.35 64.65 257.6 72.5 262.45 84.4 262.5 84.5 262.55 84.75 249.75 85.85 250.25 77.8 240.35 82.0 240.25 81.75 M269.3 82.25 L271.15 81.7 273.05 81.1 271.15 81.7 269.3 82.25 M252.75 92.05 L266.85 91.05 268.65 93.3 268.85 93.8 267.6 94.4 267.3 94.55 267.6 94.4 276.45 108.7 279.55 113.7 280.55 115.3 293.2 135.75 298.7 144.95 292.65 141.25 255.3 103.55 267.45 94.9 267.3 94.55 244.8 104.35 245.4 103.95 237.8 107.4 240.1 106.1 214.95 113.6 221.15 92.85 220.55 92.7 221.2 92.65 221.3 92.65 237.6 92.35 243.5 92.2 252.75 92.05 M271.15 81.7 L270.85 78.0 271.15 81.7 M250.9 67.55 L250.25 77.8 250.9 67.55 M219.6 90.15 L219.85 90.0 221.1 90.5 220.55 92.7 209.85 119.45 193.35 160.9 187.0 153.05 187.0 153.0 170.7 131.95 219.6 90.15 M279.25 133.05 L292.65 141.25 291.65 142.05 299.1 151.25 299.35 151.25 300.2 179.75 299.0 187.5 298.85 187.75 281.4 204.5 281.3 204.3 281.3 204.05 277.9 184.8 277.75 181.5 278.15 133.05 279.25 133.05 M166.5 128.25 L166.5 126.75 166.6 126.65 167.35 127.6 166.5 128.25 M166.4 135.75 L166.5 128.55 185.9 158.1 185.3 160.6 179.95 184.55 163.9 188.25 164.05 185.55 166.4 135.75 M263.65 207.7 L264.4 208.55 277.1 230.3 218.9 245.85 218.9 245.8 225.4 240.45 218.9 245.8 192.75 231.25 192.7 230.95 192.55 230.45 193.4 230.65 195.55 220.55 206.2 217.25 233.75 225.95 Q235.25 231.55 225.4 240.45 L240.3 228.15 240.45 228.0 240.2 228.0 263.65 207.7" fill="#fcf5e9" fill-rule="evenodd" stroke="none"/>
    <path d="M273.6 79.95 L275.5 74.5 275.55 74.5 280.4 84.8 280.5 85.0 276.75 89.75 273.05 81.1 273.25 81.0 273.6 79.95 M260.55 70.25 L262.65 84.3 262.45 84.4 257.6 72.5 260.55 70.25 M265.4 88.65 L276.15 93.15 280.1 108.2 276.45 108.7 267.6 94.4 268.9 93.85 268.85 93.8 268.65 93.3 267.0 90.95 265.4 88.65 M249.75 85.85 L249.75 86.0 252.75 92.05 243.5 92.2 241.3 85.0 240.35 82.0 250.25 77.8 249.75 85.85 M267.3 94.55 L267.45 94.9 255.3 103.55 292.65 141.25 279.25 133.05 237.8 107.4 209.85 119.45 220.55 92.7 221.15 92.85 214.95 113.6 240.1 106.1 237.8 107.4 245.4 103.95 244.8 104.35 267.3 94.55 M298.7 144.95 L293.2 135.75 305.0 148.5 298.7 144.95 M280.55 115.3 L279.55 113.7 283.3 107.2 294.5 109.5 294.95 110.3 287.75 114.0 281.0 115.0 280.55 115.3 M166.5 126.75 L166.5 128.25 167.35 127.6 170.7 131.95 187.0 153.0 187.0 153.05 185.9 158.1 187.0 153.05 193.35 160.9 193.35 161.15 187.35 161.75 185.3 160.6 185.9 158.1 166.5 128.55 166.4 135.75 159.1 117.2 159.15 117.2 166.4 126.6 166.5 126.75 M163.9 188.25 L163.9 188.35 163.9 188.25 179.95 184.55 178.9 189.25 181.8 190.65 181.85 191.0 178.5 191.0 163.75 191.0 157.0 191.0 164.05 185.55 163.9 188.25 M178.5 191.0 L178.9 189.25 178.5 191.0 M163.9 188.35 L163.75 191.0 163.9 188.35 M277.75 181.5 L277.9 184.8 281.3 204.05 281.3 204.3 281.4 204.5 298.85 187.75 279.85 219.45 279.5 219.2 278.95 207.6 Q277.8 191.15 273.6 189.35 L277.75 181.5 M277.9 184.8 L278.95 207.6 277.9 184.8 M240.3 228.15 L225.4 240.45 Q235.25 231.55 233.75 225.95 L240.2 228.0 240.3 228.15 M206.2 217.25 L195.55 220.55 193.4 230.65 192.55 230.45 187.35 211.3 206.2 217.25" fill="#ecdebd" fill-rule="evenodd" stroke="none"/>
    <path d="M292.65 141.25 L298.7 144.95 305.0 148.5 300.2 179.75 299.35 151.25 299.1 151.25 291.65 142.05 292.65 141.25 M289.6 88.35 L302.6 71.25 296.35 98.5 296.2 98.6 289.6 88.35 M297.25 109.1 L294.95 110.3 294.5 109.5 297.25 109.1 M166.4 126.6 L159.15 117.2 219.6 90.15 170.7 131.95 167.35 127.6 166.6 126.65 166.5 126.5 166.4 126.6 M157.0 191.0 L163.75 191.0 178.5 191.0 181.85 191.0 187.35 211.3 192.55 230.45 192.3 230.5 157.0 191.0 M264.0 207.5 L273.6 189.35 Q277.8 191.15 278.95 207.6 L279.5 219.2 278.0 229.5 277.75 229.7 277.1 230.3 264.4 208.55 264.0 207.5" fill="#ffffff" fill-rule="evenodd" stroke="none"/>
    <path d="M262.7 84.8 L265.4 88.65 267.0 90.95 266.85 91.05 252.75 92.05 249.75 86.0 249.75 85.85 262.55 84.75 262.7 84.75 262.7 84.8 M241.3 85.0 L243.5 92.2 237.6 92.35 233.75 87.5 229.5 84.75 241.3 85.0 M279.55 113.7 L276.45 108.7 280.1 108.2 280.7 108.1 282.45 107.05 283.3 107.2 279.55 113.7" fill="#d5b997" fill-rule="evenodd" stroke="none"/>
    <path d="M271.45 77.85 L268.3 74.35 272.5 74.5 273.45 75.95 273.45 76.05 271.45 77.85" fill="#9e7041" fill-rule="evenodd" stroke="none"/>
    <path d="M265.3 75.0 L266.1 74.0 268.95 71.85 Q271.5 70.65 274.1 69.5 L274.15 69.8 275.45 74.3 275.5 74.5 273.6 79.95 273.45 76.05 273.5 76.0 273.45 75.95 272.5 74.5 268.3 74.35 271.45 77.85 270.85 78.0 270.7 78.1 265.3 75.0" fill="#cda987" fill-rule="evenodd" stroke="none"/>
    <path d="M275.45 74.3 L274.15 69.8 274.1 69.5 Q271.5 70.65 268.95 71.85 L266.1 74.0 265.3 75.0 270.7 78.1 270.85 78.0 271.45 77.85 268.3 74.35 272.5 74.5 273.45 75.95 273.5 76.0 273.45 76.05 273.6 79.95 275.5 74.5 275.45 74.3 275.55 74.5 280.4 84.8 274.15 69.8 M240.25 81.75 L250.9 67.55 251.5 57.75 254.35 64.65 266.75 52.75 260.5 70.0 260.55 70.25 262.65 84.3 269.3 82.25 265.3 75.0 M254.35 64.65 L257.6 72.5 260.55 70.25 M262.65 84.3 L262.7 84.8 265.4 88.65 276.15 93.15 276.35 93.25 277.25 92.2 276.75 89.75 273.05 81.1 271.15 81.7 269.3 82.25 M262.5 84.5 L262.7 84.75 262.7 84.8 M262.55 84.75 L262.7 84.75 M262.45 84.4 L262.5 84.5 M262.55 84.75 L249.75 85.85 249.75 86.0 252.75 92.05 266.85 91.05 268.65 93.3 268.85 93.8 268.9 93.85 267.6 94.4 267.3 94.55 244.8 104.35 M267.0 90.95 L265.4 88.65 M249.75 85.85 L250.25 77.8 240.35 82.0 241.3 85.0 243.5 92.2 252.75 92.05 M273.45 75.95 L273.45 76.05 271.45 77.85 M276.75 89.75 L280.5 85.0 280.4 84.8 M273.05 81.1 L273.25 81.0 273.6 79.95 M270.85 78.0 L271.15 81.7 M292.65 141.25 L298.7 144.95 293.2 135.75 280.55 115.3 279.55 113.7 276.45 108.7 267.6 94.4 M267.0 90.95 L268.65 93.3 M257.6 72.5 L262.45 84.4 M250.25 77.8 L250.9 67.55 M289.6 88.35 L302.6 71.25 296.35 98.5 296.2 98.6 Q289.3 102.8 282.45 107.05 L283.3 107.2 294.5 109.5 300.0 108.25 297.25 109.1 294.95 110.3 287.75 114.0 281.0 115.0 M289.6 88.35 L296.2 98.6 M277.25 92.2 L289.6 88.35 M219.6 90.15 L219.85 90.0 221.45 90.4 220.55 92.7 221.2 92.65 M221.3 92.65 L237.6 92.35 233.75 87.5 229.5 84.75 241.3 85.0 M237.8 107.4 L245.4 103.95 M240.35 82.0 L240.25 81.75 M209.85 119.45 L237.8 107.4 279.25 133.05 292.65 141.25 M300.2 179.75 L305.0 148.5 298.7 144.95 M166.5 128.25 L166.5 126.75 166.4 126.6 159.15 117.2 159.1 117.2 166.4 135.75 166.5 128.55 M185.9 158.1 L187.0 153.05 187.0 153.0 170.7 131.95 167.35 127.6 166.6 126.65 166.5 126.5 166.5 126.75 M185.9 158.1 L185.3 160.6 187.35 161.75 193.35 161.15 193.5 161.1 193.35 160.9 187.0 153.05 M163.9 188.25 L164.05 185.55 157.0 191.0 163.75 191.0 163.9 188.35 M178.9 189.25 L178.5 191.0 181.85 191.0 181.8 190.65 178.9 189.25 179.95 184.55 185.3 160.6 M163.75 191.0 L178.5 191.0 M164.05 185.55 L166.4 135.75 M193.35 160.9 L209.85 119.45 220.55 92.7 M282.45 107.05 L280.7 108.1 280.1 108.2 276.45 108.7 M279.55 113.7 L283.3 107.2 M279.25 133.05 L278.15 132.4 278.15 133.05 277.75 181.5 277.9 184.8 278.95 207.6 279.5 219.2 279.5 220.0 279.85 219.45 298.85 187.75 299.0 187.5 300.2 179.75 M273.6 189.35 L277.75 181.5 M293.2 135.75 L305.0 148.5 M280.1 108.2 L276.15 93.15 M237.6 92.35 L243.5 92.2 M159.1 117.2 L159.0 117.0 159.15 117.2 219.6 90.15 M263.65 207.7 L263.8 207.55 263.85 207.5 263.85 207.6 264.0 207.5 273.6 189.35 M264.4 208.55 L264.0 207.5 M263.85 207.6 L264.4 208.55 277.1 230.3 218.9 245.85 M263.65 207.7 L240.2 228.0 240.45 228.0 240.3 228.15 225.4 240.45 218.9 245.8 192.75 231.25 192.7 230.95 192.3 230.5 192.75 231.25 M277.75 229.7 L277.1 230.3 M278.0 229.5 L279.5 219.2 M240.2 228.0 L233.75 225.95 206.2 217.25 187.35 211.3 181.85 191.0 M192.55 230.45 L192.7 230.95 M192.55 230.45 L187.35 211.3 M157.0 191.0 L192.3 230.5" fill="none" stroke="#c1c186" stroke-linecap="round" stroke-linejoin="round" stroke-width="0.5"/>
    <path d="M163.9 188.35 L163.9 188.25" fill="none" stroke="#00ff00" stroke-linecap="round" stroke-linejoin="round" stroke-width="0.5"/>
  </g>
</svg>
