<?xml version="1.0" encoding="UTF-8" standalone="no"?>
<svg xmlns:xlink="http://www.w3.org/1999/xlink" height="77.25px" width="42.15px" xmlns="http://www.w3.org/2000/svg">
  <g transform="matrix(1.0, 0.0, 0.0, 1.0, 21.05, 38.6)">
    <path d="M-13.25 -34.65 Q-15.65 -5.95 -9.1 5.1 -4.35 13.9 -0.25 18.9 -4.9 26.45 -7.6 38.65 -17.9 32.15 -21.05 4.35 -21.15 -20.6 -13.25 -34.65" fill="#a60000" fill-rule="evenodd" stroke="none"/>
    <path d="M-0.25 18.9 Q-4.35 13.9 -9.1 5.1 -15.65 -5.95 -13.25 -34.65 L-11.7 -37.2 Q-8.95 -40.4 -9.15 -36.25 -7.2 -22.05 0.8 -5.55 9.25 3.65 21.1 0.8 9.35 3.95 -0.25 18.9" fill="#cc0000" fill-rule="evenodd" stroke="none"/>
    <path d="M-13.25 -34.65 Q-21.15 -20.6 -21.05 4.35 -17.9 32.15 -7.6 38.65 M21.1 0.8 Q9.25 3.65 0.8 -5.55 -7.2 -22.05 -9.15 -36.25 -8.95 -40.4 -11.7 -37.2 L-13.25 -34.65" fill="none" stroke="#000000" stroke-linecap="round" stroke-linejoin="round" stroke-opacity="0.5294118" stroke-width="0.05"/>
  </g>
</svg>
