<?xml version="1.0" encoding="UTF-8" standalone="no"?>
<svg xmlns:xlink="http://www.w3.org/1999/xlink" height="225.8px" width="209.6px" xmlns="http://www.w3.org/2000/svg">
  <g transform="matrix(1.0, 0.0, 0.0, 1.0, -120.95, -80.0)">
    <path d="M287.35 216.05 L288.95 220.0 283.15 231.7 Q269.75 210.05 266.25 181.85 L262.5 191.85 Q278.1 215.7 270.05 243.5 L241.25 249.0 237.9 249.65 234.05 213.0 233.95 212.0 234.15 211.95 Q226.0 189.05 239.45 159.05 L269.95 172.0 269.65 172.9 272.95 180.45 287.35 216.05" fill="#ff3333" fill-opacity="0.7019608" fill-rule="evenodd" stroke="none"/>
    <path d="M283.15 231.7 L277.95 242.0 274.4 242.7 270.05 243.5 Q278.1 215.7 262.5 191.85 L266.25 181.85 Q269.75 210.05 283.15 231.7 M226.7 153.6 L239.45 159.05 Q226.0 189.05 234.15 211.95 L233.95 212.0 234.05 213.0 222.7 203.5 Q233.75 178.55 226.7 153.6 M272.95 156.9 L272.95 156.5 Q288.7 154.85 300.6 122.0 L301.1 134.35 Q281.85 153.45 278.15 168.75 L272.95 156.9" fill="#ffbbbb" fill-rule="evenodd" stroke="none"/>
    <path d="M273.05 80.3 L273.95 80.0 285.1 80.85 299.95 107.0 300.6 122.0 Q288.7 154.85 272.95 156.5 L272.95 147.0 279.95 101.0 273.05 80.3" fill="#dc4c4c" fill-rule="evenodd" stroke="none"/>
    <path d="M274.4 242.7 L271.95 254.0 267.35 258.35 267.95 258.95 261.0 303.7 247.95 284.95 239.6 277.2 241.25 249.0 270.05 243.5 274.4 242.7 M168.05 169.4 L215.0 148.65 215.5 149.7 210.55 157.4 211.0 157.7 195.95 181.0 197.1 181.95 171.95 209.0 171.95 171.0 168.05 169.4" fill="#8d1d1d" fill-rule="evenodd" stroke="none"/>
    <path d="M239.6 277.2 L235.05 269.15 230.95 268.95 186.95 230.0 187.05 229.0 172.95 228.0 148.95 210.0 121.9 194.9 120.95 158.0 Q121.6 154.25 123.0 151.05 L168.05 169.4 171.95 171.0 171.95 209.0 197.1 181.95 222.7 203.5 234.05 213.0 237.9 249.65 241.25 249.0 239.6 277.2" fill="#731717" fill-rule="evenodd" stroke="none"/>
    <path d="M123.0 151.05 Q129.5 136.1 151.95 133.0 L182.95 139.0 183.2 140.85 189.95 140.0 213.95 140.0 227.2 144.65 237.95 120.0 250.15 116.55 252.95 106.0 272.95 80.0 273.05 80.3 279.95 101.0 272.95 147.0 272.95 156.5 272.95 156.9 272.95 180.45 269.65 172.9 269.95 172.0 239.45 159.05 226.7 153.6 215.95 149.0 215.5 149.7 215.0 148.65 168.05 169.4 123.0 151.05" fill="url(#gradient0)" fill-rule="evenodd" stroke="none"/>
    <path d="M285.1 80.85 L293.95 83.0 316.95 106.0 Q339.6 137.85 319.95 173.0 L290.95 210.0 290.15 209.65 287.35 216.05 272.95 180.45 272.95 156.9 278.15 168.75 Q281.85 153.45 301.1 134.35 L300.6 122.0 299.95 107.0 285.1 80.85 M215.95 149.0 L226.7 153.6 Q233.75 178.55 222.7 203.5 L197.1 181.95 195.95 181.0 211.0 157.7 215.95 149.0 M278.15 168.75 L293.05 202.95 302.95 180.0 301.1 134.35 302.95 180.0 293.05 202.95 278.15 168.75" fill="#cf3737" fill-rule="evenodd" stroke="none"/>
    <path d="M293.95 83.0 L316.95 106.0 Q339.6 137.85 319.95 173.0 L290.95 210.0" fill="none" stroke="#eb0101" stroke-linecap="round" stroke-linejoin="round" stroke-width="0.05"/>
    <path d="M123.0 151.05 Q129.5 136.1 151.95 133.0 L182.95 139.0 183.2 140.85 189.95 140.0 213.95 140.0 227.2 144.65 237.95 120.0 250.15 116.55 252.95 106.0 272.95 80.0 273.05 80.3 279.95 101.0 272.95 147.0 272.95 156.5 272.95 156.9 272.95 180.45 269.65 172.9 269.95 172.0 239.45 159.05 226.7 153.6 215.95 149.0 215.5 149.7 215.0 148.65 M197.1 181.95 L195.95 181.0 211.0 157.7 210.55 157.4 215.5 149.7 M301.1 134.35 L302.95 180.0 293.05 202.95 278.15 168.75 M234.05 213.0 L237.9 249.65 241.25 249.0 M222.7 203.5 L197.1 181.95" fill="none" stroke="#ffd6d6" stroke-linecap="round" stroke-linejoin="round" stroke-width="0.05"/>
    <path d="M302.95 182.0 L315.95 180.0 M280.95 102.0 L316.95 108.0 M269.95 172.0 L234.95 211.0" fill="none" stroke="#ffffff" stroke-linecap="round" stroke-linejoin="round" stroke-width="1.0"/>
    <path d="M278.95 103.0 L250.95 118.0 M251.95 118.0 L231.95 153.0" fill="none" stroke="#ffffff" stroke-linecap="round" stroke-linejoin="round" stroke-opacity="0.48235294" stroke-width="1.0"/>
    <path d="M274.9 81.6 L286.05 82.45 294.9 84.6 317.9 107.6 Q340.55 139.45 320.9 174.6 L291.9 211.6 291.1 211.25 288.3 217.65 289.9 221.6 278.9 243.6 275.35 244.3 272.9 255.6 268.3 259.95 268.9 260.55 261.95 305.3 248.9 286.55 240.55 278.8 236.0 270.75 231.9 270.55 187.9 231.6 188.0 230.6 173.9 229.6 149.9 211.6 122.85 196.5 121.9 159.6 Q122.55 155.85 123.95 152.65 130.45 137.7 152.9 134.6 L183.9 140.6 184.15 142.45 190.9 141.6 214.9 141.6 228.15 146.25 238.9 121.6 251.1 118.15 253.9 107.6 273.9 81.6 274.0 81.9 274.9 81.6 Z" fill="none" stroke="#fe1212" stroke-linecap="round" stroke-linejoin="round" stroke-opacity="0.47058824" stroke-width="1.0"/>
  </g>
  <defs>
    <linearGradient gradientTransform="matrix(0.0067, 0.0086, -0.0777, 0.061, 215.55, 138.0)" gradientUnits="userSpaceOnUse" id="gradient0" spreadMethod="pad" x1="-819.2" x2="819.2">
      <stop offset="0.0196078431372549" stop-color="#cf3737"/>
      <stop offset="1.0" stop-color="#8d1d1d"/>
    </linearGradient>
  </defs>
</svg>
