<?xml version="1.0" encoding="UTF-8" standalone="no"?>
<svg xmlns:xlink="http://www.w3.org/1999/xlink" height="229.5px" width="115.45px" xmlns="http://www.w3.org/2000/svg">
  <g transform="matrix(1.0, 0.0, 0.0, 1.0, -217.25, -85.2)">
    <path d="M319.35 227.55 Q315.9 235.7 325.9 240.1 316.05 243.45 302.2 241.5 308.9 232.7 319.35 227.55 M269.05 208.85 L280.15 210.8 Q287.8 215.75 290.9 220.65 284.15 214.75 269.05 208.85" fill="#333300" fill-rule="evenodd" stroke="none"/>
    <path d="M296.9 263.05 Q295.05 267.85 287.65 269.3 L283.85 269.8 Q285.8 268.25 284.9 264.15 L280.65 259.55 284.3 258.8 Q292.1 257.75 296.9 263.05" fill="#554200" fill-rule="evenodd" stroke="none"/>
    <path d="M251.35 230.75 Q238.85 228.5 229.85 232.7 237.4 224.8 251.35 230.75" fill="#886900" fill-rule="evenodd" stroke="none"/>
    <path d="M265.45 314.5 Q252.4 313.4 240.35 305.85 230.85 298.1 225.25 288.2 219.1 272.25 219.55 255.35 219.7 249.75 220.8 244.5 223.0 241.3 225.55 239.3 222.6 245.7 223.0 252.1 L225.2 260.95 Q225.35 264.35 225.85 268.0 233.9 301.95 260.85 305.15 L264.0 305.0 Q270.0 307.7 278.2 305.0 286.3 299.95 289.15 292.4 290.65 283.2 288.55 273.1 296.55 271.45 296.9 263.05 292.1 257.75 284.3 258.8 281.3 251.2 270.75 241.15 264.75 234.5 251.35 230.75 248.45 226.9 240.35 225.95 233.15 226.5 229.8 232.65 L229.8 232.7 229.75 232.75 228.25 233.5 Q225.3 235.05 222.0 239.7 223.8 233.5 227.05 227.85 237.35 218.2 252.75 218.7 262.6 221.35 271.8 228.8 271.2 222.45 262.25 216.05 279.9 219.5 289.7 231.85 299.5 244.25 304.7 263.1 306.2 283.3 299.3 294.85 292.35 306.4 288.8 305.5 291.2 301.45 290.15 296.1 284.25 311.2 265.45 314.5" fill="url(#gradient0)" fill-rule="evenodd" stroke="none"/>
    <path d="M261.05 203.35 Q293.45 197.75 319.9 226.3 L319.35 227.55 Q308.9 232.7 302.2 241.5 316.05 243.45 325.9 240.1 334.6 275.45 301.9 304.1 283.1 316.05 265.45 314.5 284.25 311.2 290.15 296.1 291.2 301.45 288.8 305.5 292.35 306.4 299.3 294.85 306.2 283.3 304.7 263.1 299.5 244.25 289.7 231.85 279.9 219.5 262.25 216.05 271.2 222.45 271.8 228.8 262.6 221.35 252.75 218.7 249.6 217.8 246.35 217.45 239.35 217.2 233.3 220.05 234.65 216.25 241.4 212.2 250.55 208.55 263.35 207.2 259.5 206.4 248.85 208.3 254.05 205.85 261.05 203.35 M269.05 208.85 Q284.15 214.75 290.9 220.65 287.8 215.75 280.15 210.8 L269.05 208.85" fill="url(#gradient1)" fill-rule="evenodd" stroke="none"/>
    <path d="M285.5 289.15 Q282.25 303.6 264.0 305.0 L260.85 305.15 Q233.9 301.95 225.85 268.0 225.35 264.35 225.2 260.95 224.75 250.8 227.45 242.85 228.45 239.85 231.2 236.45 235.0 232.7 245.3 234.1 252.25 235.6 258.3 238.55 250.0 277.9 285.5 289.15" fill="url(#gradient2)" fill-rule="evenodd" stroke="none"/>
    <path d="M229.85 232.7 L229.8 232.7 229.8 232.65 229.85 232.7" fill="url(#gradient3)" fill-rule="evenodd" stroke="none"/>
    <path d="M225.25 288.2 Q216.6 273.0 217.3 252.8 217.75 237.9 223.45 227.35 230.4 214.3 245.3 207.9 253.35 204.65 261.05 203.35 254.05 205.85 248.85 208.3 259.5 206.4 263.35 207.2 250.55 208.55 241.4 212.2 234.65 216.25 233.3 220.05 239.35 217.2 246.35 217.45 249.6 217.8 252.75 218.7 237.35 218.2 227.05 227.85 223.8 233.5 222.0 239.7 225.3 235.05 228.25 233.5 L229.75 232.75 229.8 232.7 229.85 232.7 Q238.85 228.5 251.35 230.75 264.75 234.5 270.75 241.15 281.3 251.2 284.3 258.8 L280.65 259.55 Q271.85 245.25 258.3 238.55 252.25 235.6 245.3 234.1 235.0 232.7 231.2 236.45 228.45 239.85 227.45 242.85 224.75 250.8 225.2 260.95 L223.0 252.1 Q222.6 245.7 225.55 239.3 223.0 241.3 220.8 244.5 219.7 249.75 219.55 255.35 219.1 272.25 225.25 288.2" fill="url(#gradient4)" fill-rule="evenodd" stroke="none"/>
    <path d="M296.9 263.05 Q296.55 271.45 288.55 273.1 290.65 283.2 289.15 292.4 286.3 299.95 278.2 305.0 270.0 307.7 264.0 305.0 282.25 303.6 285.5 289.15 L285.8 287.3 Q287.05 278.7 283.85 269.8 L287.65 269.3 Q295.05 267.85 296.9 263.05" fill="url(#gradient5)" fill-rule="evenodd" stroke="none"/>
    <path d="M229.85 232.7 L229.8 232.65 Q233.15 226.5 240.35 225.95 248.45 226.9 251.35 230.75 237.4 224.8 229.85 232.7" fill="url(#gradient6)" fill-rule="evenodd" stroke="none"/>
    <path d="M261.05 203.35 Q293.45 197.75 319.9 226.3 L319.35 227.55 Q315.9 235.7 325.9 240.1 334.6 275.45 301.9 304.1 283.1 316.05 265.45 314.5 252.4 313.4 240.35 305.85 230.85 298.1 225.25 288.2 216.6 273.0 217.3 252.8 217.75 237.9 223.45 227.35 230.4 214.3 245.3 207.9 253.35 204.65 261.05 203.35 M283.85 269.8 Q287.05 278.7 285.8 287.3 L285.5 289.15 Q282.25 303.6 264.0 305.0 L260.85 305.15 M280.65 259.55 L284.9 264.15 Q285.8 268.25 283.85 269.8 M245.3 234.1 Q252.25 235.6 258.3 238.55 271.85 245.25 280.65 259.55 M258.3 238.55 Q250.0 277.9 285.5 289.15" fill="none" stroke="#000000" stroke-linecap="round" stroke-linejoin="round" stroke-opacity="0.47058824" stroke-width="0.05"/>
    <path d="M314.3 100.55 L300.25 142.6 296.75 153.05 289.75 173.95 285.45 186.85 277.45 210.4 272.5 209.55 Q292.35 154.55 314.3 100.55 M268.05 244.65 L261.95 260.4 Q262.5 252.65 264.9 242.1 L268.05 244.65" fill="#ffcc33" fill-rule="evenodd" stroke="none"/>
    <path d="M320.25 85.2 L314.3 100.55 Q292.35 154.55 272.5 209.55 L269.2 209.3 Q269.55 124.35 320.25 85.2 M300.25 142.6 L332.35 111.1 Q331.5 118.3 328.65 127.4 L296.75 153.05 300.25 142.6 M298.85 168.3 L315.05 164.9 310.3 172.85 285.45 186.85 289.75 173.95 298.85 168.3" fill="#ffdf5e" fill-rule="evenodd" stroke="none"/>
    <path d="M320.25 85.2 Q334.8 90.1 332.35 111.1 L300.25 142.6 314.3 100.55 320.25 85.2" fill="url(#gradient7)" fill-rule="evenodd" stroke="none"/>
    <path d="M328.65 127.4 Q325.3 138.1 319.15 151.5 L298.85 168.3 289.75 173.95 296.75 153.05 328.65 127.4" fill="url(#gradient8)" fill-rule="evenodd" stroke="none"/>
    <path d="M310.3 172.85 Q298.95 190.5 280.3 211.25 L277.45 210.4 285.45 186.85 310.3 172.85" fill="url(#gradient9)" fill-rule="evenodd" stroke="none"/>
    <path d="M332.35 111.1 Q334.8 90.1 320.25 85.2 269.55 124.35 269.2 209.3 M314.3 100.55 L300.25 142.6 296.75 153.05 289.75 173.95 285.45 186.85 277.45 210.4 M332.35 111.1 Q331.5 118.3 328.65 127.4 325.3 138.1 319.15 151.5 L298.85 168.3 315.05 164.9 310.3 172.85 Q298.95 190.5 280.3 211.25 M264.9 242.1 Q262.5 252.65 261.95 260.4 L268.05 244.65" fill="none" stroke="#000000" stroke-linecap="round" stroke-linejoin="round" stroke-opacity="0.41960785" stroke-width="0.05"/>
  </g>
  <defs>
    <linearGradient gradientTransform="matrix(0.0522, 0.0, 0.0, 0.0601, 262.2, 265.25)" gradientUnits="userSpaceOnUse" id="gradient0" spreadMethod="pad" x1="-819.2" x2="819.2">
      <stop offset="0.0" stop-color="#886900"/>
      <stop offset="1.0" stop-color="#a97601"/>
    </linearGradient>
    <linearGradient gradientTransform="matrix(-0.0273, -0.033, 0.0462, -0.0382, 278.4, 253.2)" gradientUnits="userSpaceOnUse" id="gradient1" spreadMethod="pad" x1="-819.2" x2="819.2">
      <stop offset="0.0" stop-color="#554200"/>
      <stop offset="1.0" stop-color="#4d5401"/>
    </linearGradient>
    <linearGradient gradientTransform="matrix(-0.0168, -0.0292, 0.0243, -0.0139, 247.6, 266.05)" gradientUnits="userSpaceOnUse" id="gradient2" spreadMethod="pad" x1="-819.2" x2="819.2">
      <stop offset="0.0" stop-color="#333300"/>
      <stop offset="1.0" stop-color="#4d5401"/>
    </linearGradient>
    <linearGradient gradientTransform="matrix(0.0409, 0.0, 0.0, 0.0518, 250.75, 245.75)" gradientUnits="userSpaceOnUse" id="gradient3" spreadMethod="pad" x1="-819.2" x2="819.2">
      <stop offset="0.0" stop-color="#d2a300"/>
      <stop offset="1.0" stop-color="#cccc00"/>
    </linearGradient>
    <linearGradient gradientTransform="matrix(-0.0311, -0.0082, 0.0142, -0.0538, 231.85, 242.8)" gradientUnits="userSpaceOnUse" id="gradient4" spreadMethod="pad" x1="-819.2" x2="819.2">
      <stop offset="0.0" stop-color="#d2a300"/>
      <stop offset="1.0" stop-color="#cccc00"/>
    </linearGradient>
    <linearGradient gradientTransform="matrix(0.0, -0.0111, 0.0201, 0.0, 280.45, 270.1)" gradientUnits="userSpaceOnUse" id="gradient5" spreadMethod="pad" x1="-819.2" x2="819.2">
      <stop offset="0.0" stop-color="#d2a300"/>
      <stop offset="1.0" stop-color="#cccc00"/>
    </linearGradient>
    <linearGradient gradientTransform="matrix(0.0, -0.0041, 0.0132, 0.0, 240.55, 229.35)" gradientUnits="userSpaceOnUse" id="gradient6" spreadMethod="pad" x1="-819.2" x2="819.2">
      <stop offset="0.0" stop-color="#d2a300"/>
      <stop offset="1.0" stop-color="#cccc00"/>
    </linearGradient>
    <linearGradient gradientTransform="matrix(0.0198, 0.0, 0.0, 0.035, 316.45, 113.9)" gradientUnits="userSpaceOnUse" id="gradient7" spreadMethod="pad" x1="-819.2" x2="819.2">
      <stop offset="0.0" stop-color="#ffe888"/>
      <stop offset="1.0" stop-color="#fff2c4"/>
    </linearGradient>
    <linearGradient gradientTransform="matrix(0.0237, 0.0, 0.0, 0.0284, 309.2, 150.65)" gradientUnits="userSpaceOnUse" id="gradient8" spreadMethod="pad" x1="-819.2" x2="819.2">
      <stop offset="0.0" stop-color="#ffe888"/>
      <stop offset="1.0" stop-color="#fff2c4"/>
    </linearGradient>
    <linearGradient gradientTransform="matrix(0.0201, 0.0, 0.0, 0.0234, 293.85, 192.05)" gradientUnits="userSpaceOnUse" id="gradient9" spreadMethod="pad" x1="-819.2" x2="819.2">
      <stop offset="0.0" stop-color="#ffe888"/>
      <stop offset="1.0" stop-color="#fff2c4"/>
    </linearGradient>
  </defs>
</svg>
