<?xml version="1.0" encoding="UTF-8" standalone="no"?>
<svg xmlns:xlink="http://www.w3.org/1999/xlink" height="121.0px" width="264.9px" xmlns="http://www.w3.org/2000/svg">
  <g transform="matrix(1.0, 0.0, 0.0, 1.0, -192.65, -200.15)">
    <path d="M383.8 238.85 L384.9 253.55 404.15 271.85 443.8 259.2 434.35 276.25 400.2 278.95 374.8 262.05 369.1 250.85 376.05 242.0 383.8 238.85 M442.55 249.9 L431.5 251.3 440.35 243.4 442.55 249.9 M209.4 274.2 L222.55 277.2 209.4 281.0 209.4 274.2 M215.1 299.2 L256.5 284.95 268.15 263.95 269.3 250.55 Q273.55 253.35 277.65 256.2 L274.2 268.05 257.75 291.6 227.4 311.2 215.1 299.2" fill="#7ea4de" fill-rule="evenodd" stroke="none"/>
    <path d="M443.8 259.2 L404.15 271.85 384.9 253.55 383.8 238.85 430.55 219.55 440.35 243.4 431.5 251.3 442.55 249.9 443.8 259.2 M426.75 250.7 L416.8 247.2 389.5 251.5 426.75 250.7 M209.4 274.2 L206.9 257.95 268.15 263.95 256.5 284.95 215.1 299.2 209.4 281.0 222.55 277.2 209.4 274.2 M231.05 268.55 L226.95 275.15 258.05 263.5 231.05 268.55" fill="#9fc5ff" fill-rule="evenodd" stroke="none"/>
    <path d="M383.8 238.85 L376.05 242.0 412.4 211.05 430.55 219.55 383.8 238.85 M268.15 263.95 L206.9 257.95 226.8 234.55 269.3 250.55 268.15 263.95" fill="#c0e6ff" fill-rule="evenodd" stroke="none"/>
    <path d="M443.8 259.2 L442.55 249.9 453.6 246.75 457.55 260.0 443.8 259.2 M440.35 243.4 L430.55 219.55 440.35 210.9 440.95 211.35 454.4 233.95 440.35 243.4 M206.9 257.95 L209.4 274.2 192.65 270.25 195.7 253.55 206.9 257.95 M209.4 281.0 L215.1 299.2 202.0 304.4 199.0 284.8 209.4 281.0" fill="#fedca5" fill-rule="evenodd" stroke="none"/>
    <path d="M440.35 210.9 L430.55 219.55 412.4 211.05 415.4 200.15 440.35 210.9 M206.9 257.95 L195.7 253.55 215.75 226.7 226.8 234.55 206.9 257.95" fill="#feedda" fill-rule="evenodd" stroke="none"/>
    <path d="M434.35 276.25 L443.8 259.2 457.55 260.0 457.55 260.15 446.05 278.95 434.35 276.25 M454.4 233.95 L453.6 246.75 442.55 249.9 440.35 243.4 454.4 233.95 M192.65 270.25 L209.4 274.2 209.4 281.0 199.0 284.8 192.65 270.25 M202.0 304.4 L215.1 299.2 227.4 311.2 215.9 321.15 202.0 304.7 202.0 304.4" fill="#cf9f74" fill-rule="evenodd" stroke="none"/>
    <path d="M426.75 250.7 L389.5 251.5 416.8 247.2 426.75 250.7 M231.05 268.55 L258.05 263.5 226.95 275.15 231.05 268.55" fill="#ffffff" fill-rule="evenodd" stroke="none"/>
    <path d="M375.4 237.4 L381.75 266.65 363.6 299.0 375.4 270.6 370.7 241.05 359.0 224.8 359.8 224.8 375.4 237.4" fill="#c0e6ff" fill-rule="evenodd" stroke="none"/>
    <path d="M359.0 224.8 L370.7 241.05 375.4 270.6 Q365.0 264.9 330.4 268.2 L283.8 271.4 Q276.4 267.75 277.95 249.75 283.5 237.25 289.2 224.8 L359.0 224.8 M290.15 270.9 L290.45 270.9 290.15 270.9 M283.95 262.55 L283.95 262.7 Q283.95 262.55 284.15 262.55 L283.95 262.55" fill="#9fc5ff" fill-rule="evenodd" stroke="none"/>
    <path d="M375.4 270.6 L363.6 299.0 302.0 304.55 275.1 285.6 Q270.55 269.5 270.4 250.2 L288.4 224.8 289.2 224.8 Q283.5 237.25 277.95 249.75 276.4 267.75 283.8 271.4 L330.4 268.2 Q365.0 264.9 375.4 270.6 M294.25 278.0 L294.25 278.15 Q294.25 278.0 294.4 278.0 L294.25 278.0" fill="#7ea4de" fill-rule="evenodd" stroke="none"/>
    <path d="M375.4 237.4 L359.8 224.8 M270.4 250.2 L288.4 224.8" fill="none" stroke="#658bc5" stroke-linecap="round" stroke-linejoin="round" stroke-width="0.05"/>
    <path d="M363.6 299.0 L381.75 266.65 375.4 237.4 M363.6 299.0 L302.0 304.55 275.1 285.6 Q270.55 269.5 270.4 250.2" fill="none" stroke="#658bc5" stroke-linecap="round" stroke-linejoin="round" stroke-width="0.05"/>
    <path d="M291.85 272.0 L288.1 234.25 295.65 222.9 341.15 216.55 355.2 225.55 362.45 260.5 327.4 269.3 291.85 272.0" fill="#fedca5" fill-rule="evenodd" stroke="none"/>
    <path d="M362.45 260.5 L358.85 284.35 330.1 290.8 304.35 293.15 291.85 272.0 327.4 269.3 362.45 260.5" fill="#cf9f74" fill-rule="evenodd" stroke="none"/>
    <path d="M353.95 231.75 Q352.2 234.4 350.6 237.6 350.0 238.35 349.7 239.65 361.2 236.0 369.9 245.15 374.0 249.6 372.25 255.6 370.7 260.65 367.5 257.15 366.75 256.55 367.2 255.25 369.25 248.45 363.1 245.8 354.4 241.2 345.75 246.9 343.5 252.1 340.85 256.55 347.0 258.1 353.95 256.85 354.55 256.85 354.9 257.65 355.5 262.2 350.6 262.55 L343.05 262.35 337.35 261.25 332.0 266.95 Q327.4 271.4 322.05 269.8 316.65 268.4 319.05 262.85 320.6 258.1 324.25 255.1 L325.2 254.3 Q323.0 252.1 321.25 249.6 317.95 245.3 320.6 241.05 320.75 240.6 321.55 240.4 324.4 242.15 325.65 246.25 326.15 248.65 327.9 249.9 L329.15 251.0 Q335.6 246.1 342.75 242.45 347.0 232.85 352.7 224.15 L353.3 223.7 Q357.4 226.2 353.95 231.75 M333.9 254.0 L336.1 255.1 337.65 251.5 Q335.6 252.6 333.9 254.0 M332.95 259.7 Q331.05 258.75 329.45 257.65 326.0 260.65 323.15 264.45 328.5 265.85 332.8 260.0 L332.95 259.7 M286.2 243.4 Q284.75 239.8 288.1 238.85 290.9 240.4 291.85 244.55 L292.8 248.65 293.3 250.55 Q298.05 247.55 302.45 244.2 306.85 246.4 302.6 250.35 298.95 253.55 295.05 255.75 297.1 262.05 299.45 268.2 L304.35 268.85 Q306.55 263.8 309.25 258.9 309.4 258.45 310.05 258.1 314.0 260.8 311.15 266.5 L309.7 269.3 Q316.65 270.25 323.0 274.4 325.2 275.95 323.95 278.8 322.35 282.1 320.3 279.45 319.8 278.95 319.65 278.35 313.8 275.15 307.2 274.7 305.75 277.7 303.85 280.4 304.2 282.6 303.1 284.65 302.3 286.2 300.85 285.45 L299.9 284.5 Q297.55 286.55 294.7 287.95 L289.35 288.1 Q281.9 285.9 283.65 277.55 284.45 272.8 288.25 270.9 291.25 269.3 294.55 268.7 L290.9 257.95 Q285.4 260.5 279.55 261.45 277.95 261.75 277.8 260.0 277.35 255.9 281.6 255.9 283.5 255.75 285.4 254.8 L289.2 252.9 286.2 243.4 M301.65 274.2 Q301.65 274.4 301.8 274.4 L301.8 274.2 301.65 274.2 M287.6 279.1 Q289.2 285.3 295.05 281.95 L297.85 279.75 296.3 273.9 Q290.75 273.9 287.75 279.1 L287.6 279.1" fill="#945c34" fill-rule="evenodd" stroke="none"/>
    <path d="M281.75 241.35 L281.45 241.5 281.75 241.35" fill="#feee98" fill-rule="evenodd" stroke="none"/>
    <path d="M342.25 224.15 L361.7 228.55 371.0 236.45 342.25 224.15 M281.75 241.35 L306.55 222.55 328.2 220.05 302.3 234.25 281.75 241.35 M326.0 233.65 L352.35 230.95 295.8 241.5 326.0 233.65" fill="#ffffff" fill-rule="evenodd" stroke="none"/>
    <path d="M349.7 239.8 L349.85 239.8 360.25 239.0 373.35 243.25 Q367.85 246.1 362.45 249.1 L349.7 239.8 M344.6 261.9 L373.35 252.6 359.65 264.6 344.6 261.9 M292.95 252.6 L306.7 257.0 290.45 261.6 277.2 261.6 292.95 252.6 M311.6 260.8 Q324.9 260.8 338.0 260.95 L281.45 265.2 311.6 260.8" fill="#945b33" fill-opacity="0.5019608" fill-rule="evenodd" stroke="none"/>
    <path d="M326.3 293.5 L309.1 293.5 288.55 286.4 305.3 288.45 326.3 293.5 M346.85 283.85 L367.2 279.9 Q359.3 283.55 351.55 287.35 L330.9 288.75 Q338.8 286.2 346.85 283.85" fill="#945b33" fill-opacity="0.5019608" fill-rule="evenodd" stroke="none"/>
  </g>
</svg>
