<?xml version="1.0" encoding="UTF-8" standalone="no"?>
<svg xmlns:xlink="http://www.w3.org/1999/xlink" height="99.25px" width="71.35px" xmlns="http://www.w3.org/2000/svg">
  <g transform="matrix(1.0, 0.0, 0.0, 1.0, -239.3, -150.85)">
    <path d="M300.55 189.25 L301.2 194.0 300.55 194.45 300.4 194.45 298.75 197.5 Q295.0 204.05 290.5 208.7 282.95 216.65 273.2 219.25 L273.05 219.25 272.9 219.1 Q257.55 210.85 251.05 200.45 L249.95 198.75 Q248.8 196.65 248.0 194.45 L247.55 194.0 248.3 190.95 254.1 168.8 273.35 164.5 294.45 168.8 300.55 189.25" fill="#ffffff" fill-rule="evenodd" stroke="none"/>
    <path d="M300.4 194.45 L297.2 205.8 Q294.9 214.35 279.65 218.3 L273.2 219.25 Q282.95 216.65 290.5 208.7 295.0 204.05 298.75 197.5 L300.4 194.45 M272.9 219.1 L268.95 218.3 Q255.6 213.75 251.35 205.8 L250.3 205.45 248.0 194.45 Q248.8 196.65 249.95 198.75 L251.05 200.45 Q257.55 210.85 272.9 219.1 M247.85 189.1 L242.65 195.4 247.55 188.8 247.85 189.1 M305.9 195.4 L300.9 189.1 301.2 188.8 305.9 195.4" fill="#c4d2d0" fill-rule="evenodd" stroke="none"/>
    <path d="M300.4 194.45 L300.55 194.45 301.2 194.0 300.55 189.25 300.9 189.1 305.9 195.4 306.25 195.55 310.35 215.55 304.7 211.0 304.4 211.0 282.25 221.5 273.2 220.9 273.2 220.75 265.85 221.5 246.15 210.8 239.6 215.55 242.35 195.55 242.65 195.4 247.85 189.1 248.0 189.25 248.3 190.95 247.55 194.0 248.0 194.45 250.3 205.45 251.35 205.8 Q255.6 213.75 268.95 218.3 L272.9 219.1 273.05 219.25 273.2 219.25 279.65 218.3 Q294.9 214.35 297.2 205.8 L300.4 194.45 M289.25 246.15 L310.35 219.1 308.2 231.75 296.3 249.8 289.25 246.15 M239.6 219.1 L259.0 245.85 250.75 248.6 242.35 231.45 239.6 219.1" fill="#5b9f33" fill-rule="evenodd" stroke="none"/>
    <path d="M239.6 215.55 L246.15 210.8 265.85 221.5 263.1 221.85 Q255.4 231.3 257.45 240.8 L259.0 245.85 239.6 219.1 239.6 215.55 M282.25 221.5 L304.4 211.0 304.7 211.0 310.35 215.55 310.35 219.1 289.25 246.15 290.8 241.4 Q292.15 231.6 285.15 221.85 L282.25 221.5" fill="#92d06c" fill-rule="evenodd" stroke="none"/>
    <path d="M248.3 190.95 L248.0 189.25 247.85 189.1 247.55 188.8 242.65 195.4 242.35 195.55 239.6 215.55 239.6 219.1 242.35 231.45 250.75 248.6 259.0 245.85 257.45 240.8 Q255.4 231.3 263.1 221.85 L265.85 221.5 273.2 220.75 273.2 220.9 282.25 221.5 285.15 221.85 Q292.15 231.6 290.8 241.4 L289.25 246.15 296.3 249.8 308.2 231.75 310.35 219.1 310.35 215.55 306.25 195.55 305.9 195.4 300.9 189.1 M300.55 189.25 L294.45 168.8 273.35 164.5 254.1 168.8 248.3 190.95" fill="none" stroke="#000000" stroke-linecap="round" stroke-linejoin="round" stroke-opacity="0.4" stroke-width="0.6000000000000001"/>
    <path d="M273.75 189.95 Q273.9 191.85 273.1 193.3 272.3 194.65 270.8 195.05 269.45 195.6 268.35 194.65 267.15 193.75 266.9 191.85 266.75 190.2 267.55 188.75 268.35 187.25 269.85 186.7 271.2 186.3 272.4 187.25 273.65 188.2 273.75 189.95" fill="#5b9f33" fill-rule="evenodd" stroke="none"/>
    <path d="M242.65 155.5 Q245.4 151.6 250.45 153.95 259.45 158.05 259.45 168.8 L252.55 172.0 Q235.75 163.75 242.65 155.5" fill="#5b9f33" fill-rule="evenodd" stroke="none"/>
    <path d="M242.65 155.5 Q245.4 151.6 250.45 153.95 259.45 158.05 259.45 168.8 L252.55 172.0 Q235.75 163.75 242.65 155.5 Z" fill="none" stroke="#000000" stroke-linecap="round" stroke-linejoin="round" stroke-opacity="0.4" stroke-width="0.6000000000000001"/>
    <path d="M267.85 206.7 L280.7 205.45 281.3 211.55 271.2 216.45 266.0 210.65 267.85 206.7" fill="#5b9f33" fill-rule="evenodd" stroke="none"/>
    <path d="M281.7 188.75 Q282.5 190.2 282.4 191.85 282.1 193.75 281.05 194.65 279.85 195.6 278.5 195.05 277.0 194.65 276.2 193.3 275.4 191.85 275.5 189.95 275.65 188.2 276.85 187.25 278.05 186.3 279.4 186.7 280.9 187.25 281.7 188.75" fill="#5b9f33" fill-rule="evenodd" stroke="none"/>
    <path d="M301.5 152.6 Q310.65 159.1 295.85 172.0 L288.05 170.6 Q285.1 159.75 293.1 153.2 297.6 149.4 301.5 152.6" fill="#5b9f33" fill-rule="evenodd" stroke="none"/>
    <path d="M301.5 152.6 Q297.6 149.4 293.1 153.2 285.1 159.75 288.05 170.6 L295.85 172.0 Q310.65 159.1 301.5 152.6 Z" fill="none" stroke="#000000" stroke-linecap="round" stroke-linejoin="round" stroke-opacity="0.4" stroke-width="0.6000000000000001"/>
  </g>
</svg>
