<?xml version="1.0" encoding="UTF-8" standalone="no"?>
<svg xmlns:xlink="http://www.w3.org/1999/xlink" height="98.15px" width="75.1px" xmlns="http://www.w3.org/2000/svg">
  <g transform="matrix(1.0, 0.0, 0.0, 1.0, -237.4, -151.4)">
    <path d="M301.9 191.8 L302.55 196.8 301.9 197.3 301.75 197.3 299.95 200.5 Q296.05 207.35 291.3 212.25 283.35 220.6 273.1 223.35 L272.95 223.35 272.8 223.15 Q256.65 214.5 249.8 203.55 L248.65 201.8 246.55 197.3 246.1 196.8 246.9 193.6 247.45 191.4 253.0 170.25 273.25 165.75 295.45 170.25 301.9 191.8" fill="#ffffff" fill-rule="evenodd" stroke="none"/>
    <path d="M301.75 197.3 L298.35 209.2 Q295.95 218.2 279.85 222.35 L273.1 223.35 Q283.35 220.6 291.3 212.25 296.05 207.35 299.95 200.5 L301.75 197.3 M272.8 223.15 L268.6 222.35 Q254.55 217.6 250.1 209.2 L249.0 208.85 246.55 197.3 248.65 201.8 249.8 203.55 Q256.65 214.5 272.8 223.15 M307.5 198.25 L302.2 191.65 302.55 191.35 307.5 198.25" fill="#c4d2d0" fill-rule="evenodd" stroke="none"/>
    <path d="M301.9 191.8 L302.2 191.65 307.5 198.25 307.85 198.4 312.2 219.5 306.25 214.65 305.9 214.65 282.6 225.75 273.1 225.1 273.1 224.95 265.4 225.75 244.65 214.5 237.7 219.5 240.6 198.4 240.95 198.25 246.6 192.15 240.95 198.25 246.4 191.65 246.55 191.8 246.6 192.15 246.9 193.6 246.1 196.8 246.55 197.3 249.0 208.85 250.1 209.2 Q254.55 217.6 268.6 222.35 L272.8 223.15 272.95 223.35 273.1 223.35 279.85 222.35 Q295.95 218.2 298.35 209.2 L301.75 197.3 301.9 197.3 302.55 196.8 301.9 191.8 M312.2 223.15 L309.95 236.5 301.1 249.25 292.25 247.0 312.2 223.15 M237.7 223.15 L255.9 246.65 246.55 248.9 240.6 236.2 237.7 223.15" fill="#cfc172" fill-rule="evenodd" stroke="none"/>
    <path d="M237.7 219.5 L244.65 214.5 265.4 225.75 262.5 226.05 Q254.35 236.05 256.55 246.0 L255.9 246.65 237.7 223.15 237.7 219.5 M282.6 225.75 L305.9 214.65 306.25 214.65 312.2 219.5 312.2 223.15 292.25 247.0 291.6 246.65 Q293.0 236.35 285.65 226.05 L282.6 225.75" fill="#eee3a4" fill-rule="evenodd" stroke="none"/>
    <path d="M301.9 191.8 L295.45 170.25 273.25 165.75 253.0 170.25 247.45 191.4 246.9 193.6" fill="none" stroke="#000000" stroke-linecap="round" stroke-linejoin="round" stroke-opacity="0.4" stroke-width="0.6000000000000001"/>
    <path d="M246.6 192.15 L240.95 198.25 240.6 198.4 237.7 219.5 237.7 223.15 240.6 236.2 246.55 248.9 255.9 246.65 256.55 246.0 Q254.35 236.05 262.5 226.05 L265.4 225.75 273.1 224.95 273.1 225.1 282.6 225.75 285.65 226.05 Q293.0 236.35 291.6 246.65 L292.25 247.0 301.1 249.25 309.95 236.5 312.2 223.15 312.2 219.5 307.85 198.4 307.5 198.25 302.2 191.65 M247.45 191.4 L246.6 192.15" fill="none" stroke="#000000" stroke-linecap="round" stroke-linejoin="round" stroke-opacity="0.4" stroke-width="0.6000000000000001"/>
    <path d="M272.9 189.4 Q273.3 194.9 270.95 199.2 268.6 203.15 264.25 204.3 260.35 205.85 257.2 203.15 253.7 200.4 252.9 194.9 252.5 190.2 254.85 185.9 257.2 181.6 261.55 180.0 265.45 178.85 268.95 181.6 272.5 184.35 272.9 189.4" fill="#cfc172" fill-rule="evenodd" stroke="none"/>
    <path d="M240.95 156.25 Q243.8 152.2 249.15 154.65 258.6 158.95 258.65 170.25 L251.4 173.65 Q233.7 164.95 240.95 156.25" fill="#cfc172" fill-rule="evenodd" stroke="none"/>
    <path d="M240.95 156.25 Q243.8 152.2 249.15 154.65 258.6 158.95 258.65 170.25 L251.4 173.65 Q233.7 164.95 240.95 156.25 Z" fill="none" stroke="#000000" stroke-linecap="round" stroke-linejoin="round" stroke-opacity="0.4" stroke-width="0.6000000000000001"/>
    <path d="M271.0 220.45 Q268.1 217.55 265.55 214.3 L267.45 210.15 280.95 208.85 281.6 215.3 Q276.15 217.85 271.0 220.45" fill="#cfc172" fill-rule="evenodd" stroke="none"/>
    <path d="M293.15 185.9 Q295.5 190.2 295.1 194.9 294.3 200.4 291.2 203.15 287.65 205.85 283.75 204.3 279.45 203.15 277.1 199.2 274.75 194.9 275.1 189.4 275.5 184.35 279.05 181.6 282.55 178.85 286.5 180.0 290.8 181.6 293.15 185.9" fill="#cfc172" fill-rule="evenodd" stroke="none"/>
    <path d="M296.9 173.65 L288.7 172.2 Q285.6 160.75 294.0 153.85 298.75 149.9 302.85 153.2 312.5 160.05 296.9 173.65" fill="#cfc172" fill-rule="evenodd" stroke="none"/>
    <path d="M296.9 173.65 Q312.5 160.05 302.85 153.2 298.75 149.9 294.0 153.85 285.6 160.75 288.7 172.2 L296.9 173.65 Z" fill="none" stroke="#000000" stroke-linecap="round" stroke-linejoin="round" stroke-opacity="0.4" stroke-width="0.6000000000000001"/>
  </g>
</svg>
