<?xml version="1.0" encoding="UTF-8" standalone="no"?>
<svg xmlns:xlink="http://www.w3.org/1999/xlink" height="97.5px" width="72.1px" xmlns="http://www.w3.org/2000/svg">
  <g transform="matrix(1.0, 0.0, 0.0, 1.0, -238.9, -151.7)">
    <path d="M247.45 200.45 L247.3 200.15 246.9 199.75 254.2 171.65 275.55 166.8 298.95 171.65 305.85 194.45 306.4 199.75 305.85 200.15 305.7 200.15 305.25 200.9 303.8 203.55 Q301.2 208.05 298.25 211.75 L294.55 215.95 Q290.7 220.05 286.4 222.85 282.1 225.55 277.45 227.1 L275.4 227.65 275.25 227.65 275.1 227.5 273.95 226.95 Q270.7 225.15 267.8 223.3 258.15 216.9 252.6 209.55 L250.7 206.75 249.5 205.0 Q248.3 202.8 247.45 200.6 L247.45 200.45" fill="#ffffff" fill-rule="evenodd" stroke="none"/>
    <path d="M247.45 200.45 L247.45 200.6 Q248.3 202.8 249.5 205.0 L250.7 206.75 252.6 209.55 Q258.15 216.9 267.8 223.3 270.7 225.15 273.95 226.95 L275.1 227.5 272.65 227.1 270.6 226.65 Q255.8 221.6 251.15 212.75 L249.95 212.45 247.45 200.6 245.85 202.5 247.45 200.45 M275.4 227.65 L277.45 227.1 Q282.1 225.55 286.4 222.85 290.7 220.05 294.55 215.95 L298.25 211.75 Q301.2 208.05 303.8 203.55 L305.25 200.9 305.7 200.15 305.4 201.05 306.4 202.5 305.4 201.2 302.05 212.75 Q299.55 222.25 282.6 226.65 L278.75 227.25 275.4 227.65" fill="#c4d2d0" fill-rule="evenodd" stroke="none"/>
    <path d="M306.4 202.5 L306.7 202.65 310.65 221.8 305.25 217.45 304.95 217.45 283.75 227.5 278.75 227.25 282.6 226.65 Q299.55 222.25 302.05 212.75 L305.4 201.2 306.4 202.5 M310.65 225.2 L308.6 237.3 300.55 248.9 292.5 246.85 310.65 225.2 M268.1 227.5 L249.25 217.3 242.95 221.8 245.55 202.65 245.85 202.5 247.45 200.6 249.95 212.45 251.15 212.75 Q255.8 221.6 270.6 226.65 L272.65 227.1 268.1 227.5 M242.95 225.2 L259.45 246.55 251.0 248.6 245.55 237.05 242.95 225.2" fill="#9e3434" fill-rule="evenodd" stroke="none"/>
    <path d="M310.65 221.8 L310.65 225.2 292.5 246.85 291.95 246.55 Q293.25 237.15 286.55 227.8 L283.75 227.5 304.95 217.45 305.25 217.45 310.65 221.8 M268.1 227.5 L265.45 227.8 Q258.05 236.9 260.05 245.95 L259.45 246.55 242.95 225.2 242.95 221.8 249.25 217.3 268.1 227.5" fill="#ca5e5e" fill-rule="evenodd" stroke="none"/>
    <path d="M305.7 200.15 L305.85 200.15 306.4 199.75 305.85 194.45 298.95 171.65 275.55 166.8 254.2 171.65 246.9 199.75 247.3 200.15 247.45 200.45" fill="none" stroke="#000000" stroke-linecap="round" stroke-linejoin="round" stroke-opacity="0.4" stroke-width="0.6000000000000001"/>
    <path d="M305.7 200.15 L305.4 201.05 306.4 202.5 306.7 202.65 310.65 221.8 310.65 225.2 308.6 237.3 300.55 248.9 292.5 246.85 291.95 246.55 Q293.25 237.15 286.55 227.8 L283.75 227.5 278.75 227.25 275.4 227.65 M259.45 246.55 L260.05 245.95 Q258.05 236.9 265.45 227.8 L268.1 227.5 272.65 227.1 275.1 227.5 M242.95 221.8 L242.95 225.2 245.55 237.05 251.0 248.6 259.45 246.55 M247.45 200.6 L245.85 202.5 245.55 202.65 242.95 221.8" fill="none" stroke="#000000" stroke-linecap="round" stroke-linejoin="round" stroke-opacity="0.4" stroke-width="0.6000000000000001"/>
    <path d="M275.25 195.9 Q275.5 199.05 274.15 201.45 272.8 203.7 270.4 204.35 268.15 205.25 266.4 203.7 264.4 202.15 263.95 199.05 263.7 196.35 265.05 193.9 266.4 191.5 268.8 190.6 271.05 189.95 273.05 191.5 275.05 193.05 275.25 195.9" fill="#9e3434" fill-rule="evenodd" stroke="none"/>
    <path d="M252.45 175.2 Q233.75 166.05 241.4 156.85 244.45 152.5 250.1 155.15 260.1 159.65 260.1 171.6 L252.45 175.2" fill="#9e3434" fill-rule="evenodd" stroke="none"/>
    <path d="M252.45 175.2 Q233.75 166.05 241.4 156.85 244.45 152.5 250.1 155.15 260.1 159.65 260.1 171.6 L252.45 175.2 Z" fill="none" stroke="#000000" stroke-linecap="round" stroke-linejoin="round" stroke-opacity="0.4" stroke-width="0.6000000000000001"/>
    <path d="M273.15 224.6 Q270.1 221.55 267.4 218.15 L269.45 213.75 283.7 212.35 284.4 219.15 Q278.6 221.9 273.15 224.6" fill="#9e3434" fill-rule="evenodd" stroke="none"/>
    <path d="M288.35 193.9 Q289.7 196.35 289.45 199.05 289.0 202.15 287.25 203.7 285.25 205.25 283.05 204.35 280.6 203.7 279.25 201.45 277.95 199.05 278.15 195.9 278.35 193.05 280.35 191.5 282.35 189.95 284.6 190.6 287.05 191.5 288.35 193.9" fill="#9e3434" fill-rule="evenodd" stroke="none"/>
    <path d="M306.8 153.6 Q317.0 160.85 300.55 175.2 L291.85 173.65 Q288.6 161.6 297.5 154.3 302.5 150.1 306.8 153.6" fill="#9e3434" fill-rule="evenodd" stroke="none"/>
    <path d="M306.8 153.6 Q302.5 150.1 297.5 154.3 288.6 161.6 291.85 173.65 L300.55 175.2 Q317.0 160.85 306.8 153.6 Z" fill="none" stroke="#000000" stroke-linecap="round" stroke-linejoin="round" stroke-opacity="0.4" stroke-width="0.6000000000000001"/>
  </g>
</svg>
