<?xml version="1.0" encoding="UTF-8" standalone="no"?>
<svg xmlns:xlink="http://www.w3.org/1999/xlink" height="126.85px" width="91.95px" xmlns="http://www.w3.org/2000/svg">
  <g transform="matrix(1.0, 0.0, 0.0, 1.0, 45.75, 63.4)">
    <path d="M-42.2 -30.2 Q-45.0 -32.7 -41.8 -37.2 -38.6 -47.85 -29.05 -42.6 -28.2 -55.55 -18.05 -49.8 -7.4 -61.85 -3.05 -53.05 -1.7 -58.45 3.0 -56.35 11.25 -69.15 14.15 -58.75 L14.7 -56.35 Q18.95 -53.75 13.2 -52.35 14.35 -45.5 6.55 -46.4 13.7 -42.15 6.55 -40.85 6.4 -36.6 0.3 -35.3 6.9 -34.05 5.1 -30.15 5.65 -21.95 -0.85 -22.0 L1.65 -20.5 Q2.65 -9.85 -12.45 -13.8 -14.65 -10.05 -20.25 -12.4 -24.0 -4.15 -28.6 -11.9 -39.45 -12.8 -36.5 -21.5 -41.4 -23.2 -39.7 -28.7 -41.3 -29.35 -42.2 -30.2 M6.2 -54.35 Q4.45 -55.75 3.0 -56.35 4.45 -55.75 6.2 -54.35 M-16.65 -48.95 L-18.05 -49.8 -16.65 -48.95 M-3.05 -53.05 Q-3.6 -50.95 -3.6 -47.6 -3.6 -50.95 -3.05 -53.05 M-25.65 -40.4 L-29.05 -42.6 -25.65 -40.4 M-6.8 -25.7 Q2.0 -22.6 1.5 -33.75 -3.95 -30.65 -6.8 -25.7" fill="#acc840" fill-rule="evenodd" stroke="none"/>
    <path d="M-41.8 11.05 Q-44.8 7.5 -41.85 0.8 -49.95 -7.9 -41.2 -16.55 -47.3 -20.5 -42.2 -30.2 -41.3 -29.35 -39.7 -28.7 -41.4 -23.2 -36.5 -21.5 -39.45 -12.8 -28.6 -11.9 -24.0 -4.15 -20.25 -12.4 -14.65 -10.05 -12.45 -13.8 2.65 -9.85 1.65 -20.5 6.0 -18.1 8.4 -18.25 12.55 -12.15 5.45 -8.7 9.6 -1.85 5.45 1.3 12.7 6.9 5.45 9.8 6.25 22.9 -2.7 15.0 2.85 22.8 -3.8 23.85 -8.7 30.55 -16.0 23.55 -21.2 29.25 -28.9 21.0 -36.7 25.85 -39.0 13.1 -40.75 12.25 -41.8 11.05 M26.85 -11.3 Q33.85 -4.45 26.85 -2.3 33.3 3.05 22.45 5.0 25.5 3.2 25.0 -2.05 L19.9 -3.9 Q27.35 -5.05 26.85 -11.3 M-41.85 0.8 L-40.3 2.35 -41.85 0.8" fill="#ffcc00" fill-rule="evenodd" stroke="none"/>
    <path d="M14.15 -58.75 Q27.2 -62.55 24.4 -51.7 L27.45 -51.85 Q28.25 -43.5 21.25 -39.5 27.4 -34.0 16.5 -30.75 20.25 -24.9 11.35 -23.5 11.75 -18.4 8.4 -18.25 6.0 -18.1 1.65 -20.5 L-0.85 -22.0 Q5.65 -21.95 5.1 -30.15 6.9 -34.05 0.3 -35.3 6.4 -36.6 6.55 -40.85 13.7 -42.15 6.55 -46.4 14.35 -45.5 13.2 -52.35 18.95 -53.75 14.7 -56.35 L14.15 -58.75 M23.85 -49.85 L24.4 -51.7 23.85 -49.85 M-6.8 -25.7 Q-3.95 -30.65 1.5 -33.75 2.0 -22.6 -6.8 -25.7" fill="#7a8e28" fill-rule="evenodd" stroke="none"/>
    <path d="M27.45 -51.85 Q34.1 -51.25 29.5 -41.1 L29.45 -41.0 Q34.6 -32.45 26.65 -28.1 35.15 -24.9 31.25 -18.4 40.4 -18.55 37.5 -10.2 43.0 -8.0 39.9 1.35 L38.85 4.1 Q38.6 8.5 33.95 7.2 36.85 19.8 25.1 15.15 21.95 22.65 14.15 19.05 16.95 25.8 8.45 23.2 L6.2 22.4 Q0.4 29.0 -3.8 23.85 2.85 22.8 -2.7 15.0 6.25 22.9 5.45 9.8 12.7 6.9 5.45 1.3 9.6 -1.85 5.45 -8.7 12.55 -12.15 8.4 -18.25 11.75 -18.4 11.35 -23.5 20.25 -24.9 16.5 -30.75 27.4 -34.0 21.25 -39.5 28.25 -43.5 27.45 -51.85 M28.5 -39.05 L29.45 -41.0 28.5 -39.05 M25.15 -27.4 L26.65 -28.1 25.15 -27.4 M28.35 -14.8 Q30.2 -16.75 31.25 -18.4 30.2 -16.75 28.35 -14.8 M37.5 -10.2 Q35.45 -10.55 32.7 -10.3 35.45 -10.55 37.5 -10.2 M26.85 -11.3 Q27.35 -5.05 19.9 -3.9 L25.0 -2.05 Q25.5 3.2 22.45 5.0 33.3 3.05 26.85 -2.3 33.85 -4.45 26.85 -11.3" fill="#d7ac00" fill-rule="evenodd" stroke="none"/>
    <path d="M39.9 1.35 Q45.4 6.6 40.55 13.1 49.75 17.4 41.65 25.15 49.55 24.6 43.8 36.9 43.95 49.05 35.0 46.75 35.3 54.95 20.85 52.6 17.25 60.05 10.3 55.8 5.65 66.5 -4.85 59.9 -4.5 58.25 -4.5 55.8 2.85 58.05 2.15 48.25 9.85 48.9 6.9 40.15 10.25 35.45 1.4 33.5 10.5 30.45 8.45 23.2 16.95 25.8 14.15 19.05 21.95 22.65 25.1 15.15 36.85 19.8 33.95 7.2 38.6 8.5 38.85 4.1 L39.9 1.35 M39.05 14.9 L40.55 13.1 39.05 14.9 M39.25 25.65 L41.65 25.15 39.25 25.65 M21.6 50.8 L20.85 52.6 21.6 50.8 M10.3 55.8 L6.75 53.05 10.3 55.8 M35.0 46.75 Q33.35 46.3 31.5 45.45 33.35 46.3 35.0 46.75 M-10.95 45.65 Q-4.4 44.9 -2.65 37.6 2.25 50.7 -10.95 45.65" fill="#a60000" fill-rule="evenodd" stroke="none"/>
    <path d="M-4.85 59.9 Q-6.4 67.75 -15.2 58.25 -23.9 64.15 -24.65 53.95 -34.0 51.9 -31.4 43.75 -39.65 45.7 -39.25 31.85 -44.05 28.2 -39.2 22.05 -46.6 17.6 -41.8 11.05 -40.75 12.25 -39.0 13.1 -36.7 25.85 -28.9 21.0 -21.2 29.25 -16.0 23.55 -8.7 30.55 -3.8 23.85 0.4 29.0 6.2 22.4 L8.45 23.2 Q10.5 30.45 1.4 33.5 10.25 35.45 6.9 40.15 9.85 48.9 2.15 48.25 2.85 58.05 -4.5 55.8 -4.5 58.25 -4.85 59.9 M-36.85 31.05 L-39.25 31.85 -36.85 31.05 M-27.05 41.85 Q-29.5 43.25 -31.4 43.75 -29.5 43.25 -27.05 41.85 M-10.95 45.65 Q2.25 50.7 -2.65 37.6 -4.4 44.9 -10.95 45.65 M-11.0 54.85 L-15.2 58.25 -11.0 54.85 M-24.65 53.95 L-24.6 48.55 -24.65 53.95" fill="#cc0000" fill-rule="evenodd" stroke="none"/>
    <path d="M-42.2 -30.2 Q-45.0 -32.7 -41.8 -37.2 -38.6 -47.85 -29.05 -42.6 -28.2 -55.55 -18.05 -49.8 -7.4 -61.85 -3.05 -53.05 -1.7 -58.45 3.0 -56.35 11.25 -69.15 14.15 -58.75 27.2 -62.55 24.4 -51.7 L27.45 -51.85 Q34.1 -51.25 29.5 -41.1 L29.45 -41.0 Q34.6 -32.45 26.65 -28.1 35.15 -24.9 31.25 -18.4 40.4 -18.55 37.5 -10.2 43.0 -8.0 39.9 1.35 45.4 6.6 40.55 13.1 49.75 17.4 41.65 25.15 49.55 24.6 43.8 36.9 43.95 49.05 35.0 46.75 35.3 54.95 20.85 52.6 17.25 60.05 10.3 55.8 5.65 66.5 -4.85 59.9 -6.4 67.75 -15.2 58.25 -23.9 64.15 -24.65 53.95 -34.0 51.9 -31.4 43.75 -39.65 45.7 -39.25 31.85 -44.05 28.2 -39.2 22.05 -46.6 17.6 -41.8 11.05 -44.8 7.5 -41.85 0.8 -49.95 -7.9 -41.2 -16.55 -47.3 -20.5 -42.2 -30.2 -41.3 -29.35 -39.7 -28.7 M14.7 -56.35 L14.15 -58.75 M3.0 -56.35 Q4.45 -55.75 6.2 -54.35 M24.4 -51.7 L23.85 -49.85 M26.65 -28.1 L25.15 -27.4 M29.45 -41.0 L28.5 -39.05 M38.85 4.1 L39.9 1.35 M32.7 -10.3 Q35.45 -10.55 37.5 -10.2 M31.25 -18.4 Q30.2 -16.75 28.35 -14.8 M-4.5 55.8 Q-4.5 58.25 -4.85 59.9 M31.5 45.45 Q33.35 46.3 35.0 46.75 M6.75 53.05 L10.3 55.8 M20.85 52.6 L21.6 50.8 M41.65 25.15 L39.25 25.65 M40.55 13.1 L39.05 14.9 M-29.05 -42.6 L-25.65 -40.4 M-3.6 -47.6 Q-3.6 -50.95 -3.05 -53.05 M-18.05 -49.8 L-16.65 -48.95 M-31.4 43.75 Q-29.5 43.25 -27.05 41.85 M-39.25 31.85 L-36.85 31.05 M-15.2 58.25 L-11.0 54.85 M-41.8 11.05 Q-40.75 12.25 -39.0 13.1 M-24.6 48.55 L-24.65 53.95 M-40.3 2.35 L-41.85 0.8" fill="none" stroke="#000000" stroke-linecap="round" stroke-linejoin="round" stroke-opacity="0.5411765" stroke-width="0.05"/>
  </g>
</svg>
