<?xml version="1.0" encoding="UTF-8" standalone="no"?>
<svg xmlns:xlink="http://www.w3.org/1999/xlink" height="30.6px" width="22.2px" xmlns="http://www.w3.org/2000/svg">
  <g transform="matrix(1.0, 0.0, 0.0, 1.0, 11.1, 15.3)">
    <path d="M-2.15 -12.5 L-1.55 -12.5 1.1 -15.1 1.65 -13.9 2.7 -14.4 1.95 -11.85 1.15 -11.4 0.75 -11.2 0.35 -10.95 -0.05 -10.75 1.0 -11.9 0.75 -11.2 1.0 -11.9 1.2 -12.55 0.5 -13.1 -0.8 -11.5 -1.5 -10.9 -2.15 -10.4 -2.15 -12.05 -2.15 -12.5 M3.25 -14.65 L3.8 -14.95 4.5 -14.3 4.45 -13.2 3.6 -12.7 2.8 -12.3 3.25 -14.65 M5.2 -13.7 L5.75 -14.15 5.75 -15.3 7.35 -13.8 7.35 -14.4 8.55 -13.2 8.55 -11.45 8.25 -11.65 6.95 -12.5 6.55 -12.75 5.9 -11.35 4.8 -12.75 5.2 -13.7 M1.65 -13.9 L1.2 -12.55 1.65 -13.9 M5.75 -14.15 L6.95 -13.35 6.95 -12.5 6.95 -13.35 5.75 -14.15 M6.95 -13.35 L7.35 -13.8 6.95 -13.35" fill="#aa8b20" fill-rule="evenodd" stroke="none"/>
    <path d="M-2.4 -13.15 L-2.15 -12.5 -2.15 -12.05 -4.8 -9.5 -4.55 -10.85 -2.4 -13.15 M10.25 -10.05 L10.4 -8.9 10.45 -8.3 9.55 -7.65 6.95 -12.5 8.25 -11.65 9.45 -9.15 10.25 -10.05 M10.4 -6.8 L10.0 -4.7 9.65 -3.75 7.95 -3.8 8.05 -1.3 7.85 -1.05 7.5 -2.65 7.1 -2.15 7.1 -4.25 8.85 -4.25 9.95 -6.8 10.4 -6.8 M-3.2 -2.35 L-3.55 -2.7 -3.7 -3.0 -2.3 -4.05 -1.55 -1.35 -2.1 -1.25 -2.5 -1.65 -2.55 -3.0 -3.2 -2.35 M-4.9 -7.65 L-4.85 -8.55 -3.3 -8.55 -3.3 -7.5 -4.9 -7.65 M-1.5 -10.9 L-0.8 -11.5 -0.45 -11.15 0.0 -8.8 -1.25 -8.1 -1.75 -7.15 -1.75 -5.75 -2.55 -5.1 -3.5 -4.4 -3.5 -5.65 -2.9 -6.2 -2.55 -5.1 -2.9 -6.2 -2.45 -6.6 -2.45 -8.55 -1.5 -9.5 -1.5 -10.9 M0.35 -10.95 L0.75 -11.2 1.15 -11.4 1.8 -9.25 3.5 -9.75 2.8 -12.3 3.6 -12.7 4.45 -8.8 3.4 -7.05 3.4 -6.05 3.4 -5.3 3.85 -4.95 4.35 -4.6 3.85 -3.6 2.8 -5.05 2.8 -7.4 3.75 -8.9 1.2 -8.0 0.35 -10.95 M4.8 -12.75 L5.9 -11.35 5.9 -9.85 5.35 -9.85 4.8 -12.75 M2.5 -2.85 L3.55 -0.55 2.95 -0.55 1.9 -2.5 2.5 -2.85 1.9 -2.5 1.2 -3.8 -0.45 -2.75 0.2 -1.8 -0.95 -1.5 -1.5 -3.3 0.6 -4.5 0.6 -5.75 -0.9 -5.05 -0.9 -6.35 1.8 -7.15 1.8 -4.35 2.5 -2.85 M4.55 -1.1 L5.75 -6.0 5.15 -8.55 5.7 -8.7 6.4 -6.7 7.35 -6.2 7.85 -6.95 6.8 -9.45 7.35 -10.2 8.65 -6.9 7.95 -4.95 6.75 -5.4 5.75 -1.25 5.5 -1.7 4.55 -1.1 M3.85 -3.6 L3.85 -4.95 3.85 -3.6" fill="#f2e7bf" fill-rule="evenodd" stroke="none"/>
    <path d="M8.55 -13.2 L8.55 -14.05 9.55 -12.9 10.25 -10.05 9.45 -9.15 8.25 -11.65 8.55 -11.45 8.55 -13.2 M10.45 -8.3 L10.4 -6.8 9.95 -6.8 8.85 -4.25 7.1 -4.25 7.1 -2.15 6.0 -0.75 5.75 -1.25 6.75 -5.4 7.95 -4.95 8.65 -6.9 7.35 -10.2 6.8 -9.45 7.85 -6.95 7.35 -6.2 6.4 -6.7 5.7 -8.7 5.15 -8.55 5.75 -6.0 4.55 -1.1 3.55 -0.55 2.5 -2.85 3.85 -3.6 2.5 -2.85 1.8 -4.35 1.8 -7.15 -0.9 -6.35 -0.9 -5.05 0.6 -5.75 0.6 -4.5 -1.5 -3.3 -0.95 -1.5 -1.55 -1.35 -2.3 -4.05 -3.7 -3.0 -4.45 -4.7 -4.6 -5.3 -4.9 -7.65 -3.3 -7.5 -2.9 -6.2 -3.3 -7.5 -4.6 -5.3 -3.3 -7.5 -3.3 -8.55 -3.3 -8.9 -2.15 -10.4 -3.3 -8.9 -3.3 -8.55 -4.85 -8.55 -4.85 -9.0 -4.8 -9.5 -2.15 -12.05 -2.15 -10.4 -1.5 -10.9 -1.5 -9.5 -2.45 -8.55 -2.45 -6.6 -2.9 -6.2 -3.5 -5.65 -3.5 -4.4 -2.55 -5.1 -1.75 -5.75 -1.75 -7.15 -1.25 -8.1 0.0 -8.8 -0.45 -11.15 -0.05 -10.75 0.35 -10.95 1.2 -8.0 3.75 -8.9 2.8 -7.4 2.8 -5.05 3.85 -3.6 4.35 -4.6 3.85 -4.95 3.4 -6.05 3.85 -4.95 3.4 -5.3 3.4 -6.05 3.4 -7.05 4.45 -8.8 3.6 -12.7 4.45 -13.2 4.8 -12.75 5.35 -9.85 5.9 -9.85 5.9 -11.35 6.55 -12.75 6.95 -12.5 9.55 -7.65 10.45 -8.3 M9.65 -3.75 L8.8 -2.3 8.4 -1.75 8.05 -1.3 7.95 -3.8 9.65 -3.75 M-2.85 -2.0 L-3.2 -2.35 -2.55 -3.0 -2.5 -1.65 -2.85 -2.0 M-4.55 -10.85 L-4.15 -12.45 -2.85 -14.4 -2.4 -13.15 -4.55 -10.85 M1.95 -11.85 L2.8 -12.3 3.5 -9.75 1.8 -9.25 1.15 -11.4 1.95 -11.85 M1.9 -2.5 L2.95 -0.55 2.4 -0.55 0.85 -1.95 0.2 -1.8 -0.45 -2.75 1.2 -3.8 1.9 -2.5 0.85 -1.95 1.9 -2.5" fill="#e7d083" fill-rule="evenodd" stroke="none"/>
    <path d="M2.7 -14.4 L3.25 -14.65 2.8 -12.3 1.95 -11.85 2.7 -14.4 M4.5 -14.3 L5.2 -13.7 4.8 -12.75 4.45 -13.2 4.5 -14.3 M-0.8 -11.5 L0.5 -13.1 1.2 -12.55 1.0 -11.9 -0.05 -10.75 -0.45 -11.15 -0.8 -11.5" fill="#d7b02f" fill-rule="evenodd" stroke="none"/>
    <path d="M8.8 -2.3 L9.35 0.05 8.65 0.55 7.1 1.65 7.1 0.4 5.4 1.9 5.4 0.15 4.9 0.5 3.65 0.7 2.45 0.85 1.15 -0.4 0.25 0.15 -2.1 -1.25 -1.55 -1.35 -0.95 -1.5 0.2 -1.8 0.85 -1.95 2.4 -0.55 2.95 -0.55 3.55 -0.55 4.55 -1.1 5.5 -1.7 5.75 -1.25 6.0 -0.75 7.1 -2.15 7.5 -2.65 7.85 -1.05 8.05 -1.3 8.4 -1.75 8.8 -2.3" fill="#475647" fill-rule="evenodd" stroke="none"/>
    <path d="M-9.35 11.05 L-9.65 10.6 -8.65 7.2 -7.55 9.1 -5.95 9.1 -5.5 8.95 -4.9 8.9 -4.6 10.5 -5.6 10.55 -6.6 10.25 Q-8.75 9.85 -9.35 11.05 M-5.25 5.0 L-4.85 4.0 -3.95 3.8 -3.55 2.95 -1.5 2.1 -0.95 0.75 0.45 1.1 2.0 0.9 0.3 2.35 1.9 2.35 3.65 0.7 4.9 0.5 5.4 0.15 5.4 1.9 7.1 0.4 7.1 1.65 8.65 0.55 8.05 3.45 6.9 4.55 6.0 3.4 4.1 2.6 3.4 3.4 5.3 4.3 6.3 5.15 5.75 5.65 5.75 6.95 4.6 6.5 3.3 4.45 2.6 4.45 3.55 6.15 2.55 5.75 2.55 7.65 2.0 8.15 1.3 7.6 0.75 8.55 1.3 8.75 0.45 9.45 -1.0 8.55 -1.7 9.0 -0.15 10.0 -0.3 10.1 -4.05 10.45 -4.35 8.9 -2.05 8.7 -0.7 7.75 -1.35 5.85 -2.65 5.9 -1.1 5.25 -0.8 4.8 -0.4 4.1 1.2 4.55 1.4 3.2 -1.25 3.2 -3.15 3.95 -1.35 4.0 -2.0 4.7 -4.1 5.55 -5.25 5.0 M-3.15 2.2 L-2.8 1.45 -2.8 0.35 -2.2 -0.2 -2.3 0.35 -1.65 0.55 -1.85 1.45 -3.15 2.2 M2.0 5.7 Q0.75 5.05 -0.8 4.8 0.75 5.05 2.0 5.7 M-2.0 4.7 L-4.05 4.7 -2.0 4.7" fill="#7e8f7e" fill-rule="evenodd" stroke="none"/>
    <path d="M-2.2 -0.2 L-2.3 -0.9 -2.85 -2.0 -2.5 -1.65 -2.1 -1.25 0.25 0.15 1.15 -0.4 2.45 0.85 2.0 0.9 0.45 1.1 -0.95 0.75 -1.65 0.55 -2.3 0.35 -2.2 -0.2 M8.65 0.55 L9.35 0.05 Q9.6 3.65 8.65 5.1 L7.6 6.8 6.9 4.55 8.05 3.45 8.65 0.55 M6.65 7.55 L5.75 8.3 3.75 7.25 2.8 8.75 2.0 8.15 2.55 7.65 2.55 5.75 3.55 6.15 4.5 7.05 4.6 6.5 5.75 6.95 5.75 5.65 6.3 5.15 6.65 7.55 M5.25 8.95 L4.05 10.55 3.55 9.2 4.0 8.05 5.25 8.95 M3.6 11.25 L2.45 12.8 1.45 10.05 0.45 9.45 1.3 8.75 2.95 9.35 3.6 11.25 M1.85 12.95 L0.35 13.3 Q-1.5 12.05 -3.95 11.15 L-4.05 10.45 -0.3 10.1 -0.15 10.0 0.85 10.65 1.85 12.95 M-4.55 10.9 L-5.6 10.55 -4.6 10.5 -4.55 10.9 M-3.15 3.95 L-1.25 3.2 1.4 3.2 1.2 4.55 -0.4 4.1 -1.35 4.0 -3.15 3.95 M-3.55 5.9 L-2.65 5.9 -1.35 5.85 -0.7 7.75 -2.05 8.7 -4.35 8.9 -4.4 8.55 -4.35 8.9 -4.9 8.9 -5.5 8.95 -4.95 8.75 -4.4 8.55 -3.95 7.7 -3.5 6.9 -3.25 6.6 Q-3.15 6.25 -3.55 5.9 M-4.9 8.9 L-4.95 8.75 -4.9 8.9" fill="#546554" fill-rule="evenodd" stroke="none"/>
    <path d="M-3.55 2.95 L-3.15 2.2 -1.85 1.45 -1.65 0.55 -0.95 0.75 -1.5 2.1 -3.55 2.95 M7.6 6.8 L6.65 7.55 6.3 5.15 5.3 4.3 3.4 3.4 4.1 2.6 6.0 3.4 6.9 4.55 7.6 6.8 M5.75 8.3 L5.25 8.95 4.0 8.05 3.55 9.2 4.05 10.55 3.6 11.25 2.95 9.35 1.3 8.75 0.75 8.55 1.3 7.6 2.0 8.15 2.8 8.75 3.75 7.25 5.75 8.3 M2.45 12.8 L1.85 12.95 0.85 10.65 -0.15 10.0 -1.7 9.0 -1.0 8.55 0.45 9.45 1.45 10.05 2.45 12.8 M-3.95 11.15 L-4.55 10.9 -4.6 10.5 -4.9 8.9 -4.35 8.9 -4.05 10.45 -3.95 11.15 M2.0 0.9 L2.45 0.85 3.65 0.7 1.9 2.35 0.3 2.35 2.0 0.9 M-0.4 4.1 L-0.8 4.8 -1.1 5.25 -2.65 5.9 -3.55 5.9 -4.1 5.55 -2.0 4.7 -1.35 4.0 -0.4 4.1 M4.6 6.5 L4.5 7.05 3.55 6.15 2.6 4.45 3.3 4.45 4.6 6.5 M-2.0 4.7 L-0.8 4.8 -2.0 4.7" fill="#5c7540" fill-rule="evenodd" stroke="none"/>
    <path d="M-11.0 -2.2 L-11.05 -3.0 -8.95 1.45 -6.6 4.8 -3.25 6.6 -3.5 6.9 -3.95 7.7 -7.35 5.4 -6.75 6.45 -9.15 3.4 -11.0 -2.2" fill="#999999" fill-rule="evenodd" stroke="none"/>
    <path d="M-11.05 -3.0 L-11.1 -4.4 Q-9.65 -0.25 -7.1 3.2 L-5.25 5.0 -4.1 5.55 -3.55 5.9 Q-3.15 6.25 -3.25 6.6 L-6.6 4.8 -8.95 1.45 -11.05 -3.0" fill="#ffffff" fill-rule="evenodd" stroke="none"/>
    <path d="M9.35 0.05 Q10.3 0.75 11.1 3.25 L10.5 6.65 7.8 9.45 7.8 8.65 7.1 8.65 6.6 9.4 3.15 14.45 -0.95 15.3 -7.8 13.4 Q-9.25 12.4 -9.35 11.05 -8.75 9.85 -6.6 10.25 L-5.6 10.55 -4.55 10.9 -3.95 11.15 Q-1.5 12.05 0.35 13.3 L1.85 12.95 2.45 12.8 3.6 11.25 4.05 10.55 5.25 8.95 5.75 8.3 6.65 7.55 7.6 6.8 8.65 5.1 Q9.6 3.65 9.35 0.05" fill="#2a3b2a" fill-rule="evenodd" stroke="none"/>
    <path d="M7.8 9.45 L6.6 9.4 7.1 8.65 7.8 8.65 7.8 9.45 M-8.65 7.2 L-9.35 6.0 Q-10.75 1.9 -11.0 -2.2 L-9.15 3.4 -6.75 6.45 -7.35 5.4 -3.95 7.7 -4.4 8.55 -4.95 8.75 -5.5 8.95 -5.95 9.1 -7.55 9.1 -8.65 7.2" fill="#000000" fill-rule="evenodd" stroke="none"/>
    <path d="M-2.4 -13.15 L-2.15 -12.5 -1.55 -12.5 1.1 -15.1 1.65 -13.9 2.7 -14.4 3.25 -14.65 3.8 -14.95 4.5 -14.3 5.2 -13.7 5.75 -14.15 5.75 -15.3 7.35 -13.8 7.35 -14.4 8.55 -13.2 8.55 -14.05 9.55 -12.9 10.25 -10.05 10.4 -8.9 10.45 -8.3 10.4 -6.8 10.0 -4.7 9.65 -3.75 8.8 -2.3 9.35 0.05 Q10.3 0.75 11.1 3.25 L10.5 6.65 7.8 9.45 6.6 9.4 3.15 14.45 -0.95 15.3 -7.8 13.4 Q-9.25 12.4 -9.35 11.05 L-9.65 10.6 -8.65 7.2 -9.35 6.0 Q-10.75 1.9 -11.0 -2.2 L-11.05 -3.0 -11.1 -4.4 Q-9.65 -0.25 -7.1 3.2 L-5.25 5.0 -4.85 4.0 -3.95 3.8 -3.55 2.95 -3.15 2.2 -2.8 1.45 -2.8 0.35 -2.2 -0.2 -2.3 -0.9 -2.85 -2.0 -3.2 -2.35 -3.55 -2.7 -3.7 -3.0 -4.45 -4.7 -4.6 -5.3 -4.9 -7.65 -4.85 -8.55 -4.85 -9.0 -4.8 -9.5 -4.55 -10.85 -4.15 -12.45 -2.85 -14.4 -2.4 -13.15 M-2.15 -12.5 L-2.15 -12.05 -2.15 -10.4 -1.5 -10.9 -0.8 -11.5 -0.45 -11.15 -0.05 -10.75 0.35 -10.95 0.75 -11.2 1.0 -11.9 1.2 -12.55 1.65 -13.9 M-2.9 -6.2 L-3.3 -7.5 -4.6 -5.3 M1.95 -11.85 L2.8 -12.3 3.6 -12.7 4.45 -13.2 4.8 -12.75 5.9 -11.35 6.55 -12.75 6.95 -12.5 6.95 -13.35 5.75 -14.15 M0.75 -11.2 L1.15 -11.4 1.95 -11.85 M3.4 -6.05 L3.85 -4.95 3.85 -3.6 2.5 -2.85 1.9 -2.5 0.85 -1.95 2.4 -0.55 2.95 -0.55 3.55 -0.55 4.55 -1.1 5.5 -1.7 5.75 -1.25 6.0 -0.75 7.1 -2.15 7.5 -2.65 7.85 -1.05 8.05 -1.3 8.4 -1.75 8.8 -2.3 M6.95 -12.5 L8.25 -11.65 8.55 -11.45 8.55 -13.2 M7.35 -13.8 L6.95 -13.35 M9.35 0.05 Q9.6 3.65 8.65 5.1 L7.6 6.8 6.65 7.55 5.75 8.3 5.25 8.95 4.05 10.55 3.6 11.25 2.45 12.8 1.85 12.95 0.35 13.3 Q-1.5 12.05 -3.95 11.15 L-4.55 10.9 -5.6 10.55 -6.6 10.25 Q-8.75 9.85 -9.35 11.05 M-2.15 -10.4 L-3.3 -8.9 -3.3 -8.55 -3.3 -7.5 M-2.9 -6.2 L-2.55 -5.1 M-0.95 -1.5 L0.2 -1.8 0.85 -1.95 M-2.85 -2.0 L-2.5 -1.65 -2.1 -1.25 -1.55 -1.35 -0.95 -1.5 M-2.2 -0.2 L-2.3 0.35 -1.65 0.55 -0.95 0.75 0.45 1.1 2.0 0.9 2.45 0.85 3.65 0.7 4.9 0.5 M1.2 4.55 L-0.4 4.1 -1.35 4.0 -3.15 3.95 M-0.8 4.8 Q0.75 5.05 2.0 5.7 M-4.05 4.7 L-2.0 4.7 -0.8 4.8 M-4.1 5.55 L-3.55 5.9 Q-3.15 6.25 -3.25 6.6 L-3.5 6.9 -3.95 7.7 -4.4 8.55 -4.95 8.75 -5.5 8.95 -5.95 9.1 -7.55 9.1 -8.65 7.2 M-4.1 5.55 L-5.25 5.0 M6.6 9.4 L7.1 8.65 7.8 8.65 7.8 9.45" fill="none" stroke="#000000" stroke-linecap="round" stroke-linejoin="round" stroke-opacity="0.4" stroke-width="0.05"/>
    <path d="M-2.4 -13.15 L-4.55 -10.85 M-0.8 -11.5 L0.5 -13.1 1.2 -12.55 M1.0 -11.9 L-0.05 -10.75 M-0.45 -11.15 L0.0 -8.8 -1.25 -8.1 -1.75 -7.15 -1.75 -5.75 -2.55 -5.1 -3.5 -4.4 -3.5 -5.65 -2.9 -6.2 -2.45 -6.6 -2.45 -8.55 -1.5 -9.5 -1.5 -10.9 M2.8 -12.3 L3.25 -14.65 M1.95 -11.85 L2.7 -14.4 M4.8 -12.75 L5.2 -13.7 M4.45 -13.2 L4.5 -14.3 M3.6 -12.7 L4.45 -8.8 3.4 -7.05 3.4 -6.05 3.4 -5.3 3.85 -4.95 4.35 -4.6 3.85 -3.6 2.8 -5.05 2.8 -7.4 3.75 -8.9 1.2 -8.0 0.35 -10.95 M2.5 -2.85 L3.55 -0.55 M4.55 -1.1 L5.75 -6.0 5.15 -8.55 5.7 -8.7 6.4 -6.7 7.35 -6.2 7.85 -6.95 6.8 -9.45 7.35 -10.2 8.65 -6.9 7.95 -4.95 6.75 -5.4 5.75 -1.25 M7.1 -2.15 L7.1 -4.25 8.85 -4.25 9.95 -6.8 10.4 -6.8 M10.45 -8.3 L9.55 -7.65 6.95 -12.5 M8.25 -11.65 L9.45 -9.15 10.25 -10.05 M9.65 -3.75 L7.95 -3.8 8.05 -1.3 M1.15 -11.4 L1.8 -9.25 3.5 -9.75 2.8 -12.3 M-3.3 -7.5 L-4.9 -7.65 M-0.95 -1.5 L-1.5 -3.3 0.6 -4.5 0.6 -5.75 -0.9 -5.05 -0.9 -6.35 1.8 -7.15 1.8 -4.35 2.5 -2.85 M1.9 -2.5 L2.95 -0.55 M0.2 -1.8 L-0.45 -2.75 1.2 -3.8 1.9 -2.5 M-2.5 -1.65 L-2.55 -3.0 -3.2 -2.35 M-3.7 -3.0 L-2.3 -4.05 -1.55 -1.35 M5.9 -11.35 L5.9 -9.85 5.35 -9.85 4.8 -12.75 M-4.85 -8.55 L-3.3 -8.55 M-2.15 -12.05 L-4.8 -9.5" fill="none" stroke="#513600" stroke-linecap="round" stroke-linejoin="round" stroke-opacity="0.1882353" stroke-width="0.05"/>
    <path d="M-3.15 2.2 L-1.85 1.45 -1.65 0.55 M3.65 0.7 L1.9 2.35 0.3 2.35 2.0 0.9 M6.9 4.55 L6.0 3.4 4.1 2.6 3.4 3.4 5.3 4.3 6.3 5.15 6.65 7.55 M-0.4 4.1 L-0.8 4.8 -1.1 5.25 -2.65 5.9 M2.0 8.15 L2.8 8.75 3.75 7.25 5.75 8.3 M3.55 6.15 L4.5 7.05 4.6 6.5 3.3 4.45 2.6 4.45 3.55 6.15 M-2.0 4.7 L-1.35 4.0 M-2.0 4.7 L-4.1 5.55 M-4.4 8.55 L-4.35 8.9 -4.05 10.45 -3.95 11.15 M-0.95 0.75 L-1.5 2.1 -3.55 2.95 M-0.15 10.0 L-1.7 9.0 -1.0 8.55 0.45 9.45 1.45 10.05 2.45 12.8 M1.3 8.75 L0.75 8.55 1.3 7.6 2.0 8.15 M5.25 8.95 L4.0 8.05 3.55 9.2 4.05 10.55 M1.3 8.75 L2.95 9.35 3.6 11.25 M1.85 12.95 L0.85 10.65 -0.15 10.0 M7.6 6.8 L6.9 4.55 M-4.95 8.75 L-4.9 8.9 -4.6 10.5 -4.55 10.9" fill="none" stroke="#003300" stroke-linecap="round" stroke-linejoin="round" stroke-opacity="0.4392157" stroke-width="0.05"/>
    <path d="M-2.2 -12.6 L-2.15 -12.5 -1.55 -12.5 1.1 -15.1 1.65 -13.9 3.8 -14.95 5.2 -13.7 5.75 -14.15 5.75 -15.3 7.35 -13.8 7.35 -14.4 8.55 -13.2 8.55 -14.05 9.55 -12.9 10.25 -10.05 10.4 -8.9 10.45 -8.3 10.4 -6.8 10.0 -4.7 9.65 -3.75 8.8 -2.3 9.15 -0.9 Q3.6 0.05 -2.3 -0.9 L-2.4 -1.1 -1.5 -1.55 0.85 -2.05 1.0 -3.1 2.75 -1.35 3.45 -1.9 Q3.95 -2.1 4.45 -2.4 L4.45 -2.5 Q5.6 -4.35 4.7 -6.2 L5.05 -6.4 Q5.7 -6.85 5.65 -7.15 L4.55 -8.3 5.85 -11.5 5.85 -11.6 5.55 -11.95 5.3 -12.05 5.05 -12.15 5.05 -12.3 4.7 -12.7 4.45 -13.3 3.1 -12.6 Q2.85 -12.0 2.15 -11.85 L-0.2 -11.1 -0.3 -11.0 -0.5 -10.85 -0.6 -10.85 -0.75 -11.0 Q-0.95 -11.25 -1.35 -10.8 -1.9 -10.25 -2.2 -10.4 L-2.05 -12.15 -2.1 -12.25 -2.2 -12.6" fill="#000000" fill-opacity="0.30980393" fill-rule="evenodd" stroke="none"/>
  </g>
</svg>
