<?xml version="1.0" encoding="UTF-8" standalone="no"?>
<svg xmlns:xlink="http://www.w3.org/1999/xlink" height="62.2px" width="56.7px" xmlns="http://www.w3.org/2000/svg">
  <g transform="matrix(1.0, 0.0, 0.0, 1.0, 28.35, 31.1)">
    <path d="M-10.7 -15.2 L-11.4 -15.75 -12.4 -16.5 -13.35 -17.35 -13.65 -17.8 Q-14.2 -18.5 -14.3 -19.35 L-14.25 -20.45 -14.1 -20.85 -13.5 -22.0 -11.7 -23.95 -10.85 -24.05 Q-7.7 -24.45 -5.75 -22.05 -0.8 -16.0 -3.95 -8.6 -5.6 -4.65 -6.4 -0.55 L-6.15 1.4 -5.25 4.35 Q-6.7 8.95 -5.85 14.2 -4.7 21.3 -12.0 20.9 -18.8 20.0 -20.85 12.55 L-21.2 11.0 -21.2 10.9 -21.2 10.8 -21.45 9.65 -21.4 9.65 -20.55 11.3 -20.05 12.1 Q-18.9 13.85 -18.45 15.9 L-18.5 15.35 -18.55 14.55 -18.9 11.75 -19.3 10.1 Q-20.1 8.05 -21.5 6.35 L-21.95 5.65 -22.4 5.25 -21.25 5.9 -18.1 8.4 Q-16.55 9.85 -16.0 12.75 -14.75 10.65 -15.3 7.2 -14.15 9.15 -14.9 12.95 L-12.8 10.5 Q-12.7 11.6 -12.9 12.55 -13.3 14.55 -14.35 16.1 -11.8 15.55 -10.25 13.2 -8.8 10.9 -8.3 8.2 L-8.15 7.25 Q-7.75 4.5 -8.05 1.7 -8.15 0.85 -8.4 0.05 -8.15 -2.8 -8.25 -5.6 L-8.35 -7.55 -7.5 -3.75 -7.5 -3.7 -7.4 -1.95 -7.4 -1.25 -7.4 -1.0 Q-6.95 -1.45 -6.65 -2.2 L-6.0 -4.0 -5.2 -6.4 -5.05 -7.5 -4.95 -8.45 -4.55 -9.75 Q-3.45 -13.05 -4.25 -16.4 -5.55 -21.95 -11.1 -22.6 -12.3 -21.95 -13.0 -20.55 L-13.2 -19.7 Q-13.2 -17.85 -11.5 -17.2 L-11.0 -17.1 -10.65 -17.4 -10.7 -18.05 -10.6 -18.45 Q-9.8 -18.95 -9.25 -17.75 -8.7 -16.25 -9.95 -15.35 L-10.7 -15.2 M-15.85 14.0 L-16.0 12.75 -15.85 14.0 M11.95 -3.15 L11.95 -3.65 11.5 -7.15 Q10.7 -10.75 8.65 -14.75 L7.25 -17.75 Q5.65 -21.35 7.1 -25.05 L7.75 -26.35 Q7.3 -23.9 7.65 -21.5 8.1 -17.7 10.2 -14.6 14.2 -8.75 15.6 -1.7 16.1 1.15 16.2 4.05 16.4 10.9 20.3 15.5 22.35 22.15 27.2 19.65 L26.0 20.7 22.95 21.5 Q10.1 24.2 12.55 15.05 14.9 9.6 14.15 4.0 L14.15 3.95 Q13.65 0.45 11.95 -3.15" fill="#f4e06f" fill-rule="evenodd" stroke="none"/>
    <path d="M-11.7 -23.95 L-13.5 -22.0 -14.1 -20.85 -14.25 -20.45 -14.3 -19.35 Q-14.2 -18.5 -13.65 -17.8 L-13.35 -17.35 -12.4 -16.5 -11.4 -15.75 -10.7 -15.2 Q-14.45 -14.5 -15.15 -18.7 -15.9 -23.1 -11.7 -23.95 M-4.95 -8.45 L-5.05 -7.5 -5.2 -6.4 -6.0 -4.0 -6.65 -2.2 Q-6.95 -1.45 -7.4 -1.0 L-7.4 -1.25 -7.4 -1.95 -7.5 -3.7 -7.5 -3.75 -7.4 -3.25 Q-6.0 -5.7 -4.95 -8.45 M-8.4 0.05 Q-8.15 0.85 -8.05 1.7 -7.75 4.5 -8.15 7.25 L-8.3 8.2 Q-8.8 10.9 -10.25 13.2 -11.8 15.55 -14.35 16.1 -13.3 14.55 -12.9 12.55 -12.7 11.6 -12.8 10.5 -9.35 5.9 -8.45 0.35 L-8.4 0.05 M7.75 -26.35 Q9.25 -29.05 12.2 -30.3 15.8 -31.85 19.5 -30.4 23.2 -28.95 24.75 -25.3 26.35 -21.7 24.9 -18.05 23.4 -14.35 20.7 -13.15 17.95 -12.0 16.95 -10.85 15.95 -9.75 15.6 -12.45 15.25 -13.65 16.95 -14.15 L18.6 -14.65 Q21.45 -15.95 22.6 -18.85 23.75 -21.8 22.5 -24.65 21.25 -27.55 18.35 -28.7 15.4 -29.85 12.55 -28.6 9.65 -27.35 8.5 -24.4 7.35 -21.55 8.55 -18.7 L8.6 -18.6 8.9 -18.0 13.6 -11.25 15.2 -8.75 Q18.2 -3.7 18.85 1.3 18.85 10.75 20.3 15.5 16.4 10.9 16.2 4.05 16.1 1.15 15.6 -1.7 14.2 -8.75 10.2 -14.6 8.1 -17.7 7.65 -21.5 7.3 -23.9 7.75 -26.35 M-21.45 9.65 L-21.45 9.6 -21.55 8.6 -21.55 8.55 Q-21.8 7.2 -23.0 6.15 L-24.8 4.4 -25.95 3.0 Q-27.85 -0.3 -25.25 -2.35 L-23.75 -2.7 Q-21.8 -2.7 -20.65 -0.7 -19.85 0.65 -20.75 1.85 L-21.0 1.45 -21.55 0.4 -22.55 -0.65 Q-24.0 -1.6 -25.3 -0.05 L-25.2 1.35 Q-24.8 3.3 -23.25 4.6 L-22.45 5.2 -22.4 5.25 -21.95 5.65 -21.5 6.35 Q-20.1 8.05 -19.3 10.1 L-18.9 11.75 -18.55 14.55 -18.5 15.35 -18.45 15.9 Q-18.9 13.85 -20.05 12.1 L-20.55 11.3 -21.4 9.65 -21.45 9.65" fill="#fcf8c5" fill-rule="evenodd" stroke="none"/>
    <path d="M-5.25 4.35 L-4.95 2.9 -4.6 5.05 -4.55 5.25 Q-7.15 11.2 -3.7 16.95 L-2.35 19.25 Q-3.0 16.65 -1.35 14.85 L0.45 13.0 Q0.6 11.6 -0.2 10.4 L-0.65 9.7 -1.4 8.3 -3.3 4.75 Q-4.2 2.6 -3.35 0.5 -2.55 -1.65 -0.4 -2.55 L3.85 -2.65 Q5.95 -1.8 6.85 0.3 7.8 2.4 6.95 4.55 6.1 6.65 4.5 7.35 2.9 8.05 2.35 8.75 1.75 9.35 1.55 7.8 1.35 7.1 2.35 6.8 L3.3 6.5 Q4.95 5.75 5.65 4.05 6.3 2.35 5.55 0.7 4.85 -1.0 3.15 -1.65 L-0.25 -1.55 Q-1.9 -0.85 -2.55 0.85 -3.25 2.5 -2.5 4.15 L-2.5 4.2 -2.35 4.6 Q-0.6 10.15 3.35 13.95 L3.7 14.15 Q7.85 11.3 10.2 6.8 10.95 5.2 11.2 3.4 L11.45 1.0 11.65 -0.05 Q11.8 -3.55 9.55 -7.1 10.8 -5.85 11.95 -3.15 13.65 0.45 14.15 3.95 L14.15 4.0 9.9 13.65 9.2 15.45 8.8 15.1 7.85 14.8 5.95 15.15 Q4.0 16.3 2.55 18.1 L-0.1 21.25 Q-3.3 23.8 -7.85 25.15 -19.85 25.6 -28.35 22.2 L-26.3 20.95 Q-20.55 23.5 -14.5 23.0 L-16.05 22.3 Q-20.6 20.1 -22.4 15.35 L-22.2 14.6 Q-21.6 10.45 -23.2 8.15 -21.65 9.05 -21.2 10.8 L-21.2 10.9 -21.2 11.0 -20.85 12.55 Q-18.8 20.0 -12.0 20.9 -4.7 21.3 -5.85 14.2 -6.7 8.95 -5.25 4.35 M24.7 25.0 Q24.6 26.5 25.75 27.9 14.7 27.5 7.05 24.05 L5.95 23.0 Q4.85 21.25 5.15 19.25 5.25 18.35 5.5 17.55 6.2 15.75 7.8 15.3 8.5 15.55 8.95 16.05 8.4 24.05 17.15 25.6 21.05 26.2 24.7 25.0" fill="#f5ad67" fill-rule="evenodd" stroke="none"/>
    <path d="M-4.55 5.25 L-3.6 7.75 Q-2.4 9.7 -0.9 10.6 -0.3 10.65 -0.65 9.7 L-0.2 10.4 Q0.6 11.6 0.45 13.0 L-1.35 14.85 Q-3.0 16.65 -2.35 19.25 L-3.7 16.95 Q-7.15 11.2 -4.55 5.25 M-2.35 4.6 L-0.65 7.7 Q0.9 10.55 3.55 11.1 L3.9 11.0 Q9.9 6.7 11.45 1.0 L11.2 3.4 Q10.95 5.2 10.2 6.8 7.85 11.3 3.7 14.15 L3.35 13.95 Q-0.6 10.15 -2.35 4.6 M26.0 20.7 L28.35 19.7 Q24.85 22.55 24.7 25.0 21.05 26.2 17.15 25.6 8.4 24.05 8.95 16.05 9.55 16.7 9.8 17.75 10.05 16.35 9.2 15.45 L9.9 13.65 14.15 4.0 Q14.9 9.6 12.55 15.05 10.1 24.2 22.95 21.5 L26.0 20.7 M-26.3 20.95 Q-23.6 18.9 -22.4 15.35 -20.6 20.1 -16.05 22.3 L-14.5 23.0 Q-20.55 23.5 -26.3 20.95" fill="#f8be87" fill-rule="evenodd" stroke="none"/>
    <path d="M25.75 27.9 L27.4 27.75 Q25.15 28.4 28.2 29.8 L17.65 28.7 16.1 28.3 11.75 27.4 Q8.7 26.85 5.95 25.5 5.3 25.15 4.8 24.65 3.6 23.5 3.6 21.8 3.55 20.9 4.0 20.1 L3.7 20.35 1.95 22.25 0.85 23.4 -0.35 24.5 -1.1 25.2 -2.65 24.8 -7.85 25.15 Q-3.3 23.8 -0.1 21.25 L2.55 18.1 Q4.0 16.3 5.95 15.15 L7.85 14.8 8.8 15.1 9.2 15.45 Q10.05 16.35 9.8 17.75 9.55 16.7 8.95 16.05 8.5 15.55 7.8 15.3 6.2 15.75 5.5 17.55 5.25 18.35 5.15 19.25 4.85 21.25 5.95 23.0 L7.05 24.05 Q14.7 27.5 25.75 27.9" fill="#f07642" fill-rule="evenodd" stroke="none"/>
    <path d="M17.65 28.7 Q7.05 28.4 -5.25 31.1 4.25 26.9 -1.1 25.2 L-0.35 24.5 0.85 23.4 1.95 22.25 3.7 20.35 4.0 20.1 Q3.55 20.9 3.6 21.8 3.6 23.5 4.8 24.65 5.3 25.15 5.95 25.5 8.7 26.85 11.75 27.4 L16.1 28.3 17.65 28.7" fill="#d54b11" fill-rule="evenodd" stroke="none"/>
    <path d="M-10.7 -15.2 L-9.95 -15.35 Q-8.7 -16.25 -9.25 -17.75 -9.8 -18.95 -10.6 -18.45 L-10.7 -18.05 -10.65 -17.4 -11.0 -17.1 -11.5 -17.2 Q-13.2 -17.85 -13.2 -19.7 L-13.0 -20.55 Q-12.3 -21.95 -11.1 -22.6 -5.55 -21.95 -4.25 -16.4 -3.45 -13.05 -4.55 -9.75 L-4.95 -8.45 Q-6.0 -5.7 -7.4 -3.25 L-7.5 -3.75 -8.35 -7.55 -8.25 -5.6 Q-8.15 -2.8 -8.4 0.05 L-8.45 0.35 Q-9.35 5.9 -12.8 10.5 L-14.9 12.95 Q-14.15 9.15 -15.3 7.2 -14.75 10.65 -16.0 12.75 L-15.85 14.0 M-10.7 -15.2 Q-14.45 -14.5 -15.15 -18.7 -15.9 -23.1 -11.7 -23.95 L-10.85 -24.05 Q-7.7 -24.45 -5.75 -22.05 -0.8 -16.0 -3.95 -8.6 -5.6 -4.65 -6.4 -0.55 L-6.15 1.4 -5.25 4.35 -4.95 2.9 -4.6 5.05 M-4.55 5.25 L-3.6 7.75 Q-2.4 9.7 -0.9 10.6 -0.3 10.65 -0.65 9.7 L-1.4 8.3 -3.3 4.75 Q-4.2 2.6 -3.35 0.5 -2.55 -1.65 -0.4 -2.55 L3.85 -2.65 Q5.95 -1.8 6.85 0.3 7.8 2.4 6.95 4.55 6.1 6.65 4.5 7.35 2.9 8.05 2.35 8.75 1.75 9.35 1.55 7.8 1.35 7.1 2.35 6.8 L3.3 6.5 Q4.95 5.75 5.65 4.05 6.3 2.35 5.55 0.7 4.85 -1.0 3.15 -1.65 L-0.25 -1.55 Q-1.9 -0.85 -2.55 0.85 -3.25 2.5 -2.5 4.15 L-2.5 4.2 -2.35 4.6 -0.65 7.7 Q0.9 10.55 3.55 11.1 L3.9 11.0 Q9.9 6.7 11.45 1.0 L11.65 -0.05 Q11.8 -3.55 9.55 -7.1 10.8 -5.85 11.95 -3.15 L11.95 -3.65 11.5 -7.15 Q10.7 -10.75 8.65 -14.75 L7.25 -17.75 Q5.65 -21.35 7.1 -25.05 L7.75 -26.35 Q9.25 -29.05 12.2 -30.3 15.8 -31.85 19.5 -30.4 23.2 -28.95 24.75 -25.3 26.35 -21.7 24.9 -18.05 23.4 -14.35 20.7 -13.15 17.95 -12.0 16.95 -10.85 15.95 -9.75 15.6 -12.45 15.25 -13.65 16.95 -14.15 L18.6 -14.65 Q21.45 -15.95 22.6 -18.85 23.75 -21.8 22.5 -24.65 21.25 -27.55 18.35 -28.7 15.4 -29.85 12.55 -28.6 9.65 -27.35 8.5 -24.4 7.35 -21.55 8.55 -18.7 L8.6 -18.6 8.9 -18.0 13.6 -11.25 15.2 -8.75 Q18.2 -3.7 18.85 1.3 18.85 10.75 20.3 15.5 22.35 22.15 27.2 19.65 L26.0 20.7 28.35 19.7 Q24.85 22.55 24.7 25.0 24.6 26.5 25.75 27.9 L27.4 27.75 Q25.15 28.4 28.2 29.8 L17.65 28.7 Q7.05 28.4 -5.25 31.1 4.25 26.9 -1.1 25.2 L-2.65 24.8 -7.85 25.15 Q-19.85 25.6 -28.35 22.2 L-26.3 20.95 Q-23.6 18.9 -22.4 15.35 L-22.2 14.6 Q-21.6 10.45 -23.2 8.15 -21.65 9.05 -21.2 10.8 L-21.45 9.65 -21.45 9.6 -21.55 8.6 -21.55 8.55 Q-21.8 7.2 -23.0 6.15 L-24.8 4.4 -25.95 3.0 Q-27.85 -0.3 -25.25 -2.35 L-23.75 -2.7 Q-21.8 -2.7 -20.65 -0.7 -19.85 0.65 -20.75 1.85 L-21.0 1.45 -21.55 0.4 -22.55 -0.65 Q-24.0 -1.6 -25.3 -0.05 L-25.2 1.35 Q-24.8 3.3 -23.25 4.6 L-22.45 5.2 M-22.4 5.25 L-21.25 5.9 -18.1 8.4 Q-16.55 9.85 -16.0 12.75 M-5.25 4.35 Q-6.7 8.95 -5.85 14.2 -4.7 21.3 -12.0 20.9 -18.8 20.0 -20.85 12.55 L-21.2 11.0 -21.2 10.9 -21.2 10.8 M9.2 15.45 L8.8 15.1 7.85 14.8 5.95 15.15 Q4.0 16.3 2.55 18.1 L-0.1 21.25 Q-3.3 23.8 -7.85 25.15 M14.15 4.0 Q14.9 9.6 12.55 15.05 10.1 24.2 22.95 21.5 L26.0 20.7 M9.2 15.45 Q10.05 16.35 9.8 17.75 9.55 16.7 8.95 16.05 8.5 15.55 7.8 15.3 6.2 15.75 5.5 17.55 5.25 18.35 5.15 19.25 4.85 21.25 5.95 23.0 L7.05 24.05 Q14.7 27.5 25.75 27.9 M11.95 -3.15 Q13.65 0.45 14.15 3.95" fill="none" stroke="#000000" stroke-linecap="round" stroke-linejoin="round" stroke-opacity="0.4" stroke-width="0.05"/>
  </g>
</svg>
