<?xml version="1.0" encoding="UTF-8" standalone="no"?>
<svg xmlns:xlink="http://www.w3.org/1999/xlink" height="233.55px" width="198.45px" xmlns="http://www.w3.org/2000/svg">
  <g transform="matrix(1.0, 0.0, 0.0, 1.0, -146.5, -53.75)">
    <path d="M343.9 228.7 L317.4 272.7 311.35 275.25 311.4 275.15 317.2 272.7 343.65 228.75 343.9 228.7 M306.8 277.15 L299.05 280.4 299.1 280.3 306.6 277.15 306.85 277.05 306.8 277.15 M178.7 166.25 L177.45 160.75 179.55 155.65 186.55 161.45 178.7 166.25" fill="#dfdce7" fill-rule="evenodd" stroke="none"/>
    <path d="M317.0 149.5 L334.95 158.95 334.95 159.05 338.8 179.7 338.8 186.9 339.7 193.35 339.45 193.4 339.5 193.35 334.75 159.05 334.75 158.95 316.85 149.55 317.0 149.5 M295.2 138.2 L295.05 138.1 281.3 130.85 281.3 130.8 295.25 138.1 295.2 138.2 M271.45 157.05 L270.95 157.2 270.7 157.3 270.9 156.8 271.45 157.05" fill="#c5bed3" fill-rule="evenodd" stroke="none"/>
    <path d="M339.7 193.35 L333.35 198.9 333.2 198.95 333.15 198.9 339.45 193.4 339.7 193.35 M311.35 275.25 L306.8 277.15 306.85 277.05 311.15 275.25 311.4 275.15 311.35 275.25 M299.05 280.4 L283.95 286.8 283.85 286.75 298.85 280.4 299.1 280.3 299.05 280.4 M279.95 130.2 L280.15 130.2 280.05 130.25 279.95 130.2" fill="#756796" fill-rule="evenodd" stroke="none"/>
    <path d="M224.5 56.1 L234.5 69.1 232.0 71.0 Q212.3 86.55 201.65 117.6 L189.85 98.45 Q207.25 86.5 222.45 59.8 L224.5 56.1 M257.9 93.8 L263.2 89.2 258.4 108.45 255.55 103.4 255.65 95.75 257.9 93.8 M270.4 82.95 L273.55 80.2 293.05 73.45 309.25 104.55 295.6 106.45 299.3 99.6 Q290.5 83.3 270.4 82.95 M205.3 119.6 L212.05 115.2 219.6 129.8 Q210.25 137.4 204.85 150.35 L186.55 161.45 179.55 155.65 181.8 150.3 Q201.65 138.4 205.3 119.6 M177.45 160.75 L178.7 166.25 175.75 168.0 175.35 165.8 177.45 160.75 M281.3 130.8 L281.3 130.85 281.1 130.8 280.05 130.25 281.1 130.8 270.9 156.8 270.7 157.3 Q264.95 163.8 257.25 164.7 L257.05 164.7 252.5 160.8 255.9 151.85 276.35 132.15 279.95 130.2 280.05 130.25 280.15 130.2 281.3 130.8" fill="#ffffff" fill-rule="evenodd" stroke="none"/>
    <path d="M234.5 69.1 L250.55 80.2 257.9 93.8 255.65 95.75 252.65 98.35 248.65 82.7 232.0 71.0 234.5 69.1" fill="#efedf3" fill-rule="evenodd" stroke="none"/>
    <path d="M333.35 198.9 L341.05 202.9 344.45 227.75 343.9 228.7 343.65 228.75 343.7 228.7 344.25 227.75 340.85 202.9 333.2 198.95 333.35 198.9 M313.25 147.55 L317.0 149.5 316.85 149.55 316.8 149.5 295.2 138.2 295.25 138.1 309.85 145.75 313.25 147.55 M252.65 98.35 L255.65 95.75 255.55 103.4 252.65 98.35" fill="#cfcadb" fill-rule="evenodd" stroke="none"/>
    <path d="M207.05 245.4 L203.2 243.65 191.8 220.25 184.85 214.55 211.3 215.95 214.55 216.1 206.65 218.5 198.75 220.9 207.05 245.4 M263.2 89.2 L270.4 82.95 Q290.5 83.3 299.3 99.6 L295.6 106.45 309.25 104.55 310.55 118.2 313.25 147.55 309.85 145.75 307.4 117.6 295.6 106.45 260.1 111.4 258.4 108.45 263.2 89.2 M316.85 149.55 L334.75 158.95 334.75 159.05 339.5 193.35 333.1 194.7 329.3 162.5 309.45 163.6 278.1 169.25 Q293.0 157.4 316.8 149.5 L316.85 149.55 M246.9 148.3 L224.1 138.6 219.6 129.8 212.05 115.2 205.3 119.6 203.55 120.7 201.65 117.6 Q212.3 86.55 232.0 71.0 L248.65 82.7 220.3 119.35 228.55 123.5 233.6 126.1 238.7 128.65 244.2 131.4 253.55 136.15 261.65 140.2 246.9 148.3 M333.15 198.9 L333.2 198.95 340.85 202.9 344.25 227.75 343.7 228.7 335.3 230.5 335.3 205.65 272.5 211.85 Q275.0 210.0 278.3 208.7 L278.45 208.65 308.55 203.3 333.15 198.9 M189.85 98.45 L182.45 86.4 222.45 59.8 Q207.25 86.5 189.85 98.45 M281.3 130.85 L295.05 138.1 Q287.0 151.9 271.45 157.05 L270.9 156.8 281.1 130.8 281.3 130.85" fill="#a6b7a6" fill-rule="evenodd" stroke="none"/>
    <path d="M278.1 169.25 L309.45 163.6 329.3 162.5 333.1 194.7 272.5 207.25 Q267.8 188.75 278.05 169.3 L278.1 169.25 M272.5 211.85 L335.3 205.65 335.3 230.5 265.05 245.65 265.05 235.3 Q264.3 229.1 265.05 224.4 265.75 220.1 267.9 216.8 L269.0 215.2 Q270.5 213.35 272.5 211.85" fill="#6f8a6f" fill-rule="evenodd" stroke="none"/>
    <path d="M283.85 286.75 L283.75 286.8 283.4 286.65 282.0 283.45 265.05 245.65 262.75 244.95 230.1 235.25 230.25 235.25 Q259.8 231.05 260.9 214.9 L260.95 213.25 231.65 203.75 227.6 202.9 222.5 207.6 220.9 224.9 220.2 232.3 225.6 246.7 238.25 259.65 212.5 247.9 217.75 243.05 210.15 229.1 206.65 218.5 214.55 216.1 211.3 215.95 213.6 211.45 188.65 205.05 181.9 201.2 192.15 203.65 207.3 207.25 212.7 201.25 212.7 195.55 213.95 189.85 225.35 151.9 217.7 142.5 224.1 138.6 246.9 148.3 241.35 151.3 231.85 164.7 224.0 194.2 224.2 194.3 226.65 195.85 230.3 198.0 Q235.4 200.85 240.85 203.25 252.2 208.15 265.1 211.0 L265.3 210.95 270.05 210.15 Q269.6 207.85 272.5 207.25 L333.1 194.7 339.5 193.35 339.45 193.4 333.15 198.9 308.55 203.3 278.45 208.65 278.3 208.7 Q275.0 210.0 272.5 211.85 270.5 213.35 269.0 215.2 L267.9 216.8 Q265.75 220.1 265.05 224.4 264.3 229.1 265.05 235.3 L265.05 245.65 335.3 230.5 311.15 275.25 306.85 277.05 306.6 277.15 314.6 258.0 298.85 280.4 283.85 286.75 M153.6 129.35 L148.25 119.3 162.25 126.85 176.25 134.35 186.15 139.7 185.05 142.35 153.6 129.35 M248.65 82.7 L252.65 98.35 244.55 113.9 228.55 123.5 220.3 119.35 248.65 82.7 M199.7 123.2 L201.65 117.6 203.55 120.7 199.7 123.2 M171.35 177.75 L168.35 167.75 176.55 141.9 184.0 145.0 181.8 150.3 179.55 155.65 177.45 160.75 175.35 165.8 175.75 168.0 178.45 182.45 171.35 177.75 M295.25 138.1 L281.3 130.8 280.15 130.2 279.95 130.2 276.35 132.15 261.65 140.2 253.55 136.15 260.1 111.4 295.6 106.45 307.4 117.6 309.85 145.75 295.25 138.1" fill="#566b56" fill-rule="evenodd" stroke="none"/>
    <path d="M283.4 286.65 L251.15 272.9 238.25 259.65 225.6 246.7 220.2 232.3 230.05 235.25 230.1 235.25 262.75 244.95 233.9 239.85 Q252.6 261.95 271.7 277.9 L282.0 283.45 283.4 286.65 M184.85 214.55 L188.65 205.05 213.6 211.45 211.3 215.95 184.85 214.55 M181.9 201.2 L180.1 191.3 162.45 175.45 149.45 156.55 146.5 129.35 153.6 129.35 185.05 142.35 184.0 145.0 176.55 141.9 169.1 138.8 151.4 137.35 166.0 143.35 151.4 143.35 151.4 155.35 164.25 173.05 171.35 177.75 178.45 182.45 175.75 168.0 178.7 166.25 185.85 197.9 Q192.05 180.65 186.55 161.45 L204.85 150.35 Q190.95 175.7 192.15 203.65 L181.9 201.2 M148.25 119.3 L162.45 106.3 180.15 82.7 222.7 53.75 224.5 56.1 222.45 59.8 182.45 86.4 167.8 107.5 157.75 116.35 162.25 126.85 148.25 119.3 M240.85 203.25 Q235.4 200.85 230.3 198.0 L230.35 197.9 Q247.25 183.25 252.5 160.8 L243.9 153.5 234.8 165.0 226.65 195.85 224.2 194.3 224.0 194.2 231.85 164.7 241.35 151.3 246.9 148.3 261.65 140.2 276.35 132.15 255.9 151.85 252.5 160.8 257.05 164.7 Q246.25 183.45 240.9 203.15 L240.85 203.25 M343.7 228.7 L343.65 228.75 317.2 272.7 311.4 275.15 311.15 275.25 335.3 230.5 343.7 228.7 M189.85 98.45 L201.65 117.6 199.7 123.2 190.55 129.1 186.15 139.7 176.25 134.35 Q188.65 122.0 189.85 98.45 M233.6 126.1 L228.55 123.5 244.55 113.9 233.6 126.1 M238.7 128.65 Q253.25 122.15 255.55 103.4 L258.4 108.45 Q253.85 122.9 244.2 131.4 L238.7 128.65 M180.1 191.3 L178.45 182.45 180.1 191.3 M295.05 138.1 L295.2 138.2 316.8 149.5 Q293.0 157.4 278.1 169.25 L265.35 171.55 265.25 171.6 265.1 171.6 257.2 164.85 257.05 164.7 257.25 164.7 Q264.95 163.8 270.7 157.3 L270.95 157.2 271.45 157.05 Q287.0 151.9 295.05 138.1 M231.65 203.75 L260.95 213.25 260.9 214.9 225.85 208.25 225.65 208.2 220.9 224.9 222.5 207.6 227.6 202.9 231.65 203.75 M299.1 280.3 L298.85 280.4 314.6 258.0 306.6 277.15 299.1 280.3" fill="#e2e9e2" fill-rule="evenodd" stroke="none"/>
    <path d="M265.1 211.0 Q252.2 208.15 240.85 203.25 L240.9 203.15 Q246.25 183.45 257.05 164.7 L257.2 164.85 265.1 171.6 265.1 211.0 M230.3 198.0 L226.65 195.85 234.8 165.0 243.9 153.5 252.5 160.8 Q247.25 183.25 230.35 197.9 L230.3 198.0 M224.1 138.6 L217.7 142.5 204.85 150.35 Q210.25 137.4 219.6 129.8 L224.1 138.6 M182.45 86.4 L189.85 98.45 Q188.65 122.0 176.25 134.35 L162.25 126.85 157.75 116.35 167.8 107.5 182.45 86.4 M203.55 120.7 L205.3 119.6 Q201.65 138.4 181.8 150.3 L184.0 145.0 185.05 142.35 186.15 139.7 190.55 129.1 199.7 123.2 203.55 120.7 M238.7 128.65 L233.6 126.1 244.55 113.9 252.65 98.35 255.55 103.4 Q253.25 122.15 238.7 128.65 M260.1 111.4 L253.55 136.15 244.2 131.4 Q253.85 122.9 258.4 108.45 L260.1 111.4 M260.9 214.9 Q259.8 231.05 230.25 235.25 L230.1 235.25 230.05 235.25 220.2 232.3 220.9 224.9 225.65 208.2 225.85 208.25 260.9 214.9" fill="#d3dcd3" fill-rule="evenodd" stroke="none"/>
    <path d="M272.5 207.25 Q269.6 207.85 270.05 210.15 L265.3 210.95 265.1 211.0 265.1 171.6 265.25 171.6 265.35 171.55 278.1 169.25 278.05 169.3 Q267.8 188.75 272.5 207.25" fill="#bfccbf" fill-rule="evenodd" stroke="none"/>
    <path d="M212.5 247.9 L207.05 245.4 198.75 220.9 206.65 218.5 210.15 229.1 217.75 243.05 212.5 247.9 M217.7 142.5 L225.35 151.9 213.95 189.85 212.7 195.55 212.7 201.25 207.3 207.25 192.15 203.65 Q190.95 175.7 204.85 150.35 L217.7 142.5 M171.35 177.75 L164.25 173.05 151.4 155.35 151.4 143.35 166.0 143.35 151.4 137.35 169.1 138.8 176.55 141.9 168.35 167.75 171.35 177.75 M178.7 166.25 L186.55 161.45 Q192.05 180.65 185.85 197.9 L178.7 166.25 M262.75 244.95 L265.05 245.65 282.0 283.45 271.7 277.9 Q252.6 261.95 233.9 239.85 L262.75 244.95" fill="#94a994" fill-rule="evenodd" stroke="none"/>
    <path d="M317.0 149.5 L334.95 158.95 334.95 159.05 M338.8 186.9 L339.7 193.35 333.35 198.9 341.05 202.9 344.45 227.75 343.9 228.7 317.4 272.7 311.35 275.25 306.8 277.15 299.05 280.4 283.95 286.8 283.85 286.75 283.75 286.8 283.4 286.65 251.15 272.9 238.25 259.65 225.6 246.7 220.2 232.3 220.9 224.9 M313.25 147.55 L317.0 149.5 M316.85 149.55 L334.75 158.95 334.75 159.05 339.5 193.35 339.45 193.4 333.15 198.9 308.55 203.3 M333.15 198.9 L333.2 198.95 333.35 198.9 M333.2 198.95 L340.85 202.9 344.25 227.75 343.7 228.7 343.65 228.75 317.2 272.7 311.4 275.15 311.15 275.25 306.85 277.05 306.6 277.15 299.1 280.3 298.85 280.4 283.85 286.75 M295.05 138.1 L295.2 138.2 316.8 149.5 316.85 149.55 M295.25 138.1 L281.3 130.8 280.15 130.2 M281.3 130.85 L295.05 138.1 M309.85 145.75 L313.25 147.55 M261.65 140.2 L276.35 132.15 279.95 130.2 280.05 130.25 281.1 130.8 281.3 130.85 M295.25 138.1 L309.85 145.75 M227.6 202.9 L231.65 203.75" fill="none" stroke="#000000" stroke-linecap="round" stroke-linejoin="round" stroke-opacity="0.4" stroke-width="1.0"/>
    <path d="M238.25 259.65 L212.5 247.9 207.05 245.4 203.2 243.65 191.8 220.25 184.85 214.55 188.65 205.05 181.9 201.2 180.1 191.3 162.45 175.45 149.45 156.55 146.5 129.35 153.6 129.35 148.25 119.3 162.45 106.3 180.15 82.7 222.7 53.75 224.5 56.1 234.5 69.1 250.55 80.2 257.9 93.8 263.2 89.2 270.4 82.95 273.55 80.2 293.05 73.45 309.25 104.55 310.55 118.2 M252.65 98.35 L255.65 95.75 257.9 93.8 M252.65 98.35 L244.55 113.9 228.55 123.5 M184.0 145.0 L185.05 142.35 186.15 139.7 M179.55 155.65 L177.45 160.75 175.35 165.8 175.75 168.0 178.45 182.45 180.1 191.3 M179.55 155.65 L181.8 150.3 184.0 145.0" fill="none" stroke="#000000" stroke-linecap="round" stroke-linejoin="round" stroke-opacity="0.4" stroke-width="0.05"/>
  </g>
</svg>
