<?xml version="1.0" encoding="UTF-8" standalone="no"?>
<svg xmlns:xlink="http://www.w3.org/1999/xlink" height="288.9px" width="170.1px" xmlns="http://www.w3.org/2000/svg">
  <g transform="matrix(1.0, 0.0, 0.0, 1.0, -152.25, -67.1)">
    <path d="M268.6 199.85 Q280.35 199.6 280.1 212.8 294.2 210.4 295.55 226.25 308.55 220.85 306.5 235.7 315.85 236.5 310.5 247.2 318.65 251.1 313.45 264.65 321.1 266.4 313.45 275.6 321.4 290.3 312.45 293.55 316.0 310.9 310.1 317.05 L302.4 315.4 Q292.45 308.65 293.55 300.5 287.5 306.2 285.05 297.5 274.25 292.1 278.1 283.05 270.15 290.4 266.1 280.1 258.25 283.45 253.65 272.1 246.9 268.5 247.2 263.15 242.75 259.05 244.7 276.6 254.6 280.35 258.75 287.05 L258.75 293.95 Q253.5 301.7 251.65 294.55 241.65 301.45 239.2 289.55 238.2 299.0 229.2 299.35 224.85 294.45 231.25 289.55 224.55 289.3 224.75 278.6 228.3 274.1 224.75 269.6 219.5 268.8 217.8 281.05 213.7 285.35 221.25 291.55 215.35 293.15 217.2 302.25 215.95 301.6 214.7 300.15 216.0 301.9 216.7 303.5 219.55 310.2 211.8 313.95 215.25 324.65 203.35 319.95 185.35 328.25 189.2 317.0 172.45 320.65 176.9 311.45 171.55 309.85 176.9 300.5 167.8 303.75 172.45 293.05 170.8 284.2 178.4 281.05 170.85 273.55 178.4 269.6 176.05 260.85 182.9 257.65 177.0 251.45 182.9 245.2 176.15 245.35 179.4 237.2 177.7 226.35 186.9 222.75 178.45 223.55 179.9 208.8 175.75 203.95 177.15 199.8 184.7 206.6 190.35 199.8 196.6 207.85 202.85 202.85 207.35 208.4 211.8 202.85 217.45 205.6 221.25 200.85 222.8 207.7 234.25 204.8 240.35 206.25 242.7 200.35 248.0 206.95 255.15 202.35 264.8 205.95 268.6 199.85" fill="#bbd0dd" fill-rule="evenodd" stroke="none"/>
    <path d="M177.15 199.8 Q175.75 203.95 179.9 208.8 178.45 223.55 186.9 222.75 177.7 226.35 179.4 237.2 176.15 245.35 182.9 245.2 177.0 251.45 182.9 257.65 176.05 260.85 178.4 269.6 170.85 273.55 178.4 281.05 170.8 284.2 172.45 293.05 167.8 303.75 176.9 300.5 171.55 309.85 176.9 311.45 172.45 320.65 189.2 317.0 185.35 328.25 203.35 319.95 215.25 324.65 211.8 313.95 219.55 310.2 216.7 303.5 216.0 301.9 214.7 300.15 215.95 301.6 217.2 302.25 215.35 293.15 221.25 291.55 213.7 285.35 217.8 281.05 219.5 268.8 224.75 269.6 228.3 274.1 224.75 278.6 224.55 289.3 231.25 289.55 224.85 294.45 229.2 299.35 238.2 299.0 239.2 289.55 241.65 301.45 251.65 294.55 253.5 301.7 258.75 293.95 L258.75 287.05 Q254.6 280.35 244.7 276.6 242.75 259.05 247.2 263.15 246.9 268.5 253.65 272.1 258.25 283.45 266.1 280.1 270.15 290.4 278.1 283.05 274.25 292.1 285.05 297.5 287.5 306.2 293.55 300.5 292.45 308.65 302.4 315.4 291.95 312.4 284.2 306.05 275.8 307.7 271.1 296.5 266.25 299.4 259.65 292.55 L259.65 295.15 Q259.15 300.75 254.65 301.0 255.15 315.95 247.7 303.0 240.3 306.15 238.2 300.5 234.55 308.75 227.25 308.0 229.1 320.75 220.0 322.6 220.0 337.45 211.15 347.4 L208.35 350.75 Q203.65 355.1 197.85 351.85 184.45 353.7 184.4 345.85 172.2 343.8 176.9 332.4 165.4 334.9 166.45 321.45 159.6 315.75 166.45 310.0 153.65 307.05 158.0 294.55 149.65 288.1 162.45 283.55 156.4 279.95 162.45 273.6 159.8 263.4 165.3 260.45 159.85 256.7 166.95 251.1 164.15 236.4 171.95 239.2 164.7 234.1 167.95 227.25 162.6 217.8 170.45 218.3 162.0 212.4 167.45 204.8 159.5 198.35 169.9 191.85 170.45 201.4 177.15 199.8 M280.95 303.1 L284.2 306.05 280.95 303.1 M166.45 261.15 L165.3 260.45 166.45 261.15 M259.65 295.15 L258.75 293.95 259.65 295.15" fill="#a0b0bd" fill-rule="evenodd" stroke="none"/>
    <path d="M302.4 315.4 L310.1 317.05 Q316.0 310.9 312.45 293.55 321.4 290.3 313.45 275.6 321.1 266.4 313.45 264.65 318.65 251.1 310.5 247.2 315.85 236.5 306.5 235.7 308.55 220.85 295.55 226.25 294.2 210.4 280.1 212.8 280.35 199.6 268.6 199.85 M302.4 315.4 Q291.95 312.4 284.2 306.05 275.8 307.7 271.1 296.5 266.25 299.4 259.65 292.55 L259.65 295.15 Q259.15 300.75 254.65 301.0 255.15 315.95 247.7 303.0 240.3 306.15 238.2 300.5 234.55 308.75 227.25 308.0 229.1 320.75 220.0 322.6 220.0 337.45 211.15 347.4 L208.35 350.75 Q203.65 355.1 197.85 351.85 184.45 353.7 184.4 345.85 172.2 343.8 176.9 332.4 165.4 334.9 166.45 321.45 159.6 315.75 166.45 310.0 153.65 307.05 158.0 294.55 149.65 288.1 162.45 283.55 156.4 279.95 162.45 273.6 159.8 263.4 165.3 260.45 159.85 256.7 166.95 251.1 164.15 236.4 171.95 239.2 164.7 234.1 167.95 227.25 162.6 217.8 170.45 218.3 162.0 212.4 167.45 204.8 159.5 198.35 169.9 191.85 M258.75 293.95 L259.65 295.15 M165.3 260.45 L166.45 261.15 M284.2 306.05 L280.95 303.1" fill="none" stroke="#003333" stroke-linecap="round" stroke-linejoin="round" stroke-opacity="0.49803922" stroke-width="0.05"/>
    <path d="M268.6 199.85 Q264.8 205.95 255.15 202.35 248.0 206.95 242.7 200.35 240.35 206.25 234.25 204.8 222.8 207.7 221.25 200.85" fill="none" stroke="#003333" stroke-linecap="round" stroke-linejoin="round" stroke-opacity="0.49803922" stroke-width="0.05"/>
    <path d="M268.6 199.85 Q264.8 205.95 255.15 202.35 248.0 206.95 242.7 200.35 240.35 206.25 234.25 204.8 222.8 207.7 221.25 200.85 219.8 199.0 219.6 197.45 219.15 193.7 226.25 191.9 217.55 185.05 223.25 181.4 230.25 167.15 240.7 169.95 241.85 156.5 248.7 157.95 255.0 157.85 256.4 162.3 249.4 160.4 246.2 175.4 245.35 168.95 239.65 175.4 230.5 176.05 232.6 181.5 227.35 190.8 232.6 196.5 239.2 202.8 242.0 194.15 242.55 199.0 248.1 198.85 255.9 201.7 258.4 195.6 261.1 202.25 269.3 196.0 L268.6 199.85" fill="#a0b0bd" fill-rule="evenodd" stroke="none"/>
    <path d="M269.3 196.0 Q261.1 202.25 258.4 195.6 255.9 201.7 248.1 198.85 242.55 199.0 242.0 194.15 239.2 202.8 232.6 196.5 227.35 190.8 232.6 181.5 230.5 176.05 239.65 175.4 245.35 168.95 246.2 175.4 249.4 160.4 256.4 162.3 257.5 166.0 255.15 172.95 265.6 177.45 259.65 184.4 270.3 185.4 269.3 196.0" fill="#bbd0dd" fill-rule="evenodd" stroke="none"/>
    <path d="M268.6 199.85 L269.3 196.0 Q270.3 185.4 259.65 184.4 265.6 177.45 255.15 172.95 257.5 166.0 256.4 162.3 255.0 157.85 248.7 157.95" fill="none" stroke="#003333" stroke-linecap="round" stroke-linejoin="round" stroke-opacity="0.49803922" stroke-width="0.05"/>
    <path d="M182.1 100.95 Q190.9 93.3 199.65 95.7 208.1 89.25 211.1 95.7 212.1 88.4 222.45 87.35 228.6 81.15 232.7 86.4 242.3 79.45 248.15 83.4 261.8 84.8 253.1 100.65 258.75 108.0 250.75 113.6 261.5 117.7 252.95 129.05 264.0 139.45 253.95 143.0 265.9 147.6 257.25 157.95 250.7 156.5 247.1 169.95 237.2 167.15 227.6 181.4 221.25 185.05 228.7 191.9 221.25 193.7 221.05 197.45 214.45 200.35 211.05 195.1 208.9 200.5 202.85 198.85 191.75 200.4 194.3 191.8 190.6 199.25 181.65 195.85 173.4 195.55 177.4 186.4 175.5 177.85 184.5 174.4 178.0 172.9 181.4 161.45 176.75 155.0 183.7 148.5 176.35 150.6 178.15 140.55 174.25 131.7 182.8 128.55 172.2 129.3 177.05 118.6 170.35 110.95 182.0 105.15 L182.1 100.95" fill="#bbd0dd" fill-rule="evenodd" stroke="none"/>
    <path d="M182.1 100.95 L182.0 105.15 Q170.35 110.95 177.05 118.6 172.2 129.3 182.8 128.55 174.25 131.7 178.15 140.55 176.35 150.6 183.7 148.5 176.75 155.0 181.4 161.45 178.0 172.9 184.5 174.4 175.5 177.85 177.4 186.4 173.4 195.55 181.65 195.85 190.6 199.25 194.3 191.8 191.75 200.4 202.85 198.85 208.9 200.5 211.05 195.1 214.45 200.35 221.05 197.45 220.95 199.0 222.1 200.85 217.45 205.6 212.3 202.85 206.85 208.4 203.35 202.85 196.2 207.85 191.4 199.8 184.55 206.6 178.2 199.8 171.2 201.4 169.9 191.85 162.55 184.9 166.45 177.9 160.8 168.3 171.0 166.45 165.0 162.75 166.5 155.5 159.95 149.0 168.85 142.5 158.4 138.4 167.15 129.55 159.9 123.65 168.45 119.6 161.6 114.15 168.8 109.15 169.5 97.8 182.1 100.95" fill="#a0b0bd" fill-rule="evenodd" stroke="none"/>
    <path d="M257.25 157.95 Q265.9 147.6 253.95 143.0 264.0 139.45 252.95 129.05 261.5 117.7 250.75 113.6 258.75 108.0 253.1 100.65 261.8 84.8 248.15 83.4 242.3 79.45 232.7 86.4 228.6 81.15 222.45 87.35 212.1 88.4 211.1 95.7 208.1 89.25 199.65 95.7 190.9 93.3 182.1 100.95 169.5 97.8 168.8 109.15 161.6 114.15 168.45 119.6 159.9 123.65 167.15 129.55 158.4 138.4 168.85 142.5 159.95 149.0 166.5 155.5 165.0 162.75 171.0 166.45 160.8 168.3 166.45 177.9 162.55 184.9 169.9 191.85" fill="none" stroke="#003333" stroke-linecap="round" stroke-linejoin="round" stroke-opacity="0.49803922" stroke-width="0.05"/>
    <path d="M221.05 197.45 Q221.25 193.7 228.7 191.9 221.25 185.05 227.6 181.4 237.2 167.15 247.1 169.95 250.7 156.5 257.25 157.95 M169.9 191.85 Q171.2 201.4 178.2 199.8 184.55 206.6 191.4 199.8 196.2 207.85 203.35 202.85 206.85 208.4 212.3 202.85 217.45 205.6 222.1 200.85 220.95 199.0 221.05 197.45" fill="none" stroke="#003333" stroke-linecap="round" stroke-linejoin="round" stroke-opacity="0.49803922" stroke-width="0.05"/>
    <path d="M252.95 156.75 Q250.5 151.75 246.6 151.0 238.85 149.2 245.35 155.3 248.4 158.15 247.8 159.75 L248.2 160.6 Q255.25 173.35 252.95 156.75" fill="#ffeaaa" fill-rule="evenodd" stroke="none"/>
    <path d="M252.95 156.75 Q255.25 173.35 248.2 160.6 250.35 164.75 248.9 167.85 255.0 175.5 255.95 167.15 254.85 160.7 252.95 156.75" fill="#cc9900" fill-rule="evenodd" stroke="none"/>
    <path d="M240.45 162.45 Q238.0 157.45 234.1 156.7 226.35 154.9 232.85 161.0 235.9 163.85 235.3 165.45 L235.7 166.3 Q242.75 179.05 240.45 162.45" fill="#ffeaaa" fill-rule="evenodd" stroke="none"/>
    <path d="M240.45 162.45 Q242.75 179.05 235.7 166.3 237.85 170.45 236.4 173.55 242.5 181.2 243.45 172.85 242.35 166.4 240.45 162.45" fill="#cc9900" fill-rule="evenodd" stroke="none"/>
    <path d="M227.15 162.55 Q222.55 159.4 218.8 160.7 211.2 163.05 219.9 165.05 223.95 166.0 224.15 167.7 L225.0 168.2 Q237.45 175.75 227.15 162.55" fill="#ffeaaa" fill-rule="evenodd" stroke="none"/>
    <path d="M227.15 162.55 Q237.45 175.75 225.0 168.2 228.95 170.75 229.25 174.1 238.3 177.7 234.95 170.05 230.8 164.95 227.15 162.55" fill="#cc9900" fill-rule="evenodd" stroke="none"/>
    <path d="M228.7 174.8 Q224.1 171.65 220.35 172.95 212.75 175.3 221.45 177.3 225.5 178.25 225.7 179.95 L226.55 180.45 Q239.0 188.0 228.7 174.8" fill="#ffeaaa" fill-rule="evenodd" stroke="none"/>
    <path d="M228.7 174.8 Q239.0 188.0 226.55 180.45 230.5 183.0 230.8 186.35 239.85 189.95 236.5 182.3 232.35 177.2 228.7 174.8" fill="#cc9900" fill-rule="evenodd" stroke="none"/>
    <path d="M221.9 184.8 Q217.3 181.65 213.55 182.95 205.95 185.3 214.65 187.3 218.7 188.25 218.9 189.95 L219.75 190.45 Q232.2 198.0 221.9 184.8" fill="#ffeaaa" fill-rule="evenodd" stroke="none"/>
    <path d="M221.9 184.8 Q232.2 198.0 219.75 190.45 223.7 193.0 224.0 196.35 233.05 199.95 229.7 192.3 225.55 187.2 221.9 184.8" fill="#cc9900" fill-rule="evenodd" stroke="none"/>
    <path d="M269.1 196.8 Q269.55 191.0 266.15 188.25 259.7 182.55 262.6 191.55 263.95 195.7 262.45 196.8 L262.4 197.85 Q262.05 213.15 269.1 196.8" fill="#ffeaaa" fill-rule="evenodd" stroke="none"/>
    <path d="M269.1 196.8 Q262.05 213.15 262.4 197.85 262.15 202.75 259.1 204.8 260.65 214.95 266.15 207.85 268.75 201.4 269.1 196.8" fill="#cc9900" fill-rule="evenodd" stroke="none"/>
    <path d="M257.2 197.2 Q257.65 191.4 254.25 188.65 247.8 182.95 250.7 191.95 252.05 196.1 250.55 197.2 L250.5 198.25 Q250.15 213.55 257.2 197.2" fill="#ffeaaa" fill-rule="evenodd" stroke="none"/>
    <path d="M257.2 197.2 Q250.15 213.55 250.5 198.25 250.25 203.15 247.2 205.2 248.75 215.35 254.25 208.25 256.85 201.8 257.2 197.2" fill="#cc9900" fill-rule="evenodd" stroke="none"/>
    <path d="M243.55 199.85 Q244.0 194.05 240.6 191.3 234.15 185.6 237.05 194.6 238.4 198.75 236.9 199.85 L236.85 200.9 Q236.5 216.2 243.55 199.85" fill="#ffeaaa" fill-rule="evenodd" stroke="none"/>
    <path d="M243.55 199.85 Q236.5 216.2 236.85 200.9 236.6 205.8 233.55 207.85 235.1 218.0 240.6 210.9 243.2 204.45 243.55 199.85" fill="#cc9900" fill-rule="evenodd" stroke="none"/>
    <path d="M232.5 195.9 Q232.95 190.1 229.55 187.35 223.1 181.65 226.0 190.65 227.35 194.8 225.85 195.9 L225.8 196.95 Q225.45 212.25 232.5 195.9" fill="#ffeaaa" fill-rule="evenodd" stroke="none"/>
    <path d="M232.5 195.9 Q225.45 212.25 225.8 196.95 225.55 201.85 222.5 203.9 224.05 214.05 229.55 206.95 232.15 200.5 232.5 195.9" fill="#cc9900" fill-rule="evenodd" stroke="none"/>
    <path d="M198.35 195.9 Q198.8 190.1 195.4 187.35 188.95 181.65 191.85 190.65 193.2 194.8 191.7 195.9 L191.65 196.95 Q191.3 212.25 198.35 195.9" fill="#ffeaaa" fill-rule="evenodd" stroke="none"/>
    <path d="M198.35 195.9 Q191.3 212.25 191.65 196.95 191.4 201.85 188.35 203.9 189.9 214.05 195.4 206.95 198.0 200.5 198.35 195.9" fill="#cc9900" fill-rule="evenodd" stroke="none"/>
    <path d="M189.75 195.9 Q190.2 190.1 186.8 187.35 180.35 181.65 183.25 190.65 184.6 194.8 183.1 195.9 L183.05 196.95 Q182.7 212.25 189.75 195.9" fill="#ffeaaa" fill-rule="evenodd" stroke="none"/>
    <path d="M189.75 195.9 Q182.7 212.25 183.05 196.95 182.8 201.85 179.75 203.9 181.3 214.05 186.8 206.95 189.4 200.5 189.75 195.9" fill="#cc9900" fill-rule="evenodd" stroke="none"/>
    <path d="M178.1 199.85 Q178.55 194.05 175.15 191.3 168.7 185.6 171.6 194.6 172.95 198.75 171.45 199.85 L171.4 200.9 Q171.05 216.2 178.1 199.85" fill="#ffeaaa" fill-rule="evenodd" stroke="none"/>
    <path d="M178.1 199.85 Q171.05 216.2 171.4 200.9 171.15 205.8 168.1 207.85 169.65 218.0 175.15 210.9 177.75 204.45 178.1 199.85" fill="#cc9900" fill-rule="evenodd" stroke="none"/>
    <path d="M223.45 199.85 Q223.9 194.05 220.5 191.3 214.05 185.6 216.95 194.6 218.3 198.75 216.8 199.85 L216.75 200.9 Q216.4 216.2 223.45 199.85" fill="#ffeaaa" fill-rule="evenodd" stroke="none"/>
    <path d="M223.45 199.85 Q216.4 216.2 216.75 200.9 216.5 205.8 213.45 207.85 215.0 218.0 220.5 210.9 223.1 204.45 223.45 199.85" fill="#cc9900" fill-rule="evenodd" stroke="none"/>
    <path d="M209.9 201.1 Q210.35 195.3 206.95 192.55 200.5 186.85 203.4 195.85 204.75 200.0 203.25 201.1 L203.2 202.15 Q202.85 217.45 209.9 201.1" fill="#ffeaaa" fill-rule="evenodd" stroke="none"/>
    <path d="M209.9 201.1 Q202.85 217.45 203.2 202.15 202.95 207.05 199.9 209.1 201.45 219.25 206.95 212.15 209.55 205.7 209.9 201.1" fill="#cc9900" fill-rule="evenodd" stroke="none"/>
    <path d="M161.2 293.8 Q166.0 290.45 170.1 292.0 178.2 294.8 169.0 296.75 164.75 297.65 164.5 299.5 L163.7 300.1 Q150.6 308.0 161.2 293.8" fill="#ffeaaa" fill-rule="evenodd" stroke="none"/>
    <path d="M161.2 293.8 Q150.6 308.0 163.7 300.1 159.55 302.75 159.35 306.45 149.75 310.15 153.15 301.85 157.4 296.35 161.2 293.8" fill="#cc9900" fill-rule="evenodd" stroke="none"/>
    <path d="M165.35 304.15 Q170.15 300.8 174.25 302.35 182.35 305.15 173.15 307.1 168.9 308.0 168.65 309.85 L167.85 310.45 Q154.75 318.35 165.35 304.15" fill="#ffeaaa" fill-rule="evenodd" stroke="none"/>
    <path d="M165.35 304.15 Q154.75 318.35 167.85 310.45 163.7 313.1 163.5 316.8 153.9 320.5 157.3 312.2 161.55 306.7 165.35 304.15" fill="#cc9900" fill-rule="evenodd" stroke="none"/>
    <path d="M168.45 315.75 Q173.25 312.4 177.35 313.95 185.45 316.75 176.25 318.7 172.0 319.6 171.75 321.45 L170.95 322.05 Q157.85 329.95 168.45 315.75" fill="#ffeaaa" fill-rule="evenodd" stroke="none"/>
    <path d="M168.45 315.75 Q157.85 329.95 170.95 322.05 166.8 324.7 166.6 328.4 157.0 332.1 160.4 323.8 164.65 318.3 168.45 315.75" fill="#cc9900" fill-rule="evenodd" stroke="none"/>
    <path d="M303.85 248.55 Q298.25 247.95 295.7 251.2 290.5 257.4 298.95 254.75 302.9 253.55 304.0 255.1 L305.0 255.15 Q319.55 255.9 303.85 248.55" fill="#ffeaaa" fill-rule="evenodd" stroke="none"/>
    <path d="M303.85 248.55 Q319.55 255.9 305.0 255.15 309.65 255.55 311.7 258.6 321.3 257.35 314.4 251.75 308.2 249.0 303.85 248.55" fill="#cc9900" fill-rule="evenodd" stroke="none"/>
    <path d="M305.6 259.45 Q300.0 258.85 297.45 262.1 292.25 268.3 300.7 265.65 304.65 264.45 305.75 266.0 L306.75 266.05 Q321.3 266.8 305.6 259.45" fill="#ffeaaa" fill-rule="evenodd" stroke="none"/>
    <path d="M305.6 259.45 Q321.3 266.8 306.75 266.05 311.4 266.45 313.45 269.5 323.05 268.25 316.15 262.65 309.95 259.9 305.6 259.45" fill="#cc9900" fill-rule="evenodd" stroke="none"/>
    <path d="M308.9 270.95 Q303.3 270.35 300.75 273.6 295.55 279.8 304.0 277.15 307.95 275.95 309.05 277.5 L310.05 277.55 Q324.6 278.3 308.9 270.95" fill="#ffeaaa" fill-rule="evenodd" stroke="none"/>
    <path d="M308.9 270.95 Q324.6 278.3 310.05 277.55 314.7 277.95 316.75 281.0 326.35 279.75 319.45 274.15 313.25 271.4 308.9 270.95" fill="#cc9900" fill-rule="evenodd" stroke="none"/>
    <path d="M216.3 328.2 Q214.8 323.5 220.0 322.6 230.75 324.65 235.05 332.45 226.9 334.85 216.3 328.2" fill="#996600" fill-rule="evenodd" stroke="none"/>
    <path d="M235.05 332.45 Q233.7 335.75 227.25 334.65 218.3 333.3 216.3 328.2 226.9 334.85 235.05 332.45" fill="#664500" fill-rule="evenodd" stroke="none"/>
    <path d="M216.3 328.2 Q214.8 323.5 220.0 322.6 230.75 324.65 235.05 332.45 233.7 335.75 227.25 334.65 218.3 333.3 216.3 328.2 Z" fill="none" stroke="#244142" stroke-linecap="round" stroke-linejoin="round" stroke-opacity="0.4" stroke-width="0.05"/>
    <path d="M212.95 339.8 Q211.15 334.2 217.15 333.2 229.7 335.75 234.7 345.0 225.25 347.8 212.95 339.8" fill="#996600" fill-rule="evenodd" stroke="none"/>
    <path d="M234.7 345.0 Q233.2 348.85 225.7 347.5 215.3 345.85 212.95 339.8 225.25 347.8 234.7 345.0" fill="#664500" fill-rule="evenodd" stroke="none"/>
    <path d="M212.95 339.8 Q211.15 334.2 217.15 333.2 229.7 335.75 234.7 345.0 233.2 348.85 225.7 347.5 215.3 345.85 212.95 339.8 Z" fill="none" stroke="#244142" stroke-linecap="round" stroke-linejoin="round" stroke-opacity="0.4" stroke-width="0.05"/>
    <path d="M206.15 349.3 Q204.65 344.6 209.85 343.7 220.6 345.75 224.9 353.55 216.75 355.95 206.15 349.3" fill="#996600" fill-rule="evenodd" stroke="none"/>
    <path d="M224.9 353.55 Q223.55 356.85 217.1 355.75 208.15 354.4 206.15 349.3 216.75 355.95 224.9 353.55" fill="#664500" fill-rule="evenodd" stroke="none"/>
    <path d="M206.15 349.3 Q204.65 344.6 209.85 343.7 220.6 345.75 224.9 353.55 223.55 356.85 217.1 355.75 208.15 354.4 206.15 349.3 Z" fill="none" stroke="#244142" stroke-linecap="round" stroke-linejoin="round" stroke-opacity="0.4" stroke-width="0.05"/>
    <path d="M287.55 304.45 Q285.3 300.1 280.95 303.1 274.85 312.2 277.35 320.75 284.8 316.7 287.55 304.45" fill="#996600" fill-rule="evenodd" stroke="none"/>
    <path d="M277.35 320.75 Q280.6 322.15 284.4 316.8 289.75 309.5 287.55 304.45 284.8 316.7 277.35 320.75" fill="#664500" fill-rule="evenodd" stroke="none"/>
    <path d="M287.55 304.45 Q285.3 300.1 280.95 303.1 274.85 312.2 277.35 320.75 280.6 322.15 284.4 316.8 289.75 309.5 287.55 304.45 Z" fill="none" stroke="#244142" stroke-linecap="round" stroke-linejoin="round" stroke-opacity="0.4" stroke-width="0.05"/>
    <path d="M298.15 310.25 Q295.5 305.05 290.5 308.55 283.45 319.2 286.5 329.3 295.05 324.6 298.15 310.25" fill="#996600" fill-rule="evenodd" stroke="none"/>
    <path d="M286.5 329.3 Q290.25 331.0 294.6 324.75 300.8 316.2 298.15 310.25 295.05 324.6 286.5 329.3" fill="#664500" fill-rule="evenodd" stroke="none"/>
    <path d="M298.15 310.25 Q295.5 305.05 290.5 308.55 283.45 319.2 286.5 329.3 290.25 331.0 294.6 324.75 300.8 316.2 298.15 310.25 Z" fill="none" stroke="#244142" stroke-linecap="round" stroke-linejoin="round" stroke-opacity="0.4" stroke-width="0.05"/>
    <path d="M309.65 312.1 Q307.4 307.75 303.05 310.75 296.95 319.85 299.45 328.4 306.9 324.35 309.65 312.1" fill="#996600" fill-rule="evenodd" stroke="none"/>
    <path d="M299.45 328.4 Q302.7 329.8 306.5 324.45 311.85 317.15 309.65 312.1 306.9 324.35 299.45 328.4" fill="#664500" fill-rule="evenodd" stroke="none"/>
    <path d="M309.65 312.1 Q307.4 307.75 303.05 310.75 296.95 319.85 299.45 328.4 302.7 329.8 306.5 324.45 311.85 317.15 309.65 312.1 Z" fill="none" stroke="#244142" stroke-linecap="round" stroke-linejoin="round" stroke-opacity="0.4" stroke-width="0.05"/>
    <path d="M251.75 89.2 Q255.9 91.85 258.1 87.05 258.9 76.15 252.45 70.0 248.0 77.25 251.75 89.2" fill="#996600" fill-rule="evenodd" stroke="none"/>
    <path d="M252.45 70.0 Q248.95 70.45 248.3 76.95 247.3 85.95 251.75 89.2 248.0 77.25 252.45 70.0" fill="#664500" fill-rule="evenodd" stroke="none"/>
    <path d="M251.75 89.2 Q255.9 91.85 258.1 87.05 258.9 76.15 252.45 70.0 248.95 70.45 248.3 76.95 247.3 85.95 251.75 89.2 Z" fill="none" stroke="#244142" stroke-linecap="round" stroke-linejoin="round" stroke-opacity="0.4" stroke-width="0.05"/>
    <path d="M239.65 89.45 Q244.55 92.6 247.15 87.1 247.9 74.35 240.2 67.1 235.1 75.45 239.65 89.45" fill="#996600" fill-rule="evenodd" stroke="none"/>
    <path d="M240.2 67.1 Q236.1 67.55 235.45 75.1 234.4 85.6 239.65 89.45 235.1 75.45 240.2 67.1" fill="#664500" fill-rule="evenodd" stroke="none"/>
    <path d="M239.65 89.45 Q244.55 92.6 247.15 87.1 247.9 74.35 240.2 67.1 236.1 67.55 235.45 75.1 234.4 85.6 239.65 89.45 Z" fill="none" stroke="#244142" stroke-linecap="round" stroke-linejoin="round" stroke-opacity="0.4" stroke-width="0.05"/>
    <path d="M228.8 93.6 Q232.95 96.25 235.15 91.45 235.95 80.55 229.5 74.4 225.05 81.65 228.8 93.6" fill="#996600" fill-rule="evenodd" stroke="none"/>
    <path d="M229.5 74.4 Q226.0 74.85 225.35 81.35 224.35 90.35 228.8 93.6 225.05 81.65 229.5 74.4" fill="#664500" fill-rule="evenodd" stroke="none"/>
    <path d="M228.8 93.6 Q232.95 96.25 235.15 91.45 235.95 80.55 229.5 74.4 226.0 74.85 225.35 81.35 224.35 90.35 228.8 93.6 Z" fill="none" stroke="#244142" stroke-linecap="round" stroke-linejoin="round" stroke-opacity="0.4" stroke-width="0.05"/>
    <path d="M187.55 105.3 Q192.25 106.8 193.15 101.6 191.1 90.85 183.3 86.55 180.9 94.7 187.55 105.3" fill="#996600" fill-rule="evenodd" stroke="none"/>
    <path d="M183.3 86.55 Q180.0 87.9 181.1 94.35 182.45 103.3 187.55 105.3 180.9 94.7 183.3 86.55" fill="#664500" fill-rule="evenodd" stroke="none"/>
    <path d="M187.55 105.3 Q192.25 106.8 193.15 101.6 191.1 90.85 183.3 86.55 180.0 87.9 181.1 94.35 182.45 103.3 187.55 105.3 Z" fill="none" stroke="#244142" stroke-linecap="round" stroke-linejoin="round" stroke-opacity="0.4" stroke-width="0.05"/>
    <path d="M175.95 108.65 Q181.55 110.45 182.55 104.4 180.0 91.9 170.75 86.9 167.95 96.35 175.95 108.65" fill="#996600" fill-rule="evenodd" stroke="none"/>
    <path d="M170.75 86.9 Q166.9 88.4 168.2 95.9 169.9 106.3 175.95 108.65 167.95 96.35 170.75 86.9" fill="#664500" fill-rule="evenodd" stroke="none"/>
    <path d="M175.95 108.65 Q181.55 110.45 182.55 104.4 180.0 91.9 170.75 86.9 166.9 88.4 168.2 95.9 169.9 106.3 175.95 108.65 Z" fill="none" stroke="#244142" stroke-linecap="round" stroke-linejoin="round" stroke-opacity="0.4" stroke-width="0.05"/>
    <path d="M166.55 115.5 Q171.25 117.0 172.15 111.8 170.1 101.05 162.3 96.75 159.9 104.9 166.55 115.5" fill="#996600" fill-rule="evenodd" stroke="none"/>
    <path d="M162.3 96.75 Q159.0 98.1 160.1 104.55 161.45 113.5 166.55 115.5 159.9 104.9 162.3 96.75" fill="#664500" fill-rule="evenodd" stroke="none"/>
    <path d="M166.55 115.5 Q171.25 117.0 172.15 111.8 170.1 101.05 162.3 96.75 159.0 98.1 160.1 104.55 161.45 113.5 166.55 115.5 Z" fill="none" stroke="#244142" stroke-linecap="round" stroke-linejoin="round" stroke-opacity="0.4" stroke-width="0.05"/>
  </g>
</svg>
