<?xml version="1.0" encoding="UTF-8" standalone="no"?>
<svg xmlns:xlink="http://www.w3.org/1999/xlink" height="40.05px" width="41.1px" xmlns="http://www.w3.org/2000/svg">
  <g transform="matrix(1.0, 0.0, 0.0, 1.0, -253.55, -184.2)">
    <path d="M263.8 187.7 Q261.95 188.8 260.05 189.95 L263.8 191.45 263.8 187.7 263.8 184.2 263.8 187.7 M253.55 187.35 L253.55 184.2 263.8 184.2 281.3 184.2 281.9 184.2 293.55 184.2 293.55 193.0 288.8 191.2 286.9 186.55 281.9 184.2 286.9 186.55 288.8 191.2 282.4 199.05 274.45 191.1 272.3 193.2 272.3 197.8 263.8 197.8 263.45 197.8 257.55 202.45 257.4 202.4 253.55 201.45 253.55 187.35 260.05 189.95 253.55 187.35 M260.75 215.75 L260.8 215.7 262.55 208.45 261.95 207.8 270.05 209.45 270.15 209.75 272.45 215.95 272.4 216.0 271.95 216.35 271.8 216.45 260.75 215.75 M263.8 191.45 L263.8 197.8 263.8 191.45 M274.45 191.1 L281.3 184.2 274.45 191.1 M286.55 210.1 L285.8 204.2 282.75 200.5 293.55 203.45 293.55 212.15 286.6 210.15 286.55 210.1 286.6 210.15 286.55 210.2 286.55 210.1" fill="#ffffff" fill-rule="evenodd" stroke="none"/>
    <path d="M263.8 187.7 L263.8 191.45 260.05 189.95 Q261.95 188.8 263.8 187.7 M253.55 201.45 L257.4 202.4 261.95 207.8 262.55 208.45 260.8 215.7 260.75 215.75 253.55 218.8 253.55 201.45 M270.15 209.75 L273.05 203.2 272.3 203.45 272.3 197.8 272.3 193.2 274.45 191.1 282.4 199.05 283.05 199.7 282.3 199.95 282.75 200.5 282.3 199.95 273.05 203.2 282.3 199.95 283.05 199.7 282.4 199.05 288.8 191.2 293.55 193.0 293.55 203.45 282.75 200.5 285.8 204.2 286.55 210.1 286.55 210.2 283.55 215.2 283.05 214.7 283.55 215.2 272.45 215.95 270.15 209.75" fill="#f2f2f2" fill-rule="evenodd" stroke="none"/>
    <path d="M253.55 218.8 L260.75 215.75 271.8 216.45 271.7 216.55 277.4 224.25 253.55 224.25 253.55 218.8 M261.95 207.8 L257.4 202.4 257.55 202.45 263.45 197.8 263.8 197.8 272.3 197.8 272.3 203.45 273.05 203.2 270.15 209.75 270.05 209.45 261.95 207.8 M286.6 210.15 L293.55 212.15 293.55 222.15 288.55 220.45 288.8 220.2 283.55 215.2 286.55 210.2 286.6 210.15" fill="#e0e0e0" fill-rule="evenodd" stroke="none"/>
    <path d="M293.55 222.15 L293.55 224.25 284.55 224.25 288.55 220.45 293.55 222.15" fill="#d5d5d5" fill-rule="evenodd" stroke="none"/>
    <path d="M284.55 224.25 L284.05 224.25 277.55 224.25 277.4 224.25 271.7 216.55 271.8 216.45 271.95 216.35 272.4 216.0 272.45 215.95 283.55 215.2 288.8 220.2 288.55 220.45 284.55 224.25" fill="#ececec" fill-rule="evenodd" stroke="none"/>
    <path d="M263.8 187.7 Q261.95 188.8 260.05 189.95 L263.8 191.45 263.8 187.7 263.8 184.2 M253.55 187.35 L260.05 189.95 M257.4 202.4 L253.55 201.45 M253.55 218.8 L260.75 215.75 260.8 215.7 262.55 208.45 261.95 207.8 257.4 202.4 257.55 202.45 263.45 197.8 263.8 197.8 263.8 191.45 M270.15 209.75 L273.05 203.2 272.3 203.45 272.3 197.8 263.8 197.8 M282.4 199.05 L274.45 191.1 272.3 193.2 272.3 197.8 M281.9 184.2 L286.9 186.55 288.8 191.2 293.55 193.0 M281.3 184.2 L274.45 191.1 M282.75 200.5 L282.3 199.95 273.05 203.2 M293.55 203.45 L282.75 200.5 285.8 204.2 286.55 210.1 286.6 210.15 293.55 212.15 294.65 212.45 M282.4 199.05 L283.05 199.7 282.3 199.95 M282.4 199.05 L288.8 191.2 M293.55 222.15 L294.4 222.45 M284.55 224.25 L284.05 224.25 M277.55 224.25 L277.4 224.25 271.7 216.55 271.8 216.45 271.95 216.35 272.4 216.0 272.45 215.95 283.55 215.2 288.8 220.2 288.55 220.45 284.55 224.25 M286.55 210.1 L286.55 210.2 283.55 215.2 283.05 214.7 M261.95 207.8 L270.05 209.45 270.15 209.75 272.45 215.95 M260.75 215.75 L271.8 216.45" fill="none" stroke="#cccccc" stroke-linecap="round" stroke-linejoin="round" stroke-width="0.05"/>
  </g>
</svg>
