<?xml version="1.0" encoding="UTF-8" standalone="no"?>
<svg xmlns:xlink="http://www.w3.org/1999/xlink" height="141.4px" width="119.2px" xmlns="http://www.w3.org/2000/svg">
  <g transform="matrix(1.0, 0.0, 0.0, 1.0, -194.05, -140.25)">
    <path d="M268.95 266.95 Q250.45 243.2 222.9 144.45 L230.4 154.2 Q231.6 161.9 234.4 168.85 L234.95 169.0 Q237.6 169.45 237.85 166.0 L237.95 164.05 238.0 164.05 240.95 174.0 241.7 168.9 250.1 179.85 250.1 176.55 252.75 168.6 251.95 163.0 252.95 160.0 Q251.3 155.8 250.1 151.55 L250.1 140.25 Q270.55 163.1 271.15 185.0 271.7 206.9 273.45 206.15 275.2 205.35 300.95 228.5 L304.6 233.25 Q316.45 247.1 312.1 261.25 L306.9 266.15 302.95 264.95 302.15 269.95 300.95 270.8 294.95 269.95 Q295.35 272.55 294.0 275.0 L293.95 275.15 293.25 275.5 Q287.85 270.35 284.3 271.8 L281.95 269.95 281.95 279.85 277.7 280.8 268.95 266.95 M212.95 180.0 Q216.8 176.35 215.05 166.95 L214.95 166.0 216.95 174.0 214.95 161.0 215.05 161.1 223.35 209.0 220.95 209.0 Q213.95 212.6 224.7 216.75 L225.0 216.85 224.75 216.9 229.45 244.05 Q225.65 237.05 219.95 231.0 L219.85 232.0 Q218.3 239.15 216.1 245.0 204.6 242.65 194.05 233.95 197.9 221.8 200.75 210.2 206.2 187.75 207.65 167.45 L210.95 174.0 210.7 171.2 212.95 183.0 212.95 180.0 M252.75 168.6 L252.95 170.0 252.95 168.0 252.75 168.6 M288.95 239.0 L286.95 241.0 Q285.4 247.4 281.8 252.95 L280.95 254.0 292.95 256.0 296.95 245.0 Q295.9 240.7 289.9 239.2 L288.95 239.0 M267.45 221.8 L267.95 221.0 266.0 221.0 Q266.45 221.0 266.75 221.25 L267.45 221.8 Q264.0 227.15 267.0 227.8 L267.95 228.0 Q272.2 225.95 267.45 221.8" fill="#73b9ec" fill-rule="evenodd" stroke="none"/>
    <path d="M227.55 168.95 L222.9 144.45 Q250.45 243.2 268.95 266.95 L269.1 267.9 Q271.25 274.75 271.05 281.6 260.1 282.15 248.35 278.35 252.75 258.6 247.0 241.5 L227.55 168.95 247.0 241.5 241.0 243.1 Q235.5 244.95 230.25 245.6 L229.45 244.05 224.75 216.9 225.0 216.85 225.95 217.0 Q227.35 211.4 223.95 209.0 L223.35 209.0 215.05 161.1 220.95 166.0 Q221.25 162.9 220.95 159.95 L227.55 168.95" fill="#4fb1e6" fill-rule="evenodd" stroke="none"/>
    <path d="M222.9 144.45 L227.55 168.95 247.0 241.5 Q252.75 258.6 248.35 278.35 260.1 282.15 271.05 281.6 271.25 274.75 269.1 267.9 L268.95 266.95 277.7 280.8 281.95 279.85 281.95 269.95 284.3 271.8 Q287.85 270.35 293.25 275.5 L293.95 275.15 294.0 275.0 Q295.35 272.55 294.95 269.95 L300.95 270.8 302.15 269.95 302.95 264.95 306.9 266.15 312.1 261.25 Q316.45 247.1 304.6 233.25 L300.95 228.5 Q275.2 205.35 273.45 206.15 271.7 206.9 271.15 185.0 270.55 163.1 250.1 140.25 L250.1 151.55 Q251.3 155.8 252.95 160.0 L251.95 163.0 252.75 168.6 252.95 168.0 252.95 170.0 252.75 168.6 250.1 176.55 250.1 179.85 241.7 168.9 240.95 174.0 238.0 164.05 237.95 164.05 237.85 166.0 Q237.6 169.45 234.95 169.0 L234.4 168.85 Q231.6 161.9 230.4 154.2 L222.9 144.45 M220.95 159.95 L227.55 168.95 M223.35 209.0 L223.95 209.0 Q227.35 211.4 225.95 217.0 L225.0 216.85 224.7 216.75 Q213.95 212.6 220.95 209.0 L223.35 209.0 M229.45 244.05 L230.25 245.6 Q235.5 244.95 241.0 243.1 L247.0 241.5 M212.95 180.0 L212.95 183.0 210.7 171.2 M207.65 167.45 Q206.2 187.75 200.75 210.2 197.9 221.8 194.05 233.95 204.6 242.65 216.1 245.0 218.3 239.15 219.85 232.0 L219.95 231.0 Q225.65 237.05 229.45 244.05 M288.95 239.0 L286.95 241.0 Q285.4 247.4 281.8 252.95 L280.95 254.0 292.95 256.0 296.95 245.0 Q295.9 240.7 289.9 239.2 L288.95 239.0 M267.45 221.8 Q272.2 225.95 267.95 228.0 L267.0 227.8 Q264.0 227.15 267.45 221.8 L266.75 221.25 Q266.45 221.0 266.0 221.0 L267.95 221.0 267.45 221.8 Z" fill="none" stroke="#000000" stroke-linecap="round" stroke-linejoin="round" stroke-opacity="0.48235294" stroke-width="0.05"/>
  </g>
</svg>
