<?xml version="1.0" encoding="UTF-8" standalone="no"?>
<svg xmlns:xlink="http://www.w3.org/1999/xlink" height="131.3px" width="96.55px" xmlns="http://www.w3.org/2000/svg">
  <g transform="matrix(1.0, 0.0, 0.0, 1.0, 48.25, 65.65)">
    <path d="M-1.75 -58.1 L-1.45 -58.1 1.55 -57.95 Q-4.85 -56.2 -11.3 -49.85 -1.75 -36.45 10.85 -26.3 L15.75 -19.15 Q25.45 -5.2 28.75 12.95 29.95 19.6 32.8 23.65 37.75 30.55 39.05 17.7 40.9 -0.85 40.25 -19.5 43.75 -7.9 43.8 5.8 43.75 17.85 41.0 28.35 39.6 33.75 37.45 38.7 L35.7 41.55 Q33.15 45.4 29.55 48.8 24.7 53.35 19.05 56.05 10.65 60.1 0.5 60.1 L-2.3 60.05 Q-17.6 59.15 -28.65 48.8 -38.1 39.9 -40.1 28.1 -42.95 17.65 -42.95 5.6 L-42.95 3.6 Q-42.45 -21.55 -29.7 -39.6 -20.85 -52.1 -9.5 -56.25 -7.45 -57.2 -5.15 -57.65 L-1.75 -58.1" fill="#cccccc" fill-rule="evenodd" stroke="none"/>
    <path d="M-29.6 18.9 Q-28.4 4.55 -20.85 -6.1 L-17.85 -9.9 -17.55 -10.25 Q-12.85 -15.35 -7.3 -17.35 -5.9 -18.0 -4.3 -18.3 L-2.05 -18.6 -1.85 -18.6 3.15 -18.1 Q10.2 -16.55 16.0 -10.5 L16.9 -9.55 19.7 -5.95 Q28.65 6.7 28.65 24.65 28.65 32.15 27.05 38.8 L26.8 39.85 26.5 38.65 Q24.05 37.55 21.65 38.0 21.15 37.25 20.15 37.2 L21.2 36.85 21.25 36.8 Q23.05 35.85 22.95 33.35 L22.45 33.25 Q22.7 30.6 19.2 28.8 20.8 29.0 22.4 27.95 L24.8 25.9 Q26.1 24.1 23.8 22.8 L22.75 21.45 Q23.3 19.25 22.4 15.7 L19.2 16.15 Q18.15 16.5 17.85 17.2 L15.2 12.8 11.55 7.9 10.75 5.15 Q11.85 1.5 8.9 1.5 L7.65 2.4 Q6.8 1.5 5.25 1.25 2.5 0.8 -0.45 2.85 -0.1 -1.55 -2.85 -0.9 L-3.35 -0.8 Q-4.55 -0.45 -5.6 0.55 -7.7 2.5 -7.15 4.7 L-8.85 4.6 -13.5 4.25 Q-13.1 1.25 -13.55 -0.05 L-13.65 -0.4 Q-15.65 -1.1 -16.8 -0.15 L-17.2 1.0 -18.15 3.15 -18.6 3.8 Q-19.45 4.65 -20.7 4.95 -25.55 6.1 -22.9 10.0 -21.7 11.8 -22.65 12.95 -23.3 13.7 -25.05 14.2 -28.3 15.1 -28.05 18.95 L-28.0 19.25 -28.35 19.05 -29.6 18.9 M-23.95 10.25 Q-24.05 12.4 -22.65 12.95 -24.05 12.4 -23.95 10.25 M3.75 -8.5 Q1.9 -11.25 -1.5 -8.55 1.9 -11.25 3.75 -8.5 M18.95 14.6 L19.2 16.15 18.95 14.6 M17.15 11.5 Q18.7 7.95 15.25 6.9 18.7 7.95 17.15 11.5 M22.3 12.9 Q22.55 10.4 20.6 9.2 22.55 10.4 22.3 12.9 M-2.85 -0.9 Q-4.85 -5.15 -5.2 -0.85 -4.85 -5.15 -2.85 -0.9 M17.35 -0.9 Q16.75 -3.25 13.9 -3.15 16.75 -3.25 17.35 -0.9 M2.95 -5.6 Q7.6 -2.4 8.2 -7.55 7.6 -2.4 2.95 -5.6 M24.7 28.3 L24.8 25.9 24.7 28.3 M-16.55 26.75 L-16.7 26.6 -16.45 26.7 -16.55 26.75" fill="#45a3a7" fill-rule="evenodd" stroke="none"/>
    <path d="M-7.15 4.7 Q-7.7 2.5 -5.6 0.55 -4.55 -0.45 -3.35 -0.8 L-2.85 -0.9 Q-0.1 -1.55 -0.45 2.85 2.5 0.8 5.25 1.25 6.8 1.5 7.65 2.4 8.4 3.2 8.6 4.55 9.0 7.45 11.55 7.9 L15.2 12.8 17.85 17.2 17.75 17.45 Q17.4 18.45 18.5 20.05 13.4 18.85 13.5 22.4 L10.8 20.8 Q8.85 19.6 6.8 19.45 L6.55 19.4 5.05 19.45 Q2.9 19.7 1.15 18.6 0.2 17.95 -0.05 16.6 L-0.1 16.35 Q-0.85 12.9 -4.7 13.75 L-5.55 14.35 -7.0 13.75 -7.05 13.75 -7.4 13.65 Q-4.5 12.2 -4.75 9.2 L-4.75 9.15 Q-4.85 8.1 -5.4 7.5 L-5.95 6.9 Q-6.9 5.75 -7.15 4.7 M1.5 13.6 Q1.2 15.75 -0.1 16.35 1.2 15.75 1.5 13.6 M15.9 17.3 L17.75 17.45 15.9 17.3" fill="#357c80" fill-rule="evenodd" stroke="none"/>
    <path d="M-5.95 6.9 L-5.4 7.5 Q-4.85 8.1 -4.75 9.15 L-4.75 9.2 Q-4.5 12.2 -7.4 13.65 L-7.05 13.75 -7.0 13.75 -5.55 14.35 -6.0 15.2 -6.05 15.35 Q-7.15 18.85 -5.2 21.05 L-4.25 21.9 Q-5.5 22.3 -8.65 20.55 L-9.95 19.8 Q-10.9 19.2 -11.2 17.8 L-12.0 14.95 -12.45 13.65 -13.45 11.1 -12.15 8.9 Q-10.8 4.7 -7.2 7.9 L-5.95 6.9 M-10.1 14.15 L-9.4 14.7 -7.75 14.75 -7.2 14.25 -7.75 14.75 -9.4 14.7 -10.1 14.15 M18.5 20.05 L19.95 21.95 Q22.1 26.8 18.25 27.3 L17.7 28.35 19.2 28.8 Q22.7 30.6 22.45 33.25 L22.2 34.3 Q21.95 35.1 20.75 35.4 L19.35 35.8 Q16.7 36.7 15.95 38.2 18.4 44.45 13.2 44.1 L11.5 43.8 Q9.8 40.8 7.0 39.9 L2.1 39.75 0.5 40.0 0.4 40.0 Q-1.7 40.1 -2.85 39.4 -4.5 38.4 -4.4 35.7 -2.45 38.05 1.5 36.7 -2.45 38.05 -4.4 35.7 L-4.3 34.35 Q-2.65 32.0 -0.7 31.3 L-0.6 31.3 Q1.25 30.6 3.4 31.6 6.25 32.9 5.1 30.15 L4.4 28.15 Q3.45 24.9 7.35 26.6 L7.5 26.7 Q8.7 27.2 9.05 27.6 9.65 25.6 11.25 24.55 13.45 23.75 16.05 23.65 L13.5 22.4 Q13.4 18.85 18.5 20.05 M9.9 34.7 L13.25 34.35 Q13.3 32.7 12.25 32.35 13.3 32.7 13.25 34.35 L9.9 34.7 M14.25 41.05 Q15.0 43.8 13.2 44.1 15.0 43.8 14.25 41.05 M7.0 39.9 L7.2 39.4 7.0 39.9" fill="#286062" fill-rule="evenodd" stroke="none"/>
    <path d="M-28.0 19.25 L-28.05 18.95 Q-28.3 15.1 -25.05 14.2 -23.3 13.7 -22.65 12.95 -21.7 11.8 -22.9 10.0 -25.55 6.1 -20.7 4.95 -19.45 4.65 -18.6 3.8 L-18.15 3.15 -17.2 1.0 -16.8 -0.15 Q-15.65 -1.1 -13.65 -0.4 L-13.55 -0.05 Q-13.1 1.25 -13.5 4.25 L-8.85 4.6 -7.15 4.7 Q-6.9 5.75 -5.95 6.9 L-7.2 7.9 Q-10.8 4.7 -12.15 8.9 L-13.45 11.1 -19.05 14.7 -20.8 15.9 Q-22.05 16.75 -21.0 18.05 L-14.7 25.7 -16.45 26.7 -16.7 26.6 -16.55 26.75 Q-19.5 28.2 -22.0 28.15 L-22.2 28.35 -22.25 28.35 Q-24.05 29.8 -23.8 31.45 -27.05 31.05 -28.35 29.0 -29.0 27.95 -28.75 26.85 -27.8 23.2 -28.0 19.25 -25.45 20.7 -22.6 21.3 -25.45 20.7 -28.0 19.25 M-20.25 12.95 Q-21.75 13.25 -22.65 12.95 -21.75 13.25 -20.25 12.95 M-14.9 7.55 Q-17.75 7.7 -17.25 4.85 -17.75 7.7 -14.9 7.55 M-22.85 27.9 L-22.25 28.35 -22.85 27.9" fill="#255454" fill-rule="evenodd" stroke="none"/>
    <path d="M-16.45 56.7 L-16.55 56.65 -16.65 56.55 -16.7 56.55 -16.75 56.55 -15.3 54.65 -16.45 56.7 M-26.2 45.4 Q-27.1 43.4 -27.6 41.25 L-27.4 40.6 -24.05 40.95 Q-24.3 37.0 -22.0 36.0 -21.1 35.65 -21.15 35.1 -21.25 34.55 -22.35 33.8 -23.35 33.15 -23.7 31.85 L-23.8 31.45 Q-24.05 29.8 -22.25 28.35 L-22.25 28.4 -22.1 28.45 Q-19.9 29.95 -16.9 29.0 -19.9 29.95 -22.1 28.45 L-22.25 28.4 -22.25 28.35 -22.2 28.35 -22.0 28.15 Q-19.5 28.2 -16.55 26.75 L-16.45 26.7 Q-12.4 28.6 -9.2 29.6 -4.15 25.1 -10.0 24.35 -12.65 24.0 -10.75 20.75 L-8.65 20.55 Q-5.5 22.3 -4.25 21.9 L-5.2 21.05 Q-7.15 18.85 -6.05 15.35 L-6.0 15.2 -5.55 14.35 -4.7 13.75 Q-0.85 12.9 -0.1 16.35 L-2.85 16.3 -0.1 16.35 -0.05 16.6 Q0.2 17.95 1.15 18.6 2.9 19.7 5.05 19.45 L6.55 19.4 6.8 19.45 Q8.85 19.6 10.8 20.8 L13.5 22.4 16.05 23.65 Q13.45 23.75 11.25 24.55 9.65 25.6 9.05 27.6 8.7 27.2 7.5 26.7 L7.35 26.6 Q3.45 24.9 4.4 28.15 L5.1 30.15 Q6.25 32.9 3.4 31.6 1.25 30.6 -0.6 31.3 L-0.7 31.3 Q-2.65 32.0 -4.3 34.35 L-4.4 35.7 Q-4.5 38.4 -2.85 39.4 -1.7 40.1 0.4 40.0 L0.5 40.0 2.1 39.75 7.0 39.9 Q5.25 43.85 0.6 40.9 L-1.55 42.25 Q0.35 44.25 -3.2 46.5 L-3.4 46.6 -4.15 47.0 -7.5 48.5 -7.55 48.5 Q-10.6 49.55 -13.85 49.8 L-16.6 50.1 -17.6 50.1 Q-18.8 49.95 -19.65 49.2 -20.5 48.4 -20.95 46.9 -20.5 48.4 -19.65 49.2 L-20.85 48.5 Q-21.7 47.85 -20.95 46.9 L-21.1 46.5 -21.25 46.45 -24.2 46.0 Q-25.4 45.95 -26.2 45.4 M-29.6 19.0 L-29.6 18.9 -28.35 19.05 -29.6 19.0 M-12.45 13.65 L-12.0 14.95 Q-12.6 14.75 -12.45 13.65 M7.65 2.4 L8.9 1.5 Q11.85 1.5 10.75 5.15 L11.55 7.9 Q9.0 7.45 8.6 4.55 8.4 3.2 7.65 2.4 M17.85 17.2 Q18.15 16.5 19.2 16.15 19.05 17.2 17.95 17.4 L17.75 17.45 17.95 17.4 Q19.05 17.2 19.2 16.15 L22.4 15.7 Q23.3 19.25 22.75 21.45 L23.8 22.8 Q24.65 24.2 24.8 25.9 24.65 24.2 23.8 22.8 26.1 24.1 24.8 25.9 L22.4 27.95 Q20.8 29.0 19.2 28.8 L17.7 28.35 18.25 27.3 Q22.1 26.8 19.95 21.95 L18.5 20.05 Q17.4 18.45 17.75 17.45 L17.85 17.2 M6.9 22.75 Q9.35 20.7 6.8 19.45 9.35 20.7 6.9 22.75 M22.45 33.25 L22.95 33.35 Q23.05 35.85 21.25 36.8 L21.2 36.85 20.15 37.2 Q21.15 37.25 21.65 38.0 L20.15 38.35 19.8 37.2 19.35 35.8 20.75 35.4 Q21.95 35.1 22.2 34.3 L22.45 33.25 M20.15 37.2 L19.8 37.2 20.15 37.2 M11.5 43.8 L13.2 44.1 12.3 43.95 11.5 43.8 M-6.1 56.65 Q-7.75 56.8 -9.6 56.05 -7.8 56.1 -6.1 56.65 M-3.2 29.0 L-1.2 28.9 Q1.3 28.45 1.5 26.3 1.3 28.45 -1.2 28.9 L-3.2 29.0 M-5.15 34.65 L-4.4 35.7 -5.15 34.65 M-5.6 45.7 Q-6.4 47.9 -7.7 48.0 -9.05 48.1 -10.9 46.1 -9.05 48.1 -7.7 48.0 -6.4 47.9 -5.6 45.7 M-13.9 49.1 L-13.85 49.8 -13.9 49.1 M-17.45 44.05 Q-17.85 40.7 -14.9 42.05 -17.85 40.7 -17.45 44.05 M-18.2 35.2 Q-16.05 36.3 -13.9 34.35 -16.05 36.3 -18.2 35.2" fill="#235156" fill-rule="evenodd" stroke="none"/>
    <path d="M-13.45 11.1 L-12.45 13.65 Q-12.6 14.75 -12.0 14.95 L-11.2 17.8 Q-10.9 19.2 -9.95 19.8 L-8.65 20.55 -10.75 20.75 Q-12.65 24.0 -10.0 24.35 -4.15 25.1 -9.2 29.6 -12.4 28.6 -16.45 26.7 L-14.7 25.7 -21.0 18.05 Q-22.05 16.75 -20.8 15.9 L-19.05 14.7 -13.45 11.1" fill="#183636" fill-rule="evenodd" stroke="none"/>
    <path d="M19.35 35.8 L19.8 37.2 20.15 38.35 21.65 38.0 Q22.5 39.3 21.45 42.95 17.95 47.3 17.2 51.5 17.0 52.85 16.0 53.55 11.5 56.85 6.5 58.75 L4.1 59.35 0.0 59.1 Q-1.75 58.7 -3.55 57.7 -4.8 57.0 -6.1 56.65 -4.9 56.5 -3.85 55.8 -4.9 56.5 -6.1 56.65 -7.8 56.1 -9.6 56.05 L-10.4 56.05 -10.6 56.05 Q-13.8 56.1 -15.3 54.65 -16.8 53.15 -16.6 50.1 L-13.85 49.8 Q-10.6 49.55 -7.55 48.5 L-7.5 48.5 -4.15 47.0 -3.4 46.6 -3.2 46.5 Q0.35 44.25 -1.55 42.25 L0.6 40.9 Q5.25 43.85 7.0 39.9 9.8 40.8 11.5 43.8 L12.3 43.95 13.2 44.1 Q18.4 44.45 15.95 38.2 16.7 36.7 19.35 35.8 M2.5 45.4 Q-1.2 50.0 -3.2 46.5 -1.2 50.0 2.5 45.4 M-9.9 53.0 L-10.6 53.1 Q-13.55 53.35 -13.85 49.8 -13.55 53.35 -10.6 53.1 L-9.9 53.0" fill="#1e4748" fill-rule="evenodd" stroke="none"/>
    <path d="M26.8 39.85 Q25.8 43.5 24.4 46.9 22.5 50.4 19.35 53.45 L19.05 53.7 Q13.75 58.7 7.0 60.45 L4.4 61.0 4.3 61.0 -0.5 61.4 Q-9.55 61.35 -16.45 56.7 L-15.3 54.65 Q-13.8 56.1 -10.6 56.05 L-10.4 56.05 -9.6 56.05 Q-7.75 56.8 -6.1 56.65 -4.8 57.0 -3.55 57.7 -1.75 58.7 0.0 59.1 L4.1 59.35 6.5 58.75 Q11.5 56.85 16.0 53.55 17.0 52.85 17.2 51.5 17.95 47.3 21.45 42.95 22.5 39.3 21.65 38.0 24.05 37.55 26.5 38.65 L26.8 39.85 M-16.75 56.55 L-20.15 53.7 Q-23.55 50.5 -25.55 46.75 L-26.2 45.4 Q-25.4 45.95 -24.2 46.0 L-21.25 46.45 -21.1 46.5 -20.95 46.9 Q-21.7 47.85 -20.85 48.5 L-19.65 49.2 Q-18.8 49.95 -17.6 50.1 L-16.6 50.1 Q-16.8 53.15 -15.3 54.65 L-16.75 56.55 M-27.6 41.25 L-27.9 39.75 Q-29.55 33.75 -29.75 27.0 L-29.8 24.5 -29.6 19.0 -28.35 19.05 -28.0 19.25 Q-27.8 23.2 -28.75 26.85 -29.0 27.95 -28.35 29.0 -27.05 31.05 -23.8 31.45 L-23.7 31.85 Q-23.35 33.15 -22.35 33.8 -21.25 34.55 -21.15 35.1 -21.1 35.65 -22.0 36.0 -24.3 37.0 -24.05 40.95 L-27.4 40.6 -27.6 41.25" fill="#102525" fill-rule="evenodd" stroke="none"/>
    <path d="M-29.6 18.9 Q-28.4 4.55 -20.85 -6.1 L-17.85 -9.9 -17.55 -10.25 Q-12.85 -15.35 -7.3 -17.35 -5.9 -18.0 -4.3 -18.3 L-2.05 -18.6 -1.85 -18.6 3.15 -18.1 Q10.2 -16.55 16.0 -10.5 L16.9 -9.55 19.7 -5.95 Q28.65 6.7 28.65 24.65 28.65 32.15 27.05 38.8 L26.8 39.85 Q25.8 43.5 24.4 46.9 22.5 50.4 19.35 53.45 L19.05 53.7 Q13.75 58.7 7.0 60.45 L4.4 61.0 4.3 61.0 -0.5 61.4 Q-9.55 61.35 -16.45 56.7 L-16.55 56.65 -16.65 56.55 -16.7 56.55 -16.75 56.55 -20.15 53.7 Q-23.55 50.5 -25.55 46.75 L-26.2 45.4 Q-27.1 43.4 -27.6 41.25 L-27.9 39.75 Q-29.55 33.75 -29.75 27.0 L-29.8 24.5 -29.6 19.0 -29.6 18.9" fill="none" stroke="#253a35" stroke-linecap="round" stroke-linejoin="round" stroke-width="0.05"/>
    <path d="M-28.35 19.05 L-28.0 19.25 Q-25.45 20.7 -22.6 21.3 M-1.5 -8.55 Q1.9 -11.25 3.75 -8.5 M-7.2 7.9 Q-10.8 4.7 -12.15 8.9 M-0.1 16.35 L-2.85 16.3 M8.9 1.5 Q11.85 1.5 10.75 5.15 M19.95 21.95 Q22.1 26.8 18.25 27.3 M20.6 9.2 Q22.55 10.4 22.3 12.9 M15.25 6.9 Q18.7 7.95 17.15 11.5 M-5.2 -0.85 Q-4.85 -5.15 -2.85 -0.9 M12.25 32.35 Q13.3 32.7 13.25 34.35 L9.9 34.7 M7.0 39.9 Q5.25 43.85 0.6 40.9 M-6.1 56.65 Q-7.75 56.8 -9.6 56.05 M1.5 36.7 Q-2.45 38.05 -4.4 35.7 M-10.9 46.1 Q-9.05 48.1 -7.7 48.0 -6.4 47.9 -5.6 45.7 M-14.9 42.05 Q-17.85 40.7 -17.45 44.05" fill="none" stroke="#8ebacb" stroke-linecap="round" stroke-linejoin="round" stroke-width="0.05"/>
    <path d="M-22.65 12.95 Q-24.05 12.4 -23.95 10.25 M-0.1 16.35 Q1.2 15.75 1.5 13.6 M-13.55 -0.05 L-13.65 -0.4 Q-15.65 -1.1 -16.8 -0.15 L-17.2 1.0 M-22.65 12.95 Q-21.75 13.25 -20.25 12.95 M-7.2 14.25 L-7.75 14.75 -9.4 14.7 -10.1 14.15 M6.8 19.45 L6.55 19.4 M19.2 16.15 L18.95 14.6 M6.8 19.45 Q9.35 20.7 6.9 22.75 M19.2 16.15 Q19.05 17.2 17.95 17.4 L17.75 17.45 15.9 17.3 M24.8 25.9 Q24.65 24.2 23.8 22.8 L22.75 21.45 M8.2 -7.55 Q7.6 -2.4 2.95 -5.6 M13.9 -3.15 Q16.75 -3.25 17.35 -0.9 M24.8 25.9 L24.7 28.3 M22.95 33.35 Q23.05 35.85 21.25 36.8 L21.2 36.85 20.15 37.2 19.8 37.2 M13.2 44.1 Q15.0 43.8 14.25 41.05 M-3.2 46.5 Q-1.2 50.0 2.5 45.4 M13.2 44.1 L12.3 43.95 M-9.6 56.05 L-10.4 56.05 M1.5 26.3 Q1.3 28.45 -1.2 28.9 L-3.2 29.0 M-4.4 35.7 L-5.15 34.65 M-13.85 49.8 Q-13.55 53.35 -10.6 53.1 L-9.9 53.0 M-3.85 55.8 Q-4.9 56.5 -6.1 56.65 M7.2 39.4 L7.0 39.9 M-17.25 4.85 Q-17.75 7.7 -14.9 7.55 M-22.25 28.35 L-22.85 27.9 M-22.25 28.35 L-22.25 28.4 -22.1 28.45 Q-19.9 29.95 -16.9 29.0 M-21.25 46.45 L-21.1 46.5 -20.95 46.9 Q-20.5 48.4 -19.65 49.2 -18.8 49.95 -17.6 50.1 M-13.85 49.8 L-13.9 49.1 M-13.9 34.35 Q-16.05 36.3 -18.2 35.2" fill="none" stroke="#8ebacb" stroke-linecap="round" stroke-linejoin="round" stroke-width="1.0"/>
    <path d="M14.0 -47.25 Q13.65 -50.0 11.25 -51.85 L10.45 -52.4 11.35 -53.8 15.25 -53.55 15.9 -53.45 Q12.0 -51.95 14.2 -47.5 L14.3 -47.25 14.0 -47.25 M10.65 -17.45 Q10.3 -18.4 10.35 -19.6 L10.7 -25.95 10.85 -30.35 10.9 -31.7 11.3 -35.7 11.95 -35.6 11.55 -30.35 11.3 -26.0 11.4 -23.7 Q11.8 -20.15 10.65 -17.45 M-3.9 -56.7 L-3.85 -56.7 -3.65 -56.65 Q-2.7 -56.5 -2.0 -55.8 L-1.2 -54.8 Q-6.7 -55.6 -4.8 -51.1 -4.35 -50.05 -4.25 -48.75 -3.95 -45.55 -3.95 -42.4 L-4.0 -41.85 Q-1.05 -37.65 -2.1 -34.1 L-2.5 -31.65 -2.9 -31.7 Q-3.0 -36.45 -4.5 -40.4 L-4.9 -41.45 -5.2 -42.2 -5.2 -42.4 Q-5.3 -48.0 -8.6 -50.55 -9.6 -51.7 -10.95 -52.45 L-10.5 -52.85 Q-7.9 -55.1 -3.95 -56.1 L-3.9 -56.7 M-3.55 -22.95 L-3.5 -22.7 Q-3.45 -21.6 -3.8 -20.75 L-3.55 -22.95 M22.45 17.95 L21.9 17.75 21.75 17.7 23.0 16.15 Q24.45 13.5 23.35 9.3 22.5 5.95 20.75 3.3 L20.65 3.2 18.7 0.8 16.3 -1.25 16.6 -1.6 8.85 -7.25 Q8.95 -5.4 9.5 -3.85 8.15 -3.65 7.15 -2.65 10.1 -5.95 5.35 -8.05 1.65 -9.65 4.35 -10.4 6.7 -11.1 8.9 -9.85 L15.3 -6.05 Q18.75 -4.0 20.05 -1.5 22.9 0.1 21.9 2.25 L22.05 2.45 22.1 2.55 Q24.7 6.2 26.0 11.05 27.05 15.0 24.35 17.1 23.6 17.7 22.45 17.95 M-2.2 33.5 L-2.85 33.5 -1.35 31.95 Q0.1 29.8 -0.75 28.3 L-1.75 26.3 -1.8 26.15 Q-2.1 24.9 -2.75 23.75 L-2.95 23.4 Q-4.75 18.1 -2.3 14.5 L-1.85 13.8 -0.95 14.15 -0.95 14.2 Q-1.7 15.7 -2.1 17.65 L-2.35 17.9 Q-0.2 20.6 -3.4 18.9 -3.6 20.05 -3.25 21.2 -2.95 22.3 -2.15 23.4 L-1.45 24.45 -0.85 25.7 -0.8 25.75 -0.8 25.8 -0.4 27.05 Q0.2 29.5 -0.85 31.85 -1.35 32.95 -2.2 33.5 M-3.05 0.2 L-3.05 -0.35 Q-3.05 -1.4 -3.35 -2.2 -4.1 -4.15 -6.45 -5.1 -10.6 -6.75 -13.35 -5.4 -12.4 -7.0 -10.75 -7.5 -5.25 -9.1 -2.25 -5.55 L-1.25 -4.55 Q1.6 -1.25 1.2 3.25 L0.4 10.65 Q0.3 11.6 0.65 12.55 1.5 14.8 0.0 16.05 0.15 15.1 -0.95 14.1 L-1.8 13.7 Q0.05 10.35 -0.45 5.35 -0.85 0.85 -3.05 0.2 M-26.2 1.9 L-27.0 3.05 Q-29.1 6.25 -29.3 10.7 -29.4 7.0 -28.5 2.8 L-27.85 0.15 Q-27.4 -1.5 -26.55 -3.05 L-26.0 -3.95 Q-26.65 -1.6 -26.3 1.2 L-26.2 1.9 M-20.2 -11.25 L-19.7 -11.7 -19.65 -11.75 -19.55 -11.85 -18.35 -12.95 Q-17.4 -13.75 -16.25 -14.4 -14.0 -15.7 -10.95 -16.35 L-10.85 -16.4 -10.05 -16.55 -8.25 -16.9 -8.0 -16.95 -4.2 -18.1 -4.0 -18.2 -4.2 -18.25 -5.7 -18.3 -5.4 -18.5 -4.15 -18.35 Q-1.15 -17.65 -0.6 -14.55 L-0.85 -14.05 Q-2.0 -12.2 -5.5 -12.65 -7.3 -12.9 -7.9 -11.95 L-7.15 -13.55 -7.05 -13.65 -5.45 -15.9 -9.85 -15.5 -10.65 -15.3 -13.7 -14.1 -15.25 -13.25 -15.4 -13.15 -15.5 -13.05 Q-17.1 -12.0 -18.4 -10.55 L-18.75 -10.15 -20.2 -11.25 M-18.0 -4.7 Q-18.55 -8.5 -14.9 -10.45 -15.2 -7.7 -18.0 -4.7" fill="#d9c9b0" fill-rule="evenodd" stroke="none"/>
    <path d="M4.75 -23.2 Q7.2 -18.9 11.05 -16.6 L10.65 -17.45 Q11.8 -20.15 11.4 -23.7 L11.3 -26.0 11.55 -30.35 11.95 -35.6 12.25 -35.6 Q11.7 -28.85 12.15 -22.15 12.5 -16.4 16.35 -11.4 L13.5 -13.6 Q12.2 -14.9 11.05 -16.6 3.7 -18.2 10.5 -12.45 L11.7 -11.45 11.75 -11.4 Q15.9 -7.9 20.1 -4.7 23.8 -1.9 24.85 3.4 25.3 5.7 26.1 8.6 L26.1 8.65 26.2 9.1 26.6 14.3 Q27.05 19.4 22.45 17.95 23.6 17.7 24.35 17.1 27.05 15.0 26.0 11.05 24.7 6.2 22.1 2.55 L22.05 2.45 21.9 2.25 Q22.9 0.1 20.05 -1.5 18.75 -4.0 15.3 -6.05 L8.9 -9.85 Q6.7 -11.1 4.35 -10.4 1.65 -9.65 5.35 -8.05 10.1 -5.95 7.15 -2.65 5.95 -1.45 5.25 0.9 3.65 6.25 4.55 12.15 5.25 16.65 2.2 20.35 0.15 22.85 0.55 25.8 L0.75 26.8 1.05 27.8 Q3.15 33.35 -2.2 33.5 -1.35 32.95 -0.85 31.85 0.2 29.5 -0.4 27.05 L-0.8 25.8 -0.8 25.75 -0.85 25.7 -1.45 24.45 -2.15 23.4 Q-2.95 22.3 -3.25 21.2 -3.6 20.05 -3.4 18.9 -0.2 20.6 -2.35 17.9 L-2.1 17.65 Q-1.7 15.7 -0.95 14.2 L-0.95 14.15 -1.85 13.8 -2.05 13.75 -1.9 13.65 -1.8 13.7 -0.95 14.1 Q0.15 15.1 0.0 16.05 1.5 14.8 0.65 12.55 0.3 11.6 0.4 10.65 L1.2 3.25 Q1.6 -1.25 -1.25 -4.55 L-2.25 -5.55 Q-5.25 -9.1 -10.75 -7.5 -12.4 -7.0 -13.35 -5.4 -15.8 -4.2 -17.2 -0.65 L-17.25 -2.35 Q-17.45 -3.55 -18.0 -4.55 L-18.05 -4.65 Q-18.65 -5.75 -19.65 -6.65 L-17.0 -11.5 Q-16.45 -12.4 -15.5 -13.05 L-15.4 -13.15 -15.25 -13.25 -13.7 -14.1 -10.65 -15.3 -9.85 -15.5 -5.45 -15.9 -7.05 -13.65 -7.15 -13.55 -7.9 -11.95 Q-7.3 -12.9 -5.5 -12.65 -2.0 -12.2 -0.85 -14.05 L-0.6 -14.55 -0.55 -13.85 0.3 -15.25 Q1.45 -16.95 3.85 -17.85 -2.9 -16.1 -0.65 -20.55 L-0.3 -21.25 Q0.75 -23.0 2.55 -23.8 L3.2 -24.25 4.75 -23.2 M14.05 -46.35 L14.0 -47.25 14.3 -47.25 14.2 -47.5 Q12.0 -51.95 15.9 -53.45 L15.25 -53.55 11.35 -53.8 9.15 -53.65 9.25 -53.6 Q7.25 -53.6 5.75 -52.85 4.65 -52.3 3.85 -51.3 1.7 -48.7 0.65 -45.55 L0.7 -46.65 Q0.9 -51.8 -1.2 -54.8 0.9 -51.8 0.7 -46.65 L0.65 -45.55 Q-0.3 -42.75 -0.4 -39.55 L-0.25 -36.1 Q0.2 -30.95 2.75 -26.85 L3.3 -25.75 Q3.6 -24.8 3.2 -24.25 L2.55 -23.8 Q0.75 -23.0 -0.3 -21.25 L-0.65 -20.55 Q-2.9 -16.1 3.85 -17.85 1.45 -16.95 0.3 -15.25 L-0.55 -13.85 -0.6 -14.55 Q-1.15 -17.65 -4.15 -18.35 L-5.4 -18.5 -3.9 -20.0 Q-3.3 -20.8 -2.85 -21.7 L-2.6 -22.3 -2.85 -21.7 Q-3.3 -20.8 -3.9 -20.0 L-5.4 -18.5 -6.75 -18.55 -6.7 -18.55 Q-4.5 -19.2 -3.8 -20.75 -3.45 -21.6 -3.5 -22.7 L-2.6 -22.3 -2.45 -22.7 -1.85 -25.4 Q-1.9 -27.2 -2.2 -28.6 L-2.3 -29.15 -2.5 -31.65 -2.1 -34.1 Q-1.05 -37.65 -4.0 -41.85 L-3.95 -42.4 Q-3.95 -45.55 -4.25 -48.75 -4.35 -50.05 -4.8 -51.1 -6.7 -55.6 -1.2 -54.8 L-2.0 -55.8 Q-2.7 -56.5 -3.65 -56.65 L-3.85 -56.7 -3.9 -56.7 -5.05 -56.75 Q-8.8 -56.45 -12.0 -55.35 L-14.55 -54.3 -15.4 -53.8 Q-17.25 -52.8 -18.4 -51.4 -19.5 -50.2 -20.0 -48.75 -20.55 -47.3 -20.5 -45.6 L-20.35 -38.15 Q-21.1 -43.2 -22.9 -46.65 L-23.55 -46.15 Q-22.65 -47.85 -21.4 -49.35 L-21.75 -50.05 -23.05 -49.4 -21.65 -50.8 Q-19.15 -53.15 -16.15 -54.9 L-16.1 -54.9 -16.05 -54.95 -15.15 -55.5 Q-12.85 -56.75 -10.25 -57.7 -4.6 -59.7 2.15 -58.9 9.75 -58.0 15.65 -55.3 18.1 -54.15 20.3 -52.6 L18.4 -52.8 15.9 -53.45 18.4 -52.8 Q15.75 -52.5 14.5 -48.1 L14.35 -47.45 14.3 -47.25 14.05 -46.35 M-1.85 -25.4 L-1.8 -26.3 -1.35 -29.9 -0.25 -36.1 -1.35 -29.9 -1.8 -26.3 -1.85 -25.4 M-5.7 -18.3 L-4.2 -18.25 -4.0 -18.2 -4.2 -18.1 -8.0 -16.95 -7.8 -17.2 Q-6.65 -17.65 -5.7 -18.3 M-0.55 -13.85 Q-1.95 -11.1 -0.75 -9.1 -0.45 -7.25 2.05 -6.75 0.0 -7.75 -0.75 -9.1 L-0.75 -10.7 Q-0.45 -12.5 -0.55 -13.85 M-22.0 -29.8 Q-22.25 -27.25 -21.6 -24.5 -21.3 -21.65 -23.6 -27.3 L-22.0 -29.8 M-18.0 -4.7 Q-15.2 -7.7 -14.9 -10.45 -18.55 -8.5 -18.0 -4.7" fill="#ede7da" fill-rule="evenodd" stroke="none"/>
    <path d="M-23.05 -49.4 L-21.75 -50.05 -21.4 -49.35 Q-22.65 -47.85 -23.55 -46.15 -26.05 -44.1 -27.35 -41.55 L-28.3 -42.1 -27.75 -43.1 Q-25.8 -46.5 -23.05 -49.4 M-15.4 -53.8 L-14.55 -54.3 -12.0 -55.35 Q-8.8 -56.45 -5.05 -56.75 L-3.9 -56.7 -3.95 -56.1 Q-7.9 -55.1 -10.5 -52.85 L-10.95 -52.45 Q-12.85 -53.55 -15.4 -53.8 M-5.2 -42.2 L-4.9 -41.45 -4.5 -40.4 Q-3.0 -36.45 -2.9 -31.7 L-2.5 -31.65 -2.3 -29.15 -2.2 -28.6 Q-1.9 -27.2 -1.85 -25.4 L-2.45 -22.7 -2.6 -22.3 -3.5 -22.7 -3.55 -22.95 -3.55 -23.1 -4.1 -28.9 -3.55 -23.1 -3.55 -22.95 -3.8 -20.75 Q-4.5 -19.2 -6.7 -18.55 -5.3 -20.65 -4.7 -23.25 -4.15 -25.8 -4.45 -28.9 L-4.1 -28.9 -4.1 -29.05 -4.75 -36.35 -5.1 -40.0 -5.15 -41.85 -5.2 -42.2 M16.3 -1.25 Q12.2 -4.2 9.5 -3.85 8.95 -5.4 8.85 -7.25 L16.6 -1.6 16.3 -1.25 M-2.85 33.5 L-2.9 33.5 -2.75 33.25 Q-1.0 29.6 -1.75 26.3 L-0.75 28.3 Q0.1 29.8 -1.35 31.95 L-2.85 33.5 M-2.95 23.4 L-3.85 21.5 -3.9 21.45 -3.9 21.35 Q-5.25 17.35 -2.05 13.75 L-1.85 13.8 -2.3 14.5 Q-4.75 18.1 -2.95 23.4 M-1.9 13.65 Q-0.95 12.4 -1.5 10.45 -2.95 5.65 -3.05 0.2 -0.85 0.85 -0.45 5.35 0.05 10.35 -1.8 13.7 L-1.9 13.65 M-19.65 -6.65 L-19.85 -6.8 -23.2 -2.4 -23.2 -2.35 -24.0 -1.25 -26.2 1.9 -26.3 1.2 Q-26.65 -1.6 -26.0 -3.95 -23.65 -7.85 -20.2 -11.25 L-18.75 -10.15 -18.4 -10.55 Q-17.1 -12.0 -15.5 -13.05 -16.45 -12.4 -17.0 -11.5 L-19.65 -6.65" fill="#795c3c" fill-rule="evenodd" stroke="none"/>
    <path d="M14.0 -47.25 Q13.65 -50.0 11.25 -51.85 L10.45 -52.4 Q8.0 -53.95 5.8 -52.75 L4.15 -51.45 Q1.6 -48.7 0.65 -45.35 M10.65 -17.45 Q10.3 -18.4 10.35 -19.6 L10.7 -25.95 10.85 -30.35 10.9 -31.7 11.3 -35.7 11.3 -35.75 Q11.8 -38.85 12.95 -41.5 L13.1 -41.8 14.05 -46.35 M-23.55 -46.15 L-22.9 -46.65 Q-21.1 -43.2 -20.35 -38.15 -20.3 -36.45 -20.5 -34.85 -21.75 -32.45 -22.0 -29.8 -22.25 -27.25 -21.6 -24.5 -21.3 -21.65 -23.6 -27.3 L-22.0 -29.8 M-10.95 -52.45 Q-9.6 -51.7 -8.6 -50.55 -5.3 -48.0 -5.2 -42.4 L-5.2 -42.2 M-8.6 -50.55 Q-7.05 -48.7 -6.3 -45.85 L-5.75 -43.5 -5.1 -40.0 -4.75 -36.35 -4.1 -29.05 -4.1 -28.9 M16.3 -1.25 Q12.2 -4.2 9.5 -3.85 M-26.2 1.9 L-27.0 3.05 Q-29.1 6.25 -29.3 10.7 -29.4 7.0 -28.5 2.8 L-27.85 0.15 Q-27.4 -1.5 -26.55 -3.05 L-26.0 -3.95 Q-23.65 -7.85 -20.2 -11.25 M-6.7 -18.55 Q-5.3 -20.65 -4.7 -23.25 -4.15 -25.8 -4.45 -28.9 M-15.4 -53.8 Q-12.85 -53.55 -10.95 -52.45" fill="none" stroke="#795c3c" stroke-linecap="round" stroke-linejoin="round" stroke-width="0.05"/>
    <path d="M0.65 -45.35 L0.1 -39.2 0.1 -39.15 Q0.7 -31.65 3.4 -25.8 4.0 -24.45 4.75 -23.2 7.2 -18.9 11.05 -16.6 L10.65 -17.45 M14.05 -46.35 L14.0 -47.25 M15.9 -53.45 L15.25 -53.55 11.35 -53.8 9.25 -53.6 Q7.25 -53.6 5.75 -52.85 4.65 -52.3 3.85 -51.3 1.7 -48.7 0.65 -45.55 L0.65 -45.35 Q-0.2 -42.5 0.1 -39.2 M9.25 -53.6 L9.15 -53.65 11.35 -53.8 M18.4 -52.8 L19.05 -52.6 Q20.95 -51.95 22.4 -50.9 L22.35 -51.0 22.25 -51.05 22.15 -51.15 20.3 -52.6 18.4 -52.8 15.9 -53.45 M20.3 -52.6 Q18.1 -54.15 15.65 -55.3 9.75 -58.0 2.15 -58.9 -4.6 -59.7 -10.25 -57.7 -12.85 -56.75 -15.15 -55.5 L-16.05 -54.95 -16.1 -54.9 -16.15 -54.9 Q-19.15 -53.15 -21.65 -50.8 L-23.05 -49.4 Q-25.8 -46.5 -27.75 -43.1 L-28.3 -42.1 -29.65 -39.9 M-20.35 -38.15 L-20.5 -45.6 Q-20.55 -47.3 -20.0 -48.75 -19.5 -50.2 -18.4 -51.4 -17.25 -52.8 -15.4 -53.8 L-14.55 -54.3 -12.0 -55.35 Q-8.8 -56.45 -5.05 -56.75 L-3.9 -56.7 -3.85 -56.7 -3.65 -56.65 Q-2.7 -56.5 -2.0 -55.8 L-1.2 -54.8 Q0.9 -51.8 0.7 -46.65 L0.65 -45.55 Q-0.3 -42.75 -0.4 -39.55 L-0.25 -36.1 0.1 -39.15 M-5.1 -40.0 L-5.15 -41.85 -5.2 -42.2 M-5.1 -40.0 L-4.45 -28.9 M-4.1 -28.9 L-3.55 -23.1 -3.55 -22.95 -3.5 -22.7 Q-3.45 -21.6 -3.8 -20.75 -4.5 -19.2 -6.7 -18.55 L-6.75 -18.55 -5.4 -18.5 -5.7 -18.3 -4.2 -18.25 -4.0 -18.2 -4.2 -18.1 -8.0 -16.95 -8.25 -16.9 -10.05 -16.55 Q-8.85 -16.8 -7.8 -17.2 L-7.2 -17.95 -5.7 -18.3 Q-6.65 -17.65 -7.8 -17.2 L-8.0 -16.95 M-2.6 -22.3 L-2.45 -22.7 -1.85 -25.4 -1.8 -26.3 -1.35 -29.9 -0.25 -36.1 Q0.2 -30.95 2.75 -26.85 L3.3 -25.75 Q3.6 -24.8 3.2 -24.25 L2.55 -23.8 Q0.75 -23.0 -0.3 -21.25 L-0.65 -20.55 Q-2.9 -16.1 3.85 -17.85 1.45 -16.95 0.3 -15.25 L-0.55 -13.85 Q-0.45 -12.5 -0.75 -10.7 L-0.75 -9.1 Q0.0 -7.75 2.05 -6.75 -0.45 -7.25 -0.75 -9.1 -1.95 -11.1 -0.55 -13.85 L-0.6 -14.55 Q-1.15 -17.65 -4.15 -18.35 L-5.4 -18.5 -3.9 -20.0 Q-3.3 -20.8 -2.85 -21.7 L-2.6 -22.3 M31.3 -41.35 Q28.3 -47.15 23.5 -50.8 L22.65 -51.4 22.55 -51.45 22.45 -51.55 Q21.3 -52.25 20.3 -52.6 M22.4 -50.9 Q24.1 -49.75 25.25 -48.1 M18.4 -52.8 Q15.75 -52.5 14.5 -48.1 L14.35 -47.45 14.3 -47.25 14.05 -46.35 Q14.1 -44.3 13.1 -41.8 L12.65 -39.1 12.25 -35.6 Q11.7 -28.85 12.15 -22.15 12.5 -16.4 16.35 -11.4 L13.5 -13.6 Q12.2 -14.9 11.05 -16.6 3.7 -18.2 10.5 -12.45 L11.7 -11.45 11.75 -11.4 Q15.9 -7.9 20.1 -4.7 23.8 -1.9 24.85 3.4 25.3 5.7 26.1 8.6 L26.1 8.65 26.2 9.1 26.6 14.3 Q27.05 19.4 22.45 17.95 L21.9 17.75 21.75 17.7 23.0 16.15 Q24.45 13.5 23.35 9.3 22.5 5.95 20.75 3.3 L20.65 3.2 18.7 0.8 16.3 -1.25 M9.5 -3.85 Q8.15 -3.65 7.15 -2.65 5.95 -1.45 5.25 0.9 3.65 6.25 4.55 12.15 5.25 16.65 2.2 20.35 0.15 22.85 0.55 25.8 L0.75 26.8 1.05 27.8 Q3.15 33.35 -2.2 33.5 M-2.9 33.5 L-2.75 33.25 Q-1.0 29.6 -1.75 26.3 L-1.8 26.15 Q-2.1 24.9 -2.75 23.75 L-2.95 23.4 -3.85 21.5 -3.9 21.45 -3.9 21.35 Q-5.25 17.35 -2.05 13.75 L-1.9 13.65 Q-0.95 12.4 -1.5 10.45 -2.95 5.65 -3.05 0.2 L-3.05 -0.35 Q-3.05 -1.4 -3.35 -2.2 -4.1 -4.15 -6.45 -5.1 -10.6 -6.75 -13.35 -5.4 -15.8 -4.2 -17.2 -0.65 -17.3 0.8 -17.9 2.5 -17.9 1.25 -17.5 0.15 L-17.2 -0.65 -17.25 -2.35 M-18.0 -4.55 L-18.05 -4.65 Q-18.65 -5.75 -19.65 -6.65 L-19.85 -6.8 -23.2 -2.4 -23.2 -2.35 -24.0 -1.25 -26.2 1.9 M-20.2 -11.25 L-19.7 -11.7 -19.65 -11.75 -19.55 -11.85 -18.35 -12.95 Q-17.4 -13.75 -16.25 -14.4 -14.0 -15.7 -10.95 -16.35 L-10.85 -16.4 -10.05 -16.55 -7.2 -17.95 -6.75 -18.55 -6.85 -18.55 -6.7 -18.55 M-27.35 -41.55 Q-27.85 -40.6 -28.05 -39.25 M-27.35 -41.55 Q-26.05 -44.1 -23.55 -46.15 M-20.35 -38.15 Q-19.1 -37.15 -20.0 -35.7 L-20.5 -34.85 Q-20.85 -32.15 -22.0 -29.8" fill="none" stroke="#ffffff" stroke-linecap="round" stroke-linejoin="round" stroke-width="0.05"/>
    <path d="M38.9 44.7 Q36.1 48.9 32.1 52.65 26.75 57.65 20.55 60.7 11.3 65.1 0.1 65.15 L-2.95 65.05 Q-19.8 64.1 -32.0 52.65 -42.4 42.9 -44.6 29.9 -47.8 18.4 -47.75 5.1 L-47.75 2.9 Q-47.2 -24.85 -33.15 -44.7 -23.4 -58.45 -10.95 -63.0 -8.65 -64.05 -6.1 -64.6 L-2.4 -65.05 -2.05 -65.05 4.35 -64.55 6.1 -64.2 Q9.8 -63.4 13.3 -61.85 L4.45 -60.85 Q0.7 -60.2 -2.75 -58.9 -5.55 -57.85 -8.2 -56.4 -13.85 -53.3 -16.1 -47.0 -18.35 -40.55 -18.35 -33.7 -18.4 -26.85 -17.55 -20.1 -16.8 -13.6 -15.25 -7.3 -13.85 -1.4 -11.85 4.45 -9.95 9.95 -7.5 15.2 -4.6 21.4 0.45 26.05 L9.95 34.3 Q15.25 38.7 21.55 41.0 27.6 43.2 34.0 44.4 L38.9 44.7 M18.25 52.85 L18.8 52.4 Q20.95 50.35 22.8 47.6 14.85 46.15 7.15 43.65 -7.55 38.8 -18.25 30.05 -21.85 27.1 -24.95 23.7 -27.6 20.85 -28.75 17.8 -29.95 14.7 -29.65 11.3 L-29.55 10.35 Q-27.2 -7.1 -33.05 -21.05 L-35.95 -19.1 -37.05 -19.55 Q-41.6 -15.05 -43.2 -9.25 -44.95 -3.1 -45.15 3.0 -45.45 13.2 -41.5 23.15 L-40.3 26.05 -41.05 26.15 -40.5 29.2 Q-39.5 34.5 -36.9 39.25 -34.15 44.3 -29.95 48.45 -25.8 52.65 -21.05 56.0 -16.25 59.4 -11.2 60.7 -7.1 61.85 -2.8 62.05 L0.05 62.1 Q6.05 61.95 11.45 60.75 15.7 59.8 19.4 58.05 L20.3 57.6 20.0 57.05 Q23.45 55.25 21.25 53.6 L20.6 54.15 Q16.2 57.85 10.6 59.45 5.5 60.9 -0.55 60.9 -6.7 60.95 -11.45 58.95 -16.1 57.0 -19.8 53.45 -23.05 50.35 -24.75 45.85 -19.55 50.0 -13.1 53.35 6.5 63.35 18.25 52.9 L18.25 52.85" fill="#2c5f6b" fill-opacity="0.6" fill-rule="evenodd" stroke="none"/>
    <path d="M13.3 -61.85 Q24.35 -56.95 33.2 -44.45 47.75 -23.8 47.8 5.35 47.75 18.6 44.75 30.15 43.15 36.1 40.8 41.55 L38.9 44.7 34.0 44.4 Q27.6 43.2 21.55 41.0 15.25 38.7 9.95 34.3 L0.45 26.05 Q-4.6 21.4 -7.5 15.2 -9.95 9.95 -11.85 4.45 -13.85 -1.4 -15.25 -7.3 -16.8 -13.6 -17.55 -20.1 -18.4 -26.85 -18.35 -33.7 -18.35 -40.55 -16.1 -47.0 -13.85 -53.3 -8.2 -56.4 -5.55 -57.85 -2.75 -58.9 0.7 -60.2 4.45 -60.85 L13.3 -61.85 M5.5 -58.05 Q0.9 -58.65 -2.1 -57.25 -5.15 -55.85 -6.6 -52.4 -7.1 -51.3 -6.35 -50.55 L16.0 -27.6 Q18.2 -25.3 19.65 -22.6 26.25 -9.65 30.05 4.35 31.0 8.0 35.35 7.35 37.0 3.05 37.05 -1.45 37.25 -15.45 33.65 -29.15 29.6 -44.55 15.2 -55.15 10.75 -57.65 5.5 -58.05 M33.0 11.2 Q32.0 11.1 31.2 11.55 24.8 14.8 27.05 21.35 27.65 23.25 28.9 24.9 31.3 27.95 34.65 25.6 37.8 23.2 39.1 19.8 41.5 13.4 35.5 10.55 L35.5 10.6 Q34.2 10.6 33.0 11.2" fill="#448da8" fill-opacity="0.4" fill-rule="evenodd" stroke="none"/>
    <path d="M5.5 -58.05 Q10.75 -57.65 15.2 -55.15 29.6 -44.55 33.65 -29.15 37.25 -15.45 37.05 -1.45 37.0 3.05 35.35 7.35 31.0 8.0 30.05 4.35 26.25 -9.65 19.65 -22.6 18.2 -25.3 16.0 -27.6 L-6.35 -50.55 Q-7.1 -51.3 -6.6 -52.4 -5.15 -55.85 -2.1 -57.25 0.9 -58.65 5.5 -58.05" fill="#a5cbd3" fill-opacity="0.2" fill-rule="evenodd" stroke="none"/>
    <path d="M33.0 11.2 Q34.2 10.6 35.5 10.6 L35.5 10.55 Q41.5 13.4 39.1 19.8 37.8 23.2 34.65 25.6 31.3 27.95 28.9 24.9 27.65 23.25 27.05 21.35 24.8 14.8 31.2 11.55 32.0 11.1 33.0 11.2" fill="#a5cbd3" fill-opacity="0.3019608" fill-rule="evenodd" stroke="none"/>
    <path d="M17.55 51.95 Q12.45 50.35 6.9 49.0 1.3 47.6 -3.8 44.5 -8.7 41.5 -12.65 37.3 -15.85 33.9 -18.25 30.05 -7.55 38.8 7.15 43.65 14.85 46.15 22.8 47.6 20.95 50.35 18.8 52.4 L18.25 52.85 17.55 51.95 M-29.65 11.3 L-31.9 9.25 Q-35.05 6.65 -38.5 8.9 -42.65 11.65 -42.1 18.1 L-41.5 23.15 Q-45.45 13.2 -45.15 3.0 -44.95 -3.1 -43.2 -9.25 -41.6 -15.05 -37.05 -19.55 L-35.95 -19.1 -33.05 -21.05 Q-27.2 -7.1 -29.55 10.35 L-29.65 11.3" fill="#2d545e" fill-opacity="0.7019608" fill-rule="evenodd" stroke="none"/>
    <path d="M-18.25 30.05 Q-15.85 33.9 -12.65 37.3 -8.7 41.5 -3.8 44.5 1.3 47.6 6.9 49.0 12.45 50.35 17.55 51.95 L18.25 52.9 Q6.5 63.35 -13.1 53.35 -19.55 50.0 -24.75 45.85 -35.05 37.6 -40.3 26.05 L-41.5 23.15 -42.1 18.1 Q-42.65 11.65 -38.5 8.9 -35.05 6.65 -31.9 9.25 L-29.65 11.3 Q-29.95 14.7 -28.75 17.8 -27.6 20.85 -24.95 23.7 -21.85 27.1 -18.25 30.05" fill="#132c2f" fill-opacity="0.8" fill-rule="evenodd" stroke="none"/>
    <path d="M-40.3 26.05 Q-35.05 37.6 -24.75 45.85 -23.05 50.35 -19.8 53.45 -16.1 57.0 -11.45 58.95 -6.7 60.95 -0.55 60.9 5.5 60.9 10.6 59.45 16.2 57.85 20.6 54.15 L21.25 53.6 Q23.45 55.25 20.0 57.05 L20.3 57.6 19.4 58.05 Q15.7 59.8 11.45 60.75 6.05 61.95 0.05 62.1 L-2.8 62.05 Q-7.1 61.85 -11.2 60.7 -16.25 59.4 -21.05 56.0 -25.8 52.65 -29.95 48.45 -34.15 44.3 -36.9 39.25 -39.5 34.5 -40.5 29.2 L-41.05 26.15 -40.3 26.05" fill="#20474d" fill-opacity="0.8" fill-rule="evenodd" stroke="none"/>
    <path d="M17.55 51.95 L18.25 52.85 18.25 52.9 17.55 51.95" fill="#2c5f6b" fill-opacity="0.8" fill-rule="evenodd" stroke="none"/>
    <path d="M38.9 44.7 Q36.1 48.9 32.1 52.65 26.75 57.65 20.55 60.7 11.3 65.1 0.1 65.15 L-2.95 65.05 Q-19.8 64.1 -32.0 52.65 -42.4 42.9 -44.6 29.9 -47.8 18.4 -47.75 5.1 L-47.75 2.9 Q-47.2 -24.85 -33.15 -44.7 -23.4 -58.45 -10.95 -63.0 -8.65 -64.05 -6.1 -64.6 L-2.4 -65.05 -2.05 -65.05 -0.55 -65.15 4.35 -64.55 6.1 -64.2 Q9.8 -63.4 13.3 -61.85 24.35 -56.95 33.2 -44.45 47.75 -23.8 47.8 5.35 47.75 18.6 44.75 30.15 43.15 36.1 40.8 41.55 L38.9 44.7 M-2.05 -65.05 L4.35 -64.55" fill="none" stroke="#253a35" stroke-linecap="round" stroke-linejoin="round" stroke-opacity="0.5019608" stroke-width="1.0"/>
  </g>
</svg>
