<?xml version="1.0" encoding="UTF-8" standalone="no"?>
<svg xmlns:xlink="http://www.w3.org/1999/xlink" height="93.75px" width="64.35px" xmlns="http://www.w3.org/2000/svg">
  <g transform="matrix(1.0, 0.0, 0.0, 1.0, -248.3, -147.35)">
    <path d="M312.35 207.7 L312.35 240.8 302.1 240.8 300.25 236.7 299.25 240.05 287.8 239.9 287.95 228.65 298.25 218.55 312.35 207.7 M248.6 218.35 Q250.0 212.55 248.6 206.8 L277.6 212.35 248.6 218.35 M249.9 193.75 L248.6 193.35 248.6 161.35 248.65 161.3 Q251.35 161.7 253.45 163.1 254.55 163.8 255.45 164.85 256.75 168.25 257.8 172.95 L258.85 172.2 Q259.7 176.05 259.65 181.3 L310.65 148.2 310.55 148.0 311.9 147.75 312.35 147.65 312.35 153.5 295.95 172.95 278.25 193.9 271.6 193.9 269.9 193.9 249.9 193.75" fill="#f0e3ca" fill-rule="evenodd" stroke="none"/>
    <path d="M312.35 153.5 L312.35 172.7 295.95 172.95 312.35 153.5 M287.8 239.9 L269.25 240.8 287.95 228.65 287.8 239.9" fill="#f5eede" fill-rule="evenodd" stroke="none"/>
    <path d="M248.7 161.2 Q249.15 159.0 250.3 158.6 L250.8 158.5 252.05 158.8 Q253.4 160.35 254.6 162.8 L255.45 164.85 Q254.55 163.8 253.45 163.1 251.35 161.7 248.65 161.3 L248.7 161.2 M310.55 148.0 L310.65 148.2 259.65 181.3 Q259.7 176.05 258.85 172.2 274.3 161.25 296.9 152.7 303.4 150.25 310.55 148.0" fill="#d8c6a0" fill-rule="evenodd" stroke="none"/>
    <path d="M308.2 194.0 L312.35 194.6 312.35 207.7 298.25 218.55 283.5 193.9 290.2 193.9 298.75 193.9 307.85 193.9 307.85 193.95 308.2 194.0" fill="#eedec1" fill-rule="evenodd" stroke="none"/>
    <path d="M312.35 172.7 L312.35 191.55 307.9 193.9 307.85 193.9 298.75 193.9 290.2 193.9 283.5 193.9 298.25 218.55 287.95 228.65 269.25 240.8 248.6 240.8 248.6 218.35 277.6 212.35 248.6 206.8 248.6 194.75 249.9 193.75 269.9 193.9 271.6 193.9 278.25 193.9 295.95 172.95 312.35 172.7" fill="#f2e7d0" fill-rule="evenodd" stroke="none"/>
    <path d="M258.85 172.2 L257.8 172.95 Q256.75 168.25 255.45 164.85 L254.6 162.8 296.9 152.7 Q274.3 161.25 258.85 172.2" fill="#f7eedd" fill-rule="evenodd" stroke="none"/>
    <path d="M251.95 158.3 L310.55 148.0 Q303.4 150.25 296.9 152.7 L254.6 162.8 Q253.4 160.35 252.05 158.8 L251.95 158.3" fill="#faf4eb" fill-rule="evenodd" stroke="none"/>
    <path d="M312.35 153.5 L312.35 172.7 312.35 191.55 307.9 193.9 308.2 194.0 312.35 194.6 312.35 207.7 312.35 240.8 302.1 240.8 300.25 236.7 299.25 240.05 287.8 239.9 269.25 240.8 248.6 240.8 248.6 218.35 Q250.0 212.55 248.6 206.8 L248.6 194.75 249.9 193.75 248.6 193.35 248.6 161.35 248.6 161.2 248.7 161.2 Q249.15 159.0 250.3 158.6 L250.8 158.5 251.95 158.3 310.55 148.0 311.05 147.85 311.2 147.8 311.9 147.75 312.35 147.65 312.35 153.5 M248.65 161.3 L248.6 161.35 M310.55 148.0 L311.9 147.75 M250.8 158.5 L252.05 158.8 M248.65 161.3 L248.7 161.2 M307.9 193.9 L307.85 193.9 M307.85 193.95 L307.9 193.9 M307.85 193.95 L308.2 194.0" fill="none" stroke="#000000" stroke-linecap="round" stroke-linejoin="round" stroke-opacity="0.6" stroke-width="0.6000000000000001"/>
    <path d="M258.85 172.2 L257.8 172.95 Q256.75 168.25 255.45 164.85 L254.6 162.8 Q253.4 160.35 252.05 158.8 M296.9 152.7 Q303.4 150.25 310.55 148.0 M307.85 193.9 L298.75 193.9 M290.2 193.9 L283.5 193.9 M269.9 193.9 L271.6 193.9 M258.85 172.2 Q274.3 161.25 296.9 152.7" fill="none" stroke="#000000" stroke-linecap="round" stroke-linejoin="round" stroke-opacity="0.5019608" stroke-width="0.05"/>
    <path d="M274.3 203.2 L269.9 202.7 269.55 202.7 M252.5 215.25 Q251.8 217.4 251.7 219.8 M257.3 207.7 L257.0 208.0 Q255.55 209.5 254.45 211.15 M253.85 229.65 Q254.95 231.6 256.55 233.35 M251.65 220.95 Q251.65 223.3 252.2 225.45 M282.15 207.3 Q280.4 205.75 278.45 204.75 M287.1 214.65 Q286.35 212.55 285.05 210.65 M288.0 223.7 L288.2 220.95 288.1 219.1 M284.5 231.95 Q285.95 230.1 286.8 228.05 M277.45 237.6 Q279.45 236.7 281.25 235.25 M268.65 239.2 L269.9 239.2 273.1 238.95 M265.1 203.3 Q262.9 203.85 260.95 204.95 M259.9 236.2 Q261.85 237.5 264.0 238.25" fill="none" stroke="#000000" stroke-linecap="round" stroke-linejoin="round" stroke-opacity="0.4" stroke-width="1.0"/>
  </g>
</svg>
