<?xml version="1.0" encoding="UTF-8" standalone="no"?>
<svg xmlns:xlink="http://www.w3.org/1999/xlink" height="97.1px" width="71.95px" xmlns="http://www.w3.org/2000/svg">
  <g transform="matrix(1.0, 0.0, 0.0, 1.0, -239.0, -151.9)">
    <path d="M309.4 218.5 L309.4 248.7 300.05 248.7 298.35 245.0 297.45 248.05 286.95 247.9 287.1 237.6 296.5 228.4 309.4 218.5 M251.15 228.2 Q252.45 222.9 251.15 217.65 L277.65 222.75 251.15 228.2 M252.35 205.75 L251.15 205.4 251.15 176.15 251.2 176.1 Q253.65 176.45 255.6 177.75 256.6 178.4 257.4 179.35 258.6 182.45 259.55 186.75 L260.5 186.05 Q261.3 189.6 261.25 194.35 L307.85 164.15 307.75 163.95 309.0 163.75 309.4 163.65 309.4 169.0 294.4 186.75 278.25 205.9 272.15 205.9 270.6 205.9 252.35 205.75" fill="#f0e3ca" fill-rule="evenodd" stroke="none"/>
    <path d="M309.4 169.0 L309.4 186.5 294.4 186.75 309.4 169.0 M286.95 247.9 L270.0 248.7 287.1 237.6 286.95 247.9" fill="#f5eede" fill-rule="evenodd" stroke="none"/>
    <path d="M251.25 176.0 Q251.65 174.0 252.7 173.65 L253.15 173.55 254.3 173.8 Q255.55 175.25 256.65 177.45 L257.4 179.35 Q256.6 178.4 255.6 177.75 253.65 176.45 251.2 176.1 L251.25 176.0 M307.75 163.95 L307.85 164.15 261.25 194.35 Q261.3 189.6 260.5 186.05 274.65 176.05 295.3 168.25 301.2 166.0 307.75 163.95" fill="#d8c6a0" fill-rule="evenodd" stroke="none"/>
    <path d="M305.6 205.95 L309.4 206.5 309.4 218.5 296.5 228.4 283.05 205.9 289.15 205.9 296.95 205.9 305.3 205.9 305.3 205.95 305.6 205.95" fill="#eedec1" fill-rule="evenodd" stroke="none"/>
    <path d="M309.4 186.5 L309.4 203.75 305.35 205.9 305.3 205.9 296.95 205.9 289.15 205.9 283.05 205.9 296.5 228.4 287.1 237.6 270.0 248.7 251.15 248.7 251.15 228.2 277.65 222.75 251.15 217.65 251.15 206.65 252.35 205.75 270.6 205.9 272.15 205.9 278.25 205.9 294.4 186.75 309.4 186.5" fill="#f2e7d0" fill-rule="evenodd" stroke="none"/>
    <path d="M260.5 186.05 L259.55 186.75 Q258.6 182.45 257.4 179.35 L256.65 177.45 295.3 168.25 Q274.65 176.05 260.5 186.05" fill="#f7eedd" fill-rule="evenodd" stroke="none"/>
    <path d="M254.2 173.35 L307.75 163.95 Q301.2 166.0 295.3 168.25 L256.65 177.45 Q255.55 175.25 254.3 173.8 L254.2 173.35" fill="#faf4eb" fill-rule="evenodd" stroke="none"/>
    <path d="M309.4 169.0 L309.4 186.5 309.4 203.75 305.35 205.9 305.6 205.95 309.4 206.5 309.4 218.5 309.4 248.7 300.05 248.7 298.35 245.0 297.45 248.05 286.95 247.9 270.0 248.7 251.15 248.7 251.15 228.2 Q252.45 222.9 251.15 217.65 L251.15 206.65 252.35 205.75 251.15 205.4 251.15 176.15 251.15 176.0 251.25 176.0 Q251.65 174.0 252.7 173.65 L253.15 173.55 254.2 173.35 307.75 163.95 308.2 163.8 308.35 163.75 309.0 163.75 309.4 163.65 309.4 169.0 M251.2 176.1 L251.15 176.15 M307.75 163.95 L309.0 163.75 M253.15 173.55 L254.3 173.8 M251.2 176.1 L251.25 176.0 M305.35 205.9 L305.3 205.9 M305.3 205.95 L305.35 205.9 M305.3 205.95 L305.6 205.95" fill="none" stroke="#000000" stroke-linecap="round" stroke-linejoin="round" stroke-opacity="0.6" stroke-width="0.6000000000000001"/>
    <path d="M260.5 186.05 L259.55 186.75 Q258.6 182.45 257.4 179.35 L256.65 177.45 Q255.55 175.25 254.3 173.8 M295.3 168.25 Q301.2 166.0 307.75 163.95 M305.3 205.9 L296.95 205.9 M289.15 205.9 L283.05 205.9 M270.6 205.9 L272.15 205.9 M260.5 186.05 Q274.65 176.05 295.3 168.25" fill="none" stroke="#000000" stroke-linecap="round" stroke-linejoin="round" stroke-opacity="0.5019608" stroke-width="0.05"/>
    <path d="M304.9 160.9 L306.15 160.7 306.55 160.6 306.55 165.95 291.55 183.7 275.4 202.85 269.3 202.85 267.75 202.85 249.5 202.7 248.3 202.35 248.3 173.1 248.35 173.05 Q250.8 173.4 252.75 174.7 253.75 175.35 254.55 176.3 255.75 179.4 256.7 183.7 L257.65 183.0 Q258.45 186.55 258.4 191.3 L305.0 161.1 304.9 160.9 M306.55 215.45 L306.55 245.65 297.2 245.65 295.5 241.95 294.6 245.0 284.1 244.85 284.25 234.55 293.65 225.35 306.55 215.45 M248.3 225.15 Q249.6 219.85 248.3 214.6 L274.8 219.7 248.3 225.15" fill="#f0e3ca" fill-rule="evenodd" stroke="none"/>
    <path d="M291.55 183.7 L306.55 165.95 306.55 183.45 291.55 183.7 M284.1 244.85 L267.15 245.65 284.25 234.55 284.1 244.85" fill="#f5eede" fill-rule="evenodd" stroke="none"/>
    <path d="M304.9 160.9 L305.0 161.1 258.4 191.3 Q258.45 186.55 257.65 183.0 271.8 173.0 292.45 165.2 298.35 162.95 304.9 160.9 M254.55 176.3 Q253.75 175.35 252.75 174.7 250.8 173.4 248.35 173.05 L248.4 172.95 Q248.8 170.95 249.85 170.6 L250.3 170.5 251.45 170.75 Q252.7 172.2 253.8 174.4 L254.55 176.3" fill="#d8c6a0" fill-rule="evenodd" stroke="none"/>
    <path d="M302.75 202.9 L306.55 203.45 306.55 215.45 293.65 225.35 280.2 202.85 286.3 202.85 294.1 202.85 302.45 202.85 302.45 202.9 302.75 202.9" fill="#eedec1" fill-rule="evenodd" stroke="none"/>
    <path d="M249.5 202.7 L267.75 202.85 269.3 202.85 275.4 202.85 291.55 183.7 306.55 183.45 306.55 200.7 302.5 202.85 302.45 202.85 294.1 202.85 286.3 202.85 280.2 202.85 293.65 225.35 284.25 234.55 267.15 245.65 248.3 245.65 248.3 225.15 274.8 219.7 248.3 214.6 248.3 203.6 249.5 202.7" fill="#f2e7d0" fill-rule="evenodd" stroke="none"/>
    <path d="M257.65 183.0 L256.7 183.7 Q255.75 179.4 254.55 176.3 L253.8 174.4 292.45 165.2 Q271.8 173.0 257.65 183.0" fill="#f7eedd" fill-rule="evenodd" stroke="none"/>
    <path d="M251.45 170.75 L251.35 170.3 304.9 160.9 Q298.35 162.95 292.45 165.2 L253.8 174.4 Q252.7 172.2 251.45 170.75" fill="#faf4eb" fill-rule="evenodd" stroke="none"/>
    <path d="M304.9 160.9 L306.15 160.7 305.5 160.7 305.35 160.75 304.9 160.9 251.35 170.3 250.3 170.5 251.45 170.75 M248.35 173.05 L248.3 173.1 248.3 202.35 249.5 202.7 248.3 203.6 248.3 214.6 Q249.6 219.85 248.3 225.15 L248.3 245.65 267.15 245.65 284.1 244.85 294.6 245.0 295.5 241.95 297.2 245.65 306.55 245.65 306.55 215.45 306.55 203.45 302.75 202.9 302.5 202.85 302.45 202.85 M306.55 165.95 L306.55 160.6 306.15 160.7 M306.55 165.95 L306.55 183.45 306.55 200.7 302.5 202.85 302.45 202.9 302.75 202.9 M248.4 172.95 Q248.8 170.95 249.85 170.6 L250.3 170.5 M248.35 173.05 L248.4 172.95 248.3 172.95 248.3 173.1" fill="none" stroke="#000000" stroke-linecap="round" stroke-linejoin="round" stroke-opacity="0.6" stroke-width="0.6000000000000001"/>
    <path d="M257.65 183.0 L256.7 183.7 Q255.75 179.4 254.55 176.3 L253.8 174.4 Q252.7 172.2 251.45 170.75 M267.75 202.85 L269.3 202.85 M292.45 165.2 Q298.35 162.95 304.9 160.9 M302.45 202.85 L294.1 202.85 M286.3 202.85 L280.2 202.85 M257.65 183.0 Q271.8 173.0 292.45 165.2" fill="none" stroke="#000000" stroke-linecap="round" stroke-linejoin="round" stroke-opacity="0.5019608" stroke-width="0.05"/>
    <path d="M303.8 212.8 L303.8 243.0 294.45 243.0 292.75 239.3 291.85 242.35 281.35 242.2 281.5 231.9 290.9 222.7 303.8 212.8 M245.55 222.5 Q246.85 217.2 245.55 211.95 L272.05 217.05 245.55 222.5 M246.75 200.05 L245.55 199.7 245.55 170.45 245.6 170.4 Q248.05 170.75 250.0 172.05 251.0 172.7 251.8 173.65 253.0 176.75 253.95 181.05 L254.9 180.35 Q255.7 183.9 255.65 188.65 L302.25 158.45 302.15 158.25 303.4 158.05 303.8 157.95 303.8 163.3 288.8 181.05 272.65 200.2 266.55 200.2 265.0 200.2 246.75 200.05" fill="#f0e3ca" fill-rule="evenodd" stroke="none"/>
    <path d="M303.8 163.3 L303.8 180.8 288.8 181.05 303.8 163.3 M281.35 242.2 L264.4 243.0 281.5 231.9 281.35 242.2" fill="#f5eede" fill-rule="evenodd" stroke="none"/>
    <path d="M245.65 170.3 Q246.05 168.3 247.1 167.95 L247.55 167.85 248.7 168.1 Q249.95 169.55 251.05 171.75 L251.8 173.65 Q251.0 172.7 250.0 172.05 248.05 170.75 245.6 170.4 L245.65 170.3 M302.15 158.25 L302.25 158.45 255.65 188.65 Q255.7 183.9 254.9 180.35 269.05 170.35 289.7 162.55 295.6 160.3 302.15 158.25" fill="#d8c6a0" fill-rule="evenodd" stroke="none"/>
    <path d="M300.0 200.25 L303.8 200.8 303.8 212.8 290.9 222.7 277.45 200.2 283.55 200.2 291.35 200.2 299.7 200.2 299.7 200.25 300.0 200.25" fill="#eedec1" fill-rule="evenodd" stroke="none"/>
    <path d="M303.8 180.8 L303.8 198.05 299.75 200.2 299.7 200.2 291.35 200.2 283.55 200.2 277.45 200.2 290.9 222.7 281.5 231.9 264.4 243.0 245.55 243.0 245.55 222.5 272.05 217.05 245.55 211.95 245.55 200.95 246.75 200.05 265.0 200.2 266.55 200.2 272.65 200.2 288.8 181.05 303.8 180.8" fill="#f2e7d0" fill-rule="evenodd" stroke="none"/>
    <path d="M254.9 180.35 L253.95 181.05 Q253.0 176.75 251.8 173.65 L251.05 171.75 289.7 162.55 Q269.05 170.35 254.9 180.35" fill="#f7eedd" fill-rule="evenodd" stroke="none"/>
    <path d="M248.6 167.65 L302.15 158.25 Q295.6 160.3 289.7 162.55 L251.05 171.75 Q249.95 169.55 248.7 168.1 L248.6 167.65" fill="#faf4eb" fill-rule="evenodd" stroke="none"/>
    <path d="M303.8 163.3 L303.8 180.8 303.8 198.05 299.75 200.2 300.0 200.25 303.8 200.8 303.8 212.8 303.8 243.0 294.45 243.0 292.75 239.3 291.85 242.35 281.35 242.2 264.4 243.0 245.55 243.0 245.55 222.5 Q246.85 217.2 245.55 211.95 L245.55 200.95 246.75 200.05 245.55 199.7 245.55 170.45 245.55 170.3 245.65 170.3 Q246.05 168.3 247.1 167.95 L247.55 167.85 248.6 167.65 302.15 158.25 302.6 158.1 302.75 158.05 303.4 158.05 303.8 157.95 303.8 163.3 M245.6 170.4 L245.55 170.45 M302.15 158.25 L303.4 158.05 M247.55 167.85 L248.7 168.1 M245.6 170.4 L245.65 170.3 M299.75 200.2 L299.7 200.2 M299.7 200.25 L299.75 200.2 M299.7 200.25 L300.0 200.25" fill="none" stroke="#000000" stroke-linecap="round" stroke-linejoin="round" stroke-opacity="0.6" stroke-width="0.6000000000000001"/>
    <path d="M254.9 180.35 L253.95 181.05 Q253.0 176.75 251.8 173.65 L251.05 171.75 Q249.95 169.55 248.7 168.1 M289.7 162.55 Q295.6 160.3 302.15 158.25 M299.7 200.2 L291.35 200.2 M283.55 200.2 L277.45 200.2 M265.0 200.2 L266.55 200.2 M254.9 180.35 Q269.05 170.35 289.7 162.55" fill="none" stroke="#000000" stroke-linecap="round" stroke-linejoin="round" stroke-opacity="0.5019608" stroke-width="0.05"/>
    <path d="M299.7 155.55 L300.95 155.35 301.35 155.25 301.35 160.6 286.35 178.35 270.2 197.5 264.1 197.5 262.55 197.5 244.3 197.35 243.1 197.0 243.1 167.75 243.15 167.7 Q245.6 168.05 247.55 169.35 L249.35 170.95 Q250.55 174.05 251.5 178.35 L252.45 177.65 Q253.25 181.2 253.2 185.95 L299.8 155.75 299.7 155.55 M301.35 210.1 L301.35 240.3 292.0 240.3 290.3 236.6 289.4 239.65 278.9 239.5 279.05 229.2 288.45 220.0 301.35 210.1 M243.1 219.8 Q244.4 214.5 243.1 209.25 L269.6 214.35 243.1 219.8" fill="#f0e3ca" fill-rule="evenodd" stroke="none"/>
    <path d="M286.35 178.35 L301.35 160.6 301.35 178.1 286.35 178.35 M278.9 239.5 L261.95 240.3 279.05 229.2 278.9 239.5" fill="#f5eede" fill-rule="evenodd" stroke="none"/>
    <path d="M299.7 155.55 L299.8 155.75 253.2 185.95 Q253.25 181.2 252.45 177.65 266.6 167.65 287.25 159.85 293.15 157.6 299.7 155.55 M249.35 170.95 L247.55 169.35 Q245.6 168.05 243.15 167.7 L243.2 167.6 Q243.6 165.6 244.65 165.25 L245.1 165.15 246.25 165.4 Q247.5 166.85 248.6 169.05 L249.35 170.95" fill="#d8c6a0" fill-rule="evenodd" stroke="none"/>
    <path d="M297.55 197.55 L301.35 198.1 301.35 210.1 288.45 220.0 275.0 197.5 281.1 197.5 288.9 197.5 297.25 197.5 297.25 197.55 297.55 197.55" fill="#eedec1" fill-rule="evenodd" stroke="none"/>
    <path d="M244.3 197.35 L262.55 197.5 264.1 197.5 270.2 197.5 286.35 178.35 301.35 178.1 301.35 195.35 Q299.35 196.4 297.3 197.5 L297.25 197.5 288.9 197.5 281.1 197.5 275.0 197.5 288.45 220.0 279.05 229.2 261.95 240.3 243.1 240.3 243.1 219.8 269.6 214.35 243.1 209.25 243.1 198.25 244.3 197.35" fill="#f2e7d0" fill-rule="evenodd" stroke="none"/>
    <path d="M252.45 177.65 L251.5 178.35 Q250.55 174.05 249.35 170.95 L248.6 169.05 287.25 159.85 Q266.6 167.65 252.45 177.65" fill="#f7eedd" fill-rule="evenodd" stroke="none"/>
    <path d="M246.25 165.4 L246.15 164.95 299.7 155.55 Q293.15 157.6 287.25 159.85 L248.6 169.05 Q247.5 166.85 246.25 165.4" fill="#faf4eb" fill-rule="evenodd" stroke="none"/>
    <path d="M299.7 155.55 L300.95 155.35 300.3 155.35 300.15 155.4 299.7 155.55 246.15 164.95 245.1 165.15 244.65 165.25 Q243.6 165.6 243.2 167.6 L243.15 167.7 243.1 167.75 243.1 197.0 244.3 197.35 243.1 198.25 243.1 209.25 Q244.4 214.5 243.1 219.8 L243.1 240.3 261.95 240.3 278.9 239.5 289.4 239.65 290.3 236.6 292.0 240.3 301.35 240.3 301.35 210.1 301.35 198.1 297.55 197.55 297.3 197.5 297.25 197.5 M301.35 160.6 L301.35 155.25 300.95 155.35 M301.35 160.6 L301.35 178.1 301.35 195.35 Q299.35 196.4 297.3 197.5 L297.25 197.55 297.55 197.55 M245.1 165.15 L246.25 165.4 M243.1 167.75 L243.1 167.6 243.2 167.6" fill="none" stroke="#000000" stroke-linecap="round" stroke-linejoin="round" stroke-opacity="0.6" stroke-width="0.6000000000000001"/>
    <path d="M252.45 177.65 L251.5 178.35 Q250.55 174.05 249.35 170.95 L248.6 169.05 Q247.5 166.85 246.25 165.4 M262.55 197.5 L264.1 197.5 M287.25 159.85 Q293.15 157.6 299.7 155.55 M297.25 197.5 L288.9 197.5 M281.1 197.5 L275.0 197.5 M252.45 177.65 Q266.6 167.65 287.25 159.85" fill="none" stroke="#000000" stroke-linecap="round" stroke-linejoin="round" stroke-opacity="0.5019608" stroke-width="0.05"/>
    <path d="M298.4 207.05 L298.4 237.25 289.05 237.25 287.35 233.55 286.45 236.6 275.95 236.45 276.1 226.15 285.5 216.95 298.4 207.05 M240.15 216.75 Q241.45 211.45 240.15 206.2 L266.65 211.3 240.15 216.75 M241.35 194.3 L240.15 193.95 240.15 164.7 240.2 164.65 Q242.65 165.0 244.6 166.3 245.6 166.95 246.4 167.9 247.6 171.0 248.55 175.3 L249.5 174.6 Q250.3 178.15 250.25 182.9 L296.85 152.7 296.75 152.5 298.0 152.3 298.4 152.2 298.4 157.55 283.4 175.3 267.25 194.45 261.15 194.45 259.6 194.45 241.35 194.3" fill="#f0e3ca" fill-rule="evenodd" stroke="none"/>
    <path d="M298.4 157.55 L298.4 175.05 283.4 175.3 298.4 157.55 M275.95 236.45 L259.0 237.25 276.1 226.15 275.95 236.45" fill="#f5eede" fill-rule="evenodd" stroke="none"/>
    <path d="M240.25 164.55 Q240.65 162.55 241.7 162.2 L242.15 162.1 243.3 162.35 Q244.55 163.8 245.65 166.0 L246.4 167.9 Q245.6 166.95 244.6 166.3 242.65 165.0 240.2 164.65 L240.25 164.55 M296.75 152.5 L296.85 152.7 250.25 182.9 Q250.3 178.15 249.5 174.6 263.65 164.6 284.3 156.8 290.2 154.55 296.75 152.5" fill="#d8c6a0" fill-rule="evenodd" stroke="none"/>
    <path d="M294.6 194.5 L298.4 195.05 298.4 207.05 285.5 216.95 272.05 194.45 278.15 194.45 285.95 194.45 294.3 194.45 294.3 194.5 294.6 194.5" fill="#eedec1" fill-rule="evenodd" stroke="none"/>
    <path d="M298.4 175.05 L298.4 192.3 294.35 194.45 294.3 194.45 285.95 194.45 278.15 194.45 272.05 194.45 285.5 216.95 276.1 226.15 259.0 237.25 240.15 237.25 240.15 216.75 266.65 211.3 240.15 206.2 240.15 195.2 241.35 194.3 259.6 194.45 261.15 194.45 267.25 194.45 283.4 175.3 298.4 175.05" fill="#f2e7d0" fill-rule="evenodd" stroke="none"/>
    <path d="M249.5 174.6 L248.55 175.3 Q247.6 171.0 246.4 167.9 L245.65 166.0 284.3 156.8 Q263.65 164.6 249.5 174.6" fill="#f7eedd" fill-rule="evenodd" stroke="none"/>
    <path d="M243.2 161.9 L296.75 152.5 Q290.2 154.55 284.3 156.8 L245.65 166.0 Q244.55 163.8 243.3 162.35 L243.2 161.9" fill="#faf4eb" fill-rule="evenodd" stroke="none"/>
    <path d="M298.4 157.55 L298.4 175.05 298.4 192.3 294.35 194.45 294.6 194.5 298.4 195.05 298.4 207.05 298.4 237.25 289.05 237.25 287.35 233.55 286.45 236.6 275.95 236.45 259.0 237.25 240.15 237.25 240.15 216.75 Q241.45 211.45 240.15 206.2 L240.15 195.2 241.35 194.3 240.15 193.95 240.15 164.7 240.15 164.55 240.25 164.55 Q240.65 162.55 241.7 162.2 L242.15 162.1 243.2 161.9 296.75 152.5 297.2 152.35 297.35 152.3 298.0 152.3 298.4 152.2 298.4 157.55 M240.2 164.65 L240.15 164.7 M296.75 152.5 L298.0 152.3 M242.15 162.1 L243.3 162.35 M240.2 164.65 L240.25 164.55 M294.35 194.45 L294.3 194.45 M294.3 194.5 L294.35 194.45 M294.3 194.5 L294.6 194.5" fill="none" stroke="#000000" stroke-linecap="round" stroke-linejoin="round" stroke-opacity="0.6" stroke-width="0.6000000000000001"/>
    <path d="M249.5 174.6 L248.55 175.3 Q247.6 171.0 246.4 167.9 L245.65 166.0 Q244.55 163.8 243.3 162.35 M284.3 156.8 Q290.2 154.55 296.75 152.5 M294.3 194.45 L285.95 194.45 M278.15 194.45 L272.05 194.45 M259.6 194.45 L261.15 194.45 M249.5 174.6 Q263.65 164.6 284.3 156.8" fill="none" stroke="#000000" stroke-linecap="round" stroke-linejoin="round" stroke-opacity="0.5019608" stroke-width="0.05"/>
    <path d="M299.65 197.15 L299.95 197.5 299.95 209.15 299.95 209.65 285.95 211.1 281.8 199.0 299.5 197.15 299.65 197.15 M271.85 200.05 L277.1 199.5 Q276.9 207.55 273.45 212.4 L268.95 212.9 268.65 212.9 241.25 215.75 243.75 208.9 271.85 200.05" fill="#d84014" fill-rule="evenodd" stroke="none"/>
    <path d="M299.95 209.15 L299.95 197.5 310.95 210.15 310.95 221.45 299.95 209.15" fill="#88280d" fill-rule="evenodd" stroke="none"/>
    <path d="M239.9 215.9 L239.0 216.0 239.0 203.45 271.85 200.05 243.75 208.9 241.25 215.75 239.9 215.9 239.85 215.15 239.9 215.9" fill="#ef7856" fill-rule="evenodd" stroke="none"/>
    <path d="M281.8 199.0 L285.95 211.1 273.45 212.4 Q276.9 207.55 277.1 199.5 L281.8 199.0 M268.65 212.9 L240.1 222.35 239.9 215.9 241.25 215.75 268.65 212.9" fill="#c23912" fill-rule="evenodd" stroke="none"/>
    <path d="M268.95 212.9 L268.65 212.9 240.1 222.35 239.9 215.9 239.85 215.15" fill="none" stroke="#000000" stroke-linecap="round" stroke-linejoin="round" stroke-opacity="0.5019608" stroke-width="0.05"/>
    <path d="M299.65 197.15 L299.95 197.5 299.95 197.1 M299.65 197.15 L299.5 197.15 M299.95 209.65 L299.95 209.15 299.95 197.5 310.95 210.15 310.95 221.45 299.95 209.15 M239.0 216.0 L239.0 203.45" fill="none" stroke="#000000" stroke-linecap="round" stroke-linejoin="round" stroke-opacity="0.4" stroke-width="0.05"/>
    <path d="M299.95 197.1 L299.65 197.15 M299.5 197.15 L281.8 199.0 277.1 199.5 271.85 200.05 239.0 203.45 M285.95 211.1 L299.95 209.65 M285.95 211.1 L273.45 212.4 268.95 212.9 M239.9 215.9 L239.0 216.0 M241.25 215.75 L268.65 212.9 M239.9 215.9 L241.25 215.75" fill="none" stroke="#000000" stroke-linecap="round" stroke-linejoin="round" stroke-opacity="0.4" stroke-width="0.05"/>
    <path d="M276.55 199.6 L284.05 198.9 Q287.6 203.6 289.45 208.35 292.95 217.2 290.7 226.2 L286.5 224.45 281.25 228.55 Q283.1 218.65 280.4 209.05 279.0 204.25 276.55 199.6" fill="#d84014" fill-rule="evenodd" stroke="none"/>
    <path d="M276.55 199.6 L284.05 198.9" fill="none" stroke="#000000" stroke-linecap="round" stroke-linejoin="round" stroke-opacity="0.5019608" stroke-width="0.05"/>
    <path d="M284.05 198.9 Q287.6 203.6 289.45 208.35 292.95 217.2 290.7 226.2 L286.5 224.45 281.25 228.55 Q283.1 218.65 280.4 209.05 279.0 204.25 276.55 199.6" fill="none" stroke="#000000" stroke-linecap="round" stroke-linejoin="round" stroke-opacity="0.5019608" stroke-width="0.05"/>
  </g>
</svg>
