<?xml version="1.0" encoding="UTF-8" standalone="no"?>
<svg xmlns:xlink="http://www.w3.org/1999/xlink" height="93.4px" width="59.8px" xmlns="http://www.w3.org/2000/svg">
  <g transform="matrix(1.0, 0.0, 0.0, 1.0, 0.5, 0.5)">
    <path d="M23.3 14.9 Q20.2 15.2 21.85 18.6 12.9 8.95 4.25 18.3 6.6 17.35 6.25 19.75 4.85 23.15 1.7 24.55 -0.05 23.95 0.0 22.45 0.0 20.7 2.35 17.85 L4.3 16.05 Q6.35 14.3 8.3 13.2 11.4 11.4 14.3 11.2 L17.3 11.45 17.4 11.45 Q20.45 12.2 23.3 14.9" fill="#e48010" fill-rule="evenodd" stroke="none"/>
    <path d="M21.85 18.6 Q20.2 15.2 23.3 14.9 25.3 16.8 27.2 19.75 28.2 17.85 29.8 18.25 32.0 18.3 31.15 21.75 29.65 25.15 26.7 25.1 24.25 21.15 21.85 18.6" fill="#a75e0c" fill-rule="evenodd" stroke="none"/>
    <path d="M23.3 14.9 Q20.45 12.2 17.4 11.45 L17.3 11.45 14.3 11.2 Q11.4 11.4 8.3 13.2 6.35 14.3 4.3 16.05 L2.35 17.85 Q0.0 20.7 0.0 22.45 -0.05 23.95 1.7 24.55 4.85 23.15 6.25 19.75 6.6 17.35 4.25 18.3 12.9 8.95 21.85 18.6 24.25 21.15 26.7 25.1 29.65 25.15 31.15 21.75 32.0 18.3 29.8 18.25 28.2 17.85 27.2 19.75 25.3 16.8 23.3 14.9 Z" fill="none" stroke="#9b3d1a" stroke-linecap="round" stroke-linejoin="round" stroke-opacity="0.5529412" stroke-width="1.0"/>
    <path d="M25.1 7.1 L24.4 6.85 Q21.5 5.65 21.5 4.0 21.5 2.35 24.4 1.15 27.25 -0.05 31.3 0.0 L31.4 0.0 Q35.35 0.0 38.2 1.15 41.1 2.35 41.1 4.0 L40.9 4.85 Q40.3 5.95 38.2 6.85 L37.55 7.1 Q34.85 8.0 31.3 8.0 27.75 8.0 25.1 7.1 M12.75 85.65 L10.8 83.45 8.95 80.85 7.5 78.3 6.7 76.85 6.65 76.8 5.9 75.35 4.6 72.35 3.75 69.35 3.75 69.3 3.05 66.0 2.7 62.7 2.55 59.2 2.65 55.75 3.05 52.4 3.75 49.2 Q4.1 47.6 4.6 46.1 5.15 44.55 5.85 43.15 L6.35 42.0 7.2 40.25 8.85 37.55 9.85 36.2 10.85 35.05 13.3 32.55 Q14.2 31.65 15.25 30.8 17.45 29.0 20.05 27.75 21.4 27.05 22.8 26.6 L25.1 26.0 25.2 25.95 25.6 25.85 25.35 25.6 Q29.2 18.65 27.4 12.2 L31.2 14.4 Q31.45 22.5 33.4 28.95 30.5 29.9 27.6 27.7 26.0 28.2 24.5 28.95 21.95 30.1 19.7 31.8 L16.85 34.3 15.3 35.85 14.35 36.9 14.2 37.1 13.9 37.45 13.5 38.0 13.35 38.15 13.35 38.2 Q12.45 39.45 11.7 40.8 L10.3 43.55 Q9.6 44.9 9.05 46.35 8.55 47.75 8.2 49.3 L7.55 52.3 Q7.25 53.85 7.1 55.5 L7.0 58.8 7.15 62.1 7.55 65.25 8.2 68.4 9.05 71.25 10.35 74.1 11.15 75.55 11.9 76.8 12.8 78.3 13.45 79.35 15.25 81.8 17.45 84.1 17.65 84.3 30.85 85.25 41.5 84.7 45.35 88.5 31.25 89.55 Q21.8 89.5 15.2 87.95 L12.95 85.85 12.75 85.65 M38.9 3.9 L39.0 3.75 39.1 3.45 Q39.05 2.7 36.8 2.2 L32.4 1.7 31.3 1.65 30.1 1.7 29.45 1.7 Q29.8 3.95 31.2 5.25 L31.3 5.25 36.8 4.75 38.9 3.9 M29.45 1.7 L25.85 2.2 Q23.55 2.7 23.55 3.45 23.55 4.2 25.85 4.75 L31.2 5.25 25.85 4.75 Q23.55 4.2 23.55 3.45 23.55 2.7 25.85 2.2 L29.45 1.7 M27.6 27.7 L25.6 25.85 27.6 27.7" fill="#f3a852" fill-rule="evenodd" stroke="none"/>
    <path d="M35.2 28.1 L37.15 28.95 Q39.7 30.1 41.95 31.8 44.25 33.65 46.35 35.85 L47.3 36.9 47.3 36.95 Q46.05 36.15 43.1 35.5 38.0 34.3 30.85 34.35 23.7 34.3 18.55 35.5 16.55 35.9 15.35 36.45 L14.35 36.95 14.35 36.9 15.3 35.85 16.85 34.3 19.7 31.8 Q21.95 30.1 24.5 28.95 26.0 28.2 27.6 27.7 30.5 29.9 33.4 28.95 L35.2 28.1" fill="#ef8918" fill-rule="evenodd" stroke="none"/>
    <path d="M48.35 38.2 L48.9 39.05 50.0 40.8 51.35 43.55 52.6 46.35 53.45 49.3 54.15 52.3 54.4 54.35 54.55 55.5 54.65 58.8 54.5 62.1 54.5 62.25 54.15 65.25 53.45 68.4 52.6 71.25 51.3 74.1 50.5 75.55 49.75 76.8 48.85 78.3 48.55 78.8 48.25 79.35 46.4 81.8 44.25 84.1 43.9 84.4 41.5 84.7 30.85 85.25 17.65 84.3 17.45 84.1 15.25 81.8 13.45 79.35 12.8 78.3 11.9 76.8 11.15 75.55 10.35 74.1 9.05 71.25 8.2 68.4 7.55 65.25 7.15 62.1 7.0 58.8 7.1 55.5 Q7.25 53.85 7.55 52.3 L8.2 49.3 Q8.55 47.75 9.05 46.35 9.6 44.9 10.3 43.55 L11.7 40.8 Q12.45 39.45 13.35 38.2 L13.35 38.15 13.45 38.25 Q13.45 39.85 18.55 41.0 23.7 42.15 30.85 42.15 L38.15 41.8 43.1 41.0 Q46.9 40.15 47.9 39.05 L48.25 38.25 48.35 38.2" fill="#d75822" fill-rule="evenodd" stroke="none"/>
    <path d="M14.35 36.95 L15.35 36.45 Q16.55 35.9 18.55 35.5 23.7 34.3 30.85 34.35 38.0 34.3 43.1 35.5 46.05 36.15 47.3 36.95 L47.4 37.0 48.25 38.1 48.25 38.25 47.9 39.05 Q46.9 40.15 43.1 41.0 L38.15 41.8 30.85 42.15 Q23.7 42.15 18.55 41.0 13.45 39.85 13.45 38.25 L13.5 38.0 13.9 37.45 14.2 37.1 14.35 36.95" fill="#e4845a" fill-rule="evenodd" stroke="none"/>
    <path d="M50.3 85.55 L50.2 90.65 Q31.5 94.25 12.6 90.45 L12.75 85.65 12.95 85.85 15.2 87.95 Q21.8 89.5 31.25 89.55 L45.35 88.5 48.0 88.0 50.3 85.55" fill="#d7780f" fill-rule="evenodd" stroke="none"/>
    <path d="M37.55 7.1 Q31.95 17.0 37.5 26.1 L37.45 26.15 35.2 28.1 33.4 28.95 Q31.45 22.5 31.2 14.4 L27.4 12.2 Q26.7 9.6 25.1 7.1 27.75 8.0 31.3 8.0 34.85 8.0 37.55 7.1" fill="#e48010" fill-rule="evenodd" stroke="none"/>
    <path d="M30.1 1.7 L31.3 1.65 32.4 1.7 36.8 2.2 Q39.05 2.7 39.1 3.45 L39.0 3.75 38.9 3.9 36.8 4.75 31.3 5.25 31.2 5.25 Q29.8 3.95 29.45 1.7 L30.1 1.7" fill="#f8d3a8" fill-rule="evenodd" stroke="none"/>
    <path d="M37.5 26.15 L41.3 27.75 Q43.85 29.0 46.05 30.85 48.35 32.75 50.4 35.05 L52.35 37.65 53.25 39.05 54.8 41.85 56.65 46.2 57.6 49.25 58.4 54.25 58.4 54.35 58.75 59.35 58.8 62.25 58.75 62.9 58.5 66.0 57.7 71.65 56.8 75.35 56.25 76.8 55.5 78.3 55.25 78.8 54.5 79.9 51.6 83.95 50.3 85.55 48.0 88.0 45.35 88.5 41.5 84.7 43.9 84.4 44.25 84.1 46.4 81.8 48.25 79.35 48.55 78.8 48.85 78.3 49.75 76.8 50.5 75.55 51.3 74.1 52.6 71.25 53.45 68.4 54.15 65.25 54.5 62.25 54.5 62.1 54.65 58.8 54.55 55.5 54.4 54.35 54.15 52.3 53.45 49.3 52.6 46.35 51.35 43.55 50.0 40.8 48.9 39.05 48.35 38.2 48.25 38.1 47.4 37.0 47.3 36.9 46.35 35.85 Q44.25 33.65 41.95 31.8 39.7 30.1 37.15 28.95 L35.2 28.1 37.45 26.15 37.5 26.15" fill="#e98210" fill-rule="evenodd" stroke="none"/>
    <path d="M25.1 7.1 L24.4 6.85 Q21.5 5.65 21.5 4.0 21.5 2.35 24.4 1.15 27.25 -0.05 31.3 0.0 L31.4 0.0 M40.9 4.85 Q40.3 5.95 38.2 6.85 L37.55 7.1 Q34.85 8.0 31.3 8.0 27.75 8.0 25.1 7.1 M37.5 26.15 L41.3 27.75 Q43.85 29.0 46.05 30.85 48.35 32.75 50.4 35.05 L52.35 37.65 53.25 39.05 54.8 41.85 56.65 46.2 57.6 49.25 58.4 54.25 58.4 54.35 58.75 59.35 58.8 62.25 58.75 62.9 58.5 66.0 57.7 71.65 56.8 75.35 56.25 76.8 55.5 78.3 55.25 78.8 54.5 79.9 51.6 83.95 50.3 85.55 M12.75 85.65 L10.8 83.45 8.95 80.85 7.5 78.3 6.7 76.85 6.65 76.8 5.9 75.35 4.6 72.35 3.75 69.35 3.75 69.3 M22.8 26.6 L25.1 26.0 25.2 25.95 25.6 25.85 27.6 27.7 Q30.5 29.9 33.4 28.95 L35.2 28.1 37.45 26.15 37.5 26.1 M38.9 3.9 L36.8 4.75 31.3 5.25 31.2 5.25 25.85 4.75 Q23.55 4.2 23.55 3.45 23.55 2.7 25.85 2.2 L29.45 1.7 30.1 1.7 M37.5 26.15 L37.45 26.15 M25.35 25.6 L25.6 25.85" fill="none" stroke="#9b3d1a" stroke-linecap="round" stroke-linejoin="round" stroke-opacity="0.6" stroke-width="1.0"/>
    <path d="M37.55 7.1 Q31.95 17.0 37.5 26.1 L37.5 26.15 M50.3 85.55 L50.2 90.65 Q31.5 94.25 12.6 90.45 L12.75 85.65 M25.1 26.0 L25.35 25.6 Q29.2 18.65 27.4 12.2 26.7 9.6 25.1 7.1" fill="none" stroke="#9b3d1a" stroke-linecap="round" stroke-linejoin="round" stroke-opacity="0.6" stroke-width="1.0"/>
    <path d="M31.4 0.0 Q35.35 0.0 38.2 1.15 41.1 2.35 41.1 4.0 L40.9 4.85 M3.75 69.3 L3.05 66.0 2.7 62.7 2.55 59.2 2.65 55.75 3.05 52.4 3.75 49.2 Q4.1 47.6 4.6 46.1 5.15 44.55 5.85 43.15 L6.35 42.0 7.2 40.25 8.85 37.55 9.85 36.2 10.85 35.05 13.3 32.55 Q14.2 31.65 15.25 30.8 17.45 29.0 20.05 27.75 21.4 27.05 22.8 26.6" fill="none" stroke="#9b3d1a" stroke-linecap="round" stroke-linejoin="round" stroke-opacity="0.5529412" stroke-width="1.0"/>
    <path d="M36.85 79.15 Q36.85 77.75 37.9 76.8 38.95 75.85 40.45 75.85 41.95 75.85 43.0 76.8 44.05 77.75 44.05 79.15 44.05 80.55 43.0 81.5 41.95 82.45 40.45 82.45 38.95 82.45 37.9 81.5 36.85 80.55 36.85 79.15" fill="#f8d3a8" fill-rule="evenodd" stroke="none"/>
    <path d="M25.8 37.1 L23.65 37.35 21.45 37.25 Q20.5 37.0 20.55 35.75 20.5 34.45 21.45 33.55 22.35 32.6 23.65 32.65 24.85 32.6 25.8 33.55 26.7 34.45 26.7 35.75 26.7 37.0 25.8 37.1" fill="#f8d3a8" fill-rule="evenodd" stroke="none"/>
    <path d="M34.0 34.35 Q32.8 30.95 36.3 30.3 39.9 29.6 44.45 33.55 55.6 47.5 54.65 61.8 53.75 74.9 43.85 84.5 41.0 87.25 34.6 88.2 27.9 89.2 29.1 85.35 30.25 81.75 33.75 72.65 36.6 65.2 37.6 60.85 40.7 47.6 34.0 34.35" fill="#8d3a16" fill-opacity="0.6" fill-rule="evenodd" stroke="none"/>
    <path d="M17.4 84.45 Q22.75 87.0 28.8 87.2 34.85 87.45 38.8 85.6 42.9 83.6 42.95 82.5 43.0 81.35 38.55 82.45 34.05 83.45 27.75 82.65 L16.85 80.7 Q12.25 79.6 12.2 80.75 12.15 81.85 17.4 84.45" fill="#f7ebdb" fill-opacity="0.5019608" fill-rule="evenodd" stroke="none"/>
    <path d="M19.35 41.55 Q13.9 53.5 13.25 64.55 L4.9 60.95 Q3.75 48.25 11.15 39.25 L19.35 41.55 M13.85 76.05 L8.15 74.4 Q7.15 71.8 6.5 69.3 L13.25 71.15 Q13.4 73.6 13.85 76.05" fill="#fadbb8" fill-opacity="0.3019608" fill-rule="evenodd" stroke="none"/>
    <path d="M25.7 33.55 Q23.45 34.7 21.15 37.15 18.85 39.6 16.8 40.8 14.85 42.0 13.6 40.3 12.4 38.65 13.45 36.05 14.55 33.5 17.25 31.5 20.0 29.5 22.75 29.25 25.55 29.05 26.75 30.7 28.0 32.4 25.7 33.55" fill="#f7ebdb" fill-opacity="0.5019608" fill-rule="evenodd" stroke="none"/>
    <path d="M27.6 25.45 Q28.1 23.9 28.4 20.9 L28.7 15.25 Q28.65 12.5 29.5 12.6 30.35 12.7 30.9 14.9 31.55 17.0 31.85 19.95 32.2 22.95 30.4 25.05 28.7 27.15 27.85 27.05 27.0 26.95 27.6 25.45" fill="#f8dfc2" fill-opacity="0.5019608" fill-rule="evenodd" stroke="none"/>
  </g>
</svg>
