<?xml version="1.0" encoding="UTF-8" standalone="no"?>
<svg xmlns:xlink="http://www.w3.org/1999/xlink" height="82.55px" width="97.15px" xmlns="http://www.w3.org/2000/svg">
  <g transform="matrix(1.0, 0.0, 0.0, 1.0, -226.2, -159.2)">
    <path d="M292.5 159.2 L302.65 160.0 307.0 161.25 316.1 170.25 316.75 171.0 323.35 197.5 316.55 218.95 301.5 233.4 266.75 241.75 237.2 231.8 236.85 230.4 Q233.2 229.2 235.4 225.75 L233.7 218.55 240.05 214.75 265.3 214.05 292.0 199.65 293.35 199.15 294.15 196.75 301.1 187.1 299.6 182.55 299.6 182.5 297.45 183.75 291.0 179.15 287.65 163.55 292.5 159.2" fill="#fedbc0" fill-opacity="0.2509804" fill-rule="evenodd" stroke="none"/>
    <path d="M233.7 215.65 L239.7 212.1 263.75 211.4 289.2 197.75 290.45 197.2 291.25 195.0 297.8 185.75 296.4 181.45 296.4 181.4 294.35 182.55 288.2 178.2 285.05 163.35 289.65 159.2 299.3 159.95 303.45 161.15 312.15 169.75 312.75 170.45 319.05 195.65 312.55 216.05 298.25 229.8 265.15 237.75 237.0 228.3 236.65 227.0 Q233.15 225.85 235.3 222.55 L233.7 215.65" fill="#fedbc0" fill-opacity="0.4509804" fill-rule="evenodd" stroke="none"/>
    <path d="M227.35 209.55 Q226.25 208.25 227.3 207.0 228.45 205.65 230.75 205.55 233.4 205.45 236.15 205.5 L236.15 207.85 233.55 207.95 Q228.05 208.3 227.35 209.55 M286.5 174.35 L282.8 174.25 Q280.1 175.2 278.1 173.5 L266.75 172.75 266.75 171.3 278.15 171.85 278.9 172.0 Q280.55 173.95 283.25 173.05 L285.5 172.2 286.05 172.35 288.15 171.75 291.3 170.6 292.55 171.55 292.1 174.35 288.8 174.9 286.5 174.35" fill="#6b661f" fill-rule="evenodd" stroke="none"/>
    <path d="M240.45 223.9 Q237.2 222.85 239.35 219.6 L240.95 219.75 243.35 219.2 243.6 219.4 244.7 222.05 242.2 223.3 240.45 223.9 M239.05 218.5 Q230.85 215.85 227.4 212.6 225.95 211.2 227.1 209.8 L227.35 209.55 227.6 209.8 Q231.2 213.2 238.15 215.1 L239.05 218.5 M266.75 171.3 L266.75 170.1 Q272.65 169.75 278.8 170.3 281.45 169.3 282.55 171.6 L282.75 171.65 285.75 170.8 286.05 172.35 285.5 172.2 283.25 173.05 Q280.55 173.95 278.9 172.0 L278.15 171.85 266.75 171.3 M282.75 171.65 L285.5 172.2 282.75 171.65" fill="#b5ab33" fill-rule="evenodd" stroke="none"/>
    <path d="M238.45 214.25 L237.9 214.05 237.75 213.45 243.2 210.15 253.65 209.85 245.7 215.65 244.95 216.3 238.45 214.25 M284.9 164.8 L288.75 161.3 290.95 161.5 297.45 162.15 293.85 166.55 293.35 166.55 284.9 164.8 M308.0 208.5 L308.0 208.65 307.95 208.6 305.0 211.75 304.7 211.75 303.35 210.7 304.6 207.3 308.0 206.4 308.0 208.5 M293.15 175.15 L293.0 177.9 289.2 176.6 288.8 174.9 292.1 174.35 292.35 174.55 293.15 175.15 M288.15 171.75 L288.05 171.3 289.7 169.35 291.3 170.6 288.15 171.75 M285.55 209.4 L288.4 208.0 289.4 210.85 287.75 211.35 285.55 209.4 M303.2 213.6 L303.15 213.65 303.1 213.6 303.15 213.6 303.2 213.6 M292.95 223.25 L292.0 215.35 297.8 209.05 303.1 213.6 292.95 223.25 M244.7 222.05 L245.15 223.15 242.85 224.3 242.2 223.3 244.7 222.05 M240.95 219.75 L241.2 217.85 243.35 219.2 240.95 219.75" fill="#72351b" fill-rule="evenodd" stroke="none"/>
    <path d="M249.1 227.95 L240.75 225.1 240.45 223.9 242.2 223.3 242.85 224.3 245.15 223.15 244.7 222.05 243.6 219.4 243.35 219.2 241.2 217.85 240.95 219.75 239.35 219.6 239.05 218.5 238.15 215.1 238.45 214.25 244.95 216.3 249.1 227.95 M294.9 181.8 L293.05 182.9 287.45 178.85 286.5 174.35 288.8 174.9 289.2 176.6 293.0 177.9 293.15 175.15 293.3 172.7 292.55 171.55 291.3 170.6 289.7 169.35 288.05 171.3 288.15 171.75 286.05 172.35 285.75 170.8 284.55 165.15 284.9 164.8 293.35 166.55 293.4 167.05 295.05 181.8 294.9 181.8" fill="#261209" fill-rule="evenodd" stroke="none"/>
    <path d="M265.15 209.5 L265.3 209.45 265.4 209.65 265.15 209.5 M296.45 185.5 L296.5 185.4 296.55 185.55 296.45 185.5 M297.75 162.15 L297.65 162.15 297.55 162.0 297.75 162.15 M261.0 216.5 L261.05 216.35 261.15 216.45 261.0 216.5 M305.4 169.2 L305.25 169.0 305.4 169.2" fill="#ffefae" fill-rule="evenodd" stroke="none"/>
    <path d="M250.6 228.45 L250.25 228.35 250.6 228.4 250.6 228.45" fill="#d2a800" fill-rule="evenodd" stroke="none"/>
    <path d="M308.0 208.5 L308.2 208.5 308.0 208.65 308.0 208.5 M305.0 211.75 L305.05 211.75 305.05 211.8 305.0 211.75 M261.0 216.5 L261.15 216.45 261.15 216.5 261.0 216.5 M283.95 209.85 L284.75 209.6 285.35 209.15 285.55 209.4 284.75 209.6 284.0 209.9 283.95 209.85 M303.2 213.6 L303.25 213.65 303.0 213.9 303.15 213.65 303.2 213.6" fill="#f0c000" fill-rule="evenodd" stroke="none"/>
    <path d="M297.55 162.0 L301.35 163.1 297.75 162.15 297.55 162.0 M305.45 169.1 L305.4 169.2 305.25 169.0 305.45 169.1 M271.5 213.6 L271.45 213.5 271.75 213.4 271.5 213.6" fill="#fbec31" fill-rule="evenodd" stroke="none"/>
    <path d="M265.4 209.65 L265.15 209.5 265.4 209.65 M301.0 173.2 L301.05 173.3 301.0 173.25 301.0 173.2" fill="#fff4cc" fill-rule="evenodd" stroke="none"/>
    <path d="M251.1 216.1 L251.25 216.05 251.3 216.15 251.1 216.1" fill="#dbcb04" fill-rule="evenodd" stroke="none"/>
    <path d="M305.6 217.75 L296.6 226.5 289.95 228.15 293.4 224.05 292.95 223.6 292.95 223.25 303.1 213.6 303.1 213.55 303.1 213.6 303.15 213.65 303.0 213.9 303.25 213.85 305.6 217.75 M310.35 185.25 L309.55 178.2 310.5 185.4 307.8 193.7 306.4 203.9 296.25 207.6 285.9 219.3 275.0 219.75 262.7 224.5 254.65 224.4 262.6 224.25 274.35 218.75 286.55 216.95 293.95 207.85 295.4 206.6 305.7 200.55 307.25 193.5 310.35 185.25 M311.7 207.0 L311.5 199.3 314.2 198.7 311.7 207.0 M305.0 211.75 L307.95 208.6 308.0 208.65 306.5 213.55 305.05 211.75 305.0 211.75" fill="#572915" fill-rule="evenodd" stroke="none"/>
    <path d="M301.0 173.25 L301.05 173.3 301.0 173.25" fill="#b1a90e" fill-rule="evenodd" stroke="none"/>
    <path d="M296.5 185.4 L296.55 185.35 296.6 185.55 296.55 185.55 296.5 185.4" fill="#fffae6" fill-rule="evenodd" stroke="none"/>
    <path d="M309.25 171.05 L309.8 171.7 313.7 187.35 313.1 187.95 310.5 185.4 309.55 178.2 310.35 185.25 307.5 182.5 307.85 181.8 305.4 169.2 305.45 169.1 309.25 171.05" fill="#fd440f" fill-rule="evenodd" stroke="none"/>
    <path d="M250.25 228.35 L249.1 227.95 244.95 216.3 245.7 215.65 251.1 216.1 251.3 216.15 253.7 221.95 253.2 216.3 253.85 216.35 259.7 216.85 261.0 216.5 261.15 216.5 260.75 219.4 261.55 221.55 262.6 224.25 254.65 224.4 262.7 224.5 264.75 229.9 250.6 228.4 250.25 228.35 M306.4 203.9 L309.1 206.0 308.2 208.5 308.0 208.5 308.0 206.4 304.6 207.3 303.35 210.7 304.7 211.75 305.0 211.75 305.05 211.8 303.25 213.65 303.2 213.6 303.15 213.6 303.1 213.6 297.8 209.05 292.0 215.35 292.95 223.25 292.95 223.6 287.85 224.7 285.9 219.3 296.25 207.6 306.4 203.9 M299.4 197.3 L305.7 200.55 295.4 206.6 293.95 207.85 286.55 216.95 284.0 209.9 284.75 209.6 285.55 209.4 285.35 209.15 290.0 205.2 297.55 202.85 296.6 199.65 299.4 197.3 M285.55 209.4 L287.75 211.35 289.4 210.85 288.4 208.0 285.55 209.4 M303.1 213.6 L303.1 213.55 303.1 213.6" fill="#f03702" fill-rule="evenodd" stroke="none"/>
    <path d="M267.25 233.65 L266.4 233.85 250.6 228.45 250.6 228.4 264.75 229.9 262.7 224.5 275.0 219.75 285.9 219.3 287.85 224.7 265.05 229.55 265.0 229.95 264.75 229.9 264.8 230.6 267.25 233.65 M307.5 182.5 L310.35 185.25 307.25 193.5 305.7 200.55 299.4 197.3 300.2 196.6 307.5 182.5 M310.5 185.4 L313.1 187.95 313.55 188.35 312.65 195.95 309.1 206.0 306.4 203.9 307.8 193.7 310.5 185.4 M261.55 221.55 L271.5 213.6 271.75 213.4 283.95 209.85 284.0 209.9 286.55 216.95 274.35 218.75 262.6 224.25 261.55 221.55 M301.05 173.3 L300.85 178.65 298.55 182.25 301.0 173.25 301.05 173.3" fill="#d53202" fill-rule="evenodd" stroke="none"/>
    <path d="M287.5 228.75 L267.25 233.65 264.8 230.6 264.75 229.9 265.0 229.95 265.05 229.55 287.85 224.7 287.5 228.75" fill="#b82b01" fill-rule="evenodd" stroke="none"/>
    <path d="M309.65 213.8 L305.6 217.75 303.25 213.85 303.0 213.9 303.25 213.65 305.05 211.8 305.05 211.75 306.5 213.55 308.0 208.65 308.2 208.5 309.1 206.0 309.75 213.45 309.65 213.8 M289.95 228.15 L287.5 228.75 287.85 224.7 292.95 223.6 293.4 224.05 289.95 228.15 M251.25 216.05 L257.0 213.1 253.85 216.35 253.2 216.3 253.7 221.95 251.3 216.15 251.25 216.05 M261.05 216.35 L263.1 213.2 271.45 213.5 271.5 213.6 261.55 221.55 260.75 219.4 261.15 216.5 261.15 216.45 261.05 216.35 M290.0 205.2 L296.6 199.65 297.55 202.85 290.0 205.2" fill="#942201" fill-rule="evenodd" stroke="none"/>
    <path d="M313.7 187.35 L315.55 194.95 314.2 198.7 311.5 199.3 311.7 207.0 309.75 213.45 309.1 206.0 312.65 195.95 313.55 188.35 313.1 187.95 313.7 187.35" fill="#7c1d01" fill-rule="evenodd" stroke="none"/>
    <path d="M265.3 209.45 L275.3 204.0 275.95 203.65 283.95 209.85 271.75 213.4 271.45 213.5 263.1 213.2 265.4 209.65 265.3 209.45" fill="#fe6d43" fill-rule="evenodd" stroke="none"/>
    <path d="M253.65 209.85 L265.15 209.5 265.4 209.65 263.1 213.2 261.05 216.35 261.0 216.5 259.7 216.85 253.85 216.35 257.0 213.1 251.25 216.05 251.1 216.1 245.7 215.65 253.65 209.85 M275.95 203.65 L288.35 196.9 289.5 196.4 299.4 197.3 296.6 199.65 290.0 205.2 285.35 209.15 284.75 209.6 283.95 209.85 275.95 203.65 M301.35 163.1 L309.25 171.05 305.45 169.1 305.25 169.0 297.75 162.15 301.35 163.1" fill="#fe815c" fill-rule="evenodd" stroke="none"/>
    <path d="M289.5 196.4 L290.2 194.35 296.45 185.5 296.55 185.55 296.6 185.55 307.5 182.5 300.2 196.6 299.4 197.3 289.5 196.4 M293.85 166.55 L297.45 162.15 297.65 162.15 297.75 162.15 305.25 169.0 301.0 173.2 301.0 173.25 293.95 166.65 293.85 166.55" fill="#ffbca6" fill-rule="evenodd" stroke="none"/>
    <path d="M305.4 169.2 L307.85 181.8 307.5 182.5 296.6 185.55 296.55 185.35 298.55 182.25 300.85 178.65 301.05 173.3 301.0 173.2 305.25 169.0 305.4 169.2" fill="#ffdbce" fill-rule="evenodd" stroke="none"/>
    <path d="M296.55 185.35 L295.9 184.95 295.15 182.55 295.05 181.8 293.4 167.05 293.95 166.65 301.0 173.25 298.55 182.25 296.55 185.35" fill="#ad2701" fill-rule="evenodd" stroke="none"/>
    <path d="M309.25 171.05 L309.8 171.7 313.7 187.35 315.55 194.95 309.65 213.8 305.6 217.75 296.6 226.5 289.95 228.15 287.5 228.75 267.25 233.65 266.4 233.85 250.6 228.45 M240.75 225.1 L240.45 223.9 Q237.2 222.85 239.35 219.6 M239.05 218.5 Q230.85 215.85 227.4 212.6 225.95 211.2 227.1 209.8 L227.35 209.55 Q226.25 208.25 227.3 207.0 228.45 205.65 230.75 205.55 233.4 205.45 236.15 205.5 L236.15 207.85 233.55 207.95 Q228.05 208.3 227.35 209.55 M227.6 209.8 Q231.2 213.2 238.15 215.1 M238.45 214.25 L237.9 214.05 237.75 213.45 243.2 210.15 253.65 209.85 265.15 209.5 265.3 209.45 275.3 204.0 M288.35 196.9 L289.5 196.4 290.2 194.35 296.45 185.5 296.5 185.4 M295.9 184.95 L295.15 182.55 294.9 181.85 294.9 181.8 293.05 182.9 287.45 178.85 286.5 174.35 282.8 174.25 Q280.1 175.2 278.1 173.5 L266.75 172.75 266.75 171.3 M266.75 170.1 Q272.65 169.75 278.8 170.3 281.45 169.3 282.55 171.6 L282.75 171.65 285.75 170.8 284.55 165.15 284.9 164.8 288.75 161.3 290.95 161.5 297.55 162.0 301.35 163.1 309.25 171.05 M293.85 166.55 L293.8 166.6 293.4 167.05 295.05 181.8 M293.35 166.55 L293.8 166.6 M293.35 166.55 L293.4 167.05" fill="none" stroke="#000000" stroke-linecap="round" stroke-linejoin="round" stroke-opacity="0.6" stroke-width="0.8"/>
    <path d="M227.35 209.55 L227.6 209.8 M288.8 174.9 L286.5 174.35 M292.1 174.35 L292.35 174.55 M286.05 172.35 L285.5 172.2 282.75 171.65 M292.1 174.35 L288.8 174.9" fill="none" stroke="#000000" stroke-linecap="round" stroke-linejoin="round" stroke-opacity="0.6" stroke-width="0.4"/>
    <path d="M297.7 193.95 L297.95 193.35 298.1 193.3 298.0 193.25 299.35 189.95 Q298.65 192.65 299.4 195.0 L300.25 196.0 300.45 193.55 Q301.2 196.15 301.0 197.7 L293.3 199.05 290.75 197.2 292.85 194.65 292.95 194.6 292.95 194.45 Q292.65 193.05 293.2 192.15 293.0 193.6 294.05 194.35 L295.1 194.05 295.95 192.95 Q296.75 190.8 296.0 188.75 297.1 190.4 297.7 192.6 L297.5 193.45 297.7 193.95 M292.2 199.7 L289.95 201.2 288.35 200.2 289.75 197.45 Q289.15 199.0 292.2 199.7" fill="#008040" fill-rule="evenodd" stroke="none"/>
  </g>
</svg>
