<?xml version="1.0" encoding="UTF-8" standalone="no"?>
<svg xmlns:xlink="http://www.w3.org/1999/xlink" height="37.15px" width="17.25px" xmlns="http://www.w3.org/2000/svg">
  <g transform="matrix(1.0, 0.0, 0.0, 1.0, -280.9, -181.05)">
    <path d="M280.95 210.6 L281.05 209.25 Q281.15 206.85 281.8 201.25 L282.45 193.2 Q282.6 188.7 281.9 185.05 287.35 183.85 290.75 181.05 291.8 182.35 292.15 183.9 L292.2 184.05 292.2 184.15 292.55 191.65 292.55 191.9 Q292.7 196.55 293.15 200.2 L293.15 200.35 Q293.7 208.15 296.8 212.3 L298.05 213.25 298.0 213.3 296.15 213.3 296.15 213.2 Q292.1 209.8 291.4 205.15 290.8 210.0 292.75 213.8 L292.65 213.85 292.45 214.2 292.4 214.65 292.35 214.9 Q292.15 215.95 291.25 216.25 L289.65 216.45 289.55 216.45 Q286.9 211.55 286.85 199.5 284.0 209.05 285.05 216.9 L284.8 217.05 284.1 217.4 Q281.3 214.45 280.95 210.6" fill="#d9d2c4" fill-rule="evenodd" stroke="none"/>
    <path d="M298.05 213.25 L298.1 213.3 298.15 213.35 298.1 213.35 298.0 213.3 298.05 213.25 M296.15 213.3 L295.45 213.25 296.15 213.2 296.15 213.3 M292.75 213.8 L292.65 213.85 292.75 213.8 M280.95 210.6 L280.95 210.05 280.95 210.6" fill="#555ba0" fill-rule="evenodd" stroke="none"/>
    <path d="M292.8 213.75 L292.8 213.8 292.75 213.8 292.8 213.75" fill="#43487e" fill-rule="evenodd" stroke="none"/>
    <path d="M295.45 213.25 L292.85 213.75 292.8 213.75 292.75 213.8 Q290.8 210.0 291.4 205.15 292.1 209.8 296.15 213.2 L295.45 213.25 M289.55 216.45 L287.95 216.45 Q286.05 216.4 285.05 216.9 284.0 209.05 286.85 199.5 286.9 211.55 289.55 216.45" fill="#bcb098" fill-rule="evenodd" stroke="none"/>
    <path d="M284.1 217.4 L284.8 218.1 284.85 218.15 Q282.3 218.35 280.9 217.15 L280.95 210.6 Q281.3 214.45 284.1 217.4" fill="#ffffff" fill-rule="evenodd" stroke="none"/>
    <path d="M280.95 210.6 L281.05 209.25 Q281.15 206.85 281.8 201.25 L282.45 193.2 Q282.6 188.7 281.9 185.05 287.35 183.85 290.75 181.05 291.8 182.35 292.15 183.9 L292.2 184.05 292.2 184.15 292.55 191.65 292.55 191.9 Q292.7 196.55 293.15 200.2 L293.15 200.35 Q293.7 208.15 296.8 212.3 L298.05 213.25 298.1 213.3 298.15 213.35 298.1 213.35 298.0 213.3 296.15 213.3 295.45 213.25 292.85 213.75 M292.8 213.75 L292.8 213.8 292.75 213.8 292.65 213.85 292.45 214.2 292.4 214.65 292.35 214.9 Q292.15 215.95 291.25 216.25 L289.65 216.45 289.55 216.45 287.95 216.45 Q286.05 216.4 285.05 216.9 L284.8 217.05 284.1 217.4 284.8 218.1 284.85 218.15 Q282.3 218.35 280.9 217.15 L280.95 210.6 Q281.3 214.45 284.1 217.4" fill="none" stroke="#7b6b53" stroke-linecap="round" stroke-linejoin="round" stroke-width="0.05"/>
    <path d="M290.35 195.1 Q289.45 196.95 288.1 197.5 286.75 198.05 285.7 197.05 284.65 196.1 284.5 194.05 284.4 192.05 285.2 190.25 286.1 188.45 287.45 187.9 288.8 187.3 289.85 188.3 290.95 189.3 291.05 191.3 291.2 193.3 290.35 195.1" fill="#c82d06" fill-rule="evenodd" stroke="none"/>
    <path d="M290.35 195.1 Q289.45 196.95 288.1 197.5 286.75 198.05 285.7 197.05 284.65 196.1 284.5 194.05 284.4 192.05 285.2 190.25 286.1 188.45 287.45 187.9 288.8 187.3 289.85 188.3 290.95 189.3 291.05 191.3 291.2 193.3 290.35 195.1 Z" fill="none" stroke="#851405" stroke-linecap="round" stroke-linejoin="round" stroke-width="0.05"/>
  </g>
</svg>
