<?xml version="1.0" encoding="UTF-8" standalone="no"?>
<svg xmlns:xlink="http://www.w3.org/1999/xlink" height="93.25px" width="93.75px" xmlns="http://www.w3.org/2000/svg">
  <g transform="matrix(1.0, 0.0, 0.0, 1.0, -228.1, -153.85)">
    <path d="M313.55 154.1 Q317.15 154.4 316.95 155.4 316.7 156.45 314.15 156.95 304.55 159.0 301.95 166.3 L299.6 168.95 Q300.0 175.8 296.3 181.25 294.2 183.6 296.4 185.4 296.0 186.65 305.25 187.9 319.55 185.95 321.55 191.25 L321.65 191.55 Q322.95 196.45 316.4 198.5 309.45 204.1 313.55 214.5 L314.6 218.0 Q318.35 226.15 315.6 228.6 314.25 229.75 312.35 230.15 L310.1 229.4 298.5 239.85 295.75 240.55 Q293.3 244.15 282.95 246.95 259.45 248.15 257.5 240.85 256.45 239.55 251.9 238.0 L241.15 233.5 Q232.4 229.45 228.25 218.8 227.35 211.7 231.5 209.6 234.1 207.6 236.55 209.1 L236.8 206.55 Q237.1 205.3 233.9 199.65 L233.85 199.6 232.25 197.65 230.85 193.85 Q229.55 190.35 231.35 185.55 233.1 180.75 234.6 178.25 236.05 175.75 238.4 175.45 240.8 175.1 240.45 176.55 240.1 178.0 241.4 182.6 242.7 187.15 243.7 183.7 L244.35 181.3 Q245.25 179.0 248.2 178.85 251.1 178.65 252.45 176.5 252.8 177.15 253.4 173.4 L254.2 169.6 Q254.7 167.9 255.75 166.65 256.7 165.5 258.1 164.65 L259.5 163.95 Q261.5 162.95 263.3 164.25 264.85 164.7 263.75 167.9 262.65 171.05 262.75 171.2 263.2 172.8 263.95 173.05 264.7 173.25 265.55 173.8 269.9 176.2 276.0 176.2 L279.45 174.35 Q282.6 173.55 285.15 171.4 283.85 172.65 284.75 171.85 L285.35 171.25 Q291.0 167.5 294.65 161.9 L298.6 158.7 Q302.5 155.9 304.5 155.1 306.45 154.25 309.0 153.95 L311.8 153.9 313.25 154.1 313.35 154.1 313.55 154.1 M304.9 179.3 Q305.35 177.55 306.9 175.95 L307.3 175.65 Q310.0 173.65 313.35 173.8 316.55 173.6 317.8 175.6 318.85 176.55 317.9 178.65 316.95 180.7 313.8 179.7 L306.55 179.35 304.4 180.5 304.9 179.3" fill="#fedbc0" fill-opacity="0.4509804" fill-rule="evenodd" stroke="none"/>
    <path d="M252.65 179.6 L252.5 179.05 Q254.25 178.1 254.8 174.45 255.25 171.6 255.55 170.85 256.0 169.25 256.95 168.05 257.85 166.95 259.15 166.15 L260.4 165.45 Q262.8 164.95 259.8 173.4 L259.65 175.2 259.65 175.25 259.6 175.7 263.55 180.6 Q258.35 177.85 252.65 179.6 M293.45 163.6 L293.55 163.0 295.45 161.45 296.55 160.5 296.6 160.5 Q300.2 157.8 302.05 157.05 303.85 156.3 306.25 156.0 L308.8 155.95 310.4 156.15 312.05 156.3 312.25 156.55 310.1 156.95 Q304.0 157.4 297.45 163.85 296.55 165.05 296.1 164.5 L293.45 163.6 M295.45 161.45 L296.6 160.5 295.45 161.45 M259.75 203.75 Q260.1 202.25 262.35 201.4 L261.9 208.25 259.6 210.0 259.75 203.75 M278.25 179.8 Q278.85 179.8 279.25 180.25 279.65 180.65 279.7 181.3 279.65 181.95 279.25 182.4 278.85 182.8 278.25 182.85 277.6 182.8 277.2 182.4 276.8 181.95 276.8 181.3 276.8 180.65 277.2 180.25 277.6 179.8 278.25 179.8 M275.6 190.1 L278.35 188.5 279.5 194.4 279.45 194.45 277.75 195.8 275.6 190.1 M310.25 174.8 Q313.3 175.45 311.4 177.45 310.55 178.6 308.75 178.75 L304.6 178.4 Q303.25 178.8 302.4 180.05 302.85 178.4 304.3 176.9 L304.65 176.6 Q307.15 174.7 310.25 174.8 M263.7 191.05 L263.4 191.05 Q262.3 191.05 261.5 190.25 260.7 189.4 260.7 188.25 260.7 187.05 261.5 186.25 262.3 185.4 263.4 185.4 264.5 185.4 265.3 186.25 L265.6 186.6 Q266.1 187.3 266.1 188.25 266.1 189.4 265.3 190.25 264.6 190.95 263.7 191.05 M281.05 221.25 L283.7 225.3 289.25 223.2 293.85 214.0 297.4 220.4 299.7 214.45 300.15 215.6 300.25 215.85 299.0 222.5 294.0 217.1 291.95 225.95 291.9 225.95 286.15 226.55 287.8 229.1 280.85 226.4 281.05 221.25" fill="#b8dad8" fill-rule="evenodd" stroke="none"/>
    <path d="M312.25 156.55 Q313.75 156.4 313.55 157.35 313.35 158.35 310.95 158.85 302.05 160.8 299.65 167.8 L299.1 167.75 297.45 163.85 Q304.0 157.4 310.1 156.95 L312.25 156.55 M307.4 227.5 L296.5 237.55 294.05 238.05 Q297.7 233.25 293.1 232.7 302.35 225.65 307.45 226.8 L307.4 227.5 M266.0 174.8 L266.1 174.8 268.05 175.8 275.05 177.15 275.25 177.15 275.75 177.15 275.75 177.25 Q271.35 185.8 266.05 181.95 L263.65 180.7 263.55 180.6 259.6 175.7 259.65 175.25 259.65 175.2 264.6 174.9 266.0 174.8 268.05 175.8 266.0 174.8 M248.7 207.6 L248.05 206.7 249.05 207.15 248.7 207.6" fill="#44827d" fill-rule="evenodd" stroke="none"/>
    <path d="M253.8 235.85 L253.5 235.85 243.45 231.5 Q235.35 227.65 231.5 217.55 231.05 211.55 233.45 210.3 L234.8 210.3 Q233.55 212.45 235.7 215.05 240.45 222.75 245.7 224.2 L245.2 219.65 243.65 211.75 244.4 211.6 245.55 213.15 247.95 223.45 252.7 226.25 252.8 227.15 252.75 226.25 252.45 220.8 252.3 218.3 252.25 218.2 Q251.95 216.85 251.95 215.2 L251.95 214.3 252.45 212.3 252.55 211.9 253.0 210.5 253.85 207.9 253.95 212.55 253.9 212.55 Q253.75 217.0 255.7 219.9 253.45 220.45 252.3 218.3 253.45 220.45 255.7 219.9 L256.3 219.85 255.65 221.05 257.0 222.95 Q258.55 232.3 263.2 236.75 L263.15 236.8 Q258.85 237.55 253.8 235.85 M235.2 197.4 L235.0 196.8 233.85 193.7 233.7 193.4 233.65 193.25 233.6 193.15 Q231.8 188.45 233.25 185.1 L235.7 179.65 Q236.35 177.5 238.0 177.35 L237.65 182.55 242.35 193.5 242.45 193.75 240.05 196.6 240.0 196.65 235.25 197.5 235.2 197.4 M251.5 180.0 Q252.1 179.75 252.65 179.6 258.35 177.85 263.55 180.6 L263.6 180.7 263.65 180.7 266.05 181.95 Q271.35 185.8 275.75 177.25 L276.2 177.05 276.25 177.0 276.3 177.0 278.0 176.1 278.15 175.95 278.85 175.4 Q281.75 174.6 284.15 172.55 282.95 173.75 283.8 173.0 L284.35 172.4 Q289.6 168.85 293.0 163.45 L293.45 163.6 296.1 164.5 295.0 165.4 Q291.9 168.65 292.05 172.4 L292.4 172.8 287.95 176.7 Q280.65 183.65 281.75 189.5 L281.6 189.5 280.55 189.0 278.35 188.5 275.6 190.1 277.75 195.8 261.9 208.25 262.35 201.4 Q260.1 202.25 259.75 203.75 259.4 205.5 258.3 206.35 255.2 208.85 253.9 207.75 L253.5 206.8 253.5 206.55 Q252.4 201.0 253.35 199.55 L253.35 199.45 Q256.95 196.6 255.45 186.85 L255.55 186.7 Q259.05 181.7 263.6 180.7 259.05 181.7 255.55 186.7 L255.45 186.65 Q254.6 181.6 251.5 180.0 M268.05 197.8 Q264.85 200.7 262.35 201.4 264.85 200.7 268.05 197.8 M278.25 179.8 Q277.6 179.8 277.2 180.25 276.8 180.65 276.8 181.3 276.8 181.95 277.2 182.4 277.6 182.8 278.25 182.85 278.85 182.8 279.25 182.4 279.65 181.95 279.7 181.3 279.65 180.65 279.25 180.25 278.85 179.8 278.25 179.8 M270.2 195.55 Q272.4 192.5 275.6 190.1 272.4 192.5 270.2 195.55 M235.25 197.5 L235.0 196.8 235.25 197.5 M265.6 186.6 L265.3 186.25 Q264.5 185.4 263.4 185.4 262.3 185.4 261.5 186.25 260.7 187.05 260.7 188.25 260.7 189.4 261.5 190.25 262.3 191.05 263.4 191.05 L263.7 191.05 Q263.9 192.0 264.65 192.8 265.75 193.95 267.3 193.95 268.8 193.95 269.9 192.8 271.0 191.65 271.0 190.05 271.0 188.45 269.9 187.3 268.8 186.15 267.3 186.15 266.35 186.15 265.6 186.6 M244.3 211.5 L244.35 211.6 243.65 211.75 243.5 211.1 243.5 211.05 243.7 211.5 243.55 211.05 243.7 210.7 244.3 211.5 M245.85 225.65 L245.7 224.2 245.85 225.65" fill="#8dc2c0" fill-rule="evenodd" stroke="none"/>
    <path d="M299.1 167.75 L299.25 168.15 298.1 169.25 297.55 169.75 295.0 165.4 296.1 164.5 Q296.55 165.05 297.45 163.85 L299.1 167.75 M263.45 172.4 Q263.85 173.9 264.55 174.1 L264.6 174.9 259.65 175.2 259.8 173.4 263.45 172.4" fill="#305a57" fill-rule="evenodd" stroke="none"/>
    <path d="M298.1 169.25 L297.65 169.95 297.5 170.2 297.55 169.75 298.1 169.25 M317.95 191.2 L318.0 191.2 317.8 191.4 317.95 191.2 M296.5 237.55 L294.1 238.3 294.05 238.05 296.5 237.55 M258.55 238.5 L258.05 238.5 257.65 238.4 257.9 238.4 258.55 238.5 M236.85 199.8 L236.85 199.75 236.75 199.45 236.75 199.4 236.8 199.45 237.1 199.85 237.15 199.9 236.85 199.8 M235.25 197.5 L235.2 197.5 235.2 197.4 235.25 197.5 M293.0 163.45 L293.05 163.45 293.45 163.6 293.0 163.45 M292.05 172.4 L292.55 172.65 292.4 172.8 292.05 172.4 M263.65 180.7 L263.6 180.7 263.55 180.6 263.65 180.7 M255.55 186.7 L255.45 186.85 255.45 186.65 255.55 186.7 M279.25 200.4 L280.95 199.55 281.0 199.5 285.05 197.25 283.95 198.0 281.85 199.15 281.05 199.6 281.0 199.65 279.35 200.65 279.15 200.45 279.25 200.4 M244.6 185.55 L244.65 185.55 244.65 185.6 244.6 185.55 M240.0 196.65 L240.05 196.6 240.1 196.7 240.0 196.65 M241.5 201.25 L242.15 201.45 243.0 202.15 242.2 201.55 241.5 201.25 M268.1 208.65 L268.05 208.65 268.1 208.65 267.45 209.2 268.05 208.65 268.75 208.15 268.1 208.65 M263.3 213.1 L263.3 213.05 263.35 213.1 263.3 213.1 M263.25 213.1 L263.2 213.05 263.25 213.05 263.25 213.1 M253.85 207.9 L253.9 207.75 253.95 207.85 253.85 207.9 M248.45 200.55 L248.4 200.5 248.45 200.5 248.45 200.55 M245.45 204.2 L247.35 205.8 248.05 206.7 248.7 207.6 247.9 206.65 245.45 204.2 M243.7 210.7 L243.8 210.55 244.3 211.5 243.7 210.7 M251.75 211.55 L251.95 211.65 251.85 211.7 251.75 211.55 251.85 211.7 251.55 212.05 251.75 211.55 M242.15 201.45 L242.2 201.55 242.15 201.45 M258.05 238.5 L257.9 238.4 258.05 238.5 M304.4 212.4 L304.45 212.7 304.4 212.4 304.55 212.8 304.45 212.7 303.55 211.8 304.4 212.4" fill="#ff0000" fill-rule="evenodd" stroke="none"/>
    <path d="M297.5 170.2 Q297.9 176.75 294.45 181.9 292.5 184.1 294.6 185.85 294.5 186.35 302.95 188.25 L303.1 188.6 Q299.55 190.8 293.7 188.75 287.85 186.7 289.1 182.15 L289.65 181.1 Q291.9 180.85 292.15 179.1 293.3 175.95 292.6 172.8 L292.55 172.65 292.05 172.4 Q291.9 168.65 295.0 165.4 L297.55 169.75 297.5 170.2 M257.9 238.4 Q258.0 237.4 253.8 235.85 258.85 237.55 263.15 236.8 L263.2 236.75 Q270.1 234.4 274.85 230.3 276.55 228.15 274.9 226.35 268.2 227.6 258.45 218.2 256.85 218.8 255.5 213.4 L261.15 214.25 263.2 213.05 261.15 214.25 255.5 213.4 253.95 207.85 253.9 207.75 253.85 207.9 253.0 210.5 252.55 211.9 252.45 212.3 251.95 214.3 251.95 215.2 Q251.95 216.85 252.25 218.2 L252.3 218.3 252.45 220.8 252.15 220.85 251.15 220.5 250.4 219.8 Q248.15 218.0 245.55 213.15 L244.4 211.6 244.4 211.55 244.3 211.5 243.8 210.55 243.7 210.7 243.55 211.05 243.5 211.05 243.5 211.1 243.65 211.75 245.2 219.65 Q243.25 218.15 243.9 218.35 L237.45 213.2 237.3 213.0 237.15 212.85 237.0 212.45 236.95 212.4 238.8 209.15 Q239.7 204.65 236.95 200.0 L237.15 199.9 237.1 199.85 236.8 199.45 236.75 199.4 235.25 197.5 240.0 196.65 240.1 196.7 242.15 201.45 240.1 196.7 248.2 200.45 248.4 200.5 248.45 200.55 248.45 200.5 Q251.5 201.55 253.35 199.55 252.4 201.0 253.5 206.55 L253.5 206.8 253.9 207.75 Q255.2 208.85 258.3 206.35 259.4 205.5 259.75 203.75 L259.6 210.0 261.9 208.25 267.5 208.6 261.9 208.25 277.75 195.8 279.45 194.45 279.5 194.45 290.9 190.85 307.7 195.1 302.8 202.45 304.3 211.65 303.55 211.8 301.25 210.1 304.3 217.95 302.2 221.0 300.25 215.85 300.15 215.6 299.7 214.45 297.4 220.4 293.85 214.0 289.25 223.2 283.7 225.3 281.05 221.25 280.85 221.0 280.8 221.1 278.15 225.85 276.8 226.1 275.05 226.45 274.9 226.35 275.05 226.45 276.8 226.1 Q278.7 228.0 277.4 230.65 275.0 236.15 265.55 238.15 L258.55 238.5 257.9 238.4 M281.0 199.5 L280.95 199.55 279.25 200.4 277.75 195.8 279.25 200.4 279.15 200.45 279.35 200.65 281.0 199.65 281.05 199.6 281.85 199.15 283.95 198.0 285.05 197.25 281.0 199.5 279.5 194.45 281.0 199.5 M285.05 197.25 Q285.35 197.05 285.7 196.9 L289.6 195.05 289.7 195.25 292.75 201.5 292.95 201.95 292.95 201.65 292.95 201.55 294.15 196.65 297.9 195.65 291.85 193.95 289.65 195.0 289.6 194.95 289.55 195.0 286.7 196.35 285.7 196.9 285.15 197.2 285.05 197.25 M302.4 180.05 Q303.25 178.8 304.6 178.4 L308.75 178.75 Q310.55 178.6 311.4 177.45 313.3 175.45 310.25 174.8 313.2 174.65 314.35 176.55 315.3 177.45 314.45 179.45 313.55 181.4 310.65 180.45 L303.95 180.1 301.95 181.2 302.4 180.05 M239.4 200.6 L237.15 199.9 239.4 200.6 239.5 201.15 239.6 200.65 241.5 201.25 239.6 200.6 239.4 200.55 239.4 200.6 M242.15 201.45 L241.5 201.25 242.2 201.55 243.0 202.15 244.35 203.2 245.45 204.2 244.35 203.2 243.0 202.15 242.15 201.45 M268.1 208.65 L268.75 208.15 268.05 208.65 267.5 208.6 267.45 209.2 266.5 210.0 266.6 210.15 266.6 210.0 267.45 209.2 268.1 208.65 M268.75 208.15 L268.85 208.05 275.1 203.45 279.15 200.45 275.1 203.45 268.85 208.05 268.75 208.15 M263.35 213.1 L266.6 210.15 263.35 213.1 263.25 213.05 263.2 213.05 263.25 213.1 263.15 213.2 263.3 213.05 263.3 213.1 263.55 213.4 263.35 213.1 M266.5 210.0 L259.6 210.0 266.5 210.0 M268.15 216.35 L268.85 216.3 268.15 216.35 M247.35 205.8 L245.45 204.2 247.9 206.65 248.7 207.6 250.25 209.45 248.7 207.6 250.2 209.55 251.6 211.35 251.55 211.25 250.25 209.45 250.2 209.55 248.7 207.6 249.05 207.15 248.05 206.7 247.35 205.8 248.45 200.55 253.5 206.55 248.45 200.55 247.35 205.8 M251.85 211.7 L251.95 211.65 251.75 211.55 251.55 212.05 251.85 211.7 252.45 212.3 251.85 211.7 M251.6 211.35 L251.75 211.55 251.6 211.35 M252.55 211.9 L251.95 211.65 253.0 210.5 251.95 211.65 252.55 211.9" fill="#386b67" fill-rule="evenodd" stroke="none"/>
    <path d="M292.55 172.65 L292.6 172.8 292.4 172.8 292.55 172.65 M317.5 191.3 L317.4 191.0 317.75 191.2 317.8 191.2 317.95 191.2 317.8 191.4 317.8 191.25 317.75 191.2 317.5 191.3 M242.35 193.5 L242.9 193.25 242.45 193.75 242.35 193.5 M280.8 221.1 L280.85 221.0 281.05 221.25 280.8 221.1 M263.25 213.05 L263.35 213.1 263.3 213.05 263.25 213.05 M248.45 200.55 L248.45 200.5 248.45 200.55 M244.3 211.5 L244.4 211.55 244.4 211.6 244.3 211.5 M252.7 226.25 L252.75 226.25 252.8 227.15 252.7 226.25" fill="#cc0000" fill-rule="evenodd" stroke="none"/>
    <path d="M303.35 188.65 Q316.35 186.3 317.4 191.0 L317.5 191.3 307.75 195.0 307.7 195.1 307.75 195.0 317.5 191.3 317.75 191.2 317.8 191.25 317.8 191.4 Q319.35 196.25 313.05 198.3 307.4 205.0 310.45 213.45 L311.4 216.8 Q314.9 224.5 312.3 226.85 311.1 227.95 309.35 227.35 L307.75 226.85 307.45 226.8 Q302.35 225.65 293.1 232.7 297.7 233.25 294.05 238.05 291.9 241.6 282.1 244.25 260.35 245.4 258.55 238.5 L265.55 238.15 Q275.0 236.15 277.4 230.65 278.7 228.0 276.8 226.1 L278.15 225.85 280.8 221.1 281.05 221.25 280.85 226.4 287.8 229.1 286.15 226.55 291.9 225.95 291.95 225.95 294.0 217.1 299.0 222.5 300.25 215.85 302.2 221.0 304.3 217.95 301.25 210.1 303.55 211.8 304.45 212.7 304.55 212.8 304.4 212.4 304.3 211.65 302.8 202.45 307.7 195.1 290.9 190.85 279.5 194.45 279.5 194.4 278.35 188.5 280.55 189.0 281.6 189.5 281.75 189.5 Q280.65 183.65 287.95 176.7 L292.4 172.8 292.6 172.8 Q293.3 175.95 292.15 179.1 291.9 180.85 289.65 181.1 L289.1 182.15 Q287.85 186.7 293.7 188.75 299.55 190.8 303.1 188.6 L303.35 188.65 M260.4 165.45 Q262.25 164.55 263.95 165.75 265.35 166.2 264.35 169.25 263.35 172.25 263.45 172.4 L259.8 173.4 Q262.8 164.95 260.4 165.45 M289.6 189.2 L281.75 189.5 289.6 189.2 M265.6 186.6 Q266.35 186.15 267.3 186.15 268.8 186.15 269.9 187.3 271.0 188.45 271.0 190.05 271.0 191.65 269.9 192.8 268.8 193.95 267.3 193.95 265.75 193.95 264.65 192.8 263.9 192.0 263.7 191.05 264.6 190.95 265.3 190.25 266.1 189.4 266.1 188.25 266.1 187.3 265.6 186.6 M306.5 220.5 L307.15 219.6 304.55 212.8 307.15 219.6 306.5 220.5 M293.1 232.7 Q282.85 235.85 277.4 230.65 282.85 235.85 293.1 232.7" fill="#56a39e" fill-rule="evenodd" stroke="none"/>
    <path d="M264.55 174.1 L266.0 174.8 264.6 174.9 264.55 174.1 M275.75 177.15 L275.95 177.15 275.75 177.25 275.75 177.15" fill="#b70000" fill-rule="evenodd" stroke="none"/>
    <path d="M279.5 194.4 L279.5 194.45 279.45 194.45 279.5 194.4" fill="#9f0000" fill-rule="evenodd" stroke="none"/>
    <path d="M289.7 195.25 L289.6 195.05 285.7 196.9 Q285.35 197.05 285.05 197.25 L285.15 197.2 285.7 196.9 286.7 196.35 289.55 195.0 289.6 194.95 289.65 195.0 289.7 195.25 M292.95 201.65 L292.95 201.95 292.75 201.5 292.95 201.65 M289.55 195.0 L289.6 195.05 289.65 195.0 289.6 195.05 289.55 195.0 M239.4 200.6 L239.4 200.55 239.6 200.6 241.5 201.25 239.6 200.65 239.5 201.15 239.4 200.6 239.6 200.65 239.6 200.6 239.6 200.65 239.4 200.6 M267.45 209.2 L266.6 210.0 266.6 210.15 266.5 210.0 267.45 209.2 M263.3 213.05 L263.15 213.2 263.25 213.1 263.25 213.05 263.3 213.05 M266.5 210.0 L266.6 210.0 266.5 210.0 M268.15 216.35 L268.85 216.3 268.15 216.35 M244.4 211.6 L244.35 211.6 244.3 211.5 244.4 211.6 M250.2 209.55 L250.25 209.45 251.55 211.25 251.6 211.35 250.2 209.55 M243.55 211.05 L243.7 211.5 243.5 211.05 243.55 211.05" fill="#ffff00" fill-rule="evenodd" stroke="none"/>
    <path d="M289.65 195.0 L291.85 193.95 297.9 195.65 294.15 196.65 292.95 201.55 292.75 201.5 289.7 195.25 289.65 195.0" fill="#284d49" fill-rule="evenodd" stroke="none"/>
    <path d="M250.8 179.9 L251.15 179.65 251.15 179.7 251.15 179.8 251.15 179.95 250.8 179.9 M244.35 211.6 L244.4 211.6 243.65 211.75 244.35 211.6" fill="#5772f0" fill-rule="evenodd" stroke="none"/>
    <path d="M234.8 210.3 Q236.65 210.55 236.95 212.4 L236.9 212.5 237.0 212.45 237.15 212.85 237.3 213.0 237.2 213.25 237.4 213.25 237.45 213.2 243.9 218.35 Q243.25 218.15 245.2 219.65 L245.7 224.2 Q240.45 222.75 235.7 215.05 233.55 212.45 234.8 210.3 M238.0 177.35 Q239.4 177.8 239.45 179.2 L239.55 180.6 239.5 180.75 239.5 180.8 Q240.45 185.8 241.75 187.05 L244.45 185.8 244.5 185.7 244.55 185.65 244.6 185.55 244.65 185.6 244.65 185.55 244.4 185.25 Q245.55 180.5 250.8 179.9 L251.15 179.95 251.5 180.0 Q254.6 181.6 255.45 186.65 L255.45 186.85 Q256.95 196.6 253.35 199.45 L253.35 199.55 Q251.5 201.55 248.45 200.5 L248.2 200.45 240.1 196.7 240.05 196.6 242.45 193.75 242.9 193.25 242.35 193.5 237.65 182.55 238.0 177.35 M244.65 185.6 L244.8 193.25 242.9 193.25 244.8 193.25 244.65 185.6 M255.5 213.4 Q256.85 218.8 258.45 218.2 268.2 227.6 274.9 226.35 276.55 228.15 274.85 230.3 270.1 234.4 263.2 236.75 258.55 232.3 257.0 222.95 L255.65 221.05 256.3 219.85 255.7 219.9 Q253.75 217.0 253.9 212.55 L253.95 212.55 253.85 207.9 253.95 207.85 255.5 213.4 M258.45 218.2 L256.3 219.85 258.45 218.2 M245.55 213.15 Q248.15 218.0 250.4 219.8 L251.15 220.5 252.15 220.85 252.7 226.25 247.95 223.45 245.55 213.15" fill="#6ab0ad" fill-rule="evenodd" stroke="none"/>
    <path d="M263.55 180.6 L263.6 180.7 263.55 180.6" fill="#0039ff" fill-rule="evenodd" stroke="none"/>
    <path d="M292.95 201.55 L292.95 201.65 292.75 201.5 292.95 201.55 M267.5 208.6 L268.05 208.65 267.45 209.2 267.5 208.6" fill="#660000" fill-rule="evenodd" stroke="none"/>
    <path d="M253.85 207.9 L253.95 207.85 253.85 207.9" fill="#0f29a8" fill-rule="evenodd" stroke="none"/>
    <path d="M263.35 213.1 L263.55 213.4 263.3 213.1 263.35 213.1" fill="#efdf21" fill-rule="evenodd" stroke="none"/>
    <path d="M248.45 200.5 L248.4 200.5 248.2 200.45 248.45 200.5" fill="#ff5555" fill-rule="evenodd" stroke="none"/>
    <path d="M236.95 200.0 L236.85 199.8 237.15 199.9 236.95 200.0 M303.55 211.8 L304.3 211.65 304.4 212.4 303.55 211.8 M237.45 213.2 L237.4 213.25 237.2 213.25 237.45 213.2" fill="#910000" fill-rule="evenodd" stroke="none"/>
    <path d="M252.15 220.85 L252.45 220.8 252.75 226.25 252.7 226.25 252.15 220.85" fill="#0d238a" fill-rule="evenodd" stroke="none"/>
    <path d="M307.75 226.85 L307.4 227.5 307.45 226.8 307.75 226.85" fill="#b30000" fill-rule="evenodd" stroke="none"/>
    <path d="M312.25 156.55 Q313.75 156.4 313.55 157.35 313.35 158.35 310.95 158.85 302.05 160.8 299.65 167.8 L299.1 167.75 M299.25 168.15 L298.1 169.25 297.55 169.75 M297.5 170.2 Q297.9 176.75 294.45 181.9 292.5 184.1 294.6 185.85 294.5 186.35 302.95 188.25 M303.35 188.65 Q316.35 186.3 317.4 191.0 M317.8 191.4 Q319.35 196.25 313.05 198.3 307.4 205.0 310.45 213.45 L311.4 216.8 Q314.9 224.5 312.3 226.85 311.1 227.95 309.35 227.35 L307.75 226.85 M307.4 227.5 L296.5 237.55 294.1 238.3 294.05 238.05 Q291.9 241.6 282.1 244.25 260.35 245.4 258.55 238.5 M257.9 238.4 Q258.0 237.4 253.8 235.85 L253.5 235.85 243.45 231.5 Q235.35 227.65 231.5 217.55 231.05 211.55 233.45 210.3 L234.8 210.3 Q236.65 210.55 236.95 212.4 L238.8 209.15 Q239.7 204.65 236.95 200.0 M236.75 199.4 L235.25 197.5 235.0 196.8 233.85 193.7 233.7 193.4 233.65 193.25 233.6 193.15 Q231.8 188.45 233.25 185.1 L235.7 179.65 Q236.35 177.5 238.0 177.35 239.4 177.8 239.45 179.2 L239.55 180.6 Q240.5 185.75 241.75 187.05 L244.45 185.8 244.5 185.7 244.55 185.65 244.6 185.55 M244.4 185.25 Q245.55 180.5 250.8 179.9 M251.5 180.0 Q252.1 179.75 252.65 179.6 L252.5 179.05 Q254.25 178.1 254.8 174.45 255.25 171.6 255.55 170.85 256.0 169.25 256.95 168.05 257.85 166.95 259.15 166.15 L260.4 165.45 Q262.25 164.55 263.95 165.75 265.35 166.2 264.35 169.25 263.35 172.25 263.45 172.4 263.85 173.9 264.55 174.1 L266.0 174.8 268.05 175.8 275.05 177.15 275.25 177.15 275.75 177.15 M275.75 177.25 L276.2 177.05 276.25 177.0 276.3 177.0 278.0 176.1 278.15 175.95 278.85 175.4 Q281.75 174.6 284.15 172.55 282.95 173.75 283.8 173.0 L284.35 172.4 Q289.6 168.85 293.0 163.45 M293.45 163.6 L293.55 163.0 295.45 161.45 296.6 160.5 Q300.2 157.8 302.05 157.05 303.85 156.3 306.25 156.0 L308.8 155.95 310.4 156.15 312.05 156.3 312.25 156.55 M296.55 160.5 L296.6 160.5 M310.25 174.8 Q307.15 174.7 304.65 176.6 L304.3 176.9 Q302.85 178.4 302.4 180.05 L301.95 181.2 303.95 180.1 310.65 180.45 Q313.55 181.4 314.45 179.45 315.3 177.45 314.35 176.55 313.2 174.65 310.25 174.8 M239.5 180.8 L239.5 180.75 239.55 180.6" fill="none" stroke="#000000" stroke-linecap="round" stroke-linejoin="round" stroke-opacity="0.6" stroke-width="0.8"/>
    <path d="M299.1 167.75 L299.25 168.15 M302.95 188.25 L303.3 188.55 303.35 188.65 303.1 188.6 Q299.55 190.8 293.7 188.75 287.85 186.7 289.1 182.15 L289.65 181.1 Q291.9 180.85 292.15 179.1 293.3 175.95 292.6 172.8 L292.55 172.65 292.05 172.4 Q291.9 168.65 295.0 165.4 L296.1 164.5 293.45 163.6 293.05 163.45 293.0 163.45 M317.4 191.0 L318.0 191.1 317.95 191.2 317.8 191.4 M258.55 238.5 L258.05 238.5 257.9 238.4 257.65 238.4 M236.85 199.8 L236.85 199.75 236.75 199.45 236.75 199.4 236.8 199.45 237.1 199.85 237.15 199.9 239.4 200.6 239.6 200.65 239.6 200.6 M235.25 197.5 L235.2 197.5 235.2 197.4 235.25 197.5 240.0 196.65 240.05 196.6 242.45 193.75 242.9 193.25 244.8 193.25 244.65 185.6 244.65 185.55 M244.6 185.55 L244.4 185.25 M266.0 174.8 L266.1 174.8 M310.1 156.95 Q304.0 157.4 297.45 163.85 L299.1 167.75 M296.1 164.5 Q296.55 165.05 297.45 163.85 M297.55 169.75 L297.5 170.2 M297.55 169.75 L295.0 165.4 M275.75 177.25 Q271.35 185.8 266.05 181.95 L263.65 180.7 263.6 180.7 Q259.05 181.7 255.55 186.7 L255.45 186.85 Q256.95 196.6 253.35 199.45 L253.35 199.55 Q252.4 201.0 253.5 206.55 L253.5 206.8 253.9 207.75 Q255.2 208.85 258.3 206.35 259.4 205.5 259.75 203.75 260.1 202.25 262.35 201.4 264.85 200.7 268.05 197.8 M278.35 188.5 L280.55 189.0 281.6 189.5 M275.6 190.1 L278.35 188.5 279.5 194.4 279.5 194.45 281.0 199.5 280.95 199.55 279.25 200.4 279.15 200.45 275.1 203.45 268.85 208.05 268.75 208.15 268.05 208.65 267.5 208.6 261.9 208.25 262.35 201.4 M307.7 195.1 L307.75 195.0 317.5 191.3 317.75 191.2 318.0 191.1 M277.75 195.8 L279.25 200.4 M285.05 197.25 L281.0 199.5 M277.75 195.8 L275.6 190.1 Q272.4 192.5 270.2 195.55 M289.7 195.25 L289.6 195.05 285.7 196.9 Q285.35 197.05 285.05 197.25 M289.65 195.0 L291.85 193.95 297.9 195.65 294.15 196.65 292.95 201.55 292.95 201.65 292.95 201.95 292.75 201.5 289.7 195.25 M289.65 195.0 L289.6 195.05 289.55 195.0 M281.75 189.5 L289.6 189.2 M259.8 173.4 L263.45 172.4 M264.6 174.9 L266.0 174.8 M244.6 185.55 L244.65 185.6 M241.5 201.25 L242.15 201.45 240.1 196.7 240.0 196.65 M240.1 196.7 L240.05 196.6 M259.65 175.2 L259.65 175.25 259.6 175.7 263.55 180.6 263.65 180.7 M255.45 186.65 L255.45 186.85 M255.45 186.65 Q254.6 181.6 251.5 180.0 M252.65 179.6 Q258.35 177.85 263.55 180.6 M259.65 175.2 L264.6 174.9 M259.8 173.4 L259.65 175.2 M268.05 208.65 L268.1 208.65 M267.45 209.2 L268.05 208.65 M267.45 209.2 L266.6 210.0 266.6 210.15 263.35 213.1 263.3 213.1 263.3 213.05 263.25 213.05 263.2 213.05 261.15 214.25 255.5 213.4 Q256.85 218.8 258.45 218.2 268.2 227.6 274.9 226.35 L275.05 226.45 276.8 226.1 278.15 225.85 280.8 221.1 280.85 221.0 281.05 221.25 283.7 225.3 289.25 223.2 293.85 214.0 297.4 220.4 299.7 214.45 300.15 215.6 M300.25 215.85 L302.2 221.0 304.3 217.95 301.25 210.1 303.55 211.8 304.45 212.7 304.55 212.8 304.4 212.4 304.3 211.65 302.8 202.45 307.7 195.1 M266.6 210.0 L266.5 210.0 259.6 210.0 259.75 203.75 M253.95 207.85 L253.9 207.75 253.85 207.9 253.0 210.5 252.55 211.9 252.45 212.3 251.95 214.3 251.95 215.2 Q251.95 216.85 252.25 218.2 L252.3 218.3 Q253.45 220.45 255.7 219.9 L256.3 219.85 258.45 218.2 M253.95 207.85 L255.5 213.4 M248.4 200.5 L248.45 200.55 248.45 200.5 248.4 200.5 248.2 200.45 240.1 196.7 M248.45 200.5 Q251.5 201.55 253.35 199.55 M243.0 202.15 L244.35 203.2 245.45 204.2 247.35 205.8 248.45 200.55 253.5 206.55 M244.3 211.5 L244.4 211.55 M244.4 211.6 L245.55 213.15 Q248.15 218.0 250.4 219.8 L251.15 220.5 252.15 220.85 252.7 226.25 252.8 227.15 252.75 226.25 252.45 220.8 252.3 218.3 M244.4 211.6 L244.3 211.5 243.7 210.7 M248.7 207.6 L247.9 206.65 245.45 204.2 M248.7 207.6 L248.05 206.7 247.35 205.8 M250.2 209.55 L250.25 209.45 248.7 207.6 250.2 209.55 251.6 211.35 251.55 211.25 250.25 209.45 M251.85 211.7 L251.95 211.65 251.75 211.55 251.85 211.7 252.45 212.3 M253.0 210.5 L251.95 211.65 252.55 211.9 M251.75 211.55 L251.6 211.35 M242.15 201.45 L243.0 202.15 M241.5 201.25 L239.6 200.65 239.5 201.15 M242.2 201.55 L242.15 201.45 M236.85 199.8 L237.15 199.9 M243.5 211.05 L243.7 211.5 243.55 211.05 M243.5 211.05 L243.5 211.1 243.65 211.75 245.2 219.65 Q243.25 218.15 243.9 218.35 L237.45 213.2 M245.7 224.2 L245.2 219.65 M245.7 224.2 L245.85 225.65 M277.4 230.65 Q275.0 236.15 265.55 238.15 L258.55 238.5 257.9 238.4 M263.2 236.75 Q270.1 234.4 274.85 230.3 276.55 228.15 274.9 226.35 M253.8 235.85 Q258.85 237.55 263.15 236.8 M304.45 212.7 L304.4 212.4 303.55 211.8 M304.55 212.8 L307.15 219.6 306.5 220.5 M276.8 226.1 Q278.7 228.0 277.4 230.65 282.85 235.85 293.1 232.7 302.35 225.65 307.45 226.8 L307.75 226.85 M293.1 232.7 Q297.7 233.25 294.05 238.05" fill="none" stroke="#000000" stroke-linecap="round" stroke-linejoin="round" stroke-opacity="0.4" stroke-width="0.30000000000000004"/>
  </g>
</svg>
