<?xml version="1.0" encoding="UTF-8" standalone="no"?>
<svg xmlns:xlink="http://www.w3.org/1999/xlink" height="71.1px" width="97.95px" xmlns="http://www.w3.org/2000/svg">
  <g transform="matrix(1.0, 0.0, 0.0, 1.0, -226.0, -164.9)">
    <path d="M312.15 176.35 L316.55 182.15 317.85 200.4 314.7 211.9 305.2 225.5 291.75 226.85 287.7 221.7 266.45 222.0 Q261.9 219.45 257.35 217.0 L242.5 219.75 235.1 215.15 235.6 210.25 231.95 208.25 233.65 192.0 235.7 184.35 259.25 174.55 264.0 177.6 270.2 174.3 299.3 173.85 300.5 177.0 312.15 176.35" fill="#ffffff" fill-opacity="0.4" fill-rule="evenodd" stroke="none"/>
    <path d="M317.55 168.25 L322.5 176.1 323.95 200.5 320.35 215.95 309.55 234.25 294.2 236.0 289.55 229.15 265.35 229.55 254.95 222.8 238.0 226.5 229.55 220.3 230.2 213.8 226.0 211.1 227.9 189.3 230.25 179.05 257.15 165.8 262.6 169.95 269.6 165.5 302.85 164.9 304.15 169.15 317.55 168.25" fill="#ffffff" fill-opacity="0.101960786" fill-rule="evenodd" stroke="none"/>
    <path d="M301.55 220.65 L289.65 221.65 291.95 207.9 299.7 206.35 301.55 220.65 M254.05 210.75 L240.2 208.45 240.35 194.55 253.7 195.9 254.05 210.75 M296.35 178.65 L296.55 178.65 297.4 181.2 296.35 178.65 297.4 181.2 294.8 181.35 296.35 178.65" fill="#757b93" fill-rule="evenodd" stroke="none"/>
    <path d="M238.0 193.55 L238.05 193.4 265.2 194.25 289.4 186.15 296.15 178.65 296.35 178.65 294.8 181.35 297.4 181.2 306.75 180.75 300.35 192.3 298.15 196.3 274.95 202.35 267.75 202.15 264.65 201.6 264.7 201.4 253.7 195.9 240.35 194.55 238.0 193.55 M292.4 191.2 L300.35 192.3 292.4 191.2" fill="#d5d7dd" fill-rule="evenodd" stroke="none"/>
    <path d="M289.65 221.65 L286.0 217.55 288.5 202.85 291.95 207.9 289.65 221.65 M261.75 214.9 Q257.9 212.8 254.05 210.75 L253.7 195.9 264.7 201.4 264.65 201.6 261.75 214.9 M240.2 208.45 L236.5 206.6 238.0 193.55 240.35 194.55 240.2 208.45" fill="#9da2b3" fill-rule="evenodd" stroke="none"/>
    <path d="M267.15 217.75 L261.75 214.9 264.65 201.6 267.75 202.15 267.15 217.75" fill="#8c92a6" fill-rule="evenodd" stroke="none"/>
    <path d="M310.0 209.55 L301.55 220.65 299.7 206.35 299.85 206.3 308.5 193.45 308.9 193.45 309.0 193.45 310.0 209.55 M286.0 217.55 L267.15 217.75 267.75 202.15 274.95 202.35 288.4 202.8 288.5 202.85 286.0 217.55" fill="#61667c" fill-rule="evenodd" stroke="none"/>
    <path d="M311.75 186.15 L312.8 200.25 310.0 209.55 309.0 193.45 309.0 193.15 311.75 186.15" fill="#484b5b" fill-rule="evenodd" stroke="none"/>
    <path d="M238.05 193.4 L239.85 187.2 260.8 179.25 265.0 181.7 270.5 179.05 296.15 178.65 289.4 186.15 265.2 194.25 238.05 193.4 M260.3 183.95 L265.0 181.7 260.3 183.95" fill="#e9eaed" fill-rule="evenodd" stroke="none"/>
    <path d="M306.75 180.75 L307.8 180.7 311.65 185.45 311.75 186.15 309.0 193.15 308.9 193.45 308.5 193.45 300.35 192.3 308.5 193.45 299.85 206.3 299.7 206.35 291.95 207.9 288.5 202.85 288.4 202.8 274.95 202.35 298.15 196.3 300.35 192.3 306.75 180.75" fill="#c5c8cf" fill-rule="evenodd" stroke="none"/>
    <path d="M306.75 180.75 L307.8 180.7 311.65 185.45 M311.75 186.15 L312.8 200.25 310.0 209.55 301.55 220.65 289.65 221.65 286.0 217.55 267.15 217.75 261.75 214.9 Q257.9 212.8 254.05 210.75 L240.2 208.45 236.5 206.6 238.0 193.55 238.05 193.4 239.85 187.2 260.8 179.25 265.0 181.7 270.5 179.05 296.15 178.65 296.35 178.65 297.4 181.2 306.75 180.75" fill="none" stroke="#000000" stroke-linecap="round" stroke-linejoin="round" stroke-opacity="0.6" stroke-width="0.7000000000000001"/>
    <path d="M311.65 185.45 L311.85 185.7 311.75 186.15 311.65 185.45 M300.35 192.3 L308.5 193.45 308.9 193.45 309.0 193.15 311.75 186.15 M274.95 202.35 L288.4 202.8 288.5 202.85 291.95 207.9 299.7 206.35 299.85 206.3 308.5 193.45 M265.0 181.7 L260.3 183.95 M253.7 195.9 L264.7 201.4 264.65 201.6 267.75 202.15 274.95 202.35 M300.35 192.3 L292.4 191.2 M309.0 193.45 L309.0 193.15 M296.35 178.65 L294.8 181.35 297.4 181.2 M240.35 194.55 L253.7 195.9 M238.0 193.55 L240.35 194.55" fill="none" stroke="#000000" stroke-linecap="round" stroke-linejoin="round" stroke-opacity="0.6" stroke-width="0.4"/>
    <path d="M240.85 206.9 L248.5 204.5 253.1 207.25 245.5 210.05 240.85 206.9" fill="#9da2b3" fill-rule="evenodd" stroke="none"/>
    <path d="M240.85 206.9 L245.5 210.05 245.0 216.5 240.2 213.8 240.85 206.9" fill="#8c92a6" fill-rule="evenodd" stroke="none"/>
    <path d="M245.5 210.05 L253.1 207.25 253.15 215.0 245.0 216.5 245.5 210.05" fill="#484b5b" fill-rule="evenodd" stroke="none"/>
    <path d="M253.1 207.25 L248.5 204.5 240.85 206.9 240.2 213.8 245.0 216.5 253.15 215.0 253.1 207.25 Z" fill="none" stroke="#000000" stroke-linecap="round" stroke-linejoin="round" stroke-opacity="0.6" stroke-width="0.7000000000000001"/>
    <path d="M268.55 184.4 L268.5 184.4 268.55 184.35 268.55 184.4" fill="#097dff" fill-rule="evenodd" stroke="none"/>
    <path d="M296.65 186.4 Q296.65 185.65 297.7 185.15 L300.35 184.65 Q301.9 184.65 302.95 185.15 304.05 185.65 304.05 186.4 304.05 187.15 302.45 187.95 300.8 188.75 299.45 188.65 298.1 188.55 297.4 187.85 296.65 187.15 296.65 186.4" fill="#ff7755" fill-opacity="0.6" fill-rule="evenodd" stroke="none"/>
    <path d="M268.55 184.4 Q272.75 182.6 281.1 182.0 L281.65 182.0 282.85 182.2 287.75 181.75 Q288.95 181.1 291.65 180.15 294.35 179.2 291.9 181.65 289.2 183.65 292.35 185.7 L292.25 185.75 292.55 185.9 293.45 189.35 Q293.65 190.4 293.4 191.25 294.7 194.25 297.6 194.6 306.35 196.4 302.65 199.5 298.9 202.55 295.15 199.55 292.55 196.2 286.1 196.65 L287.95 196.65 285.45 197.0 280.25 197.1 272.7 196.55 272.3 196.5 272.35 196.45 Q268.7 195.65 263.6 200.45 L263.7 200.95 261.3 199.7 261.3 199.65 261.3 199.55 Q261.45 198.5 263.5 196.55 265.1 195.1 263.8 194.7 L263.5 194.6 Q257.7 192.95 259.25 190.75 L253.5 189.75 Q250.65 189.45 250.65 188.55 250.65 187.65 253.2 187.05 L258.9 186.45 264.2 186.7 268.5 184.4 268.55 184.4" fill="#df2d00" fill-opacity="0.6" fill-rule="evenodd" stroke="none"/>
    <path d="M261.3 199.7 L263.7 200.95 Q264.35 204.3 262.7 204.15 261.4 204.0 261.2 203.4 261.05 202.95 261.3 199.7" fill="#801a00" fill-opacity="0.6" fill-rule="evenodd" stroke="none"/>
    <path d="M277.1 189.25 L272.8 189.95 277.15 188.4 277.6 186.35 279.2 187.7 283.3 185.9 281.0 188.15 285.6 188.0 280.95 189.2 281.05 191.4 278.7 189.6 274.95 191.6 277.1 189.25" fill="#ffffff" fill-opacity="0.4" fill-rule="evenodd" stroke="none"/>
  </g>
</svg>
