<?xml version="1.0" encoding="UTF-8" standalone="no"?>
<svg xmlns:xlink="http://www.w3.org/1999/xlink" height="96.05px" width="86.95px" xmlns="http://www.w3.org/2000/svg">
  <g transform="matrix(1.0, 0.0, 0.0, 1.0, -231.5, -152.45)">
    <path d="M296.35 225.05 Q286.6 235.25 275.45 235.1 264.3 234.95 250.4 221.4 236.45 207.85 238.45 195.15 240.5 182.45 252.8 173.65 265.05 164.85 278.0 161.85 290.95 158.9 301.55 171.5 312.1 184.1 309.15 199.45 306.1 214.8 296.35 225.05" fill="#ffa611" fill-rule="evenodd" stroke="none"/>
    <path d="M294.75 181.5 Q288.6 171.75 290.45 170.95 292.35 170.15 297.85 174.75 303.3 179.35 305.1 187.25 306.9 195.15 303.85 201.75 300.7 208.3 297.2 208.1 293.7 207.95 294.2 203.5 294.65 199.05 297.75 195.2 300.95 191.25 294.75 181.5" fill="#f9ec4f" fill-rule="evenodd" stroke="none"/>
    <path d="M304.5 184.5 L304.6 184.5 304.55 184.6 304.5 184.5 M261.25 224.8 L261.0 224.55 261.3 224.5 261.25 224.8" fill="#656401" fill-rule="evenodd" stroke="none"/>
    <path d="M263.8 201.2 Q265.6 198.4 268.75 196.65 L272.7 199.55 272.55 199.8 263.8 201.2 M278.35 187.45 Q279.95 185.05 281.4 183.7 L284.4 183.3 281.2 189.35 278.35 187.45 M287.4 194.3 L295.7 194.05 297.8 189.75 302.45 194.8 302.4 195.2 302.1 196.45 301.95 197.25 295.7 194.05 292.95 199.75 Q290.25 196.85 287.4 194.3 M274.9 219.75 Q271.4 215.95 267.55 212.45 L268.95 208.85 281.7 212.55 283.8 217.75 Q279.95 220.25 274.9 219.75" fill="#cac4b7" fill-rule="evenodd" stroke="none"/>
    <path d="M284.4 183.3 L284.6 183.3 Q289.0 183.15 292.75 185.2 295.35 187.3 297.8 189.75 L295.7 194.05 287.4 194.3 Q284.4 191.6 281.2 189.35 L284.4 183.3 M272.7 199.55 L278.5 204.55 281.7 212.55 268.95 208.85 270.4 205.25 272.55 199.8 272.7 199.55 M273.55 207.6 L270.4 205.25 273.55 207.6 M295.25 192.15 Q292.35 188.4 287.4 185.3 292.35 188.4 295.25 192.15" fill="#b9b09f" fill-rule="evenodd" stroke="none"/>
    <path d="M281.7 212.55 L278.5 204.55 Q283.25 209.0 287.55 214.15 L287.5 214.25 287.1 214.75 Q285.55 216.55 283.8 217.75 L281.7 212.55 M294.8 201.9 L292.95 199.75 295.7 194.05 301.95 197.25 Q300.65 199.4 299.65 200.3 L299.4 200.5 298.35 201.0 297.85 201.2 294.9 201.9 294.8 201.85 294.8 201.9" fill="#aa9f8a" fill-rule="evenodd" stroke="none"/>
    <path d="M307.25 201.0 L305.85 204.4 305.7 204.6 301.95 197.25 302.1 196.45 302.4 195.2 302.45 194.8 302.5 194.85 Q304.95 197.75 307.25 201.0 M277.8 222.9 L274.9 219.75 Q279.95 220.25 283.8 217.75 L283.8 223.1 277.8 222.9" fill="#97896f" fill-rule="evenodd" stroke="none"/>
    <path d="M305.7 204.6 Q304.4 207.05 300.8 209.75 L296.9 204.45 295.3 202.4 Q295.6 202.85 294.8 201.9 L294.9 201.9 297.85 201.2 298.35 201.0 299.4 200.5 299.65 200.3 Q300.65 199.4 301.95 197.25 L305.7 204.6 M291.6 219.5 Q289.9 222.25 286.25 224.1 L283.8 223.1 283.8 217.75 Q285.55 216.55 287.1 214.75 L287.5 214.25 287.55 214.15 287.55 214.2 291.6 219.5" fill="#82755e" fill-rule="evenodd" stroke="none"/>
    <path d="M283.8 223.1 L284.0 225.3 Q282.45 226.35 281.0 226.7 L277.8 222.9 283.8 223.1" fill="#756a55" fill-rule="evenodd" stroke="none"/>
    <path d="M261.6 207.35 Q262.15 203.8 263.8 201.2 L272.55 199.8 270.4 205.25 268.95 208.85 267.55 212.45 261.6 207.35 M281.4 183.7 Q282.7 182.45 283.85 182.0 286.25 180.9 287.05 180.9 289.95 182.85 292.75 185.2 289.0 183.15 284.6 183.3 L284.4 183.3 281.4 183.7 M270.4 205.25 L268.35 203.65 270.4 205.25" fill="#d8d3cb" fill-rule="evenodd" stroke="none"/>
    <path d="M304.6 184.5 L305.55 180.45 Q307.45 181.6 308.35 183.85 L309.0 185.45 304.6 184.5 M287.4 194.3 L283.85 195.55 281.2 189.35 Q284.4 191.6 287.4 194.3 M297.8 189.75 Q295.35 187.3 292.75 185.2 L297.85 184.85 297.8 189.75 M272.7 199.55 L272.85 199.5 278.85 197.35 278.5 204.55 272.7 199.55 M262.0 214.7 L267.55 212.45 Q271.4 215.95 274.9 219.75 L277.8 222.9 Q270.6 226.55 261.3 224.5 L262.0 214.7 M269.65 220.8 L265.6 216.75 269.65 220.8" fill="#615745" fill-rule="evenodd" stroke="none"/>
    <path d="M304.1 179.75 Q304.9 180.0 305.55 180.45 L304.6 184.5 304.5 184.5 Q300.95 180.95 296.55 177.8 300.95 180.95 304.5 184.5 L297.85 184.85 292.75 185.2 Q289.95 182.85 287.05 180.9 291.95 177.9 296.55 177.8 300.45 177.7 304.1 179.75 M309.0 185.45 Q310.3 187.8 310.25 191.55 308.45 188.85 306.25 186.45 L306.2 186.3 304.55 184.6 304.6 184.5 309.0 185.45 M278.85 197.35 L282.15 196.2 283.85 195.55 287.4 194.3 Q290.25 196.85 292.95 199.75 L294.8 201.9 Q295.5 211.8 287.55 214.2 L287.55 214.15 Q283.25 209.0 278.5 204.55 L278.85 197.35 M289.85 203.9 L282.15 196.2 289.85 203.9 M287.3 206.7 Q286.85 204.7 284.0 203.45 286.85 204.7 287.3 206.7 M294.8 201.9 L294.8 201.85 294.9 201.9 294.8 201.9 M291.95 209.4 L289.95 207.35 291.95 209.4" fill="#574f3e" fill-rule="evenodd" stroke="none"/>
    <path d="M310.25 191.55 L309.95 194.3 Q309.25 197.55 307.25 201.0 304.95 197.75 302.5 194.85 304.85 193.15 305.9 190.5 306.75 188.55 306.25 186.45 308.45 188.85 310.25 191.55 M300.8 209.75 Q297.8 214.4 295.0 216.7 L291.6 219.5 287.55 214.2 Q295.5 211.8 294.8 201.9 295.6 202.85 295.3 202.4 L296.9 204.45 300.8 209.75 M281.0 226.7 Q278.0 228.1 274.9 229.1 L267.9 229.5 265.95 228.5 Q263.15 227.05 261.25 224.8 L261.3 224.5 Q270.6 226.55 277.8 222.9 L281.0 226.7 M309.95 194.3 L305.9 190.5 309.95 194.3" fill="#423c2f" fill-rule="evenodd" stroke="none"/>
    <path d="M297.85 184.85 L304.5 184.5 304.55 184.6 306.2 186.3 306.25 186.45 Q306.75 188.55 305.9 190.5 L302.05 186.65 305.9 190.5 Q304.85 193.15 302.5 194.85 L302.45 194.8 297.8 189.75 297.85 184.85" fill="#867860" fill-rule="evenodd" stroke="none"/>
    <path d="M261.0 224.55 Q259.45 222.6 258.5 220.1 258.3 218.05 258.6 216.0 L262.0 214.7 261.3 224.5 261.0 224.55 M271.6 193.0 Q273.6 190.6 278.35 187.45 L281.2 189.35 283.85 195.55 282.15 196.2 278.85 197.35 272.85 199.5 271.6 193.0 M278.0 192.1 L282.15 196.2 278.0 192.1" fill="#7b6f57" fill-rule="evenodd" stroke="none"/>
    <path d="M258.6 216.0 Q258.8 214.65 259.25 213.25 260.2 210.2 261.6 207.35 L267.55 212.45 262.0 214.7 258.6 216.0 M268.75 196.65 L271.25 193.45 271.6 193.0 272.85 199.5 272.7 199.55 268.75 196.65" fill="#938568" fill-rule="evenodd" stroke="none"/>
    <path d="M305.55 180.45 Q304.9 180.0 304.1 179.75 300.45 177.7 296.55 177.8 291.95 177.9 287.05 180.9 286.25 180.9 283.85 182.0 282.7 182.45 281.4 183.7 279.95 185.05 278.35 187.45 273.6 190.6 271.6 193.0 L271.25 193.45 268.75 196.65 Q265.6 198.4 263.8 201.2 262.15 203.8 261.6 207.35 260.2 210.2 259.25 213.25 258.8 214.65 258.6 216.0 258.3 218.05 258.5 220.1 259.45 222.6 261.0 224.55 L261.25 224.8 Q263.15 227.05 265.95 228.5 L267.9 229.5 274.9 229.1 Q278.0 228.1 281.0 226.7 282.45 226.35 284.0 225.3 L283.8 223.1 286.25 224.1 Q289.9 222.25 291.6 219.5 L295.0 216.7 Q297.8 214.4 300.8 209.75 304.4 207.05 305.7 204.6 L305.85 204.4 307.25 201.0 Q309.25 197.55 309.95 194.3 L310.25 191.55 Q310.3 187.8 309.0 185.45 L308.35 183.85 Q307.45 181.6 305.55 180.45 M280.3 181.35 L290.95 175.85 307.75 177.75 311.95 185.15 311.5 197.15 304.7 211.7 293.0 222.85 278.2 230.4 271.05 231.8 262.8 230.65 257.3 223.95 255.75 217.6 259.45 202.35 280.4 181.5 280.3 181.35" fill="#fedbc0" fill-opacity="0.4509804" fill-rule="evenodd" stroke="none"/>
    <path d="M305.55 180.45 Q304.9 180.0 304.1 179.75 M296.55 177.8 Q300.95 180.95 304.5 184.5 L304.55 184.6 306.2 186.3 M305.55 180.45 Q307.45 181.6 308.35 183.85 M267.9 229.5 L265.95 228.5 Q263.15 227.05 261.25 224.8 L261.0 224.55 Q259.45 222.6 258.5 220.1 M282.15 196.2 L278.0 192.1 M282.15 196.2 L289.85 203.9 M272.7 199.55 L278.5 204.55 Q283.25 209.0 287.55 214.15 L287.55 214.2 291.6 219.5 M272.7 199.55 L268.75 196.65 M277.8 222.9 L274.9 219.75 Q271.4 215.95 267.55 212.45 L261.6 207.35 M265.6 216.75 L269.65 220.8 M284.0 203.45 Q286.85 204.7 287.3 206.7 M277.8 222.9 L281.0 226.7 M305.9 190.5 L302.05 186.65 M305.9 190.5 L309.95 194.3 M306.25 186.45 Q308.45 188.85 310.25 191.55 M289.95 207.35 L291.95 209.4" fill="none" stroke="#003300" stroke-linecap="round" stroke-linejoin="round" stroke-width="0.05"/>
    <path d="M270.4 205.25 L273.55 207.6 M268.35 203.65 L270.4 205.25 M287.4 185.3 Q292.35 188.4 295.25 192.15" fill="none" stroke="#423c2f" stroke-linecap="round" stroke-linejoin="round" stroke-width="0.05"/>
    <path d="M265.4 186.85 Q269.2 191.25 266.6 192.3 L266.55 192.35 264.7 190.3 264.2 189.7 264.15 189.7 262.85 190.6 262.7 190.35 Q261.05 191.35 259.5 192.55 L257.6 192.2 258.9 189.8 256.45 188.5 258.7 185.45 258.05 184.75 258.15 182.95 Q259.3 181.6 260.4 182.25 L261.65 183.0 261.75 183.15 265.25 186.65 265.25 186.75 265.4 186.85 M250.5 201.15 L248.3 203.8 248.65 204.35 248.5 205.25 250.1 206.75 Q247.7 207.0 247.3 208.85 242.85 206.0 240.35 200.85 240.85 196.9 243.9 198.95 L243.95 198.95 248.3 196.4 248.35 196.5 248.3 198.95 248.3 199.05 250.1 200.25 250.5 201.15 M243.9 198.95 L242.7 199.7 248.5 205.25 242.7 199.7 243.9 198.95 M248.3 203.8 L243.95 198.95 248.3 203.8 M264.15 189.7 L258.15 182.95 264.15 189.7 M262.7 190.35 L258.7 185.45 262.7 190.35" fill="#4d4637" fill-rule="evenodd" stroke="none"/>
    <path d="M266.2 184.3 L266.1 184.35 265.45 186.75 265.25 186.65 261.75 183.15 261.75 183.0 263.65 182.8 268.6 180.0 268.65 180.05 266.2 184.3 M254.25 191.05 L256.45 188.5 258.9 189.8 257.6 192.2 254.25 191.05 M250.1 200.25 L248.3 199.05 248.3 198.95 248.35 196.5 250.1 200.25" fill="#877c63" fill-rule="evenodd" stroke="none"/>
    <path d="M290.65 165.5 L291.1 165.9 Q287.65 166.75 284.15 169.45 L280.55 168.4 Q285.95 164.15 290.65 165.5 M278.7 174.75 L276.9 177.0 275.25 176.3 275.65 177.75 273.1 180.75 272.4 184.2 268.65 183.15 266.2 184.3 268.65 180.05 268.7 180.0 268.65 179.95 276.75 171.9 278.7 174.75" fill="#cac4b7" fill-rule="evenodd" stroke="none"/>
    <path d="M284.15 169.45 Q281.45 171.5 278.7 174.75 L276.75 171.9 278.3 170.35 278.4 170.25 280.55 168.4 284.15 169.45" fill="#bcb5a5" fill-rule="evenodd" stroke="none"/>
    <path d="M263.65 182.8 L264.7 179.15 262.7 175.05 264.35 175.6 264.4 175.55 Q265.1 175.95 269.55 172.0 L271.7 170.05 276.75 171.9 268.65 179.95 268.6 180.0 263.65 182.8 M280.5 163.1 Q285.05 160.1 290.65 165.5 285.95 164.15 280.55 168.4 L280.5 163.1" fill="#e2dfd8" fill-rule="evenodd" stroke="none"/>
    <path d="M271.7 170.05 Q276.45 165.9 280.35 163.2 L280.5 163.1 280.55 168.4 278.4 170.25 278.3 170.35 276.75 171.9 271.7 170.05" fill="#d5d0c6" fill-rule="evenodd" stroke="none"/>
    <path d="M259.5 192.55 L257.8 193.9 257.6 192.2 259.5 192.55 M250.1 206.75 Q253.35 210.05 251.55 210.9 249.2 210.1 247.3 208.85 247.7 207.0 250.1 206.75" fill="#423c2f" fill-rule="evenodd" stroke="none"/>
    <path d="M257.8 193.9 Q254.25 196.85 250.85 200.75 L250.5 201.15 250.1 200.25 248.35 196.5 248.3 196.4 248.4 196.3 Q251.45 194.15 254.25 191.05 L257.6 192.2 257.8 193.9" fill="#655c49" fill-rule="evenodd" stroke="none"/>
    <path d="M271.7 170.05 L269.55 172.0 Q265.1 175.95 264.4 175.55 L264.35 175.6 262.7 175.05 264.7 179.15 263.65 182.8 261.75 183.0 261.65 183.0 260.4 182.25 Q259.3 181.6 258.15 182.95 L258.05 184.75 258.7 185.45 256.45 188.5 254.25 191.05 Q251.45 194.15 248.4 196.3 L248.3 196.4 243.95 198.95 243.9 198.95 Q240.85 196.9 240.35 200.85 242.85 206.0 247.3 208.85 249.2 210.1 251.55 210.9 253.35 210.05 250.1 206.75 L248.5 205.25 248.65 204.35 248.3 203.8 250.5 201.15 250.85 200.75 Q254.25 196.85 257.8 193.9 L259.5 192.55 Q261.05 191.35 262.7 190.35 L262.85 190.6 264.15 189.7 264.7 190.3 266.55 192.35 266.6 192.3 Q269.2 191.25 265.4 186.85 L265.45 186.75 266.1 184.35 266.2 184.3 268.65 183.15 272.4 184.2 273.1 180.75 275.65 177.75 275.25 176.3 276.9 177.0 278.7 174.75 Q281.45 171.5 284.15 169.45 287.65 166.75 291.1 165.9 L290.65 165.5 Q285.05 160.1 280.5 163.1 L280.35 163.2 Q276.45 165.9 271.7 170.05 M243.45 197.15 L243.95 196.85 Q251.45 192.6 256.0 185.25 L256.1 185.15 Q255.9 180.1 261.7 180.9 L262.25 178.3 259.95 173.75 265.1 173.4 276.15 163.95 Q281.65 159.65 285.95 160.45 292.1 161.9 293.75 166.5 285.15 169.25 279.8 175.8 L274.25 182.5 273.5 185.8 268.1 185.45 267.6 187.3 Q271.1 191.4 266.55 194.1 L264.15 191.9 262.55 192.0 Q255.85 196.7 249.8 203.25 L249.6 205.15 249.7 205.2 Q255.25 209.1 252.4 212.0 L249.15 211.85 248.55 211.55 Q241.45 207.55 239.35 202.1 238.2 199.55 240.4 197.45 L240.45 197.3 240.6 197.2 243.45 197.15" fill="#fedbc0" fill-opacity="0.4509804" fill-rule="evenodd" stroke="none"/>
    <path d="M263.65 182.8 L264.7 179.15 262.7 175.05 264.35 175.6 264.4 175.55 Q265.1 175.95 269.55 172.0 L271.7 170.05 Q276.45 165.9 280.35 163.2 L280.5 163.1 Q285.05 160.1 290.65 165.5 L291.1 165.9 Q287.65 166.75 284.15 169.45 281.45 171.5 278.7 174.75 L276.9 177.0 275.25 176.3 275.65 177.75 273.1 180.75 272.4 184.2 268.65 183.15 266.2 184.3 266.1 184.35 265.45 186.75 265.4 186.85 Q269.2 191.25 266.6 192.3 L266.55 192.35 264.7 190.3 264.15 189.7 262.85 190.6 262.7 190.35 Q261.05 191.35 259.5 192.55 L257.8 193.9 Q254.25 196.85 250.85 200.75 L250.5 201.15 248.3 203.8 248.65 204.35 248.5 205.25 250.1 206.75 Q253.35 210.05 251.55 210.9 249.2 210.1 247.3 208.85 242.85 206.0 240.35 200.85 240.85 196.9 243.9 198.95 L243.95 198.95 248.3 196.4 248.4 196.3 Q251.45 194.15 254.25 191.05 L256.45 188.5 258.7 185.45 258.05 184.75 258.15 182.95 Q259.3 181.6 260.4 182.25 L261.65 183.0 261.75 183.0 263.65 182.8 268.6 180.0 268.65 179.95 M248.5 205.25 L242.7 199.7 243.9 198.95 M268.7 180.0 L268.6 180.0 M268.65 180.05 L268.7 180.0 M261.65 183.0 L261.75 183.15 265.25 186.65 265.25 186.75 265.4 186.85 M264.15 189.7 L264.2 189.7 264.7 190.3 M266.2 184.3 L268.65 180.05 M258.7 185.45 L262.7 190.35 M258.15 182.95 L264.15 189.7 M243.95 198.95 L248.3 203.8" fill="none" stroke="#000000" stroke-linecap="round" stroke-linejoin="round" stroke-opacity="0.6" stroke-width="0.05"/>
    <path d="M301.95 235.15 Q290.25 248.35 276.75 248.15 263.3 247.95 246.5 230.45 229.7 212.9 232.15 196.5 234.6 180.1 249.4 168.75 264.15 157.35 279.8 153.55 295.4 149.6 308.15 165.95 320.95 182.2 317.3 202.1 313.7 221.95 301.95 235.15 M300.1 227.95 Q310.7 216.8 314.05 200.15 317.25 183.45 305.75 169.75 294.25 156.1 280.2 159.3 266.1 162.55 252.8 172.1 239.45 181.65 237.2 195.45 235.05 209.25 250.2 224.0 265.3 238.7 277.4 238.9 289.55 239.05 300.1 227.95" fill="#b97917" fill-opacity="0.6" fill-rule="evenodd" stroke="none"/>
    <path d="M301.95 235.15 Q290.25 248.35 276.75 248.15 263.3 247.95 246.5 230.45 229.7 212.9 232.15 196.5 234.6 180.1 249.4 168.75 264.15 157.35 279.8 153.55 295.4 149.6 308.15 165.95 320.95 182.2 317.3 202.1 313.7 221.95 301.95 235.15 Z" fill="none" stroke="#8b5c1d" stroke-linecap="round" stroke-linejoin="round" stroke-width="0.7000000000000001"/>
    <path d="M300.1 227.95 Q289.55 239.05 277.4 238.9 265.3 238.7 250.2 224.0 235.05 209.25 237.2 195.45 239.45 181.65 252.8 172.1 266.1 162.55 280.2 159.3 294.25 156.1 305.75 169.75 317.25 183.45 314.05 200.15 310.7 216.8 300.1 227.95" fill="#ffa611" fill-opacity="0.6" fill-rule="evenodd" stroke="none"/>
    <path d="M264.45 181.1 Q263.2 181.8 261.75 183.5 260.75 184.75 260.55 184.45 260.1 183.7 260.35 182.25 260.6 180.45 261.8 179.55 264.75 177.35 268.9 175.75 273.15 174.1 277.1 173.6 278.75 173.45 280.95 174.45 282.9 175.35 283.3 176.1 283.95 177.25 281.05 177.6 L276.95 177.7 271.85 178.15 Q269.55 178.65 267.65 179.5 L264.45 181.1" fill="#ffffff" fill-opacity="0.4" fill-rule="evenodd" stroke="none"/>
    <path d="M297.5 232.2 Q290.25 240.5 282.7 244.7 279.7 246.45 274.5 244.65 270.05 242.95 268.65 241.0 266.55 237.8 272.1 234.6 272.9 234.1 280.05 231.6 286.15 229.45 289.8 226.7 294.1 223.45 297.15 219.5 L302.3 211.95 Q304.35 209.05 305.85 202.6 307.05 197.8 307.65 198.75 309.1 200.9 309.75 205.7 310.5 211.55 308.75 215.2 304.5 224.4 297.5 232.2" fill="#8b5c1d" fill-opacity="0.6" fill-rule="evenodd" stroke="none"/>
    <path d="M248.95 184.85 Q245.85 187.4 242.75 193.6 240.4 198.15 239.85 197.1 238.5 194.75 238.6 189.9 238.75 184.0 241.7 180.65 248.7 172.25 258.8 165.6 269.35 158.55 279.45 155.55 283.5 154.25 289.55 156.9 294.75 159.25 296.0 161.45 298.0 164.95 290.55 167.2 L280.15 168.9 Q272.2 170.15 267.2 172.25 261.3 174.75 256.75 178.25 256.2 178.6 248.95 184.85" fill="#ffffff" fill-opacity="0.4" fill-rule="evenodd" stroke="none"/>
  </g>
</svg>
