<?xml version="1.0" encoding="UTF-8" standalone="no"?>
<svg xmlns:xlink="http://www.w3.org/1999/xlink" height="96.05px" width="86.95px" xmlns="http://www.w3.org/2000/svg">
  <g transform="matrix(1.0, 0.0, 0.0, 1.0, -231.5, -152.45)">
    <path d="M296.35 225.05 Q286.6 235.25 275.45 235.1 264.3 234.95 250.4 221.4 236.45 207.85 238.45 195.15 240.5 182.45 252.8 173.65 265.05 164.85 278.0 161.85 290.95 158.9 301.55 171.5 312.1 184.1 309.15 199.45 306.1 214.8 296.35 225.05" fill="#ffa611" fill-rule="evenodd" stroke="none"/>
    <path d="M294.75 181.5 Q288.6 171.75 290.45 170.95 292.35 170.15 297.85 174.75 303.3 179.35 305.1 187.25 306.9 195.15 303.85 201.75 300.7 208.3 297.2 208.1 293.7 207.95 294.2 203.5 294.65 199.05 297.75 195.2 300.95 191.25 294.75 181.5" fill="#f9ec4f" fill-rule="evenodd" stroke="none"/>
    <path d="M291.75 163.25 L295.4 165.35 296.55 164.75 297.4 164.85 Q298.75 165.2 300.3 166.15 301.95 167.2 302.9 168.3 303.5 169.05 303.5 169.6 L302.95 170.5 304.1 171.4 304.6 171.8 307.95 174.65 309.75 174.75 310.75 175.35 311.05 175.5 311.45 175.85 Q311.95 176.3 312.15 177.15 L312.1 179.5 311.85 180.6 311.8 180.95 Q310.85 184.4 308.25 188.25 L307.55 189.15 Q304.45 193.5 301.05 195.8 L300.8 195.85 299.7 196.55 Q298.25 197.3 297.0 197.35 L295.45 197.1 295.3 197.05 294.4 196.25 293.8 195.6 293.5 194.9 289.85 193.45 289.4 193.25 288.05 192.6 280.2 204.2 280.55 205.25 263.55 230.65 263.05 231.35 Q261.05 233.8 258.05 234.65 254.7 235.65 252.1 234.1 L250.8 233.1 250.5 232.8 250.3 232.55 249.6 231.3 249.35 230.75 249.15 229.95 249.05 229.25 Q248.8 226.05 250.95 223.05 L251.45 222.35 269.3 198.35 270.75 198.25 279.0 187.15 278.4 186.75 278.1 186.5 275.75 184.7 274.8 183.85 272.2 181.4 271.9 181.35 270.65 181.05 270.5 181.0 270.35 180.9 270.15 180.7 269.9 180.45 269.75 180.4 269.65 180.25 Q268.2 178.9 269.1 175.35 270.15 171.5 273.4 167.05 L274.05 166.1 Q277.0 162.25 280.15 160.1 283.0 158.15 284.7 158.6 285.05 158.7 285.4 158.95 L285.8 159.3 Q286.1 159.35 286.3 159.55 287.15 160.05 287.4 161.1 L288.2 161.5 Q289.6 162.1 291.0 162.85 L291.75 163.25" fill="#fedbc0" fill-opacity="0.4509804" fill-rule="evenodd" stroke="none"/>
    <path d="M285.55 161.5 L286.1 161.8 286.5 162.15 Q286.9 162.65 287.0 163.5 L286.85 165.5 286.6 166.45 286.5 166.8 285.15 169.95 279.45 169.35 276.75 169.1 276.85 169.05 277.45 168.2 Q280.15 164.7 282.95 162.75 284.4 161.8 285.55 161.5 M294.5 167.85 L294.7 167.6 294.8 167.5 295.15 167.35 295.2 167.4 296.9 168.4 Q298.25 169.35 299.05 170.4 L299.5 171.65 299.25 172.0 299.2 172.0 298.75 171.85 298.4 171.7 298.2 172.0 298.15 172.1 297.95 172.1 297.0 171.5 Q295.65 170.6 294.9 169.55 294.15 168.5 294.4 167.95 L294.5 167.85 M271.75 197.7 L278.2 189.2 279.15 191.75 279.45 192.65 279.9 196.2 279.95 199.55 277.5 203.1 276.65 202.95 276.1 202.8 Q274.6 202.25 272.95 201.1 L271.75 200.2 271.7 200.2 271.3 199.65 270.8 198.9 271.75 197.7 M294.7 167.6 Q294.55 168.1 295.2 169.0 295.9 170.0 297.25 170.95 L297.35 171.0 298.4 171.7 297.35 171.0 297.25 170.95 Q295.9 170.0 295.2 169.0 294.55 168.1 294.7 167.6 M273.55 181.55 Q273.4 181.35 273.25 181.3 L273.1 181.25 273.0 181.1 273.55 181.55" fill="#b9b09f" fill-rule="evenodd" stroke="none"/>
    <path d="M286.5 162.15 L286.9 162.4 Q287.6 162.85 287.8 163.85 287.9 164.7 287.6 166.05 L287.35 167.05 287.3 167.35 286.25 169.95 286.2 170.05 283.9 174.0 283.3 174.8 Q280.55 178.45 277.7 180.5 L277.3 180.75 277.15 180.85 276.15 181.55 276.05 181.55 Q275.9 181.6 275.85 181.7 L275.55 181.8 Q275.3 181.85 275.15 181.95 L274.35 182.15 273.75 182.15 274.15 182.15 275.3 181.8 275.6 181.7 275.85 181.55 275.95 181.55 276.95 180.85 277.1 180.75 277.75 180.35 Q280.45 178.3 283.1 174.8 L283.65 174.0 286.0 170.05 287.05 167.35 287.15 167.05 287.4 166.05 287.6 164.1 287.45 164.65 287.25 165.65 287.15 165.95 Q286.55 167.9 285.4 169.95 L283.75 172.6 283.15 173.4 282.25 174.6 282.5 174.3 283.1 173.4 285.15 169.95 286.5 166.8 286.6 166.45 286.85 165.5 287.0 163.5 Q286.9 162.65 286.5 162.15 M307.9 177.85 L308.45 179.05 308.3 181.2 308.05 182.25 308.0 182.55 Q307.0 185.7 304.6 189.2 L303.95 190.0 Q301.05 193.95 298.0 196.0 L297.85 196.05 296.85 196.65 Q295.55 197.35 294.45 197.35 295.5 197.3 296.7 196.65 L297.7 196.05 297.9 196.0 Q300.9 193.95 303.8 190.0 L304.45 189.2 Q306.9 185.7 307.85 182.55 L307.95 182.25 308.2 181.2 Q308.45 179.95 308.3 179.05 L308.2 179.85 307.95 180.85 307.85 181.15 Q306.9 184.3 304.45 187.8 L303.8 188.6 Q306.2 185.1 307.15 182.0 L307.3 181.65 307.5 180.65 307.65 178.65 307.2 177.45 307.2 177.35 307.35 177.4 307.9 177.85 M273.05 181.55 L272.2 181.55 272.15 181.45 273.05 181.55 M302.8 189.95 L303.2 189.4 303.8 188.6 302.8 189.95 M293.65 196.75 L292.9 196.65 292.85 196.65 292.8 196.6 292.9 196.65 292.8 196.6 293.2 196.7 293.65 196.75" fill="#9a9a9a" fill-rule="evenodd" stroke="none"/>
    <path d="M301.55 173.5 L301.75 173.6 301.8 173.65 302.15 174.0 Q303.0 175.2 302.3 177.8 L302.2 178.3 301.95 179.15 301.85 179.35 299.95 182.55 299.35 183.3 298.15 184.8 Q300.3 181.6 301.25 178.6 L301.5 177.8 Q302.45 174.6 301.4 173.35 L301.55 173.5 M290.85 165.6 L291.4 165.9 Q292.65 167.1 291.65 170.4 L290.7 172.9 Q289.8 175.05 288.2 177.35 L287.6 178.15 Q285.3 181.2 282.9 183.1 L281.4 184.2 280.35 184.85 279.6 184.4 279.6 184.35 280.7 183.7 Q283.9 181.7 286.9 177.65 L287.45 176.85 Q290.0 173.2 290.9 169.85 291.85 166.85 290.85 165.6 M296.65 194.35 L296.05 194.8 296.55 194.4 296.65 194.35" fill="#cccccc" fill-rule="evenodd" stroke="none"/>
    <path d="M288.4 164.2 L290.8 165.5 290.85 165.6 Q291.85 166.85 290.9 169.85 290.0 173.2 287.45 176.85 L286.9 177.65 Q283.9 181.7 280.7 183.7 L279.6 184.35 276.55 182.1 276.55 182.05 276.35 181.95 276.65 181.8 276.85 181.7 277.6 181.2 277.75 181.05 277.95 181.0 Q281.0 178.9 283.9 175.0 L284.55 174.25 Q286.95 170.7 287.9 167.55 L288.0 167.25 288.25 166.25 288.4 164.2 M291.4 165.9 L294.5 167.85 294.4 167.95 Q294.15 168.5 294.9 169.55 295.65 170.6 297.0 171.5 L297.95 172.1 298.1 172.2 299.55 172.75 300.75 172.9 300.8 172.8 301.45 173.35 301.4 173.35 Q302.45 174.6 301.5 177.8 L301.25 178.6 Q300.3 181.6 298.15 184.8 L297.95 185.05 297.75 185.35 Q295.8 187.55 293.8 188.8 291.2 190.6 289.5 189.75 L289.45 189.7 288.75 189.4 285.65 188.0 285.3 187.85 285.05 187.7 285.15 187.55 284.8 187.5 284.55 187.4 284.25 187.25 284.15 187.2 282.45 186.2 280.35 184.9 280.35 184.85 281.4 184.2 282.9 183.1 Q285.3 181.2 287.6 178.15 L288.2 177.35 Q289.8 175.05 290.7 172.9 L291.65 170.4 Q292.65 167.1 291.4 165.9 M252.05 227.65 L251.9 227.2 251.7 226.4 251.7 225.8 Q251.55 222.85 253.6 220.1 L254.05 219.45 270.0 198.4 Q269.9 198.85 270.3 199.55 L270.45 199.85 255.55 219.45 255.15 220.1 Q253.1 222.85 253.25 225.8 L253.25 226.0 253.35 226.85 253.6 227.65 253.8 228.15 Q254.75 228.7 255.8 228.9 253.85 229.15 252.3 228.15 L252.05 227.65" fill="#83775f" fill-rule="evenodd" stroke="none"/>
    <path d="M287.8 163.85 L288.4 164.2 288.25 166.25 288.0 167.25 287.9 167.55 Q286.95 170.7 284.55 174.25 L283.9 175.0 Q281.0 178.9 277.95 181.0 L277.75 181.05 277.6 181.2 276.85 181.7 276.65 181.8 276.35 181.95 276.55 182.05 276.55 182.1 279.6 184.35 Q277.75 185.3 276.35 184.8 L276.35 184.85 276.15 184.7 276.05 184.6 275.95 184.45 273.85 182.25 274.4 182.15 275.85 181.7 276.05 181.6 276.05 181.55 276.15 181.55 277.15 180.85 277.3 180.75 277.7 180.5 Q280.55 178.45 283.3 174.8 L283.9 174.0 286.2 170.05 286.25 169.95 287.3 167.35 287.35 167.05 287.6 166.05 Q287.9 164.7 287.8 163.85 M280.35 184.9 L282.45 186.2 284.15 187.2 284.25 187.25 284.55 187.4 284.8 187.5 285.15 187.55 285.05 187.7 285.3 187.85 285.65 188.0 288.75 189.4 289.45 189.7 289.5 189.75 Q291.2 190.6 293.8 188.8 295.8 187.55 297.75 185.35 L297.8 185.4 297.5 185.75 297.1 186.3 296.7 186.75 294.4 189.45 292.9 190.8 292.4 191.15 291.5 191.75 Q289.8 193.0 288.4 193.1 L288.25 193.1 288.1 193.1 287.7 193.0 287.4 192.95 287.0 192.8 Q283.0 190.6 279.45 187.6 L278.95 187.15 278.7 186.95 276.85 185.35 Q278.3 185.95 280.35 184.9 M303.3 175.25 L304.85 176.75 305.55 177.5 305.5 177.55 Q306.9 178.55 305.9 181.8 305.05 184.8 302.75 188.15 L302.2 188.9 301.5 189.75 299.8 191.7 299.3 192.3 297.75 193.55 296.65 194.35 296.55 194.4 296.05 194.8 295.35 195.1 292.4 195.25 292.35 195.25 291.65 194.95 288.75 193.7 Q290.15 193.75 292.0 192.5 L292.1 192.45 292.15 192.3 292.25 192.3 292.55 192.05 292.75 191.85 293.0 191.7 293.15 191.55 295.2 189.85 297.45 187.25 297.55 187.1 298.25 186.15 298.85 185.35 Q301.0 182.1 301.95 179.15 L303.1 176.2 303.3 175.25" fill="#5b5342" fill-rule="evenodd" stroke="none"/>
    <path d="M294.45 197.35 L294.4 197.35 294.35 197.35 294.15 197.3 293.15 197.05 293.0 197.0 292.95 196.9 292.75 196.7 292.7 196.6 292.85 196.65 292.9 196.65 293.65 196.75 293.8 196.75 293.95 196.75 Q294.9 196.7 296.1 196.1 L297.05 195.5 297.25 195.35 Q300.1 193.45 302.8 189.95 L303.8 188.6 304.45 187.8 Q306.9 184.3 307.85 181.15 L307.95 180.85 308.2 179.85 308.3 179.05 Q308.45 179.95 308.2 181.2 L307.95 182.25 307.85 182.55 Q306.9 185.7 304.45 189.2 L303.8 190.0 Q300.9 193.95 297.9 196.0 L297.7 196.05 296.7 196.65 Q295.5 197.3 294.45 197.35 M288.45 193.65 L288.1 193.45 287.85 193.3 287.95 193.25 288.2 193.4 288.55 193.55 288.75 193.7 288.55 193.55 288.2 193.4 287.95 193.25 287.95 193.2 288.2 193.2 288.3 193.2 Q289.7 193.1 291.45 191.85 L292.3 191.25 292.9 190.8 294.4 189.45 296.7 186.75 297.1 186.3 297.5 185.75 297.8 185.4 297.95 185.05 298.15 184.8 299.35 183.3 299.95 182.55 301.85 179.35 Q300.9 182.25 298.75 185.4 L298.2 186.2 297.55 187.1 297.45 187.25 295.2 189.85 293.15 191.55 293.0 191.7 292.75 191.85 292.55 192.05 292.25 192.3 292.15 192.3 292.1 192.45 292.0 192.5 Q290.15 193.75 288.75 193.7 L288.45 193.65 M276.65 185.3 L276.55 185.25 276.45 185.1 276.4 185.05 276.35 184.9 276.4 184.9 276.45 184.9 276.5 185.0 276.5 185.05 276.65 185.2 276.85 185.25 Q278.3 185.9 280.35 184.85 L280.35 184.9 Q278.3 185.95 276.85 185.35 L276.85 185.3 276.75 185.3 276.65 185.3 M273.75 182.15 L273.55 182.15 273.5 182.15 272.4 181.9 272.3 181.85 272.15 181.7 272.0 181.55 271.95 181.45 272.2 181.55 273.05 181.55 273.1 181.55 273.3 181.55 Q274.25 181.55 275.45 180.9 L276.35 180.3 276.55 180.2 277.9 179.2 Q279.95 177.55 281.95 175.0 279.95 177.55 277.9 179.2 L276.55 180.2 276.35 180.3 275.45 180.9 Q274.25 181.55 273.3 181.55 L273.1 181.55 273.55 181.55 275.15 180.9 276.15 180.3 276.35 180.2 277.9 179.0 279.6 177.5 281.95 175.0 282.15 174.75 282.25 174.6 283.15 173.4 283.75 172.6 285.4 169.95 Q286.55 167.9 287.15 165.95 L287.25 165.65 287.45 164.65 287.6 164.1 287.4 166.05 287.15 167.05 287.05 167.35 286.0 170.05 283.65 174.0 283.1 174.8 Q280.45 178.3 277.75 180.35 L277.1 180.75 276.95 180.85 275.95 181.55 275.85 181.55 275.6 181.7 275.3 181.8 274.15 182.15 273.75 182.15 272.6 181.9 272.5 181.85 272.35 181.7 272.2 181.55 272.35 181.7 272.5 181.85 272.6 181.9 273.75 182.15 M272.0 181.55 L271.95 181.45 272.0 181.55 M280.35 184.85 Q278.3 185.9 276.85 185.25 L276.65 185.2 276.5 185.05 276.5 185.0 276.45 184.9 Q277.8 185.35 279.6 184.4 L280.35 184.85 M276.4 184.9 L276.5 185.0 276.4 184.9 M276.65 185.2 L276.85 185.3 276.65 185.2 M302.8 189.95 Q300.1 193.45 297.25 195.35 L297.05 195.5 296.1 196.1 Q294.9 196.7 293.95 196.75 L295.95 196.1 296.95 195.5 297.05 195.35 300.65 192.3 302.8 189.95 M297.1 186.3 L297.55 185.7 297.8 185.4 297.55 185.7 297.1 186.3 M294.15 197.3 L293.25 197.05 293.15 197.0 293.15 196.95 293.1 196.95 293.05 196.9 292.9 196.65 293.05 196.9 293.1 196.95 293.15 196.95 293.15 197.0 293.25 197.05 294.15 197.3 M292.15 192.3 L292.55 192.05 292.15 192.3 M287.95 193.25 L287.95 193.2 287.95 193.25 M292.75 191.85 L293.15 191.55 292.75 191.85 M288.55 193.55 Q290.1 193.75 292.1 192.45 290.1 193.75 288.55 193.55 M293.1 196.95 L292.75 196.7 293.1 196.95" fill="#656565" fill-rule="evenodd" stroke="none"/>
    <path d="M295.15 167.35 L295.55 167.35 295.2 167.4 295.15 167.35 M279.35 187.7 L279.4 187.65 279.4 187.7 279.35 187.7 M297.95 172.1 L298.15 172.1 298.1 172.2 297.95 172.1" fill="#824f3e" fill-rule="evenodd" stroke="none"/>
    <path d="M301.2 172.25 L301.05 172.35 300.8 172.75 300.75 172.9 299.55 172.75 298.1 172.2 298.15 172.1 298.2 172.0 298.4 171.7 298.75 171.85 299.2 172.0 299.8 172.2 299.2 172.0 299.25 172.0 299.5 171.65 299.05 170.4 Q298.25 169.35 296.9 168.4 L295.2 167.4 295.55 167.35 296.25 167.5 Q297.4 167.8 298.75 168.75 300.1 169.7 300.85 170.75 L301.35 171.95 301.2 172.25 M286.95 192.8 L279.7 203.3 278.95 204.5 278.1 204.35 277.55 204.2 277.5 204.2 277.25 204.05 276.9 203.95 274.35 202.5 Q272.7 201.4 271.75 200.2 L272.95 201.1 Q274.6 202.25 276.1 202.8 L276.65 202.95 277.5 203.1 279.95 199.55 279.9 196.2 279.45 192.65 279.15 191.75 278.2 189.2 279.35 187.7 279.4 187.7 280.0 188.15 280.0 188.25 280.05 188.25 285.25 191.85 286.95 192.8 M301.05 172.35 L299.8 172.2 301.05 172.35" fill="#9f937b" fill-rule="evenodd" stroke="none"/>
    <path d="M299.2 172.0 L299.8 172.2 299.2 172.0" fill="#975b48" fill-rule="evenodd" stroke="none"/>
    <path d="M300.8 172.75 L300.8 172.8 300.75 172.9 300.8 172.75 M302.15 174.0 L304.9 176.7 305.65 177.45 305.6 177.5 Q306.95 178.5 305.95 181.75 305.1 184.75 302.8 188.1 L302.25 188.8 301.5 189.75 302.2 188.9 302.75 188.15 Q305.05 184.8 305.9 181.8 306.9 178.55 305.5 177.55 L305.55 177.5 304.85 176.75 303.3 175.25 303.1 176.2 301.95 179.15 302.2 178.3 302.3 177.8 Q303.0 175.2 302.15 174.0 M273.85 182.25 L273.75 182.15 274.35 182.15 275.15 181.95 Q275.3 181.85 275.55 181.8 L275.85 181.7 Q275.9 181.6 276.05 181.55 L276.05 181.6 275.85 181.7 274.4 182.15 275.15 181.95 274.4 182.15 273.85 182.25 M301.4 173.35 L301.45 173.35 301.4 173.35" fill="#613a2e" fill-rule="evenodd" stroke="none"/>
    <path d="M304.9 176.7 L306.5 176.8 307.05 177.2 307.15 177.35 307.2 177.45 307.65 178.65 307.5 180.65 307.3 181.65 307.15 182.0 Q306.2 185.1 303.8 188.6 L303.2 189.4 302.8 189.95 300.65 192.3 297.05 195.35 296.95 195.5 295.95 196.1 293.95 196.75 293.8 196.75 293.65 196.75 293.2 196.7 292.8 196.6 292.55 196.5 292.4 196.45 292.25 196.3 291.8 195.7 291.65 195.1 292.25 195.3 292.3 195.35 Q293.6 196.0 295.35 195.1 L296.05 194.8 296.65 194.35 297.75 193.55 299.3 192.3 299.6 192.0 299.8 191.7 301.5 189.75 302.25 188.8 302.8 188.1 Q305.1 184.75 305.95 181.75 306.95 178.5 305.6 177.5 L305.65 177.45 304.9 176.7 M271.8 181.3 L271.7 181.25 271.6 181.1 Q270.4 179.9 271.3 176.6 272.4 173.05 275.45 169.05 L275.45 169.0 276.05 168.2 Q278.75 164.7 281.55 162.75 284.05 161.05 285.55 161.5 284.4 161.8 282.95 162.75 280.15 164.7 277.45 168.2 L276.85 169.05 276.75 169.1 Q273.8 173.1 272.7 176.6 271.8 179.9 273.0 181.1 L273.1 181.25 273.25 181.3 Q273.4 181.35 273.55 181.55 L273.1 181.55 273.05 181.55 272.15 181.45 271.8 181.3" fill="#e1ded7" fill-rule="evenodd" stroke="none"/>
    <path d="M291.65 195.1 L291.6 195.05 288.45 193.65 288.75 193.7 291.65 194.95 291.65 195.1 291.65 194.95 292.35 195.25 292.4 195.25 295.35 195.1 Q293.6 196.0 292.3 195.35 L292.25 195.3 291.65 195.1 M287.65 193.1 L287.6 193.1 287.35 193.0 287.0 192.85 286.95 192.8 285.25 191.85 280.05 188.25 280.0 188.15 279.4 187.7 279.4 187.65 278.9 187.25 278.65 187.05 276.65 185.3 276.75 185.3 276.85 185.3 276.85 185.35 278.7 186.95 278.95 187.15 279.45 187.6 279.4 187.65 279.45 187.6 Q283.0 190.6 287.0 192.8 L287.4 192.95 287.7 193.0 288.1 193.1 288.25 193.1 288.4 193.1 Q289.8 193.0 291.5 191.75 L292.4 191.15 292.9 190.8 292.3 191.25 291.45 191.85 Q289.7 193.1 288.3 193.2 L288.2 193.2 287.95 193.2 287.65 193.1 287.4 192.95 287.65 193.1 287.7 193.0 288.0 193.1 287.7 193.0 287.65 193.1 M276.35 184.9 L276.3 184.9 276.1 184.75 276.05 184.75 276.0 184.65 275.9 184.55 273.75 182.25 273.85 182.25 275.95 184.45 276.05 184.6 276.15 184.7 276.35 184.85 276.35 184.8 276.45 184.9 276.35 184.8 Q277.75 185.3 279.6 184.35 L279.6 184.4 Q277.8 185.35 276.45 184.9 L276.4 184.9 276.35 184.9 M297.75 185.35 L297.95 185.05 297.8 185.4 297.75 185.35 M276.4 184.9 L276.35 184.85 276.4 184.9 M299.8 191.7 L299.6 192.0 299.3 192.3 299.8 191.7 M301.85 179.35 L301.95 179.15 Q301.0 182.1 298.85 185.35 L298.25 186.15 297.55 187.1 298.2 186.2 298.75 185.4 Q300.9 182.25 301.85 179.35 M287.95 193.2 L288.0 193.1 288.1 193.1 288.0 193.1 287.95 193.2 M286.95 192.8 L287.0 192.8 286.95 192.8" fill="#4a2d24" fill-rule="evenodd" stroke="none"/>
    <path d="M252.6 228.85 L252.05 227.65 252.3 228.15 252.6 228.85 M280.05 188.25 L280.0 188.25 280.0 188.15 280.05 188.25" fill="#a1664c" fill-rule="evenodd" stroke="none"/>
    <path d="M270.0 198.4 L270.5 197.7 Q270.95 197.55 271.75 197.7 L270.8 198.9 271.3 199.65 271.7 200.2 271.75 200.2 Q272.7 201.4 274.35 202.5 L276.9 203.95 276.65 204.25 275.75 204.25 275.6 204.2 275.15 204.05 274.15 203.35 274.0 203.3 273.75 203.1 Q271.75 201.75 270.75 200.25 L270.7 200.2 270.45 199.85 270.45 199.8 270.35 199.6 270.3 199.55 Q269.9 198.85 270.0 198.4" fill="#222222" fill-rule="evenodd" stroke="none"/>
    <path d="M251.7 226.4 L251.7 226.0 251.7 225.8 251.7 226.4 M270.3 199.55 L270.35 199.6 270.45 199.8 270.45 199.85 270.3 199.55" fill="#757575" fill-rule="evenodd" stroke="none"/>
    <path d="M270.45 199.85 L270.7 200.2 270.75 200.25 Q271.75 201.75 273.75 203.1 L274.0 203.3 274.15 203.35 275.15 204.05 275.6 204.2 275.9 204.35 276.1 204.5 262.0 225.0 260.2 226.95 Q258.8 228.1 257.1 228.6 L255.85 228.9 255.8 228.9 Q254.75 228.7 253.8 228.15 L253.6 227.65 253.35 226.85 253.25 226.0 253.25 225.8 Q253.1 222.85 255.15 220.1 L255.55 219.45 270.45 199.85" fill="#484235" fill-rule="evenodd" stroke="none"/>
    <path d="M279.7 203.3 L279.95 204.3 279.4 205.15 279.35 205.15 279.95 204.3 279.35 205.15 278.4 205.15 277.5 204.95 276.1 204.5 275.9 204.35 275.6 204.2 275.75 204.25 276.65 204.25 276.9 203.95 277.25 204.05 277.5 204.2 277.55 204.2 278.1 204.35 278.95 204.5 279.7 203.3 M277.25 204.05 L277.55 204.2 277.25 204.05" fill="#000000" fill-rule="evenodd" stroke="none"/>
    <path d="M279.4 205.15 L278.55 206.35 264.15 227.35 263.7 227.95 Q261.8 230.15 259.2 230.9 256.25 231.8 254.1 230.3 L253.0 229.35 252.75 229.05 252.6 228.85 252.3 228.15 Q253.85 229.15 255.8 228.9 L255.85 228.9 257.1 228.6 Q258.8 228.1 260.2 226.95 L262.0 225.0 276.1 204.5 277.5 204.95 278.4 205.15 279.35 205.15 279.4 205.15 M278.55 206.35 L279.35 205.15 278.55 206.35" fill="#202020" fill-rule="evenodd" stroke="none"/>
    <path d="M279.45 169.35 L285.15 169.95 283.1 173.4 282.5 174.3 282.25 174.6 282.15 174.75 281.95 175.0 279.6 177.5 277.9 179.0 279.45 169.35" fill="#a89c86" fill-rule="evenodd" stroke="none"/>
    <path d="M276.75 169.1 L279.45 169.35 277.9 179.0 276.35 180.2 276.15 180.3 275.15 180.9 273.55 181.55 273.0 181.1 Q271.8 179.9 272.7 176.6 273.8 173.1 276.75 169.1" fill="#cac2b5" fill-rule="evenodd" stroke="none"/>
    <path d="M285.55 161.5 L286.1 161.8 286.5 162.15 286.9 162.4 Q287.6 162.85 287.8 163.85 M288.4 164.2 L290.8 165.5 M291.4 165.9 L294.5 167.85 M294.8 167.5 L295.15 167.35 M301.05 172.35 L300.8 172.75 M301.55 173.5 L301.75 173.6 301.8 173.65 302.15 174.0 304.9 176.7 306.5 176.8 307.05 177.2 M307.35 177.4 L307.55 177.55 307.9 177.85 308.45 179.05 308.3 181.2 308.05 182.25 308.0 182.55 Q307.0 185.7 304.6 189.2 L303.95 190.0 Q301.05 193.95 298.0 196.0 L297.85 196.05 296.85 196.65 Q295.55 197.35 294.45 197.35 L294.4 197.35 M294.15 197.3 L293.15 197.05 293.0 197.0 292.95 196.9 292.75 196.7 M292.25 196.3 L291.8 195.7 M291.6 195.05 L288.45 193.65 288.1 193.45 287.85 193.3 M286.95 192.8 L279.7 203.3 279.95 204.3 279.35 205.15 278.55 206.35 264.15 227.35 263.7 227.95 Q261.8 230.15 259.2 230.9 256.25 231.8 254.1 230.3 L253.0 229.35 252.75 229.05 252.6 228.85 252.05 227.65 251.9 227.2 251.7 226.4 M251.7 225.8 Q251.55 222.85 253.6 220.1 L254.05 219.45 270.0 198.4 M270.5 197.7 Q270.95 197.55 271.75 197.7 L278.2 189.2 M279.4 187.65 L278.9 187.25 278.65 187.05 276.65 185.3 M275.9 184.55 L273.75 182.25 273.85 182.25 M273.5 182.15 L272.4 181.9 272.3 181.85 272.15 181.7 272.0 181.55 271.95 181.45 271.8 181.3 271.7 181.25 271.6 181.1 Q270.4 179.9 271.3 176.6 272.4 173.05 275.45 169.05 L275.45 169.0 276.05 168.2 Q278.75 164.7 281.55 162.75 284.05 161.05 285.55 161.5 M295.55 167.35 L296.25 167.5 Q297.4 167.8 298.75 168.75 300.1 169.7 300.85 170.75 L301.35 171.95" fill="none" stroke="#000000" stroke-linecap="round" stroke-linejoin="round" stroke-opacity="0.6" stroke-width="0.8"/>
    <path d="M287.8 163.85 L288.4 164.2 M290.85 165.6 L290.85 165.5 291.15 165.7 291.4 165.9 Q292.65 167.1 291.65 170.4 L290.7 172.9 Q289.8 175.05 288.2 177.35 L287.6 178.15 Q285.3 181.2 282.9 183.1 L281.4 184.2 280.35 184.85 Q278.3 185.9 276.85 185.25 L276.65 185.2 276.5 185.05 276.5 185.0 276.4 184.9 276.35 184.9 M294.5 167.85 L294.7 167.6 294.8 167.5 294.85 167.35 294.8 167.5 294.7 167.6 Q294.55 168.1 295.2 169.0 295.9 170.0 297.25 170.95 L297.35 171.0 298.4 171.7 298.75 171.85 299.2 172.0 299.8 172.2 301.05 172.35 301.2 172.25 301.45 171.8 301.45 171.9 301.4 172.05 301.2 172.25 301.35 171.95 M295.55 167.35 L296.4 167.5 Q297.55 167.8 298.9 168.75 300.25 169.7 301.0 170.75 L301.45 171.8 M300.8 172.75 L300.8 172.8 M301.45 173.35 L301.55 173.5 301.4 173.35 Q302.45 174.6 301.5 177.8 L301.25 178.6 Q300.3 181.6 298.15 184.8 L297.95 185.05 297.8 185.4 297.55 185.7 297.1 186.3 297.5 185.75 297.8 185.4 M306.5 176.8 L306.75 177.0 307.05 177.2 307.35 177.4 307.9 177.85 M294.4 197.35 L294.35 197.35 M292.75 196.7 L292.4 196.45 292.25 196.3 M291.8 195.7 L291.65 195.1 291.65 194.95 288.75 193.7 288.45 193.65 M287.95 193.25 L287.65 193.1 287.6 193.1 287.35 193.0 287.0 192.85 286.95 192.8 285.25 191.85 280.05 188.25 280.0 188.15 279.4 187.7 279.4 187.65 279.45 187.6 Q283.0 190.6 287.0 192.8 L287.4 192.95 287.7 193.0 288.1 193.1 288.25 193.1 288.4 193.1 Q289.8 193.0 291.5 191.75 L292.4 191.15 292.9 190.8 294.4 189.45 296.7 186.75 297.1 186.3 M251.7 226.4 L251.7 226.0 251.7 225.8 251.7 226.4 M279.35 187.7 L279.4 187.65 M273.85 182.25 L273.75 182.15 274.35 182.15 275.15 181.95 Q275.3 181.85 275.55 181.8 L275.85 181.7 Q275.9 181.6 276.05 181.55 L276.15 181.55 277.15 180.85 277.3 180.75 277.7 180.5 Q280.55 178.45 283.3 174.8 L283.9 174.0 286.2 170.05 M285.15 169.95 L286.5 166.8 286.6 166.45 286.85 165.5 287.0 163.5 Q286.9 162.65 286.5 162.15 M290.85 165.6 L291.4 165.9 M275.6 181.7 L275.3 181.8 M274.15 182.15 L273.75 182.15 272.6 181.9 272.5 181.85 272.35 181.7 272.2 181.55 272.15 181.45 273.05 181.55 273.1 181.55 273.3 181.55 Q274.25 181.55 275.45 180.9 L276.35 180.3 276.55 180.2 277.9 179.2 Q279.95 177.55 281.95 175.0 M286.25 169.95 L287.3 167.35 287.35 167.05 287.6 166.05 Q287.9 164.7 287.8 163.85 M279.6 184.35 L280.7 183.7 Q283.9 181.7 286.9 177.65 L287.45 176.85 Q290.0 173.2 290.9 169.85 291.85 166.85 290.85 165.6 M295.2 167.4 L295.55 167.35 M297.95 172.1 L297.0 171.5 Q295.65 170.6 294.9 169.55 294.15 168.5 294.4 167.95 L294.5 167.85 M298.1 172.2 L299.55 172.75 300.75 172.9 300.8 172.75 M298.1 172.2 L297.95 172.1 M285.15 169.95 L283.1 173.4 282.5 174.3 282.25 174.6 M274.4 182.15 L275.15 181.95 M276.35 184.85 L276.15 184.7 276.05 184.6 275.95 184.45 273.85 182.25 M276.45 184.9 L276.5 185.0 M279.6 184.4 Q277.8 185.35 276.45 184.9 L276.35 184.8 Q277.75 185.3 279.6 184.35 M276.35 184.85 L276.4 184.9 276.45 184.9 M276.85 185.35 L276.85 185.3 276.75 185.3 M276.85 185.3 L276.65 185.2 M279.45 187.6 L278.95 187.15 278.7 186.95 276.85 185.35 Q278.3 185.95 280.35 184.9 M271.75 200.2 Q272.7 201.4 274.35 202.5 L276.9 203.95 277.25 204.05 277.5 204.2 277.55 204.2 278.1 204.35 278.95 204.5 279.7 203.3 M270.45 199.85 L270.7 200.2 270.75 200.25 Q271.75 201.75 273.75 203.1 L274.0 203.3 274.15 203.35 275.15 204.05 275.6 204.2 M270.3 199.55 Q269.9 198.85 270.0 198.4 M271.75 200.2 L271.7 200.2 271.3 199.65 270.8 198.9 271.75 197.7 M276.1 204.5 L275.9 204.35 M277.55 204.2 L277.25 204.05 M279.35 205.15 L278.4 205.15 277.5 204.95 276.1 204.5 M252.3 228.15 L252.6 228.85 M279.4 205.15 L279.35 205.15 M270.45 199.85 L270.3 199.55 M301.5 189.75 L302.25 188.8 302.8 188.1 Q305.1 184.75 305.95 181.75 306.95 178.5 305.6 177.5 L305.65 177.45 304.9 176.7 M303.3 175.25 L304.85 176.75 305.55 177.5 305.5 177.55 Q306.9 178.55 305.9 181.8 305.05 184.8 302.75 188.15 L302.2 188.9 301.5 189.75 299.8 191.7 299.6 192.0 299.3 192.3 297.75 193.55 296.65 194.35 296.05 194.8 295.35 195.1 Q293.6 196.0 292.3 195.35 L292.25 195.3 291.65 195.1 M307.15 177.35 L307.2 177.35 307.35 177.4 M307.2 177.45 L307.15 177.35 307.05 177.2 M307.2 177.45 L307.65 178.65 307.5 180.65 307.3 181.65 307.15 182.0 Q306.2 185.1 303.8 188.6 L303.2 189.4 302.8 189.95 Q300.1 193.45 297.25 195.35 L297.05 195.5 296.1 196.1 Q294.9 196.7 293.95 196.75 L293.8 196.75 293.65 196.75 293.2 196.7 292.8 196.6 292.85 196.65 292.7 196.6 292.75 196.7 293.1 196.95 293.15 196.95 293.15 197.0 293.25 197.05 294.15 197.3 M302.15 174.0 Q303.0 175.2 302.3 177.8 L302.2 178.3 301.95 179.15 301.85 179.35 Q300.9 182.25 298.75 185.4 L298.2 186.2 297.55 187.1 298.25 186.15 298.85 185.35 Q301.0 182.1 301.95 179.15 M297.55 187.1 L297.45 187.25 295.2 189.85 293.15 191.55 293.0 191.7 292.75 191.85 292.55 192.05 292.25 192.3 292.15 192.3 292.1 192.45 292.0 192.5 Q290.15 193.75 288.75 193.7 L288.55 193.55 288.2 193.4 287.95 193.25 287.95 193.2 287.65 193.1 287.4 192.95 M287.95 193.2 L288.2 193.2 288.3 193.2 Q289.7 193.1 291.45 191.85 L292.3 191.25 292.9 190.8 M292.9 196.65 L293.05 196.9 293.1 196.95 M296.05 194.8 L296.55 194.4 296.65 194.35 M292.55 192.05 L292.15 192.3 M291.65 194.95 L292.35 195.25 292.4 195.25 295.35 195.1 M292.4 196.45 L292.55 196.5 292.8 196.6 292.9 196.65 M288.1 193.1 L288.0 193.1 287.95 193.2 M288.0 193.1 L287.7 193.0 287.65 193.1 M287.0 192.8 L286.95 192.8 M292.1 192.45 Q290.1 193.75 288.55 193.55 M293.15 191.55 L292.75 191.85 M299.3 192.3 L299.8 191.7 M252.05 227.65 L252.3 228.15" fill="none" stroke="#000000" stroke-linecap="round" stroke-linejoin="round" stroke-opacity="0.4" stroke-width="0.05"/>
    <path d="M300.8 172.8 L301.45 173.35 M270.0 198.4 L270.5 197.7 M278.2 189.2 L279.35 187.7 M276.3 184.9 L276.1 184.75 276.05 184.75 M273.75 182.15 L273.55 182.15 273.5 182.15 M272.2 181.55 L271.95 181.45" fill="none" stroke="#000000" stroke-linecap="round" stroke-linejoin="round" stroke-opacity="0.6" stroke-width="0.8"/>
    <path d="M272.25 198.95 Q273.05 200.5 273.1 201.5 L268.4 203.3 266.5 202.45 267.55 200.55 267.6 200.55 267.55 200.45 Q267.25 199.55 267.45 198.95 267.55 199.85 268.3 200.2 L268.9 199.9 269.3 199.1 Q269.55 197.65 268.8 196.45 L270.35 198.65 270.35 199.25 270.5 199.55 270.65 199.1 270.7 199.1 270.65 199.05 271.1 196.75 Q270.95 198.55 271.75 200.0 L272.4 200.5 272.25 198.95 M267.75 203.85 L266.5 205.1 265.4 204.65 265.95 202.75 Q265.7 203.8 267.75 203.85" fill="#008040" fill-rule="evenodd" stroke="none"/>
    <path d="M301.95 235.15 Q290.25 248.35 276.75 248.15 263.3 247.95 246.5 230.45 229.7 212.9 232.15 196.5 234.6 180.1 249.4 168.75 264.15 157.35 279.8 153.55 295.4 149.6 308.15 165.95 320.95 182.2 317.3 202.1 313.7 221.95 301.95 235.15 M300.1 227.95 Q310.7 216.8 314.05 200.15 317.25 183.45 305.75 169.75 294.25 156.1 280.2 159.3 266.1 162.55 252.8 172.1 239.45 181.65 237.2 195.45 235.05 209.25 250.2 224.0 265.3 238.7 277.4 238.9 289.55 239.05 300.1 227.95" fill="#b97917" fill-opacity="0.6" fill-rule="evenodd" stroke="none"/>
    <path d="M301.95 235.15 Q290.25 248.35 276.75 248.15 263.3 247.95 246.5 230.45 229.7 212.9 232.15 196.5 234.6 180.1 249.4 168.75 264.15 157.35 279.8 153.55 295.4 149.6 308.15 165.95 320.95 182.2 317.3 202.1 313.7 221.95 301.95 235.15 Z" fill="none" stroke="#8b5c1d" stroke-linecap="round" stroke-linejoin="round" stroke-width="0.7000000000000001"/>
    <path d="M300.1 227.95 Q289.55 239.05 277.4 238.9 265.3 238.7 250.2 224.0 235.05 209.25 237.2 195.45 239.45 181.65 252.8 172.1 266.1 162.55 280.2 159.3 294.25 156.1 305.75 169.75 317.25 183.45 314.05 200.15 310.7 216.8 300.1 227.95" fill="#ffa611" fill-opacity="0.6" fill-rule="evenodd" stroke="none"/>
    <path d="M264.45 181.1 Q263.2 181.8 261.75 183.5 260.75 184.75 260.55 184.45 260.1 183.7 260.35 182.25 260.6 180.45 261.8 179.55 264.75 177.35 268.9 175.75 273.15 174.1 277.1 173.6 278.75 173.45 280.95 174.45 282.9 175.35 283.3 176.1 283.95 177.25 281.05 177.6 L276.95 177.7 271.85 178.15 Q269.55 178.65 267.65 179.5 L264.45 181.1" fill="#ffffff" fill-opacity="0.4" fill-rule="evenodd" stroke="none"/>
    <path d="M297.5 232.2 Q290.25 240.5 282.7 244.7 279.7 246.45 274.5 244.65 270.05 242.95 268.65 241.0 266.55 237.8 272.1 234.6 272.9 234.1 280.05 231.6 286.15 229.45 289.8 226.7 294.1 223.45 297.15 219.5 L302.3 211.95 Q304.35 209.05 305.85 202.6 307.05 197.8 307.65 198.75 309.1 200.9 309.75 205.7 310.5 211.55 308.75 215.2 304.5 224.4 297.5 232.2" fill="#8b5c1d" fill-opacity="0.6" fill-rule="evenodd" stroke="none"/>
    <path d="M248.95 184.85 Q245.85 187.4 242.75 193.6 240.4 198.15 239.85 197.1 238.5 194.75 238.6 189.9 238.75 184.0 241.7 180.65 248.7 172.25 258.8 165.6 269.35 158.55 279.45 155.55 283.5 154.25 289.55 156.9 294.75 159.25 296.0 161.45 298.0 164.95 290.55 167.2 L280.15 168.9 Q272.2 170.15 267.2 172.25 261.3 174.75 256.75 178.25 256.2 178.6 248.95 184.85" fill="#ffffff" fill-opacity="0.4" fill-rule="evenodd" stroke="none"/>
  </g>
</svg>
