<?xml version="1.0" encoding="UTF-8" standalone="no"?>
<svg xmlns:xlink="http://www.w3.org/1999/xlink" height="96.05px" width="86.95px" xmlns="http://www.w3.org/2000/svg">
  <g transform="matrix(1.0, 0.0, 0.0, 1.0, -231.5, -152.45)">
    <path d="M296.35 225.05 Q286.6 235.25 275.45 235.1 264.3 234.95 250.4 221.4 236.45 207.85 238.45 195.15 240.5 182.45 252.8 173.65 265.05 164.85 278.0 161.85 290.95 158.9 301.55 171.5 312.1 184.1 309.15 199.45 306.1 214.8 296.35 225.05" fill="#ffa611" fill-rule="evenodd" stroke="none"/>
    <path d="M294.75 181.5 Q288.6 171.75 290.45 170.95 292.35 170.15 297.85 174.75 303.3 179.35 305.1 187.25 306.9 195.15 303.85 201.75 300.7 208.3 297.2 208.1 293.7 207.95 294.2 203.5 294.65 199.05 297.75 195.2 300.95 191.25 294.75 181.5" fill="#f9ec4f" fill-rule="evenodd" stroke="none"/>
    <path d="M293.85 162.5 L304.05 168.05 306.75 171.75 308.05 174.2 Q309.75 177.65 310.2 181.65 L310.25 181.95 Q310.75 186.5 310.25 190.95 309.6 195.85 307.75 200.65 L306.45 203.55 Q304.35 207.9 300.9 211.55 297.2 215.6 292.6 218.7 L291.0 219.75 283.55 221.3 283.5 221.3 Q277.4 222.55 267.55 219.05 L263.75 215.3 269.1 210.15 273.65 199.55 274.25 192.35 259.95 206.3 249.75 221.5 Q248.25 222.8 246.9 224.1 L244.3 223.9 242.55 221.7 242.9 217.15 246.85 211.15 248.2 209.55 255.4 204.0 269.05 187.0 265.35 186.55 256.85 171.2 263.9 172.05 264.5 172.3 264.5 172.1 273.3 173.15 275.9 177.5 284.0 178.5 289.0 172.2 289.4 167.2 293.1 167.2 293.85 162.5" fill="#fedbc0" fill-opacity="0.4509804" fill-rule="evenodd" stroke="none"/>
    <path d="M294.3 166.35 L294.35 166.15 303.15 171.05 303.25 171.2 305.55 174.55 306.65 176.7 306.45 176.8 306.4 176.7 305.3 174.55 303.0 171.2 303.15 171.05 302.9 171.15 298.0 172.25 297.95 172.25 296.25 173.95 294.55 171.85 295.1 171.3 293.5 170.75 294.3 166.35 302.9 171.15 294.3 166.35 M308.35 183.75 Q308.65 187.8 308.05 191.85 L307.9 191.8 303.35 190.7 303.45 186.2 308.15 183.85 308.35 183.75 M304.4 203.2 Q302.35 207.1 299.25 210.4 L297.9 211.75 291.65 216.9 284.45 213.7 284.45 213.65 288.75 212.85 289.3 212.7 294.0 208.7 297.9 208.4 301.95 203.0 299.45 201.95 299.9 201.35 300.65 200.0 304.35 203.15 304.4 203.2 M283.45 219.2 Q278.1 220.3 269.45 217.2 L268.55 216.15 Q268.7 215.25 269.6 215.3 L271.95 215.6 272.15 215.65 273.95 214.85 274.05 212.9 274.05 212.85 276.85 213.65 277.25 213.75 280.0 213.9 284.2 213.65 283.55 219.2 283.45 219.2 M302.15 179.2 L301.2 176.5 299.6 174.35 303.0 171.2 305.3 174.55 306.4 176.7 306.45 176.8 302.15 179.2 M308.15 183.85 Q308.45 187.85 307.9 191.8 308.45 187.85 308.15 183.85 M304.35 203.15 L304.3 203.2 Q302.3 207.1 299.2 210.4 L297.9 211.75 299.2 210.4 Q302.3 207.1 304.3 203.2 L304.35 203.15" fill="#d8d3cb" fill-rule="evenodd" stroke="none"/>
    <path d="M288.25 176.5 L288.9 175.75 289.55 174.95 289.55 174.55 289.55 174.95 289.55 174.55 290.5 175.0 291.3 175.6 291.6 176.3 292.1 176.55 Q292.95 180.35 294.15 183.4 L291.05 183.65 288.05 178.55 288.25 176.55 288.25 176.5 M288.9 175.75 L288.25 176.55 288.9 175.75 M298.45 201.15 L298.1 201.8 294.6 207.25 293.15 208.6 288.75 212.7 284.45 213.55 284.75 205.65 290.7 201.8 292.75 203.25 292.9 203.3 Q295.9 202.7 298.45 201.15 M288.25 207.3 L287.55 207.4 287.25 207.7 Q286.9 208.1 286.85 208.7 L286.9 209.4 287.05 209.65 287.4 209.85 287.8 209.95 Q288.4 210.1 288.9 209.7 L289.1 209.5 Q289.45 208.85 289.3 208.15 289.15 207.25 288.25 207.3" fill="#9d8f73" fill-rule="evenodd" stroke="none"/>
    <path d="M289.55 174.55 L289.65 173.75 290.05 170.3 294.55 171.85 296.25 173.95 298.0 176.1 299.45 179.5 297.95 180.6 297.1 179.6 Q296.5 179.45 296.2 179.95 295.95 180.3 296.05 180.75 L296.15 181.5 296.25 181.85 294.15 183.4 Q292.95 180.35 292.1 176.55 L291.6 176.3 291.3 175.6 290.5 175.0 289.55 174.55 289.65 173.75 289.55 174.55 M294.65 175.4 L294.65 175.2 Q294.25 174.5 293.4 174.55 L293.25 174.55 292.75 174.65 292.65 174.8 292.65 175.0 292.7 175.15 Q292.75 175.9 293.15 176.6 L293.35 176.75 293.9 176.9 294.3 176.75 Q294.7 176.25 294.7 175.55 L294.75 175.5 294.65 175.4 M290.7 201.8 L298.85 200.3 298.45 201.15 Q295.9 202.7 292.9 203.3 L292.75 203.25 290.7 201.8" fill="#8d8265" fill-rule="evenodd" stroke="none"/>
    <path d="M286.25 178.95 L288.25 176.5 288.25 176.55 288.05 178.55 287.4 184.3 290.15 191.0 278.45 195.1 280.35 200.55 285.3 201.15 279.5 205.1 279.25 207.85 277.35 209.25 277.25 208.95 277.35 208.05 Q277.45 205.65 277.85 203.25 L278.15 202.95 278.2 202.9 Q279.5 201.9 281.2 201.7 L280.3 201.05 Q278.3 199.5 278.05 196.95 277.9 195.45 278.3 194.25 L278.7 193.95 281.5 193.05 Q282.95 192.6 283.9 191.75 L284.95 191.35 285.45 191.0 285.8 191.0 286.65 190.15 286.45 188.9 285.8 186.85 Q285.45 184.75 285.8 182.65 L286.25 179.15 286.25 179.0 288.25 176.55 286.25 179.0 286.25 178.95 M294.15 183.4 L296.25 181.85 296.25 181.9 296.45 182.3 Q296.7 182.7 297.2 182.7 L297.65 182.6 298.35 182.0 Q298.5 181.5 298.25 181.15 L298.05 180.75 297.95 180.6 299.45 179.5 Q301.25 184.65 301.2 190.15 L301.0 192.9 Q300.65 196.85 298.85 200.3 L290.7 201.8 Q288.6 200.05 287.8 197.8 L288.95 198.65 Q290.8 199.15 292.5 198.7 L292.4 194.75 Q295.4 194.7 297.45 195.9 L297.55 193.15 296.8 192.35 295.4 191.85 295.5 189.6 295.2 188.7 294.75 188.25 Q294.4 187.85 294.45 187.4 L295.1 186.25 294.7 184.85 294.15 183.4 M298.6 186.8 L298.4 186.85 297.95 187.0 297.65 187.45 Q297.35 188.1 297.65 188.75 L297.8 189.1 Q297.95 189.55 298.4 189.65 L299.25 189.6 Q299.75 189.25 299.75 188.55 299.7 187.5 298.6 186.8" fill="#9f9377" fill-rule="evenodd" stroke="none"/>
    <path d="M286.15 179.1 L286.25 178.95 286.25 179.0 286.25 179.15 286.2 179.1 286.25 179.0 286.2 179.1 286.15 179.1 M294.7 175.55 Q294.7 176.25 294.3 176.75 L293.9 176.9 293.35 176.75 293.15 176.6 Q292.75 175.9 292.7 175.15 L292.65 175.0 292.65 174.8 292.75 174.65 293.25 174.55 293.4 174.55 Q294.25 174.5 294.65 175.2 L294.65 175.4 294.7 175.55 M296.25 181.85 L296.15 181.5 296.05 180.75 Q295.95 180.3 296.2 179.95 296.5 179.45 297.1 179.6 L297.95 180.6 298.05 180.75 298.25 181.15 Q298.5 181.5 298.35 182.0 L297.65 182.6 297.2 182.7 Q296.7 182.7 296.45 182.3 L296.25 181.9 296.25 181.85 M293.4 174.9 Q293.3 175.55 294.0 175.95 L294.2 176.05 294.55 175.9 294.55 175.75 294.55 175.55 293.8 174.8 293.45 174.9 293.4 174.9 M296.8 180.6 Q296.6 181.05 296.8 181.45 L296.85 181.5 296.95 181.6 297.35 181.5 297.4 181.0 297.2 180.55 297.1 180.5 296.85 180.55 296.8 180.6 M298.6 186.8 Q299.7 187.5 299.75 188.55 299.75 189.25 299.25 189.6 L298.4 189.65 Q297.95 189.55 297.8 189.1 L297.65 188.75 Q297.35 188.1 297.65 187.45 L297.95 187.0 298.4 186.85 298.6 186.8 M298.55 187.6 L298.3 187.7 298.25 187.7 Q298.0 188.45 298.8 188.55 L298.95 188.45 298.95 188.3 298.85 187.9 298.85 187.8 298.55 187.6 M288.25 207.3 Q289.15 207.25 289.3 208.15 289.45 208.85 289.1 209.5 L288.9 209.7 Q288.4 210.1 287.8 209.95 L287.4 209.85 287.05 209.65 286.9 209.4 286.85 208.7 Q286.9 208.1 287.25 207.7 L287.55 207.4 288.25 207.3 M288.1 208.1 L288.0 208.0 287.75 208.1 287.7 208.15 287.6 208.9 287.65 209.05 288.15 209.1 Q288.45 208.55 288.1 208.1 M282.6 210.2 Q283.0 210.45 282.85 210.9 L282.7 211.4 Q282.55 212.2 281.75 212.35 L281.3 212.35 Q280.75 212.3 280.65 211.85 280.45 210.9 281.0 210.25 L282.6 210.2 M281.85 210.6 L281.6 210.7 281.5 210.7 281.35 211.45 281.35 211.55 Q281.4 211.85 281.8 211.8 282.2 211.5 282.15 210.95 L282.15 210.8 281.85 210.65 281.85 210.6" fill="#575d60" fill-rule="evenodd" stroke="none"/>
    <path d="M269.6 215.3 L269.4 215.3 Q268.5 215.25 268.4 216.15 L266.15 213.8 268.4 211.65 268.55 211.45 273.6 212.8 273.65 214.75 271.95 215.6 269.6 215.3 M261.95 175.9 L261.5 174.95 261.0 174.05 267.25 174.8 267.75 175.0 Q269.25 175.85 270.15 177.2 L270.35 177.4 270.6 177.5 271.65 177.85 272.05 178.1 272.2 178.4 272.0 178.4 271.35 178.85 Q271.05 179.15 271.5 179.35 L271.85 179.65 272.05 179.75 272.35 180.0 273.55 181.15 273.6 181.3 273.4 181.8 273.2 181.95 272.9 181.95 271.8 181.4 271.7 181.3 271.5 181.2 270.6 181.1 270.5 181.25 269.95 182.45 269.85 182.75 269.65 184.05 269.45 185.8 269.4 186.3 269.3 186.3 Q268.6 185.8 268.45 185.15 L268.3 183.85 268.3 183.75 268.3 183.15 268.45 181.85 268.6 181.1 268.7 180.5 268.7 180.1 268.45 179.7 267.95 179.25 267.7 179.0 266.95 178.4 266.55 178.1 265.7 177.45 265.05 177.1 264.65 176.9 262.9 176.2 262.0 175.9 261.95 175.9 M293.4 174.9 L293.45 174.9 293.8 174.8 294.55 175.55 294.55 175.75 294.55 175.9 294.2 176.05 294.0 175.95 Q293.3 175.55 293.4 174.9 M271.95 188.65 L271.95 188.35 Q271.9 187.8 272.35 187.6 L272.75 187.7 Q273.1 187.8 273.3 188.05 L274.45 189.1 273.95 188.3 273.3 187.45 273.05 186.7 273.25 185.15 Q273.4 184.35 274.15 183.9 L274.75 183.75 Q276.2 183.55 277.55 184.1 L277.65 183.5 278.15 182.9 Q278.75 182.35 279.5 182.35 L279.9 182.55 281.05 183.0 281.05 182.6 Q281.0 182.25 281.1 182.0 L281.2 181.75 282.25 181.5 282.5 181.7 Q283.45 182.65 283.95 183.95 284.25 184.9 284.2 185.95 L283.85 188.35 Q283.7 189.75 282.85 190.8 L282.05 191.55 Q280.75 192.6 279.05 192.3 L281.6 188.5 281.85 187.4 281.95 185.7 Q282.0 185.35 281.8 185.55 281.55 187.6 280.25 189.3 L279.25 190.3 278.55 190.65 279.05 189.55 279.5 188.8 279.9 187.85 280.15 186.85 Q280.25 186.35 280.0 185.95 278.9 185.55 278.55 186.65 L278.6 187.05 278.55 187.85 277.9 187.75 Q277.3 187.4 277.1 186.85 276.8 186.1 276.1 185.7 L275.85 185.55 275.5 185.5 Q275.2 185.55 274.95 185.75 274.65 185.9 274.65 186.25 274.7 187.05 275.3 187.65 L276.3 188.65 276.7 189.1 Q277.0 189.65 276.65 190.15 276.5 190.4 276.6 190.75 L276.9 191.0 277.2 191.25 277.55 191.9 Q277.65 192.15 277.35 192.3 L276.4 192.4 275.7 192.15 275.55 192.1 275.1 191.95 Q273.85 191.45 273.1 190.4 L272.35 189.65 272.15 189.45 Q271.9 189.2 271.95 188.85 L271.95 188.65 M296.8 180.6 L296.85 180.55 297.1 180.5 297.2 180.55 297.4 181.0 297.35 181.5 296.95 181.6 296.85 181.5 296.8 181.45 Q296.6 181.05 296.8 180.6 M298.55 187.6 L298.85 187.8 298.85 187.9 298.95 188.3 298.95 188.45 298.8 188.55 Q298.0 188.45 298.25 187.7 L298.3 187.7 298.55 187.6 M261.5 174.95 L262.0 175.9 261.5 174.95 M298.1 201.8 L300.6 202.85 297.0 208.3 293.15 208.6 294.6 207.25 298.1 201.8 M288.1 208.1 Q288.45 208.55 288.15 209.1 L287.65 209.05 287.6 208.9 287.7 208.15 287.75 208.1 288.0 208.0 288.1 208.1 M275.0 211.1 Q275.1 210.9 275.3 210.9 L275.75 211.35 275.4 211.65 Q274.9 211.55 275.0 211.1 M281.85 210.6 L281.85 210.65 282.15 210.8 282.15 210.95 Q282.2 211.5 281.8 211.8 281.4 211.85 281.35 211.55 L281.35 211.45 281.5 210.7 281.6 210.7 281.85 210.6" fill="#e7e7de" fill-rule="evenodd" stroke="none"/>
    <path d="M268.7 211.3 L270.95 209.15 275.3 199.55 276.0 193.1 275.85 192.65 275.7 192.15 276.4 192.4 277.35 192.3 Q277.65 192.15 277.55 191.9 L277.2 191.25 276.9 191.0 276.6 190.75 Q276.5 190.4 276.65 190.15 277.0 189.65 276.7 189.1 L276.3 188.65 275.3 187.65 Q274.7 187.05 274.65 186.25 274.65 185.9 274.95 185.75 275.2 185.55 275.5 185.5 L275.85 185.55 276.1 185.7 Q276.8 186.1 277.1 186.85 277.3 187.4 277.9 187.75 L278.55 187.85 278.6 187.05 278.55 186.65 Q278.9 185.55 280.0 185.95 280.25 186.35 280.15 186.85 L279.9 187.85 279.5 188.8 279.05 189.55 278.55 190.65 279.25 190.3 280.25 189.3 Q281.55 187.6 281.8 185.55 282.0 185.35 281.95 185.7 L281.85 187.4 281.6 188.5 279.05 192.3 Q280.75 192.6 282.05 191.55 L282.85 190.8 Q283.7 189.75 283.85 188.35 L284.2 185.95 Q284.25 184.9 283.95 183.95 283.45 182.65 282.5 181.7 L282.25 181.5 281.2 181.75 281.1 182.0 Q281.0 182.25 281.05 182.6 L281.05 183.0 279.9 182.55 279.5 182.35 Q278.75 182.35 278.15 182.9 L277.65 183.5 277.55 184.1 Q276.2 183.55 274.75 183.75 L274.15 183.9 Q273.4 184.35 273.25 185.15 L273.05 186.7 273.3 187.45 273.95 188.3 274.45 189.1 273.3 188.05 Q273.1 187.8 272.75 187.7 L272.35 187.6 Q271.9 187.8 271.95 188.35 L271.95 188.65 271.9 188.6 271.4 189.0 271.35 189.0 271.5 188.25 269.25 191.35 271.5 194.3 261.95 204.1 261.85 204.0 Q257.7 207.05 254.2 210.5 252.65 212.05 251.55 213.8 254.4 211.35 258.1 209.6 L260.95 207.35 251.85 217.8 247.15 219.55 247.6 215.5 251.25 210.05 252.45 208.6 259.0 203.6 271.5 188.25 268.2 187.9 262.4 176.75 261.95 175.9 262.0 175.9 262.9 176.2 264.65 176.9 265.05 177.1 265.7 177.45 266.55 178.1 266.95 178.4 267.7 179.0 267.95 179.25 268.45 179.7 268.7 180.1 268.7 180.5 268.6 181.1 268.45 181.85 268.3 183.15 268.3 183.75 268.3 183.85 268.45 185.15 Q268.6 185.8 269.3 186.3 L269.4 186.3 269.45 185.8 269.65 184.05 269.85 182.75 269.95 182.45 270.5 181.25 270.6 181.1 271.5 181.2 271.7 181.3 271.8 181.4 272.9 181.95 273.2 181.95 273.4 181.8 273.6 181.3 273.55 181.15 272.35 180.0 272.05 179.75 271.85 179.65 271.5 179.35 Q271.05 179.15 271.35 178.85 L272.0 178.4 272.2 178.4 272.05 178.1 271.65 177.85 270.6 177.5 270.35 177.4 270.15 177.2 Q269.25 175.85 267.75 175.0 L267.8 174.85 275.6 175.8 277.8 179.7 284.95 180.6 285.25 180.25 286.15 179.1 286.2 179.1 286.25 179.15 285.8 182.65 Q285.45 184.75 285.8 186.85 L286.45 188.9 286.65 190.15 285.8 191.0 285.45 191.0 284.95 191.35 283.9 191.75 Q282.95 192.6 281.5 193.05 L278.7 193.95 278.3 194.25 Q277.9 195.45 278.05 196.95 278.3 199.5 280.3 201.05 L281.2 201.7 Q279.5 201.9 278.2 202.9 L278.15 202.95 277.85 203.25 Q277.45 205.65 277.35 208.05 L277.25 208.95 277.35 209.25 275.65 210.55 275.85 210.8 276.3 211.2 276.4 211.65 276.25 212.05 276.85 213.65 274.05 212.85 274.05 212.9 273.6 212.8 268.55 211.45 268.7 211.3 M262.4 176.75 L262.0 175.9 262.4 176.75 M271.5 188.25 L271.4 189.0 271.5 188.25 M285.25 180.25 L286.2 179.1 285.25 180.25 M275.0 211.1 Q274.9 211.55 275.4 211.65 L275.75 211.35 275.3 210.9 Q275.1 210.9 275.0 211.1" fill="#605844" fill-rule="evenodd" stroke="none"/>
    <path d="M275.85 193.25 L273.9 195.2 273.85 195.2 270.5 191.0 271.35 189.55 271.4 189.0 271.35 189.55 270.5 191.0 Q270.2 190.7 271.35 189.55 L269.25 191.35 271.5 188.25 271.35 189.0 271.4 189.0 271.9 188.6 271.95 188.65 271.95 188.85 Q271.9 189.2 272.15 189.45 L272.35 189.65 273.1 190.4 Q273.85 191.45 275.1 191.95 L275.55 192.1 275.7 192.15 275.85 192.65 275.85 193.25 273.85 195.2 275.85 193.25" fill="#3a3025" fill-rule="evenodd" stroke="none"/>
    <path d="M273.9 195.2 L273.1 195.95 262.95 205.65 253.55 219.4 250.95 221.7 248.65 221.55 247.15 219.55 251.85 217.8 260.95 207.35 258.1 209.6 Q254.4 211.35 251.55 213.8 252.65 212.05 254.2 210.5 257.7 207.05 261.85 204.0 L261.85 204.15 261.95 204.1 271.5 194.3 269.25 191.35 271.35 189.55 Q270.2 190.7 270.5 191.0 L273.85 195.2 273.9 195.2 M273.1 195.95 L273.85 195.2 273.1 195.95" fill="#494434" fill-rule="evenodd" stroke="none"/>
    <path d="M276.0 193.1 L275.85 193.25 276.0 193.1 275.85 193.25 275.85 192.65 276.0 193.1" fill="#5a4e39" fill-rule="evenodd" stroke="none"/>
    <path d="M299.45 179.5 L298.0 176.1 296.25 173.95 297.95 172.25 298.0 172.25 302.9 171.15 303.15 171.05 303.0 171.2 299.6 174.35 301.2 176.5 302.15 179.2 299.45 179.5 M277.35 209.25 L279.25 207.85 279.5 205.1 285.3 201.15 280.35 200.55 278.45 195.1 290.15 191.0 287.4 184.3 288.05 178.55 291.05 183.65 294.15 183.4 294.7 184.85 295.1 186.25 294.45 187.4 Q294.4 187.85 294.75 188.25 L295.2 188.7 295.5 189.6 295.4 191.85 296.8 192.35 297.55 193.15 297.45 195.9 Q295.4 194.7 292.4 194.75 L292.5 198.7 Q290.8 199.15 288.95 198.65 L287.8 197.8 Q288.6 200.05 290.7 201.8 L284.75 205.65 284.45 213.55 284.25 213.6 280.0 213.9 277.25 213.75 276.85 213.65 276.25 212.05 276.4 211.65 276.3 211.2 275.85 210.8 275.65 210.55 277.35 209.25 M282.6 210.2 L281.0 210.25 Q280.45 210.9 280.65 211.85 280.75 212.3 281.3 212.35 L281.75 212.35 Q282.55 212.2 282.7 211.4 L282.85 210.9 Q283.0 210.45 282.6 210.2" fill="#aea38c" fill-rule="evenodd" stroke="none"/>
    <path d="M306.65 176.7 Q308.0 179.85 308.3 183.45 L308.35 183.75 308.15 183.85 303.45 186.2 Q303.25 182.6 302.15 179.2 L306.45 176.8 306.65 176.7 M308.05 191.85 Q307.4 196.25 305.6 200.6 L304.4 203.2 304.35 203.15 300.65 200.0 Q302.45 196.75 303.05 193.15 L303.35 190.7 307.9 191.8 307.9 191.85 Q307.25 196.25 305.5 200.6 L304.35 203.15 305.5 200.6 Q307.25 196.25 307.9 191.85 L307.9 191.8 308.05 191.85 M291.65 216.9 L290.15 217.85 283.55 219.2 284.2 213.65 284.4 213.65 284.45 213.65 284.45 213.7 291.65 216.9 M306.45 176.8 Q307.8 179.9 308.1 183.45 L308.15 183.75 308.15 183.85 308.15 183.75 308.1 183.45 Q307.8 179.9 306.45 176.8" fill="#eeece8" fill-rule="evenodd" stroke="none"/>
    <path d="M298.85 200.3 Q300.65 196.85 301.0 192.9 L301.2 190.15 Q301.25 184.65 299.45 179.5 L302.15 179.2 Q303.25 182.6 303.45 186.2 L303.35 190.7 303.05 193.15 Q302.45 196.75 300.65 200.0 L299.9 201.35 299.45 201.95 301.95 203.0 297.9 208.4 294.0 208.7 289.3 212.7 288.75 212.85 288.75 212.7 293.15 208.6 297.0 208.3 300.6 202.85 298.1 201.8 298.45 201.15 298.85 200.3" fill="#bbb19f" fill-rule="evenodd" stroke="none"/>
    <path d="M261.95 204.1 L261.85 204.15 261.85 204.0 261.95 204.1" fill="#9c8c73" fill-rule="evenodd" stroke="none"/>
    <path d="M274.05 212.9 L274.05 212.85 274.05 212.9" fill="#ffffff" fill-rule="evenodd" stroke="none"/>
    <path d="M297.9 211.75 L291.65 216.9 290.15 217.85 283.55 219.2 283.5 219.2 283.45 219.2 Q278.1 220.3 269.45 217.2 L268.55 216.15 M268.4 216.15 L266.15 213.8 268.4 211.65 268.7 211.3 270.95 209.15 275.3 199.55 276.0 193.1 275.85 193.25 273.85 195.2 273.1 195.95 262.95 205.65 253.55 219.4 250.95 221.7 248.65 221.55 247.15 219.55 247.6 215.5 251.25 210.05 252.45 208.6 259.0 203.6 271.5 188.25 268.2 187.9 262.4 176.75 262.0 175.9 261.5 174.95 261.0 174.05 267.25 174.8 267.75 175.0 267.8 174.85 275.6 175.8 277.8 179.7 284.95 180.6 285.25 180.25 286.2 179.1 286.25 179.0 288.25 176.55 288.9 175.75 289.55 174.95 289.55 174.55 289.65 173.75 290.05 170.3 M294.3 166.35 L294.05 166.15 293.25 170.75 M294.65 175.4 L294.75 175.5 294.7 175.55 294.65 175.4 M269.3 186.3 L269.4 186.3 269.3 186.3 M271.4 189.0 L271.35 189.55 270.5 191.0 M271.4 189.0 L271.5 188.25 M306.45 176.8 L306.4 176.7 305.3 174.55 303.0 171.2 M308.15 183.85 L308.15 183.75 308.1 183.45 Q307.8 179.9 306.45 176.8 M307.9 191.8 Q308.45 187.85 308.15 183.85 M304.35 203.15 L305.5 200.6 Q307.25 196.25 307.9 191.85 L307.9 191.8 M294.3 166.35 L302.9 171.15 M297.9 211.75 L299.2 210.4 Q302.3 207.1 304.3 203.2 L304.35 203.15" fill="none" stroke="#000000" stroke-linecap="round" stroke-linejoin="round" stroke-opacity="0.5019608" stroke-width="1.0"/>
    <path d="M285.25 175.9 Q286.0 178.5 285.8 180.05 L278.05 181.4 275.45 179.55 277.55 176.95 277.7 176.95 277.7 176.8 Q277.35 175.35 277.9 174.45 277.75 175.9 278.8 176.65 L279.85 176.4 280.7 175.25 Q281.5 173.1 280.75 171.1 281.85 172.7 282.45 174.9 L282.3 175.75 282.45 176.3 282.7 175.65 282.85 175.65 282.75 175.55 284.1 172.25 Q283.4 174.95 284.2 177.3 L285.0 178.35 285.25 175.9 M276.95 182.05 L274.7 183.55 273.05 182.5 274.5 179.75 Q273.85 181.35 276.95 182.05" fill="#008040" fill-rule="evenodd" stroke="none"/>
    <path d="M301.95 235.15 Q290.25 248.35 276.75 248.15 263.3 247.95 246.5 230.45 229.7 212.9 232.15 196.5 234.6 180.1 249.4 168.75 264.15 157.35 279.8 153.55 295.4 149.6 308.15 165.95 320.95 182.2 317.3 202.1 313.7 221.95 301.95 235.15 M300.1 227.95 Q310.7 216.8 314.05 200.15 317.25 183.45 305.75 169.75 294.25 156.1 280.2 159.3 266.1 162.55 252.8 172.1 239.45 181.65 237.2 195.45 235.05 209.25 250.2 224.0 265.3 238.7 277.4 238.9 289.55 239.05 300.1 227.95" fill="#b97917" fill-opacity="0.6" fill-rule="evenodd" stroke="none"/>
    <path d="M301.95 235.15 Q290.25 248.35 276.75 248.15 263.3 247.95 246.5 230.45 229.7 212.9 232.15 196.5 234.6 180.1 249.4 168.75 264.15 157.35 279.8 153.55 295.4 149.6 308.15 165.95 320.95 182.2 317.3 202.1 313.7 221.95 301.95 235.15 Z" fill="none" stroke="#8b5c1d" stroke-linecap="round" stroke-linejoin="round" stroke-width="0.7000000000000001"/>
    <path d="M300.1 227.95 Q289.55 239.05 277.4 238.9 265.3 238.7 250.2 224.0 235.05 209.25 237.2 195.45 239.45 181.65 252.8 172.1 266.1 162.55 280.2 159.3 294.25 156.1 305.75 169.75 317.25 183.45 314.05 200.15 310.7 216.8 300.1 227.95" fill="#ffa611" fill-opacity="0.6" fill-rule="evenodd" stroke="none"/>
    <path d="M264.45 181.1 Q263.2 181.8 261.75 183.5 260.75 184.75 260.55 184.45 260.1 183.7 260.35 182.25 260.6 180.45 261.8 179.55 264.75 177.35 268.9 175.75 273.15 174.1 277.1 173.6 278.75 173.45 280.95 174.45 282.9 175.35 283.3 176.1 283.95 177.25 281.05 177.6 L276.95 177.7 271.85 178.15 Q269.55 178.65 267.65 179.5 L264.45 181.1" fill="#ffffff" fill-opacity="0.4" fill-rule="evenodd" stroke="none"/>
    <path d="M297.5 232.2 Q290.25 240.5 282.7 244.7 279.7 246.45 274.5 244.65 270.05 242.95 268.65 241.0 266.55 237.8 272.1 234.6 272.9 234.1 280.05 231.6 286.15 229.45 289.8 226.7 294.1 223.45 297.15 219.5 L302.3 211.95 Q304.35 209.05 305.85 202.6 307.05 197.8 307.65 198.75 309.1 200.9 309.75 205.7 310.5 211.55 308.75 215.2 304.5 224.4 297.5 232.2" fill="#8b5c1d" fill-opacity="0.6" fill-rule="evenodd" stroke="none"/>
    <path d="M248.95 184.85 Q245.85 187.4 242.75 193.6 240.4 198.15 239.85 197.1 238.5 194.75 238.6 189.9 238.75 184.0 241.7 180.65 248.7 172.25 258.8 165.6 269.35 158.55 279.45 155.55 283.5 154.25 289.55 156.9 294.75 159.25 296.0 161.45 298.0 164.95 290.55 167.2 L280.15 168.9 Q272.2 170.15 267.2 172.25 261.3 174.75 256.75 178.25 256.2 178.6 248.95 184.85" fill="#ffffff" fill-opacity="0.4" fill-rule="evenodd" stroke="none"/>
  </g>
</svg>
