<?xml version="1.0" encoding="UTF-8" standalone="no"?>
<svg xmlns:xlink="http://www.w3.org/1999/xlink" height="187.5px" width="128.8px" xmlns="http://www.w3.org/2000/svg">
  <g transform="matrix(1.0, 0.0, 0.0, 1.0, 60.9, 89.1)">
    <path d="M24.05 -83.05 L23.8 -83.0 Q28.4 -81.85 35.1 -82.0 L27.85 -78.75 27.1 -78.4 Q23.3 -76.65 20.6 -75.05 L20.25 -74.85 31.15 -73.45 37.4 -71.9 38.75 -71.2 40.6 -70.2 42.5 -69.0 43.15 -68.6 44.8 -67.45 46.6 -65.85 46.75 -65.7 48.05 -64.05 Q49.45 -61.85 53.75 -59.1 L45.85 -61.05 45.05 -61.25 44.85 -61.3 Q49.85 -57.1 58.25 -53.35 L47.25 -53.65 46.1 -53.65 39.6 -53.55 36.0 -53.35 27.55 -52.65 31.4 -49.5 35.3 -45.75 36.05 -45.05 36.9 -43.8 37.95 -42.0 39.05 -40.0 39.4 -39.35 40.25 -37.5 41.05 -35.0 41.4 -32.95 Q41.45 -30.3 43.8 -25.8 L38.0 -31.45 37.35 -32.0 37.25 -32.15 37.5 -31.5 37.9 -31.1 37.6 -31.15 38.35 -29.4 40.75 -28.5 40.05 -26.1 Q42.0 -22.55 44.9 -18.55 L43.5 -19.45 45.2 -16.3 46.65 -16.7 53.55 -6.65 55.15 -4.25 62.1 6.65 63.0 8.15 Q66.85 14.6 66.35 14.9 L64.0 17.1 62.55 18.1 Q60.7 19.05 57.75 19.5 L54.5 13.3 Q51.9 8.0 48.35 -0.2 L47.1 -3.0 42.3 -14.35 43.25 -15.25 39.75 -21.8 36.75 -23.65 37.15 -19.4 37.25 -14.1 37.2 -12.1 39.0 -9.35 37.1 -10.35 37.0 -9.4 36.7 -6.65 37.0 -6.45 37.5 -8.45 41.7 -5.25 40.7 -2.35 45.2 11.15 46.7 11.15 52.9 25.7 54.35 29.1 54.35 29.15 60.5 44.7 61.3 46.85 61.3 46.9 Q64.65 56.05 64.1 56.25 L61.5 58.25 59.95 59.0 54.85 59.3 Q53.7 56.0 52.1 50.6 L48.55 37.95 47.7 38.15 Q45.7 38.5 42.75 38.1 L41.0 32.1 Q39.7 27.0 38.1 19.2 L37.5 16.55 35.4 5.8 Q35.95 5.5 36.55 5.3 L35.55 2.05 33.75 13.75 34.65 14.75 33.15 17.45 35.05 31.55 36.6 31.8 40.0 47.25 40.75 50.85 44.0 67.3 44.4 69.6 Q46.0 79.2 45.45 79.3 L42.5 80.8 40.8 81.25 Q38.75 81.55 35.8 80.6 35.2 77.2 34.65 71.6 33.85 64.0 33.0 52.4 L32.7 48.45 31.65 32.45 Q32.25 32.05 32.9 31.85 L31.8 23.85 Q29.9 32.55 27.7 38.8 L29.05 39.2 30.8 54.9 31.2 58.55 31.2 58.6 32.7 75.25 32.85 77.55 32.85 77.6 Q33.45 87.3 32.85 87.35 31.15 88.15 29.8 88.55 L28.05 88.8 27.0 88.75 26.15 88.9 21.15 88.5 Q20.6 85.6 20.1 80.85 L18.7 64.6 18.5 61.25 18.0 53.7 Q14.85 55.3 11.3 53.75 L12.05 63.05 12.35 66.75 12.35 66.8 13.4 83.5 13.45 85.8 Q13.8 95.55 13.2 95.55 11.5 96.35 10.15 96.65 L8.4 96.9 Q6.3 96.85 3.5 95.55 L3.5 95.0 Q1.6 95.05 -0.9 94.2 L-2.25 84.25 -3.15 75.75 -4.7 76.15 Q-6.75 76.5 -9.7 75.65 L-11.2 66.45 -13.6 46.8 -14.05 42.75 -15.75 26.4 -14.5 25.7 -16.95 11.5 -19.2 9.55 -18.15 6.85 -18.6 5.55 -19.05 4.15 -19.1 4.15 -19.1 4.05 -19.4 3.15 Q-20.45 -1.35 -21.65 -5.55 L-22.0 2.25 -20.55 2.7 -19.85 14.8 -19.7 17.65 -19.35 30.5 -19.35 32.25 -19.35 32.3 Q-19.4 39.75 -20.0 39.75 L-23.15 40.45 -24.9 40.5 Q-27.0 40.4 -29.75 39.25 L-29.3 32.3 -27.65 17.6 -27.25 14.6 -25.55 2.45 -24.2 2.15 -23.65 -8.65 -25.5 -10.45 -23.75 -12.35 Q-26.6 -20.8 -30.15 -27.9 L-30.1 -27.95 -30.25 -28.1 -30.5 -28.35 -30.5 -28.25 -30.55 -27.75 -30.8 -23.05 Q-32.9 -26.0 -35.45 -27.25 L-37.2 -28.35 -38.85 -29.8 -39.85 -31.0 -40.15 -31.4 -41.1 -32.75 -41.8 -34.0 -42.2 -34.85 -42.0 -38.6 Q-42.0 -40.05 -40.35 -43.8 L-40.1 -44.4 -40.65 -44.2 -41.75 -43.8 -46.8 -42.05 -49.75 -40.9 -50.05 -40.8 -53.15 -39.4 Q-51.65 -41.15 -51.25 -42.55 L-50.9 -43.55 -50.25 -44.7 -49.65 -45.45 -49.45 -45.7 -48.75 -46.5 -48.1 -47.15 -47.6 -47.6 -45.75 -48.4 -50.45 -50.45 -51.6 -50.9 -54.45 -51.75 -54.9 -51.9 -59.4 -52.85 Q-55.05 -54.55 -52.0 -56.95 L-52.2 -56.9 -52.6 -56.85 -56.2 -56.4 Q-53.85 -57.8 -52.75 -59.15 L-51.85 -60.15 -50.6 -61.1 -49.65 -61.75 -49.35 -61.95 -48.25 -62.55 -47.3 -63.05 -46.6 -63.35 -43.7 -63.7 -40.65 -63.65 -38.9 -65.5 -38.75 -65.65 -37.85 -68.75 -31.7 -71.4 -29.75 -71.15 -29.3 -70.3 Q-22.2 -72.55 -12.9 -71.8 -4.45 -79.65 -1.0 -81.1 L0.05 -81.55 Q-1.4 -81.55 -1.25 -81.95 L-1.5 -82.15 -1.75 -82.05 Q8.45 -86.15 11.25 -86.65 L15.8 -87.6 16.9 -87.6 18.35 -87.5 20.0 -87.3 20.55 -87.25 22.0 -87.0 23.8 -86.45 25.15 -85.8 Q26.75 -84.8 30.4 -84.35 L24.65 -83.2 24.05 -83.05 M-6.15 -70.9 L-0.8 -72.35 -6.75 -71.0 -6.15 -70.9 M-9.85 -68.65 L-8.9 -68.95 Q-18.25 -70.15 -27.9 -67.9 L-30.05 -65.1 -34.05 -63.15 -37.1 -63.9 -37.2 -63.8 -37.6 -63.3 -35.6 -63.05 -35.75 -63.0 -35.9 -62.8 Q-35.85 -62.45 -36.85 -62.0 L-36.15 -61.9 Q-34.9 -61.65 -32.65 -59.85 L-28.4 -55.9 -28.6 -55.95 -29.1 -55.55 Q-29.75 -54.4 -33.1 -54.2 L-32.65 -54.2 -36.8 -53.75 Q-29.05 -54.3 -32.35 -53.05 -32.8 -51.95 -33.4 -51.0 -29.7 -54.15 -20.25 -59.55 L-20.45 -59.3 Q-19.8 -58.55 -19.75 -58.7 -17.45 -58.0 -18.2 -53.6 L-18.1 -54.2 -18.65 -48.75 Q-17.0 -58.95 -15.6 -54.7 -13.45 -54.3 -11.7 -53.55 L-10.0 -55.1 Q-10.3 -60.45 -7.15 -50.45 L-7.0 -50.25 -8.15 -54.75 -7.9 -53.9 Q-9.75 -60.0 -8.4 -61.3 L-8.15 -62.25 -8.3 -62.6 -4.1 -59.25 Q-5.65 -61.95 3.8 -53.75 L3.8 -53.8 1.35 -56.15 0.05 -57.15 -0.45 -57.65 -0.65 -57.85 -1.1 -58.35 -1.2 -58.45 Q-5.15 -62.0 -5.65 -63.8 L-5.7 -64.6 Q-5.5 -64.45 -6.0 -65.65 L-6.45 -65.9 -0.45 -64.55 0.2 -64.4 0.15 -64.45 0.1 -64.45 -1.6 -64.85 -1.3 -64.8 Q-8.15 -66.2 -8.55 -67.95 L-9.35 -68.65 -9.85 -68.65 M1.0 -76.2 L1.65 -76.4 1.75 -76.45 1.85 -76.55 1.0 -76.2 M36.95 -6.25 L36.3 -3.45 36.55 -5.65 36.95 -6.25 M38.7 4.9 L40.15 5.0 43.0 11.55 38.7 -1.5 36.25 -3.0 38.65 4.9 38.7 4.9 M-10.95 25.55 L-13.1 21.05 -12.35 25.35 -10.95 25.55 M-5.75 34.45 L-4.9 40.5 Q-5.55 40.7 -6.1 41.15 L-5.8 45.45 -5.9 45.0 -6.8 41.3 -10.7 26.05 Q-8.6 30.15 -5.75 34.45 M-2.7 40.15 L-1.65 40.35 -2.95 38.55 -2.7 40.15 M0.5 43.2 Q3.1 47.0 5.6 49.55 L4.7 63.3 4.5 66.55 3.45 61.5 3.45 61.45 2.6 57.45 -1.0 41.2 0.5 43.2 M23.75 47.6 L23.0 48.75 23.6 51.1 23.75 47.6 M-37.75 -56.85 L-38.15 -56.85 -38.2 -56.85 -38.3 -56.9 -37.75 -56.85 M-25.65 -46.6 L-25.6 -46.65 -25.5 -47.2 -25.8 -46.45 -25.65 -46.6 M-35.6 -48.7 L-35.9 -48.1 -36.1 -48.45 -35.5 -48.85 -35.6 -48.7 M-43.3 -47.35 L-43.45 -47.25 -43.5 -47.25 -43.55 -47.2 -43.6 -47.2 -43.45 -47.25 -43.3 -47.35 -43.25 -47.35 -43.3 -47.35 Z" fill="none" stroke="#000000" stroke-linecap="round" stroke-linejoin="round" stroke-width="3.0"/>
    <path d="M5.1 -68.2 L2.25 -66.3 Q-12.5 -71.55 -27.9 -67.9 L-29.3 -70.3 Q-15.95 -74.5 5.1 -68.2 M-37.1 -63.9 L-37.2 -63.8 Q-42.95 -57.5 -33.0 -43.7 L-34.65 -42.2 -35.75 -42.8 Q-47.55 -58.35 -38.9 -65.5 L-38.75 -65.65 -37.4 -66.65 -37.35 -66.65 -35.85 -65.0 -37.1 -63.9" fill="#99997a" fill-rule="evenodd" stroke="none"/>
    <path d="M-26.6 -37.7 L-18.4 -33.5 Q-10.05 -29.45 -3.65 -27.45 13.6 -22.05 15.75 -32.05 16.1 -33.75 16.05 -35.9 L20.9 -51.8 Q23.65 -49.85 25.95 -47.45 34.4 -38.75 36.55 -25.0 37.3 -19.9 37.25 -14.1 L37.15 -10.8 30.85 -19.75 30.8 -20.25 25.25 -22.5 17.65 -25.55 20.5 -13.2 16.0 -15.9 16.0 -9.65 11.8 -13.55 9.55 -4.7 7.15 4.7 -2.1 -8.65 -8.95 -18.55 -11.35 -14.55 -11.3 -14.55 -14.0 -7.2 -18.6 5.55 -19.4 3.15 Q-23.55 -14.7 -30.15 -27.9 L-26.6 -37.7" fill="#38382c" fill-rule="evenodd" stroke="none"/>
    <path d="M-11.3 -14.55 L-11.35 -14.55 -8.95 -18.55 -2.1 -8.65 Q-6.4 -11.0 -11.3 -14.55 M9.55 -4.7 L11.8 -13.55 16.0 -9.65 16.0 -15.9 20.5 -13.2 17.65 -25.55 25.25 -22.5 Q24.35 -16.2 22.35 -12.1 18.25 -3.85 9.55 -4.7" fill="#686853" fill-rule="evenodd" stroke="none"/>
    <path d="M-27.9 -67.9 L-30.05 -65.1 -31.2 -64.55 -34.05 -63.15 -37.1 -63.9 -35.85 -65.0 -37.35 -66.65 -37.4 -66.65 -38.75 -65.65 -37.85 -68.75 -35.85 -69.6 -31.7 -71.4 -29.75 -71.15 -29.3 -70.3 -27.9 -67.9 M-11.3 -14.55 Q-6.4 -11.0 -2.1 -8.65 L7.15 4.7 9.55 -4.7 Q18.25 -3.85 22.35 -12.1 24.35 -16.2 25.25 -22.5 L30.8 -20.25 30.85 -19.75 Q31.9 12.7 20.25 17.05 L19.8 17.2 Q17.35 17.7 14.6 17.15 3.0 14.7 -14.0 -7.2 L-11.3 -14.55 M-31.2 -64.55 L-31.1 -66.2 -32.7 -65.4 -33.25 -66.9 -31.35 -68.25 -32.55 -69.75 -34.65 -68.75 -35.85 -69.6 -34.65 -68.75 -32.55 -69.75 -31.35 -68.25 -33.25 -66.9 -32.7 -65.4 -31.1 -66.2 -31.2 -64.55 M-35.15 -64.15 L-35.85 -65.0 -35.15 -64.15" fill="#575745" fill-rule="evenodd" stroke="none"/>
    <path d="M30.85 -19.75 L37.15 -10.8 Q26.95 81.7 0.5 43.2 -10.55 28.9 -14.9 16.4 L-15.0 16.15 -18.6 5.55 -14.0 -7.2 Q3.0 14.7 14.6 17.15 17.35 17.7 19.8 17.2 L20.25 17.05 Q31.9 12.7 30.85 -19.75" fill="#3b3b2f" fill-rule="evenodd" stroke="none"/>
    <path d="M6.2 -64.7 L2.25 -66.3 -1.05 -64.15 M5.1 -68.2 L2.25 -66.3 Q-12.5 -71.55 -27.9 -67.9 L-30.05 -65.1 -31.2 -64.55 -34.05 -63.15 -37.1 -63.9 -37.2 -63.8 Q-42.95 -57.5 -33.0 -43.7 L-27.05 -49.35 M9.0 -66.95 L5.3 -68.1 5.1 -68.2 Q-15.95 -74.5 -29.3 -70.3 L-27.9 -67.9 M-38.75 -65.65 L-37.85 -68.75 -35.85 -69.6 -31.7 -71.4 -29.75 -71.15 -29.3 -70.3 M-35.85 -69.6 L-34.65 -68.75 -32.55 -69.75 -31.35 -68.25 -33.25 -66.9 -32.7 -65.4 -31.1 -66.2 -31.2 -64.55 M-38.75 -65.65 L-38.9 -65.5 Q-47.55 -58.35 -35.75 -42.8 M-34.65 -42.2 L-33.0 -43.7 -31.8 -42.05 M-37.1 -63.9 L-35.85 -65.0 -37.35 -66.65 -37.4 -66.65 -38.75 -65.65 M-35.85 -65.0 L-35.15 -64.15 M-37.25 -39.8 L-34.65 -42.2" fill="none" stroke="#000000" stroke-linecap="round" stroke-linejoin="round" stroke-opacity="0.28235295" stroke-width="1.0"/>
    <path d="M-26.6 -37.7 L-18.4 -33.5 Q-10.05 -29.45 -3.65 -27.45 13.6 -22.05 15.75 -32.05 16.1 -33.75 16.05 -35.9 M20.9 -51.8 L20.9 -51.85 Q11.3 -58.8 -3.85 -61.35 M37.15 -10.8 L37.25 -14.1 Q37.3 -19.9 36.55 -25.0 34.4 -38.75 25.95 -47.45 23.65 -49.85 20.9 -51.8 M-18.6 5.55 L-15.0 16.15 -14.9 16.4 Q-10.55 28.9 0.5 43.2 26.95 81.7 37.15 -10.8 M-30.15 -27.9 Q-23.55 -14.7 -19.4 3.15 L-18.6 5.55 M-35.75 -42.8 L-34.65 -42.2 Q-30.45 -39.8 -26.6 -37.7 M-35.75 -42.8 L-43.85 -47.65 Q-40.35 -44.1 -37.25 -39.8 -33.4 -34.45 -30.15 -27.9" fill="none" stroke="#000000" stroke-linecap="round" stroke-linejoin="round" stroke-opacity="0.4" stroke-width="1.0"/>
    <path d="M16.05 -35.9 L20.9 -51.8 M-11.3 -14.55 L-14.0 -7.2 -18.6 5.55" fill="none" stroke="#3d3928" stroke-linecap="round" stroke-linejoin="round" stroke-opacity="0.5019608" stroke-width="0.05"/>
  </g>
</svg>
