<?xml version="1.0" encoding="UTF-8" standalone="no"?>
<svg xmlns:xlink="http://www.w3.org/1999/xlink" height="130.0px" width="170.95px" xmlns="http://www.w3.org/2000/svg">
  <g transform="matrix(1.0, 0.0, 0.0, 1.0, 85.45, 65.0)">
    <path d="M3.6 -48.0 Q2.6 -48.0 2.6 -47.05 2.6 -45.85 4.55 -45.8 5.55 -45.85 5.55 -46.8 5.55 -48.0 3.6 -48.0 M10.65 -47.4 Q9.6 -47.4 8.95 -46.55 8.5 -45.9 8.5 -45.25 8.5 -43.3 10.45 -43.3 11.4 -43.3 12.05 -44.15 L12.6 -45.45 Q12.45 -47.4 10.65 -47.4 M-36.3 -27.35 Q-32.6 -35.25 -33.25 -45.0 -30.85 -44.35 -29.1 -42.75 L-25.7 -39.75 Q-23.8 -38.25 -21.5 -38.75 L-12.2 -64.5 Q-2.8 -56.75 8.7 -52.7 L8.4 -55.0 Q7.75 -57.7 6.0 -59.75 28.5 -38.0 55.8 -47.55 54.4 -44.6 54.15 -41.3 51.55 -9.15 80.5 8.45 51.45 17.1 38.5 49.35 L35.85 55.3 Q32.55 43.85 25.5 37.55 25.25 38.05 24.45 38.05 23.7 38.05 23.4 37.55 L23.2 36.9 Q23.2 36.2 23.55 35.95 12.7 27.85 -5.95 30.3 L-5.95 30.6 Q-5.95 31.85 -7.15 31.85 -7.85 31.8 -8.15 31.2 L-8.3 30.65 -8.65 30.65 Q-17.85 32.2 -26.3 36.25 L-25.05 30.25 -28.85 31.85 Q-23.95 19.0 -31.25 11.4 L-31.35 11.6 Q-31.8 12.1 -32.45 12.15 -33.15 12.15 -33.4 11.6 L-33.65 10.95 -33.2 10.15 -32.9 9.8 Q-35.95 7.35 -40.5 5.55 -43.45 4.35 -46.4 3.55 L-46.35 3.15 Q-46.35 1.95 -47.5 2.0 -48.6 1.95 -48.7 2.9 -64.45 -0.9 -80.4 4.85 -69.85 -2.2 -58.5 -7.4 -53.05 -9.95 -48.75 -13.0 L-45.6 -11.6 Q-41.9 -9.9 -38.4 -10.7 L-38.95 -11.15 -46.2 -15.0 Q-44.9 -16.05 -43.7 -17.2 L-34.25 -12.25 -36.25 -13.85 -42.05 -18.85 Q-39.75 -21.45 -38.0 -24.25 L-24.9 -10.85 -23.55 -9.7 Q-27.4 -14.05 -30.7 -18.95 L-36.3 -27.35 M-10.85 -48.05 L-11.3 -46.75 -10.95 -45.55 Q-10.45 -44.5 -9.15 -44.45 -7.2 -44.5 -7.2 -46.5 -7.65 -48.8 -9.35 -48.75 -10.25 -48.8 -10.85 -48.05 M41.35 -28.05 Q41.5 -27.75 42.0 -27.75 42.8 -27.75 42.8 -28.5 42.75 -29.3 42.0 -29.3 41.25 -29.3 41.25 -28.5 L41.35 -28.05 M42.8 -29.8 L42.9 -29.3 Q43.1 -28.85 43.8 -28.8 44.55 -28.85 44.55 -29.6 44.6 -30.6 43.65 -30.6 42.8 -30.6 42.8 -29.8 M39.05 -24.95 Q39.95 -24.95 39.95 -26.25 39.95 -27.05 39.2 -27.05 38.65 -27.05 38.35 -26.45 L38.2 -25.9 38.25 -25.4 Q38.45 -25.0 39.05 -24.95 M38.05 -34.9 Q38.0 -35.7 37.2 -35.7 36.3 -35.7 36.3 -34.9 L36.4 -34.5 Q36.55 -34.1 37.2 -34.1 38.05 -34.15 38.05 -34.9 M15.25 -38.75 Q15.5 -38.2 16.3 -38.2 17.25 -38.2 17.3 -39.15 17.3 -40.35 16.1 -40.35 15.15 -40.35 15.15 -39.4 L15.25 -38.75 M-2.65 -48.05 Q-2.6 -47.0 -1.85 -46.3 -1.2 -45.75 -0.65 -46.0 -0.15 -46.3 -0.35 -47.1 -0.6 -48.1 -1.3 -48.95 -2.65 -48.5 -2.65 -48.05 M-23.4 3.45 L-23.35 3.8 -23.4 4.1 Q-23.4 5.1 -22.4 5.1 -21.4 5.1 -21.4 4.15 L-21.45 3.8 -21.4 3.5 Q-21.4 2.5 -22.4 2.5 -23.4 2.5 -23.4 3.45 M-28.7 -1.5 Q-28.4 -0.9 -27.6 -0.85 -26.5 -0.9 -26.5 -2.2 -26.5 -3.45 -27.6 -3.45 -28.85 -3.45 -28.85 -2.15 L-28.7 -1.5 M-30.75 -0.2 L-30.6 0.4 -29.55 1.0 Q-28.35 1.0 -28.35 -0.2 -28.35 -1.4 -29.55 -1.35 -30.75 -1.4 -30.75 -0.2 M-8.0 -8.35 Q-8.05 -9.65 -9.05 -9.6 -10.05 -9.65 -10.05 -8.4 L-9.95 -7.75 Q-9.75 -7.15 -9.05 -7.15 -8.05 -7.15 -8.0 -8.35 M-10.9 -22.4 Q-10.95 -23.6 -11.9 -23.6 -12.9 -23.6 -12.85 -22.45 L-12.8 -21.8 Q-12.6 -21.3 -11.9 -21.3 -10.9 -21.3 -10.9 -22.4 M-3.25 -51.55 L-3.2 -51.0 Q-2.95 -50.55 -2.2 -50.5 -1.15 -50.55 -1.15 -51.55 -1.1 -52.5 -2.2 -52.5 -3.3 -52.5 -3.25 -51.55 M-36.3 8.8 Q-34.9 8.8 -34.9 10.1 -34.9 11.35 -36.05 11.35 -37.05 11.35 -37.4 10.7 L-37.6 10.0 Q-37.6 8.8 -36.3 8.8 M-35.8 14.3 Q-35.85 13.1 -34.65 13.1 -33.45 13.1 -33.45 14.3 -33.45 15.5 -34.65 15.5 -35.4 15.5 -35.7 14.9 L-35.8 14.3 M-56.95 -2.1 L-56.8 -1.45 Q-56.5 -0.9 -55.8 -0.85 -54.6 -0.85 -54.55 -2.1 -54.6 -3.3 -55.8 -3.3 -57.0 -3.3 -56.95 -2.1 M-3.45 22.95 Q-3.55 21.9 -4.45 21.9 -4.85 21.9 -5.15 22.25 L-5.4 22.85 -5.3 23.4 Q-5.05 23.9 -4.45 23.9 -3.45 23.9 -3.45 22.95 M-15.55 4.8 Q-15.25 5.45 -14.4 5.45 -13.3 5.45 -13.3 4.25 -13.55 2.9 -14.6 2.9 -15.75 2.9 -15.7 4.1 L-15.55 4.8 M-15.55 10.85 Q-16.75 10.85 -16.75 12.15 L-16.55 12.85 -15.55 13.45 Q-14.35 13.4 -14.35 12.15 -14.35 10.85 -15.55 10.85 M-20.1 16.95 L-19.9 17.6 Q-19.65 18.2 -18.85 18.25 -17.75 18.2 -17.75 16.9 -17.75 15.65 -18.85 15.65 -20.1 15.65 -20.1 16.95 M-52.05 -4.45 L-51.05 -3.65 Q-48.65 -2.55 -46.0 -2.6 L-43.7 -2.95 Q-43.15 -3.1 -43.05 -3.6 -42.95 -4.0 -43.4 -4.25 -46.75 -6.3 -50.3 -7.05 -52.4 -7.35 -52.3 -5.3 L-52.05 -4.45 M32.3 32.9 Q32.25 33.9 33.55 33.9 34.9 33.9 34.9 32.95 34.9 31.95 33.55 31.95 32.25 31.95 32.3 32.9 M26.1 27.1 Q27.1 27.1 27.15 25.75 27.1 24.45 26.1 24.5 25.1 24.45 25.1 25.75 25.1 27.1 26.1 27.1 M30.3 16.25 Q30.25 15.2 29.3 15.2 28.7 15.2 28.3 15.7 28.0 16.05 28.0 16.35 L28.15 16.9 Q28.35 17.35 29.0 17.35 30.3 17.35 30.3 16.25 M10.4 10.9 Q9.4 10.9 9.4 11.9 9.4 12.9 10.4 12.95 11.4 12.9 11.4 11.9 11.3 10.9 10.4 10.9 M7.25 -1.3 Q7.2 -2.3 6.0 -2.3 4.8 -2.3 4.8 -1.3 L4.9 -0.8 Q5.15 -0.3 6.0 -0.3 7.25 -0.35 7.25 -1.3 M61.9 9.5 L62.0 10.05 Q62.25 10.5 63.1 10.5 63.85 10.45 63.85 9.7 63.85 8.7 62.7 8.7 61.9 8.7 61.9 9.5 M44.4 24.45 Q44.4 25.45 45.4 25.45 46.1 25.45 46.7 24.9 L47.3 24.05 Q47.2 23.0 46.3 23.0 45.6 23.0 44.95 23.55 44.4 24.05 44.4 24.45 M52.6 7.95 Q52.85 8.4 53.8 8.45 54.6 8.4 54.65 7.65 54.7 6.65 53.3 6.65 52.5 6.65 52.5 7.4 L52.6 7.95 M58.05 0.3 L58.15 0.75 Q58.35 1.05 58.9 1.05 59.65 1.05 59.65 0.3 59.7 -0.5 58.9 -0.5 58.05 -0.5 58.05 0.3 M55.85 -0.95 L56.1 -0.4 Q56.45 0.15 57.15 0.15 57.9 0.1 57.95 -0.65 57.75 -1.75 56.7 -1.75 55.85 -1.75 55.85 -0.95 M51.45 -3.15 Q51.7 -2.7 52.4 -2.65 53.35 -2.7 53.35 -3.65 53.3 -4.7 52.4 -4.7 51.4 -4.7 51.4 -3.7 L51.45 -3.15 M50.3 -1.1 L50.4 -0.7 51.1 -0.3 Q51.9 -0.35 51.95 -1.1 51.85 -1.95 51.1 -1.95 50.3 -1.95 50.3 -1.1 M41.7 3.05 Q42.7 3.0 42.75 2.05 42.65 1.05 41.7 1.05 40.7 1.05 40.7 2.05 40.7 3.05 41.7 3.05 M48.4 -8.95 Q49.2 -8.95 49.2 -9.75 49.0 -10.85 48.25 -10.85 47.45 -10.85 47.5 -10.05 L47.6 -9.45 Q47.85 -8.95 48.4 -8.95 M50.2 -18.75 Q50.35 -18.3 50.95 -18.25 51.7 -18.3 51.7 -19.3 51.75 -20.2 50.95 -20.2 50.15 -20.2 50.15 -19.3 L50.2 -18.75 M47.25 -15.75 Q48.25 -15.75 48.3 -16.7 47.85 -18.2 46.65 -18.2 45.65 -18.2 45.65 -17.2 L46.0 -16.45 Q46.5 -15.75 47.25 -15.75 M53.5 -9.6 Q52.5 -9.6 52.5 -8.6 L52.8 -7.75 Q53.2 -7.0 53.8 -6.95 54.75 -7.0 54.8 -8.0 54.5 -9.65 53.5 -9.6 M19.1 37.55 Q19.1 38.7 17.9 38.7 17.15 38.7 16.85 38.15 16.7 37.85 16.7 37.55 16.7 36.3 17.9 36.3 19.1 36.3 19.1 37.55" fill="#ebcab6" fill-rule="evenodd" stroke="none"/>
    <path d="M10.65 -47.4 Q12.45 -47.4 12.6 -45.45 L12.05 -44.15 Q11.4 -43.3 10.45 -43.3 8.5 -43.3 8.5 -45.25 8.5 -45.9 8.95 -46.55 9.6 -47.4 10.65 -47.4 M3.6 -48.0 Q5.55 -48.0 5.55 -46.8 5.55 -45.85 4.55 -45.8 2.6 -45.85 2.6 -47.05 2.6 -48.0 3.6 -48.0 M-80.4 4.85 Q-64.45 -0.9 -48.7 2.9 -48.6 1.95 -47.5 2.0 -46.35 1.95 -46.35 3.15 L-46.4 3.55 Q-43.45 4.35 -40.5 5.55 -35.95 7.35 -32.9 9.8 L-33.2 10.15 -33.65 10.95 -33.4 11.6 Q-33.15 12.15 -32.45 12.15 -31.8 12.1 -31.35 11.6 L-31.25 11.4 Q-23.95 19.0 -28.85 31.85 L-25.05 30.25 -26.3 36.25 Q-17.85 32.2 -8.65 30.65 L-8.3 30.65 -8.15 31.2 Q-7.85 31.8 -7.15 31.85 -5.95 31.85 -5.95 30.6 L-5.95 30.3 Q12.7 27.85 23.55 35.95 23.2 36.2 23.2 36.9 L23.4 37.55 Q23.7 38.05 24.45 38.05 25.25 38.05 25.5 37.55 32.55 43.85 35.85 55.3 L38.5 49.35 Q51.45 17.1 80.5 8.45 L84.5 12.3 84.45 12.7 Q80.05 11.7 76.45 13.55 46.25 28.7 33.75 64.5 L33.3 59.25 Q31.55 48.5 22.4 43.0 -8.05 24.8 -38.9 45.6 L-30.2 35.9 -36.3 34.85 -31.7 26.3 Q-32.5 23.1 -34.45 20.6 -52.6 -2.45 -84.95 8.2 L-80.4 4.85 M15.25 -38.75 L15.15 -39.4 Q15.15 -40.35 16.1 -40.35 17.3 -40.35 17.3 -39.15 17.25 -38.2 16.3 -38.2 15.5 -38.2 15.25 -38.75 M38.05 -34.9 Q38.05 -34.15 37.2 -34.1 36.55 -34.1 36.4 -34.5 L36.3 -34.9 Q36.3 -35.7 37.2 -35.7 38.0 -35.7 38.05 -34.9 M39.05 -24.95 Q38.45 -25.0 38.25 -25.4 L38.2 -25.9 38.35 -26.45 Q38.65 -27.05 39.2 -27.05 39.95 -27.05 39.95 -26.25 39.95 -24.95 39.05 -24.95 M42.8 -29.8 Q42.8 -30.6 43.65 -30.6 44.6 -30.6 44.55 -29.6 44.55 -28.85 43.8 -28.8 43.1 -28.85 42.9 -29.3 L42.8 -29.8 M41.35 -28.05 L41.25 -28.5 Q41.25 -29.3 42.0 -29.3 42.75 -29.3 42.8 -28.5 42.8 -27.75 42.0 -27.75 41.5 -27.75 41.35 -28.05 M-10.85 -48.05 Q-10.25 -48.8 -9.35 -48.75 -7.65 -48.8 -7.2 -46.5 -7.2 -44.5 -9.15 -44.45 -10.45 -44.5 -10.95 -45.55 L-11.3 -46.75 -10.85 -48.05 M-3.25 -51.55 Q-3.3 -52.5 -2.2 -52.5 -1.1 -52.5 -1.15 -51.55 -1.15 -50.55 -2.2 -50.5 -2.95 -50.55 -3.2 -51.0 L-3.25 -51.55 M-10.9 -22.4 Q-10.9 -21.3 -11.9 -21.3 -12.6 -21.3 -12.8 -21.8 L-12.85 -22.45 Q-12.9 -23.6 -11.9 -23.6 -10.95 -23.6 -10.9 -22.4 M-8.0 -8.35 Q-8.05 -7.15 -9.05 -7.15 -9.75 -7.15 -9.95 -7.75 L-10.05 -8.4 Q-10.05 -9.65 -9.05 -9.6 -8.05 -9.65 -8.0 -8.35 M-30.75 -0.2 Q-30.75 -1.4 -29.55 -1.35 -28.35 -1.4 -28.35 -0.2 -28.35 1.0 -29.55 1.0 L-30.6 0.4 -30.75 -0.2 M-28.7 -1.5 L-28.85 -2.15 Q-28.85 -3.45 -27.6 -3.45 -26.5 -3.45 -26.5 -2.2 -26.5 -0.9 -27.6 -0.85 -28.4 -0.9 -28.7 -1.5 M-23.4 3.45 Q-23.4 2.5 -22.4 2.5 -21.4 2.5 -21.4 3.5 L-21.45 3.8 -21.4 4.15 Q-21.4 5.1 -22.4 5.1 -23.4 5.1 -23.4 4.1 L-23.35 3.8 -23.4 3.45 M-35.8 14.3 L-35.7 14.9 Q-35.4 15.5 -34.65 15.5 -33.45 15.5 -33.45 14.3 -33.45 13.1 -34.65 13.1 -35.85 13.1 -35.8 14.3 M-36.3 8.8 Q-37.6 8.8 -37.6 10.0 L-37.4 10.7 Q-37.05 11.35 -36.05 11.35 -34.9 11.35 -34.9 10.1 -34.9 8.8 -36.3 8.8 M-20.1 16.95 Q-20.1 15.65 -18.85 15.65 -17.75 15.65 -17.75 16.9 -17.75 18.2 -18.85 18.25 -19.65 18.2 -19.9 17.6 L-20.1 16.95 M-15.55 10.85 Q-14.35 10.85 -14.35 12.15 -14.35 13.4 -15.55 13.45 L-16.55 12.85 -16.75 12.15 Q-16.75 10.85 -15.55 10.85 M-15.55 4.8 L-15.7 4.1 Q-15.75 2.9 -14.6 2.9 -13.55 2.9 -13.3 4.25 -13.3 5.45 -14.4 5.45 -15.25 5.45 -15.55 4.8 M-3.45 22.95 Q-3.45 23.9 -4.45 23.9 -5.05 23.9 -5.3 23.4 L-5.4 22.85 -5.15 22.25 Q-4.85 21.9 -4.45 21.9 -3.55 21.9 -3.45 22.95 M-56.95 -2.1 Q-57.0 -3.3 -55.8 -3.3 -54.6 -3.3 -54.55 -2.1 -54.6 -0.85 -55.8 -0.85 -56.5 -0.9 -56.8 -1.45 L-56.95 -2.1 M53.5 -9.6 Q54.5 -9.65 54.8 -8.0 54.75 -7.0 53.8 -6.95 53.2 -7.0 52.8 -7.75 L52.5 -8.6 Q52.5 -9.6 53.5 -9.6 M47.25 -15.75 Q46.5 -15.75 46.0 -16.45 L45.65 -17.2 Q45.65 -18.2 46.65 -18.2 47.85 -18.2 48.3 -16.7 48.25 -15.75 47.25 -15.75 M50.2 -18.75 L50.15 -19.3 Q50.15 -20.2 50.95 -20.2 51.75 -20.2 51.7 -19.3 51.7 -18.3 50.95 -18.25 50.35 -18.3 50.2 -18.75 M48.4 -8.95 Q47.85 -8.95 47.6 -9.45 L47.5 -10.05 Q47.45 -10.85 48.25 -10.85 49.0 -10.85 49.2 -9.75 49.2 -8.95 48.4 -8.95 M41.7 3.05 Q40.7 3.05 40.7 2.05 40.7 1.05 41.7 1.05 42.65 1.05 42.75 2.05 42.7 3.0 41.7 3.05 M50.3 -1.1 Q50.3 -1.95 51.1 -1.95 51.85 -1.95 51.95 -1.1 51.9 -0.35 51.1 -0.3 L50.4 -0.7 50.3 -1.1 M51.45 -3.15 L51.4 -3.7 Q51.4 -4.7 52.4 -4.7 53.3 -4.7 53.35 -3.65 53.35 -2.7 52.4 -2.65 51.7 -2.7 51.45 -3.15 M55.85 -0.95 Q55.85 -1.75 56.7 -1.75 57.75 -1.75 57.95 -0.65 57.9 0.1 57.15 0.15 56.45 0.15 56.1 -0.4 L55.85 -0.95 M58.05 0.3 Q58.05 -0.5 58.9 -0.5 59.7 -0.5 59.65 0.3 59.65 1.05 58.9 1.05 58.35 1.05 58.15 0.75 L58.05 0.3 M52.6 7.95 L52.5 7.4 Q52.5 6.65 53.3 6.65 54.7 6.65 54.65 7.65 54.6 8.4 53.8 8.45 52.85 8.4 52.6 7.95 M44.4 24.45 Q44.4 24.05 44.95 23.55 45.6 23.0 46.3 23.0 47.2 23.0 47.3 24.05 L46.7 24.9 Q46.1 25.45 45.4 25.45 44.4 25.45 44.4 24.45 M61.9 9.5 Q61.9 8.7 62.7 8.7 63.85 8.7 63.85 9.7 63.85 10.45 63.1 10.5 62.25 10.5 62.0 10.05 L61.9 9.5 M7.25 -1.3 Q7.25 -0.35 6.0 -0.3 5.15 -0.3 4.9 -0.8 L4.8 -1.3 Q4.8 -2.3 6.0 -2.3 7.2 -2.3 7.25 -1.3 M10.4 10.9 Q11.3 10.9 11.4 11.9 11.4 12.9 10.4 12.95 9.4 12.9 9.4 11.9 9.4 10.9 10.4 10.9 M30.3 16.25 Q30.3 17.35 29.0 17.35 28.35 17.35 28.15 16.9 L28.0 16.35 Q28.0 16.05 28.3 15.7 28.7 15.2 29.3 15.2 30.25 15.2 30.3 16.25 M26.1 27.1 Q25.1 27.1 25.1 25.75 25.1 24.45 26.1 24.5 27.1 24.45 27.15 25.75 27.1 27.1 26.1 27.1 M32.3 32.9 Q32.25 31.95 33.55 31.95 34.9 31.95 34.9 32.95 34.9 33.9 33.55 33.9 32.25 33.9 32.3 32.9 M19.1 37.55 Q19.1 36.3 17.9 36.3 16.7 36.3 16.7 37.55 16.7 37.85 16.85 38.15 17.15 38.7 17.9 38.7 19.1 38.7 19.1 37.55" fill="#deae87" fill-rule="evenodd" stroke="none"/>
    <path d="M80.5 8.45 Q51.55 -9.15 54.15 -41.3 54.4 -44.6 55.8 -47.55 28.5 -38.0 6.0 -59.75 7.75 -57.7 8.4 -55.0 L8.7 -52.7 Q-2.8 -56.75 -12.2 -64.5 L-21.5 -38.75 Q-23.8 -38.25 -25.7 -39.75 L-29.1 -42.75 Q-30.85 -44.35 -33.25 -45.0 -32.6 -35.25 -36.3 -27.35 M-38.0 -24.25 Q-39.75 -21.45 -42.05 -18.85 M-43.7 -17.2 Q-44.9 -16.05 -46.2 -15.0 M-48.75 -13.0 Q-53.05 -9.95 -58.5 -7.4 -69.85 -2.2 -80.4 4.85 L-84.95 8.2 Q-52.6 -2.45 -34.45 20.6 -32.5 23.1 -31.7 26.3 L-36.3 34.85 -30.2 35.9 -38.9 45.6 Q-8.05 24.8 22.4 43.0 31.55 48.5 33.3 59.25 L33.75 64.5 Q46.25 28.7 76.45 13.55 80.05 11.7 84.45 12.7 L85.0 12.85 84.5 12.3 80.5 8.45" fill="none" stroke="#000000" stroke-linecap="round" stroke-linejoin="round" stroke-opacity="0.4" stroke-width="1.0"/>
    <path d="M-36.3 -27.35 L-30.7 -18.95 Q-27.4 -14.05 -23.55 -9.7 L-24.9 -10.85 -38.0 -24.25 M-42.05 -18.85 L-36.25 -13.85 -34.25 -12.25 -43.7 -17.2 M-46.2 -15.0 L-38.95 -11.15 -38.4 -10.7 Q-41.9 -9.9 -45.6 -11.6 L-48.75 -13.0 M-2.65 -48.05 Q-2.6 -47.0 -1.85 -46.3 -1.2 -45.75 -0.65 -46.0 -0.15 -46.3 -0.35 -47.1 -0.6 -48.1 -1.3 -48.95 -2.65 -48.5 -2.65 -48.05 M-52.05 -4.45 L-52.3 -5.3 Q-52.4 -7.35 -50.3 -7.05 -46.75 -6.3 -43.4 -4.25 -42.95 -4.0 -43.05 -3.6 -43.15 -3.1 -43.7 -2.95 L-46.0 -2.6 Q-48.65 -2.55 -51.05 -3.65 L-52.05 -4.45 Z" fill="none" stroke="#000000" stroke-linecap="round" stroke-linejoin="round" stroke-opacity="0.4" stroke-width="1.0"/>
    <path d="M-10.55 -16.6 Q-6.4 -14.8 -2.5 -12.8 L4.05 -9.2 8.15 -6.75 9.4 -5.95 10.4 -8.45 11.4 -11.2 14.05 -19.55 16.1 -27.95 M25.95 6.95 L20.85 2.5 Q18.15 0.2 15.25 -1.9 L10.4 -5.3 9.4 -5.95 9.15 -5.3 7.65 -1.9 Q5.3 3.15 2.55 7.85 L-2.3 15.35" fill="none" stroke="#400000" stroke-linecap="round" stroke-linejoin="round" stroke-opacity="0.4" stroke-width="3.0"/>
  </g>
</svg>
