<?xml version="1.0" encoding="UTF-8" standalone="no"?>
<svg xmlns:xlink="http://www.w3.org/1999/xlink" height="38.75px" width="15.3px" xmlns="http://www.w3.org/2000/svg">
  <g transform="matrix(1.0, 0.0, 0.0, 1.0, -271.85, -180.25)">
    <path d="M275.75 218.9 L275.8 218.95 275.75 218.95 275.75 218.9" fill="#ffffff" fill-rule="evenodd" stroke="none"/>
    <path d="M281.7 180.25 Q282.75 181.55 283.1 183.1 L283.15 183.25 283.15 183.35 283.5 190.85 283.5 191.1 Q283.65 195.75 284.1 199.4 L284.1 199.55 Q284.45 205.5 285.4 208.4 L284.15 209.0 282.5 206.7 282.35 205.95 282.3 206.45 280.25 202.8 279.45 204.05 278.1 203.95 277.9 203.95 277.8 198.7 276.4 206.0 275.35 207.05 275.35 207.1 273.7 209.8 272.6 202.7 272.75 200.45 273.4 192.4 Q273.55 187.9 272.85 184.25 278.3 183.05 281.7 180.25 M280.65 192.85 L281.15 192.3 281.45 188.65 279.7 191.55 280.65 192.85 M282.3 195.5 L282.05 192.35 280.7 194.9 279.9 198.55 282.45 199.9 283.15 196.15 282.3 195.5 M273.6 197.75 L273.4 198.9 274.3 202.3 275.65 199.3 274.25 199.1 274.5 194.55 273.6 197.75 M281.45 201.75 L284.0 205.8 Q283.1 203.15 283.6 200.6 L281.45 201.75" fill="#5f5a32" fill-rule="evenodd" stroke="none"/>
    <path d="M285.4 208.4 Q285.95 210.25 287.15 212.25 L286.35 212.35 286.4 213.3 Q283.2 209.85 282.5 206.7 L284.15 209.0 285.4 208.4 M282.3 209.85 L280.95 208.55 281.15 207.55 280.05 208.2 279.1 210.9 280.8 211.4 281.65 213.4 280.8 213.7 280.15 213.3 279.6 214.1 280.0 214.1 279.35 215.7 278.3 209.1 278.65 209.35 278.5 208.2 278.15 207.7 277.95 204.15 277.9 203.95 278.1 203.95 279.45 204.05 280.25 202.8 282.3 206.45 Q282.15 208.3 282.3 209.85 M275.75 213.25 L274.45 214.7 275.0 216.15 275.55 216.65 275.55 216.85 275.0 218.15 Q272.25 215.25 271.9 211.4 L272.0 210.05 Q272.1 206.8 272.6 202.7 L273.7 209.8 275.35 207.1 275.35 207.05 276.4 206.0 276.4 206.1 275.75 212.8 275.75 213.25 M279.25 206.75 L281.25 207.05 280.5 204.1 279.25 206.75" fill="#87705f" fill-rule="evenodd" stroke="none"/>
    <path d="M286.4 213.3 L283.85 212.4 282.8 211.5 283.75 210.8 Q282.4 210.6 282.3 209.85 282.15 208.3 282.3 206.45 L282.35 205.95 282.5 206.7 Q283.2 209.85 286.4 213.3 M279.35 215.7 L277.9 215.1 278.0 214.7 275.95 213.0 275.75 213.25 275.75 212.8 276.4 206.1 Q277.35 204.4 277.95 204.15 L278.15 207.7 277.65 207.8 277.25 209.0 277.7 209.55 278.3 209.1 279.35 215.7" fill="#534531" fill-rule="evenodd" stroke="none"/>
    <path d="M277.9 203.95 L277.95 204.15 Q277.35 204.4 276.4 206.1 L276.4 206.0 277.8 198.7 277.9 203.95" fill="#2f2d1a" fill-rule="evenodd" stroke="none"/>
    <path d="M275.0 218.15 L275.75 218.9 275.75 218.95 Q273.3 219.15 271.85 217.95 L271.9 211.4 Q272.25 215.25 275.0 218.15" fill="#1f1e16" fill-rule="evenodd" stroke="none"/>
    <path d="M281.7 180.25 Q282.75 181.55 283.1 183.1 L283.15 183.25 283.15 183.35 283.5 190.85 283.5 191.1 Q283.65 195.75 284.1 199.4 L284.1 199.55 Q284.45 205.5 285.4 208.4 285.95 210.25 287.15 212.25 M275.0 218.15 L275.75 218.9 275.8 218.95 275.75 218.95 Q273.3 219.15 271.85 217.95 M275.0 218.15 Q272.25 215.25 271.9 211.4" fill="none" stroke="#7b6b53" stroke-linecap="round" stroke-linejoin="round" stroke-width="0.05"/>
  </g>
</svg>
