<?xml version="1.0" encoding="UTF-8" standalone="no"?>
<svg xmlns:xlink="http://www.w3.org/1999/xlink" height="3.35px" width="3.4px" xmlns="http://www.w3.org/2000/svg">
  <g transform="matrix(1.0, 0.0, 0.0, 1.0, -2.7, 4.5)">
    <path d="M2.8 -2.85 Q2.8 -3.5 3.3 -3.95 3.7 -4.4 4.4 -4.4 5.05 -4.4 5.5 -3.95 L6.0 -2.95 5.6 -2.65 Q5.05 -2.3 4.35 -2.3 3.6 -2.3 3.1 -2.65 L2.8 -2.85" fill="#fcfff1" fill-rule="evenodd" stroke="none"/>
    <path d="M2.8 -2.85 L3.1 -2.65 Q3.6 -2.3 4.35 -2.3 5.05 -2.3 5.6 -2.65 L6.0 -2.95 6.0 -2.8 Q5.95 -2.15 5.5 -1.7 5.05 -1.25 4.4 -1.25 3.7 -1.25 3.3 -1.7 2.8 -2.15 2.8 -2.8 L2.8 -2.85" fill="#e3f3ed" fill-rule="evenodd" stroke="none"/>
    <path d="M6.0 -2.95 L5.5 -3.95 Q5.05 -4.4 4.4 -4.4 3.7 -4.4 3.3 -3.95 2.8 -3.5 2.8 -2.85 L2.8 -2.8 Q2.8 -2.15 3.3 -1.7 3.7 -1.25 4.4 -1.25 5.05 -1.25 5.5 -1.7 5.95 -2.15 6.0 -2.8 L6.0 -2.95 Z" fill="none" stroke="#8dc7b5" stroke-linecap="round" stroke-linejoin="round" stroke-width="0.25"/>
  </g>
</svg>
