<?xml version="1.0" encoding="UTF-8" standalone="no"?>
<svg xmlns:xlink="http://www.w3.org/1999/xlink" height="198.15px" width="275.35px" xmlns="http://www.w3.org/2000/svg">
  <g transform="matrix(1.0, 0.0, 0.0, 1.0, -161.4, -113.1)">
    <path d="M181.8 169.35 Q141.0 237.8 193.1 235.6 361.75 235.85 405.9 262.2 411.25 266.0 413.45 269.6 446.2 254.5 427.4 239.05 398.25 223.65 347.95 225.0 303.3 226.6 269.95 217.15 M229.4 285.95 Q244.45 289.15 245.75 292.2 L246.7 290.25 Q261.35 263.05 360.6 278.6 388.8 279.6 413.45 269.6 429.05 295.1 283.7 308.6 249.95 309.8 245.55 299.9 244.05 296.65 245.75 292.2 L240.3 296.45 242.95 296.4 Q243.5 296.45 243.9 296.85 M245.75 292.2 L246.4 292.7 Q247.4 294.75 250.3 297.6 L246.7 290.25 M245.55 299.9 L250.3 297.6 M212.35 299.55 L240.3 296.45" fill="none" stroke="#3f3601" stroke-linecap="round" stroke-linejoin="round" stroke-width="5.0"/>
    <path d="M330.45 160.4 Q340.8 155.6 350.5 147.9 L352.15 165.75 330.45 160.4" fill="#9b8020" fill-rule="evenodd" stroke="none"/>
    <path d="M353.85 140.3 L356.5 168.6 Q333.55 177.5 315.05 192.65 L312.65 167.25 319.25 158.25 Q336.8 152.1 353.85 140.3 M352.15 165.75 L350.5 147.9 Q340.8 155.6 330.45 160.4 323.6 163.55 316.4 165.45 L318.05 183.0 Q335.4 171.3 352.15 165.75 M211.65 174.65 Q212.2 169.9 215.0 166.7 216.9 164.55 219.3 163.75 L225.7 163.55 Q230.5 164.6 234.55 168.45 L237.45 171.65 Q242.55 178.35 243.3 186.4 244.05 194.4 240.0 199.0 235.85 203.65 229.3 202.2 222.7 200.75 217.55 194.05 215.95 191.95 214.75 189.75 212.15 184.85 211.65 179.4 211.4 176.85 211.65 174.65 M217.65 170.45 Q214.45 174.1 215.0 180.35 215.45 185.05 217.85 189.2 L219.6 191.75 Q223.6 196.95 228.75 198.1 233.85 199.25 237.05 195.6 240.25 192.0 239.65 185.8 239.05 179.55 235.05 174.35 L233.65 172.65 Q230.15 168.9 225.95 168.0 220.8 166.85 217.65 170.45" fill="#ba9927" fill-rule="evenodd" stroke="none"/>
    <path d="M192.2 181.7 L191.35 181.0 Q188.0 178.0 184.9 174.05 182.5 171.0 180.6 167.75 175.4 158.95 173.85 148.95 L173.45 145.65 173.45 145.4 Q172.05 129.9 179.95 120.7 187.85 111.4 200.6 113.85 213.35 116.3 223.35 129.1 L225.55 132.1 Q218.85 135.15 212.2 137.7 207.55 131.95 202.0 129.7 200.2 129.0 198.3 128.65 190.4 127.1 185.45 132.85 180.8 138.3 181.3 147.2 L181.4 148.45 181.65 150.7 Q183.0 159.15 188.55 166.15 L191.25 169.25 Q191.15 172.55 191.45 176.15 L192.2 181.7" fill="url(#gradient0)" fill-rule="evenodd" stroke="none"/>
    <path d="M225.55 132.1 Q236.1 127.1 246.55 120.75 L353.85 140.3 Q336.8 152.1 319.25 158.25 L305.45 160.5 230.5 145.1 235.7 139.15 223.5 143.7 223.45 143.7 220.6 143.95 205.75 140.05 212.2 137.7 Q218.85 135.15 225.55 132.1 M272.4 130.65 L244.7 142.95 249.2 143.9 287.0 151.6 302.2 144.95 317.5 138.35 272.4 130.65" fill="url(#gradient1)" fill-rule="evenodd" stroke="none"/>
    <path d="M191.25 169.25 L188.55 166.15 Q183.0 159.15 181.65 150.7 L181.4 148.45 181.3 147.2 Q180.8 138.3 185.45 132.85 190.4 127.1 198.3 128.65 200.2 129.0 202.0 129.7 198.9 130.8 196.5 133.6 191.9 139.05 192.4 147.95 L192.45 149.15 192.75 151.45 Q193.1 153.65 193.75 155.75 191.45 161.85 191.25 169.25" fill="url(#gradient2)" fill-rule="evenodd" stroke="none"/>
    <path d="M315.05 192.65 L294.3 192.5 272.05 193.35 Q272.25 209.55 263.0 219.95 260.15 223.1 256.95 225.25 L255.05 226.4 Q246.75 230.9 235.8 229.2 219.15 226.55 206.15 211.0 195.1 197.75 192.2 181.7 L191.45 176.15 Q191.15 172.55 191.25 169.25 191.45 161.85 193.75 155.75 196.0 149.65 200.25 144.85 202.8 142.0 205.7 140.0 L205.75 140.05 220.6 143.95 223.45 143.7 224.85 150.6 230.5 145.1 305.45 160.5 312.65 167.25 315.05 192.65 M211.65 174.65 Q211.4 176.85 211.65 179.4 212.15 184.85 214.75 189.75 215.95 191.95 217.55 194.05 222.7 200.75 229.3 202.2 235.85 203.65 240.0 199.0 244.05 194.4 243.3 186.4 242.55 178.35 237.45 171.65 L234.55 168.45 Q230.5 164.6 225.7 163.55 L219.3 163.75 Q216.9 164.55 215.0 166.7 212.2 169.9 211.65 174.65" fill="url(#gradient3)" fill-rule="evenodd" stroke="none"/>
    <path d="M249.2 143.9 L244.7 142.95 272.4 130.65 272.65 133.5 249.2 143.9" fill="url(#gradient4)" fill-rule="evenodd" stroke="none"/>
    <path d="M223.45 143.7 L223.5 143.7 235.7 139.15 230.5 145.1 224.85 150.6 223.45 143.7" fill="url(#gradient5)" fill-rule="evenodd" stroke="none"/>
    <path d="M249.2 143.9 L272.65 133.5 300.8 141.35 Q303.4 143.65 302.2 144.95 L287.0 151.6 249.2 143.9 M217.65 170.45 Q220.8 166.85 225.95 168.0 230.15 168.9 233.65 172.65 L235.05 174.35 Q239.05 179.55 239.65 185.8 240.25 192.0 237.05 195.6 233.85 199.25 228.75 198.1 223.6 196.95 219.6 191.75 L217.85 189.2 Q215.45 185.05 215.0 180.35 214.45 174.1 217.65 170.45" fill="#d3ae30" fill-rule="evenodd" stroke="none"/>
    <path d="M272.65 133.5 L272.4 130.65 317.5 138.35 302.2 144.95 Q303.4 143.65 300.8 141.35 L272.65 133.5" fill="#e2ca78" fill-rule="evenodd" stroke="none"/>
    <path d="M319.25 158.25 L312.65 167.25 305.45 160.5 319.25 158.25" fill="#ecdca4" fill-rule="evenodd" stroke="none"/>
    <path d="M330.45 160.4 L352.15 165.75 Q335.4 171.3 318.05 183.0 L316.4 165.45 Q323.6 163.55 330.45 160.4" fill="url(#gradient6)" fill-rule="evenodd" stroke="none"/>
    <path d="M294.3 192.5 Q292.75 200.7 288.0 206.15 276.0 213.25 256.95 225.25 260.15 223.1 263.0 219.95 272.25 209.55 272.05 193.35 L294.3 192.5" fill="url(#gradient7)" fill-rule="evenodd" stroke="none"/>
    <path d="M353.85 140.3 L356.5 168.6 Q333.55 177.5 315.05 192.65 L294.3 192.5 Q292.75 200.7 288.0 206.15 276.0 213.25 256.95 225.25 L255.05 226.4 Q246.75 230.9 235.8 229.2 219.15 226.55 206.15 211.0 195.1 197.75 192.2 181.7 L191.35 181.0 Q188.0 178.0 184.9 174.05 182.5 171.0 180.6 167.75 175.4 158.95 173.85 148.95 L173.45 145.65 173.45 145.4 Q172.05 129.9 179.95 120.7 187.85 111.4 200.6 113.85 213.35 116.3 223.35 129.1 L225.55 132.1 Q236.1 127.1 246.55 120.75 L353.85 140.3 M202.0 129.7 Q207.55 131.95 212.2 137.7 218.85 135.15 225.55 132.1 M191.25 169.25 Q191.45 161.85 193.75 155.75 193.1 153.65 192.75 151.45 L192.45 149.15 192.4 147.95 Q191.9 139.05 196.5 133.6 198.9 130.8 202.0 129.7 M205.75 140.05 L205.7 140.0 Q202.8 142.0 200.25 144.85 196.0 149.65 193.75 155.75 M191.25 169.25 Q191.15 172.55 191.45 176.15 L192.2 181.7 M272.4 130.65 L244.7 142.95 249.2 143.9 272.65 133.5 M272.4 130.65 L317.5 138.35 302.2 144.95 287.0 151.6 249.2 143.9 M205.75 140.05 L212.2 137.7" fill="none" stroke="#8b641b" stroke-linecap="round" stroke-linejoin="round" stroke-width="0.5"/>
    <path d="M178.0 162.6 L177.95 162.65 178.0 162.6" fill="url(#gradient8)" fill-rule="evenodd" stroke="none"/>
    <path d="M177.95 162.65 L178.0 162.6 181.8 169.35 Q180.95 171.2 181.75 172.65 L181.55 172.9 181.2 172.85 Q180.55 172.85 179.05 174.05 L178.95 174.05 178.75 174.3 Q177.35 174.35 175.85 173.3 172.2 167.6 175.65 161.7 176.55 162.25 177.95 162.65" fill="url(#gradient9)" fill-rule="evenodd" stroke="none"/>
    <path d="M178.0 162.6 L177.95 162.65 Q176.55 162.25 175.65 161.7 171.9 159.5 174.95 154.4 183.05 148.85 194.45 153.95 L192.55 159.8 Q183.6 156.45 178.0 162.6" fill="url(#gradient10)" fill-rule="evenodd" stroke="none"/>
    <path d="M181.75 172.65 Q180.95 171.2 181.8 169.35 181.95 168.95 182.25 168.5 185.15 163.65 191.95 162.2 L191.2 171.45 Q187.4 172.1 186.25 175.7 L183.25 174.3 Q183.05 173.15 181.9 172.95 L181.75 172.65" fill="url(#gradient11)" fill-rule="evenodd" stroke="none"/>
    <path d="M187.4 181.85 Q189.15 180.0 190.05 178.1 191.65 174.7 205.2 173.45 209.65 173.0 210.05 176.9 210.3 179.7 205.95 185.15 201.6 190.55 202.05 195.35 L202.85 196.75 Q203.65 197.7 203.75 198.4 204.05 202.05 200.55 202.35 194.45 202.95 193.8 195.75 193.65 194.4 195.1 192.05 191.75 191.1 189.2 188.8 186.75 186.6 186.6 184.75 186.4 182.8 187.4 181.85 M265.9 219.25 Q266.05 221.5 260.75 224.55 L249.05 227.85 Q223.7 230.2 223.1 223.95 222.65 218.95 233.5 219.85 233.45 217.85 235.9 215.7 238.55 213.25 242.25 212.95 243.6 212.8 245.0 213.45 244.45 208.9 244.85 205.35 245.7 198.5 251.15 198.0 254.5 197.7 255.25 200.3 255.6 201.6 255.4 203.55 L262.65 201.65 Q267.2 201.2 267.1 205.9 L267.9 205.8 Q271.25 205.5 271.85 209.1 272.0 211.15 268.95 213.85 265.8 216.55 265.9 219.25" fill="#cc3300" fill-opacity="0.16078432" fill-rule="evenodd" stroke="none"/>
  </g>
  <defs>
    <linearGradient gradientTransform="matrix(-0.0149, 0.0379, -0.0273, -0.0107, 191.35, 153.5)" gradientUnits="userSpaceOnUse" id="gradient0" spreadMethod="pad" x1="-819.2" x2="819.2">
      <stop offset="0.0" stop-color="#e3cb7b"/>
      <stop offset="1.0" stop-color="#deb965"/>
    </linearGradient>
    <linearGradient gradientTransform="matrix(-0.0453, -0.0165, 0.0105, -0.0288, 277.95, 139.5)" gradientUnits="userSpaceOnUse" id="gradient1" spreadMethod="pad" x1="-819.2" x2="819.2">
      <stop offset="0.0" stop-color="#dec161"/>
      <stop offset="1.0" stop-color="#e4cd7e"/>
    </linearGradient>
    <linearGradient gradientTransform="matrix(-0.0014, -0.0155, 0.0135, -0.0013, 192.15, 143.7)" gradientUnits="userSpaceOnUse" id="gradient2" spreadMethod="pad" x1="-819.2" x2="819.2">
      <stop offset="0.0" stop-color="#9b8020"/>
      <stop offset="1.0" stop-color="#ba9927"/>
    </linearGradient>
    <linearGradient gradientTransform="matrix(0.034, 0.0124, -0.0186, 0.0511, 250.95, 188.1)" gradientUnits="userSpaceOnUse" id="gradient3" spreadMethod="pad" x1="-819.2" x2="819.2">
      <stop offset="0.0" stop-color="#d3ae30"/>
      <stop offset="1.0" stop-color="#deb965"/>
    </linearGradient>
    <linearGradient gradientTransform="matrix(0.0088, -0.013, 0.009, 0.0061, 259.2, 137.3)" gradientUnits="userSpaceOnUse" id="gradient4" spreadMethod="pad" x1="-819.2" x2="819.2">
      <stop offset="0.0" stop-color="#9b8020"/>
      <stop offset="1.0" stop-color="#ba9927"/>
    </linearGradient>
    <linearGradient gradientTransform="matrix(0.0053, -0.0079, 0.0038, 0.0026, 228.15, 143.45)" gradientUnits="userSpaceOnUse" id="gradient5" spreadMethod="pad" x1="-819.2" x2="819.2">
      <stop offset="0.0" stop-color="#9b8020"/>
      <stop offset="1.0" stop-color="#ba9927"/>
    </linearGradient>
    <linearGradient gradientTransform="matrix(-0.0016, -0.0173, 0.0216, -0.002, 333.9, 161.45)" gradientUnits="userSpaceOnUse" id="gradient6" spreadMethod="pad" x1="-819.2" x2="819.2">
      <stop offset="0.0" stop-color="#d3ae30"/>
      <stop offset="1.0" stop-color="#deb965"/>
    </linearGradient>
    <linearGradient gradientTransform="matrix(0.006, -0.0352, 0.0188, 0.0032, 280.65, 179.05)" gradientUnits="userSpaceOnUse" id="gradient7" spreadMethod="pad" x1="-819.2" x2="819.2">
      <stop offset="0.0" stop-color="#9b8020"/>
      <stop offset="1.0" stop-color="#ba9927"/>
    </linearGradient>
    <linearGradient gradientTransform="matrix(0.003, -0.0114, 0.0054, 0.0014, 179.75, 162.0)" gradientUnits="userSpaceOnUse" id="gradient8" spreadMethod="pad" x1="-819.2" x2="819.2">
      <stop offset="0.0" stop-color="#993300"/>
      <stop offset="1.0" stop-color="#c75a10"/>
    </linearGradient>
    <linearGradient gradientTransform="matrix(0.003, -0.0114, 0.0054, 0.0014, 179.75, 162.0)" gradientUnits="userSpaceOnUse" id="gradient9" spreadMethod="pad" x1="-819.2" x2="819.2">
      <stop offset="0.0" stop-color="#333300"/>
      <stop offset="1.0" stop-color="#724306"/>
    </linearGradient>
    <linearGradient gradientTransform="matrix(0.0168, -0.0061, 0.0025, 0.0067, 192.6, 153.55)" gradientUnits="userSpaceOnUse" id="gradient10" spreadMethod="pad" x1="-819.2" x2="819.2">
      <stop offset="0.0" stop-color="#333300"/>
      <stop offset="1.0" stop-color="#724306"/>
    </linearGradient>
    <linearGradient gradientTransform="matrix(0.0114, -0.0042, 0.0023, 0.0062, 194.95, 166.7)" gradientUnits="userSpaceOnUse" id="gradient11" spreadMethod="pad" x1="-819.2" x2="819.2">
      <stop offset="0.0" stop-color="#333300"/>
      <stop offset="1.0" stop-color="#724306"/>
    </linearGradient>
  </defs>
</svg>
