<?xml version="1.0" encoding="UTF-8" standalone="no"?>
<svg xmlns:xlink="http://www.w3.org/1999/xlink" height="25.6px" width="23.9px" xmlns="http://www.w3.org/2000/svg">
  <g transform="matrix(1.0, 0.0, 0.0, 1.0, 0.0, 0.0)">
    <path d="M2.35 13.9 L2.4 13.9 0.95 12.45 0.0 9.1 4.55 11.75 3.85 6.7 5.05 7.2 5.05 4.1 5.5 4.3 5.75 2.9 6.2 2.65 6.7 0.0 7.4 2.65 7.9 2.65 7.9 4.55 8.85 5.3 9.6 9.35 11.25 7.7 12.7 3.85 14.15 5.05 16.05 3.15 16.75 3.6 18.45 2.4 20.6 1.7 19.6 4.3 20.1 4.8 19.15 6.5 19.6 6.7 17.95 9.35 19.85 10.3 Q18.6 11.75 17.2 12.25 16.35 12.5 15.15 13.7 L14.15 14.85 19.35 15.1 20.1 15.55 21.3 15.35 21.75 15.8 23.9 16.05 23.9 16.3 21.75 17.25 21.3 17.75 20.1 18.2 20.1 18.7 17.7 19.4 17.95 20.85 15.55 20.6 13.15 20.85 16.75 25.6 13.9 24.9 13.4 25.15 11.95 23.95 11.5 24.45 10.0 22.95 10.3 21.75 12.0 23.5 11.8 21.5 11.65 20.3 13.4 19.9 12.75 18.1 14.7 17.2 14.6 17.05 12.65 14.85 14.15 12.45 11.55 12.85 10.55 13.05 10.9 10.65 8.75 13.35 7.55 11.45 7.35 7.95 6.7 2.15 7.35 7.95 7.55 11.45 7.15 10.8 5.95 13.3 3.95 11.85 3.75 13.5 3.65 14.25 2.35 13.9 M8.6 22.25 L8.4 21.85 8.65 22.25 8.6 22.25 M5.5 18.15 L3.6 17.0 3.65 16.95 5.55 18.15 5.5 18.15 M3.9 16.15 L1.7 14.4 1.9 14.25 3.95 16.05 3.9 16.15 M0.7 9.85 L3.75 13.5 0.7 9.85 M19.6 2.65 Q14.75 7.55 12.7 11.0 L11.55 12.85 12.7 11.0 Q14.75 7.55 19.6 2.65 M15.3 24.65 Q14.4 23.15 11.8 21.5 14.4 23.15 15.3 24.65 M22.5 16.3 L14.6 17.05 22.5 16.3" fill="#a20909" fill-rule="evenodd" stroke="none"/>
    <path d="M10.0 22.95 L9.7 24.3 8.85 22.7 8.65 22.25 8.4 21.85 8.75 20.65 9.55 21.5 9.4 20.2 9.4 19.9 10.25 19.75 9.9 18.9 10.85 18.4 10.4 17.9 9.85 17.3 10.6 16.1 9.4 16.3 10.05 15.4 11.55 12.85 10.05 15.4 9.4 16.3 8.85 16.4 9.0 15.25 7.95 16.55 7.45 15.75 7.2 15.35 6.6 16.55 5.65 15.8 5.55 16.3 5.3 15.8 3.75 13.5 5.3 15.8 5.55 16.3 5.45 17.0 4.3 16.7 5.65 17.85 5.55 18.15 3.65 16.95 3.9 16.15 3.95 16.05 1.9 14.25 1.25 13.65 2.35 13.9 3.65 14.25 3.75 13.5 3.95 11.85 5.95 13.3 7.15 10.8 7.55 11.45 8.75 13.35 10.9 10.65 10.55 13.05 11.55 12.85 14.15 12.45 12.65 14.85 14.6 17.05 12.9 17.35 10.4 17.9 12.9 17.35 14.6 17.05 14.7 17.2 12.75 18.1 13.4 19.9 11.65 20.3 11.8 21.5 10.7 20.85 9.4 20.2 10.7 20.85 11.8 21.5 12.0 23.5 10.3 21.75 10.0 22.95 M7.55 11.45 L7.45 15.75 7.55 11.45" fill="#c04825" fill-rule="evenodd" stroke="none"/>
    <path d="M8.4 21.85 L8.4 21.9 7.1 19.35 5.45 18.3 5.5 18.15 5.55 18.15 5.65 17.85 4.3 16.7 5.45 17.0 5.55 16.3 5.65 15.8 6.6 16.55 7.2 15.35 7.45 15.75 7.95 16.55 9.0 15.25 8.85 16.4 9.4 16.3 10.6 16.1 9.85 17.3 10.4 17.9 10.85 18.4 9.9 18.9 10.25 19.75 9.4 19.9 9.4 20.2 7.4 19.15 9.4 20.2 9.55 21.5 8.75 20.65 8.4 21.85 M5.55 16.3 L6.7 18.45 5.55 16.3 M7.2 18.7 L9.4 16.3 7.2 18.7 M7.9 18.45 L10.4 17.9 7.9 18.45 M7.2 17.5 L7.45 15.75 7.2 17.5" fill="#da7e06" fill-rule="evenodd" stroke="none"/>
    <path d="M2.35 13.9 L2.4 13.9 0.95 12.45 0.0 9.1 4.55 11.75 3.85 6.7 5.05 7.2 5.05 4.1 5.5 4.3 5.75 2.9 6.2 2.65 6.7 0.0 7.4 2.65 7.9 2.65 7.9 4.55 8.85 5.3 9.6 9.35 11.25 7.7 12.7 3.85 14.15 5.05 16.05 3.15 16.75 3.6 18.45 2.4 20.6 1.7 19.6 4.3 20.1 4.8 19.15 6.5 19.6 6.7 17.95 9.35 19.85 10.3 Q18.6 11.75 17.2 12.25 16.35 12.5 15.15 13.7 L14.15 14.85 19.35 15.1 20.1 15.55 21.3 15.35 21.75 15.8 23.9 16.05 23.9 16.3 21.75 17.25 21.3 17.75 20.1 18.2 20.1 18.7 17.7 19.4 17.95 20.85 15.55 20.6 13.15 20.85 16.75 25.6 13.9 24.9 13.4 25.15 11.95 23.95 11.5 24.45 10.0 22.95 M8.85 22.7 L8.85 22.75 8.6 22.25 8.4 21.85 M5.5 18.15 L3.6 17.0 3.65 16.95 M3.9 16.15 L1.7 14.4 1.9 14.25" fill="none" stroke="#000000" stroke-linecap="round" stroke-linejoin="round" stroke-opacity="0.5019608" stroke-width="0.05"/>
    <path d="M3.75 13.5 L0.7 9.85 M6.7 2.15 L7.35 7.95 7.55 11.45 7.45 15.75 7.2 17.5 M11.55 12.85 L12.7 11.0 Q14.75 7.55 19.6 2.65 M11.55 12.85 L10.05 15.4 9.4 16.3 7.2 18.7 M10.4 17.9 L12.9 17.35 14.6 17.05 22.5 16.3 M3.75 13.5 L5.3 15.8 5.55 16.3 6.7 18.45 M7.4 19.15 L9.4 20.2 10.7 20.85 11.8 21.5 Q14.4 23.15 15.3 24.65 M10.4 17.9 L7.9 18.45" fill="none" stroke="#330202" stroke-linecap="round" stroke-linejoin="round" stroke-opacity="0.5019608" stroke-width="0.05"/>
  </g>
</svg>
