<?xml version="1.0" encoding="UTF-8" standalone="no"?>
<svg xmlns:xlink="http://www.w3.org/1999/xlink" height="21.9px" width="23.55px" xmlns="http://www.w3.org/2000/svg">
  <g transform="matrix(1.0, 0.0, 0.0, 1.0, 11.75, 10.95)">
    <path d="M-3.0 10.95 Q-5.45 9.25 -4.8 6.8 -7.15 9.4 -10.15 7.85 -10.05 3.8 -6.3 2.1 -9.75 2.65 -11.75 -3.05 -8.25 -5.2 -3.85 -3.65 -5.1 -6.95 -3.2 -10.95 0.55 -8.65 0.0 -5.75 0.55 -7.25 3.3 -9.1 L3.6 -9.3 3.95 -8.8 Q5.85 -5.6 3.9 -2.5 6.85 -5.55 9.85 -4.35 10.75 0.7 5.75 1.5 11.25 2.9 11.8 9.7 4.2 11.15 0.6 5.9 0.6 8.85 -3.0 10.95" fill="#a25aa9" fill-rule="evenodd" stroke="none"/>
    <path d="M-3.0 10.95 Q-5.45 9.25 -4.8 6.8 -7.15 9.4 -10.15 7.85 -10.05 3.8 -6.3 2.1 -9.75 2.65 -11.75 -3.05 -8.25 -5.2 -3.85 -3.65 -5.1 -6.95 -3.2 -10.95 0.55 -8.65 0.0 -5.75 0.55 -7.25 3.3 -9.1 L3.6 -9.3 3.95 -8.8 Q5.85 -5.6 3.9 -2.5 6.85 -5.55 9.85 -4.35 10.75 0.7 5.75 1.5 11.25 2.9 11.8 9.7 4.2 11.15 0.6 5.9 0.6 8.85 -3.0 10.95 Z" fill="none" stroke="#34341b" stroke-linecap="round" stroke-linejoin="round" stroke-width="0.05"/>
  </g>
</svg>
