<?xml version="1.0" encoding="UTF-8" standalone="no"?>
<svg xmlns:xlink="http://www.w3.org/1999/xlink" height="98.25px" width="127.6px" xmlns="http://www.w3.org/2000/svg">
  <g transform="matrix(1.0, 0.0, 0.0, 1.0, 41.9, 45.65)">
    <path d="M-19.4 46.85 L-19.5 47.45 -19.85 47.35 -19.4 46.85" fill="#8b6801" fill-rule="evenodd" stroke="none"/>
    <path d="M-19.85 47.35 L-19.85 47.2 -19.4 46.85 -19.85 47.35" fill="#febe01" fill-rule="evenodd" stroke="none"/>
    <path d="M-14.95 41.05 L-14.9 41.15 -19.4 46.85 -19.85 47.2 -19.9 39.95 -14.95 41.05" fill="#e6d3aa" fill-rule="evenodd" stroke="none"/>
    <path d="M77.2 -7.3 L75.1 2.4 Q36.7 30.2 -20.65 52.6 L-19.5 47.45 -19.4 46.85 -14.9 41.15 -14.95 41.05 -14.95 41.0 Q37.85 20.75 77.2 -7.3" fill="#b8a42e" fill-rule="evenodd" stroke="none"/>
    <path d="M-39.75 11.15 Q5.65 -4.95 56.0 -39.05 L60.2 -35.4 49.4 -27.4 60.2 -35.4 Q71.5 -23.75 77.2 -7.3 37.85 20.75 -14.95 41.0 L-14.95 41.05 -19.9 39.95 -21.35 36.35 Q-27.0 25.7 -32.8 18.3 -36.1 14.1 -39.75 11.15 M9.05 -3.45 L-32.8 18.3 9.05 -3.45 M73.75 -10.55 L46.7 4.0 73.75 -10.55 M55.85 -20.6 L21.0 -2.3 55.85 -20.6 M-9.05 30.05 L-21.35 36.35 -9.05 30.05" fill="#d2c05b" fill-rule="evenodd" stroke="none"/>
    <path d="M-39.75 11.15 Q-36.1 14.1 -32.8 18.3 L-33.95 18.9 -32.8 18.3 Q-27.0 25.7 -21.35 36.35 L-19.9 39.95 -19.85 47.2 -19.85 47.35 -19.5 47.45 -20.65 52.6 Q-29.1 32.1 -41.9 20.85 L-39.75 11.15" fill="#7c7821" fill-rule="evenodd" stroke="none"/>
    <path d="M60.2 -35.4 L56.0 -39.05 Q5.65 -4.95 -39.75 11.15 L-41.9 20.85 Q-29.1 32.1 -20.65 52.6 36.7 30.2 75.1 2.4 L77.2 -7.3 Q71.5 -23.75 60.2 -35.4" fill="none" stroke="#000000" stroke-linecap="round" stroke-linejoin="round" stroke-width="0.05"/>
    <path d="M-32.8 18.3 L9.05 -3.45 M60.2 -35.4 L49.4 -27.4 M21.0 -2.3 L55.85 -20.6 M46.7 4.0 L73.75 -10.55 M-32.8 18.3 L-33.95 18.9 M-21.35 36.35 L-9.05 30.05" fill="none" stroke="#8c6701" stroke-linecap="round" stroke-linejoin="round" stroke-opacity="0.52156866" stroke-width="0.05"/>
    <path d="M18.3 -4.95 Q17.8 -5.8 18.85 -7.4 19.9 -9.05 21.95 -10.5 24.0 -12.05 25.7 -12.5 L27.3 -12.6 26.6 -8.6 24.3 -6.5 Q22.25 -5.0 20.55 -4.55 18.8 -4.1 18.3 -4.95 M25.6 4.05 Q27.2 2.2 30.05 0.6 30.85 0.1 31.7 -0.25 L37.75 1.45 36.95 2.65 Q35.35 4.55 32.55 6.2 29.7 7.8 27.4 8.05 25.05 8.35 24.55 7.2 24.0 5.95 25.6 4.05" fill="#5b4a2f" fill-rule="evenodd" stroke="none"/>
    <path d="M12.35 7.65 Q11.45 8.9 9.8 10.15 8.15 11.35 6.75 11.8 L5.05 11.65 Q4.7 11.05 5.6 9.75 6.5 8.45 8.15 7.25 9.8 6.0 11.2 5.6 12.55 5.2 12.9 5.8 13.25 6.35 12.35 7.65" fill="#625028" fill-rule="evenodd" stroke="none"/>
    <path d="M65.45 -29.4 L65.2 -29.7 65.05 -29.9 67.2 -45.55 74.65 -40.55 71.2 -33.3 67.4 -25.95 65.45 -29.4 M74.85 -31.55 L80.05 -37.15 85.6 -2.1 75.2 -26.4 74.7 -27.65 72.05 -26.15 68.2 -23.95 68.05 -24.35 71.85 -28.35 74.85 -31.55" fill="#8fb629" fill-rule="evenodd" stroke="none"/>
    <path d="M71.2 -33.3 L74.65 -40.55 74.85 -31.55 71.85 -28.35 71.2 -33.3 M75.2 -26.4 L75.8 -13.4 72.05 -26.15 74.7 -27.65 75.2 -26.4" fill="#1a7212" fill-rule="evenodd" stroke="none"/>
    <path d="M18.3 -4.95 Q18.8 -4.1 20.55 -4.55 22.25 -5.0 24.3 -6.5 L26.6 -8.6 27.3 -12.6 25.7 -12.5 Q24.0 -12.05 21.95 -10.5 19.9 -9.05 18.85 -7.4 17.8 -5.8 18.3 -4.95 M27.3 -12.6 L27.6 -14.1 M37.75 1.45 L38.85 1.8 M25.6 4.05 Q24.0 5.95 24.55 7.2 25.05 8.35 27.4 8.05 29.7 7.8 32.55 6.2 35.35 4.55 36.95 2.65 L37.75 1.45 31.7 -0.25 Q30.85 0.1 30.05 0.6 27.2 2.2 25.6 4.05 M12.35 7.65 Q13.25 6.35 12.9 5.8 12.55 5.2 11.2 5.6 9.8 6.0 8.15 7.25 6.5 8.45 5.6 9.75 4.7 11.05 5.05 11.65 L6.75 11.8 Q8.15 11.35 9.8 10.15 11.45 8.9 12.35 7.65 M5.15 16.5 Q-3.2 17.35 1.45 10.15" fill="none" stroke="#323203" stroke-linecap="round" stroke-linejoin="round" stroke-opacity="0.72156864" stroke-width="0.25"/>
    <path d="M74.65 -40.55 L67.2 -45.55 65.05 -29.9 65.2 -29.7 65.45 -29.4 M67.4 -25.95 L71.2 -33.3 74.65 -40.55 74.85 -31.55 80.05 -37.15 85.6 -2.1 75.2 -26.4 75.8 -13.4 72.05 -26.15 68.2 -23.95 67.3 -23.45 M74.85 -31.55 L71.85 -28.35 68.05 -24.35 M75.2 -26.4 L74.7 -27.65 72.05 -26.15 M71.85 -28.35 L71.2 -33.3" fill="none" stroke="#515004" stroke-linecap="round" stroke-linejoin="round" stroke-opacity="0.72156864" stroke-width="0.25"/>
  </g>
</svg>
