<?xml version="1.0" encoding="UTF-8" standalone="no"?>
<svg xmlns:xlink="http://www.w3.org/1999/xlink" height="46.0px" width="48.6px" xmlns="http://www.w3.org/2000/svg">
  <g transform="matrix(1.0, 0.0, 0.0, 1.0, -14.75, -5.5)">
    <path d="M43.95 9.4 Q45.35 10.8 45.4 12.85 L45.3 13.7 46.25 14.4 46.35 13.7 Q47.2 13.0 47.7 13.05 L48.75 13.15 Q50.3 10.7 50.6 6.65 L50.65 6.0 Q53.15 10.3 55.2 16.35 55.25 18.45 53.2 19.75 L51.95 20.3 52.0 20.55 Q58.85 18.35 62.85 19.2 L59.85 23.95 57.5 23.15 Q59.25 27.2 57.7 29.2 55.8 30.8 53.75 30.65 L53.8 32.25 Q52.95 33.8 51.9 35.0 54.15 36.5 56.55 39.1 56.45 40.55 55.65 41.2 L51.25 41.4 51.15 41.4 51.25 41.75 Q51.25 43.45 50.65 44.8 52.75 45.7 53.2 47.95 52.25 50.2 48.55 50.05 46.35 49.5 45.65 48.6 L43.0 49.35 37.05 49.15 Q36.5 50.45 33.45 51.0 29.15 50.95 28.05 48.4 28.55 46.0 31.0 45.15 L30.85 44.9 30.9 44.9 30.7 44.65 30.05 43.0 29.8 41.85 29.9 41.25 28.2 41.8 23.8 41.6 Q22.95 40.95 22.9 39.5 25.5 36.6 27.95 35.15 26.3 33.35 26.05 31.25 26.2 30.15 26.6 29.25 L24.65 29.65 Q22.45 29.95 20.35 28.25 18.75 26.25 20.55 22.2 L18.2 23.0 15.25 18.25 Q19.25 17.4 26.15 19.65 24.2 18.35 24.25 16.35 26.3 10.3 28.85 6.0 L28.85 6.65 Q29.15 10.7 30.75 13.15 L31.8 13.05 Q32.2 13.0 32.9 13.55 33.3 13.3 33.75 13.15 L35.55 12.6 Q35.65 10.7 37.0 9.4 38.45 7.95 40.5 7.95 L42.5 8.35 43.95 9.4 Z" fill="none" stroke="#000000" stroke-linecap="round" stroke-linejoin="round" stroke-opacity="0.70980394" stroke-width="1.0"/>
    <path d="M45.2 47.1 L46.1 47.9" fill="none" stroke="#000000" stroke-linecap="round" stroke-linejoin="round" stroke-opacity="0.3019608" stroke-width="0.05"/>
  </g>
</svg>
