<?xml version="1.0" encoding="UTF-8" standalone="no"?>
<svg xmlns:xlink="http://www.w3.org/1999/xlink" height="160.05px" width="198.8px" xmlns="http://www.w3.org/2000/svg">
  <g transform="matrix(1.0, 0.0, 0.0, 1.0, -156.6, -105.2)">
    <path d="M335.55 190.55 L326.25 184.95 340.0 182.4 353.05 200.35 344.9 194.55 335.55 190.55 M326.95 215.75 L326.0 216.95 326.45 199.9 317.85 189.15 312.1 187.6 295.0 182.9 297.3 177.3 319.95 181.25 332.55 196.4 326.95 215.75 M198.65 183.5 L191.15 185.45 183.0 195.25 183.2 210.9 182.5 209.7 177.65 192.0 189.05 178.25 199.1 176.55 198.65 183.5 M174.85 186.6 L166.2 190.1 158.75 195.5 170.85 179.15 183.45 181.5 174.85 186.6" fill="#613807" fill-rule="evenodd" stroke="none"/>
    <path d="M326.25 184.95 L335.55 190.55 339.75 198.95 326.95 215.75 332.55 196.4 319.95 181.25 297.3 177.3 298.7 174.25 311.05 175.5 347.0 179.15 355.15 202.0 353.05 200.35 340.0 182.4 326.25 184.95 M182.5 209.7 L170.85 194.3 174.85 186.6 183.45 181.5 170.85 179.15 158.75 195.5 156.85 196.9 164.55 176.15 199.15 172.85 199.1 176.55 189.05 178.25 177.65 192.0 182.5 209.7" fill="#c28534" fill-rule="evenodd" stroke="none"/>
    <path d="M212.4 116.2 L212.2 112.7 212.4 112.7 219.4 115.05 220.1 114.8 220.35 127.4 214.75 116.65 212.4 116.2 M266.55 105.7 L268.4 109.2 271.2 113.15 269.35 120.4 265.15 109.2 264.65 108.95 266.55 105.7 M286.6 146.3 L291.95 128.3 295.45 129.95 290.8 154.0 288.0 149.1 286.6 146.3" fill="#a88c53" fill-rule="evenodd" stroke="none"/>
    <path d="M195.4 126.0 L195.15 125.05 Q195.15 123.5 196.35 121.8 198.95 118.05 206.8 114.8 L212.4 116.2 214.75 116.65 Q208.25 119.0 206.1 121.8 205.15 123.1 205.2 124.35 L205.4 125.05 Q206.45 127.95 213.8 130.2 L214.3 130.2 218.5 131.6 Q228.8 134.2 245.3 134.15 263.25 134.1 279.15 131.1 L279.15 133.45 280.05 134.85 Q270.3 136.65 260.2 137.45 L255.55 144.0 255.55 137.75 243.2 138.1 224.1 137.2 218.95 136.4 217.5 140.75 215.15 135.65 211.0 134.6 205.9 133.0 205.4 132.75 Q196.6 129.8 195.4 126.0 M212.4 112.7 Q216.6 111.4 221.75 110.15 241.8 105.45 266.05 105.45 L266.55 105.45 266.55 105.7 264.65 108.95 264.65 109.2 264.45 109.2 Q244.1 109.25 227.35 112.95 L220.1 114.8 219.4 115.05 212.4 112.7 M272.15 109.45 L276.8 105.7 Q293.6 106.55 304.3 110.15 313.7 113.75 314.1 118.5 L314.1 119.45 313.9 120.15 313.65 120.6 313.65 120.4 312.0 122.95 Q308.1 127.2 297.3 130.65 L295.45 129.95 291.95 128.3 291.25 128.1 Q300.85 125.35 303.6 121.8 L304.55 119.9 Q304.95 115.9 296.4 112.95 287.0 110.0 272.15 109.45" fill="#e0bc74" fill-rule="evenodd" stroke="none"/>
    <path d="M271.2 113.15 L272.15 109.45 Q287.0 110.0 296.4 112.95 304.95 115.9 304.55 119.9 L303.6 121.8 Q300.85 125.35 291.25 128.1 L291.95 128.3 286.6 146.3 280.05 134.85 279.15 133.45 279.15 131.1 Q263.25 134.1 245.3 134.15 228.8 134.2 218.5 131.6 L214.3 130.2 213.8 130.2 Q206.45 127.95 205.4 125.05 L205.2 124.35 Q205.15 123.1 206.1 121.8 208.25 119.0 214.75 116.65 L220.35 127.4 220.1 114.8 227.35 112.95 Q244.1 109.25 264.45 109.2 L264.65 109.2 265.15 109.2 269.35 120.4 271.2 113.15" fill="#472f12" fill-rule="evenodd" stroke="none"/>
    <path d="M196.1 207.6 Q197.75 195.15 198.65 183.5 L199.1 176.55 198.9 187.55 Q206.05 217.45 217.1 193.15 L217.55 183.85 Q217.4 183.2 217.55 181.95 L218.0 177.3 219.4 170.55 220.6 171.0 220.8 170.75 221.05 170.3 220.5 169.4 214.75 160.05 Q198.9 153.2 192.35 157.25 L198.65 150.7 Q197.8 138.1 195.4 126.0 196.6 129.8 205.4 132.75 L205.9 133.0 211.0 134.6 215.15 135.65 217.5 140.75 218.95 136.4 224.1 137.2 243.2 138.1 255.55 137.75 255.55 144.0 260.2 137.45 Q270.3 136.65 280.05 134.85 L286.6 146.3 288.0 149.1 286.6 175.9 274.45 154.9 267.95 212.3 261.4 199.9 263.25 198.3 267.0 192.25 263.5 165.85 263.05 165.65 263.05 164.95 262.55 164.7 263.05 164.7 267.95 163.75 Q255.45 153.1 230.6 163.3 L220.8 170.75 220.8 171.0 222.2 171.7 223.6 171.45 225.95 194.55 Q226.35 195.0 226.4 195.5 241.3 211.1 257.9 202.7 L249.25 217.9 243.65 218.5 240.8 210.1 239.0 218.75 Q234.4 218.85 230.05 218.55 L226.3 210.6 224.2 217.9 215.1 216.0 211.05 206.35 207.95 213.6 Q203.85 211.95 199.95 209.85 L199.95 203.55 197.55 209.35 Q197.55 208.5 196.1 207.6 M268.25 162.5 L263.75 153.0 236.75 153.0 224.75 158.0 223.55 161.25 222.5 157.25 214.5 150.7 198.65 150.7 214.5 150.7 222.5 157.25 223.55 161.25 224.75 158.0 236.75 153.0 263.75 153.0 268.25 162.5 M223.55 161.25 L220.5 169.4 223.55 161.25" fill="#b57e2d" fill-rule="evenodd" stroke="none"/>
    <path d="M297.3 177.3 L295.0 182.9 312.1 187.6 Q312.95 195.2 314.35 202.7 L314.6 203.65 314.6 204.1 Q314.5 205.6 313.4 207.15 308.9 213.65 288.9 218.35 L286.65 218.9 281.7 220.0 279.85 220.45 279.6 220.2 279.35 219.3 279.15 219.3 276.55 204.8 272.85 211.6 267.0 222.3 243.65 223.5 243.3 223.5 226.45 222.7 219.9 221.85 211.5 220.0 206.35 218.35 205.9 218.1 Q196.45 214.95 195.85 210.9 195.65 210.05 195.85 209.25 L196.1 207.6 Q197.55 208.5 197.55 209.35 L199.95 203.55 199.95 209.85 Q203.85 211.95 207.95 213.6 L211.05 206.35 215.1 216.0 224.2 217.9 226.3 210.6 230.05 218.55 Q234.4 218.85 239.0 218.75 L240.8 210.1 243.65 218.5 249.25 217.9 257.9 202.7 Q241.3 211.1 226.4 195.5 L232.0 194.8 Q242.5 193.3 252.75 190.85 L256.95 188.95 259.05 188.05 262.55 164.7 263.05 164.95 263.05 165.65 263.5 165.85 267.0 192.25 263.25 198.3 261.4 199.9 267.95 212.3 274.45 154.9 286.6 175.9 288.0 149.1 290.8 154.0 295.45 129.95 297.3 130.65 Q308.1 127.2 312.0 122.95 L313.65 120.4 313.65 120.6 Q309.45 148.95 311.05 175.5 L298.7 174.25 297.3 177.3 M199.15 172.85 L199.15 172.15 199.15 166.35 199.15 162.15 190.95 158.65 192.35 157.25 Q198.9 153.2 214.75 160.05 L220.5 169.4 221.05 170.3 220.8 170.75 220.6 171.0 219.4 170.55 214.5 168.45 209.15 166.35 201.95 163.3 201.7 186.65 Q207.7 192.35 217.1 193.15 206.05 217.45 198.9 187.55 L199.1 176.55 199.15 172.85 M228.75 170.55 L223.6 171.45 222.2 171.7 220.8 171.0 220.8 170.75 230.6 163.3 Q255.45 153.1 267.95 163.75 L263.05 164.7 262.55 164.7 241.1 168.45 228.75 170.55" fill="#755424" fill-rule="evenodd" stroke="none"/>
    <path d="M217.1 193.15 Q207.7 192.35 201.7 186.65 L201.95 163.3 209.15 166.35 Q208.2 168.05 208.2 170.3 208.2 171.2 208.35 171.95 208.55 173.15 209.15 174.05 L209.6 174.75 210.05 175.3 Q210.65 175.9 211.5 175.9 212.85 175.9 213.8 174.05 214.75 172.65 214.75 170.3 L214.5 168.45 219.4 170.55 218.0 177.3 217.55 181.95 Q217.4 183.2 217.55 183.85 L217.1 193.15 M223.6 171.45 L228.75 170.55 228.75 171.7 Q228.75 174.5 230.6 176.35 232.45 178.2 235.3 178.25 238.05 178.2 239.95 176.35 241.8 174.5 241.8 171.7 241.8 169.85 241.1 168.45 L262.55 164.7 259.05 188.05 256.95 188.95 252.75 190.85 Q242.5 193.3 232.0 194.8 L225.95 194.55 223.6 171.45" fill="#ffffff" fill-rule="evenodd" stroke="none"/>
    <path d="M209.15 166.35 L214.5 168.45 214.75 170.3 Q214.75 172.65 213.8 174.05 212.85 175.9 211.5 175.9 210.65 175.9 210.05 175.3 L209.6 174.75 209.15 174.05 Q208.55 173.15 208.35 171.95 208.2 171.2 208.2 170.3 208.2 168.05 209.15 166.35 M228.75 170.55 L241.1 168.45 Q241.8 169.85 241.8 171.7 241.8 174.5 239.95 176.35 238.05 178.2 235.3 178.25 232.45 178.2 230.6 176.35 228.75 174.5 228.75 171.7 L228.75 170.55" fill="#000000" fill-rule="evenodd" stroke="none"/>
    <path d="M286.65 218.9 L294.25 244.45 288.2 254.75 Q293.5 240.45 272.8 237.7 L273.5 237.0 275.8 217.2 279.15 219.3 279.35 219.3 279.6 220.2 279.85 220.45 281.7 220.0 286.65 218.9 M243.3 223.5 L245.05 234.45 235.75 237.95 Q235.05 231.2 219.85 225.8 L225.0 224.85 226.45 222.7 243.3 223.5" fill="#452b09" fill-rule="evenodd" stroke="none"/>
    <path d="M275.8 217.2 L274.0 216.0 272.85 211.6 276.55 204.8 279.15 219.3 275.8 217.2" fill="#473a2a" fill-rule="evenodd" stroke="none"/>
    <path d="M288.2 254.75 L281.9 265.0 276.75 252.4 259.5 259.85 Q263.1 248.15 272.8 237.7 293.5 240.45 288.2 254.75 M235.75 237.95 L205.4 249.35 211.5 236.05 195.6 240.5 208.2 228.15 219.85 225.8 Q235.05 231.2 235.75 237.95" fill="#996629" fill-rule="evenodd" stroke="none"/>
    <path d="M326.25 184.95 L335.55 190.55 M295.0 182.9 L312.1 187.6 M199.15 172.85 L199.1 176.55 M311.05 175.5 L298.7 174.25 M279.15 219.3 L279.35 219.3 279.6 220.2 279.85 220.45 281.7 220.0 286.65 218.9 M275.8 217.2 L279.15 219.3 M226.45 222.7 L243.3 223.5" fill="none" stroke="#000000" stroke-linecap="round" stroke-linejoin="round" stroke-opacity="0.4509804" stroke-width="0.05"/>
    <path d="M199.1 176.55 L198.65 183.5 M199.1 176.55 L198.9 187.55 M217.1 193.15 Q207.7 192.35 201.7 186.65 L201.95 163.3 209.15 166.35 M219.4 170.55 L220.6 171.0 220.8 170.75 220.8 171.0 222.2 171.7 223.6 171.45 225.95 194.55 Q226.35 195.0 226.4 195.5 M232.0 194.8 Q242.5 193.3 252.75 190.85 L256.95 188.95 259.05 188.05 262.55 164.7 M198.65 150.7 L214.5 150.7 222.5 157.25 223.55 161.25 224.75 158.0 236.75 153.0 263.75 153.0 268.25 162.5 M219.4 170.55 L218.0 177.3 217.55 181.95 Q217.4 183.2 217.55 183.85 L217.1 193.15 M220.5 169.4 L223.55 161.25" fill="none" stroke="#000000" stroke-linecap="round" stroke-linejoin="round" stroke-opacity="0.3019608" stroke-width="0.05"/>
    <path d="M335.55 190.55 L344.9 194.55 353.05 200.35 355.15 202.0 347.0 179.15 311.05 175.5 Q309.45 148.95 313.65 120.6 L313.9 120.15 314.1 119.45 314.1 118.5 Q313.7 113.75 304.3 110.15 293.6 106.55 276.8 105.7 L272.15 109.45 271.2 113.15 268.4 109.2 266.55 105.7 266.55 105.45 266.05 105.45 Q241.8 105.45 221.75 110.15 216.6 111.4 212.4 112.7 L212.2 112.7 212.4 116.2 206.8 114.8 Q198.95 118.05 196.35 121.8 195.15 123.5 195.15 125.05 L195.4 126.0 Q197.8 138.1 198.65 150.7 L192.35 157.25 190.95 158.65 199.15 162.15 199.15 166.35 199.15 172.15 199.15 172.85 164.55 176.15 156.85 196.9 158.75 195.5 166.2 190.1 174.85 186.6 170.85 194.3 182.5 209.7 183.2 210.9 183.0 195.25 191.15 185.45 198.65 183.5 Q197.75 195.15 196.1 207.6 L195.85 209.25 Q195.65 210.05 195.85 210.9 196.45 214.95 205.9 218.1 L206.35 218.35 211.5 220.0 219.9 221.85 226.45 222.7 225.0 224.85 219.85 225.8 208.2 228.15 195.6 240.5 211.5 236.05 205.4 249.35 235.75 237.95 245.05 234.45 243.3 223.5 243.65 223.5 267.0 222.3 272.85 211.6 274.0 216.0 275.8 217.2 273.5 237.0 272.8 237.7 Q263.1 248.15 259.5 259.85 L276.75 252.4 281.9 265.0 288.2 254.75 294.25 244.45 286.65 218.9 288.9 218.35 Q308.9 213.65 313.4 207.15 314.5 205.6 314.6 204.1 L314.6 203.65 314.35 202.7 Q312.95 195.2 312.1 187.6 L317.85 189.15 326.45 199.9 326.0 216.95 326.95 215.75 339.75 198.95 335.55 190.55 Z" fill="none" stroke="#000000" stroke-linecap="round" stroke-linejoin="round" stroke-width="0.5"/>
  </g>
</svg>
