<?xml version="1.0" encoding="UTF-8" standalone="no"?>
<svg xmlns:xlink="http://www.w3.org/1999/xlink" height="34.75px" width="23.45px" xmlns="http://www.w3.org/2000/svg">
  <g transform="matrix(1.0, 0.0, 0.0, 1.0, -4.75, 0.25)">
    <path d="M20.65 14.8 L20.75 15.05 20.8 15.25 20.85 16.45 20.65 17.45 19.85 19.45 19.5 20.1 18.8 20.25 Q15.9 20.55 13.5 19.6 13.05 18.55 12.9 17.65 12.75 16.75 12.9 16.0 13.0 15.3 13.35 14.65 L13.65 14.2 14.1 14.9 15.35 15.65 17.1 15.9 Q18.1 15.65 18.5 14.45 L17.85 14.6 Q16.35 14.75 14.1 13.3 14.7 12.2 15.95 11.5 L16.05 11.6 17.1 11.85 17.4 11.85 17.6 11.9 18.8 12.45 Q19.7 13.0 20.6 14.7 L20.65 14.8 M12.55 9.05 L14.1 8.45 Q17.35 7.1 20.55 9.0 19.9 8.95 19.35 9.3 L19.0 9.3 16.9 9.2 Q15.9 9.3 15.65 9.7 14.45 8.75 12.55 9.1 L12.55 9.05 M18.4 10.15 L18.2 10.4 Q17.75 10.1 17.1 10.1 L16.2 10.25 16.05 10.05 16.9 9.7 18.4 10.15 M8.9 21.8 L9.0 21.65 9.0 21.8 8.9 21.8" fill="#799e69" fill-rule="evenodd" stroke="none"/>
    <path d="M8.35 5.6 L8.4 5.65 8.35 5.65 8.35 5.6 M11.8 6.65 L11.85 6.6 11.85 6.65 11.8 6.65" fill="#ffcf2b" fill-rule="evenodd" stroke="none"/>
    <path d="M8.35 5.65 L8.3 5.65 8.35 5.6 8.35 5.65" fill="#c27b05" fill-rule="evenodd" stroke="none"/>
    <path d="M17.1 10.4 L17.7 10.55 17.9 10.8 17.95 10.9 17.7 11.25 17.65 11.25 17.1 11.4 16.75 11.35 16.5 11.25 16.25 10.9 16.45 10.55 16.5 10.55 17.1 10.4" fill="#7d9b02" fill-rule="evenodd" stroke="none"/>
    <path d="M9.2 27.95 L9.45 28.2 9.25 28.35 9.2 27.95" fill="#a55c05" fill-rule="evenodd" stroke="none"/>
    <path d="M23.5 20.65 L23.5 20.7 23.45 20.65 23.5 20.65 M16.3 30.5 L14.9 29.95 15.15 28.85 16.3 30.5 M12.85 29.15 L9.95 29.7 8.4 29.45 Q8.1 29.2 8.85 28.65 L9.25 28.35 9.45 28.2 10.35 29.3 11.8 28.5 12.9 27.85 12.85 29.05 12.85 29.15 M10.45 25.25 L11.2 25.5 10.6 26.1 10.45 25.25 M11.8 28.5 L12.0 28.6 12.85 29.05 12.0 28.6 11.8 28.5" fill="#000000" fill-rule="evenodd" stroke="none"/>
    <path d="M23.45 20.65 L23.5 20.7 23.5 20.75 23.15 20.7 23.45 20.65 M22.4 20.95 L22.75 20.8 22.9 20.75 22.4 20.95 M19.55 28.4 L18.15 28.4 18.05 28.4 18.15 27.5 19.55 28.35 19.55 28.4" fill="#345159" fill-rule="evenodd" stroke="none"/>
    <path d="M23.5 20.7 L23.55 20.75 23.5 20.75 23.5 20.7" fill="#283f44" fill-rule="evenodd" stroke="none"/>
    <path d="M23.6 22.55 L24.25 22.45 Q25.45 22.45 26.3 23.3 27.05 24.05 27.15 25.1 L26.5 25.65 25.6 26.05 23.65 24.2 23.6 22.55 M23.7 25.35 L24.55 26.25 24.15 26.25 23.75 26.2 23.7 25.35" fill="#fffdf9" fill-rule="evenodd" stroke="none"/>
    <path d="M18.3 26.05 L18.4 26.05 18.35 26.05 18.3 26.05" fill="#e3d6bf" fill-rule="evenodd" stroke="none"/>
    <path d="M27.15 25.1 L27.15 25.3 Q27.1 26.35 26.5 27.15 L25.6 26.05 26.5 25.65 27.15 25.1 M24.1 28.15 L23.7 28.1 23.75 27.05 23.75 26.2 24.15 26.25 24.55 26.25 25.05 26.7 24.8 27.6 24.1 28.15" fill="#c2bda3" fill-rule="evenodd" stroke="none"/>
    <path d="M17.6 11.9 L17.4 11.85 17.6 11.85 17.6 11.9 M9.95 13.45 L10.1 13.5 9.95 14.15 9.95 13.5 9.95 13.45" fill="#b85e03" fill-rule="evenodd" stroke="none"/>
    <path d="M21.7 9.35 L22.35 9.6 22.1 9.55 21.7 9.35 M12.15 9.2 L12.55 9.05 12.55 9.1 12.15 9.2" fill="#dabe7e" fill-rule="evenodd" stroke="none"/>
    <path d="M22.35 9.6 L22.65 9.85 22.95 10.2 22.1 9.55 22.35 9.6" fill="#f3ecc7" fill-rule="evenodd" stroke="none"/>
    <path d="M20.75 15.05 L20.95 15.2 20.8 15.25 20.75 15.05 M20.65 14.8 L20.6 14.7 20.65 14.75 20.65 14.8" fill="#e98103" fill-rule="evenodd" stroke="none"/>
    <path d="M13.65 14.2 L13.65 13.65 Q13.65 13.45 13.8 13.2 L13.8 13.1 14.1 13.3 13.65 14.2" fill="#fcb670" fill-rule="evenodd" stroke="none"/>
    <path d="M9.9 5.85 L10.45 6.15 10.9 6.3 11.8 6.65 10.35 6.75 9.5 6.2 9.9 5.85 M14.1 13.3 Q16.35 14.75 17.85 14.6 L18.5 14.45 Q18.1 15.65 17.1 15.9 L15.35 15.65 14.1 14.9 13.65 14.2 14.1 13.3 M10.7 0.65 L11.3 0.35 11.7 0.9 11.75 1.85 11.2 1.8 10.7 0.65 M5.75 3.25 L6.45 3.6 6.1 4.05 5.2 3.9 5.75 3.25 M7.55 1.15 L6.9 1.4 6.75 0.45 7.65 -0.1 7.55 1.15" fill="#ffffff" fill-rule="evenodd" stroke="none"/>
    <path d="M6.8 3.7 L6.7 3.35 6.65 3.15 6.25 2.8 6.05 1.0 6.75 -0.2 7.85 -0.25 8.15 0.95 8.15 1.5 8.2 2.05 8.2 2.1 8.95 3.65 9.9 3.65 9.95 3.5 Q10.15 2.6 10.3 2.25 L10.35 2.25 10.35 1.9 10.35 1.15 10.35 0.4 11.55 -0.2 12.45 2.0 12.2 3.9 11.85 6.6 11.8 6.65 10.9 6.3 10.45 6.15 9.9 5.85 9.55 5.55 9.3 5.3 8.4 5.65 9.3 5.3 9.55 5.55 9.9 5.85 9.5 6.2 10.35 6.75 11.8 6.65 11.85 6.65 12.2 7.1 12.5 8.6 11.85 7.95 8.45 7.15 8.3 5.65 8.35 5.65 8.4 5.65 8.35 5.6 8.3 5.45 8.25 5.35 6.8 3.7 8.25 5.35 6.6 5.7 4.75 4.4 4.8 3.75 5.75 3.05 6.8 3.7 M20.55 9.0 L21.0 9.05 21.7 9.35 22.1 9.55 22.95 10.2 23.75 11.3 Q24.5 12.7 24.4 14.6 22.6 15.75 20.85 16.45 L20.8 15.25 20.95 15.2 20.75 15.05 20.65 14.8 20.65 14.75 20.6 14.7 Q19.7 13.0 18.8 12.45 L17.6 11.9 17.6 11.85 18.2 11.65 18.65 11.05 18.2 10.4 18.65 11.05 18.2 11.65 17.6 11.85 17.4 11.85 17.1 11.85 16.05 11.6 15.95 11.5 Q14.7 12.2 14.1 13.3 L13.8 13.1 13.8 13.2 Q13.65 13.45 13.65 13.65 L13.65 14.2 13.35 14.65 Q13.0 15.3 12.9 16.0 11.0 15.2 9.95 14.2 L9.95 14.15 10.1 13.5 9.95 13.45 10.0 12.75 10.15 11.95 10.0 12.75 9.95 13.45 9.05 13.05 9.35 14.0 8.9 14.15 6.3 13.3 5.9 13.15 5.9 11.3 6.3 11.45 8.9 12.4 10.15 11.95 Q10.45 11.15 11.1 10.3 L11.35 10.0 11.7 9.6 12.15 9.2 12.55 9.1 Q14.45 8.75 15.65 9.7 L16.05 10.05 16.2 10.25 17.1 10.1 Q17.75 10.1 18.2 10.4 L18.4 10.15 18.5 10.2 18.5 10.05 Q18.9 9.55 19.35 9.3 19.9 8.95 20.55 9.0 M18.05 28.4 L17.85 30.4 15.55 28.35 14.55 29.65 13.6 26.95 11.45 27.7 12.6 25.35 8.45 24.1 8.45 23.15 9.8 23.2 10.4 23.25 13.45 23.35 Q14.8 24.25 16.2 24.1 L18.3 26.05 18.35 26.05 19.85 27.4 19.55 28.35 18.15 27.5 18.05 28.4 M10.7 0.65 L11.2 1.8 11.75 1.85 11.7 0.9 11.3 0.35 10.7 0.65 M9.45 8.6 L9.6 8.7 8.5 9.0 7.5 8.45 7.95 7.85 9.45 8.6 M17.1 10.4 L16.5 10.55 16.45 10.55 16.25 10.9 16.5 11.25 16.75 11.35 17.1 11.4 17.65 11.25 17.7 11.25 17.95 10.9 17.9 10.8 17.7 10.55 17.1 10.4 M15.95 11.5 L15.9 11.5 15.6 10.95 Q15.6 10.6 16.05 10.35 L16.2 10.25 16.05 10.35 Q15.6 10.6 15.6 10.95 L15.9 11.5 15.95 11.5 M7.55 1.15 L7.65 -0.1 6.75 0.45 6.9 1.4 7.55 1.15 M5.75 3.25 L5.2 3.9 6.1 4.05 6.45 3.6 5.75 3.25 M7.0 7.25 L7.15 7.35 6.45 8.7 5.95 7.5 6.4 6.8 7.0 7.25" fill="#ffffed" fill-rule="evenodd" stroke="none"/>
    <path d="M23.65 17.05 Q26.0 18.2 27.75 19.6 L23.5 20.65 23.45 20.65 23.15 20.7 23.5 20.75 23.6 22.55 23.65 24.2 23.1 23.65 22.7 24.3 23.7 25.35 23.75 26.2 23.75 27.05 23.7 28.1 23.6 28.4 22.6 29.75 21.65 30.5 20.95 31.05 19.2 30.9 17.8 30.8 17.85 30.4 18.05 28.4 18.15 28.4 19.55 28.4 20.3 28.4 22.4 24.1 22.4 21.15 21.6 19.9 21.0 19.75 Q22.4 19.25 23.0 18.25 L23.65 17.05 M7.75 21.4 L7.3 21.65 7.1 21.25 7.75 20.6 7.75 21.4 M7.75 20.3 L6.95 19.1 7.35 18.65 7.8 19.0 7.75 20.3 M22.4 20.95 L22.4 21.15 22.4 20.95 22.9 20.75 23.15 20.7 22.9 20.75 22.75 20.8 22.4 20.95 M9.95 14.15 L9.95 14.2 10.0 14.9 9.75 14.6 9.35 14.0 9.05 13.05 9.95 13.45 9.95 13.5 9.95 14.15 M9.85 19.65 L10.7 19.8 11.05 19.9 10.85 20.7 10.35 20.6 9.85 21.1 9.85 20.65 9.0 21.65 8.9 21.8 8.35 21.2 9.55 19.75 9.85 20.05 9.85 19.65" fill="#6d915e" fill-rule="evenodd" stroke="none"/>
    <path d="M26.5 27.15 L27.15 27.95 28.2 28.35 28.05 28.95 26.35 28.8 26.05 29.9 25.6 29.9 25.65 28.6 25.2 28.25 24.05 28.9 23.65 28.5 24.1 28.15 24.8 27.6 25.05 26.7 24.55 26.25 23.7 25.35 22.7 24.3 23.1 23.65 23.65 24.2 25.6 26.05 26.5 27.15 M13.5 19.6 Q15.9 20.55 18.8 20.25 L19.5 20.1 21.0 19.75 21.6 19.9 22.4 21.15 22.4 24.1 20.3 28.4 19.55 28.4 19.55 28.35 19.85 27.4 18.35 26.05 18.4 26.05 18.3 26.05 16.2 24.1 Q14.8 24.25 13.45 23.35 L10.4 23.25 Q10.55 21.9 10.85 20.7 L11.05 19.9 11.45 18.4 12.0 18.85 13.5 19.6 M13.8 21.9 L14.0 20.75 13.8 21.9 M16.45 22.9 L16.5 21.8 16.45 22.9" fill="#8cac7d" fill-rule="evenodd" stroke="none"/>
    <path d="M8.25 5.35 L8.3 5.45 8.35 5.6 8.3 5.65 8.45 7.15 11.85 7.95 12.5 8.6 12.55 9.05 12.15 9.2 11.7 9.6 10.85 9.95 10.95 10.0 11.1 10.3 Q10.45 11.15 10.15 11.95 L8.9 12.4 6.3 11.45 6.9 9.95 7.0 9.95 6.65 9.75 6.3 9.65 5.05 6.55 5.5 5.7 4.75 5.25 4.75 4.4 6.6 5.7 8.25 5.35 M24.4 14.6 L24.35 14.75 Q24.2 15.85 23.65 17.05 L23.0 18.25 Q22.4 19.25 21.0 19.75 L19.5 20.1 19.85 19.45 20.65 17.45 20.85 16.45 Q22.6 15.75 24.4 14.6 M17.8 30.8 L17.6 32.3 16.3 30.5 15.15 28.85 14.9 29.95 14.25 32.55 12.7 32.4 12.85 29.15 12.85 29.05 12.9 27.85 11.8 28.5 10.35 29.3 9.45 28.2 9.2 27.95 9.0 27.7 9.8 26.9 9.0 27.7 9.2 27.95 9.25 28.35 8.85 28.65 Q8.25 28.65 7.7 28.25 L7.75 21.4 7.75 20.6 7.75 20.3 7.8 19.0 7.8 15.3 6.95 15.05 6.3 13.3 8.9 14.15 9.35 14.0 9.75 14.6 10.0 14.9 9.95 14.2 Q11.0 15.2 12.9 16.0 12.75 16.75 12.9 17.65 13.05 18.55 13.5 19.6 L12.0 18.85 11.45 18.4 10.75 17.3 Q10.25 16.35 10.05 15.3 L9.9 15.35 9.0 15.6 7.8 15.3 9.0 15.6 9.9 15.35 9.85 19.65 9.85 20.05 9.55 19.75 8.35 21.2 8.9 21.8 9.0 21.8 9.0 21.65 9.85 20.65 9.85 21.1 9.8 23.2 8.45 23.15 8.45 24.1 12.6 25.35 11.45 27.7 13.6 26.95 14.55 29.65 15.55 28.35 17.85 30.4 17.8 30.8 M9.45 8.6 L8.1 7.45 8.05 7.35 7.7 5.85 8.3 5.65 7.7 5.85 8.05 7.35 8.1 7.45 9.45 8.6 7.95 7.85 7.5 8.45 8.5 9.0 9.6 8.7 9.45 8.6 M7.0 9.95 L7.1 10.0 9.75 10.45 10.85 9.95 9.75 10.45 7.1 10.0 7.0 9.95 M7.0 7.25 L6.4 6.8 5.95 7.5 6.45 8.7 7.15 7.35 7.0 7.25 5.5 5.7 7.0 7.25 M10.0 14.9 L10.05 15.3 10.0 14.9 M9.8 25.0 L8.4 24.55 8.45 24.1 8.4 24.55 9.8 25.0 9.8 26.9 10.6 26.1 11.2 25.5 10.45 25.25 9.8 25.0" fill="#cfcf9e" fill-rule="evenodd" stroke="none"/>
    <path d="M21.65 30.5 L22.3 31.25 22.3 31.7 21.15 33.65 Q20.15 34.9 19.6 34.35 19.05 33.75 19.05 32.9 L19.05 32.4 19.2 30.9 20.95 31.05 21.65 30.5" fill="#2f3e28" fill-rule="evenodd" stroke="none"/>
    <path d="M19.35 9.3 Q18.9 9.55 18.5 10.05 L18.5 10.2 18.4 10.15 16.9 9.7 16.05 10.05 15.65 9.7 Q15.9 9.3 16.9 9.2 L19.0 9.3 19.35 9.3" fill="#dfe3b5" fill-rule="evenodd" stroke="none"/>
    <path d="M8.15 1.5 L8.15 0.95 7.85 -0.25 6.75 -0.2 6.05 1.0 6.25 2.8 6.65 3.15 6.7 3.35 6.8 3.7 8.25 5.35 8.3 5.45 8.35 5.6 8.35 5.65 8.4 5.65 9.3 5.3 9.55 5.55 9.9 5.85 10.45 6.15 M11.85 6.6 L12.2 3.9 12.45 2.0 11.55 -0.2 10.35 0.4 10.35 1.15 10.35 1.9 M10.3 2.25 Q10.15 2.6 9.95 3.5 L9.9 3.65 8.95 3.65 8.2 2.1 M20.55 9.0 L21.0 9.05 21.7 9.35 22.35 9.6 22.65 9.85 22.95 10.2 23.75 11.3 Q24.5 12.7 24.4 14.6 L24.35 14.75 Q24.2 15.85 23.65 17.05 L23.0 18.25 Q22.4 19.25 21.0 19.75 L19.5 20.1 18.8 20.25 Q15.9 20.55 13.5 19.6 L12.0 18.85 11.45 18.4 10.75 17.3 Q10.25 16.35 10.05 15.3 L10.0 14.9 9.95 14.2 9.95 14.15 9.95 13.5 9.95 13.45 10.0 12.75 10.15 11.95 Q10.45 11.15 11.1 10.3 L10.95 10.0 M27.75 19.6 L23.5 20.65 23.5 20.7 23.5 20.75 23.6 22.55 24.25 22.45 Q25.45 22.45 26.3 23.3 27.05 24.05 27.15 25.1 L27.15 25.3 Q27.1 26.35 26.5 27.15 M24.1 28.15 L23.7 28.1 23.6 28.4 22.6 29.75 21.65 30.5 20.95 31.05 19.2 30.9 17.8 30.8 17.6 32.3 16.3 30.5 14.9 29.95 14.25 32.55 12.7 32.4 12.85 29.15 12.85 29.05 12.0 28.6 11.8 28.5 12.9 27.85 12.85 29.05 M8.85 28.65 Q8.25 28.65 7.7 28.25 L7.75 21.4 7.75 20.6 7.75 20.3 7.8 19.0 7.8 15.3 6.95 15.05 6.3 13.3 5.9 13.15 5.9 11.3 6.3 11.45 6.9 9.95 M7.0 9.95 L6.65 9.75 6.3 9.65 5.05 6.55 5.5 5.7 7.0 7.25 M4.75 4.4 L4.8 3.75 5.75 3.05 6.8 3.7 M17.4 11.85 L17.1 11.85 16.05 11.6 15.95 11.5 15.9 11.5 15.6 10.95 Q15.6 10.6 16.05 10.35 L16.2 10.25 17.1 10.1 Q17.75 10.1 18.2 10.4 L18.65 11.05 18.2 11.65 17.6 11.85 17.4 11.85 M23.45 20.65 L23.5 20.65 M23.45 20.65 L23.15 20.7 22.9 20.75 22.75 20.8 22.4 20.95 22.4 21.15 M18.05 28.4 L17.85 30.4 M23.6 22.55 L23.65 24.2 M12.5 8.6 L12.2 7.1 11.85 6.65 M12.55 9.05 L12.5 8.6 M8.3 5.65 L7.7 5.85 8.05 7.35 8.1 7.45 9.45 8.6 M12.15 9.2 L12.55 9.05 14.1 8.45 Q17.35 7.1 20.55 9.0 M12.15 9.2 L11.7 9.6 11.35 10.0 11.1 10.3 M10.85 9.95 L9.75 10.45 7.1 10.0 7.0 9.95 M10.85 9.95 L11.7 9.6 M8.35 5.65 L8.3 5.65 M9.05 13.05 L9.95 13.45 M9.35 14.0 L8.9 14.15 6.3 13.3 M9.9 15.35 L10.05 15.3 M7.8 15.3 L9.0 15.6 9.9 15.35 9.85 19.65 9.85 20.05 9.55 19.75 8.35 21.2 8.9 21.8 9.0 21.8 9.0 21.65 9.85 20.65 9.85 21.1 9.8 23.2 8.45 23.15 8.45 24.1 8.4 24.55 9.8 25.0 10.45 25.25 11.2 25.5 10.6 26.1 9.8 26.9 9.0 27.7 9.2 27.95 9.45 28.2 10.35 29.3 11.8 28.5 M10.4 23.25 L13.45 23.35 Q14.8 24.25 16.2 24.1 L18.3 26.05 18.35 26.05 19.85 27.4 19.55 28.35 18.15 27.5 18.05 28.4 M10.4 23.25 L9.8 23.2 M6.3 11.45 L8.9 12.4 10.15 11.95 M10.6 26.1 L10.45 25.25 M14.9 29.95 L15.15 28.85 16.3 30.5 M9.8 26.9 L9.8 25.0 M9.25 28.35 L8.85 28.65 M9.25 28.35 L9.2 27.95 M23.7 25.35 L23.75 26.2 23.75 27.05 23.7 28.1" fill="none" stroke="#afa57a" stroke-linecap="round" stroke-linejoin="round" stroke-width="0.05"/>
    <path d="M14.0 20.75 L13.8 21.9 M16.5 21.8 L16.45 22.9" fill="none" stroke="#2f3e28" stroke-linecap="round" stroke-linejoin="round" stroke-width="0.05"/>
  </g>
</svg>
