<?xml version="1.0" encoding="UTF-8" standalone="no"?>
<svg xmlns:xlink="http://www.w3.org/1999/xlink" height="5.55px" width="5.0px" xmlns="http://www.w3.org/2000/svg">
  <g transform="matrix(1.0, 0.0, 0.0, 1.0, 2.5, 3.7)">
    <path d="M2.35 0.45 L2.4 0.65 2.35 0.85 2.35 0.45 M-2.35 0.8 L-2.4 0.65 -2.3 0.35 -2.35 0.8 M-2.3 -0.25 L-2.4 -0.6 -2.35 -0.8 -2.3 -0.25" fill="#5f829a" fill-rule="evenodd" stroke="none"/>
    <path d="M1.95 1.3 L1.7 1.4 0.85 1.7 1.3 0.6 1.95 1.3" fill="#27363f" fill-rule="evenodd" stroke="none"/>
    <path d="M2.35 -0.35 L2.35 0.45 2.35 0.85 2.0 1.25 1.95 1.3 1.3 0.6 0.85 1.7 0.0 1.75 -1.7 1.4 Q-2.3 1.15 -2.35 0.8 L-2.3 0.35 -2.3 -0.25 -1.95 0.0 -1.7 0.15 0.0 0.5 1.7 0.15 2.0 0.0 2.35 -0.35" fill="#a5dac6" fill-rule="evenodd" stroke="none"/>
    <path d="M-2.35 -0.8 L-1.7 -1.4 0.0 -1.7 1.7 -1.4 2.4 -0.6 2.35 -0.35 2.0 0.0 1.7 0.15 0.0 0.5 -1.7 0.15 -1.95 0.0 -2.3 -0.25 -2.35 -0.8" fill="#e3f3ed" fill-rule="evenodd" stroke="none"/>
    <path d="M-2.35 -0.8 L-1.7 -1.4 0.0 -1.7 1.7 -1.4 2.4 -0.6 2.35 -0.35 M2.35 0.45 L2.4 0.65 2.35 0.85 2.0 1.25 M1.95 1.3 L1.7 1.4 0.85 1.7 0.0 1.75 -1.7 1.4 Q-2.3 1.15 -2.35 0.8 L-2.4 0.65 -2.3 0.35 M-2.3 -0.25 L-2.4 -0.6 -2.35 -0.8" fill="none" stroke="#243339" stroke-linecap="round" stroke-linejoin="round" stroke-opacity="0.3137255" stroke-width="0.25"/>
    <path d="M2.35 -0.35 L2.35 0.45 2.35 0.85 M2.0 1.25 L1.95 1.3 M-2.3 0.35 L-2.3 -0.25 -2.35 -0.8 M-2.3 0.35 L-2.35 0.8" fill="none" stroke="#243339" stroke-linecap="round" stroke-linejoin="round" stroke-opacity="0.3137255" stroke-width="0.25"/>
    <path d="M1.3 -3.1 Q1.85 -2.6 1.95 -1.65 2.0 -0.75 1.5 -0.25 0.95 0.25 0.05 0.2 -0.85 0.1 -1.35 -0.4 -1.9 -0.9 -1.75 -1.75 -1.65 -2.6 -1.15 -3.1 -0.6 -3.6 0.1 -3.6 0.8 -3.6 1.3 -3.1" fill="#e3f3ed" fill-rule="evenodd" stroke="none"/>
    <path d="M1.3 -3.1 Q1.85 -2.6 1.95 -1.65 2.0 -0.75 1.5 -0.25 0.95 0.25 0.05 0.2 -0.85 0.1 -1.35 -0.4 -1.9 -0.9 -1.75 -1.75 -1.65 -2.6 -1.15 -3.1 -0.6 -3.6 0.1 -3.6 0.8 -3.6 1.3 -3.1 Z" fill="none" stroke="#243339" stroke-linecap="round" stroke-linejoin="round" stroke-opacity="0.3137255" stroke-width="0.25"/>
  </g>
</svg>
