<?xml version="1.0" encoding="UTF-8" standalone="no"?>
<svg xmlns:xlink="http://www.w3.org/1999/xlink" height="138.9px" width="64.55px" xmlns="http://www.w3.org/2000/svg">
  <g transform="matrix(1.0, 0.0, 0.0, 1.0, 32.1, 69.0)">
    <path d="M4.65 -69.0 Q8.75 -64.2 10.0 -58.4 L10.1 -57.75 10.2 -57.45 11.4 -29.3 11.5 -28.35 Q12.1 -11.0 13.65 2.6 L13.65 3.15 Q15.7 32.45 27.4 48.0 L32.0 51.55 31.9 51.75 25.0 51.65 25.0 51.35 Q9.75 38.6 7.2 21.15 4.9 39.35 12.15 53.5 L11.9 53.7 11.15 55.0 10.85 56.8 10.75 57.75 Q10.1 61.55 6.55 62.7 L0.65 63.45 0.2 63.45 Q-9.6 45.1 -9.95 0.0 -20.45 35.8 -16.55 65.1 L-16.55 65.2 Q-17.1 65.45 -17.5 65.8 -18.7 66.55 -20.2 67.0 -30.6 55.95 -31.9 41.55 L-31.65 36.6 Q-31.2 27.6 -28.85 6.65 -26.65 -12.8 -26.3 -23.6 -25.85 -40.4 -28.45 -54.1 -8.0 -58.55 4.65 -69.0" fill="#000000" fill-rule="evenodd" stroke="none"/>
    <path d="M32.0 51.55 L32.3 51.75 32.35 51.85 31.9 51.75 32.0 51.55 M25.0 51.65 L22.25 51.55 25.0 51.35 25.0 51.65 M12.25 53.5 L11.9 53.7 12.15 53.5 12.25 53.5 M-32.0 41.55 L-32.0 39.5 -31.9 41.55 -32.0 41.55" fill="#555ba0" fill-rule="evenodd" stroke="none"/>
    <path d="M22.25 51.55 L12.55 53.4 12.45 53.4 12.15 53.5 Q4.9 39.35 7.2 21.15 9.75 38.6 25.0 51.35 L22.25 51.55 M0.2 63.45 L-5.8 63.45 Q-12.95 63.35 -16.55 65.2 L-16.55 65.1 Q-20.45 35.8 -9.95 0.0 -9.6 45.1 0.2 63.45" fill="#2d2d2d" fill-rule="evenodd" stroke="none"/>
    <path d="M12.45 53.4 L12.35 53.5 12.25 53.5 12.15 53.5 12.45 53.4" fill="#43487e" fill-rule="evenodd" stroke="none"/>
    <path d="M-20.2 67.0 L-17.5 69.6 -17.3 69.8 Q-26.95 70.6 -32.1 66.15 L-32.0 41.55 -31.9 41.55 Q-30.6 55.95 -20.2 67.0" fill="#a7a7a7" fill-rule="evenodd" stroke="none"/>
    <path d="M4.65 -69.0 Q8.75 -64.2 10.0 -58.4 L10.1 -57.75 10.2 -57.45 11.4 -29.3 11.5 -28.35 Q12.1 -11.0 13.65 2.6 L13.65 3.15 Q15.7 32.45 27.4 48.0 L32.0 51.55 32.3 51.75 32.45 51.85 32.35 51.85 31.9 51.75 25.0 51.65 22.25 51.55 12.55 53.4 M12.45 53.4 L12.35 53.5 12.25 53.5 M11.9 53.7 L11.15 55.0 10.85 56.8 10.75 57.75 Q10.1 61.55 6.55 62.7 L0.65 63.45 0.2 63.45 -5.8 63.45 Q-12.95 63.35 -16.55 65.2 -17.1 65.45 -17.5 65.8 -18.7 66.55 -20.2 67.0 L-17.5 69.6 -17.3 69.8 Q-26.95 70.6 -32.1 66.15 M12.15 53.5 L11.9 53.7 M-31.9 41.55 L-32.0 41.55 M-20.2 67.0 Q-30.6 55.95 -31.9 41.55" fill="none" stroke="#0f121c" stroke-linecap="round" stroke-linejoin="round" stroke-width="0.05"/>
    <path d="M-10.95 -14.2 Q-13.0 -13.5 -14.5 -11.6 -15.8 -9.6 -15.8 -7.45 -15.8 -5.35 -14.5 -4.4 -13.0 -3.35 -10.95 -4.05 -8.9 -4.8 -7.6 -6.8 -6.1 -8.7 -6.1 -10.8 -6.1 -12.95 -7.6 -14.0 -8.9 -14.95 -10.95 -14.2 M-19.55 -2.65 Q-19.55 -8.5 -15.65 -13.95 -11.7 -19.35 -6.1 -21.3 -0.5 -23.25 3.4 -20.55 7.35 -17.8 7.35 -11.95 7.35 -8.45 6.05 -5.1 L1.55 -3.55 Q-1.65 0.05 4.15 0.8 L1.55 1.7 Q-1.8 5.2 -6.1 6.7 -11.35 8.5 -15.05 6.3 L-12.65 5.45 -12.65 0.95 -18.25 2.9 Q-19.55 0.65 -19.55 -2.65 M2.85 -15.85 L-0.15 -16.05 Q-2.0 -15.4 -3.3 -13.75 -4.45 -12.0 -4.45 -10.05 -4.45 -8.1 -3.3 -7.35 -2.0 -6.45 -0.15 -7.1 1.75 -7.75 2.85 -9.45 4.15 -11.05 4.15 -13.0 4.15 -14.95 2.85 -15.85 M3.95 6.65 Q3.95 7.85 3.4 8.8 2.85 9.8 2.1 10.05 1.35 10.3 0.8 9.7 0.25 9.15 0.25 7.95 0.25 6.8 0.8 5.85 1.35 4.85 2.1 4.6 2.85 4.35 3.4 4.95 3.95 5.5 3.95 6.65 M-3.5 10.45 Q-3.5 11.4 -4.25 12.45 -4.8 13.4 -5.75 13.7 L-7.4 13.55 Q-8.0 12.95 -8.0 12.0 -8.0 11.0 -7.4 10.05 -6.65 9.0 -5.75 8.65 -4.8 8.35 -4.25 8.95 -3.5 9.45 -3.5 10.45 M-15.25 12.95 Q-15.25 11.95 -14.7 11.05 -13.95 10.15 -13.0 9.85 L-11.5 9.95 Q-10.8 10.4 -10.8 11.4 -10.8 12.35 -11.5 13.25 -12.1 14.15 -13.0 14.5 L-14.7 14.35 Q-15.25 13.9 -15.25 12.95" fill="#ffffff" fill-rule="evenodd" stroke="none"/>
  </g>
</svg>
