<?xml version="1.0" encoding="UTF-8" standalone="no"?>
<svg xmlns:xlink="http://www.w3.org/1999/xlink" height="37.1px" width="17.25px" xmlns="http://www.w3.org/2000/svg">
  <g transform="matrix(1.0, 0.0, 0.0, 1.0, -283.6, -192.75)">
    <path d="M295.3 204.9 Q294.95 206.0 294.1 206.6 290.05 208.25 286.65 205.95 L286.6 205.95 285.2 202.55 285.15 202.05 284.8 198.0 284.6 196.75 285.0 196.65 286.25 198.1 287.0 198.75 Q291.5 199.65 295.2 202.3 L295.25 203.35 295.25 203.6 295.3 204.9" fill="#162d43" fill-rule="evenodd" stroke="none"/>
    <path d="M285.2 202.55 L286.6 205.95 286.65 205.95 Q290.05 208.25 294.1 206.6 294.95 206.0 295.3 204.9 L295.5 208.0 295.6 209.3 295.85 211.9 295.85 212.05 Q296.15 216.75 297.45 220.1 298.25 222.35 299.5 224.0 L300.75 224.95 300.7 225.0 298.85 225.0 298.85 224.9 Q296.3 222.75 295.1 220.1 294.35 218.55 294.1 216.85 293.9 218.55 294.0 220.1 294.15 223.0 295.45 225.5 L295.35 225.55 295.15 225.9 295.1 226.35 295.05 226.6 Q294.85 227.65 293.95 227.95 L292.35 228.15 292.25 228.15 Q290.7 225.3 290.05 220.1 289.55 216.3 289.55 211.2 288.15 215.85 287.7 220.1 287.2 224.55 287.75 228.6 L287.5 228.75 286.8 229.1 286.45 228.75 Q284.0 225.9 283.65 222.3 L283.75 220.95 283.8 220.1 284.5 212.95 284.85 209.3 285.0 208.0 285.15 204.9 285.2 202.55 M295.2 202.3 Q291.5 199.65 287.0 198.75 L286.25 198.1 285.0 196.65 285.3 196.55 289.25 196.65 Q293.0 196.75 293.45 192.75 294.5 194.05 294.85 195.6 L294.9 195.75 294.9 195.85 295.2 202.3" fill="#336699" fill-rule="evenodd" stroke="none"/>
    <path d="M295.35 225.55 L295.45 225.5 295.35 225.55 M298.85 224.9 L298.85 225.0 298.15 224.95 298.85 224.9 M300.7 225.0 L300.75 224.95 300.8 225.0 300.85 225.05 300.7 225.0 M283.65 222.3 L283.65 221.75 283.65 222.3" fill="#555ba0" fill-rule="evenodd" stroke="none"/>
    <path d="M287.75 228.6 Q287.2 224.55 287.7 220.1 288.15 215.85 289.55 211.2 289.55 216.3 290.05 220.1 290.7 225.3 292.25 228.15 L290.65 228.15 Q288.75 228.1 287.75 228.6 M295.45 225.5 Q294.15 223.0 294.0 220.1 293.9 218.55 294.1 216.85 294.35 218.55 295.1 220.1 296.3 222.75 298.85 224.9 L298.15 224.95 295.55 225.45 295.5 225.45 295.45 225.5" fill="#24486c" fill-rule="evenodd" stroke="none"/>
    <path d="M295.45 225.5 L295.5 225.45 295.5 225.5 295.45 225.5" fill="#43487e" fill-rule="evenodd" stroke="none"/>
    <path d="M283.65 222.3 Q284.0 225.9 286.45 228.75 L286.8 229.1 287.5 229.8 287.55 229.85 286.25 229.85 Q284.6 229.7 283.6 228.85 L283.65 222.3" fill="#88afd7" fill-rule="evenodd" stroke="none"/>
    <path d="M295.3 204.9 L295.25 203.6 295.25 203.35 295.2 202.3 294.9 195.85 294.9 195.75 294.85 195.6 Q294.5 194.05 293.45 192.75 M283.65 222.3 Q284.0 225.9 286.45 228.75 L286.8 229.1 287.5 228.75 287.75 228.6 Q288.75 228.1 290.65 228.15 L292.25 228.15 292.35 228.15 293.95 227.95 Q294.85 227.65 295.05 226.6 L295.1 226.35 295.15 225.9 295.35 225.55 295.45 225.5 295.5 225.5 295.5 225.45 M298.85 225.0 L300.7 225.0 300.85 225.05 300.8 225.0 300.75 224.95 299.5 224.0 Q298.25 222.35 297.45 220.1 296.15 216.75 295.85 212.05 L295.85 211.9 295.6 209.3 295.5 208.0 295.3 204.9 M295.55 225.45 L298.15 224.95 298.85 225.0 M283.6 228.85 Q284.6 229.7 286.25 229.85 L287.55 229.85 287.5 229.8 286.8 229.1" fill="none" stroke="#0f121c" stroke-linecap="round" stroke-linejoin="round" stroke-width="0.05"/>
    <path d="M293.8 205.1 Q291.1 205.65 289.3 204.75 287.5 203.9 286.7 201.8 285.9 199.65 285.85 197.6 285.8 195.5 289.7 196.7 293.6 197.85 294.1 194.85 294.55 191.85 296.45 196.0 298.35 200.1 297.4 202.3 296.45 204.5 293.8 205.1" fill="#336699" fill-rule="evenodd" stroke="none"/>
    <path d="M293.8 205.1 Q291.1 205.65 289.3 204.75 287.5 203.9 286.7 201.8 285.9 199.65 285.85 197.6 285.8 195.5 289.7 196.7 293.6 197.85 294.1 194.85 294.55 191.85 296.45 196.0 298.35 200.1 297.4 202.3 296.45 204.5 293.8 205.1 Z" fill="none" stroke="#000000" stroke-linecap="round" stroke-linejoin="round" stroke-width="0.05"/>
    <path d="M297.4 202.4 Q296.45 204.6 293.8 205.2 291.1 205.75 289.3 204.85 287.5 204.0 286.7 201.9 285.9 199.75 285.85 197.7 285.8 196.75 286.55 196.5 L287.0 198.0 Q287.8 200.1 289.6 200.95 291.4 201.85 294.1 201.3 296.5 200.75 297.5 198.95 298.0 201.05 297.4 202.4" fill="#24486c" fill-rule="evenodd" stroke="none"/>
  </g>
</svg>
