<?xml version="1.0" encoding="UTF-8" standalone="no"?>
<svg xmlns:xlink="http://www.w3.org/1999/xlink" height="214.85px" width="155.1px" xmlns="http://www.w3.org/2000/svg">
  <g transform="matrix(1.0, 0.0, 0.0, 1.0, 77.55, 107.4)">
    <path d="M67.25 -74.75 L72.85 -83.7 77.3 -33.45 77.3 107.2 63.45 105.45 66.65 93.3 43.8 98.35 43.8 93.85 19.75 99.95 -77.3 87.7 -73.95 77.05 -65.2 -80.35 -56.35 -104.35 -47.25 -104.35 -52.0 -65.3 -41.5 -107.15 -20.95 -104.35 -20.95 -74.2 -14.05 -104.35 67.25 -104.35 67.25 -74.75 M0.55 51.45 L-59.05 44.5 -55.55 73.75 -31.9 73.75 43.8 73.75 43.8 56.45 0.55 51.45 M-3.1 78.75 L-4.75 88.25 31.5 88.25 36.0 78.75 -3.1 78.75" fill="#e9e6d1" fill-rule="evenodd" stroke="none"/>
    <path d="M-31.9 73.75 L-55.55 73.75 -59.05 44.5 0.55 51.45 Q-14.7 64.0 -31.9 73.75" fill="#dbdac4" fill-rule="evenodd" stroke="none"/>
    <path d="M0.55 51.45 L43.8 56.45 43.8 73.75 -31.9 73.75 Q-14.7 64.0 0.55 51.45 M-3.1 78.75 L36.0 78.75 31.5 88.25 -4.75 88.25 -3.1 78.75" fill="#c4c29f" fill-rule="evenodd" stroke="none"/>
    <path d="M67.25 -74.75 L72.85 -83.7 77.3 -33.45 77.3 107.2 63.45 105.45 66.65 93.3 43.8 98.35 43.8 93.85 19.75 99.95 -77.3 87.7 -73.95 77.05 -65.2 -80.35 -56.35 -104.35 -47.25 -104.35 -52.0 -65.3 -41.5 -107.15 -20.95 -104.35 -20.95 -74.2 -14.05 -104.35 67.25 -104.35 67.25 -74.75 Z" fill="none" stroke="#786836" stroke-linecap="round" stroke-linejoin="round" stroke-opacity="0.49803922" stroke-width="0.5"/>
    <path d="M72.85 -83.7 L77.3 -33.45 77.3 107.2 63.45 105.45 66.65 93.3 43.8 98.35 43.8 93.85 19.75 99.95 -65.0 89.25 Q-47.65 82.65 -31.9 73.75 L43.8 73.75 43.8 56.45 0.55 51.45 Q12.4 41.65 23.1 30.2 46.15 -38.05 53.8 -104.35 L67.25 -104.35 67.25 -74.75 72.85 -83.7 M-3.1 78.75 L-4.75 88.25 31.5 88.25 36.0 78.75 -3.1 78.75" fill="#786836" fill-opacity="0.21960784" fill-rule="evenodd" stroke="none"/>
  </g>
</svg>
