<?xml version="1.0" encoding="UTF-8" standalone="no"?>
<svg xmlns:xlink="http://www.w3.org/1999/xlink" height="33.4px" width="15.5px" xmlns="http://www.w3.org/2000/svg">
  <g transform="matrix(1.0, 0.0, 0.0, 1.0, -267.25, -183.75)">
    <path d="M282.65 212.75 L282.7 212.75 282.75 212.8 282.6 212.75 282.65 212.75 M280.95 212.75 L280.3 212.75 280.95 212.7 280.95 212.75 M277.9 213.2 L277.8 213.25 277.85 213.2 277.9 213.2" fill="#555ba0" fill-rule="evenodd" stroke="none"/>
    <path d="M276.05 183.75 Q277.05 184.9 277.35 186.3 L277.4 186.45 277.7 193.3 277.7 193.5 Q277.85 197.7 278.25 200.95 L278.25 201.1 Q278.7 208.1 281.55 211.85 L282.65 212.75 282.6 212.75 280.95 212.75 280.95 212.7 Q277.3 209.6 276.7 205.4 276.1 209.8 277.85 213.2 L277.8 213.25 277.6 213.55 277.55 214.0 277.55 214.2 Q277.35 215.15 276.5 215.4 L275.1 215.6 275.0 215.6 Q272.6 211.15 272.55 200.35 270.05 208.95 270.95 216.0 L270.75 216.15 270.1 216.45 Q267.55 213.75 267.25 210.3 L267.35 209.15 268.0 201.95 268.6 194.65 Q268.75 190.6 268.1 187.35 273.0 186.25 276.05 183.75" fill="#cccc00" fill-rule="evenodd" stroke="none"/>
    <path d="M280.3 212.75 L277.95 213.2 277.9 213.2 277.85 213.2 Q276.1 209.8 276.7 205.4 277.3 209.6 280.95 212.7 L280.3 212.75 M275.0 215.6 L273.55 215.6 Q271.85 215.55 270.95 216.0 270.05 208.95 272.55 200.35 272.6 211.15 275.0 215.6" fill="#cc6600" fill-rule="evenodd" stroke="none"/>
    <path d="M270.1 216.45 L270.75 217.05 270.8 217.1 Q268.45 217.3 267.25 216.25 L267.25 210.3 Q267.55 213.75 270.1 216.45" fill="#ccff00" fill-rule="evenodd" stroke="none"/>
    <path d="M276.05 183.75 Q277.05 184.9 277.35 186.3 L277.4 186.45 277.7 193.3 277.7 193.5 Q277.85 197.7 278.25 200.95 L278.25 201.1 Q278.7 208.1 281.55 211.85 L282.65 212.75 282.7 212.75 282.75 212.8 282.6 212.75 280.95 212.75 280.3 212.75 277.95 213.2 277.9 213.2 M277.8 213.25 L277.6 213.55 277.55 214.0 277.55 214.2 Q277.35 215.15 276.5 215.4 L275.1 215.6 275.0 215.6 273.55 215.6 Q271.85 215.55 270.95 216.0 L270.75 216.15 270.1 216.45 270.75 217.05 270.8 217.1 Q268.45 217.3 267.25 216.25 M277.85 213.2 L277.8 213.25 M270.1 216.45 Q267.55 213.75 267.25 210.3" fill="none" stroke="#0f121c" stroke-linecap="round" stroke-linejoin="round" stroke-width="0.05"/>
  </g>
</svg>
