<?xml version="1.0" encoding="UTF-8" standalone="no"?>
<svg xmlns:xlink="http://www.w3.org/1999/xlink" height="72.2px" width="114.75px" xmlns="http://www.w3.org/2000/svg">
  <g transform="matrix(1.0, 0.0, 0.0, 1.0, -308.25, -106.3)">
    <path d="M401.0 119.8 L409.2 117.75 421.75 119.8 419.2 131.65 405.8 135.05 403.2 131.0 402.15 135.95 388.8 139.3 414.7 152.65 408.7 163.05 396.55 159.7 390.5 160.7 381.0 143.2 360.4 158.65 360.6 158.9 340.2 156.55 347.05 143.05 323.55 151.9 308.75 147.8 319.7 134.2 333.25 133.0 354.4 130.6 330.6 120.65 341.75 106.8 389.2 109.2 373.8 122.2 401.0 119.8 M389.8 134.4 L397.8 129.6 367.8 134.4 389.8 134.4" fill="#dbebfd" fill-rule="evenodd" stroke="none"/>
    <path d="M421.75 119.8 Q421.75 131.8 422.5 137.55 L419.2 163.05 418.15 163.05 414.7 152.65 388.8 139.3 402.15 135.95 403.2 131.0 405.8 135.05 419.2 131.65 421.75 119.8 M412.4 176.05 L399.8 171.05 396.55 159.7 408.7 163.05 412.4 176.05 M378.65 177.05 L378.6 177.05 381.0 143.2 390.5 160.7 378.65 177.05 M375.15 178.0 L323.75 169.8 308.75 147.8 323.55 151.9 338.8 167.55 340.2 156.55 360.6 158.9 375.15 178.0" fill="#9bc7fb" fill-rule="evenodd" stroke="none"/>
    <path d="M399.8 171.05 L378.65 177.05 390.5 160.7 396.55 159.7 399.8 171.05 M378.6 177.05 L375.15 178.0 360.6 158.9 360.4 158.65 381.0 143.2 378.6 177.05 M333.25 133.0 L330.6 120.65 354.4 130.6 333.25 133.0 M389.8 134.4 L367.8 134.4 397.8 129.6 389.8 134.4" fill="#157af4" fill-rule="evenodd" stroke="none"/>
    <path d="M389.2 109.2 L401.0 119.8 373.8 122.2 389.2 109.2 M418.15 163.05 L420.05 168.8 412.4 176.05 408.7 163.05 414.7 152.65 418.15 163.05 M340.2 156.55 L338.8 167.55 323.55 151.9 347.05 143.05 340.2 156.55" fill="#f9fcff" fill-rule="evenodd" stroke="none"/>
    <path d="M389.2 109.2 L401.0 119.8 409.2 117.75 421.75 119.8 Q421.75 131.8 422.5 137.55 L419.2 163.05 418.15 163.05 420.05 168.8 412.4 176.05 399.8 171.05 378.65 177.05 378.6 177.05 375.15 178.0 323.75 169.8 308.75 147.8 319.7 134.2 333.25 133.0 330.6 120.65 341.75 106.8 389.2 109.2 Z" fill="none" stroke="#000000" stroke-linecap="round" stroke-linejoin="round" stroke-opacity="0.5019608" stroke-width="1.0"/>
  </g>
</svg>
