<?xml version="1.0" encoding="UTF-8" standalone="no"?>
<svg xmlns:xlink="http://www.w3.org/1999/xlink" height="158.8px" width="283.35px" xmlns="http://www.w3.org/2000/svg">
  <g transform="matrix(1.0, 0.0, 0.0, 1.0, -147.9, -175.35)">
    <path d="M156.85 224.2 L212.1 211.05 228.95 201.55 325.75 201.55 341.05 193.15 380.5 193.15 403.65 201.05 425.75 217.35 409.0 235.3 389.5 236.8 383.65 232.6 412.1 215.25 368.95 200.0 317.35 211.55 247.35 211.55 226.0 216.35 200.0 222.1 163.65 231.05 156.85 224.2 M245.75 249.45 L240.5 258.9 149.5 238.9 Q156.6 235.0 163.65 231.05 L225.15 244.85 245.75 249.45" fill="#ffffd5" fill-rule="evenodd" stroke="none"/>
    <path d="M389.5 236.8 L409.0 235.3 425.75 217.35 423.1 237.85 417.85 248.95 408.9 272.0 407.35 273.65 380.0 308.4 393.2 253.1 336.3 271.05 307.1 299.15 303.15 287.85 288.95 287.85 275.25 296.8 266.3 296.8 275.25 296.8 288.95 287.85 303.15 287.85 307.1 299.15 282.1 323.15 230.0 318.4 227.4 312.0 228.4 305.25 225.1 282.5 232.6 277.35 229.45 270.5 240.5 258.9 229.45 270.5 232.6 277.35 225.1 282.5 228.4 305.25 181.05 288.9 153.1 253.7 149.5 238.9 240.5 258.9 307.35 262.1 376.8 241.55 389.5 236.8 393.2 253.1 409.0 235.3 393.2 253.1 389.5 236.8 M228.4 305.25 L283.95 274.9 288.95 287.85 283.95 274.9 228.4 305.25 M307.35 262.1 L283.95 274.9 270.5 270.0 283.95 274.9 307.35 262.1 M212.6 291.05 L225.1 282.5 212.6 291.05" fill="#b6ac8b" fill-rule="evenodd" stroke="none"/>
    <path d="M423.1 237.85 L425.75 253.15 408.9 272.0 417.85 248.95 423.1 237.85 M380.0 308.4 L336.3 308.4 336.3 271.05 393.2 253.1 380.0 308.4 M147.9 297.85 L153.1 253.7 181.05 288.9 147.9 297.85" fill="#a59a72" fill-rule="evenodd" stroke="none"/>
    <path d="M156.85 224.2 L163.65 231.05 Q156.6 235.0 149.5 238.9 L156.85 224.2 M383.65 232.6 L389.5 236.8 376.8 241.55 307.35 262.1 240.5 258.9 245.75 249.45 256.2 248.8 312.6 245.25 325.8 241.6 339.05 237.9 357.9 232.6 383.65 232.6" fill="#ffffb7" fill-rule="evenodd" stroke="none"/>
    <path d="M163.65 231.05 L200.0 222.1 226.0 216.35 247.35 211.55 317.35 211.55 368.95 200.0 412.1 215.25 383.65 232.6 357.9 232.6 339.05 237.9 325.8 241.6 314.75 238.9 319.45 231.05 339.05 237.9 319.45 231.05 314.75 238.9 313.15 241.55 300.5 241.55 300.5 235.55 297.9 241.55 285.25 241.55 268.4 245.75 255.75 232.1 238.95 232.1 225.15 244.85 238.95 232.1 226.0 216.35 238.95 232.1 255.75 232.1 268.4 245.75 256.2 248.8 245.75 249.45 225.15 244.85 163.65 231.05 M230.0 318.4 Q226.85 318.4 223.65 323.15 L227.4 312.0 230.0 318.4 M317.35 211.55 L312.6 223.15 303.15 229.45 300.5 235.55 303.15 229.45 312.6 223.15 317.35 211.55 M330.0 218.4 L312.6 223.15 330.0 218.4" fill="#7c7350" fill-rule="evenodd" stroke="none"/>
    <path d="M336.3 308.4 L315.25 314.15 311.15 306.65 312.65 314.85 282.1 323.15 307.1 299.15 336.3 271.05 336.3 308.4 M223.65 323.15 L190.0 308.9 147.9 297.85 181.05 288.9 228.4 305.25 227.4 312.0 223.65 323.15 M311.15 306.65 L307.1 299.15 311.15 306.65" fill="#8e845b" fill-rule="evenodd" stroke="none"/>
    <path d="M425.75 217.35 L403.65 201.05 380.5 193.15 341.05 193.15 325.75 201.55 228.95 201.55 212.1 211.05 156.85 224.2 163.65 231.05 200.0 222.1 226.0 216.35 247.35 211.55 317.35 211.55 368.95 200.0 412.1 215.25 383.65 232.6 389.5 236.8 409.0 235.3 425.75 217.35 423.1 237.85 425.75 253.15 408.9 272.0 407.35 273.65 380.0 308.4 336.3 308.4 315.25 314.15 311.15 306.65 312.65 314.85 282.1 323.15 230.0 318.4 Q226.85 318.4 223.65 323.15 L190.0 308.9 147.9 297.85 153.1 253.7 149.5 238.9 156.85 224.2 M408.9 272.0 L417.85 248.95 423.1 237.85 M240.5 258.9 L307.35 262.1 376.8 241.55 389.5 236.8 393.2 253.1 409.0 235.3 M339.05 237.9 L357.9 232.6 383.65 232.6 M325.8 241.6 L339.05 237.9 319.45 231.05 314.75 238.9 325.8 241.6 312.6 245.25 256.2 248.8 245.75 249.45 240.5 258.9 149.5 238.9 Q156.6 235.0 163.65 231.05 L225.15 244.85 238.95 232.1 226.0 216.35 M336.3 271.05 L393.2 253.1 380.0 308.4 M336.3 308.4 L336.3 271.05 307.1 299.15 311.15 306.65 M268.4 245.75 L285.25 241.55 297.9 241.55 300.5 235.55 303.15 229.45 312.6 223.15 317.35 211.55 M300.5 235.55 L300.5 241.55 313.15 241.55 314.75 238.9 M268.4 245.75 L255.75 232.1 238.95 232.1 M307.1 299.15 L303.15 287.85 288.95 287.85 275.25 296.8 266.3 296.8 M270.5 270.0 L283.95 274.9 307.35 262.1 M288.95 287.85 L283.95 274.9 228.4 305.25 227.4 312.0 230.0 318.4 M256.2 248.8 L268.4 245.75 M240.5 258.9 L229.45 270.5 232.6 277.35 225.1 282.5 228.4 305.25 181.05 288.9 147.9 297.85 M225.1 282.5 L212.6 291.05 M227.4 312.0 L223.65 323.15 M282.1 323.15 L307.1 299.15 M225.15 244.85 L245.75 249.45 M153.1 253.7 L181.05 288.9 M312.6 223.15 L330.0 218.4" fill="none" stroke="#000000" stroke-linecap="round" stroke-linejoin="round" stroke-opacity="0.4" stroke-width="0.05"/>
    <path d="M323.0 204.3 L328.6 183.4 333.65 193.65 337.7 178.55 Q338.95 183.1 340.55 187.55 L346.55 175.35 348.95 188.0 352.8 197.05 342.95 194.4 323.0 204.3" fill="#a9a94b" fill-rule="evenodd" stroke="none"/>
    <path d="M323.0 204.3 L328.6 183.4 333.65 193.65 337.7 178.55 Q338.95 183.1 340.55 187.55 L346.55 175.35 348.95 188.0" fill="none" stroke="#660000" stroke-linecap="round" stroke-linejoin="round" stroke-width="0.05"/>
    <path d="M348.95 188.0 L352.8 197.05 342.95 194.4 323.0 204.3" fill="none" stroke="#351b00" stroke-linecap="round" stroke-linejoin="round" stroke-opacity="0.4509804" stroke-width="0.5"/>
    <path d="M388.35 197.6 L403.75 188.65 400.15 196.55 411.3 190.1 407.35 196.35 417.7 192.4 411.3 200.4 407.85 207.1 404.45 201.2 388.35 197.6" fill="#a9a94b" fill-rule="evenodd" stroke="none"/>
    <path d="M388.35 197.6 L403.75 188.65 400.15 196.55 411.3 190.1 407.35 196.35 417.7 192.4 411.3 200.4" fill="none" stroke="#660000" stroke-linecap="round" stroke-linejoin="round" stroke-width="0.05"/>
    <path d="M411.3 200.4 L407.85 207.1 404.45 201.2 388.35 197.6" fill="none" stroke="#351b00" stroke-linecap="round" stroke-linejoin="round" stroke-opacity="0.4509804" stroke-width="0.5"/>
    <path d="M421.85 248.8 L431.1 239.55 424.55 240.3 431.25 233.6 425.85 235.0 430.55 228.3 423.4 231.05 417.7 232.0 421.65 235.95 421.85 248.8" fill="#a9a94b" fill-rule="evenodd" stroke="none"/>
    <path d="M421.85 248.8 L431.1 239.55 424.55 240.3 431.25 233.6 425.85 235.0 430.55 228.3 423.4 231.05" fill="none" stroke="#660000" stroke-linecap="round" stroke-linejoin="round" stroke-width="0.05"/>
    <path d="M423.4 231.05 L417.7 232.0 421.65 235.95 421.85 248.8" fill="none" stroke="#351b00" stroke-linecap="round" stroke-linejoin="round" stroke-opacity="0.4509804" stroke-width="0.5"/>
    <path d="M256.7 249.6 L253.8 247.8 253.7 247.8 231.8 234.5 231.4 235.9 248.9 255.0 249.6 255.7 248.9 255.0 232.2 280.2 235.15 281.3 233.85 285.0 247.0 291.7 229.7 322.4 233.95 333.2 253.55 295.1 255.9 290.55 235.35 281.3 256.7 249.6 M248.4 289.2 L247.0 291.7 253.55 295.1 247.0 291.7 248.4 289.2" fill="#d61f1f" fill-rule="evenodd" stroke="none"/>
    <path d="M255.9 290.55 L256.4 289.65 257.3 249.95 256.7 249.6 235.35 281.3 255.9 290.55 M231.4 235.9 L230.25 234.7 192.1 246.0 191.5 247.15 208.2 279.2 208.35 278.75 219.7 275.9 220.25 275.75 220.4 275.15 231.4 235.9 M203.75 293.35 L206.7 295.95 212.9 281.05 209.2 280.95 203.75 293.35 M224.9 310.15 L219.3 310.0 228.05 334.15 233.75 333.5 233.95 333.2 229.7 322.4 224.95 310.2 224.9 310.15" fill="#f9d5d5" fill-rule="evenodd" stroke="none"/>
    <path d="M208.2 279.2 L201.3 294.45 206.2 298.95 208.35 300.9 212.25 304.3 222.65 300.2 Q228.35 291.6 226.6 285.55 L226.6 285.4 226.35 284.65 220.85 275.95 220.25 275.75 220.25 275.8 219.7 275.9 208.35 278.75 208.2 279.2 208.45 279.9 208.2 279.2 M203.75 293.35 L209.2 280.95 212.9 281.05 206.7 295.95 203.75 293.35" fill="#ea6f6f" fill-rule="evenodd" stroke="none"/>
    <path d="M248.9 255.0 L231.4 235.9 220.4 275.15 220.85 275.95 232.1 280.2 232.2 280.2 248.9 255.0 M201.3 294.45 L177.85 280.95 194.2 309.85 206.2 298.95 201.3 294.45 M233.85 285.0 L225.1 310.1 224.95 310.2 229.7 322.4 247.0 291.7 233.85 285.0" fill="#821313" fill-rule="evenodd" stroke="none"/>
    <path d="M220.85 275.95 L226.35 284.65 226.6 285.4 226.6 285.55 Q228.35 291.6 222.65 300.2 L212.25 304.3 218.7 310.0 219.3 310.0 224.9 310.15 225.1 310.1 233.85 285.0 235.15 281.3 232.2 280.2 232.1 280.2 220.85 275.95" fill="#e34040" fill-rule="evenodd" stroke="none"/>
    <path d="M191.5 247.15 L176.2 278.0 177.85 280.95 201.3 294.45 208.2 279.2 191.5 247.15 M208.35 300.9 L198.05 312.8 228.05 334.15 219.3 310.0 218.7 310.0 212.25 304.3 208.35 300.9" fill="#e64f4f" fill-rule="evenodd" stroke="none"/>
    <path d="M206.2 298.95 L194.2 309.85 194.3 310.1 198.05 312.8 208.35 300.9 206.2 298.95" fill="#c61c1c" fill-rule="evenodd" stroke="none"/>
    <path d="M231.8 234.5 L231.5 234.25 230.25 234.7 231.4 235.9 231.8 234.5" fill="url(#gradient0)" fill-rule="evenodd" stroke="none"/>
    <path d="M220.4 275.15 L220.25 275.75 220.85 275.95 220.4 275.15 M225.1 310.1 L224.9 310.15 224.95 310.2 225.1 310.1" fill="url(#gradient1)" fill-rule="evenodd" stroke="none"/>
    <path d="M253.8 247.8 L253.7 247.8 M230.25 234.7 L229.8 234.2 M249.6 255.7 L248.9 255.0 231.4 235.9 230.25 234.7 M208.35 300.9 L198.05 312.8 M220.4 275.15 L220.85 275.95 226.35 284.65 226.6 285.4 226.6 285.55 Q228.35 291.6 222.65 300.2 L212.25 304.3 M232.1 280.2 L232.2 280.2 248.9 255.0 M233.85 285.0 L247.0 291.7 229.7 322.4 M253.55 295.1 L247.0 291.7 248.4 289.2" fill="none" stroke="#999999" stroke-linecap="round" stroke-linejoin="round" stroke-opacity="0.4117647" stroke-width="0.05"/>
    <path d="M255.9 290.55 L256.4 289.65 257.3 249.95 256.7 249.6 253.8 247.8 M253.7 247.8 L231.8 234.5 231.5 234.25 230.25 234.7 192.1 246.0 191.5 247.15 191.05 246.3 M231.4 235.9 L231.8 234.5 M177.85 280.95 L176.2 278.0 191.5 247.15 208.2 279.2 201.3 294.45 177.85 280.95 176.7 280.15 M219.7 275.9 L208.35 278.75 208.2 279.2 208.45 279.9 M194.2 309.85 L206.2 298.95 208.35 300.9 212.25 304.3 218.7 310.0 219.3 310.0 224.9 310.15 225.1 310.1 233.85 285.0 235.15 281.3 232.2 280.2 M198.05 312.8 L194.3 310.1 194.2 309.85 177.85 280.95 M206.2 298.95 L201.3 294.45 M220.25 275.75 L220.25 275.8 219.7 275.9 220.25 275.75 220.4 275.15 231.4 235.9 M220.85 275.95 L220.25 275.75 M229.7 322.4 L224.95 310.2 224.9 310.15 M220.85 275.95 L232.1 280.2 M255.9 290.55 L253.55 295.1 233.95 333.2 229.7 322.4 M233.95 333.2 L233.75 333.5 228.05 334.15 219.3 310.0 M256.7 249.6 L235.35 281.3 255.9 290.55 M228.05 334.15 L198.05 312.8" fill="none" stroke="#999999" stroke-linecap="round" stroke-linejoin="round" stroke-opacity="0.4117647" stroke-width="0.05"/>
  </g>
  <defs>
    <radialGradient cx="0" cy="0" gradientTransform="matrix(-0.9437, 0.3299, 0.25, 1.0686, 546.85, -19.75)" gradientUnits="userSpaceOnUse" id="gradient0" r="819.2" spreadMethod="pad">
      <stop offset="0.10196078431372549" stop-color="#ffffff"/>
      <stop offset="0.3137254901960784" stop-color="#c4f0c6"/>
    </radialGradient>
    <radialGradient cx="0" cy="0" gradientTransform="matrix(-0.9437, 0.3299, 0.25, 1.0686, 546.85, -19.75)" gradientUnits="userSpaceOnUse" id="gradient1" r="819.2" spreadMethod="pad">
      <stop offset="0.10196078431372549" stop-color="#ffffff"/>
      <stop offset="0.3137254901960784" stop-color="#18611c"/>
    </radialGradient>
  </defs>
</svg>
