<?xml version="1.0" encoding="UTF-8" standalone="no"?>
<svg xmlns:xlink="http://www.w3.org/1999/xlink" height="86.45px" width="75.4px" xmlns="http://www.w3.org/2000/svg">
  <g transform="matrix(1.0, 0.0, 0.0, 1.0, 37.65, 43.2)">
    <path d="M-11.85 -40.65 Q-12.15 -37.45 -8.75 -38.1 0.9 -40.95 10.55 -40.8 L14.3 -40.1 15.05 -41.6 Q16.5 -40.3 16.6 -38.65 L16.75 -38.2 17.55 -34.85 17.75 -33.85 18.35 -29.05 Q18.8 -22.35 17.0 -16.5 L13.8 -16.5 Q15.95 -20.9 15.65 -28.45 L14.8 -34.35 13.6 -29.8 Q12.7 -34.45 8.7 -35.4 L-7.0 -33.6 -8.75 -35.8 -10.65 -35.8 Q-12.9 -36.7 -12.45 -39.2 L-11.85 -40.65 M15.4 -35.45 Q14.95 -37.45 12.6 -39.1 1.3 -40.3 -8.75 -35.8 1.3 -40.3 12.6 -39.1 14.95 -37.45 15.4 -35.45 M33.4 -28.85 Q32.45 -27.6 31.9 -24.95 L31.6 -20.7 31.4 -18.55 28.45 -17.1 Q24.5 -15.15 20.25 -14.85 19.0 -20.85 20.25 -26.9 21.65 -26.05 26.0 -26.9 L32.05 -28.0 33.4 -28.85 M9.3 35.15 L9.25 35.5 Q7.35 39.0 3.05 40.55 -3.55 43.4 -10.5 43.25 -12.9 41.9 -14.6 39.8 L-16.2 41.3 Q-23.6 41.1 -30.8 39.65 -34.85 38.7 -37.05 35.55 -38.25 33.7 -37.05 30.5 -36.6 33.5 -34.0 34.3 L-24.7 36.15 Q-18.75 35.4 -16.05 32.75 L-8.6 24.5 -7.5 24.55 -9.1 26.3 Q-12.4 30.05 -15.0 34.5 -13.35 37.55 -9.75 36.5 L-1.1 34.1 Q4.5 30.95 5.0 27.0 6.25 22.05 2.8 17.95 -7.2 15.7 -18.25 16.8 L-16.85 15.1 0.6 15.8 1.85 16.0 2.7 16.1 Q6.75 18.6 8.85 22.1 10.0 25.65 10.1 29.05 L9.3 35.15 M-4.35 -29.1 Q-4.8 -29.75 -4.1 -29.6 L-5.95 -32.0 0.2 -27.25 -3.45 -29.4 -0.95 -24.4 -4.35 -29.1 M-5.2 -42.85 Q-4.75 -42.0 -3.8 -42.95 L-6.7 -39.7 -5.2 -42.85 M-14.6 39.8 L-15.7 38.3 -15.7 35.7 -15.0 34.5 -15.7 35.7 -15.7 38.3 -14.6 39.8" fill="#333333" fill-rule="evenodd" stroke="none"/>
    <path d="M15.05 -41.6 L14.3 -40.1 10.55 -40.8 Q0.9 -40.95 -8.75 -38.1 -12.15 -37.45 -11.85 -40.65 L-9.7 -42.35 -5.2 -42.85 -6.7 -39.7 -3.8 -42.95 13.95 -42.4 15.05 -41.6 M17.55 -34.85 L34.95 -36.4 37.55 -34.75 Q38.05 -32.55 37.15 -31.25 L33.4 -28.85 32.05 -28.0 26.0 -26.9 Q21.65 -26.05 20.25 -26.9 L21.5 -28.65 Q26.55 -29.15 31.55 -31.3 34.8 -32.9 34.35 -33.95 32.95 -36.15 17.75 -33.85 L17.55 -34.85 M-37.05 30.5 Q-33.35 27.5 -29.5 26.0 L-24.85 22.45 -20.9 19.5 -19.7 18.55 -18.25 16.8 Q-7.2 15.7 2.8 17.95 6.25 22.05 5.0 27.0 4.5 30.95 -1.1 34.1 L-9.75 36.5 Q-13.35 37.55 -15.0 34.5 -12.4 30.05 -9.1 26.3 -7.4 25.3 -5.7 26.3 L-3.65 28.0 Q-2.0 27.7 -3.75 26.05 -2.0 26.2 -2.45 24.45 L-5.25 22.8 Q-7.9 21.95 -10.6 23.25 -11.45 24.25 -10.45 24.75 L-8.6 24.5 -16.05 32.75 Q-18.75 35.4 -24.7 36.15 L-34.0 34.3 Q-36.6 33.5 -37.05 30.5 M-3.5 -16.5 Q-2.7 -19.9 -3.5 -25.9 L-4.35 -29.1 -0.95 -24.4 -3.45 -29.4 0.2 -27.25 -5.95 -32.0 -7.0 -33.6 8.7 -35.4 Q12.7 -34.45 13.6 -29.8 L14.8 -34.35 15.65 -28.45 Q15.95 -20.9 13.8 -16.5 L9.95 -16.5 Q9.45 -15.2 8.0 -16.5 L4.2 -16.5 Q4.15 -14.35 1.85 -16.5 L-3.5 -16.5" fill="#666666" fill-rule="evenodd" stroke="none"/>
    <path d="M31.1 -8.3 L31.1 -7.4 31.1 -6.5 31.35 -5.9 23.65 -1.1 24.3 14.4 21.35 20.8 18.6 10.0 16.15 6.4 17.95 -4.6 23.35 -5.35 Q27.25 -6.3 31.1 -8.3 M17.0 -16.5 Q18.8 -22.35 18.35 -29.05 L17.75 -33.85 Q32.95 -36.15 34.35 -33.95 34.8 -32.9 31.55 -31.3 26.55 -29.15 21.5 -28.65 L20.25 -26.9 Q19.0 -20.85 20.25 -14.85 L19.2 -14.8 18.0 -16.5 17.0 -16.5 M18.35 -29.05 L21.5 -28.65 18.35 -29.05 M-3.75 26.05 Q-2.0 27.7 -3.65 28.0 L-5.7 26.3 Q-7.4 25.3 -9.1 26.3 L-7.5 24.55 Q-5.45 24.75 -3.75 26.05 M-18.25 16.8 L-19.7 18.55 -20.9 19.5 Q-21.7 18.2 -19.2 15.6 L-16.85 15.1 -18.25 16.8 M2.7 16.1 L6.95 17.55 8.85 22.1 Q6.75 18.6 2.7 16.1" fill="#000000" fill-rule="evenodd" stroke="none"/>
    <path d="M34.45 -18.95 L33.55 -14.95 27.85 -12.55 23.15 -11.7 21.9 -7.7 23.35 -5.35 17.95 -4.6 16.15 6.4 18.6 10.0 21.35 20.8 22.0 23.4 22.2 24.15 22.2 25.15 Q19.6 29.7 14.95 34.1 L13.85 31.35 13.6 27.15 Q13.1 21.45 11.6 15.65 L11.95 12.3 15.3 8.1 -11.35 4.25 -10.05 3.45 -9.45 3.75 16.15 6.4 14.3 5.0 14.9 1.7 8.0 -16.5 Q9.45 -15.2 9.95 -16.5 L15.1 0.4 18.0 -16.5 19.2 -14.8 19.2 -13.05 Q24.85 -13.15 30.45 -15.75 33.35 -17.35 34.45 -18.95 M33.05 -6.65 L34.7 -0.5 35.35 1.15 30.25 7.75 36.2 3.35 36.7 4.65 31.9 8.45 36.7 6.35 37.6 7.0 26.15 15.15 25.65 -0.5 33.05 -4.55 33.05 -6.65 M-9.75 -7.7 Q-8.55 -7.45 -9.4 -10.2 L-4.7 -4.9 -9.75 -7.7 M-9.0 -13.4 Q-7.9 -12.95 -8.8 -15.05 L-2.05 -5.6 -9.0 -13.4 M1.85 -16.5 Q4.15 -14.35 4.2 -16.5 L9.65 -5.45 1.85 -16.5 M-9.1 9.6 L-8.05 12.9 -10.4 9.95 Q-9.85 10.4 -9.1 9.6 M19.2 -13.05 L17.95 -4.6 19.2 -13.05" fill="#996666" fill-rule="evenodd" stroke="none"/>
    <path d="M-24.85 22.45 L-23.45 14.65 -22.55 12.55 -18.0 9.9 -10.75 9.55 -14.9 6.45 Q-13.25 7.6 -13.2 5.35 L-9.1 9.6 Q-9.85 10.4 -10.4 9.95 L-8.05 12.9 -9.1 9.6 Q0.3 9.8 9.25 12.45 L11.6 15.65 Q13.1 21.45 13.6 27.15 L8.85 22.1 6.95 17.55 2.7 16.1 1.85 16.0 0.6 15.8 -16.85 15.1 -19.2 15.6 Q-21.7 18.2 -20.9 19.5 L-24.85 22.45 M-11.1 2.85 L-9.75 -7.7 -4.7 -4.9 -9.4 -10.2 -9.0 -13.4 -2.05 -5.6 -8.8 -15.05 -8.65 -16.5 -3.5 -16.5 1.85 -16.5 9.65 -5.45 4.2 -16.5 8.0 -16.5 14.9 1.7 14.3 5.0 -11.1 2.85 M13.8 -16.5 L17.0 -16.5 18.0 -16.5 15.1 0.4 9.95 -16.5 13.8 -16.5" fill="#c9abab" fill-rule="evenodd" stroke="none"/>
    <path d="M31.6 -20.7 L33.95 -20.2 34.45 -18.95 Q33.35 -17.35 30.45 -15.75 24.85 -13.15 19.2 -13.05 L19.2 -14.8 20.25 -14.85 Q24.5 -15.15 28.45 -17.1 L31.4 -18.55 31.6 -20.7 M-22.55 12.55 L-14.9 6.45 -10.75 9.55 -18.0 9.9 -22.55 12.55 M-13.2 5.35 L-11.35 4.25 15.3 8.1 11.95 12.3 9.25 12.45 Q0.3 9.8 -9.1 9.6 L-13.2 5.35 M31.4 -18.55 L32.4 -19.3 31.4 -18.55" fill="#e0cfcf" fill-rule="evenodd" stroke="none"/>
    <path d="M-10.05 3.45 L-11.1 2.85 14.3 5.0 16.15 6.4 -9.45 3.75 -10.05 3.45 M23.65 -1.1 L25.65 -0.5 26.15 15.15 24.3 14.4 23.65 -1.1" fill="#754f4f" fill-rule="evenodd" stroke="none"/>
    <path d="M-8.6 24.5 L-10.45 24.75 Q-11.45 24.25 -10.6 23.25 -7.9 21.95 -5.25 22.8 L-2.45 24.45 Q-2.0 26.2 -3.75 26.05 -5.45 24.75 -7.5 24.55 L-8.6 24.5" fill="#660000" fill-rule="evenodd" stroke="none"/>
    <path d="M33.55 -14.95 L34.3 -11.0 33.25 -9.55 31.1 -8.3 Q27.25 -6.3 23.35 -5.35 L21.9 -7.7 23.15 -11.7 27.85 -12.55 33.55 -14.95 M31.1 -7.4 L33.05 -6.65 33.05 -4.55 25.65 -0.5 23.65 -1.1 31.35 -5.9 31.1 -6.5 31.1 -7.4 M12.65 35.15 L9.3 35.15 10.1 29.05 Q10.0 25.65 8.85 22.1 L13.6 27.15 13.85 31.35 12.65 35.15" fill="#a47777" fill-rule="evenodd" stroke="none"/>
    <path d="M35.35 1.15 Q35.25 3.0 36.2 3.35 L30.25 7.75 35.35 1.15 M36.7 4.65 L36.7 6.35 31.9 8.45 36.7 4.65 M14.95 34.1 Q14.4 34.65 12.65 35.15 L13.85 31.35 14.95 34.1 M21.35 20.8 L24.3 14.4 26.15 15.15 22.0 23.4 21.35 20.8" fill="#5e3e3e" fill-rule="evenodd" stroke="none"/>
    <path d="M11.6 15.65 L9.25 12.45 11.95 12.3 11.6 15.65" fill="#f5f1f1" fill-rule="evenodd" stroke="none"/>
    <path d="M37.6 7.0 L35.8 16.05 22.2 24.15 22.0 23.4 26.15 15.15 37.6 7.0" fill="#855858" fill-rule="evenodd" stroke="none"/>
    <path d="M-11.85 -40.65 L-12.45 -39.2 Q-12.9 -36.7 -10.65 -35.8 L-8.75 -35.8 Q1.3 -40.3 12.6 -39.1 14.95 -37.45 15.4 -35.45 M-3.8 -42.95 L13.95 -42.4 15.05 -41.6 Q16.5 -40.3 16.6 -38.65 L16.75 -38.2 17.55 -34.85 34.95 -36.4 37.55 -34.75 Q38.05 -32.55 37.15 -31.25 L33.4 -28.85 Q32.45 -27.6 31.9 -24.95 L31.6 -20.7 33.95 -20.2 34.45 -18.95 33.55 -14.95 34.3 -11.0 33.25 -9.55 31.1 -8.3 31.1 -7.4 33.05 -6.65 34.7 -0.5 35.35 1.15 Q35.25 3.0 36.2 3.35 L36.7 4.65 36.7 6.35 37.6 7.0 35.8 16.05 22.2 24.15 22.2 25.15 Q19.6 29.7 14.95 34.1 14.4 34.65 12.65 35.15 L9.3 35.15 9.25 35.5 Q7.35 39.0 3.05 40.55 -3.55 43.4 -10.5 43.25 -12.9 41.9 -14.6 39.8 L-16.2 41.3 Q-23.6 41.1 -30.8 39.65 -34.85 38.7 -37.05 35.55 -38.25 33.7 -37.05 30.5 -33.35 27.5 -29.5 26.0 L-24.85 22.45 -23.45 14.65 -22.55 12.55 -14.9 6.45 Q-13.25 7.6 -13.2 5.35 L-11.35 4.25 -10.05 3.45 -11.1 2.85 -9.75 -7.7 Q-8.55 -7.45 -9.4 -10.2 L-9.0 -13.4 Q-7.9 -12.95 -8.8 -15.05 L-8.65 -16.5 -3.5 -16.5 Q-2.7 -19.9 -3.5 -25.9 L-4.35 -29.1 Q-4.8 -29.75 -4.1 -29.6 L-5.95 -32.0 -7.0 -33.6 -8.75 -35.8 M13.8 -16.5 L17.0 -16.5 Q18.8 -22.35 18.35 -29.05 L17.75 -33.85 17.55 -34.85 M4.2 -16.5 Q4.15 -14.35 1.85 -16.5 L-3.5 -16.5 M4.2 -16.5 L8.0 -16.5 Q9.45 -15.2 9.95 -16.5 L13.8 -16.5 M20.25 -14.85 L19.2 -14.8 19.2 -13.05 17.95 -4.6 16.15 6.4 18.6 10.0 21.35 20.8 24.3 14.4 23.65 -1.1 31.35 -5.9 31.1 -6.5 31.1 -7.4 M18.0 -16.5 L17.0 -16.5 M19.2 -14.8 L18.0 -16.5 M20.25 -14.85 Q24.5 -15.15 28.45 -17.1 L31.4 -18.55 31.6 -20.7 M21.5 -28.65 Q26.55 -29.15 31.55 -31.3 34.8 -32.9 34.35 -33.95 32.95 -36.15 17.75 -33.85 M33.4 -28.85 L32.05 -28.0 M21.5 -28.65 L18.35 -29.05 M32.4 -19.3 L31.4 -18.55 M-11.85 -40.65 L-9.7 -42.35 -5.2 -42.85 Q-4.75 -42.0 -3.8 -42.95 M-10.05 3.45 L-9.45 3.75 16.15 6.4 M-20.9 19.5 L-24.85 22.45 M-8.6 24.5 L-10.45 24.75 Q-11.45 24.25 -10.6 23.25 -7.9 21.95 -5.25 22.8 L-2.45 24.45 Q-2.0 26.2 -3.75 26.05 -5.45 24.75 -7.5 24.55 L-9.1 26.3 Q-12.4 30.05 -15.0 34.5 L-15.7 35.7 -15.7 38.3 -14.6 39.8 M-18.25 16.8 L-19.7 18.55 -20.9 19.5 Q-21.7 18.2 -19.2 15.6 L-16.85 15.1 0.6 15.8 1.85 16.0 2.7 16.1 6.95 17.55 8.85 22.1 Q6.75 18.6 2.7 16.1 M-16.85 15.1 L-18.25 16.8 M-8.6 24.5 L-7.5 24.55 M23.35 -5.35 Q27.25 -6.3 31.1 -8.3 M23.35 -5.35 L17.95 -4.6 M8.85 22.1 Q10.0 25.65 10.1 29.05 L9.3 35.15 M22.0 23.4 L22.2 24.15 M21.35 20.8 L22.0 23.4" fill="none" stroke="#000000" stroke-linecap="round" stroke-linejoin="round" stroke-opacity="0.4" stroke-width="0.05"/>
    <path d="M-3.0 -8.9 L-0.15 -9.5 0.8 -8.15 Q-6.8 -4.8 -6.8 -1.55 L-6.7 -1.0 Q-8.95 -3.15 -8.95 -3.65 L-8.7 -5.15 -7.95 -5.05 Q-6.25 -5.05 -5.9 -6.6 -5.45 -8.35 -3.0 -8.9 M30.45 -14.95 L28.15 -15.35 Q25.85 -15.35 23.6 -13.45 23.1 -15.05 21.8 -15.55 29.3 -16.55 32.75 -18.25 L31.75 -16.95 30.45 -14.95 M24.3 -29.9 L22.6 -30.25 24.6 -30.65 24.3 -29.9 M24.55 -26.15 Q25.4 -27.15 25.4 -27.85 26.9 -27.2 30.15 -26.6 L32.25 -26.15 32.0 -25.1 29.05 -25.35 Q27.25 -25.35 25.55 -23.7 L24.65 -22.8 Q23.65 -24.35 23.65 -24.75 23.65 -25.1 24.55 -26.15 M3.0 -27.05 Q2.1 -26.05 2.05 -25.25 -1.0 -24.65 -1.0 -22.8 -1.0 -21.5 0.2 -21.05 L-2.3 -21.05 -3.05 -21.05 Q-3.1 -23.25 -3.45 -25.9 L-4.3 -29.1 Q-4.75 -29.75 -4.05 -29.6 L-5.0 -30.7 Q-0.75 -30.1 3.0 -27.05 M17.25 -23.95 L17.25 -24.0 17.55 -24.2 Q18.65 -22.9 18.65 -22.05 L18.65 -21.8 17.05 -22.75 17.25 -23.95 M14.15 -35.8 Q11.7 -37.5 10.65 -37.5 8.65 -37.5 8.35 -35.7 L-5.2 -37.0 Q-6.75 -37.0 -7.4 -36.1 L-7.65 -36.1 -9.1 -35.8 -10.6 -35.8 Q-12.85 -36.7 -12.4 -39.2 L-11.8 -40.65 -9.65 -42.35 -5.15 -42.85 Q-4.7 -42.0 -3.75 -42.95 -2.5 -41.3 4.75 -40.0 13.7 -38.4 14.15 -35.8 M19.7 -34.15 L19.55 -35.15 35.0 -36.4 37.6 -34.75 37.65 -34.5 Q36.05 -35.15 34.5 -35.15 32.45 -35.15 31.15 -34.15 29.7 -35.15 26.15 -35.15 L25.15 -35.1 Q21.75 -34.85 19.7 -34.15 M-11.05 2.85 L-10.85 1.2 -8.95 1.45 Q-6.75 1.45 -6.6 -0.65 L-6.45 -0.3 Q-5.8 0.75 -4.45 0.75 -3.3 0.75 -1.15 -1.45 1.0 -3.65 1.75 -3.65 L3.25 -3.15 Q4.1 -3.15 4.7 -3.5 L2.65 -0.4 2.3 -0.4 Q-1.0 -0.4 -1.0 2.15 -1.0 4.95 2.25 4.95 3.65 4.95 4.45 3.7 L4.7 3.3 Q5.55 3.05 6.65 1.85 8.05 4.25 11.1 4.25 L12.05 4.2 13.5 4.5 13.95 4.45 15.65 6.5 15.65 6.85 15.7 7.15 Q14.05 6.35 11.7 6.35 9.3 6.35 8.8 7.9 7.25 7.35 6.05 7.35 4.55 7.35 4.0 8.35 3.4 8.45 3.0 8.8 L2.7 8.6 Q-0.45 6.85 -4.05 6.85 L-6.65 6.95 -7.05 6.8 -6.15 6.5 Q-4.2 5.65 -4.2 4.25 -4.3 1.95 -6.55 1.95 -8.6 1.95 -10.95 2.9 L-11.05 2.85 M32.55 18.05 L31.4 17.85 Q29.1 17.85 28.95 20.2 L26.4 21.7 Q26.45 20.75 27.3 19.6 L27.9 18.85 28.0 18.75 Q29.55 17.05 29.55 16.15 L29.4 15.2 35.55 13.9 36.35 13.65 35.85 16.05 32.55 18.05 M16.95 17.25 L17.3 17.95 18.0 21.0 18.4 21.9 18.25 22.2 Q17.7 23.35 17.7 24.35 L17.8 25.15 16.25 26.2 16.0 26.45 15.6 24.8 15.75 24.45 Q17.15 20.9 17.15 19.1 L16.9 17.7 16.95 17.25 M17.35 -2.2 L17.55 -3.1 17.7 -2.7 17.35 -2.2 M28.15 -10.55 L29.5 -9.7 28.0 -8.85 27.2 -9.05 Q24.9 -9.05 24.9 -6.6 L24.9 -6.5 24.0 -6.65 23.5 -6.6 Q24.4 -7.05 25.4 -8.45 26.9 -10.55 28.15 -10.55 M31.95 -1.1 L31.65 -2.35 Q33.1 -2.9 33.95 -3.5 L34.75 -0.5 35.4 1.15 Q35.3 3.0 36.25 3.35 L36.75 4.65 36.75 6.35 37.65 7.0 37.6 7.35 35.1 8.25 32.6 9.15 36.3 5.9 Q36.2 3.6 33.95 3.6 32.5 3.6 30.0 5.0 L29.3 4.95 29.05 5.05 28.2 4.95 27.3 5.0 Q27.55 3.7 28.65 2.65 29.85 2.45 30.3 1.3 31.95 -0.05 31.95 -1.1 M-1.35 33.4 Q-1.35 33.05 -2.05 32.1 L-1.35 30.55 -1.35 30.5 Q-0.4 29.35 0.8 29.35 3.0 29.35 3.0 30.75 3.0 32.85 1.6 35.5 0.2 38.15 0.2 39.0 0.2 40.75 1.5 41.2 -4.35 43.4 -10.45 43.25 L-12.6 41.8 -12.7 41.35 Q-11.3 41.3 -10.8 40.4 L-10.55 40.15 Q-9.5 39.65 -8.65 38.2 L-6.35 38.6 Q-4.65 38.6 -3.6 37.55 -2.8 36.7 -2.8 35.75 L-2.8 35.65 Q-1.35 35.25 -1.35 33.4 M-4.75 27.15 L-5.4 28.15 -5.7 27.65 -5.2 26.85 -4.75 27.15 M-19.35 16.95 L-19.55 16.1 -19.2 15.9 -19.35 16.85 -19.35 16.95 M-21.35 35.4 L-20.25 34.3 -19.3 34.35 Q-15.0 34.35 -15.0 30.65 L-15.0 29.35 -14.1 29.45 Q-13.45 29.45 -12.25 28.65 L-11.1 28.65 Q-12.3 29.85 -13.55 31.85 -16.1 35.9 -16.1 37.1 -16.1 38.2 -15.7 39.15 L-17.85 38.9 Q-18.15 38.45 -18.7 38.15 L-20.5 37.2 -21.35 35.4 M-37.0 35.55 Q-38.2 33.7 -37.0 30.5 L-35.9 29.65 Q-37.1 31.9 -37.1 35.05 L-36.9 35.65 -37.0 35.55 M-32.35 35.8 L-31.55 36.1 -28.45 36.15 -27.2 36.35 -27.05 37.1 Q-27.45 37.65 -27.5 38.5 L-30.05 39.8 -30.75 39.65 Q-33.5 39.0 -35.4 37.35 L-34.85 37.4 Q-33.15 37.4 -32.35 35.8 M-5.3 11.7 L-4.7 11.6 Q-2.45 11.35 3.25 13.6 4.35 13.6 4.9 13.1 L7.3 14.0 8.5 15.3 8.5 19.7 6.75 18.7 Q5.5 17.4 2.65 16.4 -1.0 15.15 -6.6 14.65 L-6.55 14.6 Q-5.2 13.35 -5.2 12.4 L-5.3 11.7" fill="#993300" fill-opacity="0.3019608" fill-rule="evenodd" stroke="none"/>
    <path d="M-7.65 6.15 Q-8.5 6.75 -8.8 5.25 L-7.4 1.2 Q-6.7 0.5 -6.4 1.75 L-7.65 6.15" fill="#666666" fill-rule="evenodd" stroke="none"/>
    <path d="M-7.65 6.15 L-6.4 1.75 Q-6.7 0.5 -7.4 1.2 L-8.8 5.25 Q-8.5 6.75 -7.65 6.15 Z" fill="none" stroke="#000000" stroke-linecap="round" stroke-linejoin="round" stroke-opacity="0.4" stroke-width="0.05"/>
    <path d="M0.15 7.05 Q-0.7 7.65 -1.0 6.05 L0.4 1.8 Q1.1 1.05 1.4 2.4 L0.15 7.05" fill="#666666" fill-rule="evenodd" stroke="none"/>
    <path d="M0.15 7.05 L1.4 2.4 Q1.1 1.05 0.4 1.8 L-1.0 6.05 Q-0.7 7.65 0.15 7.05 Z" fill="none" stroke="#000000" stroke-linecap="round" stroke-linejoin="round" stroke-opacity="0.4" stroke-width="0.05"/>
    <path d="M7.6 8.1 Q6.75 8.65 6.45 7.25 L7.85 3.4 Q8.55 2.75 8.85 3.95 L7.6 8.1" fill="#666666" fill-rule="evenodd" stroke="none"/>
    <path d="M7.6 8.1 L8.85 3.95 Q8.55 2.75 7.85 3.4 L6.45 7.25 Q6.75 8.65 7.6 8.1 Z" fill="none" stroke="#000000" stroke-linecap="round" stroke-linejoin="round" stroke-opacity="0.4" stroke-width="0.05"/>
    <path d="M28.95 -10.0 Q29.5 -11.25 30.45 -8.75 L30.95 -1.55 Q30.55 -0.25 29.7 -2.25 L28.95 -10.0" fill="#333333" fill-rule="evenodd" stroke="none"/>
    <path d="M28.95 -10.0 L29.7 -2.25 Q30.55 -0.25 30.95 -1.55 L30.45 -8.75 Q29.5 -11.25 28.95 -10.0 Z" fill="none" stroke="#000000" stroke-linecap="round" stroke-linejoin="round" stroke-opacity="0.4" stroke-width="0.05"/>
    <path d="M26.2 -8.55 Q26.75 -9.8 27.7 -7.3 L28.2 -0.1 Q27.8 1.2 26.95 -0.8 L26.2 -8.55" fill="#333333" fill-rule="evenodd" stroke="none"/>
    <path d="M26.2 -8.55 L26.95 -0.8 Q27.8 1.2 28.2 -0.1 L27.7 -7.3 Q26.75 -9.8 26.2 -8.55 Z" fill="none" stroke="#000000" stroke-linecap="round" stroke-linejoin="round" stroke-opacity="0.4" stroke-width="0.05"/>
  </g>
</svg>
