<?xml version="1.0" encoding="UTF-8" standalone="no"?>
<svg xmlns:xlink="http://www.w3.org/1999/xlink" height="13.25px" width="16.35px" xmlns="http://www.w3.org/2000/svg">
  <g transform="matrix(1.0, 0.0, 0.0, 1.0, 8.2, 6.6)">
    <path d="M-2.25 5.55 L-4.6 5.2 -6.65 3.55 -6.75 3.7 -7.6 3.15 -7.55 2.95 -6.6 -1.6 -3.15 -5.25 0.0 -4.0 1.95 2.45 -1.95 5.25 -2.25 5.55 M-6.65 3.55 L-7.55 2.95 -6.65 3.55" fill="#b67b10" fill-rule="evenodd" stroke="none"/>
    <path d="M-3.15 -5.25 L-2.6 -5.85 2.65 -6.1 4.05 -5.2 Q6.15 -3.65 7.15 -2.0 L7.65 -0.95 7.65 3.15 3.4 6.15 -1.45 5.65 -2.3 5.55 -2.25 5.55 -1.95 5.25 1.95 2.45 0.0 -4.0 -3.15 -5.25 M-1.45 5.65 L-2.25 5.55 -1.45 5.65" fill="#9f5711" fill-rule="evenodd" stroke="none"/>
    <path d="M-3.15 -5.25 L-2.6 -5.85 2.65 -6.1 4.05 -5.2 Q6.15 -3.65 7.15 -2.0 L7.65 -0.95 7.65 3.15 3.4 6.15 -1.45 5.65 -2.3 5.55 M-2.25 5.55 L-4.6 5.2 -6.65 3.55 -7.55 2.95 -6.6 -1.6 -3.15 -5.25 M-6.75 3.7 L-7.6 3.15 -7.55 2.95 M-2.25 5.55 L-1.45 5.65" fill="none" stroke="#000000" stroke-linecap="round" stroke-linejoin="round" stroke-opacity="0.4" stroke-width="1.0"/>
    <path d="M-5.95 4.75 L-7.7 3.2 -6.45 -0.5 -4.9 -2.25 -3.1 -0.5 -1.6 5.65 -2.05 5.65 -3.4 1.25 -4.5 0.45 -4.5 0.5 -5.4 2.5 -5.95 4.75" fill="#333300" fill-rule="evenodd" stroke="none"/>
    <path d="M-2.05 5.65 L-4.9 5.65 -5.95 4.75 -5.4 2.5 -4.5 0.5 -4.5 0.45 -3.4 1.25 -2.05 5.65" fill="#545400" fill-rule="evenodd" stroke="none"/>
    <path d="M-5.95 4.75 L-7.7 3.2 -6.45 -0.5 -4.9 -2.25 -3.1 -0.5 -1.6 5.65 -2.05 5.65 -4.9 5.65 -5.95 4.75 Z" fill="none" stroke="#000000" stroke-linecap="round" stroke-linejoin="round" stroke-opacity="0.4" stroke-width="1.0"/>
  </g>
</svg>
