<?xml version="1.0" encoding="UTF-8" standalone="no"?>
<svg xmlns:xlink="http://www.w3.org/1999/xlink" height="132.0px" width="174.3px" xmlns="http://www.w3.org/2000/svg">
  <g transform="matrix(1.0, 0.0, 0.0, 1.0, -143.9, -90.8)">
    <path d="M288.75 201.15 Q281.15 206.6 273.1 211.4 262.45 217.7 251.05 222.8 L251.8 206.55 254.5 204.45 259.35 194.75 273.55 194.75 276.05 200.95 288.75 201.15" fill="#cc0000" fill-rule="evenodd" stroke="none"/>
    <path d="M247.35 222.8 L238.25 219.55 241.6 211.85 249.65 208.15 Q248.9 215.75 247.35 222.8" fill="#990000" fill-rule="evenodd" stroke="none"/>
    <path d="M175.65 130.65 L173.85 151.4 154.8 143.75 154.55 143.65 149.9 141.7 175.65 130.65 M231.3 171.95 L248.05 167.6 242.85 162.75 235.75 161.45 225.35 153.2 218.65 133.35 225.7 125.4 302.55 148.55 299.8 150.4 282.95 161.1 Q267.6 170.25 251.05 178.15 L231.3 171.95" fill="#ff6600" fill-rule="evenodd" stroke="none"/>
    <path d="M147.15 145.3 L149.9 141.7 154.55 143.65 154.8 143.75 173.85 151.4 169.9 153.25 169.85 153.25 147.15 145.3 M226.9 173.15 L231.3 171.95 251.05 178.15 249.8 181.15 226.9 173.15" fill="#ff9900" fill-rule="evenodd" stroke="none"/>
    <path d="M251.05 222.8 L247.35 222.8 Q248.9 215.75 249.65 208.15 250.9 195.4 249.8 181.15 L251.05 178.15 252.9 182.25 251.8 206.55 251.05 222.8" fill="#ffcc00" fill-rule="evenodd" stroke="none"/>
    <path d="M302.55 148.55 L304.85 152.7 300.6 154.8 Q292.4 158.9 284.35 163.4 268.4 172.15 252.9 182.25 L251.05 178.15 Q267.6 170.25 282.95 161.1 L299.8 150.4 302.55 148.55" fill="#ffff00" fill-rule="evenodd" stroke="none"/>
    <path d="M170.0 195.05 L144.45 185.9 147.15 145.3 169.85 153.25 163.75 163.1 163.75 169.55 158.6 174.7 163.4 182.15 170.0 195.05" fill="#710000" fill-rule="evenodd" stroke="none"/>
    <path d="M202.2 206.6 L170.0 195.05 163.4 182.15 158.6 174.7 163.75 169.55 163.75 163.1 169.85 153.25 169.9 153.25 226.9 173.15 192.5 187.3 187.95 191.2 191.5 197.35 202.2 206.6" fill="#9b0000" fill-rule="evenodd" stroke="none"/>
    <path d="M238.25 219.55 L202.2 206.6 191.5 197.35 187.95 191.2 192.5 187.3 226.9 173.15 249.8 181.15 Q250.9 195.4 249.65 208.15 L241.6 211.85 238.25 219.55" fill="#b70000" fill-rule="evenodd" stroke="none"/>
    <path d="M304.85 152.7 L304.85 188.4 Q297.6 194.7 289.95 200.3 L289.0 201.0 288.75 201.15 276.05 200.95 273.55 194.75 259.35 194.75 254.5 204.45 251.8 206.55 252.9 182.25 Q268.4 172.15 284.35 163.4 292.4 158.9 300.6 154.8 L304.85 152.7" fill="#dd0000" fill-rule="evenodd" stroke="none"/>
    <path d="M201.4 119.6 L206.4 119.6 225.7 125.4 218.65 133.35 225.35 153.2 235.75 161.45 242.85 162.75 248.05 167.6 231.3 171.95 Q201.9 162.35 173.85 151.4 L175.65 130.65 201.4 119.6" fill="#ff9146" fill-rule="evenodd" stroke="none"/>
    <path d="M173.85 151.4 Q201.9 162.35 231.3 171.95 L226.9 173.15 169.9 153.25 173.85 151.4" fill="#fed841" fill-rule="evenodd" stroke="none"/>
    <path d="M201.4 119.6 L175.65 130.65 149.9 141.7" fill="none" stroke="#000000" stroke-linecap="round" stroke-linejoin="round" stroke-opacity="0.4" stroke-width="0.05"/>
    <path d="M225.7 125.4 L206.4 119.6 201.4 119.6 M225.7 125.4 L302.55 148.55 304.85 152.7 304.85 188.4 Q297.6 194.7 289.95 200.3 L289.0 201.0 M288.75 201.15 Q281.15 206.6 273.1 211.4 262.45 217.7 251.05 222.8 L247.35 222.8 238.25 219.55 202.2 206.6 170.0 195.05 144.45 185.9 147.15 145.3 149.9 141.7" fill="none" stroke="#000000" stroke-linecap="round" stroke-linejoin="round" stroke-opacity="0.4" stroke-width="0.05"/>
    <path d="M265.8 181.75 Q267.4 182.2 268.35 183.1 269.25 184.0 268.9 184.9 268.55 185.8 267.15 186.15 L264.1 186.0 Q262.45 185.6 261.5 184.65 260.6 183.7 260.95 182.8 261.3 181.9 262.7 181.6 L265.8 181.75" fill="#fed841" fill-rule="evenodd" stroke="none"/>
    <path d="M265.8 181.75 Q267.4 182.2 268.35 183.1 269.25 184.0 268.9 184.9 268.55 185.8 267.15 186.15 L264.1 186.0 Q262.45 185.6 261.5 184.65 260.6 183.7 260.95 182.8 261.3 181.9 262.7 181.6 L265.8 181.75 Z" fill="none" stroke="#000000" stroke-linecap="round" stroke-linejoin="round" stroke-opacity="0.4" stroke-width="0.05"/>
    <path d="M293.1 164.4 Q295.3 167.45 295.35 172.45 295.4 179.4 291.3 186.05 287.2 192.7 281.35 195.2 275.45 197.65 271.3 194.5 L270.35 193.7 265.2 194.85 Q263.85 194.8 263.9 193.4 L264.3 192.45 Q264.3 193.6 266.0 193.3 271.75 192.95 277.55 189.9 L280.5 187.7 Q281.4 188.1 280.25 189.45 279.35 191.5 281.2 192.4 283.0 193.3 286.75 190.05 290.5 186.7 292.65 180.95 294.75 175.15 293.1 164.4 M272.45 193.35 L270.35 193.7 272.45 193.35 Q273.3 194.35 275.2 194.85 L278.1 195.25 Q280.3 194.65 278.05 191.65 L277.6 191.1 Q275.0 192.65 272.45 193.35 M279.35 189.95 L277.6 191.1 279.35 189.95" fill="#e7a303" fill-rule="evenodd" stroke="none"/>
    <path d="M272.65 165.35 Q273.2 163.2 268.6 161.7 263.4 159.95 257.75 159.5 262.45 159.25 268.25 160.55 L273.2 162.25 Q271.05 161.1 270.05 159.45 268.7 156.8 270.9 155.4 270.3 156.85 273.15 158.5 276.95 160.85 279.5 161.1 278.5 155.85 283.4 152.35 280.25 159.05 284.0 160.95 L287.95 160.8 Q289.6 161.2 291.1 162.35 L293.1 164.4 Q294.75 175.15 292.65 180.95 290.5 186.7 286.75 190.05 283.0 193.3 281.2 192.4 279.35 191.5 280.25 189.45 281.4 188.1 280.5 187.7 L277.55 189.9 Q271.75 192.95 266.0 193.3 264.3 193.6 264.3 192.45 L266.55 187.1 Q267.05 186.0 267.05 184.4 266.95 177.7 270.8 171.25 L271.6 170.75 271.5 170.5 Q270.2 167.6 272.65 165.35 M271.6 182.35 L271.3 180.55 Q271.0 179.85 270.6 180.05 270.2 180.2 269.9 181.1 269.6 182.0 269.65 183.15 269.65 184.3 269.95 184.95 270.25 185.6 270.65 185.45 271.05 185.3 271.35 184.4 L271.6 182.35 M280.3 177.7 Q279.95 177.0 279.6 177.2 279.15 177.35 278.9 178.3 278.6 179.2 278.6 180.35 278.6 181.45 278.95 182.15 279.25 182.8 279.65 182.6 L280.3 181.55 280.6 179.5 280.3 177.7" fill="#fed841" fill-rule="evenodd" stroke="none"/>
    <path d="M280.3 177.7 L280.6 179.5 280.3 181.55 279.65 182.6 Q279.25 182.8 278.95 182.15 278.6 181.45 278.6 180.35 278.6 179.2 278.9 178.3 279.15 177.35 279.6 177.2 279.95 177.0 280.3 177.7 M271.6 182.35 L271.35 184.4 Q271.05 185.3 270.65 185.45 270.25 185.6 269.95 184.95 269.65 184.3 269.65 183.15 269.6 182.0 269.9 181.1 270.2 180.2 270.6 180.05 271.0 179.85 271.3 180.55 L271.6 182.35" fill="#000000" fill-rule="evenodd" stroke="none"/>
    <path d="M272.45 193.35 Q275.0 192.65 277.6 191.1 L278.05 191.65 Q276.1 193.05 275.2 194.85 273.3 194.35 272.45 193.35" fill="#996600" fill-rule="evenodd" stroke="none"/>
    <path d="M278.05 191.65 Q280.3 194.65 278.1 195.25 L275.2 194.85 Q276.1 193.05 278.05 191.65" fill="#ff9966" fill-rule="evenodd" stroke="none"/>
    <path d="M284.0 160.95 L287.95 160.8 Q289.6 161.2 291.1 162.35 L293.1 164.4 Q295.3 167.45 295.35 172.45 295.4 179.4 291.3 186.05 287.2 192.7 281.35 195.2 275.45 197.65 271.3 194.5 L270.35 193.7 265.2 194.85 Q263.85 194.8 263.9 193.4 L264.3 192.45 266.55 187.1 Q267.05 186.0 267.05 184.4 266.95 177.7 270.8 171.25 M271.6 170.75 L271.5 170.5 Q270.2 167.6 272.65 165.35 M270.35 193.7 L272.45 193.35 Q275.0 192.65 277.6 191.1 L279.35 189.95 M278.05 191.65 L277.6 191.1 M275.2 194.85 L278.1 195.25 Q280.3 194.65 278.05 191.65 M275.2 194.85 Q273.3 194.35 272.45 193.35" fill="none" stroke="#000000" stroke-linecap="round" stroke-linejoin="round" stroke-opacity="0.4" stroke-width="0.05"/>
    <path d="M272.65 165.35 Q273.2 163.2 268.6 161.7 263.4 159.95 257.75 159.5 262.45 159.25 268.25 160.55 L273.2 162.25 Q271.05 161.1 270.05 159.45 268.7 156.8 270.9 155.4 270.3 156.85 273.15 158.5 276.95 160.85 279.5 161.1 278.5 155.85 283.4 152.35 280.25 159.05 284.0 160.95" fill="none" stroke="#000000" stroke-linecap="round" stroke-linejoin="round" stroke-opacity="0.4" stroke-width="0.05"/>
    <path d="M296.5 170.1 Q298.3 168.75 299.75 168.3 301.15 167.85 301.35 168.6 301.55 169.4 300.4 170.85 L297.45 173.65 Q295.6 175.0 294.15 175.45 292.75 175.9 292.55 175.1 292.35 174.35 293.5 172.9 294.65 171.45 296.5 170.1" fill="#fed841" fill-rule="evenodd" stroke="none"/>
    <path d="M296.5 170.1 Q298.3 168.75 299.75 168.3 301.15 167.85 301.35 168.6 301.55 169.4 300.4 170.85 L297.45 173.65 Q295.6 175.0 294.15 175.45 292.75 175.9 292.55 175.1 292.35 174.35 293.5 172.9 294.65 171.45 296.5 170.1 Z" fill="none" stroke="#000000" stroke-linecap="round" stroke-linejoin="round" stroke-opacity="0.4" stroke-width="0.05"/>
    <path d="M172.85 170.65 Q176.1 175.65 176.1 182.05 176.1 189.95 171.15 195.75 L169.45 195.1 Q170.8 193.45 171.95 191.4 175.2 185.15 172.85 170.65" fill="#e7a303" fill-rule="evenodd" stroke="none"/>
    <path d="M148.7 161.55 Q152.45 159.3 152.3 155.25 152.15 150.7 149.7 147.35 152.8 149.4 154.0 153.75 L154.0 158.2 Q154.7 155.8 156.8 153.35 160.35 149.6 163.9 149.05 161.15 150.45 160.15 153.75 158.45 158.4 159.5 159.95 167.5 153.3 176.0 151.6 163.25 157.9 162.3 162.0 166.45 163.55 169.85 166.95 171.6 168.7 172.85 170.65 175.2 185.15 171.95 191.4 170.8 193.45 169.45 195.1 L143.9 186.6 145.65 162.7 Q147.1 162.0 148.7 161.55 M153.85 183.1 Q153.85 181.65 153.4 180.65 152.95 179.65 152.35 179.65 151.75 179.65 151.3 180.65 150.85 181.65 150.85 183.1 150.85 184.55 151.3 185.55 151.75 186.55 152.35 186.55 152.95 186.55 153.4 185.55 153.85 184.55 153.85 183.1" fill="#fed841" fill-rule="evenodd" stroke="none"/>
    <path d="M153.85 183.1 Q153.85 184.55 153.4 185.55 152.95 186.55 152.35 186.55 151.75 186.55 151.3 185.55 150.85 184.55 150.85 183.1 150.85 181.65 151.3 180.65 151.75 179.65 152.35 179.65 152.95 179.65 153.4 180.65 153.85 181.65 153.85 183.1" fill="#000000" fill-rule="evenodd" stroke="none"/>
    <path d="M162.3 162.0 Q166.45 163.55 169.85 166.95 171.6 168.7 172.85 170.65 176.1 175.65 176.1 182.05 176.1 189.95 171.15 195.75 M145.65 162.7 Q147.1 162.0 148.7 161.55" fill="none" stroke="#000000" stroke-linecap="round" stroke-linejoin="round" stroke-opacity="0.4" stroke-width="0.05"/>
    <path d="M148.7 161.55 Q152.45 159.3 152.3 155.25 152.15 150.7 149.7 147.35 152.8 149.4 154.0 153.75 L154.0 158.2 Q154.7 155.8 156.8 153.35 160.35 149.6 163.9 149.05 161.15 150.45 160.15 153.75 158.45 158.4 159.5 159.95 167.5 153.3 176.0 151.6 163.25 157.9 162.3 162.0 M143.9 186.6 L145.65 162.7 146.55 153.25" fill="none" stroke="#000000" stroke-linecap="round" stroke-linejoin="round" stroke-opacity="0.4" stroke-width="0.05"/>
    <path d="M171.15 195.75 L174.45 197.0" fill="none" stroke="#00ff00" stroke-linecap="round" stroke-linejoin="round" stroke-width="0.05"/>
    <path d="M177.9 179.75 Q180.65 179.0 182.8 179.2 184.95 179.4 185.2 180.45 185.5 181.5 183.75 182.8 182.0 184.0 179.25 184.75 L174.35 185.35 Q172.2 185.1 171.9 184.05 171.65 183.0 173.4 181.75 175.15 180.5 177.9 179.75" fill="#fed841" fill-rule="evenodd" stroke="none"/>
    <path d="M177.9 179.75 Q180.65 179.0 182.8 179.2 184.95 179.4 185.2 180.45 185.5 181.5 183.75 182.8 182.0 184.0 179.25 184.75 L174.35 185.35 Q172.2 185.1 171.9 184.05 171.65 183.0 173.4 181.75 175.15 180.5 177.9 179.75 Z" fill="none" stroke="#000000" stroke-linecap="round" stroke-linejoin="round" stroke-opacity="0.4" stroke-width="0.05"/>
    <path d="M211.4 130.55 Q213.3 132.1 214.05 133.4 214.8 134.75 213.9 135.1 213.0 135.5 211.05 134.65 209.1 133.85 207.2 132.3 205.3 130.8 204.55 129.45 203.8 128.1 204.7 127.7 205.6 127.35 207.55 128.2 209.5 129.05 211.4 130.55" fill="#fed841" fill-rule="evenodd" stroke="none"/>
    <path d="M211.4 130.55 Q213.3 132.1 214.05 133.4 214.8 134.75 213.9 135.1 213.0 135.5 211.05 134.65 209.1 133.85 207.2 132.3 205.3 130.8 204.55 129.45 203.8 128.1 204.7 127.7 205.6 127.35 207.55 128.2 209.5 129.05 211.4 130.55 Z" fill="none" stroke="#000000" stroke-linecap="round" stroke-linejoin="round" stroke-opacity="0.4" stroke-width="0.05"/>
    <path d="M255.1 138.8 Q256.45 142.55 254.1 146.1 250.8 151.0 242.35 152.65 233.85 154.25 225.15 151.65 216.4 149.0 212.6 143.7 L211.75 142.45 204.6 139.45 Q202.85 138.4 203.65 137.45 L204.6 137.1 Q204.05 137.9 206.4 138.95 213.95 143.0 222.85 145.15 L227.7 145.8 Q228.65 146.7 226.55 146.85 224.4 147.6 226.3 149.6 228.2 151.55 234.6 152.05 241.0 152.5 246.5 150.05 252.0 147.55 255.1 138.8 M222.6 146.7 L222.35 146.0 Q218.25 145.2 214.65 143.75 215.25 145.1 217.45 146.85 218.85 147.95 220.95 149.25 224.05 150.5 222.6 146.7 M214.65 143.75 L211.75 142.45 214.65 143.75 M225.1 146.45 L222.35 146.0 225.1 146.45" fill="#e7a303" fill-rule="evenodd" stroke="none"/>
    <path d="M217.3 133.3 Q216.45 133.7 215.95 134.55 215.4 135.35 215.45 136.05 215.55 136.7 216.15 136.9 L217.55 136.65 218.9 135.45 Q219.4 134.6 219.35 133.95 219.25 133.25 218.7 133.05 218.1 132.85 217.3 133.3 M204.6 137.1 L210.1 135.05 Q211.25 134.6 212.05 133.45 215.3 128.55 223.8 126.95 L228.7 126.35 251.0 133.05 Q252.45 134.35 253.55 135.85 254.6 137.35 255.1 138.8 252.0 147.55 246.5 150.05 241.0 152.5 234.6 152.05 228.2 151.55 226.3 149.6 224.4 147.6 226.55 146.85 228.65 146.7 227.7 145.8 L222.85 145.15 Q213.95 143.0 206.4 138.95 204.05 137.9 204.6 137.1 M231.6 137.75 L230.2 138.0 Q229.35 138.4 228.85 139.2 228.3 140.0 228.35 140.7 228.45 141.4 229.05 141.55 L230.45 141.35 231.8 140.1 Q232.3 139.3 232.25 138.6 232.15 137.9 231.6 137.75" fill="#fed841" fill-rule="evenodd" stroke="none"/>
    <path d="M217.3 133.3 Q218.1 132.85 218.7 133.05 219.25 133.25 219.35 133.95 219.4 134.6 218.9 135.45 L217.55 136.65 216.15 136.9 Q215.55 136.7 215.45 136.05 215.4 135.35 215.95 134.55 216.45 133.7 217.3 133.3 M231.6 137.75 Q232.15 137.9 232.25 138.6 232.3 139.3 231.8 140.1 L230.45 141.35 229.05 141.55 Q228.45 141.4 228.35 140.7 228.3 140.0 228.85 139.2 229.35 138.4 230.2 138.0 L231.6 137.75" fill="#000000" fill-rule="evenodd" stroke="none"/>
    <path d="M217.45 146.85 Q215.25 145.1 214.65 143.75 218.25 145.2 222.35 146.0 L222.6 146.7 217.45 146.85" fill="#996600" fill-rule="evenodd" stroke="none"/>
    <path d="M217.45 146.85 L222.6 146.7 Q224.05 150.5 220.95 149.25 218.85 147.95 217.45 146.85" fill="#ff9966" fill-rule="evenodd" stroke="none"/>
    <path d="M204.6 137.1 L210.1 135.05 Q211.25 134.6 212.05 133.45 215.3 128.55 223.8 126.95 L228.7 126.35 M251.0 133.05 Q252.45 134.35 253.55 135.85 254.6 137.35 255.1 138.8 256.45 142.55 254.1 146.1 250.8 151.0 242.35 152.65 233.85 154.25 225.15 151.65 216.4 149.0 212.6 143.7 L211.75 142.45 204.6 139.45 Q202.85 138.4 203.65 137.45 L204.6 137.1 M222.6 146.7 L222.35 146.0 Q218.25 145.2 214.65 143.75 215.25 145.1 217.45 146.85 218.85 147.95 220.95 149.25 224.05 150.5 222.6 146.7 M211.75 142.45 L214.65 143.75 M222.35 146.0 L225.1 146.45" fill="none" stroke="#000000" stroke-linecap="round" stroke-linejoin="round" stroke-opacity="0.4" stroke-width="0.05"/>
    <path d="M256.65 145.3 L261.65 146.45 Q263.7 147.2 263.6 147.9 263.5 148.55 261.25 148.7 L256.15 148.5 Q253.15 148.1 251.05 147.35 249.05 146.6 249.15 145.95 249.25 145.25 251.45 145.1 L256.65 145.3" fill="#fed841" fill-rule="evenodd" stroke="none"/>
    <path d="M256.65 145.3 L261.65 146.45 Q263.7 147.2 263.6 147.9 263.5 148.55 261.25 148.7 L256.15 148.5 Q253.15 148.1 251.05 147.35 249.05 146.6 249.15 145.95 249.25 145.25 251.45 145.1 L256.65 145.3 Z" fill="none" stroke="#000000" stroke-linecap="round" stroke-linejoin="round" stroke-opacity="0.4" stroke-width="0.05"/>
    <path d="M147.15 145.3 L249.8 181.15 Q251.25 203.55 247.35 222.8 L144.45 185.9 147.15 145.3" fill="#000000" fill-opacity="0.3019608" fill-rule="evenodd" stroke="none"/>
    <path d="M252.9 182.25 Q276.85 165.35 304.85 152.7 L304.85 188.4 Q279.8 209.6 251.05 222.8 L252.9 182.25" fill="#000000" fill-opacity="0.2" fill-rule="evenodd" stroke="none"/>
    <path d="M252.9 182.25 L251.05 178.15 Q278.55 165.1 302.55 148.55 L304.85 152.7 Q276.85 165.35 252.9 182.25" fill="#ffffff" fill-opacity="0.49803922" fill-rule="evenodd" stroke="none"/>
    <path d="M296.65 146.4 L299.85 147.4 301.15 154.6 290.5 200.1 Q282.3 206.05 273.65 211.2 L284.9 163.2 283.5 160.9 155.35 143.55 147.45 148.95 147.7 145.1 150.45 141.5 165.7 134.95 296.65 146.4" fill="url(#gradient0)" fill-rule="evenodd" stroke="none"/>
    <path d="M222.9 171.85 L221.45 194.5 Q213.8 191.0 206.2 183.05 L207.2 166.3 222.9 171.85 M220.45 209.35 L220.2 213.1 204.75 207.55 205.5 195.35 Q214.2 201.75 220.45 209.35" fill="#000066" fill-rule="evenodd" stroke="none"/>
    <path d="M288.15 157.95 L290.25 160.15 277.15 167.45 275.25 165.55 277.05 164.5 288.15 157.95 M224.8 169.85 L222.9 171.85 207.2 166.3 208.95 164.4 223.75 169.5 224.8 169.85" fill="#33ffff" fill-rule="evenodd" stroke="none"/>
    <path d="M206.45 131.55 Q199.2 135.0 185.8 134.15 L175.75 130.7 188.5 125.1 206.45 131.55 M230.8 151.3 L232.75 150.3 205.85 141.05 Q212.85 138.55 224.55 138.05 L246.2 145.85 239.2 149.35 Q251.05 149.2 258.1 152.05 L223.75 169.5 208.95 164.4 233.45 152.25 230.8 151.3 M257.4 140.3 L264.1 136.95 279.0 141.4 272.55 144.7 Q261.7 143.7 257.4 140.3 M265.55 151.65 L288.15 157.95 277.05 164.5 254.9 158.15 265.55 151.65 M289.7 175.35 L289.3 186.8 Q282.8 192.7 276.35 204.4 L276.7 189.55 Q283.85 184.85 289.7 175.35" fill="#0066ff" fill-rule="evenodd" stroke="none"/>
    <path d="M206.45 131.55 L224.55 138.05 Q212.85 138.55 205.85 141.05 L232.75 150.3 230.8 151.3 174.05 131.4 175.75 130.7 185.8 134.15 Q199.2 135.0 206.45 131.55 M246.2 145.85 L257.4 140.3 Q261.7 143.7 272.55 144.7 L279.0 141.4 281.35 142.1 263.2 151.0 248.55 158.2 224.8 169.85 223.75 169.5 258.1 152.05 Q251.05 149.2 239.2 149.35 L246.2 145.85 M275.25 165.55 L252.85 159.4 254.9 158.15 277.05 164.5 275.25 165.55" fill="#11c2fd" fill-rule="evenodd" stroke="none"/>
    <path d="M263.2 151.0 L265.55 151.65 254.9 158.15 252.85 159.4 248.55 158.2 263.2 151.0 M221.45 194.5 L220.45 209.35 Q214.2 201.75 205.5 195.35 L206.2 183.05 Q213.8 191.0 221.45 194.5" fill="#000097" fill-rule="evenodd" stroke="none"/>
    <path d="M290.25 160.15 L289.7 175.35 Q283.85 184.85 276.7 189.55 L277.15 167.45 290.25 160.15 M289.3 186.8 L288.75 201.15 276.25 209.6 276.35 204.4 Q282.8 192.7 289.3 186.8" fill="#000091" fill-rule="evenodd" stroke="none"/>
    <path d="M297.2 101.25 L293.9 101.35 Q302.6 95.3 316.5 91.6 L318.2 92.0 Q306.8 95.95 297.2 101.25 M277.3 99.7 Q286.3 101.6 290.55 105.2 284.1 109.35 278.55 114.2 267.05 124.2 259.5 137.25 L258.65 136.15 Q264.15 124.8 277.5 112.95 274.05 109.55 265.85 109.55 269.95 104.55 275.2 101.0 L277.3 99.7" fill="#11c2fd" fill-rule="evenodd" stroke="none"/>
    <path d="M293.9 101.35 L297.2 101.25 290.55 105.2 Q286.3 101.6 277.3 99.7 279.0 98.6 280.75 97.6 284.3 101.2 293.9 101.35" fill="#33ffff" fill-rule="evenodd" stroke="none"/>
    <path d="M316.5 91.6 Q302.6 95.3 293.9 101.35 284.3 101.2 280.75 97.6 301.8 88.45 316.5 91.6 M265.85 109.55 Q274.05 109.55 277.5 112.95 264.15 124.8 258.65 136.15 256.5 133.1 255.9 128.05 259.6 117.05 265.85 109.55" fill="#0066ff" fill-rule="evenodd" stroke="none"/>
    <path d="M258.65 136.15 L259.5 137.25 Q254.2 146.35 250.8 156.95 251.7 140.35 255.9 128.05 256.5 133.1 258.65 136.15" fill="#322b79" fill-rule="evenodd" stroke="none"/>
    <path d="M225.8 110.65 L227.55 110.7 Q222.9 105.8 215.4 102.8 L214.45 103.15 Q220.6 106.35 225.8 110.65 M236.55 109.4 Q231.65 110.9 229.4 113.85 232.85 117.2 235.85 121.15 242.05 129.25 246.15 139.8 L246.6 138.9 Q243.6 129.7 236.4 120.15 238.3 117.4 242.7 117.35 240.5 113.3 237.65 110.45 L236.55 109.4" fill="#11c2fd" fill-rule="evenodd" stroke="none"/>
    <path d="M227.55 110.7 L225.8 110.65 229.4 113.85 Q231.65 110.9 236.55 109.4 L234.65 107.7 Q232.75 110.6 227.55 110.7" fill="#33ffff" fill-rule="evenodd" stroke="none"/>
    <path d="M215.4 102.8 Q222.9 105.8 227.55 110.7 232.75 110.6 234.65 107.7 223.3 100.25 215.4 102.8 M242.7 117.35 Q238.3 117.4 236.4 120.15 243.6 129.7 246.6 138.9 247.75 136.4 248.05 132.35 246.05 123.45 242.7 117.35" fill="#0066ff" fill-rule="evenodd" stroke="none"/>
    <path d="M246.6 138.9 L246.15 139.8 Q249.0 147.15 250.8 155.75 250.35 142.3 248.05 132.35 247.75 136.4 246.6 138.9" fill="#322b79" fill-rule="evenodd" stroke="none"/>
    <path d="M252.55 142.05 Q259.55 144.15 258.65 151.55 L257.45 152.8 Q252.4 149.9 250.85 144.15 L252.55 142.05 M238.55 152.85 L238.55 148.25 244.75 145.5 Q240.8 148.1 242.2 151.55 L238.55 152.85" fill="#0066ff" fill-rule="evenodd" stroke="none"/>
    <path d="M252.55 142.05 L250.85 144.15 250.45 142.5 251.05 141.7 252.55 142.05 M256.15 154.05 L253.6 156.6 250.1 156.6 Q250.7 153.1 247.35 149.6 244.4 152.45 237.75 154.45 L235.35 153.55 238.55 152.85 242.2 151.55 Q244.75 150.25 246.2 148.45 L247.0 147.1 249.05 144.4 249.8 143.35 Q249.6 150.95 256.15 154.05" fill="#11c2fd" fill-rule="evenodd" stroke="none"/>
    <path d="M250.1 156.6 L244.0 156.6 237.75 154.45 Q244.4 152.45 247.35 149.6 250.7 153.1 250.1 156.6 M244.75 145.5 L249.05 144.4 247.0 147.1 246.2 148.45 Q244.75 150.25 242.2 151.55 240.8 148.1 244.75 145.5" fill="#322b79" fill-rule="evenodd" stroke="none"/>
    <path d="M250.85 144.15 Q252.4 149.9 257.45 152.8 L256.15 154.05 Q249.6 150.95 249.8 143.35 L250.45 142.5 250.85 144.15" fill="#33ffff" fill-rule="evenodd" stroke="none"/>
  </g>
  <defs>
    <linearGradient gradientTransform="matrix(-0.0366, -0.021, 0.0235, -0.0409, 257.4, 167.55)" gradientUnits="userSpaceOnUse" id="gradient0" spreadMethod="pad" x1="-819.2" x2="819.2">
      <stop offset="0.0" stop-color="#ffffff" stop-opacity="0.5411765"/>
      <stop offset="0.5215686274509804" stop-color="#ffffff"/>
      <stop offset="1.0" stop-color="#ffffff" stop-opacity="0.6"/>
    </linearGradient>
  </defs>
</svg>
