<?xml version="1.0" encoding="UTF-8" standalone="no"?>
<svg xmlns:xlink="http://www.w3.org/1999/xlink" height="42.3px" width="53.7px" xmlns="http://www.w3.org/2000/svg">
  <g transform="matrix(1.0, 0.0, 0.0, 1.0, -248.1, -179.3)">
    <path d="M259.6 193.05 L259.65 192.95 260.0 193.4 263.35 194.8 263.35 195.6 263.05 195.45 262.45 196.1 258.6 193.9 259.6 193.05" fill="#cccccc" fill-rule="evenodd" stroke="none"/>
    <path d="M249.5 185.75 Q253.85 190.2 258.8 193.2 L259.6 193.05 258.6 193.9 Q253.5 191.0 249.45 186.95 L248.45 185.2 248.1 184.35 Q249.5 177.6 260.4 179.85 271.9 184.45 280.85 189.75 287.1 193.55 292.05 197.7 292.75 199.45 291.5 200.1 L282.45 200.5 Q274.05 200.3 268.65 198.85 264.75 197.8 262.45 196.1 L263.05 195.45 263.35 195.6 Q265.9 196.8 268.65 197.6 274.95 199.55 282.1 199.7 L291.3 198.55 Q288.1 195.85 281.55 191.95 L279.2 190.35 Q261.25 178.85 254.0 180.2 249.3 180.3 248.65 184.25 249.0 185.3 249.5 185.75" fill="#ab933d" fill-rule="evenodd" stroke="none"/>
    <path d="M262.45 196.1 Q261.9 198.1 262.2 200.1 260.35 200.05 258.65 198.0 258.15 196.15 258.6 193.9 L262.45 196.1" fill="#666666" fill-rule="evenodd" stroke="none"/>
    <path d="M262.2 200.1 Q261.9 198.1 262.45 196.1 264.75 197.8 268.65 198.85 274.05 200.3 282.45 200.5 L291.5 200.1 Q286.55 201.35 284.2 205.15 275.6 204.95 268.65 202.7 265.25 201.6 262.2 200.1 M258.6 193.9 Q258.15 196.15 258.65 198.0 253.05 194.35 249.0 188.75 248.95 186.9 248.45 185.2 L249.45 186.95 Q253.5 191.0 258.6 193.9" fill="#927538" fill-rule="evenodd" stroke="none"/>
    <path d="M282.1 199.7 Q280.8 196.35 274.6 192.05 269.2 188.2 260.05 183.5 251.85 181.0 249.5 185.75 249.0 185.3 248.65 184.25 249.3 180.3 254.0 180.2 261.25 178.85 279.2 190.35 L281.55 191.95 Q288.1 195.85 291.3 198.55 L282.1 199.7" fill="#695529" fill-rule="evenodd" stroke="none"/>
    <path d="M249.5 185.75 Q253.85 190.2 258.8 193.2 L259.6 193.05 259.65 192.95 260.0 193.4 263.35 194.8 263.35 195.6 Q265.9 196.8 268.65 197.6 274.95 199.55 282.1 199.7 280.8 196.35 274.6 192.05 269.2 188.2 260.05 183.5 251.85 181.0 249.5 185.75 249.0 185.3 248.65 184.25 M291.3 198.55 L282.1 199.7 M262.45 196.1 L263.05 195.45 263.35 195.6 M262.2 200.1 Q261.9 198.1 262.45 196.1 M258.6 193.9 Q258.15 196.15 258.65 198.0 260.35 200.05 262.2 200.1 265.25 201.6 268.65 202.7 275.6 204.95 284.2 205.15 286.55 201.35 291.5 200.1 292.75 199.45 292.05 197.7 287.1 193.55 280.85 189.75 271.9 184.45 260.4 179.85 249.5 177.6 248.1 184.35 L248.45 185.2 Q248.95 186.9 249.0 188.75 253.05 194.35 258.65 198.0 M259.6 193.05 L258.6 193.9" fill="none" stroke="#000000" stroke-linecap="round" stroke-linejoin="round" stroke-opacity="0.4" stroke-width="0.05"/>
    <path d="M290.55 197.1 Q291.9 197.45 291.9 198.7 291.95 201.2 291.15 199.95 291.5 198.4 290.05 198.7 289.25 197.1 290.55 197.1" fill="#cccccc" fill-rule="evenodd" stroke="none"/>
    <path d="M290.55 197.1 Q291.9 197.45 291.9 198.7 291.95 201.2 291.15 199.95 291.5 198.4 290.05 198.7 289.25 197.1 290.55 197.1 Z" fill="none" stroke="#000000" stroke-linecap="round" stroke-linejoin="round" stroke-opacity="0.4" stroke-width="0.05"/>
    <path d="M265.15 217.05 Q264.75 208.8 262.4 200.2 L262.4 196.5 Q266.75 205.45 267.05 214.5 266.15 214.95 265.15 217.05" fill="#927538" fill-rule="evenodd" stroke="none"/>
    <path d="M262.4 196.5 L263.2 196.7 Q267.35 205.45 267.75 215.3 L267.05 214.5 Q266.75 205.45 262.4 196.5" fill="#ab933d" fill-rule="evenodd" stroke="none"/>
    <path d="M267.75 215.3 Q266.6 215.35 265.7 217.55 L265.15 217.05 Q266.15 214.95 267.05 214.5 L267.75 215.3" fill="#695529" fill-rule="evenodd" stroke="none"/>
    <path d="M263.2 196.7 Q267.35 205.45 267.75 215.3 266.6 215.35 265.7 217.55 L265.15 217.05 Q264.75 208.8 262.4 200.2" fill="none" stroke="#000000" stroke-linecap="round" stroke-linejoin="round" stroke-opacity="0.4" stroke-width="0.05"/>
    <path d="M289.6 197.75 Q290.7 198.65 290.5 200.0 290.0 202.55 289.5 200.9 290.15 199.5 288.8 199.25 288.35 197.3 289.6 197.75" fill="#cccccc" fill-rule="evenodd" stroke="none"/>
    <path d="M289.6 197.75 Q290.7 198.65 290.5 200.0 290.0 202.55 289.5 200.9 290.15 199.5 288.8 199.25 288.35 197.3 289.6 197.75 Z" fill="none" stroke="#000000" stroke-linecap="round" stroke-linejoin="round" stroke-opacity="0.4" stroke-width="0.05"/>
    <path d="M292.25 192.55 L292.5 192.05 295.75 192.15 Q296.6 192.4 296.5 192.95 295.55 193.85 294.2 193.45 L294.05 192.4 293.9 193.35 Q292.75 193.35 292.25 192.55" fill="#d2ba80" fill-rule="evenodd" stroke="none"/>
    <path d="M294.2 193.45 L294.25 194.15 293.9 193.35 294.05 192.4 294.2 193.45" fill="#675325" fill-rule="evenodd" stroke="none"/>
    <path d="M289.95 208.25 Q290.75 209.55 291.7 210.5 L293.3 212.0 300.35 210.5 300.65 209.65 301.3 207.8 301.4 209.15 300.45 211.1 293.25 212.55 Q291.3 211.25 290.05 209.15 L289.95 208.25" fill="url(#gradient0)" fill-rule="evenodd" stroke="none"/>
    <path d="M293.7 206.35 L293.5 206.55 293.4 205.95 293.8 199.65 Q293.2 199.5 293.6 198.85 293.5 198.1 292.95 199.5 292.2 200.3 292.15 199.35 L289.8 206.75 Q289.25 207.45 291.5 209.9 292.1 210.7 291.7 210.5 290.75 209.55 289.95 208.25 L289.0 206.4 292.65 196.65 294.15 197.65 294.05 200.15 293.7 206.35" fill="url(#gradient1)" fill-rule="evenodd" stroke="none"/>
    <path d="M296.5 192.95 L296.15 194.65 295.95 195.65 Q294.8 196.75 293.35 195.35 L293.0 194.2 292.25 192.55 Q292.75 193.35 293.9 193.35 L294.25 194.15 294.2 193.45 Q295.55 193.85 296.5 192.95" fill="url(#gradient2)" fill-rule="evenodd" stroke="none"/>
    <path d="M296.15 194.65 L296.75 195.25 295.55 196.7 294.25 196.65 Q292.85 196.3 292.25 194.95 L293.0 194.2 293.35 195.35 Q294.8 196.75 295.95 195.65 L296.15 194.65" fill="url(#gradient3)" fill-rule="evenodd" stroke="none"/>
    <path d="M294.15 197.65 L292.65 196.65 292.3 196.1 292.25 194.95 Q292.85 196.3 294.25 196.65 L295.55 196.7 296.75 195.25 296.9 195.55 296.4 196.55 295.85 197.1 294.7 197.75 294.15 197.65" fill="url(#gradient4)" fill-rule="evenodd" stroke="none"/>
    <path d="M294.05 200.15 L294.15 197.65 294.7 197.75 295.85 197.1 297.45 200.55 299.05 205.1 298.5 204.4 296.4 198.8 Q295.9 198.25 296.25 199.85 295.85 199.25 295.8 199.6 295.7 200.4 295.1 199.9 294.4 200.6 294.05 200.15 M295.2 198.6 L295.0 198.45 294.8 198.5 294.7 198.75 294.75 199.05 294.95 199.15 295.15 199.05 295.25 198.85 295.2 198.6 M295.55 199.0 L295.5 199.05 295.55 199.2 295.65 199.25 295.7 199.2 295.8 199.1 295.8 198.95 295.65 198.9 295.55 199.0" fill="url(#gradient5)" fill-rule="evenodd" stroke="none"/>
    <path d="M300.65 209.65 L300.55 209.7 Q300.55 209.2 301.4 206.05 L297.75 199.5 Q297.85 200.05 297.55 199.35 296.7 197.85 296.75 198.7 L297.45 200.55 295.85 197.1 296.4 196.55 301.8 206.2 301.3 207.8 300.65 209.65" fill="url(#gradient6)" fill-rule="evenodd" stroke="none"/>
    <path d="M291.7 210.5 Q292.1 210.7 291.5 209.9 289.25 207.45 289.8 206.75 L292.15 199.35 Q292.2 200.3 292.95 199.5 293.5 198.1 293.6 198.85 293.2 199.5 293.8 199.65 L293.4 205.95 293.5 206.55 293.7 206.35 294.05 200.15 Q294.4 200.6 295.1 199.9 295.7 200.4 295.8 199.6 295.85 199.25 296.25 199.85 295.9 198.25 296.4 198.8 L298.5 204.4 299.05 205.1 300.55 209.7 300.65 209.65 300.35 210.5 293.3 212.0 291.7 210.5 M293.7 206.35 L293.2 211.25 293.7 206.35" fill="url(#gradient7)" fill-rule="evenodd" stroke="none"/>
    <path d="M300.55 209.7 L299.05 205.1 297.45 200.55 296.75 198.7 Q296.7 197.85 297.55 199.35 297.85 200.05 297.75 199.5 L301.4 206.05 Q300.55 209.2 300.55 209.7" fill="url(#gradient8)" fill-rule="evenodd" stroke="none"/>
    <path d="M295.55 199.0 L295.65 198.9 295.8 198.95 295.8 199.1 295.7 199.2 295.65 199.25 295.55 199.2 295.5 199.05 295.55 199.0" fill="url(#gradient9)" fill-rule="evenodd" stroke="none"/>
    <path d="M295.2 198.6 L295.25 198.85 295.15 199.05 294.95 199.15 294.75 199.05 294.7 198.75 294.8 198.5 295.0 198.45 295.2 198.6" fill="url(#gradient10)" fill-rule="evenodd" stroke="none"/>
    <path d="M293.7 206.35 L294.05 200.15 294.15 197.65 292.65 196.65 289.0 206.4 289.95 208.25 Q290.75 209.55 291.7 210.5 L293.3 212.0 300.35 210.5 300.65 209.65 301.3 207.8 301.4 209.15 300.45 211.1 293.25 212.55 Q291.3 211.25 290.05 209.15 L289.95 208.25 M300.55 209.7 L299.05 205.1 297.45 200.55 295.85 197.1 294.7 197.75 294.15 197.65 M292.25 194.95 L292.3 196.1 292.65 196.65 M293.2 211.25 L293.7 206.35 M292.25 192.55 L292.5 192.05 295.75 192.15 Q296.6 192.4 296.5 192.95 L296.15 194.65 296.75 195.25 296.9 195.55 296.4 196.55 301.8 206.2 301.3 207.8 M292.25 192.55 L293.0 194.2 293.35 195.35 Q294.8 196.75 295.95 195.65 L296.15 194.65 M293.0 194.2 L292.25 194.95 M295.85 197.1 L296.4 196.55" fill="none" stroke="#000000" stroke-linecap="round" stroke-linejoin="round" stroke-opacity="0.4" stroke-width="0.05"/>
    <path d="M292.35 196.55 L292.55 196.35 Q294.7 200.0 296.7 196.85 L297.05 197.0 296.0 198.05 Q295.2 198.8 294.6 198.75 293.7 198.55 293.25 197.8 L292.35 196.55" fill="#cccccc" fill-rule="evenodd" stroke="none"/>
    <path d="M297.05 197.0 L297.0 197.45 Q294.8 200.95 292.3 197.1 L292.35 196.55 293.25 197.8 Q293.7 198.55 294.6 198.75 295.2 198.8 296.0 198.05 L297.05 197.0" fill="#999999" fill-rule="evenodd" stroke="none"/>
    <path d="M297.05 197.0 L297.0 197.45 Q294.8 200.95 292.3 197.1 L292.35 196.55 292.55 196.35 Q294.7 200.0 296.7 196.85 L297.05 197.0 Z" fill="none" stroke="#000000" stroke-linecap="round" stroke-linejoin="round" stroke-opacity="0.3882353" stroke-width="0.05"/>
    <path d="M291.95 219.25 L291.05 220.6 288.4 221.6 279.25 216.1 Q278.1 213.0 278.4 209.8 L278.9 208.85 Q278.9 210.85 279.15 212.65 L279.75 215.6 288.8 220.95 289.8 220.4 291.95 219.25" fill="url(#gradient11)" fill-rule="evenodd" stroke="none"/>
    <path d="M292.15 198.35 L293.55 198.35 293.1 199.8 Q293.6 202.45 295.7 202.55 L296.75 201.75 Q297.05 202.4 296.95 202.9 L294.45 203.1 292.95 201.9 Q291.8 200.25 292.15 198.35" fill="url(#gradient12)" fill-rule="evenodd" stroke="none"/>
    <path d="M291.3 200.3 L291.3 199.45 292.15 198.35 Q291.8 200.25 292.95 201.9 L294.45 203.1 296.95 202.9 296.8 203.35 295.4 203.85 294.45 203.85 292.6 203.35 292.1 202.7 Q291.35 201.5 291.3 200.3" fill="url(#gradient13)" fill-rule="evenodd" stroke="none"/>
    <path d="M279.15 212.65 Q278.9 210.85 278.9 208.85 L279.4 206.2 291.3 200.3 Q291.35 201.5 292.1 202.7 L290.05 205.05 284.7 210.55 284.3 210.55 284.7 209.95 290.15 204.3 Q289.6 203.6 290.55 203.35 291.0 202.55 289.3 203.35 287.8 203.4 288.55 202.4 L280.05 207.2 Q278.9 207.4 279.4 211.85 279.5 213.2 279.15 212.65" fill="url(#gradient14)" fill-rule="evenodd" stroke="none"/>
    <path d="M289.8 220.4 L288.8 220.95 279.75 215.6 279.15 212.65 Q279.5 213.2 279.4 211.85 278.9 207.4 280.05 207.2 L288.55 202.4 Q287.8 203.4 289.3 203.35 291.0 202.55 290.55 203.35 289.6 203.6 290.15 204.3 L284.7 209.95 284.3 210.55 284.7 210.55 290.05 205.05 Q290.0 205.8 291.3 205.8 291.6 206.85 292.4 206.2 292.7 205.9 292.7 206.85 293.55 205.0 293.65 206.0 292.85 209.9 291.6 213.3 L291.65 214.55 289.65 220.3 Q289.45 220.5 289.8 220.4 M284.7 210.55 L280.2 214.8 284.7 210.55" fill="url(#gradient15)" fill-rule="evenodd" stroke="none"/>
    <path d="M290.05 205.05 L292.1 202.7 292.6 203.35 294.45 203.85 293.45 208.7 291.65 214.55 291.6 213.3 Q292.85 209.9 293.65 206.0 293.55 205.0 292.7 206.85 292.7 205.9 292.4 206.2 291.6 206.85 291.3 205.8 290.0 205.8 290.05 205.05 M292.45 204.3 L292.1 204.2 291.8 204.3 291.7 204.6 291.8 204.9 292.1 205.05 292.45 204.9 292.55 204.6 292.45 204.3 M292.9 205.55 L292.8 205.4 292.65 205.35 292.5 205.4 292.45 205.55 292.5 205.7 292.65 205.75 292.8 205.7 292.9 205.55" fill="url(#gradient16)" fill-rule="evenodd" stroke="none"/>
    <path d="M292.45 204.3 L292.55 204.6 292.45 204.9 292.1 205.05 291.8 204.9 291.7 204.6 291.8 204.3 292.1 204.2 292.45 204.3" fill="url(#gradient17)" fill-rule="evenodd" stroke="none"/>
    <path d="M292.9 205.55 L292.8 205.7 292.65 205.75 292.5 205.7 292.45 205.55 292.5 205.4 292.65 205.35 292.8 205.4 292.9 205.55" fill="url(#gradient18)" fill-rule="evenodd" stroke="none"/>
    <path d="M291.95 219.25 L289.8 220.4 Q289.45 220.5 289.65 220.3 290.05 219.9 293.45 217.7 L294.6 207.9 Q294.25 208.5 294.45 207.55 294.75 205.35 294.2 206.2 L293.45 208.7 294.45 203.85 295.4 203.85 293.85 218.15 291.95 219.25" fill="url(#gradient19)" fill-rule="evenodd" stroke="none"/>
    <path d="M291.65 214.55 L293.45 208.7 294.2 206.2 Q294.75 205.35 294.45 207.55 294.25 208.5 294.6 207.9 L293.45 217.7 Q290.05 219.9 289.65 220.3 L291.65 214.55" fill="url(#gradient20)" fill-rule="evenodd" stroke="none"/>
    <path d="M294.1 196.1 L294.75 195.8 Q296.75 196.0 298.25 198.95 299.0 200.05 298.45 200.5 296.75 200.45 295.4 198.8 L296.2 197.6 295.25 198.35 Q294.0 197.3 294.1 196.1" fill="#d2ba80" fill-rule="evenodd" stroke="none"/>
    <path d="M295.4 198.8 L294.95 199.45 295.25 198.35 296.2 197.6 295.4 198.8" fill="#675325" fill-rule="evenodd" stroke="none"/>
    <path d="M293.55 198.35 L294.1 196.1 Q294.0 197.3 295.25 198.35 L294.95 199.45 295.4 198.8 Q296.75 200.45 298.45 200.5 L296.75 201.75 295.7 202.55 Q293.6 202.45 293.1 199.8 L293.55 198.35" fill="url(#gradient21)" fill-rule="evenodd" stroke="none"/>
    <path d="M278.9 208.85 L278.4 209.8 Q278.1 213.0 279.25 216.1 L288.4 221.6 291.05 220.6 291.95 219.25 289.8 220.4 288.8 220.95 279.75 215.6 279.15 212.65 Q278.9 210.85 278.9 208.85 L279.4 206.2 291.3 200.3 291.3 199.45 292.15 198.35 293.55 198.35 294.1 196.1 294.75 195.8 Q296.75 196.0 298.25 198.95 299.0 200.05 298.45 200.5 L296.75 201.75 Q297.05 202.4 296.95 202.9 L296.8 203.35 295.4 203.85 293.85 218.15 291.95 219.25 M296.75 201.75 L295.7 202.55 Q293.6 202.45 293.1 199.8 L293.55 198.35 M284.7 210.55 L290.05 205.05 292.1 202.7 Q291.35 201.5 291.3 200.3 M292.1 202.7 L292.6 203.35 294.45 203.85 295.4 203.85 M291.65 214.55 L293.45 208.7 294.45 203.85 M289.65 220.3 L291.65 214.55 M280.2 214.8 L284.7 210.55" fill="none" stroke="#000000" stroke-linecap="round" stroke-linejoin="round" stroke-opacity="0.4" stroke-width="0.05"/>
    <path d="M290.95 200.1 L291.3 200.1 Q290.8 205.6 295.5 204.5 L295.75 205.0 293.75 205.0 Q292.35 204.95 291.7 204.3 290.85 203.3 290.95 202.15 L290.95 200.1" fill="#cccccc" fill-rule="evenodd" stroke="none"/>
    <path d="M295.75 205.0 L295.4 205.4 Q290.15 206.6 290.45 200.55 L290.95 200.1 290.95 202.15 Q290.85 203.3 291.7 204.3 292.35 204.95 293.75 205.0 L295.75 205.0" fill="#999999" fill-rule="evenodd" stroke="none"/>
    <path d="M295.75 205.0 L295.4 205.4 Q290.15 206.6 290.45 200.55 L290.95 200.1 291.3 200.1 Q290.8 205.6 295.5 204.5 L295.75 205.0 Z" fill="none" stroke="#000000" stroke-linecap="round" stroke-linejoin="round" stroke-opacity="0.3882353" stroke-width="0.05"/>
    <path d="M282.1 197.1 Q281.25 196.9 281.05 196.2 L281.3 195.85 Q282.4 195.4 283.75 196.6 284.35 196.95 284.2 197.4 L282.3 197.3 282.45 196.4 282.1 197.1" fill="#d2ba80" fill-rule="evenodd" stroke="none"/>
    <path d="M282.1 197.1 L282.45 196.4 282.3 197.3 282.2 197.8 282.1 197.1" fill="#675325" fill-rule="evenodd" stroke="none"/>
    <path d="M282.2 201.85 L282.15 201.95 282.25 202.05 282.3 202.05 282.4 201.95 282.35 201.8 282.4 201.75 282.2 201.75 282.2 201.85 M281.9 201.8 L282.05 201.6 282.05 201.45 281.95 201.25 281.75 201.3 281.6 201.45 281.6 201.7 281.75 201.8 281.9 201.8 M283.7 207.25 L283.4 206.6 282.9 201.85 Q282.65 201.35 282.6 202.6 282.4 202.1 282.3 202.35 282.05 202.9 281.65 202.45 281.05 202.8 280.85 202.35 L281.4 200.5 281.75 200.7 282.85 200.45 283.4 203.4 283.7 207.25" fill="url(#gradient22)" fill-rule="evenodd" stroke="none"/>
    <path d="M283.95 199.15 L283.95 199.5 283.35 200.15 282.85 200.45 281.75 200.7 281.4 200.5 Q280.75 200.05 280.5 199.45 L280.3 198.9 280.55 198.05 Q280.75 199.2 281.7 199.75 L282.7 200.0 283.95 199.15" fill="url(#gradient23)" fill-rule="evenodd" stroke="none"/>
    <path d="M276.0 207.8 L275.7 206.15 280.5 199.45 Q280.75 200.05 281.4 200.5 L280.85 202.35 279.3 207.1 279.1 207.2 279.15 206.75 280.75 201.95 Q280.3 201.7 280.75 201.25 280.85 200.7 280.1 201.7 279.4 202.15 279.55 201.35 L276.2 206.6 Q275.65 207.05 276.85 209.35 277.15 210.1 276.85 209.8 L276.0 207.8" fill="url(#gradient24)" fill-rule="evenodd" stroke="none"/>
    <path d="M284.85 209.8 L284.6 210.85 283.5 212.15 277.65 211.8 Q276.45 210.35 275.9 208.5 L276.0 207.8 276.85 209.8 277.55 210.95 277.85 211.3 283.55 211.65 283.95 211.0 284.85 209.8" fill="url(#gradient25)" fill-rule="evenodd" stroke="none"/>
    <path d="M283.35 200.15 L285.55 208.6 284.85 209.8 283.95 211.0 283.85 211.05 285.25 208.5 283.8 202.65 Q283.75 203.1 283.65 202.55 283.35 201.15 283.25 201.75 L283.4 203.4 282.85 200.45 283.35 200.15" fill="url(#gradient26)" fill-rule="evenodd" stroke="none"/>
    <path d="M281.05 196.2 Q281.25 196.9 282.1 197.1 L282.2 197.8 282.3 197.3 284.2 197.4 283.6 198.6 283.2 199.3 Q282.15 199.85 281.3 198.55 L281.25 197.65 281.05 196.2" fill="url(#gradient27)" fill-rule="evenodd" stroke="none"/>
    <path d="M281.25 197.65 L281.3 198.55 Q282.15 199.85 283.2 199.3 L283.6 198.6 283.95 199.15 282.7 200.0 281.7 199.75 Q280.75 199.2 280.55 198.05 280.85 197.8 281.25 197.65" fill="url(#gradient28)" fill-rule="evenodd" stroke="none"/>
    <path d="M280.85 202.35 Q281.05 202.8 281.65 202.45 282.05 202.9 282.3 202.35 282.4 202.1 282.6 202.6 282.65 201.35 282.9 201.85 L283.4 206.6 283.7 207.25 283.85 211.05 283.95 211.0 283.55 211.65 277.85 211.3 277.55 210.95 279.3 207.1 277.55 210.95 276.85 209.8 Q277.15 210.1 276.85 209.35 275.65 207.05 276.2 206.6 L279.55 201.35 Q279.4 202.15 280.1 201.7 280.85 200.7 280.75 201.25 280.3 201.7 280.75 201.95 L279.15 206.75 279.1 207.2 279.3 207.1 280.85 202.35" fill="url(#gradient29)" fill-rule="evenodd" stroke="none"/>
    <path d="M283.7 207.25 L283.4 203.4 283.25 201.75 Q283.35 201.15 283.65 202.55 283.75 203.1 283.8 202.65 L285.25 208.5 283.85 211.05 283.7 207.25" fill="url(#gradient30)" fill-rule="evenodd" stroke="none"/>
    <path d="M281.9 201.8 L281.75 201.8 281.6 201.7 281.6 201.45 281.75 201.3 281.95 201.25 282.05 201.45 282.05 201.6 281.9 201.8" fill="url(#gradient31)" fill-rule="evenodd" stroke="none"/>
    <path d="M282.2 201.85 L282.2 201.75 282.4 201.75 282.35 201.8 282.4 201.95 282.3 202.05 282.25 202.05 282.15 201.95 282.2 201.85" fill="url(#gradient32)" fill-rule="evenodd" stroke="none"/>
    <path d="M284.2 197.4 Q284.35 196.95 283.75 196.6 282.4 195.4 281.3 195.85 L281.05 196.2 281.25 197.65 281.3 198.55 Q282.15 199.85 283.2 199.3 L283.6 198.6 284.2 197.4 M283.6 198.6 L283.95 199.15 283.95 199.5 283.35 200.15 285.55 208.6 284.85 209.8 284.6 210.85 283.5 212.15 277.65 211.8 Q276.45 210.35 275.9 208.5 L276.0 207.8 275.7 206.15 280.5 199.45 280.3 198.9 280.55 198.05 Q280.85 197.8 281.25 197.65 M283.7 207.25 L283.4 203.4 282.85 200.45 281.75 200.7 281.4 200.5 280.85 202.35 279.3 207.1 277.55 210.95 277.85 211.3 283.55 211.65 283.95 211.0 284.85 209.8 M283.85 211.05 L283.7 207.25 M282.85 200.45 L283.35 200.15 M281.4 200.5 Q280.75 200.05 280.5 199.45 M277.55 210.95 L276.85 209.8 276.0 207.8" fill="none" stroke="#000000" stroke-linecap="round" stroke-linejoin="round" stroke-opacity="0.4" stroke-width="0.05"/>
    <path d="M280.3 199.3 L280.45 199.2 Q281.35 202.4 283.5 200.4 L283.8 200.55 282.75 201.15 281.55 201.4 Q280.9 201.05 280.75 200.45 L280.3 199.3" fill="#cccccc" fill-rule="evenodd" stroke="none"/>
    <path d="M283.8 200.55 L283.65 200.9 Q281.25 203.1 280.15 199.7 L280.3 199.3 280.75 200.45 Q280.9 201.05 281.55 201.4 L282.75 201.15 283.8 200.55" fill="#999999" fill-rule="evenodd" stroke="none"/>
    <path d="M283.8 200.55 L283.65 200.9 Q281.25 203.1 280.15 199.7 L280.3 199.3 280.45 199.2 Q281.35 202.4 283.5 200.4 L283.8 200.55 Z" fill="none" stroke="#000000" stroke-linecap="round" stroke-linejoin="round" stroke-opacity="0.3882353" stroke-width="0.05"/>
  </g>
  <defs>
    <linearGradient gradientTransform="matrix(-0.0038, -4.0E-4, 2.0E-4, -0.0033, 295.9, 210.05)" gradientUnits="userSpaceOnUse" id="gradient0" spreadMethod="pad" x1="-819.2" x2="819.2">
      <stop offset="0.0" stop-color="#99cccc"/>
      <stop offset="1.0" stop-color="#d8ebeb"/>
    </linearGradient>
    <linearGradient gradientTransform="matrix(0.0012, 0.0017, -0.0042, 0.0042, 291.0, 201.65)" gradientUnits="userSpaceOnUse" id="gradient1" spreadMethod="pad" x1="-819.2" x2="819.2">
      <stop offset="0.0" stop-color="#99cccc"/>
      <stop offset="1.0" stop-color="#d8ebeb"/>
    </linearGradient>
    <linearGradient gradientTransform="matrix(0.0014, 6.0E-4, -7.0E-4, 0.0021, 294.9, 194.25)" gradientUnits="userSpaceOnUse" id="gradient2" spreadMethod="pad" x1="-819.2" x2="819.2">
      <stop offset="0.0" stop-color="#927634"/>
      <stop offset="1.0" stop-color="#51411e"/>
    </linearGradient>
    <linearGradient gradientTransform="matrix(0.0017, 4.0E-4, -3.0E-4, 0.0015, 294.75, 195.55)" gradientUnits="userSpaceOnUse" id="gradient3" spreadMethod="pad" x1="-819.2" x2="819.2">
      <stop offset="0.0" stop-color="#ffffff"/>
      <stop offset="1.0" stop-color="#d8ebeb"/>
    </linearGradient>
    <linearGradient gradientTransform="matrix(-9.0E-4, -8.0E-4, 0.0012, -0.002, 294.25, 195.6)" gradientUnits="userSpaceOnUse" id="gradient4" spreadMethod="pad" x1="-819.2" x2="819.2">
      <stop offset="0.0" stop-color="#99cccc"/>
      <stop offset="1.0" stop-color="#d8ebeb"/>
    </linearGradient>
    <linearGradient gradientTransform="matrix(0.0015, 0.0012, -0.0013, 0.0022, 295.6, 199.6)" gradientUnits="userSpaceOnUse" id="gradient5" spreadMethod="pad" x1="-819.2" x2="819.2">
      <stop offset="0.0" stop-color="#99cccc"/>
      <stop offset="1.0" stop-color="#d8ebeb"/>
    </linearGradient>
    <linearGradient gradientTransform="matrix(0.0014, 0.002, -0.0019, 0.0019, 296.45, 200.35)" gradientUnits="userSpaceOnUse" id="gradient6" spreadMethod="pad" x1="-819.2" x2="819.2">
      <stop offset="0.0" stop-color="#99cccc"/>
      <stop offset="1.0" stop-color="#d8ebeb"/>
    </linearGradient>
    <linearGradient gradientTransform="matrix(-0.0016, -0.0028, 0.0048, -0.004, 294.75, 206.1)" gradientUnits="userSpaceOnUse" id="gradient7" spreadMethod="pad" x1="-819.2" x2="819.2">
      <stop offset="0.0" stop-color="#35db77"/>
      <stop offset="1.0" stop-color="#91c444"/>
    </linearGradient>
    <linearGradient gradientTransform="matrix(-0.0015, -0.0022, 0.0016, -0.0016, 298.45, 203.65)" gradientUnits="userSpaceOnUse" id="gradient8" spreadMethod="pad" x1="-819.2" x2="819.2">
      <stop offset="0.0" stop-color="#35db77"/>
      <stop offset="1.0" stop-color="#91c444"/>
    </linearGradient>
    <linearGradient gradientTransform="matrix(1.0E-4, -1.0E-4, 1.0E-4, 2.0E-4, 295.65, 199.1)" gradientUnits="userSpaceOnUse" id="gradient9" spreadMethod="pad" x1="-819.2" x2="819.2">
      <stop offset="0.0" stop-color="#35db77"/>
      <stop offset="1.0" stop-color="#91c444"/>
    </linearGradient>
    <linearGradient gradientTransform="matrix(3.0E-4, -3.0E-4, 2.0E-4, 3.0E-4, 294.95, 198.8)" gradientUnits="userSpaceOnUse" id="gradient10" spreadMethod="pad" x1="-819.2" x2="819.2">
      <stop offset="0.0" stop-color="#35db77"/>
      <stop offset="1.0" stop-color="#91c444"/>
    </linearGradient>
    <linearGradient gradientTransform="matrix(-0.004, -0.004, 0.0029, -0.0029, 284.25, 216.25)" gradientUnits="userSpaceOnUse" id="gradient11" spreadMethod="pad" x1="-819.2" x2="819.2">
      <stop offset="0.0" stop-color="#99cccc"/>
      <stop offset="1.0" stop-color="#d8ebeb"/>
    </linearGradient>
    <linearGradient gradientTransform="matrix(0.0015, 0.002, -0.0015, 0.0011, 294.45, 201.3)" gradientUnits="userSpaceOnUse" id="gradient12" spreadMethod="pad" x1="-819.2" x2="819.2">
      <stop offset="0.0" stop-color="#ffffff"/>
      <stop offset="1.0" stop-color="#d8ebeb"/>
    </linearGradient>
    <linearGradient gradientTransform="matrix(-4.0E-4, -0.0016, 0.0029, -8.0E-4, 293.9, 200.9)" gradientUnits="userSpaceOnUse" id="gradient13" spreadMethod="pad" x1="-819.2" x2="819.2">
      <stop offset="0.0" stop-color="#99cccc"/>
      <stop offset="1.0" stop-color="#d8ebeb"/>
    </linearGradient>
    <linearGradient gradientTransform="matrix(0.0, 0.0027, -0.0081, 0.0, 285.5, 203.55)" gradientUnits="userSpaceOnUse" id="gradient14" spreadMethod="pad" x1="-819.2" x2="819.2">
      <stop offset="0.0" stop-color="#99cccc"/>
      <stop offset="1.0" stop-color="#d8ebeb"/>
    </linearGradient>
    <linearGradient gradientTransform="matrix(0.0015, -0.0042, 0.0081, 0.003, 285.65, 211.3)" gradientUnits="userSpaceOnUse" id="gradient15" spreadMethod="pad" x1="-819.2" x2="819.2">
      <stop offset="0.0" stop-color="#ff6699"/>
      <stop offset="1.0" stop-color="#c83737"/>
    </linearGradient>
    <linearGradient gradientTransform="matrix(7.0E-4, 0.0026, -0.0032, 9.0E-4, 292.15, 206.0)" gradientUnits="userSpaceOnUse" id="gradient16" spreadMethod="pad" x1="-819.2" x2="819.2">
      <stop offset="0.0" stop-color="#99cccc"/>
      <stop offset="1.0" stop-color="#d8ebeb"/>
    </linearGradient>
    <linearGradient gradientTransform="matrix(5.0E-4, 0.0, 0.0, 5.0E-4, 292.1, 204.6)" gradientUnits="userSpaceOnUse" id="gradient17" spreadMethod="pad" x1="-819.2" x2="819.2">
      <stop offset="0.0" stop-color="#ff6699"/>
      <stop offset="1.0" stop-color="#c83737"/>
    </linearGradient>
    <linearGradient gradientTransform="matrix(2.0E-4, 0.0, 0.0, 2.0E-4, 292.65, 205.55)" gradientUnits="userSpaceOnUse" id="gradient18" spreadMethod="pad" x1="-819.2" x2="819.2">
      <stop offset="0.0" stop-color="#ff6699"/>
      <stop offset="1.0" stop-color="#c83737"/>
    </linearGradient>
    <linearGradient gradientTransform="matrix(0.0, 0.0032, -0.0036, 0.0, 292.5, 207.55)" gradientUnits="userSpaceOnUse" id="gradient19" spreadMethod="pad" x1="-819.2" x2="819.2">
      <stop offset="0.0" stop-color="#99cccc"/>
      <stop offset="1.0" stop-color="#d8ebeb"/>
    </linearGradient>
    <linearGradient gradientTransform="matrix(2.0E-4, -0.0032, 0.0024, 2.0E-4, 292.1, 214.25)" gradientUnits="userSpaceOnUse" id="gradient20" spreadMethod="pad" x1="-819.2" x2="819.2">
      <stop offset="0.0" stop-color="#ff6699"/>
      <stop offset="1.0" stop-color="#c83737"/>
    </linearGradient>
    <linearGradient gradientTransform="matrix(0.0011, 0.0019, -0.0024, 0.0014, 295.65, 200.25)" gradientUnits="userSpaceOnUse" id="gradient21" spreadMethod="pad" x1="-819.2" x2="819.2">
      <stop offset="0.0" stop-color="#927634"/>
      <stop offset="1.0" stop-color="#51411e"/>
    </linearGradient>
    <linearGradient gradientTransform="matrix(9.0E-4, 0.0012, -0.0015, 0.0014, 282.15, 202.3)" gradientUnits="userSpaceOnUse" id="gradient22" spreadMethod="pad" x1="-819.2" x2="819.2">
      <stop offset="0.0" stop-color="#99cccc"/>
      <stop offset="1.0" stop-color="#d8ebeb"/>
    </linearGradient>
    <linearGradient gradientTransform="matrix(-6.0E-4, -8.0E-4, 0.0013, -0.0013, 281.9, 198.95)" gradientUnits="userSpaceOnUse" id="gradient23" spreadMethod="pad" x1="-819.2" x2="819.2">
      <stop offset="0.0" stop-color="#99cccc"/>
      <stop offset="1.0" stop-color="#d8ebeb"/>
    </linearGradient>
    <linearGradient gradientTransform="matrix(6.0E-4, 0.0015, -0.0041, 0.0024, 278.15, 202.9)" gradientUnits="userSpaceOnUse" id="gradient24" spreadMethod="pad" x1="-819.2" x2="819.2">
      <stop offset="0.0" stop-color="#99cccc"/>
      <stop offset="1.0" stop-color="#d8ebeb"/>
    </linearGradient>
    <linearGradient gradientTransform="matrix(-0.0029, -0.0011, 9.0E-4, -0.0025, 280.25, 210.4)" gradientUnits="userSpaceOnUse" id="gradient25" spreadMethod="pad" x1="-819.2" x2="819.2">
      <stop offset="0.0" stop-color="#99cccc"/>
      <stop offset="1.0" stop-color="#d8ebeb"/>
    </linearGradient>
    <linearGradient gradientTransform="matrix(7.0E-4, 0.0018, -0.0018, 0.0011, 282.65, 203.05)" gradientUnits="userSpaceOnUse" id="gradient26" spreadMethod="pad" x1="-819.2" x2="819.2">
      <stop offset="0.0" stop-color="#99cccc"/>
      <stop offset="1.0" stop-color="#d8ebeb"/>
    </linearGradient>
    <linearGradient gradientTransform="matrix(9.0E-4, 7.0E-4, -9.0E-4, 0.0015, 282.7, 198.05)" gradientUnits="userSpaceOnUse" id="gradient27" spreadMethod="pad" x1="-819.2" x2="819.2">
      <stop offset="0.0" stop-color="#927634"/>
      <stop offset="1.0" stop-color="#51411e"/>
    </linearGradient>
    <linearGradient gradientTransform="matrix(0.0012, 7.0E-4, -5.0E-4, 0.0011, 282.3, 199.0)" gradientUnits="userSpaceOnUse" id="gradient28" spreadMethod="pad" x1="-819.2" x2="819.2">
      <stop offset="0.0" stop-color="#ffffff"/>
      <stop offset="1.0" stop-color="#d8ebeb"/>
    </linearGradient>
    <linearGradient gradientTransform="matrix(-7.0E-4, -0.0025, 0.0045, -0.0021, 280.15, 207.1)" gradientUnits="userSpaceOnUse" id="gradient29" spreadMethod="pad" x1="-819.2" x2="819.2">
      <stop offset="0.0" stop-color="#0033cc"/>
      <stop offset="1.0" stop-color="#4b7e85"/>
    </linearGradient>
    <linearGradient gradientTransform="matrix(-7.0E-4, -0.002, 0.0016, -9.0E-4, 283.5, 205.95)" gradientUnits="userSpaceOnUse" id="gradient30" spreadMethod="pad" x1="-819.2" x2="819.2">
      <stop offset="0.0" stop-color="#0033cc"/>
      <stop offset="1.0" stop-color="#4b7e85"/>
    </linearGradient>
    <linearGradient gradientTransform="matrix(2.0E-4, -2.0E-4, 1.0E-4, 3.0E-4, 281.8, 201.55)" gradientUnits="userSpaceOnUse" id="gradient31" spreadMethod="pad" x1="-819.2" x2="819.2">
      <stop offset="0.0" stop-color="#0033cc"/>
      <stop offset="1.0" stop-color="#4b7e85"/>
    </linearGradient>
    <linearGradient gradientTransform="matrix(1.0E-4, -1.0E-4, 0.0, 1.0E-4, 282.3, 201.9)" gradientUnits="userSpaceOnUse" id="gradient32" spreadMethod="pad" x1="-819.2" x2="819.2">
      <stop offset="0.0" stop-color="#0033cc"/>
      <stop offset="1.0" stop-color="#4b7e85"/>
    </linearGradient>
  </defs>
</svg>
