<?xml version="1.0" encoding="UTF-8" standalone="no"?>
<svg xmlns:xlink="http://www.w3.org/1999/xlink" height="73.1px" width="85.0px" xmlns="http://www.w3.org/2000/svg">
  <g transform="matrix(1.0, 0.0, 0.0, 1.0, 0.25, 0.25)">
    <path d="M84.5 31.85 L83.55 32.7 78.8 36.85 65.9 41.45 70.65 38.8 61.3 40.25 52.25 38.2 54.85 37.35 56.7 36.75 60.15 35.6 65.5 34.5 68.7 34.85 70.7 34.45 84.5 31.85 M65.3 43.75 L74.4 46.1 83.5 45.7 75.15 49.2 65.5 50.45 54.0 45.45 46.2 44.15 45.5 43.8 47.6 43.8 51.25 41.85 56.15 41.1 57.0 41.6 65.3 43.75 M2.6 43.05 L2.9 38.8 3.2 38.05 3.9 41.7 2.6 43.05 M58.4 26.65 L65.65 26.6 70.75 24.2 64.25 28.55 60.7 29.3 60.65 29.15 59.75 27.45 58.4 26.65 M67.1 29.45 L76.9 24.35 74.75 29.7 74.3 30.25 67.4 33.3 70.0 30.35 69.75 30.55 62.9 32.45 59.25 32.45 53.9 34.5 56.4 33.05 57.0 32.7 58.35 31.85 61.35 31.15 64.65 30.7 67.1 29.45 M49.65 48.9 L51.65 48.6 55.4 49.2 58.15 50.05 62.4 52.7 56.05 51.5 49.65 48.9" fill="#ffcc00" fill-rule="evenodd" stroke="none"/>
    <path d="M36.8 4.85 Q37.1 4.15 37.75 3.5 38.6 2.65 39.45 2.4 L40.8 2.55 Q41.2 2.95 40.9 3.85 40.65 4.7 39.8 5.55 38.95 6.4 38.05 6.7 L37.8 6.75 36.8 6.55 Q36.35 6.1 36.6 5.25 L36.8 4.85 M34.25 5.6 L33.95 5.25 Q33.35 4.45 33.0 3.25 32.7 2.05 32.85 1.15 33.0 0.15 33.6 0.0 34.15 -0.15 34.75 0.65 35.4 1.35 35.7 2.55 36.0 3.7 35.9 4.65 L35.4 4.75 Q34.7 4.95 34.25 5.6" fill="#ffffff" fill-rule="evenodd" stroke="none"/>
    <path d="M37.8 6.75 L37.55 7.55 36.35 8.4 34.9 8.25 Q34.3 7.85 34.1 7.1 33.85 6.3 34.25 5.6 34.7 4.95 35.4 4.75 L35.9 4.65 36.8 4.85 36.6 5.25 Q36.35 6.1 36.8 6.55 L37.8 6.75" fill="#000000" fill-rule="evenodd" stroke="none"/>
    <path d="M2.5 61.05 L4.6 60.1 6.35 57.45 8.35 60.85 8.35 57.35 9.3 54.55 10.0 54.95 12.6 54.5 10.75 57.45 10.85 59.6 11.75 58.35 13.2 56.95 13.55 57.3 14.25 59.6 16.45 62.45 14.6 65.2 11.25 64.45 10.6 63.35 7.6 62.7 5.35 61.6 4.4 62.05 2.5 61.05 M2.1 49.95 L3.1 46.85 4.6 46.2 5.3 45.0 6.0 43.85 4.0 37.1 6.4 39.55 6.4 43.7 5.75 47.2 6.4 50.7 7.25 52.95 5.6 51.7 2.1 49.95 M48.25 39.5 L46.35 38.35 44.75 35.7 42.1 34.85 43.5 37.85 43.5 40.45 42.6 43.1 43.35 45.7 44.85 47.35 45.35 47.35 47.0 47.35 49.1 45.85 49.65 46.05 51.35 46.6 55.4 49.2 51.65 48.6 49.65 48.9 47.65 49.2 49.8 50.45 48.6 50.45 47.5 52.6 45.35 52.6 41.75 55.95 41.75 59.2 40.0 61.45 36.6 62.35 33.5 61.7 30.25 62.85 27.4 62.05 26.15 60.1 26.6 60.35 29.6 60.35 34.35 57.95 36.25 53.45 35.6 48.1 35.0 43.2 32.75 40.8 37.25 36.45 33.1 35.7 30.25 35.7 26.5 34.6 21.35 37.45 16.85 37.45 13.0 33.85 8.6 34.2 7.15 32.95 10.55 31.9 14.5 33.45 44.25 33.45 46.65 33.25 52.0 32.7 52.5 32.65 52.5 32.7 52.0 32.7 52.5 32.7 52.5 32.65 54.5 32.45 55.95 31.85 56.3 32.7 56.4 33.05 53.9 34.5 53.5 34.7 56.85 34.2 55.85 35.8 54.4 36.35 55.4 36.55 54.4 36.35 55.85 35.8 55.4 36.55 54.85 37.35 52.25 38.2 51.75 38.35 53.3 39.3 50.25 40.7 48.25 39.5 48.25 39.35 47.1 33.85 46.65 33.25 47.1 33.85 48.25 39.35 48.25 39.5 M48.25 39.35 L50.25 37.0 52.25 34.6 52.5 32.7 56.3 32.7 52.5 32.7 52.25 34.6 50.25 37.0 48.25 39.35 M50.25 37.0 L47.1 33.85 50.25 37.0 M11.2 38.95 L11.65 39.2 15.4 43.95 17.15 43.3 16.35 40.35 14.85 38.75 18.6 40.2 22.2 39.7 20.6 40.95 19.0 40.95 19.0 43.05 22.0 44.2 18.65 47.95 18.35 53.1 14.25 53.1 13.1 53.6 14.1 50.2 14.05 49.95 14.4 46.95 13.75 43.05 11.2 38.95 M19.75 55.2 L20.75 59.55 19.75 61.7 17.25 60.5 17.0 59.5 15.1 55.0 18.25 56.6 19.75 55.2" fill="#cccc99" fill-rule="evenodd" stroke="none"/>
    <path d="M57.7 53.6 L57.35 55.45 57.25 55.95 55.5 59.7 52.75 60.85 52.0 58.95 49.25 57.6 47.5 58.35 45.35 58.85 44.25 60.6 44.85 57.85 46.0 55.7 47.6 55.7 48.25 55.15 48.4 54.95 49.4 54.0 51.85 53.2 49.4 54.0 48.4 54.95 48.25 55.15 47.6 55.7 46.0 55.7 44.85 57.85 44.25 60.6 45.85 63.85 45.25 66.7 42.75 67.15 41.35 68.7 37.75 69.1 36.5 67.35 33.85 66.2 31.6 66.7 31.0 69.1 29.6 69.1 28.9 70.6 28.75 70.9 27.45 70.9 27.1 71.85 24.75 72.6 23.85 72.25 26.25 68.15 24.35 68.2 23.9 69.0 21.05 69.15 21.35 68.45 19.6 66.85 21.35 68.45 21.05 69.15 20.7 69.95 19.75 71.85 18.75 71.85 17.9 71.1 17.0 71.45 15.65 70.95 18.6 68.7 19.6 66.85 17.1 67.6 16.7 68.05 15.35 68.05 13.55 67.1 13.75 66.7 12.0 65.35 13.75 66.7 13.55 67.1 12.6 68.95 12.25 69.6 10.6 69.6 10.1 68.95 8.75 68.95 12.0 65.35 10.0 65.35 9.1 66.2 7.6 65.6 6.7 64.95 7.0 63.35 5.25 63.35 7.0 63.35 6.7 64.95 6.6 65.45 5.95 67.05 5.5 68.2 4.5 68.2 3.7 67.3 3.25 67.6 3.25 68.6 1.25 67.75 5.25 63.35 3.5 62.45 2.75 63.1 2.35 63.65 2.1 61.2 2.5 61.05 4.4 62.05 5.35 61.6 7.6 62.7 10.6 63.35 11.25 64.45 14.6 65.2 16.45 62.45 14.25 59.6 13.55 57.3 17.1 60.65 17.4 60.95 17.25 60.5 19.75 61.7 20.75 59.55 19.75 55.2 18.35 53.1 18.65 47.95 22.0 44.2 26.15 40.45 30.3 39.65 32.75 40.8 35.0 43.2 35.6 48.1 32.95 44.55 32.55 43.9 Q31.6 42.7 30.5 42.3 L28.65 42.2 Q26.4 42.7 24.65 44.4 22.85 46.05 22.85 49.45 22.85 52.15 23.7 53.85 L24.55 57.5 26.6 60.35 26.15 60.1 27.4 62.05 30.25 62.85 33.5 61.7 36.6 62.35 40.0 61.45 41.75 59.2 41.75 55.95 45.35 52.6 47.5 52.6 48.6 50.45 49.8 50.45 54.75 53.4 57.7 53.6 M6.35 57.45 L5.5 54.45 2.1 49.95 5.6 51.7 7.25 52.95 6.4 50.7 5.75 47.2 6.4 43.7 6.4 39.55 8.65 37.45 11.2 38.95 13.75 43.05 14.4 46.95 14.05 49.95 13.15 45.95 13.15 45.85 13.05 45.5 Q12.75 44.2 12.1 43.2 11.0 41.45 9.95 41.2 8.9 40.95 8.0 42.8 7.05 44.7 7.05 47.4 7.05 48.45 7.2 49.4 L7.3 49.8 7.5 53.6 9.3 54.55 8.35 57.35 8.35 60.85 6.35 57.45 M42.1 34.85 L44.75 35.7 46.35 38.35 48.25 39.5 50.25 40.7 53.3 39.3 56.15 41.1 51.25 41.85 47.6 43.8 45.5 43.8 46.2 44.15 46.95 44.55 49.65 46.05 49.1 45.85 47.0 47.35 45.35 47.35 44.85 47.35 43.35 45.7 42.6 43.1 43.5 40.45 43.5 37.85 42.1 34.85 M8.6 34.2 L13.0 33.85 16.85 37.45 21.35 37.45 26.5 34.6 30.25 35.7 26.25 36.35 22.2 39.7 18.6 40.2 14.85 38.75 10.75 34.45 8.6 34.2 M56.4 33.05 L56.3 32.7 55.95 31.85 Q57.25 31.25 58.5 30.7 L60.65 29.15 60.7 29.3 61.35 31.15 58.35 31.85 57.0 32.7 56.4 33.05 M55.85 35.8 L56.85 34.2 59.15 33.85 60.05 33.95 55.85 35.8 M56.3 32.7 L57.0 32.7 56.3 32.7 M54.85 37.35 L55.4 36.55 56.7 36.75 54.85 37.35 M27.45 70.9 L27.75 69.95 26.75 68.1 26.25 68.15 26.75 68.1 27.75 69.95 27.45 70.9 M4.85 66.45 L3.7 67.3 4.85 66.45 M44.1 65.6 L42.75 67.15 44.1 65.6 M18.85 70.7 L17.9 71.1 18.85 70.7 M48.25 39.5 L47.6 43.8 48.25 39.5 M45.35 47.35 L46.95 44.55 45.35 47.35" fill="#b0af68" fill-rule="evenodd" stroke="none"/>
    <path d="M23.85 72.25 L22.85 71.85 23.35 70.2 23.45 69.8 23.9 69.0 24.35 68.2 26.25 68.15 23.85 72.25 M15.65 70.95 L15.35 70.85 14.6 69.95 15.4 69.5 15.6 69.35 16.7 68.05 17.1 67.6 19.6 66.85 18.6 68.7 15.65 70.95 M8.75 68.95 L7.6 68.45 8.15 67.7 9.1 66.2 10.0 65.35 12.0 65.35 8.75 68.95 M1.25 67.75 L0.0 67.2 0.0 65.95 1.35 65.1 2.35 63.65 2.75 63.1 3.5 62.45 5.25 63.35 1.25 67.75 M3.9 36.35 L3.1 30.35 3.35 29.0 10.55 31.9 7.15 32.95 8.6 34.2 10.75 34.45 14.85 38.75 16.35 40.35 17.15 43.3 15.4 43.95 11.65 39.2 11.2 38.95 8.65 37.45 6.4 39.55 4.0 37.1 3.9 36.35 M30.25 35.7 L33.1 35.7 37.25 36.45 32.75 40.8 30.3 39.65 26.15 40.45 22.0 44.2 19.0 43.05 19.0 40.95 20.6 40.95 22.2 39.7 26.25 36.35 30.25 35.7 M35.6 48.1 L36.25 53.45 34.35 57.95 29.6 60.35 26.6 60.35 24.55 57.5 23.7 53.85 24.2 54.6 24.95 55.5 26.65 56.75 29.05 56.9 Q30.1 56.65 31.15 55.5 L31.65 54.75 Q33.25 52.35 33.7 49.2 34.1 46.5 32.95 44.55 L35.6 48.1 M52.5 32.65 L52.0 32.7 46.65 33.25 45.75 31.95 51.4 31.35 52.5 32.65 M18.35 53.1 L19.75 55.2 18.25 56.6 15.1 55.0 14.25 53.1 18.35 53.1 M13.15 45.95 L14.05 49.95 14.1 50.2 13.1 53.6 12.6 54.5 10.0 54.95 9.3 54.55 7.5 53.6 7.3 49.8 Q7.5 50.95 8.0 51.9 8.9 53.8 10.25 53.8 11.55 53.8 12.5 51.9 13.45 50.05 13.35 47.5 L13.15 45.95" fill="#d9d9b7" fill-rule="evenodd" stroke="none"/>
    <path d="M3.35 29.0 L7.0 26.45 22.25 23.95 43.25 23.95 56.0 25.2 58.4 26.65 59.75 27.45 60.65 29.15 58.5 30.7 Q57.25 31.25 55.95 31.85 L54.5 32.45 52.5 32.65 51.4 31.35 51.9 31.3 55.0 30.45 59.0 28.7 55.25 26.2 42.75 24.95 22.4 24.95 11.9 26.8 6.15 28.55 9.1 29.75 14.5 31.95 45.75 31.95 46.65 33.25 44.25 33.45 14.5 33.45 10.55 31.9 3.35 29.0" fill="#eae9d9" fill-rule="evenodd" stroke="none"/>
    <path d="M51.4 31.35 L45.75 31.95 14.5 31.95 9.1 29.75 17.75 27.95 42.5 27.95 55.0 30.45 51.9 31.3 51.4 31.35 M32.95 44.55 Q34.1 46.5 33.7 49.2 33.25 52.35 31.65 54.75 L31.15 55.5 Q30.1 56.65 29.05 56.9 L26.65 56.75 24.95 55.5 24.2 54.6 23.7 53.85 Q22.85 52.15 22.85 49.45 22.85 46.05 24.65 44.4 26.4 42.7 28.65 42.2 L30.5 42.3 Q31.6 42.7 32.55 43.9 L32.95 44.55 M17.1 60.65 L13.55 57.3 13.2 56.95 11.75 58.35 10.85 59.6 10.75 57.45 12.6 54.5 13.1 53.6 14.25 53.1 15.1 55.0 17.0 59.5 17.25 60.5 17.1 60.65 M7.2 49.4 Q7.05 48.45 7.05 47.4 7.05 44.7 8.0 42.8 8.9 40.95 9.95 41.2 11.0 41.45 12.1 43.2 12.75 44.2 13.05 45.5 L13.15 45.85 13.15 45.95 13.35 47.5 Q13.45 50.05 12.5 51.9 11.55 53.8 10.25 53.8 8.9 53.8 8.0 51.9 7.5 50.95 7.3 49.8 L7.2 49.4" fill="#444422" fill-rule="evenodd" stroke="none"/>
    <path d="M78.8 36.85 L73.5 41.45 65.3 43.75 57.0 41.6 56.15 41.1 53.3 39.3 51.75 38.35 52.25 38.2 61.3 40.25 70.65 38.8 65.9 41.45 78.8 36.85 M83.5 45.7 L76.4 51.45 70.95 52.8 65.5 54.1 57.75 53.6 57.7 53.6 54.75 53.4 49.8 50.45 47.65 49.2 49.65 48.9 56.05 51.5 62.4 52.7 58.15 50.05 55.4 49.2 51.35 46.6 49.65 46.05 46.95 44.55 46.2 44.15 54.0 45.45 65.5 50.45 75.15 49.2 83.5 45.7 M5.3 45.0 L2.5 43.95 2.6 43.05 3.9 41.7 3.2 38.05 3.9 36.35 4.0 37.1 6.0 43.85 5.3 45.0 M70.75 24.2 L67.1 29.45 64.65 30.7 61.35 31.15 60.7 29.3 64.25 28.55 70.75 24.2 M74.3 30.25 L70.7 34.45 68.7 34.85 65.5 34.5 60.15 35.6 56.7 36.75 55.4 36.55 55.85 35.8 60.05 33.95 59.15 33.85 56.85 34.2 53.5 34.7 53.9 34.5 59.25 32.45 62.9 32.45 69.75 30.55 70.0 30.35 67.4 33.3 74.3 30.25 M60.05 33.95 L65.5 34.5 60.05 33.95 M70.95 52.8 L62.75 51.45 58.15 50.05 62.75 51.45 70.95 52.8" fill="#ff9900" fill-rule="evenodd" stroke="none"/>
    <path d="M55.0 30.45 L42.5 27.95 17.75 27.95 9.1 29.75 6.15 28.55 11.9 26.8 22.4 24.95 42.75 24.95 55.25 26.2 59.0 28.7 55.0 30.45 M17.25 60.5 L17.4 60.95 17.1 60.65 17.25 60.5" fill="#666633" fill-rule="evenodd" stroke="none"/>
    <path d="M57.35 55.45 Q63.5 56.1 67.95 57.5 73.3 59.2 73.75 60.95 72.4 62.3 64.75 63.3 L52.75 64.7 52.0 64.95 53.7 65.95 Q55.05 66.7 55.5 66.7 54.95 68.0 47.7 69.0 L38.25 69.7 38.0 69.7 38.75 70.2 38.75 70.25 33.35 70.7 28.9 70.6 29.6 69.1 31.0 69.1 31.6 66.7 33.85 66.2 36.5 67.35 37.75 69.1 41.35 68.7 42.75 67.15 45.25 66.7 45.85 63.85 44.25 60.6 45.35 58.85 47.5 58.35 49.25 57.6 52.0 58.95 52.75 60.85 55.5 59.7 57.25 55.95 57.35 55.45 M23.35 70.2 L20.7 69.95 21.05 69.15 23.9 69.0 23.45 69.8 23.35 70.2 M15.4 69.5 L15.0 69.45 12.6 68.95 13.55 67.1 15.35 68.05 16.7 68.05 15.6 69.35 15.4 69.5 M8.15 67.7 L5.95 67.05 6.6 65.45 6.7 64.95 7.6 65.6 9.1 66.2 8.15 67.7" fill="#000000" fill-opacity="0.2901961" fill-rule="evenodd" stroke="none"/>
    <path d="M83.55 32.7 L78.8 36.85 73.5 41.45 65.3 43.75 74.4 46.1 83.5 45.7 76.4 51.45 70.95 52.8 65.5 54.1 57.75 53.6 57.7 53.6 57.35 55.45 57.25 55.95 55.5 59.7 52.75 60.85 52.0 58.95 49.25 57.6 47.5 58.35 45.35 58.85 44.25 60.6 44.85 57.85 46.0 55.7 47.6 55.7 48.25 55.15 48.4 54.95 49.4 54.0 51.85 53.2 M28.9 70.6 L28.75 70.9 27.45 70.9 27.1 71.85 24.75 72.6 23.85 72.25 22.85 71.85 23.35 70.2 23.45 69.8 23.9 69.0 24.35 68.2 26.25 68.15 26.75 68.1 27.75 69.95 27.45 70.9 M20.7 69.95 L19.75 71.85 18.75 71.85 17.9 71.1 17.0 71.45 15.65 70.95 15.35 70.85 14.6 69.95 15.4 69.5 15.6 69.35 16.7 68.05 17.1 67.6 19.6 66.85 21.35 68.45 21.05 69.15 23.9 69.0 M12.6 68.95 L12.25 69.6 10.6 69.6 10.1 68.95 8.75 68.95 7.6 68.45 8.15 67.7 9.1 66.2 10.0 65.35 12.0 65.35 13.75 66.7 13.55 67.1 15.35 68.05 16.7 68.05 M5.95 67.05 L5.5 68.2 4.5 68.2 3.7 67.3 3.25 67.6 3.25 68.6 1.25 67.75 0.0 67.2 0.0 65.95 1.35 65.1 2.35 63.65 2.1 61.2 2.5 61.05 4.6 60.1 6.35 57.45 5.5 54.45 2.1 49.95 3.1 46.85 4.6 46.2 5.3 45.0 2.5 43.95 2.6 43.05 2.9 38.8 3.2 38.05 3.9 36.35 3.1 30.35 3.35 29.0 7.0 26.45 22.25 23.95 43.25 23.95 56.0 25.2 58.4 26.65 65.65 26.6 70.75 24.2 67.1 29.45 76.9 24.35 74.75 29.7 74.3 30.25 70.7 34.45 84.5 31.85 M36.8 4.85 Q37.1 4.15 37.75 3.5 38.6 2.65 39.45 2.4 L40.8 2.55 Q41.2 2.95 40.9 3.85 40.65 4.7 39.8 5.55 38.95 6.4 38.05 6.7 L37.8 6.75 37.55 7.55 36.35 8.4 34.9 8.25 Q34.3 7.85 34.1 7.1 33.85 6.3 34.25 5.6 L33.95 5.25 Q33.35 4.45 33.0 3.25 32.7 2.05 32.85 1.15 33.0 0.15 33.6 0.0 34.15 -0.15 34.75 0.65 35.4 1.35 35.7 2.55 36.0 3.7 35.9 4.65 L36.8 4.85 36.6 5.25 Q36.35 6.1 36.8 6.55 L37.8 6.75 M37.75 10.05 Q38.5 9.0 41.0 7.8 44.2 6.2 47.65 6.2 L49.4 6.3 Q50.25 6.45 50.25 7.05 50.25 8.05 49.55 8.85 L48.65 9.7 46.65 11.55 Q45.55 12.4 44.15 13.05 L41.75 14.5 44.0 14.9 Q44.0 15.6 43.25 16.75 L41.8 18.05 41.25 18.2 M41.75 14.5 L41.0 14.95 Q38.1 16.6 36.75 16.95 L36.5 16.8 Q36.7 15.45 39.1 14.8 L41.75 14.5 M48.25 39.5 L48.25 39.35 47.1 33.85 46.65 33.25 44.25 33.45 14.5 33.45 10.55 31.9 3.35 29.0 M49.8 50.45 L47.65 49.2 49.65 48.9 51.65 48.6 55.4 49.2 51.35 46.6 49.65 46.05 49.1 45.85 47.0 47.35 45.35 47.35 44.85 47.35 43.35 45.7 42.6 43.1 43.5 40.45 43.5 37.85 42.1 34.85 M46.65 33.25 L52.0 32.7 52.5 32.65 51.4 31.35 45.75 31.95 46.65 33.25 M52.0 32.7 L52.5 32.7 52.5 32.65 54.5 32.45 55.95 31.85 Q57.25 31.25 58.5 30.7 L60.65 29.15 60.7 29.3 61.35 31.15 64.65 30.7 67.1 29.45 M56.3 32.7 L52.5 32.7 52.25 34.6 50.25 37.0 48.25 39.35 M51.4 31.35 L51.9 31.3 55.0 30.45 59.0 28.7 55.25 26.2 42.75 24.95 22.4 24.95 11.9 26.8 6.15 28.55 9.1 29.75 14.5 31.95 45.75 31.95 M47.1 33.85 L50.25 37.0 M55.85 35.8 L54.4 36.35 55.4 36.55 56.7 36.75 60.15 35.6 65.5 34.5 60.05 33.95 55.85 35.8 M56.85 34.2 L53.5 34.7 53.9 34.5 56.4 33.05 57.0 32.7 56.3 32.7 M53.3 39.3 L51.75 38.35 52.25 38.2 54.85 37.35 56.7 36.75 M57.0 32.7 L58.35 31.85 61.35 31.15 M58.4 26.65 L59.75 27.45 60.65 29.15 M60.05 33.95 L59.15 33.85 56.85 34.2 M70.7 34.45 L68.7 34.85 65.5 34.5 M34.25 5.6 Q34.7 4.95 35.4 4.75 L35.9 4.65 M3.9 36.35 L4.0 37.1 6.0 43.85 5.3 45.0 M16.35 40.35 L14.85 38.75 10.75 34.45 8.6 34.2 M22.2 39.7 L26.25 36.35 30.25 35.7 M32.95 44.55 Q34.1 46.5 33.7 49.2 33.25 52.35 31.65 54.75 L31.15 55.5 Q30.1 56.65 29.05 56.9 L26.65 56.75 24.95 55.5 24.2 54.6 23.7 53.85 Q22.85 52.15 22.85 49.45 22.85 46.05 24.65 44.4 26.4 42.7 28.65 42.2 L30.5 42.3 Q31.6 42.7 32.55 43.9 L32.95 44.55 M17.25 60.5 L17.4 60.95 17.1 60.65 13.55 57.3 13.2 56.95 11.75 58.35 10.85 59.6 10.75 57.45 12.6 54.5 13.1 53.6 14.25 53.1 15.1 55.0 17.0 59.5 17.25 60.5 M22.2 39.7 L18.6 40.2 14.85 38.75 M20.6 40.95 L22.2 39.7 M7.2 49.4 Q7.05 48.45 7.05 47.4 7.05 44.7 8.0 42.8 8.9 40.95 9.95 41.2 11.0 41.45 12.1 43.2 12.75 44.2 13.05 45.5 M13.15 45.85 L13.15 45.95 13.35 47.5 Q13.45 50.05 12.5 51.9 11.55 53.8 10.25 53.8 8.9 53.8 8.0 51.9 7.5 50.95 7.3 49.8 M2.35 63.65 L2.75 63.1 3.5 62.45 5.25 63.35 7.0 63.35 6.7 64.95 7.6 65.6 9.1 66.2 M13.55 67.1 L12.6 68.95 M6.7 64.95 L6.6 65.45 5.95 67.05 M3.7 67.3 L4.85 66.45 M28.9 70.6 L29.6 69.1 31.0 69.1 31.6 66.7 33.85 66.2 36.5 67.35 37.75 69.1 41.35 68.7 42.75 67.15 44.1 65.6 M20.7 69.95 L21.05 69.15 M17.9 71.1 L18.85 70.7 M65.3 43.75 L57.0 41.6 56.15 41.1 51.25 41.85 47.6 43.8 45.5 43.8 46.2 44.15 46.95 44.55 45.35 47.35 M58.15 50.05 L62.75 51.45 70.95 52.8 M58.15 50.05 L55.4 49.2 M53.3 39.3 L56.15 41.1 M47.6 43.8 L48.25 39.5 M49.65 46.05 L46.95 44.55 M42.75 67.15 L45.25 66.7 45.85 63.85 44.25 60.6 M49.8 50.45 L54.75 53.4 57.7 53.6" fill="none" stroke="#000000" stroke-linecap="round" stroke-linejoin="round" stroke-opacity="0.4" stroke-width="0.5"/>
    <path d="M13.05 45.5 L13.15 45.85" fill="none" stroke="#ff3399" stroke-linecap="round" stroke-linejoin="round" stroke-width="0.05"/>
  </g>
</svg>
