<?xml version="1.0" encoding="UTF-8" standalone="no"?>
<svg xmlns:xlink="http://www.w3.org/1999/xlink" height="87.15px" width="71.9px" xmlns="http://www.w3.org/2000/svg">
  <g transform="matrix(1.0, 0.0, 0.0, 1.0, 0.0, 0.0)">
    <path d="M36.15 1.35 L30.55 8.75 30.6 8.1 32.55 2.75 36.15 1.35 M5.95 57.95 Q6.55 55.05 9.2 53.05 L22.55 37.35 22.4 37.65 22.0 38.25 21.7 39.35 Q18.75 46.65 12.85 51.65 L9.25 55.4 16.85 64.45 Q19.8 67.8 12.9 63.1 5.7 58.4 5.95 57.95 L6.7 57.15 8.8 55.85 9.25 55.4 8.8 55.85 6.7 57.15 5.95 57.95 M16.35 52.6 L36.95 25.4 29.95 51.7 27.9 51.45 Q21.5 51.25 16.35 52.6 M34.15 52.2 L47.55 32.9 42.2 38.45 Q48.0 28.65 50.8 19.5 L46.8 23.65 58.35 2.5 64.6 6.55 67.45 8.95 49.05 60.3 45.9 57.75 44.1 56.6 42.1 59.85 33.25 67.6 Q29.75 70.0 33.15 66.45 L36.25 62.25 43.7 56.2 44.1 56.6 43.7 56.2 Q39.2 53.6 34.15 52.2 M52.15 0.85 Q46.25 10.0 39.0 17.9 38.75 16.45 39.8 15.35 L48.35 0.2 52.15 0.85 M53.0 70.9 L52.55 71.85 52.75 70.7 53.0 70.9 M51.75 74.75 L47.35 80.15 35.35 72.1 42.85 73.55 Q50.6 75.25 51.75 74.75 M38.0 85.65 L29.2 87.15 Q29.45 86.05 30.35 84.95 L27.05 78.95 Q31.65 85.15 38.0 85.65 M17.9 86.05 L15.0 85.35 22.3 73.15 Q18.8 82.2 18.2 86.0 L17.9 86.05 M5.5 79.55 L5.4 79.5 Q4.5 79.15 4.15 78.25 L3.15 77.1 Q20.75 72.55 14.55 75.3 L7.1 78.85 Q5.65 79.75 5.5 79.55 M49.9 61.75 L50.7 62.95 50.5 63.45 51.1 64.05 51.5 64.0 51.65 64.15 47.25 65.55 36.3 69.3 Q33.1 70.45 48.1 62.65 L49.9 61.75 M22.85 37.2 L30.45 26.95 27.6 31.45 22.85 37.2" fill="#9a6f27" fill-rule="evenodd" stroke="none"/>
    <path d="M32.55 2.75 L30.6 8.1 30.55 8.75 36.15 1.35 Q41.0 -0.3 47.15 0.1 L48.35 0.2 39.8 15.35 Q38.75 16.45 39.0 17.9 46.25 10.0 52.15 0.85 L58.35 2.5 46.8 23.65 50.8 19.5 Q48.0 28.65 42.2 38.45 L47.55 32.9 34.15 52.2 29.95 51.7 36.95 25.4 16.35 52.6 Q12.35 53.65 9.25 55.4 L12.85 51.65 Q18.75 46.65 21.7 39.35 L22.0 38.25 22.4 37.65 22.55 37.35 9.2 53.05 Q6.55 55.05 5.95 57.95 L1.25 63.2 24.9 9.1 25.0 9.2 30.0 4.55 Q31.25 3.6 32.55 2.75 M22.85 37.2 L27.6 31.45 30.45 26.95 22.85 37.2" fill="#cc9933" fill-rule="evenodd" stroke="none"/>
    <path d="M1.25 63.2 L5.95 57.95 Q5.7 58.4 12.9 63.1 19.8 67.8 16.85 64.45 L9.25 55.4 Q12.35 53.65 16.35 52.6 21.5 51.25 27.9 51.45 L29.95 51.7 34.15 52.2 Q39.2 53.6 43.7 56.2 L36.25 62.25 33.15 66.45 Q29.75 70.0 33.25 67.6 L42.1 59.85 44.1 56.6 45.9 57.75 49.05 60.3 49.9 61.75 48.1 62.65 Q33.1 70.45 36.3 69.3 L47.25 65.55 51.65 64.15 Q52.8 67.4 52.75 70.7 L52.55 71.85 52.55 72.4 51.75 74.75 Q50.6 75.25 42.85 73.55 L35.35 72.1 47.35 80.15 Q50.15 77.8 48.85 79.35 L44.15 83.0 Q38.85 85.95 38.0 85.65 31.65 85.15 27.05 78.95 L30.35 84.95 Q29.45 86.05 29.2 87.15 L25.1 87.05 17.9 86.05 18.2 86.0 Q18.8 82.2 22.3 73.15 L15.0 85.35 Q10.5 83.5 7.05 80.7 L5.5 79.55 Q5.65 79.75 7.1 78.85 L14.55 75.3 Q20.75 72.55 3.15 77.1 -0.3 73.1 0.0 68.0 0.3 64.4 1.25 63.2 M50.7 62.95 L51.5 64.0 51.1 64.05 50.5 63.45 50.7 62.95" fill="#e6ca9d" fill-rule="evenodd" stroke="none"/>
    <path d="M67.45 8.95 Q71.7 13.7 71.9 19.15 L71.8 21.05 53.0 70.9 52.75 70.7 Q52.8 67.4 51.65 64.15 L51.5 64.0 50.7 62.95 49.9 61.75 49.05 60.3 67.45 8.95" fill="#65431b" fill-rule="evenodd" stroke="none"/>
    <path d="M32.55 2.75 Q31.25 3.6 30.0 4.55 L25.0 9.2 24.9 9.1 1.25 63.2 5.95 57.95 6.7 57.15 8.8 55.85 9.25 55.4 Q12.35 53.65 16.35 52.6 21.5 51.25 27.9 51.45 L29.95 51.7 34.15 52.2 Q39.2 53.6 43.7 56.2 L44.1 56.6 45.9 57.75 49.05 60.3 49.9 61.75 50.7 62.95 51.5 64.0 51.65 64.15 Q52.8 67.4 52.75 70.7 L52.55 71.85 52.55 72.4 51.75 74.75 47.35 80.15 Q50.15 77.8 48.85 79.35 L44.15 83.0 Q38.85 85.95 38.0 85.65 L29.2 87.15 25.1 87.05 17.9 86.05 15.0 85.35 Q10.5 83.5 7.05 80.7 L5.5 79.55 5.4 79.5 Q4.5 79.15 4.15 78.25 L3.15 77.1 Q-0.3 73.1 0.0 68.0 0.3 64.4 1.25 63.2 M58.35 2.5 L52.15 0.85 48.35 0.2 47.15 0.1 Q41.0 -0.3 36.15 1.35 L32.55 2.75 M67.45 8.95 Q71.7 13.7 71.9 19.15 L71.8 21.05 53.0 70.9 52.55 71.85 M58.35 2.5 L64.6 6.55 67.45 8.95" fill="none" stroke="#663300" stroke-linecap="round" stroke-linejoin="round" stroke-width="0.05"/>
  </g>
</svg>
