<?xml version="1.0" encoding="UTF-8" standalone="no"?>
<svg xmlns:xlink="http://www.w3.org/1999/xlink" height="53.4px" width="73.45px" xmlns="http://www.w3.org/2000/svg">
  <g transform="matrix(1.0, 0.0, 0.0, 1.0, 0.35, 0.0)">
    <path d="M67.05 5.6 Q68.85 3.45 73.1 5.95 72.05 9.1 68.55 10.45 71.05 11.85 71.9 15.3 68.4 15.85 67.2 13.75 67.65 14.95 66.9 17.55 L66.8 17.85 66.35 17.7 Q63.5 16.75 63.05 13.8 62.85 17.25 60.35 18.05 57.15 15.35 59.85 12.25 55.65 14.25 51.8 10.3 55.8 5.5 60.75 6.85 59.15 5.0 60.3 1.8 62.75 1.55 63.65 3.45 63.7 0.6 66.35 0.0 68.45 2.6 67.05 5.6" fill="#142c01" fill-rule="evenodd" stroke="none"/>
    <path d="M67.05 5.6 Q68.85 3.45 73.1 5.95 72.05 9.1 68.55 10.45 71.05 11.85 71.9 15.3 68.4 15.85 67.2 13.75 67.65 14.95 66.9 17.55 L66.8 17.85 66.35 17.7 Q63.5 16.75 63.05 13.8 62.85 17.25 60.35 18.05 57.15 15.35 59.85 12.25 55.65 14.25 51.8 10.3 55.8 5.5 60.75 6.85 59.15 5.0 60.3 1.8 62.75 1.55 63.65 3.45 63.7 0.6 66.35 0.0 68.45 2.6 67.05 5.6 Z" fill="none" stroke="#004e00" stroke-linecap="round" stroke-linejoin="round" stroke-width="0.05"/>
    <path d="M12.2 26.5 Q12.2 21.55 10.65 18.05 9.15 14.55 7.0 14.55 4.85 14.55 3.3 18.05 1.8 21.55 1.8 26.5 1.8 31.45 3.3 34.95 4.85 38.45 7.0 38.45 9.15 38.45 10.65 34.95 12.2 31.45 12.2 26.5 M7.75 9.2 Q10.95 9.2 13.2 14.25 14.75 17.7 15.3 22.1 L43.35 21.35 15.5 26.8 15.2 31.5 Q14.65 35.45 13.2 38.65 11.65 42.1 9.7 43.2 L7.35 43.7 Q4.4 43.4 2.25 38.65 0.0 33.6 0.0 26.45 0.0 19.3 2.25 14.25 4.45 9.4 7.5 9.2 L7.75 9.2 M68.45 13.1 L26.85 16.3 66.45 9.1 Q67.6 10.8 68.45 13.1" fill="#715b2b" fill-rule="evenodd" stroke="none"/>
    <path d="M15.2 31.5 L15.5 26.8 43.35 21.35 15.3 22.1 Q14.75 17.7 13.2 14.25 10.95 9.2 7.75 9.2 34.1 11.0 59.85 4.8 63.95 5.45 66.45 9.1 L26.85 16.3 68.45 13.1 69.7 17.85 Q45.1 31.2 15.2 31.5" fill="#b89647" fill-rule="evenodd" stroke="none"/>
    <path d="M12.2 26.5 Q12.2 31.45 10.65 34.95 9.15 38.45 7.0 38.45 4.85 38.45 3.3 34.95 1.8 31.45 1.8 26.5 1.8 21.55 3.3 18.05 4.85 14.55 7.0 14.55 9.15 14.55 10.65 18.05 12.2 21.55 12.2 26.5 M6.65 20.35 Q5.4 20.35 4.5 22.15 3.65 24.0 3.65 26.6 3.65 29.2 4.5 31.0 5.4 32.85 6.65 32.85 7.9 32.85 8.75 31.0 9.65 29.2 9.65 26.6 9.65 24.0 8.75 22.15 7.9 20.35 6.65 20.35" fill="#5e4a24" fill-rule="evenodd" stroke="none"/>
    <path d="M9.7 43.2 Q11.65 42.1 13.2 38.65 14.65 35.45 15.2 31.5 45.1 31.2 69.7 17.85 L69.8 18.4 Q71.4 27.45 65.25 31.75 37.45 34.4 9.7 43.2" fill="#997c3c" fill-rule="evenodd" stroke="none"/>
    <path d="M6.65 20.35 Q7.9 20.35 8.75 22.15 9.65 24.0 9.65 26.6 9.65 29.2 8.75 31.0 7.9 32.85 6.65 32.85 5.4 32.85 4.5 31.0 3.65 29.2 3.65 26.6 3.65 24.0 4.5 22.15 5.4 20.35 6.65 20.35" fill="#251d0e" fill-rule="evenodd" stroke="none"/>
    <path d="M7.35 43.7 L9.7 43.2 7.75 43.7 7.35 43.7" fill="#164936" fill-rule="evenodd" stroke="none"/>
    <path d="M12.2 26.5 Q12.2 31.45 10.65 34.95 9.15 38.45 7.0 38.45 4.85 38.45 3.3 34.95 1.8 31.45 1.8 26.5 1.8 21.55 3.3 18.05 4.85 14.55 7.0 14.55 9.15 14.55 10.65 18.05 12.2 21.55 12.2 26.5" fill="none" stroke="#4e3d1d" stroke-linecap="round" stroke-linejoin="round" stroke-width="0.75"/>
    <path d="M7.75 9.2 L7.5 9.2 Q4.45 9.4 2.25 14.25 0.0 19.3 0.0 26.45 0.0 33.6 2.25 38.65 4.4 43.4 7.35 43.7 L9.7 43.2 Q37.45 34.4 65.25 31.75 71.4 27.45 69.8 18.4 L69.7 17.85 68.45 13.1 Q67.6 10.8 66.45 9.1 63.95 5.45 59.85 4.8 34.1 11.0 7.75 9.2 Z" fill="none" stroke="#220d0d" stroke-linecap="round" stroke-linejoin="round" stroke-width="0.75"/>
    <path d="M35.0 53.4 Q25.35 52.2 22.95 44.6 21.9 48.15 16.7 49.4 14.4 46.35 16.05 43.65 12.35 45.95 9.35 42.9 10.95 38.05 16.05 37.3 11.7 36.75 11.45 29.1 16.45 27.85 21.2 31.3 20.9 26.95 24.7 22.85 28.4 27.0 26.6 30.4 27.85 28.7 31.85 27.55 L32.25 27.45 32.45 28.1 Q33.65 32.65 30.1 35.75 34.85 33.15 38.0 35.7 37.15 42.15 30.85 41.15 36.95 45.05 35.0 53.4" fill="#306504" fill-rule="evenodd" stroke="none"/>
    <path d="M35.0 53.4 Q25.35 52.2 22.95 44.6 21.9 48.15 16.7 49.4 14.4 46.35 16.05 43.65 12.35 45.95 9.35 42.9 10.95 38.05 16.05 37.3 11.7 36.75 11.45 29.1 16.45 27.85 21.2 31.3 20.9 26.95 24.7 22.85 28.4 27.0 26.6 30.4 27.85 28.7 31.85 27.55 L32.25 27.45 32.45 28.1 Q33.65 32.65 30.1 35.75 34.85 33.15 38.0 35.7 37.15 42.15 30.85 41.15 36.95 45.05 35.0 53.4 Z" fill="none" stroke="#004e00" stroke-linecap="round" stroke-linejoin="round" stroke-width="0.05"/>
    <path d="M15.7 37.6 Q17.8 34.05 21.6 33.45 18.55 33.05 19.75 27.5 23.65 26.55 26.45 29.0 27.1 25.8 30.6 22.85 32.55 25.8 30.65 28.25 31.85 27.05 35.0 26.2 L35.35 26.1 35.35 26.6 Q35.4 29.85 32.2 32.15 36.2 30.2 38.0 32.05 36.2 36.75 31.8 36.15 35.55 38.85 32.65 45.0 25.7 44.2 25.4 38.65 23.95 41.3 19.95 42.25 18.75 40.05 20.5 38.05 17.35 39.75 15.7 37.6" fill="#95bb16" fill-rule="evenodd" stroke="none"/>
    <path d="M15.7 37.6 Q17.8 34.05 21.6 33.45 18.55 33.05 19.75 27.5 23.65 26.55 26.45 29.0 27.1 25.8 30.6 22.85 32.55 25.8 30.65 28.25 31.85 27.05 35.0 26.2 L35.35 26.1 35.35 26.6 Q35.4 29.85 32.2 32.15 36.2 30.2 38.0 32.05 36.2 36.75 31.8 36.15 35.55 38.85 32.65 45.0 25.7 44.2 25.4 38.65 23.95 41.3 19.95 42.25 18.75 40.05 20.5 38.05 17.35 39.75 15.7 37.6 Z" fill="none" stroke="#004e00" stroke-linecap="round" stroke-linejoin="round" stroke-width="0.05"/>
  </g>
</svg>
