<?xml version="1.0" encoding="UTF-8" standalone="no"?>
<svg xmlns:xlink="http://www.w3.org/1999/xlink" height="41.35px" width="60.4px" xmlns="http://www.w3.org/2000/svg">
  <g transform="matrix(1.0, 0.0, 0.0, 1.0, 0.35, 0.35)">
    <path d="M55.2 3.35 L57.3 6.8 22.15 13.65 55.2 3.35 M58.85 11.1 L59.0 11.55 Q61.25 19.7 56.45 24.25 33.0 29.3 10.2 40.0 11.75 38.8 12.75 35.5 13.65 32.4 13.7 28.7 39.2 25.65 58.85 11.1" fill="#542525" fill-rule="evenodd" stroke="none"/>
    <path d="M57.3 6.8 L58.85 11.1 Q39.2 25.65 13.7 28.7 L13.5 24.4 36.7 16.75 12.85 20.1 Q11.9 16.1 10.25 13.05 7.8 8.65 5.1 8.95 27.8 8.15 49.1 0.0 52.7 0.25 55.2 3.35 L22.15 13.65 57.3 6.8 M4.5 29.25 Q3.65 27.7 3.35 25.3 3.1 22.95 3.6 21.15 4.25 19.45 5.3 19.3 6.35 19.2 7.25 20.75 8.2 22.4 8.45 24.75 8.75 27.15 8.15 28.85 7.6 30.65 6.55 30.75 5.5 30.9 4.5 29.25" fill="#873a3a" fill-rule="evenodd" stroke="none"/>
    <path d="M8.25 40.65 Q5.7 40.7 3.4 36.55 1.0 32.1 0.25 25.55 -0.45 18.95 0.9 14.1 2.3 9.45 4.9 9.0 L5.1 8.95 Q7.8 8.65 10.25 13.05 11.9 16.1 12.85 20.1 L36.7 16.75 13.5 24.4 13.7 28.7 Q13.65 32.4 12.75 35.5 11.75 38.8 10.2 40.0 L8.25 40.65 M8.45 16.8 Q6.85 13.75 5.0 13.95 3.15 14.15 2.2 17.5 1.25 20.9 1.75 25.4 2.25 29.95 3.9 33.05 5.55 36.1 7.4 35.9 9.25 35.7 10.15 32.35 11.15 28.95 10.65 24.4 10.15 19.9 8.45 16.8 10.15 19.9 10.65 24.4 11.15 28.95 10.15 32.35 9.25 35.7 7.4 35.9 5.55 36.1 3.9 33.05 2.25 29.95 1.75 25.4 1.25 20.9 2.2 17.5 3.15 14.15 5.0 13.95 6.85 13.75 8.45 16.8 M4.5 29.25 Q5.5 30.9 6.55 30.75 7.6 30.65 8.15 28.85 8.75 27.15 8.45 24.75 8.2 22.4 7.25 20.75 6.35 19.2 5.3 19.3 4.25 19.45 3.6 21.15 3.1 22.95 3.35 25.3 3.65 27.7 4.5 29.25" fill="#220d0d" fill-rule="evenodd" stroke="none"/>
    <path d="M10.2 40.0 Q9.45 40.5 8.6 40.6 L8.25 40.65 10.2 40.0" fill="#164936" fill-rule="evenodd" stroke="none"/>
    <path d="M55.2 3.35 L57.3 6.8 58.85 11.1 59.0 11.55 Q61.25 19.7 56.45 24.25 33.0 29.3 10.2 40.0 L8.25 40.65 Q5.7 40.7 3.4 36.55 1.0 32.1 0.25 25.55 -0.45 18.95 0.9 14.1 2.3 9.45 4.9 9.0 L5.1 8.95 Q27.8 8.15 49.1 0.0 52.7 0.25 55.2 3.35" fill="none" stroke="#220d0d" stroke-linecap="round" stroke-linejoin="round" stroke-width="0.75"/>
    <path d="M8.45 16.8 Q10.15 19.9 10.65 24.4 11.15 28.95 10.15 32.35 9.25 35.7 7.4 35.9 5.55 36.1 3.9 33.05 2.25 29.95 1.75 25.4 1.25 20.9 2.2 17.5 3.15 14.15 5.0 13.95 6.85 13.75 8.45 16.8 Z" fill="none" stroke="#b95e5e" stroke-linecap="round" stroke-linejoin="round" stroke-width="0.75"/>
  </g>
</svg>
