<?xml version="1.0" encoding="UTF-8" standalone="no"?>
<svg xmlns:xlink="http://www.w3.org/1999/xlink" height="35.8px" width="85.45px" xmlns="http://www.w3.org/2000/svg">
  <g transform="matrix(1.0, 0.0, 0.0, 1.0, 0.0, 0.35)">
    <path d="M1.4 22.05 Q6.75 18.5 12.0 17.95 21.45 16.95 26.45 20.05 25.2 20.55 25.55 22.2 17.1 17.55 7.85 19.65 2.95 20.95 0.0 23.1 L1.4 22.05" fill="#96a419" fill-rule="evenodd" stroke="none"/>
    <path d="M25.55 22.2 Q25.2 20.55 26.45 20.05 21.45 16.95 12.0 17.95 6.75 18.5 1.4 22.05 16.35 11.2 28.9 18.7 25.4 20.25 25.55 22.2" fill="#605a0a" fill-rule="evenodd" stroke="none"/>
    <path d="M64.7 6.85 L63.6 6.65 Q63.3 6.25 63.45 5.65 L63.8 5.0 64.95 5.0 65.95 4.4 66.0 4.5 66.45 4.65 66.95 4.6 Q67.2 4.35 67.1 3.95 L66.8 3.3 66.15 2.95 66.0 2.9 65.9 2.6 68.5 2.7 Q68.8 2.55 68.75 2.05 L68.6 1.4 73.75 0.0 Q77.5 0.45 80.2 3.5 L64.7 6.85 M38.3 5.45 L38.35 6.05 Q37.4 6.4 36.85 7.4 L35.4 7.1 Q35.0 7.55 35.3 8.15 L35.55 8.5 37.65 8.55 37.85 8.7 Q37.7 9.5 36.95 9.95 L36.95 10.1 39.15 10.2 Q39.05 11.15 37.9 11.3 L37.95 11.5 Q38.4 12.4 39.7 12.0 L39.85 12.05 Q40.85 11.45 41.15 10.25 L41.2 10.1 40.15 9.2 39.65 9.25 Q39.35 8.9 39.65 8.45 39.65 8.25 40.0 8.25 L40.8 8.3 Q41.3 10.1 42.75 10.0 L43.0 10.65 42.85 11.0 42.7 11.1 42.85 11.95 44.1 12.7 45.7 12.85 45.95 13.4 45.95 13.85 45.65 14.4 49.25 14.55 Q51.7 13.75 53.4 15.05 L53.1 15.25 35.7 16.3 Q34.7 12.5 32.9 9.65 30.65 6.0 28.25 5.5 L28.2 5.45 38.3 5.45 M52.6 16.65 Q52.6 17.1 52.1 17.35 51.3 17.85 50.4 17.85 47.45 18.0 46.25 19.7 L46.35 19.8 46.75 20.1 46.95 20.6 46.95 20.65 46.3 20.6 Q45.75 20.7 45.55 20.9 L45.55 21.0 45.4 21.3 Q45.25 21.55 45.4 21.85 L45.6 21.9 46.0 21.9 Q46.45 21.75 46.45 22.15 L46.45 22.25 46.25 22.4 45.75 22.4 45.45 22.05 44.85 21.8 43.05 22.05 42.95 22.7 43.6 22.6 Q44.7 22.3 44.95 23.25 L44.6 23.55 Q44.2 23.6 43.9 23.85 L36.65 24.35 36.35 20.3 52.6 16.65 M27.7 15.1 Q28.8 15.0 29.8 16.6 30.85 18.1 31.1 20.4 31.4 22.55 30.85 24.15 30.25 25.8 29.15 25.8 28.0 25.9 27.0 24.3 26.0 22.75 25.75 20.55 25.4 18.3 26.0 16.7 26.6 15.15 27.7 15.1" fill="#db9c35" fill-rule="evenodd" stroke="none"/>
    <path d="M68.6 1.4 L68.75 2.05 Q68.8 2.55 68.5 2.7 L65.9 2.6 66.0 2.9 66.15 2.95 66.8 3.3 67.1 3.95 Q67.2 4.35 66.95 4.6 L66.45 4.65 66.0 4.5 65.95 4.4 64.95 5.0 63.8 5.0 63.45 5.65 Q63.3 6.25 63.6 6.65 L64.7 6.85 45.45 11.0 82.5 6.9 84.15 10.95 Q66.35 21.55 43.9 23.85 44.2 23.6 44.6 23.55 L44.95 23.25 Q44.7 22.3 43.6 22.6 L42.95 22.7 43.05 22.05 44.85 21.8 45.45 22.05 45.75 22.4 46.25 22.4 46.45 22.25 46.45 22.15 Q46.45 21.75 46.0 21.9 L45.6 21.9 45.4 21.85 Q45.25 21.55 45.4 21.3 L45.55 21.0 45.55 20.9 Q45.75 20.7 46.3 20.6 L46.95 20.65 46.95 20.6 46.75 20.1 46.35 19.8 46.25 19.7 Q47.45 18.0 50.4 17.85 51.3 17.85 52.1 17.35 52.6 17.1 52.6 16.65 L60.85 14.8 53.1 15.25 53.4 15.05 Q51.7 13.75 49.25 14.55 L45.65 14.4 45.95 13.85 45.95 13.4 45.7 12.85 44.1 12.7 42.85 11.95 42.7 11.1 42.85 11.0 43.0 10.65 42.75 10.0 Q41.3 10.1 40.8 8.3 L40.0 8.25 Q39.65 8.25 39.65 8.45 39.35 8.9 39.65 9.25 L40.15 9.2 41.2 10.1 41.15 10.25 Q40.85 11.45 39.85 12.05 L39.7 12.0 Q38.4 12.4 37.95 11.5 L37.9 11.3 Q39.05 11.15 39.15 10.2 L36.95 10.1 36.95 9.95 Q37.7 9.5 37.85 8.7 L37.65 8.55 35.55 8.5 35.3 8.15 Q35.0 7.55 35.4 7.1 L36.85 7.4 Q37.4 6.4 38.35 6.05 L38.3 5.45 Q53.75 4.85 68.6 1.4" fill="#eccb8c" fill-rule="evenodd" stroke="none"/>
    <path d="M64.7 6.85 L80.2 3.5 81.5 5.2 82.5 6.9 45.45 11.0 64.7 6.85 M53.1 15.25 L60.85 14.8 52.6 16.65 36.35 20.3 36.65 24.35 43.9 23.85 Q66.35 21.55 84.15 10.95 L84.3 11.4 Q86.75 19.2 81.8 23.0 57.0 26.2 33.05 34.65 L31.0 35.1 Q28.3 34.9 25.85 30.9 23.25 26.65 22.45 20.55 21.6 14.4 23.05 10.0 24.5 5.7 27.2 5.5 L27.45 5.45 28.25 5.5 Q30.65 6.0 32.9 9.65 34.7 12.5 35.7 16.3 L53.1 15.25 M33.4 20.15 Q32.85 16.0 31.05 13.0 29.3 10.0 27.35 10.05 25.4 10.1 24.45 13.2 23.5 16.3 24.1 20.5 24.6 24.75 26.4 27.75 28.15 30.65 30.1 30.6 32.0 30.55 32.95 27.5 33.95 24.45 33.4 20.15 33.95 24.45 32.95 27.5 32.0 30.55 30.1 30.6 28.15 30.65 26.4 27.75 24.6 24.75 24.1 20.5 23.5 16.3 24.45 13.2 25.4 10.1 27.35 10.05 29.3 10.0 31.05 13.0 32.85 16.0 33.4 20.15 M27.7 15.1 Q26.6 15.15 26.0 16.7 25.4 18.3 25.75 20.55 26.0 22.75 27.0 24.3 28.0 25.9 29.15 25.8 30.25 25.8 30.85 24.15 31.4 22.55 31.1 20.4 30.85 18.1 29.8 16.6 28.8 15.0 27.7 15.1" fill="#764203" fill-rule="evenodd" stroke="none"/>
    <path d="M27.45 5.45 L27.45 5.4 28.2 5.45 28.25 5.5 27.45 5.45" fill="#dc8a03" fill-rule="evenodd" stroke="none"/>
    <path d="M33.05 34.65 Q32.3 35.1 31.4 35.15 L31.0 35.1 33.05 34.65" fill="#164936" fill-rule="evenodd" stroke="none"/>
    <path d="M80.2 3.5 Q77.5 0.45 73.75 0.0 L68.6 1.4 Q53.75 4.85 38.3 5.45 L28.2 5.45 27.45 5.4 27.45 5.45 27.2 5.5 Q24.5 5.7 23.05 10.0 21.6 14.4 22.45 20.55 23.25 26.65 25.85 30.9 28.3 34.9 31.0 35.1 L33.05 34.65 Q57.0 26.2 81.8 23.0 86.75 19.2 84.3 11.4 L84.15 10.95 82.5 6.9 81.5 5.2 80.2 3.5" fill="none" stroke="#220d0d" stroke-linecap="round" stroke-linejoin="round" stroke-width="0.75"/>
    <path d="M33.4 20.15 Q33.95 24.45 32.95 27.5 32.0 30.55 30.1 30.6 28.15 30.65 26.4 27.75 24.6 24.75 24.1 20.5 23.5 16.3 24.45 13.2 25.4 10.1 27.35 10.05 29.3 10.0 31.05 13.0 32.85 16.0 33.4 20.15 Z" fill="none" stroke="#db9c35" stroke-linecap="round" stroke-linejoin="round" stroke-width="0.75"/>
    <path d="M12.85 23.15 Q18.2 19.6 23.45 19.05 32.9 18.05 37.9 21.15 36.65 21.65 37.0 23.3 28.55 18.65 19.3 20.75 14.4 22.05 11.45 24.2 L12.85 23.15" fill="#96a419" fill-rule="evenodd" stroke="none"/>
    <path d="M37.0 23.3 Q36.65 21.65 37.9 21.15 32.9 18.05 23.45 19.05 18.2 19.6 12.85 23.15 27.8 12.3 40.35 19.8 36.85 21.35 37.0 23.3" fill="#605a0a" fill-rule="evenodd" stroke="none"/>
    <path d="M61.7 5.4 Q61.8 4.4 62.6 4.3 60.05 1.9 54.4 1.15 51.3 0.75 47.65 2.0 58.0 -2.05 64.2 3.9 61.9 4.25 61.7 5.4" fill="#605a0a" fill-rule="evenodd" stroke="none"/>
    <path d="M47.65 2.0 Q51.3 0.75 54.4 1.15 60.05 1.9 62.6 4.3 61.8 4.4 61.7 5.4 57.5 1.65 51.7 1.5 48.75 1.65 46.65 2.4 L47.65 2.0" fill="#96a419" fill-rule="evenodd" stroke="none"/>
    <path d="M53.15 25.4 Q53.65 26.3 54.4 26.2 53.15 29.05 48.1 31.1 45.3 32.2 41.3 31.85 52.9 33.25 56.15 26.2 53.85 26.35 53.15 25.4" fill="#605a0a" fill-rule="evenodd" stroke="none"/>
    <path d="M41.3 31.85 Q45.3 32.2 48.1 31.1 53.15 29.05 54.4 26.2 53.65 26.3 53.15 25.4 50.8 29.9 45.4 31.35 L40.15 31.7 41.3 31.85" fill="#96a419" fill-rule="evenodd" stroke="none"/>
    <path d="M62.55 14.65 Q58.85 19.15 52.35 19.6 L46.35 19.0 47.6 19.4 Q52.05 20.55 55.55 19.9 61.8 18.65 63.9 15.8 62.95 15.75 62.55 14.65" fill="#96a419" fill-rule="evenodd" stroke="none"/>
    <path d="M47.6 19.4 Q60.55 23.25 65.85 16.15 63.15 15.85 62.55 14.65 62.95 15.75 63.9 15.8 61.8 18.65 55.55 19.9 52.05 20.55 47.6 19.4" fill="#605a0a" fill-rule="evenodd" stroke="none"/>
    <path d="M65.6 13.85 Q69.0 11.0 72.55 10.3 79.0 9.05 82.7 10.85 81.85 11.25 82.2 12.4 76.05 9.7 69.8 11.75 66.55 13.0 64.7 14.7 L65.6 13.85" fill="#96a419" fill-rule="evenodd" stroke="none"/>
    <path d="M82.2 12.4 Q81.85 11.25 82.7 10.85 79.0 9.05 72.55 10.3 69.0 11.0 65.6 13.85 75.1 5.3 84.3 9.75 81.95 11.05 82.2 12.4" fill="#605a0a" fill-rule="evenodd" stroke="none"/>
    <path d="M79.6 20.55 Q80.1 21.45 80.85 21.35 79.6 24.2 74.55 26.25 71.75 27.35 67.75 27.0 79.35 28.4 82.6 21.35 80.3 21.5 79.6 20.55" fill="#605a0a" fill-rule="evenodd" stroke="none"/>
    <path d="M67.75 27.0 Q71.75 27.35 74.55 26.25 79.6 24.2 80.85 21.35 80.1 21.45 79.6 20.55 77.25 25.05 71.85 26.5 L66.6 26.85 67.75 27.0" fill="#96a419" fill-rule="evenodd" stroke="none"/>
    <path d="M41.65 7.85 Q41.75 6.85 42.55 6.75 40.0 4.35 34.35 3.6 31.25 3.2 27.6 4.45 37.95 0.4 44.15 6.35 41.85 6.7 41.65 7.85" fill="#605a0a" fill-rule="evenodd" stroke="none"/>
    <path d="M27.6 4.45 Q31.25 3.2 34.35 3.6 40.0 4.35 42.55 6.75 41.75 6.85 41.65 7.85 37.45 4.1 31.65 3.95 28.7 4.1 26.6 4.85 L27.6 4.45" fill="#96a419" fill-rule="evenodd" stroke="none"/>
  </g>
</svg>
