<?xml version="1.0" encoding="UTF-8" standalone="no"?>
<svg xmlns:xlink="http://www.w3.org/1999/xlink" height="94.55px" width="48.5px" xmlns="http://www.w3.org/2000/svg">
  <g transform="matrix(1.0, 0.0, 0.0, 1.0, 0.25, 0.25)">
    <path d="M40.5 18.4 L40.3 18.45 Q34.3 20.75 29.95 25.65 L28.2 27.0 28.4 28.1 Q36.9 25.95 42.5 19.75 L42.4 19.3 Q42.3 18.9 41.85 18.65 L40.5 18.4 M7.1 20.0 L5.7 18.7 Q1.1 14.2 0.05 8.45 -0.4 6.25 1.95 6.35 4.0 6.5 5.85 7.9 10.7 11.55 13.4 17.1 11.65 10.3 12.95 3.55 13.45 1.05 15.95 0.4 22.6 -1.3 26.2 4.45 33.65 3.2 33.05 11.7 32.85 14.5 31.9 17.15 34.5 16.85 37.9 14.65 39.1 13.9 40.65 14.05 49.95 15.25 47.45 23.15 46.75 25.35 45.0 27.0 L41.85 29.3 Q47.1 34.25 46.1 40.0 45.9 40.85 44.9 41.25 38.65 43.8 33.85 40.05 L33.9 39.65 Q34.65 32.05 27.25 28.05 L26.9 27.85 25.95 27.0 25.4 26.5 25.65 23.95 Q25.7 22.1 25.9 20.3 26.15 18.0 24.25 17.0 L24.1 17.5 23.9 18.1 23.65 18.95 Q23.3 20.65 22.55 22.25 L21.95 23.4 20.3 21.95 18.55 21.7 Q16.6 21.7 15.3 22.5 11.7 20.4 7.1 20.0 M23.7 38.8 L23.6 38.85 23.65 38.8 23.7 38.8 M27.25 28.05 L26.05 27.05 25.95 27.0 26.05 27.05 27.25 28.05 M24.05 6.8 L23.85 7.0 Q19.05 12.25 18.95 19.5 L22.05 21.05 24.2 16.25 Q25.95 11.3 24.05 6.8 M33.7 31.0 L37.35 29.5 Q35.35 29.05 34.0 30.55 L33.7 31.0 M37.35 29.5 L41.85 29.3 37.35 29.5" fill="#b8c7fe" fill-rule="evenodd" stroke="none"/>
    <path d="M40.5 18.4 L41.85 18.65 Q42.3 18.9 42.4 19.3 L42.5 19.75 Q36.9 25.95 28.4 28.1 L28.2 27.0 29.95 25.65 Q34.3 20.75 40.3 18.45 L40.5 18.4 M33.85 40.05 Q32.15 38.75 30.6 36.6 29.05 34.4 27.15 36.6 25.65 38.25 23.7 38.8 L23.65 38.8 24.0 36.95 Q24.35 33.65 21.75 32.8 L21.65 32.75 21.1 32.75 Q20.55 32.85 20.1 33.55 L19.2 34.65 Q17.45 36.7 14.95 37.85 17.65 28.9 10.25 22.6 L9.45 21.95 7.1 20.0 Q11.7 20.4 15.3 22.5 16.6 21.7 18.55 21.7 L20.3 21.95 21.95 23.4 21.4 24.4 18.6 23.1 21.4 24.4 23.95 25.75 25.4 26.65 25.4 26.5 25.95 27.0 25.4 26.65 25.95 27.0 26.9 27.85 27.25 28.05 Q34.65 32.05 33.9 39.65 L33.85 40.05 M23.1 37.2 Q22.6 37.6 22.45 38.15 L22.4 38.4 21.85 38.2 21.55 37.05 21.65 37.0 23.3 37.05 23.1 37.2 M24.05 6.8 Q25.95 11.3 24.2 16.25 L22.05 21.05 18.95 19.5 Q19.05 12.25 23.85 7.0 L24.05 6.8 M25.25 27.25 L25.4 26.65 25.25 27.25 M27.8 28.65 L27.25 28.05 27.8 28.65" fill="#838fcd" fill-rule="evenodd" stroke="none"/>
    <path d="M22.4 38.4 L21.35 39.8 21.1 39.95 Q19.6 39.9 19.1 41.2 L19.0 41.75 Q19.1 43.65 18.3 45.15 L17.95 45.6 Q15.5 47.65 15.05 50.7 L14.85 51.75 14.2 55.4 Q14.05 57.45 14.2 59.6 14.35 61.6 15.05 63.45 L15.4 64.95 Q16.15 72.4 17.75 79.65 L17.9 80.8 Q17.9 82.25 18.3 83.6 L18.5 84.4 19.65 91.4 19.75 92.5 Q19.9 93.4 19.4 93.6 L17.2 94.0 15.6 93.9 Q16.35 90.15 16.0 85.85 15.3 77.75 10.05 72.95 8.45 69.7 6.25 66.9 5.55 65.95 6.05 66.05 L6.7 66.2 9.1 68.95 Q10.3 69.8 10.85 69.6 L11.1 66.55 10.65 65.9 10.7 65.45 Q11.4 60.25 9.7 56.25 L9.65 55.4 Q9.55 54.05 9.1 52.9 L8.75 52.1 Q7.05 48.55 6.15 44.8 L5.95 44.0 5.7 42.05 6.05 42.9 Q7.85 46.95 11.3 47.65 L11.6 47.5 12.4 46.75 Q12.9 43.8 12.95 40.75 L12.85 35.75 12.6 35.55 10.05 32.95 9.7 30.9 Q9.3 29.05 9.25 27.0 9.25 24.75 10.25 22.6 17.65 28.9 14.95 37.85 17.45 36.7 19.2 34.65 L19.4 37.25 19.4 37.85 19.95 37.75 21.55 37.05 21.85 38.2 22.4 38.4" fill="#006600" fill-rule="evenodd" stroke="none"/>
    <path d="M15.6 93.9 Q15.05 93.7 14.7 93.35 L14.5 93.05 14.3 91.65 14.2 91.1 14.0 89.45 13.7 85.55 Q13.55 81.85 12.2 78.85 L11.7 77.4 Q11.1 75.15 10.05 72.95 15.3 77.75 16.0 85.85 16.35 90.15 15.6 93.9 M6.7 66.2 L6.9 66.25 Q7.85 66.5 8.45 65.95 L9.2 65.25 Q9.65 64.75 9.65 64.05 L9.7 56.25 Q11.4 60.25 10.7 65.45 L10.65 65.9 11.1 66.55 10.85 69.6 Q10.3 69.8 9.1 68.95 L6.7 66.2 M5.7 42.05 L5.75 40.65 6.15 41.45 7.1 43.2 Q7.7 44.7 9.1 45.4 L9.95 43.45 10.1 42.9 10.25 39.75 10.3 38.75 Q10.45 35.75 10.05 32.95 L12.6 35.55 12.85 35.75 12.95 40.75 Q12.9 43.8 12.4 46.75 L11.6 47.5 11.3 47.65 Q7.85 46.95 6.05 42.9 L5.7 42.05" fill="#00b300" fill-rule="evenodd" stroke="none"/>
    <path d="M21.95 23.4 L22.55 22.25 Q23.3 20.65 23.65 18.95 L23.9 18.1 24.1 17.5 24.25 17.0 Q26.15 18.0 25.9 20.3 25.7 22.1 25.65 23.95 L25.4 26.5 25.4 26.65 23.95 25.75 21.4 24.4 21.95 23.4" fill="#696f99" fill-rule="evenodd" stroke="none"/>
    <path d="M7.1 20.0 L5.7 18.7 Q1.1 14.2 0.05 8.45 -0.4 6.25 1.95 6.35 4.0 6.5 5.85 7.9 10.7 11.55 13.4 17.1 11.65 10.3 12.95 3.55 13.45 1.05 15.95 0.4 22.6 -1.3 26.2 4.45 33.65 3.2 33.05 11.7 32.85 14.5 31.9 17.15 34.5 16.85 37.9 14.65 39.1 13.9 40.65 14.05 49.95 15.25 47.45 23.15 46.75 25.35 45.0 27.0 L41.85 29.3 Q47.1 34.25 46.1 40.0 45.9 40.85 44.9 41.25 38.65 43.8 33.85 40.05 32.15 38.75 30.6 36.6 29.05 34.4 27.15 36.6 25.65 38.25 23.7 38.8 L23.6 38.85 23.65 38.8 24.0 36.95 23.7 37.0 23.1 37.2 Q22.6 37.6 22.45 38.15 L22.4 38.4 21.35 39.8 21.1 39.95 Q19.6 39.9 19.1 41.2 L19.0 41.75 Q19.1 43.65 18.3 45.15 L17.95 45.6 Q15.5 47.65 15.05 50.7 L14.85 51.75 14.2 55.4 Q14.05 57.45 14.2 59.6 14.35 61.6 15.05 63.45 L15.4 64.95 Q16.15 72.4 17.75 79.65 L17.9 80.8 Q17.9 82.25 18.3 83.6 L18.5 84.4 19.65 91.4 19.75 92.5 Q19.9 93.4 19.4 93.6 L17.2 94.0 15.6 93.9 Q15.05 93.7 14.7 93.35 L14.5 93.05 14.3 91.65 14.2 91.1 14.0 89.45 13.7 85.55 Q13.55 81.85 12.2 78.85 L11.7 77.4 Q11.1 75.15 10.05 72.95 8.45 69.7 6.25 66.9 5.55 65.95 6.05 66.05 L6.7 66.2 6.9 66.25 Q7.85 66.5 8.45 65.95 L9.2 65.25 Q9.65 64.75 9.65 64.05 L9.7 56.25 9.65 55.4 Q9.55 54.05 9.1 52.9 L8.75 52.1 Q7.05 48.55 6.15 44.8 L5.95 44.0 5.7 42.05 5.75 40.65 6.15 41.45 7.1 43.2 Q7.7 44.7 9.1 45.4 L9.95 43.45 10.1 42.9 10.25 39.75 10.3 38.75 Q10.45 35.75 10.05 32.95 L9.7 30.9 Q9.3 29.05 9.25 27.0 9.25 24.75 10.25 22.6 L9.45 21.95 7.1 20.0 M21.95 23.4 L22.55 22.25 Q23.3 20.65 23.65 18.95 L23.9 18.1 24.1 17.5 24.25 17.0 Q26.15 18.0 25.9 20.3 25.7 22.1 25.65 23.95 L25.4 26.5 25.4 26.65 25.95 27.0 26.05 27.05 27.25 28.05 27.8 28.65 M21.4 24.4 L21.95 23.4 M18.6 23.1 L21.4 24.4 23.95 25.75 25.4 26.65 25.25 27.25 M24.0 36.95 Q24.35 33.65 21.75 32.8 L21.65 32.75 21.1 32.75 Q20.55 32.85 20.1 33.55 L19.2 34.65 19.4 37.25 19.4 37.85 19.95 37.75 21.55 37.05 21.65 37.0 23.3 37.05 23.1 37.2 M19.2 34.65 Q17.45 36.7 14.95 37.85 17.65 28.9 10.25 22.6 M33.7 31.0 L37.35 29.5 Q35.35 29.05 34.0 30.55 L33.7 31.0 M41.85 29.3 L37.35 29.5" fill="none" stroke="#000000" stroke-linecap="round" stroke-linejoin="round" stroke-opacity="0.6" stroke-width="0.5"/>
  </g>
</svg>
