<?xml version="1.0" encoding="UTF-8" standalone="no"?>
<svg xmlns:xlink="http://www.w3.org/1999/xlink" height="25.1px" width="316.4px" xmlns="http://www.w3.org/2000/svg">
  <g transform="matrix(1.0, 0.0, 0.0, 1.0, -106.8, -294.95)">
    <path d="M149.25 298.15 L149.3 298.2 149.15 298.35 149.25 298.15" fill="#ffffff" fill-rule="evenodd" stroke="none"/>
    <path d="M125.15 306.85 L125.25 306.5 Q127.6 307.45 127.65 308.85 L127.5 309.4 Q127.05 310.5 124.9 311.3 122.2 312.3 118.4 312.3 114.55 312.3 111.85 311.3 109.15 310.25 109.2 308.85 L109.2 308.55 109.5 308.7 Q112.2 309.7 116.05 309.7 119.85 309.7 122.55 308.7 124.55 307.95 125.1 307.0 L125.15 306.85 M164.9 297.65 Q167.0 298.0 167.3 299.2 L167.35 299.75 Q167.2 300.9 165.35 302.25 163.1 303.8 159.75 304.8 159.25 303.8 157.2 303.0 L156.0 302.6 156.95 302.35 Q160.6 301.35 162.95 299.7 164.5 298.6 164.9 297.65 M159.9 305.7 Q162.25 306.65 162.3 308.0 L162.15 308.6 162.1 308.7 158.55 307.45 158.3 307.45 155.65 306.9 159.6 306.05 159.8 306.05 159.9 305.7 M166.6 312.45 L166.95 312.75 Q169.25 314.4 168.95 315.8 L168.7 316.3 Q167.95 317.2 165.65 317.45 162.8 317.7 159.1 316.75 156.45 316.0 154.45 314.95 L152.45 314.4 Q150.35 313.6 150.35 312.5 150.35 312.2 150.5 311.95 L150.1 311.8 Q149.15 311.5 148.7 311.1 L146.5 310.5 Q143.8 309.45 143.85 308.0 L143.85 307.75 144.15 307.9 148.6 308.85 148.7 308.7 Q148.6 309.95 150.55 311.35 L150.7 311.5 150.8 311.55 151.1 311.75 152.1 312.35 Q154.1 313.45 156.75 314.15 160.45 315.15 163.3 314.85 165.5 314.65 166.2 313.85 L166.35 313.75 166.6 313.2 166.6 312.45 M142.0 304.25 L139.95 303.75 Q137.85 302.95 137.85 301.85 L137.95 301.3 142.7 301.95 147.15 301.35 147.15 301.4 147.6 302.15 Q145.7 302.4 144.15 303.0 143.35 303.3 142.8 303.65 L142.0 304.25 M127.2 316.35 L127.5 316.5 Q130.25 317.5 134.05 317.5 137.85 317.5 140.6 316.5 142.55 315.7 143.1 314.75 L143.15 314.6 143.25 314.3 Q145.65 315.25 145.65 316.6 L145.5 317.2 Q145.1 318.25 142.95 319.05 140.2 320.05 136.45 320.05 132.6 320.05 129.85 319.05 127.2 318.05 127.2 316.6 L127.2 316.35 M154.45 314.95 L153.05 314.05 Q151.65 313.05 151.25 312.2 151.65 313.05 153.05 314.05 L154.45 314.95" fill="#ccb266" fill-rule="evenodd" stroke="none"/>
    <path d="M108.2 304.45 L108.15 304.6 108.05 304.5 108.2 304.45 M124.95 306.9 L125.15 306.85 125.1 307.0 124.95 306.9 M136.45 297.9 L136.55 297.85 136.55 297.95 136.45 297.9 M126.2 312.35 L126.1 312.25 126.2 312.2 126.2 312.35 M143.1 314.75 L143.0 314.65 143.15 314.6 143.1 314.75 M148.0 299.45 L147.9 299.35 148.0 299.3 148.0 299.35 148.0 299.45 M150.55 307.0 L150.55 306.95 150.75 307.0 150.55 307.0 150.5 307.15 150.4 307.05 150.55 307.0 M166.1 313.75 L166.35 313.75 166.2 313.85 166.1 313.75" fill="#eec846" fill-rule="evenodd" stroke="none"/>
    <path d="M108.15 304.6 L108.2 304.45 Q108.7 304.1 109.5 303.8 112.2 302.8 116.05 302.8 119.85 302.8 122.55 303.8 125.25 304.8 125.25 306.25 L125.25 306.5 125.15 306.85 124.95 306.9 Q122.05 307.85 118.0 307.85 113.9 307.85 111.0 306.9 L110.85 306.85 Q108.15 305.9 108.15 304.6 M136.55 297.85 L137.6 297.35 Q139.7 296.55 142.7 296.55 145.65 296.55 147.75 297.35 148.7 297.7 149.25 298.15 L149.15 298.35 149.3 298.2 Q151.6 296.6 155.15 295.7 158.85 294.7 161.7 295.0 164.6 295.25 164.95 296.65 L165.0 297.2 164.85 297.3 164.4 297.6 Q162.0 299.05 158.35 300.05 154.45 301.05 151.5 300.9 L151.4 300.9 149.05 300.45 148.4 300.05 148.0 299.45 148.0 299.35 148.0 299.3 147.9 299.35 147.3 300.3 144.2 300.45 139.75 300.05 138.8 299.75 Q136.55 299.0 136.55 297.95 L136.55 297.85 M159.75 304.8 L159.9 305.45 159.9 305.7 159.8 306.05 159.6 306.05 155.65 306.9 158.3 307.45 158.55 307.45 162.1 308.7 164.6 310.15 Q166.35 311.35 166.6 312.45 L166.6 313.2 166.35 313.75 166.1 313.75 Q163.1 313.9 159.15 312.85 L157.7 312.45 Q155.75 311.8 154.2 311.05 L152.65 310.1 152.2 309.8 Q150.75 308.75 150.5 307.85 L150.5 307.15 150.55 307.0 150.75 307.0 150.55 306.95 Q147.75 306.75 145.65 306.05 L145.5 306.05 Q143.45 305.35 143.0 304.4 L142.8 303.8 142.8 303.65 Q143.35 303.3 144.15 303.0 145.7 302.4 147.6 302.15 148.25 302.7 149.55 302.95 L150.4 303.1 156.0 302.6 157.2 303.0 Q159.25 303.8 159.75 304.8 M143.0 314.65 Q140.05 315.6 136.0 315.6 131.95 315.6 129.05 314.65 L128.9 314.6 Q126.15 313.65 126.2 312.35 L126.2 312.2 127.5 311.6 Q130.25 310.55 134.05 310.55 137.85 310.55 140.6 311.6 143.25 312.6 143.25 314.0 L143.25 314.3 143.15 314.6 143.0 314.65 M149.15 298.35 L148.0 299.3 149.15 298.35 M155.65 306.9 L151.95 306.75 150.75 307.0 151.95 306.75 155.65 306.9" fill="#a62626" fill-rule="evenodd" stroke="none"/>
    <path d="M108.05 304.5 L108.15 304.6 Q108.15 305.9 110.85 306.85 L111.0 306.9 Q113.9 307.85 118.0 307.85 122.05 307.85 124.95 306.9 L125.1 307.0 Q124.55 307.95 122.55 308.7 119.85 309.7 116.05 309.7 112.2 309.7 109.5 308.7 L109.2 308.55 Q106.8 307.6 106.8 306.25 106.8 305.25 108.05 304.5 M137.95 301.3 L137.6 301.15 Q135.5 300.35 135.5 299.25 135.5 298.5 136.45 297.9 L136.55 297.95 Q136.55 299.0 138.8 299.75 L139.75 300.05 144.2 300.45 147.3 300.3 Q147.0 300.85 147.15 301.35 147.0 300.85 147.3 300.3 L147.9 299.35 148.0 299.45 148.4 300.05 149.05 300.45 151.4 300.9 151.5 300.9 Q154.45 301.05 158.35 300.05 162.0 299.05 164.4 297.6 L164.85 297.3 165.0 297.2 164.9 297.65 Q164.5 298.6 162.95 299.7 160.6 301.35 156.95 302.35 L156.0 302.6 150.4 303.1 149.55 302.95 Q148.25 302.7 147.6 302.15 L147.15 301.4 147.15 301.35 142.7 301.95 137.95 301.3 M143.85 307.75 Q141.45 306.8 141.45 305.45 141.45 304.8 142.0 304.25 L142.8 303.65 142.8 303.8 143.0 304.4 Q143.45 305.35 145.5 306.05 L145.65 306.05 Q147.75 306.75 150.55 306.95 L150.55 307.0 150.4 307.05 150.5 307.15 150.5 307.85 Q150.75 308.75 152.2 309.8 L152.65 310.1 154.2 311.05 Q155.75 311.8 157.7 312.45 L159.15 312.85 Q163.1 313.9 166.1 313.75 L166.2 313.85 Q165.5 314.65 163.3 314.85 160.45 315.15 156.75 314.15 154.1 313.45 152.1 312.35 L151.1 311.75 150.8 311.55 150.7 311.5 150.55 311.35 Q148.6 309.95 148.7 308.7 L148.6 308.85 144.15 307.9 143.85 307.75 M126.1 312.25 L126.2 312.35 Q126.15 313.65 128.9 314.6 L129.05 314.65 Q131.95 315.6 136.0 315.6 140.05 315.6 143.0 314.65 L143.1 314.75 Q142.55 315.7 140.6 316.5 137.85 317.5 134.05 317.5 130.25 317.5 127.5 316.5 L127.2 316.35 Q124.85 315.4 124.85 314.0 124.85 313.05 126.1 312.25 M150.4 307.05 Q149.0 307.5 148.75 308.4 L148.7 308.7 148.75 308.4 Q149.0 307.5 150.4 307.05" fill="#d85050" fill-rule="evenodd" stroke="none"/>
    <path d="M108.2 304.45 L108.05 304.5 Q106.8 305.25 106.8 306.25 106.8 307.6 109.2 308.55 L109.5 308.7 Q112.2 309.7 116.05 309.7 119.85 309.7 122.55 308.7 124.55 307.95 125.1 307.0 L125.15 306.85 125.25 306.5 125.25 306.25 Q125.25 304.8 122.55 303.8 119.85 302.8 116.05 302.8 112.2 302.8 109.5 303.8 108.7 304.1 108.2 304.45 M137.95 301.3 L137.6 301.15 Q135.5 300.35 135.5 299.25 135.5 298.5 136.45 297.9 L136.55 297.85 137.6 297.35 Q139.7 296.55 142.7 296.55 145.65 296.55 147.75 297.35 148.7 297.7 149.25 298.15 L149.3 298.2 Q151.6 296.6 155.15 295.7 158.85 294.7 161.7 295.0 164.6 295.25 164.95 296.65 L165.0 297.2 164.9 297.65 Q164.5 298.6 162.95 299.7 160.6 301.35 156.95 302.35 L156.0 302.6 157.2 303.0 Q159.25 303.8 159.75 304.8 L159.9 305.45 159.9 305.7 159.8 306.05 M162.1 308.7 L164.6 310.15 Q166.35 311.35 166.6 312.45 L166.6 313.2 166.35 313.75 166.2 313.85 Q165.5 314.65 163.3 314.85 160.45 315.15 156.75 314.15 154.1 313.45 152.1 312.35 L151.1 311.75 150.8 311.55 150.7 311.5 150.55 311.35 Q148.6 309.95 148.7 308.7 L148.6 308.85 144.15 307.9 143.85 307.75 Q141.45 306.8 141.45 305.45 141.45 304.8 142.0 304.25 L142.8 303.65 Q143.35 303.3 144.15 303.0 145.7 302.4 147.6 302.15 L147.15 301.4 147.15 301.35 Q147.0 300.85 147.3 300.3 L147.9 299.35 148.0 299.3 149.15 298.35 149.3 298.2 M137.95 301.3 L142.7 301.95 147.15 301.35 M126.1 312.25 Q124.85 313.05 124.85 314.0 124.85 315.4 127.2 316.35 L127.5 316.5 Q130.25 317.5 134.05 317.5 137.85 317.5 140.6 316.5 142.55 315.7 143.1 314.75 L143.15 314.6 143.25 314.3 143.25 314.0 Q143.25 312.6 140.6 311.6 137.85 310.55 134.05 310.55 130.25 310.55 127.5 311.6 L126.2 312.2 126.1 312.25 M155.65 306.9 L158.3 307.45 158.55 307.45 162.1 308.7 M156.0 302.6 L150.4 303.1 149.55 302.95 Q148.25 302.7 147.6 302.15 M150.75 307.0 L151.95 306.75 155.65 306.9 M150.55 307.0 L150.4 307.05 Q149.0 307.5 148.75 308.4 L148.7 308.7 M150.55 307.0 L150.75 307.0" fill="none" stroke="#a62626" stroke-linecap="round" stroke-linejoin="round" stroke-width="0.05"/>
    <path d="M125.25 306.5 Q127.6 307.45 127.65 308.85 L127.5 309.4 Q127.05 310.5 124.9 311.3 122.2 312.3 118.4 312.3 114.55 312.3 111.85 311.3 109.15 310.25 109.2 308.85 L109.2 308.55 M164.9 297.65 Q167.0 298.0 167.3 299.2 L167.35 299.75 Q167.2 300.9 165.35 302.25 163.1 303.8 159.75 304.8 M159.9 305.7 Q162.25 306.65 162.3 308.0 L162.15 308.6 162.1 308.7 M166.6 312.45 L166.95 312.75 Q169.25 314.4 168.95 315.8 L168.7 316.3 Q167.95 317.2 165.65 317.45 162.8 317.7 159.1 316.75 156.45 316.0 154.45 314.95 L152.45 314.4 Q150.35 313.6 150.35 312.5 150.35 312.2 150.5 311.95 M148.7 311.1 L146.5 310.5 Q143.8 309.45 143.85 308.0 L143.85 307.75 M142.0 304.25 L139.95 303.75 Q137.85 302.95 137.85 301.85 L137.95 301.3 M143.25 314.3 Q145.65 315.25 145.65 316.6 L145.5 317.2 Q145.1 318.25 142.95 319.05 140.2 320.05 136.45 320.05 132.6 320.05 129.85 319.05 127.2 318.05 127.2 316.6 L127.2 316.35 M151.25 312.2 Q151.65 313.05 153.05 314.05 L154.45 314.95" fill="none" stroke="#ccb266" stroke-linecap="round" stroke-linejoin="round" stroke-width="0.05"/>
    <path d="M403.35 298.35 L403.45 298.15 403.5 298.2 403.35 298.35" fill="#ffffff" fill-rule="evenodd" stroke="none"/>
    <path d="M379.35 306.85 L379.45 306.5 Q381.8 307.45 381.85 308.85 L381.7 309.4 Q381.25 310.5 379.1 311.3 376.4 312.3 372.6 312.3 368.75 312.3 366.05 311.3 363.35 310.25 363.4 308.85 L363.4 308.55 363.7 308.7 Q366.4 309.7 370.25 309.7 374.05 309.7 376.75 308.7 378.75 307.95 379.3 307.0 L379.35 306.85 M397.0 303.65 L396.2 304.25 394.15 303.75 Q392.05 302.95 392.05 301.85 L392.15 301.3 396.9 301.95 401.35 301.35 401.35 301.4 401.8 302.15 Q399.9 302.4 398.35 303.0 397.55 303.3 397.0 303.65 M398.05 307.75 L398.35 307.9 402.8 308.85 402.9 308.7 Q402.8 309.95 404.75 311.35 L404.9 311.5 405.0 311.55 405.3 311.75 406.3 312.35 Q408.3 313.45 410.95 314.15 414.65 315.15 417.5 314.85 419.7 314.65 420.4 313.85 L420.55 313.75 420.8 313.2 420.8 312.45 421.15 312.75 Q423.45 314.4 423.15 315.8 L422.9 316.3 Q422.15 317.2 419.85 317.45 417.0 317.7 413.3 316.75 410.65 316.0 408.65 314.95 L406.65 314.4 Q404.55 313.6 404.55 312.5 404.55 312.2 404.7 311.95 L404.3 311.8 Q403.35 311.5 402.9 311.1 L400.7 310.5 Q398.0 309.45 398.05 308.0 L398.05 307.75 M381.4 316.35 L381.7 316.5 Q384.45 317.5 388.25 317.5 392.05 317.5 394.8 316.5 396.75 315.7 397.3 314.75 L397.35 314.6 397.45 314.3 Q399.85 315.25 399.85 316.6 L399.7 317.2 Q399.3 318.25 397.15 319.05 394.4 320.05 390.65 320.05 386.8 320.05 384.05 319.05 381.4 318.05 381.4 316.6 L381.4 316.35 M419.1 297.65 Q421.2 298.0 421.5 299.2 L421.55 299.75 Q421.4 300.9 419.55 302.25 417.3 303.8 413.95 304.8 413.45 303.8 411.4 303.0 L410.2 302.6 411.15 302.35 Q414.8 301.35 417.15 299.7 418.7 298.6 419.1 297.65 M414.1 305.7 Q416.45 306.65 416.5 308.0 L416.35 308.6 416.3 308.7 Q414.7 308.0 412.75 307.45 L412.5 307.45 409.85 306.9 413.8 306.05 414.0 306.05 414.1 305.7 M408.65 314.95 L407.25 314.05 Q405.85 313.05 405.45 312.2 405.85 313.05 407.25 314.05 L408.65 314.95" fill="#ccb266" fill-rule="evenodd" stroke="none"/>
    <path d="M362.4 304.45 L362.35 304.6 362.25 304.5 362.4 304.45 M379.15 306.9 L379.35 306.85 379.3 307.0 379.15 306.9 M390.75 297.85 L390.75 297.95 390.65 297.9 390.75 297.85 M402.1 299.35 L402.2 299.3 402.2 299.35 402.2 299.45 402.1 299.35 M404.6 307.05 L404.75 307.0 404.75 306.95 404.95 307.0 404.75 307.0 404.7 307.15 404.6 307.05 M380.4 312.35 L380.3 312.25 380.4 312.2 380.4 312.35 M397.3 314.75 L397.2 314.65 397.35 314.6 397.3 314.75 M420.3 313.75 L420.55 313.75 420.4 313.85 420.3 313.75" fill="#eec846" fill-rule="evenodd" stroke="none"/>
    <path d="M362.35 304.6 L362.4 304.45 Q362.9 304.1 363.7 303.8 366.4 302.8 370.25 302.8 374.05 302.8 376.75 303.8 379.45 304.8 379.45 306.25 L379.45 306.5 379.35 306.85 379.15 306.9 Q376.25 307.85 372.2 307.85 368.1 307.85 365.2 306.9 L365.05 306.85 Q362.35 305.9 362.35 304.6 M390.75 297.95 L390.75 297.85 391.8 297.35 Q393.9 296.55 396.9 296.55 399.85 296.55 401.95 297.35 402.9 297.7 403.45 298.15 L403.35 298.35 402.2 299.3 403.35 298.35 403.5 298.2 Q405.8 296.6 409.35 295.7 413.05 294.7 415.9 295.0 418.8 295.25 419.15 296.65 L419.2 297.2 419.05 297.3 418.6 297.6 Q416.2 299.05 412.55 300.05 408.65 301.05 405.7 300.9 L405.6 300.9 403.25 300.45 402.6 300.05 402.2 299.45 402.2 299.35 402.2 299.3 402.1 299.35 Q401.65 299.85 401.5 300.3 L398.4 300.45 393.95 300.05 393.0 299.75 Q390.75 299.0 390.75 297.95 M404.75 306.95 L399.85 306.05 399.7 306.05 Q397.65 305.35 397.2 304.4 L397.0 303.8 397.0 303.65 Q397.55 303.3 398.35 303.0 399.9 302.4 401.8 302.15 402.45 302.7 403.75 302.95 L404.6 303.1 410.2 302.6 411.4 303.0 Q413.45 303.8 413.95 304.8 L414.1 305.45 414.1 305.7 414.0 306.05 413.8 306.05 409.85 306.9 412.5 307.45 412.75 307.45 Q414.7 308.0 416.3 308.7 417.7 309.35 418.8 310.15 420.55 311.35 420.8 312.45 L420.8 313.2 420.55 313.75 420.3 313.75 Q417.3 313.9 413.35 312.85 L411.9 312.45 408.4 311.05 406.85 310.1 406.4 309.8 Q404.95 308.75 404.7 307.85 L404.7 307.15 404.75 307.0 404.95 307.0 404.75 306.95 M397.2 314.65 Q394.25 315.6 390.2 315.6 386.15 315.6 383.25 314.65 L383.1 314.6 Q380.35 313.65 380.4 312.35 L380.4 312.2 381.7 311.6 Q384.45 310.55 388.25 310.55 392.05 310.55 394.8 311.6 397.45 312.6 397.45 314.0 L397.45 314.3 397.35 314.6 397.2 314.65 M409.85 306.9 L406.15 306.75 404.95 307.0 406.15 306.75 409.85 306.9" fill="#a62626" fill-rule="evenodd" stroke="none"/>
    <path d="M362.25 304.5 L362.35 304.6 Q362.35 305.9 365.05 306.85 L365.2 306.9 Q368.1 307.85 372.2 307.85 376.25 307.85 379.15 306.9 L379.3 307.0 Q378.75 307.95 376.75 308.7 374.05 309.7 370.25 309.7 366.4 309.7 363.7 308.7 L363.4 308.55 Q361.0 307.6 361.0 306.25 361.0 305.25 362.25 304.5 M390.65 297.9 L390.75 297.95 Q390.75 299.0 393.0 299.75 L393.95 300.05 398.4 300.45 401.5 300.3 Q401.65 299.85 402.1 299.35 L402.2 299.45 402.6 300.05 403.25 300.45 405.6 300.9 405.7 300.9 Q408.65 301.05 412.55 300.05 416.2 299.05 418.6 297.6 L419.05 297.3 419.2 297.2 419.1 297.65 Q418.7 298.6 417.15 299.7 414.8 301.35 411.15 302.35 L410.2 302.6 404.6 303.1 403.75 302.95 Q402.45 302.7 401.8 302.15 L401.35 301.4 401.35 301.35 396.9 301.95 392.15 301.3 391.8 301.15 Q389.7 300.35 389.7 299.25 389.7 298.5 390.65 297.9 M396.2 304.25 L397.0 303.65 397.0 303.8 397.2 304.4 Q397.65 305.35 399.7 306.05 L399.85 306.05 404.75 306.95 404.75 307.0 404.6 307.05 Q403.2 307.5 402.95 308.4 L402.9 308.7 402.95 308.4 Q403.2 307.5 404.6 307.05 L404.7 307.15 404.7 307.85 Q404.95 308.75 406.4 309.8 L406.85 310.1 408.4 311.05 411.9 312.45 413.35 312.85 Q417.3 313.9 420.3 313.75 L420.4 313.85 Q419.7 314.65 417.5 314.85 414.65 315.15 410.95 314.15 408.3 313.45 406.3 312.35 L405.3 311.75 405.0 311.55 404.9 311.5 404.75 311.35 Q402.8 309.95 402.9 308.7 L402.8 308.85 398.35 307.9 398.05 307.75 Q395.65 306.8 395.65 305.45 395.65 304.8 396.2 304.25 M380.3 312.25 L380.4 312.35 Q380.35 313.65 383.1 314.6 L383.25 314.65 Q386.15 315.6 390.2 315.6 394.25 315.6 397.2 314.65 L397.3 314.75 Q396.75 315.7 394.8 316.5 392.05 317.5 388.25 317.5 384.45 317.5 381.7 316.5 L381.4 316.35 Q379.05 315.4 379.05 314.0 379.05 313.05 380.3 312.25 M401.5 300.3 Q401.2 300.85 401.35 301.35 401.2 300.85 401.5 300.3" fill="#d85050" fill-rule="evenodd" stroke="none"/>
    <path d="M362.4 304.45 L362.25 304.5 Q361.0 305.25 361.0 306.25 361.0 307.6 363.4 308.55 L363.7 308.7 Q366.4 309.7 370.25 309.7 374.05 309.7 376.75 308.7 378.75 307.95 379.3 307.0 L379.35 306.85 379.45 306.5 379.45 306.25 Q379.45 304.8 376.75 303.8 374.05 302.8 370.25 302.8 366.4 302.8 363.7 303.8 362.9 304.1 362.4 304.45 M390.75 297.85 L390.65 297.9 Q389.7 298.5 389.7 299.25 389.7 300.35 391.8 301.15 L392.15 301.3 396.9 301.95 401.35 301.35 Q401.2 300.85 401.5 300.3 401.65 299.85 402.1 299.35 L402.2 299.3 403.35 298.35 403.5 298.2 Q405.8 296.6 409.35 295.7 413.05 294.7 415.9 295.0 418.8 295.25 419.15 296.65 L419.2 297.2 419.1 297.65 Q418.7 298.6 417.15 299.7 414.8 301.35 411.15 302.35 L410.2 302.6 411.4 303.0 Q413.45 303.8 413.95 304.8 L414.1 305.45 414.1 305.7 414.0 306.05 M403.45 298.15 Q402.9 297.7 401.95 297.35 399.85 296.55 396.9 296.55 393.9 296.55 391.8 297.35 L390.75 297.85 M397.0 303.65 L396.2 304.25 Q395.65 304.8 395.65 305.45 395.65 306.8 398.05 307.75 L398.35 307.9 402.8 308.85 402.9 308.7 402.95 308.4 Q403.2 307.5 404.6 307.05 L404.75 307.0 404.95 307.0 406.15 306.75 409.85 306.9 412.5 307.45 412.75 307.45 Q414.7 308.0 416.3 308.7 417.7 309.35 418.8 310.15 420.55 311.35 420.8 312.45 L420.8 313.2 420.55 313.75 420.4 313.85 Q419.7 314.65 417.5 314.85 414.65 315.15 410.95 314.15 408.3 313.45 406.3 312.35 L405.3 311.75 405.0 311.55 404.9 311.5 404.75 311.35 Q402.8 309.95 402.9 308.7 M397.0 303.65 Q397.55 303.3 398.35 303.0 399.9 302.4 401.8 302.15 L401.35 301.4 401.35 301.35 M380.3 312.25 Q379.05 313.05 379.05 314.0 379.05 315.4 381.4 316.35 L381.7 316.5 Q384.45 317.5 388.25 317.5 392.05 317.5 394.8 316.5 396.75 315.7 397.3 314.75 L397.35 314.6 397.45 314.3 397.45 314.0 Q397.45 312.6 394.8 311.6 392.05 310.55 388.25 310.55 384.45 310.55 381.7 311.6 L380.4 312.2 380.3 312.25 M403.45 298.15 L403.5 298.2 M410.2 302.6 L404.6 303.1 403.75 302.95 Q402.45 302.7 401.8 302.15" fill="none" stroke="#a62626" stroke-linecap="round" stroke-linejoin="round" stroke-width="0.05"/>
    <path d="M379.45 306.5 Q381.8 307.45 381.85 308.85 L381.7 309.4 Q381.25 310.5 379.1 311.3 376.4 312.3 372.6 312.3 368.75 312.3 366.05 311.3 363.35 310.25 363.4 308.85 L363.4 308.55 M392.15 301.3 L392.05 301.85 Q392.05 302.95 394.15 303.75 L396.2 304.25 M397.45 314.3 Q399.85 315.25 399.85 316.6 L399.7 317.2 Q399.3 318.25 397.15 319.05 394.4 320.05 390.65 320.05 386.8 320.05 384.05 319.05 381.4 318.05 381.4 316.6 L381.4 316.35 M419.1 297.65 Q421.2 298.0 421.5 299.2 L421.55 299.75 Q421.4 300.9 419.55 302.25 417.3 303.8 413.95 304.8 M414.1 305.7 Q416.45 306.65 416.5 308.0 L416.35 308.6 416.3 308.7 M420.8 312.45 L421.15 312.75 Q423.45 314.4 423.15 315.8 L422.9 316.3 Q422.15 317.2 419.85 317.45 417.0 317.7 413.3 316.75 410.65 316.0 408.65 314.95 L406.65 314.4 Q404.55 313.6 404.55 312.5 404.55 312.2 404.7 311.95 M402.9 311.1 L400.7 310.5 Q398.0 309.45 398.05 308.0 L398.05 307.75 M405.45 312.2 Q405.85 313.05 407.25 314.05 L408.65 314.95" fill="none" stroke="#ccb266" stroke-linecap="round" stroke-linejoin="round" stroke-width="0.05"/>
  </g>
</svg>
