<?xml version="1.0" encoding="UTF-8" standalone="no"?>
<svg xmlns:xlink="http://www.w3.org/1999/xlink" height="49.45px" width="52.8px" xmlns="http://www.w3.org/2000/svg">
  <g transform="matrix(1.0, 0.0, 0.0, 1.0, -248.55, -175.75)">
    <path d="M255.0 196.85 L254.9 196.75 254.65 196.85 Q254.45 196.9 254.4 197.1 L254.4 197.2 Q254.85 198.7 256.2 199.45 256.5 200.55 256.1 201.85 L256.15 201.9 255.5 202.05 255.3 202.25 255.25 202.45 255.25 199.7 Q252.65 196.45 255.8 195.25 L258.25 198.15 261.35 200.55 Q259.9 204.4 255.25 203.5 L255.25 202.65 Q256.0 203.55 257.45 202.9 L257.65 202.85 259.0 202.9 259.45 202.6 Q260.3 202.0 259.85 201.05 L257.25 200.95 257.25 200.85 Q257.6 198.15 255.3 196.75 L255.0 196.85 M270.55 188.9 L272.85 190.15 Q270.75 193.45 264.25 193.1 L264.25 189.3 Q261.2 186.55 263.9 185.25 264.35 185.0 265.05 184.85 L268.5 187.75 270.55 188.9 M263.9 183.55 L263.9 180.95 Q262.05 178.75 264.3 177.9 L266.1 179.9 268.35 181.55 Q266.9 184.1 263.9 183.55 M289.15 192.9 L289.3 192.75 Q289.75 188.85 292.65 190.1 L292.4 192.9 291.95 191.25 291.85 191.15 291.5 191.0 Q291.4 191.0 291.35 191.1 290.75 192.1 291.45 193.3 L291.55 193.4 291.85 193.6 292.05 193.6 292.35 193.55 292.35 193.7 292.5 195.25 292.75 197.35 Q289.25 198.25 286.9 195.35 L286.75 195.3 289.15 192.9 M265.75 180.85 L265.8 180.8 265.95 180.6 266.05 180.2 266.0 180.15 Q265.05 179.05 263.75 178.55 L263.55 178.65 Q263.25 178.75 263.25 179.05 L263.4 179.25 263.6 179.4 263.65 179.9 263.9 180.2 264.4 181.75 264.35 181.85 264.05 182.15 264.0 182.35 Q263.9 182.8 264.3 183.05 L264.55 183.1 Q265.2 183.55 266.25 183.1 L266.35 183.0 266.5 182.6 266.5 182.5 266.95 182.4 267.05 182.15 267.1 181.95 265.75 180.85 M267.75 192.0 Q268.75 191.9 269.7 191.3 L269.75 191.1 269.7 190.8 269.6 190.65 Q268.3 190.05 267.0 190.3 L267.1 189.8 Q267.1 188.8 266.55 188.1 L266.6 188.05 266.75 187.65 266.65 187.5 Q265.8 186.9 265.25 186.0 L265.15 185.9 264.9 185.8 264.75 185.85 264.45 186.1 264.4 186.3 263.75 186.0 263.55 186.05 Q263.3 186.15 263.25 186.4 L263.3 186.55 265.3 188.65 Q265.0 188.65 264.85 188.9 L264.8 189.35 Q264.7 190.45 264.9 191.45 L264.8 191.55 264.8 191.65 264.9 191.95 265.0 192.05 265.25 192.25 265.5 192.3 267.3 192.6 267.45 192.55 267.55 192.5 267.75 192.3 267.75 192.1 267.75 192.0 M279.4 193.4 Q280.05 193.9 281.8 194.2 L281.95 194.15 282.2 194.0 282.25 193.75 Q281.85 191.3 282.1 188.9 L282.0 188.8 281.65 188.6 281.55 188.65 Q280.95 191.0 279.35 192.9 L279.25 192.8 278.9 192.65 278.8 192.7 Q278.4 193.55 278.6 194.15 L278.1 193.25 277.95 193.2 278.05 193.1 278.2 192.95 280.5 190.65 Q280.95 186.75 283.85 188.0 L283.6 190.8 283.15 189.15 283.05 189.05 282.7 188.9 282.55 189.0 Q281.95 190.0 282.65 191.2 L282.75 191.3 283.05 191.5 283.25 191.5 283.55 191.45 283.55 191.6 283.9 194.8 283.95 195.25 Q280.9 197.15 278.95 194.6 279.45 195.0 280.6 195.05 L280.75 194.9 280.85 194.5 Q280.6 194.05 280.05 194.1 L280.0 194.05 279.5 193.7 279.4 193.4 M291.0 195.6 L290.85 194.1 Q290.75 192.55 290.9 191.0 L290.8 190.9 290.45 190.7 290.35 190.75 289.45 193.1 288.15 195.0 Q287.95 195.05 287.9 195.25 L287.85 195.55 287.9 195.65 Q288.35 196.1 289.0 196.0 L289.2 196.15 289.3 196.25 Q290.1 196.5 290.85 196.25 L290.95 196.2 291.1 195.8 291.1 195.7 291.0 195.6 M293.35 209.5 Q294.3 209.2 294.55 208.3 L294.5 208.2 Q294.35 207.95 294.05 207.95 L293.85 208.05 293.45 208.2 293.35 207.7 293.25 207.65 292.7 207.55 290.05 209.25 Q288.8 208.65 287.45 208.5 L287.2 208.65 286.75 209.05 286.75 209.25 286.8 209.4 286.75 209.4 286.4 209.6 286.25 209.9 286.35 210.15 288.0 212.3 289.8 212.75 290.05 212.35 290.0 211.95 289.9 211.9 Q289.45 211.05 288.6 210.45 L291.15 210.7 Q292.85 210.45 293.35 209.5 M286.0 208.6 L285.95 208.45 286.1 208.45 290.15 208.45 Q293.75 204.55 295.15 209.3 L291.9 213.05 289.2 214.7 Q284.8 213.4 286.0 208.6 M266.95 209.45 Q266.35 208.9 265.3 209.2 L265.15 209.25 264.7 209.6 264.6 209.7 264.5 210.0 264.45 210.35 264.25 210.55 264.25 210.65 Q264.05 210.7 263.9 210.85 L263.9 208.55 Q268.7 207.5 268.95 210.75 L266.4 212.6 264.35 214.85 Q262.05 213.95 263.5 211.9 L263.4 213.1 263.9 213.4 264.05 213.25 264.45 212.7 264.4 212.85 Q264.7 213.35 265.25 213.15 L265.35 213.05 265.55 213.0 265.65 212.9 265.9 211.55 268.05 210.25 267.45 209.65 267.35 209.55 267.2 209.45 267.0 209.45 266.95 209.45 M264.5 210.75 L264.55 210.8 264.5 210.75 M264.55 212.4 L264.65 212.1 264.65 212.15 264.55 212.4" fill="#516c88" fill-rule="evenodd" stroke="none"/>
    <path d="M256.2 199.45 Q254.85 198.7 254.4 197.2 L254.4 197.1 Q254.45 196.9 254.65 196.85 L254.9 196.75 255.0 196.85 Q256.1 197.7 256.7 199.0 L256.7 199.1 256.45 199.4 256.2 199.45 M292.4 192.9 L292.5 193.15 292.45 193.4 292.35 193.55 292.05 193.6 291.85 193.6 291.55 193.4 291.45 193.3 Q290.75 192.1 291.35 191.1 291.4 191.0 291.5 191.0 L291.85 191.15 291.95 191.25 292.4 192.9 M263.6 179.4 L263.4 179.25 263.25 179.05 Q263.25 178.75 263.55 178.65 L263.75 178.55 Q265.05 179.05 266.0 180.15 L266.05 180.2 265.95 180.6 265.8 180.8 265.75 180.85 265.2 180.75 263.6 179.4 M264.4 186.3 L264.45 186.1 264.75 185.85 264.9 185.8 265.15 185.9 265.25 186.0 Q265.8 186.9 266.65 187.5 L266.75 187.65 266.6 188.05 266.55 188.1 266.45 188.2 Q265.2 187.85 264.45 186.7 L264.4 186.4 264.4 186.3 M283.55 191.45 L283.25 191.5 283.05 191.5 282.75 191.3 282.65 191.2 Q281.95 190.0 282.55 189.0 L282.7 188.9 283.05 189.05 283.15 189.15 283.6 190.8 283.7 191.05 283.65 191.3 283.55 191.45 M293.45 208.2 L293.85 208.05 294.05 207.95 Q294.35 207.95 294.5 208.2 L294.55 208.3 Q294.3 209.2 293.35 209.5 L293.15 209.55 292.6 210.0 292.1 209.65 Q292.4 208.6 293.45 208.2 M265.35 213.05 L265.25 213.15 Q264.7 213.35 264.4 212.85 L264.45 212.7 264.55 212.4 264.65 212.15 264.65 212.1 264.7 210.9 264.9 211.0 265.25 210.95 265.35 210.9 265.6 211.7 265.35 213.05 M264.25 210.65 L264.25 210.55 264.45 210.35 264.4 210.5 264.4 210.6 264.45 210.7 264.5 210.75 264.3 210.65 264.25 210.65" fill="#c2d2da" fill-rule="evenodd" stroke="none"/>
    <path d="M255.0 196.85 L255.3 196.75 Q257.6 198.15 257.25 200.85 L257.25 200.95 259.85 201.05 Q260.3 202.0 259.45 202.6 L259.0 202.9 257.65 202.85 Q258.8 202.35 258.95 201.3 L258.9 201.2 Q258.7 201.0 258.4 201.05 257.7 201.35 257.0 201.95 L256.15 201.9 256.1 201.85 Q256.5 200.55 256.2 199.45 L256.45 199.4 256.7 199.1 256.7 199.0 Q256.1 197.7 255.0 196.85 M271.25 204.0 L275.95 201.45 280.65 198.9 277.85 217.15 262.7 224.85 252.65 219.95 262.8 208.8 271.25 204.0 M252.9 205.6 L256.25 206.7 250.4 210.65 252.9 205.6 M280.65 176.1 L285.3 190.25 285.3 195.25 283.9 194.8 283.55 191.6 283.55 191.45 283.65 191.3 283.7 191.05 283.6 190.8 283.85 188.0 Q280.95 186.75 280.5 190.65 L278.2 192.95 277.95 192.9 280.65 176.1 M301.0 201.05 L291.5 221.55 284.7 221.55 282.8 214.75 286.0 208.6 Q284.8 213.4 289.2 214.7 L291.9 213.05 295.15 209.3 Q293.75 204.55 290.15 208.45 L286.1 208.45 289.9 201.05 301.0 201.05 M265.75 180.85 L267.1 181.95 267.05 182.15 266.95 182.4 266.5 182.5 266.45 182.45 Q265.75 181.75 264.7 182.15 L264.5 182.2 Q264.15 182.3 264.2 182.7 L264.2 182.8 264.55 183.1 264.3 183.05 Q263.9 182.8 264.0 182.35 L264.05 182.15 264.35 181.85 264.4 181.75 263.9 180.2 263.65 179.9 263.6 179.4 265.2 180.75 265.75 180.85 M266.55 188.1 Q267.1 188.8 267.1 189.8 L267.0 190.3 Q268.3 190.05 269.6 190.65 L269.7 190.8 269.75 191.1 269.7 191.3 Q268.75 191.9 267.75 192.0 L267.7 191.8 267.65 191.7 267.45 191.5 267.2 191.45 265.3 191.15 265.3 191.2 265.0 191.3 264.9 191.4 264.9 191.45 Q264.7 190.45 264.8 189.35 L264.85 188.9 Q265.0 188.65 265.3 188.65 L263.3 186.55 263.25 186.4 Q263.3 186.15 263.55 186.05 L263.75 186.0 264.4 186.3 264.4 186.4 264.45 186.7 Q265.2 187.85 266.45 188.2 L266.55 188.1 M279.35 192.9 Q280.95 191.0 281.55 188.65 L281.65 188.6 282.0 188.8 282.1 188.9 Q281.85 191.3 282.25 193.75 L282.2 194.0 281.95 194.15 281.8 194.2 Q280.05 193.9 279.4 193.4 L279.35 192.9 M288.15 195.0 L289.45 193.1 290.35 190.75 290.45 190.7 290.8 190.9 290.9 191.0 Q290.75 192.55 290.85 194.1 L291.0 195.6 Q290.6 195.1 289.85 195.3 L289.8 195.25 Q289.15 194.85 288.35 194.95 L288.15 195.0 M293.35 209.5 Q292.85 210.45 291.15 210.7 L288.6 210.45 Q289.45 211.05 289.9 211.9 288.95 211.55 288.2 211.0 L288.2 210.9 288.15 210.8 288.1 210.7 287.95 210.45 287.55 210.1 287.55 209.9 287.5 209.7 287.45 209.6 287.3 209.5 286.8 209.4 286.75 209.25 286.75 209.05 287.2 208.65 287.45 208.5 Q288.8 208.65 290.05 209.25 L292.7 207.55 293.25 207.65 293.35 207.7 293.45 208.2 Q292.4 208.6 292.1 209.65 L292.6 210.0 293.15 209.55 293.35 209.5 M266.95 209.45 L267.0 209.45 267.2 209.45 267.35 209.55 267.45 209.65 268.05 210.25 265.9 211.55 265.55 210.6 Q265.65 209.9 266.55 210.25 L266.9 210.2 267.05 210.05 267.15 209.85 267.2 209.75 267.15 209.65 266.95 209.45 M263.5 211.9 Q262.05 213.95 264.35 214.85 L266.4 212.6 268.95 210.75 Q268.7 207.5 263.9 208.55 L263.9 210.85 263.8 210.9 263.7 211.2 263.5 211.9" fill="#60859f" fill-rule="evenodd" stroke="none"/>
    <path d="M274.0 197.25 L274.65 188.9 270.55 188.9 268.5 187.75 265.05 184.85 Q264.35 185.0 263.9 185.25 L263.9 183.55 Q266.9 184.1 268.35 181.55 L266.1 179.9 271.0 176.1 275.7 176.1 280.65 176.1 277.95 192.9 278.05 193.1 277.95 193.2 278.1 193.25 279.95 197.25 274.0 197.25" fill="#d0dae3" fill-rule="evenodd" stroke="none"/>
    <path d="M257.65 202.85 L257.45 202.9 Q256.0 203.55 255.25 202.65 L255.2 202.6 255.25 202.45 255.3 202.25 255.5 202.05 256.15 201.9 257.0 201.95 Q257.7 201.35 258.4 201.05 258.7 201.0 258.9 201.2 L258.95 201.3 Q258.8 202.35 257.65 202.85 M266.5 182.5 L266.5 182.6 266.35 183.0 266.25 183.1 Q265.2 183.55 264.55 183.1 L264.2 182.8 264.2 182.7 Q264.15 182.3 264.5 182.2 L264.7 182.15 Q265.75 181.75 266.45 182.45 L266.5 182.5 M267.75 192.0 L267.75 192.1 267.75 192.3 267.55 192.5 267.45 192.55 267.3 192.6 265.5 192.3 265.25 192.25 265.0 192.05 264.9 191.95 264.8 191.65 264.8 191.55 264.9 191.45 264.9 191.4 265.0 191.3 265.3 191.2 265.3 191.15 267.2 191.45 267.45 191.5 267.65 191.7 267.7 191.8 267.75 192.0 M279.4 193.4 L279.5 193.7 280.0 194.05 280.05 194.1 Q280.6 194.05 280.85 194.5 L280.75 194.9 280.6 195.05 Q279.45 195.0 278.95 194.6 L278.6 194.15 Q278.4 193.55 278.8 192.7 L278.9 192.65 279.25 192.8 279.35 192.9 279.4 193.4 M291.0 195.6 L291.1 195.7 291.1 195.8 290.95 196.2 290.85 196.25 Q290.1 196.5 289.3 196.25 L289.2 196.15 289.0 196.0 Q288.35 196.1 287.9 195.65 L287.85 195.55 287.9 195.25 Q287.95 195.05 288.15 195.0 L288.35 194.95 Q289.15 194.85 289.8 195.25 L289.85 195.3 Q290.6 195.1 291.0 195.6 M289.9 211.9 L290.0 211.95 290.05 212.35 289.8 212.75 288.0 212.3 286.35 210.15 286.25 209.9 286.4 209.6 286.75 209.4 286.8 209.4 287.3 209.5 287.45 209.6 287.5 209.7 287.55 209.9 287.55 210.1 287.95 210.45 288.1 210.7 288.15 210.8 288.2 210.9 288.2 211.0 Q288.95 211.55 289.9 211.9 M264.45 210.35 L264.5 210.0 264.6 209.7 264.7 209.6 265.15 209.25 265.3 209.2 Q266.35 208.9 266.95 209.45 L267.15 209.65 267.2 209.75 267.15 209.85 267.05 210.05 266.9 210.2 266.55 210.25 Q265.65 209.9 265.55 210.6 L265.55 210.65 265.5 210.75 265.35 210.9 265.25 210.95 264.9 211.0 264.7 210.9 264.55 210.8 264.5 210.75 264.45 210.7 264.4 210.6 264.4 210.5 264.45 210.35" fill="#3a5563" fill-rule="evenodd" stroke="none"/>
    <path d="M271.25 204.0 L264.5 198.95 269.2 195.0 259.25 195.0 251.7 189.25 263.9 180.95 263.9 183.55 263.9 185.25 Q261.2 186.55 264.25 189.3 L264.25 193.1 Q270.75 193.45 272.85 190.15 L270.55 188.9 274.65 188.9 274.0 197.25 275.95 201.45 271.25 204.0" fill="#ffffff" fill-rule="evenodd" stroke="none"/>
    <path d="M255.25 202.65 L255.25 203.5 Q259.9 204.4 261.35 200.55 L258.25 198.15 255.8 195.25 Q252.65 196.45 255.25 199.7 L255.25 202.45 255.2 202.6 255.25 202.65 M251.7 189.25 L259.25 195.0 269.2 195.0 264.5 198.95 271.25 204.0 262.8 208.8 256.25 206.7 252.9 205.6 251.7 189.25 M275.95 201.45 L274.0 197.25 279.95 197.25 278.1 193.25 278.6 194.15 278.95 194.6 Q280.9 197.15 283.95 195.25 L283.9 194.8 285.3 195.25 289.9 201.05 286.1 208.45 285.95 208.45 286.0 208.6 282.8 214.75 284.7 221.55 277.85 217.15 280.65 198.9 275.95 201.45 M278.2 192.95 L278.05 193.1 277.95 192.9 278.2 192.95" fill="#96aac2" fill-rule="evenodd" stroke="none"/>
    <path d="M256.25 206.7 L262.8 208.8 252.65 219.95 248.9 213.7 250.4 210.65 256.25 206.7 M285.3 190.25 L289.15 192.9 286.75 195.3 286.9 195.35 Q289.25 198.25 292.75 197.35 L292.5 195.25 294.35 196.5 301.0 201.05 289.9 201.05 285.3 195.25 285.3 190.25" fill="#e9efed" fill-rule="evenodd" stroke="none"/>
    <path d="M264.45 212.7 L264.05 213.25 263.9 213.4 263.4 213.1 263.5 211.9 263.7 211.2 263.8 210.9 263.9 210.85 Q264.05 210.7 264.25 210.65 L264.3 210.65 264.5 210.75 264.55 210.8 264.7 210.9 264.65 212.1 264.55 212.4 264.45 212.7" fill="#54788b" fill-rule="evenodd" stroke="none"/>
    <path d="M263.9 183.55 L263.9 180.95 Q262.05 178.75 264.3 177.9 L266.1 179.9 268.35 181.55 Q266.9 184.1 263.9 183.55" fill="none" stroke="#669999" stroke-linecap="round" stroke-linejoin="round" stroke-width="0.05"/>
    <path d="M275.7 176.1 L280.65 176.1 285.3 190.25 M301.0 201.05 L291.5 221.55 M284.7 221.55 L277.85 217.15 262.7 224.85 252.65 219.95" fill="none" stroke="#486879" stroke-linecap="round" stroke-linejoin="round" stroke-width="0.75"/>
    <path d="M251.7 189.25 L252.9 205.6 250.4 210.65 M294.35 196.5 L301.0 201.05 M291.5 221.55 L284.7 221.55" fill="none" stroke="#354f46" stroke-linecap="round" stroke-linejoin="round" stroke-width="0.75"/>
    <path d="M263.9 180.95 L251.7 189.25 M285.3 190.25 L289.15 192.9 M292.5 195.25 L294.35 196.5 M252.65 219.95 L248.9 213.7 250.4 210.65 M266.1 179.9 L271.0 176.1 275.7 176.1" fill="none" stroke="#4f5966" stroke-linecap="round" stroke-linejoin="round" stroke-width="0.75"/>
  </g>
</svg>
