<?xml version="1.0" encoding="UTF-8" standalone="no"?>
<svg xmlns:xlink="http://www.w3.org/1999/xlink" height="72.4px" width="66.0px" xmlns="http://www.w3.org/2000/svg">
  <g transform="matrix(1.0, 0.0, 0.0, 1.0, 0.5, 0.0)">
    <path d="M61.75 12.75 L61.95 12.75 65.0 14.25 63.85 19.35 60.55 19.1 61.75 12.75 M55.2 19.2 L57.65 28.15 43.15 30.9 40.9 31.85 43.3 39.45 43.45 39.45 45.85 43.3 58.55 39.4 57.55 44.65 57.15 44.75 59.95 45.85 59.8 46.1 43.25 50.5 42.8 50.65 40.05 48.9 40.1 48.75 40.0 48.8 40.6 38.5 36.95 27.75 34.75 27.5 33.8 24.25 24.1 25.05 15.7 25.8 12.6 26.05 12.8 23.25 16.0 20.2 21.25 22.95 26.9 18.75 30.3 19.9 36.9 25.2 46.15 23.4 55.2 19.2 M30.8 62.5 L16.25 55.9 28.2 55.2 28.45 55.05 39.85 49.9 39.45 52.0 30.75 57.6 30.8 62.5 M12.3 51.8 L10.7 52.0 3.45 47.65 0.0 33.25 5.85 33.75 24.1 35.2 21.05 39.4 35.9 45.85 35.4 48.8 23.65 50.3 12.3 51.8 M40.0 48.9 L40.05 48.9 39.95 49.5 40.0 48.9 M9.75 63.3 L18.25 64.55 18.4 64.15 18.25 71.85 18.25 71.9 10.05 69.6 9.75 63.3" fill="#55873d" fill-rule="evenodd" stroke="none"/>
    <path d="M25.05 10.75 L25.05 10.65 34.1 6.9 49.75 8.75 49.85 9.1 32.35 14.35 25.05 10.75" fill="#97c444" fill-rule="evenodd" stroke="none"/>
    <path d="M50.9 12.85 L53.8 14.0 54.3 15.95 51.3 14.35 50.9 12.85 M8.4 26.4 L8.15 22.85 11.45 17.8 16.0 20.2 12.8 23.25 12.6 26.05 8.4 26.4 M9.75 63.3 L9.7 62.85 13.7 58.75 19.85 59.7 19.85 60.4 18.4 64.15 18.25 64.55 9.75 63.3" fill="#b7d35f" fill-rule="evenodd" stroke="none"/>
    <path d="M54.3 15.95 L55.2 19.2 46.15 23.4 36.9 25.2 30.3 19.9 32.55 20.7 33.05 20.85 51.35 14.55 51.3 14.35 54.3 15.95 M11.45 17.8 L12.5 16.15 13.45 16.0 18.05 17.95 18.2 18.0 20.95 14.6 24.6 13.9 24.1 17.8 26.9 18.75 21.25 22.95 16.0 20.2 11.45 17.8" fill="#335124" fill-rule="evenodd" stroke="none"/>
    <path d="M49.85 9.1 L50.9 12.85 51.3 14.35 51.35 14.55 33.05 20.85 32.55 20.7 32.35 14.35 49.85 9.1 M34.45 36.05 L34.5 36.1 36.0 36.15 37.35 36.25 37.5 36.8 35.9 45.85 21.05 39.4 24.1 35.2 24.15 35.2 34.45 36.05" fill="#497434" fill-rule="evenodd" stroke="none"/>
    <path d="M60.55 19.1 L56.95 18.65 57.35 12.45 61.75 12.75 60.55 19.1 M24.6 13.9 L25.05 10.75 32.35 14.35 32.55 20.7 30.3 19.9 26.9 18.75 24.1 17.8 24.6 13.9 M5.85 33.75 L7.7 30.85 15.7 25.8 24.1 25.05 28.8 29.15 24.1 35.2 5.85 33.75" fill="#8bbf73" fill-rule="evenodd" stroke="none"/>
    <path d="M57.65 28.15 L58.8 27.9 61.2 35.85 59.1 36.35 45.65 39.5 43.15 30.9 57.65 28.15" fill="#3d612c" fill-rule="evenodd" stroke="none"/>
    <path d="M16.25 55.9 L13.3 54.55 12.3 51.8 23.65 50.3 28.45 55.05 28.2 55.2 16.25 55.9 M23.6 2.0 L24.8 9.8 20.95 14.6 18.2 18.0 18.05 17.95 16.85 8.7 16.8 8.6 23.6 2.0 M43.45 39.45 L43.3 39.45 40.9 31.85 43.15 30.9 45.65 39.5 43.45 39.45" fill="#477232" fill-rule="evenodd" stroke="none"/>
    <path d="M59.1 36.35 L58.55 39.4 45.85 43.3 43.45 39.45 45.65 39.5 59.1 36.35 M59.8 46.1 L55.1 56.2 41.0 61.25 43.15 50.85 43.25 50.5 59.8 46.1 M34.75 27.5 L36.95 27.75 40.6 38.5 40.0 48.8 39.9 48.8 40.0 48.9 39.95 49.5 39.85 49.9 28.45 55.05 23.65 50.3 35.4 48.8 35.9 45.85 37.5 36.8 37.35 36.25 34.8 27.65 34.75 27.5 M18.4 64.15 L19.85 60.4 20.2 66.5 18.25 71.85 18.4 64.15" fill="#345425" fill-rule="evenodd" stroke="none"/>
    <path d="M0.0 33.25 L0.0 33.2 5.7 26.6 8.4 26.4 12.6 26.05 15.7 25.8 7.7 30.85 5.85 33.75 0.0 33.25" fill="#cfe296" fill-rule="evenodd" stroke="none"/>
    <path d="M24.1 25.05 L33.8 24.25 34.75 27.5 34.8 27.65 28.8 29.15 24.1 25.05" fill="#98c682" fill-rule="evenodd" stroke="none"/>
    <path d="M34.45 36.05 L24.15 35.2 24.1 35.2 28.8 29.15 34.8 27.65 37.35 36.25 36.0 36.15 34.45 36.05" fill="#8ec076" fill-rule="evenodd" stroke="none"/>
    <path d="M41.0 61.25 L40.8 61.3 38.6 59.55 30.8 62.5 30.75 57.6 39.45 52.0 39.85 49.9 39.95 49.5 40.05 48.9 42.8 50.65 43.15 50.85 41.0 61.25" fill="#436b30" fill-rule="evenodd" stroke="none"/>
    <path d="M6.35 5.3 L6.35 4.8 14.25 0.0 23.5 1.4 23.6 2.0 16.8 8.6 16.7 8.7 6.35 5.3" fill="#8cb83a" fill-rule="evenodd" stroke="none"/>
    <path d="M13.45 16.0 L7.1 13.25 6.35 5.3 16.7 8.7 16.85 8.7 18.05 17.95 13.45 16.0" fill="#68a949" fill-rule="evenodd" stroke="none"/>
    <path d="M65.0 14.25 L63.85 19.35 60.55 19.1 56.95 18.65 M55.2 19.2 L57.65 28.15 58.8 27.9 61.2 35.85 59.1 36.35 58.55 39.4 57.55 44.65 57.15 44.75 59.95 45.85 59.8 46.1 M41.0 61.25 L40.8 61.3 38.6 59.55 30.8 62.5 16.25 55.9 13.3 54.55 12.3 51.8 10.7 52.0 3.45 47.65 0.0 33.25 M23.6 2.0 L24.8 9.8 20.95 14.6 18.2 18.0 18.05 17.95 M51.3 14.35 L51.35 14.55 33.05 20.85 32.55 20.7 M43.45 39.45 L45.65 39.5 59.1 36.35 M35.9 45.85 L37.5 36.8 37.35 36.25 34.8 27.65 M35.9 45.85 L35.4 48.8 23.65 50.3 12.3 51.8 M19.85 60.4 L20.2 66.5 18.25 71.85 18.25 71.9 10.05 69.6 9.75 63.3" fill="none" stroke="#49221b" stroke-linecap="round" stroke-linejoin="round" stroke-width="1.0"/>
    <path d="M59.8 46.1 L55.1 56.2 41.0 61.25 M13.45 16.0 L7.1 13.25 M13.45 16.0 L18.05 17.95" fill="none" stroke="#49221b" stroke-linecap="round" stroke-linejoin="round" stroke-width="1.0"/>
  </g>
</svg>
