<?xml version="1.0" encoding="UTF-8" standalone="no"?>
<svg xmlns:xlink="http://www.w3.org/1999/xlink" height="50.05px" width="68.55px" xmlns="http://www.w3.org/2000/svg">
  <g transform="matrix(1.0, 0.0, 0.0, 1.0, 0.0, 0.0)">
    <path d="M57.6 11.7 L57.6 36.0 Q46.3 37.8 32.25 37.8 19.2 37.8 8.5 36.25 L8.5 11.45 Q19.2 9.9 32.25 9.9 46.3 9.9 57.6 11.7" fill="url(#gradient0)" fill-rule="evenodd" stroke="none"/>
    <path d="M32.35 2.9 L44.05 0.65 Q45.25 0.0 46.6 0.0 L47.2 0.05 47.4 0.1 Q49.85 0.45 51.7 3.25 L52.8 5.35 53.3 6.7 53.3 6.85 Q54.25 11.85 53.65 15.1 L53.1 17.1 52.5 17.2 38.35 20.1 33.6 21.25 26.5 22.55 14.8 24.95 13.85 23.45 14.15 22.05 14.2 21.85 14.25 21.6 14.25 21.45 14.35 20.9 14.5 18.5 Q14.5 13.95 12.4 10.8 10.6 8.1 7.1 7.6 L7.1 7.55 20.25 5.2 Q22.35 5.05 24.8 7.45 L25.3 8.0 25.8 8.15 Q26.5 8.1 27.05 7.15 27.55 6.15 27.55 4.75 L27.5 3.85 27.8 3.8 28.25 3.7 Q29.7 3.8 31.2 4.95 L31.2 5.0 31.6 5.4 31.7 5.4 32.25 4.95 32.45 3.8 32.35 3.05 32.35 2.9 M51.15 19.35 L50.1 20.5 48.8 21.4 38.1 23.5 38.2 22.1 51.15 19.35 M26.8 25.65 L9.5 28.95 Q11.0 28.2 12.3 26.4 L13.1 27.45 26.7 24.55 26.8 25.65 M43.4 5.15 L44.0 9.7 49.95 12.8 51.3 5.4 45.0 2.65 41.75 4.0 43.4 5.15 M44.85 13.35 L43.3 12.8 40.35 16.95 44.3 17.95 44.85 13.35 M37.2 10.15 L37.35 7.8 35.05 9.55 37.2 10.15 M15.45 23.65 L16.15 19.8 15.45 23.65 M17.45 8.45 L17.5 12.6 19.85 12.0 23.05 9.0 17.45 8.45" fill="#ff9900" fill-rule="evenodd" stroke="none"/>
    <path d="M7.1 7.6 Q10.6 8.1 12.4 10.8 14.5 13.95 14.5 18.5 L14.35 20.9 14.25 21.45 14.25 21.6 14.2 21.85 14.15 22.05 13.75 23.45 Q13.25 24.95 12.4 26.25 L12.3 26.4 Q11.0 28.2 9.5 28.95 L7.25 29.45 6.95 29.45 6.85 29.45 5.8 27.15 3.8 27.2 3.0 27.25 2.85 27.25 2.15 26.25 Q0.0 23.05 0.0 18.5 0.0 13.95 2.15 10.8 4.0 8.0 6.5 7.65 L7.1 7.6 M43.4 5.15 L41.75 4.0 45.0 2.65 51.3 5.4 49.95 12.8 44.0 9.7 43.4 5.15 M44.85 13.35 L44.3 17.95 40.35 16.95 43.3 12.8 44.85 13.35 M37.2 10.15 L35.05 9.55 37.35 7.8 37.2 10.15 M9.95 14.3 Q8.2 12.35 6.5 12.8 4.55 12.3 2.6 14.8 1.2 17.3 2.0 21.3 3.85 26.65 7.5 26.15 4.75 25.7 3.2 21.3 2.4 17.3 3.8 14.8 5.15 13.1 6.5 12.8 7.6 13.05 8.75 14.3 10.9 19.0 8.95 22.4 8.15 23.1 7.4 23.3 6.55 23.05 5.8 22.2 4.05 20.65 4.85 18.5 5.2 17.15 6.05 16.75 7.4 17.55 6.95 19.4 8.65 17.35 6.95 16.6 L6.05 16.75 5.75 16.6 Q4.2 16.5 3.65 18.5 2.85 20.65 4.6 22.2 5.9 23.65 7.4 23.3 8.7 23.65 10.15 22.4 12.1 19.0 9.95 14.3 M17.45 8.45 L23.05 9.0 19.85 12.0 17.5 12.6 17.45 8.45" fill="#ffc062" fill-rule="evenodd" stroke="none"/>
    <path d="M52.5 17.2 L53.1 17.1 53.65 15.1 Q57.35 15.9 60.45 18.2 L65.0 22.95 66.55 24.8 66.25 26.5 67.65 28.1 66.8 30.55 64.95 31.45 63.4 34.65 59.3 35.6 58.95 37.35 55.25 38.95 55.2 38.95 53.75 37.85 51.4 34.55 48.0 35.45 44.45 32.5 44.35 32.2 43.55 30.5 Q43.15 28.9 44.3 27.6 L45.2 29.65 Q49.65 31.75 55.35 31.25 59.55 30.75 61.25 28.35 62.65 26.25 61.45 24.85 L60.95 22.85 58.35 21.65 56.8 22.5 55.05 22.15 49.5 23.1 48.85 24.15 48.3 24.35 Q48.9 22.4 50.95 21.7 53.2 20.75 55.75 21.0 54.9 18.8 52.15 17.85 L52.5 17.2 M38.1 23.5 L37.5 25.85 Q36.2 27.7 33.2 28.4 29.95 28.55 27.45 27.15 L26.8 25.65 26.7 24.55 26.55 23.35 Q30.3 21.9 33.7 22.2 36.1 20.85 38.25 21.45 L38.2 22.1 38.1 23.5 M6.85 29.45 L8.2 32.45 Q10.7 29.25 15.25 29.75 18.65 30.25 21.8 32.4 L20.9 32.35 20.3 32.3 17.05 31.25 12.2 31.65 10.65 32.3 10.65 33.7 Q10.25 34.2 10.3 34.85 9.85 39.35 15.0 40.0 23.25 39.7 28.0 35.9 L27.95 33.85 Q30.95 36.05 30.35 38.3 L30.35 38.35 30.35 38.45 24.65 43.25 24.55 44.95 21.3 46.0 19.55 45.45 18.6 44.65 12.65 44.85 8.85 42.85 9.4 40.85 7.8 38.9 5.6 39.8 5.9 40.95 4.05 40.35 3.4 35.95 4.75 32.9 3.2 30.55 3.8 27.2 5.8 27.15 6.85 29.45 M66.25 29.7 L66.15 28.8 63.9 28.55 63.45 30.75 66.25 29.7 M57.15 35.8 L55.15 35.7 55.3 37.3 56.85 37.15 57.15 35.8 M33.4 26.6 L33.7 23.05 33.7 22.2 33.7 23.05 33.4 26.6 M9.95 14.3 Q12.1 19.0 10.15 22.4 8.7 23.65 7.4 23.3 5.9 23.65 4.6 22.2 2.85 20.65 3.65 18.5 4.2 16.5 5.75 16.6 L6.05 16.75 6.95 16.6 Q8.65 17.35 6.95 19.4 7.4 17.55 6.05 16.75 5.2 17.15 4.85 18.5 4.05 20.65 5.8 22.2 6.55 23.05 7.4 23.3 8.15 23.1 8.95 22.4 10.9 19.0 8.75 14.3 7.6 13.05 6.5 12.8 5.15 13.1 3.8 14.8 2.4 17.3 3.2 21.3 4.75 25.7 7.5 26.15 3.85 26.65 2.0 21.3 1.2 17.3 2.6 14.8 4.55 12.3 6.5 12.8 8.2 12.35 9.95 14.3 M6.75 38.15 L8.15 37.15 5.9 36.45 5.6 37.85 6.75 38.15 M19.5 42.9 L20.7 44.0 21.45 44.0 23.6 42.45 21.95 40.55 19.75 41.3 19.5 42.9" fill="#ff6633" fill-rule="evenodd" stroke="none"/>
    <path d="M66.55 24.8 Q67.65 26.3 68.4 27.85 68.95 30.55 67.75 33.5 66.5 36.6 63.95 37.95 57.9 41.0 48.95 38.05 47.2 37.35 45.65 34.85 L44.45 32.5 48.0 35.45 51.4 34.55 53.75 37.85 55.2 38.95 55.25 38.95 58.95 37.35 59.3 35.6 63.4 34.65 64.95 31.45 66.8 30.55 67.65 28.1 66.25 26.5 66.55 24.8 M61.45 24.85 Q60.9 24.2 59.85 23.7 58.15 22.9 55.75 22.85 L51.2 23.25 51.1 23.25 48.85 24.15 49.5 23.1 55.05 22.15 56.8 22.5 58.35 21.65 60.95 22.85 61.45 24.85 M20.3 32.3 Q12.15 31.75 10.65 33.7 L10.65 32.3 12.2 31.65 17.05 31.25 20.3 32.3 M30.35 38.45 Q29.75 41.7 25.75 45.55 21.85 49.2 19.05 49.7 L15.65 50.05 11.7 49.7 Q5.05 48.9 2.8 45.3 -0.4 40.15 1.25 32.9 L2.95 27.35 3.0 27.25 3.8 27.2 3.2 30.55 4.75 32.9 3.4 35.95 4.05 40.35 5.9 40.95 5.6 39.8 7.8 38.9 9.4 40.85 8.85 42.85 12.65 44.85 18.6 44.65 19.55 45.45 21.3 46.0 24.55 44.95 24.65 43.25 30.35 38.45 M57.15 35.8 L56.85 37.15 55.3 37.3 55.15 35.7 57.15 35.8 M66.25 29.7 L63.45 30.75 63.9 28.55 66.15 28.8 66.25 29.7 M19.5 42.9 L19.75 41.3 21.95 40.55 23.6 42.45 21.45 44.0 20.7 44.0 19.5 42.9 M6.75 38.15 L5.6 37.85 5.9 36.45 8.15 37.15 6.75 38.15" fill="#c9380e" fill-rule="evenodd" stroke="none"/>
    <path d="M13.85 23.45 L14.8 24.95 26.5 22.55 26.55 23.35 26.7 24.55 13.1 27.45 12.3 26.4 12.4 26.25 Q13.25 24.95 13.75 23.45 L13.85 23.45 M38.35 20.1 L52.5 17.2 52.15 17.85 51.7 18.65 51.15 19.35 38.2 22.1 38.25 21.45 38.35 20.1" fill="#a85e0b" fill-rule="evenodd" stroke="none"/>
    <path d="M32.35 2.9 L32.35 3.05 31.7 4.15 31.05 3.15 31.2 2.65 Q31.4 2.2 31.7 2.2 L32.25 2.65 32.35 2.9 M27.3 2.95 L26.1 4.6 25.8 1.35 Q26.5 1.35 27.05 2.35 L27.3 2.95" fill="#ffffff" fill-rule="evenodd" stroke="none"/>
    <path d="M32.35 3.05 L32.45 3.8 32.25 4.95 31.7 5.4 31.6 5.4 31.2 5.0 31.2 4.95 Q30.95 4.5 31.0 3.8 30.95 3.45 31.05 3.15 L31.7 4.15 32.35 3.05 M27.5 3.85 L27.55 4.75 Q27.55 6.15 27.05 7.15 26.5 8.1 25.8 8.15 L25.3 8.0 24.8 7.45 24.6 7.15 Q24.1 6.15 24.1 4.75 L24.1 4.5 Q24.15 3.25 24.6 2.35 25.1 1.35 25.8 1.35 L26.1 4.6 27.3 2.95 27.5 3.85" fill="#6a6a00" fill-rule="evenodd" stroke="none"/>
    <path d="M31.2 4.95 Q29.7 3.8 28.25 3.7 L31.05 3.15 Q30.95 3.45 31.0 3.8 30.95 4.5 31.2 4.95 M24.8 7.45 Q22.35 5.05 20.25 5.2 L24.1 4.5 24.1 4.75 Q24.1 6.15 24.6 7.15 L24.8 7.45" fill="#d98200" fill-rule="evenodd" stroke="none"/>
    <path d="M26.5 22.55 L33.6 21.25 38.35 20.1 38.25 21.45 Q36.1 20.85 33.7 22.2 30.3 21.9 26.55 23.35 L26.5 22.55 M33.7 22.2 L33.6 21.25 33.7 22.2" fill="#f03d00" fill-rule="evenodd" stroke="none"/>
    <path d="M7.1 7.55 L7.1 7.6 6.5 7.65 7.1 7.55" fill="#ffcc33" fill-rule="evenodd" stroke="none"/>
    <path d="M53.65 15.1 Q54.25 11.85 53.3 6.85 L53.3 6.7 52.8 5.35 51.7 3.25 Q49.85 0.45 47.4 0.1 L47.2 0.05 46.6 0.0 Q45.25 0.0 44.05 0.65 L32.35 2.9 32.35 3.05 32.45 3.8 32.25 4.95 31.7 5.4 31.6 5.4 31.2 5.0 31.2 4.95 Q30.95 4.5 31.0 3.8 30.95 3.45 31.05 3.15 L31.2 2.65 Q31.4 2.2 31.7 2.2 L32.25 2.65 32.35 2.9 M27.8 3.8 L27.5 3.85 27.3 2.95 27.05 2.35 Q26.5 1.35 25.8 1.35 25.1 1.35 24.6 2.35 24.15 3.25 24.1 4.5 L24.1 4.75 Q24.1 6.15 24.6 7.15 L24.8 7.45 M20.25 5.2 L7.1 7.55 6.5 7.65 7.1 7.6 Q10.6 8.1 12.4 10.8 14.5 13.95 14.5 18.5 L14.35 20.9 14.25 21.45 14.25 21.6 14.2 21.85 14.15 22.05 13.85 23.45 14.8 24.95 26.5 22.55 33.6 21.25 38.35 20.1 52.5 17.2 53.1 17.1 53.65 15.1 Q57.35 15.9 60.45 18.2 L65.0 22.95 66.55 24.8 Q67.65 26.3 68.4 27.85 68.95 30.55 67.75 33.5 66.5 36.6 63.95 37.95 57.9 41.0 48.95 38.05 47.2 37.35 45.65 34.85 L44.45 32.5 M44.35 32.2 L43.55 30.5 Q43.15 28.9 44.3 27.6 L45.2 29.65 Q49.65 31.75 55.35 31.25 59.55 30.75 61.25 28.35 62.65 26.25 61.45 24.85 60.9 24.2 59.85 23.7 58.15 22.9 55.75 22.85 L51.2 23.25 51.1 23.25 48.85 24.15 48.3 24.35 Q48.9 22.4 50.95 21.7 53.2 20.75 55.75 21.0 54.9 18.8 52.15 17.85 L51.7 18.65 51.15 19.35 50.1 20.5 48.8 21.4 38.1 23.5 37.5 25.85 Q36.2 27.7 33.2 28.4 29.95 28.55 27.45 27.15 L26.8 25.65 9.5 28.95 7.25 29.45 6.95 29.45 6.85 29.45 8.2 32.45 Q10.7 29.25 15.25 29.75 18.65 30.25 21.8 32.4 L20.9 32.35 M20.3 32.3 Q12.15 31.75 10.65 33.7 10.25 34.2 10.3 34.85 9.85 39.35 15.0 40.0 23.25 39.7 28.0 35.9 L27.95 33.85 Q30.95 36.05 30.35 38.3 L30.35 38.35 M30.35 38.45 Q29.75 41.7 25.75 45.55 21.85 49.2 19.05 49.7 L15.65 50.05 11.7 49.7 Q5.05 48.9 2.8 45.3 -0.4 40.15 1.25 32.9 L2.95 27.35 2.85 27.25 2.15 26.25 Q0.0 23.05 0.0 18.5 0.0 13.95 2.15 10.8 4.0 8.0 6.5 7.65 M52.5 17.2 L52.15 17.85 M24.1 4.5 L20.25 5.2 M26.7 24.55 L26.55 23.35 M38.25 21.45 L38.35 20.1 M38.1 23.5 L38.2 22.1 38.25 21.45 M33.7 22.2 L33.7 23.05 33.4 26.6 M13.75 23.45 Q13.25 24.95 12.4 26.25 L12.3 26.4 Q11.0 28.2 9.5 28.95 M26.7 24.55 L26.8 25.65 M13.75 23.45 L14.15 22.05 M16.15 19.8 L15.45 23.65 M3.8 27.2 L5.8 27.15 6.85 29.45 M3.8 27.2 L3.0 27.25 2.95 27.35 M2.85 27.25 L3.0 27.25" fill="none" stroke="#000000" stroke-linecap="round" stroke-linejoin="round" stroke-opacity="0.4117647" stroke-width="0.05"/>
    <path d="M27.5 3.85 L27.55 4.75 Q27.55 6.15 27.05 7.15 26.5 8.1 25.8 8.15 L25.3 8.0 24.8 7.45" fill="none" stroke="#000000" stroke-linecap="round" stroke-linejoin="round" stroke-opacity="0.42352942" stroke-width="0.05"/>
    <path d="M26.55 23.35 L26.5 22.55 M33.6 21.25 L33.7 22.2" fill="none" stroke="#000000" stroke-linecap="round" stroke-linejoin="round" stroke-width="0.05"/>
  </g>
  <defs>
    <radialGradient cx="0" cy="0" gradientTransform="matrix(0.0626, 0.0, 0.0, 0.0458, 32.2, 23.85)" gradientUnits="userSpaceOnUse" id="gradient0" r="819.2" spreadMethod="pad">
      <stop offset="0.0" stop-color="#699675"/>
      <stop offset="0.1803921568627451" stop-color="#a9c2b5"/>
      <stop offset="0.4" stop-color="#ffffff" stop-opacity="0.0"/>
    </radialGradient>
  </defs>
</svg>
