<?xml version="1.0" encoding="UTF-8" standalone="no"?>
<svg xmlns:xlink="http://www.w3.org/1999/xlink" height="305.1px" width="378.95px" xmlns="http://www.w3.org/2000/svg">
  <g transform="matrix(1.0, 0.0, 0.0, 1.0, 0.0, -0.05)">
    <path d="M344.05 235.2 Q345.0 230.8 344.05 227.35 343.1 223.9 340.8 223.4 338.5 222.85 336.2 225.6 333.9 228.35 332.9 232.75 331.95 237.1 332.9 240.55 333.8 244.0 336.1 244.5 338.4 245.0 340.75 242.3 342.0 240.75 342.9 238.75 337.9 253.75 328.65 273.25 L328.45 273.75 Q319.9 271.25 314.0 275.25 319.9 271.25 328.45 273.75 L328.8 273.4 Q352.75 296.85 378.95 302.3 370.9 307.1 360.15 303.75 350.85 294.4 331.75 286.95 L322.8 281.9 294.85 294.35 277.6 296.75 267.05 288.65 267.05 288.55 Q269.8 279.45 283.4 284.3 L287.65 286.6 Q297.6 288.1 309.65 279.65 311.55 276.9 314.0 275.25 L311.5 274.0 304.6 260.5 292.35 251.4 292.4 251.1 Q292.55 247.0 291.25 242.6 302.9 250.65 309.85 260.35 326.3 280.3 332.1 205.25 328.9 194.05 314.7 188.55 314.4 187.0 314.45 185.7 314.6 180.9 319.65 179.1 330.85 182.55 342.05 192.1 354.35 201.8 344.05 235.2 M345.95 216.1 Q347.6 212.9 347.65 208.4 347.6 203.9 345.95 200.75 344.3 197.6 341.95 197.6 339.55 197.6 337.9 200.75 336.25 203.9 336.25 208.4 336.25 212.9 337.9 216.1 339.55 219.25 341.95 219.25 344.3 219.25 345.95 216.1 M334.65 251.35 Q333.85 248.45 331.9 248.05 329.95 247.6 328.0 249.9 326.05 252.2 325.25 255.9 324.45 259.55 325.25 262.5 326.0 265.4 327.95 265.85 329.9 266.25 331.85 263.95 333.8 261.65 334.6 258.0 335.4 254.25 334.65 251.35 M82.55 249.65 Q73.5 253.55 65.45 257.45 60.65 259.75 43.9 270.7 33.2 277.65 26.0 277.7 12.2 277.8 5.4 268.6 -1.3 259.55 0.35 243.6 L31.4 263.65 Q45.95 265.0 57.35 254.65 68.7 244.3 77.15 230.15 85.0 230.0 91.15 232.8 87.4 227.95 85.45 221.45 L85.35 221.05 Q81.6 202.2 88.05 187.5 98.7 183.35 104.55 188.9 106.7 190.95 108.2 194.35 104.7 207.2 109.75 221.65 118.35 239.15 135.65 239.55 147.7 235.9 152.2 229.1 L156.3 229.25 Q159.95 228.5 163.1 226.8 164.75 221.55 167.5 216.45 162.65 221.55 155.6 222.95 L154.55 223.0 Q152.3 222.9 154.0 220.55 L158.5 212.0 159.05 204.2 159.0 204.85 168.8 202.5 169.05 203.1 167.5 209.75 Q178.65 209.35 178.15 202.3 L178.1 201.55 178.15 200.65 178.35 202.2 Q201.5 198.3 219.7 206.75 219.85 206.25 219.95 206.3 L220.05 207.15 220.05 207.2 Q218.9 214.55 229.35 215.35 L226.75 211.0 227.3 210.45 227.95 209.6 239.35 214.6 243.0 218.65 Q248.4 233.8 262.25 240.5 266.95 238.65 272.0 238.25 271.8 243.85 273.15 248.7 L273.3 249.2 249.0 248.2 Q251.65 249.6 254.4 251.5 L268.15 262.6 Q269.3 269.15 272.85 274.4 270.5 273.25 268.55 272.85 262.85 271.75 259.75 277.0 L259.6 277.25 257.1 270.05 217.3 256.35 185.0 255.4 145.45 270.7 121.0 257.1 Q124.0 255.0 122.6 249.1 L112.1 243.05 105.75 239.45 112.1 243.05 Q113.35 247.25 112.3 250.3 L90.3 244.35 82.55 249.65 M95.75 175.2 L112.85 169.15 113.4 168.95 Q125.6 163.85 120.2 151.0 118.4 147.75 116.35 145.2 116.25 141.6 117.6 139.75 119.9 136.6 126.45 138.9 L129.8 142.05 Q141.9 159.65 131.05 175.15 L114.25 181.05 Q112.15 184.25 110.6 187.6 110.55 183.55 108.7 180.9 105.25 176.0 95.75 176.05 L95.75 175.2 M111.85 140.6 Q104.9 134.95 95.85 135.7 L84.8 144.05 87.05 125.15 Q105.35 124.95 119.3 133.6 L119.25 134.0 Q114.75 134.1 113.0 136.45 111.8 138.0 111.85 140.6 M308.15 176.5 Q306.15 179.35 306.0 181.85 305.85 184.25 307.35 186.3 301.0 184.7 293.1 183.95 280.8 181.25 304.6 158.7 295.5 170.85 308.15 176.5 M158.35 214.1 L158.5 212.0 158.35 214.1 M161.9 241.2 L161.45 244.8 Q161.85 249.15 166.4 247.9 176.5 242.95 181.45 231.55 L182.05 231.8 Q182.25 239.8 185.6 245.9 188.0 250.95 193.4 247.85 201.6 242.7 203.1 235.05 202.05 243.35 210.9 249.35 216.1 252.8 219.7 248.65 225.7 241.0 222.45 236.35 L222.65 235.8 Q227.2 238.15 236.2 238.25 241.5 237.7 240.7 234.25 240.4 232.1 239.55 230.4 238.5 231.65 235.5 231.95 224.7 231.85 220.3 228.45 223.7 231.4 222.6 235.75 L222.45 236.35 Q221.55 239.05 219.0 242.35 215.4 246.5 210.2 243.05 204.9 239.45 203.15 235.05 202.0 232.05 202.4 228.75 200.9 236.4 192.7 241.55 187.3 244.65 184.9 239.6 182.95 236.0 182.05 231.8 L181.85 230.6 181.75 230.15 Q181.3 227.1 181.35 223.8 176.4 236.35 165.7 241.6 163.1 242.3 161.9 241.2 160.9 240.35 160.75 238.5 161.25 232.55 163.1 226.8 161.25 232.55 160.75 238.5 160.9 240.35 161.9 241.2 M99.15 206.9 Q99.15 202.4 97.1 199.25 95.05 196.1 92.2 196.1 89.3 196.1 87.25 199.25 85.2 202.4 85.2 206.9 85.2 211.4 87.25 214.6 89.3 217.75 92.2 217.75 95.05 217.75 97.1 214.6 99.15 211.4 99.15 206.9 M91.15 232.8 L93.4 233.8 91.15 232.8 M105.75 239.45 L106.1 237.75 Q106.5 234.1 104.75 230.0 103.0 225.85 100.15 223.65 97.3 221.4 95.05 222.35 92.75 223.3 92.35 226.9 92.0 230.15 93.4 233.8 L104.75 238.85 105.75 239.45 M141.15 259.75 L122.6 249.1 141.15 259.75 146.4 262.2 157.8 251.8 141.15 259.75 M224.15 247.45 Q235.45 241.6 248.1 247.75 L249.0 248.2 248.1 247.75 Q235.45 241.6 224.15 247.45 M6.45 259.3 Q4.9 260.8 5.45 263.6 6.0 266.4 8.35 268.85 10.7 271.3 13.5 271.95 16.25 272.6 17.8 271.1 19.4 269.55 18.85 266.8 18.3 263.95 15.95 261.55 13.6 259.1 10.8 258.45 8.0 257.75 6.45 259.3 M231.0 215.4 L229.35 215.35 231.0 215.4 M233.9 219.4 Q239.2 221.9 240.0 227.95 240.35 229.45 239.55 230.4 240.35 229.45 240.0 227.95 239.2 221.9 233.9 219.4" fill="#e3a89f" fill-rule="evenodd" stroke="none"/>
    <path d="M345.95 216.1 Q344.3 219.25 341.95 219.25 339.55 219.25 337.9 216.1 336.25 212.9 336.25 208.4 336.25 203.9 337.9 200.75 339.55 197.6 341.95 197.6 344.3 197.6 345.95 200.75 347.6 203.9 347.65 208.4 347.6 212.9 345.95 216.1 M342.9 238.75 Q342.0 240.75 340.75 242.3 338.4 245.0 336.1 244.5 333.8 244.0 332.9 240.55 331.95 237.1 332.9 232.75 333.9 228.35 336.2 225.6 338.5 222.85 340.8 223.4 343.1 223.9 344.05 227.35 345.0 230.8 344.05 235.2 L344.0 235.3 342.9 238.75 M334.65 251.35 Q335.4 254.25 334.6 258.0 333.8 261.65 331.85 263.95 329.9 266.25 327.95 265.85 326.0 265.4 325.25 262.5 324.45 259.55 325.25 255.9 326.05 252.2 328.0 249.9 329.95 247.6 331.9 248.05 333.85 248.45 334.65 251.35 M266.6 5.25 Q267.9 7.75 269.2 11.55 L269.35 12.0 Q257.3 11.35 241.85 19.1 220.6 33.5 202.6 56.25 189.8 85.05 185.6 116.2 L174.95 116.2 Q173.05 83.0 188.3 57.1 208.15 28.45 232.65 13.85 245.7 3.6 258.75 3.2 L266.6 5.25 M99.15 206.9 Q99.15 211.4 97.1 214.6 95.05 217.75 92.2 217.75 89.3 217.75 87.25 214.6 85.2 211.4 85.2 206.9 85.2 202.4 87.25 199.25 89.3 196.1 92.2 196.1 95.05 196.1 97.1 199.25 99.15 202.4 99.15 206.9 M93.4 233.8 Q92.0 230.15 92.35 226.9 92.75 223.3 95.05 222.35 97.3 221.4 100.15 223.65 103.0 225.85 104.75 230.0 106.5 234.1 106.1 237.75 L105.75 239.45 104.75 238.85 93.4 233.8 M6.45 259.3 Q8.0 257.75 10.8 258.45 13.6 259.1 15.95 261.55 18.3 263.95 18.85 266.8 19.4 269.55 17.8 271.1 16.25 272.6 13.5 271.95 10.7 271.3 8.35 268.85 6.0 266.4 5.45 263.6 4.9 260.8 6.45 259.3" fill="#edc2c0" fill-rule="evenodd" stroke="none"/>
    <path d="M328.45 273.75 L328.65 273.25 328.8 273.4 328.45 273.75 M95.05 176.05 L95.75 175.2 95.75 176.05 95.05 176.05 M119.3 133.6 L119.95 134.0 119.25 134.0 119.3 133.6 M222.6 235.75 L222.65 235.8 222.45 236.35 222.6 235.75 M182.05 231.8 L181.45 231.55 181.85 230.6 182.05 231.8" fill="#cf6c5a" fill-rule="evenodd" stroke="none"/>
    <path d="M292.35 251.4 L304.6 260.5 311.5 274.0 314.0 275.25 Q311.55 276.9 309.65 279.65 303.1 262.65 289.85 260.5 292.1 256.15 292.35 251.4 M331.75 286.95 L329.55 286.1 Q320.15 288.0 285.05 300.5 272.95 303.25 269.4 297.7 L266.35 293.85 Q266.35 290.85 267.05 288.65 L277.6 296.75 294.85 294.35 322.8 281.9 331.75 286.95 M257.9 281.3 L255.7 277.6 Q227.3 258.7 186.6 260.45 164.1 265.85 144.3 278.0 135.45 269.2 124.7 262.8 120.65 260.35 116.3 258.3 119.3 258.25 121.0 257.1 L145.45 270.7 185.0 255.4 217.3 256.35 257.1 270.05 259.6 277.25 Q258.6 278.95 257.9 281.3 M108.5 254.9 Q97.8 250.7 85.6 248.35 L82.55 249.65 90.3 244.35 112.3 250.3 112.1 250.9 Q111.05 253.25 108.5 254.9 M152.2 229.1 Q154.0 226.3 154.55 223.0 L155.6 222.95 Q162.65 221.55 167.5 216.45 164.75 221.55 163.1 226.8 159.95 228.5 156.3 229.25 L152.2 229.1 M268.15 262.6 L254.4 251.5 Q251.65 249.6 249.0 248.2 L273.3 249.2 Q275.2 255.65 279.9 260.75 L268.15 262.6 M222.65 235.8 L222.6 235.75 Q223.7 231.4 220.3 228.45 224.7 231.85 235.5 231.95 238.5 231.65 239.55 230.4 240.4 232.1 240.7 234.25 241.5 237.7 236.2 238.25 227.2 238.15 222.65 235.8" fill="#b44734" fill-rule="evenodd" stroke="none"/>
    <path d="M145.05 188.6 L144.2 184.35 158.1 175.65 167.95 92.3 Q181.5 56.3 203.9 33.55 235.55 3.75 255.3 0.55 L261.0 0.05 Q263.8 -0.2 266.6 5.25 L258.75 3.2 Q245.7 3.6 232.65 13.85 208.15 28.45 188.3 57.1 173.05 83.0 174.95 116.2 L185.6 116.2 Q189.8 85.05 202.6 56.25 220.6 33.5 241.85 19.1 257.3 11.35 269.35 12.0 L269.75 13.25 Q272.6 21.25 274.9 29.05 L266.4 26.35 261.85 30.1 265.85 47.45 Q262.85 52.55 261.35 60.0 241.95 32.5 224.95 49.5 L228.85 110.35 248.85 121.35 249.15 121.6 261.2 132.2 256.95 142.1 255.45 138.75 242.6 135.5 229.75 147.6 240.0 172.55 245.55 168.6 240.45 180.45 240.85 199.35 239.4 198.35 Q231.55 193.15 221.5 188.9 L220.0 188.35 Q204.6 183.0 184.8 182.05 L184.05 182.05 Q164.8 181.55 145.05 188.6 M218.35 53.85 Q209.05 59.65 201.85 71.75 197.1 79.5 203.0 86.3 L220.5 103.0 218.35 53.85 M210.9 123.2 L216.8 132.0 222.1 131.7 226.55 127.25 215.55 116.25 210.9 123.2 M184.7 131.85 L186.05 120.75 174.25 121.3 175.15 132.35 184.7 131.85" fill="#cf685a" fill-rule="evenodd" stroke="none"/>
    <path d="M274.9 29.05 L277.25 37.6 Q270.05 40.25 265.85 47.45 L261.85 30.1 266.4 26.35 274.9 29.05 M278.45 118.1 L248.7 196.75 254.05 213.35 251.05 214.8 249.65 206.45 Q245.7 202.7 240.85 199.35 L240.45 180.45 245.55 168.6 263.0 156.05 256.95 142.1 261.2 132.2 264.45 135.05 278.45 118.1" fill="#bb3e37" fill-rule="evenodd" stroke="none"/>
    <path d="M277.25 37.6 Q282.35 57.85 283.25 76.5 L283.4 83.75 Q283.45 98.3 280.8 111.85 L278.45 118.1 264.45 135.05 261.2 132.2 267.6 117.4 271.85 73.6 265.85 47.45 Q270.05 40.25 277.25 37.6" fill="#531a1a" fill-rule="evenodd" stroke="none"/>
    <path d="M314.45 185.7 Q314.4 187.0 314.7 188.55 311.35 187.25 307.35 186.3 305.85 184.25 306.0 181.85 L314.45 185.7 M292.4 251.1 L292.35 251.4 Q292.1 256.15 289.85 260.5 285.8 259.85 281.25 260.55 L279.9 260.75 Q275.2 255.65 273.3 249.2 L273.15 248.7 292.4 251.1 M266.35 293.85 L261.05 286.35 257.9 281.3 Q258.6 278.95 259.6 277.25 L259.75 277.0 267.05 288.55 267.05 288.65 Q266.35 290.85 266.35 293.85 M116.3 258.3 Q112.5 256.45 108.5 254.9 111.05 253.25 112.1 250.9 L121.0 257.1 Q119.3 258.25 116.3 258.3 M116.35 145.2 Q114.2 142.55 111.85 140.6 111.8 138.0 113.0 136.45 L117.6 139.75 Q116.25 141.6 116.35 145.2 M110.6 187.6 Q109.1 190.9 108.2 194.35 106.7 190.95 104.55 188.9 L108.7 180.9 Q110.55 183.55 110.6 187.6 M265.85 47.45 L271.85 73.6 267.6 117.4 261.2 132.2 249.15 121.6 248.85 121.35 228.85 110.35 224.95 49.5 Q241.95 32.5 261.35 60.0 262.85 52.55 265.85 47.45 M159.0 204.85 L160.95 197.25 166.8 195.75 Q179.3 192.95 192.7 193.75 L198.2 194.2 Q213.4 195.9 229.75 202.1 L230.1 202.2 233.05 203.35 Q236.8 204.85 240.65 206.65 L239.35 214.6 227.95 209.6 Q228.55 208.5 228.55 207.15 228.55 205.2 227.3 203.85 226.05 202.5 224.3 202.5 222.55 202.5 221.3 203.85 L219.95 206.3 Q219.85 206.25 219.7 206.75 201.5 198.3 178.35 202.2 178.05 198.45 176.7 197.05 175.3 195.6 173.3 195.6 171.3 195.6 169.85 197.05 168.5 198.5 168.45 200.6 L168.45 200.65 Q168.45 201.65 168.8 202.5 168.45 201.65 168.45 200.65 L168.9 202.45 168.8 202.5 159.0 204.85 M226.75 211.0 L229.35 215.35 Q218.9 214.55 220.05 207.2 220.05 209.1 221.3 210.45 222.55 211.8 224.3 211.8 225.65 211.8 226.75 211.0 M177.9 202.25 L178.15 202.3 Q178.65 209.35 167.5 209.75 L169.05 203.1 169.85 204.2 Q171.3 205.7 173.3 205.7 175.3 205.7 176.7 204.2 177.55 203.35 177.9 202.25" fill="#702421" fill-rule="evenodd" stroke="none"/>
    <path d="M319.65 179.1 Q314.6 180.9 314.45 185.7 L306.0 181.85 Q306.15 179.35 308.15 176.5 L310.05 177.25 Q314.85 177.6 319.65 179.1 M291.25 242.6 Q292.55 247.0 292.4 251.1 L273.15 248.7 Q271.8 243.85 272.0 238.25 279.1 237.6 286.95 239.75 L291.25 242.6 M88.05 187.5 Q90.65 181.4 95.05 176.05 L95.75 176.05 Q105.25 176.0 108.7 180.9 L104.55 188.9 Q98.7 183.35 88.05 187.5 M119.95 134.0 L120.25 134.25 Q123.5 136.3 126.45 138.9 119.9 136.6 117.6 139.75 L113.0 136.45 Q114.75 134.1 119.25 134.0 L119.95 134.0 M159.05 204.2 L159.15 202.65 159.1 202.65 146.4 195.25 145.05 188.6 Q164.8 181.55 184.05 182.05 L184.8 182.05 Q204.6 183.0 220.0 188.35 L221.5 188.9 Q231.55 193.15 239.4 198.35 L233.05 203.35 230.1 202.2 229.75 202.1 Q213.4 195.9 198.2 194.2 L192.7 193.75 Q179.3 192.95 166.8 195.75 L160.95 197.25 159.0 204.85 159.05 204.2 M218.35 53.85 L220.5 103.0 203.0 86.3 Q197.1 79.5 201.85 71.75 209.05 59.65 218.35 53.85 M210.9 123.2 L215.55 116.25 226.55 127.25 222.1 131.7 216.8 132.0 210.9 123.2 M245.55 168.6 L240.0 172.55 229.75 147.6 242.6 135.5 255.45 138.75 256.95 142.1 245.55 168.6 M160.95 197.25 L155.6 196.55 160.95 197.25 M181.45 231.55 Q176.5 242.95 166.4 247.9 161.85 249.15 161.45 244.8 L161.9 241.2 Q163.1 242.3 165.7 241.6 176.4 236.35 181.35 223.8 181.3 227.1 181.75 230.15 L181.85 230.6 181.45 231.55 M112.1 243.05 L122.6 249.1 Q124.0 255.0 121.0 257.1 L112.1 250.9 112.3 250.3 Q113.35 247.25 112.1 243.05 M259.75 277.0 Q262.85 271.75 268.55 272.85 270.5 273.25 272.85 274.4 276.7 280.15 283.4 284.3 269.8 279.45 267.05 288.55 L259.75 277.0 M182.05 231.8 Q182.95 236.0 184.9 239.6 187.3 244.65 192.7 241.55 200.9 236.4 202.4 228.75 202.0 232.05 203.15 235.05 204.9 239.45 210.2 243.05 215.4 246.5 219.0 242.35 221.55 239.05 222.45 236.35 225.7 241.0 219.7 248.65 216.1 252.8 210.9 249.35 202.05 243.35 203.1 235.05 201.6 242.7 193.4 247.85 188.0 250.95 185.6 245.9 182.25 239.8 182.05 231.8" fill="#96382c" fill-rule="evenodd" stroke="none"/>
    <path d="M168.45 200.65 L168.45 200.6 Q168.5 198.5 169.85 197.05 171.3 195.6 173.3 195.6 175.3 195.6 176.7 197.05 178.05 198.45 178.35 202.2 L178.15 200.65 178.1 201.55 177.9 202.25 Q177.55 203.35 176.7 204.2 175.3 205.7 173.3 205.7 171.3 205.7 169.85 204.2 L169.05 203.1 168.8 202.5 168.9 202.45 168.45 200.65 M219.95 206.3 L221.3 203.85 Q222.55 202.5 224.3 202.5 226.05 202.5 227.3 203.85 228.55 205.2 228.55 207.15 228.55 208.5 227.95 209.6 L227.3 210.45 226.75 211.0 Q225.65 211.8 224.3 211.8 222.55 211.8 221.3 210.45 220.05 209.1 220.05 207.2 L220.05 207.15 219.95 206.3 M174.65 196.95 Q173.3 196.95 172.35 197.8 171.4 198.7 171.4 199.9 171.4 201.1 172.35 201.95 173.3 202.85 174.65 202.85 176.0 202.85 176.95 201.95 177.9 201.1 177.9 199.9 177.9 198.7 176.95 197.8 176.0 196.95 174.65 196.95 M226.8 206.8 Q226.8 205.6 225.85 204.7 224.9 203.85 223.55 203.85 222.2 203.85 221.25 204.7 220.3 205.6 220.3 206.8 220.3 208.0 221.25 208.85 222.2 209.75 223.55 209.75 224.9 209.75 225.85 208.85 226.8 208.0 226.8 206.8" fill="#b7ffff" fill-rule="evenodd" stroke="none"/>
    <path d="M174.65 196.95 Q176.0 196.95 176.95 197.8 177.9 198.7 177.9 199.9 177.9 201.1 176.95 201.95 176.0 202.85 174.65 202.85 173.3 202.85 172.35 201.95 171.4 201.1 171.4 199.9 171.4 198.7 172.35 197.8 173.3 196.95 174.65 196.95 M226.8 206.8 Q226.8 208.0 225.85 208.85 224.9 209.75 223.55 209.75 222.2 209.75 221.25 208.85 220.3 208.0 220.3 206.8 220.3 205.6 221.25 204.7 222.2 203.85 223.55 203.85 224.9 203.85 225.85 204.7 226.8 205.6 226.8 206.8" fill="#ffffff" fill-rule="evenodd" stroke="none"/>
    <path d="M251.05 214.8 L243.0 218.65 239.35 214.6 240.65 206.65 Q236.8 204.85 233.05 203.35 L239.4 198.35 240.85 199.35 Q245.7 202.7 249.65 206.45 L251.05 214.8 M256.95 142.1 L263.0 156.05 245.55 168.6 256.95 142.1 M244.3 208.35 L240.65 206.65 244.3 208.35" fill="#792724" fill-rule="evenodd" stroke="none"/>
    <path d="M184.7 131.85 L175.15 132.35 174.25 121.3 186.05 120.75 184.7 131.85" fill="#e8b0ae" fill-rule="evenodd" stroke="none"/>
    <path d="M345.95 216.1 Q344.3 219.25 341.95 219.25 339.55 219.25 337.9 216.1 336.25 212.9 336.25 208.4 336.25 203.9 337.9 200.75 339.55 197.6 341.95 197.6 344.3 197.6 345.95 200.75 347.6 203.9 347.65 208.4 347.6 212.9 345.95 216.1 M342.9 238.75 Q342.0 240.75 340.75 242.3 338.4 245.0 336.1 244.5 333.8 244.0 332.9 240.55 331.95 237.1 332.9 232.75 333.9 228.35 336.2 225.6 338.5 222.85 340.8 223.4 343.1 223.9 344.05 227.35 345.0 230.8 344.05 235.2 M334.65 251.35 Q335.4 254.25 334.6 258.0 333.8 261.65 331.85 263.95 329.9 266.25 327.95 265.85 326.0 265.4 325.25 262.5 324.45 259.55 325.25 255.9 326.05 252.2 328.0 249.9 329.95 247.6 331.9 248.05 333.85 248.45 334.65 251.35 M93.4 233.8 Q92.0 230.15 92.35 226.9 92.75 223.3 95.05 222.35 97.3 221.4 100.15 223.65 103.0 225.85 104.75 230.0 106.5 234.1 106.1 237.75 L105.75 239.45" fill="none" stroke="#481715" stroke-linecap="round" stroke-linejoin="round" stroke-opacity="0.48235294" stroke-width="0.05"/>
    <path d="M344.05 235.2 Q354.35 201.8 342.05 192.1 330.85 182.55 319.65 179.1 314.6 180.9 314.45 185.7 314.4 187.0 314.7 188.55 328.9 194.05 332.1 205.25 326.3 280.3 309.85 260.35 302.9 250.65 291.25 242.6 292.55 247.0 292.4 251.1 L292.35 251.4 Q292.1 256.15 289.85 260.5 285.8 259.85 281.25 260.55 L279.9 260.75 268.15 262.6 254.4 251.5 Q251.65 249.6 249.0 248.2 L248.1 247.75 Q235.45 241.6 224.15 247.45 M314.0 275.25 Q319.9 271.25 328.45 273.75 L328.65 273.25 Q337.9 253.75 342.9 238.75 L344.0 235.3 344.05 235.2 M328.65 273.25 L328.8 273.4 Q352.75 296.85 378.95 302.3 370.9 307.1 360.15 303.75 L360.05 304.25 M331.75 286.95 L329.55 286.1 Q320.15 288.0 285.05 300.5 272.95 303.25 269.4 297.7 L266.35 293.85 261.05 286.35 M124.7 262.8 Q120.65 260.35 116.3 258.3 112.5 256.45 108.5 254.9 97.8 250.7 85.6 248.35 L82.55 249.65 Q73.5 253.55 65.45 257.45 60.65 259.75 43.9 270.7 33.2 277.65 26.0 277.7 12.2 277.8 5.4 268.6 -1.3 259.55 0.35 243.6 L31.4 263.65 Q45.95 265.0 57.35 254.65 68.7 244.3 77.15 230.15 85.0 230.0 91.15 232.8 87.4 227.95 85.45 221.45 L85.35 221.05 Q81.6 202.2 88.05 187.5 90.65 181.4 95.05 176.05 L95.75 175.2 112.85 169.15 113.4 168.95 Q125.6 163.85 120.2 151.0 118.4 147.75 116.35 145.2 114.2 142.55 111.85 140.6 104.9 134.95 95.85 135.7 L84.8 144.05 87.05 125.15 Q105.35 124.95 119.3 133.6 L119.95 134.0 120.25 134.25 Q123.5 136.3 126.45 138.9 L129.8 142.05 Q141.9 159.65 131.05 175.15 L114.25 181.05 Q112.15 184.25 110.6 187.6 109.1 190.9 108.2 194.35 104.7 207.2 109.75 221.65 118.35 239.15 135.65 239.55 147.7 235.9 152.2 229.1 154.0 226.3 154.55 223.0 152.3 222.9 154.0 220.55 L158.5 212.0 159.05 204.2 159.15 202.65 159.1 202.65 146.4 195.25 145.05 188.6 144.2 184.35 158.1 175.65 167.95 92.3 Q181.5 56.3 203.9 33.55 235.55 3.75 255.3 0.55 L261.0 0.05 Q263.8 -0.2 266.6 5.25 267.9 7.75 269.2 11.55 L269.35 12.0 269.75 13.25 Q272.6 21.25 274.9 29.05 L277.25 37.6 Q282.35 57.85 283.25 76.5 L283.4 83.75 Q283.45 98.3 280.8 111.85 L278.45 118.1 248.7 196.75 254.05 213.35 251.05 214.8 243.0 218.65 Q248.4 233.8 262.25 240.5 266.95 238.65 272.0 238.25 279.1 237.6 286.95 239.75 L291.25 242.6 M360.15 303.75 Q350.85 294.4 331.75 286.95 M267.05 288.65 Q266.35 290.85 266.35 293.85 M248.85 121.35 L249.15 121.6 M233.05 203.35 L230.1 202.2 229.75 202.1 Q213.4 195.9 198.2 194.2 L192.7 193.75 Q179.3 192.95 166.8 195.75 L160.95 197.25 159.0 204.85 M168.8 202.5 Q168.45 201.65 168.45 200.65 L168.45 200.6 Q168.5 198.5 169.85 197.05 171.3 195.6 173.3 195.6 175.3 195.6 176.7 197.05 178.05 198.45 178.35 202.2 L178.15 200.65 178.1 201.55 177.9 202.25 Q177.55 203.35 176.7 204.2 175.3 205.7 173.3 205.7 171.3 205.7 169.85 204.2 L169.05 203.1 M219.7 206.75 Q219.85 206.25 219.95 206.3 L221.3 203.85 Q222.55 202.5 224.3 202.5 226.05 202.5 227.3 203.85 228.55 205.2 228.55 207.15 228.55 208.5 227.95 209.6 L227.3 210.45 226.75 211.0 Q225.65 211.8 224.3 211.8 222.55 211.8 221.3 210.45 220.05 209.1 220.05 207.2 218.9 214.55 229.35 215.35 L231.0 215.4 M239.35 214.6 L240.65 206.65 Q236.8 204.85 233.05 203.35 M319.65 179.1 Q314.85 177.6 310.05 177.25 L308.15 176.5 Q306.15 179.35 306.0 181.85 305.85 184.25 307.35 186.3 301.0 184.7 293.1 183.95 280.8 181.25 304.6 158.7 295.5 170.85 308.15 176.5 M307.35 186.3 Q311.35 187.25 314.7 188.55 M119.25 134.0 L119.95 134.0 M119.25 134.0 Q114.75 134.1 113.0 136.45 111.8 138.0 111.85 140.6 M117.6 139.75 Q119.9 136.6 126.45 138.9 M116.35 145.2 Q116.25 141.6 117.6 139.75 M95.75 176.05 L95.05 176.05 M95.75 176.05 Q105.25 176.0 108.7 180.9 110.55 183.55 110.6 187.6 M104.55 188.9 Q106.7 190.95 108.2 194.35 M88.05 187.5 Q98.7 183.35 104.55 188.9 M155.6 196.55 L160.95 197.25 M158.5 212.0 L158.35 214.1 M161.9 241.2 Q160.9 240.35 160.75 238.5 161.25 232.55 163.1 226.8 164.75 221.55 167.5 216.45 162.65 221.55 155.6 222.95 L154.55 223.0 M99.15 206.9 Q99.15 211.4 97.1 214.6 95.05 217.75 92.2 217.75 89.3 217.75 87.25 214.6 85.2 211.4 85.2 206.9 85.2 202.4 87.25 199.25 89.3 196.1 92.2 196.1 95.05 196.1 97.1 199.25 99.15 202.4 99.15 206.9 M93.4 233.8 L91.15 232.8 M105.75 239.45 L112.1 243.05 122.6 249.1 141.15 259.75 157.8 251.8 146.4 262.2 141.15 259.75 M105.75 239.45 L104.75 238.85 93.4 233.8 M121.0 257.1 Q119.3 258.25 116.3 258.3 M112.3 250.3 L112.1 250.9 Q111.05 253.25 108.5 254.9 M121.0 257.1 Q124.0 255.0 122.6 249.1 M259.6 277.25 L259.75 277.0 Q262.85 271.75 268.55 272.85 270.5 273.25 272.85 274.4 269.3 269.15 268.15 262.6 M112.1 243.05 Q113.35 247.25 112.3 250.3 M6.45 259.3 Q8.0 257.75 10.8 258.45 13.6 259.1 15.95 261.55 18.3 263.95 18.85 266.8 19.4 269.55 17.8 271.1 16.25 272.6 13.5 271.95 10.7 271.3 8.35 268.85 6.0 266.4 5.45 263.6 4.9 260.8 6.45 259.3 M273.3 249.2 Q275.2 255.65 279.9 260.75 M273.15 248.7 L273.3 249.2 M257.9 281.3 Q258.6 278.95 259.6 277.25 M267.05 288.65 L267.05 288.55 Q269.8 279.45 283.4 284.3 L287.65 286.6 Q297.6 288.1 309.65 279.65 303.1 262.65 289.85 260.5 M283.4 284.3 Q276.7 280.15 272.85 274.4 M309.65 279.65 Q311.55 276.9 314.0 275.25 M272.0 238.25 Q271.8 243.85 273.15 248.7 M239.35 214.6 L243.0 218.65 M220.05 207.2 L220.05 207.15 219.95 206.3 M239.55 230.4 Q238.5 231.65 235.5 231.95 224.7 231.85 220.3 228.45 223.7 231.4 222.6 235.75 L222.45 236.35 Q221.55 239.05 219.0 242.35 215.4 246.5 210.2 243.05 204.9 239.45 203.15 235.05 202.0 232.05 202.4 228.75 200.9 236.4 192.7 241.55 187.3 244.65 184.9 239.6 182.95 236.0 182.05 231.8 L181.85 230.6 181.75 230.15 Q181.3 227.1 181.35 223.8 176.4 236.35 165.7 241.6 163.1 242.3 161.9 241.2 M239.55 230.4 Q240.35 229.45 240.0 227.95 239.2 221.9 233.9 219.4 M178.15 202.3 L178.1 201.55 M167.5 209.75 Q178.65 209.35 178.15 202.3 M240.65 206.65 L244.3 208.35" fill="none" stroke="#481715" stroke-linecap="round" stroke-linejoin="round" stroke-opacity="0.48235294" stroke-width="0.05"/>
  </g>
</svg>
