<?xml version="1.0" encoding="UTF-8" standalone="no"?>
<svg xmlns:xlink="http://www.w3.org/1999/xlink" height="182.7px" width="280.5px" xmlns="http://www.w3.org/2000/svg">
  <g transform="matrix(1.0, 0.0, 0.0, 1.0, 140.25, 91.35)">
    <path d="M79.4 -61.15 L96.1 -58.3 108.25 -51.45 108.55 -49.95 100.95 -49.1 113.35 -45.75 119.6 -45.75 127.65 -42.75 128.75 -39.7 113.0 -28.7 129.65 -37.25 136.15 -36.75 140.25 -30.8 137.95 -28.65 124.8 -25.45 128.65 -22.75 107.65 -5.65 104.75 -3.75 66.25 13.05 67.15 17.2 41.5 30.25 33.1 33.35 32.5 39.8 31.0 55.9 30.25 55.15 29.55 41.85 27.85 52.85 26.65 51.65 25.9 35.75 24.3 49.4 22.9 48.0 23.25 30.95 19.0 44.25 19.15 44.4 18.95 44.45 19.0 44.25 16.95 42.35 23.0 22.35 12.35 38.9 -17.5 44.3 -17.65 44.2 -22.25 40.4 -62.45 42.35 -62.1 43.4 -64.05 52.95 -65.25 51.8 -87.4 57.95 -120.55 56.0 -130.15 46.2 -134.8 12.3 -134.15 -2.0 -133.25 -6.2 -107.7 -33.5 -66.65 -63.65 -63.55 -65.9 -33.65 -81.75 -33.7 -81.9 7.6 -83.75 41.9 -73.6 56.45 -65.5 54.5 -63.3 59.85 -63.5 79.4 -61.15 M52.5 9.2 L29.85 -8.6 21.0 -32.25 29.15 -54.8 45.1 -62.8 23.7 -56.0 12.5 -34.25 18.95 -9.5 52.5 9.2 54.75 10.45 52.5 9.2 M56.3 11.3 L54.75 10.45 56.3 11.3 M79.05 -6.2 L76.6 -9.05 79.05 -6.2 M59.55 -46.25 L53.85 -36.8 59.75 -18.25 76.6 -9.05 65.05 -22.25 58.7 -36.9 59.55 -46.25 M73.55 -45.75 Q73.55 -42.45 76.1 -40.1 78.7 -37.75 82.35 -37.75 86.0 -37.75 88.55 -40.1 91.15 -42.45 91.15 -45.75 91.15 -49.05 88.55 -51.4 86.0 -53.75 82.35 -53.75 78.7 -53.75 76.1 -51.4 73.55 -49.05 73.55 -45.75 M100.95 -49.1 L98.6 -49.75 100.95 -49.1 M24.0 19.05 L23.0 22.35 24.0 19.05 M33.5 28.85 L33.1 33.35 33.5 28.85" fill="url(#gradient0)" fill-rule="evenodd" stroke="none"/>
    <path d="M-33.7 -81.95 L8.45 -86.8 46.5 -76.3 60.55 -65.3 79.4 -61.15 59.85 -63.5 54.5 -63.3 56.45 -65.5 41.9 -73.6 7.6 -83.75 -33.7 -81.9 -33.7 -81.95 M108.25 -51.45 L116.0 -47.1 119.6 -45.75 113.35 -45.75 100.95 -49.1 108.55 -49.95 108.25 -51.45 M128.75 -39.7 L129.65 -37.25 113.0 -28.7 128.75 -39.7 M137.95 -28.65 L131.65 -22.75 107.65 -5.65 128.65 -22.75 124.8 -25.45 137.95 -28.65 M104.75 -3.75 L67.65 20.25 49.75 31.85 43.5 35.85 33.65 39.4 32.5 39.8 33.1 33.35 41.5 30.25 67.15 17.2 66.25 13.05 104.75 -3.75 M18.95 44.45 L-7.05 53.4 -27.55 56.0 -19.6 52.4 -15.05 46.35 -17.5 44.3 12.35 38.9 23.0 22.35 16.95 42.35 19.0 44.25 18.95 44.45 M45.1 -62.8 L29.15 -54.8 21.0 -32.25 29.85 -8.6 52.5 9.2 18.95 -9.5 12.5 -34.25 23.7 -56.0 45.1 -62.8 M76.6 -9.05 L59.75 -18.25 53.85 -36.8 59.55 -46.25 58.7 -36.9 65.05 -22.25 76.6 -9.05" fill="#85996b" fill-rule="evenodd" stroke="none"/>
    <path d="M73.55 -45.75 Q73.55 -49.05 76.1 -51.4 78.7 -53.75 82.35 -53.75 86.0 -53.75 88.55 -51.4 91.15 -49.05 91.15 -45.75 91.15 -42.45 88.55 -40.1 86.0 -37.75 82.35 -37.75 78.7 -37.75 76.1 -40.1 73.55 -42.45 73.55 -45.75 M82.1 -47.45 Q81.65 -47.4 81.25 -47.15 80.1 -46.6 80.3 -45.35 80.6 -43.6 82.4 -43.8 83.55 -43.95 83.75 -45.05 84.2 -47.05 82.1 -47.45" fill="#ffffff" fill-rule="evenodd" stroke="none"/>
    <path d="M-52.15 59.35 L-54.3 61.55 -65.4 62.15 -62.35 64.9 -75.6 64.1 -60.2 59.25 -53.05 58.55 -60.2 59.25 -75.6 64.1 -80.0 65.45 -65.45 72.1 -88.9 68.9 -72.0 80.25 -92.7 74.35 -80.75 85.85 -105.05 75.6 -100.85 64.3 -125.55 60.45 -127.15 58.1 -136.25 44.85 -134.8 12.3 -130.15 46.2 -120.55 56.0 -87.4 57.95 -65.25 51.8 -64.05 52.95 -62.1 43.4 -60.6 47.7 -58.9 52.6 -58.75 53.05 -58.75 53.1 -58.65 53.4 -53.05 58.55 -52.55 59.0 -52.15 59.35 M82.1 -47.45 Q84.2 -47.05 83.75 -45.05 83.55 -43.95 82.4 -43.8 80.6 -43.6 80.3 -45.35 80.1 -46.6 81.25 -47.15 81.65 -47.4 82.1 -47.45 M-100.85 64.3 L-84.45 66.85 -80.0 65.45 -84.45 66.85 -100.85 64.3" fill="#383243" fill-rule="evenodd" stroke="none"/>
    <path d="M67.65 20.25 L71.55 23.35 71.55 27.95 65.05 25.3 69.85 31.7 68.75 33.45 59.5 29.4 65.85 37.85 63.7 41.1 53.85 32.3 59.8 49.0 57.55 54.4 52.95 50.7 49.75 31.85 67.65 20.25 M-27.55 56.0 L-46.5 64.65 -47.45 63.75 -46.3 62.1 -33.3 54.4 -51.95 59.55 -52.15 59.35 -52.55 59.0 -33.4 50.25 -58.75 53.1 -58.75 53.05 -58.9 52.6 -38.6 45.85 -60.6 47.7 -62.1 43.4 -62.45 42.35 -22.25 40.4 -17.65 44.2 -17.5 44.3 -15.05 46.35 -19.6 52.4 -27.55 56.0 M-105.05 75.6 L-109.2 86.95 -115.0 91.35 -121.95 88.35 -112.0 76.05 -125.25 86.5 -125.9 77.25 -113.2 69.45 -126.05 74.9 -126.5 67.65 -113.9 63.9 -126.75 64.35 -127.15 58.1 -125.55 60.45 -100.85 64.3 -105.05 75.6 M-134.15 -2.0 L-140.25 -10.7 -140.1 -11.25 -126.9 -19.2 -139.1 -15.2 -137.65 -21.15 -121.5 -27.05 -136.8 -24.5 -136.75 -24.75 -130.85 -30.2 -110.45 -36.3 -125.85 -34.8 -121.95 -38.35 -102.25 -42.4 -115.95 -43.7 -93.45 -59.8 -76.35 -60.55 -87.95 -63.55 -82.65 -67.3 -66.65 -63.65 -107.7 -33.5 -133.25 -6.2 -134.15 -2.0 M-63.55 -65.9 L-76.55 -73.65 -59.35 -73.8 -81.2 -80.95 -79.35 -85.65 -55.5 -78.75 -76.55 -91.2 -57.0 -86.5 -46.05 -79.4 -53.65 -88.25 -53.65 -90.85 -34.0 -81.9 -33.95 -81.9 -33.65 -81.75 -63.55 -65.9" fill="#6a7965" fill-rule="evenodd" stroke="none"/>
    <path d="M71.55 27.95 L71.55 29.1 69.85 31.7 65.05 25.3 71.55 27.95 M68.75 33.45 L65.85 37.85 59.5 29.4 68.75 33.45 M63.7 41.1 L61.95 43.75 59.8 49.0 53.85 32.3 63.7 41.1 M-47.45 63.75 L-51.95 59.55 -33.3 54.4 -46.3 62.1 -47.45 63.75 M-121.95 88.35 L-125.25 86.95 -125.25 86.5 -112.0 76.05 -121.95 88.35 M-125.9 77.25 L-126.05 74.9 -113.2 69.45 -125.9 77.25 M-126.5 67.65 L-126.75 64.35 -113.9 63.9 -126.5 67.65 M-140.1 -11.25 L-139.1 -15.2 -126.9 -19.2 -140.1 -11.25 M-137.65 -21.15 L-136.8 -24.5 -121.5 -27.05 -137.65 -21.15 M-130.85 -30.2 L-125.85 -34.8 -110.45 -36.3 -130.85 -30.2 M-121.95 -38.35 L-116.95 -43.0 -115.95 -43.7 -102.25 -42.4 -121.95 -38.35 M-93.45 -59.8 L-87.95 -63.55 -76.35 -60.55 -93.45 -59.8 M-76.55 -73.65 L-82.65 -77.3 -81.2 -80.95 -59.35 -73.8 -76.55 -73.65 M-79.35 -85.65 L-77.15 -91.35 -76.55 -91.2 -55.5 -78.75 -79.35 -85.65 M-57.0 -86.5 L-53.65 -85.7 -53.65 -88.25 -46.05 -79.4 -57.0 -86.5 M-58.9 52.6 L-60.6 47.7 -38.6 45.85 -58.9 52.6 M-53.05 58.55 L-58.65 53.4 -58.75 53.1 -33.4 50.25 -52.55 59.0 -53.05 58.55" fill="#a0b871" fill-rule="evenodd" stroke="none"/>
    <path d="M30.25 55.15 L27.85 52.85 29.55 41.85 30.25 55.15 M26.65 51.65 L24.3 49.4 25.9 35.75 26.65 51.65 M22.9 48.0 L19.15 44.4 19.0 44.25 23.25 30.95 22.9 48.0" fill="#d5e3a6" fill-rule="evenodd" stroke="none"/>
    <path d="M-54.3 61.55 L-52.15 62.9 -55.65 72.9 -66.65 84.95 -78.15 86.95 -80.75 85.85 -92.7 74.35 -72.0 80.25 -88.9 68.9 -65.45 72.1 -80.0 65.45 -75.6 64.1 -62.35 64.9 -65.4 62.15 -54.3 61.55" fill="#49535d" fill-rule="evenodd" stroke="none"/>
    <path d="M73.55 -45.75 Q73.55 -49.05 76.1 -51.4 78.7 -53.75 82.35 -53.75 86.0 -53.75 88.55 -51.4 91.15 -49.05 91.15 -45.75 91.15 -42.45 88.55 -40.1 86.0 -37.75 82.35 -37.75 78.7 -37.75 76.1 -40.1 73.55 -42.45 73.55 -45.75" fill="none" stroke="#000000" stroke-linecap="round" stroke-linejoin="round" stroke-opacity="0.5529412" stroke-width="1.0"/>
    <path d="M54.75 10.45 L56.3 11.3" fill="none" stroke="#00ff00" stroke-linecap="round" stroke-linejoin="round" stroke-width="0.05"/>
    <path d="M-33.7 -81.95 L8.45 -86.8 46.5 -76.3 60.55 -65.3 79.4 -61.15 96.1 -58.3 108.25 -51.45 116.0 -47.1 119.6 -45.75 127.65 -42.75 128.75 -39.7 129.65 -37.25 136.15 -36.75 140.25 -30.8 137.95 -28.65 131.65 -22.75 107.65 -5.65 104.75 -3.75 67.65 20.25 71.55 23.35 71.55 27.95 71.55 29.1 69.85 31.7 68.75 33.45 65.85 37.85 63.7 41.1 61.95 43.75 59.8 49.0 57.55 54.4 52.95 50.7 49.75 31.85 43.5 35.85 33.65 39.4 32.5 39.8 31.0 55.9 30.25 55.15 27.85 52.85 26.65 51.65 24.3 49.4 22.9 48.0 19.15 44.4 18.95 44.45 -7.05 53.4 -27.55 56.0 -46.5 64.65 -47.45 63.75 -51.95 59.55 -52.15 59.35 -54.3 61.55 -52.15 62.9 -55.65 72.9 -66.65 84.95 -78.15 86.95 -80.75 85.85 -105.05 75.6 -109.2 86.95 -115.0 91.35 -121.95 88.35 -125.25 86.95 -125.25 86.5 -125.9 77.25 -126.05 74.9 -126.5 67.65 -126.75 64.35 -127.15 58.1 -136.25 44.85 -134.8 12.3 -134.15 -2.0 -140.25 -10.7 -140.1 -11.25 -139.1 -15.2 -137.65 -21.15 -136.8 -24.5 -136.75 -24.75 -130.85 -30.2 -125.85 -34.8 -121.95 -38.35 -116.95 -43.0 -115.95 -43.7 -93.45 -59.8 -87.95 -63.55 -82.65 -67.3 -66.65 -63.65 -63.55 -65.9 -76.55 -73.65 -82.65 -77.3 -81.2 -80.95 -79.35 -85.65 -77.15 -91.35 -76.55 -91.2 -57.0 -86.5 -53.65 -85.7 -53.65 -88.25 -53.65 -90.85 -34.0 -81.9 -33.7 -81.95 M100.95 -49.1 L113.35 -45.75 119.6 -45.75 M98.6 -49.75 L100.95 -49.1 M33.1 33.35 L32.5 39.8 33.65 39.4 M67.65 20.25 L49.75 31.85 M23.0 22.35 L24.0 19.05 M19.0 44.25 L16.95 42.35 23.0 22.35 M-17.5 44.3 L-15.05 46.35 -19.6 52.4 -27.55 56.0 M19.0 44.25 L19.15 44.4 M33.1 33.35 L33.5 28.85 M-66.65 -63.65 L-107.7 -33.5 -133.25 -6.2 -134.15 -2.0 M-33.65 -81.75 L-33.95 -81.9 M-33.65 -81.75 L-63.55 -65.9 M-53.05 58.55 L-58.65 53.4 -58.75 53.1 M-52.55 59.0 L-52.15 59.35 M-52.55 59.0 L-53.05 58.55 -60.2 59.25 -75.6 64.1 -80.0 65.45 -84.45 66.85 -100.85 64.3 -105.05 75.6 M-100.85 64.3 L-125.55 60.45 -127.15 58.1" fill="none" stroke="#000000" stroke-linecap="round" stroke-linejoin="round" stroke-opacity="0.3019608" stroke-width="0.05"/>
    <path d="M52.5 9.2 L29.85 -8.6 21.0 -32.25 29.15 -54.8 45.1 -62.8 M52.5 9.2 L54.75 10.45 M76.6 -9.05 L79.05 -6.2 M76.6 -9.05 L65.05 -22.25 58.7 -36.9 59.55 -46.25 M113.0 -28.7 L129.65 -37.25" fill="none" stroke="#000000" stroke-linecap="round" stroke-linejoin="round" stroke-opacity="0.3019608" stroke-width="1.0"/>
    <path d="M-62.1 43.4 L-62.45 42.35 -22.25 40.4 -17.65 44.2 M-60.6 47.7 L-62.1 43.4 M-58.75 53.05 L-58.9 52.6 -60.6 47.7" fill="none" stroke="#000000" stroke-linecap="round" stroke-linejoin="round" stroke-opacity="0.3019608" stroke-width="0.05"/>
  </g>
  <defs>
    <linearGradient gradientTransform="matrix(0.083, -0.022, 0.0234, 0.0884, -51.95, 0.35)" gradientUnits="userSpaceOnUse" id="gradient0" spreadMethod="pad" x1="-819.2" x2="819.2">
      <stop offset="0.0" stop-color="#3e465b"/>
      <stop offset="1.0" stop-color="#bad678"/>
    </linearGradient>
  </defs>
</svg>
