<?xml version="1.0" encoding="UTF-8" standalone="no"?>
<svg xmlns:xlink="http://www.w3.org/1999/xlink" height="142.1px" width="65.2px" xmlns="http://www.w3.org/2000/svg">
  <g transform="matrix(1.0, 0.0, 0.0, 1.0, -160.25, -118.85)">
    <path d="M199.8 255.9 L197.15 257.25 192.75 222.85 199.8 255.9 M188.15 140.25 L184.8 124.5 Q189.1 124.3 192.6 127.85 194.3 129.5 195.8 132.05 195.45 134.45 193.65 136.45 191.75 138.6 188.15 140.25 M176.75 142.45 L174.6 142.2 Q166.0 140.7 167.7 130.5 170.2 126.75 174.1 125.2 176.45 124.25 179.3 124.15 L184.2 141.8 176.75 142.45" fill="#2b1a00" fill-rule="evenodd" stroke="none"/>
    <path d="M180.8 197.25 Q180.25 205.8 175.45 210.25 179.6 201.6 179.2 191.2 L180.05 194.3 180.8 197.25" fill="#7e5e15" fill-rule="evenodd" stroke="none"/>
    <path d="M175.45 210.25 Q172.15 210.15 171.5 206.05 176.95 194.8 175.25 177.55 L179.2 191.2 Q179.6 201.6 175.45 210.25" fill="#bba053" fill-rule="evenodd" stroke="none"/>
    <path d="M160.95 137.3 L160.8 134.65 Q160.65 132.25 161.4 130.15 L167.7 130.5 Q166.0 140.7 174.6 142.2 L171.1 147.6 168.1 146.05 Q163.55 142.85 160.95 137.3 M171.65 120.6 Q175.8 119.25 181.25 119.6 L179.3 124.15 Q176.45 124.25 174.1 125.2 L171.65 120.6" fill="#a98d43" fill-rule="evenodd" stroke="none"/>
    <path d="M184.8 124.5 L186.3 119.35 Q190.5 120.35 193.95 122.9 196.25 124.55 197.75 126.5 L192.6 127.85 Q189.1 124.3 184.8 124.5 M186.0 141.2 L188.15 140.25 Q191.75 138.6 193.65 136.45 L198.0 141.1 Q196.35 143.1 193.2 145.15 188.55 148.1 180.6 148.65 L174.75 148.5 176.75 142.45 184.2 141.8 186.0 141.2" fill="#8c6917" fill-rule="evenodd" stroke="none"/>
    <path d="M200.2 133.35 L200.25 133.6 200.2 133.35 M181.25 119.6 L186.0 141.2 184.2 141.8 179.3 124.15 181.25 119.6" fill="#6e5213" fill-rule="evenodd" stroke="none"/>
    <path d="M197.75 126.5 Q200.0 129.55 200.2 133.35 L200.25 133.6 Q200.35 136.65 199.15 139.35 L198.0 141.1 193.65 136.45 Q195.45 134.45 195.8 132.05 194.3 129.5 192.6 127.85 L197.75 126.5 M161.4 130.15 Q162.6 126.55 166.1 123.65 168.5 121.6 171.65 120.6 L174.1 125.2 Q170.2 126.75 167.7 130.5 L161.4 130.15 M171.1 147.6 L174.6 142.2 176.75 142.45 174.75 148.5 171.1 147.6" fill="url(#gradient0)" fill-rule="evenodd" stroke="none"/>
    <path d="M206.35 260.4 Q203.2 260.15 200.5 259.05 L199.8 255.9 192.75 222.85 Q189.85 203.05 184.2 189.6 181.3 169.45 171.1 147.6 L174.75 148.5 Q182.55 170.15 189.05 191.65 199.45 226.25 206.35 260.4" fill="url(#gradient1)" fill-rule="evenodd" stroke="none"/>
    <path d="M175.25 177.55 Q169.0 157.1 160.95 137.3 163.55 142.85 168.1 146.05 L171.1 147.6 Q181.3 169.45 184.2 189.6 185.45 204.75 180.05 194.3 L179.2 191.2 175.25 177.55" fill="url(#gradient2)" fill-rule="evenodd" stroke="none"/>
    <path d="M200.25 133.6 Q204.65 158.5 209.8 182.85 L209.95 183.45 Q211.55 192.5 207.8 197.95 205.35 186.9 203.3 175.85 200.1 158.45 198.0 141.1 L199.15 139.35 Q200.35 136.65 200.25 133.6" fill="url(#gradient3)" fill-rule="evenodd" stroke="none"/>
    <path d="M198.0 141.1 Q200.1 158.45 203.3 175.85 200.8 201.95 189.05 191.65 182.55 170.15 174.75 148.5 L180.6 148.65 Q188.55 148.1 193.2 145.15 196.35 143.1 198.0 141.1" fill="url(#gradient4)" fill-rule="evenodd" stroke="none"/>
    <path d="M197.15 257.25 L196.65 256.95 Q193.7 254.75 191.5 250.0 L191.45 249.6 Q187.5 222.95 180.8 197.25 L180.05 194.3 Q185.45 204.75 184.2 189.6 189.85 203.05 192.75 222.85 L197.15 257.25" fill="url(#gradient5)" fill-rule="evenodd" stroke="none"/>
    <path d="M209.95 183.45 Q216.8 215.6 224.95 246.65 L224.05 251.75 222.75 253.85 Q213.95 225.85 207.8 197.95 211.55 192.5 209.95 183.45" fill="url(#gradient6)" fill-rule="evenodd" stroke="none"/>
    <path d="M222.75 253.85 L220.45 256.25 Q215.7 260.25 208.75 260.45 L206.35 260.4 Q199.45 226.25 189.05 191.65 200.8 201.95 203.3 175.85 205.35 186.9 207.8 197.95 213.95 225.85 222.75 253.85" fill="url(#gradient7)" fill-rule="evenodd" stroke="none"/>
    <path d="M184.8 124.5 L186.3 119.35 Q190.5 120.35 193.95 122.9 196.25 124.55 197.75 126.5 200.0 129.55 200.2 133.35 L200.25 133.6 Q204.65 158.5 209.8 182.85 L209.95 183.45 Q216.8 215.6 224.95 246.65 L224.05 251.75 222.75 253.85 220.45 256.25 Q215.7 260.25 208.75 260.45 L206.35 260.4 Q203.2 260.15 200.5 259.05 L199.8 255.9 197.15 257.25 196.65 256.95 Q193.7 254.75 191.5 250.0 L191.45 249.6 Q187.5 222.95 180.8 197.25 180.25 205.8 175.45 210.25 172.15 210.15 171.5 206.05 176.95 194.8 175.25 177.55 169.0 157.1 160.95 137.3 L160.8 134.65 Q160.65 132.25 161.4 130.15 162.6 126.55 166.1 123.65 168.5 121.6 171.65 120.6 175.8 119.25 181.25 119.6 L186.0 141.2 M188.15 140.25 L184.8 124.5 M200.2 133.35 L200.25 133.6 M180.8 197.25 L180.05 194.3" fill="none" stroke="#5b3e28" stroke-linecap="round" stroke-linejoin="round" stroke-width="1.0"/>
  </g>
  <defs>
    <linearGradient gradientTransform="matrix(-0.0181, 0.004, -0.0067, -0.0172, 180.1, 133.9)" gradientUnits="userSpaceOnUse" id="gradient0" spreadMethod="pad" x1="-819.2" x2="819.2">
      <stop offset="0.0" stop-color="#95701a"/>
      <stop offset="1.0" stop-color="#bc8d21"/>
    </linearGradient>
    <linearGradient gradientTransform="matrix(-0.014, -0.0359, 0.0097, -0.0022, 188.75, 206.7)" gradientUnits="userSpaceOnUse" id="gradient1" spreadMethod="pad" x1="-819.2" x2="819.2">
      <stop offset="0.0" stop-color="#6e5213"/>
      <stop offset="1.0" stop-color="#836216"/>
    </linearGradient>
    <linearGradient gradientTransform="matrix(-0.0063, -0.0162, 0.0054, -0.0012, 176.35, 172.35)" gradientUnits="userSpaceOnUse" id="gradient2" spreadMethod="pad" x1="-819.2" x2="819.2">
      <stop offset="0.0" stop-color="#c0a361"/>
      <stop offset="1.0" stop-color="#b99f4a"/>
    </linearGradient>
    <linearGradient gradientTransform="matrix(-0.0043, -0.0267, 0.0034, 4.0E-4, 203.25, 159.4)" gradientUnits="userSpaceOnUse" id="gradient3" spreadMethod="pad" x1="-819.2" x2="819.2">
      <stop offset="0.0" stop-color="#a78537"/>
      <stop offset="1.0" stop-color="#95701a"/>
    </linearGradient>
    <linearGradient gradientTransform="matrix(-0.0082, -0.0211, 0.016, -0.0035, 193.9, 167.3)" gradientUnits="userSpaceOnUse" id="gradient4" spreadMethod="pad" x1="-819.2" x2="819.2">
      <stop offset="0.0" stop-color="#4a2d02"/>
      <stop offset="1.0" stop-color="#523402"/>
    </linearGradient>
    <linearGradient gradientTransform="matrix(-0.0025, -0.0155, 0.005, 5.0E-4, 188.55, 221.6)" gradientUnits="userSpaceOnUse" id="gradient5" spreadMethod="pad" x1="-819.2" x2="819.2">
      <stop offset="0.0" stop-color="#a78537"/>
      <stop offset="1.0" stop-color="#95701a"/>
    </linearGradient>
    <linearGradient gradientTransform="matrix(-0.0024, -0.0148, 0.0057, 6.0E-4, 214.25, 209.25)" gradientUnits="userSpaceOnUse" id="gradient6" spreadMethod="pad" x1="-819.2" x2="819.2">
      <stop offset="0.0" stop-color="#6e5213"/>
      <stop offset="1.0" stop-color="#836216"/>
    </linearGradient>
    <linearGradient gradientTransform="matrix(-0.0099, -0.0255, 0.0167, -0.0036, 208.9, 228.65)" gradientUnits="userSpaceOnUse" id="gradient7" spreadMethod="pad" x1="-819.2" x2="819.2">
      <stop offset="0.0" stop-color="#492c00"/>
      <stop offset="1.0" stop-color="#2b1a00"/>
    </linearGradient>
  </defs>
</svg>
