<?xml version="1.0" encoding="UTF-8" standalone="no"?>
<svg xmlns:xlink="http://www.w3.org/1999/xlink" height="69.6px" width="74.35px" xmlns="http://www.w3.org/2000/svg">
  <g transform="matrix(1.0, 0.0, 0.0, 1.0, 0.0, 0.0)">
    <path d="M69.65 38.65 L70.9 43.4 Q65.1 46.55 59.0 49.0 52.0 51.75 44.6 53.6 L37.4 55.1 Q36.35 54.7 35.2 55.1 L35.25 55.5 30.4 56.15 16.4 57.05 16.7 52.35 44.55 46.9 16.5 47.65 16.3 46.15 15.45 42.6 17.0 42.25 17.15 41.65 17.15 41.5 17.1 41.3 17.0 41.05 16.95 40.85 16.85 40.65 16.7 40.6 15.65 40.55 14.7 39.85 14.45 39.85 13.95 38.85 14.15 38.75 14.35 38.65 14.45 38.55 Q15.8 38.4 16.95 38.55 L19.35 38.4 Q19.85 38.5 19.95 38.1 L15.4 37.8 13.95 36.8 12.9 37.1 Q11.7 35.5 10.3 35.0 L10.5 34.85 Q23.05 35.6 35.55 34.55 48.35 33.4 61.05 30.35 65.15 31.0 67.65 34.65 L28.05 41.85 61.35 39.4 60.45 39.35 69.65 38.65 M9.95 47.7 Q10.85 49.55 10.85 52.15 10.85 54.75 9.95 56.55 9.1 58.4 7.85 58.4 6.6 58.4 5.7 56.55 4.85 54.75 4.85 52.15 4.85 49.55 5.7 47.7 6.6 45.9 7.85 45.9 9.1 45.9 9.95 47.7 M22.2 53.1 Q23.15 53.35 23.95 52.6 23.0 52.15 21.65 53.15 L22.2 53.1" fill="#ffaae3" fill-rule="evenodd" stroke="none"/>
    <path d="M67.65 34.65 L69.05 37.15 69.65 38.65 60.45 39.35 61.35 39.4 28.05 41.85 67.65 34.65 M70.9 43.4 L71.0 43.95 Q72.6 53.0 66.45 57.3 38.65 59.95 10.9 68.75 L8.55 69.25 Q5.6 68.95 3.45 64.2 1.2 59.15 1.2 52.0 1.2 47.25 2.2 43.4 2.7 41.5 3.45 39.8 5.65 34.95 8.7 34.75 L8.95 34.75 10.3 35.0 Q11.7 35.5 12.9 37.1 L13.95 38.85 14.45 39.85 14.55 40.15 15.45 42.6 16.3 46.15 16.5 47.65 44.55 46.9 16.7 52.35 16.4 57.05 30.4 56.15 35.25 55.5 37.4 55.1 44.6 53.6 Q52.0 51.75 59.0 49.0 65.1 46.55 70.9 43.4 M4.55 43.5 L4.5 43.6 Q3.0 47.1 3.0 52.05 3.0 57.0 4.5 60.5 6.05 64.0 8.2 64.0 10.35 64.0 11.85 60.5 13.4 57.0 13.4 52.05 13.4 48.3 12.5 45.35 L11.85 43.6 Q10.35 40.1 8.2 40.1 6.1 40.1 4.55 43.5 6.1 40.1 8.2 40.1 10.35 40.1 11.85 43.6 L12.5 45.35 Q13.4 48.3 13.4 52.05 13.4 57.0 11.85 60.5 10.35 64.0 8.2 64.0 6.05 64.0 4.5 60.5 3.0 57.0 3.0 52.05 3.0 47.1 4.5 43.6 L4.55 43.5 M9.95 47.7 Q9.1 45.9 7.85 45.9 6.6 45.9 5.7 47.7 4.85 49.55 4.85 52.15 4.85 54.75 5.7 56.55 6.6 58.4 7.85 58.4 9.1 58.4 9.95 56.55 10.85 54.75 10.85 52.15 10.85 49.55 9.95 47.7" fill="#990066" fill-rule="evenodd" stroke="none"/>
    <path d="M8.95 34.75 L10.5 34.85 10.3 35.0 8.95 34.75 M15.45 42.6 L14.55 40.15 14.45 39.85 14.7 39.85 15.65 40.55 16.7 40.6 16.85 40.65 16.95 40.85 17.0 41.05 17.1 41.3 17.15 41.5 17.15 41.65 17.0 42.25 15.45 42.6 M13.95 38.85 L12.9 37.1 13.95 36.8 15.4 37.8 19.95 38.1 Q19.85 38.5 19.35 38.4 L16.95 38.55 Q15.8 38.4 14.45 38.55 L14.35 38.65 14.15 38.75 13.95 38.85" fill="#fefcfb" fill-rule="evenodd" stroke="none"/>
    <path d="M37.4 55.1 L35.25 55.5 35.2 55.1 Q36.35 54.7 37.4 55.1 M22.2 53.1 L21.65 53.15 Q23.0 52.15 23.95 52.6 23.15 53.35 22.2 53.1" fill="#cab7a5" fill-rule="evenodd" stroke="none"/>
    <path d="M10.9 68.75 L8.95 69.25 8.55 69.25 10.9 68.75" fill="#164936" fill-rule="evenodd" stroke="none"/>
    <path d="M67.65 34.65 L69.05 37.15 69.65 38.65 70.9 43.4 71.0 43.95 Q72.6 53.0 66.45 57.3 38.65 59.95 10.9 68.75 L8.55 69.25 Q5.6 68.95 3.45 64.2 1.2 59.15 1.2 52.0 1.2 47.25 2.2 43.4 2.7 41.5 3.45 39.8 5.65 34.95 8.7 34.75 L8.95 34.75 10.5 34.85 Q23.05 35.6 35.55 34.55 48.35 33.4 61.05 30.35 65.15 31.0 67.65 34.65" fill="none" stroke="#220d0d" stroke-linecap="round" stroke-linejoin="round" stroke-width="0.75"/>
    <path d="M4.55 43.5 Q6.1 40.1 8.2 40.1 10.35 40.1 11.85 43.6 L12.5 45.35 Q13.4 48.3 13.4 52.05 13.4 57.0 11.85 60.5 10.35 64.0 8.2 64.0 6.05 64.0 4.5 60.5 3.0 57.0 3.0 52.05 3.0 47.1 4.5 43.6 L4.55 43.5 Z" fill="none" stroke="#ffaae3" stroke-linecap="round" stroke-linejoin="round" stroke-width="0.75"/>
    <path d="M65.45 2.15 L66.2 2.45 Q66.55 2.8 66.55 3.25 66.55 3.7 66.2 4.0 65.9 4.35 65.45 4.35 65.0 4.35 64.65 4.0 64.35 3.7 64.35 3.25 64.35 2.8 64.65 2.45 65.0 2.15 65.45 2.15 M43.4 2.05 Q43.4 2.9 42.8 3.5 42.2 4.1 41.35 4.1 40.5 4.1 39.9 3.5 39.3 2.9 39.3 2.05 39.3 1.2 39.9 0.6 40.5 0.0 41.35 0.0 42.2 0.0 42.8 0.6 43.4 1.2 43.4 2.05 M37.15 19.0 Q36.55 19.0 36.1 18.55 35.7 18.15 35.7 17.55 35.7 16.95 36.1 16.5 36.55 16.1 37.15 16.1 37.75 16.1 38.15 16.5 38.6 16.95 38.6 17.55 L38.15 18.55 Q37.75 19.0 37.15 19.0 M62.0 22.85 Q62.6 22.85 63.0 23.25 63.45 23.7 63.45 24.3 63.45 24.9 63.0 25.3 62.6 25.75 62.0 25.75 61.4 25.75 60.95 25.3 60.55 24.9 60.55 24.3 60.55 23.7 60.95 23.25 61.4 22.85 62.0 22.85 M6.25 1.85 Q6.7 2.3 6.7 2.9 6.7 3.5 6.25 3.9 5.85 4.35 5.25 4.35 4.65 4.35 4.2 3.9 3.8 3.5 3.8 2.9 3.8 2.3 4.2 1.85 4.65 1.45 5.25 1.45 5.85 1.45 6.25 1.85 M7.55 27.1 Q7.55 27.65 7.15 28.05 6.75 28.45 6.2 28.45 5.65 28.45 5.25 28.05 4.85 27.65 4.85 27.1 4.85 26.55 5.25 26.15 5.65 25.75 6.2 25.75 6.75 25.75 7.15 26.15 7.55 26.55 7.55 27.1 M18.55 11.95 Q18.25 12.3 17.8 12.3 17.35 12.3 17.0 11.95 16.7 11.65 16.7 11.2 16.7 10.75 17.0 10.4 17.35 10.1 17.8 10.1 18.25 10.1 18.55 10.4 L18.9 11.2 Q18.9 11.65 18.55 11.95 M3.55 34.45 L3.8 35.05 3.55 35.65 2.95 35.9 Q2.6 35.9 2.35 35.65 L2.1 35.05 Q2.1 34.7 2.35 34.45 2.6 34.2 2.95 34.2 L3.55 34.45 M3.05 68.4 Q2.75 68.75 2.3 68.75 1.85 68.75 1.5 68.4 1.2 68.1 1.2 67.65 1.2 67.2 1.5 66.85 1.85 66.55 2.3 66.55 2.75 66.55 3.05 66.85 3.4 67.2 3.4 67.65 L3.05 68.4 M53.75 30.2 Q53.15 30.8 52.3 30.8 51.45 30.8 50.85 30.2 50.25 29.6 50.25 28.75 50.25 27.9 50.85 27.3 51.45 26.7 52.3 26.7 53.15 26.7 53.75 27.3 54.35 27.9 54.35 28.75 54.35 29.6 53.75 30.2 M46.15 62.9 Q46.15 62.45 46.45 62.1 46.8 61.8 47.25 61.8 47.7 61.8 48.0 62.1 48.35 62.45 48.35 62.9 48.35 63.35 48.0 63.65 47.7 64.0 47.25 64.0 L46.45 63.65 Q46.15 63.35 46.15 62.9 M50.65 62.1 Q50.25 61.7 50.25 61.1 50.25 60.5 50.65 60.05 51.1 59.65 51.7 59.65 52.3 59.65 52.7 60.05 53.15 60.5 53.15 61.1 53.15 61.7 52.7 62.1 52.3 62.55 51.7 62.55 51.1 62.55 50.65 62.1 M37.0 67.3 Q36.6 67.7 36.05 67.7 35.5 67.7 35.1 67.3 34.7 66.9 34.7 66.35 34.7 65.8 35.1 65.4 35.5 65.0 36.05 65.0 36.6 65.0 37.0 65.4 37.4 65.8 37.4 66.35 37.4 66.9 37.0 67.3 M56.2 63.15 Q57.05 63.15 57.65 63.75 58.25 64.35 58.25 65.2 58.25 66.05 57.65 66.65 57.05 67.25 56.2 67.25 55.35 67.25 54.75 66.65 54.15 66.05 54.15 65.2 54.15 64.35 54.75 63.75 55.35 63.15 56.2 63.15" fill="#ffd5f3" fill-opacity="0.5019608" fill-rule="evenodd" stroke="none"/>
    <path d="M48.8 6.65 Q45.05 3.95 43.55 7.6 L43.55 7.55 Q42.85 6.65 44.4 4.6 45.9 2.5 49.8 2.5 53.6 2.5 55.1 6.5 56.55 10.45 55.15 14.25 53.7 18.05 49.45 18.25 45.2 18.5 43.5 21.2 41.8 23.9 42.9 25.6 43.95 27.25 45.7 29.15 46.55 30.05 47.95 33.45 L46.95 33.05 Q46.3 35.75 43.95 34.9 L38.4 34.6 Q37.9 29.45 36.95 26.6 36.2 24.4 37.15 22.2 37.8 20.6 39.3 19.7 41.05 18.65 43.15 18.65 46.2 18.6 48.9 17.15 51.7 15.55 51.6 12.05 51.55 8.6 48.8 6.65 M6.85 14.9 Q6.75 11.7 4.6 13.1 2.45 14.5 3.6 17.35 5.0 20.95 8.8 19.55 10.9 18.8 13.1 19.05 16.75 19.55 19.65 21.95 21.9 23.75 23.25 26.45 24.2 28.5 24.05 30.9 23.85 33.55 21.75 34.8 L21.35 35.0 21.3 35.05 20.4 35.25 14.3 35.95 14.3 35.9 Q16.4 33.25 16.45 29.9 16.5 26.25 14.15 23.6 11.15 20.25 8.3 23.1 5.7 25.55 2.6 23.1 1.25 22.0 0.65 20.35 -0.35 17.35 0.25 14.35 0.85 11.0 4.0 9.5 6.45 8.25 7.9 10.8 9.55 13.8 6.85 14.9" fill="#ffaae3" fill-opacity="0.2" fill-rule="evenodd" stroke="none"/>
    <path d="M72.95 26.85 Q70.15 34.0 63.7 37.7 57.25 41.35 52.05 46.1 46.95 50.75 45.9 60.3 45.75 61.65 41.45 62.55 L35.55 62.35 Q36.05 60.85 38.6 55.35 40.0 52.2 42.7 49.15 L46.0 45.75 Q46.2 45.4 46.55 45.2 L46.75 45.0 Q48.4 43.1 50.75 41.8 55.6 39.15 59.2 35.25 62.75 31.4 65.15 26.4 67.5 21.3 65.1 16.0 62.65 10.7 57.85 12.05 55.75 12.6 55.05 14.3 54.45 15.65 54.95 16.75 55.9 18.85 57.85 19.65 60.2 20.7 62.05 18.15 61.85 20.4 58.85 20.55 55.65 20.7 53.9 17.3 53.15 15.8 53.2 14.05 53.2 11.7 55.85 9.45 58.5 7.2 64.4 7.85 70.25 8.45 73.0 14.1 75.75 19.7 72.95 26.85" fill="#ffd9f8" fill-opacity="0.7019608" fill-rule="evenodd" stroke="none"/>
    <path d="M28.3 15.85 Q27.1 14.75 25.9 15.35 24.45 16.1 24.4 17.75 24.3 21.1 27.05 23.25 30.6 25.8 33.4 29.15 38.05 34.75 37.4 41.7 L36.95 44.35 Q34.8 53.25 26.6 56.2 L22.9 57.25 Q22.75 54.65 23.15 50.95 26.4 48.8 28.35 45.2 30.75 40.95 29.75 36.2 28.8 31.85 25.7 28.25 22.6 24.65 21.0 19.0 19.45 13.3 22.6 11.75 25.65 10.25 27.9 12.45 30.1 14.65 28.9 16.6 L28.3 15.85" fill="#ffd5fa" fill-opacity="0.7019608" fill-rule="evenodd" stroke="none"/>
    <path d="M19.05 41.2 Q20.4 39.6 22.5 39.2 24.85 38.7 25.95 40.8 26.45 41.7 26.2 42.25 26.0 42.85 25.0 43.0 23.6 43.15 23.1 42.7 L23.05 42.7 23.0 42.7 Q22.35 42.15 22.85 40.95 22.85 40.8 23.0 40.8 L23.25 40.8 23.4 40.95 23.4 41.2 Q23.1 41.9 23.3 42.25 L23.35 42.25 24.95 42.45 Q25.55 42.3 25.7 42.0 L25.45 41.05 Q24.55 39.3 22.55 39.75 20.7 40.1 19.55 41.5 18.2 43.15 16.7 43.8 L16.45 43.8 16.3 43.65 16.3 43.4 Q16.3 43.25 16.45 43.25 17.8 42.65 19.05 41.2 M57.85 31.35 Q55.8 31.1 55.2 33.05 54.55 34.95 52.9 35.7 51.1 36.5 49.05 36.15 47.75 35.95 47.5 35.3 47.2 34.7 47.95 33.7 L48.0 33.7 48.05 33.65 Q48.9 32.7 49.9 33.4 50.85 34.0 50.7 34.5 50.7 35.05 49.65 35.4 L49.6 35.4 49.45 35.35 49.3 35.2 49.3 35.15 49.3 35.0 49.45 34.85 50.15 34.45 49.6 33.9 48.45 34.0 Q47.9 34.65 48.05 35.05 48.2 35.45 49.1 35.6 51.0 35.9 52.65 35.15 54.05 34.45 54.65 32.8 55.4 30.5 57.9 30.8 L58.1 30.9 58.15 31.1 58.0 31.3 57.85 31.35 M60.8 45.85 L60.95 46.0 60.95 46.1 60.9 46.2 60.9 46.25 60.75 46.4 Q60.5 46.45 60.35 46.65 L60.35 46.7 Q60.05 47.2 60.2 47.4 L61.35 47.45 Q62.3 47.2 62.55 46.75 62.75 46.25 62.3 45.45 61.9 44.6 61.3 44.5 60.6 44.35 59.65 44.95 58.1 45.95 56.7 47.4 L56.65 47.4 Q56.0 48.1 55.7 49.0 54.8 50.95 52.5 51.35 L52.3 51.3 52.2 51.1 52.2 50.9 Q52.3 50.8 52.45 50.8 54.4 50.45 55.15 48.75 L56.25 47.15 56.25 47.1 56.35 47.05 Q57.8 45.55 59.35 44.45 60.45 43.75 61.3 43.95 62.2 44.1 62.8 45.15 63.45 46.25 63.05 47.0 62.7 47.7 61.4 48.0 L59.85 47.85 59.8 47.85 Q59.3 47.45 59.85 46.4 L59.85 46.35 Q60.1 45.95 60.55 45.85 L60.65 45.85 60.75 45.85 60.8 45.85 M40.25 42.05 Q39.85 42.25 39.95 43.1 40.1 44.95 42.15 44.85 44.05 44.7 45.2 43.3 L47.45 40.4 47.7 40.3 47.85 40.3 48.0 40.55 47.95 40.7 45.7 43.6 Q44.35 45.2 42.15 45.4 39.6 45.55 39.4 43.1 39.25 41.8 40.0 41.5 40.65 41.15 42.1 41.75 42.8 42.05 42.6 42.8 42.3 43.9 40.85 43.65 L40.6 43.5 40.6 43.35 40.7 43.1 40.9 43.1 Q41.8 43.2 42.05 42.6 L41.85 42.3 Q40.75 41.8 40.25 42.05" fill="#990066" fill-opacity="0.6" fill-rule="evenodd" stroke="none"/>
  </g>
</svg>
