<?xml version="1.0" encoding="UTF-8" standalone="no"?>
<svg xmlns:xlink="http://www.w3.org/1999/xlink" height="274.7px" width="201.1px" xmlns="http://www.w3.org/2000/svg">
  <g transform="matrix(1.0, 0.0, 0.0, 1.0, -174.4, -62.6)">
    <path d="M367.1 295.25 L362.65 301.8 342.95 312.05 314.55 316.3 325.8 319.1 314.15 321.5 287.65 318.7 295.65 326.3 254.3 315.5 255.9 325.1 235.0 295.4 239.85 306.65 227.75 296.6 218.55 256.4 218.55 275.7 210.5 245.55 210.5 237.15 215.4 243.05 210.8 214.4 218.15 223.05 220.15 213.0 227.6 218.7 230.2 262.85 233.4 251.6 247.45 295.0 243.05 258.85 237.8 245.55 247.05 251.2 240.25 233.9 240.8 216.35 246.15 220.5 250.7 252.4 252.35 233.85 262.35 265.25 274.8 273.3 264.75 258.0 284.85 267.65 262.75 235.95 260.45 224.75 264.2 228.4 Q271.45 241.3 284.75 252.15 300.0 262.2 327.15 266.25 L301.05 266.25 286.5 259.85 309.6 273.95 Q324.8 281.5 340.0 281.25 332.65 284.65 320.7 283.4 L310.9 280.85 301.05 278.25 296.05 278.25 316.75 285.3 327.05 293.2 Q312.35 295.45 297.7 288.15 L305.3 294.95 334.3 298.8 350.7 300.95 367.1 295.25" fill="#725832" fill-rule="evenodd" stroke="none"/>
    <path d="M229.05 180.8 L207.9 187.3 207.1 179.4 206.05 175.05 221.1 170.8 222.45 176.45 229.05 180.8 M207.1 179.4 L222.45 176.45 207.1 179.4" fill="#d8c4a5" fill-rule="evenodd" stroke="none"/>
    <path d="M367.1 295.25 Q372.65 286.9 373.8 276.95 377.2 288.55 373.8 297.5 359.85 315.4 339.1 326.6 L304.45 335.15 Q287.8 335.8 271.1 329.6 L281.35 337.3 Q246.5 327.9 227.45 315.9 L216.3 303.95 Q208.2 268.45 207.9 229.05 L207.9 187.3 229.05 180.8 Q253.35 199.8 265.95 214.9 258.6 209.0 246.25 204.6 259.8 216.05 262.1 224.35 L264.2 228.4 260.45 224.75 262.75 235.95 284.85 267.65 264.75 258.0 274.8 273.3 262.35 265.25 252.35 233.85 250.7 252.4 246.15 220.5 240.8 216.35 240.25 233.9 247.05 251.2 237.8 245.55 243.05 258.85 247.45 295.0 233.4 251.6 230.2 262.85 227.6 218.7 220.15 213.0 218.15 223.05 210.8 214.4 215.4 243.05 210.5 237.15 210.5 245.55 218.55 275.7 218.55 256.4 227.75 296.6 239.85 306.65 235.0 295.4 255.9 325.1 254.3 315.5 295.65 326.3 287.65 318.7 314.15 321.5 325.8 319.1 314.55 316.3 342.95 312.05 362.65 301.8 367.1 295.25 M334.3 298.8 L305.3 294.95 297.7 288.15 Q312.35 295.45 327.05 293.2 L334.3 298.8 M316.75 285.3 L296.05 278.25 301.05 278.25 310.9 280.85 316.75 285.3" fill="#574426" fill-rule="evenodd" stroke="none"/>
    <path d="M207.9 187.3 L207.9 229.05 Q208.2 268.45 216.3 303.95 L227.45 315.9 Q246.5 327.9 281.35 337.3 L271.1 329.6 Q287.8 335.8 304.45 335.15 L339.1 326.6 Q359.85 315.4 373.8 297.5 377.2 288.55 373.8 276.95 372.65 286.9 367.1 295.25 L362.65 301.8 342.95 312.05 M264.2 228.4 L262.1 224.35 Q259.8 216.05 246.25 204.6 258.6 209.0 265.95 214.9 253.35 199.8 229.05 180.8 M367.1 295.25 L350.7 300.95 334.3 298.8 305.3 294.95 M327.05 293.2 L316.75 285.3 310.9 280.85 320.7 283.4 Q332.65 284.65 340.0 281.25 324.8 281.5 309.6 273.95 L286.5 259.85 301.05 266.25 327.15 266.25 Q300.0 262.2 284.75 252.15 271.45 241.3 264.2 228.4 M301.05 278.25 L310.9 280.85 M334.3 298.8 L327.05 293.2" fill="none" stroke="#000000" stroke-linecap="round" stroke-linejoin="round" stroke-opacity="0.4" stroke-width="0.05"/>
    <path d="M229.05 180.8 L207.9 187.3 207.1 179.4 206.05 175.05 221.1 170.8 222.45 176.45 229.05 180.8 M222.45 176.45 L207.1 179.4" fill="none" stroke="#000000" stroke-linecap="round" stroke-linejoin="round" stroke-opacity="0.4" stroke-width="0.05"/>
    <path d="M210.75 120.55 L211.65 117.55 209.05 113.25 226.6 115.4 227.05 120.1 227.05 125.25 210.75 120.55 M211.65 117.55 L227.05 120.1 211.65 117.55" fill="#d8c4a5" fill-rule="evenodd" stroke="none"/>
    <path d="M239.6 192.6 Q236.25 190.85 231.75 189.85 L233.9 199.3 Q221.05 192.65 210.75 178.3 L210.75 183.85 Q202.45 178.7 200.95 170.2 L193.25 178.75 Q200.4 163.7 201.35 147.05 L193.65 153.05 Q197.9 148.1 201.05 142.35 204.3 136.35 206.35 129.4 L211.85 132.7 210.5 148.7 205.65 141.05 208.05 162.35 202.85 156.75 208.05 172.8 210.9 165.55 219.3 178.85 219.3 169.6 227.35 188.45 227.35 178.85 239.6 192.6" fill="#725832" fill-rule="evenodd" stroke="none"/>
    <path d="M239.6 192.6 L227.35 178.85 227.35 188.45 219.3 169.6 219.3 178.85 210.9 165.55 208.05 172.8 202.85 156.75 208.05 162.35 205.65 141.05 210.5 148.7 211.85 132.7 206.35 129.4 206.9 127.4 200.05 129.95 210.75 120.55 227.05 125.25 Q227.9 132.2 235.6 139.2 L237.3 140.65 231.3 140.65 233.4 142.35 238.85 147.35 Q247.15 155.7 251.0 165.05 L244.15 160.35 Q253.1 175.55 254.4 187.75 249.45 183.7 237.3 182.6 242.45 190.65 243.35 195.0 L239.6 192.6" fill="#574426" fill-rule="evenodd" stroke="none"/>
    <path d="M206.35 129.4 Q204.3 136.35 201.05 142.35 197.9 148.1 193.65 153.05 L201.35 147.05 Q200.4 163.7 193.25 178.75 L200.95 170.2 Q202.45 178.7 210.75 183.85 L210.75 178.3 Q221.05 192.65 233.9 199.3 L231.75 189.85 Q236.25 190.85 239.6 192.6 L243.35 195.0 Q242.45 190.65 237.3 182.6 249.45 183.7 254.4 187.75 253.1 175.55 244.15 160.35 L251.0 165.05 Q247.15 155.7 238.85 147.35 L233.4 142.35 231.3 140.65 237.3 140.65 235.6 139.2 Q227.9 132.2 227.05 125.25 L227.05 120.1 211.65 117.55 209.05 113.25 226.6 115.4 227.05 120.1 M206.35 129.4 L206.9 127.4 200.05 129.95 210.75 120.55 211.65 117.55 M210.75 120.55 L227.05 125.25" fill="none" stroke="#000000" stroke-linecap="round" stroke-linejoin="round" stroke-opacity="0.4" stroke-width="0.05"/>
    <path d="M196.3 107.4 Q193.25 99.1 183.35 91.7 L183.35 98.1 Q182.8 90.65 177.8 83.15 L177.8 85.7 174.4 90.85 Q176.95 84.45 174.4 75.45 L183.35 67.3 185.95 72.0 Q191.5 68.9 196.2 62.6 L196.2 67.3 Q205.2 66.95 209.45 63.45 L207.35 69.0 Q220.95 65.6 240.7 66.9 L229.15 71.6 239.85 78.0 236.45 78.0 246.2 88.5 254.4 103.7 252.7 102.85 245.35 89.7 Q238.9 84.45 226.7 81.1 229.45 79.55 232.15 77.95 L223.55 77.95 226.1 71.65 Q220.15 76.7 210.35 77.95 L212.65 73.05 Q205.3 79.05 193.4 79.35 L193.4 73.65 Q192.45 79.15 186.55 81.65 L187.95 76.8 Q182.85 79.75 178.75 76.8 L185.65 86.25 180.8 83.1 192.25 95.7 Q191.75 91.6 189.7 85.1 196.05 92.3 196.0 99.45 L199.75 91.7 Q201.25 101.2 196.3 107.4 M246.7 101.25 Q249.5 107.8 248.95 113.55 247.7 105.85 240.15 94.85 L245.35 99.95 246.7 101.25 M202.2 108.4 L204.6 98.9 207.9 114.55 Q205.4 110.85 202.2 108.4" fill="#725832" fill-rule="evenodd" stroke="none"/>
    <path d="M245.85 99.4 L246.7 101.25 245.35 99.95 245.85 99.4" fill="#645c44" fill-rule="evenodd" stroke="none"/>
    <path d="M252.7 102.85 L245.85 99.4 245.35 99.95 240.15 94.85 Q247.7 105.85 248.95 113.55 L248.4 116.5 245.0 110.1 Q242.1 122.5 236.0 128.5 L236.0 120.35 229.15 129.8 Q230.4 124.45 227.0 119.1 L224.0 126.8 Q222.75 119.7 211.2 114.4 L211.2 120.6 Q209.75 117.25 207.9 114.55 L204.6 98.9 202.2 108.4 197.5 112.65 Q197.25 110.0 196.3 107.4 201.25 101.2 199.75 91.7 L196.0 99.45 Q196.05 92.3 189.7 85.1 191.75 91.6 192.25 95.7 L180.8 83.1 185.65 86.25 178.75 76.8 Q182.85 79.75 187.95 76.8 L186.55 81.65 Q192.45 79.15 193.4 73.65 L193.4 79.35 Q205.3 79.05 212.65 73.05 L210.35 77.95 Q220.15 76.7 226.1 71.65 L223.55 77.95 232.15 77.95 Q229.45 79.55 226.7 81.1 238.9 84.45 245.35 89.7 L252.7 102.85" fill="#574426" fill-rule="evenodd" stroke="none"/>
    <path d="M196.3 107.4 Q193.25 99.1 183.35 91.7 L183.35 98.1 Q182.8 90.65 177.8 83.15 L177.8 85.7 174.4 90.85 Q176.95 84.45 174.4 75.45 L183.35 67.3 185.95 72.0 Q191.5 68.9 196.2 62.6 L196.2 67.3 Q205.2 66.95 209.45 63.45 L207.35 69.0 Q220.95 65.6 240.7 66.9 L229.15 71.6 239.85 78.0 236.45 78.0 246.2 88.5 254.4 103.7 252.7 102.85 245.85 99.4 246.7 101.25 Q249.5 107.8 248.95 113.55 L248.4 116.5 245.0 110.1 Q242.1 122.5 236.0 128.5 L236.0 120.35 229.15 129.8 Q230.4 124.45 227.0 119.1 L224.0 126.8 Q222.75 119.7 211.2 114.4 L211.2 120.6 211.2 121.2 M196.3 107.4 Q197.25 110.0 197.5 112.65 L202.2 108.4 Q205.4 110.85 207.9 114.55 209.75 117.25 211.2 120.6" fill="none" stroke="#000000" stroke-linecap="round" stroke-linejoin="round" stroke-opacity="0.4" stroke-width="0.05"/>
  </g>
</svg>
