<?xml version="1.0" encoding="UTF-8" standalone="no"?>
<svg xmlns:xlink="http://www.w3.org/1999/xlink" height="18.45px" width="32.3px" xmlns="http://www.w3.org/2000/svg">
  <g transform="matrix(1.0, 0.0, 0.0, 1.0, -313.25, -233.05)">
    <path d="M318.4 233.85 Q317.05 234.0 316.1 235.05 315.3 235.95 315.0 237.3 L315.05 238.4 Q315.25 239.0 316.0 239.2 L316.5 239.2 317.1 238.95 317.4 238.4 317.4 238.0 317.2 237.6 316.95 237.4 316.75 237.4 316.6 237.4 316.55 237.45 316.25 237.85 316.4 238.25 Q315.95 238.2 315.9 237.65 L316.2 237.1 316.55 236.85 Q317.0 236.65 317.55 237.2 318.2 237.7 318.15 238.75 L318.45 238.25 318.7 237.8 Q319.25 236.7 319.15 235.6 319.15 234.35 318.4 233.85 M318.0 235.0 L318.1 235.05 Q318.65 235.6 318.55 235.8 L318.45 236.25 318.25 236.55 318.05 236.8 Q317.25 236.9 316.85 236.35 L316.65 236.1 316.6 235.85 316.75 235.5 Q317.15 234.75 318.0 235.0" fill="#ffcc00" fill-rule="evenodd" stroke="none"/>
    <path d="M318.15 238.75 Q318.2 237.7 317.55 237.2 317.0 236.65 316.55 236.85 L316.2 237.1 315.9 237.65 Q315.95 238.2 316.4 238.25 L316.25 237.85 316.55 237.45 316.6 237.4 316.75 237.4 316.95 237.4 317.2 237.6 317.4 238.0 317.4 238.4 317.1 238.95 316.5 239.2 316.0 239.2 Q315.25 239.0 315.05 238.4 L315.0 237.3 Q315.3 235.95 316.1 235.05 317.05 234.0 318.4 233.85 L317.35 233.55 Q316.5 233.5 315.85 234.05 315.2 234.55 314.7 235.3 L314.45 235.75 313.9 237.1 Q313.7 238.0 313.8 239.0 L313.85 239.15 314.35 240.1 315.1 240.4 Q315.95 240.7 316.7 240.15 L318.15 238.75" fill="#ff9900" fill-rule="evenodd" stroke="none"/>
    <path d="M318.0 235.0 Q317.15 234.75 316.75 235.5 L316.6 235.85 316.65 236.1 316.85 236.35 Q317.25 236.9 318.05 236.8 L318.25 236.55 318.45 236.25 318.55 235.8 Q318.65 235.6 318.1 235.05 L318.0 235.0" fill="#ffff00" fill-rule="evenodd" stroke="none"/>
    <path d="M318.4 233.85 Q319.15 234.35 319.15 235.6 319.25 236.7 318.7 237.8 L318.45 238.25 318.15 238.75 316.7 240.15 Q315.95 240.7 315.1 240.4 L314.35 240.1 313.85 239.15 313.8 239.0 Q313.7 238.0 313.9 237.1 L314.45 235.75 314.7 235.3 Q315.2 234.55 315.85 234.05 316.5 233.5 317.35 233.55 L318.4 233.85 Z" fill="none" stroke="#000000" stroke-linecap="round" stroke-linejoin="round" stroke-opacity="0.6" stroke-width="1.0"/>
    <path d="M340.9 238.7 Q340.75 238.5 340.75 238.2 L340.65 237.65 Q340.45 236.5 340.75 235.5 341.1 234.35 341.85 234.1 343.0 234.75 343.6 236.0 344.15 237.1 344.1 238.4 L343.75 239.45 Q343.5 239.9 342.7 239.85 L342.3 239.7 341.8 239.25 341.7 238.65 341.75 238.3 Q341.8 238.1 342.0 238.0 L342.3 237.9 342.5 237.9 342.6 238.0 342.7 238.05 342.8 238.5 342.65 238.9 Q343.0 239.0 343.2 238.45 L343.05 237.85 342.8 237.55 341.8 237.5 Q341.15 237.75 340.9 238.7 M341.9 235.35 L341.85 235.35 Q341.2 235.6 341.25 235.85 L341.2 236.35 341.3 236.65 341.5 237.0 342.65 236.9 342.95 236.85 343.0 236.6 342.95 236.15 Q342.8 235.4 341.9 235.35" fill="#ffcc00" fill-rule="evenodd" stroke="none"/>
    <path d="M341.85 234.1 L342.85 234.2 Q343.65 234.45 344.1 235.2 L344.85 236.75 344.95 237.2 345.05 238.65 Q345.1 239.55 344.75 240.4 L344.7 240.5 343.95 241.25 343.25 241.25 Q342.4 241.25 341.85 240.5 341.2 239.7 340.9 238.7 341.15 237.75 341.8 237.5 L342.8 237.55 343.05 237.85 343.2 238.45 Q343.0 239.0 342.65 238.9 L342.8 238.5 342.7 238.05 342.6 238.0 342.5 237.9 342.3 237.9 342.0 238.0 Q341.8 238.1 341.75 238.3 L341.7 238.65 341.8 239.25 342.3 239.7 342.7 239.85 Q343.5 239.9 343.75 239.45 L344.1 238.4 Q344.15 237.1 343.6 236.0 343.0 234.75 341.85 234.1" fill="#ff9900" fill-rule="evenodd" stroke="none"/>
    <path d="M341.9 235.35 Q342.8 235.4 342.95 236.15 L343.0 236.6 342.95 236.85 342.65 236.9 341.5 237.0 341.3 236.65 341.2 236.35 341.25 235.85 Q341.2 235.6 341.85 235.35 L341.9 235.35" fill="#ffff00" fill-rule="evenodd" stroke="none"/>
    <path d="M341.85 234.1 L342.85 234.2 Q343.65 234.45 344.1 235.2 L344.85 236.75 344.95 237.2 345.05 238.65 Q345.1 239.55 344.75 240.4 L344.7 240.5 343.95 241.25 343.25 241.25 Q342.4 241.25 341.85 240.5 341.2 239.7 340.9 238.7 340.75 238.5 340.75 238.2 L340.65 237.65 Q340.45 236.5 340.75 235.5 341.1 234.35 341.85 234.1 Z" fill="none" stroke="#000000" stroke-linecap="round" stroke-linejoin="round" stroke-opacity="0.6" stroke-width="1.0"/>
    <path d="M319.75 245.2 L319.95 244.4 320.2 243.6 Q320.85 241.85 322.05 240.7 323.35 239.45 324.6 239.7 325.7 241.45 325.55 243.6 325.4 245.55 324.3 247.25 L323.1 248.4 Q322.35 248.8 321.4 248.15 L320.9 247.6 320.6 246.65 320.9 245.7 321.25 245.3 Q321.5 245.1 321.85 245.1 L322.3 245.2 322.55 245.35 322.65 245.55 322.7 245.7 322.55 246.4 322.0 246.75 323.1 246.65 323.4 245.7 323.25 245.1 Q323.05 244.3 321.95 244.25 320.85 244.1 319.75 245.2 M323.75 241.45 L323.6 241.35 Q322.55 241.25 322.45 241.6 L322.05 242.25 321.95 242.75 321.9 243.35 Q322.55 244.3 323.5 244.15 L323.95 244.2 324.25 243.9 324.5 243.3 Q324.85 242.15 323.75 241.45" fill="#ffcc00" fill-rule="evenodd" stroke="none"/>
    <path d="M324.6 239.7 Q325.4 239.95 325.9 240.6 326.75 241.55 326.85 242.9 326.95 244.2 326.65 245.5 L326.4 246.25 325.55 248.3 323.7 250.45 323.5 250.55 Q322.75 251.0 322.05 251.0 L321.05 250.5 Q319.9 249.85 319.7 248.4 319.45 246.8 319.75 245.2 320.85 244.1 321.95 244.25 323.05 244.3 323.25 245.1 L323.4 245.7 323.1 246.65 322.0 246.75 322.55 246.4 322.7 245.7 322.65 245.55 322.55 245.35 322.3 245.2 321.85 245.1 Q321.5 245.1 321.25 245.3 L320.9 245.7 320.6 246.65 320.9 247.6 321.4 248.15 Q322.35 248.8 323.1 248.4 L324.3 247.25 Q325.4 245.55 325.55 243.6 325.7 241.45 324.6 239.7" fill="#ff9900" fill-rule="evenodd" stroke="none"/>
    <path d="M323.75 241.45 Q324.85 242.15 324.5 243.3 L324.25 243.9 323.95 244.2 323.5 244.15 Q322.55 244.3 321.9 243.35 L321.95 242.75 322.05 242.25 322.45 241.6 Q322.55 241.25 323.6 241.35 L323.75 241.45" fill="#ffff00" fill-rule="evenodd" stroke="none"/>
    <path d="M324.6 239.7 Q325.4 239.95 325.9 240.6 326.75 241.55 326.85 242.9 326.95 244.2 326.65 245.5 L326.4 246.25 325.55 248.3 323.7 250.45 323.5 250.55 Q322.75 251.0 322.05 251.0 L321.05 250.5 Q319.9 249.85 319.7 248.4 319.45 246.8 319.75 245.2 L319.95 244.4 320.2 243.6 Q320.85 241.85 322.05 240.7 323.35 239.45 324.6 239.7 Z" fill="none" stroke="#000000" stroke-linecap="round" stroke-linejoin="round" stroke-opacity="0.6" stroke-width="1.0"/>
  </g>
</svg>
