<?xml version="1.0" encoding="UTF-8" standalone="no"?>
<svg xmlns:xlink="http://www.w3.org/1999/xlink" height="73.85px" width="126.45px" xmlns="http://www.w3.org/2000/svg">
  <g transform="matrix(1.0, 0.0, 0.0, 1.0, -251.4, -93.85)">
    <path d="M361.95 166.25 L359.15 165.25 355.1 163.8 347.5 161.1 341.25 158.75 Q338.45 157.75 335.6 156.3 L334.85 155.95 Q331.55 154.25 329.6 150.7 327.55 147.05 330.15 144.85 L328.05 144.75 Q326.1 147.7 326.2 150.9 325.8 156.0 328.2 160.8 329.2 162.8 330.55 164.55 331.35 165.75 332.8 166.8 L335.7 167.2 336.35 167.15 336.85 167.15 337.9 167.1 338.65 167.05 357.65 166.45 358.15 166.45 358.2 166.4 361.95 166.25 M332.6 164.0 L346.85 164.15 358.15 166.45 346.85 164.15 332.6 164.0 M329.75 155.75 L335.6 156.3 329.75 155.75" fill="#484848" fill-rule="evenodd" stroke="none"/>
    <path d="M357.65 166.45 L358.15 166.45 357.65 166.45" fill="#a88e2d" fill-rule="evenodd" stroke="none"/>
    <path d="M335.6 156.3 Q338.45 157.75 341.25 158.75 L347.5 161.1 355.1 163.8 359.15 165.25 361.95 166.25 362.3 166.3 377.35 165.75 375.85 163.65 Q373.25 160.45 367.95 157.05 360.75 152.45 352.2 149.2 349.0 147.9 339.8 146.3 L330.15 144.85 Q327.55 147.05 329.6 150.7 331.55 154.25 334.85 155.95 L335.6 156.3 338.85 156.65 339.6 157.1 351.7 158.3 339.6 157.1 338.85 156.65 335.6 156.3 M373.3 162.1 L374.15 163.15 374.4 163.6 350.15 154.45 358.95 155.55 355.55 153.65 352.35 151.85 347.9 149.4 Q348.35 148.95 354.55 151.25 360.75 153.55 367.2 157.6 371.75 160.55 373.3 162.1 L375.85 163.65 373.3 162.1 M339.5 148.1 Q345.8 149.8 352.35 151.85 345.8 149.8 339.5 148.1 M346.85 156.05 Q342.0 155.0 338.85 156.65 342.0 155.0 346.85 156.05 M352.55 153.25 L355.55 153.65 352.55 153.25" fill="#626262" fill-rule="evenodd" stroke="none"/>
    <path d="M355.55 153.65 L358.95 155.55 350.15 154.45 374.4 163.6 374.15 163.15 373.3 162.1 Q368.5 159.2 364.9 157.7 360.35 155.95 359.85 154.25 L355.55 153.65 359.85 154.25 Q360.35 155.95 364.9 157.7 368.5 159.2 373.3 162.1 371.75 160.55 367.2 157.6 360.75 153.55 354.55 151.25 348.35 148.95 347.9 149.4 L352.35 151.85 355.55 153.65 M359.85 154.25 L352.35 151.85 359.85 154.25" fill="#b3b3b3" fill-rule="evenodd" stroke="none"/>
    <path d="M336.75 167.15 L337.9 167.1 336.85 167.15 336.75 167.15" fill="#fed370" fill-rule="evenodd" stroke="none"/>
    <path d="M330.1 144.4 L330.55 144.55 330.6 144.5 330.1 144.4" fill="#000000" fill-opacity="0.2" fill-rule="evenodd" stroke="none"/>
    <path d="M335.6 156.3 L338.85 156.65 339.6 157.1 351.7 158.3 M358.15 166.45 L346.85 164.15 332.6 164.0 M373.3 162.1 L375.85 163.65 M355.55 153.65 L359.85 154.25 Q360.35 155.95 364.9 157.7 368.5 159.2 373.3 162.1 M352.35 151.85 Q345.8 149.8 339.5 148.1 M355.55 153.65 L352.55 153.25 M338.85 156.65 Q342.0 155.0 346.85 156.05 M335.6 156.3 L329.75 155.75 M352.35 151.85 L359.85 154.25" fill="none" stroke="#000000" stroke-linecap="round" stroke-linejoin="round" stroke-opacity="0.3019608" stroke-width="0.05"/>
    <path d="M358.2 166.4 L358.15 166.45 358.2 166.4 361.95 166.25 362.3 166.3 377.35 165.75 375.85 163.65 Q373.25 160.45 367.95 157.05 360.75 152.45 352.2 149.2 349.0 147.9 339.8 146.3 L330.15 144.85 328.05 144.75 Q326.1 147.7 326.2 150.9 325.8 156.0 328.2 160.8 329.2 162.8 330.55 164.55 331.35 165.75 332.8 166.8 L335.7 167.2 336.35 167.15 336.75 167.15 337.9 167.1 338.65 167.05 357.65 166.45 358.15 166.45 M336.85 167.15 L336.75 167.15" fill="none" stroke="#484848" stroke-linecap="round" stroke-linejoin="round" stroke-width="1.0"/>
    <path d="M264.4 105.45 L265.75 108.3 267.7 112.45 271.35 120.15 274.25 126.6 276.65 132.65 276.95 133.5 Q278.15 137.25 276.95 141.35 275.8 145.65 272.2 145.3 L273.7 146.95 Q277.35 146.2 279.7 143.75 283.75 140.25 285.55 134.85 286.35 132.6 286.65 130.25 286.95 128.8 286.65 126.9 L284.75 124.45 284.2 123.95 283.85 123.65 283.0 122.85 282.45 122.3 267.75 108.6 267.35 108.2 264.4 105.45 M284.65 129.15 L274.15 118.35 267.35 108.2 274.15 118.35 284.65 129.15 M280.6 137.5 L276.65 132.65 280.6 137.5" fill="#484848" fill-rule="evenodd" stroke="none"/>
    <path d="M267.75 108.6 L267.35 108.2 267.75 108.6" fill="#a88e2d" fill-rule="evenodd" stroke="none"/>
    <path d="M276.65 132.65 L274.25 126.6 271.35 120.15 267.7 112.45 265.75 108.3 264.4 105.45 264.15 105.2 252.5 94.35 252.0 97.05 Q251.55 101.35 253.05 107.9 255.0 116.75 258.9 125.55 260.35 128.9 266.05 136.95 L272.2 145.3 Q275.8 145.65 276.95 141.35 278.15 137.25 276.95 133.5 L276.65 132.65 274.5 129.95 274.3 129.1 266.1 119.15 274.3 129.1 274.5 129.95 276.65 132.65 M252.75 100.1 L252.95 98.7 253.15 98.15 264.4 123.15 258.65 115.7 259.75 119.7 260.8 123.45 262.3 128.6 Q261.65 128.65 258.75 122.25 255.8 115.9 254.0 108.0 252.8 102.45 252.75 100.1 L252.0 97.05 252.75 100.1 M267.6 135.85 L260.8 123.45 267.6 135.85 M268.1 124.4 Q270.9 128.8 274.5 129.95 270.9 128.8 268.1 124.4 M261.7 122.25 L259.75 119.7 261.7 122.25" fill="#626262" fill-rule="evenodd" stroke="none"/>
    <path d="M259.75 119.7 L258.65 115.7 264.4 123.15 253.15 98.15 252.95 98.7 252.75 100.1 Q254.2 105.9 255.8 109.65 257.85 114.35 257.0 116.05 L259.75 119.7 257.0 116.05 Q257.85 114.35 255.8 109.65 254.2 105.9 252.75 100.1 252.8 102.45 254.0 108.0 255.8 115.9 258.75 122.25 261.65 128.65 262.3 128.6 L260.8 123.45 259.75 119.7 M257.0 116.05 L260.8 123.45 257.0 116.05" fill="#b3b3b3" fill-rule="evenodd" stroke="none"/>
    <path d="M283.9 123.65 L283.05 122.85 283.0 122.85 283.85 123.65 283.9 123.65" fill="#fed370" fill-rule="evenodd" stroke="none"/>
    <path d="M271.85 145.7 L271.65 145.25 271.6 145.25 271.85 145.7" fill="#000000" fill-opacity="0.2" fill-rule="evenodd" stroke="none"/>
    <path d="M276.65 132.65 L274.5 129.95 274.3 129.1 266.1 119.15 M267.35 108.2 L274.15 118.35 284.65 129.15 M252.75 100.1 L252.0 97.05 M259.75 119.7 L257.0 116.05 Q257.85 114.35 255.8 109.65 254.2 105.9 252.75 100.1 M260.8 123.45 L267.6 135.85 M259.75 119.7 L261.7 122.25 M274.5 129.95 Q270.9 128.8 268.1 124.4 M276.65 132.65 L280.6 137.5 M260.8 123.45 L257.0 116.05" fill="none" stroke="#000000" stroke-linecap="round" stroke-linejoin="round" stroke-opacity="0.3019608" stroke-width="0.05"/>
    <path d="M267.35 108.2 L264.4 105.45 264.15 105.2 252.5 94.35 252.0 97.05 Q251.55 101.35 253.05 107.9 255.0 116.75 258.9 125.55 260.35 128.9 266.05 136.95 L272.2 145.3 273.7 146.95 Q277.35 146.2 279.7 143.75 283.75 140.25 285.55 134.85 286.35 132.6 286.65 130.25 286.95 128.8 286.65 126.9 L284.75 124.45 284.2 123.95 283.9 123.65 283.05 122.85 282.45 122.3 267.75 108.6 267.35 108.2 M283.0 122.85 L283.05 122.85 M283.85 123.65 L283.9 123.65" fill="none" stroke="#484848" stroke-linecap="round" stroke-linejoin="round" stroke-width="1.0"/>
  </g>
</svg>
