<?xml version="1.0" encoding="UTF-8" standalone="no"?>
<svg xmlns:xlink="http://www.w3.org/1999/xlink" height="93.2px" width="35.4px" xmlns="http://www.w3.org/2000/svg">
  <g transform="matrix(1.0, 0.0, 0.0, 1.0, -257.25, -153.85)">
    <path d="M270.0 204.05 Q268.45 203.85 268.55 202.05 268.8 197.9 270.15 197.85 271.5 198.5 271.05 199.15 L270.85 199.1 Q270.25 199.1 269.85 199.9 269.45 200.75 269.45 201.85 269.45 203.0 269.85 203.8 L270.0 204.05" fill="#846431" fill-rule="evenodd" stroke="none"/>
    <path d="M282.85 182.15 Q286.2 183.85 289.7 185.25 293.7 222.7 284.6 247.05 L284.85 239.85 Q290.5 227.65 289.55 196.6 287.0 189.1 283.3 186.95 L282.85 182.15" fill="url(#gradient0)" fill-rule="evenodd" stroke="none"/>
    <path d="M275.35 177.85 L282.85 182.15 283.3 186.95 Q284.6 204.0 282.85 217.9 L282.0 213.25 Q282.9 204.55 282.35 193.9 279.65 185.7 275.5 183.0 L275.35 177.85" fill="url(#gradient1)" fill-rule="evenodd" stroke="none"/>
    <path d="M266.3 178.45 L265.2 170.2 Q270.0 174.4 275.35 177.85 L275.5 183.0 Q275.75 197.45 273.7 209.65 273.3 209.45 272.95 209.65 274.35 198.35 273.55 185.6 269.9 178.85 266.3 178.45" fill="url(#gradient2)" fill-rule="evenodd" stroke="none"/>
    <path d="M258.35 168.65 L257.25 162.2 Q261.0 166.5 265.2 170.2 L266.3 178.45 Q268.55 198.4 266.95 215.55 L265.9 217.5 Q267.8 198.55 264.8 181.45 261.85 173.6 258.35 168.65" fill="url(#gradient3)" fill-rule="evenodd" stroke="none"/>
    <path d="M284.85 239.85 Q284.8 229.6 282.85 217.9 284.6 204.0 283.3 186.95 287.0 189.1 289.55 196.6 290.5 227.65 284.85 239.85" fill="url(#gradient4)" fill-rule="evenodd" stroke="none"/>
    <path d="M282.0 213.25 L280.4 205.85 Q277.05 208.1 273.7 216.8 L273.7 209.65 Q275.75 197.45 275.5 183.0 279.65 185.7 282.35 193.9 282.9 204.55 282.0 213.25" fill="url(#gradient5)" fill-rule="evenodd" stroke="none"/>
    <path d="M266.95 215.55 Q268.55 198.4 266.3 178.45 269.9 178.85 273.55 185.6 274.35 198.35 272.95 209.65 271.45 210.35 271.15 217.65 L266.95 227.75 266.95 215.55 M270.15 204.25 Q270.45 204.6 270.85 204.6 271.4 204.6 271.8 203.8 272.2 203.0 272.2 201.85 272.2 200.75 271.8 199.9 271.5 199.25 271.05 199.15 271.5 198.5 270.15 197.85 268.8 197.9 268.55 202.05 268.45 203.85 270.0 204.05 L270.15 204.25" fill="url(#gradient6)" fill-rule="evenodd" stroke="none"/>
    <path d="M258.35 168.65 Q261.85 173.6 264.8 181.45 267.8 198.55 265.9 217.5 L259.4 229.4 Q262.7 207.35 261.8 187.95 L258.35 168.65 M264.05 210.95 Q264.9 200.1 261.8 187.95 264.9 200.1 264.05 210.95" fill="url(#gradient7)" fill-rule="evenodd" stroke="none"/>
    <path d="M265.2 170.2 Q261.0 166.5 257.25 162.2 L258.35 168.65 261.8 187.95 Q264.9 200.1 264.05 210.95 M265.9 217.5 L266.95 215.55 Q268.55 198.4 266.3 178.45 L265.2 170.2 Q270.0 174.4 275.35 177.85 L282.85 182.15 Q286.2 183.85 289.7 185.25 293.7 222.7 284.6 247.05 L284.85 239.85 Q284.8 229.6 282.85 217.9 L282.0 213.25 280.4 205.85 Q277.05 208.1 273.7 216.8 L273.7 209.65 Q273.3 209.45 272.95 209.65 271.45 210.35 271.15 217.65 L266.95 227.75 266.95 215.55 M283.3 186.95 L282.85 182.15 M275.35 177.85 L275.5 183.0 Q275.75 197.45 273.7 209.65 M265.9 217.5 L259.4 229.4 Q262.7 207.35 261.8 187.95 M282.85 217.9 Q284.6 204.0 283.3 186.95" fill="none" stroke="#000000" stroke-linecap="round" stroke-linejoin="round" stroke-opacity="0.4117647" stroke-width="0.05"/>
    <path d="M271.05 199.15 Q271.5 199.25 271.8 199.9 272.2 200.75 272.2 201.85 272.2 203.0 271.8 203.8 271.4 204.6 270.85 204.6 270.45 204.6 270.15 204.25 M271.05 199.15 L270.85 199.1 Q270.25 199.1 269.85 199.9 269.45 200.75 269.45 201.85 269.45 203.0 269.85 203.8 L270.0 204.05" fill="none" stroke="#000000" stroke-linecap="round" stroke-linejoin="round" stroke-opacity="0.4117647" stroke-width="0.05"/>
    <path d="M285.75 183.55 Q296.4 170.4 285.35 159.7 270.15 149.2 258.7 164.4" fill="none" stroke="#000000" stroke-linecap="round" stroke-linejoin="round" stroke-opacity="0.4117647" stroke-width="0.05"/>
    <path d="M287.05 181.7 Q287.45 182.25 287.45 182.95 287.45 183.85 286.8 184.5 286.15 185.15 285.25 185.15 284.35 185.15 283.7 184.5 L283.3 183.95 Q286.35 184.8 287.05 181.7" fill="#d9ad00" fill-rule="evenodd" stroke="none"/>
    <path d="M283.3 183.95 Q283.05 183.5 283.05 182.95 283.05 182.05 283.7 181.4 284.35 180.75 285.25 180.75 286.15 180.75 286.8 181.4 L287.05 181.7 Q286.35 184.8 283.3 183.95" fill="url(#gradient8)" fill-rule="evenodd" stroke="none"/>
    <path d="M283.3 183.95 Q283.05 183.5 283.05 182.95 283.05 182.05 283.7 181.4 284.35 180.75 285.25 180.75 286.15 180.75 286.8 181.4 L287.05 181.7 Q287.45 182.25 287.45 182.95 287.45 183.85 286.8 184.5 286.15 185.15 285.25 185.15 284.35 185.15 283.7 184.5 L283.3 183.95 Z" fill="none" stroke="#000000" stroke-linecap="round" stroke-linejoin="round" stroke-opacity="0.4117647" stroke-width="0.05"/>
    <path d="M290.45 177.8 L290.75 178.75 Q290.75 179.4 290.25 179.9 289.75 180.4 289.1 180.4 288.4 180.4 287.95 179.9 L287.65 179.5 Q289.9 180.15 290.45 177.8" fill="#d9ad00" fill-rule="evenodd" stroke="none"/>
    <path d="M287.65 179.5 L287.45 178.75 Q287.45 178.05 287.95 177.6 288.4 177.1 289.1 177.1 289.75 177.1 290.25 177.6 L290.45 177.8 Q289.9 180.15 287.65 179.5" fill="url(#gradient9)" fill-rule="evenodd" stroke="none"/>
    <path d="M287.65 179.5 L287.45 178.75 Q287.45 178.05 287.95 177.6 288.4 177.1 289.1 177.1 289.75 177.1 290.25 177.6 L290.45 177.8 290.75 178.75 Q290.75 179.4 290.25 179.9 289.75 180.4 289.1 180.4 288.4 180.4 287.95 179.9 L287.65 179.5 Z" fill="none" stroke="#000000" stroke-linecap="round" stroke-linejoin="round" stroke-opacity="0.4117647" stroke-width="0.05"/>
    <path d="M292.35 174.0 L292.65 174.95 Q292.65 175.6 292.15 176.1 291.65 176.6 291.0 176.6 290.3 176.6 289.85 176.1 L289.55 175.7 Q291.8 176.35 292.35 174.0" fill="#d9ad00" fill-rule="evenodd" stroke="none"/>
    <path d="M289.55 175.7 L289.35 174.95 Q289.35 174.25 289.85 173.8 290.3 173.3 291.0 173.3 291.65 173.3 292.15 173.8 L292.35 174.0 Q291.8 176.35 289.55 175.7" fill="url(#gradient10)" fill-rule="evenodd" stroke="none"/>
    <path d="M292.35 174.0 L292.65 174.95 Q292.65 175.6 292.15 176.1 291.65 176.6 291.0 176.6 290.3 176.6 289.85 176.1 L289.55 175.7 289.35 174.95 Q289.35 174.25 289.85 173.8 290.3 173.3 291.0 173.3 291.65 173.3 292.15 173.8 L292.35 174.0 Z" fill="none" stroke="#000000" stroke-linecap="round" stroke-linejoin="round" stroke-opacity="0.4117647" stroke-width="0.05"/>
    <path d="M292.35 169.25 L292.65 170.2 Q292.65 170.85 292.15 171.35 291.65 171.85 291.0 171.85 290.3 171.85 289.85 171.35 L289.55 170.95 Q291.8 171.6 292.35 169.25" fill="#d9ad00" fill-rule="evenodd" stroke="none"/>
    <path d="M289.55 170.95 L289.35 170.2 Q289.35 169.5 289.85 169.05 290.3 168.55 291.0 168.55 291.65 168.55 292.15 169.05 L292.35 169.25 Q291.8 171.6 289.55 170.95" fill="url(#gradient11)" fill-rule="evenodd" stroke="none"/>
    <path d="M289.55 170.95 L289.35 170.2 Q289.35 169.5 289.85 169.05 290.3 168.55 291.0 168.55 291.65 168.55 292.15 169.05 L292.35 169.25 292.65 170.2 Q292.65 170.85 292.15 171.35 291.65 171.85 291.0 171.85 290.3 171.85 289.85 171.35 L289.55 170.95 Z" fill="none" stroke="#000000" stroke-linecap="round" stroke-linejoin="round" stroke-opacity="0.4117647" stroke-width="0.05"/>
    <path d="M288.6 166.35 Q290.85 167.0 291.4 164.65 L291.7 165.6 Q291.7 166.25 291.2 166.75 290.7 167.25 290.05 167.25 289.35 167.25 288.9 166.75 L288.6 166.35" fill="#d9ad00" fill-rule="evenodd" stroke="none"/>
    <path d="M291.4 164.65 Q290.85 167.0 288.6 166.35 L288.4 165.6 Q288.4 164.9 288.9 164.45 289.35 163.95 290.05 163.95 290.7 163.95 291.2 164.45 L291.4 164.65" fill="url(#gradient12)" fill-rule="evenodd" stroke="none"/>
    <path d="M288.6 166.35 L288.9 166.75 Q289.35 167.25 290.05 167.25 290.7 167.25 291.2 166.75 291.7 166.25 291.7 165.6 L291.4 164.65 291.2 164.45 Q290.7 163.95 290.05 163.95 289.35 163.95 288.9 164.45 288.4 164.9 288.4 165.6 L288.6 166.35 Z" fill="none" stroke="#000000" stroke-linecap="round" stroke-linejoin="round" stroke-opacity="0.4117647" stroke-width="0.05"/>
    <path d="M289.05 160.7 L289.35 161.65 Q289.35 162.3 288.85 162.8 288.35 163.3 287.7 163.3 287.0 163.3 286.55 162.8 L286.25 162.4 Q288.5 163.05 289.05 160.7" fill="#d9ad00" fill-rule="evenodd" stroke="none"/>
    <path d="M286.25 162.4 L286.05 161.65 Q286.05 160.95 286.55 160.5 287.0 160.0 287.7 160.0 288.35 160.0 288.85 160.5 L289.05 160.7 Q288.5 163.05 286.25 162.4" fill="url(#gradient13)" fill-rule="evenodd" stroke="none"/>
    <path d="M286.25 162.4 L286.05 161.65 Q286.05 160.95 286.55 160.5 287.0 160.0 287.7 160.0 288.35 160.0 288.85 160.5 L289.05 160.7 289.35 161.65 Q289.35 162.3 288.85 162.8 288.35 163.3 287.7 163.3 287.0 163.3 286.55 162.8 L286.25 162.4 Z" fill="none" stroke="#000000" stroke-linecap="round" stroke-linejoin="round" stroke-opacity="0.4117647" stroke-width="0.05"/>
    <path d="M285.35 157.85 L285.65 158.8 Q285.65 159.45 285.15 159.95 284.65 160.45 284.0 160.45 283.3 160.45 282.85 159.95 L282.55 159.55 Q284.8 160.2 285.35 157.85" fill="#d9ad00" fill-rule="evenodd" stroke="none"/>
    <path d="M282.55 159.55 L282.35 158.8 Q282.35 158.1 282.85 157.65 283.3 157.15 284.0 157.15 284.65 157.15 285.15 157.65 L285.35 157.85 Q284.8 160.2 282.55 159.55" fill="url(#gradient14)" fill-rule="evenodd" stroke="none"/>
    <path d="M285.35 157.85 L285.65 158.8 Q285.65 159.45 285.15 159.95 284.65 160.45 284.0 160.45 283.3 160.45 282.85 159.95 L282.55 159.55 282.35 158.8 Q282.35 158.1 282.85 157.65 283.3 157.15 284.0 157.15 284.65 157.15 285.15 157.65 L285.35 157.85 Z" fill="none" stroke="#000000" stroke-linecap="round" stroke-linejoin="round" stroke-opacity="0.4117647" stroke-width="0.05"/>
    <path d="M280.9 155.55 Q281.2 155.95 281.2 156.5 281.2 157.15 280.7 157.65 280.2 158.15 279.55 158.15 278.85 158.15 278.4 157.65 L278.1 157.25 Q280.35 157.9 280.9 155.55" fill="#d9ad00" fill-rule="evenodd" stroke="none"/>
    <path d="M278.1 157.25 L277.9 156.5 Q277.9 155.8 278.4 155.35 278.85 154.85 279.55 154.85 280.2 154.85 280.7 155.35 L280.9 155.55 Q280.35 157.9 278.1 157.25" fill="url(#gradient15)" fill-rule="evenodd" stroke="none"/>
    <path d="M280.9 155.55 Q281.2 155.95 281.2 156.5 281.2 157.15 280.7 157.65 280.2 158.15 279.55 158.15 278.85 158.15 278.4 157.65 L278.1 157.25 277.9 156.5 Q277.9 155.8 278.4 155.35 278.85 154.85 279.55 154.85 280.2 154.85 280.7 155.35 L280.9 155.55 Z" fill="none" stroke="#000000" stroke-linecap="round" stroke-linejoin="round" stroke-opacity="0.4117647" stroke-width="0.05"/>
    <path d="M275.55 154.55 L275.85 155.5 Q275.85 156.15 275.35 156.65 274.85 157.15 274.2 157.15 273.5 157.15 273.05 156.65 L272.75 156.25 Q275.0 156.9 275.55 154.55" fill="#d9ad00" fill-rule="evenodd" stroke="none"/>
    <path d="M272.75 156.25 L272.55 155.5 Q272.55 154.8 273.05 154.35 273.5 153.85 274.2 153.85 274.85 153.85 275.35 154.35 L275.55 154.55 Q275.0 156.9 272.75 156.25" fill="url(#gradient16)" fill-rule="evenodd" stroke="none"/>
    <path d="M275.55 154.55 L275.85 155.5 Q275.85 156.15 275.35 156.65 274.85 157.15 274.2 157.15 273.5 157.15 273.05 156.65 L272.75 156.25 272.55 155.5 Q272.55 154.8 273.05 154.35 273.5 153.85 274.2 153.85 274.85 153.85 275.35 154.35 L275.55 154.55 Z" fill="none" stroke="#000000" stroke-linecap="round" stroke-linejoin="round" stroke-opacity="0.4117647" stroke-width="0.05"/>
    <path d="M270.85 154.75 L271.15 155.7 Q271.15 156.35 270.65 156.85 270.15 157.35 269.5 157.35 268.8 157.35 268.35 156.85 L268.05 156.45 Q270.3 157.1 270.85 154.75" fill="#d9ad00" fill-rule="evenodd" stroke="none"/>
    <path d="M268.05 156.45 L267.85 155.7 Q267.85 155.0 268.35 154.55 268.8 154.05 269.5 154.05 270.15 154.05 270.65 154.55 L270.85 154.75 Q270.3 157.1 268.05 156.45" fill="url(#gradient17)" fill-rule="evenodd" stroke="none"/>
    <path d="M268.05 156.45 L267.85 155.7 Q267.85 155.0 268.35 154.55 268.8 154.05 269.5 154.05 270.15 154.05 270.65 154.55 L270.85 154.75 271.15 155.7 Q271.15 156.35 270.65 156.85 270.15 157.35 269.5 157.35 268.8 157.35 268.35 156.85 L268.05 156.45 Z" fill="none" stroke="#000000" stroke-linecap="round" stroke-linejoin="round" stroke-opacity="0.4117647" stroke-width="0.05"/>
    <path d="M266.05 156.85 L266.35 157.8 Q266.35 158.45 265.85 158.95 265.35 159.45 264.7 159.45 264.0 159.45 263.55 158.95 L263.25 158.55 Q265.5 159.2 266.05 156.85" fill="#d9ad00" fill-rule="evenodd" stroke="none"/>
    <path d="M263.25 158.55 L263.05 157.8 Q263.05 157.1 263.55 156.65 264.0 156.15 264.7 156.15 265.35 156.15 265.85 156.65 L266.05 156.85 Q265.5 159.2 263.25 158.55" fill="url(#gradient18)" fill-rule="evenodd" stroke="none"/>
    <path d="M263.25 158.55 L263.05 157.8 Q263.05 157.1 263.55 156.65 264.0 156.15 264.7 156.15 265.35 156.15 265.85 156.65 L266.05 156.85 266.35 157.8 Q266.35 158.45 265.85 158.95 265.35 159.45 264.7 159.45 264.0 159.45 263.55 158.95 L263.25 158.55 Z" fill="none" stroke="#000000" stroke-linecap="round" stroke-linejoin="round" stroke-opacity="0.4117647" stroke-width="0.05"/>
    <path d="M262.85 159.75 Q263.15 160.15 263.15 160.7 263.15 161.35 262.65 161.85 262.15 162.35 261.5 162.35 260.8 162.35 260.35 161.85 L260.05 161.45 Q262.3 162.1 262.85 159.75" fill="#d9ad00" fill-rule="evenodd" stroke="none"/>
    <path d="M260.05 161.45 L259.85 160.7 Q259.85 160.0 260.35 159.55 260.8 159.05 261.5 159.05 262.15 159.05 262.65 159.55 L262.85 159.75 Q262.3 162.1 260.05 161.45" fill="url(#gradient19)" fill-rule="evenodd" stroke="none"/>
    <path d="M260.05 161.45 L259.85 160.7 Q259.85 160.0 260.35 159.55 260.8 159.05 261.5 159.05 262.15 159.05 262.65 159.55 L262.85 159.75 Q263.15 160.15 263.15 160.7 263.15 161.35 262.65 161.85 262.15 162.35 261.5 162.35 260.8 162.35 260.35 161.85 L260.05 161.45 Z" fill="none" stroke="#000000" stroke-linecap="round" stroke-linejoin="round" stroke-opacity="0.4117647" stroke-width="0.05"/>
    <path d="M261.8 163.8 Q262.2 164.35 262.2 165.05 262.2 165.95 261.55 166.6 260.9 167.25 260.0 167.25 259.1 167.25 258.45 166.6 L258.05 166.05 Q261.1 166.9 261.8 163.8" fill="#d9ad00" fill-rule="evenodd" stroke="none"/>
    <path d="M258.05 166.05 L257.8 165.05 Q257.8 164.15 258.45 163.5 259.1 162.85 260.0 162.85 260.9 162.85 261.55 163.5 L261.8 163.8 Q261.1 166.9 258.05 166.05" fill="url(#gradient20)" fill-rule="evenodd" stroke="none"/>
    <path d="M258.05 166.05 L257.8 165.05 Q257.8 164.15 258.45 163.5 259.1 162.85 260.0 162.85 260.9 162.85 261.55 163.5 L261.8 163.8 Q262.2 164.35 262.2 165.05 262.2 165.95 261.55 166.6 260.9 167.25 260.0 167.25 259.1 167.25 258.45 166.6 L258.05 166.05 Z" fill="none" stroke="#000000" stroke-linecap="round" stroke-linejoin="round" stroke-opacity="0.4117647" stroke-width="0.05"/>
  </g>
  <defs>
    <linearGradient gradientTransform="matrix(0.0049, 0.0, 0.0, 0.0396, 286.85, 214.6)" gradientUnits="userSpaceOnUse" id="gradient0" spreadMethod="pad" x1="-819.2" x2="819.2">
      <stop offset="0.0" stop-color="#846431"/>
      <stop offset="1.0" stop-color="#86742d"/>
    </linearGradient>
    <linearGradient gradientTransform="matrix(0.0052, 0.0, 0.0, 0.0244, 279.6, 197.85)" gradientUnits="userSpaceOnUse" id="gradient1" spreadMethod="pad" x1="-819.2" x2="819.2">
      <stop offset="0.0" stop-color="#846431"/>
      <stop offset="1.0" stop-color="#86742d"/>
    </linearGradient>
    <linearGradient gradientTransform="matrix(0.0063, 0.0, 0.0, 0.0241, 270.35, 189.9)" gradientUnits="userSpaceOnUse" id="gradient2" spreadMethod="pad" x1="-819.2" x2="819.2">
      <stop offset="0.0" stop-color="#846431"/>
      <stop offset="1.0" stop-color="#86742d"/>
    </linearGradient>
    <linearGradient gradientTransform="matrix(0.0063, 0.0, 0.0, 0.0338, 262.4, 189.85)" gradientUnits="userSpaceOnUse" id="gradient3" spreadMethod="pad" x1="-819.2" x2="819.2">
      <stop offset="0.0" stop-color="#846431"/>
      <stop offset="1.0" stop-color="#86742d"/>
    </linearGradient>
    <linearGradient gradientTransform="matrix(0.0042, 0.0, 0.0, 0.0323, 286.25, 213.4)" gradientUnits="userSpaceOnUse" id="gradient4" spreadMethod="pad" x1="-819.2" x2="819.2">
      <stop offset="0.0" stop-color="#6d4f29"/>
      <stop offset="1.0" stop-color="#675a29"/>
    </linearGradient>
    <linearGradient gradientTransform="matrix(0.0054, 0.0, 0.0, 0.0206, 278.1, 199.9)" gradientUnits="userSpaceOnUse" id="gradient5" spreadMethod="pad" x1="-819.2" x2="819.2">
      <stop offset="0.0" stop-color="#6d4f29"/>
      <stop offset="1.0" stop-color="#675a29"/>
    </linearGradient>
    <linearGradient gradientTransform="matrix(0.0046, 0.0, 0.0, 0.0301, 270.05, 203.1)" gradientUnits="userSpaceOnUse" id="gradient6" spreadMethod="pad" x1="-819.2" x2="819.2">
      <stop offset="0.0" stop-color="#6d4f29"/>
      <stop offset="1.0" stop-color="#675a29"/>
    </linearGradient>
    <linearGradient gradientTransform="matrix(0.0051, 0.0, 0.0, 0.0371, 262.5, 199.0)" gradientUnits="userSpaceOnUse" id="gradient7" spreadMethod="pad" x1="-819.2" x2="819.2">
      <stop offset="0.0" stop-color="#6d4f29"/>
      <stop offset="1.0" stop-color="#675a29"/>
    </linearGradient>
    <linearGradient gradientTransform="matrix(0.0024, 0.0, 0.0, 0.0021, 285.05, 182.45)" gradientUnits="userSpaceOnUse" id="gradient8" spreadMethod="pad" x1="-819.2" x2="819.2">
      <stop offset="0.0" stop-color="#ffcc00"/>
      <stop offset="1.0" stop-color="#feeba3"/>
    </linearGradient>
    <linearGradient gradientTransform="matrix(0.0018, 0.0, 0.0, 0.0016, 288.95, 178.35)" gradientUnits="userSpaceOnUse" id="gradient9" spreadMethod="pad" x1="-819.2" x2="819.2">
      <stop offset="0.0" stop-color="#ffcc00"/>
      <stop offset="1.0" stop-color="#feeba3"/>
    </linearGradient>
    <linearGradient gradientTransform="matrix(0.0018, 0.0, 0.0, 0.0016, 290.85, 174.55)" gradientUnits="userSpaceOnUse" id="gradient10" spreadMethod="pad" x1="-819.2" x2="819.2">
      <stop offset="0.0" stop-color="#ffcc00"/>
      <stop offset="1.0" stop-color="#feeba3"/>
    </linearGradient>
    <linearGradient gradientTransform="matrix(0.0018, 0.0, 0.0, 0.0016, 290.85, 169.8)" gradientUnits="userSpaceOnUse" id="gradient11" spreadMethod="pad" x1="-819.2" x2="819.2">
      <stop offset="0.0" stop-color="#ffcc00"/>
      <stop offset="1.0" stop-color="#feeba3"/>
    </linearGradient>
    <linearGradient gradientTransform="matrix(0.0018, 0.0, 0.0, 0.0016, 289.9, 165.2)" gradientUnits="userSpaceOnUse" id="gradient12" spreadMethod="pad" x1="-819.2" x2="819.2">
      <stop offset="0.0" stop-color="#ffcc00"/>
      <stop offset="1.0" stop-color="#feeba3"/>
    </linearGradient>
    <linearGradient gradientTransform="matrix(0.0018, 0.0, 0.0, 0.0016, 287.55, 161.25)" gradientUnits="userSpaceOnUse" id="gradient13" spreadMethod="pad" x1="-819.2" x2="819.2">
      <stop offset="0.0" stop-color="#ffcc00"/>
      <stop offset="1.0" stop-color="#feeba3"/>
    </linearGradient>
    <linearGradient gradientTransform="matrix(0.0018, 0.0, 0.0, 0.0016, 283.85, 158.4)" gradientUnits="userSpaceOnUse" id="gradient14" spreadMethod="pad" x1="-819.2" x2="819.2">
      <stop offset="0.0" stop-color="#ffcc00"/>
      <stop offset="1.0" stop-color="#feeba3"/>
    </linearGradient>
    <linearGradient gradientTransform="matrix(0.0018, 0.0, 0.0, 0.0016, 279.4, 156.1)" gradientUnits="userSpaceOnUse" id="gradient15" spreadMethod="pad" x1="-819.2" x2="819.2">
      <stop offset="0.0" stop-color="#ffcc00"/>
      <stop offset="1.0" stop-color="#feeba3"/>
    </linearGradient>
    <linearGradient gradientTransform="matrix(0.0018, 0.0, 0.0, 0.0016, 274.05, 155.1)" gradientUnits="userSpaceOnUse" id="gradient16" spreadMethod="pad" x1="-819.2" x2="819.2">
      <stop offset="0.0" stop-color="#ffcc00"/>
      <stop offset="1.0" stop-color="#feeba3"/>
    </linearGradient>
    <linearGradient gradientTransform="matrix(0.0018, 0.0, 0.0, 0.0016, 269.35, 155.3)" gradientUnits="userSpaceOnUse" id="gradient17" spreadMethod="pad" x1="-819.2" x2="819.2">
      <stop offset="0.0" stop-color="#ffcc00"/>
      <stop offset="1.0" stop-color="#feeba3"/>
    </linearGradient>
    <linearGradient gradientTransform="matrix(0.0018, 0.0, 0.0, 0.0016, 264.55, 157.4)" gradientUnits="userSpaceOnUse" id="gradient18" spreadMethod="pad" x1="-819.2" x2="819.2">
      <stop offset="0.0" stop-color="#ffcc00"/>
      <stop offset="1.0" stop-color="#feeba3"/>
    </linearGradient>
    <linearGradient gradientTransform="matrix(0.0018, 0.0, 0.0, 0.0016, 261.35, 160.3)" gradientUnits="userSpaceOnUse" id="gradient19" spreadMethod="pad" x1="-819.2" x2="819.2">
      <stop offset="0.0" stop-color="#ffcc00"/>
      <stop offset="1.0" stop-color="#feeba3"/>
    </linearGradient>
    <linearGradient gradientTransform="matrix(0.0024, 0.0, 0.0, 0.0021, 259.8, 164.55)" gradientUnits="userSpaceOnUse" id="gradient20" spreadMethod="pad" x1="-819.2" x2="819.2">
      <stop offset="0.0" stop-color="#ffcc00"/>
      <stop offset="1.0" stop-color="#feeba3"/>
    </linearGradient>
  </defs>
</svg>
