<?xml version="1.0" encoding="UTF-8" standalone="no"?>
<svg xmlns:xlink="http://www.w3.org/1999/xlink" height="34.0px" width="14.6px" xmlns="http://www.w3.org/2000/svg">
  <g transform="matrix(1.0, 0.0, 0.0, 1.0, -268.15, -182.95)">
    <path d="M268.7 191.1 Q269.9 188.45 272.65 185.9 L272.35 183.05 272.75 182.95 272.85 185.65 273.1 188.65 273.85 195.4 274.25 198.15 274.25 198.25 274.45 199.35 274.7 200.75 275.75 205.55 276.3 207.75 278.15 214.0 279.25 216.95 Q275.65 217.15 272.45 215.5 271.2 214.8 271.4 214.1 272.9 209.65 275.75 205.55 271.95 209.0 270.4 212.5 268.5 209.0 268.3 204.7 268.15 202.2 268.65 199.45 268.8 194.0 272.8 189.0 L272.85 189.0 272.85 188.9 272.9 188.8 Q270.95 190.1 268.15 194.3 268.75 191.0 272.7 187.85 270.9 188.4 268.7 191.1 M272.8 187.8 L272.8 187.75 272.7 187.85 272.8 187.8 M271.15 205.0 Q272.1 202.5 274.7 200.75 272.1 202.5 271.15 205.0 M268.3 204.7 Q270.45 201.7 274.45 199.35 270.45 201.7 268.3 204.7" fill="#9b2700" fill-rule="evenodd" stroke="none"/>
    <path d="M272.85 185.65 Q278.25 189.7 278.3 191.55 276.65 189.6 273.1 188.65 276.95 191.05 278.35 194.45 L279.65 197.75 Q282.2 204.55 282.65 208.95 279.15 207.7 276.3 207.75 279.65 208.3 282.75 210.5 282.75 213.65 281.4 215.15 L280.0 216.5 278.15 214.0 276.3 207.75 275.75 205.55 274.7 200.75 274.45 199.35 274.25 198.25 274.25 198.15 273.85 195.4 273.1 188.65 272.85 185.65 M279.65 197.75 Q276.9 195.8 273.85 195.4 276.9 195.8 279.65 197.75" fill="#cc3300" fill-rule="evenodd" stroke="none"/>
    <path d="M272.75 182.95 L272.85 185.65 273.1 188.65 273.85 195.4 274.25 198.15 M278.15 214.0 L279.25 216.95 M274.25 198.25 L274.45 199.35 274.7 200.75 275.75 205.55 276.3 207.75 278.15 214.0" fill="none" stroke="#000000" stroke-linecap="round" stroke-linejoin="round" stroke-opacity="0.23137255" stroke-width="0.05"/>
    <path d="M268.7 191.1 Q269.9 188.45 272.65 185.9 L272.35 183.05 272.75 182.95 M272.85 185.65 Q278.25 189.7 278.3 191.55 M273.1 188.65 Q276.95 191.05 278.35 194.45 L279.65 197.75 Q282.2 204.55 282.65 208.95 M282.75 210.5 Q282.75 213.65 281.4 215.15 L280.0 216.5 M279.25 216.95 Q275.65 217.15 272.45 215.5 271.2 214.8 271.4 214.1 M270.4 212.5 Q268.5 209.0 268.3 204.7 268.15 202.2 268.65 199.45 268.8 194.0 272.8 189.0 L272.85 188.9 272.9 188.8 M268.15 194.3 Q268.75 191.0 272.7 187.85 L272.8 187.75 272.8 187.8 M272.85 189.0 L272.85 188.9 M274.25 198.15 L274.25 198.25 M273.85 195.4 Q276.9 195.8 279.65 197.75 M274.45 199.35 Q270.45 201.7 268.3 204.7 M274.7 200.75 Q272.1 202.5 271.15 205.0" fill="none" stroke="#000000" stroke-linecap="round" stroke-linejoin="round" stroke-opacity="0.23137255" stroke-width="0.05"/>
  </g>
</svg>
