<?xml version="1.0" encoding="UTF-8" standalone="no"?>
<svg xmlns:xlink="http://www.w3.org/1999/xlink" height="48.7px" width="81.1px" xmlns="http://www.w3.org/2000/svg">
  <g transform="matrix(1.0, 0.0, 0.0, 1.0, 40.55, 24.35)">
    <path d="M12.45 -20.4 L14.05 -21.9 12.45 -20.4 6.15 -21.0 4.45 -21.0 Q5.25 -21.75 5.25 -22.75 5.25 -21.75 4.45 -21.0 L3.6 -20.4 2.65 -20.1 2.65 -20.05 1.45 -19.5 Q-0.8 -20.2 -0.9 -21.1 -1.15 -22.2 -0.3 -22.9 -1.15 -22.2 -0.9 -21.1 L-20.25 -18.75 Q-22.4 -17.05 -26.15 -16.2 -29.95 -15.4 -32.4 -13.7 L-35.1 -12.45 Q-37.7 -11.35 -37.4 -8.1 -37.15 -4.9 -35.85 -2.95 L-35.8 -2.9 -34.85 -1.7 Q-30.8 1.0 -27.5 2.5 L-23.3 4.45 -15.6 6.35 Q-11.8 6.3 -8.8 7.3 L-8.75 7.25 Q-7.2 5.75 -6.1 5.8 -4.3 6.4 -5.05 6.85 -3.8 6.65 -3.2 7.4 L-3.2 7.65 4.95 8.15 Q11.35 8.45 20.05 5.55 23.75 5.5 27.15 3.75 L33.05 0.3 Q38.6 -1.9 38.25 -4.45 37.9 -7.1 37.55 -7.95 38.05 -10.15 39.75 -9.0 38.05 -10.15 37.55 -7.95 37.5 -13.3 32.05 -15.15 L26.25 -17.05 12.45 -20.4 M28.0 -18.25 L26.25 -17.05 28.0 -18.25 34.45 -16.1 Q40.1 -14.05 39.75 -9.0 40.25 -7.75 40.55 -4.95 40.85 -2.2 36.0 0.9 33.15 3.15 28.55 5.35 23.9 7.55 19.05 8.0 10.5 11.0 4.0 10.5 L-4.9 9.8 -4.85 13.5 Q-4.65 18.1 -3.65 22.25 -3.15 23.6 -4.35 24.25 -6.5 24.6 -6.75 23.5 -7.35 20.95 -6.8 16.95 -7.3 13.75 -6.2 10.3 -6.5 10.4 -7.0 10.65 L-7.7 10.4 Q-9.25 16.1 -11.5 19.0 L-13.8 23.0 Q-16.5 23.1 -15.8 20.4 -13.5 17.85 -11.7 15.0 L-8.9 9.8 -9.15 9.5 Q-14.6 9.0 -19.45 7.9 -25.4 7.55 -27.15 6.25 L-29.3 4.75 Q-36.3 2.5 -38.0 -1.05 -41.15 -3.25 -40.15 -6.15 L-40.55 -9.15 Q-40.85 -11.95 -33.75 -15.4 -31.5 -16.85 -26.5 -19.05 -21.55 -21.25 -15.25 -21.7 -8.0 -23.6 -0.3 -22.9 1.25 -24.4 2.35 -24.35 4.15 -23.75 3.4 -23.3 L2.35 -22.8 Q1.6 -22.4 1.55 -21.4 1.45 -20.45 2.65 -20.05 1.45 -20.45 1.55 -21.4 1.6 -22.4 2.35 -22.8 L3.4 -23.3 Q4.65 -23.5 5.25 -22.75 L14.05 -21.9 Q22.05 -21.65 28.0 -18.25 M36.0 0.9 Q36.3 -0.75 33.05 0.3 36.3 -0.75 36.0 0.9 M19.05 8.0 Q20.4 6.85 20.05 5.55 20.4 6.85 19.05 8.0 M-32.4 -13.7 Q-31.6 -14.4 -33.75 -15.4 -31.6 -14.4 -32.4 -13.7 M-34.85 -1.7 Q-37.25 -1.9 -38.0 -1.05 -37.25 -1.9 -34.85 -1.7 M-40.15 -6.15 Q-38.15 -6.25 -35.85 -2.95 -38.15 -6.25 -40.15 -6.15 M-15.25 -21.7 Q-18.6 -20.7 -20.25 -18.75 -18.6 -20.7 -15.25 -21.7 M-6.9 8.75 Q-6.85 7.9 -6.3 7.5 L-6.1 7.35 -6.3 7.5 Q-6.85 7.9 -6.9 8.75 -7.0 9.35 -6.55 9.7 L-5.8 10.1 -6.55 9.7 Q-7.0 9.35 -6.9 8.75 M-5.8 10.05 L-5.8 10.1 -5.8 10.05 -4.9 9.8 -5.8 10.05 M-4.85 9.75 L-4.9 9.8 -4.85 9.75 -4.0 9.15 Q-3.3 8.5 -3.2 7.65 -3.3 8.5 -4.0 9.15 L-4.85 9.75 M-6.2 10.3 L-5.8 10.1 -6.2 10.3 M-8.9 9.8 L-7.7 10.4 -8.9 9.8 M-8.8 7.3 Q-9.6 8.0 -9.35 9.05 L-9.15 9.5 -9.35 9.05 Q-9.6 8.0 -8.8 7.3 M-23.3 4.45 Q-27.5 3.3 -29.3 4.75 -27.5 3.3 -23.3 4.45 M-6.8 16.95 Q-5.85 13.65 -4.85 13.5 -5.85 13.65 -6.8 16.95 M-6.75 23.5 Q-5.4 21.5 -3.65 22.25 -5.4 21.5 -6.75 23.5 M-11.5 19.0 Q-10.9 16.2 -11.7 15.0 -10.9 16.2 -11.5 19.0 M-13.8 23.0 Q-13.15 21.8 -13.75 20.9 -14.6 19.65 -15.8 20.4 -14.6 19.65 -13.75 20.9 -13.15 21.8 -13.8 23.0 M-19.45 7.9 Q-19.45 6.25 -15.6 6.35 -19.45 6.25 -19.45 7.9 M-5.05 6.85 L-6.1 7.35 -5.05 6.85" fill="#ffffff" fill-rule="evenodd" stroke="none"/>
    <path d="M14.05 -21.9 L12.45 -20.4 M26.25 -17.05 L28.0 -18.25 M4.45 -21.0 L6.15 -21.0 M39.75 -9.0 Q38.05 -10.15 37.55 -7.95 M33.05 0.3 Q36.3 -0.75 36.0 0.9 M-4.9 9.8 L-4.85 13.5 Q-4.65 18.1 -3.65 22.25 -3.15 23.6 -4.35 24.25 -6.5 24.6 -6.75 23.5 -7.35 20.95 -6.8 16.95 -7.3 13.75 -6.2 10.3 M-7.7 10.4 Q-9.25 16.1 -11.5 19.0 L-13.8 23.0 Q-16.5 23.1 -15.8 20.4 -13.5 17.85 -11.7 15.0 L-8.9 9.8 M20.05 5.55 Q20.4 6.85 19.05 8.0 M-32.4 -13.7 L-35.1 -12.45 M-35.85 -2.95 L-35.8 -2.9 M-5.05 6.85 Q-3.8 6.65 -3.2 7.4 M-33.75 -15.4 Q-31.6 -14.4 -32.4 -13.7 M-20.25 -18.75 Q-18.6 -20.7 -15.25 -21.7 M-35.85 -2.95 Q-38.15 -6.25 -40.15 -6.15 M-38.0 -1.05 Q-37.25 -1.9 -34.85 -1.7 M-6.9 8.75 Q-7.0 9.35 -6.55 9.7 L-5.8 10.1 M-5.8 10.05 L-4.9 9.8 -4.85 9.75 M-6.1 7.35 L-5.05 6.85 M-15.6 6.35 Q-19.45 6.25 -19.45 7.9 M-15.8 20.4 Q-14.6 19.65 -13.75 20.9 -13.15 21.8 -13.8 23.0 M-11.7 15.0 Q-10.9 16.2 -11.5 19.0 M-3.65 22.25 Q-5.4 21.5 -6.75 23.5 M-4.85 13.5 Q-5.85 13.65 -6.8 16.95 M-29.3 4.75 Q-27.5 3.3 -23.3 4.45" fill="none" stroke="#000000" stroke-linecap="round" stroke-linejoin="round" stroke-opacity="0.4" stroke-width="0.05"/>
    <path d="M12.45 -20.4 L26.25 -17.05 32.05 -15.15 Q37.5 -13.3 37.55 -7.95 37.9 -7.1 38.25 -4.45 38.6 -1.9 33.05 0.3 L27.15 3.75 Q23.75 5.5 20.05 5.55 11.35 8.45 4.95 8.15 L-3.2 7.65 -3.2 7.4 M28.0 -18.25 Q22.05 -21.65 14.05 -21.9 L5.25 -22.75 Q5.25 -21.75 4.45 -21.0 L3.6 -20.4 2.65 -20.1 2.65 -20.05 Q1.45 -20.45 1.55 -21.4 1.6 -22.4 2.35 -22.8 L3.4 -23.3 Q4.65 -23.5 5.25 -22.75 M6.15 -21.0 L12.45 -20.4 M3.4 -23.3 Q4.15 -23.75 2.35 -24.35 1.25 -24.4 -0.3 -22.9 -1.15 -22.2 -0.9 -21.1 -0.8 -20.2 1.45 -19.5 L2.65 -20.05 M36.0 0.9 Q40.85 -2.2 40.55 -4.95 40.25 -7.75 39.75 -9.0 40.1 -14.05 34.45 -16.1 L28.0 -18.25 M36.0 0.9 Q33.15 3.15 28.55 5.35 23.9 7.55 19.05 8.0 10.5 11.0 4.0 10.5 L-4.9 9.8 M-6.2 10.3 Q-6.5 10.4 -7.0 10.65 L-7.7 10.4 -8.9 9.8 -9.15 9.5 Q-14.6 9.0 -19.45 7.9 -25.4 7.55 -27.15 6.25 L-29.3 4.75 Q-36.3 2.5 -38.0 -1.05 -41.15 -3.25 -40.15 -6.15 L-40.55 -9.15 Q-40.85 -11.95 -33.75 -15.4 -31.5 -16.85 -26.5 -19.05 -21.55 -21.25 -15.25 -21.7 -8.0 -23.6 -0.3 -22.9 M-35.1 -12.45 Q-37.7 -11.35 -37.4 -8.1 -37.15 -4.9 -35.85 -2.95 M-35.8 -2.9 L-34.85 -1.7 Q-30.8 1.0 -27.5 2.5 L-23.3 4.45 -15.6 6.35 Q-11.8 6.3 -8.8 7.3 L-8.75 7.25 Q-7.2 5.75 -6.1 5.8 -4.3 6.4 -5.05 6.85 M-32.4 -13.7 Q-29.95 -15.4 -26.15 -16.2 -22.4 -17.05 -20.25 -18.75 L-0.9 -21.1 M-6.1 7.35 L-6.3 7.5 Q-6.85 7.9 -6.9 8.75 M-5.8 10.1 L-5.8 10.05 M-4.85 9.75 L-4.0 9.15 Q-3.3 8.5 -3.2 7.65 M-9.15 9.5 L-9.35 9.05 Q-9.6 8.0 -8.8 7.3 M-5.8 10.1 L-6.2 10.3" fill="none" stroke="#000000" stroke-linecap="round" stroke-linejoin="round" stroke-opacity="0.4" stroke-width="0.05"/>
  </g>
</svg>
