<?xml version="1.0" encoding="UTF-8" standalone="no"?>
<svg xmlns:xlink="http://www.w3.org/1999/xlink" height="43.8px" width="33.2px" xmlns="http://www.w3.org/2000/svg">
  <g transform="matrix(1.0, 0.0, 0.0, 1.0, -258.35, -178.05)">
    <path d="M269.2 182.65 L269.65 183.65 270.5 183.75 269.2 182.65 M261.85 180.95 Q264.05 179.7 268.35 178.9 L269.3 178.3 270.9 178.05 273.45 179.8 279.15 181.55 277.9 182.3 277.9 183.05 277.25 182.65 276.7 182.95 276.05 182.4 276.45 183.2 276.2 183.45 275.55 182.9 275.95 183.7 275.7 184.0 272.35 186.3 271.1 185.25 271.65 186.9 270.65 185.05 269.7 184.7 270.45 186.05 269.1 184.6 269.15 184.55 268.0 183.7 265.7 182.65 263.7 181.35 261.85 180.95 M279.05 182.75 L280.1 182.05 283.05 183.3 283.8 183.3 287.1 185.3 288.8 185.8 291.35 187.65 289.3 188.95 287.75 190.8 288.5 189.4 285.1 191.5 284.1 193.25 284.1 192.55 283.4 193.5 283.85 192.2 282.9 191.3 281.1 190.75 281.4 189.75 280.35 190.4 276.85 188.35 272.95 186.5 276.1 184.6 276.75 184.0 276.8 184.0 276.75 184.0 276.8 183.95 277.8 183.5 Q278.4 183.15 279.05 182.75 M272.0 184.3 L270.85 183.5 271.75 184.6 272.15 184.6 272.35 184.95 272.95 184.85 271.75 183.75 271.95 184.2 272.0 184.3 M279.55 189.0 L280.2 188.9 278.95 187.75 279.55 189.0 M284.7 186.55 L284.75 186.55 284.95 187.0 284.1 186.2 284.7 187.4 285.35 187.3 285.3 187.25 285.75 187.15 286.35 188.4 286.95 188.3 285.75 187.15 285.0 186.5 285.35 186.45 284.1 185.3 284.7 186.55" fill="#009933" fill-rule="evenodd" stroke="none"/>
    <path d="M269.2 182.65 L270.5 183.75 269.65 183.65 269.2 182.65 M261.85 180.95 L263.7 181.35 265.7 182.65 268.0 183.7 269.15 184.55 269.1 184.6 270.45 186.05 269.7 184.7 270.65 185.05 271.65 186.9 271.1 185.25 272.35 186.3 275.7 184.0 275.95 183.7 275.55 182.9 276.2 183.45 276.45 183.2 276.05 182.4 276.7 182.95 277.25 182.65 277.9 183.05 277.9 182.3 279.15 181.55 279.05 182.75 Q278.4 183.15 277.8 183.5 L276.8 183.95 276.75 184.0 276.8 184.0 276.75 184.0 276.1 184.6 272.95 186.5 276.85 188.35 280.35 190.4 281.4 189.75 281.1 190.75 282.9 191.3 283.85 192.2 283.4 193.5 284.1 192.55 284.1 193.25 285.1 191.5 288.5 189.4 287.75 190.8 289.3 188.95 291.35 187.65 291.55 188.4 291.2 189.55 283.75 194.4 280.15 192.4 278.6 191.55 277.85 191.55 274.9 189.5 271.95 188.75 271.7 188.7 269.9 186.65 265.1 184.6 261.85 181.95 261.85 180.95 M271.95 184.2 L271.75 183.75 272.95 184.85 272.35 184.95 272.15 184.6 271.75 184.6 270.85 183.5 272.0 184.3 272.15 184.5 271.95 184.2 M284.7 186.55 L284.1 185.3 285.35 186.45 285.0 186.5 285.75 187.15 286.95 188.3 286.35 188.4 285.75 187.15 285.3 187.25 285.35 187.3 284.7 187.4 284.1 186.2 284.95 187.0 284.75 186.55 284.7 186.55 M279.55 189.0 L278.95 187.75 280.2 188.9 279.55 189.0" fill="#006633" fill-rule="evenodd" stroke="none"/>
    <path d="M278.3 221.4 L276.85 221.85 267.75 218.85 260.4 211.2 258.35 203.0 260.75 194.4 261.6 192.1 263.95 191.5 264.6 189.65 Q263.7 187.5 262.25 186.9 262.9 184.6 261.85 181.95 L265.1 184.6 269.9 186.65 271.7 188.7 271.95 188.75 274.9 189.5 277.85 191.55 278.6 191.55 278.45 192.05 278.7 192.7 279.35 192.95 279.95 192.7 280.15 192.4 283.75 194.4 Q283.3 195.7 283.2 197.1 L282.0 199.8 283.15 198.35 283.25 199.5 283.25 199.65 283.25 201.55 283.5 201.0 284.55 206.35 Q284.3 206.3 284.1 206.5 283.85 206.75 283.85 207.15 L284.1 207.75 Q284.35 208.05 284.75 208.05 L284.9 208.05 284.9 208.15 284.7 212.0 Q283.65 212.85 283.5 211.1 L283.75 210.35 282.0 202.7 278.05 199.1 270.3 196.2 269.95 196.2 265.55 196.2 263.65 196.2 262.1 199.1 260.75 204.65 262.7 210.95 262.95 211.2 264.05 210.0 263.4 211.75 267.9 216.4 270.45 217.6 271.3 217.9 271.3 219.5 271.75 218.05 272.8 218.4 273.3 219.75 273.3 218.6 276.6 219.65 Q278.55 219.55 279.75 218.0 L280.85 216.55 Q282.05 218.1 282.75 218.05 L282.2 218.7 281.9 218.7 278.3 221.4 M269.65 190.4 Q269.1 190.15 268.6 190.65 268.15 191.1 268.15 191.75 268.15 192.4 268.6 192.85 269.1 193.3 269.7 193.3 L270.8 192.85 Q271.3 192.4 271.25 191.95 271.15 191.5 270.65 191.1 L269.65 190.4" fill="#fae701" fill-rule="evenodd" stroke="none"/>
    <path d="M290.75 202.6 Q289.95 204.65 291.5 207.1 L291.0 208.45 Q289.85 207.65 289.55 205.15 289.95 202.95 290.75 202.6 M261.6 192.1 L262.9 190.05 Q263.2 188.8 262.25 186.9 263.7 187.5 264.6 189.65 L263.95 191.5 261.6 192.1 M269.65 190.4 L270.65 191.1 Q271.15 191.5 271.25 191.95 271.3 192.4 270.8 192.85 L269.7 193.3 Q269.1 193.3 268.6 192.85 268.15 192.4 268.15 191.75 268.15 191.1 268.6 190.65 269.1 190.15 269.65 190.4 M278.6 191.55 L280.15 192.4 279.95 192.7 279.35 192.95 278.7 192.7 278.45 192.05 278.6 191.55 M269.95 196.2 L268.55 199.3 Q265.75 198.8 265.6 197.95 L265.55 196.2 269.95 196.2 M271.05 210.6 L274.9 212.8 Q274.2 214.85 272.85 215.7 L270.4 215.7 Q269.0 214.7 269.1 213.65 L271.05 210.6 M283.0 212.5 L283.5 211.1 Q283.65 212.85 284.7 212.0 285.3 211.55 286.1 211.8 287.05 212.55 286.95 213.3 286.8 215.25 285.45 216.3 L283.65 217.75 282.75 218.05 Q282.05 218.1 280.85 216.55 L283.0 212.5 M261.85 205.5 Q261.85 205.1 262.1 204.85 262.35 204.6 262.7 204.7 L263.3 205.1 263.6 205.6 263.35 206.1 262.75 206.35 262.1 206.1 Q261.85 205.85 261.85 205.5 M288.65 192.5 L289.25 192.9 289.55 193.4 289.3 193.9 288.7 194.15 288.05 193.9 Q287.8 193.65 287.8 193.25 287.8 192.9 288.05 192.65 288.35 192.35 288.65 192.5 M284.9 208.05 L284.75 208.05 Q284.35 208.05 284.1 207.75 L283.85 207.15 Q283.85 206.75 284.1 206.5 284.3 206.3 284.55 206.35 L284.7 206.35 285.3 206.75 285.6 207.25 285.35 207.75 284.9 208.05" fill="#8db044" fill-rule="evenodd" stroke="none"/>
    <path d="M288.45 216.15 L288.1 217.15 282.55 220.5 278.3 221.4 281.9 218.7 282.2 218.7 288.45 216.15 M268.55 199.3 L268.0 200.55 267.75 202.0 262.55 203.6 263.55 201.8 261.55 204.2 260.75 204.65 262.1 199.1 263.65 196.2 265.55 196.2 265.6 197.95 Q265.75 198.8 268.55 199.3" fill="#e8e800" fill-rule="evenodd" stroke="none"/>
    <path d="M291.2 189.55 Q289.65 193.5 290.05 198.15 L290.75 202.6 Q289.95 202.95 289.55 205.15 289.85 207.65 291.0 208.45 L288.45 216.15 282.2 218.7 282.75 218.05 283.65 217.75 285.45 216.3 Q286.8 215.25 286.95 213.3 287.05 212.55 286.1 211.8 285.3 211.55 284.7 212.0 L284.9 208.15 284.9 208.05 285.35 207.75 285.6 207.25 285.3 206.75 284.7 206.35 284.55 206.35 283.5 201.0 283.25 201.55 283.25 199.65 283.25 199.5 283.15 198.35 282.0 199.8 283.2 197.1 Q283.3 195.7 283.75 194.4 L291.2 189.55 M267.75 202.0 Q267.45 204.4 268.85 206.75 L271.05 210.6 269.1 213.65 Q269.0 214.7 270.4 215.7 L272.85 215.7 Q274.2 214.85 274.9 212.8 L279.2 213.7 283.0 212.5 280.85 216.55 279.75 218.0 Q278.55 219.55 276.6 219.65 L273.3 218.6 273.3 219.75 272.8 218.4 271.75 218.05 271.3 219.5 271.3 217.9 270.45 217.6 267.9 216.4 263.4 211.75 264.05 210.0 262.95 211.2 262.7 210.95 260.75 204.65 261.55 204.2 263.55 201.8 262.55 203.6 267.75 202.0 M261.85 205.5 Q261.85 205.85 262.1 206.1 L262.75 206.35 263.35 206.1 263.6 205.6 263.3 205.1 262.7 204.7 Q262.35 204.6 262.1 204.85 261.85 205.1 261.85 205.5 M288.65 192.5 Q288.35 192.35 288.05 192.65 287.8 192.9 287.8 193.25 287.8 193.65 288.05 193.9 L288.7 194.15 289.3 193.9 289.55 193.4 289.25 192.9 288.65 192.5" fill="#ffff00" fill-rule="evenodd" stroke="none"/>
    <path d="M279.15 181.55 L273.45 179.8 270.9 178.05 269.3 178.3 268.35 178.9 Q264.05 179.7 261.85 180.95 L261.85 181.95 265.1 184.6 269.9 186.65 271.7 188.7 M279.15 181.55 L279.05 182.75 280.1 182.05 283.05 183.3 283.8 183.3 287.1 185.3 288.8 185.8 291.35 187.65 291.55 188.4 291.2 189.55 Q289.65 193.5 290.05 198.15 L290.75 202.6 Q289.95 204.65 291.5 207.1 L291.0 208.45 288.45 216.15 288.1 217.15 282.55 220.5 278.3 221.4 276.85 221.85 267.75 218.85 260.4 211.2 258.35 203.0 260.75 194.4 261.6 192.1 262.9 190.05 Q263.2 188.8 262.25 186.9 262.9 184.6 261.85 181.95 M271.95 188.75 L274.9 189.5 277.85 191.55 278.6 191.55 M280.15 192.4 L283.75 194.4 291.2 189.55 M269.95 196.2 L268.55 199.3 268.0 200.55 267.75 202.0 Q267.45 204.4 268.85 206.75 L271.05 210.6 274.9 212.8 279.2 213.7 283.0 212.5 283.5 211.1 283.75 210.35 282.0 202.7 278.05 199.1 270.3 196.2 269.95 196.2 Z" fill="none" stroke="#000000" stroke-linecap="round" stroke-linejoin="round" stroke-opacity="0.4" stroke-width="0.05"/>
  </g>
</svg>
