<?xml version="1.0" encoding="UTF-8" standalone="no"?>
<svg xmlns:xlink="http://www.w3.org/1999/xlink" height="170.9px" width="80.4px" xmlns="http://www.w3.org/2000/svg">
  <g transform="matrix(1.0, 0.0, 0.0, 1.0, 71.5, 110.1)">
    <path d="M0.65 -110.1 L-8.85 -83.5 Q-13.75 -66.35 -8.85 -44.25 L0.65 -10.1 Q-6.35 -24.85 -8.85 -12.6 -9.9 2.2 -3.8 2.6 L1.3 -3.75 Q1.55 7.35 2.8 15.95 L-4.4 12.1 -12.0 -3.1 Q-21.15 -22.35 -24.05 -43.65 -23.75 -5.1 1.3 29.15 L4.25 33.3 -5.65 26.0 Q-22.1 12.0 -38.55 7.0 L-29.05 -0.6 -25.25 -16.4 -28.45 -59.45 -22.1 -53.75 -16.4 -75.9 0.65 -110.1 M-16.85 -46.65 Q-17.5 -43.05 -17.15 -39.2 L-16.95 -36.05 Q-16.75 -33.2 -13.9 -32.7 L-12.6 -32.5 Q-10.95 -32.35 -11.0 -34.15 L-11.05 -35.4 Q-10.95 -38.35 -11.7 -41.15 -12.85 -45.45 -16.85 -46.65" fill="#3e3e22" fill-rule="evenodd" stroke="none"/>
    <path d="M0.65 -110.1 L-16.4 -75.9 -22.1 -53.75 -28.45 -59.45 -25.25 -16.4 -29.05 -0.6 -38.55 7.0 Q-22.1 12.0 -5.65 26.0 L4.25 33.3 1.3 29.15 Q-23.75 -5.1 -24.05 -43.65 -21.15 -22.35 -12.0 -3.1 L-4.4 12.1 2.8 15.95 Q4.7 29.4 8.9 36.75 2.0 38.5 -2.5 51.95 L-6.95 60.8 -10.1 53.85 -7.6 45.65 -4.15 43.55 1.3 35.5 Q-22.15 14.95 -43.65 9.55 L-62.0 22.2 -64.5 35.5 -58.8 41.2 -55.05 46.9 -55.05 57.65 -61.35 57.65 Q-59.6 53.0 -65.8 44.35 L-71.5 34.85 -67.05 19.65 -66.35 17.4 -63.05 17.7 Q-57.5 7.25 -46.9 1.9 L-43.9 0.5 Q-35.9 -7.25 -37.4 -10.8 -38.9 -14.35 -40.9 -15.65 -48.15 -14.95 -54.65 -11.25 L-56.45 -10.25 Q-49.8 -26.9 -42.2 -41.0 L-41.3 -45.9 -40.0 -46.05 Q-37.6 -46.5 -35.7 -48.4 -35.1 -49.0 -34.95 -50.0 -34.75 -51.55 -35.1 -53.05 -35.4 -54.4 -36.4 -55.1 -38.05 -56.25 -39.85 -57.05 -38.7 -68.85 -39.2 -81.6 L-29.75 -103.8 Q-30.6 -74.2 -18.95 -87.3 L0.65 -110.1 M-29.7 -74.6 Q-29.1 -76.25 -29.95 -78.35 -30.8 -80.35 -31.95 -80.35 -33.1 -80.35 -34.0 -78.35 -34.8 -76.25 -34.8 -73.4 -34.8 -70.5 -34.0 -68.5 -33.1 -66.45 -32.6 -67.7 L-31.2 -71.0 -29.7 -74.6 M-46.15 -25.9 Q-43.8 -33.2 -42.2 -41.0 -43.8 -33.2 -46.15 -25.9" fill="#666637" fill-rule="evenodd" stroke="none"/>
    <path d="M-4.15 43.55 Q-29.75 37.25 -58.8 41.2 L-64.5 35.5 -62.0 22.2 -43.65 9.55 Q-22.15 14.95 1.3 35.5 L-4.15 43.55 M-16.85 -46.65 Q-12.85 -45.45 -11.7 -41.15 -10.95 -38.35 -11.05 -35.4 L-11.0 -34.15 Q-10.95 -32.35 -12.6 -32.5 L-13.9 -32.7 Q-16.75 -33.2 -16.95 -36.05 L-17.15 -39.2 Q-17.5 -43.05 -16.85 -46.65" fill="#000000" fill-rule="evenodd" stroke="none"/>
    <path d="M-66.35 17.4 Q-61.65 2.8 -56.45 -10.25 L-54.65 -11.25 Q-48.15 -14.95 -40.9 -15.65 -38.9 -14.35 -37.4 -10.8 -35.9 -7.25 -43.9 0.5 L-46.9 1.9 Q-57.5 7.25 -63.05 17.7 L-66.35 17.4 M-41.3 -45.9 Q-40.35 -51.35 -39.85 -57.05 -38.05 -56.25 -36.4 -55.1 -35.4 -54.4 -35.1 -53.05 -34.75 -51.55 -34.95 -50.0 -35.1 -49.0 -35.7 -48.4 -37.6 -46.5 -40.0 -46.05 L-41.3 -45.9" fill="#837f5f" fill-rule="evenodd" stroke="none"/>
    <path d="M2.8 15.95 Q1.55 7.35 1.3 -3.75 L-3.8 2.6 Q-9.9 2.2 -8.85 -12.6 -6.35 -24.85 0.65 -10.1 L-8.85 -44.25 Q-13.75 -66.35 -8.85 -83.5 L0.65 -110.1 -18.95 -87.3 Q-30.6 -74.2 -29.75 -103.8 L-39.2 -81.6 Q-38.7 -68.85 -39.85 -57.05 -40.35 -51.35 -41.3 -45.9 L-42.2 -41.0 Q-43.8 -33.2 -46.15 -25.9 M1.3 29.15 Q-23.75 -5.1 -24.05 -43.65 M2.8 15.95 Q4.7 29.4 8.9 36.75 2.0 38.5 -2.5 51.95 L-6.95 60.8 -10.1 53.85 -7.6 45.65 -4.15 43.55 Q-29.75 37.25 -58.8 41.2 L-55.05 46.9 -55.05 57.65 -61.35 57.65 Q-59.6 53.0 -65.8 44.35 L-71.5 34.85 -67.05 19.65 -66.35 17.4 Q-61.65 2.8 -56.45 -10.25 -49.8 -26.9 -42.2 -41.0 M-29.7 -74.6 L-31.2 -71.0 -32.6 -67.7 Q-33.1 -66.45 -34.0 -68.5 -34.8 -70.5 -34.8 -73.4 -34.8 -76.25 -34.0 -78.35 -33.1 -80.35 -31.95 -80.35 -30.8 -80.35 -29.95 -78.35 -29.1 -76.25 -29.7 -74.6 M-58.8 41.2 L-64.5 35.5 -62.0 22.2 -43.65 9.55 Q-22.15 14.95 1.3 35.5 L-4.15 43.55" fill="none" stroke="#000000" stroke-linecap="round" stroke-linejoin="round" stroke-opacity="0.4117647" stroke-width="0.05"/>
  </g>
</svg>
