<?xml version="1.0" encoding="UTF-8" standalone="no"?>
<svg xmlns:xlink="http://www.w3.org/1999/xlink" height="18.5px" width="25.75px" xmlns="http://www.w3.org/2000/svg">
  <g transform="matrix(1.0, 0.0, 0.0, 1.0, -0.05, 9.25)">
    <path d="M25.5 2.15 L25.35 1.8 25.0 1.65 24.65 1.8 24.5 2.15 24.65 2.5 25.0 2.65 25.35 2.5 25.5 2.15 M22.35 0.3 Q22.95 -0.25 23.8 -0.25 24.65 -0.25 25.2 0.3 25.8 0.9 25.8 1.75 25.8 2.6 25.2 3.15 24.65 3.75 23.8 3.75 22.95 3.75 22.35 3.15 21.8 2.6 21.8 1.75 21.8 0.9 22.35 0.3" fill="#163d12" fill-rule="evenodd" stroke="none"/>
    <path d="M25.5 2.15 L25.35 2.5 25.0 2.65 24.65 2.5 24.5 2.15 24.65 1.8 25.0 1.65 25.35 1.8 25.5 2.15" fill="#225c1d" fill-rule="evenodd" stroke="none"/>
    <path d="M22.35 0.3 Q22.95 -0.25 23.8 -0.25 24.65 -0.25 25.2 0.3 25.8 0.9 25.8 1.75 25.8 2.6 25.2 3.15 24.65 3.75 23.8 3.75 22.95 3.75 22.35 3.15 21.8 2.6 21.8 1.75 21.8 0.9 22.35 0.3 Z" fill="none" stroke="#393939" stroke-linecap="round" stroke-linejoin="round" stroke-opacity="0.73333335" stroke-width="0.05"/>
    <path d="M5.6 -8.7 L7.55 -9.15 7.7 -9.2 8.05 -9.2 6.9 -8.9 5.15 -8.15 5.6 -8.7 5.15 -8.15 Q3.6 -7.3 2.15 -5.65 L1.7 -5.1 1.9 -5.9 1.7 -5.1 Q0.8 -3.85 0.5 -2.35 L0.3 -2.7 Q0.75 -4.45 1.85 -5.85 L1.9 -5.9 Q3.4 -7.9 5.6 -8.7 M15.05 7.7 L14.75 8.85 14.7 8.9 14.6 8.9 Q14.35 7.8 10.65 8.35 L10.45 8.35 Q7.25 8.8 4.45 7.35 L3.75 6.95 Q1.6 5.65 0.7 3.5 0.2 2.35 0.1 1.0 L0.05 0.2 Q-0.05 -1.35 0.3 -2.7 L0.5 -2.35 Q0.2 -1.05 0.4 0.5 L0.45 0.6 Q0.65 2.15 1.25 3.4 L0.7 3.5 1.25 3.4 Q2.1 5.15 3.7 6.35 L4.9 7.1 Q7.25 8.25 10.3 7.9 L10.95 7.8 10.45 8.35 10.95 7.8 14.75 7.65 15.05 7.7 M14.7 8.9 L14.75 7.65 14.7 8.9 M4.45 7.35 L4.9 7.1 4.45 7.35 M0.4 0.5 L0.05 0.2 0.4 0.5" fill="#e1caae" fill-rule="evenodd" stroke="none"/>
    <path d="M6.9 -8.9 L8.05 -9.2 8.1 -9.2 7.1 -8.8 Q6.2 -8.5 5.0 -6.75 3.8 -5.0 4.15 -1.9 4.45 1.15 6.6 2.4 L8.7 3.35 3.7 3.4 3.6 3.3 3.7 3.4 8.7 3.35 10.35 3.65 12.7 3.3 13.2 3.1 Q14.0 2.65 14.75 2.3 L15.0 3.15 15.0 3.2 14.95 3.25 14.9 3.3 12.7 3.3 14.9 3.3 14.95 3.25 15.0 3.2 15.0 3.15 14.75 2.3 15.45 2.0 15.75 1.85 15.95 4.05 15.9 4.05 15.95 4.45 15.95 4.5 15.9 4.7 15.6 5.75 14.85 5.9 15.0 3.2 14.85 5.9 12.5 6.05 10.9 6.05 8.3 5.8 Q5.25 5.25 3.7 3.4 L3.6 3.3 Q2.9 2.45 2.5 1.35 1.0 -2.65 2.8 -5.35 L3.45 -6.15 3.8 -6.5 2.8 -5.35 3.8 -6.5 Q5.5 -8.3 6.9 -8.9 M14.95 3.25 L12.5 6.05 14.95 3.25 M14.65 9.25 L14.65 9.1 14.65 9.2 14.65 9.25 M8.3 5.8 L14.9 3.3 8.3 5.8" fill="#eadbc4" fill-rule="evenodd" stroke="none"/>
    <path d="M8.1 -9.2 L8.8 -9.25 8.7 -9.25 Q6.85 -8.65 5.65 -7.05 4.05 -4.95 4.45 -2.35 4.75 0.2 6.85 1.8 8.95 3.4 11.55 3.05 L13.8 2.3 14.6 1.9 15.7 1.35 15.75 1.85 15.45 2.0 14.75 2.3 Q14.0 2.65 13.2 3.1 L12.7 3.3 8.7 3.35 12.7 3.3 10.35 3.65 8.7 3.35 6.6 2.4 Q4.45 1.15 4.15 -1.9 3.8 -5.0 5.0 -6.75 6.2 -8.5 7.1 -8.8 L8.1 -9.2 M14.6 1.9 L14.75 2.3 14.6 1.9" fill="#f2e8db" fill-rule="evenodd" stroke="none"/>
    <path d="M5.15 -8.15 L6.9 -8.9 Q5.5 -8.3 3.8 -6.5 L3.45 -6.15 2.8 -5.35 1.4 -3.65 1.7 -5.1 1.4 -3.65 2.8 -5.35 Q1.0 -2.65 2.5 1.35 2.9 2.45 3.6 3.3 L3.7 3.4 1.25 3.4 Q0.65 2.15 0.45 0.6 L0.4 0.5 Q0.2 -1.05 0.5 -2.35 0.8 -3.85 1.7 -5.1 L2.15 -5.65 Q3.6 -7.3 5.15 -8.15 L3.8 -6.5 5.15 -8.15 M15.6 5.75 L15.1 7.4 15.15 7.4 15.05 7.7 14.75 7.65 14.85 5.9 14.75 7.65 10.95 7.8 10.3 7.9 Q7.25 8.25 4.9 7.1 L3.7 6.35 Q2.1 5.15 1.25 3.4 L3.7 3.4 Q5.25 5.25 8.3 5.8 L10.9 6.05 12.5 6.05 14.85 5.9 15.6 5.75 M1.4 -3.65 L0.85 -1.1 0.5 -2.35 0.85 -1.1 1.4 -3.65 M12.5 6.05 L10.95 7.8 12.5 6.05 M0.85 -1.1 L1.65 1.6 0.4 0.5 1.65 1.6 0.85 -1.1 M1.65 1.6 L3.6 3.3 1.65 1.6 M8.3 5.8 L4.9 7.1 8.3 5.8" fill="#e7d2bc" fill-rule="evenodd" stroke="none"/>
    <path d="M15.55 -3.1 L15.65 -3.25 15.6 -3.05 15.55 -3.1 M24.25 3.85 L24.3 3.85 24.3 3.9 24.25 3.85 M18.35 6.8 L18.4 6.7 18.4 6.8 18.35 6.8" fill="#a97e01" fill-rule="evenodd" stroke="none"/>
    <path d="M17.55 -2.3 L17.15 -2.65 17.1 -2.75 17.55 -2.35 17.55 -2.3 M19.2 6.45 L19.15 6.45 19.2 6.45" fill="#c69504" fill-rule="evenodd" stroke="none"/>
    <path d="M15.65 0.75 L15.55 -0.55 15.65 0.75 M15.45 -1.8 L15.55 -3.1 15.55 -3.05 15.6 -3.05 Q15.45 -2.6 15.45 -1.8 M18.2 -1.0 Q17.75 -0.95 17.75 -1.6 17.75 -1.0 18.2 -1.0 M17.0 7.4 Q17.1 7.75 17.45 7.55 L18.35 6.75 18.35 6.8 17.5 7.6 17.45 7.6 Q17.1 7.75 17.0 7.4 M18.4 5.7 Q18.45 5.25 19.1 5.4 L19.4 5.85 19.1 5.45 Q18.45 5.25 18.4 5.7 M17.25 8.35 Q16.45 8.45 16.15 6.6 L16.05 5.55 16.15 6.6 Q16.45 8.4 17.25 8.35 M17.55 -2.3 L17.55 -2.35 17.55 -2.3 M15.65 -3.1 L15.6 -3.05 15.65 -3.1 M22.85 0.8 L22.9 0.8 22.85 0.85 22.85 0.8 M15.95 4.45 L15.9 4.05 15.95 4.05 15.95 4.45" fill="#598a93" fill-rule="evenodd" stroke="none"/>
    <path d="M15.6 -3.05 L15.55 -3.05 15.55 -3.1 15.6 -3.05" fill="#3f6167" fill-rule="evenodd" stroke="none"/>
    <path d="M15.7 1.35 L15.65 0.75 15.55 -0.55 15.45 -1.8 Q15.45 -2.6 15.6 -3.05 L15.65 -3.1 15.55 -1.95 16.25 6.45 Q16.65 9.6 18.6 7.25 17.8 8.3 17.25 8.35 16.45 8.4 16.15 6.6 L16.05 5.55 15.95 4.5 15.95 4.45 15.95 4.05 15.75 1.85 15.7 1.35 M18.55 -1.1 L18.2 -1.0 Q17.75 -1.0 17.75 -1.6 L17.85 -1.6 Q17.95 -1.0 18.55 -1.2 L18.55 -1.1" fill="#fee6a0" fill-rule="evenodd" stroke="none"/>
    <path d="M22.85 0.85 L22.85 0.8 22.85 0.85" fill="#a1664c" fill-rule="evenodd" stroke="none"/>
    <path d="M19.2 6.45 L18.9 6.85 18.6 7.25 18.85 6.95 19.0 6.75 19.15 6.45 19.2 6.45" fill="#e9f2f3" fill-rule="evenodd" stroke="none"/>
    <path d="M17.85 -1.6 L18.05 -1.6 17.55 -2.3 17.55 -2.35 18.25 -1.65 18.55 -1.2 Q17.95 -1.0 17.85 -1.6 M17.15 -2.65 L16.6 -2.95 Q16.15 -3.1 16.15 -2.5 15.8 -2.45 16.0 -1.55 L16.7 7.15 Q16.7 8.3 17.25 8.0 L18.4 6.8 18.4 6.7 18.35 6.8 18.35 6.75 18.7 6.0 18.4 6.05 18.35 5.85 18.85 5.85 Q19.2 6.05 19.15 6.45 L19.0 6.75 18.85 6.95 18.6 7.25 Q16.65 9.6 16.25 6.45 L15.55 -1.95 15.65 -3.1 Q16.1 -3.5 17.1 -2.75 L17.15 -2.65 M24.0 4.3 Q23.45 4.9 23.1 3.9 L23.1 3.6 22.85 0.85 22.9 0.8 23.65 0.85 23.65 0.9 23.7 0.9 23.7 0.95 24.0 4.3 M17.6 3.35 L17.65 3.9 17.45 4.5 17.05 4.1 16.8 1.25 17.05 0.9 17.1 0.9 17.6 3.35 M19.2 6.45 L19.15 6.45 19.2 6.45" fill="#f2ab06" fill-rule="evenodd" stroke="none"/>
    <path d="M15.65 -3.25 L15.75 -3.4 Q16.4 -4.35 18.45 -2.1 L18.75 -1.55 18.55 -1.1 18.55 -1.2 18.25 -1.65 17.55 -2.35 17.1 -2.75 Q16.1 -3.5 15.65 -3.1 L15.6 -3.05 15.65 -3.25 M16.15 -2.5 L16.2 -2.0 16.45 0.65 Q17.0 -0.4 17.35 0.6 L17.4 1.15 17.6 3.35 17.1 0.9 17.05 0.9 16.8 1.25 17.05 4.1 17.45 4.5 16.75 4.05 17.0 7.4 Q17.1 7.75 17.45 7.6 L17.5 7.6 18.35 6.8 18.4 6.8 17.25 8.0 Q16.7 8.3 16.7 7.15 L16.0 -1.55 Q15.8 -2.45 16.15 -2.5 M22.8 -0.05 L22.75 -0.25 Q22.95 -1.6 23.85 -0.55 L23.9 -0.5 23.9 -0.45 24.25 3.85 24.3 3.9 24.0 4.3 23.7 0.95 23.7 0.9 23.65 0.9 23.65 0.85 22.9 0.8 22.85 0.8 22.8 -0.05 M18.35 5.85 L18.4 5.7 Q18.45 5.25 19.1 5.45 L19.4 5.85 19.2 6.45 19.15 6.45 Q19.2 6.05 18.85 5.85 L18.35 5.85 M16.45 0.65 L16.75 4.05 16.45 0.65" fill="#996b04" fill-rule="evenodd" stroke="none"/>
    <path d="M23.1 3.6 Q20.75 2.25 17.8 3.25 17.8 2.15 18.55 2.2 L18.6 2.15 Q20.8 2.3 22.85 0.8 L22.85 0.85 23.1 3.6" fill="#225c1d" fill-rule="evenodd" stroke="none"/>
    <path d="M17.4 1.15 Q20.25 1.75 22.8 -0.05 L22.85 0.8 Q20.8 2.3 18.6 2.15 L18.55 2.2 Q17.8 2.15 17.8 3.25 L17.75 3.3 17.6 3.35 17.4 1.15" fill="#163d12" fill-rule="evenodd" stroke="none"/>
    <path d="M15.7 1.35 L15.65 0.75 15.55 -0.55 15.45 -1.8 Q15.45 -2.6 15.6 -3.05 L15.65 -3.25 15.75 -3.4 Q16.4 -4.35 18.45 -2.1 L18.75 -1.55 18.55 -1.1 18.2 -1.0 Q17.75 -1.0 17.75 -1.6 L17.85 -1.6 18.05 -1.6 17.55 -2.3 17.15 -2.65 16.6 -2.95 Q16.15 -3.1 16.15 -2.5 L16.2 -2.0 16.45 0.65 Q17.0 -0.4 17.35 0.6 L17.4 1.15 Q20.25 1.75 22.8 -0.05 L22.75 -0.25 Q22.95 -1.6 23.85 -0.55 L23.9 -0.5 23.9 -0.45 24.25 3.85 24.3 3.85 24.3 3.9 24.0 4.3 Q23.45 4.9 23.1 3.9 L23.1 3.6 Q20.75 2.25 17.8 3.25 L17.75 3.3 17.6 3.35 17.65 3.9 17.45 4.5 16.75 4.05 17.0 7.4 Q17.1 7.75 17.45 7.55 L18.35 6.75 18.7 6.0 18.4 6.05 18.35 5.85 18.4 5.7 Q18.45 5.25 19.1 5.4 L19.4 5.85 19.2 6.45 18.9 6.85 18.6 7.25 Q17.8 8.3 17.25 8.35 16.45 8.4 16.15 6.6 L16.05 5.55 15.95 4.5 15.9 4.7 M15.55 -3.1 L15.65 -3.25 M15.75 1.85 L15.7 1.35 M18.85 6.95 L19.0 6.75 19.15 6.45 19.2 6.45 M15.55 -3.05 L15.55 -3.1 M22.85 0.8 L22.85 0.85 22.9 0.8 M22.85 0.8 L22.8 -0.05 M22.85 0.85 L23.1 3.6 M15.9 4.05 L15.95 4.05 15.75 1.85 M15.95 4.05 L15.95 4.45 15.95 4.5 M18.4 5.7 Q18.45 5.25 19.1 5.45 L19.4 5.85 M17.4 1.15 L17.6 3.35 M16.75 4.05 L16.45 0.65 M16.05 5.55 L16.15 6.6 M15.55 -0.55 L15.65 0.75" fill="none" stroke="#393939" stroke-linecap="round" stroke-linejoin="round" stroke-opacity="0.73333335" stroke-width="0.05"/>
    <path d="M5.6 -8.7 L5.15 -8.15 3.8 -6.5 2.8 -5.35 1.4 -3.65 1.7 -5.1 1.9 -5.9 M8.7 3.35 L12.7 3.3 14.9 3.3 14.95 3.25 15.0 3.2 15.0 3.15 14.75 2.3 14.6 1.9 M3.6 3.3 L3.7 3.4 8.7 3.35 M0.5 -2.35 L0.85 -1.1 1.4 -3.65 M0.5 -2.35 L0.3 -2.7 M12.5 6.05 L14.95 3.25 M15.0 3.2 L14.85 5.9 14.75 7.65 14.7 8.9 M4.9 7.1 L4.45 7.35 M10.95 7.8 L10.45 8.35 M10.95 7.8 L12.5 6.05 M0.05 0.2 L0.4 0.5 1.65 1.6 0.85 -1.1 M1.25 3.4 L0.7 3.5 M3.6 3.3 L1.65 1.6 M3.7 3.4 L1.25 3.4 M4.9 7.1 L8.3 5.8 14.9 3.3" fill="none" stroke="#5c5c5c" stroke-linecap="round" stroke-linejoin="round" stroke-opacity="0.2901961" stroke-width="0.05"/>
    <path d="M8.05 -9.2 L7.7 -9.2 7.55 -9.15 5.6 -8.7 Q3.4 -7.9 1.9 -5.9 L1.85 -5.85 Q0.75 -4.45 0.3 -2.7 -0.05 -1.35 0.05 0.2 L0.1 1.0 Q0.2 2.35 0.7 3.5 1.6 5.65 3.75 6.95 L4.45 7.35 Q7.25 8.8 10.45 8.35 L10.65 8.35 Q14.35 7.8 14.6 8.9 L14.7 8.9 14.75 8.85 15.05 7.7 15.15 7.4 15.1 7.4 15.6 5.75 15.9 4.7 M8.1 -9.2 L8.8 -9.25 8.7 -9.25 Q6.85 -8.65 5.65 -7.05 4.05 -4.95 4.45 -2.35 4.75 0.2 6.85 1.8 8.95 3.4 11.55 3.05 L13.8 2.3 14.6 1.9 15.7 1.35" fill="none" stroke="#333333" stroke-linecap="round" stroke-linejoin="round" stroke-width="0.05"/>
  </g>
</svg>
