<?xml version="1.0" encoding="UTF-8" standalone="no"?>
<svg xmlns:xlink="http://www.w3.org/1999/xlink" height="91.55px" width="148.35px" xmlns="http://www.w3.org/2000/svg">
  <g transform="matrix(1.0, 0.0, 0.0, 1.0, -135.6, -113.65)">
    <path d="M225.7 173.35 L225.8 173.9 Q225.7 176.1 223.5 176.75 L221.4 176.75 Q219.9 175.25 220.85 173.3 L221.4 172.4 Q223.15 171.2 224.2 171.4 225.2 171.55 225.6 172.85 L225.7 173.35" fill="#5b1e00" fill-rule="evenodd" stroke="none"/>
    <path d="M283.8 129.3 Q283.9 142.15 276.55 147.35 271.95 150.4 264.8 150.9 L234.75 152.35 225.75 154.25 224.45 154.5 Q220.15 153.7 220.35 150.9 L241.6 147.65 271.8 146.4 Q275.15 144.2 278.45 141.95 L283.8 129.3 M166.7 140.3 Q159.85 140.1 150.8 136.4 144.55 125.45 145.4 116.95 L147.65 124.45 153.35 133.05 Q160.2 137.85 169.5 137.75 L166.7 140.3" fill="#000000" fill-rule="evenodd" stroke="none"/>
    <path d="M233.45 144.15 L260.65 144.2 271.5 142.55 Q278.65 139.25 282.9 119.75 284.4 114.55 283.8 129.3 L278.45 141.95 Q275.15 144.2 271.8 146.4 L241.6 147.65 220.35 150.9 Q220.2 147.8 222.55 145.9 L233.45 144.15 M145.4 116.95 Q146.7 111.05 147.0 115.65 147.3 120.25 154.3 130.85 161.95 134.85 172.2 135.15 L169.5 137.75 Q160.2 137.85 153.35 133.05 L147.65 124.45 145.4 116.95" fill="#666666" fill-rule="evenodd" stroke="none"/>
    <path d="M233.95 167.9 L234.2 172.4 Q234.25 175.95 233.95 179.1 L233.25 183.85 231.75 189.1 Q230.85 191.55 229.55 193.7 227.55 196.1 225.15 197.9 229.55 192.25 231.75 183.45 L232.55 179.7 232.6 179.1 Q232.9 173.65 231.75 172.45 L231.25 172.1 233.95 167.9" fill="#ffffff" fill-rule="evenodd" stroke="none"/>
    <path d="M190.7 177.5 L191.75 180.35 192.7 181.85 194.8 184.5 Q196.6 186.55 198.75 187.9 L199.75 188.3 206.85 191.35 202.25 196.25 Q197.3 200.95 188.6 198.15 181.7 196.75 175.9 191.2 L174.85 189.2 Q179.9 175.65 190.5 177.5 L190.7 177.5" fill="url(#gradient0)" fill-rule="evenodd" stroke="none"/>
    <path d="M189.95 166.9 Q188.9 171.55 190.5 176.95 L190.7 177.5 190.5 177.5 Q179.9 175.65 174.85 189.2 169.0 182.3 169.65 172.25 L173.65 169.8 189.95 166.9" fill="url(#gradient1)" fill-rule="evenodd" stroke="none"/>
    <path d="M210.2 177.45 L216.2 183.7 219.7 183.7 Q225.15 182.95 227.0 178.7 L231.25 172.1 231.75 172.45 Q232.9 173.65 232.6 179.1 L232.55 179.7 224.15 187.05 Q221.4 190.95 216.2 190.2 L211.6 187.5 Q212.7 183.7 210.2 177.45" fill="url(#gradient2)" fill-rule="evenodd" stroke="none"/>
    <path d="M197.3 205.15 L191.15 204.25 Q182.75 202.15 177.0 197.2 172.6 193.45 170.5 189.55 166.9 182.3 167.05 173.85 L169.65 172.25 Q169.0 182.3 174.85 189.2 L175.9 191.2 Q181.7 196.75 188.6 198.15 197.3 200.95 202.25 196.25 L206.85 191.35 208.25 186.3 Q208.55 182.8 208.2 178.85 208.05 177.2 205.65 172.7 L210.2 177.45 Q212.7 183.7 211.6 187.5 211.0 192.45 208.25 196.2 204.5 201.8 197.3 205.15" fill="url(#gradient3)" fill-rule="evenodd" stroke="none"/>
    <path d="M225.15 197.9 Q220.65 201.15 214.6 202.35 L207.0 204.25 Q202.15 205.4 197.3 205.15 204.5 201.8 208.25 196.2 211.0 192.45 211.6 187.5 L216.2 190.2 Q221.4 190.95 224.15 187.05 L232.55 179.7 231.75 183.45 Q229.55 192.25 225.15 197.9" fill="url(#gradient4)" fill-rule="evenodd" stroke="none"/>
    <path d="M234.75 152.35 L235.6 157.6 234.35 165.5 230.8 157.8 230.8 167.65 228.9 156.55 224.45 162.6 224.45 156.95 225.75 154.25 234.75 152.35" fill="url(#gradient5)" fill-rule="evenodd" stroke="none"/>
    <path d="M207.3 138.75 L203.85 137.5 196.85 142.25 207.3 138.75 M203.75 127.35 L215.9 128.05 Q220.15 130.1 223.4 132.3 231.75 136.05 241.3 136.2 235.05 138.6 229.05 136.8 L223.5 135.25 232.05 140.5 233.35 143.65 233.45 144.15 222.55 145.9 Q220.2 147.8 220.35 150.9 L217.15 154.3 220.0 154.3 215.55 158.15 207.65 159.7 Q209.85 156.3 215.55 156.45 208.3 154.55 199.7 158.75 L203.25 152.5 193.65 159.4 195.55 154.95 186.7 160.65 Q181.3 164.45 175.9 163.85 L180.65 160.35 Q172.35 161.15 165.1 166.7 168.75 163.25 170.15 158.45 166.55 163.55 159.15 168.2 L153.35 171.8 153.35 167.0 146.65 179.7 148.6 171.45 145.7 177.2 140.95 181.65 146.05 169.9 138.4 180.65 Q141.4 168.75 149.85 160.05 L149.85 164.5 152.05 158.15 153.65 161.6 153.15 152.95 Q154.25 146.0 157.15 141.95 154.35 147.9 155.15 153.85 L166.7 140.3 169.5 137.75 172.2 135.15 175.3 132.2 Q175.8 131.1 176.6 130.1 177.95 126.55 174.3 120.65 178.8 124.4 178.65 128.2 179.3 127.7 180.0 127.3 184.1 123.15 181.9 115.25 184.65 122.55 182.55 126.15 L186.2 126.35 Q194.55 124.7 200.35 118.1 198.15 122.95 191.45 126.65 L191.55 126.65 208.65 121.75 201.6 125.45 206.8 123.9 195.25 131.15 203.75 127.35 M190.8 140.35 L185.75 146.7 176.2 152.4 186.35 148.9 190.8 140.35 M190.5 154.3 L187.65 154.3 181.9 159.4 190.5 154.3 M191.8 148.9 L196.25 149.25 201.6 144.15 191.8 148.9 M209.85 149.9 L204.8 153.05 214.95 149.9 209.85 149.9" fill="url(#gradient6)" fill-rule="evenodd" stroke="none"/>
    <path d="M234.35 165.5 L233.95 167.9 231.25 172.1 227.0 178.7 Q225.15 182.95 219.7 183.7 L216.2 183.7 210.2 177.45 205.65 172.7 198.75 165.35 189.95 166.9 173.65 169.8 169.65 172.25 167.05 173.85 147.95 185.65 Q139.85 194.75 135.6 204.85 L138.4 180.65 146.05 169.9 140.95 181.65 145.7 177.2 148.6 171.45 146.65 179.7 153.35 167.0 153.35 171.8 159.15 168.2 Q166.55 163.55 170.15 158.45 168.75 163.25 165.1 166.7 172.35 161.15 180.65 160.35 L175.9 163.85 Q181.3 164.45 186.7 160.65 L195.55 154.95 193.65 159.4 203.25 152.5 199.7 158.75 Q208.3 154.55 215.55 156.45 209.85 156.3 207.65 159.7 L215.55 158.15 220.0 154.3 217.15 154.3 220.35 150.9 Q220.15 153.7 224.45 154.5 L225.75 154.25 224.45 156.95 224.45 162.6 228.9 156.55 230.8 167.65 230.8 157.8 234.35 165.5 M225.7 173.35 L225.75 172.85 225.6 172.85 Q225.2 171.55 224.2 171.4 223.15 171.2 221.4 172.4 L220.85 173.3 Q219.9 175.25 221.4 176.75 L223.5 176.75 Q225.7 176.1 225.8 173.9 L225.7 173.35" fill="url(#gradient7)" fill-rule="evenodd" stroke="none"/>
    <path d="M149.85 160.05 Q153.6 153.65 149.85 143.55 153.25 149.9 152.9 154.7 L153.15 152.95 153.65 161.6 152.05 158.15 149.85 164.5 149.85 160.05 M152.5 156.95 L152.9 154.7 152.5 156.95" fill="url(#gradient8)" fill-rule="evenodd" stroke="none"/>
    <path d="M190.8 140.35 L186.35 148.9 176.2 152.4 185.75 146.7 190.8 140.35" fill="url(#gradient9)" fill-rule="evenodd" stroke="none"/>
    <path d="M191.8 148.9 L201.6 144.15 196.25 149.25 191.8 148.9" fill="url(#gradient10)" fill-rule="evenodd" stroke="none"/>
    <path d="M207.3 138.75 L196.85 142.25 203.85 137.5 207.3 138.75" fill="url(#gradient11)" fill-rule="evenodd" stroke="none"/>
    <path d="M206.8 123.9 Q215.95 121.45 225.1 121.3 212.1 123.25 203.75 127.35 L195.25 131.15 206.8 123.9" fill="url(#gradient12)" fill-rule="evenodd" stroke="none"/>
    <path d="M229.05 136.8 Q230.85 138.35 232.05 140.5 L223.5 135.25 229.05 136.8" fill="url(#gradient13)" fill-rule="evenodd" stroke="none"/>
    <path d="M209.85 149.9 L214.95 149.9 204.8 153.05 209.85 149.9" fill="url(#gradient14)" fill-rule="evenodd" stroke="none"/>
    <path d="M190.5 154.3 L181.9 159.4 187.65 154.3 190.5 154.3" fill="url(#gradient15)" fill-rule="evenodd" stroke="none"/>
    <path d="M203.75 127.35 L215.9 128.05 Q220.15 130.1 223.4 132.3 M229.05 136.8 Q230.85 138.35 232.05 140.5 L233.35 143.65 233.45 144.15 260.65 144.2 271.5 142.55 Q278.65 139.25 282.9 119.75 284.4 114.55 283.8 129.3 283.9 142.15 276.55 147.35 271.95 150.4 264.8 150.9 L234.75 152.35 235.6 157.6 234.35 165.5 233.95 167.9 234.2 172.4 M231.75 189.1 Q230.85 191.55 229.55 193.7 227.55 196.1 225.15 197.9 220.65 201.15 214.6 202.35 L207.0 204.25 Q202.15 205.4 197.3 205.15 L191.15 204.25 Q182.75 202.15 177.0 197.2 172.6 193.45 170.5 189.55 166.9 182.3 167.05 173.85 L147.95 185.65 Q139.85 194.75 135.6 204.85 L138.4 180.65 Q141.4 168.75 149.85 160.05 M155.15 153.85 L166.7 140.3 Q159.85 140.1 150.8 136.4 144.55 125.45 145.4 116.95 146.7 111.05 147.0 115.65 147.3 120.25 154.3 130.85 161.95 134.85 172.2 135.15 L175.3 132.2 Q175.8 131.1 176.6 130.1 M178.65 128.2 Q179.3 127.7 180.0 127.3 M182.55 126.15 L186.2 126.35 M191.45 126.65 L191.55 126.65 M220.35 150.9 Q220.2 147.8 222.55 145.9 L233.45 144.15 M169.5 137.75 L172.2 135.15 M166.7 140.3 L169.5 137.75 M205.65 172.7 L198.75 165.35 189.95 166.9 Q188.9 171.55 190.5 176.95 M199.75 188.3 L206.85 191.35 208.25 186.3 Q208.55 182.8 208.2 178.85 208.05 177.2 205.65 172.7 L210.2 177.45 216.2 183.7 219.7 183.7 Q225.15 182.95 227.0 178.7 L231.25 172.1 233.95 167.9 M189.95 166.9 L173.65 169.8 169.65 172.25 167.05 173.85 M225.75 154.25 L224.45 154.5 Q220.15 153.7 220.35 150.9 M234.75 152.35 L225.75 154.25" fill="none" stroke="#000000" stroke-linecap="round" stroke-linejoin="round" stroke-opacity="0.4" stroke-width="0.05"/>
    <path d="M208.65 121.75 L210.2 121.3 M223.4 132.3 Q231.75 136.05 241.3 136.2 235.05 138.6 229.05 136.8 M149.85 160.05 Q153.6 153.65 149.85 143.55 153.25 149.9 152.9 154.7 L153.15 152.95 Q154.25 146.0 157.15 141.95 154.35 147.9 155.15 153.85 M176.6 130.1 Q177.95 126.55 174.3 120.65 178.8 124.4 178.65 128.2 M180.0 127.3 Q184.1 123.15 181.9 115.25 184.65 122.55 182.55 126.15 M186.2 126.35 Q194.55 124.7 200.35 118.1 198.15 122.95 191.45 126.65 M191.55 126.65 L208.65 121.75 201.6 125.45 206.8 123.9 Q215.95 121.45 225.1 121.3 212.1 123.25 203.75 127.35 M152.9 154.7 L152.5 156.95" fill="none" stroke="#000000" stroke-linecap="round" stroke-linejoin="round" stroke-opacity="0.4" stroke-width="0.05"/>
    <path d="M190.5 176.95 L190.7 177.5 191.75 180.35 192.7 181.85 M194.8 184.5 Q196.6 186.55 198.75 187.9 L199.75 188.3" fill="none" stroke="#000000" stroke-linecap="round" stroke-linejoin="round" stroke-opacity="0.2" stroke-width="0.05"/>
    <path d="M233.95 179.1 L233.25 183.85 M192.7 181.85 L194.8 184.5" fill="none" stroke="#010101" stroke-linecap="round" stroke-linejoin="round" stroke-opacity="0.0" stroke-width="0.05"/>
    <path d="M234.2 172.4 Q234.25 175.95 233.95 179.1 M233.25 183.85 L231.75 189.1" fill="none" stroke="#010101" stroke-linecap="round" stroke-linejoin="round" stroke-opacity="0.2" stroke-width="0.05"/>
  </g>
  <defs>
    <linearGradient gradientTransform="matrix(-0.0057, -0.0099, 0.0139, -0.008, 188.6, 186.9)" gradientUnits="userSpaceOnUse" id="gradient0" spreadMethod="pad" x1="-819.2" x2="819.2">
      <stop offset="0.0" stop-color="#ffcc00"/>
      <stop offset="1.0" stop-color="#fffae6"/>
      <stop offset="1.0" stop-color="#a28033"/>
    </linearGradient>
    <linearGradient gradientTransform="matrix(0.0042, 0.0042, -0.0114, 0.0114, 179.45, 175.05)" gradientUnits="userSpaceOnUse" id="gradient1" spreadMethod="pad" x1="-819.2" x2="819.2">
      <stop offset="0.0" stop-color="#9b7c00"/>
      <stop offset="1.0" stop-color="#5c4901"/>
      <stop offset="1.0" stop-color="#a28033"/>
    </linearGradient>
    <linearGradient gradientTransform="matrix(0.0101, 0.0101, -0.0113, 0.0113, 217.75, 177.05)" gradientUnits="userSpaceOnUse" id="gradient2" spreadMethod="pad" x1="-819.2" x2="819.2">
      <stop offset="0.0" stop-color="#9b7c00"/>
      <stop offset="1.0" stop-color="#5c4901"/>
      <stop offset="1.0" stop-color="#a28033"/>
    </linearGradient>
    <linearGradient gradientTransform="matrix(0.0316, 0.0046, -0.0029, 0.0202, 199.95, 188.75)" gradientUnits="userSpaceOnUse" id="gradient3" spreadMethod="pad" x1="-819.2" x2="819.2">
      <stop offset="0.0" stop-color="#d2a800"/>
      <stop offset="1.0" stop-color="#5c4901"/>
      <stop offset="1.0" stop-color="#a28033"/>
    </linearGradient>
    <linearGradient gradientTransform="matrix(0.0203, -0.0203, 0.0073, 0.0073, 227.35, 183.65)" gradientUnits="userSpaceOnUse" id="gradient4" spreadMethod="pad" x1="-819.2" x2="819.2">
      <stop offset="0.0" stop-color="#e3b602"/>
      <stop offset="1.0" stop-color="#fee68d"/>
      <stop offset="1.0" stop-color="#a28033"/>
    </linearGradient>
    <linearGradient gradientTransform="matrix(0.0068, 0.0, 0.0, 0.0093, 230.0, 160.0)" gradientUnits="userSpaceOnUse" id="gradient5" spreadMethod="pad" x1="-819.2" x2="819.2">
      <stop offset="0.0" stop-color="#996600"/>
      <stop offset="1.0" stop-color="#984b00"/>
      <stop offset="1.0" stop-color="#a28033"/>
    </linearGradient>
    <linearGradient gradientTransform="matrix(0.0628, 0.0, 0.0, 0.0405, 189.85, 148.45)" gradientUnits="userSpaceOnUse" id="gradient6" spreadMethod="pad" x1="-819.2" x2="819.2">
      <stop offset="0.0" stop-color="#996600"/>
      <stop offset="1.0" stop-color="#984b00"/>
      <stop offset="1.0" stop-color="#a28033"/>
    </linearGradient>
    <linearGradient gradientTransform="matrix(0.0603, 0.0, 0.0, 0.0329, 184.95, 177.85)" gradientUnits="userSpaceOnUse" id="gradient7" spreadMethod="pad" x1="-819.2" x2="819.2">
      <stop offset="0.0" stop-color="#624200"/>
      <stop offset="1.0" stop-color="#5e2f00"/>
      <stop offset="1.0" stop-color="#a28033"/>
    </linearGradient>
    <linearGradient gradientTransform="matrix(0.0023, 0.0, 0.0, 0.0128, 151.75, 154.0)" gradientUnits="userSpaceOnUse" id="gradient8" spreadMethod="pad" x1="-819.2" x2="819.2">
      <stop offset="0.0" stop-color="#624200"/>
      <stop offset="1.0" stop-color="#5e2f00"/>
      <stop offset="1.0" stop-color="#a28033"/>
    </linearGradient>
    <linearGradient gradientTransform="matrix(0.0089, 0.0, 0.0, 0.0074, 183.5, 146.35)" gradientUnits="userSpaceOnUse" id="gradient9" spreadMethod="pad" x1="-819.2" x2="819.2">
      <stop offset="0.0" stop-color="#624200"/>
      <stop offset="1.0" stop-color="#5e2f00"/>
      <stop offset="1.0" stop-color="#a28033"/>
    </linearGradient>
    <linearGradient gradientTransform="matrix(0.006, 0.0, 0.0, 0.0031, 196.7, 146.7)" gradientUnits="userSpaceOnUse" id="gradient10" spreadMethod="pad" x1="-819.2" x2="819.2">
      <stop offset="0.0" stop-color="#624200"/>
      <stop offset="1.0" stop-color="#5e2f00"/>
      <stop offset="1.0" stop-color="#a28033"/>
    </linearGradient>
    <linearGradient gradientTransform="matrix(0.0064, 0.0, 0.0, 0.0029, 202.05, 139.85)" gradientUnits="userSpaceOnUse" id="gradient11" spreadMethod="pad" x1="-819.2" x2="819.2">
      <stop offset="0.0" stop-color="#624200"/>
      <stop offset="1.0" stop-color="#5e2f00"/>
      <stop offset="1.0" stop-color="#a28033"/>
    </linearGradient>
    <linearGradient gradientTransform="matrix(0.0182, 0.0, 0.0, 0.006, 210.15, 126.2)" gradientUnits="userSpaceOnUse" id="gradient12" spreadMethod="pad" x1="-819.2" x2="819.2">
      <stop offset="0.0" stop-color="#624200"/>
      <stop offset="1.0" stop-color="#5e2f00"/>
      <stop offset="1.0" stop-color="#a28033"/>
    </linearGradient>
    <linearGradient gradientTransform="matrix(0.0052, 0.0, 0.0, 0.0032, 227.75, 137.85)" gradientUnits="userSpaceOnUse" id="gradient13" spreadMethod="pad" x1="-819.2" x2="819.2">
      <stop offset="0.0" stop-color="#624200"/>
      <stop offset="1.0" stop-color="#5e2f00"/>
      <stop offset="1.0" stop-color="#a28033"/>
    </linearGradient>
    <linearGradient gradientTransform="matrix(0.0062, 0.0, 0.0, 0.0019, 209.85, 151.45)" gradientUnits="userSpaceOnUse" id="gradient14" spreadMethod="pad" x1="-819.2" x2="819.2">
      <stop offset="0.0" stop-color="#624200"/>
      <stop offset="1.0" stop-color="#5e2f00"/>
      <stop offset="1.0" stop-color="#a28033"/>
    </linearGradient>
    <linearGradient gradientTransform="matrix(0.0052, 0.0, 0.0, 0.0031, 186.2, 156.85)" gradientUnits="userSpaceOnUse" id="gradient15" spreadMethod="pad" x1="-819.2" x2="819.2">
      <stop offset="0.0" stop-color="#624200"/>
      <stop offset="1.0" stop-color="#5e2f00"/>
      <stop offset="1.0" stop-color="#a28033"/>
    </linearGradient>
  </defs>
</svg>
