<?xml version="1.0" encoding="UTF-8" standalone="no"?>
<svg xmlns:xlink="http://www.w3.org/1999/xlink" height="57.2px" width="62.4px" xmlns="http://www.w3.org/2000/svg">
  <g transform="matrix(1.0, 0.0, 0.0, 1.0, 29.85, 28.2)">
    <path d="M-19.3 -20.3 L-18.7 -20.8 -17.35 -17.3 -17.6 -21.7 -17.35 -21.85 -16.85 -22.25 -16.9 -16.2 -14.35 -9.5 -11.15 -1.2 -11.25 -1.15 -14.65 -9.35 -19.3 -20.3 M-3.05 -27.0 L-2.95 -27.0 -1.75 -27.1 -0.9 -12.5 -0.35 -3.4 -0.75 -3.35 -1.65 -12.45 -3.05 -27.0 M13.95 -24.85 L15.1 -24.35 12.4 -10.6 12.1 -10.65 13.95 -24.85 M17.95 -22.9 L19.0 -22.3 15.05 -12.4 15.05 -14.0 14.85 -11.85 14.1 -10.0 10.9 -2.2 13.6 -10.15 17.95 -22.9 M12.2 27.2 L11.85 27.3 10.4 22.85 10.65 20.95 10.65 21.0 11.0 21.45 11.25 22.6 12.2 27.2 M0.85 28.75 L-0.2 28.7 0.95 23.95 1.15 22.8 2.0 22.8 1.8 23.95 0.85 28.75 M-8.45 27.4 L-9.35 27.1 -9.4 22.3 -9.8 20.7 -9.2 21.0 -9.8 20.7 -9.2 20.9 -9.2 20.95 -9.0 21.05 -8.85 22.45 -8.45 27.4 M-24.65 16.15 L-24.9 15.8 -21.5 13.85 -18.8 12.5 -21.35 14.1 -24.65 16.15 M-29.1 2.8 L-29.1 2.5 -29.1 2.45 -29.1 2.4 -24.65 4.05 -24.15 4.25 -18.45 6.7 -24.15 4.6 -29.1 2.8 M-24.55 -13.8 L-24.25 -14.25 -17.45 -7.4 -11.3 -1.1 -11.5 -1.0 -16.75 -6.1 -17.8 -7.1 -24.6 -13.75 -24.55 -13.8 M26.9 5.45 L31.85 4.25 26.9 5.75 20.0 7.85 19.85 7.15 26.85 5.45 26.9 5.55 26.9 5.45 M20.85 17.45 L23.85 20.0 20.5 17.75 18.0 15.95 20.85 17.45 M-9.2 20.95 L-9.2 21.0 -9.2 20.95" fill="#cccccc" fill-rule="evenodd" stroke="none"/>
    <path d="M-24.25 -14.25 L-24.2 -14.35 -21.85 -17.6 -19.3 -20.3 -14.65 -9.35 -14.85 -9.25 -16.65 -8.05 -17.45 -7.4 -24.25 -14.25 M-18.7 -20.8 L-17.6 -21.7 -17.35 -17.3 -18.7 -20.8 M-16.85 -22.25 Q-11.15 -26.25 -3.05 -27.0 L-1.65 -12.45 Q-9.6 -12.0 -14.35 -9.5 L-16.9 -16.2 -16.85 -22.25 M13.4 -25.15 L13.95 -24.85 12.1 -10.65 Q7.1 -12.25 3.2 -12.6 L-0.7 -12.5 -0.85 -12.5 -0.9 -12.5 -1.75 -27.1 0.45 -27.2 Q6.6 -27.35 13.4 -25.15 M15.1 -24.35 L17.95 -22.9 13.6 -10.15 12.5 -10.55 12.4 -10.6 15.1 -24.35 M19.0 -22.3 L20.55 -21.3 23.45 -18.65 Q30.15 -11.8 31.8 -3.65 L32.2 -0.85 32.3 1.95 32.2 4.1 32.2 4.15 Q31.35 13.55 24.1 20.25 L23.15 21.1 Q18.2 25.3 12.2 27.2 L11.25 22.6 14.35 21.45 14.4 21.45 14.65 21.3 15.8 20.75 19.4 18.6 20.5 17.75 23.85 20.0 20.85 17.45 23.3 15.05 23.45 14.85 24.45 13.55 24.6 13.35 Q26.25 10.75 26.75 7.85 L26.85 6.7 26.9 5.75 31.85 4.25 32.2 4.1 31.85 4.25 32.2 4.15 31.85 4.25 26.9 5.45 26.9 5.3 Q26.85 3.65 26.45 2.15 25.95 0.1 24.8 -1.75 23.7 -3.55 22.1 -5.15 L20.0 -6.95 19.4 -7.35 18.85 -7.7 18.5 -7.95 18.2 -8.15 15.35 -9.5 14.9 -9.7 15.05 -12.4 19.0 -22.3 M11.85 27.3 Q7.05 28.75 1.55 28.75 L0.85 28.75 1.8 23.95 2.75 23.95 2.95 23.95 3.25 23.9 3.55 23.9 10.4 22.85 11.85 27.3 M-0.2 28.7 Q-4.55 28.5 -8.45 27.4 L-8.85 22.45 Q-5.3 23.55 -1.25 23.85 L0.95 23.95 -0.2 28.7 M-9.35 27.1 Q-15.25 25.2 -20.1 21.1 -22.8 18.75 -24.65 16.15 L-21.35 14.1 Q-19.55 16.5 -16.65 18.6 -14.25 20.3 -11.5 21.5 L-11.35 21.55 -9.4 22.3 -9.35 27.1 M-24.9 15.8 Q-28.95 10.0 -29.1 2.8 L-24.15 4.6 -24.2 5.55 -24.05 7.75 -23.75 9.1 -22.9 11.5 -21.5 13.85 -24.9 15.8 M-17.8 -7.1 L-19.45 -5.15 Q-22.55 -2.1 -23.65 1.6 L-24.0 3.25 -24.65 4.05 -24.0 3.25 -24.15 4.25 -24.65 4.05 -29.1 2.4 Q-29.1 -6.35 -24.6 -13.75 L-17.8 -7.1 M15.05 -12.4 L14.85 -11.85 15.05 -14.0 15.05 -12.4 M31.8 -3.65 L25.6 -2.0 24.8 -1.75 25.6 -2.0 31.8 -3.65 M24.1 20.25 L23.85 20.0 24.1 20.25 M32.2 -0.85 L25.6 -2.0 32.2 -0.85" fill="#f8f7e6" fill-rule="evenodd" stroke="none"/>
    <path d="M-17.45 -7.4 L-16.65 -8.05 -14.85 -9.25 -14.65 -9.35 -11.25 -1.15 -11.3 -1.1 -17.45 -7.4 M-17.8 -7.1 L-16.75 -6.1 -11.5 -1.0 Q-13.75 0.15 -15.0 1.95 -17.35 4.1 -18.2 6.75 L-18.6 8.85 -18.6 9.6 Q-18.6 10.7 -18.15 11.6 L-18.35 11.9 -18.3 12.05 -18.2 11.7 Q-17.2 16.0 -12.9 18.95 L-9.8 20.7 -9.4 22.3 -11.35 21.55 -11.5 21.5 Q-14.25 20.3 -16.65 18.6 -19.55 16.5 -21.35 14.1 L-18.8 12.5 -21.5 13.85 -22.9 11.5 -23.75 9.1 -24.05 7.75 -24.2 5.55 -24.15 4.6 -18.45 6.7 -18.2 6.75 -18.45 6.7 -24.15 4.25 -24.0 3.25 -23.65 1.6 Q-22.55 -2.1 -19.45 -5.15 L-17.8 -7.1 M-16.75 -6.1 L-24.0 3.25 -16.75 -6.1 M-0.35 -3.4 L-0.9 -12.5 -0.85 -12.5 -0.7 -12.5 3.2 -12.6 Q7.1 -12.25 12.1 -10.65 L10.55 -1.5 9.25 -1.95 Q5.3 -3.15 2.2 -3.4 L-0.35 -3.4 M-1.65 -12.45 L-0.75 -3.35 Q-7.35 -3.1 -11.15 -1.2 L-14.35 -9.5 Q-9.6 -12.0 -1.65 -12.45 M13.85 -0.5 L14.9 -9.7 15.35 -9.5 18.2 -8.15 18.5 -7.95 18.85 -7.7 19.4 -7.35 20.0 -6.95 22.1 -5.15 Q23.7 -3.55 24.8 -1.75 25.95 0.1 26.45 2.15 26.85 3.65 26.9 5.3 L26.9 5.45 26.85 5.45 19.85 7.15 Q19.1 4.3 16.55 1.95 L15.35 0.95 14.95 0.65 14.5 0.35 13.8 -0.1 13.85 -0.5 M24.8 -1.75 L15.35 0.95 24.8 -1.75 M-9.0 21.05 L-8.95 21.05 Q-5.45 22.45 -1.2 22.7 L0.8 22.8 1.1 22.8 1.15 22.8 0.95 23.95 -1.25 23.85 Q-5.3 23.55 -8.85 22.45 L-9.0 21.05 M10.65 20.95 L10.4 22.85 3.55 23.9 3.25 23.9 2.95 23.95 2.75 23.95 1.8 23.95 2.0 22.8 2.25 22.75 2.45 22.75 Q6.45 22.55 10.65 20.95 M-18.35 11.9 L-18.8 12.5 -18.35 11.9" fill="url(#gradient0)" fill-rule="evenodd" stroke="none"/>
    <path d="M10.55 -1.5 L12.1 -10.65 12.4 -10.6 12.5 -10.55 13.6 -10.15 10.9 -2.2 14.1 -10.0 14.3 -9.9 14.65 -9.8 13.85 -0.5 13.8 -0.1 13.6 -0.25 10.65 -1.5 10.55 -1.5 M26.9 5.75 L26.85 6.7 26.75 7.85 Q26.25 10.75 24.6 13.35 L24.45 13.55 23.45 14.85 23.3 15.05 20.85 17.45 18.0 15.95 20.5 17.75 19.4 18.6 15.8 20.75 14.65 21.3 14.4 21.45 14.35 21.45 11.25 22.6 11.0 21.45 10.9 20.9 11.75 20.5 14.5 18.95 Q16.35 17.7 17.6 16.25 L18.0 15.75 17.95 15.75 18.05 15.6 18.15 15.5 18.3 15.3 18.45 15.2 18.65 14.9 Q19.75 13.15 20.1 11.25 L20.2 9.6 20.05 8.1 20.0 7.85 26.9 5.75 M10.9 -2.2 L10.65 -1.5 10.9 -2.2" fill="url(#gradient1)" fill-rule="evenodd" stroke="none"/>
    <path d="M19.85 7.15 L20.0 7.85 20.05 8.1 20.2 9.6 20.1 11.25 Q19.75 13.15 18.65 14.9 L18.45 15.2 18.3 15.3 18.15 15.5 18.05 15.6 17.95 15.75 13.65 4.15 17.95 15.75 17.85 15.9 17.6 16.25 Q16.35 17.7 14.5 18.95 L11.75 20.5 10.9 20.9 10.65 21.0 10.65 20.95 10.65 20.8 10.65 20.95 Q6.45 22.55 2.45 22.75 L2.25 22.75 2.0 22.8 1.15 22.8 1.1 22.8 0.8 22.8 -1.2 22.7 Q-5.45 22.45 -8.95 21.05 L-9.0 21.05 -9.2 20.95 -9.2 20.9 -8.5 5.85 -9.2 20.9 -9.8 20.7 -12.9 18.95 Q-17.2 16.0 -18.2 11.7 L-18.3 12.05 -18.35 11.9 -18.15 11.6 -13.15 3.4 -18.15 11.6 Q-18.6 10.7 -18.6 9.6 L-18.6 8.85 -18.2 6.75 Q-17.35 4.1 -15.0 1.95 L-13.15 3.4 -13.1 3.45 -12.9 3.6 Q-10.85 4.95 -8.5 5.85 L-8.3 5.9 -7.95 6.05 Q-4.65 7.15 -0.75 7.35 L0.3 7.4 0.8 7.4 1.4 7.4 Q5.45 7.35 8.9 6.3 L9.85 5.95 10.4 16.15 0.7 15.25 0.3 7.4 0.7 15.25 10.4 16.15 9.85 5.95 10.4 5.75 13.65 4.15 14.5 3.6 15.9 2.45 16.55 1.95 Q19.1 4.3 19.85 7.15 M0.7 15.25 L1.1 22.8 0.7 15.25 M10.6 19.7 L10.65 20.8 10.65 19.7 10.6 19.7 10.4 16.15 10.6 19.7 M-9.8 20.7 L-9.2 21.0 -9.8 20.7" fill="#a6a6a6" fill-rule="evenodd" stroke="none"/>
    <path d="M17.95 15.75 L18.0 15.75 17.6 16.25 17.85 15.9 17.95 15.75 M18.0 15.75 L17.85 15.9 18.0 15.75" fill="#c69500" fill-rule="evenodd" stroke="none"/>
    <path d="M-24.2 -14.35 L-21.85 -17.6 -19.3 -20.3 -18.7 -20.8 -17.6 -21.7 M-17.35 -21.85 L-16.85 -22.25 Q-11.15 -26.25 -3.05 -27.0 L-2.95 -27.0 -2.75 -27.95 8.3 -26.95 13.4 -25.15 13.95 -24.85 15.1 -24.35 17.95 -22.9 19.0 -22.3 20.55 -21.3 23.45 -18.65 Q30.15 -11.8 31.8 -3.65 L32.2 -0.85 32.3 1.95 32.2 4.1 32.2 4.15 Q31.35 13.55 24.1 20.25 L23.15 21.1 Q18.2 25.3 12.2 27.2 L11.85 27.3 Q7.05 28.75 1.55 28.75 L0.85 28.75 -0.2 28.7 Q-4.55 28.5 -8.45 27.4 L-9.35 27.1 Q-15.25 25.2 -20.1 21.1 -22.8 18.75 -24.65 16.15 L-24.9 15.8 Q-28.95 10.0 -29.1 2.8 L-29.1 2.5 -29.1 2.45 -29.6 2.1 -28.95 -5.8 -25.5 -13.9 -24.55 -13.8 -24.25 -14.25 M-24.6 -13.75 L-24.55 -13.8 M-11.5 -1.0 L-11.3 -1.1 -11.25 -1.15 -11.15 -1.2 Q-7.35 -3.1 -0.75 -3.35 L-0.35 -3.4 2.2 -3.4 Q5.3 -3.15 9.25 -1.95 L10.55 -1.5 10.65 -1.5 13.6 -0.25 13.8 -0.1 14.5 0.35 14.95 0.65 15.35 0.95 16.55 1.95 15.9 2.45 14.5 3.6 13.65 4.15 10.4 5.75 9.85 5.95 8.9 6.3 Q5.45 7.35 1.4 7.4 L0.8 7.4 0.3 7.4 -0.75 7.35 Q-4.65 7.15 -7.95 6.05 L-8.3 5.9 -8.5 5.85 Q-10.85 4.95 -12.9 3.6 L-13.1 3.45 M-15.0 1.95 L-13.15 3.4 M-15.0 1.95 Q-13.75 0.15 -11.5 -1.0 M-29.1 2.45 L-29.1 2.4" fill="none" stroke="#648281" stroke-linecap="round" stroke-linejoin="round" stroke-width="0.5"/>
    <path d="M-24.25 -14.25 L-24.2 -14.35 M-17.6 -21.7 L-17.35 -21.85 M-14.65 -9.35 L-19.3 -20.3 M-17.6 -21.7 L-17.35 -17.3 M-17.8 -7.1 L-16.75 -6.1 -11.5 -1.0 M-17.8 -7.1 L-24.6 -13.75 M-29.1 2.4 L-24.65 4.05 -24.0 3.25 -16.75 -6.1 M10.55 -1.5 L12.1 -10.65 13.95 -24.85 M-0.75 -3.35 L-1.65 -12.45 -3.05 -27.0 M24.8 -1.75 L25.6 -2.0 31.8 -3.65 M13.6 -10.15 L17.95 -22.9 M10.9 -2.2 L13.6 -10.15 M32.2 4.1 L31.85 4.25 32.2 4.15 M26.9 5.45 L31.85 4.25 M20.85 17.45 L23.85 20.0 24.1 20.25 M18.0 15.95 L20.85 17.45 M26.85 5.45 L26.9 5.45 M26.85 5.45 L19.85 7.15 M13.65 4.15 L17.95 15.75 M17.85 15.9 L18.0 15.75 M25.6 -2.0 L32.2 -0.85 M15.35 0.95 L24.8 -1.75 M13.8 -0.1 L13.85 -0.5 M10.65 -1.5 L10.9 -2.2 M0.3 7.4 L0.7 15.25 10.4 16.15 9.85 5.95 M-8.5 5.85 L-9.2 20.9 -9.2 20.95 -9.2 21.0 M1.1 22.8 L0.7 15.25 M10.65 20.8 L10.6 19.7 10.4 16.15 M10.65 20.8 L10.65 20.95 10.4 22.85 11.85 27.3 M10.65 19.7 L10.65 20.8 M-11.25 -1.15 L-14.65 -9.35 M-13.15 3.4 L-18.15 11.6 M-9.8 20.7 L-9.2 20.9 M-18.2 6.75 L-18.45 6.7 -24.15 4.25 -24.65 4.05 M-21.5 13.85 L-18.8 12.5 -18.35 11.9 M-9.4 22.3 L-9.8 20.7 M1.15 22.8 L0.95 23.95 -0.2 28.7 M-9.4 22.3 L-9.35 27.1 M-24.9 15.8 L-21.5 13.85" fill="none" stroke="#596a63" stroke-linecap="round" stroke-linejoin="round" stroke-width="0.1"/>
  </g>
  <defs>
    <linearGradient gradientTransform="matrix(0.0078, -0.0224, 0.0069, 0.0024, -7.05, 2.85)" gradientUnits="userSpaceOnUse" id="gradient0" spreadMethod="pad" x1="-819.2" x2="819.2">
      <stop offset="0.0" stop-color="#aec5d9"/>
      <stop offset="1.0" stop-color="#dbd2f0"/>
    </linearGradient>
    <linearGradient gradientTransform="matrix(0.0078, -0.0224, 0.0069, 0.0024, -7.05, 2.85)" gradientUnits="userSpaceOnUse" id="gradient1" spreadMethod="pad" x1="-819.2" x2="819.2">
      <stop offset="0.0" stop-color="#aec5d9"/>
      <stop offset="1.0" stop-color="#f8f7e6"/>
    </linearGradient>
  </defs>
</svg>
