<?xml version="1.0" encoding="UTF-8" standalone="no"?>
<svg xmlns:xlink="http://www.w3.org/1999/xlink" height="136.35px" width="73.0px" xmlns="http://www.w3.org/2000/svg">
  <g transform="matrix(1.0, 0.0, 0.0, 1.0, 36.55, 68.2)">
    <path d="M7.0 -56.3 L6.4 -55.95 5.4 -58.9 4.05 -62.05 6.15 -61.9 Q7.75 -58.85 7.0 -56.3 M2.75 -14.75 L4.0 -13.55 Q4.6 -11.8 2.75 -10.85 L2.75 -14.75 M3.4 3.95 Q3.8 4.7 2.85 5.7 L2.8 4.85 2.2 2.85 3.4 3.95 M-28.4 -8.9 L-28.4 -9.95 -27.3 -11.05 -26.7 -10.4 -28.4 -8.9 M-13.4 -5.55 Q-12.95 -5.25 -12.7 -4.6 L-13.9 -4.15 -15.25 -5.1 -14.5 -5.25 -13.4 -5.55 M-13.65 14.3 L-11.85 13.6 -11.0 14.3 Q-10.7 14.6 -10.5 15.05 L-10.35 15.9 -11.85 17.05 -12.95 15.8 -14.15 14.5 -13.65 14.3 M-11.0 14.3 L-12.95 15.8 -11.0 14.3 M-29.8 8.45 L-31.1 6.65 -29.8 5.55 -29.8 8.45 M-6.65 33.25 L-5.85 33.0 Q-2.8 35.15 -1.55 38.5 L-3.45 38.95 Q-4.05 36.1 -6.65 33.25" fill="#c20707" fill-rule="evenodd" stroke="none"/>
    <path d="M-28.15 -20.15 L-30.05 -20.15 -33.9 -27.6 -32.75 -29.7 Q-31.65 -24.5 -28.6 -23.3 -22.9 -23.65 -18.95 -27.35 L-6.0 -60.35 Q-1.55 -64.8 2.85 -64.55 L5.0 -63.9 6.15 -61.9 4.05 -62.05 Q-0.05 -62.0 -4.0 -58.3 L-12.2 -35.0 -15.25 -26.3 -15.65 -25.9 Q-20.85 -21.5 -28.15 -20.15" fill="url(#gradient0)" fill-rule="evenodd" stroke="none"/>
    <path d="M-32.75 -29.7 Q-30.55 -33.2 -26.7 -35.85 L-18.6 -34.7 -16.75 -39.0 -10.4 -59.95 Q-7.75 -65.45 -3.6 -66.55 -0.5 -68.05 3.2 -67.6 5.95 -65.7 7.1 -63.3 L7.8 -61.3 Q8.6 -57.6 7.0 -56.3 7.75 -58.85 6.15 -61.9 L5.0 -63.9 2.85 -64.55 Q-1.55 -64.8 -6.0 -60.35 L-18.95 -27.35 Q-22.9 -23.65 -28.6 -23.3 -31.65 -24.5 -32.75 -29.7 M-18.6 -34.7 L-19.7 -32.25 -20.0 -31.9 -19.7 -32.25 -18.6 -34.7 M-20.0 -31.9 L-25.55 -32.1 -28.6 -29.7 -26.9 -27.35 Q-22.8 -28.95 -20.0 -31.9" fill="url(#gradient1)" fill-rule="evenodd" stroke="none"/>
    <path d="M6.4 -55.95 Q9.25 -46.3 5.95 -38.75 L4.15 -34.85 1.65 -31.0 0.3 -29.4 2.95 -35.65 Q5.05 -43.15 5.3 -48.5 4.75 -54.2 2.3 -58.9 L5.4 -58.9 6.4 -55.95" fill="url(#gradient2)" fill-rule="evenodd" stroke="none"/>
    <path d="M35.55 51.55 L35.2 53.2 32.9 55.1 32.8 55.45 Q22.85 61.1 13.0 62.15 3.15 63.2 -10.25 53.15 L-11.95 50.8 -12.45 51.95 Q-13.3 54.3 -11.65 57.55 -13.8 55.6 -15.25 53.4 L-15.45 53.1 -15.45 51.9 -12.75 48.6 -14.0 47.35 -17.75 47.5 Q-19.95 47.45 -19.8 46.15 L-19.8 43.9 -18.7 42.7 -16.85 41.0 Q-15.7 42.35 -13.85 42.65 L-7.3 41.25 -3.9 40.5 -3.15 40.35 -3.9 40.5 -3.45 38.95 -1.55 38.5 Q-1.4 39.4 -1.7 40.05 L-3.15 40.35 Q-8.2 43.55 -12.35 48.15 L-12.75 48.6 -12.35 48.15 -11.45 49.6 Q-8.5 54.05 -3.9 56.2 L-2.0 57.25 Q5.45 61.2 10.65 61.45 27.05 58.65 33.3 53.75 L35.55 51.55 M5.4 -58.9 L2.3 -58.9 Q-0.25 -57.45 -3.4 -54.4 L-5.2 -49.45 -6.25 -45.65 -11.85 -28.9 Q-12.25 -31.55 -12.2 -35.0 -12.25 -31.55 -11.85 -28.9 L-12.8 -28.55 -15.35 -23.6 -15.65 -25.9 -15.25 -26.3 -12.2 -35.0 -4.0 -58.3 Q-0.05 -62.0 4.05 -62.05 L5.4 -58.9 M14.7 34.5 L16.5 33.05 17.5 33.05 18.3 33.95 16.05 33.95 14.7 34.5 M-28.6 -29.7 L-25.55 -32.1 -20.0 -31.9 Q-22.8 -28.95 -26.9 -27.35 L-28.6 -29.7 M-26.3 2.6 L-25.9 -2.0 -22.95 -3.75 -19.5 -2.55 -22.7 -0.65 -23.75 1.45 -23.75 4.0 -26.3 2.6 M-12.7 -4.6 L-12.5 -3.85 -12.5 4.2 -13.65 5.0 -13.9 -4.15 -12.7 -4.6 M-10.35 15.9 L-10.35 24.95 -11.85 26.2 -11.85 17.05 -10.35 15.9 M-14.6 17.05 L-18.2 19.75 -21.5 20.75 -22.5 25.15 -23.9 24.4 -23.1 20.1 -21.15 19.4 -19.45 17.25 -14.6 17.05 M-14.0 47.35 L-7.3 41.25 -14.0 47.35" fill="#940606" fill-rule="evenodd" stroke="none"/>
    <path d="M4.15 -34.85 L4.35 -33.05 2.85 -30.15 Q4.15 -25.8 -0.8 -19.05 -3.8 -18.0 -7.85 -20.75 -11.0 -22.55 -11.85 -28.9 L-6.25 -45.65 Q-7.05 -42.15 -7.25 -38.05 -7.6 -33.55 -6.4 -29.65 -5.5 -26.8 -3.9 -25.7 -1.95 -25.4 -0.6 -26.6 L1.65 -31.0 4.15 -34.85" fill="url(#gradient3)" fill-rule="evenodd" stroke="none"/>
    <path d="M-6.25 -45.65 L-5.2 -49.45 -3.4 -54.4 Q-5.1 -47.05 -5.15 -41.6 -5.35 -37.75 -4.85 -34.1 -3.75 -28.65 -1.25 -27.75 L0.3 -29.4 1.65 -31.0 -0.6 -26.6 Q-1.95 -25.4 -3.9 -25.7 -5.5 -26.8 -6.4 -29.65 -7.6 -33.55 -7.25 -38.05 -7.05 -42.15 -6.25 -45.65" fill="url(#gradient4)" fill-rule="evenodd" stroke="none"/>
    <path d="M-3.4 -54.4 Q-0.25 -57.45 2.3 -58.9 4.75 -54.2 5.3 -48.5 5.05 -43.15 2.95 -35.65 L0.3 -29.4 -1.25 -27.75 Q-3.75 -28.65 -4.85 -34.1 -5.35 -37.75 -5.15 -41.6 -5.1 -47.05 -3.4 -54.4 M-0.25 -35.15 Q0.15 -35.1 0.85 -36.0 3.75 -46.1 1.7 -52.75 -0.4 -58.25 -1.4 -55.25 L-3.0 -50.8 Q-0.85 -55.3 -0.1 -52.9 1.25 -50.65 1.4 -45.45 1.15 -39.4 -0.25 -35.15 -1.65 -35.25 -0.2 -45.55 -1.65 -35.25 -0.25 -35.15 M-3.0 -50.8 L-3.55 -49.45 Q-4.55 -46.25 -5.15 -41.6 -4.55 -46.25 -3.55 -49.45 L-3.0 -50.8" fill="url(#gradient5)" fill-rule="evenodd" stroke="none"/>
    <path d="M4.35 -33.05 Q4.65 -28.6 2.95 -24.1 L1.6 -20.75 0.85 -20.0 -0.8 -19.05 Q4.15 -25.8 2.85 -30.15 L4.35 -33.05 M2.05 1.75 L4.6 3.15 Q5.9 3.7 5.7 4.65 L5.6 5.0 Q5.25 6.05 4.2 6.9 L2.0 8.55 -3.3 11.05 -7.75 14.75 -7.8 12.65 -6.45 11.5 -3.9 9.35 1.0 7.25 Q2.85 6.15 2.85 5.7 3.8 4.7 3.4 3.95 L2.2 2.85 2.05 2.45 2.05 1.75 M35.9 44.55 Q36.15 48.0 35.55 51.55 L33.3 53.75 33.7 50.1 Q34.35 43.9 24.05 45.0 25.2 44.4 26.4 43.9 32.25 41.55 35.9 44.55 M35.2 53.2 Q34.4 56.35 32.9 59.65 L31.2 60.95 32.8 55.45 32.9 55.1 35.2 53.2 M-29.0 46.35 L-32.5 44.65 Q-34.9 42.75 -35.95 36.75 -36.25 33.45 -35.7 30.4 -35.4 33.75 -32.9 35.35 -32.05 41.75 -29.0 46.35 M-29.9 0.65 L-30.3 0.4 Q-31.2 -0.45 -30.5 -2.75 -29.45 -3.9 -30.75 -7.85 L-30.75 -9.55 Q-29.45 -11.85 -28.0 -11.75 L-27.3 -11.05 -28.4 -9.95 -28.4 -8.9 Q-28.15 -8.2 -27.1 -7.45 -25.4 -6.2 -21.4 -4.7 L-17.9 -3.5 -15.25 -5.1 -13.9 -4.15 Q-18.7 -2.25 -21.8 1.45 -22.8 6.8 -21.8 9.9 L-22.1 9.7 -23.75 8.45 -23.75 6.95 -23.75 4.0 -23.75 1.45 -22.7 -0.65 -19.5 -2.55 -22.95 -3.75 Q-27.35 -5.4 -29.7 -7.05 L-28.75 -3.85 -29.95 -1.15 -29.5 0.85 -29.9 0.65 M-30.75 -7.85 L-29.7 -7.05 -30.75 -7.85 M-19.5 -2.55 L-17.9 -3.5 -19.5 -2.55 M-22.75 47.7 L-19.8 43.9 -19.8 46.15 Q-19.95 47.45 -17.75 47.5 L-14.0 47.35 -16.35 49.4 -16.8 50.7 -20.35 49.75 -22.75 47.7" fill="#f40e0b" fill-rule="evenodd" stroke="none"/>
    <path d="M2.95 -24.1 L3.8 -19.45 3.05 -17.1 2.75 -16.35 Q2.0 -12.7 0.8 -9.75 L-0.4 -9.25 Q1.6 -14.35 1.45 -17.8 0.35 -16.6 -2.25 -16.35 -8.75 -17.4 -11.2 -21.7 -13.0 -24.0 -12.8 -28.55 L-11.85 -28.9 Q-11.0 -22.55 -7.85 -20.75 -3.8 -18.0 -0.8 -19.05 L0.85 -20.0 1.6 -20.75 2.95 -24.1" fill="url(#gradient6)" fill-rule="evenodd" stroke="none"/>
    <path d="M3.05 -17.1 L5.9 -14.65 Q6.55 -13.2 6.15 -11.7 3.85 -9.1 -9.1 -4.85 L-9.8 -6.3 -6.15 -7.3 Q-2.75 -8.3 -0.4 -9.25 L0.8 -9.75 2.75 -10.85 Q4.6 -11.8 4.0 -13.55 L2.75 -14.75 2.75 -16.35 3.05 -17.1" fill="url(#gradient7)" fill-rule="evenodd" stroke="none"/>
    <path d="M2.75 -10.85 L0.8 -9.75 Q2.0 -12.7 2.75 -16.35 L2.75 -14.75 2.75 -10.85" fill="url(#gradient8)" fill-rule="evenodd" stroke="none"/>
    <path d="M2.05 -1.5 L2.05 0.15 -1.85 2.55 -6.65 4.55 -6.85 4.6 -9.0 5.35 -9.65 7.05 -13.35 8.9 -14.05 8.15 -20.55 13.15 -22.5 11.6 -22.1 9.7 -21.8 9.9 -14.1 5.3 -12.5 6.75 -10.2 5.9 -9.95 3.6 Q-4.6 0.1 0.8 -0.85 L2.05 -1.5" fill="url(#gradient9)" fill-rule="evenodd" stroke="none"/>
    <path d="M6.15 -11.7 L5.9 -11.05 Q4.3 -7.9 4.2 -3.85 4.0 -2.7 2.05 -1.5 L0.8 -0.85 Q-4.6 0.1 -9.95 3.6 L-9.1 -4.85 Q3.85 -9.1 6.15 -11.7" fill="url(#gradient10)" fill-rule="evenodd" stroke="none"/>
    <path d="M-3.0 -50.8 L-1.4 -55.25 Q-0.4 -58.25 1.7 -52.75 3.75 -46.1 0.85 -36.0 0.15 -35.1 -0.25 -35.15 1.15 -39.4 1.4 -45.45 1.25 -50.65 -0.1 -52.9 -0.85 -55.3 -3.0 -50.8" fill="url(#gradient11)" fill-rule="evenodd" stroke="none"/>
    <path d="M-27.75 -18.3 L-28.15 -20.15 Q-20.85 -21.5 -15.65 -25.9 L-15.35 -23.6 -19.55 -20.0 -24.7 -18.7 -27.75 -18.3" fill="url(#gradient12)" fill-rule="evenodd" stroke="none"/>
    <path d="M2.05 0.15 L2.05 1.75 2.05 2.45 2.2 2.85 2.8 4.85 2.85 5.7 Q2.85 6.15 1.0 7.25 L-3.9 9.35 -6.45 11.5 Q-8.45 10.55 -8.7 8.75 L-6.85 4.6 -6.65 4.55 -1.85 2.55 2.05 0.15 M3.75 17.65 Q7.2 21.95 9.3 27.6 L5.7 29.7 -1.75 31.95 -2.7 30.85 -4.8 30.9 Q-7.3 29.65 -6.5 26.45 L-4.3 22.05 3.75 17.65 M20.0 34.35 Q26.85 36.1 33.25 39.25 34.8 40.4 35.6 42.15 L35.9 44.55 Q32.25 41.55 26.4 43.9 25.2 44.4 24.05 45.0 L14.85 45.45 Q-0.65 44.15 2.75 41.55 L10.55 38.95 16.05 34.8 19.6 34.25 20.0 34.35 M-35.7 30.4 Q-34.95 26.5 -32.7 23.1 L-33.6 19.35 -32.15 17.95 -31.5 19.7 Q-29.6 24.85 -26.45 29.5 -30.05 26.15 -32.6 20.9 L-31.95 24.4 Q-34.2 30.1 -32.9 35.35 -35.4 33.75 -35.7 30.4 M-30.3 4.65 L-30.9 3.7 -30.25 1.7 -30.2 1.75 -25.95 7.3 -25.0 11.6 -29.5 4.45 -28.6 7.5 -28.85 9.45 -29.8 8.45 -29.8 5.55 -30.3 4.65 M-28.0 -11.75 L-28.0 -12.7 -26.9 -14.4 -27.75 -18.3 -24.7 -18.7 -24.7 -13.05 -21.4 -4.7 -26.5 -11.95 -25.65 -9.4 -27.1 -7.45 Q-28.15 -8.2 -28.4 -8.9 L-26.7 -10.4 -27.3 -11.05 -28.0 -11.75" fill="#fbf4ce" fill-rule="evenodd" stroke="none"/>
    <path d="M-6.15 -7.3 L-9.8 -6.3 Q-10.75 -7.8 -12.1 -7.85 L-15.25 -6.8 -15.25 -5.1 -17.9 -3.5 -21.4 -4.7 -24.7 -13.05 -24.7 -18.7 -19.55 -20.0 -15.35 -23.6 Q-13.5 -12.6 -6.15 -7.3" fill="url(#gradient13)" fill-rule="evenodd" stroke="none"/>
    <path d="M-27.1 -7.45 L-25.65 -9.4 -26.5 -11.95 -21.4 -4.7 Q-25.4 -6.2 -27.1 -7.45" fill="url(#gradient14)" fill-rule="evenodd" stroke="none"/>
    <path d="M-29.5 0.85 L-29.95 -1.15 -28.75 -3.85 -29.7 -7.05 Q-27.35 -5.4 -22.95 -3.75 L-25.9 -2.0 -26.3 2.6 -29.5 0.85" fill="url(#gradient15)" fill-rule="evenodd" stroke="none"/>
    <path d="M-0.4 -9.25 Q-2.75 -8.3 -6.15 -7.3 -13.5 -12.6 -15.35 -23.6 L-12.8 -28.55 Q-13.0 -24.0 -11.2 -21.7 -8.75 -17.4 -2.25 -16.35 0.35 -16.6 1.45 -17.8 1.6 -14.35 -0.4 -9.25" fill="url(#gradient16)" fill-rule="evenodd" stroke="none"/>
    <path d="M-9.95 3.6 L-10.2 5.9 -12.5 6.75 -14.1 5.3 -13.65 5.0 -12.5 4.2 -12.5 5.7 -11.75 5.8 -11.35 -4.25 -9.1 -4.85 -9.95 3.6 M-7.8 12.65 L-7.75 14.75 -7.7 23.35 -7.7 24.25 -8.0 24.9 -8.3 25.55 -9.55 26.25 -10.8 26.95 -11.85 26.2 -10.35 24.95 -10.5 25.75 -9.75 25.0 -9.75 14.75 -7.8 12.65 M2.65 38.2 L2.0 39.45 1.3 40.65 -2.6 41.4 -3.15 40.35 -1.7 40.05 -0.95 40.3 -0.45 38.2 2.65 38.2" fill="#666666" fill-rule="evenodd" stroke="none"/>
    <path d="M-6.85 4.6 L-6.65 4.55 -6.85 4.6 M-23.95 13.25 L-27.2 10.85 -28.85 9.45 -28.6 7.5 -29.5 4.45 -25.0 11.6 -23.95 13.25" fill="#d5c395" fill-rule="evenodd" stroke="none"/>
    <path d="M-22.1 9.7 L-22.5 11.6 -20.55 13.15 -14.05 8.15 -13.35 8.9 -9.65 7.05 -9.0 5.35 -6.85 4.6 -8.7 8.75 Q-8.45 10.55 -6.45 11.5 L-7.8 12.65 -7.8 12.25 Q-8.6 10.25 -9.9 10.45 L-13.65 13.15 -13.65 14.3 -14.15 14.5 -15.5 15.05 Q-19.45 16.0 -23.95 13.25 L-25.0 11.6 -25.95 7.3 -30.2 1.75 -23.75 6.95 -23.75 8.45 -22.1 9.7" fill="url(#gradient17)" fill-rule="evenodd" stroke="none"/>
    <path d="M-14.1 5.3 L-21.8 9.9 Q-22.8 6.8 -21.8 1.45 -18.7 -2.25 -13.9 -4.15 L-13.65 5.0 -14.1 5.3" fill="url(#gradient18)" fill-rule="evenodd" stroke="none"/>
    <path d="M-14.6 17.05 L-12.95 15.8 -11.85 17.05 -17.15 20.9 -20.4 21.95 -21.2 24.85 Q-21.1 29.0 -18.9 29.95 -22.25 29.55 -22.5 25.15 L-21.5 20.75 -18.2 19.75 -14.6 17.05" fill="url(#gradient19)" fill-rule="evenodd" stroke="none"/>
    <path d="M-32.7 7.75 Q-33.45 6.9 -32.7 5.65 L-30.3 4.65 -29.8 5.55 -31.1 6.65 -29.8 8.45 -28.85 9.45 -27.2 10.85 -23.95 13.25 Q-19.45 16.0 -15.5 15.05 L-14.15 14.5 -12.95 15.8 -14.6 17.05 -19.45 17.25 Q-21.85 16.8 -24.6 15.35 -27.75 13.5 -30.35 10.65 L-32.7 7.75" fill="url(#gradient20)" fill-rule="evenodd" stroke="none"/>
    <path d="M-18.9 29.95 Q-21.1 29.0 -21.2 24.85 L-20.4 21.95 -17.15 20.9 -11.85 17.05 -11.85 26.2 -16.5 30.15 -18.9 29.95" fill="url(#gradient21)" fill-rule="evenodd" stroke="none"/>
    <path d="M5.6 5.0 L5.0 7.35 5.0 12.95 Q5.1 14.45 3.6 15.55 L2.4 16.1 Q-2.7 18.5 -7.7 23.35 L-7.75 14.75 -3.3 11.05 2.0 8.55 4.2 6.9 Q5.25 6.05 5.6 5.0" fill="url(#gradient22)" fill-rule="evenodd" stroke="none"/>
    <path d="M2.4 16.1 L3.75 17.65 -4.3 22.05 -8.0 24.9 -7.7 24.25 -7.7 23.35 Q-2.7 18.5 2.4 16.1" fill="url(#gradient23)" fill-rule="evenodd" stroke="none"/>
    <path d="M-30.25 1.7 L-29.9 0.65 -29.5 0.85 -26.3 2.6 -23.75 4.0 -23.75 6.95 -30.2 1.75 -30.25 1.7" fill="#bda259" fill-rule="evenodd" stroke="none"/>
    <path d="M-31.8 17.6 Q-33.05 16.4 -32.7 15.25 -31.6 12.6 -32.7 7.75 L-30.35 10.65 Q-28.5 14.15 -28.95 15.85 L-29.95 17.3 -28.35 21.1 -31.6 17.75 -31.8 17.6" fill="url(#gradient24)" fill-rule="evenodd" stroke="none"/>
    <path d="M-32.15 17.95 L-31.8 17.6 -31.6 17.75 -28.35 21.1 -23.9 24.4 -22.5 25.15 Q-22.25 29.55 -18.9 29.95 L-16.5 30.15 -11.85 26.2 -10.8 26.95 -9.55 26.25 -9.55 27.85 -12.65 29.9 -13.65 32.25 Q-18.0 35.85 -22.25 35.7 -23.4 34.55 -23.35 33.0 L-21.75 30.05 -23.95 26.85 -23.95 25.65 Q-28.45 23.85 -31.5 19.7 L-32.15 17.95" fill="url(#gradient25)" fill-rule="evenodd" stroke="none"/>
    <path d="M-32.9 35.35 Q-34.2 30.1 -31.95 24.4 L-32.6 20.9 Q-30.05 26.15 -26.45 29.5 -29.6 24.85 -31.5 19.7 -28.45 23.85 -23.95 25.65 L-23.95 26.85 -21.75 30.05 -23.35 33.0 Q-23.4 34.55 -22.25 35.7 -18.0 35.85 -13.65 32.25 L-12.65 29.9 -9.55 27.85 -9.55 26.25 -8.3 25.55 -8.0 24.9 -4.3 22.05 -6.5 26.45 Q-7.3 29.65 -4.8 30.9 -5.7 31.1 -6.55 31.6 L-7.3 33.45 -13.95 34.4 -16.55 35.1 Q-17.55 35.8 -17.6 36.75 L-18.05 38.7 -16.85 41.0 -18.7 42.7 -22.2 40.4 Q-27.95 38.45 -32.0 35.85 L-32.9 35.35 M-25.6 30.2 L-26.45 29.5 -25.6 30.2" fill="url(#gradient26)" fill-rule="evenodd" stroke="none"/>
    <path d="M-19.45 17.25 L-21.15 19.4 -23.1 20.1 -23.9 24.4 -28.35 21.1 -29.95 17.3 -28.95 15.85 Q-28.5 14.15 -30.35 10.65 -27.75 13.5 -24.6 15.35 -21.85 16.8 -19.45 17.25" fill="url(#gradient27)" fill-rule="evenodd" stroke="none"/>
    <path d="M-22.95 49.3 L-29.0 46.35 Q-32.05 41.75 -32.9 35.35 L-32.0 35.85 Q-27.95 38.45 -22.2 40.4 L-18.7 42.7 -19.8 43.9 -22.75 47.7 Q-23.05 48.6 -22.95 49.3" fill="url(#gradient28)" fill-rule="evenodd" stroke="none"/>
    <path d="M-16.35 54.0 L-17.95 52.9 -19.1 51.5 -22.35 50.6 Q-22.9 50.1 -22.95 49.3 -23.05 48.6 -22.75 47.7 L-20.35 49.75 -16.8 50.7 -17.25 52.0 -16.35 54.0" fill="url(#gradient29)" fill-rule="evenodd" stroke="none"/>
    <path d="M-17.6 36.75 Q-17.55 35.8 -16.55 35.1 L-13.95 34.4 -7.3 33.45 -6.65 33.25 Q-4.05 36.1 -3.45 38.95 L-13.4 41.15 Q-16.7 39.65 -17.35 37.85 L-17.6 36.75" fill="url(#gradient30)" fill-rule="evenodd" stroke="none"/>
    <path d="M-16.85 41.0 L-18.05 38.7 -17.6 36.75 -17.35 37.85 Q-16.7 39.65 -13.4 41.15 L-3.45 38.95 -3.9 40.5 -7.3 41.25 -13.85 42.65 Q-15.7 42.35 -16.85 41.0" fill="url(#gradient31)" fill-rule="evenodd" stroke="none"/>
    <path d="M-15.25 53.4 L-16.35 54.0 -17.25 52.0 -16.8 50.7 -16.35 49.4 -14.0 47.35 -12.75 48.6 -15.45 51.9 -15.45 53.1 -15.25 53.4" fill="url(#gradient32)" fill-rule="evenodd" stroke="none"/>
    <path d="M2.0 39.45 L14.7 34.5 16.05 33.95 18.3 33.95 19.6 34.25 16.05 34.8 10.55 38.95 2.75 41.55 -3.15 42.9 -11.45 49.6 -12.35 48.15 Q-8.2 43.55 -3.15 40.35 L-2.6 41.4 1.3 40.65 2.0 39.45" fill="url(#gradient33)" fill-rule="evenodd" stroke="none"/>
    <path d="M2.75 41.55 Q-0.65 44.15 14.85 45.45 L24.05 45.0 Q17.1 48.6 11.35 56.1 8.7 60.3 -2.0 57.25 L-3.9 56.2 Q-8.5 54.05 -11.45 49.6 L-3.15 42.9 2.75 41.55" fill="url(#gradient34)" fill-rule="evenodd" stroke="none"/>
    <path d="M31.2 60.95 Q23.3 66.4 12.8 67.65 2.85 67.6 -2.05 63.55 -7.9 60.9 -11.65 57.55 -13.3 54.3 -12.45 51.95 L-11.95 50.8 -10.25 53.15 Q3.15 63.2 13.0 62.15 22.85 61.1 32.8 55.45 L31.2 60.95" fill="url(#gradient35)" fill-rule="evenodd" stroke="none"/>
    <path d="M9.3 27.6 L11.05 26.6 12.2 27.25 14.3 30.45 18.15 31.55 14.75 31.55 11.1 34.15 2.15 37.35 Q0.45 34.55 -1.75 31.95 L5.7 29.7 9.3 27.6" fill="url(#gradient36)" fill-rule="evenodd" stroke="none"/>
    <path d="M18.15 31.55 L20.0 34.35 19.6 34.25 18.3 33.95 17.5 33.05 16.5 33.05 14.7 34.5 2.0 39.45 2.65 38.2 2.15 37.35 11.1 34.15 14.75 31.55 18.15 31.55" fill="url(#gradient37)" fill-rule="evenodd" stroke="none"/>
    <path d="M-2.0 57.25 Q8.7 60.3 11.35 56.1 17.1 48.6 24.05 45.0 34.35 43.9 33.7 50.1 L33.3 53.75 Q27.05 58.65 10.65 61.45 5.45 61.2 -2.0 57.25" fill="url(#gradient38)" fill-rule="evenodd" stroke="none"/>
    <path d="M-9.8 -6.3 L-9.1 -4.85 -11.35 -4.25 -11.75 5.8 -12.5 5.7 -12.5 4.2 -12.5 -3.85 -12.7 -4.6 Q-12.95 -5.25 -13.4 -5.55 -13.9 -5.85 -14.5 -5.25 L-15.25 -5.1 -15.25 -6.8 -12.1 -7.85 Q-10.75 -7.8 -9.8 -6.3" fill="url(#gradient39)" fill-rule="evenodd" stroke="none"/>
    <path d="M-13.65 14.3 L-13.65 13.15 -9.9 10.45 Q-8.6 10.25 -7.8 12.25 L-7.8 12.65 -9.75 14.75 -9.75 25.0 -10.5 25.75 -10.35 24.95 -10.35 15.9 -10.5 15.05 Q-10.7 14.6 -11.0 14.3 L-11.85 13.6 -13.65 14.3 M-12.7 13.35 Q-12.25 13.4 -11.85 13.6 -12.25 13.4 -12.7 13.35" fill="url(#gradient40)" fill-rule="evenodd" stroke="none"/>
    <path d="M2.15 37.35 L2.65 38.2 -0.45 38.2 -0.95 40.3 -1.7 40.05 Q-1.4 39.4 -1.55 38.5 -2.8 35.15 -5.85 33.0 L-6.65 33.25 -7.3 33.45 -6.55 31.6 Q-5.7 31.1 -4.8 30.9 L-2.7 30.85 -1.75 31.95 Q0.45 34.55 2.15 37.35" fill="url(#gradient41)" fill-rule="evenodd" stroke="none"/>
    <path d="M-32.75 -29.7 Q-30.55 -33.2 -26.7 -35.85 L-18.6 -34.7 -16.75 -39.0 -10.4 -59.95 Q-7.75 -65.45 -3.6 -66.55 -0.5 -68.05 3.2 -67.6 5.95 -65.7 7.1 -63.3 L7.8 -61.3 Q8.6 -57.6 7.0 -56.3 L6.4 -55.95 Q9.25 -46.3 5.95 -38.75 L4.15 -34.85 4.35 -33.05 Q4.65 -28.6 2.95 -24.1 L3.8 -19.45 3.05 -17.1 5.9 -14.65 Q6.55 -13.2 6.15 -11.7 L5.9 -11.05 Q4.3 -7.9 4.2 -3.85 4.0 -2.7 2.05 -1.5 L2.05 0.15 2.05 1.75 4.6 3.15 Q5.9 3.7 5.7 4.65 L5.6 5.0 5.0 7.35 5.0 12.95 Q5.1 14.45 3.6 15.55 L2.4 16.1 3.75 17.65 Q7.2 21.95 9.3 27.6 L11.05 26.6 12.2 27.25 14.3 30.45 18.15 31.55 20.0 34.35 Q26.85 36.1 33.25 39.25 34.8 40.4 35.6 42.15 L35.9 44.55 Q36.15 48.0 35.55 51.55 L35.2 53.2 Q34.4 56.35 32.9 59.65 L31.2 60.95 Q23.3 66.4 12.8 67.65 2.85 67.6 -2.05 63.55 -7.9 60.9 -11.65 57.55 -13.8 55.6 -15.25 53.4 L-16.35 54.0 -17.95 52.9 -19.1 51.5 -22.35 50.6 Q-22.9 50.1 -22.95 49.3 L-29.0 46.35 -32.5 44.65 Q-34.9 42.75 -35.95 36.75 -36.25 33.45 -35.7 30.4 -34.95 26.5 -32.7 23.1 L-33.6 19.35 -32.15 17.95 -31.8 17.6 Q-33.05 16.4 -32.7 15.25 -31.6 12.6 -32.7 7.75 -33.45 6.9 -32.7 5.65 L-30.3 4.65 -30.9 3.7 -30.25 1.7 -29.9 0.65 -30.3 0.4 Q-31.2 -0.45 -30.5 -2.75 -29.45 -3.9 -30.75 -7.85 L-30.75 -9.55 Q-29.45 -11.85 -28.0 -11.75 L-28.0 -12.7 -26.9 -14.4 -27.75 -18.3 -28.15 -20.15 -30.05 -20.15 -33.9 -27.6 -32.75 -29.7 M4.05 -62.05 L6.15 -61.9 M5.4 -58.9 L6.4 -55.95 M5.4 -58.9 L4.05 -62.05 Q-0.05 -62.0 -4.0 -58.3 L-12.2 -35.0 Q-12.25 -31.55 -11.85 -28.9 -11.0 -22.55 -7.85 -20.75 -3.8 -18.0 -0.8 -19.05 L0.85 -20.0 1.6 -20.75 2.95 -24.1 M0.3 -29.4 L1.65 -31.0 4.15 -34.85 M4.0 -13.55 Q4.6 -11.8 2.75 -10.85 L0.8 -9.75 -0.4 -9.25 Q-2.75 -8.3 -6.15 -7.3 L-9.8 -6.3 -9.1 -4.85 Q3.85 -9.1 6.15 -11.7 M2.75 -16.35 L2.75 -14.75 2.75 -10.85 M2.75 -16.35 L3.05 -17.1 M2.05 -1.5 L0.8 -0.85 Q-4.6 0.1 -9.95 3.6 L-10.2 5.9 -12.5 6.75 -14.1 5.3 -21.8 9.9 -22.1 9.7 -23.75 8.45 -23.75 6.95 -23.75 4.0 -23.75 1.45 -22.7 -0.65 -19.5 -2.55 -17.9 -3.5 -15.25 -5.1 -15.25 -6.8 -12.1 -7.85 Q-10.75 -7.8 -9.8 -6.3 M0.8 -9.75 Q2.0 -12.7 2.75 -16.35 M-3.0 -50.8 L-1.4 -55.25 Q-0.4 -58.25 1.7 -52.75 3.75 -46.1 0.85 -36.0 0.15 -35.1 -0.25 -35.15 -1.65 -35.25 -0.2 -45.55 M3.4 3.95 Q3.8 4.7 2.85 5.7 2.85 6.15 1.0 7.25 L-3.9 9.35 -6.45 11.5 -7.8 12.65 -7.75 14.75 -3.3 11.05 2.0 8.55 4.2 6.9 Q5.25 6.05 5.6 5.0 M2.2 2.85 L2.05 2.45 2.05 1.75 M2.85 5.7 L2.8 4.85 2.2 2.85 M18.15 31.55 L14.75 31.55 11.1 34.15 2.15 37.35 2.65 38.2 2.0 39.45 14.7 34.5 16.5 33.05 17.5 33.05 M18.3 33.95 L19.6 34.25 20.0 34.35 M18.3 33.95 L16.05 33.95 14.7 34.5 M-1.75 31.95 L5.7 29.7 9.3 27.6 M-3.15 40.35 L-2.6 41.4 1.3 40.65 2.0 39.45 M-11.45 49.6 Q-8.5 54.05 -3.9 56.2 L-2.0 57.25 Q8.7 60.3 11.35 56.1 17.1 48.6 24.05 45.0 25.2 44.4 26.4 43.9 32.25 41.55 35.9 44.55 M33.3 53.75 L35.55 51.55 M-2.0 57.25 Q5.45 61.2 10.65 61.45 27.05 58.65 33.3 53.75 M-5.15 -41.6 Q-4.55 -46.25 -3.55 -49.45 L-3.0 -50.8 M-20.0 -31.9 L-19.7 -32.25 -18.6 -34.7 M-15.65 -25.9 L-15.25 -26.3 -12.2 -35.0 M0.3 -29.4 L-1.25 -27.75 Q-3.75 -28.65 -4.85 -34.1 -5.35 -37.75 -5.15 -41.6 M-28.6 -29.7 L-26.9 -27.35 Q-22.8 -28.95 -20.0 -31.9 M-28.4 -8.9 L-28.4 -9.95 M-27.3 -11.05 L-28.0 -11.75 M-27.3 -11.05 L-26.7 -10.4 -28.4 -8.9 Q-28.15 -8.2 -27.1 -7.45 -25.4 -6.2 -21.4 -4.7 L-17.9 -3.5 M-26.5 -11.95 L-21.4 -4.7 M-29.5 0.85 L-26.3 2.6 -23.75 4.0 M-22.95 -3.75 Q-27.35 -5.4 -29.7 -7.05 L-30.75 -7.85 M-15.35 -23.6 L-15.65 -25.9 Q-20.85 -21.5 -28.15 -20.15 M-12.7 -4.6 L-12.5 -3.85 -12.5 4.2 -12.5 5.7 M-9.1 -4.85 L-9.95 3.6 M-13.4 -5.55 Q-12.95 -5.25 -12.7 -4.6 L-13.9 -4.15 Q-18.7 -2.25 -21.8 1.45 -22.8 6.8 -21.8 9.9 M-13.65 5.0 L-12.5 4.2 M-13.4 -5.55 L-14.5 -5.25 -15.25 -5.1 M-6.15 -7.3 Q-13.5 -12.6 -15.35 -23.6 M-22.95 -3.75 L-19.5 -2.55 M-7.8 12.65 L-7.8 12.25 Q-8.6 10.25 -9.9 10.45 L-13.65 13.15 -13.65 14.3 -11.85 13.6 Q-12.25 13.4 -12.7 13.35 M-13.65 5.0 L-14.1 5.3 M-11.85 13.6 L-11.0 14.3 Q-10.7 14.6 -10.5 15.05 L-10.35 15.9 -10.35 24.95 -10.5 25.75 M-13.65 14.3 L-14.15 14.5 -15.5 15.05 Q-19.45 16.0 -23.95 13.25 L-27.2 10.85 -28.85 9.45 -29.8 8.45 -31.1 6.65 M-12.95 15.8 L-11.0 14.3 M-12.95 15.8 L-14.6 17.05 -18.2 19.75 -21.5 20.75 -22.5 25.15 Q-22.25 29.55 -18.9 29.95 -21.1 29.0 -21.2 24.85 L-20.4 21.95 -17.15 20.9 -11.85 17.05 -10.35 15.9 M-11.85 26.2 L-10.35 24.95 M-29.8 5.55 L-30.3 4.65 M-14.6 17.05 L-19.45 17.25 Q-21.85 16.8 -24.6 15.35 -27.75 13.5 -30.35 10.65 L-32.7 7.75 M-23.9 24.4 L-22.5 25.15 M-7.7 23.35 L-7.75 14.75 M-8.0 24.9 L-7.7 24.25 -7.7 23.35 Q-2.7 18.5 2.4 16.1 M-29.9 0.65 L-29.5 0.85 M-29.8 8.45 L-29.8 5.55 M-29.5 4.45 L-25.0 11.6 -23.95 13.25 M-31.8 17.6 L-31.6 17.75 -28.35 21.1 -23.9 24.4 M-32.6 20.9 Q-30.05 26.15 -26.45 29.5 L-25.6 30.2 M-9.55 26.25 L-10.8 26.95 -11.85 26.2 -16.5 30.15 -18.9 29.95 M-32.9 35.35 L-32.0 35.85 Q-27.95 38.45 -22.2 40.4 L-18.7 42.7 -16.85 41.0 -18.05 38.7 -17.6 36.75 Q-17.55 35.8 -16.55 35.1 L-13.95 34.4 -7.3 33.45 -6.55 31.6 Q-5.7 31.1 -4.8 30.9 L-2.7 30.85 -1.75 31.95 Q0.45 34.55 2.15 37.35 M-8.0 24.9 L-8.3 25.55 -9.55 26.25 M-35.7 30.4 Q-35.4 33.75 -32.9 35.35 M-22.95 49.3 Q-23.05 48.6 -22.75 47.7 L-19.8 43.9 -18.7 42.7 M-6.65 33.25 L-5.85 33.0 Q-2.8 35.15 -1.55 38.5 -1.4 39.4 -1.7 40.05 L-3.15 40.35 -3.9 40.5 -7.3 41.25 -14.0 47.35 -16.35 49.4 -16.8 50.7 -17.25 52.0 -16.35 54.0 M-7.3 33.45 L-6.65 33.25 M-3.45 38.95 L-1.55 38.5 M-12.75 48.6 L-12.35 48.15 Q-8.2 43.55 -3.15 40.35 M-3.45 38.95 L-13.4 41.15 Q-16.7 39.65 -17.35 37.85 L-17.6 36.75 M-16.85 41.0 Q-15.7 42.35 -13.85 42.65 L-7.3 41.25 M-11.45 49.6 L-12.35 48.15 M-12.75 48.6 L-15.45 51.9 -15.45 53.1 -15.25 53.4" fill="none" stroke="#000000" stroke-linecap="round" stroke-linejoin="round" stroke-opacity="0.4" stroke-width="0.5"/>
    <path d="M3.2 -67.6 Q-0.5 -68.05 -3.6 -66.55 -8.55 -64.75 -10.4 -59.95 L-16.75 -39.0 -18.6 -34.7 -26.7 -35.85 Q-30.55 -33.2 -32.75 -29.7 L-33.9 -27.6 -30.05 -20.15 -28.15 -20.15 -26.9 -14.4 -28.0 -12.7 -28.0 -11.75 Q-29.45 -11.85 -30.75 -9.55 L-30.75 -7.85 Q-29.45 -3.9 -30.5 -2.75 -31.2 -0.45 -30.3 0.4 L-29.9 0.65 -30.9 3.7 -30.3 4.65 -32.7 5.65 Q-33.45 6.9 -32.7 7.75 -31.6 12.6 -32.7 15.25 -33.05 16.4 -31.8 17.6 L-33.6 19.35 -32.7 23.1 Q-34.95 26.5 -35.7 30.4 -36.25 33.45 -35.95 36.75 -34.9 42.75 -32.5 44.65 L-22.95 49.3 Q-22.9 50.1 -22.35 50.6 L-19.1 51.5 -17.95 52.9 -16.35 54.0 -15.25 53.4 Q-13.8 55.6 -11.65 57.55 -7.9 60.9 -2.05 63.55 2.85 67.6 12.8 67.65 23.3 66.4 31.2 60.95 L32.9 59.65 Q34.4 56.35 35.2 53.2 L35.55 51.55 Q36.15 48.0 35.9 44.55 L35.6 42.15 Q34.8 40.4 33.25 39.25 26.85 36.1 20.0 34.35 L18.15 31.55 14.3 30.45 12.2 27.25 11.05 26.6 9.3 27.6 Q7.2 21.95 3.75 17.65 L2.4 16.1 3.6 15.55 Q5.1 14.45 5.0 12.95 L5.0 7.35 5.7 4.65 Q5.9 3.7 4.6 3.15 L2.05 1.75 2.05 -1.5 Q4.0 -2.7 4.2 -3.85 4.3 -7.9 5.9 -11.05 L6.15 -11.7 Q6.55 -13.2 5.9 -14.65 L3.05 -17.1 3.8 -19.45 2.95 -24.1 Q4.65 -28.6 4.35 -33.05 L4.15 -34.85 5.95 -38.75 Q9.25 -46.3 6.4 -55.95 L7.0 -56.3 Q8.6 -57.6 7.8 -61.3 L7.1 -63.3 Q5.95 -65.7 3.2 -67.6 M-13.4 -5.55 L-14.5 -5.25 Q-13.9 -5.85 -13.4 -5.55 Z" fill="none" stroke="#000000" stroke-linecap="round" stroke-linejoin="round" stroke-opacity="0.4" stroke-width="1.0"/>
  </g>
  <defs>
    <linearGradient gradientTransform="matrix(-0.0098, 0.0205, -0.0117, -0.0056, -13.2, -46.1)" gradientUnits="userSpaceOnUse" id="gradient0" spreadMethod="pad" x1="-819.2" x2="819.2">
      <stop offset="0.0" stop-color="#c30808"/>
      <stop offset="1.0" stop-color="#930606"/>
    </linearGradient>
    <linearGradient gradientTransform="matrix(-0.0109, 0.019, -0.0113, -0.0065, -10.55, -46.9)" gradientUnits="userSpaceOnUse" id="gradient1" spreadMethod="pad" x1="-819.2" x2="819.2">
      <stop offset="0.0" stop-color="#f43f0b"/>
      <stop offset="1.0" stop-color="#f40b0b"/>
    </linearGradient>
    <linearGradient gradientTransform="matrix(0.0, 0.009, -0.0045, 0.0, 4.0, -48.3)" gradientUnits="userSpaceOnUse" id="gradient2" spreadMethod="pad" x1="-819.2" x2="819.2">
      <stop offset="0.0" stop-color="#f43f0b"/>
      <stop offset="1.0" stop-color="#f40b0b"/>
    </linearGradient>
    <linearGradient gradientTransform="matrix(0.0052, 0.009, -0.0096, 0.0056, -1.25, -26.0)" gradientUnits="userSpaceOnUse" id="gradient3" spreadMethod="pad" x1="-819.2" x2="819.2">
      <stop offset="0.0" stop-color="#c30808"/>
      <stop offset="1.0" stop-color="#930606"/>
    </linearGradient>
    <linearGradient gradientTransform="matrix(0.0, 0.0112, -0.0055, 0.0, -2.85, -34.7)" gradientUnits="userSpaceOnUse" id="gradient4" spreadMethod="pad" x1="-819.2" x2="819.2">
      <stop offset="0.0" stop-color="#f43f0b"/>
      <stop offset="1.0" stop-color="#f40b0b"/>
    </linearGradient>
    <linearGradient gradientTransform="matrix(0.0, 0.0075, -0.0062, 0.0, 0.25, -47.55)" gradientUnits="userSpaceOnUse" id="gradient5" spreadMethod="pad" x1="-819.2" x2="819.2">
      <stop offset="0.0" stop-color="#c30808"/>
      <stop offset="1.0" stop-color="#930606"/>
    </linearGradient>
    <linearGradient gradientTransform="matrix(-0.0063, 0.0017, -0.0035, -0.0129, -3.35, -19.8)" gradientUnits="userSpaceOnUse" id="gradient6" spreadMethod="pad" x1="-819.2" x2="819.2">
      <stop offset="0.0" stop-color="#f43f0b"/>
      <stop offset="1.0" stop-color="#f40b0b"/>
    </linearGradient>
    <linearGradient gradientTransform="matrix(-0.0054, 0.0054, -0.0032, -0.0032, -0.05, -10.7)" gradientUnits="userSpaceOnUse" id="gradient7" spreadMethod="pad" x1="-819.2" x2="819.2">
      <stop offset="0.0" stop-color="#f43f0b"/>
      <stop offset="1.0" stop-color="#f40b0b"/>
    </linearGradient>
    <linearGradient gradientTransform="matrix(0.0, 0.004, -0.0012, 0.0, 1.8, -13.05)" gradientUnits="userSpaceOnUse" id="gradient8" spreadMethod="pad" x1="-819.2" x2="819.2">
      <stop offset="0.0" stop-color="#d5c395"/>
      <stop offset="1.0" stop-color="#c4ab6a"/>
    </linearGradient>
    <linearGradient gradientTransform="matrix(-0.0055, 0.0032, -0.0012, -0.0021, -7.4, 3.5)" gradientUnits="userSpaceOnUse" id="gradient9" spreadMethod="pad" x1="-819.2" x2="819.2">
      <stop offset="0.0" stop-color="#c1a762"/>
      <stop offset="1.0" stop-color="#957c3b"/>
    </linearGradient>
    <linearGradient gradientTransform="matrix(-0.0085, 0.0085, -0.0045, -0.0045, -4.1, -2.45)" gradientUnits="userSpaceOnUse" id="gradient10" spreadMethod="pad" x1="-819.2" x2="819.2">
      <stop offset="0.0" stop-color="#c30808"/>
      <stop offset="1.0" stop-color="#930606"/>
    </linearGradient>
    <linearGradient gradientTransform="matrix(0.0, 0.0031, -0.0032, 0.0, -0.05, -51.4)" gradientUnits="userSpaceOnUse" id="gradient11" spreadMethod="pad" x1="-819.2" x2="819.2">
      <stop offset="0.0" stop-color="#f43f0b"/>
      <stop offset="1.0" stop-color="#f40b0b"/>
    </linearGradient>
    <linearGradient gradientTransform="matrix(0.0046, -0.0026, 0.0014, 0.0024, -19.95, -22.35)" gradientUnits="userSpaceOnUse" id="gradient12" spreadMethod="pad" x1="-819.2" x2="819.2">
      <stop offset="0.0" stop-color="#c1a762"/>
      <stop offset="1.0" stop-color="#957c3b"/>
    </linearGradient>
    <linearGradient gradientTransform="matrix(0.0, 0.0059, -0.0113, 0.0, -15.4, -14.8)" gradientUnits="userSpaceOnUse" id="gradient13" spreadMethod="pad" x1="-819.2" x2="819.2">
      <stop offset="0.0" stop-color="#d5c395"/>
      <stop offset="1.0" stop-color="#c4ab6a"/>
    </linearGradient>
    <linearGradient gradientTransform="matrix(0.0015, 0.0015, -0.0016, 0.0016, -23.95, -6.9)" gradientUnits="userSpaceOnUse" id="gradient14" spreadMethod="pad" x1="-819.2" x2="819.2">
      <stop offset="0.0" stop-color="#d5c395"/>
      <stop offset="1.0" stop-color="#c4ab6a"/>
    </linearGradient>
    <linearGradient gradientTransform="matrix(0.0026, 7.0E-4, -0.0013, 0.005, -25.8, -1.65)" gradientUnits="userSpaceOnUse" id="gradient15" spreadMethod="pad" x1="-819.2" x2="819.2">
      <stop offset="0.0" stop-color="#c30808"/>
      <stop offset="1.0" stop-color="#930606"/>
    </linearGradient>
    <linearGradient gradientTransform="matrix(0.0071, 0.0071, -0.0057, 0.0057, -6.25, -16.3)" gradientUnits="userSpaceOnUse" id="gradient16" spreadMethod="pad" x1="-819.2" x2="819.2">
      <stop offset="0.0" stop-color="#c30808"/>
      <stop offset="1.0" stop-color="#930606"/>
    </linearGradient>
    <linearGradient gradientTransform="matrix(-0.0014, 0.0014, -0.0102, -0.0102, -19.1, 7.45)" gradientUnits="userSpaceOnUse" id="gradient17" spreadMethod="pad" x1="-819.2" x2="819.2">
      <stop offset="0.0" stop-color="#d5c395"/>
      <stop offset="1.0" stop-color="#c4ab6a"/>
    </linearGradient>
    <linearGradient gradientTransform="matrix(0.0072, -0.0041, 0.0026, 0.0045, -14.6, 0.85)" gradientUnits="userSpaceOnUse" id="gradient18" spreadMethod="pad" x1="-819.2" x2="819.2">
      <stop offset="0.0" stop-color="#c30808"/>
      <stop offset="1.0" stop-color="#930606"/>
    </linearGradient>
    <linearGradient gradientTransform="matrix(-0.0075, 0.0043, -0.0028, -0.0049, -16.45, 23.2)" gradientUnits="userSpaceOnUse" id="gradient19" spreadMethod="pad" x1="-819.2" x2="819.2">
      <stop offset="0.0" stop-color="#f43f0b"/>
      <stop offset="1.0" stop-color="#f40b0b"/>
    </linearGradient>
    <linearGradient gradientTransform="matrix(-0.0069, 0.004, -0.0058, -0.01, -23.25, 11.15)" gradientUnits="userSpaceOnUse" id="gradient20" spreadMethod="pad" x1="-819.2" x2="819.2">
      <stop offset="0.0" stop-color="#f43f0b"/>
      <stop offset="1.0" stop-color="#f40b0b"/>
    </linearGradient>
    <linearGradient gradientTransform="matrix(0.0062, -0.0035, 0.0027, 0.0048, -14.75, 23.9)" gradientUnits="userSpaceOnUse" id="gradient21" spreadMethod="pad" x1="-819.2" x2="819.2">
      <stop offset="0.0" stop-color="#c30808"/>
      <stop offset="1.0" stop-color="#930606"/>
    </linearGradient>
    <linearGradient gradientTransform="matrix(-0.0088, 0.0051, -0.0028, -0.0049, -2.75, 15.1)" gradientUnits="userSpaceOnUse" id="gradient22" spreadMethod="pad" x1="-819.2" x2="819.2">
      <stop offset="0.0" stop-color="#c30808"/>
      <stop offset="1.0" stop-color="#930606"/>
    </linearGradient>
    <linearGradient gradientTransform="matrix(-0.002, 0.0012, -8.0E-4, -0.0013, -1.95, 19.95)" gradientUnits="userSpaceOnUse" id="gradient23" spreadMethod="pad" x1="-819.2" x2="819.2">
      <stop offset="0.0" stop-color="#c1a762"/>
      <stop offset="1.0" stop-color="#957c3b"/>
    </linearGradient>
    <linearGradient gradientTransform="matrix(-0.0026, 0.0015, -0.0042, -0.0072, -30.9, 14.6)" gradientUnits="userSpaceOnUse" id="gradient24" spreadMethod="pad" x1="-819.2" x2="819.2">
      <stop offset="0.0" stop-color="#f43f0b"/>
      <stop offset="1.0" stop-color="#f40b0b"/>
    </linearGradient>
    <linearGradient gradientTransform="matrix(-0.0031, 0.0031, -0.01, -0.01, -22.75, 25.0)" gradientUnits="userSpaceOnUse" id="gradient25" spreadMethod="pad" x1="-819.2" x2="819.2">
      <stop offset="0.0" stop-color="#c1a762"/>
      <stop offset="1.0" stop-color="#957c3b"/>
    </linearGradient>
    <linearGradient gradientTransform="matrix(-0.0062, 0.0036, -0.0081, -0.0139, -16.8, 26.4)" gradientUnits="userSpaceOnUse" id="gradient26" spreadMethod="pad" x1="-819.2" x2="819.2">
      <stop offset="0.0" stop-color="#d5c395"/>
      <stop offset="1.0" stop-color="#c4ab6a"/>
    </linearGradient>
    <linearGradient gradientTransform="matrix(0.0052, 0.003, -0.0027, 0.0046, -23.85, 19.35)" gradientUnits="userSpaceOnUse" id="gradient27" spreadMethod="pad" x1="-819.2" x2="819.2">
      <stop offset="0.0" stop-color="#c30808"/>
      <stop offset="1.0" stop-color="#930606"/>
    </linearGradient>
    <linearGradient gradientTransform="matrix(0.0078, 0.0045, -0.0026, 0.0045, -23.4, 44.55)" gradientUnits="userSpaceOnUse" id="gradient28" spreadMethod="pad" x1="-819.2" x2="819.2">
      <stop offset="0.0" stop-color="#c30808"/>
      <stop offset="1.0" stop-color="#930606"/>
    </linearGradient>
    <linearGradient gradientTransform="matrix(0.0046, 0.0027, -8.0E-4, 0.0014, -19.45, 50.7)" gradientUnits="userSpaceOnUse" id="gradient29" spreadMethod="pad" x1="-819.2" x2="819.2">
      <stop offset="0.0" stop-color="#c30808"/>
      <stop offset="1.0" stop-color="#930606"/>
    </linearGradient>
    <linearGradient gradientTransform="matrix(0.0022, -0.0013, 0.003, 0.0052, -10.25, 37.2)" gradientUnits="userSpaceOnUse" id="gradient30" spreadMethod="pad" x1="-819.2" x2="819.2">
      <stop offset="0.0" stop-color="#f43f0b"/>
      <stop offset="1.0" stop-color="#f40b0b"/>
    </linearGradient>
    <linearGradient gradientTransform="matrix(0.0043, -0.0011, 0.0011, 0.0042, -9.25, 38.2)" gradientUnits="userSpaceOnUse" id="gradient31" spreadMethod="pad" x1="-819.2" x2="819.2">
      <stop offset="0.0" stop-color="#c30808"/>
      <stop offset="1.0" stop-color="#930606"/>
    </linearGradient>
    <linearGradient gradientTransform="matrix(0.0025, -0.0043, 0.0016, 9.0E-4, -13.65, 47.6)" gradientUnits="userSpaceOnUse" id="gradient32" spreadMethod="pad" x1="-819.2" x2="819.2">
      <stop offset="0.0" stop-color="#c30808"/>
      <stop offset="1.0" stop-color="#930606"/>
    </linearGradient>
    <linearGradient gradientTransform="matrix(-0.0142, 0.0142, -0.0055, -0.0055, 3.5, 41.25)" gradientUnits="userSpaceOnUse" id="gradient33" spreadMethod="pad" x1="-819.2" x2="819.2">
      <stop offset="0.0" stop-color="#c1a762"/>
      <stop offset="1.0" stop-color="#957c3b"/>
    </linearGradient>
    <linearGradient gradientTransform="matrix(-0.0099, 0.0, 0.0, -0.0104, 3.15, 50.05)" gradientUnits="userSpaceOnUse" id="gradient34" spreadMethod="pad" x1="-819.2" x2="819.2">
      <stop offset="0.0" stop-color="#d5c395"/>
      <stop offset="1.0" stop-color="#c4ab6a"/>
    </linearGradient>
    <linearGradient gradientTransform="matrix(0.0306, 0.0022, -7.0E-4, 0.0093, 16.45, 60.4)" gradientUnits="userSpaceOnUse" id="gradient35" spreadMethod="pad" x1="-819.2" x2="819.2">
      <stop offset="0.0" stop-color="#c30808"/>
      <stop offset="1.0" stop-color="#930606"/>
    </linearGradient>
    <linearGradient gradientTransform="matrix(-0.0051, 0.0029, -0.003, -0.0051, 7.9, 31.95)" gradientUnits="userSpaceOnUse" id="gradient36" spreadMethod="pad" x1="-819.2" x2="819.2">
      <stop offset="0.0" stop-color="#f43f0b"/>
      <stop offset="1.0" stop-color="#f40b0b"/>
    </linearGradient>
    <linearGradient gradientTransform="matrix(-0.0104, 0.0027, -7.0E-4, -0.0026, 7.8, 35.65)" gradientUnits="userSpaceOnUse" id="gradient37" spreadMethod="pad" x1="-819.2" x2="819.2">
      <stop offset="0.0" stop-color="#c30808"/>
      <stop offset="1.0" stop-color="#930606"/>
    </linearGradient>
    <linearGradient gradientTransform="matrix(0.0202, -0.0116, 0.0045, 0.0078, 28.2, 48.45)" gradientUnits="userSpaceOnUse" id="gradient38" spreadMethod="pad" x1="-819.2" x2="819.2">
      <stop offset="0.0" stop-color="#c30808"/>
      <stop offset="1.0" stop-color="#930606"/>
    </linearGradient>
    <linearGradient gradientTransform="matrix(0.0, -0.0054, 0.0038, 0.0, -12.2, -1.4)" gradientUnits="userSpaceOnUse" id="gradient39" spreadMethod="pad" x1="-819.2" x2="819.2">
      <stop offset="0.0" stop-color="#999999"/>
      <stop offset="0.9882352941176471" stop-color="#dad8d8"/>
    </linearGradient>
    <linearGradient gradientTransform="matrix(-6.0E-4, -0.0083, 0.0036, -3.0E-4, -10.5, 16.55)" gradientUnits="userSpaceOnUse" id="gradient40" spreadMethod="pad" x1="-819.2" x2="819.2">
      <stop offset="0.0" stop-color="#999999"/>
      <stop offset="0.9882352941176471" stop-color="#dad8d8"/>
    </linearGradient>
    <linearGradient gradientTransform="matrix(-4.0E-4, -0.0059, 0.0058, -4.0E-4, -2.35, 35.55)" gradientUnits="userSpaceOnUse" id="gradient41" spreadMethod="pad" x1="-819.2" x2="819.2">
      <stop offset="0.0" stop-color="#999999"/>
      <stop offset="0.9882352941176471" stop-color="#dad8d8"/>
    </linearGradient>
  </defs>
</svg>
