<?xml version="1.0" encoding="UTF-8" standalone="no"?>
<svg xmlns:xlink="http://www.w3.org/1999/xlink" height="140.5px" width="113.35px" xmlns="http://www.w3.org/2000/svg">
  <g transform="matrix(1.0, 0.0, 0.0, 1.0, 56.65, 70.25)">
    <path d="M27.55 -52.2 L32.7 -50.85 Q39.7 -47.65 49.75 -54.95 L48.8 -53.25 Q46.85 -50.45 44.2 -48.85 L50.2 -43.45 Q55.15 -38.65 56.05 -33.85 52.9 -40.2 46.65 -44.25 L39.75 -47.9 35.55 -47.7 31.7 -48.0 18.65 -49.9 31.7 -48.0 35.55 -47.7 44.3 -44.4 Q52.05 -39.3 55.75 -30.45 L53.2 -32.5 Q45.4 -38.6 35.7 -40.9 L27.25 -46.05 20.65 -46.85 15.9 -46.25 15.05 -46.65 16.65 -48.9 18.65 -49.9 Q16.25 -50.7 17.4 -52.15 L18.75 -53.0 Q22.85 -53.2 27.55 -52.2 M49.45 -31.0 L50.6 -29.25 51.8 -28.55 49.5 -28.55 Q44.05 -29.0 39.3 -31.9 L35.7 -33.55 24.25 -43.8 45.05 -32.05 49.45 -31.0 M31.2 -30.75 L33.4 -27.25 35.45 -23.85 35.7 -23.1 37.1 -18.9 40.25 -9.35 Q41.15 -4.0 40.25 -1.45 L39.8 -1.0 39.3 -0.6 Q39.45 -1.9 38.95 -3.55 L36.6 -6.4 33.3 -8.2 30.75 -10.45 32.8 -9.4 25.25 -20.65 22.25 -29.65 14.9 -36.85 7.85 -40.95 7.0 -40.65 6.85 -41.1 7.8 -42.05 8.7 -43.05 10.95 -43.5 9.65 -41.05 11.8 -41.65 17.3 -38.2 Q21.95 -33.85 26.0 -28.9 L21.45 -36.85 14.25 -43.05 15.65 -44.4 19.25 -43.8 27.9 -36.1 31.2 -30.75 M21.6 -9.2 Q22.6 -7.2 24.25 -4.95 L26.65 -2.9 25.4 -2.6 18.45 -7.85 14.65 -14.85 14.65 -25.45 11.85 -33.25 8.8 -37.0 8.75 -37.05 7.85 -38.75 Q8.2 -35.1 9.1 -32.2 L7.85 -22.65 5.85 -17.45 4.95 -23.75 Q5.0 -33.95 3.25 -39.2 3.55 -31.85 2.6 -28.1 L2.55 -27.8 1.95 -26.25 Q-1.0 -18.55 -2.2 -12.4 -1.0 -18.55 1.95 -26.25 L2.55 -27.8 1.45 -14.85 -0.95 -8.45 -2.4 -11.3 -2.2 -12.4 Q-0.8 -20.6 -2.2 -25.55 L-2.65 -27.75 -3.65 -15.05 -6.95 -5.45 -6.95 -14.65 -9.15 -6.85 -10.45 -12.05 -8.45 -27.85 Q-7.4 -34.75 -2.95 -41.95 L-3.85 -41.55 -4.65 -41.0 -3.85 -41.55 -2.95 -41.95 Q-7.4 -34.75 -8.45 -27.85 L-10.45 -12.05 -11.05 -7.2 -11.0 -6.9 Q-12.1 -2.7 -13.95 -6.05 L-14.75 -21.05 -13.05 -29.05 Q-11.1 -32.5 -8.6 -35.3 L-8.35 -35.7 Q-6.8 -39.3 -4.65 -41.0 L-11.15 -36.65 -16.35 -27.65 -19.3 -13.0 -20.2 -19.05 Q-20.2 -22.5 -19.25 -25.95 -18.6 -28.4 -17.45 -30.85 L-25.65 -24.75 -40.15 -22.7 -42.8 -23.65 -42.8 -22.8 -40.65 -21.8 -43.15 -21.8 -51.25 -23.85 -51.8 -23.9 -47.75 -26.8 -42.55 -29.55 Q-35.4 -37.35 -27.8 -42.75 -23.1 -45.35 -18.45 -46.15 L-15.6 -46.45 Q-11.35 -45.85 -11.45 -43.7 -16.2 -43.75 -20.9 -41.2 L-34.45 -30.55 -17.35 -40.85 -11.95 -42.05 -8.5 -41.75 -15.6 -34.35 -17.45 -30.85 -15.6 -34.35 -8.5 -41.75 -7.9 -42.4 -7.2 -42.6 -6.05 -43.05 -4.8 -43.45 -4.3 -43.25 -2.0 -42.4 -0.95 -42.9 0.9 -43.75 Q2.8 -44.8 4.15 -42.45 L6.2 -40.4 7.0 -40.65 9.05 -39.25 11.85 -36.85 Q16.55 -32.0 18.4 -24.05 L20.3 -12.5 Q20.7 -10.95 21.6 -9.2 M19.8 21.4 Q20.65 32.4 16.75 41.85 L16.45 42.3 Q19.35 32.25 19.25 24.6 L15.65 28.75 15.3 26.45 Q17.35 24.7 19.1 22.4 L19.2 22.3 19.8 21.4 M-49.95 59.6 Q-51.3 59.1 -52.3 56.05 -53.8 48.1 -54.05 36.55 -52.7 38.9 -50.8 40.85 -45.95 45.7 -37.35 47.9 -4.15 55.95 1.25 36.1 L1.8 33.6 Q2.3 31.85 3.65 31.5 L8.95 30.2 9.05 30.15 Q11.25 29.3 13.2 28.05 L13.45 30.15 8.0 32.65 Q2.45 31.7 1.75 38.75 L-0.35 43.35 Q-5.25 51.05 -20.35 51.75 -42.9 51.5 -52.4 41.75 -52.65 49.6 -49.95 59.6 M-47.15 -28.2 Q-43.75 -33.05 -39.55 -36.65 L-39.5 -36.7 -38.4 -38.1 -36.0 -40.85 -33.85 -42.95 -29.0 -46.5 Q-26.3 -48.1 -23.3 -49.05 L-21.35 -49.6 Q-18.85 -48.45 -18.4 -47.3 -22.85 -47.05 -28.55 -44.25 L-41.35 -32.65 -47.15 -28.2 M-53.65 -49.55 L-54.7 -50.9 -54.2 -52.6 -49.65 -51.05 Q-52.9 -52.9 -56.15 -56.65 L-56.15 -58.25 Q-49.55 -54.3 -43.3 -53.45 L-43.05 -53.4 -26.8 -56.55 -30.3 -60.35 -32.25 -66.3 -31.0 -67.3 -30.3 -66.25 Q-28.3 -63.7 -23.3 -63.5 L-18.9 -63.9 -16.45 -62.9 -11.95 -63.9 -6.1 -62.0 -6.1 -64.15 Q-4.35 -68.4 0.75 -68.55 2.7 -67.55 4.6 -66.6 L8.5 -64.6 9.8 -63.0 6.85 -64.25 4.25 -61.65 -0.15 -62.85 -1.7 -58.85 -1.7 -62.9 -5.1 -64.25 -5.1 -61.7 -3.75 -60.1 -3.25 -59.4 -5.0 -59.1 -6.8 -60.6 -8.7 -60.9 -6.15 -58.25 -7.45 -58.25 Q-8.75 -59.25 -10.85 -59.6 L-18.3 -58.75 -23.0 -60.4 -27.7 -62.05 -30.3 -66.25 -27.7 -62.05 -23.0 -60.4 -17.35 -57.45 -11.35 -57.45 -15.55 -53.3 -16.5 -53.7 -15.85 -52.55 -18.55 -53.85 -20.75 -52.6 -23.9 -53.45 Q-30.1 -52.75 -35.05 -50.0 -40.8 -48.6 -47.4 -50.0 L-49.65 -51.05 -47.4 -50.0 Q-40.8 -48.6 -35.05 -50.0 -30.1 -52.75 -23.9 -53.45 L-20.75 -52.6 -19.65 -52.35 Q-16.35 -51.25 -15.9 -48.2 L-16.75 -48.4 -16.8 -48.6 Q-18.05 -51.0 -23.75 -52.25 L-26.45 -48.9 Q-33.7 -48.4 -42.0 -45.9 -46.6 -45.85 -50.15 -47.05 -48.0 -45.65 -44.45 -44.55 -39.9 -43.05 -37.7 -44.05 L-29.0 -46.5 -33.85 -42.95 -40.35 -41.85 -47.75 -44.45 -51.35 -47.6 -52.65 -48.2 -53.65 -49.55 M9.85 -63.0 L13.6 -64.15 17.75 -69.75 18.4 -69.4 15.95 -64.75 12.4 -61.1 11.15 -61.4 12.4 -61.1 15.8 -60.75 16.6 -62.8 20.95 -66.2 21.5 -65.75 16.8 -60.65 17.85 -60.55 19.95 -60.35 25.7 -62.55 29.4 -66.95 30.0 -65.95 25.85 -60.65 21.85 -56.85 13.85 -57.85 10.25 -56.65 7.65 -57.85 5.1 -60.65 Q5.95 -61.8 7.25 -62.3 L11.15 -61.4 9.85 -63.0 M25.45 -57.0 L28.75 -57.55 34.05 -61.1 34.9 -59.5 27.25 -55.05 25.45 -57.0 M44.2 -48.85 L39.75 -47.9 44.2 -48.85 M16.8 -60.65 L15.8 -60.75 16.8 -60.65 M39.8 -1.0 Q40.5 -4.4 38.3 -9.15 L32.75 -19.8 Q29.6 -24.55 26.0 -28.9 29.6 -24.55 32.75 -19.8 L38.3 -9.15 Q40.5 -4.4 39.8 -1.0 M6.2 -40.4 L7.85 -38.75 6.2 -40.4 M36.6 -6.4 Q34.85 -8.2 32.8 -9.4 34.85 -8.2 36.6 -6.4 M27.65 -20.05 Q33.45 -14.35 38.1 -5.65 L38.95 -3.55 38.1 -5.65 Q33.45 -14.35 27.65 -20.05 M-26.8 -56.55 L-26.35 -56.65 -18.65 -55.4 Q-17.3 -54.75 -16.55 -53.75 L-16.5 -53.7 -16.55 -53.75 Q-17.3 -54.75 -18.65 -55.4 L-26.35 -56.65 -26.8 -56.55 M4.6 -66.6 Q-0.5 -66.1 -1.7 -62.9 -0.5 -66.1 4.6 -66.6 M-16.45 -62.9 L-12.3 -61.55 -8.7 -60.9 -12.3 -61.55 -16.45 -62.9 M-6.1 -62.0 L-5.1 -61.7 -6.1 -62.0 M-50.15 -47.05 L-51.35 -47.6 -50.15 -47.05 M-51.25 -23.85 L-48.2 -23.65 -39.8 -26.4 -34.45 -30.55 -39.8 -26.4 -48.2 -23.65 -51.25 -23.85 M0.9 -43.75 Q-3.7 -35.15 -2.65 -27.75 -3.7 -35.15 0.9 -43.75 M-2.95 -41.95 L-2.0 -42.4 -2.95 -41.95 M-39.5 -36.7 Q-36.9 -38.95 -34.05 -40.7 -36.9 -38.95 -39.5 -36.7" fill="#dcd8a4" fill-rule="evenodd" stroke="none"/>
    <path d="M56.05 -33.85 L56.2 -32.75 55.75 -30.45 Q52.05 -39.3 44.3 -44.4 L35.55 -47.7 39.75 -47.9 46.65 -44.25 Q52.9 -40.2 56.05 -33.85 M48.3 -32.7 L49.45 -31.0 45.05 -32.05 24.25 -43.8 35.7 -33.55 39.3 -31.9 40.5 -29.75 42.3 -28.3 36.2 -28.9 Q33.7 -29.6 31.2 -30.75 L27.9 -36.1 19.25 -43.8 15.65 -44.4 14.25 -43.05 21.45 -36.85 26.0 -28.9 Q21.95 -33.85 17.3 -38.2 L11.8 -41.65 9.65 -41.05 10.95 -43.5 14.7 -48.0 16.0 -51.35 17.4 -52.15 Q16.25 -50.7 18.65 -49.9 L16.65 -48.9 14.7 -48.0 16.65 -48.9 15.05 -46.65 15.9 -46.25 20.65 -46.85 27.25 -46.05 35.7 -40.9 32.55 -41.25 37.85 -38.4 Q42.4 -34.75 48.3 -32.7 M33.4 -27.25 L37.85 -23.6 45.3 -21.35 42.8 -21.35 43.1 -21.15 39.5 -21.2 35.7 -23.1 35.45 -23.85 33.4 -27.25 M25.4 -2.6 L24.15 -2.3 Q20.8 -3.45 17.75 -5.5 15.45 -7.1 13.3 -9.15 L10.85 -11.8 8.75 -16.7 8.25 -15.5 7.8 -14.4 3.25 -7.65 2.3 -8.25 Q0.45 -2.95 -2.6 1.95 L-4.15 1.8 Q-3.05 -2.15 -2.95 -6.75 L-2.4 -11.3 -2.95 -6.75 Q-3.05 -2.15 -4.15 1.8 L-5.35 5.1 -7.1 5.5 -7.25 5.25 Q-7.9 0.0 -10.85 -4.7 -10.5 -1.5 -9.8 1.35 L-11.25 1.7 Q-14.05 -0.7 -15.65 -5.45 L-15.7 -5.6 -16.45 -8.1 -16.5 -8.4 -17.15 -11.4 -15.4 -24.4 -13.05 -29.05 -15.4 -24.4 -17.15 -11.4 -16.5 -8.4 -16.45 -8.1 -15.7 -5.6 -15.75 -5.5 -18.35 -6.8 -19.3 -13.0 -16.35 -27.65 -11.15 -36.65 -4.65 -41.0 Q-6.8 -39.3 -8.35 -35.7 L-8.6 -35.3 Q-11.1 -32.5 -13.05 -29.05 L-14.75 -21.05 -13.95 -6.05 Q-12.1 -2.7 -11.0 -6.9 L-11.05 -7.2 -10.45 -12.05 -9.15 -6.85 -6.95 -14.65 -6.95 -5.45 -3.65 -15.05 -2.65 -27.75 -2.2 -25.55 Q-0.8 -20.6 -2.2 -12.4 L-2.4 -11.3 -0.95 -8.45 1.45 -14.85 2.55 -27.8 2.6 -28.1 Q3.55 -31.85 3.25 -39.2 5.0 -33.95 4.95 -23.75 L5.85 -17.45 7.85 -22.65 9.1 -32.2 Q9.7 -30.2 10.6 -28.55 11.25 -32.45 9.7 -35.3 L8.8 -37.0 11.85 -33.25 14.65 -25.45 14.65 -14.85 18.45 -7.85 25.4 -2.6 M-25.35 -21.4 L-27.15 -20.8 -29.95 -19.0 -34.9 -17.3 Q-43.65 -17.65 -50.0 -21.15 L-55.05 -23.65 -55.65 -25.45 -51.8 -23.9 -51.25 -23.85 -43.15 -21.8 -40.65 -21.8 -42.8 -22.8 -42.8 -23.65 -40.15 -22.7 -25.65 -24.75 -17.45 -30.85 Q-18.6 -28.4 -19.25 -25.95 -21.35 -23.0 -25.35 -21.4 M-47.75 -26.8 L-47.15 -28.2 -41.35 -32.65 -28.55 -44.25 Q-22.85 -47.05 -18.4 -47.3 -18.85 -48.45 -21.35 -49.6 L-16.8 -48.6 -16.75 -48.4 -15.9 -48.2 -15.45 -48.05 -15.45 -50.4 Q-15.45 -51.6 -15.85 -52.55 L-16.5 -53.7 -15.55 -53.3 -11.35 -57.45 -17.35 -57.45 -23.0 -60.4 -18.3 -58.75 -10.85 -59.6 Q-8.75 -59.25 -7.45 -58.25 L-6.15 -58.25 -8.7 -60.9 -6.8 -60.6 -5.0 -59.1 -3.25 -59.4 -3.75 -60.1 -5.1 -61.7 -5.1 -64.25 -1.7 -62.9 -1.7 -58.85 -0.15 -62.85 4.25 -61.65 6.85 -64.25 9.8 -63.0 9.85 -63.0 11.15 -61.4 7.25 -62.3 Q5.95 -61.8 5.1 -60.65 4.2 -59.5 3.75 -57.65 4.2 -59.5 5.1 -60.65 L7.65 -57.85 10.25 -56.65 13.85 -57.85 21.85 -56.85 25.85 -60.65 30.0 -65.95 26.7 -59.75 24.05 -56.75 22.55 -55.1 21.1 -55.0 14.5 -56.25 10.95 -54.65 7.05 -54.65 3.75 -57.65 Q3.1 -55.0 3.35 -50.95 L5.25 -45.7 1.9 -51.9 1.9 -55.75 -0.1 -56.95 -0.35 -58.0 -1.7 -58.85 -3.75 -60.1 -1.7 -58.85 -0.35 -58.0 -0.1 -56.95 0.45 -54.35 Q-1.2 -52.55 -3.15 -54.6 L-3.25 -55.1 -3.45 -56.3 Q-3.9 -57.9 -5.0 -59.1 -3.9 -57.9 -3.45 -56.3 -3.95 -54.25 -5.35 -55.1 L-5.5 -55.5 Q-6.05 -57.2 -7.45 -58.25 -6.05 -57.2 -5.5 -55.5 L-5.35 -55.1 Q-4.55 -52.1 -4.45 -48.6 -4.4 -46.2 -5.7 -43.65 L-5.6 -50.3 -6.9 -56.0 -7.55 -53.15 -11.2 -51.25 Q-9.0 -49.75 -8.65 -47.65 -10.85 -51.55 -14.0 -51.1 L-14.1 -51.1 -14.75 -47.9 -13.9 -46.5 -12.1 -46.45 -8.85 -45.05 -7.2 -42.6 -7.9 -42.4 -8.5 -41.75 -11.95 -42.05 -17.35 -40.85 -34.45 -30.55 -20.9 -41.2 Q-16.2 -43.75 -11.45 -43.7 -11.35 -45.85 -15.6 -46.45 L-18.45 -46.15 Q-23.1 -45.35 -27.8 -42.75 -35.4 -37.35 -42.55 -29.55 L-47.75 -26.8 M-38.4 -38.1 Q-44.35 -38.65 -49.55 -42.6 L-54.1 -48.2 -53.65 -49.55 -52.65 -48.2 -51.35 -47.6 -47.75 -44.45 -40.35 -41.85 -33.85 -42.95 -36.0 -40.85 -38.4 -38.1 M18.4 -69.4 L19.1 -69.0 16.6 -62.8 15.8 -60.75 12.4 -61.1 15.95 -64.75 18.4 -69.4 M21.5 -65.75 L22.05 -65.35 17.85 -60.55 16.8 -60.65 21.5 -65.75 M34.9 -59.5 Q34.3 -57.7 33.0 -56.1 L28.05 -54.5 27.25 -55.05 34.9 -59.5 M32.55 -41.25 L25.0 -45.25 Q21.15 -45.95 18.05 -45.2 L15.65 -44.4 18.05 -45.2 Q21.15 -45.95 25.0 -45.25 L32.55 -41.25 M12.65 -43.9 L10.95 -43.5 12.65 -43.9 M9.05 -39.25 L7.0 -40.65 7.85 -40.95 14.9 -36.85 11.85 -36.85 9.05 -39.25 M4.95 -23.75 L3.9 -14.3 Q3.3 -11.2 2.3 -8.25 3.3 -11.2 3.9 -14.3 L4.95 -23.75 M10.6 -28.55 L11.55 -23.85 8.75 -16.7 11.55 -23.85 10.6 -28.55 M30.75 -10.45 Q26.15 -13.5 23.3 -18.75 21.35 -27.25 14.9 -36.85 L22.25 -29.65 25.25 -20.65 32.8 -9.4 30.75 -10.45 M-20.75 -52.6 L-18.55 -53.85 -15.85 -52.55 Q-15.45 -51.6 -15.45 -50.4 L-15.45 -48.05 -15.9 -48.2 Q-16.35 -51.25 -19.65 -52.35 L-20.75 -52.6 M-15.55 -53.3 L-12.3 -51.9 -11.2 -51.25 -12.3 -51.9 -15.55 -53.3 M-3.25 -59.4 Q-2.25 -57.9 -2.05 -56.55 -2.25 -57.9 -3.25 -59.4 M-26.45 -48.9 L-23.75 -52.25 Q-18.05 -51.0 -16.8 -48.6 L-21.35 -49.6 -23.3 -49.05 -26.45 -48.9 M-54.1 -48.2 L-48.25 -43.8 -41.15 -41.1 -36.0 -40.85 -41.15 -41.1 -48.25 -43.8 -54.1 -48.2 M-15.6 -46.45 L-13.9 -46.5 -15.6 -46.45 M-7.9 -42.4 L-9.45 -43.6 -11.45 -43.7 -9.45 -43.6 -7.9 -42.4 M-15.45 -48.05 L-14.75 -47.9 -15.45 -48.05 M-27.15 -20.8 L-38.5 -20.8 -40.65 -21.8 -38.5 -20.8 -27.15 -20.8 M-11.0 -6.9 L-10.85 -4.7 -11.0 -6.9" fill="#bdb461" fill-rule="evenodd" stroke="none"/>
    <path d="M-14.75 -47.9 L-14.1 -51.1 -14.0 -51.1 Q-10.85 -51.55 -8.65 -47.65 -9.0 -49.75 -11.2 -51.25 L-7.55 -53.15 -6.9 -56.0 -5.6 -50.3 -5.7 -43.65 -6.05 -43.05 -7.2 -42.6 -8.85 -45.05 -12.1 -46.45 -13.9 -46.5 -14.75 -47.9 M-8.65 -46.4 L-8.65 -47.65 -8.65 -46.4" fill="url(#gradient0)" fill-rule="evenodd" stroke="none"/>
    <path d="M-3.15 -54.6 L-2.55 -50.45 Q-3.1 -45.25 -6.05 -43.05 L-5.7 -43.65 Q-4.4 -46.2 -4.45 -48.6 -4.55 -52.1 -5.35 -55.1 -3.95 -54.25 -3.45 -56.3 L-3.25 -55.1 -3.15 -54.6" fill="url(#gradient1)" fill-rule="evenodd" stroke="none"/>
    <path d="M0.45 -54.35 L0.75 -52.9 -0.7 -47.75 -1.5 -46.75 -4.3 -43.25 -4.8 -43.45 -6.05 -43.05 Q-3.1 -45.25 -2.55 -50.45 L-3.15 -54.6 Q-1.2 -52.55 0.45 -54.35" fill="url(#gradient2)" fill-rule="evenodd" stroke="none"/>
    <path d="M-50.15 -47.05 Q-46.6 -45.85 -42.0 -45.9 -33.7 -48.4 -26.45 -48.9 L-23.3 -49.05 Q-26.3 -48.1 -29.0 -46.5 L-37.7 -44.05 Q-39.9 -43.05 -44.45 -44.55 -48.0 -45.65 -50.15 -47.05" fill="url(#gradient3)" fill-rule="evenodd" stroke="none"/>
    <path d="M-0.1 -56.95 L1.9 -55.75 1.9 -51.9 5.25 -45.7 6.85 -41.1 6.2 -40.4 4.15 -42.45 Q2.8 -44.8 0.9 -43.75 L-0.95 -42.9 -1.5 -46.75 -0.7 -47.75 0.75 -52.9 0.45 -54.35 -0.1 -56.95" fill="url(#gradient4)" fill-rule="evenodd" stroke="none"/>
    <path d="M-4.3 -43.25 L-1.5 -46.75 -0.95 -42.9 -2.0 -42.4 -4.3 -43.25" fill="#7c7534" fill-rule="evenodd" stroke="none"/>
    <path d="M-28.0 8.85 L-28.0 8.55 -26.1 5.5 -23.45 -9.65 -24.4 -15.55 -21.65 -16.65 Q-21.4 -8.9 -18.9 -3.4 L-16.05 -3.4 Q-15.55 0.75 -13.3 4.35 L-11.8 4.35 -10.35 9.1 -14.3 6.9 Q-19.45 5.65 -24.8 6.9 L-28.0 8.85" fill="url(#gradient5)" fill-rule="evenodd" stroke="none"/>
    <path d="M-24.4 -15.55 L-25.35 -21.4 Q-21.35 -23.0 -19.25 -25.95 -20.2 -22.5 -20.2 -19.05 L-19.3 -13.0 -18.35 -6.8 -15.75 -5.5 -15.65 -5.45 Q-14.05 -0.7 -11.25 1.7 L-9.8 1.35 Q-10.5 -1.5 -10.85 -4.7 -7.9 0.0 -7.25 5.25 L-7.1 5.5 -5.35 5.1 -4.15 1.8 -2.6 1.95 Q0.45 -2.95 2.3 -8.25 L3.25 -7.65 7.8 -14.4 8.25 -15.5 Q9.75 -10.75 10.65 -6.25 L9.45 -7.45 6.6 -2.45 4.9 -3.05 Q3.65 3.0 -0.55 7.8 L-2.7 8.25 -2.7 10.6 -4.25 11.45 -8.55 9.0 -9.85 4.35 -11.8 4.35 -13.3 4.35 Q-15.55 0.75 -16.05 -3.4 L-18.9 -3.4 Q-21.4 -8.9 -21.65 -16.65 L-24.4 -15.55" fill="url(#gradient6)" fill-rule="evenodd" stroke="none"/>
    <path d="M-15.75 -5.5 L-15.65 -5.45 -15.75 -5.5 M-22.0 14.35 L-22.05 14.55 -22.1 14.35 -22.0 14.35" fill="#b58946" fill-rule="evenodd" stroke="none"/>
    <path d="M3.75 -57.65 L7.05 -54.65 10.95 -54.65 14.5 -56.25 21.1 -55.0 14.1 -54.6 Q10.35 -53.95 7.75 -44.75 L7.8 -42.05 6.85 -41.1 5.25 -45.7 3.35 -50.95 Q3.1 -55.0 3.75 -57.65" fill="url(#gradient7)" fill-rule="evenodd" stroke="none"/>
    <path d="M24.05 -56.75 L25.45 -57.0 27.25 -55.05 28.05 -54.5 33.0 -56.1 Q31.95 -54.9 30.5 -53.85 L27.55 -52.2 Q22.85 -53.2 18.75 -53.0 L17.4 -52.15 16.0 -51.35 14.7 -48.0 10.95 -43.5 8.7 -43.05 7.8 -42.05 7.75 -44.75 Q10.35 -53.95 14.1 -54.6 L21.1 -55.0 22.55 -55.1 24.05 -56.75" fill="url(#gradient8)" fill-rule="evenodd" stroke="none"/>
    <path d="M53.2 -32.5 L52.0 -31.65 48.3 -32.7 Q42.4 -34.75 37.85 -38.4 L32.55 -41.25 35.7 -40.9 Q45.4 -38.6 53.2 -32.5" fill="url(#gradient9)" fill-rule="evenodd" stroke="none"/>
    <path d="M8.75 -37.05 L8.8 -37.0 9.7 -35.3 Q11.25 -32.45 10.6 -28.55 9.7 -30.2 9.1 -32.2 8.2 -35.1 7.85 -38.75 L8.75 -37.05" fill="url(#gradient10)" fill-rule="evenodd" stroke="none"/>
    <path d="M33.3 -8.2 L34.1 -6.5 31.7 -4.8 25.7 -6.6 21.6 -9.2 Q20.7 -10.95 20.3 -12.5 L18.4 -24.05 Q16.55 -32.0 11.85 -36.85 L14.9 -36.85 Q21.35 -27.25 23.3 -18.75 26.15 -13.5 30.75 -10.45 L33.3 -8.2" fill="url(#gradient11)" fill-rule="evenodd" stroke="none"/>
    <path d="M8.25 -15.5 L8.75 -16.7 10.85 -11.8 13.3 -9.15 Q14.35 -5.7 14.8 -1.95 15.6 5.25 14.0 13.45 L13.05 16.25 Q14.6 16.65 14.6 17.65 L14.5 18.1 14.9 20.1 13.45 21.35 11.95 22.55 12.0 20.35 Q12.05 19.6 11.65 18.95 L11.6 18.95 Q11.0 18.1 9.6 17.45 L10.95 13.3 Q12.6 4.25 10.65 -6.25 9.75 -10.75 8.25 -15.5" fill="url(#gradient12)" fill-rule="evenodd" stroke="none"/>
    <path d="M-11.8 4.35 L-9.85 4.35 -8.55 9.0 -4.25 11.45 -2.7 10.6 -2.7 8.25 -0.55 7.8 Q3.65 3.0 4.9 -3.05 L6.6 -2.45 9.45 -7.45 10.65 -6.25 Q12.6 4.25 10.95 13.3 L9.6 17.45 Q11.0 18.1 11.6 18.95 L4.85 24.45 Q2.35 26.25 1.25 30.4 L1.25 36.1 Q-4.15 55.95 -37.35 47.9 -45.95 45.7 -50.8 40.85 L-47.65 41.4 -44.75 40.8 Q-43.9 42.7 -42.5 41.45 L-41.85 39.0 Q-38.9 40.9 -35.6 41.45 L-36.0 44.35 Q-35.35 45.9 -34.15 45.0 L-33.85 42.3 Q-30.3 43.45 -25.3 43.55 -25.4 45.2 -25.8 46.75 -24.5 48.0 -23.25 46.75 -22.9 45.1 -22.85 43.4 -20.0 44.5 -16.15 43.1 -15.9 44.9 -15.95 46.75 -14.4 47.85 -13.85 45.85 L-14.05 42.8 Q-10.1 42.35 -7.5 40.45 -6.85 42.3 -7.05 44.4 -5.95 45.3 -5.3 43.35 -5.1 41.15 -5.7 39.3 -3.05 39.5 -1.6 37.05 L-1.0 38.0 Q-0.15 38.25 -0.2 36.55 -0.5 34.25 -2.95 34.3 L-3.65 35.2 -2.3 36.4 Q-3.35 38.1 -6.05 38.45 -6.65 37.2 -7.65 36.1 -8.75 35.35 -9.55 37.05 -8.6 38.1 -8.0 39.25 -10.75 41.15 -14.35 41.4 -14.85 39.35 -15.85 37.6 -16.7 36.45 -17.55 37.6 -16.75 39.65 -16.35 41.7 -19.2 42.95 -22.9 42.5 -23.0 40.55 -23.55 38.55 -24.65 37.0 -25.8 38.55 -25.35 40.5 -25.3 42.35 -29.75 42.3 -33.55 41.0 -33.1 39.2 -32.15 37.35 -25.35 38.4 -24.6 34.6 -25.65 31.8 -33.05 31.05 L-29.85 31.0 -32.6 30.15 Q-37.5 29.3 -39.15 27.25 -38.65 24.85 -37.25 23.35 -29.65 26.95 -24.35 23.4 -20.95 20.0 -22.0 16.05 -21.85 15.3 -22.05 14.55 L-22.0 14.35 -13.05 14.05 -14.15 14.75 Q-16.6 16.55 -16.9 19.1 L-16.9 19.85 Q-16.9 21.2 -16.15 22.35 -16.2 25.4 -13.0 26.7 -8.05 28.7 -3.8 26.05 0.3 22.8 -1.75 19.25 L-1.75 19.1 Q-1.65 18.15 -1.8 17.35 -2.2 15.9 -3.45 14.75 -5.05 13.35 -7.4 13.1 -7.05 12.65 -7.3 12.25 L-7.7 11.8 -10.35 9.1 -11.8 4.35" fill="url(#gradient13)" fill-rule="evenodd" stroke="none"/>
    <path d="M17.75 -5.5 L18.85 0.25 18.05 0.0 16.0 -0.7 14.8 -1.95 Q14.35 -5.7 13.3 -9.15 15.45 -7.1 17.75 -5.5" fill="url(#gradient14)" fill-rule="evenodd" stroke="none"/>
    <path d="M14.8 -1.95 L16.0 -0.7 18.05 0.0 Q19.05 5.8 18.5 13.75 L18.7 15.4 14.6 17.65 Q14.6 16.65 13.05 16.25 L14.0 13.45 Q15.6 5.25 14.8 -1.95" fill="url(#gradient15)" fill-rule="evenodd" stroke="none"/>
    <path d="M43.1 -21.15 L45.05 -20.0 Q41.1 -18.2 37.1 -18.9 L35.7 -23.1 39.5 -21.2 43.1 -21.15" fill="#999140" fill-rule="evenodd" stroke="none"/>
    <path d="M18.85 0.25 Q20.0 7.7 19.3 13.95 L20.2 16.1 18.6 19.15 19.8 21.4 19.2 22.3 17.7 20.4 18.75 16.9 18.7 15.4 18.5 13.75 Q19.05 5.8 18.05 0.0 L18.85 0.25 M-39.5 24.5 L-38.05 21.3 -37.25 23.35 Q-38.65 24.85 -39.15 27.25 -39.75 26.5 -39.95 25.65 L-39.5 24.5 M9.05 30.15 L8.95 30.2 9.0 30.15 9.05 30.15" fill="#c0a166" fill-rule="evenodd" stroke="none"/>
    <path d="M18.7 15.4 L18.75 16.9 14.9 20.1 14.5 18.1 14.6 17.65 18.7 15.4" fill="url(#gradient16)" fill-rule="evenodd" stroke="none"/>
    <path d="M14.5 21.65 L13.45 21.35 14.9 20.1 18.75 16.9 14.5 21.65" fill="url(#gradient17)" fill-rule="evenodd" stroke="none"/>
    <path d="M13.45 21.35 L14.5 21.65 13.9 22.3 12.4 23.95 11.05 23.3 11.95 22.55 13.45 21.35" fill="#afa64f" fill-rule="evenodd" stroke="none"/>
    <path d="M11.95 22.55 L11.05 23.3 12.4 23.95 11.35 25.1 10.3 26.2 9.0 30.15 8.95 30.2 3.65 31.5 Q2.3 31.85 1.8 33.6 L1.25 36.1 1.25 30.4 Q2.35 26.25 4.85 24.45 L11.6 18.95 11.65 18.95 Q12.05 19.6 12.0 20.35 L11.95 22.55 M6.8 26.85 L11.05 23.3 6.8 26.85" fill="url(#gradient18)" fill-rule="evenodd" stroke="none"/>
    <path d="M18.75 16.9 L17.7 20.4 15.55 23.2 Q15.1 22.45 13.9 22.3 L14.5 21.65 18.75 16.9" fill="url(#gradient19)" fill-rule="evenodd" stroke="none"/>
    <path d="M12.4 23.95 L13.9 22.3 Q15.1 22.45 15.55 23.2 16.15 24.25 15.3 26.45 L14.3 27.25 13.2 28.05 Q13.8 24.75 11.35 25.1 L12.4 23.95" fill="url(#gradient20)" fill-rule="evenodd" stroke="none"/>
    <path d="M17.7 20.4 L19.2 22.3 19.1 22.4 Q17.35 24.7 15.3 26.45 16.15 24.25 15.55 23.2 L17.7 20.4" fill="url(#gradient21)" fill-rule="evenodd" stroke="none"/>
    <path d="M13.2 28.05 Q11.25 29.3 9.05 30.15 L9.0 30.15 10.3 26.2 11.35 25.1 Q13.8 24.75 13.2 28.05" fill="url(#gradient22)" fill-rule="evenodd" stroke="none"/>
    <path d="M14.2 45.1 L13.15 46.05 10.85 47.6 Q14.2 39.15 13.45 30.15 L13.2 28.05 14.3 27.25 15.3 26.45 15.65 28.75 Q16.4 36.4 14.2 45.1" fill="url(#gradient23)" fill-rule="evenodd" stroke="none"/>
    <path d="M10.45 47.8 Q8.75 48.65 6.75 49.1 4.35 49.8 2.95 54.4 1.75 58.55 -0.5 61.6 L2.1 50.15 Q2.35 43.15 1.75 38.75 2.45 31.7 8.0 32.65 7.65 34.05 7.75 35.4 L8.45 45.4 10.45 47.8" fill="url(#gradient24)" fill-rule="evenodd" stroke="none"/>
    <path d="M10.85 47.6 L10.45 47.8 8.45 45.4 7.75 35.4 Q7.65 34.05 8.0 32.65 L13.45 30.15 Q14.2 39.15 10.85 47.6" fill="url(#gradient25)" fill-rule="evenodd" stroke="none"/>
    <path d="M16.45 42.3 L14.2 45.1 Q16.4 36.4 15.65 28.75 L19.25 24.6 Q19.35 32.25 16.45 42.3" fill="url(#gradient26)" fill-rule="evenodd" stroke="none"/>
    <path d="M-0.5 61.6 Q-5.1 67.8 -14.15 69.35 -29.5 71.75 -49.95 59.6 -52.65 49.6 -52.4 41.75 -42.9 51.5 -20.35 51.75 -5.25 51.05 -0.35 43.35 L1.75 38.75 Q2.35 43.15 2.1 50.15 L-0.5 61.6" fill="url(#gradient27)" fill-rule="evenodd" stroke="none"/>
    <path d="M-29.8 11.6 L-28.0 10.35 -26.05 9.2 Q-15.95 6.9 -8.85 11.2 L-7.7 11.8 -7.3 12.25 Q-7.05 12.65 -7.4 13.1 L-8.55 13.0 Q-11.05 13.0 -13.05 14.05 L-22.0 14.35 -22.1 14.35 Q-22.7 12.5 -25.35 11.8 L-29.8 11.6" fill="url(#gradient28)" fill-rule="evenodd" stroke="none"/>
    <path d="M-28.0 10.35 L-28.0 8.85 -24.8 6.9 Q-19.45 5.65 -14.3 6.9 L-10.35 9.1 -7.7 11.8 -8.85 11.2 Q-15.95 6.9 -26.05 9.2 L-28.0 10.35" fill="url(#gradient29)" fill-rule="evenodd" stroke="none"/>
    <path d="M-16.9 19.85 L-16.9 19.1 Q-16.6 16.55 -14.15 14.75 L-13.05 14.05 Q-11.05 13.0 -8.55 13.0 L-7.4 13.1 Q-5.05 13.35 -3.45 14.75 -2.2 15.9 -1.8 17.35 -3.1 18.25 -4.0 16.15 L-4.0 16.1 Q-4.35 15.35 -5.0 14.75 -6.45 13.5 -8.75 13.5 -11.0 13.5 -12.8 14.75 -14.45 16.0 -14.7 17.7 L-14.7 17.75 -14.75 17.9 -14.85 18.4 Q-15.35 20.3 -16.9 19.85" fill="url(#gradient30)" fill-rule="evenodd" stroke="none"/>
    <path d="M-14.7 17.75 L-14.7 17.7 Q-14.45 16.0 -12.8 14.75 -11.0 13.5 -8.75 13.5 -6.45 13.5 -5.0 14.75 -4.35 15.35 -4.0 16.1 L-4.0 16.15 Q-3.7 16.95 -3.8 17.9 L-3.9 17.95 Q-4.1 16.7 -5.1 15.75 -6.55 14.45 -8.85 14.45 -11.1 14.45 -12.9 15.75 -14.15 16.7 -14.6 18.0 L-14.75 17.9 -14.7 17.75" fill="url(#gradient31)" fill-rule="evenodd" stroke="none"/>
    <path d="M-14.6 18.0 Q-14.15 16.7 -12.9 15.75 -11.1 14.45 -8.85 14.45 -6.55 14.45 -5.1 15.75 -4.1 16.7 -3.9 17.95 L-3.85 18.4 -4.5 19.8 Q-5.2 17.6 -7.45 16.55 L-6.5 16.45 -7.45 16.55 Q-8.4 15.9 -9.9 16.25 L-10.0 16.2 Q-13.2 16.85 -14.35 20.0 -14.75 19.25 -14.75 18.4 L-14.6 18.0 M-10.75 15.75 L-10.0 16.2 -10.75 15.75" fill="url(#gradient32)" fill-rule="evenodd" stroke="none"/>
    <path d="M-14.75 17.9 L-14.75 18.4 -14.85 18.4 -14.75 17.9 M-7.45 16.55 L-9.05 17.05 -9.9 16.25 Q-8.4 15.9 -7.45 16.55 M-22.15 14.45 L-22.1 14.35 -22.05 14.55 -22.15 14.45" fill="#396300" fill-rule="evenodd" stroke="none"/>
    <path d="M-3.8 17.9 Q-3.7 16.95 -4.0 16.15 -3.1 18.25 -1.8 17.35 -1.65 18.15 -1.75 19.1 L-1.75 19.25 Q-2.1 21.7 -4.45 23.4 -6.9 25.2 -10.05 25.2 -13.2 25.2 -15.2 23.4 L-16.15 22.35 Q-16.9 21.2 -16.9 19.85 -15.35 20.3 -14.85 18.4 L-14.75 18.4 Q-14.75 19.25 -14.35 20.0 L-13.55 21.05 Q-12.1 22.3 -9.8 22.3 -7.55 22.3 -5.75 21.05 L-4.5 19.8 -3.85 18.4 -3.8 17.9" fill="url(#gradient33)" fill-rule="evenodd" stroke="none"/>
    <path d="M-16.15 22.35 L-15.2 23.4 Q-13.2 25.2 -10.05 25.2 -6.9 25.2 -4.45 23.4 -2.1 21.7 -1.75 19.25 0.3 22.8 -3.8 26.05 -8.05 28.7 -13.0 26.7 -16.2 25.4 -16.15 22.35" fill="url(#gradient34)" fill-rule="evenodd" stroke="none"/>
    <path d="M-14.35 20.0 Q-13.2 16.85 -10.0 16.2 L-9.9 16.25 -9.05 17.05 -7.45 16.55 Q-5.2 17.6 -4.5 19.8 L-5.75 21.05 Q-7.55 22.3 -9.8 22.3 -12.1 22.3 -13.55 21.05 L-14.35 20.0 M-7.75 19.9 Q-8.1 18.15 -9.05 17.05 -8.1 18.15 -7.75 19.9 M-13.0 19.7 Q-11.1 17.85 -9.05 17.05 -11.1 17.85 -13.0 19.7" fill="url(#gradient35)" fill-rule="evenodd" stroke="none"/>
    <path d="M-38.6 18.7 Q-38.8 16.95 -37.0 15.1 -34.95 12.95 -31.55 12.0 L-29.8 11.6 -25.35 11.8 Q-22.7 12.5 -22.1 14.35 L-22.15 14.45 Q-23.65 16.3 -25.1 14.55 L-25.1 14.5 Q-25.2 14.1 -25.4 13.85 -25.95 13.0 -27.35 12.6 -29.05 12.15 -31.05 12.6 L-31.6 12.75 Q-33.95 13.4 -35.35 14.85 -36.45 15.95 -36.5 17.0 -37.2 19.8 -38.6 18.7" fill="url(#gradient36)" fill-rule="evenodd" stroke="none"/>
    <path d="M-31.4 14.8 L-32.65 14.75 -31.4 14.8 Q-34.35 15.8 -35.7 18.6 L-35.75 18.35 -35.85 17.75 Q-35.8 16.65 -34.7 15.5 L-32.6 14.0 -30.95 13.4 -26.7 13.25 Q-25.95 13.45 -25.4 13.85 -25.2 14.1 -25.1 14.5 L-25.1 14.55 Q-24.9 15.4 -25.35 16.25 -25.55 14.4 -27.7 14.15 -29.85 13.85 -31.4 14.8" fill="url(#gradient37)" fill-rule="evenodd" stroke="none"/>
    <path d="M-25.4 13.85 Q-25.95 13.45 -26.7 13.25 L-30.95 13.4 -32.6 14.0 -34.7 15.5 Q-35.8 16.65 -35.85 17.75 L-35.75 18.35 -35.7 18.6 -35.45 19.05 -36.0 18.55 -36.2 18.25 -36.4 17.7 -36.5 17.0 Q-36.45 15.95 -35.35 14.85 -33.95 13.4 -31.6 12.75 L-31.05 12.6 Q-29.05 12.15 -27.35 12.6 -25.95 13.0 -25.4 13.85" fill="url(#gradient38)" fill-rule="evenodd" stroke="none"/>
    <path d="M-37.7 20.65 L-38.5 19.2 -38.6 18.7 Q-37.2 19.8 -36.5 17.0 L-36.4 17.7 -36.2 18.25 -36.0 18.55 -35.45 19.05 -34.15 19.6 -29.9 19.45 Q-27.55 18.8 -26.15 17.35 L-25.35 16.25 Q-24.9 15.4 -25.1 14.55 -23.65 16.3 -22.15 14.45 L-22.05 14.55 Q-21.85 15.3 -22.0 16.05 -22.3 17.35 -23.55 18.7 -25.65 20.8 -29.0 21.75 L-35.2 22.0 Q-36.85 21.55 -37.7 20.65" fill="url(#gradient39)" fill-rule="evenodd" stroke="none"/>
    <path d="M-31.4 14.8 Q-29.85 13.85 -27.7 14.15 -25.55 14.4 -25.35 16.25 L-26.15 17.35 Q-27.55 18.8 -29.9 19.45 L-34.15 19.6 -35.45 19.05 -35.7 18.6 Q-34.35 15.8 -31.4 14.8 -30.7 14.9 -30.25 15.25 L-28.0 14.75 -30.25 15.25 Q-30.7 14.9 -31.4 14.8 M-30.25 15.25 Q-33.8 16.6 -33.6 17.65 -33.8 16.6 -30.25 15.25 -28.5 16.6 -28.45 17.15 -28.5 16.6 -30.25 15.25" fill="url(#gradient40)" fill-rule="evenodd" stroke="none"/>
    <path d="M-38.05 21.3 L-37.7 20.65 Q-36.85 21.55 -35.2 22.0 L-29.0 21.75 Q-25.65 20.8 -23.55 18.7 -22.3 17.35 -22.0 16.05 -20.95 20.0 -24.35 23.4 -29.65 26.95 -37.25 23.35 L-38.05 21.3" fill="url(#gradient41)" fill-rule="evenodd" stroke="none"/>
    <path d="M-39.15 27.25 Q-37.5 29.3 -32.6 30.15 L-29.85 31.0 -33.05 31.05 -34.8 30.95 Q-40.4 30.25 -41.95 26.6 L-39.95 25.65 Q-39.75 26.5 -39.15 27.25" fill="url(#gradient42)" fill-rule="evenodd" stroke="none"/>
    <path d="M-49.05 29.55 Q-44.1 25.45 -39.5 24.5 L-39.95 25.65 -41.95 26.6 Q-40.4 30.25 -34.8 30.95 L-33.05 31.05 Q-25.65 31.8 -24.6 34.6 -25.35 38.4 -32.15 37.35 -32.25 35.85 -33.9 37.05 -34.8 38.65 -35.3 40.3 -38.35 39.65 -41.35 37.65 -40.6 35.8 -39.45 34.4 -39.3 32.4 -41.3 33.9 L-43.35 36.5 -46.75 34.15 -44.5 31.75 Q-43.8 30.15 -45.95 30.55 L-48.2 32.7 -50.3 30.55 -49.05 29.55" fill="url(#gradient43)" fill-rule="evenodd" stroke="none"/>
    <path d="M-32.15 37.35 Q-33.1 39.2 -33.55 41.0 L-33.85 42.3 -34.15 45.0 Q-35.35 45.9 -36.0 44.35 L-35.6 41.45 -35.3 40.3 Q-34.8 38.65 -33.9 37.05 -32.25 35.85 -32.15 37.35" fill="url(#gradient44)" fill-rule="evenodd" stroke="none"/>
    <path d="M-35.6 41.45 Q-38.9 40.9 -41.85 39.0 L-41.35 37.65 Q-38.35 39.65 -35.3 40.3 L-35.6 41.45" fill="url(#gradient45)" fill-rule="evenodd" stroke="none"/>
    <path d="M-33.55 41.0 Q-29.75 42.3 -25.3 42.35 L-25.3 43.55 Q-30.3 43.45 -33.85 42.3 L-33.55 41.0" fill="url(#gradient46)" fill-rule="evenodd" stroke="none"/>
    <path d="M-25.3 42.35 Q-25.35 40.5 -25.8 38.55 -24.65 37.0 -23.55 38.55 -23.0 40.55 -22.9 42.5 L-22.85 43.4 Q-22.9 45.1 -23.25 46.75 -24.5 48.0 -25.8 46.75 -25.4 45.2 -25.3 43.55 L-25.3 42.35" fill="url(#gradient47)" fill-rule="evenodd" stroke="none"/>
    <path d="M-22.9 42.5 Q-19.2 42.95 -16.35 41.7 L-16.15 43.1 Q-20.0 44.5 -22.85 43.4 L-22.9 42.5" fill="url(#gradient48)" fill-rule="evenodd" stroke="none"/>
    <path d="M-6.05 38.45 Q-3.35 38.1 -2.3 36.4 L-1.6 37.05 Q-3.05 39.5 -5.7 39.3 L-6.05 38.45" fill="url(#gradient49)" fill-rule="evenodd" stroke="none"/>
    <path d="M-2.3 36.4 L-3.65 35.2 -2.95 34.3 Q-0.5 34.25 -0.2 36.55 -0.15 38.25 -1.0 38.0 L-1.6 37.05 -2.3 36.4" fill="url(#gradient50)" fill-rule="evenodd" stroke="none"/>
    <path d="M-8.0 39.25 Q-8.6 38.1 -9.55 37.05 -8.75 35.35 -7.65 36.1 -6.65 37.2 -6.05 38.45 L-5.7 39.3 Q-5.1 41.15 -5.3 43.35 -5.95 45.3 -7.05 44.4 -6.85 42.3 -7.5 40.45 L-8.0 39.25" fill="url(#gradient51)" fill-rule="evenodd" stroke="none"/>
    <path d="M-16.35 41.7 Q-16.75 39.65 -17.55 37.6 -16.7 36.45 -15.85 37.6 -14.85 39.35 -14.35 41.4 L-14.05 42.8 -13.85 45.85 Q-14.4 47.85 -15.95 46.75 -15.9 44.9 -16.15 43.1 L-16.35 41.7" fill="url(#gradient52)" fill-rule="evenodd" stroke="none"/>
    <path d="M-14.35 41.4 Q-10.75 41.15 -8.0 39.25 L-7.5 40.45 Q-10.1 42.35 -14.05 42.8 L-14.35 41.4" fill="url(#gradient53)" fill-rule="evenodd" stroke="none"/>
    <path d="M-52.85 33.8 Q-53.5 33.15 -52.2 30.95 L-50.35 29.5 -49.05 29.55 -50.3 30.55 -50.3 32.15 Q-51.8 32.2 -52.85 33.8" fill="url(#gradient54)" fill-rule="evenodd" stroke="none"/>
    <path d="M-46.75 34.15 L-43.35 36.5 -43.85 37.55 Q-45.55 37.0 -46.6 36.0 L-47.4 34.95 -46.75 34.15" fill="url(#gradient55)" fill-rule="evenodd" stroke="none"/>
    <path d="M-48.2 32.7 L-45.95 30.55 Q-43.8 30.15 -44.5 31.75 L-46.75 34.15 -47.4 34.95 -49.25 38.15 Q-50.55 38.95 -50.85 36.65 L-48.9 33.6 -48.2 32.7" fill="url(#gradient56)" fill-rule="evenodd" stroke="none"/>
    <path d="M-47.4 34.95 L-46.6 36.0 -48.3 38.15 -49.25 38.15 -47.4 34.95" fill="url(#gradient57)" fill-rule="evenodd" stroke="none"/>
    <path d="M-50.3 30.55 L-48.2 32.7 -48.9 33.6 -50.3 32.15 -50.3 30.55" fill="url(#gradient58)" fill-rule="evenodd" stroke="none"/>
    <path d="M-54.05 36.55 Q-53.55 34.85 -52.85 33.8 -51.8 32.2 -50.3 32.15 L-48.9 33.6 -50.85 36.65 Q-50.55 38.95 -49.25 38.15 L-48.3 38.15 -46.6 36.0 Q-45.55 37.0 -43.85 37.55 -44.55 39.1 -44.75 40.8 L-47.65 41.4 -50.8 40.85 Q-52.7 38.9 -54.05 36.55" fill="url(#gradient59)" fill-rule="evenodd" stroke="none"/>
    <path d="M-41.85 39.0 L-42.5 41.45 Q-43.9 42.7 -44.75 40.8 -44.55 39.1 -43.85 37.55 L-43.35 36.5 -41.3 33.9 Q-39.3 32.4 -39.45 34.4 -40.6 35.8 -41.35 37.65 L-41.85 39.0" fill="url(#gradient60)" fill-rule="evenodd" stroke="none"/>
    <path d="M27.55 -52.2 L32.7 -50.85 Q39.7 -47.65 49.75 -54.95 L48.8 -53.25 Q46.85 -50.45 44.2 -48.85 L50.2 -43.45 Q55.15 -38.65 56.05 -33.85 L56.2 -32.75 55.75 -30.45 53.2 -32.5 52.0 -31.65 48.3 -32.7 49.45 -31.0 50.6 -29.25 51.8 -28.55 49.5 -28.55 Q44.05 -29.0 39.3 -31.9 L40.5 -29.75 42.3 -28.3 36.2 -28.9 Q33.7 -29.6 31.2 -30.75 L33.4 -27.25 37.85 -23.6 45.3 -21.35 42.8 -21.35 43.1 -21.15 45.05 -20.0 Q41.1 -18.2 37.1 -18.9 L40.25 -9.35 Q41.15 -4.0 40.25 -1.45 L39.8 -1.0 39.3 -0.6 Q39.45 -1.9 38.95 -3.55 L36.6 -6.4 33.3 -8.2 34.1 -6.5 31.7 -4.8 25.7 -6.6 21.6 -9.2 Q22.6 -7.2 24.25 -4.95 L26.65 -2.9 25.4 -2.6 24.15 -2.3 Q20.8 -3.45 17.75 -5.5 L18.85 0.25 Q20.0 7.7 19.3 13.95 L20.2 16.1 18.6 19.15 19.8 21.4 Q20.65 32.4 16.75 41.85 L16.45 42.3 14.2 45.1 13.15 46.05 10.85 47.6 10.45 47.8 Q8.75 48.65 6.75 49.1 4.35 49.8 2.95 54.4 1.75 58.55 -0.5 61.6 -5.1 67.8 -14.15 69.35 -29.5 71.75 -49.95 59.6 -51.3 59.1 -52.3 56.05 -53.8 48.1 -54.05 36.55 -53.55 34.85 -52.85 33.8 -53.5 33.15 -52.2 30.95 L-50.35 29.5 -49.05 29.55 Q-44.1 25.45 -39.5 24.5 L-38.05 21.3 -37.7 20.65 M-29.8 11.6 L-28.0 10.35 -28.0 8.85 -28.0 8.55 -26.1 5.5 -23.45 -9.65 -24.4 -15.55 -25.35 -21.4 -27.15 -20.8 -29.95 -19.0 -34.9 -17.3 Q-43.65 -17.65 -50.0 -21.15 L-55.05 -23.65 -55.65 -25.45 -51.8 -23.9 -47.75 -26.8 -47.15 -28.2 Q-43.75 -33.05 -39.55 -36.65 L-39.5 -36.7 -38.4 -38.1 Q-44.35 -38.65 -49.55 -42.6 L-54.1 -48.2 -53.65 -49.55 -54.7 -50.9 -54.2 -52.6 -49.65 -51.05 Q-52.9 -52.9 -56.15 -56.65 L-56.15 -58.25 Q-49.55 -54.3 -43.3 -53.45 L-43.05 -53.4 -26.8 -56.55 -30.3 -60.35 -32.25 -66.3 -31.0 -67.3 -30.3 -66.25 Q-28.3 -63.7 -23.3 -63.5 L-18.9 -63.9 -16.45 -62.9 -11.95 -63.9 -6.1 -62.0 -6.1 -64.15 Q-4.35 -68.4 0.75 -68.55 2.7 -67.55 4.6 -66.6 L8.5 -64.6 9.8 -63.0 9.85 -63.0 13.6 -64.15 17.75 -69.75 18.4 -69.4 19.1 -69.0 16.6 -62.8 20.95 -66.2 21.5 -65.75 22.05 -65.35 17.85 -60.55 19.95 -60.35 25.7 -62.55 29.4 -66.95 30.0 -65.95 26.7 -59.75 24.05 -56.75 25.45 -57.0 28.75 -57.55 34.05 -61.1 34.9 -59.5 Q34.3 -57.7 33.0 -56.1 31.95 -54.9 30.5 -53.85 L27.55 -52.2 Q22.85 -53.2 18.75 -53.0 L17.4 -52.15 16.0 -51.35 14.7 -48.0 16.65 -48.9 18.65 -49.9 31.7 -48.0 35.55 -47.7 39.75 -47.9 44.2 -48.85 M12.4 -61.1 L15.95 -64.75 18.4 -69.4 M21.1 -55.0 L22.55 -55.1 24.05 -56.75 M5.25 -45.7 L3.35 -50.95 Q3.1 -55.0 3.75 -57.65 4.2 -59.5 5.1 -60.65 5.95 -61.8 7.25 -62.3 L11.15 -61.4 9.85 -63.0 M-1.5 -46.75 L-0.7 -47.75 0.75 -52.9 0.45 -54.35 -0.1 -56.95 -0.35 -58.0 -1.7 -58.85 -1.7 -62.9 Q-0.5 -66.1 4.6 -66.6 M-3.15 -54.6 L-2.55 -50.45 Q-3.1 -45.25 -6.05 -43.05 L-4.8 -43.45 -4.3 -43.25 -1.5 -46.75 -0.95 -42.9 0.9 -43.75 Q2.8 -44.8 4.15 -42.45 L6.2 -40.4 6.85 -41.1 5.25 -45.7 M16.8 -60.65 L17.85 -60.55 M15.8 -60.75 L16.8 -60.65 M11.15 -61.4 L12.4 -61.1 15.8 -60.75 16.6 -62.8 M21.1 -55.0 L14.1 -54.6 Q10.35 -53.95 7.75 -44.75 L7.8 -42.05 8.7 -43.05 10.95 -43.5 14.7 -48.0 M32.55 -41.25 L37.85 -38.4 Q42.4 -34.75 48.3 -32.7 M35.7 -40.9 Q45.4 -38.6 53.2 -32.5 M15.65 -44.4 L18.05 -45.2 Q21.15 -45.95 25.0 -45.25 L32.55 -41.25 M15.65 -44.4 L19.25 -43.8 27.9 -36.1 31.2 -30.75 M10.95 -43.5 L12.65 -43.9 M9.65 -41.05 L11.8 -41.65 17.3 -38.2 Q21.95 -33.85 26.0 -28.9 29.6 -24.55 32.75 -19.8 L38.3 -9.15 Q40.5 -4.4 39.8 -1.0 M6.2 -40.4 L7.0 -40.65 6.85 -41.1 7.8 -42.05 M7.85 -38.75 L6.2 -40.4 M9.05 -39.25 L11.85 -36.85 Q16.55 -32.0 18.4 -24.05 L20.3 -12.5 Q20.7 -10.95 21.6 -9.2 M14.9 -36.85 L7.85 -40.95 7.0 -40.65 M8.75 -37.05 L7.85 -38.75 Q8.2 -35.1 9.1 -32.2 9.7 -30.2 10.6 -28.55 11.25 -32.45 9.7 -35.3 L8.8 -37.0 M2.6 -28.1 Q3.55 -31.85 3.25 -39.2 5.0 -33.95 4.95 -23.75 L3.9 -14.3 Q3.3 -11.2 2.3 -8.25 0.45 -2.95 -2.6 1.95 L-4.15 1.8 -5.35 5.1 -7.1 5.5 M-2.2 -12.4 Q-1.0 -18.55 1.95 -26.25 L2.55 -27.8 M-2.4 -11.3 L-2.95 -6.75 Q-3.05 -2.15 -4.15 1.8 M8.25 -15.5 L8.75 -16.7 11.55 -23.85 10.6 -28.55 M8.25 -15.5 L7.8 -14.4 3.25 -7.65 2.3 -8.25 M10.65 -6.25 Q9.75 -10.75 8.25 -15.5 M14.8 -1.95 Q14.35 -5.7 13.3 -9.15 L10.85 -11.8 8.75 -16.7 M13.3 -9.15 Q15.45 -7.1 17.75 -5.5 M33.4 -27.25 L35.45 -23.85 35.7 -23.1 37.1 -18.9 M33.3 -8.2 L30.75 -10.45 Q26.15 -13.5 23.3 -18.75 21.35 -27.25 14.9 -36.85 M32.8 -9.4 Q34.85 -8.2 36.6 -6.4 M30.75 -10.45 L32.8 -9.4 M38.95 -3.55 L38.1 -5.65 Q33.45 -14.35 27.65 -20.05 M35.55 -47.7 L44.3 -44.4 Q52.05 -39.3 55.75 -30.45 M19.2 22.3 L19.8 21.4 M14.6 17.65 Q14.6 16.65 13.05 16.25 L14.0 13.45 Q15.6 5.25 14.8 -1.95 M14.9 20.1 L14.5 18.1 14.6 17.65 M13.45 21.35 L14.5 21.65 18.75 16.9 14.9 20.1 13.45 21.35 11.95 22.55 11.05 23.3 12.4 23.95 13.9 22.3 14.5 21.65 M11.6 18.95 L11.65 18.95 Q12.05 19.6 12.0 20.35 L11.95 22.55 M15.55 23.2 Q16.15 24.25 15.3 26.45 17.35 24.7 19.1 22.4 L19.2 22.3 M15.55 23.2 Q15.1 22.45 13.9 22.3 M11.6 18.95 Q11.0 18.1 9.6 17.45 L10.95 13.3 Q12.6 4.25 10.65 -6.25 M13.45 30.15 L13.2 28.05 Q11.25 29.3 9.05 30.15 L8.95 30.2 3.65 31.5 Q2.3 31.85 1.8 33.6 L1.25 36.1 Q-4.15 55.95 -37.35 47.9 -45.95 45.7 -50.8 40.85 -52.7 38.9 -54.05 36.55 M11.35 25.1 L10.3 26.2 M11.35 25.1 Q13.8 24.75 13.2 28.05 L14.3 27.25 15.3 26.45 15.65 28.75 Q16.4 36.4 14.2 45.1 M13.45 30.15 Q14.2 39.15 10.85 47.6 M11.05 23.3 L6.8 26.85 M12.4 23.95 L11.35 25.1 M-23.0 -60.4 L-27.7 -62.05 -30.3 -66.25 M-49.65 -51.05 L-47.4 -50.0 Q-40.8 -48.6 -35.05 -50.0 -30.1 -52.75 -23.9 -53.45 L-20.75 -52.6 -19.65 -52.35 Q-16.35 -51.25 -15.9 -48.2 L-15.45 -48.05 -15.45 -50.4 Q-15.45 -51.6 -15.85 -52.55 L-16.5 -53.7 -16.55 -53.75 Q-17.3 -54.75 -18.65 -55.4 L-26.35 -56.65 -26.8 -56.55 M-5.1 -61.7 L-3.75 -60.1 -1.7 -58.85 M-16.5 -53.7 L-15.55 -53.3 -12.3 -51.9 -11.2 -51.25 Q-9.0 -49.75 -8.65 -47.65 L-8.65 -46.4 M-23.0 -60.4 L-18.3 -58.75 -10.85 -59.6 Q-8.75 -59.25 -7.45 -58.25 -6.05 -57.2 -5.5 -55.5 L-5.35 -55.1 Q-4.55 -52.1 -4.45 -48.6 -4.4 -46.2 -5.7 -43.65 L-6.05 -43.05 -7.2 -42.6 -8.85 -45.05 -12.1 -46.45 -13.9 -46.5 -15.6 -46.45 -18.45 -46.15 Q-23.1 -45.35 -27.8 -42.75 -35.4 -37.35 -42.55 -29.55 L-47.75 -26.8 M-8.7 -60.9 L-12.3 -61.55 -16.45 -62.9 M-3.25 -59.4 L-3.75 -60.1 M-2.05 -56.55 Q-2.25 -57.9 -3.25 -59.4 M-5.0 -59.1 Q-3.9 -57.9 -3.45 -56.3 L-3.25 -55.1 -3.15 -54.6 M-5.0 -59.1 L-6.8 -60.6 -8.7 -60.9 M-5.1 -61.7 L-6.1 -62.0 M-50.15 -47.05 Q-46.6 -45.85 -42.0 -45.9 -33.7 -48.4 -26.45 -48.9 L-23.3 -49.05 Q-26.3 -48.1 -29.0 -46.5 L-33.85 -42.95 -36.0 -40.85 -38.4 -38.1 M-36.0 -40.85 L-41.15 -41.1 -48.25 -43.8 -54.1 -48.2 M-50.15 -47.05 Q-48.0 -45.65 -44.45 -44.55 -39.9 -43.05 -37.7 -44.05 L-29.0 -46.5 M-53.65 -49.55 L-52.65 -48.2 -51.35 -47.6 -50.15 -47.05 M-51.25 -23.85 L-51.8 -23.9 M-40.65 -21.8 L-42.8 -22.8 -42.8 -23.65 -40.15 -22.7 -25.65 -24.75 -17.45 -30.85 -15.6 -34.35 -8.5 -41.75 -7.9 -42.4 -7.2 -42.6 M-34.45 -30.55 L-39.8 -26.4 -48.2 -23.65 -51.25 -23.85 M-11.45 -43.7 L-9.45 -43.6 -7.9 -42.4 M-2.0 -42.4 L-4.3 -43.25 M-10.45 -12.05 L-8.45 -27.85 Q-7.4 -34.75 -2.95 -41.95 L-3.85 -41.55 -4.65 -41.0 Q-6.8 -39.3 -8.35 -35.7 L-8.6 -35.3 Q-11.1 -32.5 -13.05 -29.05 L-15.4 -24.4 -17.15 -11.4 -16.5 -8.4 -16.45 -8.1 -15.7 -5.6 -15.65 -5.45 Q-14.05 -0.7 -11.25 1.7 L-9.8 1.35 Q-10.5 -1.5 -10.85 -4.7 L-11.0 -6.9 -11.05 -7.2 -10.45 -12.05 M-2.65 -27.75 Q-3.7 -35.15 0.9 -43.75 M-0.95 -42.9 L-2.0 -42.4 -2.95 -41.95 M-13.9 -46.5 L-14.75 -47.9 -15.45 -48.05 M-17.45 -30.85 Q-18.6 -28.4 -19.25 -25.95 -20.2 -22.5 -20.2 -19.05 L-19.3 -13.0 -18.35 -6.8 -15.75 -5.5 -15.65 -5.45 M-2.65 -27.75 L-2.2 -25.55 Q-0.8 -20.6 -2.2 -12.4 L-2.4 -11.3 M-34.45 -30.55 L-20.9 -41.2 Q-16.2 -43.75 -11.45 -43.7 M-34.05 -40.7 Q-36.9 -38.95 -39.5 -36.7 M-40.65 -21.8 L-38.5 -20.8 -27.15 -20.8 M-19.25 -25.95 Q-21.35 -23.0 -25.35 -21.4 M-21.35 -49.6 L-16.8 -48.6 M-21.35 -49.6 L-23.3 -49.05 M-7.25 5.25 Q-7.9 0.0 -10.85 -4.7 M-8.85 11.2 Q-15.95 6.9 -26.05 9.2 L-28.0 10.35 M-16.9 19.85 L-16.9 19.1 Q-16.6 16.55 -14.15 14.75 L-13.05 14.05 Q-11.05 13.0 -8.55 13.0 L-7.4 13.1 Q-5.05 13.35 -3.45 14.75 -2.2 15.9 -1.8 17.35 -1.65 18.15 -1.75 19.1 L-1.75 19.25 Q-2.1 21.7 -4.45 23.4 -6.9 25.2 -10.05 25.2 -13.2 25.2 -15.2 23.4 L-16.15 22.35 Q-16.9 21.2 -16.9 19.85 M-39.15 27.25 Q-37.5 29.3 -32.6 30.15 M-32.15 37.35 Q-33.1 39.2 -33.55 41.0 L-33.85 42.3 -34.15 45.0 Q-35.35 45.9 -36.0 44.35 L-35.6 41.45 Q-38.9 40.9 -41.85 39.0 L-42.5 41.45 Q-43.9 42.7 -44.75 40.8 -44.55 39.1 -43.85 37.55 L-43.35 36.5 -41.3 33.9 Q-39.3 32.4 -39.45 34.4 -40.6 35.8 -41.35 37.65 L-41.85 39.0 M-25.3 42.35 Q-25.35 40.5 -25.8 38.55 -24.65 37.0 -23.55 38.55 -23.0 40.55 -22.9 42.5 L-22.85 43.4 Q-22.9 45.1 -23.25 46.75 -24.5 48.0 -25.8 46.75 -25.4 45.2 -25.3 43.55 -30.3 43.45 -33.85 42.3 M-16.35 41.7 Q-16.75 39.65 -17.55 37.6 -16.7 36.45 -15.85 37.6 -14.85 39.35 -14.35 41.4 L-14.05 42.8 -13.85 45.85 Q-14.4 47.85 -15.95 46.75 -15.9 44.9 -16.15 43.1 -20.0 44.5 -22.85 43.4 M-2.3 36.4 L-3.65 35.2 -2.95 34.3 Q-0.5 34.25 -0.2 36.55 -0.15 38.25 -1.0 38.0 L-1.6 37.05 Q-3.05 39.5 -5.7 39.3 M-7.5 40.45 Q-10.1 42.35 -14.05 42.8 M-14.7 17.75 L-14.75 17.9 M-14.6 18.0 Q-14.15 16.7 -12.9 15.75 -11.1 14.45 -8.85 14.45 -6.55 14.45 -5.1 15.75 -4.1 16.7 -3.9 17.95 L-3.85 18.4 -4.5 19.8 -5.75 21.05 Q-7.55 22.3 -9.8 22.3 -12.1 22.3 -13.55 21.05 L-14.35 20.0 Q-14.75 19.25 -14.75 18.4 L-14.6 18.0 M-3.8 17.9 Q-3.7 16.95 -4.0 16.15 M-4.0 16.1 Q-4.35 15.35 -5.0 14.75 -6.45 13.5 -8.75 13.5 -11.0 13.5 -12.8 14.75 -14.45 16.0 -14.7 17.7 M-3.85 18.4 L-3.8 17.9 M-39.15 27.25 Q-39.75 26.5 -39.95 25.65 L-39.5 24.5 M-35.3 40.3 L-35.6 41.45 M-25.3 42.35 L-25.3 43.55 M-35.3 40.3 Q-34.8 38.65 -33.9 37.05 -32.25 35.85 -32.15 37.35 M-1.6 37.05 L-2.3 36.4 M-16.35 41.7 L-16.15 43.1 M-49.05 29.55 L-50.3 30.55 -50.3 32.15 -48.9 33.6 -50.85 36.65 Q-50.55 38.95 -49.25 38.15 L-47.4 34.95 -46.6 36.0 Q-45.55 37.0 -43.85 37.55 M-48.2 32.7 L-45.95 30.55 Q-43.8 30.15 -44.5 31.75 L-46.75 34.15 -47.4 34.95 M-48.9 33.6 L-48.2 32.7 M-52.85 33.8 Q-51.8 32.2 -50.3 32.15" fill="none" stroke="#000000" stroke-linecap="round" stroke-linejoin="round" stroke-opacity="0.4" stroke-width="0.5"/>
    <path d="M-37.7 20.65 L-38.5 19.2 -38.6 18.7 Q-38.8 16.95 -37.0 15.1 -34.95 12.95 -31.55 12.0 L-29.8 11.6 -25.35 11.8 Q-22.7 12.5 -22.1 14.35 L-22.05 14.55 Q-21.85 15.3 -22.0 16.05 -22.3 17.35 -23.55 18.7 -25.65 20.8 -29.0 21.75 L-35.2 22.0 Q-36.85 21.55 -37.7 20.65 M-8.0 39.25 Q-8.6 38.1 -9.55 37.05 -8.75 35.35 -7.65 36.1 -6.65 37.2 -6.05 38.45 L-5.7 39.3 Q-5.1 41.15 -5.3 43.35 -5.95 45.3 -7.05 44.4 -6.85 42.3 -7.5 40.45 L-8.0 39.25 M-14.75 18.4 L-14.75 17.9 M-25.35 16.25 Q-24.9 15.4 -25.1 14.55 L-25.1 14.5 Q-25.2 14.1 -25.4 13.85 -25.95 13.45 -26.7 13.25 L-30.95 13.4 -32.6 14.0 -34.7 15.5 Q-35.8 16.65 -35.85 17.75 L-35.75 18.35 -35.7 18.6 -35.45 19.05 -36.0 18.55 -36.2 18.25 -36.4 17.7 -36.5 17.0 Q-36.45 15.95 -35.35 14.85 -33.95 13.4 -31.6 12.75 L-31.05 12.6 Q-29.05 12.15 -27.35 12.6 -25.95 13.0 -25.4 13.85 M-25.35 16.25 L-26.15 17.35 Q-27.55 18.8 -29.9 19.45 L-34.15 19.6 -35.45 19.05" fill="none" stroke="#000000" stroke-linecap="round" stroke-linejoin="round" stroke-opacity="0.4" stroke-width="0.5"/>
    <path d="M-10.0 16.2 L-10.75 15.75 M-7.45 16.55 L-9.05 17.05 Q-8.1 18.15 -7.75 19.9 M-7.45 16.55 L-6.5 16.45 M-10.0 16.2 L-9.9 16.25 -9.05 17.05 Q-11.1 17.85 -13.0 19.7 M-32.65 14.75 L-31.4 14.8 Q-30.7 14.9 -30.25 15.25 L-28.0 14.75 M-30.25 15.25 Q-28.5 16.6 -28.45 17.15 M-33.6 17.65 Q-33.8 16.6 -30.25 15.25" fill="none" stroke="#669900" stroke-linecap="round" stroke-linejoin="round" stroke-width="0.5"/>
    <path d="M48.8 -53.25 Q46.85 -50.45 44.2 -48.85 L50.2 -43.45 Q55.15 -38.65 56.05 -33.85 L56.2 -32.75 55.75 -30.45 53.2 -32.5 52.0 -31.65 48.3 -32.7 50.6 -29.25 51.8 -28.55 49.5 -28.55 Q44.05 -29.0 39.3 -31.9 L40.5 -29.75 42.3 -28.3 36.2 -28.9 Q33.7 -29.6 31.2 -30.75 L33.4 -27.25 37.85 -23.6 45.3 -21.35 42.8 -21.35 45.05 -20.0 Q41.1 -18.2 37.1 -18.9 L40.25 -9.35 Q41.15 -4.0 40.25 -1.45 L39.3 -0.6 Q39.45 -1.9 38.95 -3.55 L36.6 -6.4 33.3 -8.2 34.1 -6.5 31.7 -4.8 25.7 -6.6 21.6 -9.2 Q22.6 -7.2 24.25 -4.95 L26.65 -2.9 24.15 -2.3 Q20.8 -3.45 17.75 -5.5 L18.85 0.25 Q20.0 7.7 19.3 13.95 L20.2 16.1 18.6 19.15 19.8 21.4 Q20.65 32.4 16.75 41.85 L16.45 42.3 14.2 45.1 13.15 46.05 10.85 47.6 10.45 47.8 Q8.75 48.65 6.75 49.1 4.35 49.8 2.95 54.4 1.75 58.55 -0.5 61.6 -5.1 67.8 -14.15 69.35 -29.5 71.75 -49.95 59.6 -51.3 59.1 -52.3 56.05 -53.8 48.1 -54.05 36.55 -53.55 34.85 -52.85 33.8 -53.5 33.15 -52.2 30.95 L-50.35 29.5 -49.05 29.55 Q-44.1 25.45 -39.5 24.5 L-38.05 21.3 -37.7 20.65 -38.5 19.2 -38.6 18.7 Q-38.8 16.95 -37.0 15.1 -34.95 12.95 -31.55 12.0 L-29.8 11.6 -28.0 10.35 -28.0 8.55 -26.1 5.5 -23.45 -9.65 -25.35 -21.4 -27.15 -20.8 -29.95 -19.0 -34.9 -17.3 Q-43.65 -17.65 -50.0 -21.15 L-55.05 -23.65 -55.65 -25.45 -51.8 -23.9 -47.75 -26.8 -47.15 -28.2 Q-43.75 -33.05 -39.55 -36.65 L-39.5 -36.7 -38.4 -38.1 Q-44.35 -38.65 -49.55 -42.6 L-54.1 -48.2 -53.65 -49.55 -54.7 -50.9 -54.2 -52.6 -49.65 -51.05 Q-52.9 -52.9 -56.15 -56.65 L-56.15 -58.25 Q-49.55 -54.3 -43.3 -53.45 L-43.05 -53.4 -26.8 -56.55 -30.3 -60.35 -32.25 -66.3 -31.0 -67.3 -30.3 -66.25 Q-28.3 -63.7 -23.3 -63.5 L-18.9 -63.9 -16.45 -62.9 -11.95 -63.9 -6.1 -62.0 -6.1 -64.15 Q-4.35 -68.4 0.75 -68.55 L8.5 -64.6 9.8 -63.0 9.85 -63.0 13.6 -64.15 17.75 -69.75 19.1 -69.0 16.6 -62.8 20.95 -66.2 22.05 -65.35 17.85 -60.55 19.95 -60.35 25.7 -62.55 29.4 -66.95 30.0 -65.95 26.7 -59.75 24.05 -56.75 28.75 -57.55 34.05 -61.1 34.9 -59.5 Q34.3 -57.7 33.0 -56.1 31.95 -54.9 30.5 -53.85 L27.55 -52.2 32.7 -50.85 Q39.7 -47.65 49.75 -54.95 L48.8 -53.25 Z" fill="none" stroke="#000000" stroke-linecap="round" stroke-linejoin="round" stroke-opacity="0.4" stroke-width="1.0"/>
  </g>
  <defs>
    <linearGradient gradientTransform="matrix(7.0E-4, 0.0027, -0.0057, 0.0015, -9.5, -47.15)" gradientUnits="userSpaceOnUse" id="gradient0" spreadMethod="pad" x1="-819.2" x2="819.2">
      <stop offset="0.0" stop-color="#999140"/>
      <stop offset="1.0" stop-color="#7c7534"/>
    </linearGradient>
    <linearGradient gradientTransform="matrix(0.0, 0.0041, -0.0021, 0.0, -4.3, -48.9)" gradientUnits="userSpaceOnUse" id="gradient1" spreadMethod="pad" x1="-819.2" x2="819.2">
      <stop offset="0.0" stop-color="#999140"/>
      <stop offset="1.0" stop-color="#7c7534"/>
    </linearGradient>
    <linearGradient gradientTransform="matrix(-0.0011, 0.0039, -0.0025, -7.0E-4, -2.55, -48.7)" gradientUnits="userSpaceOnUse" id="gradient2" spreadMethod="pad" x1="-819.2" x2="819.2">
      <stop offset="0.0" stop-color="#999140"/>
      <stop offset="1.0" stop-color="#7c7534"/>
    </linearGradient>
    <linearGradient gradientTransform="matrix(0.0053, -7.0E-4, 4.0E-4, 0.0029, -37.45, -46.3)" gradientUnits="userSpaceOnUse" id="gradient3" spreadMethod="pad" x1="-819.2" x2="819.2">
      <stop offset="0.0" stop-color="#999140"/>
      <stop offset="1.0" stop-color="#7c7534"/>
    </linearGradient>
    <linearGradient gradientTransform="matrix(0.001, 0.0038, -0.0042, 0.0011, 0.6, -51.05)" gradientUnits="userSpaceOnUse" id="gradient4" spreadMethod="pad" x1="-819.2" x2="819.2">
      <stop offset="0.0" stop-color="#999140"/>
      <stop offset="1.0" stop-color="#7c7534"/>
    </linearGradient>
    <linearGradient gradientTransform="matrix(0.0054, 0.0031, -0.0077, 0.0134, -14.7, 1.9)" gradientUnits="userSpaceOnUse" id="gradient5" spreadMethod="pad" x1="-819.2" x2="819.2">
      <stop offset="0.0" stop-color="#ddb966"/>
      <stop offset="0.9921568627450981" stop-color="#cea03c"/>
    </linearGradient>
    <linearGradient gradientTransform="matrix(0.007, -0.0176, 0.0222, 0.0089, -8.85, -10.15)" gradientUnits="userSpaceOnUse" id="gradient6" spreadMethod="pad" x1="-819.2" x2="819.2">
      <stop offset="0.0" stop-color="#795e20"/>
      <stop offset="1.0" stop-color="#0e0b03"/>
    </linearGradient>
    <linearGradient gradientTransform="matrix(0.0, 0.0043, -0.0109, 0.0, 12.2, -48.5)" gradientUnits="userSpaceOnUse" id="gradient7" spreadMethod="pad" x1="-819.2" x2="819.2">
      <stop offset="0.0" stop-color="#999140"/>
      <stop offset="1.0" stop-color="#7c7534"/>
    </linearGradient>
    <linearGradient gradientTransform="matrix(-0.0095, 0.0044, -0.0023, -0.0049, 17.15, -51.25)" gradientUnits="userSpaceOnUse" id="gradient8" spreadMethod="pad" x1="-819.2" x2="819.2">
      <stop offset="0.0" stop-color="#999140"/>
      <stop offset="1.0" stop-color="#7c7534"/>
    </linearGradient>
    <linearGradient gradientTransform="matrix(-0.0031, -0.0017, 0.001, -0.0018, 39.7, -38.8)" gradientUnits="userSpaceOnUse" id="gradient9" spreadMethod="pad" x1="-819.2" x2="819.2">
      <stop offset="0.0" stop-color="#999140"/>
      <stop offset="1.0" stop-color="#7c7534"/>
    </linearGradient>
    <linearGradient gradientTransform="matrix(8.0E-4, 0.0029, -9.0E-4, 2.0E-4, 9.7, -33.2)" gradientUnits="userSpaceOnUse" id="gradient10" spreadMethod="pad" x1="-819.2" x2="819.2">
      <stop offset="0.0" stop-color="#999140"/>
      <stop offset="1.0" stop-color="#7c7534"/>
    </linearGradient>
    <linearGradient gradientTransform="matrix(0.0031, 0.0116, -0.0081, 0.0022, 21.85, -26.1)" gradientUnits="userSpaceOnUse" id="gradient11" spreadMethod="pad" x1="-819.2" x2="819.2">
      <stop offset="0.0" stop-color="#999140"/>
      <stop offset="1.0" stop-color="#7c7534"/>
    </linearGradient>
    <linearGradient gradientTransform="matrix(0.0, 0.0102, -0.0042, 0.0, 11.65, 2.85)" gradientUnits="userSpaceOnUse" id="gradient12" spreadMethod="pad" x1="-819.2" x2="819.2">
      <stop offset="0.0" stop-color="#afa64f"/>
      <stop offset="1.0" stop-color="#c1ba79"/>
    </linearGradient>
    <linearGradient gradientTransform="matrix(-0.0157, -0.0042, 0.0104, -0.0387, -17.75, 19.2)" gradientUnits="userSpaceOnUse" id="gradient13" spreadMethod="pad" x1="-819.2" x2="819.2">
      <stop offset="0.0" stop-color="#b78f32"/>
      <stop offset="0.9921568627450981" stop-color="#9c7927"/>
    </linearGradient>
    <linearGradient gradientTransform="matrix(-0.0014, -0.0053, 0.0022, -6.0E-4, 15.5, -6.55)" gradientUnits="userSpaceOnUse" id="gradient14" spreadMethod="pad" x1="-819.2" x2="819.2">
      <stop offset="0.0" stop-color="#795e20"/>
      <stop offset="1.0" stop-color="#0e0b03"/>
    </linearGradient>
    <linearGradient gradientTransform="matrix(-0.0014, -0.0051, 0.0053, -0.0014, 15.95, 9.75)" gradientUnits="userSpaceOnUse" id="gradient15" spreadMethod="pad" x1="-819.2" x2="819.2">
      <stop offset="0.0" stop-color="#b78f32"/>
      <stop offset="0.9921568627450981" stop-color="#9c7927"/>
    </linearGradient>
    <linearGradient gradientTransform="matrix(0.0026, 0.0, 0.0, 0.0029, 16.6, 17.75)" gradientUnits="userSpaceOnUse" id="gradient16" spreadMethod="pad" x1="-819.2" x2="819.2">
      <stop offset="0.0" stop-color="#846623"/>
      <stop offset="0.9921568627450981" stop-color="#765b1e"/>
    </linearGradient>
    <linearGradient gradientTransform="matrix(0.0032, 0.0, 0.0, 0.0029, 16.1, 19.25)" gradientUnits="userSpaceOnUse" id="gradient17" spreadMethod="pad" x1="-819.2" x2="819.2">
      <stop offset="0.0" stop-color="#846623"/>
      <stop offset="0.9921568627450981" stop-color="#765b1e"/>
    </linearGradient>
    <linearGradient gradientTransform="matrix(0.0025, 0.0025, -0.0084, 0.0084, 6.75, 27.75)" gradientUnits="userSpaceOnUse" id="gradient18" spreadMethod="pad" x1="-819.2" x2="819.2">
      <stop offset="0.0" stop-color="#9f7c2a"/>
      <stop offset="0.9921568627450981" stop-color="#765b1e"/>
    </linearGradient>
    <linearGradient gradientTransform="matrix(0.003, 0.0, 0.0, 0.0038, 16.3, 20.05)" gradientUnits="userSpaceOnUse" id="gradient19" spreadMethod="pad" x1="-819.2" x2="819.2">
      <stop offset="0.0" stop-color="#8c6d26"/>
      <stop offset="0.9921568627450981" stop-color="#806322"/>
    </linearGradient>
    <linearGradient gradientTransform="matrix(-6.0E-4, -0.0022, 0.0027, -7.0E-4, 13.4, 24.0)" gradientUnits="userSpaceOnUse" id="gradient20" spreadMethod="pad" x1="-819.2" x2="819.2">
      <stop offset="0.0" stop-color="#afa64f"/>
      <stop offset="1.0" stop-color="#c1ba79"/>
    </linearGradient>
    <linearGradient gradientTransform="matrix(-8.0E-4, -0.0031, 0.0028, -7.0E-4, 16.95, 23.3)" gradientUnits="userSpaceOnUse" id="gradient21" spreadMethod="pad" x1="-819.2" x2="819.2">
      <stop offset="0.0" stop-color="#8c6d26"/>
      <stop offset="0.9921568627450981" stop-color="#806322"/>
    </linearGradient>
    <linearGradient gradientTransform="matrix(-7.0E-4, -0.0025, 0.003, -8.0E-4, 10.95, 27.4)" gradientUnits="userSpaceOnUse" id="gradient22" spreadMethod="pad" x1="-819.2" x2="819.2">
      <stop offset="0.0" stop-color="#8c6d26"/>
      <stop offset="0.9921568627450981" stop-color="#806322"/>
    </linearGradient>
    <linearGradient gradientTransform="matrix(0.0, -0.0055, 0.0031, 0.0, 13.35, 33.45)" gradientUnits="userSpaceOnUse" id="gradient23" spreadMethod="pad" x1="-819.2" x2="819.2">
      <stop offset="0.0" stop-color="#afa64f"/>
      <stop offset="1.0" stop-color="#c1ba79"/>
    </linearGradient>
    <linearGradient gradientTransform="matrix(0.0, -0.0192, 0.0067, 0.0, 4.95, 29.05)" gradientUnits="userSpaceOnUse" id="gradient24" spreadMethod="pad" x1="-819.2" x2="819.2">
      <stop offset="0.0" stop-color="#9e953f"/>
      <stop offset="1.0" stop-color="#b3a744"/>
    </linearGradient>
    <linearGradient gradientTransform="matrix(-0.0035, 0.002, -0.0049, -0.0084, 9.95, 38.85)" gradientUnits="userSpaceOnUse" id="gradient25" spreadMethod="pad" x1="-819.2" x2="819.2">
      <stop offset="0.0" stop-color="#cac473"/>
      <stop offset="1.0" stop-color="#b3a744"/>
    </linearGradient>
    <linearGradient gradientTransform="matrix(0.0016, -4.0E-4, 0.0033, 0.0121, 18.4, 33.3)" gradientUnits="userSpaceOnUse" id="gradient26" spreadMethod="pad" x1="-819.2" x2="819.2">
      <stop offset="0.0" stop-color="#cac473"/>
      <stop offset="1.0" stop-color="#b3a744"/>
    </linearGradient>
    <linearGradient gradientTransform="matrix(-0.025, 0.0, 0.0, -0.0205, -26.05, 52.95)" gradientUnits="userSpaceOnUse" id="gradient27" spreadMethod="pad" x1="-819.2" x2="819.2">
      <stop offset="0.0" stop-color="#cac473"/>
      <stop offset="1.0" stop-color="#b3a744"/>
    </linearGradient>
    <linearGradient gradientTransform="matrix(0.0071, 0.0, 0.0, 0.0039, -17.75, 11.55)" gradientUnits="userSpaceOnUse" id="gradient28" spreadMethod="pad" x1="-819.2" x2="819.2">
      <stop offset="0.0" stop-color="#ddb966"/>
      <stop offset="0.9921568627450981" stop-color="#cea03c"/>
    </linearGradient>
    <linearGradient gradientTransform="matrix(0.0124, 0.0, 0.0, 0.0034, -17.85, 9.0)" gradientUnits="userSpaceOnUse" id="gradient29" spreadMethod="pad" x1="-819.2" x2="819.2">
      <stop offset="0.0" stop-color="#8c6d26"/>
      <stop offset="0.9921568627450981" stop-color="#806322"/>
    </linearGradient>
    <linearGradient gradientTransform="matrix(5.0E-4, -0.0019, 0.0084, 0.0022, -9.25, 17.9)" gradientUnits="userSpaceOnUse" id="gradient30" spreadMethod="pad" x1="-819.2" x2="819.2">
      <stop offset="0.0" stop-color="#539100"/>
      <stop offset="1.0" stop-color="#71ba01"/>
    </linearGradient>
    <linearGradient gradientTransform="matrix(0.0067, 0.0, 0.0, 0.0027, -9.3, 15.75)" gradientUnits="userSpaceOnUse" id="gradient31" spreadMethod="pad" x1="-819.2" x2="819.2">
      <stop offset="0.0" stop-color="#050900"/>
      <stop offset="1.0" stop-color="#2d4b00"/>
    </linearGradient>
    <linearGradient gradientTransform="matrix(0.0067, 0.0, 0.0, 0.0034, -9.3, 17.2)" gradientUnits="userSpaceOnUse" id="gradient32" spreadMethod="pad" x1="-819.2" x2="819.2">
      <stop offset="0.0" stop-color="#050900"/>
      <stop offset="1.0" stop-color="#2d4b00"/>
    </linearGradient>
    <linearGradient gradientTransform="matrix(0.0042, 0.0024, -0.0037, 0.0064, -9.9, 19.65)" gradientUnits="userSpaceOnUse" id="gradient33" spreadMethod="pad" x1="-819.2" x2="819.2">
      <stop offset="0.0" stop-color="#396300"/>
      <stop offset="1.0" stop-color="#2d4b00"/>
    </linearGradient>
    <linearGradient gradientTransform="matrix(0.0092, 0.0, 0.0, 0.0051, -8.6, 23.4)" gradientUnits="userSpaceOnUse" id="gradient34" spreadMethod="pad" x1="-819.2" x2="819.2">
      <stop offset="0.0" stop-color="#8c6d26"/>
      <stop offset="0.9921568627450981" stop-color="#806322"/>
    </linearGradient>
    <linearGradient gradientTransform="matrix(0.0035, 9.0E-4, -0.001, 0.0038, -9.7, 19.25)" gradientUnits="userSpaceOnUse" id="gradient35" spreadMethod="pad" x1="-819.2" x2="819.2">
      <stop offset="0.0" stop-color="#396300"/>
      <stop offset="1.0" stop-color="#2d4b00"/>
    </linearGradient>
    <linearGradient gradientTransform="matrix(0.0024, -0.0041, 0.0067, 0.0039, -31.3, 17.45)" gradientUnits="userSpaceOnUse" id="gradient36" spreadMethod="pad" x1="-819.2" x2="819.2">
      <stop offset="0.0" stop-color="#539100"/>
      <stop offset="1.0" stop-color="#71ba01"/>
    </linearGradient>
    <linearGradient gradientTransform="matrix(0.0066, 0.0, 0.0, 0.0034, -30.45, 15.8)" gradientUnits="userSpaceOnUse" id="gradient37" spreadMethod="pad" x1="-819.2" x2="819.2">
      <stop offset="0.0" stop-color="#050900"/>
      <stop offset="1.0" stop-color="#2d4b00"/>
    </linearGradient>
    <linearGradient gradientTransform="matrix(0.0068, 0.0, 0.0, 0.0041, -30.95, 15.7)" gradientUnits="userSpaceOnUse" id="gradient38" spreadMethod="pad" x1="-819.2" x2="819.2">
      <stop offset="0.0" stop-color="#050900"/>
      <stop offset="1.0" stop-color="#2d4b00"/>
    </linearGradient>
    <linearGradient gradientTransform="matrix(0.0039, 0.001, -0.0017, 0.0063, -33.0, 17.05)" gradientUnits="userSpaceOnUse" id="gradient39" spreadMethod="pad" x1="-819.2" x2="819.2">
      <stop offset="0.0" stop-color="#396300"/>
      <stop offset="1.0" stop-color="#2d4b00"/>
    </linearGradient>
    <linearGradient gradientTransform="matrix(0.0028, 7.0E-4, -0.0011, 0.0041, -32.1, 16.5)" gradientUnits="userSpaceOnUse" id="gradient40" spreadMethod="pad" x1="-819.2" x2="819.2">
      <stop offset="0.0" stop-color="#396300"/>
      <stop offset="1.0" stop-color="#2d4b00"/>
    </linearGradient>
    <linearGradient gradientTransform="matrix(0.0099, 0.0, 0.0, 0.0056, -29.9, 20.6)" gradientUnits="userSpaceOnUse" id="gradient41" spreadMethod="pad" x1="-819.2" x2="819.2">
      <stop offset="0.0" stop-color="#8c6d26"/>
      <stop offset="0.9921568627450981" stop-color="#806322"/>
    </linearGradient>
    <linearGradient gradientTransform="matrix(0.0074, 0.0, 0.0, 0.0033, -35.9, 28.35)" gradientUnits="userSpaceOnUse" id="gradient42" spreadMethod="pad" x1="-819.2" x2="819.2">
      <stop offset="0.0" stop-color="#8c6d26"/>
      <stop offset="0.9921568627450981" stop-color="#806322"/>
    </linearGradient>
    <linearGradient gradientTransform="matrix(0.0076, 0.0044, -0.0038, 0.0065, -37.2, 32.9)" gradientUnits="userSpaceOnUse" id="gradient43" spreadMethod="pad" x1="-819.2" x2="819.2">
      <stop offset="0.0" stop-color="#ddb966"/>
      <stop offset="0.9921568627450981" stop-color="#cea03c"/>
    </linearGradient>
    <linearGradient gradientTransform="matrix(7.0E-4, -0.0027, 0.0014, 4.0E-4, -34.25, 40.8)" gradientUnits="userSpaceOnUse" id="gradient44" spreadMethod="pad" x1="-819.2" x2="819.2">
      <stop offset="0.0" stop-color="#888623"/>
      <stop offset="1.0" stop-color="#a2952b"/>
    </linearGradient>
    <linearGradient gradientTransform="matrix(0.004, 0.0, 0.0, 0.0023, -38.6, 39.55)" gradientUnits="userSpaceOnUse" id="gradient45" spreadMethod="pad" x1="-819.2" x2="819.2">
      <stop offset="0.0" stop-color="#8c6d26"/>
      <stop offset="0.9921568627450981" stop-color="#806322"/>
    </linearGradient>
    <linearGradient gradientTransform="matrix(0.0052, 0.0, 0.0, 0.0016, -29.6, 42.25)" gradientUnits="userSpaceOnUse" id="gradient46" spreadMethod="pad" x1="-819.2" x2="819.2">
      <stop offset="0.0" stop-color="#644e1c"/>
      <stop offset="0.9921568627450981" stop-color="#654f1b"/>
    </linearGradient>
    <linearGradient gradientTransform="matrix(0.0, -0.0032, 0.0018, 0.0, -24.35, 41.95)" gradientUnits="userSpaceOnUse" id="gradient47" spreadMethod="pad" x1="-819.2" x2="819.2">
      <stop offset="0.0" stop-color="#888623"/>
      <stop offset="1.0" stop-color="#a2952b"/>
    </linearGradient>
    <linearGradient gradientTransform="matrix(0.0041, 0.0, 0.0, 0.0013, -19.55, 42.8)" gradientUnits="userSpaceOnUse" id="gradient48" spreadMethod="pad" x1="-819.2" x2="819.2">
      <stop offset="0.0" stop-color="#644e1c"/>
      <stop offset="0.9921568627450981" stop-color="#654f1b"/>
    </linearGradient>
    <linearGradient gradientTransform="matrix(0.0027, 0.0, 0.0, 0.0018, -3.85, 37.85)" gradientUnits="userSpaceOnUse" id="gradient49" spreadMethod="pad" x1="-819.2" x2="819.2">
      <stop offset="0.0" stop-color="#644e1c"/>
      <stop offset="0.9921568627450981" stop-color="#654f1b"/>
    </linearGradient>
    <linearGradient gradientTransform="matrix(-6.0E-4, -0.001, 0.0014, -8.0E-4, -2.2, 35.1)" gradientUnits="userSpaceOnUse" id="gradient50" spreadMethod="pad" x1="-819.2" x2="819.2">
      <stop offset="0.0" stop-color="#888623"/>
      <stop offset="1.0" stop-color="#a2952b"/>
    </linearGradient>
    <linearGradient gradientTransform="matrix(-0.0011, -0.004, 0.0018, -5.0E-4, -7.6, 38.2)" gradientUnits="userSpaceOnUse" id="gradient51" spreadMethod="pad" x1="-819.2" x2="819.2">
      <stop offset="0.0" stop-color="#888623"/>
      <stop offset="1.0" stop-color="#a2952b"/>
    </linearGradient>
    <linearGradient gradientTransform="matrix(-9.0E-4, -0.0033, 0.0017, -5.0E-4, -15.65, 42.2)" gradientUnits="userSpaceOnUse" id="gradient52" spreadMethod="pad" x1="-819.2" x2="819.2">
      <stop offset="0.0" stop-color="#888623"/>
      <stop offset="1.0" stop-color="#a2952b"/>
    </linearGradient>
    <linearGradient gradientTransform="matrix(0.0042, 0.0, 0.0, 0.0022, -10.95, 41.0)" gradientUnits="userSpaceOnUse" id="gradient53" spreadMethod="pad" x1="-819.2" x2="819.2">
      <stop offset="0.0" stop-color="#644e1c"/>
      <stop offset="0.9921568627450981" stop-color="#654f1b"/>
    </linearGradient>
    <linearGradient gradientTransform="matrix(6.0E-4, -6.0E-4, 9.0E-4, 9.0E-4, -51.35, 31.65)" gradientUnits="userSpaceOnUse" id="gradient54" spreadMethod="pad" x1="-819.2" x2="819.2">
      <stop offset="0.0" stop-color="#888623"/>
      <stop offset="1.0" stop-color="#a2952b"/>
    </linearGradient>
    <linearGradient gradientTransform="matrix(0.0025, 0.0, 0.0, 0.0021, -45.4, 35.85)" gradientUnits="userSpaceOnUse" id="gradient55" spreadMethod="pad" x1="-819.2" x2="819.2">
      <stop offset="0.0" stop-color="#8c6d26"/>
      <stop offset="0.9921568627450981" stop-color="#806322"/>
    </linearGradient>
    <linearGradient gradientTransform="matrix(6.0E-4, -0.0022, 0.0029, 8.0E-4, -48.05, 35.65)" gradientUnits="userSpaceOnUse" id="gradient56" spreadMethod="pad" x1="-819.2" x2="819.2">
      <stop offset="0.0" stop-color="#888623"/>
      <stop offset="1.0" stop-color="#a2952b"/>
    </linearGradient>
    <linearGradient gradientTransform="matrix(0.0016, 0.0, 0.0, 0.002, -47.95, 36.55)" gradientUnits="userSpaceOnUse" id="gradient57" spreadMethod="pad" x1="-819.2" x2="819.2">
      <stop offset="0.0" stop-color="#8c6d26"/>
      <stop offset="0.9921568627450981" stop-color="#806322"/>
    </linearGradient>
    <linearGradient gradientTransform="matrix(0.0013, 0.0, 0.0, 0.0019, -49.25, 32.05)" gradientUnits="userSpaceOnUse" id="gradient58" spreadMethod="pad" x1="-819.2" x2="819.2">
      <stop offset="0.0" stop-color="#8c6d26"/>
      <stop offset="0.9921568627450981" stop-color="#806322"/>
    </linearGradient>
    <linearGradient gradientTransform="matrix(0.0036, 0.0036, -0.0031, 0.0031, -48.6, 37.9)" gradientUnits="userSpaceOnUse" id="gradient59" spreadMethod="pad" x1="-819.2" x2="819.2">
      <stop offset="0.0" stop-color="#ddb966"/>
      <stop offset="0.9921568627450981" stop-color="#cea03c"/>
    </linearGradient>
    <linearGradient gradientTransform="matrix(0.001, -0.0038, 0.0021, 6.0E-4, -41.9, 36.6)" gradientUnits="userSpaceOnUse" id="gradient60" spreadMethod="pad" x1="-819.2" x2="819.2">
      <stop offset="0.0" stop-color="#888623"/>
      <stop offset="1.0" stop-color="#a2952b"/>
    </linearGradient>
  </defs>
</svg>
