<?xml version="1.0" encoding="UTF-8" standalone="no"?>
<svg xmlns:xlink="http://www.w3.org/1999/xlink" height="38.3px" width="54.35px" xmlns="http://www.w3.org/2000/svg">
  <g transform="matrix(1.0, 0.0, 0.0, 1.0, 27.2, 19.15)">
    <path d="M3.1 -11.1 L5.6 -11.4 Q12.1 -13.3 15.7 -16.25 17.25 -17.6 19.45 -18.65 21.9 -18.9 23.35 -16.55 24.95 -13.6 25.2 -11.15 L23.3 -8.05 Q21.35 -5.85 18.35 -3.95 L18.05 -3.8 14.1 -1.8 13.0 -1.3 Q10.65 -0.65 8.55 -1.65 L11.7 -2.15 12.35 -2.25 Q16.95 -4.2 20.0 -6.75 21.9 -8.35 23.2 -10.2 23.9 -13.65 21.3 -16.6 20.4 -17.75 18.3 -16.95 13.75 -12.95 9.0 -11.4 L4.2 -9.85 3.1 -11.1" fill="url(#gradient0)" fill-rule="evenodd" stroke="none"/>
    <path d="M-6.7 -8.75 Q-5.2 -12.85 -3.25 -14.6 L-2.45 -14.5 Q0.25 -14.1 3.1 -11.1 L4.2 -9.85 7.9 -4.4 7.7 -4.35 Q0.3 -13.75 -2.95 -13.85 -4.85 -11.4 -6.2 -7.65 L-6.9 -8.25 -6.7 -8.75" fill="url(#gradient1)" fill-rule="evenodd" stroke="none"/>
    <path d="M11.7 -2.15 L8.55 -1.65 7.7 -1.6 Q4.8 -1.5 1.3 -3.0 -2.15 -4.55 -6.2 -7.65 -4.85 -11.4 -2.95 -13.85 0.3 -13.75 7.7 -4.35 L8.5 -3.35 Q9.95 -2.1 11.7 -2.15" fill="url(#gradient2)" fill-rule="evenodd" stroke="none"/>
    <path d="M8.55 -1.65 Q10.65 -0.65 13.0 -1.3 L14.1 -1.8 Q21.1 -4.15 23.15 -6.5 23.65 -6.0 24.3 -6.2 25.2 -4.7 25.65 -2.35 23.6 0.6 16.85 2.55 15.8 2.85 13.8 4.0 10.4 9.1 -3.9 13.6 L-4.9 13.8 Q-6.3 13.4 -6.55 14.05 -8.55 13.2 -8.85 14.2 -10.8 13.15 -11.95 13.9 -12.7 12.55 -14.5 12.6 -14.55 11.35 -15.75 10.25 -16.15 7.9 -17.75 7.15 -17.95 5.7 -18.95 5.65 -19.65 4.15 -20.65 4.0 -21.8 2.05 -23.3 2.75 L-25.45 2.9 Q-24.6 0.75 -22.75 -0.65 -16.25 3.7 -10.15 0.3 -10.5 -0.75 -12.15 -2.3 L-8.65 -0.65 Q4.8 3.4 1.3 -3.0 4.8 -1.5 7.7 -1.6 L8.55 -1.65 M-2.5 10.4 Q-2.85 8.9 -3.45 7.5 L-1.1 6.8 Q-1.15 4.75 -3.1 3.1 L-5.65 3.75 -7.2 2.0 -11.8 2.8 -10.35 4.95 -13.9 5.8 Q-12.3 7.7 -11.7 9.9 L-8.2 8.9 Q-7.65 10.15 -7.2 11.9 L-2.5 10.4" fill="url(#gradient3)" fill-rule="evenodd" stroke="none"/>
    <path d="M24.55 -8.65 L25.25 -7.6 25.05 -6.6 Q25.95 -5.15 26.35 -3.75 L25.65 -2.35 Q25.2 -4.7 24.3 -6.2 23.65 -6.0 23.15 -6.5 24.05 -7.45 24.55 -8.65 M8.5 -3.35 L7.7 -4.35 7.9 -4.4 8.5 -3.35" fill="#dccd63" fill-rule="evenodd" stroke="none"/>
    <path d="M20.0 -6.75 Q16.95 -4.2 12.35 -2.25 L11.7 -2.15 Q9.95 -2.1 8.5 -3.35 L7.9 -4.4 Q15.85 -8.8 20.0 -6.75" fill="url(#gradient4)" fill-rule="evenodd" stroke="none"/>
    <path d="M4.2 -9.85 L9.0 -11.4 Q13.75 -12.95 18.3 -16.95 20.4 -17.75 21.3 -16.6 23.9 -13.65 23.2 -10.2 21.9 -8.35 20.0 -6.75 15.85 -8.8 7.9 -4.4 L4.2 -9.85" fill="url(#gradient5)" fill-rule="evenodd" stroke="none"/>
    <path d="M25.2 -11.15 Q25.05 -9.8 24.55 -8.65 24.05 -7.45 23.15 -6.5 21.1 -4.15 14.1 -1.8 L18.05 -3.8 18.35 -3.95 Q21.35 -5.85 23.3 -8.05 L25.2 -11.15" fill="#685717" fill-rule="evenodd" stroke="none"/>
    <path d="M26.65 -2.3 L26.65 -0.8 25.7 0.9 Q23.2 4.35 17.2 5.05 L15.1 6.4 Q10.3 11.85 1.05 15.3 L-5.2 17.25 -8.4 18.05 -10.0 18.4 -11.6 18.65 -14.2 18.45 Q-15.65 18.15 -17.1 17.45 L-19.5 16.0 -21.4 14.45 -21.9 14.05 -23.7 12.15 -25.35 9.95 -26.2 8.55 -26.35 8.3 -26.25 8.3 Q-26.45 5.8 -25.75 3.7 L-23.95 3.65 -24.0 3.75 Q-22.05 3.8 -21.55 4.9 -23.65 7.5 -23.7 12.15 -23.65 7.5 -21.55 4.9 -19.95 5.2 -19.85 6.95 -18.6 7.05 -18.45 8.55 -16.8 8.95 -16.3 11.25 L-16.3 11.3 Q-14.9 11.9 -14.65 13.65 -15.0 16.95 -14.2 18.45 -15.0 16.95 -14.65 13.65 -13.05 13.8 -11.85 15.1 L-11.6 18.65 -11.85 15.1 Q-10.45 14.55 -8.7 15.5 -7.8 14.7 -6.1 15.1 L-5.2 17.25 -6.1 15.1 Q-4.85 14.05 -2.95 14.3 L-2.9 14.3 Q5.15 11.85 10.6 8.2 L14.3 4.8 17.1 3.3 Q23.65 2.35 26.65 -2.3 M-21.9 14.05 Q-21.35 9.55 -19.85 6.95 -21.35 9.55 -21.9 14.05 M-19.5 16.0 Q-20.1 12.25 -18.45 8.55 -20.1 12.25 -19.5 16.0 M-8.4 18.05 L-8.7 15.5 -8.4 18.05 M-17.1 17.45 Q-17.15 13.35 -16.3 11.3 -17.15 13.35 -17.1 17.45 M-25.35 9.95 Q-25.8 6.55 -24.0 3.75 -25.8 6.55 -25.35 9.95 M1.05 15.3 L-2.9 14.3 1.05 15.3" fill="#996600" fill-rule="evenodd" stroke="none"/>
    <path d="M26.35 -3.75 L26.65 -2.3 Q23.65 2.35 17.1 3.3 L14.3 4.8 10.6 8.2 Q5.15 11.85 -2.9 14.3 L-2.95 14.3 -4.9 13.8 -2.95 14.3 Q-4.85 14.05 -6.1 15.1 -7.8 14.7 -8.7 15.5 L-8.85 14.2 -8.7 15.5 Q-10.45 14.55 -11.85 15.1 -13.05 13.8 -14.65 13.65 -14.9 11.9 -16.3 11.3 L-16.3 11.25 -15.75 10.25 -16.3 11.25 Q-16.8 8.95 -18.45 8.55 -18.6 7.05 -19.85 6.95 L-18.95 5.65 -19.85 6.95 Q-19.95 5.2 -21.55 4.9 -22.05 3.8 -24.0 3.75 L-23.95 3.65 -23.3 2.75 -23.95 3.65 -25.75 3.7 Q-26.45 5.8 -26.25 8.3 L-26.35 8.3 Q-27.05 7.25 -26.25 3.7 L-26.15 3.2 -25.45 2.9 -23.3 2.75 Q-21.8 2.05 -20.65 4.0 L-21.55 4.9 -20.65 4.0 Q-19.65 4.15 -18.95 5.65 -17.95 5.7 -17.75 7.15 L-18.45 8.55 -17.75 7.15 Q-16.15 7.9 -15.75 10.25 -14.55 11.35 -14.5 12.6 L-14.65 13.65 -14.5 12.6 Q-12.7 12.55 -11.95 13.9 L-11.85 15.1 -11.95 13.9 Q-10.8 13.15 -8.85 14.2 -8.55 13.2 -6.55 14.05 L-6.1 15.1 -6.55 14.05 Q-6.3 13.4 -4.9 13.8 L-3.9 13.6 Q10.4 9.1 13.8 4.0 15.8 2.85 16.85 2.55 23.6 0.6 25.65 -2.35 L26.35 -3.75" fill="#d5a54a" fill-rule="evenodd" stroke="none"/>
    <path d="M-26.15 3.2 Q-24.9 -1.9 -19.8 -2.55 L-13.9 -3.6 Q-10.4 -6.7 -6.7 -8.75 L-6.9 -8.25 -6.2 -7.65 Q-2.15 -4.55 1.3 -3.0 4.8 3.4 -8.65 -0.65 L-12.15 -2.3 Q-10.5 -0.75 -10.15 0.3 -16.25 3.7 -22.75 -0.65 -24.6 0.75 -25.45 2.9 L-26.15 3.2" fill="url(#gradient6)" fill-rule="evenodd" stroke="none"/>
    <path d="M-2.5 10.4 L-7.2 11.9 Q-7.65 10.15 -8.2 8.9 L-11.7 9.9 Q-12.3 7.7 -13.9 5.8 L-10.35 4.95 -11.8 2.8 -7.2 2.0 -5.65 3.75 -3.1 3.1 Q-1.15 4.75 -1.1 6.8 L-3.45 7.5 Q-2.85 8.9 -2.5 10.4" fill="url(#gradient7)" fill-rule="evenodd" stroke="none"/>
    <path d="M3.1 -11.1 L5.6 -11.4 Q12.1 -13.3 15.7 -16.25 17.25 -17.6 19.45 -18.65 21.9 -18.9 23.35 -16.55 24.95 -13.6 25.2 -11.15 25.05 -9.8 24.55 -8.65 L25.25 -7.6 25.05 -6.6 Q25.95 -5.15 26.35 -3.75 L26.65 -2.3 26.65 -0.8 25.7 0.9 Q23.2 4.35 17.2 5.05 L15.1 6.4 Q10.3 11.85 1.05 15.3 L-5.2 17.25 -8.4 18.05 -10.0 18.4 -11.6 18.65 -14.2 18.45 Q-15.65 18.15 -17.1 17.45 L-19.5 16.0 -21.4 14.45 -21.9 14.05 -23.7 12.15 -25.35 9.95 -26.2 8.55 -26.35 8.3 Q-27.05 7.25 -26.25 3.7 L-26.15 3.2 Q-24.9 -1.9 -19.8 -2.55 L-13.9 -3.6 Q-10.4 -6.7 -6.7 -8.75 -5.2 -12.85 -3.25 -14.6 L-2.45 -14.5 Q0.25 -14.1 3.1 -11.1 L4.2 -9.85 7.9 -4.4 8.5 -3.35 Q9.95 -2.1 11.7 -2.15 L8.55 -1.65 7.7 -1.6 Q4.8 -1.5 1.3 -3.0 -2.15 -4.55 -6.2 -7.65 L-6.9 -8.25 -6.7 -8.75 M18.3 -16.95 Q20.4 -17.75 21.3 -16.6 23.9 -13.65 23.2 -10.2 21.9 -8.35 20.0 -6.75 16.95 -4.2 12.35 -2.25 L11.7 -2.15 M20.0 -6.75 Q15.85 -8.8 7.9 -4.4 M23.15 -6.5 Q24.05 -7.45 24.55 -8.65 M26.35 -3.75 L25.65 -2.35 Q23.6 0.6 16.85 2.55 15.8 2.85 13.8 4.0 10.4 9.1 -3.9 13.6 L-4.9 13.8 -2.95 14.3 -2.9 14.3 1.05 15.3 M-2.5 10.4 L-7.2 11.9 Q-7.65 10.15 -8.2 8.9 L-11.7 9.9 Q-12.3 7.7 -13.9 5.8 L-10.35 4.95 -11.8 2.8 -7.2 2.0 -5.65 3.75 -3.1 3.1 Q-1.15 4.75 -1.1 6.8 L-3.45 7.5 Q-2.85 8.9 -2.5 10.4 M-18.45 8.55 L-17.75 7.15 Q-17.95 5.7 -18.95 5.65 L-19.85 6.95 Q-21.35 9.55 -21.9 14.05 M-16.3 11.25 L-16.3 11.3 Q-17.15 13.35 -17.1 17.45 M-14.65 13.65 L-14.5 12.6 Q-14.55 11.35 -15.75 10.25 L-16.3 11.25 M-18.45 8.55 Q-20.1 12.25 -19.5 16.0 M-15.75 10.25 Q-16.15 7.9 -17.75 7.15 M-14.65 13.65 Q-15.0 16.95 -14.2 18.45 M-11.85 15.1 L-11.95 13.9 Q-12.7 12.55 -14.5 12.6 M-11.85 15.1 L-11.6 18.65 M-6.55 14.05 Q-8.55 13.2 -8.85 14.2 L-8.7 15.5 -8.4 18.05 M-6.1 15.1 L-6.55 14.05 Q-6.3 13.4 -4.9 13.8 M-6.1 15.1 L-5.2 17.25 M-8.85 14.2 Q-10.8 13.15 -11.95 13.9 M-20.65 4.0 Q-21.8 2.05 -23.3 2.75 L-23.95 3.65 -24.0 3.75 Q-25.8 6.55 -25.35 9.95 M-21.55 4.9 L-20.65 4.0 Q-19.65 4.15 -18.95 5.65 M-26.15 3.2 L-25.45 2.9 -23.3 2.75 M-21.55 4.9 Q-23.65 7.5 -23.7 12.15" fill="none" stroke="#000000" stroke-linecap="round" stroke-linejoin="round" stroke-opacity="0.4" stroke-width="0.5"/>
    <path d="M19.45 -18.65 Q21.9 -18.9 23.35 -16.55 24.95 -13.6 25.2 -11.15 25.05 -9.8 24.55 -8.65 L25.25 -7.6 25.05 -6.6 Q25.95 -5.15 26.35 -3.75 L26.65 -2.3 26.65 -0.8 25.7 0.9 Q23.2 4.35 17.2 5.05 L15.1 6.4 Q10.3 11.85 1.05 15.3 L-5.2 17.25 -8.4 18.05 -10.0 18.4 -11.6 18.65 -14.2 18.45 Q-15.65 18.15 -17.1 17.45 L-19.5 16.0 -21.4 14.45 -21.9 14.05 -23.7 12.15 -25.35 9.95 -26.2 8.55 -26.35 8.3 Q-27.05 7.25 -26.25 3.7 L-26.15 3.2 Q-24.9 -1.9 -19.8 -2.55 L-13.9 -3.6 Q-10.4 -6.7 -6.7 -8.75 -5.2 -12.85 -3.25 -14.6 L-2.45 -14.5 Q0.25 -14.1 3.1 -11.1 L5.6 -11.4 Q12.1 -13.3 15.7 -16.25 17.25 -17.6 19.45 -18.65 Z" fill="none" stroke="#000000" stroke-linecap="round" stroke-linejoin="round" stroke-opacity="0.4" stroke-width="1.0"/>
  </g>
  <defs>
    <linearGradient gradientTransform="matrix(-0.0049, -0.0049, 0.0091, -0.0091, 15.1, -10.0)" gradientUnits="userSpaceOnUse" id="gradient0" spreadMethod="pad" x1="-819.2" x2="819.2">
      <stop offset="0.0" stop-color="#dccd63"/>
      <stop offset="0.9882352941176471" stop-color="#ebdda5"/>
    </linearGradient>
    <linearGradient gradientTransform="matrix(-0.0043, -0.0043, 0.004, -0.004, -2.85, -10.55)" gradientUnits="userSpaceOnUse" id="gradient1" spreadMethod="pad" x1="-819.2" x2="819.2">
      <stop offset="0.0" stop-color="#dccd63"/>
      <stop offset="0.9882352941176471" stop-color="#ebdda5"/>
    </linearGradient>
    <linearGradient gradientTransform="matrix(-0.0057, -0.0057, 0.0038, -0.0038, -0.1, -7.7)" gradientUnits="userSpaceOnUse" id="gradient2" spreadMethod="pad" x1="-819.2" x2="819.2">
      <stop offset="0.0" stop-color="#a88d25"/>
      <stop offset="0.9882352941176471" stop-color="#bfac2b"/>
    </linearGradient>
    <linearGradient gradientTransform="matrix(-0.0072, -0.0042, 0.0109, -0.0189, 3.2, 2.3)" gradientUnits="userSpaceOnUse" id="gradient3" spreadMethod="pad" x1="-819.2" x2="819.2">
      <stop offset="0.0" stop-color="#a88d25"/>
      <stop offset="0.9882352941176471" stop-color="#bfac2b"/>
    </linearGradient>
    <linearGradient gradientTransform="matrix(-0.0049, 0.0028, -0.0014, -0.0023, 12.25, -4.35)" gradientUnits="userSpaceOnUse" id="gradient4" spreadMethod="pad" x1="-819.2" x2="819.2">
      <stop offset="0.0" stop-color="#948521"/>
      <stop offset="0.9882352941176471" stop-color="#685717"/>
    </linearGradient>
    <linearGradient gradientTransform="matrix(-0.008, 0.0021, -0.0016, -0.0061, 13.6, -10.4)" gradientUnits="userSpaceOnUse" id="gradient5" spreadMethod="pad" x1="-819.2" x2="819.2">
      <stop offset="0.0" stop-color="#948521"/>
      <stop offset="0.9882352941176471" stop-color="#685717"/>
    </linearGradient>
    <linearGradient gradientTransform="matrix(-0.0073, -0.0042, 0.0061, -0.0106, -10.45, 0.7)" gradientUnits="userSpaceOnUse" id="gradient6" spreadMethod="pad" x1="-819.2" x2="819.2">
      <stop offset="0.0" stop-color="#dccd63"/>
      <stop offset="0.9882352941176471" stop-color="#ebdda5"/>
    </linearGradient>
    <linearGradient gradientTransform="matrix(0.0025, 0.0042, -0.006, 0.0034, -6.8, 7.05)" gradientUnits="userSpaceOnUse" id="gradient7" spreadMethod="pad" x1="-819.2" x2="819.2">
      <stop offset="0.0" stop-color="#f0eee3"/>
      <stop offset="0.9882352941176471" stop-color="#e4e0cb"/>
    </linearGradient>
  </defs>
</svg>
