<?xml version="1.0" encoding="UTF-8" standalone="no"?>
<svg xmlns:xlink="http://www.w3.org/1999/xlink" height="133.3px" width="287.8px" xmlns="http://www.w3.org/2000/svg">
  <g transform="matrix(1.0, 0.0, 0.0, 1.0, -311.05, 15.45)">
    <path d="M320.95 31.55 L413.55 -3.8 485.15 -15.45 574.5 -7.85 574.45 -7.95 574.5 -7.95 574.5 -7.85 577.55 -3.2 483.3 -12.1 411.3 0.0 327.6 32.05 320.95 31.55 M524.6 59.0 L524.35 58.5 524.6 59.0 M485.05 20.4 L507.4 16.95 550.75 16.7 539.55 23.7 511.95 20.45 485.05 20.4" fill="#322b3e" fill-rule="evenodd" stroke="none"/>
    <path d="M496.45 86.65 L496.45 86.2 498.8 86.45 496.45 86.65" fill="#4f485b" fill-rule="evenodd" stroke="none"/>
    <path d="M588.65 4.85 L590.3 9.8 571.65 36.3 524.35 58.5 531.65 48.85 565.95 30.15 588.65 4.85 M496.45 86.2 L496.45 86.65 467.35 90.7 342.0 85.0 323.1 64.2 349.1 72.95 474.45 85.0 496.45 86.2" fill="#150e21" fill-rule="evenodd" stroke="none"/>
    <path d="M327.6 32.05 L411.3 0.0 483.3 -12.1 577.55 -3.2 578.25 6.5 561.45 16.65 Q554.65 20.7 546.05 24.45 L539.55 23.7 550.75 16.7 507.4 16.95 485.05 20.4 478.0 21.45 395.05 44.45 384.9 51.9 327.1 40.1 327.6 32.05 M452.75 12.8 L457.65 6.4 372.1 24.1 350.85 37.0 378.65 41.0 389.4 33.55 452.75 12.8" fill="#150e21" fill-rule="evenodd" stroke="none"/>
    <path d="M583.95 -7.2 L588.2 3.9 588.65 4.85 565.95 30.15 531.65 48.85 524.35 58.5 524.6 59.0 544.2 53.8 579.7 37.0 595.3 14.75 598.85 31.55 598.6 58.5 Q587.85 74.85 561.7 88.1 L505.4 114.8 Q453.25 120.4 403.25 115.75 L381.3 95.9 462.6 100.6 543.5 73.9 496.45 86.2 474.45 85.0 472.8 80.05 386.5 70.35 394.05 60.9 394.3 60.2 397.6 60.65 468.3 53.55 554.35 27.8 582.05 7.2 583.95 -7.2" fill="url(#gradient0)" fill-rule="evenodd" stroke="none"/>
    <path d="M452.75 12.8 L389.4 33.55 378.65 41.0 350.85 37.0 372.1 24.1 457.65 6.4 452.75 12.8" fill="url(#gradient1)" fill-rule="evenodd" stroke="none"/>
    <path d="M574.5 -7.95 L583.95 -7.2 582.05 7.2 554.35 27.8 468.3 53.55 397.6 60.65 394.3 60.2 394.05 60.9 386.5 70.35 472.8 80.05 474.45 85.0 349.1 72.95 323.1 64.2 342.0 85.0 467.35 90.7 496.45 86.65 498.8 86.45 496.45 86.2 543.5 73.9 462.6 100.6 381.3 95.9 403.25 115.75 353.15 109.15 312.45 85.95 311.05 72.25 316.25 38.65 320.95 31.55 327.6 32.05 327.1 40.1 384.9 51.9 387.2 52.35 417.45 53.1 Q503.7 42.8 546.05 24.45 554.65 20.7 561.45 16.65 L578.25 6.5 577.55 -3.2 574.5 -7.85 574.5 -7.95" fill="url(#gradient2)" fill-rule="evenodd" stroke="none"/>
    <path d="M590.3 9.8 L595.3 14.75 579.7 37.0 544.2 53.8 524.6 59.0 524.35 58.5 571.65 36.3 590.3 9.8" fill="url(#gradient3)" fill-rule="evenodd" stroke="none"/>
    <path d="M574.5 -7.85 L574.45 -7.95 574.5 -7.95 583.95 -7.2 588.2 3.9 M588.65 4.85 L590.3 9.8 M595.3 14.75 L598.85 31.55 598.6 58.5 Q587.85 74.85 561.7 88.1 L505.4 114.8 Q453.25 120.4 403.25 115.75 L353.15 109.15 312.45 85.95 311.05 72.25 316.25 38.65 320.95 31.55 327.6 32.05 327.1 40.1 384.9 51.9 387.2 52.35 417.45 53.1 Q503.7 42.8 546.05 24.45 554.65 20.7 561.45 16.65 L578.25 6.5 577.55 -3.2 574.5 -7.85" fill="none" stroke="#000000" stroke-linecap="round" stroke-linejoin="round" stroke-opacity="0.4" stroke-width="0.05"/>
  </g>
  <defs>
    <linearGradient gradientTransform="matrix(0.1054, -0.0065, 0.0044, 0.0716, 516.65, 55.8)" gradientUnits="userSpaceOnUse" id="gradient0" spreadMethod="pad" x1="-819.2" x2="819.2">
      <stop offset="0.0" stop-color="#4f485b"/>
      <stop offset="1.0" stop-color="#3d4965"/>
    </linearGradient>
    <linearGradient gradientTransform="matrix(0.0602, 0.0103, -0.005, 0.0291, 404.25, 21.65)" gradientUnits="userSpaceOnUse" id="gradient1" spreadMethod="pad" x1="-819.2" x2="819.2">
      <stop offset="0.0" stop-color="#322b3e"/>
      <stop offset="1.0" stop-color="#3d293c"/>
    </linearGradient>
    <linearGradient gradientTransform="matrix(0.1149, 0.0308, -0.0272, 0.1015, 444.8, 44.6)" gradientUnits="userSpaceOnUse" id="gradient2" spreadMethod="pad" x1="-819.2" x2="819.2">
      <stop offset="0.0" stop-color="#322b3e"/>
      <stop offset="1.0" stop-color="#3d293c"/>
    </linearGradient>
    <linearGradient gradientTransform="matrix(0.0337, 0.009, -0.0102, 0.0381, 560.15, 35.15)" gradientUnits="userSpaceOnUse" id="gradient3" spreadMethod="pad" x1="-819.2" x2="819.2">
      <stop offset="0.0" stop-color="#322b3e"/>
      <stop offset="1.0" stop-color="#3d293c"/>
    </linearGradient>
  </defs>
</svg>
