<?xml version="1.0" encoding="UTF-8" standalone="no"?>
<svg xmlns:xlink="http://www.w3.org/1999/xlink" height="56.05px" width="67.75px" xmlns="http://www.w3.org/2000/svg">
  <g transform="matrix(1.0, 0.0, 0.0, 1.0, 33.85, 28.0)">
    <path d="M16.65 -14.05 Q22.25 -16.25 27.15 -16.05 L29.35 -15.75 Q27.55 -1.05 6.8 -3.6 6.3 -4.6 5.4 -5.2 5.95 -6.55 7.3 -8.05 10.4 -11.6 16.25 -13.9 L16.65 -14.05 M23.6 -1.4 Q28.6 0.1 31.3 2.95 33.25 5.0 33.25 6.95 27.7 11.25 20.65 8.35 L6.65 2.05 7.35 0.0 Q9.0 0.9 11.85 1.0 16.85 1.3 22.7 -1.05 L23.6 -1.4 M16.6 12.45 Q18.25 16.35 17.5 20.05 17.15 21.7 16.4 22.95 10.05 24.9 3.0 18.3 L3.0 6.0 Q4.7 4.95 5.8 3.45 7.75 3.6 9.85 4.75 13.85 6.9 16.1 11.4 L16.6 12.45 M-0.35 18.5 Q-2.9 23.2 -7.0 25.95 -11.15 28.65 -14.45 27.85 L-14.5 27.75 -15.5 25.6 Q-16.45 22.65 -15.5 19.35 L-15.45 19.15 -2.55 7.35 0.8 7.0 1.6 9.5 Q2.2 13.5 -0.3 18.35 L-0.35 18.5 M-33.65 12.7 Q-34.4 10.6 -32.6 8.05 L-31.65 6.9 Q-28.8 3.65 -23.65 1.45 L-22.65 1.0 Q-18.9 -0.5 -15.5 -0.9 L-11.8 -1.05 Q-8.7 -0.9 -6.95 0.2 -7.6 2.15 -6.95 4.0 L-6.8 4.3 Q-11.1 6.95 -15.5 8.75 -23.75 12.15 -32.6 12.65 L-33.65 12.7 M-32.8 -8.9 L-32.6 -9.25 Q-31.0 -11.8 -26.25 -12.7 L-16.7 -12.45 -16.25 -11.45 -15.5 -10.1 Q-13.35 -6.6 -10.0 -4.75 -7.25 -3.3 -4.8 -3.45 L-4.8 -3.4 -6.05 -1.75 -15.5 -3.4 Q-25.05 -5.45 -32.6 -8.8 L-32.8 -8.9 M-17.3 -21.25 Q-16.7 -23.05 -15.5 -24.25 -14.6 -25.1 -13.3 -25.6 -9.9 -27.0 -5.85 -24.8 -1.95 -22.7 0.3 -18.45 2.8 -23.2 6.95 -25.95 11.15 -28.7 14.5 -27.8 16.6 -27.25 17.65 -25.45 15.2 -18.25 8.85 -14.85 4.4 -11.25 2.95 -6.2 1.7 -6.45 0.45 -6.2 1.4 -7.55 1.8 -9.5 2.65 -13.65 0.45 -18.15 L0.3 -18.45 0.45 -18.15 Q2.65 -13.65 1.8 -9.5 1.4 -7.55 0.45 -6.2 L-1.55 -5.6 -2.05 -5.35 -2.45 -5.15 Q-11.05 -9.1 -15.5 -17.25 L-17.3 -21.25" fill="#ffdddd" fill-rule="evenodd" stroke="none"/>
    <path d="M29.35 -15.75 Q32.5 -15.15 33.5 -13.1 34.8 -10.45 31.7 -6.95 28.75 -3.65 23.6 -1.4 L22.7 -1.05 Q16.85 1.3 11.85 1.0 9.0 0.9 7.35 0.0 7.6 -1.5 7.1 -2.9 L6.8 -3.6 Q27.55 -1.05 29.35 -15.75 M33.25 6.95 Q33.25 7.95 32.75 8.9 31.25 11.75 26.2 12.7 21.6 13.55 16.6 12.45 L16.1 11.4 Q13.85 6.9 9.85 4.75 7.75 3.6 5.8 3.45 L6.55 2.25 6.65 2.05 20.65 8.35 Q27.7 11.25 33.25 6.95 M16.4 22.95 Q15.2 24.75 13.2 25.6 9.75 26.95 5.75 24.8 1.85 22.7 -0.35 18.5 L-0.3 18.35 Q2.2 13.5 1.6 9.5 L0.8 7.0 1.15 6.9 2.2 6.45 3.0 6.0 3.0 18.3 Q10.05 24.9 16.4 22.95 M-14.6 27.8 L-15.5 27.5 Q-18.05 26.35 -18.55 22.9 -19.2 18.85 -16.7 14.05 -22.25 16.2 -27.1 16.0 -30.9 15.8 -32.6 14.25 L-33.45 13.05 -33.65 12.7 -32.6 12.65 Q-23.75 12.15 -15.5 8.75 -11.1 6.95 -6.8 4.3 -6.45 5.25 -5.75 5.9 L-7.25 8.05 Q-10.2 11.3 -15.5 13.6 L-16.25 13.9 -16.7 14.05 -16.25 13.9 -15.5 13.6 Q-10.2 11.3 -7.25 8.05 L-5.75 5.9 Q-4.85 6.75 -3.4 7.15 L-2.55 7.35 -15.45 19.15 -15.5 19.35 Q-16.45 22.65 -15.5 25.6 L-14.5 27.75 -14.6 27.8 M-23.65 1.45 Q-28.65 -0.1 -31.35 -2.9 L-32.6 -4.55 Q-33.9 -6.8 -32.8 -8.9 L-32.6 -8.8 Q-25.05 -5.45 -15.5 -3.4 L-6.05 -1.75 -6.4 -1.2 -6.95 0.2 Q-8.7 -0.9 -11.8 -1.05 L-15.5 -0.9 Q-18.9 -0.5 -22.65 1.0 L-23.65 1.45 M-16.7 -12.45 Q-18.4 -16.4 -17.65 -20.1 L-17.3 -21.25 -15.5 -17.25 Q-11.05 -9.1 -2.45 -5.15 L-4.75 -3.45 -4.8 -3.45 Q-7.25 -3.3 -10.0 -4.75 -13.35 -6.6 -15.5 -10.1 L-16.25 -11.45 -16.7 -12.45 M17.65 -25.45 Q18.25 -24.4 18.5 -22.85 19.1 -18.85 16.65 -14.05 L16.25 -13.9 Q10.4 -11.6 7.3 -8.05 5.95 -6.55 5.4 -5.2 L3.55 -6.1 2.95 -6.2 Q4.4 -11.25 8.85 -14.85 15.2 -18.25 17.65 -25.45" fill="#ff9999" fill-rule="evenodd" stroke="none"/>
    <path d="M5.4 -5.2 Q6.3 -4.6 6.8 -3.6 L7.1 -2.9 Q7.6 -1.5 7.35 0.0 L6.65 2.05 6.55 2.25 5.8 3.45 Q4.7 4.95 3.0 6.0 L2.2 6.45 1.15 6.9 Q-6.6 2.85 -1.55 -5.6 L0.45 -6.2 Q1.7 -6.45 2.95 -6.2 L3.55 -6.1 5.4 -5.2" fill="#ffff00" fill-rule="evenodd" stroke="none"/>
    <path d="M-6.05 -1.75 L-4.8 -3.4 -4.75 -3.45 -2.45 -5.15 -2.05 -5.35 -1.55 -5.6 Q-6.6 2.85 1.15 6.9 L0.8 7.0 -2.55 7.35 -3.4 7.15 Q-4.85 6.75 -5.75 5.9 -6.45 5.25 -6.8 4.3 L-6.95 4.0 Q-7.6 2.15 -6.95 0.2 L-6.4 -1.2 -6.05 -1.75" fill="#ffcc00" fill-rule="evenodd" stroke="none"/>
    <path d="M-14.45 27.85 L-14.6 27.8 -14.5 27.75 -14.45 27.85" fill="#ffead5" fill-rule="evenodd" stroke="none"/>
    <path d="M16.65 -14.05 Q22.25 -16.25 27.15 -16.05 L29.35 -15.75 Q32.5 -15.15 33.5 -13.1 34.8 -10.45 31.7 -6.95 28.75 -3.65 23.6 -1.4 28.6 0.1 31.3 2.95 33.25 5.0 33.25 6.95 33.25 7.95 32.75 8.9 31.25 11.75 26.2 12.7 21.6 13.55 16.6 12.45 18.25 16.35 17.5 20.05 17.15 21.7 16.4 22.95 15.2 24.75 13.2 25.6 9.75 26.95 5.75 24.8 1.85 22.7 -0.35 18.5 -2.9 23.2 -7.0 25.95 -11.15 28.65 -14.45 27.85 L-14.6 27.8 -15.5 27.5 Q-18.05 26.35 -18.55 22.9 -19.2 18.85 -16.7 14.05 -22.25 16.2 -27.1 16.0 -30.9 15.8 -32.6 14.25 L-33.45 13.05 -33.65 12.7 Q-34.4 10.6 -32.6 8.05 L-31.65 6.9 Q-28.8 3.65 -23.65 1.45 -28.65 -0.1 -31.35 -2.9 L-32.6 -4.55 Q-33.9 -6.8 -32.8 -8.9 L-32.6 -9.25 Q-31.0 -11.8 -26.25 -12.7 L-16.7 -12.45 Q-18.4 -16.4 -17.65 -20.1 L-17.3 -21.25 Q-16.7 -23.05 -15.5 -24.25 -14.6 -25.1 -13.3 -25.6 -9.9 -27.0 -5.85 -24.8 -1.95 -22.7 0.3 -18.45 2.8 -23.2 6.95 -25.95 11.15 -28.7 14.5 -27.8 16.6 -27.25 17.65 -25.45 18.25 -24.4 18.5 -22.85 19.1 -18.85 16.65 -14.05 L16.25 -13.9 Q10.4 -11.6 7.3 -8.05 5.95 -6.55 5.4 -5.2 6.3 -4.6 6.8 -3.6 L7.1 -2.9 Q7.6 -1.5 7.35 0.0 L6.65 2.05 6.55 2.25 5.8 3.45 Q7.75 3.6 9.85 4.75 13.85 6.9 16.1 11.4 L16.6 12.45 M23.6 -1.4 L22.7 -1.05 Q16.85 1.3 11.85 1.0 9.0 0.9 7.35 0.0 M-6.05 -1.75 L-4.8 -3.4 -4.8 -3.45 Q-7.25 -3.3 -10.0 -4.75 -13.35 -6.6 -15.5 -10.1 L-16.25 -11.45 -16.7 -12.45 M-23.65 1.45 L-22.65 1.0 Q-18.9 -0.5 -15.5 -0.9 L-11.8 -1.05 Q-8.7 -0.9 -6.95 0.2 L-6.4 -1.2 -6.05 -1.75 M2.95 -6.2 L3.55 -6.1 5.4 -5.2 M0.3 -18.45 L0.45 -18.15 Q2.65 -13.65 1.8 -9.5 1.4 -7.55 0.45 -6.2 1.7 -6.45 2.95 -6.2 M-1.55 -5.6 L0.45 -6.2 M-2.45 -5.15 L-2.05 -5.35 -1.55 -5.6 M1.15 6.9 L2.2 6.45 3.0 6.0 Q4.7 4.95 5.8 3.45 M-4.75 -3.45 L-2.45 -5.15 M-4.8 -3.4 L-4.75 -3.45 -4.8 -3.45 M-5.75 5.9 L-7.25 8.05 Q-10.2 11.3 -15.5 13.6 L-16.25 13.9 -16.7 14.05 M-5.75 5.9 Q-6.45 5.25 -6.8 4.3 L-6.95 4.0 Q-7.6 2.15 -6.95 0.2 M0.8 7.0 L-2.55 7.35 -3.4 7.15 Q-4.85 6.75 -5.75 5.9 M1.15 6.9 L0.8 7.0 1.6 9.5 Q2.2 13.5 -0.3 18.35 L-0.35 18.5" fill="none" stroke="#000000" stroke-linecap="round" stroke-linejoin="round" stroke-opacity="0.4" stroke-width="0.05"/>
  </g>
</svg>
