<?xml version="1.0" encoding="UTF-8" standalone="no"?>
<svg xmlns:xlink="http://www.w3.org/1999/xlink" height="96.6px" width="181.1px" xmlns="http://www.w3.org/2000/svg">
  <g transform="matrix(1.0, 0.0, 0.0, 1.0, -184.4, -152.15)">
    <path d="M190.2 214.2 L187.3 211.15 Q182.75 195.1 185.35 179.95 186.15 175.05 192.2 173.6 215.05 169.7 234.75 173.6 L230.5 178.65 Q216.35 176.0 202.2 180.1 202.8 181.75 199.95 183.5 L197.55 181.4 Q193.1 177.9 190.2 184.35 189.25 192.5 195.1 202.4 L188.3 197.5 190.2 214.2 M198.95 177.5 Q201.7 178.75 202.2 180.1 201.7 178.75 198.95 177.5" fill="url(#gradient0)" fill-rule="evenodd" stroke="none"/>
    <path d="M234.75 173.6 Q239.75 167.4 243.9 160.9 247.4 156.8 256.6 158.45 262.95 153.0 275.6 152.15 292.05 157.5 299.05 164.8 309.2 168.5 315.55 172.25 L288.8 165.8 Q302.2 173.8 285.4 178.0 270.65 179.0 262.95 164.35 L259.05 172.15 Q251.45 173.55 247.35 164.35 249.15 172.05 243.9 178.0 L234.75 192.2 Q225.15 187.05 226.85 182.75 L230.5 178.65 234.75 173.6" fill="url(#gradient1)" fill-rule="evenodd" stroke="none"/>
    <path d="M234.75 192.2 L243.9 178.0 Q249.15 172.05 247.35 164.35 251.45 173.55 259.05 172.15 L262.95 164.35 Q270.65 179.0 285.4 178.0 302.2 173.8 288.8 165.8 L315.55 172.25 Q322.55 176.35 324.9 180.45 L326.15 192.1 326.4 194.4 Q314.15 202.05 293.65 199.95 L244.4 196.55 Q238.65 194.3 234.75 192.2" fill="url(#gradient2)" fill-rule="evenodd" stroke="none"/>
    <path d="M199.95 183.5 Q202.8 181.75 202.2 180.1 216.35 176.0 230.5 178.65 L226.85 182.75 Q221.6 188.3 215.65 193.7 206.5 188.95 199.95 183.5 M328.3 213.1 L326.6 196.7 Q349.85 205.35 352.7 210.2 340.7 212.1 328.3 213.1" fill="#666600" fill-rule="evenodd" stroke="none"/>
    <path d="M190.2 184.35 Q193.1 177.9 197.55 181.4 L199.95 183.5 Q206.5 188.95 215.65 193.7 221.95 196.9 229.45 199.8 L229.75 199.9 Q245.2 205.8 265.85 210.2 264.95 213.0 265.15 215.05 L237.55 210.7 Q206.15 199.1 190.2 184.35" fill="url(#gradient3)" fill-rule="evenodd" stroke="none"/>
    <path d="M190.2 214.2 L188.3 197.5 195.1 202.4 Q189.25 192.5 190.2 184.35 206.15 199.1 237.55 210.7 L265.15 215.05 Q265.5 219.2 270.25 220.45 L272.6 220.6 Q271.25 226.05 279.55 223.35 L279.55 218.95 Q305.65 224.75 333.7 218.95 348.5 217.45 358.8 211.25 354.35 227.15 342.45 239.95 330.7 248.25 307.35 248.75 269.0 249.15 228.8 240.45 206.6 231.65 190.2 214.2" fill="url(#gradient4)" fill-rule="evenodd" stroke="none"/>
    <path d="M226.85 182.75 Q225.15 187.05 234.75 192.2 L229.5 199.75 229.45 199.8 Q221.95 196.9 215.65 193.7 221.6 188.3 226.85 182.75" fill="#fedd5e" fill-rule="evenodd" stroke="none"/>
    <path d="M229.5 199.75 L229.75 199.9 229.45 199.8 229.5 199.75" fill="#fecc04" fill-rule="evenodd" stroke="none"/>
    <path d="M229.75 199.9 L229.5 199.75 234.75 192.2 Q238.65 194.3 244.4 196.55 L293.65 199.95 Q314.15 202.05 326.4 194.4 L326.6 196.7 328.3 213.1 Q301.85 215.2 273.65 213.1 275.05 219.75 272.6 220.6 L270.25 220.45 Q265.5 219.2 265.15 215.05 264.95 213.0 265.85 210.2 245.2 205.8 229.75 199.9" fill="url(#gradient5)" fill-rule="evenodd" stroke="none"/>
    <path d="M326.15 192.1 Q347.05 195.2 359.55 208.25 L358.8 211.25 Q348.5 217.45 333.7 218.95 305.65 224.75 279.55 218.95 L279.55 223.35 Q271.25 226.05 272.6 220.6 275.05 219.75 273.65 213.1 301.85 215.2 328.3 213.1 340.7 212.1 352.7 210.2 349.85 205.35 326.6 196.7 L326.4 194.4 326.15 192.1" fill="url(#gradient6)" fill-rule="evenodd" stroke="none"/>
    <path d="M234.75 173.6 Q215.05 169.7 192.2 173.6 186.15 175.05 185.35 179.95 182.75 195.1 187.3 211.15 L190.2 214.2 Q206.6 231.65 228.8 240.45 269.0 249.15 307.35 248.75 330.7 248.25 342.45 239.95 354.35 227.15 358.8 211.25 L359.55 208.25 Q347.05 195.2 326.15 192.1 L324.9 180.45 Q322.55 176.35 315.55 172.25 309.2 168.5 299.05 164.8 292.05 157.5 275.6 152.15 262.95 153.0 256.6 158.45 247.4 156.8 243.9 160.9 239.75 167.4 234.75 173.6 L230.5 178.65 226.85 182.75 Q225.15 187.05 234.75 192.2 238.65 194.3 244.4 196.55 L293.65 199.95 Q314.15 202.05 326.4 194.4 L326.15 192.1 M190.2 184.35 Q193.1 177.9 197.55 181.4 L199.95 183.5 Q202.8 181.75 202.2 180.1 201.7 178.75 198.95 177.5 M229.45 199.8 L229.75 199.9 Q245.2 205.8 265.85 210.2 264.95 213.0 265.15 215.05 265.5 219.2 270.25 220.45 L272.6 220.6 Q275.05 219.75 273.65 213.1 301.85 215.2 328.3 213.1 L326.6 196.7 326.4 194.4 M215.65 193.7 Q221.95 196.9 229.45 199.8 M215.65 193.7 Q221.6 188.3 226.85 182.75 M199.95 183.5 Q206.5 188.95 215.65 193.7 M328.3 213.1 Q340.7 212.1 352.7 210.2" fill="none" stroke="#000000" stroke-linecap="round" stroke-linejoin="round" stroke-opacity="0.41960785" stroke-width="0.05"/>
    <path d="M229.5 199.75 L229.45 199.8" fill="none" stroke="#00ff00" stroke-linecap="round" stroke-linejoin="round" stroke-width="0.05"/>
    <path d="M339.8 180.3 Q340.5 181.1 339.95 183.25 337.05 188.5 332.9 189.65 332.75 188.05 333.0 186.7 336.05 187.5 339.8 180.3" fill="#cc9900" fill-rule="evenodd" stroke="none"/>
    <path d="M339.8 180.3 Q336.05 187.5 333.0 186.7 333.65 182.9 337.1 180.25 L339.8 180.3" fill="#ffcc33" fill-rule="evenodd" stroke="none"/>
    <path d="M333.0 186.7 Q332.75 188.05 332.9 189.65 337.05 188.5 339.95 183.25 340.5 181.1 339.8 180.3 L337.1 180.25 Q333.65 182.9 333.0 186.7 Z" fill="none" stroke="#000000" stroke-linecap="round" stroke-linejoin="round" stroke-opacity="0.41960785" stroke-width="0.05"/>
    <path d="M338.6 187.55 Q339.0 188.5 338.05 190.4 334.25 194.65 330.2 194.55 330.45 193.05 330.95 191.8 333.55 193.4 338.6 187.55" fill="#cc9900" fill-rule="evenodd" stroke="none"/>
    <path d="M338.6 187.55 Q333.55 193.4 330.95 191.8 332.4 188.35 336.15 186.75 338.2 186.6 338.6 187.55" fill="#ffcc33" fill-rule="evenodd" stroke="none"/>
    <path d="M330.95 191.8 Q330.45 193.05 330.2 194.55 334.25 194.65 338.05 190.4 339.0 188.5 338.6 187.55 338.2 186.6 336.15 186.75 332.4 188.35 330.95 191.8 Z" fill="none" stroke="#000000" stroke-linecap="round" stroke-linejoin="round" stroke-opacity="0.41960785" stroke-width="0.05"/>
    <path d="M338.6 193.35 Q338.75 194.35 337.2 195.9 331.95 199.05 327.7 197.9 328.35 196.5 329.3 195.45 331.55 197.65 338.6 193.35" fill="#cc9900" fill-rule="evenodd" stroke="none"/>
    <path d="M338.6 193.35 Q331.55 197.65 329.3 195.45 331.8 192.5 336.2 191.9 338.4 192.25 338.6 193.35" fill="#ffcc33" fill-rule="evenodd" stroke="none"/>
    <path d="M329.3 195.45 Q328.35 196.5 327.7 197.9 331.95 199.05 337.2 195.9 338.75 194.35 338.6 193.35 338.4 192.25 336.2 191.9 331.8 192.5 329.3 195.45 Z" fill="none" stroke="#000000" stroke-linecap="round" stroke-linejoin="round" stroke-opacity="0.41960785" stroke-width="0.05"/>
    <path d="M337.55 199.3 Q337.5 200.35 335.55 201.45 329.6 203.15 325.8 200.95 326.8 199.75 328.0 198.95 329.6 201.7 337.55 199.3" fill="#cc9900" fill-rule="evenodd" stroke="none"/>
    <path d="M337.55 199.3 Q329.6 201.7 328.0 198.95 331.2 196.75 335.65 197.35 337.65 198.25 337.55 199.3" fill="#ffcc33" fill-rule="evenodd" stroke="none"/>
    <path d="M328.0 198.95 Q326.8 199.75 325.8 200.95 329.6 203.15 335.55 201.45 337.5 200.35 337.55 199.3 337.65 198.25 335.65 197.35 331.2 196.75 328.0 198.95 Z" fill="none" stroke="#000000" stroke-linecap="round" stroke-linejoin="round" stroke-opacity="0.41960785" stroke-width="0.05"/>
    <path d="M335.0 203.0 Q334.9 204.05 333.15 205.2 327.8 207.05 324.5 204.95 325.4 203.8 326.5 202.95 327.8 205.6 335.0 203.0" fill="#cc9900" fill-rule="evenodd" stroke="none"/>
    <path d="M335.0 203.0 Q327.8 205.6 326.5 202.95 329.4 200.65 333.3 201.1 335.05 201.95 335.0 203.0" fill="#ffcc33" fill-rule="evenodd" stroke="none"/>
    <path d="M326.5 202.95 Q325.4 203.8 324.5 204.95 327.8 207.05 333.15 205.2 334.9 204.05 335.0 203.0 335.05 201.95 333.3 201.1 329.4 200.65 326.5 202.95 Z" fill="none" stroke="#000000" stroke-linecap="round" stroke-linejoin="round" stroke-opacity="0.41960785" stroke-width="0.05"/>
    <path d="M331.35 184.55 Q330.4 184.8 329.35 186.5 327.95 191.55 330.1 194.25 L331.95 192.2 Q329.3 191.3 331.35 184.55" fill="#cc9900" fill-rule="evenodd" stroke="none"/>
    <path d="M331.35 184.55 Q329.3 191.3 331.95 192.2 334.0 189.25 333.35 185.75 332.4 184.25 331.35 184.55" fill="#ffcc33" fill-rule="evenodd" stroke="none"/>
    <path d="M331.95 192.2 L330.1 194.25 Q327.95 191.55 329.35 186.5 330.4 184.8 331.35 184.55 332.4 184.25 333.35 185.75 334.0 189.25 331.95 192.2 Z" fill="none" stroke="#000000" stroke-linecap="round" stroke-linejoin="round" stroke-opacity="0.41960785" stroke-width="0.05"/>
    <path d="M326.15 186.85 Q325.25 187.3 324.9 189.5 325.45 195.55 328.85 198.3 L329.9 195.55 Q326.8 195.05 326.15 186.85" fill="#cc9900" fill-rule="evenodd" stroke="none"/>
    <path d="M326.15 186.85 Q326.8 195.05 329.9 195.55 330.85 191.8 328.7 187.9 327.15 186.4 326.15 186.85" fill="#ffcc33" fill-rule="evenodd" stroke="none"/>
    <path d="M329.9 195.55 L328.85 198.3 Q325.45 195.55 324.9 189.5 325.25 187.3 326.15 186.85 327.15 186.4 328.7 187.9 330.85 191.8 329.9 195.55 Z" fill="none" stroke="#000000" stroke-linecap="round" stroke-linejoin="round" stroke-opacity="0.41960785" stroke-width="0.05"/>
    <path d="M322.6 191.85 Q321.85 192.55 322.0 194.65 323.8 200.05 327.55 201.6 L328.0 198.8 Q324.9 199.2 322.6 191.85" fill="#cc9900" fill-rule="evenodd" stroke="none"/>
    <path d="M322.6 191.85 Q324.9 199.2 328.0 198.8 328.05 195.05 325.2 192.1 323.45 191.15 322.6 191.85" fill="#ffcc33" fill-rule="evenodd" stroke="none"/>
    <path d="M328.0 198.8 L327.55 201.6 Q323.8 200.05 322.0 194.65 321.85 192.55 322.6 191.85 323.45 191.15 325.2 192.1 328.05 195.05 328.0 198.8 Z" fill="none" stroke="#000000" stroke-linecap="round" stroke-linejoin="round" stroke-opacity="0.41960785" stroke-width="0.05"/>
    <path d="M320.55 195.55 Q319.8 196.25 319.85 198.3 321.35 203.45 324.9 204.85 L325.45 202.1 Q322.5 202.6 320.55 195.55" fill="#cc9900" fill-rule="evenodd" stroke="none"/>
    <path d="M320.55 195.55 Q322.5 202.6 325.45 202.1 325.6 198.5 323.0 195.7 321.35 194.85 320.55 195.55" fill="#ffcc33" fill-rule="evenodd" stroke="none"/>
    <path d="M325.45 202.1 L324.9 204.85 Q321.35 203.45 319.85 198.3 319.8 196.25 320.55 195.55 321.35 194.85 323.0 195.7 325.6 198.5 325.45 202.1 Z" fill="none" stroke="#000000" stroke-linecap="round" stroke-linejoin="round" stroke-opacity="0.41960785" stroke-width="0.05"/>
    <path d="M332.8 206.45 Q332.7 207.5 330.95 208.65 325.6 210.5 322.3 208.4 323.2 207.25 324.3 206.4 325.6 209.05 332.8 206.45" fill="#cc9900" fill-rule="evenodd" stroke="none"/>
    <path d="M332.8 206.45 Q325.6 209.05 324.3 206.4 327.2 204.1 331.1 204.55 332.85 205.4 332.8 206.45" fill="#ffcc33" fill-rule="evenodd" stroke="none"/>
    <path d="M324.3 206.4 Q323.2 207.25 322.3 208.4 325.6 210.5 330.95 208.65 332.7 207.5 332.8 206.45 332.85 205.4 331.1 204.55 327.2 204.1 324.3 206.4 Z" fill="none" stroke="#000000" stroke-linecap="round" stroke-linejoin="round" stroke-opacity="0.41960785" stroke-width="0.05"/>
    <path d="M318.3 199.0 Q317.55 199.7 317.6 201.75 319.1 206.9 322.65 208.3 L323.2 205.55 Q320.25 206.05 318.3 199.0" fill="#cc9900" fill-rule="evenodd" stroke="none"/>
    <path d="M318.3 199.0 Q320.25 206.05 323.2 205.55 323.35 201.95 320.75 199.15 L318.3 199.0" fill="#ffcc33" fill-rule="evenodd" stroke="none"/>
    <path d="M323.2 205.55 L322.65 208.3 Q319.1 206.9 317.6 201.75 317.55 199.7 318.3 199.0 L320.75 199.15 Q323.35 201.95 323.2 205.55 Z" fill="none" stroke="#000000" stroke-linecap="round" stroke-linejoin="round" stroke-opacity="0.41960785" stroke-width="0.05"/>
    <path d="M332.05 210.25 Q331.95 211.3 330.2 212.45 324.85 214.3 321.55 212.2 322.45 211.05 323.55 210.2 324.85 212.85 332.05 210.25" fill="#cc9900" fill-rule="evenodd" stroke="none"/>
    <path d="M332.05 210.25 Q324.85 212.85 323.55 210.2 326.45 207.9 330.35 208.35 332.1 209.2 332.05 210.25" fill="#ffcc33" fill-rule="evenodd" stroke="none"/>
    <path d="M323.55 210.2 Q322.45 211.05 321.55 212.2 324.85 214.3 330.2 212.45 331.95 211.3 332.05 210.25 332.1 209.2 330.35 208.35 326.45 207.9 323.55 210.2 Z" fill="none" stroke="#000000" stroke-linecap="round" stroke-linejoin="round" stroke-opacity="0.41960785" stroke-width="0.05"/>
    <path d="M317.6 202.7 Q316.85 203.4 316.9 205.45 318.4 210.6 321.95 212.0 L322.5 209.25 Q319.55 209.75 317.6 202.7" fill="#cc9900" fill-rule="evenodd" stroke="none"/>
    <path d="M317.6 202.7 Q319.55 209.75 322.5 209.25 322.65 205.65 320.05 202.85 L317.6 202.7" fill="#ffcc33" fill-rule="evenodd" stroke="none"/>
    <path d="M322.5 209.25 L321.95 212.0 Q318.4 210.6 316.9 205.45 316.85 203.4 317.6 202.7 L320.05 202.85 Q322.65 205.65 322.5 209.25 Z" fill="none" stroke="#000000" stroke-linecap="round" stroke-linejoin="round" stroke-opacity="0.41960785" stroke-width="0.05"/>
    <path d="M365.45 187.9 Q365.7 189.2 363.65 191.3 356.85 195.45 351.35 193.95 352.25 192.1 353.4 190.7 356.35 193.6 365.45 187.9" fill="#cc9900" fill-rule="evenodd" stroke="none"/>
    <path d="M365.45 187.9 Q356.35 193.6 353.4 190.7 356.65 186.75 362.4 186.0 365.2 186.5 365.45 187.9" fill="#ffcc33" fill-rule="evenodd" stroke="none"/>
    <path d="M353.4 190.7 Q352.25 192.1 351.35 193.95 356.85 195.45 363.65 191.3 365.7 189.2 365.45 187.9 365.2 186.5 362.4 186.0 356.65 186.75 353.4 190.7 Z" fill="none" stroke="#000000" stroke-linecap="round" stroke-linejoin="round" stroke-opacity="0.41960785" stroke-width="0.05"/>
    <path d="M359.25 195.35 Q359.15 196.65 356.75 198.2 349.55 200.5 345.05 197.8 346.35 196.15 347.75 195.1 349.65 198.65 359.25 195.35" fill="#cc9900" fill-rule="evenodd" stroke="none"/>
    <path d="M359.25 195.35 Q349.65 198.65 347.75 195.1 351.65 192.1 357.0 192.75 359.4 193.9 359.25 195.35" fill="#ffcc33" fill-rule="evenodd" stroke="none"/>
    <path d="M347.75 195.1 Q346.35 196.15 345.05 197.8 349.55 200.5 356.75 198.2 359.15 196.65 359.25 195.35 359.4 193.9 357.0 192.75 351.65 192.1 347.75 195.1 Z" fill="none" stroke="#000000" stroke-linecap="round" stroke-linejoin="round" stroke-opacity="0.41960785" stroke-width="0.05"/>
    <path d="M355.35 202.0 Q354.95 203.25 352.05 204.0 344.0 204.1 339.85 200.05 341.6 198.85 343.35 198.25 344.5 202.3 355.35 202.0" fill="#cc9900" fill-rule="evenodd" stroke="none"/>
    <path d="M355.35 202.0 Q344.5 202.3 343.35 198.25 348.15 196.55 353.6 198.75 355.85 200.65 355.35 202.0" fill="#ffcc33" fill-rule="evenodd" stroke="none"/>
    <path d="M343.35 198.25 Q341.6 198.85 339.85 200.05 344.0 204.1 352.05 204.0 354.95 203.25 355.35 202.0 355.85 200.65 353.6 198.75 348.15 196.55 343.35 198.25 Z" fill="none" stroke="#000000" stroke-linecap="round" stroke-linejoin="round" stroke-opacity="0.41960785" stroke-width="0.05"/>
    <path d="M350.25 208.1 Q349.55 209.2 346.55 209.2 338.7 207.15 335.8 202.2 337.7 201.45 339.6 201.35 339.6 205.55 350.25 208.1" fill="#cc9900" fill-rule="evenodd" stroke="none"/>
    <path d="M350.25 208.1 Q339.6 205.55 339.6 201.35 344.7 200.95 349.4 204.55 351.05 206.9 350.25 208.1" fill="#ffcc33" fill-rule="evenodd" stroke="none"/>
    <path d="M339.6 201.35 Q337.7 201.45 335.8 202.2 338.7 207.15 346.55 209.2 349.55 209.2 350.25 208.1 351.05 206.9 349.4 204.55 344.7 200.95 339.6 201.35 Z" fill="none" stroke="#000000" stroke-linecap="round" stroke-linejoin="round" stroke-opacity="0.41960785" stroke-width="0.05"/>
    <path d="M344.9 210.7 Q344.15 211.75 341.35 211.95 334.1 210.5 331.65 206.0 333.5 205.2 335.25 204.95 335.05 208.95 344.9 210.7" fill="#cc9900" fill-rule="evenodd" stroke="none"/>
    <path d="M344.9 210.7 Q335.05 208.95 335.25 204.95 340.1 204.3 344.3 207.4 345.7 209.5 344.9 210.7" fill="#ffcc33" fill-rule="evenodd" stroke="none"/>
    <path d="M335.25 204.95 Q333.5 205.2 331.65 206.0 334.1 210.5 341.35 211.95 344.15 211.75 344.9 210.7 345.7 209.5 344.3 207.4 340.1 204.3 335.25 204.95 Z" fill="none" stroke="#000000" stroke-linecap="round" stroke-linejoin="round" stroke-opacity="0.41960785" stroke-width="0.05"/>
    <path d="M352.95 187.1 Q351.65 186.7 349.35 188.05 344.4 192.8 345.1 197.35 L348.55 196.25 Q346.1 193.45 352.95 187.1" fill="#cc9900" fill-rule="evenodd" stroke="none"/>
    <path d="M352.95 187.1 Q346.1 193.45 348.55 196.25 352.85 194.2 354.4 189.75 354.3 187.5 352.95 187.1" fill="#ffcc33" fill-rule="evenodd" stroke="none"/>
    <path d="M348.55 196.25 L345.1 197.35 Q344.4 192.8 349.35 188.05 351.65 186.7 352.95 187.1 354.3 187.5 354.4 189.75 352.85 194.2 348.55 196.25 Z" fill="none" stroke="#000000" stroke-linecap="round" stroke-linejoin="round" stroke-opacity="0.41960785" stroke-width="0.05"/>
    <path d="M345.45 186.35 Q344.05 186.25 342.25 188.5 338.85 195.8 340.9 201.2 342.65 200.1 343.95 198.75 340.7 196.1 345.45 186.35" fill="#cc9900" fill-rule="evenodd" stroke="none"/>
    <path d="M345.45 186.35 Q340.7 196.1 343.95 198.75 347.5 195.1 347.6 189.2 346.8 186.45 345.45 186.35" fill="#ffcc33" fill-rule="evenodd" stroke="none"/>
    <path d="M343.95 198.75 Q342.65 200.1 340.9 201.2 338.85 195.8 342.25 188.5 344.05 186.25 345.45 186.35 346.8 186.45 347.6 189.2 347.5 195.1 343.95 198.75 Z" fill="none" stroke="#000000" stroke-linecap="round" stroke-linejoin="round" stroke-opacity="0.41960785" stroke-width="0.05"/>
    <path d="M338.05 189.7 Q336.75 189.9 335.55 192.4 334.05 199.75 337.3 204.05 338.75 202.6 339.6 201.1 335.9 199.6 338.05 189.7" fill="#cc9900" fill-rule="evenodd" stroke="none"/>
    <path d="M338.05 189.7 Q335.9 199.6 339.6 201.1 342.15 196.9 340.9 191.7 339.5 189.4 338.05 189.7" fill="#ffcc33" fill-rule="evenodd" stroke="none"/>
    <path d="M339.6 201.1 Q338.75 202.6 337.3 204.05 334.05 199.75 335.55 192.4 336.75 189.9 338.05 189.7 339.5 189.4 340.9 191.7 342.15 196.9 339.6 201.1 Z" fill="none" stroke="#000000" stroke-linecap="round" stroke-linejoin="round" stroke-opacity="0.41960785" stroke-width="0.05"/>
    <path d="M333.25 192.6 Q331.95 192.85 330.65 195.2 329.0 202.15 332.1 206.05 333.6 204.7 334.5 203.25 330.85 201.95 333.25 192.6" fill="#cc9900" fill-rule="evenodd" stroke="none"/>
    <path d="M333.25 192.6 Q330.85 201.95 334.5 203.25 337.1 199.3 336.0 194.4 334.65 192.3 333.25 192.6" fill="#ffcc33" fill-rule="evenodd" stroke="none"/>
    <path d="M334.5 203.25 Q333.6 204.7 332.1 206.05 329.0 202.15 330.65 195.2 331.95 192.85 333.25 192.6 334.65 192.3 336.0 194.4 337.1 199.3 334.5 203.25 Z" fill="none" stroke="#000000" stroke-linecap="round" stroke-linejoin="round" stroke-opacity="0.41960785" stroke-width="0.05"/>
    <path d="M340.1 213.2 Q339.35 214.25 336.55 214.45 329.3 213.0 326.85 208.5 328.7 207.7 330.45 207.45 330.25 211.45 340.1 213.2" fill="#cc9900" fill-rule="evenodd" stroke="none"/>
    <path d="M340.1 213.2 Q330.25 211.45 330.45 207.45 335.3 206.8 339.5 209.9 340.9 212.0 340.1 213.2" fill="#ffcc33" fill-rule="evenodd" stroke="none"/>
    <path d="M330.45 207.45 Q328.7 207.7 326.85 208.5 329.3 213.0 336.55 214.45 339.35 214.25 340.1 213.2 340.9 212.0 339.5 209.9 335.3 206.8 330.45 207.45 Z" fill="none" stroke="#000000" stroke-linecap="round" stroke-linejoin="round" stroke-opacity="0.41960785" stroke-width="0.05"/>
    <path d="M328.45 195.05 Q327.15 195.3 325.85 197.65 324.2 204.6 327.3 208.5 328.8 207.15 329.7 205.7 326.05 204.4 328.45 195.05" fill="#cc9900" fill-rule="evenodd" stroke="none"/>
    <path d="M328.45 195.05 Q326.05 204.4 329.7 205.7 332.3 201.75 331.2 196.85 329.85 194.75 328.45 195.05" fill="#ffcc33" fill-rule="evenodd" stroke="none"/>
    <path d="M329.7 205.7 Q328.8 207.15 327.3 208.5 324.2 204.6 325.85 197.65 327.15 195.3 328.45 195.05 329.85 194.75 331.2 196.85 332.3 201.75 329.7 205.7 Z" fill="none" stroke="#000000" stroke-linecap="round" stroke-linejoin="round" stroke-opacity="0.41960785" stroke-width="0.05"/>
    <path d="M336.75 217.0 Q336.0 218.05 333.2 218.25 325.95 216.8 323.5 212.3 325.35 211.5 327.1 211.25 326.9 215.25 336.75 217.0" fill="#cc9900" fill-rule="evenodd" stroke="none"/>
    <path d="M336.75 217.0 Q326.9 215.25 327.1 211.25 331.95 210.6 336.15 213.7 337.55 215.8 336.75 217.0" fill="#ffcc33" fill-rule="evenodd" stroke="none"/>
    <path d="M327.1 211.25 Q325.35 211.5 323.5 212.3 325.95 216.8 333.2 218.25 336.0 218.05 336.75 217.0 337.55 215.8 336.15 213.7 331.95 210.6 327.1 211.25 Z" fill="none" stroke="#000000" stroke-linecap="round" stroke-linejoin="round" stroke-opacity="0.41960785" stroke-width="0.05"/>
    <path d="M325.15 198.85 Q323.85 199.1 322.55 201.45 320.9 208.4 324.0 212.3 325.5 210.95 326.4 209.5 322.75 208.2 325.15 198.85" fill="#cc9900" fill-rule="evenodd" stroke="none"/>
    <path d="M325.15 198.85 Q322.75 208.2 326.4 209.5 329.0 205.55 327.9 200.65 326.55 198.55 325.15 198.85" fill="#ffcc33" fill-rule="evenodd" stroke="none"/>
    <path d="M326.4 209.5 Q325.5 210.95 324.0 212.3 320.9 208.4 322.55 201.45 323.85 199.1 325.15 198.85 326.55 198.55 327.9 200.65 329.0 205.55 326.4 209.5 Z" fill="none" stroke="#000000" stroke-linecap="round" stroke-linejoin="round" stroke-opacity="0.41960785" stroke-width="0.05"/>
  </g>
  <defs>
    <linearGradient gradientTransform="matrix(0.0273, 0.0072, -0.0079, 0.0299, 205.95, 192.1)" gradientUnits="userSpaceOnUse" id="gradient0" spreadMethod="pad" x1="-819.2" x2="819.2">
      <stop offset="0.0" stop-color="#cccc00"/>
      <stop offset="1.0" stop-color="#e8d949"/>
    </linearGradient>
    <linearGradient gradientTransform="matrix(0.0115, 0.003, -0.0077, 0.029, 257.1, 172.7)" gradientUnits="userSpaceOnUse" id="gradient1" spreadMethod="pad" x1="-819.2" x2="819.2">
      <stop offset="0.0" stop-color="#cccc00"/>
      <stop offset="1.0" stop-color="#e8d949"/>
    </linearGradient>
    <linearGradient gradientTransform="matrix(0.0559, 0.0, 0.0, 0.022, 280.55, 182.35)" gradientUnits="userSpaceOnUse" id="gradient2" spreadMethod="pad" x1="-819.2" x2="819.2">
      <stop offset="0.0" stop-color="#a6a600"/>
      <stop offset="1.0" stop-color="#9b7c06"/>
    </linearGradient>
    <linearGradient gradientTransform="matrix(0.0474, 0.0125, -0.0029, 0.011, 228.0, 198.5)" gradientUnits="userSpaceOnUse" id="gradient3" spreadMethod="pad" x1="-819.2" x2="819.2">
      <stop offset="0.0" stop-color="#cccc00"/>
      <stop offset="1.0" stop-color="#e8d949"/>
    </linearGradient>
    <linearGradient gradientTransform="matrix(0.1041, 0.0, 0.0, 0.0393, 273.55, 216.55)" gradientUnits="userSpaceOnUse" id="gradient4" spreadMethod="pad" x1="-819.2" x2="819.2">
      <stop offset="0.0" stop-color="#a6a600"/>
      <stop offset="1.0" stop-color="#9b7c06"/>
    </linearGradient>
    <linearGradient gradientTransform="matrix(0.0603, 0.0, 0.0, 0.0174, 278.9, 206.45)" gradientUnits="userSpaceOnUse" id="gradient5" spreadMethod="pad" x1="-819.2" x2="819.2">
      <stop offset="0.0" stop-color="#947504"/>
      <stop offset="1.0" stop-color="#7b5704"/>
    </linearGradient>
    <linearGradient gradientTransform="matrix(0.0483, 0.0127, -0.007, 0.0264, 316.2, 212.05)" gradientUnits="userSpaceOnUse" id="gradient6" spreadMethod="pad" x1="-819.2" x2="819.2">
      <stop offset="0.0" stop-color="#cccc00"/>
      <stop offset="1.0" stop-color="#e8d949"/>
    </linearGradient>
  </defs>
</svg>
