<?xml version="1.0" encoding="UTF-8" standalone="no"?>
<svg xmlns:xlink="http://www.w3.org/1999/xlink" height="105.55px" width="87.1px" xmlns="http://www.w3.org/2000/svg">
  <g transform="matrix(1.0, 0.0, 0.0, 1.0, -231.9, -143.4)">
    <path d="M276.4 213.15 L277.5 219.8 275.25 229.9 272.55 223.9 270.0 221.35 Q264.0 223.65 255.7 221.0 255.95 217.75 257.75 213.55 L248.95 213.1 258.45 207.05 261.75 206.3 Q267.35 205.75 272.5 208.85 L276.4 213.15" fill="#8c231d" fill-rule="evenodd" stroke="none"/>
    <path d="M256.75 209.85 Q260.3 207.95 261.35 208.55 262.4 209.2 260.2 211.95 L253.3 220.1 Q248.75 225.5 251.45 231.85 254.2 238.15 245.2 237.3 236.2 236.35 240.35 227.6 244.4 218.8 248.75 215.2 253.1 211.6 256.75 209.85" fill="#961f1f" fill-rule="evenodd" stroke="none"/>
    <path d="M270.5 219.6 Q270.5 219.3 270.75 219.05 271.0 218.8 271.25 218.9 271.6 218.85 271.85 219.2 L272.1 219.75 271.9 220.3 271.35 220.45 270.75 220.25 270.5 219.6 M262.35 230.85 L262.7 231.7 Q262.8 232.25 262.4 232.6 L261.6 232.9 Q261.1 232.8 260.75 232.5 L260.3 231.55 260.7 230.75 Q261.0 230.4 261.5 230.45 262.0 230.45 262.35 230.85 M257.25 242.05 Q257.9 242.8 257.85 243.75 257.7 244.7 256.95 245.4 256.25 245.9 255.25 245.9 254.35 245.85 253.7 245.1 253.1 244.3 253.15 243.4 253.25 242.4 254.0 241.75 254.7 241.2 255.65 241.25 256.6 241.3 257.25 242.05 M260.9 243.9 Q261.2 243.5 261.7 243.55 262.1 243.55 262.55 244.0 262.9 244.4 262.9 244.85 262.95 245.4 262.55 245.7 262.2 246.05 261.75 246.05 261.25 245.9 260.9 245.6 260.5 245.2 260.5 244.65 260.55 244.15 260.9 243.9 M250.35 243.2 Q248.95 244.3 247.15 244.2 245.35 244.05 244.15 242.7 243.0 241.25 243.15 239.45 243.25 237.7 244.7 236.55 246.05 235.25 247.9 235.5 249.7 235.65 250.85 237.0 252.05 238.35 251.85 240.2 251.65 242.0 250.35 243.2 M245.6 231.15 Q245.15 230.65 245.15 230.1 245.15 229.55 245.6 229.2 245.9 228.85 246.45 228.9 L247.5 229.3 Q247.9 229.75 247.85 230.35 L247.55 231.35 246.55 231.6 Q245.95 231.55 245.6 231.15" fill="#771a1a" fill-opacity="0.7019608" fill-rule="evenodd" stroke="none"/>
    <path d="M259.35 233.5 Q260.5 234.65 260.6 236.35 260.6 237.95 259.45 239.05 258.35 240.1 256.7 240.0 255.1 239.85 253.9 238.6 252.7 237.3 252.65 235.7 252.65 234.05 253.85 233.0 254.9 231.95 256.5 232.1 258.15 232.2 259.35 233.5" fill="#4f1111" fill-opacity="0.7019608" fill-rule="evenodd" stroke="none"/>
    <path d="M260.05 234.4 L260.35 235.65 Q260.4 236.2 259.95 236.5 L258.95 236.35 Q258.45 235.95 258.3 235.25 L257.95 233.95 Q257.8 233.5 258.2 233.25 258.6 233.1 259.15 233.45 L260.05 234.4 M258.15 237.1 L259.05 237.4 259.5 237.95 259.15 238.55 258.35 238.85 257.45 238.6 Q257.05 238.35 257.25 237.95 L257.55 237.35 Q257.65 237.05 258.15 237.1" fill="#ea9999" fill-opacity="0.7019608" fill-rule="evenodd" stroke="none"/>
    <path d="M261.35 208.4 Q262.2 208.9 261.1 210.55 260.0 212.25 257.45 214.1 255.0 215.95 252.65 216.85 250.3 217.75 249.45 217.2 248.5 216.65 249.6 215.0 250.75 213.25 253.25 211.45 255.65 209.65 258.0 208.7 260.45 207.75 261.35 208.4 M242.6 227.75 Q241.15 228.85 240.1 228.9 239.15 228.8 239.25 227.55 239.4 226.2 240.55 224.5 241.7 222.65 243.1 221.5 244.55 220.3 245.55 220.4 246.5 220.5 246.4 221.8 246.25 223.05 245.2 224.85 244.05 226.6 242.6 227.75" fill="#ffffff" fill-opacity="0.6" fill-rule="evenodd" stroke="none"/>
    <path d="M274.35 230.25 Q274.25 231.65 273.4 234.4 L271.55 239.45 269.85 242.45 Q269.15 243.05 269.25 241.55 269.3 240.1 270.15 237.55 271.0 234.75 272.05 232.55 273.1 230.15 273.75 229.55 274.45 228.8 274.35 230.25" fill="#ffffff" fill-opacity="0.6" fill-rule="evenodd" stroke="none"/>
    <path d="M267.25 245.05 L266.7 245.95 Q266.25 246.45 265.65 246.75 L264.75 246.95 Q264.4 246.85 264.5 246.45 264.55 246.0 265.0 245.6 L266.05 244.8 266.95 244.6 Q267.3 244.7 267.25 245.05" fill="#ffffff" fill-opacity="0.6" fill-rule="evenodd" stroke="none"/>
    <path d="M246.35 244.85 Q238.75 240.05 236.9 232.4 235.8 227.75 244.2 216.6 246.5 214.1 250.85 211.3 L258.45 206.65 Q265.9 203.45 273.15 208.65 278.35 212.5 277.8 217.55 278.6 223.3 273.1 236.7 270.65 246.75 262.25 248.85 254.5 249.5 246.45 244.85 L246.45 244.75 246.4 244.8 246.35 244.85" fill="url(#gradient0)" fill-rule="evenodd" stroke="none"/>
    <path d="M246.35 244.85 Q238.75 240.05 236.9 232.4 235.8 227.75 244.2 216.6 246.5 214.1 250.85 211.3 L258.45 206.65 Q265.9 203.45 273.15 208.65 278.35 212.5 277.8 217.55 278.6 223.3 273.1 236.7 270.65 246.75 262.25 248.85 254.5 249.5 246.45 244.85 L246.45 244.75 246.4 244.8" fill="none" stroke="#a14040" stroke-linecap="round" stroke-linejoin="round" stroke-opacity="0.5019608" stroke-width="0.05"/>
    <path d="M288.05 146.65 L288.85 148.75 288.95 150.6 288.75 153.3 Q288.3 156.1 286.65 157.65 284.05 160.2 278.6 159.4 L277.25 157.65 276.35 156.5 Q283.05 157.25 285.35 154.85 286.65 152.25 285.9 149.55 L288.05 146.65 M298.0 158.65 L297.8 159.05 Q295.2 163.1 292.6 160.35 L293.05 160.25 Q294.65 159.8 295.4 158.75 L295.45 158.75 298.0 158.65 M296.45 155.4 Q297.25 153.4 296.1 152.05 L296.5 151.5 297.55 154.2 297.75 154.75 296.45 155.4" fill="#fff5e0" fill-rule="evenodd" stroke="none"/>
    <path d="M288.95 150.6 Q289.55 149.5 290.25 148.75 L290.25 149.0 Q290.35 149.85 291.7 149.45 L292.05 149.3 291.85 151.55 Q290.6 152.6 289.8 155.0 288.8 158.65 289.3 161.9 288.05 162.65 286.85 163.45 286.3 160.6 286.65 157.65 288.3 156.1 288.75 153.3 L288.95 150.6 M298.85 155.9 L298.0 158.65 295.45 158.75 Q296.05 157.85 295.9 156.7 L295.85 156.65 295.85 156.6 296.45 155.4 297.75 154.75 Q298.2 155.8 298.85 155.9 M259.4 160.3 Q260.75 159.1 262.25 158.2 L263.1 161.2 Q257.25 164.6 253.25 172.05 251.4 175.65 250.3 179.1 L249.7 178.35 251.4 174.5 253.8 169.4 256.4 165.45 258.75 161.95 259.5 161.15 Q260.2 160.6 261.2 160.1 L259.4 160.3 M270.8 158.65 L270.15 157.55 Q271.95 157.05 275.95 157.5 L277.25 157.65 278.6 159.4 274.4 158.4 270.8 158.65 M296.35 175.9 L295.05 175.8 294.05 174.9 Q291.6 172.7 289.95 170.35 L291.95 169.9 292.05 170.0 Q295.05 173.55 296.35 175.9" fill="#fee4ab" fill-rule="evenodd" stroke="none"/>
    <path d="M296.1 152.05 Q295.45 151.35 294.4 150.8 292.9 150.65 291.85 151.55 L292.05 149.3 293.35 148.9 Q294.5 149.25 295.55 150.2 L296.5 151.5 296.1 152.05 M289.3 161.9 Q289.4 163.05 289.8 164.05 289.1 165.4 289.3 166.65 L291.95 169.9 289.95 170.35 Q287.6 167.05 286.85 163.45 288.05 162.65 289.3 161.9 M301.95 186.9 Q302.25 191.2 300.9 196.75 L300.1 196.15 Q300.8 192.6 300.4 190.0 L299.8 188.65 299.35 187.95 Q299.35 180.35 295.05 175.8 L296.35 175.9 296.35 175.95 Q297.9 178.85 299.55 184.0 300.55 186.45 301.95 186.9 M298.3 204.65 L297.65 206.3 Q295.2 212.05 290.9 215.6 L290.25 213.85 Q294.05 210.85 297.05 205.0 L297.6 203.8 298.3 204.65 M262.25 158.2 Q265.45 156.25 269.15 155.85 L270.15 157.55 270.8 158.65 268.8 159.05 Q265.75 159.7 263.1 161.2 L262.25 158.2 M249.7 178.35 L250.3 179.1 Q249.6 181.45 249.3 183.65 L248.35 183.0 Q248.7 180.2 249.45 178.85 L249.7 178.35 M248.1 188.5 L249.05 188.85 Q249.5 196.4 254.65 203.1 L252.9 203.3 252.25 202.4 249.65 197.5 Q248.95 195.75 248.4 192.45 L248.1 188.5" fill="#e5c59a" fill-rule="evenodd" stroke="none"/>
    <path d="M300.9 196.75 Q299.95 200.45 298.3 204.65 L297.6 203.8 Q299.15 200.4 299.95 196.9 L300.1 196.15 300.9 196.75 M290.9 215.6 Q287.8 218.1 283.65 219.55 L283.65 216.8 285.4 216.4 Q288.0 215.65 290.25 213.85 L290.9 215.6 M248.35 183.0 L249.3 183.65 Q248.9 186.35 249.05 188.85 L248.1 188.5 248.15 184.9 248.35 183.0 M252.9 203.3 L254.65 203.1 257.05 205.85 255.65 206.6 255.25 206.15 252.9 203.3" fill="#b3946d" fill-rule="evenodd" stroke="none"/>
    <path d="M283.65 219.55 Q279.3 220.95 273.9 221.2 L261.9 214.45 Q257.4 211.0 254.25 207.25 L255.65 206.6 257.05 205.85 259.35 208.2 Q261.4 210.05 263.7 211.8 L274.25 217.3 Q279.05 217.55 283.0 216.25 L283.7 216.1 283.65 216.8 283.65 219.55" fill="#a18562" fill-rule="evenodd" stroke="none"/>
    <path d="M280.55 150.55 L278.6 152.15 Q278.35 151.35 278.25 150.35 278.4 146.9 279.7 145.25 L281.35 147.8 281.25 147.95 Q280.45 149.35 280.55 150.55 M285.85 144.35 Q287.25 145.25 288.05 146.65 L285.9 149.55 285.25 148.05 284.65 147.4 285.85 144.35 M290.25 148.75 Q291.15 147.6 292.2 147.25 L292.05 149.3 291.7 149.45 Q290.35 149.85 290.25 149.0 L290.25 148.75 M299.0 154.15 L298.85 155.9 Q298.2 155.8 297.75 154.75 L299.0 154.15 M292.15 155.65 L293.1 154.85 Q294.25 154.6 295.65 156.95 L295.85 156.65 295.9 156.7 Q296.05 157.85 295.45 158.75 L295.4 158.75 293.45 158.75 292.15 155.65 M293.3 169.6 Q296.3 172.5 298.4 175.95 L296.35 175.9 Q295.05 173.55 292.05 170.0 L291.95 169.9 293.3 169.6 M248.85 177.35 Q249.8 174.4 251.3 171.35 254.9 164.15 259.4 160.3 L261.2 160.1 Q260.2 160.6 259.5 161.15 L258.75 161.95 256.4 165.45 253.8 169.4 251.4 174.5 249.7 178.35 248.85 177.35 M269.15 155.85 Q270.75 155.65 272.5 155.8 L276.35 156.5 277.25 157.65 275.95 157.5 Q271.95 157.05 270.15 157.55 L269.15 155.85" fill="#feecc5" fill-rule="evenodd" stroke="none"/>
    <path d="M283.35 149.95 L284.1 150.65 Q285.8 154.15 283.2 155.75 279.75 156.8 278.6 152.15 L280.55 150.55 Q280.6 151.2 281.0 151.8 L280.45 153.85 282.3 153.35 Q283.5 153.0 283.35 149.95 M279.7 145.25 Q280.95 143.55 283.45 143.5 284.75 143.85 285.85 144.35 L284.65 147.4 Q282.85 145.8 281.35 147.8 L279.7 145.25" fill="#fef1d6" fill-rule="evenodd" stroke="none"/>
    <path d="M283.35 149.95 Q283.5 153.0 282.3 153.35 L280.45 153.85 281.0 151.8 Q281.75 148.85 283.35 149.95 M297.5 150.1 Q298.85 152.0 299.0 154.15 L297.75 154.75 297.55 154.2 296.5 151.5 297.5 150.1 M292.6 160.35 L292.35 160.0 Q291.2 157.15 292.15 155.65 L293.45 158.75 295.4 158.75 Q294.65 159.8 293.05 160.25 L292.6 160.35" fill="#ffffff" fill-rule="evenodd" stroke="none"/>
    <path d="M292.2 147.25 Q294.05 146.7 296.1 148.4 L297.5 150.1 296.5 151.5 295.55 150.2 Q294.5 149.25 293.35 148.9 L292.05 149.3 292.2 147.25 M289.8 164.05 Q290.7 166.8 292.75 169.1 L293.3 169.6 291.95 169.9 289.3 166.65 Q289.1 165.4 289.8 164.05 M298.4 175.95 Q300.4 179.4 301.45 183.55 301.9 185.1 301.95 186.9 300.55 186.45 299.55 184.0 297.9 178.85 296.35 175.95 L296.35 175.9 298.4 175.95 M251.55 203.5 Q247.0 196.25 247.0 188.05 L248.1 188.5 248.4 192.45 Q248.95 195.75 249.65 197.5 L252.25 202.4 252.9 203.3 251.55 203.5 M247.55 182.4 Q248.0 179.9 248.85 177.35 L249.7 178.35 249.45 178.85 Q248.7 180.2 248.35 183.0 L247.55 182.4 M299.35 187.95 L299.8 188.65 300.4 190.0 Q300.8 192.6 300.1 196.15 L298.6 194.85 Q299.3 191.15 299.35 187.95 M290.25 213.85 L289.7 212.35 Q293.85 208.7 296.4 202.35 L297.6 203.8 297.05 205.0 Q294.05 210.85 290.25 213.85" fill="#eacbae" fill-rule="evenodd" stroke="none"/>
    <path d="M254.25 207.25 L251.55 203.5 252.9 203.3 255.25 206.15 255.65 206.6 254.25 207.25 M247.0 188.05 Q247.05 185.3 247.55 182.4 L248.35 183.0 248.15 184.9 248.1 188.5 247.0 188.05 M290.25 213.85 Q288.0 215.65 285.4 216.4 L283.65 216.8 283.7 216.1 Q287.0 214.8 289.7 212.35 L290.25 213.85 M300.1 196.15 L299.95 196.9 Q299.15 200.4 297.6 203.8 L296.4 202.35 297.2 200.3 298.6 194.85 300.1 196.15" fill="#bb9c80" fill-rule="evenodd" stroke="none"/>
    <path d="M278.6 152.15 Q279.75 156.8 283.2 155.75 285.8 154.15 284.1 150.65 L283.35 149.95 Q281.75 148.85 281.0 151.8 280.6 151.2 280.55 150.55 280.45 149.35 281.25 147.95 L281.35 147.8 Q282.85 145.8 284.65 147.4 L285.25 148.05 285.9 149.55 Q286.65 152.25 285.35 154.85 283.05 157.25 276.35 156.5 L272.5 155.8 Q270.75 155.65 269.15 155.85 265.45 156.25 262.25 158.2 260.75 159.1 259.4 160.3 254.9 164.15 251.3 171.35 249.8 174.4 248.85 177.35 248.0 179.9 247.55 182.4 247.05 185.3 247.0 188.05 247.0 196.25 251.55 203.5 L254.25 207.25 Q257.4 211.0 261.9 214.45 L273.9 221.2 Q279.3 220.95 283.65 219.55 287.8 218.1 290.9 215.6 295.2 212.05 297.65 206.3 L298.3 204.65 Q299.95 200.45 300.9 196.75 302.25 191.2 301.95 186.9 301.9 185.1 301.45 183.55 300.4 179.4 298.4 175.95 296.3 172.5 293.3 169.6 L292.75 169.1 Q290.7 166.8 289.8 164.05 289.4 163.05 289.3 161.9 288.8 158.65 289.8 155.0 290.6 152.6 291.85 151.55 292.9 150.65 294.4 150.8 295.45 151.35 296.1 152.05 297.25 153.4 296.45 155.4 L295.85 156.6 295.85 156.65 295.65 156.95 Q294.25 154.6 293.1 154.85 L292.15 155.65 Q291.2 157.15 292.35 160.0 L292.6 160.35 Q295.2 163.1 297.8 159.05 L298.0 158.65 298.85 155.9 299.0 154.15 Q298.85 152.0 297.5 150.1 L296.1 148.4 Q294.05 146.7 292.2 147.25 291.15 147.6 290.25 148.75 289.55 149.5 288.95 150.6 L288.75 153.3 Q288.3 156.1 286.65 157.65 286.3 160.6 286.85 163.45 287.6 167.05 289.95 170.35 291.6 172.7 294.05 174.9 L295.05 175.8 Q299.35 180.35 299.35 187.95 299.3 191.15 298.6 194.85 L297.2 200.3 296.4 202.35 Q293.85 208.7 289.7 212.35 287.0 214.8 283.7 216.1 L283.0 216.25 Q279.05 217.55 274.25 217.3 L263.7 211.8 Q261.4 210.05 259.35 208.2 L257.05 205.85 254.65 203.1 Q249.5 196.4 249.05 188.85 248.9 186.35 249.3 183.65 249.6 181.45 250.3 179.1 251.4 175.65 253.25 172.05 257.25 164.6 263.1 161.2 265.75 159.7 268.8 159.05 L270.8 158.65 274.4 158.4 278.6 159.4 Q284.05 160.2 286.65 157.65 M278.6 152.15 Q278.35 151.35 278.25 150.35 278.4 146.9 279.7 145.25 280.95 143.55 283.45 143.5 284.75 143.85 285.85 144.35 287.25 145.25 288.05 146.65 L288.85 148.75 288.95 150.6" fill="none" stroke="#000000" stroke-linecap="round" stroke-linejoin="round" stroke-opacity="0.4" stroke-width="0.2"/>
    <path d="M250.4 155.15 L250.45 151.8 252.1 151.85 253.2 152.45 254.5 153.75 Q255.6 155.4 255.2 157.65 254.65 161.3 250.15 166.6 L248.25 167.25 247.0 167.65 Q252.35 161.1 252.8 157.85 252.35 155.45 250.4 155.15" fill="#fff5e0" fill-rule="evenodd" stroke="none"/>
    <path d="M243.0 174.4 Q244.05 172.35 247.25 168.45 L248.25 167.25 250.15 166.6 246.55 170.45 244.1 174.15 243.0 174.4 M238.85 203.6 L238.1 200.35 237.15 195.85 237.0 191.65 236.95 187.8 Q236.75 187.75 237.0 186.7 L237.75 184.5 236.5 186.45 Q236.85 184.6 237.5 182.75 L239.7 183.05 Q237.2 190.35 238.15 197.45 238.65 200.8 239.65 203.3 L238.85 203.6" fill="#fee4ab" fill-rule="evenodd" stroke="none"/>
    <path d="M241.4 174.75 L243.0 174.4 244.1 174.15 242.8 176.4 Q240.9 179.75 239.7 183.05 L237.5 182.75 Q238.9 178.65 241.4 174.75 M238.85 203.6 L239.65 203.3 241.35 206.15 240.3 206.8 Q239.1 205.35 238.9 204.1 L238.85 203.6 M242.95 209.35 L243.9 208.5 Q248.15 211.1 255.5 208.5 L254.3 210.4 253.35 210.7 248.85 211.3 Q247.45 211.4 245.3 210.6 244.1 210.15 242.95 209.35" fill="#e5c59a" fill-rule="evenodd" stroke="none"/>
    <path d="M240.3 206.8 L241.35 206.15 Q242.4 207.65 243.9 208.5 L242.95 209.35 241.15 207.8 240.3 206.8 M254.3 210.4 L255.5 208.5 258.7 207.25 258.05 208.95 257.5 209.15 254.3 210.4" fill="#b3946d" fill-rule="evenodd" stroke="none"/>
    <path d="M258.05 208.95 L258.7 207.25 261.65 205.8 Q264.1 204.55 266.75 202.8 L269.45 200.65 270.2 203.15 266.75 205.8 Q261.7 208.9 257.35 210.6 L258.05 208.95" fill="#a18562" fill-rule="evenodd" stroke="none"/>
    <path d="M248.35 155.55 L247.65 153.15 Q249.15 152.0 250.45 151.8 L250.4 155.15 249.1 155.2 248.35 155.55 M243.55 159.7 L246.15 159.05 246.15 159.25 Q246.25 160.65 247.0 160.95 L246.35 163.65 245.2 163.25 Q243.45 161.75 243.55 159.7 M241.4 174.75 Q242.45 173.0 243.8 171.35 L247.0 167.65 248.25 167.25 247.25 168.45 Q244.05 172.35 243.0 174.4 L241.4 174.75 M236.5 186.45 L237.75 184.5 237.0 186.7 Q236.75 187.75 236.95 187.8 L237.0 191.65 237.15 195.85 238.1 200.35 238.85 203.6 237.7 204.05 Q236.85 201.9 236.3 199.15 235.25 192.6 236.5 186.45" fill="#feecc5" fill-rule="evenodd" stroke="none"/>
    <path d="M248.35 155.55 Q246.25 156.7 246.15 159.05 L243.55 159.7 Q243.65 157.75 245.45 155.2 L247.65 153.15 248.35 155.55 M247.0 160.95 L247.95 161.05 248.65 162.4 249.7 160.3 Q250.5 158.95 248.75 157.9 L249.65 157.45 Q252.7 157.15 251.65 160.4 249.65 164.35 246.35 163.65 L247.0 160.95" fill="#fef1d6" fill-rule="evenodd" stroke="none"/>
    <path d="M247.95 161.05 Q247.0 159.1 248.75 157.9 250.5 158.95 249.7 160.3 L248.65 162.4 247.95 161.05" fill="#ffffff" fill-rule="evenodd" stroke="none"/>
    <path d="M237.7 204.05 L238.85 203.6 238.9 204.1 Q239.1 205.35 240.3 206.8 L239.4 207.4 Q238.45 205.9 237.7 204.05 M241.95 210.2 L242.95 209.35 Q244.1 210.15 245.3 210.6 247.45 211.4 248.85 211.3 L253.35 210.7 254.3 210.4 253.4 211.85 Q246.25 213.6 241.95 210.2" fill="#eacbae" fill-rule="evenodd" stroke="none"/>
    <path d="M240.3 206.8 L241.15 207.8 242.95 209.35 241.95 210.2 Q240.55 209.1 239.4 207.4 L240.3 206.8 M253.4 211.85 L254.3 210.4 257.5 209.15 258.05 208.95 257.35 210.6 253.4 211.85" fill="#bb9c80" fill-rule="evenodd" stroke="none"/>
    <path d="M246.15 159.05 Q246.25 156.7 248.35 155.55 L249.1 155.2 250.4 155.15 Q252.35 155.45 252.8 157.85 252.35 161.1 247.0 167.65 L243.8 171.35 Q242.45 173.0 241.4 174.75 238.9 178.65 237.5 182.75 236.85 184.6 236.5 186.45 235.25 192.6 236.3 199.15 236.85 201.9 237.7 204.05 238.45 205.9 239.4 207.4 240.55 209.1 241.95 210.2 246.25 213.6 253.4 211.85 L257.35 210.6 Q261.7 208.9 266.75 205.8 L270.2 203.15 M247.65 153.15 L245.45 155.2 Q243.65 157.75 243.55 159.7 243.45 161.75 245.2 163.25 L246.35 163.65 Q249.65 164.35 251.65 160.4 252.7 157.15 249.65 157.45 L248.75 157.9 Q247.0 159.1 247.95 161.05 L247.0 160.95 Q246.25 160.65 246.15 159.25 L246.15 159.05 M250.45 151.8 Q249.15 152.0 247.65 153.15 M244.1 174.15 L246.55 170.45 250.15 166.6 Q254.65 161.3 255.2 157.65 255.6 155.4 254.5 153.75 L253.2 152.45 252.1 151.85 250.45 151.8 M239.7 183.05 Q240.9 179.75 242.8 176.4 L244.1 174.15 M239.65 203.3 Q238.65 200.8 238.15 197.45 237.2 190.35 239.7 183.05 M241.35 206.15 L239.65 203.3 M243.9 208.5 Q242.4 207.65 241.35 206.15 M258.7 207.25 L255.5 208.5 Q248.15 211.1 243.9 208.5 M269.45 200.65 L266.75 202.8 Q264.1 204.55 261.65 205.8 L258.7 207.25" fill="none" stroke="#000000" stroke-linecap="round" stroke-linejoin="round" stroke-opacity="0.4" stroke-width="0.2"/>
    <path d="M315.0 180.65 L317.15 178.1 315.75 177.0 314.55 176.7 312.65 176.8 Q310.7 177.3 309.5 179.2 307.5 182.25 307.55 189.2 L308.65 191.0 309.4 192.15 Q309.45 183.7 311.3 181.0 313.25 179.5 315.0 180.65" fill="#fff5e0" fill-rule="evenodd" stroke="none"/>
    <path d="M308.1 199.85 Q308.6 197.65 308.65 192.6 L308.65 191.0 307.55 189.2 307.9 194.5 307.45 198.95 308.1 199.85 M305.3 213.25 L307.0 209.8 305.0 208.5 Q302.15 215.6 296.7 220.15 294.05 222.35 291.6 223.5 L292.05 224.3 294.85 222.35 298.5 219.7 301.45 216.7 304.1 213.9 304.7 213.05 305.6 210.95 Q305.3 212.45 305.3 213.25" fill="#fee4ab" fill-rule="evenodd" stroke="none"/>
    <path d="M309.15 201.25 L308.1 199.85 307.45 198.95 306.95 201.5 Q306.25 205.25 305.0 208.5 L307.0 209.8 Q308.55 205.85 309.15 201.25 M292.05 224.3 L291.6 223.5 Q289.95 224.25 288.4 224.5 L288.75 225.65 Q290.75 225.4 291.7 224.55 L292.05 224.3 M285.0 225.7 L284.8 224.5 Q279.7 223.5 275.6 216.6 L275.25 218.85 275.85 219.65 278.95 223.2 Q280.1 224.2 282.3 225.1 L285.0 225.7" fill="#e5c59a" fill-rule="evenodd" stroke="none"/>
    <path d="M288.75 225.65 L288.4 224.5 Q286.55 224.85 284.8 224.5 L285.0 225.7 287.45 225.8 288.75 225.65 M273.25 215.15 L273.55 215.7 275.25 218.85 275.6 216.6 273.85 213.45 273.25 215.15" fill="#b3946d" fill-rule="evenodd" stroke="none"/>
    <path d="M272.7 216.85 L273.25 215.15 273.85 213.45 272.5 210.4 270.45 204.7 269.7 201.3 267.45 202.65 268.45 206.9 Q270.4 212.7 272.7 216.85" fill="#a18562" fill-rule="evenodd" stroke="none"/>
    <path d="M316.35 182.35 L318.5 181.0 Q318.05 179.15 317.15 178.1 L315.0 180.65 Q315.45 180.95 315.95 181.55 L316.35 182.35 M317.4 188.65 L315.75 186.4 315.65 186.5 Q314.65 187.5 313.8 187.25 L312.55 189.6 Q313.05 189.95 313.75 190.15 316.15 190.2 317.4 188.65 M309.15 201.25 L309.5 197.05 309.4 192.15 308.65 191.0 308.65 192.6 Q308.6 197.65 308.1 199.85 L309.15 201.25 M305.3 213.25 Q305.3 212.45 305.6 210.95 L304.7 213.05 304.1 213.9 301.45 216.7 298.5 219.7 294.85 222.35 292.05 224.3 292.65 225.4 297.0 222.75 Q302.25 218.65 305.3 213.25" fill="#feecc5" fill-rule="evenodd" stroke="none"/>
    <path d="M316.35 182.35 Q317.25 184.65 315.75 186.4 L317.4 188.65 Q318.65 187.15 318.9 184.0 L318.5 181.0 316.35 182.35 M313.8 187.25 Q313.4 187.15 313.0 186.65 L311.55 187.15 312.05 184.9 Q312.4 183.35 314.45 183.8 L314.05 182.8 Q311.8 180.5 310.45 183.65 309.5 187.85 312.55 189.6 L313.8 187.25" fill="#fef1d6" fill-rule="evenodd" stroke="none"/>
    <path d="M313.0 186.65 Q315.05 185.9 314.45 183.8 312.4 183.35 312.05 184.9 L311.55 187.15 313.0 186.65" fill="#ffffff" fill-rule="evenodd" stroke="none"/>
    <path d="M292.65 225.4 L292.05 224.3 291.7 224.55 Q290.75 225.4 288.75 225.65 L289.1 226.75 292.65 225.4 M285.2 227.05 L285.0 225.7 282.3 225.1 Q280.1 224.2 278.95 223.2 L275.85 219.65 275.25 218.85 275.0 220.5 Q279.6 226.6 285.2 227.05" fill="#eacbae" fill-rule="evenodd" stroke="none"/>
    <path d="M288.75 225.65 L287.45 225.8 285.0 225.7 285.2 227.05 289.1 226.75 288.75 225.65 M275.0 220.5 L275.25 218.85 273.55 215.7 273.25 215.15 272.7 216.85 275.0 220.5" fill="#bb9c80" fill-rule="evenodd" stroke="none"/>
    <path d="M315.75 186.4 Q317.25 184.65 316.35 182.35 L315.95 181.55 Q315.45 180.95 315.0 180.65 313.25 179.5 311.3 181.0 309.45 183.7 309.4 192.15 L309.5 197.05 309.15 201.25 Q308.55 205.85 307.0 209.8 L305.3 213.25 Q302.25 218.65 297.0 222.75 L292.65 225.4 289.1 226.75 285.2 227.05 Q279.6 226.6 275.0 220.5 L272.7 216.85 Q270.4 212.7 268.45 206.9 L267.45 202.65 M318.5 181.0 L318.9 184.0 Q318.65 187.15 317.4 188.65 316.15 190.2 313.75 190.15 313.05 189.95 312.55 189.6 309.5 187.85 310.45 183.65 311.8 180.5 314.05 182.8 L314.45 183.8 Q315.05 185.9 313.0 186.65 313.4 187.15 313.8 187.25 314.65 187.5 315.65 186.5 L315.75 186.4 M317.15 178.1 Q318.05 179.15 318.5 181.0 M307.45 198.95 L307.9 194.5 307.55 189.2 Q307.5 182.25 309.5 179.2 310.7 177.3 312.65 176.8 L314.55 176.7 315.75 177.0 317.15 178.1 M305.0 208.5 Q306.25 205.25 306.95 201.5 L307.45 198.95 M291.6 223.5 Q294.05 222.35 296.7 220.15 302.15 215.6 305.0 208.5 M288.4 224.5 Q289.95 224.25 291.6 223.5 M284.8 224.5 Q286.55 224.85 288.4 224.5 M275.6 216.6 Q279.7 223.5 284.8 224.5 M273.85 213.45 L275.6 216.6 M273.85 213.45 L272.5 210.4 270.45 204.7 269.7 201.3" fill="none" stroke="#000000" stroke-linecap="round" stroke-linejoin="round" stroke-opacity="0.4" stroke-width="0.2"/>
    <path d="M307.3 214.75 L307.15 214.75 305.35 214.95 305.7 213.2 Q306.4 208.3 305.6 206.25 305.3 205.45 304.8 204.95 L305.1 202.4 305.8 203.1 Q307.85 205.45 307.85 209.65 307.85 212.25 307.3 214.75 M236.2 192.15 L233.55 191.4 Q234.4 190.1 235.75 188.65 L237.9 186.65 239.2 188.0 Q238.35 188.85 237.45 190.15 L236.2 192.15" fill="#fff5e0" fill-rule="evenodd" stroke="none"/>
    <path d="M305.35 214.95 L307.15 214.75 307.3 214.75 Q306.55 217.9 304.9 221.0 L304.25 222.1 303.85 221.9 301.95 220.9 302.5 220.4 Q304.5 218.5 305.35 214.95 M254.1 194.25 L252.0 194.5 252.0 194.4 Q252.0 193.5 250.5 193.5 249.0 193.5 247.35 194.4 L247.1 193.6 246.85 192.35 Q249.9 191.1 251.6 191.1 252.65 191.1 253.45 191.8 254.25 192.5 254.25 193.35 L254.1 194.25 M233.55 191.4 L236.2 192.15 Q235.15 194.1 235.15 195.3 235.15 195.75 235.7 196.3 L233.15 197.7 233.0 197.8 Q232.0 196.85 232.0 195.25 232.0 193.6 233.55 191.4 M241.55 195.3 L243.4 196.45 244.0 196.8 242.2 198.55 241.65 199.15 239.8 201.4 241.65 199.15 246.85 198.35 247.25 198.2 247.65 199.7 247.75 199.95 Q244.6 201.15 242.35 201.4 L239.8 201.4 Q238.65 203.05 238.0 204.6 L235.35 203.9 234.75 203.75 234.75 203.7 Q237.3 198.9 240.2 196.35 L241.55 195.3 M291.65 227.6 L291.85 227.35 292.85 226.0 293.45 225.1 293.5 224.95 Q293.95 224.05 294.6 220.55 L295.05 216.75 296.4 216.3 297.7 215.8 297.75 218.1 Q297.75 220.95 296.9 223.6 L295.55 226.6 294.8 227.8 293.85 229.15 291.65 227.6 M288.9 209.55 L288.75 211.25 288.85 213.0 Q287.65 214.4 285.7 215.05 285.4 214.75 285.4 211.95 285.4 209.55 286.7 207.35 L286.8 207.15 287.25 207.8 288.9 209.55 M290.75 218.75 Q291.75 221.0 293.2 222.6 L291.0 223.7 Q289.4 222.15 288.15 220.15 L290.75 218.75" fill="#e5c59a" fill-rule="evenodd" stroke="none"/>
    <path d="M305.1 202.4 L304.8 204.95 Q304.05 204.2 302.95 204.2 L301.7 204.4 Q301.3 204.65 301.05 205.45 L301.4 205.15 301.85 205.05 Q302.45 205.05 303.0 205.45 303.8 206.0 303.8 207.0 L303.5 208.65 Q302.9 209.8 301.15 209.8 300.35 209.8 299.65 208.8 298.85 207.65 298.85 205.8 298.85 204.2 299.75 202.9 300.85 201.3 302.65 201.3 303.85 201.3 305.1 202.4 M301.95 220.9 L303.85 221.9 304.25 222.1 Q301.75 226.1 298.75 226.8 L298.75 222.95 301.95 220.9 M252.0 194.5 L254.1 194.25 253.25 195.9 251.5 198.15 250.75 196.25 251.7 195.25 252.0 194.5 M239.2 188.0 L237.9 186.65 Q240.65 184.4 243.05 184.4 244.65 184.4 245.55 185.6 246.25 186.5 246.25 187.65 246.25 189.4 244.95 190.55 243.95 191.4 243.0 191.4 241.8 191.4 241.2 190.75 240.7 190.15 240.7 189.2 240.7 187.65 241.7 187.15 L242.9 186.95 Q244.0 186.95 244.15 188.35 L244.25 188.55 Q244.65 188.15 244.65 187.55 244.65 186.9 244.05 186.55 L242.8 186.3 Q241.0 186.3 239.2 188.0" fill="#fee4ab" fill-rule="evenodd" stroke="none"/>
    <path d="M246.85 192.35 L247.1 193.6 247.35 194.4 Q245.75 195.2 244.0 196.8 L243.4 196.45 241.55 195.3 Q243.9 193.5 246.85 192.35 M234.75 203.75 L235.35 203.9 238.0 204.6 Q237.25 206.5 237.25 208.3 237.25 209.55 237.65 210.6 L232.75 212.5 232.65 212.55 Q232.4 211.5 232.4 210.2 232.4 208.1 234.7 203.75 L234.75 203.75 M239.0 217.75 L241.9 214.95 242.4 214.45 246.0 214.85 249.7 214.45 249.1 217.05 249.1 217.1 242.7 218.0 239.0 217.75 M275.4 227.0 L275.65 227.45 Q277.05 229.6 279.35 230.7 L279.2 231.3 278.9 233.25 277.05 232.5 Q275.85 231.8 274.4 230.05 L275.4 227.0 M285.1 231.75 L287.6 230.8 290.45 229.0 291.65 227.6 293.85 229.15 Q290.55 233.1 285.5 233.65 L285.1 231.75 M295.05 216.75 L294.9 213.75 Q294.5 210.75 293.25 209.1 292.0 207.45 291.25 207.35 L289.8 207.4 Q289.15 207.55 288.95 208.8 L288.9 209.55 287.25 207.8 286.8 207.15 Q288.3 204.65 290.65 204.65 293.6 204.65 295.6 208.05 297.35 211.0 297.7 215.8 L296.4 216.3 295.05 216.75" fill="#b3946d" fill-rule="evenodd" stroke="none"/>
    <path d="M233.0 197.8 L233.15 197.7 235.7 196.3 236.05 196.65 236.35 199.45 Q233.95 198.55 233.15 197.95 L233.0 197.8 M247.25 198.2 L248.6 197.45 249.3 199.35 247.75 199.95 247.65 199.7 247.25 198.2 M232.65 212.55 L232.75 212.5 237.65 210.6 Q238.1 211.9 239.2 212.9 240.5 213.95 242.4 214.45 L241.9 214.95 239.0 217.75 Q236.05 217.25 234.45 215.85 233.1 214.65 232.65 212.55 M249.7 214.45 L253.4 213.2 Q256.2 212.0 256.7 211.3 L256.7 211.2 259.0 211.9 Q257.85 213.45 253.25 215.5 L249.1 217.05 249.7 214.45 M269.3 216.25 L272.1 216.25 272.1 216.3 Q273.7 224.1 275.4 227.0 L274.4 230.05 272.65 227.7 Q271.1 225.45 270.05 220.6 269.4 217.9 269.3 216.25 M279.35 230.7 Q281.7 231.75 284.95 231.75 L285.1 231.75 285.5 233.65 283.75 233.75 278.9 233.25 279.2 231.3 279.35 230.7 M292.85 226.0 L292.1 225.65 293.5 224.95 293.45 225.1 292.85 226.0 M296.9 223.6 L298.75 222.95 298.75 226.8 297.5 226.9 296.2 226.75 295.55 226.6 296.9 223.6 M288.15 220.15 L287.0 218.05 289.9 216.35 Q290.25 217.65 290.75 218.75 L288.15 220.15" fill="#a18260" fill-rule="evenodd" stroke="none"/>
    <path d="M307.3 214.75 Q307.85 212.25 307.85 209.65 307.85 205.45 305.8 203.1 L305.1 202.4 Q303.85 201.3 302.65 201.3 300.85 201.3 299.75 202.9 298.85 204.2 298.85 205.8 298.85 207.65 299.65 208.8 300.35 209.8 301.15 209.8 302.9 209.8 303.5 208.65 L303.8 207.0 Q303.8 206.0 303.0 205.45 302.45 205.05 301.85 205.05 L301.4 205.15 301.05 205.45 Q301.3 204.65 301.7 204.4 L302.95 204.2 Q304.05 204.2 304.8 204.95 305.3 205.45 305.6 206.25 306.4 208.3 305.7 213.2 L305.35 214.95 Q304.5 218.5 302.5 220.4 L301.95 220.9 298.75 222.95 296.9 223.6 Q297.75 220.95 297.75 218.1 L297.7 215.8 Q297.35 211.0 295.6 208.05 293.6 204.65 290.65 204.65 288.3 204.65 286.8 207.15 L286.7 207.35 Q285.4 209.55 285.4 211.95 285.4 214.75 285.7 215.05 287.65 214.4 288.85 213.0 L288.75 211.25 288.9 209.55 288.95 208.8 Q289.15 207.55 289.8 207.4 L291.25 207.35 Q292.0 207.45 293.25 209.1 294.5 210.75 294.9 213.75 L295.05 216.75 294.6 220.55 Q293.95 224.05 293.5 224.95 L292.1 225.65 292.85 226.0 293.45 225.1 293.5 224.95 M304.25 222.1 L304.9 221.0 Q306.55 217.9 307.3 214.75 M254.1 194.25 L254.25 193.35 Q254.25 192.5 253.45 191.8 252.65 191.1 251.6 191.1 249.9 191.1 246.85 192.35 243.9 193.5 241.55 195.3 L240.2 196.35 Q237.3 198.9 234.75 203.7 L234.7 203.75 Q232.4 208.1 232.4 210.2 232.4 211.5 232.65 212.55 233.1 214.65 234.45 215.85 236.05 217.25 239.0 217.75 L242.7 218.0 249.1 217.1 249.1 217.05 253.25 215.5 Q257.85 213.45 259.0 211.9 L256.7 211.2 256.7 211.3 Q256.2 212.0 253.4 213.2 L249.7 214.45 246.0 214.85 242.4 214.45 Q240.5 213.95 239.2 212.9 238.1 211.9 237.65 210.6 237.25 209.55 237.25 208.3 237.25 206.5 238.0 204.6 238.65 203.05 239.8 201.4 L241.65 199.15 242.2 198.55 244.0 196.8 Q245.75 195.2 247.35 194.4 249.0 193.5 250.5 193.5 252.0 193.5 252.0 194.4 L252.0 194.5 251.7 195.25 250.75 196.25 251.5 198.15 253.25 195.9 254.1 194.25 M236.2 192.15 L237.45 190.15 Q238.35 188.85 239.2 188.0 241.0 186.3 242.8 186.3 L244.05 186.55 Q244.65 186.9 244.65 187.55 244.65 188.15 244.25 188.55 L244.15 188.35 Q244.0 186.95 242.9 186.95 L241.7 187.15 Q240.7 187.65 240.7 189.2 240.7 190.15 241.2 190.75 241.8 191.4 243.0 191.4 243.95 191.4 244.95 190.55 246.25 189.4 246.25 187.65 246.25 186.5 245.55 185.6 244.65 184.4 243.05 184.4 240.65 184.4 237.9 186.65 L235.75 188.65 Q234.4 190.1 233.55 191.4 232.0 193.6 232.0 195.25 232.0 196.85 233.0 197.8 L233.15 197.95 Q233.95 198.55 236.35 199.45 L236.05 196.65 235.7 196.3 Q235.15 195.75 235.15 195.3 235.15 194.1 236.2 192.15 M247.75 199.95 Q244.6 201.15 242.35 201.4 L239.8 201.4 M241.65 199.15 L246.85 198.35 247.25 198.2 248.6 197.45 249.3 199.35 247.75 199.95 M269.3 216.25 L272.1 216.25 272.1 216.3 Q273.7 224.1 275.4 227.0 L275.65 227.45 Q277.05 229.6 279.35 230.7 281.7 231.75 284.95 231.75 L285.1 231.75 287.6 230.8 290.45 229.0 291.65 227.6 291.85 227.35 292.85 226.0 M268.6 216.25 L269.3 216.25 269.3 214.85 M288.15 220.15 L287.0 218.05 289.9 216.35 Q290.25 217.65 290.75 218.75 291.75 221.0 293.2 222.6 L291.0 223.7 Q289.4 222.15 288.15 220.15 M295.55 226.6 L296.2 226.75 297.5 226.9 298.75 226.8 Q301.75 226.1 304.25 222.1 M293.85 229.15 L294.8 227.8 295.55 226.6 296.9 223.6 M293.85 229.15 Q290.55 233.1 285.5 233.65 L283.75 233.75 278.9 233.25 277.05 232.5 Q275.85 231.8 274.4 230.05 L272.65 227.7 Q271.1 225.45 270.05 220.6 269.4 217.9 269.3 216.25" fill="none" stroke="#000000" stroke-linecap="round" stroke-linejoin="round" stroke-opacity="0.3882353" stroke-width="0.2"/>
    <path d="M274.25 208.3 L275.4 213.4 274.1 221.35 271.8 216.85 269.65 215.0 Q265.1 217.1 258.5 215.5 258.6 212.95 259.8 209.6 L252.9 209.7 260.05 204.5 262.6 203.75 Q266.9 203.1 271.05 205.2 L274.25 208.3" fill="#8c231d" fill-rule="evenodd" stroke="none"/>
    <path d="M258.85 206.8 Q261.55 205.1 262.4 205.55 263.25 205.95 261.65 208.25 L256.65 214.9 Q253.3 219.35 255.7 224.1 258.1 228.85 251.1 228.65 244.05 228.4 246.95 221.45 249.7 214.35 252.9 211.35 256.1 208.4 258.85 206.8" fill="#961f1f" fill-rule="evenodd" stroke="none"/>
    <path d="M270.0 213.65 L270.15 213.15 270.55 213.05 271.0 213.2 271.25 213.65 271.1 214.1 270.65 214.25 270.2 214.1 270.0 213.65 M264.15 222.8 L264.45 223.4 Q264.55 223.85 264.3 224.1 L263.65 224.4 262.95 224.15 262.6 223.4 262.9 222.8 Q263.1 222.5 263.5 222.5 263.8 222.5 264.15 222.8 M260.65 231.7 Q261.2 232.25 261.2 232.95 261.15 233.7 260.6 234.3 260.05 234.75 259.3 234.8 258.55 234.8 258.05 234.25 257.55 233.65 257.6 232.95 257.55 232.15 258.15 231.7 258.65 231.15 259.4 231.2 260.15 231.15 260.65 231.7 M263.6 232.9 Q263.8 232.65 264.2 232.65 L264.85 232.95 265.2 233.55 265.0 234.25 264.35 234.5 263.7 234.25 Q263.35 233.95 263.3 233.55 L263.6 232.9 M255.35 232.95 Q254.3 233.85 252.9 233.9 251.5 233.85 250.55 232.85 249.55 231.85 249.6 230.45 249.6 229.05 250.65 228.1 251.65 227.1 253.1 227.15 254.55 227.1 255.5 228.15 256.45 229.1 256.4 230.6 256.35 232.0 255.35 232.95 M251.1 223.9 L250.75 223.05 Q250.7 222.65 251.1 222.4 L251.7 222.05 Q252.15 222.05 252.55 222.4 L252.85 223.15 252.7 223.9 251.9 224.2 251.1 223.9" fill="#771a1a" fill-opacity="0.7019608" fill-rule="evenodd" stroke="none"/>
    <path d="M261.95 224.95 Q262.85 225.8 263.0 227.1 263.05 228.35 262.25 229.3 261.45 230.15 260.15 230.1 258.9 230.1 257.9 229.25 256.95 228.3 256.8 227.0 256.75 225.75 257.6 224.85 258.4 224.0 259.7 224.0 260.95 224.05 261.95 224.95" fill="#4f1111" fill-opacity="0.7019608" fill-rule="evenodd" stroke="none"/>
    <path d="M262.5 225.6 L262.8 226.6 Q262.85 227.0 262.5 227.3 L261.75 227.2 Q261.35 226.95 261.2 226.4 L260.85 225.4 Q260.75 225.1 261.0 224.85 L261.8 224.95 262.5 225.6 M261.15 227.85 L261.85 228.0 262.25 228.4 262.0 228.85 Q261.8 229.1 261.35 229.15 L260.7 229.0 Q260.35 228.85 260.5 228.55 L260.7 228.05 Q260.75 227.85 261.15 227.85" fill="#ea9999" fill-opacity="0.7019608" fill-rule="evenodd" stroke="none"/>
    <path d="M262.5 205.35 Q263.2 205.7 262.4 207.05 261.65 208.35 259.75 209.95 L256.1 212.3 Q254.3 213.15 253.6 212.8 252.9 212.4 253.7 211.05 254.5 209.65 256.3 208.15 258.15 206.55 259.9 205.75 261.75 204.9 262.5 205.35 M248.8 221.3 L246.9 222.3 Q246.2 222.25 246.15 221.3 246.25 220.3 247.05 218.9 247.85 217.4 248.85 216.45 250.0 215.4 250.75 215.45 251.5 215.45 251.45 216.5 251.45 217.45 250.65 218.95 L248.8 221.3" fill="#ffffff" fill-opacity="0.6" fill-rule="evenodd" stroke="none"/>
    <path d="M273.45 221.75 L272.95 225.0 271.7 229.0 270.45 231.4 Q269.95 231.95 269.95 230.75 269.95 229.6 270.5 227.65 271.05 225.45 271.75 223.6 272.5 221.75 273.0 221.25 273.45 220.65 273.45 221.75" fill="#ffffff" fill-opacity="0.6" fill-rule="evenodd" stroke="none"/>
    <path d="M268.55 233.4 L268.2 234.15 267.4 234.8 266.7 235.0 Q266.45 234.95 266.5 234.6 266.5 234.3 266.85 233.9 L267.65 233.25 268.35 233.05 268.55 233.4" fill="#ffffff" fill-opacity="0.6" fill-rule="evenodd" stroke="none"/>
    <path d="M252.3 234.4 Q246.2 231.1 244.4 225.25 243.35 221.7 249.4 212.6 251.05 210.55 254.35 208.2 L260.05 204.15 Q265.65 201.3 271.55 204.9 275.75 207.6 275.55 211.55 276.4 216.0 272.7 226.65 271.25 234.55 264.8 236.65 258.8 237.55 252.4 234.4 L252.4 234.3 252.35 234.35 252.3 234.4" fill="url(#gradient1)" fill-rule="evenodd" stroke="none"/>
    <path d="M252.3 234.4 Q246.2 231.1 244.4 225.25 243.35 221.7 249.4 212.6 251.05 210.55 254.35 208.2 L260.05 204.15 Q265.65 201.3 271.55 204.9 275.75 207.6 275.55 211.55 276.4 216.0 272.7 226.65 271.25 234.55 264.8 236.65 258.8 237.55 252.4 234.4 L252.4 234.3 252.35 234.35" fill="none" stroke="#a14040" stroke-linecap="round" stroke-linejoin="round" stroke-opacity="0.5019608" stroke-width="0.05"/>
  </g>
  <defs>
    <linearGradient gradientTransform="matrix(0.0116, -0.0169, 0.0185, 0.0126, 258.9, 227.4)" gradientUnits="userSpaceOnUse" id="gradient0" spreadMethod="pad" x1="-819.2" x2="819.2">
      <stop offset="0.06666666666666667" stop-color="#59be3a" stop-opacity="0.7019608"/>
      <stop offset="0.5137254901960784" stop-color="#baf57c" stop-opacity="0.7019608"/>
      <stop offset="1.0" stop-color="#d2f4d6" stop-opacity="0.6509804"/>
    </linearGradient>
    <linearGradient gradientTransform="matrix(0.0082, -0.0137, 0.0149, 0.0088, 261.25, 220.15)" gradientUnits="userSpaceOnUse" id="gradient1" spreadMethod="pad" x1="-819.2" x2="819.2">
      <stop offset="0.06666666666666667" stop-color="#59be3a" stop-opacity="0.7019608"/>
      <stop offset="0.5137254901960784" stop-color="#baf57c" stop-opacity="0.7019608"/>
      <stop offset="1.0" stop-color="#d2f4d6" stop-opacity="0.6509804"/>
    </linearGradient>
  </defs>
</svg>
