<?xml version="1.0" encoding="UTF-8" standalone="no"?>
<svg xmlns:xlink="http://www.w3.org/1999/xlink" height="46.2px" width="45.45px" xmlns="http://www.w3.org/2000/svg">
  <g transform="matrix(1.0, 0.0, 0.0, 1.0, -252.25, -177.35)">
    <path d="M265.1 217.2 Q262.8 219.85 261.8 223.55 L261.6 222.55 Q261.95 219.8 263.45 217.6 L264.45 216.45 265.8 215.7 265.9 216.4 265.1 217.2" fill="#dfdfbf" fill-rule="evenodd" stroke="none"/>
    <path d="M265.8 215.7 L264.45 216.45 263.45 217.6 Q261.95 219.8 261.6 222.55 261.25 219.85 261.85 217.35 L261.95 216.9 Q261.9 216.2 263.0 215.55 L265.8 215.7" fill="#cccc99" fill-rule="evenodd" stroke="none"/>
    <path d="M265.1 217.2 L265.9 216.4 265.8 215.7 263.0 215.55 Q261.9 216.2 261.95 216.9 L261.85 217.35 261.45 216.85 Q261.3 216.3 261.95 215.7 262.6 215.15 263.65 214.9 L265.6 214.75 Q266.4 214.95 266.55 215.5 266.7 216.05 266.1 216.6 L265.1 217.2" fill="#000000" fill-opacity="0.2901961" fill-rule="evenodd" stroke="none"/>
    <path d="M261.6 222.55 L261.8 223.55 Q262.8 219.85 265.1 217.2 L265.9 216.4 265.8 215.7 263.0 215.55 Q261.9 216.2 261.95 216.9 L261.85 217.35 Q261.25 219.85 261.6 222.55 Z" fill="none" stroke="#000000" stroke-linecap="round" stroke-linejoin="round" stroke-opacity="0.4" stroke-width="0.05"/>
    <path d="M258.25 208.05 Q256.25 211.6 252.25 214.65 L253.6 214.25 Q256.95 212.2 258.75 209.7 L259.7 208.1 259.75 206.55 258.85 206.9 258.25 208.05" fill="#dfdfbf" fill-rule="evenodd" stroke="none"/>
    <path d="M259.75 206.55 L259.7 208.1 258.75 209.7 Q256.95 212.2 253.6 214.25 257.2 212.95 260.1 210.85 L260.6 210.5 Q261.5 210.15 261.75 208.8 261.15 206.35 259.75 206.55" fill="#cccc99" fill-rule="evenodd" stroke="none"/>
    <path d="M258.25 208.05 L258.85 206.9 259.75 206.55 Q261.15 206.35 261.75 208.8 261.5 210.15 260.6 210.5 L260.1 210.85 260.95 210.85 Q261.7 210.65 262.05 209.75 262.4 208.85 262.15 207.8 261.85 206.75 261.1 206.1 260.35 205.55 259.6 205.75 258.8 206.0 258.45 206.85 L258.25 208.05" fill="#000000" fill-opacity="0.2901961" fill-rule="evenodd" stroke="none"/>
    <path d="M253.6 214.25 L252.25 214.65 Q256.25 211.6 258.25 208.05 L258.85 206.9 259.75 206.55 Q261.15 206.35 261.75 208.8 261.5 210.15 260.6 210.5 L260.1 210.85 Q257.2 212.95 253.6 214.25 Z" fill="none" stroke="#000000" stroke-linecap="round" stroke-linejoin="round" stroke-opacity="0.4" stroke-width="0.05"/>
    <path d="M267.3 187.4 Q266.4 184.3 266.9 180.35 L266.4 181.3 Q265.65 184.3 266.05 186.7 L266.45 188.1 267.3 189.05 267.6 188.4 267.3 187.4" fill="#dfdfbf" fill-rule="evenodd" stroke="none"/>
    <path d="M267.3 189.05 L266.45 188.1 266.05 186.7 Q265.65 184.3 266.4 181.3 265.15 184.05 264.65 186.85 L264.65 187.35 Q264.3 188.0 264.9 188.9 266.6 189.95 267.3 189.05" fill="#cccc99" fill-rule="evenodd" stroke="none"/>
    <path d="M267.3 187.4 L267.6 188.4 267.3 189.05 Q266.6 189.95 264.9 188.9 264.3 188.0 264.65 187.35 L264.65 186.85 264.2 187.3 Q263.9 187.85 264.2 188.55 264.45 189.25 265.2 189.7 265.95 190.1 266.75 190.05 L267.85 189.4 Q268.15 188.85 267.85 188.15 L267.3 187.4" fill="#000000" fill-opacity="0.2901961" fill-rule="evenodd" stroke="none"/>
    <path d="M266.4 181.3 L266.9 180.35 Q266.4 184.3 267.3 187.4 L267.6 188.4 267.3 189.05 Q266.6 189.95 264.9 188.9 264.3 188.0 264.65 187.35 L264.65 186.85 Q265.15 184.05 266.4 181.3 Z" fill="none" stroke="#000000" stroke-linecap="round" stroke-linejoin="round" stroke-opacity="0.4" stroke-width="0.05"/>
    <path d="M259.85 190.25 Q256.3 188.25 253.25 184.25 L253.65 185.6 Q255.7 188.95 258.2 190.75 L259.8 191.7 261.35 191.75 261.05 190.85 259.85 190.25" fill="#dfdfbf" fill-rule="evenodd" stroke="none"/>
    <path d="M261.35 191.75 L259.8 191.7 258.2 190.75 Q255.7 188.95 253.65 185.6 254.95 189.2 257.1 192.1 L257.4 192.6 Q257.75 193.5 259.1 193.75 261.55 193.15 261.35 191.75" fill="#cccc99" fill-rule="evenodd" stroke="none"/>
    <path d="M259.85 190.25 L261.05 190.85 261.35 191.75 Q261.55 193.15 259.1 193.75 257.75 193.5 257.4 192.6 L257.1 192.1 Q256.9 192.5 257.05 192.95 257.25 193.7 258.15 194.05 L260.1 194.15 Q261.15 193.85 261.8 193.1 262.35 192.35 262.15 191.6 261.95 190.8 261.1 190.45 L259.85 190.25" fill="#000000" fill-opacity="0.2901961" fill-rule="evenodd" stroke="none"/>
    <path d="M253.65 185.6 L253.25 184.25 Q256.3 188.25 259.85 190.25 L261.05 190.85 261.35 191.75 Q261.55 193.15 259.1 193.75 257.75 193.5 257.4 192.6 L257.1 192.1 Q254.95 189.2 253.65 185.6 Z" fill="none" stroke="#000000" stroke-linecap="round" stroke-linejoin="round" stroke-opacity="0.4" stroke-width="0.05"/>
    <path d="M294.9 190.65 Q296.15 192.75 296.95 195.3 L277.55 202.85 276.5 199.55 294.9 190.65" fill="#bf0000" fill-rule="evenodd" stroke="none"/>
    <path d="M273.05 200.2 Q272.9 198.35 272.25 198.9 L272.25 192.85 272.3 192.85 Q274.25 193.25 274.1 195.05 L273.05 200.2 M262.85 188.25 L277.65 182.55 277.75 183.95 266.25 188.8 265.7 191.55 262.85 193.35 262.85 188.25 M274.95 204.75 L293.3 197.95 297.15 198.4 285.5 202.9 280.05 204.85 277.4 205.25 274.95 204.75 M267.3 218.25 L265.45 219.5 264.65 214.9 273.1 210.7 Q271.15 213.35 266.7 215.2 L267.3 218.25 M253.4 202.95 L266.35 198.25 269.1 198.75 257.05 202.95 253.4 202.95" fill="#8c0000" fill-rule="evenodd" stroke="none"/>
    <path d="M280.05 204.85 L285.5 202.9 297.7 199.75 Q295.6 210.6 289.65 213.3 L268.5 219.55 Q277.05 216.25 278.6 208.35 L280.05 204.85" fill="#990000" fill-rule="evenodd" stroke="none"/>
    <path d="M294.9 190.65 L276.5 199.55 Q275.5 197.05 274.1 195.05 L274.15 195.05 280.15 188.6 272.3 192.85 272.25 192.85 Q269.75 190.3 266.25 188.8 L277.75 183.95 282.6 182.25 Q291.0 184.4 294.9 190.65 M277.4 205.25 L280.05 204.85 278.6 208.35 277.4 205.25 M285.5 202.9 L297.15 198.4 Q297.8 199.35 297.7 199.75 L285.5 202.9" fill="#d50000" fill-rule="evenodd" stroke="none"/>
    <path d="M276.5 199.55 L277.55 202.85 274.1 202.4 273.05 200.2 274.1 195.05 Q275.5 197.05 276.5 199.55 M272.25 198.9 Q270.95 197.0 269.1 195.55 267.45 194.25 265.25 193.6 L265.7 191.55 266.25 188.8 Q269.75 190.3 272.25 192.85 L272.3 192.85 280.15 188.6 274.15 195.05 274.1 195.05 Q274.25 193.25 272.3 192.85 L272.25 192.85 272.25 198.9 M256.7 200.55 L253.25 200.0 Q256.0 190.4 262.85 188.25 L262.85 193.35 Q259.25 193.1 256.7 200.55 M274.95 204.75 L277.4 205.25 278.6 208.35 Q277.05 216.25 268.5 219.55 L267.95 219.75 267.3 219.95 267.3 218.25 266.7 215.2 Q271.15 213.35 273.1 210.7 L274.45 207.9 274.95 204.75 M265.45 219.5 Q255.45 216.6 253.4 202.95 L257.05 202.95 Q258.1 212.3 264.65 214.9 L265.45 219.5" fill="#bb0000" fill-rule="evenodd" stroke="none"/>
    <path d="M269.1 195.55 L256.7 200.55 Q259.25 193.1 262.85 193.35 L265.7 191.55 265.25 193.6 Q267.45 194.25 269.1 195.55 M269.1 198.75 Q269.15 205.75 274.45 207.9 L273.1 210.7 264.65 214.9 Q258.1 212.3 257.05 202.95 L269.1 198.75" fill="#660000" fill-rule="evenodd" stroke="none"/>
    <path d="M277.55 202.85 L296.95 195.3 Q296.15 192.75 294.9 190.65 291.0 184.4 282.6 182.25 L277.75 183.95 277.65 182.55 262.85 188.25 Q256.0 190.4 253.25 200.0 L256.7 200.55 269.1 195.55 Q270.95 197.0 272.25 198.9 272.9 198.35 273.05 200.2 L274.1 202.4 277.55 202.85 M297.15 198.4 L293.3 197.95 274.95 204.75 274.45 207.9 Q269.15 205.75 269.1 198.75 L266.35 198.25 253.4 202.95 Q255.45 216.6 265.45 219.5 L267.3 218.25 266.7 215.2 Q271.15 213.35 273.1 210.7 L274.45 207.9 M297.15 198.4 Q297.8 199.35 297.7 199.75 295.6 210.6 289.65 213.3 L268.5 219.55 267.95 219.75 267.3 219.95 267.3 218.25 M262.85 193.35 L265.7 191.55 266.25 188.8 277.75 183.95 M265.7 191.55 L265.25 193.6 Q267.45 194.25 269.1 195.55 M262.85 193.35 Q259.25 193.1 256.7 200.55" fill="none" stroke="#000000" stroke-linecap="round" stroke-linejoin="round" stroke-opacity="0.4" stroke-width="0.05"/>
    <path d="M294.7 190.35 L294.9 190.65 Q296.15 192.75 296.95 195.3 L285.3 199.85 286.85 198.85 Q290.05 196.15 290.05 193.25 L290.05 193.05 294.7 190.35 M289.8 213.15 Q289.8 211.25 286.95 211.25 L280.05 212.3 278.85 212.35 Q281.4 211.25 286.7 209.6 290.75 208.1 290.75 206.35 290.75 203.75 285.45 203.75 L284.15 203.8 288.45 202.15 292.1 201.1 293.55 200.65 297.65 199.85 Q295.55 210.4 289.85 213.2 L289.8 213.15" fill="#ff9900" fill-rule="evenodd" stroke="none"/>
    <path d="M278.45 215.35 L278.0 215.3 279.2 215.1 278.45 215.35 M286.85 213.55 L286.75 213.65 286.55 213.75 286.4 213.55 286.85 213.55 M267.3 219.9 L267.35 219.95 267.3 219.95 267.3 219.9 M277.65 202.85 L277.55 202.85 276.5 202.75 276.8 202.3 276.95 202.3 Q277.2 202.75 277.65 202.85 M273.55 200.75 L273.5 201.0 273.35 200.75 273.55 200.65 273.55 200.75" fill="#ff9900" fill-opacity="0.21960784" fill-rule="evenodd" stroke="none"/>
    <path d="M294.7 190.35 L290.05 193.05 Q289.9 190.6 286.45 190.6 L285.65 190.65 Q283.25 190.9 277.55 192.45 L275.55 193.05 278.0 191.4 282.35 188.75 Q283.55 187.95 283.55 186.6 283.55 184.9 280.75 184.9 277.85 184.9 272.35 186.55 L272.6 186.4 Q274.1 186.2 277.05 184.4 L277.85 183.95 282.6 182.25 Q290.85 184.35 294.7 190.35 M289.8 213.15 L289.85 213.2 289.8 213.2 289.8 213.15" fill="#ffcc00" fill-rule="evenodd" stroke="none"/>
    <path d="M290.05 193.05 L290.05 193.25" fill="none" stroke="#000000" stroke-linecap="round" stroke-linejoin="round" stroke-opacity="0.4" stroke-width="0.05"/>
    <path d="M275.5 184.85 L274.75 184.4 Q275.8 184.0 276.1 184.55 L275.5 184.85 M266.15 189.25 L264.7 188.7 Q265.15 188.15 265.75 188.1 L267.15 188.35 266.25 188.75 266.15 189.25 M266.85 215.75 L266.2 215.4 Q266.55 214.8 267.3 214.7 L267.85 214.7 266.75 215.2 266.85 215.75" fill="#cccccc" fill-rule="evenodd" stroke="none"/>
    <path d="M274.75 184.4 L275.5 184.85 274.15 185.45 Q273.85 185.0 274.75 184.4 M265.8 190.9 L264.5 190.45 Q264.05 189.6 264.5 188.95 L264.7 188.7 266.15 189.25 265.8 190.9 M266.2 215.4 L266.85 215.75 267.2 217.85 266.5 217.45 Q265.7 216.45 266.2 215.4" fill="#666666" fill-rule="evenodd" stroke="none"/>
    <path d="M276.1 184.55 Q275.8 184.0 274.75 184.4 273.85 185.0 274.15 185.45 M264.7 188.7 L264.5 188.95 Q264.05 189.6 264.5 190.45 L265.8 190.9 M264.7 188.7 Q265.15 188.15 265.75 188.1 L267.15 188.35 M266.2 215.4 Q265.7 216.45 266.5 217.45 L267.2 217.85 M267.85 214.7 L267.3 214.7 Q266.55 214.8 266.2 215.4" fill="none" stroke="#000000" stroke-linecap="round" stroke-linejoin="round" stroke-opacity="0.4" stroke-width="0.05"/>
    <path d="M280.2 201.8 L281.55 201.3 281.75 203.7 281.55 203.8 Q280.4 204.05 280.3 203.6 L280.2 201.8" fill="#666666" fill-rule="evenodd" stroke="none"/>
    <path d="M281.75 203.7 L281.55 201.3 282.45 200.95 282.45 202.55 Q282.65 203.15 281.75 203.7" fill="#cccccc" fill-rule="evenodd" stroke="none"/>
    <path d="M280.2 201.8 L280.3 203.6 Q280.4 204.05 281.55 203.8 L281.75 203.7 Q282.65 203.15 282.45 202.55 L282.45 200.95" fill="none" stroke="#000000" stroke-linecap="round" stroke-linejoin="round" stroke-opacity="0.4" stroke-width="0.05"/>
    <path d="M290.9 197.65 L291.1 200.05 290.9 200.15 Q289.75 200.4 289.65 199.95 L289.55 198.15 290.9 197.65" fill="#666666" fill-rule="evenodd" stroke="none"/>
    <path d="M291.8 197.3 L291.8 198.9 Q292.0 199.5 291.1 200.05 L290.9 197.65 291.8 197.3" fill="#cccccc" fill-rule="evenodd" stroke="none"/>
    <path d="M291.1 200.05 Q292.0 199.5 291.8 198.9 L291.8 197.3 M291.1 200.05 L290.9 200.15 Q289.75 200.4 289.65 199.95 L289.55 198.15" fill="none" stroke="#000000" stroke-linecap="round" stroke-linejoin="round" stroke-opacity="0.4" stroke-width="0.05"/>
    <path d="M259.0 199.5 L259.2 201.9 259.0 202.0 Q257.85 202.25 257.75 201.8 L257.65 200.0 259.0 199.5" fill="#666666" fill-rule="evenodd" stroke="none"/>
    <path d="M259.9 199.15 L259.9 200.75 Q260.1 201.35 259.2 201.9 L259.0 199.5 259.9 199.15" fill="#cccccc" fill-rule="evenodd" stroke="none"/>
    <path d="M259.2 201.9 Q260.1 201.35 259.9 200.75 L259.9 199.15 M259.2 201.9 L259.0 202.0 Q257.85 202.25 257.75 201.8 L257.65 200.0" fill="none" stroke="#000000" stroke-linecap="round" stroke-linejoin="round" stroke-opacity="0.4" stroke-width="0.05"/>
    <path d="M263.45 197.75 L264.8 197.25 265.0 199.65 264.8 199.75 Q263.65 200.0 263.55 199.55 L263.45 197.75" fill="#666666" fill-rule="evenodd" stroke="none"/>
    <path d="M265.0 199.65 L264.8 197.25 265.7 196.9 265.7 198.5 Q265.9 199.1 265.0 199.65" fill="#cccccc" fill-rule="evenodd" stroke="none"/>
    <path d="M263.45 197.75 L263.55 199.55 Q263.65 200.0 264.8 199.75 L265.0 199.65 Q265.9 199.1 265.7 198.5 L265.7 196.9" fill="none" stroke="#000000" stroke-linecap="round" stroke-linejoin="round" stroke-opacity="0.4" stroke-width="0.05"/>
    <path d="M287.0 185.25 Q289.9 182.25 291.85 177.35 L291.8 178.8 Q290.7 182.75 288.75 185.3 L287.45 186.65 285.95 187.15 286.05 186.15 287.0 185.25" fill="#dfdfbf" fill-rule="evenodd" stroke="none"/>
    <path d="M285.95 187.15 L287.45 186.65 288.75 185.3 Q290.7 182.75 291.8 178.8 291.45 182.85 290.2 186.35 L289.95 186.95 Q289.85 187.95 288.65 188.55 286.15 188.65 285.95 187.15" fill="#cccc99" fill-rule="evenodd" stroke="none"/>
    <path d="M287.0 185.25 L286.05 186.15 285.95 187.15 Q286.15 188.65 288.65 188.55 289.85 187.95 289.95 186.95 L290.2 186.35 290.45 187.2 Q290.45 188.05 289.65 188.65 288.9 189.25 287.8 189.25 286.7 189.25 285.9 188.65 285.15 188.05 285.15 187.2 285.15 186.35 285.9 185.75 286.4 185.4 287.0 185.25" fill="#000000" fill-opacity="0.2901961" fill-rule="evenodd" stroke="none"/>
    <path d="M291.8 178.8 L291.85 177.35 Q289.9 182.25 287.0 185.25 L286.05 186.15 285.95 187.15 Q286.15 188.65 288.65 188.55 289.85 187.95 289.95 186.95 L290.2 186.35 Q291.45 182.85 291.8 178.8 Z" fill="none" stroke="#000000" stroke-linecap="round" stroke-linejoin="round" stroke-opacity="0.4" stroke-width="0.05"/>
    <path d="M289.35 209.15 Q291.45 212.75 295.7 215.9 L294.35 215.45 Q290.8 213.4 288.85 210.8 L287.85 209.25 287.8 207.65 288.7 208.0 289.35 209.15" fill="#dfdfbf" fill-rule="evenodd" stroke="none"/>
    <path d="M294.35 215.45 Q290.5 214.05 287.45 211.95 L286.95 211.55 Q286.0 211.2 285.7 209.9 286.25 207.4 287.8 207.65 L287.85 209.25 288.85 210.8 Q290.8 213.4 294.35 215.45" fill="#cccc99" fill-rule="evenodd" stroke="none"/>
    <path d="M287.45 211.95 L286.55 212.0 Q285.75 211.75 285.35 210.85 284.95 209.95 285.25 208.9 285.55 207.8 286.35 207.2 287.1 206.65 287.95 206.85 288.75 207.05 289.15 207.95 L289.35 209.15 288.7 208.0 287.8 207.65 Q286.25 207.4 285.7 209.9 286.0 211.2 286.95 211.55 L287.45 211.95" fill="#000000" fill-opacity="0.2901961" fill-rule="evenodd" stroke="none"/>
    <path d="M289.35 209.15 Q291.45 212.75 295.7 215.9 L294.35 215.45 Q290.5 214.05 287.45 211.95 L286.95 211.55 Q286.0 211.2 285.7 209.9 286.25 207.4 287.8 207.65 L288.7 208.0 289.35 209.15 Z" fill="none" stroke="#000000" stroke-linecap="round" stroke-linejoin="round" stroke-opacity="0.4" stroke-width="0.05"/>
    <path d="M284.2 214.0 Q284.4 216.25 285.9 218.7 L285.3 218.2 Q283.85 216.35 283.45 214.7 L283.35 213.75 283.7 212.95 284.15 213.3 284.2 214.0" fill="#dfdfbf" fill-rule="evenodd" stroke="none"/>
    <path d="M283.7 212.95 L283.35 213.75 283.45 214.7 Q283.85 216.35 285.3 218.2 283.5 216.65 282.4 214.95 L282.2 214.65 Q281.8 214.25 281.95 213.6 282.95 212.5 283.7 212.95" fill="#cccc99" fill-rule="evenodd" stroke="none"/>
    <path d="M284.2 214.0 L284.15 213.3 283.7 212.95 Q282.95 212.5 281.95 213.6 281.8 214.25 282.2 214.65 L282.4 214.95 281.9 214.75 Q281.5 214.45 281.5 213.95 281.5 213.45 281.95 213.0 282.4 212.55 283.05 212.4 L284.05 212.6 Q284.45 212.9 284.4 213.4 L284.2 214.0" fill="#000000" fill-opacity="0.2901961" fill-rule="evenodd" stroke="none"/>
    <path d="M285.3 218.2 L285.9 218.7 Q284.4 216.25 284.2 214.0 L284.15 213.3 283.7 212.95 Q282.95 212.5 281.95 213.6 281.8 214.25 282.2 214.65 L282.4 214.95 Q283.5 216.65 285.3 218.2 Z" fill="none" stroke="#000000" stroke-linecap="round" stroke-linejoin="round" stroke-opacity="0.4" stroke-width="0.05"/>
  </g>
</svg>
