<?xml version="1.0" encoding="UTF-8" standalone="no"?>
<svg xmlns:xlink="http://www.w3.org/1999/xlink" height="33.3px" width="12.55px" xmlns="http://www.w3.org/2000/svg">
  <g transform="matrix(1.0, 0.0, 0.0, 1.0, 5.25, 1.9)">
    <path d="M3.0 -1.5 L3.6 -1.85 3.7 -1.9 3.75 -1.9 Q5.7 0.2 5.85 10.35 5.2 17.4 6.55 24.45 L6.7 25.35 7.1 28.4 7.3 29.6 6.45 28.65 4.85 27.95 4.1 28.15 4.1 28.1 Q2.6 30.0 2.75 31.4 L2.35 31.2 -0.35 29.2 -2.75 26.95 -2.85 26.05 Q-3.9 20.35 -3.6 11.85 -3.9 5.5 -5.25 1.25 L-4.6 1.1 Q-3.05 6.25 -3.0 10.9 -3.4 18.95 -2.15 26.5 L-0.4 28.15 2.05 29.75 2.5 29.95 3.75 27.1 Q2.5 23.45 2.4 19.35 3.0 23.4 4.35 26.8 L6.25 27.65 Q4.85 20.15 5.15 10.7 5.15 0.0 3.0 -1.5" fill="#ff9900" fill-rule="evenodd" stroke="none"/>
    <path d="M-4.6 1.1 Q-0.9 0.3 3.0 -1.5 5.15 0.0 5.15 10.7 4.85 20.15 6.25 27.65 L4.35 26.8 Q3.0 23.4 2.4 19.35 2.5 23.45 3.75 27.1 L2.5 29.95 2.05 29.75 -0.4 28.15 -2.15 26.5 Q-3.4 18.95 -3.0 10.9 -3.05 6.25 -4.6 1.1" fill="#bb2626" fill-rule="evenodd" stroke="none"/>
    <path d="M-3.75 12.8 Q-3.5 9.6 -4.25 5.7 L-4.1 5.5 Q-3.05 4.15 -1.9 4.05 -0.8 3.85 -0.2 5.05 0.4 6.25 0.15 8.1 -0.15 9.9 -1.2 11.25 -2.2 12.65 -3.35 12.8 L-3.75 12.8 M5.3 2.9 L5.95 9.9 5.3 10.1 Q4.15 10.15 3.05 9.1 2.0 8.15 1.6 6.5 1.15 4.95 1.65 3.6 2.25 2.4 3.4 2.3 4.35 2.15 5.3 2.9 M0.2 10.95 Q0.1 10.55 0.4 10.15 L1.2 9.55 2.05 9.45 Q2.5 9.5 2.6 9.9 L2.35 10.7 1.6 11.25 0.7 11.4 Q0.3 11.35 0.2 10.95" fill="#000000" fill-opacity="0.8" fill-rule="evenodd" stroke="none"/>
    <path d="M-1.6 8.65 L-2.15 9.0 -2.75 8.8 -2.95 8.2 -2.75 7.5 -2.15 7.2 Q-1.8 7.2 -1.6 7.35 -1.35 7.65 -1.35 8.05 -1.35 8.45 -1.6 8.65" fill="#ffffff" fill-rule="evenodd" stroke="none"/>
    <path d="M4.55 7.05 L4.0 7.4 Q3.65 7.45 3.4 7.2 L3.2 6.6 3.4 5.9 Q3.65 5.65 4.0 5.6 L4.55 5.75 4.8 6.45 4.55 7.05" fill="#ffffff" fill-rule="evenodd" stroke="none"/>
  </g>
</svg>
