<?xml version="1.0" encoding="UTF-8" standalone="no"?>
<svg xmlns:xlink="http://www.w3.org/1999/xlink" height="105.1px" width="87.1px" xmlns="http://www.w3.org/2000/svg">
  <g transform="matrix(1.0, 0.0, 0.0, 1.0, -232.05, -142.75)">
    <path d="M274.35 206.25 L276.75 213.1 276.3 224.35 272.3 218.45 269.1 216.2 Q263.2 219.85 253.75 218.55 253.4 215.05 254.55 210.25 L245.1 211.45 254.05 203.2 257.45 201.75 Q263.25 200.15 269.35 202.45 L274.35 206.25" fill="#8c231d" fill-rule="evenodd" stroke="none"/>
    <path d="M252.75 206.55 Q256.2 203.75 257.45 204.2 258.7 204.7 256.85 208.1 254.9 211.35 251.1 218.1 247.25 224.7 251.35 230.95 255.5 237.15 245.75 237.95 235.95 238.7 238.75 228.6 241.35 218.4 245.3 213.7 249.2 209.1 252.75 206.55" fill="#961f1f" fill-rule="evenodd" stroke="none"/>
    <path d="M269.35 214.3 Q269.25 213.85 269.45 213.6 269.7 213.35 270.0 213.35 L270.65 213.55 271.05 214.15 270.95 214.7 Q270.7 215.0 270.35 215.0 L269.7 214.85 269.35 214.3 M262.8 227.85 Q263.3 228.2 263.4 228.65 263.5 229.25 263.2 229.65 L262.35 230.15 261.4 229.9 Q260.9 229.5 260.75 228.9 260.75 228.35 261.05 228.0 261.3 227.6 261.85 227.55 262.3 227.45 262.8 227.85 M259.5 240.7 Q260.3 241.35 260.45 242.4 260.5 243.4 259.85 244.3 259.15 245.05 258.15 245.2 257.1 245.3 256.3 244.65 255.5 243.9 255.45 242.9 255.3 241.85 255.95 241.05 256.65 240.25 257.65 240.2 258.7 240.05 259.5 240.7 M264.5 241.5 L265.5 241.75 Q266.0 242.1 266.1 242.6 266.2 243.15 265.9 243.6 265.55 244.0 265.05 244.1 L264.1 243.8 Q263.6 243.45 263.5 242.85 263.4 242.3 263.75 242.0 264.0 241.5 264.5 241.5 M252.4 243.25 Q251.1 244.75 249.15 244.95 247.2 245.1 245.7 243.95 244.15 242.6 244.05 240.65 243.8 238.75 245.05 237.25 246.3 235.7 248.3 235.55 250.25 235.3 251.7 236.6 253.2 237.75 253.4 239.85 253.6 241.75 252.4 243.25 M245.0 231.35 Q244.45 230.85 244.35 230.3 244.2 229.75 244.6 229.25 244.9 228.8 245.45 228.8 L246.7 229.05 Q247.15 229.45 247.25 230.1 247.4 230.65 247.1 231.2 246.75 231.6 246.1 231.65 L245.0 231.35" fill="#771a1a" fill-opacity="0.7019608" fill-rule="evenodd" stroke="none"/>
    <path d="M260.1 231.15 Q261.55 232.25 262.0 234.0 262.3 235.7 261.3 237.1 260.3 238.45 258.5 238.65 256.8 238.75 255.3 237.7 253.8 236.6 253.35 234.85 253.05 233.1 254.1 231.75 255.05 230.4 256.85 230.25 258.55 230.0 260.1 231.15" fill="#4f1111" fill-opacity="0.7019608" fill-rule="evenodd" stroke="none"/>
    <path d="M261.6 233.35 Q261.75 233.9 261.3 234.25 L260.25 234.3 259.3 233.25 258.75 231.95 Q258.45 231.5 258.85 231.2 L259.9 231.15 Q260.45 231.35 261.0 232.05 261.5 232.65 261.6 233.35 M260.55 235.4 Q260.95 235.5 261.15 235.9 L260.9 236.6 Q260.6 236.95 260.05 237.1 L259.05 237.0 Q258.55 236.8 258.75 236.3 L258.95 235.7 Q258.95 235.35 259.5 235.3 L260.55 235.4" fill="#ea9999" fill-opacity="0.7019608" fill-rule="evenodd" stroke="none"/>
    <path d="M257.5 204.0 Q258.5 204.4 257.65 206.35 256.8 208.35 254.45 210.85 252.1 213.25 249.8 214.65 247.45 216.05 246.45 215.65 245.35 215.25 246.2 213.3 247.1 211.25 249.4 208.8 251.65 206.4 254.0 204.95 256.45 203.5 257.5 204.0 M241.25 228.25 Q239.9 229.75 238.8 229.9 237.75 230.05 237.6 228.65 237.55 227.2 238.4 225.15 239.25 222.95 240.55 221.5 241.85 219.9 242.95 219.85 244.0 219.7 244.1 221.15 244.25 222.5 243.4 224.65 242.5 226.7 241.25 228.25" fill="#ffffff" fill-opacity="0.6" fill-rule="evenodd" stroke="none"/>
    <path d="M275.5 224.85 Q275.65 226.35 275.3 229.45 L274.25 235.2 Q273.6 237.75 273.0 238.65 272.35 239.45 272.25 237.85 272.05 236.3 272.4 233.4 272.8 230.3 273.45 227.7 274.15 225.0 274.75 224.2 275.3 223.3 275.5 224.85" fill="#ffffff" fill-opacity="0.6" fill-rule="evenodd" stroke="none"/>
    <path d="M270.8 241.9 L270.35 243.0 269.4 244.0 268.45 244.4 Q268.05 244.35 268.1 243.85 268.05 243.45 268.5 242.85 268.9 242.2 269.45 241.85 L270.4 241.5 270.8 241.9" fill="#ffffff" fill-opacity="0.6" fill-rule="evenodd" stroke="none"/>
    <path d="M248.55 245.85 Q239.5 242.15 236.1 234.35 234.0 229.6 240.8 216.15 242.75 213.0 246.9 209.2 L254.1 202.75 Q261.4 197.9 270.15 202.05 276.4 205.15 276.8 210.65 278.75 216.65 275.45 232.0 274.75 243.15 266.2 247.0 258.1 249.2 248.65 245.8 L248.6 245.65 248.55 245.8 248.55 245.85" fill="url(#gradient0)" fill-rule="evenodd" stroke="none"/>
    <path d="M248.55 245.85 Q239.5 242.15 236.1 234.35 234.0 229.6 240.8 216.15 242.75 213.0 246.9 209.2 L254.1 202.75 Q261.4 197.9 270.15 202.05 276.4 205.15 276.8 210.65 278.75 216.65 275.45 232.0 274.75 243.15 266.2 247.0 258.1 249.2 248.65 245.8 L248.6 245.65 248.55 245.8" fill="none" stroke="#a14040" stroke-linecap="round" stroke-linejoin="round" stroke-opacity="0.5019608" stroke-width="0.05"/>
    <path d="M286.05 148.9 L288.2 146.0 289.0 148.1 289.1 149.95 288.9 152.65 Q288.45 155.45 286.8 157.0 284.2 159.55 278.75 158.75 L277.4 157.0 276.5 155.85 Q283.2 156.6 285.5 154.2 286.8 151.6 286.05 148.9 M296.25 151.4 L296.65 150.85 297.7 153.55 297.9 154.1 296.6 154.75 Q297.4 152.75 296.25 151.4 M295.55 158.1 L295.6 158.1 298.15 158.0 297.95 158.4 Q295.35 162.45 292.75 159.7 L293.2 159.6 Q294.8 159.15 295.55 158.1" fill="#fff5e0" fill-rule="evenodd" stroke="none"/>
    <path d="M278.75 158.75 L274.55 157.75 270.95 158.0 270.3 156.9 Q272.1 156.4 276.1 156.85 L277.4 157.0 278.75 158.75 M263.25 160.55 Q257.4 163.95 253.4 171.4 251.55 175.0 250.45 178.45 L249.85 177.7 251.55 173.85 253.95 168.75 256.55 164.8 258.9 161.3 259.65 160.5 Q260.35 159.95 261.35 159.45 L259.55 159.65 Q260.9 158.45 262.4 157.55 L263.25 160.55 M295.2 175.15 L294.2 174.25 Q291.75 172.05 290.1 169.7 L292.1 169.25 292.2 169.35 Q295.2 172.9 296.5 175.25 L295.2 175.15 M287.0 162.8 Q286.45 159.95 286.8 157.0 288.45 155.45 288.9 152.65 L289.1 149.95 Q289.7 148.85 290.4 148.1 L290.4 148.35 Q290.5 149.2 291.85 148.8 292.05 148.7 292.2 148.65 L292.0 150.9 Q290.75 151.95 289.95 154.35 288.95 158.0 289.45 161.25 L287.0 162.8 M295.6 158.1 Q296.2 157.2 296.05 156.05 L296.0 156.0 296.0 155.95 296.6 154.75 297.9 154.1 Q298.35 155.15 299.0 155.25 L298.15 158.0 295.6 158.1" fill="#fee4ab" fill-rule="evenodd" stroke="none"/>
    <path d="M270.3 156.9 L270.95 158.0 268.95 158.4 Q265.9 159.05 263.25 160.55 L262.4 157.55 Q265.6 155.6 269.3 155.2 L270.3 156.9 M250.45 178.45 Q249.75 180.8 249.45 183.0 L248.5 182.35 Q248.85 179.55 249.6 178.2 L249.85 177.7 250.45 178.45 M249.2 188.2 Q249.65 195.75 254.8 202.45 L253.05 202.65 252.4 201.75 249.8 196.85 Q249.1 195.1 248.55 191.8 L248.25 187.85 249.2 188.2 M299.5 187.3 Q299.5 179.7 295.2 175.15 L296.5 175.25 296.5 175.3 Q298.05 178.2 299.7 183.35 300.7 185.8 302.1 186.25 302.4 190.55 301.05 196.1 L300.25 195.5 Q300.95 191.95 300.55 189.35 L299.95 188.0 299.5 187.3 M290.1 169.7 Q287.75 166.4 287.0 162.8 L289.45 161.25 Q289.55 162.4 289.95 163.4 289.25 164.75 289.45 166.0 L292.1 169.25 290.1 169.7 M292.2 148.65 L293.5 148.25 Q294.65 148.6 295.7 149.55 L296.65 150.85 296.25 151.4 Q295.6 150.7 294.55 150.15 293.05 150.0 292.0 150.9 L292.2 148.65 M298.45 204.0 L297.8 205.65 Q295.35 211.4 291.05 214.95 L290.4 213.2 Q294.2 210.2 297.2 204.35 L297.75 203.15 298.45 204.0" fill="#e5c59a" fill-rule="evenodd" stroke="none"/>
    <path d="M249.45 183.0 Q249.05 185.7 249.2 188.2 L248.25 187.85 248.3 184.25 248.5 182.35 249.45 183.0 M254.8 202.45 L257.2 205.2 255.8 205.95 255.4 205.5 253.05 202.65 254.8 202.45 M283.8 218.9 L283.8 216.15 285.55 215.75 Q288.15 215.0 290.4 213.2 L291.05 214.95 Q287.95 217.45 283.8 218.9 M300.25 195.5 L301.05 196.1 Q300.1 199.8 298.45 204.0 L297.75 203.15 Q299.3 199.75 300.1 196.25 L300.25 195.5" fill="#b3946d" fill-rule="evenodd" stroke="none"/>
    <path d="M257.2 205.2 L259.5 207.55 263.85 211.15 274.4 216.65 Q279.2 216.9 283.15 215.6 L283.85 215.45 283.8 216.15 283.8 218.9 Q279.45 220.3 274.05 220.55 L262.05 213.8 Q257.55 210.35 254.4 206.6 L255.8 205.95 257.2 205.2" fill="#a18562" fill-rule="evenodd" stroke="none"/>
    <path d="M286.05 148.9 L285.4 147.4 284.8 146.75 286.0 143.7 Q287.4 144.6 288.2 146.0 L286.05 148.9 M281.5 147.15 L281.4 147.3 Q280.6 148.7 280.7 149.9 L278.75 151.5 Q278.5 150.7 278.4 149.7 278.55 146.25 279.85 144.6 L281.5 147.15 M277.4 157.0 L276.1 156.85 Q272.1 156.4 270.3 156.9 L269.3 155.2 Q270.9 155.0 272.65 155.15 L276.5 155.85 277.4 157.0 M292.2 148.65 Q292.05 148.7 291.85 148.8 290.5 149.2 290.4 148.35 L290.4 148.1 Q291.3 146.95 292.35 146.6 L292.2 148.65 M297.9 154.1 L299.15 153.5 299.0 155.25 Q298.35 155.15 297.9 154.1 M292.3 155.0 L293.25 154.2 Q294.4 153.95 295.8 156.3 L296.0 156.0 296.05 156.05 Q296.2 157.2 295.6 158.1 L295.55 158.1 293.6 158.1 292.3 155.0 M259.55 159.65 L261.35 159.45 Q260.35 159.95 259.65 160.5 L258.9 161.3 256.55 164.8 253.95 168.75 251.55 173.85 249.85 177.7 249.0 176.7 Q249.95 173.75 251.45 170.7 255.05 163.5 259.55 159.65 M298.55 175.3 L296.5 175.25 Q295.2 172.9 292.2 169.35 L292.1 169.25 293.45 168.95 Q296.45 171.85 298.55 175.3" fill="#feecc5" fill-rule="evenodd" stroke="none"/>
    <path d="M286.0 143.7 L284.8 146.75 Q283.0 145.15 281.5 147.15 L279.85 144.6 Q281.1 142.9 283.6 142.85 L286.0 143.7 M280.7 149.9 Q280.75 150.55 281.15 151.15 L280.6 153.2 282.45 152.7 Q283.65 152.35 283.5 149.3 L284.25 150.0 Q285.95 153.5 283.35 155.1 279.9 156.15 278.75 151.5 L280.7 149.9" fill="#fef1d6" fill-rule="evenodd" stroke="none"/>
    <path d="M281.15 151.15 Q281.9 148.2 283.5 149.3 283.65 152.35 282.45 152.7 L280.6 153.2 281.15 151.15 M296.65 150.85 L297.65 149.45 Q299.0 151.35 299.15 153.5 L297.9 154.1 297.7 153.55 296.65 150.85 M292.3 155.0 L293.6 158.1 295.55 158.1 Q294.8 159.15 293.2 159.6 L292.75 159.7 292.5 159.35 Q291.35 156.5 292.3 155.0" fill="#ffffff" fill-rule="evenodd" stroke="none"/>
    <path d="M289.85 211.7 Q294.0 208.05 296.55 201.7 L297.75 203.15 297.2 204.35 Q294.2 210.2 290.4 213.2 L289.85 211.7 M298.75 194.2 Q299.45 190.5 299.5 187.3 L299.95 188.0 300.55 189.35 Q300.95 191.95 300.25 195.5 L298.75 194.2 M292.2 148.65 L292.35 146.6 Q294.2 146.05 296.25 147.75 L297.65 149.45 296.65 150.85 295.7 149.55 Q294.65 148.6 293.5 148.25 L292.2 148.65 M249.0 176.7 L249.85 177.7 249.6 178.2 Q248.85 179.55 248.5 182.35 L247.7 181.75 Q248.15 179.25 249.0 176.7 M247.15 187.4 L248.25 187.85 248.55 191.8 Q249.1 195.1 249.8 196.85 L252.4 201.75 253.05 202.65 251.7 202.85 Q247.15 195.6 247.15 187.4 M302.1 186.25 Q300.7 185.8 299.7 183.35 298.05 178.2 296.5 175.3 L296.5 175.25 298.55 175.3 Q300.55 178.75 301.6 182.9 302.05 184.45 302.1 186.25 M293.45 168.95 L292.1 169.25 289.45 166.0 Q289.25 164.75 289.95 163.4 290.85 166.15 292.9 168.45 L293.45 168.95" fill="#eacbae" fill-rule="evenodd" stroke="none"/>
    <path d="M283.85 215.45 Q287.15 214.15 289.85 211.7 L290.4 213.2 Q288.15 215.0 285.55 215.75 L283.8 216.15 283.85 215.45 M296.55 201.7 L297.35 199.65 298.75 194.2 300.25 195.5 300.1 196.25 Q299.3 199.75 297.75 203.15 L296.55 201.7 M248.5 182.35 L248.3 184.25 248.25 187.85 247.15 187.4 Q247.2 184.65 247.7 181.75 L248.5 182.35 M251.7 202.85 L253.05 202.65 255.4 205.5 255.8 205.95 254.4 206.6 251.7 202.85" fill="#bb9c80" fill-rule="evenodd" stroke="none"/>
    <path d="M284.8 146.75 L285.4 147.4 286.05 148.9 Q286.8 151.6 285.5 154.2 283.2 156.6 276.5 155.85 L272.65 155.15 Q270.9 155.0 269.3 155.2 265.6 155.6 262.4 157.55 260.9 158.45 259.55 159.65 255.05 163.5 251.45 170.7 249.95 173.75 249.0 176.7 248.15 179.25 247.7 181.75 247.2 184.65 247.15 187.4 247.15 195.6 251.7 202.85 L254.4 206.6 Q257.55 210.35 262.05 213.8 L274.05 220.55 Q279.45 220.3 283.8 218.9 287.95 217.45 291.05 214.95 295.35 211.4 297.8 205.65 L298.45 204.0 Q300.1 199.8 301.05 196.1 302.4 190.55 302.1 186.25 302.05 184.45 301.6 182.9 300.55 178.75 298.55 175.3 296.45 171.85 293.45 168.95 L292.9 168.45 Q290.85 166.15 289.95 163.4 289.55 162.4 289.45 161.25 288.95 158.0 289.95 154.35 290.75 151.95 292.0 150.9 293.05 150.0 294.55 150.15 295.6 150.7 296.25 151.4 297.4 152.75 296.6 154.75 L296.0 155.95 296.0 156.0 295.8 156.3 Q294.4 153.95 293.25 154.2 L292.3 155.0 Q291.35 156.5 292.5 159.35 L292.75 159.7 Q295.35 162.45 297.95 158.4 L298.15 158.0 299.0 155.25 299.15 153.5 Q299.0 151.35 297.65 149.45 L296.25 147.75 Q294.2 146.05 292.35 146.6 291.3 146.95 290.4 148.1 289.7 148.85 289.1 149.95 L288.9 152.65 Q288.45 155.45 286.8 157.0 284.2 159.55 278.75 158.75 L274.55 157.75 270.95 158.0 268.95 158.4 Q265.9 159.05 263.25 160.55 257.4 163.95 253.4 171.4 251.55 175.0 250.45 178.45 249.75 180.8 249.45 183.0 249.05 185.7 249.2 188.2 249.65 195.75 254.8 202.45 L257.2 205.2 259.5 207.55 263.85 211.15 274.4 216.65 Q279.2 216.9 283.15 215.6 L283.85 215.45 Q287.15 214.15 289.85 211.7 294.0 208.05 296.55 201.7 L297.35 199.65 298.75 194.2 Q299.45 190.5 299.5 187.3 299.5 179.7 295.2 175.15 L294.2 174.25 Q291.75 172.05 290.1 169.7 287.75 166.4 287.0 162.8 286.45 159.95 286.8 157.0 M288.2 146.0 Q287.4 144.6 286.0 143.7 L283.6 142.85 Q281.1 142.9 279.85 144.6 278.55 146.25 278.4 149.7 278.5 150.7 278.75 151.5 279.9 156.15 283.35 155.1 285.95 153.5 284.25 150.0 L283.5 149.3 Q281.9 148.2 281.15 151.15 280.75 150.55 280.7 149.9 280.6 148.7 281.4 147.3 L281.5 147.15 Q283.0 145.15 284.8 146.75 M289.1 149.95 L289.0 148.1 288.2 146.0" fill="none" stroke="#000000" stroke-linecap="round" stroke-linejoin="round" stroke-opacity="0.4" stroke-width="0.2"/>
    <path d="M250.55 154.5 L250.6 151.15 252.25 151.2 253.35 151.8 254.65 153.1 Q255.75 154.75 255.35 157.0 254.8 160.65 250.3 165.95 L248.4 166.6 247.15 167.0 Q252.5 160.45 252.95 157.2 252.5 154.8 250.55 154.5" fill="#fff5e0" fill-rule="evenodd" stroke="none"/>
    <path d="M243.15 173.75 Q244.2 171.7 247.4 167.8 L248.4 166.6 250.3 165.95 246.7 169.8 244.25 173.5 243.15 173.75 M236.65 185.8 Q237.0 183.95 237.65 182.1 L239.85 182.4 Q237.35 189.7 238.3 196.8 238.8 200.15 239.8 202.65 L239.0 202.95 238.25 199.7 237.3 195.2 237.15 191.0 237.1 187.15 Q236.9 187.1 237.15 186.05 L237.9 183.85 236.65 185.8" fill="#fee4ab" fill-rule="evenodd" stroke="none"/>
    <path d="M241.55 174.1 L243.15 173.75 244.25 173.5 242.95 175.75 Q241.05 179.1 239.85 182.4 L237.65 182.1 Q239.05 178.0 241.55 174.1 M239.0 202.95 L239.8 202.65 241.5 205.5 240.45 206.15 Q239.25 204.7 239.05 203.45 L239.0 202.95 M243.1 208.7 L244.05 207.85 Q248.3 210.45 255.65 207.85 L254.45 209.75 253.5 210.05 249.0 210.65 Q247.6 210.75 245.45 209.95 244.25 209.5 243.1 208.7" fill="#e5c59a" fill-rule="evenodd" stroke="none"/>
    <path d="M240.45 206.15 L241.5 205.5 Q242.55 207.0 244.05 207.85 L243.1 208.7 241.3 207.15 240.45 206.15 M258.2 208.3 L257.65 208.5 254.45 209.75 255.65 207.85 258.85 206.6 258.2 208.3" fill="#b3946d" fill-rule="evenodd" stroke="none"/>
    <path d="M257.5 209.95 L258.2 208.3 258.85 206.6 261.8 205.15 Q264.25 203.9 266.9 202.15 L269.6 200.0 270.35 202.5 266.9 205.15 Q261.85 208.25 257.5 209.95" fill="#a18562" fill-rule="evenodd" stroke="none"/>
    <path d="M248.5 154.9 L247.8 152.5 Q249.3 151.35 250.6 151.15 L250.55 154.5 249.25 154.55 248.5 154.9 M243.7 159.05 L246.3 158.4 246.3 158.6 Q246.4 160.0 247.15 160.3 L246.5 163.0 245.35 162.6 Q243.6 161.1 243.7 159.05 M241.55 174.1 Q242.6 172.35 243.95 170.7 L247.15 167.0 248.4 166.6 247.4 167.8 Q244.2 171.7 243.15 173.75 L241.55 174.1 M236.65 185.8 L237.9 183.85 237.15 186.05 Q236.9 187.1 237.1 187.15 L237.15 191.0 237.3 195.2 238.25 199.7 239.0 202.95 237.85 203.4 Q237.0 201.25 236.45 198.5 235.4 191.95 236.65 185.8" fill="#feecc5" fill-rule="evenodd" stroke="none"/>
    <path d="M248.5 154.9 Q246.4 156.05 246.3 158.4 L243.7 159.05 Q243.8 157.1 245.6 154.55 L247.8 152.5 248.5 154.9 M247.15 160.3 L248.1 160.4 248.8 161.75 249.85 159.65 Q250.65 158.3 248.9 157.25 L249.8 156.8 Q252.85 156.5 251.8 159.75 249.8 163.7 246.5 163.0 L247.15 160.3" fill="#fef1d6" fill-rule="evenodd" stroke="none"/>
    <path d="M248.1 160.4 Q247.15 158.45 248.9 157.25 250.65 158.3 249.85 159.65 L248.8 161.75 248.1 160.4" fill="#ffffff" fill-rule="evenodd" stroke="none"/>
    <path d="M237.85 203.4 L239.0 202.95 239.05 203.45 Q239.25 204.7 240.45 206.15 L239.55 206.75 237.85 203.4 M242.1 209.55 L243.1 208.7 Q244.25 209.5 245.45 209.95 247.6 210.75 249.0 210.65 L253.5 210.05 254.45 209.75 253.55 211.2 Q246.4 212.95 242.1 209.55" fill="#eacbae" fill-rule="evenodd" stroke="none"/>
    <path d="M240.45 206.15 L241.3 207.15 243.1 208.7 242.1 209.55 Q240.7 208.45 239.55 206.75 L240.45 206.15 M253.55 211.2 L254.45 209.75 257.65 208.5 258.2 208.3 257.5 209.95 253.55 211.2" fill="#bb9c80" fill-rule="evenodd" stroke="none"/>
    <path d="M246.3 158.4 Q246.4 156.05 248.5 154.9 L249.25 154.55 250.55 154.5 Q252.5 154.8 252.95 157.2 252.5 160.45 247.15 167.0 L243.95 170.7 Q242.6 172.35 241.55 174.1 239.05 178.0 237.65 182.1 237.0 183.95 236.65 185.8 235.4 191.95 236.45 198.5 237.0 201.25 237.85 203.4 L239.55 206.75 Q240.7 208.45 242.1 209.55 246.4 212.95 253.55 211.2 L257.5 209.95 Q261.85 208.25 266.9 205.15 L270.35 202.5 M247.8 152.5 L245.6 154.55 Q243.8 157.1 243.7 159.05 243.6 161.1 245.35 162.6 L246.5 163.0 Q249.8 163.7 251.8 159.75 252.85 156.5 249.8 156.8 L248.9 157.25 Q247.15 158.45 248.1 160.4 L247.15 160.3 Q246.4 160.0 246.3 158.6 L246.3 158.4 M250.6 151.15 Q249.3 151.35 247.8 152.5 M244.25 173.5 L246.7 169.8 250.3 165.95 Q254.8 160.65 255.35 157.0 255.75 154.75 254.65 153.1 L253.35 151.8 252.25 151.2 250.6 151.15 M239.85 182.4 Q241.05 179.1 242.95 175.75 L244.25 173.5 M239.8 202.65 Q238.8 200.15 238.3 196.8 237.35 189.7 239.85 182.4 M241.5 205.5 L239.8 202.65 M244.05 207.85 Q242.55 207.0 241.5 205.5 M255.65 207.85 Q248.3 210.45 244.05 207.85 M258.85 206.6 L255.65 207.85 M258.85 206.6 L261.8 205.15 Q264.25 203.9 266.9 202.15 L269.6 200.0" fill="none" stroke="#000000" stroke-linecap="round" stroke-linejoin="round" stroke-opacity="0.4" stroke-width="0.2"/>
    <path d="M315.15 180.0 L317.3 177.45 Q316.75 176.7 315.9 176.35 L314.7 176.05 312.8 176.15 Q310.85 176.65 309.65 178.55 307.65 181.6 307.7 188.55 L308.8 190.35 309.55 191.5 Q309.6 183.05 311.45 180.35 313.4 178.85 315.15 180.0" fill="#fff5e0" fill-rule="evenodd" stroke="none"/>
    <path d="M308.25 199.2 Q308.75 197.0 308.8 191.95 L308.8 190.35 307.7 188.55 308.05 193.85 307.6 198.3 308.25 199.2 M307.15 209.15 L305.15 207.85 Q302.3 214.95 296.85 219.5 294.2 221.7 291.75 222.85 L292.2 223.65 295.0 221.7 298.65 219.05 301.6 216.05 304.25 213.25 304.85 212.4 305.75 210.3 Q305.45 211.8 305.45 212.6 L307.15 209.15" fill="#fee4ab" fill-rule="evenodd" stroke="none"/>
    <path d="M309.3 200.6 L308.25 199.2 307.6 198.3 307.1 200.85 Q306.4 204.6 305.15 207.85 L307.15 209.15 Q308.7 205.2 309.3 200.6 M292.2 223.65 L291.75 222.85 Q290.1 223.6 288.55 223.85 L288.9 225.0 Q290.9 224.75 291.85 223.9 L292.2 223.65 M285.15 225.05 L284.95 223.85 Q279.85 222.85 275.75 215.95 L275.4 218.2 276.0 219.0 279.1 222.55 Q280.25 223.55 282.45 224.45 L285.15 225.05" fill="#e5c59a" fill-rule="evenodd" stroke="none"/>
    <path d="M288.9 225.0 L288.55 223.85 Q286.7 224.2 284.95 223.85 L285.15 225.05 287.6 225.15 288.9 225.0 M275.4 218.2 L275.75 215.95 274.0 212.8 273.4 214.5 273.7 215.05 275.4 218.2" fill="#b3946d" fill-rule="evenodd" stroke="none"/>
    <path d="M273.4 214.5 L274.0 212.8 272.65 209.75 270.6 204.05 269.85 200.65 267.6 202.0 268.6 206.25 Q270.55 212.05 272.85 216.2 L273.4 214.5" fill="#a18562" fill-rule="evenodd" stroke="none"/>
    <path d="M316.5 181.7 L318.65 180.35 Q318.2 178.5 317.3 177.45 L315.15 180.0 316.1 180.9 316.5 181.7 M317.55 188.0 L315.9 185.75 315.8 185.85 Q314.8 186.85 313.95 186.6 L312.7 188.95 313.9 189.5 Q316.3 189.55 317.55 188.0 M309.3 200.6 L309.65 196.4 309.55 191.5 308.8 190.35 308.8 191.95 Q308.75 197.0 308.25 199.2 L309.3 200.6 M305.45 212.6 Q305.45 211.8 305.75 210.3 L304.85 212.4 304.25 213.25 301.6 216.05 298.65 219.05 295.0 221.7 292.2 223.65 292.8 224.75 297.15 222.1 Q302.4 218.0 305.45 212.6" fill="#feecc5" fill-rule="evenodd" stroke="none"/>
    <path d="M316.5 181.7 Q317.4 184.0 315.9 185.75 L317.55 188.0 Q318.8 186.5 319.05 183.35 L318.65 180.35 316.5 181.7 M313.95 186.6 Q313.55 186.5 313.15 186.0 L311.7 186.5 312.2 184.25 Q312.55 182.7 314.6 183.15 L314.2 182.15 Q311.95 179.85 310.6 183.0 309.65 187.2 312.7 188.95 L313.95 186.6" fill="#fef1d6" fill-rule="evenodd" stroke="none"/>
    <path d="M313.15 186.0 Q315.2 185.25 314.6 183.15 312.55 182.7 312.2 184.25 L311.7 186.5 313.15 186.0" fill="#ffffff" fill-rule="evenodd" stroke="none"/>
    <path d="M292.8 224.75 L292.2 223.65 291.85 223.9 Q290.9 224.75 288.9 225.0 L289.25 226.1 Q291.0 225.65 292.8 224.75 M285.35 226.4 L285.15 225.05 282.45 224.45 Q280.25 223.55 279.1 222.55 L276.0 219.0 275.4 218.2 275.15 219.85 Q279.75 225.95 285.35 226.4" fill="#eacbae" fill-rule="evenodd" stroke="none"/>
    <path d="M288.9 225.0 L287.6 225.15 285.15 225.05 285.35 226.4 289.25 226.1 288.9 225.0 M275.15 219.85 L275.4 218.2 273.7 215.05 273.4 214.5 272.85 216.2 275.15 219.85" fill="#bb9c80" fill-rule="evenodd" stroke="none"/>
    <path d="M315.9 185.75 Q317.4 184.0 316.5 181.7 L316.1 180.9 315.15 180.0 Q313.4 178.85 311.45 180.35 309.6 183.05 309.55 191.5 L309.65 196.4 309.3 200.6 Q308.7 205.2 307.15 209.15 L305.45 212.6 Q302.4 218.0 297.15 222.1 L292.8 224.75 Q291.0 225.65 289.25 226.1 L285.35 226.4 Q279.75 225.95 275.15 219.85 L272.85 216.2 Q270.55 212.05 268.6 206.25 L267.6 202.0 M318.65 180.35 L319.05 183.35 Q318.8 186.5 317.55 188.0 316.3 189.55 313.9 189.5 L312.7 188.95 Q309.65 187.2 310.6 183.0 311.95 179.85 314.2 182.15 L314.6 183.15 Q315.2 185.25 313.15 186.0 313.55 186.5 313.95 186.6 314.8 186.85 315.8 185.85 L315.9 185.75 M317.3 177.45 Q318.2 178.5 318.65 180.35 M307.6 198.3 L308.05 193.85 307.7 188.55 Q307.65 181.6 309.65 178.55 310.85 176.65 312.8 176.15 L314.7 176.05 315.9 176.35 Q316.75 176.7 317.3 177.45 M305.15 207.85 Q306.4 204.6 307.1 200.85 L307.6 198.3 M291.75 222.85 Q294.2 221.7 296.85 219.5 302.3 214.95 305.15 207.85 M288.55 223.85 Q290.1 223.6 291.75 222.85 M284.95 223.85 Q286.7 224.2 288.55 223.85 M274.0 212.8 L275.75 215.95 Q279.85 222.85 284.95 223.85 M269.85 200.65 L270.6 204.05 272.65 209.75 274.0 212.8" fill="none" stroke="#000000" stroke-linecap="round" stroke-linejoin="round" stroke-opacity="0.4" stroke-width="0.2"/>
    <path d="M239.35 187.35 Q238.5 188.2 237.6 189.5 L236.35 191.5 233.7 190.75 235.9 188.0 238.05 186.0 239.35 187.35 M305.25 201.75 L305.95 202.45 Q308.0 204.8 308.0 209.0 308.0 211.6 307.45 214.1 L307.3 214.1 305.5 214.3 305.85 212.55 Q306.55 207.65 305.75 205.6 L304.95 204.3 305.25 201.75" fill="#fff5e0" fill-rule="evenodd" stroke="none"/>
    <path d="M236.35 191.5 Q235.3 193.45 235.3 194.65 235.3 195.1 235.85 195.65 L233.3 197.05 233.15 197.15 Q232.15 196.2 232.15 194.6 232.15 192.95 233.7 190.75 L236.35 191.5 M247.5 193.75 L247.25 192.95 247.0 191.7 Q250.05 190.45 251.75 190.45 252.8 190.45 253.6 191.15 254.4 191.85 254.4 192.7 L254.25 193.6 252.15 193.85 252.15 193.75 Q252.15 192.85 250.65 192.85 249.15 192.85 247.5 193.75 M241.7 194.65 L243.55 195.8 244.15 196.15 242.35 197.9 241.8 198.5 Q244.95 198.4 247.0 197.7 L247.4 197.55 247.8 199.05 247.9 199.3 Q244.75 200.5 242.5 200.75 L239.95 200.75 241.8 198.5 239.95 200.75 Q238.8 202.4 238.15 203.95 L235.5 203.25 234.9 203.1 234.9 203.05 Q237.45 198.25 240.35 195.7 L241.7 194.65 M305.5 214.3 L307.3 214.1 307.45 214.1 Q306.7 217.25 305.05 220.35 L304.4 221.45 304.0 221.25 302.1 220.25 302.65 219.75 Q304.65 217.85 305.5 214.3 M295.7 225.95 L294.95 227.15 294.0 228.5 291.8 226.95 292.0 226.7 293.0 225.35 293.6 224.45 293.65 224.3 Q294.1 223.4 294.75 219.9 L295.2 216.1 296.55 215.65 297.85 215.15 297.9 217.45 Q297.9 220.3 297.05 222.95 L295.7 225.95 M286.95 206.5 L287.4 207.15 289.05 208.9 288.9 210.6 289.0 212.35 Q287.8 213.75 285.85 214.4 285.55 214.1 285.55 211.3 285.55 208.9 286.85 206.7 L286.95 206.5 M290.9 218.1 Q291.9 220.35 293.35 221.95 L291.15 223.05 Q289.55 221.5 288.3 219.5 L290.9 218.1" fill="#e5c59a" fill-rule="evenodd" stroke="none"/>
    <path d="M238.05 186.0 Q240.8 183.75 243.2 183.75 244.8 183.75 245.7 184.95 246.4 185.85 246.4 187.0 246.4 188.75 245.1 189.9 244.1 190.75 243.15 190.75 241.95 190.75 241.35 190.1 240.85 189.5 240.85 188.55 240.85 187.0 241.85 186.5 L243.05 186.3 Q244.15 186.3 244.3 187.7 L244.4 187.9 Q244.8 187.5 244.8 186.9 244.8 186.25 244.2 185.9 L242.95 185.65 Q241.15 185.65 239.35 187.35 L238.05 186.0 M252.15 193.85 L254.25 193.6 253.4 195.25 251.65 197.5 250.9 195.6 251.85 194.6 252.15 193.85 M305.25 201.75 L304.95 204.3 Q304.2 203.55 303.1 203.55 L301.85 203.75 Q301.45 204.0 301.2 204.8 L301.55 204.5 302.0 204.4 303.15 204.8 Q303.95 205.35 303.95 206.35 L303.65 208.0 Q303.05 209.15 301.3 209.15 300.5 209.15 299.8 208.15 299.0 207.0 299.0 205.15 299.0 203.55 299.9 202.25 301.0 200.65 302.8 200.65 304.0 200.65 305.25 201.75 M304.4 221.45 Q301.9 225.45 298.9 226.15 L298.9 222.3 Q300.65 221.55 302.1 220.25 L304.0 221.25 304.4 221.45" fill="#fee4ab" fill-rule="evenodd" stroke="none"/>
    <path d="M247.0 191.7 L247.25 192.95 247.5 193.75 Q245.9 194.55 244.15 196.15 L243.55 195.8 241.7 194.65 Q244.05 192.85 247.0 191.7 M294.0 228.5 Q290.7 232.45 285.65 233.0 L285.25 231.1 Q286.1 231.05 287.75 230.15 L290.6 228.35 291.8 226.95 294.0 228.5 M279.05 232.6 L277.2 231.85 Q276.0 231.15 274.55 229.4 L275.55 226.35 275.8 226.8 Q277.2 228.95 279.5 230.05 L279.35 230.65 279.05 232.6 M297.85 215.15 L296.55 215.65 295.2 216.1 295.05 213.1 Q294.65 210.1 293.4 208.45 292.15 206.8 291.4 206.7 L289.95 206.75 Q289.3 206.9 289.1 208.15 L289.05 208.9 287.4 207.15 286.95 206.5 Q288.45 204.0 290.8 204.0 293.75 204.0 295.75 207.4 297.5 210.35 297.85 215.15 M249.85 213.8 L249.25 216.4 249.25 216.45 242.85 217.35 239.15 217.1 242.05 214.3 242.55 213.8 246.15 214.2 249.85 213.8 M232.8 211.9 Q232.55 210.85 232.55 209.55 232.55 207.45 234.85 203.1 L234.9 203.1 235.5 203.25 238.15 203.95 Q237.4 205.85 237.4 207.65 237.4 208.9 237.8 209.95 L232.9 211.85 232.8 211.9" fill="#b3946d" fill-rule="evenodd" stroke="none"/>
    <path d="M235.85 195.65 L236.2 196.0 236.5 198.8 233.3 197.3 233.15 197.15 233.3 197.05 235.85 195.65 M298.9 226.15 L297.65 226.25 296.35 226.1 295.7 225.95 297.05 222.95 298.9 222.3 298.9 226.15 M285.65 233.0 L283.9 233.1 279.05 232.6 279.35 230.65 279.5 230.05 Q281.85 231.1 285.1 231.1 L285.25 231.1 285.65 233.0 M274.55 229.4 L272.8 227.05 Q271.25 224.8 270.2 219.95 269.55 217.25 269.45 215.6 L272.25 215.6 272.25 215.65 Q273.85 223.45 275.55 226.35 L274.55 229.4 M293.65 224.3 L293.6 224.45 293.0 225.35 292.25 225.0 293.65 224.3 M288.3 219.5 L287.15 217.4 290.05 215.7 Q290.4 217.0 290.9 218.1 L288.3 219.5 M249.85 213.8 L253.55 212.55 Q256.35 211.35 256.85 210.65 L256.85 210.55 259.15 211.25 Q258.0 212.8 253.4 214.85 L249.25 216.4 249.85 213.8 M239.15 217.1 Q236.2 216.6 234.6 215.2 233.25 214.0 232.8 211.9 L232.9 211.85 237.8 209.95 Q238.25 211.25 239.35 212.25 240.65 213.3 242.55 213.8 L242.05 214.3 239.15 217.1 M247.9 199.3 L247.8 199.05 247.4 197.55 248.75 196.8 249.45 198.7 247.9 199.3" fill="#a18260" fill-rule="evenodd" stroke="none"/>
    <path d="M238.05 186.0 Q240.8 183.75 243.2 183.75 244.8 183.75 245.7 184.95 246.4 185.85 246.4 187.0 246.4 188.75 245.1 189.9 244.1 190.75 243.15 190.75 241.95 190.75 241.35 190.1 240.85 189.5 240.85 188.55 240.85 187.0 241.85 186.5 L243.05 186.3 Q244.15 186.3 244.3 187.7 L244.4 187.9 Q244.8 187.5 244.8 186.9 244.8 186.25 244.2 185.9 L242.95 185.65 Q241.15 185.65 239.35 187.35 238.5 188.2 237.6 189.5 L236.35 191.5 Q235.3 193.45 235.3 194.65 235.3 195.1 235.85 195.65 L236.2 196.0 236.5 198.8 233.3 197.3 233.15 197.15 Q232.15 196.2 232.15 194.6 232.15 192.95 233.7 190.75 L235.9 188.0 238.05 186.0 M247.5 193.75 Q249.15 192.85 250.65 192.85 252.15 192.85 252.15 193.75 L252.15 193.85 251.85 194.6 250.9 195.6 251.65 197.5 253.4 195.25 254.25 193.6 254.4 192.7 Q254.4 191.85 253.6 191.15 252.8 190.45 251.75 190.45 250.05 190.45 247.0 191.7 244.05 192.85 241.7 194.65 L240.35 195.7 Q237.45 198.25 234.9 203.05 L234.85 203.1 Q232.55 207.45 232.55 209.55 232.55 210.85 232.8 211.9 233.25 214.0 234.6 215.2 236.2 216.6 239.15 217.1 L242.85 217.35 249.25 216.45 249.25 216.4 253.4 214.85 Q258.0 212.8 259.15 211.25 L256.85 210.55 256.85 210.65 Q256.35 211.35 253.55 212.55 L249.85 213.8 246.15 214.2 242.55 213.8 Q240.65 213.3 239.35 212.25 238.25 211.25 237.8 209.95 237.4 208.9 237.4 207.65 237.4 205.85 238.15 203.95 238.8 202.4 239.95 200.75 L242.5 200.75 Q244.75 200.5 247.9 199.3 L249.45 198.7 248.75 196.8 247.4 197.55 247.0 197.7 Q244.95 198.4 241.8 198.5 L239.95 200.75 M244.15 196.15 Q245.9 194.55 247.5 193.75 M307.45 214.1 Q308.0 211.6 308.0 209.0 308.0 204.8 305.95 202.45 L305.25 201.75 Q304.0 200.65 302.8 200.65 301.0 200.65 299.9 202.25 299.0 203.55 299.0 205.15 299.0 207.0 299.8 208.15 300.5 209.15 301.3 209.15 303.05 209.15 303.65 208.0 L303.95 206.35 Q303.95 205.35 303.15 204.8 L302.0 204.4 301.55 204.5 301.2 204.8 Q301.45 204.0 301.85 203.75 L303.1 203.55 Q304.2 203.55 304.95 204.3 L305.75 205.6 Q306.55 207.65 305.85 212.55 L305.5 214.3 Q304.65 217.85 302.65 219.75 L302.1 220.25 Q300.65 221.55 298.9 222.3 L297.05 222.95 Q297.9 220.3 297.9 217.45 L297.85 215.15 Q297.5 210.35 295.75 207.4 293.75 204.0 290.8 204.0 288.45 204.0 286.95 206.5 L286.85 206.7 Q285.55 208.9 285.55 211.3 285.55 214.1 285.85 214.4 287.8 213.75 289.0 212.35 L288.9 210.6 289.05 208.9 289.1 208.15 Q289.3 206.9 289.95 206.75 L291.4 206.7 Q292.15 206.8 293.4 208.45 294.65 210.1 295.05 213.1 L295.2 216.1 294.75 219.9 Q294.1 223.4 293.65 224.3 L293.6 224.45 293.0 225.35 292.0 226.7 291.8 226.95 290.6 228.35 287.75 230.15 Q286.1 231.05 285.25 231.1 L285.1 231.1 Q281.85 231.1 279.5 230.05 277.2 228.95 275.8 226.8 L275.55 226.35 Q273.85 223.45 272.25 215.65 L272.25 215.6 269.45 215.6 268.75 215.6 M307.45 214.1 Q306.7 217.25 305.05 220.35 L304.4 221.45 Q301.9 225.45 298.9 226.15 L297.65 226.25 296.35 226.1 295.7 225.95 294.95 227.15 294.0 228.5 Q290.7 232.45 285.65 233.0 L283.9 233.1 279.05 232.6 277.2 231.85 Q276.0 231.15 274.55 229.4 L272.8 227.05 Q271.25 224.8 270.2 219.95 269.55 217.25 269.45 215.6 L269.45 214.2 M295.7 225.95 L297.05 222.95 M288.3 219.5 L287.15 217.4 290.05 215.7 Q290.4 217.0 290.9 218.1 291.9 220.35 293.35 221.95 L291.15 223.05 Q289.55 221.5 288.3 219.5 M293.65 224.3 L292.25 225.0 293.0 225.35 M244.15 196.15 L242.35 197.9 241.8 198.5" fill="none" stroke="#000000" stroke-linecap="round" stroke-linejoin="round" stroke-opacity="0.3882353" stroke-width="0.2"/>
  </g>
  <defs>
    <linearGradient gradientTransform="matrix(0.0091, -0.0202, 0.0221, 0.0099, 258.5, 224.8)" gradientUnits="userSpaceOnUse" id="gradient0" spreadMethod="pad" x1="-819.2" x2="819.2">
      <stop offset="0.06666666666666667" stop-color="#65d8f3" stop-opacity="0.7019608"/>
      <stop offset="0.5137254901960784" stop-color="#87d6f2" stop-opacity="0.7019608"/>
      <stop offset="1.0" stop-color="#d5ebf5" stop-opacity="0.6509804"/>
    </linearGradient>
  </defs>
</svg>
