<?xml version="1.0" encoding="UTF-8" standalone="no"?>
<svg xmlns:xlink="http://www.w3.org/1999/xlink" height="76.6px" width="72.55px" xmlns="http://www.w3.org/2000/svg">
  <g transform="matrix(1.0, 0.0, 0.0, 1.0, -239.3, -162.15)">
    <path d="M287.0 169.4 L286.15 170.95 Q284.6 172.2 283.1 170.75 L283.0 170.65 284.45 167.6 Q287.05 164.05 290.1 163.85 L295.4 167.25 294.3 168.7 292.7 168.7 288.65 167.25 284.7 169.4 287.0 169.4 M295.9 168.7 L297.65 168.45 299.4 173.15 297.65 174.95 295.9 171.55 Q294.95 169.65 295.9 168.7 M300.3 175.6 L301.65 175.8 303.9 180.4 310.1 186.3 310.25 189.85 306.55 185.45 Q307.95 188.55 307.5 191.3 L307.5 198.4 Q305.8 205.35 301.3 207.2 L297.5 206.5 297.05 203.15 294.85 207.5 293.55 203.95 299.3 200.9 302.5 188.65 299.65 183.25 297.65 182.0 Q295.7 180.7 296.85 178.05 L300.3 175.6 M282.2 185.65 L282.2 185.7 282.9 182.7 286.9 185.9 286.75 187.7 283.05 191.05 Q281.3 192.05 279.95 190.3 L278.9 184.15 277.45 189.25 274.6 186.3 Q272.55 180.1 266.3 178.85 263.0 179.15 260.15 180.45 L257.0 179.9 260.05 177.4 Q264.55 174.85 270.3 175.4 276.0 176.95 279.5 180.65 L281.5 188.35 282.2 185.65 M291.35 187.3 L295.75 189.85 Q298.35 193.05 298.15 196.6 296.3 197.25 296.0 194.7 L294.7 189.95 294.1 193.9 Q292.3 195.25 291.35 190.3 L291.35 187.3 M295.15 199.25 L292.7 200.75 Q286.85 202.6 284.95 199.25 L286.9 194.6 287.6 194.1 295.15 199.25 M284.8 196.15 L283.15 197.45 Q281.2 197.05 281.2 195.45 L285.5 193.65 284.8 196.15 M286.65 206.75 L290.1 204.8 292.9 206.0 293.85 210.55 293.85 213.0 Q291.2 215.25 288.0 213.85 L285.05 210.55 285.8 209.75 287.05 206.6 286.65 206.75 M279.2 213.45 Q280.3 215.9 283.65 217.5 L284.0 217.65 284.6 220.6 281.6 223.35 279.55 223.35 279.0 223.0 277.1 221.85 277.45 220.6 277.1 221.85 Q277.4 226.15 274.6 226.45 L270.1 225.95 266.6 222.3 Q272.35 218.75 277.45 220.6 L277.75 219.3 Q279.3 216.55 279.2 213.45 M253.5 192.1 L255.5 186.75 255.85 186.3 Q258.3 182.9 261.8 182.65 L268.7 183.7 Q273.45 184.4 274.55 192.8 275.45 198.05 279.05 201.15 L287.05 205.5 283.6 207.9 282.65 208.25 277.8 208.25 Q274.35 207.55 273.05 205.05 L272.15 198.45 272.95 192.6 Q271.1 197.9 268.05 200.8 265.8 203.25 262.6 204.1 L254.25 203.3 Q250.95 201.1 250.8 197.6 L250.25 200.15 Q249.45 205.4 258.35 207.45 L259.3 209.15 Q256.9 214.9 252.25 217.05 L247.4 218.25 Q243.65 216.35 242.5 213.15 L243.1 209.7 Q246.9 213.95 252.05 212.8 254.85 212.0 255.7 209.2 L250.45 208.45 Q247.25 206.85 245.65 204.1 242.65 198.8 243.2 192.7 L244.15 189.35 Q246.7 184.85 249.25 184.3 L255.65 183.35 253.85 185.05 252.75 186.25 Q248.05 191.95 253.85 195.9 262.2 200.5 268.3 195.9 271.2 190.4 265.7 188.7 L262.85 188.15 262.35 188.3 258.65 189.25 Q263.7 189.0 266.8 191.0 266.8 191.95 266.15 192.8 265.2 195.05 260.8 195.1 255.3 195.2 253.5 192.1 M268.0 225.75 L268.3 227.55 264.0 230.0 260.0 227.05 Q257.75 225.1 257.95 222.65 L259.6 218.4 268.0 225.75" fill="#835500" fill-rule="evenodd" stroke="none"/>
    <path d="M282.3 169.75 L283.0 170.65 283.1 170.75 Q284.6 172.2 286.15 170.95 L287.0 169.4 289.9 169.35 287.0 169.4 284.7 169.4 288.65 167.25 292.7 168.7 294.3 168.7 295.9 168.7 Q294.95 169.65 295.9 171.55 L297.65 174.95 298.2 176.05 300.3 175.6 296.85 178.05 Q295.7 180.7 297.65 182.0 L299.65 183.25 Q299.95 186.2 299.85 188.8 L295.45 183.25 Q291.2 178.9 295.45 176.65 295.9 169.85 289.9 169.35 287.5 170.6 286.4 174.2 282.4 175.15 281.6 171.2 L282.3 169.75 M310.1 186.3 L310.05 185.0 Q313.05 191.05 311.1 195.3 308.8 204.45 305.0 209.05 305.55 215.35 301.45 217.0 L297.85 218.5 294.25 220.0 290.4 219.5 Q286.55 218.8 284.0 217.65 286.55 218.8 290.4 219.5 L294.25 220.0 297.85 218.5 Q300.2 222.0 297.85 225.5 L297.6 225.9 Q293.35 231.6 289.15 230.6 L287.65 234.5 Q282.55 238.95 277.45 234.5 L273.8 238.15 263.9 235.7 266.55 232.7 Q268.35 229.9 268.3 227.55 268.35 229.9 266.55 232.7 L263.9 235.7 261.15 238.75 Q250.95 238.9 247.6 232.1 L247.6 223.45 Q245.45 222.6 243.0 220.6 237.15 212.2 240.6 206.15 238.25 201.05 243.0 188.7 243.65 186.1 245.5 184.5 L244.15 189.35 243.2 192.7 Q242.65 198.8 245.65 204.1 247.25 206.85 250.45 208.45 L255.7 209.2 Q254.85 212.0 252.05 212.8 246.9 213.95 243.1 209.7 L242.5 213.15 Q243.65 216.35 247.4 218.25 L252.25 217.05 Q256.9 214.9 259.3 209.15 260.85 212.75 259.3 216.4 L260.1 217.2 259.6 218.4 257.95 222.65 Q257.75 225.1 260.0 227.05 L264.0 230.0 268.3 227.55 268.0 225.75 Q267.3 223.95 265.35 222.45 L266.05 221.75 266.6 222.3 270.1 225.95 274.6 226.45 Q277.4 226.15 277.1 221.85 L279.0 223.0 279.55 223.35 281.6 223.35 284.6 220.6 284.0 217.65 283.65 217.5 Q280.3 215.9 279.2 213.45 L279.2 213.4 Q282.6 212.95 285.05 210.55 282.6 212.95 279.2 213.4 L278.25 213.45 Q275.15 213.55 271.35 212.2 L266.2 206.15 261.1 207.95 258.35 207.45 Q249.45 205.4 250.25 200.15 L250.8 197.6 Q250.95 201.1 254.25 203.3 L262.6 204.1 Q265.8 203.25 268.05 200.8 271.1 197.9 272.95 192.6 L272.15 198.45 273.05 205.05 Q274.35 207.55 277.8 208.25 L282.65 208.25 283.6 207.9 286.65 206.75 287.05 206.6 285.8 209.75 285.05 210.55 288.0 213.85 Q291.2 215.25 293.85 213.0 L293.85 210.55 292.9 206.0 294.65 207.85 294.85 207.5 297.05 203.15 297.5 206.5 301.3 207.2 Q305.8 205.35 307.5 198.4 L307.5 191.3 Q307.95 188.55 306.55 185.45 L310.25 189.85 310.1 186.3 M283.2 181.5 L282.9 182.7 282.2 185.7 282.2 185.65 Q281.95 182.45 280.85 180.15 L283.2 181.5 M286.9 185.9 L287.0 184.5 288.5 186.25 291.35 186.25 291.35 187.3 291.35 190.3 Q292.3 195.25 294.1 193.9 L294.7 189.95 296.0 194.7 Q296.3 197.25 298.15 196.6 L298.65 196.4 298.35 197.2 297.25 199.55 296.05 198.65 297.25 199.55 Q292.85 204.75 286.4 203.75 281.15 201.35 278.3 197.15 279.85 195.25 281.4 194.15 279.85 195.25 278.3 197.15 275.55 193.15 274.95 187.5 L274.6 186.3 277.45 189.25 278.9 184.15 279.95 190.3 Q281.3 192.05 283.05 191.05 L286.75 187.7 286.9 185.9 M257.0 179.9 L260.15 180.45 Q259.05 180.95 258.0 181.6 255.45 181.45 253.35 181.65 254.65 179.95 256.2 178.65 256.25 179.4 256.95 179.85 L257.0 179.9 M290.05 194.15 Q291.05 189.9 288.5 186.25 291.05 189.9 290.05 194.15 285.75 191.0 281.4 194.15 281.15 194.85 281.2 195.45 281.2 197.05 283.15 197.45 L284.8 196.15 286.95 194.45 286.9 194.6 284.95 199.25 Q286.85 202.6 292.7 200.75 L295.15 199.25 296.05 198.65 290.05 194.15 M295.45 208.55 Q299.35 217.25 305.0 209.05 299.35 217.25 295.45 208.55 M281.0 230.9 L277.45 234.5 281.0 230.9 M281.6 227.3 Q282.1 225.35 279.55 223.35 282.1 225.35 281.6 227.3 M290.4 219.5 L290.65 226.7 289.15 230.6 290.65 226.7 290.4 219.5 M266.8 191.0 Q266.7 189.9 265.7 188.7 271.2 190.4 268.3 195.9 262.2 200.5 253.85 195.9 248.05 191.95 252.75 186.25 252.25 189.95 253.5 192.1 255.3 195.2 260.8 195.1 265.2 195.05 266.15 192.8 266.8 191.95 266.8 191.0 M271.35 204.35 L266.2 206.15 271.35 204.35 M247.6 223.45 Q251.1 224.8 253.85 223.05 L259.3 216.4 253.85 223.05 Q251.1 224.8 247.6 223.45 M243.1 209.7 Q241.75 208.25 240.6 206.15 241.75 208.25 243.1 209.7" fill="#603500" fill-rule="evenodd" stroke="none"/>
    <path d="M283.0 170.65 L282.3 169.75 Q285.95 162.25 290.6 162.15 L299.05 168.2 304.5 179.05 308.7 182.65 310.05 185.0 310.1 186.3 303.9 180.4 301.65 175.8 300.3 175.6 298.2 176.05 297.65 174.95 299.4 173.15 297.65 168.45 295.9 168.7 294.3 168.7 295.4 167.25 290.1 163.85 Q287.05 164.05 284.45 167.6 L283.0 170.65 M282.9 182.7 L283.2 181.5 Q285.45 182.95 287.0 184.5 L286.9 185.9 282.9 182.7 M280.85 180.15 Q281.95 182.45 282.2 185.65 L281.5 188.35 279.5 180.65 Q276.0 176.95 270.3 175.4 264.55 174.85 260.05 177.4 L257.0 179.9 256.95 179.85 Q256.25 179.4 256.2 178.65 260.4 174.9 265.95 173.65 277.4 173.1 280.85 180.15 M260.15 180.45 Q263.0 179.15 266.3 178.85 272.55 180.1 274.6 186.3 L274.95 187.5 Q275.55 193.15 278.3 197.15 281.15 201.35 286.4 203.75 292.85 204.75 297.25 199.55 L298.35 197.2 298.65 196.4 298.15 196.6 Q298.35 193.05 295.75 189.85 L291.35 187.3 291.35 186.25 292.45 186.25 Q298.15 189.35 299.1 194.8 299.75 192.1 299.85 188.8 299.95 186.2 299.65 183.25 L302.5 188.65 299.3 200.9 293.55 203.95 294.85 207.5 294.65 207.85 292.9 206.0 290.1 204.8 286.65 206.75 283.6 207.9 287.05 205.5 279.05 201.15 Q275.45 198.05 274.55 192.8 273.45 184.4 268.7 183.7 L261.8 182.65 Q258.3 182.9 255.85 186.3 L255.5 186.75 253.5 192.1 Q252.25 189.95 252.75 186.25 L253.85 185.05 255.65 183.35 249.25 184.3 Q246.7 184.85 244.15 189.35 L245.5 184.5 Q248.15 182.05 253.35 181.65 255.45 181.45 258.0 181.6 259.05 180.95 260.15 180.45 M299.1 194.8 L298.65 196.4 299.1 194.8 M290.05 194.15 L296.05 198.65 295.15 199.25 287.6 194.1 286.9 194.6 286.95 194.45 284.8 196.15 285.5 193.65 281.2 195.45 Q281.15 194.85 281.4 194.15 285.75 191.0 290.05 194.15 M271.8 218.7 Q274.5 218.25 277.75 219.3 L277.45 220.6 Q272.35 218.75 266.6 222.3 L266.05 221.75 Q268.5 219.15 271.8 218.7 M262.35 188.3 L262.85 188.15 265.7 188.7 Q266.7 189.9 266.8 191.0 263.7 189.0 258.65 189.25 L262.35 188.3 M259.6 218.4 L260.1 217.2 265.35 222.45 Q267.3 223.95 268.0 225.75 L259.6 218.4 M258.0 181.6 L255.65 183.35 258.0 181.6" fill="#996600" fill-rule="evenodd" stroke="none"/>
    <path d="M278.25 213.45 L279.2 213.4 279.2 213.45 Q279.3 216.55 277.75 219.3 274.5 218.25 271.8 218.7 272.2 217.6 272.0 216.65 272.2 217.6 271.8 218.7 268.5 219.15 266.05 221.75 L265.35 222.45 260.1 217.2 259.3 216.4 Q260.85 212.75 259.3 209.15 L258.35 207.45 261.1 207.95 266.2 206.15 Q267.2 209.35 265.35 212.9 265.7 216.55 272.0 216.65 275.6 216.45 278.25 213.45" fill="#3c2100" fill-rule="evenodd" stroke="none"/>
    <path d="M282.3 169.75 L281.6 171.2 Q282.4 175.15 286.4 174.2 287.5 170.6 289.9 169.35 L287.0 169.4 M310.05 185.0 L308.7 182.65 304.5 179.05 299.05 168.2 290.6 162.15 Q285.95 162.25 282.3 169.75 M283.2 181.5 L280.85 180.15 Q281.95 182.45 282.2 185.65 L282.2 185.7 M287.0 184.5 Q285.45 182.95 283.2 181.5 M260.15 180.45 Q263.0 179.15 266.3 178.85 272.55 180.1 274.6 186.3 L274.95 187.5 Q275.55 193.15 278.3 197.15 281.15 201.35 286.4 203.75 292.85 204.75 297.25 199.55 L298.35 197.2 298.65 196.4 299.1 194.8 Q299.75 192.1 299.85 188.8 299.95 186.2 299.65 183.25 M299.85 188.8 L295.45 183.25 Q291.2 178.9 295.45 176.65 295.9 169.85 289.9 169.35 M291.35 186.25 L292.45 186.25 Q298.15 189.35 299.1 194.8 M287.0 184.5 L288.5 186.25 291.35 186.25 M288.5 186.25 Q291.05 189.9 290.05 194.15 L296.05 198.65 297.25 199.55 M281.4 194.15 Q279.85 195.25 278.3 197.15 M285.05 210.55 Q282.6 212.95 279.2 213.4 L278.25 213.45 Q275.15 213.55 271.35 212.2 L266.2 206.15 Q267.2 209.35 265.35 212.9 265.7 216.55 272.0 216.65 272.2 217.6 271.8 218.7 274.5 218.25 277.75 219.3 279.3 216.55 279.2 213.45 L279.2 213.4 M279.2 213.45 Q280.3 215.9 283.65 217.5 M284.0 217.65 Q286.55 218.8 290.4 219.5 L294.25 220.0 297.85 218.5 301.45 217.0 Q305.55 215.35 305.0 209.05 299.35 217.25 295.45 208.55 M285.8 209.75 L285.05 210.55 M277.45 220.6 L277.75 219.3 277.45 220.6 277.1 221.85 279.0 223.0 M268.0 225.75 L268.3 227.55 Q268.35 229.9 266.55 232.7 L263.9 235.7 273.8 238.15 277.45 234.5 281.0 230.9 M279.55 223.35 Q282.1 225.35 281.6 227.3 M289.15 230.6 L290.65 226.7 290.4 219.5 M297.85 218.5 Q300.2 222.0 297.85 225.5 L297.6 225.9 Q293.35 231.6 289.15 230.6 L287.65 234.5 Q282.55 238.95 277.45 234.5 M290.05 194.15 Q285.75 191.0 281.4 194.15 M310.05 185.0 Q313.05 191.05 311.1 195.3 308.8 204.45 305.0 209.05 M253.35 181.65 Q254.65 179.95 256.2 178.65 260.4 174.9 265.95 173.65 277.4 173.1 280.85 180.15 M253.35 181.65 Q255.45 181.45 258.0 181.6 259.05 180.95 260.15 180.45 M265.7 188.7 L262.85 188.15 262.35 188.3 M265.7 188.7 Q271.2 190.4 268.3 195.9 262.2 200.5 253.85 195.9 248.05 191.95 252.75 186.25 L253.85 185.05 255.65 183.35 258.0 181.6 M252.05 212.8 Q246.9 213.95 243.1 209.7 241.75 208.25 240.6 206.15 238.25 201.05 243.0 188.7 243.65 186.1 245.5 184.5 248.15 182.05 253.35 181.65 M259.3 209.15 L258.35 207.45 Q249.45 205.4 250.25 200.15 M258.35 207.45 L261.1 207.95 266.2 206.15 271.35 204.35 M263.9 235.7 L261.15 238.75 Q250.95 238.9 247.6 232.1 L247.6 223.45 Q245.45 222.6 243.0 220.6 237.15 212.2 240.6 206.15 M268.0 225.75 Q267.3 223.95 265.35 222.45 L260.1 217.2 259.3 216.4 253.85 223.05 Q251.1 224.8 247.6 223.45 M259.3 209.15 Q260.85 212.75 259.3 216.4 M266.05 221.75 L265.35 222.45 M271.8 218.7 Q268.5 219.15 266.05 221.75" fill="none" stroke="#000000" stroke-linecap="round" stroke-linejoin="round" stroke-opacity="0.4" stroke-width="0.05"/>
  </g>
</svg>
