<?xml version="1.0" encoding="UTF-8" standalone="no"?>
<svg xmlns:xlink="http://www.w3.org/1999/xlink" height="63.15px" width="57.45px" xmlns="http://www.w3.org/2000/svg">
  <g transform="matrix(1.0, 0.0, 0.0, 1.0, 28.7, 31.6)">
    <path d="M23.65 -27.1 Q21.45 -29.5 17.1 -30.1 12.75 -30.35 10.75 -28.25 L9.15 -26.0 7.65 -27.5 7.8 -27.65 Q11.4 -31.6 16.5 -31.6 L18.0 -31.5 Q21.8 -31.05 24.7 -28.15 L23.65 -27.1" fill="url(#gradient0)" fill-rule="evenodd" stroke="none"/>
    <path d="M23.65 -27.1 L22.6 -26.0 Q20.45 -28.1 17.65 -28.45 L16.5 -28.5 Q12.55 -28.5 9.8 -25.45 L9.75 -25.4 9.15 -26.0 10.75 -28.25 Q12.75 -30.35 17.1 -30.1 21.45 -29.5 23.65 -27.1" fill="url(#gradient1)" fill-rule="evenodd" stroke="none"/>
    <path d="M24.7 -11.45 L24.15 -12.0 Q25.9 -14.65 25.9 -18.1 25.9 -21.5 24.2 -24.1 L25.25 -25.2 Q28.45 -20.2 27.05 -15.5 26.3 -12.95 24.7 -11.45" fill="url(#gradient2)" fill-rule="evenodd" stroke="none"/>
    <path d="M25.25 -25.2 L26.3 -26.25 Q28.75 -22.75 28.75 -18.05 28.75 -15.9 28.25 -13.95 L25.55 -10.65 24.7 -11.45 Q26.3 -12.95 27.05 -15.5 28.45 -20.2 25.25 -25.2" fill="url(#gradient3)" fill-rule="evenodd" stroke="none"/>
    <path d="M5.85 -24.95 L6.2 -25.5 8.35 -23.45 Q7.0 -21.05 7.05 -18.1 7.0 -16.3 7.5 -14.75 8.05 -12.95 9.2 -11.45 L7.6 -10.0 Q7.25 -9.1 7.65 -8.5 L8.65 -7.85 10.7 -9.85 Q12.5 -8.3 14.7 -7.85 L16.5 -7.65 Q19.95 -7.7 22.55 -10.15 L23.65 -9.1 Q17.9 -5.05 12.75 -6.5 8.7 -5.65 15.2 -3.65 15.8 -4.05 16.65 -4.35 19.4 1.65 18.7 8.05 14.85 15.7 10.55 14.65 11.0 12.25 11.0 9.65 11.0 0.5 5.2 -5.9 -0.65 -12.3 -8.85 -12.3 -11.75 -12.3 -14.4 -11.5 L-6.2 -15.5 4.3 -15.9 4.35 -15.85 Q4.6 -15.35 4.3 -13.95 L4.25 -13.75 4.3 -13.75 Q4.5 -8.6 5.8 -10.35 5.05 -16.25 5.85 -24.95" fill="url(#gradient4)" fill-rule="evenodd" stroke="none"/>
    <path d="M4.35 -15.85 L4.35 -15.9 Q4.15 -16.95 4.2 -18.05 4.15 -21.9 5.85 -24.95 5.05 -16.25 5.8 -10.35 4.5 -8.6 4.3 -13.75 L4.3 -13.95 Q4.6 -15.35 4.35 -15.85" fill="url(#gradient5)" fill-rule="evenodd" stroke="none"/>
    <path d="M7.5 -14.75 L10.55 -12.7 9.2 -11.45 Q8.05 -12.95 7.5 -14.75 M10.7 -9.85 L12.15 -11.2 13.65 -9.35 14.7 -7.85 Q12.5 -8.3 10.7 -9.85" fill="#e2e2e2" fill-rule="evenodd" stroke="none"/>
    <path d="M2.9 27.3 Q-2.2 31.55 -8.85 31.55 -17.05 31.55 -22.85 25.15 L-22.85 25.1 -24.7 22.85 Q-28.7 17.15 -28.7 9.65 -28.7 0.5 -22.85 -5.9 -19.55 -9.55 -15.45 -11.1 L-14.4 -11.5 Q-11.75 -12.3 -8.85 -12.3 -0.65 -12.3 5.2 -5.9 11.0 0.5 11.0 9.65 11.0 12.25 10.55 14.65 9.3 20.55 5.2 25.1 L2.9 27.3 M3.9 20.7 Q7.45 15.9 7.45 9.45 7.45 1.95 2.65 -3.35 -1.4 -7.8 -6.85 -8.45 L-8.9 -8.6 Q-12.85 -8.6 -16.1 -6.8 -18.45 -5.55 -20.45 -3.35 L-22.9 0.1 Q-25.15 4.05 -25.25 9.05 L-25.25 9.45 -25.0 12.65 Q-24.75 14.6 -24.05 16.35 -22.85 19.55 -20.45 22.2 -15.65 27.5 -8.9 27.5 -5.2 27.5 -2.1 25.95 0.2 24.75 2.2 22.75 L2.65 22.2 3.9 20.7" fill="url(#gradient6)" fill-rule="evenodd" stroke="none"/>
    <path d="M23.65 -9.1 L24.75 -8.05 Q21.3 -4.5 16.6 -4.45 L16.65 -4.35 Q15.8 -4.05 15.2 -3.65 8.7 -5.65 12.75 -6.5 17.9 -5.05 23.65 -9.1" fill="url(#gradient7)" fill-rule="evenodd" stroke="none"/>
    <path d="M3.9 20.7 L2.65 22.2 2.2 22.75 -2.7 22.55 Q-3.1 23.15 -0.85 24.05 L-4.35 24.1 -4.4 24.1 Q-6.1 25.3 -2.1 25.95 -5.2 27.5 -8.9 27.5 -15.65 27.5 -20.45 22.2 -22.85 19.55 -24.05 16.35 -20.25 17.6 -20.25 16.3 -19.7 14.85 -22.1 14.2 -19.25 13.85 -19.6 12.9 -19.4 11.55 -21.45 12.05 -18.55 10.2 -19.25 9.55 -20.2 8.0 -22.65 10.05 -20.1 7.8 -20.9 6.7 -22.9 5.15 -25.25 9.05 -25.15 4.05 -22.9 0.1 -21.95 4.35 -20.7 5.25 -19.7 5.1 -20.35 2.65 L-18.45 4.45 Q-17.0 5.85 -16.5 5.1 -16.25 4.6 -17.35 3.4 L-17.8 2.6 -16.7 3.4 Q-14.2 5.2 -13.75 4.15 -13.85 7.9 -12.25 12.25 L-10.95 14.85 Q-14.95 12.8 -16.35 13.05 -18.5 13.25 -14.5 16.55 -18.95 14.15 -18.95 15.35 -18.65 16.75 -15.15 19.3 -19.05 18.55 -20.4 19.35 -21.75 20.1 -12.65 22.45 -15.35 23.15 -14.9 23.75 -13.3 25.1 -7.8 22.0 -9.45 23.85 -8.5 24.45 -6.7 24.45 -3.6 20.9 L3.9 20.7 M-16.1 -6.8 Q-12.85 -8.6 -8.9 -8.6 L-6.85 -8.45 Q-9.3 -6.6 -10.9 -4.4 L-14.05 -4.65 Q-10.25 -5.55 -12.0 -6.3 L-16.1 -6.8" fill="url(#gradient8)" fill-rule="evenodd" stroke="none"/>
    <path d="M18.7 8.05 Q18.15 12.95 15.5 18.1 L2.9 27.3 5.2 25.1 Q9.3 20.55 10.55 14.65 14.85 15.7 18.7 8.05" fill="url(#gradient9)" fill-rule="evenodd" stroke="none"/>
  </g>
  <defs>
    <linearGradient gradientTransform="matrix(0.0044, -0.0025, 0.0027, 0.0048, 14.55, -27.05)" gradientUnits="userSpaceOnUse" id="gradient0" spreadMethod="pad" x1="-819.2" x2="819.2">
      <stop offset="0.0" stop-color="#e2e2e2"/>
      <stop offset="0.9882352941176471" stop-color="#f2f2f2"/>
    </linearGradient>
    <linearGradient gradientTransform="matrix(-0.0044, -0.0012, 0.001, -0.0039, 16.65, -26.95)" gradientUnits="userSpaceOnUse" id="gradient1" spreadMethod="pad" x1="-819.2" x2="819.2">
      <stop offset="0.0" stop-color="#999999"/>
      <stop offset="0.9882352941176471" stop-color="#bebebe"/>
    </linearGradient>
    <linearGradient gradientTransform="matrix(0.0, -0.0063, 0.002, 0.0, 25.8, -20.55)" gradientUnits="userSpaceOnUse" id="gradient2" spreadMethod="pad" x1="-819.2" x2="819.2">
      <stop offset="0.0" stop-color="#999999"/>
      <stop offset="0.9882352941176471" stop-color="#bebebe"/>
    </linearGradient>
    <linearGradient gradientTransform="matrix(0.0, -0.0073, 0.0025, 0.0, 26.7, -22.4)" gradientUnits="userSpaceOnUse" id="gradient3" spreadMethod="pad" x1="-819.2" x2="819.2">
      <stop offset="0.0" stop-color="#e2e2e2"/>
      <stop offset="0.9882352941176471" stop-color="#f2f2f2"/>
    </linearGradient>
    <linearGradient gradientTransform="matrix(-0.0068, -0.0118, 0.0168, -0.0097, 10.15, -0.65)" gradientUnits="userSpaceOnUse" id="gradient4" spreadMethod="pad" x1="-819.2" x2="819.2">
      <stop offset="0.0" stop-color="#e2e2e2"/>
      <stop offset="0.9882352941176471" stop-color="#f2f2f2"/>
    </linearGradient>
    <linearGradient gradientTransform="matrix(0.0, -0.0056, 0.001, 0.0, 5.0, -16.3)" gradientUnits="userSpaceOnUse" id="gradient5" spreadMethod="pad" x1="-819.2" x2="819.2">
      <stop offset="0.0" stop-color="#999999"/>
      <stop offset="0.9882352941176471" stop-color="#bebebe"/>
    </linearGradient>
    <linearGradient gradientTransform="matrix(0.0102, 0.0234, -0.0227, 0.0099, -8.55, 10.35)" gradientUnits="userSpaceOnUse" id="gradient6" spreadMethod="pad" x1="-819.2" x2="819.2">
      <stop offset="0.0" stop-color="#ffffff"/>
      <stop offset="0.9882352941176471" stop-color="#e7e7e7"/>
    </linearGradient>
    <linearGradient gradientTransform="matrix(-0.0059, 0.0016, -5.0E-4, -0.002, 18.05, -6.15)" gradientUnits="userSpaceOnUse" id="gradient7" spreadMethod="pad" x1="-819.2" x2="819.2">
      <stop offset="0.0" stop-color="#999999"/>
      <stop offset="0.9882352941176471" stop-color="#bebebe"/>
    </linearGradient>
    <linearGradient gradientTransform="matrix(0.0, -0.0036, 0.0112, 0.0, -16.05, -1.7)" gradientUnits="userSpaceOnUse" id="gradient8" spreadMethod="pad" x1="-819.2" x2="819.2">
      <stop offset="0.0" stop-color="#999999"/>
      <stop offset="0.9882352941176471" stop-color="#666666"/>
    </linearGradient>
    <linearGradient gradientTransform="matrix(0.0011, -0.0043, 0.0062, 0.0016, 11.65, 14.85)" gradientUnits="userSpaceOnUse" id="gradient9" spreadMethod="pad" x1="-819.2" x2="819.2">
      <stop offset="0.0" stop-color="#999999"/>
      <stop offset="0.9882352941176471" stop-color="#bebebe"/>
    </linearGradient>
  </defs>
</svg>
