<?xml version="1.0" encoding="UTF-8" standalone="no"?>
<svg xmlns:xlink="http://www.w3.org/1999/xlink" height="112.9px" width="104.8px" xmlns="http://www.w3.org/2000/svg">
  <g transform="matrix(1.0, 0.0, 0.0, 1.0, -223.05, -144.0)">
    <path d="M267.9 180.15 Q267.25 179.05 269.35 176.45 280.85 176.9 294.8 174.15 311.1 170.05 320.55 161.15 324.85 156.65 323.5 154.3 322.95 153.35 321.5 152.75 314.35 153.0 315.75 150.9 321.75 149.35 325.7 151.4 330.95 154.05 321.8 164.0 312.6 173.9 294.3 178.05 280.0 181.0 267.9 180.15 M258.5 186.05 Q258.95 186.65 260.0 187.15 L261.65 186.75 262.55 185.9 262.2 184.2 Q264.8 183.9 268.8 186.2 271.15 189.2 271.85 194.15 L269.8 190.25 268.75 191.0 Q255.9 192.45 255.4 185.0 256.65 184.05 258.05 183.55 L258.25 185.15 258.5 186.05 M250.85 200.8 L250.75 200.25 250.65 199.1 250.65 199.05 250.55 198.25 Q250.45 196.0 250.6 194.05 L250.7 192.9 Q250.85 191.4 251.15 190.1 L252.25 188.3 254.15 188.9 255.35 190.3 Q253.15 192.65 254.55 196.95 254.4 197.55 254.4 198.2 254.4 200.7 256.1 202.45 256.25 206.3 253.1 206.3 251.8 204.45 251.2 202.15 L250.85 200.8 M255.15 178.85 Q232.95 174.4 224.5 161.15 220.95 155.05 227.75 149.25 234.1 144.25 241.4 144.25 245.2 146.45 249.7 148.25 249.9 149.3 247.0 149.05 245.85 149.0 240.95 147.0 L237.8 147.85 Q222.7 152.3 227.4 159.5 236.2 171.9 255.75 175.0 252.9 176.9 255.15 178.85" fill="#ba5e01" fill-rule="evenodd" stroke="none"/>
    <path d="M269.35 176.45 Q267.25 179.05 267.9 180.15 L266.3 180.05 264.35 179.85 261.8 179.45 Q261.85 177.3 262.55 175.85 L264.15 176.05 266.8 176.3 269.35 176.45 M271.85 194.15 L272.1 196.45 272.15 197.9 272.1 198.65 Q271.9 201.25 271.35 203.3 L271.0 204.35 270.3 206.05 Q269.05 208.55 267.05 209.9 265.45 210.9 263.4 211.2 L259.15 211.0 Q256.7 210.0 255.0 208.45 L253.85 207.3 253.1 206.3 Q256.25 206.3 256.1 202.45 L256.2 202.55 Q258.0 204.35 260.55 204.35 263.1 204.35 264.9 202.55 266.7 200.75 266.7 198.2 L266.7 197.55 Q267.85 195.45 267.6 191.7 L268.75 191.0 269.8 190.25 271.85 194.15 M258.0 179.35 L255.15 178.85 Q252.9 176.9 255.75 175.0 L258.6 175.35 258.1 177.9 258.0 179.35" fill="#663300" fill-rule="evenodd" stroke="none"/>
    <path d="M315.75 150.9 Q314.35 153.0 321.5 152.75 322.95 153.35 323.5 154.3 320.4 152.4 311.35 155.55 302.25 158.65 280.65 157.75 256.25 155.75 242.9 149.15 240.2 147.8 237.8 147.85 L240.95 147.0 Q245.85 149.0 247.0 149.05 249.9 149.3 249.7 148.25 262.65 153.3 281.4 154.55 302.1 156.2 311.25 152.45 313.6 151.45 315.75 150.9 M266.8 176.3 L264.15 176.05 263.55 174.4 Q262.95 175.0 262.55 175.85 261.85 177.3 261.8 179.45 L261.85 181.6 262.2 184.2 262.55 185.9 261.65 186.75 260.0 187.15 Q258.95 186.65 258.5 186.05 260.85 187.15 259.95 178.95 259.55 174.35 262.5 172.4 265.2 173.35 266.0 172.4 267.4 173.8 266.8 176.3 M264.35 179.85 L266.3 180.05 265.35 183.2 263.7 182.35 264.35 179.85" fill="#a95401" fill-rule="evenodd" stroke="none"/>
    <path d="M266.0 172.4 Q265.2 173.35 262.5 172.4 259.55 174.35 259.95 178.95 260.85 187.15 258.5 186.05 L258.25 185.15 258.05 183.55 257.95 182.1 257.95 182.05 257.95 181.6 257.95 182.05 257.95 182.1 258.05 183.55 Q256.65 184.05 255.4 185.0 255.9 192.45 268.75 191.0 L267.6 191.7 Q265.75 192.7 264.0 193.1 260.95 193.8 258.3 192.45 256.75 191.7 255.35 190.3 L254.15 188.9 252.25 188.3 251.15 190.1 Q252.65 183.35 257.95 181.6 257.9 180.5 258.0 179.35 L258.1 177.9 258.6 175.35 Q259.8 170.5 263.05 171.0 265.0 171.45 266.0 172.4 M262.2 184.2 L261.85 181.6 263.7 182.35 265.35 183.2 Q267.35 184.35 268.8 186.2 264.8 183.9 262.2 184.2 M272.1 198.65 L272.15 197.9 272.15 198.0 272.1 198.65" fill="#e37302" fill-rule="evenodd" stroke="none"/>
    <path d="M264.15 176.05 L262.55 175.85 Q262.95 175.0 263.55 174.4 L264.15 176.05 M261.8 179.45 L264.35 179.85 263.7 182.35 261.85 181.6 261.8 179.45 M267.6 191.7 Q267.85 195.45 266.7 197.55 L266.15 195.6 Q265.7 194.65 264.9 193.85 L264.0 193.1 Q265.75 192.7 267.6 191.7 M255.35 190.3 Q256.75 191.7 258.3 192.45 257.15 192.9 256.2 193.85 L256.0 194.05 Q254.85 195.35 254.55 196.95 253.15 192.65 255.35 190.3" fill="#3c1e00" fill-rule="evenodd" stroke="none"/>
    <path d="M266.7 197.55 L266.7 198.2 Q266.7 200.75 264.9 202.55 263.1 204.35 260.55 204.35 258.0 204.35 256.2 202.55 L256.1 202.45 Q254.4 200.7 254.4 198.2 254.4 197.55 254.55 196.95 254.85 195.35 256.0 194.05 L258.3 195.45 258.1 195.6 Q257.25 196.45 257.25 197.65 257.25 198.85 258.1 199.7 258.95 200.55 260.15 200.55 261.35 200.55 262.2 199.7 263.05 198.85 263.05 197.65 263.05 196.85 262.7 196.25 L266.15 195.6 266.7 197.55" fill="#ffffff" fill-rule="evenodd" stroke="none"/>
    <path d="M262.7 196.25 Q263.05 196.85 263.05 197.65 263.05 198.85 262.2 199.7 261.35 200.55 260.15 200.55 258.95 200.55 258.1 199.7 257.25 198.85 257.25 197.65 257.25 196.45 258.1 195.6 L258.3 195.45 Q260.35 196.35 262.7 196.25" fill="#990000" fill-rule="evenodd" stroke="none"/>
    <path d="M258.3 192.45 Q260.95 193.8 264.0 193.1 L264.9 193.85 Q265.7 194.65 266.15 195.6 L262.7 196.25 262.2 195.6 Q261.35 194.75 260.15 194.75 259.05 194.75 258.3 195.45 L256.0 194.05 256.2 193.85 Q257.15 192.9 258.3 192.45" fill="#cccccc" fill-rule="evenodd" stroke="none"/>
    <path d="M258.3 195.45 Q259.05 194.75 260.15 194.75 261.35 194.75 262.2 195.6 L262.7 196.25 Q260.35 196.35 258.3 195.45" fill="#660000" fill-rule="evenodd" stroke="none"/>
    <path d="M272.1 196.45 Q277.6 199.35 277.55 208.75 275.5 204.7 271.0 204.35 275.15 213.7 270.65 220.75 269.9 215.55 266.7 211.25 L267.05 209.9 Q269.95 212.65 271.0 217.25 272.7 211.85 270.3 206.05 L271.0 204.35 271.35 203.3 Q274.25 203.75 276.25 205.15 275.15 200.65 272.1 198.65 L272.15 198.0 272.15 197.9 272.1 196.45 M253.1 206.3 L253.85 207.3 Q249.9 207.85 247.4 211.15 246.7 204.9 251.2 202.15 251.8 204.45 253.1 206.3 M250.65 199.05 L250.65 199.1 Q247.05 198.6 244.0 200.65 245.3 194.8 250.6 194.05 250.45 196.0 250.55 198.25 L250.65 199.05 M254.95 213.0 L257.9 214.85 256.15 214.55 257.9 214.85 262.3 215.6 261.7 217.9 257.05 236.25 254.65 245.1 254.95 213.0 M256.8 217.0 L261.7 217.9 256.8 217.0 M254.95 212.5 L254.95 210.65 263.05 212.55 262.8 213.65 254.95 212.5 M260.65 220.0 L258.05 219.35 260.65 220.0" fill="#5fc2b8" fill-rule="evenodd" stroke="none"/>
    <path d="M266.7 211.25 L255.4 253.9 253.85 256.65 253.85 208.5 Q248.95 209.5 246.15 215.0 244.95 204.05 250.85 200.8 L251.2 202.15 Q246.7 204.9 247.4 211.15 249.9 207.85 253.85 207.3 L255.0 208.45 254.95 210.65 254.95 212.5 254.95 213.0 254.65 245.1 257.05 236.25 261.7 217.9 262.3 215.6 262.8 213.65 263.05 212.55 263.4 211.2 Q265.45 210.9 267.05 209.9 L266.7 211.25 M250.75 200.25 Q246.0 199.6 242.15 204.0 242.35 194.3 250.7 192.9 L250.6 194.05 Q245.3 194.8 244.0 200.65 247.05 198.6 250.65 199.1 L250.75 200.25 M253.85 208.5 L253.85 207.3 253.85 208.5" fill="#91d5cd" fill-rule="evenodd" stroke="none"/>
    <path d="M255.0 208.45 Q256.7 210.0 259.15 211.0 L263.4 211.2 263.05 212.55 254.95 210.65 255.0 208.45 M267.05 209.9 Q269.05 208.55 270.3 206.05 272.7 211.85 271.0 217.25 269.95 212.65 267.05 209.9 M271.35 203.3 Q271.9 201.25 272.1 198.65 275.15 200.65 276.25 205.15 274.25 203.75 271.35 203.3 M257.9 214.85 L254.95 213.0 254.95 212.5 262.8 213.65 262.3 215.6 257.9 214.85" fill="#318279" fill-rule="evenodd" stroke="none"/>
    <path d="M267.9 180.15 Q280.0 181.0 294.3 178.05 312.6 173.9 321.8 164.0 330.95 154.05 325.7 151.4 321.75 149.35 315.75 150.9 313.6 151.45 311.25 152.45 302.1 156.2 281.4 154.55 262.65 153.3 249.7 148.25 245.2 146.45 241.4 144.25 234.1 144.25 227.75 149.25 220.95 155.05 224.5 161.15 232.95 174.4 255.15 178.85 L258.0 179.35 Q257.9 180.5 257.95 181.6 L257.95 182.05 257.95 182.1 258.05 183.55 258.25 185.15 258.5 186.05 Q258.95 186.65 260.0 187.15 M321.5 152.75 Q322.95 153.35 323.5 154.3 324.85 156.65 320.55 161.15 311.1 170.05 294.8 174.15 280.85 176.9 269.35 176.45 L266.8 176.3 264.15 176.05 262.55 175.85 Q261.85 177.3 261.8 179.45 L264.35 179.85 266.3 180.05 267.9 180.15 M266.8 176.3 Q267.4 173.8 266.0 172.4 265.0 171.45 263.05 171.0 259.8 170.5 258.6 175.35 L258.1 177.9 258.0 179.35 M261.65 186.75 L262.55 185.9 262.2 184.2 261.85 181.6 261.8 179.45 M265.35 183.2 L266.3 180.05 M265.35 183.2 Q267.35 184.35 268.8 186.2 271.15 189.2 271.85 194.15 L272.1 196.45 Q277.6 199.35 277.55 208.75 275.5 204.7 271.0 204.35 275.15 213.7 270.65 220.75 269.9 215.55 266.7 211.25 L255.4 253.9 253.85 256.65 253.85 208.5 Q248.95 209.5 246.15 215.0 244.95 204.05 250.85 200.8 L250.75 200.25 Q246.0 199.6 242.15 204.0 242.35 194.3 250.7 192.9 250.85 191.4 251.15 190.1 252.65 183.35 257.95 181.6 M268.75 191.0 L269.8 190.25 M237.8 147.85 L240.95 147.0 M237.8 147.85 Q222.7 152.3 227.4 159.5 236.2 171.9 255.75 175.0 L258.6 175.35 M323.5 154.3 Q320.4 152.4 311.35 155.55 302.25 158.65 280.65 157.75 256.25 155.75 242.9 149.15 240.2 147.8 237.8 147.85 M262.55 175.85 Q262.95 175.0 263.55 174.4 M263.7 182.35 L265.35 183.2 M261.85 181.6 L263.7 182.35 M268.75 191.0 L267.6 191.7 Q265.75 192.7 264.0 193.1 L264.9 193.85 Q265.7 194.65 266.15 195.6 L266.7 197.55 266.7 198.2 Q266.7 200.75 264.9 202.55 263.1 204.35 260.55 204.35 258.0 204.35 256.2 202.55 L256.1 202.45 Q254.4 200.7 254.4 198.2 254.4 197.55 254.55 196.95 254.85 195.35 256.0 194.05 L256.2 193.85 Q257.15 192.9 258.3 192.45 260.95 193.8 264.0 193.1 M253.1 206.3 L253.85 207.3 255.0 208.45 Q256.7 210.0 259.15 211.0 L263.4 211.2 Q265.45 210.9 267.05 209.9 269.05 208.55 270.3 206.05 L271.0 204.35 271.35 203.3 Q271.9 201.25 272.1 198.65 L272.15 198.0 272.15 197.9 272.1 196.45 M254.15 188.9 L255.35 190.3 Q256.75 191.7 258.3 192.45 M250.85 200.8 L251.2 202.15 Q251.8 204.45 253.1 206.3 M250.65 199.1 L250.75 200.25 M250.6 194.05 L250.7 192.9 M250.6 194.05 Q250.45 196.0 250.55 198.25 L250.65 199.05 M253.85 207.3 L253.85 208.5 M257.05 236.25 L261.7 217.9 256.8 217.0 M256.15 214.55 L257.9 214.85 262.3 215.6 262.8 213.65 254.95 212.5 M263.4 211.2 L263.05 212.55 262.8 213.65 M254.95 210.65 L263.05 212.55 M258.05 219.35 L260.65 220.0 M262.3 215.6 L261.7 217.9 M266.7 211.25 L267.05 209.9" fill="none" stroke="#000000" stroke-linecap="round" stroke-linejoin="round" stroke-opacity="0.4" stroke-width="0.5"/>
  </g>
</svg>
