<?xml version="1.0" encoding="UTF-8" standalone="no"?>
<svg xmlns:xlink="http://www.w3.org/1999/xlink" height="87.0px" width="78.65px" xmlns="http://www.w3.org/2000/svg">
  <g transform="matrix(1.0, 0.0, 0.0, 1.0, 39.3, 43.5)">
    <path d="M4.1 -27.45 Q9.3 -36.0 9.3 -39.4 L11.8 -41.9 13.3 -42.75 9.3 -33.9 14.0 -41.25 15.1 -43.0 Q16.45 -42.95 17.8 -41.9 L8.35 -26.0 8.25 -26.15 7.4 -26.45 5.95 -27.0 5.35 -26.95 5.3 -27.0 Q4.75 -27.55 4.1 -27.45" fill="url(#gradient0)" fill-rule="evenodd" stroke="none"/>
    <path d="M17.8 -41.9 L18.8 -39.9 9.25 -24.75 8.35 -26.0 17.8 -41.9" fill="url(#gradient1)" fill-rule="evenodd" stroke="none"/>
    <path d="M6.8 -9.85 L7.55 -8.25 -1.45 -2.35 6.8 -9.85 M31.1 -12.15 L31.1 -11.1 25.1 -5.35 21.8 -5.35 Q28.15 -10.85 31.1 -12.15 M10.8 24.0 L8.6 24.0 8.6 21.45 11.2 19.3 Q12.15 23.55 10.8 24.0 M-29.55 35.2 L-30.55 35.2 -31.75 31.6 -31.75 28.0 -30.9 28.35 -29.55 35.2 M13.3 -42.75 L14.0 -41.25 9.3 -33.9 13.3 -42.75 M-22.5 11.85 L-21.95 13.5 -22.6 14.45 -23.25 15.4 -23.85 16.8 -24.25 20.0 -24.55 22.2 -24.7 20.35 -25.1 16.4 -24.35 15.0 -22.5 11.85" fill="#73622d" fill-rule="evenodd" stroke="none"/>
    <path d="M0.6 -24.35 L0.6 -24.85 Q2.15 -27.3 4.1 -27.45 4.75 -27.55 5.3 -27.0 L5.35 -26.95 5.3 -26.9 Q2.95 -27.0 0.6 -24.35" fill="url(#gradient2)" fill-rule="evenodd" stroke="none"/>
    <path d="M9.25 -24.75 Q10.05 -23.15 9.05 -21.85 L6.3 -20.2 7.3 -22.1 Q8.8 -24.35 6.8 -25.6 L6.0 -25.8 5.3 -25.85 Q3.2 -25.95 1.55 -24.1 L0.65 -22.55 0.6 -24.35 Q2.95 -27.0 5.3 -26.9 L5.35 -26.95 5.95 -27.0 7.4 -26.45 8.25 -26.15 8.35 -26.0 9.25 -24.75" fill="url(#gradient3)" fill-rule="evenodd" stroke="none"/>
    <path d="M3.9 -10.25 L6.8 -9.85 -1.45 -2.35 7.55 -8.25 8.8 -9.1 16.05 -6.6 28.6 -13.85 29.5 -13.65 -2.2 10.65 -12.8 11.2 -19.2 9.5 -18.1 5.95 -15.9 5.8 Q-13.65 5.4 -13.05 4.05 L-12.9 3.6 -12.95 3.55 -12.6 1.5 -12.5 1.4 -7.85 -3.8 Q0.05 -15.5 5.3 -25.85 L6.0 -25.8 -3.55 -7.8 Q-6.1 -2.9 -11.0 1.95 -8.1 1.4 -2.45 -4.35 L-1.35 -6.3 3.9 -10.25" fill="url(#gradient4)" fill-rule="evenodd" stroke="none"/>
    <path d="M6.3 -20.2 L1.05 -10.65 -1.35 -6.3 -2.45 -4.35 Q-8.1 1.4 -11.0 1.95 -6.1 -2.9 -3.55 -7.8 L6.0 -25.8 6.8 -25.6 Q8.8 -24.35 7.3 -22.1 L6.3 -20.2" fill="url(#gradient5)" fill-rule="evenodd" stroke="none"/>
    <path d="M-15.45 -3.05 L-13.0 -5.1 Q-4.55 -14.15 0.65 -22.55 L1.55 -24.1 Q3.2 -25.95 5.3 -25.85 0.05 -15.5 -7.85 -3.8 L-12.5 1.4 -12.6 1.3 -12.55 1.15 -12.5 0.95 -12.5 0.85 Q-12.3 -0.35 -13.55 -1.65 L-14.6 -2.5 -15.45 -3.05" fill="url(#gradient6)" fill-rule="evenodd" stroke="none"/>
    <path d="M1.05 -10.65 L3.9 -10.25 -1.35 -6.3 1.05 -10.65" fill="url(#gradient7)" fill-rule="evenodd" stroke="none"/>
    <path d="M28.1 -2.25 L27.6 -0.3 27.1 1.7 36.55 -2.95 Q37.75 -3.35 38.85 -2.95 L38.85 -1.8 27.35 4.45 27.35 5.95 24.65 8.2 19.7 12.35 -6.6 26.5 -4.9 22.95 Q11.6 12.8 25.65 -1.85 27.4 -2.9 28.1 -2.25" fill="url(#gradient8)" fill-rule="evenodd" stroke="none"/>
    <path d="M25.1 -5.35 Q27.75 -4.95 28.1 -2.25 27.4 -2.9 25.65 -1.85 11.6 12.8 -4.9 22.95 L-6.6 26.5 -8.6 27.15 -8.5 25.95 Q-7.8 22.1 -10.8 21.15 L-18.1 18.7 -16.85 17.65 -6.45 21.35 Q-4.55 21.0 -2.6 19.3 L2.05 16.15 Q12.9 9.5 19.75 2.95 L23.1 -0.05 23.15 -0.05 Q26.45 -4.6 25.1 -5.35" fill="url(#gradient9)" fill-rule="evenodd" stroke="none"/>
    <path d="M29.5 -13.65 L30.4 -13.45 20.6 -5.6 21.8 -5.35 25.1 -5.35 Q26.45 -4.6 23.15 -0.05 L23.1 -0.05 19.75 2.95 Q12.9 9.5 2.05 16.15 L-2.6 19.3 Q-4.55 21.0 -6.45 21.35 L-16.85 17.65 -10.5 14.25 -6.3 13.75 Q-0.7 12.5 6.25 8.1 L-2.2 10.65 29.5 -13.65" fill="url(#gradient10)" fill-rule="evenodd" stroke="none"/>
    <path d="M30.4 -13.45 Q31.05 -13.05 31.1 -12.15 28.15 -10.85 21.8 -5.35 L20.6 -5.6 30.4 -13.45" fill="#ccb87b" fill-rule="evenodd" stroke="none"/>
    <path d="M38.1 -4.6 Q38.95 -3.95 38.85 -2.95 37.75 -3.35 36.55 -2.95 37.75 -3.75 38.1 -4.6" fill="url(#gradient11)" fill-rule="evenodd" stroke="none"/>
    <path d="M27.6 -0.3 L36.6 -5.1 38.1 -4.6 Q37.75 -3.75 36.55 -2.95 L27.1 1.7 27.6 -0.3 M-35.6 9.0 L-35.55 8.95 -35.55 9.05 -35.6 9.0" fill="#e2d7b4" fill-rule="evenodd" stroke="none"/>
    <path d="M24.65 8.2 Q25.5 13.7 24.05 14.6 L17.7 20.45 Q17.45 17.1 15.5 15.8 L19.7 12.35 24.65 8.2" fill="url(#gradient12)" fill-rule="evenodd" stroke="none"/>
    <path d="M8.6 24.0 Q7.95 27.4 6.25 29.2 7.6 26.9 7.5 22.4 L8.6 21.45 8.6 24.0" fill="url(#gradient13)" fill-rule="evenodd" stroke="none"/>
    <path d="M8.6 21.45 L7.5 22.4 -7.5 34.75 Q-8.9 33.85 -7.75 29.3 L-6.6 26.5 19.7 12.35 15.5 15.8 12.3 18.4 11.2 19.3 8.6 21.45" fill="url(#gradient14)" fill-rule="evenodd" stroke="none"/>
    <path d="M17.7 20.45 L15.05 22.8 Q12.5 22.55 12.3 18.4 L15.5 15.8 Q17.45 17.1 17.7 20.45" fill="url(#gradient15)" fill-rule="evenodd" stroke="none"/>
    <path d="M15.05 22.8 Q13.35 24.7 11.65 24.2 L10.8 24.0 Q12.15 23.55 11.2 19.3 L12.3 18.4 Q12.5 22.55 15.05 22.8" fill="url(#gradient16)" fill-rule="evenodd" stroke="none"/>
    <path d="M6.25 29.2 L-8.35 41.2 Q-11.45 38.7 -11.0 35.65 L-7.5 34.75 7.5 22.4 Q7.6 26.9 6.25 29.2" fill="url(#gradient17)" fill-rule="evenodd" stroke="none"/>
    <path d="M-24.75 3.35 L-25.15 3.0 Q-26.65 1.45 -26.1 0.1 L-25.9 -0.35 -25.8 -1.95 -25.75 -2.2 Q-24.7 -1.6 -23.25 -1.6 -21.8 -1.6 -20.8 -2.2 -19.75 -2.75 -19.75 -3.6 -19.75 -4.05 -20.05 -4.45 L-17.8 -3.95 -15.45 -3.05 -14.6 -2.5 -16.75 -1.9 Q-18.15 -1.15 -18.15 -0.1 -18.15 0.95 -16.75 1.65 -15.45 2.35 -13.55 2.4 L-15.45 3.05 -17.2 3.15 -20.45 2.6 -22.35 1.9 -24.1 0.75 Q-23.25 3.25 -24.2 3.85 L-24.75 3.35 M-25.8 -1.95 L-25.45 -0.75 -24.7 0.25 -24.1 0.75 -24.7 0.25 -25.45 -0.75 -25.8 -1.95 M-22.1 -3.25 L-22.35 -2.95 -22.95 -2.8 -23.55 -2.95 -23.8 -3.25 -23.55 -3.6 -22.95 -3.7 -22.35 -3.6 -22.1 -3.25 M-20.35 -0.5 L-21.35 -0.8 -21.95 -0.6 Q-22.1 -0.35 -21.85 0.05 L-21.05 0.75 -20.1 1.05 Q-19.7 1.05 -19.5 0.8 -19.4 0.55 -19.6 0.2 L-20.35 -0.5 M-15.45 -0.95 L-14.85 -0.7 -14.6 -0.1 -14.85 0.5 -15.45 0.75 -16.05 0.5 -16.3 -0.1 -16.05 -0.7 -15.45 -0.95 M-23.25 5.55 L-21.45 7.5 Q-20.9 8.95 -21.65 11.3 -21.9 12.0 -22.85 11.2 L-23.6 8.8 -23.55 8.25 -23.25 5.55" fill="#ffffff" fill-rule="evenodd" stroke="none"/>
    <path d="M-12.6 1.5 L-12.95 3.55 -12.9 3.6 -13.05 4.05 Q-13.65 5.4 -15.9 5.8 L-18.1 5.95 -19.2 9.5 -20.05 10.7 -20.55 11.4 -20.15 8.1 Q-20.8 8.0 -21.45 7.5 L-23.25 5.55 -23.15 4.5 -20.95 5.4 -18.8 5.85 Q-16.0 5.1 -17.2 3.15 L-15.45 3.05 -13.55 2.4 -13.2 2.15 -13.0 1.9 -12.6 1.3 -12.6 1.5 M-18.1 5.95 L-18.8 5.85 -18.1 5.95" fill="#999999" fill-rule="evenodd" stroke="none"/>
    <path d="M-25.75 -2.2 L-25.65 -2.65 Q-25.1 -4.05 -22.8 -4.45 -21.5 -4.65 -20.05 -4.45 -19.75 -4.05 -19.75 -3.6 -19.75 -2.75 -20.8 -2.2 -21.8 -1.6 -23.25 -1.6 -24.7 -1.6 -25.75 -2.2 M-22.1 -3.25 L-22.35 -3.6 -22.95 -3.7 -23.55 -3.6 -23.8 -3.25 -23.55 -2.95 -22.95 -2.8 -22.35 -2.95 -22.1 -3.25 M-20.35 -0.5 L-19.6 0.2 Q-19.4 0.55 -19.5 0.8 -19.7 1.05 -20.1 1.05 L-21.05 0.75 -21.85 0.05 Q-22.1 -0.35 -21.95 -0.6 L-21.35 -0.8 -20.35 -0.5 M-13.55 2.4 Q-15.45 2.35 -16.75 1.65 -18.15 0.95 -18.15 -0.1 -18.15 -1.15 -16.75 -1.9 L-14.6 -2.5 -13.55 -1.65 Q-12.3 -0.35 -12.5 0.85 L-12.5 0.95 -12.55 1.15 -12.6 1.3 -13.0 1.9 -13.2 2.15 -13.55 2.4 M-15.45 -0.95 L-16.05 -0.7 -16.3 -0.1 -16.05 0.5 -15.45 0.75 -14.85 0.5 -14.6 -0.1 -14.85 -0.7 -15.45 -0.95" fill="#000000" fill-rule="evenodd" stroke="none"/>
    <path d="M-17.2 3.15 Q-16.0 5.1 -18.8 5.85 L-20.95 5.4 -23.15 4.5 -24.2 3.85 Q-23.25 3.25 -24.1 0.75 L-22.35 1.9 -20.45 2.6 -17.2 3.15 M-21.45 7.5 Q-20.8 8.0 -20.15 8.1 L-20.55 11.4 -21.95 13.5 -22.5 11.85 -22.85 11.2 Q-21.9 12.0 -21.65 11.3 -20.9 8.95 -21.45 7.5" fill="#cccccc" fill-rule="evenodd" stroke="none"/>
    <path d="M-19.2 9.5 L-12.8 11.2 -2.2 10.65 -6.3 13.75 -10.5 14.25 Q-14.35 14.3 -17.45 12.6 L-18.6 11.35 -18.7 11.2 Q-19.15 10.35 -19.2 9.5" fill="url(#gradient18)" fill-rule="evenodd" stroke="none"/>
    <path d="M-19.2 9.5 Q-19.15 10.35 -18.7 11.2 L-18.6 11.35 Q-18.85 13.6 -20.9 14.45 L-22.6 14.45 -21.95 13.5 -20.55 11.4 -20.05 10.7 -19.2 9.5" fill="url(#gradient19)" fill-rule="evenodd" stroke="none"/>
    <path d="M-18.6 11.35 L-17.45 12.6 Q-14.35 14.3 -10.5 14.25 L-16.85 17.65 -23.25 15.4 -22.6 14.45 -20.9 14.45 Q-18.85 13.6 -18.6 11.35" fill="url(#gradient20)" fill-rule="evenodd" stroke="none"/>
    <path d="M-18.1 18.7 L-10.8 21.15 Q-7.8 22.1 -8.5 25.95 L-8.6 27.15 Q-16.1 25.55 -18.7 33.45 L-23.7 31.35 -30.25 28.6 Q-28.45 23.2 -24.7 20.35 L-24.55 22.2 -24.25 20.0 Q-21.4 18.4 -18.15 18.7 L-18.1 18.7" fill="url(#gradient21)" fill-rule="evenodd" stroke="none"/>
    <path d="M-16.85 17.65 L-18.1 18.7 -18.15 18.7 -23.85 16.8 -23.25 15.4 -16.85 17.65" fill="url(#gradient22)" fill-rule="evenodd" stroke="none"/>
    <path d="M-6.3 13.75 L-2.2 10.65 6.25 8.1 Q-0.7 12.5 -6.3 13.75" fill="url(#gradient23)" fill-rule="evenodd" stroke="none"/>
    <path d="M-34.95 8.7 L-34.9 8.65 -34.75 8.6 Q-29.45 6.15 -24.75 3.35 L-24.2 3.85 -23.15 4.5 -23.25 5.55 -23.55 8.25 -27.35 9.05 Q-30.0 9.15 -30.15 7.5 -32.55 7.65 -32.85 9.5 -32.6 12.0 -26.0 9.7 L-30.15 12.95 -35.95 10.9 Q-36.45 9.8 -35.55 9.05 L-34.95 8.7" fill="url(#gradient24)" fill-rule="evenodd" stroke="none"/>
    <path d="M-32.85 9.5 Q-32.55 7.65 -30.15 7.5 -30.0 9.15 -27.35 9.05 L-23.55 8.25 -23.6 8.8 -26.0 9.7 Q-32.6 12.0 -32.85 9.5" fill="url(#gradient25)" fill-rule="evenodd" stroke="none"/>
    <path d="M-26.0 9.7 L-23.6 8.8 -22.85 11.2 -22.5 11.85 -24.35 15.0 -30.15 12.95 -26.0 9.7" fill="url(#gradient26)" fill-rule="evenodd" stroke="none"/>
    <path d="M-38.8 15.2 Q-38.1 10.75 -35.6 9.0 L-35.55 9.05 Q-36.45 9.8 -35.95 10.9 L-30.15 12.95 -32.05 14.05 -36.05 12.7 Q-37.4 12.0 -38.8 15.2" fill="url(#gradient27)" fill-rule="evenodd" stroke="none"/>
    <path d="M-37.55 23.7 L-38.8 15.2 Q-37.4 12.0 -36.05 12.7 L-32.05 14.05 Q-36.15 17.75 -37.4 23.75 L-37.55 23.7" fill="url(#gradient28)" fill-rule="evenodd" stroke="none"/>
    <path d="M-35.3 26.5 Q-37.0 25.9 -37.45 24.0 L-37.4 23.75 Q-36.15 17.75 -32.05 14.05 L-25.1 16.4 -24.7 20.35 Q-28.45 23.2 -30.25 28.6 L-30.9 28.35 -31.75 28.0 -35.3 26.5" fill="url(#gradient29)" fill-rule="evenodd" stroke="none"/>
    <path d="M-32.05 14.05 L-30.15 12.95 -24.35 15.0 -25.1 16.4 -32.05 14.05" fill="url(#gradient30)" fill-rule="evenodd" stroke="none"/>
    <path d="M-24.25 20.0 L-23.85 16.8 -18.15 18.7 Q-21.4 18.4 -24.25 20.0" fill="url(#gradient31)" fill-rule="evenodd" stroke="none"/>
    <path d="M-23.05 38.25 L-29.55 35.2 -30.9 28.35 -30.25 28.6 -23.7 31.35 Q-24.8 34.45 -23.05 38.25" fill="url(#gradient32)" fill-rule="evenodd" stroke="none"/>
    <path d="M-30.55 35.2 Q-32.35 35.45 -33.2 34.9 -32.3 34.05 -31.75 31.6 L-30.55 35.2" fill="url(#gradient33)" fill-rule="evenodd" stroke="none"/>
    <path d="M-33.2 34.9 Q-35.05 34.05 -35.3 29.35 L-35.3 26.5 -31.75 28.0 -31.75 31.6 Q-32.3 34.05 -33.2 34.9" fill="url(#gradient34)" fill-rule="evenodd" stroke="none"/>
    <path d="M-13.75 42.6 L-23.05 38.25 Q-24.8 34.45 -23.7 31.35 L-18.7 33.45 -14.2 35.3 Q-12.0 38.55 -13.75 42.6" fill="url(#gradient35)" fill-rule="evenodd" stroke="none"/>
    <path d="M-18.7 33.45 Q-16.1 25.55 -8.6 27.15 -9.45 33.1 -12.5 36.0 L-14.2 35.3 -18.7 33.45" fill="url(#gradient36)" fill-rule="evenodd" stroke="none"/>
    <path d="M-8.6 27.15 L-6.6 26.5 -7.75 29.3 Q-8.9 33.85 -7.5 34.75 L-11.0 35.65 -12.5 36.0 Q-9.45 33.1 -8.6 27.15" fill="url(#gradient37)" fill-rule="evenodd" stroke="none"/>
    <path d="M-8.35 41.2 Q-11.05 43.8 -13.75 42.6 -12.0 38.55 -14.2 35.3 L-12.5 36.0 -11.0 35.65 Q-11.45 38.7 -8.35 41.2" fill="url(#gradient38)" fill-rule="evenodd" stroke="none"/>
    <path d="M17.8 -41.9 L18.8 -39.9 9.25 -24.75 Q10.05 -23.15 9.05 -21.85 L6.3 -20.2 1.05 -10.65 3.9 -10.25 6.8 -9.85 7.55 -8.25 8.8 -9.1 16.05 -6.6 28.6 -13.85 29.5 -13.65 30.4 -13.45 Q31.05 -13.05 31.1 -12.15 L31.1 -11.1 25.1 -5.35 Q27.75 -4.95 28.1 -2.25 L27.6 -0.3 36.6 -5.1 38.1 -4.6 Q38.95 -3.95 38.85 -2.95 L38.85 -1.8 27.35 4.45 27.35 5.95 24.65 8.2 Q25.5 13.7 24.05 14.6 L17.7 20.45 15.05 22.8 Q13.35 24.7 11.65 24.2 L10.8 24.0 8.6 24.0 Q7.95 27.4 6.25 29.2 L-8.35 41.2 Q-11.05 43.8 -13.75 42.6 L-23.05 38.25 -29.55 35.2 -30.55 35.2 Q-32.35 35.45 -33.2 34.9 -35.05 34.05 -35.3 29.35 L-35.3 26.5 Q-37.0 25.9 -37.45 24.0 L-37.55 23.7 -38.8 15.2 Q-38.1 10.75 -35.6 9.0 L-35.55 8.95 -34.95 8.7 -34.9 8.65 -34.75 8.6 Q-29.45 6.15 -24.75 3.35 M-15.45 -3.05 L-13.0 -5.1 Q-4.55 -14.15 0.65 -22.55 L0.6 -24.35 0.6 -24.85 Q2.15 -27.3 4.1 -27.45 9.3 -36.0 9.3 -39.4 L11.8 -41.9 13.3 -42.75 14.0 -41.25 15.1 -43.0 Q16.45 -42.95 17.8 -41.9 L8.35 -26.0 9.25 -24.75 M7.4 -26.45 L8.25 -26.15 8.35 -26.0 M5.3 -25.85 L6.0 -25.8 6.8 -25.6 Q8.8 -24.35 7.3 -22.1 L6.3 -20.2 M13.3 -42.75 L9.3 -33.9 14.0 -41.25 M0.65 -22.55 L1.55 -24.1 Q3.2 -25.95 5.3 -25.85 0.05 -15.5 -7.85 -3.8 L-12.5 1.4 -12.6 1.5 M-2.2 10.65 L29.5 -13.65 M-16.85 17.65 L-18.1 18.7 -18.15 18.7 Q-21.4 18.4 -24.25 20.0 L-23.85 16.8 -23.25 15.4 -22.6 14.45 -21.95 13.5 -20.55 11.4 -20.05 10.7 M-8.6 27.15 L-6.6 26.5 19.7 12.35 24.65 8.2 M21.8 -5.35 L20.6 -5.6 M25.1 -5.35 L21.8 -5.35 Q28.15 -10.85 31.1 -12.15 M27.1 1.7 L27.6 -0.3 M8.6 24.0 L8.6 21.45 7.5 22.4 -7.5 34.75 -11.0 35.65 -12.5 36.0 -14.2 35.3 -18.7 33.45 Q-16.1 25.55 -8.6 27.15 M12.3 18.4 L15.5 15.8 19.7 12.35 M15.5 15.8 Q17.45 17.1 17.7 20.45 M12.3 18.4 L11.2 19.3 8.6 21.45 M-20.05 -4.45 Q-19.75 -4.05 -19.75 -3.6 -19.75 -2.75 -20.8 -2.2 -21.8 -1.6 -23.25 -1.6 -24.7 -1.6 -25.75 -2.2 M-13.55 2.4 Q-15.45 2.35 -16.75 1.65 -18.15 0.95 -18.15 -0.1 -18.15 -1.15 -16.75 -1.9 L-14.6 -2.5 M-1.35 -6.3 L-2.45 -4.35 M-19.2 9.5 Q-19.15 10.35 -18.7 11.2 M-18.6 11.35 L-17.45 12.6 Q-14.35 14.3 -10.5 14.25 L-6.3 13.75 -2.2 10.65 M6.25 8.1 Q-0.7 12.5 -6.3 13.75 M-16.85 17.65 L-10.5 14.25 M-32.85 9.5 Q-32.6 12.0 -26.0 9.7 L-23.6 8.8 M-22.5 11.85 L-21.95 13.5 M-35.55 9.05 L-34.95 8.7 M-37.4 23.75 Q-36.15 17.75 -32.05 14.05 L-30.15 12.95 -26.0 9.7 M-37.45 24.0 L-37.4 23.75 M-24.35 15.0 L-25.1 16.4 -24.7 20.35 -24.55 22.2 -24.25 20.0 M-24.35 15.0 L-22.5 11.85 M-30.25 28.6 L-23.7 31.35 -18.7 33.45 M-31.75 28.0 L-35.3 26.5 M-31.75 28.0 L-30.9 28.35 -30.25 28.6 Q-28.45 23.2 -24.7 20.35 M-23.7 31.35 Q-24.8 34.45 -23.05 38.25 M-29.55 35.2 L-30.9 28.35 M1.05 -10.65 L-1.35 -6.3 M7.55 -8.25 L-1.45 -2.35 6.8 -9.85" fill="none" stroke="#000000" stroke-linecap="round" stroke-linejoin="round" stroke-opacity="0.4" stroke-width="0.5"/>
    <path d="M-24.75 3.35 L-25.15 3.0 Q-26.65 1.45 -26.1 0.1 L-25.9 -0.35 -25.8 -1.95 -25.75 -2.2 -25.65 -2.65 Q-25.1 -4.05 -22.8 -4.45 -21.5 -4.65 -20.05 -4.45 L-17.8 -3.95 -15.45 -3.05 -14.6 -2.5 -13.55 -1.65 Q-12.3 -0.35 -12.5 0.85 L-12.5 0.95 -12.55 1.15 -12.6 1.3 -12.6 1.5 -12.95 3.55 -12.9 3.6 -13.05 4.05 Q-13.65 5.4 -15.9 5.8 L-18.1 5.95 -19.2 9.5 -20.05 10.7 M-24.1 0.75 L-24.7 0.25 -25.45 -0.75 -25.8 -1.95 M-20.35 -0.5 L-19.6 0.2 Q-19.4 0.55 -19.5 0.8 -19.7 1.05 -20.1 1.05 L-21.05 0.75 -21.85 0.05 Q-22.1 -0.35 -21.95 -0.6 L-21.35 -0.8 -20.35 -0.5 M-12.55 1.15 L-12.6 1.3 -13.0 1.9 -13.2 2.15 -13.55 2.4 -15.45 3.05 -17.2 3.15 -20.45 2.6 -22.35 1.9 -24.1 0.75 M-18.8 5.85 L-18.1 5.95 M-24.2 3.85 L-23.15 4.5 -20.95 5.4 -18.8 5.85 M-23.15 4.5 L-23.25 5.55 -23.55 8.25 -23.6 8.8 -22.85 11.2 -22.5 11.85 M-24.2 3.85 L-24.75 3.35" fill="none" stroke="#000000" stroke-linecap="round" stroke-linejoin="round" stroke-opacity="0.4" stroke-width="0.5"/>
    <path d="M18.8 -39.9 L9.25 -24.75 Q10.05 -23.15 9.05 -21.85 L6.3 -20.2 -2.45 -4.35 Q-8.1 1.4 -11.0 1.95 -6.1 -2.9 -3.55 -7.8 L6.0 -25.8 5.3 -25.85 Q3.2 -25.95 1.55 -24.1 L0.65 -22.55 0.6 -24.35 Q2.95 -27.0 5.3 -26.9 L5.35 -26.95 5.95 -27.0 8.25 -26.15 8.35 -26.0 17.8 -41.9 18.8 -39.9 M21.8 -5.35 L20.6 -5.6 30.4 -13.45 Q31.05 -13.05 31.1 -12.15 L31.1 -11.1 25.1 -5.35 21.8 -5.35 M28.1 -2.25 L27.1 1.7 36.55 -2.95 Q37.75 -3.35 38.85 -2.95 L38.85 -1.8 27.35 4.45 27.35 5.95 24.65 8.2 Q25.5 13.7 24.05 14.6 L15.05 22.8 Q13.35 24.7 11.65 24.2 L10.8 24.0 8.6 24.0 8.6 21.45 7.5 22.4 Q7.6 26.9 6.25 29.2 L-8.35 41.2 Q-11.05 43.8 -13.75 42.6 L-29.55 35.2 -30.55 35.2 Q-32.35 35.45 -33.2 34.9 -35.05 34.05 -35.3 29.35 L-35.3 26.5 Q-37.0 25.9 -37.45 24.0 L-37.4 23.75 -37.55 23.7 -38.8 15.2 Q-37.4 12.0 -36.05 12.7 L-25.1 16.4 -24.55 22.2 -23.85 16.8 -18.15 18.7 -18.1 18.7 -10.8 21.15 Q-7.8 22.1 -8.5 25.95 L-8.6 27.15 -6.6 26.5 -4.9 22.95 Q11.6 12.8 25.65 -1.85 27.4 -2.9 28.1 -2.25" fill="#280000" fill-opacity="0.21960784" fill-rule="evenodd" stroke="none"/>
    <path d="M11.8 -41.9 L9.3 -39.4 Q9.3 -36.0 4.1 -27.45 2.15 -27.3 0.6 -24.85 L0.65 -22.55 Q-4.55 -14.15 -13.0 -5.1 L-15.45 -3.05 -17.8 -3.95 -20.05 -4.45 Q-21.5 -4.65 -22.8 -4.45 -25.1 -4.05 -25.65 -2.65 L-25.75 -2.2 -25.8 -1.95 -25.9 -0.35 -26.1 0.1 Q-26.65 1.45 -25.15 3.0 L-24.75 3.35 Q-29.45 6.15 -34.75 8.6 L-34.9 8.65 -34.95 8.7 -35.55 9.05 -35.55 8.95 -35.6 9.0 Q-38.1 10.75 -38.8 15.2 L-37.55 23.7 -37.4 23.75 -37.45 24.0 Q-37.0 25.9 -35.3 26.5 L-35.3 29.35 Q-35.05 34.05 -33.2 34.9 -32.35 35.45 -30.55 35.2 L-29.55 35.2 -13.75 42.6 Q-11.05 43.8 -8.35 41.2 L6.25 29.2 Q7.95 27.4 8.6 24.0 L10.8 24.0 11.65 24.2 Q13.35 24.7 15.05 22.8 L24.05 14.6 Q25.5 13.7 24.65 8.2 L27.35 5.95 27.35 4.45 38.85 -1.8 38.85 -2.95 Q38.95 -3.95 38.1 -4.6 L36.6 -5.1 27.6 -0.3 28.1 -2.25 Q27.75 -4.95 25.1 -5.35 L31.1 -11.1 31.1 -12.15 Q31.05 -13.05 30.4 -13.45 L28.6 -13.85 16.05 -6.6 8.8 -9.1 7.55 -8.25 6.8 -9.85 1.05 -10.65 6.3 -20.2 9.05 -21.85 Q10.05 -23.15 9.25 -24.75 L18.8 -39.9 17.8 -41.9 Q16.45 -42.95 15.1 -43.0 L14.0 -41.25 13.3 -42.75 11.8 -41.9 Z" fill="none" stroke="#000000" stroke-linecap="round" stroke-linejoin="round" stroke-opacity="0.4" stroke-width="1.0"/>
  </g>
  <defs>
    <linearGradient gradientTransform="matrix(-0.0039, 0.0056, -0.0034, -0.0024, 10.25, -34.7)" gradientUnits="userSpaceOnUse" id="gradient0" spreadMethod="pad" x1="-819.2" x2="819.2">
      <stop offset="0.0" stop-color="#e2d7b4"/>
      <stop offset="1.0" stop-color="#f3ede0"/>
    </linearGradient>
    <linearGradient gradientTransform="matrix(0.0058, -0.0101, 0.0012, 7.0E-4, 13.7, -33.2)" gradientUnits="userSpaceOnUse" id="gradient1" spreadMethod="pad" x1="-819.2" x2="819.2">
      <stop offset="0.0" stop-color="#dbcda2"/>
      <stop offset="1.0" stop-color="#ccb87b"/>
    </linearGradient>
    <linearGradient gradientTransform="matrix(-0.0017, 0.0024, -0.0013, -9.0E-4, 2.9, -25.75)" gradientUnits="userSpaceOnUse" id="gradient2" spreadMethod="pad" x1="-819.2" x2="819.2">
      <stop offset="0.0" stop-color="#e2d7b4"/>
      <stop offset="1.0" stop-color="#f3ede0"/>
    </linearGradient>
    <linearGradient gradientTransform="matrix(0.0021, -0.0036, 0.0045, 0.0026, 5.3, -23.85)" gradientUnits="userSpaceOnUse" id="gradient3" spreadMethod="pad" x1="-819.2" x2="819.2">
      <stop offset="0.0" stop-color="#dbcda2"/>
      <stop offset="1.0" stop-color="#ccb87b"/>
    </linearGradient>
    <linearGradient gradientTransform="matrix(0.0091, -0.0091, 0.0111, 0.0111, 0.45, -2.8)" gradientUnits="userSpaceOnUse" id="gradient4" spreadMethod="pad" x1="-819.2" x2="819.2">
      <stop offset="0.0" stop-color="#e2d7b4"/>
      <stop offset="1.0" stop-color="#f3ede0"/>
    </linearGradient>
    <linearGradient gradientTransform="matrix(0.0045, -0.0079, 0.0023, 0.0013, -0.5, -12.2)" gradientUnits="userSpaceOnUse" id="gradient5" spreadMethod="pad" x1="-819.2" x2="819.2">
      <stop offset="0.0" stop-color="#dbcda2"/>
      <stop offset="1.0" stop-color="#ccb87b"/>
    </linearGradient>
    <linearGradient gradientTransform="matrix(0.0078, -0.0108, 0.0028, 0.002, -5.9, -11.4)" gradientUnits="userSpaceOnUse" id="gradient6" spreadMethod="pad" x1="-819.2" x2="819.2">
      <stop offset="0.0" stop-color="#e2d7b4"/>
      <stop offset="1.0" stop-color="#f3ede0"/>
    </linearGradient>
    <linearGradient gradientTransform="matrix(0.0032, 0.0, 0.0, 0.0027, 1.25, -8.5)" gradientUnits="userSpaceOnUse" id="gradient7" spreadMethod="pad" x1="-819.2" x2="819.2">
      <stop offset="0.0" stop-color="#dbcda2"/>
      <stop offset="1.0" stop-color="#ccb87b"/>
    </linearGradient>
    <linearGradient gradientTransform="matrix(0.018, -0.0138, 0.003, 0.0039, 13.05, 12.8)" gradientUnits="userSpaceOnUse" id="gradient8" spreadMethod="pad" x1="-819.2" x2="819.2">
      <stop offset="0.0" stop-color="#dbcda2"/>
      <stop offset="1.0" stop-color="#ccb87b"/>
    </linearGradient>
    <linearGradient gradientTransform="matrix(0.0173, -0.0132, 0.0049, 0.0065, 5.45, 8.95)" gradientUnits="userSpaceOnUse" id="gradient9" spreadMethod="pad" x1="-819.2" x2="819.2">
      <stop offset="0.0" stop-color="#e2d7b4"/>
      <stop offset="1.0" stop-color="#f3efe1"/>
    </linearGradient>
    <linearGradient gradientTransform="matrix(0.0135, -0.0102, 0.004, 0.0053, 10.5, 3.8)" gradientUnits="userSpaceOnUse" id="gradient10" spreadMethod="pad" x1="-819.2" x2="819.2">
      <stop offset="0.0" stop-color="#dac89f"/>
      <stop offset="1.0" stop-color="#e8ddc4"/>
    </linearGradient>
    <linearGradient gradientTransform="matrix(0.0014, 0.0, 0.0, 0.001, 37.7, -3.8)" gradientUnits="userSpaceOnUse" id="gradient11" spreadMethod="pad" x1="-819.2" x2="819.2">
      <stop offset="0.0" stop-color="#dbcda2"/>
      <stop offset="1.0" stop-color="#ffffff"/>
    </linearGradient>
    <linearGradient gradientTransform="matrix(0.0063, -0.0063, 0.0023, 0.0023, 23.3, 11.65)" gradientUnits="userSpaceOnUse" id="gradient12" spreadMethod="pad" x1="-819.2" x2="819.2">
      <stop offset="0.0" stop-color="#cfb885"/>
      <stop offset="1.0" stop-color="#d5c393"/>
    </linearGradient>
    <linearGradient gradientTransform="matrix(0.0, 0.0013, -0.0014, 0.0, 7.45, 23.9)" gradientUnits="userSpaceOnUse" id="gradient13" spreadMethod="pad" x1="-819.2" x2="819.2">
      <stop offset="0.0" stop-color="#e2d7b4"/>
      <stop offset="1.0" stop-color="#f3efe1"/>
    </linearGradient>
    <linearGradient gradientTransform="matrix(0.0091, -0.0063, 0.0022, 0.0032, 8.1, 20.15)" gradientUnits="userSpaceOnUse" id="gradient14" spreadMethod="pad" x1="-819.2" x2="819.2">
      <stop offset="0.0" stop-color="#cfb885"/>
      <stop offset="1.0" stop-color="#d5c393"/>
    </linearGradient>
    <linearGradient gradientTransform="matrix(0.0033, 0.0, 0.0, 0.0043, 15.0, 19.3)" gradientUnits="userSpaceOnUse" id="gradient15" spreadMethod="pad" x1="-819.2" x2="819.2">
      <stop offset="0.0" stop-color="#dbcda2"/>
      <stop offset="1.0" stop-color="#ccb87b"/>
    </linearGradient>
    <linearGradient gradientTransform="matrix(4.0E-4, 0.0015, -0.0026, 7.0E-4, 12.45, 21.6)" gradientUnits="userSpaceOnUse" id="gradient16" spreadMethod="pad" x1="-819.2" x2="819.2">
      <stop offset="0.0" stop-color="#e2d7b4"/>
      <stop offset="1.0" stop-color="#f3efe1"/>
    </linearGradient>
    <linearGradient gradientTransform="matrix(0.0072, -0.0072, 0.0033, 0.0033, -0.55, 30.6)" gradientUnits="userSpaceOnUse" id="gradient17" spreadMethod="pad" x1="-819.2" x2="819.2">
      <stop offset="0.0" stop-color="#cfb885"/>
      <stop offset="1.0" stop-color="#d5c393"/>
    </linearGradient>
    <linearGradient gradientTransform="matrix(0.0069, 0.0, 0.0, 0.0029, -8.8, 11.85)" gradientUnits="userSpaceOnUse" id="gradient18" spreadMethod="pad" x1="-819.2" x2="819.2">
      <stop offset="0.0" stop-color="#dbcda2"/>
      <stop offset="1.0" stop-color="#ccb87b"/>
    </linearGradient>
    <linearGradient gradientTransform="matrix(-0.0014, -7.0E-4, 0.0016, -0.0033, -20.15, 12.35)" gradientUnits="userSpaceOnUse" id="gradient19" spreadMethod="pad" x1="-819.2" x2="819.2">
      <stop offset="0.0" stop-color="#dbcda2"/>
      <stop offset="1.0" stop-color="#ccb87b"/>
    </linearGradient>
    <linearGradient gradientTransform="matrix(0.0051, -0.0051, 0.0036, 0.0036, -14.9, 12.65)" gradientUnits="userSpaceOnUse" id="gradient20" spreadMethod="pad" x1="-819.2" x2="819.2">
      <stop offset="0.0" stop-color="#e2d7b4"/>
      <stop offset="1.0" stop-color="#f3ede0"/>
    </linearGradient>
    <linearGradient gradientTransform="matrix(-0.0035, 0.0081, -0.0109, -0.0047, -19.35, 27.5)" gradientUnits="userSpaceOnUse" id="gradient21" spreadMethod="pad" x1="-819.2" x2="819.2">
      <stop offset="0.0" stop-color="#ccb87b"/>
      <stop offset="1.0" stop-color="#b79548"/>
    </linearGradient>
    <linearGradient gradientTransform="matrix(-0.0015, -4.0E-4, 3.0E-4, -0.0011, -19.95, 17.25)" gradientUnits="userSpaceOnUse" id="gradient22" spreadMethod="pad" x1="-819.2" x2="819.2">
      <stop offset="0.0" stop-color="#e2d7b4"/>
      <stop offset="1.0" stop-color="#f3efe1"/>
    </linearGradient>
    <linearGradient gradientTransform="matrix(0.0045, -0.0012, 4.0E-4, 0.0013, 1.55, 10.55)" gradientUnits="userSpaceOnUse" id="gradient23" spreadMethod="pad" x1="-819.2" x2="819.2">
      <stop offset="0.0" stop-color="#dbcda2"/>
      <stop offset="1.0" stop-color="#ccb87b"/>
    </linearGradient>
    <linearGradient gradientTransform="matrix(0.0155, -0.0143, 0.0031, 0.0034, -15.6, -4.2)" gradientUnits="userSpaceOnUse" id="gradient24" spreadMethod="pad" x1="-819.2" x2="819.2">
      <stop offset="0.0" stop-color="#e2d7b4"/>
      <stop offset="1.0" stop-color="#f3ede0"/>
    </linearGradient>
    <linearGradient gradientTransform="matrix(0.0019, -0.0033, 0.0042, 0.0024, -28.35, 9.1)" gradientUnits="userSpaceOnUse" id="gradient25" spreadMethod="pad" x1="-819.2" x2="819.2">
      <stop offset="0.0" stop-color="#dbcda2"/>
      <stop offset="1.0" stop-color="#ccb87b"/>
    </linearGradient>
    <linearGradient gradientTransform="matrix(0.0022, -0.0038, 0.0032, 0.0018, -24.85, 9.75)" gradientUnits="userSpaceOnUse" id="gradient26" spreadMethod="pad" x1="-819.2" x2="819.2">
      <stop offset="0.0" stop-color="#e2d7b4"/>
      <stop offset="1.0" stop-color="#f3ede0"/>
    </linearGradient>
    <linearGradient gradientTransform="matrix(-0.0018, -0.001, 0.0021, -0.0037, -35.2, 13.3)" gradientUnits="userSpaceOnUse" id="gradient27" spreadMethod="pad" x1="-819.2" x2="819.2">
      <stop offset="0.0" stop-color="#e2d7b4"/>
      <stop offset="1.0" stop-color="#f3efe1"/>
    </linearGradient>
    <linearGradient gradientTransform="matrix(-0.0015, 0.0055, -0.0037, -0.001, -36.65, 19.25)" gradientUnits="userSpaceOnUse" id="gradient28" spreadMethod="pad" x1="-819.2" x2="819.2">
      <stop offset="0.0" stop-color="#ccb87b"/>
      <stop offset="1.0" stop-color="#b79548"/>
    </linearGradient>
    <linearGradient gradientTransform="matrix(-0.0036, 0.008, -0.006, -0.0027, -31.75, 23.1)" gradientUnits="userSpaceOnUse" id="gradient29" spreadMethod="pad" x1="-819.2" x2="819.2">
      <stop offset="0.0" stop-color="#c9b072"/>
      <stop offset="1.0" stop-color="#c09658"/>
    </linearGradient>
    <linearGradient gradientTransform="matrix(0.0018, 5.0E-4, -3.0E-4, 0.0012, -27.1, 14.85)" gradientUnits="userSpaceOnUse" id="gradient30" spreadMethod="pad" x1="-819.2" x2="819.2">
      <stop offset="0.0" stop-color="#e2d7b4"/>
      <stop offset="1.0" stop-color="#f3efe1"/>
    </linearGradient>
    <linearGradient gradientTransform="matrix(-0.0013, 0.0022, -0.0031, -0.0018, -21.75, 19.0)" gradientUnits="userSpaceOnUse" id="gradient31" spreadMethod="pad" x1="-819.2" x2="819.2">
      <stop offset="0.0" stop-color="#c9b072"/>
      <stop offset="1.0" stop-color="#c09658"/>
    </linearGradient>
    <linearGradient gradientTransform="matrix(0.0, 0.0058, -0.0048, 0.0, -26.95, 36.25)" gradientUnits="userSpaceOnUse" id="gradient32" spreadMethod="pad" x1="-819.2" x2="819.2">
      <stop offset="0.0" stop-color="#c9b072"/>
      <stop offset="1.0" stop-color="#c09658"/>
    </linearGradient>
    <linearGradient gradientTransform="matrix(0.0016, 0.0, 0.0, 0.0023, -31.9, 33.45)" gradientUnits="userSpaceOnUse" id="gradient33" spreadMethod="pad" x1="-819.2" x2="819.2">
      <stop offset="0.0" stop-color="#7a6330"/>
      <stop offset="1.0" stop-color="#b79548"/>
    </linearGradient>
    <linearGradient gradientTransform="matrix(0.0, 0.006, -0.0022, 0.0, -33.5, 34.15)" gradientUnits="userSpaceOnUse" id="gradient34" spreadMethod="pad" x1="-819.2" x2="819.2">
      <stop offset="0.0" stop-color="#b09146"/>
      <stop offset="1.0" stop-color="#b79548"/>
    </linearGradient>
    <linearGradient gradientTransform="matrix(0.0, 0.0041, -0.0068, 0.0, -18.5, 37.8)" gradientUnits="userSpaceOnUse" id="gradient35" spreadMethod="pad" x1="-819.2" x2="819.2">
      <stop offset="0.0" stop-color="#b09146"/>
      <stop offset="1.0" stop-color="#b79548"/>
    </linearGradient>
    <linearGradient gradientTransform="matrix(-0.003, 0.0052, -0.0039, -0.0022, -14.35, 32.6)" gradientUnits="userSpaceOnUse" id="gradient36" spreadMethod="pad" x1="-819.2" x2="819.2">
      <stop offset="0.0" stop-color="#c9b072"/>
      <stop offset="1.0" stop-color="#c09658"/>
    </linearGradient>
    <linearGradient gradientTransform="matrix(-0.001, 0.0037, -0.0027, -7.0E-4, -9.0, 31.45)" gradientUnits="userSpaceOnUse" id="gradient37" spreadMethod="pad" x1="-819.2" x2="819.2">
      <stop offset="0.0" stop-color="#e2d7b4"/>
      <stop offset="1.0" stop-color="#f3efe1"/>
    </linearGradient>
    <linearGradient gradientTransform="matrix(9.0E-4, 0.0034, -0.0033, 9.0E-4, -11.35, 40.55)" gradientUnits="userSpaceOnUse" id="gradient38" spreadMethod="pad" x1="-819.2" x2="819.2">
      <stop offset="0.0" stop-color="#e2d7b4"/>
      <stop offset="1.0" stop-color="#f3efe1"/>
    </linearGradient>
  </defs>
</svg>
