<?xml version="1.0" encoding="UTF-8" standalone="no"?>
<svg xmlns:xlink="http://www.w3.org/1999/xlink" height="82.5px" width="74.45px" xmlns="http://www.w3.org/2000/svg">
  <g transform="matrix(1.0, 0.0, 0.0, 1.0, -237.75, -159.2)">
    <path d="M305.85 180.35 Q308.0 181.5 311.05 181.65 L310.3 181.9 Q307.85 182.05 306.1 181.4 L305.1 180.95 304.6 180.1 305.15 180.0 305.85 180.35" fill="#dfdfbf" fill-rule="evenodd" stroke="none"/>
    <path d="M310.3 181.9 L305.75 182.55 305.4 182.45 Q304.75 182.65 304.2 182.05 303.7 180.5 304.6 180.1 L305.1 180.95 306.1 181.4 Q307.85 182.05 310.3 181.9" fill="#cccc99" fill-rule="evenodd" stroke="none"/>
    <path d="M305.75 182.55 L305.25 182.85 304.3 182.7 Q303.85 182.35 303.65 181.7 303.45 181.0 303.7 180.4 303.9 179.8 304.45 179.6 304.9 179.4 305.35 179.75 L305.85 180.35 305.15 180.0 304.6 180.1 Q303.7 180.5 304.2 182.05 304.75 182.65 305.4 182.45 L305.75 182.55" fill="#000000" fill-opacity="0.2901961" fill-rule="evenodd" stroke="none"/>
    <path d="M305.85 180.35 Q308.0 181.5 311.05 181.65 L310.3 181.9 305.75 182.55 305.4 182.45 Q304.75 182.65 304.2 182.05 303.7 180.5 304.6 180.1 L305.15 180.0 305.85 180.35 Z" fill="none" stroke="#000000" stroke-linecap="round" stroke-linejoin="round" stroke-opacity="0.4" stroke-width="0.05"/>
    <path d="M298.5 165.55 Q301.9 163.45 304.6 159.2 L304.3 160.55 Q302.6 164.1 300.2 166.05 L298.75 167.05 297.2 167.1 297.45 166.2 298.5 165.55" fill="#dfdfbf" fill-rule="evenodd" stroke="none"/>
    <path d="M304.3 160.55 Q303.3 164.4 301.5 167.45 L301.15 167.95 Q300.9 168.9 299.65 169.2 297.1 168.65 297.2 167.1 L298.75 167.05 300.2 166.05 Q302.6 164.1 304.3 160.55" fill="#cccc99" fill-rule="evenodd" stroke="none"/>
    <path d="M301.5 167.45 L301.65 168.35 Q301.5 169.15 300.65 169.55 L298.7 169.65 Q297.55 169.35 296.9 168.55 296.25 167.8 296.35 166.95 296.5 166.15 297.35 165.75 L298.5 165.55 297.45 166.2 297.2 167.1 Q297.1 168.65 299.65 169.2 300.9 168.9 301.15 167.95 L301.5 167.45" fill="#000000" fill-opacity="0.2901961" fill-rule="evenodd" stroke="none"/>
    <path d="M298.5 165.55 Q301.9 163.45 304.6 159.2 L304.3 160.55 Q303.3 164.4 301.5 167.45 L301.15 167.95 Q300.9 168.9 299.65 169.2 297.1 168.65 297.2 167.1 L297.45 166.2 298.5 165.55 Z" fill="none" stroke="#000000" stroke-linecap="round" stroke-linejoin="round" stroke-opacity="0.4" stroke-width="0.05"/>
    <path d="M240.7 175.35 Q242.95 177.9 245.45 178.95 L246.9 179.45 248.2 179.15 247.75 178.45 246.7 178.15 Q243.4 177.2 240.1 174.3 L240.7 175.35" fill="#dfdfbf" fill-rule="evenodd" stroke="none"/>
    <path d="M248.2 179.15 L246.9 179.45 245.45 178.95 Q242.95 177.9 240.7 175.35 242.5 178.25 244.7 180.35 L245.15 180.7 Q245.6 181.45 246.7 181.4 248.65 180.4 248.2 179.15" fill="#cccc99" fill-rule="evenodd" stroke="none"/>
    <path d="M246.7 178.15 L247.75 178.45 248.2 179.15 Q248.65 180.4 246.7 181.4 245.6 181.45 245.15 180.7 L244.7 180.35 244.8 181.15 Q245.2 181.75 245.95 181.9 246.75 182.05 247.6 181.6 L248.85 180.25 Q249.15 179.5 248.85 178.85 248.55 178.2 247.75 178.05 L246.7 178.15" fill="#000000" fill-opacity="0.2901961" fill-rule="evenodd" stroke="none"/>
    <path d="M240.7 175.35 L240.1 174.3 Q243.4 177.2 246.7 178.15 L247.75 178.45 248.2 179.15 Q248.65 180.4 246.7 181.4 245.6 181.45 245.15 180.7 L244.7 180.35 Q242.5 178.25 240.7 175.35 Z" fill="none" stroke="#000000" stroke-linecap="round" stroke-linejoin="round" stroke-opacity="0.4" stroke-width="0.05"/>
    <path d="M277.5 161.95 Q278.65 165.35 278.05 168.0 L277.5 169.4 276.15 170.25 275.75 169.5 276.15 168.45 Q277.55 165.25 276.7 160.8 L277.5 161.95" fill="#dfdfbf" fill-rule="evenodd" stroke="none"/>
    <path d="M276.15 170.25 L277.5 169.4 278.05 168.0 Q278.65 165.35 277.5 161.95 279.45 165.2 280.2 168.35 L280.25 168.85 Q280.75 169.7 279.85 170.55 277.25 171.45 276.15 170.25" fill="#cccc99" fill-rule="evenodd" stroke="none"/>
    <path d="M276.15 168.45 L275.75 169.5 276.15 170.25 Q277.25 171.45 279.85 170.55 280.75 169.7 280.25 168.85 L280.2 168.35 281.0 168.95 Q281.4 169.55 281.0 170.3 280.55 171.0 279.4 171.35 L277.0 171.45 Q275.9 171.2 275.4 170.55 274.85 169.9 275.35 169.2 275.65 168.75 276.15 168.45" fill="#000000" fill-opacity="0.2901961" fill-rule="evenodd" stroke="none"/>
    <path d="M277.5 161.95 L276.7 160.8 Q277.55 165.25 276.15 168.45 L275.75 169.5 276.15 170.25 Q277.25 171.45 279.85 170.55 280.75 169.7 280.25 168.85 L280.2 168.35 Q279.45 165.2 277.5 161.95 Z" fill="none" stroke="#000000" stroke-linecap="round" stroke-linejoin="round" stroke-opacity="0.4" stroke-width="0.05"/>
    <path d="M259.65 166.4 Q257.0 164.3 255.4 160.0 L255.4 161.35 Q256.3 164.95 258.05 166.95 L259.15 167.95 260.55 168.0 260.45 167.1 259.65 166.4" fill="#dfdfbf" fill-rule="evenodd" stroke="none"/>
    <path d="M255.4 161.35 Q255.7 165.25 256.7 168.35 L256.9 168.85 Q256.95 169.8 258.05 170.15 260.35 169.55 260.55 168.0 L259.15 167.95 258.05 166.95 Q256.3 164.95 255.4 161.35" fill="#cccc99" fill-rule="evenodd" stroke="none"/>
    <path d="M256.7 168.35 L256.4 169.25 Q256.45 170.05 257.1 170.5 L258.8 170.6 Q259.8 170.3 260.55 169.45 261.2 168.7 261.25 167.85 261.3 167.05 260.65 166.65 L259.65 166.4 260.45 167.1 260.55 168.0 Q260.35 169.55 258.05 170.15 256.95 169.8 256.9 168.85 L256.7 168.35" fill="#000000" fill-opacity="0.2901961" fill-rule="evenodd" stroke="none"/>
    <path d="M259.65 166.4 Q257.0 164.3 255.4 160.0 L255.4 161.35 Q255.7 165.25 256.7 168.35 L256.9 168.85 Q256.95 169.8 258.05 170.15 260.35 169.55 260.55 168.0 L260.45 167.1 259.65 166.4 Z" fill="none" stroke="#000000" stroke-linecap="round" stroke-linejoin="round" stroke-opacity="0.4" stroke-width="0.05"/>
    <path d="M300.3 173.1 L298.6 172.25 Q311.65 166.15 288.1 165.65 L289.9 164.05 Q306.25 165.1 306.45 168.35 L306.45 168.7 Q306.15 170.15 302.8 172.35 L300.3 173.1 M285.25 176.35 L286.05 176.2 287.75 175.85 291.85 175.0 291.85 177.1 Q278.35 180.35 264.8 181.05 L264.55 181.1 257.0 180.6 258.05 179.05 Q271.85 178.85 285.25 176.35 M286.2 163.75 L285.25 165.1 276.65 166.15 Q263.15 167.4 254.2 171.15 L251.6 170.05 Q259.5 165.25 286.2 163.75 M297.9 175.45 L293.2 176.75 293.2 174.7 295.6 174.05 297.9 175.45 M244.45 176.6 L244.45 176.5 Q244.5 174.3 248.9 171.05 L251.2 172.05 Q244.4 176.2 251.1 178.0 L251.55 178.1 253.6 178.55 251.8 179.65 Q250.65 180.25 250.05 180.15 244.5 179.05 244.45 176.6" fill="#d50000" fill-rule="evenodd" stroke="none"/>
    <path d="M288.1 165.65 Q311.65 166.15 298.6 172.25 L297.6 184.55 296.95 184.2 297.55 178.8 297.9 175.45 295.6 174.05 293.2 174.7 Q292.05 175.5 291.85 175.0 L287.75 175.85 288.1 165.65 M284.85 166.45 L285.25 176.35 Q271.85 178.85 258.05 179.05 L257.0 180.6 256.65 181.95 256.65 185.6 254.2 187.15 254.2 171.15 Q263.15 167.4 276.65 166.15 L284.85 166.45 M293.2 176.75 L290.0 181.95 291.85 177.1 Q292.35 177.45 293.2 176.75 M294.65 188.15 L290.8 183.95 295.1 187.45 296.45 188.55 Q295.9 189.15 296.45 190.15 L294.65 188.15 M292.9 207.65 Q292.1 208.25 292.85 208.85 L291.8 208.2 288.7 206.25 291.9 207.35 292.9 207.65 M292.75 210.95 Q292.05 211.6 292.7 212.55 L290.95 210.9 286.3 206.55 291.3 209.95 292.75 210.95 M289.8 225.25 Q289.05 225.8 289.65 226.6 L287.9 224.5 286.2 222.45 288.0 223.85 289.8 225.25 M289.1 228.35 L288.65 228.65 287.45 226.1 286.6 224.25 287.55 225.8 289.1 228.35 M282.4 231.75 L281.2 230.05 280.75 221.9 282.0 222.55 282.05 223.65 282.4 231.75 M280.15 225.15 Q279.6 225.9 279.85 226.25 L278.2 225.15 280.15 225.15 M273.8 241.65 L273.2 240.55 272.4 232.45 273.2 233.35 273.3 234.9 273.8 241.65 M273.0 232.25 L272.2 231.15 271.8 223.45 272.2 223.4 272.5 224.25 272.6 225.4 273.0 232.25 M261.9 232.95 L261.1 231.35 261.2 223.15 261.9 224.05 261.9 224.95 261.9 232.95 M259.1 222.85 L257.95 221.15 258.35 200.0 259.6 201.25 259.5 205.1 259.1 222.85 M251.95 197.55 L250.6 197.55 251.3 195.25 251.95 197.55 M251.2 172.05 L251.1 178.0 Q244.4 176.2 251.2 172.05" fill="#660000" fill-rule="evenodd" stroke="none"/>
    <path d="M302.8 172.35 Q306.15 170.15 306.45 168.7 305.55 173.65 305.25 179.6 304.3 186.8 302.6 187.15 301.25 186.8 300.65 177.45 L300.8 174.05 Q302.0 172.85 302.8 172.35 M297.9 175.45 L297.55 178.8 295.1 187.45 290.8 183.95 294.65 188.15 Q294.0 192.45 290.4 191.95 287.9 190.45 287.0 184.55 286.75 196.05 275.6 195.35 270.6 193.55 269.8 187.25 269.75 198.3 262.15 196.35 258.8 195.45 256.65 185.6 L256.65 181.95 264.55 181.1 264.8 181.05 Q278.35 180.35 291.85 177.1 L290.0 181.95 293.2 176.75 297.9 175.45 M293.2 174.7 L293.2 176.75 Q292.35 177.45 291.85 177.1 L291.85 175.0 Q292.05 175.5 293.2 174.7 M293.3 196.15 L293.2 199.65 291.9 207.35 288.7 206.25 291.8 208.2 291.3 209.95 286.3 206.55 290.95 210.9 Q290.0 214.8 288.3 214.75 284.9 212.95 283.4 206.45 283.55 217.55 274.05 218.65 269.3 217.05 271.15 208.0 267.55 219.5 263.2 219.25 260.75 218.3 259.5 205.1 L259.6 201.25 Q271.95 202.95 293.3 196.15 M289.8 218.55 L289.8 219.75 288.0 223.85 286.2 222.45 287.9 224.5 287.55 225.8 286.6 224.25 287.45 226.1 286.6 228.35 Q285.3 229.35 284.2 228.65 282.8 227.85 282.05 223.65 L282.0 222.55 Q286.1 221.75 289.8 218.55 M280.1 223.15 L280.15 225.15 278.2 225.15 279.85 226.25 280.15 226.45 280.15 226.95 278.6 230.2 278.25 230.45 Q274.15 233.05 272.6 225.4 L272.5 224.25 Q276.5 224.3 280.1 223.15 M280.4 232.35 L280.5 234.2 Q279.2 240.75 278.1 238.7 277.2 237.1 277.0 234.55 276.9 240.05 275.1 239.55 273.7 238.85 273.3 234.9 L273.2 233.35 Q277.15 233.9 280.4 232.35 M270.9 224.05 L270.9 225.35 Q268.8 232.9 265.4 231.35 263.0 230.1 261.9 224.95 L261.9 224.05 Q266.4 224.65 270.9 224.05 M254.2 187.15 L253.7 186.85 253.6 178.55 251.55 178.1 251.6 170.05 254.2 171.15 254.2 187.15 M244.45 182.45 L244.45 176.6 Q244.5 179.05 250.05 180.15 L251.3 181.55 251.3 184.15 Q249.7 193.55 248.45 192.35 245.55 191.95 244.45 182.45" fill="#990000" fill-rule="evenodd" stroke="none"/>
    <path d="M253.7 186.85 L253.8 196.15 251.95 197.55 251.3 195.25 251.3 184.15 251.3 181.55 251.8 179.65 253.6 178.55 253.7 186.85" fill="#d20000" fill-rule="evenodd" stroke="none"/>
    <path d="M298.6 172.25 L300.3 173.1 300.8 174.05 300.65 177.45 299.75 193.15 297.0 191.45 297.6 184.55 298.6 172.25 M284.85 166.45 L285.25 165.1 286.2 163.75 286.05 176.2 285.25 176.35 284.85 166.45 M292.3 195.55 L293.3 196.15 Q271.95 202.95 259.6 201.25 L258.35 200.0 Q275.7 201.65 292.3 195.55 M288.7 218.35 L289.8 218.55 Q286.1 221.75 282.0 222.55 L280.75 221.9 Q285.05 220.6 288.7 218.35 M279.35 222.25 L280.1 223.15 Q276.5 224.3 272.5 224.25 L272.2 223.4 279.35 222.25 M279.75 231.65 L280.4 232.35 Q277.15 233.9 273.2 233.35 L272.4 232.45 276.6 232.35 279.75 231.65 M270.5 223.5 L270.9 224.05 Q266.4 224.65 261.9 224.05 L261.2 223.15 270.5 223.5" fill="#cc0000" fill-rule="evenodd" stroke="none"/>
    <path d="M300.3 173.1 L302.8 172.35 Q302.0 172.85 300.8 174.05 L300.3 173.1 M285.25 165.1 L284.85 166.45 276.65 166.15 285.25 165.1 M264.55 181.1 L256.65 181.95 257.0 180.6 264.55 181.1 M251.8 179.65 L251.3 181.55 250.05 180.15 Q250.65 180.25 251.8 179.65" fill="#ff0000" fill-rule="evenodd" stroke="none"/>
    <path d="M299.75 193.15 L300.65 177.45 Q301.25 186.8 302.6 187.15 304.3 186.8 305.25 179.6 305.1 183.0 305.1 186.75 305.25 188.3 299.8 193.15 L299.75 193.15 M256.65 185.6 Q258.8 195.45 262.15 196.35 269.75 198.3 269.8 187.25 270.6 193.55 275.6 195.35 286.75 196.05 287.0 184.55 287.9 190.45 290.4 191.95 294.0 192.45 294.65 188.15 L296.45 190.15 295.8 194.15 292.3 195.55 Q275.7 201.65 258.35 200.0 L257.25 199.85 257.2 199.85 256.65 185.6 M295.1 187.45 L297.55 178.8 296.95 184.2 296.45 188.55 295.1 187.45 M293.2 199.65 L292.9 207.65 291.9 207.35 293.2 199.65 M292.85 208.85 L292.75 210.95 291.3 209.95 291.8 208.2 292.85 208.85 M292.7 212.55 L292.6 215.45 288.7 218.35 Q285.05 220.6 280.75 221.9 L279.35 222.25 272.2 223.4 271.8 223.45 270.5 223.5 261.2 223.15 259.1 222.85 259.5 205.1 Q260.75 218.3 263.2 219.25 267.55 219.5 271.15 208.0 269.3 217.05 274.05 218.65 283.55 217.55 283.4 206.45 284.9 212.95 288.3 214.75 290.0 214.8 290.95 210.9 L292.7 212.55 M289.8 219.75 L289.8 225.25 288.0 223.85 289.8 219.75 M289.65 226.6 L289.8 226.75 289.8 227.75 289.1 228.35 287.55 225.8 287.9 224.5 289.65 226.6 M288.65 228.65 Q285.75 230.7 282.4 231.75 L282.05 223.65 Q282.8 227.85 284.2 228.65 285.3 229.35 286.6 228.35 L287.45 226.1 288.65 228.65 M280.15 226.95 L280.2 231.45 279.75 231.65 276.6 232.35 273.0 232.25 272.6 225.4 Q274.15 233.05 278.25 230.45 L278.6 230.2 280.15 226.95 M280.5 234.2 L280.8 240.25 Q277.6 242.05 273.8 241.65 L273.3 234.9 Q273.7 238.85 275.1 239.55 276.9 240.05 277.0 234.55 277.2 237.1 278.1 238.7 279.2 240.75 280.5 234.2 M270.9 225.35 L270.9 232.35 Q266.4 233.75 261.9 232.95 L261.9 224.95 Q263.0 230.1 265.4 231.35 268.8 232.9 270.9 225.35 M250.6 197.55 Q244.9 195.25 244.4 191.65 L244.45 182.45 Q245.55 191.95 248.45 192.35 249.7 193.55 251.3 184.15 L251.3 195.25 250.6 197.55" fill="#ff9900" fill-rule="evenodd" stroke="none"/>
    <path d="M306.45 168.7 L306.45 168.35 Q306.25 165.1 289.9 164.05 L288.1 165.65 Q311.65 166.15 298.6 172.25 L297.6 184.55 297.0 191.45 299.75 193.15 299.8 193.15 299.75 193.15 299.8 193.15 Q305.25 188.3 305.1 186.75 305.1 183.0 305.25 179.6 305.55 173.65 306.45 168.7 M285.25 176.35 L286.05 176.2 286.2 163.75 Q259.5 165.25 251.6 170.05 L251.55 178.1 251.1 178.0 Q244.4 176.2 251.2 172.05 L251.1 178.0 M297.55 178.8 L297.9 175.45 295.6 174.05 293.2 174.7 Q292.05 175.5 291.85 175.0 L287.75 175.85 286.05 176.2 M256.65 181.95 L256.65 185.6 254.2 187.15 253.7 186.85 253.8 196.15 251.95 197.55 250.6 197.55 Q244.9 195.25 244.4 191.65 L244.45 182.45 244.45 176.6 244.45 176.5 Q244.5 174.3 248.9 171.05 L251.2 172.05 M297.55 178.8 L296.95 184.2 297.6 184.55 M296.45 188.55 Q295.9 189.15 296.45 190.15 L295.8 194.15 292.3 195.55 293.3 196.15 293.2 199.65 292.9 207.65 Q292.1 208.25 292.85 208.85 L292.75 210.95 Q292.05 211.6 292.7 212.55 L292.6 215.45 288.7 218.35 289.8 218.55 289.8 219.75 289.8 225.25 Q289.05 225.8 289.65 226.6 L289.8 226.75 289.8 227.75 289.1 228.35 288.65 228.65 Q285.75 230.7 282.4 231.75 L281.2 230.05 280.75 221.9 279.35 222.25 280.1 223.15 280.15 225.15 Q279.6 225.9 279.85 226.25 L280.15 226.45 280.15 226.95 280.2 231.45 279.75 231.65 280.4 232.35 280.5 234.2 280.8 240.25 Q277.6 242.05 273.8 241.65 L273.2 240.55 272.4 232.45 276.6 232.35 273.0 232.25 272.2 231.15 271.8 223.45 270.5 223.5 270.9 224.05 270.9 225.35 270.9 232.35 Q266.4 233.75 261.9 232.95 L261.1 231.35 261.2 223.15 259.1 222.85 257.95 221.15 258.35 200.0 257.25 199.85 257.2 199.85 256.65 185.6 M296.95 184.2 L296.45 188.55 M288.1 165.65 L287.75 175.85 M253.6 178.55 L251.55 178.1 M285.25 176.35 Q271.85 178.85 258.05 179.05 L257.0 180.6 256.65 181.95 M253.7 186.85 L253.6 178.55 M272.2 223.4 L271.8 223.45 M276.6 232.35 L279.75 231.65 M270.5 223.5 L261.2 223.15 M279.35 222.25 L272.2 223.4 M258.35 200.0 Q275.7 201.65 292.3 195.55 M288.7 218.35 Q285.05 220.6 280.75 221.9" fill="none" stroke="#000000" stroke-linecap="round" stroke-linejoin="round" stroke-opacity="0.4" stroke-width="0.05"/>
    <path d="M251.75 191.6 L257.1 193.1 257.1 194.7 252.55 193.35 Q251.9 193.1 251.8 192.7 251.65 192.3 251.75 191.6" fill="#666666" fill-rule="evenodd" stroke="none"/>
    <path d="M257.1 193.1 L251.75 191.6 Q252.2 190.7 253.85 191.3 L257.1 192.25 257.1 193.1" fill="#cccccc" fill-rule="evenodd" stroke="none"/>
    <path d="M251.75 191.6 Q251.65 192.3 251.8 192.7 251.9 193.1 252.55 193.35 L257.1 194.7 M257.1 192.25 L253.85 191.3 Q252.2 190.7 251.75 191.6" fill="none" stroke="#000000" stroke-linecap="round" stroke-linejoin="round" stroke-opacity="0.4" stroke-width="0.05"/>
    <path d="M251.75 183.25 L256.8 184.75 256.8 186.35 252.5 185.0 251.8 184.35 Q251.65 183.95 251.75 183.25" fill="#666666" fill-rule="evenodd" stroke="none"/>
    <path d="M256.8 184.75 L251.75 183.25 Q252.2 182.35 253.75 182.95 L256.8 183.9 256.8 184.75" fill="#cccccc" fill-rule="evenodd" stroke="none"/>
    <path d="M251.75 183.25 Q251.65 183.95 251.8 184.35 L252.5 185.0 256.8 186.35 M256.8 183.9 L253.75 182.95 Q252.2 182.35 251.75 183.25" fill="none" stroke="#000000" stroke-linecap="round" stroke-linejoin="round" stroke-opacity="0.4" stroke-width="0.05"/>
    <path d="M300.15 178.85 L297.5 179.65 297.3 181.25 299.55 180.5 300.0 179.9 300.15 178.85" fill="#666666" fill-rule="evenodd" stroke="none"/>
    <path d="M297.5 179.65 L300.15 178.85 Q300.0 177.85 299.2 178.25 L297.6 178.8 297.5 179.65" fill="#cccccc" fill-rule="evenodd" stroke="none"/>
    <path d="M300.15 178.85 L300.0 179.9 299.55 180.5 297.3 181.25 M297.6 178.8 L299.2 178.25 Q300.0 177.85 300.15 178.85" fill="none" stroke="#000000" stroke-linecap="round" stroke-linejoin="round" stroke-opacity="0.4" stroke-width="0.05"/>
    <path d="M296.55 188.15 L296.35 189.75 298.6 189.0 299.05 188.4 299.2 187.35 296.55 188.15" fill="#666666" fill-rule="evenodd" stroke="none"/>
    <path d="M299.2 187.35 Q299.05 186.35 298.25 186.75 L296.65 187.3 296.55 188.15 299.2 187.35" fill="#cccccc" fill-rule="evenodd" stroke="none"/>
    <path d="M299.2 187.35 Q299.05 186.35 298.25 186.75 L296.65 187.3 M296.35 189.75 L298.6 189.0 299.05 188.4 299.2 187.35" fill="none" stroke="#000000" stroke-linecap="round" stroke-linejoin="round" stroke-opacity="0.4" stroke-width="0.05"/>
    <path d="M287.85 169.05 L287.95 170.75 285.65 170.4 285.3 169.85 285.2 168.75 287.85 169.05" fill="#666666" fill-rule="evenodd" stroke="none"/>
    <path d="M285.2 168.75 Q285.4 167.65 286.25 167.95 L287.8 168.2 287.85 169.05 285.2 168.75" fill="#cccccc" fill-rule="evenodd" stroke="none"/>
    <path d="M285.2 168.75 Q285.4 167.65 286.25 167.95 L287.8 168.2 M287.95 170.75 L285.65 170.4 285.3 169.85 285.2 168.75" fill="none" stroke="#000000" stroke-linecap="round" stroke-linejoin="round" stroke-opacity="0.4" stroke-width="0.05"/>
    <path d="M251.05 174.95 L251.0 176.55 252.9 175.7 253.25 175.1 253.35 174.0 251.05 174.95" fill="#666666" fill-rule="evenodd" stroke="none"/>
    <path d="M253.35 174.0 Q253.2 173.05 252.45 173.45 L251.1 174.05 251.05 174.95 253.35 174.0" fill="#cccccc" fill-rule="evenodd" stroke="none"/>
    <path d="M253.35 174.0 Q253.2 173.05 252.45 173.45 L251.1 174.05 M251.0 176.55 L252.9 175.7 253.25 175.1 253.35 174.0" fill="none" stroke="#000000" stroke-linecap="round" stroke-linejoin="round" stroke-opacity="0.4" stroke-width="0.05"/>
    <path d="M265.3 200.35 L266.3 200.35 266.35 201.2 265.7 201.3 265.4 201.15 265.3 200.35" fill="#666666" fill-rule="evenodd" stroke="none"/>
    <path d="M266.35 201.2 L266.3 200.35 266.85 200.35 266.85 200.65 Q266.95 201.0 266.35 201.2" fill="#cccccc" fill-rule="evenodd" stroke="none"/>
    <path d="M265.3 200.35 L265.4 201.15 265.7 201.3 266.35 201.2 Q266.95 201.0 266.85 200.65 L266.85 200.35" fill="none" stroke="#000000" stroke-linecap="round" stroke-linejoin="round" stroke-opacity="0.4" stroke-width="0.05"/>
    <path d="M286.8 197.8 L286.2 198.05 285.9 198.0 285.85 197.85 285.8 197.65 286.7 197.45 286.8 197.8" fill="#666666" fill-rule="evenodd" stroke="none"/>
    <path d="M286.8 197.8 L286.7 197.45 286.65 197.3 287.2 197.15 Q287.35 197.4 286.8 197.8" fill="#cccccc" fill-rule="evenodd" stroke="none"/>
    <path d="M285.8 197.65 L285.85 197.85 285.9 198.0 286.2 198.05 286.8 197.8 Q287.35 197.4 287.2 197.15" fill="none" stroke="#000000" stroke-linecap="round" stroke-linejoin="round" stroke-opacity="0.4" stroke-width="0.05"/>
    <path d="M265.45 223.5 L266.4 223.5 266.45 224.1 265.8 224.2 265.5 224.05 265.45 223.5" fill="#666666" fill-rule="evenodd" stroke="none"/>
    <path d="M266.45 224.1 L266.4 223.5 266.95 223.5 266.95 223.55 Q267.05 223.9 266.45 224.1" fill="#cccccc" fill-rule="evenodd" stroke="none"/>
    <path d="M265.45 223.5 L265.5 224.05 265.8 224.2 266.45 224.1 Q267.05 223.9 266.95 223.55 L266.95 223.5" fill="none" stroke="#000000" stroke-linecap="round" stroke-linejoin="round" stroke-opacity="0.4" stroke-width="0.05"/>
    <path d="M276.0 222.9 L276.2 223.5 Q275.75 223.65 275.55 223.75 L275.25 223.7 275.05 223.15 276.0 222.9" fill="#666666" fill-rule="evenodd" stroke="none"/>
    <path d="M276.0 222.9 L276.55 222.8 276.55 222.85 Q276.7 223.15 276.2 223.5 L276.0 222.9" fill="#cccccc" fill-rule="evenodd" stroke="none"/>
    <path d="M276.2 223.5 Q276.7 223.15 276.55 222.85 L276.55 222.8 M275.05 223.15 L275.25 223.7 275.55 223.75 Q275.75 223.65 276.2 223.5" fill="none" stroke="#000000" stroke-linecap="round" stroke-linejoin="round" stroke-opacity="0.4" stroke-width="0.05"/>
    <path d="M284.6 220.5 L285.45 220.15 285.7 220.65 285.15 221.0 284.8 221.0 284.6 220.5" fill="#666666" fill-rule="evenodd" stroke="none"/>
    <path d="M285.7 220.65 L285.45 220.15 285.95 219.9 285.95 219.95 Q286.2 220.25 285.7 220.65" fill="#cccccc" fill-rule="evenodd" stroke="none"/>
    <path d="M284.6 220.5 L284.8 221.0 285.15 221.0 285.7 220.65 Q286.2 220.25 285.95 219.95 L285.95 219.9" fill="none" stroke="#000000" stroke-linecap="round" stroke-linejoin="round" stroke-opacity="0.4" stroke-width="0.05"/>
    <path d="M276.75 232.4 L276.9 232.95 276.25 233.15 275.95 233.05 275.8 232.5 276.75 232.4" fill="#666666" fill-rule="evenodd" stroke="none"/>
    <path d="M276.75 232.4 L277.3 232.3 277.3 232.35 Q277.45 232.7 276.9 232.95 L276.75 232.4" fill="#cccccc" fill-rule="evenodd" stroke="none"/>
    <path d="M276.9 232.95 Q277.45 232.7 277.3 232.35 L277.3 232.3 M275.8 232.5 L275.95 233.05 276.25 233.15 276.9 232.95" fill="none" stroke="#000000" stroke-linecap="round" stroke-linejoin="round" stroke-opacity="0.4" stroke-width="0.05"/>
    <path d="M299.5 188.15 Q295.45 188.15 292.45 186.85 L290.8 186.0 289.95 184.65 290.9 184.55 292.05 185.15 Q295.65 187.25 300.95 187.85 L299.5 188.15" fill="#dfdfbf" fill-rule="evenodd" stroke="none"/>
    <path d="M289.95 184.65 L290.8 186.0 292.45 186.85 Q295.45 188.15 299.5 188.15 L291.8 188.55 291.15 188.45 Q290.2 188.65 289.25 187.65 288.5 185.2 289.95 184.65" fill="#cccc99" fill-rule="evenodd" stroke="none"/>
    <path d="M292.05 185.15 L290.9 184.55 289.95 184.65 Q288.5 185.2 289.25 187.65 290.2 188.65 291.15 188.45 L291.8 188.55 291.05 189.05 Q290.2 189.2 289.4 188.65 288.6 188.05 288.4 187.0 288.1 185.9 288.5 185.0 288.85 184.15 289.65 183.9 290.45 183.65 291.25 184.25 L292.05 185.15" fill="#000000" fill-opacity="0.2901961" fill-rule="evenodd" stroke="none"/>
    <path d="M299.5 188.15 L300.95 187.85 Q295.65 187.25 292.05 185.15 L290.9 184.55 289.95 184.65 Q288.5 185.2 289.25 187.65 290.2 188.65 291.15 188.45 L291.8 188.55 299.5 188.15 Z" fill="none" stroke="#000000" stroke-linecap="round" stroke-linejoin="round" stroke-opacity="0.4" stroke-width="0.05"/>
    <path d="M280.5 181.75 Q284.0 181.35 287.4 178.45 L286.85 179.6 Q284.45 182.35 281.9 183.15 L280.35 183.4 278.95 182.65 279.45 181.9 280.5 181.75" fill="#dfdfbf" fill-rule="evenodd" stroke="none"/>
    <path d="M286.85 179.6 Q284.95 183.0 282.65 185.15 L282.2 185.5 Q281.75 186.35 280.55 186.0 278.5 184.2 278.95 182.65 L280.35 183.4 281.9 183.15 Q284.45 182.35 286.85 179.6" fill="#cccc99" fill-rule="evenodd" stroke="none"/>
    <path d="M282.65 185.15 L282.55 186.15 Q282.15 186.85 281.35 186.85 280.5 186.8 279.65 186.0 278.75 185.1 278.35 184.0 278.0 182.9 278.35 182.1 278.6 181.35 279.5 181.35 L280.5 181.75 279.45 181.9 278.95 182.65 Q278.5 184.2 280.55 186.0 281.75 186.35 282.2 185.5 L282.65 185.15" fill="#000000" fill-opacity="0.2901961" fill-rule="evenodd" stroke="none"/>
    <path d="M280.5 181.75 Q284.0 181.35 287.4 178.45 L286.85 179.6 Q284.95 183.0 282.65 185.15 L282.2 185.5 Q281.75 186.35 280.55 186.0 278.5 184.2 278.95 182.65 L279.45 181.9 280.5 181.75 Z" fill="none" stroke="#000000" stroke-linecap="round" stroke-linejoin="round" stroke-opacity="0.4" stroke-width="0.05"/>
    <path d="M262.7 178.45 Q263.0 182.7 263.85 185.5 L264.35 186.95 265.05 187.4 265.05 186.35 264.65 185.35 Q263.4 182.25 262.7 176.95 L262.7 178.45" fill="#dfdfbf" fill-rule="evenodd" stroke="none"/>
    <path d="M265.05 187.4 L264.35 186.95 263.85 185.5 Q263.0 182.7 262.7 178.45 262.7 182.9 263.1 186.65 L263.2 187.3 Q263.2 188.4 263.7 189.0 264.9 189.1 265.05 187.4" fill="#cccc99" fill-rule="evenodd" stroke="none"/>
    <path d="M264.65 185.35 L265.05 186.35 265.05 187.4 Q264.9 189.1 263.7 189.0 263.2 188.4 263.2 187.3 L263.1 186.65 Q262.95 187.1 262.95 187.55 262.9 188.5 263.25 189.15 263.6 189.8 264.1 189.75 264.65 189.7 265.0 189.05 265.4 188.4 265.45 187.45 265.5 186.55 265.2 185.85 L264.65 185.35" fill="#000000" fill-opacity="0.2901961" fill-rule="evenodd" stroke="none"/>
    <path d="M262.7 178.45 L262.7 176.95 Q263.4 182.25 264.65 185.35 L265.05 186.35 265.05 187.4 Q264.9 189.1 263.7 189.0 263.2 188.4 263.2 187.3 L263.1 186.65 Q262.7 182.9 262.7 178.45 Z" fill="none" stroke="#000000" stroke-linecap="round" stroke-linejoin="round" stroke-opacity="0.4" stroke-width="0.05"/>
    <path d="M246.7 184.2 Q242.65 183.45 237.75 181.0 L238.8 181.9 Q242.45 184.05 245.65 184.9 L247.5 185.3 248.8 185.0 248.0 184.45 246.7 184.2" fill="#dfdfbf" fill-rule="evenodd" stroke="none"/>
    <path d="M238.8 181.9 Q242.1 184.4 245.45 186.2 L246.05 186.5 Q246.9 187.15 248.1 187.05 249.85 186.1 248.8 185.0 L247.5 185.3 245.65 184.9 Q242.45 184.05 238.8 181.9" fill="#cccc99" fill-rule="evenodd" stroke="none"/>
    <path d="M245.45 186.2 Q245.6 186.6 245.9 186.85 246.55 187.4 247.5 187.5 L249.2 187.2 Q249.9 186.7 250.0 185.95 250.05 185.3 249.35 184.75 248.8 184.15 247.8 184.05 L246.7 184.2 248.0 184.45 248.8 185.0 Q249.85 186.1 248.1 187.05 246.9 187.15 246.05 186.5 L245.45 186.2" fill="#000000" fill-opacity="0.2901961" fill-rule="evenodd" stroke="none"/>
    <path d="M246.7 184.2 Q242.65 183.45 237.75 181.0 L238.8 181.9 Q242.1 184.4 245.45 186.2 L246.05 186.5 Q246.9 187.15 248.1 187.05 249.85 186.1 248.8 185.0 L248.0 184.45 246.7 184.2 Z" fill="none" stroke="#000000" stroke-linecap="round" stroke-linejoin="round" stroke-opacity="0.4" stroke-width="0.05"/>
    <path d="M311.3 172.2 Q308.05 174.45 305.0 174.9 L303.25 175.05 301.8 174.3 Q302.05 173.95 302.55 173.65 L303.75 173.6 Q307.75 173.5 312.2 171.2 L311.3 172.2" fill="#dfdfbf" fill-rule="evenodd" stroke="none"/>
    <path d="M301.8 174.3 L303.25 175.05 305.0 174.9 Q308.05 174.45 311.3 172.2 308.45 175.0 305.4 176.75 L304.85 177.0 Q304.15 177.75 302.9 177.35 300.95 175.6 301.8 174.3" fill="#cccc99" fill-rule="evenodd" stroke="none"/>
    <path d="M303.75 173.6 L302.55 173.65 Q302.05 173.95 301.8 174.3 300.95 175.6 302.9 177.35 304.15 177.75 304.85 177.0 L305.4 176.75 305.1 177.65 Q304.5 178.2 303.6 178.15 302.65 178.05 301.85 177.25 301.05 176.45 300.85 175.4 300.65 174.45 301.2 173.75 301.7 173.1 302.65 173.2 L303.75 173.6" fill="#000000" fill-opacity="0.2901961" fill-rule="evenodd" stroke="none"/>
    <path d="M311.3 172.2 L312.2 171.2 Q307.75 173.5 303.75 173.6 L302.55 173.65 Q302.05 173.95 301.8 174.3 300.95 175.6 302.9 177.35 304.15 177.75 304.85 177.0 L305.4 176.75 Q308.45 175.0 311.3 172.2 Z" fill="none" stroke="#000000" stroke-linecap="round" stroke-linejoin="round" stroke-opacity="0.4" stroke-width="0.05"/>
    <path d="M285.85 205.1 Q283.4 205.25 281.65 204.6 L280.65 204.15 280.15 203.3 280.7 203.2 281.4 203.55 Q283.55 204.7 286.6 204.85 L285.85 205.1" fill="#dfdfbf" fill-rule="evenodd" stroke="none"/>
    <path d="M280.15 203.3 L280.65 204.15 281.65 204.6 Q283.4 205.25 285.85 205.1 L281.3 205.75 280.95 205.65 Q280.3 205.85 279.75 205.25 279.25 203.7 280.15 203.3" fill="#cccc99" fill-rule="evenodd" stroke="none"/>
    <path d="M281.4 203.55 L280.7 203.2 280.15 203.3 Q279.25 203.7 279.75 205.25 280.3 205.85 280.95 205.65 L281.3 205.75 280.8 206.05 279.85 205.9 Q279.4 205.55 279.2 204.9 279.0 204.2 279.25 203.6 279.45 203.0 280.0 202.8 280.45 202.6 280.9 202.95 L281.4 203.55" fill="#000000" fill-opacity="0.2901961" fill-rule="evenodd" stroke="none"/>
    <path d="M285.85 205.1 L286.6 204.85 Q283.55 204.7 281.4 203.55 L280.7 203.2 280.15 203.3 Q279.25 203.7 279.75 205.25 280.3 205.85 280.95 205.65 L281.3 205.75 285.85 205.1 Z" fill="none" stroke="#000000" stroke-linecap="round" stroke-linejoin="round" stroke-opacity="0.4" stroke-width="0.05"/>
    <path d="M287.95 211.3 Q292.15 211.3 297.0 209.2 L295.95 210.15 Q292.4 212.2 289.15 212.6 L287.3 212.65 285.9 211.9 286.7 211.35 287.95 211.3" fill="#dfdfbf" fill-rule="evenodd" stroke="none"/>
    <path d="M295.95 210.15 Q292.8 212.8 289.45 214.35 L288.85 214.6 Q288.1 215.25 286.8 214.9 284.9 213.15 285.9 211.9 L287.3 212.65 289.15 212.6 Q292.4 212.2 295.95 210.15" fill="#cccc99" fill-rule="evenodd" stroke="none"/>
    <path d="M289.45 214.35 L289.05 215.2 Q288.4 215.75 287.45 215.65 286.45 215.55 285.7 214.75 284.9 213.95 284.8 212.95 284.7 212.0 285.3 211.4 285.85 210.8 286.85 210.9 L287.95 211.3 286.7 211.35 285.9 211.9 Q284.9 213.15 286.8 214.9 288.1 215.25 288.85 214.6 L289.45 214.35" fill="#000000" fill-opacity="0.2901961" fill-rule="evenodd" stroke="none"/>
    <path d="M287.95 211.3 Q292.15 211.3 297.0 209.2 L295.95 210.15 Q292.8 212.8 289.45 214.35 L288.85 214.6 Q288.1 215.25 286.8 214.9 284.9 213.15 285.9 211.9 L286.7 211.35 287.95 211.3 Z" fill="none" stroke="#000000" stroke-linecap="round" stroke-linejoin="round" stroke-opacity="0.4" stroke-width="0.05"/>
    <path d="M261.0 217.4 Q258.85 216.65 256.25 214.05 L256.85 215.0 Q258.75 217.3 260.45 218.2 L261.4 218.6 262.05 218.25 261.65 217.65 261.0 217.4" fill="#dfdfbf" fill-rule="evenodd" stroke="none"/>
    <path d="M256.85 215.0 Q258.6 217.7 260.4 219.6 L260.75 219.9 Q261.15 220.55 261.75 220.45 262.65 219.45 262.05 218.25 L261.4 218.6 260.45 218.2 Q258.75 217.3 256.85 215.0" fill="#cccc99" fill-rule="evenodd" stroke="none"/>
    <path d="M260.4 219.6 L260.65 220.3 Q261.0 220.85 261.5 221.0 262.0 221.05 262.35 220.55 262.7 220.1 262.7 219.3 262.75 218.55 262.4 217.95 262.05 217.35 261.55 217.3 L261.0 217.4 261.65 217.65 262.05 218.25 Q262.65 219.45 261.75 220.45 261.15 220.55 260.75 219.9 L260.4 219.6" fill="#000000" fill-opacity="0.2901961" fill-rule="evenodd" stroke="none"/>
    <path d="M261.0 217.4 Q258.85 216.65 256.25 214.05 L256.85 215.0 Q258.6 217.7 260.4 219.6 L260.75 219.9 Q261.15 220.55 261.75 220.45 262.65 219.45 262.05 218.25 L261.65 217.65 261.0 217.4 Z" fill="none" stroke="#000000" stroke-linecap="round" stroke-linejoin="round" stroke-opacity="0.4" stroke-width="0.05"/>
  </g>
</svg>
