<?xml version="1.0" encoding="UTF-8" standalone="no"?>
<svg xmlns:xlink="http://www.w3.org/1999/xlink" height="87.75px" width="71.3px" xmlns="http://www.w3.org/2000/svg">
  <g transform="matrix(1.0, 0.0, 0.0, 1.0, -239.3, -156.6)">
    <path d="M283.1 239.85 L287.7 229.1 283.85 243.05 283.1 239.85 M293.8 231.25 L294.65 228.5 292.75 220.9 295.65 227.65 295.65 230.2 Q294.95 229.5 293.8 231.25 M274.85 161.95 L276.05 162.5 274.65 161.9 274.85 161.95" fill="#243648" fill-rule="evenodd" stroke="none"/>
    <path d="M241.3 205.35 L241.35 196.35 243.75 209.5 Q242.3 204.9 241.3 205.35" fill="#324d65" fill-rule="evenodd" stroke="none"/>
    <path d="M280.15 199.55 Q278.75 200.6 277.55 202.3 L277.35 202.5 274.15 199.95 Q273.8 197.25 275.4 195.55 273.8 197.25 274.15 199.95 L270.9 197.35 Q271.0 195.05 272.8 193.35 271.0 195.05 270.9 197.35 268.3 193.9 270.9 191.75 L272.8 193.35 Q272.0 195.85 275.4 195.55 274.5 198.15 278.65 198.3 L280.15 199.55 M278.65 198.3 Q277.4 200.05 277.55 202.3 277.4 200.05 278.65 198.3" fill="#6d4f29" fill-rule="evenodd" stroke="none"/>
    <path d="M307.5 219.3 L293.9 201.5 302.6 216.5 307.5 219.3 M304.55 234.55 L306.45 226.25 303.3 226.25 299.45 227.65 Q297.6 228.6 295.65 230.2 L295.65 227.65 292.75 220.9 294.65 228.5 293.8 231.25 Q289.5 235.9 284.15 244.35 L283.85 243.05 287.7 229.1 283.1 239.85 272.65 243.3 Q279.85 240.15 283.1 234.25 L285.2 224.85 281.0 220.0 274.95 207.35 Q276.0 204.5 277.4 202.55 L277.55 202.3 Q278.75 200.6 280.15 199.55 L281.15 198.9 Q282.25 198.3 283.45 198.05 L288.65 195.95 Q295.45 197.55 302.25 201.85 304.8 210.7 310.6 218.95 305.65 226.6 307.15 239.8 L304.55 234.55 M288.8 206.25 Q294.8 211.75 295.2 219.5 296.35 222.5 297.3 219.1 296.45 209.5 289.2 205.0 286.15 203.15 288.8 206.25" fill="url(#gradient0)" fill-rule="evenodd" stroke="none"/>
    <path d="M265.4 165.8 Q265.4 165.15 264.9 164.65 264.45 164.2 263.8 164.2 263.15 164.2 262.65 164.65 262.2 165.15 262.2 165.8 262.2 166.45 262.65 166.9 263.15 167.4 263.8 167.4 264.45 167.4 264.9 166.9 265.4 166.45 265.4 165.8 M275.05 177.15 Q275.75 182.05 267.65 194.3 265.15 196.8 262.05 198.3 L261.2 198.65 Q259.95 197.9 259.45 192.95 L259.45 199.3 258.1 199.65 255.65 199.95 255.65 195.3 254.15 199.85 253.85 199.8 Q252.1 199.5 250.5 198.65 245.25 195.95 244.15 189.05 243.05 182.2 246.8 175.15 250.5 168.1 256.8 165.05 263.15 162.05 268.4 164.75 272.05 166.65 273.65 170.55 274.35 172.25 275.05 177.15 M255.9 167.4 Q245.9 174.4 245.6 185.15 245.5 189.65 247.2 184.8 249.45 174.75 257.65 169.45 260.2 166.3 255.9 167.4" fill="url(#gradient1)" fill-rule="evenodd" stroke="none"/>
    <path d="M277.4 202.55 Q276.0 204.5 274.95 207.35 271.2 211.1 266.5 213.4 260.0 216.6 254.25 215.65 251.6 215.2 249.15 213.95 245.9 212.25 243.75 209.5 L241.35 196.35 241.3 205.35 Q240.15 202.65 239.65 199.35 238.05 188.95 243.6 178.3 249.2 167.65 258.65 163.0 266.1 159.4 272.55 161.15 280.8 161.1 278.65 157.65 L277.8 156.6 Q278.75 157.15 279.25 157.65 280.25 158.65 279.6 159.65 278.2 161.45 274.85 161.95 L274.65 161.9 Q281.6 165.55 283.95 171.3 L284.2 171.95 Q285.45 175.0 289.6 178.05 L285.35 176.1 285.5 177.0 285.7 178.55 Q286.5 183.45 288.75 186.85 L285.8 183.8 Q285.35 190.4 282.1 197.05 L281.6 196.65 280.85 196.1 277.95 193.9 275.1 191.75 270.9 191.75 Q268.3 193.9 270.9 197.35 L274.15 199.95 277.35 202.5 277.4 202.55 M275.05 177.15 Q274.35 172.25 273.65 170.55 272.05 166.65 268.4 164.75 263.15 162.05 256.8 165.05 250.5 168.1 246.8 175.15 243.05 182.2 244.15 189.05 245.25 195.95 250.5 198.65 252.1 199.5 253.85 199.8 L254.15 199.85 255.65 195.3 255.65 199.95 258.1 199.65 259.45 199.3 259.45 192.95 Q259.95 197.9 261.2 198.65 L262.05 198.3 Q265.15 196.8 267.65 194.3 275.75 182.05 275.05 177.15" fill="url(#gradient2)" fill-rule="evenodd" stroke="none"/>
    <path d="M274.95 207.35 L281.0 220.0 285.2 224.85 283.1 234.25 Q279.85 240.15 272.65 243.3 L260.1 238.8 264.65 238.8 Q271.3 236.8 270.2 230.8 L270.2 223.1 Q270.7 216.05 274.75 207.8 L274.95 207.35" fill="url(#gradient3)" fill-rule="evenodd" stroke="none"/>
    <path d="M303.3 226.25 L306.45 226.25 304.55 234.55 303.3 226.25" fill="url(#gradient4)" fill-rule="evenodd" stroke="none"/>
    <path d="M307.5 219.3 L302.6 216.5 293.9 201.5 307.5 219.3" fill="url(#gradient5)" fill-rule="evenodd" stroke="none"/>
    <path d="M255.9 167.4 Q260.2 166.3 257.65 169.45 249.45 174.75 247.2 184.8 245.5 189.65 245.6 185.15 245.9 174.4 255.9 167.4" fill="url(#gradient6)" fill-rule="evenodd" stroke="none"/>
    <path d="M265.4 165.8 Q265.4 166.45 264.9 166.9 264.45 167.4 263.8 167.4 263.15 167.4 262.65 166.9 262.2 166.45 262.2 165.8 262.2 165.15 262.65 164.65 263.15 164.2 263.8 164.2 264.45 164.2 264.9 164.65 265.4 165.15 265.4 165.8" fill="url(#gradient7)" fill-rule="evenodd" stroke="none"/>
    <path d="M288.8 206.25 Q286.15 203.15 289.2 205.0 296.45 209.5 297.3 219.1 296.35 222.5 295.2 219.5 294.8 211.75 288.8 206.25" fill="url(#gradient8)" fill-rule="evenodd" stroke="none"/>
    <path d="M275.4 195.55 Q276.35 194.55 277.95 193.9 L280.85 196.1 Q279.45 197.1 278.65 198.3 274.5 198.15 275.4 195.55" fill="url(#gradient9)" fill-rule="evenodd" stroke="none"/>
    <path d="M275.1 191.75 L277.95 193.9 Q276.35 194.55 275.4 195.55 272.0 195.85 272.8 193.35 273.75 192.5 275.1 191.75" fill="url(#gradient10)" fill-rule="evenodd" stroke="none"/>
    <path d="M275.1 191.75 Q273.75 192.5 272.8 193.35 L270.9 191.75 275.1 191.75" fill="url(#gradient11)" fill-rule="evenodd" stroke="none"/>
    <path d="M283.45 198.05 Q282.25 198.3 281.15 198.9 L280.15 199.55 278.65 198.3 Q279.45 197.1 280.85 196.1 L281.6 196.65 283.45 198.05" fill="url(#gradient12)" fill-rule="evenodd" stroke="none"/>
    <path d="M284.15 244.35 Q289.5 235.9 293.8 231.25 294.95 229.5 295.65 230.2 297.6 228.6 299.45 227.65 M285.35 176.1 L285.5 177.0 285.7 178.55 M285.8 183.8 Q285.35 190.4 282.1 197.05 M274.65 161.9 Q281.6 165.55 283.95 171.3 L284.2 171.95 M272.55 161.15 Q266.1 159.4 258.65 163.0 249.2 167.65 243.6 178.3 238.05 188.95 239.65 199.35 240.15 202.65 241.3 205.35 242.3 204.9 243.75 209.5 245.9 212.25 249.15 213.95 251.6 215.2 254.25 215.65 260.0 216.6 266.5 213.4 271.2 211.1 274.95 207.35" fill="none" stroke="#000000" stroke-linecap="round" stroke-linejoin="round" stroke-opacity="0.4117647" stroke-width="0.05"/>
    <path d="M303.3 226.25 L306.45 226.25 304.55 234.55 307.15 239.8 Q305.65 226.6 310.6 218.95 304.8 210.7 302.25 201.85 295.45 197.55 288.65 195.95 L283.45 198.05 Q282.25 198.3 281.15 198.9 L280.15 199.55 Q278.75 200.6 277.55 202.3 L277.4 202.55 Q276.0 204.5 274.95 207.35 L274.75 207.8 Q270.7 216.05 270.2 223.1 L270.2 230.8 Q271.3 236.8 264.65 238.8 L260.1 238.8 272.65 243.3 283.1 239.85 283.85 243.05 284.15 244.35 M299.45 227.65 L303.3 226.25 304.55 234.55 M281.6 196.65 L283.45 198.05 M277.95 193.9 L275.1 191.75 Q273.75 192.5 272.8 193.35 271.0 195.05 270.9 197.35 L274.15 199.95 277.35 202.5 277.4 202.55 M275.4 195.55 Q276.35 194.55 277.95 193.9 L280.85 196.1 281.6 196.65 M278.65 198.3 Q279.45 197.1 280.85 196.1 M275.4 195.55 Q273.8 197.25 274.15 199.95 M277.55 202.3 Q277.4 200.05 278.65 198.3 M275.1 191.75 L270.9 191.75 Q268.3 193.9 270.9 197.35" fill="none" stroke="#000000" stroke-linecap="round" stroke-linejoin="round" stroke-opacity="0.4117647" stroke-width="0.05"/>
    <path d="M285.7 178.55 Q286.5 183.45 288.75 186.85 L285.8 183.8 M284.2 171.95 Q285.45 175.0 289.6 178.05 L285.35 176.1 M274.65 161.9 L274.85 161.95 Q278.2 161.45 279.6 159.65 280.25 158.65 279.25 157.65 278.75 157.15 277.8 156.6 L278.65 157.65 Q280.8 161.1 272.55 161.15" fill="none" stroke="#000000" stroke-linecap="round" stroke-linejoin="round" stroke-opacity="0.41960785" stroke-width="0.05"/>
  </g>
  <defs>
    <linearGradient gradientTransform="matrix(0.0232, 0.0, 0.0, 0.0295, 291.6, 220.15)" gradientUnits="userSpaceOnUse" id="gradient0" spreadMethod="pad" x1="-819.2" x2="819.2">
      <stop offset="0.0" stop-color="#324d65"/>
      <stop offset="1.0" stop-color="#2e635c"/>
    </linearGradient>
    <linearGradient gradientTransform="matrix(0.019, 0.0, 0.0, 0.0223, 259.5, 181.7)" gradientUnits="userSpaceOnUse" id="gradient1" spreadMethod="pad" x1="-819.2" x2="819.2">
      <stop offset="0.0" stop-color="#324d65"/>
      <stop offset="1.0" stop-color="#2e635c"/>
    </linearGradient>
    <linearGradient gradientTransform="matrix(0.0307, 0.0, 0.0, 0.0362, 264.45, 186.2)" gradientUnits="userSpaceOnUse" id="gradient2" spreadMethod="pad" x1="-819.2" x2="819.2">
      <stop offset="0.0" stop-color="#243648"/>
      <stop offset="1.0" stop-color="#1c423e"/>
    </linearGradient>
    <linearGradient gradientTransform="matrix(0.0153, 0.0, 0.0, 0.0219, 272.65, 225.3)" gradientUnits="userSpaceOnUse" id="gradient3" spreadMethod="pad" x1="-819.2" x2="819.2">
      <stop offset="0.0" stop-color="#243648"/>
      <stop offset="1.0" stop-color="#1c423e"/>
    </linearGradient>
    <linearGradient gradientTransform="matrix(0.0019, 0.0, 0.0, 0.0051, 304.85, 230.4)" gradientUnits="userSpaceOnUse" id="gradient4" spreadMethod="pad" x1="-819.2" x2="819.2">
      <stop offset="0.0" stop-color="#243648"/>
      <stop offset="1.0" stop-color="#1c423e"/>
    </linearGradient>
    <linearGradient gradientTransform="matrix(0.0083, 0.0, 0.0, 0.0109, 300.7, 210.4)" gradientUnits="userSpaceOnUse" id="gradient5" spreadMethod="pad" x1="-819.2" x2="819.2">
      <stop offset="0.0" stop-color="#243648"/>
      <stop offset="1.0" stop-color="#1c423e"/>
    </linearGradient>
    <linearGradient gradientTransform="matrix(0.0079, 0.0, 0.0, 0.0123, 252.1, 177.2)" gradientUnits="userSpaceOnUse" id="gradient6" spreadMethod="pad" x1="-819.2" x2="819.2">
      <stop offset="0.0" stop-color="#50829c"/>
      <stop offset="1.0" stop-color="#43a38e"/>
    </linearGradient>
    <linearGradient gradientTransform="matrix(0.002, 0.0, 0.0, 0.002, 263.8, 165.8)" gradientUnits="userSpaceOnUse" id="gradient7" spreadMethod="pad" x1="-819.2" x2="819.2">
      <stop offset="0.0" stop-color="#50829c"/>
      <stop offset="1.0" stop-color="#43a38e"/>
    </linearGradient>
    <linearGradient gradientTransform="matrix(0.006, 0.0, 0.0, 0.0101, 292.4, 212.6)" gradientUnits="userSpaceOnUse" id="gradient8" spreadMethod="pad" x1="-819.2" x2="819.2">
      <stop offset="0.0" stop-color="#50829c"/>
      <stop offset="1.0" stop-color="#43a38e"/>
    </linearGradient>
    <linearGradient gradientTransform="matrix(0.0034, 0.0, 0.0, 0.0027, 278.05, 196.1)" gradientUnits="userSpaceOnUse" id="gradient9" spreadMethod="pad" x1="-819.2" x2="819.2">
      <stop offset="0.0" stop-color="#846431"/>
      <stop offset="1.0" stop-color="#87872c"/>
    </linearGradient>
    <linearGradient gradientTransform="matrix(0.0032, 0.0, 0.0, 0.0023, 275.3, 193.65)" gradientUnits="userSpaceOnUse" id="gradient10" spreadMethod="pad" x1="-819.2" x2="819.2">
      <stop offset="0.0" stop-color="#846431"/>
      <stop offset="1.0" stop-color="#87872c"/>
    </linearGradient>
    <linearGradient gradientTransform="matrix(0.0026, 0.0, 0.0, 0.001, 273.0, 192.55)" gradientUnits="userSpaceOnUse" id="gradient11" spreadMethod="pad" x1="-819.2" x2="819.2">
      <stop offset="0.0" stop-color="#846431"/>
      <stop offset="1.0" stop-color="#87872c"/>
    </linearGradient>
    <linearGradient gradientTransform="matrix(0.0029, 0.0, 0.0, 0.0021, 281.05, 197.8)" gradientUnits="userSpaceOnUse" id="gradient12" spreadMethod="pad" x1="-819.2" x2="819.2">
      <stop offset="0.0" stop-color="#846431"/>
      <stop offset="1.0" stop-color="#87872c"/>
    </linearGradient>
  </defs>
</svg>
