<?xml version="1.0" encoding="UTF-8" standalone="no"?>
<svg xmlns:xlink="http://www.w3.org/1999/xlink" height="190.25px" width="78.15px" xmlns="http://www.w3.org/2000/svg">
  <g transform="matrix(1.0, 0.0, 0.0, 1.0, 56.4, 95.1)">
    <path d="M5.5 -86.2 L16.55 -87.3 Q19.45 -87.3 20.85 -85.75 L21.25 -85.2 Q20.95 -79.3 19.75 -78.1 L18.85 -77.75 19.85 -81.65 Q20.3 -84.5 19.85 -84.6 L15.25 -82.85 Q12.8 -82.25 10.3 -82.85 -0.15 -86.6 -9.65 -92.7 -9.9 -89.85 -11.8 -87.05 L-13.9 -87.05 -13.4 -87.85 -12.8 -88.85 Q-11.6 -91.2 -11.3 -93.55 L-9.8 -94.4 Q-1.4 -89.1 5.5 -86.2 L8.8 -84.9 5.5 -86.2 M16.55 -85.4 Q13.2 -86.35 8.8 -84.9 L10.55 -84.3 11.25 -84.2 Q17.8 -83.3 16.55 -85.4" fill="url(#gradient0)" fill-rule="evenodd" stroke="none"/>
    <path d="M8.0 -77.15 L5.85 -77.9 Q-3.3 -81.4 -10.9 -86.05 L-12.6 -86.05 -12.65 -84.65 -13.9 -87.05 -11.8 -87.05 Q-9.9 -89.85 -9.65 -92.7 -0.15 -86.6 10.3 -82.85 12.8 -82.25 15.25 -82.85 L19.85 -84.6 Q20.3 -84.5 19.85 -81.65 L18.85 -77.75 17.65 -77.35 15.85 -76.85 10.5 -76.25 8.0 -77.15" fill="url(#gradient1)" fill-rule="evenodd" stroke="none"/>
    <path d="M5.85 -77.9 L8.0 -77.15 7.45 -74.15 5.45 -74.75 5.85 -77.9 M6.95 -54.0 L8.2 -54.95 8.9 -55.5 9.05 -47.85 Q10.1 -47.2 10.75 -46.4 L9.35 -45.2 9.3 -45.2 Q8.85 -46.55 6.95 -46.8 L6.95 -54.0 M11.35 14.5 L11.2 15.55 Q9.75 17.35 7.85 18.6 L7.15 18.95 6.45 19.35 7.25 16.8 8.8 16.2 8.85 16.15 11.35 14.5 M7.8 -12.2 L7.55 -9.5 8.05 -8.45 6.75 -7.75 6.35 -8.65 6.35 -10.9 7.8 -12.2 M8.8 16.2 L7.85 18.6 8.8 16.2 M7.95 30.4 L7.25 30.65 5.95 31.0 Q7.6 29.7 5.9 29.25 L6.95 28.75 7.45 28.5 Q9.85 28.15 7.95 30.4 M8.2 32.4 L7.9 33.45 6.85 36.65 5.6 35.85 6.55 33.9 6.85 33.25 6.9 33.05 8.2 32.4" fill="#590000" fill-rule="evenodd" stroke="none"/>
    <path d="M5.45 -74.75 L7.45 -74.15 Q6.5 -67.4 7.9 -62.55 L5.55 -61.1 Q4.55 -66.65 5.45 -74.7 L5.45 -74.75 M9.35 -45.2 L9.3 -45.2 9.35 -45.2 M9.05 -43.15 L11.2 -43.75 9.9 -40.8 8.9 -31.55 8.4 -30.95 6.15 -29.85 7.35 -39.75 9.05 -43.15 M7.25 -17.25 L6.05 -20.0 Q8.8 -24.95 7.75 -26.85 L6.45 -29.05 7.7 -30.2 9.7 -27.5 Q10.85 -24.15 8.0 -20.85 L8.7 -18.7 7.25 -17.25 M8.65 2.0 L8.8 2.45 9.3 2.05 Q10.1 2.9 10.2 3.75 10.25 4.85 9.2 6.0 L8.65 6.45 6.75 6.75 Q7.65 5.65 7.75 4.95 7.9 4.0 6.65 3.65 L7.6 3.15 6.05 0.15 7.25 -4.1 8.05 -4.7 8.65 -5.15 7.35 -1.15 8.65 2.0 M7.85 18.6 L8.95 20.15 9.5 20.95 9.65 21.7 Q9.75 23.2 8.75 23.8 L8.45 23.95 6.25 24.15 Q8.0 23.85 8.25 22.4 L8.25 21.6 7.9 20.7 7.15 18.95 7.85 18.6 M8.8 2.45 L7.6 3.15 8.8 2.45 M8.0 8.1 L7.35 9.8 9.05 15.6 8.85 16.15 8.8 16.2 7.25 16.8 7.55 15.8 5.65 10.0 6.2 8.35 8.0 8.1 M0.8 40.9 L1.1 40.55 Q1.9 39.6 3.05 39.6 4.2 39.6 5.0 40.55 5.8 41.45 5.85 42.8 5.8 44.15 5.0 45.1 4.2 46.0 3.05 46.05 1.9 46.0 1.1 45.1 0.25 44.15 0.3 42.8 0.25 41.75 0.8 40.9 M2.45 41.85 L2.35 41.95 2.1 42.7 Q2.1 43.2 2.45 43.55 2.75 43.95 3.2 43.95 3.6 43.95 3.95 43.55 L4.25 42.7 3.95 41.85 Q3.6 41.45 3.2 41.45 2.75 41.45 2.45 41.85" fill="#af0000" fill-rule="evenodd" stroke="none"/>
    <path d="M5.45 -74.75 L5.45 -74.7 Q4.55 -66.65 5.55 -61.1 L2.45 -59.25 -6.6 -56.35 Q-12.5 -53.85 -18.75 -56.35 -21.85 -57.75 -24.75 -61.15 L-29.7 -81.2 -20.45 -84.75 -16.85 -68.9 Q-14.7 -68.35 -12.95 -74.3 L-11.3 -82.35 4.95 -74.9 5.45 -74.75" fill="url(#gradient2)" fill-rule="evenodd" stroke="none"/>
    <path d="M8.0 -77.15 L10.5 -76.25 15.85 -76.85 15.4 -74.95 7.45 -74.15 8.0 -77.15 M-12.65 -84.65 L-12.6 -86.05 -10.9 -86.05 Q-3.3 -81.4 5.85 -77.9 L5.45 -74.75 4.95 -74.9 -11.3 -82.35 -12.65 -84.65 M11.45 44.95 L12.55 47.3 9.1 48.3 7.05 50.95 6.6 49.1 7.65 48.05 9.05 45.7 Q10.45 45.7 11.45 44.95 M8.85 64.55 L6.6 65.25 Q7.8 62.3 7.95 58.7 L10.25 57.55 8.85 64.55 M0.95 70.4 Q-1.4 74.45 -2.35 80.0 L-2.7 80.6 Q-11.7 94.95 -42.15 94.65 L-41.35 91.4 Q-18.05 92.05 -5.25 80.25 -2.3 70.45 2.7 65.2 L2.0 68.9 0.95 70.4 M-21.75 44.55 L-21.45 44.15 -19.4 42.25 Q-11.0 40.55 -3.25 44.0 -2.95 46.3 -1.45 48.05 0.35 50.1 2.8 50.25 L2.8 50.3 2.9 51.2 1.5 51.2 -2.55 48.8 Q-4.2 47.4 -4.45 45.6 L-7.5 44.0 -12.0 43.25 -12.3 43.2 -21.75 44.55 M-18.1 34.95 L-19.65 32.25 -15.0 33.35 -18.7 30.9 -17.75 29.55 -9.15 35.05 Q-14.25 33.85 -18.1 34.95 M-29.7 -81.2 L-30.15 -82.85 Q-28.7 -83.2 -26.55 -84.1 -23.3 -86.25 -20.05 -86.85 L-19.75 -85.7 -20.45 -84.75 -29.7 -81.2 M7.85 -12.55 L11.2 -15.7 10.55 -11.5 8.05 -8.45 7.55 -9.5 7.8 -12.2 7.85 -12.55 M-5.5 5.85 L-1.95 5.6 0.35 6.35 7.75 4.95 Q7.65 5.65 6.75 6.75 0.35 7.5 -5.5 5.85 M8.25 22.4 Q8.0 23.85 6.25 24.15 L3.45 23.15 8.25 22.4 M8.2 32.4 L9.7 31.5 9.45 37.6 8.55 38.7 7.65 37.45 6.85 36.65 7.9 33.45 8.2 32.4 M5.2 31.2 Q-4.45 33.7 -12.15 29.6 -0.85 32.1 5.9 29.25 7.6 29.7 5.95 31.0 L5.2 31.2 M-13.05 -81.3 Q-13.95 -76.1 -16.25 -72.1 L-18.9 -82.4 -13.05 -81.3" fill="#3c2300" fill-rule="evenodd" stroke="none"/>
    <path d="M8.8 -84.9 Q13.2 -86.35 16.55 -85.4 17.8 -83.3 11.25 -84.2 L10.55 -84.3 8.8 -84.9" fill="url(#gradient3)" fill-rule="evenodd" stroke="none"/>
    <path d="M15.85 -76.85 L17.65 -77.35 15.05 -66.5 16.55 -63.95 13.35 -58.4 13.35 -40.6 15.25 -37.6 12.7 -33.5 12.7 -27.5 11.65 -25.4 14.4 -21.75 14.4 -19.6 11.85 -15.95 11.85 -11.45 13.15 -8.0 10.6 -4.8 10.6 -0.3 12.3 2.3 11.0 5.5 10.15 8.9 11.0 12.35 12.95 14.5 10.85 18.6 8.95 20.15 7.85 18.6 Q9.75 17.35 11.2 15.55 L11.35 14.5 10.25 13.3 9.35 9.65 9.35 7.05 10.6 4.75 10.6 3.25 10.2 3.75 Q10.1 2.9 9.3 2.05 L8.8 2.45 8.65 2.0 10.3 0.65 9.65 -0.3 9.65 -4.7 11.85 -8.25 10.55 -11.5 11.2 -15.7 7.85 -12.55 8.1 -15.0 8.2 -15.1 9.55 -16.0 8.7 -18.7 10.0 -20.1 11.1 -22.95 10.25 -24.15 11.25 -26.8 11.25 -32.6 13.55 -38.45 13.2 -37.8 11.9 -40.7 12.3 -44.6 11.2 -43.75 11.6 -44.65 10.75 -46.4 11.6 -47.1 10.7 -49.35 11.85 -56.8 13.0 -60.15 10.5 -57.05 Q10.55 -59.3 8.2 -61.6 L7.9 -62.55 13.15 -65.75 15.4 -74.95 15.85 -76.85 M14.65 -62.85 L13.0 -60.15 14.65 -62.85 M12.9 -19.8 Q11.45 -17.55 9.55 -16.0 11.45 -17.55 12.9 -19.8" fill="url(#gradient4)" fill-rule="evenodd" stroke="none"/>
    <path d="M7.9 -62.55 Q6.5 -67.4 7.45 -74.15 L15.4 -74.95 13.15 -65.75 7.9 -62.55 M10.85 18.6 L10.6 19.0 10.6 22.85 8.75 23.8 Q9.75 23.2 9.65 21.7 L9.5 20.95 8.95 20.15 10.85 18.6 M11.2 -43.75 L12.3 -44.6 11.9 -40.7 13.2 -37.8 13.55 -38.45 11.25 -32.6 11.25 -26.8 10.25 -24.15 11.1 -22.95 10.0 -20.1 8.7 -18.7 8.0 -20.85 Q10.85 -24.15 9.7 -27.5 L7.7 -30.2 8.4 -30.95 8.9 -31.55 9.9 -40.8 11.2 -43.75 M8.9 -31.55 Q11.25 -34.25 13.2 -37.8 11.25 -34.25 8.9 -31.55 M10.55 -11.5 L11.85 -8.25 9.65 -4.7 9.65 -0.3 10.3 0.65 8.65 2.0 7.35 -1.15 8.65 -5.15 9.35 -5.7 8.05 -8.45 10.55 -11.5 M10.2 3.75 L10.6 3.25 10.6 4.75 9.35 7.05 9.35 9.65 10.25 13.3 11.35 14.5 8.85 16.15 9.05 15.6 7.35 9.8 8.0 8.1 8.65 6.45 9.2 6.0 Q10.25 4.85 10.2 3.75 M11.85 -8.25 L9.35 -5.7 11.85 -8.25 M8.45 23.95 L8.75 23.8 8.65 24.05 8.45 23.95 M6.45 19.35 L7.15 18.95 7.9 20.7 0.0 21.95 -1.75 21.15 Q3.0 21.05 6.45 19.35 M8.5 27.85 L9.7 26.9 11.25 25.25 9.3 29.9 7.95 30.4 Q9.85 28.15 7.45 28.5 L8.5 27.85 M6.9 33.05 L6.85 33.25 6.45 33.3 6.9 33.05 M7.05 50.95 L9.1 48.3 Q10.95 51.0 10.25 57.55 L7.95 58.7 Q8.05 55.15 7.05 50.95 M-15.65 -6.7 L-15.7 -6.7 -15.7 -6.9 -15.65 -6.7" fill="#754900" fill-rule="evenodd" stroke="none"/>
    <path d="M-18.8 -19.4 L-18.8 -21.3 -19.15 -21.9 -20.75 -24.5 -19.45 -26.45 -21.35 -35.25 -23.85 -38.75 -24.6 -39.75 -22.95 -42.25 -22.25 -43.35 -23.05 -46.25 -23.4 -47.5 -23.65 -48.45 -23.8 -48.9 -24.15 -50.25 -24.8 -52.6 -25.2 -53.1 -27.8 -56.1 -28.85 -57.3 -28.65 -57.6 -26.8 -61.05 -26.5 -61.6 -31.6 -82.7 -30.15 -82.85 -29.7 -81.2 -24.75 -61.15 Q-21.85 -57.75 -18.75 -56.35 -12.5 -53.85 -6.6 -56.35 L2.45 -59.25 5.55 -61.1 5.85 -59.45 Q8.5 -58.35 8.2 -54.95 L6.95 -54.0 Q-1.3 -48.15 -15.0 -48.75 L-17.3 -49.8 -17.7 -50.0 Q-21.05 -51.75 -23.5 -54.05 L-25.2 -55.8 -23.05 -52.3 -23.0 -52.15 -20.75 -43.0 -15.1 -37.15 -5.3 -32.85 -15.55 -35.4 -20.85 -38.9 -20.05 -37.2 -21.8 -38.65 -20.2 -36.05 -18.05 -26.8 -14.1 -24.75 Q-13.6 -24.15 -13.2 -24.3 L-12.45 -23.9 -17.95 -25.15 -19.0 -24.25 -18.25 -22.05 -16.4 -18.8 -14.1 -17.0 Q-5.05 -12.8 1.45 -13.1 L4.45 -13.55 Q2.9 -11.65 -3.15 -11.3 L-14.2 -14.6 -17.4 -17.85 -18.1 -19.3 -18.75 -17.45 -18.8 -17.45 -18.8 -19.4" fill="url(#gradient5)" fill-rule="evenodd" stroke="none"/>
    <path d="M5.55 -61.1 L7.9 -62.55 8.2 -61.6 Q10.55 -59.3 10.5 -57.05 L8.9 -55.5 8.2 -54.95 Q8.5 -58.35 5.85 -59.45 L5.55 -61.1 M10.75 -46.4 L11.6 -44.65 11.2 -43.75 9.05 -43.15 9.45 -44.0 9.3 -45.2 9.35 -45.2 10.75 -46.4 M8.7 -18.7 L9.55 -16.0 8.2 -15.1 7.25 -17.25 8.7 -18.7 M6.35 -13.1 Q7.65 -14.05 8.1 -15.0 L7.85 -12.55 7.8 -12.2 6.35 -10.9 6.35 -13.1 M6.75 -7.75 L8.05 -8.45 9.35 -5.7 8.65 -5.15 8.05 -4.7 6.75 -7.75 M6.75 6.75 L8.65 6.45 8.0 8.1 6.2 8.35 6.75 6.75 M6.25 24.15 L8.45 23.95 8.65 24.05 Q10.3 24.7 8.5 27.85 L7.45 28.5 7.25 27.75 7.55 26.75 Q8.65 25.45 6.25 24.15 M7.25 30.65 Q8.5 30.7 8.2 32.4 L6.9 33.05 Q7.35 31.3 5.2 31.2 L5.95 31.0 7.25 30.65 M8.55 38.7 L9.1 39.85 Q9.55 41.2 9.55 42.75 9.55 44.35 9.05 45.7 L7.65 48.05 6.6 49.1 Q5.05 50.25 3.1 50.25 L2.8 50.25 Q0.35 50.1 -1.45 48.05 -2.95 46.3 -3.25 44.0 L-3.35 42.75 -3.35 42.55 Q-3.3 40.2 -2.1 38.35 L-1.45 37.45 Q0.45 35.25 3.1 35.25 4.45 35.25 5.6 35.85 L6.85 36.65 7.65 37.45 8.55 38.7 M7.8 42.85 Q7.8 40.6 6.4 39.0 5.0 37.4 3.1 37.4 1.15 37.4 -0.25 39.0 L-0.75 39.65 Q-1.65 41.05 -1.6 42.85 -1.65 45.1 -0.25 46.75 1.15 48.35 3.1 48.35 5.0 48.35 6.4 46.75 7.8 45.1 7.8 42.85" fill="#cc3300" fill-rule="evenodd" stroke="none"/>
    <path d="M8.9 -55.5 L10.5 -57.05 13.0 -60.15 11.85 -56.8 10.7 -49.35 11.6 -47.1 10.75 -46.4 Q10.1 -47.2 9.05 -47.85 L8.9 -55.5" fill="url(#gradient6)" fill-rule="evenodd" stroke="none"/>
    <path d="M9.3 -45.2 L9.45 -44.0 9.05 -43.15 7.4 -42.75 2.65 -42.75 Q-5.25 -43.35 -14.95 -47.35 L-15.85 -48.25 -16.05 -48.4 -17.7 -50.0 -17.3 -49.8 -15.0 -48.75 Q-6.3 -45.1 7.35 -44.45 L9.3 -45.2" fill="url(#gradient7)" fill-rule="evenodd" stroke="none"/>
    <path d="M9.3 -45.2 L7.35 -44.45 Q-6.3 -45.1 -15.0 -48.75 -1.3 -48.15 6.95 -54.0 L6.95 -46.8 Q8.85 -46.55 9.3 -45.2" fill="url(#gradient8)" fill-rule="evenodd" stroke="none"/>
    <path d="M-17.7 -50.0 L-16.05 -48.4 -15.85 -48.25 -14.95 -47.35 Q-5.25 -43.35 2.65 -42.75 L7.4 -42.75 9.05 -43.15 7.35 -39.75 6.15 -29.85 Q-0.95 -27.05 -9.6 -30.75 -12.35 -31.95 -15.3 -33.85 L-15.9 -34.25 -20.05 -37.2 -20.85 -38.9 -15.55 -35.4 -5.3 -32.85 -15.1 -37.15 -20.75 -43.0 -23.0 -52.15 -23.05 -52.3 -25.2 -55.8 -23.5 -54.05 Q-21.05 -51.75 -17.7 -50.0" fill="url(#gradient9)" fill-rule="evenodd" stroke="none"/>
    <path d="M6.45 -29.05 L7.75 -26.85 Q8.8 -24.95 6.05 -20.0 L7.25 -17.25 5.9 -15.85 1.45 -13.1 Q-5.05 -12.8 -14.1 -17.0 L-16.4 -18.8 -18.25 -22.05 -19.0 -24.25 -17.95 -25.15 -12.45 -23.9 Q-1.25 -22.35 6.45 -29.05" fill="url(#gradient10)" fill-rule="evenodd" stroke="none"/>
    <path d="M6.15 -29.85 L8.4 -30.95 7.7 -30.2 6.45 -29.05 Q-1.25 -22.35 -12.45 -23.9 L-13.2 -24.3 Q-13.6 -24.15 -14.1 -24.75 L-18.05 -26.8 -20.2 -36.05 -21.8 -38.65 -20.05 -37.2 -15.9 -34.25 -15.3 -33.85 Q-12.35 -31.95 -9.6 -30.75 -0.95 -27.05 6.15 -29.85" fill="url(#gradient11)" fill-rule="evenodd" stroke="none"/>
    <path d="M1.45 -13.1 L5.9 -15.85 7.25 -17.25 8.2 -15.1 8.1 -15.0 Q6.55 -14.1 4.75 -13.6 L4.45 -13.55 1.45 -13.1" fill="url(#gradient12)" fill-rule="evenodd" stroke="none"/>
    <path d="M4.45 -13.55 L4.75 -13.6 Q6.55 -14.1 8.1 -15.0 7.65 -14.05 6.35 -13.1 4.35 -11.6 0.3 -10.15 -7.9 -9.65 -16.85 -14.0 L-18.8 -17.45 -18.75 -17.4 -18.75 -17.45 -18.1 -19.3 -17.4 -17.85 -14.2 -14.6 -3.15 -11.3 Q2.9 -11.65 4.45 -13.55" fill="url(#gradient13)" fill-rule="evenodd" stroke="none"/>
    <path d="M-18.35 -12.5 L-20.3 -16.15 -17.2 -12.55 Q-9.05 -8.6 -0.35 -8.05 L6.35 -10.9 6.35 -8.65 6.75 -7.75 -0.55 -5.6 -12.9 -8.05 -16.75 -11.05 -18.35 -12.5" fill="url(#gradient14)" fill-rule="evenodd" stroke="none"/>
    <path d="M8.05 -4.7 L7.25 -4.1 Q5.45 -2.95 3.45 -2.15 -5.3 -2.8 -12.9 -8.05 L-0.55 -5.6 6.75 -7.75 8.05 -4.7" fill="url(#gradient15)" fill-rule="evenodd" stroke="none"/>
    <path d="M7.25 -4.1 L6.05 0.15 7.6 3.15 6.65 3.65 Q3.35 5.05 -1.95 5.6 L-5.5 5.85 Q-11.0 4.25 -16.0 0.55 L-16.8 -1.2 -15.35 -1.8 Q-6.95 0.35 -0.35 -1.0 1.6 -1.4 3.45 -2.15 5.45 -2.95 7.25 -4.1" fill="url(#gradient16)" fill-rule="evenodd" stroke="none"/>
    <path d="M-20.3 -16.15 L-18.8 -19.4 -18.8 -17.45 -16.85 -14.0 Q-7.9 -9.65 0.3 -10.15 4.35 -11.6 6.35 -13.1 L6.35 -10.9 -0.35 -8.05 Q-9.05 -8.6 -17.2 -12.55 L-20.3 -16.15" fill="url(#gradient17)" fill-rule="evenodd" stroke="none"/>
    <path d="M-1.95 5.6 Q3.35 5.05 6.65 3.65 7.9 4.0 7.75 4.95 L0.35 6.35 -1.95 5.6" fill="url(#gradient18)" fill-rule="evenodd" stroke="none"/>
    <path d="M6.2 8.35 L5.65 10.0 7.55 15.8 7.25 16.8 -4.35 18.35 Q-9.25 16.4 -16.15 9.7 L-16.2 9.65 -17.1 8.45 -17.7 7.4 -15.9 3.45 -16.6 1.2 -12.85 4.2 Q-6.6 8.1 -0.2 9.05 L6.2 8.35" fill="url(#gradient19)" fill-rule="evenodd" stroke="none"/>
    <path d="M-20.1 26.05 L-17.5 23.05 -12.45 27.4 Q-4.75 30.5 2.45 28.85 5.95 27.75 5.9 26.3 1.85 27.05 -1.85 24.85 -9.75 20.0 -15.3 13.0 L-19.85 8.05 -16.85 2.9 -18.15 0.15 -17.1 -2.65 -18.35 -12.5 -16.75 -11.05 -12.9 -8.05 Q-5.3 -2.8 3.45 -2.15 1.6 -1.4 -0.35 -1.0 L-7.0 -2.3 -15.65 -6.7 -15.7 -6.9 -15.7 -6.7 -15.35 -1.8 -16.8 -1.2 -16.0 0.55 Q-11.0 4.25 -5.5 5.85 0.35 7.5 6.75 6.75 L6.2 8.35 -0.2 9.05 Q-6.6 8.1 -12.85 4.2 L-16.6 1.2 -15.9 3.45 -17.7 7.4 -17.1 8.45 -16.2 9.65 -16.15 9.7 Q-10.45 17.0 -4.2 21.15 L-1.8 21.15 -1.75 21.15 0.0 21.95 7.9 20.7 8.25 21.6 8.25 22.4 3.45 23.15 6.25 24.15 Q8.65 25.45 7.55 26.75 L7.25 27.75 7.45 28.5 6.95 28.75 5.9 29.25 Q-0.85 32.1 -12.15 29.6 -4.45 33.7 5.2 31.2 7.35 31.3 6.9 33.05 L6.45 33.3 0.05 34.35 Q-6.2 34.55 -12.0 31.4 L-20.1 26.05 M4.6 24.3 Q0.55 24.3 -4.2 21.15 0.55 24.3 4.6 24.3 M-18.15 25.15 Q-15.3 27.9 -12.15 29.6 -15.3 27.9 -18.15 25.15" fill="url(#gradient20)" fill-rule="evenodd" stroke="none"/>
    <path d="M10.6 22.85 L12.5 24.8 10.35 28.85 10.35 34.85 10.35 36.55 9.45 37.6 9.7 31.5 8.2 32.4 Q8.5 30.7 7.25 30.65 L7.95 30.4 9.3 29.9 11.25 25.25 9.7 26.9 8.5 27.85 Q10.3 24.7 8.65 24.05 L8.75 23.8 10.6 22.85" fill="url(#gradient21)" fill-rule="evenodd" stroke="none"/>
    <path d="M-16.15 9.7 Q-9.25 16.4 -4.35 18.35 L7.25 16.8 6.45 19.35 Q3.0 21.05 -1.75 21.15 L-1.8 21.15 -4.2 21.15 Q-10.45 17.0 -16.15 9.7" fill="url(#gradient22)" fill-rule="evenodd" stroke="none"/>
    <path d="M10.35 34.85 L12.1 35.9 12.1 38.9 13.15 42.55 12.75 43.45 11.25 39.6 11.25 37.25 10.25 39.1 9.1 39.85 8.55 38.7 9.45 37.6 10.35 36.55 10.35 34.85" fill="url(#gradient23)" fill-rule="evenodd" stroke="none"/>
    <path d="M-17.75 29.55 L-18.8 28.85 -20.1 26.05 -12.0 31.4 Q-6.2 34.55 0.05 34.35 L6.45 33.3 6.85 33.25 6.55 33.9 5.6 35.85 Q4.45 35.25 3.1 35.25 0.45 35.25 -1.45 37.45 L-2.1 38.35 -9.15 35.05 -17.75 29.55" fill="url(#gradient24)" fill-rule="evenodd" stroke="none"/>
    <path d="M-17.5 23.05 L-17.5 11.9 -19.85 8.05 -15.3 13.0 Q-9.75 20.0 -1.85 24.85 1.85 27.05 5.9 26.3 5.95 27.75 2.45 28.85 -4.75 30.5 -12.45 27.4 L-17.5 23.05" fill="url(#gradient25)" fill-rule="evenodd" stroke="none"/>
    <path d="M7.8 42.85 Q7.8 45.1 6.4 46.75 5.0 48.35 3.1 48.35 1.15 48.35 -0.25 46.75 -1.65 45.1 -1.6 42.85 -1.65 41.05 -0.75 39.65 L-0.25 39.0 Q1.15 37.4 3.1 37.4 5.0 37.4 6.4 39.0 7.8 40.6 7.8 42.85 M0.8 40.9 Q0.25 41.75 0.3 42.8 0.25 44.15 1.1 45.1 1.9 46.0 3.05 46.05 4.2 46.0 5.0 45.1 5.8 44.15 5.85 42.8 5.8 41.45 5.0 40.55 4.2 39.6 3.05 39.6 1.9 39.6 1.1 40.55 L0.8 40.9 M2.45 41.85 Q2.75 41.45 3.2 41.45 3.6 41.45 3.95 41.85 L4.25 42.7 3.95 43.55 Q3.6 43.95 3.2 43.95 2.75 43.95 2.45 43.55 2.1 43.2 2.1 42.7 L2.35 41.95 2.45 41.85" fill="#dbdbdb" fill-rule="evenodd" stroke="none"/>
    <path d="M12.75 43.45 L11.45 44.95 Q10.45 45.7 9.05 45.7 9.55 44.35 9.55 42.75 9.55 41.2 9.1 39.85 L10.25 39.1 11.25 37.25 11.25 39.6 12.75 43.45" fill="url(#gradient26)" fill-rule="evenodd" stroke="none"/>
    <path d="M12.55 47.3 Q13.85 50.9 13.45 54.85 11.95 56.5 10.25 57.55 10.95 51.0 9.1 48.3 L12.55 47.3" fill="#8d5c00" fill-rule="evenodd" stroke="none"/>
    <path d="M13.45 54.85 Q13.0 58.6 11.0 62.7 10.2 63.9 8.85 64.55 L10.25 57.55 Q11.95 56.5 13.45 54.85 M-42.15 94.65 Q-48.15 94.0 -47.7 88.6 -47.5 89.55 -47.1 90.15 -46.4 91.05 -45.15 91.2 L-44.0 91.3 -41.35 91.4 -42.15 94.65" fill="#7e542c" fill-rule="evenodd" stroke="none"/>
    <path d="M6.6 65.25 L5.65 67.0 3.95 68.45 4.4 66.55 Q6.6 58.5 5.35 52.9 L7.05 50.95 Q8.05 55.15 7.95 58.7 7.8 62.3 6.6 65.25" fill="url(#gradient27)" fill-rule="evenodd" stroke="none"/>
    <path d="M3.95 68.45 L3.5 70.4 0.95 70.4 2.0 68.9 2.7 65.2 Q3.25 61.4 3.25 57.25 L2.9 51.2 2.8 50.3 3.1 50.25 Q5.05 50.25 6.6 49.1 L7.05 50.95 5.35 52.9 Q6.6 58.5 4.4 66.55 L3.95 68.45" fill="url(#gradient28)" fill-rule="evenodd" stroke="none"/>
    <path d="M-34.65 67.25 L-33.65 65.15 Q-31.6 63.4 -29.0 64.3 L-21.75 68.25 Q-15.15 70.45 -11.7 67.55 -8.95 63.7 -9.0 60.95 -9.15 58.65 -10.6 56.55 L-4.35 61.85 -2.25 64.0 -4.0 60.55 -11.05 53.25 Q-15.45 50.85 -21.35 50.9 L-25.4 52.2 -25.95 53.35 -26.55 54.55 -26.55 52.1 -24.9 51.05 Q-21.85 49.7 -19.2 49.45 L-10.7 48.95 Q-4.65 48.2 -10.8 46.6 L-16.25 47.55 Q-9.0 43.85 -12.0 43.25 L-7.5 44.0 -4.45 45.6 Q-4.2 47.4 -2.55 48.8 L1.5 51.2 2.9 51.2 3.25 57.25 Q3.25 61.4 2.7 65.2 -2.3 70.45 -5.25 80.25 -18.05 92.05 -41.35 91.4 -38.65 87.15 -31.5 85.65 -17.75 81.15 -21.95 72.65 L-25.5 69.7 Q-23.55 71.2 -18.15 72.3 L-9.4 69.9 -12.35 69.75 Q-17.5 71.55 -24.55 68.9 -29.1 64.25 -32.5 65.7 L-34.0 66.75 -34.65 67.25 M-3.1 54.35 Q-0.4 56.95 3.25 57.25 -0.4 56.95 -3.1 54.35" fill="url(#gradient29)" fill-rule="evenodd" stroke="none"/>
    <path d="M-18.9 -90.55 L-12.8 -88.85 -13.4 -87.85 -18.65 -89.4 -18.9 -90.55 M2.8 50.3 L2.8 50.25 3.1 50.25 2.8 50.3" fill="#a7a774" fill-rule="evenodd" stroke="none"/>
    <path d="M-31.6 -82.7 Q-32.6 -82.7 -32.95 -83.25 -34.4 -85.85 -34.35 -88.5 -32.3 -87.3 -29.6 -88.2 -21.15 -93.25 -20.5 -92.1 L-19.8 -87.85 -18.6 -87.4 Q-19.35 -87.0 -20.05 -86.85 -23.3 -86.25 -26.55 -84.1 -28.7 -83.2 -30.15 -82.85 L-31.6 -82.7" fill="url(#gradient30)" fill-rule="evenodd" stroke="none"/>
    <path d="M-13.9 -87.05 L-12.65 -84.65 -13.05 -81.3 -18.9 -82.4 -19.75 -85.7 -20.05 -86.85 Q-19.35 -87.0 -18.6 -87.4 L-18.15 -87.7 -18.65 -89.4 -13.4 -87.85 -13.9 -87.05" fill="url(#gradient31)" fill-rule="evenodd" stroke="none"/>
    <path d="M-34.35 -88.5 L-34.25 -89.9 Q-32.3 -90.95 -30.4 -92.05 L-26.5 -91.1 Q-24.5 -92.25 -22.0 -93.95 -20.45 -95.2 -19.65 -93.95 L-18.9 -90.55 -18.65 -89.4 -18.15 -87.7 -18.6 -87.4 -19.8 -87.85 -20.5 -92.1 Q-21.15 -93.25 -29.6 -88.2 -32.3 -87.3 -34.35 -88.5 M-28.25 -90.2 L-26.5 -91.1 -28.25 -90.2 -30.8 -90.55 -32.55 -89.05 Q-31.1 -88.85 -28.25 -90.2" fill="url(#gradient32)" fill-rule="evenodd" stroke="none"/>
    <path d="M-19.65 32.25 L-18.7 30.9 -15.0 33.35 -19.65 32.25 M-18.75 -17.45 L-18.75 -17.4 -18.8 -17.45 -18.75 -17.45 M-11.3 -82.35 L-12.95 -74.3 Q-14.7 -68.35 -16.85 -68.9 L-20.45 -84.75 -19.75 -85.7 -18.9 -82.4 -16.25 -72.1 Q-13.95 -76.1 -13.05 -81.3 L-12.65 -84.65 -11.3 -82.35" fill="#956e00" fill-rule="evenodd" stroke="none"/>
    <path d="M-28.25 -90.2 Q-31.1 -88.85 -32.55 -89.05 L-30.8 -90.55 -28.25 -90.2" fill="url(#gradient33)" fill-rule="evenodd" stroke="none"/>
    <path d="M-0.35 -1.0 Q-6.95 0.35 -15.35 -1.8 L-15.7 -6.7 -15.65 -6.7 -7.0 -2.3 -0.35 -1.0" fill="url(#gradient34)" fill-rule="evenodd" stroke="none"/>
    <path d="M-21.45 44.15 L-22.65 42.1 -18.7 40.55 Q-12.8 39.45 -3.35 42.55 L-3.35 42.75 -3.25 44.0 Q-11.0 40.55 -19.4 42.25 L-21.45 44.15 M-20.9 42.55 L-19.4 42.25 -20.9 42.55" fill="url(#gradient35)" fill-rule="evenodd" stroke="none"/>
    <path d="M-22.65 42.1 L-20.9 38.5 -20.9 36.1 Q-19.6 35.35 -18.1 34.95 -14.25 33.85 -9.15 35.05 L-2.1 38.35 Q-3.3 40.2 -3.35 42.55 -12.8 39.45 -18.7 40.55 L-22.65 42.1" fill="url(#gradient36)" fill-rule="evenodd" stroke="none"/>
    <path d="M-23.95 49.6 Q-23.15 46.35 -21.75 44.55 L-12.3 43.2 -12.0 43.25 Q-9.0 43.85 -16.25 47.55 -21.25 48.5 -23.95 49.6" fill="url(#gradient37)" fill-rule="evenodd" stroke="none"/>
    <path d="M-26.55 52.1 L-26.55 51.1 Q-25.75 50.3 -23.95 49.6 -21.25 48.5 -16.25 47.55 L-10.8 46.6 Q-4.65 48.2 -10.7 48.95 L-19.2 49.45 Q-21.85 49.7 -24.9 51.05 L-26.55 52.1" fill="url(#gradient38)" fill-rule="evenodd" stroke="none"/>
    <path d="M-47.7 88.6 Q-44.25 74.6 -34.65 67.25 L-34.0 66.75 -29.1 66.75 -25.5 69.7 -21.95 72.65 Q-17.75 81.15 -31.5 85.65 -38.65 87.15 -41.35 91.4 L-44.0 91.3 Q-42.15 84.6 -38.7 79.65 L-34.2 79.65 -32.05 68.3 -42.15 77.1 -41.3 78.6 Q-44.2 82.95 -47.1 90.15 -47.5 89.55 -47.7 88.6" fill="url(#gradient39)" fill-rule="evenodd" stroke="none"/>
    <path d="M-47.1 90.15 Q-44.2 82.95 -41.3 78.6 L-42.15 77.1 -32.05 68.3 -34.2 79.65 -38.7 79.65 Q-42.15 84.6 -44.0 91.3 L-45.15 91.2 Q-46.4 91.05 -47.1 90.15" fill="#453218" fill-rule="evenodd" stroke="none"/>
    <path d="M-10.6 56.55 Q-13.1 54.4 -18.95 53.35 -22.3 52.75 -25.95 53.35 L-25.4 52.2 -21.35 50.9 Q-15.45 50.85 -11.05 53.25 L-4.0 60.55 -2.25 64.0 -4.35 61.85 -10.6 56.55" fill="url(#gradient40)" fill-rule="evenodd" stroke="none"/>
    <path d="M-33.65 65.15 L-32.7 63.1 Q-31.85 62.55 -30.65 62.6 L-26.55 54.55 -25.95 53.35 Q-22.3 52.75 -18.95 53.35 -13.1 54.4 -10.6 56.55 -9.15 58.65 -9.0 60.95 -8.95 63.7 -11.7 67.55 -15.15 70.45 -21.75 68.25 L-29.0 64.3 Q-31.6 63.4 -33.65 65.15 M-21.15 67.4 L-27.1 63.45 Q-29.15 62.55 -30.65 62.6 -29.15 62.55 -27.1 63.45 L-21.15 67.4" fill="url(#gradient41)" fill-rule="evenodd" stroke="none"/>
    <path d="M-25.5 69.7 L-29.1 66.75 -34.0 66.75 -32.5 65.7 Q-29.1 64.25 -24.55 68.9 -17.5 71.55 -12.35 69.75 L-9.4 69.9 -18.15 72.3 Q-23.55 71.2 -25.5 69.7" fill="url(#gradient42)" fill-rule="evenodd" stroke="none"/>
    <path d="M-24.8 -49.3 Q-31.85 -53.45 -31.25 -55.9 -30.3 -57.6 -27.8 -56.1 L-25.2 -53.1 Q-27.15 -53.7 -26.95 -52.9 -28.1 -52.4 -24.15 -50.25 L-23.8 -48.9 -24.35 -49.05 -24.8 -49.3 M-28.65 -57.6 Q-32.45 -61.85 -32.65 -64.25 -31.85 -65.6 -26.8 -61.05 L-28.65 -57.6" fill="url(#gradient43)" fill-rule="evenodd" stroke="none"/>
    <path d="M-41.25 -22.55 Q-44.6 -20.3 -45.3 -21.1 -45.85 -24.85 -41.95 -29.6 -46.95 -24.5 -49.0 -24.4 -51.15 -26.15 -42.6 -36.45 -50.8 -29.6 -55.4 -29.6 -58.95 -32.1 -36.75 -47.5 -45.65 -48.75 -41.95 -50.0 -38.55 -50.95 -34.7 -50.0 -40.45 -52.4 -39.7 -54.05 -37.15 -56.05 -24.8 -49.3 L-24.35 -49.05 -23.8 -48.9 -23.65 -48.45 -24.9 -47.65 -32.3 -50.05 Q-35.15 -49.65 -29.35 -46.7 L-33.65 -47.4 Q-35.95 -47.2 -30.6 -44.55 -45.35 -41.75 -42.6 -39.0 -41.4 -38.05 -36.75 -39.0 -42.75 -34.7 -41.6 -32.45 L-37.65 -33.85 Q-42.6 -27.55 -42.1 -25.1 -41.85 -23.2 -37.25 -27.8 -36.15 -27.6 -34.6 -27.8 L-38.85 -24.35 -39.05 -24.15 -39.9 -23.55 -41.25 -22.55" fill="url(#gradient44)" fill-rule="evenodd" stroke="none"/>
    <path d="M-25.2 -53.1 L-24.8 -52.6 -24.15 -50.25 Q-28.1 -52.4 -26.95 -52.9 -27.15 -53.7 -25.2 -53.1" fill="url(#gradient45)" fill-rule="evenodd" stroke="none"/>
    <path d="M-36.5 -13.25 Q-41.3 -6.5 -43.9 -5.35 L-44.1 -5.25 Q-47.35 -4.35 -41.45 -17.85 -45.4 -14.75 -45.2 -16.85 -45.25 -19.4 -41.25 -22.55 L-39.9 -23.55 -42.1 -20.05 Q-43.85 -17.0 -39.2 -21.4 -43.05 -12.65 -43.0 -8.35 L-36.5 -13.25" fill="url(#gradient46)" fill-rule="evenodd" stroke="none"/>
    <path d="M-23.65 -48.45 L-23.4 -47.5 -25.1 -47.5 -24.9 -47.65 -23.65 -48.45" fill="#999966" fill-rule="evenodd" stroke="none"/>
    <path d="M-23.4 -47.5 L-23.05 -46.25 -23.35 -46.3 -23.8 -46.0 -25.1 -45.05 -25.1 -47.5 -23.4 -47.5" fill="#77774f" fill-rule="evenodd" stroke="none"/>
    <path d="M-19.15 -21.9 Q-20.65 -17.6 -21.55 -17.5 -24.05 -17.2 -22.45 -25.9 L-27.8 -19.75 Q-30.05 -17.35 -26.4 -27.6 -30.6 -21.6 -31.75 -23.1 L-25.75 -32.8 Q-32.4 -29.0 -32.3 -30.6 -31.55 -33.1 -25.75 -35.65 L-29.7 -36.5 Q-30.05 -37.45 -24.8 -37.15 L-24.8 -38.65 -23.85 -38.75 -21.35 -35.25 -19.45 -26.45 -20.75 -24.5 -19.15 -21.9" fill="url(#gradient47)" fill-rule="evenodd" stroke="none"/>
    <path d="M-24.9 -47.65 L-25.1 -47.5 -25.1 -45.05 Q-28.35 -42.45 -28.0 -39.45 -26.9 -38.85 -25.75 -38.7 -36.2 -36.8 -34.85 -34.95 -33.8 -33.5 -29.2 -34.95 -36.55 -32.35 -38.8 -28.45 -38.2 -27.95 -37.25 -27.8 -41.85 -23.2 -42.1 -25.1 -42.6 -27.55 -37.65 -33.85 L-41.6 -32.45 Q-42.75 -34.7 -36.75 -39.0 -41.4 -38.05 -42.6 -39.0 -45.35 -41.75 -30.6 -44.55 -35.95 -47.2 -33.65 -47.4 L-29.35 -46.7 Q-35.15 -49.65 -32.3 -50.05 L-24.9 -47.65" fill="url(#gradient48)" fill-rule="evenodd" stroke="none"/>
    <path d="M-23.05 -46.25 L-22.25 -43.35 -22.95 -42.25 Q-24.55 -40.7 -28.0 -39.45 -28.35 -42.45 -25.1 -45.05 L-23.8 -46.0 -23.35 -46.3 -23.05 -46.25" fill="#f5f0de" fill-rule="evenodd" stroke="none"/>
    <path d="M-22.95 -42.25 L-24.6 -39.75 -23.85 -38.75 -24.8 -38.65 -25.75 -38.7 Q-26.9 -38.85 -28.0 -39.45 -24.55 -40.7 -22.95 -42.25" fill="#e9ddb4" fill-rule="evenodd" stroke="none"/>
    <path d="M-22.45 -25.9 Q-24.1 -22.35 -25.55 -19.9 -26.4 -18.45 -27.2 -17.35 L-28.4 -15.95 Q-29.45 -14.95 -30.35 -14.65 -33.4 -15.85 -29.5 -21.55 -33.65 -17.05 -35.2 -17.35 -37.8 -20.25 -29.35 -29.25 -32.45 -28.1 -34.6 -27.8 -36.15 -27.6 -37.25 -27.8 -38.2 -27.95 -38.8 -28.45 -36.55 -32.35 -29.2 -34.95 -33.8 -33.5 -34.85 -34.95 -36.2 -36.8 -25.75 -38.7 L-24.8 -38.65 -24.8 -37.15 Q-30.05 -37.45 -29.7 -36.5 L-25.75 -35.65 Q-31.55 -33.1 -32.3 -30.6 -32.4 -29.0 -25.75 -32.8 L-31.75 -23.1 Q-30.6 -21.6 -26.4 -27.6 -30.05 -17.35 -27.8 -19.75 L-22.45 -25.9" fill="url(#gradient49)" fill-rule="evenodd" stroke="none"/>
    <path d="M-28.4 -15.95 Q-28.3 -6.35 -30.75 -5.8 -32.75 -6.75 -32.95 -12.8 -34.8 -9.8 -35.05 -10.8 L-35.05 -15.35 -36.5 -13.25 -43.0 -8.35 Q-43.05 -12.65 -39.2 -21.4 -43.85 -17.0 -42.1 -20.05 L-39.9 -23.55 -39.05 -24.15 -38.85 -24.35 -34.6 -27.8 Q-32.45 -28.1 -29.35 -29.25 -37.8 -20.25 -35.2 -17.35 -33.65 -17.05 -29.5 -21.55 -33.4 -15.85 -30.35 -14.65 -29.45 -14.95 -28.4 -15.95" fill="url(#gradient50)" fill-rule="evenodd" stroke="none"/>
    <path d="M-25.55 -19.9 Q-21.95 -11.5 -23.85 -12.3 -25.55 -12.75 -27.2 -17.35 -26.4 -18.45 -25.55 -19.9" fill="#004400" fill-rule="evenodd" stroke="none"/>
    <path d="M-32.95 -12.8 Q-34.7 -6.7 -35.9 -6.8 -38.4 -7.05 -35.05 -15.35 L-35.05 -10.8 Q-34.8 -9.8 -32.95 -12.8" fill="url(#gradient51)" fill-rule="evenodd" stroke="none"/>
    <path d="M18.85 -77.75 L19.75 -78.1 Q20.95 -79.3 21.25 -85.2 L20.85 -85.75 Q19.45 -87.3 16.55 -87.3 L5.5 -86.2 8.8 -84.9 10.55 -84.3 11.25 -84.2 Q17.8 -83.3 16.55 -85.4 M5.85 -77.9 L8.0 -77.15 10.5 -76.25 15.85 -76.85 17.65 -77.35 18.85 -77.75 M-13.9 -87.05 L-12.65 -84.65 -12.6 -86.05 -10.9 -86.05 Q-3.3 -81.4 5.85 -77.9 L5.45 -74.75 5.45 -74.7 Q4.55 -66.65 5.55 -61.1 L5.85 -59.45 Q8.5 -58.35 8.2 -54.95 L8.9 -55.5 10.5 -57.05 Q10.55 -59.3 8.2 -61.6 L7.9 -62.55 Q6.5 -67.4 7.45 -74.15 L8.0 -77.15 M17.65 -77.35 L15.05 -66.5 16.55 -63.95 13.35 -58.4 13.35 -40.6 15.25 -37.6 12.7 -33.5 12.7 -27.5 11.65 -25.4 14.4 -21.75 14.4 -19.6 11.85 -15.95 11.85 -11.45 13.15 -8.0 10.6 -4.8 10.6 -0.3 12.3 2.3 11.0 5.5 10.15 8.9 11.0 12.35 12.95 14.5 10.85 18.6 10.6 19.0 10.6 22.85 12.5 24.8 10.35 28.85 10.35 34.85 12.1 35.9 12.1 38.9 13.15 42.55 12.75 43.45 11.45 44.95 12.55 47.3 Q13.85 50.9 13.45 54.85 13.0 58.6 11.0 62.7 10.2 63.9 8.85 64.55 L6.6 65.25 5.65 67.0 3.95 68.45 3.5 70.4 0.95 70.4 Q-1.4 74.45 -2.35 80.0 L-2.7 80.6 Q-11.7 94.95 -42.15 94.65 -48.15 94.0 -47.7 88.6 -44.25 74.6 -34.65 67.25 L-33.65 65.15 -32.7 63.1 Q-31.85 62.55 -30.65 62.6 L-26.55 54.55 -26.55 52.1 -26.55 51.1 Q-25.75 50.3 -23.95 49.6 -23.15 46.35 -21.75 44.55 L-21.45 44.15 -22.65 42.1 -20.9 38.5 -20.9 36.1 Q-19.6 35.35 -18.1 34.95 L-19.65 32.25 -18.7 30.9 -17.75 29.55 -18.8 28.85 -20.1 26.05 -17.5 23.05 -17.5 11.9 -19.85 8.05 -16.85 2.9 -18.15 0.15 -17.1 -2.65 -18.35 -12.5 -20.3 -16.15 -18.8 -19.4 -18.8 -21.3 -19.15 -21.9 Q-20.65 -17.6 -21.55 -17.5 -24.05 -17.2 -22.45 -25.9 -24.1 -22.35 -25.55 -19.9 -21.95 -11.5 -23.85 -12.3 -25.55 -12.75 -27.2 -17.35 L-28.4 -15.95 Q-28.3 -6.35 -30.75 -5.8 -32.75 -6.75 -32.95 -12.8 -34.7 -6.7 -35.9 -6.8 -38.4 -7.05 -35.05 -15.35 L-36.5 -13.25 Q-41.3 -6.5 -43.9 -5.35 L-44.1 -5.25 Q-47.35 -4.35 -41.45 -17.85 -45.4 -14.75 -45.2 -16.85 -45.25 -19.4 -41.25 -22.55 -44.6 -20.3 -45.3 -21.1 -45.85 -24.85 -41.95 -29.6 -46.95 -24.5 -49.0 -24.4 -51.15 -26.15 -42.6 -36.45 -50.8 -29.6 -55.4 -29.6 -58.95 -32.1 -36.75 -47.5 -45.65 -48.75 -41.95 -50.0 -38.55 -50.95 -34.7 -50.0 -40.45 -52.4 -39.7 -54.05 -37.15 -56.05 -24.8 -49.3 -31.85 -53.45 -31.25 -55.9 -30.3 -57.6 -27.8 -56.1 L-28.85 -57.3 -28.65 -57.6 Q-32.45 -61.85 -32.65 -64.25 -31.85 -65.6 -26.8 -61.05 L-26.5 -61.6 -31.6 -82.7 Q-32.6 -82.7 -32.95 -83.25 -34.4 -85.85 -34.35 -88.5 L-34.25 -89.9 Q-32.3 -90.95 -30.4 -92.05 L-26.5 -91.1 Q-24.5 -92.25 -22.0 -93.95 -20.45 -95.2 -19.65 -93.95 L-18.9 -90.55 -12.8 -88.85 Q-11.6 -91.2 -11.3 -93.55 L-9.8 -94.4 Q-1.4 -89.1 5.5 -86.2 M6.95 -54.0 L8.2 -54.95 M-30.15 -82.85 L-31.6 -82.7 M13.0 -60.15 L10.5 -57.05 M13.0 -60.15 L14.65 -62.85 M11.2 -43.75 L11.6 -44.65 10.75 -46.4 Q10.1 -47.2 9.05 -47.85 L8.9 -55.5 M9.3 -45.2 L9.45 -44.0 9.05 -43.15 7.35 -39.75 6.15 -29.85 8.4 -30.95 8.9 -31.55 9.9 -40.8 11.2 -43.75 M13.2 -37.8 L13.55 -38.45 M8.7 -18.7 L9.55 -16.0 Q11.45 -17.55 12.9 -19.8 M7.35 -44.45 Q-6.3 -45.1 -15.0 -48.75 L-17.3 -49.8 -17.7 -50.0 Q-21.05 -51.75 -23.5 -54.05 L-25.2 -55.8 M6.95 -54.0 L6.95 -46.8 Q8.85 -46.55 9.3 -45.2 M6.45 -29.05 L7.75 -26.85 Q8.8 -24.95 6.05 -20.0 L7.25 -17.25 8.2 -15.1 9.55 -16.0 M8.7 -18.7 L8.0 -20.85 Q10.85 -24.15 9.7 -27.5 L7.7 -30.2 6.45 -29.05 Q-1.25 -22.35 -12.45 -23.9 L-17.95 -25.15 M-14.1 -17.0 Q-5.05 -12.8 1.45 -13.1 L4.45 -13.55 M8.4 -30.95 L7.7 -30.2 M13.2 -37.8 Q11.25 -34.25 8.9 -31.55 M-18.8 -17.45 L-16.85 -14.0 Q-7.9 -9.65 0.3 -10.15 4.35 -11.6 6.35 -13.1 7.65 -14.05 8.1 -15.0 6.55 -14.1 4.75 -13.6 M8.1 -15.0 L7.85 -12.55 7.8 -12.2 7.55 -9.5 8.05 -8.45 9.35 -5.7 11.85 -8.25 M8.65 2.0 L8.8 2.45 9.3 2.05 Q10.1 2.9 10.2 3.75 10.25 4.85 9.2 6.0 L8.65 6.45 6.75 6.75 Q0.35 7.5 -5.5 5.85 L-1.95 5.6 Q3.35 5.05 6.65 3.65 L7.6 3.15 8.8 2.45 M11.2 15.55 Q9.75 17.35 7.85 18.6 L8.95 20.15 9.5 20.95 9.65 21.7 Q9.75 23.2 8.75 23.8 M8.2 -15.1 L8.1 -15.0 M6.35 -10.9 L6.35 -8.65 6.75 -7.75 8.05 -4.7 7.25 -4.1 6.05 0.15 7.6 3.15 M8.65 2.0 L7.35 -1.15 8.65 -5.15 8.05 -4.7 M8.65 -5.15 L9.35 -5.7 M3.45 -2.15 Q5.45 -2.95 7.25 -4.1 M-12.9 -8.05 Q-5.3 -2.8 3.45 -2.15 1.6 -1.4 -0.35 -1.0 -6.95 0.35 -15.35 -1.8 M-16.0 0.55 Q-11.0 4.25 -5.5 5.85 M6.35 -13.1 L6.35 -10.9 M6.65 3.65 Q7.9 4.0 7.75 4.95 7.65 5.65 6.75 6.75 L6.2 8.35 5.65 10.0 7.55 15.8 7.25 16.8 6.45 19.35 Q3.0 21.05 -1.75 21.15 M8.0 8.1 L7.35 9.8 9.05 15.6 8.85 16.15 8.8 16.2 7.85 18.6 7.15 18.95 6.45 19.35 M-17.1 8.45 L-16.2 9.65 M8.0 8.1 L8.65 6.45 M7.9 20.7 L8.25 21.6 8.25 22.4 Q8.0 23.85 6.25 24.15 8.65 25.45 7.55 26.75 L7.25 27.75 7.45 28.5 8.5 27.85 Q10.3 24.7 8.65 24.05 L8.45 23.95 M7.9 20.7 L7.15 18.95 M-1.8 21.15 L-4.2 21.15 Q0.55 24.3 4.6 24.3 M9.45 37.6 L10.35 36.55 10.35 34.85 M8.5 27.85 L9.7 26.9 M9.3 29.9 L7.95 30.4 7.25 30.65 Q8.5 30.7 8.2 32.4 L7.9 33.45 6.85 36.65 7.65 37.45 8.55 38.7 9.1 39.85 Q9.55 41.2 9.55 42.75 9.55 44.35 9.05 45.7 10.45 45.7 11.45 44.95 M9.45 37.6 L8.55 38.7 M5.9 29.25 L6.95 28.75 7.45 28.5 Q9.85 28.15 7.95 30.4 M6.9 33.05 L6.85 33.25 6.55 33.9 5.6 35.85 6.85 36.65 M6.9 33.05 Q7.35 31.3 5.2 31.2 -4.45 33.7 -12.15 29.6 -15.3 27.9 -18.15 25.15 M5.2 31.2 L5.95 31.0 Q7.6 29.7 5.9 29.25 -0.85 32.1 -12.15 29.6 M-2.1 38.35 L-1.45 37.45 Q0.45 35.25 3.1 35.25 4.45 35.25 5.6 35.85 M5.95 31.0 L7.25 30.65 M9.05 45.7 L7.65 48.05 6.6 49.1 7.05 50.95 Q8.05 55.15 7.95 58.7 L10.25 57.55 Q11.95 56.5 13.45 54.85 M4.4 66.55 L3.95 68.45 M2.9 51.2 L2.8 50.3 2.8 50.25 Q0.35 50.1 -1.45 48.05 -2.95 46.3 -3.25 44.0 -11.0 40.55 -19.4 42.25 L-21.45 44.15 M3.1 50.25 L2.8 50.25 M-16.25 47.55 L-10.8 46.6 M3.25 57.25 L2.9 51.2 M0.95 70.4 L2.0 68.9 2.7 65.2 Q-2.3 70.45 -5.25 80.25 -18.05 92.05 -41.35 91.4 L-44.0 91.3 -45.15 91.2 Q-46.4 91.05 -47.1 90.15 -47.5 89.55 -47.7 88.6 M7.95 58.7 Q7.8 62.3 6.6 65.25 M2.7 65.2 Q3.25 61.4 3.25 57.25 -0.4 56.95 -3.1 54.35 M6.6 49.1 Q5.05 50.25 3.1 50.25 M-18.65 -89.4 L-18.9 -90.55 M-18.6 -87.4 L-18.15 -87.7 -18.65 -89.4 M-13.4 -87.85 L-12.8 -88.85 M-20.05 -86.85 Q-19.35 -87.0 -18.6 -87.4 M-13.9 -87.05 L-13.4 -87.85 M-12.65 -84.65 L-13.05 -81.3 Q-13.95 -76.1 -16.25 -72.1 L-18.9 -82.4 -19.75 -85.7 -20.05 -86.85 Q-23.3 -86.25 -26.55 -84.1 -28.7 -83.2 -30.15 -82.85 M-18.9 -82.4 L-13.05 -81.3 M-26.5 -91.1 L-28.25 -90.2 Q-31.1 -88.85 -32.55 -89.05 L-30.8 -90.55 M-28.65 -57.6 L-26.8 -61.05 M-24.15 -50.25 L-24.8 -52.6 -25.2 -53.1 -27.8 -56.1 M-24.15 -50.25 L-23.8 -48.9 -23.65 -48.45 -23.4 -47.5 -23.05 -46.25 -22.25 -43.35 -22.95 -42.25 -24.6 -39.75 -23.85 -38.75 -21.35 -35.25 -19.45 -26.45 -20.75 -24.5 -19.15 -21.9 M-21.8 -38.65 L-20.05 -37.2 -15.9 -34.25 -15.3 -33.85 Q-12.35 -31.95 -9.6 -30.75 -0.95 -27.05 6.15 -29.85 M-23.8 -48.9 L-24.35 -49.05 -24.8 -49.3 M-25.75 -38.7 Q-36.2 -36.8 -34.85 -34.95 -33.8 -33.5 -29.2 -34.95 -36.55 -32.35 -38.8 -28.45 -38.2 -27.95 -37.25 -27.8 -36.15 -27.6 -34.6 -27.8 -32.45 -28.1 -29.35 -29.25 -37.8 -20.25 -35.2 -17.35 -33.65 -17.05 -29.5 -21.55 -33.4 -15.85 -30.35 -14.65 -29.45 -14.95 -28.4 -15.95 M-25.55 -19.9 Q-26.4 -18.45 -27.2 -17.35 M-34.6 -27.8 L-38.85 -24.35 -39.05 -24.15 -39.9 -23.55 -41.25 -22.55 M-13.2 -24.3 Q-13.6 -24.15 -14.1 -24.75 M-18.8 -19.4 L-18.8 -17.45 M-18.35 -12.5 L-16.75 -11.05 -12.9 -8.05 M-16.15 9.7 Q-10.45 17.0 -4.2 21.15 M-3.35 42.55 Q-3.3 40.2 -2.1 38.35 L-9.15 35.05 Q-14.25 33.85 -18.1 34.95 M-3.25 44.0 L-3.35 42.75 -3.35 42.55 M-17.75 29.55 L-9.15 35.05 M-19.4 42.25 L-20.9 42.55 M-47.1 90.15 Q-44.2 82.95 -41.3 78.6 L-42.15 77.1 -32.05 68.3 -34.2 79.65 -38.7 79.65 Q-42.15 84.6 -44.0 91.3 M-34.0 66.75 L-34.65 67.25 M-4.0 60.55 L-11.05 53.25 Q-15.45 50.85 -21.35 50.9 L-25.4 52.2 -25.95 53.35 -26.55 54.55 M-34.0 66.75 L-32.5 65.7 Q-29.1 64.25 -24.55 68.9 -17.5 71.55 -12.35 69.75 M-30.65 62.6 Q-29.15 62.55 -27.1 63.45 L-21.15 67.4 M-16.25 47.55 Q-21.25 48.5 -23.95 49.6 M-15.0 -48.75 Q-1.3 -48.15 6.95 -54.0" fill="none" stroke="#000000" stroke-linecap="round" stroke-linejoin="round" stroke-opacity="0.4" stroke-width="0.5"/>
    <path d="M-16.05 -48.4 L-15.85 -48.25 M-23.65 -48.45 L-24.9 -47.65 -25.1 -47.5 -25.1 -45.05 Q-28.35 -42.45 -28.0 -39.45 -26.9 -38.85 -25.75 -38.7 L-24.8 -38.65 -23.85 -38.75 M-25.1 -45.05 L-23.8 -46.0 -23.35 -46.3 -23.05 -46.25" fill="none" stroke="#000000" stroke-linecap="round" stroke-linejoin="round" stroke-opacity="0.4" stroke-width="0.5"/>
    <path d="M20.85 -85.75 Q19.45 -87.3 16.55 -87.3 L5.5 -86.2 Q-1.4 -89.1 -9.8 -94.4 L-11.3 -93.55 Q-11.6 -91.2 -12.8 -88.85 L-18.9 -90.55 -19.65 -93.95 Q-20.45 -95.2 -22.0 -93.95 -24.5 -92.25 -26.5 -91.1 L-30.4 -92.05 Q-32.3 -90.95 -34.25 -89.9 L-34.35 -88.5 Q-34.4 -85.85 -32.95 -83.25 -32.6 -82.7 -31.6 -82.7 L-26.5 -61.6 -26.8 -61.05 Q-31.85 -65.6 -32.65 -64.25 -32.45 -61.85 -28.65 -57.6 L-28.85 -57.3 -27.8 -56.1 Q-30.3 -57.6 -31.25 -55.9 -31.85 -53.45 -24.8 -49.3 -37.15 -56.05 -39.7 -54.05 -40.45 -52.4 -34.7 -50.0 -38.55 -50.95 -41.95 -50.0 -45.65 -48.75 -36.75 -47.5 -58.95 -32.1 -55.4 -29.6 -50.8 -29.6 -42.6 -36.45 -51.15 -26.15 -49.0 -24.4 -46.95 -24.5 -41.95 -29.6 -45.85 -24.85 -45.3 -21.1 -44.6 -20.3 -41.25 -22.55 -45.25 -19.4 -45.2 -16.85 -45.4 -14.75 -41.45 -17.85 -47.35 -4.35 -44.1 -5.25 L-43.9 -5.35 Q-41.3 -6.5 -36.5 -13.25 L-35.05 -15.35 Q-38.4 -7.05 -35.9 -6.8 -34.7 -6.7 -32.95 -12.8 -32.75 -6.75 -30.75 -5.8 -28.3 -6.35 -28.4 -15.95 L-27.2 -17.35 Q-25.55 -12.75 -23.85 -12.3 -21.95 -11.5 -25.55 -19.9 -24.1 -22.35 -22.45 -25.9 -24.05 -17.2 -21.55 -17.5 -20.65 -17.6 -19.15 -21.9 L-18.8 -21.3 -18.8 -19.4 -20.3 -16.15 -18.35 -12.5 -17.1 -2.65 -18.15 0.15 -16.85 2.9 -19.85 8.05 -17.5 11.9 -17.5 23.05 -20.1 26.05 -18.8 28.85 -17.75 29.55 -19.65 32.25 -18.1 34.95 Q-19.6 35.35 -20.9 36.1 L-20.9 38.5 -22.65 42.1 -21.45 44.15 -21.75 44.55 Q-23.15 46.35 -23.95 49.6 -25.75 50.3 -26.55 51.1 L-26.55 54.55 -30.65 62.6 Q-31.85 62.55 -32.7 63.1 L-34.65 67.25 Q-44.25 74.6 -47.7 88.6 -48.15 94.0 -42.15 94.65 -11.7 94.95 -2.7 80.6 L-2.35 80.0 Q-1.4 74.45 0.95 70.4 L3.5 70.4 3.95 68.45 5.65 67.0 6.6 65.25 8.85 64.55 Q10.2 63.9 11.0 62.7 13.0 58.6 13.45 54.85 13.85 50.9 12.55 47.3 L11.45 44.95 12.75 43.45 13.15 42.55 12.1 38.9 12.1 35.9 10.35 34.85 10.35 28.85 12.5 24.8 10.6 22.85 10.6 19.0 12.95 14.5 11.0 12.35 10.15 8.9 11.0 5.5 12.3 2.3 10.6 -0.3 10.6 -4.8 13.15 -8.0 11.85 -11.45 11.85 -15.95 14.4 -19.6 14.4 -21.75 11.65 -25.4 12.7 -27.5 12.7 -33.5 15.25 -37.6 13.35 -40.6 13.35 -58.4 16.55 -63.95 15.05 -66.5 17.65 -77.35 18.85 -77.75 19.75 -78.1 Q20.95 -79.3 21.25 -85.2 L20.85 -85.75 Z" fill="none" stroke="#000000" stroke-linecap="round" stroke-linejoin="round" stroke-opacity="0.4" stroke-width="1.0"/>
  </g>
  <defs>
    <linearGradient gradientTransform="matrix(0.0152, 0.0041, -0.0014, 0.0052, 1.5, -87.0)" gradientUnits="userSpaceOnUse" id="gradient0" spreadMethod="pad" x1="-819.2" x2="819.2">
      <stop offset="0.0" stop-color="#a7a774"/>
      <stop offset="0.9882352941176471" stop-color="#828253"/>
    </linearGradient>
    <linearGradient gradientTransform="matrix(0.0139, 0.0057, -0.0029, 0.007, 6.05, -83.65)" gradientUnits="userSpaceOnUse" id="gradient1" spreadMethod="pad" x1="-819.2" x2="819.2">
      <stop offset="0.0" stop-color="#666633"/>
      <stop offset="0.9882352941176471" stop-color="#494825"/>
    </linearGradient>
    <linearGradient gradientTransform="matrix(0.0176, 0.0013, -0.0013, 0.0177, -6.2, -69.15)" gradientUnits="userSpaceOnUse" id="gradient2" spreadMethod="pad" x1="-819.2" x2="819.2">
      <stop offset="0.0" stop-color="#8d5c00"/>
      <stop offset="0.9882352941176471" stop-color="#653d01"/>
    </linearGradient>
    <linearGradient gradientTransform="matrix(0.0049, 0.0, 0.0, 0.0011, 12.75, -84.9)" gradientUnits="userSpaceOnUse" id="gradient3" spreadMethod="pad" x1="-819.2" x2="819.2">
      <stop offset="0.0" stop-color="#16150c"/>
      <stop offset="0.9882352941176471" stop-color="#494825"/>
    </linearGradient>
    <linearGradient gradientTransform="matrix(-0.0065, 0.0114, -0.0228, -0.0131, 26.5, -51.95)" gradientUnits="userSpaceOnUse" id="gradient4" spreadMethod="pad" x1="-819.2" x2="819.2">
      <stop offset="0.0" stop-color="#c68600"/>
      <stop offset="0.9882352941176471" stop-color="#d9a302"/>
    </linearGradient>
    <linearGradient gradientTransform="matrix(-0.015, 0.0, 0.0, -0.0437, -13.75, -47.05)" gradientUnits="userSpaceOnUse" id="gradient5" spreadMethod="pad" x1="-819.2" x2="819.2">
      <stop offset="0.0" stop-color="#c68600"/>
      <stop offset="0.9882352941176471" stop-color="#d9a302"/>
    </linearGradient>
    <linearGradient gradientTransform="matrix(-0.0041, 0.0011, -0.002, -0.0075, 11.3, -53.05)" gradientUnits="userSpaceOnUse" id="gradient6" spreadMethod="pad" x1="-819.2" x2="819.2">
      <stop offset="0.0" stop-color="#3c2300"/>
      <stop offset="0.9725490196078431" stop-color="#5c3b00"/>
    </linearGradient>
    <linearGradient gradientTransform="matrix(-0.0135, -0.0036, 8.0E-4, -0.0029, -5.3, -46.6)" gradientUnits="userSpaceOnUse" id="gradient7" spreadMethod="pad" x1="-819.2" x2="819.2">
      <stop offset="0.0" stop-color="#c68600"/>
      <stop offset="0.9882352941176471" stop-color="#d9a302"/>
    </linearGradient>
    <linearGradient gradientTransform="matrix(0.0067, -0.0018, 0.0015, 0.0058, 1.1, -47.9)" gradientUnits="userSpaceOnUse" id="gradient8" spreadMethod="pad" x1="-819.2" x2="819.2">
      <stop offset="0.0" stop-color="#3c2300"/>
      <stop offset="0.9725490196078431" stop-color="#5c3b00"/>
    </linearGradient>
    <linearGradient gradientTransform="matrix(0.0159, 0.0067, -0.0044, 0.0105, -4.7, -38.8)" gradientUnits="userSpaceOnUse" id="gradient9" spreadMethod="pad" x1="-819.2" x2="819.2">
      <stop offset="0.0" stop-color="#8d5c00"/>
      <stop offset="0.9882352941176471" stop-color="#653d01"/>
    </linearGradient>
    <linearGradient gradientTransform="matrix(0.0131, -0.0022, 0.0015, 0.009, -2.55, -20.05)" gradientUnits="userSpaceOnUse" id="gradient10" spreadMethod="pad" x1="-819.2" x2="819.2">
      <stop offset="0.0" stop-color="#8d5c00"/>
      <stop offset="0.9882352941176471" stop-color="#653d01"/>
    </linearGradient>
    <linearGradient gradientTransform="matrix(-0.0102, -0.0027, 0.0019, -0.0072, -8.6, -29.2)" gradientUnits="userSpaceOnUse" id="gradient11" spreadMethod="pad" x1="-819.2" x2="819.2">
      <stop offset="0.0" stop-color="#3c2300"/>
      <stop offset="0.9725490196078431" stop-color="#5c3b00"/>
    </linearGradient>
    <linearGradient gradientTransform="matrix(-0.002, 0.0034, -0.0026, -0.0015, 5.2, -14.7)" gradientUnits="userSpaceOnUse" id="gradient12" spreadMethod="pad" x1="-819.2" x2="819.2">
      <stop offset="0.0" stop-color="#c68600"/>
      <stop offset="0.9882352941176471" stop-color="#d9a302"/>
    </linearGradient>
    <linearGradient gradientTransform="matrix(-0.0061, -0.0035, 0.004, -0.007, -11.55, -18.6)" gradientUnits="userSpaceOnUse" id="gradient13" spreadMethod="pad" x1="-819.2" x2="819.2">
      <stop offset="0.0" stop-color="#3c2300"/>
      <stop offset="0.9725490196078431" stop-color="#5c3b00"/>
    </linearGradient>
    <linearGradient gradientTransform="matrix(-0.0133, -0.0013, 5.0E-4, -0.0052, -6.3, -10.45)" gradientUnits="userSpaceOnUse" id="gradient14" spreadMethod="pad" x1="-819.2" x2="819.2">
      <stop offset="0.0" stop-color="#3c2300"/>
      <stop offset="0.9725490196078431" stop-color="#5c3b00"/>
    </linearGradient>
    <linearGradient gradientTransform="matrix(0.0099, 0.0, 0.0, 0.0036, 2.1, -5.1)" gradientUnits="userSpaceOnUse" id="gradient15" spreadMethod="pad" x1="-819.2" x2="819.2">
      <stop offset="0.0" stop-color="#8d5c00"/>
      <stop offset="0.9882352941176471" stop-color="#653d01"/>
    </linearGradient>
    <linearGradient gradientTransform="matrix(0.012, 0.0, 0.0, 0.0061, -1.9, 0.85)" gradientUnits="userSpaceOnUse" id="gradient16" spreadMethod="pad" x1="-819.2" x2="819.2">
      <stop offset="0.0" stop-color="#8d5c00"/>
      <stop offset="0.9882352941176471" stop-color="#653d01"/>
    </linearGradient>
    <linearGradient gradientTransform="matrix(-0.0167, -0.0067, 0.0021, -0.0053, -12.3, -15.5)" gradientUnits="userSpaceOnUse" id="gradient17" spreadMethod="pad" x1="-819.2" x2="819.2">
      <stop offset="0.0" stop-color="#c68600"/>
      <stop offset="0.9882352941176471" stop-color="#d9a302"/>
    </linearGradient>
    <linearGradient gradientTransform="matrix(-0.0018, 0.0032, -0.0043, -0.0025, 3.1, 5.05)" gradientUnits="userSpaceOnUse" id="gradient18" spreadMethod="pad" x1="-819.2" x2="819.2">
      <stop offset="0.0" stop-color="#c68600"/>
      <stop offset="0.9882352941176471" stop-color="#d9a302"/>
    </linearGradient>
    <linearGradient gradientTransform="matrix(0.0134, 0.0036, -0.0021, 0.0079, -1.35, 12.2)" gradientUnits="userSpaceOnUse" id="gradient19" spreadMethod="pad" x1="-819.2" x2="819.2">
      <stop offset="0.0" stop-color="#8d5c00"/>
      <stop offset="0.9882352941176471" stop-color="#653d01"/>
    </linearGradient>
    <linearGradient gradientTransform="matrix(-0.0086, -0.0149, 0.0182, -0.0105, -12.25, 5.15)" gradientUnits="userSpaceOnUse" id="gradient20" spreadMethod="pad" x1="-819.2" x2="819.2">
      <stop offset="0.0" stop-color="#c68600"/>
      <stop offset="0.9882352941176471" stop-color="#d9a302"/>
    </linearGradient>
    <linearGradient gradientTransform="matrix(-0.0041, 0.0071, -0.0041, -0.0023, 9.65, 30.0)" gradientUnits="userSpaceOnUse" id="gradient21" spreadMethod="pad" x1="-819.2" x2="819.2">
      <stop offset="0.0" stop-color="#c68600"/>
      <stop offset="0.9882352941176471" stop-color="#d9a302"/>
    </linearGradient>
    <linearGradient gradientTransform="matrix(-0.0089, -0.0024, 0.0013, -0.0047, -3.25, 17.25)" gradientUnits="userSpaceOnUse" id="gradient22" spreadMethod="pad" x1="-819.2" x2="819.2">
      <stop offset="0.0" stop-color="#3c2300"/>
      <stop offset="0.9725490196078431" stop-color="#5c3b00"/>
    </linearGradient>
    <linearGradient gradientTransform="matrix(-0.0026, 0.0026, -0.0033, -0.0033, 10.7, 40.1)" gradientUnits="userSpaceOnUse" id="gradient23" spreadMethod="pad" x1="-819.2" x2="819.2">
      <stop offset="0.0" stop-color="#a7a774"/>
      <stop offset="0.9882352941176471" stop-color="#828253"/>
    </linearGradient>
    <linearGradient gradientTransform="matrix(-0.0107, -0.0061, 0.0029, -0.005, -9.3, 29.5)" gradientUnits="userSpaceOnUse" id="gradient24" spreadMethod="pad" x1="-819.2" x2="819.2">
      <stop offset="0.0" stop-color="#3c2300"/>
      <stop offset="0.9725490196078431" stop-color="#5c3b00"/>
    </linearGradient>
    <linearGradient gradientTransform="matrix(0.0122, 0.0048, -0.0034, 0.0087, -3.8, 22.5)" gradientUnits="userSpaceOnUse" id="gradient25" spreadMethod="pad" x1="-819.2" x2="819.2">
      <stop offset="0.0" stop-color="#8d5c00"/>
      <stop offset="0.9882352941176471" stop-color="#653d01"/>
    </linearGradient>
    <linearGradient gradientTransform="matrix(-0.0012, 0.0, 0.0, -0.0052, 9.9, 41.5)" gradientUnits="userSpaceOnUse" id="gradient26" spreadMethod="pad" x1="-819.2" x2="819.2">
      <stop offset="0.0" stop-color="#666633"/>
      <stop offset="0.9882352941176471" stop-color="#494825"/>
    </linearGradient>
    <linearGradient gradientTransform="matrix(0.0, -0.0084, 0.0024, 0.0, 5.95, 58.1)" gradientUnits="userSpaceOnUse" id="gradient27" spreadMethod="pad" x1="-819.2" x2="819.2">
      <stop offset="0.0" stop-color="#a7a774"/>
      <stop offset="0.9882352941176471" stop-color="#828253"/>
    </linearGradient>
    <linearGradient gradientTransform="matrix(0.0022, -0.0083, 0.0035, 9.0E-4, 4.55, 55.1)" gradientUnits="userSpaceOnUse" id="gradient28" spreadMethod="pad" x1="-819.2" x2="819.2">
      <stop offset="0.0" stop-color="#666633"/>
      <stop offset="0.9882352941176471" stop-color="#494825"/>
    </linearGradient>
    <linearGradient gradientTransform="matrix(0.0124, 0.005, -0.013, 0.032, -12.75, 72.35)" gradientUnits="userSpaceOnUse" id="gradient29" spreadMethod="pad" x1="-819.2" x2="819.2">
      <stop offset="0.0" stop-color="#8d5c00"/>
      <stop offset="0.9882352941176471" stop-color="#653d01"/>
    </linearGradient>
    <linearGradient gradientTransform="matrix(-0.0056, 0.0032, -0.0027, -0.0046, -27.95, -87.1)" gradientUnits="userSpaceOnUse" id="gradient30" spreadMethod="pad" x1="-819.2" x2="819.2">
      <stop offset="0.0" stop-color="#666633"/>
      <stop offset="0.9882352941176471" stop-color="#494825"/>
    </linearGradient>
    <linearGradient gradientTransform="matrix(0.0045, 0.0, 0.0, 0.0049, -16.35, -85.35)" gradientUnits="userSpaceOnUse" id="gradient31" spreadMethod="pad" x1="-819.2" x2="819.2">
      <stop offset="0.0" stop-color="#16150c"/>
      <stop offset="0.9882352941176471" stop-color="#494825"/>
    </linearGradient>
    <linearGradient gradientTransform="matrix(-0.0101, 0.004, -0.0019, -0.0049, -29.0, -87.95)" gradientUnits="userSpaceOnUse" id="gradient32" spreadMethod="pad" x1="-819.2" x2="819.2">
      <stop offset="0.0" stop-color="#a7a774"/>
      <stop offset="0.9882352941176471" stop-color="#828253"/>
    </linearGradient>
    <linearGradient gradientTransform="matrix(0.0026, 0.0, 0.0, 9.0E-4, -30.4, -89.8)" gradientUnits="userSpaceOnUse" id="gradient33" spreadMethod="pad" x1="-819.2" x2="819.2">
      <stop offset="0.0" stop-color="#16150c"/>
      <stop offset="0.9882352941176471" stop-color="#494825"/>
    </linearGradient>
    <linearGradient gradientTransform="matrix(-0.0042, -0.0024, 0.0021, -0.0036, -11.35, -3.4)" gradientUnits="userSpaceOnUse" id="gradient34" spreadMethod="pad" x1="-819.2" x2="819.2">
      <stop offset="0.0" stop-color="#3c2300"/>
      <stop offset="0.9725490196078431" stop-color="#5c3b00"/>
    </linearGradient>
    <linearGradient gradientTransform="matrix(0.0048, 0.0013, -0.001, 0.0037, -12.2, 43.3)" gradientUnits="userSpaceOnUse" id="gradient35" spreadMethod="pad" x1="-819.2" x2="819.2">
      <stop offset="0.0" stop-color="#666633"/>
      <stop offset="0.9882352941176471" stop-color="#494825"/>
    </linearGradient>
    <linearGradient gradientTransform="matrix(0.0105, 0.0028, -0.0016, 0.0061, -9.2, 40.3)" gradientUnits="userSpaceOnUse" id="gradient36" spreadMethod="pad" x1="-819.2" x2="819.2">
      <stop offset="0.0" stop-color="#a7a774"/>
      <stop offset="0.9882352941176471" stop-color="#828253"/>
    </linearGradient>
    <linearGradient gradientTransform="matrix(-0.0071, 0.0, 0.0, -0.0039, -20.95, 46.4)" gradientUnits="userSpaceOnUse" id="gradient37" spreadMethod="pad" x1="-819.2" x2="819.2">
      <stop offset="0.0" stop-color="#c68600"/>
      <stop offset="0.9882352941176471" stop-color="#d9a302"/>
    </linearGradient>
    <linearGradient gradientTransform="matrix(-0.0074, 0.0, 0.0, -0.0034, -17.8, 49.35)" gradientUnits="userSpaceOnUse" id="gradient38" spreadMethod="pad" x1="-819.2" x2="819.2">
      <stop offset="0.0" stop-color="#c68600"/>
      <stop offset="0.9882352941176471" stop-color="#d9a302"/>
    </linearGradient>
    <linearGradient gradientTransform="matrix(-0.0119, -0.0019, 0.0025, -0.016, -36.0, 79.15)" gradientUnits="userSpaceOnUse" id="gradient39" spreadMethod="pad" x1="-819.2" x2="819.2">
      <stop offset="0.0" stop-color="#c68600"/>
      <stop offset="0.9882352941176471" stop-color="#d9a302"/>
    </linearGradient>
    <linearGradient gradientTransform="matrix(-0.0048, -0.0027, 0.0022, -0.0039, -15.25, 55.15)" gradientUnits="userSpaceOnUse" id="gradient40" spreadMethod="pad" x1="-819.2" x2="819.2">
      <stop offset="0.0" stop-color="#3c2300"/>
      <stop offset="0.9725490196078431" stop-color="#5c3b00"/>
    </linearGradient>
    <linearGradient gradientTransform="matrix(-0.011, -0.003, 0.0024, -0.0091, -22.2, 60.3)" gradientUnits="userSpaceOnUse" id="gradient41" spreadMethod="pad" x1="-819.2" x2="819.2">
      <stop offset="0.0" stop-color="#c68600"/>
      <stop offset="0.9882352941176471" stop-color="#d9a302"/>
    </linearGradient>
    <linearGradient gradientTransform="matrix(-0.0044, -0.0025, 0.0029, -0.005, -20.9, 68.8)" gradientUnits="userSpaceOnUse" id="gradient42" spreadMethod="pad" x1="-819.2" x2="819.2">
      <stop offset="0.0" stop-color="#3c2300"/>
      <stop offset="0.9725490196078431" stop-color="#5c3b00"/>
    </linearGradient>
    <linearGradient gradientTransform="matrix(-0.0053, -0.0051, -0.0045, 0.0044, -25.45, -55.85)" gradientUnits="userSpaceOnUse" id="gradient43" spreadMethod="pad" x1="-819.2" x2="819.2">
      <stop offset="0.0" stop-color="#107c03"/>
      <stop offset="0.9725490196078431" stop-color="#257403"/>
    </linearGradient>
    <linearGradient gradientTransform="matrix(-0.0068, 0.0066, 0.0098, 0.0095, -38.15, -40.0)" gradientUnits="userSpaceOnUse" id="gradient44" spreadMethod="pad" x1="-819.2" x2="819.2">
      <stop offset="0.0" stop-color="#107c03"/>
      <stop offset="0.9725490196078431" stop-color="#257403"/>
    </linearGradient>
    <linearGradient gradientTransform="matrix(-0.0053, -0.0051, -0.0045, 0.0044, -25.45, -55.85)" gradientUnits="userSpaceOnUse" id="gradient45" spreadMethod="pad" x1="-819.2" x2="819.2">
      <stop offset="0.0" stop-color="#004400"/>
      <stop offset="0.9725490196078431" stop-color="#006400"/>
    </linearGradient>
    <linearGradient gradientTransform="matrix(-1.0E-4, 4.0E-4, 0.0056, 0.0015, -42.1, -11.05)" gradientUnits="userSpaceOnUse" id="gradient46" spreadMethod="pad" x1="-819.2" x2="819.2">
      <stop offset="0.0" stop-color="#107c03"/>
      <stop offset="0.9725490196078431" stop-color="#257403"/>
    </linearGradient>
    <linearGradient gradientTransform="matrix(-0.0036, 0.0091, 0.0152, 0.0056, -24.4, -28.8)" gradientUnits="userSpaceOnUse" id="gradient47" spreadMethod="pad" x1="-819.2" x2="819.2">
      <stop offset="0.0" stop-color="#004400"/>
      <stop offset="0.9725490196078431" stop-color="#006400"/>
    </linearGradient>
    <linearGradient gradientTransform="matrix(-0.0059, 0.0033, 0.0084, 0.0141, -34.95, -41.35)" gradientUnits="userSpaceOnUse" id="gradient48" spreadMethod="pad" x1="-819.2" x2="819.2">
      <stop offset="0.0" stop-color="#004400"/>
      <stop offset="0.9725490196078431" stop-color="#006400"/>
    </linearGradient>
    <linearGradient gradientTransform="matrix(-0.0036, 0.0091, 0.0152, 0.0056, -24.4, -28.8)" gradientUnits="userSpaceOnUse" id="gradient49" spreadMethod="pad" x1="-819.2" x2="819.2">
      <stop offset="0.0" stop-color="#107c03"/>
      <stop offset="0.9725490196078431" stop-color="#257403"/>
    </linearGradient>
    <linearGradient gradientTransform="matrix(-0.0036, 0.006, 0.0102, 0.0057, -35.3, -15.9)" gradientUnits="userSpaceOnUse" id="gradient50" spreadMethod="pad" x1="-819.2" x2="819.2">
      <stop offset="0.0" stop-color="#004400"/>
      <stop offset="0.9725490196078431" stop-color="#006400"/>
    </linearGradient>
    <linearGradient gradientTransform="matrix(-0.0036, 0.006, 0.0102, 0.0057, -35.3, -15.9)" gradientUnits="userSpaceOnUse" id="gradient51" spreadMethod="pad" x1="-819.2" x2="819.2">
      <stop offset="0.0" stop-color="#107c03"/>
      <stop offset="0.9725490196078431" stop-color="#257403"/>
    </linearGradient>
  </defs>
</svg>
