<?xml version="1.0" encoding="UTF-8" standalone="no"?>
<svg xmlns:xlink="http://www.w3.org/1999/xlink" height="42.35px" width="27.6px" xmlns="http://www.w3.org/2000/svg">
  <g transform="matrix(1.0, 0.0, 0.0, 1.0, -292.55, -127.5)">
    <path d="M299.65 158.6 L299.65 158.85 Q299.65 160.25 300.95 161.25 L301.5 161.65 Q302.25 162.15 303.1 162.4 L303.35 163.9 304.25 162.7 305.95 162.85 306.0 162.85 306.85 164.8 308.15 162.6 308.35 162.55 Q309.45 162.25 310.4 161.65 L310.8 161.4 Q312.15 160.4 312.25 159.1 L312.25 158.85 312.0 157.75 314.3 155.75 310.9 156.35 310.4 156.0 309.35 155.5 309.85 153.75 308.1 155.1 306.95 154.9 305.95 154.85 304.8 154.9 304.0 153.5 303.8 155.1 302.55 155.5 300.55 154.15 301.1 156.3 Q299.75 157.3 299.65 158.6" fill="#473327" fill-rule="evenodd" stroke="none"/>
    <path d="M307.8 127.95 Q309.55 140.25 315.4 132.75 L316.55 131.1 Q318.1 128.65 311.85 129.05 309.0 129.3 312.5 132.0 M299.65 158.6 L299.65 158.85 Q299.65 160.25 300.95 161.25 296.15 163.05 300.2 168.35 M299.65 158.6 Q296.85 156.7 292.7 158.9 M312.25 159.1 L312.25 158.85 312.0 157.75 314.3 155.75 310.9 156.35 310.4 156.0 309.35 155.5 309.85 153.75 308.1 155.1 306.95 154.9 306.95 127.65 M306.95 154.9 L305.95 154.85 304.8 154.9 304.0 153.5 303.8 155.1 302.55 155.5 300.55 154.15 301.1 156.3 Q299.75 157.3 299.65 158.6 M300.95 161.25 L301.5 161.65 Q302.25 162.15 303.1 162.4 L303.35 163.9 304.25 162.7 305.95 162.85 306.0 162.85 306.85 164.8 308.15 162.6 308.35 162.55 Q309.45 162.25 310.4 161.65 L310.8 161.4 Q317.6 164.6 312.9 169.7 M310.8 161.4 Q312.15 160.4 312.25 159.1 318.7 158.25 320.0 163.0" fill="none" stroke="#000000" stroke-linecap="round" stroke-linejoin="round" stroke-width="0.30000000000000004"/>
  </g>
</svg>
