<?xml version="1.0" encoding="UTF-8" standalone="no"?>
<svg xmlns:xlink="http://www.w3.org/1999/xlink" height="19.9px" width="14.5px" xmlns="http://www.w3.org/2000/svg">
  <g transform="matrix(1.0, 0.0, 0.0, 1.0, -267.7, -190.0)">
    <path d="M273.6 197.85 Q276.15 197.65 278.25 199.75 280.45 201.9 280.85 205.3 L280.85 205.45 Q277.2 208.15 273.1 206.35 271.2 205.5 270.5 203.25 270.2 199.55 273.6 197.85" fill="#33cc33" fill-rule="evenodd" stroke="none"/>
    <path d="M280.85 205.45 L280.5 207.4 Q274.05 211.4 268.25 208.1 L267.8 206.8 Q267.4 203.4 269.05 200.8 L270.1 199.45 Q271.45 198.05 273.4 197.85 L273.6 197.85 Q270.2 199.55 270.5 203.25 271.2 205.5 273.1 206.35 277.2 208.15 280.85 205.45" fill="#339933" fill-rule="evenodd" stroke="none"/>
    <path d="M273.6 197.85 Q276.15 197.65 278.25 199.75 280.45 201.9 280.85 205.3 L280.85 205.45 280.5 207.4 M268.25 208.1 L267.8 206.8 Q267.4 203.4 269.05 200.8 L270.1 199.45 Q271.45 198.05 273.4 197.85 L273.6 197.85" fill="none" stroke="#000000" stroke-linecap="round" stroke-linejoin="round" stroke-opacity="0.4" stroke-width="0.05"/>
    <path d="M280.5 207.4 Q274.05 211.4 268.25 208.1" fill="none" stroke="#000000" stroke-linecap="round" stroke-linejoin="round" stroke-opacity="0.4" stroke-width="0.05"/>
    <path d="M272.7 195.4 L272.1 193.95 273.35 194.35 274.05 196.05 274.6 194.55 274.7 194.75 Q275.6 197.8 275.25 199.05 L274.2 196.4 272.7 195.4 M271.9 193.3 L271.8 192.9 271.55 191.5 272.55 192.2 271.65 190.0 271.9 190.05 Q272.95 190.9 273.75 192.4 L273.05 193.5 273.25 194.0 271.9 193.3 M273.05 193.5 L272.55 192.2 273.05 193.5 M274.05 196.05 L274.2 196.4 274.05 196.05" fill="#33cc33" fill-rule="evenodd" stroke="none"/>
    <path d="M275.25 199.05 L275.2 199.1 Q273.55 197.3 272.7 195.4 L274.2 196.4 275.25 199.05 M272.1 193.95 L271.9 193.3 273.25 194.0 273.05 193.5 273.75 192.4 274.6 194.55 274.05 196.05 273.35 194.35 272.1 193.95 M271.55 191.5 Q271.35 190.15 271.65 190.0 L272.55 192.2 271.55 191.5 M273.25 194.0 L273.35 194.35 273.25 194.0" fill="#339933" fill-rule="evenodd" stroke="none"/>
    <path d="M275.25 199.05 L275.2 199.1 Q273.55 197.3 272.7 195.4 L272.1 193.95 271.9 193.3 271.8 192.9 271.55 191.5 Q271.35 190.15 271.65 190.0 L271.9 190.05 Q272.95 190.9 273.75 192.4 L274.6 194.55 274.7 194.75 Q275.6 197.8 275.25 199.05 L274.2 196.4 274.05 196.05 273.35 194.35 273.25 194.0 273.05 193.5 272.55 192.2 271.65 190.0" fill="none" stroke="#000000" stroke-linecap="round" stroke-linejoin="round" stroke-opacity="0.4" stroke-width="0.05"/>
    <path d="M277.1 205.25 L277.45 205.05 277.55 204.5 277.35 204.05 276.95 203.85 276.65 204.1 276.55 204.65 276.75 205.1 277.1 205.25" fill="#000000" fill-rule="evenodd" stroke="none"/>
    <path d="M279.85 204.0 L280.15 203.75 280.2 203.35 280.05 202.9 279.7 202.8 279.45 203.0 Q279.35 203.2 279.4 203.45 L279.55 203.85 279.85 204.0" fill="#000000" fill-rule="evenodd" stroke="none"/>
    <path d="M279.5 206.65 Q279.3 206.1 278.75 205.8 278.5 205.9 278.8 206.3 L279.5 206.65" fill="#796100" fill-rule="evenodd" stroke="none"/>
    <path d="M279.15 208.75 L282.2 209.25 281.8 205.9 281.7 208.05 280.7 205.7 Q280.1 204.5 278.7 204.05 276.75 205.45 276.5 208.15 L277.85 208.5 279.15 208.75 M279.5 206.65 L278.8 206.3 Q278.5 205.9 278.75 205.8 279.3 206.1 279.5 206.65" fill="#ffcc00" fill-rule="evenodd" stroke="none"/>
    <path d="M281.8 205.9 Q280.7 204.05 278.7 204.05 280.1 204.5 280.7 205.7 L281.7 208.05 281.8 205.9" fill="#ffdf5e" fill-rule="evenodd" stroke="none"/>
    <path d="M277.85 208.5 L277.9 208.95 Q278.35 208.8 278.4 209.55 L279.15 208.75 277.85 208.5" fill="#ff99cc" fill-rule="evenodd" stroke="none"/>
    <path d="M277.9 208.95 L278.0 209.9 278.4 209.55 Q278.35 208.8 277.9 208.95" fill="#ffcccc" fill-rule="evenodd" stroke="none"/>
    <path d="M277.85 208.5 L277.9 208.95 278.0 209.9 278.4 209.55 279.15 208.75 282.2 209.25 281.8 205.9 Q280.7 204.05 278.7 204.05 276.75 205.45 276.5 208.15 L277.85 208.5 279.15 208.75" fill="none" stroke="#000000" stroke-linecap="round" stroke-linejoin="round" stroke-opacity="0.4" stroke-width="0.05"/>
  </g>
</svg>
