<?xml version="1.0" encoding="UTF-8" standalone="no"?>
<svg xmlns:xlink="http://www.w3.org/1999/xlink" height="158.5px" width="283.0px" xmlns="http://www.w3.org/2000/svg">
  <g transform="matrix(1.0, 0.0, 0.0, 1.0, 141.5, 79.25)">
    <path d="M31.95 43.65 L32.4 43.4 31.75 46.25 33.7 43.05 33.85 42.7 36.05 36.4 Q35.25 36.3 34.5 35.9 35.25 36.3 36.05 36.4 37.5 36.2 38.3 34.9 L38.5 32.95 37.45 31.65 38.4 23.6 36.45 22.95 36.25 24.6 36.1 25.4 35.85 26.5 36.0 28.1 36.1 29.7 36.15 32.2 36.1 32.4 Q35.5 32.75 35.05 33.4 L34.9 33.45 34.65 33.4 34.2 33.1 34.1 33.1 33.75 33.2 34.25 34.0 34.35 34.25 34.4 34.6 34.5 34.8 34.45 34.85 34.55 34.95 33.45 34.75 32.55 33.9 32.55 34.05 33.35 35.0 34.5 35.9 34.15 37.15 33.45 39.6 32.4 42.35 31.95 43.65 M35.05 33.4 L36.95 33.7 37.45 31.65 36.95 33.7 35.05 33.4" fill="#cccc99" fill-rule="evenodd" stroke="none"/>
    <path d="M31.95 43.65 L32.4 42.35 33.45 39.6 34.15 37.15 34.5 35.9 33.35 35.0 Q32.1 40.0 29.75 44.65 L31.95 43.65 M36.45 22.95 L36.25 22.95 34.6 22.35 34.5 29.6 32.7 31.1 Q32.25 31.7 32.25 32.55 32.2 33.15 32.55 33.9 L33.45 34.75 34.55 34.95 34.45 34.85 34.5 34.8 34.4 34.6 34.35 34.25 34.25 34.0 33.75 33.2 34.1 33.1 34.2 33.1 34.65 33.4 34.9 33.45 35.05 33.4 Q35.5 32.75 36.1 32.4 L36.15 32.2 36.1 29.7 36.0 28.1 35.85 26.5 36.1 25.4 36.25 24.6 36.45 22.95 M34.7 31.75 L34.5 29.6 34.7 31.75" fill="#e6e6cc" fill-rule="evenodd" stroke="none"/>
    <path d="M36.05 36.4 L33.85 42.7 33.7 43.05 31.75 46.25 32.4 43.4 31.95 43.65 29.75 44.65 Q32.1 40.0 33.35 35.0 L34.5 35.9 Q35.25 36.3 36.05 36.4 37.5 36.2 38.3 34.9 L38.5 32.95 37.45 31.65 38.4 23.6 36.45 22.95 M36.25 22.95 L34.6 22.35 34.5 29.6 32.7 31.1 Q32.25 31.7 32.25 32.55 32.2 33.15 32.55 33.9 L32.55 34.05 33.35 35.0 M34.5 29.6 L34.7 31.75 M37.45 31.65 L36.95 33.7 35.05 33.4" fill="none" stroke="#000000" stroke-linecap="round" stroke-linejoin="round" stroke-opacity="0.4" stroke-width="0.05"/>
    <path d="M70.95 -35.95 L73.95 -38.4 75.0 -38.8 Q73.3 -35.9 73.1 -34.55 73.85 -35.15 75.2 -35.35 L76.25 -35.75 Q86.4 -45.4 88.45 -55.5 90.05 -66.05 87.95 -73.55 85.75 -81.4 84.6 -78.4 L76.85 -59.7 Q71.05 -45.6 69.55 -40.25 L72.15 -42.2 Q72.1 -40.55 70.85 -36.25 L70.95 -35.95" fill="#bb8e4d" fill-rule="evenodd" stroke="none"/>
    <path d="M70.95 -35.95 L73.95 -38.4 75.0 -38.8 Q73.3 -35.9 73.1 -34.55 73.85 -35.15 75.2 -35.35 L76.25 -35.75 Q86.4 -45.4 88.45 -55.5 90.05 -66.05 87.95 -73.55 85.75 -81.4 84.6 -78.4 L76.85 -59.7 Q71.05 -45.6 69.55 -40.25 L72.15 -42.2 Q72.1 -40.55 70.85 -36.25 L70.4 -35.75 70.95 -35.95 Z" fill="none" stroke="#000000" stroke-linecap="round" stroke-linejoin="round" stroke-opacity="0.24313726" stroke-width="0.05"/>
    <path d="M36.7 32.25 L40.05 28.05 53.4 19.4 48.7 12.9 Q50.55 13.15 54.85 14.7 60.75 17.6 67.25 15.1 76.15 11.75 82.75 7.6 L70.9 -3.9 97.1 -3.35 90.35 -6.2 111.6 -21.35 101.85 -20.6 103.95 -22.35 Q104.8 -23.3 106.0 -24.1 108.55 -26.3 111.95 -28.55 L79.95 -19.55 78.9 -19.15 88.05 -27.15 Q74.75 -21.1 67.7 -17.45 60.65 -13.85 56.8 -10.4 L55.25 -8.85 54.2 -8.45 Q52.75 -7.55 50.7 -7.45 L46.4 -3.55 46.2 -4.1 Q55.5 -16.35 54.25 -19.4 L48.95 -13.85 48.55 -13.35 44.1 -5.25 43.05 -2.9 42.35 -1.35 Q40.85 2.1 40.1 4.3 38.4 8.15 38.4 9.15 38.3 10.75 32.95 20.5 28.75 27.6 36.7 32.25" fill="#b38644" fill-rule="evenodd" stroke="none"/>
    <path d="M48.95 -13.85 L54.25 -19.4 Q55.5 -16.35 46.2 -4.1 L46.4 -3.55 50.7 -7.45 Q52.75 -7.55 54.2 -8.45 63.0 -30.4 66.75 -38.9 62.7 -34.1 59.9 -30.15 53.35 -21.3 48.95 -13.85 M55.25 -8.85 L56.8 -10.4 Q60.65 -13.85 67.7 -17.45 74.75 -21.1 88.05 -27.15 L78.9 -19.15 79.95 -19.55 111.95 -28.55 Q116.85 -32.35 123.6 -36.9 137.15 -45.9 141.5 -56.2 L139.1 -56.3 Q138.15 -55.6 127.0 -52.9 129.1 -53.7 132.3 -56.55 136.35 -60.35 137.35 -63.65 L133.95 -63.3 104.1 -58.6 Q104.0 -58.85 104.25 -58.95 104.25 -61.85 126.45 -75.8 L117.6 -75.0 Q102.05 -75.1 86.95 -61.05 L81.75 -56.15 83.15 -57.35 Q94.5 -66.75 109.0 -71.7 95.6 -57.65 91.25 -50.2 84.85 -40.05 81.9 -32.8 64.6 -22.65 55.25 -8.85 M71.85 -48.55 L74.65 -61.8 Q70.2 -52.05 67.4 -45.2 L71.85 -48.55" fill="#d6c47e" fill-rule="evenodd" stroke="none"/>
    <path d="M54.2 -8.45 L55.25 -8.85 Q64.6 -22.65 81.9 -32.8 84.85 -40.05 91.25 -50.2 95.6 -57.65 109.0 -71.7 94.5 -66.75 83.15 -57.35 L81.75 -56.15 Q76.65 -51.0 70.7 -43.9 L71.85 -48.55 67.4 -45.2 Q64.8 -40.4 63.3 -36.9 L61.5 -33.35 59.9 -30.15 Q62.7 -34.1 66.75 -38.9 63.0 -30.4 54.2 -8.45" fill="#ffffff" fill-rule="evenodd" stroke="none"/>
    <path d="M111.6 -21.35 L90.35 -6.2 97.1 -3.35 70.9 -3.9 82.75 7.6 Q76.15 11.75 67.25 15.1 60.75 17.6 54.85 14.7 50.55 13.15 48.7 12.9 L53.4 19.4 40.05 28.05 36.7 32.25 Q39.2 33.55 43.1 34.9 71.75 28.15 97.25 10.05 L100.85 7.4 Q99.85 7.15 99.15 6.75 88.35 3.2 89.3 1.55 L101.15 2.8 Q110.3 -6.15 116.3 -14.8 L118.1 -17.45 120.65 -22.25 111.6 -21.35" fill="#8d6a36" fill-rule="evenodd" stroke="none"/>
    <path d="M111.6 -21.35 L120.65 -22.25 118.1 -17.45 116.3 -14.8 Q110.3 -6.15 101.15 2.8 L89.3 1.55 Q88.35 3.2 99.15 6.75 99.85 7.15 100.85 7.4 L97.25 10.05 Q71.75 28.15 43.1 34.9 39.2 33.55 36.7 32.25 28.75 27.6 32.95 20.5 38.3 10.75 38.4 9.15 38.4 8.15 40.1 4.3 40.85 2.1 42.35 -1.35 L43.05 -2.9 44.1 -5.25 M111.95 -28.55 Q108.55 -26.3 106.0 -24.1 104.8 -23.3 103.95 -22.35 L101.85 -20.6 111.6 -21.35 M111.95 -28.55 Q116.85 -32.35 123.6 -36.9 137.15 -45.9 141.5 -56.2 L139.1 -56.3 Q138.15 -55.6 127.0 -52.9 129.1 -53.7 132.3 -56.55 136.35 -60.35 137.35 -63.65 L133.95 -63.3 104.1 -58.6 Q104.0 -58.85 104.25 -58.95 104.25 -61.85 126.45 -75.8 L117.6 -75.0 Q102.05 -75.1 86.95 -61.05 L81.75 -56.15 Q76.65 -51.0 70.7 -43.9 L71.85 -48.55 74.65 -61.8 Q70.2 -52.05 67.4 -45.2 64.8 -40.4 63.3 -36.9 L61.5 -33.35 59.9 -30.15 Q53.35 -21.3 48.95 -13.85" fill="none" stroke="#000000" stroke-linecap="round" stroke-linejoin="round" stroke-opacity="0.24313726" stroke-width="0.05"/>
    <path d="M88.0 -33.8 Q91.15 -35.0 93.9 -36.4 L95.8 -37.8 Q101.7 -41.35 105.05 -46.45 107.55 -50.6 109.15 -54.75 110.95 -59.25 111.4 -63.25 112.15 -71.25 110.15 -69.2 L96.15 -55.2 Q86.3 -45.65 83.0 -41.2 L83.1 -40.95 87.65 -42.35 87.9 -42.45 84.45 -36.65 84.55 -35.4 84.65 -35.1 84.7 -33.2 84.8 -32.9 84.7 -31.3 Q85.55 -32.25 86.55 -32.95 L86.95 -33.4 88.0 -33.8" fill="#e6dbb3" fill-rule="evenodd" stroke="none"/>
    <path d="M95.8 -37.8 L102.0 -39.5 Q114.0 -44.1 123.75 -57.7 L123.65 -58.0 109.15 -54.75 Q107.55 -50.6 105.05 -46.45 101.7 -41.35 95.8 -37.8" fill="#b38644" fill-rule="evenodd" stroke="none"/>
    <path d="M86.55 -32.95 L88.0 -33.8 Q91.15 -35.0 93.9 -36.4 L95.8 -37.8 Q101.7 -41.35 105.05 -46.45 107.55 -50.6 109.15 -54.75 110.95 -59.25 111.4 -63.25 112.15 -71.25 110.15 -69.2 L96.15 -55.2 Q86.3 -45.65 83.0 -41.2 L83.1 -40.95 M86.95 -33.4 L88.0 -33.8" fill="none" stroke="#000000" stroke-linecap="round" stroke-linejoin="round" stroke-opacity="0.24313726" stroke-width="0.05"/>
    <path d="M96.3 -22.3 L96.35 -22.0 Q98.0 -19.7 102.05 -19.0 L103.5 -18.95 106.5 -18.8 110.15 -19.25 111.3 -19.35 109.7 -20.7 111.3 -19.35 115.75 -20.05 112.65 -23.35 115.75 -20.05 Q120.65 -21.3 122.35 -22.25 L124.75 -23.85 125.05 -23.95 123.05 -23.8 Q122.95 -24.1 122.7 -24.0 125.85 -25.2 126.95 -27.25 126.85 -27.5 128.85 -29.55 127.6 -30.7 126.65 -30.95 124.5 -32.05 118.5 -32.65 L117.45 -32.25 Q117.65 -33.3 119.15 -35.15 L116.6 -34.8 105.85 -30.1 106.25 -30.6 Q108.2 -33.6 109.2 -34.2 L108.7 -34.05 Q103.6 -31.5 100.15 -26.65 L97.85 -23.85 Q96.9 -23.15 96.3 -22.3 M115.15 -32.0 L117.45 -32.25 115.15 -32.0" fill="#c1a846" fill-rule="evenodd" stroke="none"/>
    <path d="M88.5 -19.3 Q92.05 -20.0 94.4 -20.9 L96.05 -22.2 96.3 -22.3 96.35 -22.0 Q98.0 -19.7 102.05 -19.0 L103.5 -18.95 106.5 -18.8 110.15 -19.25 111.3 -19.35 115.35 -15.75 M96.3 -22.3 Q96.9 -23.15 97.85 -23.85 L100.15 -26.65 Q103.6 -31.5 108.7 -34.05 L109.2 -34.2 Q108.2 -33.6 106.25 -30.6 L105.85 -30.1 116.6 -34.8 119.15 -35.15 Q117.65 -33.3 117.45 -32.25 L115.15 -32.0 M109.7 -20.7 L111.3 -19.35 115.75 -20.05 Q116.45 -19.7 117.35 -18.75 M112.65 -23.35 L115.75 -20.05 Q120.65 -21.3 122.35 -22.25 L124.75 -23.85 125.05 -23.95 123.05 -23.8 Q122.95 -24.1 122.7 -24.0 125.85 -25.2 126.95 -27.25 126.85 -27.5 128.85 -29.55 127.6 -30.7 126.65 -30.95 124.5 -32.05 118.5 -32.65 L117.45 -32.25" fill="none" stroke="#000000" stroke-linecap="round" stroke-linejoin="round" stroke-opacity="0.24313726" stroke-width="0.05"/>
    <path d="M65.3 -55.3 L63.25 -45.2 63.05 -45.75 Q62.3 -49.0 62.25 -50.25 L61.95 -50.15 Q61.2 -44.1 62.8 -38.3 63.65 -34.75 63.8 -32.3 66.75 -32.4 69.5 -35.7 72.35 -39.7 73.95 -42.9 72.8 -43.7 74.7 -44.15 L76.5 -48.6 76.7 -49.7 Q78.35 -53.8 78.55 -55.85 L78.8 -58.8 77.85 -57.15 77.6 -57.05 Q78.25 -60.5 77.35 -62.4 L76.85 -65.75 Q75.55 -65.25 74.6 -64.6 72.75 -63.2 68.75 -58.2 L68.25 -57.05 65.3 -55.3 68.25 -57.05 Q67.75 -57.8 67.25 -60.2 L65.95 -57.8 65.3 -55.3 M72.1 -47.65 L76.5 -48.6 72.1 -47.65" fill="#ffffff" fill-rule="evenodd" stroke="none"/>
    <path d="M62.25 -50.25 Q62.3 -49.0 63.05 -45.75 L63.25 -45.2 65.3 -55.3 68.25 -57.05 68.75 -58.2 Q72.75 -63.2 74.6 -64.6 75.55 -65.25 76.85 -65.75 L77.35 -62.4 Q78.25 -60.5 77.6 -57.05 L77.85 -57.15 78.8 -58.8 78.55 -55.85 Q78.35 -53.8 76.7 -49.7 L76.5 -48.6 72.1 -47.65 M61.95 -50.15 Q62.25 -50.25 62.15 -50.55 L62.25 -50.25 M76.5 -48.6 L74.7 -44.15 Q72.8 -43.7 73.95 -42.9 72.35 -39.7 69.5 -35.7 66.75 -32.4 63.8 -32.3 63.65 -34.75 62.8 -38.3 61.2 -44.1 61.95 -50.15 M61.6 -23.7 Q63.3 -27.6 63.95 -30.1 L63.8 -32.3 M73.95 -42.9 L74.2 -43.0 Q74.25 -43.65 74.7 -44.15 L79.4 -45.9 M65.3 -55.3 L65.95 -57.8 67.25 -60.2 Q67.75 -57.8 68.25 -57.05" fill="none" stroke="#000000" stroke-linecap="round" stroke-linejoin="round" stroke-opacity="0.24313726" stroke-width="0.05"/>
    <path d="M69.7 -13.1 Q75.85 -12.2 79.75 -13.65 L80.6 -13.0 Q72.95 -8.55 72.15 -8.25 L80.25 -11.3 Q74.05 -5.1 73.1 -2.5 L75.75 -3.5 77.35 -3.8 80.5 -4.95 82.3 -5.65 Q90.05 -9.9 95.95 -15.35 L97.95 -17.4 102.3 -22.95 104.1 -25.55 106.8 -30.1 101.65 -26.85 97.95 -24.8 Q87.0 -18.7 75.1 -15.45 72.25 -14.35 69.7 -13.1" fill="#e6dbb3" fill-rule="evenodd" stroke="none"/>
    <path d="M80.5 -4.95 L96.7 -9.25 Q109.25 -14.05 112.35 -18.15 L97.95 -17.4 95.95 -15.35 Q90.05 -9.9 82.3 -5.65 L80.5 -4.95" fill="#8d6a36" fill-rule="evenodd" stroke="none"/>
    <path d="M73.1 -2.5 L75.75 -3.5 77.35 -3.8 80.5 -4.95 82.3 -5.65 Q90.05 -9.9 95.95 -15.35 M97.95 -17.4 L102.3 -22.95 104.1 -25.55 106.8 -30.1 101.65 -26.85 97.95 -24.8 Q87.0 -18.7 75.1 -15.45 72.25 -14.35 69.7 -13.1" fill="none" stroke="#000000" stroke-linecap="round" stroke-linejoin="round" stroke-opacity="0.24313726" stroke-width="0.05"/>
    <path d="M-24.4 68.9 L-23.95 70.15 -23.2 72.6 -22.1 75.35 -21.55 76.65 -22.1 76.4 -21.35 79.25 -23.5 76.05 -23.7 75.7 -26.1 69.4 -24.4 68.9 -26.1 69.4 Q-27.6 69.2 -28.6 67.9 L-28.8 65.95 -27.65 64.65 -28.65 56.6 -26.5 55.95 -26.3 57.6 -26.15 58.4 -25.9 59.5 -26.1 61.1 -26.15 62.7 -26.25 65.2 -26.2 65.4 Q-25.45 65.75 -24.95 66.4 L-24.85 66.45 -24.55 66.4 -24.1 66.1 -24.0 66.1 -23.6 66.2 -24.05 67.0 -24.25 67.25 -24.25 67.6 -24.4 67.8 -24.4 67.85 -24.4 67.95 -23.25 67.75 -22.25 66.9 -22.25 67.05 -23.15 68.0 -24.4 68.9 M-24.95 66.4 L-27.1 66.7 -27.65 64.65 -27.1 66.7 -24.95 66.4" fill="#cccc99" fill-rule="evenodd" stroke="none"/>
    <path d="M-21.55 76.65 L-22.1 75.35 -23.2 72.6 -23.95 70.15 -24.4 68.9 -23.15 68.0 Q-21.75 73.0 -19.2 77.65 L-21.55 76.65 M-22.25 66.9 L-23.25 67.75 -24.4 67.95 -24.4 67.85 -24.4 67.8 -24.25 67.6 -24.25 67.25 -24.05 67.0 -23.6 66.2 -24.0 66.1 -24.1 66.1 -24.55 66.4 -24.85 66.45 -24.95 66.4 Q-25.45 65.75 -26.2 65.4 L-26.25 65.2 -26.15 62.7 -26.1 61.1 -25.9 59.5 -26.15 58.4 -26.3 57.6 -26.5 55.95 -26.3 55.95 -24.5 55.35 -24.4 62.6 -22.45 64.1 Q-21.95 64.7 -22.0 65.55 -21.9 66.15 -22.25 66.9 M-24.65 64.75 L-24.4 62.6 -24.65 64.75" fill="#e6e6cc" fill-rule="evenodd" stroke="none"/>
    <path d="M-24.4 68.9 L-26.1 69.4 -23.7 75.7 -23.5 76.05 -21.35 79.25 -22.1 76.4 -21.55 76.65 -19.2 77.65 Q-21.75 73.0 -23.15 68.0 L-24.4 68.9 M-22.25 66.9 Q-21.9 66.15 -22.0 65.55 -21.95 64.7 -22.45 64.1 L-24.4 62.6 -24.65 64.75 M-27.65 64.65 L-28.8 65.95 -28.6 67.9 Q-27.6 69.2 -26.1 69.4 M-23.15 68.0 L-22.25 67.05 -22.25 66.9 M-26.5 55.95 L-28.65 56.6 -27.65 64.65 -27.1 66.7 -24.95 66.4 M-24.4 62.6 L-24.5 55.35 -26.3 55.95" fill="none" stroke="#000000" stroke-linecap="round" stroke-linejoin="round" stroke-opacity="0.4" stroke-width="0.05"/>
    <path d="M-64.3 -2.95 L-67.6 -5.4 -68.75 -5.8 Q-66.9 -2.9 -66.65 -1.55 -67.4 -2.15 -68.95 -2.35 L-70.1 -2.75 Q-81.2 -12.4 -83.45 -22.5 -85.2 -33.05 -82.9 -40.55 -80.5 -48.4 -79.3 -45.4 L-70.75 -26.7 Q-64.45 -12.6 -62.8 -7.25 L-65.65 -9.2 Q-65.55 -7.55 -64.2 -3.25 L-64.3 -2.95" fill="#bb8e4d" fill-rule="evenodd" stroke="none"/>
    <path d="M-64.3 -2.95 L-67.6 -5.4 -68.75 -5.8 Q-66.9 -2.9 -66.65 -1.55 -67.4 -2.15 -68.95 -2.35 L-70.1 -2.75 Q-81.2 -12.4 -83.45 -22.5 -85.2 -33.05 -82.9 -40.55 -80.5 -48.4 -79.3 -45.4 L-70.75 -26.7 Q-64.45 -12.6 -62.8 -7.25 L-65.65 -9.2 Q-65.55 -7.55 -64.2 -3.25 L-63.75 -2.75 -64.3 -2.95 Z" fill="none" stroke="#000000" stroke-linecap="round" stroke-linejoin="round" stroke-opacity="0.24313726" stroke-width="0.05"/>
    <path d="M-26.8 65.25 Q-28.55 63.0 -30.45 61.05 -37.95 56.85 -45.05 52.4 -42.65 49.1 -39.9 45.9 -41.9 46.15 -46.65 47.7 -53.1 50.6 -60.25 48.1 -69.95 44.75 -77.15 40.6 L-64.2 29.1 -92.9 29.65 -85.55 26.8 -108.8 11.65 -98.15 12.4 Q-99.1 11.45 -100.45 10.65 -101.4 9.7 -102.7 8.9 -105.45 6.7 -109.15 4.45 L-74.15 13.45 -73.0 13.85 -83.05 5.85 Q-68.45 11.9 -60.75 15.55 -53.05 19.15 -48.8 22.6 L-47.1 24.15 -45.95 24.55 Q-44.35 25.45 -42.15 25.55 L-37.4 29.45 -37.2 28.9 Q-47.35 16.65 -46.0 13.6 L-40.2 19.15 -39.75 19.65 Q-36.85 24.2 -34.9 27.75 L-33.8 30.1 -33.05 31.65 Q-31.35 35.1 -30.55 37.3 -28.65 41.15 -28.7 42.15 -28.6 43.75 -22.7 53.5 -18.1 60.6 -26.8 65.25" fill="#b38644" fill-rule="evenodd" stroke="none"/>
    <path d="M-40.2 19.15 L-46.0 13.6 Q-47.35 16.65 -37.2 28.9 L-37.4 29.45 -42.15 25.55 Q-44.35 25.45 -45.95 24.55 -55.6 2.6 -59.7 -5.9 -55.25 -1.1 -52.15 2.85 -45.0 11.7 -40.2 19.15 M-47.1 24.15 L-48.8 22.6 Q-53.05 19.15 -60.75 15.55 -68.45 11.9 -83.05 5.85 L-73.0 13.85 -74.15 13.45 -109.15 4.45 Q-114.55 0.65 -121.95 -3.9 -136.75 -12.9 -141.5 -23.2 L-138.9 -23.3 Q-137.85 -22.6 -125.65 -19.9 -127.95 -20.7 -131.45 -23.55 -135.9 -27.35 -137.0 -30.65 L-133.25 -30.3 -100.55 -25.6 Q-100.45 -25.85 -100.75 -25.95 -100.7 -28.85 -125.1 -42.8 L-115.4 -42.0 Q-98.35 -42.1 -81.8 -28.05 L-76.15 -23.15 -77.65 -24.35 Q-90.05 -33.75 -106.0 -38.7 -91.3 -24.65 -86.5 -17.2 -79.5 -7.05 -76.25 0.2 -57.35 10.35 -47.1 24.15 M-65.3 -15.55 L-68.4 -28.8 Q-63.45 -19.05 -60.35 -12.2 L-65.3 -15.55" fill="#d6c47e" fill-rule="evenodd" stroke="none"/>
    <path d="M-45.95 24.55 L-47.1 24.15 Q-57.35 10.35 -76.25 0.2 -79.5 -7.05 -86.5 -17.2 -91.3 -24.65 -106.0 -38.7 -90.05 -33.75 -77.65 -24.35 L-76.15 -23.15 Q-70.5 -18.0 -64.0 -10.9 L-65.3 -15.55 -60.35 -12.2 Q-57.55 -7.4 -55.9 -3.9 L-53.9 -0.35 -52.15 2.85 Q-55.25 -1.1 -59.7 -5.9 -55.6 2.6 -45.95 24.55" fill="#ffffff" fill-rule="evenodd" stroke="none"/>
    <path d="M-108.8 11.65 L-85.55 26.8 -92.9 29.65 -64.2 29.1 -77.15 40.6 Q-69.95 44.75 -60.25 48.1 -53.1 50.6 -46.65 47.7 -41.9 46.15 -39.9 45.9 -42.65 49.1 -45.05 52.4 -37.95 56.85 -30.45 61.05 -28.55 63.0 -26.8 65.25 -29.5 66.55 -33.8 67.9 -65.1 61.15 -93.1 43.05 L-97.0 40.4 Q-95.95 40.15 -95.15 39.75 -83.35 36.2 -84.35 34.55 L-97.3 35.8 Q-107.35 26.85 -113.9 18.2 L-115.95 15.55 -118.75 10.75 -108.8 11.65" fill="#8d6a36" fill-rule="evenodd" stroke="none"/>
    <path d="M-108.8 11.65 L-118.75 10.75 -115.95 15.55 -113.9 18.2 Q-107.35 26.85 -97.3 35.8 L-84.35 34.55 Q-83.35 36.2 -95.15 39.75 -95.95 40.15 -97.0 40.4 L-93.1 43.05 Q-65.1 61.15 -33.8 67.9 -29.5 66.55 -26.8 65.25 -18.1 60.6 -22.7 53.5 -28.6 43.75 -28.7 42.15 -28.65 41.15 -30.55 37.3 -31.35 35.1 -33.05 31.65 L-33.8 30.1 -34.9 27.75 M-109.15 4.45 Q-105.45 6.7 -102.7 8.9 -101.4 9.7 -100.45 10.65 -99.1 11.45 -98.15 12.4 L-108.8 11.65 M-109.15 4.45 Q-114.55 0.65 -121.95 -3.9 -136.75 -12.9 -141.5 -23.2 L-138.9 -23.3 Q-137.85 -22.6 -125.65 -19.9 -127.95 -20.7 -131.45 -23.55 -135.9 -27.35 -137.0 -30.65 L-133.25 -30.3 -100.55 -25.6 Q-100.45 -25.85 -100.75 -25.95 -100.7 -28.85 -125.1 -42.8 L-115.4 -42.0 Q-98.35 -42.1 -81.8 -28.05 L-76.15 -23.15 Q-70.5 -18.0 -64.0 -10.9 L-65.3 -15.55 -68.4 -28.8 Q-63.45 -19.05 -60.35 -12.2 -57.55 -7.4 -55.9 -3.9 L-53.9 -0.35 -52.15 2.85 Q-45.0 11.7 -40.2 19.15" fill="none" stroke="#000000" stroke-linecap="round" stroke-linejoin="round" stroke-opacity="0.24313726" stroke-width="0.05"/>
    <path d="M-77.65 -7.95 L-82.6 -9.35 -82.9 -9.45 -79.1 -3.65 Q-79.0 -2.95 -79.2 -2.4 L-79.3 -2.1 -79.35 -0.2 -79.45 0.1 -79.35 1.7 -81.35 0.05 -81.8 -0.4 -82.95 -0.8 -89.45 -3.4 -91.5 -4.8 Q-98.0 -8.35 -101.65 -13.45 -104.4 -17.6 -106.15 -21.75 -108.1 -26.25 -108.6 -30.25 -109.35 -38.25 -107.2 -36.2 L-91.9 -22.2 Q-81.1 -12.65 -77.55 -8.2 L-77.65 -7.95" fill="#e6dbb3" fill-rule="evenodd" stroke="none"/>
    <path d="M-106.15 -21.75 Q-104.4 -17.6 -101.65 -13.45 -98.0 -8.35 -91.5 -4.8 L-98.3 -6.5 Q-111.45 -11.1 -122.1 -24.7 L-122.0 -25.0 -106.15 -21.75" fill="#b38644" fill-rule="evenodd" stroke="none"/>
    <path d="M-77.65 -7.95 L-77.55 -8.2 Q-81.1 -12.65 -91.9 -22.2 L-107.2 -36.2 Q-109.35 -38.25 -108.6 -30.25 -108.1 -26.25 -106.15 -21.75 -104.4 -17.6 -101.65 -13.45 -98.0 -8.35 -91.5 -4.8 L-89.45 -3.4 -82.95 -0.8 -81.8 -0.4 M-81.35 0.05 L-82.95 -0.8" fill="none" stroke="#000000" stroke-linecap="round" stroke-linejoin="round" stroke-opacity="0.24313726" stroke-width="0.05"/>
    <path d="M-92.05 10.7 L-92.15 11.0 Q-93.9 13.3 -98.35 14.0 L-99.95 14.05 -103.2 14.2 -107.25 13.75 -108.5 13.65 Q-106.85 12.6 -106.75 12.3 -106.85 12.6 -108.5 13.65 L-113.35 12.95 Q-118.7 11.7 -120.6 10.75 L-123.25 9.15 -123.55 9.05 -121.35 9.2 Q-121.25 8.9 -120.95 9.0 -124.4 7.8 -125.6 5.75 -125.5 5.5 -127.7 3.45 -126.3 2.3 -125.25 2.05 -122.95 0.95 -116.35 0.35 L-115.2 0.75 Q-115.45 -0.3 -117.05 -2.15 L-114.3 -1.8 -102.5 2.9 Q-102.65 2.5 -102.95 2.4 -105.1 -0.6 -106.15 -1.2 L-105.6 -1.05 Q-100.05 1.5 -96.3 6.35 -94.6 7.9 -93.75 9.15 -92.7 9.85 -92.05 10.7 M-112.7 1.0 L-115.2 0.75 -112.7 1.0 M-113.35 12.95 L-109.95 9.65 -113.35 12.95" fill="#c1a846" fill-rule="evenodd" stroke="none"/>
    <path d="M-83.5 13.7 Q-87.4 13.0 -89.95 12.1 L-91.75 10.8 -92.05 10.7 -92.15 11.0 Q-93.9 13.3 -98.35 14.0 L-99.95 14.05 -103.2 14.2 -107.25 13.75 -108.5 13.65 -112.95 17.25 M-92.05 10.7 Q-92.7 9.85 -93.75 9.15 -94.6 7.9 -96.3 6.35 -100.05 1.5 -105.6 -1.05 L-106.15 -1.2 Q-105.1 -0.6 -102.95 2.4 -102.65 2.5 -102.5 2.9 L-114.3 -1.8 -117.05 -2.15 Q-115.45 -0.3 -115.2 0.75 L-112.7 1.0 M-106.75 12.3 Q-106.85 12.6 -108.5 13.65 L-113.35 12.95 -115.1 14.25 M-113.35 12.95 Q-118.7 11.7 -120.6 10.75 L-123.25 9.15 -123.55 9.05 -121.35 9.2 Q-121.25 8.9 -120.95 9.0 -124.4 7.8 -125.6 5.75 -125.5 5.5 -127.7 3.45 -126.3 2.3 -125.25 2.05 -122.95 0.95 -116.35 0.35 L-115.2 0.75 M-109.95 9.65 L-113.35 12.95" fill="none" stroke="#000000" stroke-linecap="round" stroke-linejoin="round" stroke-opacity="0.24313726" stroke-width="0.05"/>
    <path d="M-54.7 -17.25 L-54.4 -17.15 Q-53.65 -11.1 -55.35 -5.3 L-56.5 0.7 Q-59.65 0.6 -62.65 -2.7 -65.75 -6.7 -67.55 -9.9 -66.3 -10.7 -68.4 -11.15 L-70.35 -15.6 Q-70.4 -16.3 -70.6 -16.7 -72.35 -20.8 -72.6 -22.85 -73.0 -24.55 -72.9 -25.8 -72.2 -24.95 -71.85 -24.15 L-71.55 -24.05 Q-72.3 -27.5 -71.35 -29.4 L-70.8 -32.75 Q-69.35 -32.25 -68.35 -31.6 -66.25 -30.2 -61.9 -25.2 L-61.35 -24.05 -58.1 -22.3 -61.35 -24.05 Q-60.75 -24.8 -60.25 -27.2 L-58.85 -24.8 -58.1 -22.3 -55.85 -12.2 -55.65 -12.75 Q-54.8 -16.0 -54.7 -17.25 M-65.55 -14.65 L-70.35 -15.6 -65.55 -14.65" fill="#ffffff" fill-rule="evenodd" stroke="none"/>
    <path d="M-54.4 -17.15 Q-54.7 -17.25 -54.6 -17.55 L-54.7 -17.25 Q-54.8 -16.0 -55.65 -12.75 L-55.85 -12.2 -58.1 -22.3 -61.35 -24.05 -61.9 -25.2 Q-66.25 -30.2 -68.35 -31.6 -69.35 -32.25 -70.8 -32.75 L-71.35 -29.4 Q-72.3 -27.5 -71.55 -24.05 L-71.85 -24.15 Q-72.2 -24.95 -72.9 -25.8 -73.0 -24.55 -72.6 -22.85 -72.35 -20.8 -70.6 -16.7 -70.4 -16.3 -70.35 -15.6 L-65.55 -14.65 M-54.4 -17.15 Q-53.65 -11.1 -55.35 -5.3 L-56.5 0.7 -56.6 2.9 Q-55.9 5.4 -54.05 9.3 M-70.35 -15.6 L-68.4 -11.15 Q-66.3 -10.7 -67.55 -9.9 -65.75 -6.7 -62.65 -2.7 -59.65 0.6 -56.5 0.7 M-67.55 -9.9 L-67.85 -10.0 Q-67.9 -10.65 -68.4 -11.15 L-73.55 -12.9 M-58.1 -22.3 L-58.85 -24.8 -60.25 -27.2 Q-60.75 -24.8 -61.35 -24.05" fill="none" stroke="#000000" stroke-linecap="round" stroke-linejoin="round" stroke-opacity="0.24313726" stroke-width="0.05"/>
    <path d="M-62.95 19.9 Q-69.7 20.8 -73.95 19.35 L-74.85 20.0 -65.6 24.75 -74.5 21.7 Q-67.7 27.9 -66.65 30.5 L-69.5 29.5 -71.35 29.2 -74.75 28.05 -76.75 27.35 Q-85.25 23.1 -91.65 17.65 L-93.85 15.6 -98.65 10.05 -100.6 7.45 -103.5 2.9 -97.9 6.15 Q-95.7 7.2 -93.8 8.2 -81.85 14.3 -68.85 17.55 -65.7 18.65 -62.95 19.9" fill="#e6dbb3" fill-rule="evenodd" stroke="none"/>
    <path d="M-74.75 28.05 L-92.5 23.75 Q-106.25 18.95 -109.65 14.85 L-93.85 15.6 -91.65 17.65 Q-85.25 23.1 -76.75 27.35 L-74.75 28.05" fill="#8d6a36" fill-rule="evenodd" stroke="none"/>
    <path d="M-66.65 30.5 L-69.5 29.5 -71.35 29.2 -74.75 28.05 -76.75 27.35 Q-85.25 23.1 -91.65 17.65 M-93.85 15.6 L-98.65 10.05 -100.6 7.45 -103.5 2.9 -97.9 6.15 Q-95.7 7.2 -93.8 8.2 -81.85 14.3 -68.85 17.55 -65.7 18.65 -62.95 19.9" fill="none" stroke="#000000" stroke-linecap="round" stroke-linejoin="round" stroke-opacity="0.24313726" stroke-width="0.05"/>
  </g>
</svg>
