<?xml version="1.0" encoding="UTF-8" standalone="no"?>
<svg xmlns:xlink="http://www.w3.org/1999/xlink" height="93.15px" width="179.15px" xmlns="http://www.w3.org/2000/svg">
  <g transform="matrix(1.0, 0.0, 0.0, 1.0, -185.4, -153.4)">
    <path d="M213.15 186.75 Q213.15 188.7 218.3 190.1 223.5 191.5 230.8 191.5 238.1 191.5 243.25 190.1 248.45 188.7 248.45 186.75 248.45 184.8 243.25 183.4 238.1 182.0 230.8 182.0 223.5 182.0 218.3 183.4 213.15 184.8 213.15 186.75 M211.5 181.6 Q214.6 182.5 218.95 182.5 223.3 182.5 226.4 181.6 229.5 180.75 229.5 179.5 229.5 178.25 226.4 177.35 223.3 176.5 218.95 176.5 214.6 176.5 211.5 177.35 208.4 178.25 208.4 179.5 208.4 180.75 211.5 181.6 M227.95 167.75 L277.75 175.1 Q255.5 180.75 248.45 191.5 262.95 179.4 292.9 189.95 296.75 194.55 302.15 198.35 L232.85 210.55 Q212.6 200.5 186.5 190.5 201.15 178.45 227.95 167.75 M295.85 166.45 L249.5 160.0 Q258.05 157.2 267.45 154.5 L295.85 166.45 M253.15 221.45 L325.35 208.8 Q341.35 213.35 363.45 214.5 299.05 220.2 285.45 245.45 273.5 233.45 253.15 221.45" fill="#003333" fill-rule="evenodd" stroke="none"/>
    <path d="M211.5 181.6 Q208.4 180.75 208.4 179.5 208.4 178.25 211.5 177.35 214.6 176.5 218.95 176.5 223.3 176.5 226.4 177.35 229.5 178.25 229.5 179.5 229.5 180.75 226.4 181.6 223.3 182.5 218.95 182.5 214.6 182.5 211.5 181.6 M213.15 186.75 Q213.15 184.8 218.3 183.4 223.5 182.0 230.8 182.0 238.1 182.0 243.25 183.4 248.45 184.8 248.45 186.75 248.45 188.7 243.25 190.1 238.1 191.5 230.8 191.5 223.5 191.5 218.3 190.1 213.15 188.7 213.15 186.75" fill="#ffffff" fill-rule="evenodd" stroke="none"/>
    <path d="M227.95 167.75 Q237.9 163.75 249.5 160.0 L295.85 166.45 305.45 170.5 Q289.45 172.1 277.75 175.1 L227.95 167.75 M253.15 221.45 Q243.85 216.0 232.85 210.55 L302.15 198.35 Q311.4 204.85 325.35 208.8 L253.15 221.45" fill="#cc0000" fill-rule="evenodd" stroke="none"/>
    <path d="M211.5 181.6 Q208.4 180.75 208.4 179.5 208.4 178.25 211.5 177.35 214.6 176.5 218.95 176.5 223.3 176.5 226.4 177.35 229.5 178.25 229.5 179.5 229.5 180.75 226.4 181.6 223.3 182.5 218.95 182.5 214.6 182.5 211.5 181.6 M213.15 186.75 Q213.15 184.8 218.3 183.4 223.5 182.0 230.8 182.0 238.1 182.0 243.25 183.4 248.45 184.8 248.45 186.75 248.45 188.7 243.25 190.1 238.1 191.5 230.8 191.5 223.5 191.5 218.3 190.1 213.15 188.7 213.15 186.75" fill="none" stroke="#ffffff" stroke-linecap="round" stroke-linejoin="round" stroke-width="2.25"/>
    <path d="M249.5 160.0 Q237.9 163.75 227.95 167.75 201.15 178.45 186.5 190.5 212.6 200.5 232.85 210.55 243.85 216.0 253.15 221.45 273.5 233.45 285.45 245.45 299.05 220.2 363.45 214.5 341.35 213.35 325.35 208.8 311.4 204.85 302.15 198.35 296.75 194.55 292.9 189.95 262.95 179.4 248.45 191.5 255.5 180.75 277.75 175.1 289.45 172.1 305.45 170.5 L295.85 166.45 267.45 154.5 Q258.05 157.2 249.5 160.0 Z" fill="none" stroke="#000000" stroke-linecap="round" stroke-linejoin="round" stroke-width="2.25"/>
  </g>
</svg>
