<?xml version="1.0" encoding="UTF-8" standalone="no"?>
<svg xmlns:xlink="http://www.w3.org/1999/xlink" height="122.6px" width="171.05px" xmlns="http://www.w3.org/2000/svg">
  <g transform="matrix(1.0, 0.0, 0.0, 1.0, -189.45, -138.65)">
    <path d="M310.55 142.4 L310.9 143.2 286.1 153.35 Q303.2 153.8 308.5 155.55 303.2 153.8 286.1 153.35 L310.9 143.2 311.05 143.15 Q322.6 160.05 355.9 165.0 L355.85 165.85 Q332.65 163.8 326.65 170.35 322.1 159.9 308.5 155.55 310.4 163.0 301.1 159.65 319.65 167.0 325.65 174.2 L339.85 176.7 Q339.8 179.95 341.05 182.45 342.25 184.95 337.15 184.0 333.15 183.2 335.0 184.85 L334.8 185.0 Q331.7 183.35 331.55 183.55 L331.15 184.0 Q322.0 181.2 315.55 183.1 305.6 190.45 310.05 193.75 320.7 201.8 329.3 198.75 329.75 200.15 331.0 199.9 311.0 206.35 319.75 213.1 326.65 214.4 328.9 221.6 321.55 229.3 318.9 237.05 315.75 246.2 313.7 250.05 L308.0 250.05 Q304.75 254.7 306.3 260.75 271.8 237.85 189.95 211.9 L203.75 208.65 Q225.35 211.5 231.75 216.35 251.4 211.05 252.85 198.25 252.6 197.0 251.85 195.9 248.1 190.55 223.2 181.2 238.5 183.75 242.3 177.9 254.95 159.25 235.7 150.95 257.8 151.45 251.85 139.15 290.45 150.25 310.55 142.4 M295.8 186.65 Q290.6 189.1 290.85 194.65 299.75 198.2 301.0 194.65 308.15 191.1 305.4 186.65 304.45 184.9 295.8 186.65 M269.15 177.2 Q265.45 175.15 258.1 174.55 L247.2 184.3 Q248.55 186.1 250.85 187.45 255.25 190.0 263.35 190.7 272.6 188.75 272.05 179.8 271.15 178.3 269.15 177.2 M245.55 217.95 Q253.15 219.8 254.7 223.9 258.8 219.1 267.85 217.15 L254.25 211.3 245.55 217.95 M261.3 222.5 L250.75 228.6 259.4 232.25 Q262.45 228.05 270.3 226.2 267.45 223.9 261.3 222.5" fill="#f5d99c" fill-rule="evenodd" stroke="none"/>
    <path d="M339.85 176.7 L325.65 174.2 Q319.65 167.0 301.1 159.65 310.4 163.0 308.5 155.55 322.1 159.9 326.65 170.35 332.65 163.8 355.85 165.85 L355.9 165.85 359.9 165.85 360.0 166.7 Q356.7 167.25 355.9 167.65 346.55 172.05 339.85 176.7 M269.15 177.2 Q271.15 178.3 272.05 179.8 272.6 188.75 263.35 190.7 255.25 190.0 250.85 187.45 248.55 186.1 247.2 184.3 L258.1 174.55 Q265.45 175.15 269.15 177.2" fill="#eebc53" fill-rule="evenodd" stroke="none"/>
    <path d="M310.9 143.2 L310.55 142.4 311.05 143.15 310.9 143.2" fill="#ff9900" fill-rule="evenodd" stroke="none"/>
    <path d="M334.8 185.0 L334.9 185.05 335.0 184.85 335.2 185.0 334.9 185.05 334.85 185.05 334.8 185.0" fill="#333333" fill-rule="evenodd" stroke="none"/>
    <path d="M334.8 185.0 L335.0 184.85 334.9 185.05 334.8 185.0" fill="#dd990b" fill-rule="evenodd" stroke="none"/>
    <path d="M223.2 181.2 Q248.1 190.55 251.85 195.9 252.6 197.0 252.85 198.25 251.4 211.05 231.75 216.35 225.35 211.5 203.75 208.65 L216.75 206.15 216.8 206.15 216.25 206.05 Q214.75 205.7 214.35 202.7 L204.95 190.2 Q222.65 195.7 223.2 181.2" fill="#eaaa26" fill-rule="evenodd" stroke="none"/>
    <path d="M245.55 217.95 L254.25 211.3 267.85 217.15 Q258.8 219.1 254.7 223.9 253.15 219.8 245.55 217.95 M261.3 222.5 Q267.45 223.9 270.3 226.2 262.45 228.05 259.4 232.25 L250.75 228.6 261.3 222.5" fill="#c28912" fill-rule="evenodd" stroke="none"/>
    <path d="M308.5 155.55 Q303.2 153.8 286.1 153.35 L310.9 143.2 311.05 143.15 M308.5 155.55 Q322.1 159.9 326.65 170.35 332.65 163.8 355.85 165.85 L355.9 165.85 359.9 165.85" fill="none" stroke="#845b06" stroke-linecap="round" stroke-linejoin="round" stroke-width="1.0"/>
    <path d="M310.55 142.4 Q290.45 150.25 251.85 139.15 257.8 151.45 235.7 150.95 254.95 159.25 242.3 177.9 238.5 183.75 223.2 181.2 222.65 195.7 204.95 190.2 L214.35 202.7 Q214.75 205.7 216.25 206.05 L216.75 206.15 203.75 208.65 189.95 211.9 Q271.8 237.85 306.3 260.75 304.75 254.7 308.0 250.05 L313.7 250.05 Q315.75 246.2 318.9 237.05 321.55 229.3 328.9 221.6 326.65 214.4 319.75 213.1 311.0 206.35 331.0 199.9 329.75 200.15 329.3 198.75 M331.55 183.55 Q331.7 183.35 334.8 185.0 L334.85 185.05 331.15 184.0 M335.0 184.85 Q333.15 183.2 337.15 184.0 342.25 184.95 341.05 182.45 339.8 179.95 339.85 176.7 346.55 172.05 355.9 167.65 356.7 167.25 360.0 166.7 M311.05 143.15 L310.55 142.4 M355.9 165.0 Q322.6 160.05 311.05 143.15 M335.0 184.85 L335.2 185.0 334.9 185.05 334.85 185.05 M359.9 165.85 L356.0 165.05 355.9 165.0" fill="none" stroke="#000000" stroke-linecap="round" stroke-linejoin="round" stroke-width="1.0"/>
    <path d="M329.3 198.75 Q320.7 201.8 310.05 193.75 305.6 190.45 315.55 183.1 322.0 181.2 331.15 184.0 M295.8 186.65 Q290.6 189.1 290.85 194.65 299.75 198.2 301.0 194.65 308.15 191.1 305.4 186.65 304.45 184.9 295.8 186.65 Z" fill="none" stroke="#000000" stroke-linecap="round" stroke-linejoin="round" stroke-width="1.25"/>
  </g>
</svg>
