<?xml version="1.0" encoding="UTF-8" standalone="no"?>
<svg xmlns:xlink="http://www.w3.org/1999/xlink" height="230.6px" width="420.65px" xmlns="http://www.w3.org/2000/svg">
  <g transform="matrix(1.0, 0.0, 0.0, 1.0, 210.3, 115.3)">
    <path d="M201.75 -34.65 L184.55 -61.9 192.3 -58.4 210.35 -31.95 210.35 -25.55 201.75 -34.65 210.35 -25.55 73.3 35.85 -48.9 35.85 -109.5 48.4 -104.35 38.65 -42.55 26.5 73.3 26.5 197.75 -26.55 201.75 -34.65 M109.85 -107.95 L116.35 -107.6 186.4 -69.45 174.5 -71.7 109.85 -107.95 M-210.3 3.85 L-206.0 -3.15 -172.2 26.5 -144.05 22.6 -35.35 -12.15 -141.85 28.15 -177.75 30.9 -210.3 3.85 M-141.3 -92.7 L-137.35 -97.95 -130.85 -83.3 -84.5 -89.95 -53.6 -103.75 -47.2 -112.7 -43.65 -109.25 -50.25 -99.85 -83.9 -83.85 -134.65 -78.9 -141.3 -92.7" fill="#ffe8ff" fill-rule="evenodd" stroke="none"/>
    <path d="M184.55 -61.9 L201.75 -34.65 102.85 -41.85 126.9 -50.6 102.85 -41.85 201.75 -34.65 197.75 -26.55 73.3 26.5 -42.55 26.5 -104.35 38.65 -32.25 -2.0 24.8 -48.55 -35.35 -12.15 -21.05 -59.0 -28.75 -72.8 14.1 -86.05 45.2 -100.95 73.85 -109.8 109.85 -107.95 174.5 -71.7 126.9 -50.6 180.2 -61.05 184.55 -61.9 M-45.2 -65.6 L-28.75 -72.8 -21.05 -59.0 -35.35 -12.15 -144.05 22.6 -172.2 26.5 -206.0 -3.15 -143.15 -33.5 -135.8 -37.05 -94.95 -56.8 -87.3 -58.15 -53.9 -64.05 -45.2 -65.6 M102.85 -41.85 L89.3 -36.95 24.8 -48.55 89.3 -36.95 102.85 -41.85 M14.1 -86.05 L-21.05 -59.0 14.1 -86.05" fill="url(#gradient0)" fill-rule="evenodd" stroke="none"/>
    <path d="M180.2 -61.05 L126.9 -50.6 174.5 -71.7 186.4 -69.45 180.2 -61.05 M-104.9 88.55 L-146.85 103.75 -141.85 28.15 -35.35 -12.15 -32.25 -2.0 -35.35 -12.15 24.8 -48.55 -32.25 -2.0 -104.35 38.65 -109.5 48.4 -48.9 35.85 -100.5 61.8 -104.9 88.55 M-143.15 -33.5 L-147.9 -40.85 -143.5 -63.45 -141.3 -92.7 -134.65 -78.9 -135.8 -37.05 -143.15 -33.5 M-109.5 48.4 L-100.5 61.8 -109.5 48.4" fill="#bc5ca5" fill-rule="evenodd" stroke="none"/>
    <path d="M210.35 -25.55 L185.85 8.85 189.75 36.95 161.6 62.35 74.95 108.15 73.3 35.85 210.35 -25.55" fill="url(#gradient1)" fill-rule="evenodd" stroke="none"/>
    <path d="M73.3 35.85 L74.95 108.15 -50.25 99.3 -109.3 115.3 -104.9 88.55 -100.5 61.8 -48.9 35.85 73.3 35.85" fill="url(#gradient2)" fill-rule="evenodd" stroke="none"/>
    <path d="M-137.35 -97.95 L-97.15 -115.3 -47.2 -112.7 -53.6 -103.75 -84.5 -89.95 -130.85 -83.3 -137.35 -97.95" fill="url(#gradient3)" fill-rule="evenodd" stroke="none"/>
    <path d="M-43.65 -109.25 L-46.95 -91.6 -45.2 -65.6 -53.9 -64.05 -50.25 -99.85 -43.65 -109.25" fill="#ffccff" fill-rule="evenodd" stroke="none"/>
    <path d="M-87.3 -58.15 L-94.95 -56.8 -135.8 -37.05 -134.65 -78.9 -83.9 -83.85 -87.3 -58.15" fill="url(#gradient4)" fill-rule="evenodd" stroke="none"/>
    <path d="M-53.9 -64.05 L-87.3 -58.15 -83.9 -83.85 -50.25 -99.85 -53.9 -64.05" fill="url(#gradient5)" fill-rule="evenodd" stroke="none"/>
    <path d="M-146.85 103.75 L-183.8 108.15 -204.75 71.2 -204.75 24.85 -183.8 63.15 -177.75 30.9 -141.85 28.15 -146.85 103.75" fill="url(#gradient6)" fill-rule="evenodd" stroke="none"/>
    <path d="M-204.75 24.85 L-210.3 3.85 -177.75 30.9 -183.8 63.15 -204.75 24.85" fill="#ff88ff" fill-rule="evenodd" stroke="none"/>
    <path d="M210.35 -25.55 L210.35 -31.95 192.3 -58.4 184.55 -61.9 180.2 -61.05 126.9 -50.6 102.85 -41.85 201.75 -34.65 M-45.2 -65.6 L-28.75 -72.8 14.1 -86.05 45.2 -100.95 73.85 -109.8 109.85 -107.95 116.35 -107.6 186.4 -69.45 180.2 -61.05 M24.8 -48.55 L89.3 -36.95 102.85 -41.85 M74.95 108.15 L161.6 62.35 189.75 36.95 185.85 8.85 210.35 -25.55 M74.95 108.15 L-50.25 99.3 -109.3 115.3 -104.9 88.55 -146.85 103.75 -183.8 108.15 -204.75 71.2 -204.75 24.85 -210.3 3.85 M-143.15 -33.5 L-147.9 -40.85 -143.5 -63.45 -141.3 -92.7 -137.35 -97.95 -97.15 -115.3 -47.2 -112.7 -43.65 -109.25 -46.95 -91.6 -45.2 -65.6 -53.9 -64.05 -87.3 -58.15 -94.95 -56.8 M-104.35 38.65 L-109.5 48.4 -100.5 61.8 -104.9 88.55 M-35.35 -12.15 L-21.05 -59.0 -28.75 -72.8 M-35.35 -12.15 L-32.25 -2.0 24.8 -48.55 M-21.05 -59.0 L14.1 -86.05 M-141.85 28.15 L-177.75 30.9 M-104.35 38.65 L-32.25 -2.0" fill="none" stroke="#252349" stroke-linecap="round" stroke-linejoin="round" stroke-opacity="0.49803922" stroke-width="0.05"/>
    <path d="M201.75 -34.65 L210.35 -25.55" fill="none" stroke="#000000" stroke-linecap="round" stroke-linejoin="round" stroke-opacity="0.4" stroke-width="0.05"/>
    <path d="M-210.3 3.85 L-206.0 -3.15 -143.15 -33.5 -135.8 -37.05 -94.95 -56.8" fill="none" stroke="#252349" stroke-linecap="round" stroke-linejoin="round" stroke-opacity="0.49803922" stroke-width="0.05"/>
    <path d="M-154.2 104.65 L-154.75 104.7 -155.5 102.8 -154.2 104.65" fill="#33cc00" fill-opacity="0.34901962" fill-rule="evenodd" stroke="none"/>
    <path d="M73.85 -109.8 L79.45 -109.5 Q87.7 -102.05 103.65 -90.0 120.15 -77.5 137.2 -65.7 92.7 -88.4 59.05 -105.2 L73.85 -109.8 M116.35 -107.6 L186.4 -69.45 184.3 -66.6 176.5 -71.3 134.6 -96.45 115.85 -107.6 116.35 -107.6 M-198.05 1.85 L-204.95 -3.65 -189.95 -10.9 -179.0 0.8 -158.75 24.65 -154.95 29.15 -151.5 33.3 Q-158.8 28.2 -160.3 28.2 L-169.5 28.8 -171.7 26.45 -176.5 21.35 Q-187.65 9.75 -198.05 1.85 M-123.2 -40.15 Q-111.2 -31.25 -102.25 -19.75 -98.95 -15.45 -91.6 -4.5 L-85.7 3.95 -83.95 6.25 -80.95 9.95 -85.6 6.85 -88.6 4.9 Q-115.75 -13.0 -144.25 -30.2 -136.55 -33.4 -123.2 -40.15 M-105.35 -111.75 Q-95.35 -104.8 -91.7 -101.85 -85.8 -97.1 -79.35 -92.25 L-77.15 -90.6 Q-86.15 -88.0 -97.4 -86.45 L-120.2 -83.0 -121.7 -84.6 -132.15 -95.9 -134.75 -99.05 -105.35 -111.75 M54.2 33.0 L53.55 32.9 Q51.2 32.55 4.4 31.7 L-3.2 26.5 -29.55 8.25 -38.75 1.65 -49.9 -6.65 -50.65 -7.25 Q-79.15 -29.0 -92.1 -44.35 -63.8 -28.6 -35.0 -13.2 L-34.25 -12.8 -25.05 -7.9 Q7.8 9.55 41.3 26.5 L54.2 33.0 M100.9 14.75 L107.85 18.45 Q100.15 22.05 91.65 26.45 L87.8 28.45 78.95 24.1 1.6 -13.75 -10.4 -19.8 -16.95 -23.25 -29.8 -30.2 Q-39.55 -35.55 -50.8 -41.95 L-78.9 -57.65 -72.4 -59.05 Q-61.85 -61.5 -52.15 -65.05 L-45.3 -67.7 -45.2 -65.6 -42.85 -66.6 Q-33.15 -60.25 -22.65 -53.75 -9.25 -45.45 5.45 -36.85 L7.35 -35.75 8.4 -35.15 Q31.2 -21.95 67.75 -2.7 L100.9 14.75 M184.9 23.7 L187.7 22.0 187.95 24.05 186.45 24.45 184.9 23.7 M104.85 -42.6 L105.1 -42.45 104.8 -42.55 Q75.7 -55.8 29.6 -78.85 L14.65 -86.3 22.95 -90.3 104.85 -42.6 M51.2 -48.6 L51.0 -48.8 68.25 -40.7 145.6 -4.3 153.6 -0.55 144.2 3.3 136.75 -0.55 Q94.25 -22.6 62.35 -41.8 L51.2 -48.6 M99.55 -65.5 L99.35 -65.7 Q109.2 -60.75 128.6 -51.35 L129.2 -51.05 156.45 -37.95 160.65 -35.95 Q175.7 -28.6 187.8 -22.35 L194.9 -18.6 195.2 -18.45 189.8 -16.1 189.55 -16.2 181.7 -19.7 Q166.65 -26.6 152.25 -34.7 L145.1 -38.8 Q137.5 -43.25 125.9 -50.2 L125.85 -50.25 Q109.35 -60.15 99.55 -65.5 M-165.3 -22.8 Q-129.9 -2.65 -108.45 11.25 L-106.4 12.6 Q-112.35 13.85 -117.1 16.25 L-118.9 15.05 -119.4 14.75 Q-148.65 -5.1 -168.55 -21.2 L-165.3 -22.8 M-106.05 47.0 L-108.0 47.8 -107.95 47.2 -107.0 43.8 -103.35 46.15 -106.05 47.0 M-69.6 39.3 L-79.05 41.0 -87.8 35.4 -92.85 32.2 -93.55 31.75 -90.9 31.35 Q-86.0 30.5 -83.0 28.8 L-77.1 33.3 Q-73.2 36.35 -69.6 39.3 M-22.5 32.75 L-32.6 33.8 -38.6 26.5 -48.0 14.3 -48.25 14.1 -31.2 26.5 -22.5 32.75" fill="#660099" fill-opacity="0.30980393" fill-rule="evenodd" stroke="none"/>
  </g>
  <defs>
    <linearGradient gradientTransform="matrix(0.1158, -0.0122, 0.0087, 0.0822, 26.35, -36.7)" gradientUnits="userSpaceOnUse" id="gradient0" spreadMethod="pad" x1="-819.2" x2="819.2">
      <stop offset="0.0" stop-color="#ffccff"/>
      <stop offset="1.0" stop-color="#fecde7"/>
    </linearGradient>
    <linearGradient gradientTransform="matrix(0.0836, 0.0, 0.0, 0.0816, 141.8, 41.3)" gradientUnits="userSpaceOnUse" id="gradient1" spreadMethod="pad" x1="-819.2" x2="819.2">
      <stop offset="0.0" stop-color="#ffa6ff"/>
      <stop offset="1.0" stop-color="#fca5e2"/>
    </linearGradient>
    <linearGradient gradientTransform="matrix(0.1125, 0.0, 0.0, 0.0485, -17.2, 75.55)" gradientUnits="userSpaceOnUse" id="gradient2" spreadMethod="pad" x1="-819.2" x2="819.2">
      <stop offset="0.0" stop-color="#dd68dd"/>
      <stop offset="1.0" stop-color="#de65ba"/>
    </linearGradient>
    <linearGradient gradientTransform="matrix(0.0536, -0.0144, 0.0044, 0.0164, -91.55, -102.45)" gradientUnits="userSpaceOnUse" id="gradient3" spreadMethod="pad" x1="-819.2" x2="819.2">
      <stop offset="0.0" stop-color="#ffccff"/>
      <stop offset="1.0" stop-color="#fecde7"/>
    </linearGradient>
    <linearGradient gradientTransform="matrix(0.0317, 0.0, 0.0, 0.0286, -109.85, -60.45)" gradientUnits="userSpaceOnUse" id="gradient4" spreadMethod="pad" x1="-819.2" x2="819.2">
      <stop offset="0.0" stop-color="#dd68dd"/>
      <stop offset="1.0" stop-color="#de65ba"/>
    </linearGradient>
    <linearGradient gradientTransform="matrix(0.0226, 0.0, 0.0, 0.0255, -68.8, -79.0)" gradientUnits="userSpaceOnUse" id="gradient5" spreadMethod="pad" x1="-819.2" x2="819.2">
      <stop offset="0.0" stop-color="#ffa6ff"/>
      <stop offset="1.0" stop-color="#fca5e2"/>
    </linearGradient>
    <linearGradient gradientTransform="matrix(0.0384, 0.0, 0.0, 0.0508, -173.3, 66.5)" gradientUnits="userSpaceOnUse" id="gradient6" spreadMethod="pad" x1="-819.2" x2="819.2">
      <stop offset="0.0" stop-color="#dd68dd"/>
      <stop offset="1.0" stop-color="#de65ba"/>
    </linearGradient>
  </defs>
</svg>
