<?xml version="1.0" encoding="UTF-8" standalone="no"?>
<svg xmlns:xlink="http://www.w3.org/1999/xlink" height="276.05px" width="576.35px" xmlns="http://www.w3.org/2000/svg">
  <g transform="matrix(1.0, 0.0, 0.0, 1.0, 288.15, 138.0)">
    <path d="M202.55 -110.4 Q199.1 -107.3 194.95 -104.55 184.75 -97.8 172.65 -97.8 165.7 -97.8 160.9 -103.05 156.15 -108.2 154.55 -115.15 L153.9 -116.5 Q150.95 -120.3 146.05 -121.4 138.25 -122.9 130.5 -121.55 125.35 -120.85 120.9 -117.8 111.6 -111.35 105.05 -102.1 92.15 -106.85 78.95 -111.0 99.0 -150.1 143.15 -132.1 168.05 -121.9 193.7 -113.5 L202.55 -110.4 M-2.85 -54.25 Q1.75 -49.65 4.45 -43.95 5.0 -42.7 5.0 -41.25 5.0 -35.5 2.25 -30.6 -3.65 -20.1 -13.95 -13.45 -23.85 -7.15 -35.3 -5.0 -41.65 -3.8 -47.3 -6.8 -48.5 -7.45 -49.5 -8.6 -54.75 -14.6 -51.5 -21.95 -46.9 -32.4 -39.05 -40.6 -31.2 -48.75 -20.8 -53.1 L-17.05 -54.55 Q-10.75 -56.2 -4.4 -55.2 -3.6 -55.0 -2.85 -54.25 M-50.65 -101.35 Q-49.65 -94.25 -43.9 -89.55 -39.4 -85.8 -39.25 -79.9 -39.0 -71.9 -44.55 -65.95 -52.3 -57.75 -62.1 -52.35 -67.45 -49.35 -72.05 -45.35 -81.0 -37.45 -86.7 -27.1 L-93.15 -15.4 Q-98.8 -5.35 -105.95 3.6 -113.2 12.6 -123.65 17.4 -133.65 21.95 -144.4 20.7 -149.85 20.25 -152.8 15.95 -155.25 12.3 -154.5 7.8 -153.55 2.2 -150.95 -3.0 -147.55 -9.9 -145.0 -17.05 -144.4 -18.6 -145.5 -19.8 -150.6 -22.15 -156.25 -20.85 -177.4 -16.45 -197.2 -7.8 -200.7 -6.25 -204.35 -5.0 -208.75 -3.65 -212.9 -5.05 -216.9 -6.4 -217.95 -10.55 -218.3 -12.05 -218.15 -13.5 L-204.5 -19.7 Q-160.9 -38.25 -120.3 -62.55 L-121.5 -57.35 Q-121.95 -55.25 -121.3 -53.15 -120.15 -49.1 -115.95 -47.5 -108.85 -44.85 -101.7 -48.1 -90.8 -53.0 -84.4 -63.15 -77.8 -73.55 -80.45 -85.65 -65.7 -93.8 -50.65 -101.35 M-163.15 68.75 Q-152.4 70.55 -141.95 67.1 -137.4 65.5 -132.8 64.15 -123.5 61.25 -116.05 54.9 L-110.0 49.8 -93.4 36.15 Q-87.05 31.05 -81.55 25.05 L-81.05 25.25 -99.35 52.5 -99.65 52.9 -98.6 53.0 -91.15 49.3 -99.8 61.3 Q-105.4 69.05 -112.8 75.3 -121.2 82.55 -130.6 88.5 -136.25 92.2 -142.7 93.8 -151.95 80.2 -163.15 68.75" fill="#b6c78d" fill-rule="evenodd" stroke="none"/>
    <path d="M105.05 -102.1 Q111.6 -111.35 120.9 -117.8 125.35 -120.85 130.5 -121.55 138.25 -122.9 146.05 -121.4 150.95 -120.3 153.9 -116.5 L154.55 -115.15 Q156.15 -108.2 160.9 -103.05 165.7 -97.8 172.65 -97.8 184.75 -97.8 194.95 -104.55 199.1 -107.3 202.55 -110.4 241.25 -96.2 272.4 -71.05 234.2 -74.25 223.3 -32.85 L222.0 -28.1 201.5 -26.1 Q201.85 -37.85 198.8 -51.55 L196.0 -54.25 195.95 -54.25 Q183.15 -66.2 167.35 -74.45 141.6 -87.9 114.5 -98.5 L105.05 -102.1" fill="url(#gradient0)" fill-rule="evenodd" stroke="none"/>
    <path d="M198.8 -51.55 Q201.85 -37.85 201.5 -26.1 201.05 -11.45 195.3 0.15 189.15 -0.7 183.75 -3.65 182.5 -4.25 181.3 -4.95 185.65 -10.45 186.2 -14.3 187.75 -25.6 181.55 -29.0 142.75 -50.2 98.6 -34.3 90.65 -31.4 83.0 -28.0 L84.75 -50.95 84.85 -51.0 Q91.3 -53.65 98.05 -55.8 148.35 -71.95 195.25 -53.45 L198.8 -51.55" fill="#dee6cc" fill-rule="evenodd" stroke="none"/>
    <path d="M195.95 -54.25 L196.0 -54.25 195.25 -53.45 195.95 -54.25 M-81.55 25.05 L-77.75 19.85 -81.05 25.25 -81.55 25.05 M-80.45 -85.65 Q-77.8 -73.55 -84.4 -63.15 -90.8 -53.0 -101.7 -48.1 -108.85 -44.85 -115.95 -47.5 -120.15 -49.1 -121.3 -53.15 -121.95 -55.25 -121.5 -57.35 L-120.3 -62.55 -116.25 -65.0 Q-98.55 -75.75 -80.45 -85.65 M-99.35 52.5 L-98.6 53.0 -99.65 52.9 -99.35 52.5" fill="#c7c68d" fill-rule="evenodd" stroke="none"/>
    <path d="M114.5 -98.5 Q141.6 -87.9 167.35 -74.45 183.15 -66.2 195.95 -54.25 L195.25 -53.45 Q148.35 -71.95 98.05 -55.8 91.3 -53.65 84.85 -51.0 L84.8 -51.05 Q80.0 -55.0 83.0 -60.55 83.9 -62.2 85.2 -63.55 91.6 -70.1 100.05 -73.55 L111.0 -77.6 Q112.55 -78.1 113.35 -79.6 102.75 -80.45 92.35 -83.1 91.0 -83.5 90.3 -84.85 90.45 -87.1 92.3 -88.65 101.9 -96.4 114.5 -98.5" fill="#91aa55" fill-rule="evenodd" stroke="none"/>
    <path d="M125.05 -3.05 Q132.0 -7.35 140.05 -8.55 142.65 -8.8 145.2 -8.45 148.75 -7.7 148.35 -3.65 147.55 4.55 140.9 9.9 L131.35 1.8 125.05 -3.05 M-142.7 93.8 L-142.75 93.8 -143.9 94.3 -150.25 114.15 Q-159.15 97.7 -171.0 84.1 L-163.15 68.75 Q-151.95 80.2 -142.7 93.8" fill="#4e5a2e" fill-rule="evenodd" stroke="none"/>
    <path d="M140.9 9.9 Q147.55 4.55 148.35 -3.65 148.75 -7.7 145.2 -8.45 142.65 -8.8 140.05 -8.55 132.0 -7.35 125.05 -3.05 105.55 -16.85 74.5 -24.05 L83.0 -28.0 Q90.65 -31.4 98.6 -34.3 142.75 -50.2 181.55 -29.0 187.75 -25.6 186.2 -14.3 185.65 -10.45 181.3 -4.95 173.5 4.8 153.7 19.75 152.3 19.35 140.9 9.9" fill="url(#gradient1)" fill-rule="evenodd" stroke="none"/>
    <path d="M222.0 -28.1 L223.3 -32.85 Q234.2 -74.25 272.4 -71.05 281.15 -66.65 287.5 -59.3 L287.95 -58.55 287.5 -56.8 Q286.15 -52.75 282.45 -50.35 L281.4 -49.65 Q277.35 -54.95 270.9 -54.95 233.65 -56.65 227.0 -13.2 222.0 19.6 192.55 64.1 163.05 108.6 129.5 82.15 L129.0 81.6 Q127.65 78.05 126.8 74.6 119.45 45.0 150.25 22.3 L153.7 19.75 Q173.5 4.8 181.3 -4.95 182.5 -4.25 183.75 -3.65 189.15 -0.7 195.3 0.15 190.25 10.25 181.1 18.1 L179.25 19.6 Q149.1 43.55 145.4 54.5 141.7 65.4 142.2 67.4 166.4 78.35 184.9 51.4 194.6 37.25 202.45 22.0 214.55 -1.7 222.0 -28.1 M83.0 -28.0 L74.5 -24.05 Q49.85 -12.0 28.3 5.4 22.65 9.9 17.25 14.85 L0.6 32.05 Q-30.9 65.4 -63.5 97.5 -77.5 111.35 -92.05 124.35 -120.85 150.05 -142.45 126.6 L-142.7 125.7 -141.4 119.1 -138.5 121.05 -136.35 117.75 -130.9 113.6 Q-117.0 127.3 -98.1 107.35 -68.25 75.8 -36.2 46.25 -5.0 17.45 25.5 -12.05 46.4 -32.3 71.45 -44.9 77.95 -48.2 84.75 -50.95 L83.0 -28.0" fill="#e8e7d2" fill-rule="evenodd" stroke="none"/>
    <path d="M142.2 67.4 Q141.7 65.4 145.4 54.5 149.1 43.55 179.25 19.6 L181.1 18.1 202.45 22.0 Q194.6 37.25 184.9 51.4 166.4 78.35 142.2 67.4" fill="url(#gradient2)" fill-rule="evenodd" stroke="none"/>
    <path d="M201.5 -26.1 L222.0 -28.1 Q214.55 -1.7 202.45 22.0 L181.1 18.1 Q190.25 10.25 195.3 0.15 201.05 -11.45 201.5 -26.1" fill="url(#gradient3)" fill-rule="evenodd" stroke="none"/>
    <path d="M140.9 9.9 Q152.3 19.35 153.7 19.75 L150.25 22.3 Q119.45 45.0 126.8 74.6 121.1 72.4 116.35 68.35 75.15 33.2 28.3 5.4 49.85 -12.0 74.5 -24.05 105.55 -16.85 125.05 -3.05 115.7 1.1 109.65 8.9 108.6 10.3 107.85 12.0 106.0 16.35 108.6 19.4 109.3 20.25 110.5 20.65 117.4 23.2 124.35 20.55 133.9 17.05 140.9 9.9" fill="url(#gradient4)" fill-rule="evenodd" stroke="none"/>
    <path d="M78.95 -111.0 Q92.15 -106.85 105.05 -102.1 L114.5 -98.5 Q101.9 -96.4 92.3 -88.65 90.45 -87.1 90.3 -84.85 91.0 -83.5 92.35 -83.1 102.75 -80.45 113.35 -79.6 112.55 -78.1 111.0 -77.6 L100.05 -73.55 Q91.6 -70.1 85.2 -63.55 83.9 -62.2 83.0 -60.55 80.0 -55.0 84.8 -51.05 L84.75 -50.95 84.8 -51.05 84.85 -51.0 84.75 -50.95 Q77.95 -48.2 71.45 -44.9 61.55 -79.4 24.7 -95.75 2.35 -105.75 -20.35 -115.55 19.75 -130.75 62.55 -117.9 71.05 -115.45 78.95 -111.0 M126.8 74.6 Q127.65 78.05 129.0 81.6 88.3 57.8 51.0 28.75 36.35 17.3 17.25 14.85 22.65 9.9 28.3 5.4 75.15 33.2 116.35 68.35 121.1 72.4 126.8 74.6" fill="#9e9d50" fill-rule="evenodd" stroke="none"/>
    <path d="M-2.85 -54.25 Q-3.6 -55.0 -4.4 -55.2 -10.75 -56.2 -17.05 -54.55 L-20.8 -53.1 Q-31.2 -48.75 -39.05 -40.6 -46.9 -32.4 -51.5 -21.95 -54.75 -14.6 -49.5 -8.6 -48.5 -7.45 -47.3 -6.8 -41.65 -3.8 -35.3 -5.0 -23.85 -7.15 -13.95 -13.45 -3.65 -20.1 2.25 -30.6 5.0 -35.5 5.0 -41.25 5.0 -42.7 4.45 -43.95 1.75 -49.65 -2.85 -54.25 M71.45 -44.9 Q46.4 -32.3 25.5 -12.05 -5.0 17.45 -36.2 46.25 -68.25 75.8 -98.1 107.35 -117.0 127.3 -130.9 113.6 -136.35 103.2 -142.7 93.8 -136.25 92.2 -130.6 88.5 -121.2 82.55 -112.8 75.3 -105.4 69.05 -99.8 61.3 L-91.15 49.3 -98.6 53.0 -99.35 52.5 -81.05 25.25 -77.75 19.85 -81.55 25.05 Q-87.05 31.05 -93.4 36.15 L-110.0 49.8 -116.05 54.9 Q-123.5 61.25 -132.8 64.15 -137.4 65.5 -141.95 67.1 -152.4 70.55 -163.15 68.75 -188.6 42.7 -224.35 27.6 -245.75 18.55 -267.95 25.45 L-271.9 26.55 Q-277.7 27.95 -283.85 28.3 -278.0 23.45 -271.9 18.95 -246.6 0.05 -218.15 -13.5 -218.3 -12.05 -217.95 -10.55 -216.9 -6.4 -212.9 -5.05 -208.75 -3.65 -204.35 -5.0 -200.7 -6.25 -197.2 -7.8 -177.4 -16.45 -156.25 -20.85 -150.6 -22.15 -145.5 -19.8 -144.4 -18.6 -145.0 -17.05 -147.55 -9.9 -150.95 -3.0 -153.55 2.2 -154.5 7.8 -155.25 12.3 -152.8 15.95 -149.85 20.25 -144.4 20.7 -133.65 21.95 -123.65 17.4 -113.2 12.6 -105.95 3.6 -98.8 -5.35 -93.15 -15.4 L-86.7 -27.1 Q-81.0 -37.45 -72.05 -45.35 -67.45 -49.35 -62.1 -52.35 -52.3 -57.75 -44.55 -65.95 -39.0 -71.9 -39.25 -79.9 -39.4 -85.8 -43.9 -89.55 -49.65 -94.25 -50.65 -101.35 L-30.8 -111.1 Q-25.6 -113.55 -20.35 -115.55 2.35 -105.75 24.7 -95.75 61.55 -79.4 71.45 -44.9 M-77.25 19.05 L-77.75 19.85 -77.25 19.05" fill="url(#gradient5)" fill-rule="evenodd" stroke="none"/>
    <path d="M125.05 -3.05 L131.35 1.8 140.9 9.9 Q133.9 17.05 124.35 20.55 117.4 23.2 110.5 20.65 109.3 20.25 108.6 19.4 106.0 16.35 107.85 12.0 108.6 10.3 109.65 8.9 115.7 1.1 125.05 -3.05" fill="#66773c" fill-rule="evenodd" stroke="none"/>
    <path d="M-130.9 113.6 L-136.35 117.75 -138.5 121.05 -141.4 119.1 -142.7 125.7 -142.45 126.6 -144.4 126.05 Q-147.15 119.9 -150.25 114.15 L-143.9 94.3 -142.75 93.8 -142.7 93.8 Q-136.35 103.2 -130.9 113.6 M-283.85 28.3 Q-277.7 27.95 -271.9 26.55 L-267.95 25.45 Q-245.75 18.55 -224.35 27.6 -188.6 42.7 -163.15 68.75 L-171.0 84.1 Q-187.9 64.65 -210.8 50.9 -239.45 33.75 -271.9 38.4 -277.95 39.3 -284.1 40.9 L-287.15 29.9 -287.9 28.6 -283.85 28.3 M-142.7 93.8 L-142.75 93.8 -142.7 93.8" fill="#76763d" fill-rule="evenodd" stroke="none"/>
    <path d="M105.05 -102.1 Q111.6 -111.35 120.9 -117.8 125.35 -120.85 130.5 -121.55 138.25 -122.9 146.05 -121.4 150.95 -120.3 153.9 -116.5 L154.55 -115.15 Q156.15 -108.2 160.9 -103.05 165.7 -97.8 172.65 -97.8 184.75 -97.8 194.95 -104.55 199.1 -107.3 202.55 -110.4 M222.0 -28.1 L223.3 -32.85 Q234.2 -74.25 272.4 -71.05 M140.9 9.9 Q147.55 4.55 148.35 -3.65 148.75 -7.7 145.2 -8.45 142.65 -8.8 140.05 -8.55 132.0 -7.35 125.05 -3.05 115.7 1.1 109.65 8.9 108.6 10.3 107.85 12.0 106.0 16.35 108.6 19.4 109.3 20.25 110.5 20.65 117.4 23.2 124.35 20.55 133.9 17.05 140.9 9.9 M142.2 67.4 Q166.4 78.35 184.9 51.4 194.6 37.25 202.45 22.0 214.55 -1.7 222.0 -28.1 M195.3 0.15 Q189.15 -0.7 183.75 -3.65 182.5 -4.25 181.3 -4.95 M84.8 -51.05 Q80.0 -55.0 83.0 -60.55 83.9 -62.2 85.2 -63.55 91.6 -70.1 100.05 -73.55 L111.0 -77.6 Q112.55 -78.1 113.35 -79.6 102.75 -80.45 92.35 -83.1 91.0 -83.5 90.3 -84.85 90.45 -87.1 92.3 -88.65 101.9 -96.4 114.5 -98.5 M-2.85 -54.25 Q1.75 -49.65 4.45 -43.95 5.0 -42.7 5.0 -41.25 5.0 -35.5 2.25 -30.6 -3.65 -20.1 -13.95 -13.45 -23.85 -7.15 -35.3 -5.0 -41.65 -3.8 -47.3 -6.8 -48.5 -7.45 -49.5 -8.6 -54.75 -14.6 -51.5 -21.95 -46.9 -32.4 -39.05 -40.6 -31.2 -48.75 -20.8 -53.1 L-17.05 -54.55 Q-10.75 -56.2 -4.4 -55.2 -3.6 -55.0 -2.85 -54.25 M83.0 -28.0 L84.75 -50.95 Q77.95 -48.2 71.45 -44.9 46.4 -32.3 25.5 -12.05 -5.0 17.45 -36.2 46.25 -68.25 75.8 -98.1 107.35 -117.0 127.3 -130.9 113.6 L-136.35 117.75 M-138.5 121.05 L-141.4 119.1 -142.7 125.7 M84.75 -50.95 L84.8 -51.05 84.85 -51.0 Q91.3 -53.65 98.05 -55.8 148.35 -71.95 195.25 -53.45 M84.75 -50.95 L84.85 -51.0 M-50.65 -101.35 Q-49.65 -94.25 -43.9 -89.55 -39.4 -85.8 -39.25 -79.9 -39.0 -71.9 -44.55 -65.95 -52.3 -57.75 -62.1 -52.35 -67.45 -49.35 -72.05 -45.35 -81.0 -37.45 -86.7 -27.1 L-93.15 -15.4 Q-98.8 -5.35 -105.95 3.6 -113.2 12.6 -123.65 17.4 -133.65 21.95 -144.4 20.7 -149.85 20.25 -152.8 15.95 -155.25 12.3 -154.5 7.8 -153.55 2.2 -150.95 -3.0 -147.55 -9.9 -145.0 -17.05 -144.4 -18.6 -145.5 -19.8 -150.6 -22.15 -156.25 -20.85 -177.4 -16.45 -197.2 -7.8 -200.7 -6.25 -204.35 -5.0 -208.75 -3.65 -212.9 -5.05 -216.9 -6.4 -217.95 -10.55 -218.3 -12.05 -218.15 -13.5 M-283.85 28.3 Q-277.7 27.95 -271.9 26.55 L-267.95 25.45 Q-245.75 18.55 -224.35 27.6 -188.6 42.7 -163.15 68.75 -152.4 70.55 -141.95 67.1 -137.4 65.5 -132.8 64.15 -123.5 61.25 -116.05 54.9 L-110.0 49.8 -93.4 36.15 Q-87.05 31.05 -81.55 25.05 L-77.75 19.85 -77.25 19.05 M-80.45 -85.65 Q-77.8 -73.55 -84.4 -63.15 -90.8 -53.0 -101.7 -48.1 -108.85 -44.85 -115.95 -47.5 -120.15 -49.1 -121.3 -53.15 -121.95 -55.25 -121.5 -57.35 L-120.3 -62.55 M-98.6 53.0 L-91.15 49.3 -99.8 61.3 Q-105.4 69.05 -112.8 75.3 -121.2 82.55 -130.6 88.5 -136.25 92.2 -142.7 93.8 -136.35 103.2 -130.9 113.6 M-98.6 53.0 L-99.65 52.9 -99.35 52.5 -81.05 25.25 -77.75 19.85 M-142.75 93.8 L-142.7 93.8 Q-151.95 80.2 -163.15 68.75 L-171.0 84.1 M-142.75 93.8 L-143.9 94.3 -150.25 114.15" fill="none" stroke="#ffffff" stroke-linecap="round" stroke-linejoin="round" stroke-opacity="0.49803922" stroke-width="2.0"/>
    <path d="M202.55 -110.4 L193.7 -113.5 Q168.05 -121.9 143.15 -132.1 99.0 -150.1 78.95 -111.0 92.15 -106.85 105.05 -102.1 L114.5 -98.5 Q141.6 -87.9 167.35 -74.45 183.15 -66.2 195.95 -54.25 L196.0 -54.25 198.8 -51.55 Q201.85 -37.85 201.5 -26.1 201.05 -11.45 195.3 0.15 190.25 10.25 181.1 18.1 L179.25 19.6 Q149.1 43.55 145.4 54.5 141.7 65.4 142.2 67.4 M272.4 -71.05 Q241.25 -96.2 202.55 -110.4 M195.25 -53.45 L198.8 -51.55 M281.4 -49.65 L282.45 -50.35 Q286.15 -52.75 287.5 -56.8 L287.95 -58.55 287.5 -59.3 Q281.15 -66.65 272.4 -71.05 M129.0 81.6 L129.5 82.15 M-20.35 -115.55 Q19.75 -130.75 62.55 -117.9 71.05 -115.45 78.95 -111.0 M-136.35 117.75 L-138.5 121.05 M17.25 14.85 Q36.35 17.3 51.0 28.75 88.3 57.8 129.0 81.6 M-20.35 -115.55 Q-25.6 -113.55 -30.8 -111.1 L-50.65 -101.35 Q-65.7 -93.8 -80.45 -85.65 -98.55 -75.75 -116.25 -65.0 L-120.3 -62.55 Q-160.9 -38.25 -204.5 -19.7 L-218.15 -13.5 Q-246.6 0.05 -271.9 18.95 -278.0 23.45 -283.85 28.3 L-287.9 28.6 -287.15 29.9 -284.1 40.9 Q-277.95 39.3 -271.9 38.4 -239.45 33.75 -210.8 50.9 -187.9 64.65 -171.0 84.1 -159.15 97.7 -150.25 114.15 -147.15 119.9 -144.4 126.05 L-142.45 126.6" fill="none" stroke="#000000" stroke-linecap="round" stroke-linejoin="round" stroke-opacity="0.4" stroke-width="0.5"/>
    <path d="M153.7 19.75 Q173.5 4.8 181.3 -4.95 185.65 -10.45 186.2 -14.3 187.75 -25.6 181.55 -29.0 142.75 -50.2 98.6 -34.3 90.65 -31.4 83.0 -28.0 L74.5 -24.05 Q49.85 -12.0 28.3 5.4 22.65 9.9 17.25 14.85 L0.6 32.05 Q-30.9 65.4 -63.5 97.5 -77.5 111.35 -92.05 124.35 -120.85 150.05 -142.45 126.6 L-142.7 125.7 M129.5 82.15 Q163.05 108.6 192.55 64.1 222.0 19.6 227.0 -13.2 233.65 -56.65 270.9 -54.95 277.35 -54.95 281.4 -49.65 M153.7 19.75 L150.25 22.3 Q119.45 45.0 126.8 74.6 127.65 78.05 129.0 81.6" fill="none" stroke="#000000" stroke-linecap="round" stroke-linejoin="round" stroke-opacity="0.4" stroke-width="0.5"/>
  </g>
  <defs>
    <linearGradient gradientTransform="matrix(-0.0377, 0.0994, -0.0956, -0.0363, 164.25, -22.0)" gradientUnits="userSpaceOnUse" id="gradient0" spreadMethod="pad" x1="-819.2" x2="819.2">
      <stop offset="0.0" stop-color="#c7c68d"/>
      <stop offset="1.0" stop-color="#9e9d50"/>
    </linearGradient>
    <linearGradient gradientTransform="matrix(-0.0294, 0.0294, -0.0386, -0.0386, 120.3, -6.6)" gradientUnits="userSpaceOnUse" id="gradient1" spreadMethod="pad" x1="-819.2" x2="819.2">
      <stop offset="0.0" stop-color="#605f31"/>
      <stop offset="1.0" stop-color="#757500"/>
    </linearGradient>
    <linearGradient gradientTransform="matrix(0.0446, -0.0553, 0.0144, 0.0116, 197.15, 12.3)" gradientUnits="userSpaceOnUse" id="gradient2" spreadMethod="pad" x1="-819.2" x2="819.2">
      <stop offset="0.0" stop-color="#605f31"/>
      <stop offset="1.0" stop-color="#757500"/>
    </linearGradient>
    <linearGradient gradientTransform="matrix(0.0343, -0.0982, 0.0137, 0.0048, 223.25, -66.2)" gradientUnits="userSpaceOnUse" id="gradient3" spreadMethod="pad" x1="-819.2" x2="819.2">
      <stop offset="0.0" stop-color="#9e9d50"/>
      <stop offset="1.0" stop-color="#c3c288"/>
    </linearGradient>
    <linearGradient gradientTransform="matrix(-0.0135, 0.0508, -0.0737, -0.0195, 84.2, 38.1)" gradientUnits="userSpaceOnUse" id="gradient4" spreadMethod="pad" x1="-819.2" x2="819.2">
      <stop offset="0.0" stop-color="#757500"/>
      <stop offset="1.0" stop-color="#9e9d50"/>
    </linearGradient>
    <linearGradient gradientTransform="matrix(0.1567, -0.1217, 0.0664, 0.0854, -25.8, -60.1)" gradientUnits="userSpaceOnUse" id="gradient5" spreadMethod="pad" x1="-819.2" x2="819.2">
      <stop offset="0.0" stop-color="#c7c68d"/>
      <stop offset="1.0" stop-color="#9e9d50"/>
    </linearGradient>
  </defs>
</svg>
