<?xml version="1.0" encoding="UTF-8" standalone="no"?>
<svg xmlns:xlink="http://www.w3.org/1999/xlink" height="107.75px" width="135.05px" xmlns="http://www.w3.org/2000/svg">
  <g transform="matrix(1.0, 0.0, 0.0, 1.0, -186.7, -101.85)">
    <path d="M292.8 106.1 Q294.95 107.65 296.05 109.85 288.15 111.55 280.0 111.7 287.5 115.25 301.25 113.9 300.55 114.85 298.95 115.45 292.4 118.5 281.45 115.45 L268.3 111.15 240.25 113.6 Q235.4 118.85 225.05 126.85 L210.6 138.55 202.5 150.95 Q203.0 158.3 200.65 159.95 L198.7 158.4 202.2 137.85 Q203.4 135.95 204.75 134.15 L204.9 133.9 205.65 132.9 206.6 131.65 209.55 128.0 Q206.05 134.25 204.0 143.05 215.5 123.75 232.75 109.05 L235.95 107.7 238.25 106.65 238.9 106.4 238.95 106.45 Q230.8 112.7 223.35 121.95 219.35 126.9 215.55 132.7 L215.3 132.9 210.6 138.55 215.3 132.9 215.55 132.7 Q219.35 126.9 223.35 121.95 239.7 108.25 256.05 102.45 L267.2 103.15 Q256.45 105.15 246.45 110.15 269.6 105.15 292.8 106.1 M280.0 111.7 Q276.25 111.8 272.45 111.55 L268.3 111.15 272.45 111.55 Q276.25 111.8 280.0 111.7 M246.45 110.15 Q243.3 111.7 240.25 113.6 243.3 111.7 246.45 110.15 M202.5 150.95 Q203.1 146.75 204.0 143.05 203.1 146.75 202.5 150.95" fill="#c97cd1" fill-rule="evenodd" stroke="none"/>
    <path d="M267.2 103.15 L276.95 101.95 Q287.8 102.4 292.8 106.1 269.6 105.15 246.45 110.15 256.45 105.15 267.2 103.15 M296.05 109.85 L300.2 108.85 300.3 109.0 Q302.5 112.1 301.25 113.9 287.5 115.25 280.0 111.7 288.15 111.55 296.05 109.85 M198.7 158.4 L193.4 154.2 Q197.3 145.3 202.2 137.85 L198.7 158.4 M206.6 131.65 Q209.4 125.25 216.65 117.95 225.45 111.25 229.95 109.9 L232.75 109.05 Q215.5 123.75 204.0 143.05 206.05 134.25 209.55 128.0 L206.6 131.65 M239.25 106.25 L239.3 106.2 Q244.4 102.45 249.45 102.0 L256.05 102.45 Q239.7 108.25 223.35 121.95 230.8 112.7 238.95 106.45 L239.25 106.25" fill="#dc95e3" fill-rule="evenodd" stroke="none"/>
    <path d="M267.2 103.15 L276.95 101.95 Q287.8 102.4 292.8 106.1 294.95 107.65 296.05 109.85 L300.2 108.85 300.3 109.0 Q302.5 112.1 301.25 113.9 300.55 114.85 298.95 115.45 292.4 118.5 281.45 115.45 L268.3 111.15 240.25 113.6 Q235.4 118.85 225.05 126.85 L210.6 138.55 202.5 150.95 Q203.0 158.3 200.65 159.95 L198.7 158.4 193.4 154.2 Q197.3 145.3 202.2 137.85 203.4 135.95 204.75 134.15 L204.9 133.9 205.65 132.9 206.6 131.65 Q209.4 125.25 216.65 117.95 225.45 111.25 229.95 109.9 L232.75 109.05 235.95 107.7 238.25 106.65 238.9 106.4 239.25 106.25 239.3 106.2 Q244.4 102.45 249.45 102.0 L256.05 102.45 267.2 103.15 Q256.45 105.15 246.45 110.15 243.3 111.7 240.25 113.6 M268.3 111.15 L272.45 111.55 Q276.25 111.8 280.0 111.7 288.15 111.55 296.05 109.85 M238.95 106.45 L239.25 106.25 M206.6 131.65 L209.55 128.0 Q206.05 134.25 204.0 143.05 203.1 146.75 202.5 150.95 M223.35 121.95 Q219.35 126.9 215.55 132.7 L215.3 132.9 210.6 138.55 M223.35 121.95 Q230.8 112.7 238.95 106.45" fill="none" stroke="#660000" stroke-linecap="round" stroke-linejoin="round" stroke-opacity="0.4" stroke-width="0.2"/>
    <path d="M298.6 107.85 L302.45 106.6 303.8 106.15 Q310.3 111.2 311.5 118.25 L311.95 121.7 Q300.6 116.6 298.6 107.85 M312.65 131.7 Q324.85 155.1 320.5 172.35 318.4 180.55 316.35 180.05 313.9 172.1 316.65 162.0 316.0 150.65 312.25 141.35 313.65 157.65 312.5 170.65 L313.2 173.8 Q310.75 177.25 308.6 177.55 305.75 175.35 305.65 171.3 309.3 156.6 309.25 140.65 305.25 124.0 312.65 131.7 M296.45 167.75 Q291.85 168.7 290.65 165.9 297.55 153.85 302.9 149.6 L299.45 166.8 296.45 167.75" fill="#dc95e3" fill-rule="evenodd" stroke="none"/>
    <path d="M302.45 106.6 L298.6 107.85 294.8 109.05 Q297.4 100.05 302.45 106.6 M306.15 123.4 Q303.75 123.5 303.7 130.4 299.6 127.6 296.35 122.95 L293.2 119.15 293.05 113.95 Q293.45 116.05 296.75 118.45 299.4 117.55 306.15 123.4" fill="#c97cd1" fill-rule="evenodd" stroke="none"/>
    <path d="M298.6 107.85 Q300.6 116.6 311.95 121.7 312.5 127.1 310.65 128.05 L312.65 131.7 Q305.25 124.0 309.25 140.65 309.3 156.6 305.65 171.3 305.75 175.35 308.6 177.55 307.35 177.65 306.15 176.7 305.0 175.6 303.9 173.25 302.25 169.25 303.05 161.15 301.5 165.8 299.45 166.8 L302.9 149.6 Q297.55 153.85 290.65 165.9 289.5 163.25 291.15 157.45 L304.0 137.1 Q303.65 133.2 303.7 130.4 303.75 123.5 306.15 123.4 307.2 123.35 308.75 124.8 L310.65 128.05 308.75 124.8 Q307.2 123.35 306.15 123.4 299.4 117.55 296.75 118.45 293.45 116.05 293.05 113.95 292.05 109.3 294.8 109.05 L298.6 107.85 M303.5 143.7 L304.0 137.1 303.5 143.7 M316.35 180.05 Q315.65 179.9 315.0 178.65 314.1 177.1 313.2 173.8 L312.5 170.65 Q313.65 157.65 312.25 141.35 316.0 150.65 316.65 162.0 313.9 172.1 316.35 180.05 M306.7 142.35 Q303.8 153.5 303.05 161.15 303.8 153.5 306.7 142.35" fill="#d684df" fill-rule="evenodd" stroke="none"/>
    <path d="M315.0 178.65 L314.1 182.35 Q308.7 177.05 302.85 190.4 301.6 186.1 304.1 180.5 L300.75 183.15 Q302.3 177.0 300.75 173.0 295.1 172.3 286.35 183.85 284.15 176.0 296.45 167.75 L299.45 166.8 Q301.5 165.8 303.05 161.15 302.25 169.25 303.9 173.25 305.0 175.6 306.15 176.7 307.35 177.65 308.6 177.55 310.75 177.25 313.2 173.8 314.1 177.1 315.0 178.65 M304.1 180.5 Q304.95 178.65 306.15 176.7 304.95 178.65 304.1 180.5" fill="#c585cb" fill-rule="evenodd" stroke="none"/>
    <path d="M314.1 182.35 Q310.6 195.5 304.75 193.85 303.45 192.25 302.85 190.4 308.7 177.05 314.1 182.35 M300.75 183.15 Q289.1 191.55 286.35 183.85 295.1 172.3 300.75 173.0 302.3 177.0 300.75 183.15" fill="#cf8cd5" fill-rule="evenodd" stroke="none"/>
    <path d="M302.45 106.6 L298.6 107.85 294.8 109.05 Q297.4 100.05 302.45 106.6 L303.8 106.15 Q310.3 111.2 311.5 118.25 L311.95 121.7 Q312.5 127.1 310.65 128.05 L312.65 131.7 Q324.85 155.1 320.5 172.35 318.4 180.55 316.35 180.05 315.65 179.9 315.0 178.65 L314.1 182.35 Q310.6 195.5 304.75 193.85 303.45 192.25 302.85 190.4 301.6 186.1 304.1 180.5 L300.75 183.15 Q289.1 191.55 286.35 183.85 284.15 176.0 296.45 167.75 291.85 168.7 290.65 165.9 289.5 163.25 291.15 157.45 L304.0 137.1 303.5 143.7 M310.65 128.05 L308.75 124.8 Q307.2 123.35 306.15 123.4 303.75 123.5 303.7 130.4 303.65 133.2 304.0 137.1 M315.0 178.65 Q314.1 177.1 313.2 173.8 310.75 177.25 308.6 177.55 307.35 177.65 306.15 176.7 304.95 178.65 304.1 180.5 M306.15 176.7 Q305.0 175.6 303.9 173.25 302.25 169.25 303.05 161.15 301.5 165.8 299.45 166.8 L296.45 167.75 M313.2 173.8 L312.5 170.65 Q313.65 157.65 312.25 141.35 M303.7 130.4 Q299.6 127.6 296.35 122.95 L293.2 119.15 293.05 113.95 Q292.05 109.3 294.8 109.05 M306.15 123.4 Q299.4 117.55 296.75 118.45 293.45 116.05 293.05 113.95 M303.05 161.15 Q303.8 153.5 306.7 142.35" fill="none" stroke="#660000" stroke-linecap="round" stroke-linejoin="round" stroke-opacity="0.4" stroke-width="0.2"/>
    <path d="M235.35 176.5 Q236.6 179.3 233.25 182.95 L230.95 185.1 217.1 178.1 Q223.15 175.75 235.35 176.5 M230.2 208.3 Q229.4 210.4 222.5 207.5 208.2 201.35 199.2 176.45 198.2 165.25 207.35 178.65 218.2 188.15 230.4 193.35 233.05 195.85 232.95 199.7 231.55 201.5 227.7 201.7 L225.95 199.2 Q216.4 192.65 206.05 181.8 210.25 190.65 217.65 197.95 226.15 201.4 230.2 208.3 M192.75 170.0 L190.65 167.6 Q186.55 162.35 186.8 153.45 L187.9 152.5 191.0 149.7 Q195.8 156.7 192.75 170.0" fill="#dc95e3" fill-rule="evenodd" stroke="none"/>
    <path d="M187.9 152.5 Q186.3 144.05 194.05 146.95 L191.0 149.7 187.9 152.5 M198.4 148.2 L201.85 151.45 202.7 156.55 Q204.0 162.2 203.5 167.6 198.7 163.65 197.35 165.7 197.2 156.1 199.3 154.25 199.6 149.85 198.4 148.2" fill="#c97cd1" fill-rule="evenodd" stroke="none"/>
    <path d="M235.35 176.5 Q223.15 175.75 217.1 178.1 L230.95 185.1 Q229.0 186.35 224.95 185.05 230.95 189.1 232.75 192.95 233.75 195.3 233.8 197.05 233.8 198.65 232.95 199.7 233.05 195.85 230.4 193.35 218.2 188.15 207.35 178.65 198.2 165.25 199.2 176.45 L197.9 172.55 Q196.15 173.65 192.75 170.0 195.8 156.7 191.0 149.7 L194.05 146.95 Q195.8 144.65 198.4 148.2 199.6 149.85 199.3 154.25 197.2 156.1 197.35 165.7 196.7 166.7 196.75 168.95 L197.9 172.55 196.75 168.95 Q196.7 166.7 197.35 165.7 198.7 163.65 203.5 167.6 L207.95 171.8 229.3 172.05 Q234.25 173.95 235.35 176.5 M230.05 206.25 Q230.5 207.5 230.2 208.3 226.15 201.4 217.65 197.95 210.25 190.65 206.05 181.8 216.4 192.65 225.95 199.2 L227.7 201.7 Q229.5 204.5 230.05 206.25 M209.95 177.3 Q219.3 181.3 224.95 185.05 219.3 181.3 209.95 177.3 M212.75 175.2 L207.95 171.8 212.75 175.2" fill="#d684df" fill-rule="evenodd" stroke="none"/>
    <path d="M230.95 185.1 L233.25 182.95 Q246.0 176.55 250.15 183.15 237.15 184.35 234.45 189.9 236.3 193.65 241.4 195.85 L237.6 197.4 Q242.9 198.35 245.1 202.05 232.6 199.55 233.05 207.6 L230.05 206.25 Q229.5 204.5 227.7 201.7 231.55 201.5 232.95 199.7 233.8 198.65 233.8 197.05 233.75 195.3 232.75 192.95 230.95 189.1 224.95 185.05 229.0 186.35 230.95 185.1 M237.6 197.4 L233.8 197.05 237.6 197.4" fill="#c585cb" fill-rule="evenodd" stroke="none"/>
    <path d="M250.15 183.15 Q253.85 190.25 241.4 195.85 236.3 193.65 234.45 189.9 237.15 184.35 250.15 183.15 M245.1 202.05 Q246.05 203.7 246.4 205.8 244.1 212.1 233.05 207.6 232.6 199.55 245.1 202.05" fill="#cf8cd5" fill-rule="evenodd" stroke="none"/>
    <path d="M233.25 182.95 Q236.6 179.3 235.35 176.5 234.25 173.95 229.3 172.05 L207.95 171.8 212.75 175.2 M230.95 185.1 L233.25 182.95 Q246.0 176.55 250.15 183.15 253.85 190.25 241.4 195.85 L237.6 197.4 Q242.9 198.35 245.1 202.05 246.05 203.7 246.4 205.8 244.1 212.1 233.05 207.6 L230.05 206.25 Q230.5 207.5 230.2 208.3 229.4 210.4 222.5 207.5 208.2 201.35 199.2 176.45 L197.9 172.55 Q196.15 173.65 192.75 170.0 L190.65 167.6 Q186.55 162.35 186.8 153.45 L187.9 152.5 Q186.3 144.05 194.05 146.95 195.8 144.65 198.4 148.2 L201.85 151.45 202.7 156.55 Q204.0 162.2 203.5 167.6 L207.95 171.8 M232.95 199.7 Q233.8 198.65 233.8 197.05 233.75 195.3 232.75 192.95 230.95 189.1 224.95 185.05 219.3 181.3 209.95 177.3 M233.8 197.05 L237.6 197.4 M197.35 165.7 Q197.2 156.1 199.3 154.25 199.6 149.85 198.4 148.2 M187.9 152.5 L191.0 149.7 194.05 146.95 M232.95 199.7 Q231.55 201.5 227.7 201.7 229.5 204.5 230.05 206.25 M197.9 172.55 L196.75 168.95 Q196.7 166.7 197.35 165.7 198.7 163.65 203.5 167.6 M227.7 201.7 L225.95 199.2 Q216.4 192.65 206.05 181.8 M224.95 185.05 Q229.0 186.35 230.95 185.1" fill="none" stroke="#660000" stroke-linecap="round" stroke-linejoin="round" stroke-opacity="0.4" stroke-width="0.2"/>
  </g>
</svg>
