<?xml version="1.0" encoding="UTF-8" standalone="no"?>
<svg xmlns:xlink="http://www.w3.org/1999/xlink" height="57.55px" width="35.5px" xmlns="http://www.w3.org/2000/svg">
  <g transform="matrix(1.0, 0.0, 0.0, 1.0, 18.0, 19.95)">
    <path d="M2.8 -1.15 L3.25 -1.15 3.25 2.6 3.25 8.6 1.5 8.6 Q-3.5 2.6 2.8 -1.15 M3.25 25.1 L3.25 28.85 -1.25 28.85 Q-8.95 24.0 0.1 19.1 L3.25 19.1 3.25 25.1 M-12.75 25.1 L-17.5 25.1 -17.5 19.1 -11.1 19.1 Q-4.95 21.6 -12.75 25.1 M-8.1 8.6 L-17.5 8.6 -17.5 2.1 -9.25 2.1 -9.25 -1.15 -5.35 -1.15 Q-0.85 4.2 -8.1 8.6" fill="#d58f1e" fill-rule="evenodd" stroke="none"/>
    <path d="M7.0 -18.7 L7.0 -19.95 17.5 -19.95 17.5 37.1 13.0 37.1 13.0 -14.95 7.0 -18.7" fill="#3a3a32" fill-rule="evenodd" stroke="none"/>
    <path d="M7.0 2.6 L7.0 -18.7 13.0 -14.95 13.0 37.1 9.75 37.1 7.0 37.1 7.0 25.1 7.0 2.6 M9.75 37.1 L9.75 -14.95 9.75 37.1" fill="#6c6c5b" fill-rule="evenodd" stroke="none"/>
    <path d="M-1.25 28.85 L-8.25 28.85 -8.25 25.1 -12.75 25.1 Q-4.95 21.6 -11.1 19.1 L-0.75 19.1 0.1 19.1 Q-8.95 24.0 -1.25 28.85 M-0.75 8.6 L-8.1 8.6 Q-0.85 4.2 -5.35 -1.15 L2.8 -1.15 Q-3.5 2.6 1.5 8.6 L-0.75 8.6" fill="#f3c55a" fill-rule="evenodd" stroke="none"/>
    <path d="M3.25 2.6 L7.0 2.6 7.0 25.1 3.25 25.1 3.25 19.1 0.1 19.1 -0.75 19.1 -0.75 8.6 1.5 8.6 3.25 8.6 3.25 2.6" fill="#8f6114" fill-rule="evenodd" stroke="none"/>
    <path d="M2.8 -1.15 L3.25 -1.15 3.25 2.6 7.0 2.6 M7.0 25.1 L3.25 25.1 3.25 28.85 -1.25 28.85 -8.25 28.85 -8.25 25.1 -12.75 25.1 -17.5 25.1 -17.5 19.1 -11.1 19.1 -0.75 19.1 -0.75 8.6 -8.1 8.6 -17.5 8.6 -17.5 2.1 -9.25 2.1 -9.25 -1.15 -5.35 -1.15 2.8 -1.15" fill="none" stroke="#5f3707" stroke-linecap="round" stroke-linejoin="round" stroke-width="1.0"/>
    <path d="M9.75 -14.95 L9.75 37.1" fill="none" stroke="#cfd3c2" stroke-linecap="round" stroke-linejoin="round" stroke-width="1.0"/>
  </g>
</svg>
