<?xml version="1.0" encoding="UTF-8" standalone="no"?>
<svg xmlns:xlink="http://www.w3.org/1999/xlink" height="63.05px" width="66.1px" xmlns="http://www.w3.org/2000/svg">
  <g transform="matrix(1.0, 0.0, 0.0, 1.0, 0.0, 0.0)">
    <path d="M37.3 32.7 L46.45 35.35 36.15 48.25 24.75 47.25 20.7 38.95 20.75 39.0 24.7 31.45 37.3 32.7" fill="#008000" fill-rule="evenodd" stroke="none"/>
    <path d="M53.45 21.4 L57.95 23.85 58.75 25.15 Q58.05 25.4 57.6 28.0 L60.7 39.75 55.2 44.25 45.85 60.9 35.55 53.9 36.15 48.25 46.45 35.35 46.45 35.6 56.65 24.85 51.85 23.65 Q53.35 23.5 53.45 21.4 M43.1 18.4 Q42.4 19.2 43.3 21.45 L29.15 17.85 Q31.4 16.85 31.15 14.85 L43.1 18.4 M9.0 26.5 Q10.45 22.85 7.0 21.75 L22.05 15.85 Q22.05 17.1 22.95 17.55 L9.0 26.5 M57.0 29.35 L57.6 28.0 57.0 29.35" fill="#005900" fill-rule="evenodd" stroke="none"/>
    <path d="M53.35 21.2 L56.0 21.7 60.95 19.0 61.75 16.25 62.9 16.45 66.1 22.2 60.7 26.0 58.75 25.15 57.95 23.85 53.45 21.4 53.35 21.2 M46.4 3.65 L46.7 3.75 50.6 12.05 45.5 18.0 39.65 7.8 46.4 3.65 M49.5 23.05 L51.85 23.65 56.65 24.85 46.45 35.6 46.45 35.35 37.3 32.7 43.65 26.2 43.65 26.05 43.75 26.05 43.65 26.2 43.8 26.05 43.75 26.05 49.5 23.05 M22.35 63.05 L4.7 45.45 14.9 32.7 6.45 28.25 8.9 26.75 9.0 26.5 22.95 17.55 24.15 17.8 25.4 17.05 25.65 22.55 22.65 25.0 22.45 25.2 24.7 31.45 14.9 32.7 20.7 38.95 24.75 47.25 22.35 63.05 M7.0 21.75 L6.65 21.65 6.3 21.65 6.15 21.65 7.55 11.3 11.15 7.8 23.25 13.15 23.45 13.6 22.05 15.7 22.05 15.85 7.0 21.75" fill="#00b000" fill-rule="evenodd" stroke="none"/>
    <path d="M28.6 23.1 L22.7 25.1 22.65 25.0 25.65 22.55 28.6 23.1" fill="#cbfdaa" fill-rule="evenodd" stroke="none"/>
    <path d="M4.7 45.45 L6.45 28.25 14.9 32.7 4.7 45.45 M6.15 21.65 L6.05 21.65 0.75 17.15 0.0 7.95 0.4 7.6 7.55 11.3 6.15 21.65 M39.6 2.15 L39.9 2.05 46.4 3.65 39.65 7.8 39.6 2.15" fill="#80f762" fill-rule="evenodd" stroke="none"/>
    <path d="M45.5 18.0 L45.3 18.25 43.1 18.4 31.15 14.85 30.3 13.6 28.75 9.85 30.55 6.8 39.65 7.8 45.5 18.0 M43.3 21.45 L49.5 23.05 43.75 26.05 43.65 26.05 28.6 23.1 25.65 22.55 25.4 17.05 25.55 16.95 29.15 17.85 43.3 21.45 M17.95 1.3 L18.35 1.35 23.25 13.15 11.15 7.8 17.95 1.3 M24.7 31.45 L20.75 39.0 20.7 38.95 14.9 32.7 24.7 31.45" fill="#55cf21" fill-rule="evenodd" stroke="none"/>
    <path d="M38.25 62.65 L22.35 63.05 24.75 47.25 36.15 48.25 35.55 53.9 38.25 62.65" fill="#007100" fill-rule="evenodd" stroke="none"/>
    <path d="M45.85 60.9 L45.7 61.1 38.25 62.65 35.55 53.9 45.85 60.9" fill="#003c00" fill-rule="evenodd" stroke="none"/>
    <path d="M61.75 16.25 L60.95 19.0 56.0 21.7 53.35 21.2 52.15 19.1 56.2 15.1 61.75 16.25 M0.4 7.6 L9.35 0.0 17.95 1.3 11.15 7.8 7.55 11.3 0.4 7.6 M30.55 6.8 L39.6 2.15 39.65 7.8 30.55 6.8" fill="#e4fed3" fill-rule="evenodd" stroke="none"/>
    <path d="M43.65 26.2 L37.3 32.7 24.7 31.45 22.45 25.2 22.7 25.1 28.6 23.1 43.65 26.05 43.65 26.2" fill="#00ce00" fill-rule="evenodd" stroke="none"/>
    <path d="M57.6 28.0 L57.0 29.35" fill="none" stroke="#484b5b" stroke-linecap="round" stroke-linejoin="round" stroke-opacity="0.6" stroke-width="1.0"/>
  </g>
</svg>
