<?xml version="1.0" encoding="UTF-8" standalone="no"?>
<svg xmlns:xlink="http://www.w3.org/1999/xlink" height="128.0px" width="286.65px" xmlns="http://www.w3.org/2000/svg">
  <g transform="matrix(1.0, 0.0, 0.0, 1.0, -84.85, 0.5)">
    <path d="M247.9 11.15 L255.3 6.75 259.25 7.6 272.35 7.55 278.25 12.55 Q307.25 21.25 331.35 36.0 379.75 65.1 369.05 91.0 L362.0 91.0 Q374.15 68.0 333.35 45.0 305.95 27.05 273.55 17.4 L269.35 16.15 265.85 17.9 262.35 19.6 255.35 23.0 250.45 11.65 247.9 11.15 M234.35 3.15 L229.6 8.3 Q208.35 5.65 185.35 6.0 154.8 10.2 133.45 19.7 L129.05 15.15 Q154.2 3.75 191.35 0.0 213.85 0.4 234.35 3.15 M281.85 31.8 L289.45 29.7 305.35 42.0 299.35 47.0 281.85 31.8 M266.65 35.95 L272.25 34.4 278.35 50.0 271.35 54.0 266.65 35.95" fill="#666699" fill-rule="evenodd" stroke="none"/>
    <path d="M247.9 11.15 Q238.9 9.4 229.6 8.3 L234.35 3.15 Q245.1 4.6 255.3 6.75 L247.9 11.15 M133.45 19.7 Q103.3 33.0 91.35 56.85 90.15 48.95 85.35 54.0 98.3 28.95 129.05 15.15 L133.45 19.7 M262.35 19.6 L265.85 17.9 269.35 16.15 273.55 17.4 289.45 29.7 281.85 31.8 265.85 17.9 272.25 34.4 266.65 35.95 262.35 19.6 M362.0 91.0 L369.05 91.0 Q361.3 109.85 322.35 127.0 L317.35 124.0 Q353.3 107.5 362.0 91.0" fill="#53547c" fill-rule="evenodd" stroke="none"/>
    <path d="M229.6 8.3 Q238.9 9.4 247.9 11.15 L250.45 11.65 255.35 23.0 262.35 19.6 265.85 17.9 269.35 16.15 273.55 17.4 Q305.95 27.05 333.35 45.0 374.15 68.0 362.0 91.0 353.3 107.5 317.35 124.0 L322.35 127.0 Q361.3 109.85 369.05 91.0 379.75 65.1 331.35 36.0 307.25 21.25 278.25 12.55 L272.35 7.55 259.25 7.6 255.3 6.75 Q245.1 4.6 234.35 3.15 213.85 0.4 191.35 0.0 154.2 3.75 129.05 15.15 98.3 28.95 85.35 54.0 90.15 48.95 91.35 56.85 103.3 33.0 133.45 19.7 154.8 10.2 185.35 6.0 208.35 5.65 229.6 8.3 M265.85 17.9 L281.85 31.8 299.35 47.0 305.35 42.0 289.45 29.7 273.55 17.4 M266.65 35.95 L271.35 54.0 278.35 50.0 272.25 34.4 265.85 17.9 M262.35 19.6 L266.65 35.95" fill="none" stroke="#000000" stroke-linecap="round" stroke-linejoin="round" stroke-opacity="0.4" stroke-width="1.0"/>
  </g>
</svg>
