<?xml version="1.0" encoding="UTF-8" standalone="no"?>
<svg xmlns:xlink="http://www.w3.org/1999/xlink" height="23.65px" width="33.1px" xmlns="http://www.w3.org/2000/svg">
  <g transform="matrix(1.0, 0.0, 0.0, 1.0, 0.05, 0.05)">
    <path d="M11.9 12.9 L13.3 11.95 14.55 13.05 13.5 11.4 12.35 10.35 10.75 11.25 9.25 14.3 4.85 15.3 4.45 14.8 4.1 14.75 3.7 15.6 1.1 16.25 2.55 17.45 4.75 17.05 5.0 16.05 5.4 16.05 5.95 16.85 10.15 16.05 11.9 12.9 11.5 12.15 11.9 12.9 M4.45 16.6 L3.7 15.6 4.45 16.6 M9.25 14.3 L10.15 16.05 9.25 14.3 M4.85 15.3 L5.4 16.05 4.85 15.3" fill="#ffffcc" fill-rule="evenodd" stroke="none"/>
    <path d="M12.5 13.95 L14.05 13.05 15.2 14.1 14.55 13.05 13.3 11.95 11.9 12.9 12.5 13.95 11.9 12.9 10.15 16.05 5.95 16.85 5.4 16.05 5.0 16.05 4.75 17.05 2.55 17.45 1.1 16.25 0.0 16.45 2.7 18.8 5.45 18.25 5.7 17.2 6.2 17.25 6.75 18.05 10.95 17.0 12.5 13.95 M5.95 16.85 L6.2 17.25 5.95 16.85" fill="#fcdcb1" fill-rule="evenodd" stroke="none"/>
    <path d="M14.55 13.05 L15.2 14.1 14.05 13.05 12.5 13.95 11.9 12.9 11.5 12.15 M14.55 13.05 L13.5 11.4 12.35 10.35 10.75 11.25 9.25 14.3 4.85 15.3 4.45 14.8 4.1 14.75 3.7 15.6 1.1 16.25 0.0 16.45 2.7 18.8 5.45 18.25 5.7 17.2 6.2 17.25 6.75 18.05 10.95 17.0 12.5 13.95 M3.7 15.6 L4.45 16.6 M6.2 17.25 L5.95 16.85 5.4 16.05 4.85 15.3 M10.15 16.05 L9.25 14.3" fill="none" stroke="#a6461e" stroke-linecap="round" stroke-linejoin="round" stroke-width="0.1"/>
    <path d="M8.25 16.0 Q8.6 15.1 9.35 14.35 L11.5 12.1 13.0 10.85 Q13.95 10.05 15.2 9.6 L15.3 9.55 Q13.6 11.25 11.8 13.6 10.6 15.1 9.9 17.15 L10.5 17.85 Q11.05 18.25 12.3 18.5 L13.55 18.75 13.6 18.75 13.7 18.75 13.9 18.75 14.45 19.2 Q16.4 19.85 18.05 19.2 L19.55 19.4 19.6 19.8 17.1 20.55 Q12.5 21.45 10.25 20.1 L9.9 19.85 Q8.85 19.0 8.4 17.6 L8.5 17.35 8.4 16.75 8.25 16.0 M19.9 11.75 L21.25 9.75 Q22.4 8.3 23.8 7.35 24.7 6.7 25.7 6.25 L26.15 6.35 26.6 7.1 26.65 7.6 26.65 7.7 Q23.5 8.4 19.9 11.75" fill="#d2b586" fill-rule="evenodd" stroke="none"/>
    <path d="M15.3 9.55 Q19.6 8.0 21.15 7.25 L27.0 4.45 29.25 4.35 29.55 4.4 30.5 4.65 31.95 5.5 32.55 6.2 32.95 6.7 32.95 7.7 Q32.65 9.55 29.25 11.05 L25.4 12.8 24.9 14.35 Q22.85 13.95 21.1 15.5 19.45 16.9 19.55 19.4 L18.05 19.2 Q16.4 19.85 14.45 19.2 L13.9 18.75 13.7 18.75 13.6 18.75 Q14.15 16.8 15.75 16.4 16.65 16.2 17.6 17.6 18.15 18.5 17.6 19.15 L18.25 18.9 18.35 18.85 Q19.05 18.0 18.35 16.8 17.15 15.0 15.95 15.2 13.8 15.8 13.1 18.35 L13.35 18.6 13.55 18.75 12.3 18.5 Q11.05 18.25 10.5 17.85 L9.9 17.15 Q10.6 15.1 11.8 13.6 13.6 11.25 15.3 9.55 M8.15 16.25 L8.25 16.0 8.4 16.75 8.5 17.35 8.4 17.6 8.15 16.25 M26.65 7.7 L26.65 7.6 26.6 7.1 26.15 6.35 25.7 6.25 Q24.7 6.7 23.8 7.35 22.4 8.3 21.25 9.75 L19.9 11.75 19.4 12.2 19.9 11.75 Q23.5 8.4 26.65 7.7 L27.0 7.65 26.65 7.7" fill="#dec89e" fill-rule="evenodd" stroke="none"/>
    <path d="M29.25 4.35 L29.25 2.8 Q29.4 1.45 30.6 0.0 L32.9 1.1 Q32.2 2.05 31.95 3.2 L31.95 3.55 Q31.15 4.35 29.55 4.4 L29.25 4.35 M32.95 7.7 L32.95 10.6 Q31.15 12.45 29.1 12.8 L29.25 11.05 Q32.65 9.55 32.95 7.7 M24.9 14.35 L24.45 15.9 24.15 16.9 23.65 16.85 23.2 16.85 20.55 18.2 21.9 18.3 21.9 18.25 Q22.25 18.85 22.15 19.65 L22.15 20.5 18.7 22.75 15.4 23.55 Q10.65 23.75 8.05 20.55 7.0 18.25 8.15 16.25 L8.4 17.6 Q8.85 19.0 9.9 19.85 L10.25 20.1 Q12.5 21.45 17.1 20.55 L19.6 19.8 19.55 19.4 Q19.45 16.9 21.1 15.5 22.85 13.95 24.9 14.35 M13.35 18.6 L13.1 18.35 Q13.8 15.8 15.95 15.2 17.15 15.0 18.35 16.8 19.05 18.0 18.35 18.85 L18.25 18.9 17.8 17.1 Q17.75 16.6 17.35 16.35 15.2 15.05 14.25 17.2 L13.35 18.15 13.35 18.6 M21.5 17.4 L22.4 16.85 23.75 16.1 24.35 15.7 24.4 15.4 Q24.2 14.85 23.55 15.15 23.0 15.4 22.65 15.75 L21.9 16.5 20.7 17.8 20.5 18.25 21.5 17.4 M31.95 3.2 L30.9 3.0 31.95 3.2 M24.45 15.9 L23.65 16.85 24.45 15.9 M21.3 18.95 L19.85 19.7 19.6 19.8 19.85 19.7 21.3 18.95" fill="#b57637" fill-rule="evenodd" stroke="none"/>
    <path d="M9.35 14.35 Q9.9 11.95 12.0 9.4 13.9 8.55 15.2 9.6 13.95 10.05 13.0 10.85 L11.5 12.1 9.35 14.35 M32.9 1.1 Q33.1 1.9 32.95 3.15 L32.55 6.2 31.95 5.5 30.5 4.65 29.55 4.4 Q31.15 4.35 31.95 3.55 L31.95 3.2 Q32.2 2.05 32.9 1.1 M29.1 12.8 L27.15 12.55 25.4 12.8 29.25 11.05 29.1 12.8 M24.15 16.9 L23.5 19.0 22.15 20.5 22.15 19.65 Q22.25 18.85 21.9 18.25 L21.9 18.3 20.55 18.2 23.2 16.85 23.65 16.85 23.05 17.3 23.65 16.85 24.15 16.9 M13.6 18.75 L13.55 18.75 13.35 18.6 13.35 18.15 14.25 17.2 Q15.2 15.05 17.35 16.35 17.75 16.6 17.8 17.1 L18.25 18.9 17.6 19.15 Q18.15 18.5 17.6 17.6 16.65 16.2 15.75 16.4 14.15 16.8 13.6 18.75 M21.5 17.4 L20.5 18.25 20.7 17.8 21.9 16.5 22.65 15.75 Q23.0 15.4 23.55 15.15 24.2 14.85 24.4 15.4 L24.35 15.7 23.75 16.1 22.4 16.85 21.5 17.4 22.75 16.1 21.5 17.4 M31.95 5.5 L31.95 3.55 31.95 5.5" fill="#6d4723" fill-rule="evenodd" stroke="none"/>
    <path d="M8.25 16.0 Q8.6 15.1 9.35 14.35 9.9 11.95 12.0 9.4 13.9 8.55 15.2 9.6 L15.3 9.55 Q19.6 8.0 21.15 7.25 L27.0 4.45 29.25 4.35 29.55 4.4 30.5 4.65 31.95 5.5 32.55 6.2 32.95 6.7 32.95 7.7 32.95 10.6 Q31.15 12.45 29.1 12.8 L27.15 12.55 25.4 12.8 24.9 14.35 24.45 15.9 24.15 16.9 23.5 19.0 22.15 20.5 18.7 22.75 15.4 23.55 Q10.65 23.75 8.05 20.55 7.0 18.25 8.15 16.25 L8.25 16.0 M8.4 17.6 Q8.85 19.0 9.9 19.85 L10.25 20.1 Q12.5 21.45 17.1 20.55 L19.6 19.8 19.55 19.4 Q19.45 16.9 21.1 15.5 22.85 13.95 24.9 14.35 M8.15 16.25 L8.4 17.6 M26.65 7.7 L27.0 7.65 M19.4 12.2 L19.9 11.75 Q23.5 8.4 26.65 7.7 M21.5 17.4 L22.75 16.1 M23.05 17.3 L23.65 16.85 24.45 15.9 M25.4 12.8 L29.25 11.05 Q32.65 9.55 32.95 7.7 M19.6 19.8 L19.85 19.7 21.3 18.95" fill="none" stroke="#990000" stroke-linecap="round" stroke-linejoin="round" stroke-width="0.1"/>
    <path d="M29.25 4.35 L29.25 2.8 Q29.4 1.45 30.6 0.0 L32.9 1.1 Q33.1 1.9 32.95 3.15 L32.55 6.2 M32.9 1.1 Q32.2 2.05 31.95 3.2 L31.95 3.55 31.95 5.5 M30.9 3.0 L31.95 3.2" fill="none" stroke="#a6461e" stroke-linecap="round" stroke-linejoin="round" stroke-width="0.1"/>
  </g>
</svg>
