<?xml version="1.0" encoding="UTF-8" standalone="no"?>
<svg xmlns:xlink="http://www.w3.org/1999/xlink" height="51.05px" width="79.4px" xmlns="http://www.w3.org/2000/svg">
  <g transform="matrix(1.0, 0.0, 0.0, 1.0, 39.7, 25.5)">
    <path d="M17.45 -9.5 Q19.8 -11.15 20.55 -12.8 21.25 -14.45 21.2 -15.4 L20.95 -17.75 Q20.75 -19.2 18.8 -20.3 17.15 -20.55 15.5 -19.7 13.45 -18.75 11.4 -16.2 10.35 -17.25 10.3 -18.65 L11.75 -20.45 Q17.4 -26.9 22.25 -21.15 24.5 -17.35 23.7 -14.05 22.85 -10.8 19.05 -8.0 18.1 -8.55 17.45 -9.5" fill="url(#gradient0)" fill-rule="evenodd" stroke="none"/>
    <path d="M11.4 -16.2 Q13.45 -18.75 15.5 -19.7 17.15 -20.55 18.8 -20.3 20.75 -19.2 20.95 -17.75 L21.2 -15.4 Q21.25 -14.45 20.55 -12.8 19.8 -11.15 17.45 -9.5 16.65 -10.7 16.25 -12.55 L16.65 -12.7 16.85 -12.8 Q19.9 -14.3 18.6 -17.15 L18.45 -17.4 Q17.3 -18.8 15.4 -16.8 L14.0 -14.95 13.75 -14.65 Q12.35 -15.25 11.5 -16.05 L11.4 -16.2 M-2.85 -18.95 L-4.45 -18.7 Q-5.55 -21.4 -8.75 -21.3 -10.3 -19.6 -9.55 -18.25 L-11.55 -17.8 Q-11.45 -21.55 -9.55 -22.6 -7.2 -23.3 -5.65 -22.0 -3.6 -20.75 -2.85 -18.95" fill="#333333" fill-rule="evenodd" stroke="none"/>
    <path d="M17.45 -9.5 Q18.1 -8.55 19.05 -8.0 22.85 -10.8 23.7 -14.05 L35.85 -15.6 38.65 -12.9 25.75 -9.95 26.1 -8.2 26.45 -6.8 26.8 -4.45 Q22.5 0.6 9.0 3.4 8.95 -1.25 7.75 -6.0 L-2.25 -5.3 Q-3.65 -7.6 -3.75 -9.2 L1.0 -9.9 6.2 -10.85 16.65 -12.75 16.65 -12.7 16.25 -12.55 Q16.65 -10.7 17.45 -9.5 M11.75 -20.45 L10.3 -18.65 Q10.35 -17.25 11.4 -16.2 L11.5 -16.05 2.85 -14.4 Q-2.4 -18.65 -10.3 -17.75 L-8.15 -18.1 -4.45 -18.7 -2.85 -18.95 -0.3 -19.4 7.25 -20.65 11.75 -20.45 M24.55 9.15 Q22.85 16.2 13.45 21.8 L12.0 22.05 Q10.05 20.25 1.05 20.3 L1.35 20.0 Q3.2 18.3 4.35 16.2 L18.55 13.45 5.1 15.3 Q6.5 13.45 7.5 10.7 L24.55 9.15" fill="url(#gradient1)" fill-rule="evenodd" stroke="none"/>
    <path d="M11.5 -16.05 Q12.35 -15.25 13.75 -14.65 L14.0 -14.95 Q16.5 -15.2 16.65 -12.75 L6.2 -10.85 Q4.65 -12.95 2.85 -14.4 L11.5 -16.05 M9.0 3.4 Q22.5 0.6 26.8 -4.45 27.05 -0.9 25.9 2.85 L25.4 4.25 Q24.85 5.75 33.95 5.9 L31.3 8.7 24.55 9.15 8.25 9.75 Q9.0 6.75 9.0 3.4 M12.0 22.05 L-8.5 25.05 Q-2.5 23.3 1.05 20.3 10.05 20.25 12.0 22.05" fill="url(#gradient2)" fill-rule="evenodd" stroke="none"/>
    <path d="M14.0 -14.95 L15.4 -16.8 Q17.3 -18.8 18.45 -17.4 L18.6 -17.15 Q19.9 -14.3 16.85 -12.8 L16.65 -12.7 16.65 -12.75 Q16.5 -15.2 14.0 -14.95 M-9.55 -18.25 Q-10.3 -19.6 -8.75 -21.3 -5.55 -21.4 -4.45 -18.7 L-8.15 -18.1 -9.55 -18.25" fill="#000000" fill-rule="evenodd" stroke="none"/>
    <path d="M6.2 -10.85 L1.0 -9.9 0.25 -10.75 2.85 -14.4 0.25 -10.75 -0.8 -11.75 Q-3.85 -14.4 -7.75 -14.55 -10.5 -14.75 -13.7 -13.65 L-14.3 -16.35 -14.45 -17.05 -12.4 -17.45 -10.3 -17.75 Q-2.4 -18.65 2.85 -14.4 4.65 -12.95 6.2 -10.85 M4.05 -2.6 L7.2 -5.5 7.75 -6.0 Q8.4 -0.4 8.15 3.25 L4.65 2.7 8.15 3.25 Q7.85 7.85 6.2 9.3 L4.65 8.55 4.05 8.3 Q4.65 5.45 4.65 2.7 4.65 0.0 4.05 -2.6 M-8.5 25.05 Q-12.65 24.7 -15.8 23.2 -21.2 20.65 -23.65 14.7 L-19.45 14.0 Q-18.1 17.55 -14.25 19.2 L-15.8 23.2 -14.25 19.2 Q-12.4 20.0 -9.95 20.35 -5.45 19.25 -2.3 17.1 L-1.4 16.45 0.7 14.4 Q2.5 12.3 3.5 9.6 L5.65 10.7 Q5.7 12.95 4.75 15.2 L2.8 14.7 4.35 16.2 Q3.2 18.3 1.35 20.0 L1.05 20.3 Q-2.5 23.3 -8.5 25.05 M-39.2 11.7 L-25.35 7.7 -25.65 5.05 -23.0 5.05 -21.8 8.45 -22.05 8.55 -22.15 8.55 -36.95 12.3 Q-38.7 12.4 -39.2 11.7 M-37.0 -4.0 L-24.05 -5.55 Q-23.15 -8.65 -21.75 -10.95 -19.75 -14.35 -16.65 -16.0 L-14.6 -12.95 Q-16.8 -11.35 -18.4 -9.1 -20.0 -6.9 -21.05 -4.1 L-35.5 -3.1 -35.05 -2.45 -37.0 -4.0 M-21.05 -4.1 L-24.05 -5.55 -21.05 -4.1 M-21.75 -10.95 Q-18.75 -11.95 -18.4 -9.1 -18.75 -11.95 -21.75 -10.95 M-4.65 -8.6 L-3.1 -5.0 Q-3.4 -3.65 -4.25 -3.35 L-4.65 -4.45 -5.55 -6.8 -4.85 -8.15 -4.65 -8.6 M-1.4 16.45 Q-1.65 18.9 1.35 20.0 -1.65 18.9 -1.4 16.45" fill="url(#gradient3)" fill-rule="evenodd" stroke="none"/>
    <path d="M-3.75 -9.2 Q-3.65 -7.6 -2.25 -5.3 L7.75 -6.0 7.2 -5.5 -1.45 -4.45 Q-3.05 -4.3 -3.1 -2.6 L-4.25 -3.35 Q-3.4 -3.65 -3.1 -5.0 L-4.65 -8.6 Q-4.6 -9.15 -3.75 -9.2" fill="url(#gradient4)" fill-rule="evenodd" stroke="none"/>
    <path d="M26.45 -6.8 L26.1 -8.2 39.05 -11.35 38.5 -10.25 26.45 -6.8 M7.2 -5.5 L4.05 -2.6 -1.1 -2.6 -3.1 -2.6 Q-3.05 -4.3 -1.45 -4.45 L7.2 -5.5 M-14.3 -16.35 L-13.7 -13.65 Q-10.5 -14.75 -7.75 -14.55 L-14.6 -12.95 -16.65 -16.0 -14.3 -16.35 M-27.1 5.05 L-28.6 5.05 -29.5 3.6 -27.1 5.05 M8.25 9.75 L24.55 9.15 7.5 10.7 Q6.45 11.25 5.65 10.7 L3.5 9.6 Q4.95 9.35 4.65 8.55 L6.2 9.3 8.25 9.75 M5.1 15.3 L18.55 13.45 4.35 16.2 2.8 14.7 4.75 15.2 5.1 15.3 M-14.25 19.2 L-2.3 17.1 Q-5.45 19.25 -9.95 20.35 -12.4 20.0 -14.25 19.2 M-29.55 3.25 L-31.15 2.1 -29.75 2.2 -29.55 3.25" fill="#9e814b" fill-rule="evenodd" stroke="none"/>
    <path d="M1.0 -9.9 L-3.75 -9.2 Q-4.6 -9.15 -4.65 -8.6 L-4.85 -8.15 Q-13.5 -10.7 -8.05 -11.7 L-0.8 -11.75 0.25 -10.75 1.0 -9.9" fill="url(#gradient5)" fill-rule="evenodd" stroke="none"/>
    <path d="M26.1 -8.2 L25.75 -9.95 38.65 -12.9 Q39.5 -12.3 39.05 -11.35 L26.1 -8.2" fill="url(#gradient6)" fill-rule="evenodd" stroke="none"/>
    <path d="M-36.2 16.5 L-37.7 16.2 -39.2 12.8 -37.5 13.2 -36.2 16.5 M-35.5 1.8 L-37.0 0.2 -37.0 -4.0 -35.05 -2.45 -34.85 -1.0 -35.5 1.8" fill="#e2d8b6" fill-rule="evenodd" stroke="none"/>
    <path d="M-34.85 -1.0 L-35.05 -2.45 -35.5 -3.1 -21.05 -4.1 -21.0 -3.4 -33.95 -2.0 Q-34.5 -1.9 -34.85 -1.0" fill="url(#gradient7)" fill-rule="evenodd" stroke="none"/>
    <path d="M-3.1 -2.6 L-1.1 -2.6 Q-2.1 -1.45 -2.25 -0.45 L-2.5 0.3 0.8 0.3 0.8 4.5 -3.1 5.25 -21.8 8.5 -21.8 8.45 -23.0 5.05 -25.65 5.05 -27.1 5.05 -29.5 3.6 -29.55 3.25 -29.75 2.2 -31.15 2.1 -31.4 2.1 -35.5 1.8 -34.85 -1.0 Q-34.5 -1.9 -33.95 -2.0 L-21.0 -3.4 -21.05 -4.1 Q-20.0 -6.9 -18.4 -9.1 -13.1 -5.3 -4.65 -4.45 L-4.25 -3.35 -3.1 -2.6 M-15.7 1.7 L-2.5 0.3 -15.7 1.7" fill="url(#gradient8)" fill-rule="evenodd" stroke="none"/>
    <path d="M-2.85 -18.95 Q-3.6 -20.75 -5.65 -22.0 -7.2 -23.3 -9.55 -22.6 -11.45 -21.55 -11.55 -17.8 L-12.7 -17.55 Q-13.95 -24.85 -8.05 -25.0 -3.45 -25.25 -0.3 -19.4 L-2.85 -18.95" fill="url(#gradient9)" fill-rule="evenodd" stroke="none"/>
    <path d="M33.95 4.25 L25.4 4.25 25.9 2.85 31.95 2.95 33.95 4.25 M-28.6 5.05 L-30.65 3.65 -31.4 2.1 -31.15 2.1 -29.55 3.25 -29.5 3.6 -28.6 5.05 M-2.25 -0.45 L-1.05 -0.5 0.8 0.3 -2.5 0.3 -2.25 -0.45" fill="#dac89f" fill-rule="evenodd" stroke="none"/>
    <path d="M-7.75 -14.55 Q-3.85 -14.4 -0.8 -11.75 L-8.05 -11.7 Q-13.5 -10.7 -4.85 -8.15 L-5.55 -6.8 -4.65 -4.45 Q-13.1 -5.3 -18.4 -9.1 -16.8 -11.35 -14.6 -12.95 L-7.75 -14.55 M-23.65 14.7 L-35.75 16.6 -36.35 14.45 Q-36.55 13.0 -35.8 12.9 L-22.15 8.55 -22.05 8.55 -21.8 8.5 -3.1 5.25 Q-3.3 11.7 0.7 14.4 L-1.4 16.45 -2.3 17.1 -14.25 19.2 Q-18.1 17.55 -19.45 14.0 L-5.25 11.85 -19.45 14.0 -23.65 14.7" fill="url(#gradient10)" fill-rule="evenodd" stroke="none"/>
    <path d="M-35.75 16.6 L-36.2 16.5 -37.5 13.2 -39.2 12.8 -39.2 11.7 Q-38.7 12.4 -36.95 12.3 L-22.15 8.55 -35.8 12.9 Q-36.55 13.0 -36.35 14.45 L-35.75 16.6" fill="url(#gradient11)" fill-rule="evenodd" stroke="none"/>
    <path d="M25.4 4.25 L33.95 4.25 Q34.65 5.1 33.95 5.9 24.85 5.75 25.4 4.25" fill="url(#gradient12)" fill-rule="evenodd" stroke="none"/>
    <path d="M9.0 3.4 Q9.0 6.75 8.25 9.75 L6.2 9.3 Q7.85 7.85 8.15 3.25 L9.0 3.4" fill="url(#gradient13)" fill-rule="evenodd" stroke="none"/>
    <path d="M7.75 -6.0 Q8.95 -1.25 9.0 3.4 L8.15 3.25 Q8.4 -0.4 7.75 -6.0" fill="url(#gradient14)" fill-rule="evenodd" stroke="none"/>
    <path d="M7.5 10.7 Q6.5 13.45 5.1 15.3 L4.75 15.2 Q5.7 12.95 5.65 10.7 6.45 11.25 7.5 10.7" fill="url(#gradient15)" fill-rule="evenodd" stroke="none"/>
    <path d="M19.05 -8.0 Q22.85 -10.8 23.7 -14.05 24.5 -17.35 22.25 -21.15 17.4 -26.9 11.75 -20.45 L10.3 -18.65 M14.0 -14.95 L15.4 -16.8 Q17.3 -18.8 18.45 -17.4 L18.6 -17.15 Q19.9 -14.3 16.85 -12.8 L16.65 -12.7 16.25 -12.55 M16.65 -12.7 L16.65 -12.75 6.2 -10.85 1.0 -9.9 -3.75 -9.2 Q-4.6 -9.15 -4.65 -8.6 L-4.85 -8.15 -5.55 -6.8 -4.65 -4.45 -4.25 -3.35 -3.1 -2.6 -1.1 -2.6 4.05 -2.6 Q4.65 0.0 4.65 2.7 L8.15 3.25 9.0 3.4 Q22.5 0.6 26.8 -4.45 L26.45 -6.8 26.1 -8.2 25.75 -9.95 M38.65 -12.9 L35.85 -15.6 23.7 -14.05 M16.65 -12.75 Q16.5 -15.2 14.0 -14.95 M0.25 -10.75 L2.85 -14.4 11.5 -16.05 M-10.3 -17.75 L-12.4 -17.45 -14.45 -17.05 -14.3 -16.35 -16.65 -16.0 Q-19.75 -14.35 -21.75 -10.95 -23.15 -8.65 -24.05 -5.55 L-21.05 -4.1 M-0.3 -19.4 L7.25 -20.65 11.75 -20.45 M39.05 -11.35 L38.5 -10.25 26.45 -6.8 M39.05 -11.35 Q39.5 -12.3 38.65 -12.9 M33.95 4.25 L31.95 2.95 25.9 2.85 25.4 4.25 M33.95 5.9 Q34.65 5.1 33.95 4.25 M33.95 5.9 L31.3 8.7 24.55 9.15 Q22.85 16.2 13.45 21.8 L12.0 22.05 -8.5 25.05 Q-12.65 24.7 -15.8 23.2 -21.2 20.65 -23.65 14.7 L-35.75 16.6 -36.2 16.5 -37.7 16.2 -39.2 12.8 -39.2 11.7 -25.35 7.7 -25.65 5.05 -27.1 5.05 -28.6 5.05 -30.65 3.65 -31.4 2.1 -35.5 1.8 -37.0 0.2 -37.0 -4.0 -24.05 -5.55 M8.25 9.75 L24.55 9.15 M1.05 20.3 Q10.05 20.25 12.0 22.05 M6.2 9.3 L8.25 9.75 M0.8 0.3 L0.8 4.5 -3.1 5.25 Q-3.3 11.7 0.7 14.4 2.5 12.3 3.5 9.6 4.95 9.35 4.65 8.55 L4.05 8.3 Q4.65 5.45 4.65 2.7 M6.2 9.3 L4.65 8.55 M26.8 -4.45 Q27.05 -0.9 25.9 2.85 M-18.4 -9.1 Q-18.75 -11.95 -21.75 -10.95 M-4.45 -18.7 L-2.85 -18.95 -0.3 -19.4 Q-3.45 -25.25 -8.05 -25.0 -13.95 -24.85 -12.7 -17.55 L-11.55 -17.8 -9.55 -18.25 Q-10.3 -19.6 -8.75 -21.3 -5.55 -21.4 -4.45 -18.7 L-8.15 -18.1 -9.55 -18.25 M-1.1 -2.6 Q-2.1 -1.45 -2.25 -0.45 L-1.05 -0.5 0.8 0.3 -2.5 0.3 -15.7 1.7 M-4.85 -8.15 Q-13.5 -10.7 -8.05 -11.7 L-0.8 -11.75 M-18.4 -9.1 Q-13.1 -5.3 -4.65 -4.45 M-14.25 19.2 L-2.3 17.1 M-19.45 14.0 L-5.25 11.85 M-14.25 19.2 L-15.8 23.2 M-31.15 2.1 L-31.4 2.1 M-23.0 5.05 L-25.65 5.05 M-21.8 8.5 L-3.1 5.25 M-22.05 8.55 L-22.15 8.55 M-19.45 14.0 L-23.65 14.7 M-2.25 -0.45 L-2.5 0.3 M1.35 20.0 Q-1.65 18.9 -1.4 16.45" fill="none" stroke="#000000" stroke-linecap="round" stroke-linejoin="round" stroke-opacity="0.4" stroke-width="0.5"/>
    <path d="M-3.75 -9.2 Q-3.65 -7.6 -2.25 -5.3 L7.75 -6.0 Q8.95 -1.25 9.0 3.4 9.0 6.75 8.25 9.75 M0.25 -10.75 L1.0 -9.9 M-14.3 -16.35 L-13.7 -13.65 Q-10.5 -14.75 -7.75 -14.55 -3.85 -14.4 -0.8 -11.75 L0.25 -10.75 M7.5 10.7 Q6.5 13.45 5.1 15.3 M4.35 16.2 Q3.2 18.3 1.35 20.0 M4.75 15.2 L2.8 14.7 4.35 16.2 M-34.85 -1.0 Q-34.5 -1.9 -33.95 -2.0 L-21.0 -3.4 -21.05 -4.1 Q-20.0 -6.9 -18.4 -9.1 -16.8 -11.35 -14.6 -12.95 L-16.65 -16.0 M-19.45 14.0 Q-18.1 17.55 -14.25 19.2 -12.4 20.0 -9.95 20.35 -5.45 19.25 -2.3 17.1 L-1.4 16.45 0.7 14.4 M-29.5 3.6 L-27.1 5.05 M-29.5 3.6 L-29.55 3.25 -31.15 2.1 -29.75 2.2 -29.55 3.25 M-21.8 8.45 L-23.0 5.05 M-22.15 8.55 L-35.8 12.9 Q-36.55 13.0 -36.35 14.45 L-35.75 16.6 M-35.5 1.8 L-34.85 -1.0 M-8.5 25.05 Q-2.5 23.3 1.05 20.3" fill="none" stroke="#f0eada" stroke-linecap="round" stroke-linejoin="round" stroke-opacity="0.4" stroke-width="1.0"/>
    <path d="M11.75 -20.45 Q17.4 -26.9 22.25 -21.15 24.5 -17.35 23.7 -14.05 L35.85 -15.6 38.65 -12.9 Q39.5 -12.3 39.05 -11.35 L38.5 -10.25 26.45 -6.8 26.8 -4.45 Q27.05 -0.9 25.9 2.85 L31.95 2.95 33.95 4.25 Q34.65 5.1 33.95 5.9 L31.3 8.7 24.55 9.15 Q22.85 16.2 13.45 21.8 L-8.5 25.05 Q-12.65 24.7 -15.8 23.2 -21.2 20.65 -23.65 14.7 L-35.75 16.6 -37.7 16.2 -39.2 12.8 -39.2 11.7 -25.35 7.7 -25.65 5.05 -28.6 5.05 -30.65 3.65 -31.4 2.1 -35.5 1.8 -37.0 0.2 -37.0 -4.0 -24.05 -5.55 Q-23.15 -8.65 -21.75 -10.95 -19.75 -14.35 -16.65 -16.0 L-14.3 -16.35 -14.45 -17.05 -12.75 -17.4 -12.8 -17.95 -12.8 -18.15 Q-13.7 -24.9 -8.05 -25.0 -3.45 -25.25 -0.3 -19.4 L7.25 -20.65 11.75 -20.45 M0.8 4.5 L-3.1 5.25 Q-3.3 11.7 0.7 14.4 2.5 12.3 3.5 9.6 4.95 9.35 4.65 8.55 L4.05 8.3 Q4.65 5.45 4.65 2.7 4.65 0.0 4.05 -2.6 L-1.1 -2.6 Q-2.1 -1.45 -2.25 -0.45 L-1.05 -0.5 0.8 0.3 0.8 4.5 Z" fill="none" stroke="#000000" stroke-linecap="round" stroke-linejoin="round" stroke-opacity="0.4" stroke-width="1.0"/>
  </g>
  <defs>
    <linearGradient gradientTransform="matrix(0.0044, 0.0077, -0.0063, 0.0037, 18.3, -16.0)" gradientUnits="userSpaceOnUse" id="gradient0" spreadMethod="pad" x1="-819.2" x2="819.2">
      <stop offset="0.0" stop-color="#666666"/>
      <stop offset="1.0" stop-color="#333333"/>
    </linearGradient>
    <linearGradient gradientTransform="matrix(0.0096, 0.0209, -0.0267, 0.0122, 16.8, -3.0)" gradientUnits="userSpaceOnUse" id="gradient1" spreadMethod="pad" x1="-819.2" x2="819.2">
      <stop offset="0.0" stop-color="#e7dcc2"/>
      <stop offset="1.0" stop-color="#be9f5a"/>
    </linearGradient>
    <linearGradient gradientTransform="matrix(0.0021, -0.0279, 0.0249, 0.0019, 13.95, -1.0)" gradientUnits="userSpaceOnUse" id="gradient2" spreadMethod="pad" x1="-819.2" x2="819.2">
      <stop offset="0.0" stop-color="#a58741"/>
      <stop offset="1.0" stop-color="#e2d5b6"/>
    </linearGradient>
    <linearGradient gradientTransform="matrix(-0.0084, -0.0197, 0.0287, -0.0122, -15.0, 4.5)" gradientUnits="userSpaceOnUse" id="gradient3" spreadMethod="pad" x1="-819.2" x2="819.2">
      <stop offset="0.0" stop-color="#e2d7b4"/>
      <stop offset="1.0" stop-color="#f3ede0"/>
    </linearGradient>
    <linearGradient gradientTransform="matrix(0.0076, 0.0, 0.0, 0.004, 1.55, -5.9)" gradientUnits="userSpaceOnUse" id="gradient4" spreadMethod="pad" x1="-819.2" x2="819.2">
      <stop offset="0.0" stop-color="#f3ede0"/>
      <stop offset="1.0" stop-color="#f3efe1"/>
    </linearGradient>
    <linearGradient gradientTransform="matrix(-0.0018, -0.0198, 0.024, -0.0022, -17.95, -0.7)" gradientUnits="userSpaceOnUse" id="gradient5" spreadMethod="pad" x1="-819.2" x2="819.2">
      <stop offset="0.0" stop-color="#ab8b43"/>
      <stop offset="1.0" stop-color="#886633"/>
    </linearGradient>
    <linearGradient gradientTransform="matrix(0.0082, 0.0, 0.0, 0.0029, 32.45, -10.55)" gradientUnits="userSpaceOnUse" id="gradient6" spreadMethod="pad" x1="-819.2" x2="819.2">
      <stop offset="0.0" stop-color="#f3ede0"/>
      <stop offset="1.0" stop-color="#f3efe1"/>
    </linearGradient>
    <linearGradient gradientTransform="matrix(0.0089, 0.0, 0.0, 0.0019, -28.25, -2.55)" gradientUnits="userSpaceOnUse" id="gradient7" spreadMethod="pad" x1="-819.2" x2="819.2">
      <stop offset="0.0" stop-color="#f3ede0"/>
      <stop offset="1.0" stop-color="#f3efe1"/>
    </linearGradient>
    <linearGradient gradientTransform="matrix(-0.0047, -0.0083, 0.0171, -0.0098, -17.5, 0.8)" gradientUnits="userSpaceOnUse" id="gradient8" spreadMethod="pad" x1="-819.2" x2="819.2">
      <stop offset="0.0" stop-color="#ab8b43"/>
      <stop offset="1.0" stop-color="#886633"/>
    </linearGradient>
    <linearGradient gradientTransform="matrix(0.0041, 0.0041, -0.0046, 0.0046, -7.55, -20.05)" gradientUnits="userSpaceOnUse" id="gradient9" spreadMethod="pad" x1="-819.2" x2="819.2">
      <stop offset="0.0" stop-color="#666666"/>
      <stop offset="1.0" stop-color="#333333"/>
    </linearGradient>
    <linearGradient gradientTransform="matrix(-0.0018, -0.0198, 0.024, -0.0022, -17.95, -0.7)" gradientUnits="userSpaceOnUse" id="gradient10" spreadMethod="pad" x1="-819.2" x2="819.2">
      <stop offset="0.0" stop-color="#a58741"/>
      <stop offset="1.0" stop-color="#7a6330"/>
    </linearGradient>
    <linearGradient gradientTransform="matrix(0.0104, 0.0, 0.0, 0.0049, -30.7, 12.55)" gradientUnits="userSpaceOnUse" id="gradient11" spreadMethod="pad" x1="-819.2" x2="819.2">
      <stop offset="0.0" stop-color="#f3ede0"/>
      <stop offset="1.0" stop-color="#f3efe1"/>
    </linearGradient>
    <linearGradient gradientTransform="matrix(0.0055, 0.0, 0.0, 0.001, 29.8, 5.05)" gradientUnits="userSpaceOnUse" id="gradient12" spreadMethod="pad" x1="-819.2" x2="819.2">
      <stop offset="0.0" stop-color="#f3ede0"/>
      <stop offset="1.0" stop-color="#f3efe1"/>
    </linearGradient>
    <linearGradient gradientTransform="matrix(0.0017, 0.0, 0.0, 0.004, 7.6, 6.5)" gradientUnits="userSpaceOnUse" id="gradient13" spreadMethod="pad" x1="-819.2" x2="819.2">
      <stop offset="0.0" stop-color="#f3ede0"/>
      <stop offset="1.0" stop-color="#f3efe1"/>
    </linearGradient>
    <linearGradient gradientTransform="matrix(8.0E-4, 0.0, 0.0, 0.0057, 8.35, -1.3)" gradientUnits="userSpaceOnUse" id="gradient14" spreadMethod="pad" x1="-819.2" x2="819.2">
      <stop offset="0.0" stop-color="#f3ede0"/>
      <stop offset="1.0" stop-color="#f3efe1"/>
    </linearGradient>
    <linearGradient gradientTransform="matrix(0.0017, 0.0, 0.0, 0.0028, 6.1, 13.0)" gradientUnits="userSpaceOnUse" id="gradient15" spreadMethod="pad" x1="-819.2" x2="819.2">
      <stop offset="0.0" stop-color="#f3ede0"/>
      <stop offset="1.0" stop-color="#f3efe1"/>
    </linearGradient>
  </defs>
</svg>
