<?xml version="1.0" encoding="UTF-8" standalone="no"?>
<svg xmlns:xlink="http://www.w3.org/1999/xlink" height="52.75px" width="89.3px" xmlns="http://www.w3.org/2000/svg">
  <g transform="matrix(1.0, 0.0, 0.0, 1.0, 44.65, 26.4)">
    <path d="M13.65 -11.5 L9.75 -11.9 8.5 -11.75 Q8.0 -11.85 6.1 -10.3 4.2 -8.8 5.1 -4.25 L4.65 -4.75 2.9 -6.4 Q2.95 -9.3 4.8 -11.3 6.65 -13.4 9.35 -13.4 11.85 -13.4 13.65 -11.5 M12.3 -4.5 L10.95 -6.7 9.65 -7.15 Q8.45 -7.2 8.15 -5.95 6.6 -7.65 8.95 -8.5 11.25 -8.95 12.05 -7.75 12.65 -6.75 12.35 -4.7 L12.3 -4.5 M5.25 1.25 L5.25 1.3 5.2 1.3 5.25 1.25 M6.0 3.05 L6.0 3.1 5.95 3.1 6.0 3.05 M-20.7 17.45 Q-23.5 15.7 -24.95 16.7 L-25.55 18.45 Q-26.15 17.75 -26.15 16.75 L-26.05 16.05 -25.4 14.95 Q-24.7 14.2 -23.9 14.4 -23.15 14.6 -22.35 15.25 L-21.4 16.35 -20.85 17.2 -20.7 17.45" fill="#ffcc00" fill-rule="evenodd" stroke="none"/>
    <path d="M5.1 -4.25 Q4.2 -8.8 6.1 -10.3 8.0 -11.85 8.5 -11.75 L9.75 -11.9 13.65 -11.5 13.85 -11.3 Q15.7 -9.25 15.75 -6.3 15.7 -4.35 14.9 -2.8 L13.85 -1.25 Q13.0 -0.3 12.0 0.2 L11.15 1.0 Q9.8 2.6 9.35 5.7 8.1 1.55 9.95 -1.2 12.45 -1.6 13.8 -4.2 L14.05 -5.1 14.05 -5.3 Q13.3 -7.6 12.05 -7.75 11.25 -8.95 8.95 -8.5 6.6 -7.65 8.15 -5.95 8.45 -7.2 9.65 -7.15 L10.95 -6.7 12.3 -4.5 Q11.0 -1.5 6.4 -3.15 L5.1 -4.25" fill="url(#gradient0)" fill-rule="evenodd" stroke="none"/>
    <path d="M13.65 -11.5 Q11.85 -13.4 9.35 -13.4 6.65 -13.4 4.8 -11.3 2.95 -9.3 2.9 -6.4 -1.3 -10.0 -6.8 -9.95 -13.55 -10.0 -18.35 -4.75 L-18.55 -4.5 Q-22.45 -5.55 -25.85 -7.05 L-25.85 -10.2 Q-30.65 -11.6 -33.75 -14.0 L-35.8 -13.25 Q-39.7 -17.15 -26.4 -20.3 3.5 -26.25 31.3 -16.1 44.6 -9.65 36.65 -6.65 L32.45 -5.7 29.65 -7.5 Q24.9 -5.6 18.1 -5.4 L17.5 -3.1 15.25 -2.85 14.9 -2.8 Q15.7 -4.35 15.75 -6.3 15.7 -9.25 13.85 -11.3 L13.65 -11.5" fill="url(#gradient1)" fill-rule="evenodd" stroke="none"/>
    <path d="M2.9 -6.4 L4.65 -4.75 5.1 -4.25 6.4 -3.15 Q11.0 -1.5 12.3 -4.5 L12.35 -4.7 Q12.65 -6.75 12.05 -7.75 13.3 -7.6 14.05 -5.3 L14.05 -5.1 13.8 -4.2 Q12.45 -1.6 9.95 -1.2 8.1 1.55 9.35 5.7 L9.35 5.95 9.45 8.05 Q9.45 12.5 7.75 16.15 5.3 17.7 5.6 14.3 L5.7 14.15 6.3 12.3 6.4 12.3 Q6.8 12.3 7.05 11.55 L7.35 9.7 7.05 7.85 6.8 7.3 Q6.7 5.1 6.0 3.1 L6.0 3.05 6.25 2.35 5.95 1.6 5.3 1.3 5.25 1.25 Q4.3 -0.7 2.75 -2.35 -1.25 -6.7 -6.95 -6.7 -12.65 -6.7 -16.7 -2.35 -20.7 2.0 -20.7 8.15 -20.7 11.45 -19.55 14.25 L-19.6 14.8 Q-19.95 16.8 -22.25 13.8 L-22.8 12.25 Q-25.9 11.4 -27.7 14.4 -29.2 16.85 -29.25 20.1 -30.35 18.55 -30.35 16.5 L-30.05 14.5 -30.05 14.45 -30.0 14.25 Q-29.6 13.1 -28.7 12.1 -27.25 10.55 -25.25 10.35 L-25.1 10.35 Q-23.85 10.15 -23.05 7.8 -23.0 2.65 -20.7 -1.45 L-18.55 -4.5 -18.35 -4.75 Q-13.55 -10.0 -6.8 -9.95 -1.3 -10.0 2.9 -6.4" fill="url(#gradient2)" fill-rule="evenodd" stroke="none"/>
    <path d="M11.15 1.0 L12.0 0.2 Q13.0 -0.3 13.85 -1.25 L14.9 -2.8 15.25 -2.85 Q16.0 -1.05 14.65 0.75 L11.15 1.0 M18.25 -3.2 L18.45 -3.25 Q20.65 -2.75 21.9 -0.2 L20.4 0.0 Q20.2 -1.8 18.25 -3.2 M-30.5 -5.45 Q-29.15 -6.8 -27.0 -7.65 L-26.5 -7.4 Q-28.65 -6.5 -29.55 -4.95 L-30.5 -5.45" fill="#3141ac" fill-rule="evenodd" stroke="none"/>
    <path d="M18.25 -3.2 L17.5 -3.1 18.1 -5.4 22.9 -1.35 23.05 4.3 21.9 3.3 21.9 -0.2 Q20.65 -2.75 18.45 -3.25 L18.25 -3.2" fill="url(#gradient3)" fill-rule="evenodd" stroke="none"/>
    <path d="M17.5 -3.1 L18.25 -3.2 Q20.2 -1.8 20.4 0.0 L20.3 0.05 14.85 0.7 14.65 0.75 Q16.0 -1.05 15.25 -2.85 L17.5 -3.1 M34.55 -3.45 L34.4 -4.45 32.45 -5.7 36.65 -6.65 Q44.6 -9.65 31.3 -16.1 3.5 -26.25 -26.4 -20.3 -39.7 -17.15 -35.8 -13.25 L-39.65 -11.9 -39.65 -10.65 -42.3 -13.4 Q-43.05 -12.5 -43.2 -6.35 L-43.4 -9.5 Q-44.05 -12.95 -42.7 -14.95 -37.35 -22.2 -22.9 -24.4 -2.85 -27.9 16.55 -24.4 37.05 -20.2 42.15 -12.85 45.65 -8.2 43.7 -1.75 42.8 1.75 43.25 7.1 L43.2 9.0 Q41.05 3.85 42.8 -1.7 43.65 -4.5 43.1 -7.65 39.35 -5.2 34.55 -3.45 M-25.85 -7.05 Q-22.45 -5.55 -18.55 -4.5 L-20.7 -1.45 Q-25.4 -2.95 -29.35 -4.85 L-29.55 -4.95 Q-28.65 -6.5 -26.5 -7.4 L-25.85 -7.05" fill="url(#gradient4)" fill-rule="evenodd" stroke="none"/>
    <path d="M22.9 -1.35 L18.1 -5.4 Q24.9 -5.6 29.65 -7.5 L32.45 -5.7 34.4 -4.45 Q29.5 -2.15 22.9 -1.35" fill="url(#gradient5)" fill-rule="evenodd" stroke="none"/>
    <path d="M23.05 4.3 L22.9 -1.35 Q29.5 -2.15 34.4 -4.45 L34.55 -3.45 35.15 1.15 34.25 1.5 Q29.55 3.35 23.05 4.3" fill="url(#gradient6)" fill-rule="evenodd" stroke="none"/>
    <path d="M14.85 0.7 L20.3 0.05 20.8 5.05 Q21.75 8.05 23.8 9.65 L22.5 12.6 21.6 19.4 21.25 19.45 21.2 19.45 10.05 20.95 Q13.85 16.7 14.1 13.8 14.45 8.95 12.9 4.65 12.3 2.5 14.85 0.7 M34.55 -3.45 Q39.35 -5.2 43.1 -7.65 43.65 -4.5 42.8 -1.7 41.05 3.85 43.2 9.0 42.4 12.55 36.65 15.5 L36.4 15.5 36.4 14.8 35.1 13.95 Q35.25 10.45 31.05 9.35 L31.05 7.5 Q33.9 6.4 34.25 3.15 L34.25 1.5 35.15 1.15 34.55 -3.45 M-43.2 -6.35 Q-43.05 -12.5 -42.3 -13.4 L-39.65 -10.65 -39.65 -8.1 -38.4 -7.0 -38.55 -5.35 Q-38.65 -1.7 -36.4 0.75 L-36.4 2.3 Q-38.45 2.8 -38.8 5.4 L-39.75 6.25 -39.75 9.05 Q-44.05 5.6 -44.4 1.75 -43.35 -1.9 -43.25 -5.4 L-43.2 -6.35 M-30.0 14.25 L-30.15 8.15 -31.45 3.9 Q-30.25 3.75 -29.4 1.3 -28.7 -2.25 -29.35 -4.85 -25.4 -2.95 -20.7 -1.45 -23.0 2.65 -23.05 7.8 -23.85 10.15 -25.1 10.35 L-25.25 10.35 Q-27.25 10.55 -28.7 12.1 -29.6 13.1 -30.0 14.25" fill="url(#gradient7)" fill-rule="evenodd" stroke="none"/>
    <path d="M21.9 3.3 L23.05 4.3 Q29.55 3.35 34.25 1.5 L34.25 3.15 22.95 5.65 Q22.35 4.65 21.9 3.3 M31.05 7.5 L31.05 9.35 27.65 10.2 27.65 8.2 31.05 7.5 M-38.4 -7.0 Q-35.35 -4.3 -31.75 -2.45 L-30.5 -2.95 Q-30.4 -1.6 -30.7 -0.6 L-38.55 -5.35 -38.4 -7.0 M-33.9 2.35 L-33.9 3.8 -36.4 2.3 -36.4 0.75 -33.9 2.35" fill="#a09f01" fill-rule="evenodd" stroke="none"/>
    <path d="M34.25 3.15 Q33.9 6.4 31.05 7.5 L27.65 8.2 Q24.65 8.45 22.95 5.65 L34.25 3.15 M31.05 9.35 Q35.25 10.45 35.1 13.95 29.95 16.5 23.3 17.35 22.85 12.5 27.65 10.2 L31.05 9.35 M-38.55 -5.35 L-30.7 -0.6 Q-31.35 1.7 -33.9 2.35 L-36.4 0.75 Q-38.65 -1.7 -38.55 -5.35 M-33.9 3.8 Q-31.45 6.35 -31.5 10.05 -35.7 8.3 -38.8 5.4 -38.45 2.8 -36.4 2.3 L-33.9 3.8" fill="#cccc00" fill-rule="evenodd" stroke="none"/>
    <path d="M21.9 -0.2 L21.9 3.3 Q22.35 4.65 22.95 5.65 24.65 8.45 27.65 8.2 L27.65 10.2 Q22.85 12.5 23.3 17.35 L23.3 19.05 21.6 19.4 22.5 12.6 23.8 9.65 Q21.75 8.05 20.8 5.05 L20.3 0.05 20.4 0.0 21.9 -0.2" fill="url(#gradient8)" fill-rule="evenodd" stroke="none"/>
    <path d="M21.6 19.4 L23.3 19.05 23.3 17.35 24.2 18.0 24.2 18.05 24.15 21.4 21.25 19.45 21.6 19.4" fill="url(#gradient9)" fill-rule="evenodd" stroke="none"/>
    <path d="M35.1 13.95 L36.4 14.8 Q31.2 17.5 24.3 18.05 L24.2 18.0 23.3 17.35 Q29.95 16.5 35.1 13.95 M-38.8 5.4 Q-35.7 8.3 -31.5 10.05 L-32.45 10.75 Q-37.2 8.75 -39.75 6.25 L-38.8 5.4" fill="#ffff00" fill-rule="evenodd" stroke="none"/>
    <path d="M36.4 14.8 L36.4 15.5 36.4 15.6 36.4 18.05 Q31.05 20.8 24.15 21.4 L24.2 18.05 24.3 18.05 Q31.2 17.5 36.4 14.8" fill="url(#gradient10)" fill-rule="evenodd" stroke="none"/>
    <path d="M36.4 15.5 L36.65 15.5 36.4 15.6 36.4 15.5" fill="#00ff00" fill-rule="evenodd" stroke="none"/>
    <path d="M9.35 5.7 Q9.8 2.6 11.15 1.0 L14.65 0.75 14.85 0.7 Q12.3 2.5 12.9 4.65 14.45 8.95 14.1 13.8 13.85 16.7 10.05 20.95 L4.25 21.2 4.65 20.75 Q6.55 18.6 7.75 16.15 9.45 12.5 9.45 8.05 L9.35 5.95 9.35 5.7" fill="url(#gradient11)" fill-rule="evenodd" stroke="none"/>
    <path d="M6.0 3.1 Q6.7 5.1 6.8 7.3 L6.4 7.1 Q6.0 7.1 5.7 7.85 5.45 8.6 5.45 9.7 5.45 10.8 5.7 11.55 5.95 12.2 6.3 12.3 L5.7 14.15 5.6 14.3 Q1.85 22.45 -6.3 23.55 -14.95 23.6 -19.6 14.8 L-19.55 14.25 Q-20.7 11.45 -20.7 8.15 -20.7 2.0 -16.7 -2.35 -12.65 -6.7 -6.95 -6.7 -1.25 -6.7 2.75 -2.35 4.3 -0.7 5.25 1.25 L5.2 1.3 Q4.75 1.3 4.45 1.6 4.15 1.9 4.15 2.35 4.15 2.8 4.45 3.1 4.75 3.4 5.2 3.4 L5.95 3.1 6.0 3.1 M2.45 4.1 Q1.9 2.65 0.95 1.35 L0.0 0.15 -1.6 -1.35 -2.8 -2.15 Q-4.85 -3.3 -7.35 -3.4 L-7.75 -3.4 -10.95 -2.9 Q-12.15 -2.55 -13.2 -1.85 L-15.35 0.0 -15.55 0.15 -17.2 2.5 Q-18.6 5.05 -18.75 8.2 L-18.75 8.8 Q-18.75 11.3 -17.95 13.4 -17.15 15.6 -15.55 17.4 L-14.6 18.35 -12.65 19.75 Q-11.1 20.65 -9.3 20.9 L-7.75 21.0 -5.55 20.8 -3.65 20.15 Q-1.65 19.25 0.0 17.4 L1.2 15.9 Q2.95 13.25 3.2 10.0 L3.25 8.8 Q3.25 6.25 2.45 4.1" fill="url(#gradient12)" fill-rule="evenodd" stroke="none"/>
    <path d="M5.25 1.3 L5.3 1.3 5.95 1.6 6.25 2.35 6.0 3.05 5.95 3.1 5.2 3.4 Q4.75 3.4 4.45 3.1 4.15 2.8 4.15 2.35 4.15 1.9 4.45 1.6 4.75 1.3 5.2 1.3 L5.25 1.3 M6.8 7.3 L7.05 7.85 7.35 9.7 7.05 11.55 Q6.8 12.3 6.4 12.3 L6.3 12.3 Q5.95 12.2 5.7 11.55 5.45 10.8 5.45 9.7 5.45 8.6 5.7 7.85 6.0 7.1 6.4 7.1 L6.8 7.3" fill="#ffffff" fill-rule="evenodd" stroke="none"/>
    <path d="M5.25 1.25 L5.3 1.3 5.25 1.3 5.25 1.25" fill="url(#gradient13)" fill-rule="evenodd" stroke="none"/>
    <path d="M6.0 3.1 L5.95 3.1 6.0 3.1" fill="#ff9900" fill-rule="evenodd" stroke="none"/>
    <path d="M2.45 4.1 Q3.25 6.25 3.25 8.8 L3.2 10.0 Q2.95 13.25 1.2 15.9 L0.0 17.4 Q-1.65 19.25 -3.65 20.15 L-5.55 20.8 -7.75 21.0 -9.3 20.9 Q-11.1 20.65 -12.65 19.75 L-14.6 18.35 -15.55 17.4 Q-17.15 15.6 -17.95 13.4 -18.75 11.3 -18.75 8.8 L-18.75 8.2 Q-18.6 5.05 -17.2 2.5 L-15.55 0.15 -15.35 0.0 -13.2 -1.85 Q-12.15 -2.55 -10.95 -2.9 L-7.75 -3.4 -7.35 -3.4 Q-4.85 -3.3 -2.8 -2.15 L-1.6 -1.35 0.0 0.15 0.95 1.35 Q1.9 2.65 2.45 4.1 L-6.2 8.05 2.45 4.1 M-5.95 9.2 L-5.95 9.1 Q-5.95 8.55 -6.2 8.05 L-6.7 7.35 -7.15 7.0 -4.6 3.15 -7.15 7.0 -6.6 2.45 -4.6 3.15 -3.25 3.6 -4.2 2.6 -7.65 -1.0 -8.6 -2.0 -11.6 1.85 -12.95 3.6 -11.1 3.0 -9.85 2.6 -9.4 6.85 -11.1 3.0 -9.4 6.85 -10.15 7.35 -10.25 7.5 -10.8 8.8 -10.85 9.1 -11.05 9.7 -13.35 10.5 -13.85 8.6 -14.05 7.95 -14.3 8.55 -16.05 12.55 -16.6 13.7 -12.45 15.1 -10.3 15.8 -11.7 13.95 -12.25 13.15 -9.8 11.1 Q-9.25 11.5 -8.6 11.55 L-8.4 11.55 -7.45 11.35 -6.7 10.8 -6.3 10.4 -5.95 9.2 3.2 10.0 -5.95 9.2 M-7.35 -3.4 L-7.65 -1.0 -7.35 -3.4 M-17.95 13.4 L-16.05 12.55 -17.95 13.4 M-14.6 18.35 L-12.45 15.1 -14.6 18.35 M-17.2 2.5 L-10.25 7.5 -17.2 2.5 M-14.3 8.55 L-18.75 8.2 -14.3 8.55 M-13.85 8.6 L-10.8 8.8 -13.85 8.6 M-13.2 -1.85 L-11.6 1.85 -13.2 -1.85 M-11.7 13.95 L-9.8 11.1 -11.7 13.95 M-9.3 20.9 L-8.6 11.55 -9.3 20.9 M-3.65 20.15 L-7.45 11.35 -3.65 20.15 M1.2 15.9 L-6.3 10.4 1.2 15.9 M-1.6 -1.35 L-4.2 2.6 -1.6 -1.35" fill="url(#gradient14)" fill-rule="evenodd" stroke="none"/>
    <path d="M4.25 21.2 Q-0.4 26.05 -6.8 26.1 -13.55 26.05 -18.35 20.75 L-19.55 19.3 -20.65 20.85 Q-22.3 22.7 -24.65 22.7 -27.0 22.7 -28.7 20.85 L-29.25 20.1 Q-29.2 16.85 -27.7 14.4 -25.9 11.4 -22.8 12.25 L-22.25 13.8 Q-19.95 16.8 -19.6 14.8 -14.95 23.6 -6.3 23.55 1.85 22.45 5.6 14.3 5.3 17.7 7.75 16.15 6.55 18.6 4.65 20.75 L4.25 21.2 M-25.55 18.45 L-24.95 16.7 Q-23.5 15.7 -20.7 17.45 L-20.85 17.2 -21.4 16.35 -22.35 15.25 Q-23.15 14.6 -23.9 14.4 -24.7 14.2 -25.4 14.95 L-26.05 16.05 -26.15 16.75 Q-26.15 17.75 -25.55 18.45 L-25.45 18.6 -24.4 19.25 Q-24.05 19.15 -23.25 18.45 -24.05 19.15 -24.4 19.25 L-25.45 18.6 -25.55 18.45 M-19.55 19.3 L-20.45 17.9 -20.7 17.45 -20.45 17.9 -19.55 19.3" fill="url(#gradient15)" fill-rule="evenodd" stroke="none"/>
    <path d="M-39.65 -11.9 L-35.8 -13.25 -33.75 -14.0 Q-30.65 -11.6 -25.85 -10.2 L-31.75 -6.7 Q-35.4 -8.25 -39.65 -11.9" fill="url(#gradient16)" fill-rule="evenodd" stroke="none"/>
    <path d="M-39.65 -10.65 L-39.65 -11.9 Q-35.4 -8.25 -31.75 -6.7 L-31.75 -2.45 Q-35.35 -4.3 -38.4 -7.0 L-39.65 -8.1 -39.65 -10.65" fill="url(#gradient17)" fill-rule="evenodd" stroke="none"/>
    <path d="M-30.7 -0.6 Q-30.4 -1.6 -30.5 -2.95 L-30.5 -5.45 -29.55 -4.95 -29.35 -4.85 Q-28.7 -2.25 -29.4 1.3 -30.25 3.75 -31.45 3.9 L-30.15 8.15 -30.0 14.25 -30.05 14.45 -31.2 13.95 -31.5 10.05 Q-31.45 6.35 -33.9 3.8 L-33.9 2.35 Q-31.35 1.7 -30.7 -0.6" fill="url(#gradient18)" fill-rule="evenodd" stroke="none"/>
    <path d="M-25.85 -10.2 L-25.85 -7.05 -26.5 -7.4 -27.0 -7.65 Q-29.15 -6.8 -30.5 -5.45 L-30.5 -2.95 -31.75 -2.45 -31.75 -6.7 -25.85 -10.2" fill="url(#gradient19)" fill-rule="evenodd" stroke="none"/>
    <path d="M-6.2 8.05 Q-5.95 8.55 -5.95 9.1 L-5.95 9.2 -6.3 10.4 -6.7 10.8 -7.45 11.35 -8.4 11.55 -8.6 11.55 Q-9.25 11.5 -9.8 11.1 L-12.25 13.15 -11.7 13.95 -10.3 15.8 -12.45 15.1 -16.6 13.7 -16.05 12.55 -14.3 8.55 -14.05 7.95 -13.85 8.6 -13.35 10.5 -11.05 9.7 -10.85 9.1 -10.8 8.8 -10.25 7.5 -10.15 7.35 -9.4 6.85 -9.85 2.6 -11.1 3.0 -12.95 3.6 -11.6 1.85 -8.6 -2.0 -7.65 -1.0 -4.2 2.6 -3.25 3.6 -4.6 3.15 -6.6 2.45 -7.15 7.0 -6.7 7.35 -6.2 8.05 M-7.75 8.95 L-7.95 8.3 Q-8.15 8.05 -8.45 8.05 L-8.95 8.3 -9.15 8.95 -9.15 9.0 -8.95 9.55 Q-8.75 9.85 -8.45 9.85 L-7.95 9.55 -7.75 9.0 -7.75 8.95" fill="#000000" fill-rule="evenodd" stroke="none"/>
    <path d="M-32.45 15.65 Q-37.15 14.05 -39.75 11.3 L-39.75 9.05 -39.75 6.25 Q-37.2 8.75 -32.45 10.75 L-32.45 15.65" fill="url(#gradient20)" fill-rule="evenodd" stroke="none"/>
    <path d="M-30.05 14.5 L-32.45 15.65 -32.45 10.75 -31.5 10.05 -31.2 13.95 -30.05 14.45 -30.05 14.5" fill="url(#gradient21)" fill-rule="evenodd" stroke="none"/>
    <path d="M-7.75 8.95 L-7.75 9.0 -7.95 9.55 -8.45 9.85 Q-8.75 9.85 -8.95 9.55 L-9.15 9.0 -9.15 8.95 -8.95 8.4 Q-8.75 8.15 -8.45 8.2 -8.15 8.15 -7.95 8.4 L-7.75 8.95" fill="#666666" fill-rule="evenodd" stroke="none"/>
    <path d="M13.65 -11.5 Q11.85 -13.4 9.35 -13.4 6.65 -13.4 4.8 -11.3 2.95 -9.3 2.9 -6.4 L4.65 -4.75 5.1 -4.25 6.4 -3.15 Q11.0 -1.5 12.3 -4.5 L12.35 -4.7 Q12.65 -6.75 12.05 -7.75 11.25 -8.95 8.95 -8.5 6.6 -7.65 8.15 -5.95 M9.35 5.7 Q9.8 2.6 11.15 1.0 L12.0 0.2 Q13.0 -0.3 13.85 -1.25 L14.9 -2.8 Q15.7 -4.35 15.75 -6.3 15.7 -9.25 13.85 -11.3 L13.65 -11.5 M17.5 -3.1 L18.25 -3.2 18.45 -3.25 Q20.65 -2.75 21.9 -0.2 L21.9 3.3 23.05 4.3 Q29.55 3.35 34.25 1.5 L34.25 3.15 Q33.9 6.4 31.05 7.5 L31.05 9.35 Q35.25 10.45 35.1 13.95 L36.4 14.8 36.4 15.5 36.4 15.6 36.4 18.05 Q31.05 20.8 24.15 21.4 L21.25 19.45 21.2 19.45 10.05 20.95 4.25 21.2 Q-0.4 26.05 -6.8 26.1 -13.55 26.05 -18.35 20.75 L-19.55 19.3 -20.65 20.85 Q-22.3 22.7 -24.65 22.7 -27.0 22.7 -28.7 20.85 L-29.25 20.1 Q-30.35 18.55 -30.35 16.5 L-30.05 14.5 -32.45 15.65 Q-37.15 14.05 -39.75 11.3 L-39.75 9.05 Q-44.05 5.6 -44.4 1.75 -43.35 -1.9 -43.25 -5.4 L-43.2 -6.35 -43.4 -9.5 Q-44.05 -12.95 -42.7 -14.95 -37.35 -22.2 -22.9 -24.4 -2.85 -27.9 16.55 -24.4 37.05 -20.2 42.15 -12.85 45.65 -8.2 43.7 -1.75 42.8 1.75 43.25 7.1 L43.2 9.0 Q42.4 12.55 36.65 15.5 L36.4 15.6 M18.1 -5.4 L17.5 -3.1 15.25 -2.85 14.9 -2.8 M14.65 0.75 L14.85 0.7 M20.3 0.05 L20.4 0.0 M34.4 -4.45 L34.55 -3.45 35.15 1.15 34.25 1.5 M-39.65 -10.65 L-39.65 -11.9 -35.8 -13.25 -33.75 -14.0 Q-30.65 -11.6 -25.85 -10.2 L-25.85 -7.05 Q-22.45 -5.55 -18.55 -4.5 L-18.35 -4.75 Q-13.55 -10.0 -6.8 -9.95 -1.3 -10.0 2.9 -6.4 M32.45 -5.7 L34.4 -4.45 M18.1 -5.4 Q24.9 -5.6 29.65 -7.5 L32.45 -5.7 M22.95 5.65 Q24.65 8.45 27.65 8.2 L31.05 7.5 M21.6 19.4 L23.3 19.05 23.3 17.35 Q22.85 12.5 27.65 10.2 L27.65 8.2 M22.95 5.65 Q22.35 4.65 21.9 3.3 M23.3 17.35 Q29.95 16.5 35.1 13.95 M21.6 19.4 L21.25 19.45 M27.65 10.2 L31.05 9.35 M7.75 16.15 Q9.45 12.5 9.45 8.05 L9.35 5.95 9.35 5.7 M2.45 4.1 Q3.25 6.25 3.25 8.8 L3.2 10.0 Q2.95 13.25 1.2 15.9 L0.0 17.4 Q-1.65 19.25 -3.65 20.15 L-5.55 20.8 -7.75 21.0 -9.3 20.9 Q-11.1 20.65 -12.65 19.75 L-14.6 18.35 -15.55 17.4 Q-17.15 15.6 -17.95 13.4 -18.75 11.3 -18.75 8.8 L-18.75 8.2 Q-18.6 5.05 -17.2 2.5 L-15.55 0.15 -15.35 0.0 -13.2 -1.85 Q-12.15 -2.55 -10.95 -2.9 L-7.75 -3.4 -7.35 -3.4 Q-4.85 -3.3 -2.8 -2.15 L-1.6 -1.35 0.0 0.15 0.95 1.35 Q1.9 2.65 2.45 4.1 L-6.2 8.05 M-5.95 9.2 L3.2 10.0 M7.75 16.15 Q6.55 18.6 4.65 20.75 L4.25 21.2 M-39.65 -10.65 L-39.65 -8.1 -38.4 -7.0 Q-35.35 -4.3 -31.75 -2.45 L-30.5 -2.95 -30.5 -5.45 Q-29.15 -6.8 -27.0 -7.65 L-26.5 -7.4 -25.85 -7.05 M-30.7 -0.6 Q-30.4 -1.6 -30.5 -2.95 M-38.55 -5.35 L-38.4 -7.0 M-30.7 -0.6 Q-31.35 1.7 -33.9 2.35 L-33.9 3.8 Q-31.45 6.35 -31.5 10.05 L-31.2 13.95 -30.05 14.45 -30.0 14.25 Q-29.6 13.1 -28.7 12.1 -27.25 10.55 -25.25 10.35 L-25.1 10.35 Q-23.85 10.15 -23.05 7.8 -23.0 2.65 -20.7 -1.45 L-18.55 -4.5 M-29.35 -4.85 L-29.55 -4.95 -30.5 -5.45 M-7.65 -1.0 L-7.35 -3.4 M-4.6 3.15 L-7.15 7.0 M-11.1 3.0 L-9.4 6.85 M-11.6 1.85 L-13.2 -1.85 M-10.8 8.8 L-13.85 8.6 M-18.75 8.2 L-14.3 8.55 M-10.25 7.5 L-17.2 2.5 M-12.45 15.1 L-14.6 18.35 M-16.05 12.55 L-17.95 13.4 M-7.45 11.35 L-3.65 20.15 M-8.6 11.55 L-9.3 20.9 M-9.8 11.1 L-11.7 13.95 M-36.4 0.75 L-36.4 2.3 -33.9 3.8 M-36.4 2.3 Q-38.45 2.8 -38.8 5.4 -35.7 8.3 -31.5 10.05 M-39.75 6.25 L-39.75 9.05 M-38.8 5.4 L-39.75 6.25 M-33.9 2.35 L-36.4 0.75 Q-38.65 -1.7 -38.55 -5.35 M-20.7 17.45 L-20.85 17.2 -21.4 16.35 -22.35 15.25 Q-23.15 14.6 -23.9 14.4 -24.7 14.2 -25.4 14.95 L-26.05 16.05 -26.15 16.75 Q-26.15 17.75 -25.55 18.45 L-25.45 18.6 -24.4 19.25 Q-24.05 19.15 -23.25 18.45 M-20.7 17.45 L-20.45 17.9 -19.55 19.3 M-30.05 14.5 L-30.05 14.45 M-4.2 2.6 L-1.6 -1.35 M-6.3 10.4 L1.2 15.9" fill="none" stroke="#000000" stroke-linecap="round" stroke-linejoin="round" stroke-opacity="0.4" stroke-width="0.5"/>
    <path d="M-35.8 -13.25 Q-39.7 -17.15 -26.4 -20.3 3.5 -26.25 31.3 -16.1 44.6 -9.65 36.65 -6.65 L32.45 -5.7" fill="none" stroke="#33ffff" stroke-linecap="round" stroke-linejoin="round" stroke-opacity="0.2" stroke-width="1.0"/>
    <path d="M14.85 0.7 L20.3 0.05 M34.55 -3.45 Q39.35 -5.2 43.1 -7.65 43.65 -4.5 42.8 -1.7 41.05 3.85 43.2 9.0 M-43.2 -6.35 Q-43.05 -12.5 -42.3 -13.4 L-39.65 -10.65 M11.15 1.0 L14.65 0.75 M20.4 0.0 L21.9 -0.2 M-29.35 -4.85 Q-25.4 -2.95 -20.7 -1.45" fill="none" stroke="#33ffff" stroke-linecap="round" stroke-linejoin="round" stroke-opacity="0.2" stroke-width="0.5"/>
    <path d="M5.95 3.1 L6.0 3.1" fill="none" stroke="#ffffff" stroke-linecap="round" stroke-linejoin="round" stroke-opacity="0.49803922" stroke-width="1.0"/>
    <path d="M-19.6 14.8 Q-14.95 23.6 -6.3 23.55 1.85 22.45 5.6 14.3" fill="none" stroke="#ffff00" stroke-linecap="round" stroke-linejoin="round" stroke-opacity="0.49803922" stroke-width="1.0"/>
    <path d="M-6.2 8.05 Q-5.95 8.55 -5.95 9.1 L-5.95 9.2 -6.3 10.4 -6.7 10.8 -7.45 11.35 -8.4 11.55 -8.6 11.55 Q-9.25 11.5 -9.8 11.1 L-12.25 13.15 -11.7 13.95 -10.3 15.8 -12.45 15.1 -16.6 13.7 -16.05 12.55 -14.3 8.55 -14.05 7.95 -13.85 8.6 -13.35 10.5 -11.05 9.7 -10.85 9.1 -10.8 8.8 -10.25 7.5 -10.15 7.35 -9.4 6.85 -9.85 2.6 -11.1 3.0 -12.95 3.6 -11.6 1.85 -8.6 -2.0 -7.65 -1.0 -4.2 2.6 -3.25 3.6 -4.6 3.15 -6.6 2.45 -7.15 7.0 -6.7 7.35 -6.2 8.05" fill="none" stroke="#999999" stroke-linecap="round" stroke-linejoin="round" stroke-opacity="0.49803922" stroke-width="1.0"/>
    <path d="M-7.75 8.95 L-7.75 9.0 -7.95 9.55 -8.45 9.85 Q-8.75 9.85 -8.95 9.55 L-9.15 9.0 -9.15 8.95 -8.95 8.4 Q-8.75 8.15 -8.45 8.2 -8.15 8.15 -7.95 8.4 L-7.75 8.95 Z" fill="none" stroke="#999999" stroke-linecap="round" stroke-linejoin="round" stroke-opacity="0.49803922" stroke-width="0.5"/>
  </g>
  <defs>
    <linearGradient gradientTransform="matrix(0.0, 0.0042, -0.0066, 0.0, 10.35, -7.65)" gradientUnits="userSpaceOnUse" id="gradient0" spreadMethod="pad" x1="-819.2" x2="819.2">
      <stop offset="0.0" stop-color="#ffa827"/>
      <stop offset="1.0" stop-color="#875101"/>
    </linearGradient>
    <linearGradient gradientTransform="matrix(-0.0013, 0.0089, -0.0462, -0.0065, 1.65, -13.4)" gradientUnits="userSpaceOnUse" id="gradient1" spreadMethod="pad" x1="-819.2" x2="819.2">
      <stop offset="0.0" stop-color="#273489"/>
      <stop offset="0.9882352941176471" stop-color="#161f3f"/>
    </linearGradient>
    <linearGradient gradientTransform="matrix(0.0121, 0.0121, -0.0212, 0.0212, -8.1, 6.5)" gradientUnits="userSpaceOnUse" id="gradient2" spreadMethod="pad" x1="-819.2" x2="819.2">
      <stop offset="0.0" stop-color="#ffe922"/>
      <stop offset="1.0" stop-color="#c69e02"/>
    </linearGradient>
    <linearGradient gradientTransform="matrix(0.0012, 0.0012, -0.0017, 0.0017, 19.2, -2.2)" gradientUnits="userSpaceOnUse" id="gradient3" spreadMethod="pad" x1="-819.2" x2="819.2">
      <stop offset="0.0" stop-color="#ffa827"/>
      <stop offset="1.0" stop-color="#875101"/>
    </linearGradient>
    <linearGradient gradientTransform="matrix(-0.0348, -0.0108, 0.0064, -0.0207, 8.35, -8.9)" gradientUnits="userSpaceOnUse" id="gradient4" spreadMethod="pad" x1="-819.2" x2="819.2">
      <stop offset="0.0" stop-color="#7380d7"/>
      <stop offset="0.9882352941176471" stop-color="#dee3f5"/>
    </linearGradient>
    <linearGradient gradientTransform="matrix(0.0052, -0.0014, 9.0E-4, 0.0033, 28.5, -5.3)" gradientUnits="userSpaceOnUse" id="gradient5" spreadMethod="pad" x1="-819.2" x2="819.2">
      <stop offset="0.0" stop-color="#ffff00"/>
      <stop offset="0.9882352941176471" stop-color="#fdfdac"/>
    </linearGradient>
    <linearGradient gradientTransform="matrix(0.0067, -0.0028, 0.0017, 0.004, 31.45, -1.15)" gradientUnits="userSpaceOnUse" id="gradient6" spreadMethod="pad" x1="-819.2" x2="819.2">
      <stop offset="0.0" stop-color="#ffcc00"/>
      <stop offset="1.0" stop-color="#fdfdac"/>
    </linearGradient>
    <linearGradient gradientTransform="matrix(-0.0374, -0.0053, 0.0028, -0.0199, 4.25, 3.5)" gradientUnits="userSpaceOnUse" id="gradient7" spreadMethod="pad" x1="-819.2" x2="819.2">
      <stop offset="0.0" stop-color="#3141ac"/>
      <stop offset="0.9882352941176471" stop-color="#5a73cf"/>
    </linearGradient>
    <linearGradient gradientTransform="matrix(0.0045, 0.0, 0.0, 0.012, 23.95, 9.6)" gradientUnits="userSpaceOnUse" id="gradient8" spreadMethod="pad" x1="-819.2" x2="819.2">
      <stop offset="0.0" stop-color="#1d275e"/>
      <stop offset="0.9882352941176471" stop-color="#273489"/>
    </linearGradient>
    <linearGradient gradientTransform="matrix(1.0E-4, -5.0E-4, 0.002, 5.0E-4, 22.9, 19.55)" gradientUnits="userSpaceOnUse" id="gradient9" spreadMethod="pad" x1="-819.2" x2="819.2">
      <stop offset="0.0" stop-color="#ffa827"/>
      <stop offset="1.0" stop-color="#875101"/>
    </linearGradient>
    <linearGradient gradientTransform="matrix(0.0058, -0.0016, 6.0E-4, 0.0023, 31.65, 18.0)" gradientUnits="userSpaceOnUse" id="gradient10" spreadMethod="pad" x1="-819.2" x2="819.2">
      <stop offset="0.0" stop-color="#ffcc00"/>
      <stop offset="1.0" stop-color="#fdfdac"/>
    </linearGradient>
    <linearGradient gradientTransform="matrix(0.0065, 0.0, 0.0, 0.0125, 9.55, 10.95)" gradientUnits="userSpaceOnUse" id="gradient11" spreadMethod="pad" x1="-819.2" x2="819.2">
      <stop offset="0.0" stop-color="#1d275e"/>
      <stop offset="0.9882352941176471" stop-color="#273489"/>
    </linearGradient>
    <linearGradient gradientTransform="matrix(-0.0019, -0.0134, 0.0167, -0.0024, -6.6, 10.6)" gradientUnits="userSpaceOnUse" id="gradient12" spreadMethod="pad" x1="-819.2" x2="819.2">
      <stop offset="0.0" stop-color="#ffa827"/>
      <stop offset="1.0" stop-color="#875101"/>
    </linearGradient>
    <linearGradient gradientTransform="matrix(-0.0112, -0.0112, 0.0212, -0.0212, -6.3, 8.3)" gradientUnits="userSpaceOnUse" id="gradient13" spreadMethod="pad" x1="-819.2" x2="819.2">
      <stop offset="0.0" stop-color="#ffcc00"/>
      <stop offset="1.0" stop-color="#feedab"/>
    </linearGradient>
    <radialGradient cx="0" cy="0" gradientTransform="matrix(0.0204, 0.0, 0.0, 0.0204, -4.7, 5.85)" gradientUnits="userSpaceOnUse" id="gradient14" r="819.2" spreadMethod="pad">
      <stop offset="0.0" stop-color="#ebe7be"/>
      <stop offset="1.0" stop-color="#756c24"/>
    </radialGradient>
    <linearGradient gradientTransform="matrix(0.0, 0.0039, -0.0226, 0.0, -10.75, 16.85)" gradientUnits="userSpaceOnUse" id="gradient15" spreadMethod="pad" x1="-819.2" x2="819.2">
      <stop offset="0.0" stop-color="#ffa827"/>
      <stop offset="1.0" stop-color="#875101"/>
    </linearGradient>
    <linearGradient gradientTransform="matrix(-0.0032, -0.0018, 0.0019, -0.0033, -32.75, -10.6)" gradientUnits="userSpaceOnUse" id="gradient16" spreadMethod="pad" x1="-819.2" x2="819.2">
      <stop offset="0.0" stop-color="#ffff00"/>
      <stop offset="0.9882352941176471" stop-color="#fdfdac"/>
    </linearGradient>
    <linearGradient gradientTransform="matrix(-0.0041, -0.0023, 0.0013, -0.0023, -36.45, -7.55)" gradientUnits="userSpaceOnUse" id="gradient17" spreadMethod="pad" x1="-819.2" x2="819.2">
      <stop offset="0.0" stop-color="#ffcc00"/>
      <stop offset="1.0" stop-color="#fdfdac"/>
    </linearGradient>
    <linearGradient gradientTransform="matrix(0.003, 0.0, 0.0, 0.0121, -31.5, 4.5)" gradientUnits="userSpaceOnUse" id="gradient18" spreadMethod="pad" x1="-819.2" x2="819.2">
      <stop offset="0.0" stop-color="#1d275e"/>
      <stop offset="0.9882352941176471" stop-color="#273489"/>
    </linearGradient>
    <linearGradient gradientTransform="matrix(-0.0011, 7.0E-4, -0.0012, -0.002, -27.4, -7.0)" gradientUnits="userSpaceOnUse" id="gradient19" spreadMethod="pad" x1="-819.2" x2="819.2">
      <stop offset="0.0" stop-color="#ffa827"/>
      <stop offset="1.0" stop-color="#875101"/>
    </linearGradient>
    <linearGradient gradientTransform="matrix(-0.0034, -0.002, 0.0015, -0.0026, -36.75, 10.8)" gradientUnits="userSpaceOnUse" id="gradient20" spreadMethod="pad" x1="-819.2" x2="819.2">
      <stop offset="0.0" stop-color="#ffcc00"/>
      <stop offset="1.0" stop-color="#fdfdac"/>
    </linearGradient>
    <linearGradient gradientTransform="matrix(-3.0E-4, -0.0013, 0.0015, -4.0E-4, -31.7, 13.4)" gradientUnits="userSpaceOnUse" id="gradient21" spreadMethod="pad" x1="-819.2" x2="819.2">
      <stop offset="0.0" stop-color="#ffa827"/>
      <stop offset="1.0" stop-color="#875101"/>
    </linearGradient>
  </defs>
</svg>
