<?xml version="1.0" encoding="UTF-8" standalone="no"?>
<svg xmlns:xlink="http://www.w3.org/1999/xlink" height="150.65px" width="232.1px" xmlns="http://www.w3.org/2000/svg">
  <g transform="matrix(1.0, 0.0, 0.0, 1.0, 0.5, 0.5)">
    <path d="M1.1 53.95 Q0.0 50.0 0.0 45.8 0.0 26.85 22.05 13.4 44.15 0.0 75.35 0.0 106.55 0.0 128.65 13.4 135.1 17.35 137.05 21.15 L137.7 22.8 Q139.05 28.1 131.7 33.15 111.45 22.9 84.25 22.9 53.0 22.9 30.95 36.3 9.5 49.35 8.9 67.65 5.35 63.75 3.25 59.5 L1.1 53.95 M90.45 56.5 L90.35 56.3 90.45 56.5" fill="#555555" fill-rule="evenodd" stroke="none"/>
    <path d="M137.7 22.8 Q148.35 28.9 146.15 44.55 L146.45 45.35 Q149.15 53.85 129.15 61.75 119.6 65.5 112.3 69.75 L114.3 66.35 111.8 61.85 Q108.85 56.7 107.0 49.95 106.25 47.15 105.25 45.85 111.85 42.15 120.25 38.85 127.45 36.0 131.7 33.15 139.05 28.1 137.7 22.8 M95.1 84.2 Q92.8 87.3 91.4 90.55 84.1 107.3 68.6 110.9 53.0 114.5 30.95 101.05 14.0 90.75 10.05 77.15 1.5 70.15 3.25 59.5 5.35 63.75 8.9 67.65 14.0 73.3 22.05 78.15 44.15 91.6 59.7 88.0 75.25 84.4 82.5 67.65 84.95 62.0 90.0 56.95 L89.75 60.35 89.75 64.5 Q89.75 69.25 90.55 71.2 91.2 72.85 93.05 73.8 L94.65 74.55 95.1 84.2" fill="#1e1e1e" fill-rule="evenodd" stroke="none"/>
    <path d="M112.3 69.75 Q108.7 75.8 106.4 78.85 107.9 84.15 110.3 87.8 114.25 93.8 121.45 96.65 129.1 99.7 141.4 99.7 151.4 99.7 158.5 94.55 162.8 91.45 169.15 83.2 175.5 74.9 189.05 71.3 202.55 67.75 211.6 67.65 220.6 67.55 226.6 74.25 232.5 80.95 230.7 88.75 228.85 96.55 198.2 149.65 182.25 138.3 185.35 125.75 188.45 113.2 206.6 98.3 224.75 83.35 207.5 82.7 190.2 82.05 184.35 83.25 178.5 84.4 166.25 99.65 154.05 114.9 149.75 118.05 142.65 123.2 132.65 123.2 120.35 123.2 112.7 120.15 105.5 117.3 101.55 111.25 98.0 105.9 96.45 96.85 95.6 92.1 95.1 84.2 L94.65 74.55 93.05 73.8 Q91.2 72.85 90.55 71.2 89.75 69.25 89.75 64.5 L89.75 60.35 90.0 56.95 90.45 56.5 90.35 56.3 90.3 54.95 90.2 53.75 90.05 51.8 Q90.05 49.45 92.4 47.3 95.65 44.3 101.6 44.3 103.7 44.3 104.75 45.25 L105.25 45.85 Q106.25 47.15 107.0 49.95 108.85 56.7 111.8 61.85 L114.3 66.35 112.3 69.75 M90.65 54.95 L90.3 54.95 90.65 54.95 M106.4 78.85 Q105.0 80.75 104.05 81.4 L100.65 78.1 97.5 75.9 94.65 74.55 97.5 75.9 100.65 78.1 104.05 81.4 Q105.0 80.75 106.4 78.85" fill="#000000" fill-rule="evenodd" stroke="none"/>
    <path d="M1.1 53.95 Q0.0 50.0 0.0 45.8 0.0 26.85 22.05 13.4 44.15 0.0 75.35 0.0 106.55 0.0 128.65 13.4 135.1 17.35 137.05 21.15 L137.7 22.8 Q148.35 28.9 146.15 44.55 L146.45 45.35 Q149.15 53.85 129.15 61.75 119.6 65.5 112.3 69.75 108.7 75.8 106.4 78.85 107.9 84.15 110.3 87.8 114.25 93.8 121.45 96.65 129.1 99.7 141.4 99.7 151.4 99.7 158.5 94.55 162.8 91.45 169.15 83.2 175.5 74.9 189.05 71.3 202.55 67.75 211.6 67.65 220.6 67.55 226.6 74.25 232.5 80.95 230.7 88.75 228.85 96.55 198.2 149.65 182.25 138.3 185.35 125.75 188.45 113.2 206.6 98.3 224.75 83.35 207.5 82.7 190.2 82.05 184.35 83.25 178.5 84.4 166.25 99.65 154.05 114.9 149.75 118.05 142.65 123.2 132.65 123.2 120.35 123.2 112.7 120.15 105.5 117.3 101.55 111.25 98.0 105.9 96.45 96.85 95.6 92.1 95.1 84.2 92.8 87.3 91.4 90.55 84.1 107.3 68.6 110.9 53.0 114.5 30.95 101.05 14.0 90.75 10.05 77.15 1.5 70.15 3.25 59.5 1.85 56.8 1.1 53.95 L3.25 59.5 Q5.35 63.75 8.9 67.65 9.5 49.35 30.95 36.3 53.0 22.9 84.25 22.9 111.45 22.9 131.7 33.15 139.05 28.1 137.7 22.8 M105.25 45.85 L104.75 45.25 Q103.7 44.3 101.6 44.3 95.65 44.3 92.4 47.3 90.05 49.45 90.05 51.8 L90.2 53.75 90.3 54.95 90.65 54.95 M105.25 45.85 Q106.25 47.15 107.0 49.95 108.85 56.7 111.8 61.85 L114.3 66.35 112.3 69.75 M131.7 33.15 Q127.45 36.0 120.25 38.85 111.85 42.15 105.25 45.85 M94.65 74.55 L97.5 75.9 100.65 78.1 104.05 81.4 Q105.0 80.75 106.4 78.85 M90.35 56.3 L90.3 54.95 90.05 54.65 90.05 54.95 90.0 56.95 90.45 56.5 M90.0 56.95 L89.75 60.35 89.75 64.5 Q89.75 69.25 90.55 71.2 91.2 72.85 93.05 73.8 L94.65 74.55 95.1 84.2 M90.0 56.95 Q84.95 62.0 82.5 67.65 75.25 84.4 59.7 88.0 44.15 91.6 22.05 78.15 14.0 73.3 8.9 67.65" fill="none" stroke="#333333" stroke-linecap="round" stroke-linejoin="round" stroke-opacity="0.5882353" stroke-width="1.0"/>
  </g>
</svg>
