<?xml version="1.0" encoding="UTF-8" standalone="no"?>
<svg xmlns:xlink="http://www.w3.org/1999/xlink" height="77.3px" width="95.15px" xmlns="http://www.w3.org/2000/svg">
  <g transform="matrix(1.0, 0.0, 0.0, 1.0, 47.6, 38.65)">
    <path d="M30.25 -25.4 Q33.15 -27.15 36.05 -24.95 L36.6 -23.5 Q33.2 -25.35 30.4 -23.15 L30.4 -23.55 30.25 -25.4" fill="url(#gradient0)" fill-rule="evenodd" stroke="none"/>
    <path d="M-47.1 -27.6 Q-47.7 -29.65 -46.75 -31.4 -42.95 -35.15 -28.8 -36.5 L-6.35 -38.35 Q16.6 -38.9 25.2 -32.6 29.5 -29.7 30.25 -25.4 L30.4 -23.55 30.4 -23.15 30.35 -22.6 30.05 -20.55 29.25 -17.85 Q28.35 -15.6 26.8 -14.2 L24.95 -16.6 Q28.25 -20.8 26.0 -26.85 24.8 -30.5 14.95 -33.85 -5.95 -37.55 -34.15 -33.6 L-35.7 -33.35 Q-51.4 -30.65 -33.6 -19.0 L-35.55 -18.45 -36.6 -16.9 Q-45.75 -23.05 -47.1 -27.6" fill="url(#gradient1)" fill-rule="evenodd" stroke="none"/>
    <path d="M19.85 -14.2 L19.55 -14.45 Q18.3 -15.2 16.65 -13.85 13.75 -15.5 8.7 -16.75 -2.05 -17.8 -9.6 -16.7 L-11.6 -19.6 Q-12.45 -19.4 -12.4 -16.2 -16.2 -15.4 -19.05 -13.95 -24.8 -16.25 -28.55 -19.55 L-31.65 -19.55 -33.6 -19.0 Q-51.4 -30.65 -35.7 -33.35 L-34.15 -33.6 Q-5.95 -37.55 14.95 -33.85 24.8 -30.5 26.0 -26.85 28.25 -20.8 24.95 -16.6 L23.0 -16.7 22.35 -15.25 21.95 -14.4 Q21.6 -15.25 21.05 -15.35 L20.45 -14.75 19.85 -14.2" fill="url(#gradient2)" fill-rule="evenodd" stroke="none"/>
    <path d="M36.65 5.0 L38.0 6.5 36.85 7.25 36.45 6.6 35.05 5.3 36.45 6.6 36.85 7.25 32.85 6.2 30.95 3.95 31.15 2.95 31.45 2.85 31.85 2.7 Q32.25 3.6 33.1 4.25 33.85 4.85 35.05 5.3 L35.5 5.5 36.55 5.8 36.65 5.0 M20.95 9.15 L20.9 9.7 Q20.7 11.2 20.15 11.95 19.4 11.85 18.95 10.9 19.95 8.2 19.25 4.65 20.15 2.9 19.5 -1.6 20.75 -3.9 19.8 -7.95 L19.85 -8.55 Q20.0 -11.6 17.95 -12.0 17.4 -13.3 15.95 -13.25 L16.65 -13.85 Q18.3 -15.2 19.55 -14.45 L19.85 -14.2 20.65 -13.0 20.3 -12.8 18.4 -12.7 17.95 -12.0 18.4 -12.7 20.3 -12.8 20.85 -12.3 20.95 -10.25 21.05 -8.6 21.2 -6.2 21.3 -3.1 21.3 0.25 21.3 2.2 21.1 6.7 21.0 8.3 20.95 9.15 M20.45 -14.75 L21.05 -15.35 Q21.6 -15.25 21.95 -14.4 L22.15 -13.95 22.4 -13.1 22.55 -12.2 22.7 -11.1 21.8 -12.1 22.7 -11.1 22.75 -11.0 23.45 -5.8 23.9 -2.6 Q23.25 -2.15 23.05 -1.45 L22.3 -6.0 Q22.8 -5.65 23.45 -5.8 22.8 -5.65 22.3 -6.0 L21.8 -12.1 20.45 -14.75 M22.35 -15.25 L23.0 -16.7 24.95 -16.6 Q23.6 -16.25 23.25 -14.9 23.6 -16.25 24.95 -16.6 L26.8 -14.2 27.35 -12.05 Q27.25 -10.2 26.4 -9.5 27.25 -10.2 27.35 -12.05 L28.45 -7.65 27.2 -8.0 26.5 -7.7 26.4 -9.5 Q25.25 -13.3 23.25 -14.9 L22.35 -15.25 M19.8 -7.95 Q20.75 -7.7 21.2 -6.2 20.75 -7.7 19.8 -7.95 M28.65 9.35 Q29.35 9.55 29.85 9.1 L30.15 7.75 30.95 9.25 29.75 10.75 Q27.4 11.8 25.8 8.75 22.35 6.1 22.8 4.05 23.1 3.9 23.45 4.2 L24.9 6.1 Q25.65 7.75 25.8 8.75 25.65 7.75 24.9 6.1 26.45 8.05 27.65 8.85 L28.15 9.2 28.65 9.35 M33.1 4.25 Q32.55 5.0 32.85 6.2 32.55 5.0 33.1 4.25 M19.5 -1.6 Q20.55 0.85 21.3 0.25 20.55 0.85 19.5 -1.6 M28.15 9.2 Q29.05 9.75 29.55 10.45 L29.75 10.75 29.55 10.45 Q29.05 9.75 28.15 9.2 M21.1 6.7 Q20.0 6.95 19.25 4.65 20.0 6.95 21.1 6.7" fill="#d5a54a" fill-rule="evenodd" stroke="none"/>
    <path d="M2.6 -6.1 Q3.65 -3.85 2.6 -3.15 1.1 -3.6 0.6 -5.55 L-0.35 -6.5 1.0 -7.75 2.6 -6.1" fill="url(#gradient3)" fill-rule="evenodd" stroke="none"/>
    <path d="M16.15 10.75 Q13.45 11.85 10.35 12.75 L6.75 2.95 -3.05 -2.85 -4.75 -5.6 0.6 -5.55 Q1.1 -3.6 2.6 -3.15 3.65 -3.85 2.6 -6.1 11.55 -6.95 17.55 -8.9 17.95 1.75 16.55 10.55 L16.15 10.75" fill="url(#gradient4)" fill-rule="evenodd" stroke="none"/>
    <path d="M2.6 -6.1 L1.0 -7.75 Q9.3 -8.7 14.95 -10.55 L15.85 -10.85 16.35 -11.05 17.5 -10.7 18.55 -9.3 18.55 -9.25 17.55 -8.9 Q11.55 -6.95 2.6 -6.1" fill="url(#gradient5)" fill-rule="evenodd" stroke="none"/>
    <path d="M38.0 6.5 Q38.75 7.75 37.85 8.6 L37.15 9.1 36.15 9.15 35.35 8.95 33.6 7.9 30.7 5.25 30.75 4.9 30.95 3.95 32.85 6.2 Q33.05 6.95 33.6 7.9 33.05 6.95 32.85 6.2 L36.85 7.25 Q37.25 8.1 37.15 9.1 37.25 8.1 36.85 7.25 L38.0 6.5 M22.2 10.35 Q21.25 10.7 20.95 9.15 L21.0 8.3 Q21.95 9.45 22.85 7.15 L21.95 5.05 Q21.7 4.3 22.15 3.3 L21.3 2.2 21.3 0.25 21.3 -3.1 21.2 -6.2 21.05 -8.6 20.95 -10.25 20.85 -12.3 20.3 -12.8 20.65 -13.0 19.85 -14.2 20.45 -14.75 21.8 -12.1 20.85 -12.3 21.8 -12.1 22.3 -6.0 23.05 -1.45 22.95 -1.2 22.95 -0.9 Q21.85 -0.95 21.3 -3.1 21.85 -0.95 22.95 -0.9 22.9 0.15 24.05 1.25 L24.1 1.25 23.85 2.35 23.45 4.2 Q23.1 3.9 22.8 4.05 22.35 6.1 25.8 8.75 26.0 9.85 25.45 10.05 26.0 9.85 25.8 8.75 27.4 11.8 29.75 10.75 L30.95 9.25 31.4 10.05 30.8 12.45 30.05 12.45 29.1 12.45 28.35 12.45 27.65 12.45 25.45 10.05 22.85 7.15 22.6 8.4 22.2 10.35 M20.15 11.95 Q19.55 12.7 18.5 12.6 16.5 12.25 16.15 10.75 L16.55 10.55 18.35 9.75 18.45 8.8 18.9 3.3 18.9 -3.25 19.5 -1.6 18.9 -3.25 18.65 -7.9 18.55 -9.25 18.55 -9.3 17.5 -10.7 17.8 -11.6 17.95 -12.0 17.8 -11.6 17.5 -10.7 16.35 -11.05 15.85 -10.85 14.95 -10.55 15.95 -13.25 Q17.4 -13.3 17.95 -12.0 20.0 -11.6 19.85 -8.55 L19.8 -7.95 18.65 -7.9 19.8 -7.95 Q20.75 -3.9 19.5 -1.6 20.15 2.9 19.25 4.65 L18.9 3.3 19.25 4.65 Q19.95 8.2 18.95 10.9 19.4 11.85 20.15 11.95 M21.95 -14.4 L22.35 -15.25 23.25 -14.9 23.25 -14.8 Q23.0 -13.9 23.25 -12.55 23.0 -13.9 23.25 -14.8 L23.25 -14.9 Q25.25 -13.3 26.4 -9.5 L26.5 -7.7 25.85 -7.4 25.2 -9.15 Q25.9 -9.15 26.4 -9.5 25.9 -9.15 25.2 -9.15 L24.15 -12.0 23.25 -12.55 22.4 -13.1 22.15 -13.95 21.95 -14.4 M21.05 -8.6 Q21.45 -6.55 22.3 -6.0 21.45 -6.55 21.05 -8.6 M20.65 -13.0 L20.85 -12.3 20.65 -13.0 M21.1 6.7 L21.3 2.2 22.15 3.3 Q21.7 4.3 21.95 5.05 L22.85 7.15 Q21.95 9.45 21.0 8.3 L21.1 6.7 M21.95 5.05 Q22.35 4.2 22.8 4.05 22.35 4.2 21.95 5.05 M22.15 3.3 L22.7 2.35 23.85 2.35 22.7 2.35 22.15 3.3 M30.05 12.45 Q30.2 11.55 29.75 10.75 30.2 11.55 30.05 12.45 M18.6 9.65 L18.45 8.8 18.6 9.65 18.8 10.55 18.95 10.9 18.8 10.55 18.6 9.65 18.35 9.75 18.2 10.75 18.35 9.75 18.6 9.65" fill="#996600" fill-rule="evenodd" stroke="none"/>
    <path d="M18.55 -9.25 L18.65 -7.9 18.9 -3.25 18.9 3.3 18.45 8.8 18.35 9.75 16.55 10.55 Q17.95 1.75 17.55 -8.9 L18.55 -9.25" fill="url(#gradient6)" fill-rule="evenodd" stroke="none"/>
    <path d="M36.6 -23.5 Q37.8 -20.5 40.3 -17.2 37.55 -18.5 34.7 -17.45 30.25 -16.3 30.1 -9.75 L29.6 -11.1 Q29.55 -16.5 30.05 -20.55 L30.35 -22.6 30.4 -23.15 Q33.2 -25.35 36.6 -23.5" fill="url(#gradient7)" fill-rule="evenodd" stroke="none"/>
    <path d="M40.3 -17.2 L42.1 -15.1 42.05 -15.05 Q39.2 -17.4 34.55 -15.05 31.1 -13.6 31.05 -8.8 L30.55 -8.45 30.1 -9.75 Q30.25 -16.3 34.7 -17.45 37.55 -18.5 40.3 -17.2" fill="url(#gradient8)" fill-rule="evenodd" stroke="none"/>
    <path d="M22.4 -13.1 L23.25 -12.55 24.15 -12.0 22.7 -11.1 22.55 -12.2 22.4 -13.1" fill="#dccd63" fill-rule="evenodd" stroke="none"/>
    <path d="M26.8 -14.2 Q28.35 -15.6 29.25 -17.85 L30.05 -20.55 Q29.55 -16.5 29.6 -11.1 L29.7 -7.3 28.45 -7.65 27.35 -12.05 26.8 -14.2" fill="url(#gradient9)" fill-rule="evenodd" stroke="none"/>
    <path d="M-12.4 -16.2 Q-12.45 -19.4 -11.6 -19.6 L-9.6 -16.7 Q-11.05 -18.2 -12.4 -16.2 M30.1 -9.75 L30.55 -8.45 29.85 -8.05 29.95 -7.2 29.7 -7.3 29.6 -11.1 30.1 -9.75" fill="#7b701c" fill-rule="evenodd" stroke="none"/>
    <path d="M30.55 -8.45 L31.05 -8.8 32.3 -9.55 33.95 -9.35 35.45 -9.2 37.5 -8.95 39.15 -7.45 37.25 -5.75 33.15 -5.7 33.15 -5.65 33.95 -4.7 31.85 -3.2 30.7 -3.35 30.6 -3.35 30.5 -3.75 30.15 -3.45 27.75 -3.8 29.0 -5.6 26.75 -3.95 24.55 -6.8 25.85 -7.4 26.5 -7.7 27.2 -8.0 28.45 -7.65 29.7 -7.3 29.95 -7.2 31.0 -6.9 32.45 -6.5 33.15 -5.7 32.45 -6.5 31.0 -6.9 29.85 -8.05 30.55 -8.45" fill="#f3f1de" fill-rule="evenodd" stroke="none"/>
    <path d="M25.2 -9.15 L25.85 -7.4 24.55 -6.8 24.55 -3.0 23.9 -2.6 23.45 -5.8 22.75 -11.0 22.7 -11.1 24.15 -12.0 25.2 -9.15" fill="url(#gradient10)" fill-rule="evenodd" stroke="none"/>
    <path d="M26.85 32.55 L26.75 31.7 28.5 15.25 29.1 12.45 30.05 12.45 30.8 12.45 31.4 10.05 Q32.7 11.8 34.9 12.05 L32.4 32.25 Q30.55 35.6 26.85 32.55 M17.15 34.35 L22.2 10.35 22.6 8.4 24.65 12.55 Q25.85 14.9 27.5 15.25 L23.05 36.1 Q19.65 39.5 17.15 34.35 M23.9 -2.6 L24.55 -3.0 24.55 -2.2 24.35 -1.8 Q24.15 -1.15 25.2 -0.35 26.25 0.5 27.95 0.95 L29.15 1.2 30.0 1.25 30.2 1.25 30.95 1.2 Q32.05 1.05 32.4 0.55 L32.45 0.35 32.5 0.05 32.75 -0.85 32.95 -1.4 33.85 -1.25 36.75 -1.5 36.8 -1.5 Q38.05 -1.85 38.2 -2.5 L38.2 -2.8 38.35 -3.7 39.0 -2.85 39.15 -1.95 39.15 -1.85 37.2 -0.6 Q35.4 0.1 33.25 0.0 L32.75 -0.85 33.25 0.0 33.45 0.7 33.4 1.1 32.9 2.05 35.95 2.1 35.5 5.5 35.05 5.3 Q33.85 4.85 33.1 4.25 32.25 3.6 31.85 2.7 L32.55 2.35 Q29.45 2.9 25.75 1.5 23.3 -0.15 23.05 -1.45 23.25 -2.15 23.9 -2.6 M32.55 2.35 L32.9 2.05 32.55 2.35 M29.55 4.9 L28.65 9.35 28.15 9.2 27.65 8.85 Q26.45 8.05 24.9 6.1 L23.45 4.2 23.85 2.35 Q26.4 4.65 29.55 4.9" fill="#bfdcdf" fill-rule="evenodd" stroke="none"/>
    <path d="M24.55 -6.8 L26.75 -3.95 26.75 -1.1 27.7 -3.8 27.75 -3.8 30.15 -3.45 30.6 -3.35 30.7 -3.35 31.85 -3.2 30.2 1.25 30.0 1.25 29.15 1.2 27.95 0.95 Q26.25 0.5 25.2 -0.35 24.15 -1.15 24.35 -1.8 L24.55 -2.2 24.55 -3.0 24.55 -6.8 M33.95 -4.7 L33.15 -5.65 33.15 -5.7 37.25 -5.75 36.75 -1.5 33.85 -1.25 32.95 -1.4 33.95 -4.7" fill="#e1d9a6" fill-rule="evenodd" stroke="none"/>
    <path d="M37.6 -0.1 L37.45 0.0 37.2 0.15 37.05 1.3 35.95 2.1 32.9 2.05 33.4 1.1 33.45 0.7 33.75 0.75 Q35.7 0.85 37.2 0.15 35.7 0.85 33.75 0.75 L33.45 0.7 33.25 0.0 Q35.4 0.1 37.2 -0.6 L39.15 -1.85 Q38.95 -0.8 37.6 -0.1 M22.95 -0.9 L22.95 -1.2 23.05 -1.45 Q23.3 -0.15 25.75 1.5 29.45 2.9 32.55 2.35 L31.85 2.7 31.45 2.85 31.15 2.95 29.8 3.2 27.6 3.05 Q25.4 2.55 24.1 1.25 25.4 2.55 27.6 3.05 L29.8 3.2 31.15 2.95 30.95 3.95 30.75 4.9 29.55 4.9 Q26.4 4.65 23.85 2.35 L24.1 1.25 24.05 1.25 Q22.9 0.15 22.95 -0.9 M30.15 7.75 L30.7 5.25 33.6 7.9 35.35 8.95 34.9 12.05 Q32.7 11.8 31.4 10.05 L30.95 9.25 30.15 7.75 M22.6 8.4 L22.85 7.15 25.45 10.05 27.65 12.45 28.35 12.45 27.6 14.65 27.5 15.25 Q25.85 14.9 24.65 12.55 L22.6 8.4" fill="#92c4c9" fill-rule="evenodd" stroke="none"/>
    <path d="M26.75 -3.95 L29.0 -5.6 27.75 -3.8 27.7 -3.8 26.75 -1.1 26.75 -3.95 M31.85 -3.2 L33.95 -4.7 32.95 -1.4 32.75 -0.85 32.5 0.05 32.45 0.35 32.4 0.55 Q32.05 1.05 30.95 1.2 L30.2 1.25 31.85 -3.2 M39.15 -7.45 L38.75 -5.55 38.35 -3.7 38.2 -2.8 38.2 -2.5 Q38.05 -1.85 36.8 -1.5 L36.75 -1.5 37.25 -5.75 39.15 -7.45" fill="#c5b752" fill-rule="evenodd" stroke="none"/>
    <path d="M35.45 -9.2 L33.95 -9.35 Q35.2 -13.2 38.9 -12.2 41.3 -11.45 41.75 -8.3 41.3 -5.1 38.75 -5.55 L39.15 -7.45 39.2 -8.6 Q39.85 -9.85 38.15 -10.55 36.3 -11.4 35.45 -9.2" fill="url(#gradient11)" fill-rule="evenodd" stroke="none"/>
    <path d="M39.15 -7.45 L37.5 -8.95 35.45 -9.2 Q36.3 -11.4 38.15 -10.55 39.85 -9.85 39.2 -8.6 L39.15 -7.45" fill="url(#gradient12)" fill-rule="evenodd" stroke="none"/>
    <path d="M42.5 -14.8 L42.85 -14.35 Q44.45 -12.6 44.6 -9.05 44.0 2.95 47.3 13.95 46.55 15.45 42.95 9.7 L41.9 5.95 Q43.7 1.0 43.25 -6.7 L43.85 -9.95 Q42.0 -15.75 37.25 -14.3 33.05 -13.65 32.3 -9.55 L31.05 -8.8 Q31.1 -13.6 34.55 -15.05 39.2 -17.4 42.05 -15.05 L42.5 -14.8" fill="url(#gradient13)" fill-rule="evenodd" stroke="none"/>
    <path d="M33.95 -9.35 L32.3 -9.55 Q33.05 -13.65 37.25 -14.3 42.0 -15.75 43.85 -9.95 L43.25 -6.7 Q42.1 -3.45 39.0 -2.85 L38.35 -3.7 38.75 -5.55 Q41.3 -5.1 41.75 -8.3 41.3 -11.45 38.9 -12.2 35.2 -13.2 33.95 -9.35" fill="url(#gradient14)" fill-rule="evenodd" stroke="none"/>
    <path d="M41.9 5.95 L41.3 7.9 37.6 -0.1 Q38.95 -0.8 39.15 -1.85 L39.15 -1.95 39.0 -2.85 Q42.1 -3.45 43.25 -6.7 43.7 1.0 41.9 5.95" fill="url(#gradient15)" fill-rule="evenodd" stroke="none"/>
    <path d="M37.05 1.3 L36.65 5.0 36.55 5.8 35.5 5.5 35.95 2.1 37.05 1.3 M36.15 9.15 L33.45 32.8 Q31.7 35.45 29.15 34.9 27.3 34.35 26.85 32.55 30.55 35.6 32.4 32.25 L34.9 12.05 35.35 8.95 36.15 9.15 M28.5 15.25 L23.9 36.6 Q21.85 39.1 19.25 38.1 17.1 37.05 17.15 34.35 19.65 39.5 23.05 36.1 L27.5 15.25 27.6 14.65 28.35 12.45 29.1 12.45 28.5 15.25 M30.75 4.9 L30.7 5.25 30.15 7.75 29.85 9.1 Q29.35 9.55 28.65 9.35 L29.55 4.9 30.75 4.9" fill="#ebf4f5" fill-rule="evenodd" stroke="none"/>
    <path d="M8.85 13.15 Q9.9 16.35 10.4 19.5 L10.4 21.95 Q7.8 28.35 2.85 33.75 L-0.75 33.75 Q1.65 33.2 7.3 23.55 8.45 21.85 8.1 19.8 6.5 11.1 1.9 3.95 L-11.25 -2.65 -16.05 -6.3 -14.1 -7.05 -10.15 -4.1 4.2 3.3 Q7.15 8.25 8.85 13.15" fill="url(#gradient16)" fill-rule="evenodd" stroke="none"/>
    <path d="M-0.75 33.75 L-8.55 22.2 -0.1 7.7 1.9 3.95 Q6.5 11.1 8.1 19.8 8.45 21.85 7.3 23.55 1.65 33.2 -0.75 33.75" fill="url(#gradient17)" fill-rule="evenodd" stroke="none"/>
    <path d="M10.35 12.75 L8.85 13.15 Q7.15 8.25 4.2 3.3 L-10.15 -4.1 -14.1 -7.05 -12.4 -6.65 -4.75 -5.6 -3.05 -2.85 6.75 2.95 10.35 12.75" fill="url(#gradient18)" fill-rule="evenodd" stroke="none"/>
    <path d="M-36.6 3.25 Q-42.1 0.5 -45.3 -4.55 -47.0 -6.4 -46.4 -9.1 -45.4 -17.45 -47.1 -27.6 -45.75 -23.05 -36.6 -16.9 L-36.6 3.25" fill="url(#gradient19)" fill-rule="evenodd" stroke="none"/>
    <path d="M-35.55 -18.45 L-19.95 -11.2 -21.15 -10.15 -36.6 -16.9 -35.55 -18.45" fill="#ffffff" fill-rule="evenodd" stroke="none"/>
    <path d="M-33.6 -19.0 L-31.65 -19.55 -28.55 -19.55 Q-24.8 -16.25 -19.05 -13.95 L-14.6 -12.45 -19.95 -11.2 -35.55 -18.45 -33.6 -19.0" fill="url(#gradient20)" fill-rule="evenodd" stroke="none"/>
    <path d="M-31.9 -6.35 L-31.6 -11.9 -30.55 -11.4 -30.95 -7.05 -31.9 -6.35 M-34.85 -7.75 L-33.95 -7.3 -33.75 -0.9 -33.1 -0.55 -31.5 0.3 -31.5 1.75 -31.5 5.4 -30.15 6.25 -26.85 8.25 -26.9 9.6 -32.55 5.8 -32.3 1.25 -34.85 -0.35 -34.85 -7.75 M-24.0 5.05 L-24.1 6.45 -26.7 4.7 -25.55 3.95 -24.0 5.05" fill="#cec79f" fill-rule="evenodd" stroke="none"/>
    <path d="M-35.0 8.65 L-36.6 7.05 -36.6 3.25 -36.6 -16.9 -21.15 -10.15 -22.9 15.35 -35.0 8.65 M-31.6 -11.9 L-31.9 -6.35 -33.95 -7.3 -34.85 -7.75 -34.85 -0.35 -32.3 1.25 -32.55 5.8 -26.9 9.6 -26.85 8.25 -26.7 4.7 -24.1 6.45 -24.0 5.05 -23.7 1.25 -23.4 -2.6 -24.9 -3.2 -26.45 -3.85 -26.35 -6.65 -26.25 -9.5 -30.55 -11.4 -31.6 -11.9" fill="url(#gradient21)" fill-rule="evenodd" stroke="none"/>
    <path d="M-31.9 -6.35 L-30.95 -7.05 -30.55 -11.4 -26.25 -9.5 -26.35 -6.65 -29.45 -8.25 -29.45 -4.45 -32.85 -5.45 -33.1 -0.55 -33.75 -0.9 -33.95 -7.3 -31.9 -6.35" fill="url(#gradient22)" fill-rule="evenodd" stroke="none"/>
    <path d="M-26.85 8.25 L-30.15 6.25 -30.05 3.55 -31.5 1.75 -31.5 0.3 -33.1 -0.55 -32.85 -5.45 -29.45 -4.45 -29.45 -8.25 -26.35 -6.65 -26.45 -3.85 -24.9 -3.2 -24.95 -0.65 -23.7 1.25 -24.0 5.05 -25.55 3.95 -26.7 4.7 -26.85 8.25" fill="url(#gradient23)" fill-rule="evenodd" stroke="none"/>
    <path d="M-30.15 6.25 L-31.5 5.4 -31.5 1.75 -30.05 3.55 -30.15 6.25 M-24.9 -3.2 L-23.4 -2.6 -23.7 1.25 -24.95 -0.65 -24.9 -3.2" fill="#998a22" fill-rule="evenodd" stroke="none"/>
    <path d="M-14.1 -7.05 L-16.05 -6.3 -18.5 -8.15 -16.6 -8.85 -15.65 -9.2 -12.65 -8.6 -12.4 -6.65 -14.1 -7.05 -16.6 -8.85 -14.1 -7.05" fill="#bfac2b" fill-rule="evenodd" stroke="none"/>
    <path d="M-0.35 -6.5 L0.6 -5.55 -4.75 -5.6 -12.4 -6.65 -12.65 -8.6 Q-6.8 -7.55 -1.3 -7.45 L-0.35 -6.5" fill="url(#gradient24)" fill-rule="evenodd" stroke="none"/>
    <path d="M-18.1 16.2 L-18.75 16.7 -21.85 17.35 -22.9 15.35 -21.15 -10.15 -19.95 -11.2 -14.6 -12.45 -12.65 -11.2 -12.65 -8.6 -15.65 -9.2 -16.6 -8.85 -18.5 -8.15 Q-20.4 3.5 -19.75 15.2 L-18.1 16.2 M-15.65 -9.2 L-14.7 -9.6 -15.65 -9.2 M-19.7 16.0 L-19.75 15.2 -19.7 16.0" fill="url(#gradient25)" fill-rule="evenodd" stroke="none"/>
    <path d="M-16.9 16.9 L-18.1 16.2 -19.75 15.2 Q-20.4 3.5 -18.5 -8.15 L-16.05 -6.3 Q-18.05 5.7 -16.9 16.9" fill="url(#gradient26)" fill-rule="evenodd" stroke="none"/>
    <path d="M-9.9 21.0 L-16.9 16.9 Q-18.05 5.7 -16.05 -6.3 L-11.25 -2.65 1.9 3.95 -0.1 7.7 -9.9 21.0" fill="url(#gradient27)" fill-rule="evenodd" stroke="none"/>
    <path d="M-8.55 22.2 L-9.9 21.0 -0.1 7.7 -8.55 22.2" fill="url(#gradient28)" fill-rule="evenodd" stroke="none"/>
    <path d="M-21.85 17.35 L-35.0 8.65 -22.9 15.35 -21.85 17.35" fill="url(#gradient29)" fill-rule="evenodd" stroke="none"/>
    <path d="M30.25 -25.4 Q33.15 -27.15 36.05 -24.95 L36.6 -23.5 Q37.8 -20.5 40.3 -17.2 L42.1 -15.1 42.5 -14.8 42.85 -14.35 Q44.45 -12.6 44.6 -9.05 44.0 2.95 47.3 13.95 46.55 15.45 42.95 9.7 L41.9 5.95 41.3 7.9 37.6 -0.1 37.45 0.0 37.2 0.15 37.05 1.3 36.65 5.0 38.0 6.5 Q38.75 7.75 37.85 8.6 L37.15 9.1 36.15 9.15 33.45 32.8 Q31.7 35.45 29.15 34.9 27.3 34.35 26.85 32.55 L26.75 31.7 28.5 15.25 23.9 36.6 Q21.85 39.1 19.25 38.1 17.1 37.05 17.15 34.35 L22.2 10.35 Q21.25 10.7 20.95 9.15 L20.9 9.7 Q20.7 11.2 20.15 11.95 19.55 12.7 18.5 12.6 16.5 12.25 16.15 10.75 13.45 11.85 10.35 12.75 L8.85 13.15 Q9.9 16.35 10.4 19.5 L10.4 21.95 Q7.8 28.35 2.85 33.75 L-0.75 33.75 -8.55 22.2 -9.9 21.0 -16.9 16.9 -18.1 16.2 -18.75 16.7 -21.85 17.35 -35.0 8.65 -36.6 7.05 -36.6 3.25 Q-42.1 0.5 -45.3 -4.55 -47.0 -6.4 -46.4 -9.1 -45.4 -17.45 -47.1 -27.6 -47.7 -29.65 -46.75 -31.4 -42.95 -35.15 -28.8 -36.5 L-6.35 -38.35 Q16.6 -38.9 25.2 -32.6 29.5 -29.7 30.25 -25.4 L30.4 -23.55 30.4 -23.15 30.35 -22.6 30.05 -20.55 Q29.55 -16.5 29.6 -11.1 L30.1 -9.75 30.55 -8.45 31.05 -8.8 Q31.1 -13.6 34.55 -15.05 39.2 -17.4 42.05 -15.05 L42.5 -14.8 M16.65 -13.85 Q18.3 -15.2 19.55 -14.45 L19.85 -14.2 20.45 -14.75 21.05 -15.35 Q21.6 -15.25 21.95 -14.4 L22.35 -15.25 23.0 -16.7 24.95 -16.6 Q28.25 -20.8 26.0 -26.85 24.8 -30.5 14.95 -33.85 M-35.7 -33.35 Q-51.4 -30.65 -33.6 -19.0 L-31.65 -19.55 -28.55 -19.55 Q-24.8 -16.25 -19.05 -13.95 -16.2 -15.4 -12.4 -16.2 -11.05 -18.2 -9.6 -16.7 -2.05 -17.8 8.7 -16.75 13.75 -15.5 16.65 -13.85 L15.95 -13.25 14.95 -10.55 Q9.3 -8.7 1.0 -7.75 L-0.35 -6.5 -1.3 -7.45 Q-6.8 -7.55 -12.65 -8.6 L-12.65 -11.2 -14.6 -12.45 -19.05 -13.95 M17.95 -12.0 L18.4 -12.7 20.3 -12.8 20.65 -13.0 19.85 -14.2 M17.95 -12.0 L17.8 -11.6 17.5 -10.7 18.55 -9.3 18.55 -9.25 18.65 -7.9 19.8 -7.95 Q20.75 -7.7 21.2 -6.2 L21.05 -8.6 20.95 -10.25 20.85 -12.3 20.3 -12.8 M17.5 -10.7 L16.35 -11.05 15.85 -10.85 14.95 -10.55 M19.5 -1.6 L18.9 -3.25 18.9 3.3 19.25 4.65 Q20.0 6.95 21.1 6.7 L21.3 2.2 21.3 0.25 Q20.55 0.85 19.5 -1.6 M18.65 -7.9 L18.9 -3.25 M16.55 10.55 L18.35 9.75 18.45 8.8 18.9 3.3 M21.95 -14.4 L22.15 -13.95 22.4 -13.1 23.25 -12.55 Q23.0 -13.9 23.25 -14.8 L23.25 -14.9 Q23.6 -16.25 24.95 -16.6 L26.8 -14.2 27.35 -12.05 Q27.25 -10.2 26.4 -9.5 25.9 -9.15 25.2 -9.15 L25.85 -7.4 24.55 -6.8 24.55 -3.0 24.55 -2.2 24.35 -1.8 Q24.15 -1.15 25.2 -0.35 26.25 0.5 27.95 0.95 L29.15 1.2 30.0 1.25 30.2 1.25 30.95 1.2 Q32.05 1.05 32.4 0.55 L32.45 0.35 32.5 0.05 32.75 -0.85 32.95 -1.4 33.95 -4.7 33.15 -5.65 33.15 -5.7 32.45 -6.5 31.0 -6.9 29.95 -7.2 29.7 -7.3 28.45 -7.65 27.2 -8.0 26.5 -7.7 25.85 -7.4 M29.95 -7.2 L29.85 -8.05 30.55 -8.45 M28.45 -7.65 L27.35 -12.05 M29.6 -11.1 L29.7 -7.3 M21.8 -12.1 L22.7 -11.1 22.55 -12.2 22.4 -13.1 M20.85 -12.3 L21.8 -12.1 M22.75 -11.0 L22.7 -11.1 22.75 -11.0 23.45 -5.8 23.9 -2.6 24.55 -3.0 M24.15 -12.0 L23.25 -12.55 M25.2 -9.15 L24.15 -12.0 M22.95 -0.9 L22.95 -1.2 23.05 -1.45 Q23.25 -2.15 23.9 -2.6 M22.3 -6.0 Q21.45 -6.55 21.05 -8.6 M21.3 -3.1 Q21.85 -0.95 22.95 -0.9 22.9 0.15 24.05 1.25 L24.1 1.25 Q25.4 2.55 27.6 3.05 L29.8 3.2 31.15 2.95 31.45 2.85 31.85 2.7 32.55 2.35 32.9 2.05 33.4 1.1 33.45 0.7 33.75 0.75 Q35.7 0.85 37.2 0.15 M23.45 -5.8 Q22.8 -5.65 22.3 -6.0 M21.3 0.25 L21.3 -3.1 21.2 -6.2 M39.15 -7.45 L37.5 -8.95 35.45 -9.2 33.95 -9.35 32.3 -9.55 31.05 -8.8 M39.2 -8.6 L39.15 -7.45 38.75 -5.55 38.35 -3.7 38.2 -2.8 38.2 -2.5 Q38.05 -1.85 36.8 -1.5 L36.75 -1.5 33.85 -1.25 32.95 -1.4 M33.15 -5.65 L33.15 -5.7 M32.75 -0.85 L33.25 0.0 33.45 0.7 M39.15 -1.85 L39.15 -1.95 39.0 -2.85 38.35 -3.7 M39.15 -1.85 Q38.95 -0.8 37.6 -0.1 M20.85 -12.3 L20.65 -13.0 M36.65 5.0 L36.55 5.8 35.5 5.5 35.05 5.3 36.45 6.6 36.85 7.25 Q37.25 8.1 37.15 9.1 M30.7 5.25 L30.75 4.9 30.95 3.95 31.15 2.95 M28.65 9.35 Q29.35 9.55 29.85 9.1 L30.15 7.75 30.7 5.25 33.6 7.9 Q33.05 6.95 32.85 6.2 32.55 5.0 33.1 4.25 33.85 4.85 35.05 5.3 M31.85 2.7 Q32.25 3.6 33.1 4.25 M30.95 9.25 L31.4 10.05 30.8 12.45 30.05 12.45 29.1 12.45 28.5 15.25 M35.35 8.95 L33.6 7.9 M35.35 8.95 L36.15 9.15 M24.1 1.25 L23.85 2.35 22.7 2.35 22.15 3.3 21.3 2.2 M21.0 8.3 Q21.95 9.45 22.85 7.15 L21.95 5.05 Q21.7 4.3 22.15 3.3 M22.8 4.05 Q22.35 4.2 21.95 5.05 M23.45 4.2 Q23.1 3.9 22.8 4.05 M25.8 8.75 Q25.65 7.75 24.9 6.1 L23.45 4.2 23.85 2.35 M21.0 8.3 L20.95 9.15 M21.1 6.7 L21.0 8.3 M22.6 8.4 L22.85 7.15 25.45 10.05 Q26.0 9.85 25.8 8.75 M29.75 10.75 L29.55 10.45 Q29.05 9.75 28.15 9.2 L27.65 8.85 Q26.45 8.05 24.9 6.1 M22.2 10.35 L22.6 8.4 M28.35 12.45 L27.65 12.45 25.45 10.05 M30.95 9.25 L30.15 7.75 M28.15 9.2 L28.65 9.35 M29.1 12.45 L28.35 12.45 M29.75 10.75 Q30.2 11.55 30.05 12.45 M16.55 10.55 L16.15 10.75 M20.15 11.95 Q19.4 11.85 18.95 10.9 L18.8 10.55 18.6 9.65 18.35 9.75 18.2 10.75 M18.45 8.8 L18.6 9.65 M8.85 13.15 Q7.15 8.25 4.2 3.3 L-10.15 -4.1 -14.1 -7.05 -16.6 -8.85 -18.5 -8.15 Q-20.4 3.5 -19.75 15.2 L-18.1 16.2 M-33.6 -19.0 L-35.55 -18.45 -36.6 -16.9 -36.6 3.25 M-31.9 -6.35 L-30.95 -7.05 -30.55 -11.4 -31.6 -11.9 M-33.95 -7.3 L-34.85 -7.75 M-26.9 9.6 L-26.85 8.25 -30.15 6.25 -31.5 5.4 -31.5 1.75 -31.5 0.3 -33.1 -0.55 -33.75 -0.9 -33.95 -7.3 -31.9 -6.35 M-26.35 -6.65 L-26.25 -9.5 -30.55 -11.4 M-23.7 1.25 L-23.4 -2.6 -24.9 -3.2 -26.45 -3.85 -26.35 -6.65 M-23.7 1.25 L-24.0 5.05 -24.1 6.45 M-26.7 4.7 L-26.85 8.25 M-12.65 -8.6 L-15.65 -9.2 -16.6 -8.85 M-14.7 -9.6 L-15.65 -9.2 M-19.75 15.2 L-19.7 16.0 M-26.7 4.7 L-25.55 3.95 -24.0 5.05" fill="none" stroke="#000000" stroke-linecap="round" stroke-linejoin="round" stroke-opacity="0.4" stroke-width="0.5"/>
    <path d="M30.4 -23.15 Q33.2 -25.35 36.6 -23.5 M40.3 -17.2 Q37.55 -18.5 34.7 -17.45 30.25 -16.3 30.1 -9.75" fill="none" stroke="#000066" stroke-linecap="round" stroke-linejoin="round" stroke-opacity="0.7019608" stroke-width="1.0"/>
    <path d="M35.45 -9.2 Q36.3 -11.4 38.15 -10.55 39.85 -9.85 39.2 -8.6 M38.75 -5.55 Q41.3 -5.1 41.75 -8.3 41.3 -11.45 38.9 -12.2 35.2 -13.2 33.95 -9.35 M43.25 -6.7 L43.85 -9.95 Q42.0 -15.75 37.25 -14.3 33.05 -13.65 32.3 -9.55 M39.0 -2.85 Q42.1 -3.45 43.25 -6.7" fill="none" stroke="#755526" stroke-linecap="round" stroke-linejoin="round" stroke-opacity="0.49803922" stroke-width="0.5"/>
  </g>
  <defs>
    <linearGradient gradientTransform="matrix(0.0017, -5.0E-4, 6.0E-4, 0.0022, 33.45, -24.6)" gradientUnits="userSpaceOnUse" id="gradient0" spreadMethod="pad" x1="-819.2" x2="819.2">
      <stop offset="0.0" stop-color="#f8efe0"/>
      <stop offset="0.9882352941176471" stop-color="#ffffff"/>
    </linearGradient>
    <linearGradient gradientTransform="matrix(-0.0406, -0.0057, 0.0023, -0.0164, -7.05, -26.35)" gradientUnits="userSpaceOnUse" id="gradient1" spreadMethod="pad" x1="-819.2" x2="819.2">
      <stop offset="0.0" stop-color="#dccd63"/>
      <stop offset="0.9882352941176471" stop-color="#ebdda5"/>
    </linearGradient>
    <linearGradient gradientTransform="matrix(0.0333, 0.0, 0.0, 0.0133, -5.7, -24.75)" gradientUnits="userSpaceOnUse" id="gradient2" spreadMethod="pad" x1="-819.2" x2="819.2">
      <stop offset="0.0" stop-color="#6b5a17"/>
      <stop offset="0.5333333333333333" stop-color="#998a22"/>
      <stop offset="0.9882352941176471" stop-color="#685717"/>
    </linearGradient>
    <linearGradient gradientTransform="matrix(6.0E-4, -0.0024, 0.0024, 6.0E-4, 1.45, -5.5)" gradientUnits="userSpaceOnUse" id="gradient3" spreadMethod="pad" x1="-819.2" x2="819.2">
      <stop offset="0.0" stop-color="#79691a"/>
      <stop offset="0.9882352941176471" stop-color="#998a22"/>
    </linearGradient>
    <linearGradient gradientTransform="matrix(0.0072, 0.0072, -0.0088, 0.0088, 12.7, 0.7)" gradientUnits="userSpaceOnUse" id="gradient4" spreadMethod="pad" x1="-819.2" x2="819.2">
      <stop offset="0.0" stop-color="#bfac2b"/>
      <stop offset="0.9882352941176471" stop-color="#a78c25"/>
    </linearGradient>
    <linearGradient gradientTransform="matrix(-0.0085, 0.0, 0.0, -0.003, 7.45, -8.55)" gradientUnits="userSpaceOnUse" id="gradient5" spreadMethod="pad" x1="-819.2" x2="819.2">
      <stop offset="0.0" stop-color="#dccd63"/>
      <stop offset="0.9882352941176471" stop-color="#ebdda5"/>
    </linearGradient>
    <linearGradient gradientTransform="matrix(0.0, -0.0103, 0.0015, 0.0, 17.75, -0.35)" gradientUnits="userSpaceOnUse" id="gradient6" spreadMethod="pad" x1="-819.2" x2="819.2">
      <stop offset="0.0" stop-color="#79691a"/>
      <stop offset="0.9882352941176471" stop-color="#998a22"/>
    </linearGradient>
    <linearGradient gradientTransform="matrix(0.002, -0.002, 0.0048, 0.0048, 34.85, -19.75)" gradientUnits="userSpaceOnUse" id="gradient7" spreadMethod="pad" x1="-819.2" x2="819.2">
      <stop offset="0.0" stop-color="#f8efe0"/>
      <stop offset="0.9882352941176471" stop-color="#ffffff"/>
    </linearGradient>
    <linearGradient gradientTransform="matrix(0.0022, -0.0013, 0.0018, 0.0032, 34.85, -14.4)" gradientUnits="userSpaceOnUse" id="gradient8" spreadMethod="pad" x1="-819.2" x2="819.2">
      <stop offset="0.0" stop-color="#f8efe0"/>
      <stop offset="0.9882352941176471" stop-color="#ffffff"/>
    </linearGradient>
    <linearGradient gradientTransform="matrix(0.002, -0.0076, 0.0027, 7.0E-4, 29.05, -14.1)" gradientUnits="userSpaceOnUse" id="gradient9" spreadMethod="pad" x1="-819.2" x2="819.2">
      <stop offset="0.0" stop-color="#79691a"/>
      <stop offset="0.9882352941176471" stop-color="#998a22"/>
    </linearGradient>
    <linearGradient gradientTransform="matrix(0.0014, -0.0054, 0.0024, 6.0E-4, 23.75, -7.35)" gradientUnits="userSpaceOnUse" id="gradient10" spreadMethod="pad" x1="-819.2" x2="819.2">
      <stop offset="0.0" stop-color="#79691a"/>
      <stop offset="0.9882352941176471" stop-color="#998a22"/>
    </linearGradient>
    <linearGradient gradientTransform="matrix(-0.0016, -0.0027, 0.0035, -0.002, 37.85, -9.35)" gradientUnits="userSpaceOnUse" id="gradient11" spreadMethod="pad" x1="-819.2" x2="819.2">
      <stop offset="0.0" stop-color="#e8ca97"/>
      <stop offset="0.9882352941176471" stop-color="#996922"/>
    </linearGradient>
    <linearGradient gradientTransform="matrix(-0.001, -0.0017, 0.0019, -0.0011, 36.65, -10.7)" gradientUnits="userSpaceOnUse" id="gradient12" spreadMethod="pad" x1="-819.2" x2="819.2">
      <stop offset="0.0" stop-color="#e8ca97"/>
      <stop offset="0.9882352941176471" stop-color="#996922"/>
    </linearGradient>
    <linearGradient gradientTransform="matrix(-0.0022, -0.0164, 0.0082, -0.0011, 38.05, -7.3)" gradientUnits="userSpaceOnUse" id="gradient13" spreadMethod="pad" x1="-819.2" x2="819.2">
      <stop offset="0.0" stop-color="#e8ca97"/>
      <stop offset="0.9882352941176471" stop-color="#996922"/>
    </linearGradient>
    <linearGradient gradientTransform="matrix(-0.0039, -0.0068, 0.0055, -0.0032, 37.15, -11.6)" gradientUnits="userSpaceOnUse" id="gradient14" spreadMethod="pad" x1="-819.2" x2="819.2">
      <stop offset="0.0" stop-color="#e8ca97"/>
      <stop offset="0.9882352941176471" stop-color="#996922"/>
    </linearGradient>
    <linearGradient gradientTransform="matrix(-0.0027, -0.0016, 0.0041, -0.0072, 40.05, -0.65)" gradientUnits="userSpaceOnUse" id="gradient15" spreadMethod="pad" x1="-819.2" x2="819.2">
      <stop offset="0.0" stop-color="#e8ca97"/>
      <stop offset="0.9882352941176471" stop-color="#996922"/>
    </linearGradient>
    <linearGradient gradientTransform="matrix(-0.0141, -0.0141, 0.0108, -0.0108, -12.2, 4.6)" gradientUnits="userSpaceOnUse" id="gradient16" spreadMethod="pad" x1="-819.2" x2="819.2">
      <stop offset="0.0" stop-color="#dccd63"/>
      <stop offset="0.9882352941176471" stop-color="#ebdda5"/>
    </linearGradient>
    <linearGradient gradientTransform="matrix(-0.0048, 0.0084, -0.0077, -0.0044, 0.5, 20.95)" gradientUnits="userSpaceOnUse" id="gradient17" spreadMethod="pad" x1="-819.2" x2="819.2">
      <stop offset="0.0" stop-color="#bfac2b"/>
      <stop offset="0.9882352941176471" stop-color="#a78c25"/>
    </linearGradient>
    <linearGradient gradientTransform="matrix(-0.008, -0.008, 0.0033, -0.0033, 0.5, 2.1)" gradientUnits="userSpaceOnUse" id="gradient18" spreadMethod="pad" x1="-819.2" x2="819.2">
      <stop offset="0.0" stop-color="#79691a"/>
      <stop offset="0.9882352941176471" stop-color="#998a22"/>
    </linearGradient>
    <linearGradient gradientTransform="matrix(0.0, 0.0105, -0.0064, 0.0, -41.85, -7.3)" gradientUnits="userSpaceOnUse" id="gradient19" spreadMethod="pad" x1="-819.2" x2="819.2">
      <stop offset="0.0" stop-color="#bfac2b"/>
      <stop offset="0.9882352941176471" stop-color="#a78c25"/>
    </linearGradient>
    <linearGradient gradientTransform="matrix(-0.0045, -0.0045, 0.0046, -0.0046, -26.9, -17.3)" gradientUnits="userSpaceOnUse" id="gradient20" spreadMethod="pad" x1="-819.2" x2="819.2">
      <stop offset="0.0" stop-color="#f1efe4"/>
      <stop offset="0.9882352941176471" stop-color="#ffffff"/>
    </linearGradient>
    <linearGradient gradientTransform="matrix(0.0033, 0.0121, -0.0114, 0.0031, -29.45, -3.65)" gradientUnits="userSpaceOnUse" id="gradient21" spreadMethod="pad" x1="-819.2" x2="819.2">
      <stop offset="0.0" stop-color="#f1efe4"/>
      <stop offset="0.9882352941176471" stop-color="#e4e0cb"/>
    </linearGradient>
    <linearGradient gradientTransform="matrix(0.0017, -0.0066, 0.0044, 0.0012, -30.5, -5.6)" gradientUnits="userSpaceOnUse" id="gradient22" spreadMethod="pad" x1="-819.2" x2="819.2">
      <stop offset="0.0" stop-color="#79691a"/>
      <stop offset="0.9882352941176471" stop-color="#998a22"/>
    </linearGradient>
    <linearGradient gradientTransform="matrix(0.0, 0.0087, -0.0057, 0.0, -28.4, 1.15)" gradientUnits="userSpaceOnUse" id="gradient23" spreadMethod="pad" x1="-819.2" x2="819.2">
      <stop offset="0.0" stop-color="#bfac2b"/>
      <stop offset="0.9882352941176471" stop-color="#a78c25"/>
    </linearGradient>
    <linearGradient gradientTransform="matrix(-0.006, -0.0016, 6.0E-4, -0.0022, -6.75, -7.0)" gradientUnits="userSpaceOnUse" id="gradient24" spreadMethod="pad" x1="-819.2" x2="819.2">
      <stop offset="0.0" stop-color="#dccd63"/>
      <stop offset="0.9882352941176471" stop-color="#ebdda5"/>
    </linearGradient>
    <linearGradient gradientTransform="matrix(0.0, -0.0119, 0.0063, 0.0, -17.8, 1.95)" gradientUnits="userSpaceOnUse" id="gradient25" spreadMethod="pad" x1="-819.2" x2="819.2">
      <stop offset="0.0" stop-color="#cec79f"/>
      <stop offset="0.9882352941176471" stop-color="#b9ac79"/>
    </linearGradient>
    <linearGradient gradientTransform="matrix(0.0037, -0.0139, 0.0047, 0.0013, -17.05, 1.95)" gradientUnits="userSpaceOnUse" id="gradient26" spreadMethod="pad" x1="-819.2" x2="819.2">
      <stop offset="0.0" stop-color="#79691a"/>
      <stop offset="0.9882352941176471" stop-color="#998a22"/>
    </linearGradient>
    <linearGradient gradientTransform="matrix(-0.0026, 0.0098, -0.0118, -0.0031, -10.2, 10.45)" gradientUnits="userSpaceOnUse" id="gradient27" spreadMethod="pad" x1="-819.2" x2="819.2">
      <stop offset="0.0" stop-color="#bfac2b"/>
      <stop offset="0.9882352941176471" stop-color="#a78c25"/>
    </linearGradient>
    <linearGradient gradientTransform="matrix(0.0013, -0.0022, 0.001, 6.0E-4, -7.9, 19.35)" gradientUnits="userSpaceOnUse" id="gradient28" spreadMethod="pad" x1="-819.2" x2="819.2">
      <stop offset="0.0" stop-color="#79691a"/>
      <stop offset="0.9882352941176471" stop-color="#998a22"/>
    </linearGradient>
    <linearGradient gradientTransform="matrix(0.0022, 0.0013, -4.0E-4, 7.0E-4, -25.05, 14.8)" gradientUnits="userSpaceOnUse" id="gradient29" spreadMethod="pad" x1="-819.2" x2="819.2">
      <stop offset="0.0" stop-color="#cec79f"/>
      <stop offset="0.9882352941176471" stop-color="#b9ac79"/>
    </linearGradient>
  </defs>
</svg>
