<?xml version="1.0" encoding="UTF-8" standalone="no"?>
<svg xmlns:xlink="http://www.w3.org/1999/xlink" height="31.15px" width="29.85px" xmlns="http://www.w3.org/2000/svg">
  <g transform="matrix(1.0, 0.0, 0.0, 1.0, -260.05, -184.9)">
    <path d="M276.8 199.25 Q280.6 199.35 284.25 200.65 L283.9 200.65 283.3 200.5 279.25 200.0 278.6 200.25 280.45 200.4 275.85 201.1 275.9 200.95 275.85 200.45 275.85 200.25 275.85 200.1 276.0 199.6 276.25 199.35 276.4 199.3 276.8 199.25" fill="#000000" fill-rule="evenodd" stroke="none"/>
    <path d="M275.85 201.1 L280.45 200.4 278.6 200.25 279.25 200.0 283.3 200.5 278.6 201.05 276.2 201.75 275.9 201.25 275.85 201.1" fill="#999999" fill-rule="evenodd" stroke="none"/>
    <path d="M276.8 199.25 L276.4 199.3 276.25 199.35 276.05 199.15 275.45 198.85 275.7 198.65 275.9 198.65 276.5 198.95 276.8 199.25 M276.0 199.6 L275.85 200.1 274.8 199.95 275.1 199.25 275.15 199.1 275.8 199.35 276.0 199.6 M275.85 200.45 L275.9 200.95 275.25 201.2 274.8 201.0 274.75 200.6 274.8 200.3 275.85 200.45 M277.2 201.7 L276.3 202.6 276.75 201.85 277.2 201.7 M275.95 202.5 L275.75 202.4 275.1 201.8 274.95 201.35 275.45 201.65 275.95 202.5 M276.45 201.95 L276.2 202.15 275.7 201.45 275.9 201.25 276.2 201.75 276.45 201.95" fill="#eddda5" fill-rule="evenodd" stroke="none"/>
    <path d="M276.25 199.35 L276.0 199.6 275.8 199.35 275.15 199.1 275.45 198.85 276.05 199.15 276.25 199.35 M275.85 200.1 L275.85 200.25 275.85 200.45 274.8 200.3 274.8 199.95 275.85 200.1 M275.9 200.95 L275.85 201.1 275.9 201.25 275.7 201.45 276.2 202.15 276.45 201.95 276.75 201.85 276.3 202.6 275.95 202.5 275.45 201.65 274.95 201.35 274.8 201.0 275.25 201.2 275.9 200.95" fill="#e7d083" fill-rule="evenodd" stroke="none"/>
    <path d="M283.3 200.5 L283.9 200.65 Q280.55 200.7 277.2 201.7 L276.75 201.85 276.45 201.95 276.2 201.75 278.6 201.05 283.3 200.5" fill="#ffffff" fill-rule="evenodd" stroke="none"/>
    <path d="M283.9 200.65 L284.25 200.65 Q280.6 199.35 276.8 199.25 L276.4 199.3 276.25 199.35 276.0 199.6 275.85 200.1 275.85 200.25 275.85 200.45 275.9 200.95 275.85 201.1 275.9 201.25 276.2 201.75 276.45 201.95 276.75 201.85 277.2 201.7 Q280.55 200.7 283.9 200.65" fill="none" stroke="#333333" stroke-linecap="round" stroke-linejoin="round" stroke-width="0.05"/>
    <path d="M277.2 201.7 L276.3 202.6 275.95 202.5 275.75 202.4 M275.1 199.25 L275.15 199.1 275.45 198.85 275.7 198.65 275.9 198.65 276.5 198.95 276.8 199.25" fill="none" stroke="#333333" stroke-linecap="round" stroke-linejoin="round" stroke-width="0.05"/>
    <path d="M276.75 201.85 L276.3 202.6 M276.45 201.95 L276.2 202.15 275.7 201.45 275.9 201.25 M274.8 201.0 L275.25 201.2 275.9 200.95 M274.8 199.95 L275.85 200.1 M275.45 198.85 L276.05 199.15 276.25 199.35 M275.15 199.1 L275.8 199.35 276.0 199.6 M274.8 200.3 L275.85 200.45 M274.95 201.35 L275.45 201.65 275.95 202.5" fill="none" stroke="#996600" stroke-linecap="round" stroke-linejoin="round" stroke-opacity="0.23137255" stroke-width="0.05"/>
    <path d="M270.7 186.25 L270.75 188.6 270.5 189.05 270.55 187.95 Q270.4 189.35 269.6 191.05 270.35 191.0 271.05 190.35 271.35 187.9 270.6 185.7 L270.6 185.9 270.7 186.25" fill="#000000" fill-rule="evenodd" stroke="none"/>
    <path d="M270.7 186.25 L270.45 187.75 269.3 190.8 269.6 191.05 Q270.4 189.35 270.55 187.95 L270.5 189.05 270.75 188.6 270.7 186.25" fill="#999999" fill-rule="evenodd" stroke="none"/>
    <path d="M269.3 190.8 L270.45 187.75 270.7 186.25 270.6 185.9 Q270.3 188.2 269.15 190.7 L269.3 190.8" fill="#ffffff" fill-rule="evenodd" stroke="none"/>
    <path d="M269.15 190.7 Q270.3 188.2 270.6 185.9 L270.6 185.7 Q271.35 187.9 271.05 190.35" fill="none" stroke="#333333" stroke-linecap="round" stroke-linejoin="round" stroke-width="0.05"/>
    <path d="M260.25 199.2 L260.05 199.0 Q261.0 200.7 262.55 200.7 263.7 200.15 263.4 198.5 L262.55 198.8 262.75 198.95 262.9 199.1 261.2 199.35 262.55 199.7 262.3 200.05 Q261.15 199.9 260.25 199.2" fill="#000000" fill-rule="evenodd" stroke="none"/>
    <path d="M262.75 198.95 L260.25 199.2 Q261.15 199.9 262.3 200.05 L262.55 199.7 261.2 199.35 262.9 199.1 262.75 198.95" fill="#999999" fill-rule="evenodd" stroke="none"/>
    <path d="M260.05 199.0 L260.25 199.2 262.75 198.95 262.55 198.8 260.05 199.0" fill="#ffffff" fill-rule="evenodd" stroke="none"/>
    <path d="M260.05 199.0 L262.55 198.8 263.4 198.5 M262.55 200.7 Q261.0 200.7 260.05 199.0" fill="none" stroke="#333333" stroke-linecap="round" stroke-linejoin="round" stroke-width="0.05"/>
    <path d="M276.1 188.8 L276.0 189.05 275.25 191.8 275.9 190.8 275.45 192.35 275.75 192.65 276.05 191.25 276.05 191.9 276.15 191.3 276.1 188.8" fill="#999999" fill-rule="evenodd" stroke="none"/>
    <path d="M276.05 191.9 L276.05 191.25 275.75 192.65 275.45 192.35 275.9 190.8 275.25 191.8 276.0 189.05 Q275.45 190.8 274.4 192.1 274.85 193.2 275.95 192.9 L276.05 192.55 276.05 191.9" fill="#000000" fill-rule="evenodd" stroke="none"/>
    <path d="M276.1 188.8 L276.15 191.3 276.05 191.9 276.05 192.55 Q276.45 190.75 276.2 188.65 L276.1 188.8" fill="#ffffff" fill-rule="evenodd" stroke="none"/>
    <path d="M276.0 189.05 L276.1 188.8 276.2 188.65 Q276.45 190.75 276.05 192.55 L275.95 192.9 M276.0 189.05 Q275.45 190.8 274.4 192.1" fill="none" stroke="#333333" stroke-linecap="round" stroke-linejoin="round" stroke-width="0.05"/>
    <path d="M274.4 192.1 Q274.85 193.2 275.95 192.9" fill="none" stroke="#333333" stroke-linecap="round" stroke-linejoin="round" stroke-width="0.05"/>
    <path d="M266.8 185.8 L266.9 185.15 266.9 184.9 Q266.05 188.1 266.35 190.8 L268.0 190.75 Q267.15 189.2 266.95 187.55 L267.0 188.9 266.65 188.55 Q266.5 187.55 266.8 185.8" fill="#000000" fill-rule="evenodd" stroke="none"/>
    <path d="M268.4 190.15 L267.45 188.1 266.8 185.8 Q266.5 187.55 266.65 188.55 L267.0 188.9 266.95 187.55 Q267.15 189.2 268.0 190.75 L268.4 190.15" fill="#999999" fill-rule="evenodd" stroke="none"/>
    <path d="M266.9 185.15 L266.8 185.8 267.45 188.1 268.4 190.15 268.55 189.95 Q267.2 187.75 266.9 185.15" fill="#ffffff" fill-rule="evenodd" stroke="none"/>
    <path d="M266.9 185.15 Q267.2 187.75 268.55 189.95 M266.35 190.8 Q266.05 188.1 266.9 184.9 L266.9 185.15" fill="none" stroke="#333333" stroke-linecap="round" stroke-linejoin="round" stroke-width="0.05"/>
    <path d="M261.4 195.0 L261.25 194.75 Q261.75 196.8 263.25 197.35 264.5 197.15 264.55 195.25 L263.7 195.3 263.8 195.55 263.95 195.75 262.25 195.5 263.5 196.3 263.15 196.6 Q262.1 196.1 261.4 195.0" fill="#000000" fill-rule="evenodd" stroke="none"/>
    <path d="M263.8 195.55 Q262.55 195.65 261.4 195.0 262.1 196.1 263.15 196.6 L263.5 196.3 262.25 195.5 263.95 195.75 263.8 195.55" fill="#999999" fill-rule="evenodd" stroke="none"/>
    <path d="M261.25 194.75 L261.4 195.0 Q262.55 195.65 263.8 195.55 L263.7 195.3 Q262.45 195.3 261.25 194.75" fill="#ffffff" fill-rule="evenodd" stroke="none"/>
    <path d="M261.25 194.75 Q262.45 195.3 263.7 195.3 L264.55 195.25 M263.25 197.35 Q261.75 196.8 261.25 194.75" fill="none" stroke="#333333" stroke-linecap="round" stroke-linejoin="round" stroke-width="0.05"/>
    <path d="M273.65 190.4 L273.75 189.7 273.7 187.35 273.65 187.45 272.9 190.2 273.45 189.15 273.05 190.7 273.3 191.05 273.65 189.65 273.65 190.4" fill="#999999" fill-rule="evenodd" stroke="none"/>
    <path d="M273.6 190.95 L273.65 190.4 273.65 189.65 273.3 191.05 273.05 190.7 273.45 189.15 272.9 190.2 273.65 187.45 Q273.1 189.2 272.0 190.5 272.5 191.55 273.55 191.3 L273.6 190.95" fill="#000000" fill-rule="evenodd" stroke="none"/>
    <path d="M273.6 190.95 Q274.05 189.1 273.75 187.05 L273.7 187.35 273.75 189.7 273.65 190.4 273.6 190.95" fill="#ffffff" fill-rule="evenodd" stroke="none"/>
    <path d="M273.7 187.35 L273.75 187.05 Q274.05 189.1 273.6 190.95 L273.55 191.3 M273.7 187.35 L273.65 187.45 Q273.1 189.2 272.0 190.5" fill="none" stroke="#333333" stroke-linecap="round" stroke-linejoin="round" stroke-width="0.05"/>
    <path d="M272.0 190.5 Q272.5 191.55 273.55 191.3" fill="none" stroke="#333333" stroke-linecap="round" stroke-linejoin="round" stroke-width="0.05"/>
    <path d="M262.75 189.75 L262.7 189.25 262.6 189.05 Q262.9 191.85 264.15 193.95 265.0 193.95 265.7 193.35 264.35 192.35 263.6 191.2 L264.05 192.15 263.7 192.0 Q263.1 191.25 262.75 189.75" fill="#000000" fill-rule="evenodd" stroke="none"/>
    <path d="M265.9 192.7 Q264.9 192.2 264.0 191.3 L262.75 189.75 Q263.1 191.25 263.7 192.0 L264.05 192.15 263.6 191.2 Q264.35 192.35 265.7 193.35 L265.9 192.7" fill="#999999" fill-rule="evenodd" stroke="none"/>
    <path d="M262.7 189.25 L262.75 189.75 264.0 191.3 Q264.9 192.2 265.9 192.7 L265.95 192.5 Q263.9 191.25 262.7 189.25" fill="#ffffff" fill-rule="evenodd" stroke="none"/>
    <path d="M262.7 189.25 Q263.9 191.25 265.95 192.5 M264.15 193.95 Q262.9 191.85 262.6 189.05 L262.7 189.25" fill="none" stroke="#333333" stroke-linecap="round" stroke-linejoin="round" stroke-width="0.05"/>
    <path d="M277.25 199.05 L277.6 199.35 277.1 199.35 276.6 199.45 276.05 199.1 276.35 199.05 277.25 199.05 M278.0 199.65 L278.4 199.95 277.85 200.1 277.4 200.25 276.8 200.65 277.4 201.1 278.25 200.6 278.45 200.55 279.0 200.45 279.45 200.75 Q277.8 201.25 277.4 201.9 276.65 203.6 276.45 205.1 L275.9 204.7 Q275.3 206.0 275.1 207.1 L275.7 207.55 275.4 209.75 275.0 209.35 275.05 207.9 274.45 207.35 Q274.85 205.85 275.55 204.25 L275.8 204.4 Q276.0 203.25 276.55 202.1 L276.2 201.55 275.4 203.75 274.9 203.4 275.15 202.7 274.3 202.1 274.0 202.75 273.05 202.2 273.4 201.25 273.75 201.45 Q274.4 199.8 275.5 199.3 L276.05 199.65 275.8 199.8 275.55 199.95 275.05 200.45 275.55 200.85 275.95 200.4 276.2 200.15 276.65 199.9 277.0 199.75 278.0 199.65 M279.9 201.05 L280.3 201.3 279.2 201.85 279.75 202.1 Q278.7 202.6 278.25 203.35 L277.5 205.85 277.05 205.35 277.9 203.05 Q278.25 202.4 278.8 202.15 L278.3 201.8 279.9 201.05 M281.6 202.2 L281.9 202.5 280.85 202.7 279.05 204.25 280.05 205.05 279.7 206.05 279.0 204.85 278.15 207.4 277.75 207.0 278.55 204.0 280.65 202.3 281.6 202.2 M282.7 203.6 L282.95 204.0 281.95 204.55 281.65 204.2 282.7 203.6 M283.65 205.4 L283.85 205.85 284.35 207.9 283.7 208.0 283.75 207.15 283.5 206.25 283.0 206.3 282.75 207.4 283.0 208.05 282.6 208.1 282.3 207.75 282.35 206.3 283.65 205.4 M284.45 209.0 L284.35 210.6 284.35 210.85 284.15 209.0 284.45 209.0 M284.2 211.7 L283.95 213.0 283.65 213.05 283.8 211.95 284.2 211.7 M264.05 197.85 L264.65 198.8 264.65 199.2 263.9 198.65 264.05 197.85 M263.85 200.65 L264.75 201.1 264.75 201.15 264.8 201.6 264.35 201.45 264.35 202.2 263.95 202.0 263.85 200.65 M264.85 201.15 L265.6 201.45 265.6 202.0 264.95 201.65 264.85 201.15 M265.0 202.3 L265.45 202.65 265.45 203.1 265.1 203.0 265.0 202.3 M266.1 200.75 L265.55 200.6 265.6 200.0 266.75 200.0 266.7 200.8 266.1 200.75 266.1 200.4 266.1 200.75 M267.0 204.6 L266.95 202.65 267.2 200.0 267.7 198.85 268.25 199.0 267.85 200.05 267.45 202.4 267.55 204.1 268.4 204.5 268.3 203.15 268.0 203.0 268.1 201.25 268.45 201.2 268.4 202.4 268.8 202.6 268.75 205.75 267.25 204.85 267.0 204.6 M269.4 206.35 L269.65 204.35 269.95 204.55 269.65 206.65 269.4 206.35 M269.75 203.6 L269.95 202.35 270.25 202.6 270.0 203.75 269.75 203.6 M270.5 204.05 L270.55 203.45 270.9 203.6 270.9 204.25 270.5 204.05 M272.35 205.1 L272.45 204.05 272.95 204.35 273.4 203.25 273.95 203.6 273.35 205.25 272.8 205.0 272.7 205.35 272.35 205.1 M272.5 206.15 L272.35 208.35 272.2 208.5 271.85 209.0 272.2 205.9 272.5 206.15 M273.5 208.15 L273.7 207.0 273.8 208.35 273.5 208.15 M272.95 200.9 L272.45 202.2 271.95 201.75 272.25 200.5 273.05 199.5 272.75 199.3 273.6 198.55 274.1 198.95 273.0 200.15 272.75 200.8 272.95 200.9 M273.15 198.1 L271.7 199.1 270.6 201.15 270.1 200.8 271.2 198.95 272.65 197.9 273.0 197.95 273.15 198.1 M271.2 197.8 L270.15 198.55 269.7 199.45 269.3 199.2 269.55 198.7 269.2 198.6 268.55 200.45 268.1 200.25 268.8 197.95 269.25 197.65 269.7 198.1 270.2 197.95 270.95 197.8 271.2 197.8 M269.3 196.15 L268.5 194.7 268.05 195.4 266.25 192.65 266.8 191.95 267.9 194.3 268.35 193.8 269.2 194.8 269.7 196.25 269.3 196.15 M265.8 193.3 L266.2 193.95 266.1 194.55 265.4 194.0 265.8 193.3 M265.05 194.7 L266.7 196.0 266.7 196.5 264.8 195.35 265.05 194.7 M264.35 196.55 L266.8 197.0 267.2 197.5 266.95 197.85 266.55 197.3 265.5 197.5 265.95 198.3 265.5 198.55 265.05 197.55 264.15 197.35 264.35 196.55 M275.4 193.85 L275.2 194.7 274.9 194.45 275.05 193.6 275.4 193.85 M275.65 195.05 L275.95 194.3 276.1 194.4 276.05 195.35 275.65 195.05 M274.85 194.6 L275.25 194.95 275.2 195.55 274.95 195.6 274.9 195.85 274.35 195.6 274.35 195.25 274.75 195.35 274.85 194.6 M275.65 195.35 L276.05 195.75 276.0 196.3 275.45 196.05 275.65 195.35 M274.45 195.75 L274.95 196.1 275.0 197.35 274.7 197.15 273.85 197.55 273.75 197.4 273.75 197.15 274.0 196.8 274.4 197.0 274.65 197.1 274.45 195.75 M275.45 196.4 L275.8 196.65 275.7 197.15 275.4 197.0 275.45 196.4 M274.3 197.85 L275.2 197.45 275.55 197.65 Q275.8 198.55 274.3 197.85 M275.15 200.95 L274.8 200.75 274.5 201.4 274.85 201.75 275.15 200.95 M272.7 192.1 L272.7 192.8 273.0 193.15 272.4 196.0 272.2 195.05 272.45 193.3 272.15 193.0 272.2 191.8 272.7 192.1 M273.05 196.55 L273.05 196.0 273.6 195.95 273.55 196.65 273.05 196.55 M273.4 192.45 L273.75 192.7 273.35 195.3 273.1 195.2 273.4 192.45 M271.25 191.4 L271.85 191.65 271.9 192.3 271.25 191.9 271.25 191.4 M270.1 191.0 L270.1 191.45 270.6 191.65 270.75 192.65 271.45 192.7 271.7 194.45 271.45 194.85 271.05 193.35 270.65 193.75 270.6 194.45 270.2 194.0 270.0 192.05 269.5 192.1 269.3 190.8 270.1 191.0 M268.85 190.7 L269.1 192.6 268.75 192.2 268.45 190.65 268.85 190.7 M267.45 191.1 L268.05 193.5 267.85 193.5 267.0 191.65 267.45 191.1 M266.55 194.75 L266.55 194.45 267.15 194.7 266.95 195.15 266.55 194.75 M265.0 199.3 L267.3 198.75 266.9 199.2 265.0 199.3 M269.35 202.2 L268.95 201.9 269.2 200.4 269.85 200.3 269.6 200.7 269.35 202.2 M274.7 197.15 L274.65 197.1 274.7 197.15 M274.5 204.25 L274.8 204.45 274.2 206.45 274.0 205.65 274.5 204.25 M271.05 201.0 L271.55 200.35 270.75 202.9 271.05 201.0 M270.4 204.8 L270.75 205.0 270.65 211.75 270.4 211.3 270.4 204.8 M278.65 208.05 L279.2 206.3 279.75 207.4 280.9 205.15 280.3 204.6 280.9 203.55 281.25 204.0 280.75 204.65 281.35 205.2 280.95 206.15 280.95 206.55 281.9 205.15 282.15 205.6 280.9 207.4 280.6 206.7 279.75 208.5 279.2 207.55 278.9 208.4 278.65 208.05 M278.8 211.25 L278.75 212.5 279.05 212.75 279.1 213.25 278.9 214.05 278.45 213.75 278.4 212.9 277.85 212.8 277.95 213.4 277.6 213.15 277.7 210.5 278.0 210.95 278.0 211.85 278.35 212.25 278.4 211.0 278.8 211.25 M280.35 211.5 L280.4 210.2 280.05 209.5 280.4 208.7 280.4 208.05 280.7 207.85 280.65 209.5 281.5 207.7 281.5 208.6 280.85 209.95 280.6 211.85 280.35 211.5 M281.15 214.6 L281.55 212.75 281.25 210.6 281.7 210.55 282.05 211.45 282.0 212.5 282.35 212.65 282.4 211.15 282.15 208.85 282.6 208.8 282.75 210.8 282.65 213.45 282.05 213.35 281.75 214.75 281.15 214.6 M282.1 214.8 L282.2 213.95 282.7 213.9 282.5 214.75 282.1 214.8 M283.5 213.1 L283.15 212.85 283.2 211.25 282.95 209.15 283.6 208.85 283.5 211.75 283.7 211.9 283.5 213.1 M276.85 208.75 L277.15 209.15 276.55 211.4 276.3 210.95 276.85 208.75 M276.45 208.85 L276.2 209.45 276.0 209.25 276.1 208.45 276.45 208.85 M276.8 211.95 L277.25 210.4 277.4 210.8 277.3 212.95 277.25 212.9 276.8 211.95" fill="#eddda5" fill-rule="evenodd" stroke="none"/>
    <path d="M264.75 201.1 L264.7 199.95 264.85 201.1 264.85 201.15 264.75 201.15 264.75 201.1 M274.35 195.6 L274.3 195.65 273.95 195.4 274.35 195.6 M266.1 200.75 L266.1 200.4 266.1 200.75 M271.15 209.45 L271.1 209.75 271.15 209.45 M277.25 212.9 L277.3 212.95 277.25 213.0 277.25 212.9" fill="#ffcc00" fill-rule="evenodd" stroke="none"/>
    <path d="M280.1 212.9 Q279.45 213.85 279.55 215.3 L279.4 215.4 Q279.2 214.05 279.9 212.75 L280.1 212.9 M278.65 208.05 L278.9 208.4 279.2 208.9 278.65 208.55 Q278.4 208.15 278.5 207.85 L278.65 208.05 M279.3 209.05 L279.7 209.75 279.65 210.8 277.3 207.65 Q277.0 207.15 277.35 206.55 L277.75 207.0 278.15 207.4 278.3 207.55 Q278.15 208.3 278.55 208.75 278.9 209.2 279.3 209.05" fill="#000000" fill-rule="evenodd" stroke="none"/>
    <path d="M279.65 210.8 L279.5 211.2 279.2 210.75 279.05 210.55 277.65 208.7 277.4 208.4 276.65 207.4 Q276.35 206.75 277.05 206.4 L277.35 206.55 Q277.0 207.15 277.3 207.65 L279.65 210.8" fill="#996600" fill-rule="evenodd" stroke="none"/>
    <path d="M262.9 202.75 Q262.45 201.4 262.8 198.65 L263.2 196.75 264.05 194.5 Q264.95 192.55 266.55 190.6 L267.4 189.6 268.6 189.7 Q270.7 189.95 272.5 190.7 273.2 190.95 273.9 191.35 L276.6 193.35 276.75 194.35 276.45 193.6 273.65 191.8 274.15 191.85 271.7 190.8 267.7 190.0 263.9 196.15 264.2 194.75 263.45 197.35 263.4 198.5 263.55 202.1 263.2 202.15 263.1 199.05 262.9 202.75 M277.7 214.3 L277.3 213.95 276.2 211.05 274.6 209.45 272.65 208.3 271.35 210.9 271.45 210.1 270.85 212.65 270.75 212.65 269.8 210.85 269.4 206.85 267.6 205.65 266.55 204.65 266.75 204.7 267.25 204.85 268.75 205.75 269.4 206.35 269.65 206.65 269.75 206.7 Q269.7 209.75 270.4 211.3 L270.65 211.75 270.7 211.85 Q271.0 210.3 271.85 209.0 L272.2 208.5 272.35 208.35 272.95 207.9 273.5 208.15 273.8 208.35 275.0 209.35 275.4 209.75 276.1 210.6 276.3 210.95 276.55 211.4 276.75 211.8 276.8 211.95 277.25 212.9 277.25 213.0 277.6 213.85 277.7 214.3" fill="#82733e" fill-rule="evenodd" stroke="none"/>
    <path d="M279.45 200.75 L279.9 201.05 278.3 201.8 278.8 202.15 Q278.25 202.4 277.9 203.05 L277.05 205.35 277.5 205.85 278.25 203.35 Q278.7 202.6 279.75 202.1 L279.2 201.85 280.3 201.3 280.75 201.55 281.6 202.2 280.65 202.3 278.55 204.0 277.75 207.0 277.35 206.55 277.05 206.4 276.5 206.1 Q275.8 207.55 276.7 208.5 L276.85 208.75 276.3 210.95 276.1 210.6 275.4 209.75 275.7 207.55 275.1 207.1 Q275.3 206.0 275.9 204.7 L276.45 205.1 Q276.65 203.6 277.4 201.9 277.8 201.25 279.45 200.75 M281.9 202.5 L282.7 203.6 281.65 204.2 281.95 204.55 282.95 204.0 283.65 205.4 282.35 206.3 282.3 207.75 282.6 208.1 283.0 208.05 282.75 207.4 283.0 206.3 283.5 206.25 283.75 207.15 283.7 208.0 284.35 207.9 284.45 209.0 284.15 209.0 284.35 210.85 284.2 211.7 283.8 211.95 283.85 210.7 283.7 211.9 283.5 211.75 283.6 208.85 282.95 209.15 283.2 211.25 283.15 212.85 283.5 213.1 282.9 214.7 282.5 214.75 282.7 213.9 282.2 213.95 282.1 214.8 281.75 214.75 282.05 213.35 282.65 213.45 282.75 210.8 282.6 208.8 282.15 208.85 282.4 211.15 282.35 212.65 282.0 212.5 282.05 211.45 281.7 210.55 281.25 210.6 281.55 212.75 281.15 214.6 280.75 214.55 Q280.5 214.0 280.95 212.95 L281.1 212.6 280.6 211.85 280.85 209.95 281.5 208.6 281.5 207.7 280.65 209.5 280.7 207.85 280.4 208.05 280.4 208.7 280.05 209.5 280.4 210.2 280.35 211.5 280.05 211.15 280.0 211.25 279.1 213.25 279.05 212.75 278.75 212.5 278.8 211.25 279.5 211.2 279.65 210.8 279.7 209.75 279.3 209.05 279.2 208.9 278.9 208.4 279.2 207.55 279.75 208.5 280.6 206.7 280.9 207.4 282.15 205.6 281.9 205.15 280.95 206.55 280.95 206.15 281.35 205.2 280.75 204.65 281.25 204.0 280.9 203.55 280.3 204.6 280.9 205.15 279.75 207.4 279.2 206.3 278.65 208.05 278.5 207.85 278.3 207.55 278.15 207.4 279.0 204.85 279.7 206.05 280.05 205.05 279.05 204.25 280.85 202.7 281.9 202.5 M283.95 213.0 L283.6 214.3 283.25 214.65 283.65 213.05 283.95 213.0 M264.05 197.85 L264.15 197.35 265.05 197.55 265.5 198.55 265.95 198.3 265.5 197.5 266.55 197.3 266.95 197.85 267.2 197.5 266.8 197.0 264.35 196.55 264.8 195.35 266.7 196.5 266.7 196.0 265.05 194.7 265.4 194.0 266.1 194.55 266.2 193.95 265.8 193.3 266.25 192.65 268.05 195.4 268.5 194.7 269.3 196.15 267.2 195.65 269.25 197.65 268.8 197.95 268.1 200.25 268.55 200.45 269.2 198.6 269.55 198.7 269.3 199.2 269.7 199.45 270.15 198.55 271.2 197.8 271.45 197.8 272.0 197.8 272.65 197.9 271.2 198.95 270.1 200.8 270.6 201.15 271.7 199.1 273.15 198.1 273.6 198.55 272.75 199.3 273.05 199.5 272.25 200.5 271.95 201.75 272.45 202.2 272.95 200.9 273.4 201.25 273.05 202.2 274.0 202.75 274.3 202.1 275.15 202.7 274.9 203.4 275.4 203.75 276.2 201.55 276.55 202.1 Q276.0 203.25 275.8 204.4 L275.55 204.25 Q274.85 205.85 274.45 207.35 L275.05 207.9 275.0 209.35 273.8 208.35 273.7 207.0 273.5 208.15 272.95 207.9 272.35 208.35 272.5 206.15 273.25 206.7 273.3 205.75 272.7 205.35 272.8 205.0 273.35 205.25 273.95 203.6 273.4 203.25 272.95 204.35 272.45 204.05 272.35 205.1 271.85 204.75 272.1 202.3 271.5 201.95 271.3 204.45 270.9 204.25 270.9 203.6 270.55 203.45 270.5 204.05 270.0 203.75 270.25 202.6 269.95 202.35 269.75 203.6 269.4 203.4 269.35 204.2 269.65 204.35 269.4 206.35 268.75 205.75 268.8 202.6 268.4 202.4 268.45 201.2 268.1 201.25 268.0 203.0 268.3 203.15 268.4 204.5 267.55 204.1 267.45 202.4 267.85 200.05 268.25 199.0 267.7 198.85 267.2 200.0 266.95 202.65 267.0 204.6 266.25 203.85 266.15 200.95 266.1 200.75 265.85 203.75 265.15 203.35 265.1 203.0 265.45 203.1 265.45 202.65 265.0 202.3 264.95 201.65 265.6 202.0 265.6 201.45 264.85 201.15 264.85 201.1 264.7 199.95 264.75 201.1 263.85 200.65 Q263.8 199.6 263.9 198.65 L264.65 199.2 264.65 198.8 264.05 197.85 M266.1 200.75 L266.7 200.8 266.75 200.0 265.6 200.0 265.55 200.6 266.1 200.75 M263.95 202.0 L264.35 202.2 264.35 201.45 264.8 201.6 264.85 203.35 264.1 203.0 263.95 202.0 M275.4 193.85 L275.95 194.3 275.65 195.05 275.2 194.7 275.4 193.85 M274.9 194.45 L274.15 193.85 274.85 194.6 274.75 195.35 274.35 195.25 274.35 195.6 273.95 195.4 274.3 195.65 274.45 195.75 274.65 197.1 274.4 197.0 274.0 196.8 273.55 196.65 273.6 195.95 273.05 196.0 273.05 196.55 272.5 196.5 272.4 196.0 273.0 193.15 272.7 192.8 272.7 192.1 273.4 192.45 273.1 195.2 273.35 195.3 273.75 192.7 275.05 193.6 274.9 194.45 M275.25 194.95 L275.65 195.35 275.45 196.05 274.9 195.85 274.95 195.6 275.2 195.55 275.25 194.95 M274.95 196.1 L275.45 196.4 275.4 197.0 275.7 197.15 275.8 196.65 275.9 196.7 276.0 198.0 275.55 197.65 275.2 197.45 275.0 197.35 275.2 197.45 274.3 197.85 274.2 197.8 273.85 197.55 274.7 197.15 275.0 197.35 274.95 196.1 M275.5 199.3 L276.05 199.1 276.6 199.45 276.05 199.65 275.5 199.3 M275.15 200.95 L274.85 201.75 274.5 201.4 274.8 200.75 275.15 200.95 M272.2 191.8 L272.15 193.0 272.45 193.3 272.2 195.05 271.95 194.0 271.7 194.45 271.45 192.7 270.75 192.65 270.6 191.65 270.1 191.45 270.1 191.0 271.25 191.4 271.25 191.9 271.9 192.3 271.85 191.65 272.2 191.8 M269.3 190.8 L269.5 192.1 270.0 192.05 270.2 194.0 269.1 192.6 268.85 190.7 269.3 190.8 M270.6 194.45 L270.65 193.75 271.05 193.35 271.45 194.85 271.2 195.2 270.6 194.45 M268.35 191.75 L267.9 190.6 269.2 194.8 268.35 193.8 267.9 194.3 266.8 191.95 267.0 191.65 267.85 193.5 268.05 193.5 267.45 191.1 267.9 190.6 268.45 190.65 268.75 192.2 268.35 191.75 M266.55 194.75 L266.95 195.15 267.15 194.7 266.55 194.45 266.55 194.75 M265.0 199.3 L266.9 199.2 267.3 198.75 265.0 199.3 M269.35 202.2 L269.6 200.7 269.85 200.3 269.2 200.4 268.95 201.9 269.35 202.2 M271.05 201.0 L270.75 202.9 271.55 200.35 271.05 201.0 M274.5 204.25 L274.0 205.65 274.2 206.45 274.8 204.45 274.5 204.25 M269.95 204.55 L270.4 204.8 270.4 211.3 Q269.7 209.75 269.75 206.7 L269.65 206.65 269.95 204.55 M270.75 205.0 L271.3 205.35 271.15 209.45 271.75 205.6 272.2 205.9 271.85 209.0 Q271.0 210.3 270.7 211.85 L270.65 211.75 270.75 205.0 M271.15 209.45 L271.1 209.75 271.15 209.45 M277.15 209.15 L278.4 211.0 278.35 212.25 278.0 211.85 278.0 210.95 277.7 210.5 277.6 213.15 277.3 212.95 277.4 210.8 277.25 210.4 276.8 211.95 276.75 211.8 276.55 211.4 277.15 209.15 M276.45 208.85 L276.1 208.45 276.0 209.25 276.2 209.45 276.45 208.85 M277.95 213.4 L277.85 212.8 278.4 212.9 278.45 213.75 277.95 213.4" fill="#e7d083" fill-rule="evenodd" stroke="none"/>
    <path d="M276.75 194.35 L276.45 194.7 276.3 194.6 276.1 194.4 275.95 194.3 275.4 193.85 275.05 193.6 273.75 192.7 273.4 192.45 272.7 192.1 272.2 191.8 271.85 191.65 271.25 191.4 270.1 191.0 269.3 190.8 268.85 190.7 268.45 190.65 267.9 190.6 267.45 191.1 267.0 191.65 266.8 191.95 266.25 192.65 265.8 193.3 265.4 194.0 265.05 194.7 264.8 195.35 264.35 196.55 264.15 197.35 264.05 197.85 263.9 198.65 Q263.8 199.6 263.85 200.65 L263.95 202.0 264.1 203.0 264.2 203.4 264.3 203.7 Q264.0 204.55 263.35 203.55 263.05 203.25 262.9 202.75 L263.1 199.05 263.2 202.15 263.55 202.1 263.4 198.5 263.45 197.35 264.2 194.75 263.9 196.15 267.7 190.0 271.7 190.8 274.15 191.85 273.65 191.8 276.45 193.6 276.75 194.35 M277.3 213.95 L277.0 213.65 276.15 211.85 Q274.9 209.7 272.9 208.8 271.6 210.9 271.15 212.6 L271.15 212.65 271.0 213.15 Q270.7 213.5 270.2 212.8 L269.95 212.35 Q269.3 211.05 269.0 207.55 L267.6 205.65 269.4 206.85 269.8 210.85 270.75 212.65 270.85 212.65 271.45 210.1 271.35 210.9 272.65 208.3 274.6 209.45 276.2 211.05 277.3 213.95" fill="#494123" fill-rule="evenodd" stroke="none"/>
    <path d="M279.5 211.2 L278.8 211.25 279.2 210.75 279.5 211.2 M276.5 206.1 L277.05 206.4 Q276.35 206.75 276.65 207.4 L277.4 208.4 276.9 208.65 276.85 208.75 276.7 208.5 Q275.8 207.55 276.5 206.1 M277.65 208.7 L279.05 210.55 278.4 211.0 277.15 209.15 277.2 209.0 277.65 208.7" fill="#dbba46" fill-rule="evenodd" stroke="none"/>
    <path d="M277.4 208.4 L277.65 208.7 277.2 209.0 277.15 209.15 276.85 208.75 276.9 208.65 277.4 208.4 M279.05 210.55 L279.2 210.75 278.8 211.25 278.4 211.0 279.05 210.55" fill="#e8d38c" fill-rule="evenodd" stroke="none"/>
    <path d="M279.2 208.9 L279.3 209.05 Q278.9 209.2 278.55 208.75 278.15 208.3 278.3 207.55 L278.5 207.85 Q278.4 208.15 278.65 208.55 L279.2 208.9" fill="#ff0000" fill-rule="evenodd" stroke="none"/>
    <path d="M276.45 194.7 Q276.0 197.25 276.4 198.3 L277.25 199.05 276.35 199.05 276.05 199.1 275.5 199.3 Q274.4 199.8 273.75 201.45 L273.4 201.25 272.95 200.9 272.75 200.8 273.0 200.15 274.1 198.95 273.6 198.55 273.15 198.1 273.0 197.95 272.65 197.9 272.0 197.8 271.45 197.8 271.2 197.8 270.95 197.8 270.2 197.95 269.7 198.1 269.25 197.65 267.2 195.65 269.3 196.15 269.7 196.25 269.2 194.8 267.9 190.6 268.35 191.75 269.2 193.4 269.3 193.65 269.7 194.3 269.9 194.6 270.1 194.9 270.25 195.15 270.6 195.55 270.85 195.85 271.1 196.05 271.45 196.3 272.0 196.55 272.35 196.5 272.5 196.5 272.35 196.5 272.0 196.55 271.45 196.3 271.1 196.05 270.85 195.85 270.6 195.55 270.25 195.15 270.1 194.9 269.9 194.6 269.7 194.3 269.3 193.65 269.2 193.4 268.35 191.75 268.75 192.2 269.1 192.6 270.2 194.0 270.6 194.45 271.2 195.2 271.45 194.85 271.7 194.45 271.95 194.0 272.2 195.05 272.4 196.0 272.5 196.5 273.05 196.55 273.55 196.65 274.0 196.8 273.75 197.15 273.75 197.4 273.85 197.55 274.2 197.8 274.3 197.85 Q275.8 198.55 275.55 197.65 L276.0 198.0 275.9 196.7 275.8 196.65 275.45 196.4 274.95 196.1 274.45 195.75 274.3 195.65 274.35 195.6 274.9 195.85 275.45 196.05 276.0 196.3 276.05 195.75 275.65 195.35 275.25 194.95 274.85 194.6 274.15 193.85 274.9 194.45 275.2 194.7 275.65 195.05 276.05 195.35 276.1 194.4 276.3 194.6 276.45 194.7 M277.6 199.35 L278.0 199.65 277.0 199.75 276.65 199.9 276.2 200.15 275.95 200.4 275.55 200.85 275.05 200.45 275.55 199.95 275.8 199.8 276.05 199.65 276.6 199.45 277.1 199.35 277.6 199.35 M278.4 199.95 L279.0 200.45 278.45 200.55 278.25 200.6 277.4 201.1 276.8 200.65 277.4 200.25 277.85 200.1 278.4 199.95 M283.6 214.3 L283.35 215.05 282.65 216.0 282.25 216.05 281.15 215.95 279.9 215.6 279.8 215.1 Q279.8 214.25 280.3 213.05 L280.1 212.9 279.9 212.75 Q279.2 214.05 279.4 215.4 278.5 214.95 277.7 214.3 L277.6 213.85 277.25 213.0 277.3 212.95 277.6 213.15 277.95 213.4 278.45 213.75 278.9 214.05 279.1 213.25 280.0 211.25 280.05 211.15 280.35 211.5 280.6 211.85 281.1 212.6 280.95 212.95 Q280.5 214.0 280.75 214.55 L281.15 214.6 281.75 214.75 282.1 214.8 282.5 214.75 282.9 214.7 283.5 213.1 283.7 211.9 283.85 210.7 283.8 211.95 283.65 213.05 283.25 214.65 283.6 214.3 M266.55 204.65 L266.45 204.55 Q265.4 203.85 264.3 203.7 L264.2 203.4 264.1 203.0 264.85 203.35 264.8 201.6 264.75 201.15 264.85 201.15 264.95 201.65 265.0 202.3 265.1 203.0 265.15 203.35 265.85 203.75 266.1 200.75 266.15 200.95 266.25 203.85 267.0 204.6 267.25 204.85 266.75 204.7 266.55 204.65 M269.65 204.35 L269.35 204.2 269.4 203.4 269.75 203.6 270.0 203.75 270.5 204.05 270.9 204.25 271.3 204.45 271.5 201.95 272.1 202.3 271.85 204.75 272.35 205.1 272.7 205.35 273.3 205.75 273.25 206.7 272.5 206.15 272.2 205.9 271.75 205.6 271.15 209.45 271.3 205.35 270.75 205.0 270.4 204.8 269.95 204.55 269.65 204.35 M276.4 198.3 L276.25 198.2 276.0 198.0 276.25 198.2 276.4 198.3" fill="#993300" fill-rule="evenodd" stroke="none"/>
    <path d="M262.9 202.75 Q262.45 201.4 262.8 198.65 L263.2 196.75 264.05 194.5 Q264.95 192.55 266.55 190.6 L267.4 189.6 268.6 189.7 Q270.7 189.95 272.5 190.7 273.2 190.95 273.9 191.35 L276.6 193.35 276.75 194.35 276.45 194.7 M277.25 199.05 L277.6 199.35 M278.0 199.65 L278.4 199.95 M279.0 200.45 L279.45 200.75 279.9 201.05 280.3 201.3 280.75 201.55 281.6 202.2 281.9 202.5 282.7 203.6 282.95 204.0 283.65 205.4 283.85 205.85 284.35 207.9 284.45 209.0 284.35 210.6 284.35 210.85 284.2 211.7 283.95 213.0 283.6 214.3 M277.0 213.65 L276.15 211.85 Q274.9 209.7 272.9 208.8 271.6 210.9 271.15 212.6 L271.15 212.65 271.0 213.15 Q270.7 213.5 270.2 212.8 L269.95 212.35 Q269.3 211.05 269.0 207.55 L267.6 205.65 266.55 204.65 266.45 204.55 Q265.4 203.85 264.3 203.7 264.0 204.55 263.35 203.55 263.05 203.25 262.9 202.75 M264.15 197.35 L264.05 197.85 263.9 198.65 Q263.8 199.6 263.85 200.65 L263.95 202.0 264.1 203.0 264.2 203.4 264.3 203.7 M272.35 208.35 L272.95 207.9 M266.25 192.65 L265.8 193.3 265.4 194.0 265.05 194.7 264.8 195.35 264.35 196.55 264.15 197.35 M275.95 194.3 L275.4 193.85 275.05 193.6 273.75 192.7 273.4 192.45 272.7 192.1 272.2 191.8 271.85 191.65 271.25 191.4 270.1 191.0 269.3 190.8 268.85 190.7 268.45 190.65 267.9 190.6 267.45 191.1 267.0 191.65 266.8 191.95 266.25 192.65 M275.95 194.3 L276.1 194.4 M275.2 197.45 L275.0 197.35 274.7 197.15 M275.2 197.45 L275.55 197.65 M274.0 196.8 L274.4 197.0 274.65 197.1 M272.35 208.35 L272.2 208.5 271.85 209.0 Q271.0 210.3 270.7 211.85 L270.65 211.75 270.4 211.3 Q269.7 209.75 269.75 206.7 M278.65 208.05 L278.9 208.4 279.2 208.9 279.3 209.05 279.7 209.75 279.65 210.8 279.5 211.2 278.8 211.25 278.4 211.0 M276.5 206.1 L277.05 206.4 277.35 206.55 277.75 207.0 278.15 207.4 278.3 207.55 278.5 207.85 278.65 208.05 M279.65 210.8 L277.3 207.65 Q277.0 207.15 277.35 206.55" fill="none" stroke="#000000" stroke-linecap="round" stroke-linejoin="round" stroke-opacity="0.49803922" stroke-width="0.05"/>
    <path d="M276.45 194.7 Q276.0 197.25 276.4 198.3 L277.25 199.05 276.35 199.05 276.05 199.1 275.5 199.3 Q274.4 199.8 273.75 201.45 L273.4 201.25 272.95 200.9 272.75 200.8 273.0 200.15 274.1 198.95 273.6 198.55 273.15 198.1 273.0 197.95 272.65 197.9 272.0 197.8 271.45 197.8 271.2 197.8 270.95 197.8 270.2 197.95 269.7 198.1 269.25 197.65 267.2 195.65 269.3 196.15 269.7 196.25 269.2 194.8 267.9 190.6 268.35 191.75 268.75 192.2 269.1 192.6 270.2 194.0 270.6 194.45 271.2 195.2 271.45 194.85 271.7 194.45 271.95 194.0 272.2 195.05 272.4 196.0 272.5 196.5 273.05 196.55 273.55 196.65 274.0 196.8 273.75 197.15 273.75 197.4 273.85 197.55 274.2 197.8 274.3 197.85 Q275.8 198.55 275.55 197.65 L276.0 198.0 276.25 198.2 276.4 198.3 M277.6 199.35 L278.0 199.65 M278.4 199.95 L279.0 200.45 M283.6 214.3 L283.35 215.05 282.65 216.0 282.25 216.05 281.15 215.95 279.9 215.6 279.8 215.1 Q279.8 214.25 280.3 213.05 L280.1 212.9 279.9 212.75 Q279.2 214.05 279.4 215.4 278.5 214.95 277.7 214.3 L277.3 213.95 277.0 213.65 M264.95 201.65 L265.0 202.3 265.1 203.0 265.15 203.35 265.85 203.75 266.1 200.75 266.15 200.95 266.25 203.85 267.0 204.6 267.25 204.85 268.75 205.75 269.4 206.35 269.65 206.65 269.75 206.7 M269.65 204.35 L269.35 204.2 269.4 203.4 269.75 203.6 270.0 203.75 270.5 204.05 270.9 204.25 271.3 204.45 271.5 201.95 272.1 202.3 271.85 204.75 272.35 205.1 272.7 205.35 273.3 205.75 273.25 206.7 272.5 206.15 272.2 205.9 271.75 205.6 271.15 209.45 271.3 205.35 270.75 205.0 270.4 204.8 269.95 204.55 269.65 204.35 M272.95 207.9 L273.5 208.15 273.8 208.35 275.0 209.35 275.4 209.75 276.1 210.6 276.3 210.95 276.55 211.4 276.75 211.8 276.8 211.95 277.25 212.9 M264.8 201.6 L264.75 201.15 M264.1 203.0 L264.85 203.35 264.8 201.6 M276.1 194.4 L276.3 194.6 276.45 194.7 M275.2 194.7 L275.65 195.05 276.05 195.35 276.1 194.4 M275.2 194.7 L274.9 194.45 274.15 193.85 274.85 194.6 275.25 194.95 275.65 195.35 276.05 195.75 276.0 196.3 275.45 196.05 274.9 195.85 274.35 195.6 M274.3 195.65 L274.45 195.75 274.95 196.1 275.45 196.4 275.8 196.65 275.9 196.7 276.0 198.0 M272.5 196.5 L272.35 196.5 272.0 196.55 271.45 196.3 271.1 196.05 270.85 195.85 270.6 195.55 270.25 195.15 270.1 194.9 269.9 194.6 269.7 194.3 269.3 193.65 269.2 193.4 268.35 191.75 M264.95 201.65 L264.85 201.15 M266.55 204.65 L266.75 204.7 267.25 204.85 M279.1 213.25 L280.0 211.25 280.05 211.15 280.35 211.5 280.6 211.85 281.1 212.6 280.95 212.95 Q280.5 214.0 280.75 214.55 L281.15 214.6 281.75 214.75 282.1 214.8 282.5 214.75 282.9 214.7 283.5 213.1 283.7 211.9 283.85 210.7 283.8 211.95 283.65 213.05 283.25 214.65 283.6 214.3 M276.7 208.5 Q275.8 207.55 276.5 206.1 M277.6 213.15 L277.95 213.4 278.45 213.75 278.9 214.05 279.1 213.25 M277.3 212.95 L277.6 213.15 M277.25 213.0 L277.6 213.85 277.7 214.3" fill="none" stroke="#000000" stroke-linecap="round" stroke-linejoin="round" stroke-opacity="0.49803922" stroke-width="0.05"/>
    <path d="M264.05 197.85 L264.65 198.8 264.65 199.2 263.9 198.65 M263.85 200.65 L264.75 201.1 M264.85 201.15 L265.6 201.45 265.6 202.0 264.95 201.65 M265.0 202.3 L265.45 202.65 265.45 203.1 265.1 203.0 M266.1 200.75 L265.55 200.6 265.6 200.0 266.75 200.0 266.7 200.8 266.1 200.75 266.1 200.4 266.1 200.75 M267.0 204.6 L266.95 202.65 267.2 200.0 267.7 198.85 268.25 199.0 267.85 200.05 267.45 202.4 267.55 204.1 268.4 204.5 268.3 203.15 268.0 203.0 268.1 201.25 268.45 201.2 268.4 202.4 268.8 202.6 268.75 205.75 M269.4 206.35 L269.65 204.35 M269.75 203.6 L269.95 202.35 270.25 202.6 270.0 203.75 M270.5 204.05 L270.55 203.45 270.9 203.6 270.9 204.25 M272.35 205.1 L272.45 204.05 272.95 204.35 273.4 203.25 273.95 203.6 273.35 205.25 272.8 205.0 272.7 205.35 M272.5 206.15 L272.35 208.35 M273.5 208.15 L273.7 207.0 273.8 208.35 M275.0 209.35 L275.05 207.9 274.45 207.35 Q274.85 205.85 275.55 204.25 L275.8 204.4 Q276.0 203.25 276.55 202.1 L276.2 201.55 275.4 203.75 274.9 203.4 275.15 202.7 274.3 202.1 274.0 202.75 273.05 202.2 273.4 201.25 M272.95 200.9 L272.45 202.2 271.95 201.75 272.25 200.5 273.05 199.5 272.75 199.3 273.6 198.55 M273.15 198.1 L271.7 199.1 270.6 201.15 270.1 200.8 271.2 198.95 272.65 197.9 M271.2 197.8 L270.15 198.55 269.7 199.45 269.3 199.2 269.55 198.7 269.2 198.6 268.55 200.45 268.1 200.25 268.8 197.95 269.25 197.65 M269.3 196.15 L268.5 194.7 268.05 195.4 266.25 192.65 M265.8 193.3 L266.2 193.95 266.1 194.55 265.4 194.0 M265.05 194.7 L266.7 196.0 266.7 196.5 264.8 195.35 M264.35 196.55 L266.8 197.0 267.2 197.5 266.95 197.85 266.55 197.3 265.5 197.5 265.95 198.3 265.5 198.55 265.05 197.55 264.15 197.35 M263.95 202.0 L264.35 202.2 264.35 201.45 264.8 201.6 M275.4 193.85 L275.2 194.7 M275.65 195.05 L275.95 194.3 M275.25 194.95 L275.2 195.55 274.95 195.6 274.9 195.85 M275.45 196.05 L275.65 195.35 M275.05 193.6 L274.9 194.45 M274.7 197.15 L273.85 197.55 M274.3 197.85 L275.2 197.45 M275.45 196.4 L275.4 197.0 275.7 197.15 275.8 196.65 M276.05 199.65 L275.5 199.3 M276.05 199.1 L276.6 199.45 M275.15 200.95 L274.8 200.75 274.5 201.4 274.85 201.75 275.15 200.95 M279.9 201.05 L278.3 201.8 278.8 202.15 Q278.25 202.4 277.9 203.05 L277.05 205.35 277.5 205.85 278.25 203.35 Q278.7 202.6 279.75 202.1 L279.2 201.85 280.3 201.3 M275.4 209.75 L275.7 207.55 275.1 207.1 Q275.3 206.0 275.9 204.7 L276.45 205.1 Q276.65 203.6 277.4 201.9 277.8 201.25 279.45 200.75 M277.75 207.0 L278.55 204.0 280.65 202.3 281.6 202.2 M278.15 207.4 L279.0 204.85 279.7 206.05 280.05 205.05 279.05 204.25 280.85 202.7 281.9 202.5 M275.0 197.35 L274.95 196.1 M272.4 196.0 L273.0 193.15 272.7 192.8 272.7 192.1 M272.2 191.8 L272.15 193.0 272.45 193.3 272.2 195.05 M273.05 196.55 L273.05 196.0 273.6 195.95 273.55 196.65 M274.65 197.1 L274.45 195.75 M273.4 192.45 L273.1 195.2 273.35 195.3 273.75 192.7 M271.25 191.4 L271.25 191.9 271.9 192.3 271.85 191.65 M271.7 194.45 L271.45 192.7 270.75 192.65 270.6 191.65 270.1 191.45 270.1 191.0 M269.3 190.8 L269.5 192.1 270.0 192.05 270.2 194.0 M270.6 194.45 L270.65 193.75 271.05 193.35 271.45 194.85 M274.85 194.6 L274.75 195.35 274.35 195.25 274.35 195.6 M268.85 190.7 L269.1 192.6 M267.45 191.1 L268.05 193.5 267.85 193.5 267.0 191.65 M266.8 191.95 L267.9 194.3 268.35 193.8 269.2 194.8 M268.75 192.2 L268.45 190.65 M266.55 194.75 L266.95 195.15 267.15 194.7 266.55 194.45 266.55 194.75 M265.0 199.3 L267.3 198.75 266.9 199.2 265.0 199.3 M269.35 202.2 L268.95 201.9 269.2 200.4 269.85 200.3 269.6 200.7 269.35 202.2 M271.05 201.0 L270.75 202.9 271.55 200.35 271.05 201.0 M274.5 204.25 L274.0 205.65 274.2 206.45 274.8 204.45 274.5 204.25 M272.2 205.9 L271.85 209.0 M269.95 204.55 L269.65 206.65 M270.4 204.8 L270.4 211.3 M270.65 211.75 L270.75 205.0 M282.7 203.6 L281.65 204.2 281.95 204.55 282.95 204.0 M278.9 208.4 L279.2 207.55 279.75 208.5 280.6 206.7 280.9 207.4 282.15 205.6 281.9 205.15 280.95 206.55 280.95 206.15 281.35 205.2 280.75 204.65 281.25 204.0 280.9 203.55 280.3 204.6 280.9 205.15 279.75 207.4 279.2 206.3 278.65 208.05 M278.8 211.25 L278.75 212.5 279.05 212.75 279.1 213.25 M280.35 211.5 L280.4 210.2 280.05 209.5 280.4 208.7 280.4 208.05 280.7 207.85 280.65 209.5 281.5 207.7 281.5 208.6 280.85 209.95 280.6 211.85 M281.15 214.6 L281.55 212.75 281.25 210.6 281.7 210.55 282.05 211.45 282.0 212.5 282.35 212.65 282.4 211.15 282.15 208.85 282.6 208.8 282.75 210.8 282.65 213.45 282.05 213.35 281.75 214.75 M282.1 214.8 L282.2 213.95 282.7 213.9 282.5 214.75 M283.5 213.1 L283.15 212.85 283.2 211.25 282.95 209.15 283.6 208.85 283.5 211.75 283.7 211.9 M283.8 211.95 L284.2 211.7 M283.65 205.4 L282.35 206.3 282.3 207.75 282.6 208.1 283.0 208.05 282.75 207.4 283.0 206.3 283.5 206.25 283.75 207.15 283.7 208.0 284.35 207.9 M284.45 209.0 L284.15 209.0 284.35 210.85 M277.2 209.0 L277.65 208.7 M278.4 211.0 L279.05 210.55 M276.9 208.65 L277.4 208.4 M276.45 208.85 L276.2 209.45 276.0 209.25 276.1 208.45 276.45 208.85 M278.4 211.0 L278.35 212.25 278.0 211.85 278.0 210.95 277.7 210.5 277.6 213.15 M277.95 213.4 L277.85 212.8 278.4 212.9 278.45 213.75 M279.2 210.75 L278.8 211.25 M276.3 210.95 L276.85 208.75 M276.55 211.4 L277.15 209.15 M276.8 211.95 L277.25 210.4 277.4 210.8 277.3 212.95 M283.65 213.05 L283.95 213.0" fill="none" stroke="#993300" stroke-linecap="round" stroke-linejoin="round" stroke-opacity="0.3019608" stroke-width="0.05"/>
    <path d="M274.65 197.1 L274.7 197.15" fill="none" stroke="#993300" stroke-linecap="round" stroke-linejoin="round" stroke-opacity="0.3019608" stroke-width="0.05"/>
    <path d="M264.75 201.1 L264.7 199.95 264.85 201.1 264.85 201.15 M264.75 201.15 L264.75 201.1 M276.05 199.65 L275.8 199.8 275.55 199.95 275.05 200.45 275.55 200.85 275.95 200.4 276.2 200.15 276.65 199.9 277.0 199.75 278.0 199.65 M277.6 199.35 L277.1 199.35 276.6 199.45 276.05 199.65 M278.4 199.95 L277.85 200.1 277.4 200.25 276.8 200.65 277.4 201.1 278.25 200.6 278.45 200.55 279.0 200.45 M274.35 195.6 L273.95 195.4 274.3 195.65 M271.15 209.45 L271.1 209.75 271.15 209.45 M277.25 212.9 L277.3 212.95 M277.25 212.9 L277.25 213.0" fill="none" stroke="#990000" stroke-linecap="round" stroke-linejoin="round" stroke-opacity="0.49803922" stroke-width="0.05"/>
    <path d="M279.55 215.3 L279.4 215.4" fill="none" stroke="#000000" stroke-linecap="round" stroke-linejoin="round" stroke-opacity="0.3019608" stroke-width="0.05"/>
    <path d="M283.2 194.8 L283.2 195.4 Q283.1 197.95 282.45 199.6 L281.95 200.2 282.4 198.35 Q281.75 200.4 280.3 202.75 L280.6 202.85 281.15 202.95 Q281.85 203.1 282.2 202.65 L282.35 202.2 Q283.5 198.4 283.35 194.45 L283.2 194.8" fill="#000000" fill-rule="evenodd" stroke="none"/>
    <path d="M280.3 202.75 Q281.75 200.4 282.4 198.35 L281.95 200.2 282.45 199.6 Q283.1 197.95 283.2 195.4 282.65 197.35 281.35 199.7 L279.8 202.2 279.9 202.45 280.3 202.75" fill="#999999" fill-rule="evenodd" stroke="none"/>
    <path d="M282.2 202.65 Q281.85 203.1 281.15 202.95 L280.6 202.85 280.6 203.3 281.7 203.45 281.85 204.0 282.45 203.65 282.2 202.65 M279.8 202.2 L279.7 202.0 279.25 201.7 279.0 201.95 279.0 202.6 279.05 202.8 279.8 202.2 M279.4 203.3 L280.0 203.75 280.3 202.75 279.9 202.45 279.4 203.3 M280.55 204.0 L281.25 204.05 281.0 203.7 280.5 203.55 280.55 204.0" fill="#eddda5" fill-rule="evenodd" stroke="none"/>
    <path d="M282.35 202.2 L282.2 202.65 282.45 203.65 282.65 203.45 282.7 203.2 282.55 202.65 282.35 202.2 M280.6 202.85 L280.3 202.75 280.0 203.75 280.4 203.95 280.55 204.0 280.5 203.55 281.0 203.7 281.25 204.05 281.85 204.0 281.7 203.45 280.6 203.3 280.6 202.85 M279.7 202.0 L280.1 201.3 Q279.7 201.25 279.25 201.7 L279.7 202.0 M279.9 202.45 L279.8 202.2 279.05 202.8 279.4 203.3 279.9 202.45" fill="#e7d083" fill-rule="evenodd" stroke="none"/>
    <path d="M283.2 195.4 L283.2 194.8 Q282.15 198.1 280.1 201.3 L279.7 202.0 279.8 202.2 281.35 199.7 Q282.65 197.35 283.2 195.4" fill="#ffffff" fill-rule="evenodd" stroke="none"/>
    <path d="M283.2 194.8 L283.35 194.45 Q283.5 198.4 282.35 202.2 L282.2 202.65 Q281.85 203.1 281.15 202.95 L280.6 202.85 280.3 202.75 279.9 202.45 279.8 202.2 279.7 202.0 280.1 201.3 Q282.15 198.1 283.2 194.8" fill="none" stroke="#333333" stroke-linecap="round" stroke-linejoin="round" stroke-width="0.05"/>
    <path d="M279.0 202.6 L279.0 201.95 279.25 201.7 Q279.7 201.25 280.1 201.3 M281.85 204.0 L282.45 203.65 282.65 203.45 282.7 203.2 282.55 202.65 282.35 202.2" fill="none" stroke="#333333" stroke-linecap="round" stroke-linejoin="round" stroke-width="0.05"/>
    <path d="M279.25 201.7 L279.7 202.0 M279.8 202.2 L279.05 202.8 M279.4 203.3 L279.9 202.45 M280.3 202.75 L280.0 203.75 M280.6 202.85 L280.6 203.3 281.7 203.45 281.85 204.0 M281.25 204.05 L281.0 203.7 280.5 203.55 280.55 204.0 M282.45 203.65 L282.2 202.65" fill="none" stroke="#996600" stroke-linecap="round" stroke-linejoin="round" stroke-opacity="0.23137255" stroke-width="0.05"/>
    <path d="M282.75 206.15 Q285.15 204.95 286.9 203.2 L285.45 204.9 286.2 204.8 Q287.6 203.55 289.2 200.65 L289.6 199.95 289.9 199.6 Q287.65 204.45 284.55 207.75 L284.2 208.1 284.0 208.15 283.7 208.0 283.3 207.45 283.2 207.3 283.1 207.05 282.8 206.35 282.75 206.15" fill="#000000" fill-rule="evenodd" stroke="none"/>
    <path d="M289.2 200.65 Q287.6 203.55 286.2 204.8 L285.45 204.9 286.9 203.2 Q285.15 204.95 282.75 206.15 L282.65 205.9 282.6 204.95 285.0 204.0 Q287.4 202.55 289.2 200.65" fill="#999999" fill-rule="evenodd" stroke="none"/>
    <path d="M282.6 204.95 L282.65 205.9 282.35 205.85 282.4 204.45 282.7 204.6 282.6 204.95 M282.8 206.35 L283.1 207.05 282.3 208.15 282.1 207.75 281.9 207.15 282.15 206.55 282.8 206.35 M283.3 207.45 L283.7 208.0 283.7 208.5 283.3 209.4 283.15 209.25 282.55 208.55 283.3 207.45 M284.0 208.15 L284.2 208.1 284.55 207.75 284.5 208.45 284.2 209.3 284.05 209.55 283.7 209.55 284.0 208.6 284.0 208.15 M283.45 204.25 L283.0 204.45 282.2 203.75 Q283.1 203.55 283.45 204.25 M281.95 204.2 L282.1 205.8 281.8 206.65 281.7 205.85 Q281.65 205.05 281.85 204.55 L281.95 204.2" fill="#eddda5" fill-rule="evenodd" stroke="none"/>
    <path d="M282.65 205.9 L282.75 206.15 282.8 206.35 282.15 206.55 281.9 207.15 281.8 206.65 282.1 205.8 281.95 204.2 282.2 203.75 283.0 204.45 282.7 204.6 282.4 204.45 282.35 205.85 282.65 205.9 M283.1 207.05 L283.2 207.3 283.3 207.45 282.55 208.55 282.3 208.15 283.1 207.05 M283.7 208.0 L284.0 208.15 284.0 208.6 283.7 209.55 283.3 209.4 283.7 208.5 283.7 208.0" fill="#e7d083" fill-rule="evenodd" stroke="none"/>
    <path d="M289.2 200.65 Q287.4 202.55 285.0 204.0 L282.6 204.95 282.7 204.6 283.0 204.45 283.45 204.25 Q286.8 202.7 289.6 199.95 L289.2 200.65" fill="#ffffff" fill-rule="evenodd" stroke="none"/>
    <path d="M282.6 204.95 L282.65 205.9 282.75 206.15 282.8 206.35 283.1 207.05 283.2 207.3 283.3 207.45 283.7 208.0 284.0 208.15 284.2 208.1 284.55 207.75 Q287.65 204.45 289.9 199.6 L289.6 199.95 Q286.8 202.7 283.45 204.25 L283.0 204.45 282.7 204.6 282.6 204.95" fill="none" stroke="#333333" stroke-linecap="round" stroke-linejoin="round" stroke-width="0.05"/>
    <path d="M282.2 203.75 L281.95 204.2 281.85 204.55 M284.55 207.75 L284.5 208.45 284.2 209.3 284.05 209.55 283.7 209.55 283.3 209.4 283.15 209.25 M282.2 203.75 Q283.1 203.55 283.45 204.25" fill="none" stroke="#333333" stroke-linecap="round" stroke-linejoin="round" stroke-width="0.05"/>
    <path d="M282.7 204.6 L282.4 204.45 282.35 205.85 282.65 205.9 M283.0 204.45 L282.2 203.75 M281.95 204.2 L282.1 205.8 281.8 206.65 M281.9 207.15 L282.15 206.55 282.8 206.35 M282.3 208.15 L283.1 207.05 M284.0 208.15 L284.0 208.6 283.7 209.55 M283.3 207.45 L282.55 208.55 M283.7 208.0 L283.7 208.5 283.3 209.4" fill="none" stroke="#996600" stroke-linecap="round" stroke-linejoin="round" stroke-opacity="0.23137255" stroke-width="0.05"/>
    <path d="M264.15 208.6 L264.25 208.1 Q264.8 206.15 265.75 205.15 L266.45 204.9 265.65 206.15 Q266.75 204.8 268.75 203.55 L268.55 203.45 268.05 203.15 267.85 203.05 267.7 203.0 267.1 202.8 266.7 202.8 266.55 202.9 266.3 203.15 Q264.45 205.7 263.95 208.85 L264.15 208.6" fill="#000000" fill-rule="evenodd" stroke="none"/>
    <path d="M268.75 203.55 Q266.75 204.8 265.65 206.15 L266.45 204.9 265.75 205.15 Q264.8 206.15 264.25 208.1 265.4 206.65 267.25 205.3 L269.3 204.15 268.85 203.7 268.75 203.55" fill="#999999" fill-rule="evenodd" stroke="none"/>
    <path d="M266.3 203.15 L266.55 202.9 266.7 202.8 266.55 202.55 266.5 202.0 266.2 202.05 266.1 202.25 266.15 202.8 266.3 203.15 M267.1 202.8 L267.7 203.0 268.05 202.25 267.2 202.0 267.0 201.95 266.9 202.55 267.1 202.8 M268.05 203.15 L268.55 203.45 269.2 203.2 269.2 202.8 268.8 202.5 268.45 202.35 268.05 203.15 M269.3 204.15 L269.35 204.4 269.65 204.4 269.2 203.6 268.85 203.7 269.3 204.15 M269.1 204.55 L268.7 204.75 270.1 204.7 269.1 204.55 M269.55 203.05 L269.5 203.55 270.25 204.45 270.15 204.2 269.9 203.45 269.55 203.05" fill="#eddda5" fill-rule="evenodd" stroke="none"/>
    <path d="M266.7 202.8 L267.1 202.8 266.9 202.55 267.0 201.95 266.5 202.0 266.55 202.55 266.7 202.8 M267.7 203.0 L267.85 203.05 268.05 203.15 268.45 202.35 268.05 202.25 267.7 203.0 M268.55 203.45 L268.75 203.55 268.85 203.7 269.2 203.6 269.65 204.4 269.35 204.4 269.1 204.55 270.1 204.7 270.25 204.45 269.5 203.55 269.55 203.05 269.2 202.8 269.2 203.2 268.55 203.45" fill="#e7d083" fill-rule="evenodd" stroke="none"/>
    <path d="M264.25 208.1 L264.15 208.6 Q265.9 206.45 268.7 204.75 L269.1 204.55 269.35 204.4 269.3 204.15 267.25 205.3 Q265.4 206.65 264.25 208.1" fill="#ffffff" fill-rule="evenodd" stroke="none"/>
    <path d="M264.15 208.6 L263.95 208.85 Q264.45 205.7 266.3 203.15 L266.55 202.9 266.7 202.8 267.1 202.8 267.7 203.0 267.85 203.05 268.05 203.15 268.55 203.45 268.75 203.55 268.85 203.7 269.3 204.15 269.35 204.4 269.1 204.55 268.7 204.75 Q265.9 206.45 264.15 208.6" fill="none" stroke="#333333" stroke-linecap="round" stroke-linejoin="round" stroke-width="0.05"/>
    <path d="M270.25 204.45 L270.1 204.7 268.7 204.75 M270.15 204.2 L270.25 204.45 M267.0 201.95 L267.2 202.0 M266.3 203.15 L266.15 202.8 266.1 202.25 266.2 202.05 266.5 202.0 267.0 201.95" fill="none" stroke="#333333" stroke-linecap="round" stroke-linejoin="round" stroke-width="0.05"/>
    <path d="M269.55 203.05 L269.5 203.55 270.25 204.45 M270.1 204.7 L269.1 204.55 M269.35 204.4 L269.65 204.4 269.2 203.6 268.85 203.7 M269.2 202.8 L269.2 203.2 268.55 203.45 M268.45 202.35 L268.05 203.15 M268.05 202.25 L267.7 203.0 M266.5 202.0 L266.55 202.55 266.7 202.8 M267.0 201.95 L266.9 202.55 267.1 202.8" fill="none" stroke="#996600" stroke-linecap="round" stroke-linejoin="round" stroke-opacity="0.23137255" stroke-width="0.05"/>
    <path d="M267.9 190.5 L268.05 191.0 Q265.5 194.1 264.8 197.85 264.65 199.9 265.25 201.45 L266.05 201.35 266.8 199.35 Q268.2 197.2 271.3 196.1 L271.95 196.6 271.5 196.85 270.7 198.0 271.55 199.45 278.3 204.65 278.9 205.75 Q278.55 204.6 279.6 203.45 L279.0 202.5 279.4 201.7 279.6 202.0 280.25 202.75 281.75 202.95 282.05 203.65 281.65 204.25 281.65 205.2 282.05 204.15 282.85 204.5 282.6 205.35 Q282.9 207.35 283.9 208.1 283.05 208.0 283.85 209.6 L283.9 209.75 Q284.05 211.6 283.4 213.25 L282.45 216.0 Q279.35 215.9 276.95 213.65 275.7 210.1 272.95 208.85 271.65 210.7 270.95 213.3 L270.65 213.35 Q269.3 212.05 268.95 207.55 267.1 204.2 264.3 203.75 L264.05 204.15 263.15 203.4 262.75 202.3 Q262.45 200.8 262.65 199.0 263.3 194.25 267.35 189.55 L267.9 190.5" fill="#000000" fill-opacity="0.25882354" fill-rule="evenodd" stroke="none"/>
  </g>
</svg>
