<?xml version="1.0" encoding="UTF-8" standalone="no"?>
<svg xmlns:xlink="http://www.w3.org/1999/xlink" height="191.4px" width="223.45px" xmlns="http://www.w3.org/2000/svg">
  <g transform="matrix(1.0, 0.0, 0.0, 1.0, -115.2, -158.1)">
    <path d="M292.6 205.4 L297.25 207.45 298.0 207.75 297.85 209.2 Q298.05 218.8 302.9 225.05 306.9 230.15 311.65 234.5 315.5 238.0 321.05 239.55 323.4 240.15 326.7 238.15 L327.9 237.35 Q329.55 236.0 330.3 234.15 L331.8 229.45 Q333.55 233.05 334.7 237.2 337.2 246.7 337.95 257.4 L338.15 262.75 334.05 260.65 325.25 255.8 Q317.65 251.3 308.25 249.0 298.7 246.55 288.55 244.8 L289.1 244.0 Q290.25 243.35 290.7 241.2 291.8 235.75 289.7 233.05 284.25 232.45 282.4 233.85 280.0 235.6 280.15 237.55 280.4 242.3 283.9 244.55 L283.85 244.6 Q277.75 244.85 270.85 246.8 266.35 248.1 262.65 252.65 253.9 263.5 242.85 268.25 244.3 264.75 244.05 262.0 243.3 255.9 240.65 251.25 238.95 248.1 235.3 247.25 233.35 247.6 231.95 250.05 229.45 254.25 228.5 258.0 L205.55 245.05 Q203.9 241.4 201.75 238.1 198.7 233.35 195.0 229.25 L187.8 222.05 Q181.55 216.2 172.15 214.4 170.15 215.6 170.3 217.35 170.4 221.05 169.35 225.15 L167.7 224.95 Q165.6 224.4 164.4 223.05 L161.9 220.15 Q150.45 207.85 132.3 202.9 128.5 201.85 124.2 201.6 119.8 201.3 116.25 200.15 L116.35 199.9 Q126.85 197.15 137.55 195.05 L145.05 193.2 Q150.05 191.7 154.85 190.75 158.55 190.05 162.4 188.75 L163.95 188.2 Q161.7 191.3 160.3 194.4 158.3 198.8 159.7 201.4 162.25 206.2 170.15 203.35 L171.5 201.6 169.0 197.2 Q175.75 195.25 179.8 197.7 206.5 213.7 245.2 213.2 L248.35 205.65 249.9 205.9 Q267.8 214.45 292.6 205.4 M251.7 237.75 Q254.0 230.45 248.9 229.15 246.95 230.05 245.15 231.4 242.3 233.5 241.95 236.4 241.5 240.2 244.3 241.65 246.15 242.65 249.25 240.85 251.0 239.85 251.7 237.75" fill="#015454" fill-rule="evenodd" stroke="none"/>
    <path d="M292.6 205.4 Q267.8 214.45 249.9 205.9 L248.35 205.65 245.2 213.2 Q206.5 213.7 179.8 197.7 175.75 195.25 169.0 197.2 L171.5 201.6 170.15 203.35 Q162.25 206.2 159.7 201.4 158.3 198.8 160.3 194.4 161.7 191.3 163.95 188.2 L169.7 185.7 Q174.45 183.35 178.4 182.95 180.15 182.75 181.15 183.45 182.95 184.65 185.1 185.6 186.25 186.1 187.1 186.9 188.25 187.95 190.25 187.9 191.1 187.9 191.35 188.4 L192.65 190.8 194.8 194.2 Q198.0 198.85 205.35 197.2 208.35 187.2 203.05 182.2 L206.0 182.2 209.05 181.95 Q212.4 181.45 216.7 179.75 L218.9 182.3 Q224.9 188.6 232.45 193.45 236.05 195.8 240.2 197.45 243.2 198.65 247.05 198.65 249.4 198.65 249.95 197.8 255.3 189.45 252.2 184.15 249.1 178.75 245.0 174.25 237.85 166.35 226.5 163.55 235.0 162.75 244.25 160.5 246.35 159.95 248.95 158.6 L249.0 158.6 Q251.0 165.7 253.6 172.3 255.8 177.85 259.3 182.4 262.15 186.1 265.5 189.4 271.75 195.55 280.1 199.6 L292.6 205.4 M205.55 245.05 L228.5 258.0 Q227.6 261.6 228.05 264.7 228.5 268.05 230.1 270.45 231.6 272.65 234.7 273.05 237.0 273.35 240.05 271.6 241.85 270.5 242.7 268.65 L242.85 268.25 Q253.9 263.5 262.65 252.65 266.35 248.1 270.85 246.8 277.75 244.85 283.85 244.6 L283.95 244.6 Q285.5 245.5 287.75 244.65 L288.55 244.8 Q298.7 246.55 308.25 249.0 317.65 251.3 325.25 255.8 L334.05 260.65 338.15 262.75 Q338.2 270.95 337.25 284.55 L306.95 302.2 306.95 301.75 307.95 299.7 Q311.6 289.5 312.45 279.55 312.85 274.9 312.7 270.55 L312.6 261.25 Q312.7 255.1 307.25 254.5 302.05 261.25 301.1 268.05 L299.0 280.3 Q295.55 280.55 291.45 283.05 L290.25 283.3 Q287.7 282.25 286.55 279.5 285.65 277.4 285.2 275.05 283.7 268.3 281.05 262.6 280.45 261.3 279.2 260.8 278.5 260.55 278.3 260.95 270.5 274.15 269.05 286.0 L268.3 285.3 Q266.65 283.55 263.0 285.4 261.6 286.05 261.4 287.35 258.6 301.35 263.2 310.95 264.05 312.85 265.5 314.25 267.1 315.85 265.9 318.25 L262.75 319.4 251.3 323.9 243.85 326.45 Q237.6 328.2 231.3 331.95 L229.35 332.9 Q227.8 333.5 227.4 332.5 225.05 325.95 221.55 320.4 219.25 316.8 217.55 312.7 215.45 307.5 211.0 305.35 L210.25 306.05 Q209.4 307.5 208.95 308.9 203.7 325.45 205.8 339.0 L204.25 339.55 Q196.55 341.75 188.6 346.35 L183.8 349.0 184.4 347.5 185.55 344.75 186.95 341.1 Q192.8 324.05 195.55 308.3 196.0 305.7 195.95 303.4 L195.55 299.55 Q194.4 292.0 193.95 284.0 193.8 281.0 193.0 278.5 L187.45 261.1 Q185.8 255.8 181.75 253.05 187.35 255.4 192.9 258.1 196.6 259.85 199.95 262.0 202.8 263.8 206.1 265.0 L209.95 265.25 Q210.6 263.1 210.4 261.55 208.95 252.55 205.55 245.05" fill="#014342" fill-rule="evenodd" stroke="none"/>
    <path d="M116.35 199.9 L116.25 200.15 116.3 199.9 116.35 199.9 M283.85 244.6 L283.9 244.55 283.95 244.6 283.85 244.6 M289.1 244.0 L288.55 244.8 287.75 244.65 289.1 244.0" fill="#666637" fill-rule="evenodd" stroke="none"/>
    <path d="M338.15 262.75 L337.95 257.4 Q337.2 246.7 334.7 237.2 333.55 233.05 331.8 229.45 L330.3 234.15 Q329.55 236.0 327.9 237.35 L326.7 238.15 Q323.4 240.15 321.05 239.55 315.5 238.0 311.65 234.5 306.9 230.15 302.9 225.05 298.05 218.8 297.85 209.2 L298.0 207.75 297.25 207.45 292.6 205.4 280.1 199.6 Q271.75 195.55 265.5 189.4 262.15 186.1 259.3 182.4 255.8 177.85 253.6 172.3 251.0 165.7 249.0 158.6 L248.95 158.6 Q246.35 159.95 244.25 160.5 235.0 162.75 226.5 163.55 237.85 166.35 245.0 174.25 249.1 178.75 252.2 184.15 255.3 189.45 249.95 197.8 249.4 198.65 247.05 198.65 243.2 198.65 240.2 197.45 236.05 195.8 232.45 193.45 224.9 188.6 218.9 182.3 L216.7 179.75 Q212.4 181.45 209.05 181.95 L206.0 182.2 203.05 182.2 Q208.35 187.2 205.35 197.2 198.0 198.85 194.8 194.2 L192.65 190.8 191.35 188.4 Q191.1 187.9 190.25 187.9 188.25 187.95 187.1 186.9 186.25 186.1 185.1 185.6 182.95 184.65 181.15 183.45 180.15 182.75 178.4 182.95 174.45 183.35 169.7 185.7 L163.95 188.2 162.4 188.75 Q158.55 190.05 154.85 190.75 150.05 191.7 145.05 193.2 L137.55 195.05 Q126.85 197.15 116.35 199.9 L116.3 199.9 115.7 200.1 116.25 200.15 Q119.8 201.3 124.2 201.6 128.5 201.85 132.3 202.9 150.45 207.85 161.9 220.15 L164.4 223.05 Q165.6 224.4 167.7 224.95 L169.35 225.15 Q170.4 221.05 170.3 217.35 170.15 215.6 172.15 214.4 181.55 216.2 187.8 222.05 L195.0 229.25 Q198.7 233.35 201.75 238.1 203.9 241.4 205.55 245.05 208.95 252.55 210.4 261.55 210.6 263.1 209.95 265.25 L206.1 265.0 Q202.8 263.8 199.95 262.0 196.6 259.85 192.9 258.1 187.35 255.4 181.75 253.05 185.8 255.8 187.45 261.1 L193.0 278.5 Q193.8 281.0 193.95 284.0 194.4 292.0 195.55 299.55 L195.95 303.4 Q196.0 305.7 195.55 308.3 192.8 324.05 186.95 341.1 L185.55 344.75 184.4 347.5 183.8 349.0 188.6 346.35 Q196.55 341.75 204.25 339.55 L205.8 339.0 Q203.7 325.45 208.95 308.9 209.4 307.5 210.25 306.05 L211.0 305.35 Q215.45 307.5 217.55 312.7 219.25 316.8 221.55 320.4 225.05 325.95 227.4 332.5 227.8 333.5 229.35 332.9 L231.3 331.95 Q237.6 328.2 243.85 326.45 L251.3 323.9 262.75 319.4 265.9 318.25 Q267.1 315.85 265.5 314.25 264.05 312.85 263.2 310.95 258.6 301.35 261.4 287.35 261.6 286.05 263.0 285.4 266.65 283.55 268.3 285.3 L269.05 286.0 Q270.5 274.15 278.3 260.95 278.5 260.55 279.2 260.8 280.45 261.3 281.05 262.6 283.7 268.3 285.2 275.05 285.65 277.4 286.55 279.5 287.7 282.25 290.25 283.3 L291.45 283.05 Q295.55 280.55 299.0 280.3 L301.1 268.05 Q302.05 261.25 307.25 254.5 312.7 255.1 312.6 261.25 L312.7 270.55 Q312.85 274.9 312.45 279.55 311.6 289.5 307.95 299.7 L306.95 301.75 306.55 302.45 306.95 302.2 337.25 284.55 Q338.2 270.95 338.15 262.75 M228.5 258.0 Q229.45 254.25 231.95 250.05 233.35 247.6 235.3 247.25 238.95 248.1 240.65 251.25 243.3 255.9 244.05 262.0 244.3 264.75 242.85 268.25 L242.7 268.65 Q241.85 270.5 240.05 271.6 237.0 273.35 234.7 273.05 231.6 272.65 230.1 270.45 228.5 268.05 228.05 264.7 227.6 261.6 228.5 258.0 M283.9 244.55 Q280.4 242.3 280.15 237.55 280.0 235.6 282.4 233.85 284.25 232.45 289.7 233.05 291.8 235.75 290.7 241.2 290.25 243.35 289.1 244.0 L287.75 244.65 Q285.5 245.5 283.95 244.6 L283.9 244.55 M251.7 237.75 Q251.0 239.85 249.25 240.85 246.15 242.65 244.3 241.65 241.5 240.2 241.95 236.4 242.3 233.5 245.15 231.4 246.95 230.05 248.9 229.15 254.0 230.45 251.7 237.75 Z" fill="none" stroke="#000000" stroke-linecap="round" stroke-linejoin="round" stroke-opacity="0.4" stroke-width="1.0"/>
    <path d="M251.2 172.15 L254.25 179.5 M244.95 163.3 L247.95 168.95 M147.05 200.7 L139.9 197.2 M166.2 217.6 L161.2 211.3 M157.45 207.75 L150.05 203.5 M197.95 271.95 L195.6 264.2 M330.3 243.0 L327.85 237.35 M267.55 194.5 L274.1 199.0 M289.95 207.65 L295.35 210.7 M279.3 202.0 L285.25 205.65 M194.75 338.25 L198.2 325.55 M200.7 316.4 L202.25 303.0 M333.75 280.4 L333.75 270.55 M334.05 260.65 L332.7 250.8 M201.9 293.8 L200.5 280.4 M259.15 185.0 L262.6 190.5" fill="none" stroke="#cccc00" stroke-linecap="round" stroke-linejoin="round" stroke-width="1.0"/>
  </g>
</svg>
