<?xml version="1.0" encoding="UTF-8" standalone="no"?>
<svg xmlns:xlink="http://www.w3.org/1999/xlink" height="22.05px" width="13.2px" xmlns="http://www.w3.org/2000/svg">
  <g transform="matrix(1.0, 0.0, 0.0, 1.0, 6.95, 13.4)">
    <path d="M1.3 -9.45 L1.55 -7.85 1.6 -7.7 1.85 -6.95 1.95 -6.7 Q2.5 -5.4 3.4 -4.95 L-0.35 -3.65 Q-1.6 -5.0 -2.1 -7.0 L-2.1 -7.05 -2.2 -7.05 Q-2.45 -6.6 -1.8 -4.15 L-1.5 -3.25 -2.05 -3.05 -4.2 -2.35 -4.15 -2.4 -4.2 -2.4 Q-6.1 -3.7 -6.6 -6.1 L-6.8 -7.15 -3.45 -7.95 Q-0.45 -8.75 1.3 -9.45 M3.05 -13.35 L3.1 -13.35 3.05 -13.35" fill="#ce942a" fill-rule="evenodd" stroke="none"/>
    <path d="M3.05 -13.35 Q1.95 -12.4 1.5 -11.25 1.2 -10.5 1.3 -9.45 -0.45 -8.75 -3.45 -7.95 L-6.8 -7.15 -6.95 -8.55 -6.85 -9.45 Q-6.6 -11.05 -5.85 -11.65 L-2.05 -12.85 2.7 -13.35 3.05 -13.35" fill="#ecd74f" fill-rule="evenodd" stroke="none"/>
    <path d="M1.55 -7.85 L2.9 -8.05 4.05 -8.05 5.95 -7.75 6.2 -6.15 Q6.7 -1.1 1.45 7.6 L-3.6 8.65 -4.0 8.25 Q-2.8 5.7 -2.25 3.1 -1.6 0.15 -2.05 -3.05 L-1.5 -3.25 -1.8 -4.15 Q-2.45 -6.6 -2.2 -7.05 L-2.1 -7.0 Q-1.6 -5.0 -0.35 -3.65 L3.4 -4.95 Q2.5 -5.4 1.95 -6.7 L1.85 -6.95 1.6 -7.7 1.55 -7.85" fill="#844b15" fill-rule="evenodd" stroke="none"/>
    <path d="M3.05 -13.35 L3.25 -13.3 Q5.25 -12.05 5.95 -7.75 L4.05 -8.05 2.9 -8.05 1.55 -7.85 1.3 -9.45 Q1.2 -10.5 1.5 -11.25 1.95 -12.4 3.05 -13.35" fill="#57320f" fill-rule="evenodd" stroke="none"/>
    <path d="M5.95 -7.75 Q5.25 -12.05 3.25 -13.3 L3.05 -13.35 Q1.95 -12.4 1.5 -11.25 1.2 -10.5 1.3 -9.45 L1.55 -7.85 1.6 -7.7 1.85 -6.95 1.95 -6.7 Q2.5 -5.4 3.4 -4.95 L-0.35 -3.65 Q-1.6 -5.0 -2.1 -7.0 L-2.1 -7.05 -2.2 -7.05 Q-2.45 -6.6 -1.8 -4.15 L-1.5 -3.25 -2.05 -3.05 -4.2 -2.35 -4.15 -2.4 -4.2 -2.4 Q-6.1 -3.7 -6.6 -6.1 L-6.8 -7.15 -6.95 -8.55 -6.85 -9.45 Q-6.6 -11.05 -5.85 -11.65 L-2.05 -12.85 2.7 -13.35 3.05 -13.35 3.1 -13.35 3.25 -13.3 M5.95 -7.75 L6.2 -6.15 Q6.7 -1.1 1.45 7.6 L-3.6 8.65 M-4.0 8.25 Q-2.8 5.7 -2.25 3.1 -1.6 0.15 -2.05 -3.05" fill="none" stroke="#000000" stroke-linecap="round" stroke-linejoin="round" stroke-opacity="0.4" stroke-width="0.05"/>
  </g>
</svg>
