<?xml version="1.0" encoding="UTF-8" standalone="no"?>
<svg xmlns:xlink="http://www.w3.org/1999/xlink" height="39.9px" width="40.2px" xmlns="http://www.w3.org/2000/svg">
  <g transform="matrix(1.0, 0.0, 0.0, 1.0, -254.85, -180.0)">
    <path d="M257.3 192.85 L257.2 193.0 257.3 192.85 M265.05 186.4 L265.05 186.3 265.05 186.4" fill="#cccccc" fill-rule="evenodd" stroke="none"/>
    <path d="M257.2 193.0 Q255.35 196.65 255.35 200.9 255.35 208.45 261.0 213.8 L262.05 214.65 263.05 215.45 Q265.15 217.05 267.6 218.0 270.4 219.15 273.7 219.3 L275.0 219.4 Q283.0 219.3 288.65 213.8 294.55 208.45 294.55 200.9 294.55 196.35 292.45 192.6 L291.55 191.1 290.85 190.25 292.4 184.35 287.8 187.1 285.5 185.4 285.15 185.2 285.15 185.15 Q285.25 183.5 282.9 182.2 L282.6 181.95 Q279.95 180.65 276.15 180.5 272.35 180.35 269.65 181.5 267.25 182.6 266.85 184.05 264.75 184.9 262.9 186.3 L260.1 183.45 260.0 188.85 Q258.6 190.4 257.6 192.15 L257.3 192.85 257.2 193.0 257.3 192.85 M285.1 197.9 L285.55 200.85 Q285.55 203.8 282.55 205.8 279.8 208.0 275.85 208.0 L273.05 207.65 Q270.65 207.2 268.7 205.8 266.0 203.8 266.05 200.85 266.0 198.6 267.6 196.7 L267.8 196.55 268.7 195.7 Q269.95 194.85 271.35 194.4 273.35 193.7 275.8 193.7 L275.85 193.7 Q279.65 193.7 282.55 195.65 L283.95 196.7 285.1 197.9 Z" fill="none" stroke="#000000" stroke-linecap="round" stroke-linejoin="round" stroke-width="1.0"/>
    <path d="M266.85 184.05 Q267.25 182.6 269.65 181.5 272.35 180.35 276.15 180.5 279.95 180.65 282.6 181.95 285.25 183.35 285.15 185.15 L285.15 185.2 285.15 185.4 285.1 185.4 285.15 185.4 285.0 186.0 284.95 185.9 285.1 185.4 285.1 185.15 Q285.15 183.5 282.9 182.2 283.45 182.8 283.55 183.6 L283.55 183.9 283.55 184.3 283.45 184.5 283.4 184.7 282.55 184.35 Q279.8 183.35 276.1 183.3 272.3 183.1 269.55 183.9 268.65 184.15 268.1 184.45 268.25 184.05 268.55 183.75 L269.1 183.3 270.4 182.5 Q273.0 181.4 276.55 181.55 279.95 181.65 282.4 182.9 L282.45 182.95 282.85 183.1 283.55 183.6 Q283.1 182.95 282.05 182.4 L281.75 182.2 Q279.25 180.95 275.8 180.85 272.3 180.7 269.7 181.8 267.7 182.65 267.25 183.9 L267.15 184.2 267.15 184.6 267.15 185.05 266.9 185.4 266.85 184.9 266.85 184.5 266.85 184.35 266.85 184.05" fill="#252525" fill-rule="evenodd" stroke="none"/>
    <path d="M268.1 184.45 L267.95 184.7 267.85 185.3 267.95 186.05 268.1 186.4 268.25 186.6 268.45 186.95 268.0 186.55 267.6 186.05 267.7 186.15 267.25 185.4 267.15 185.05 267.15 184.6 267.15 184.2 267.25 183.9 Q267.7 182.65 269.7 181.8 272.3 180.7 275.8 180.85 279.25 180.95 281.75 182.2 L282.05 182.4 Q283.1 182.95 283.55 183.6 L283.6 183.65 283.55 183.6 282.85 183.1 282.45 182.95 282.4 182.9 Q279.95 181.65 276.55 181.55 273.0 181.4 270.4 182.5 L269.1 183.3 268.55 183.75 Q268.25 184.05 268.1 184.45" fill="#707070" fill-rule="evenodd" stroke="none"/>
    <path d="M283.4 184.7 L283.4 184.75 Q282.85 185.9 280.75 186.85 278.75 187.7 276.1 187.95 L274.2 187.95 272.05 187.8 Q269.95 187.4 268.25 186.6 L268.1 186.4 267.95 186.05 267.85 185.3 267.95 184.7 268.1 184.45 Q268.65 184.15 269.55 183.9 272.3 183.1 276.1 183.3 279.8 183.35 282.55 184.35 L283.4 184.7 M268.0 186.55 L267.8 186.4 267.45 186.25 266.9 185.4 267.15 185.05 267.25 185.4 267.7 186.15 267.6 186.05 268.0 186.55" fill="#151515" fill-rule="evenodd" stroke="none"/>
    <path d="M268.25 186.6 Q269.95 187.4 272.05 187.8 L274.2 187.95 276.1 187.95 Q278.75 187.7 280.75 186.85 282.85 185.9 283.4 184.75 L283.4 184.7 283.45 184.5 283.55 184.3 283.55 183.9 283.55 183.6 Q283.45 182.8 282.9 182.2 285.15 183.5 285.1 185.15 L285.1 185.4 284.95 185.9 284.95 186.0 Q284.4 187.15 282.3 188.1 L280.1 188.8 277.7 189.2 277.65 189.2 275.85 189.2 275.8 189.2 274.05 189.05 273.7 189.05 273.6 189.05 Q271.2 188.65 269.35 187.65 268.0 186.95 267.3 186.15 L267.45 186.25 267.8 186.4 268.0 186.55 268.45 186.95 268.25 186.6 M283.55 183.6 L283.6 183.65 283.55 183.6" fill="#000000" fill-rule="evenodd" stroke="none"/>
    <path d="M287.8 187.1 Q287.45 187.3 287.05 187.55 L287.05 187.7 286.4 186.85 286.5 187.25 Q286.4 188.7 283.15 189.9 279.8 190.95 275.45 190.8 L280.8 189.9 Q284.1 188.7 284.15 187.25 L284.15 187.1 285.0 186.0 285.15 185.4 285.15 185.2 285.5 185.4 287.8 187.1 M290.85 190.25 L291.55 191.1 292.45 192.6 Q292.55 193.9 290.15 191.8 288.9 190.75 287.8 190.4 288.65 190.4 288.1 189.9 288.2 190.05 288.45 190.1 289.9 191.05 290.75 190.6 L290.85 190.25 M286.4 186.85 L285.95 186.05 285.15 185.4 285.95 186.05 286.4 186.85 M285.1 197.95 Q287.25 200.6 287.35 204.15 287.25 208.6 283.95 211.65 L281.9 213.1 Q278.05 212.7 275.1 210.05 273.85 209.0 273.05 207.65 L275.85 208.0 Q279.8 208.0 282.55 205.8 285.55 203.8 285.55 200.85 285.55 199.35 284.85 198.1 L285.1 197.95" fill="#666666" fill-rule="evenodd" stroke="none"/>
    <path d="M280.1 188.8 L282.3 188.1 Q284.4 187.15 284.95 186.0 L284.95 185.9 285.0 186.0 284.15 187.1 282.4 188.1 280.1 188.8" fill="#2b2b2b" fill-rule="evenodd" stroke="none"/>
    <path d="M287.05 187.7 Q287.05 188.55 287.45 189.2 L287.8 189.4 Q289.3 190.35 290.15 189.9 L291.25 185.05 292.4 184.35 290.85 190.25 290.75 190.6 Q289.9 191.05 288.45 190.1 288.2 190.05 288.1 189.9 288.65 190.4 287.8 190.4 L287.35 190.35 286.55 190.35 Q286.1 190.35 285.7 190.6 280.75 192.9 276.0 192.9 277.15 191.8 272.15 190.4 L275.0 190.75 275.45 190.8 275.0 190.75 272.15 190.4 271.05 190.2 272.3 189.9 274.05 189.05 275.6 189.2 275.85 189.2 277.65 189.2 277.7 189.2 280.1 188.8 282.4 188.1 284.15 187.1 284.15 187.25 Q284.1 188.7 280.8 189.9 L275.45 190.8 Q279.8 190.95 283.15 189.9 286.4 188.7 286.5 187.25 L286.4 186.85 287.05 187.7 M261.0 184.35 L263.25 186.75 263.65 187.15 264.05 187.55 264.2 187.7 Q264.35 188.85 262.75 189.65 264.35 188.85 264.2 187.7 L264.05 187.55 266.3 188.25 267.45 188.95 267.6 189.05 Q265.5 188.7 262.75 189.65 L262.55 189.7 261.85 189.95 261.25 190.1 260.95 190.1 260.3 189.9 260.0 189.65 260.0 188.85 260.15 188.85 Q261.7 188.8 262.1 187.8 L261.0 184.35 M287.45 189.2 L287.8 189.65 288.1 189.9 287.8 189.65 287.45 189.2" fill="#8c8c8c" fill-rule="evenodd" stroke="none"/>
    <path d="M257.2 193.0 L257.3 192.85 Q258.55 191.1 260.3 189.9 L260.95 190.1 261.25 190.1 261.85 189.95 262.55 189.7 262.75 189.65 Q265.5 188.7 267.6 189.05 L267.45 188.95 266.3 188.25 264.05 187.55 263.65 187.15 265.05 186.45 265.05 186.4 265.05 186.3 265.05 186.4 265.05 186.3 Q265.3 185.45 266.85 184.9 L266.9 185.4 267.45 186.25 267.3 186.15 Q268.0 186.95 269.35 187.65 271.2 188.65 273.6 189.05 L273.7 189.05 274.05 189.05 275.8 189.2 275.85 189.2 277.65 189.2 275.85 189.2 275.6 189.2 274.05 189.05 272.3 189.9 271.05 190.2 272.15 190.4 Q277.15 191.8 276.0 192.9 271.45 192.85 267.0 190.6 265.5 189.4 263.35 190.25 262.95 190.35 262.55 190.6 261.5 191.05 260.25 192.0 256.5 194.75 257.2 193.0 L257.3 192.85 257.2 193.0 M260.1 183.5 L260.1 183.45 261.0 184.35 262.1 187.8 Q261.7 188.8 260.15 188.85 L260.65 188.0 260.1 183.5 M265.05 186.45 Q265.05 187.3 266.3 188.25 265.05 187.3 265.05 186.45 M267.6 189.05 L268.0 189.2 271.05 190.2 268.0 189.2 267.6 189.05" fill="#cccccc" fill-rule="evenodd" stroke="none"/>
    <path d="M257.3 192.85 L257.6 192.15 Q258.6 190.4 260.0 188.85 L260.1 183.5 260.65 188.0 260.15 188.85 260.0 188.85 260.0 189.65 260.3 189.9 Q258.55 191.1 257.3 192.85 M263.25 186.75 L262.9 186.3 Q264.75 184.9 266.85 184.05 L266.85 184.35 266.85 184.5 266.85 184.9 Q265.3 185.45 265.05 186.3 L265.05 186.4 265.05 186.45 263.65 187.15 263.25 186.75 M266.85 184.35 Q265.05 185.15 265.05 186.3 265.05 185.15 266.85 184.35" fill="#eaeaea" fill-rule="evenodd" stroke="none"/>
    <path d="M267.6 218.0 Q265.15 217.05 263.05 215.45 L262.05 214.65 261.0 213.8 Q255.35 208.45 255.35 200.9 255.35 196.65 257.2 193.0 256.5 194.75 260.25 192.0 261.5 191.05 262.55 190.6 262.95 190.35 263.35 190.25 258.45 195.45 258.45 202.45 258.45 210.0 264.15 215.35 L267.6 218.0 M281.9 213.1 L281.45 213.4 Q279.05 214.35 276.3 214.75 L276.15 214.75 275.95 214.75 275.8 214.75 Q271.05 214.75 267.6 211.65 264.3 208.6 264.3 204.15 264.3 199.75 267.6 196.7 266.0 198.6 266.05 200.85 266.0 203.8 268.7 205.8 270.65 207.2 273.05 207.65 273.85 209.0 275.1 210.05 278.05 212.7 281.9 213.1" fill="#454545" fill-rule="evenodd" stroke="none"/>
    <path d="M273.7 219.3 Q270.4 219.15 267.6 218.0 L264.15 215.35 Q258.45 210.0 258.45 202.45 258.45 195.45 263.35 190.25 265.5 189.4 267.0 190.6 271.45 192.85 276.0 192.9 280.75 192.9 285.7 190.6 286.1 190.35 286.55 190.35 L287.35 190.35 287.45 190.4 286.55 190.35 287.45 190.4 Q291.15 195.15 291.15 201.2 291.15 208.7 285.55 213.9 280.6 218.95 273.7 219.3 M285.1 197.95 L285.1 197.9 283.95 196.7 282.55 195.65 Q279.65 193.7 275.85 193.7 L275.8 193.7 Q273.35 193.7 271.35 194.4 269.95 194.85 268.7 195.7 L267.8 196.55 267.6 196.7 Q264.3 199.75 264.3 204.15 264.3 208.6 267.6 211.65 271.05 214.75 275.8 214.75 L275.95 214.75 276.15 214.75 276.3 214.75 Q279.05 214.35 281.45 213.4 L281.9 213.1 283.95 211.65 Q287.25 208.6 287.35 204.15 287.25 200.6 285.1 197.95" fill="#272727" fill-rule="evenodd" stroke="none"/>
    <path d="M292.45 192.6 Q294.55 196.35 294.55 200.9 294.55 208.45 288.65 213.8 283.0 219.3 275.0 219.4 L273.7 219.3 Q280.6 218.95 285.55 213.9 291.15 208.7 291.15 201.2 291.15 195.15 287.45 190.4 L287.35 190.35 287.8 190.4 Q288.9 190.75 290.15 191.8 292.55 193.9 292.45 192.6 M287.8 190.4 L287.45 190.4 287.8 190.4" fill="#1b1b1b" fill-rule="evenodd" stroke="none"/>
    <path d="M287.8 187.1 L291.25 185.05 290.15 189.9 Q289.3 190.35 287.8 189.4 L287.45 189.2 Q287.05 188.55 287.05 187.7 L287.05 187.55 Q287.45 187.3 287.8 187.1" fill="#bcbcbc" fill-rule="evenodd" stroke="none"/>
    <path d="M291.25 185.05 L287.8 187.1 Q287.45 187.3 287.05 187.55 L287.05 187.7 Q287.05 188.55 287.45 189.2 L287.8 189.65 288.1 189.9 Q288.2 190.05 288.45 190.1 289.9 191.05 290.75 190.6 L290.85 190.25 291.55 191.1 292.45 192.6 Q294.55 196.35 294.55 200.9 294.55 208.45 288.65 213.8 283.0 219.3 275.0 219.4 L273.7 219.3 Q270.4 219.15 267.6 218.0 265.15 217.05 263.05 215.45 L262.05 214.65 261.0 213.8 Q255.35 208.45 255.35 200.9 255.35 196.65 257.2 193.0 L257.3 192.85 257.6 192.15 Q258.6 190.4 260.0 188.85 L260.1 183.5 260.1 183.45 261.0 184.35 263.25 186.75 263.65 187.15 264.05 187.55 264.2 187.7 Q264.35 188.85 262.75 189.65 L262.55 189.7 261.85 189.95 261.25 190.1 260.95 190.1 260.3 189.9 260.0 189.65 260.0 188.85 M291.25 185.05 L292.4 184.35 290.85 190.25 M262.9 186.3 Q264.75 184.9 266.85 184.05 267.25 182.6 269.65 181.5 272.35 180.35 276.15 180.5 279.95 180.65 282.6 181.95 285.25 183.35 285.15 185.15 L285.15 185.2 285.5 185.4 287.8 187.1 M286.4 186.85 L286.5 187.25 Q286.4 188.7 283.15 189.9 279.8 190.95 275.45 190.8 L275.0 190.75 272.15 190.4 271.05 190.2 268.0 189.2 267.6 189.05 267.45 188.95 266.3 188.25 Q265.05 187.3 265.05 186.45 L265.05 186.4 265.05 186.3 Q265.05 185.15 266.85 184.35 L266.85 184.05 M276.0 192.9 Q280.75 192.9 285.7 190.6 286.1 190.35 286.55 190.35 L287.35 190.35 287.8 190.4 Q288.9 190.75 290.15 191.8 292.55 193.9 292.45 192.6 M267.3 186.15 Q268.0 186.95 269.35 187.65 271.2 188.65 273.6 189.05 L273.7 189.05 274.05 189.05 275.8 189.2 275.85 189.2 277.65 189.2 277.7 189.2 280.1 188.8 282.3 188.1 Q284.4 187.15 284.95 186.0 L284.95 185.9 285.1 185.4 285.1 185.15 Q285.15 183.5 282.9 182.2 M285.1 185.4 L285.15 185.4 285.15 185.2 M285.0 186.0 L285.15 185.4 285.95 186.05 286.4 186.85 M280.1 188.8 L282.4 188.1 284.15 187.1 285.0 186.0 M267.6 196.7 L267.8 196.55 268.7 195.7 Q269.95 194.85 271.35 194.4 273.35 193.7 275.8 193.7 L275.85 193.7 Q279.65 193.7 282.55 195.65 L283.95 196.7 285.1 197.9 285.1 197.95 Q287.25 200.6 287.35 204.15 287.25 208.6 283.95 211.65 L281.9 213.1 281.45 213.4 Q279.05 214.35 276.3 214.75 L276.15 214.75 275.95 214.75 275.8 214.75 Q271.05 214.75 267.6 211.65 264.3 208.6 264.3 204.15 264.3 199.75 267.6 196.7 266.0 198.6 266.05 200.85 266.0 203.8 268.7 205.8 270.65 207.2 273.05 207.65 L275.85 208.0 Q279.8 208.0 282.55 205.8 285.55 203.8 285.55 200.85 285.55 199.35 284.85 198.1 M285.1 197.9 L282.55 195.7 Q279.8 193.7 275.85 193.75 273.45 193.7 271.35 194.4 269.4 195.1 267.8 196.55 M277.65 189.2 L275.85 189.2 275.6 189.2 M287.45 190.4 L287.8 190.4 M287.45 190.4 L286.55 190.35 M265.05 186.4 L265.05 186.3 M266.85 184.35 L266.85 184.5 266.85 184.9 266.9 185.4 267.45 186.25 M257.3 192.85 L257.2 193.0 Q256.5 194.75 260.25 192.0 261.5 191.05 262.55 190.6 262.95 190.35 263.35 190.25 265.5 189.4 267.0 190.6 271.45 192.85 276.0 192.9" fill="none" stroke="#000000" stroke-linecap="round" stroke-linejoin="round" stroke-width="0.05"/>
  </g>
</svg>
