<?xml version="1.0" encoding="UTF-8" standalone="no"?>
<svg xmlns:xlink="http://www.w3.org/1999/xlink" height="37.95px" width="100.65px" xmlns="http://www.w3.org/2000/svg">
  <g transform="matrix(1.0, 0.0, 0.0, 1.0, -333.6, -192.7)">
    <path d="M373.0 201.15 L372.9 200.85 372.85 200.55 373.0 201.15" fill="#ffffff" fill-rule="evenodd" stroke="none"/>
    <path d="M334.75 196.2 Q336.75 194.75 339.75 194.2 L349.95 193.5 Q355.0 193.45 361.05 193.7 L369.5 194.0 391.5 196.2 Q391.85 194.95 393.4 194.3 394.55 193.75 396.0 193.5 401.25 193.2 406.65 193.4 408.95 193.7 410.75 194.55 411.45 194.9 411.45 195.45 411.55 197.55 414.5 197.75 L429.0 198.8 Q432.4 199.0 433.65 201.0 433.05 202.3 430.9 203.0 L426.35 204.5 Q422.4 205.75 415.3 204.65 408.15 203.5 405.8 203.85 411.4 203.7 415.65 205.85 417.8 206.95 417.8 208.85 417.8 211.05 415.15 212.0 L416.1 212.7 Q419.75 215.6 418.55 218.8 417.3 221.9 411.85 223.5 406.65 225.0 400.35 224.05 394.05 223.05 390.35 220.1 386.9 217.15 388.15 214.05 389.05 211.7 392.2 210.25 388.0 208.8 384.2 207.0 L382.95 206.85 Q380.6 207.3 380.85 209.1 382.5 210.2 383.05 211.8 383.25 212.4 382.95 213.1 382.55 214.15 381.15 214.55 378.75 215.3 376.0 215.4 L361.65 214.9 Q362.3 215.85 361.8 216.85 360.85 218.65 356.4 219.4 352.05 220.15 346.75 219.45 341.45 218.7 338.3 216.95 335.25 215.1 336.2 213.35 337.15 211.5 341.5 210.75 346.0 209.95 351.3 210.7 L354.05 211.2 352.15 208.85 Q351.65 208.0 352.0 207.2 353.25 206.6 354.6 206.85 357.75 207.45 359.7 205.95 359.05 203.7 355.65 203.25 L347.8 202.65 Q340.5 202.3 335.25 198.8 334.45 198.3 334.25 197.45 334.05 196.7 334.75 196.2 M407.5 212.7 L406.0 211.95 Q402.4 210.95 399.35 212.45 398.2 213.0 397.2 213.9 396.75 215.2 396.65 216.55 396.6 217.55 397.1 218.35 L397.6 218.9 399.75 219.8 407.5 218.9 408.7 217.55 409.2 216.55 Q409.5 215.7 409.25 214.9 L408.9 213.7 408.25 213.15 407.5 212.7 M405.05 207.65 L405.2 207.05 405.05 206.45 404.9 206.15 404.5 205.55 404.0 205.3 400.0 204.65 400.0 204.7 399.1 204.95 398.7 205.15 Q398.15 205.6 398.05 206.35 L398.05 206.95 398.2 207.55 399.45 208.45 Q401.9 208.25 404.55 208.5 L404.9 207.95 405.05 207.65 M425.45 202.05 L425.6 201.45 Q425.65 200.95 425.35 200.55 L424.9 199.95 424.4 199.7 423.6 199.45 423.6 199.5 422.3 199.95 Q421.85 200.3 421.7 200.85 421.45 201.6 421.8 202.35 423.05 204.15 424.9 202.95 L425.45 202.05 M404.9 196.35 L404.4 196.15 402.4 195.85 401.5 196.1 401.1 196.35 Q400.4 196.95 400.4 197.85 L400.6 198.75 Q402.4 200.8 404.9 199.35 L405.3 198.75 405.55 198.15 405.6 197.85 405.45 197.25 405.15 196.65 404.9 196.35 M343.9 195.95 L343.45 196.6 Q343.05 197.3 343.3 198.05 L343.4 198.35 344.35 199.1 Q349.9 201.05 354.9 198.95 L355.3 198.35 355.55 197.75 355.6 197.45 355.45 196.85 355.15 196.25 354.9 195.95 Q354.65 195.8 354.4 195.8 L345.2 195.45 344.3 195.7 343.9 195.95 M372.85 200.55 L372.9 200.85 373.0 201.15 Q377.95 202.55 383.6 203.35 385.1 203.55 385.15 202.25 385.35 196.3 377.6 197.85 375.5 197.95 373.55 198.9 L373.0 199.35 372.85 199.95 372.85 200.55 M365.6 205.85 L364.7 206.0 Q363.5 206.15 362.6 206.85 362.15 207.2 362.0 207.75 363.4 215.15 372.45 213.15 375.45 212.5 374.6 209.55 373.0 204.0 365.6 205.85 M382.1 224.95 Q384.5 226.35 383.8 227.75 383.1 229.15 379.65 229.75 376.3 230.35 372.25 229.8 368.15 229.2 365.75 227.8 363.4 226.4 364.15 225.05 364.85 223.6 368.2 223.05 371.65 222.4 375.7 223.0 379.75 223.55 382.1 224.95 M353.95 214.35 L353.6 213.65 Q353.3 213.4 353.0 213.3 352.05 212.85 351.1 212.55 346.95 211.6 343.8 213.5 343.45 214.2 343.4 215.0 343.4 215.6 343.85 216.05 L344.3 216.4 346.1 217.0 352.55 216.65 353.55 215.9 353.95 215.3 Q354.15 214.8 353.95 214.35 M376.7 227.6 L377.45 227.0 377.75 226.6 Q377.95 226.2 377.75 225.85 L377.5 225.25 377.05 225.0 Q376.3 224.65 375.6 224.45 372.4 223.7 369.95 225.15 L369.65 226.35 Q369.65 226.8 370.0 227.15 L370.35 227.4 371.75 227.85 376.7 227.6" fill="#87723a" fill-rule="evenodd" stroke="none"/>
    <path d="M343.9 195.95 L344.3 195.7 345.2 195.45 354.4 195.8 Q354.65 195.8 354.9 195.95 L355.15 196.25 355.45 196.85 355.6 197.45 355.55 197.75 355.3 198.35 354.9 198.95 Q349.9 201.05 344.35 199.1 L343.4 198.35 343.3 198.05 Q343.05 197.3 343.45 196.6 L343.9 195.95 M404.9 196.35 L405.15 196.65 405.45 197.25 405.6 197.85 405.55 198.15 405.3 198.75 404.9 199.35 Q402.4 200.8 400.6 198.75 L400.4 197.85 Q400.4 196.95 401.1 196.35 L401.5 196.1 402.4 195.85 404.4 196.15 404.9 196.35 M425.45 202.05 L424.9 202.95 Q423.05 204.15 421.8 202.35 421.45 201.6 421.7 200.85 421.85 200.3 422.3 199.95 L423.6 199.5 423.6 199.45 424.4 199.7 424.9 199.95 425.35 200.55 Q425.65 200.95 425.6 201.45 L425.45 202.05 M405.05 207.65 L404.9 207.95 404.55 208.5 Q401.9 208.25 399.45 208.45 L398.2 207.55 398.05 206.95 398.05 206.35 Q398.15 205.6 398.7 205.15 L399.1 204.95 400.0 204.7 400.0 204.65 404.0 205.3 404.5 205.55 404.9 206.15 405.05 206.45 405.2 207.05 405.05 207.65 M407.5 212.7 L408.25 213.15 408.9 213.7 409.25 214.9 Q409.5 215.7 409.2 216.55 L408.7 217.55 407.5 218.9 399.75 219.8 397.6 218.9 397.1 218.35 Q396.6 217.55 396.65 216.55 396.75 215.2 397.2 213.9 398.2 213.0 399.35 212.45 402.4 210.95 406.0 211.95 L407.5 212.7 M372.85 200.55 L372.85 199.95 373.0 199.35 373.55 198.9 Q375.5 197.95 377.6 197.85 385.35 196.3 385.15 202.25 385.1 203.55 383.6 203.35 377.95 202.55 373.0 201.15 L372.85 200.55 M365.6 205.85 Q373.0 204.0 374.6 209.55 375.45 212.5 372.45 213.15 363.4 215.15 362.0 207.75 362.15 207.2 362.6 206.85 363.5 206.15 364.7 206.0 L365.6 205.85 M376.7 227.6 L371.75 227.85 370.35 227.4 370.0 227.15 Q369.65 226.8 369.65 226.35 L369.95 225.15 Q372.4 223.7 375.6 224.45 376.3 224.65 377.05 225.0 L377.5 225.25 377.75 225.85 Q377.95 226.2 377.75 226.6 L377.45 227.0 376.7 227.6 M353.95 214.35 Q354.15 214.8 353.95 215.3 L353.55 215.9 352.55 216.65 346.1 217.0 344.3 216.4 343.85 216.05 Q343.4 215.6 343.4 215.0 343.45 214.2 343.8 213.5 346.95 211.6 351.1 212.55 352.05 212.85 353.0 213.3 353.3 213.4 353.6 213.65 L353.95 214.35" fill="#ae9b62" fill-rule="evenodd" stroke="none"/>
    <path d="M334.75 196.2 Q336.75 194.75 339.75 194.2 L349.95 193.5 Q355.0 193.45 361.05 193.7 L369.5 194.0 391.5 196.2 Q391.85 194.95 393.4 194.3 394.55 193.75 396.0 193.5 401.25 193.2 406.65 193.4 408.95 193.7 410.75 194.55 411.45 194.9 411.45 195.45 411.55 197.55 414.5 197.75 L429.0 198.8 Q432.4 199.0 433.65 201.0 433.05 202.3 430.9 203.0 L426.35 204.5 Q422.4 205.75 415.3 204.65 408.15 203.5 405.8 203.85 411.4 203.7 415.65 205.85 417.8 206.95 417.8 208.85 417.8 211.05 415.15 212.0 L416.1 212.7 Q419.75 215.6 418.55 218.8 417.3 221.9 411.85 223.5 406.65 225.0 400.35 224.05 394.05 223.05 390.35 220.1 386.9 217.15 388.15 214.05 389.05 211.7 392.2 210.25 388.0 208.8 384.2 207.0 L382.95 206.85 Q380.6 207.3 380.85 209.1 382.5 210.2 383.05 211.8 383.25 212.4 382.95 213.1 382.55 214.15 381.15 214.55 378.75 215.3 376.0 215.4 L361.65 214.9 Q362.3 215.85 361.8 216.85 360.85 218.65 356.4 219.4 352.05 220.15 346.75 219.45 341.45 218.7 338.3 216.95 335.25 215.1 336.2 213.35 337.15 211.5 341.5 210.75 346.0 209.95 351.3 210.7 L354.05 211.2 352.15 208.85 Q351.65 208.0 352.0 207.2 353.25 206.6 354.6 206.85 357.75 207.45 359.7 205.95 359.05 203.7 355.65 203.25 L347.8 202.65 Q340.5 202.3 335.25 198.8 334.45 198.3 334.25 197.45 334.05 196.7 334.75 196.2 M382.1 224.95 Q379.75 223.55 375.7 223.0 371.65 222.4 368.2 223.05 364.85 223.6 364.15 225.05 363.4 226.4 365.75 227.8 368.15 229.2 372.25 229.8 376.3 230.35 379.65 229.75 383.1 229.15 383.8 227.75 384.5 226.35 382.1 224.95 Z" fill="none" stroke="#3c6286" stroke-linecap="round" stroke-linejoin="round" stroke-opacity="0.6" stroke-width="1.25"/>
  </g>
</svg>
