<?xml version="1.0" encoding="UTF-8" standalone="no"?>
<svg xmlns:xlink="http://www.w3.org/1999/xlink" height="121.9px" width="167.9px" xmlns="http://www.w3.org/2000/svg">
  <g transform="matrix(1.0, 0.0, 0.0, 1.0, 83.95, 60.95)">
    <path d="M37.35 -22.4 L37.95 -24.95 38.5 -24.95 34.85 -7.95 32.2 -3.75 32.15 -6.85 32.9 -8.1 33.1 -8.5 33.45 -9.1 33.1 -8.5 32.45 -14.4 Q31.65 -17.2 30.3 -18.7 L31.4 -19.75 Q34.1 -15.45 33.45 -9.1 L34.75 -11.35 37.35 -22.4 M40.4 -21.95 Q41.7 -24.35 43.15 -26.45 45.95 -30.75 49.15 -33.9 L49.65 -33.5 45.85 -28.85 39.9 -17.8 39.9 -21.05 40.4 -21.95 M-27.85 -20.55 L-25.9 -23.9 -25.45 -23.65 -30.0 -14.8 -31.95 -7.7 -32.3 -13.0 -35.2 -19.65 -32.8 -17.5 -31.5 -22.05 -30.95 -15.2 -28.4 -19.6 -27.85 -20.55 M35.7 -7.4 L41.65 -17.85 42.7 -17.15 42.75 -17.15 35.7 -3.25 35.7 -7.4 M39.2 -5.45 Q45.7 -11.1 49.35 -16.45 L50.55 -15.45 46.0 -8.95 39.2 -3.45 39.2 -5.45 M51.4 -18.55 L52.7 -19.55 57.25 -22.85 Q62.8 -26.6 68.65 -29.05 75.4 -30.95 78.6 -34.85 L79.15 -33.95 69.65 -27.35 61.3 -23.1 52.65 -14.25 53.1 -16.9 51.4 -18.55 M52.25 -9.0 L45.2 -5.05 40.15 -2.8 46.7 -8.0 51.0 -10.8 51.85 -9.6 52.25 -9.0 M47.05 -25.55 L65.35 -38.8 73.2 -42.5 74.2 -41.6 66.7 -38.4 60.7 -33.9 44.7 -17.35 44.7 -20.9 45.95 -24.8 47.05 -25.55 M71.15 -24.4 L67.45 -19.45 64.95 -16.1 64.95 -16.05 64.6 -15.65 62.95 -14.05 64.6 -15.65 65.05 -16.0 68.75 -19.0 74.5 -23.65 74.8 -22.9 60.45 -9.2 55.9 -7.15 60.45 -9.2 64.85 -11.5 68.65 -13.7 70.5 -14.9 71.85 -12.5 65.2 -8.35 52.2 -4.7 52.65 -5.95 55.9 -7.15 62.95 -14.05 54.4 -9.4 60.45 -16.1 71.15 -24.4 M-66.4 -14.9 L-65.55 -16.15 -60.65 -13.0 -59.95 -12.55 -56.8 -10.5 -53.0 -8.8 Q-51.7 -7.7 -50.25 -6.75 -47.3 -4.85 -44.0 -3.5 L-38.5 -3.8 -48.95 -8.6 -58.85 -17.3 -57.8 -18.45 -56.1 -17.3 -51.45 -14.45 Q-45.8 -11.25 -40.1 -9.55 L-36.25 -1.0 -36.65 -0.3 -43.45 4.5 -49.55 6.45 -56.2 5.45 -56.6 4.45 Q-51.85 5.1 -48.4 3.85 L-47.1 3.3 -45.35 2.3 -43.0 0.95 -41.0 -0.2 -46.2 -1.05 -54.1 -4.5 -54.1 -5.2 -57.95 -5.5 -55.75 -7.6 -58.85 -8.65 -66.4 -14.9 M-69.5 -37.25 L-68.85 -38.3 Q-62.4 -25.9 -52.5 -18.95 L-52.2 -18.75 -47.6 -15.95 -46.6 -15.5 -46.35 -15.35 -46.55 -15.3 -46.1 -13.1 -59.1 -20.5 -60.7 -20.5 -62.2 -22.1 -69.5 -37.25 M-65.95 -48.85 L-64.8 -50.5 Q-61.65 -41.1 -55.65 -32.25 L-50.75 -25.8 Q-48.25 -22.95 -45.85 -21.0 L-44.0 -19.65 -42.15 -19.0 -41.75 -17.9 -44.85 -17.7 -51.3 -22.05 -60.6 -36.65 -65.95 -48.85 M-59.3 -48.2 L-58.35 -48.75 Q-52.35 -42.7 -47.25 -32.15 L-46.7 -26.2 -47.75 -25.4 -52.2 -36.45 Q-54.95 -42.8 -59.3 -48.2 M-48.3 -46.85 L-46.5 -46.85 -45.9 -42.7 Q-44.95 -37.85 -42.9 -33.8 L-44.3 -32.75 -44.75 -28.95 -47.85 -39.55 -48.3 -46.85 M-44.75 -43.15 L-43.4 -43.7 -41.5 -36.45 -44.75 -43.15 M-48.25 -59.6 L-47.3 -60.45 Q-41.6 -52.3 -36.8 -41.6 L-36.9 -34.0 -43.45 -51.15 -48.25 -59.6 M-37.55 -49.45 L-36.4 -49.95 Q-32.85 -42.55 -30.85 -34.75 L-32.45 -26.25 -34.6 -40.9 -37.55 -49.45 M-30.75 -43.35 L-30.0 -43.35 Q-27.1 -36.25 -27.3 -29.15 L-29.3 -24.6 -29.3 -36.3 -30.75 -43.35 M50.3 -2.95 L64.8 -6.3 Q69.25 -7.2 72.55 -11.2 L74.7 -14.3 75.5 -12.5 70.5 -7.1 59.2 -2.05 56.2 -1.15 57.7 -3.55 51.75 -2.3 50.3 -2.95 M42.75 -0.2 Q48.75 0.0 54.75 -1.45 L52.85 2.1 58.15 2.1 63.5 2.1 61.5 3.35 45.85 3.0 47.8 1.15 40.25 1.85 42.75 -0.2 M66.8 23.0 Q64.5 22.95 62.3 24.2 L58.05 22.5 59.75 21.5 Q63.5 21.45 66.9 22.7 L66.8 23.0 M40.75 5.95 L40.7 5.75 40.9 5.85 40.75 5.95 M75.1 31.5 L75.05 31.5 75.1 31.5 M71.35 33.7 L71.4 33.7 71.35 33.7 M75.65 40.7 L75.6 40.6 75.85 40.6 75.65 40.7 M-41.95 -32.05 L-40.9 -32.65 Q-39.95 -27.45 -38.65 -23.2 L-37.05 -18.5 -35.85 -15.75 -33.25 -10.8 -34.75 -9.3 -39.8 -20.55 -41.95 -32.05 M-54.1 -5.2 L-54.1 -5.85 -44.0 -3.5 -54.1 -5.85 -54.1 -5.2 M-59.4 20.35 L-59.2 20.6 -59.25 20.55 -59.4 20.35 M-70.65 27.05 L-70.65 27.0 -70.65 27.05" fill="#e6e2b9" fill-rule="evenodd" stroke="none"/>
    <path d="M-27.65 -26.05 L-28.3 -20.45 -28.4 -19.6 -30.95 -15.2 -31.5 -22.05 -32.8 -17.5 -35.2 -19.65 -32.3 -13.0 -31.95 -7.7 -30.0 -14.8 -25.45 -23.65 -24.2 -22.95 -25.45 -21.0 Q-27.95 -16.85 -29.6 -10.3 L-29.55 -8.25 -29.55 -6.2 -34.65 -3.7 -36.25 -1.0 -40.1 -9.55 -40.85 -15.4 -43.0 -31.5 -41.95 -32.05 -42.9 -33.8 Q-44.95 -37.85 -45.9 -42.7 L-44.8 -43.1 -44.75 -43.15 -41.5 -36.45 -43.4 -43.7 -42.65 -44.0 Q-45.15 -52.15 -49.25 -58.7 L-48.25 -59.6 -43.45 -51.15 -36.9 -34.0 -36.8 -41.6 -35.3 -38.1 Q-36.4 -44.4 -38.75 -48.95 L-37.55 -49.45 -34.6 -40.9 -32.45 -26.25 -30.85 -34.75 -30.15 -31.7 Q-30.0 -37.35 -31.55 -43.35 L-30.75 -43.35 -29.3 -36.3 -29.3 -24.6 -27.3 -29.15 -27.65 -26.05 M-40.9 -32.65 L-41.95 -32.05 -39.8 -20.55 -34.75 -9.3 -33.25 -10.8 -35.85 -15.75 -37.05 -18.5 -38.65 -23.2 Q-39.95 -27.45 -40.9 -32.65 M-33.7 -20.05 L-34.85 -34.9 -35.3 -38.1 -34.85 -34.9 -33.7 -20.05 M-30.6 -26.7 Q-30.2 -29.15 -30.15 -31.7 -30.2 -29.15 -30.6 -26.7 M-38.95 -31.1 L-42.65 -44.0 -38.95 -31.1" fill="url(#gradient0)" fill-rule="evenodd" stroke="none"/>
    <path d="M-45.9 -29.2 L-46.1 -29.75 Q-48.7 -36.85 -49.05 -46.85 L-48.3 -46.85 -47.85 -39.55 -44.75 -28.95 -44.3 -32.75 -42.9 -33.8 -41.95 -32.05 -43.0 -31.5 -40.85 -15.4 -41.75 -17.9 -42.15 -19.0 -45.9 -29.2" fill="url(#gradient1)" fill-rule="evenodd" stroke="none"/>
    <path d="M-50.75 -25.8 Q-53.7 -38.1 -60.3 -47.6 L-59.3 -48.2 Q-54.95 -42.8 -52.2 -36.45 L-47.75 -25.4 -46.7 -26.2 -47.25 -32.15 -46.15 -29.75 -45.9 -29.2 -42.15 -19.0 -44.0 -19.65 -45.85 -21.0 Q-48.25 -22.95 -50.75 -25.8" fill="url(#gradient2)" fill-rule="evenodd" stroke="none"/>
    <path d="M-60.45 -13.4 L-62.4 -16.65 Q-67.4 -25.75 -70.2 -36.15 L-69.5 -37.25 -62.2 -22.1 -60.7 -20.5 -59.1 -20.5 -46.1 -13.1 -46.55 -15.3 -46.35 -15.35 -43.0 -14.05 -44.85 -17.7 -41.75 -17.9 -40.85 -15.4 -40.1 -9.55 Q-45.8 -11.25 -51.45 -14.45 L-56.1 -17.3 -57.8 -18.45 -58.85 -17.3 -59.95 -16.15 -59.2 -15.15 Q-56.4 -11.55 -53.0 -8.8 L-56.8 -10.5 -59.95 -12.55 -60.45 -13.4" fill="url(#gradient3)" fill-rule="evenodd" stroke="none"/>
    <path d="M-52.5 -18.95 Q-61.35 -32.55 -66.55 -48.0 L-65.95 -48.85 -60.6 -36.65 -51.3 -22.05 -44.85 -17.7 -43.0 -14.05 -46.35 -15.35 -46.6 -15.5 -47.6 -15.95 -52.2 -18.75 -52.5 -18.95" fill="url(#gradient4)" fill-rule="evenodd" stroke="none"/>
    <path d="M-61.9 -5.6 Q-64.8 -8.85 -67.3 -13.6 L-66.4 -14.9 -58.85 -8.65 -55.75 -7.6 -57.95 -5.5 -54.1 -5.2 -54.1 -4.5 -54.1 -3.1 Q-49.25 0.7 -43.0 0.95 L-45.35 2.3 -56.6 -1.2 -59.05 -2.9 -61.85 -5.55 -61.9 -5.6" fill="url(#gradient5)" fill-rule="evenodd" stroke="none"/>
    <path d="M-28.3 -20.45 L-27.85 -20.55 -28.4 -19.6 -28.3 -20.45 M38.25 -17.4 L37.6 -16.45 38.05 -18.2 38.4 -18.15 38.25 -17.4 M54.45 -23.65 L53.6 -23.25 54.1 -23.75 54.45 -23.65 M47.05 -25.55 L45.95 -24.8 46.15 -25.8 47.05 -25.55 M28.2 45.15 L28.0 45.2 28.15 45.05 28.2 45.15 M-33.05 40.6 L-33.15 40.55 -33.15 40.45 -33.05 40.6 M-61.9 -5.55 L-61.9 -5.6 -61.85 -5.55 -61.9 -5.55 M-60.65 -13.0 L-60.45 -13.4 -59.95 -12.55 -60.65 -13.0 M64.6 -15.65 L64.95 -16.05 64.95 -16.1 65.05 -16.0 64.6 -15.65 M64.95 -16.05 L65.05 -16.0 64.95 -16.05 M66.8 23.0 L66.9 22.7 66.8 23.0 M40.9 5.85 L40.7 5.75 40.9 5.75 40.9 5.85 M-56.6 4.45 L-56.2 5.45 -55.45 7.35 -55.65 7.45 -55.95 6.45 -56.6 4.45 M-38.9 10.4 L-38.9 10.45 -38.9 10.35 -38.9 10.4 -38.9 10.35 -38.85 10.4 -38.9 10.4 M-54.15 17.1 L-54.0 17.15 -54.2 17.25 -54.15 17.1 M-52.4 16.65 L-52.45 16.6 -52.45 16.55 -52.4 16.55 -52.4 16.65" fill="#d4d0c8" fill-rule="evenodd" stroke="none"/>
    <path d="M-60.75 -1.8 L-61.9 -5.55 -61.85 -5.55 -59.05 -2.9 -57.85 0.7 -60.75 -1.8" fill="url(#gradient6)" fill-rule="evenodd" stroke="none"/>
    <path d="M-58.85 -17.3 L-48.95 -8.6 -38.5 -3.8 -44.0 -3.5 Q-47.3 -4.85 -50.25 -6.75 -51.7 -7.7 -53.0 -8.8 -56.4 -11.55 -59.2 -15.15 L-59.95 -16.15 -58.85 -17.3 M-56.2 5.45 L-49.55 6.45 -43.45 4.5 -36.65 -0.3 -37.85 1.75 -38.95 2.5 -40.2 5.2 Q-47.85 8.45 -55.45 7.35 L-56.2 5.45" fill="url(#gradient7)" fill-rule="evenodd" stroke="none"/>
    <path d="M-54.1 -4.5 L-46.2 -1.05 -41.0 -0.2 -43.0 0.95 Q-49.25 0.7 -54.1 -3.1 L-54.1 -4.5" fill="url(#gradient8)" fill-rule="evenodd" stroke="none"/>
    <path d="M-45.35 2.3 L-47.1 3.3 -48.4 3.85 -57.85 0.7 -59.05 -2.9 -56.6 -1.2 -45.35 2.3" fill="url(#gradient9)" fill-rule="evenodd" stroke="none"/>
    <path d="M38.5 -24.95 L37.95 -24.95 37.35 -22.4 Q22.65 -24.65 8.15 -23.95 L8.15 -25.65 Q8.0 -29.4 5.8 -29.95 L6.15 -30.05 Q23.55 -30.6 43.15 -26.45 41.7 -24.35 40.4 -21.95 L38.65 -22.2 39.05 -24.95 38.5 -24.95 M4.65 -28.8 Q6.9 -27.15 6.85 -24.45 -9.35 -24.2 -25.45 -21.0 L-24.2 -22.95 -25.45 -23.65 -25.9 -23.9 -27.85 -20.55 -28.3 -20.45 -27.65 -26.05 Q-12.85 -29.35 2.0 -29.9 L2.5 -29.95 Q3.55 -29.35 4.65 -28.8 M67.45 -19.45 L68.75 -19.0 65.05 -16.0 64.95 -16.1 67.45 -19.45 M71.2 -18.05 L73.15 -17.3 Q76.4 -16.0 75.85 -12.85 L75.65 -12.1 75.5 -12.5 74.7 -14.3 72.55 -11.2 71.85 -12.5 70.5 -14.9 68.65 -13.7 67.8 -14.55 71.2 -18.05 M-57.65 14.55 Q-57.4 12.15 -57.4 9.2 L-54.7 10.3 -54.4 11.2 -54.65 14.15 -56.8 14.3 -57.65 14.55 M-58.3 6.2 L-60.75 -1.8 -57.85 0.7 -56.6 4.45 -55.95 6.45 -58.3 6.2" fill="#b07700" fill-rule="evenodd" stroke="none"/>
    <path d="M-31.2 -1.35 L-30.5 -2.0 -32.2 6.65 Q-31.45 18.25 -28.1 21.7 L-28.65 23.3 Q-29.7 26.35 -29.0 26.8 L-28.4 27.75 -27.0 27.05 -25.85 23.95 Q-19.5 29.7 -10.8 31.75 L-11.0 34.05 Q-13.45 32.4 -20.95 35.6 L-21.6 30.9 Q-21.75 29.15 -22.55 29.4 -23.6 29.85 -23.75 32.0 -23.85 33.95 -23.5 35.7 -25.45 35.45 -27.85 37.25 -29.15 34.8 -30.25 32.0 -30.95 30.25 -31.65 30.5 -32.55 30.95 -32.05 33.1 -31.45 35.35 -30.4 37.25 L-32.6 37.95 Q-42.8 27.3 -36.95 8.4 L-35.05 6.4 -31.2 -1.35" fill="url(#gradient10)" fill-rule="evenodd" stroke="none"/>
    <path d="M8.15 -23.95 Q22.65 -24.65 37.35 -22.4 L34.75 -11.35 33.45 -9.1 Q34.1 -15.45 31.4 -19.75 L30.3 -18.7 29.15 -17.7 Q32.35 -15.35 32.2 -8.35 L24.3 -9.95 23.6 -10.4 Q15.7 -15.05 7.35 -14.45 L6.75 -14.65 Q8.2 -18.3 8.15 -23.95 M6.85 -24.45 Q7.2 -18.1 5.45 -15.0 L5.25 -15.05 Q1.7 -15.75 -2.15 -14.95 L-2.8 -14.55 -3.25 -14.5 -4.85 -14.4 Q-13.15 -13.85 -20.1 -9.4 L-29.55 -8.25 -29.6 -10.3 Q-27.95 -16.85 -25.45 -21.0 -9.35 -24.2 6.85 -24.45" fill="url(#gradient11)" fill-rule="evenodd" stroke="none"/>
    <path d="M-2.8 -14.55 Q4.05 -14.9 3.5 -13.9 L7.35 -14.45 Q15.7 -15.05 23.6 -10.4 L24.3 -9.95 Q27.3 -8.1 30.25 -5.45 L30.0 -5.2 28.8 -3.85 28.4 -5.0 27.5 -3.95 26.55 -2.95 26.55 1.6 31.55 9.0 Q34.2 12.15 36.85 11.5 L36.35 9.65 38.65 10.15 Q42.6 27.1 26.05 42.5 L24.85 41.9 Q26.15 39.7 26.85 36.95 26.4 34.2 25.15 35.45 L24.55 36.8 Q24.15 39.0 22.75 41.55 21.35 39.75 17.25 38.65 L16.45 38.45 Q17.4 36.25 17.95 33.6 17.5 30.35 16.25 31.8 L15.65 33.4 14.55 37.55 Q9.15 34.45 5.85 34.7 L5.6 32.05 Q5.15 29.6 3.9 28.8 3.0 28.3 3.0 30.15 L2.85 35.4 Q0.55 33.7 -2.75 33.6 -4.9 32.15 -8.35 31.95 -8.2 31.1 -7.8 30.75 -6.8 29.8 -8.25 28.95 -9.65 28.45 -9.85 29.4 -10.55 30.5 -10.8 31.75 -19.5 29.7 -25.85 23.95 L-23.0 19.0 Q-19.95 22.75 -15.4 24.65 L-13.9 24.65 -14.25 23.6 Q-14.0 23.25 -14.45 22.1 -18.25 19.2 -20.95 15.9 -18.15 9.9 -14.15 7.05 L-14.25 5.25 Q-13.45 3.75 -15.05 3.8 L-16.75 5.2 Q-20.3 8.25 -23.35 12.7 -25.55 9.5 -26.6 4.85 -27.55 4.0 -27.75 5.4 L-28.75 7.25 Q-28.9 9.45 -27.35 12.65 L-25.45 15.9 Q-26.9 18.4 -28.1 21.7 -31.45 18.25 -32.2 6.65 L-30.5 -2.0 -29.5 -2.8 -28.7 -3.45 -21.2 -8.65 -20.1 -9.4 Q-13.15 -13.85 -4.85 -14.4 L-3.25 -14.5 -2.8 -14.55 M2.2 -13.1 L3.5 -13.9 2.2 -13.1 -3.3 -13.3 -5.2 -13.0 -6.3 -12.35 Q-6.8 -11.45 -5.95 -11.0 -8.05 -10.1 -6.8 -9.75 L-1.7 -9.75 -3.7 -7.15 -10.5 -6.95 -11.6 -6.3 Q-12.0 -5.6 -11.5 -5.15 L-12.3 -3.45 -6.45 -3.9 -5.4 -3.6 -6.3 0.0 -5.65 0.35 -4.3 -3.3 1.15 -1.75 Q2.15 -2.35 1.45 -3.3 1.9 -3.55 1.5 -4.45 1.5 -5.45 0.45 -5.9 -1.1 -6.6 -2.75 -6.95 L-0.35 -9.8 6.65 -8.4 6.7 -9.3 Q7.2 -9.55 6.8 -10.5 6.8 -11.5 5.75 -11.95 L4.9 -12.3 2.2 -13.1 M24.3 6.15 Q24.05 5.1 23.35 5.6 L23.0 7.0 Q21.9 11.1 20.1 13.8 17.2 9.5 13.9 6.5 L13.7 6.3 12.05 4.9 Q10.85 4.85 11.05 5.7 L10.6 7.6 Q14.85 11.45 17.85 16.9 15.15 20.25 11.45 23.2 10.9 24.7 11.5 24.8 L11.5 26.15 Q16.65 23.6 19.7 19.9 22.55 24.7 23.8 29.1 L25.45 28.65 25.55 27.9 Q26.25 27.5 25.2 24.4 23.8 20.0 22.0 16.8 24.15 15.1 25.2 9.8 L24.55 7.05 24.3 6.15" fill="url(#gradient12)" fill-rule="evenodd" stroke="none"/>
    <path d="M2.2 -13.1 L4.9 -12.3 5.75 -11.95 Q6.8 -11.5 6.8 -10.5 7.2 -9.55 6.7 -9.3 L5.25 -9.45 Q2.3 -10.45 -0.8 -10.7 L-5.3 -10.65 -5.4 -10.8 -5.95 -11.0 Q-6.8 -11.45 -6.3 -12.35 L-5.2 -13.0 -3.3 -13.3 2.2 -13.1" fill="url(#gradient13)" fill-rule="evenodd" stroke="none"/>
    <path d="M5.45 -15.0 L6.75 -14.65 7.35 -14.45 3.5 -13.9 Q4.05 -14.9 -2.8 -14.55 L-2.15 -14.95 Q1.7 -15.75 5.25 -15.05 L5.45 -15.0" fill="url(#gradient14)" fill-rule="evenodd" stroke="none"/>
    <path d="M-2.75 -6.95 Q-1.1 -6.6 0.45 -5.9 1.5 -5.45 1.5 -4.45 1.9 -3.55 1.45 -3.3 L-0.05 -3.4 -5.0 -4.55 Q-7.75 -4.9 -10.6 -4.6 L-10.7 -4.75 -11.5 -5.15 Q-12.0 -5.6 -11.6 -6.3 L-10.5 -6.95 -3.7 -7.15 -2.75 -6.95" fill="url(#gradient15)" fill-rule="evenodd" stroke="none"/>
    <path d="M-5.4 -3.6 L-6.45 -3.9 -12.3 -3.45 -11.5 -5.15 -10.7 -4.75 -10.6 -4.6 Q-7.75 -4.9 -5.0 -4.55 L-5.4 -3.6" fill="url(#gradient16)" fill-rule="evenodd" stroke="none"/>
    <path d="M6.7 -9.3 L6.65 -8.4 -0.35 -9.8 -2.75 -6.95 -3.7 -7.15 -1.7 -9.75 -0.8 -10.7 Q2.3 -10.45 5.25 -9.45 L6.7 -9.3" fill="url(#gradient17)" fill-rule="evenodd" stroke="none"/>
    <path d="M-1.7 -9.75 L-6.8 -9.75 Q-8.05 -10.1 -5.95 -11.0 L-5.4 -10.8 -5.3 -10.65 -0.8 -10.7 -1.7 -9.75" fill="url(#gradient18)" fill-rule="evenodd" stroke="none"/>
    <path d="M1.45 -3.3 Q2.15 -2.35 1.15 -1.75 L-4.3 -3.3 -5.4 -3.6 -5.0 -4.55 -0.05 -3.4 1.45 -3.3" fill="url(#gradient19)" fill-rule="evenodd" stroke="none"/>
    <path d="M-4.3 -3.3 L-5.65 0.35 -6.3 0.0 -5.4 -3.6 -4.3 -3.3" fill="url(#gradient20)" fill-rule="evenodd" stroke="none"/>
    <path d="M38.5 -24.95 L39.05 -24.95 38.65 -22.2 38.05 -18.2 37.6 -16.45 38.25 -17.4 35.7 -7.4 35.7 -3.25 42.75 -17.15 43.9 -16.4 37.45 -4.0 35.5 -0.2 32.2 -3.75 34.85 -7.95 38.5 -24.95" fill="url(#gradient21)" fill-rule="evenodd" stroke="none"/>
    <path d="M38.65 -22.2 L40.4 -21.95 39.9 -21.05 38.4 -18.15 38.05 -18.2 38.65 -22.2 M67.8 -14.55 L68.65 -13.7 64.85 -11.5 67.8 -14.55" fill="#996600" fill-rule="evenodd" stroke="none"/>
    <path d="M38.25 -17.4 L38.4 -18.15 39.9 -21.05 39.9 -17.8 45.85 -28.85 49.65 -33.5 50.6 -32.8 Q47.1 -30.8 46.15 -25.8 L45.95 -24.8 44.7 -20.9 44.7 -17.35 60.7 -33.9 66.7 -38.4 74.2 -41.6 75.25 -40.65 Q67.5 -38.75 59.75 -29.8 L54.1 -23.75 53.6 -23.25 54.45 -23.65 Q62.1 -27.5 67.8 -33.0 L68.65 -29.05 Q62.8 -26.6 57.25 -22.85 L52.7 -19.55 51.4 -18.55 50.8 -18.05 49.35 -16.45 Q45.7 -11.1 39.2 -5.45 L37.45 -4.0 43.9 -16.4 42.75 -17.15 42.7 -17.15 41.65 -17.85 35.7 -7.4 38.25 -17.4 M47.25 -16.55 L53.6 -23.25 47.25 -16.55" fill="url(#gradient22)" fill-rule="evenodd" stroke="none"/>
    <path d="M33.1 -8.5 L32.9 -8.1 32.15 -6.85 32.15 -7.6 32.2 -8.35 Q32.35 -15.35 29.15 -17.7 L30.3 -18.7 Q31.65 -17.2 32.45 -14.4 L33.1 -8.5 M32.9 -8.1 L32.2 -8.35 32.9 -8.1" fill="url(#gradient23)" fill-rule="evenodd" stroke="none"/>
    <path d="M37.45 -4.0 L39.2 -5.45 39.2 -3.45 46.0 -8.95 50.55 -15.45 51.75 -14.5 46.7 -8.0 40.15 -2.8 45.2 -5.05 52.25 -9.0 52.7 -8.35 48.0 -4.7 43.2 -1.0 40.75 -0.3 36.35 0.9 36.2 0.7 35.5 -0.2 37.45 -4.0" fill="url(#gradient24)" fill-rule="evenodd" stroke="none"/>
    <path d="M49.35 -16.45 L50.8 -18.05 51.4 -18.55 53.1 -16.9 52.65 -14.25 61.3 -23.1 69.65 -27.35 79.15 -33.95 79.75 -33.0 Q75.85 -28.8 70.15 -25.7 L60.5 -18.45 51.85 -9.6 51.0 -10.8 46.7 -8.0 51.75 -14.5 50.55 -15.45 49.35 -16.45" fill="url(#gradient25)" fill-rule="evenodd" stroke="none"/>
    <path d="M40.75 -0.3 L43.2 -1.0 50.3 -2.95 51.75 -2.3 57.7 -3.55 56.2 -1.15 59.2 -2.05 70.5 -7.1 75.5 -12.5 75.65 -12.1 74.7 -9.5 Q73.6 -7.35 71.7 -5.55 L70.95 -4.9 Q69.6 -3.85 68.0 -2.95 L58.15 2.1 52.85 2.1 54.75 -1.45 Q48.75 0.0 42.75 -0.2 L40.75 -0.3" fill="url(#gradient26)" fill-rule="evenodd" stroke="none"/>
    <path d="M36.35 0.9 L40.75 -0.3 42.75 -0.2 40.25 1.85 47.8 1.15 45.85 3.0 61.5 3.35 60.15 4.15 Q54.5 3.75 48.7 4.05 L39.05 5.1 39.0 5.1 36.35 0.9" fill="url(#gradient27)" fill-rule="evenodd" stroke="none"/>
    <path d="M43.2 -1.0 L48.0 -4.7 52.65 -5.95 52.2 -4.7 65.2 -8.35 71.85 -12.5 72.55 -11.2 Q69.25 -7.2 64.8 -6.3 L50.3 -2.95 43.2 -1.0" fill="url(#gradient28)" fill-rule="evenodd" stroke="none"/>
    <path d="M48.0 -4.7 L52.7 -8.35 52.25 -9.0 51.85 -9.6 60.5 -18.45 70.15 -25.7 71.15 -24.4 60.45 -16.1 54.4 -9.4 62.95 -14.05 55.9 -7.15 52.65 -5.95 48.0 -4.7" fill="url(#gradient29)" fill-rule="evenodd" stroke="none"/>
    <path d="M74.8 -22.9 L75.1 -22.15 71.2 -18.05 67.8 -14.55 64.85 -11.5 60.45 -9.2 74.8 -22.9" fill="url(#gradient30)" fill-rule="evenodd" stroke="none"/>
    <path d="M74.7 -9.5 Q71.35 0.3 72.15 9.2 L77.15 21.85 Q77.5 23.95 77.25 25.6 76.95 27.7 75.8 29.05 L75.3 28.55 Q75.8 25.35 74.7 22.2 L70.15 7.85 Q69.65 5.2 69.75 2.6 L69.75 2.55 71.55 -0.45 71.7 -5.55 Q73.6 -7.35 74.7 -9.5" fill="url(#gradient31)" fill-rule="evenodd" stroke="none"/>
    <path d="M70.95 -4.9 L71.7 -5.55 71.55 -0.45 69.75 2.55 Q69.8 -1.2 70.95 -4.9" fill="url(#gradient32)" fill-rule="evenodd" stroke="none"/>
    <path d="M37.15 43.3 L28.2 45.15 28.15 45.05 Q28.35 44.25 27.2 43.1 28.1 43.6 29.35 43.7 L30.3 43.05 Q42.3 33.0 42.3 18.8 42.3 12.15 39.65 6.4 L40.75 5.95 40.9 5.85 40.9 5.75 48.7 4.05 Q54.5 3.75 60.15 4.15 L61.5 3.35 63.5 2.1 58.15 2.1 68.0 -2.95 Q69.6 -3.85 70.95 -4.9 69.8 -1.2 69.75 2.55 L69.75 2.6 64.65 8.05 68.9 10.05 67.35 12.05 60.9 10.7 Q54.75 10.1 47.95 11.8 L45.75 26.5 Q43.6 36.65 37.15 43.3" fill="url(#gradient33)" fill-rule="evenodd" stroke="none"/>
    <path d="M77.85 47.1 L78.85 46.85 Q80.4 46.55 82.05 46.85 L81.85 48.3 78.95 48.3 78.1 48.3 77.85 47.1" fill="url(#gradient34)" fill-rule="evenodd" stroke="none"/>
    <path d="M82.05 46.85 Q80.4 46.55 78.85 46.85 L77.85 47.1 Q76.05 47.6 74.4 48.9 L73.95 49.0 Q73.2 48.95 73.85 46.8 75.55 45.45 77.3 45.0 L78.0 44.9 78.3 44.85 81.7 45.2 Q82.85 46.05 82.05 46.85" fill="url(#gradient35)" fill-rule="evenodd" stroke="none"/>
    <path d="M75.8 29.05 L76.7 30.1 Q84.7 38.75 83.2 48.5 82.7 51.95 81.65 53.95 L81.65 54.0 81.45 53.9 81.75 52.55 Q81.85 51.35 80.95 51.75 L79.05 52.95 Q79.55 51.2 78.95 48.3 L81.85 48.3 82.05 46.85 Q82.85 46.05 81.7 45.2 L78.3 44.85 78.0 44.9 76.6 40.6 78.95 40.6 80.3 40.4 78.95 38.55 Q79.5 37.75 78.4 37.15 L74.8 37.25 72.45 33.45 74.65 32.9 75.1 31.5 Q76.05 30.5 74.75 30.0 L74.6 29.95 Q72.3 29.9 70.05 30.75 L65.05 26.05 67.55 25.15 67.15 24.55 Q67.95 23.5 66.8 23.0 L66.9 22.7 Q71.45 24.4 75.3 28.55 L75.8 29.05" fill="url(#gradient36)" fill-rule="evenodd" stroke="none"/>
    <path d="M81.65 54.0 Q80.95 55.25 80.1 55.9 78.95 56.8 77.4 56.7 L77.3 56.65 77.7 55.75 Q79.6 55.3 81.45 53.9 L81.65 54.0" fill="url(#gradient37)" fill-rule="evenodd" stroke="none"/>
    <path d="M79.05 52.95 L80.95 51.75 Q81.85 51.35 81.75 52.55 L81.45 53.9 Q79.6 55.3 77.7 55.75 L77.05 55.85 73.65 55.45 73.2 55.05 Q72.65 54.4 73.3 53.8 74.9 54.1 76.5 53.85 L78.35 53.3 79.05 52.95" fill="url(#gradient38)" fill-rule="evenodd" stroke="none"/>
    <path d="M47.4 40.5 L37.15 43.3 Q43.6 36.65 45.75 26.5 L47.95 11.8 Q54.75 10.1 60.9 10.7 L67.35 12.05 68.9 10.05 64.65 8.05 69.75 2.6 Q69.65 5.2 70.15 7.85 L74.7 22.2 Q75.8 25.35 75.3 28.55 71.45 24.4 66.9 22.7 63.5 21.45 59.75 21.5 L58.05 22.5 57.1 23.0 Q54.85 23.05 53.7 24.85 L53.55 25.15 50.2 29.2 47.75 34.95 47.4 40.5" fill="url(#gradient39)" fill-rule="evenodd" stroke="none"/>
    <path d="M62.3 24.2 Q64.5 22.95 66.8 23.0 67.95 23.5 67.15 24.55 65.15 24.8 63.3 25.85 61.3 26.95 59.35 29.0 L59.1 29.15 Q58.05 29.7 58.8 27.05 60.1 25.65 61.5 24.7 L62.3 24.2" fill="url(#gradient40)" fill-rule="evenodd" stroke="none"/>
    <path d="M58.05 22.5 L62.3 24.2 61.5 24.7 Q59.4 23.6 57.1 23.0 L58.05 22.5" fill="url(#gradient41)" fill-rule="evenodd" stroke="none"/>
    <path d="M40.7 5.75 L39.05 5.1 48.7 4.05 40.9 5.75 40.7 5.75" fill="#754f00" fill-rule="evenodd" stroke="none"/>
    <path d="M77.3 45.0 Q75.55 45.45 73.85 46.8 73.2 48.95 73.95 49.0 L73.65 50.4 75.35 50.05 78.1 48.3 78.45 50.9 78.35 53.3 76.5 53.85 Q74.9 54.1 73.3 53.8 72.65 54.4 73.2 55.05 L73.2 56.6 76.45 57.85 75.8 58.6 Q68.75 60.0 65.35 54.8 L65.35 51.25 Q61.75 40.8 55.1 33.4 53.45 32.4 53.55 25.15 L53.7 24.85 Q54.85 23.05 57.1 23.0 59.4 23.6 61.5 24.7 60.1 25.65 58.8 27.05 58.05 29.7 59.1 29.15 L60.25 30.0 64.1 26.4 66.3 28.3 69.15 31.1 Q66.8 32.1 64.55 34.0 L64.4 34.55 Q63.95 36.0 64.4 36.2 L64.4 37.65 71.4 33.7 74.0 37.5 Q71.95 38.2 70.0 39.9 69.2 42.4 70.3 42.05 L70.3 42.95 75.6 40.6 75.65 40.7 76.85 43.6 77.3 45.0" fill="url(#gradient42)" fill-rule="evenodd" stroke="none"/>
    <path d="M74.5 59.65 L73.7 60.1 Q59.55 62.45 58.25 49.7 L54.15 38.35 52.65 34.3 Q51.95 27.9 53.55 25.15 53.45 32.4 55.1 33.4 61.75 40.8 65.35 51.25 L65.35 54.8 Q68.75 60.0 75.8 58.6 L74.5 59.65" fill="url(#gradient43)" fill-rule="evenodd" stroke="none"/>
    <path d="M59.1 29.15 L59.35 29.0 Q61.3 26.95 63.3 25.85 L64.1 26.4 60.25 30.0 59.1 29.15" fill="url(#gradient44)" fill-rule="evenodd" stroke="none"/>
    <path d="M54.15 38.35 L47.4 40.5 47.75 34.95 50.2 29.2 53.55 25.15 Q51.95 27.9 52.65 34.3 L54.15 38.35" fill="url(#gradient45)" fill-rule="evenodd" stroke="none"/>
    <path d="M70.05 30.75 Q72.3 29.9 74.6 29.95 L74.75 30.0 Q76.05 30.5 75.1 31.5 L75.05 31.5 Q72.75 31.7 70.55 32.65 67.8 33.8 65.25 35.95 L64.4 36.2 Q63.95 36.0 64.4 34.55 L64.55 34.0 Q66.8 32.1 69.15 31.1 L70.05 30.75" fill="url(#gradient46)" fill-rule="evenodd" stroke="none"/>
    <path d="M75.1 31.5 L74.65 32.9 72.45 33.45 71.4 33.7 71.35 33.7 70.55 32.65 Q72.75 31.7 75.05 31.5 L75.1 31.5" fill="url(#gradient47)" fill-rule="evenodd" stroke="none"/>
    <path d="M72.45 33.45 L74.8 37.25 74.0 37.5 71.4 33.7 72.45 33.45" fill="url(#gradient48)" fill-rule="evenodd" stroke="none"/>
    <path d="M70.55 32.65 L71.35 33.7 71.4 33.7 64.4 37.65 64.4 36.2 65.25 35.95 Q67.8 33.8 70.55 32.65" fill="url(#gradient49)" fill-rule="evenodd" stroke="none"/>
    <path d="M63.3 25.85 Q65.15 24.8 67.15 24.55 L67.55 25.15 65.05 26.05 64.1 26.4 63.3 25.85" fill="url(#gradient50)" fill-rule="evenodd" stroke="none"/>
    <path d="M64.1 26.4 L65.05 26.05 70.05 30.75 69.15 31.1 66.3 28.3 64.1 26.4" fill="url(#gradient51)" fill-rule="evenodd" stroke="none"/>
    <path d="M70.3 42.05 L70.55 41.95 Q72.7 40.1 75.0 39.3 L75.6 40.6 70.3 42.95 70.3 42.05" fill="url(#gradient52)" fill-rule="evenodd" stroke="none"/>
    <path d="M74.8 37.25 L78.4 37.15 Q79.5 37.75 78.95 38.55 L78.75 38.75 Q76.85 38.65 75.0 39.3 72.7 40.1 70.55 41.95 L70.3 42.05 Q69.2 42.4 70.0 39.9 71.95 38.2 74.0 37.5 L74.8 37.25" fill="url(#gradient53)" fill-rule="evenodd" stroke="none"/>
    <path d="M78.95 38.55 L80.3 40.4 78.95 40.6 76.6 40.6 75.85 40.6 75.6 40.6 75.0 39.3 Q76.85 38.65 78.75 38.75 L78.95 38.55" fill="url(#gradient54)" fill-rule="evenodd" stroke="none"/>
    <path d="M78.0 44.9 L77.3 45.0 76.85 43.6 75.65 40.7 75.85 40.6 76.6 40.6 78.0 44.9" fill="url(#gradient55)" fill-rule="evenodd" stroke="none"/>
    <path d="M77.85 47.1 L78.1 48.3 75.35 50.05 73.65 50.4 73.95 49.0 74.4 48.9 Q76.05 47.6 77.85 47.1" fill="url(#gradient56)" fill-rule="evenodd" stroke="none"/>
    <path d="M78.1 48.3 L78.95 48.3 Q79.55 51.2 79.05 52.95 L78.35 53.3 78.45 50.9 78.1 48.3" fill="url(#gradient57)" fill-rule="evenodd" stroke="none"/>
    <path d="M26.55 -2.95 L27.3 0.2 27.65 1.75 Q30.55 6.45 35.15 7.7 L38.3 7.7 37.7 7.3 39.65 6.4 Q42.3 12.15 42.3 18.8 42.3 33.0 30.3 43.05 L29.35 43.7 Q28.1 43.6 27.2 43.1 L26.05 42.5 Q42.6 27.1 38.65 10.15 L36.35 9.65 36.85 11.5 Q34.2 12.15 31.55 9.0 L26.55 1.6 26.55 -2.95" fill="url(#gradient58)" fill-rule="evenodd" stroke="none"/>
    <path d="M20.1 13.8 Q21.9 11.1 23.0 7.0 L23.35 5.6 Q24.05 5.1 24.3 6.15 L24.4 7.1 24.45 7.5 Q24.1 11.85 21.6 16.1 L20.1 13.8" fill="url(#gradient59)" fill-rule="evenodd" stroke="none"/>
    <path d="M24.55 7.05 L25.2 9.8 Q24.15 15.1 22.0 16.8 L21.6 16.1 Q24.1 11.85 24.45 7.5 L24.4 7.1 24.55 7.05" fill="url(#gradient60)" fill-rule="evenodd" stroke="none"/>
    <path d="M24.3 6.15 L24.55 7.05 24.4 7.1 24.3 6.15 M-57.5 23.85 L-57.55 24.15 -57.7 24.1 -57.5 23.85" fill="#cdb37a" fill-rule="evenodd" stroke="none"/>
    <path d="M22.0 16.8 Q23.8 20.0 25.2 24.4 26.25 27.5 25.55 27.9 25.15 28.1 24.25 27.5 L23.55 26.0 Q21.95 21.55 19.9 18.6 19.0 16.35 18.55 16.0 15.4 10.7 11.6 6.85 L11.25 6.3 11.05 5.7 Q10.85 4.85 12.05 4.9 L13.7 6.3 13.9 6.5 Q17.2 9.5 20.1 13.8 L21.6 16.1 22.0 16.8" fill="url(#gradient61)" fill-rule="evenodd" stroke="none"/>
    <path d="M17.85 16.9 Q14.85 11.45 10.6 7.6 L11.05 5.7 11.25 6.3 11.6 6.85 Q15.4 10.7 18.55 16.0 L17.85 16.9" fill="url(#gradient62)" fill-rule="evenodd" stroke="none"/>
    <path d="M11.5 24.8 Q10.9 24.7 11.45 23.2 15.15 20.25 17.85 16.9 L18.55 16.0 Q19.0 16.35 19.9 18.6 16.95 21.7 12.8 24.4 11.9 24.9 11.5 24.8" fill="url(#gradient63)" fill-rule="evenodd" stroke="none"/>
    <path d="M25.55 27.9 L25.45 28.65 23.8 29.1 Q22.55 24.7 19.7 19.9 16.65 23.6 11.5 26.15 L11.5 24.8 Q11.9 24.9 12.8 24.4 16.95 21.7 19.9 18.6 21.95 21.55 23.55 26.0 L24.25 27.5 Q25.15 28.1 25.55 27.9" fill="url(#gradient64)" fill-rule="evenodd" stroke="none"/>
    <path d="M14.55 37.55 L15.65 33.4 16.25 31.8 Q17.5 30.35 17.95 33.6 17.4 36.25 16.45 38.45 14.9 41.9 12.45 44.3 11.9 45.2 11.35 45.1 L10.75 44.7 10.75 43.5 11.75 42.35 13.8 39.25 14.15 38.45 14.55 37.55" fill="url(#gradient65)" fill-rule="evenodd" stroke="none"/>
    <path d="M5.85 34.7 L5.8 35.8 Q5.5 39.65 2.95 41.75 2.6 42.4 1.7 42.1 L1.05 41.75 Q-0.45 40.4 1.0 39.75 2.45 39.1 2.75 36.3 L2.85 35.4 3.0 30.15 Q3.0 28.3 3.9 28.8 5.15 29.6 5.6 32.05 L5.85 34.7" fill="url(#gradient66)" fill-rule="evenodd" stroke="none"/>
    <path d="M2.85 35.4 L2.75 36.3 Q-3.45 33.3 -8.35 35.7 L-8.45 34.3 Q-5.8 33.25 -2.75 33.6 0.55 33.7 2.85 35.4" fill="url(#gradient67)" fill-rule="evenodd" stroke="none"/>
    <path d="M5.8 35.8 L6.8 35.95 6.8 36.85 6.45 38.5 Q5.95 40.2 4.6 41.75 L2.55 43.15 1.7 42.1 Q2.6 42.4 2.95 41.75 5.5 39.65 5.8 35.8" fill="url(#gradient68)" fill-rule="evenodd" stroke="none"/>
    <path d="M6.8 35.95 Q11.7 36.6 14.15 38.45 L13.8 39.25 Q10.6 37.25 6.8 36.85 L6.8 35.95" fill="url(#gradient69)" fill-rule="evenodd" stroke="none"/>
    <path d="M5.8 35.8 L5.85 34.7 Q9.15 34.45 14.55 37.55 L14.15 38.45 Q11.7 36.6 6.8 35.95 L5.8 35.8" fill="url(#gradient70)" fill-rule="evenodd" stroke="none"/>
    <path d="M28.0 45.2 Q16.2 53.15 0.95 53.4 -16.45 53.7 -29.05 44.15 L-33.05 40.6 -33.15 40.45 Q-33.6 39.9 -32.9 39.25 L-30.35 38.5 -28.15 41.65 -24.15 44.3 -23.85 43.35 -23.75 43.3 Q-22.85 42.4 -24.5 41.45 -26.0 40.6 -27.2 38.45 -26.55 36.95 -24.35 36.75 L-22.5 40.4 -19.3 43.4 -18.55 42.2 Q-17.4 41.3 -18.75 40.35 -20.05 39.45 -20.65 37.0 -17.1 34.35 -11.75 34.95 L-10.7 38.65 Q-10.35 41.15 -7.8 42.9 L-7.4 41.6 Q-7.05 41.35 -7.35 40.15 L-8.35 35.7 Q-3.45 33.3 2.75 36.3 2.45 39.1 1.0 39.75 -0.45 40.4 1.05 41.75 L1.7 42.1 2.55 43.15 4.6 41.75 Q5.95 40.2 6.45 38.5 10.0 39.6 11.75 42.35 L10.75 43.5 10.75 44.7 11.35 45.1 12.3 45.45 13.8 43.9 Q14.3 46.95 19.65 46.35 L19.7 46.4 20.3 46.7 21.4 47.15 23.7 44.85 25.1 43.05 28.0 45.2" fill="url(#gradient71)" fill-rule="evenodd" stroke="none"/>
    <path d="M16.45 38.45 L17.25 38.65 16.9 39.35 15.3 42.35 13.8 43.9 12.3 45.45 11.35 45.1 Q11.9 45.2 12.45 44.3 14.9 41.9 16.45 38.45" fill="url(#gradient72)" fill-rule="evenodd" stroke="none"/>
    <path d="M17.25 38.65 Q21.35 39.75 22.75 41.55 L22.45 42.1 Q20.25 40.0 16.9 39.35 L17.25 38.65" fill="url(#gradient73)" fill-rule="evenodd" stroke="none"/>
    <path d="M13.8 43.9 L15.3 42.35 16.9 39.35 Q20.25 40.0 22.45 42.1 21.45 43.65 19.65 45.35 L19.65 46.35 Q14.3 46.95 13.8 43.9" fill="url(#gradient74)" fill-rule="evenodd" stroke="none"/>
    <path d="M6.45 38.5 L6.8 36.85 Q10.6 37.25 13.8 39.25 L11.75 42.35 Q10.0 39.6 6.45 38.5" fill="url(#gradient75)" fill-rule="evenodd" stroke="none"/>
    <path d="M22.75 41.55 Q24.15 39.0 24.55 36.8 L25.15 35.45 Q26.4 34.2 26.85 36.95 26.15 39.7 24.85 41.9 23.45 44.3 21.35 46.0 L21.2 46.2 Q20.75 46.7 20.3 46.7 L19.7 46.4 19.65 46.35 19.65 45.35 Q21.45 43.65 22.45 42.1 L22.75 41.55" fill="url(#gradient76)" fill-rule="evenodd" stroke="none"/>
    <path d="M26.05 42.5 L27.2 43.1 Q28.35 44.25 28.15 45.05 L28.0 45.2 25.1 43.05 23.7 44.85 21.4 47.15 20.3 46.7 Q20.75 46.7 21.2 46.2 L21.35 46.0 Q23.45 44.3 24.85 41.9 L26.05 42.5" fill="url(#gradient77)" fill-rule="evenodd" stroke="none"/>
    <path d="M77.7 55.75 L77.3 56.65 77.25 56.7 77.2 56.8 76.45 57.85 73.2 56.6 73.2 55.05 73.65 55.45 77.05 55.85 77.7 55.75" fill="url(#gradient78)" fill-rule="evenodd" stroke="none"/>
    <path d="M80.1 55.9 L79.8 57.65 Q77.65 59.3 75.4 59.6 L74.5 59.65 75.8 58.6 76.45 57.85 77.2 56.8 77.4 56.7 Q78.95 56.8 80.1 55.9" fill="url(#gradient79)" fill-rule="evenodd" stroke="none"/>
    <path d="M-29.0 26.8 Q-29.7 26.35 -28.65 23.3 L-28.1 21.7 Q-26.9 18.4 -25.45 15.9 L-24.95 15.0 -23.35 12.7 Q-20.3 8.25 -16.75 5.2 L-15.05 3.8 Q-13.45 3.75 -14.25 5.25 L-14.55 5.75 Q-18.5 9.6 -21.75 14.9 -22.25 15.25 -23.15 17.5 -24.95 19.95 -26.4 23.45 L-26.95 24.9 -27.65 26.4 Q-28.65 27.05 -29.0 26.8" fill="url(#gradient80)" fill-rule="evenodd" stroke="none"/>
    <path d="M-21.75 14.9 Q-18.5 9.6 -14.55 5.75 L-14.25 5.25 -14.15 7.05 Q-18.15 9.9 -20.95 15.9 L-21.75 14.9" fill="url(#gradient81)" fill-rule="evenodd" stroke="none"/>
    <path d="M-14.25 23.6 L-13.9 24.65 -15.4 24.65 Q-19.95 22.75 -23.0 19.0 L-25.85 23.95 -26.4 23.45 Q-24.95 19.95 -23.15 17.5 -20.15 20.6 -15.85 23.3 -14.6 23.95 -14.25 23.6" fill="url(#gradient82)" fill-rule="evenodd" stroke="none"/>
    <path d="M-21.75 14.9 L-20.95 15.9 Q-18.25 19.2 -14.45 22.1 -14.0 23.25 -14.25 23.6 -14.6 23.95 -15.85 23.3 -20.15 20.6 -23.15 17.5 -22.25 15.25 -21.75 14.9" fill="url(#gradient83)" fill-rule="evenodd" stroke="none"/>
    <path d="M-24.95 15.0 L-25.45 15.9 -27.35 12.65 Q-28.9 9.45 -28.75 7.25 L-27.75 5.4 -27.85 6.4 Q-27.55 10.75 -24.95 15.0" fill="url(#gradient84)" fill-rule="evenodd" stroke="none"/>
    <path d="M-23.35 12.7 L-24.95 15.0 Q-27.55 10.75 -27.85 6.4 L-27.75 5.4 Q-27.55 4.0 -26.6 4.85 -25.55 9.5 -23.35 12.7" fill="url(#gradient85)" fill-rule="evenodd" stroke="none"/>
    <path d="M-33.15 40.55 Q-41.35 37.4 -49.05 32.9 L-46.95 27.4 Q-46.05 24.35 -46.95 20.35 L-47.2 19.85 Q-45.2 22.85 -44.15 21.35 -45.8 14.5 -43.45 8.95 L-52.65 11.15 -54.7 10.3 -55.65 7.45 -55.45 7.35 Q-47.85 8.45 -40.2 5.2 L-40.7 6.2 -39.45 6.6 -38.2 6.95 -38.9 8.35 -38.9 10.35 -38.9 10.45 Q-40.4 14.65 -40.7 19.65 -41.4 30.85 -34.8 38.6 L-34.3 39.2 -32.9 39.25 Q-33.6 39.9 -33.15 40.45 L-33.15 40.55" fill="url(#gradient86)" fill-rule="evenodd" stroke="none"/>
    <path d="M-36.95 8.4 Q-42.8 27.3 -32.6 37.95 L-34.8 38.6 Q-41.4 30.85 -40.7 19.65 -40.4 14.65 -38.9 10.45 L-38.9 10.4 -38.85 10.4 -36.95 8.4" fill="url(#gradient87)" fill-rule="evenodd" stroke="none"/>
    <path d="M-25.85 23.95 L-27.0 27.05 -28.4 27.75 -29.0 26.8 Q-28.65 27.05 -27.65 26.4 L-26.95 24.9 -26.4 23.45 -25.85 23.95" fill="url(#gradient88)" fill-rule="evenodd" stroke="none"/>
    <path d="M-23.5 35.7 Q-23.85 33.95 -23.75 32.0 -23.6 29.85 -22.55 29.4 -21.75 29.15 -21.6 30.9 L-20.95 35.6 -20.65 37.0 Q-20.05 39.45 -18.75 40.35 -17.4 41.3 -18.55 42.2 -19.8 42.65 -20.3 41.7 -22.4 39.55 -23.25 36.75 L-23.5 35.7" fill="url(#gradient89)" fill-rule="evenodd" stroke="none"/>
    <path d="M-27.85 37.25 Q-25.45 35.45 -23.5 35.7 L-23.25 36.75 -24.35 36.75 Q-26.55 36.95 -27.2 38.45 L-27.85 37.25" fill="url(#gradient90)" fill-rule="evenodd" stroke="none"/>
    <path d="M-24.35 36.75 L-23.25 36.75 Q-22.4 39.55 -20.3 41.7 -19.8 42.65 -18.55 42.2 L-19.3 43.4 -22.5 40.4 -24.35 36.75" fill="url(#gradient91)" fill-rule="evenodd" stroke="none"/>
    <path d="M-20.95 35.6 Q-13.45 32.4 -11.0 34.05 L-10.95 35.05 -11.75 34.95 Q-17.1 34.35 -20.65 37.0 L-20.95 35.6" fill="url(#gradient92)" fill-rule="evenodd" stroke="none"/>
    <path d="M-30.4 37.25 Q-31.45 35.35 -32.05 33.1 -32.55 30.95 -31.65 30.5 -30.95 30.25 -30.25 32.0 -29.15 34.8 -27.85 37.25 L-27.2 38.45 Q-26.0 40.6 -24.5 41.45 -22.85 42.4 -23.75 43.3 L-23.85 43.35 -24.25 43.45 -25.25 43.15 -25.65 42.8 Q-28.15 40.85 -29.75 38.35 L-30.4 37.25" fill="url(#gradient93)" fill-rule="evenodd" stroke="none"/>
    <path d="M-32.6 37.95 L-30.4 37.25 -29.75 38.35 -30.35 38.5 -32.9 39.25 -34.3 39.2 -34.8 38.6 -32.6 37.95" fill="url(#gradient94)" fill-rule="evenodd" stroke="none"/>
    <path d="M-30.35 38.5 L-29.75 38.35 Q-28.15 40.85 -25.65 42.8 L-25.25 43.15 -24.25 43.45 -23.85 43.35 -24.15 44.3 -28.15 41.65 -30.35 38.5" fill="url(#gradient95)" fill-rule="evenodd" stroke="none"/>
    <path d="M-11.0 34.05 L-10.8 31.75 Q-10.55 30.5 -9.85 29.4 -9.65 28.45 -8.25 28.95 -6.8 29.8 -7.8 30.75 -8.2 31.1 -8.35 31.95 L-8.45 34.3 -8.35 35.7 -7.35 40.15 Q-7.05 41.35 -7.4 41.6 L-7.75 41.65 Q-8.95 41.15 -9.85 39.05 -10.75 36.9 -10.95 35.05 L-11.0 34.05" fill="url(#gradient96)" fill-rule="evenodd" stroke="none"/>
    <path d="M-8.45 34.3 L-8.35 31.95 Q-4.9 32.15 -2.75 33.6 -5.8 33.25 -8.45 34.3" fill="url(#gradient97)" fill-rule="evenodd" stroke="none"/>
    <path d="M-11.75 34.95 L-10.95 35.05 Q-10.75 36.9 -9.85 39.05 -8.95 41.15 -7.75 41.65 L-7.4 41.6 -7.8 42.9 Q-10.35 41.15 -10.7 38.65 L-11.75 34.95" fill="url(#gradient98)" fill-rule="evenodd" stroke="none"/>
    <path d="M-48.4 3.85 Q-51.85 5.1 -56.6 4.45 L-57.85 0.7 -48.4 3.85" fill="url(#gradient99)" fill-rule="evenodd" stroke="none"/>
    <path d="M-57.4 9.2 L-58.3 6.2 -55.95 6.45 -55.65 7.45 -54.7 10.3 -57.4 9.2" fill="url(#gradient100)" fill-rule="evenodd" stroke="none"/>
    <path d="M-54.7 10.3 L-52.65 11.15 -43.45 8.95 Q-45.8 14.5 -44.15 21.35 -45.2 22.85 -47.2 19.85 L-47.95 18.7 Q-49.15 16.9 -50.35 16.1 L-50.65 16.1 -51.1 16.2 -51.8 15.3 Q-52.9 14.25 -54.65 14.15 L-54.4 11.2 -54.7 10.3" fill="url(#gradient101)" fill-rule="evenodd" stroke="none"/>
    <path d="M-55.85 15.85 Q-56.15 14.7 -55.25 14.8 L-54.75 14.9 -53.1 15.9 -52.45 16.55 -52.45 16.6 -52.4 16.65 -51.0 18.75 Q-50.6 19.85 -51.0 20.2 L-51.4 20.35 Q-52.2 18.65 -53.2 17.75 L-53.3 17.65 -53.85 17.25 -54.0 17.15 -54.15 17.1 Q-54.65 16.85 -55.1 16.75 L-55.55 16.7 -55.85 15.85" fill="url(#gradient102)" fill-rule="evenodd" stroke="none"/>
    <path d="M-80.2 45.5 L-80.25 45.5 Q-84.95 41.85 -82.8 31.65 -71.55 18.25 -57.65 14.55 L-56.8 14.3 -54.65 14.15 Q-52.9 14.25 -51.8 15.3 L-53.1 15.9 -54.75 14.9 -55.25 14.8 Q-56.15 14.7 -55.85 15.85 L-57.25 16.7 -56.1 17.25 -60.15 19.7 Q-61.25 18.85 -62.45 18.7 -63.8 18.55 -62.8 20.6 L-63.7 21.5 -62.85 21.95 -67.5 26.05 Q-68.8 25.25 -70.25 25.1 -71.9 24.95 -70.65 27.0 L-70.65 27.05 -71.75 28.05 -69.85 28.55 -73.9 32.9 Q-75.55 31.9 -77.4 31.7 -79.1 31.55 -78.05 33.3 L-78.5 34.25 -76.0 35.3 -77.95 38.4 -78.45 41.4 -79.85 38.95 Q-81.3 38.65 -80.8 40.35 L-80.25 43.45 -77.6 45.8 -77.4 46.75 -77.25 47.3 -77.4 47.5 -80.2 45.5" fill="url(#gradient103)" fill-rule="evenodd" stroke="none"/>
    <path d="M-55.85 15.85 L-55.55 16.7 -55.1 16.75 Q-54.65 16.85 -54.15 17.1 L-54.2 17.25 -54.7 17.45 -55.4 17.8 Q-57.1 18.7 -58.95 20.05 L-59.4 20.35 -59.4 20.4 -60.15 19.7 -56.1 17.25 -57.25 16.7 -55.85 15.85" fill="url(#gradient104)" fill-rule="evenodd" stroke="none"/>
    <path d="M-51.0 20.2 Q-50.6 19.85 -51.0 18.75 L-52.4 16.65 -52.4 16.55 -51.1 16.2 -50.65 16.1 -50.35 16.1 Q-49.15 16.9 -47.95 18.7 L-49.4 24.4 Q-56.5 37.0 -67.35 44.95 L-73.9 48.9 Q-75.85 49.25 -77.4 46.75 L-77.6 45.8 Q-76.25 47.6 -74.5 47.25 L-74.5 45.9 Q-74.0 45.6 -74.5 44.15 -76.45 43.5 -77.85 42.1 L-77.85 42.05 Q-77.7 40.05 -76.9 38.15 L-74.85 35.65 -72.5 38.2 -71.35 37.25 Q-69.9 37.15 -70.8 35.65 -71.85 34.35 -73.0 33.5 L-68.75 28.85 -65.3 32.1 -64.9 30.65 Q-63.65 30.55 -64.4 29.05 -65.35 27.75 -66.4 26.85 L-66.6 26.65 -61.7 22.15 -59.1 24.4 -57.7 26.1 -57.55 24.15 -57.5 23.85 Q-57.4 23.5 -57.65 22.85 L-57.7 22.65 -59.2 20.6 -59.4 20.35 -58.95 20.05 Q-57.1 18.7 -55.4 17.8 L-54.7 17.45 -52.5 19.8 -51.15 21.95 -51.0 20.2" fill="url(#gradient105)" fill-rule="evenodd" stroke="none"/>
    <path d="M-54.0 17.15 L-53.85 17.25 -53.3 17.65 -53.2 17.75 Q-52.2 18.65 -51.4 20.35 L-51.0 20.2 -51.15 21.95 -52.5 19.8 -54.7 17.45 -54.2 17.25 -54.0 17.15" fill="url(#gradient106)" fill-rule="evenodd" stroke="none"/>
    <path d="M-52.45 16.55 L-53.1 15.9 -51.8 15.3 -51.1 16.2 -52.4 16.55 -52.45 16.55" fill="url(#gradient107)" fill-rule="evenodd" stroke="none"/>
    <path d="M-57.55 24.15 L-57.7 26.1 -59.1 24.4 -61.7 22.15 -60.95 21.55 -60.65 21.3 -60.3 21.55 Q-60.25 21.55 -60.15 21.65 L-59.85 21.95 Q-58.9 22.8 -58.15 24.25 L-57.7 24.1 -57.55 24.15" fill="url(#gradient108)" fill-rule="evenodd" stroke="none"/>
    <path d="M-59.2 20.6 L-57.7 22.65 -57.65 22.85 Q-57.4 23.5 -57.5 23.85 L-57.7 24.1 -58.15 24.25 Q-58.9 22.8 -59.85 21.95 L-60.15 21.65 Q-60.25 21.55 -60.3 21.55 L-60.65 21.3 -60.85 21.2 Q-61.75 20.65 -62.8 20.6 -63.8 18.55 -62.45 18.7 -61.25 18.85 -60.15 19.7 L-59.4 20.4 -59.35 20.45 -59.25 20.55 -59.2 20.6" fill="url(#gradient109)" fill-rule="evenodd" stroke="none"/>
    <path d="M-49.05 32.9 Q-55.1 46.5 -66.2 52.15 -71.75 54.35 -75.05 51.0 -76.1 49.9 -76.95 48.2 L-77.1 47.7 -77.25 47.3 -77.4 46.75 Q-75.85 49.25 -73.9 48.9 L-67.35 44.95 Q-56.5 37.0 -49.4 24.4 L-47.95 18.7 -47.2 19.85 -46.95 20.35 Q-46.05 24.35 -46.95 27.4 L-49.05 32.9" fill="url(#gradient110)" fill-rule="evenodd" stroke="none"/>
    <path d="M-61.7 22.15 L-66.6 26.65 -66.65 26.65 -67.5 26.05 -62.85 21.95 -63.7 21.5 -62.8 20.6 Q-61.75 20.65 -60.85 21.2 L-60.95 21.55 -61.7 22.15" fill="url(#gradient111)" fill-rule="evenodd" stroke="none"/>
    <path d="M-66.4 26.85 Q-65.35 27.75 -64.4 29.05 -63.65 30.55 -64.9 30.65 -66.05 28.95 -67.45 28.05 L-67.8 27.8 -67.95 27.75 Q-69.2 27.1 -70.65 27.0 -71.9 24.95 -70.25 25.1 -68.8 25.25 -67.5 26.05 L-66.65 26.65 -66.4 26.85" fill="url(#gradient112)" fill-rule="evenodd" stroke="none"/>
    <path d="M-64.9 30.65 L-65.3 32.1 -68.75 28.85 -68.0 28.05 -67.8 27.8 -67.45 28.05 Q-66.05 28.95 -64.9 30.65" fill="url(#gradient113)" fill-rule="evenodd" stroke="none"/>
    <path d="M-68.0 28.05 L-68.75 28.85 -69.85 28.55 -71.75 28.05 -70.65 27.05 -70.65 27.0 Q-69.2 27.1 -67.95 27.75 L-68.0 28.05" fill="url(#gradient114)" fill-rule="evenodd" stroke="none"/>
    <path d="M-68.75 28.85 L-73.0 33.5 -73.9 32.9 -69.85 28.55 -68.75 28.85" fill="url(#gradient115)" fill-rule="evenodd" stroke="none"/>
    <path d="M-74.85 35.65 L-76.9 38.15 Q-77.7 40.05 -77.85 42.05 L-77.9 42.05 -78.45 41.4 -77.95 38.4 -76.0 35.3 -78.5 34.25 -78.05 33.3 -77.85 33.6 Q-75.8 33.7 -74.05 34.75 L-74.85 35.65" fill="url(#gradient116)" fill-rule="evenodd" stroke="none"/>
    <path d="M-73.0 33.5 Q-71.85 34.35 -70.8 35.65 -69.9 37.15 -71.35 37.25 -72.55 35.65 -74.05 34.75 -75.8 33.7 -77.85 33.6 L-78.05 33.3 Q-79.1 31.55 -77.4 31.7 -75.55 31.9 -73.9 32.9 L-73.0 33.5" fill="url(#gradient117)" fill-rule="evenodd" stroke="none"/>
    <path d="M-71.35 37.25 L-72.5 38.2 -74.85 35.65 -74.05 34.75 Q-72.55 35.65 -71.35 37.25" fill="url(#gradient118)" fill-rule="evenodd" stroke="none"/>
    <path d="M-77.85 42.1 Q-76.45 43.5 -74.5 44.15 -74.0 45.6 -74.5 45.9 -74.8 46.1 -75.45 45.9 -76.75 45.35 -77.8 44.45 L-79.2 43.0 -80.8 40.35 Q-81.3 38.65 -79.85 38.95 L-78.45 41.4 -77.9 42.05 -77.85 42.1" fill="url(#gradient119)" fill-rule="evenodd" stroke="none"/>
    <path d="M-80.8 40.35 L-79.2 43.0 -77.8 44.45 -77.6 45.8 -80.25 43.45 -80.8 40.35" fill="url(#gradient120)" fill-rule="evenodd" stroke="none"/>
    <path d="M-74.5 45.9 L-74.5 47.25 Q-76.25 47.6 -77.6 45.8 L-77.8 44.45 Q-76.75 45.35 -75.45 45.9 -74.8 46.1 -74.5 45.9" fill="url(#gradient121)" fill-rule="evenodd" stroke="none"/>
    <path d="M-75.05 51.0 Q-77.15 50.1 -78.65 48.15 L-80.2 45.5 -77.4 47.5 -77.1 47.7 -76.95 48.2 Q-76.1 49.9 -75.05 51.0" fill="url(#gradient122)" fill-rule="evenodd" stroke="none"/>
    <path d="M5.8 -29.95 Q8.0 -29.4 8.15 -25.65 L8.15 -23.95 Q8.2 -18.3 6.75 -14.65 L5.45 -15.0 Q7.2 -18.1 6.85 -24.45 6.9 -27.15 4.65 -28.8 4.8 -29.6 5.8 -29.95" fill="#513300" fill-rule="evenodd" stroke="none"/>
    <path d="M26.55 -2.95 L27.5 -3.95 29.3 1.55 27.3 0.2 26.55 -2.95 M28.8 -3.85 L30.0 -5.2 32.4 1.3 29.25 -2.7 32.4 1.3 33.65 2.85 36.3 3.95 39.0 5.1 36.3 3.95 34.2 1.1 Q32.6 -1.45 32.2 -3.75 L35.5 -0.2 36.2 0.7 36.35 0.9 39.0 5.1 39.05 5.1 40.7 5.75 40.75 5.95 39.65 6.4 37.7 7.3 38.3 7.7 35.15 7.7 Q30.55 6.45 27.65 1.75 L27.3 0.2 29.3 1.55 31.3 2.95 29.25 -2.7 28.8 -3.85 M37.7 7.3 L31.3 2.95 37.7 7.3 M-29.8 -3.45 L-30.95 -3.45 -31.05 -3.3 -32.85 -1.8 -35.85 0.75 -36.25 2.35 -29.8 -3.45 -28.7 -3.45 -29.8 -3.45 M-28.65 -5.05 L-28.7 -3.45 -29.5 -2.8 -30.5 -2.0 -31.2 -1.35 -32.3 -0.3 Q-35.45 2.9 -37.4 6.85 -35.45 2.9 -32.3 -0.3 L-31.2 -1.35 -35.05 6.4 -36.95 8.4 -38.85 10.4 -38.9 10.35 -38.9 8.35 -38.2 6.95 -39.45 6.6 -37.15 1.25 -37.85 1.75 -36.65 -0.3 -32.9 -3.45 -28.65 -5.05 M-32.85 -1.8 L-37.15 1.25 -32.85 -1.8 M-37.4 6.85 L-36.65 3.95 -36.25 2.35 -36.65 3.95 -37.4 6.85 M-36.65 3.95 L-38.2 6.95 -36.65 3.95" fill="#333300" fill-rule="evenodd" stroke="none"/>
    <path d="M32.15 -6.85 L32.2 -3.75 Q32.6 -1.45 34.2 1.1 L36.3 3.95 33.65 2.85 32.4 1.3 30.0 -5.2 30.25 -5.45 32.15 -7.6 32.15 -6.85 M27.5 -3.95 L28.4 -5.0 28.8 -3.85 29.25 -2.7 31.3 2.95 29.3 1.55 27.5 -3.95 M-36.25 -1.0 L-34.65 -3.7 -29.55 -6.2 -28.65 -6.65 -28.65 -5.05 -32.9 -3.45 -36.65 -0.3 -36.25 -1.0 M-36.25 2.35 L-35.85 0.75 -32.85 -1.8 -31.05 -3.3 -30.95 -3.45 -29.8 -3.45 -36.25 2.35 M-37.85 1.75 L-37.15 1.25 -39.45 6.6 -40.7 6.2 -40.2 5.2 -38.95 2.5 -37.85 1.75" fill="#336600" fill-rule="evenodd" stroke="none"/>
    <path d="M37.35 -22.4 L37.95 -24.95 38.5 -24.95 39.05 -24.95 38.65 -22.2 40.4 -21.95 Q41.7 -24.35 43.15 -26.45 23.55 -30.6 6.15 -30.05 M37.35 -22.4 L34.75 -11.35 33.45 -9.1 33.1 -8.5 32.9 -8.1 32.15 -6.85 32.2 -3.75 Q32.6 -1.45 34.2 1.1 L36.3 3.95 33.65 2.85 32.4 1.3 29.25 -2.7 31.3 2.95 37.7 7.3 38.3 7.7 35.15 7.7 Q30.55 6.45 27.65 1.75 L27.3 0.2 26.55 -2.95 27.5 -3.95 28.4 -5.0 28.8 -3.85 30.0 -5.2 30.25 -5.45 32.15 -7.6 32.2 -8.35 Q32.35 -15.35 29.15 -17.7 L30.3 -18.7 31.4 -19.75 Q34.1 -15.45 33.45 -9.1 M5.45 -15.0 L6.75 -14.65 7.35 -14.45 M2.0 -29.9 Q-12.85 -29.35 -27.65 -26.05 L-28.3 -20.45 -27.85 -20.55 -25.9 -23.9 -25.45 -23.65 -24.2 -22.95 -25.45 -21.0 Q-27.95 -16.85 -29.6 -10.3 L-29.55 -8.25 -29.55 -6.2 -28.65 -6.65 -28.65 -5.05 -28.7 -3.45 -29.8 -3.45 -30.95 -3.45 -31.05 -3.3 -32.85 -1.8 -35.85 0.75 -36.25 2.35 -36.65 3.95 -37.4 6.85 M-2.8 -14.55 L-2.15 -14.95 Q1.7 -15.75 5.25 -15.05 L5.45 -15.0 M3.5 -13.9 L2.2 -13.1 4.9 -12.3 5.75 -11.95 Q6.8 -11.5 6.8 -10.5 7.2 -9.55 6.7 -9.3 L5.25 -9.45 Q2.3 -10.45 -0.8 -10.7 L-1.7 -9.75 -3.7 -7.15 M-6.3 0.0 L-5.4 -3.6 -5.0 -4.55 M-5.95 -11.0 Q-6.8 -11.45 -6.3 -12.35 L-5.2 -13.0 -3.3 -13.3 2.2 -13.1 M39.9 -21.05 L40.4 -21.95 M38.05 -18.2 L38.65 -22.2 M68.65 -29.05 L67.8 -33.0 Q62.1 -27.5 54.45 -23.65 L53.6 -23.25 54.1 -23.75 54.45 -23.65 M38.4 -18.15 L39.9 -21.05 M49.65 -33.5 L49.15 -33.9 Q45.95 -30.75 43.15 -26.45 M28.8 -3.85 L29.25 -2.7 M32.15 -7.6 L32.15 -6.85 M74.2 -41.6 L75.25 -40.65 Q67.5 -38.75 59.75 -29.8 L54.1 -23.75 M74.2 -41.6 L73.2 -42.5 65.35 -38.8 47.05 -25.55 45.95 -24.8 46.15 -25.8 47.05 -25.55 M79.15 -33.95 L79.75 -33.0 Q75.85 -28.8 70.15 -25.7 L71.15 -24.4 67.45 -19.45 68.75 -19.0 74.5 -23.65 74.8 -22.9 75.1 -22.15 71.2 -18.05 73.15 -17.3 Q76.4 -16.0 75.85 -12.85 L75.65 -12.1 74.7 -9.5 Q71.35 0.3 72.15 9.2 L77.15 21.85 Q77.5 23.95 77.25 25.6 76.95 27.7 75.8 29.05 L76.7 30.1 Q84.7 38.75 83.2 48.5 82.7 51.95 81.65 53.95 L81.65 54.0 Q80.95 55.25 80.1 55.9 L79.8 57.65 Q77.65 59.3 75.4 59.6 L74.5 59.65 73.7 60.1 Q59.55 62.45 58.25 49.7 L54.15 38.35 52.65 34.3 Q51.95 27.9 53.55 25.15 M-49.05 32.9 Q-55.1 46.5 -66.2 52.15 -71.75 54.35 -75.05 51.0 -77.15 50.1 -78.65 48.15 L-80.2 45.5 -80.25 45.5 Q-84.95 41.85 -82.8 31.65 -71.55 18.25 -57.65 14.55 -57.4 12.15 -57.4 9.2 L-58.3 6.2 -60.75 -1.8 -61.9 -5.55 -61.9 -5.6 Q-64.8 -8.85 -67.3 -13.6 L-66.4 -14.9 -65.55 -16.15 -60.65 -13.0 -60.45 -13.4 -62.4 -16.65 Q-67.4 -25.75 -70.2 -36.15 L-69.5 -37.25 -68.85 -38.3 Q-62.4 -25.9 -52.5 -18.95 -61.35 -32.55 -66.55 -48.0 L-65.95 -48.85 -64.8 -50.5 Q-61.65 -41.1 -55.65 -32.25 L-50.75 -25.8 Q-53.7 -38.1 -60.3 -47.6 L-59.3 -48.2 -58.35 -48.75 Q-52.35 -42.7 -47.25 -32.15 L-46.15 -29.75 -45.9 -29.2 -46.1 -29.75 Q-48.7 -36.85 -49.05 -46.85 L-48.3 -46.85 -46.5 -46.85 -45.9 -42.7 -44.8 -43.1 M-44.75 -43.15 L-43.4 -43.7 -42.65 -44.0 Q-45.15 -52.15 -49.25 -58.7 L-48.25 -59.6 -47.3 -60.45 Q-41.6 -52.3 -36.8 -41.6 L-35.3 -38.1 Q-36.4 -44.4 -38.75 -48.95 L-37.55 -49.45 -36.4 -49.95 Q-32.85 -42.55 -30.85 -34.75 L-30.15 -31.7 Q-30.0 -37.35 -31.55 -43.35 L-30.75 -43.35 -30.0 -43.35 Q-27.1 -36.25 -27.3 -29.15 L-27.65 -26.05 M68.65 -29.05 Q75.4 -30.95 78.6 -34.85 L79.15 -33.95 M49.65 -33.5 L50.6 -32.8 Q47.1 -30.8 46.15 -25.8 M72.55 -11.2 L71.85 -12.5 70.5 -14.9 68.65 -13.7 64.85 -11.5 67.8 -14.55 71.2 -18.05 M64.6 -15.65 L64.95 -16.05 64.95 -16.1 67.45 -19.45 M61.5 3.35 L63.5 2.1 58.15 2.1 68.0 -2.95 Q69.6 -3.85 70.95 -4.9 L71.7 -5.55 Q73.6 -7.35 74.7 -9.5 M72.55 -11.2 L74.7 -14.3 75.5 -12.5 75.65 -12.1 M64.6 -15.65 L65.05 -16.0 64.95 -16.05 M65.05 -16.0 L68.75 -19.0 M77.85 47.1 L78.1 48.3 78.45 50.9 78.35 53.3 M77.7 55.75 L77.3 56.65 77.25 56.7 77.4 56.7 77.2 56.8 76.45 57.85 75.8 58.6 74.5 59.65 M77.4 56.7 Q78.95 56.8 80.1 55.9 M75.3 28.55 L75.8 29.05 M66.9 22.7 Q63.5 21.45 59.75 21.5 L58.05 22.5 57.1 23.0 Q59.4 23.6 61.5 24.7 M40.75 5.95 L40.9 5.85 40.7 5.75 39.05 5.1 39.0 5.1 36.3 3.95 M40.9 5.75 L40.7 5.75 M48.7 4.05 Q54.5 3.75 60.15 4.15 L61.5 3.35 M53.7 24.85 Q54.85 23.05 57.1 23.0 M70.55 32.65 L71.35 33.7 71.4 33.7 74.0 37.5 M64.1 26.4 L63.3 25.85 M69.15 31.1 L66.3 28.3 64.1 26.4 M75.6 40.6 L75.0 39.3 M75.65 40.7 L75.6 40.6 M75.65 40.7 L76.85 43.6 77.3 45.0 M75.3 28.55 Q71.45 24.4 66.9 22.7 M39.65 6.4 L37.7 7.3 M26.05 42.5 L27.2 43.1 Q28.1 43.6 29.35 43.7 M39.65 6.4 L40.75 5.95 M29.3 1.55 L27.3 0.2 M31.3 2.95 L29.3 1.55 M16.45 38.45 L17.25 38.65 Q21.35 39.75 22.75 41.55 M24.85 41.9 L26.05 42.5 M5.8 35.8 L6.8 35.95 Q11.7 36.6 14.15 38.45 M28.15 45.05 Q28.35 44.25 27.2 43.1 M77.25 56.7 L77.2 56.8 M39.05 5.1 L48.7 4.05 M-41.95 -32.05 L-40.9 -32.65 M-61.85 -5.55 L-61.9 -5.6 M-36.25 -1.0 L-34.65 -3.7 -29.55 -6.2 M-45.35 2.3 L-47.1 3.3 -48.4 3.85 Q-51.85 5.1 -56.6 4.45 L-56.2 5.45 -55.45 7.35 Q-47.85 8.45 -40.2 5.2 L-38.95 2.5 -37.85 1.75 -37.15 1.25 -32.85 -1.8 M-60.65 -13.0 L-59.95 -12.55 -60.45 -13.4 M-45.35 2.3 L-56.6 -1.2 -59.05 -2.9 -61.85 -5.55 M-28.4 -19.6 L-27.85 -20.55 M-28.3 -20.45 L-28.4 -19.6 M-36.65 -0.3 L-37.85 1.75 M-31.2 -1.35 L-35.05 6.4 -36.95 8.4 -38.85 10.4 -38.9 10.4 -38.9 10.35 -38.9 8.35 -38.2 6.95 -39.45 6.6 -40.7 6.2 -40.2 5.2 M-29.0 26.8 Q-29.7 26.35 -28.65 23.3 L-28.1 21.7 Q-26.9 18.4 -25.45 15.9 L-24.95 15.0 -23.35 12.7 Q-25.55 9.5 -26.6 4.85 -27.55 4.0 -27.75 5.4 L-27.85 6.4 Q-27.55 10.75 -24.95 15.0 M-3.25 -14.5 L-2.8 -14.55 M-5.95 -11.0 L-5.4 -10.8 -5.3 -10.65 -0.8 -10.7 M-14.25 5.25 L-14.55 5.75 Q-18.5 9.6 -21.75 14.9 L-20.95 15.9 Q-18.25 19.2 -14.45 22.1 -14.0 23.25 -14.25 23.6 -14.6 23.95 -15.85 23.3 -20.15 20.6 -23.15 17.5 -24.95 19.95 -26.4 23.45 L-26.95 24.9 -27.65 26.4 Q-28.65 27.05 -29.0 26.8 M-14.25 5.25 Q-13.45 3.75 -15.05 3.8 L-16.75 5.2 Q-20.3 8.25 -23.35 12.7 M-47.2 19.85 L-46.95 20.35 Q-46.05 24.35 -46.95 27.4 L-49.05 32.9 M-38.9 10.45 L-38.9 10.4 M-38.2 6.95 L-36.65 3.95 M-21.75 14.9 Q-22.25 15.25 -23.15 17.5 M-24.35 36.75 L-23.25 36.75 M-33.15 40.45 Q-33.6 39.9 -32.9 39.25 L-34.3 39.2 M-30.35 38.5 L-29.75 38.35 M-30.35 38.5 L-32.9 39.25 M-27.2 38.45 Q-26.55 36.95 -24.35 36.75 M-8.35 35.7 Q-3.45 33.3 2.75 36.3 M-10.95 35.05 L-11.75 34.95 Q-17.1 34.35 -20.65 37.0 M-51.8 15.3 Q-52.9 14.25 -54.65 14.15 L-56.8 14.3 -57.65 14.55 M-54.7 17.45 L-55.4 17.8 Q-57.1 18.7 -58.95 20.05 L-59.4 20.35 -59.4 20.4 M-61.7 22.15 L-66.6 26.65 -66.65 26.65 M-68.75 28.85 L-73.0 33.5 M-74.85 35.65 L-76.9 38.15 Q-77.7 40.05 -77.85 42.05 L-77.85 42.1 M-77.6 45.8 L-77.4 46.75 -77.25 47.3 -77.1 47.7 -77.4 47.5 -80.2 45.5 M-47.95 18.7 Q-49.15 16.9 -50.35 16.1 M-50.65 16.1 L-51.1 16.2 -52.4 16.55 -52.45 16.55 M-54.0 17.15 L-54.2 17.25 -54.7 17.45 M-51.8 15.3 L-51.1 16.2 M-60.65 21.3 L-60.95 21.55 -61.7 22.15 M-47.95 18.7 L-47.2 19.85 M-67.8 27.8 L-68.0 28.05 -68.75 28.85 M-74.05 34.75 L-74.85 35.65 M-77.6 45.8 L-77.8 44.45 M-77.1 47.7 L-76.95 48.2 Q-76.1 49.9 -75.05 51.0" fill="none" stroke="#000000" stroke-linecap="round" stroke-linejoin="round" stroke-opacity="0.4" stroke-width="0.5"/>
    <path d="M6.15 -30.05 L5.8 -29.95 Q4.8 -29.6 4.65 -28.8 6.9 -27.15 6.85 -24.45 7.2 -18.1 5.45 -15.0 M4.65 -28.8 Q3.55 -29.35 2.5 -29.95 L2.0 -29.9 M-2.8 -14.55 Q4.05 -14.9 3.5 -13.9 L7.35 -14.45 Q15.7 -15.05 23.6 -10.4 M-2.75 -6.95 Q-1.1 -6.6 0.45 -5.9 1.5 -5.45 1.5 -4.45 1.9 -3.55 1.45 -3.3 L-0.05 -3.4 -5.0 -4.55 Q-7.75 -4.9 -10.6 -4.6 L-10.7 -4.75 -11.5 -5.15 Q-12.0 -5.6 -11.6 -6.3 L-10.5 -6.95 -3.7 -7.15 -2.75 -6.95 M30.25 -5.45 Q27.3 -8.1 24.3 -9.95 M32.2 -3.75 L35.5 -0.2 36.2 0.7 36.35 0.9 39.0 5.1 M54.15 38.35 L47.4 40.5 37.15 43.3 28.2 45.15 28.0 45.2 Q16.2 53.15 0.95 53.4 -16.45 53.7 -29.05 44.15 L-33.05 40.6 -33.15 40.55 Q-41.35 37.4 -49.05 32.9 M82.05 46.85 Q80.4 46.55 78.85 46.85 L77.85 47.1 Q76.05 47.6 74.4 48.9 L73.95 49.0 Q73.2 48.95 73.85 46.8 75.55 45.45 77.3 45.0 L78.0 44.9 78.3 44.85 81.7 45.2 Q82.85 46.05 82.05 46.85 M79.05 52.95 L80.95 51.75 Q81.85 51.35 81.75 52.55 L81.45 53.9 Q79.6 55.3 77.7 55.75 L77.05 55.85 73.65 55.45 73.2 55.05 Q72.65 54.4 73.3 53.8 74.9 54.1 76.5 53.85 L78.35 53.3 79.05 52.95 M62.3 24.2 Q64.5 22.95 66.8 23.0 67.95 23.5 67.15 24.55 65.15 24.8 63.3 25.85 61.3 26.95 59.35 29.0 L59.1 29.15 Q58.05 29.7 58.8 27.05 60.1 25.65 61.5 24.7 L62.3 24.2 M70.05 30.75 Q72.3 29.9 74.6 29.95 L74.75 30.0 Q76.05 30.5 75.1 31.5 L75.05 31.5 Q72.75 31.7 70.55 32.65 67.8 33.8 65.25 35.95 L64.4 36.2 Q63.95 36.0 64.4 34.55 L64.55 34.0 Q66.8 32.1 69.15 31.1 L70.05 30.75 M74.8 37.25 L78.4 37.15 Q79.5 37.75 78.95 38.55 L78.75 38.75 Q76.85 38.65 75.0 39.3 72.7 40.1 70.55 41.95 L70.3 42.05 Q69.2 42.4 70.0 39.9 71.95 38.2 74.0 37.5 L74.8 37.25 M29.35 43.7 L30.3 43.05 Q42.3 33.0 42.3 18.8 42.3 12.15 39.65 6.4 M20.1 13.8 Q21.9 11.1 23.0 7.0 L23.35 5.6 Q24.05 5.1 24.3 6.15 L24.4 7.1 24.45 7.5 Q24.1 11.85 21.6 16.1 L22.0 16.8 Q23.8 20.0 25.2 24.4 26.25 27.5 25.55 27.9 25.15 28.1 24.25 27.5 L23.55 26.0 Q21.95 21.55 19.9 18.6 19.0 16.35 18.55 16.0 15.4 10.7 11.6 6.85 L11.25 6.3 11.05 5.7 Q10.85 4.85 12.05 4.9 L13.7 6.3 13.9 6.5 Q17.2 9.5 20.1 13.8 L21.6 16.1 M11.5 24.8 Q10.9 24.7 11.45 23.2 15.15 20.25 17.85 16.9 L18.55 16.0 M11.5 24.8 Q11.9 24.9 12.8 24.4 16.95 21.7 19.9 18.6 M14.55 37.55 L15.65 33.4 16.25 31.8 Q17.5 30.35 17.95 33.6 17.4 36.25 16.45 38.45 14.9 41.9 12.45 44.3 11.9 45.2 11.35 45.1 L10.75 44.7 10.75 43.5 11.75 42.35 13.8 39.25 14.15 38.45 14.55 37.55 M22.75 41.55 Q24.15 39.0 24.55 36.8 L25.15 35.45 Q26.4 34.2 26.85 36.95 26.15 39.7 24.85 41.9 23.45 44.3 21.35 46.0 L21.2 46.2 Q20.75 46.7 20.3 46.7 L19.7 46.4 19.65 46.35 19.65 45.35 Q21.45 43.65 22.45 42.1 L22.75 41.55 M5.85 34.7 L5.8 35.8 Q5.5 39.65 2.95 41.75 2.6 42.4 1.7 42.1 L1.05 41.75 Q-0.45 40.4 1.0 39.75 2.45 39.1 2.75 36.3 L2.85 35.4 3.0 30.15 Q3.0 28.3 3.9 28.8 5.15 29.6 5.6 32.05 L5.85 34.7 M28.0 45.2 L28.15 45.05 M-31.2 -1.35 L-30.5 -2.0 -29.5 -2.8 -28.7 -3.45 -21.2 -8.65 -20.1 -9.4 Q-13.15 -13.85 -4.85 -14.4 L-3.25 -14.5 M-37.4 6.85 Q-35.45 2.9 -32.3 -0.3 L-31.2 -1.35 M-30.4 37.25 Q-31.45 35.35 -32.05 33.1 -32.55 30.95 -31.65 30.5 -30.95 30.25 -30.25 32.0 -29.15 34.8 -27.85 37.25 L-27.2 38.45 Q-26.0 40.6 -24.5 41.45 -22.85 42.4 -23.75 43.3 L-23.85 43.35 -24.25 43.45 -25.25 43.15 -25.65 42.8 Q-28.15 40.85 -29.75 38.35 L-30.4 37.25 M-23.5 35.7 Q-23.85 33.95 -23.75 32.0 -23.6 29.85 -22.55 29.4 -21.75 29.15 -21.6 30.9 L-20.95 35.6 -20.65 37.0 Q-20.05 39.45 -18.75 40.35 -17.4 41.3 -18.55 42.2 -19.8 42.65 -20.3 41.7 -22.4 39.55 -23.25 36.75 L-23.5 35.7 M-11.0 34.05 L-10.8 31.75 Q-10.55 30.5 -9.85 29.4 -9.65 28.45 -8.25 28.95 -6.8 29.8 -7.8 30.75 -8.2 31.1 -8.35 31.95 L-8.45 34.3 -8.35 35.7 -7.35 40.15 Q-7.05 41.35 -7.4 41.6 L-7.75 41.65 Q-8.95 41.15 -9.85 39.05 -10.75 36.9 -10.95 35.05 L-11.0 34.05 M-38.9 10.35 L-38.9 10.45 Q-40.4 14.65 -40.7 19.65 -41.4 30.85 -34.8 38.6 L-34.3 39.2 M-33.05 40.6 L-33.15 40.45 M-53.1 15.9 L-54.75 14.9 -55.25 14.8 Q-56.15 14.7 -55.85 15.85 L-55.55 16.7 -55.1 16.75 Q-54.65 16.85 -54.15 17.1 L-54.0 17.15 -53.85 17.25 -53.3 17.65 -53.2 17.75 Q-52.2 18.65 -51.4 20.35 L-51.0 20.2 Q-50.6 19.85 -51.0 18.75 L-52.4 16.65 -52.45 16.6 -52.45 16.55 -53.1 15.9 M-59.2 20.6 L-57.7 22.65 -57.65 22.85 Q-57.4 23.5 -57.5 23.85 L-57.7 24.1 -58.15 24.25 Q-58.9 22.8 -59.85 21.95 L-60.15 21.65 Q-60.25 21.55 -60.3 21.55 L-60.65 21.3 -60.85 21.2 Q-61.75 20.65 -62.8 20.6 -63.8 18.55 -62.45 18.7 -61.25 18.85 -60.15 19.7 L-59.4 20.4 -59.35 20.45 -59.25 20.55 -59.2 20.6 M-66.4 26.85 Q-65.35 27.75 -64.4 29.05 -63.65 30.55 -64.9 30.65 -66.05 28.95 -67.45 28.05 L-67.8 27.8 -67.95 27.75 Q-69.2 27.1 -70.65 27.0 -71.9 24.95 -70.25 25.1 -68.8 25.25 -67.5 26.05 L-66.65 26.65 -66.4 26.85 M-73.0 33.5 Q-71.85 34.35 -70.8 35.65 -69.9 37.15 -71.35 37.25 -72.55 35.65 -74.05 34.75 -75.8 33.7 -77.85 33.6 L-78.05 33.3 Q-79.1 31.55 -77.4 31.7 -75.55 31.9 -73.9 32.9 L-73.0 33.5 M-77.85 42.1 Q-76.45 43.5 -74.5 44.15 -74.0 45.6 -74.5 45.9 -74.8 46.1 -75.45 45.9 -76.75 45.35 -77.8 44.45 L-79.2 43.0 -80.8 40.35 Q-81.3 38.65 -79.85 38.95 L-78.45 41.4 -77.9 42.05 -77.85 42.1" fill="none" stroke="#000000" stroke-linecap="round" stroke-linejoin="round" stroke-opacity="0.4" stroke-width="0.5"/>
    <path d="M24.3 -9.95 L23.6 -10.4 M32.2 -8.35 L32.9 -8.1 M32.2 -8.35 L24.3 -9.95 M-20.1 -9.4 L-29.55 -8.25" fill="none" stroke="#000000" stroke-linecap="round" stroke-linejoin="round" stroke-opacity="0.4" stroke-width="1.0"/>
    <path d="M8.15 -23.95 Q22.65 -24.65 37.35 -22.4 M-25.45 -21.0 Q-9.35 -24.2 6.85 -24.45" fill="none" stroke="#fdb100" stroke-linecap="round" stroke-linejoin="round" stroke-opacity="0.4" stroke-width="1.0"/>
    <path d="M-42.9 -33.8 Q-44.95 -37.85 -45.9 -42.7 M-40.85 -15.4 L-43.0 -31.5 -41.95 -32.05 -42.9 -33.8 M-40.9 -32.65 Q-39.95 -27.45 -38.65 -23.2 L-37.05 -18.5 -35.85 -15.75 M-42.15 -19.0 L-45.9 -29.2 M-46.35 -15.35 L-46.6 -15.5 -47.6 -15.95 -52.2 -18.75 -52.5 -18.95 M-41.75 -17.9 L-40.85 -15.4 -40.1 -9.55 -36.25 -1.0 -36.65 -0.3 M-41.75 -17.9 L-42.15 -19.0 M-50.75 -25.8 Q-48.25 -22.95 -45.85 -21.0 L-44.0 -19.65 M-40.1 -9.55 Q-45.8 -11.25 -51.45 -14.45 L-56.1 -17.3 -57.8 -18.45 -58.85 -17.3 -59.95 -16.15 -59.2 -15.15 Q-56.4 -11.55 -53.0 -8.8 -51.7 -7.7 -50.25 -6.75 -47.3 -4.85 -44.0 -3.5 L-54.1 -5.85 -54.1 -5.2 -54.1 -4.5 -54.1 -3.1 Q-49.25 0.7 -43.0 0.95 L-45.35 2.3 M-41.0 -0.2 L-43.0 0.95 M-59.95 -12.55 L-56.8 -10.5 M-30.15 -31.7 Q-30.2 -29.15 -30.6 -26.7 M-35.3 -38.1 L-34.85 -34.9 -33.7 -20.05 M-28.4 -19.6 L-30.95 -15.2 M-42.65 -44.0 L-38.95 -31.1" fill="none" stroke="#686815" stroke-linecap="round" stroke-linejoin="round" stroke-opacity="0.4" stroke-width="0.5"/>
    <path d="M38.4 -18.15 L38.25 -17.4 35.7 -7.4 41.65 -17.85 42.7 -17.15 M42.75 -17.15 L43.9 -16.4 37.45 -4.0 39.2 -5.45 Q45.7 -11.1 49.35 -16.45 L50.8 -18.05 51.4 -18.55 52.7 -19.55 57.25 -22.85 Q62.8 -26.6 68.65 -29.05 M53.6 -23.25 L47.25 -16.55 M35.5 -0.2 L37.45 -4.0 M36.35 0.9 L40.75 -0.3 43.2 -1.0 48.0 -4.7 52.7 -8.35 52.25 -9.0 51.85 -9.6 51.0 -10.8 46.7 -8.0 51.75 -14.5 50.55 -15.45 49.35 -16.45 M42.75 -0.2 L40.75 -0.3 M43.2 -1.0 L50.3 -2.95 64.8 -6.3 Q69.25 -7.2 72.55 -11.2 M52.65 -5.95 L48.0 -4.7 M55.9 -7.15 L60.45 -9.2 64.85 -11.5 M55.9 -7.15 L52.65 -5.95 M70.15 -25.7 L60.5 -18.45 51.85 -9.6 M62.95 -14.05 L64.6 -15.65 M58.15 2.1 L52.85 2.1 54.75 -1.45 Q48.75 0.0 42.75 -0.2 M62.95 -14.05 L55.9 -7.15" fill="none" stroke="#686815" stroke-linecap="round" stroke-linejoin="round" stroke-opacity="0.4" stroke-width="0.5"/>
    <path d="M73.2 -42.5 L75.25 -40.65 Q67.5 -38.75 59.75 -29.8 L54.1 -23.75 54.45 -23.65 Q62.1 -27.5 67.8 -33.0 L68.65 -29.05 Q75.4 -30.95 78.6 -34.85 L79.75 -33.0 Q75.85 -28.8 70.15 -25.7 L71.15 -24.4 67.45 -19.45 68.75 -19.0 74.5 -23.65 75.1 -22.15 71.2 -18.05 73.15 -17.3 Q76.4 -16.0 75.85 -12.85 L75.65 -12.1 74.7 -9.5 Q71.35 0.3 72.15 9.2 L77.15 21.85 Q77.5 23.95 77.25 25.6 76.95 27.7 75.8 29.05 L76.7 30.1 Q84.7 38.75 83.2 48.5 82.7 51.95 81.65 53.95 L81.65 54.0 Q80.95 55.25 80.1 55.9 L79.8 57.65 Q77.65 59.3 75.4 59.6 L74.5 59.65 73.7 60.1 Q59.55 62.45 58.25 49.7 L54.15 38.35 47.4 40.5 37.15 43.3 28.2 45.15 28.0 45.2 Q16.2 53.15 0.95 53.4 -16.45 53.7 -29.05 44.15 L-33.05 40.6 -33.15 40.55 Q-41.35 37.4 -49.05 32.9 -55.1 46.5 -66.2 52.15 -71.75 54.35 -75.05 51.0 -77.15 50.1 -78.65 48.15 L-80.2 45.5 -80.25 45.5 Q-84.95 41.85 -82.8 31.65 -71.55 18.25 -57.65 14.55 -57.4 12.15 -57.4 9.2 L-61.9 -5.55 -61.9 -5.6 Q-64.8 -8.85 -67.3 -13.6 L-65.55 -16.15 -60.65 -13.0 -60.45 -13.4 -62.4 -16.65 Q-67.4 -25.75 -70.2 -36.15 L-68.85 -38.3 Q-62.4 -25.9 -52.5 -18.95 -61.35 -32.55 -66.55 -48.0 L-64.8 -50.5 Q-61.65 -41.1 -55.65 -32.25 L-50.75 -25.8 Q-53.7 -38.1 -60.3 -47.6 L-58.35 -48.75 Q-52.35 -42.7 -47.25 -32.15 L-46.15 -29.75 -45.9 -29.2 -46.1 -29.75 Q-48.7 -36.85 -49.05 -46.85 L-46.5 -46.85 -45.9 -42.7 -44.8 -43.1 -44.75 -43.15 -42.65 -44.0 Q-45.15 -52.15 -49.25 -58.7 L-47.3 -60.45 Q-41.6 -52.3 -36.8 -41.6 L-35.3 -38.1 Q-36.4 -44.4 -38.75 -48.95 L-36.4 -49.95 Q-32.85 -42.55 -30.85 -34.75 L-30.15 -31.7 Q-30.0 -37.35 -31.55 -43.35 L-30.0 -43.35 Q-27.1 -36.25 -27.3 -29.15 L-27.65 -26.05 Q7.9 -33.9 43.15 -26.45 45.95 -30.75 49.15 -33.9 L50.6 -32.8 Q47.1 -30.8 46.15 -25.8 L47.05 -25.55 65.35 -38.8 73.2 -42.5 M77.25 56.7 L77.2 56.8 77.4 56.7 77.3 56.65 77.25 56.7 M-67.8 27.8 L-67.95 27.75 -68.0 28.05 -67.8 27.8 M-60.85 21.2 L-60.95 21.55 -60.65 21.3 -60.85 21.2 M-59.4 20.35 L-59.4 20.4 -59.35 20.45 -59.25 20.55 -59.4 20.35 M-66.4 26.85 L-66.6 26.65 -66.65 26.65 -66.4 26.85 M-77.9 42.05 L-77.85 42.1 -77.85 42.05 -77.9 42.05 M-77.4 47.5 L-77.1 47.7 -77.25 47.3 -77.4 47.5" fill="url(#gradient123)" fill-rule="evenodd" stroke="none"/>
    <path d="M3.25 -30.0 Q-12.15 -29.5 -27.65 -26.05 L-27.3 -29.15 Q-27.1 -36.25 -30.0 -43.35 L-31.55 -43.35 Q-30.0 -37.35 -30.15 -31.7 L-30.85 -34.75 Q-32.85 -42.55 -36.4 -49.95 L-38.75 -48.95 Q-36.4 -44.4 -35.3 -38.1 L-36.8 -41.6 Q-41.6 -52.3 -47.3 -60.45 L-49.25 -58.7 Q-45.15 -52.15 -42.65 -44.0 L-44.75 -43.15 -44.8 -43.1 -45.9 -42.7 -46.5 -46.85 -49.05 -46.85 Q-48.7 -36.85 -46.1 -29.75 L-45.9 -29.2 -46.15 -29.75 -47.25 -32.15 Q-52.35 -42.7 -58.35 -48.75 L-60.3 -47.6 Q-53.7 -38.1 -50.75 -25.8 L-55.65 -32.25 Q-61.65 -41.1 -64.8 -50.5 L-66.55 -48.0 Q-61.35 -32.55 -52.5 -18.95 -62.4 -25.9 -68.85 -38.3 L-70.2 -36.15 Q-67.4 -25.75 -62.4 -16.65 L-60.45 -13.4 -60.65 -13.0 -65.55 -16.15 -67.3 -13.6 Q-64.8 -8.85 -61.9 -5.6 L-61.9 -5.55 -57.4 9.2 Q-57.4 12.15 -57.65 14.55 -71.55 18.25 -82.8 31.65 -84.95 41.85 -80.25 45.5 L-80.2 45.5 -78.65 48.15 Q-77.15 50.1 -75.05 51.0 -71.75 54.35 -66.2 52.15 -55.1 46.5 -49.05 32.9 -41.35 37.4 -33.15 40.55 L-33.05 40.6 -29.05 44.15 Q-16.45 53.7 0.95 53.4 16.2 53.15 28.0 45.2 L28.2 45.15 37.15 43.3 47.4 40.5 54.15 38.35 58.25 49.7 Q59.55 62.45 73.7 60.1 L74.5 59.65 75.4 59.6 Q77.65 59.3 79.8 57.65 L80.1 55.9 Q80.95 55.25 81.65 54.0 L81.65 53.95 Q82.7 51.95 83.2 48.5 84.7 38.75 76.7 30.1 L75.8 29.05 Q76.95 27.7 77.25 25.6 77.5 23.95 77.15 21.85 L72.15 9.2 Q71.35 0.3 74.7 -9.5 L75.65 -12.1 75.85 -12.85 Q76.4 -16.0 73.15 -17.3 L71.2 -18.05 75.1 -22.15 74.5 -23.65 68.75 -19.0 67.45 -19.45 71.15 -24.4 70.15 -25.7 Q75.85 -28.8 79.75 -33.0 L78.6 -34.85 Q75.4 -30.95 68.65 -29.05 L67.8 -33.0 Q62.1 -27.5 54.45 -23.65 L54.1 -23.75 59.75 -29.8 Q67.5 -38.75 75.25 -40.65 L73.2 -42.5 65.35 -38.8 47.05 -25.55 46.15 -25.8 Q47.1 -30.8 50.6 -32.8 L49.15 -33.9 Q45.95 -30.75 43.15 -26.45 24.3 -30.45 5.35 -30.05 4.3 -27.6 3.25 -30.0 M-59.25 20.55 L-59.35 20.45 -59.4 20.4 -59.4 20.35 -59.25 20.55 M-60.85 21.2 L-60.65 21.3 -60.95 21.55 -60.85 21.2 M-68.0 28.05 L-67.95 27.75 -67.8 27.8 -68.0 28.05 M-66.6 26.65 L-66.65 26.65 -66.4 26.85 -66.6 26.65 M-77.9 42.05 L-77.85 42.05 -77.85 42.1 -77.9 42.05 M-77.4 47.5 L-77.25 47.3 -77.1 47.7 -77.4 47.5 M77.2 56.8 L77.4 56.7 77.3 56.65 77.25 56.7 77.2 56.8 Z" fill="none" stroke="#000000" stroke-linecap="round" stroke-linejoin="round" stroke-opacity="0.4" stroke-width="1.0"/>
  </g>
  <defs>
    <linearGradient gradientTransform="matrix(0.0153, 0.0, 0.0, 0.0358, -36.75, -30.3)" gradientUnits="userSpaceOnUse" id="gradient0" spreadMethod="pad" x1="-819.2" x2="819.2">
      <stop offset="0.0" stop-color="#cfc77c"/>
      <stop offset="0.9921568627450981" stop-color="#a39843"/>
    </linearGradient>
    <linearGradient gradientTransform="matrix(0.005, 0.0, 0.0, 0.0192, -44.95, -31.15)" gradientUnits="userSpaceOnUse" id="gradient1" spreadMethod="pad" x1="-819.2" x2="819.2">
      <stop offset="0.0" stop-color="#cfc77c"/>
      <stop offset="0.9921568627450981" stop-color="#a39843"/>
    </linearGradient>
    <linearGradient gradientTransform="matrix(0.0148, 0.0, 0.0, 0.02, -53.85, -34.1)" gradientUnits="userSpaceOnUse" id="gradient2" spreadMethod="pad" x1="-819.2" x2="819.2">
      <stop offset="0.0" stop-color="#cfc77c"/>
      <stop offset="0.9921568627450981" stop-color="#a39843"/>
    </linearGradient>
    <linearGradient gradientTransform="matrix(0.0184, 0.0, 0.0, 0.0174, -55.15, -23.05)" gradientUnits="userSpaceOnUse" id="gradient3" spreadMethod="pad" x1="-819.2" x2="819.2">
      <stop offset="0.0" stop-color="#cfc77c"/>
      <stop offset="0.9921568627450981" stop-color="#a39843"/>
    </linearGradient>
    <linearGradient gradientTransform="matrix(0.0144, 0.0, 0.0, 0.0212, -54.8, -31.45)" gradientUnits="userSpaceOnUse" id="gradient4" spreadMethod="pad" x1="-819.2" x2="819.2">
      <stop offset="0.0" stop-color="#cfc77c"/>
      <stop offset="0.9921568627450981" stop-color="#a39843"/>
    </linearGradient>
    <linearGradient gradientTransform="matrix(0.0148, 0.0, 0.0, 0.0105, -55.15, -6.3)" gradientUnits="userSpaceOnUse" id="gradient5" spreadMethod="pad" x1="-819.2" x2="819.2">
      <stop offset="0.0" stop-color="#cfc77c"/>
      <stop offset="0.9921568627450981" stop-color="#a39843"/>
    </linearGradient>
    <linearGradient gradientTransform="matrix(0.0035, 0.002, -0.001, 0.0018, -59.8, -2.5)" gradientUnits="userSpaceOnUse" id="gradient6" spreadMethod="pad" x1="-819.2" x2="819.2">
      <stop offset="0.0" stop-color="#543201"/>
      <stop offset="0.9921568627450981" stop-color="#653d01"/>
    </linearGradient>
    <linearGradient gradientTransform="matrix(0.0145, 0.0, 0.0, 0.0159, -48.1, -5.4)" gradientUnits="userSpaceOnUse" id="gradient7" spreadMethod="pad" x1="-819.2" x2="819.2">
      <stop offset="0.0" stop-color="#cfc77c"/>
      <stop offset="0.9921568627450981" stop-color="#a39843"/>
    </linearGradient>
    <linearGradient gradientTransform="matrix(0.008, 0.0, 0.0, 0.0033, -47.55, -1.8)" gradientUnits="userSpaceOnUse" id="gradient8" spreadMethod="pad" x1="-819.2" x2="819.2">
      <stop offset="0.0" stop-color="#cfc77c"/>
      <stop offset="0.9921568627450981" stop-color="#a39843"/>
    </linearGradient>
    <linearGradient gradientTransform="matrix(0.0038, 0.0022, -0.0015, 0.0026, -49.2, 2.8)" gradientUnits="userSpaceOnUse" id="gradient9" spreadMethod="pad" x1="-819.2" x2="819.2">
      <stop offset="0.0" stop-color="#543201"/>
      <stop offset="0.9921568627450981" stop-color="#653d01"/>
    </linearGradient>
    <linearGradient gradientTransform="matrix(0.0035, 0.013, -0.0161, 0.0043, -27.65, 21.65)" gradientUnits="userSpaceOnUse" id="gradient10" spreadMethod="pad" x1="-819.2" x2="819.2">
      <stop offset="0.0" stop-color="#bb8e4d"/>
      <stop offset="1.0" stop-color="#bd8853"/>
    </linearGradient>
    <linearGradient gradientTransform="matrix(0.0, -0.0063, 0.0409, 0.0, 3.85, -16.7)" gradientUnits="userSpaceOnUse" id="gradient11" spreadMethod="pad" x1="-819.2" x2="819.2">
      <stop offset="0.0" stop-color="#543201"/>
      <stop offset="0.9921568627450981" stop-color="#653d01"/>
    </linearGradient>
    <linearGradient gradientTransform="matrix(0.017, 0.017, -0.0261, 0.0261, 0.45, 7.4)" gradientUnits="userSpaceOnUse" id="gradient12" spreadMethod="pad" x1="-819.2" x2="819.2">
      <stop offset="0.0" stop-color="#cdb37a"/>
      <stop offset="1.0" stop-color="#cba473"/>
    </linearGradient>
    <linearGradient gradientTransform="matrix(0.0042, 0.0, 0.0, 0.0026, 0.0, -11.35)" gradientUnits="userSpaceOnUse" id="gradient13" spreadMethod="pad" x1="-819.2" x2="819.2">
      <stop offset="0.0" stop-color="#d8e17b"/>
      <stop offset="0.9921568627450981" stop-color="#95951e"/>
    </linearGradient>
    <linearGradient gradientTransform="matrix(0.0022, 0.0, 0.0, 9.0E-4, 2.95, -14.65)" gradientUnits="userSpaceOnUse" id="gradient14" spreadMethod="pad" x1="-819.2" x2="819.2">
      <stop offset="0.0" stop-color="#d8e17b"/>
      <stop offset="0.9921568627450981" stop-color="#95951e"/>
    </linearGradient>
    <linearGradient gradientTransform="matrix(0.0048, 0.0, 0.0, 0.0026, -5.55, -5.3)" gradientUnits="userSpaceOnUse" id="gradient15" spreadMethod="pad" x1="-819.2" x2="819.2">
      <stop offset="0.0" stop-color="#d8e17b"/>
      <stop offset="0.9921568627450981" stop-color="#95951e"/>
    </linearGradient>
    <linearGradient gradientTransform="matrix(-2.0E-4, 0.0013, -0.0043, -6.0E-4, -8.65, -4.0)" gradientUnits="userSpaceOnUse" id="gradient16" spreadMethod="pad" x1="-819.2" x2="819.2">
      <stop offset="0.0" stop-color="#bb8e4d"/>
      <stop offset="1.0" stop-color="#bd8853"/>
    </linearGradient>
    <linearGradient gradientTransform="matrix(-4.0E-4, 0.0024, -0.0061, -9.0E-4, 1.6, -8.45)" gradientUnits="userSpaceOnUse" id="gradient17" spreadMethod="pad" x1="-819.2" x2="819.2">
      <stop offset="0.0" stop-color="#bb8e4d"/>
      <stop offset="1.0" stop-color="#bd8853"/>
    </linearGradient>
    <linearGradient gradientTransform="matrix(-2.0E-4, 0.0011, -0.0038, -5.0E-4, -4.05, -10.25)" gradientUnits="userSpaceOnUse" id="gradient18" spreadMethod="pad" x1="-819.2" x2="819.2">
      <stop offset="0.0" stop-color="#bb8e4d"/>
      <stop offset="1.0" stop-color="#bd8853"/>
    </linearGradient>
    <linearGradient gradientTransform="matrix(-2.0E-4, 0.0011, -0.0043, -7.0E-4, -1.8, -3.15)" gradientUnits="userSpaceOnUse" id="gradient19" spreadMethod="pad" x1="-819.2" x2="819.2">
      <stop offset="0.0" stop-color="#bb8e4d"/>
      <stop offset="1.0" stop-color="#bd8853"/>
    </linearGradient>
    <linearGradient gradientTransform="matrix(-4.0E-4, 0.0023, -9.0E-4, -1.0E-4, -5.35, -1.6)" gradientUnits="userSpaceOnUse" id="gradient20" spreadMethod="pad" x1="-819.2" x2="819.2">
      <stop offset="0.0" stop-color="#bb8e4d"/>
      <stop offset="1.0" stop-color="#bd8853"/>
    </linearGradient>
    <linearGradient gradientTransform="matrix(0.0071, 0.0, 0.0, 0.0151, 38.05, -12.6)" gradientUnits="userSpaceOnUse" id="gradient21" spreadMethod="pad" x1="-819.2" x2="819.2">
      <stop offset="0.0" stop-color="#cfc77c"/>
      <stop offset="0.9921568627450981" stop-color="#a39843"/>
    </linearGradient>
    <linearGradient gradientTransform="matrix(0.0241, 0.0, 0.0, 0.0229, 55.45, -22.8)" gradientUnits="userSpaceOnUse" id="gradient22" spreadMethod="pad" x1="-819.2" x2="819.2">
      <stop offset="0.0" stop-color="#cfc77c"/>
      <stop offset="0.9921568627450981" stop-color="#a39843"/>
    </linearGradient>
    <linearGradient gradientTransform="matrix(0.0024, 0.0, 0.0, 0.0072, 31.1, -12.8)" gradientUnits="userSpaceOnUse" id="gradient23" spreadMethod="pad" x1="-819.2" x2="819.2">
      <stop offset="0.0" stop-color="#cfc77c"/>
      <stop offset="0.9921568627450981" stop-color="#a39843"/>
    </linearGradient>
    <linearGradient gradientTransform="matrix(0.0105, 0.0, 0.0, 0.0106, 44.1, -7.8)" gradientUnits="userSpaceOnUse" id="gradient24" spreadMethod="pad" x1="-819.2" x2="819.2">
      <stop offset="0.0" stop-color="#cfc77c"/>
      <stop offset="0.9921568627450981" stop-color="#a39843"/>
    </linearGradient>
    <linearGradient gradientTransform="matrix(0.0202, 0.0, 0.0, 0.0158, 63.2, -21.0)" gradientUnits="userSpaceOnUse" id="gradient25" spreadMethod="pad" x1="-819.2" x2="819.2">
      <stop offset="0.0" stop-color="#cfc77c"/>
      <stop offset="0.9921568627450981" stop-color="#a39843"/>
    </linearGradient>
    <linearGradient gradientTransform="matrix(0.0213, 0.0, 0.0, 0.0089, 58.2, -5.2)" gradientUnits="userSpaceOnUse" id="gradient26" spreadMethod="pad" x1="-819.2" x2="819.2">
      <stop offset="0.0" stop-color="#cfc77c"/>
      <stop offset="0.9921568627450981" stop-color="#a39843"/>
    </linearGradient>
    <linearGradient gradientTransform="matrix(0.0154, 0.0, 0.0, 0.0033, 48.9, 2.4)" gradientUnits="userSpaceOnUse" id="gradient27" spreadMethod="pad" x1="-819.2" x2="819.2">
      <stop offset="0.0" stop-color="#cfc77c"/>
      <stop offset="0.9921568627450981" stop-color="#a39843"/>
    </linearGradient>
    <linearGradient gradientTransform="matrix(0.0179, 0.0, 0.0, 0.007, 57.85, -6.75)" gradientUnits="userSpaceOnUse" id="gradient28" spreadMethod="pad" x1="-819.2" x2="819.2">
      <stop offset="0.0" stop-color="#cfc77c"/>
      <stop offset="0.9921568627450981" stop-color="#a39843"/>
    </linearGradient>
    <linearGradient gradientTransform="matrix(0.0141, 0.0, 0.0, 0.0128, 59.55, -15.2)" gradientUnits="userSpaceOnUse" id="gradient29" spreadMethod="pad" x1="-819.2" x2="819.2">
      <stop offset="0.0" stop-color="#cfc77c"/>
      <stop offset="0.9921568627450981" stop-color="#a39843"/>
    </linearGradient>
    <linearGradient gradientTransform="matrix(0.0089, 0.0, 0.0, 0.0084, 67.75, -16.05)" gradientUnits="userSpaceOnUse" id="gradient30" spreadMethod="pad" x1="-819.2" x2="819.2">
      <stop offset="0.0" stop-color="#cfc77c"/>
      <stop offset="0.9921568627450981" stop-color="#a39843"/>
    </linearGradient>
    <linearGradient gradientTransform="matrix(0.0026, 0.0098, -0.0054, 0.0014, 75.8, 12.4)" gradientUnits="userSpaceOnUse" id="gradient31" spreadMethod="pad" x1="-819.2" x2="819.2">
      <stop offset="0.0" stop-color="#b07700"/>
      <stop offset="0.9921568627450981" stop-color="#b76f04"/>
    </linearGradient>
    <linearGradient gradientTransform="matrix(-0.0013, 0.0049, -0.001, -3.0E-4, 70.95, -1.5)" gradientUnits="userSpaceOnUse" id="gradient32" spreadMethod="pad" x1="-819.2" x2="819.2">
      <stop offset="0.0" stop-color="#543201"/>
      <stop offset="0.9921568627450981" stop-color="#653d01"/>
    </linearGradient>
    <linearGradient gradientTransform="matrix(-0.0177, 0.0199, -0.0112, -0.0099, 49.2, 14.1)" gradientUnits="userSpaceOnUse" id="gradient33" spreadMethod="pad" x1="-819.2" x2="819.2">
      <stop offset="0.0" stop-color="#543201"/>
      <stop offset="0.9921568627450981" stop-color="#653d01"/>
    </linearGradient>
    <linearGradient gradientTransform="matrix(0.0026, 0.0, 0.0, 0.001, 79.95, 47.5)" gradientUnits="userSpaceOnUse" id="gradient34" spreadMethod="pad" x1="-819.2" x2="819.2">
      <stop offset="0.0" stop-color="#aca042"/>
      <stop offset="0.9921568627450981" stop-color="#756d2d"/>
    </linearGradient>
    <linearGradient gradientTransform="matrix(0.0054, 0.0, 0.0, 0.0026, 77.95, 46.9)" gradientUnits="userSpaceOnUse" id="gradient35" spreadMethod="pad" x1="-819.2" x2="819.2">
      <stop offset="0.0" stop-color="#7a7930"/>
      <stop offset="0.9921568627450981" stop-color="#95951e"/>
    </linearGradient>
    <linearGradient gradientTransform="matrix(0.015, 0.0087, -0.0062, 0.0107, 74.25, 38.4)" gradientUnits="userSpaceOnUse" id="gradient36" spreadMethod="pad" x1="-819.2" x2="819.2">
      <stop offset="0.0" stop-color="#e6e2b9"/>
      <stop offset="0.9921568627450981" stop-color="#d0c884"/>
    </linearGradient>
    <linearGradient gradientTransform="matrix(0.0018, 7.0E-4, -9.0E-4, 0.0023, 79.5, 55.3)" gradientUnits="userSpaceOnUse" id="gradient37" spreadMethod="pad" x1="-819.2" x2="819.2">
      <stop offset="0.0" stop-color="#aca042"/>
      <stop offset="0.9921568627450981" stop-color="#756d2d"/>
    </linearGradient>
    <linearGradient gradientTransform="matrix(0.0054, 0.0, 0.0, 0.0026, 77.35, 53.75)" gradientUnits="userSpaceOnUse" id="gradient38" spreadMethod="pad" x1="-819.2" x2="819.2">
      <stop offset="0.0" stop-color="#7a7930"/>
      <stop offset="0.9921568627450981" stop-color="#95951e"/>
    </linearGradient>
    <linearGradient gradientTransform="matrix(-0.0032, 0.0118, -0.0194, -0.0052, 59.25, 24.75)" gradientUnits="userSpaceOnUse" id="gradient39" spreadMethod="pad" x1="-819.2" x2="819.2">
      <stop offset="0.0" stop-color="#996600"/>
      <stop offset="0.9921568627450981" stop-color="#653d01"/>
    </linearGradient>
    <linearGradient gradientTransform="matrix(0.0055, 0.0, 0.0, 0.0038, 63.0, 26.1)" gradientUnits="userSpaceOnUse" id="gradient40" spreadMethod="pad" x1="-819.2" x2="819.2">
      <stop offset="0.0" stop-color="#7a7930"/>
      <stop offset="0.9921568627450981" stop-color="#95951e"/>
    </linearGradient>
    <linearGradient gradientTransform="matrix(0.0032, 0.0, 0.0, 0.0013, 59.7, 23.6)" gradientUnits="userSpaceOnUse" id="gradient41" spreadMethod="pad" x1="-819.2" x2="819.2">
      <stop offset="0.0" stop-color="#aca042"/>
      <stop offset="0.9921568627450981" stop-color="#756d2d"/>
    </linearGradient>
    <linearGradient gradientTransform="matrix(0.0088, 0.0152, -0.0085, 0.0049, 65.9, 39.55)" gradientUnits="userSpaceOnUse" id="gradient42" spreadMethod="pad" x1="-819.2" x2="819.2">
      <stop offset="0.0" stop-color="#cdb37a"/>
      <stop offset="1.0" stop-color="#cba473"/>
    </linearGradient>
    <linearGradient gradientTransform="matrix(0.0035, 0.0132, -0.0095, 0.0025, 63.35, 43.0)" gradientUnits="userSpaceOnUse" id="gradient43" spreadMethod="pad" x1="-819.2" x2="819.2">
      <stop offset="0.0" stop-color="#bb8e4d"/>
      <stop offset="1.0" stop-color="#bd8853"/>
    </linearGradient>
    <linearGradient gradientTransform="matrix(5.0E-4, 0.0019, -0.0033, 9.0E-4, 61.65, 27.95)" gradientUnits="userSpaceOnUse" id="gradient44" spreadMethod="pad" x1="-819.2" x2="819.2">
      <stop offset="0.0" stop-color="#bb8e4d"/>
      <stop offset="1.0" stop-color="#bd8853"/>
    </linearGradient>
    <linearGradient gradientTransform="matrix(-0.0018, 0.0069, -0.0042, -0.0011, 51.15, 36.0)" gradientUnits="userSpaceOnUse" id="gradient45" spreadMethod="pad" x1="-819.2" x2="819.2">
      <stop offset="0.0" stop-color="#543201"/>
      <stop offset="0.9921568627450981" stop-color="#653d01"/>
    </linearGradient>
    <linearGradient gradientTransform="matrix(0.0069, 0.0, 0.0, 0.0038, 69.8, 33.05)" gradientUnits="userSpaceOnUse" id="gradient46" spreadMethod="pad" x1="-819.2" x2="819.2">
      <stop offset="0.0" stop-color="#7a7930"/>
      <stop offset="0.9921568627450981" stop-color="#95951e"/>
    </linearGradient>
    <linearGradient gradientTransform="matrix(0.0028, 0.0, 0.0, 0.0013, 72.8, 32.6)" gradientUnits="userSpaceOnUse" id="gradient47" spreadMethod="pad" x1="-819.2" x2="819.2">
      <stop offset="0.0" stop-color="#aca042"/>
      <stop offset="0.9921568627450981" stop-color="#756d2d"/>
    </linearGradient>
    <linearGradient gradientTransform="matrix(0.0021, 0.0, 0.0, 0.0025, 73.1, 35.45)" gradientUnits="userSpaceOnUse" id="gradient48" spreadMethod="pad" x1="-819.2" x2="819.2">
      <stop offset="0.0" stop-color="#aca042"/>
      <stop offset="0.9921568627450981" stop-color="#756d2d"/>
    </linearGradient>
    <linearGradient gradientTransform="matrix(5.0E-4, 0.002, -0.0046, 0.0012, 67.7, 35.05)" gradientUnits="userSpaceOnUse" id="gradient49" spreadMethod="pad" x1="-819.2" x2="819.2">
      <stop offset="0.0" stop-color="#bb8e4d"/>
      <stop offset="1.0" stop-color="#bd8853"/>
    </linearGradient>
    <linearGradient gradientTransform="matrix(0.0026, 0.0, 0.0, 0.0011, 65.4, 25.45)" gradientUnits="userSpaceOnUse" id="gradient50" spreadMethod="pad" x1="-819.2" x2="819.2">
      <stop offset="0.0" stop-color="#aca042"/>
      <stop offset="0.9921568627450981" stop-color="#756d2d"/>
    </linearGradient>
    <linearGradient gradientTransform="matrix(0.0036, 0.0, 0.0, 0.0031, 67.05, 28.55)" gradientUnits="userSpaceOnUse" id="gradient51" spreadMethod="pad" x1="-819.2" x2="819.2">
      <stop offset="0.0" stop-color="#aca042"/>
      <stop offset="0.9921568627450981" stop-color="#756d2d"/>
    </linearGradient>
    <linearGradient gradientTransform="matrix(4.0E-4, 0.0014, -0.0034, 9.0E-4, 72.75, 41.05)" gradientUnits="userSpaceOnUse" id="gradient52" spreadMethod="pad" x1="-819.2" x2="819.2">
      <stop offset="0.0" stop-color="#bb8e4d"/>
      <stop offset="1.0" stop-color="#bd8853"/>
    </linearGradient>
    <linearGradient gradientTransform="matrix(0.0058, 0.0, 0.0, 0.0031, 74.4, 39.55)" gradientUnits="userSpaceOnUse" id="gradient53" spreadMethod="pad" x1="-819.2" x2="819.2">
      <stop offset="0.0" stop-color="#7a7930"/>
      <stop offset="0.9921568627450981" stop-color="#95951e"/>
    </linearGradient>
    <linearGradient gradientTransform="matrix(0.0032, 0.0, 0.0, 0.0013, 77.65, 39.55)" gradientUnits="userSpaceOnUse" id="gradient54" spreadMethod="pad" x1="-819.2" x2="819.2">
      <stop offset="0.0" stop-color="#aca042"/>
      <stop offset="0.9921568627450981" stop-color="#756d2d"/>
    </linearGradient>
    <linearGradient gradientTransform="matrix(0.0014, 0.0, 0.0, 0.0027, 76.8, 42.8)" gradientUnits="userSpaceOnUse" id="gradient55" spreadMethod="pad" x1="-819.2" x2="819.2">
      <stop offset="0.0" stop-color="#aca042"/>
      <stop offset="0.9921568627450981" stop-color="#756d2d"/>
    </linearGradient>
    <linearGradient gradientTransform="matrix(3.0E-4, 0.0013, -0.0029, 8.0E-4, 75.8, 48.8)" gradientUnits="userSpaceOnUse" id="gradient56" spreadMethod="pad" x1="-819.2" x2="819.2">
      <stop offset="0.0" stop-color="#bb8e4d"/>
      <stop offset="1.0" stop-color="#bd8853"/>
    </linearGradient>
    <linearGradient gradientTransform="matrix(7.0E-4, 0.0, 0.0, 0.0031, 78.7, 50.8)" gradientUnits="userSpaceOnUse" id="gradient57" spreadMethod="pad" x1="-819.2" x2="819.2">
      <stop offset="0.0" stop-color="#aca042"/>
      <stop offset="0.9921568627450981" stop-color="#756d2d"/>
    </linearGradient>
    <linearGradient gradientTransform="matrix(-0.0026, 0.0169, -0.0116, -0.0018, 32.35, 22.65)" gradientUnits="userSpaceOnUse" id="gradient58" spreadMethod="pad" x1="-819.2" x2="819.2">
      <stop offset="0.0" stop-color="#bb8e4d"/>
      <stop offset="1.0" stop-color="#bd8853"/>
    </linearGradient>
    <linearGradient gradientTransform="matrix(-0.0022, 0.0038, -0.0019, -0.0011, 22.2, 11.35)" gradientUnits="userSpaceOnUse" id="gradient59" spreadMethod="pad" x1="-819.2" x2="819.2">
      <stop offset="0.0" stop-color="#d8e17b"/>
      <stop offset="0.9921568627450981" stop-color="#95951e"/>
    </linearGradient>
    <linearGradient gradientTransform="matrix(-9.0E-4, 0.0061, -0.0016, -2.0E-4, 23.5, 11.95)" gradientUnits="userSpaceOnUse" id="gradient60" spreadMethod="pad" x1="-819.2" x2="819.2">
      <stop offset="0.0" stop-color="#bb8e4d"/>
      <stop offset="1.0" stop-color="#bd8853"/>
    </linearGradient>
    <linearGradient gradientTransform="matrix(0.0053, 0.0093, -0.0022, 0.0013, 18.7, 15.15)" gradientUnits="userSpaceOnUse" id="gradient61" spreadMethod="pad" x1="-819.2" x2="819.2">
      <stop offset="0.0" stop-color="#d8e17b"/>
      <stop offset="0.9921568627450981" stop-color="#95951e"/>
    </linearGradient>
    <linearGradient gradientTransform="matrix(-9.0E-4, 0.0061, -0.0055, -8.0E-4, 14.7, 11.35)" gradientUnits="userSpaceOnUse" id="gradient62" spreadMethod="pad" x1="-819.2" x2="819.2">
      <stop offset="0.0" stop-color="#bb8e4d"/>
      <stop offset="1.0" stop-color="#bd8853"/>
    </linearGradient>
    <linearGradient gradientTransform="matrix(0.0018, -0.0018, 0.0012, 0.0012, 15.55, 20.9)" gradientUnits="userSpaceOnUse" id="gradient63" spreadMethod="pad" x1="-819.2" x2="819.2">
      <stop offset="0.0" stop-color="#d8e17b"/>
      <stop offset="0.9921568627450981" stop-color="#95951e"/>
    </linearGradient>
    <linearGradient gradientTransform="matrix(-9.0E-4, 0.0059, -0.0087, -0.0013, 18.95, 23.45)" gradientUnits="userSpaceOnUse" id="gradient64" spreadMethod="pad" x1="-819.2" x2="819.2">
      <stop offset="0.0" stop-color="#bb8e4d"/>
      <stop offset="1.0" stop-color="#bd8853"/>
    </linearGradient>
    <linearGradient gradientTransform="matrix(-0.0011, 0.0041, -0.0026, -7.0E-4, 14.8, 37.0)" gradientUnits="userSpaceOnUse" id="gradient65" spreadMethod="pad" x1="-819.2" x2="819.2">
      <stop offset="0.0" stop-color="#d8e17b"/>
      <stop offset="0.9921568627450981" stop-color="#95951e"/>
    </linearGradient>
    <linearGradient gradientTransform="matrix(0.0, 0.0064, -0.0034, 0.0, 3.1, 35.85)" gradientUnits="userSpaceOnUse" id="gradient66" spreadMethod="pad" x1="-819.2" x2="819.2">
      <stop offset="0.0" stop-color="#d8e17b"/>
      <stop offset="0.9921568627450981" stop-color="#95951e"/>
    </linearGradient>
    <linearGradient gradientTransform="matrix(-2.0E-4, 0.0017, -0.0069, -0.001, -2.75, 35.0)" gradientUnits="userSpaceOnUse" id="gradient67" spreadMethod="pad" x1="-819.2" x2="819.2">
      <stop offset="0.0" stop-color="#a0783d"/>
      <stop offset="1.0" stop-color="#805933"/>
    </linearGradient>
    <linearGradient gradientTransform="matrix(0.0031, 0.0, 0.0, 0.0045, 4.25, 39.45)" gradientUnits="userSpaceOnUse" id="gradient68" spreadMethod="pad" x1="-819.2" x2="819.2">
      <stop offset="0.0" stop-color="#aca042"/>
      <stop offset="0.9921568627450981" stop-color="#756d2d"/>
    </linearGradient>
    <linearGradient gradientTransform="matrix(0.0045, 0.0, 0.0, 0.002, 10.45, 37.6)" gradientUnits="userSpaceOnUse" id="gradient69" spreadMethod="pad" x1="-819.2" x2="819.2">
      <stop offset="0.0" stop-color="#aca042"/>
      <stop offset="0.9921568627450981" stop-color="#756d2d"/>
    </linearGradient>
    <linearGradient gradientTransform="matrix(-2.0E-4, 0.0017, -0.0055, -7.0E-4, 10.2, 36.45)" gradientUnits="userSpaceOnUse" id="gradient70" spreadMethod="pad" x1="-819.2" x2="819.2">
      <stop offset="0.0" stop-color="#bb8e4d"/>
      <stop offset="1.0" stop-color="#bd8853"/>
    </linearGradient>
    <linearGradient gradientTransform="matrix(0.0201, 0.0079, -0.0051, 0.0128, 0.1, 45.25)" gradientUnits="userSpaceOnUse" id="gradient71" spreadMethod="pad" x1="-819.2" x2="819.2">
      <stop offset="0.0" stop-color="#cfc77c"/>
      <stop offset="0.9921568627450981" stop-color="#a79c3f"/>
    </linearGradient>
    <linearGradient gradientTransform="matrix(0.0036, 0.0, 0.0, 0.0043, 14.3, 41.95)" gradientUnits="userSpaceOnUse" id="gradient72" spreadMethod="pad" x1="-819.2" x2="819.2">
      <stop offset="0.0" stop-color="#aca042"/>
      <stop offset="0.9921568627450981" stop-color="#756d2d"/>
    </linearGradient>
    <linearGradient gradientTransform="matrix(0.0036, 0.0, 0.0, 0.0021, 19.8, 40.35)" gradientUnits="userSpaceOnUse" id="gradient73" spreadMethod="pad" x1="-819.2" x2="819.2">
      <stop offset="0.0" stop-color="#aca042"/>
      <stop offset="0.9921568627450981" stop-color="#756d2d"/>
    </linearGradient>
    <linearGradient gradientTransform="matrix(0.0031, 0.0018, -0.0022, 0.0038, 19.6, 44.25)" gradientUnits="userSpaceOnUse" id="gradient74" spreadMethod="pad" x1="-819.2" x2="819.2">
      <stop offset="0.0" stop-color="#e6e2b9"/>
      <stop offset="0.9921568627450981" stop-color="#d0c884"/>
    </linearGradient>
    <linearGradient gradientTransform="matrix(0.0034, 0.002, -0.0011, 0.002, 11.7, 40.2)" gradientUnits="userSpaceOnUse" id="gradient75" spreadMethod="pad" x1="-819.2" x2="819.2">
      <stop offset="0.0" stop-color="#e6e2b9"/>
      <stop offset="0.9921568627450981" stop-color="#d0c884"/>
    </linearGradient>
    <linearGradient gradientTransform="matrix(-6.0E-4, 0.0023, -0.0028, -7.0E-4, 23.95, 38.4)" gradientUnits="userSpaceOnUse" id="gradient76" spreadMethod="pad" x1="-819.2" x2="819.2">
      <stop offset="0.0" stop-color="#d8e17b"/>
      <stop offset="0.9921568627450981" stop-color="#95951e"/>
    </linearGradient>
    <linearGradient gradientTransform="matrix(0.0048, 0.0, 0.0, 0.0032, 24.25, 44.5)" gradientUnits="userSpaceOnUse" id="gradient77" spreadMethod="pad" x1="-819.2" x2="819.2">
      <stop offset="0.0" stop-color="#aca042"/>
      <stop offset="0.9921568627450981" stop-color="#756d2d"/>
    </linearGradient>
    <linearGradient gradientTransform="matrix(0.0088, 0.0152, -0.0085, 0.0049, 65.9, 39.55)" gradientUnits="userSpaceOnUse" id="gradient78" spreadMethod="pad" x1="-819.2" x2="819.2">
      <stop offset="0.0" stop-color="#bb8e4d"/>
      <stop offset="1.0" stop-color="#bd8853"/>
    </linearGradient>
    <linearGradient gradientTransform="matrix(0.0024, 9.0E-4, -0.0012, 0.0031, 77.45, 57.85)" gradientUnits="userSpaceOnUse" id="gradient79" spreadMethod="pad" x1="-819.2" x2="819.2">
      <stop offset="0.0" stop-color="#7a7930"/>
      <stop offset="0.9921568627450981" stop-color="#95951e"/>
    </linearGradient>
    <linearGradient gradientTransform="matrix(-0.005, 0.0087, -0.0023, -0.0013, -20.8, 12.2)" gradientUnits="userSpaceOnUse" id="gradient80" spreadMethod="pad" x1="-819.2" x2="819.2">
      <stop offset="0.0" stop-color="#d8e17b"/>
      <stop offset="0.9921568627450981" stop-color="#95951e"/>
    </linearGradient>
    <linearGradient gradientTransform="matrix(-0.0011, 0.007, -0.0039, -6.0E-4, -17.85, 10.5)" gradientUnits="userSpaceOnUse" id="gradient81" spreadMethod="pad" x1="-819.2" x2="819.2">
      <stop offset="0.0" stop-color="#bb8e4d"/>
      <stop offset="1.0" stop-color="#bd8853"/>
    </linearGradient>
    <linearGradient gradientTransform="matrix(-6.0E-4, 0.0041, -0.0075, -0.0012, -19.8, 21.45)" gradientUnits="userSpaceOnUse" id="gradient82" spreadMethod="pad" x1="-819.2" x2="819.2">
      <stop offset="0.0" stop-color="#bb8e4d"/>
      <stop offset="1.0" stop-color="#bd8853"/>
    </linearGradient>
    <linearGradient gradientTransform="matrix(-0.0018, -0.0018, 0.0013, -0.0013, -18.7, 19.95)" gradientUnits="userSpaceOnUse" id="gradient83" spreadMethod="pad" x1="-819.2" x2="819.2">
      <stop offset="0.0" stop-color="#d8e17b"/>
      <stop offset="0.9921568627450981" stop-color="#95951e"/>
    </linearGradient>
    <linearGradient gradientTransform="matrix(-9.0E-4, 0.0061, -0.003, -4.0E-4, -26.75, 10.6)" gradientUnits="userSpaceOnUse" id="gradient84" spreadMethod="pad" x1="-819.2" x2="819.2">
      <stop offset="0.0" stop-color="#bb8e4d"/>
      <stop offset="1.0" stop-color="#bd8853"/>
    </linearGradient>
    <linearGradient gradientTransform="matrix(0.0019, 0.0032, -0.0019, 0.0011, -25.9, 9.6)" gradientUnits="userSpaceOnUse" id="gradient85" spreadMethod="pad" x1="-819.2" x2="819.2">
      <stop offset="0.0" stop-color="#d8e17b"/>
      <stop offset="0.9921568627450981" stop-color="#95951e"/>
    </linearGradient>
    <linearGradient gradientTransform="matrix(0.019, 0.011, -0.0087, 0.015, -42.3, 20.35)" gradientUnits="userSpaceOnUse" id="gradient86" spreadMethod="pad" x1="-819.2" x2="819.2">
      <stop offset="0.0" stop-color="#543201"/>
      <stop offset="0.9921568627450981" stop-color="#653d01"/>
    </linearGradient>
    <linearGradient gradientTransform="matrix(0.0, 0.0101, -0.005, 0.0, -36.65, 24.6)" gradientUnits="userSpaceOnUse" id="gradient87" spreadMethod="pad" x1="-819.2" x2="819.2">
      <stop offset="0.0" stop-color="#a0783d"/>
      <stop offset="1.0" stop-color="#805933"/>
    </linearGradient>
    <linearGradient gradientTransform="matrix(0.0019, 0.0, 0.0, 0.0026, -27.45, 25.6)" gradientUnits="userSpaceOnUse" id="gradient88" spreadMethod="pad" x1="-819.2" x2="819.2">
      <stop offset="0.0" stop-color="#a0783d"/>
      <stop offset="1.0" stop-color="#805933"/>
    </linearGradient>
    <linearGradient gradientTransform="matrix(9.0E-4, 0.0033, -0.0023, 6.0E-4, -21.95, 34.1)" gradientUnits="userSpaceOnUse" id="gradient89" spreadMethod="pad" x1="-819.2" x2="819.2">
      <stop offset="0.0" stop-color="#d8e17b"/>
      <stop offset="0.9921568627450981" stop-color="#95951e"/>
    </linearGradient>
    <linearGradient gradientTransform="matrix(0.0028, 0.0, 0.0, 0.0017, -25.55, 37.05)" gradientUnits="userSpaceOnUse" id="gradient90" spreadMethod="pad" x1="-819.2" x2="819.2">
      <stop offset="0.0" stop-color="#a0783d"/>
      <stop offset="1.0" stop-color="#805933"/>
    </linearGradient>
    <linearGradient gradientTransform="matrix(0.0035, 0.0, 0.0, 0.0041, -21.45, 40.05)" gradientUnits="userSpaceOnUse" id="gradient91" spreadMethod="pad" x1="-819.2" x2="819.2">
      <stop offset="0.0" stop-color="#aca042"/>
      <stop offset="0.9921568627450981" stop-color="#756d2d"/>
    </linearGradient>
    <linearGradient gradientTransform="matrix(0.0061, 0.0, 0.0, 0.0021, -15.95, 35.25)" gradientUnits="userSpaceOnUse" id="gradient92" spreadMethod="pad" x1="-819.2" x2="819.2">
      <stop offset="0.0" stop-color="#a0783d"/>
      <stop offset="1.0" stop-color="#805933"/>
    </linearGradient>
    <linearGradient gradientTransform="matrix(5.0E-4, 0.0017, -0.0035, 9.0E-4, -28.9, 33.4)" gradientUnits="userSpaceOnUse" id="gradient93" spreadMethod="pad" x1="-819.2" x2="819.2">
      <stop offset="0.0" stop-color="#d8e17b"/>
      <stop offset="0.9921568627450981" stop-color="#95951e"/>
    </linearGradient>
    <linearGradient gradientTransform="matrix(0.0031, 0.0, 0.0, 0.0013, -32.3, 38.3)" gradientUnits="userSpaceOnUse" id="gradient94" spreadMethod="pad" x1="-819.2" x2="819.2">
      <stop offset="0.0" stop-color="#a0783d"/>
      <stop offset="1.0" stop-color="#805933"/>
    </linearGradient>
    <linearGradient gradientTransform="matrix(0.004, 0.0, 0.0, 0.0036, -27.1, 41.3)" gradientUnits="userSpaceOnUse" id="gradient95" spreadMethod="pad" x1="-819.2" x2="819.2">
      <stop offset="0.0" stop-color="#aca042"/>
      <stop offset="0.9921568627450981" stop-color="#756d2d"/>
    </linearGradient>
    <linearGradient gradientTransform="matrix(0.0, 0.0043, -0.0023, 0.0, -9.1, 34.15)" gradientUnits="userSpaceOnUse" id="gradient96" spreadMethod="pad" x1="-819.2" x2="819.2">
      <stop offset="0.0" stop-color="#d8e17b"/>
      <stop offset="0.9921568627450981" stop-color="#95951e"/>
    </linearGradient>
    <linearGradient gradientTransform="matrix(-2.0E-4, 0.0014, -0.0035, -5.0E-4, -5.65, 33.5)" gradientUnits="userSpaceOnUse" id="gradient97" spreadMethod="pad" x1="-819.2" x2="819.2">
      <stop offset="0.0" stop-color="#bb8e4d"/>
      <stop offset="1.0" stop-color="#bd8853"/>
    </linearGradient>
    <linearGradient gradientTransform="matrix(0.0027, 0.0, 0.0, 0.0049, -9.6, 38.9)" gradientUnits="userSpaceOnUse" id="gradient98" spreadMethod="pad" x1="-819.2" x2="819.2">
      <stop offset="0.0" stop-color="#aca042"/>
      <stop offset="0.9921568627450981" stop-color="#756d2d"/>
    </linearGradient>
    <linearGradient gradientTransform="matrix(0.0074, 0.0181, -0.0044, 0.0018, -47.35, 16.6)" gradientUnits="userSpaceOnUse" id="gradient99" spreadMethod="pad" x1="-819.2" x2="819.2">
      <stop offset="0.0" stop-color="#996600"/>
      <stop offset="0.9921568627450981" stop-color="#653d01"/>
    </linearGradient>
    <linearGradient gradientTransform="matrix(0.0027, 0.0016, -9.0E-4, 0.0016, -56.35, 7.95)" gradientUnits="userSpaceOnUse" id="gradient100" spreadMethod="pad" x1="-819.2" x2="819.2">
      <stop offset="0.0" stop-color="#543201"/>
      <stop offset="0.9921568627450981" stop-color="#653d01"/>
    </linearGradient>
    <linearGradient gradientTransform="matrix(0.0, 0.0052, -0.0069, 0.0, -49.05, 17.15)" gradientUnits="userSpaceOnUse" id="gradient101" spreadMethod="pad" x1="-819.2" x2="819.2">
      <stop offset="0.0" stop-color="#996600"/>
      <stop offset="0.9921568627450981" stop-color="#653d01"/>
    </linearGradient>
    <linearGradient gradientTransform="matrix(0.0031, 0.0, 0.0, 0.0034, -53.4, 17.55)" gradientUnits="userSpaceOnUse" id="gradient102" spreadMethod="pad" x1="-819.2" x2="819.2">
      <stop offset="0.0" stop-color="#7a7930"/>
      <stop offset="0.9921568627450981" stop-color="#95951e"/>
    </linearGradient>
    <linearGradient gradientTransform="matrix(-0.0173, 0.0099, -0.0061, -0.0107, -70.75, 32.05)" gradientUnits="userSpaceOnUse" id="gradient103" spreadMethod="pad" x1="-819.2" x2="819.2">
      <stop offset="0.0" stop-color="#e6e2b9"/>
      <stop offset="0.9921568627450981" stop-color="#d0c884"/>
    </linearGradient>
    <linearGradient gradientTransform="matrix(0.0037, 0.0, 0.0, 0.0028, -57.15, 18.1)" gradientUnits="userSpaceOnUse" id="gradient104" spreadMethod="pad" x1="-819.2" x2="819.2">
      <stop offset="0.0" stop-color="#aca042"/>
      <stop offset="0.9921568627450981" stop-color="#756d2d"/>
    </linearGradient>
    <linearGradient gradientTransform="matrix(-0.0148, 0.0148, -0.0057, -0.0057, -65.9, 35.25)" gradientUnits="userSpaceOnUse" id="gradient105" spreadMethod="pad" x1="-819.2" x2="819.2">
      <stop offset="0.0" stop-color="#cdb37a"/>
      <stop offset="1.0" stop-color="#cba473"/>
    </linearGradient>
    <linearGradient gradientTransform="matrix(-8.0E-4, 0.001, -0.0027, -0.0021, -52.7, 19.35)" gradientUnits="userSpaceOnUse" id="gradient106" spreadMethod="pad" x1="-819.2" x2="819.2">
      <stop offset="0.0" stop-color="#7a7930"/>
      <stop offset="0.9921568627450981" stop-color="#95951e"/>
    </linearGradient>
    <linearGradient gradientTransform="matrix(0.0012, 0.0, 0.0, 8.0E-4, -52.1, 15.9)" gradientUnits="userSpaceOnUse" id="gradient107" spreadMethod="pad" x1="-819.2" x2="819.2">
      <stop offset="0.0" stop-color="#aca042"/>
      <stop offset="0.9921568627450981" stop-color="#756d2d"/>
    </linearGradient>
    <linearGradient gradientTransform="matrix(-8.0E-4, 0.001, -0.0027, -0.0021, -59.3, 23.55)" gradientUnits="userSpaceOnUse" id="gradient108" spreadMethod="pad" x1="-819.2" x2="819.2">
      <stop offset="0.0" stop-color="#bb8e4d"/>
      <stop offset="1.0" stop-color="#bd8853"/>
    </linearGradient>
    <linearGradient gradientTransform="matrix(0.0035, 0.0, 0.0, 0.0034, -60.35, 21.45)" gradientUnits="userSpaceOnUse" id="gradient109" spreadMethod="pad" x1="-819.2" x2="819.2">
      <stop offset="0.0" stop-color="#7a7930"/>
      <stop offset="0.9921568627450981" stop-color="#95951e"/>
    </linearGradient>
    <linearGradient gradientTransform="matrix(-0.011, 0.0139, -0.0073, -0.0058, -58.35, 34.9)" gradientUnits="userSpaceOnUse" id="gradient110" spreadMethod="pad" x1="-819.2" x2="819.2">
      <stop offset="0.0" stop-color="#bb8e4d"/>
      <stop offset="1.0" stop-color="#bd8853"/>
    </linearGradient>
    <linearGradient gradientTransform="matrix(0.0041, 0.0, 0.0, 0.0037, -64.2, 23.6)" gradientUnits="userSpaceOnUse" id="gradient111" spreadMethod="pad" x1="-819.2" x2="819.2">
      <stop offset="0.0" stop-color="#aca042"/>
      <stop offset="0.9921568627450981" stop-color="#756d2d"/>
    </linearGradient>
    <linearGradient gradientTransform="matrix(0.0043, 0.0, 0.0, 0.0034, -67.65, 27.85)" gradientUnits="userSpaceOnUse" id="gradient112" spreadMethod="pad" x1="-819.2" x2="819.2">
      <stop offset="0.0" stop-color="#7a7930"/>
      <stop offset="0.9921568627450981" stop-color="#95951e"/>
    </linearGradient>
    <linearGradient gradientTransform="matrix(-7.0E-4, 9.0E-4, -0.0022, -0.0018, -66.5, 29.85)" gradientUnits="userSpaceOnUse" id="gradient113" spreadMethod="pad" x1="-819.2" x2="819.2">
      <stop offset="0.0" stop-color="#bb8e4d"/>
      <stop offset="1.0" stop-color="#bd8853"/>
    </linearGradient>
    <linearGradient gradientTransform="matrix(0.0023, 0.0, 0.0, 0.0011, -69.85, 27.9)" gradientUnits="userSpaceOnUse" id="gradient114" spreadMethod="pad" x1="-819.2" x2="819.2">
      <stop offset="0.0" stop-color="#aca042"/>
      <stop offset="0.9921568627450981" stop-color="#756d2d"/>
    </linearGradient>
    <linearGradient gradientTransform="matrix(0.0031, 0.0, 0.0, 0.003, -71.35, 31.0)" gradientUnits="userSpaceOnUse" id="gradient115" spreadMethod="pad" x1="-819.2" x2="819.2">
      <stop offset="0.0" stop-color="#aca042"/>
      <stop offset="0.9921568627450981" stop-color="#756d2d"/>
    </linearGradient>
    <linearGradient gradientTransform="matrix(0.0027, 0.0, 0.0, 0.0053, -76.3, 37.65)" gradientUnits="userSpaceOnUse" id="gradient116" spreadMethod="pad" x1="-819.2" x2="819.2">
      <stop offset="0.0" stop-color="#aca042"/>
      <stop offset="0.9921568627450981" stop-color="#756d2d"/>
    </linearGradient>
    <linearGradient gradientTransform="matrix(0.0049, 0.0, 0.0, 0.0034, -74.45, 34.45)" gradientUnits="userSpaceOnUse" id="gradient117" spreadMethod="pad" x1="-819.2" x2="819.2">
      <stop offset="0.0" stop-color="#7a7930"/>
      <stop offset="0.9921568627450981" stop-color="#95951e"/>
    </linearGradient>
    <linearGradient gradientTransform="matrix(-7.0E-4, 9.0E-4, -0.0018, -0.0014, -73.15, 36.55)" gradientUnits="userSpaceOnUse" id="gradient118" spreadMethod="pad" x1="-819.2" x2="819.2">
      <stop offset="0.0" stop-color="#bb8e4d"/>
      <stop offset="1.0" stop-color="#bd8853"/>
    </linearGradient>
    <linearGradient gradientTransform="matrix(0.0041, 0.0, 0.0, 0.0043, -77.6, 42.45)" gradientUnits="userSpaceOnUse" id="gradient119" spreadMethod="pad" x1="-819.2" x2="819.2">
      <stop offset="0.0" stop-color="#7a7930"/>
      <stop offset="0.9921568627450981" stop-color="#95951e"/>
    </linearGradient>
    <linearGradient gradientTransform="matrix(0.002, 0.0, 0.0, 0.0033, -79.2, 43.05)" gradientUnits="userSpaceOnUse" id="gradient120" spreadMethod="pad" x1="-819.2" x2="819.2">
      <stop offset="0.0" stop-color="#aca042"/>
      <stop offset="0.9921568627450981" stop-color="#756d2d"/>
    </linearGradient>
    <linearGradient gradientTransform="matrix(-8.0E-4, 9.0E-4, -0.002, -0.0016, -76.15, 45.8)" gradientUnits="userSpaceOnUse" id="gradient121" spreadMethod="pad" x1="-819.2" x2="819.2">
      <stop offset="0.0" stop-color="#bb8e4d"/>
      <stop offset="1.0" stop-color="#bd8853"/>
    </linearGradient>
    <linearGradient gradientTransform="matrix(0.0039, 0.0015, -7.0E-4, 0.0018, -77.65, 48.25)" gradientUnits="userSpaceOnUse" id="gradient122" spreadMethod="pad" x1="-819.2" x2="819.2">
      <stop offset="0.0" stop-color="#7a7930"/>
      <stop offset="0.9921568627450981" stop-color="#95951e"/>
    </linearGradient>
    <linearGradient gradientTransform="matrix(0.1019, 0.0, 0.0, 0.0738, 0.0, 0.0)" gradientUnits="userSpaceOnUse" id="gradient123" spreadMethod="pad" x1="-819.2" x2="819.2">
      <stop offset="0.0" stop-color="#333300" stop-opacity="0.15294118"/>
      <stop offset="0.9921568627450981" stop-color="#a99701" stop-opacity="0.101960786"/>
    </linearGradient>
  </defs>
</svg>
