<?xml version="1.0" encoding="UTF-8" standalone="no"?>
<svg xmlns:xlink="http://www.w3.org/1999/xlink" height="104.95px" width="109.05px" xmlns="http://www.w3.org/2000/svg">
  <g transform="matrix(1.0, 0.0, 0.0, 1.0, -220.45, -148.0)">
    <path d="M241.5 163.75 Q238.65 158.35 230.9 159.95 224.8 162.95 222.65 171.85 222.0 175.75 222.75 178.85 L222.65 178.9 220.95 172.55 Q222.55 159.2 236.1 152.45 245.1 155.55 250.5 160.95 253.8 164.2 255.8 168.35 253.45 169.4 251.25 170.75 L250.5 171.15 247.65 173.05 Q246.55 170.2 244.75 167.1 243.2 164.9 241.5 163.75 M279.0 161.45 L279.05 161.5 279.05 161.4 Q279.45 160.6 280.2 160.1 282.15 158.75 286.55 159.1 L291.35 159.95 Q295.55 161.0 300.2 163.25 306.35 166.2 310.35 169.75 L311.95 171.25 Q314.9 174.4 315.15 176.75 L315.1 177.85 Q328.9 190.8 329.0 207.95 L329.0 208.15 Q329.0 226.45 314.2 239.45 299.4 252.45 278.5 252.45 257.6 252.45 242.75 239.45 227.95 226.45 228.0 208.15 227.95 189.85 242.75 176.85 245.1 174.8 247.65 173.05 249.0 176.75 249.2 180.0 L249.05 180.55 249.05 180.6 247.8 181.7 Q235.7 192.25 235.7 207.25 235.7 209.9 236.1 212.4 L236.15 212.6 236.1 213.1 Q236.05 213.75 236.4 214.4 L236.55 214.65 237.5 215.8 Q238.3 220.1 240.3 224.0 243.25 229.85 248.85 234.8 260.85 245.25 277.7 245.25 294.6 245.25 306.55 234.8 316.1 226.4 318.05 215.25 318.95 214.25 318.95 213.1 318.95 212.25 318.45 211.5 L318.05 210.95 318.2 207.95 318.2 207.25 Q318.2 195.85 311.25 186.9 L310.45 188.05 309.6 189.2 Q308.85 189.85 307.65 190.15 L307.35 189.4 305.9 187.25 309.25 180.95 309.4 180.95 309.55 180.8 Q311.0 179.25 309.75 177.1 300.65 165.75 284.7 164.2 L282.95 164.3 280.9 167.55 280.85 168.0 Q278.05 171.35 277.95 174.25 284.95 181.3 294.05 185.05 292.9 185.7 291.95 186.7 L291.35 187.3 289.25 186.35 Q281.8 182.75 277.55 178.2 274.05 174.6 274.3 172.05 L274.35 171.75 274.5 170.9 Q275.25 166.95 277.5 163.55 275.25 166.95 274.5 170.9 266.0 171.25 258.65 174.6 L258.4 174.75 257.8 175.0 257.85 174.55 257.8 174.35 Q257.1 171.15 255.8 168.35 255.9 168.25 256.05 168.2 265.1 164.1 277.5 163.55 L279.0 161.45 M279.05 161.5 Q277.85 163.9 280.9 167.55 277.85 163.9 279.05 161.5 M314.7 178.9 Q313.45 180.9 309.4 180.95 313.45 180.9 314.7 178.9 L314.85 178.6 315.1 177.85 314.85 178.6 314.7 178.9 Q313.6 183.2 311.25 186.9 313.6 183.2 314.7 178.9" fill="#cccce5" fill-rule="evenodd" stroke="none"/>
    <path d="M222.75 178.85 Q222.0 175.75 222.65 171.85 224.8 162.95 230.9 159.95 238.65 158.35 241.5 163.75 236.55 160.4 230.2 165.75 224.5 171.3 226.4 177.7 L222.75 178.85 M247.65 173.05 L250.5 171.15 251.25 170.75 Q253.45 169.4 255.8 168.35 257.1 171.15 257.8 174.35 L257.85 174.55 257.8 175.0 257.75 175.05 257.75 175.15 Q256.95 180.15 253.3 183.85 252.0 184.8 250.5 185.5 248.0 186.75 244.85 187.2 248.15 184.9 249.05 180.6 L249.1 180.6 249.05 180.55 249.2 180.0 Q249.0 176.75 247.65 173.05 M294.05 185.05 Q284.95 181.3 277.95 174.25 278.05 171.35 280.85 168.0 L281.0 167.7 280.9 167.55 282.95 164.3 284.7 164.2 Q300.65 165.75 309.75 177.1 311.0 179.25 309.55 180.8 L309.25 180.95 307.7 180.9 307.6 180.9 307.3 180.9 Q301.1 180.4 293.7 176.85 286.25 173.3 281.95 168.75 L281.75 168.55 281.0 167.7 281.75 168.55 281.95 168.75 Q286.25 173.3 293.7 176.85 301.1 180.4 307.3 180.9 L307.6 180.9 307.7 180.9 309.25 180.95 305.9 187.25 305.75 187.05 305.4 186.7 Q302.6 183.9 298.65 183.9 296.3 183.9 294.4 184.9 L294.05 185.05" fill="#8484c1" fill-rule="evenodd" stroke="none"/>
    <path d="M291.35 187.3 L291.95 186.7 Q292.9 185.7 294.05 185.05 L294.4 184.9 Q296.3 183.9 298.65 183.9 302.6 183.9 305.4 186.7 L305.75 187.05 305.9 187.25 307.35 189.4 305.95 190.45 302.9 190.4 Q297.6 189.95 291.35 187.3" fill="#cabed3" fill-rule="evenodd" stroke="none"/>
    <path d="M274.5 170.9 L274.35 171.75 274.3 172.05 Q274.05 174.6 277.55 178.2 281.8 182.75 289.25 186.35 L291.35 187.3 Q289.1 189.9 289.1 193.45 289.1 197.35 291.95 200.2 L292.3 200.5 Q294.95 202.95 298.65 203.0 302.6 203.0 305.4 200.2 308.2 197.35 308.2 193.45 308.2 191.65 307.65 190.15 308.85 189.85 309.6 189.2 L310.45 188.1 310.45 188.05 311.25 186.9 Q318.2 195.85 318.2 207.25 L318.2 207.95 318.05 210.95 Q316.6 209.3 312.95 207.95 310.4 206.95 306.8 206.1 297.25 203.8 284.6 203.35 L284.05 201.75 284.0 201.7 283.1 200.5 Q281.6 199.0 279.4 199.0 277.2 199.0 275.65 200.5 274.5 201.7 274.2 203.25 260.7 203.45 250.5 205.6 L248.2 206.1 Q239.35 208.2 237.0 210.95 236.35 211.65 236.15 212.4 L236.1 212.4 Q235.7 209.9 235.7 207.25 235.7 192.25 247.8 181.7 L249.05 180.6 Q248.15 184.9 244.85 187.2 248.0 186.75 250.5 185.5 252.0 184.8 253.3 183.85 256.95 180.15 257.75 175.15 L257.8 175.0 258.4 174.75 258.65 174.6 Q266.0 171.25 274.5 170.9 M262.6 185.35 L262.2 184.95 Q260.6 183.35 258.4 183.35 256.2 183.35 254.65 184.95 253.05 186.5 253.05 188.75 253.05 190.75 254.4 192.25 L254.65 192.5 Q256.2 194.05 258.4 194.1 260.6 194.05 262.2 192.5 263.8 190.9 263.8 188.75 263.8 186.8 262.6 185.35" fill="#eeeef7" fill-rule="evenodd" stroke="none"/>
    <path d="M254.4 192.25 Q253.05 190.75 253.05 188.75 253.05 186.5 254.65 184.95 256.2 183.35 258.4 183.35 260.6 183.35 262.2 184.95 L262.6 185.35 Q261.6 190.8 254.4 192.25 M274.2 203.25 L274.1 204.3 274.15 204.9 274.1 204.3 274.2 203.25 Q274.5 201.7 275.65 200.5 277.2 199.0 279.4 199.0 281.6 199.0 283.1 200.5 L284.0 201.7 Q281.3 204.65 275.4 205.5 280.15 207.55 284.6 205.25 L284.7 204.3 284.6 203.35 Q297.25 203.8 306.8 206.1 310.4 206.95 312.95 207.95 316.6 209.3 318.05 210.95 L318.45 211.5 Q318.95 212.25 318.95 213.1 318.95 214.25 318.05 215.25 L317.05 216.15 Q314.1 218.35 306.8 220.1 294.65 223.0 277.5 223.0 260.35 223.0 248.2 220.1 240.25 218.2 237.5 215.8 L236.55 214.65 236.15 212.6 236.15 212.4 Q236.35 211.65 237.0 210.95 239.35 208.2 248.2 206.1 L250.5 205.6 Q260.7 203.45 274.2 203.25 M268.25 214.1 Q266.25 209.3 260.6 208.3 L260.15 208.2 Q254.9 207.85 251.35 213.4 254.9 207.85 260.15 208.2 L260.6 208.3 Q266.25 209.3 268.25 214.1 M292.3 200.5 L291.95 200.2 Q289.1 197.35 289.1 193.45 289.1 189.9 291.35 187.3 297.6 189.95 302.9 190.4 L305.95 190.45 Q304.85 201.55 292.3 200.5 M283.8 234.95 Q282.6 234.95 281.75 234.1 280.9 233.25 280.9 232.1 280.9 230.9 281.75 230.1 282.6 229.25 283.8 229.25 284.95 229.25 285.8 230.1 286.65 230.9 286.65 232.1 286.65 233.25 285.8 234.1 284.95 234.95 283.8 234.95" fill="#a995b9" fill-rule="evenodd" stroke="none"/>
    <path d="M262.6 185.35 Q263.8 186.8 263.8 188.75 263.8 190.9 262.2 192.5 260.6 194.05 258.4 194.1 256.2 194.05 254.65 192.5 L254.4 192.25 Q261.6 190.8 262.6 185.35 M237.5 215.8 Q240.25 218.2 248.2 220.1 260.35 223.0 277.5 223.0 294.65 223.0 306.8 220.1 314.1 218.35 317.05 216.15 L318.05 215.25 Q316.1 226.4 306.55 234.8 294.6 245.25 277.7 245.25 260.85 245.25 248.85 234.8 243.25 229.85 240.3 224.0 238.3 220.1 237.5 215.8 M284.6 203.35 L284.7 204.3 284.6 205.25 Q280.15 207.55 275.4 205.5 281.3 204.65 284.0 201.7 L284.05 201.75 284.6 203.35 M307.65 190.15 Q308.2 191.65 308.2 193.45 308.2 197.35 305.4 200.2 302.6 203.0 298.65 203.0 294.95 202.95 292.3 200.5 304.85 201.55 305.95 190.45 L307.65 190.15 M283.8 234.95 Q284.95 234.95 285.8 234.1 286.65 233.25 286.65 232.1 286.65 230.9 285.8 230.1 284.95 229.25 283.8 229.25 282.6 229.25 281.75 230.1 280.9 230.9 280.9 232.1 280.9 233.25 281.75 234.1 282.6 234.95 283.8 234.95" fill="#9a83ad" fill-rule="evenodd" stroke="none"/>
    <path d="M241.5 163.75 Q243.2 164.9 244.75 167.1 246.55 170.2 247.65 173.05 245.1 174.8 242.75 176.85 227.95 189.85 228.0 208.15 227.95 226.45 242.75 239.45 257.6 252.45 278.5 252.45 299.4 252.45 314.2 239.45 329.0 226.45 329.0 208.15 L329.0 207.95 Q328.9 190.8 315.1 177.85 L315.15 176.75 Q314.9 174.4 311.95 171.25 L310.35 169.75 Q306.35 166.2 300.2 163.25 295.55 161.0 291.35 159.95 L286.55 159.1 Q282.15 158.75 280.2 160.1 279.45 160.6 279.05 161.4 L279.0 161.45 277.5 163.55 Q265.1 164.1 256.05 168.2 255.9 168.25 255.8 168.35 253.8 164.2 250.5 160.95 245.1 155.55 236.1 152.45 222.55 159.2 220.95 172.55 L222.65 178.9 222.75 178.85 226.4 177.7 Q224.5 171.3 230.2 165.75 236.55 160.4 241.5 163.75 M279.05 161.5 L279.05 161.4 M314.7 178.9 L314.85 178.6 315.1 177.85" fill="none" stroke="#000000" stroke-linecap="round" stroke-linejoin="round" stroke-opacity="0.6" stroke-width="1.0"/>
    <path d="M281.0 167.7 L280.9 167.55 M309.25 180.95 L309.4 180.95 M249.05 180.6 L249.05 180.55 M257.75 175.15 L257.8 175.0 M310.45 188.05 L310.45 188.1 309.6 189.2" fill="none" stroke="#000000" stroke-linecap="round" stroke-linejoin="round" stroke-width="0.4"/>
    <path d="M277.5 163.55 Q275.25 166.95 274.5 170.9 L274.35 171.75 274.3 172.05 Q274.05 174.6 277.55 178.2 281.8 182.75 289.25 186.35 L291.35 187.3 Q297.6 189.95 302.9 190.4 L305.95 190.45 307.65 190.15 Q308.85 189.85 309.6 189.2 L310.45 188.05 311.25 186.9 Q318.2 195.85 318.2 207.25 L318.2 207.95 318.05 210.95 M309.4 180.95 Q313.45 180.9 314.7 178.9 313.6 183.2 311.25 186.9 M281.0 167.7 L281.75 168.55 281.95 168.75 Q286.25 173.3 293.7 176.85 301.1 180.4 307.3 180.9 L307.6 180.9 307.7 180.9 309.25 180.95 M257.8 175.0 L258.4 174.75 258.65 174.6 Q266.0 171.25 274.5 170.9" fill="none" stroke="#7db8ba" stroke-linecap="round" stroke-linejoin="round" stroke-width="0.6000000000000001"/>
    <path d="M291.35 187.3 L291.95 186.7 Q292.9 185.7 294.05 185.05 L294.4 184.9 Q296.3 183.9 298.65 183.9 302.6 183.9 305.4 186.7 L305.75 187.05 305.9 187.25 307.35 189.4 307.65 190.15 Q308.2 191.65 308.2 193.45 308.2 197.35 305.4 200.2 302.6 203.0 298.65 203.0 294.95 202.95 292.3 200.5 L291.95 200.2 Q289.1 197.35 289.1 193.45 289.1 189.9 291.35 187.3 M254.4 192.25 Q253.05 190.75 253.05 188.75 253.05 186.5 254.65 184.95 256.2 183.35 258.4 183.35 260.6 183.35 262.2 184.95 L262.6 185.35 Q263.8 186.8 263.8 188.75 263.8 190.9 262.2 192.5 260.6 194.05 258.4 194.1 256.2 194.05 254.65 192.5 L254.4 192.25 M251.35 213.4 Q254.9 207.85 260.15 208.2 L260.6 208.3 Q266.25 209.3 268.25 214.1 M274.15 204.9 L274.1 204.3 274.2 203.25 Q274.5 201.7 275.65 200.5 277.2 199.0 279.4 199.0 281.6 199.0 283.1 200.5 L284.0 201.7 M284.6 203.35 L284.7 204.3 284.6 205.25 M284.05 201.75 L284.6 203.35" fill="none" stroke="#7e6396" stroke-linecap="round" stroke-linejoin="round" stroke-width="0.4"/>
    <path d="M280.9 167.55 Q277.85 163.9 279.05 161.5" fill="none" stroke="#7db8ba" stroke-linecap="round" stroke-linejoin="round" stroke-width="1.0"/>
    <path d="M249.1 180.6 L249.05 180.6 Q248.15 184.9 244.85 187.2 248.0 186.75 250.5 185.5 252.0 184.8 253.3 183.85 256.95 180.15 257.75 175.15 M284.7 164.2 Q300.65 165.75 309.75 177.1" fill="none" stroke="#d3e0a3" stroke-linecap="round" stroke-linejoin="round" stroke-width="0.6000000000000001"/>
    <path d="M257.75 175.05 L257.8 175.0" fill="none" stroke="#d3e0a3" stroke-linecap="round" stroke-linejoin="round" stroke-width="1.0"/>
    <path d="M318.05 215.25 Q316.1 226.4 306.55 234.8 294.6 245.25 277.7 245.25 260.85 245.25 248.85 234.8 243.25 229.85 240.3 224.0 238.3 220.1 237.5 215.8" fill="none" stroke="#6161af" stroke-linecap="round" stroke-linejoin="round" stroke-width="1.0"/>
    <path d="M258.45 188.55 Q257.7 189.3 256.65 189.3 255.6 189.3 254.85 188.55 254.1 187.85 254.1 186.75 254.1 185.7 254.85 184.95 255.6 184.25 256.65 184.25 257.7 184.25 258.45 184.95 259.2 185.7 259.2 186.75 259.2 187.85 258.45 188.55" fill="#fff5d9" fill-rule="evenodd" stroke="none"/>
    <path d="M296.9 191.95 Q296.15 192.7 295.1 192.7 294.05 192.7 293.3 191.95 292.55 191.25 292.55 190.15 292.55 189.1 293.3 188.35 294.05 187.65 295.1 187.65 296.15 187.65 296.9 188.35 297.65 189.1 297.65 190.15 297.65 191.25 296.9 191.95" fill="#fff5d9" fill-rule="evenodd" stroke="none"/>
    <path d="M279.4 203.1 Q278.85 203.65 278.05 203.65 277.3 203.65 276.75 203.1 276.2 202.55 276.2 201.8 276.2 201.0 276.75 200.45 277.3 199.95 278.05 199.95 278.85 199.95 279.4 200.45 279.9 201.0 279.9 201.8 279.9 202.55 279.4 203.1" fill="#fff5d9" fill-rule="evenodd" stroke="none"/>
    <path d="M259.5 212.85 Q258.95 213.4 258.15 213.4 257.4 213.4 256.85 212.85 256.3 212.3 256.3 211.55 256.3 210.75 256.85 210.2 257.4 209.7 258.15 209.7 258.95 209.7 259.5 210.2 260.0 210.75 260.0 211.55 260.0 212.3 259.5 212.85" fill="#fff5d9" fill-rule="evenodd" stroke="none"/>
    <path d="M326.95 204.85 L327.4 205.15 Q312.15 261.35 242.1 235.6 305.7 247.25 326.95 204.85" fill="#ffffff" fill-opacity="0.4" fill-rule="evenodd" stroke="none"/>
    <path d="M273.15 172.3 Q280.4 175.9 282.1 183.6 283.7 191.35 278.75 198.7 273.8 206.0 265.25 208.55 256.6 211.15 249.3 207.55 242.05 203.9 240.45 196.15 238.75 188.45 243.7 181.15 248.7 173.8 257.35 171.25 265.9 168.7 273.15 172.3" fill="#ffffff" fill-opacity="0.6" fill-rule="evenodd" stroke="none"/>
    <path d="M283.25 166.0 L283.5 165.3 287.65 151.6 Q288.15 153.25 290.9 155.75 295.0 159.45 301.9 162.65 L307.7 165.0 305.45 173.9 313.25 166.5 313.3 166.45 314.35 166.65 Q318.65 167.25 320.25 166.2 L309.45 178.25 Q308.15 179.05 305.85 178.9 L304.75 178.7 Q300.3 178.05 294.85 175.5 289.45 173.0 286.2 170.1 L285.95 169.95 285.3 169.35 Q283.25 167.3 283.25 166.0 M300.5 174.65 Q302.05 174.65 303.1 173.25 304.15 171.9 304.15 170.0 304.15 168.1 303.1 166.7 302.05 165.35 300.5 165.35 299.0 165.35 297.95 166.7 296.85 168.1 296.85 170.0 296.85 171.9 297.95 173.25 299.0 174.65 300.5 174.65" fill="#935926" fill-rule="evenodd" stroke="none"/>
    <path d="M320.25 166.2 Q318.65 167.25 314.35 166.65 L313.3 166.45 307.75 158.7 307.85 164.6 307.7 165.0 301.9 162.65 Q295.0 159.45 290.9 155.75 288.15 153.25 287.65 151.6 287.4 150.7 287.75 150.0 L288.4 149.25 Q289.9 148.1 294.3 148.75 L298.45 149.65 298.4 149.85 Q302.25 152.7 306.3 153.05 L306.35 152.7 306.65 152.8 Q310.05 154.4 312.8 156.05 313.3 156.6 314.35 157.05 316.2 158.3 317.7 159.65 321.0 162.65 321.0 164.55 L320.95 165.05 320.25 166.2 M297.7 156.8 Q298.75 156.8 299.5 156.2 300.25 155.6 300.25 154.85 300.25 154.05 299.5 153.45 298.75 152.85 297.7 152.85 296.65 152.85 295.9 153.45 295.2 154.05 295.2 154.85 295.2 155.6 295.9 156.2 296.65 156.8 297.7 156.8 M300.5 174.65 Q299.0 174.65 297.95 173.25 296.85 171.9 296.85 170.0 296.85 168.1 297.95 166.7 299.0 165.35 300.5 165.35 302.05 165.35 303.1 166.7 304.15 168.1 304.15 170.0 304.15 171.9 303.1 173.25 302.05 174.65 300.5 174.65" fill="#bb7331" fill-rule="evenodd" stroke="none"/>
    <path d="M313.3 166.45 L313.25 166.5 305.45 173.9 307.7 165.0 307.85 165.05 307.85 164.6 307.75 158.7 313.3 166.45" fill="#673f1b" fill-rule="evenodd" stroke="none"/>
    <path d="M297.7 156.8 Q296.65 156.8 295.9 156.2 295.2 155.6 295.2 154.85 295.2 154.05 295.9 153.45 296.65 152.85 297.7 152.85 298.75 152.85 299.5 153.45 300.25 154.05 300.25 154.85 300.25 155.6 299.5 156.2 298.75 156.8 297.7 156.8" fill="#d59760" fill-rule="evenodd" stroke="none"/>
    <path d="M283.25 166.0 L283.5 165.3 287.65 151.6 M309.45 178.25 L320.25 166.2 320.95 165.05 321.0 164.55 M313.25 166.5 L305.45 173.9 307.7 165.0 307.85 164.6 307.75 158.7 313.3 166.45 M298.45 149.65 L298.4 149.85 Q302.25 152.7 306.3 153.05 L306.35 152.7 M307.85 165.05 L307.85 164.6" fill="none" stroke="#834201" stroke-linecap="round" stroke-linejoin="round" stroke-width="1.0"/>
    <path d="M283.5 165.3 L283.45 165.35 283.25 166.0 Q283.25 167.3 285.3 169.35 L285.95 169.95 286.2 170.1 Q289.45 173.0 294.85 175.5 300.3 178.05 304.75 178.7 L305.85 178.9 Q308.15 179.05 309.45 178.25 M320.25 166.2 Q318.65 167.25 314.35 166.65 L313.3 166.45 313.25 166.5 M307.7 165.0 L301.9 162.65 Q295.0 159.45 290.9 155.75 288.15 153.25 287.65 151.6 287.4 150.7 287.75 150.0 L288.4 149.25 Q289.9 148.1 294.3 148.75 L298.45 149.65 M306.35 152.7 L306.65 152.8 Q310.05 154.4 312.8 156.05 313.3 156.6 314.35 157.05 316.2 158.3 317.7 159.65 321.0 162.65 321.0 164.55 M320.95 165.05 L320.85 165.4 320.25 166.2 M307.7 165.0 L307.85 165.05" fill="none" stroke="#834201" stroke-linecap="round" stroke-linejoin="round" stroke-width="1.0"/>
    <path d="M295.0 179.95 Q299.85 181.5 302.95 182.25 306.0 182.85 305.3 184.45 304.55 186.05 300.55 186.35 296.55 186.55 291.85 184.45 287.1 182.35 284.4 179.2 281.7 175.9 282.45 174.3 283.15 172.7 286.7 175.5 290.15 178.35 295.0 179.95" fill="#ffffff" fill-opacity="0.6" fill-rule="evenodd" stroke="none"/>
    <path d="M281.5 171.9 Q281.7 173.1 281.0 173.75 280.3 174.45 279.1 174.25 277.95 174.05 276.95 173.1 276.0 172.1 275.85 170.95 275.65 169.7 276.35 169.05 277.05 168.4 278.2 168.6 279.4 168.75 280.35 169.8 281.3 170.75 281.5 171.9" fill="#ffffff" fill-opacity="0.8" fill-rule="evenodd" stroke="none"/>
  </g>
</svg>
