<?xml version="1.0" encoding="UTF-8" standalone="no"?>
<svg xmlns:xlink="http://www.w3.org/1999/xlink" height="170.85px" width="101.4px" xmlns="http://www.w3.org/2000/svg">
  <g transform="matrix(1.0, 0.0, 0.0, 1.0, -179.0, -89.95)">
    <path d="M218.85 216.0 L219.25 215.85 219.15 216.15 218.85 216.0" fill="#f1eac2" fill-rule="evenodd" stroke="none"/>
    <path d="M258.35 163.75 Q261.15 167.05 260.1 170.75 L257.75 173.55 253.85 174.65 255.85 170.75 Q248.7 168.4 241.25 168.0 232.25 167.8 223.55 170.1 231.6 170.25 239.6 172.75 246.8 175.25 251.85 178.5 252.65 180.35 252.6 183.15 252.45 185.95 248.85 188.5 L233.85 184.75 224.3 180.65 221.6 179.5 219.75 177.15 217.85 174.75 Q219.05 172.1 221.0 170.95 221.5 170.65 222.05 170.45 L220.85 170.75 220.85 167.0 Q221.65 164.05 224.85 161.5 L227.55 160.65 229.95 159.85 Q232.95 158.9 236.05 158.45 L242.15 157.9 244.7 157.9 245.15 157.9 246.6 158.0 Q254.2 159.75 258.35 163.75 M232.35 166.8 Q233.95 167.6 236.05 167.25 L239.3 167.2 242.9 167.05 245.4 166.5 Q246.85 163.45 245.05 160.6 L243.85 159.45 Q242.2 158.35 240.25 158.65 234.3 158.95 228.65 160.6 L228.3 161.0 232.5 160.65 231.8 160.9 Q229.85 161.75 230.05 163.9 230.25 165.95 232.35 166.8 M234.75 173.3 Q229.55 169.45 225.45 173.0 222.4 180.4 231.9 179.45 236.45 178.8 234.95 173.75 L234.75 173.3 M223.55 170.1 L222.05 170.45 223.55 170.1" fill="#d6a70a" fill-rule="evenodd" stroke="none"/>
    <path d="M232.35 166.8 Q230.25 165.95 230.05 163.9 229.85 161.75 231.8 160.9 L232.5 160.65 228.3 161.0 228.65 160.6 Q234.3 158.95 240.25 158.65 242.2 158.35 243.85 159.45 L245.05 160.6 Q246.85 163.45 245.4 166.5 L242.9 167.05 239.3 167.2 236.05 167.25 Q233.95 167.6 232.35 166.8 M241.5 163.4 Q241.35 161.35 239.15 161.45 237.15 162.15 237.7 164.25 L238.0 164.65 Q239.85 165.65 241.25 164.05 L241.5 163.4 M234.75 173.3 L234.95 173.75 Q236.45 178.8 231.9 179.45 222.4 180.4 225.45 173.0 229.55 169.45 234.75 173.3 M231.55 173.95 Q230.1 174.45 230.25 176.05 230.4 177.55 232.1 177.2 233.2 177.0 233.25 175.85 233.4 174.05 231.55 173.95" fill="#f2d117" fill-rule="evenodd" stroke="none"/>
    <path d="M216.05 216.65 L216.1 216.85 215.9 216.9 216.05 216.65 M216.15 221.15 L216.45 221.4 214.9 222.9 216.15 221.15" fill="#ddd195" fill-rule="evenodd" stroke="none"/>
    <path d="M241.5 163.4 L241.25 164.05 Q239.85 165.65 238.0 164.65 L237.7 164.25 Q237.15 162.15 239.15 161.45 241.35 161.35 241.5 163.4 M231.55 173.95 Q233.4 174.05 233.25 175.85 233.2 177.0 232.1 177.2 230.4 177.55 230.25 176.05 230.1 174.45 231.55 173.95" fill="#ffffff" fill-rule="evenodd" stroke="none"/>
    <path d="M219.65 253.2 L212.1 246.55 237.85 217.3 244.55 199.75 242.0 211.5 239.4 223.2 219.65 253.2 M232.05 123.65 L230.6 146.0 227.55 160.65 222.75 139.1 232.05 123.65" fill="#585858" fill-rule="evenodd" stroke="none"/>
    <path d="M216.6 111.4 L223.1 111.4 233.1 107.5 232.05 123.65 222.75 139.1 216.6 111.4" fill="#6c6c6c" fill-rule="evenodd" stroke="none"/>
    <path d="M233.1 107.5 Q233.6 106.4 237.85 100.3 242.1 94.1 259.1 90.6 L265.35 90.1 257.15 96.4 267.9 107.15 267.9 130.15 261.1 139.75 257.35 146.75 246.6 158.0 245.15 157.9 Q246.95 154.55 246.6 150.2 243.25 153.45 242.15 157.9 L236.05 158.45 Q235.55 157.6 235.5 156.55 235.45 154.95 235.85 153.55 L237.1 153.05 Q237.85 153.65 237.45 152.15 L237.0 150.05 234.75 149.95 234.6 150.05 Q232.0 154.85 229.95 159.85 L227.55 160.65 230.6 146.0 232.05 123.65 233.1 107.5 M249.9 200.85 L251.65 222.4 239.4 244.95 219.65 260.7 219.65 253.2 239.4 223.2 242.0 211.5 249.9 200.85 M185.9 251.9 L179.1 241.8 179.1 227.05 186.6 217.8 208.85 194.55 219.75 177.15 221.6 179.5 224.3 180.65 227.15 190.65 231.65 187.4 234.9 199.9 228.15 214.45 222.15 224.2 211.15 236.7 194.4 249.7 185.9 251.9 M224.85 161.5 L210.85 119.65 207.6 106.4 210.85 101.4 216.6 111.4 222.75 139.1 227.55 160.65 224.85 161.5 M231.0 196.05 L231.0 191.55 228.1 191.55 231.0 196.05 M236.1 189.25 L241.25 190.25 237.35 197.55 236.1 189.25 M216.45 221.4 Q222.6 215.1 226.0 207.2 226.8 205.4 226.9 203.15 L223.65 200.4 Q219.65 208.15 216.05 216.65 L215.9 216.9 216.1 216.85 218.85 216.0 219.15 216.15 Q218.05 218.75 216.15 221.15 L214.9 222.9 216.45 221.4 M239.3 203.8 L233.05 213.25 237.05 203.3 239.3 203.8" fill="#a0a0a0" fill-rule="evenodd" stroke="none"/>
    <path d="M265.35 90.1 Q276.9 90.75 280.25 105.4 L280.25 108.4 279.6 111.25 269.6 147.75 258.35 163.75 Q254.2 159.75 246.6 158.0 L257.35 146.75 261.1 139.75 267.9 130.15 267.9 107.15 257.15 96.4 265.35 90.1 M253.85 174.65 L251.85 178.5 Q246.8 175.25 239.6 172.75 231.6 170.25 223.55 170.1 232.25 167.8 241.25 168.0 248.7 168.4 255.85 170.75 L253.85 174.65 M248.85 188.5 L249.9 200.85 242.0 211.5 244.55 199.75 248.85 188.5 244.55 199.75 237.85 217.3 212.1 246.55 202.6 256.75 186.85 253.3 185.9 251.9 194.4 249.7 211.15 236.7 222.15 224.2 228.15 214.45 234.9 199.9 231.65 187.4 227.15 190.65 224.3 180.65 233.85 184.75 248.85 188.5 M229.95 159.85 Q232.0 154.85 234.6 150.05 L234.75 149.95 237.0 150.05 237.45 152.15 Q237.85 153.65 237.1 153.05 L235.85 153.55 Q235.45 154.95 235.5 156.55 235.55 157.6 236.05 158.45 232.95 158.9 229.95 159.85 M242.15 157.9 Q243.25 153.45 246.6 150.2 246.95 154.55 245.15 157.9 L244.7 157.9 242.15 157.9 M231.0 196.05 L228.1 191.55 231.0 191.55 231.0 196.05 M236.1 189.25 L237.35 197.55 241.25 190.25 236.1 189.25 M216.05 216.65 Q219.65 208.15 223.65 200.4 L226.9 203.15 Q226.8 205.4 226.0 207.2 222.6 215.1 216.45 221.4 L216.15 221.15 Q218.05 218.75 219.15 216.15 L219.25 215.85 218.85 216.0 216.1 216.85 216.05 216.65 M239.3 203.8 L237.05 203.3 233.05 213.25 239.3 203.8" fill="#757575" fill-rule="evenodd" stroke="none"/>
    <path d="M233.1 107.5 Q233.6 106.4 237.85 100.3 242.1 94.1 259.1 90.6 L265.35 90.1 Q276.9 90.75 280.25 105.4 L280.25 108.4 279.6 111.25 269.6 147.75 258.35 163.75 Q261.15 167.05 260.1 170.75 L257.75 173.55 253.85 174.65 251.85 178.5 Q252.65 180.35 252.6 183.15 252.45 185.95 248.85 188.5 L249.9 200.85 251.65 222.4 239.4 244.95 219.65 260.7 219.65 253.2 212.1 246.55 202.6 256.75 186.85 253.3 185.9 251.9 179.1 241.8 179.1 227.05 186.6 217.8 208.85 194.55 219.75 177.15 217.85 174.75 Q219.05 172.1 221.0 170.95 221.5 170.65 222.05 170.45 L220.85 170.75 220.85 167.0 Q221.65 164.05 224.85 161.5 L210.85 119.65 207.6 106.4 210.85 101.4 216.6 111.4 223.1 111.4 233.1 107.5 232.05 123.65 230.6 146.0 227.55 160.65 229.95 159.85 Q232.95 158.9 236.05 158.45 L242.15 157.9 244.7 157.9 245.15 157.9 246.6 158.0 257.35 146.75 261.1 139.75 267.9 130.15 M222.75 139.1 L216.6 111.4 M253.85 174.65 L255.85 170.75 Q248.7 168.4 241.25 168.0 232.25 167.8 223.55 170.1 231.6 170.25 239.6 172.75 246.8 175.25 251.85 178.5 M224.85 161.5 L227.55 160.65 222.75 139.1 M219.75 177.15 L221.6 179.5 224.3 180.65 233.85 184.75 248.85 188.5 244.55 199.75 242.0 211.5 239.4 223.2 219.65 253.2 M222.05 170.45 L223.55 170.1 M246.6 158.0 Q254.2 159.75 258.35 163.75 M244.55 199.75 L237.85 217.3 212.1 246.55" fill="none" stroke="#000000" stroke-linecap="round" stroke-linejoin="round" stroke-opacity="0.37254903" stroke-width="0.25"/>
  </g>
</svg>
