<?xml version="1.0" encoding="UTF-8" standalone="no"?>
<svg xmlns:xlink="http://www.w3.org/1999/xlink" height="343.3px" width="149.8px" xmlns="http://www.w3.org/2000/svg">
  <g transform="matrix(1.0, 0.0, 0.0, 1.0, -163.0, -27.55)">
    <path d="M245.45 48.65 Q254.6 37.45 267.2 27.55 253.95 47.8 249.45 68.0 L243.3 79.1 Q255.35 65.7 276.9 57.1 291.3 53.85 307.05 55.15 266.9 57.5 246.35 93.75 L240.85 99.3 Q255.15 96.0 273.45 78.15 281.5 72.8 284.35 69.25 271.2 90.7 250.15 100.4 L240.85 103.6 Q270.7 117.6 276.95 136.35 L284.85 137.65 276.7 138.0 Q283.3 172.75 267.4 190.3 L256.25 192.25 Q246.7 172.9 237.15 183.85 244.15 197.95 229.1 206.0 219.5 204.25 210.8 192.05 L201.75 190.45 188.25 187.05 Q180.55 184.75 172.9 181.7 163.0 170.45 163.0 156.9 163.0 133.05 184.2 116.15 200.45 103.25 221.85 100.25 220.05 71.35 202.85 38.0 209.55 46.45 214.65 54.4 L214.8 54.65 Q227.35 84.0 226.75 99.3 L231.65 99.3 Q229.3 72.85 245.45 48.65" fill="#ffe064" fill-rule="evenodd" stroke="none"/>
    <path d="M249.45 68.0 Q262.5 60.3 276.9 57.1 255.35 65.7 243.3 79.1 L249.45 68.0 M246.35 93.75 Q263.7 84.65 273.45 78.15 255.15 96.0 240.85 99.3 L246.35 93.75 M250.15 100.4 Q270.75 103.65 286.5 116.15 307.7 133.05 307.7 156.9 307.7 169.6 298.65 180.95 289.25 184.65 279.95 187.25 L267.4 190.3 Q283.3 172.75 276.7 138.0 L284.85 137.65 276.95 136.35 Q270.7 117.6 240.85 103.6 L250.15 100.4 M214.8 54.65 Q223.45 68.2 227.35 80.25 233.45 63.35 245.45 48.65 229.3 72.85 231.65 99.3 L226.75 99.3 Q227.35 84.0 214.8 54.65 M229.1 206.0 Q244.15 197.95 237.15 183.85 246.7 172.9 256.25 192.25 241.85 208.35 229.1 206.0" fill="#ffd11c" fill-rule="evenodd" stroke="none"/>
    <path d="M279.95 187.25 Q283.85 200.85 273.35 207.15 L263.55 210.9 262.75 211.2 250.6 213.35 248.2 213.75 240.25 214.6 233.5 214.9 221.8 214.3 220.1 214.1 217.7 213.75 217.65 213.75 211.7 212.65 Q202.9 210.7 194.3 207.15 182.55 197.4 188.25 187.05 L201.75 190.45 210.8 192.05 Q219.5 204.25 229.1 206.0 241.85 208.35 256.25 192.25 L267.4 190.3 279.95 187.25" fill="url(#gradient0)" fill-rule="evenodd" stroke="none"/>
    <path d="M248.2 213.75 Q246.5 248.75 246.4 283.75 L246.45 303.4 246.7 321.8 247.3 343.25 248.2 365.85 Q244.4 368.55 240.45 369.8 L240.25 214.6 248.2 213.75 M221.75 368.05 Q219.75 367.15 217.7 365.9 221.2 290.95 217.7 213.75 L220.1 214.1 221.8 214.3 221.75 368.05" fill="#999999" fill-rule="evenodd" stroke="none"/>
    <path d="M240.45 369.8 Q237.05 370.85 233.5 370.85 227.8 370.85 221.75 368.05 L221.8 214.3 233.5 214.9 240.25 214.6 240.45 369.8" fill="url(#gradient1)" fill-rule="evenodd" stroke="none"/>
    <path d="M246.4 283.75 L256.75 283.75 Q249.7 293.05 256.75 304.85 252.9 302.2 246.45 303.4 L246.4 283.75 M257.75 340.6 L256.15 343.25 247.3 343.25 246.7 321.8 Q252.75 324.85 256.5 322.7 250.95 329.15 257.75 340.6" fill="#79612a" fill-rule="evenodd" stroke="none"/>
    <path d="M256.75 283.75 L264.1 292.9 277.6 269.0 279.55 268.4 279.55 298.55 270.9 312.3 279.55 326.15 279.55 356.2 273.85 355.5 263.5 330.9 257.75 340.6 Q250.95 329.15 256.5 322.7 260.25 320.55 261.7 313.15 260.35 307.35 256.75 304.85 249.7 293.05 256.75 283.75 M290.4 265.1 L301.5 261.65 310.6 273.9 306.55 294.7 290.8 289.15 290.4 265.1 M291.55 333.85 L307.65 327.4 312.8 344.4 307.15 359.65 291.95 357.75 291.55 333.85" fill="#e28f05" fill-rule="evenodd" stroke="none"/>
    <path d="M279.55 268.4 L290.4 265.1 290.8 289.15 286.45 287.6 279.55 298.55 279.55 268.4 M279.55 326.15 L285.8 336.15 291.55 333.85 291.95 357.75 279.55 356.2 279.55 326.15" fill="#b57304" fill-rule="evenodd" stroke="none"/>
    <path d="M245.45 48.65 Q254.6 37.45 267.2 27.55 253.95 47.8 249.45 68.0 262.5 60.3 276.9 57.1 291.3 53.85 307.05 55.15 266.9 57.5 246.35 93.75 263.7 84.65 273.45 78.15 281.5 72.8 284.35 69.25 271.2 90.7 250.15 100.4 270.75 103.65 286.5 116.15 307.7 133.05 307.7 156.9 307.7 169.6 298.65 180.95 289.25 184.65 279.95 187.25 283.85 200.85 273.35 207.15 L263.55 210.9 262.75 211.2 250.6 213.35 248.2 213.75 Q246.5 248.75 246.4 283.75 L256.75 283.75 264.1 292.9 277.6 269.0 279.55 268.4 290.4 265.1 301.5 261.65 310.6 273.9 306.55 294.7 290.8 289.15 286.45 287.6 279.55 298.55 270.9 312.3 279.55 326.15 285.8 336.15 291.55 333.85 307.65 327.4 312.8 344.4 307.15 359.65 291.95 357.75 279.55 356.2 273.85 355.5 263.5 330.9 257.75 340.6 256.15 343.25 247.3 343.25 248.2 365.85 Q244.4 368.55 240.45 369.8 237.05 370.85 233.5 370.85 227.8 370.85 221.75 368.05 219.75 367.15 217.7 365.9 221.2 290.95 217.7 213.75 L217.65 213.75 211.7 212.65 Q202.9 210.7 194.3 207.15 182.55 197.4 188.25 187.05 180.55 184.75 172.9 181.7 163.0 170.45 163.0 156.9 163.0 133.05 184.2 116.15 200.45 103.25 221.85 100.25 220.05 71.35 202.85 38.0 209.55 46.45 214.65 54.4 M214.8 54.65 Q223.45 68.2 227.35 80.25 233.45 63.35 245.45 48.65 M188.25 187.05 L201.75 190.45 210.8 192.05 Q219.5 204.25 229.1 206.0 241.85 208.35 256.25 192.25 L267.4 190.3 279.95 187.25 M221.8 214.3 L233.5 214.9 240.25 214.6 248.2 213.75 M217.7 213.75 L220.1 214.1 221.8 214.3 M256.75 304.85 Q260.35 307.35 261.7 313.15 260.25 320.55 256.5 322.7 252.75 324.85 246.7 321.8 L246.45 303.4 246.4 283.75 M246.45 303.4 Q252.9 302.2 256.75 304.85 M246.7 321.8 L247.3 343.25" fill="none" stroke="#000000" stroke-linecap="round" stroke-linejoin="round" stroke-opacity="0.4" stroke-width="0.05"/>
    <path d="M203.95 162.2 Q209.7 165.35 209.7 169.8 209.7 174.25 203.95 177.4 198.2 180.55 190.05 180.55 181.9 180.55 176.15 177.4 170.4 174.25 170.4 169.8 170.4 165.35 176.15 162.2 181.9 159.05 190.05 159.05 198.2 159.05 203.95 162.2" fill="#ff6600" fill-opacity="0.49019608" fill-rule="evenodd" stroke="none"/>
    <path d="M292.8 162.2 Q298.55 165.35 298.55 169.8 298.55 174.25 292.8 177.4 287.05 180.55 278.9 180.55 270.75 180.55 265.0 177.4 259.25 174.25 259.25 169.8 259.25 165.35 265.0 162.2 270.75 159.05 278.9 159.05 287.05 159.05 292.8 162.2" fill="#ff6600" fill-opacity="0.49019608" fill-rule="evenodd" stroke="none"/>
    <path d="M217.0 152.95 Q202.3 131.2 185.65 153.0 201.45 125.35 217.0 152.95" fill="#000000" fill-rule="evenodd" stroke="none"/>
    <path d="M283.2 152.95 Q268.5 131.2 251.85 153.0 267.65 125.35 283.2 152.95" fill="#000000" fill-rule="evenodd" stroke="none"/>
  </g>
  <defs>
    <linearGradient gradientTransform="matrix(0.0431, 0.0, 0.0, 0.017, 235.7, 200.95)" gradientUnits="userSpaceOnUse" id="gradient0" spreadMethod="pad" x1="-819.2" x2="819.2">
      <stop offset="0.0" stop-color="#f99706"/>
      <stop offset="0.4745098039215686" stop-color="#5b4002"/>
      <stop offset="0.803921568627451" stop-color="#ebddbe"/>
      <stop offset="1.0" stop-color="#fcdc61"/>
    </linearGradient>
    <linearGradient gradientTransform="matrix(0.0068, 0.0, 0.0, 0.0956, 232.25, 292.55)" gradientUnits="userSpaceOnUse" id="gradient1" spreadMethod="pad" x1="-819.2" x2="819.2">
      <stop offset="0.0" stop-color="#999999"/>
      <stop offset="0.4745098039215686" stop-color="#3c3c3c"/>
      <stop offset="1.0" stop-color="#ffffff"/>
    </linearGradient>
  </defs>
</svg>
