<?xml version="1.0" encoding="UTF-8" standalone="no"?>
<svg xmlns:xlink="http://www.w3.org/1999/xlink" height="104.55px" width="150.7px" xmlns="http://www.w3.org/2000/svg">
  <g transform="matrix(1.0, 0.0, 0.0, 1.0, -151.35, -109.45)">
    <path d="M197.6 173.05 L214.25 156.1 224.75 149.05 Q248.1 151.0 268.2 162.9 265.95 163.8 263.9 164.9 L261.0 163.55 252.5 161.6 260.6 166.75 249.0 176.25 225.35 180.15 227.15 174.1 227.15 173.85 226.95 173.6 219.8 163.85 219.8 163.6 218.05 159.8 217.8 159.5 Q217.55 159.25 217.3 159.5 217.05 159.45 217.05 159.7 216.8 159.95 217.0 160.2 L219.8 163.85 225.4 174.5 222.35 180.5 197.6 173.05 M186.25 201.05 L184.3 199.2 187.35 189.3 Q190.65 183.25 194.15 177.5 L218.3 186.7 Q217.5 187.7 216.95 188.85 L216.95 189.1 216.9 189.6 220.3 195.7 219.35 196.15 219.05 196.4 Q215.8 197.65 212.25 199.25 212.0 199.2 212.0 199.45 L207.35 207.6 Q207.1 207.6 207.1 207.85 L207.05 208.1 206.8 208.05 194.6 205.95 196.05 192.45 Q197.8 187.1 199.85 181.8 L189.8 194.35 Q187.85 197.7 186.25 201.05 M184.05 199.95 L185.95 201.55 185.95 201.8 Q184.85 203.45 184.0 205.15 L182.85 204.6 184.05 199.95 M284.4 174.9 Q293.85 182.5 302.05 190.9 299.6 190.75 297.35 190.9 L287.2 182.15 284.2 182.75 290.2 190.75 289.45 190.7 291.8 197.75 292.45 199.75 292.65 200.25 294.35 205.0 288.9 206.0 288.1 202.5 Q289.9 201.1 291.95 199.95 L276.6 195.95 276.6 196.2 Q282.15 197.95 287.7 200.0 L287.85 202.2 288.1 202.5 287.85 202.45 288.15 206.2 283.15 207.45 273.85 201.2 274.85 196.1 272.8 187.85 272.55 182.9 274.6 182.75 278.65 179.5 280.35 180.85 Q282.1 179.95 283.9 179.3 L281.3 177.45 284.4 174.9 M251.5 189.45 L259.65 203.45 252.3 202.35 250.85 202.25 250.6 202.25 245.9 201.5 Q232.6 205.95 219.55 210.5 L208.05 208.65 Q207.55 208.35 207.05 208.35 L213.15 200.55 Q217.45 198.25 221.55 195.75 L221.5 196.5 221.8 196.0 221.55 195.75 218.2 189.15 219.55 187.3 221.2 187.85 226.7 186.9 Q227.9 187.2 228.9 187.8 231.55 188.85 231.8 189.15 240.8 195.5 250.1 201.75 L256.0 202.8 251.15 201.55 246.6 198.35 238.15 190.2 233.75 189.0 Q233.0 188.7 232.6 188.2 L228.2 186.5 247.65 182.6 271.85 182.85 271.1 188.25 273.65 196.05 272.9 200.65 249.3 185.4 251.5 189.45 M250.6 202.25 L250.85 202.25 250.6 202.25" fill="#ffaa91" fill-rule="evenodd" stroke="none"/>
    <path d="M196.6 172.75 L197.6 173.05 222.35 180.5 Q220.45 183.1 218.9 185.75 L218.3 186.7 194.15 177.5 Q195.2 175.1 196.6 172.75 M268.2 162.9 Q269.7 163.5 270.85 164.3 278.0 169.35 284.4 174.9 L281.3 177.45 274.2 171.4 263.9 164.9 Q265.95 163.8 268.2 162.9 M271.85 182.85 L247.65 182.6 228.2 186.5 224.8 185.3 221.9 184.45 223.95 182.3 225.05 180.9 Q225.05 180.65 225.3 180.65 L225.35 180.15 249.0 176.25 260.6 166.75 278.65 179.5 274.6 182.75 272.55 182.9 271.85 182.85 M226.7 186.9 L221.2 187.85 219.55 187.3 Q219.55 186.8 219.85 186.55 L219.85 186.3 220.1 186.05 220.35 185.8 221.9 184.45 221.9 184.7 Q224.8 185.8 226.7 186.9" fill="#ffe0c7" fill-rule="evenodd" stroke="none"/>
    <path d="M278.65 179.5 L260.6 166.75 262.15 165.55 Q262.95 165.1 263.9 164.9 L274.2 171.4 281.3 177.45 278.65 179.5" fill="#fffbe2" fill-rule="evenodd" stroke="none"/>
    <path d="M281.3 177.45 L283.9 179.3 Q282.1 179.95 280.35 180.85 L278.65 179.5 281.3 177.45 M290.2 190.75 L284.2 182.75 287.2 182.15 297.35 190.9 290.2 190.75 M263.9 164.9 Q262.95 165.1 262.15 165.55 L260.6 166.75 252.5 161.6 261.0 163.55 263.9 164.9" fill="#ffe0c7" fill-rule="evenodd" stroke="none"/>
    <path d="M187.25 167.55 Q189.6 164.45 192.3 161.4 L219.05 148.75 221.55 148.9 224.75 149.05 214.25 156.1 197.6 173.05 196.6 172.75 196.1 172.7 187.25 167.55 M194.15 177.5 Q190.65 183.25 187.35 189.3 L184.3 199.2 176.85 191.7 Q175.75 188.7 174.95 185.9 L179.35 176.5 193.65 177.5 194.15 177.5 M174.4 187.1 L175.3 192.8 184.05 199.95 182.85 204.6 169.15 202.1 172.4 190.95 174.4 187.1" fill="#ea957c" fill-rule="evenodd" stroke="none"/>
    <path d="M179.35 176.5 L187.25 167.55 196.1 172.7 196.6 172.75 Q195.2 175.1 194.15 177.5 L193.65 177.5 179.35 176.5" fill="#eacbb2" fill-rule="evenodd" stroke="none"/>
    <path d="M185.6 166.5 L185.35 166.0 185.15 165.7 Q184.9 165.45 184.65 165.7 L184.35 165.95 184.15 165.65 169.3 166.85 Q189.35 151.6 214.65 148.75 L219.05 148.75 192.3 161.4 Q189.6 164.45 187.25 167.55 L185.6 166.5 M169.15 174.5 L167.4 179.05 167.35 179.3 166.8 180.55 167.05 180.3 166.55 181.05 Q166.3 181.0 166.0 181.25 162.15 185.45 158.45 190.0 L155.9 195.25 151.35 193.05 Q151.75 189.9 152.45 186.45 L158.4 176.15 Q159.95 174.5 162.05 172.85 L169.15 174.5 M160.0 197.5 L161.35 190.65 167.0 182.0 Q167.0 181.8 167.25 181.8 L167.5 181.35 168.05 181.1 168.3 180.35 174.0 184.4 Q174.25 184.4 174.5 184.65 L174.1 183.15 168.6 179.4 168.65 179.15 171.3 175.1 171.55 175.15 171.55 174.9 177.15 176.1 179.35 176.5 174.95 185.9 174.4 187.1 172.4 190.95 169.15 202.1 182.85 204.6 184.0 205.15 186.7 206.75 172.2 204.3 169.15 202.1 Q164.6 199.95 160.0 197.5 M194.6 205.95 L206.8 208.05 207.05 208.1 207.05 208.35 207.3 208.6 Q207.3 208.85 207.8 208.85 207.8 208.6 208.05 208.65 L219.55 210.5 Q232.6 205.95 245.9 201.5 L250.6 202.25 250.85 202.25 252.3 202.35 259.65 203.45 256.25 207.45 246.45 205.95 221.35 214.0 195.9 209.7 194.6 205.95 M294.35 205.0 L291.75 208.35 280.5 210.25 283.15 207.45 288.15 206.2 288.9 206.0 294.35 205.0 M250.6 202.25 L250.85 202.25 250.6 202.25 M221.35 214.0 L219.55 210.5 221.35 214.0" fill="#b76249" fill-rule="evenodd" stroke="none"/>
    <path d="M186.25 201.05 Q187.85 197.7 189.8 194.35 L199.85 181.8 Q197.8 187.1 196.05 192.45 L191.65 196.65 186.7 206.75 184.0 205.15 Q184.85 203.45 185.95 201.8 L185.95 201.55 186.25 201.05 M280.5 210.25 L251.5 189.45 249.3 185.4 272.9 200.65 273.85 201.2 283.15 207.45 280.5 210.25" fill="#943f26" fill-rule="evenodd" stroke="none"/>
    <path d="M302.05 190.9 L297.25 197.05 291.8 197.75 289.45 190.7 290.2 190.75 297.35 190.9 Q299.6 190.75 302.05 190.9" fill="#d27d64" fill-rule="evenodd" stroke="none"/>
    <path d="M184.35 165.95 Q181.35 167.2 178.3 168.8 L171.3 170.65 171.05 170.65 Q170.8 170.6 170.75 170.85 L170.2 172.55 169.9 172.8 Q169.4 173.5 169.15 174.5 L162.05 172.85 Q165.45 169.6 169.3 166.85 L184.15 165.65 184.35 165.95 M171.55 174.9 L172.15 173.15 Q175.45 171.35 178.75 169.8 L179.0 169.6 185.1 166.7 185.6 166.5 187.25 167.55 179.35 176.5 177.15 176.1 171.55 174.9" fill="#b7987f" fill-rule="evenodd" stroke="none"/>
    <path d="M184.35 165.95 L184.65 165.7 Q184.9 165.45 185.15 165.7 L185.35 166.0 185.6 166.5 185.1 166.7 179.0 169.6 178.75 169.8 Q175.45 171.35 172.15 173.15 L171.55 174.9 171.55 175.15 171.3 175.1 168.65 179.15 168.6 179.4 174.1 183.15 174.5 184.65 Q174.25 184.4 174.0 184.4 L168.3 180.35 168.05 181.1 167.5 181.35 167.25 181.8 Q167.0 181.8 167.0 182.0 L161.35 190.65 160.0 197.5 159.75 197.7 159.2 197.9 Q159.0 197.7 158.75 197.65 158.5 197.4 158.75 197.15 L158.75 196.9 Q157.85 196.35 157.1 196.1 156.85 196.05 156.6 196.3 L156.1 196.25 Q155.85 196.0 155.9 195.75 155.65 195.5 155.9 195.25 L158.45 190.0 Q162.15 185.45 166.0 181.25 166.3 181.0 166.55 181.05 L167.05 180.3 166.8 180.55 167.35 179.3 167.4 179.05 169.15 174.5 Q169.4 173.5 169.9 172.8 L170.2 172.55 170.75 170.85 Q170.8 170.6 171.05 170.65 L171.3 170.65 178.3 168.8 Q181.35 167.2 184.35 165.95 M184.3 199.2 L186.25 201.05 185.95 201.55 184.05 199.95 175.3 192.8 174.4 187.1 174.95 185.9 Q175.75 188.7 176.85 191.7 L184.3 199.2 M207.05 208.1 L207.1 207.85 Q207.1 207.6 207.35 207.6 L212.0 199.45 Q212.0 199.2 212.25 199.25 215.8 197.65 219.05 196.4 L219.35 196.15 220.3 195.7 216.9 189.6 216.95 189.1 216.95 188.85 Q217.5 187.7 218.3 186.7 L218.9 185.75 Q220.45 183.1 222.35 180.5 L225.4 174.5 219.8 163.85 217.0 160.2 Q216.8 159.95 217.05 159.7 217.05 159.45 217.3 159.5 217.55 159.25 217.8 159.5 L218.05 159.8 219.8 163.6 219.8 163.85 226.95 173.6 227.15 173.85 227.15 174.1 225.35 180.15 225.3 180.65 Q225.05 180.65 225.05 180.9 L223.95 182.3 221.9 184.45 224.8 185.3 228.2 186.5 232.6 188.2 Q233.0 188.7 233.75 189.0 L238.15 190.2 246.6 198.35 251.15 201.55 256.0 202.8 250.1 201.75 Q240.8 195.5 231.8 189.15 231.55 188.85 228.9 187.8 227.9 187.2 226.7 186.9 224.8 185.8 221.9 184.7 L221.9 184.45 220.35 185.8 220.1 186.05 219.85 186.3 219.85 186.55 Q219.55 186.8 219.55 187.3 L218.2 189.15 221.55 195.75 221.8 196.0 221.5 196.5 221.55 195.75 Q217.45 198.25 213.15 200.55 L207.05 208.35 Q207.55 208.35 208.05 208.65 207.8 208.6 207.8 208.85 207.3 208.85 207.3 208.6 L207.05 208.35 207.05 208.1 M272.55 182.9 L272.8 187.85 274.85 196.1 273.85 201.2 272.9 200.65 273.65 196.05 271.1 188.25 271.85 182.85 272.55 182.9 M288.15 206.2 L287.85 202.45 288.1 202.5 287.85 202.2 287.7 200.0 Q282.15 197.95 276.6 196.2 L276.6 195.95 291.95 199.95 Q289.9 201.1 288.1 202.5 L288.9 206.0 288.15 206.2" fill="#943f26" fill-rule="evenodd" stroke="none"/>
    <path d="M157.1 196.1 Q157.85 196.35 158.75 196.9 M219.05 148.75 L214.65 148.75 Q189.35 151.6 169.3 166.85 165.45 169.6 162.05 172.85 159.95 174.5 158.4 176.15 L152.45 186.45 Q151.75 189.9 151.35 193.05 L155.9 195.25 M224.75 149.05 L221.55 148.9 M186.25 201.05 Q187.85 197.7 189.8 194.35 L199.85 181.8 Q197.8 187.1 196.05 192.45 L194.6 205.95 206.8 208.05 M185.95 201.55 L186.25 201.05 M169.15 202.1 L172.2 204.3 186.7 206.75 184.0 205.15 182.85 204.6 169.15 202.1 Q164.6 199.95 160.0 197.5 M184.0 205.15 Q184.85 203.45 185.95 201.8 L185.95 201.55 M268.2 162.9 Q269.7 163.5 270.85 164.3 278.0 169.35 284.4 174.9 293.85 182.5 302.05 190.9 L297.25 197.05 291.8 197.75 292.45 199.75 292.65 200.25 294.35 205.0 291.75 208.35 280.5 210.25 251.5 189.45 259.65 203.45 256.25 207.45 246.45 205.95 221.35 214.0 195.9 209.7 194.6 205.95 M273.85 201.2 L283.15 207.45 288.15 206.2 288.9 206.0 294.35 205.0 M207.05 208.35 Q207.55 208.35 208.05 208.65 L219.55 210.5 Q232.6 205.95 245.9 201.5 L250.6 202.25 250.85 202.25 M252.3 202.35 L259.65 203.45 M291.8 197.75 L289.45 190.7 290.2 190.75 297.35 190.9 Q299.6 190.75 302.05 190.9 M268.2 162.9 Q248.1 151.0 224.75 149.05 M272.9 200.65 L249.3 185.4 251.5 189.45 M273.85 201.2 L272.9 200.65 M280.5 210.25 L283.15 207.45 M186.7 206.75 L191.65 196.65 196.05 192.45 M219.55 210.5 L221.35 214.0" fill="none" stroke="#000000" stroke-linecap="round" stroke-linejoin="round" stroke-opacity="0.3019608" stroke-width="0.05"/>
    <path d="M270.7 177.5 Q295.85 162.7 294.6 180.2 285.5 173.3 268.7 179.75 L269.95 177.75 Q270.45 177.5 270.7 177.5" fill="#ffff81" fill-rule="evenodd" stroke="none"/>
    <path d="M270.7 177.5 Q295.85 162.7 294.6 180.2 285.5 173.3 268.7 179.75 L269.95 177.75 Q270.45 177.5 270.7 177.5 Z" fill="none" stroke="#000000" stroke-linecap="round" stroke-linejoin="round" stroke-opacity="0.3019608" stroke-width="0.05"/>
    <path d="M212.7 181.45 Q219.9 180.2 228.75 180.45 L230.0 180.45 231.7 181.45 Q224.05 182.7 217.15 184.65 L212.7 181.45 M206.8 188.35 Q194.95 193.05 185.35 200.45 187.35 192.05 195.45 187.35 L206.8 188.35" fill="#a1a10d" fill-rule="evenodd" stroke="none"/>
    <path d="M212.7 181.45 L217.15 184.65 Q211.75 186.15 206.8 188.35 L195.45 187.35 Q201.9 183.2 212.7 181.45" fill="#dfdf4b" fill-rule="evenodd" stroke="none"/>
    <path d="M217.15 184.65 Q224.05 182.7 231.7 181.45 L230.0 180.45 228.75 180.45 Q219.9 180.2 212.7 181.45 201.9 183.2 195.45 187.35 187.35 192.05 185.35 200.45 194.95 193.05 206.8 188.35 211.75 186.15 217.15 184.65 Z" fill="none" stroke="#000000" stroke-linecap="round" stroke-linejoin="round" stroke-opacity="0.3019608" stroke-width="0.05"/>
    <path d="M236.9 158.3 L230.5 158.05 Q224.1 149.4 218.4 142.5 222.1 140.75 226.05 139.05 231.75 147.45 236.9 158.3 M188.1 115.85 L193.0 111.7 Q196.45 112.65 199.9 114.4 L194.0 119.3 188.1 115.85" fill="#dfdf4b" fill-rule="evenodd" stroke="none"/>
    <path d="M230.5 158.05 L236.9 158.3 Q240.6 165.9 244.3 175.05 L242.35 175.3 230.5 158.05" fill="#c4c430" fill-rule="evenodd" stroke="none"/>
    <path d="M188.1 115.85 L187.35 115.4 Q180.95 111.9 175.0 111.45 184.4 109.45 193.0 111.7 L188.1 115.85" fill="#a1a10d" fill-rule="evenodd" stroke="none"/>
    <path d="M226.05 139.05 Q222.1 140.75 218.4 142.5 205.35 126.95 194.0 119.3 L199.9 114.4 Q213.75 120.8 226.05 139.05" fill="#ffff81" fill-rule="evenodd" stroke="none"/>
    <path d="M230.5 158.05 L242.35 175.3 244.3 175.05 Q240.6 165.9 236.9 158.3 231.75 147.45 226.05 139.05 213.75 120.8 199.9 114.4 196.45 112.65 193.0 111.7 184.4 109.45 175.0 111.45 180.95 111.9 187.35 115.4 M218.4 142.5 Q224.1 149.4 230.5 158.05 M218.4 142.5 Q205.35 126.95 194.0 119.3 L188.1 115.85" fill="none" stroke="#000000" stroke-linecap="round" stroke-linejoin="round" stroke-opacity="0.3019608" stroke-width="0.05"/>
    <path d="M251.2 116.85 L250.95 116.6 Q248.5 110.95 244.8 111.7 L254.9 109.45 Q258.6 109.2 260.1 114.9 L251.2 116.85" fill="#a1a10d" fill-rule="evenodd" stroke="none"/>
    <path d="M251.2 116.85 L260.1 114.9 Q262.05 121.8 261.05 137.3 L254.65 142.0 Q254.15 124.25 251.2 116.85" fill="#ffff81" fill-rule="evenodd" stroke="none"/>
    <path d="M254.9 143.25 L254.65 142.0 261.05 137.3 259.35 152.35 254.9 156.8 254.9 143.25" fill="#dfdf4b" fill-rule="evenodd" stroke="none"/>
    <path d="M259.35 152.35 Q258.35 160.75 256.65 170.85 L256.4 172.1 254.65 173.55 254.9 156.8 259.35 152.35" fill="#c4c430" fill-rule="evenodd" stroke="none"/>
    <path d="M260.1 114.9 Q258.6 109.2 254.9 109.45 L244.8 111.7 Q248.5 110.95 250.95 116.6 M254.65 142.0 Q254.15 124.25 251.2 116.85 M259.35 152.35 Q258.35 160.75 256.65 170.85 L256.4 172.1 254.65 173.55 254.9 156.8 254.9 143.25 M259.35 152.35 L261.05 137.3 Q262.05 121.8 260.1 114.9" fill="none" stroke="#000000" stroke-linecap="round" stroke-linejoin="round" stroke-opacity="0.3019608" stroke-width="0.05"/>
    <path d="M251.1 186.8 L243.95 182.75 240.7 174.9 Q236.85 171.45 231.35 172.05 233.65 169.85 236.95 170.0 241.25 169.5 249.5 178.15 L249.3 174.65 Q251.25 170.15 254.6 169.5 L256.4 171.5 Q259.3 178.0 259.15 180.25 257.45 180.8 255.75 181.6 L252.65 184.95 252.85 185.75 251.1 186.8 M259.8 170.35 Q262.8 171.75 263.85 173.85 L265.1 176.5 Q265.45 177.8 265.15 179.45 264.75 181.45 263.2 183.7 L262.85 177.5 259.8 170.35 M269.4 165.55 Q270.6 164.7 272.3 164.35 278.6 170.1 277.85 177.7 L276.4 181.0 273.6 169.25 Q271.35 167.5 269.4 165.55 M250.65 179.3 L243.3 177.95 247.95 180.2 252.45 183.95 Q252.4 184.45 252.65 184.95 252.4 184.45 252.45 183.95 251.5 180.85 250.65 179.3 L249.5 178.15 250.65 179.3" fill="#bec430" fill-rule="evenodd" stroke="none"/>
    <path d="M248.85 188.25 Q246.95 185.05 240.5 184.8 L235.05 187.9 230.85 172.5 231.35 172.05 Q236.85 171.45 240.7 174.9 L243.95 182.75 251.1 186.8 248.85 188.25 M256.4 171.5 Q257.6 170.6 258.85 170.0 259.3 170.05 259.8 170.35 L262.85 177.5 263.2 183.7 263.2 183.95 263.15 184.2 253.0 186.0 252.85 185.75 252.65 184.95 255.75 181.6 Q257.45 180.8 259.15 180.25 259.3 178.0 256.4 171.5 M263.85 173.85 Q265.65 167.85 269.4 165.55 271.35 167.5 273.6 169.25 L276.4 181.0 275.6 182.7 Q268.5 185.8 264.55 184.65 266.6 182.6 268.8 180.9 L274.15 172.55 268.75 177.9 265.15 179.45 Q265.45 177.8 265.1 176.5 L263.85 173.85" fill="#9ba10d" fill-rule="evenodd" stroke="none"/>
    <path d="M230.85 172.5 L235.05 187.9 240.5 184.8 Q246.95 185.05 248.85 188.25 241.2 192.35 233.55 189.25 L228.7 176.75 Q229.55 174.05 230.85 172.5 M264.55 184.65 L263.4 184.0 263.2 183.7 Q264.75 181.45 265.15 179.45 L268.75 177.9 274.15 172.55 268.8 180.9 Q266.6 182.6 264.55 184.65 M252.45 183.95 L247.95 180.2 243.3 177.95 250.65 179.3 Q251.5 180.85 252.45 183.95" fill="#787e00" fill-rule="evenodd" stroke="none"/>
    <path d="M230.85 172.5 Q229.55 174.05 228.7 176.75 L233.55 189.25 Q241.2 192.35 248.85 188.25 L251.1 186.8 252.85 185.75 252.8 186.0 253.0 186.0 263.15 184.2 M231.35 172.05 L230.85 172.5 M231.35 172.05 Q233.65 169.85 236.95 170.0 M249.5 178.15 L249.3 174.65 Q251.25 170.15 254.6 169.5 L256.4 171.5 Q257.6 170.6 258.85 170.0 259.3 170.05 259.8 170.35 262.8 171.75 263.85 173.85 L265.1 176.5 Q265.45 177.8 265.15 179.45 264.75 181.45 263.2 183.7 M263.4 184.0 L263.2 183.95 M250.65 179.3 L249.5 178.15 M252.65 184.95 L252.85 185.75 M252.65 184.95 Q252.4 184.45 252.45 183.95 251.5 180.85 250.65 179.3 M256.4 171.5 Q259.3 178.0 259.15 180.25" fill="none" stroke="#000000" stroke-linecap="round" stroke-linejoin="round" stroke-opacity="0.3019608" stroke-width="0.05"/>
    <path d="M236.95 170.0 Q241.25 169.5 249.5 178.15 M263.85 173.85 Q265.65 167.85 269.4 165.55 270.6 164.7 272.3 164.35 278.6 170.1 277.85 177.7 L276.4 181.0 M275.6 182.7 Q268.5 185.8 264.55 184.65 L263.4 184.0" fill="none" stroke="#000000" stroke-linecap="round" stroke-linejoin="round" stroke-opacity="0.3019608" stroke-width="0.05"/>
  </g>
</svg>
