<?xml version="1.0" encoding="UTF-8" standalone="no"?>
<svg xmlns:xlink="http://www.w3.org/1999/xlink" height="287.1px" width="320.85px" xmlns="http://www.w3.org/2000/svg">
  <g transform="matrix(1.0, 0.0, 0.0, 1.0, 0.0, 0.0)">
    <path d="M180.75 39.75 Q166.05 93.7 130.45 108.05 93.15 122.25 45.15 89.45 L70.55 201.75 Q130.1 138.0 200.45 141.95 245.25 138.0 283.75 155.55 281.55 110.9 278.55 66.6 234.85 143.0 180.75 39.75" fill="#626f8a" fill-rule="evenodd" stroke="none"/>
    <path d="M180.75 39.75 Q166.05 93.7 130.45 108.05 93.15 122.25 45.15 89.45" fill="none" stroke="#7a84a3" stroke-linecap="round" stroke-linejoin="round" stroke-width="0.05"/>
    <path d="M278.55 66.6 Q234.85 143.0 180.75 39.75" fill="none" stroke="#7a84a3" stroke-linecap="round" stroke-linejoin="round" stroke-width="0.05"/>
    <path d="M212.9 47.5 Q213.4 15.85 179.1 0.65 L174.15 2.7 Q168.45 4.95 164.3 9.15 160.25 46.35 195.55 61.95 196.25 61.65 197.7 61.1 207.65 57.05 212.9 47.5" fill="#979eb7" fill-rule="evenodd" stroke="none"/>
    <path d="M179.1 0.65 Q213.4 15.85 212.9 47.5 214.0 46.2 214.9 44.2 220.0 32.2 214.4 20.4 210.25 8.0 198.25 2.9 188.2 -1.35 179.1 0.65" fill="#ffffff" fill-rule="evenodd" stroke="none"/>
    <path d="M195.55 61.95 Q160.25 46.35 164.3 9.15 159.45 13.6 156.95 19.55 151.85 31.55 155.95 43.95 161.6 55.75 173.6 60.85 184.55 65.55 195.55 61.95" fill="#626f8a" fill-rule="evenodd" stroke="none"/>
    <path d="M179.1 0.65 Q188.2 -1.35 198.25 2.9 210.25 8.0 214.4 20.4 220.0 32.2 214.9 44.2 214.0 46.2 212.9 47.5 207.65 57.05 197.7 61.1 196.25 61.65 195.55 61.95 184.55 65.55 173.6 60.85 161.6 55.75 155.95 43.95 151.85 31.55 156.95 19.55 159.45 13.6 164.3 9.15 168.45 4.95 174.15 2.7 L179.1 0.65 Z" fill="none" stroke="#7a84a3" stroke-linecap="round" stroke-linejoin="round" stroke-width="0.05"/>
    <path d="M141.05 130.25 Q132.55 180.9 106.7 188.85 L99.75 190.0 Q92.8 199.45 71.4 195.6 51.6 158.9 36.7 87.05 32.7 85.35 28.95 84.35 59.05 165.0 50.2 219.1 L48.35 228.95 Q57.65 301.35 192.1 283.6 231.85 273.4 255.95 261.2 313.65 233.8 311.95 190.6 L305.35 174.2 Q290.0 134.0 294.7 84.1 288.75 85.7 283.05 88.0 297.9 155.7 270.45 180.0 244.2 188.9 236.35 179.7 230.75 180.25 225.65 179.8 212.4 177.75 197.5 165.5 L229.85 204.65 Q190.9 200.45 160.45 129.05 L141.05 130.25 M50.2 219.1 Q77.3 284.35 186.8 268.35 307.25 240.5 305.35 174.2 307.25 240.5 186.8 268.35 77.3 284.35 50.2 219.1" fill="#d7d9e3" fill-rule="evenodd" stroke="none"/>
    <path d="M283.05 88.0 Q278.5 88.95 273.5 90.95 286.65 150.3 251.3 173.65 244.05 178.2 236.35 179.7 244.2 188.9 270.45 180.0 297.9 155.7 283.05 88.0" fill="#979eb7" fill-rule="evenodd" stroke="none"/>
    <path d="M99.75 190.0 L97.3 190.15 Q62.5 190.1 48.1 90.7 L36.7 87.05 Q51.6 158.9 71.4 195.6 92.8 199.45 99.75 190.0 M197.5 165.5 Q182.35 152.55 166.3 129.2 L160.45 129.05 Q190.9 200.45 229.85 204.65 L197.5 165.5" fill="#ffffff" fill-rule="evenodd" stroke="none"/>
    <path d="M141.05 130.25 Q132.55 180.9 106.7 188.85 L99.75 190.0 97.3 190.15 Q62.5 190.1 48.1 90.7 M28.95 84.35 Q59.05 165.0 50.2 219.1 L48.35 228.95 Q57.65 301.35 192.1 283.6 231.85 273.4 255.95 261.2 M273.5 90.95 Q286.65 150.3 251.3 173.65 244.05 178.2 236.35 179.7 230.75 180.25 225.65 179.8 212.4 177.75 197.5 165.5 182.35 152.55 166.3 129.2 M305.35 174.2 Q307.25 240.5 186.8 268.35 77.3 284.35 50.2 219.1" fill="none" stroke="#7a84a3" stroke-linecap="round" stroke-linejoin="round" stroke-width="0.05"/>
    <path d="M255.95 261.2 Q313.65 233.8 311.95 190.6 L305.35 174.2 Q290.0 134.0 294.7 84.1" fill="none" stroke="#7a84a3" stroke-linecap="round" stroke-linejoin="round" stroke-width="0.05"/>
    <path d="M301.4 90.5 Q322.75 61.15 304.35 50.4 277.35 34.8 276.3 30.25 258.9 79.45 295.0 93.1 L299.3 91.35 301.4 90.5" fill="#d7d9e3" fill-rule="evenodd" stroke="none"/>
    <path d="M276.3 30.25 L274.35 29.35 Q261.2 33.85 256.0 47.5 250.45 60.55 255.65 73.35 260.5 85.45 273.5 90.95 284.5 95.65 295.0 93.1 258.9 79.45 276.3 30.25" fill="#979eb7" fill-rule="evenodd" stroke="none"/>
    <path d="M274.35 29.35 L276.3 30.25 Q277.35 34.8 304.35 50.4 322.75 61.15 301.4 90.5 312.55 85.15 316.95 73.45 323.15 60.2 317.6 48.35 313.1 35.3 299.45 30.0 287.85 23.9 275.75 28.8 L274.35 29.35" fill="#ffffff" fill-rule="evenodd" stroke="none"/>
    <path d="M274.35 29.35 L275.75 28.8 Q287.85 23.9 299.45 30.0 313.1 35.3 317.6 48.35 323.15 60.2 316.95 73.45 312.55 85.15 301.4 90.5 L299.3 91.35 295.0 93.1 Q284.5 95.65 273.5 90.95 260.5 85.45 255.65 73.35 250.45 60.55 256.0 47.5 261.2 33.85 274.35 29.35 Z" fill="none" stroke="#7a84a3" stroke-linecap="round" stroke-linejoin="round" stroke-width="0.05"/>
    <path d="M52.3 47.65 L48.2 55.95 Q44.0 47.7 22.35 51.4 L18.35 45.6 17.65 45.9 Q13.35 47.6 9.95 51.45 7.2 98.1 44.0 107.3 L46.15 106.45 Q58.95 101.25 63.8 88.55 67.95 80.25 67.45 73.0 62.9 74.0 58.6 75.75 L54.9 66.5 Q59.3 63.0 63.35 60.6 59.9 52.05 52.3 47.65" fill="#d7d9e3" fill-rule="evenodd" stroke="none"/>
    <path d="M44.0 107.3 Q7.2 98.1 9.95 51.45 5.8 55.65 2.85 62.6 -2.7 75.65 2.5 88.45 7.35 100.55 20.35 106.05 33.05 110.85 44.0 107.3" fill="#979eb7" fill-rule="evenodd" stroke="none"/>
    <path d="M18.35 45.6 L22.35 51.4 Q44.0 47.7 48.2 55.95 L52.3 47.65 Q50.0 46.1 46.3 45.1 33.7 38.55 21.2 44.45 L18.35 45.6 M63.35 60.6 Q59.3 63.0 54.9 66.5 L58.6 75.75 Q62.9 74.0 67.45 73.0 66.9 67.4 64.5 63.45 L63.35 60.6" fill="#ffffff" fill-rule="evenodd" stroke="none"/>
    <path d="M18.35 45.6 L21.2 44.45 Q33.7 38.55 46.3 45.1 50.0 46.1 52.3 47.65 59.9 52.05 63.35 60.6 L64.5 63.45 Q66.9 67.4 67.45 73.0 67.95 80.25 63.8 88.55 58.95 101.25 46.15 106.45 L44.0 107.3 Q33.05 110.85 20.35 106.05 7.35 100.55 2.5 88.45 -2.7 75.65 2.85 62.6 5.8 55.65 9.95 51.45 13.35 47.6 17.65 45.9" fill="none" stroke="#7a84a3" stroke-linecap="round" stroke-linejoin="round" stroke-width="0.05"/>
    <path d="M17.65 45.9 L18.35 45.6" fill="none" stroke="#7a84a3" stroke-linecap="round" stroke-linejoin="round" stroke-width="0.05"/>
    <path d="M145.3 146.8 Q154.85 147.95 163.4 144.5 177.65 138.75 183.6 124.7 190.0 109.75 184.55 96.2 180.5 86.2 172.35 80.45 192.0 106.45 165.0 99.1 132.95 95.45 134.1 75.95 105.7 112.25 145.3 146.8" fill="#d7d9e3" fill-rule="evenodd" stroke="none"/>
    <path d="M134.1 75.95 L132.7 76.55 Q121.2 82.8 115.65 95.8 109.7 109.8 115.45 124.05 120.9 137.6 135.15 144.25 140.9 146.15 145.3 146.8 105.7 112.25 134.1 75.95" fill="#979eb7" fill-rule="evenodd" stroke="none"/>
    <path d="M172.35 80.45 Q168.8 77.7 164.1 76.25 149.8 69.65 135.55 75.4 L134.1 75.95 Q132.95 95.45 165.0 99.1 192.0 106.45 172.35 80.45" fill="#ffffff" fill-rule="evenodd" stroke="none"/>
    <path d="M172.35 80.45 Q168.8 77.7 164.1 76.25 149.8 69.65 135.55 75.4 L134.1 75.95 M132.7 76.55 Q121.2 82.8 115.65 95.8 109.7 109.8 115.45 124.05 120.9 137.6 135.15 144.25 140.9 146.15 145.3 146.8 154.85 147.95 163.4 144.5 177.65 138.75 183.6 124.7 190.0 109.75 184.55 96.2 180.5 86.2 172.35 80.45" fill="none" stroke="#7a84a3" stroke-linecap="round" stroke-linejoin="round" stroke-width="0.05"/>
    <path d="M150.65 259.3 Q160.6 273.65 172.25 274.15 184.6 274.45 191.8 260.9 199.7 247.2 197.9 228.0 196.75 208.55 186.8 194.2 176.85 179.8 164.5 179.55 152.85 179.05 144.95 192.75 137.1 206.45 138.9 225.7 140.7 244.9 150.65 259.3" fill="#5a667e" fill-rule="evenodd" stroke="none"/>
    <path d="M152.75 256.0 Q161.25 268.2 170.8 268.65 180.4 269.1 186.65 257.75 193.4 245.65 192.3 229.4 190.95 212.6 183.1 200.15 175.25 187.75 165.05 187.5 155.25 186.45 149.15 198.4 143.05 210.35 143.6 226.75 144.7 243.0 152.75 256.0" fill="#b1cbe4" fill-rule="evenodd" stroke="none"/>
    <path d="M172.55 214.0 Q174.65 217.9 177.1 221.0 179.6 224.15 181.25 216.0 183.45 207.75 181.05 202.65 178.6 197.65 174.8 194.9 171.4 191.45 168.75 192.2 166.15 192.95 165.35 196.95 165.2 200.85 168.1 205.1 171.7 209.2 172.55 214.0" fill="#ffffff" fill-rule="evenodd" stroke="none"/>
    <path d="M178.65 235.95 Q180.75 237.0 183.35 236.25 185.95 235.5 187.55 233.4 188.6 231.45 187.85 229.2 187.1 226.95 185.0 225.9 L179.8 225.75 Q177.2 226.5 176.1 228.45 174.55 230.55 175.3 232.8 176.05 235.05 178.65 235.95" fill="#ffffff" fill-rule="evenodd" stroke="none"/>
    <path d="M313.85 197.3 Q319.8 195.7 320.7 185.4 321.5 175.15 317.6 163.45 313.15 150.35 305.85 142.55 298.95 133.7 293.0 135.3 L290.9 136.15 Q315.8 177.45 313.85 197.3" fill="#ffffff" fill-rule="evenodd" stroke="none"/>
    <path d="M290.9 136.15 Q287.55 138.3 286.2 147.15 285.05 156.75 289.25 169.1 293.4 181.5 301.0 190.0 308.25 197.9 313.85 197.3 315.8 177.45 290.9 136.15" fill="#b1cbe4" fill-rule="evenodd" stroke="none"/>
    <path d="M290.9 136.15 Q287.55 138.3 286.2 147.15 285.05 156.75 289.25 169.1 293.4 181.5 301.0 190.0 308.25 197.9 313.85 197.3 319.8 195.7 320.7 185.4 321.5 175.15 317.6 163.45 313.15 150.35 305.85 142.55 298.95 133.7 293.0 135.3 L290.9 136.15 Z" fill="none" stroke="#7a84a3" stroke-linecap="round" stroke-linejoin="round" stroke-width="0.05"/>
    <path d="M51.0 235.3 Q56.55 234.75 60.1 225.0 64.3 215.05 64.0 201.9 63.4 188.05 58.65 178.4 54.35 167.7 48.5 167.55 43.4 167.15 39.4 177.85 35.85 187.55 36.5 201.4 36.8 214.5 41.1 225.2 45.8 234.9 51.0 235.3" fill="#b1cbe4" fill-rule="evenodd" stroke="none"/>
    <path d="M51.0 235.3 Q45.8 234.9 41.1 225.2 36.8 214.5 36.5 201.4 35.85 187.55 39.4 177.85 43.4 167.15 48.5 167.55 54.35 167.7 58.65 178.4 63.4 188.05 64.0 201.9 64.3 215.05 60.1 225.0 56.55 234.75 51.0 235.3 Z" fill="none" stroke="#7a84a3" stroke-linecap="round" stroke-linejoin="round" stroke-width="0.05"/>
  </g>
</svg>
