<?xml version="1.0" encoding="UTF-8" standalone="no"?>
<svg xmlns:xlink="http://www.w3.org/1999/xlink" height="44.5px" width="51.2px" xmlns="http://www.w3.org/2000/svg">
  <g transform="matrix(1.0, 0.0, 0.0, 1.0, 25.6, 22.25)">
    <path d="M8.9 -14.75 Q9.15 -13.7 10.1 -12.9 L10.9 -12.3 14.3 -12.4 15.55 -12.4 Q13.9 -11.7 12.75 -10.4 L12.1 -9.5 11.4 -10.05 8.55 -11.1 8.55 -11.55 Q8.75 -13.4 6.8 -13.35 L8.35 -14.5 8.55 -14.5 8.9 -14.75 M18.0 -8.0 L18.0 -7.75 18.45 -7.2 18.55 -7.05 18.65 -6.9 18.65 -6.85 19.15 -5.55 19.2 -5.35 19.2 -5.3 19.25 -4.65 18.2 -3.15 Q16.95 -6.3 14.15 -8.35 L14.15 -8.3 13.95 -8.3 13.8 -8.15 13.75 -8.1 13.65 -8.25 14.0 -8.55 14.05 -8.55 Q15.35 -9.4 16.9 -8.55 L17.0 -8.4 17.05 -8.35 17.6 -8.1 18.0 -7.75 17.6 -8.1 18.0 -8.0 M19.25 -3.5 L19.25 -3.4 18.55 -2.2 19.25 -3.5 M19.7 -1.0 L20.7 2.05 20.75 2.15 20.9 2.4 20.9 2.5 20.95 2.6 21.0 2.7 21.15 3.05 21.5 3.7 21.6 3.9 22.3 5.3 Q23.65 7.85 24.55 10.65 L24.65 11.05 25.1 13.3 Q25.2 14.95 24.9 16.6 L24.9 16.8 24.85 16.85 24.85 16.9 24.0 16.75 23.1 16.25 Q23.45 13.65 22.55 11.25 L21.7 9.45 Q20.7 7.85 20.25 6.0 L18.75 -0.1 19.6 0.0 19.7 -0.2 19.75 -0.35 19.7 -0.4 19.65 -0.5 19.65 -0.6 19.7 -1.0 M24.45 18.25 Q23.6 20.4 21.55 21.45 L21.15 21.6 22.05 18.0 22.45 18.25 23.8 18.2 24.45 18.25 M-1.85 13.9 L-2.0 13.95 -1.9 13.9 -1.85 13.9 M-19.6 -1.45 L-19.5 -1.8 -19.55 -1.6 -19.6 -1.45 M8.8 -15.5 L8.85 -15.25 8.65 -15.35 8.8 -15.5 M7.35 -12.6 L7.65 -12.25 7.75 -12.25 7.8 -12.05 7.35 -12.6 M-11.9 -9.2 L-11.75 -9.2 -6.5 -11.0 -5.1 -11.3 -4.05 -11.5 -4.15 -10.15 -4.3 -8.65 -4.7 -8.65 -4.8 -8.65 -9.1 -7.55 -10.0 -5.65 -10.35 -6.5 -10.9 -7.5 Q-11.3 -8.5 -11.9 -9.2 M-14.3 -8.65 L-14.25 -8.6 -14.15 -8.55 -14.1 -8.5 Q-13.35 -8.1 -12.65 -7.1 L-12.4 -6.65 -12.5 -6.55 -12.65 -6.35 -12.1 -5.45 -12.1 -5.4 -12.15 -5.35 -13.65 -3.55 -14.0 -2.45 -14.05 -2.05 -14.1 -1.3 -13.95 -0.05 -13.9 0.15 Q-13.75 0.9 -12.95 1.2 L-12.3 2.95 Q-13.65 2.9 -14.65 3.8 L-15.5 2.8 -15.45 2.8 -15.25 2.5 -15.25 2.35 Q-15.75 1.0 -15.75 -0.45 -15.8 -3.05 -16.65 -5.4 L-15.35 -6.7 Q-14.35 -7.55 -14.35 -8.6 L-14.3 -8.65 M-12.1 -5.45 L-12.1 -5.4 -12.1 -5.45 M-5.8 0.9 L-4.75 1.1 -4.7 1.15 -4.35 1.25 -3.45 1.7 -1.95 2.8 -1.55 3.25 Q-1.5 3.25 -1.4 3.35 L-1.35 3.4 Q-2.9 3.55 -4.25 4.05 L-4.55 4.1 Q-7.8 4.3 -9.7 5.8 -10.85 6.65 -11.25 7.65 L-11.45 5.7 Q-11.45 5.05 -11.05 4.65 -9.3 2.5 -6.7 1.3 L-6.4 1.3 -6.25 1.3 -5.85 0.95 -5.8 0.9 M1.35 3.4 L1.95 2.8 2.65 2.2 Q4.65 0.65 7.15 0.55 L8.4 0.65 9.15 0.85 10.2 1.25 Q11.4 1.85 12.25 2.8 L12.35 2.85 13.15 3.9 13.65 4.95 14.35 7.2 14.3 7.25 14.35 8.85 13.75 10.55 13.3 10.7 13.45 10.65 Q13.5 8.2 12.55 5.9 L12.1 5.4 11.4 5.1 Q9.15 3.0 5.95 2.95 L4.4 3.1 Q3.45 3.1 2.7 3.6 L1.35 3.4 M19.8 5.85 L18.4 2.0 19.35 3.55 Q19.85 4.2 19.85 5.05 L19.8 5.85 M17.75 -2.0 L17.65 -1.65 17.35 -3.0 17.75 -2.0 M-12.25 7.4 L-12.15 7.8 -12.05 8.3 -12.25 8.0 -12.25 7.9 -12.25 7.4 M11.05 10.35 L10.9 10.65 10.85 10.65 10.7 11.05 10.55 11.05 10.4 11.25 10.85 10.65 11.05 10.35" fill="#cef1f9" fill-rule="evenodd" stroke="none"/>
    <path d="M12.1 -9.5 L12.75 -10.4 Q13.9 -11.7 15.55 -12.4 L16.3 -12.1 17.1 -11.15 Q17.95 -9.85 18.0 -8.0 L17.6 -8.1 17.3 -8.3 17.6 -8.1 17.05 -8.35 17.0 -8.4 16.9 -8.55 16.95 -8.55 17.3 -8.3 15.5 -10.0 Q13.9 -10.65 13.0 -9.65 L12.6 -9.1 12.4 -8.55 11.9 -7.5 12.4 -6.75 Q12.1 -6.15 12.15 -5.5 12.1 -6.15 12.4 -6.75 L12.7 -7.15 13.65 -8.25 13.75 -8.1 17.05 -4.35 17.35 -3.0 17.65 -1.65 17.75 -2.0 17.8 -1.75 17.8 -1.4 17.9 -1.0 17.9 -0.5 18.4 2.0 19.8 5.85 Q19.4 7.85 16.9 7.35 L16.4 7.2 16.9 7.35 Q19.4 7.85 19.8 5.85 L22.35 12.85 22.4 16.5 22.35 16.7 Q23.3 17.45 24.45 17.75 L22.75 17.7 22.4 17.6 22.15 17.45 21.05 16.65 Q21.45 17.55 22.0 18.0 L22.05 18.0 21.15 21.6 21.0 21.65 Q20.3 21.05 20.55 20.55 L20.55 19.05 20.3 18.7 19.95 18.0 Q19.5 16.7 20.35 15.5 L16.55 9.7 16.5 9.05 16.2 7.8 15.95 7.1 16.4 7.2 Q16.25 6.05 15.75 5.1 L15.6 4.8 15.2 4.3 Q14.0 2.85 12.35 2.85 L13.0 1.1 Q13.75 0.8 13.95 0.05 L14.0 -0.35 14.1 -1.7 14.1 -1.9 14.05 -2.35 14.05 -2.45 14.0 -2.6 12.45 -5.25 12.4 -5.3 12.3 -5.35 12.15 -5.5 10.05 -5.65 9.15 -7.65 4.8 -8.75 4.3 -8.75 4.2 -10.25 4.05 -12.5 4.15 -13.0 Q5.05 -14.05 6.2 -14.65 L6.4 -14.8 7.2 -15.15 8.6 -15.55 8.8 -15.6 8.8 -15.5 8.65 -15.35 8.4 -15.45 6.65 -14.45 Q5.65 -13.85 5.3 -13.0 L7.05 -13.0 7.35 -12.6 7.8 -12.05 9.05 -10.45 12.25 -9.25 12.1 -9.5 M19.25 -4.65 L19.25 -4.6 19.25 -4.5 19.25 -3.5 18.55 -2.2 18.5 -2.25 18.2 -3.15 19.25 -4.65 M24.85 16.9 L24.85 16.95 24.85 17.0 24.0 16.75 24.85 16.9 M24.6 17.8 L24.45 18.25 23.8 18.2 24.45 17.85 24.55 17.8 24.6 17.8 M12.55 13.95 L12.4 14.1 12.35 14.15 12.3 14.2 12.25 14.25 12.2 14.3 12.15 14.35 12.0 14.45 10.5 15.15 9.55 15.4 9.45 15.45 6.3 15.35 Q4.5 15.05 2.9 14.25 L2.8 14.2 2.65 14.15 2.45 14.05 2.1 13.9 2.05 13.9 3.6 13.55 Q6.25 13.65 8.6 12.45 L8.85 12.35 10.4 11.25 10.55 11.05 10.7 11.05 10.85 10.65 10.9 10.65 11.05 10.35 11.2 10.05 11.2 10.0 11.45 9.25 Q11.7 7.65 10.5 6.4 L10.0 5.9 9.75 5.7 Q7.7 4.15 4.25 4.05 L3.4 3.75 3.3 3.75 Q3.85 3.45 4.65 3.45 7.3 3.0 9.65 4.15 L10.65 4.85 10.7 4.9 11.2 5.6 Q12.1 6.1 12.55 7.25 13.3 9.0 13.15 10.7 L13.2 10.7 13.3 10.7 13.75 10.55 14.35 8.85 14.3 7.25 14.35 7.2 14.4 7.5 14.4 8.75 14.4 8.8 14.35 9.85 14.35 9.95 14.35 10.0 14.25 10.4 14.0 11.4 13.85 11.95 Q13.35 13.15 12.55 13.95 M-2.0 13.95 L-2.9 14.35 -4.7 15.05 -6.25 15.45 -6.35 15.45 -6.8 15.5 -6.85 15.55 -7.05 15.55 -8.75 15.6 -9.4 15.5 Q-11.35 15.25 -12.5 14.05 -13.4 13.15 -13.9 11.8 L-14.0 11.5 -14.15 10.9 -14.35 10.0 -14.45 8.8 Q-14.45 6.9 -13.65 5.05 L-13.65 5.0 -13.1 4.0 -12.3 2.95 -12.2 2.8 -12.1 2.7 -12.05 2.65 -12.0 2.6 -11.85 2.45 -9.8 1.2 -9.5 1.05 -9.35 1.0 -9.3 1.0 -9.1 0.9 -9.05 0.9 -8.9 0.85 -8.75 0.8 -8.55 0.75 -7.5 0.65 -7.4 0.65 -7.15 0.65 -7.1 0.65 -7.05 0.65 -8.55 1.4 -8.6 1.45 -8.7 1.65 -9.4 1.95 -9.45 2.0 -9.7 2.2 -9.95 2.45 Q-12.0 4.3 -12.25 7.4 L-12.25 7.9 -12.25 8.0 -12.05 8.3 Q-11.85 9.2 -11.3 9.9 L-11.25 9.9 -11.2 10.0 Q-10.65 11.45 -8.8 12.45 L-8.6 12.55 -7.25 13.1 Q-5.4 13.75 -3.3 13.65 L-1.9 13.9 -2.0 13.95 M-16.5 9.75 L-20.3 15.6 Q-19.15 17.25 -20.55 19.15 L-20.55 20.65 Q-20.3 21.1 -20.95 21.75 L-21.5 21.55 Q-23.8 20.35 -24.6 17.8 L-24.85 17.0 -24.85 16.95 -24.85 16.9 Q-25.5 13.75 -24.5 10.75 L-24.3 10.0 -22.25 5.4 -21.0 2.8 -21.0 2.75 -20.95 2.65 -20.9 2.5 -20.85 2.4 -20.8 2.35 -19.6 -1.45 -19.55 -1.6 -19.5 -1.8 -19.4 -2.45 -19.2 -3.4 -19.2 -4.4 Q-19.25 -6.05 -18.35 -7.2 L-18.0 -7.65 Q-18.0 -8.9 -17.65 -9.9 L-16.7 -11.6 -16.5 -11.8 -16.4 -11.9 -16.25 -12.05 -15.55 -12.3 -14.85 -12.35 -12.2 -12.3 -10.85 -12.2 -10.05 -12.8 Q-8.95 -13.8 -8.8 -15.15 L-8.8 -15.5 -7.4 -15.15 -6.95 -14.95 -6.15 -14.55 -4.15 -12.9 -4.0 -12.4 -6.4 -11.9 -12.25 -9.45 -12.25 -9.4 -11.9 -9.2 Q-11.3 -8.5 -10.9 -7.5 L-10.35 -6.5 -10.0 -5.65 -10.05 -5.55 -12.1 -5.4 -12.1 -5.45 -12.65 -6.35 -12.5 -6.55 -12.4 -6.65 -12.35 -6.7 -11.85 -7.4 -12.35 -8.45 -12.6 -9.0 -12.7 -9.25 -13.2 -9.8 -15.45 -9.9 -17.3 -8.25 Q-15.7 -9.3 -14.3 -8.65 L-14.35 -8.6 -17.35 -5.4 -17.35 -5.35 -17.4 -4.95 -17.15 -4.25 -17.05 -3.65 Q-17.1 -0.75 -16.2 1.9 L-15.5 2.8 -14.65 3.8 -15.2 4.35 -15.65 5.0 Q-16.25 6.0 -16.35 7.3 L-15.95 7.2 -16.45 9.15 -16.5 9.75 M-12.1 -5.45 Q-12.1 -6.1 -12.4 -6.65 -12.1 -6.1 -12.1 -5.45 M-9.5 1.05 L-9.3 1.0 -9.5 1.05 M-8.55 0.75 L-8.9 0.85 -8.55 0.75 M-17.3 -8.25 L-18.0 -7.65 -17.3 -8.25 M21.05 16.65 L20.35 15.5 21.05 16.65 M-16.35 7.3 L-16.9 7.4 Q-19.9 8.0 -19.85 5.1 -19.85 4.3 -19.3 3.65 -17.85 1.7 -17.9 -0.1 -17.95 -1.8 -19.2 -3.4 -17.95 -1.8 -17.9 -0.1 -17.85 1.7 -19.3 3.65 -19.85 4.3 -19.85 5.1 -19.9 8.0 -16.9 7.4 L-16.35 7.3 M-21.05 16.7 L-20.3 15.6 -21.05 16.7 Q-22.65 18.3 -24.6 17.8 -22.2 19.45 -21.05 16.7" fill="#8ab6e1" fill-rule="evenodd" stroke="none"/>
    <path d="M8.9 -14.75 L8.55 -14.5 8.35 -14.5 6.8 -13.35 Q8.75 -13.4 8.55 -11.55 L8.55 -11.1 11.4 -10.05 12.1 -9.5 12.25 -9.25 9.05 -10.45 7.8 -12.05 7.75 -12.25 7.65 -12.25 7.35 -12.6 7.05 -13.0 5.3 -13.0 Q5.65 -13.85 6.65 -14.45 L8.4 -15.45 8.65 -15.35 8.85 -15.25 8.85 -15.15 8.9 -14.75 M19.25 -3.4 L19.4 -2.45 19.5 -2.05 19.5 -1.9 19.55 -1.7 19.7 -1.15 19.7 -1.0 19.65 -0.6 19.65 -0.5 19.7 -0.4 19.75 -0.35 19.7 -0.2 19.6 0.0 18.75 -0.1 20.25 6.0 Q20.7 7.85 21.7 9.45 L22.55 11.25 Q23.45 13.65 23.1 16.25 L24.0 16.75 24.85 17.0 24.75 17.3 24.65 17.75 24.6 17.8 24.55 17.8 24.6 17.75 24.65 17.75 24.55 17.75 24.45 17.75 Q23.3 17.45 22.35 16.7 L22.4 16.5 22.35 12.85 19.8 5.85 19.85 5.05 Q19.85 4.2 19.35 3.55 L18.4 2.0 17.9 -0.5 17.9 -1.0 17.8 -1.4 17.8 -1.75 17.75 -2.0 17.35 -3.0 17.05 -4.35 13.75 -8.1 13.8 -8.15 13.95 -8.3 14.15 -8.3 14.15 -8.35 Q16.95 -6.3 18.2 -3.15 L18.5 -2.25 18.55 -2.2 19.25 -3.4 M-4.05 -11.5 L-5.1 -11.3 -6.5 -11.0 -11.75 -9.2 -11.9 -9.2 -12.25 -9.4 -12.25 -9.45 -6.4 -11.9 -4.0 -12.4 -4.05 -11.5 M-14.35 -8.6 Q-14.35 -7.55 -15.35 -6.7 L-16.65 -5.4 Q-15.8 -3.05 -15.75 -0.45 -15.75 1.0 -15.25 2.35 L-15.25 2.5 -15.45 2.8 -15.5 2.8 -16.2 1.9 Q-17.1 -0.75 -17.05 -3.65 L-17.15 -4.25 -17.4 -4.95 -17.35 -5.35 -17.35 -5.4 -14.35 -8.6 M-11.25 7.65 Q-11.55 8.4 -11.4 9.25 L-11.4 9.3 -11.2 10.0 -11.25 9.9 -11.3 9.9 Q-11.85 9.2 -12.05 8.3 L-12.15 7.8 -12.25 7.4 Q-12.0 4.3 -9.95 2.45 L-9.7 2.2 -9.45 2.0 -9.4 1.95 -8.7 1.65 -8.6 1.45 -8.55 1.4 -7.05 0.65 -6.85 0.65 -6.8 0.65 -6.75 0.7 -6.7 0.7 -5.8 0.9 -5.85 0.95 -6.25 1.3 -6.4 1.3 -6.7 1.3 Q-9.3 2.5 -11.05 4.65 -11.45 5.05 -11.45 5.7 L-11.25 7.65 M2.7 3.6 Q3.45 3.1 4.4 3.1 L5.95 2.95 Q9.15 3.0 11.4 5.1 L12.1 5.4 12.55 5.9 Q13.5 8.2 13.45 10.65 L13.3 10.7 13.2 10.7 13.15 10.7 Q13.3 9.0 12.55 7.25 12.1 6.1 11.2 5.6 L10.7 4.9 10.65 4.85 9.65 4.15 Q7.3 3.0 4.65 3.45 3.85 3.45 3.3 3.75 L2.7 3.6 M18.4 2.0 Q17.95 -0.5 18.55 -2.2 17.95 -0.5 18.4 2.0 M24.75 17.3 L24.65 17.75 24.75 17.3" fill="#ffffff" fill-rule="evenodd" stroke="none"/>
    <path d="M0.45 -21.2 L5.35 -16.0 5.35 -15.05 4.45 -15.4 Q1.85 -13.65 2.9 -10.8 L3.2 -10.25 4.2 -10.25 4.3 -8.75 4.8 -8.75 4.65 -7.2 4.55 -6.95 2.35 -7.0 Q0.45 -7.1 0.4 -8.75 0.25 -11.9 -0.6 -14.95 -1.25 -17.2 -0.2 -19.2 L0.45 -21.2 M4.1 -5.85 L3.55 -6.1 4.2 -6.05 4.1 -5.85 M-1.35 3.4 L0.05 3.35 1.35 3.4 2.7 3.6 3.3 3.75 3.4 3.75 4.25 4.05 Q5.2 4.35 6.1 4.9 7.75 5.95 8.3 7.3 L8.55 8.15 Q7.8 8.0 7.1 8.4 4.95 9.55 2.7 10.0 L2.2 9.6 Q1.25 9.0 -0.1 9.0 L-1.65 9.25 Q-2.05 9.35 -2.4 9.6 L-2.75 9.85 Q-4.4 9.45 -5.8 8.55 L-8.15 7.0 Q-7.55 5.85 -6.05 4.9 -5.2 4.4 -4.25 4.05 -2.9 3.55 -1.35 3.4 M14.35 7.2 L13.65 4.95 13.15 3.9 14.9 5.45 15.95 7.1 16.2 7.8 16.15 7.85 Q15.6 7.95 15.45 8.5 14.95 10.35 13.85 11.95 L14.0 11.4 14.25 10.4 14.35 10.0 14.35 9.95 14.35 9.85 14.4 8.8 14.4 8.75 14.4 7.5 14.35 7.2 M-13.65 5.05 Q-14.45 6.9 -14.45 8.8 L-14.35 10.0 -14.15 10.9 -15.65 10.25 Q-15.9 7.15 -13.65 5.05 M24.45 17.75 L24.55 17.75 24.65 17.75 24.6 17.75 24.55 17.8 24.45 17.85 24.45 17.75 M14.35 9.85 L14.4 8.75 14.35 9.85" fill="#8e99b9" fill-rule="evenodd" stroke="none"/>
    <path d="M-6.15 -14.55 L-5.3 -14.95 -4.65 -15.25 -4.45 -15.35 Q-1.85 -13.6 -2.9 -10.7 L-3.2 -10.15 -4.15 -10.15 -4.05 -11.5 -4.0 -12.4 -4.15 -12.9 -6.15 -14.55 M5.35 -15.05 L6.2 -14.65 Q5.05 -14.05 4.15 -13.0 L4.05 -12.5 4.2 -10.25 3.2 -10.25 2.9 -10.8 Q1.85 -13.65 4.45 -15.4 L5.35 -15.05 M13.0 -9.65 Q13.9 -10.65 15.5 -10.0 L17.3 -8.3 16.95 -8.55 16.9 -8.55 Q15.35 -9.4 14.05 -8.55 L13.0 -9.65 M-14.1 -8.5 L-13.45 -8.65 Q-12.95 -8.7 -12.6 -9.0 L-12.35 -8.45 -11.85 -7.4 -12.35 -6.7 -12.4 -6.65 -12.65 -7.1 Q-13.35 -8.1 -14.1 -8.5 M-14.65 3.8 Q-13.65 2.9 -12.3 2.95 L-13.1 4.0 -13.95 4.65 -14.3 4.9 -15.05 4.95 -15.65 5.0 -15.2 4.35 -14.65 3.8 M-11.25 7.65 Q-10.85 6.65 -9.7 5.8 -7.8 4.3 -4.55 4.1 L-4.25 4.05 Q-5.2 4.4 -6.05 4.9 -7.55 5.85 -8.15 7.0 L-8.55 8.5 -8.55 8.7 -8.3 10.0 Q-7.75 11.4 -6.05 12.45 -4.8 13.25 -3.3 13.65 -5.4 13.75 -7.25 13.1 L-8.6 12.55 -8.8 12.45 Q-10.65 11.45 -11.2 10.0 L-11.4 9.3 -11.4 9.25 Q-11.55 8.4 -11.25 7.65 M13.15 3.9 L12.35 2.85 Q14.0 2.85 15.2 4.3 L15.6 4.8 15.3 5.05 14.9 5.45 13.15 3.9 M8.55 8.15 L8.3 7.3 Q7.75 5.95 6.1 4.9 5.2 4.35 4.25 4.05 7.7 4.15 9.75 5.7 L10.0 5.9 10.5 6.4 Q11.7 7.65 11.45 9.25 L11.2 10.0 11.2 10.05 11.05 10.35 10.85 10.65 10.4 11.25 8.85 12.35 8.6 12.45 Q6.25 13.65 3.6 13.55 L6.1 12.45 Q7.8 11.4 8.35 10.0 L8.6 8.7 8.55 8.15 M23.8 18.2 L22.45 18.25 22.05 18.0 22.0 18.0 Q21.45 17.55 21.05 16.65 L22.15 17.45 22.4 17.6 22.75 17.7 24.45 17.75 24.45 17.85 23.8 18.2 M-21.05 16.7 Q-22.2 19.45 -24.6 17.8 -22.65 18.3 -21.05 16.7" fill="#27619a" fill-rule="evenodd" stroke="none"/>
    <path d="M12.4 -6.75 L11.9 -7.5 12.4 -8.55 12.6 -9.1 13.0 -9.65 14.05 -8.55 14.0 -8.55 13.65 -8.25 12.7 -7.15 12.4 -6.75 M-12.6 -9.0 Q-12.95 -8.7 -13.45 -8.65 L-14.1 -8.5 -14.15 -8.55 -14.25 -8.6 -14.3 -8.65 Q-15.7 -9.3 -17.3 -8.25 L-15.45 -9.9 -13.2 -9.8 -12.7 -9.25 -12.6 -9.0 M15.6 4.8 L15.75 5.1 Q16.25 6.05 16.4 7.2 L15.95 7.1 14.9 5.45 15.3 5.05 15.6 4.8 M-15.65 5.0 L-15.05 4.95 -14.3 4.9 Q-15.4 5.9 -15.95 7.2 L-16.35 7.3 Q-16.25 6.0 -15.65 5.0" fill="#163656" fill-rule="evenodd" stroke="none"/>
    <path d="M16.55 9.7 L16.55 10.0 Q16.45 12.15 14.65 13.3 L14.2 13.6 13.45 13.9 12.55 13.95 Q13.35 13.15 13.85 11.95 14.95 10.35 15.45 8.5 15.6 7.95 16.15 7.85 L16.2 7.8 16.5 9.05 16.55 9.7 M2.05 13.9 L0.05 14.05 -1.85 13.9 -1.9 13.9 -3.3 13.65 Q-4.8 13.25 -6.05 12.45 -7.75 11.4 -8.3 10.0 L-8.55 8.7 -8.55 8.5 -8.15 7.0 -5.8 8.55 Q-4.4 9.45 -2.75 9.85 L-2.85 9.95 -2.9 9.95 -2.95 10.0 Q-3.4 10.45 -3.35 11.0 -3.4 11.8 -2.4 12.35 -1.5 12.95 -0.1 12.95 L1.65 12.65 2.2 12.35 Q3.15 11.8 3.15 11.0 3.15 10.45 2.75 10.0 L2.7 10.0 Q4.95 9.55 7.1 8.4 7.8 8.0 8.55 8.15 L8.6 8.7 8.35 10.0 Q7.8 11.4 6.1 12.45 L3.6 13.55 2.05 13.9 M-12.5 14.05 L-13.45 13.95 Q-16.5 12.85 -16.5 10.0 L-16.5 9.75 -16.45 9.15 -15.95 7.2 Q-15.4 5.9 -14.3 4.9 L-13.95 4.65 -13.1 4.0 -13.65 5.0 -13.65 5.05 Q-15.9 7.15 -15.65 10.25 L-14.15 10.9 -14.0 11.5 -13.9 11.8 Q-13.4 13.15 -12.5 14.05 M-5.3 -14.95 L-5.3 -15.9 -0.1 -21.75 0.45 -21.2 -0.2 -19.2 Q-1.25 -17.2 -0.6 -14.95 0.25 -11.9 0.4 -8.75 0.45 -7.1 2.35 -7.0 L4.55 -6.95 4.4 -6.5 4.2 -6.05 3.55 -6.1 4.1 -5.85 3.8 -5.35 3.2 -4.6 Q2.6 -3.95 1.85 -3.55 0.85 -3.0 -0.35 -2.9 L-0.6 -2.95 -2.0 -3.55 -3.2 -4.55 -3.3 -4.65 -3.85 -5.35 -4.55 -6.95 -4.6 -7.2 -4.7 -7.5 -4.7 -7.55 -4.8 -8.65 -4.7 -8.65 -4.3 -8.65 -4.15 -10.15 -3.2 -10.15 -2.9 -10.7 Q-1.85 -13.6 -4.45 -15.35 L-4.65 -15.25 -5.3 -14.95" fill="#424e68" fill-rule="evenodd" stroke="none"/>
    <path d="M-2.75 9.85 L-2.4 9.6 Q-2.05 9.35 -1.65 9.25 L-0.1 9.0 Q1.25 9.0 2.2 9.6 L2.7 10.0 2.75 10.0 Q3.15 10.45 3.15 11.0 3.15 11.8 2.2 12.35 L1.65 12.65 -0.1 12.95 Q-1.5 12.95 -2.4 12.35 -3.4 11.8 -3.35 11.0 -3.4 10.45 -2.95 10.0 L-2.9 9.95 -2.85 9.95 -2.75 9.85 M1.75 10.3 L1.65 10.25 1.45 10.2 1.35 10.2 1.25 10.25 1.1 10.4 1.05 10.5 Q1.1 11.25 1.85 11.35 L2.0 11.2 2.15 10.9 2.05 10.75 1.75 10.3 M0.1 10.0 L0.05 9.95 -0.05 9.9 -0.95 9.85 Q-1.75 10.0 -2.45 10.45 -3.05 10.75 -2.95 11.35 L-2.55 11.6 -2.45 11.6 -1.95 11.15 -1.95 11.1 Q-1.0 10.6 0.05 10.6 L0.15 10.45 0.2 10.3 0.2 10.25 0.2 10.15 0.1 10.0" fill="#f2b486" fill-rule="evenodd" stroke="none"/>
    <path d="M0.1 10.0 L0.2 10.15 0.2 10.25 0.2 10.3 0.15 10.45 0.05 10.6 Q-1.0 10.6 -1.95 11.1 L-1.95 11.15 -2.45 11.6 -2.55 11.6 -2.95 11.35 Q-3.05 10.75 -2.45 10.45 -1.75 10.0 -0.95 9.85 L-0.05 9.9 0.05 9.95 0.1 10.0 M1.75 10.3 L2.05 10.75 2.15 10.9 2.0 11.2 1.85 11.35 Q1.1 11.25 1.05 10.5 L1.1 10.4 1.25 10.25 1.35 10.2 1.45 10.2 1.65 10.25 1.75 10.3" fill="#fcf2be" fill-rule="evenodd" stroke="none"/>
    <path d="M15.55 -12.4 L14.3 -12.4 10.9 -12.3 10.1 -12.9 Q9.15 -13.7 8.9 -14.75 L8.85 -15.15 8.85 -15.25 8.8 -15.5 8.8 -15.6 8.6 -15.55 7.2 -15.15 6.4 -14.8 6.2 -14.65 5.35 -15.05 5.35 -16.0 0.45 -21.2 -0.1 -21.75 -5.3 -15.9 -5.3 -14.95 -6.15 -14.55 -6.95 -14.95 -7.4 -15.15 -8.8 -15.5 -8.8 -15.15 Q-8.95 -13.8 -10.05 -12.8 L-10.85 -12.2 -12.2 -12.3 -14.85 -12.35 -15.55 -12.3 -16.25 -12.05 -16.4 -11.9 -16.5 -11.8 -16.7 -11.6 -17.65 -9.9 Q-18.0 -8.9 -18.0 -7.65 L-18.35 -7.2 Q-19.25 -6.05 -19.2 -4.4 L-19.2 -3.4 -19.4 -2.45 -19.5 -1.8 -19.55 -1.6 -19.6 -1.45 -20.8 2.35 -20.85 2.4 -20.9 2.5 -20.95 2.65 -21.0 2.75 -21.0 2.8 -22.25 5.4 -24.3 10.0 -24.5 10.75 Q-25.5 13.75 -24.85 16.9 L-24.85 16.95 -24.85 17.0 M15.55 -12.4 L16.3 -12.1 17.1 -11.15 Q17.95 -9.85 18.0 -8.0 L18.0 -7.75 18.45 -7.2 18.55 -7.05 18.65 -6.9 18.65 -6.85 19.15 -5.55 19.2 -5.35 19.2 -5.3 19.25 -4.65 19.25 -4.6 19.25 -4.5 19.25 -3.5 19.25 -3.4 19.4 -2.45 19.5 -2.05 19.5 -1.9 19.55 -1.7 19.7 -1.15 M19.7 -1.0 L20.7 2.05 20.75 2.15 20.9 2.4 20.9 2.5 20.95 2.6 21.0 2.7 21.15 3.05 21.5 3.7 21.6 3.9 22.3 5.3 Q23.65 7.85 24.55 10.65 L24.65 11.05 25.1 13.3 Q25.2 14.95 24.9 16.6 L24.9 16.8 24.85 16.85 24.85 16.9 24.85 16.95 24.85 17.0 24.75 17.3 24.65 17.75 24.6 17.8 24.45 18.25 Q23.6 20.4 21.55 21.45 L21.15 21.6 21.0 21.65 Q20.3 21.05 20.55 20.55 L20.55 19.05 20.3 18.7 19.95 18.0 Q19.5 16.7 20.35 15.5 L16.55 9.7 16.55 10.0 Q16.45 12.15 14.65 13.3 L14.2 13.6 13.45 13.9 12.55 13.95 12.4 14.1 12.35 14.15 12.3 14.2 12.25 14.25 12.2 14.3 12.15 14.35 12.0 14.45 10.5 15.15 9.55 15.4 9.45 15.45 6.3 15.35 Q4.5 15.05 2.9 14.25 L2.8 14.2 M2.45 14.05 L2.1 13.9 2.05 13.9 0.05 14.05 -1.85 13.9 -2.0 13.95 -2.9 14.35 -4.7 15.05 -6.25 15.45 -6.35 15.45 -6.8 15.5 -6.85 15.55 -7.05 15.55 -8.75 15.6 -9.4 15.5 Q-11.35 15.25 -12.5 14.05 L-13.45 13.95 Q-16.5 12.85 -16.5 10.0 L-16.5 9.75 -20.3 15.6 Q-19.15 17.25 -20.55 19.15 L-20.55 20.65 Q-20.3 21.1 -20.95 21.75 L-21.5 21.55 Q-23.8 20.35 -24.6 17.8 M4.8 -8.75 L9.15 -7.65 10.05 -5.65 12.15 -5.5 12.3 -5.35 12.4 -5.3 12.45 -5.25 14.0 -2.6 14.05 -2.45 14.05 -2.35 14.1 -1.9 14.1 -1.7 14.0 -0.35 13.95 0.05 Q13.75 0.8 13.0 1.1 L12.35 2.85 12.25 2.8 Q11.4 1.85 10.2 1.25 L9.15 0.85 8.4 0.65 7.15 0.55 Q4.65 0.65 2.65 2.2 L1.95 2.8 1.35 3.4 0.05 3.35 -1.35 3.4 -1.4 3.35 Q-1.5 3.25 -1.55 3.25 L-1.95 2.8 -3.45 1.7 -4.35 1.25 -4.7 1.15 -4.75 1.1 -5.8 0.9 -6.7 0.7 -6.75 0.7 -6.8 0.65 -6.85 0.65 -7.05 0.65 -7.1 0.65 -7.15 0.65 -7.4 0.65 -7.5 0.65 -8.55 0.75 -8.75 0.8 -8.9 0.85 -9.05 0.9 -9.1 0.9 -9.3 1.0 -9.5 1.05 M4.55 -6.95 L4.65 -7.2 4.8 -8.75 M-10.0 -5.65 L-9.1 -7.55 -4.8 -8.65 -4.7 -7.55 -4.7 -7.5 -4.6 -7.2 -4.55 -6.95 -3.85 -5.35 -3.3 -4.65 -3.2 -4.55 -2.0 -3.55 -0.6 -2.95 -0.35 -2.9 Q0.85 -3.0 1.85 -3.55 2.6 -3.95 3.2 -4.6 L3.8 -5.35 4.1 -5.85 4.2 -6.05 4.4 -6.5 4.55 -6.95 M-12.3 2.95 L-12.95 1.2 Q-13.75 0.9 -13.9 0.15 L-13.95 -0.05 -14.1 -1.3 -14.1 -1.6 -14.05 -2.05 -14.0 -2.45 -13.65 -3.55 -12.15 -5.35 -12.1 -5.4 -10.05 -5.55 -10.0 -5.65 M-12.3 2.95 L-12.2 2.8 -12.1 2.7 -12.05 2.65 -12.0 2.6 -11.85 2.45 -9.8 1.2" fill="none" stroke="#4d478f" stroke-linecap="round" stroke-linejoin="round" stroke-width="1.0"/>
    <path d="M24.85 16.95 L24.75 17.3 24.65 17.75 24.6 17.75 24.55 17.8 24.45 17.85 23.8 18.2 22.45 18.25 22.05 18.0 22.0 18.0 Q21.45 17.55 21.05 16.65 L22.15 17.45 22.4 17.6 22.75 17.7 24.45 17.75 24.55 17.75 24.65 17.75 M2.8 14.2 L2.65 14.15 2.45 14.05 M-24.6 17.8 L-24.85 17.0 M-19.6 -1.45 L-19.5 -1.8 M12.15 -5.5 Q12.1 -6.15 12.4 -6.75 L11.9 -7.5 12.4 -8.55 12.6 -9.1 13.0 -9.65 Q13.9 -10.65 15.5 -10.0 L17.3 -8.3 17.6 -8.1 18.0 -7.75 M14.05 -8.55 Q15.35 -9.4 16.9 -8.55 L16.95 -8.55 17.3 -8.3 M14.0 -8.55 L13.65 -8.25 12.7 -7.15 12.4 -6.75 M4.8 -8.75 L4.3 -8.75 4.2 -10.25 3.2 -10.25 2.9 -10.8 Q1.85 -13.65 4.45 -15.4 L5.35 -15.05 M-4.8 -8.65 L-4.7 -8.65 M-4.3 -8.65 L-4.15 -10.15 -4.05 -11.5 -4.0 -12.4 -4.15 -12.9 -6.15 -14.55 M-12.6 -9.0 L-12.7 -9.25 -13.2 -9.8 -15.45 -9.9 -17.3 -8.25 Q-15.7 -9.3 -14.3 -8.65 L-14.25 -8.6 -14.15 -8.55 M-14.1 -8.5 Q-13.35 -8.1 -12.65 -7.1 L-12.4 -6.65 -12.35 -6.7 -11.85 -7.4 -12.35 -8.45 -12.6 -9.0 M-14.65 3.8 Q-13.65 2.9 -12.3 2.95 L-13.1 4.0 -13.65 5.0 -13.65 5.05 Q-14.45 6.9 -14.45 8.8 L-14.35 10.0 -14.15 10.9 -14.0 11.5 -13.9 11.8 Q-13.4 13.15 -12.5 14.05 M-14.1 -1.3 L-14.05 -2.05 M-12.1 -5.4 L-12.1 -5.45 Q-12.1 -6.1 -12.4 -6.65 M6.2 -14.65 Q5.05 -14.05 4.15 -13.0 L4.05 -12.5 4.2 -10.25 M-4.65 -15.25 L-5.3 -14.95 M-4.15 -10.15 L-3.2 -10.15 -2.9 -10.7 Q-1.85 -13.6 -4.45 -15.35 M-4.25 4.05 L-4.55 4.1 Q-7.8 4.3 -9.7 5.8 -10.85 6.65 -11.25 7.65 -11.55 8.4 -11.4 9.25 L-11.4 9.3 -11.2 10.0 Q-10.65 11.45 -8.8 12.45 L-8.6 12.55 -7.25 13.1 Q-5.4 13.75 -3.3 13.65 -4.8 13.25 -6.05 12.45 -7.75 11.4 -8.3 10.0 L-8.55 8.7 -8.55 8.5 -8.15 7.0 Q-7.55 5.85 -6.05 4.9 -5.2 4.4 -4.25 4.05 -2.9 3.55 -1.35 3.4 M14.35 7.2 L13.65 4.95 13.15 3.9 12.35 2.85 Q14.0 2.85 15.2 4.3 L15.6 4.8 15.75 5.1 Q16.25 6.05 16.4 7.2 L16.9 7.35 Q19.4 7.85 19.8 5.85 L19.85 5.05 Q19.85 4.2 19.35 3.55 L18.4 2.0 Q17.95 -0.5 18.55 -2.2 L19.25 -3.5 M3.3 3.75 L2.7 3.6 1.35 3.4 M4.25 4.05 L3.4 3.75 M-14.3 4.9 L-13.95 4.65 -13.1 4.0 M-14.3 4.9 Q-15.4 5.9 -15.95 7.2 L-16.45 9.15 -16.5 9.75 M-15.65 5.0 L-15.2 4.35 -14.65 3.8 M-8.9 0.85 L-8.55 0.75 M-2.75 9.85 L-2.4 9.6 Q-2.05 9.35 -1.65 9.25 L-0.1 9.0 Q1.25 9.0 2.2 9.6 L2.7 10.0 2.75 10.0 Q3.15 10.45 3.15 11.0 3.15 11.8 2.2 12.35 L1.65 12.65 -0.1 12.95 Q-1.5 12.95 -2.4 12.35 -3.4 11.8 -3.35 11.0 -3.4 10.45 -2.95 10.0 L-2.9 9.95 -2.85 9.95 -2.75 9.85 M8.55 8.15 L8.3 7.3 Q7.75 5.95 6.1 4.9 5.2 4.35 4.25 4.05 7.7 4.15 9.75 5.7 L10.0 5.9 10.5 6.4 Q11.7 7.65 11.45 9.25 L11.2 10.0 11.2 10.05 11.05 10.35 10.85 10.65 10.4 11.25 8.85 12.35 8.6 12.45 Q6.25 13.65 3.6 13.55 L2.05 13.9 M-1.9 13.9 L-1.85 13.9 M-1.9 13.9 L-3.3 13.65 M14.9 5.45 L13.15 3.9 M14.4 8.75 L14.4 7.5 14.35 7.2 M13.85 11.95 L14.0 11.4 14.25 10.4 14.35 10.0 14.35 9.95 14.35 9.85 14.4 8.8 M14.4 8.75 L14.35 9.85 M3.6 13.55 L6.1 12.45 Q7.8 11.4 8.35 10.0 L8.6 8.7 8.55 8.15 M12.55 13.95 Q13.35 13.15 13.85 11.95 M16.2 7.8 L15.95 7.1 14.9 5.45 M16.2 7.8 L16.5 9.05 16.55 9.7 M16.4 7.2 L15.95 7.1 M20.35 15.5 L21.05 16.65 M-18.0 -7.65 L-17.3 -8.25 M-19.2 -3.4 Q-17.95 -1.8 -17.9 -0.1 -17.85 1.7 -19.3 3.65 -19.85 4.3 -19.85 5.1 -19.9 8.0 -16.9 7.4 L-16.35 7.3 Q-16.25 6.0 -15.65 5.0 M-16.35 7.3 L-15.95 7.2 M-20.3 15.6 L-21.05 16.7 Q-22.2 19.45 -24.6 17.8 -22.65 18.3 -21.05 16.7" fill="none" stroke="#3e2f7b" stroke-linecap="round" stroke-linejoin="round" stroke-width="0.05"/>
  </g>
</svg>
