<?xml version="1.0" encoding="UTF-8" standalone="no"?>
<svg xmlns:xlink="http://www.w3.org/1999/xlink" height="92.55px" width="190.05px" xmlns="http://www.w3.org/2000/svg">
  <g transform="matrix(1.0, 0.0, 0.0, 1.0, -157.4, -171.05)">
    <path d="M302.6 239.05 Q302.6 241.35 297.6 242.75 292.75 244.1 285.4 244.1 270.55 244.1 261.4 242.25 252.85 240.45 251.95 237.55 246.45 237.5 243.9 239.75 L242.1 241.6 Q241.1 242.5 239.8 242.5 L238.85 242.45 Q248.55 244.65 248.55 246.4 248.55 249.0 242.75 250.6 237.4 252.05 229.75 252.05 L215.0 251.15 214.15 251.1 212.8 253.05 210.4 255.4 210.25 255.5 218.1 256.7 Q221.15 257.4 221.15 259.15 221.15 260.95 216.75 262.35 212.65 263.6 208.05 263.6 200.6 263.6 195.6 261.8 191.0 260.2 191.0 258.2 191.0 256.25 193.75 255.95 L205.15 254.6 Q206.05 254.45 209.05 251.45 L209.8 250.75 202.5 250.3 202.6 251.05 Q202.6 253.0 188.15 253.4 L188.15 253.5 Q188.15 257.9 172.95 257.9 164.7 257.9 164.1 254.5 162.7 254.2 162.1 253.65 L161.75 252.4 Q161.75 249.25 170.75 249.25 L173.55 249.45 175.3 249.3 Q176.75 248.15 180.2 247.25 183.25 246.45 186.4 246.05 L188.1 246.0 189.0 245.75 Q188.4 244.8 188.4 244.3 188.4 243.65 193.85 241.35 L195.45 240.7 Q195.75 239.8 198.4 237.85 201.8 235.3 204.65 235.3 207.0 235.3 207.6 236.9 208.4 235.4 212.05 234.75 216.95 233.85 217.25 232.8 218.2 229.15 236.25 229.15 257.55 229.15 264.25 230.65 267.55 231.4 268.2 233.15 270.15 233.35 276.35 233.35 287.4 233.35 295.15 235.1 302.6 236.8 302.6 239.05 M243.5 260.25 Q241.0 261.25 238.25 261.25 234.75 261.25 232.5 260.0 230.75 259.05 230.75 258.15 230.75 255.6 238.25 255.6 246.0 255.6 246.0 258.05 246.0 259.2 243.5 260.25 M263.65 252.05 Q261.5 252.05 260.35 250.5 259.55 249.45 259.55 248.65 259.55 246.75 262.25 246.75 267.0 246.75 267.0 249.9 267.0 252.05 263.65 252.05 M208.1 239.8 L207.6 238.7 206.8 240.05 208.2 240.0 208.1 239.8 M213.5 239.15 L213.1 239.15 212.55 239.25 Q213.05 239.6 213.6 239.6 L213.5 239.15" fill="#990000" fill-rule="evenodd" stroke="none"/>
    <path d="M340.35 193.55 L341.4 190.7 342.55 192.3 341.9 196.1 341.25 199.9 338.35 198.85 340.35 193.55 M346.3 184.6 L344.25 183.2 Q344.65 170.55 346.3 173.6 L346.3 184.6 M333.7 206.0 L335.3 204.5 336.7 207.3 335.15 211.95 334.35 209.65 332.1 207.5 333.7 206.0 M325.7 209.85 L327.1 208.95 330.85 212.45 330.85 214.3 328.8 217.05 326.7 217.9 327.55 215.0 326.5 213.6 324.3 210.75 325.7 209.85 M318.3 214.8 L319.6 213.85 321.95 215.5 321.95 217.8 318.2 218.05 316.95 215.75 316.95 215.7 318.3 214.8 M245.1 186.35 L246.55 181.4 253.4 173.6 261.85 171.05 261.85 173.6 254.35 179.45 251.7 186.15 249.4 188.35 Q248.55 193.4 251.6 193.65 L251.65 195.3 249.8 198.3 247.75 193.95 245.75 191.8 Q246.15 188.6 245.1 186.35 M264.25 205.2 L264.25 199.1 269.1 188.35 278.45 183.2 278.45 186.0 272.6 193.25 272.6 198.9 Q272.0 204.3 270.45 203.55 L268.1 198.65 Q265.25 198.1 266.95 204.75 L269.3 208.95 267.45 210.1 265.85 209.05 264.25 205.2 M277.0 185.1 Q276.7 185.1 276.15 185.6 275.6 186.15 275.6 186.5 L275.75 186.9 Q275.95 187.3 276.5 187.3 277.85 187.3 277.85 186.05 277.8 185.1 277.0 185.1 M161.4 246.1 L163.1 243.4 164.65 244.65 165.3 245.2 Q165.0 245.4 165.0 245.9 165.0 246.35 165.5 247.0 L167.5 249.05 168.95 249.8 Q168.5 250.15 168.5 251.15 L168.5 251.9 Q168.6 252.3 168.85 252.45 L167.7 253.15 165.0 247.7 165.5 247.0 165.0 247.7 161.4 246.1" fill="#d0d0b9" fill-rule="evenodd" stroke="none"/>
    <path d="M341.9 196.1 L342.55 192.3 341.4 190.7 340.35 193.55 340.3 190.45 343.25 183.2 344.25 183.2 346.3 184.6 347.45 186.45 341.9 196.1 M338.35 198.85 L341.25 199.9 341.85 199.9 341.85 205.2 336.7 207.3 335.3 204.5 333.7 206.0 334.85 202.15 338.35 198.85 M325.7 209.85 L325.7 207.3 329.9 205.4 332.1 207.5 334.35 209.65 335.15 211.95 336.0 214.3 332.95 217.6 328.8 217.05 330.85 216.2 330.85 214.3 330.85 212.45 327.1 208.95 325.7 209.85 M326.5 213.6 L324.8 216.35 Q324.5 215.5 323.5 215.5 322.6 215.5 322.6 216.4 L322.75 216.9 321.95 215.5 319.6 213.85 318.3 214.8 318.25 212.2 323.6 209.85 324.3 210.75 326.5 213.6 M333.55 213.85 Q333.3 212.25 332.4 212.25 331.55 212.25 331.55 213.8 L331.55 214.55 Q331.7 215.25 332.4 215.25 333.55 215.25 333.55 213.85 M330.0 208.55 Q330.0 207.6 329.15 207.6 328.25 207.6 328.25 208.55 328.25 209.35 329.15 209.35 330.0 209.35 330.0 208.55 M273.95 205.95 L275.85 204.7 281.8 189.0 280.1 176.15 281.5 175.0 288.75 190.45 286.35 205.75 Q282.6 214.2 279.8 210.8 L281.0 204.75 Q281.65 199.25 275.15 208.5 269.55 211.55 273.95 205.95 M296.5 213.25 L297.65 211.95 297.65 199.35 291.3 184.85 Q291.6 180.2 302.55 198.85 L304.4 210.3 Q301.95 218.85 298.7 217.1 L298.3 216.8 296.5 213.25 M303.4 220.15 L307.7 217.6 308.5 220.3 309.3 223.05 306.75 225.1 302.6 223.55 303.4 220.15 M310.3 219.1 L310.3 215.5 315.65 213.35 316.95 215.7 316.95 215.75 315.6 221.0 312.15 221.0 311.9 218.05 310.3 219.1 M286.75 189.75 Q286.15 186.25 285.15 186.25 284.3 186.25 284.3 187.4 L284.5 189.25 Q284.9 191.1 285.85 191.1 286.75 191.1 286.75 189.75 M167.7 253.15 L164.95 254.75 159.8 254.75 157.4 252.4 161.4 246.1 165.0 247.7 167.7 253.15 M301.1 213.4 Q303.9 206.25 301.1 208.25 L299.7 211.5 301.1 213.4 M159.8 254.75 L165.0 247.7 159.8 254.75 M283.55 204.05 Q286.1 201.55 284.95 196.3 L283.55 200.05 Q281.45 203.8 283.55 204.05" fill="#e0e0d1" fill-rule="evenodd" stroke="none"/>
    <path d="M330.85 214.3 L330.85 216.2 328.8 217.05 330.85 214.3 M330.0 208.55 Q330.0 209.35 329.15 209.35 328.25 209.35 328.25 208.55 328.25 207.6 329.15 207.6 330.0 207.6 330.0 208.55 M333.55 213.85 Q333.55 215.25 332.4 215.25 331.7 215.25 331.55 214.55 L331.55 213.8 Q331.55 212.25 332.4 212.25 333.3 212.25 333.55 213.85 M321.95 215.5 L322.75 216.9 322.6 216.4 Q322.6 215.5 323.5 215.5 324.5 215.5 324.8 216.35 L326.5 213.6 327.55 215.0 326.7 217.9 Q324.8 222.4 320.85 221.4 L321.95 220.15 321.95 217.8 321.95 220.15 320.85 221.4 319.4 222.95 315.4 229.55 315.35 229.55 314.8 229.5 Q314.1 229.95 311.6 230.15 L310.75 230.55 309.65 230.6 Q309.15 230.6 308.85 230.0 L308.65 229.5 308.6 229.3 Q308.6 228.5 309.6 228.25 L309.75 228.2 309.7 228.15 309.5 227.9 Q309.5 227.45 310.5 226.5 L311.5 225.75 314.25 222.05 312.4 223.95 309.65 225.65 308.15 226.25 Q305.35 227.15 301.85 226.95 L299.6 226.55 Q300.85 227.25 301.25 226.95 301.25 227.8 299.5 227.8 L294.5 227.6 Q293.65 227.4 293.65 226.6 293.65 226.35 294.55 225.65 L294.1 225.55 296.05 224.55 296.5 224.3 Q302.05 221.1 299.95 219.45 L296.05 221.9 295.4 223.05 Q294.55 224.05 293.2 224.05 292.25 224.05 292.0 223.65 L292.0 223.35 288.25 223.65 287.55 223.55 296.5 213.25 298.3 216.8 298.7 217.1 Q301.95 218.85 304.4 210.3 L304.9 213.35 303.4 220.15 302.6 223.55 301.85 226.95 302.6 223.55 306.75 225.1 309.3 223.05 308.5 220.3 310.3 219.1 311.9 218.05 312.15 221.0 315.6 221.0 316.95 215.75 318.2 218.05 321.95 217.8 321.95 215.5 M251.7 186.15 L251.3 187.15 251.6 193.65 Q248.55 193.4 249.4 188.35 L251.7 186.15 M264.25 208.0 L264.25 205.2 265.85 209.05 264.25 208.0 M272.6 198.9 L272.6 201.2 273.95 205.95 Q269.55 211.55 275.15 208.5 281.65 199.25 281.0 204.75 L279.8 210.8 Q282.6 214.2 286.35 205.75 L285.7 209.85 279.55 218.25 282.45 222.3 Q280.05 221.5 277.95 220.4 L279.55 218.25 277.95 220.4 Q274.45 218.6 271.65 215.95 L279.15 213.15 Q272.8 214.4 267.45 210.1 L269.3 208.95 266.95 204.75 Q265.25 198.1 268.1 198.65 L270.45 203.55 Q272.0 204.3 272.6 198.9 M245.75 191.8 L247.75 193.95 249.8 198.3 248.95 199.8 Q246.2 198.55 243.45 197.25 L245.25 194.15 245.75 191.8 M277.0 185.1 Q277.8 185.1 277.85 186.05 277.85 187.3 276.5 187.3 275.95 187.3 275.75 186.9 L275.6 186.5 Q275.6 186.15 276.15 185.6 276.7 185.1 277.0 185.1 M286.75 189.75 Q286.75 191.1 285.85 191.1 284.9 191.1 284.5 189.25 L284.3 187.4 Q284.3 186.25 285.15 186.25 286.15 186.25 286.75 189.75 M301.1 213.4 L299.7 211.5 301.1 208.25 Q303.9 206.25 301.1 213.4 M217.15 234.65 Q217.5 234.9 217.5 235.25 L217.25 235.75 215.3 236.1 Q213.5 236.1 212.3 237.2 211.1 238.3 210.75 238.3 210.3 238.3 210.0 237.9 L209.8 237.45 209.65 236.5 207.85 236.75 206.85 236.05 Q205.95 236.05 204.85 237.35 204.8 238.6 203.75 238.6 L203.65 238.6 203.25 238.8 203.1 238.8 Q202.55 238.75 202.4 238.3 L202.4 237.85 202.4 237.7 202.45 237.45 Q202.45 237.2 202.6 237.0 L202.65 236.9 203.0 236.45 Q203.7 235.6 205.35 234.75 208.55 233.15 211.45 233.75 L210.75 234.0 216.4 234.3 217.15 234.65 M175.65 250.5 L174.25 250.75 173.35 250.6 172.6 251.2 Q171.65 251.75 170.75 251.75 L170.35 251.65 Q170.2 252.6 169.4 252.6 L168.85 252.45 Q168.6 252.3 168.5 251.9 L168.5 251.15 Q168.5 250.15 168.95 249.8 L167.5 249.05 165.5 247.0 Q165.0 246.35 165.0 245.9 165.0 245.4 165.3 245.2 L165.85 245.0 Q166.75 245.0 170.2 247.55 L171.5 248.5 171.5 248.05 Q171.2 247.3 171.05 246.35 L170.75 241.9 171.1 239.75 171.05 237.4 171.05 236.15 171.05 235.05 171.2 233.85 171.05 233.25 Q171.05 232.8 171.75 232.35 172.45 231.9 173.05 231.9 174.05 231.9 174.25 232.65 L174.25 232.9 173.4 236.3 172.75 239.25 172.8 240.25 173.25 247.0 Q173.7 247.7 174.65 248.05 176.05 248.5 176.05 249.75 176.05 250.25 175.65 250.5 M309.65 225.65 L309.3 223.05 309.65 225.65 M312.15 221.0 L312.4 223.95 312.15 221.0 M319.4 222.95 L318.2 218.05 319.4 222.95 M273.95 205.95 L269.3 208.95 273.95 205.95 M270.35 216.4 Q270.35 217.25 269.5 217.25 268.6 217.25 268.6 216.4 268.6 215.5 269.5 215.5 270.35 215.5 270.35 216.4 M258.2 219.25 L258.4 217.8 Q257.85 217.55 257.85 216.9 257.85 216.5 260.1 214.3 261.5 212.95 262.65 212.35 L262.65 212.3 262.3 211.25 256.45 210.75 Q256.0 210.65 256.0 210.05 256.0 209.25 257.7 208.3 259.7 207.1 262.35 207.1 263.65 207.1 267.8 211.0 L266.6 212.15 266.45 212.5 266.4 213.05 Q266.4 214.05 265.7 214.25 L265.9 214.55 Q265.9 215.15 263.75 216.1 L263.65 216.25 Q264.5 216.45 264.5 217.15 L264.15 218.3 263.65 219.0 Q262.55 220.35 260.65 220.35 259.75 220.35 259.75 219.35 259.0 219.65 258.15 219.35 L258.2 219.25 M271.8 221.6 Q273.25 221.6 273.15 222.95 273.15 224.3 271.35 224.3 270.35 224.3 270.1 223.8 L270.0 223.3 Q270.0 222.9 270.6 222.25 271.25 221.6 271.8 221.6 M260.8 209.15 L262.35 209.1 Q263.8 208.35 262.0 209.05 L260.8 209.15 M262.0 215.0 L261.85 215.1 262.75 214.75 Q262.25 214.5 262.0 215.0 M257.7 212.75 Q258.9 212.75 258.9 213.85 L258.0 215.2 Q257.1 216.1 256.6 216.1 L255.25 214.5 Q255.25 212.75 257.7 212.75 M283.55 204.05 Q281.45 203.8 283.55 200.05 L284.95 196.3 Q286.1 201.55 283.55 204.05" fill="#990000" fill-rule="evenodd" stroke="none"/>
    <path d="M168.6 221.15 Q175.25 215.35 180.4 214.95 L183.55 212.35 Q186.35 209.45 187.1 206.0 187.7 203.15 186.95 199.9 186.45 197.85 185.4 195.65 192.05 185.85 198.65 185.25 L203.05 176.8 Q206.45 173.7 208.0 178.1 L211.65 188.3 213.9 188.15 213.9 184.55 218.95 188.85 216.4 181.35 223.9 189.75 229.9 185.4 Q234.85 181.1 238.95 181.65 240.75 182.15 242.1 183.0 L239.8 189.5 238.85 186.25 Q235.15 185.65 231.4 189.55 L234.45 200.1 228.8 196.1 232.1 204.75 227.4 204.75 220.95 202.55 219.2 201.95 211.05 198.2 204.0 198.2 202.4 201.45 210.45 203.05 210.6 203.3 215.0 206.55 216.1 212.2 213.3 207.65 215.0 206.55 213.3 207.65 216.1 212.2 209.65 216.45 200.25 212.95 194.05 214.4 196.05 215.75 196.55 219.7 192.3 216.9 Q192.7 217.6 192.75 218.6 L192.3 219.4 189.25 224.4 180.5 230.55 177.25 228.3 Q176.6 224.55 173.55 222.75 171.6 221.55 168.6 221.15 M251.65 195.3 Q254.3 191.55 254.8 194.2 L253.15 202.15 Q259.9 193.4 263.0 197.0 264.0 198.45 257.6 203.55 L264.25 208.0 265.85 209.05 267.45 210.1 Q272.8 214.4 279.15 213.15 L271.65 215.95 Q274.45 218.6 277.95 220.4 280.05 221.5 282.45 222.3 L287.55 223.55 288.25 223.65 292.0 223.35 292.0 223.65 Q292.25 224.05 293.2 224.05 294.55 224.05 295.4 223.05 L296.05 221.9 299.95 219.45 Q302.05 221.1 296.5 224.3 L296.05 224.55 294.1 225.55 294.55 225.65 Q293.65 226.35 293.65 226.6 293.65 227.4 294.5 227.6 L299.5 227.8 Q301.25 227.8 301.25 226.95 300.85 227.25 299.6 226.55 L301.85 226.95 Q305.35 227.15 308.15 226.25 L302.05 232.6 296.65 232.6 296.65 229.3 290.6 231.9 278.65 229.3 278.65 223.9 272.8 225.1 265.3 222.05 268.6 217.6 264.15 218.3 264.5 217.15 Q264.5 216.45 263.65 216.25 L263.75 216.1 Q265.9 215.15 265.9 214.55 L265.7 214.25 Q266.4 214.05 266.4 213.05 L266.45 212.5 266.6 212.15 267.8 211.0 Q263.65 207.1 262.35 207.1 259.7 207.1 257.7 208.3 256.0 209.25 256.0 210.05 256.0 210.65 256.45 210.75 L262.3 211.25 262.65 212.3 262.65 212.35 Q261.5 212.95 260.1 214.3 257.85 216.5 257.85 216.9 257.85 217.55 258.4 217.8 L258.2 219.25 255.0 219.7 248.45 214.1 248.45 209.2 243.1 211.5 240.35 202.65 243.45 197.25 Q246.2 198.55 248.95 199.8 L249.8 198.3 251.65 195.3 M203.65 186.1 L208.0 187.6 209.75 187.6 211.65 188.3 209.75 187.6 Q207.1 180.35 205.05 182.1 L203.65 186.1 Q201.15 185.0 198.65 185.25 201.15 185.0 203.65 186.1 M180.4 214.95 Q190.35 213.5 192.3 216.9 190.35 213.5 180.4 214.95 M163.1 243.4 L159.1 240.15 162.8 232.6 Q164.7 235.8 167.05 237.1 L167.05 242.4 170.3 245.45 164.65 244.65 163.1 243.4 M308.65 229.5 L308.85 230.0 Q309.15 230.6 309.65 230.6 L310.75 230.55 306.5 232.35 308.65 229.5 M270.35 216.4 Q270.35 215.5 269.5 215.5 268.6 215.5 268.6 216.4 268.6 217.25 269.5 217.25 270.35 217.25 270.35 216.4 M271.8 221.6 Q271.25 221.6 270.6 222.25 270.0 222.9 270.0 223.3 L270.1 223.8 Q270.35 224.3 271.35 224.3 273.15 224.3 273.15 222.95 273.25 221.6 271.8 221.6 M257.7 212.75 Q255.25 212.75 255.25 214.5 L256.6 216.1 Q257.1 216.1 258.0 215.2 L258.9 213.85 Q258.9 212.75 257.7 212.75 M262.0 215.0 Q262.25 214.5 262.75 214.75 L261.85 215.1 262.0 215.0 M260.8 209.15 L262.0 209.05 Q263.8 208.35 262.35 209.1 L260.8 209.15 M222.6 201.45 L220.95 202.55 222.6 201.45 M213.3 207.65 L210.6 203.3 213.3 207.65 209.45 210.2 213.3 207.65 M190.5 197.8 L188.5 202.7 186.95 199.9 188.5 202.7 190.5 197.8 M187.1 206.0 L188.5 202.7 192.55 209.6 188.5 202.7 187.1 206.0 M194.05 214.4 Q189.1 211.55 183.55 212.35 189.1 211.55 194.05 214.4" fill="#61553f" fill-rule="evenodd" stroke="none"/>
    <path d="M209.75 187.6 L208.0 187.6 203.65 186.1 205.05 182.1 Q207.1 180.35 209.75 187.6 M234.45 200.1 L231.4 189.55 Q235.15 185.65 238.85 186.25 L239.8 189.5 240.75 192.8 235.6 204.25 234.45 200.1 M159.85 225.55 L161.25 221.15 168.6 221.15 Q171.6 221.55 173.55 222.75 L171.95 229.75 166.1 231.9 159.85 225.55" fill="#ffcccc" fill-rule="evenodd" stroke="none"/>
    <path d="M242.1 183.0 Q244.2 184.3 245.1 186.35 246.15 188.6 245.75 191.8 L245.25 194.15 243.45 197.25 240.35 202.65 243.1 211.5 248.45 209.2 248.45 214.1 255.0 219.7 258.2 219.25 258.15 219.35 Q259.0 219.65 259.75 219.35 259.75 220.35 260.65 220.35 262.55 220.35 263.65 219.0 L264.15 218.3 268.6 217.6 265.3 222.05 272.8 225.1 278.65 223.9 278.65 229.3 290.6 231.9 296.65 229.3 296.65 232.6 302.05 232.6 308.15 226.25 309.65 225.65 312.4 223.95 314.25 222.05 311.5 225.75 310.5 226.5 Q309.5 227.45 309.5 227.9 L309.7 228.15 309.6 228.25 Q308.6 228.5 308.6 229.3 L308.65 229.5 306.5 232.35 310.75 230.55 311.6 230.15 Q314.1 229.95 314.8 229.5 L315.35 229.55 315.4 229.55 Q319.35 226.85 320.8 227.4 L312.15 235.35 297.15 237.45 289.9 238.9 272.1 236.05 264.4 237.7 248.5 230.45 235.85 230.45 235.15 232.35 Q246.8 240.05 238.65 240.05 L230.95 235.85 Q235.3 249.0 229.75 244.75 L226.25 237.2 217.1 234.3 216.4 234.3 210.75 234.0 211.45 233.75 Q208.55 233.15 205.35 234.75 203.7 235.6 203.0 236.45 L202.55 236.6 191.95 246.7 180.3 252.55 175.65 250.5 Q176.05 250.25 176.05 249.75 176.05 248.5 174.65 248.05 173.7 247.7 173.25 247.0 L172.8 240.25 172.75 239.25 173.4 236.3 174.25 232.9 174.25 232.65 177.35 229.2 177.25 228.3 180.5 230.55 189.25 224.4 192.3 219.4 192.75 218.6 Q192.7 217.6 192.3 216.9 L196.55 219.7 196.05 215.75 194.05 214.4 200.25 212.95 209.65 216.45 216.1 212.2 215.0 206.55 220.95 202.55 215.0 206.55 210.6 203.3 210.45 203.05 202.4 201.45 204.0 198.2 211.05 198.2 219.2 201.95 220.95 202.55 227.4 204.75 232.1 204.75 228.8 196.1 234.45 200.1 235.6 204.25 240.75 192.8 239.8 189.5 242.1 183.0 M218.95 216.8 L216.1 212.2 218.95 216.8 M314.0 230.9 L315.35 229.55 314.0 230.9 M235.85 230.45 L240.55 216.9 237.2 208.0 240.35 202.65 237.2 208.0 240.55 216.9 235.85 230.45 M210.45 203.05 L209.45 201.45 210.45 203.05 M171.05 236.15 L171.05 237.4 171.1 239.75 170.75 241.9 171.05 246.35 Q171.2 247.3 171.5 248.05 L171.5 248.5 170.2 247.55 Q166.75 245.0 165.85 245.0 L165.3 245.2 164.65 244.65 170.3 245.45 167.05 242.4 167.05 237.1 Q168.15 237.75 169.35 237.95 L171.05 236.15" fill="#413829" fill-rule="evenodd" stroke="none"/>
    <path d="M217.1 234.3 L217.15 234.65 216.4 234.3 217.1 234.3 M217.25 235.75 Q217.9 243.95 210.95 250.35 212.0 246.65 205.75 248.35 L207.55 246.25 Q210.7 242.05 210.0 237.9 210.7 242.05 207.55 246.25 207.4 240.4 200.75 245.35 203.35 242.05 203.1 238.8 L203.25 238.8 203.65 238.6 203.75 238.6 Q204.8 238.6 204.85 237.35 205.95 236.05 206.85 236.05 L207.85 236.75 209.65 236.5 209.8 237.45 210.0 237.9 Q210.3 238.3 210.75 238.3 211.1 238.3 212.3 237.2 213.5 236.1 215.3 236.1 L217.25 235.75 M202.65 236.9 L202.55 236.6 203.0 236.45 202.65 236.9" fill="#ff8080" fill-rule="evenodd" stroke="none"/>
    <path d="M173.55 222.75 Q176.6 224.55 177.25 228.3 L177.35 229.2 174.25 232.65 Q174.05 231.9 173.05 231.9 172.45 231.9 171.75 232.35 171.05 232.8 171.05 233.25 L171.2 233.85 171.05 235.05 171.05 236.15 169.35 237.95 Q168.15 237.75 167.05 237.1 164.7 235.8 162.8 232.6 161.15 229.8 159.85 225.55 L166.1 231.9 171.95 229.75 173.55 222.75 M210.95 250.35 L201.45 259.85 Q193.6 261.45 197.05 248.9 199.3 247.1 200.75 245.35 207.4 240.4 207.55 246.25 L205.75 248.35 Q212.0 246.65 210.95 250.35 M204.35 249.65 L205.75 248.35 204.35 249.65" fill="#ff9999" fill-rule="evenodd" stroke="none"/>
    <path d="M341.9 196.1 L342.55 192.3 341.4 190.7 340.35 193.55 338.35 198.85 341.25 199.9 341.9 196.1 347.45 186.45 346.3 184.6 344.25 183.2 343.25 183.2 340.3 190.45 340.35 193.55 M344.25 183.2 Q344.65 170.55 346.3 173.6 L346.3 184.6 M333.7 206.0 L335.3 204.5 336.7 207.3 341.85 205.2 341.85 199.9 341.25 199.9 M333.7 206.0 L334.85 202.15 338.35 198.85 M325.7 209.85 L325.7 207.3 329.9 205.4 332.1 207.5 333.7 206.0 M325.7 209.85 L327.1 208.95 330.85 212.45 330.85 214.3 330.85 216.2 328.8 217.05 332.95 217.6 336.0 214.3 335.15 211.95 334.35 209.65 332.1 207.5 M326.5 213.6 L324.3 210.75 323.6 209.85 318.25 212.2 318.3 214.8 319.6 213.85 321.95 215.5 321.95 217.8 321.95 220.15 320.85 221.4 Q324.8 222.4 326.7 217.9 L327.55 215.0 326.5 213.6 M328.8 217.05 L326.7 217.9 M324.3 210.75 L325.7 209.85 M336.7 207.3 L335.15 211.95 M168.6 221.15 Q175.25 215.35 180.4 214.95 L183.55 212.35 Q186.35 209.45 187.1 206.0 187.7 203.15 186.95 199.9 186.45 197.85 185.4 195.65 192.05 185.85 198.65 185.25 L203.05 176.8 Q206.45 173.7 208.0 178.1 L211.65 188.3 213.9 188.15 213.9 184.55 218.95 188.85 216.4 181.35 223.9 189.75 229.9 185.4 Q234.85 181.1 238.95 181.65 240.75 182.15 242.1 183.0 244.2 184.3 245.1 186.35 L246.55 181.4 253.4 173.6 261.85 171.05 261.85 173.6 254.35 179.45 251.7 186.15 251.3 187.15 251.6 193.65 251.65 195.3 Q254.3 191.55 254.8 194.2 L253.15 202.15 Q259.9 193.4 263.0 197.0 264.0 198.45 257.6 203.55 L264.25 208.0 264.25 205.2 264.25 199.1 269.1 188.35 278.45 183.2 278.45 186.0 272.6 193.25 272.6 198.9 272.6 201.2 273.95 205.95 275.85 204.7 281.8 189.0 280.1 176.15 281.5 175.0 288.75 190.45 286.35 205.75 285.7 209.85 279.55 218.25 282.45 222.3 287.55 223.55 296.5 213.25 297.65 211.95 297.65 199.35 291.3 184.85 Q291.6 180.2 302.55 198.85 L304.4 210.3 304.9 213.35 303.4 220.15 307.7 217.6 308.5 220.3 310.3 219.1 310.3 215.5 315.65 213.35 316.95 215.7 318.3 214.8 M209.75 187.6 L208.0 187.6 203.65 186.1 Q201.15 185.0 198.65 185.25 M209.75 187.6 L211.65 188.3 M203.65 186.1 L205.05 182.1 Q207.1 180.35 209.75 187.6 M234.45 200.1 L231.4 189.55 Q235.15 185.65 238.85 186.25 L239.8 189.5 240.75 192.8 235.6 204.25 234.45 200.1 M245.1 186.35 Q246.15 188.6 245.75 191.8 L245.25 194.15 243.45 197.25 Q246.2 198.55 248.95 199.8 L249.8 198.3 251.65 195.3 M159.85 225.55 L161.25 221.15 168.6 221.15 Q171.6 221.55 173.55 222.75 176.6 224.55 177.25 228.3 L177.35 229.2 174.25 232.65 M192.3 219.4 L192.75 218.6 Q192.7 217.6 192.3 216.9 190.35 213.5 180.4 214.95 M167.7 253.15 L164.95 254.75 159.8 254.75 157.4 252.4 161.4 246.1 163.1 243.4 159.1 240.15 162.8 232.6 Q161.15 229.8 159.85 225.55 M310.3 219.1 L311.9 218.05 312.15 221.0 312.4 223.95 309.65 225.65 308.15 226.25 Q305.35 227.15 301.85 226.95 L302.6 223.55 303.4 220.15 M316.95 215.75 L316.95 215.7 M316.95 215.75 L318.2 218.05 319.4 222.95 315.4 229.55 315.35 229.55 314.0 230.9 M296.05 221.9 L299.95 219.45 Q302.05 221.1 296.5 224.3 L296.05 224.55 294.1 225.55 294.55 225.65 M299.6 226.55 L301.85 226.95 M292.0 223.35 L288.25 223.65 287.55 223.55 M315.4 229.55 Q319.35 226.85 320.8 227.4 L312.15 235.35 297.15 237.45 289.9 238.9 272.1 236.05 264.4 237.7 248.5 230.45 235.85 230.45 235.15 232.35 Q246.8 240.05 238.65 240.05 L230.95 235.85 Q235.3 249.0 229.75 244.75 L226.25 237.2 217.1 234.3 217.15 234.65 M217.25 235.75 Q217.9 243.95 210.95 250.35 L201.45 259.85 Q193.6 261.45 197.05 248.9 199.3 247.1 200.75 245.35 203.35 242.05 203.1 238.8 M202.65 236.9 L202.55 236.6 191.95 246.7 180.3 252.55 175.65 250.5 M168.85 252.45 L167.7 253.15 M165.0 247.7 L159.8 254.75 M320.85 221.4 L319.4 222.95 M314.8 229.5 L315.35 229.55 M311.5 225.75 L314.25 222.05 312.4 223.95 M309.3 223.05 L309.65 225.65 M309.7 228.15 L309.6 228.25 M308.5 220.3 L309.3 223.05 M269.3 208.95 L273.95 205.95 M264.25 208.0 L265.85 209.05 267.45 210.1 269.3 208.95 M240.35 202.65 L237.2 208.0 240.55 216.9 235.85 230.45 M279.55 218.25 L277.95 220.4 Q280.05 221.5 282.45 222.3 M267.45 210.1 Q272.8 214.4 279.15 213.15 L271.65 215.95 Q274.45 218.6 277.95 220.4 M194.05 214.4 L196.05 215.75 M216.4 234.3 L217.1 234.3 M210.0 237.9 Q210.7 242.05 207.55 246.25 L205.75 248.35 204.35 249.65 M202.55 236.6 L203.0 236.45 M183.55 212.35 Q189.1 211.55 194.05 214.4 M171.05 236.15 L169.35 237.95 Q168.15 237.75 167.05 237.1 164.7 235.8 162.8 232.6 M164.65 244.65 L165.3 245.2 M163.1 243.4 L164.65 244.65 M165.5 247.0 L165.0 247.7 M243.45 197.25 L240.35 202.65" fill="none" stroke="#000000" stroke-linecap="round" stroke-linejoin="round" stroke-opacity="0.4" stroke-width="0.05"/>
    <path d="M220.95 202.55 L215.0 206.55 213.3 207.65 216.1 212.2 218.95 216.8 M220.95 202.55 L222.6 201.45 M209.45 201.45 L210.45 203.05 210.6 203.3 213.3 207.65 209.45 210.2 M192.55 209.6 L188.5 202.7 187.1 206.0 M186.95 199.9 L188.5 202.7 190.5 197.8" fill="none" stroke="#000000" stroke-linecap="round" stroke-linejoin="round" stroke-width="1.0"/>
  </g>
</svg>
