<?xml version="1.0" encoding="UTF-8" standalone="no"?>
<svg xmlns:xlink="http://www.w3.org/1999/xlink" height="54.6px" width="58.0px" xmlns="http://www.w3.org/2000/svg">
  <g transform="matrix(1.0, 0.0, 0.0, 1.0, -206.55, -60.2)">
    <path d="M239.35 63.05 L239.7 62.6 Q241.3 61.1 243.6 61.0 L244.4 61.05 Q246.1 61.2 247.45 62.4 249.05 63.8 249.1 65.9 249.15 68.0 247.6 73.55 L246.95 75.55 246.8 75.9 246.15 77.25 245.8 77.65 244.8 78.55 244.2 78.7 244.8 78.55 245.8 77.65 246.15 77.25 246.8 75.9 246.95 75.55 249.5 75.3 Q255.45 73.65 257.7 73.55 260.0 73.5 261.55 74.9 263.15 76.35 263.2 78.45 263.3 80.55 261.75 82.1 L261.25 82.55 Q262.75 83.15 263.6 84.5 264.45 85.75 264.45 87.15 L264.25 88.3 Q263.65 90.35 261.7 91.5 259.7 92.6 257.55 92.15 256.6 91.95 254.85 90.7 L252.4 88.6 251.65 87.95 249.25 85.6 Q247.2 83.6 246.4 82.4 L246.3 82.35 Q245.55 81.2 245.95 80.9 246.1 80.75 246.4 80.75 L247.9 81.1 249.15 81.5 250.5 81.8 255.25 82.15 Q258.0 81.7 260.25 82.2 L261.25 82.55 260.25 82.2 Q258.0 81.7 255.25 82.15 L250.5 81.8 249.15 81.5 247.9 81.1 246.4 80.75 Q246.1 80.75 245.95 80.9 244.5 80.0 244.25 79.0 L244.2 78.7 243.9 78.65 Q243.15 80.0 242.1 79.35 L241.9 77.1 241.45 75.4 241.05 74.5 240.15 71.4 Q239.8 69.8 239.95 68.6 240.35 66.05 239.7 64.05 L239.35 63.05 239.7 64.05 Q240.35 66.05 239.95 68.6 239.8 69.8 240.15 71.4 L241.05 74.5 241.45 75.4 241.9 77.1 242.1 79.35 Q241.15 79.05 238.55 76.8 L238.25 76.55 Q235.4 73.95 234.45 72.6 L232.7 71.15 Q235.4 72.8 238.1 73.65 238.6 72.85 238.3 71.85 236.5 67.15 232.9 63.6 L231.3 63.0 230.85 63.0 229.35 63.35 229.6 63.0 Q230.25 61.95 231.25 61.3 232.0 60.85 232.9 60.55 L235.0 60.35 237.05 60.95 Q238.6 61.75 239.35 63.05 M254.25 78.05 Q257.0 78.25 258.15 77.35 L257.75 77.0 Q253.65 75.0 249.65 77.2 L253.35 78.0 254.25 78.05 M245.4 71.65 L245.2 71.65 Q244.1 73.0 243.6 74.35 L244.35 74.9 244.7 74.45 Q245.65 73.0 245.4 71.65 M260.1 86.55 Q257.1 85.35 253.8 85.6 L253.55 87.3 253.9 87.55 Q256.85 89.0 260.0 88.7 L260.35 86.8 260.1 86.55" fill="#526501" fill-rule="evenodd" stroke="none"/>
    <path d="M227.75 89.65 L227.55 89.1 227.7 89.25 227.75 89.65 M221.55 105.8 L221.4 105.9 221.0 105.7 221.55 105.8" fill="#e98103" fill-rule="evenodd" stroke="none"/>
    <path d="M206.95 108.3 Q206.6 106.9 206.65 105.15 206.7 100.65 209.7 94.35 L210.3 93.0 211.05 91.6 Q213.85 86.0 216.4 82.2 217.55 80.5 218.65 79.15 L220.25 79.4 Q220.1 80.75 219.25 81.9 217.95 85.35 219.55 89.0 220.8 92.35 222.45 95.15 L222.0 94.95 Q220.55 94.15 219.8 92.05 L219.1 90.55 218.95 90.4 217.75 87.55 216.8 85.0 Q213.3 90.05 210.85 96.15 208.2 102.15 206.95 108.3 M216.4 82.2 L216.6 83.35 216.95 84.85 217.75 87.55 216.95 84.85 216.6 83.35 216.4 82.2 M213.75 98.65 L213.95 98.6 213.7 98.4 214.25 98.5 213.95 98.6 Q217.3 100.95 221.4 103.05 222.4 103.65 222.95 104.8 L222.95 104.9 Q222.7 105.85 221.55 105.8 L221.0 105.7 Q216.3 102.75 213.75 98.65 M231.25 94.85 L230.1 93.8 Q228.35 91.8 227.75 89.65 L227.7 89.25 Q231.65 91.7 236.0 91.25 L237.5 91.35 237.65 91.35 Q237.8 92.6 236.9 93.95 L235.75 95.4 Q233.25 96.25 231.25 94.85 229.45 92.6 227.75 89.65 229.45 92.6 231.25 94.85 M227.55 89.1 L227.55 89.05 227.7 88.8 227.7 89.25 227.55 89.1 M222.0 94.95 Q220.3 92.95 219.1 90.55 220.3 92.95 222.0 94.95" fill="#fcaf63" fill-rule="evenodd" stroke="none"/>
    <path d="M232.7 71.15 L231.15 69.7 229.45 67.65 229.1 66.95 228.9 65.7 229.0 64.5 Q229.1 63.95 229.35 63.35 L230.85 63.0 231.3 63.0 232.9 63.6 Q236.5 67.15 238.3 71.85 238.6 72.85 238.1 73.65 235.4 72.8 232.7 71.15 M245.4 71.65 Q245.65 73.0 244.7 74.45 L244.35 74.9 243.6 74.35 Q244.1 73.0 245.2 71.65 L245.4 71.65 M254.25 78.05 L253.35 78.0 249.65 77.2 Q253.65 75.0 257.75 77.0 L258.15 77.35 Q257.0 78.25 254.25 78.05 M260.1 86.55 L260.35 86.8 260.0 88.7 Q256.85 89.0 253.9 87.55 L253.55 87.3 253.8 85.6 Q257.1 85.35 260.1 86.55" fill="#839502" fill-rule="evenodd" stroke="none"/>
    <path d="M228.4 111.65 Q220.1 115.15 214.8 114.65 211.3 114.3 209.2 112.2 L208.45 111.35 Q213.85 109.5 219.25 107.3 L221.4 105.9 Q223.55 107.25 226.2 108.3 L229.15 109.4 226.2 108.3 Q223.55 107.25 221.4 105.9 L221.55 105.8 Q222.7 105.85 222.95 104.9 L223.05 105.05 223.95 105.6 225.9 105.35 Q228.45 104.5 230.2 103.25 L231.3 103.1 231.25 94.85 Q233.25 96.25 235.75 95.4 L236.9 93.95 Q237.8 92.6 237.65 91.35 L237.5 91.35 237.55 91.25 Q237.8 87.95 237.1 84.95 234.65 76.3 225.7 73.7 228.9 72.45 232.75 72.55 L234.45 72.6 Q235.4 73.95 238.25 76.55 L238.55 76.8 236.5 76.65 236.35 76.65 235.7 76.15 240.0 79.2 Q242.4 82.2 241.7 86.1 241.2 88.75 242.35 90.85 L243.95 90.95 244.65 90.3 244.7 89.85 244.7 89.6 Q244.85 89.5 245.1 89.35 L245.45 89.2 245.7 89.2 247.75 91.8 248.65 92.55 Q247.8 95.75 245.15 97.7 241.9 100.1 238.6 100.95 L238.95 101.05 Q239.3 101.05 239.55 101.4 L239.85 101.85 240.15 102.75 240.15 102.85 238.95 103.55 238.0 104.0 238.0 104.1 237.75 105.3 Q234.95 108.95 229.7 109.05 L229.25 109.1 229.15 109.4 228.4 111.65 M234.55 103.1 L238.0 104.1 234.55 103.1 M239.55 101.4 Q235.05 99.7 231.25 94.85 235.05 99.7 239.55 101.4" fill="#ba6702" fill-rule="evenodd" stroke="none"/>
    <path d="M242.1 79.35 Q243.15 80.0 243.9 78.65 L244.25 79.0 Q244.5 80.0 245.95 80.9 245.55 81.2 246.3 82.35 L246.4 82.4 Q247.2 83.6 249.25 85.6 L251.65 87.95 251.8 89.35 Q252.3 96.2 247.45 100.9 L245.95 102.2 242.05 104.9 Q238.0 107.4 231.95 110.1 L229.45 111.2 228.55 111.6 228.4 111.65 229.15 109.4 229.25 109.1 229.7 109.05 Q234.95 108.95 237.75 105.3 L238.0 104.1 238.0 104.0 238.95 103.55 240.15 102.85 240.15 102.75 239.85 101.85 239.55 101.4 Q239.3 101.05 238.95 101.05 L238.6 100.95 Q241.9 100.1 245.15 97.7 247.8 95.75 248.65 92.55 L247.75 91.8 245.7 89.2 245.45 89.2 245.1 89.35 Q244.85 89.5 244.7 89.6 L244.7 89.85 244.65 90.3 243.95 90.95 242.35 90.85 Q241.2 88.75 241.7 86.1 242.4 82.2 240.0 79.2 L235.7 76.15 236.35 76.65 236.5 76.65 238.55 76.8 Q241.15 79.05 242.1 79.35 M245.95 102.2 Q242.6 102.55 239.55 101.4 242.6 102.55 245.95 102.2 M242.05 104.9 L238.0 104.1 242.05 104.9 M231.95 110.1 L229.15 109.4 231.95 110.1" fill="#884402" fill-rule="evenodd" stroke="none"/>
    <path d="M208.45 111.35 Q207.4 110.0 206.95 108.3 208.2 102.15 210.85 96.15 213.3 90.05 216.8 85.0 L217.75 87.55 218.95 90.4 219.1 90.55 219.8 92.05 Q220.55 94.15 222.0 94.95 L222.45 95.15 Q220.8 92.35 219.55 89.0 217.95 85.35 219.25 81.9 220.1 80.75 220.25 79.4 L218.65 79.15 220.55 77.1 Q222.8 74.85 225.7 73.7 234.65 76.3 237.1 84.95 237.8 87.95 237.55 91.25 L237.5 91.35 236.0 91.25 Q231.65 91.7 227.7 89.25 L227.7 88.8 227.55 89.05 227.55 89.1 227.75 89.65 Q228.35 91.8 230.1 93.8 L231.25 94.85 231.3 103.1 230.2 103.25 Q228.45 104.5 225.9 105.35 L223.95 105.6 223.05 105.05 222.95 104.9 222.95 104.8 Q222.4 103.65 221.4 103.05 217.3 100.95 213.95 98.6 L214.25 98.5 213.7 98.4 213.95 98.6 213.75 98.65 Q216.3 102.75 221.0 105.7 L221.4 105.9 219.25 107.3 Q213.85 109.5 208.45 111.35 M223.55 96.6 L222.0 94.95 223.55 96.6" fill="#f99735" fill-rule="evenodd" stroke="none"/>
    <path d="M246.95 75.55 L247.6 73.55 Q249.15 68.0 249.1 65.9 249.05 63.8 247.45 62.4 246.1 61.2 244.4 61.05 L243.6 61.0 Q241.3 61.1 239.7 62.6 L239.35 63.05 239.7 64.05 Q240.35 66.05 239.95 68.6 239.8 69.8 240.15 71.4 L241.05 74.5 241.45 75.4 241.9 77.1 242.1 79.35 Q243.15 80.0 243.9 78.65 L244.2 78.7 244.8 78.55 245.8 77.65 246.15 77.25 246.8 75.9 246.95 75.55 249.5 75.3 Q255.45 73.65 257.7 73.55 260.0 73.5 261.55 74.9 263.15 76.35 263.2 78.45 263.3 80.55 261.75 82.1 L261.25 82.55 Q262.75 83.15 263.6 84.5 264.45 85.75 264.45 87.15 L264.25 88.3 Q263.65 90.35 261.7 91.5 259.7 92.6 257.55 92.15 256.6 91.95 254.85 90.7 L252.4 88.6 251.65 87.95 251.8 89.35 Q252.3 96.2 247.45 100.9 L245.95 102.2 242.05 104.9 Q238.0 107.4 231.95 110.1 L229.45 111.2 228.55 111.6 228.4 111.65 Q220.1 115.15 214.8 114.65 211.3 114.3 209.2 112.2 L208.45 111.35 Q207.4 110.0 206.95 108.3 206.6 106.9 206.65 105.15 206.7 100.65 209.7 94.35 L210.3 93.0 211.05 91.6 Q213.85 86.0 216.4 82.2 217.55 80.5 218.65 79.15 L220.55 77.1 Q222.8 74.85 225.7 73.7 228.9 72.45 232.75 72.55 L234.45 72.6 232.7 71.15 231.15 69.7 229.45 67.65 229.1 66.95 228.9 65.7 229.0 64.5 Q229.1 63.95 229.35 63.35 L229.6 63.0 Q230.25 61.95 231.25 61.3 232.0 60.85 232.9 60.55 L235.0 60.35 237.05 60.95 Q238.6 61.75 239.35 63.05 M261.25 82.55 L260.25 82.2 Q258.0 81.7 255.25 82.15 L250.5 81.8 249.15 81.5 247.9 81.1 246.4 80.75 Q246.1 80.75 245.95 80.9 245.55 81.2 246.3 82.35 L246.4 82.4 Q247.2 83.6 249.25 85.6 L251.65 87.95 M244.25 79.0 L244.2 78.7 M244.25 79.0 Q244.5 80.0 245.95 80.9 M239.55 101.4 Q242.6 102.55 245.95 102.2 M217.75 87.55 L216.95 84.85 216.6 83.35 216.4 82.2 M219.1 90.55 L218.95 90.4 217.75 87.55 M227.75 89.65 L227.55 89.1 227.55 89.05 M219.1 90.55 Q220.3 92.95 222.0 94.95 L223.55 96.6 M242.1 79.35 Q241.15 79.05 238.55 76.8 L238.25 76.55 Q235.4 73.95 234.45 72.6 M227.75 89.65 Q229.45 92.6 231.25 94.85 235.05 99.7 239.55 101.4 M238.0 104.1 L242.05 104.9 M229.15 109.4 L231.95 110.1 M238.0 104.1 L234.55 103.1 M229.15 109.4 L226.2 108.3 Q223.55 107.25 221.4 105.9 L221.0 105.7 Q216.3 102.75 213.75 98.65" fill="none" stroke="#100f07" stroke-linecap="round" stroke-linejoin="round" stroke-opacity="0.5137255" stroke-width="0.25"/>
  </g>
</svg>
