<?xml version="1.0" encoding="UTF-8" standalone="no"?>
<svg xmlns:xlink="http://www.w3.org/1999/xlink" height="50.0px" width="122.0px" xmlns="http://www.w3.org/2000/svg">
  <g transform="matrix(1.0, 0.0, 0.0, 1.0, -164.0, -136.0)">
    <path d="M164.0 161.0 Q164.0 150.65 181.85 143.3 199.75 136.0 225.0 136.0 250.25 136.0 268.1 143.3 286.0 150.65 286.0 161.0 286.0 171.35 268.1 178.65 250.25 186.0 225.0 186.0 199.75 186.0 181.85 178.65 164.0 171.35 164.0 161.0 M181.6 158.5 Q181.6 165.75 194.1 170.85 206.65 176.0 224.3 176.0 242.0 176.0 254.5 170.85 267.0 165.75 267.0 158.5 267.0 151.25 254.5 146.1 242.0 141.0 224.3 141.0 206.65 141.0 194.1 146.1 181.6 151.25 181.6 158.5" fill="#ffffcc" fill-rule="evenodd" stroke="none"/>
  </g>
</svg>
