<?xml version="1.0" encoding="UTF-8" standalone="no"?>
<svg xmlns:xlink="http://www.w3.org/1999/xlink" height="201.65px" width="98.75px" xmlns="http://www.w3.org/2000/svg">
  <g transform="matrix(1.0, 0.0, 0.0, 1.0, 49.35, 100.8)">
    <path d="M2.8 84.4 L2.4 84.5 2.35 84.1 2.8 84.4" fill="#c60000" fill-rule="evenodd" stroke="none"/>
    <path d="M-3.6 6.9 L-3.65 6.65 -3.65 6.6 -3.5 6.6 -2.8 9.75 -3.6 6.9 M18.45 61.7 L18.15 61.25 18.6 61.7 18.45 61.7" fill="#f40b0b" fill-rule="evenodd" stroke="none"/>
    <path d="M3.95 -33.85 Q7.85 -12.85 11.95 4.1 L12.05 4.85 Q20.25 44.85 43.55 60.95 L48.9 64.3 43.55 64.5 39.4 65.2 Q25.25 54.95 14.35 40.6 L14.15 40.3 14.25 40.65 Q21.15 60.4 32.05 68.8 L32.1 68.85 29.25 70.75 Q23.05 66.1 18.6 61.7 L18.3 61.2 Q6.3 42.7 -2.6 9.95 L-2.65 9.75 -3.5 6.6 -3.85 5.3 -6.35 -6.45 Q-8.15 -14.9 -9.6 -24.15 L3.95 -33.85 M2.4 84.5 Q-3.9 86.05 -8.75 88.05 -14.85 88.1 -21.7 76.9 -22.55 86.45 -19.85 94.5 -22.8 97.15 -24.2 100.35 -42.55 92.0 -42.9 43.65 L-42.75 42.8 Q-43.6 22.45 -43.2 -2.8 L-27.45 -13.0 -26.95 -7.75 -26.6 -3.35 -26.5 -2.05 -23.75 39.0 Q-21.95 54.95 -14.0 68.85 -5.75 80.05 -0.95 81.45 L-0.2 82.2 2.35 84.1 2.4 84.5 M-43.0 -26.45 L-42.55 -58.6 -42.65 -59.6 Q-43.75 -68.8 -48.85 -78.35 L-48.25 -78.5 -45.05 -79.5 Q-40.2 -81.3 -35.65 -83.45 -30.85 -75.7 -29.35 -66.5 L-28.2 -53.6 -28.05 -35.65 -43.0 -26.45 M-22.5 -91.1 Q-16.35 -95.25 -11.15 -100.3 -8.3 -96.0 -6.6 -90.8 L-6.25 -89.9 0.3 -53.75 -12.15 -45.05 -14.5 -66.75 -17.0 -79.65 Q-19.0 -85.9 -22.5 -91.1" fill="url(#gradient0)" fill-rule="evenodd" stroke="none"/>
    <path d="M-2.8 9.75 L-2.75 9.95 -0.3 20.65 Q3.35 35.75 8.85 48.35 11.55 54.55 18.15 61.25 L18.45 61.7 Q11.45 54.75 8.7 48.35 3.2 35.75 -0.45 20.65 L-3.6 6.9 -2.8 9.75" fill="#f2e3b0" fill-rule="evenodd" stroke="none"/>
    <path d="M-3.5 6.6 L-2.65 9.75 -2.6 9.95 -2.75 9.95 -2.8 9.75 -3.5 6.6 M18.3 61.2 L18.6 61.7 18.15 61.25 18.3 61.2 M14.35 40.6 L14.25 40.65 14.15 40.3 14.35 40.6" fill="#000000" fill-opacity="0.2" fill-rule="evenodd" stroke="none"/>
    <path d="M-0.95 81.45 Q-5.75 80.05 -14.0 68.85 -21.95 54.95 -23.75 39.0 L-26.5 -2.05 Q-25.2 12.95 -23.4 24.75 -21.7 36.5 -16.2 56.0 -11.5 72.5 -0.95 81.45" fill="url(#gradient1)" fill-rule="evenodd" stroke="none"/>
    <path d="M-2.6 9.95 Q6.3 42.7 18.3 61.2 L18.15 61.25 Q11.55 54.55 8.85 48.35 3.35 35.75 -0.3 20.65 L-2.75 9.95 -2.6 9.95" fill="url(#gradient2)" fill-rule="evenodd" stroke="none"/>
    <path d="M39.4 65.2 Q36.35 65.9 34.6 67.1 L32.1 68.85 32.05 68.8 Q21.15 60.4 14.25 40.65 L14.35 40.6 Q25.25 54.95 39.4 65.2" fill="url(#gradient3)" fill-rule="evenodd" stroke="none"/>
    <path d="M-8.75 88.05 Q-13.6 89.95 -17.0 92.3 L-19.2 93.9 -19.85 94.5 Q-22.55 86.45 -21.7 76.9 -14.85 88.1 -8.75 88.05" fill="url(#gradient4)" fill-rule="evenodd" stroke="none"/>
    <path d="M0.3 -53.75 L1.75 -45.55 2.1 -44.05 3.95 -33.85 -9.6 -24.15 Q-8.15 -14.9 -6.35 -6.45 L-3.85 5.3 -3.5 6.6 -3.65 6.6 -3.65 6.65 -3.6 6.9 -0.45 20.65 Q3.2 35.75 8.7 48.35 11.45 54.75 18.45 61.7 L18.6 61.7 Q23.05 66.1 29.25 70.75 L34.3 86.15 11.25 85.55 2.8 84.4 2.35 84.1 -0.2 82.2 -0.95 81.45 Q-11.5 72.5 -16.2 56.0 -21.7 36.5 -23.4 24.75 -25.2 12.95 -26.5 -2.05 L-26.6 -3.35 -26.95 -7.75 -27.45 -13.0 -43.2 -2.8 -43.1 -9.2 -43.2 -10.8 -43.0 -26.45 -28.05 -35.65 -28.2 -53.6 -29.35 -66.5 Q-30.85 -75.7 -35.65 -83.45 -28.6 -86.8 -22.5 -91.1 -19.0 -85.9 -17.0 -79.65 L-14.5 -66.75 -12.15 -45.05 0.3 -53.75 M-12.75 48.05 Q-10.75 65.25 -4.3 71.2 L1.2 76.5 Q1.3 72.4 6.8 68.85 15.2 63.55 18.95 66.2 11.35 59.3 5.0 48.65 -1.65 37.3 -12.3 -4.95 -8.1 29.7 -0.2 58.9 -6.5 59.45 -12.75 48.05" fill="url(#gradient5)" fill-rule="evenodd" stroke="none"/>
    <path d="M-12.75 48.05 Q-6.5 59.45 -0.2 58.9 -8.1 29.7 -12.3 -4.95 -1.65 37.3 5.0 48.65 11.35 59.3 18.95 66.2 15.2 63.55 6.8 68.85 1.3 72.4 1.2 76.5 L-4.3 71.2 Q-10.75 65.25 -12.75 48.05" fill="url(#gradient6)" fill-rule="evenodd" stroke="none"/>
    <path d="M0.3 -53.75 L1.75 -45.55 2.1 -44.05 3.95 -33.85 Q7.85 -12.85 11.95 4.1 L12.05 4.85 Q20.25 44.85 43.55 60.95 L48.9 64.3 43.55 64.5 39.4 65.2 Q36.35 65.9 34.6 67.1 L32.1 68.85 29.25 70.75 34.3 86.15 11.25 85.55 2.8 84.4 2.4 84.5 Q-3.9 86.05 -8.75 88.05 -13.6 89.95 -17.0 92.3 L-19.2 93.9 -19.85 94.5 Q-22.8 97.15 -24.2 100.35 -42.55 92.0 -42.9 43.65 L-42.75 42.8 Q-43.6 22.45 -43.2 -2.8 L-43.1 -9.2 -43.2 -10.8 -43.0 -26.45 -42.55 -58.6 -42.65 -59.6 Q-43.75 -68.8 -48.85 -78.35 M-35.65 -83.45 Q-28.6 -86.8 -22.5 -91.1 -19.0 -85.9 -17.0 -79.65 L-14.5 -66.75 -12.15 -45.05 M-11.15 -100.3 Q-8.3 -96.0 -6.6 -90.8 L-6.25 -89.9 0.3 -53.75 M-28.05 -35.65 L-28.2 -53.6 -29.35 -66.5 Q-30.85 -75.7 -35.65 -83.45 M-26.5 -2.05 L-26.6 -3.35 -26.95 -7.75 -27.45 -13.0 M-3.5 6.6 L-3.85 5.3 -6.35 -6.45 Q-8.15 -14.9 -9.6 -24.15 M18.6 61.7 Q23.05 66.1 29.25 70.75 M-2.75 9.95 L-2.8 9.75 -3.5 6.6 M2.35 84.1 L-0.2 82.2 -0.95 81.45 Q-11.5 72.5 -16.2 56.0 -21.7 36.5 -23.4 24.75 -25.2 12.95 -26.5 -2.05 M18.6 61.7 L18.15 61.25 M2.35 84.1 L2.8 84.4" fill="none" stroke="#510000" stroke-linecap="round" stroke-linejoin="round" stroke-opacity="0.49019608" stroke-width="0.05"/>
    <path d="M-48.85 -78.35 L-48.25 -78.5 -45.05 -79.5 Q-40.2 -81.3 -35.65 -83.45 M-22.5 -91.1 Q-16.35 -95.25 -11.15 -100.3 M0.3 -53.75 L-12.15 -45.05 M-27.45 -13.0 L-43.2 -2.8 M-9.6 -24.15 L3.95 -33.85 M-43.0 -26.45 L-28.05 -35.65" fill="none" stroke="#000000" stroke-linecap="round" stroke-linejoin="round" stroke-opacity="0.4" stroke-width="0.05"/>
    <path d="M18.15 61.25 Q11.55 54.55 8.85 48.35 3.35 35.75 -0.3 20.65 L-2.75 9.95" fill="none" stroke="#510000" stroke-linecap="round" stroke-linejoin="round" stroke-opacity="0.49019608" stroke-width="0.5"/>
    <path d="M2.1 -44.05 L3.95 -33.85 Q7.85 -12.85 11.95 4.1 L12.05 4.85 Q20.25 44.85 43.55 60.95 L48.9 64.3 43.55 64.5 39.4 65.2 Q36.35 65.9 34.6 67.1 L32.1 68.85 29.25 70.75 34.3 86.15 11.25 85.55 2.8 84.4 2.4 84.5 Q-3.9 86.05 -8.75 88.05 -13.6 89.95 -17.0 92.3 L-19.2 93.9 -19.85 94.5 Q-22.8 97.15 -24.2 100.35 -42.55 92.0 -42.9 43.65 L-42.75 42.8 Q-43.6 22.45 -43.2 -2.8 L-43.1 -9.2 -43.2 -10.8 -42.55 -58.6 -42.65 -59.6 Q-43.75 -68.8 -48.85 -78.35 L-48.25 -78.5 -45.05 -79.5 Q-40.2 -81.3 -35.65 -83.45 -28.6 -86.8 -22.5 -91.1 -16.35 -95.25 -11.15 -100.3 -8.3 -96.0 -6.6 -90.8 L-6.25 -89.9 1.75 -45.55 2.1 -44.05 Z" fill="none" stroke="#000000" stroke-linecap="round" stroke-linejoin="round" stroke-opacity="0.4" stroke-width="1.0"/>
  </g>
  <defs>
    <linearGradient gradientTransform="matrix(0.0125, 0.0766, -0.0539, 0.0088, -8.8, -11.5)" gradientUnits="userSpaceOnUse" id="gradient0" spreadMethod="pad" x1="-819.2" x2="819.2">
      <stop offset="0.0" stop-color="#fbf4ce"/>
      <stop offset="1.0" stop-color="#d4c294"/>
    </linearGradient>
    <linearGradient gradientTransform="matrix(0.0156, 0.0, 0.0, 0.051, -13.75, 39.7)" gradientUnits="userSpaceOnUse" id="gradient1" spreadMethod="pad" x1="-819.2" x2="819.2">
      <stop offset="0.0" stop-color="#b99f5a"/>
      <stop offset="1.0" stop-color="#a58c49"/>
    </linearGradient>
    <linearGradient gradientTransform="matrix(0.0128, 0.0, 0.0, 0.0313, 7.75, 35.6)" gradientUnits="userSpaceOnUse" id="gradient2" spreadMethod="pad" x1="-819.2" x2="819.2">
      <stop offset="0.0" stop-color="#b99f5a"/>
      <stop offset="1.0" stop-color="#a58c49"/>
    </linearGradient>
    <linearGradient gradientTransform="matrix(0.0154, 0.0, 0.0, 0.0172, 26.8, 54.7)" gradientUnits="userSpaceOnUse" id="gradient3" spreadMethod="pad" x1="-819.2" x2="819.2">
      <stop offset="0.0" stop-color="#b99f5a"/>
      <stop offset="1.0" stop-color="#a58c49"/>
    </linearGradient>
    <linearGradient gradientTransform="matrix(0.008, 0.0, 0.0, 0.0107, -15.35, 85.7)" gradientUnits="userSpaceOnUse" id="gradient4" spreadMethod="pad" x1="-819.2" x2="819.2">
      <stop offset="0.0" stop-color="#b99f5a"/>
      <stop offset="1.0" stop-color="#a58c49"/>
    </linearGradient>
    <linearGradient gradientTransform="matrix(0.0195, 0.0729, -0.0326, 0.0087, -10.05, 14.25)" gradientUnits="userSpaceOnUse" id="gradient5" spreadMethod="pad" x1="-819.2" x2="819.2">
      <stop offset="0.0" stop-color="#f4430b"/>
      <stop offset="1.0" stop-color="#f40b0b"/>
    </linearGradient>
    <linearGradient gradientTransform="matrix(-0.0126, -0.0355, 0.0148, -0.0052, -5.7, 35.2)" gradientUnits="userSpaceOnUse" id="gradient6" spreadMethod="pad" x1="-819.2" x2="819.2">
      <stop offset="0.0" stop-color="#930606"/>
      <stop offset="1.0" stop-color="#c10707"/>
    </linearGradient>
  </defs>
</svg>
