<?xml version="1.0" encoding="UTF-8" standalone="no"?>
<svg xmlns:xlink="http://www.w3.org/1999/xlink" height="140.7px" width="106.25px" xmlns="http://www.w3.org/2000/svg">
  <g transform="matrix(1.0, 0.0, 0.0, 1.0, 53.1, 70.35)">
    <path d="M48.1 -67.35 L43.35 -64.05 42.4 -62.25 24.2 -56.15 9.35 -59.3 3.5 -65.3 8.05 -69.85 13.4 -69.85 25.0 -63.3 Q34.05 -63.55 40.7 -67.35 L48.1 -67.35 M19.8 -63.4 Q22.45 -63.2 25.0 -63.3 22.45 -63.2 19.8 -63.4 L12.15 -66.85 8.2 -66.85 11.8 -64.5 19.8 -63.4" fill="url(#gradient0)" fill-rule="evenodd" stroke="none"/>
    <path d="M42.4 -62.25 L43.35 -64.05 48.1 -67.35 52.65 -60.75 50.95 -58.35 Q50.45 -62.05 46.85 -62.85 L44.75 -59.65 39.8 -52.1 Q24.9 -3.3 17.95 61.75 L17.15 69.15 Q16.85 69.8 15.15 69.85 L23.05 9.8 24.9 -3.8 25.9 -7.8 36.95 -52.1 42.4 -62.25" fill="url(#gradient1)" fill-rule="evenodd" stroke="none"/>
    <path d="M44.75 -59.65 L46.85 -62.85 Q50.45 -62.05 50.95 -58.35 L44.75 -59.65" fill="#544b12" fill-rule="evenodd" stroke="none"/>
    <path d="M42.4 -62.25 L36.95 -52.1 25.9 -7.8 15.6 3.45 17.1 -3.4 10.05 -5.2 12.9 -15.85 0.35 -18.65 -2.4 -8.45 -9.9 -10.4 -13.0 1.4 -5.7 3.8 -8.75 15.1 -4.3 16.7 -21.75 24.95 -27.7 26.1 -25.75 23.85 -23.3 15.1 -31.4 28.25 -33.2 27.5 -20.85 6.45 -11.3 -27.35 3.5 -65.3 9.35 -59.3 24.2 -56.15 42.4 -62.25 M23.05 9.8 L15.15 69.85 5.55 69.15 5.55 65.5 8.05 49.8 -3.95 67.55 -8.0 65.85 -36.9 56.4 -8.95 44.45 23.05 9.8 M29.15 -30.9 Q28.55 -41.1 35.65 -48.4 25.0 -47.05 16.9 -37.2 17.05 -30.75 10.85 -25.35 L10.4 -24.0 Q16.7 -28.35 16.95 -6.25 20.05 -17.8 23.25 -18.15 L23.25 -19.15 Q23.3 -29.0 29.15 -30.9 M11.4 -39.05 Q10.85 -51.75 2.9 -58.4 4.25 -48.45 -2.55 -39.9 1.05 -35.25 -5.0 -26.7 L-5.65 -25.85 Q-3.25 -23.9 -7.85 -12.35 6.05 -31.35 8.55 -24.3 L9.05 -25.7 Q7.25 -33.55 11.4 -39.05 M-23.3 15.1 L-20.85 6.45 -23.3 15.1" fill="url(#gradient2)" fill-rule="evenodd" stroke="none"/>
    <path d="M19.8 -63.4 L11.8 -64.5 8.2 -66.85 12.15 -66.85 19.8 -63.4" fill="url(#gradient3)" fill-rule="evenodd" stroke="none"/>
    <path d="M29.15 -30.9 Q23.3 -29.0 23.25 -19.15 L23.25 -18.15 Q20.05 -17.8 16.95 -6.25 16.7 -28.35 10.4 -24.0 L10.85 -25.35 Q17.05 -30.75 16.9 -37.2 25.0 -47.05 35.65 -48.4 28.55 -41.1 29.15 -30.9 M11.4 -39.05 Q7.25 -33.55 9.05 -25.7 L8.55 -24.3 Q6.05 -31.35 -7.85 -12.35 -3.25 -23.9 -5.65 -25.85 L-5.0 -26.7 Q1.05 -35.25 -2.55 -39.9 4.25 -48.45 2.9 -58.4 10.85 -51.75 11.4 -39.05" fill="#333300" fill-rule="evenodd" stroke="none"/>
    <path d="M-4.3 16.7 L-8.75 15.1 -5.7 3.8 -13.0 1.4 -9.9 -10.4 -2.4 -8.45 0.35 -18.65 12.9 -15.85 10.05 -5.2 17.1 -3.4 15.6 3.45 9.95 9.0 9.5 8.85 6.55 7.85 5.35 12.45 5.35 12.5 Q0.9 15.3 -4.3 16.7" fill="url(#gradient4)" fill-rule="evenodd" stroke="none"/>
    <path d="M25.9 -7.8 L24.9 -3.8 23.05 9.8 -8.95 44.45 -36.9 56.4 -36.9 49.8 -44.95 53.8 -52.6 47.3 -33.2 27.5 -31.4 28.25 -36.5 36.45 -27.7 26.1 -21.75 24.95 -4.3 16.7 3.45 19.6 5.35 12.5 5.35 12.45 9.5 8.85 9.95 9.0 14.05 10.35 15.6 3.45 25.9 -7.8" fill="url(#gradient5)" fill-rule="evenodd" stroke="none"/>
    <path d="M15.6 3.45 L14.05 10.35 9.95 9.0 15.6 3.45 M5.35 12.5 L3.45 19.6 -4.3 16.7 Q0.9 15.3 5.35 12.5" fill="url(#gradient6)" fill-rule="evenodd" stroke="none"/>
    <path d="M9.5 8.85 L5.35 12.45 6.55 7.85 9.5 8.85" fill="#b7a129" fill-rule="evenodd" stroke="none"/>
    <path d="M-27.7 26.1 L-36.5 36.45 -31.4 28.25 -23.3 15.1 -25.75 23.85 -27.7 26.1" fill="url(#gradient7)" fill-rule="evenodd" stroke="none"/>
    <path d="M-44.95 53.8 L-36.9 49.8 -41.85 53.9 -44.95 53.8" fill="url(#gradient8)" fill-rule="evenodd" stroke="none"/>
    <path d="M8.05 49.8 L-0.4 66.65 Q-2.15 68.1 -3.95 67.55 L8.05 49.8" fill="url(#gradient9)" fill-rule="evenodd" stroke="none"/>
    <path d="M15.15 69.85 Q16.85 69.8 17.15 69.15 L17.95 61.75 Q24.9 -3.3 39.8 -52.1 L44.75 -59.65 46.85 -62.85 Q50.45 -62.05 50.95 -58.35 L52.65 -60.75 48.1 -67.35 40.7 -67.35 Q34.05 -63.55 25.0 -63.3 22.45 -63.2 19.8 -63.4 L11.8 -64.5 M50.95 -58.35 L44.75 -59.65 M3.5 -65.3 L8.05 -69.85 13.4 -69.85 25.0 -63.3 M11.4 -39.05 Q10.85 -51.75 2.9 -58.4 4.25 -48.45 -2.55 -39.9 1.05 -35.25 -5.0 -26.7 L-5.65 -25.85 Q-3.25 -23.9 -7.85 -12.35 6.05 -31.35 8.55 -24.3 L9.05 -25.7 Q7.25 -33.55 11.4 -39.05 M-4.3 16.7 L-8.75 15.1 -5.7 3.8 -13.0 1.4 -9.9 -10.4 -2.4 -8.45 0.35 -18.65 12.9 -15.85 10.05 -5.2 17.1 -3.4 15.6 3.45 14.05 10.35 9.95 9.0 9.5 8.85 6.55 7.85 5.35 12.45 5.35 12.5 3.45 19.6 -4.3 16.7 M-33.2 27.5 L-52.6 47.3 -44.95 53.8 -41.85 53.9 -36.9 49.8 -36.9 56.4 -8.0 65.85 -3.95 67.55 Q-2.15 68.1 -0.4 66.65 L8.05 49.8 5.55 65.5 5.55 69.15 15.15 69.85 M-20.85 6.45 L-23.3 15.1 -25.75 23.85 M-33.2 27.5 L-20.85 6.45 -11.3 -27.35 3.5 -65.3" fill="none" stroke="#000000" stroke-linecap="round" stroke-linejoin="round" stroke-opacity="0.4" stroke-width="0.5"/>
    <path d="M29.15 -30.9 Q23.3 -29.0 23.25 -19.15 L23.25 -18.15 Q20.05 -17.8 16.95 -6.25 16.7 -28.35 10.4 -24.0 L10.85 -25.35 Q17.05 -30.75 16.9 -37.2 25.0 -47.05 35.65 -48.4 28.55 -41.1 29.15 -30.9 Z" fill="none" stroke="#000000" stroke-linecap="round" stroke-linejoin="round" stroke-opacity="0.4" stroke-width="0.5"/>
    <path d="M52.65 -60.75 L48.1 -67.35 40.7 -67.35 Q34.05 -63.55 25.0 -63.3 L13.4 -69.85 8.05 -69.85 3.5 -65.3 -11.3 -27.35 -20.85 6.45 -33.2 27.5 -52.6 47.3 -44.95 53.8 -41.85 53.9 -36.9 49.8 -36.9 56.4 -8.0 65.85 -3.95 67.55 Q-2.15 68.1 -0.4 66.65 L8.05 49.8 5.55 65.5 5.55 69.15 15.15 69.85 Q16.85 69.8 17.15 69.15 L17.95 61.75 Q24.9 -3.3 39.8 -52.1 L44.75 -59.65 50.95 -58.35 52.65 -60.75 Z" fill="none" stroke="#000000" stroke-linecap="round" stroke-linejoin="round" stroke-opacity="0.4" stroke-width="1.0"/>
  </g>
  <defs>
    <linearGradient gradientTransform="matrix(-0.0124, -0.0022, 0.0017, -0.0092, 21.0, -64.5)" gradientUnits="userSpaceOnUse" id="gradient0" spreadMethod="pad" x1="-819.2" x2="819.2">
      <stop offset="0.0" stop-color="#dccd63"/>
      <stop offset="0.9882352941176471" stop-color="#ebdda5"/>
    </linearGradient>
    <linearGradient gradientTransform="matrix(-0.0025, 0.0094, -0.0076, -0.002, 18.4, 43.4)" gradientUnits="userSpaceOnUse" id="gradient1" spreadMethod="pad" x1="-819.2" x2="819.2">
      <stop offset="0.0" stop-color="#685717"/>
      <stop offset="0.9882352941176471" stop-color="#897a1e"/>
    </linearGradient>
    <linearGradient gradientTransform="matrix(-0.0105, 0.0391, -0.0338, -0.009, 4.55, -2.55)" gradientUnits="userSpaceOnUse" id="gradient2" spreadMethod="pad" x1="-819.2" x2="819.2">
      <stop offset="0.0" stop-color="#bfac2b"/>
      <stop offset="0.9882352941176471" stop-color="#a78c25"/>
    </linearGradient>
    <linearGradient gradientTransform="matrix(-0.0027, -0.0016, 9.0E-4, -0.0016, 11.75, -66.3)" gradientUnits="userSpaceOnUse" id="gradient3" spreadMethod="pad" x1="-819.2" x2="819.2">
      <stop offset="0.0" stop-color="#685717"/>
      <stop offset="0.9882352941176471" stop-color="#897a1e"/>
    </linearGradient>
    <linearGradient gradientTransform="matrix(-0.0064, 0.0112, -0.0165, -0.0094, 2.15, -0.15)" gradientUnits="userSpaceOnUse" id="gradient4" spreadMethod="pad" x1="-819.2" x2="819.2">
      <stop offset="0.0" stop-color="#f1efe4"/>
      <stop offset="0.9882352941176471" stop-color="#e4e0cb"/>
    </linearGradient>
    <linearGradient gradientTransform="matrix(-0.0337, 0.0211, -0.0088, -0.0141, -10.95, 29.65)" gradientUnits="userSpaceOnUse" id="gradient5" spreadMethod="pad" x1="-819.2" x2="819.2">
      <stop offset="0.0" stop-color="#998122"/>
      <stop offset="0.9882352941176471" stop-color="#927a21"/>
    </linearGradient>
    <linearGradient gradientTransform="matrix(-0.0081, 0.0055, -0.0023, -0.0034, 7.3, 12.95)" gradientUnits="userSpaceOnUse" id="gradient6" spreadMethod="pad" x1="-819.2" x2="819.2">
      <stop offset="0.0" stop-color="#cec79f"/>
      <stop offset="0.9882352941176471" stop-color="#b9ac79"/>
    </linearGradient>
    <linearGradient gradientTransform="matrix(0.0081, 0.0, 0.0, 0.013, -29.9, 25.75)" gradientUnits="userSpaceOnUse" id="gradient7" spreadMethod="pad" x1="-819.2" x2="819.2">
      <stop offset="0.0" stop-color="#685717"/>
      <stop offset="0.9882352941176471" stop-color="#897a1e"/>
    </linearGradient>
    <linearGradient gradientTransform="matrix(0.0045, 0.0, 0.0, 0.0025, -40.65, 51.85)" gradientUnits="userSpaceOnUse" id="gradient8" spreadMethod="pad" x1="-819.2" x2="819.2">
      <stop offset="0.0" stop-color="#685717"/>
      <stop offset="0.9882352941176471" stop-color="#897a1e"/>
    </linearGradient>
    <linearGradient gradientTransform="matrix(-0.0054, 0.0054, -0.0028, -0.0028, -0.15, 62.55)" gradientUnits="userSpaceOnUse" id="gradient9" spreadMethod="pad" x1="-819.2" x2="819.2">
      <stop offset="0.0" stop-color="#685717"/>
      <stop offset="0.9882352941176471" stop-color="#897a1e"/>
    </linearGradient>
  </defs>
</svg>
