<?xml version="1.0" encoding="UTF-8" standalone="no"?>
<svg xmlns:xlink="http://www.w3.org/1999/xlink" height="83.9px" width="114.45px" xmlns="http://www.w3.org/2000/svg">
  <g transform="matrix(1.0, 0.0, 0.0, 1.0, 57.25, 41.95)">
    <path d="M1.55 -23.2 Q-0.8 -30.75 0.45 -32.75 1.5 -34.95 5.95 -23.95 3.4 -34.75 5.95 -36.25 7.95 -37.15 8.85 -24.15 11.8 -33.1 13.55 -30.55 14.5 -29.2 11.55 -22.65 15.85 -26.3 16.25 -24.65 16.8 -23.0 13.45 -19.45 18.05 -19.75 17.0 -18.55 16.4 -17.8 13.05 -16.75 17.0 -17.05 17.55 -16.05 16.65 -14.95 13.05 -13.55 8.25 -15.75 1.55 -16.95 -4.0 -21.9 -1.95 -22.65 -0.6 -23.6 2.65 -19.95 L1.55 -23.2 2.65 -19.95 Q-0.6 -23.6 -1.95 -22.65 -4.0 -21.9 1.55 -16.95 -4.75 -18.15 -12.75 -18.55 L-13.65 -18.5 Q-18.45 -18.7 -18.95 -19.55 -18.7 -21.25 -14.35 -21.55 -20.4 -21.7 -20.45 -23.25 -19.95 -25.2 -12.85 -24.45 -23.15 -28.05 -21.45 -29.75 -18.1 -31.65 -8.25 -25.95 -11.7 -28.75 -10.85 -29.75 -10.2 -30.9 -6.85 -27.45 -11.35 -32.35 -10.85 -33.35 -9.15 -36.35 1.55 -23.2 M23.1 -9.75 Q23.0 -18.5 24.45 -16.15 L25.35 -13.25 Q26.15 -18.8 27.65 -19.15 29.4 -19.35 28.3 -12.55 L27.8 -11.85 25.0 -11.9 Q24.35 -10.75 23.1 -9.75 M-33.5 -37.5 Q-27.9 -35.3 -27.05 -32.85 -28.25 -31.4 -32.85 -33.35 -25.6 -27.0 -26.0 -22.55 -27.7 -21.65 -35.15 -29.35 -30.5 -20.05 -32.85 -17.35 -35.35 -17.8 -37.45 -25.15 -37.55 -20.7 -38.95 -20.65 -40.5 -20.65 -39.75 -25.65 -41.55 -22.15 -42.95 -22.75 -44.55 -24.55 -41.65 -29.05 -46.9 -25.5 -47.45 -27.85 -47.75 -30.45 -44.95 -34.25 -41.45 -35.8 -36.55 -36.85 L-33.5 -37.5 M-51.8 -15.95 Q-52.0 -18.95 -51.15 -19.45 -50.05 -20.5 -50.45 -16.45 -49.1 -23.9 -47.05 -22.55 -46.1 -22.2 -47.55 -15.2 -44.6 -22.5 -42.75 -20.35 -41.7 -19.65 -45.55 -13.35 -42.45 -17.3 -40.55 -16.65 -39.85 -16.05 -43.05 -12.55 -36.6 -18.8 -37.05 -15.05 -37.25 -14.1 -40.05 -11.15 -41.65 -9.7 -42.6 -7.95 -49.0 -11.65 -51.8 -15.95" fill="url(#gradient0)" fill-rule="evenodd" stroke="none"/>
    <path d="M13.05 -13.55 Q16.65 -14.95 17.55 -16.05 17.0 -17.05 13.05 -16.75 16.4 -17.8 17.0 -18.55 18.05 -19.75 13.45 -19.45 16.8 -23.0 16.25 -24.65 15.85 -26.3 11.55 -22.65 14.5 -29.2 13.55 -30.55 11.8 -33.1 8.85 -24.15 7.95 -37.15 5.95 -36.25 3.4 -34.75 5.95 -23.95 1.5 -34.95 0.45 -32.75 -0.8 -30.75 1.55 -23.2 -9.15 -36.35 -10.85 -33.35 -11.35 -32.35 -6.85 -27.45 -10.2 -30.9 -10.85 -29.75 -11.7 -28.75 -8.25 -25.95 -18.1 -31.65 -21.45 -29.75 -23.15 -28.05 -12.85 -24.45 -19.95 -25.2 -20.45 -23.25 -20.4 -21.7 -14.35 -21.55 -18.7 -21.25 -18.95 -19.55 -18.45 -18.7 -13.65 -18.5 -33.0 -17.4 -40.05 -11.15 -37.25 -14.1 -37.05 -15.05 -36.6 -18.8 -43.05 -12.55 -39.85 -16.05 -40.55 -16.65 -42.45 -17.3 -45.55 -13.35 -41.7 -19.65 -42.75 -20.35 -44.6 -22.5 -47.55 -15.2 -46.1 -22.2 -47.05 -22.55 -49.1 -23.9 -50.45 -16.45 -50.05 -20.5 -51.15 -19.45 -52.0 -18.95 -51.8 -15.95 L-52.85 -17.85 Q-56.75 -29.0 -44.95 -34.25 -47.75 -30.45 -47.45 -27.85 -46.9 -25.5 -41.65 -29.05 -44.55 -24.55 -42.95 -22.75 -41.55 -22.15 -39.75 -25.65 -40.5 -20.65 -38.95 -20.65 -37.55 -20.7 -37.45 -25.15 -35.35 -17.8 -32.85 -17.35 -30.5 -20.05 -35.15 -29.35 -27.7 -21.65 -26.0 -22.55 -25.6 -27.0 -32.85 -33.35 -28.25 -31.4 -27.05 -32.85 -27.9 -35.3 -33.5 -37.5 -8.15 -42.5 17.95 -34.55 38.2 -27.2 28.3 -12.55 29.4 -19.35 27.65 -19.15 26.15 -18.8 25.35 -13.25 L24.45 -16.15 Q23.0 -18.5 23.1 -9.75 L20.65 -8.35 Q17.8 -11.4 13.05 -13.55" fill="url(#gradient1)" fill-rule="evenodd" stroke="none"/>
    <path d="M28.3 -12.55 Q38.2 -27.2 17.95 -34.55 -8.15 -42.5 -33.5 -37.5 L-36.55 -36.85 Q-41.45 -35.8 -44.95 -34.25 -56.75 -29.0 -52.85 -17.85 L-51.8 -15.95 Q-49.0 -11.65 -42.6 -7.95 -39.75 -6.35 -36.2 -4.8 L-37.95 -3.3 -38.5 -2.75 Q-55.55 -12.15 -56.25 -22.3 L-56.25 -22.7 -56.25 -23.9 Q-55.7 -34.9 -37.35 -39.25 -6.15 -44.8 19.15 -36.35 34.25 -31.35 33.95 -21.25 L33.9 -20.45 Q33.55 -16.5 30.9 -11.75 L30.1 -11.05 30.9 -11.75 33.8 -13.9 Q42.8 -19.95 55.95 -19.9 L56.3 -19.0 54.6 -17.65 Q43.1 -18.25 31.3 -9.5 L30.1 -11.05 Q29.45 -11.65 27.8 -11.85 L28.3 -12.55 M9.1 -2.1 Q8.7 -2.85 9.85 -3.2 15.05 -2.95 19.0 -5.25 L20.2 -6.1 22.65 -6.1 24.05 -4.4 Q13.15 2.85 -8.15 2.7 L-9.1 0.6 Q-0.1 1.05 7.9 -0.5 L10.1 -1.0 9.1 -2.1 M10.1 -1.0 Q16.4 -2.5 22.65 -6.1 16.4 -2.5 10.1 -1.0 M39.75 -1.1 Q41.7 -1.3 42.8 -2.85 44.0 -4.6 42.65 -7.55 43.45 -7.3 44.05 -6.55 44.95 -5.4 44.95 -3.8 44.95 -2.2 44.05 -1.1 43.15 0.05 41.9 0.05 40.65 0.05 39.75 -1.1" fill="url(#gradient2)" fill-rule="evenodd" stroke="none"/>
    <path d="M-56.6 -0.4 L-56.15 -10.2 -55.35 -9.35 -54.15 -3.75 Q-52.15 -0.65 -49.35 0.45 L-49.35 -3.65 -45.75 4.95 -49.75 6.95 -49.75 2.65 Q-52.85 0.9 -54.65 -1.35 L-55.95 0.45 -56.6 -0.4" fill="url(#gradient3)" fill-rule="evenodd" stroke="none"/>
    <path d="M-40.65 17.65 Q-55.0 7.95 -56.75 1.15 L-56.6 -0.4 -55.95 0.45 -54.65 -1.35 Q-52.85 0.9 -49.75 2.65 L-49.75 6.95 -45.75 4.95 -49.35 -3.65 -49.35 0.45 Q-52.15 -0.65 -54.15 -3.75 L-55.35 -9.35 -56.15 -10.2 Q-56.0 -16.25 -56.25 -22.3 -55.55 -12.15 -38.5 -2.75 -42.85 1.85 -42.85 8.7 -42.85 13.1 -40.65 17.65" fill="url(#gradient4)" fill-rule="evenodd" stroke="none"/>
    <path d="M-37.05 18.4 Q-40.3 14.2 -40.3 8.75 -40.3 2.6 -36.15 -1.45 -34.6 -3.0 -32.75 -3.9 -29.8 -5.4 -26.2 -5.15 -20.35 -4.75 -16.2 -0.1 -12.05 4.45 -12.05 10.65 -12.05 16.75 -16.2 20.85 L-17.4 21.95 Q-21.2 24.8 -26.2 24.5 -31.5 24.1 -35.35 20.3 L-33.25 18.3 Q-30.3 21.1 -26.3 21.4 -22.4 21.65 -19.5 19.4 L-18.55 18.55 Q-15.4 15.4 -15.35 10.7 -15.4 5.9 -18.55 2.35 -21.75 -1.2 -26.3 -1.5 -29.1 -1.7 -31.35 -0.55 L-34.0 1.35 Q-37.2 4.45 -37.2 9.2 -37.2 13.2 -34.95 16.35 L-37.05 18.4 M-28.75 13.9 L-26.8 14.55 Q-25.3 14.65 -24.15 13.75 L-23.8 13.45 Q-22.55 12.2 -22.55 10.35 -22.55 8.5 -23.8 7.15 -25.05 5.75 -26.8 5.6 -27.9 5.55 -28.75 6.0 L-29.8 6.75 Q-31.05 7.95 -31.0 9.8 -31.05 10.95 -30.55 11.9 L-32.85 14.25 Q-34.25 12.15 -34.2 9.55 -34.25 6.2 -31.95 4.0 -31.1 3.15 -30.1 2.65 -28.5 1.85 -26.5 2.0 -23.35 2.2 -21.05 4.75 -18.8 7.25 -18.8 10.6 -18.8 13.95 -21.05 16.15 L-21.75 16.75 Q-23.8 18.35 -26.5 18.15 -29.15 17.95 -31.15 16.25 L-28.75 13.9" fill="url(#gradient5)" fill-rule="evenodd" stroke="none"/>
    <path d="M-18.65 25.95 Q-22.05 27.55 -26.2 27.25 -32.6 26.85 -37.25 22.15 L-35.35 20.3 Q-31.5 24.1 -26.2 24.5 -21.2 24.8 -17.4 21.95 L-16.2 20.85 Q-12.05 16.75 -12.05 10.65 -12.05 4.45 -16.2 -0.1 -20.35 -4.75 -26.2 -5.15 -29.8 -5.4 -32.75 -3.9 -34.6 -3.0 -36.15 -1.45 -40.3 2.6 -40.3 8.75 -40.3 14.2 -37.05 18.4 L-38.9 20.25 -40.65 17.65 Q-42.85 13.1 -42.85 8.7 -42.85 1.85 -38.5 -2.75 L-37.95 -3.3 -36.2 -4.8 -33.95 -6.2 Q-30.45 -7.95 -26.2 -7.65 -19.3 -7.2 -14.4 -1.75 -9.55 3.65 -9.55 10.95 -9.55 18.15 -14.4 22.95 L-15.85 24.25 -18.65 25.95 M-34.95 16.35 Q-37.2 13.2 -37.2 9.2 -37.2 4.45 -34.0 1.35 L-31.35 -0.55 Q-29.1 -1.7 -26.3 -1.5 -21.75 -1.2 -18.55 2.35 -15.4 5.9 -15.35 10.7 -15.4 15.4 -18.55 18.55 L-19.5 19.4 Q-22.4 21.65 -26.3 21.4 -30.3 21.1 -33.25 18.3 L-31.15 16.25 Q-29.15 17.95 -26.5 18.15 -23.8 18.35 -21.75 16.75 L-21.05 16.15 Q-18.8 13.95 -18.8 10.6 -18.8 7.25 -21.05 4.75 -23.35 2.2 -26.5 2.0 -28.5 1.85 -30.1 2.65 -31.1 3.15 -31.95 4.0 -34.25 6.2 -34.2 9.55 -34.25 12.15 -32.85 14.25 L-34.95 16.35 M-30.55 11.9 Q-31.05 10.95 -31.0 9.8 -31.05 7.95 -29.8 6.75 L-28.75 6.0 Q-27.9 5.55 -26.8 5.6 -25.05 5.75 -23.8 7.15 -22.55 8.5 -22.55 10.35 -22.55 12.2 -23.8 13.45 L-24.15 13.75 Q-25.3 14.65 -26.8 14.55 L-28.75 13.9 -25.6 10.8 Q-25.5 8.2 -27.85 9.2 L-30.1 11.45 -30.55 11.9" fill="url(#gradient6)" fill-rule="evenodd" stroke="none"/>
    <path d="M-33.95 -6.2 Q-29.55 -9.65 -23.65 -9.25 -16.75 -8.8 -11.85 -3.35 -10.2 -1.5 -9.1 0.6 L-8.15 2.7 Q-7.0 5.8 -7.0 9.35 -7.0 16.55 -11.85 21.35 -13.75 23.15 -15.85 24.25 L-14.4 22.95 Q-9.55 18.15 -9.55 10.95 -9.55 3.65 -14.4 -1.75 -19.3 -7.2 -26.2 -7.65 -30.45 -7.95 -33.95 -6.2" fill="url(#gradient7)" fill-rule="evenodd" stroke="none"/>
    <path d="M7.9 -2.6 L9.1 -2.1 10.1 -1.0 7.9 -0.5 7.9 -2.6" fill="url(#gradient8)" fill-rule="evenodd" stroke="none"/>
    <path d="M9.1 -2.1 L7.9 -2.6 Q8.65 -3.6 9.85 -3.2 8.7 -2.85 9.1 -2.1 M56.3 -19.0 Q56.95 -17.75 56.5 -17.15 55.7 -17.7 54.6 -17.65 L56.3 -19.0" fill="#f9a800" fill-rule="evenodd" stroke="none"/>
    <path d="M19.0 -5.25 L19.95 -8.05 Q24.1 -8.65 26.45 -5.6 L24.75 19.75 22.6 22.65 19.3 21.2 22.35 20.0 24.05 -4.4 22.65 -6.1 20.2 -6.1 19.0 -5.25" fill="url(#gradient9)" fill-rule="evenodd" stroke="none"/>
    <path d="M33.9 -20.45 L33.8 -13.9 30.9 -11.75 Q33.55 -16.5 33.9 -20.45" fill="url(#gradient10)" fill-rule="evenodd" stroke="none"/>
    <path d="M20.65 -8.35 L23.1 -9.75 Q24.35 -10.75 25.0 -11.9 L27.8 -11.85 Q29.45 -11.65 30.1 -11.05 L31.3 -9.5 Q29.55 -6.6 26.45 -5.6 24.1 -8.65 19.95 -8.05 L20.65 -8.35 M-42.15 23.55 L-38.9 20.25 -37.05 18.4 -34.95 16.35 -32.85 14.25 -30.55 11.9 -30.1 11.45 Q-27.85 10.15 -28.65 12.1 L-41.35 24.3 -42.15 23.55" fill="#7e542c" fill-rule="evenodd" stroke="none"/>
    <path d="M56.5 -17.15 Q52.05 -9.65 52.65 3.65 41.1 5.4 30.35 15.95 L31.3 -9.5 Q43.1 -18.25 54.6 -17.65 55.7 -17.7 56.5 -17.15 M42.65 -7.55 L41.9 -7.65 Q40.65 -7.65 39.75 -6.55 38.85 -5.4 38.85 -3.8 38.85 -2.2 39.75 -1.1 40.65 0.05 41.9 0.05 43.15 0.05 44.05 -1.1 44.95 -2.2 44.95 -3.8 44.95 -5.4 44.05 -6.55 43.45 -7.3 42.65 -7.55" fill="url(#gradient11)" fill-rule="evenodd" stroke="none"/>
    <path d="M30.35 15.95 L30.3 17.1 22.6 22.65 24.75 19.75 26.45 -5.6 Q29.55 -6.6 31.3 -9.5 L30.35 15.95" fill="url(#gradient12)" fill-rule="evenodd" stroke="none"/>
    <path d="M19.3 21.2 Q2.45 27.45 -18.65 25.95 L-15.85 24.25 Q-13.75 23.15 -11.85 21.35 -7.0 16.55 -7.0 9.35 -7.0 5.8 -8.15 2.7 13.15 2.85 24.05 -4.4 L22.35 20.0 19.3 21.2 M12.25 7.45 L10.15 12.15 Q6.25 13.55 1.55 13.35 L1.45 8.85 -4.35 14.35 1.45 19.95 1.45 15.65 Q6.0 15.85 10.55 14.05 L13.65 16.85 20.45 15.05 15.65 11.85 15.65 10.85 19.35 5.05 12.25 7.45" fill="url(#gradient13)" fill-rule="evenodd" stroke="none"/>
    <path d="M12.25 7.45 L19.35 5.05 15.65 10.85 15.65 11.85 20.45 15.05 13.65 16.85 10.55 14.05 Q6.0 15.85 1.45 15.65 L1.45 19.95 -4.35 14.35 1.45 8.85 1.55 13.35 Q6.25 13.55 10.15 12.15 L12.25 7.45" fill="url(#gradient14)" fill-rule="evenodd" stroke="none"/>
    <path d="M-37.25 22.15 L-40.8 25.6 -42.6 27.35 -45.6 30.25 -48.65 33.2 -48.95 33.3 Q-51.6 33.5 -49.65 31.0 L-48.85 31.6 -42.05 25.05 -41.35 24.3 -28.65 12.1 Q-27.85 10.15 -30.1 11.45 L-27.85 9.2 Q-25.5 8.2 -25.6 10.8 L-28.75 13.9 -31.15 16.25 -33.25 18.3 -35.35 20.3 -37.25 22.15" fill="#453218" fill-rule="evenodd" stroke="none"/>
    <path d="M-40.8 25.6 L-41.0 32.65 -42.55 34.4 -42.6 27.35 -40.8 25.6 M-47.55 39.9 L-48.95 41.45 -48.95 33.3 -48.65 33.2 -45.6 30.25 -45.6 35.3 -46.95 33.5 -47.55 39.9 M-53.45 24.25 L-52.15 23.35 -49.1 25.8 -48.4 27.55 -53.45 24.25 M-49.6 21.8 L-46.25 19.25 -42.15 23.55 -41.35 24.3 -42.05 25.05 -46.6 21.45 -44.95 24.45 -49.6 21.8" fill="#b90000" fill-rule="evenodd" stroke="none"/>
    <path d="M-42.55 34.4 L-47.55 39.9 -46.95 33.5 -45.6 35.3 -45.6 30.25 -42.6 27.35 -42.55 34.4 M-49.65 31.0 L-56.1 26.0 -53.45 24.25 -48.4 27.55 -49.1 25.8 -50.95 22.75 -49.6 21.8 -44.95 24.45 -46.6 21.45 -42.05 25.05 -48.85 31.6 -49.65 31.0" fill="#990000" fill-rule="evenodd" stroke="none"/>
    <path d="M13.05 -13.55 Q16.65 -14.95 17.55 -16.05 17.0 -17.05 13.05 -16.75 16.4 -17.8 17.0 -18.55 18.05 -19.75 13.45 -19.45 16.8 -23.0 16.25 -24.65 15.85 -26.3 11.55 -22.65 14.5 -29.2 13.55 -30.55 11.8 -33.1 8.85 -24.15 7.95 -37.15 5.95 -36.25 3.4 -34.75 5.95 -23.95 1.5 -34.95 0.45 -32.75 -0.8 -30.75 1.55 -23.2 L2.65 -19.95 Q-0.6 -23.6 -1.95 -22.65 -4.0 -21.9 1.55 -16.95 M23.1 -9.75 Q23.0 -18.5 24.45 -16.15 L25.35 -13.25 Q26.15 -18.8 27.65 -19.15 29.4 -19.35 28.3 -12.55 L27.8 -11.85 M-33.5 -37.5 Q-27.9 -35.3 -27.05 -32.85 -28.25 -31.4 -32.85 -33.35 -25.6 -27.0 -26.0 -22.55 -27.7 -21.65 -35.15 -29.35 -30.5 -20.05 -32.85 -17.35 -35.35 -17.8 -37.45 -25.15 -37.55 -20.7 -38.95 -20.65 -40.5 -20.65 -39.75 -25.65 -41.55 -22.15 -42.95 -22.75 -44.55 -24.55 -41.65 -29.05 -46.9 -25.5 -47.45 -27.85 -47.75 -30.45 -44.95 -34.25 M-51.8 -15.95 Q-52.0 -18.95 -51.15 -19.45 -50.05 -20.5 -50.45 -16.45 -49.1 -23.9 -47.05 -22.55 -46.1 -22.2 -47.55 -15.2 -44.6 -22.5 -42.75 -20.35 -41.7 -19.65 -45.55 -13.35 -42.45 -17.3 -40.55 -16.65 -39.85 -16.05 -43.05 -12.55 -36.6 -18.8 -37.05 -15.05 -37.25 -14.1 -40.05 -11.15 M-13.65 -18.5 Q-18.45 -18.7 -18.95 -19.55 -18.7 -21.25 -14.35 -21.55 -20.4 -21.7 -20.45 -23.25 -19.95 -25.2 -12.85 -24.45 -23.15 -28.05 -21.45 -29.75 -18.1 -31.65 -8.25 -25.95 -11.7 -28.75 -10.85 -29.75 -10.2 -30.9 -6.85 -27.45 -11.35 -32.35 -10.85 -33.35 -9.15 -36.35 1.55 -23.2" fill="none" stroke="#003300" stroke-linecap="round" stroke-linejoin="round" stroke-opacity="0.4" stroke-width="0.5"/>
    <path d="M28.3 -12.55 Q38.2 -27.2 17.95 -34.55 -8.15 -42.5 -33.5 -37.5 L-36.55 -36.85 Q-41.45 -35.8 -44.95 -34.25 -56.75 -29.0 -52.85 -17.85 L-51.8 -15.95 Q-49.0 -11.65 -42.6 -7.95 M7.9 -2.6 L9.1 -2.1 Q8.7 -2.85 9.85 -3.2 M10.1 -1.0 L9.1 -2.1 M-56.25 -22.3 Q-55.55 -12.15 -38.5 -2.75 M30.9 -11.75 Q33.55 -16.5 33.9 -20.45 M42.65 -7.55 Q43.45 -7.3 44.05 -6.55 44.95 -5.4 44.95 -3.8 44.95 -2.2 44.05 -1.1 43.15 0.05 41.9 0.05 40.65 0.05 39.75 -1.1 M56.3 -19.0 L54.6 -17.65 Q55.7 -17.7 56.5 -17.15 M31.3 -9.5 Q43.1 -18.25 54.6 -17.65 M-8.15 2.7 Q13.15 2.85 24.05 -4.4" fill="none" stroke="#fae4a5" stroke-linecap="round" stroke-linejoin="round" stroke-opacity="0.2" stroke-width="0.5"/>
    <path d="M1.55 -16.95 Q8.25 -15.75 13.05 -13.55 17.8 -11.4 20.65 -8.35 L23.1 -9.75 Q24.35 -10.75 25.0 -11.9 L27.8 -11.85 Q29.45 -11.65 30.1 -11.05 L30.9 -11.75 33.8 -13.9 Q42.8 -19.95 55.95 -19.9 L56.3 -19.0 Q56.95 -17.75 56.5 -17.15 52.05 -9.65 52.65 3.65 41.1 5.4 30.35 15.95 L30.3 17.1 22.6 22.65 19.3 21.2 Q2.45 27.45 -18.65 25.95 -22.05 27.55 -26.2 27.25 -32.6 26.85 -37.25 22.15 L-40.8 25.6 -41.0 32.65 -42.55 34.4 -47.55 39.9 -48.95 41.45 -48.95 33.3 Q-51.6 33.5 -49.65 31.0 L-56.1 26.0 -53.45 24.25 -52.15 23.35 -49.1 25.8 -50.95 22.75 -49.6 21.8 -46.25 19.25 -42.15 23.55 -38.9 20.25 -40.65 17.65 Q-55.0 7.95 -56.75 1.15 L-56.6 -0.4 -56.15 -10.2 Q-56.0 -16.25 -56.25 -22.3 L-56.25 -22.7 -56.25 -23.9 Q-55.7 -34.9 -37.35 -39.25 -6.15 -44.8 19.15 -36.35 34.25 -31.35 33.95 -21.25 L33.9 -20.45 33.8 -13.9 M-40.05 -11.15 Q-33.0 -17.4 -13.65 -18.5 L-12.75 -18.55 Q-4.75 -18.15 1.55 -16.95 M9.85 -3.2 Q8.65 -3.6 7.9 -2.6 L7.9 -0.5 10.1 -1.0 Q16.4 -2.5 22.65 -6.1 L20.2 -6.1 19.0 -5.25 Q15.05 -2.95 9.85 -3.2 M19.0 -5.25 L19.95 -8.05 20.65 -8.35 M-38.5 -2.75 L-37.95 -3.3 -36.2 -4.8 Q-39.75 -6.35 -42.6 -7.95 -41.65 -9.7 -40.05 -11.15 M24.05 -4.4 L22.65 -6.1 M39.75 -1.1 Q41.7 -1.3 42.8 -2.85 44.0 -4.6 42.65 -7.55 M31.3 -9.5 L30.1 -11.05 M22.6 22.65 L24.75 19.75 M12.25 7.45 L19.35 5.05 15.65 10.85 15.65 11.85 20.45 15.05 13.65 16.85 10.55 14.05 Q6.0 15.85 1.45 15.65 L1.45 19.95 -4.35 14.35 1.45 8.85 1.55 13.35 Q6.25 13.55 10.15 12.15 L12.25 7.45 M24.05 -4.4 L22.35 20.0 19.3 21.2 M31.3 -9.5 L30.35 15.95 M-56.6 -0.4 L-55.95 0.45 -54.65 -1.35 Q-52.85 0.9 -49.75 2.65 L-49.75 6.95 -45.75 4.95 -49.35 -3.65 -49.35 0.45 Q-52.15 -0.65 -54.15 -3.75 L-55.35 -9.35 -56.15 -10.2 M-37.05 18.4 L-34.95 16.35 -32.85 14.25 -30.55 11.9 -30.1 11.45 -27.85 9.2 Q-25.5 8.2 -25.6 10.8 L-28.75 13.9 -31.15 16.25 -33.25 18.3 -35.35 20.3 -37.25 22.15 M-36.2 -4.8 L-33.95 -6.2 M-9.1 0.6 Q-0.1 1.05 7.9 -0.5 M-41.35 24.3 L-42.05 25.05 -48.85 31.6 -49.65 31.0 M-37.05 18.4 L-38.9 20.25 M-15.85 24.25 L-18.65 25.95 M-41.35 24.3 L-42.15 23.55 M-40.65 17.65 Q-42.85 13.1 -42.85 8.7 -42.85 1.85 -38.5 -2.75 M-40.8 25.6 L-42.6 27.35 -45.6 30.25 -48.65 33.2 -48.95 33.3" fill="none" stroke="#000000" stroke-linecap="round" stroke-linejoin="round" stroke-opacity="0.4" stroke-width="0.5"/>
    <path d="M-35.35 20.3 Q-31.5 24.1 -26.2 24.5 -21.2 24.8 -17.4 21.95 L-16.2 20.85 Q-12.05 16.75 -12.05 10.65 -12.05 4.45 -16.2 -0.1 -20.35 -4.75 -26.2 -5.15 -29.8 -5.4 -32.75 -3.9 -34.6 -3.0 -36.15 -1.45 -40.3 2.6 -40.3 8.75 -40.3 14.2 -37.05 18.4 M-34.95 16.35 Q-37.2 13.2 -37.2 9.2 -37.2 4.45 -34.0 1.35 L-31.35 -0.55 Q-29.1 -1.7 -26.3 -1.5 -21.75 -1.2 -18.55 2.35 -15.4 5.9 -15.35 10.7 -15.4 15.4 -18.55 18.55 L-19.5 19.4 Q-22.4 21.65 -26.3 21.4 -30.3 21.1 -33.25 18.3 M-33.95 -6.2 Q-30.45 -7.95 -26.2 -7.65 -19.3 -7.2 -14.4 -1.75 -9.55 3.65 -9.55 10.95 -9.55 18.15 -14.4 22.95 L-15.85 24.25 M-30.55 11.9 Q-31.05 10.95 -31.0 9.8 -31.05 7.95 -29.8 6.75 L-28.75 6.0 Q-27.9 5.55 -26.8 5.6 -25.05 5.75 -23.8 7.15 -22.55 8.5 -22.55 10.35 -22.55 12.2 -23.8 13.45 L-24.15 13.75 Q-25.3 14.65 -26.8 14.55 L-28.75 13.9 M-31.15 16.25 Q-29.15 17.95 -26.5 18.15 -23.8 18.35 -21.75 16.75 L-21.05 16.15 Q-18.8 13.95 -18.8 10.6 -18.8 7.25 -21.05 4.75 -23.35 2.2 -26.5 2.0 -28.5 1.85 -30.1 2.65 -31.1 3.15 -31.95 4.0 -34.25 6.2 -34.2 9.55 -34.25 12.15 -32.85 14.25" fill="none" stroke="#4a0000" stroke-linecap="round" stroke-linejoin="round" stroke-opacity="0.4" stroke-width="0.5"/>
    <path d="M42.65 -7.55 L41.9 -7.65 Q40.65 -7.65 39.75 -6.55 38.85 -5.4 38.85 -3.8 38.85 -2.2 39.75 -1.1 M-33.95 -6.2 Q-29.55 -9.65 -23.65 -9.25 -16.75 -8.8 -11.85 -3.35 -10.2 -1.5 -9.1 0.6 L-8.15 2.7 Q-7.0 5.8 -7.0 9.35 -7.0 16.55 -11.85 21.35 -13.75 23.15 -15.85 24.25" fill="none" stroke="#000000" stroke-linecap="round" stroke-linejoin="round" stroke-opacity="0.4" stroke-width="0.5"/>
    <path d="M26.45 -5.6 Q29.55 -6.6 31.3 -9.5 M26.45 -5.6 Q24.1 -8.65 19.95 -8.05 M24.75 19.75 L26.45 -5.6" fill="none" stroke="#966c34" stroke-linecap="round" stroke-linejoin="round" stroke-opacity="0.49803922" stroke-width="1.0"/>
    <path d="M1.55 -16.95 Q-4.75 -18.15 -12.75 -18.55 L-13.65 -18.5 Q-33.0 -17.4 -40.05 -11.15 -41.65 -9.7 -42.6 -7.95 -39.75 -6.35 -36.2 -4.8 L-33.95 -6.2 Q-29.55 -9.65 -23.65 -9.25 -16.75 -8.8 -11.85 -3.35 -10.2 -1.5 -9.1 0.6 -0.1 1.05 7.9 -0.5 L7.9 -2.6 Q8.65 -3.6 9.85 -3.2 15.05 -2.95 19.0 -5.25 L19.95 -8.05 20.65 -8.35 Q17.8 -11.4 13.05 -13.55 8.25 -15.75 1.55 -16.95 M33.9 -20.45 L33.8 -13.9 Q42.8 -19.95 55.95 -19.9 L56.3 -19.0 Q56.95 -17.75 56.5 -17.15 52.05 -9.65 52.65 3.65 41.1 5.4 30.35 15.95 L30.3 17.1 22.6 22.65 19.3 21.2 Q2.45 27.45 -18.65 25.95 -22.05 27.55 -26.2 27.25 -32.6 26.85 -37.25 22.15 L-40.8 25.6 -41.0 32.65 -48.95 41.45 -48.95 33.3 Q-51.6 33.5 -49.65 31.0 L-56.1 26.0 -52.15 23.35 -49.1 25.8 -50.95 22.75 -46.25 19.25 -42.15 23.55 -38.9 20.25 -40.65 17.65 Q-55.0 7.95 -56.75 1.15 L-56.6 -0.4 -56.15 -10.2 Q-56.0 -16.25 -56.25 -22.3 L-56.25 -22.7 -56.25 -23.9 Q-55.7 -34.9 -37.35 -39.25 -6.15 -44.8 19.15 -36.35 34.25 -31.35 33.95 -21.25 L33.9 -20.45 M38.85 -3.8 Q38.85 -5.4 39.75 -6.55 40.65 -7.65 41.9 -7.65 L42.65 -7.55 Q44.0 -4.6 42.8 -2.85 41.7 -1.3 39.75 -1.1 38.85 -2.2 38.85 -3.8 Z" fill="none" stroke="#000000" stroke-linecap="round" stroke-linejoin="round" stroke-opacity="0.4" stroke-width="1.0"/>
  </g>
  <defs>
    <linearGradient gradientTransform="matrix(0.0403, 0.0108, -0.0063, 0.0236, -12.8, -20.7)" gradientUnits="userSpaceOnUse" id="gradient0" spreadMethod="pad" x1="-819.2" x2="819.2">
      <stop offset="0.0" stop-color="#006600"/>
      <stop offset="0.9882352941176471" stop-color="#003c00"/>
    </linearGradient>
    <linearGradient gradientTransform="matrix(0.0123, 0.0123, -0.0283, 0.0283, -13.45, -23.95)" gradientUnits="userSpaceOnUse" id="gradient1" spreadMethod="pad" x1="-819.2" x2="819.2">
      <stop offset="0.0" stop-color="#6f4a00"/>
      <stop offset="0.9882352941176471" stop-color="#3c2300"/>
    </linearGradient>
    <linearGradient gradientTransform="matrix(-0.0437, -0.0147, 0.0097, -0.0291, -4.75, -17.9)" gradientUnits="userSpaceOnUse" id="gradient2" spreadMethod="pad" x1="-819.2" x2="819.2">
      <stop offset="0.0" stop-color="#c68600"/>
      <stop offset="0.9882352941176471" stop-color="#d9a302"/>
    </linearGradient>
    <linearGradient gradientTransform="matrix(0.0025, 0.0025, -0.0033, 0.0033, -53.45, -2.25)" gradientUnits="userSpaceOnUse" id="gradient3" spreadMethod="pad" x1="-819.2" x2="819.2">
      <stop offset="0.0" stop-color="#453218"/>
      <stop offset="0.9882352941176471" stop-color="#130d06"/>
    </linearGradient>
    <linearGradient gradientTransform="matrix(0.0042, 0.0042, -0.0081, 0.0081, -52.0, -4.8)" gradientUnits="userSpaceOnUse" id="gradient4" spreadMethod="pad" x1="-819.2" x2="819.2">
      <stop offset="0.0" stop-color="#996600"/>
      <stop offset="0.9882352941176471" stop-color="#653d01"/>
    </linearGradient>
    <linearGradient gradientTransform="matrix(0.0, 0.0142, -0.0172, 0.0, -26.15, 8.55)" gradientUnits="userSpaceOnUse" id="gradient5" spreadMethod="pad" x1="-819.2" x2="819.2">
      <stop offset="0.0" stop-color="#dbdbdb"/>
      <stop offset="0.9882352941176471" stop-color="#999999"/>
    </linearGradient>
    <linearGradient gradientTransform="matrix(-0.0011, 0.0167, -0.0204, -0.0013, -26.1, 7.5)" gradientUnits="userSpaceOnUse" id="gradient6" spreadMethod="pad" x1="-819.2" x2="819.2">
      <stop offset="0.0" stop-color="#ba0101"/>
      <stop offset="0.9882352941176471" stop-color="#990000"/>
    </linearGradient>
    <linearGradient gradientTransform="matrix(0.0053, 0.0198, -0.0134, 0.0036, -17.5, 11.25)" gradientUnits="userSpaceOnUse" id="gradient7" spreadMethod="pad" x1="-819.2" x2="819.2">
      <stop offset="0.0" stop-color="#ffffff"/>
      <stop offset="0.9882352941176471" stop-color="#b7b7b7"/>
    </linearGradient>
    <linearGradient gradientTransform="matrix(-0.001, 8.0E-4, -0.001, -0.0013, 8.5, -1.45)" gradientUnits="userSpaceOnUse" id="gradient8" spreadMethod="pad" x1="-819.2" x2="819.2">
      <stop offset="0.0" stop-color="#996600"/>
      <stop offset="0.9882352941176471" stop-color="#653d01"/>
    </linearGradient>
    <linearGradient gradientTransform="matrix(0.0, 0.0131, -0.0045, 0.0, 22.75, 3.55)" gradientUnits="userSpaceOnUse" id="gradient9" spreadMethod="pad" x1="-819.2" x2="819.2">
      <stop offset="0.0" stop-color="#453218"/>
      <stop offset="0.9882352941176471" stop-color="#130d06"/>
    </linearGradient>
    <linearGradient gradientTransform="matrix(0.002, 0.002, -0.0036, 0.0036, 32.55, -15.95)" gradientUnits="userSpaceOnUse" id="gradient10" spreadMethod="pad" x1="-819.2" x2="819.2">
      <stop offset="0.0" stop-color="#6f4a00"/>
      <stop offset="0.9882352941176471" stop-color="#3c2300"/>
    </linearGradient>
    <linearGradient gradientTransform="matrix(-0.0108, 0.0083, -0.0087, -0.0113, 41.55, -2.55)" gradientUnits="userSpaceOnUse" id="gradient11" spreadMethod="pad" x1="-819.2" x2="819.2">
      <stop offset="0.0" stop-color="#996600"/>
      <stop offset="0.9882352941176471" stop-color="#653d01"/>
    </linearGradient>
    <linearGradient gradientTransform="matrix(0.0, 0.0081, -0.0053, 0.0, 26.95, 4.6)" gradientUnits="userSpaceOnUse" id="gradient12" spreadMethod="pad" x1="-819.2" x2="819.2">
      <stop offset="0.0" stop-color="#543d1d"/>
      <stop offset="0.9882352941176471" stop-color="#382614"/>
    </linearGradient>
    <linearGradient gradientTransform="matrix(-0.0117, 0.0031, -0.004, -0.0149, 7.25, 11.65)" gradientUnits="userSpaceOnUse" id="gradient13" spreadMethod="pad" x1="-819.2" x2="819.2">
      <stop offset="0.0" stop-color="#996600"/>
      <stop offset="0.9882352941176471" stop-color="#653d01"/>
    </linearGradient>
    <linearGradient gradientTransform="matrix(-0.0086, 0.0023, -0.0017, -0.0064, 6.8, 13.05)" gradientUnits="userSpaceOnUse" id="gradient14" spreadMethod="pad" x1="-819.2" x2="819.2">
      <stop offset="0.0" stop-color="#453218"/>
      <stop offset="0.9882352941176471" stop-color="#130d06"/>
    </linearGradient>
  </defs>
</svg>
