<?xml version="1.0" encoding="UTF-8" standalone="no"?>
<svg xmlns:xlink="http://www.w3.org/1999/xlink" height="68.6px" width="98.0px" xmlns="http://www.w3.org/2000/svg">
  <g transform="matrix(1.0, 0.0, 0.0, 1.0, 48.95, 34.3)">
    <path d="M10.55 -7.9 Q10.05 -9.55 7.85 -9.8 L7.55 -9.8 6.7 -9.85 5.65 -9.85 Q5.55 -10.85 7.0 -11.45 L8.4 -11.15 Q12.85 -10.05 12.95 -8.25 13.8 6.4 11.65 12.55 L10.0 13.75 Q8.35 13.35 7.65 12.45 L7.15 11.15 8.6 11.1 10.6 11.0 Q11.9 3.3 10.65 -7.25 L10.55 -7.9" fill="url(#gradient0)" fill-rule="evenodd" stroke="none"/>
    <path d="M6.7 -9.85 L7.55 -9.8 7.85 -9.8 Q10.05 -9.55 10.55 -7.9 L8.95 -7.9 Q8.25 -9.1 6.7 -9.85" fill="#fa9205" fill-rule="evenodd" stroke="none"/>
    <path d="M8.4 -11.15 L7.0 -11.45 Q5.55 -10.85 5.65 -9.85 L4.85 -9.9 -0.25 -11.95 Q-5.2 -13.6 -11.25 -14.5 L-11.95 -15.45 Q-11.55 -15.7 -11.5 -16.15 L-11.55 -16.4 -11.7 -16.7 -12.3 -17.3 -12.6 -17.45 -12.25 -19.15 -11.2 -19.75 -11.2 -20.8 -10.8 -21.2 -10.75 -21.5 Q-10.8 -22.1 -11.55 -22.65 L-12.3 -23.0 -11.95 -25.15 -10.75 -25.15 -10.1 -26.15 -10.05 -26.3 Q-9.55 -26.6 -9.5 -27.1 -9.55 -27.7 -10.3 -28.25 L-11.1 -28.6 -10.65 -30.15 -9.35 -29.85 Q4.8 -26.55 17.7 -20.1 20.4 -18.4 21.95 -16.95 21.7 -16.55 21.75 -16.0 22.95 -14.0 20.9 -12.3 19.2 -11.35 14.15 -10.4 L8.4 -11.15" fill="url(#gradient1)" fill-rule="evenodd" stroke="none"/>
    <path d="M5.65 -9.85 L6.7 -9.85 Q8.25 -9.1 8.95 -7.9 L3.05 -8.15 1.3 -10.05 4.85 -9.9 5.65 -9.85" fill="url(#gradient2)" fill-rule="evenodd" stroke="none"/>
    <path d="M1.3 -10.05 L3.05 -8.15 -10.45 -8.9 Q-11.85 -10.5 -13.55 -11.25 L-10.7 -10.95 1.3 -10.05" fill="url(#gradient3)" fill-rule="evenodd" stroke="none"/>
    <path d="M8.6 11.1 L7.15 11.15 5.2 11.1 3.05 11.2 Q5.0 7.1 4.95 -0.1 4.9 -5.3 3.05 -8.15 L8.95 -7.9 Q9.95 1.55 8.6 11.1" fill="url(#gradient4)" fill-rule="evenodd" stroke="none"/>
    <path d="M-10.45 -8.9 L3.05 -8.15 Q4.9 -5.3 4.95 -0.1 5.0 7.1 3.05 11.2 -6.3 11.45 -14.0 10.8 -11.95 9.95 -10.25 7.9 -7.4 4.5 -7.4 -0.35 -7.4 -5.2 -10.25 -8.65 L-10.45 -8.9" fill="url(#gradient5)" fill-rule="evenodd" stroke="none"/>
    <path d="M12.95 -8.25 Q12.85 -10.05 8.4 -11.15 L14.15 -10.4 Q19.2 -11.35 20.9 -12.3 22.95 -14.0 21.75 -16.0 21.7 -16.55 21.95 -16.95 22.2 -17.35 22.7 -17.55 L25.25 -18.1 Q26.3 -18.1 27.2 -17.55 29.1 -16.05 28.8 -14.95 L28.65 -9.4 28.0 -9.4 28.05 -14.85 Q27.65 -12.85 26.15 -11.25 19.9 -7.6 12.95 -8.25 M18.2 -10.2 L17.75 -10.2 14.15 -10.4 17.75 -10.2 18.2 -10.2 Q22.35 -10.4 25.0 -12.3 26.2 -14.2 26.45 -15.95 25.35 -17.05 24.25 -15.45 23.95 -11.55 18.2 -10.2" fill="url(#gradient6)" fill-rule="evenodd" stroke="none"/>
    <path d="M10.55 -7.9 L10.65 -7.25 Q11.9 3.3 10.6 11.0 L8.6 11.1 Q9.95 1.55 8.95 -7.9 L10.55 -7.9" fill="url(#gradient7)" fill-rule="evenodd" stroke="none"/>
    <path d="M14.15 -1.05 L14.6 -2.0 15.4 -2.85 17.9 -3.4 Q19.2 -3.45 20.85 -2.45 L22.65 -1.15 22.7 -0.9 18.95 -0.95 Q27.5 3.65 35.8 2.9 30.15 4.9 22.05 4.75 L17.95 -1.25 15.85 -2.15 14.15 -1.05" fill="url(#gradient8)" fill-rule="evenodd" stroke="none"/>
    <path d="M10.0 13.75 L11.65 12.55 Q13.8 6.4 12.95 -8.25 19.9 -7.6 26.15 -11.25 27.65 -12.85 28.05 -14.85 L28.0 -9.4 27.1 -8.6 Q26.3 -7.6 26.45 -6.1 L24.15 -5.1 Q22.75 -6.5 20.0 -6.25 L19.05 -5.4 Q18.3 -4.6 18.5 -3.55 L17.9 -3.4 15.4 -2.85 14.6 -2.0 14.15 -1.05 14.15 1.05 14.15 8.95 13.2 13.75 12.35 14.0 10.0 13.75" fill="url(#gradient9)" fill-rule="evenodd" stroke="none"/>
    <path d="M18.5 -3.55 Q18.3 -4.6 19.05 -5.4 20.85 -5.7 22.65 -4.75 23.25 -2.45 24.3 -2.05 23.65 -1.75 22.8 -2.3 21.9 -4.15 20.45 -3.95 L20.0 -3.85 19.0 -3.7 18.5 -3.55 M26.45 -6.1 Q26.3 -7.6 27.1 -8.6 29.1 -8.95 30.75 -7.75 31.3 -5.45 32.6 -5.45 31.85 -4.75 30.8 -5.45 29.8 -7.5 28.05 -7.05 L26.95 -6.4 26.45 -6.1" fill="#666666" fill-rule="evenodd" stroke="none"/>
    <path d="M22.65 -1.15 L20.85 -2.45 Q19.2 -3.45 17.9 -3.4 L18.5 -3.55 19.0 -3.7 20.0 -3.85 20.45 -3.95 Q21.9 -4.15 22.8 -2.3 23.65 -1.75 24.3 -2.05 L22.65 -1.15 M26.95 -6.4 L28.05 -7.05 Q29.8 -7.5 30.8 -5.45 31.85 -4.75 32.6 -5.45 L32.8 -5.55 32.25 -4.15 30.65 -3.65 28.85 -5.95 26.95 -6.4" fill="#845900" fill-rule="evenodd" stroke="none"/>
    <path d="M14.15 -1.05 L15.85 -2.15 17.95 -1.25 22.05 4.75 Q24.05 8.4 28.15 12.05 30.55 14.45 33.65 15.45 L39.25 10.0 40.2 10.85 34.6 16.05 33.05 16.5 Q27.75 14.4 23.9 9.15 L23.55 8.65 23.35 8.35 16.6 -0.4 15.75 -0.4 14.15 1.05 14.15 -1.05" fill="url(#gradient10)" fill-rule="evenodd" stroke="none"/>
    <path d="M15.75 -0.4 L16.6 -0.4 15.8 0.75 Q15.6 3.9 17.0 6.75 L19.9 9.15 Q21.3 9.95 22.8 8.85 21.95 11.15 19.7 9.95 17.85 7.95 17.05 7.95 L23.85 18.15 Q28.75 22.9 32.15 23.25 L35.45 20.75 40.05 15.05 40.7 14.5 Q40.4 19.85 37.75 23.85 L34.8 24.95 Q33.05 25.7 31.45 27.1 27.05 28.45 23.15 31.25 18.2 33.2 14.05 30.35 12.3 29.2 10.95 24.75 L13.2 13.75 14.15 8.95 14.15 1.05 15.75 -0.4 M17.85 16.15 L17.8 15.55 17.2 12.35 15.5 6.2 14.75 22.65 14.75 26.25 Q16.5 25.75 16.55 19.15 17.5 20.35 18.05 18.35 L17.85 16.15" fill="url(#gradient11)" fill-rule="evenodd" stroke="none"/>
    <path d="M19.05 -5.4 L20.0 -6.25 Q22.75 -6.5 24.15 -5.1 L24.6 -4.55 Q25.4 -2.55 24.6 -2.3 L24.3 -2.05 Q23.25 -2.45 22.65 -4.75 20.85 -5.7 19.05 -5.4 M27.1 -8.6 L28.0 -9.4 28.65 -9.4 30.7 -9.15 Q31.9 -8.7 32.6 -7.7 33.3 -5.95 32.8 -5.55 L32.6 -5.45 Q31.3 -5.45 30.75 -7.75 29.1 -8.95 27.1 -8.6" fill="#999999" fill-rule="evenodd" stroke="none"/>
    <path d="M21.95 -16.95 Q20.4 -18.4 17.7 -20.1 4.8 -26.55 -9.35 -29.85 L-8.7 -31.15 -8.35 -31.6 Q-8.25 -31.85 -8.3 -32.15 14.5 -28.25 24.9 -18.65 L25.25 -18.1 22.7 -17.55 Q22.2 -17.35 21.95 -16.95" fill="url(#gradient12)" fill-rule="evenodd" stroke="none"/>
    <path d="M40.2 10.85 L39.25 10.0 38.25 9.15 38.6 8.9 39.35 9.5 45.75 14.55 47.7 11.9 48.3 11.05 Q48.7 11.45 48.4 11.7 L46.45 15.05 Q46.35 15.45 45.1 15.05 L41.15 11.65 40.2 10.85" fill="#644300" fill-rule="evenodd" stroke="none"/>
    <path d="M22.7 -0.9 L22.65 -1.15 24.3 -2.05 24.6 -2.3 Q25.4 -2.55 24.6 -4.55 L24.15 -5.1 26.45 -6.1 26.95 -6.4 28.85 -5.95 30.65 -3.65 32.25 -4.15 32.8 -5.55 Q33.3 -5.95 32.6 -7.7 L33.85 -8.25 Q34.85 -5.95 36.2 -3.95 31.05 -1.15 22.7 -0.9" fill="url(#gradient13)" fill-rule="evenodd" stroke="none"/>
    <path d="M22.05 4.75 Q30.15 4.9 35.8 2.9 27.5 3.65 18.95 -0.95 L22.7 -0.9 Q31.05 -1.15 36.2 -3.95 34.85 -5.95 33.85 -8.25 L32.6 -7.7 Q31.9 -8.7 30.7 -9.15 L32.15 -10.3 Q34.65 -10.5 36.15 -8.0 40.3 -1.25 45.75 2.4 L48.1 3.25 48.2 3.5 42.85 5.95 44.4 3.7 Q35.75 11.1 28.15 12.05 24.05 8.4 22.05 4.75" fill="url(#gradient14)" fill-rule="evenodd" stroke="none"/>
    <path d="M-31.9 -15.2 Q-26.8 -13.6 -21.1 -12.45 L-22.25 -11.25 -22.6 -10.8 -38.95 -15.45 Q-46.05 -18.7 -47.45 -22.55 -46.75 -20.25 -46.5 -17.8 -46.2 -13.9 -47.25 -9.6 -46.75 -15.6 -48.3 -22.1 -48.85 -24.5 -47.65 -27.35 -36.15 -34.3 -19.55 -33.7 L-13.95 -33.05 Q-14.25 -32.6 -14.15 -32.25 L-14.15 -30.95 Q-25.4 -32.1 -37.45 -28.95 -51.05 -25.0 -40.5 -18.5 -36.45 -16.65 -31.9 -15.2" fill="url(#gradient15)" fill-rule="evenodd" stroke="none"/>
    <path d="M-25.9 8.95 Q-39.45 5.8 -45.85 -1.65 -47.4 -3.25 -47.6 -5.45 -39.35 3.45 -34.25 -1.05 -43.7 -8.95 -46.5 -17.8 -46.75 -20.25 -47.45 -22.55 -46.05 -18.7 -38.95 -15.45 L-22.6 -10.8 -24.1 -8.7 -24.7 -7.6 -23.95 -8.65 -21.8 -10.6 -10.45 -8.9 -10.25 -8.65 Q-7.4 -5.2 -7.4 -0.35 -7.4 4.5 -10.25 7.9 -11.95 9.95 -14.0 10.8 L-22.05 9.75 -23.95 7.9 Q-26.8 4.5 -26.8 -0.35 L-26.8 -0.85 -26.85 -0.35 -26.95 2.1 Q-27.0 5.75 -25.9 8.95 M-19.3 -3.45 Q-21.5 -3.45 -23.05 -1.85 -24.65 -0.3 -24.65 1.85 -24.65 4.05 -23.05 5.6 -21.9 6.75 -20.4 7.1 L-21.25 6.45 Q-22.25 5.45 -22.2 4.1 -22.25 2.75 -21.25 1.8 -20.25 0.8 -18.9 0.8 -17.55 0.8 -16.55 1.8 -15.6 2.75 -15.55 4.1 -15.6 5.35 -16.4 6.3 L-15.6 5.6 Q-14.0 4.05 -14.0 1.85 -14.0 -0.3 -15.6 -1.85 -17.15 -3.45 -19.3 -3.45" fill="url(#gradient16)" fill-rule="evenodd" stroke="none"/>
    <path d="M-46.5 -17.8 Q-43.7 -8.95 -34.25 -1.05 -39.35 3.45 -47.6 -5.45 -47.75 -6.85 -47.35 -8.5 L-47.25 -9.6 Q-46.2 -13.9 -46.5 -17.8" fill="url(#gradient17)" fill-rule="evenodd" stroke="none"/>
    <path d="M-14.15 -30.95 L-14.15 -32.25 Q-13.9 -31.55 -11.85 -31.15 L-11.6 -31.1 -11.75 -30.4 -14.15 -30.95" fill="url(#gradient18)" fill-rule="evenodd" stroke="none"/>
    <path d="M-8.35 -31.6 L-8.7 -31.15 -11.6 -31.1 -11.85 -31.15 Q-13.9 -31.55 -14.15 -32.25 -14.25 -32.6 -13.95 -33.05 L-13.45 -33.3 Q-13.05 -31.9 -8.35 -31.6 M-26.85 -0.35 L-26.8 -0.85 -26.8 -0.35 -26.85 -0.35 M-21.8 -10.6 L-23.95 -8.65 -24.7 -7.6 -24.1 -8.7 -22.6 -10.8 -21.8 -10.6" fill="#c9433c" fill-rule="evenodd" stroke="none"/>
    <path d="M-16.75 -16.4 Q-17.6 -15.95 -18.5 -15.55 -24.85 -16.45 -31.9 -15.2 -36.45 -16.65 -40.5 -18.5 -51.05 -25.0 -37.45 -28.95 -25.4 -32.1 -14.15 -30.95 L-11.75 -30.4 -12.2 -28.85 -14.05 -28.65 -14.25 -28.55 Q-14.85 -28.2 -14.85 -27.7 -14.85 -27.3 -14.45 -27.05 L-14.45 -26.15 -12.65 -25.55 -13.25 -23.2 -13.45 -23.25 -15.3 -23.05 -15.9 -22.65 -16.1 -22.1 -15.85 -21.55 -15.45 -20.25 -13.35 -19.65 -13.45 -17.75 -14.2 -17.9 -16.05 -17.7 -16.4 -17.5 -16.85 -16.75 -16.75 -16.4" fill="url(#gradient19)" fill-rule="evenodd" stroke="none"/>
    <path d="M-9.35 -29.85 L-10.65 -30.15 -11.1 -28.6 -12.2 -28.85 -11.75 -30.4 -11.6 -31.1 -8.7 -31.15 -9.35 -29.85" fill="url(#gradient20)" fill-rule="evenodd" stroke="none"/>
    <path d="M-11.1 -28.6 L-10.3 -28.25 Q-9.55 -27.7 -9.5 -27.1 -12.65 -26.55 -14.25 -28.55 L-14.05 -28.65 -12.2 -28.85 -11.1 -28.6" fill="url(#gradient21)" fill-rule="evenodd" stroke="none"/>
    <path d="M-14.45 -27.05 L-13.85 -26.8 -12.45 -26.4 -12.65 -25.55 -14.45 -26.15 -14.45 -27.05" fill="url(#gradient22)" fill-rule="evenodd" stroke="none"/>
    <path d="M-11.95 -15.45 L-12.25 -15.3 Q-12.95 -15.05 -13.9 -15.3 L-15.85 -15.85 Q-16.55 -16.05 -16.75 -16.4 L-16.85 -16.75 -16.4 -17.5 Q-14.75 -16.0 -11.55 -16.4 L-11.5 -16.15 Q-11.55 -15.7 -11.95 -15.45 M-9.5 -27.1 Q-9.55 -26.6 -10.05 -26.3 L-10.25 -26.25 Q-10.95 -26.0 -11.9 -26.25 L-12.45 -26.4 -13.85 -26.8 -14.45 -27.05 Q-14.85 -27.3 -14.85 -27.7 -14.85 -28.2 -14.25 -28.55 -12.65 -26.55 -9.5 -27.1 M-10.8 -21.2 L-11.2 -20.8 -11.5 -20.65 Q-12.2 -20.4 -13.15 -20.65 L-13.3 -20.7 -15.1 -21.2 -15.85 -21.55 -16.1 -22.1 -15.9 -22.65 Q-14.1 -21.0 -10.8 -21.2" fill="#932e28" fill-rule="evenodd" stroke="none"/>
    <path d="M-10.1 -26.15 L-10.75 -25.15 -11.95 -25.15 -12.3 -23.0 -13.25 -23.2 -12.65 -25.55 -12.45 -26.4 -11.9 -26.25 Q-10.95 -26.0 -10.25 -26.25 L-10.1 -26.15" fill="url(#gradient23)" fill-rule="evenodd" stroke="none"/>
    <path d="M-8.3 -32.15 Q-8.25 -31.85 -8.35 -31.6 -13.05 -31.9 -13.45 -33.3 -10.65 -34.7 -8.3 -32.15" fill="url(#gradient24)" fill-rule="evenodd" stroke="none"/>
    <path d="M-10.05 -26.3 L-10.1 -26.15 -10.25 -26.25 -10.05 -26.3" fill="#be6f03" fill-rule="evenodd" stroke="none"/>
    <path d="M-21.1 -12.45 L-18.3 -11.95 Q-20.2 -11.7 -21.8 -10.6 L-22.6 -10.8 -22.25 -11.25 -21.1 -12.45" fill="url(#gradient25)" fill-rule="evenodd" stroke="none"/>
    <path d="M-25.9 8.95 Q-27.0 5.75 -26.95 2.1 L-26.85 -0.35 -26.8 -0.35 Q-26.8 4.5 -23.95 7.9 L-22.05 9.75 -25.9 8.95" fill="url(#gradient26)" fill-rule="evenodd" stroke="none"/>
    <path d="M-12.3 -23.0 L-11.55 -22.65 Q-10.8 -22.1 -10.75 -21.5 L-10.8 -21.2 Q-14.1 -21.0 -15.9 -22.65 L-15.3 -23.05 -13.45 -23.25 -13.25 -23.2 -12.3 -23.0" fill="url(#gradient27)" fill-rule="evenodd" stroke="none"/>
    <path d="M-13.3 -20.7 L-13.3 -20.65 -13.35 -19.65 -15.45 -20.25 -15.85 -21.55 -15.1 -21.2 -13.3 -20.7" fill="url(#gradient28)" fill-rule="evenodd" stroke="none"/>
    <path d="M-11.2 -20.8 L-11.2 -19.75 -12.25 -19.15 -12.6 -17.45 -13.45 -17.75 -13.35 -19.65 -13.3 -20.65 -13.15 -20.65 Q-12.2 -20.4 -11.5 -20.65 L-11.2 -20.8" fill="url(#gradient29)" fill-rule="evenodd" stroke="none"/>
    <path d="M-12.6 -17.45 L-12.3 -17.3 -11.7 -16.7 -11.55 -16.4 Q-14.75 -16.0 -16.4 -17.5 L-16.05 -17.7 -14.2 -17.9 -13.45 -17.75 -12.6 -17.45" fill="url(#gradient30)" fill-rule="evenodd" stroke="none"/>
    <path d="M-13.55 -11.25 Q-11.85 -10.5 -10.45 -8.9 L-21.8 -10.6 Q-20.2 -11.7 -18.3 -11.95 L-13.55 -11.25" fill="url(#gradient31)" fill-rule="evenodd" stroke="none"/>
    <path d="M-19.3 -3.45 Q-17.15 -3.45 -15.6 -1.85 -14.0 -0.3 -14.0 1.85 -14.0 4.05 -15.6 5.6 L-16.4 6.3 Q-15.6 5.35 -15.55 4.1 -15.6 2.75 -16.55 1.8 -17.55 0.8 -18.9 0.8 -20.25 0.8 -21.25 1.8 -22.25 2.75 -22.2 4.1 -22.25 5.45 -21.25 6.45 L-20.4 7.1 Q-21.9 6.75 -23.05 5.6 -24.65 4.05 -24.65 1.85 -24.65 -0.3 -23.05 -1.85 -21.5 -3.45 -19.3 -3.45" fill="url(#gradient32)" fill-rule="evenodd" stroke="none"/>
    <path d="M39.25 10.0 L33.65 15.45 Q30.55 14.45 28.15 12.05 35.75 11.1 44.4 3.7 L42.85 5.95 48.2 3.5 Q48.35 4.05 48.0 4.3 45.45 6.05 43.2 8.1 L41.55 6.95 38.6 8.9 38.25 9.15 39.25 10.0" fill="url(#gradient33)" fill-rule="evenodd" stroke="none"/>
    <path d="M43.2 8.1 Q47.4 10.05 48.3 11.05 L47.7 11.9 41.55 8.05 39.35 9.5 38.6 8.9 41.55 6.95 43.2 8.1 M41.35 13.9 Q41.4 17.5 40.25 20.95 39.2 23.95 36.45 25.9 L35.5 26.3 37.75 23.85 Q40.4 19.85 40.7 14.5 L41.35 13.9" fill="#bb7e00" fill-rule="evenodd" stroke="none"/>
    <path d="M39.35 9.5 L41.55 8.05 47.7 11.9 45.75 14.55 39.35 9.5" fill="url(#gradient34)" fill-rule="evenodd" stroke="none"/>
    <path d="M23.35 8.35 L23.55 8.65 23.9 9.15 Q27.75 14.4 33.05 16.5 L34.6 16.05 40.2 10.85 41.15 11.65 41.35 13.9 40.7 14.5 40.05 15.05 35.45 20.75 32.15 23.25 Q28.75 22.9 23.85 18.15 L17.05 7.95 Q17.85 7.95 19.7 9.95 21.95 11.15 22.8 8.85 L23.35 8.35" fill="url(#gradient35)" fill-rule="evenodd" stroke="none"/>
    <path d="M16.6 -0.4 L23.35 8.35 22.8 8.85 Q21.3 9.95 19.9 9.15 L17.0 6.75 Q15.6 3.9 15.8 0.75 L16.6 -0.4" fill="#4a3200" fill-rule="evenodd" stroke="none"/>
    <path d="M14.75 22.65 L15.5 6.2 17.2 12.35 17.8 15.55 17.85 16.15 18.05 18.35 Q17.5 20.35 16.55 19.15 16.5 25.75 14.75 26.25 L14.75 22.65" fill="url(#gradient36)" fill-rule="evenodd" stroke="none"/>
    <path d="M29.55 28.85 L28.35 30.15 Q26.0 33.75 21.15 33.75 L20.2 33.75 Q14.45 34.1 12.2 30.35 10.75 28.0 10.95 24.75 12.3 29.2 14.05 30.35 18.2 33.2 23.15 31.25 27.05 28.45 31.45 27.1 L29.55 28.85" fill="url(#gradient37)" fill-rule="evenodd" stroke="none"/>
    <path d="M35.5 26.3 L29.55 28.85 31.45 27.1 Q33.05 25.7 34.8 24.95 L37.75 23.85 35.5 26.3" fill="url(#gradient38)" fill-rule="evenodd" stroke="none"/>
    <path d="M18.2 -10.2 Q23.95 -11.55 24.25 -15.45 25.35 -17.05 26.45 -15.95 26.2 -14.2 25.0 -12.3 22.35 -10.4 18.2 -10.2" fill="#a96b00" fill-rule="evenodd" stroke="none"/>
    <path d="M6.7 -9.85 L7.55 -9.8 7.85 -9.8 Q10.05 -9.55 10.55 -7.9 L10.65 -7.25 Q11.9 3.3 10.6 11.0 L8.6 11.1 7.15 11.15 7.65 12.45 Q8.35 13.35 10.0 13.75 L12.35 14.0 13.2 13.75 10.95 24.75 Q10.75 28.0 12.2 30.35 14.45 34.1 20.2 33.75 L21.15 33.75 Q26.0 33.75 28.35 30.15 L29.55 28.85 31.45 27.1 Q33.05 25.7 34.8 24.95 M8.4 -11.15 L7.0 -11.45 Q5.55 -10.85 5.65 -9.85 L6.7 -9.85 M1.3 -10.05 L-10.7 -10.95 -13.55 -11.25 -18.3 -11.95 -21.1 -12.45 Q-26.8 -13.6 -31.9 -15.2 -24.85 -16.45 -18.5 -15.55 -17.6 -15.95 -16.75 -16.4 M1.3 -10.05 L4.85 -9.9 -0.25 -11.95 Q-5.2 -13.6 -11.25 -14.5 L-11.95 -15.45 M3.05 11.2 L5.2 11.1 7.15 11.15 M4.85 -9.9 L5.65 -9.85 M14.15 -10.4 L17.75 -10.2 18.2 -10.2 Q22.35 -10.4 25.0 -12.3 M17.9 -3.4 L15.4 -2.85 14.6 -2.0 14.15 -1.05 14.15 1.05 14.15 8.95 13.2 13.75 M17.9 -3.4 L18.5 -3.55 19.0 -3.7 20.0 -3.85 M24.15 -5.1 L26.45 -6.1 Q26.3 -7.6 27.1 -8.6 L28.0 -9.4 28.65 -9.4 30.7 -9.15 32.15 -10.3 Q34.65 -10.5 36.15 -8.0 40.3 -1.25 45.75 2.4 L48.1 3.25 48.2 3.5 Q48.35 4.05 48.0 4.3 45.45 6.05 43.2 8.1 47.4 10.05 48.3 11.05 48.7 11.45 48.4 11.7 L46.45 15.05 Q46.35 15.45 45.1 15.05 L41.15 11.65 41.35 13.9 Q41.4 17.5 40.25 20.95 39.2 23.95 36.45 25.9 L35.5 26.3 29.55 28.85 M15.75 -0.4 L16.6 -0.4 23.35 8.35 23.55 8.65 23.9 9.15 Q27.75 14.4 33.05 16.5 L34.6 16.05 40.2 10.85 39.25 10.0 38.25 9.15 38.6 8.9 41.55 6.95 43.2 8.1 M8.4 -11.15 L14.15 -10.4 Q19.2 -11.35 20.9 -12.3 22.95 -14.0 21.75 -16.0 21.7 -16.55 21.95 -16.95 20.4 -18.4 17.7 -20.1 M-11.1 -28.6 L-10.3 -28.25 Q-9.55 -27.7 -9.5 -27.1 -9.55 -26.6 -10.05 -26.3 L-10.25 -26.25 Q-10.95 -26.0 -11.9 -26.25 L-12.45 -26.4 -13.85 -26.8 -14.45 -27.05 Q-14.85 -27.3 -14.85 -27.7 -14.85 -28.2 -14.25 -28.55 L-14.05 -28.65 -12.2 -28.85 -11.1 -28.6 M25.25 -18.1 Q26.3 -18.1 27.2 -17.55 29.1 -16.05 28.8 -14.95 L28.65 -9.4 M25.25 -18.1 L24.9 -18.65 Q14.5 -28.25 -8.3 -32.15 -8.25 -31.85 -8.35 -31.6 L-8.7 -31.15 -11.6 -31.1 -11.85 -31.15 Q-13.9 -31.55 -14.15 -32.25 -14.25 -32.6 -13.95 -33.05 L-13.45 -33.3 Q-10.65 -34.7 -8.3 -32.15 M21.95 -16.95 Q22.2 -17.35 22.7 -17.55 L25.25 -18.1 M26.95 -6.4 L28.05 -7.05 Q29.8 -7.5 30.8 -5.45 31.85 -4.75 32.6 -5.45 L32.8 -5.55 Q33.3 -5.95 32.6 -7.7 31.9 -8.7 30.7 -9.15 M26.95 -6.4 L26.45 -6.1 M22.8 8.85 L23.35 8.35 M17.85 16.15 L17.8 15.55 17.2 12.35 15.5 6.2 14.75 22.65 M16.6 -0.4 L15.8 0.75 Q15.6 3.9 17.0 6.75 L19.9 9.15 Q21.3 9.95 22.8 8.85 M40.2 10.85 L41.15 11.65 M-47.6 -5.45 Q-47.4 -3.25 -45.85 -1.65 -39.45 5.8 -25.9 8.95 L-22.05 9.75 -14.0 10.8 Q-6.3 11.45 3.05 11.2 M-47.6 -5.45 Q-47.75 -6.85 -47.35 -8.5 L-47.25 -9.6 Q-46.75 -15.6 -48.3 -22.1 -48.85 -24.5 -47.65 -27.35 -36.15 -34.3 -19.55 -33.7 L-13.95 -33.05 M-12.2 -28.85 L-11.75 -30.4 -11.6 -31.1 M-37.45 -28.95 Q-51.05 -25.0 -40.5 -18.5 -36.45 -16.65 -31.9 -15.2 M-12.65 -25.55 L-12.45 -26.4 M-13.25 -23.2 L-12.65 -25.55 M-13.3 -20.7 L-13.3 -20.65 -13.35 -19.65 -13.45 -17.75" fill="none" stroke="#000000" stroke-linecap="round" stroke-linejoin="round" stroke-opacity="0.4" stroke-width="0.5"/>
    <path d="M3.05 -8.15 L1.3 -10.05 M-13.55 -11.25 Q-11.85 -10.5 -10.45 -8.9 L-10.25 -8.65 Q-7.4 -5.2 -7.4 -0.35 -7.4 4.5 -10.25 7.9 -11.95 9.95 -14.0 10.8 M3.05 -8.15 Q4.9 -5.3 4.95 -0.1 5.0 7.1 3.05 11.2 M-25.9 8.95 Q-27.0 5.75 -26.95 2.1 L-26.85 -0.35 M-26.8 -0.35 Q-26.8 4.5 -23.95 7.9 L-22.05 9.75 M-21.8 -10.6 L-23.95 -8.65 -24.7 -7.6 -24.1 -8.7 -22.6 -10.8 -22.25 -11.25 -21.1 -12.45 M-19.3 -3.45 Q-21.5 -3.45 -23.05 -1.85 -24.65 -0.3 -24.65 1.85 -24.65 4.05 -23.05 5.6 -21.9 6.75 -20.4 7.1 L-21.25 6.45 Q-22.25 5.45 -22.2 4.1 -22.25 2.75 -21.25 1.8 -20.25 0.8 -18.9 0.8 -17.55 0.8 -16.55 1.8 -15.6 2.75 -15.55 4.1 -15.6 5.35 -16.4 6.3 L-15.6 5.6 Q-14.0 4.05 -14.0 1.85 -14.0 -0.3 -15.6 -1.85 -17.15 -3.45 -19.3 -3.45 M-18.3 -11.95 Q-20.2 -11.7 -21.8 -10.6" fill="none" stroke="#5e0000" stroke-linecap="round" stroke-linejoin="round" stroke-opacity="0.4" stroke-width="0.5"/>
    <path d="M-11.95 -15.45 L-12.25 -15.3 Q-12.95 -15.05 -13.9 -15.3 L-15.85 -15.85 Q-16.55 -16.05 -16.75 -16.4 L-16.85 -16.75 -16.4 -17.5 -16.05 -17.7 -14.2 -17.9 -13.45 -17.75 -12.6 -17.45 -12.3 -17.3 -11.7 -16.7 -11.55 -16.4 -11.5 -16.15 Q-11.55 -15.7 -11.95 -15.45 M18.5 -3.55 Q18.3 -4.6 19.05 -5.4 L20.0 -6.25 Q22.75 -6.5 24.15 -5.1 L24.6 -4.55 Q25.4 -2.55 24.6 -2.3 L24.3 -2.05 Q23.65 -1.75 22.8 -2.3 21.9 -4.15 20.45 -3.95 L20.0 -3.85 M-12.3 -23.0 L-11.55 -22.65 Q-10.8 -22.1 -10.75 -21.5 L-10.8 -21.2 -11.2 -20.8 -11.5 -20.65 Q-12.2 -20.4 -13.15 -20.65 L-13.3 -20.7 -15.1 -21.2 -15.85 -21.55 -16.1 -22.1 -15.9 -22.65 -15.3 -23.05 -13.45 -23.25 -13.25 -23.2 -12.3 -23.0 Z" fill="none" stroke="#000000" stroke-linecap="round" stroke-linejoin="round" stroke-opacity="0.4" stroke-width="0.5"/>
    <path d="M24.9 -18.65 Q14.5 -28.25 -8.3 -32.15 -10.65 -34.7 -13.45 -33.3 L-13.95 -33.05 -19.55 -33.7 Q-36.15 -34.3 -47.65 -27.35 -48.85 -24.5 -48.3 -22.1 -46.75 -15.6 -47.25 -9.6 L-47.35 -8.5 Q-47.75 -6.85 -47.6 -5.45 -47.4 -3.25 -45.85 -1.65 -39.45 5.8 -25.9 8.95 L-22.05 9.75 -14.0 10.8 Q-6.3 11.45 3.05 11.2 L5.2 11.1 7.15 11.15 7.65 12.45 Q8.35 13.35 10.0 13.75 L12.35 14.0 13.2 13.75 10.95 24.75 Q10.75 28.0 12.2 30.35 14.45 34.1 20.2 33.75 L21.15 33.75 Q26.0 33.75 28.35 30.15 L29.55 28.85 36.45 25.9 Q39.2 23.95 40.25 20.95 41.4 17.5 41.35 13.9 L41.15 11.65 45.1 15.05 Q46.35 15.45 46.45 15.05 L48.4 11.7 Q48.7 11.45 48.3 11.05 47.4 10.05 43.2 8.1 45.45 6.05 48.0 4.3 48.35 4.05 48.2 3.5 L48.1 3.25 45.75 2.4 Q40.3 -1.25 36.15 -8.0 34.65 -10.5 32.15 -10.3 L30.7 -9.15 28.65 -9.4 28.8 -14.95 Q29.1 -16.05 27.2 -17.55 26.3 -18.1 25.25 -18.1 L24.9 -18.65 M4.85 -9.9 L-0.25 -11.95 Q-5.2 -13.6 -11.25 -14.5 L-11.95 -15.45 -12.25 -15.3 Q-12.95 -15.05 -13.9 -15.3 L-15.85 -15.85 Q-16.55 -16.05 -16.75 -16.4 -17.6 -15.95 -18.5 -15.55 -24.85 -16.45 -31.9 -15.2 -26.8 -13.6 -21.1 -12.45 L-18.3 -11.95 -13.55 -11.25 -10.7 -10.95 1.3 -10.05 4.85 -9.9 Z" fill="none" stroke="#000000" stroke-linecap="round" stroke-linejoin="round" stroke-opacity="0.4" stroke-width="1.0"/>
  </g>
  <defs>
    <linearGradient gradientTransform="matrix(0.0, 0.0092, -0.0046, 0.0, 9.45, -0.8)" gradientUnits="userSpaceOnUse" id="gradient0" spreadMethod="pad" x1="-819.2" x2="819.2">
      <stop offset="0.0" stop-color="#996600"/>
      <stop offset="0.9882352941176471" stop-color="#ba7001"/>
    </linearGradient>
    <linearGradient gradientTransform="matrix(0.0141, 0.0055, -0.0036, 0.0092, 4.1, -17.25)" gradientUnits="userSpaceOnUse" id="gradient1" spreadMethod="pad" x1="-819.2" x2="819.2">
      <stop offset="0.0" stop-color="#d17a03"/>
      <stop offset="0.9882352941176471" stop-color="#b74b04"/>
    </linearGradient>
    <linearGradient gradientTransform="matrix(-0.0041, -0.0023, 0.001, -0.0017, 5.05, -8.9)" gradientUnits="userSpaceOnUse" id="gradient2" spreadMethod="pad" x1="-819.2" x2="819.2">
      <stop offset="0.0" stop-color="#fab430"/>
      <stop offset="0.9882352941176471" stop-color="#fcc87a"/>
    </linearGradient>
    <linearGradient gradientTransform="matrix(6.0E-4, 0.001, -0.0067, 0.0039, -4.25, -8.05)" gradientUnits="userSpaceOnUse" id="gradient3" spreadMethod="pad" x1="-819.2" x2="819.2">
      <stop offset="0.0" stop-color="#e49e81"/>
      <stop offset="0.9882352941176471" stop-color="#e17252"/>
    </linearGradient>
    <linearGradient gradientTransform="matrix(0.0069, 0.0018, -0.0031, 0.0118, 10.25, 2.75)" gradientUnits="userSpaceOnUse" id="gradient4" spreadMethod="pad" x1="-819.2" x2="819.2">
      <stop offset="0.0" stop-color="#faa430"/>
      <stop offset="0.9882352941176471" stop-color="#f07b06"/>
    </linearGradient>
    <linearGradient gradientTransform="matrix(0.0035, 0.006, -0.0128, 0.0074, -6.2, 0.05)" gradientUnits="userSpaceOnUse" id="gradient5" spreadMethod="pad" x1="-819.2" x2="819.2">
      <stop offset="0.0" stop-color="#c9433c"/>
      <stop offset="0.9882352941176471" stop-color="#7e2323"/>
    </linearGradient>
    <linearGradient gradientTransform="matrix(0.0088, -0.0051, 0.0036, 0.0062, 23.1, -12.95)" gradientUnits="userSpaceOnUse" id="gradient6" spreadMethod="pad" x1="-819.2" x2="819.2">
      <stop offset="0.0" stop-color="#bb7e00"/>
      <stop offset="0.9882352941176471" stop-color="#e38902"/>
    </linearGradient>
    <linearGradient gradientTransform="matrix(0.0014, 0.0052, -0.004, 0.0011, 9.0, -0.8)" gradientUnits="userSpaceOnUse" id="gradient7" spreadMethod="pad" x1="-819.2" x2="819.2">
      <stop offset="0.0" stop-color="#e48503"/>
      <stop offset="0.9882352941176471" stop-color="#c96503"/>
    </linearGradient>
    <linearGradient gradientTransform="matrix(0.0066, -0.0018, 0.0017, 0.0064, 26.65, -0.25)" gradientUnits="userSpaceOnUse" id="gradient8" spreadMethod="pad" x1="-819.2" x2="819.2">
      <stop offset="0.0" stop-color="#996600"/>
      <stop offset="0.9882352941176471" stop-color="#ba7001"/>
    </linearGradient>
    <linearGradient gradientTransform="matrix(0.011, -0.0029, 0.0037, 0.0141, 26.05, -1.95)" gradientUnits="userSpaceOnUse" id="gradient9" spreadMethod="pad" x1="-819.2" x2="819.2">
      <stop offset="0.0" stop-color="#845900"/>
      <stop offset="0.9882352941176471" stop-color="#b16a01"/>
    </linearGradient>
    <linearGradient gradientTransform="matrix(0.0061, 0.0105, -0.0093, 0.0054, 27.55, 6.65)" gradientUnits="userSpaceOnUse" id="gradient10" spreadMethod="pad" x1="-819.2" x2="819.2">
      <stop offset="0.0" stop-color="#845900"/>
      <stop offset="0.9882352941176471" stop-color="#9d6200"/>
    </linearGradient>
    <linearGradient gradientTransform="matrix(0.0114, -0.0066, 0.0097, 0.0169, 22.1, 14.35)" gradientUnits="userSpaceOnUse" id="gradient11" spreadMethod="pad" x1="-819.2" x2="819.2">
      <stop offset="0.0" stop-color="#996600"/>
      <stop offset="0.9882352941176471" stop-color="#ba7001"/>
    </linearGradient>
    <linearGradient gradientTransform="matrix(-0.0134, -0.0077, 0.0025, -0.0044, 10.4, -23.25)" gradientUnits="userSpaceOnUse" id="gradient12" spreadMethod="pad" x1="-819.2" x2="819.2">
      <stop offset="0.0" stop-color="#fab430"/>
      <stop offset="0.9882352941176471" stop-color="#fcc87a"/>
    </linearGradient>
    <linearGradient gradientTransform="matrix(0.0037, -0.0063, 0.0058, 0.0034, 29.75, -3.75)" gradientUnits="userSpaceOnUse" id="gradient13" spreadMethod="pad" x1="-819.2" x2="819.2">
      <stop offset="0.0" stop-color="#996600"/>
      <stop offset="0.9882352941176471" stop-color="#ba7001"/>
    </linearGradient>
    <linearGradient gradientTransform="matrix(0.0089, -0.0154, 0.0146, 0.0084, 36.25, -3.35)" gradientUnits="userSpaceOnUse" id="gradient14" spreadMethod="pad" x1="-819.2" x2="819.2">
      <stop offset="0.0" stop-color="#bb7e00"/>
      <stop offset="0.9882352941176471" stop-color="#e38902"/>
    </linearGradient>
    <linearGradient gradientTransform="matrix(-0.009, -0.0052, 0.0112, -0.0195, -29.0, -20.4)" gradientUnits="userSpaceOnUse" id="gradient15" spreadMethod="pad" x1="-819.2" x2="819.2">
      <stop offset="0.0" stop-color="#fab430"/>
      <stop offset="0.9882352941176471" stop-color="#fcc87a"/>
    </linearGradient>
    <linearGradient gradientTransform="matrix(-0.0189, -0.0064, 0.0046, -0.0134, -31.0, -4.7)" gradientUnits="userSpaceOnUse" id="gradient16" spreadMethod="pad" x1="-819.2" x2="819.2">
      <stop offset="0.0" stop-color="#faa430"/>
      <stop offset="0.9882352941176471" stop-color="#f07b06"/>
    </linearGradient>
    <linearGradient gradientTransform="matrix(0.007, 0.0041, -0.0038, 0.0066, -39.35, -6.45)" gradientUnits="userSpaceOnUse" id="gradient17" spreadMethod="pad" x1="-819.2" x2="819.2">
      <stop offset="0.0" stop-color="#c96503"/>
      <stop offset="0.9882352941176471" stop-color="#df7104"/>
    </linearGradient>
    <linearGradient gradientTransform="matrix(0.0016, 0.0, 0.0, 0.0011, -12.9, -31.35)" gradientUnits="userSpaceOnUse" id="gradient18" spreadMethod="pad" x1="-819.2" x2="819.2">
      <stop offset="0.0" stop-color="#be6f03"/>
      <stop offset="0.9882352941176471" stop-color="#753c02"/>
    </linearGradient>
    <linearGradient gradientTransform="matrix(-0.0128, 0.0012, -9.0E-4, -0.0098, -29.15, -22.6)" gradientUnits="userSpaceOnUse" id="gradient19" spreadMethod="pad" x1="-819.2" x2="819.2">
      <stop offset="0.0" stop-color="#d17a03"/>
      <stop offset="0.9882352941176471" stop-color="#b74b04"/>
    </linearGradient>
    <linearGradient gradientTransform="matrix(-7.0E-4, 7.0E-4, -0.0011, -0.0011, -10.65, -30.25)" gradientUnits="userSpaceOnUse" id="gradient20" spreadMethod="pad" x1="-819.2" x2="819.2">
      <stop offset="0.0" stop-color="#be6f03"/>
      <stop offset="0.9882352941176471" stop-color="#753c02"/>
    </linearGradient>
    <linearGradient gradientTransform="matrix(0.001, 3.0E-4, -3.0E-4, 0.001, -11.75, -27.9)" gradientUnits="userSpaceOnUse" id="gradient21" spreadMethod="pad" x1="-819.2" x2="819.2">
      <stop offset="0.0" stop-color="#c9433c"/>
      <stop offset="0.9882352941176471" stop-color="#a72e2e"/>
    </linearGradient>
    <linearGradient gradientTransform="matrix(0.0012, 0.0, 0.0, 9.0E-4, -13.45, -26.3)" gradientUnits="userSpaceOnUse" id="gradient22" spreadMethod="pad" x1="-819.2" x2="819.2">
      <stop offset="0.0" stop-color="#be6f03"/>
      <stop offset="0.9882352941176471" stop-color="#753c02"/>
    </linearGradient>
    <linearGradient gradientTransform="matrix(-5.0E-4, 3.0E-4, -9.0E-4, -0.0016, -11.6, -25.15)" gradientUnits="userSpaceOnUse" id="gradient23" spreadMethod="pad" x1="-819.2" x2="819.2">
      <stop offset="0.0" stop-color="#be6f03"/>
      <stop offset="0.9882352941176471" stop-color="#753c02"/>
    </linearGradient>
    <linearGradient gradientTransform="matrix(0.0031, 0.0, 0.0, 0.0013, -10.9, -32.7)" gradientUnits="userSpaceOnUse" id="gradient24" spreadMethod="pad" x1="-819.2" x2="819.2">
      <stop offset="0.0" stop-color="#e49e81"/>
      <stop offset="0.9882352941176471" stop-color="#df5331"/>
    </linearGradient>
    <linearGradient gradientTransform="matrix(0.0026, 0.0, 0.0, 0.0011, -20.45, -11.55)" gradientUnits="userSpaceOnUse" id="gradient25" spreadMethod="pad" x1="-819.2" x2="819.2">
      <stop offset="0.0" stop-color="#e49e81"/>
      <stop offset="0.9882352941176471" stop-color="#df5331"/>
    </linearGradient>
    <linearGradient gradientTransform="matrix(7.0E-4, 0.0024, -0.0021, 6.0E-4, -24.7, 6.7)" gradientUnits="userSpaceOnUse" id="gradient26" spreadMethod="pad" x1="-819.2" x2="819.2">
      <stop offset="0.0" stop-color="#c9433c"/>
      <stop offset="0.9882352941176471" stop-color="#7e2323"/>
    </linearGradient>
    <linearGradient gradientTransform="matrix(9.0E-4, 5.0E-4, -7.0E-4, 0.0012, -13.4, -22.4)" gradientUnits="userSpaceOnUse" id="gradient27" spreadMethod="pad" x1="-819.2" x2="819.2">
      <stop offset="0.0" stop-color="#c9433c"/>
      <stop offset="0.9882352941176471" stop-color="#a72e2e"/>
    </linearGradient>
    <linearGradient gradientTransform="matrix(0.0016, 0.0, 0.0, 0.0012, -14.6, -20.6)" gradientUnits="userSpaceOnUse" id="gradient28" spreadMethod="pad" x1="-819.2" x2="819.2">
      <stop offset="0.0" stop-color="#be6f03"/>
      <stop offset="0.9882352941176471" stop-color="#753c02"/>
    </linearGradient>
    <linearGradient gradientTransform="matrix(-5.0E-4, 0.0, 0.0, -0.002, -12.45, -19.1)" gradientUnits="userSpaceOnUse" id="gradient29" spreadMethod="pad" x1="-819.2" x2="819.2">
      <stop offset="0.0" stop-color="#be6f03"/>
      <stop offset="0.9882352941176471" stop-color="#753c02"/>
    </linearGradient>
    <linearGradient gradientTransform="matrix(0.0014, 8.0E-4, -6.0E-4, 0.0011, -14.0, -17.2)" gradientUnits="userSpaceOnUse" id="gradient30" spreadMethod="pad" x1="-819.2" x2="819.2">
      <stop offset="0.0" stop-color="#c9433c"/>
      <stop offset="0.9882352941176471" stop-color="#a72e2e"/>
    </linearGradient>
    <linearGradient gradientTransform="matrix(-0.0057, -0.0033, 0.0014, -0.0025, -16.0, -9.95)" gradientUnits="userSpaceOnUse" id="gradient31" spreadMethod="pad" x1="-819.2" x2="819.2">
      <stop offset="0.0" stop-color="#fab430"/>
      <stop offset="0.9882352941176471" stop-color="#fcc87a"/>
    </linearGradient>
    <linearGradient gradientTransform="matrix(0.0017, 0.0029, -0.0056, 0.0033, -20.05, 0.55)" gradientUnits="userSpaceOnUse" id="gradient32" spreadMethod="pad" x1="-819.2" x2="819.2">
      <stop offset="0.0" stop-color="#c9433c"/>
      <stop offset="0.9882352941176471" stop-color="#7e2323"/>
    </linearGradient>
    <linearGradient gradientTransform="matrix(0.0062, -0.0062, 0.0037, 0.0037, 37.65, 8.55)" gradientUnits="userSpaceOnUse" id="gradient33" spreadMethod="pad" x1="-819.2" x2="819.2">
      <stop offset="0.0" stop-color="#996600"/>
      <stop offset="0.9882352941176471" stop-color="#ba7001"/>
    </linearGradient>
    <linearGradient gradientTransform="matrix(-5.0E-4, -0.0018, 0.0044, -0.0012, 43.3, 9.95)" gradientUnits="userSpaceOnUse" id="gradient34" spreadMethod="pad" x1="-819.2" x2="819.2">
      <stop offset="0.0" stop-color="#996600"/>
      <stop offset="0.9882352941176471" stop-color="#ba7001"/>
    </linearGradient>
    <linearGradient gradientTransform="matrix(0.0122, 0.0016, -0.0011, 0.0083, 32.75, 16.4)" gradientUnits="userSpaceOnUse" id="gradient35" spreadMethod="pad" x1="-819.2" x2="819.2">
      <stop offset="0.0" stop-color="#644300"/>
      <stop offset="0.9882352941176471" stop-color="#985b01"/>
    </linearGradient>
    <linearGradient gradientTransform="matrix(0.0, 0.0051, -0.002, 0.0, 16.4, 16.95)" gradientUnits="userSpaceOnUse" id="gradient36" spreadMethod="pad" x1="-819.2" x2="819.2">
      <stop offset="0.0" stop-color="#845900"/>
      <stop offset="0.9882352941176471" stop-color="#9d6200"/>
    </linearGradient>
    <linearGradient gradientTransform="matrix(0.0066, -0.0018, 0.0018, 0.0069, 24.1, 27.35)" gradientUnits="userSpaceOnUse" id="gradient37" spreadMethod="pad" x1="-819.2" x2="819.2">
      <stop offset="0.0" stop-color="#845900"/>
      <stop offset="0.9882352941176471" stop-color="#9d6200"/>
    </linearGradient>
    <linearGradient gradientTransform="matrix(0.0031, -0.0017, 5.0E-4, 8.0E-4, 35.7, 25.2)" gradientUnits="userSpaceOnUse" id="gradient38" spreadMethod="pad" x1="-819.2" x2="819.2">
      <stop offset="0.0" stop-color="#845900"/>
      <stop offset="0.9882352941176471" stop-color="#9d6200"/>
    </linearGradient>
  </defs>
</svg>
