<?xml version="1.0" encoding="UTF-8" standalone="no"?>
<svg xmlns:xlink="http://www.w3.org/1999/xlink" height="146.15px" width="216.25px" xmlns="http://www.w3.org/2000/svg">
  <g transform="matrix(1.0, 0.0, 0.0, 1.0, 128.65, 73.05)">
    <path d="M-112.6 -15.8 L-108.2 -0.8 -112.55 8.85 -112.55 28.1 -125.15 0.85 -116.45 11.65 -116.45 1.85 -112.6 1.85 -116.55 -13.05 -112.6 -15.8 M-100.55 25.3 L-99.25 29.75 -103.7 37.55 -108.8 32.9 -108.8 13.75 -104.95 1.0 -98.15 -1.95 -96.45 15.05 -99.0 20.55 -102.0 17.6 -100.0 7.5 -104.55 11.7 -105.3 17.45 -105.3 27.45 -100.55 25.3 M-98.0 34.1 L-70.05 56.7 -70.05 63.5 -102.3 42.05 -98.0 34.1 M-35.7 -59.75 L-35.7 -35.75 -41.9 -29.45 -39.3 -35.6 -47.45 -44.35 -62.1 -30.4 -56.75 -22.4 -48.1 -29.75 -48.1 -33.0 -54.4 -28.95 -56.1 -30.65 -48.65 -39.35 -44.1 -31.7 -52.75 -16.65 -58.75 -16.6 -67.35 -29.6 -61.6 -41.95 -78.8 -26.7 -91.35 -35.7 Q-63.5 -47.75 -35.7 -59.75 M-32.85 -36.4 L-32.85 -61.0 14.5 -61.0 11.1 -36.15 20.65 -61.0 27.65 -61.0 15.35 -36.15 6.0 -32.15 -19.5 -41.7 -11.2 -33.85 -32.85 -36.4 M37.65 -57.75 L44.7 -54.65 30.65 -41.95 37.65 -57.75 M-48.1 -33.7 L-48.1 -33.0 -48.1 -33.7 M68.4 -49.85 Q75.6 -53.15 81.25 -65.65 L78.9 -59.0 72.25 -36.05 72.25 -47.7 68.4 -49.85 M86.85 -70.95 L77.05 -16.4 72.25 -24.4 43.8 25.15 33.65 42.75 -9.55 57.35 -7.35 36.2 0.95 24.2 14.4 4.85 58.25 -15.1 36.3 23.45 9.05 40.75 9.05 27.45 26.35 16.15 14.9 28.2 25.5 24.35 39.55 8.2 39.55 1.4 16.6 14.15 0.0 33.7 0.0 46.9 29.35 37.55 40.4 24.8 68.0 -24.95 68.0 -36.85 73.1 -29.2 76.5 -36.4 86.85 -70.95 M-37.85 39.45 L-40.8 43.5 -65.45 61.8 -62.45 38.9 -45.05 21.85 -30.15 23.95 -30.15 29.9 -48.85 38.85 -38.8 26.8 -56.75 37.45 -52.8 45.4 -37.85 39.45" fill="#d8af52" fill-rule="evenodd" stroke="none"/>
    <path d="M-35.7 -59.75 L-32.85 -61.0 -32.85 -36.4 -32.85 -32.4 -32.85 -36.4 -11.2 -33.85 -19.5 -41.7 6.0 -32.15 15.35 -36.15 27.65 -61.0 30.35 -61.0 37.65 -57.75 30.65 -41.95 44.7 -54.65 58.95 -48.35 22.85 -32.3 10.4 -26.75 -32.85 -32.4 -44.5 -23.25 -41.9 -29.45 -44.5 -23.25 -46.0 -19.6 -52.1 -13.75 -60.75 -13.75 -78.8 -26.7 -61.6 -41.95 -67.35 -29.6 -58.75 -16.6 -52.75 -16.65 -44.1 -31.7 -48.65 -39.35 -56.1 -30.65 -54.4 -28.95 -48.1 -33.0 -48.1 -29.75 -56.75 -22.4 -62.1 -30.4 -47.45 -44.35 -39.3 -35.6 -41.9 -29.45 -35.7 -35.75 -35.7 -59.75 M14.5 -61.0 L20.65 -61.0 11.1 -36.15 14.5 -61.0 M30.35 -61.0 L22.85 -32.3 30.35 -61.0" fill="#a78025" fill-rule="evenodd" stroke="none"/>
    <path d="M-110.45 -23.4 L-105.8 -14.7 -101.55 -18.55 -85.4 -10.45 -82.85 21.0 -90.1 28.2 -80.75 41.4 -76.5 26.95 -76.5 11.65 -69.85 38.1 -70.05 56.7 -69.85 38.1 -63.3 31.5 -69.4 -3.8 -64.35 -3.1 -57.35 22.25 -53.95 6.1 -51.95 20.0 -46.8 14.8 -43.3 15.6 -40.6 0.15 -37.5 0.55 -37.5 9.1 -17.85 17.6 -17.85 34.15 -25.9 47.35 -25.9 40.1 -34.2 47.75 -19.05 57.5 -12.3 29.9 -12.3 61.4 38.3 48.2 33.65 42.75 43.8 25.15 59.5 8.65 42.95 39.25 81.6 -8.8 86.2 -1.15 41.0 51.4 -11.35 70.35 -40.8 46.75 -65.15 72.35 -106.65 50.05 -112.55 34.75 -112.55 28.1 -112.55 8.85 -108.2 -0.8 -112.6 -15.8 -110.45 -23.4 M-100.55 25.3 L-90.7 20.8 -90.7 -9.15 -103.3 -11.8 -108.2 -0.8 -103.3 -11.8 -90.7 -9.15 -90.7 20.8 -100.55 25.3 -105.3 27.45 -105.3 17.45 -104.55 11.7 -100.0 7.5 -102.0 17.6 -99.0 20.55 -96.45 15.05 -98.15 -1.95 -104.95 1.0 -108.8 13.75 -108.8 32.9 -103.7 37.55 -99.25 29.75 -100.55 25.3 M-98.0 34.1 L-99.25 29.75 -98.0 34.1 -102.3 42.05 -70.05 63.5 -70.05 56.7 -98.0 34.1 M-125.15 0.85 L-127.9 -5.15 -116.55 -13.05 -112.6 1.85 -116.45 1.85 -116.45 11.65 -125.15 0.85 M81.25 -65.65 L83.55 -72.3 86.85 -70.95 76.5 -36.4 73.1 -29.2 68.0 -36.85 68.0 -24.95 40.4 24.8 29.35 37.55 0.0 46.9 0.0 33.7 16.6 14.15 39.55 1.4 39.55 8.2 25.5 24.35 14.9 28.2 26.35 16.15 9.05 27.45 9.05 40.75 36.3 23.45 58.25 -15.1 14.4 4.85 0.95 24.2 -0.05 15.85 6.85 3.1 49.35 -26.65 40.85 -14.75 59.45 -22.0 64.2 -27.9 66.45 -44.55 72.25 -47.7 72.25 -36.05 78.9 -59.0 81.25 -65.65 M41.0 51.4 L38.3 48.2 41.0 51.4 M-37.85 39.45 L-22.85 33.45 -22.85 20.15 -43.3 15.6 -22.85 20.15 -22.85 33.45 -37.85 39.45 -52.8 45.4 -56.75 37.45 -38.8 26.8 -48.85 38.85 -30.15 29.9 -30.15 23.95 -45.05 21.85 -62.45 38.9 -65.45 61.8 -40.8 43.5 -37.85 39.45 M-63.3 31.5 L-51.95 20.0 -63.3 31.5 M-106.65 50.05 L-102.3 42.05 -106.65 50.05" fill="#e2c97a" fill-rule="evenodd" stroke="none"/>
    <path d="M-69.4 -3.8 L-106.6 -37.05 -35.5 -68.3 35.65 -68.3 68.4 -49.85 72.25 -47.7 66.45 -44.55 -2.9 -7.1 -37.5 0.55 -40.6 0.15 -64.35 -3.1 -69.4 -3.8 M-32.85 -61.0 L-35.7 -59.75 Q-63.5 -47.75 -91.35 -35.7 L-78.8 -26.7 -60.75 -13.75 -52.1 -13.75 -18.85 -13.75 10.4 -26.75 22.85 -32.3 58.95 -48.35 44.7 -54.65 37.65 -57.75 30.35 -61.0 27.65 -61.0 20.65 -61.0 14.5 -61.0 -32.85 -61.0" fill="#f5ebd6" fill-rule="evenodd" stroke="none"/>
    <path d="M-69.85 38.1 L-76.5 11.65 -76.5 26.95 -80.75 41.4 -90.1 28.2 -82.85 21.0 -85.4 -10.45 -101.55 -18.55 -105.8 -14.7 -110.45 -23.4 -106.6 -37.05 -69.4 -3.8 -63.3 31.5 -69.85 38.1 M77.05 -16.4 L81.6 -8.8 42.95 39.25 59.5 8.65 43.8 25.15 72.25 -24.4 77.05 -16.4 M66.45 -44.55 L64.2 -27.9 59.45 -22.0 40.85 -14.75 49.35 -26.65 6.85 3.1 -0.05 15.85 0.95 24.2 -7.35 36.2 -9.55 57.35 33.65 42.75 38.3 48.2 -12.3 61.4 -12.3 29.9 -19.05 57.5 -34.2 47.75 -25.9 40.1 -25.9 47.35 -17.85 34.15 -17.85 17.6 -37.5 9.1 -37.5 0.55 -2.9 -7.1 66.45 -44.55 M-0.05 15.85 L-2.9 -7.1 -0.05 15.85 M-40.6 0.15 L-43.3 15.6 -46.8 14.8 -51.95 20.0 -53.95 6.1 -57.35 22.25 -64.35 -3.1 -40.6 0.15" fill="#ead79d" fill-rule="evenodd" stroke="none"/>
    <path d="M-110.45 -23.4 L-112.6 -15.8 -108.2 -0.8 -103.3 -11.8 -90.7 -9.15 -90.7 20.8 -100.55 25.3 -99.25 29.75 -98.0 34.1 -70.05 56.7 -69.85 38.1 -63.3 31.5 -69.4 -3.8 -106.6 -37.05 -110.45 -23.4 M-116.55 -13.05 L-112.6 -15.8 M-125.15 0.85 L-127.9 -5.15 -116.55 -13.05 M-125.15 0.85 L-112.55 28.1 -112.55 8.85 -108.2 -0.8 M-32.85 -61.0 L-35.7 -59.75 Q-63.5 -47.75 -91.35 -35.7 L-78.8 -26.7 -60.75 -13.75 -52.1 -13.75 -46.0 -19.6 -44.5 -23.25 -32.85 -32.4 -32.85 -36.4 -32.85 -61.0 14.5 -61.0 20.65 -61.0 27.65 -61.0 30.35 -61.0 37.65 -57.75 44.7 -54.65 58.95 -48.35 22.85 -32.3 10.4 -26.75 -18.85 -13.75 -52.1 -13.75 M-41.9 -29.45 L-44.5 -23.25 M-41.9 -29.45 L-39.3 -35.6 -47.45 -44.35 -62.1 -30.4 -56.75 -22.4 -48.1 -29.75 -48.1 -33.0 -48.1 -33.7 M-64.35 -3.1 L-69.4 -3.8 M-106.6 -37.05 L-35.5 -68.3 35.65 -68.3 68.4 -49.85 Q75.6 -53.15 81.25 -65.65 L83.55 -72.3 86.85 -70.95 77.05 -16.4 81.6 -8.8 86.2 -1.15 41.0 51.4 -11.35 70.35 -40.8 46.75 -65.15 72.35 -106.65 50.05 -112.55 34.75 -112.55 28.1 M-0.05 15.85 L0.95 24.2 14.4 4.85 58.25 -15.1 36.3 23.45 9.05 40.75 9.05 27.45 26.35 16.15 M72.25 -47.7 L66.45 -44.55 -2.9 -7.1 -0.05 15.85 M72.25 -47.7 L72.25 -36.05 78.9 -59.0 81.25 -65.65 M43.8 25.15 L72.25 -24.4 77.05 -16.4 M68.4 -49.85 L72.25 -47.7 M22.85 -32.3 L30.35 -61.0 M-32.85 -32.4 L10.4 -26.75 M43.8 25.15 L33.65 42.75 38.3 48.2 41.0 51.4 M-43.3 15.6 L-22.85 20.15 -22.85 33.45 -37.85 39.45 -52.8 45.4 -56.75 37.45 -38.8 26.8 M-51.95 20.0 L-46.8 14.8 -43.3 15.6 -40.6 0.15 -64.35 -3.1 M-51.95 20.0 L-63.3 31.5 M-102.3 42.05 L-106.65 50.05 M33.65 42.75 L-9.55 57.35 -7.35 36.2 0.95 24.2 M-37.5 0.55 L-40.6 0.15 M-100.55 25.3 L-105.3 27.45 -105.3 17.45 -104.55 11.7 -100.0 7.5 M-102.3 42.05 L-98.0 34.1 M-2.9 -7.1 L-37.5 0.55" fill="none" stroke="#977422" stroke-linecap="round" stroke-linejoin="round" stroke-opacity="0.7490196" stroke-width="1.0"/>
    <path d="M-90.9 -35.55 L-61.15 -13.75 -52.1 -13.75 -46.0 -19.6 -44.5 -23.25 -32.85 -32.4 10.4 -26.75 59.1 -48.7 M-52.1 -13.75 L-18.85 -13.75 10.4 -26.75 M83.55 -72.3 L86.85 -70.95 77.05 -16.4 86.2 -1.15 41.0 51.4 -11.35 70.35 -40.8 46.75 -65.15 72.35 -106.65 50.05 -112.55 34.75 -112.55 28.1 -127.9 -5.15 -112.6 -15.8 -106.6 -37.05 -35.5 -68.3 35.65 -68.3 68.4 -49.85 Q75.6 -53.15 81.25 -65.65 L83.55 -72.3 Z" fill="none" stroke="#000000" stroke-linecap="round" stroke-linejoin="round" stroke-opacity="0.41960785" stroke-width="1.5"/>
  </g>
</svg>
