<?xml version="1.0" encoding="UTF-8" standalone="no"?>
<svg xmlns:xlink="http://www.w3.org/1999/xlink" height="186.15px" width="165.75px" xmlns="http://www.w3.org/2000/svg">
  <g transform="matrix(1.0, 0.0, 0.0, 1.0, 85.8, 93.05)">
    <path d="M19.35 -39.75 L14.85 -40.25 11.8 -40.0 11.5 -39.95 10.9 -39.85 6.95 -38.6 -1.55 -36.6 Q-5.95 -36.9 -9.15 -35.45 -12.85 -33.8 -15.0 -29.85 -21.65 -21.25 -42.7 -22.65 -59.65 -23.15 -77.9 -38.8 L-80.3 -40.95 Q-80.55 -46.65 -70.0 -43.25 -31.8 -31.75 -19.45 -43.25 -3.25 -63.4 23.55 -54.2 37.5 -47.05 30.0 -33.45 25.1 -38.4 19.35 -39.75 M79.45 -19.2 Q79.7 4.3 45.3 9.55 45.1 2.5 43.95 -3.8 L42.85 -8.85 Q63.2 -6.55 69.5 -18.35 75.95 -31.45 79.45 -19.2 M-60.7 -10.05 L-59.6 -10.65 Q-55.1 -12.8 -47.6 -12.75 L-49.2 -7.85 -50.0 -4.6 Q-59.25 -3.85 -60.7 -10.05 M-50.3 27.5 Q-40.85 49.55 -12.1 58.85 L6.0 63.05 Q7.3 63.7 8.65 64.15 L8.7 64.15 Q11.65 65.15 14.85 65.15 23.9 65.15 31.05 57.25 33.85 54.1 36.4 49.7 L36.9 48.9 Q40.05 43.2 42.05 36.7 49.55 46.8 35.8 65.1 23.75 78.55 -6.65 74.1 -42.3 69.25 -60.75 29.25 -69.9 8.15 -58.15 16.0 L-56.6 18.0 -50.3 27.5 M-43.4 14.5 Q-41.7 12.45 -35.8 14.55 -23.55 19.25 -15.55 18.0 -5.45 16.7 -3.1 10.45 L-2.5 5.7 Q5.85 6.35 7.55 10.3 17.5 28.6 -12.25 26.75 -41.85 21.35 -43.4 14.5" fill="#784236" fill-rule="evenodd" stroke="none"/>
    <path d="M11.8 -40.0 L14.85 -40.25 19.35 -39.75 16.3 -18.8 12.7 -18.2 10.9 -39.85 11.5 -39.95 11.8 -40.0 M-47.6 -12.75 L-46.35 -15.9 -10.3 -17.55 Q-11.8 -13.85 -12.9 -9.85 L-14.05 -5.0 -49.2 -7.85 -47.6 -12.75" fill="#ffffff" fill-rule="evenodd" stroke="none"/>
    <path d="M19.35 -39.75 Q25.1 -38.4 30.0 -33.45 L31.95 -31.3 34.4 -28.05 27.65 -13.15 Q22.8 -18.85 16.6 -18.8 L16.3 -18.8 19.35 -39.75 M6.95 -38.6 L10.9 -39.85 12.7 -18.2 Q7.8 -16.65 3.95 -11.0 L2.5 -8.75 0.55 -4.85 -1.35 0.45 Q-2.1 3.0 -2.5 5.7 L-3.1 10.45 Q-5.45 16.7 -15.55 18.0 L-15.65 12.45 Q-15.65 3.15 -14.05 -5.0 L-12.9 -9.85 Q-11.8 -13.85 -10.3 -17.55 L-7.4 -23.7 -6.75 -24.85 Q-2.6 -32.0 2.35 -35.8 4.6 -37.55 6.95 -38.6 M45.3 9.55 L45.35 12.45 45.2 18.05 44.6 24.5 36.4 20.0 36.55 15.6 Q36.5 9.3 35.4 3.8 L43.95 -3.8 Q45.1 2.5 45.3 9.55 M6.0 63.05 Q0.6 60.3 -3.95 54.0 L7.7 46.55 Q11.75 50.0 16.6 50.05 21.8 50.0 26.05 46.0 L31.05 57.25 Q23.9 65.15 14.85 65.15 11.65 65.15 8.7 64.15 L8.65 64.15 Q7.3 63.7 6.0 63.05" fill="#fee481" fill-rule="evenodd" stroke="none"/>
    <path d="M-42.7 -22.65 Q-21.65 -21.25 -15.0 -29.85 -12.85 -33.8 -9.15 -35.45 -5.95 -36.9 -1.55 -36.6 L6.95 -38.6 Q4.6 -37.55 2.35 -35.8 L-9.7 -31.55 Q-12.05 -25.15 -21.35 -20.6 -33.35 -18.0 -43.9 -20.55 L-43.85 -20.8 -42.7 -22.65 M-3.95 54.0 Q-28.6 50.1 -39.55 37.0 -45.2 31.75 -35.75 32.6 -26.15 42.05 -9.85 43.5 L-7.5 48.3 -6.75 49.7 -3.95 54.0" fill="#8b5301" fill-rule="evenodd" stroke="none"/>
    <path d="M30.0 -33.45 Q37.5 -47.05 23.55 -54.2 -3.25 -63.4 -19.45 -43.25 -31.8 -31.75 -70.0 -43.25 -80.55 -46.65 -80.3 -40.95 L-83.3 -44.2 Q-83.35 -50.15 -78.35 -49.8 -63.2 -43.35 -49.6 -47.65 -22.1 -57.3 -0.25 -71.7 23.0 -79.4 38.1 -58.85 42.65 -41.25 31.95 -31.3 L30.0 -33.45 M41.45 -13.7 Q61.25 -12.35 69.6 -27.05 75.75 -40.0 79.3 -21.55 L79.45 -19.2 Q75.95 -31.45 69.5 -18.35 63.2 -6.55 42.85 -8.85 L41.45 -13.7 M45.2 18.05 Q56.45 32.0 46.05 65.8 34.4 105.1 -10.85 86.8 -39.2 75.2 -51.8 60.15 -64.4 45.05 -67.9 28.8 -72.05 6.45 -64.9 9.8 L-66.1 4.55 Q-66.05 -2.55 -60.95 -1.25 L-51.35 4.05 -51.65 8.3 -51.7 12.25 Q-51.75 20.35 -50.3 27.5 L-56.6 18.0 -58.15 16.0 Q-62.15 11.05 -64.9 9.8 -62.15 11.05 -58.15 16.0 -69.9 8.15 -60.75 29.25 -42.3 69.25 -6.65 74.1 23.75 78.55 35.8 65.1 49.55 46.8 42.05 36.7 43.8 30.95 44.6 24.5 L45.2 18.05 M-35.75 32.6 Q-39.4 29.0 -42.05 24.25 -45.35 16.75 -43.4 14.5 -41.85 21.35 -12.25 26.75 17.5 28.6 7.55 10.3 5.85 6.35 -2.5 5.7 -2.1 3.0 -1.35 0.45 4.15 2.05 8.45 3.9 23.9 10.55 23.7 20.25 23.6 22.8 22.45 25.6 16.3 41.15 4.7 43.25 L-9.85 43.5 Q-26.15 42.05 -35.75 32.6" fill="#d1745e" fill-rule="evenodd" stroke="none"/>
    <path d="M34.4 -28.05 L36.4 -24.85 Q39.4 -19.65 41.45 -13.7 L42.85 -8.85 43.95 -3.8 35.4 3.8 Q33.95 -3.15 30.7 -8.75 29.25 -11.25 27.65 -13.15 L34.4 -28.05 M-46.35 -15.9 L-43.95 -20.6 -43.85 -20.8 -43.9 -20.55 Q-33.35 -18.0 -21.35 -20.6 -12.05 -25.15 -9.7 -31.55 L2.35 -35.8 Q-2.6 -32.0 -6.75 -24.85 L-7.4 -23.7 -10.3 -17.55 -46.35 -15.9 M-15.65 12.45 L-15.55 18.0 Q-23.55 19.25 -35.8 14.55 -41.7 12.45 -43.4 14.5 -45.35 16.75 -42.05 24.25 -39.4 29.0 -35.75 32.6 -45.2 31.75 -39.55 37.0 -28.6 50.1 -3.95 54.0 0.6 60.3 6.0 63.05 L-12.1 58.85 Q-40.85 49.55 -50.3 27.5 -51.75 20.35 -51.7 12.25 L-51.65 8.3 -15.65 12.45 M42.05 36.7 Q40.05 43.2 36.9 48.9 L30.9 39.8 30.8 39.7 Q35.6 31.3 36.4 20.0 L44.6 24.5 Q43.8 30.95 42.05 36.7" fill="#ff9900" fill-rule="evenodd" stroke="none"/>
    <path d="M-66.1 4.55 Q-67.65 -5.95 -60.7 -10.05 -59.25 -3.85 -50.0 -4.6 -50.95 -0.45 -51.35 4.05 L-60.95 -1.25 Q-66.05 -2.55 -66.1 4.55 M38.1 -58.85 Q23.0 -79.4 -0.25 -71.7 -22.1 -57.3 -49.6 -47.65 -63.2 -43.35 -78.35 -49.8 -83.35 -50.15 -83.3 -44.2 -90.95 -54.15 -69.1 -52.75 -50.75 -51.6 -21.95 -74.2 14.1 -110.85 31.95 -74.2 36.25 -65.9 38.1 -58.85" fill="#dd9888" fill-rule="evenodd" stroke="none"/>
    <path d="M-1.35 0.45 L0.55 -4.85 2.5 -8.75 3.95 -11.0 27.65 -13.15 Q29.25 -11.25 30.7 -8.75 33.95 -3.15 35.4 3.8 L8.45 3.9 Q4.15 2.05 -1.35 0.45" fill="#000000" fill-rule="evenodd" stroke="none"/>
    <path d="M-15.65 12.45 L-51.65 8.3 -51.35 4.05 Q-50.95 -0.45 -50.0 -4.6 L-49.2 -7.85 -14.05 -5.0 Q-15.65 3.15 -15.65 12.45 M30.8 39.7 L30.9 39.8 30.7 39.95 30.8 39.7" fill="#ffcc00" fill-rule="evenodd" stroke="none"/>
    <path d="M36.9 48.9 L36.4 49.7 Q33.85 54.1 31.05 57.25 L26.05 46.0 Q28.55 43.65 30.7 39.95 L30.9 39.8 36.9 48.9 M-3.95 54.0 L-6.75 49.7 -7.5 48.3 -9.85 43.5 4.7 43.25 7.7 46.55 -3.95 54.0" fill="#a96501" fill-rule="evenodd" stroke="none"/>
    <path d="M3.95 -11.0 Q7.8 -16.65 12.7 -18.2 L16.3 -18.8 16.6 -18.8 Q22.8 -18.85 27.65 -13.15 L3.95 -11.0" fill="#744500" fill-rule="evenodd" stroke="none"/>
    <path d="M4.7 43.25 Q16.3 41.15 22.45 25.6 23.6 22.8 23.7 20.25 L36.4 20.0 Q35.6 31.3 30.8 39.7 L30.7 39.95 Q28.55 43.65 26.05 46.0 21.8 50.0 16.6 50.05 11.75 50.0 7.7 46.55 L4.7 43.25" fill="#7e4b01" fill-rule="evenodd" stroke="none"/>
    <path d="M8.45 3.9 L35.4 3.8 Q36.5 9.3 36.55 15.6 L36.4 20.0 23.7 20.25 Q23.9 10.55 8.45 3.9" fill="#4b2e01" fill-rule="evenodd" stroke="none"/>
    <path d="M11.8 -40.0 L14.85 -40.25 19.35 -39.75 Q25.1 -38.4 30.0 -33.45 L31.95 -31.3 34.4 -28.05 36.4 -24.85 Q39.4 -19.65 41.45 -13.7 L42.85 -8.85 43.95 -3.8 Q45.1 2.5 45.3 9.55 L45.35 12.45 45.2 18.05 44.6 24.5 Q43.8 30.95 42.05 36.7 40.05 43.2 36.9 48.9 L36.4 49.7 Q33.85 54.1 31.05 57.25 23.9 65.15 14.85 65.15 11.65 65.15 8.7 64.15 M-1.35 0.45 L0.55 -4.85 2.5 -8.75 3.95 -11.0 Q7.8 -16.65 12.7 -18.2 L16.3 -18.8 16.6 -18.8 Q22.8 -18.85 27.65 -13.15 29.25 -11.25 30.7 -8.75 33.95 -3.15 35.4 3.8 36.5 9.3 36.55 15.6 L36.4 20.0 Q35.6 31.3 30.8 39.7 L30.7 39.95 Q28.55 43.65 26.05 46.0 21.8 50.0 16.6 50.05 11.75 50.0 7.7 46.55 L4.7 43.25 M-3.1 10.45 L-2.5 5.7 Q-2.1 3.0 -1.35 0.45" fill="none" stroke="#000000" stroke-linecap="round" stroke-linejoin="round" stroke-opacity="0.49803922" stroke-width="1.0"/>
    <path d="M-80.3 -40.95 L-77.9 -38.8 Q-59.65 -23.15 -42.7 -22.65 -21.65 -21.25 -15.0 -29.85 -12.85 -33.8 -9.15 -35.45 -5.95 -36.9 -1.55 -36.6 L6.95 -38.6 10.9 -39.85 11.5 -39.95 11.8 -40.0 M41.45 -13.7 Q61.25 -12.35 69.6 -27.05 75.75 -40.0 79.3 -21.55 L79.45 -19.2 Q79.7 4.3 45.3 9.55 M45.2 18.05 Q56.45 32.0 46.05 65.8 34.4 105.1 -10.85 86.8 -39.2 75.2 -51.8 60.15 -64.4 45.05 -67.9 28.8 -72.05 6.45 -64.9 9.8 L-66.1 4.55 Q-67.65 -5.95 -60.7 -10.05 L-59.6 -10.65 Q-55.1 -12.8 -47.6 -12.75 L-46.35 -15.9 -43.95 -20.6 -43.85 -20.8 -42.7 -22.65 M31.95 -31.3 Q42.65 -41.25 38.1 -58.85 36.25 -65.9 31.95 -74.2 14.1 -110.85 -21.95 -74.2 -50.75 -51.6 -69.1 -52.75 -90.95 -54.15 -83.3 -44.2 L-80.3 -40.95 M-51.65 8.3 L-51.7 12.25 Q-51.75 20.35 -50.3 27.5 -40.85 49.55 -12.1 58.85 L6.0 63.05 Q7.3 63.7 8.65 64.15 L8.7 64.15 M-35.75 32.6 Q-39.4 29.0 -42.05 24.25 -45.35 16.75 -43.4 14.5 -41.7 12.45 -35.8 14.55 -23.55 19.25 -15.55 18.0 -5.45 16.7 -3.1 10.45 M-1.35 0.45 Q4.15 2.05 8.45 3.9 23.9 10.55 23.7 20.25 23.6 22.8 22.45 25.6 16.3 41.15 4.7 43.25 L-9.85 43.5 Q-26.15 42.05 -35.75 32.6 M-49.2 -7.85 L-50.0 -4.6 Q-50.95 -0.45 -51.35 4.05 L-51.65 8.3 M-49.2 -7.85 L-47.6 -12.75 M-58.15 16.0 L-56.6 18.0 -50.3 27.5 M-64.9 9.8 Q-62.15 11.05 -58.15 16.0" fill="none" stroke="#000000" stroke-linecap="round" stroke-linejoin="round" stroke-opacity="0.49803922" stroke-width="1.0"/>
    <path d="M2.35 -35.8 Q4.6 -37.55 6.95 -38.6 M-10.3 -17.55 L-7.4 -23.7 -6.75 -24.85 Q-2.6 -32.0 2.35 -35.8 M-14.05 -5.0 L-12.9 -9.85 Q-11.8 -13.85 -10.3 -17.55 M-15.55 18.0 L-15.65 12.45 Q-15.65 3.15 -14.05 -5.0 M6.0 63.05 Q0.6 60.3 -3.95 54.0 L-6.75 49.7 -7.5 48.3 -9.85 43.5" fill="none" stroke="#ffffff" stroke-linecap="round" stroke-linejoin="round" stroke-opacity="0.54901963" stroke-width="1.0"/>
  </g>
</svg>
