<?xml version="1.0" encoding="UTF-8" standalone="no"?>
<svg xmlns:xlink="http://www.w3.org/1999/xlink" height="83.65px" width="56.65px" xmlns="http://www.w3.org/2000/svg">
  <g transform="matrix(1.0, 0.0, 0.0, 1.0, 0.5, 0.5)">
    <path d="M49.55 5.35 L55.0 5.2 Q51.85 6.3 51.25 8.4 53.75 7.95 55.65 9.0 L55.6 9.6 Q52.45 9.3 52.85 10.2 L54.35 11.95 53.75 13.45 48.55 13.2 Q46.9 15.35 47.25 17.45 46.2 15.6 43.85 14.95 41.95 16.05 41.2 18.35 L38.8 17.2 Q40.5 14.55 40.4 12.35 L35.55 13.0 Q37.95 11.0 38.9 9.5 37.8 7.45 35.4 6.85 L37.6 4.1 Q39.4 5.0 42.25 4.15 43.3 2.15 43.15 0.5 44.25 1.3 44.75 3.15 46.7 1.8 47.95 0.0 L50.7 0.6 Q49.2 2.7 49.55 5.35" fill="#dab869" fill-rule="evenodd" stroke="none"/>
    <path d="M49.55 5.35 L55.0 5.2 Q51.85 6.3 51.25 8.4 53.75 7.95 55.65 9.0 L55.6 9.6 Q52.45 9.3 52.85 10.2 L54.35 11.95 53.75 13.45 48.55 13.2 Q46.9 15.35 47.25 17.45 46.2 15.6 43.85 14.95 41.95 16.05 41.2 18.35 L38.8 17.2 Q40.5 14.55 40.4 12.35 L35.55 13.0 Q37.95 11.0 38.9 9.5 37.8 7.45 35.4 6.85 L37.6 4.1 Q39.4 5.0 42.25 4.15 43.3 2.15 43.15 0.5 44.25 1.3 44.75 3.15 46.7 1.8 47.95 0.0 L50.7 0.6 Q49.2 2.7 49.55 5.35 Z" fill="none" stroke="#000000" stroke-linecap="round" stroke-linejoin="round" stroke-opacity="0.3019608" stroke-width="1.0"/>
    <path d="M47.5 4.0 Q47.65 5.05 46.9 6.7 48.75 6.55 50.4 5.8 L51.5 7.55 Q49.6 8.4 48.3 10.6 50.6 11.6 53.75 13.45 L50.7 12.9 Q49.9 12.9 49.2 13.55 50.7 14.4 51.25 16.05 L50.8 16.45 Q49.3 14.85 49.05 15.65 L48.9 17.7 47.7 18.5 Q47.4 17.85 45.85 17.1 L43.4 16.05 Q41.25 16.9 40.3 18.7 40.8 16.75 39.85 15.2 38.25 15.2 36.55 16.55 L35.85 14.6 Q38.25 13.4 39.4 11.65 37.9 10.45 36.4 9.95 38.85 9.5 40.15 8.8 L40.4 7.6 Q42.1 5.6 42.05 4.3 43.05 5.6 44.95 6.35 46.65 5.25 47.5 4.0" fill="#a68c4f" fill-rule="evenodd" stroke="none"/>
    <path d="M48.55 1.8 L46.1 2.85 48.1 0.05 49.5 0.65 48.55 1.8 M43.35 1.05 Q44.3 1.7 44.75 3.05 L43.85 3.9 Q44.1 2.35 43.35 1.05" fill="#ebd8ad" fill-rule="evenodd" stroke="none"/>
    <path d="M19.95 37.25 L20.1 37.25 21.95 37.65 Q30.2 39.05 37.3 37.35 L37.65 37.25 Q45.0 35.4 49.2 32.55 L49.4 32.9 49.4 32.85 Q53.1 39.9 52.0 53.85 L52.0 53.9 51.05 52.25 50.05 50.7 46.1 45.7 Q42.95 42.5 39.95 41.75 L26.65 43.25 20.7 40.35 20.55 40.2 19.25 38.95 19.3 38.9 19.05 38.65 19.95 37.25 M51.7 59.25 Q52.15 60.2 52.25 61.5 L51.65 63.05 48.8 62.55 44.5 66.1 Q41.95 67.85 38.8 72.45 L38.55 73.3 Q39.05 62.15 44.2 60.6 47.05 61.7 51.7 59.25 M0.05 71.6 L0.05 71.0 3.2 68.15 Q2.75 72.1 5.75 75.9 2.35 74.25 0.05 71.6 M35.9 75.85 Q36.8 74.15 36.0 70.3 37.0 72.75 38.45 73.45 L36.95 75.2 35.9 75.85 M30.1 77.95 L30.8 73.6 32.15 77.45 30.8 77.85 30.1 77.95 M28.0 78.2 L20.75 78.65 Q22.85 78.0 24.05 76.8 25.3 78.0 28.0 78.2 M13.15 78.15 Q14.6 77.85 15.1 75.05 L16.5 78.55 13.15 78.15" fill="#2f4751" fill-rule="evenodd" stroke="none"/>
    <path d="M52.0 53.9 L51.55 58.95 51.7 59.25 Q47.05 61.7 44.2 60.6 39.05 62.15 38.55 73.3 L38.45 73.45 Q37.0 72.75 36.0 70.3 36.8 74.15 35.9 75.85 L35.9 75.9 32.4 77.4 32.15 77.45 30.8 73.6 30.1 77.95 29.7 78.0 28.0 78.2 Q25.3 78.0 24.05 76.8 22.85 78.0 20.75 78.65 L18.25 78.65 16.5 78.55 15.1 75.05 Q14.6 77.85 13.15 78.15 L12.1 77.95 Q8.55 77.25 5.75 75.9 2.75 72.1 3.2 68.15 L0.05 71.0 Q0.05 63.75 3.4 60.25 7.45 59.95 12.1 57.65 22.7 48.85 20.55 40.2 L20.7 40.35 26.65 43.25 39.95 41.75 Q42.95 42.5 46.1 45.7 L50.05 50.7 51.05 52.25 52.0 53.9" fill="#3a5966" fill-rule="evenodd" stroke="none"/>
    <path d="M52.25 61.5 L52.2 63.15 51.8 65.4 Q50.35 67.0 45.45 68.0 41.1 71.25 38.7 78.9 L30.8 81.85 Q8.3 85.05 0.3 75.6 L0.05 71.6 Q2.35 74.25 5.75 75.9 8.8 81.9 12.1 77.95 L13.15 78.15 16.5 78.55 18.25 78.65 Q22.35 80.95 28.1 79.6 L29.7 78.0 30.1 77.95 30.8 77.85 32.15 77.45 32.4 77.4 34.0 78.45 35.9 75.9 35.9 75.85 36.95 75.2 38.45 73.45 38.55 73.3 38.8 72.45 Q41.95 67.85 44.5 66.1 50.1 65.05 51.65 63.05 L52.25 61.5" fill="#828954" fill-rule="evenodd" stroke="none"/>
    <path d="M32.4 77.4 L35.9 75.9 34.0 78.45 32.4 77.4 M28.0 78.2 L29.7 78.0 28.1 79.6 Q22.35 80.95 18.25 78.65 L20.75 78.65 28.0 78.2 M5.75 75.9 Q8.55 77.25 12.1 77.95 8.8 81.9 5.75 75.9" fill="#dcba6a" fill-rule="evenodd" stroke="none"/>
    <path d="M44.5 66.1 L48.8 62.55 51.65 63.05 Q50.1 65.05 44.5 66.1" fill="#5a5f3a" fill-rule="evenodd" stroke="none"/>
    <path d="M49.2 32.55 L49.4 32.9 49.4 32.85 Q53.1 39.9 52.0 53.85 L52.0 53.9 51.55 58.95 51.7 59.25 Q52.15 60.2 52.25 61.5 L52.2 63.15 51.8 65.4 Q50.35 67.0 45.45 68.0 41.1 71.25 38.7 78.9 L30.8 81.85 Q8.3 85.05 0.3 75.6 L0.05 71.6 0.05 71.0 Q0.05 63.75 3.4 60.25 7.45 59.95 12.1 57.65 22.7 48.85 20.55 40.2 L19.25 38.95 19.3 38.9 19.05 38.65 19.95 37.25 M38.45 73.45 L38.55 73.3 38.8 72.45 Q41.95 67.85 44.5 66.1 50.1 65.05 51.65 63.05 L52.25 61.5 M29.7 78.0 L30.1 77.95 30.8 77.85 32.15 77.45 32.4 77.4 35.9 75.9 M36.95 75.2 L38.45 73.45 M29.7 78.0 L28.0 78.2 20.75 78.65 18.25 78.65 16.5 78.55 13.15 78.15 12.1 77.95 Q8.55 77.25 5.75 75.9 2.35 74.25 0.05 71.6" fill="none" stroke="#000000" stroke-linecap="round" stroke-linejoin="round" stroke-opacity="0.3019608" stroke-width="1.0"/>
    <path d="M39.1 58.55 L28.35 70.15 19.75 73.1 18.15 67.75 12.95 64.7 Q10.45 63.65 7.0 63.15 5.4 63.1 2.25 64.2 0.65 66.25 0.2 67.7 0.5 63.45 3.45 60.2 6.9 60.25 12.15 57.6 14.9 55.4 18.55 50.7 L24.85 49.65 33.5 53.35 39.1 58.55" fill="#f4ebd7" fill-rule="evenodd" stroke="none"/>
    <path d="M19.75 73.1 L28.35 70.15 39.1 58.55 40.15 59.5 40.15 65.35 39.25 67.4 41.15 69.3 39.1 72.1 35.9 75.1 21.9 74.65 19.3 73.4 19.25 73.25 19.75 73.1" fill="url(#gradient0)" fill-rule="evenodd" stroke="none"/>
    <path d="M39.1 58.55 L33.5 53.35 24.85 49.65 18.55 50.7 M0.2 67.7 Q0.65 66.25 2.25 64.2 5.4 63.1 7.0 63.15 10.45 63.65 12.95 64.7 L18.15 67.75 19.75 73.1 19.25 73.25 19.3 73.4 21.9 74.65 35.9 75.1 39.1 72.1 41.15 69.3 39.25 67.4 40.15 65.35 40.15 59.5 39.1 58.55" fill="none" stroke="#000000" stroke-linecap="round" stroke-linejoin="round" stroke-opacity="0.2" stroke-width="0.7000000000000001"/>
    <path d="M4.65 64.1 Q5.55 62.05 8.3 61.15 10.15 61.2 9.85 62.65 L6.4 65.45 Q4.35 66.1 4.65 64.1" fill="#415050" fill-rule="evenodd" stroke="none"/>
    <path d="M4.65 64.1 Q5.55 62.05 8.3 61.15 10.15 61.2 9.85 62.65 L6.4 65.45 Q4.35 66.1 4.65 64.1 Z" fill="none" stroke="#000000" stroke-linecap="round" stroke-linejoin="round" stroke-opacity="0.3019608" stroke-width="0.7000000000000001"/>
    <path d="M13.1 67.2 Q14.0 64.95 16.95 64.05 18.85 64.05 18.55 65.65 L14.9 68.55 Q12.8 69.25 13.1 67.2" fill="#415050" fill-rule="evenodd" stroke="none"/>
    <path d="M13.1 67.2 Q14.0 64.95 16.95 64.05 18.85 64.05 18.55 65.65 L14.9 68.55 Q12.8 69.25 13.1 67.2 Z" fill="none" stroke="#000000" stroke-linecap="round" stroke-linejoin="round" stroke-opacity="0.3019608" stroke-width="0.7000000000000001"/>
    <path d="M17.4 52.9 Q17.75 50.0 20.5 47.25 22.45 46.05 22.55 47.95 L19.5 53.3 Q17.55 55.3 17.4 52.9" fill="#415050" fill-rule="evenodd" stroke="none"/>
    <path d="M17.4 52.9 Q17.75 50.0 20.5 47.25 22.45 46.05 22.55 47.95 L19.5 53.3 Q17.55 55.3 17.4 52.9 Z" fill="none" stroke="#000000" stroke-linecap="round" stroke-linejoin="round" stroke-opacity="0.3019608" stroke-width="0.7000000000000001"/>
    <path d="M38.15 52.8 Q37.4 55.85 34.0 58.45 31.75 59.45 31.95 57.45 L35.85 52.1 Q38.3 50.2 38.15 52.8" fill="#415050" fill-rule="evenodd" stroke="none"/>
    <path d="M38.15 52.8 Q37.4 55.85 34.0 58.45 31.75 59.45 31.95 57.45 L35.85 52.1 Q38.3 50.2 38.15 52.8 Z" fill="none" stroke="#000000" stroke-linecap="round" stroke-linejoin="round" stroke-opacity="0.3019608" stroke-width="0.7000000000000001"/>
    <path d="M43.65 35.85 L43.75 35.35 Q45.7 34.75 48.25 33.2 L48.05 33.85 Q45.45 42.15 44.15 50.1 45.3 52.9 46.65 53.95 L47.65 48.4 45.85 50.7 46.3 49.0 47.15 45.05 49.9 48.05 46.95 57.75 Q44.4 56.6 41.85 53.35 41.9 43.75 43.65 35.85" fill="url(#gradient1)" fill-rule="evenodd" stroke="none"/>
    <path d="M18.1 13.8 Q16.15 15.95 17.35 16.85 22.4 17.9 30.8 16.0 L38.4 13.9 41.9 12.45 42.4 12.2 Q47.25 9.7 41.5 8.9 L37.75 9.0 Q32.35 9.4 25.4 11.4 L18.1 13.8 19.45 12.4 18.1 13.8 M18.45 29.4 Q18.45 27.95 18.0 26.6 L16.7 24.0 Q11.85 15.2 19.6 10.55 25.6 10.75 33.1 8.05 40.3 6.05 45.95 7.05 47.75 7.2 48.1 10.65 L42.3 13.8 Q40.8 16.5 37.9 17.95 33.75 20.05 29.4 21.45 L19.7 21.8 Q24.05 23.35 28.8 24.15 L35.9 34.0 Q33.65 35.9 31.55 36.5 27.85 37.5 24.0 37.55 L21.95 37.85 20.1 37.45 19.95 37.45 Q15.8 36.55 17.35 33.55 L17.4 33.5 19.35 35.05 18.45 29.4 M51.4 23.8 L49.65 26.4 49.65 21.7 51.15 23.55 51.4 23.8" fill="#dcba6a" fill-rule="evenodd" stroke="none"/>
    <path d="M30.8 16.0 Q22.4 17.9 17.35 16.85 16.15 15.95 18.1 13.8 L25.4 11.4 Q27.3 14.15 30.8 16.0 M37.75 9.0 L41.5 8.9 Q47.25 9.7 42.4 12.2 L41.9 12.45 37.75 9.0" fill="#746247" fill-rule="evenodd" stroke="none"/>
    <path d="M18.45 29.4 L19.35 35.05 17.4 33.5 Q18.4 31.4 18.45 29.4" fill="#e9d29e" fill-rule="evenodd" stroke="none"/>
    <path d="M25.4 11.4 Q32.35 9.4 37.75 9.0 L41.9 12.45 38.4 13.9 30.8 16.0 Q27.3 14.15 25.4 11.4" fill="#a68c4f" fill-rule="evenodd" stroke="none"/>
    <path d="M21.95 37.85 L24.0 37.55 Q27.85 37.5 31.55 36.5 33.65 35.9 35.9 34.0 L28.8 24.15 Q24.05 23.35 19.7 21.8 L29.4 21.45 Q33.75 20.05 37.9 17.95 40.8 16.5 42.3 13.8 L48.1 10.65 Q48.3 12.85 47.9 16.5 48.55 19.75 49.65 21.7 L49.65 26.4 51.4 23.8 Q53.05 25.7 53.15 28.15 44.1 35.15 37.3 37.55 30.2 39.25 21.95 37.85" fill="#af9558" fill-rule="evenodd" stroke="none"/>
    <path d="M53.15 28.15 L53.15 28.95 Q51.75 31.05 49.2 32.75 45.0 35.6 37.65 37.45 L37.3 37.55 Q44.1 35.15 53.15 28.15" fill="#78653a" fill-rule="evenodd" stroke="none"/>
    <path d="M30.8 16.0 Q22.4 17.9 17.35 16.85 16.15 15.95 18.1 13.8 L19.45 12.4 M17.4 33.5 L17.35 33.55 Q15.8 36.55 19.95 37.45 L20.1 37.45 21.95 37.85 Q30.2 39.25 37.3 37.55 L37.65 37.45 Q45.0 35.6 49.2 32.75 51.75 31.05 53.15 28.95 L53.15 28.15 Q53.05 25.7 51.4 23.8 L51.15 23.55 49.65 21.7 Q48.55 19.75 47.9 16.5 48.3 12.85 48.1 10.65 47.75 7.2 45.95 7.05 40.3 6.05 33.1 8.05 25.6 10.75 19.6 10.55 11.85 15.2 16.7 24.0 L18.0 26.6 M18.45 29.4 Q18.4 31.4 17.4 33.5 M18.1 13.8 L25.4 11.4 M41.5 8.9 Q47.25 9.7 42.4 12.2 L41.9 12.45 38.4 13.9 30.8 16.0" fill="none" stroke="#000000" stroke-linecap="round" stroke-linejoin="round" stroke-opacity="0.3019608" stroke-width="1.0"/>
    <path d="M29.9 71.35 Q28.95 71.8 28.3 72.9 27.65 74.05 27.65 75.2 27.65 76.4 28.3 76.95 L29.9 77.0 Q30.85 76.6 31.5 75.5 32.15 74.35 32.15 73.15 32.15 72.0 31.5 71.45 L29.9 71.35" fill="#5a5f3a" fill-opacity="0.101960786" fill-rule="evenodd" stroke="none"/>
    <path d="M30.9 77.45 Q30.55 78.05 30.55 78.6 30.55 79.15 30.9 79.4 L31.65 79.5 32.45 78.7 32.75 77.6 32.45 76.75 31.65 76.7 Q31.2 76.95 30.9 77.45" fill="#5a5f3a" fill-opacity="0.4" fill-rule="evenodd" stroke="none"/>
    <path d="M35.6 74.95 Q36.8 74.4 37.65 72.95 38.45 71.6 38.45 70.05 38.45 68.55 37.65 67.85 L35.6 67.8 Q34.4 68.3 33.6 69.7 32.75 71.1 32.75 72.6 32.75 74.15 33.6 74.8 L35.6 74.95" fill="#5a5f3a" fill-opacity="0.3019608" fill-rule="evenodd" stroke="none"/>
    <path d="M10.6 76.0 Q10.95 76.65 10.7 77.35 10.4 78.0 9.65 78.2 L8.05 78.05 Q7.2 77.65 6.85 76.95 6.45 76.25 6.75 75.6 7.0 74.9 7.8 74.75 L9.4 74.95 Q10.2 75.3 10.6 76.0" fill="#5a5f3a" fill-opacity="0.101960786" fill-rule="evenodd" stroke="none"/>
    <path d="M6.95 78.1 Q7.15 78.45 7.0 78.75 L6.45 79.2 5.7 79.1 5.1 78.55 Q4.95 78.2 5.1 77.9 L5.6 77.45 6.4 77.6 6.95 78.1" fill="#5a5f3a" fill-opacity="0.4" fill-rule="evenodd" stroke="none"/>
    <path d="M2.95 76.0 Q1.9 75.55 1.4 74.6 0.95 73.75 1.3 72.95 1.65 72.1 2.6 71.85 3.6 71.65 4.65 72.1 5.7 72.6 6.15 73.45 6.65 74.35 6.3 75.2 5.95 76.0 4.95 76.2 L2.95 76.0" fill="#5a5f3a" fill-opacity="0.3019608" fill-rule="evenodd" stroke="none"/>
    <path d="M40.8 8.55 L37.85 8.45 Q37.9 7.5 38.8 6.55 40.25 5.8 41.15 6.95 L40.8 8.55" fill="#e00000" fill-rule="evenodd" stroke="none"/>
    <path d="M37.85 8.45 L40.8 8.55 40.4 10.15 Q39.3 11.35 38.1 9.9 37.75 9.2 37.85 8.45" fill="#980101" fill-rule="evenodd" stroke="none"/>
    <path d="M40.8 8.55 L41.15 6.95 Q40.25 5.8 38.8 6.55 37.9 7.5 37.85 8.45 37.75 9.2 38.1 9.9 39.3 11.35 40.4 10.15 L40.8 8.55 Z" fill="none" stroke="#000000" stroke-linecap="round" stroke-linejoin="round" stroke-opacity="0.3019608" stroke-width="0.7000000000000001"/>
    <path d="M40.0 8.25 Q40.2 7.05 41.3 5.95 43.05 5.25 43.9 6.7 L43.3 8.7 Q41.4 9.4 40.0 8.25" fill="#e00000" fill-rule="evenodd" stroke="none"/>
    <path d="M43.3 8.7 L42.6 10.6 Q41.2 11.95 40.1 10.05 39.75 9.15 40.0 8.25 41.4 9.4 43.3 8.7" fill="#980101" fill-rule="evenodd" stroke="none"/>
    <path d="M43.3 8.7 L42.6 10.6 Q41.2 11.95 40.1 10.05 39.75 9.15 40.0 8.25 40.2 7.05 41.3 5.95 43.05 5.25 43.9 6.7 L43.3 8.7 Z" fill="none" stroke="#000000" stroke-linecap="round" stroke-linejoin="round" stroke-opacity="0.3019608" stroke-width="0.7000000000000001"/>
  </g>
  <defs>
    <radialGradient cx="0" cy="0" gradientTransform="matrix(0.0255, 0.0, 0.0, 0.0255, 24.8, 73.6)" gradientUnits="userSpaceOnUse" id="gradient0" r="819.2" spreadMethod="pad">
      <stop offset="0.0" stop-color="#dcba6a"/>
      <stop offset="1.0" stop-color="#af9558"/>
    </radialGradient>
    <radialGradient cx="0" cy="0" gradientTransform="matrix(0.0264, 0.0, 0.0, 0.0264, 45.5, 36.2)" gradientUnits="userSpaceOnUse" id="gradient1" r="819.2" spreadMethod="pad">
      <stop offset="0.0" stop-color="#87752c"/>
      <stop offset="1.0" stop-color="#c6ad4a"/>
    </radialGradient>
  </defs>
</svg>
