<?xml version="1.0" encoding="UTF-8" standalone="no"?>
<svg xmlns:xlink="http://www.w3.org/1999/xlink" height="268.65px" width="238.55px" xmlns="http://www.w3.org/2000/svg">
  <g transform="matrix(1.0, 0.0, 0.0, 1.0, 119.25, 134.3)">
    <path d="M104.45 -125.15 Q93.0 -126.7 81.7 -124.3 60.95 -119.7 52.35 -100.15 L51.5 -104.05 Q50.95 -107.0 51.15 -109.9 51.5 -114.4 53.55 -118.55 37.35 -101.4 35.65 -77.8 33.4 -47.0 21.55 -18.55 7.65 14.7 -11.8 44.65 L-8.85 33.45 Q3.2 12.85 11.7 -9.6 33.85 -60.55 32.3 -86.45 35.5 -147.65 94.7 -130.6 100.2 -128.15 104.45 -125.15 M-16.9 23.7 Q-15.4 48.0 -27.25 70.0 -40.95 95.4 -62.6 114.5 L-79.25 115.35 -70.15 107.5 Q-53.55 92.7 -39.65 76.5 -34.65 70.75 -30.9 65.4 -27.15 60.0 -24.7 54.0 -22.3 47.95 -20.5 40.95 -18.7 33.9 -17.35 26.6 L-16.9 23.7 M-80.65 109.7 Q-87.75 114.4 -96.4 114.7 L-97.95 115.1 Q-95.75 114.9 -93.85 115.7 L-89.1 117.95 -90.6 118.95 Q-72.95 119.1 -59.2 127.75 -58.75 128.0 -58.5 128.65 L-59.25 129.75 Q-75.2 121.45 -119.25 123.35 -92.9 115.45 -105.25 107.5 -95.05 111.75 -80.65 109.7 M-48.95 117.5 L-60.05 118.0 -40.1 95.3 -48.35 117.25 -48.95 117.5" fill="#418200" fill-rule="evenodd" stroke="none"/>
    <path d="M-8.85 33.45 L-11.8 44.65 Q7.65 14.7 21.55 -18.55 33.4 -47.0 35.65 -77.8 37.35 -101.4 53.55 -118.55 51.5 -114.4 51.15 -109.9 50.95 -107.0 51.5 -104.05 L52.35 -100.15 Q60.95 -119.7 81.7 -124.3 93.0 -126.7 104.45 -125.15 112.05 -119.8 115.8 -112.65 118.45 -94.9 107.75 -81.2 113.95 -94.75 106.4 -107.55 106.75 -104.7 106.2 -101.9 104.1 -91.35 93.9 -88.8 101.15 -97.55 97.0 -108.05 91.45 -122.05 77.0 -116.95 55.3 -109.15 60.35 -86.05 65.2 -63.8 80.05 -75.1 L80.5 -73.6 Q82.5 -61.0 69.3 -57.45 60.3 -60.9 52.05 -68.7 39.95 -28.15 7.7 24.35 -21.3 77.05 -30.85 107.5 -26.15 116.3 -6.3 121.35 -46.15 121.25 -53.25 134.35 -55.45 131.75 -59.25 129.75 L-58.5 128.65 Q-58.75 128.0 -59.2 127.75 -72.95 119.1 -90.6 118.95 L-89.1 117.95 -93.85 115.7 Q-95.75 114.9 -97.95 115.1 L-96.4 114.7 Q-87.75 114.4 -80.65 109.7 -75.65 109.0 -70.15 107.5 L-79.25 115.35 -62.6 114.5 Q-40.95 95.4 -27.25 70.0 -15.4 48.0 -16.9 23.7 -16.15 17.9 -16.5 11.95 -16.9 5.2 -19.3 -1.05 -21.9 -7.95 -28.2 -11.7 -32.45 -14.15 -37.4 -12.65 -43.4 -10.7 -47.5 -5.75 -52.1 -0.2 -53.65 6.75 -55.3 14.25 -51.6 20.5 -49.9 23.3 -46.7 24.0 -38.75 26.1 -36.0 19.05 -34.1 14.05 -36.2 9.55 -38.3 5.1 -41.7 8.0 -43.8 9.85 -42.75 12.1 L-41.15 9.6 -40.5 9.6 -39.9 9.55 -39.4 9.7 -38.25 10.4 Q-38.1 13.15 -40.5 13.45 L-42.55 13.35 Q-44.25 12.45 -44.7 10.7 -45.4 8.15 -43.8 6.3 -41.65 3.7 -38.2 3.75 -35.65 3.75 -34.0 5.35 -31.8 7.5 -31.35 10.8 -30.8 14.65 -31.35 18.7 -32.2 25.05 -37.95 27.8 -40.95 29.25 -44.35 29.55 -47.5 29.55 -50.2 28.0 -54.25 25.85 -56.2 21.7 -60.75 12.0 -56.65 1.9 -51.0 -12.0 -36.55 -16.15 -31.6 -17.5 -26.8 -15.45 -22.85 -13.7 -19.85 -10.8 -17.5 -8.5 -13.9 1.0 -10.35 10.45 -10.0 20.1 L-9.5 31.3 Q-9.35 32.85 -10.1 35.6 L-8.85 33.45 M-30.3 115.35 Q-31.2 112.05 -30.85 107.5 -31.2 112.05 -30.3 115.35 M52.05 -68.7 L52.05 -68.75 Q35.85 -89.8 45.7 -98.6 35.85 -89.8 52.05 -68.75 L52.05 -68.7 M-48.95 117.5 L-48.35 117.25 -40.1 95.3 -60.05 118.0 -48.95 117.5" fill="#336600" fill-rule="evenodd" stroke="none"/>
    <path d="M115.8 -112.65 Q124.1 -96.65 112.7 -71.6 97.7 -50.15 73.8 -56.0 71.5 -56.6 69.3 -57.45 82.5 -61.0 80.5 -73.6 L80.05 -75.1 Q65.2 -63.8 60.35 -86.05 55.3 -109.15 77.0 -116.95 91.45 -122.05 97.0 -108.05 101.15 -97.55 93.9 -88.8 104.1 -91.35 106.2 -101.9 106.75 -104.7 106.4 -107.55 113.95 -94.75 107.75 -81.2 118.45 -94.9 115.8 -112.65 M84.45 -105.25 Q81.25 -106.65 77.85 -105.75 76.15 -105.3 75.0 -103.85 68.35 -95.6 71.95 -86.05 72.9 -83.45 75.55 -82.95 86.1 -83.85 88.2 -94.35 90.35 -99.85 86.7 -103.7 85.75 -104.7 84.45 -105.25" fill="#8fb300" fill-rule="evenodd" stroke="none"/>
    <path d="M84.45 -105.25 Q85.75 -104.7 86.7 -103.7 90.35 -99.85 88.2 -94.35 86.1 -83.85 75.55 -82.95 72.9 -83.45 71.95 -86.05 68.35 -95.6 75.0 -103.85 76.15 -105.3 77.85 -105.75 81.25 -106.65 84.45 -105.25" fill="#98f906" fill-rule="evenodd" stroke="none"/>
    <path d="M104.45 -125.15 Q100.2 -128.15 94.7 -130.6 35.5 -147.65 32.3 -86.45 33.85 -60.55 11.7 -9.6 M-10.1 35.6 Q-9.35 32.85 -9.5 31.3 L-10.0 20.1 Q-10.35 10.45 -13.9 1.0 -17.5 -8.5 -19.85 -10.8 -22.85 -13.7 -26.8 -15.45 -31.6 -17.5 -36.55 -16.15 -51.0 -12.0 -56.65 1.9 -60.75 12.0 -56.2 21.7 -54.25 25.85 -50.2 28.0 -47.5 29.55 -44.35 29.55 -40.95 29.25 -37.95 27.8 -32.2 25.05 -31.35 18.7 -30.8 14.65 -31.35 10.8 -31.8 7.5 -34.0 5.35 -35.65 3.75 -38.2 3.75 -41.65 3.7 -43.8 6.3 -45.4 8.15 -44.7 10.7 -44.25 12.45 -42.55 13.35 L-40.5 13.45 Q-38.1 13.15 -38.25 10.4 L-39.4 9.7 -39.9 9.55 -40.5 9.6 -41.15 9.6 -42.75 12.1 Q-43.8 9.85 -41.7 8.0 -38.3 5.1 -36.2 9.55 -34.1 14.05 -36.0 19.05 -38.75 26.1 -46.7 24.0 -49.9 23.3 -51.6 20.5 -55.3 14.25 -53.65 6.75 -52.1 -0.2 -47.5 -5.75 -43.4 -10.7 -37.4 -12.65 -32.45 -14.15 -28.2 -11.7 -21.9 -7.95 -19.3 -1.05 -16.9 5.2 -16.5 11.95 -16.15 17.9 -16.9 23.7 L-17.35 26.6 Q-18.7 33.9 -20.5 40.95 -22.3 47.95 -24.7 54.0 -27.15 60.0 -30.9 65.4 -34.65 70.75 -39.65 76.5 M-70.15 107.5 Q-75.65 109.0 -80.65 109.7 -95.05 111.75 -105.25 107.5 -92.9 115.45 -119.25 123.35 -75.2 121.45 -59.25 129.75 -55.45 131.75 -53.25 134.35 -46.15 121.25 -6.3 121.35 -26.15 116.3 -30.85 107.5 -31.2 112.05 -30.3 115.35 M104.45 -125.15 Q112.05 -119.8 115.8 -112.65 124.1 -96.65 112.7 -71.6 97.7 -50.15 73.8 -56.0 71.5 -56.6 69.3 -57.45 60.3 -60.9 52.05 -68.7 39.95 -28.15 7.7 24.35 -21.3 77.05 -30.85 107.5 M45.7 -98.6 Q35.85 -89.8 52.05 -68.75 L52.05 -68.7" fill="none" stroke="#000000" stroke-linecap="round" stroke-linejoin="round" stroke-opacity="0.4" stroke-width="0.05"/>
    <path d="M-8.85 33.45 L-11.8 44.65 Q7.65 14.7 21.55 -18.55 33.4 -47.0 35.65 -77.8 37.35 -101.4 53.55 -118.55 51.5 -114.4 51.15 -109.9 50.95 -107.0 51.5 -104.05 L52.35 -100.15 Q60.95 -119.7 81.7 -124.3 93.0 -126.7 104.45 -125.15 M-16.9 23.7 Q-15.4 48.0 -27.25 70.0 -40.95 95.4 -62.6 114.5 L-79.25 115.35 M84.45 -105.25 Q81.25 -106.65 77.85 -105.75 76.15 -105.3 75.0 -103.85 68.35 -95.6 71.95 -86.05 72.9 -83.45 75.55 -82.95 86.1 -83.85 88.2 -94.35 90.35 -99.85 86.7 -103.7 85.75 -104.7 84.45 -105.25 M69.3 -57.45 Q82.5 -61.0 80.5 -73.6 L80.05 -75.1 Q65.2 -63.8 60.35 -86.05 55.3 -109.15 77.0 -116.95 91.45 -122.05 97.0 -108.05 101.15 -97.55 93.9 -88.8 104.1 -91.35 106.2 -101.9 106.75 -104.7 106.4 -107.55 113.95 -94.75 107.75 -81.2 118.45 -94.9 115.8 -112.65 M-48.95 117.5 L-48.35 117.25 -40.1 95.3 -60.05 118.0 -48.95 117.5" fill="none" stroke="#ffcc00" stroke-linecap="round" stroke-linejoin="round" stroke-opacity="0.4117647" stroke-width="2.0"/>
    <path d="M11.7 -9.6 Q3.2 12.85 -8.85 33.45 L-10.1 35.6 M-79.25 115.35 L-70.15 107.5 Q-53.55 92.7 -39.65 76.5" fill="none" stroke="#000000" stroke-linecap="round" stroke-linejoin="round" stroke-opacity="0.4" stroke-width="0.05"/>
    <path d="M41.05 -94.2 Q42.35 -97.3 45.75 -97.7 47.15 -95.85 45.9 -93.85 44.25 -91.2 41.7 -88.15 39.7 -90.9 41.05 -94.2 M44.8 -81.75 Q46.55 -82.15 47.4 -80.9 L49.75 -77.75 53.3 -73.55 Q56.2 -70.45 59.8 -68.05 66.45 -63.5 73.25 -59.05 L74.1 -58.5 78.0 -58.6 78.9 -59.35 Q79.55 -60.35 79.4 -61.8 79.25 -63.55 79.4 -65.35 79.55 -66.9 80.6 -68.15 L82.3 -69.85 82.7 -70.0 Q85.05 -69.3 86.05 -67.1 86.55 -65.9 86.65 -64.7 L87.25 -60.1 87.55 -59.2 Q96.8 -58.0 104.25 -63.8 L106.4 -65.75 Q108.6 -68.3 109.85 -71.35 112.65 -78.15 115.0 -85.3 115.7 -87.4 117.45 -88.5 117.5 -78.2 113.7 -68.75 L110.3 -61.15 108.5 -57.1 105.7 -49.95 103.5 -43.85 Q102.05 -39.7 102.55 -35.35 L102.9 -33.35 Q104.15 -28.5 101.05 -24.6 L100.5 -25.3 Q97.45 -31.4 95.35 -37.35 L94.6 -37.15 Q91.1 -35.2 89.75 -31.05 87.45 -28.85 87.2 -25.4 86.65 -18.0 87.7 -10.55 88.65 -3.9 88.6 2.9 L88.2 12.45 Q87.9 17.0 85.5 20.8 L84.35 22.05 Q83.05 23.0 81.45 22.45 80.6 22.1 80.05 21.4 86.45 10.8 85.35 -1.7 84.75 -8.3 84.4 -15.15 83.7 -27.7 80.95 -39.9 77.65 -54.7 64.3 -62.75 52.0 -70.1 44.8 -81.75 M90.55 -45.05 Q95.85 -49.75 89.7 -53.9 L86.85 -54.0 Q82.05 -51.35 84.7 -47.05 L84.3 -44.9 Q84.25 -43.8 84.75 -42.7 85.2 -41.65 86.2 -41.2 L86.95 -41.15 Q87.85 -41.45 88.65 -42.0 90.05 -42.8 90.4 -44.3 L90.55 -45.05 M84.95 35.3 L85.4 36.8 Q85.9 40.45 82.6 41.65 80.7 42.25 79.05 41.15 77.55 40.2 77.25 38.35 76.8 35.25 79.45 33.9 L81.4 33.4 Q83.0 33.65 84.2 34.35 L84.95 35.3" fill="#d1e9ef" fill-rule="evenodd" stroke="none"/>
    <path d="M80.05 21.4 Q79.55 20.75 79.35 19.8 78.25 15.15 78.8 10.25 L79.95 -2.3 Q80.4 -8.7 80.2 -15.25 79.6 -33.0 71.25 -48.8 L68.85 -52.85 66.8 -55.45 63.65 -58.45 60.9 -60.45 59.55 -61.6 Q52.35 -67.9 46.25 -75.4 45.75 -76.0 45.45 -76.75 L44.25 -79.65 44.0 -80.3 44.8 -81.75 Q52.0 -70.1 64.3 -62.75 77.65 -54.7 80.95 -39.9 83.7 -27.7 84.4 -15.15 84.75 -8.3 85.35 -1.7 86.45 10.8 80.05 21.4 M101.05 -24.6 L100.9 -24.45 Q100.15 -23.6 98.75 -23.15 95.75 -23.6 94.45 -26.35 93.4 -28.5 92.9 -30.75 L92.45 -31.95 91.1 -32.15 89.75 -31.05 Q91.1 -35.2 94.6 -37.15 L95.35 -37.35 Q97.45 -31.4 100.5 -25.3 L101.05 -24.6 M84.7 -47.05 Q82.05 -51.35 86.85 -54.0 L89.7 -53.9 Q95.85 -49.75 90.55 -45.05 90.7 -46.75 90.0 -48.4 L89.6 -48.7 Q88.1 -49.5 86.35 -49.4 85.5 -49.0 85.1 -48.1 L84.7 -47.05" fill="#b0d9e3" fill-rule="evenodd" stroke="none"/>
    <path d="M41.05 -94.2 Q42.35 -97.3 45.75 -97.7 47.15 -95.85 45.9 -93.85 44.25 -91.2 41.7 -88.15 39.7 -90.9 41.05 -94.2 M84.7 -47.05 L85.1 -48.1 Q85.5 -49.0 86.35 -49.4 88.1 -49.5 89.6 -48.7 L90.0 -48.4 Q90.7 -46.75 90.55 -45.05 L90.4 -44.3 Q90.05 -42.8 88.65 -42.0 87.85 -41.45 86.95 -41.15 L86.2 -41.2 Q85.2 -41.65 84.75 -42.7 84.25 -43.8 84.3 -44.9 L84.7 -47.05 M84.95 35.3 L85.4 36.8 Q85.9 40.45 82.6 41.65 80.7 42.25 79.05 41.15 77.55 40.2 77.25 38.35 76.8 35.25 79.45 33.9 L81.4 33.4 Q83.0 33.65 84.2 34.35 L84.95 35.3" fill="none" stroke="#336699" stroke-linecap="round" stroke-linejoin="round" stroke-opacity="0.4" stroke-width="2.0"/>
    <path d="M80.05 21.4 Q79.55 20.75 79.35 19.8 78.25 15.15 78.8 10.25 L79.95 -2.3 Q80.4 -8.7 80.2 -15.25 79.6 -33.0 71.25 -48.8 L68.85 -52.85 66.8 -55.45 63.65 -58.45 60.9 -60.45 59.55 -61.6 Q52.35 -67.9 46.25 -75.4 45.75 -76.0 45.45 -76.75 L44.25 -79.65 44.0 -80.3 44.8 -81.75 Q46.55 -82.15 47.4 -80.9 L49.75 -77.75 53.3 -73.55 Q56.2 -70.45 59.8 -68.05 66.45 -63.5 73.25 -59.05 L74.1 -58.5 78.0 -58.6 78.9 -59.35 Q79.55 -60.35 79.4 -61.8 79.25 -63.55 79.4 -65.35 79.55 -66.9 80.6 -68.15 L82.3 -69.85 82.7 -70.0 Q85.05 -69.3 86.05 -67.1 86.55 -65.9 86.65 -64.7 L87.25 -60.1 87.55 -59.2 Q96.8 -58.0 104.25 -63.8 L106.4 -65.75 Q108.6 -68.3 109.85 -71.35 112.65 -78.15 115.0 -85.3 115.7 -87.4 117.45 -88.5 117.5 -78.2 113.7 -68.75 L110.3 -61.15 108.5 -57.1 105.7 -49.95 103.5 -43.85 Q102.05 -39.7 102.55 -35.35 L102.9 -33.35 Q104.15 -28.5 101.05 -24.6 L100.9 -24.45 Q100.15 -23.6 98.75 -23.15 95.75 -23.6 94.45 -26.35 93.4 -28.5 92.9 -30.75 L92.45 -31.95 91.1 -32.15 89.75 -31.05 Q87.45 -28.85 87.2 -25.4 86.65 -18.0 87.7 -10.55 88.65 -3.9 88.6 2.9 L88.2 12.45 Q87.9 17.0 85.5 20.8 L84.35 22.05 Q83.05 23.0 81.45 22.45 80.6 22.1 80.05 21.4 Z" fill="none" stroke="#336699" stroke-linecap="round" stroke-linejoin="round" stroke-opacity="0.4" stroke-width="2.0"/>
  </g>
</svg>
