<?xml version="1.0" encoding="UTF-8" standalone="no"?>
<svg xmlns:xlink="http://www.w3.org/1999/xlink" height="47.85px" width="53.3px" xmlns="http://www.w3.org/2000/svg">
  <g transform="matrix(1.0, 0.0, 0.0, 1.0, -13.2, -14.75)">
    <path d="M13.9 35.25 L13.9 35.35 16.4 35.5 22.15 34.95 Q29.25 33.6 35.85 28.55 37.25 25.5 39.55 23.05 33.45 23.9 27.75 28.15 L27.15 28.6 26.9 28.8 26.55 29.1 26.25 29.3 22.7 31.6 Q16.6 35.25 13.9 35.25 M46.15 48.1 Q50.05 43.25 53.8 37.55 L54.8 34.0 Q51.05 28.45 49.7 20.35 48.1 22.7 47.6 26.0 L47.55 26.25 Q47.45 34.25 45.0 41.65 L46.15 48.1 M58.05 25.7 L58.95 24.4 Q59.55 23.9 60.55 21.25 L65.85 14.85 Q63.55 15.35 60.6 17.1 57.9 18.6 56.6 19.95 55.95 24.15 58.05 25.7" fill="#a6b60e" fill-rule="evenodd" stroke="none"/>
    <path d="M36.15 58.25 L40.05 54.85 46.15 48.1 45.0 41.65 Q47.45 34.25 47.55 26.25 L47.35 26.2 Q41.65 30.25 39.5 36.05 38.95 45.2 36.45 51.6 L36.5 51.6 Q40.5 47.15 42.9 47.05 L45.0 41.65 42.9 47.05 Q40.25 52.85 36.15 58.25 M54.8 34.0 L56.05 30.25 Q57.15 27.25 58.05 25.7 55.95 24.15 56.6 19.95 56.15 19.25 56.75 17.25 57.1 16.15 57.55 15.55 L57.8 15.15 55.8 15.25 51.4 15.85 Q49.3 16.25 47.35 17.25 46.9 17.4 46.5 17.7 L46.25 17.8 Q43.45 19.3 40.85 21.8 46.05 18.15 52.75 17.5 50.95 18.6 49.85 20.25 L49.7 20.35 Q51.05 28.45 54.8 34.0 M52.75 17.5 Q54.7 16.1 57.55 15.55 54.7 16.1 52.75 17.5" fill="#82840d" fill-rule="evenodd" stroke="none"/>
    <path d="M27.75 28.15 Q33.45 23.9 39.55 23.05 37.25 25.5 35.85 28.55 34.85 30.6 34.35 33.0 L32.55 41.1 Q31.1 45.1 27.15 49.1 31.6 47.85 34.8 43.3 L39.1 36.45 39.5 36.05 Q41.65 30.25 47.35 26.2 L47.6 26.0 Q48.1 22.7 49.7 20.35 L49.85 20.25 Q50.95 18.6 52.75 17.5 46.05 18.15 40.85 21.8 43.45 19.3 46.25 17.8 L46.5 17.7 Q46.9 17.4 47.35 17.25 42.35 15.65 37.25 18.55 32.95 21.0 30.5 25.1 29.7 26.5 27.75 28.15 M36.45 51.65 Q33.9 57.95 29.0 62.5 30.9 61.9 34.2 59.65 L36.15 58.25 Q40.25 52.85 42.9 47.05 40.5 47.15 36.5 51.6 L36.45 51.65 M60.55 21.25 Q60.05 24.35 61.4 26.75 62.75 29.15 65.85 31.9 L65.8 22.1 Q65.8 16.3 66.4 15.4 L65.85 14.85 60.55 21.25 M39.55 23.05 L40.0 22.6 40.85 21.8 40.0 22.6 39.55 23.05" fill="#8c980d" fill-rule="evenodd" stroke="none"/>
    <path d="M13.9 35.25 Q16.6 35.25 22.7 31.6 L26.25 29.3 26.55 29.1 26.9 28.8 27.15 28.6 27.75 28.15 Q29.7 26.5 30.5 25.1 32.95 21.0 37.25 18.55 42.35 15.65 47.35 17.25 46.9 17.4 46.5 17.7 L46.25 17.8 Q43.45 19.3 40.85 21.8 M35.85 28.55 Q29.25 33.6 22.15 34.95 L16.4 35.5 13.9 35.35 13.3 35.3 13.9 35.25 M36.45 51.6 L36.45 51.65 Q33.9 57.95 29.0 62.5 30.9 61.9 34.2 59.65 L36.15 58.25 40.05 54.85 46.15 48.1 Q50.05 43.25 53.8 37.55 L54.8 34.0 56.05 30.25 Q57.15 27.25 58.05 25.7 L58.95 24.4 Q59.55 23.9 60.55 21.25 60.05 24.35 61.4 26.75 62.75 29.15 65.85 31.9 L65.8 22.1 Q65.8 16.3 66.4 15.4 L65.85 14.85 Q63.55 15.35 60.6 17.1 57.9 18.6 56.6 19.95 56.15 19.25 56.75 17.25 57.1 16.15 57.55 15.55 L57.8 15.15 55.8 15.25 51.4 15.85 Q49.3 16.25 47.35 17.25 M36.45 51.6 Q38.95 45.2 39.5 36.05 L39.1 36.45 34.8 43.3 Q31.6 47.85 27.15 49.1 31.1 45.1 32.55 41.1 L34.35 33.0 Q34.85 30.6 35.85 28.55 M36.5 51.6 L36.45 51.65 M47.6 26.0 L47.55 26.25 M47.35 26.2 L47.6 26.0" fill="none" stroke="#000000" stroke-linecap="round" stroke-linejoin="round" stroke-opacity="0.30980393" stroke-width="0.2"/>
    <path d="M27.75 28.15 Q33.45 23.9 39.55 23.05 37.25 25.5 35.85 28.55 M42.9 47.05 Q40.5 47.15 36.5 51.6 M39.5 36.05 Q41.65 30.25 47.35 26.2 M47.55 26.25 Q47.45 34.25 45.0 41.65 L42.9 47.05 Q40.25 52.85 36.15 58.25 M47.6 26.0 Q48.1 22.7 49.7 20.35 51.05 28.45 54.8 34.0 M40.85 21.8 L40.0 22.6 39.55 23.05 M45.0 41.65 L46.15 48.1 M40.85 21.8 Q46.05 18.15 52.75 17.5 50.95 18.6 49.85 20.25 L49.7 20.35 M57.55 15.55 Q54.7 16.1 52.75 17.5 M56.6 19.95 Q55.95 24.15 58.05 25.7 M60.55 21.25 L65.85 14.85" fill="none" stroke="#3f4006" stroke-linecap="round" stroke-linejoin="round" stroke-opacity="0.4" stroke-width="0.2"/>
    <path d="M65.85 14.85 L66.4 15.4 Q65.8 16.3 65.8 22.1 L65.85 31.9 Q62.75 29.15 61.4 26.75 60.05 24.35 60.55 21.25 59.55 23.9 58.95 24.4 L58.05 25.7 Q57.15 27.25 56.05 30.25 L54.8 34.0 53.8 37.55 Q50.05 43.25 46.15 48.1 L40.05 54.85 36.15 58.25 34.2 59.65 Q30.9 61.9 29.0 62.5 33.9 57.95 36.45 51.65 L36.5 51.6 36.45 51.6 Q38.95 45.2 39.5 36.05 L39.1 36.45 34.8 43.3 Q31.6 47.85 27.15 49.1 31.1 45.1 32.55 41.1 L34.35 33.0 Q34.85 30.6 35.85 28.55 29.25 33.6 22.15 34.95 L16.4 35.5 13.9 35.35 13.9 35.25 Q16.6 35.25 22.7 31.6 L26.25 29.3 26.55 29.1 26.9 28.8 27.15 28.6 27.75 28.15 Q29.7 26.5 30.5 25.1 32.95 21.0 37.25 18.55 42.35 15.65 47.35 17.25 49.3 16.25 51.4 15.85 L55.8 15.25 57.8 15.15 57.55 15.55 Q57.1 16.15 56.75 17.25 56.15 19.25 56.6 19.95 57.9 18.6 60.6 17.1 63.55 15.35 65.85 14.85 M47.55 26.25 L47.6 26.0 47.35 26.2 47.55 26.25" fill="#000000" fill-opacity="0.2784314" fill-rule="evenodd" stroke="none"/>
  </g>
</svg>
