<?xml version="1.0" encoding="UTF-8" standalone="no"?>
<svg xmlns:xlink="http://www.w3.org/1999/xlink" height="41.85px" width="51.0px" xmlns="http://www.w3.org/2000/svg">
  <g transform="matrix(1.0, 0.0, 0.0, 1.0, -3.2, 2.7)">
    <path d="M23.4 5.55 L33.45 7.65 40.95 12.65 41.4 13.35 41.35 12.85 44.2 14.2 44.7 15.6 Q46.25 19.65 50.65 21.4 52.55 22.4 54.2 23.75 52.2 27.7 49.2 30.65 L36.7 33.05 35.95 32.25 41.55 29.85 28.85 27.5 16.55 19.35 16.3 18.95 3.2 5.5 21.0 17.5 27.2 18.15 26.75 17.9 39.35 19.75 11.5 8.15 5.4 4.25 9.85 4.25 10.15 4.25 18.6 7.8 Q19.1 7.95 16.25 5.25 L12.85 2.0 17.45 4.1 17.75 4.3 17.95 4.4 21.55 5.15 23.4 5.55 24.4 5.95 31.6 9.05 24.4 5.95 23.4 5.55 M48.4 31.45 Q45.0 34.5 40.45 36.45 L40.1 36.55 39.45 35.85 48.4 31.45 M30.0 9.95 L24.4 5.95 30.0 9.95 35.35 13.8 30.0 9.95 20.85 5.75 30.0 9.95 M9.85 4.25 L20.8 10.0 9.85 4.25 M30.5 21.85 L41.65 22.25 30.5 21.85 M34.95 25.4 L49.8 24.4 34.95 25.4 M18.6 7.8 L25.5 11.4 18.6 7.8" fill="#e89646" fill-rule="evenodd" stroke="none"/>
    <path d="M41.35 12.85 L41.25 12.35 40.05 5.8 40.0 4.75 Q41.9 6.65 42.25 9.45 L44.2 14.2 41.35 12.85 M49.2 30.65 L48.4 31.45 39.45 35.85 40.1 36.55 32.9 38.8 30.4 39.15 28.05 37.25 33.5 34.3 24.65 32.2 Q16.55 20.8 16.55 19.35 L28.85 27.5 41.55 29.85 35.95 32.25 36.7 33.05 49.2 30.65 M26.75 17.9 L26.75 17.85 11.5 8.15 39.35 19.75 26.75 17.9" fill="#b85f1d" fill-rule="evenodd" stroke="none"/>
    <path d="M40.95 12.65 L33.45 7.65 23.4 5.55 21.55 5.15 17.95 4.4 17.75 4.3 17.45 4.1 12.85 2.0 12.6 1.8 Q11.7 0.95 9.4 -2.7 L19.05 2.9 34.0 7.2 40.95 12.65" fill="#ffcc00" fill-rule="evenodd" stroke="none"/>
    <path d="M41.35 12.85 L41.25 12.35 M30.4 39.15 L28.05 37.25 33.5 34.3 24.65 32.2 Q16.55 20.8 16.55 19.35 M16.3 18.95 L3.2 5.5 21.0 17.5 27.2 18.15 M26.75 17.85 L11.5 8.15 5.4 4.25 M12.85 2.0 L12.6 1.8 M9.4 -2.7 L19.05 2.9 34.0 7.2 40.95 12.65 M17.45 4.1 L12.85 2.0" fill="none" stroke="#000000" stroke-linecap="round" stroke-linejoin="round" stroke-opacity="0.37254903" stroke-width="0.05"/>
    <path d="M23.4 5.55 L24.4 5.95 31.6 9.05 M23.4 5.55 L21.55 5.15 M35.35 13.8 L30.0 9.95 20.85 5.75 M24.4 5.95 L30.0 9.95 M25.5 11.4 L18.6 7.8 M49.8 24.4 L34.95 25.4 M41.65 22.25 L30.5 21.85" fill="none" stroke="#f0b95e" stroke-linecap="round" stroke-linejoin="round" stroke-width="0.05"/>
    <path d="M20.8 10.0 L9.85 4.25" fill="none" stroke="#e28121" stroke-linecap="round" stroke-linejoin="round" stroke-width="0.05"/>
  </g>
</svg>
