<?xml version="1.0" encoding="UTF-8" standalone="no"?>
<svg xmlns:xlink="http://www.w3.org/1999/xlink" height="200.55px" width="179.3px" xmlns="http://www.w3.org/2000/svg">
  <g transform="matrix(1.0, 0.0, 0.0, 1.0, -135.85, -65.5)">
    <path d="M293.6 236.85 Q315.15 241.85 315.15 248.95 315.15 256.05 293.6 261.05 272.1 266.05 241.65 266.05 211.2 266.05 189.65 261.05 168.15 256.05 168.15 248.95 168.15 246.5 170.7 244.3 L163.4 242.8 Q141.9 237.8 141.9 230.7 141.9 223.6 163.4 218.6 184.95 213.6 215.4 213.6 245.85 213.6 267.35 218.6 288.9 223.6 288.9 230.7 288.9 233.15 286.35 235.35 L293.6 236.85" fill="#000000" fill-opacity="0.23137255" fill-rule="evenodd" stroke="none"/>
    <path d="M257.95 89.55 L261.05 89.65 255.05 103.0 251.4 112.6 251.4 119.35 248.5 119.25 251.4 119.35 Q261.35 116.7 268.4 119.7 279.25 125.1 273.1 130.1 269.5 132.8 264.45 129.9 L253.4 127.65 248.5 119.25 243.55 110.9 257.95 89.55" fill="#c7b465" fill-rule="evenodd" stroke="none"/>
    <path d="M259.25 87.65 L257.95 89.55 243.55 110.9 230.55 105.1 Q240.0 95.35 244.15 82.85 246.25 71.6 240.65 69.4 248.1 66.2 259.25 87.65 M281.8 128.45 L279.3 135.65 Q269.4 143.6 254.65 141.05 L284.95 164.35 Q296.75 178.6 293.6 192.55 289.8 209.8 278.65 229.15 267.0 247.8 234.5 242.15 200.45 248.1 169.1 240.7 145.5 234.6 138.9 217.4 135.7 186.5 148.35 164.0 132.15 241.8 217.9 189.4 315.55 221.1 283.35 167.5 264.05 149.85 240.65 146.15 243.5 143.15 239.8 135.9 233.55 125.5 210.85 129.15 L213.2 127.75 215.0 127.05 Q236.0 119.4 242.45 131.6 L246.6 134.8 250.1 137.5 253.4 127.65 264.45 129.9 Q269.5 132.8 273.1 130.1 279.25 125.1 268.4 119.7 261.35 116.7 251.4 119.35 L251.4 112.6 255.05 103.0 Q257.8 106.2 266.65 109.55 274.35 110.75 277.8 103.8 L281.8 128.45 M250.1 137.5 L254.65 141.05 250.1 137.5" fill="#e0d6ab" fill-rule="evenodd" stroke="none"/>
    <path d="M261.05 89.65 L273.9 89.95 Q284.0 96.8 282.75 114.35 L281.8 128.45 277.8 103.8 Q274.35 110.75 266.65 109.55 257.8 106.2 255.05 103.0 L261.05 89.65 M138.9 217.4 Q135.25 207.9 136.8 195.05 142.0 158.75 157.3 151.5 186.75 143.3 210.85 129.15 233.55 125.5 239.8 135.9 243.5 143.15 240.65 146.15 264.05 149.85 283.35 167.5 315.55 221.1 217.9 189.4 132.15 241.8 148.35 164.0 135.7 186.5 138.9 217.4 M221.4 109.9 Q222.65 95.9 218.25 79.85 228.85 63.3 248.7 66.55 L260.5 85.8 259.25 87.65 Q248.1 66.2 240.65 69.4 246.25 71.6 244.15 82.85 240.0 95.35 230.55 105.1 L221.4 109.9" fill="#ece6ca" fill-rule="evenodd" stroke="none"/>
    <path d="M215.0 127.05 L211.5 122.9 213.95 117.55 211.7 112.6 221.4 109.9 230.55 105.1 243.55 110.9 248.5 119.25 253.4 127.65 250.1 137.5 246.6 134.8 242.45 131.6 Q236.0 119.4 215.0 127.05 L229.45 115.1 215.0 127.05 M246.6 134.8 L246.6 122.5 235.3 113.25 229.45 115.1 223.45 113.95 213.95 117.55 223.45 113.95 229.45 115.1 235.3 113.25 246.6 122.5 246.6 134.8" fill="#948136" fill-rule="evenodd" stroke="none"/>
    <path d="M259.25 87.65 L257.95 89.55 261.05 89.65 273.9 89.95 Q284.0 96.8 282.75 114.35 L281.8 128.45 279.3 135.65 Q269.4 143.6 254.65 141.05 L284.95 164.35 Q296.75 178.6 293.6 192.55 289.8 209.8 278.65 229.15 267.0 247.8 234.5 242.15 200.45 248.1 169.1 240.7 145.5 234.6 138.9 217.4 135.25 207.9 136.8 195.05 142.0 158.75 157.3 151.5 186.75 143.3 210.85 129.15 L213.2 127.75 215.0 127.05 211.5 122.9 213.95 117.55 211.7 112.6 221.4 109.9 Q222.65 95.9 218.25 79.85 228.85 63.3 248.7 66.55 L260.5 85.8 259.25 87.65 M230.55 105.1 L243.55 110.9 257.95 89.55 M213.95 117.55 L223.45 113.95 229.45 115.1 235.3 113.25 246.6 122.5 246.6 134.8 250.1 137.5 253.4 127.65 248.5 119.25 243.55 110.9 M215.0 127.05 Q236.0 119.4 242.45 131.6 L246.6 134.8 M230.55 105.1 L221.4 109.9 M229.45 115.1 L215.0 127.05 M248.5 119.25 L251.4 119.35 Q261.35 116.7 268.4 119.7 279.25 125.1 273.1 130.1 269.5 132.8 264.45 129.9 M254.65 141.05 L250.1 137.5" fill="none" stroke="#000000" stroke-linecap="round" stroke-linejoin="round" stroke-opacity="0.4" stroke-width="1.0"/>
  </g>
</svg>
