<?xml version="1.0" encoding="UTF-8" standalone="no"?>
<svg xmlns:xlink="http://www.w3.org/1999/xlink" height="160.95px" width="138.85px" xmlns="http://www.w3.org/2000/svg">
  <g transform="matrix(1.0, 0.0, 0.0, 1.0, 69.4, 80.45)">
    <path d="M-19.6 -77.9 L-19.6 -75.55 -23.5 -77.1 -26.35 -75.25 -27.15 -76.2 -23.5 -78.55 -19.6 -77.9" fill="url(#gradient0)" fill-rule="evenodd" stroke="none"/>
    <path d="M-19.6 -75.55 L-19.6 -77.9 -23.5 -78.55 -27.15 -76.2 -27.9 -77.1 -22.95 -79.95 -19.05 -79.95 -13.6 -76.55 -12.4 -74.3 -16.25 -69.3 -24.2 -66.8 -37.55 -66.8 -30.55 -68.45 -19.6 -75.55" fill="url(#gradient1)" fill-rule="evenodd" stroke="none"/>
    <path d="M-37.55 -66.8 L-24.2 -66.8 -13.2 -67.45 -14.7 -66.3 -18.45 -65.75 -26.95 -64.55 -44.75 -65.1 -37.55 -66.8" fill="url(#gradient2)" fill-rule="evenodd" stroke="none"/>
    <path d="M-8.95 -72.0 L-9.0 -67.6 -23.35 -58.5 -47.05 -52.4 -55.9 -52.4 -53.2 -49.3 -53.1 -45.45 -53.5 -46.4 -54.3 -48.55 -57.9 -52.75 -55.75 -54.8 -54.6 -53.55 -29.75 -57.75 Q-20.65 -61.75 -14.7 -66.3 L-13.2 -67.45 -10.2 -70.25 -11.85 -73.3 -9.3 -73.3 -8.95 -72.0" fill="url(#gradient3)" fill-rule="evenodd" stroke="none"/>
    <path d="M-50.6 -37.65 L-51.45 -39.0 -55.1 -44.95 -53.5 -46.4 -53.1 -45.45 -52.65 -44.4 -20.0 -54.1 -6.95 -63.5 -7.45 -65.6 -4.6 -65.6 -4.6 -60.05 -4.6 -58.5 -5.55 -57.4 -5.45 -64.05 -14.95 -54.8 Q-18.55 -52.95 -22.2 -51.15 L-52.35 -42.75 -50.6 -37.65" fill="url(#gradient4)" fill-rule="evenodd" stroke="none"/>
    <path d="M-7.45 -65.6 L-6.95 -63.5 -20.0 -54.1 -52.65 -44.4 -53.1 -45.45 -53.2 -49.3 -55.9 -52.4 -47.05 -52.4 -23.35 -58.5 -9.0 -67.6 -8.95 -72.0 -7.45 -65.6" fill="url(#gradient5)" fill-rule="evenodd" stroke="none"/>
    <path d="M-24.2 -66.8 L-16.25 -69.3 -12.4 -74.3 -11.85 -73.3 -10.2 -70.25 -13.2 -67.45 -24.2 -66.8" fill="url(#gradient6)" fill-rule="evenodd" stroke="none"/>
    <path d="M-14.7 -66.3 Q-20.65 -61.75 -29.75 -57.75 L-54.6 -53.55 -55.75 -54.8 -61.1 -60.75 -66.9 -58.5 -68.9 -60.65 -66.45 -63.95 -66.4 -63.95 -63.4 -65.5 -59.0 -64.5 -53.75 -58.55 -35.0 -58.55 -18.45 -65.75 -14.7 -66.3 M-66.1 -60.65 L-62.7 -62.5 -61.1 -60.75 -62.7 -62.5 -66.1 -60.65" fill="url(#gradient7)" fill-rule="evenodd" stroke="none"/>
    <path d="M-0.25 -52.05 L0.95 -49.2 0.15 -48.8 -3.35 -54.7 -3.35 -57.8 -10.45 -49.7 -27.55 -38.6 -30.95 -38.5 Q-13.8 -47.95 -5.55 -57.4 L-4.6 -58.5 -4.6 -60.05 -1.5 -60.05 -1.5 -55.1 -0.25 -52.05" fill="url(#gradient8)" fill-rule="evenodd" stroke="none"/>
    <path d="M0.15 -48.8 L-20.0 -38.9 -27.55 -38.6 -10.45 -49.7 -3.35 -57.8 -3.35 -54.7 0.15 -48.8" fill="url(#gradient9)" fill-rule="evenodd" stroke="none"/>
    <path d="M-30.95 -38.5 L-50.6 -37.65 -52.35 -42.75 -22.2 -51.15 Q-18.55 -52.95 -14.95 -54.8 L-5.45 -64.05 -5.55 -57.4 Q-13.8 -47.95 -30.95 -38.5" fill="url(#gradient10)" fill-rule="evenodd" stroke="none"/>
    <path d="M-18.45 -65.75 L-35.0 -58.55 -53.75 -58.55 -59.0 -64.5 -63.4 -65.5 -66.4 -63.95 -63.95 -67.2 -55.1 -67.2 Q-50.05 -65.8 -44.75 -65.1 L-26.95 -64.55 -18.45 -65.75" fill="url(#gradient11)" fill-rule="evenodd" stroke="none"/>
    <path d="M5.3 -42.05 L2.8 -44.9 1.65 -48.6 1.65 -47.45 -18.55 -37.35 -51.9 -36.2 -49.35 -33.8 -48.3 -28.45 -48.5 -28.4 -50.6 -32.7 -54.0 -36.85 -51.45 -39.0 -50.6 -37.65 -30.95 -38.5 -27.55 -38.6 -20.0 -38.9 0.15 -48.8 0.95 -49.2 -0.25 -52.05 3.0 -50.7 Q2.65 -47.35 5.3 -42.05" fill="url(#gradient12)" fill-rule="evenodd" stroke="none"/>
    <path d="M-48.3 -28.45 L-48.15 -27.7 -48.5 -28.4 -48.3 -28.45" fill="#e0d7ad" fill-rule="evenodd" stroke="none"/>
    <path d="M-48.15 -27.7 L-47.8 -26.95 -27.9 -26.95 -17.5 -30.7 -20.05 -28.1 -25.75 -26.25 -34.3 -25.0 -47.95 -26.3 -49.55 -27.4 -48.5 -28.4 -48.15 -27.7" fill="url(#gradient13)" fill-rule="evenodd" stroke="none"/>
    <path d="M-44.85 -15.95 L-48.25 -22.75 -50.6 -26.35 -49.55 -27.4 -47.95 -26.3 -34.3 -25.0 -48.25 -25.0 -46.5 -21.75 -44.85 -15.95" fill="url(#gradient14)" fill-rule="evenodd" stroke="none"/>
    <path d="M-48.3 -28.45 L-49.35 -33.8 -51.9 -36.2 -18.55 -37.35 1.65 -47.45 1.65 -48.6 2.8 -44.9 5.3 -42.05 3.6 -41.0 -6.95 -34.55 -17.5 -30.7 -27.9 -26.95 -47.8 -26.95 -48.15 -27.7 -48.3 -28.45" fill="url(#gradient15)" fill-rule="evenodd" stroke="none"/>
    <path d="M-42.55 -14.15 L-43.35 -16.55 -42.05 -17.1 -41.25 -14.55 -42.55 -14.15" fill="url(#gradient16)" fill-rule="evenodd" stroke="none"/>
    <path d="M-41.25 -14.55 L-42.05 -17.1 -38.4 -18.7 -38.55 -15.45 -41.25 -14.55" fill="url(#gradient17)" fill-rule="evenodd" stroke="none"/>
    <path d="M-43.35 -16.55 L-44.85 -15.95 -46.5 -21.75 -48.25 -25.0 -34.3 -25.0 -25.75 -26.25 -20.05 -28.1 -22.65 -25.55 -38.4 -18.7 -42.05 -17.1 -43.35 -16.55" fill="url(#gradient18)" fill-rule="evenodd" stroke="none"/>
    <path d="M-35.2 6.1 Q-39.1 -3.95 -42.55 -14.15 L-41.25 -14.55 -37.2 -1.55 -35.2 6.1" fill="#f8f5f0" fill-rule="evenodd" stroke="none"/>
    <path d="M-0.8 -32.05 L-1.75 -31.4 -7.6 -29.15 Q-7.25 -32.35 -4.95 -32.95 -3.15 -33.4 -0.8 -32.05 M-38.55 -15.45 L-38.4 -18.7 -22.65 -25.55 -19.7 -21.65 -38.55 -15.45" fill="#313131" fill-rule="evenodd" stroke="none"/>
    <path d="M-0.8 -32.05 L1.5 -30.35 Q5.25 -27.0 7.85 -21.7 10.45 -16.45 10.4 -12.2 10.35 -7.9 7.65 -7.2 5.0 -6.55 1.25 -9.85 -2.55 -13.1 -5.15 -18.35 -7.75 -23.7 -7.7 -28.0 L-7.6 -29.15 -1.75 -31.4 -0.8 -32.05" fill="url(#gradient19)" fill-rule="evenodd" stroke="none"/>
    <path d="M5.85 -36.65 Q18.75 -11.7 35.2 11.5 49.45 41.05 36.9 43.8 23.5 48.0 0.35 11.75 -10.45 -8.75 -19.7 -21.65 L-14.4 -27.55 -7.6 -29.15 -7.7 -28.0 Q-7.75 -23.7 -5.15 -18.35 -2.55 -13.1 1.25 -9.85 5.0 -6.55 7.65 -7.2 10.35 -7.9 10.4 -12.2 10.45 -16.45 7.85 -21.7 5.25 -27.0 1.5 -30.35 L-0.8 -32.05 5.85 -36.65" fill="url(#gradient20)" fill-rule="evenodd" stroke="none"/>
    <path d="M-17.5 -30.7 L-6.95 -34.55 3.6 -41.0 5.85 -36.65 -0.8 -32.05 Q-3.15 -33.4 -4.95 -32.95 -7.25 -32.35 -7.6 -29.15 L-14.4 -27.55 -19.7 -21.65 -22.65 -25.55 -20.05 -28.1 -17.5 -30.7" fill="url(#gradient21)" fill-rule="evenodd" stroke="none"/>
    <path d="M-38.55 -15.45 Q-38.75 -8.95 -37.2 -1.55 L-41.25 -14.55 -38.55 -15.45" fill="url(#gradient22)" fill-rule="evenodd" stroke="none"/>
    <path d="M35.2 11.5 Q50.55 33.2 68.95 53.35 67.75 56.4 64.65 58.75 L54.5 50.45 51.5 50.45 Q50.25 53.7 58.8 61.9 51.95 64.55 27.9 67.7 13.85 69.5 6.65 73.0 3.65 74.4 1.8 76.15 L-4.3 67.3 -18.35 42.05 Q-27.95 22.2 -37.2 -1.55 -38.75 -8.95 -38.55 -15.45 L-19.7 -21.65 Q-10.45 -8.75 0.35 11.75 23.5 48.0 36.9 43.8 49.45 41.05 35.2 11.5 M7.0 49.45 Q7.05 45.25 4.45 39.95 1.85 34.65 -1.95 31.35 -5.7 28.05 -8.35 28.75 -11.05 29.45 -11.1 33.65 -11.15 38.0 -8.55 43.3 -5.95 48.6 -2.2 51.85 1.6 55.15 4.25 54.45 6.95 53.75 7.0 49.45" fill="url(#gradient23)" fill-rule="evenodd" stroke="none"/>
    <path d="M7.0 49.45 Q6.95 53.75 4.25 54.45 1.6 55.15 -2.2 51.85 -5.95 48.6 -8.55 43.3 -11.15 38.0 -11.1 33.65 -11.05 29.45 -8.35 28.75 -5.7 28.05 -1.95 31.35 1.85 34.65 4.45 39.95 7.05 45.25 7.0 49.45" fill="url(#gradient24)" fill-rule="evenodd" stroke="none"/>
    <path d="M6.65 73.0 L11.25 79.2 Q1.85 80.9 -0.25 78.9 0.45 77.45 1.8 76.15 3.65 74.4 6.65 73.0" fill="#202020" fill-rule="evenodd" stroke="none"/>
    <path d="M64.65 58.75 L63.3 59.7 51.5 50.45 54.5 50.45 64.65 58.75 M-0.25 78.9 Q-20.65 43.85 -35.2 6.1 L-37.2 -1.55 Q-27.95 22.2 -18.35 42.05 L-4.3 67.3 1.8 76.15 Q0.45 77.45 -0.25 78.9" fill="#666666" fill-rule="evenodd" stroke="none"/>
    <path d="M-48.15 -27.7 L-47.8 -26.95 -27.9 -26.95 -17.5 -30.7 -6.95 -34.55 3.6 -41.0 5.3 -42.05 Q2.65 -47.35 3.0 -50.7 L-0.25 -52.05 0.95 -49.2 0.15 -48.8 -20.0 -38.9 -27.55 -38.6 -30.95 -38.5 -50.6 -37.65 -51.45 -39.0 -54.0 -36.85 -50.6 -32.7 -48.5 -28.4 -48.15 -27.7 M3.6 -41.0 L5.85 -36.65 Q18.75 -11.7 35.2 11.5 50.55 33.2 68.95 53.35 67.75 56.4 64.65 58.75 L63.3 59.7 51.5 50.45 Q50.25 53.7 58.8 61.9 51.95 64.55 27.9 67.7 13.85 69.5 6.65 73.0 L11.25 79.2 Q1.85 80.9 -0.25 78.9 -20.65 43.85 -35.2 6.1 -39.1 -3.95 -42.55 -14.15 L-43.35 -16.55 -44.85 -15.95 -48.25 -22.75 -50.6 -26.35 -49.55 -27.4 -48.5 -28.4 M-0.8 -32.05 L1.5 -30.35 Q5.25 -27.0 7.85 -21.7 10.45 -16.45 10.4 -12.2 10.35 -7.9 7.65 -7.2 5.0 -6.55 1.25 -9.85 -2.55 -13.1 -5.15 -18.35 -7.75 -23.7 -7.7 -28.0 L-7.6 -29.15 Q-7.25 -32.35 -4.95 -32.95 -3.15 -33.4 -0.8 -32.05 M-19.7 -21.65 Q-10.45 -8.75 0.35 11.75 23.5 48.0 36.9 43.8 49.45 41.05 35.2 11.5 M7.0 49.45 Q6.95 53.75 4.25 54.45 1.6 55.15 -2.2 51.85 -5.95 48.6 -8.55 43.3 -11.15 38.0 -11.1 33.65 -11.05 29.45 -8.35 28.75 -5.7 28.05 -1.95 31.35 1.85 34.65 4.45 39.95 7.05 45.25 7.0 49.45 M1.8 76.15 Q3.65 74.4 6.65 73.0 M-19.6 -75.55 L-19.6 -77.9 M-27.15 -76.2 L-26.35 -75.25 -23.5 -77.1 -19.6 -75.55 -30.55 -68.45 -37.55 -66.8 -44.75 -65.1 Q-50.05 -65.8 -55.1 -67.2 L-63.95 -67.2 -66.4 -63.95 M-12.4 -74.3 L-13.6 -76.55 -19.05 -79.95 -22.95 -79.95 -27.9 -77.1 -27.15 -76.2 M-53.1 -45.45 L-52.65 -44.4 -20.0 -54.1 -6.95 -63.5 -7.45 -65.6 -8.95 -72.0 -9.3 -73.3 -11.85 -73.3 -10.2 -70.25 -13.2 -67.45 -14.7 -66.3 Q-20.65 -61.75 -29.75 -57.75 L-54.6 -53.55 -55.75 -54.8 -57.9 -52.75 -54.3 -48.55 -53.5 -46.4 -55.1 -44.95 -51.45 -39.0 M-53.1 -45.45 L-53.5 -46.4 M-7.45 -65.6 L-4.6 -65.6 -4.6 -60.05 -1.5 -60.05 -1.5 -55.1 -0.25 -52.05 M-18.45 -65.75 L-14.7 -66.3 M-4.6 -60.05 L-4.6 -58.5 -5.55 -57.4 Q-13.8 -47.95 -30.95 -38.5 M-18.45 -65.75 L-26.95 -64.55 -44.75 -65.1 M-66.45 -63.95 L-68.9 -60.65 -66.9 -58.5 -61.1 -60.75 -62.7 -62.5 -66.1 -60.65 M-12.4 -74.3 L-11.85 -73.3 M-55.75 -54.8 L-61.1 -60.75 M-42.05 -17.1 L-43.35 -16.55 M-20.05 -28.1 L-17.5 -30.7 M-37.2 -1.55 Q-38.75 -8.95 -38.55 -15.45 L-38.4 -18.7 -42.05 -17.1 M1.8 76.15 Q0.45 77.45 -0.25 78.9 M-19.7 -21.65 L-22.65 -25.55 -38.4 -18.7 M-22.65 -25.55 L-20.05 -28.1 M-35.2 6.1 L-37.2 -1.55" fill="none" stroke="#000000" stroke-linecap="round" stroke-linejoin="round" stroke-opacity="0.4" stroke-width="0.5"/>
    <path d="M5.85 -36.65 Q18.75 -11.7 35.2 11.5 50.55 33.2 68.95 53.35 67.75 56.4 64.65 58.75 L63.3 59.7 51.5 50.45 Q50.25 53.7 58.8 61.9 51.95 64.55 27.9 67.7 13.85 69.5 6.65 73.0 L11.25 79.2 Q1.85 80.9 -0.25 78.9 -20.65 43.85 -35.2 6.1 -39.1 -3.95 -42.55 -14.15 L-43.35 -16.55 -44.85 -15.95 -48.25 -22.75 -50.6 -26.35 -48.5 -28.4 -50.6 -32.7 -54.0 -36.85 -51.45 -39.0 -55.1 -44.95 -53.5 -46.4 -54.3 -48.55 -57.9 -52.75 -55.75 -54.8 -61.1 -60.75 -66.9 -58.5 -68.9 -60.65 -66.45 -63.95 -66.4 -63.95 -63.95 -67.2 -55.1 -67.2 Q-50.05 -65.8 -44.75 -65.1 L-30.55 -68.45 -19.6 -75.55 -23.5 -77.1 -26.35 -75.25 -27.9 -77.1 -22.95 -79.95 -19.05 -79.95 -13.6 -76.55 -11.85 -73.3 -9.3 -73.3 -7.45 -65.6 -4.6 -65.6 -4.6 -60.05 -1.5 -60.05 -1.5 -55.1 -0.25 -52.05 3.0 -50.7 Q2.65 -47.35 5.3 -42.05 L3.6 -41.0 5.85 -36.65 Z" fill="none" stroke="#000000" stroke-linecap="round" stroke-linejoin="round" stroke-opacity="0.4" stroke-width="1.0"/>
  </g>
  <defs>
    <linearGradient gradientTransform="matrix(-0.0017, -0.0017, 0.0029, -0.0029, -23.65, -77.25)" gradientUnits="userSpaceOnUse" id="gradient0" spreadMethod="pad" x1="-819.2" x2="819.2">
      <stop offset="0.0" stop-color="#cfbe7b"/>
      <stop offset="1.0" stop-color="#e3dab3"/>
    </linearGradient>
    <linearGradient gradientTransform="matrix(0.0054, -0.0093, 0.0095, 0.0055, -20.95, -77.55)" gradientUnits="userSpaceOnUse" id="gradient1" spreadMethod="pad" x1="-819.2" x2="819.2">
      <stop offset="0.0" stop-color="#f4f0e1"/>
      <stop offset="1.0" stop-color="#e3dab3"/>
    </linearGradient>
    <linearGradient gradientTransform="matrix(0.0193, 0.0, 0.0, 0.0019, -29.0, -65.9)" gradientUnits="userSpaceOnUse" id="gradient2" spreadMethod="pad" x1="-819.2" x2="819.2">
      <stop offset="0.0" stop-color="#c0ab5b"/>
      <stop offset="1.0" stop-color="#c1ad5f"/>
    </linearGradient>
    <linearGradient gradientTransform="matrix(-0.022, -0.0094, 0.0102, -0.024, -33.4, -60.25)" gradientUnits="userSpaceOnUse" id="gradient3" spreadMethod="pad" x1="-819.2" x2="819.2">
      <stop offset="0.0" stop-color="#f4f0e1"/>
      <stop offset="1.0" stop-color="#e3dab3"/>
    </linearGradient>
    <linearGradient gradientTransform="matrix(-0.0231, -0.0098, 0.0104, -0.0246, -29.55, -52.45)" gradientUnits="userSpaceOnUse" id="gradient4" spreadMethod="pad" x1="-819.2" x2="819.2">
      <stop offset="0.0" stop-color="#f4f0e1"/>
      <stop offset="1.0" stop-color="#e3dab3"/>
    </linearGradient>
    <linearGradient gradientTransform="matrix(0.0196, -0.0082, 0.0029, 0.007, -29.3, -56.95)" gradientUnits="userSpaceOnUse" id="gradient5" spreadMethod="pad" x1="-819.2" x2="819.2">
      <stop offset="0.0" stop-color="#cfbe7b"/>
      <stop offset="1.0" stop-color="#e3dab3"/>
    </linearGradient>
    <linearGradient gradientTransform="matrix(0.0043, -0.0043, 0.0032, 0.0032, -14.05, -71.75)" gradientUnits="userSpaceOnUse" id="gradient6" spreadMethod="pad" x1="-819.2" x2="819.2">
      <stop offset="0.0" stop-color="#cfbe7b"/>
      <stop offset="1.0" stop-color="#e3dab3"/>
    </linearGradient>
    <linearGradient gradientTransform="matrix(0.0161, -0.0043, 0.0026, 0.0095, -36.2, -64.4)" gradientUnits="userSpaceOnUse" id="gradient7" spreadMethod="pad" x1="-819.2" x2="819.2">
      <stop offset="0.0" stop-color="#cfbe7b"/>
      <stop offset="1.0" stop-color="#e3dab3"/>
    </linearGradient>
    <linearGradient gradientTransform="matrix(-0.0141, -0.006, 0.0075, -0.0176, -13.25, -47.95)" gradientUnits="userSpaceOnUse" id="gradient8" spreadMethod="pad" x1="-819.2" x2="819.2">
      <stop offset="0.0" stop-color="#f4f0e1"/>
      <stop offset="1.0" stop-color="#e3dab3"/>
    </linearGradient>
    <linearGradient gradientTransform="matrix(0.0105, -0.0061, 0.0029, 0.0051, -11.1, -47.9)" gradientUnits="userSpaceOnUse" id="gradient9" spreadMethod="pad" x1="-819.2" x2="819.2">
      <stop offset="0.0" stop-color="#cfbe7b"/>
      <stop offset="1.0" stop-color="#e3dab3"/>
    </linearGradient>
    <linearGradient gradientTransform="matrix(0.021, -0.0091, 0.0032, 0.0074, -24.45, -48.5)" gradientUnits="userSpaceOnUse" id="gradient10" spreadMethod="pad" x1="-819.2" x2="819.2">
      <stop offset="0.0" stop-color="#cfbe7b"/>
      <stop offset="1.0" stop-color="#e3dab3"/>
    </linearGradient>
    <linearGradient gradientTransform="matrix(-0.0151, -0.0064, 0.0049, -0.0115, -45.45, -66.15)" gradientUnits="userSpaceOnUse" id="gradient11" spreadMethod="pad" x1="-819.2" x2="819.2">
      <stop offset="0.0" stop-color="#f4f0e1"/>
      <stop offset="1.0" stop-color="#e3dab3"/>
    </linearGradient>
    <linearGradient gradientTransform="matrix(-0.0295, -0.0125, 0.0097, -0.0228, -24.05, -40.1)" gradientUnits="userSpaceOnUse" id="gradient12" spreadMethod="pad" x1="-819.2" x2="819.2">
      <stop offset="0.0" stop-color="#f4f0e1"/>
      <stop offset="1.0" stop-color="#e3dab3"/>
    </linearGradient>
    <linearGradient gradientTransform="matrix(0.0196, 0.0, 0.0, 0.0035, -33.55, -27.85)" gradientUnits="userSpaceOnUse" id="gradient13" spreadMethod="pad" x1="-819.2" x2="819.2">
      <stop offset="0.0" stop-color="#c0ab5b"/>
      <stop offset="1.0" stop-color="#c1ad5f"/>
    </linearGradient>
    <linearGradient gradientTransform="matrix(-0.0088, -0.0037, 0.003, -0.007, -43.9, -22.3)" gradientUnits="userSpaceOnUse" id="gradient14" spreadMethod="pad" x1="-819.2" x2="819.2">
      <stop offset="0.0" stop-color="#f4f0e1"/>
      <stop offset="1.0" stop-color="#e3dab3"/>
    </linearGradient>
    <linearGradient gradientTransform="matrix(0.024, -0.0064, 0.0024, 0.009, -22.55, -36.25)" gradientUnits="userSpaceOnUse" id="gradient15" spreadMethod="pad" x1="-819.2" x2="819.2">
      <stop offset="0.0" stop-color="#cfbe7b"/>
      <stop offset="1.0" stop-color="#e3dab3"/>
    </linearGradient>
    <linearGradient gradientTransform="matrix(9.0E-4, 0.0015, -0.001, 6.0E-4, -42.25, -15.55)" gradientUnits="userSpaceOnUse" id="gradient16" spreadMethod="pad" x1="-819.2" x2="819.2">
      <stop offset="0.0" stop-color="#ddcbaf"/>
      <stop offset="1.0" stop-color="#f0e9da"/>
    </linearGradient>
    <linearGradient gradientTransform="matrix(0.001, 0.0017, -0.0024, 0.0014, -39.75, -16.6)" gradientUnits="userSpaceOnUse" id="gradient17" spreadMethod="pad" x1="-819.2" x2="819.2">
      <stop offset="0.0" stop-color="#ddcbaf"/>
      <stop offset="1.0" stop-color="#f0e9da"/>
    </linearGradient>
    <linearGradient gradientTransform="matrix(0.0125, -0.0072, 0.0037, 0.0065, -33.2, -26.6)" gradientUnits="userSpaceOnUse" id="gradient18" spreadMethod="pad" x1="-819.2" x2="819.2">
      <stop offset="0.0" stop-color="#cfbe7b"/>
      <stop offset="1.0" stop-color="#e3dab3"/>
    </linearGradient>
    <linearGradient gradientTransform="matrix(0.0064, 0.0111, -0.0069, 0.004, 2.0, -18.95)" gradientUnits="userSpaceOnUse" id="gradient19" spreadMethod="pad" x1="-819.2" x2="819.2">
      <stop offset="0.0" stop-color="#333333"/>
      <stop offset="1.0" stop-color="#1e1e1e"/>
    </linearGradient>
    <linearGradient gradientTransform="matrix(0.0176, 0.0304, -0.0163, 0.0094, 8.8, -3.35)" gradientUnits="userSpaceOnUse" id="gradient20" spreadMethod="pad" x1="-819.2" x2="819.2">
      <stop offset="0.0" stop-color="#fbf9f6"/>
      <stop offset="1.0" stop-color="#f0e9da"/>
    </linearGradient>
    <linearGradient gradientTransform="matrix(0.0174, 0.0, 0.0, 0.0118, -8.4, -31.35)" gradientUnits="userSpaceOnUse" id="gradient21" spreadMethod="pad" x1="-819.2" x2="819.2">
      <stop offset="0.0" stop-color="#ddcbaf"/>
      <stop offset="1.0" stop-color="#f0e9da"/>
    </linearGradient>
    <linearGradient gradientTransform="matrix(2.0E-4, 7.0E-4, -0.0017, 4.0E-4, -39.45, -13.2)" gradientUnits="userSpaceOnUse" id="gradient22" spreadMethod="pad" x1="-819.2" x2="819.2">
      <stop offset="0.0" stop-color="#fbf9f6"/>
      <stop offset="1.0" stop-color="#f0e9da"/>
    </linearGradient>
    <linearGradient gradientTransform="matrix(0.0328, 0.0328, -0.0299, 0.0299, -4.0, 21.3)" gradientUnits="userSpaceOnUse" id="gradient23" spreadMethod="pad" x1="-819.2" x2="819.2">
      <stop offset="0.0" stop-color="#333333"/>
      <stop offset="1.0" stop-color="#1e1e1e"/>
    </linearGradient>
    <linearGradient gradientTransform="matrix(0.0047, 0.0081, -0.007, 0.004, -4.15, 38.0)" gradientUnits="userSpaceOnUse" id="gradient24" spreadMethod="pad" x1="-819.2" x2="819.2">
      <stop offset="0.0" stop-color="#fbf9f6"/>
      <stop offset="1.0" stop-color="#f0e9da"/>
    </linearGradient>
  </defs>
</svg>
