<?xml version="1.0" encoding="UTF-8" standalone="no"?>
<svg xmlns:xlink="http://www.w3.org/1999/xlink" height="67.35px" width="120.85px" xmlns="http://www.w3.org/2000/svg">
  <g transform="matrix(1.0, 0.0, 0.0, 1.0, -197.15, -49.7)">
    <path d="M282.65 107.35 L282.45 107.35 282.45 106.9 282.65 107.35" fill="#6fadcc" fill-rule="evenodd" stroke="none"/>
    <path d="M237.25 52.0 L232.35 54.45 Q233.0 53.75 233.7 53.3 L237.25 52.0 M283.75 113.1 Q284.0 112.85 284.2 112.85 L284.2 113.1 283.75 113.1" fill="#e7d885" fill-rule="evenodd" stroke="none"/>
    <path d="M234.55 101.2 L234.55 101.4 234.55 101.2" fill="#4291b7" fill-rule="evenodd" stroke="none"/>
    <path d="M224.15 69.1 L223.95 68.6 224.15 68.65 224.15 69.1" fill="#dfc262" fill-rule="evenodd" stroke="none"/>
    <path d="M293.05 62.15 Q299.7 66.85 305.05 72.9 L307.25 75.7 310.1 88.95 299.25 99.25 296.15 100.8 291.95 90.9 296.15 100.8 Q292.2 104.6 282.85 106.7 282.65 106.65 282.45 106.9 L282.45 107.35 252.3 104.05 Q245.0 100.5 239.65 96.5 L237.45 94.9 Q222.15 82.75 224.15 69.1 L224.15 68.65 Q225.25 60.45 232.35 54.45 L237.25 52.0 Q243.65 50.3 250.1 49.95 L253.6 49.8 Q259.85 49.9 266.25 51.15 279.75 53.9 290.2 60.5 L293.05 62.15 M231.45 66.5 L224.15 68.65 231.45 66.5 M301.95 76.25 L297.95 71.6 301.95 76.25 M270.0 84.55 L272.9 80.95 270.0 84.55 M287.95 83.25 L287.95 77.35 287.95 83.25 M232.6 70.15 L238.35 70.05 232.6 70.15 M250.1 79.35 L254.75 76.95 250.1 79.35 M239.2 91.7 L237.45 94.9 239.2 91.7" fill="#bf0000" fill-rule="evenodd" stroke="none"/>
    <path d="M232.35 54.45 Q225.25 60.45 224.15 68.65 L223.95 68.6 224.15 69.1 Q222.15 82.75 237.45 94.9 L234.55 101.2 237.45 94.9 239.65 96.5 Q245.0 100.5 252.3 104.05 L234.55 101.4 234.55 101.2 Q217.05 93.8 207.3 82.2 L208.4 76.8 Q214.85 72.1 223.95 68.6 214.85 72.1 208.4 76.8 L210.85 66.6 Q213.5 64.35 216.85 62.1 L220.4 59.9 Q226.8 55.7 233.7 53.3 233.0 53.75 232.35 54.45" fill="#990000" fill-rule="evenodd" stroke="none"/>
    <path d="M296.15 100.8 L299.25 99.25 310.1 88.95 307.25 75.7 Q319.0 90.25 317.9 99.6 316.55 108.45 301.7 113.2 L296.15 100.8 301.7 113.2 298.6 114.05 297.7 114.25 297.7 114.05 284.2 113.1 284.2 112.85 Q284.0 112.85 283.75 113.1 265.35 110.45 252.3 104.05 L282.45 107.35 282.65 107.35 284.2 112.85 282.65 107.35 282.45 106.9 Q282.65 106.65 282.85 106.7 292.2 104.6 296.15 100.8" fill="#ffd83c" fill-rule="evenodd" stroke="none"/>
    <path d="M283.75 113.1 L284.2 113.1 285.3 116.5 284.2 113.1 297.7 114.05 297.7 114.25 Q291.75 115.75 285.3 116.5 271.15 117.85 254.3 115.75 241.0 113.9 229.9 110.5 L234.55 101.4 229.9 110.5 Q220.4 107.35 212.65 103.1 199.55 95.75 197.55 88.25 196.9 85.9 197.35 83.9 198.25 76.15 210.85 66.6 L208.4 76.8 Q201.55 81.9 197.55 88.25 201.55 81.9 208.4 76.8 L207.3 82.2 Q217.05 93.8 234.55 101.2 L234.55 101.4 252.3 104.05 Q265.35 110.45 283.75 113.1" fill="#ffac00" fill-rule="evenodd" stroke="none"/>
    <path d="M237.25 52.0 L232.35 54.45 M224.15 68.65 L231.45 66.5 M287.95 77.35 L287.95 83.25 M272.9 80.95 L270.0 84.55 M296.15 100.8 L301.7 113.2 M284.2 113.1 L284.2 112.85 282.65 107.35 282.45 106.9 Q282.65 106.65 282.85 106.7 M285.3 116.5 L284.2 113.1 M296.15 100.8 L291.95 90.9 M234.55 101.2 L237.45 94.9 239.2 91.7 M223.95 68.6 Q214.85 72.1 208.4 76.8 201.55 81.9 197.55 88.25 M210.85 66.6 Q213.5 64.35 216.85 62.1 L220.4 59.9 Q226.8 55.7 233.7 53.3 M224.15 68.65 L223.95 68.6 M254.75 76.95 L250.1 79.35 M238.35 70.05 L232.6 70.15 M234.55 101.4 L229.9 110.5 M234.55 101.4 L234.55 101.2" fill="none" stroke="#660000" stroke-linecap="round" stroke-linejoin="round" stroke-width="0.25"/>
    <path d="M293.05 62.15 L290.2 60.5 M253.6 49.8 L250.1 49.95 M297.95 71.6 L301.95 76.25" fill="none" stroke="#660000" stroke-linecap="round" stroke-linejoin="round" stroke-width="0.25"/>
  </g>
</svg>
