<?xml version="1.0" encoding="UTF-8" standalone="no"?>
<svg xmlns:xlink="http://www.w3.org/1999/xlink" height="171.9px" width="245.75px" xmlns="http://www.w3.org/2000/svg">
  <g transform="matrix(1.0, 0.0, 0.0, 1.0, -152.65, -114.0)">
    <path d="M339.45 247.3 L339.3 247.3 339.15 247.3 339.45 247.3" fill="#996600" fill-rule="evenodd" stroke="none"/>
    <path d="M253.2 216.15 L260.35 215.2 Q272.0 222.0 291.0 227.2 281.4 221.2 267.15 214.85 L271.7 215.0 Q272.65 215.2 273.3 215.0 282.25 221.65 304.1 229.1 L307.35 228.5 Q345.3 240.95 387.3 250.85 L382.75 251.35 Q380.8 251.8 380.3 250.7 368.5 248.6 357.6 245.8 350.5 243.9 343.85 241.6 L341.1 240.65 Q335.25 240.45 329.9 242.75 L329.9 243.9 339.15 247.3 Q291.8 233.5 253.2 216.15 M339.3 247.3 L339.15 247.3 339.3 247.3" fill="#715b3e" fill-rule="evenodd" stroke="none"/>
    <path d="M248.85 216.8 L253.2 216.15 Q291.8 233.5 339.15 247.3 L335.25 247.6 Q311.25 242.25 291.3 233.65 L289.35 235.3 Q287.75 235.95 285.65 236.1 269.4 229.6 253.7 221.5 L248.85 218.9 Q247.2 218.25 248.85 216.8 M260.35 215.2 L267.15 214.85 Q281.4 221.2 291.0 227.2 272.0 222.0 260.35 215.2 M340.6 234.8 Q368.3 243.7 398.3 251.35 L387.3 250.85 Q345.3 240.95 307.35 228.5 L309.0 228.0 335.4 236.1 340.6 234.8" fill="#8a704d" fill-rule="evenodd" stroke="none"/>
    <path d="M318.05 254.1 Q278.15 242.4 242.85 224.25 L243.0 223.95 Q244.45 220.7 247.35 219.7 L253.7 221.5 Q269.4 229.6 285.65 236.1 L285.65 236.25 285.65 238.2 287.1 238.85 287.1 240.15 318.05 251.5 318.05 254.1" fill="#53432d" fill-rule="evenodd" stroke="none"/>
    <path d="M243.0 223.95 L245.25 218.4 244.95 219.25 Q247.55 217.15 248.85 216.8 247.2 218.25 248.85 218.9 L253.7 221.5 247.35 219.7 Q244.45 220.7 243.0 223.95" fill="#a69277" fill-rule="evenodd" stroke="none"/>
    <path d="M392.3 259.1 L368.95 262.05 Q376.45 258.15 386.95 256.55 392.0 257.15 392.3 259.1 M284.0 215.35 L285.65 215.35 288.55 216.95 286.75 217.3 284.0 215.35 M320.5 228.0 L324.2 229.1 322.6 229.45 334.25 232.7 335.9 232.7 340.45 234.0 339.45 234.5 337.85 234.8 323.25 230.25 321.15 230.9 310.45 227.5 308.65 227.5 302.15 225.7 301.2 226.05 306.4 227.65 305.6 227.85 304.45 228.15 Q299.9 226.55 295.5 224.75 L297.45 224.1 291.3 221.5 289.2 222.15 Q284.15 219.7 279.45 217.15 L282.4 216.5 Q284.5 218.1 286.75 219.55 L290.8 219.05 293.6 221.2 296.65 220.55 303.3 223.6 301.85 224.1 Q305.75 225.25 309.45 226.55 L312.05 226.2 318.85 228.8 Q319.7 228.3 320.5 228.0 M374.8 251.35 L366.55 249.05 369.15 249.25 376.25 251.2 374.8 251.35 M368.8 252.45 L364.9 253.45 356.5 250.55 354.7 251.5 362.0 254.1 360.2 254.75 359.25 254.9 348.85 252.3 346.25 252.95 353.4 255.55 350.65 255.7 Q341.25 253.95 331.5 251.5 L330.7 251.2 Q316.6 247.45 301.85 242.4 293.75 239.5 285.65 236.25 L285.65 236.1 Q287.75 235.95 289.35 235.3 L304.1 240.8 305.1 240.15 313.7 243.7 313.7 244.55 Q318.2 246.0 322.75 247.6 L325.05 246.95 341.9 251.65 345.3 250.85 341.55 249.55 346.45 248.9 349.85 250.55 352.45 249.55 339.95 244.85 344.15 243.9 338.0 242.25 343.85 241.6 Q350.5 243.9 357.6 245.8 L354.85 246.45 362.65 248.9 358.6 249.25 368.8 252.45 M355.35 247.95 L349.05 245.0 346.6 245.5 354.85 248.75 355.35 247.95" fill="#786336" fill-rule="evenodd" stroke="none"/>
    <path d="M350.15 262.35 L333.45 258.3 333.45 257.8 327.65 256.2 327.65 255.05 320.15 252.95 320.35 252.3 329.4 254.25 329.9 253.75 325.7 252.45 326.8 251.2 317.25 248.25 316.6 248.9 300.4 243.55 301.85 242.4 Q316.6 247.45 330.7 251.2 L331.5 251.5 Q340.75 255.25 353.25 257.8 L354.55 258.95 342.55 257.5 343.2 258.95 351.8 260.4 350.15 262.35 M273.3 215.0 L274.45 214.05 279.45 217.15 Q284.15 219.7 289.2 222.15 L295.5 224.75 Q299.9 226.55 304.45 228.15 L305.6 227.85 306.4 227.65 308.65 227.5 310.45 227.5 321.15 230.9 335.75 235.3 337.85 234.8 339.45 234.5 340.6 234.8 335.4 236.1 309.0 228.0 307.35 228.5 304.1 229.1 Q282.25 221.65 273.3 215.0 M329.9 242.75 L341.75 247.1 339.45 247.3 339.15 247.3 329.9 243.9 329.9 242.75 M332.65 254.25 L339.6 256.35 340.6 255.55 332.65 253.6 332.65 254.25" fill="#68552f" fill-rule="evenodd" stroke="none"/>
    <path d="M398.3 251.35 L398.3 256.7 Q398.15 257.5 397.5 258.0 396.35 258.65 394.25 258.8 L392.3 259.1 Q392.0 257.15 386.95 256.55 376.45 258.15 368.95 262.05 L362.3 262.85 361.2 263.0 356.0 263.5 350.15 262.35 351.8 260.4 343.2 258.95 342.55 257.5 354.55 258.95 356.0 259.95 356.0 263.5 357.6 257.8 358.6 256.7 Q367.5 252.3 378.05 251.0 L380.3 250.7 378.05 251.0 376.25 251.2 369.15 249.25 366.55 249.05 374.8 251.35 368.8 252.45 358.6 249.25 362.65 248.9 354.85 246.45 357.6 245.8 Q368.5 248.6 380.3 250.7 380.8 251.8 382.75 251.35 L387.3 250.85 398.3 251.35 M333.45 258.3 L320.35 254.9 Q319.85 253.75 320.15 252.95 L327.65 255.05 327.65 256.2 333.45 257.8 333.45 258.3 M274.45 214.05 L284.0 215.35 286.75 217.3 288.55 216.95 285.65 215.35 286.75 215.5 Q302.0 222.5 320.5 228.0 319.7 228.3 318.85 228.8 L312.05 226.2 309.45 226.55 Q305.75 225.25 301.85 224.1 L303.3 223.6 296.65 220.55 293.6 221.2 290.8 219.05 286.75 219.55 Q284.5 218.1 282.4 216.5 L279.45 217.15 274.45 214.05 M324.2 229.1 L341.55 233.5 Q340.9 233.65 340.45 234.0 L335.9 232.7 334.25 232.7 322.6 229.45 324.2 229.1 M343.85 241.6 L338.0 242.25 344.15 243.9 339.95 244.85 352.45 249.55 349.85 250.55 346.45 248.9 341.55 249.55 345.3 250.85 341.9 251.65 325.05 246.95 322.75 247.6 Q318.2 246.0 313.7 244.55 L313.7 243.7 305.1 240.15 304.1 240.8 289.35 235.3 291.3 233.65 Q311.25 242.25 335.25 247.6 L339.15 247.3 339.3 247.3 339.45 247.3 341.75 247.1 329.9 242.75 Q335.25 240.45 341.1 240.65 L343.85 241.6 M285.65 236.25 Q293.75 239.5 301.85 242.4 L300.4 243.55 316.6 248.9 317.25 248.25 326.8 251.2 325.7 252.45 329.9 253.75 329.4 254.25 320.35 252.3 Q320.65 251.8 321.3 251.35 303.3 246.0 287.1 238.85 L285.65 238.2 285.65 236.25 M353.4 255.55 L346.25 252.95 348.85 252.3 359.25 254.9 355.35 255.4 353.4 255.55 M362.0 254.1 L354.7 251.5 356.5 250.55 364.9 253.45 362.0 254.1 M397.5 258.0 Q395.4 255.7 386.95 254.6 371.9 255.4 362.3 262.85 371.9 255.4 386.95 254.6 395.4 255.7 397.5 258.0 M289.2 222.15 L291.3 221.5 297.45 224.1 295.5 224.75 289.2 222.15 M306.4 227.65 L301.2 226.05 302.15 225.7 308.65 227.5 306.4 227.65 M321.15 230.9 L323.25 230.25 337.85 234.8 335.75 235.3 321.15 230.9 M332.65 254.25 L332.65 253.6 340.6 255.55 339.6 256.35 332.65 254.25 M355.35 247.95 L354.85 248.75 346.6 245.5 349.05 245.0 355.35 247.95" fill="#8e7540" fill-rule="evenodd" stroke="none"/>
    <path d="M378.05 251.0 Q367.5 252.3 358.6 256.7 L357.6 257.8 356.0 263.5 356.0 259.95 354.55 258.95 353.25 257.8 Q340.75 255.25 331.5 251.5 341.25 253.95 350.65 255.7 L353.4 255.55 355.35 255.4 359.25 254.9 360.2 254.75 362.0 254.1 364.9 253.45 368.8 252.45 374.8 251.35 376.25 251.2 378.05 251.0" fill="#b99c62" fill-rule="evenodd" stroke="none"/>
    <path d="M320.35 254.9 L318.05 254.1 318.05 251.5 287.1 240.15 287.1 238.85 Q303.3 246.0 321.3 251.35 320.65 251.8 320.35 252.3 L320.15 252.95 Q319.85 253.75 320.35 254.9" fill="#362c1d" fill-rule="evenodd" stroke="none"/>
    <path d="M398.3 251.35 L398.3 256.7 Q398.15 257.5 397.5 258.0 396.35 258.65 394.25 258.8 L392.3 259.1 368.95 262.05 362.3 262.85 M361.2 263.0 L356.0 263.5 M242.85 224.25 L243.0 223.95 M244.95 219.25 Q247.55 217.15 248.85 216.8 L253.2 216.15 260.35 215.2 267.15 214.85 271.7 215.0 Q272.65 215.2 273.3 215.0 L274.45 214.05 284.0 215.35 285.65 215.35 286.75 215.5 Q302.0 222.5 320.5 228.0 L324.2 229.1 341.55 233.5 Q340.9 233.65 340.45 234.0 L339.45 234.5 340.6 234.8 Q368.3 243.7 398.3 251.35 M285.65 236.1 L285.65 236.25" fill="none" stroke="#000000" stroke-linecap="round" stroke-linejoin="round" stroke-opacity="0.36078432" stroke-width="0.05"/>
    <path d="M356.0 263.5 L350.15 262.35 333.45 258.3 320.35 254.9 318.05 254.1 Q278.15 242.4 242.85 224.25 M357.6 245.8 Q350.5 243.9 343.85 241.6 L341.1 240.65 Q335.25 240.45 329.9 242.75 L341.75 247.1 339.45 247.3 339.3 247.3 339.15 247.3 335.25 247.6 Q311.25 242.25 291.3 233.65 L289.35 235.3 Q287.75 235.95 285.65 236.1 M380.3 250.7 Q368.5 248.6 357.6 245.8 M285.65 236.25 L285.65 238.2 287.1 238.85 Q303.3 246.0 321.3 251.35 320.65 251.8 320.35 252.3 L320.15 252.95 Q319.85 253.75 320.35 254.9" fill="none" stroke="#000000" stroke-linecap="round" stroke-linejoin="round" stroke-opacity="0.36078432" stroke-width="0.05"/>
    <path d="M362.3 262.85 L361.2 263.0 M362.3 262.85 Q371.9 255.4 386.95 254.6 395.4 255.7 397.5 258.0 M253.7 221.5 L247.35 219.7 Q244.45 220.7 243.0 223.95 M339.15 247.3 Q291.8 233.5 253.2 216.15 M340.6 234.8 L335.4 236.1 309.0 228.0 307.35 228.5 Q345.3 240.95 387.3 250.85 M339.15 247.3 L329.9 243.9 329.9 242.75 M339.15 247.3 L339.45 247.3 M307.35 228.5 L304.1 229.1 Q282.25 221.65 273.3 215.0 M267.15 214.85 Q281.4 221.2 291.0 227.2 272.0 222.0 260.35 215.2" fill="none" stroke="#2f1d1a" stroke-linecap="round" stroke-linejoin="round" stroke-opacity="0.2784314" stroke-width="0.05"/>
    <path d="M398.3 251.35 L387.3 250.85 382.75 251.35 Q380.8 251.8 380.3 250.7 L378.05 251.0 376.25 251.2 374.8 251.35 368.8 252.45 364.9 253.45 362.0 254.1 360.2 254.75 359.25 254.9 355.35 255.4 353.4 255.55 350.65 255.7 Q341.25 253.95 331.5 251.5 L330.7 251.2 Q316.6 247.45 301.85 242.4 293.75 239.5 285.65 236.25 M279.45 217.15 Q284.15 219.7 289.2 222.15 L295.5 224.75 Q299.9 226.55 304.45 228.15 L305.6 227.85 306.4 227.65 308.65 227.5 310.45 227.5 321.15 230.9 335.75 235.3 337.85 234.8 339.45 234.5 M253.7 221.5 Q269.4 229.6 285.65 236.1 M274.45 214.05 L279.45 217.15" fill="none" stroke="#b99c62" stroke-linecap="round" stroke-linejoin="round" stroke-opacity="0.49803922" stroke-width="0.25"/>
    <path d="M398.3 256.7 Q398.15 257.5 397.5 258.0 396.35 258.65 394.25 258.8 L356.0 263.5 350.15 262.35 333.45 258.3 320.35 254.9 318.05 254.1 Q278.15 242.4 242.85 224.25 L245.25 218.4 244.95 219.25 Q247.55 217.15 248.85 216.8 L253.2 216.15 260.35 215.2 267.15 214.85 271.7 215.0 Q272.65 215.2 273.3 215.0 L274.45 214.05 284.0 215.35 285.65 215.35 286.75 215.5 Q302.0 222.5 320.5 228.0 L324.2 229.1 341.55 233.5 339.45 234.5 340.6 234.8 Q368.3 243.7 398.3 251.35 L398.3 256.7" fill="#000000" fill-opacity="0.3019608" fill-rule="evenodd" stroke="none"/>
    <path d="M302.6 255.15 L302.5 255.15 302.35 255.15 302.25 255.0 302.6 255.15 M302.5 255.15 L302.25 255.0 302.5 255.15" fill="#996600" fill-rule="evenodd" stroke="none"/>
    <path d="M214.3 198.0 L219.95 197.7 221.85 197.6 Q232.85 209.9 259.35 222.5 L263.35 220.7 263.45 220.7 Q309.65 241.8 360.95 257.2 L355.35 258.5 Q352.95 259.85 352.45 257.5 338.0 254.8 324.8 250.15 316.1 247.1 308.0 243.25 L304.6 241.6 Q297.45 242.05 290.85 246.95 L290.85 249.25 302.25 255.0 Q244.4 232.65 197.25 201.8 201.7 200.3 206.05 199.3 220.4 211.65 243.5 219.9 231.85 209.2 214.3 198.0 M302.25 255.15 L302.25 255.0 302.35 255.15 302.25 255.15" fill="#715b3e" fill-rule="evenodd" stroke="none"/>
    <path d="M206.05 199.3 L214.3 198.0 Q231.85 209.2 243.5 219.9 220.4 211.65 206.05 199.3 M303.9 229.95 Q337.75 244.9 374.35 256.85 367.9 255.95 360.95 257.2 309.65 241.8 263.45 220.7 L265.35 219.65 297.65 233.2 303.9 229.95 M192.1 203.75 L197.25 201.8 Q244.4 232.65 302.25 255.0 L302.25 255.15 297.5 256.2 Q268.3 248.0 243.8 233.05 242.85 235.0 241.4 236.25 239.55 237.95 236.9 238.55 217.15 227.2 198.0 212.5 L192.1 207.9 Q190.1 206.95 192.1 203.75" fill="#8a704d" fill-rule="evenodd" stroke="none"/>
    <path d="M276.4 271.05 Q227.85 251.95 184.65 219.35 L184.85 218.45 Q186.65 211.95 190.15 209.7 L198.0 212.5 Q217.15 227.2 236.9 238.55 L237.0 238.6 237.0 242.6 238.7 243.75 238.6 246.5 276.4 265.6 276.4 271.05" fill="#53432d" fill-rule="evenodd" stroke="none"/>
    <path d="M184.85 218.45 L187.45 207.9 187.2 209.05 Q190.4 204.45 192.1 203.75 190.1 206.95 192.1 207.9 L198.0 212.5 190.15 209.7 Q186.65 211.95 184.85 218.45" fill="#a69277" fill-rule="evenodd" stroke="none"/>
    <path d="M234.9 197.05 L237.0 197.05 240.55 199.95 238.3 200.6 234.9 197.05 M279.5 218.6 L284.0 220.3 282.05 221.2 296.35 226.4 298.3 226.4 303.8 228.35 302.5 229.4 300.55 230.35 282.9 222.8 280.2 224.1 267.15 218.6 264.95 218.85 257.1 215.85 255.95 216.5 262.2 219.5 261.3 219.8 259.85 220.4 Q254.25 217.9 248.9 214.8 L251.45 213.25 243.8 208.7 241.2 210.0 Q235.15 205.95 229.45 201.1 L232.95 199.65 238.3 205.3 243.3 203.85 246.55 207.55 250.3 205.95 258.4 211.65 256.8 212.75 266.0 216.65 269.1 215.85 277.55 220.2 279.5 218.6 M367.05 273.15 L338.5 281.35 Q347.6 272.8 360.55 268.55 366.75 269.35 367.05 273.15 M236.9 238.55 Q239.55 237.95 241.4 236.25 L259.35 245.85 260.65 244.4 271.05 250.55 271.05 252.15 282.25 257.5 285.0 255.9 305.6 263.65 309.8 261.75 305.1 259.3 311.1 257.5 315.3 260.45 318.4 258.3 303.15 250.2 308.35 247.8 300.7 245.05 308.0 243.25 Q316.1 247.1 324.8 250.15 L321.45 251.85 330.9 255.75 326.0 256.85 338.35 262.4 Q336.05 263.4 333.65 264.55 L323.4 259.6 321.15 261.9 330.15 266.45 Q329.05 267.0 327.95 267.65 L326.65 268.3 314.0 264.0 310.95 265.6 319.7 270.0 316.3 270.8 Q304.75 268.25 292.85 264.25 L291.8 263.9 Q274.6 258.0 256.7 249.15 246.9 244.3 237.0 238.6 L236.9 238.55 M347.6 258.9 L345.65 259.55 335.6 255.9 338.8 255.9 347.6 258.9 M311.25 250.85 L321.3 256.2 321.95 254.75 314.2 249.55 311.25 250.85" fill="#786336" fill-rule="evenodd" stroke="none"/>
    <path d="M221.85 197.6 Q222.4 197.4 223.2 195.4 L229.45 201.1 Q235.15 205.95 241.2 210.0 L248.9 214.8 Q254.25 217.9 259.85 220.4 L261.3 219.8 262.2 219.5 264.95 218.85 267.15 218.6 280.2 224.1 298.1 231.55 300.55 230.35 302.5 229.4 303.9 229.95 297.65 233.2 265.35 219.65 263.45 220.7 263.35 220.7 259.35 222.5 Q232.85 209.9 221.85 197.6 M315.7 284.1 Q305.35 281.25 295.2 277.85 L295.2 276.65 288.05 274.05 288.05 271.8 279.0 268.6 279.3 267.15 290.35 270.15 291.0 269.0 285.8 266.9 287.1 264.3 275.4 259.3 274.6 260.75 255.0 251.65 256.7 249.15 Q274.6 258.0 291.8 263.9 L292.85 264.25 Q304.3 270.7 319.45 274.7 L321.05 276.65 306.3 275.25 307.05 277.95 317.6 280.05 315.7 284.1 M290.85 246.95 L305.4 254.6 302.6 255.15 302.25 255.0 290.85 249.25 290.85 246.95 M303.95 271.45 L294.25 268.55 294.25 269.65 302.85 273.1 303.95 271.45" fill="#68552f" fill-rule="evenodd" stroke="none"/>
    <path d="M223.2 195.4 Q230.25 196.9 234.9 197.05 L238.3 200.6 240.55 199.95 237.0 197.05 238.3 196.95 Q256.8 209.55 279.5 218.6 L277.55 220.2 269.1 215.85 266.0 216.65 256.8 212.75 258.4 211.65 250.3 205.95 246.55 207.55 243.3 203.85 238.3 205.3 232.95 199.65 229.45 201.1 223.2 195.4 M284.0 220.3 Q294.15 224.1 305.1 227.2 L303.8 228.35 298.3 226.4 296.35 226.4 282.05 221.2 284.0 220.3 M374.35 256.85 L374.35 267.75 Q374.25 269.3 373.35 270.4 372.1 271.8 369.45 272.45 L367.05 273.15 Q366.75 269.35 360.55 268.55 347.6 272.8 338.5 281.35 L330.45 283.7 329.15 284.1 322.75 285.9 324.8 274.2 326.0 271.8 Q336.8 262.25 349.6 258.3 L347.6 258.9 338.8 255.9 335.6 255.9 345.65 259.55 Q342.05 260.75 338.35 262.4 L326.0 256.85 330.9 255.75 321.45 251.85 324.8 250.15 Q338.0 254.8 352.45 257.5 352.95 259.85 355.35 258.5 L360.95 257.2 Q367.9 255.95 374.35 256.85 M322.7 285.9 L315.7 284.1 317.6 280.05 307.05 277.95 306.3 275.25 321.05 276.65 322.7 278.6 322.7 285.9 M295.2 277.85 Q287.15 275.2 279.25 272.2 278.75 270.25 279.0 268.6 L288.05 271.8 288.05 274.05 295.2 276.65 295.2 277.85 M241.4 236.25 Q242.85 235.0 243.8 233.05 268.3 248.0 297.5 256.2 L302.25 255.15 302.35 255.15 302.5 255.15 302.6 255.15 305.4 254.6 290.85 246.95 Q297.45 242.05 304.6 241.6 L308.0 243.25 300.7 245.05 308.35 247.8 303.15 250.2 318.4 258.3 315.3 260.45 311.1 257.5 305.1 259.3 309.8 261.75 305.6 263.65 285.0 255.9 282.25 257.5 271.05 252.15 271.05 250.55 260.65 244.4 259.35 245.85 241.4 236.25 M262.2 219.5 L255.95 216.5 257.1 215.85 264.95 218.85 262.2 219.5 M280.2 224.1 L282.9 222.8 300.55 230.35 298.1 231.55 280.2 224.1 M241.2 210.0 L243.8 208.7 251.45 213.25 248.9 214.8 241.2 210.0 M333.65 264.55 Q331.9 265.45 330.15 266.45 L321.15 261.9 323.4 259.6 333.65 264.55 M326.65 268.3 Q324.55 269.2 321.95 269.5 L319.7 270.0 310.95 265.6 314.0 264.0 326.65 268.3 M352.45 257.5 L349.6 258.3 352.45 257.5 M373.35 270.4 Q370.8 266.15 360.55 264.65 342.1 267.8 330.45 283.7 342.1 267.8 360.55 264.65 370.8 266.15 373.35 270.4 M311.25 250.85 L314.2 249.55 321.95 254.75 321.3 256.2 311.25 250.85 M303.95 271.45 L302.85 273.1 294.25 269.65 294.25 268.55 303.95 271.45 M279.3 267.15 Q279.7 266.1 280.45 265.15 258.45 256.4 238.7 243.75 L237.0 242.6 237.0 238.6 Q246.9 244.3 256.7 249.15 L255.0 251.65 274.6 260.75 275.4 259.3 287.1 264.3 285.8 266.9 291.0 269.0 290.35 270.15 279.3 267.15" fill="#8e7540" fill-rule="evenodd" stroke="none"/>
    <path d="M322.75 285.9 L322.7 285.9 322.7 278.6 321.05 276.65 319.45 274.7 Q304.3 270.7 292.85 264.25 304.75 268.25 316.3 270.8 L319.7 270.0 321.95 269.5 Q324.55 269.2 326.65 268.3 L327.95 267.65 Q329.05 267.0 330.15 266.45 331.9 265.45 333.65 264.55 336.05 263.4 338.35 262.4 342.05 260.75 345.65 259.55 L347.6 258.9 349.6 258.3 Q336.8 262.25 326.0 271.8 L324.8 274.2 322.75 285.9" fill="#b99c62" fill-rule="evenodd" stroke="none"/>
    <path d="M279.25 272.2 L276.4 271.05 276.4 265.6 238.6 246.5 238.7 243.75 Q258.45 256.4 280.45 265.15 279.7 266.1 279.3 267.15 L279.0 268.6 Q278.75 270.25 279.25 272.2" fill="#362c1d" fill-rule="evenodd" stroke="none"/>
    <path d="M206.05 199.3 L214.3 198.0 219.95 197.7 221.85 197.6 Q222.4 197.4 223.2 195.4 230.25 196.9 234.9 197.05 L237.0 197.05 238.3 196.95 Q256.8 209.55 279.5 218.6 L284.0 220.3 Q294.15 224.1 305.1 227.2 L303.8 228.35 302.5 229.4 303.9 229.95 Q337.75 244.9 374.35 256.85 L374.35 267.75 Q374.25 269.3 373.35 270.4 372.1 271.8 369.45 272.45 L367.05 273.15 338.5 281.35 330.45 283.7 M329.15 284.1 L322.75 285.9 322.7 285.9 M184.65 219.35 L184.85 218.45 M187.2 209.05 Q190.4 204.45 192.1 203.75 L197.25 201.8 Q201.7 200.3 206.05 199.3 M236.9 238.55 L237.0 238.6" fill="none" stroke="#000000" stroke-linecap="round" stroke-linejoin="round" stroke-opacity="0.36078432" stroke-width="0.05"/>
    <path d="M322.7 285.9 L315.7 284.1 Q305.35 281.25 295.2 277.85 287.15 275.2 279.25 272.2 L276.4 271.05 Q227.85 251.95 184.65 219.35 M236.9 238.55 Q239.55 237.95 241.4 236.25 242.85 235.0 243.8 233.05 268.3 248.0 297.5 256.2 L302.25 255.15 302.35 255.15 302.5 255.15 302.6 255.15 305.4 254.6 290.85 246.95 Q297.45 242.05 304.6 241.6 L308.0 243.25 Q316.1 247.1 324.8 250.15 338.0 254.8 352.45 257.5 M238.7 243.75 Q258.45 256.4 280.45 265.15 279.7 266.1 279.3 267.15 L279.0 268.6 Q278.75 270.25 279.25 272.2 M237.0 238.6 L237.0 242.6 238.7 243.75" fill="none" stroke="#000000" stroke-linecap="round" stroke-linejoin="round" stroke-opacity="0.36078432" stroke-width="0.05"/>
    <path d="M330.45 283.7 L329.15 284.1 M206.05 199.3 Q220.4 211.65 243.5 219.9 231.85 209.2 214.3 198.0 M302.25 255.0 Q244.4 232.65 197.25 201.8 M198.0 212.5 L190.15 209.7 Q186.65 211.95 184.85 218.45 M263.45 220.7 L263.35 220.7 259.35 222.5 Q232.85 209.9 221.85 197.6 M303.9 229.95 L297.65 233.2 265.35 219.65 263.45 220.7 Q309.65 241.8 360.95 257.2 M330.45 283.7 Q342.1 267.8 360.55 264.65 370.8 266.15 373.35 270.4 M302.25 255.0 L290.85 249.25 290.85 246.95 M302.6 255.15 L302.25 255.0 302.5 255.15" fill="none" stroke="#2f1d1a" stroke-linecap="round" stroke-linejoin="round" stroke-opacity="0.2784314" stroke-width="0.05"/>
    <path d="M198.0 212.5 Q217.15 227.2 236.9 238.55 M360.95 257.2 Q367.9 255.95 374.35 256.85 M345.65 259.55 L347.6 258.9 349.6 258.3 M345.65 259.55 Q342.05 260.75 338.35 262.4 336.05 263.4 333.65 264.55 331.9 265.45 330.15 266.45 329.05 267.0 327.95 267.65 L326.65 268.3 Q324.55 269.2 321.95 269.5 L319.7 270.0 316.3 270.8 Q304.75 268.25 292.85 264.25 M352.45 257.5 Q352.95 259.85 355.35 258.5 L360.95 257.2 M256.7 249.15 Q246.9 244.3 237.0 238.6 M291.8 263.9 Q274.6 258.0 256.7 249.15" fill="none" stroke="#b99c62" stroke-linecap="round" stroke-linejoin="round" stroke-opacity="0.49803922" stroke-width="0.25"/>
    <path d="M223.2 195.4 L229.45 201.1 Q235.15 205.95 241.2 210.0 L248.9 214.8 Q254.25 217.9 259.85 220.4 L261.3 219.8 262.2 219.5 264.95 218.85 267.15 218.6 280.2 224.1 298.1 231.55 300.55 230.35 302.5 229.4 M349.6 258.3 L352.45 257.5 M292.85 264.25 L291.8 263.9" fill="none" stroke="#b99c62" stroke-linecap="round" stroke-linejoin="round" stroke-opacity="0.49803922" stroke-width="0.25"/>
    <path d="M249.1 264.45 L248.95 264.45 249.3 264.45 249.1 264.45" fill="#996600" fill-rule="evenodd" stroke="none"/>
    <path d="M163.0 233.35 L170.15 232.35 Q181.85 239.15 200.8 244.35 191.25 238.35 176.95 232.05 L181.5 232.2 183.15 232.2 Q192.05 238.85 213.95 246.3 L217.2 245.65 Q255.1 258.15 297.1 268.05 L292.55 268.5 Q290.65 269.0 290.15 267.85 278.3 265.75 267.45 263.0 260.3 261.05 253.65 258.8 L250.9 257.8 Q245.05 257.65 239.7 259.9 L239.7 261.05 248.95 264.45 Q201.6 250.7 163.0 233.35 M249.1 264.45 L248.95 264.45 249.1 264.45" fill="#715b3e" fill-rule="evenodd" stroke="none"/>
    <path d="M158.65 234.0 L163.0 233.35 Q201.6 250.7 248.95 264.45 L245.05 264.8 Q221.05 259.45 201.15 250.85 L199.2 252.45 Q197.55 253.1 195.45 253.25 179.25 246.8 163.5 238.7 L158.65 236.1 Q157.0 235.45 158.65 234.0 M170.15 232.35 L176.95 232.05 Q191.25 238.35 200.8 244.35 181.85 239.15 170.15 232.35 M250.4 252.0 Q278.15 260.9 308.15 268.5 L297.1 268.05 Q255.1 258.15 217.2 245.65 L218.8 245.15 245.25 253.25 250.4 252.0" fill="#8a704d" fill-rule="evenodd" stroke="none"/>
    <path d="M152.65 241.45 L152.8 241.1 Q154.25 237.85 157.2 236.9 L163.5 238.7 Q179.25 246.8 195.45 253.25 L195.45 253.45 195.45 255.4 196.9 256.05 196.9 257.35 227.9 268.7 227.9 271.25 Q188.0 259.6 152.65 241.45" fill="#53432d" fill-rule="evenodd" stroke="none"/>
    <path d="M152.8 241.1 L155.1 235.6 154.75 236.4 Q157.35 234.3 158.65 234.0 157.0 235.45 158.65 236.1 L163.5 238.7 157.2 236.9 Q154.25 237.85 152.8 241.1" fill="#a69277" fill-rule="evenodd" stroke="none"/>
    <path d="M193.85 232.5 L195.45 232.5 198.35 234.15 196.6 234.45 193.85 232.5 M230.3 245.15 L234.05 246.3 232.4 246.65 244.1 249.85 245.7 249.85 250.25 251.15 249.3 251.65 247.65 252.0 233.05 247.45 230.95 248.1 220.25 244.7 218.45 244.7 212.0 242.9 211.0 243.2 216.2 244.85 215.4 245.0 214.25 245.35 205.35 241.9 207.3 241.3 201.15 238.7 199.0 239.35 Q194.0 236.9 189.3 234.3 L192.2 233.65 196.6 236.75 200.65 236.25 203.4 238.35 206.5 237.7 213.1 240.8 211.65 241.3 219.3 243.7 221.9 243.4 228.7 246.0 Q229.5 245.5 230.3 245.15 M302.15 276.3 L278.8 279.2 Q286.25 275.3 296.8 273.7 301.8 274.35 302.15 276.3 M211.65 259.6 Q203.55 256.7 195.45 253.45 L195.45 253.25 Q197.55 253.1 199.2 252.45 L213.95 258.0 Q214.4 257.65 214.9 257.35 L223.5 260.9 223.5 261.7 232.6 264.8 234.85 264.15 251.7 268.85 255.1 268.05 251.4 266.75 256.25 266.1 259.65 267.7 262.25 266.75 249.75 262.05 254.0 261.05 247.8 259.45 253.65 258.8 Q260.3 261.05 267.45 263.0 L264.7 263.65 272.45 266.1 268.4 266.4 278.65 269.65 274.75 270.6 266.3 267.7 264.5 268.7 271.8 271.25 270.05 271.9 269.05 272.1 258.7 269.5 256.1 270.15 263.2 272.75 260.45 272.9 Q251.05 271.1 241.35 268.7 L240.55 268.35 Q226.4 264.6 211.65 259.6 M286.1 268.35 L284.65 268.5 276.35 266.25 278.95 266.4 286.1 268.35 M265.15 265.1 L258.85 262.2 256.4 262.7 264.7 265.9 Q264.85 265.45 265.15 265.1" fill="#786336" fill-rule="evenodd" stroke="none"/>
    <path d="M183.15 232.2 L184.25 231.2 189.3 234.3 Q194.0 236.9 199.0 239.35 L205.35 241.9 214.25 245.35 215.4 245.0 216.2 244.85 218.45 244.7 220.25 244.7 230.95 248.1 245.55 252.45 247.65 252.0 249.3 251.65 250.4 252.0 245.25 253.25 218.8 245.15 217.2 245.65 213.95 246.3 Q192.05 238.85 183.15 232.2 M260.0 279.55 L243.3 275.5 243.3 275.0 237.45 273.4 237.45 272.25 230.0 270.15 Q230.0 269.8 230.15 269.5 L239.25 271.45 239.7 270.95 235.5 269.65 236.65 268.35 227.05 265.45 226.4 266.1 Q218.3 263.35 210.2 260.75 L211.65 259.6 Q226.4 264.6 240.55 268.35 L241.35 268.7 Q250.6 272.4 263.05 275.0 L264.35 276.15 252.35 274.7 253.0 276.15 261.6 277.6 260.0 279.55 M248.95 264.45 L239.7 261.05 239.7 259.9 251.55 264.3 249.3 264.45 248.95 264.45 M242.45 271.45 L249.45 273.55 250.4 272.75 242.45 270.8 242.45 271.45" fill="#68552f" fill-rule="evenodd" stroke="none"/>
    <path d="M184.25 231.2 L193.85 232.5 196.6 234.45 198.35 234.15 195.45 232.5 196.6 232.7 Q211.85 239.65 230.3 245.15 229.5 245.5 228.7 246.0 L221.9 243.4 219.3 243.7 211.65 241.3 213.1 240.8 206.5 237.7 203.4 238.35 200.65 236.25 196.6 236.75 192.2 233.65 189.3 234.3 184.25 231.2 M234.05 246.3 L251.4 250.7 Q250.75 250.85 250.25 251.15 L245.7 249.85 244.1 249.85 232.4 246.65 234.05 246.3 M308.15 268.5 L308.15 273.85 Q307.95 274.7 307.35 275.15 306.2 275.8 304.1 275.95 L302.15 276.3 Q301.8 274.35 296.8 273.7 286.25 275.3 278.8 279.2 L272.15 280.05 271.0 280.2 265.8 280.7 260.0 279.55 261.6 277.6 253.0 276.15 252.35 274.7 264.35 276.15 265.8 277.1 265.8 280.7 267.45 275.0 268.4 273.85 Q277.35 269.5 287.85 268.2 L286.1 268.35 278.95 266.4 276.35 266.25 284.65 268.5 278.65 269.65 268.4 266.4 272.45 266.1 264.7 263.65 267.45 263.0 Q278.3 265.75 290.15 267.85 290.65 269.0 292.55 268.5 L297.1 268.05 308.15 268.5 M243.3 275.5 L230.15 272.1 Q229.65 270.95 230.0 270.15 L237.45 272.25 237.45 273.4 243.3 275.0 243.3 275.5 M199.0 239.35 L201.15 238.7 207.3 241.3 205.35 241.9 199.0 239.35 M216.2 244.85 L211.0 243.2 212.0 242.9 218.45 244.7 216.2 244.85 M230.95 248.1 L233.05 247.45 247.65 252.0 245.55 252.45 230.95 248.1 M199.2 252.45 L201.15 250.85 Q221.05 259.45 245.05 264.8 L248.95 264.45 249.1 264.45 249.3 264.45 251.55 264.3 239.7 259.9 Q245.05 257.65 250.9 257.8 L253.65 258.8 247.8 259.45 254.0 261.05 249.75 262.05 262.25 266.75 259.65 267.7 256.25 266.1 251.4 266.75 255.1 268.05 251.7 268.85 234.85 264.15 232.6 264.8 223.5 261.7 223.5 260.9 214.9 257.35 Q214.4 257.65 213.95 258.0 L199.2 252.45 M196.9 256.05 L195.45 255.4 195.45 253.45 Q203.55 256.7 211.65 259.6 L210.2 260.75 Q218.3 263.35 226.4 266.1 L227.05 265.45 236.65 268.35 235.5 269.65 239.7 270.95 239.25 271.45 230.15 269.5 231.1 268.5 Q213.1 263.15 196.9 256.05 M242.45 271.45 L242.45 270.8 250.4 272.75 249.45 273.55 242.45 271.45 M263.2 272.75 L256.1 270.15 258.7 269.5 269.05 272.1 265.15 272.55 263.2 272.75 M271.8 271.25 L264.5 268.7 266.3 267.7 274.75 270.6 271.8 271.25 M290.15 267.85 L287.85 268.2 290.15 267.85 M265.15 265.1 Q264.85 265.45 264.7 265.9 L256.4 262.7 258.85 262.2 265.15 265.1 M307.35 275.15 Q305.2 272.9 296.8 271.75 281.7 272.55 272.15 280.05 281.7 272.55 296.8 271.75 305.2 272.9 307.35 275.15" fill="#8e7540" fill-rule="evenodd" stroke="none"/>
    <path d="M241.35 268.7 Q251.05 271.1 260.45 272.9 L263.2 272.75 265.15 272.55 269.05 272.1 270.05 271.9 271.8 271.25 274.75 270.6 278.65 269.65 284.65 268.5 286.1 268.35 287.85 268.2 Q277.35 269.5 268.4 273.85 L267.45 275.0 265.8 280.7 265.8 277.1 264.35 276.15 263.05 275.0 Q250.6 272.4 241.35 268.7" fill="#b99c62" fill-rule="evenodd" stroke="none"/>
    <path d="M230.15 272.1 L227.9 271.25 227.9 268.7 196.9 257.35 196.9 256.05 Q213.1 263.15 231.1 268.5 L230.15 269.5 Q230.0 269.8 230.0 270.15 229.65 270.95 230.15 272.1" fill="#362c1d" fill-rule="evenodd" stroke="none"/>
    <path d="M152.65 241.45 L152.8 241.1 M154.75 236.4 Q157.35 234.3 158.65 234.0 L163.0 233.35 170.15 232.35 176.95 232.05 181.5 232.2 183.15 232.2 184.25 231.2 193.85 232.5 195.45 232.5 196.6 232.7 Q211.85 239.65 230.3 245.15 L234.05 246.3 251.4 250.7 Q250.75 250.85 250.25 251.15 L249.3 251.65 250.4 252.0 Q278.15 260.9 308.15 268.5 L308.15 273.85 Q307.95 274.7 307.35 275.15 306.2 275.8 304.1 275.95 L302.15 276.3 278.8 279.2 272.15 280.05 M271.0 280.2 L265.8 280.7 M195.45 253.45 L195.45 253.25" fill="none" stroke="#000000" stroke-linecap="round" stroke-linejoin="round" stroke-opacity="0.36078432" stroke-width="0.05"/>
    <path d="M265.8 280.7 L260.0 279.55 243.3 275.5 230.15 272.1 227.9 271.25 Q188.0 259.6 152.65 241.45 M199.2 252.45 L201.15 250.85 Q221.05 259.45 245.05 264.8 L248.95 264.45 249.1 264.45 249.3 264.45 251.55 264.3 239.7 259.9 Q245.05 257.65 250.9 257.8 L253.65 258.8 Q260.3 261.05 267.45 263.0 278.3 265.75 290.15 267.85 M195.45 253.45 L195.45 255.4 196.9 256.05 Q213.1 263.15 231.1 268.5 L230.15 269.5 Q230.0 269.8 230.0 270.15 229.65 270.95 230.15 272.1 M199.2 252.45 Q197.55 253.1 195.45 253.25" fill="none" stroke="#000000" stroke-linecap="round" stroke-linejoin="round" stroke-opacity="0.36078432" stroke-width="0.05"/>
    <path d="M272.15 280.05 L271.0 280.2 M248.95 264.45 Q201.6 250.7 163.0 233.35 M163.5 238.7 L157.2 236.9 Q154.25 237.85 152.8 241.1 M217.2 245.65 L213.95 246.3 Q192.05 238.85 183.15 232.2 M250.4 252.0 L245.25 253.25 218.8 245.15 217.2 245.65 Q255.1 258.15 297.1 268.05 M176.95 232.05 Q191.25 238.35 200.8 244.35 181.85 239.15 170.15 232.35 M248.95 264.45 L239.7 261.05 239.7 259.9 M248.95 264.45 L249.3 264.45 M272.15 280.05 Q281.7 272.55 296.8 271.75 305.2 272.9 307.35 275.15" fill="none" stroke="#2f1d1a" stroke-linecap="round" stroke-linejoin="round" stroke-opacity="0.2784314" stroke-width="0.05"/>
    <path d="M189.3 234.3 Q194.0 236.9 199.0 239.35 L205.35 241.9 214.25 245.35 215.4 245.0 216.2 244.85 218.45 244.7 220.25 244.7 230.95 248.1 245.55 252.45 247.65 252.0 249.3 251.65 M211.65 259.6 Q203.55 256.7 195.45 253.45 M195.45 253.25 Q179.25 246.8 163.5 238.7 M297.1 268.05 L308.15 268.5 M184.25 231.2 L189.3 234.3 M290.15 267.85 Q290.65 269.0 292.55 268.5 L297.1 268.05 M211.65 259.6 Q226.4 264.6 240.55 268.35 L241.35 268.7 Q251.05 271.1 260.45 272.9 L263.2 272.75 265.15 272.55 269.05 272.1 270.05 271.9 271.8 271.25 274.75 270.6 278.65 269.65 284.65 268.5 286.1 268.35 287.85 268.2 290.15 267.85" fill="none" stroke="#b99c62" stroke-linecap="round" stroke-linejoin="round" stroke-opacity="0.49803922" stroke-width="0.25"/>
    <path d="M155.1 235.6 L154.75 236.4 Q157.35 234.3 158.65 234.0 L163.0 233.35 170.15 232.35 176.95 232.05 181.5 232.2 183.15 232.2 184.25 231.2 193.85 232.5 195.45 232.5 196.6 232.7 Q211.85 239.65 230.3 245.15 L234.05 246.3 251.4 250.7 Q250.25 251.15 249.3 251.65 L250.4 252.0 Q278.15 260.9 308.15 268.5 L308.15 273.85 Q307.95 274.7 307.35 275.15 306.2 275.8 304.1 275.95 L265.8 280.7 260.0 279.55 243.3 275.5 230.15 272.1 227.9 271.25 Q188.0 259.6 152.65 241.45 L155.1 235.6" fill="#000000" fill-opacity="0.14901961" fill-rule="evenodd" stroke="none"/>
    <path d="M235.05 154.85 L235.2 154.85 235.2 155.2 235.35 155.35 235.2 155.2 235.05 154.85 M231.45 151.3 L231.65 151.8 231.45 151.8 231.45 151.3" fill="#996600" fill-rule="evenodd" stroke="none"/>
    <path d="M228.55 129.55 Q206.85 121.45 196.45 130.7 181.7 142.2 186.9 161.2 173.45 149.2 187.85 126.8 203.6 112.05 228.55 129.55" fill="#669900" fill-rule="evenodd" stroke="none"/>
    <path d="M228.55 129.55 L229.05 130.05 229.85 130.7 229.85 131.2 231.45 131.7 Q231.45 133.3 230.5 133.3 L230.2 133.3 230.2 133.45 230.2 133.95 Q228.9 132.8 228.05 132.8 198.25 135.55 186.9 161.2 181.7 142.2 196.45 130.7 206.85 121.45 228.55 129.55 M230.2 133.45 L230.2 133.95 230.2 133.45" fill="#336600" fill-rule="evenodd" stroke="none"/>
    <path d="M244.3 154.2 Q247.05 141.25 253.2 135.25 245.9 149.35 248.8 163.45 251.1 184.2 258.85 199.95 269.25 208.2 274.95 219.7 277.35 225.55 275.9 227.5 279.45 228.15 279.3 223.75 L281.1 225.4 284.15 227.85 290.15 232.35 Q308.35 245.0 288.85 239.0 L278.35 237.7 269.75 225.9 266.5 225.9 274.45 236.75 Q271.35 235.95 268.6 234.8 L262.3 227.2 260.0 220.7 258.05 222.95 251.25 201.25 248.0 183.4 249.95 183.4 248.0 176.25 246.05 176.25 246.05 163.6 244.3 154.2 M231.65 151.8 L235.7 161.05 242.35 169.6 241.7 171.9 235.35 163.15 Q233.75 160.2 233.1 156.8 L232.6 155.5 Q231.45 152.9 231.45 151.8 L231.65 151.8 M258.25 211.15 Q262.95 221.2 268.45 222.15 275.1 221.65 260.65 207.4 L265.85 216.5 Q259.35 214.85 255.95 199.15 253.7 199.8 257.25 208.85 L258.25 211.15" fill="#715b3e" fill-rule="evenodd" stroke="none"/>
    <path d="M230.2 133.45 L230.2 133.3 230.5 133.3 Q231.45 133.3 231.45 131.7 L230.2 131.2 229.85 131.2 229.85 130.7 229.05 130.05 229.35 114.0 234.25 153.4 Q234.4 153.9 235.05 154.85 L235.2 155.2 235.35 155.35 Q237.95 162.3 243.15 167.35 L243.15 162.3 Q243.45 157.95 244.3 154.2 L246.05 163.6 246.05 176.25 248.0 176.25 249.95 183.4 248.0 183.4 251.25 201.25 258.05 222.95 260.0 220.7 262.3 227.2 268.6 234.8 Q261.45 231.55 255.45 226.05 L253.35 220.35 Q245.6 197.85 243.65 174.65 L241.7 171.9 242.35 169.6 235.7 161.05 231.65 151.8 231.45 151.3 231.0 149.85 230.8 145.15 Q230.35 139.95 230.2 133.95 L230.2 133.45 M274.95 219.7 Q277.05 221.85 279.3 223.75 279.45 228.15 275.9 227.5 277.35 225.55 274.95 219.7 M278.35 237.7 L274.45 236.75 266.5 225.9 269.75 225.9 278.35 237.7 M258.25 211.15 L257.25 208.85 Q253.7 199.8 255.95 199.15 259.35 214.85 265.85 216.5 L260.65 207.4 Q275.1 221.65 268.45 222.15 262.95 221.2 258.25 211.15" fill="#8a704d" fill-rule="evenodd" stroke="none"/>
    <path d="M229.05 130.05 L228.55 129.55 Q203.6 112.05 187.85 126.8 173.45 149.2 186.9 161.2 198.25 135.55 228.05 132.8 228.9 132.8 230.2 133.95 L230.2 133.45 230.2 133.3 M230.5 133.3 Q231.45 133.3 231.45 131.7 L229.85 131.2 229.85 130.7 229.05 130.05 229.35 114.0 234.25 153.4 Q234.4 153.9 235.05 154.85 L235.2 155.2 235.35 155.35 M230.2 133.95 L230.2 133.45 M231.45 131.7 L230.2 131.2 M230.2 133.95 Q230.35 139.95 230.8 145.15 L231.0 149.85 231.45 151.3 231.45 151.8 Q231.45 152.9 232.6 155.5 L233.1 156.8" fill="none" stroke="#000000" stroke-linecap="round" stroke-linejoin="round" stroke-opacity="0.36078432" stroke-width="0.05"/>
    <path d="M235.2 154.85 L235.2 155.2 235.35 155.35 Q237.95 162.3 243.15 167.35 L243.15 162.3 Q243.45 157.95 244.3 154.2 247.05 141.25 253.2 135.25 245.9 149.35 248.8 163.45 251.1 184.2 258.85 199.95 269.25 208.2 274.95 219.7 277.05 221.85 279.3 223.75 L281.1 225.4 284.15 227.85 290.15 232.35 Q308.35 245.0 288.85 239.0 M255.45 226.05 L253.35 220.35 Q245.1 218.1 246.9 222.65 M241.7 171.9 L243.65 174.65 Q245.6 197.85 253.35 220.35 M233.1 156.8 Q233.75 160.2 235.35 163.15 L241.7 171.9" fill="none" stroke="#000000" stroke-linecap="round" stroke-linejoin="round" stroke-opacity="0.36078432" stroke-width="0.05"/>
    <path d="M228.55 129.55 Q206.85 121.45 196.45 130.7 181.7 142.2 186.9 161.2" fill="none" stroke="#66cc00" stroke-linecap="round" stroke-linejoin="round" stroke-opacity="0.5411765" stroke-width="0.25"/>
    <path d="M228.25 129.4 L228.55 129.55 229.05 130.05 229.35 114.0 231.15 128.45 231.45 131.7 230.2 131.2 229.85 131.2 231.45 131.7 Q232.1 139.45 233.4 147.1 L234.25 153.4 Q234.4 153.9 235.05 154.85 L236.0 158.75 236.0 160.7 242.8 169.95 241.35 165.4 243.15 167.35 243.15 162.3 Q243.45 157.95 244.3 154.2 247.05 141.25 253.2 135.25 251.9 137.85 250.95 140.45 246.05 148.55 245.25 159.1 243.8 178.05 249.3 196.55 251.4 204.0 254.5 205.45 256.1 205.8 259.5 214.55 261.65 219.7 264.7 222.95 L265.2 224.9 Q270.7 232.05 277.2 237.4 L274.45 236.75 Q271.35 235.95 268.6 234.8 L267.45 234.3 Q261.45 227.0 258.85 217.6 L258.55 216.8 Q260.35 223.95 264.4 232.7 259.7 229.95 255.45 226.05 L253.35 220.35 Q245.6 197.85 243.65 174.65 L235.35 163.15 Q233.75 160.2 233.1 156.8 L232.6 155.5 Q231.45 152.9 231.45 151.8 L231.45 151.3 231.0 149.85 230.8 145.15 Q230.35 139.95 230.2 133.95 229.05 133.0 228.25 132.8 L228.25 129.4" fill="#000000" fill-opacity="0.49803922" fill-rule="evenodd" stroke="none"/>
  </g>
</svg>
