<?xml version="1.0" encoding="UTF-8" standalone="no"?>
<svg xmlns:xlink="http://www.w3.org/1999/xlink" height="82.0px" width="93.6px" xmlns="http://www.w3.org/2000/svg">
  <g transform="matrix(1.0, 0.0, 0.0, 1.0, 46.8, 41.0)">
    <path d="M-6.25 -37.8 L-4.5 -36.05 -7.7 -32.45 -8.4 -31.6 -10.05 -29.4 Q-12.15 -26.35 -13.7 -23.0 -17.75 -14.4 -18.15 -3.9 L-18.15 -2.4 -18.0 2.85 -20.45 4.7 Q-20.65 -0.1 -20.3 -4.5 -19.15 -20.55 -10.85 -32.2 -8.8 -35.15 -6.25 -37.8 M-2.7 10.65 L-6.45 10.5 Q-19.65 10.0 -27.45 5.5 L-30.35 3.55 -32.75 1.35 -34.1 -0.25 Q-31.6 -3.65 -32.85 -10.1 L-29.45 -7.1 Q-29.55 -3.0 -29.15 1.45 L-27.7 1.95 -27.75 4.0 Q-23.65 6.65 -18.65 7.4 L-16.95 4.75 -18.15 -2.4 Q-8.15 -0.25 2.55 -1.15 0.05 4.95 4.5 10.1 L1.0 10.5 -2.7 10.65" fill="#e3d5be" fill-rule="evenodd" stroke="none"/>
    <path d="M-6.25 -37.8 Q-8.8 -35.15 -10.85 -32.2 -19.15 -20.55 -20.3 -4.5 -20.65 -0.1 -20.45 4.7 L-27.7 1.95 -29.15 1.45 Q-29.55 -3.0 -29.45 -7.1 L-29.35 -8.7 -29.45 -7.1 -32.85 -10.1 Q-31.6 -3.65 -34.1 -0.25 L-35.8 -2.9 -36.25 -3.7 -36.25 -16.65 -32.95 -18.9 Q-34.1 -16.8 -34.9 -14.35 L-34.3 -13.45 -33.35 -12.25 Q-31.65 -10.3 -29.35 -8.7 -28.85 -18.45 -25.3 -26.5 L-24.9 -27.6 Q-21.6 -34.75 -15.9 -40.5 L-6.25 -37.8 M-18.15 -2.4 L-18.15 -3.9 -13.95 -3.1 -6.45 -2.45 3.3 -2.75 Q14.55 -4.4 22.45 -12.0 L23.65 -13.25 23.65 -14.15 23.65 -15.05 Q23.7 -15.95 23.0 -17.05 L25.85 -15.05 25.85 -2.1 Q22.75 1.9 18.75 4.7 13.2 8.5 6.0 9.85 L4.5 10.1 Q0.05 4.95 2.55 -1.15 -8.15 -0.25 -18.15 -2.4 M-23.65 -2.55 Q-23.65 -3.8 -24.25 -4.7 -24.8 -5.55 -25.65 -5.55 -26.5 -5.55 -27.1 -4.7 -27.65 -3.8 -27.65 -2.55 -27.65 -1.3 -27.1 -0.45 -26.5 0.45 -25.65 0.45 -24.8 0.45 -24.25 -0.45 -23.65 -1.3 -23.65 -2.55" fill="#f0e9da" fill-rule="evenodd" stroke="none"/>
    <path d="M-8.4 -31.6 L-7.7 -32.45 -7.15 -32.5 Q13.3 -31.45 23.0 -17.05 23.7 -15.95 23.65 -15.05 L23.65 -14.15 Q14.65 -29.35 -4.65 -31.55 L-8.4 -31.6 M-32.95 -18.9 Q-30.05 -24.35 -24.9 -27.6 L-25.3 -26.5 Q-31.25 -22.5 -34.3 -13.45 L-34.9 -14.35 Q-34.1 -16.8 -32.95 -18.9" fill="#adadad" fill-rule="evenodd" stroke="none"/>
    <path d="M-10.05 -29.4 L-8.4 -31.6 -4.65 -31.55 Q14.65 -29.35 23.65 -14.15 L23.65 -13.25 22.45 -12.0 Q17.7 -21.8 10.55 -24.45 0.85 -15.6 -11.0 -19.7 -10.25 -24.1 -5.2 -29.4 L-10.05 -29.4" fill="#666666" fill-rule="evenodd" stroke="none"/>
    <path d="M25.85 -2.1 L27.8 -0.4 Q25.8 3.4 21.5 7.2 L21.45 7.2 18.75 4.7 Q22.75 1.9 25.85 -2.1 M35.5 11.9 L37.55 13.05 32.35 19.05 Q31.45 17.5 31.55 15.4 L32.95 14.25 35.5 11.9 M11.75 31.9 L9.05 27.0 12.2 26.0 15.65 24.7 Q15.7 26.45 16.2 28.0 L13.4 28.35 12.2 26.0 13.4 28.35 11.75 31.9 M0.55 17.35 L-2.7 10.65 1.0 10.5 4.5 10.1 6.0 9.85 Q6.5 11.7 7.75 13.25 L2.75 13.9 2.75 13.95 0.55 17.35 M-27.45 5.5 L-42.6 25.35 -34.45 7.85 -38.5 12.0 -34.05 3.75 -36.5 -1.2 -35.8 -2.9 -34.1 -0.25 -32.75 1.35 -30.35 3.55 -27.45 5.5 M2.75 13.9 L1.0 10.5 2.75 13.9 M-32.75 1.35 L-34.05 3.75 -32.75 1.35 M-30.35 3.55 L-34.45 7.85 -30.35 3.55" fill="#836c43" fill-rule="evenodd" stroke="none"/>
    <path d="M21.45 7.2 L21.5 7.2 Q25.6 10.35 32.05 12.05 26.3 16.55 19.4 19.5 11.05 17.45 7.75 13.25 L21.45 7.2 M23.45 36.05 Q17.65 33.15 16.2 28.0 L32.35 19.05 Q34.55 22.75 42.55 22.55 34.4 31.65 23.45 36.05" fill="#c6ac8a" fill-rule="evenodd" stroke="none"/>
    <path d="M18.75 4.7 L21.45 7.2 7.75 13.25 Q6.5 11.7 6.0 9.85 13.2 8.5 18.75 4.7 M18.85 23.3 Q25.75 20.05 31.55 15.4 31.45 17.5 32.35 19.05 L16.2 28.0 Q15.7 26.45 15.65 24.7 L18.85 23.3" fill="#9b7a4d" fill-rule="evenodd" stroke="none"/>
    <path d="M37.1 7.6 L37.1 10.3 35.5 11.9 32.95 14.25 32.05 12.05 37.1 7.6 M46.3 17.85 L46.3 21.6 Q44.75 24.45 42.55 27.0 L42.55 22.55 46.3 17.85 M22.95 39.45 L19.85 40.5 16.45 40.5 18.25 37.8 23.45 36.05 22.95 39.45 M9.05 27.0 L6.4 27.0 7.45 23.25 Q13.8 21.9 19.4 19.5 L18.85 23.3 15.65 24.7 12.2 26.0 9.05 27.0" fill="#a18552" fill-rule="evenodd" stroke="none"/>
    <path d="M27.8 -0.4 L37.1 7.6 32.05 12.05 Q25.6 10.35 21.5 7.2 25.8 3.4 27.8 -0.4 M37.55 13.05 L46.3 17.85 42.55 22.55 Q34.55 22.75 32.35 19.05 L37.55 13.05 M7.75 13.25 Q11.05 17.45 19.4 19.5 13.8 21.9 7.45 23.25 L2.75 13.95 2.75 13.9 7.75 13.25 M13.4 28.35 L16.2 28.0 Q17.65 33.15 23.45 36.05 L18.25 37.8 13.4 28.35" fill="#dac89f" fill-rule="evenodd" stroke="none"/>
    <path d="M42.55 27.0 Q35.8 34.75 22.95 39.45 L23.45 36.05 Q34.4 31.65 42.55 22.55 L42.55 27.0 M19.4 19.5 Q26.3 16.55 32.05 12.05 L32.95 14.25 31.55 15.4 Q25.75 20.05 18.85 23.3 L19.4 19.5" fill="#ba9b72" fill-rule="evenodd" stroke="none"/>
    <path d="M-18.15 -3.9 Q-17.75 -14.4 -13.7 -23.0 -12.15 -26.35 -10.05 -29.4 L-5.2 -29.4 Q-10.25 -24.1 -11.0 -19.7 -13.6 -11.25 -13.95 -3.1 L-18.15 -3.9 M-23.65 -2.55 Q-23.65 -1.3 -24.25 -0.45 -24.8 0.45 -25.65 0.45 -26.5 0.45 -27.1 -0.45 -27.65 -1.3 -27.65 -2.55 -27.65 -3.8 -27.1 -4.7 -26.5 -5.55 -25.65 -5.55 -24.8 -5.55 -24.25 -4.7 -23.65 -3.8 -23.65 -2.55" fill="#1e1e1e" fill-rule="evenodd" stroke="none"/>
    <path d="M-20.45 4.7 L-18.0 2.85 -18.15 -2.4 -16.95 4.75 -18.65 7.4 Q-23.65 6.65 -27.75 4.0 L-27.7 1.95 -20.45 4.7" fill="#d5bf9b" fill-rule="evenodd" stroke="none"/>
    <path d="M22.45 -12.0 Q14.55 -4.4 3.3 -2.75 L-6.45 -2.45 -13.95 -3.1 Q-13.6 -11.25 -11.0 -19.7 0.85 -15.6 10.55 -24.45 17.7 -21.8 22.45 -12.0 M-25.3 -26.5 Q-28.85 -18.45 -29.35 -8.7 -31.65 -10.3 -33.35 -12.25 L-34.3 -13.45 Q-31.25 -22.5 -25.3 -26.5" fill="#383838" fill-rule="evenodd" stroke="none"/>
    <path d="M16.45 40.5 L11.75 31.9 13.4 28.35 18.25 37.8 16.45 40.5 M6.4 27.0 L5.3 27.0 0.55 17.35 2.75 13.95 7.45 23.25 6.4 27.0 M-42.6 25.35 L-46.3 23.3 -39.65 10.6 -40.85 9.2 -36.5 -1.2 -34.05 3.75 -38.5 12.0 -34.45 7.85 -42.6 25.35 M-38.5 12.0 L-39.65 10.6 -38.5 12.0" fill="#bba479" fill-rule="evenodd" stroke="none"/>
    <path d="M-7.7 -32.45 L-4.5 -36.05 -6.25 -37.8 -15.9 -40.5 Q-21.6 -34.75 -24.9 -27.6 L-25.3 -26.5 Q-28.85 -18.45 -29.35 -8.7 L-29.45 -7.1 Q-29.55 -3.0 -29.15 1.45 L-27.7 1.95 -20.45 4.7 -18.0 2.85 -18.15 -2.4 -18.15 -3.9 Q-17.75 -14.4 -13.7 -23.0 -12.15 -26.35 -10.05 -29.4 L-8.4 -31.6 -7.7 -32.45 -7.15 -32.5 Q13.3 -31.45 23.0 -17.05 L25.85 -15.05 M-27.45 5.5 L-42.6 25.35 -46.3 23.3 -39.65 10.6 -40.85 9.2 -36.5 -1.2 -35.8 -2.9 M-36.25 -16.65 L-32.95 -18.9 Q-30.05 -24.35 -24.9 -27.6 M23.0 -17.05 Q23.7 -15.95 23.65 -15.05 L23.65 -14.15 23.65 -13.25 M-34.9 -14.35 Q-34.1 -16.8 -32.95 -18.9 M-23.65 -2.55 Q-23.65 -1.3 -24.25 -0.45 -24.8 0.45 -25.65 0.45 -26.5 0.45 -27.1 -0.45 -27.65 -1.3 -27.65 -2.55 -27.65 -3.8 -27.1 -4.7 -26.5 -5.55 -25.65 -5.55 -24.8 -5.55 -24.25 -4.7 -23.65 -3.8 -23.65 -2.55 M-38.5 12.0 L-34.45 7.85 -30.35 3.55 M-39.65 10.6 L-38.5 12.0" fill="none" stroke="#000000" stroke-linecap="round" stroke-linejoin="round" stroke-opacity="0.4" stroke-width="0.5"/>
    <path d="M25.85 -15.05 L25.85 -2.1 27.8 -0.4 37.1 7.6 37.1 10.3 35.5 11.9 37.55 13.05 46.3 17.85 46.3 21.6 Q44.75 24.45 42.55 27.0 35.8 34.75 22.95 39.45 L19.85 40.5 16.45 40.5 11.75 31.9 9.05 27.0 6.4 27.0 5.3 27.0 0.55 17.35 -2.7 10.65 -6.45 10.5 Q-19.65 10.0 -27.45 5.5 L-30.35 3.55 -32.75 1.35 -34.1 -0.25 -35.8 -2.9 -36.25 -3.7 -36.25 -16.65 M23.65 -13.25 L22.45 -12.0 Q14.55 -4.4 3.3 -2.75 L-6.45 -2.45 -13.95 -3.1 -18.15 -3.9 M32.95 14.25 L35.5 11.9 M31.55 15.4 L32.95 14.25 M18.75 4.7 Q22.75 1.9 25.85 -2.1 M4.5 10.1 L6.0 9.85 Q13.2 8.5 18.75 4.7 M-2.7 10.65 L1.0 10.5 4.5 10.1 M18.85 23.3 Q25.75 20.05 31.55 15.4 M15.65 24.7 L12.2 26.0 9.05 27.0 M15.65 24.7 L18.85 23.3 M-34.9 -14.35 L-34.3 -13.45 -33.35 -12.25 Q-31.65 -10.3 -29.35 -8.7" fill="none" stroke="#000000" stroke-linecap="round" stroke-linejoin="round" stroke-opacity="0.4" stroke-width="0.5"/>
    <path d="M21.45 7.2 L21.5 7.2 Q25.6 10.35 32.05 12.05 L32.95 14.25 M18.75 4.7 L21.45 7.2 M7.75 13.25 Q11.05 17.45 19.4 19.5 L18.85 23.3 M7.75 13.25 Q6.5 11.7 6.0 9.85 M31.55 15.4 Q31.45 17.5 32.35 19.05 34.55 22.75 42.55 22.55 L42.55 27.0 M23.45 36.05 Q17.65 33.15 16.2 28.0 15.7 26.45 15.65 24.7 M23.45 36.05 L22.95 39.45" fill="none" stroke="#000000" stroke-linecap="round" stroke-linejoin="round" stroke-opacity="0.2" stroke-width="0.5"/>
    <path d="M19.4 19.5 Q26.3 16.55 32.05 12.05 L37.1 7.6 M1.0 10.5 L2.75 13.9 2.75 13.95 7.45 23.25 Q13.8 21.9 19.4 19.5 M13.4 28.35 L18.25 37.8 23.45 36.05 Q34.4 31.65 42.55 22.55 L46.3 17.85 M12.2 26.0 L13.4 28.35" fill="none" stroke="#ffffcc" stroke-linecap="round" stroke-linejoin="round" stroke-opacity="0.4117647" stroke-width="0.5"/>
    <path d="M-6.25 -37.8 Q-8.8 -35.15 -10.85 -32.2 -19.15 -20.55 -20.3 -4.5 -20.65 -0.1 -20.45 4.7" fill="none" stroke="#cfb892" stroke-linecap="round" stroke-linejoin="round" stroke-opacity="0.4392157" stroke-width="0.5"/>
    <path d="M7.45 23.25 L6.4 27.0 M18.25 37.8 L16.45 40.5 M-34.05 3.75 L-32.75 1.35 M-38.5 12.0 L-34.05 3.75 M-42.6 25.35 L-34.45 7.85" fill="none" stroke="#ffffcc" stroke-linecap="round" stroke-linejoin="round" stroke-opacity="0.4117647" stroke-width="0.5"/>
    <path d="M-15.9 -40.5 Q-21.6 -34.75 -24.9 -27.6 -30.05 -24.35 -32.95 -18.9 L-36.25 -16.65 -36.25 -3.7 -35.8 -2.9 -40.85 9.2 -39.65 10.6 -46.3 23.3 -42.6 25.35 -27.45 5.5 Q-19.65 10.0 -6.45 10.5 L-2.7 10.65 5.3 27.0 9.05 27.0 16.45 40.5 19.85 40.5 22.95 39.45 Q35.8 34.75 42.55 27.0 44.75 24.45 46.3 21.6 L46.3 17.85 35.5 11.9 37.1 10.3 37.1 7.6 25.85 -2.1 25.85 -15.05 23.0 -17.05 Q13.3 -31.45 -7.15 -32.5 L-7.7 -32.45 -4.5 -36.05 -6.25 -37.8 -15.9 -40.5 Z" fill="none" stroke="#000000" stroke-linecap="round" stroke-linejoin="round" stroke-opacity="0.4" stroke-width="1.0"/>
  </g>
</svg>
