<?xml version="1.0" encoding="UTF-8" standalone="no"?>
<svg xmlns:xlink="http://www.w3.org/1999/xlink" height="92.1px" width="126.85px" xmlns="http://www.w3.org/2000/svg">
  <g transform="matrix(1.0, 0.0, 0.0, 1.0, 63.4, 46.05)">
    <path d="M23.45 13.3 L24.25 9.65 16.75 -14.4 Q10.35 -10.8 0.2 -13.6 L-14.15 -37.5 -27.3 -43.4 -20.0 -38.65 Q-19.85 -4.5 -12.4 -4.35 L-17.05 -4.35 -5.0 2.65 5.55 6.1 -5.85 4.45 -18.35 -2.65 -20.45 -2.65 -18.6 -4.65 -22.0 -38.7 -29.6 -43.6 -27.9 -45.55 Q-17.45 -45.6 -10.0 -42.65 L17.65 -15.7 25.3 9.7 25.0 12.45 23.45 13.3" fill="url(#gradient0)" fill-rule="evenodd" stroke="none"/>
    <path d="M-20.45 -2.65 L-18.35 -2.65 -5.85 4.45 5.55 6.1 -5.0 2.65 -17.05 -4.35 -12.4 -4.35 Q-19.85 -4.5 -20.0 -38.65 L-27.3 -43.4 -14.15 -37.5 0.2 -13.6 Q10.35 -10.8 16.75 -14.4 L24.25 9.65 23.45 13.3 20.35 14.9 11.75 14.9 -3.4 14.9 -3.65 13.45 -4.15 13.4 -4.45 13.4 -4.55 13.4 -16.15 12.25 -20.55 10.25 -22.25 11.5 -24.25 10.35 -18.55 1.35 -19.8 -0.25 -21.05 -2.0 -20.45 -2.65 M-10.75 6.35 Q-7.35 10.35 -0.2 11.5 8.65 11.9 15.45 10.25 3.6 10.4 -7.1 6.6 L-16.45 0.35 -10.75 6.35" fill="url(#gradient1)" fill-rule="evenodd" stroke="none"/>
    <path d="M-62.9 28.65 L-62.6 28.5 Q-61.6 31.25 -57.5 33.65 -53.35 36.1 -46.0 38.2 L-44.5 38.6 -38.0 40.15 Q-21.6 43.55 0.05 43.6 L15.95 43.05 Q27.95 42.25 38.05 40.15 L44.55 38.6 Q60.5 34.3 62.65 28.5 L62.95 28.65 Q62.95 35.3 46.05 40.15 L44.55 40.6 Q26.1 45.55 0.05 45.55 -26.05 45.55 -44.5 40.6 L-46.0 40.15 Q-62.95 35.3 -62.9 28.65" fill="#1d2861" fill-rule="evenodd" stroke="none"/>
    <path d="M25.4 26.0 Q26.6 25.05 26.8 24.05 L26.85 23.6 26.7 22.9 27.95 13.45 26.8 11.35 Q36.4 12.55 44.55 14.75 62.95 19.7 62.95 26.7 L62.9 27.65 62.65 28.5 Q60.5 34.3 44.55 38.6 L38.05 40.15 Q27.95 42.25 15.95 43.05 L25.4 26.0" fill="url(#gradient2)" fill-rule="evenodd" stroke="none"/>
    <path d="M-62.85 27.65 L-62.6 28.5 -62.9 28.65 -62.85 27.65 M62.65 28.5 L62.9 27.65 62.95 28.65 62.65 28.5" fill="#00ff00" fill-rule="evenodd" stroke="none"/>
    <path d="M23.45 13.3 L25.0 12.45 25.3 9.7 26.8 11.35 27.95 13.45 26.7 22.9 26.85 23.6 Q26.1 25.55 25.45 23.2 L26.55 13.75 Q25.55 16.05 21.2 17.0 L15.0 17.0 Q9.8 16.35 11.75 14.9 L20.35 14.9 23.45 13.3" fill="url(#gradient3)" fill-rule="evenodd" stroke="none"/>
    <path d="M-3.4 14.9 L11.75 14.9 Q9.8 16.35 15.0 17.0 L21.2 17.0 Q25.55 16.05 26.55 13.75 L25.45 23.2 Q26.1 25.55 26.85 23.6 L26.8 24.05 Q26.6 25.05 25.4 26.0 23.45 27.55 18.8 28.8 10.8 30.95 -0.55 30.95 L-5.3 30.85 -7.1 30.8 -5.35 14.9 -3.4 14.9" fill="url(#gradient4)" fill-rule="evenodd" stroke="none"/>
    <path d="M-5.3 30.85 L-0.55 30.95 Q10.8 30.95 18.8 28.8 23.45 27.55 25.4 26.0 L15.95 43.05 0.05 43.6 Q-21.6 43.55 -38.0 40.15 L-44.5 38.6 -46.0 38.2 Q-53.35 36.1 -57.5 33.65 L-29.85 23.0 -29.4 23.4 -27.1 25.45 -27.1 26.7 -26.4 27.1 -20.3 30.35 -7.7 31.7 -6.85 31.8 -5.3 30.85" fill="url(#gradient5)" fill-rule="evenodd" stroke="none"/>
    <path d="M-10.75 6.35 L-16.45 0.35 -7.1 6.6 Q3.6 10.4 15.45 10.25 8.65 11.9 -0.2 11.5 -7.35 10.35 -10.75 6.35" fill="url(#gradient6)" fill-rule="evenodd" stroke="none"/>
    <path d="M-4.55 13.4 L-4.45 13.4 -4.15 13.4 -3.65 13.45 -3.4 14.9 -5.35 14.9 -7.1 30.8 -5.3 30.85 -6.85 31.8 -7.7 31.7 -8.55 30.65 -7.1 16.2 -7.1 15.55 Q-6.25 13.25 -4.55 13.4" fill="#333333" fill-rule="evenodd" stroke="none"/>
    <path d="M-22.25 11.5 L-20.55 10.25 -16.15 12.25 -4.55 13.4 Q-6.25 13.25 -7.1 15.55 L-7.1 16.2 -18.0 15.05 -21.25 13.25 -26.15 25.45 -26.4 27.1 -27.1 26.7 -27.1 25.45 -22.85 13.25 -22.25 11.5" fill="url(#gradient7)" fill-rule="evenodd" stroke="none"/>
    <path d="M-26.4 27.1 L-26.15 25.45 -21.25 13.25 -18.0 15.05 -7.1 16.2 -8.55 30.65 -7.7 31.7 -20.3 30.35 -26.4 27.1" fill="url(#gradient8)" fill-rule="evenodd" stroke="none"/>
    <path d="M-24.25 10.35 L-22.25 11.5 -22.85 13.25 -26.15 11.0 -28.25 21.7 -29.4 23.4 -29.85 23.0 -28.65 19.6 -27.5 11.45 -27.15 9.05 -24.4 7.4 -25.7 9.55 -24.25 10.35" fill="url(#gradient9)" fill-rule="evenodd" stroke="none"/>
    <path d="M-19.8 -0.25 L-18.55 1.35 -24.25 10.35 -25.7 9.55 -24.4 7.4 -19.8 -0.25" fill="#7380d7" fill-rule="evenodd" stroke="none"/>
    <path d="M-27.5 11.45 L-28.65 19.6 -29.85 23.0 -57.5 33.65 Q-61.6 31.25 -62.6 28.5 L-62.85 27.65 -62.9 26.7 Q-62.95 20.0 -46.0 15.15 L-44.5 14.75 Q-36.7 12.65 -27.5 11.45" fill="url(#gradient10)" fill-rule="evenodd" stroke="none"/>
    <path d="M-29.4 23.4 L-28.25 21.7 -26.15 11.0 -22.85 13.25 -27.1 25.45 -29.4 23.4" fill="url(#gradient11)" fill-rule="evenodd" stroke="none"/>
    <path d="M23.45 13.3 L25.0 12.45 25.3 9.7 17.65 -15.7 -10.0 -42.65 Q-17.45 -45.6 -27.9 -45.55 L-29.6 -43.6 -22.0 -38.7 -18.6 -4.65 -20.45 -2.65 -21.05 -2.0 -19.8 -0.25 -24.4 7.4 -27.15 9.05 -27.5 11.45 -28.65 19.6 -29.85 23.0 -29.4 23.4 -27.1 25.45 -27.1 26.7 -26.4 27.1 -20.3 30.35 -7.7 31.7 -6.85 31.8 -5.3 30.85 -0.55 30.95 Q10.8 30.95 18.8 28.8 23.45 27.55 25.4 26.0 26.6 25.05 26.8 24.05 L26.85 23.6 26.7 22.9 27.95 13.45 26.8 11.35 Q36.4 12.55 44.55 14.75 62.95 19.7 62.95 26.7 L62.9 27.65 62.95 28.65 Q62.95 35.3 46.05 40.15 L44.55 40.6 Q26.1 45.55 0.05 45.55 -26.05 45.55 -44.5 40.6 L-46.0 40.15 Q-62.95 35.3 -62.9 28.65 L-62.85 27.65 -62.9 26.7 Q-62.95 20.0 -46.0 15.15 L-44.5 14.75 Q-36.7 12.65 -27.5 11.45 M-24.25 10.35 L-22.25 11.5 -20.55 10.25 -16.15 12.25 -4.55 13.4 -4.45 13.4 M-4.15 13.4 L-3.65 13.45 -3.4 14.9 11.75 14.9 20.35 14.9 23.45 13.3 M-3.4 14.9 L-5.35 14.9 -7.1 30.8 -5.3 30.85 M-24.25 10.35 L-25.7 9.55 -24.4 7.4 M-22.85 13.25 L-22.25 11.5 M-22.85 13.25 L-27.1 25.45 M-62.6 28.5 L-62.85 27.65 M62.65 28.5 L62.9 27.65 M25.3 9.7 L26.8 11.35" fill="none" stroke="#000000" stroke-linecap="round" stroke-linejoin="round" stroke-opacity="0.4" stroke-width="0.5"/>
    <path d="M-62.6 28.5 Q-61.6 31.25 -57.5 33.65 -53.35 36.1 -46.0 38.2 L-44.5 38.6 -38.0 40.15 Q-21.6 43.55 0.05 43.6 L15.95 43.05 Q27.95 42.25 38.05 40.15 L44.55 38.6 Q60.5 34.3 62.65 28.5" fill="none" stroke="#33ffff" stroke-linecap="round" stroke-linejoin="round" stroke-opacity="0.2" stroke-width="0.5"/>
    <path d="M-7.1 16.2 L-7.1 15.55 Q-6.25 13.25 -4.55 13.4 M-26.4 27.1 L-26.15 25.45 -21.25 13.25 -18.0 15.05 -7.1 16.2 -8.55 30.65 -7.7 31.7" fill="none" stroke="#f9f9f9" stroke-linecap="round" stroke-linejoin="round" stroke-opacity="0.32941177" stroke-width="0.5"/>
    <path d="M-10.0 -42.65 L17.65 -15.7 25.3 9.7 26.8 11.35 Q36.4 12.55 44.55 14.75 62.95 19.7 62.95 26.7 L62.9 27.65 62.95 28.65 Q62.95 35.3 46.05 40.15 L44.55 40.6 Q26.1 45.55 0.05 45.55 -26.05 45.55 -44.5 40.6 L-46.0 40.15 Q-62.95 35.3 -62.9 28.65 L-62.85 27.65 -62.9 26.7 Q-62.95 20.0 -46.0 15.15 L-44.5 14.75 Q-36.7 12.65 -27.5 11.45 L-27.15 9.05 -24.4 7.4 -19.8 -0.25 -21.05 -2.0 -18.6 -4.65 -22.0 -38.7 -29.6 -43.6 -27.9 -45.55 Q-17.45 -45.6 -10.0 -42.65 Z" fill="none" stroke="#000000" stroke-linecap="round" stroke-linejoin="round" stroke-opacity="0.4" stroke-width="1.0"/>
  </g>
  <defs>
    <linearGradient gradientTransform="matrix(0.0012, 0.021, -0.0315, 0.0018, -1.95, -13.9)" gradientUnits="userSpaceOnUse" id="gradient0" spreadMethod="pad" x1="-819.2" x2="819.2">
      <stop offset="0.0" stop-color="#7380d7"/>
      <stop offset="0.9882352941176471" stop-color="#405bc8"/>
    </linearGradient>
    <linearGradient gradientTransform="matrix(0.0059, 0.0219, -0.0277, 0.0074, -7.1, -16.4)" gradientUnits="userSpaceOnUse" id="gradient1" spreadMethod="pad" x1="-819.2" x2="819.2">
      <stop offset="0.0" stop-color="#3b4eb5"/>
      <stop offset="0.9882352941176471" stop-color="#2b3c80"/>
    </linearGradient>
    <linearGradient gradientTransform="matrix(0.0018, 0.007, -0.0294, 0.0078, 35.25, 18.6)" gradientUnits="userSpaceOnUse" id="gradient2" spreadMethod="pad" x1="-819.2" x2="819.2">
      <stop offset="0.0" stop-color="#7380d7"/>
      <stop offset="0.9882352941176471" stop-color="#405bc8"/>
    </linearGradient>
    <linearGradient gradientTransform="matrix(0.0076, 0.0, 0.0, 0.009, 19.75, 17.1)" gradientUnits="userSpaceOnUse" id="gradient3" spreadMethod="pad" x1="-819.2" x2="819.2">
      <stop offset="0.0" stop-color="#fefd61"/>
      <stop offset="0.9882352941176471" stop-color="#fefe15"/>
    </linearGradient>
    <linearGradient gradientTransform="matrix(-0.0163, 0.0, 0.0, -0.0105, 9.35, 22.35)" gradientUnits="userSpaceOnUse" id="gradient4" spreadMethod="pad" x1="-819.2" x2="819.2">
      <stop offset="0.0" stop-color="#feda33"/>
      <stop offset="0.9882352941176471" stop-color="#a25100"/>
    </linearGradient>
    <linearGradient gradientTransform="matrix(0.0034, -0.006, 0.0362, 0.0208, -17.3, 32.3)" gradientUnits="userSpaceOnUse" id="gradient5" spreadMethod="pad" x1="-819.2" x2="819.2">
      <stop offset="0.0" stop-color="#3b4eb5"/>
      <stop offset="0.9882352941176471" stop-color="#2b3c80"/>
    </linearGradient>
    <linearGradient gradientTransform="matrix(-0.0139, -0.0064, 0.0022, -0.0048, -4.9, 5.55)" gradientUnits="userSpaceOnUse" id="gradient6" spreadMethod="pad" x1="-819.2" x2="819.2">
      <stop offset="0.0" stop-color="#1f2a60"/>
      <stop offset="0.9882352941176471" stop-color="#04060d"/>
    </linearGradient>
    <linearGradient gradientTransform="matrix(-0.0074, -0.002, 0.0029, -0.0111, -15.65, 20.2)" gradientUnits="userSpaceOnUse" id="gradient7" spreadMethod="pad" x1="-819.2" x2="819.2">
      <stop offset="0.0" stop-color="#cccccc"/>
      <stop offset="0.9882352941176471" stop-color="#ffffff"/>
    </linearGradient>
    <linearGradient gradientTransform="matrix(-0.0054, -0.0054, 0.0092, -0.0092, -15.55, 22.85)" gradientUnits="userSpaceOnUse" id="gradient8" spreadMethod="pad" x1="-819.2" x2="819.2">
      <stop offset="0.0" stop-color="#666666"/>
      <stop offset="0.9882352941176471" stop-color="#404040"/>
    </linearGradient>
    <linearGradient gradientTransform="matrix(0.0018, 0.0018, -0.0064, 0.0064, -28.1, 14.2)" gradientUnits="userSpaceOnUse" id="gradient9" spreadMethod="pad" x1="-819.2" x2="819.2">
      <stop offset="0.0" stop-color="#fefd61"/>
      <stop offset="0.9882352941176471" stop-color="#fefe15"/>
    </linearGradient>
    <linearGradient gradientTransform="matrix(-0.0123, 0.0051, -0.0033, -0.0079, -41.6, 20.35)" gradientUnits="userSpaceOnUse" id="gradient10" spreadMethod="pad" x1="-819.2" x2="819.2">
      <stop offset="0.0" stop-color="#7380d7"/>
      <stop offset="0.9882352941176471" stop-color="#405bc8"/>
    </linearGradient>
    <linearGradient gradientTransform="matrix(-0.002, -5.0E-4, 0.0022, -0.0084, -26.7, 18.25)" gradientUnits="userSpaceOnUse" id="gradient11" spreadMethod="pad" x1="-819.2" x2="819.2">
      <stop offset="0.0" stop-color="#feda33"/>
      <stop offset="0.9882352941176471" stop-color="#a25100"/>
    </linearGradient>
  </defs>
</svg>
