<?xml version="1.0" encoding="UTF-8" standalone="no"?>
<svg xmlns:xlink="http://www.w3.org/1999/xlink" height="170.25px" width="80.8px" xmlns="http://www.w3.org/2000/svg">
  <g transform="matrix(1.0, 0.0, 0.0, 1.0, 40.4, 85.1)">
    <path d="M-18.0 -82.95 Q-15.3 -84.4 -12.1 -84.55 1.4 -85.45 15.5 -63.95 L15.7 -63.65 17.65 -60.6 Q22.0 -53.5 25.55 -45.4 32.25 -30.1 36.2 -11.25 37.6 -4.55 38.45 1.75 36.1 6.6 31.4 4.65 30.5 -2.25 28.95 -9.6 24.95 -28.9 18.0 -44.45 14.5 -52.25 10.35 -59.15 L10.3 -59.15 8.7 -61.7 8.3 -62.3 Q-5.15 -82.75 -18.0 -82.95 M15.7 -63.65 L8.7 -61.7 15.7 -63.65 M17.65 -60.6 L10.35 -59.15 17.65 -60.6 M25.55 -45.4 L18.0 -44.45 25.55 -45.4" fill="url(#gradient0)" fill-rule="evenodd" stroke="none"/>
    <path d="M16.5 84.65 L-0.65 70.65 5.55 71.75 5.55 66.95 Q-4.8 63.45 -15.5 47.25 -29.65 25.8 -36.15 -5.4 -37.95 -13.95 -38.9 -21.85 -41.35 -42.85 -37.8 -59.35 -32.85 -82.05 -19.3 -82.9 L-18.0 -82.95 Q-5.15 -82.75 8.3 -62.3 L8.7 -61.7 5.5 -55.6 8.7 -61.7 10.3 -59.15 10.35 -59.15 Q14.5 -52.25 18.0 -44.45 L13.35 -41.15 18.0 -44.45 Q24.95 -28.9 28.95 -9.6 30.5 -2.25 31.4 4.65 33.95 24.0 31.4 39.6 L30.55 44.3 Q27.5 58.35 21.2 64.05 L21.25 64.05 23.5 69.65 30.5 69.65 16.5 84.65 M5.5 -55.6 L5.0 -56.35 Q-6.25 -73.45 -17.0 -74.65 L-19.55 -74.7 Q-23.95 -74.45 -27.35 -71.55 -33.2 -66.55 -35.95 -53.75 -39.1 -39.35 -37.0 -21.1 L-38.9 -21.85 -37.0 -21.1 -36.95 -20.8 Q-36.15 -13.6 -34.5 -5.8 -28.7 21.9 -16.15 41.0 -6.95 54.9 1.95 58.25 5.2 59.5 8.45 59.3 L9.1 59.2 Q15.7 58.45 19.9 51.7 22.95 46.65 24.75 38.35 L25.5 34.45 Q27.95 19.45 25.15 0.55 L24.45 -3.9 23.35 -9.55 Q19.7 -27.1 13.35 -41.15 10.25 -48.0 6.5 -54.0 L5.5 -55.6 M10.3 -59.15 L6.5 -54.0 10.3 -59.15 M25.5 34.45 L31.4 39.6 25.5 34.45" fill="url(#gradient1)" fill-rule="evenodd" stroke="none"/>
    <path d="M-37.0 -21.1 Q-39.1 -39.35 -35.95 -53.75 -33.2 -66.55 -27.35 -71.55 -23.95 -74.45 -19.55 -74.7 L-17.0 -74.65 Q-23.15 -73.95 -27.2 -68.0 -29.05 -65.35 -30.45 -61.65 -31.8 -58.2 -32.75 -53.75 -35.8 -39.7 -33.85 -21.9 L-36.6 -20.9 -37.0 -21.1 -36.6 -20.9 -33.85 -21.9 Q-33.05 -14.2 -31.3 -5.8 L-30.2 -0.9 Q-28.7 5.3 -26.85 11.05 -24.8 17.6 -22.25 23.55 -18.15 33.0 -12.9 41.0 -7.7 48.9 -2.55 53.4 3.0 58.25 8.5 59.1 L8.45 59.3 Q5.2 59.5 1.95 58.25 -6.95 54.9 -16.15 41.0 -28.7 21.9 -34.5 -5.8 -36.15 -13.6 -36.95 -20.8 L-37.0 -21.1 M-36.95 -20.8 L-36.6 -20.9 -36.95 -20.8" fill="url(#gradient2)" fill-rule="evenodd" stroke="none"/>
    <path d="M-20.05 -54.2 Q-23.95 -53.15 -27.9 -51.1 -29.25 -55.5 -28.15 -62.1 -25.3 -65.5 -23.35 -65.15 L-23.35 -58.25 Q-20.1 -60.75 -16.85 -60.0 L-16.85 -66.95 -14.45 -67.8 -10.75 -65.2 Q-11.35 -60.4 -10.35 -55.45 -15.15 -55.55 -20.05 -54.2" fill="#62a200" fill-rule="evenodd" stroke="none"/>
    <path d="M-33.85 -21.9 Q-35.8 -39.7 -32.75 -53.75 -31.8 -58.2 -30.45 -61.65 -29.05 -65.35 -27.2 -68.0 -19.75 -70.6 -14.45 -67.8 L-16.85 -66.95 -16.85 -60.0 Q-20.1 -60.75 -23.35 -58.25 L-23.35 -65.15 Q-25.3 -65.5 -28.15 -62.1 -29.25 -55.5 -27.9 -51.1 -23.95 -53.15 -20.05 -54.2 -14.5 -16.95 -8.0 8.85 L-10.5 9.3 -16.85 -0.6 -10.5 9.3 -8.0 8.85 -6.5 14.7 -13.6 15.3 Q-21.8 15.2 -26.85 11.05 -28.7 5.3 -30.2 -0.9 L-31.3 -5.8 Q-33.05 -14.2 -33.85 -21.9 M-23.75 -26.3 L-30.5 -30.45 -23.75 -26.3 M-14.6 -3.4 L-13.65 -5.05 Q-19.5 -17.7 -29.65 -9.35 L-28.55 -7.15 -26.3 -3.3 Q-21.4 3.7 -16.85 -0.6 -15.7 -1.65 -14.6 -3.4 M-30.2 -0.9 L-26.3 -3.3 -30.2 -0.9 M-19.05 -32.75 L-23.45 -38.85 -19.05 -32.75 M-26.1 -18.85 L-32.0 -18.85 -26.1 -18.85 M-10.5 9.3 L-13.6 15.3 -10.5 9.3" fill="url(#gradient3)" fill-rule="evenodd" stroke="none"/>
    <path d="M10.7 -22.2 Q13.3 -22.2 16.05 -20.65 L16.3 -18.05 11.3 -19.45 Q4.35 -19.15 -2.7 -6.55 L-4.5 -7.35 Q2.45 -22.25 10.7 -22.2 M-10.75 -65.2 L-14.45 -67.8 -10.35 -67.6 -10.75 -65.2 M-28.55 -7.15 L-29.65 -9.35 Q-19.5 -17.7 -13.65 -5.05 L-14.6 -3.4 Q-15.95 -7.85 -21.45 -10.25 -26.0 -11.3 -28.55 -7.15" fill="#243c00" fill-rule="evenodd" stroke="none"/>
    <path d="M-17.0 -74.65 Q-6.25 -73.45 5.0 -56.35 L5.5 -55.6 6.5 -54.0 Q10.25 -48.0 13.35 -41.15 19.7 -27.1 23.35 -9.55 L24.45 -3.9 15.6 3.25 24.45 -3.9 25.15 0.55 Q21.15 4.3 16.15 7.15 L15.6 3.25 14.05 -7.1 Q16.7 -10.55 16.3 -18.05 L16.05 -20.65 Q13.3 -22.2 10.7 -22.2 L8.25 -27.8 10.5 -28.6 8.25 -27.8 Q1.8 -46.95 -10.75 -65.2 L-10.35 -67.6 -14.45 -67.8 Q-19.75 -70.6 -27.2 -68.0 -23.15 -73.95 -17.0 -74.65" fill="#d1ca8b" fill-rule="evenodd" stroke="none"/>
    <path d="M8.25 -27.8 L10.7 -22.2 Q2.45 -22.25 -4.5 -7.35 L-2.7 -6.55 Q9.75 -1.4 14.05 -7.1 L15.6 3.25 -8.0 8.85 15.6 3.25 16.15 7.15 Q6.6 12.65 -6.5 14.7 L-8.0 8.85 Q-14.5 -16.95 -20.05 -54.2 -15.15 -55.55 -10.35 -55.45 -11.35 -60.4 -10.75 -65.2 1.8 -46.95 8.25 -27.8 L-0.1 -24.8 8.25 -27.8 M-11.5 -34.7 L-8.45 -42.3 -11.5 -34.7 M-4.75 -30.8 L1.15 -36.9 -4.75 -30.8" fill="url(#gradient4)" fill-rule="evenodd" stroke="none"/>
    <path d="M11.3 -19.45 L14.05 -7.1 Q9.75 -1.4 -2.7 -6.55 4.35 -19.15 11.3 -19.45 M-28.55 -7.15 Q-26.0 -11.3 -21.45 -10.25 -15.95 -7.85 -14.6 -3.4 -15.7 -1.65 -16.85 -0.6 -21.4 3.7 -26.3 -3.3 L-28.55 -7.15" fill="#406f00" fill-rule="evenodd" stroke="none"/>
    <path d="M16.3 -18.05 Q16.7 -10.55 14.05 -7.1 L11.3 -19.45 16.3 -18.05" fill="#315400" fill-rule="evenodd" stroke="none"/>
    <path d="M38.45 1.75 Q41.15 21.2 38.8 36.9 L37.75 42.65 Q34.75 56.6 28.45 62.3 L28.45 62.35 21.25 64.05 21.2 64.05 Q27.5 58.35 30.55 44.3 L31.4 39.6 Q33.95 24.0 31.4 4.65 36.1 6.6 38.45 1.75 M38.8 36.9 L31.4 39.6 38.8 36.9" fill="url(#gradient5)" fill-rule="evenodd" stroke="none"/>
    <path d="M8.9 58.9 Q5.3 53.55 -3.5 25.1 L-6.5 14.7 Q6.6 12.65 16.15 7.15 L19.25 22.35 18.25 22.35 19.25 22.35 19.9 29.45 16.6 27.1 19.9 29.45 Q21.2 41.45 19.9 51.7 15.7 58.45 9.1 59.2 L8.9 58.9 M9.95 42.15 L5.15 34.25 9.95 42.15 M16.45 38.3 L11.4 31.95 16.45 38.3" fill="url(#gradient6)" fill-rule="evenodd" stroke="none"/>
    <path d="M16.15 7.15 Q21.15 4.3 25.15 0.55 27.95 19.45 25.5 34.45 L24.75 38.35 Q22.95 46.65 19.9 51.7 21.2 41.45 19.9 29.45 L19.25 22.35 16.15 7.15 M22.15 22.35 L19.25 22.35 22.15 22.35 M21.4 29.45 L19.9 29.45 21.4 29.45" fill="#988e3d" fill-rule="evenodd" stroke="none"/>
    <path d="M28.45 62.35 L28.95 67.45 23.5 69.65 21.25 64.05 28.45 62.35" fill="url(#gradient7)" fill-rule="evenodd" stroke="none"/>
    <path d="M28.95 67.45 L36.45 66.4 30.5 69.65 23.5 69.65 28.95 67.45 M-0.65 70.65 L5.55 66.95 5.55 71.75 -0.65 70.65" fill="#a6812b" fill-rule="evenodd" stroke="none"/>
    <path d="M36.45 66.4 L22.95 80.95 16.5 84.65 30.5 69.65 36.45 66.4" fill="url(#gradient8)" fill-rule="evenodd" stroke="none"/>
    <path d="M8.9 58.9 L9.1 59.2 8.5 59.1 8.9 58.9" fill="#dcd8a4" fill-rule="evenodd" stroke="none"/>
    <path d="M8.5 59.1 L8.9 58.9 8.5 59.1" fill="#bdb461" fill-rule="evenodd" stroke="none"/>
    <path d="M8.5 59.1 Q3.0 58.25 -2.55 53.4 -7.7 48.9 -12.9 41.0 -18.15 33.0 -22.25 23.55 -24.8 17.6 -26.85 11.05 -21.8 15.2 -13.6 15.3 L-6.5 14.7 -3.5 25.1 Q5.3 53.55 8.9 58.9 L8.5 59.1 M-22.25 23.55 L-15.15 18.25 -13.6 15.3 -15.15 18.25 -22.25 23.55 M-3.35 46.5 L-3.35 36.05 -3.35 46.5 M-15.45 34.4 L-12.9 31.15 -15.45 34.4 M-17.3 28.5 L-16.0 26.75 -17.3 28.5 M-10.8 40.75 L-8.6 34.15 -10.8 40.75" fill="url(#gradient9)" fill-rule="evenodd" stroke="none"/>
    <path d="M-18.0 -82.95 Q-15.3 -84.4 -12.1 -84.55 1.4 -85.45 15.5 -63.95 L15.7 -63.65 17.65 -60.6 Q22.0 -53.5 25.55 -45.4 32.25 -30.1 36.2 -11.25 37.6 -4.55 38.45 1.75 41.15 21.2 38.8 36.9 L37.75 42.65 Q34.75 56.6 28.45 62.3 L28.45 62.35 28.95 67.45 36.45 66.4 22.95 80.95 16.5 84.65 -0.65 70.65 5.55 66.95 Q-4.8 63.45 -15.5 47.25 -29.65 25.8 -36.15 -5.4 -37.95 -13.95 -38.9 -21.85 -41.35 -42.85 -37.8 -59.35 -32.85 -82.05 -19.3 -82.9 L-18.0 -82.95 M-17.0 -74.65 Q-6.25 -73.45 5.0 -56.35 L5.5 -55.6 6.5 -54.0 Q10.25 -48.0 13.35 -41.15 19.7 -27.1 23.35 -9.55 L24.45 -3.9 25.15 0.55 Q27.95 19.45 25.5 34.45 L24.75 38.35 Q22.95 46.65 19.9 51.7 15.7 58.45 9.1 59.2 L8.45 59.3 M10.7 -22.2 Q13.3 -22.2 16.05 -20.65 L16.3 -18.05 Q16.7 -10.55 14.05 -7.1 9.75 -1.4 -2.7 -6.55 L-4.5 -7.35 Q2.45 -22.25 10.7 -22.2 M-33.85 -21.9 Q-35.8 -39.7 -32.75 -53.75 -31.8 -58.2 -30.45 -61.65 -29.05 -65.35 -27.2 -68.0 -23.15 -73.95 -17.0 -74.65 M-14.45 -67.8 L-16.85 -66.95 -16.85 -60.0 Q-20.1 -60.75 -23.35 -58.25 L-23.35 -65.15 Q-25.3 -65.5 -28.15 -62.1 -29.25 -55.5 -27.9 -51.1 -23.95 -53.15 -20.05 -54.2 -15.15 -55.55 -10.35 -55.45 -11.35 -60.4 -10.75 -65.2 L-10.35 -67.6 -14.45 -67.8 M8.5 59.1 Q3.0 58.25 -2.55 53.4 -7.7 48.9 -12.9 41.0 -18.15 33.0 -22.25 23.55 -24.8 17.6 -26.85 11.05 -28.7 5.3 -30.2 -0.9 L-31.3 -5.8 Q-33.05 -14.2 -33.85 -21.9 M-14.6 -3.4 L-13.65 -5.05 Q-19.5 -17.7 -29.65 -9.35 L-28.55 -7.15 -26.3 -3.3 Q-21.4 3.7 -16.85 -0.6 -15.7 -1.65 -14.6 -3.4 M21.25 64.05 L21.2 64.05 M8.9 58.9 L9.1 59.2 8.5 59.1 M5.55 66.95 L5.55 71.75" fill="none" stroke="#000000" stroke-linecap="round" stroke-linejoin="round" stroke-opacity="0.4" stroke-width="0.5"/>
    <path d="M-18.0 -82.95 Q-5.15 -82.75 8.3 -62.3 L8.7 -61.7 10.3 -59.15 10.35 -59.15 Q14.5 -52.25 18.0 -44.45 24.95 -28.9 28.95 -9.6 30.5 -2.25 31.4 4.65 33.95 24.0 31.4 39.6 L30.55 44.3 Q27.5 58.35 21.2 64.05 M-17.0 -74.65 L-19.55 -74.7 Q-23.95 -74.45 -27.35 -71.55 -33.2 -66.55 -35.95 -53.75 -39.1 -39.35 -37.0 -21.1 L-36.95 -20.8 Q-36.15 -13.6 -34.5 -5.8 -28.7 21.9 -16.15 41.0 -6.95 54.9 1.95 58.25 5.2 59.5 8.45 59.3 M21.25 64.05 L28.45 62.35 M23.5 69.65 L28.95 67.45 M23.5 69.65 L21.25 64.05 M30.5 69.65 L36.45 66.4 M30.5 69.65 L23.5 69.65 M5.55 71.75 L-0.65 70.65 M16.5 84.65 L30.5 69.65" fill="none" stroke="#efe3cb" stroke-linecap="round" stroke-linejoin="round" stroke-opacity="0.4" stroke-width="1.0"/>
    <path d="M10.5 -28.6 L8.25 -27.8 -0.1 -24.8 M-8.45 -42.3 L-11.5 -34.7 M-30.5 -30.45 L-23.75 -26.3 M-32.0 -18.85 L-26.1 -18.85 M-23.45 -38.85 L-19.05 -32.75 M-8.6 34.15 L-10.8 40.75 M-16.0 26.75 L-17.3 28.5 M-12.9 31.15 L-15.45 34.4 M-3.35 36.05 L-3.35 46.5 M19.25 22.35 L22.15 22.35 M18.25 22.35 L19.25 22.35 M19.9 29.45 L21.4 29.45 M16.6 27.1 L19.9 29.45 M11.4 31.95 L16.45 38.3 M5.15 34.25 L9.95 42.15 M1.15 -36.9 L-4.75 -30.8" fill="none" stroke="#7b791f" stroke-linecap="round" stroke-linejoin="round" stroke-width="2.0"/>
    <path d="M8.7 -61.7 L15.7 -63.65 M5.5 -55.6 L8.7 -61.7 M6.5 -54.0 L10.3 -59.15 M10.35 -59.15 L17.65 -60.6 M18.0 -44.45 L25.55 -45.4 M13.35 -41.15 L18.0 -44.45 M-37.0 -21.1 L-36.6 -20.9 -33.85 -21.9 M-36.6 -20.9 L-36.95 -20.8 M-37.0 -21.1 L-38.9 -21.85 M31.4 39.6 L38.8 36.9 M31.4 39.6 L25.5 34.45" fill="none" stroke="#000000" stroke-linecap="round" stroke-linejoin="round" stroke-opacity="0.4" stroke-width="0.5"/>
    <path d="M15.6 3.25 L24.45 -3.9 M-16.85 -0.6 L-10.5 9.3 -8.0 8.85 15.6 3.25 M-26.3 -3.3 L-30.2 -0.9 M-13.6 15.3 L-10.5 9.3 M-13.6 15.3 L-15.15 18.25 -22.25 23.55" fill="none" stroke="#988e3d" stroke-linecap="round" stroke-linejoin="round" stroke-opacity="0.4" stroke-width="0.5"/>
    <path d="M-8.0 8.85 Q-14.5 -16.95 -20.05 -54.2 M-6.5 14.7 L-8.0 8.85 M8.9 58.9 Q5.3 53.55 -3.5 25.1 L-6.5 14.7" fill="none" stroke="#000000" stroke-linecap="round" stroke-linejoin="round" stroke-opacity="0.4" stroke-width="2.0"/>
    <path d="M15.7 -63.65 L17.65 -60.6 Q22.0 -53.5 25.55 -45.4 32.25 -30.1 36.2 -11.25 37.6 -4.55 38.45 1.75 41.15 21.2 38.8 36.9 L37.75 42.65 Q34.75 56.6 28.45 62.3 L28.45 62.35 28.95 67.45 36.45 66.4 22.95 80.95 16.5 84.65 -0.65 70.65 5.55 66.95 Q-4.8 63.45 -15.5 47.25 -29.65 25.8 -36.15 -5.4 -37.95 -13.95 -38.9 -21.85 -41.35 -42.85 -37.8 -59.35 -32.85 -82.05 -19.3 -82.9 L-18.0 -82.95 Q-15.3 -84.4 -12.1 -84.55 1.4 -85.45 15.5 -63.95 L15.7 -63.65 Z" fill="none" stroke="#000000" stroke-linecap="round" stroke-linejoin="round" stroke-opacity="0.4" stroke-width="1.0"/>
  </g>
  <defs>
    <linearGradient gradientTransform="matrix(-0.0259, -0.0574, 0.0135, -0.0061, 7.9, -55.05)" gradientUnits="userSpaceOnUse" id="gradient0" spreadMethod="pad" x1="-819.2" x2="819.2">
      <stop offset="0.0" stop-color="#ddb966"/>
      <stop offset="0.9882352941176471" stop-color="#ecd9ac"/>
    </linearGradient>
    <linearGradient gradientTransform="matrix(0.0323, 0.1037, -0.038, 0.0118, 0.5, 5.65)" gradientUnits="userSpaceOnUse" id="gradient1" spreadMethod="pad" x1="-819.2" x2="819.2">
      <stop offset="0.0" stop-color="#e3c88a"/>
      <stop offset="0.9882352941176471" stop-color="#b78f32"/>
    </linearGradient>
    <linearGradient gradientTransform="matrix(0.0098, 0.0371, -0.0205, 0.0054, -15.6, -1.65)" gradientUnits="userSpaceOnUse" id="gradient2" spreadMethod="pad" x1="-819.2" x2="819.2">
      <stop offset="0.0" stop-color="#574417"/>
      <stop offset="0.9882352941176471" stop-color="#b78f32"/>
    </linearGradient>
    <linearGradient gradientTransform="matrix(-0.0149, -0.0555, 0.0192, -0.0052, -23.25, -37.4)" gradientUnits="userSpaceOnUse" id="gradient3" spreadMethod="pad" x1="-819.2" x2="819.2">
      <stop offset="0.0" stop-color="#dcd8a4"/>
      <stop offset="0.9882352941176471" stop-color="#eae6c8"/>
    </linearGradient>
    <linearGradient gradientTransform="matrix(-0.0237, -0.0557, 0.0172, -0.0073, -13.25, -40.25)" gradientUnits="userSpaceOnUse" id="gradient4" spreadMethod="pad" x1="-819.2" x2="819.2">
      <stop offset="0.0" stop-color="#dcd8a4"/>
      <stop offset="0.9882352941176471" stop-color="#eae6c8"/>
    </linearGradient>
    <linearGradient gradientTransform="matrix(0.007, -0.0415, 0.0077, 0.0013, 34.05, 26.2)" gradientUnits="userSpaceOnUse" id="gradient5" spreadMethod="pad" x1="-819.2" x2="819.2">
      <stop offset="0.0" stop-color="#574417"/>
      <stop offset="0.9882352941176471" stop-color="#b78f32"/>
    </linearGradient>
    <linearGradient gradientTransform="matrix(0.0171, 0.0171, -0.018, 0.018, 11.85, 32.4)" gradientUnits="userSpaceOnUse" id="gradient6" spreadMethod="pad" x1="-819.2" x2="819.2">
      <stop offset="0.0" stop-color="#b3ab5c"/>
      <stop offset="0.9882352941176471" stop-color="#a0984e"/>
    </linearGradient>
    <linearGradient gradientTransform="matrix(8.0E-4, -0.0048, 0.0049, 8.0E-4, 25.1, 65.9)" gradientUnits="userSpaceOnUse" id="gradient7" spreadMethod="pad" x1="-819.2" x2="819.2">
      <stop offset="0.0" stop-color="#574417"/>
      <stop offset="0.9882352941176471" stop-color="#7e6222"/>
    </linearGradient>
    <linearGradient gradientTransform="matrix(0.0122, 0.0, 0.0, 0.0111, 26.45, 75.5)" gradientUnits="userSpaceOnUse" id="gradient8" spreadMethod="pad" x1="-819.2" x2="819.2">
      <stop offset="0.0" stop-color="#574417"/>
      <stop offset="0.9882352941176471" stop-color="#7e6222"/>
    </linearGradient>
    <linearGradient gradientTransform="matrix(0.006, 0.0222, -0.013, 0.0035, -8.45, 36.95)" gradientUnits="userSpaceOnUse" id="gradient9" spreadMethod="pad" x1="-819.2" x2="819.2">
      <stop offset="0.0" stop-color="#b3ab5c"/>
      <stop offset="0.9882352941176471" stop-color="#a0984e"/>
    </linearGradient>
  </defs>
</svg>
