<?xml version="1.0" encoding="UTF-8" standalone="no"?>
<svg xmlns:xlink="http://www.w3.org/1999/xlink" height="79.45px" width="101.75px" xmlns="http://www.w3.org/2000/svg">
  <g transform="matrix(1.0, 0.0, 0.0, 1.0, 50.9, 39.7)">
    <path d="M16.55 -14.6 Q15.2 -14.7 13.65 -15.55 L9.1 -19.1 Q7.55 -20.5 9.1 -21.95 6.2 -21.4 4.55 -24.5 L4.55 -27.0 Q1.45 -26.85 -0.7 -22.3 L-1.7 -13.7 Q-4.95 -4.65 -11.6 -8.9 L-12.5 -6.7 -15.0 -6.35 Q-16.95 -6.05 -16.0 -4.9 L-16.85 -3.65 -11.95 -3.5 -11.15 -1.95 Q-7.7 2.75 -3.45 6.95 L2.85 12.7 9.4 17.55 17.0 19.0 Q19.45 18.7 21.95 17.05 L19.9 19.35 22.25 19.05 26.3 24.1 25.85 24.45 25.75 24.5 19.7 23.05 10.95 24.4 Q7.6 24.9 5.4 28.1 L4.0 32.5 Q-3.45 28.65 -9.6 22.05 -20.2 11.4 -23.1 -6.65 L-23.1 -11.85 -25.8 -7.3 Q-27.6 -4.55 -30.7 -4.25 -32.55 -5.05 -31.7 -8.3 L-28.65 -7.65 -28.05 -9.2 Q-26.15 -9.85 -27.4 -10.75 -28.35 -11.4 -29.35 -11.7 L-30.9 -12.0 -31.9 -12.05 Q-30.6 -15.35 -28.25 -17.75 L-23.9 -16.25 -23.1 -17.75 Q-21.2 -18.35 -22.45 -19.3 -23.9 -20.25 -25.55 -20.5 -24.75 -23.5 -22.95 -25.95 L-22.9 -25.95 -19.55 -24.7 -18.95 -25.75 Q-17.05 -26.4 -18.3 -27.3 -19.85 -28.3 -21.6 -28.55 -21.15 -30.0 -20.1 -31.35 L-20.05 -31.35 -16.65 -30.45 -15.85 -31.4 Q-14.25 -32.05 -15.3 -32.95 -16.4 -33.8 -17.65 -34.1 L-15.1 -37.1 -14.55 -37.8 Q-10.05 -40.3 -5.85 -38.3 5.4 -30.85 15.55 -27.5 18.8 -26.05 19.8 -22.55 20.7 -20.2 20.75 -18.1 19.45 -15.6 18.8 -15.25 L16.55 -14.6 M13.0 1.0 Q15.4 2.95 20.1 4.45 L25.1 5.85 29.1 5.95 34.15 6.1 38.45 6.25 45.95 6.85 36.4 8.05 29.65 10.75 21.9 12.55 Q12.6 15.1 5.55 13.5 L1.35 10.25 -0.45 8.45 Q3.9 8.25 8.25 6.2 12.95 3.6 13.0 1.0 M-39.85 -9.35 L-36.75 -14.85 Q-33.25 -22.4 -25.8 -27.45 L-25.15 -26.75 -26.45 -25.95 -24.7 -25.95 Q-26.75 -23.25 -26.8 -20.6 L-29.2 -20.25 Q-30.7 -19.5 -29.35 -18.7 L-30.65 -17.75 -29.45 -17.75 Q-32.2 -15.75 -33.15 -11.95 L-34.1 -11.75 Q-35.6 -11.0 -34.25 -10.2 L-33.65 -10.35 -34.55 -9.15 Q-36.1 -6.55 -36.9 -0.25 L-39.75 -0.45 -39.8 -1.95 Q-39.95 -5.8 -38.5 -8.65 L-36.55 -12.4 -39.85 -9.35 M30.85 6.9 L25.1 5.85 30.85 6.9" fill="#f9ac44" fill-rule="evenodd" stroke="none"/>
    <path d="M16.55 -14.6 L18.8 -15.25 Q19.45 -15.6 20.75 -18.1 20.75 -16.25 20.1 -14.6 L15.05 -12.0 Q8.85 -10.4 3.3 -11.95 L2.1 -13.65 2.15 -15.05 Q2.35 -18.45 3.75 -21.2 L3.75 -17.95 6.6 -19.3 9.15 -17.3 5.1 -15.75 4.05 -13.4 9.95 -12.7 Q15.15 -13.7 16.55 -14.6 M7.5 -17.9 Q4.25 -17.4 2.15 -15.05 4.25 -17.4 7.5 -17.9" fill="url(#gradient0)" fill-rule="evenodd" stroke="none"/>
    <path d="M-11.6 -8.9 Q-4.95 -4.65 -1.7 -13.7 L-0.7 -22.3 Q1.45 -26.85 4.55 -27.0 L4.55 -24.5 Q6.2 -21.4 9.1 -21.95 7.55 -20.5 9.1 -19.1 L13.65 -15.55 Q15.2 -14.7 16.55 -14.6 15.15 -13.7 9.95 -12.7 L4.05 -13.4 5.1 -15.75 9.15 -17.3 6.6 -19.3 3.75 -17.95 3.75 -21.2 4.3 -22.15 3.75 -21.2 Q2.35 -18.45 2.15 -15.05 L2.1 -13.65 3.3 -11.95 5.8 -8.5 7.25 -6.7 Q0.3 -2.55 -10.25 -2.0 L-11.15 -1.95 -11.95 -3.5 -12.4 -4.85 -8.95 -4.15 Q-8.0 -5.1 -8.95 -6.0 L-12.5 -6.7 -11.6 -8.9" fill="url(#gradient1)" fill-rule="evenodd" stroke="none"/>
    <path d="M5.8 -8.5 L8.1 -8.5 11.6 -1.85 11.6 -0.4 8.25 -6.3 Q2.4 -1.7 -9.1 -0.65 L-10.25 -2.0 Q0.3 -2.55 7.25 -6.7 L5.8 -8.5 M-36.9 -0.25 L-35.5 -0.15 -32.15 0.05 Q-29.4 0.3 -26.25 0.1 L-25.0 0.0 -25.1 1.6 -39.75 0.9 -40.5 -0.8 -39.8 -1.95 -39.75 -0.45 -36.9 -0.25" fill="#d27e02" fill-rule="evenodd" stroke="none"/>
    <path d="M-9.1 -0.65 Q2.4 -1.7 8.25 -6.3 L11.6 -0.4 11.6 -0.35 11.6 0.35 Q7.8 4.95 -0.7 6.55 -4.1 5.25 -9.1 -0.65" fill="url(#gradient2)" fill-rule="evenodd" stroke="none"/>
    <path d="M2.85 12.7 L-3.45 6.95 -0.7 6.55 Q7.8 4.95 11.6 0.35 L11.6 -0.35 13.0 1.0 Q12.95 3.6 8.25 6.2 3.9 8.25 -0.45 8.45 L1.35 10.25 5.55 13.5 2.85 12.7" fill="url(#gradient3)" fill-rule="evenodd" stroke="none"/>
    <path d="M-17.65 -34.1 Q-16.4 -33.8 -15.3 -32.95 -14.25 -32.05 -15.85 -31.4 -17.35 -32.45 -18.9 -32.6 L-21.05 -32.4 -21.1 -32.45 Q-22.15 -33.2 -20.9 -33.95 L-19.75 -34.2 -18.5 -34.25 -17.65 -34.1 M-21.6 -28.55 Q-19.85 -28.3 -18.3 -27.3 -17.05 -26.4 -18.95 -25.75 -20.5 -26.7 -22.15 -26.9 L-25.15 -26.75 -25.8 -27.45 Q-25.85 -27.8 -25.35 -28.15 L-25.0 -28.3 -23.2 -28.6 -21.6 -28.55 M-25.55 -20.5 Q-23.9 -20.25 -22.45 -19.3 -21.2 -18.35 -23.1 -17.75 -24.75 -18.7 -26.5 -18.9 L-26.95 -18.9 -29.35 -18.7 Q-30.7 -19.5 -29.2 -20.25 L-26.8 -20.6 -25.55 -20.5 M-31.9 -12.05 L-30.9 -12.0 -29.35 -11.7 Q-28.35 -11.4 -27.4 -10.75 -26.15 -9.85 -28.05 -9.2 -30.25 -10.55 -32.6 -10.45 L-33.65 -10.35 -34.25 -10.2 Q-35.6 -11.0 -34.1 -11.75 L-33.15 -11.95 -31.9 -12.05 M-16.0 -4.9 Q-16.95 -6.05 -15.0 -6.35 L-12.5 -6.7 -8.95 -6.0 Q-8.0 -5.1 -8.95 -4.15 L-12.4 -4.85 Q-14.1 -5.05 -16.0 -4.9" fill="#a06800" fill-rule="evenodd" stroke="none"/>
    <path d="M-15.85 -31.4 L-16.65 -30.45 -20.05 -31.35 -18.9 -32.6 Q-17.35 -32.45 -15.85 -31.4" fill="url(#gradient4)" fill-rule="evenodd" stroke="none"/>
    <path d="M-15.1 -37.1 L-17.65 -34.1 -18.5 -34.25 -16.7 -36.75 -15.1 -37.1" fill="url(#gradient5)" fill-rule="evenodd" stroke="none"/>
    <path d="M-25.15 -28.45 L-22.95 -31.2 -21.5 -31.3 -23.2 -28.6 -25.0 -28.3 -25.15 -28.45 M-19.75 -34.2 Q-18.5 -36.05 -16.7 -36.75 L-18.5 -34.25 -19.75 -34.2" fill="#f9a636" fill-rule="evenodd" stroke="none"/>
    <path d="M-20.05 -31.35 L-20.1 -31.35 -21.5 -31.3 -22.95 -31.2 -21.1 -32.45 -21.05 -32.4 -18.9 -32.6 -20.05 -31.35" fill="url(#gradient6)" fill-rule="evenodd" stroke="none"/>
    <path d="M-20.1 -31.35 Q-21.15 -30.0 -21.6 -28.55 L-23.2 -28.6 -21.5 -31.3 -20.1 -31.35" fill="url(#gradient7)" fill-rule="evenodd" stroke="none"/>
    <path d="M-18.95 -25.75 L-19.55 -24.7 -22.9 -25.95 -22.15 -26.9 Q-20.5 -26.7 -18.95 -25.75" fill="url(#gradient8)" fill-rule="evenodd" stroke="none"/>
    <path d="M-22.9 -25.95 L-22.95 -25.95 -24.7 -25.95 -26.45 -25.95 -25.15 -26.75 -22.15 -26.9 -22.9 -25.95" fill="url(#gradient9)" fill-rule="evenodd" stroke="none"/>
    <path d="M-22.95 -25.95 Q-24.75 -23.5 -25.55 -20.5 L-26.8 -20.6 Q-26.75 -23.25 -24.7 -25.95 L-22.95 -25.95" fill="url(#gradient10)" fill-rule="evenodd" stroke="none"/>
    <path d="M-23.1 -17.75 L-23.9 -16.25 -28.25 -17.75 -26.95 -18.9 -26.5 -18.9 Q-24.75 -18.7 -23.1 -17.75" fill="url(#gradient11)" fill-rule="evenodd" stroke="none"/>
    <path d="M-29.35 -18.7 L-26.95 -18.9 -28.25 -17.75 -29.45 -17.75 -30.65 -17.75 -29.35 -18.7" fill="url(#gradient12)" fill-rule="evenodd" stroke="none"/>
    <path d="M-28.25 -17.75 Q-30.6 -15.35 -31.9 -12.05 L-33.15 -11.95 Q-32.2 -15.75 -29.45 -17.75 L-28.25 -17.75" fill="url(#gradient13)" fill-rule="evenodd" stroke="none"/>
    <path d="M-34.55 -9.15 L-33.55 -8.85 Q-35.5 -5.2 -35.5 -0.15 L-36.9 -0.25 Q-36.1 -6.55 -34.55 -9.15" fill="url(#gradient14)" fill-rule="evenodd" stroke="none"/>
    <path d="M-33.55 -8.85 L-34.55 -9.15 -33.65 -10.35 -32.6 -10.45 -33.55 -8.85" fill="url(#gradient15)" fill-rule="evenodd" stroke="none"/>
    <path d="M-28.05 -9.2 L-28.65 -7.65 -31.7 -8.3 -33.55 -8.85 -32.6 -10.45 Q-30.25 -10.55 -28.05 -9.2" fill="url(#gradient16)" fill-rule="evenodd" stroke="none"/>
    <path d="M-31.7 -8.3 Q-32.55 -5.05 -30.7 -4.25 -27.6 -4.55 -25.8 -7.3 L-23.1 -11.85 -23.1 -6.65 Q-20.2 11.4 -9.6 22.05 -3.45 28.65 4.0 32.5 L5.7 33.3 6.35 32.4 Q7.1 28.25 10.55 26.8 7.55 30.85 7.55 34.9 6.55 34.95 5.85 35.6 5.4 35.95 5.25 36.45 L3.9 35.6 Q-11.6 27.15 -19.5 10.95 L-20.2 9.45 Q-22.3 4.9 -23.8 -0.15 L-24.35 -2.25 Q-25.15 -5.25 -24.2 -8.25 L-26.6 -3.3 -26.25 0.1 Q-29.4 0.3 -32.15 0.05 L-35.5 -0.15 Q-35.5 -5.2 -33.55 -8.85 L-31.7 -8.3" fill="url(#gradient17)" fill-rule="evenodd" stroke="none"/>
    <path d="M-48.25 21.6 L-48.25 21.1 Q-43.65 15.1 -42.1 3.5 L-40.5 -8.15 -39.85 -9.35 -36.55 -12.4 -38.5 -8.65 Q-39.95 -5.8 -39.8 -1.95 L-40.5 -0.8 -40.5 5.75 -42.6 14.6 Q-43.6 18.1 -46.15 20.5 L-48.25 22.5 -48.25 21.6" fill="url(#gradient18)" fill-rule="evenodd" stroke="none"/>
    <path d="M-23.8 -0.15 L-25.0 0.0 -26.25 0.1 -26.6 -3.3 -24.2 -8.25 Q-25.15 -5.25 -24.35 -2.25 L-23.8 -0.15" fill="url(#gradient19)" fill-rule="evenodd" stroke="none"/>
    <path d="M-3.45 6.95 Q-7.7 2.75 -11.15 -1.95 L-10.25 -2.0 -9.1 -0.65 Q-4.1 5.25 -0.7 6.55 L-3.45 6.95 M-25.0 0.0 L-23.8 -0.15 Q-22.3 4.9 -20.2 9.45 L-21.85 9.6 -25.1 1.6 -25.0 0.0" fill="#653d01" fill-rule="evenodd" stroke="none"/>
    <path d="M-11.95 -3.5 L-16.85 -3.65 -16.0 -4.9 Q-14.1 -5.05 -12.4 -4.85 L-11.95 -3.5" fill="url(#gradient20)" fill-rule="evenodd" stroke="none"/>
    <path d="M-19.5 10.95 Q-23.3 12.5 -24.95 15.85 L-25.4 16.85 -27.4 17.4 -28.35 16.75 -28.45 16.7 -28.5 16.7 Q-31.5 15.5 -38.3 18.4 L-43.5 21.1 Q-39.85 16.35 -35.1 15.0 L-31.0 14.05 -27.8 15.1 -26.25 13.05 -35.05 10.7 -25.6 11.35 -24.15 9.75 -21.85 9.6 -20.2 9.45 -19.5 10.95" fill="#482604" fill-rule="evenodd" stroke="none"/>
    <path d="M-25.1 1.6 L-21.85 9.6 -24.15 9.75 -39.4 9.2 Q-40.4 8.7 -40.5 5.75 L-40.5 -0.8 -39.75 0.9 -25.1 1.6" fill="url(#gradient21)" fill-rule="evenodd" stroke="none"/>
    <path d="M-43.5 21.1 L-45.5 23.05 -45.75 23.3 -48.1 23.0 -48.25 22.8 -48.25 22.5 -46.15 20.5 Q-43.6 18.1 -42.6 14.6 L-40.5 5.75 Q-40.4 8.7 -39.4 9.2 L-24.15 9.75 -25.6 11.35 -35.05 10.7 -26.25 13.05 -27.8 15.1 -31.0 14.05 -35.1 15.0 Q-39.85 16.35 -43.5 21.1" fill="url(#gradient22)" fill-rule="evenodd" stroke="none"/>
    <path d="M-24.95 15.85 L-24.35 16.25 Q-23.65 16.9 -23.6 17.8 -23.65 18.7 -24.35 19.35 -25.1 20.0 -26.15 20.0 -27.25 20.0 -27.95 19.35 -28.7 18.7 -28.7 17.8 L-28.55 17.1 -28.35 16.75 -27.4 17.4 -25.4 16.85 -24.95 15.85 M-45.5 23.05 L-45.3 23.8 Q-45.35 24.65 -46.05 25.35 -46.8 26.0 -47.85 26.0 -48.95 26.0 -49.65 25.35 -50.4 24.65 -50.4 23.8 L-50.35 23.75 -50.0 24.35 -49.15 24.65 Q-48.65 24.65 -48.25 24.35 -47.9 24.0 -47.9 23.6 L-48.1 23.0 -45.75 23.3 -45.5 23.05" fill="#7d2424" fill-rule="evenodd" stroke="none"/>
    <path d="M25.75 24.5 L25.85 24.45 26.3 24.1 Q26.9 23.75 27.65 23.8 28.7 23.75 29.45 24.45 30.2 25.1 30.2 26.0 30.2 26.9 29.45 27.55 28.7 28.2 27.65 28.2 26.55 28.2 25.85 27.55 25.1 26.9 25.1 26.0 L25.1 25.7 Q25.2 25.05 25.75 24.5 M45.95 6.85 L46.0 6.85 46.45 6.5 47.8 6.2 Q48.85 6.15 49.6 6.85 50.3 7.5 50.35 8.4 50.3 9.25 49.6 9.95 48.85 10.6 47.8 10.6 46.7 10.6 46.0 9.95 45.25 9.25 45.25 8.4 L45.25 8.1 45.3 7.95 Q45.4 7.35 45.95 6.85 M49.25 7.65 Q49.25 7.2 48.9 6.85 48.5 6.55 48.0 6.55 L47.35 6.7 47.15 6.85 47.1 6.9 46.8 7.4 46.75 7.5 46.75 7.65 47.15 8.4 Q47.5 8.7 48.0 8.7 L48.9 8.4 49.25 7.65 M28.45 24.7 L27.55 24.4 26.9 24.55 26.7 24.7 26.65 24.75 26.35 25.25 26.3 25.35 26.3 25.5 26.7 26.25 27.55 26.55 28.45 26.25 28.8 25.5 Q28.8 25.05 28.45 24.7 M7.55 34.9 L7.65 34.9 Q8.7 34.9 9.45 35.6 10.2 36.25 10.2 37.15 10.2 38.0 9.45 38.7 L8.35 39.25 6.95 39.25 Q6.35 39.1 5.85 38.7 5.1 38.0 5.15 37.15 L5.25 36.45 Q5.4 35.95 5.85 35.6 6.55 34.95 7.55 34.9 M-50.4 23.8 L-50.4 23.6 -50.35 23.75 -50.4 23.8 M-50.35 23.35 Q-50.25 22.75 -49.7 22.25 L-49.65 22.25 -49.2 21.9 -48.25 21.6 -48.25 22.5 -48.25 22.8 Q-48.65 22.5 -49.15 22.5 L-49.8 22.65 -50.0 22.8 -50.05 22.85 -50.35 23.35 M7.35 35.5 L7.15 35.65 7.1 35.7 6.8 36.2 6.75 36.3 6.75 36.45 7.15 37.2 8.0 37.5 8.9 37.2 9.25 36.45 Q9.25 36.0 8.9 35.65 8.5 35.35 8.0 35.35 L7.35 35.5" fill="#a93430" fill-rule="evenodd" stroke="none"/>
    <path d="M49.25 7.65 L48.9 8.4 48.0 8.7 Q47.5 8.7 47.15 8.4 L46.75 7.65 46.75 7.5 46.8 7.4 47.1 6.9 47.15 6.85 47.35 6.7 48.0 6.55 Q48.5 6.55 48.9 6.85 49.25 7.2 49.25 7.65 M28.45 24.7 Q28.8 25.05 28.8 25.5 L28.45 26.25 27.55 26.55 26.7 26.25 26.3 25.5 26.3 25.35 26.35 25.25 26.65 24.75 26.7 24.7 26.9 24.55 27.55 24.4 28.45 24.7 M-50.4 23.6 L-50.4 23.5 -50.4 23.45 -50.35 23.35 -50.05 22.85 -50.0 22.8 -49.8 22.65 -49.15 22.5 Q-48.65 22.5 -48.25 22.8 L-48.1 23.0 -47.9 23.6 Q-47.9 24.0 -48.25 24.35 -48.65 24.65 -49.15 24.65 L-50.0 24.35 -50.35 23.75 -50.4 23.6 M7.35 35.5 L8.0 35.35 Q8.5 35.35 8.9 35.65 9.25 36.0 9.25 36.45 L8.9 37.2 8.0 37.5 7.15 37.2 6.75 36.45 6.75 36.3 6.8 36.2 7.1 35.7 7.15 35.65 7.35 35.5" fill="#ca4524" fill-rule="evenodd" stroke="none"/>
    <path d="M22.25 19.05 L19.9 19.35 21.95 17.05 Q19.45 18.7 17.0 19.0 L9.4 17.55 2.85 12.7 5.55 13.5 Q12.6 15.1 21.9 12.55 L29.65 10.75 36.4 8.05 45.95 6.85 Q45.4 7.35 45.3 7.95 L44.75 8.05 Q39.45 8.15 34.15 10.25 31.65 11.2 29.1 12.65 L28.15 13.2 22.25 19.05" fill="url(#gradient23)" fill-rule="evenodd" stroke="none"/>
    <path d="M4.0 32.5 L5.4 28.1 Q7.6 24.9 10.95 24.4 L19.7 23.05 25.75 24.5 Q25.2 25.05 25.1 25.7 20.7 24.05 10.55 26.8 7.1 28.25 6.35 32.4 L5.7 33.3 4.0 32.5" fill="url(#gradient24)" fill-rule="evenodd" stroke="none"/>
    <path d="M20.75 -18.1 Q20.7 -20.2 19.8 -22.55 18.8 -26.05 15.55 -27.5 5.4 -30.85 -5.85 -38.3 -10.05 -40.3 -14.55 -37.8 L-15.1 -37.1 -17.65 -34.1 Q-16.4 -33.8 -15.3 -32.95 -14.25 -32.05 -15.85 -31.4 -17.35 -32.45 -18.9 -32.6 L-20.05 -31.35 -20.1 -31.35 Q-21.15 -30.0 -21.6 -28.55 -19.85 -28.3 -18.3 -27.3 -17.05 -26.4 -18.95 -25.75 -20.5 -26.7 -22.15 -26.9 L-22.9 -25.95 -22.95 -25.95 Q-24.75 -23.5 -25.55 -20.5 -23.9 -20.25 -22.45 -19.3 -21.2 -18.35 -23.1 -17.75 -24.75 -18.7 -26.5 -18.9 L-26.95 -18.9 -28.25 -17.75 Q-30.6 -15.35 -31.9 -12.05 L-30.9 -12.0 -29.35 -11.7 Q-28.35 -11.4 -27.4 -10.75 -26.15 -9.85 -28.05 -9.2 -30.25 -10.55 -32.6 -10.45 L-33.65 -10.35 -34.25 -10.2 Q-35.6 -11.0 -34.1 -11.75 L-33.15 -11.95 -31.9 -12.05 M25.75 24.5 L25.85 24.45 26.3 24.1 22.25 19.05 28.15 13.2 29.1 12.65 Q31.65 11.2 34.15 10.25 39.45 8.15 44.75 8.05 L45.3 7.95 Q45.4 7.35 45.95 6.85 L46.0 6.85 46.45 6.5 47.8 6.2 Q48.85 6.15 49.6 6.85 50.3 7.5 50.35 8.4 50.3 9.25 49.6 9.95 48.85 10.6 47.8 10.6 46.7 10.6 46.0 9.95 45.25 9.25 45.25 8.4 L45.25 8.1 45.3 7.95 M9.4 17.55 L2.85 12.7 -3.45 6.95 Q-7.7 2.75 -11.15 -1.95 L-11.95 -3.5 -12.4 -4.85 -8.95 -4.15 Q-8.0 -5.1 -8.95 -6.0 L-12.5 -6.7 -11.6 -8.9 M-16.0 -4.9 Q-16.95 -6.05 -15.0 -6.35 L-12.5 -6.7 M3.75 -21.2 L4.3 -22.15 M3.3 -11.95 L2.1 -13.65 2.15 -15.05 Q2.35 -18.45 3.75 -21.2 M2.15 -15.05 Q4.25 -17.4 7.5 -17.9 M11.6 -0.4 L11.6 -1.85 8.1 -8.5 5.8 -8.5 7.25 -6.7 Q0.3 -2.55 -10.25 -2.0 L-11.15 -1.95 M11.6 -0.4 L11.6 -0.35 13.0 1.0 Q15.4 2.95 20.1 4.45 L25.1 5.85 29.1 5.95 34.15 6.1 38.45 6.25 45.95 6.85 M5.8 -8.5 L3.3 -11.95 Q8.85 -10.4 15.05 -12.0 L20.1 -14.6 Q20.75 -16.25 20.75 -18.1 M11.6 -0.35 L11.6 0.35 Q7.8 4.95 -0.7 6.55 L-3.45 6.95 M21.9 12.55 Q12.6 15.1 5.55 13.5 L2.85 12.7 M26.3 24.1 Q26.9 23.75 27.65 23.8 28.7 23.75 29.45 24.45 30.2 25.1 30.2 26.0 30.2 26.9 29.45 27.55 28.7 28.2 27.65 28.2 26.55 28.2 25.85 27.55 25.1 26.9 25.1 26.0 L25.1 25.7 Q20.7 24.05 10.55 26.8 7.55 30.85 7.55 34.9 L7.65 34.9 Q8.7 34.9 9.45 35.6 10.2 36.25 10.2 37.15 10.2 38.0 9.45 38.7 L8.35 39.25 M6.95 39.25 Q6.35 39.1 5.85 38.7 5.1 38.0 5.15 37.15 L5.25 36.45 3.9 35.6 Q-11.6 27.15 -19.5 10.95 -23.3 12.5 -24.95 15.85 L-25.4 16.85 -27.4 17.4 -28.35 16.75 -28.45 16.7 -28.5 16.7 Q-31.5 15.5 -38.3 18.4 L-43.5 21.1 -45.5 23.05 -45.3 23.8 Q-45.35 24.65 -46.05 25.35 -46.8 26.0 -47.85 26.0 -48.95 26.0 -49.65 25.35 -50.4 24.65 -50.4 23.8 L-50.4 23.6 M-50.4 23.5 L-50.4 23.45 -50.35 23.35 Q-50.25 22.75 -49.7 22.25 L-49.65 22.25 -49.2 21.9 -48.25 21.6 -48.25 21.1 Q-43.65 15.1 -42.1 3.5 L-40.5 -8.15 -39.85 -9.35 -36.75 -14.85 Q-33.25 -22.4 -25.8 -27.45 -25.85 -27.8 -25.35 -28.15 L-25.15 -28.45 -22.95 -31.2 -21.1 -32.45 Q-22.15 -33.2 -20.9 -33.95 L-19.75 -34.2 Q-18.5 -36.05 -16.7 -36.75 L-15.1 -37.1 M25.1 5.85 L30.85 6.9 M5.25 36.45 Q5.4 35.95 5.85 35.6 6.55 34.95 7.55 34.9 M10.55 26.8 Q7.1 28.25 6.35 32.4 M25.1 25.7 Q25.2 25.05 25.75 24.5 M-17.65 -34.1 L-18.5 -34.25 -19.75 -34.2 M-21.1 -32.45 L-21.05 -32.4 -18.9 -32.6 M-26.8 -20.6 L-25.55 -20.5 M-25.15 -26.75 L-22.15 -26.9 M-25.8 -27.45 L-25.15 -26.75 M-25.0 -28.3 L-23.2 -28.6 -21.6 -28.55 M-25.0 -28.3 L-25.35 -28.15 M-26.8 -20.6 L-29.2 -20.25 Q-30.7 -19.5 -29.35 -18.7 L-26.95 -18.9 M-36.9 -0.25 L-35.5 -0.15 Q-35.5 -5.2 -33.55 -8.85 L-32.6 -10.45 M-39.8 -1.95 L-39.75 -0.45 -36.9 -0.25 M-40.5 -0.8 L-39.8 -1.95 Q-39.95 -5.8 -38.5 -8.65 M-25.0 0.0 L-23.8 -0.15 -24.35 -2.25 Q-25.15 -5.25 -24.2 -8.25 M-26.25 0.1 L-25.0 0.0 M-21.85 9.6 L-20.2 9.45 Q-22.3 4.9 -23.8 -0.15 M-16.0 -4.9 Q-14.1 -5.05 -12.4 -4.85 M-20.2 9.45 L-19.5 10.95 M-24.15 9.75 L-39.4 9.2 Q-40.4 8.7 -40.5 5.75 L-40.5 -0.8 M-48.25 22.5 L-48.25 22.8 M-48.1 23.0 L-45.75 23.3 -45.5 23.05 M-24.15 9.75 L-21.85 9.6 M-26.25 0.1 Q-29.4 0.3 -32.15 0.05 L-35.5 -0.15 M-48.25 22.5 L-48.25 21.6 M-43.5 21.1 Q-39.85 16.35 -35.1 15.0" fill="none" stroke="#000000" stroke-linecap="round" stroke-linejoin="round" stroke-opacity="0.4" stroke-width="0.5"/>
    <path d="M-24.95 15.85 L-24.35 16.25 Q-23.65 16.9 -23.6 17.8 -23.65 18.7 -24.35 19.35 -25.1 20.0 -26.15 20.0 -27.25 20.0 -27.95 19.35 -28.7 18.7 -28.7 17.8 L-28.55 17.1 -28.35 16.75" fill="none" stroke="#000000" stroke-linecap="round" stroke-linejoin="round" stroke-opacity="0.4" stroke-width="0.5"/>
    <path d="M8.1 -8.5 L11.6 -1.85 11.6 -0.35 13.0 1.0 Q15.4 2.95 20.1 4.45 L25.1 5.85 29.1 5.95 34.15 6.1 38.45 6.25 45.95 6.85 46.0 6.85 46.45 6.5 47.8 6.2 Q48.85 6.15 49.6 6.85 50.3 7.5 50.35 8.4 50.3 9.25 49.6 9.95 48.85 10.6 47.8 10.6 46.7 10.6 46.0 9.95 45.25 9.25 45.25 8.4 L45.25 8.1 45.3 7.95 44.75 8.05 Q39.45 8.15 34.15 10.25 31.65 11.2 29.1 12.65 L28.15 13.2 22.25 19.05 26.3 24.1 Q26.9 23.75 27.65 23.8 28.7 23.75 29.45 24.45 30.2 25.1 30.2 26.0 30.2 26.9 29.45 27.55 28.7 28.2 27.65 28.2 26.55 28.2 25.85 27.55 25.1 26.9 25.1 26.0 L25.1 25.7 Q20.7 24.05 10.55 26.8 7.55 30.85 7.55 34.9 L7.65 34.9 Q8.7 34.9 9.45 35.6 10.2 36.25 10.2 37.15 10.2 38.0 9.45 38.7 L8.35 39.25 6.95 39.25 Q6.35 39.1 5.85 38.7 5.1 38.0 5.15 37.15 L5.25 36.45 3.9 35.6 Q-11.6 27.15 -19.5 10.95 -23.3 12.5 -24.95 15.85 L-24.35 16.25 Q-23.65 16.9 -23.6 17.8 -23.65 18.7 -24.35 19.35 -25.1 20.0 -26.15 20.0 -27.25 20.0 -27.95 19.35 -28.7 18.7 -28.7 17.8 L-28.55 17.1 -28.35 16.75 -28.45 16.7 -28.5 16.7 Q-31.5 15.5 -38.3 18.4 L-43.5 21.1 -45.5 23.05 -45.3 23.8 Q-45.35 24.65 -46.05 25.35 -46.8 26.0 -47.85 26.0 -48.95 26.0 -49.65 25.35 -50.4 24.65 -50.4 23.8 L-50.4 23.6 -50.4 23.5 -50.4 23.45 -50.35 23.35 Q-50.25 22.75 -49.7 22.25 L-49.65 22.25 -49.2 21.9 -48.25 21.6 -48.25 21.1 Q-43.65 15.1 -42.1 3.5 L-40.5 -8.15 -36.75 -14.85 Q-33.25 -22.4 -25.8 -27.45 -25.85 -27.8 -25.35 -28.15 L-25.0 -28.3 -25.15 -28.45 -22.95 -31.2 -21.1 -32.45 Q-22.15 -33.2 -20.9 -33.95 L-19.75 -34.2 Q-18.5 -36.05 -16.7 -36.75 L-15.1 -37.1 -14.55 -37.8 Q-10.05 -40.3 -5.85 -38.3 5.4 -30.85 15.55 -27.5 18.8 -26.05 19.8 -22.55 20.7 -20.2 20.75 -18.1 20.75 -16.25 20.1 -14.6 L15.05 -12.0 Q8.85 -10.4 3.3 -11.95 L5.8 -8.5 8.1 -8.5 Z" fill="none" stroke="#000000" stroke-linecap="round" stroke-linejoin="round" stroke-opacity="0.4" stroke-width="1.0"/>
  </g>
  <defs>
    <linearGradient gradientTransform="matrix(0.0016, -0.0061, 0.0106, 0.0028, 11.1, -15.3)" gradientUnits="userSpaceOnUse" id="gradient0" spreadMethod="pad" x1="-819.2" x2="819.2">
      <stop offset="0.0" stop-color="#a55405"/>
      <stop offset="1.0" stop-color="#bb6109"/>
    </linearGradient>
    <linearGradient gradientTransform="matrix(0.0042, -0.0101, 0.0133, 0.0056, 2.85, -12.7)" gradientUnits="userSpaceOnUse" id="gradient1" spreadMethod="pad" x1="-819.2" x2="819.2">
      <stop offset="0.0" stop-color="#d66f07"/>
      <stop offset="1.0" stop-color="#f48313"/>
    </linearGradient>
    <linearGradient gradientTransform="matrix(-0.0051, 0.0014, -0.0016, -0.006, 2.4, 0.55)" gradientUnits="userSpaceOnUse" id="gradient2" spreadMethod="pad" x1="-819.2" x2="819.2">
      <stop offset="0.0" stop-color="#a06800"/>
      <stop offset="1.0" stop-color="#885601"/>
    </linearGradient>
    <linearGradient gradientTransform="matrix(-0.0028, -0.0028, 0.0068, -0.0068, 4.5, 3.75)" gradientUnits="userSpaceOnUse" id="gradient3" spreadMethod="pad" x1="-819.2" x2="819.2">
      <stop offset="0.0" stop-color="#a55405"/>
      <stop offset="1.0" stop-color="#bb6109"/>
    </linearGradient>
    <linearGradient gradientTransform="matrix(2.0E-4, -9.0E-4, 0.0023, 6.0E-4, -17.9, -31.5)" gradientUnits="userSpaceOnUse" id="gradient4" spreadMethod="pad" x1="-819.2" x2="819.2">
      <stop offset="0.0" stop-color="#a55405"/>
      <stop offset="1.0" stop-color="#bb6109"/>
    </linearGradient>
    <linearGradient gradientTransform="matrix(6.0E-4, -0.0021, 0.0015, 4.0E-4, -16.75, -35.65)" gradientUnits="userSpaceOnUse" id="gradient5" spreadMethod="pad" x1="-819.2" x2="819.2">
      <stop offset="0.0" stop-color="#f69521"/>
      <stop offset="1.0" stop-color="#f07b06"/>
    </linearGradient>
    <linearGradient gradientTransform="matrix(4.0E-4, -0.0014, 0.0021, 5.0E-4, -20.9, -31.95)" gradientUnits="userSpaceOnUse" id="gradient6" spreadMethod="pad" x1="-819.2" x2="819.2">
      <stop offset="0.0" stop-color="#a55405"/>
      <stop offset="1.0" stop-color="#bb6109"/>
    </linearGradient>
    <linearGradient gradientTransform="matrix(5.0E-4, -0.0021, 0.0014, 4.0E-4, -21.65, -30.0)" gradientUnits="userSpaceOnUse" id="gradient7" spreadMethod="pad" x1="-819.2" x2="819.2">
      <stop offset="0.0" stop-color="#f69521"/>
      <stop offset="1.0" stop-color="#f07b06"/>
    </linearGradient>
    <linearGradient gradientTransform="matrix(2.0E-4, -9.0E-4, 0.0023, 6.0E-4, -20.95, -25.85)" gradientUnits="userSpaceOnUse" id="gradient8" spreadMethod="pad" x1="-819.2" x2="819.2">
      <stop offset="0.0" stop-color="#a55405"/>
      <stop offset="1.0" stop-color="#bb6109"/>
    </linearGradient>
    <linearGradient gradientTransform="matrix(3.0E-4, -0.0012, 0.0023, 6.0E-4, -24.25, -26.4)" gradientUnits="userSpaceOnUse" id="gradient9" spreadMethod="pad" x1="-819.2" x2="819.2">
      <stop offset="0.0" stop-color="#a55405"/>
      <stop offset="1.0" stop-color="#bb6109"/>
    </linearGradient>
    <linearGradient gradientTransform="matrix(9.0E-4, -0.0036, 0.0015, 4.0E-4, -25.0, -23.3)" gradientUnits="userSpaceOnUse" id="gradient10" spreadMethod="pad" x1="-819.2" x2="819.2">
      <stop offset="0.0" stop-color="#d66f07"/>
      <stop offset="1.0" stop-color="#f48313"/>
    </linearGradient>
    <linearGradient gradientTransform="matrix(3.0E-4, -0.0012, 0.0029, 8.0E-4, -25.7, -17.75)" gradientUnits="userSpaceOnUse" id="gradient11" spreadMethod="pad" x1="-819.2" x2="819.2">
      <stop offset="0.0" stop-color="#a55405"/>
      <stop offset="1.0" stop-color="#bb6109"/>
    </linearGradient>
    <linearGradient gradientTransform="matrix(3.0E-4, -0.0012, 0.002, 5.0E-4, -28.8, -18.3)" gradientUnits="userSpaceOnUse" id="gradient12" spreadMethod="pad" x1="-819.2" x2="819.2">
      <stop offset="0.0" stop-color="#a55405"/>
      <stop offset="1.0" stop-color="#bb6109"/>
    </linearGradient>
    <linearGradient gradientTransform="matrix(0.0011, -0.004, 0.002, 5.0E-4, -30.7, -14.8)" gradientUnits="userSpaceOnUse" id="gradient13" spreadMethod="pad" x1="-819.2" x2="819.2">
      <stop offset="0.0" stop-color="#f69521"/>
      <stop offset="1.0" stop-color="#f07b06"/>
    </linearGradient>
    <linearGradient gradientTransform="matrix(0.0017, -0.0065, 0.0012, 3.0E-4, -34.95, -5.35)" gradientUnits="userSpaceOnUse" id="gradient14" spreadMethod="pad" x1="-819.2" x2="819.2">
      <stop offset="0.0" stop-color="#f69521"/>
      <stop offset="1.0" stop-color="#f07b06"/>
    </linearGradient>
    <linearGradient gradientTransform="matrix(0.0017, -0.0065, 0.0012, 3.0E-4, -34.95, -5.35)" gradientUnits="userSpaceOnUse" id="gradient15" spreadMethod="pad" x1="-819.2" x2="819.2">
      <stop offset="0.0" stop-color="#a55405"/>
      <stop offset="1.0" stop-color="#bb6109"/>
    </linearGradient>
    <linearGradient gradientTransform="matrix(0.0012, 0.0084, -0.0253, 0.0036, -14.85, -3.45)" gradientUnits="userSpaceOnUse" id="gradient16" spreadMethod="pad" x1="-819.2" x2="819.2">
      <stop offset="0.0" stop-color="#a55405"/>
      <stop offset="1.0" stop-color="#bb6109"/>
    </linearGradient>
    <linearGradient gradientTransform="matrix(0.0012, 0.0084, -0.0253, 0.0036, -14.85, -3.45)" gradientUnits="userSpaceOnUse" id="gradient17" spreadMethod="pad" x1="-819.2" x2="819.2">
      <stop offset="0.0" stop-color="#d66f07"/>
      <stop offset="1.0" stop-color="#f48313"/>
    </linearGradient>
    <linearGradient gradientTransform="matrix(0.0031, -0.0117, 0.0023, 6.0E-4, -41.9, 4.6)" gradientUnits="userSpaceOnUse" id="gradient18" spreadMethod="pad" x1="-819.2" x2="819.2">
      <stop offset="0.0" stop-color="#d66f07"/>
      <stop offset="1.0" stop-color="#f48313"/>
    </linearGradient>
    <linearGradient gradientTransform="matrix(0.0, -0.0037, 0.0017, 0.0, -25.2, -4.0)" gradientUnits="userSpaceOnUse" id="gradient19" spreadMethod="pad" x1="-819.2" x2="819.2">
      <stop offset="0.0" stop-color="#a55405"/>
      <stop offset="1.0" stop-color="#bb6109"/>
    </linearGradient>
    <linearGradient gradientTransform="matrix(4.0E-4, -0.0014, 0.0028, 7.0E-4, -14.3, -4.15)" gradientUnits="userSpaceOnUse" id="gradient20" spreadMethod="pad" x1="-819.2" x2="819.2">
      <stop offset="0.0" stop-color="#a55405"/>
      <stop offset="1.0" stop-color="#bb6109"/>
    </linearGradient>
    <linearGradient gradientTransform="matrix(0.0057, 0.0, 0.0, 0.0064, -30.0, 4.45)" gradientUnits="userSpaceOnUse" id="gradient21" spreadMethod="pad" x1="-819.2" x2="819.2">
      <stop offset="0.0" stop-color="#a06800"/>
      <stop offset="1.0" stop-color="#885601"/>
    </linearGradient>
    <linearGradient gradientTransform="matrix(0.0042, 0.0011, -0.003, 0.0112, -35.75, 16.45)" gradientUnits="userSpaceOnUse" id="gradient22" spreadMethod="pad" x1="-819.2" x2="819.2">
      <stop offset="0.0" stop-color="#8b4805"/>
      <stop offset="1.0" stop-color="#482604"/>
    </linearGradient>
    <linearGradient gradientTransform="matrix(0.0087, 0.0, 0.0, 0.0076, 17.5, 13.1)" gradientUnits="userSpaceOnUse" id="gradient23" spreadMethod="pad" x1="-819.2" x2="819.2">
      <stop offset="0.0" stop-color="#d66f07"/>
      <stop offset="1.0" stop-color="#f48313"/>
    </linearGradient>
    <linearGradient gradientTransform="matrix(0.0133, 0.0, 0.0, 0.0063, 14.85, 28.15)" gradientUnits="userSpaceOnUse" id="gradient24" spreadMethod="pad" x1="-819.2" x2="819.2">
      <stop offset="0.0" stop-color="#d66f07"/>
      <stop offset="1.0" stop-color="#f48313"/>
    </linearGradient>
  </defs>
</svg>
