<?xml version="1.0" encoding="UTF-8" standalone="no"?>
<svg xmlns:xlink="http://www.w3.org/1999/xlink" height="52.5px" width="149.1px" xmlns="http://www.w3.org/2000/svg">
  <g transform="matrix(1.0, 0.0, 0.0, 1.0, 74.55, 26.25)">
    <path d="M16.45 -21.25 Q16.45 -18.3 18.6 -15.35 L12.05 0.6 9.25 4.95 7.6 5.55 9.75 2.1 10.0 1.7 10.25 1.3 10.95 -1.2 12.7 -6.85 13.4 -9.1 16.45 -21.25 M30.8 5.5 Q27.7 7.75 25.85 11.75 L13.85 11.8 15.8 9.6 20.25 8.05 22.5 7.25 32.0 3.95 30.8 5.5" fill="#f3ebe0" fill-rule="evenodd" stroke="none"/>
    <path d="M35.95 -14.65 L33.65 -14.15 38.35 -22.3 38.35 -18.1 35.95 -14.65" fill="#e3cfb0" fill-rule="evenodd" stroke="none"/>
    <path d="M59.7 4.3 L62.3 5.2 54.4 5.0 59.7 4.3 M52.2 22.25 L51.2 22.5 49.95 22.7 42.85 17.75 46.7 18.9 52.2 22.25 M-50.7 21.6 L-50.75 21.6 -55.0 23.5 -55.85 23.5 -48.8 19.3 -50.7 21.6 M-49.4 16.6 L-62.6 17.15 -64.2 16.25 -46.95 15.2 -49.4 16.6" fill="#896e2e" fill-rule="evenodd" stroke="none"/>
    <path d="M30.25 8.25 L31.4 6.55 34.9 5.15 Q36.65 6.4 37.15 8.85 L30.25 8.25" fill="#ac8145" fill-rule="evenodd" stroke="none"/>
    <path d="M21.45 4.25 L22.5 7.25 20.25 8.05 20.45 6.6 20.4 4.8 21.45 4.25" fill="#b37800" fill-rule="evenodd" stroke="none"/>
    <path d="M-7.55 -0.2 L-7.45 -0.05 -7.75 -0.1 -7.55 -0.2" fill="#c0993f" fill-rule="evenodd" stroke="none"/>
    <path d="M18.6 -15.35 Q16.45 -18.3 16.45 -21.25 L21.7 -24.35 28.45 -22.8 35.25 -21.25 35.25 -18.1 30.4 -16.35 22.4 -19.5 19.8 -14.95 18.6 -15.35" fill="url(#gradient0)" fill-rule="evenodd" stroke="none"/>
    <path d="M18.6 -15.35 L19.8 -14.95 26.6 -12.55 31.3 -13.6 33.65 -14.15 35.95 -14.65 33.5 -11.15 24.5 -1.45 21.6 1.6 20.3 3.0 17.35 3.0 30.7 -11.1 23.05 -8.4 11.0 4.25 9.25 4.95 12.05 0.6 18.6 -15.35" fill="url(#gradient1)" fill-rule="evenodd" stroke="none"/>
    <path d="M13.4 -9.1 L12.7 -6.85 10.95 -6.05 5.0 -4.2 8.35 -6.9 2.6 -7.65 -2.9 -12.9 -1.9 -12.9 2.6 -9.1 13.4 -9.1" fill="url(#gradient2)" fill-rule="evenodd" stroke="none"/>
    <path d="M12.7 -6.85 L10.95 -1.2 -3.25 0.3 -6.05 3.0 -8.1 3.0 -2.1 -3.45 -7.55 -0.2 -7.75 -0.1 -18.65 -1.5 -21.25 -0.1 -26.15 2.7 -27.55 2.35 -17.85 -5.15 -21.95 -3.6 -33.1 -1.8 -34.0 -3.15 -19.05 -5.85 -21.95 -7.9 -13.9 -6.85 -12.65 -7.95 -14.05 -8.95 -17.85 -11.65 -16.45 -12.05 -8.1 -6.05 -5.85 -6.3 -7.15 -7.2 0.3 -8.5 -2.9 -10.1 -6.4 -12.9 -3.25 -12.9 -2.9 -12.9 2.6 -7.65 8.35 -6.9 5.0 -4.2 10.95 -6.05 12.7 -6.85 M-11.75 -7.3 L-12.65 -7.95 -11.75 -7.3" fill="url(#gradient3)" fill-rule="evenodd" stroke="none"/>
    <path d="M35.25 -18.1 L35.25 -21.25 28.45 -22.8 28.3 -25.75 38.35 -22.3 33.65 -14.15 31.3 -13.6 35.25 -18.1" fill="url(#gradient4)" fill-rule="evenodd" stroke="none"/>
    <path d="M19.8 -14.95 L22.4 -19.5 30.4 -16.35 35.25 -18.1 31.3 -13.6 26.6 -12.55 19.8 -14.95" fill="url(#gradient5)" fill-rule="evenodd" stroke="none"/>
    <path d="M23.05 -8.4 L30.7 -11.1 17.35 3.0 14.4 3.0 11.0 4.25 23.05 -8.4" fill="url(#gradient6)" fill-rule="evenodd" stroke="none"/>
    <path d="M21.6 1.6 L24.5 -1.45 40.3 0.2 35.9 1.3 46.65 1.25 50.9 2.1 55.6 3.2 70.6 0.95 72.35 2.7 59.7 4.3 54.4 5.0 62.3 5.2 Q64.05 5.85 65.45 6.55 L72.0 6.55 74.05 8.95 69.2 8.95 59.5 8.95 55.8 8.95 67.0 10.15 70.25 10.1 Q70.8 10.9 70.95 11.8 L43.45 12.35 45.4 13.45 44.95 13.45 62.6 17.25 59.7 19.4 49.85 17.7 56.0 21.4 58.5 22.8 56.35 24.5 52.2 22.25 46.7 18.9 42.85 17.75 49.95 22.7 48.4 23.0 39.35 18.4 36.55 15.5 39.05 14.15 Q40.15 11.1 39.05 6.85 L35.9 3.2 32.0 3.95 22.5 7.25 21.45 4.25 22.4 3.75 22.4 3.1 22.4 3.0 22.35 3.0 22.2 2.75 21.6 1.6 M65.45 6.55 L56.0 6.55 65.45 6.55" fill="url(#gradient7)" fill-rule="evenodd" stroke="none"/>
    <path d="M69.2 8.95 L70.25 10.1 67.0 10.15 55.8 8.95 59.5 8.95 69.2 8.95" fill="url(#gradient8)" fill-rule="evenodd" stroke="none"/>
    <path d="M70.95 11.8 L71.0 12.4 70.85 13.45 45.4 13.45 43.45 12.35 70.95 11.8" fill="url(#gradient9)" fill-rule="evenodd" stroke="none"/>
    <path d="M59.7 19.4 L57.7 20.95 56.0 21.4 49.85 17.7 59.7 19.4" fill="url(#gradient10)" fill-rule="evenodd" stroke="none"/>
    <path d="M34.9 5.15 L30.8 5.5 32.0 3.95 35.9 3.2 39.05 6.85 Q40.15 11.1 39.05 14.15 L35.8 12.65 37.3 11.35 37.15 8.85 Q36.65 6.4 34.9 5.15" fill="url(#gradient11)" fill-rule="evenodd" stroke="none"/>
    <path d="M29.15 10.0 L30.25 8.25 37.15 8.85 37.3 11.35 35.8 12.65 32.45 15.55 Q29.6 15.05 32.45 10.0 L29.15 10.0" fill="url(#gradient12)" fill-rule="evenodd" stroke="none"/>
    <path d="M34.9 5.15 L31.4 6.55 30.25 8.25 29.15 10.0 26.9 13.45 12.85 12.95 13.85 11.8 25.85 11.75 Q27.7 7.75 30.8 5.5 L34.9 5.15" fill="url(#gradient13)" fill-rule="evenodd" stroke="none"/>
    <path d="M7.6 5.55 L9.25 4.95 11.0 4.25 14.4 3.0 17.35 3.0 20.3 3.0 21.6 1.6 22.2 2.75 19.8 3.95 14.6 3.95 4.25 7.95 -21.05 7.95 Q-22.4 9.05 -21.75 13.15 L-22.05 13.05 -23.15 11.15 -23.45 10.65 -22.35 6.45 -22.25 6.25 -21.95 5.05 -19.95 3.55 -19.95 6.55 -17.1 6.55 -10.9 6.55 5.05 6.55 7.6 5.55 M-21.25 5.75 L-19.95 6.55 -21.25 5.75" fill="url(#gradient14)" fill-rule="evenodd" stroke="none"/>
    <path d="M13.85 11.8 L12.85 12.95 11.9 14.05 10.95 15.2 Q-3.2 16.75 -21.75 13.15 -22.4 9.05 -21.05 7.95 L4.25 7.95 14.6 3.95 19.8 3.95 22.2 2.75 22.35 3.0 22.4 3.1 22.4 3.75 21.45 4.25 20.4 4.8 19.9 5.05 11.25 6.55 2.6 10.65 -15.45 10.65 Q-8.8 12.3 0.95 12.75 4.2 13.25 6.6 12.05 L11.4 8.4 Q16.45 6.45 20.45 6.6 L20.25 8.05 15.8 9.6 13.85 11.8" fill="url(#gradient15)" fill-rule="evenodd" stroke="none"/>
    <path d="M20.4 4.8 L20.45 6.6 Q16.45 6.45 11.4 8.4 L6.6 12.05 Q4.2 13.25 0.95 12.75 -8.8 12.3 -15.45 10.65 L2.6 10.65 11.25 6.55 19.9 5.05 20.4 4.8" fill="url(#gradient16)" fill-rule="evenodd" stroke="none"/>
    <path d="M12.85 12.95 L26.9 13.45 Q27.15 14.85 27.95 15.85 29.25 17.6 32.1 17.95 22.55 17.8 11.9 14.05 L12.85 12.95" fill="url(#gradient17)" fill-rule="evenodd" stroke="none"/>
    <path d="M26.9 13.45 L29.15 10.0 32.45 10.0 Q29.6 15.05 32.45 15.55 L27.95 15.85 Q27.15 14.85 26.9 13.45" fill="url(#gradient18)" fill-rule="evenodd" stroke="none"/>
    <path d="M35.8 12.65 L39.05 14.15 36.55 15.5 32.1 17.95 Q29.25 17.6 27.95 15.85 L32.45 15.55 35.8 12.65" fill="url(#gradient19)" fill-rule="evenodd" stroke="none"/>
    <path d="M36.55 15.5 L39.35 18.4 37.45 21.25 32.05 23.5 23.2 22.8 10.45 17.0 4.2 19.25 -12.15 20.1 -21.75 18.0 -21.5 16.6 -23.45 17.65 -25.15 15.45 -24.55 14.85 -24.25 14.55 -23.65 14.15 -23.15 11.15 -22.05 13.05 -21.75 13.15 Q-3.2 16.75 10.95 15.2 L11.9 14.05 Q22.55 17.8 32.1 17.95 L36.55 15.5" fill="url(#gradient20)" fill-rule="evenodd" stroke="none"/>
    <path d="M48.4 23.0 Q32.35 25.95 11.75 25.75 L5.05 20.7 6.7 25.65 4.2 25.6 3.7 25.55 2.3 22.8 1.35 21.0 -1.85 25.35 -25.15 24.2 -22.05 19.3 -21.75 18.0 -12.15 20.1 4.2 19.25 10.45 17.0 23.2 22.8 32.05 23.5 37.45 21.25 39.35 18.4 48.4 23.0" fill="url(#gradient21)" fill-rule="evenodd" stroke="none"/>
    <path d="M10.95 -1.2 L10.25 1.3 10.0 1.7 9.75 2.1 1.7 2.75 -0.45 5.25 -8.5 5.25 -10.9 6.55 -17.1 6.55 -15.95 4.25 -20.6 1.8 -21.25 -0.1 -18.65 -1.5 -7.75 -0.1 -7.45 -0.05 -11.25 3.0 -8.1 3.0 -6.05 3.0 -3.25 0.3 10.95 -1.2" fill="url(#gradient22)" fill-rule="evenodd" stroke="none"/>
    <path d="M9.75 2.1 L7.6 5.55 5.05 6.55 -10.9 6.55 -8.5 5.25 -0.45 5.25 1.7 2.75 9.75 2.1" fill="url(#gradient23)" fill-rule="evenodd" stroke="none"/>
    <path d="M2.3 22.8 L0.4 25.45 -1.85 25.35 1.35 21.0 2.3 22.8" fill="url(#gradient24)" fill-rule="evenodd" stroke="none"/>
    <path d="M-65.7 8.6 L-63.8 7.6 -43.15 9.25 -36.1 9.4 -45.4 7.15 -52.65 3.7 -52.15 3.55 -60.85 -2.2 -60.85 -3.2 Q-54.7 1.2 -48.95 3.75 L-37.75 6.0 -42.15 3.35 -22.35 6.45 -23.45 10.65 -23.15 11.15 -23.65 14.15 -24.25 14.55 -24.55 14.85 -24.65 14.8 -31.8 15.35 -26.4 12.65 -36.35 13.45 -47.95 11.35 -32.4 11.35 -65.7 8.6" fill="url(#gradient25)" fill-rule="evenodd" stroke="none"/>
    <path d="M-60.85 -3.2 L-60.85 -4.25 Q-52.75 1.95 -48.7 2.7 L-46.0 2.1 Q-36.45 0.05 -25.0 -1.0 L-28.95 2.0 -27.55 2.35 -26.15 2.7 -21.25 -0.1 -20.6 1.8 -19.95 3.55 -21.95 5.05 -22.25 6.25 -22.35 6.45 -42.15 3.35 -37.75 6.0 -48.95 3.75 Q-54.7 1.2 -60.85 -3.2" fill="url(#gradient26)" fill-rule="evenodd" stroke="none"/>
    <path d="M-14.05 -8.95 L-12.65 -7.95 -13.9 -6.85 -21.95 -7.9 -19.05 -5.85 -34.0 -3.15 -34.5 -3.9 -22.05 -6.0 -27.2 -8.8 -23.7 -9.6 -14.05 -8.95" fill="url(#gradient27)" fill-rule="evenodd" stroke="none"/>
    <path d="M-25.0 -1.0 L-21.95 -3.6 -17.85 -5.15 -27.55 2.35 -28.95 2.0 -25.0 -1.0" fill="url(#gradient28)" fill-rule="evenodd" stroke="none"/>
    <path d="M-7.15 -7.2 L-5.85 -6.3 -8.1 -6.05 -16.45 -12.05 -15.05 -12.5 -10.1 -9.2 -7.15 -7.2" fill="url(#gradient29)" fill-rule="evenodd" stroke="none"/>
    <path d="M-2.9 -10.1 L0.3 -8.5 -7.15 -7.2 -10.1 -9.2 -2.9 -10.1" fill="url(#gradient30)" fill-rule="evenodd" stroke="none"/>
    <path d="M-7.55 -0.2 L-2.1 -3.45 -8.1 3.0 -11.25 3.0 -7.45 -0.05 -7.55 -0.2" fill="url(#gradient31)" fill-rule="evenodd" stroke="none"/>
    <path d="M-17.1 6.55 L-19.95 6.55 -19.95 3.55 -20.6 1.8 -15.95 4.25 -17.1 6.55" fill="url(#gradient32)" fill-rule="evenodd" stroke="none"/>
    <path d="M-34.5 23.5 L-35.75 23.4 -41.85 22.8 -27.4 17.85 -25.15 15.45 -23.45 17.65 -34.5 23.5" fill="url(#gradient33)" fill-rule="evenodd" stroke="none"/>
    <path d="M-22.05 19.3 L-31.0 23.8 -34.5 23.5 -23.45 17.65 -21.5 16.6 -21.75 18.0 -22.05 19.3" fill="url(#gradient34)" fill-rule="evenodd" stroke="none"/>
    <path d="M-41.85 22.8 L-50.7 21.6 -48.8 19.3 -55.85 23.5 -56.7 23.5 -53.65 20.8 -55.45 20.25 -52.6 18.35 -72.75 23.9 -74.05 23.2 -59.1 18.9 -59.05 18.9 -49.4 16.6 -46.95 15.2 -64.2 16.25 Q-67.1 14.5 -68.2 11.85 L-68.3 11.35 -47.95 11.35 -36.35 13.45 -26.4 12.65 -31.8 15.35 -24.65 14.8 -24.55 14.85 -25.15 15.45 -27.4 17.85 -41.85 22.8" fill="url(#gradient35)" fill-rule="evenodd" stroke="none"/>
    <path d="M-55.45 20.25 L-55.5 20.25 -70.55 25.25 -72.75 23.9 -52.6 18.35 -55.45 20.25" fill="url(#gradient36)" fill-rule="evenodd" stroke="none"/>
    <path d="M-63.8 7.6 Q-59.9 5.8 -52.65 3.7 L-45.4 7.15 -36.1 9.4 -43.15 9.25 -63.8 7.6" fill="url(#gradient37)" fill-rule="evenodd" stroke="none"/>
    <path d="M-68.3 11.35 Q-68.25 10.1 -65.7 8.6 L-32.4 11.35 -47.95 11.35 -68.3 11.35" fill="url(#gradient38)" fill-rule="evenodd" stroke="none"/>
    <path d="M16.45 -21.25 Q16.45 -18.3 18.6 -15.35 L19.8 -14.95 22.4 -19.5 30.4 -16.35 35.25 -18.1 35.25 -21.25 28.45 -22.8 21.7 -24.35 16.45 -21.25 13.4 -9.1 12.7 -6.85 10.95 -1.2 10.25 1.3 10.0 1.7 M9.75 2.1 L7.6 5.55 9.25 4.95 11.0 4.25 23.05 -8.4 M13.4 -9.1 L2.6 -9.1 -1.9 -12.9 -2.9 -12.9 M-3.25 -12.9 L-6.4 -12.9 -2.9 -10.1 -10.1 -9.2 -7.15 -7.2 -5.85 -6.3 M-16.45 -12.05 L-17.85 -11.65 -14.05 -8.95 -12.65 -7.95 -11.75 -7.3 M33.65 -14.15 L35.95 -14.65 38.35 -18.1 38.35 -22.3 28.3 -25.75 28.45 -22.8 M33.65 -14.15 L31.3 -13.6 26.6 -12.55 19.8 -14.95 M35.25 -18.1 L31.3 -13.6 M24.5 -1.45 L33.5 -11.15 35.95 -14.65 M17.35 3.0 L20.3 3.0 21.6 1.6 24.5 -1.45 40.3 0.2 35.9 1.3 46.65 1.25 50.9 2.1 55.6 3.2 70.6 0.95 72.35 2.7 59.7 4.3 62.3 5.2 Q64.05 5.85 65.45 6.55 L72.0 6.55 74.05 8.95 69.2 8.95 70.25 10.1 Q70.8 10.9 70.95 11.8 L71.0 12.4 70.85 13.45 45.4 13.45 44.95 13.45 62.6 17.25 59.7 19.4 57.7 20.95 56.0 21.4 58.5 22.8 56.35 24.5 52.2 22.25 51.2 22.5 49.95 22.7 48.4 23.0 Q32.35 25.95 11.75 25.75 L5.05 20.7 6.7 25.65 4.2 25.6 3.7 25.55 2.3 22.8 0.4 25.45 -1.85 25.35 -25.15 24.2 -22.05 19.3 -31.0 23.8 -34.5 23.5 -35.75 23.4 -41.85 22.8 -50.7 21.6 -50.75 21.6 -55.0 23.5 -55.85 23.5 -56.7 23.5 -53.65 20.8 -55.45 20.25 -55.5 20.25 -70.55 25.25 -72.75 23.9 -74.05 23.2 -59.1 18.9 -59.05 18.9 -49.4 16.6 -62.6 17.15 -64.2 16.25 Q-67.1 14.5 -68.2 11.85 L-68.3 11.35 Q-68.25 10.1 -65.7 8.6 L-63.8 7.6 Q-59.9 5.8 -52.65 3.7 L-52.15 3.55 -60.85 -2.2 -60.85 -3.2 -60.85 -4.25 Q-52.75 1.95 -48.7 2.7 L-46.0 2.1 Q-36.45 0.05 -25.0 -1.0 L-21.95 -3.6 -33.1 -1.8 -34.0 -3.15 -34.5 -3.9 -22.05 -6.0 -27.2 -8.8 -23.7 -9.6 -14.05 -8.95 M49.85 17.7 L56.0 21.4 M52.2 22.25 L46.7 18.9 M69.2 8.95 L59.5 8.95 M56.0 6.55 L65.45 6.55 M30.25 8.25 L31.4 6.55 34.9 5.15 30.8 5.5 Q27.7 7.75 25.85 11.75 L13.85 11.8 12.85 12.95 11.9 14.05 10.95 15.2 Q-3.2 16.75 -21.75 13.15 L-22.05 13.05 -23.15 11.15 -23.45 10.65 -22.35 6.45 -22.25 6.25 -21.95 5.05 -19.95 3.55 -20.6 1.8 -21.25 -0.1 -26.15 2.7 -27.55 2.35 -28.95 2.0 -25.0 -1.0 M26.9 13.45 L29.15 10.0 30.25 8.25 M37.15 8.85 Q36.65 6.4 34.9 5.15 M39.05 14.15 Q40.15 11.1 39.05 6.85 L35.9 3.2 32.0 3.95 30.8 5.5 M37.15 8.85 L37.3 11.35 35.8 12.65 32.45 15.55 27.95 15.85 Q29.25 17.6 32.1 17.95 22.55 17.8 11.9 14.05 M39.05 14.15 L36.55 15.5 32.1 17.95 M21.6 1.6 L22.2 2.75 22.35 3.0 22.4 3.0 22.4 3.1 22.4 3.75 21.45 4.25 22.5 7.25 32.0 3.95 M22.35 3.0 L22.4 3.1 M21.45 4.25 L20.4 4.8 19.9 5.05 11.25 6.55 2.6 10.65 -15.45 10.65 M20.25 8.05 L22.5 7.25 M27.95 15.85 Q27.15 14.85 26.9 13.45 M32.45 15.55 Q29.6 15.05 32.45 10.0 L29.15 10.0 M17.35 3.0 L14.4 3.0 11.0 4.25 M13.85 11.8 L15.8 9.6 20.25 8.05 M7.6 5.55 L5.05 6.55 -10.9 6.55 -17.1 6.55 -19.95 6.55 -21.25 5.75 M-7.45 -0.05 L-11.25 3.0 -8.1 3.0 -6.05 3.0 -3.25 0.3 10.95 -1.2 M-7.75 -0.1 L-7.45 -0.05 M-7.75 -0.1 L-18.65 -1.5 -21.25 -0.1 M-16.45 -12.05 L-15.05 -12.5 -10.1 -9.2 M-19.95 6.55 L-19.95 3.55 M-47.95 11.35 L-68.3 11.35 M-43.15 9.25 L-63.8 7.6 M-32.4 11.35 L-47.95 11.35" fill="none" stroke="#000000" stroke-linecap="round" stroke-linejoin="round" stroke-opacity="0.4" stroke-width="0.5"/>
    <path d="M16.45 -21.25 L21.7 -24.35 28.45 -22.75 28.3 -25.75 38.35 -22.3 38.35 -18.1 33.5 -11.2 24.5 -1.45 40.3 0.2 35.9 1.25 46.6 1.25 50.9 2.05 55.6 3.2 70.6 0.95 72.3 2.65 59.65 4.35 62.35 5.2 65.45 6.55 72.0 6.55 74.05 8.9 69.2 8.9 70.25 10.1 Q70.8 10.9 70.9 11.8 L71.0 12.4 70.85 13.45 44.95 13.45 62.6 17.25 57.65 21.0 56.0 21.4 58.45 22.75 56.35 24.5 52.2 22.25 51.2 22.5 49.95 22.7 48.4 23.05 Q32.35 25.9 11.7 25.75 L5.05 20.7 6.75 25.65 4.2 25.55 3.65 25.55 2.25 22.75 0.4 25.45 -1.85 25.35 -25.15 24.25 -22.05 19.3 -31.05 23.85 -34.5 23.5 -35.75 23.45 -41.9 22.85 -50.7 21.65 -50.75 21.65 -55.0 23.5 -56.75 23.5 -53.6 20.85 -55.45 20.25 -70.6 25.25 -74.05 23.15 -59.15 18.9 -59.05 18.9 -49.4 16.6 -62.6 17.1 -64.2 16.25 Q-67.1 14.45 -68.2 11.85 L-68.25 11.3 Q-68.25 10.05 -65.75 8.6 -64.95 8.1 -63.8 7.6 -59.95 5.8 -52.6 3.65 L-52.15 3.55 -60.85 -2.2 -60.85 -4.25 Q-52.75 1.95 -48.7 2.65 L-46.0 2.05 Q-36.45 0.05 -24.95 -1.0 L-22.0 -3.6 -33.1 -1.8 -34.5 -3.95 -22.05 -6.0 -27.25 -8.8 -23.7 -9.6 -14.05 -8.9 -17.85 -11.65 -15.05 -12.5 -10.1 -9.2 -2.95 -10.1 -6.4 -12.9 -1.95 -12.9 2.6 -9.1 13.4 -9.1 16.45 -21.25 Z" fill="none" stroke="#000000" stroke-linecap="round" stroke-linejoin="round" stroke-opacity="0.4" stroke-width="1.0"/>
  </g>
  <defs>
    <linearGradient gradientTransform="matrix(-0.0027, 0.0046, -0.0094, -0.0055, 24.75, -17.85)" gradientUnits="userSpaceOnUse" id="gradient0" spreadMethod="pad" x1="-819.2" x2="819.2">
      <stop offset="0.0" stop-color="#9b733a"/>
      <stop offset="1.0" stop-color="#91653c"/>
    </linearGradient>
    <linearGradient gradientTransform="matrix(0.0094, -0.0094, 0.0062, 0.0062, 23.15, -10.0)" gradientUnits="userSpaceOnUse" id="gradient1" spreadMethod="pad" x1="-819.2" x2="819.2">
      <stop offset="0.0" stop-color="#d2af7c"/>
      <stop offset="1.0" stop-color="#c69a5a"/>
    </linearGradient>
    <linearGradient gradientTransform="matrix(-0.0065, 0.0017, -0.0016, -0.0062, 5.0, -9.6)" gradientUnits="userSpaceOnUse" id="gradient2" spreadMethod="pad" x1="-819.2" x2="819.2">
      <stop offset="0.00784313725490196" stop-color="#c0993f"/>
      <stop offset="1.0" stop-color="#997a33"/>
    </linearGradient>
    <linearGradient gradientTransform="matrix(0.0, -0.0062, 0.0285, 0.0, -10.65, -7.4)" gradientUnits="userSpaceOnUse" id="gradient3" spreadMethod="pad" x1="-819.2" x2="819.2">
      <stop offset="0.00784313725490196" stop-color="#896e2e"/>
      <stop offset="1.0" stop-color="#59471e"/>
    </linearGradient>
    <linearGradient gradientTransform="matrix(0.001, -0.0037, 0.0063, 0.0016, 33.45, -24.75)" gradientUnits="userSpaceOnUse" id="gradient4" spreadMethod="pad" x1="-819.2" x2="819.2">
      <stop offset="0.0" stop-color="#d2af7c"/>
      <stop offset="1.0" stop-color="#c69a5a"/>
    </linearGradient>
    <linearGradient gradientTransform="matrix(0.0049, -0.0028, 0.0029, 0.005, 28.75, -17.7)" gradientUnits="userSpaceOnUse" id="gradient5" spreadMethod="pad" x1="-819.2" x2="819.2">
      <stop offset="0.0" stop-color="#e4d0b1"/>
      <stop offset="1.0" stop-color="#d8ba8d"/>
    </linearGradient>
    <linearGradient gradientTransform="matrix(-0.0076, 0.0076, -0.0017, -0.0017, 18.7, -1.25)" gradientUnits="userSpaceOnUse" id="gradient6" spreadMethod="pad" x1="-819.2" x2="819.2">
      <stop offset="0.0" stop-color="#9b733a"/>
      <stop offset="1.0" stop-color="#91653c"/>
    </linearGradient>
    <linearGradient gradientTransform="matrix(-0.0167, -0.0064, 0.0063, -0.0163, 37.1, 3.4)" gradientUnits="userSpaceOnUse" id="gradient7" spreadMethod="pad" x1="-819.2" x2="819.2">
      <stop offset="0.00784313725490196" stop-color="#c0993f"/>
      <stop offset="1.0" stop-color="#997a33"/>
    </linearGradient>
    <linearGradient gradientTransform="matrix(-0.002, -5.0E-4, 5.0E-4, -0.002, 66.4, 10.0)" gradientUnits="userSpaceOnUse" id="gradient8" spreadMethod="pad" x1="-819.2" x2="819.2">
      <stop offset="0.00784313725490196" stop-color="#896e2e"/>
      <stop offset="1.0" stop-color="#59471e"/>
    </linearGradient>
    <linearGradient gradientTransform="matrix(-0.0081, -0.0022, 0.0013, -0.0048, 60.15, 13.2)" gradientUnits="userSpaceOnUse" id="gradient9" spreadMethod="pad" x1="-819.2" x2="819.2">
      <stop offset="0.00784313725490196" stop-color="#896e2e"/>
      <stop offset="1.0" stop-color="#59471e"/>
    </linearGradient>
    <linearGradient gradientTransform="matrix(-0.006, -0.0016, 4.0E-4, -0.0016, 52.05, 18.85)" gradientUnits="userSpaceOnUse" id="gradient10" spreadMethod="pad" x1="-819.2" x2="819.2">
      <stop offset="0.00784313725490196" stop-color="#896e2e"/>
      <stop offset="1.0" stop-color="#59471e"/>
    </linearGradient>
    <linearGradient gradientTransform="matrix(0.004, 0.0023, -0.0025, 0.0044, 36.25, 8.1)" gradientUnits="userSpaceOnUse" id="gradient11" spreadMethod="pad" x1="-819.2" x2="819.2">
      <stop offset="0.0" stop-color="#d2af7c"/>
      <stop offset="1.0" stop-color="#c69a5a"/>
    </linearGradient>
    <linearGradient gradientTransform="matrix(0.0049, 0.0013, -0.0012, 0.0045, 36.55, 12.65)" gradientUnits="userSpaceOnUse" id="gradient12" spreadMethod="pad" x1="-819.2" x2="819.2">
      <stop offset="0.0" stop-color="#d2af7c"/>
      <stop offset="1.0" stop-color="#c69a5a"/>
    </linearGradient>
    <linearGradient gradientTransform="matrix(-0.0079, -0.0021, 0.0021, -0.0078, 21.85, 8.45)" gradientUnits="userSpaceOnUse" id="gradient13" spreadMethod="pad" x1="-819.2" x2="819.2">
      <stop offset="0.0" stop-color="#9b733a"/>
      <stop offset="1.0" stop-color="#91653c"/>
    </linearGradient>
    <linearGradient gradientTransform="matrix(0.0199, -0.0025, 7.0E-4, 0.0056, -4.95, 6.2)" gradientUnits="userSpaceOnUse" id="gradient14" spreadMethod="pad" x1="-819.2" x2="819.2">
      <stop offset="0.00784313725490196" stop-color="#d8ad05"/>
      <stop offset="1.0" stop-color="#c08802"/>
    </linearGradient>
    <linearGradient gradientTransform="matrix(0.0235, -0.0062, 0.0024, 0.009, 2.75, 9.5)" gradientUnits="userSpaceOnUse" id="gradient15" spreadMethod="pad" x1="-819.2" x2="819.2">
      <stop offset="0.00784313725490196" stop-color="#996600"/>
      <stop offset="1.0" stop-color="#a96501"/>
    </linearGradient>
    <linearGradient gradientTransform="matrix(0.0219, 0.0, 0.0, 0.005, 2.45, 8.85)" gradientUnits="userSpaceOnUse" id="gradient16" spreadMethod="pad" x1="-819.2" x2="819.2">
      <stop offset="0.00784313725490196" stop-color="#5e3f00"/>
      <stop offset="1.0" stop-color="#895600"/>
    </linearGradient>
    <linearGradient gradientTransform="matrix(0.0064, 0.0017, -7.0E-4, 0.0028, 23.1, 14.8)" gradientUnits="userSpaceOnUse" id="gradient17" spreadMethod="pad" x1="-819.2" x2="819.2">
      <stop offset="0.0" stop-color="#d2af7c"/>
      <stop offset="1.0" stop-color="#c69a5a"/>
    </linearGradient>
    <linearGradient gradientTransform="matrix(0.0034, 0.0, 0.0, 0.0036, 29.65, 12.9)" gradientUnits="userSpaceOnUse" id="gradient18" spreadMethod="pad" x1="-819.2" x2="819.2">
      <stop offset="0.0" stop-color="#9b733a"/>
      <stop offset="1.0" stop-color="#91653c"/>
    </linearGradient>
    <linearGradient gradientTransform="matrix(0.0031, -0.0018, 0.0012, 0.0021, 34.05, 14.65)" gradientUnits="userSpaceOnUse" id="gradient19" spreadMethod="pad" x1="-819.2" x2="819.2">
      <stop offset="0.0" stop-color="#e4d0b1"/>
      <stop offset="1.0" stop-color="#d8ba8d"/>
    </linearGradient>
    <linearGradient gradientTransform="matrix(-0.014, -0.008, 0.0096, -0.0168, 9.7, 18.4)" gradientUnits="userSpaceOnUse" id="gradient20" spreadMethod="pad" x1="-819.2" x2="819.2">
      <stop offset="0.00784313725490196" stop-color="#403315"/>
      <stop offset="1.0" stop-color="#000000"/>
    </linearGradient>
    <linearGradient gradientTransform="matrix(0.0, -0.0056, 0.0449, 0.0, 11.6, 19.45)" gradientUnits="userSpaceOnUse" id="gradient21" spreadMethod="pad" x1="-819.2" x2="819.2">
      <stop offset="0.00784313725490196" stop-color="#896e2e"/>
      <stop offset="1.0" stop-color="#59471e"/>
    </linearGradient>
    <linearGradient gradientTransform="matrix(0.0042, -0.0042, 0.0101, 0.0101, -8.65, 3.85)" gradientUnits="userSpaceOnUse" id="gradient22" spreadMethod="pad" x1="-819.2" x2="819.2">
      <stop offset="0.00784313725490196" stop-color="#403315"/>
      <stop offset="1.0" stop-color="#000000"/>
    </linearGradient>
    <linearGradient gradientTransform="matrix(-0.0015, -0.0026, 0.0107, -0.0062, 0.2, 5.55)" gradientUnits="userSpaceOnUse" id="gradient23" spreadMethod="pad" x1="-819.2" x2="819.2">
      <stop offset="0.00784313725490196" stop-color="#896e2e"/>
      <stop offset="1.0" stop-color="#59471e"/>
    </linearGradient>
    <linearGradient gradientTransform="matrix(0.0015, -0.0057, 0.002, 5.0E-4, 1.35, 19.8)" gradientUnits="userSpaceOnUse" id="gradient24" spreadMethod="pad" x1="-819.2" x2="819.2">
      <stop offset="0.00784313725490196" stop-color="#c0993f"/>
      <stop offset="1.0" stop-color="#997a33"/>
    </linearGradient>
    <linearGradient gradientTransform="matrix(0.015, 0.0, 0.0, 0.0113, -29.15, 6.05)" gradientUnits="userSpaceOnUse" id="gradient25" spreadMethod="pad" x1="-819.2" x2="819.2">
      <stop offset="0.00784313725490196" stop-color="#896e2e"/>
      <stop offset="1.0" stop-color="#59471e"/>
    </linearGradient>
    <linearGradient gradientTransform="matrix(0.0125, -0.002, 0.0016, 0.01, -33.95, -0.15)" gradientUnits="userSpaceOnUse" id="gradient26" spreadMethod="pad" x1="-819.2" x2="819.2">
      <stop offset="0.00784313725490196" stop-color="#c0993f"/>
      <stop offset="1.0" stop-color="#997a33"/>
    </linearGradient>
    <linearGradient gradientTransform="matrix(0.0063, 0.0017, -0.0017, 0.0063, -19.25, -4.8)" gradientUnits="userSpaceOnUse" id="gradient27" spreadMethod="pad" x1="-819.2" x2="819.2">
      <stop offset="0.00784313725490196" stop-color="#c0993f"/>
      <stop offset="1.0" stop-color="#997a33"/>
    </linearGradient>
    <linearGradient gradientTransform="matrix(0.0057, -0.0057, 0.0012, 0.0012, -20.1, -4.8)" gradientUnits="userSpaceOnUse" id="gradient28" spreadMethod="pad" x1="-819.2" x2="819.2">
      <stop offset="0.00784313725490196" stop-color="#c0993f"/>
      <stop offset="1.0" stop-color="#997a33"/>
    </linearGradient>
    <linearGradient gradientTransform="matrix(0.0051, 0.003, -7.0E-4, 0.0011, -9.3, -8.05)" gradientUnits="userSpaceOnUse" id="gradient29" spreadMethod="pad" x1="-819.2" x2="819.2">
      <stop offset="0.00784313725490196" stop-color="#c0993f"/>
      <stop offset="1.0" stop-color="#997a33"/>
    </linearGradient>
    <linearGradient gradientTransform="matrix(-0.0016, 0.001, -0.0018, -0.0031, -6.05, -8.2)" gradientUnits="userSpaceOnUse" id="gradient30" spreadMethod="pad" x1="-819.2" x2="819.2">
      <stop offset="0.00784313725490196" stop-color="#c0993f"/>
      <stop offset="1.0" stop-color="#997a33"/>
    </linearGradient>
    <linearGradient gradientTransform="matrix(0.0026, -0.0026, 0.001, 0.001, -6.45, -0.35)" gradientUnits="userSpaceOnUse" id="gradient31" spreadMethod="pad" x1="-819.2" x2="819.2">
      <stop offset="0.00784313725490196" stop-color="#c0993f"/>
      <stop offset="1.0" stop-color="#997a33"/>
    </linearGradient>
    <linearGradient gradientTransform="matrix(0.0012, -0.0044, 0.003, 8.0E-4, -18.1, 2.45)" gradientUnits="userSpaceOnUse" id="gradient32" spreadMethod="pad" x1="-819.2" x2="819.2">
      <stop offset="0.00784313725490196" stop-color="#896e2e"/>
      <stop offset="1.0" stop-color="#59471e"/>
    </linearGradient>
    <linearGradient gradientTransform="matrix(0.0077, -0.0044, 0.0014, 0.0025, -28.95, 18.1)" gradientUnits="userSpaceOnUse" id="gradient33" spreadMethod="pad" x1="-819.2" x2="819.2">
      <stop offset="0.00784313725490196" stop-color="#896e2e"/>
      <stop offset="1.0" stop-color="#59471e"/>
    </linearGradient>
    <linearGradient gradientTransform="matrix(0.0079, -0.0045, 8.0E-4, 0.0014, -22.5, 18.1)" gradientUnits="userSpaceOnUse" id="gradient34" spreadMethod="pad" x1="-819.2" x2="819.2">
      <stop offset="0.00784313725490196" stop-color="#c0993f"/>
      <stop offset="1.0" stop-color="#997a33"/>
    </linearGradient>
    <linearGradient gradientTransform="matrix(0.0106, -0.0028, 0.0028, 0.0106, -35.75, 11.85)" gradientUnits="userSpaceOnUse" id="gradient35" spreadMethod="pad" x1="-819.2" x2="819.2">
      <stop offset="0.00784313725490196" stop-color="#c0993f"/>
      <stop offset="1.0" stop-color="#997a33"/>
    </linearGradient>
    <linearGradient gradientTransform="matrix(0.0057, -0.0033, 0.0017, 0.0029, -63.6, 21.8)" gradientUnits="userSpaceOnUse" id="gradient36" spreadMethod="pad" x1="-819.2" x2="819.2">
      <stop offset="0.00784313725490196" stop-color="#896e2e"/>
      <stop offset="1.0" stop-color="#59471e"/>
    </linearGradient>
    <linearGradient gradientTransform="matrix(0.011, 0.003, -0.0011, 0.0039, -45.95, 8.9)" gradientUnits="userSpaceOnUse" id="gradient37" spreadMethod="pad" x1="-819.2" x2="819.2">
      <stop offset="0.00784313725490196" stop-color="#c0993f"/>
      <stop offset="1.0" stop-color="#997a33"/>
    </linearGradient>
    <linearGradient gradientTransform="matrix(0.0129, 0.0, 0.0, 0.0017, -49.8, 9.9)" gradientUnits="userSpaceOnUse" id="gradient38" spreadMethod="pad" x1="-819.2" x2="819.2">
      <stop offset="0.00784313725490196" stop-color="#c0993f"/>
      <stop offset="1.0" stop-color="#997a33"/>
    </linearGradient>
  </defs>
</svg>
