<?xml version="1.0" encoding="UTF-8" standalone="no"?>
<svg xmlns:xlink="http://www.w3.org/1999/xlink" height="71.2px" width="117.7px" xmlns="http://www.w3.org/2000/svg">
  <g transform="matrix(1.0, 0.0, 0.0, 1.0, 58.85, 35.6)">
    <path d="M-7.55 -20.25 L-3.1 -24.3 Q-1.05 -25.55 0.95 -24.3 L2.55 -22.0 2.55 -26.2 Q3.2 -28.1 4.8 -28.1 L6.95 -28.1 14.35 -28.1 Q15.85 -27.35 15.8 -25.75 L16.05 -23.55 17.7 -10.15 16.15 -9.7 14.15 -26.2 3.85 -26.2 3.5 -20.65 2.55 -22.0 3.5 -20.65 6.5 -16.25 10.5 -10.4 12.15 -7.95 10.65 -6.95 -0.7 -23.1 -10.5 -14.75 1.5 1.55 -0.9 2.05 -11.95 -13.3 Q-12.9 -14.75 -11.95 -16.15 L-7.55 -20.25" fill="#f9f6f3" fill-rule="evenodd" stroke="none"/>
    <path d="M3.5 -20.65 L3.85 -26.2 14.15 -26.2 16.15 -9.7 13.4 -8.75 12.15 -7.95 10.5 -10.4 13.4 -15.9 9.35 -20.45 6.5 -16.25 3.5 -20.65 M4.1 -12.55 Q3.35 -15.65 1.7 -14.0 L0.25 -11.4 -2.6 -11.4 Q-4.0 -9.5 -2.6 -7.55 0.6 -5.05 3.85 -4.95 5.8 -7.8 4.1 -12.55 M10.65 -6.95 Q6.0 -3.65 1.5 1.55 L-10.5 -14.75 -0.7 -23.1 10.65 -6.95 M-1.15 4.75 Q-3.55 7.85 -5.95 11.5 -27.85 13.35 -30.6 8.95 L-31.2 5.0 -31.65 2.05 -21.75 5.6 -1.15 4.75 M24.9 -15.2 L25.15 -11.4 23.45 -11.2 22.75 -11.1 24.9 -15.2" fill="#c9b08a" fill-rule="evenodd" stroke="none"/>
    <path d="M4.1 -12.55 Q5.8 -7.8 3.85 -4.95 0.6 -5.05 -2.6 -7.55 -4.0 -9.5 -2.6 -11.4 L0.25 -11.4 1.7 -14.0 Q3.35 -15.65 4.1 -12.55 M6.5 -16.25 L9.35 -20.45 13.4 -15.9 10.5 -10.4 6.5 -16.25" fill="#990000" fill-rule="evenodd" stroke="none"/>
    <path d="M6.95 -28.1 Q9.15 -29.45 8.6 -31.7 L14.35 -28.1 6.95 -28.1 M16.05 -23.55 L21.85 -12.1 21.15 -10.9 17.7 -10.15 16.05 -23.55" fill="#005e8b" fill-rule="evenodd" stroke="none"/>
    <path d="M-29.7 -2.05 L-30.1 1.3 -28.8 1.65 Q-22.05 3.55 -13.85 3.4 L-10.2 3.2 -0.9 2.05 1.5 1.55 -1.15 4.75 -21.75 5.6 -31.65 2.05 -31.8 1.05 -29.7 -2.05 M21.85 -12.1 L22.55 -13.3 21.75 -15.2 24.9 -15.2 22.75 -11.1 21.15 -10.9 21.85 -12.1" fill="#f5f0ea" fill-rule="evenodd" stroke="none"/>
    <path d="M-10.2 3.2 L-13.85 3.4 -18.8 -16.65 -12.15 0.1 -10.2 3.2" fill="#0091d5" fill-rule="evenodd" stroke="none"/>
    <path d="M-30.2 -17.0 Q-30.15 -23.95 -27.25 -26.2 L-17.45 -26.2 4.1 -35.05 Q11.45 -33.65 16.3 -27.9 L17.65 -24.7 18.7 -22.3 19.75 -19.85 20.7 -17.55 21.75 -15.2 22.55 -13.3 21.85 -12.1 16.05 -23.55 15.8 -25.75 Q15.85 -27.35 14.35 -28.1 L8.6 -31.7 Q9.15 -29.45 6.95 -28.1 L4.8 -28.1 Q3.2 -28.1 2.55 -26.2 L2.55 -22.0 0.95 -24.3 Q-1.05 -25.55 -3.1 -24.3 L-7.55 -20.25 Q-15.0 -18.1 -21.55 -21.85 -23.8 -24.35 -26.85 -23.9 -29.55 -21.65 -27.95 -3.95 L-28.8 1.65 -30.1 1.3 -29.7 -2.05 Q-29.3 -7.2 -30.1 -14.0 L-30.2 -17.0" fill="url(#gradient0)" fill-rule="evenodd" stroke="none"/>
    <path d="M18.7 -22.3 L17.65 -24.7 Q22.3 -22.9 29.35 -24.15 L35.65 -25.75 43.85 -25.0 Q52.55 -23.5 57.15 -19.05 59.55 -15.2 57.2 -10.65 53.9 -8.3 49.05 -8.3 23.4 -12.75 11.05 -4.6 L10.35 -4.1 Q-0.45 4.95 -8.35 19.2 L-11.7 21.15 -9.65 17.5 -5.95 11.5 Q-3.55 7.85 -1.15 4.75 L1.5 1.55 Q6.0 -3.65 10.65 -6.95 L12.15 -7.95 13.4 -8.75 16.15 -9.7 17.7 -10.15 21.15 -10.9 22.75 -11.1 23.45 -11.2 25.15 -11.4 Q30.25 -11.85 36.4 -11.5 L48.1 -10.2 50.95 -10.3 Q56.55 -11.0 56.7 -15.2 53.95 -23.05 43.1 -23.65 35.7 -24.1 24.5 -21.2 L18.7 -22.3" fill="url(#gradient1)" fill-rule="evenodd" stroke="none"/>
    <path d="M19.75 -19.85 L18.7 -22.3 24.5 -21.2 19.75 -19.85" fill="url(#gradient2)" fill-rule="evenodd" stroke="none"/>
    <path d="M57.2 -10.65 Q54.05 -4.55 42.45 2.85 22.2 15.75 -17.0 31.3 L-18.35 31.95 -12.15 25.45 -3.35 21.45 -5.25 21.15 -11.7 21.15 -8.35 19.2 Q-0.45 4.95 10.35 -4.1 L11.05 -4.6 Q23.4 -12.75 49.05 -8.3 53.9 -8.3 57.2 -10.65" fill="url(#gradient3)" fill-rule="evenodd" stroke="none"/>
    <path d="M21.75 -15.2 L20.7 -17.55 Q30.85 -22.3 41.0 -22.35 34.25 -17.55 36.4 -11.5 30.25 -11.85 25.15 -11.4 L24.9 -15.2 21.75 -15.2" fill="url(#gradient4)" fill-rule="evenodd" stroke="none"/>
    <path d="M20.7 -17.55 L19.75 -19.85 24.5 -21.2 Q35.7 -24.1 43.1 -23.65 53.95 -23.05 56.7 -15.2 56.55 -11.0 50.95 -10.3 60.05 -20.6 41.0 -22.35 30.85 -22.3 20.7 -17.55" fill="url(#gradient5)" fill-rule="evenodd" stroke="none"/>
    <path d="M36.4 -11.5 Q34.25 -17.55 41.0 -22.35 60.05 -20.6 50.95 -10.3 L48.1 -10.2 36.4 -11.5" fill="url(#gradient6)" fill-rule="evenodd" stroke="none"/>
    <path d="M-30.2 -17.0 L-30.1 -14.0 Q-34.65 -13.1 -38.0 -7.55 -41.4 4.15 -51.35 19.25 L-54.5 23.3 Q-59.35 29.75 -54.1 31.6 L-48.75 32.35 Q-39.95 33.7 -21.75 31.65 -18.15 30.05 -14.1 24.0 L-5.25 21.15 -3.35 21.45 -12.15 25.45 -18.35 31.95 -21.7 33.6 Q-55.4 37.8 -58.3 30.25 -58.55 24.5 -54.3 19.75 -43.6 5.3 -41.0 -3.5 -38.45 -12.3 -30.2 -17.0" fill="url(#gradient7)" fill-rule="evenodd" stroke="none"/>
    <path d="M-30.1 -14.0 Q-29.3 -7.2 -29.7 -2.05 L-31.8 1.05 -31.65 2.05 -31.2 5.0 Q-42.75 10.05 -51.3 19.25 L-51.35 19.25 Q-41.4 4.15 -38.0 -7.55 -34.65 -13.1 -30.1 -14.0" fill="url(#gradient8)" fill-rule="evenodd" stroke="none"/>
    <path d="M-28.8 1.65 L-27.95 -3.95 Q-29.55 -21.65 -26.85 -23.9 -23.8 -24.35 -21.55 -21.85 -15.0 -18.1 -7.55 -20.25 L-11.95 -16.15 Q-12.9 -14.75 -11.95 -13.3 L-0.9 2.05 -10.2 3.2 -12.15 0.1 -18.8 -16.65 -13.85 3.4 Q-22.05 3.55 -28.8 1.65 M-19.85 -19.25 L-18.8 -16.65 -19.85 -19.25" fill="url(#gradient9)" fill-rule="evenodd" stroke="none"/>
    <path d="M-5.95 11.5 L-9.65 17.5 Q-33.2 23.2 -43.25 19.7 -53.9 21.75 -54.1 31.6 -59.35 29.75 -54.5 23.3 L-51.35 19.25 -51.3 19.25 Q-40.45 10.8 -30.6 8.95 -27.85 13.35 -5.95 11.5" fill="url(#gradient10)" fill-rule="evenodd" stroke="none"/>
    <path d="M-9.65 17.5 L-11.7 21.15 -5.25 21.15 -14.1 24.0 Q-18.15 30.05 -21.75 31.65 -39.95 33.7 -48.75 32.35 L-54.1 31.6 Q-53.9 21.75 -43.25 19.7 -33.2 23.2 -9.65 17.5" fill="url(#gradient11)" fill-rule="evenodd" stroke="none"/>
    <path d="M-51.3 19.25 Q-42.75 10.05 -31.2 5.0 L-30.6 8.95 Q-40.45 10.8 -51.3 19.25" fill="url(#gradient12)" fill-rule="evenodd" stroke="none"/>
    <path d="M17.65 -24.7 L16.3 -27.9 Q11.45 -33.65 4.1 -35.05 L-17.45 -26.2 -27.25 -26.2 Q-30.15 -23.95 -30.2 -17.0 L-30.1 -14.0 Q-29.3 -7.2 -29.7 -2.05 L-30.1 1.3 -28.8 1.65 Q-22.05 3.55 -13.85 3.4 L-10.2 3.2 -0.9 2.05 -11.95 -13.3 Q-12.9 -14.75 -11.95 -16.15 L-7.55 -20.25 -3.1 -24.3 Q-1.05 -25.55 0.95 -24.3 L2.55 -22.0 2.55 -26.2 Q3.2 -28.1 4.8 -28.1 L6.95 -28.1 14.35 -28.1 Q15.85 -27.35 15.8 -25.75 L16.05 -23.55 17.7 -10.15 16.15 -9.7 13.4 -8.75 12.15 -7.95 10.65 -6.95 Q6.0 -3.65 1.5 1.55 L-1.15 4.75 Q-3.55 7.85 -5.95 11.5 L-9.65 17.5 -11.7 21.15 -5.25 21.15 -14.1 24.0 Q-18.15 30.05 -21.75 31.65 -39.95 33.7 -48.75 32.35 L-54.1 31.6 Q-59.35 29.75 -54.5 23.3 L-51.35 19.25 -51.3 19.25 Q-42.75 10.05 -31.2 5.0 L-31.65 2.05 -31.8 1.05 -29.7 -2.05 M21.85 -12.1 L22.55 -13.3 21.75 -15.2 20.7 -17.55 19.75 -19.85 18.7 -22.3 17.65 -24.7 Q22.3 -22.9 29.35 -24.15 L35.65 -25.75 43.85 -25.0 Q52.55 -23.5 57.15 -19.05 59.55 -15.2 57.2 -10.65 54.05 -4.55 42.45 2.85 22.2 15.75 -17.0 31.3 L-18.35 31.95 -21.7 33.6 Q-55.4 37.8 -58.3 30.25 -58.55 24.5 -54.3 19.75 -43.6 5.3 -41.0 -3.5 -38.45 -12.3 -30.2 -17.0 M4.1 -12.55 Q5.8 -7.8 3.85 -4.95 0.6 -5.05 -2.6 -7.55 -4.0 -9.5 -2.6 -11.4 L0.25 -11.4 1.7 -14.0 Q3.35 -15.65 4.1 -12.55 M2.55 -22.0 L3.5 -20.65 6.5 -16.25 9.35 -20.45 13.4 -15.9 10.5 -10.4 12.15 -7.95 M6.5 -16.25 L10.5 -10.4 M21.75 -15.2 L24.9 -15.2 25.15 -11.4 Q30.25 -11.85 36.4 -11.5 L48.1 -10.2 50.95 -10.3 Q56.55 -11.0 56.7 -15.2 53.95 -23.05 43.1 -23.65 35.7 -24.1 24.5 -21.2 L19.75 -19.85 M21.85 -12.1 L21.15 -10.9 22.75 -11.1 23.45 -11.2 25.15 -11.4 M21.15 -10.9 L17.7 -10.15 M-18.8 -16.65 L-19.85 -19.25 M1.5 1.55 L-0.9 2.05 M-12.15 0.1 L-18.8 -16.65 M-30.6 8.95 L-31.2 5.0 M-30.6 8.95 Q-27.85 13.35 -5.95 11.5" fill="none" stroke="#000000" stroke-linecap="round" stroke-linejoin="round" stroke-opacity="0.4" stroke-width="0.5"/>
    <path d="M17.65 -24.75 Q22.3 -22.9 29.35 -24.15 L35.65 -25.75 43.85 -25.0 Q52.5 -23.5 57.15 -19.05 59.55 -15.2 57.2 -10.65 54.05 -4.55 42.45 2.85 22.2 15.75 -17.0 31.3 L-21.75 33.6 Q-55.4 37.8 -58.35 30.2 -58.55 24.5 -54.3 19.7 -43.6 5.3 -41.0 -3.5 -38.45 -12.3 -30.25 -17.0 -30.15 -23.95 -27.25 -26.25 L-17.45 -26.25 4.05 -35.1 Q11.45 -33.65 16.25 -27.9 L17.65 -24.75 Z" fill="none" stroke="#000000" stroke-linecap="round" stroke-linejoin="round" stroke-opacity="0.4" stroke-width="1.0"/>
  </g>
  <defs>
    <linearGradient gradientTransform="matrix(0.0291, 0.0, 0.0, 0.0224, 3.0, -16.7)" gradientUnits="userSpaceOnUse" id="gradient0" spreadMethod="pad" x1="-819.2" x2="819.2">
      <stop offset="0.0" stop-color="#009ae2"/>
      <stop offset="0.9764705882352941" stop-color="#006597"/>
    </linearGradient>
    <linearGradient gradientTransform="matrix(0.0394, -0.0197, 0.0083, 0.0166, 37.35, -17.6)" gradientUnits="userSpaceOnUse" id="gradient1" spreadMethod="pad" x1="-819.2" x2="819.2">
      <stop offset="0.0" stop-color="#009ae2"/>
      <stop offset="0.9764705882352941" stop-color="#006597"/>
    </linearGradient>
    <linearGradient gradientTransform="matrix(-7.0E-4, 2.0E-4, -4.0E-4, -0.0016, 19.85, -21.25)" gradientUnits="userSpaceOnUse" id="gradient2" spreadMethod="pad" x1="-819.2" x2="819.2">
      <stop offset="0.00784313725490196" stop-color="#005478"/>
      <stop offset="0.9764705882352941" stop-color="#01384e"/>
    </linearGradient>
    <linearGradient gradientTransform="matrix(0.0378, -0.0084, 0.0041, 0.0185, 30.7, 5.1)" gradientUnits="userSpaceOnUse" id="gradient3" spreadMethod="pad" x1="-819.2" x2="819.2">
      <stop offset="0.00784313725490196" stop-color="#005478"/>
      <stop offset="0.9764705882352941" stop-color="#01384e"/>
    </linearGradient>
    <linearGradient gradientTransform="matrix(-0.0156, 0.0017, -7.0E-4, -0.0064, 21.5, -15.15)" gradientUnits="userSpaceOnUse" id="gradient4" spreadMethod="pad" x1="-819.2" x2="819.2">
      <stop offset="0.00784313725490196" stop-color="#005478"/>
      <stop offset="0.9764705882352941" stop-color="#01384e"/>
    </linearGradient>
    <linearGradient gradientTransform="matrix(0.0204, -0.0054, 0.0027, 0.0103, 38.65, -15.95)" gradientUnits="userSpaceOnUse" id="gradient5" spreadMethod="pad" x1="-819.2" x2="819.2">
      <stop offset="0.00784313725490196" stop-color="#001e2b"/>
      <stop offset="0.9764705882352941" stop-color="#01384e"/>
    </linearGradient>
    <linearGradient gradientTransform="matrix(0.012, 0.007, -0.0045, 0.0078, 49.6, -12.35)" gradientUnits="userSpaceOnUse" id="gradient6" spreadMethod="pad" x1="-819.2" x2="819.2">
      <stop offset="0.0" stop-color="#009ae2"/>
      <stop offset="0.9764705882352941" stop-color="#006597"/>
    </linearGradient>
    <linearGradient gradientTransform="matrix(0.0203, -0.0248, 0.0224, 0.0184, -21.15, 5.7)" gradientUnits="userSpaceOnUse" id="gradient7" spreadMethod="pad" x1="-819.2" x2="819.2">
      <stop offset="0.0" stop-color="#009ae2"/>
      <stop offset="0.9764705882352941" stop-color="#006597"/>
    </linearGradient>
    <linearGradient gradientTransform="matrix(0.0081, -0.0081, 0.0062, 0.0062, -37.0, 0.6)" gradientUnits="userSpaceOnUse" id="gradient8" spreadMethod="pad" x1="-819.2" x2="819.2">
      <stop offset="0.00784313725490196" stop-color="#005478"/>
      <stop offset="0.9764705882352941" stop-color="#01384e"/>
    </linearGradient>
    <linearGradient gradientTransform="matrix(0.0062, 0.0156, -0.0158, 0.0063, -16.85, -6.0)" gradientUnits="userSpaceOnUse" id="gradient9" spreadMethod="pad" x1="-819.2" x2="819.2">
      <stop offset="0.00784313725490196" stop-color="#005478"/>
      <stop offset="0.9764705882352941" stop-color="#01384e"/>
    </linearGradient>
    <linearGradient gradientTransform="matrix(0.0223, -0.0083, 0.0034, 0.0091, -27.85, 15.75)" gradientUnits="userSpaceOnUse" id="gradient10" spreadMethod="pad" x1="-819.2" x2="819.2">
      <stop offset="0.00784313725490196" stop-color="#005478"/>
      <stop offset="0.9764705882352941" stop-color="#01384e"/>
    </linearGradient>
    <linearGradient gradientTransform="matrix(0.0232, -0.0045, 0.0018, 0.0095, -31.7, 25.5)" gradientUnits="userSpaceOnUse" id="gradient11" spreadMethod="pad" x1="-819.2" x2="819.2">
      <stop offset="0.0" stop-color="#009ae2"/>
      <stop offset="0.9764705882352941" stop-color="#006597"/>
    </linearGradient>
    <linearGradient gradientTransform="matrix(0.0104, -0.0027, 0.0012, 0.0046, -28.2, 8.15)" gradientUnits="userSpaceOnUse" id="gradient12" spreadMethod="pad" x1="-819.2" x2="819.2">
      <stop offset="0.00784313725490196" stop-color="#001e2b"/>
      <stop offset="0.9764705882352941" stop-color="#01384e"/>
    </linearGradient>
  </defs>
</svg>
