<?xml version="1.0" encoding="UTF-8" standalone="no"?>
<svg xmlns:xlink="http://www.w3.org/1999/xlink" height="166.8px" width="201.85px" xmlns="http://www.w3.org/2000/svg">
  <g transform="matrix(1.0, 0.0, 0.0, 1.0, 11.6, 6.9)">
    <path d="M130.0 23.65 Q115.35 -4.2 89.35 -1.0 51.95 -1.45 37.8 30.95 34.6 73.35 53.3 103.5 L51.95 102.55 Q50.6 101.2 49.2 100.3 45.1 95.7 42.35 90.25 L41.45 87.95 39.6 83.4 41.45 87.95 41.0 87.95 28.2 80.2 Q16.35 95.25 43.25 112.6 51.05 117.15 59.25 119.9 88.0 129.5 118.1 118.55 131.35 112.6 139.55 104.85 147.75 96.2 150.95 85.25 147.3 78.85 133.65 87.95 L133.15 87.95 Q131.8 94.35 125.85 100.3 134.1 76.55 135.0 35.05 132.7 28.65 130.0 23.65 M134.55 82.5 Q133.65 85.25 133.15 87.95 133.65 85.25 134.55 82.5 138.65 80.65 143.2 78.85 166.5 76.1 143.65 103.95 123.15 129.5 82.05 130.85 45.55 127.65 27.3 106.2 12.25 84.75 25.95 76.1 31.4 75.65 39.6 83.4 29.6 58.3 34.6 25.9 46.45 -2.4 83.45 -6.5 123.6 -8.75 138.65 28.65 141.85 43.25 134.55 82.5" fill="#894589" fill-rule="evenodd" stroke="none"/>
    <path d="M53.3 103.5 Q34.6 73.35 37.8 30.95 51.95 -1.45 89.35 -1.0 115.35 -4.2 130.0 23.65 130.9 93.9 94.85 103.5 74.3 106.7 53.3 103.5 M125.85 100.3 Q131.8 94.35 133.15 87.95 L133.65 87.95 Q147.3 78.85 150.95 85.25 147.75 96.2 139.55 104.85 130.45 104.4 125.85 100.3 M41.45 87.95 L42.35 90.25 Q45.1 95.7 49.2 100.3 51.05 108.05 59.25 119.9 51.05 117.15 43.25 112.6 16.35 95.25 28.2 80.2 L41.0 87.95 41.45 87.95" fill="#663366" fill-rule="evenodd" stroke="none"/>
    <path d="M130.0 23.65 Q132.7 28.65 135.0 35.05 134.1 76.55 125.85 100.3 130.45 104.4 139.55 104.85 131.35 112.6 118.1 118.55 88.0 129.5 59.25 119.9 51.05 108.05 49.2 100.3 50.6 101.2 51.95 102.55 L53.3 103.5 Q74.3 106.7 94.85 103.5 130.9 93.9 130.0 23.65 M125.85 100.3 Q123.6 103.0 120.4 105.75 86.6 122.2 53.3 103.5 86.6 122.2 120.4 105.75 123.6 103.0 125.85 100.3" fill="#542954" fill-rule="evenodd" stroke="none"/>
    <path d="M125.85 100.3 Q131.8 94.35 133.15 87.95 133.65 85.25 134.55 82.5 141.85 43.25 138.65 28.65 123.6 -8.75 83.45 -6.5 46.45 -2.4 34.6 25.9 29.6 58.3 39.6 83.4 L41.45 87.95 42.35 90.25 Q45.1 95.7 49.2 100.3 50.6 101.2 51.95 102.55 L53.3 103.5 Q86.6 122.2 120.4 105.75 123.6 103.0 125.85 100.3 M134.55 82.5 Q138.65 80.65 143.2 78.85 166.5 76.1 143.65 103.95 123.15 129.5 82.05 130.85 45.55 127.65 27.3 106.2 12.25 84.75 25.95 76.1 31.4 75.65 39.6 83.4" fill="none" stroke="#000000" stroke-linecap="round" stroke-linejoin="round" stroke-opacity="0.4117647" stroke-width="0.5"/>
    <path d="M94.15 112.55 Q73.35 114.5 50.5 101.95 42.0 90.8 39.3 81.05 L65.45 88.15 Q91.5 92.25 118.45 85.15 111.45 98.85 94.15 112.55" fill="#666600" fill-rule="evenodd" stroke="none"/>
    <path d="M50.5 101.95 Q44.6 97.2 39.8 87.05 34.95 76.85 36.3 73.6 L38.15 78.15 38.1 78.4 Q90.35 97.55 135.7 76.75 135.8 74.25 136.65 72.5 L138.5 76.2 Q135.3 93.6 130.7 96.55 L129.6 97.4 Q135.35 87.85 135.55 79.55 127.0 82.9 118.45 85.15 91.5 92.25 65.45 88.15 L39.3 81.05 Q42.0 90.8 50.5 101.95" fill="#979700" fill-rule="evenodd" stroke="none"/>
    <path d="M129.6 97.4 Q112.7 110.75 94.15 112.55 111.45 98.85 118.45 85.15 127.0 82.9 135.55 79.55 135.35 87.85 129.6 97.4" fill="#333300" fill-rule="evenodd" stroke="none"/>
    <path d="M50.5 101.95 Q44.6 97.2 39.8 87.05 34.95 76.85 36.3 73.6 L38.15 78.15 38.1 78.4 Q90.35 97.55 135.7 76.75 135.8 74.25 136.65 72.5 L138.5 76.2 Q135.3 93.6 130.7 96.55 L129.6 97.4 Q112.7 110.75 94.15 112.55 73.35 114.5 50.5 101.95 Z" fill="none" stroke="#000000" stroke-linecap="round" stroke-linejoin="round" stroke-opacity="0.4" stroke-width="0.5"/>
    <path d="M121.75 87.35 Q123.9 90.85 123.9 95.25 123.9 101.3 119.8 105.65 L119.45 106.0 118.65 106.75 Q114.45 110.5 108.65 110.5 L105.3 110.2 Q101.1 109.3 97.85 106.0 95.15 103.35 94.1 100.0 L94.05 99.85 Q93.4 97.7 93.4 95.25 93.4 92.75 94.1 90.5 94.75 88.45 96.05 86.65 96.8 85.5 97.85 84.45 101.1 81.2 105.3 80.35 L108.65 80.0 Q114.45 80.0 118.65 83.7 L119.45 84.45 Q120.8 85.8 121.75 87.35 M113.55 86.0 Q111.45 84.9 108.85 84.95 L106.7 85.15 105.1 85.55 Q103.05 86.3 101.4 88.0 98.35 91.1 98.35 95.5 98.35 98.7 100.05 101.25 L101.4 102.9 Q103.05 104.55 105.1 105.35 L108.85 106.0 108.9 106.0 Q113.25 106.0 116.3 102.9 119.4 99.85 119.4 95.5 119.4 91.1 116.3 88.0 L113.55 86.0" fill="#999999" fill-rule="evenodd" stroke="none"/>
    <path d="M113.55 86.0 L116.3 88.0 Q119.4 91.1 119.4 95.5 119.4 99.85 116.3 102.9 113.25 106.0 108.9 106.0 L114.05 92.3 107.5 98.45 113.55 86.0 M100.05 101.25 Q98.35 98.7 98.35 95.5 98.35 91.1 101.4 88.0 103.05 86.3 105.1 85.55 L106.7 85.15 100.05 101.25" fill="#333333" fill-rule="evenodd" stroke="none"/>
    <path d="M106.7 85.15 L108.85 84.95 Q111.45 84.9 113.55 86.0 L107.5 98.45 114.05 92.3 108.9 106.0 108.85 106.0 105.1 105.35 Q103.05 104.55 101.4 102.9 L100.05 101.25 106.7 85.15" fill="#ffffff" fill-rule="evenodd" stroke="none"/>
    <path d="M123.5 86.6 Q125.95 90.5 125.95 95.45 125.95 102.2 121.35 107.1 L120.95 107.5 120.05 108.35 Q115.3 112.5 108.85 112.55 L105.1 112.15 Q100.4 111.15 96.75 107.5 93.75 104.55 92.55 100.8 L92.5 100.6 Q91.75 98.15 91.75 95.45 91.75 92.6 92.55 90.15 93.3 87.8 94.7 85.8 95.6 84.5 96.75 83.35 100.4 79.75 105.1 78.75 L108.85 78.35 Q115.3 78.35 120.05 82.55 L120.95 83.35 Q122.45 84.85 123.5 86.6 M121.75 87.35 Q120.8 85.8 119.45 84.45 L118.65 83.7 Q114.45 80.0 108.65 80.0 L105.3 80.35 Q101.1 81.2 97.85 84.45 96.8 85.5 96.05 86.65 94.75 88.45 94.1 90.5 93.4 92.75 93.4 95.25 93.4 97.7 94.05 99.85 L94.1 100.0 Q95.15 103.35 97.85 106.0 101.1 109.3 105.3 110.2 L108.65 110.5 Q114.45 110.5 118.65 106.75 L119.45 106.0 119.8 105.65 Q123.9 101.3 123.9 95.25 123.9 90.85 121.75 87.35" fill="#cccccc" fill-rule="evenodd" stroke="none"/>
    <path d="M123.5 86.6 Q125.95 90.5 125.95 95.45 125.95 102.2 121.35 107.1 L120.95 107.5 120.05 108.35 Q115.3 112.5 108.85 112.55 L105.1 112.15 Q100.4 111.15 96.75 107.5 93.75 104.55 92.55 100.8 L92.5 100.6 Q91.75 98.15 91.75 95.45 91.75 92.6 92.55 90.15 93.3 87.8 94.7 85.8 95.6 84.5 96.75 83.35 100.4 79.75 105.1 78.75 L108.85 78.35 Q115.3 78.35 120.05 82.55 L120.95 83.35 Q122.45 84.85 123.5 86.6 M106.7 85.15 L108.85 84.95 Q111.45 84.9 113.55 86.0 L116.3 88.0 Q119.4 91.1 119.4 95.5 119.4 99.85 116.3 102.9 113.25 106.0 108.9 106.0 L108.85 106.0 105.1 105.35 Q103.05 104.55 101.4 102.9 L100.05 101.25 Q98.35 98.7 98.35 95.5 98.35 91.1 101.4 88.0 103.05 86.3 105.1 85.55 L106.7 85.15 Z" fill="none" stroke="#000000" stroke-linecap="round" stroke-linejoin="round" stroke-opacity="0.4117647" stroke-width="0.5"/>
    <path d="M78.4 88.75 Q80.55 92.25 80.55 96.65 80.55 102.7 76.45 107.05 L76.1 107.4 75.3 108.15 Q71.1 111.9 65.3 111.9 L61.95 111.6 Q57.75 110.7 54.5 107.4 51.8 104.75 50.75 101.4 L50.7 101.25 Q50.05 99.1 50.05 96.65 50.05 94.15 50.75 91.9 51.4 89.85 52.7 88.05 L54.5 85.85 Q57.75 82.6 61.95 81.75 L65.3 81.4 Q71.1 81.4 75.3 85.1 L76.1 85.85 Q77.45 87.2 78.4 88.75 M63.35 86.55 L61.75 86.95 Q59.7 87.7 58.05 89.4 55.0 92.5 55.0 96.9 55.0 100.1 56.7 102.65 L58.05 104.3 Q59.7 105.95 61.75 106.75 63.5 107.4 65.5 107.4 L65.55 107.4 Q69.9 107.4 72.95 104.3 76.05 101.25 76.05 96.9 76.05 92.5 72.95 89.4 71.7 88.1 70.2 87.4 68.1 86.3 65.5 86.35 L63.35 86.55" fill="#999999" fill-rule="evenodd" stroke="none"/>
    <path d="M56.7 102.65 Q55.0 100.1 55.0 96.9 55.0 92.5 58.05 89.4 59.7 87.7 61.75 86.95 L63.35 86.55 56.7 102.65 M70.2 87.4 Q71.7 88.1 72.95 89.4 76.05 92.5 76.05 96.9 76.05 101.25 72.95 104.3 69.9 107.4 65.55 107.4 L70.7 93.7 64.15 99.85 70.2 87.4" fill="#333333" fill-rule="evenodd" stroke="none"/>
    <path d="M63.35 86.55 L65.5 86.35 Q68.1 86.3 70.2 87.4 L64.15 99.85 70.7 93.7 65.55 107.4 65.5 107.4 Q63.5 107.4 61.75 106.75 59.7 105.95 58.05 104.3 L56.7 102.65 63.35 86.55" fill="#ffffff" fill-rule="evenodd" stroke="none"/>
    <path d="M78.4 88.75 Q77.45 87.2 76.1 85.85 L75.3 85.1 Q71.1 81.4 65.3 81.4 L61.95 81.75 Q57.75 82.6 54.5 85.85 L52.7 88.05 Q51.4 89.85 50.75 91.9 50.05 94.15 50.05 96.65 50.05 99.1 50.7 101.25 L50.75 101.4 Q51.8 104.75 54.5 107.4 57.75 110.7 61.95 111.6 L65.3 111.9 Q71.1 111.9 75.3 108.15 L76.1 107.4 76.45 107.05 Q80.55 102.7 80.55 96.65 80.55 92.25 78.4 88.75 M77.6 84.75 Q79.1 86.25 80.15 88.0 82.6 91.9 82.6 96.85 82.6 103.6 78.0 108.5 L77.6 108.9 76.7 109.75 Q71.95 113.9 65.5 113.95 L61.75 113.55 Q57.05 112.55 53.4 108.9 50.4 105.95 49.2 102.2 L49.15 102.0 Q48.4 99.55 48.4 96.85 48.4 94.0 49.2 91.55 49.95 89.2 51.35 87.2 L53.4 84.75 Q57.05 81.15 61.75 80.15 L65.5 79.75 Q71.95 79.75 76.7 83.95 L77.6 84.75" fill="#cccccc" fill-rule="evenodd" stroke="none"/>
    <path d="M77.6 84.75 Q79.1 86.25 80.15 88.0 82.6 91.9 82.6 96.85 82.6 103.6 78.0 108.5 L77.6 108.9 76.7 109.75 Q71.95 113.9 65.5 113.95 L61.75 113.55 Q57.05 112.55 53.4 108.9 50.4 105.95 49.2 102.2 L49.15 102.0 Q48.4 99.55 48.4 96.85 48.4 94.0 49.2 91.55 49.95 89.2 51.35 87.2 L53.4 84.75 Q57.05 81.15 61.75 80.15 L65.5 79.75 Q71.95 79.75 76.7 83.95 L77.6 84.75 M56.7 102.65 Q55.0 100.1 55.0 96.9 55.0 92.5 58.05 89.4 59.7 87.7 61.75 86.95 L63.35 86.55 65.5 86.35 Q68.1 86.3 70.2 87.4 71.7 88.1 72.95 89.4 76.05 92.5 76.05 96.9 76.05 101.25 72.95 104.3 69.9 107.4 65.55 107.4 L65.5 107.4 Q63.5 107.4 61.75 106.75 59.7 105.95 58.05 104.3 L56.7 102.65 Z" fill="none" stroke="#000000" stroke-linecap="round" stroke-linejoin="round" stroke-opacity="0.4117647" stroke-width="0.5"/>
    <path d="M81.05 154.1 Q10.45 170.75 -11.6 139.5 10.05 164.75 81.05 148.15 L81.05 154.1" fill="#000000" fill-rule="evenodd" stroke="none"/>
    <path d="M95.8 153.0 Q167.75 167.35 190.25 135.4 168.2 161.35 95.8 147.05 L95.8 153.0" fill="#000000" fill-rule="evenodd" stroke="none"/>
  </g>
</svg>
