<?xml version="1.0" encoding="UTF-8" standalone="no"?>
<svg xmlns:xlink="http://www.w3.org/1999/xlink" height="63.25px" width="63.5px" xmlns="http://www.w3.org/2000/svg">
  <g transform="matrix(1.0, 0.0, 0.0, 1.0, -246.25, -179.15)">
    <path d="M271.1 224.9 Q269.95 219.3 272.3 214.05 L272.65 213.25 Q275.6 213.15 276.8 215.5 L276.65 215.8 Q274.25 221.3 275.6 227.15 L275.7 227.65 Q274.05 227.7 271.1 224.9 M275.0 209.55 L275.05 209.5 275.0 209.55 M288.35 236.5 Q290.5 236.5 292.75 235.75 294.4 235.1 295.7 234.25 298.95 234.3 300.15 235.9 L300.0 236.0 Q298.75 236.9 297.1 237.45 294.75 238.35 292.35 238.25 L288.35 236.5 M298.6 231.45 L300.25 228.6 Q301.2 226.4 301.35 224.1 L305.7 225.8 Q305.55 228.05 304.55 230.35 L303.6 232.2 303.55 232.3 Q300.25 233.1 298.6 231.45" fill="#ffcc00" fill-rule="evenodd" stroke="none"/>
    <path d="M272.65 213.25 Q273.6 211.2 275.0 209.55 275.75 212.15 279.65 211.0 L279.15 211.55 Q277.8 213.3 276.8 215.5 275.6 213.15 272.65 213.25 M295.7 234.25 Q297.35 233.1 298.6 231.45 300.25 233.1 303.55 232.3 302.2 234.5 300.15 235.9 298.95 234.3 295.7 234.25" fill="#fee892" fill-rule="evenodd" stroke="none"/>
    <path d="M306.85 214.8 Q307.75 216.35 308.45 218.25 309.85 222.2 309.6 226.05 L305.7 225.8 Q306.0 222.9 304.95 219.9 L304.8 219.5 304.05 217.6 306.85 214.8 M275.7 227.65 L275.6 227.15 Q274.25 221.3 276.65 215.8 L276.8 215.5 Q277.8 213.3 279.15 211.55 L279.65 211.0 281.25 209.4 Q283.4 207.65 286.25 206.65 288.3 205.9 290.4 205.7 L290.35 209.7 Q288.85 209.9 287.45 210.4 282.2 212.2 280.0 217.5 278.15 221.9 279.1 226.45 L275.7 227.65" fill="#8f7301" fill-rule="evenodd" stroke="none"/>
    <path d="M275.05 209.5 Q277.7 206.35 281.85 204.85 L283.65 204.35 Q288.8 204.4 290.4 205.7 288.3 205.9 286.25 206.65 283.4 207.65 281.25 209.4 L279.65 211.0 Q275.75 212.15 275.0 209.55 L275.05 209.5" fill="#fedc56" fill-rule="evenodd" stroke="none"/>
    <path d="M283.65 204.35 Q288.45 203.2 293.15 205.05 L293.75 205.3 296.45 206.45 295.45 206.15 290.4 205.7 Q288.8 204.4 283.65 204.35 M286.65 240.9 L283.15 239.5 282.4 239.2 281.0 238.55 Q276.8 236.35 274.3 232.55 L280.15 236.3 282.4 238.4 284.95 240.1 285.35 240.3 286.65 240.9 M286.0 236.2 L288.35 236.5 292.35 238.25 Q289.6 238.1 286.8 236.65 L286.0 236.2 M301.35 224.1 Q301.65 220.95 300.55 217.7 L299.35 215.1 Q301.45 215.8 304.05 217.6 L304.8 219.5 304.95 219.9 Q306.0 222.9 305.7 225.8 L301.35 224.1" fill="#dbaf02" fill-rule="evenodd" stroke="none"/>
    <path d="M296.45 206.45 L296.55 206.5 299.1 207.5 299.35 207.7 Q304.15 210.15 306.85 214.8 L304.05 217.6 303.1 215.95 Q300.6 215.7 298.35 213.65 296.7 211.35 294.25 209.9 296.0 210.25 297.75 211.15 301.1 212.9 303.1 215.95 301.1 212.9 297.75 211.15 296.0 210.25 294.25 209.9 L290.35 209.7 290.4 205.7 295.45 206.15 296.45 206.45 M292.4 242.3 Q290.0 242.2 287.65 241.3 L286.65 240.9 285.35 240.3 284.95 240.1 282.4 238.4 280.15 236.3 278.9 234.75 Q274.0 232.3 272.55 229.35 L271.9 227.95 271.1 224.9 Q274.05 227.7 275.7 227.65 L276.3 229.7 Q277.3 232.45 278.9 234.75 277.3 232.45 276.3 229.7 L275.7 227.65 279.1 226.45 279.7 228.35 Q281.1 232.3 283.95 234.75 L286.0 236.2 286.8 236.65 Q289.6 238.1 292.35 238.25 L292.4 242.3" fill="#b18e01" fill-rule="evenodd" stroke="none"/>
    <path d="M274.3 232.55 Q273.3 231.1 272.55 229.35 274.0 232.3 278.9 234.75 L280.15 236.3 274.3 232.55 M298.35 213.65 Q300.6 215.7 303.1 215.95 L304.05 217.6 Q301.45 215.8 299.35 215.1 L298.35 213.65" fill="#4b3d01" fill-rule="evenodd" stroke="none"/>
    <path d="M309.6 226.05 Q309.4 229.15 308.05 232.2 305.2 239.0 298.6 241.35 295.5 242.45 292.4 242.3 L292.35 238.25 Q294.75 238.35 297.1 237.45 298.75 236.9 300.0 236.0 L300.15 235.9 Q302.2 234.5 303.55 232.3 L303.6 232.2 304.55 230.35 Q305.55 228.05 305.7 225.8 L309.6 226.05" fill="#c19a02" fill-rule="evenodd" stroke="none"/>
    <path d="M271.1 224.9 Q269.95 219.3 272.3 214.05 L272.65 213.25 Q273.6 211.2 275.0 209.55 M275.05 209.5 Q277.7 206.35 281.85 204.85 L283.65 204.35 Q288.45 203.2 293.15 205.05 L293.75 205.3 296.45 206.45 296.55 206.5 299.1 207.5 299.35 207.7 Q304.15 210.15 306.85 214.8 307.75 216.35 308.45 218.25 309.85 222.2 309.6 226.05 309.4 229.15 308.05 232.2 305.2 239.0 298.6 241.35 295.5 242.45 292.4 242.3 290.0 242.2 287.65 241.3 L286.65 240.9 283.15 239.5 282.4 239.2 281.0 238.55 Q276.8 236.35 274.3 232.55 273.3 231.1 272.55 229.35 L271.9 227.95 271.1 224.9 M294.25 209.9 Q296.7 211.35 298.35 213.65 L299.35 215.1 300.55 217.7 Q301.65 220.95 301.35 224.1 301.2 226.4 300.25 228.6 L298.6 231.45 Q297.35 233.1 295.7 234.25 294.4 235.1 292.75 235.75 290.5 236.5 288.35 236.5 L286.0 236.2 283.95 234.75 Q281.1 232.3 279.7 228.35 L279.1 226.45 Q278.15 221.9 280.0 217.5 282.2 212.2 287.45 210.4 288.85 209.9 290.35 209.7 L294.25 209.9" fill="none" stroke="#000000" stroke-linecap="round" stroke-linejoin="round" stroke-opacity="0.4" stroke-width="0.2"/>
    <path d="M275.7 227.65 L275.6 227.15 Q274.25 221.3 276.65 215.8 L276.8 215.5 Q277.8 213.3 279.15 211.55 L279.65 211.0 281.25 209.4 Q283.4 207.65 286.25 206.65 288.3 205.9 290.4 205.7 L295.45 206.15 296.45 206.45 M303.1 215.95 Q301.1 212.9 297.75 211.15 296.0 210.25 294.25 209.9 M305.7 225.8 Q306.0 222.9 304.95 219.9 L304.8 219.5 304.05 217.6 303.1 215.95 M300.15 235.9 L300.0 236.0 Q298.75 236.9 297.1 237.45 294.75 238.35 292.35 238.25 289.6 238.1 286.8 236.65 L286.0 236.2 M300.15 235.9 Q302.2 234.5 303.55 232.3 L303.6 232.2 304.55 230.35 Q305.55 228.05 305.7 225.8 M275.7 227.65 L276.3 229.7 Q277.3 232.45 278.9 234.75 L280.15 236.3 282.4 238.4 284.95 240.1 285.35 240.3 286.65 240.9" fill="none" stroke="#ffff99" stroke-linecap="round" stroke-linejoin="round" stroke-opacity="0.5803922" stroke-width="0.2"/>
    <path d="M251.6 216.95 L251.1 216.15 Q247.45 210.75 246.4 203.8 245.4 186.85 257.75 181.45 265.35 179.05 271.7 179.25 281.55 179.45 288.45 185.9 309.65 207.35 309.1 215.65 307.45 220.2 302.4 220.8 299.05 220.5 297.8 216.1 297.4 214.0 295.7 212.55 291.85 209.45 287.3 211.75 281.5 214.95 280.3 220.55 279.8 231.05 284.85 233.75 290.9 236.25 288.5 239.9 284.25 243.45 276.7 240.55 263.5 234.45 251.6 216.95" fill="url(#gradient0)" fill-rule="evenodd" stroke="none"/>
    <path d="M251.6 216.95 Q263.5 234.45 276.7 240.55 284.25 243.45 288.5 239.9 290.9 236.25 284.85 233.75 279.8 231.05 280.3 220.55 281.5 214.95 287.3 211.75 291.85 209.45 295.7 212.55 297.4 214.0 297.8 216.1 299.05 220.5 302.4 220.8 307.45 220.2 309.1 215.65 309.65 207.35 288.45 185.9 281.55 179.45 271.7 179.25 265.35 179.05 257.75 181.45 245.4 186.85 246.4 203.8 247.45 210.75 251.1 216.15 L251.6 216.95 Z" fill="none" stroke="#000000" stroke-linecap="round" stroke-linejoin="round" stroke-opacity="0.4" stroke-width="0.2"/>
    <path d="M248.55 201.3 Q251.55 215.1 262.0 227.2 266.15 228.75 265.55 224.35 258.25 216.35 253.2 201.2 249.1 196.0 248.55 201.3 M277.95 232.75 Q273.3 231.0 269.7 228.35 265.55 228.3 267.15 232.05 271.1 236.2 275.85 237.5 282.7 237.35 277.95 232.75" fill="#ffffff" fill-opacity="0.48235294" fill-rule="evenodd" stroke="none"/>
  </g>
  <defs>
    <linearGradient gradientTransform="matrix(0.0177, -0.0097, 0.0194, 0.0355, 277.25, 208.45)" gradientUnits="userSpaceOnUse" id="gradient0" spreadMethod="pad" x1="-819.2" x2="819.2">
      <stop offset="0.06666666666666667" stop-color="#ff0b0b" stop-opacity="0.7019608"/>
      <stop offset="0.5137254901960784" stop-color="#f56b58" stop-opacity="0.7019608"/>
      <stop offset="1.0" stop-color="#fbe7d9" stop-opacity="0.6509804"/>
    </linearGradient>
  </defs>
</svg>
