<?xml version="1.0" encoding="UTF-8" standalone="no"?>
<svg xmlns:xlink="http://www.w3.org/1999/xlink" height="40.35px" width="42.5px" xmlns="http://www.w3.org/2000/svg">
  <g transform="matrix(1.0, 0.0, 0.0, 1.0, -254.2, -176.9)">
    <path d="M266.05 199.75 Q259.05 194.55 266.55 190.3 274.05 186.05 272.3 186.0 264.3 186.65 262.0 185.85 260.9 185.5 259.45 184.4 L255.95 182.05 Q253.8 180.7 255.3 179.95 256.95 178.95 263.6 178.55 L272.85 177.65 279.85 177.45 Q287.35 177.75 291.9 180.7 L293.75 182.25 Q292.65 179.8 294.5 179.0 M291.9 180.7 Q294.05 183.2 292.7 183.35 M283.25 204.85 Q286.2 203.65 291.4 197.4 299.05 188.2 294.5 183.0 L293.75 182.25" fill="none" stroke="#382510" stroke-linecap="round" stroke-linejoin="round" stroke-opacity="0.5019608" stroke-width="1.0"/>
    <path d="M293.9 182.65 L293.35 182.9 292.75 182.65 292.55 182.1 292.75 181.5 Q293.0 181.3 293.35 181.3 L293.9 181.5 294.15 182.1 293.9 182.65 Z" fill="none" stroke="#382510" stroke-linecap="round" stroke-linejoin="round" stroke-opacity="0.5019608" stroke-width="1.0"/>
    <path d="M263.2 214.85 Q263.35 215.15 264.05 215.05 L264.55 215.55 264.5 214.95 265.6 214.55 266.4 213.9 267.25 213.9 267.35 212.85 268.6 211.25 269.15 211.25 269.15 210.35 269.45 209.8 Q271.4 210.4 272.6 209.45 L273.2 208.75 277.1 210.4 277.8 210.45 278.2 210.2 278.9 211.9 Q279.35 212.55 277.85 212.35 L273.7 210.6 Q272.4 212.55 269.75 211.7 268.15 214.75 265.75 216.75 L263.15 216.85 263.15 216.8 263.2 214.85 M276.9 208.35 L275.65 206.65 277.8 206.45 280.6 206.9 281.35 206.1 284.0 205.95 283.7 205.65 284.25 205.3 284.4 204.8 285.0 205.8 285.5 206.6 Q285.4 207.2 283.65 207.65 L276.9 208.35 M282.2 203.5 L278.7 203.1 279.8 202.8 Q280.85 202.35 281.7 201.6 L282.25 201.6 282.4 200.85 283.3 199.3 282.35 199.3 283.5 198.9 284.3 195.55 283.55 195.55 284.35 195.1 284.4 194.7 284.25 193.4 285.2 194.3 285.3 194.45 Q285.6 194.85 285.4 196.65 284.75 201.5 282.2 203.5 M279.5 195.5 L278.5 195.45 278.95 193.2 278.85 192.8 279.45 193.55 279.7 193.9 279.8 194.25 279.5 195.5 M277.0 193.55 L276.25 194.25 276.9 185.35 277.0 185.25 277.2 185.45 Q277.4 185.55 277.6 185.8 L277.0 193.55 M261.4 199.4 L261.65 200.0 262.0 200.55 265.05 202.4 264.8 203.7 261.9 201.95 Q261.2 201.0 261.3 200.5 L261.4 200.3 261.4 199.4 M264.9 205.5 Q265.2 207.25 266.8 208.55 L266.15 209.65 266.0 209.45 Q264.65 207.75 264.9 205.5" fill="#333333" fill-rule="evenodd" stroke="none"/>
    <path d="M275.75 186.6 L275.55 185.8 272.75 195.95 Q270.55 196.45 269.45 197.35 L269.05 196.65 Q270.3 195.9 272.05 195.55 L274.55 186.1 Q275.6 184.2 276.6 184.9 L276.9 185.15 276.9 185.35 276.25 194.25 277.0 193.55 278.0 192.65 Q278.45 192.4 278.7 192.65 L278.85 192.8 278.95 193.2 278.5 195.45 279.5 195.5 279.8 195.5 Q281.9 195.35 282.95 194.05 283.7 193.1 284.1 193.25 L284.25 193.4 284.4 194.7 284.35 195.1 283.55 195.55 284.3 195.55 283.5 198.9 282.35 199.3 283.3 199.3 282.4 200.85 282.25 201.6 281.7 201.6 Q280.85 202.35 279.8 202.8 L278.7 203.1 282.2 203.5 282.8 203.5 284.2 204.45 284.4 204.8 284.25 205.3 283.7 205.65 284.0 205.95 281.35 206.1 280.6 206.9 277.8 206.45 275.65 206.65 276.9 208.35 277.65 209.4 277.7 209.45 278.2 210.2 277.8 210.45 277.1 210.4 273.2 208.75 272.6 209.45 Q271.4 210.4 269.45 209.8 L269.15 210.35 269.15 211.25 268.6 211.25 267.35 212.85 267.25 213.9 266.4 213.9 265.6 214.55 264.5 214.95 264.55 215.55 264.05 215.05 Q263.35 215.15 263.2 214.85 L263.15 214.65 263.55 213.85 265.85 210.2 266.0 210.25 266.55 210.5 264.45 214.35 266.25 212.0 267.4 211.6 266.7 211.4 268.85 208.5 269.2 208.65 Q270.85 208.9 271.65 208.25 L269.25 207.9 270.25 206.6 270.35 206.6 Q271.85 207.1 272.7 206.6 L275.6 208.55 276.5 209.4 273.65 205.35 281.0 204.8 282.35 204.55 273.6 203.95 Q273.35 203.2 272.2 203.2 L270.8 203.35 271.45 203.8 271.35 203.8 Q272.4 204.2 272.65 204.65 L272.1 205.2 Q270.7 206.15 269.95 204.3 270.3 201.9 273.2 202.3 L278.55 201.85 279.8 201.05 Q281.8 199.5 282.35 196.9 L283.05 195.2 Q281.15 197.5 279.8 198.1 278.2 198.75 276.45 198.05 L276.5 197.8 279.8 197.5 280.65 196.7 281.35 196.25 Q278.75 196.85 277.1 196.25 L277.7 194.6 277.95 193.6 275.9 196.25 274.9 195.75 275.75 186.6 M268.85 197.3 L269.45 197.35 Q268.85 197.85 268.55 198.45 L268.35 198.9 268.9 198.9 Q271.1 197.5 273.1 197.35 L275.25 197.45 275.7 197.6 275.45 197.95 Q273.0 197.5 271.35 198.0 L271.2 198.05 271.0 198.15 270.8 198.25 Q269.15 198.9 268.2 200.6 L267.65 200.4 267.95 199.9 268.2 199.45 266.7 200.4 262.1 199.05 262.6 199.75 266.05 201.45 Q265.55 202.6 266.5 203.4 L266.9 201.85 268.2 202.5 Q267.35 205.45 269.55 206.4 L269.2 207.0 Q267.7 206.2 266.6 203.9 266.0 204.4 267.0 206.35 L267.6 207.4 268.0 207.85 266.9 209.9 266.15 209.65 266.8 208.55 Q265.2 207.25 264.9 205.5 264.7 204.65 264.8 203.7 L265.05 202.4 262.0 200.55 261.65 200.0 261.4 199.4 261.4 199.35 261.4 199.05 Q261.6 198.45 262.85 198.45 L266.55 199.55 Q267.05 198.15 268.2 197.2 L268.85 197.3" fill="#666666" fill-rule="evenodd" stroke="none"/>
    <path d="M275.75 186.6 L274.9 195.75 274.8 196.4 276.15 196.85 277.7 194.6 277.1 196.25 276.8 197.0 Q278.35 197.3 279.8 197.0 L280.65 196.7 279.8 197.5 276.5 197.8 276.45 198.05 276.25 198.45 279.8 198.6 Q281.1 198.05 282.35 196.6 L282.45 196.4 282.35 196.9 Q281.8 199.5 279.8 201.05 L278.55 201.85 273.2 202.3 Q270.3 201.9 269.95 204.3 L269.9 204.65 Q270.65 206.7 272.1 205.7 272.9 205.15 272.65 204.65 272.4 204.2 271.35 203.8 L271.45 203.8 272.2 203.7 Q273.35 203.7 273.6 204.45 L281.0 204.8 273.65 205.35 273.3 206.05 275.6 208.55 272.7 206.6 Q271.85 207.1 270.35 206.6 L270.25 206.6 269.25 207.9 271.65 208.25 Q270.85 208.9 269.2 208.65 L268.85 208.5 266.7 211.4 266.25 212.0 264.45 214.35 268.4 208.2 268.0 207.85 267.6 207.4 267.0 206.35 Q266.7 205.55 266.65 204.55 267.2 206.5 268.8 207.5 L268.85 207.6 269.2 207.0 269.55 206.4 Q267.35 205.45 268.2 202.5 L266.9 201.85 266.5 203.4 Q266.2 202.7 266.65 201.75 L266.05 201.45 262.6 199.75 267.05 201.0 267.95 199.9 267.65 200.4 267.3 201.05 268.6 201.35 268.85 200.9 Q269.65 199.3 271.15 198.65 L271.35 198.55 271.5 198.45 271.65 198.4 275.25 198.25 275.45 197.95 275.7 197.6 275.25 197.45 273.1 197.35 Q271.1 197.5 268.9 198.9 270.15 196.9 273.3 196.55 L275.75 186.6" fill="#000000" fill-rule="evenodd" stroke="none"/>
    <path d="M269.05 196.65 L269.45 197.35 Q270.55 196.45 272.75 195.95 L275.55 185.8 275.75 186.6 273.3 196.55 Q270.15 196.9 268.9 198.9 L268.35 198.9 268.55 198.45 Q268.85 197.85 269.45 197.35 L268.85 197.3 269.05 196.65 M274.9 195.75 L275.9 196.25 277.95 193.6 277.7 194.6 276.15 196.85 274.8 196.4 274.9 195.75 M277.1 196.25 Q278.75 196.85 281.35 196.25 L280.65 196.7 279.8 197.0 Q278.35 197.3 276.8 197.0 L277.1 196.25 M276.45 198.05 Q278.2 198.75 279.8 198.1 281.15 197.5 283.05 195.2 L282.35 196.9 282.45 196.4 282.35 196.6 Q281.1 198.05 279.8 198.6 L276.25 198.45 276.45 198.05 M269.95 204.3 Q270.7 206.15 272.1 205.2 L272.65 204.65 Q272.9 205.15 272.1 205.7 270.65 206.7 269.9 204.65 L269.95 204.3 M271.45 203.8 L270.8 203.35 272.2 203.2 Q273.35 203.2 273.6 203.95 L282.35 204.55 281.0 204.8 273.6 204.45 Q273.35 203.7 272.2 203.7 L271.45 203.8 M273.65 205.35 L276.5 209.4 275.6 208.55 273.3 206.05 273.65 205.35 M266.7 211.4 L267.4 211.6 266.25 212.0 266.7 211.4 M264.45 214.35 L266.55 210.5 266.0 210.25 266.15 209.65 266.9 209.9 268.0 207.85 268.4 208.2 264.45 214.35 M267.0 206.35 Q266.0 204.4 266.6 203.9 267.7 206.2 269.2 207.0 L268.85 207.6 268.8 207.5 Q267.2 206.5 266.65 204.55 266.7 205.55 267.0 206.35 M266.5 203.4 Q265.55 202.6 266.05 201.45 L266.65 201.75 Q266.2 202.7 266.5 203.4 M262.6 199.75 L262.1 199.05 266.7 200.4 268.2 199.45 267.95 199.9 267.05 201.0 262.6 199.75 M267.65 200.4 L268.2 200.6 Q269.15 198.9 270.8 198.25 L271.0 198.15 271.2 198.05 271.35 198.0 Q273.0 197.5 275.45 197.95 L275.25 198.25 271.65 198.4 271.5 198.45 271.35 198.55 271.15 198.65 Q269.65 199.3 268.85 200.9 L268.6 201.35 267.3 201.05 267.65 200.4" fill="#4d4d4d" fill-rule="evenodd" stroke="none"/>
    <path d="M277.3 190.1 L277.0 193.55 276.35 194.15 276.25 194.15 276.65 189.2 276.85 189.45 277.3 190.1 M277.3 189.95 L276.95 189.4 276.65 188.9 276.75 187.8 277.1 188.05 277.4 188.6 277.3 189.95 M264.05 202.95 Q264.1 202.2 264.4 202.0 L265.05 202.4 264.8 203.7 264.05 203.25 264.05 202.95 M265.9 209.35 L266.1 208.55 266.3 208.1 266.8 208.55 266.15 209.65 266.0 209.45 265.9 209.35 M265.5 214.6 L265.55 214.9 265.85 216.7 265.75 216.75 265.15 216.95 264.9 215.95 264.75 214.85 265.5 214.6 M267.25 213.9 L267.35 212.85 268.6 211.25 269.15 211.25 269.15 210.35 269.45 209.85 269.45 209.8 271.0 210.05 271.0 210.1 271.2 211.95 269.75 211.7 Q268.25 214.55 266.1 216.45 L266.05 215.95 265.6 214.55 266.4 213.9 267.25 213.9 M284.3 195.55 L283.65 195.55 283.65 195.5 Q283.7 195.0 284.2 195.2 L284.45 195.3 285.3 195.95 285.45 196.05 285.4 196.65 285.3 197.5 284.3 196.7 284.15 196.5 284.3 195.55 M279.5 195.5 L278.55 195.45 278.5 195.4 278.8 193.95 Q279.2 194.0 279.6 194.55 L279.7 194.7 279.5 195.5 M278.8 203.1 L279.8 202.8 Q280.85 202.35 281.7 201.6 L282.25 201.6 282.4 200.85 283.3 199.3 282.35 199.3 283.5 198.9 284.05 197.05 Q284.5 197.15 285.2 197.85 284.45 201.7 282.25 203.45 L282.05 203.5 278.8 203.1 M275.8 206.65 L277.8 206.45 280.6 206.9 281.35 206.1 282.25 206.05 282.7 207.05 282.85 207.75 276.9 208.35 276.65 208.05 275.95 207.05 275.8 206.65 M272.1 210.45 L272.3 211.8 271.45 211.95 271.25 211.05 271.15 210.05 272.0 209.85 272.1 210.45 M277.85 212.35 L277.15 210.4 277.8 210.45 278.2 210.2 278.9 211.9 Q279.35 212.55 277.85 212.35 M283.4 207.7 L283.35 207.45 282.8 206.05 283.75 206.0 284.15 206.65 284.55 207.4 283.65 207.65 283.4 207.7" fill="#000000" fill-opacity="0.3019608" fill-rule="evenodd" stroke="none"/>
    <path d="M262.6 199.75 L267.05 201.0 267.95 199.9 267.3 201.05 268.6 201.35 Q270.3 197.45 275.25 198.25 L275.7 197.6 275.25 197.45 273.1 197.35 Q271.1 197.5 268.9 198.9 270.15 196.9 273.3 196.55 L275.75 186.6 274.8 196.4 276.15 196.85 277.7 194.6 276.8 197.0 280.65 196.7 Q279.45 198.35 276.5 197.8 L276.25 198.45 Q279.55 200.0 282.45 196.4 281.9 200.1 278.55 201.85 L273.2 202.3 Q270.1 201.85 269.9 204.65 270.65 206.7 272.1 205.7 273.6 204.65 271.35 203.8 273.3 203.45 273.6 204.45 L281.0 204.8 273.65 205.35 273.3 206.05 275.6 208.55 272.7 206.6 Q271.85 207.1 270.35 206.6 L270.25 206.6 269.25 207.9 271.65 208.25 Q270.85 208.9 269.2 208.65 L268.85 208.5 264.45 214.35 268.4 208.2 Q266.75 206.95 266.65 204.55 267.2 206.5 268.8 207.5 L268.85 207.6 269.55 206.4 Q267.35 205.45 268.2 202.5 L266.9 201.85 266.5 203.4 Q266.2 202.7 266.65 201.75 L262.6 199.75" fill="#5eb9a2" fill-rule="evenodd" stroke="none"/>
  </g>
</svg>
