<?xml version="1.0" encoding="UTF-8" standalone="no"?>
<svg xmlns:xlink="http://www.w3.org/1999/xlink" height="38.6px" width="39.15px" xmlns="http://www.w3.org/2000/svg">
  <g transform="matrix(1.0, 0.0, 0.0, 1.0, -270.95, -201.9)">
    <path d="M271.45 223.0 Q270.3 217.4 272.65 212.15 L273.0 211.35 Q275.95 211.25 277.15 213.6 L277.0 213.9 Q274.6 219.4 275.95 225.25 L276.05 225.75 Q274.4 225.8 271.45 223.0 M275.35 207.65 L275.4 207.6 275.35 207.65 M288.7 234.6 Q290.85 234.6 293.1 233.85 L296.05 232.35 Q299.3 232.4 300.5 234.0 L300.35 234.1 Q299.1 235.0 297.45 235.55 295.1 236.45 292.7 236.35 L288.7 234.6 M298.95 229.55 L300.6 226.7 Q301.55 224.5 301.7 222.2 L306.05 223.9 Q305.9 226.15 304.9 228.45 L303.95 230.3 303.9 230.4 Q300.6 231.2 298.95 229.55" fill="#ffcc00" fill-rule="evenodd" stroke="none"/>
    <path d="M273.0 211.35 Q273.95 209.3 275.35 207.65 276.1 210.25 280.0 209.1 L279.5 209.65 Q278.15 211.4 277.15 213.6 275.95 211.25 273.0 211.35 M296.05 232.35 Q297.7 231.2 298.95 229.55 300.6 231.2 303.9 230.4 302.55 232.6 300.5 234.0 299.3 232.4 296.05 232.35" fill="#fee892" fill-rule="evenodd" stroke="none"/>
    <path d="M307.2 212.9 Q308.1 214.45 308.8 216.35 310.2 220.3 309.95 224.15 L306.05 223.9 Q306.35 221.0 305.3 218.0 L305.15 217.6 304.4 215.7 307.2 212.9 M276.05 225.75 L275.95 225.25 Q274.6 219.4 277.0 213.9 L277.15 213.6 Q278.15 211.4 279.5 209.65 L280.0 209.1 281.6 207.5 Q283.75 205.75 286.6 204.75 288.65 204.0 290.75 203.8 L290.7 207.8 287.8 208.5 Q282.55 210.3 280.35 215.6 278.5 220.0 279.45 224.55 L276.05 225.75" fill="#8f7301" fill-rule="evenodd" stroke="none"/>
    <path d="M275.4 207.6 Q278.05 204.45 282.2 202.95 L284.0 202.45 Q289.15 202.5 290.75 203.8 288.65 204.0 286.6 204.75 283.75 205.75 281.6 207.5 L280.0 209.1 Q276.1 210.25 275.35 207.65 L275.4 207.6" fill="#fedc56" fill-rule="evenodd" stroke="none"/>
    <path d="M284.0 202.45 Q288.8 201.3 293.5 203.15 L294.1 203.4 296.8 204.55 295.8 204.25 290.75 203.8 Q289.15 202.5 284.0 202.45 M287.0 239.0 L283.5 237.6 282.75 237.3 281.35 236.65 Q277.15 234.45 274.65 230.65 L280.5 234.4 282.75 236.5 285.3 238.2 285.7 238.4 287.0 239.0 M286.35 234.3 L288.7 234.6 292.7 236.35 Q289.95 236.2 287.15 234.75 L286.35 234.3 M301.7 222.2 Q302.0 219.05 300.9 215.8 L299.7 213.2 Q301.8 213.9 304.4 215.7 L305.15 217.6 305.3 218.0 Q306.35 221.0 306.05 223.9 L301.7 222.2" fill="#dbaf02" fill-rule="evenodd" stroke="none"/>
    <path d="M296.8 204.55 L296.9 204.6 299.45 205.6 299.7 205.8 Q304.5 208.25 307.2 212.9 L304.4 215.7 303.45 214.05 Q300.95 213.8 298.7 211.75 297.05 209.45 294.6 208.0 296.35 208.35 298.1 209.25 301.45 211.0 303.45 214.05 301.45 211.0 298.1 209.25 296.35 208.35 294.6 208.0 L290.7 207.8 290.75 203.8 295.8 204.25 296.8 204.55 M292.75 240.4 Q290.35 240.3 288.0 239.4 L287.0 239.0 285.7 238.4 285.3 238.2 282.75 236.5 280.5 234.4 279.25 232.85 Q274.35 230.4 272.9 227.45 L272.25 226.05 271.45 223.0 Q274.4 225.8 276.05 225.75 L276.65 227.8 Q277.65 230.55 279.25 232.85 277.65 230.55 276.65 227.8 L276.05 225.75 279.45 224.55 280.05 226.45 Q281.45 230.4 284.3 232.85 L286.35 234.3 287.15 234.75 Q289.95 236.2 292.7 236.35 L292.75 240.4" fill="#b18e01" fill-rule="evenodd" stroke="none"/>
    <path d="M274.65 230.65 Q273.65 229.2 272.9 227.45 274.35 230.4 279.25 232.85 L280.5 234.4 274.65 230.65 M298.7 211.75 Q300.95 213.8 303.45 214.05 L304.4 215.7 Q301.8 213.9 299.7 213.2 L298.7 211.75" fill="#4b3d01" fill-rule="evenodd" stroke="none"/>
    <path d="M309.95 224.15 Q309.75 227.25 308.4 230.3 305.55 237.1 298.95 239.45 295.85 240.55 292.75 240.4 L292.7 236.35 Q295.1 236.45 297.45 235.55 299.1 235.0 300.35 234.1 L300.5 234.0 Q302.55 232.6 303.9 230.4 L303.95 230.3 304.9 228.45 Q305.9 226.15 306.05 223.9 L309.95 224.15" fill="#c19a02" fill-rule="evenodd" stroke="none"/>
    <path d="M271.45 223.0 Q270.3 217.4 272.65 212.15 L273.0 211.35 Q273.95 209.3 275.35 207.65 M275.4 207.6 Q278.05 204.45 282.2 202.95 L284.0 202.45 Q288.8 201.3 293.5 203.15 L294.1 203.4 296.8 204.55 296.9 204.6 299.45 205.6 299.7 205.8 Q304.5 208.25 307.2 212.9 308.1 214.45 308.8 216.35 310.2 220.3 309.95 224.15 309.75 227.25 308.4 230.3 305.55 237.1 298.95 239.45 295.85 240.55 292.75 240.4 290.35 240.3 288.0 239.4 L287.0 239.0 283.5 237.6 282.75 237.3 281.35 236.65 Q277.15 234.45 274.65 230.65 273.65 229.2 272.9 227.45 L272.25 226.05 271.45 223.0 M294.6 208.0 Q297.05 209.45 298.7 211.75 L299.7 213.2 300.9 215.8 Q302.0 219.05 301.7 222.2 301.55 224.5 300.6 226.7 L298.95 229.55 Q297.7 231.2 296.05 232.35 L293.1 233.85 Q290.85 234.6 288.7 234.6 L286.35 234.3 284.3 232.85 Q281.45 230.4 280.05 226.45 L279.45 224.55 Q278.5 220.0 280.35 215.6 282.55 210.3 287.8 208.5 L290.7 207.8 294.6 208.0" fill="none" stroke="#000000" stroke-linecap="round" stroke-linejoin="round" stroke-opacity="0.4" stroke-width="0.2"/>
    <path d="M276.05 225.75 L275.95 225.25 Q274.6 219.4 277.0 213.9 L277.15 213.6 Q278.15 211.4 279.5 209.65 L280.0 209.1 281.6 207.5 Q283.75 205.75 286.6 204.75 288.65 204.0 290.75 203.8 L295.8 204.25 296.8 204.55 M303.45 214.05 Q301.45 211.0 298.1 209.25 296.35 208.35 294.6 208.0 M306.05 223.9 Q306.35 221.0 305.3 218.0 L305.15 217.6 304.4 215.7 303.45 214.05 M300.5 234.0 L300.35 234.1 Q299.1 235.0 297.45 235.55 295.1 236.45 292.7 236.35 289.95 236.2 287.15 234.75 L286.35 234.3 M300.5 234.0 Q302.55 232.6 303.9 230.4 L303.95 230.3 304.9 228.45 Q305.9 226.15 306.05 223.9 M276.05 225.75 L276.65 227.8 Q277.65 230.55 279.25 232.85 L280.5 234.4 282.75 236.5 285.3 238.2 285.7 238.4 287.0 239.0" fill="none" stroke="#ffff99" stroke-linecap="round" stroke-linejoin="round" stroke-opacity="0.5803922" stroke-width="0.2"/>
  </g>
</svg>
