<?xml version="1.0" encoding="UTF-8" standalone="no"?>
<svg xmlns:xlink="http://www.w3.org/1999/xlink" height="196.95px" width="110.95px" xmlns="http://www.w3.org/2000/svg">
  <g transform="matrix(1.0, 0.0, 0.0, 1.0, 55.45, 98.45)">
    <path d="M2.25 2.85 L1.75 3.75 1.9 2.65 2.25 2.85" fill="#31536c" fill-rule="evenodd" stroke="none"/>
    <path d="M43.2 -54.2 Q29.3 -46.8 18.15 -25.65 L2.25 2.85 1.9 2.65 Q3.15 -8.65 3.55 -21.45 3.8 -33.9 4.45 -44.3 7.0 -87.3 15.55 -96.2 L17.35 -87.25 Q25.7 -73.2 48.7 -77.15 L55.5 -75.45 Q47.65 -71.65 43.2 -54.2 M-7.35 91.9 L6.95 65.55 12.5 41.95 21.55 20.5 21.55 32.5 27.55 20.5 22.35 56.05 Q22.55 50.65 21.6 45.6 L-6.45 98.5 Q-5.25 94.2 -7.35 91.9 M-24.15 64.0 L-30.45 64.5 -22.45 47.5 -40.45 61.5 Q-37.3 52.85 -51.45 61.5 -12.6 24.4 -21.1 23.5 L-33.45 30.5 -55.45 30.5 Q-39.35 29.85 -26.45 19.5 L-12.45 5.15 -11.45 31.0 -16.45 37.5 -14.6 36.2 -24.15 64.0" fill="#666637" fill-rule="evenodd" stroke="none"/>
    <path d="M43.2 -54.2 L42.55 -51.45 Q39.25 -33.35 35.3 -16.5 L35.3 25.5 Q35.05 46.6 45.55 60.5 35.7 53.2 31.55 34.5 28.05 62.95 17.55 77.5 21.95 66.1 22.35 56.05 L27.55 20.5 22.55 11.5 Q20.8 -2.4 31.75 -35.4 L19.55 -7.45 Q12.75 4.05 14.55 15.5 16.65 23.3 10.55 46.5 L12.5 41.95 6.95 65.55 -7.35 91.9 Q-10.45 88.6 -20.45 89.5 L-4.45 77.5 Q1.15 77.75 3.55 54.5 L8.55 21.5 -4.45 62.5 -17.45 74.5 Q-14.55 67.5 -18.65 65.15 L-10.45 50.5 Q-5.65 40.4 -2.45 27.6 -0.15 18.2 1.3 7.45 L1.75 3.75 2.25 2.85 18.15 -25.65 Q29.3 -46.8 43.2 -54.2 M48.7 -77.15 Q25.7 -73.2 17.35 -87.25 L15.55 -96.2 Q17.4 -98.15 19.55 -98.45 22.6 -81.95 48.7 -77.15" fill="#3e3e22" fill-rule="evenodd" stroke="none"/>
    <path d="M1.75 3.75 L1.3 7.45 Q-0.6 18.95 -6.45 24.5 L-11.45 31.0 -12.45 5.15 -11.1 3.75 Q-1.65 -17.85 4.45 -44.3 3.8 -33.9 3.55 -21.45 3.15 -8.65 1.9 2.65 L1.75 3.75 M-2.45 27.6 Q-5.65 40.4 -10.45 50.5 L-18.65 65.15 Q-20.6 64.05 -24.15 64.0 L-14.6 36.2 -2.45 27.6" fill="#31301c" fill-rule="evenodd" stroke="none"/>
    <path d="M35.3 -16.5 Q39.25 -33.35 42.55 -51.45 L43.2 -54.2 Q47.65 -71.65 55.5 -75.45 M1.75 3.75 L1.3 7.45 Q-0.15 18.2 -2.45 27.6 -5.65 40.4 -10.45 50.5 M-18.65 65.15 Q-14.55 67.5 -17.45 74.5 L-4.45 62.5 8.55 21.5 3.55 54.5 Q1.15 77.75 -4.45 77.5 L-20.45 89.5 Q-10.45 88.6 -7.35 91.9 -5.25 94.2 -6.45 98.5 L21.6 45.6 M12.5 41.95 L10.55 46.5 Q16.65 23.3 14.55 15.5 12.75 4.05 19.55 -7.45 L31.75 -35.4 Q20.8 -2.4 22.55 11.5 L27.55 20.5 21.55 32.5 21.55 20.5 12.5 41.95 M15.55 -96.2 Q7.0 -87.3 4.45 -44.3 3.8 -33.9 3.55 -21.45 3.15 -8.65 1.9 2.65 L1.75 3.75 M19.55 -98.45 Q17.4 -98.15 15.55 -96.2 M-24.15 64.0 L-30.45 64.5 -22.45 47.5 -40.45 61.5 Q-37.3 52.85 -51.45 61.5 -12.6 24.4 -21.1 23.5 L-33.45 30.5 -55.45 30.5 Q-39.35 29.85 -26.45 19.5 L-12.45 5.15 -11.1 3.75 Q-1.65 -17.85 4.45 -44.3 M-11.45 31.0 L-16.45 37.5 -14.6 36.2 -2.45 27.6 M-18.65 65.15 Q-20.6 64.05 -24.15 64.0 M1.3 7.45 Q-0.6 18.95 -6.45 24.5 L-11.45 31.0" fill="none" stroke="#000000" stroke-linecap="round" stroke-linejoin="round" stroke-opacity="0.4" stroke-width="0.05"/>
    <path d="M22.35 56.05 Q21.95 66.1 17.55 77.5 28.05 62.95 31.55 34.5 35.7 53.2 45.55 60.5 35.05 46.6 35.3 25.5 L35.3 -16.5 M55.5 -75.45 L48.7 -77.15 Q25.7 -73.2 17.35 -87.25 M22.35 56.05 Q22.55 50.65 21.6 45.6 M48.7 -77.15 Q22.6 -81.95 19.55 -98.45" fill="none" stroke="#000000" stroke-linecap="round" stroke-linejoin="round" stroke-opacity="0.4" stroke-width="0.05"/>
    <path d="M52.45 -77.1 L47.85 -73.15 49.55 -75.4 M43.45 -66.1 Q44.95 -68.9 46.55 -71.3 M38.7 -55.2 L40.9 -60.75 M35.2 -43.85 L36.8 -49.55 M32.75 -32.3 L33.9 -38.1 M15.2 -88.3 Q16.45 -91.35 17.8 -93.45 M9.15 -65.6 L10.3 -71.3 M7.2 -54.0 L8.1 -59.8 M5.65 -42.4 L6.4 -48.2 M4.3 -30.75 L4.95 -36.55 M-19.2 18.05 L-14.9 13.75 M31.2 -20.55 L31.2 -22.1 31.8 -26.45 M31.2 -8.55 L31.2 -14.55 M31.2 3.45 L31.2 -2.55 M31.2 15.45 L31.2 9.45 M2.5 -24.3 L3.15 -27.25 M-0.7 -12.55 L1.0 -18.25 M-5.0 -1.2 L-2.7 -6.8 M-11.1 9.25 Q-9.35 6.9 -7.75 4.15 M11.65 -77.05 L13.25 -82.7 M25.1 50.7 L26.7 44.9 M31.1 27.45 L31.2 27.15 31.2 21.45 M28.2 39.1 L29.7 33.25 M21.5 62.1 L23.3 56.4 M-28.8 25.2 L-23.75 21.85 M-39.8 30.0 Q-36.9 29.1 -34.15 27.9" fill="none" stroke="#f0eace" stroke-linecap="round" stroke-linejoin="round" stroke-width="1.0"/>
  </g>
</svg>
