<?xml version="1.0" encoding="UTF-8" standalone="no"?>
<svg xmlns:xlink="http://www.w3.org/1999/xlink" height="178.85px" width="100.15px" xmlns="http://www.w3.org/2000/svg">
  <g transform="matrix(1.0, 0.0, 0.0, 1.0, 0.5, 0.5)">
    <path d="M57.7 11.1 L59.85 11.1 59.9 14.6 58.4 25.5 58.05 27.75 58.0 27.9 50.5 113.6 36.85 113.6 53.1 30.7 52.7 25.1 55.25 13.85 55.0 13.8 55.5 11.1 57.7 11.1 M80.0 37.15 L81.5 23.95 92.2 119.85 Q87.15 118.15 80.0 122.0 L80.0 37.15 M37.95 20.1 L37.65 24.1 Q34.65 29.55 32.3 39.95 27.55 61.5 19.35 122.25 L19.35 122.85 16.15 123.0 30.35 44.35 Q33.9 31.65 37.95 20.1" fill="#526683" fill-rule="evenodd" stroke="none"/>
    <path d="M51.6 30.45 L34.0 117.5 34.7 122.85 34.75 122.9 35.85 122.9 36.6 121.55 43.3 121.4 48.25 121.35 50.85 121.3 52.0 123.5 53.7 123.5 54.3 123.5 54.3 124.05 52.05 123.9 47.2 123.75 47.6 122.75 47.2 123.75 47.15 123.75 47.6 122.75 48.15 121.7 43.15 121.7 43.15 123.85 Q32.65 124.65 27.35 129.75 L27.75 126.6 27.95 124.3 27.75 126.6 Q26.6 125.15 27.95 124.3 L36.65 34.1 Q44.35 30.2 51.6 30.45 M84.6 129.7 L84.6 130.3 84.0 130.1 84.05 129.8 84.6 129.7" fill="#313d3e" fill-rule="evenodd" stroke="none"/>
    <path d="M83.1 133.4 L83.8 144.45 Q93.85 150.65 99.15 160.45 37.6 180.8 0.0 160.05 10.1 145.95 26.25 141.9 L27.0 133.2 38.5 131.15 Q35.25 137.7 33.1 147.6 L32.0 164.75 40.05 164.75 48.95 151.65 47.1 128.25 Q65.45 129.55 81.9 133.2 L83.05 133.4 83.1 133.4 M33.1 147.6 Q29.85 146.95 25.95 145.35 L26.25 141.9 26.85 141.45 26.25 141.9 25.95 145.35 Q29.85 146.95 33.1 147.6 M83.8 144.45 Q65.0 151.2 48.95 151.65 65.0 151.2 83.8 144.45" fill="#1b2121" fill-rule="evenodd" stroke="none"/>
    <path d="M99.15 160.45 L99.15 166.95 Q38.3 188.85 0.45 166.8 L0.0 160.05 Q37.6 180.8 99.15 160.45" fill="#445455" fill-rule="evenodd" stroke="none"/>
    <path d="M84.0 130.1 L84.6 130.3 84.85 133.7 83.1 133.4 83.05 133.4 81.9 133.2 Q65.45 129.55 47.1 128.25 L47.1 123.95 47.2 123.75 47.1 123.95 47.15 123.75 47.2 123.75 52.05 123.9 54.3 124.05 Q70.05 125.15 84.0 130.1 M27.0 133.2 L27.1 131.45 27.35 129.75 Q32.65 124.65 43.15 123.85 L39.5 129.25 38.5 131.15 27.0 133.2" fill="#222b2b" fill-rule="evenodd" stroke="none"/>
    <path d="M43.15 123.85 L43.15 121.7 48.15 121.7 47.6 122.75 47.15 123.75 47.1 123.95 43.9 130.5 Q39.75 137.6 38.95 147.95 L40.05 164.75 32.0 164.75 33.1 147.6 Q35.25 137.7 38.5 131.15 L39.5 129.25 43.15 123.85" fill="#d21602" fill-rule="evenodd" stroke="none"/>
    <path d="M47.1 123.95 L47.1 128.25 48.95 151.65 40.05 164.75 38.95 147.95 Q39.75 137.6 43.9 130.5 L47.1 123.95" fill="#8f0f01" fill-rule="evenodd" stroke="none"/>
    <path d="M59.9 14.6 L59.85 11.1 57.7 11.1 58.3 0.0 67.4 3.3 68.45 18.85 71.7 19.1 81.85 21.9 81.5 23.95 80.0 37.15 Q70.45 29.05 59.9 30.2 L59.9 14.6" fill="#5a849c" fill-rule="evenodd" stroke="none"/>
    <path d="M71.7 19.1 L68.45 18.85 67.4 3.3 71.7 7.6 71.7 19.1" fill="#4a7282" fill-rule="evenodd" stroke="none"/>
    <path d="M36.85 113.6 L50.5 113.6 52.95 121.3 53.05 121.4 53.7 123.5 52.0 123.5 50.85 121.3 48.7 117.2 38.85 117.2 36.6 121.55 35.85 122.9 34.7 122.85 36.85 113.6 M95.95 122.0 Q96.4 128.1 84.55 129.55 94.85 124.45 92.55 122.75 91.1 121.6 84.05 122.0 L80.0 122.0 Q87.15 118.15 92.2 119.85 94.25 120.5 95.95 122.0 M27.1 131.45 Q14.6 128.1 14.25 123.1 L16.15 123.0 19.35 122.85 Q26.55 122.7 27.95 124.3 26.6 125.15 27.75 126.6 21.25 124.85 19.5 125.1 18.3 125.25 19.6 126.55 21.35 128.15 27.1 131.45" fill="#18262c" fill-rule="evenodd" stroke="none"/>
    <path d="M84.05 122.0 Q91.1 121.6 92.55 122.75 94.85 124.45 84.55 129.55 L84.05 122.0 M27.75 126.6 L27.35 129.75 27.25 129.75 27.1 131.45 Q21.35 128.15 19.6 126.55 18.3 125.25 19.5 125.1 21.25 124.85 27.75 126.6 M50.85 121.3 L48.25 121.35 43.3 121.4 36.6 121.55 38.85 117.2 48.7 117.2 50.85 121.3" fill="#000000" fill-rule="evenodd" stroke="none"/>
    <path d="M57.7 11.1 L55.5 11.1 55.0 13.8 52.7 25.1 51.6 30.45 Q44.35 30.2 36.65 34.1 L37.65 24.1 37.95 20.1 46.6 17.75 48.95 3.3 58.3 0.0 57.7 11.1" fill="#689bb0" fill-rule="evenodd" stroke="none"/>
    <path d="M50.5 113.6 L58.0 27.9 58.05 27.75 58.4 25.5 59.9 14.6 59.9 30.2 54.3 123.5 53.7 123.5 53.05 121.4 52.95 121.3 50.5 113.6 M81.5 23.95 L81.85 21.9 83.0 22.2 Q90.15 66.45 95.95 122.0 94.25 120.5 92.2 119.85 L81.5 23.95 M37.65 24.1 L36.65 34.1 27.95 124.3 Q26.55 122.7 19.35 122.85 L19.35 122.25 Q27.55 61.5 32.3 39.95 34.65 29.55 37.65 24.1" fill="#46566c" fill-rule="evenodd" stroke="none"/>
    <path d="M55.0 13.8 L55.25 13.85 52.7 25.1 53.1 30.7 36.85 113.6 34.7 122.85 34.0 117.5 51.6 30.45 52.7 25.1 55.0 13.8 M14.25 123.1 Q20.4 79.35 30.35 44.35 L16.15 123.0 14.25 123.1" fill="#8395af" fill-rule="evenodd" stroke="none"/>
    <path d="M59.9 30.2 Q70.45 29.05 80.0 37.15 L80.0 122.0 84.05 122.0 84.55 129.55 84.05 129.8 84.0 130.1 Q70.05 125.15 54.3 124.05 L54.3 123.5 59.9 30.2" fill="#4f6463" fill-rule="evenodd" stroke="none"/>
    <path d="M59.9 14.6 L59.85 11.1 57.7 11.1 55.5 11.1 55.0 13.8 52.7 25.1 51.6 30.45 34.0 117.5 34.7 122.85 36.85 113.6 50.5 113.6 58.0 27.9 M52.7 25.1 L53.1 30.7 36.85 113.6 M58.05 27.75 L58.4 25.5 M59.9 14.6 L59.9 30.2 Q70.45 29.05 80.0 37.15 L81.5 23.95 81.85 21.9 71.7 19.1 68.45 18.85 67.4 3.3 58.3 0.0 57.7 11.1 M37.95 20.1 L37.65 24.1 36.65 34.1 Q44.35 30.2 51.6 30.45 M37.95 20.1 L46.6 17.75 48.95 3.3 58.3 0.0 M30.35 44.35 Q33.9 31.65 37.95 20.1 M83.0 22.2 Q82.2 20.8 81.85 21.9 L83.0 22.2 Q90.15 66.45 95.95 122.0 96.4 128.1 84.55 129.55 L84.6 129.7 84.6 130.3 85.8 130.4 M71.7 19.1 L71.7 7.6 67.4 3.3 M92.2 119.85 Q94.25 120.5 95.95 122.0 M80.0 122.0 L84.05 122.0 Q91.1 121.6 92.55 122.75 94.85 124.45 84.55 129.55 L84.05 122.0 M84.55 129.55 L84.05 129.8 84.6 129.7 M84.0 130.1 L84.6 130.3 84.85 133.7 83.1 133.4 83.8 144.45 Q93.85 150.65 99.15 160.45 L99.15 166.95 Q38.3 188.85 0.45 166.8 L0.0 160.05 Q10.1 145.95 26.25 141.9 L27.0 133.2 27.1 131.45 Q14.6 128.1 14.25 123.1 20.4 79.35 30.35 44.35 M16.15 123.0 L19.35 122.85 Q26.55 122.7 27.95 124.3 L36.65 34.1 M84.0 130.1 Q70.05 125.15 54.3 124.05 L52.05 123.9 47.2 123.75 47.1 123.95 47.1 128.25 Q65.45 129.55 81.9 133.2 L83.05 133.4 83.1 133.4 M80.0 122.0 Q87.15 118.15 92.2 119.85 M16.15 123.0 L14.25 123.1 M27.35 129.75 L27.75 126.6 Q21.25 124.85 19.5 125.1 18.3 125.25 19.6 126.55 21.35 128.15 27.1 131.45 L27.25 129.75 27.35 129.75 Q32.65 124.65 43.15 123.85 L43.15 121.7 48.15 121.7 47.6 122.75 47.2 123.75 47.15 123.75 47.1 123.95 43.9 130.5 Q39.75 137.6 38.95 147.95 L40.05 164.75 48.95 151.65 47.1 128.25 M27.35 129.75 L27.1 131.45 M26.25 141.9 L26.85 141.45 M26.25 141.9 L25.95 145.35 Q29.85 146.95 33.1 147.6 35.25 137.7 38.5 131.15 L27.0 133.2 M27.95 124.3 L27.75 126.6 Q26.6 125.15 27.95 124.3 M53.05 121.4 L53.7 123.5 54.3 123.5 59.9 30.2 M50.5 113.6 L52.95 121.3 M53.7 123.5 L52.0 123.5 50.85 121.3 48.7 117.2 38.85 117.2 36.6 121.55 35.85 122.9 34.75 122.9 34.7 122.85 35.85 122.9 M47.6 122.75 L47.15 123.75 M38.5 131.15 L39.5 129.25 43.15 123.85 M40.05 164.75 L32.0 164.75 33.1 147.6 M99.15 160.45 Q37.6 180.8 0.0 160.05 M48.95 151.65 Q65.0 151.2 83.8 144.45 M80.0 122.0 L80.0 37.15" fill="none" stroke="#000033" stroke-linecap="round" stroke-linejoin="round" stroke-opacity="0.4117647" stroke-width="1.0"/>
  </g>
</svg>
