<?xml version="1.0" encoding="UTF-8" standalone="no"?>
<svg xmlns:xlink="http://www.w3.org/1999/xlink" height="28.15px" width="15.75px" xmlns="http://www.w3.org/2000/svg">
  <g transform="matrix(1.0, 0.0, 0.0, 1.0, 13.2, 1.0)">
    <path d="M2.25 -0.4 Q0.9 0.5 -0.25 2.05 L-0.15 0.2 -0.25 2.05 -0.55 2.45 Q-2.7 5.35 -3.35 5.35 L-3.75 5.25 Q-2.1 2.2 -0.15 0.15 L-0.05 0.05 0.9 -0.85 2.25 -0.4 M-0.4 21.75 L-0.35 21.75 -0.35 21.8 -0.3 21.85 -0.2 22.1 -0.1 22.25 -0.05 22.35 Q-0.5 23.65 -1.35 24.6 -2.45 25.8 -4.95 26.7 L-5.2 26.75 Q-9.65 28.15 -11.25 24.7 -12.3 22.9 -12.8 21.1 -12.0 18.75 -10.95 17.5 L-8.65 15.1 -7.55 15.65 -7.1 13.5 -6.2 10.9 -6.9 13.3 Q-7.5 15.75 -7.55 17.9 -6.85 18.85 -0.8 21.55 L-0.7 21.6 -0.4 21.75 -0.35 21.8 -0.4 21.75 M-11.85 13.0 L-11.35 12.05 -11.3 12.4 -11.85 13.0 M-6.05 4.4 Q-4.65 2.55 -3.65 1.6 L-1.4 -0.75 0.4 -1.0 0.9 -0.85 -0.05 0.05 -0.15 0.15 Q-2.1 2.2 -3.75 5.25 L-4.0 4.95 -4.05 4.55 -4.1 4.55 Q-5.3 5.3 -5.45 5.3 -6.1 5.3 -6.1 4.65 L-6.05 4.4 M-0.15 0.2 L-0.15 0.15 -0.15 0.2 M-7.1 13.5 L-6.9 13.3 -7.1 13.5 M-0.65 21.85 L-0.65 21.8 -0.7 21.75 -0.65 21.85 M-5.2 26.75 Q-7.1 21.3 -7.3 19.65 L-7.55 17.9 -7.3 19.65 Q-7.1 21.3 -5.2 26.75" fill="#3d4301" fill-rule="evenodd" stroke="none"/>
    <path d="M2.25 -0.4 L2.55 -0.3 1.45 2.35 Q0.35 5.15 -0.3 7.85 L-0.45 4.75 -0.25 2.05 -0.45 4.75 -0.3 7.85 Q-1.05 10.7 -1.3 13.4 L-2.0 14.0 Q-4.35 15.9 -6.6 15.9 -6.55 14.55 -5.95 12.35 L-4.45 7.45 -6.2 10.9 -5.0 7.8 -4.2 6.1 -4.05 5.85 -3.75 5.25 -4.05 5.85 -4.2 6.1 Q-8.8 9.75 -11.3 12.4 L-11.35 12.05 -9.35 8.9 -6.05 4.4 -6.1 4.65 Q-6.1 5.3 -5.45 5.3 -5.3 5.3 -4.1 4.55 L-4.05 4.55 -4.0 4.95 -3.75 5.25 -3.35 5.35 Q-2.7 5.35 -0.55 2.45 L-0.25 2.05 Q0.9 0.5 2.25 -0.4 M-7.1 13.5 L-7.55 15.65 -8.65 15.1 -7.1 13.5" fill="#6f7d01" fill-rule="evenodd" stroke="none"/>
    <path d="M-4.2 6.1 L-5.0 7.8 -6.2 10.9 -7.1 13.5 -8.65 15.1 -8.9 14.95 Q-10.95 13.65 -11.3 12.4 -8.8 9.75 -4.2 6.1" fill="#7d8e01" fill-rule="evenodd" stroke="none"/>
    <path d="M-1.3 13.4 L-1.45 16.7 -1.15 20.2 -0.4 21.75 -0.7 21.6 -0.8 21.55 Q-6.85 18.85 -7.55 17.9 -7.5 15.75 -6.9 13.3 L-6.2 10.9 -4.45 7.45 -5.95 12.35 Q-6.55 14.55 -6.6 15.9 -4.35 15.9 -2.0 14.0 L-1.3 13.4 M-12.8 21.1 Q-13.25 19.45 -13.2 17.75 L-13.2 17.55 -13.2 17.15 Q-13.0 15.3 -11.85 13.0 L-11.3 12.4 Q-10.95 13.65 -8.9 14.95 L-8.65 15.1 -10.95 17.5 Q-12.0 18.75 -12.8 21.1 M-0.65 21.85 L-0.7 21.75 -0.65 21.8 -0.65 21.85" fill="#4d5401" fill-rule="evenodd" stroke="none"/>
    <path d="M-0.3 7.85 Q0.35 5.15 1.45 2.35 L2.55 -0.3 2.25 -0.4 0.9 -0.85 0.4 -1.0 -1.4 -0.75 M-0.3 7.85 Q-1.05 10.7 -1.3 13.4 L-1.45 16.7 -1.15 20.2 -0.4 21.75 -0.35 21.8 -0.3 21.85 -0.2 22.1 -0.1 22.25 M-0.15 0.15 L-0.15 0.2 M-11.3 12.4 L-11.85 13.0 M-6.9 13.3 L-7.1 13.5" fill="none" stroke="#000000" stroke-linecap="round" stroke-linejoin="round" stroke-opacity="0.3019608" stroke-width="0.05"/>
    <path d="M-11.25 24.7 Q-12.3 22.9 -12.8 21.1 -13.25 19.45 -13.2 17.75 L-13.2 17.55 M-13.2 17.15 Q-13.0 15.3 -11.85 13.0 L-11.35 12.05 -9.35 8.9 -6.05 4.4 Q-4.65 2.55 -3.65 1.6 L-1.4 -0.75" fill="none" stroke="#000000" stroke-linecap="round" stroke-linejoin="round" stroke-opacity="0.2901961" stroke-width="0.05"/>
    <path d="M-0.25 2.05 L-0.45 4.75 -0.3 7.85 M-3.75 5.25 Q-2.1 2.2 -0.15 0.15 L-0.05 0.05 0.9 -0.85 M-0.15 0.2 L-0.25 2.05 M-3.75 5.25 L-4.05 5.85 -4.2 6.1 -5.0 7.8 -6.2 10.9 -6.9 13.3 Q-7.5 15.75 -7.55 17.9 -6.85 18.85 -0.8 21.55 L-0.7 21.6 -0.4 21.75 M-12.8 21.1 Q-12.0 18.75 -10.95 17.5 L-8.65 15.1 -7.1 13.5 M-7.55 17.9 L-7.3 19.65 Q-7.1 21.3 -5.2 26.75 M-11.3 12.4 Q-8.8 9.75 -4.2 6.1" fill="none" stroke="#000000" stroke-linecap="round" stroke-linejoin="round" stroke-opacity="0.2" stroke-width="0.05"/>
  </g>
</svg>
