<?xml version="1.0" encoding="UTF-8" standalone="no"?>
<svg xmlns:xlink="http://www.w3.org/1999/xlink" height="39.0px" width="43.5px" xmlns="http://www.w3.org/2000/svg">
  <g transform="matrix(1.0, 0.0, 0.0, 1.0, 0.0, 0.0)">
    <path d="M36.65 22.65 Q37.2 24.65 39.25 24.65 42.05 24.65 42.05 19.95 42.05 15.4 39.3 15.9 36.5 16.4 36.5 20.65 L36.65 22.65 M37.7 10.5 Q37.7 6.9 32.15 4.25 26.6 1.55 26.6 5.95 26.6 6.3 30.55 9.8 34.45 13.3 34.9 13.3 36.35 13.3 37.1 12.35 37.7 11.55 37.7 10.5 M37.1 5.7 Q43.5 11.4 43.5 19.5 43.5 27.6 37.1 33.3 30.75 39.0 21.75 39.0 12.75 39.0 6.35 33.3 0.0 27.6 0.0 19.5 0.0 11.4 6.35 5.7 12.75 0.0 21.75 0.0 30.75 0.0 37.1 5.7" fill="#d06a6a" fill-opacity="0.48235294" fill-rule="evenodd" stroke="none"/>
    <path d="M37.7 10.5 Q37.7 11.55 37.1 12.35 36.35 13.3 34.9 13.3 34.45 13.3 30.55 9.8 26.6 6.3 26.6 5.95 26.6 1.55 32.15 4.25 37.7 6.9 37.7 10.5 M36.65 22.65 L36.5 20.65 Q36.5 16.4 39.3 15.9 42.05 15.4 42.05 19.95 42.05 24.65 39.25 24.65 37.2 24.65 36.65 22.65" fill="#e6bbbb" fill-opacity="0.48235294" fill-rule="evenodd" stroke="none"/>
  </g>
</svg>
