<?xml version="1.0" encoding="UTF-8" standalone="no"?>
<svg xmlns:xlink="http://www.w3.org/1999/xlink" height="6.2px" width="7.35px" xmlns="http://www.w3.org/2000/svg">
  <g transform="matrix(1.0, 0.0, 0.0, 1.0, 1.95, 1.65)">
    <path d="M5.0 3.55 L1.75 1.55 1.05 0.65 -0.35 -1.15 2.9 0.75 3.35 1.25 3.65 1.55 5.05 3.55 5.0 3.55" fill="#366d61" fill-rule="evenodd" stroke="none"/>
    <path d="M5.0 3.55 L5.4 4.55 Q3.95 3.85 2.4 2.6 L1.8 1.7 Q2.35 3.5 2.1 4.4 L0.0 2.25 -0.05 1.65 -0.65 3.0 Q-1.5 2.25 -1.95 1.05 L-1.25 -1.65 -0.35 -0.5 -0.4 -0.75 1.05 0.65 1.75 1.55 5.0 3.55" fill="#254c43" fill-rule="evenodd" stroke="none"/>
    <path d="M3.65 1.55 L3.35 1.25 3.45 1.3 3.65 1.55" fill="#292b36" fill-rule="evenodd" stroke="none"/>
    <path d="M5.05 3.55 L5.0 3.55 5.05 3.55" fill="#464354" fill-rule="evenodd" stroke="none"/>
    <path d="M-1.95 1.05 Q-1.5 2.25 -0.65 3.0 L-0.2 2.15 -0.05 1.65 0.35 -0.05 M-0.2 2.15 L2.1 4.4 Q2.35 3.5 1.8 1.7 M5.0 3.55 L5.4 4.55 Q3.95 3.85 2.4 2.6" fill="none" stroke="#0f1926" stroke-linecap="round" stroke-linejoin="round" stroke-opacity="0.3019608" stroke-width="0.05"/>
  </g>
</svg>
