<?xml version="1.0" encoding="UTF-8" standalone="no"?>
<svg xmlns:xlink="http://www.w3.org/1999/xlink" height="73.15px" width="50.8px" xmlns="http://www.w3.org/2000/svg">
  <g transform="matrix(1.0, 0.0, 0.0, 1.0, 15.2, 13.15)">
    <path d="M35.45 -6.5 L35.45 -6.3 35.35 -6.1 35.45 -6.5" fill="#62651b" fill-rule="evenodd" stroke="none"/>
    <path d="M-1.65 56.8 L-1.7 56.6 -1.65 56.6 -1.65 56.8" fill="#6c6b1e" fill-rule="evenodd" stroke="none"/>
    <path d="M20.95 41.9 L21.0 41.95 21.05 41.95 20.95 41.95 20.95 41.9" fill="#6f0000" fill-rule="evenodd" stroke="none"/>
    <path d="M13.15 -8.95 L12.95 -8.95 13.15 -8.95 M12.0 15.75 L12.0 15.7 13.15 16.35 13.15 16.4 12.0 15.75" fill="#9d0000" fill-rule="evenodd" stroke="none"/>
    <path d="M29.1 4.7 L29.1 3.3 29.2 4.35 29.1 4.7" fill="#b7005b" fill-rule="evenodd" stroke="none"/>
    <path d="M35.35 -6.1 L35.2 -5.0 35.1 -4.85 35.35 -6.1 M13.6 -8.85 L13.15 -8.8 13.15 -8.95 13.6 -8.85 M28.3 -0.9 L28.2 -0.9 28.3 -1.05 28.3 -0.9 M29.05 6.7 L29.15 6.2 29.2 7.0 29.05 6.7 M27.05 36.25 L26.7 38.15 26.95 36.35 27.05 36.25 M-1.7 56.5 L-1.65 56.6 -1.7 56.6 -1.7 56.5" fill="#6c0036" fill-rule="evenodd" stroke="none"/>
    <path d="M27.35 -8.4 L26.35 -8.45 26.0 -8.45 25.95 -8.6 27.35 -8.4" fill="#2d0016" fill-rule="evenodd" stroke="none"/>
    <path d="M28.15 -2.6 L28.25 -2.65 28.3 -2.6 28.15 -2.6" fill="#6c0000" fill-rule="evenodd" stroke="none"/>
    <path d="M-13.55 47.05 L-13.45 47.05 -13.45 47.1 -13.55 47.05" fill="#37001c" fill-rule="evenodd" stroke="none"/>
    <path d="M-1.65 56.8 L-2.15 56.7 -1.7 56.6 -1.65 56.8" fill="#460000" fill-rule="evenodd" stroke="none"/>
    <path d="M21.25 41.5 L21.35 41.55 21.3 41.5 21.25 41.5" fill="#420000" fill-rule="evenodd" stroke="none"/>
    <path d="M12.4 47.95 L12.3 48.05 12.25 48.0 12.4 47.95" fill="#b3ad80" fill-rule="evenodd" stroke="none"/>
    <path d="M23.7 -12.55 L30.6 -12.3 Q33.25 -11.05 32.75 -9.9 L28.35 -8.4 27.35 -8.4 25.95 -8.6 25.0 -12.3 23.85 -12.5 23.7 -12.55 M16.65 -0.1 Q16.05 0.55 15.15 0.25 14.95 -0.15 15.15 -0.65 L15.3 -0.9 16.0 -1.05 Q16.6 -0.95 16.65 -0.25 L16.65 -0.1 M16.65 13.6 Q16.05 14.25 15.15 13.95 14.95 13.55 15.15 13.05 L15.3 12.8 16.0 12.65 Q16.6 12.75 16.65 13.45 L16.65 13.6 M9.95 31.8 L9.8 31.75 9.7 31.35 9.8 30.85 9.95 30.6 10.65 30.45 11.1 30.7 11.3 31.25 11.3 31.3 11.3 31.4 Q10.75 32.0 9.95 31.8 M15.5 34.2 L15.05 33.95 15.1 33.75 15.1 33.5 15.1 33.2 Q15.35 32.7 15.85 32.6 L15.85 32.55 16.45 33.05 16.45 33.4 16.05 33.95 15.9 34.05 15.5 34.2 M20.4 37.0 L20.15 36.65 20.15 36.5 20.15 36.2 20.15 36.05 Q20.65 35.45 21.4 35.5 L21.45 35.6 21.55 36.05 21.1 36.95 21.0 37.0 20.4 37.0 M5.75 29.45 L5.9 29.55 6.25 30.05 6.3 30.3 6.3 30.45 Q5.95 31.0 5.5 31.0 L5.0 30.85 4.95 30.8 4.85 30.75 5.25 29.55 5.4 29.35 5.75 29.45 M11.1 51.8 Q10.9 51.4 11.1 50.9 L11.25 50.65 11.95 50.5 Q12.55 50.6 12.6 51.3 L12.6 51.45 Q12.0 52.1 11.1 51.8 M7.8 51.5 L8.5 51.35 Q9.1 51.45 9.15 52.15 L9.15 52.3 Q8.55 52.95 7.65 52.65 7.45 52.25 7.65 51.75 L7.8 51.5 M0.7 53.55 L0.7 53.7 Q0.1 54.35 -0.8 54.05 -1.0 53.65 -0.8 53.15 L-0.65 52.9 0.05 52.75 Q0.65 52.85 0.7 53.55 M3.55 52.55 L3.7 52.3 4.4 52.15 Q5.0 52.25 5.05 52.95 L5.05 53.1 Q4.45 53.75 3.55 53.45 3.35 53.05 3.55 52.55 M-6.45 52.9 Q-7.05 53.55 -7.95 53.25 -8.15 52.85 -7.95 52.35 L-7.8 52.1 -7.1 51.95 Q-6.5 52.05 -6.45 52.75 L-6.45 52.9 M-10.8 51.85 Q-11.4 52.5 -12.3 52.2 -12.5 51.8 -12.3 51.3 L-12.15 51.05 -11.45 50.9 Q-10.85 51.0 -10.8 51.7 L-10.8 51.85" fill="#180000" fill-rule="evenodd" stroke="none"/>
    <path d="M34.95 -10.15 L35.45 -8.25 35.45 -8.15 35.5 -8.0 35.5 -7.75 35.6 -7.55 35.6 -7.4 35.45 -6.5 35.35 -6.1 35.1 -4.85 33.55 3.9 33.55 4.55 33.25 4.9 33.25 4.95 32.6 5.75 Q31.2 8.3 30.55 10.55 29.7 13.25 29.55 15.55 L31.7 21.6 31.75 21.65 33.0 21.45 31.05 25.25 30.95 25.5 30.85 25.7 34.7 35.35 34.55 35.95 32.75 42.45 32.75 42.65 23.7 45.55 13.85 52.75 13.0 48.95 12.4 48.15 12.3 48.2 -1.3 49.6 -1.3 49.55 -1.35 49.6 Q-3.8 50.85 -4.9 49.95 L-6.8 48.2 -9.85 47.7 -7.5 45.8 -5.9 45.3 -0.95 39.95 -0.5 39.95 0.75 40.5 9.15 43.95 12.25 48.0 12.3 48.05 12.4 47.95 17.75 43.8 17.55 41.25 10.5 36.25 8.85 35.35 9.15 34.8 17.35 38.6 21.25 41.5 21.3 41.5 21.35 41.55 21.5 41.65 22.5 41.6 23.3 40.9 26.35 38.1 26.15 36.8 21.05 29.95 13.5 26.85 7.85 25.75 6.5 25.5 7.6 23.45 9.75 17.85 9.75 17.8 9.9 17.6 10.1 15.9 10.25 14.9 12.0 15.75 13.15 16.4 13.15 16.35 14.35 16.95 14.3 20.05 27.15 28.6 26.8 22.6 30.45 19.45 26.65 15.15 27.55 12.0 27.95 11.8 28.95 10.0 Q29.5 8.4 29.35 7.45 L29.2 7.0 29.15 6.2 29.1 4.7 29.2 4.35 29.1 3.3 29.0 -2.4 29.3 -3.5 29.3 -3.7 Q29.6 -6.0 27.05 -7.4 L28.1 -7.4 28.55 -7.45 Q32.2 -7.85 33.6 -8.65 34.75 -9.25 34.95 -10.15 M27.05 36.25 L26.95 36.35 26.7 38.15 27.05 36.25 M20.95 41.95 L21.05 41.95 21.0 41.95 20.95 41.9 20.95 41.95 M30.85 25.7 L29.95 27.6 30.45 29.1 29.95 27.6 30.85 25.7 M-0.3 42.1 L-5.6 46.35 -2.5 44.7 -0.3 42.1" fill="#808080" fill-rule="evenodd" stroke="none"/>
    <path d="M14.6 -2.85 L15.0 -2.65 28.15 -2.6 28.3 -2.6 28.3 -1.05 28.2 -0.9 28.3 -0.9 28.3 7.3 26.65 13.95 25.25 16.75 24.95 17.3 15.0 17.3 14.9 17.25 14.6 -2.85 M16.65 -0.1 L16.65 -0.25 Q16.6 -0.95 16.0 -1.05 L15.3 -0.9 15.15 -0.65 Q14.95 -0.15 15.15 0.25 16.05 0.55 16.65 -0.1 M16.65 13.6 L16.65 13.45 Q16.6 12.75 16.0 12.65 L15.3 12.8 15.15 13.05 Q14.95 13.55 15.15 13.95 16.05 14.25 16.65 13.6 M11.3 31.3 L11.3 31.25 11.1 30.7 10.65 30.45 9.95 30.6 9.8 30.85 9.7 31.35 9.8 31.75 9.95 31.8 10.1 32.25 10.1 32.3 11.2 32.25 11.75 31.8 11.3 31.3 M16.45 33.4 L16.45 33.05 15.85 32.55 15.85 32.6 Q15.35 32.7 15.1 33.2 L15.1 33.5 15.1 33.75 15.05 33.95 15.5 34.2 15.75 34.85 17.0 34.35 16.45 33.4 M21.55 36.05 L21.45 35.6 21.4 35.5 Q20.65 35.45 20.15 36.05 L20.15 36.2 20.15 36.5 20.15 36.65 20.4 37.0 20.55 37.7 22.0 37.0 21.55 36.05 M6.25 30.05 L5.9 29.55 5.75 29.45 7.85 25.75 13.5 26.85 21.05 29.95 26.15 36.8 26.35 38.1 23.3 40.9 21.85 40.8 18.0 37.4 8.8 33.25 4.4 32.55 3.9 32.65 4.95 30.8 5.0 30.85 5.5 31.0 5.95 31.35 6.9 30.75 6.25 30.05 M-4.9 49.95 Q-3.8 50.85 -1.35 49.6 L-1.3 49.6 12.3 48.2 12.4 48.15 13.0 48.95 13.85 52.75 10.35 55.25 -1.65 56.6 -1.7 56.5 -4.9 49.95 M11.1 51.8 Q12.0 52.1 12.6 51.45 L12.6 51.3 Q12.55 50.6 11.95 50.5 L11.25 50.65 11.1 50.9 Q10.9 51.4 11.1 51.8 M3.55 52.55 Q3.35 53.05 3.55 53.45 4.45 53.75 5.05 53.1 L5.05 52.95 Q5.0 52.25 4.4 52.15 L3.7 52.3 3.55 52.55 M0.7 53.55 Q0.65 52.85 0.05 52.75 L-0.65 52.9 -0.8 53.15 Q-1.0 53.65 -0.8 54.05 0.1 54.35 0.7 53.7 L0.7 53.55 M7.8 51.5 L7.65 51.75 Q7.45 52.25 7.65 52.65 8.55 52.95 9.15 52.3 L9.15 52.15 Q9.1 51.45 8.5 51.35 L7.8 51.5" fill="#595959" fill-rule="evenodd" stroke="none"/>
    <path d="M-14.1 53.7 L-13.7 47.15 -13.55 47.05 -13.45 47.1 -9.85 47.7 -6.8 48.2 -4.9 49.95 -1.7 56.5 -1.7 56.6 -2.15 56.7 -11.95 53.85 -14.1 53.7 M-6.45 52.9 L-6.45 52.75 Q-6.5 52.05 -7.1 51.95 L-7.8 52.1 -7.95 52.35 Q-8.15 52.85 -7.95 53.25 -7.05 53.55 -6.45 52.9 M-10.8 51.85 L-10.8 51.7 Q-10.85 51.0 -11.45 50.9 L-12.15 51.05 -12.3 51.3 Q-12.5 51.8 -12.3 52.2 -11.4 52.5 -10.8 51.85" fill="#272727" fill-rule="evenodd" stroke="none"/>
    <path d="M32.85 42.65 L33.85 45.8 25.45 48.15 24.95 48.2 13.25 58.1 -0.55 60.0 -0.75 58.85 -1.65 56.8 -1.65 56.6 10.35 55.25 13.85 52.75 23.7 45.55 32.75 42.65 32.85 42.65 M0.25 35.75 L-0.05 34.15 1.45 33.05 3.9 32.65 4.4 32.55 8.8 33.25 18.0 37.4 21.85 40.8 23.3 40.9 22.5 41.6 21.5 41.65 21.35 41.55 21.25 41.5 17.35 38.6 9.15 34.8 3.9 33.8 1.2 34.5 0.25 35.75 M28.25 -2.65 L28.95 -3.4 29.0 -2.4 29.1 3.3 29.1 4.7 29.15 6.2 29.05 6.7 27.55 12.0 26.65 15.15 26.5 15.7 25.25 16.75 26.65 13.95 28.3 7.3 28.3 -0.9 28.3 -1.05 28.3 -2.6 28.25 -2.65 M12.25 -9.7 L13.0 -9.9 13.1 -9.95 14.55 -10.4 23.85 -12.5 25.0 -12.3 25.95 -8.6 17.95 -8.2 13.6 -8.85 13.15 -8.95 12.95 -8.95 12.4 -9.05 12.25 -9.7" fill="#171717" fill-rule="evenodd" stroke="none"/>
    <path d="M-0.55 60.0 L-0.95 60.0 -11.55 56.95 -14.05 56.7 -15.2 54.1 -15.1 53.55 -14.1 53.7 -11.95 53.85 -2.15 56.7 -1.65 56.8 -0.75 58.85 -0.55 60.0" fill="#1e1e1e" fill-rule="evenodd" stroke="none"/>
    <path d="M-3.95 40.15 L-1.45 37.65 0.25 35.75 1.2 34.5 3.9 33.8 9.15 34.8 8.85 35.35 7.85 34.8 6.1 35.5 0.75 40.5 -0.5 39.95 -0.95 39.95 -3.95 40.15" fill="#9a9a9a" fill-rule="evenodd" stroke="none"/>
    <path d="M8.45 -5.85 L9.1 -6.35 9.4 -6.2 9.4 -9.5 9.65 -9.75 10.7 -10.5 11.0 -10.75 11.0 -10.9 11.1 -10.95 23.4 -13.05 23.45 -12.95 23.9 -13.1 25.45 -12.95 32.2 -12.4 34.95 -10.55 34.95 -10.15 Q34.75 -9.25 33.6 -8.65 32.2 -7.85 28.55 -7.45 L28.1 -7.4 27.05 -7.4 Q29.6 -6.0 29.3 -3.7 L29.3 -3.5 29.0 -2.4 28.95 -3.4 28.25 -2.65 28.15 -2.6 15.0 -2.65 14.6 -2.85 14.5 -2.9 11.2 -4.5 11.15 -4.5 8.45 -5.85 M29.55 15.55 L33.05 21.3 33.0 21.45 31.75 21.65 31.7 21.6 29.55 15.55 M31.05 25.25 L35.0 34.15 34.7 35.35 30.85 25.7 30.95 25.5 31.05 25.25 M-13.45 47.05 L-12.1 46.55 -8.55 43.15 -6.8 42.55 -6.6 42.45 -5.7 41.65 -3.95 40.15 -0.95 39.95 -5.9 45.3 -7.5 45.8 -9.85 47.7 -13.45 47.1 -13.45 47.05 M9.4 -6.2 L13.35 -4.5 19.8 -3.35 28.95 -3.5 28.95 -3.4 28.95 -3.5 19.8 -3.35 13.35 -4.5 9.4 -6.2 M23.85 -12.5 L14.55 -10.4 13.1 -9.95 13.0 -9.9 12.25 -9.7 12.4 -9.05 12.95 -8.95 13.15 -8.95 13.15 -8.8 13.6 -8.85 17.95 -8.2 25.95 -8.6 26.0 -8.45 26.35 -8.45 27.35 -8.4 28.35 -8.4 32.75 -9.9 Q33.25 -11.05 30.6 -12.3 L23.7 -12.55 23.6 -12.55 23.85 -12.5 M11.1 -8.55 L11.15 -9.55 12.25 -9.7 11.15 -9.55 11.1 -8.55 M25.25 16.75 L26.5 15.7 26.65 15.15 30.45 19.45 26.8 22.6 27.15 28.6 14.3 20.05 14.35 16.95 14.9 17.25 15.0 17.3 24.95 17.3 25.25 16.75 M27.55 12.0 L29.05 6.7 29.2 7.0 29.35 7.45 Q29.5 8.4 28.95 10.0 L27.95 11.8 27.55 12.0 M0.75 40.5 L6.1 35.5 7.85 34.8 8.85 35.35 10.5 36.25 17.55 41.25 17.75 43.8 12.4 47.95 12.25 48.0 9.15 43.95 0.75 40.5 M-0.3 42.1 L-2.5 44.7 -5.6 46.35 -0.3 42.1" fill="#bcbcbc" fill-rule="evenodd" stroke="none"/>
    <path d="M11.3 31.3 L11.75 31.8 11.2 32.25 10.1 32.3 10.1 32.25 9.95 31.8 Q10.75 32.0 11.3 31.4 L11.3 31.3 M16.45 33.4 L17.0 34.35 15.75 34.85 15.5 34.2 15.9 34.05 16.05 33.95 16.45 33.4 M21.55 36.05 L22.0 37.0 20.55 37.7 20.4 37.0 21.0 37.0 21.1 36.95 21.55 36.05 M6.25 30.05 L6.9 30.75 5.95 31.35 5.5 31.0 Q5.95 31.0 6.3 30.45 L6.3 30.3 6.25 30.05" fill="#3c3c3c" fill-rule="evenodd" stroke="none"/>
    <path d="M5.9 25.35 L6.5 25.5 7.85 25.75 5.75 29.45 5.4 29.35 5.25 29.55 4.85 30.75 4.95 30.8 3.9 32.65 1.45 33.05 5.9 25.35" fill="#6f6f6f" fill-rule="evenodd" stroke="none"/>
    <path d="M-0.05 34.15 L4.7 26.0 5.8 25.3 5.9 25.35 1.45 33.05 -0.05 34.15" fill="#8c8c8c" fill-rule="evenodd" stroke="none"/>
    <path d="M10.25 14.9 L9.3 14.35 8.35 -5.8 8.45 -5.85 11.15 -4.5 11.2 -4.5 14.5 -2.9 14.6 -2.85 14.9 17.25 14.35 16.95 13.15 16.35 12.0 15.7 12.0 15.75 10.25 14.9" fill="#6b6b6b" fill-rule="evenodd" stroke="none"/>
    <path d="M8.45 -5.85 L9.1 -6.35 9.4 -6.2 9.4 -9.5 9.65 -9.75 10.7 -10.5 11.0 -10.9 11.1 -10.95 23.4 -13.05 23.9 -13.1 25.45 -12.95 32.2 -12.4 34.95 -10.55 34.95 -10.15 35.45 -8.25 35.5 -8.0 35.5 -7.75 35.6 -7.55 35.6 -7.4 35.45 -6.5 35.45 -6.3 35.35 -6.1 35.2 -5.0 35.1 -4.85 33.55 3.9 33.55 4.55 33.25 4.9 33.25 4.95 32.6 5.75 Q31.2 8.3 30.55 10.55 29.7 13.25 29.55 15.55 L33.05 21.3 33.0 21.45 31.05 25.25 35.0 34.15 34.7 35.35 M34.55 35.95 L32.75 42.45 32.85 42.65 33.85 45.8 25.45 48.15 24.95 48.2 13.25 58.1 -0.55 60.0 -0.95 60.0 -11.55 56.95 -14.05 56.7 -15.2 54.1 -15.1 53.55 -14.1 53.7 -13.7 47.15 -13.55 47.05 -13.45 47.05 -12.1 46.55 -8.55 43.15 -6.8 42.55 -6.6 42.45 -5.7 41.65 -3.95 40.15 -1.45 37.65 0.25 35.75 -0.05 34.15 4.7 26.0 5.8 25.3 5.9 25.35 6.5 25.5 7.6 23.45 9.75 17.85 9.75 17.8 10.1 15.9 10.25 14.9 9.3 14.35 8.35 -5.8 8.45 -5.85 11.15 -4.5 11.2 -4.5 14.5 -2.9 M14.6 -2.85 L15.0 -2.65 28.15 -2.6 28.25 -2.65 28.95 -3.4 28.95 -3.5 19.8 -3.35 13.35 -4.5 9.4 -6.2 M12.25 -9.7 L13.0 -9.9 13.1 -9.95 14.55 -10.4 23.85 -12.5 23.6 -12.55 M26.35 -8.45 L26.0 -8.45 25.95 -8.6 17.95 -8.2 13.6 -8.85 13.15 -8.95 12.95 -8.95 12.4 -9.05 12.25 -9.7 11.15 -9.55 11.1 -8.55 M10.7 -10.5 L11.0 -10.75 11.0 -10.9 M23.85 -12.5 L23.7 -12.55 M23.9 -13.1 L23.45 -12.95 23.4 -13.05 M27.35 -8.4 L25.95 -8.6 25.0 -12.3 23.85 -12.5 M28.3 -1.05 L28.3 -2.6 28.15 -2.6 M28.3 -1.05 L28.3 -0.9 28.3 7.3 26.65 13.95 25.25 16.75 26.5 15.7 26.65 15.15 27.55 12.0 29.05 6.7 29.15 6.2 29.1 4.7 29.1 3.3 29.0 -2.4 28.95 -3.4 M35.5 -8.0 L35.45 -8.15 35.45 -8.25 M35.1 -4.85 L35.35 -6.1 35.45 -6.5 M29.2 7.0 L29.35 7.45 M29.2 7.0 L29.15 6.2 M25.25 16.75 L24.95 17.3 15.0 17.3 14.9 17.25 14.35 16.95 13.15 16.35 12.0 15.7 M12.0 15.75 L13.15 16.4 M12.0 15.75 L10.25 14.9 M3.9 32.65 L4.4 32.55 8.8 33.25 18.0 37.4 21.85 40.8 23.3 40.9 26.35 38.1 26.15 36.8 21.05 29.95 13.5 26.85 7.85 25.75 6.5 25.5 M1.45 33.05 L3.9 32.65 M-0.05 34.15 L1.45 33.05 M9.15 34.8 L3.9 33.8 1.2 34.5 0.25 35.75 M9.15 34.8 L17.35 38.6 21.25 41.5 21.3 41.5 21.35 41.55 21.5 41.65 22.5 41.6 23.3 40.9 M12.25 48.0 L9.15 43.95 0.75 40.5 -0.5 39.95 -0.95 39.95 -3.95 40.15 M-6.8 48.2 L-4.9 49.95 Q-3.8 50.85 -1.35 49.6 M12.4 48.15 L13.0 48.95 13.85 52.75 23.7 45.55 32.75 42.65 32.75 42.45 M30.95 25.5 L31.05 25.25 M20.95 41.95 L20.95 41.9 M32.75 42.65 L32.85 42.65 M30.45 29.1 L29.95 27.6 30.85 25.7 M-1.65 56.6 L10.35 55.25 13.85 52.75 M-2.15 56.7 L-1.65 56.8 M-1.7 56.6 L-2.15 56.7 -11.95 53.85 -14.1 53.7 M-1.7 56.6 L-1.65 56.6" fill="none" stroke="#000000" stroke-linecap="round" stroke-linejoin="round" stroke-opacity="0.3019608" stroke-width="0.05"/>
    <path d="M10.1 15.9 L9.9 17.6 9.75 17.8" fill="none" stroke="#000000" stroke-linecap="round" stroke-linejoin="round" stroke-opacity="0.3019608" stroke-width="0.05"/>
  </g>
</svg>
