<?xml version="1.0" encoding="UTF-8" standalone="no"?>
<svg xmlns:xlink="http://www.w3.org/1999/xlink" height="364.2px" width="218.55px" xmlns="http://www.w3.org/2000/svg">
  <g transform="matrix(1.0, 0.0, 0.0, 1.0, -122.0, -2.65)">
    <path d="M248.75 209.75 L248.8 209.75 254.75 208.65 Q263.55 206.7 272.15 203.15 283.9 193.4 278.2 183.05 271.45 185.0 264.7 186.45 L255.65 188.05 230.35 190.0 210.2 188.25 199.05 186.3 186.5 183.25 Q182.6 196.85 193.1 203.15 L202.9 206.9 203.7 207.2 215.85 209.35 218.25 209.75 226.2 210.6 232.95 210.9 244.65 210.3 246.35 210.1 248.75 209.75" fill="url(#gradient0)" fill-rule="evenodd" stroke="none"/>
    <path d="M218.25 209.75 Q219.95 244.75 220.05 279.75 L220.0 299.4 219.75 317.8 219.15 339.25 218.25 361.85 Q222.05 364.55 226.0 365.8 L226.2 210.6 218.25 209.75 M244.7 364.05 Q246.7 363.15 248.75 361.9 245.25 286.95 248.75 209.75 L246.35 210.1 244.65 210.3 244.7 364.05" fill="#999999" fill-rule="evenodd" stroke="none"/>
    <path d="M226.0 365.8 Q229.4 366.85 232.95 366.85 238.65 366.85 244.7 364.05 L244.65 210.3 232.95 210.9 226.2 210.6 226.0 365.8" fill="url(#gradient1)" fill-rule="evenodd" stroke="none"/>
    <path d="M220.05 279.75 L209.7 279.75 Q216.75 289.05 209.7 300.85 213.55 298.2 220.0 299.4 L220.05 279.75 M208.7 336.6 L210.3 339.25 219.15 339.25 219.75 317.8 Q213.7 320.85 209.95 318.7 215.5 325.15 208.7 336.6" fill="#79612a" fill-rule="evenodd" stroke="none"/>
    <path d="M209.7 279.75 L202.35 288.9 188.85 265.0 186.9 264.4 186.9 294.55 195.55 308.3 186.9 322.15 186.9 352.2 192.6 351.5 202.95 326.9 208.7 336.6 Q215.5 325.15 209.95 318.7 206.2 316.55 204.75 309.15 206.1 303.35 209.7 300.85 216.75 289.05 209.7 279.75 M176.05 261.1 L164.95 257.65 155.85 269.9 159.9 290.7 175.65 285.15 176.05 261.1 M174.9 329.85 L158.8 323.4 153.65 340.4 159.3 355.65 174.5 353.75 174.9 329.85" fill="#e28f05" fill-rule="evenodd" stroke="none"/>
    <path d="M186.9 264.4 L176.05 261.1 175.65 285.15 180.0 283.6 186.9 294.55 186.9 264.4 M186.9 322.15 L180.65 332.15 174.9 329.85 174.5 353.75 186.9 352.2 186.9 322.15" fill="#b57304" fill-rule="evenodd" stroke="none"/>
    <path d="M248.75 209.75 L248.8 209.75 254.75 208.65 Q263.55 206.7 272.15 203.15 283.9 193.4 278.2 183.05 271.45 185.0 264.7 186.45 L255.65 188.05 M230.35 190.0 L210.2 188.25 199.05 186.3 186.5 183.25 Q182.6 196.85 193.1 203.15 L202.9 206.9 203.7 207.2 215.85 209.35 218.25 209.75 Q219.95 244.75 220.05 279.75 L209.7 279.75 202.35 288.9 188.85 265.0 186.9 264.4 176.05 261.1 164.95 257.65 155.85 269.9 159.9 290.7 175.65 285.15 180.0 283.6 186.9 294.55 195.55 308.3 186.9 322.15 180.65 332.15 174.9 329.85 158.8 323.4 153.65 340.4 159.3 355.65 174.5 353.75 186.9 352.2 192.6 351.5 202.95 326.9 208.7 336.6 210.3 339.25 219.15 339.25 218.25 361.85 Q222.05 364.55 226.0 365.8 229.4 366.85 232.95 366.85 238.65 366.85 244.7 364.05 246.7 363.15 248.75 361.9 245.25 286.95 248.75 209.75 L246.35 210.1 244.65 210.3 232.95 210.9 226.2 210.6 218.25 209.75 M209.7 300.85 Q206.1 303.35 204.75 309.15 206.2 316.55 209.95 318.7 213.7 320.85 219.75 317.8 L220.0 299.4 220.05 279.75 M220.0 299.4 Q213.55 298.2 209.7 300.85 M219.75 317.8 L219.15 339.25" fill="none" stroke="#000000" stroke-linecap="round" stroke-linejoin="round" stroke-opacity="0.4" stroke-width="0.05"/>
    <path d="M232.55 138.05 Q232.6 138.8 236.85 139.35 240.2 139.75 245.2 137.55 255.8 152.55 255.3 174.1 253.2 203.9 232.45 216.5 L232.55 202.85 232.55 138.05" fill="#ffcc00" fill-rule="evenodd" stroke="none"/>
    <path d="M245.2 137.55 L248.05 136.1 Q249.9 138.35 251.55 141.3 259.15 154.5 259.15 173.2 259.15 191.9 251.35 205.15 243.5 218.35 232.45 218.35 221.4 218.35 213.6 205.15 205.75 191.9 205.75 173.2 205.75 154.5 213.8 141.3 215.9 137.85 218.2 135.3 221.8 143.25 232.55 138.05 L232.55 202.85 232.45 216.5 Q253.2 203.9 255.3 174.1 255.8 152.55 245.2 137.55" fill="#ffe16c" fill-rule="evenodd" stroke="none"/>
    <path d="M245.2 137.55 L248.05 136.1 Q249.9 138.35 251.55 141.3 259.15 154.5 259.15 173.2 259.15 191.9 251.35 205.15 243.5 218.35 232.45 218.35 221.4 218.35 213.6 205.15 205.75 191.9 205.75 173.2 205.75 154.5 213.8 141.3 215.9 137.85 218.2 135.3 221.8 143.25 232.55 138.05 232.6 138.8 236.85 139.35 240.2 139.75 245.2 137.55 M232.55 202.85 L232.55 138.05" fill="none" stroke="#000000" stroke-linecap="round" stroke-linejoin="round" stroke-opacity="0.43137255" stroke-width="0.05"/>
    <path d="M260.25 114.25 Q261.0 114.2 261.55 109.95 261.95 106.6 259.75 101.6 274.75 91.0 296.3 91.5 326.1 93.6 338.7 114.35 L325.05 114.25 260.25 114.25" fill="#ffcc00" fill-rule="evenodd" stroke="none"/>
    <path d="M259.75 101.6 L258.3 98.75 Q260.55 96.9 263.5 95.25 276.7 87.65 295.4 87.65 314.1 87.65 327.35 95.45 340.55 103.3 340.55 114.35 340.55 125.4 327.35 133.2 314.1 141.05 295.4 141.05 276.7 141.05 263.5 133.0 260.05 130.9 257.5 128.6 265.45 125.0 260.25 114.25 L325.05 114.25 338.7 114.35 Q326.1 93.6 296.3 91.5 274.75 91.0 259.75 101.6" fill="#ffe16c" fill-rule="evenodd" stroke="none"/>
    <path d="M260.25 114.25 Q261.0 114.2 261.55 109.95 261.95 106.6 259.75 101.6 L258.3 98.75 Q260.55 96.9 263.5 95.25 276.7 87.65 295.4 87.65 314.1 87.65 327.35 95.45 340.55 103.3 340.55 114.35 340.55 125.4 327.35 133.2 314.1 141.05 295.4 141.05 276.7 141.05 263.5 133.0 260.05 130.9 257.5 128.6 265.45 125.0 260.25 114.25 L325.05 114.25" fill="none" stroke="#000000" stroke-linecap="round" stroke-linejoin="round" stroke-opacity="0.43137255" stroke-width="0.05"/>
    <path d="M248.9 129.35 Q249.5 129.85 252.9 127.25 255.5 125.15 257.5 120.05 275.6 123.15 290.5 138.75 310.05 161.3 304.3 184.95 L294.75 175.2 248.9 129.35" fill="#ffcc00" fill-rule="evenodd" stroke="none"/>
    <path d="M257.5 120.05 L258.5 117.05 264.65 118.2 Q279.35 122.2 292.55 135.4 305.8 148.65 309.65 163.5 313.45 178.4 305.6 186.25 297.8 194.05 282.95 190.2 268.05 186.4 254.8 173.15 241.6 159.95 237.95 144.9 236.95 141.0 236.8 137.55 245.0 140.65 248.9 129.35 L294.75 175.2 304.3 184.95 Q310.05 161.3 290.5 138.75 275.6 123.15 257.5 120.05" fill="#ffe16c" fill-rule="evenodd" stroke="none"/>
    <path d="M248.9 129.35 Q249.5 129.85 252.9 127.25 255.5 125.15 257.5 120.05 L258.5 117.05 264.65 118.2 Q279.35 122.2 292.55 135.4 305.8 148.65 309.65 163.5 313.45 178.4 305.6 186.25 297.8 194.05 282.95 190.2 268.05 186.4 254.8 173.15 241.6 159.95 237.95 144.9 236.95 141.0 236.8 137.55 245.0 140.65 248.9 129.35 L294.75 175.2" fill="none" stroke="#000000" stroke-linecap="round" stroke-linejoin="round" stroke-opacity="0.43137255" stroke-width="0.05"/>
    <path d="M251.65 93.0 Q252.15 92.4 249.55 89.0 247.45 86.4 242.35 84.4 245.45 66.3 261.05 51.4 283.6 31.85 307.25 37.6 L297.5 47.15 251.65 93.0" fill="#ffcc00" fill-rule="evenodd" stroke="none"/>
    <path d="M242.35 84.4 L239.35 83.4 Q239.6 80.55 240.5 77.25 244.5 62.55 257.7 49.35 270.95 36.1 285.8 32.25 300.7 28.45 308.55 36.3 316.35 44.1 312.5 58.95 308.7 73.85 295.45 87.1 282.25 100.3 267.2 103.95 263.3 104.95 259.85 105.1 262.95 96.9 251.65 93.0 L297.5 47.15 307.25 37.6 Q283.6 31.85 261.05 51.4 245.45 66.3 242.35 84.4" fill="#ffe16c" fill-rule="evenodd" stroke="none"/>
    <path d="M242.35 84.4 L239.35 83.4 Q239.6 80.55 240.5 77.25 244.5 62.55 257.7 49.35 270.95 36.1 285.8 32.25 300.7 28.45 308.55 36.3 316.35 44.1 312.5 58.95 308.7 73.85 295.45 87.1 282.25 100.3 267.2 103.95 263.3 104.95 259.85 105.1 262.95 96.9 251.65 93.0 252.15 92.4 249.55 89.0 247.45 86.4 242.35 84.4 M297.5 47.15 L251.65 93.0" fill="none" stroke="#000000" stroke-linecap="round" stroke-linejoin="round" stroke-opacity="0.43137255" stroke-width="0.05"/>
    <path d="M220.7 134.95 Q220.4 135.6 224.05 137.9 226.9 139.7 232.4 139.75 235.75 157.75 226.35 177.15 212.1 203.3 188.0 206.15 L193.8 193.8 220.7 134.95" fill="#ffcc00" fill-rule="evenodd" stroke="none"/>
    <path d="M232.4 139.75 L235.6 139.6 Q236.3 142.4 236.6 145.8 238.0 160.95 230.25 177.9 222.5 194.9 209.95 203.7 197.3 212.45 187.25 207.85 177.2 203.3 175.65 188.05 174.0 172.75 181.75 155.75 189.5 138.8 202.3 130.1 205.6 127.85 208.75 126.5 208.75 135.2 220.7 134.95 L193.8 193.8 188.0 206.15 Q212.1 203.3 226.35 177.15 235.75 157.75 232.4 139.75" fill="#ffe16c" fill-rule="evenodd" stroke="none"/>
    <path d="M220.7 134.95 Q220.4 135.6 224.05 137.9 226.9 139.7 232.4 139.75 L235.6 139.6 Q236.3 142.4 236.6 145.8 238.0 160.95 230.25 177.9 222.5 194.9 209.95 203.7 197.3 212.45 187.25 207.85 177.2 203.3 175.65 188.05 174.0 172.75 181.75 155.75 189.5 138.8 202.3 130.1 205.6 127.85 208.75 126.5 208.75 135.2 220.7 134.95 L193.8 193.8" fill="none" stroke="#000000" stroke-linecap="round" stroke-linejoin="round" stroke-opacity="0.43137255" stroke-width="0.05"/>
    <path d="M255.7 124.85 Q256.35 125.15 258.65 121.5 260.45 118.65 260.5 113.15 278.5 109.8 297.9 119.2 324.05 133.45 326.9 157.55 L314.55 151.75 255.7 124.85" fill="#ffcc00" fill-rule="evenodd" stroke="none"/>
    <path d="M260.5 113.15 L260.35 109.95 266.55 108.95 Q281.7 107.55 298.65 115.3 315.65 123.05 324.45 135.6 333.2 148.25 328.6 158.3 324.05 168.35 308.8 169.9 293.5 171.55 276.5 163.8 259.55 156.05 250.85 143.25 248.6 139.95 247.25 136.8 255.95 136.8 255.7 124.85 L314.55 151.75 326.9 157.55 Q324.05 133.45 297.9 119.2 278.5 109.8 260.5 113.15" fill="#ffe16c" fill-rule="evenodd" stroke="none"/>
    <path d="M260.5 113.15 L260.35 109.95 266.55 108.95 Q281.7 107.55 298.65 115.3 315.65 123.05 324.45 135.6 333.2 148.25 328.6 158.3 324.05 168.35 308.8 169.9 293.5 171.55 276.5 163.8 259.55 156.05 250.85 143.25 248.6 139.95 247.25 136.8 255.95 136.8 255.7 124.85 256.35 125.15 258.65 121.5 260.45 118.65 260.5 113.15 M314.55 151.75 L255.7 124.85" fill="none" stroke="#000000" stroke-linecap="round" stroke-linejoin="round" stroke-opacity="0.43137255" stroke-width="0.05"/>
    <path d="M239.1 133.85 L243.55 133.55 Q246.85 132.8 250.75 129.0 265.95 139.3 272.95 159.7 281.4 188.25 266.4 207.3 L261.75 194.5 239.1 133.85" fill="#ffcc00" fill-rule="evenodd" stroke="none"/>
    <path d="M250.75 129.0 L252.95 126.6 Q255.4 128.1 258.0 130.3 269.7 140.0 276.25 157.5 282.75 175.0 280.1 190.1 277.4 205.2 267.05 209.05 256.7 212.9 244.8 203.3 232.8 193.6 226.3 176.1 219.75 158.6 222.7 143.45 223.45 139.5 224.7 136.3 230.85 142.45 239.1 133.85 L261.75 194.5 266.4 207.3 Q281.4 188.25 272.95 159.7 265.95 139.3 250.75 129.0" fill="#ffe16c" fill-rule="evenodd" stroke="none"/>
    <path d="M250.75 129.0 L252.95 126.6 Q255.4 128.1 258.0 130.3 269.7 140.0 276.25 157.5 282.75 175.0 280.1 190.1 277.4 205.2 267.05 209.05 256.7 212.9 244.8 203.3 232.8 193.6 226.3 176.1 219.75 158.6 222.7 143.45 223.45 139.5 224.7 136.3 230.85 142.45 239.1 133.85 L243.55 133.55 Q246.85 132.8 250.75 129.0 M261.75 194.5 L239.1 133.85" fill="none" stroke="#000000" stroke-linecap="round" stroke-linejoin="round" stroke-opacity="0.43137255" stroke-width="0.05"/>
    <path d="M256.65 101.95 Q257.35 101.6 256.35 97.5 255.6 94.2 251.8 90.3 262.1 75.1 282.5 68.1 311.05 59.65 330.1 74.65 L317.3 79.3 256.65 101.95" fill="#ffcc00" fill-rule="evenodd" stroke="none"/>
    <path d="M251.8 90.3 L249.4 88.1 Q250.9 85.65 253.1 83.05 262.8 71.35 280.3 64.8 297.8 58.3 312.9 60.95 328.0 63.65 331.85 74.0 335.7 84.35 326.1 96.25 316.4 108.25 298.9 114.75 281.4 121.3 266.25 118.35 262.3 117.6 259.1 116.35 265.25 110.2 256.65 101.95 L317.3 79.3 330.1 74.65 Q311.05 59.65 282.5 68.1 262.1 75.1 251.8 90.3" fill="#ffe16c" fill-rule="evenodd" stroke="none"/>
    <path d="M256.65 101.95 Q257.35 101.6 256.35 97.5 255.6 94.2 251.8 90.3 L249.4 88.1 Q250.9 85.65 253.1 83.05 262.8 71.35 280.3 64.8 297.8 58.3 312.9 60.95 328.0 63.65 331.85 74.0 335.7 84.35 326.1 96.25 316.4 108.25 298.9 114.75 281.4 121.3 266.25 118.35 262.3 117.6 259.1 116.35 265.25 110.2 256.65 101.95 L317.3 79.3" fill="none" stroke="#000000" stroke-linecap="round" stroke-linejoin="round" stroke-opacity="0.43137255" stroke-width="0.05"/>
    <path d="M230.0 82.95 Q229.95 82.2 225.7 81.65 222.35 81.25 217.35 83.45 206.75 68.45 207.25 46.9 209.35 17.1 230.1 4.5 L230.0 18.15 230.0 82.95" fill="#ffcc00" fill-rule="evenodd" stroke="none"/>
    <path d="M217.35 83.45 Q216.0 84.1 214.5 84.9 212.65 82.65 211.0 79.7 203.4 66.5 203.4 47.8 203.4 29.1 211.2 15.85 219.05 2.65 230.1 2.65 241.15 2.65 248.95 15.85 256.8 29.1 256.8 47.8 256.8 66.5 248.75 79.7 246.65 83.15 244.35 85.7 240.75 77.75 230.0 82.95 L230.0 18.15 230.1 4.5 Q209.35 17.1 207.25 46.9 206.75 68.45 217.35 83.45" fill="#ffe16c" fill-rule="evenodd" stroke="none"/>
    <path d="M230.0 82.95 Q229.95 82.2 225.7 81.65 222.35 81.25 217.35 83.45 216.0 84.1 214.5 84.9 212.65 82.65 211.0 79.7 203.4 66.5 203.4 47.8 203.4 29.1 211.2 15.85 219.05 2.65 230.1 2.65 241.15 2.65 248.95 15.85 256.8 29.1 256.8 47.8 256.8 66.5 248.75 79.7 246.65 83.15 244.35 85.7 240.75 77.75 230.0 82.95 L230.0 18.15" fill="none" stroke="#000000" stroke-linecap="round" stroke-linejoin="round" stroke-opacity="0.43137255" stroke-width="0.05"/>
    <path d="M202.3 106.75 Q201.55 106.8 201.0 111.05 200.6 114.4 202.8 119.4 187.8 130.0 166.25 129.5 136.45 127.4 123.85 106.65 L137.5 106.75 202.3 106.75" fill="#ffcc00" fill-rule="evenodd" stroke="none"/>
    <path d="M202.8 119.4 L204.25 122.25 199.05 125.75 Q185.85 133.35 167.15 133.35 148.45 133.35 135.2 125.55 122.0 117.7 122.0 106.65 122.0 95.6 135.2 87.8 148.45 79.95 167.15 79.95 185.85 79.95 199.05 88.0 202.5 90.1 205.05 92.4 197.1 96.0 202.3 106.75 L137.5 106.75 123.85 106.65 Q136.45 127.4 166.25 129.5 187.8 130.0 202.8 119.4" fill="#ffe16c" fill-rule="evenodd" stroke="none"/>
    <path d="M202.8 119.4 L204.25 122.25 199.05 125.75 Q185.85 133.35 167.15 133.35 148.45 133.35 135.2 125.55 122.0 117.7 122.0 106.65 122.0 95.6 135.2 87.8 148.45 79.95 167.15 79.95 185.85 79.95 199.05 88.0 202.5 90.1 205.05 92.4 197.1 96.0 202.3 106.75 201.55 106.8 201.0 111.05 200.6 114.4 202.8 119.4 M137.5 106.75 L202.3 106.75" fill="none" stroke="#000000" stroke-linecap="round" stroke-linejoin="round" stroke-opacity="0.43137255" stroke-width="0.05"/>
    <path d="M213.65 91.65 Q213.05 91.15 209.65 93.75 207.05 95.85 205.05 100.95 186.95 97.85 172.05 82.25 152.5 59.7 158.25 36.05 L167.8 45.8 213.65 91.65" fill="#ffcc00" fill-rule="evenodd" stroke="none"/>
    <path d="M205.05 100.95 L204.05 103.95 197.9 102.8 Q183.2 98.8 170.0 85.6 156.75 72.35 152.9 57.5 149.1 42.6 156.95 34.75 164.75 26.95 179.6 30.8 194.5 34.6 207.75 47.85 220.95 61.05 224.6 76.1 225.6 80.0 225.75 83.45 217.55 80.35 213.65 91.65 L167.8 45.8 158.25 36.05 Q152.5 59.7 172.05 82.25 186.95 97.85 205.05 100.95" fill="#ffe16c" fill-rule="evenodd" stroke="none"/>
    <path d="M205.05 100.95 L204.05 103.95 197.9 102.8 Q183.2 98.8 170.0 85.6 156.75 72.35 152.9 57.5 149.1 42.6 156.95 34.75 164.75 26.95 179.6 30.8 194.5 34.6 207.75 47.85 220.95 61.05 224.6 76.1 225.6 80.0 225.75 83.45 217.55 80.35 213.65 91.65 213.05 91.15 209.65 93.75 207.05 95.85 205.05 100.95 M167.8 45.8 L213.65 91.65" fill="none" stroke="#000000" stroke-linecap="round" stroke-linejoin="round" stroke-opacity="0.43137255" stroke-width="0.05"/>
    <path d="M210.9 128.0 Q210.4 128.6 213.0 132.0 215.1 134.6 220.2 136.6 217.1 154.7 201.5 169.6 178.95 189.15 155.3 183.4 L165.05 173.85 210.9 128.0" fill="#ffcc00" fill-rule="evenodd" stroke="none"/>
    <path d="M220.2 136.6 L223.2 137.6 Q222.95 140.45 222.05 143.75 218.05 158.45 204.85 171.65 191.6 184.9 176.75 188.75 161.85 192.55 154.0 184.7 146.2 176.9 150.05 162.05 153.85 147.15 167.1 133.9 180.3 120.7 195.35 117.05 199.25 116.05 202.7 115.9 199.6 124.1 210.9 128.0 L165.05 173.85 155.3 183.4 Q178.95 189.15 201.5 169.6 217.1 154.7 220.2 136.6" fill="#ffe16c" fill-rule="evenodd" stroke="none"/>
    <path d="M210.9 128.0 Q210.4 128.6 213.0 132.0 215.1 134.6 220.2 136.6 L223.2 137.6 Q222.95 140.45 222.05 143.75 218.05 158.45 204.85 171.65 191.6 184.9 176.75 188.75 161.85 192.55 154.0 184.7 146.2 176.9 150.05 162.05 153.85 147.15 167.1 133.9 180.3 120.7 195.35 117.05 199.25 116.05 202.7 115.9 199.6 124.1 210.9 128.0 L165.05 173.85" fill="none" stroke="#000000" stroke-linecap="round" stroke-linejoin="round" stroke-opacity="0.43137255" stroke-width="0.05"/>
    <path d="M241.85 86.05 Q242.15 85.4 238.5 83.1 235.65 81.3 230.15 81.25 226.8 63.25 236.2 43.85 250.45 17.7 274.55 14.85 L268.75 27.2 241.85 86.05" fill="#ffcc00" fill-rule="evenodd" stroke="none"/>
    <path d="M230.15 81.25 L226.95 81.4 Q226.25 78.6 225.95 75.2 224.55 60.05 232.3 43.1 240.05 26.1 252.6 17.3 265.25 8.55 275.3 13.15 285.35 17.7 286.9 32.95 288.55 48.25 280.8 65.25 273.05 82.2 260.25 90.9 256.95 93.15 253.8 94.5 253.8 85.8 241.85 86.05 L268.75 27.2 274.55 14.85 Q250.45 17.7 236.2 43.85 226.8 63.25 230.15 81.25" fill="#ffe16c" fill-rule="evenodd" stroke="none"/>
    <path d="M230.15 81.25 L226.95 81.4 Q226.25 78.6 225.95 75.2 224.55 60.05 232.3 43.1 240.05 26.1 252.6 17.3 265.25 8.55 275.3 13.15 285.35 17.7 286.9 32.95 288.55 48.25 280.8 65.25 273.05 82.2 260.25 90.9 256.95 93.15 253.8 94.5 253.8 85.8 241.85 86.05 242.15 85.4 238.5 83.1 235.65 81.3 230.15 81.25 M268.75 27.2 L241.85 86.05" fill="none" stroke="#000000" stroke-linecap="round" stroke-linejoin="round" stroke-opacity="0.43137255" stroke-width="0.05"/>
    <path d="M206.85 96.15 Q206.2 95.85 203.9 99.5 202.1 102.35 202.05 107.85 184.05 111.2 164.65 101.8 138.5 87.55 135.65 63.45 L148.0 69.25 206.85 96.15" fill="#ffcc00" fill-rule="evenodd" stroke="none"/>
    <path d="M202.05 107.85 L202.2 111.05 196.0 112.05 Q180.85 113.45 163.9 105.7 146.9 97.95 138.1 85.4 129.35 72.75 133.95 62.7 138.5 52.65 153.75 51.1 169.05 49.45 186.05 57.2 203.0 64.95 211.7 77.75 213.95 81.05 215.3 84.2 206.6 84.2 206.85 96.15 L148.0 69.25 135.65 63.45 Q138.5 87.55 164.65 101.8 184.05 111.2 202.05 107.85" fill="#ffe16c" fill-rule="evenodd" stroke="none"/>
    <path d="M206.85 96.15 Q206.2 95.85 203.9 99.5 202.1 102.35 202.05 107.85 L202.2 111.05 196.0 112.05 Q180.85 113.45 163.9 105.7 146.9 97.95 138.1 85.4 129.35 72.75 133.95 62.7 138.5 52.65 153.75 51.1 169.05 49.45 186.05 57.2 203.0 64.95 211.7 77.75 213.95 81.05 215.3 84.2 206.6 84.2 206.85 96.15 L148.0 69.25" fill="none" stroke="#000000" stroke-linecap="round" stroke-linejoin="round" stroke-opacity="0.43137255" stroke-width="0.05"/>
    <path d="M223.45 87.15 L219.0 87.45 Q215.7 88.2 211.8 92.0 196.6 81.7 189.6 61.3 181.15 32.75 196.15 13.7 L200.8 26.5 223.45 87.15" fill="#ffcc00" fill-rule="evenodd" stroke="none"/>
    <path d="M211.8 92.0 L209.6 94.4 Q207.15 92.9 204.55 90.7 192.85 81.0 186.3 63.5 179.8 46.0 182.45 30.9 185.15 15.8 195.5 11.95 205.85 8.1 217.75 17.7 229.75 27.4 236.25 44.9 242.8 62.4 239.85 77.55 239.1 81.5 237.85 84.7 231.7 78.55 223.45 87.15 L200.8 26.5 196.15 13.7 Q181.15 32.75 189.6 61.3 196.6 81.7 211.8 92.0" fill="#ffe16c" fill-rule="evenodd" stroke="none"/>
    <path d="M223.45 87.15 L219.0 87.45 Q215.7 88.2 211.8 92.0 L209.6 94.4 Q207.15 92.9 204.55 90.7 192.85 81.0 186.3 63.5 179.8 46.0 182.45 30.9 185.15 15.8 195.5 11.95 205.85 8.1 217.75 17.7 229.75 27.4 236.25 44.9 242.8 62.4 239.85 77.55 239.1 81.5 237.85 84.7 231.7 78.55 223.45 87.15 L200.8 26.5" fill="none" stroke="#000000" stroke-linecap="round" stroke-linejoin="round" stroke-opacity="0.43137255" stroke-width="0.05"/>
    <path d="M205.9 119.05 Q205.2 119.4 206.2 123.5 206.95 126.8 210.75 130.7 200.45 145.9 180.05 152.9 151.5 161.35 132.45 146.35 L145.25 141.7 205.9 119.05" fill="#ffcc00" fill-rule="evenodd" stroke="none"/>
    <path d="M210.75 130.7 L213.15 132.9 Q211.65 135.35 209.45 137.95 199.75 149.65 182.25 156.2 164.75 162.7 149.65 160.05 134.55 157.35 130.7 147.0 126.85 136.65 136.45 124.75 146.15 112.75 163.65 106.25 181.15 99.7 196.3 102.65 200.25 103.4 203.45 104.65 197.3 110.8 205.9 119.05 L145.25 141.7 132.45 146.35 Q151.5 161.35 180.05 152.9 200.45 145.9 210.75 130.7" fill="#ffe16c" fill-rule="evenodd" stroke="none"/>
    <path d="M210.75 130.7 L213.15 132.9 Q211.65 135.35 209.45 137.95 199.75 149.65 182.25 156.2 164.75 162.7 149.65 160.05 134.55 157.35 130.7 147.0 126.85 136.65 136.45 124.75 146.15 112.75 163.65 106.25 181.15 99.7 196.3 102.65 200.25 103.4 203.45 104.65 197.3 110.8 205.9 119.05 205.2 119.4 206.2 123.5 206.95 126.8 210.75 130.7 M145.25 141.7 L205.9 119.05" fill="none" stroke="#000000" stroke-linecap="round" stroke-linejoin="round" stroke-opacity="0.43137255" stroke-width="0.05"/>
    <path d="M254.85 88.9 L255.25 89.3 Q264.9 98.95 264.9 112.55 264.9 126.15 255.25 135.75 245.65 145.4 232.05 145.4 221.25 145.4 212.95 139.35 265.6 142.6 254.85 88.9" fill="#b57304" fill-rule="evenodd" stroke="none"/>
    <path d="M212.95 139.35 Q210.8 137.75 208.8 135.75 199.2 126.15 199.2 112.55 199.2 98.95 208.8 89.3 218.45 79.7 232.05 79.7 245.35 79.7 254.85 88.9 265.6 142.6 212.95 139.35" fill="#fbb746" fill-rule="evenodd" stroke="none"/>
    <path d="M254.85 88.9 L255.25 89.3 Q264.9 98.95 264.9 112.55 264.9 126.15 255.25 135.75 245.65 145.4 232.05 145.4 221.25 145.4 212.95 139.35 210.8 137.75 208.8 135.75 199.2 126.15 199.2 112.55 199.2 98.95 208.8 89.3 218.45 79.7 232.05 79.7 245.35 79.7 254.85 88.9 Z" fill="none" stroke="#000000" stroke-linecap="round" stroke-linejoin="round" stroke-opacity="0.43137255" stroke-width="0.05"/>
  </g>
  <defs>
    <linearGradient gradientTransform="matrix(-0.0431, 0.0, 0.0, 0.017, 230.75, 196.95)" gradientUnits="userSpaceOnUse" id="gradient0" spreadMethod="pad" x1="-819.2" x2="819.2">
      <stop offset="0.0" stop-color="#f99706"/>
      <stop offset="0.4745098039215686" stop-color="#5b4002"/>
      <stop offset="0.803921568627451" stop-color="#ebddbe"/>
      <stop offset="1.0" stop-color="#fcdc61"/>
    </linearGradient>
    <linearGradient gradientTransform="matrix(-0.0068, 0.0, 0.0, 0.0956, 234.2, 288.55)" gradientUnits="userSpaceOnUse" id="gradient1" spreadMethod="pad" x1="-819.2" x2="819.2">
      <stop offset="0.0" stop-color="#999999"/>
      <stop offset="0.4745098039215686" stop-color="#3c3c3c"/>
      <stop offset="1.0" stop-color="#ffffff"/>
    </linearGradient>
  </defs>
</svg>
