<?xml version="1.0" encoding="UTF-8" standalone="no"?>
<svg xmlns:xlink="http://www.w3.org/1999/xlink" height="139.6px" width="83.75px" xmlns="http://www.w3.org/2000/svg">
  <g transform="matrix(1.0, 0.0, 0.0, 1.0, -282.25, -76.25)">
    <path d="M325.85 79.4 Q326.1 81.95 324.0 87.4 321.95 92.65 322.6 101.05 323.55 111.8 327.1 121.85 330.95 132.6 334.5 134.7 337.85 136.55 345.65 138.45 353.35 140.35 360.4 144.55 367.2 148.75 365.75 151.5 364.0 154.45 358.4 157.15 352.5 159.9 348.0 159.25 342.6 159.05 337.85 156.1 330.75 152.1 326.3 145.8 325.4 150.65 326.15 155.7 327.25 163.9 331.9 170.2 333.8 172.95 336.8 174.6 342.95 179.0 350.45 180.9 358.35 182.15 362.05 188.25 L360.95 192.25 355.8 196.25 Q349.8 197.7 344.1 197.1 335.2 195.4 329.3 189.1 323.45 182.4 313.0 185.1 312.6 187.85 313.35 189.95 316.25 198.55 325.4 201.7 L331.3 203.4 341.2 204.25 Q347.4 204.45 347.55 208.45 343.95 212.45 334.65 214.55 325.15 216.65 315.35 215.35 305.35 214.1 299.4 208.85 291.65 201.5 286.8 192.25 282.35 184.05 282.25 173.35 282.15 163.7 284.4 154.65 286.65 145.6 290.0 136.35 293.7 125.85 294.4 115.35 294.75 110.75 295.35 106.55 L296.4 94.35 Q296.8 86.15 292.7 80.25 L291.0 80.25 292.1 79.2 292.75 79.2 Q298.05 78.8 303.45 79.0 L304.05 79.0 304.5 79.0 306.8 79.0 Q314.15 79.0 321.95 76.25 325.35 76.9 325.85 79.4 M312.55 120.4 L312.45 120.8 Q311.85 121.65 311.6 122.7 L311.3 125.85 Q311.5 127.75 312.15 129.65 312.5 130.9 313.3 131.95 313.6 132.35 314.05 132.15 314.95 131.95 315.3 131.3 L316.05 129.2 316.55 126.9 316.45 124.6 315.85 122.5 315.15 121.05 Q314.95 120.2 313.95 119.95 L313.45 120.2 Q313.1 119.95 312.55 120.4 M329.6 121.25 Q329.3 119.55 331.35 117.05 L331.4 116.8 Q332.15 116.4 333.1 116.8 L333.8 117.45 Q336.05 119.35 335.1 122.7 L334.3 124.6 Q334.15 125.25 333.45 125.45 332.55 125.65 331.9 125.0 L330.45 123.75 Q329.85 122.7 329.6 121.25 M307.55 138.9 Q306.25 138.9 304.85 139.5 303.55 140.55 302.35 142.05 300.85 144.15 299.9 146.45 298.55 149.6 297.9 152.55 297.25 155.3 297.5 158.0 297.65 160.1 298.55 161.8 299.25 163.25 300.85 163.7 302.2 164.1 303.75 163.7 305.15 163.25 305.95 162.4 307.5 161.15 308.25 159.7 L309.8 156.75 310.9 153.6 311.75 149.8 Q312.25 147.7 312.05 145.6 311.9 143.7 311.2 142.05 L310.45 140.8 309.95 140.15 Q309.45 139.75 308.65 139.5 308.45 139.5 308.25 139.3 L307.55 138.9 M284.55 201.3 Q284.8 200.85 285.3 200.65 286.7 200.05 287.95 201.1 L289.05 201.9 Q291.3 204.65 292.45 208.0 292.85 209.05 292.85 210.1 293.0 211.15 292.55 212.2 292.15 213.05 291.4 213.5 290.45 214.1 289.15 214.1 286.4 214.3 285.2 212.2 L284.0 209.05 Q283.1 205.9 283.85 202.55 L284.5 201.5 284.55 201.3 M338.2 167.45 Q337.25 166.2 336.75 164.5 L336.45 163.9 338.35 164.75 341.45 166.2 Q343.65 167.45 345.95 168.3 L348.6 169.75 350.35 171.25 351.75 172.5 Q352.25 172.95 352.1 173.55 351.9 175.45 349.95 175.85 L348.2 176.1 Q344.7 175.85 342.25 173.55 341.25 172.5 340.35 171.05 339.2 169.35 338.2 167.45" fill="#000000" fill-rule="evenodd" stroke="none"/>
  </g>
</svg>
