<?xml version="1.0" encoding="UTF-8" standalone="no"?>
<svg xmlns:xlink="http://www.w3.org/1999/xlink" height="231.8px" width="113.0px" xmlns="http://www.w3.org/2000/svg">
  <g transform="matrix(1.0, 0.0, 0.0, 1.0, -207.95, -19.0)">
    <path d="M258.95 19.0 L259.05 24.5 258.95 25.3 259.6 25.4 259.7 25.9 260.8 29.9 259.2 32.2 264.2 42.9 262.3 41.85 259.4 41.85 259.4 42.95 261.1 42.5 259.45 44.45 259.5 48.0 256.7 55.75 256.15 55.95 256.4 56.55 255.4 59.5 255.0 57.05 254.8 56.55 254.35 56.75 252.4 64.7 253.4 65.25 Q244.85 91.0 237.95 121.0 L258.95 19.0 M259.35 41.0 L261.85 41.0 259.25 35.5 259.35 41.0 M271.95 153.0 Q265.95 140.35 269.15 125.55 273.8 129.05 277.2 125.35 L276.4 123.05 276.45 123.0 276.1 122.25 Q265.95 112.55 266.45 94.75 L266.2 94.7 265.5 92.05 263.4 83.15 261.0 71.5 270.7 95.15 271.5 97.0 271.45 97.0 271.95 98.2 277.4 111.5 Q277.4 112.0 280.15 114.8 282.75 117.5 281.35 121.05 L281.9 122.45 271.95 137.0 271.95 153.0 M241.55 125.75 L253.5 65.0 249.15 108.7 249.15 108.75 247.5 125.0 262.5 150.0 261.95 166.0 259.2 163.5 256.45 161.0 255.9 157.3 Q255.05 154.0 253.4 154.3 252.3 154.45 250.95 156.0 L250.95 138.0 241.55 125.75" fill="#efefef" fill-rule="evenodd" stroke="none"/>
    <path d="M259.05 24.5 L258.95 19.0 277.75 90.8 Q271.7 70.25 262.6 54.2 L265.05 53.3 265.15 53.25 265.65 53.05 261.1 42.5 259.4 42.95 259.4 41.85 262.3 41.85 264.2 42.9 259.2 32.2 260.8 29.9 259.7 25.9 259.75 25.65 259.6 25.4 259.05 24.5 M259.35 41.0 L259.25 35.5 261.85 41.0 259.35 41.0 M262.35 86.85 L262.15 84.05 262.2 84.0 261.7 78.05 261.45 75.55 261.0 71.5 263.4 83.15 265.5 92.05 266.2 94.7 266.45 94.75 Q265.95 112.55 276.1 122.25 L276.4 123.05 277.2 125.35 Q273.8 129.05 269.15 125.55 265.95 140.35 271.95 153.0 268.5 151.65 267.35 156.75 L266.95 159.5 264.6 162.6 262.2 165.65 263.9 159.1 266.85 148.1 Q270.45 147.3 259.85 141.35 267.05 142.5 264.45 134.55 L264.45 134.5 261.15 133.1 261.1 133.05 261.15 132.65 261.15 132.5 261.7 128.15 261.05 133.05 Q261.35 128.55 255.15 130.5 L253.95 130.0 261.8 127.25 Q266.9 120.35 262.95 108.15 L262.8 108.15 263.0 103.65 263.0 102.65 263.0 102.4 262.9 99.65 262.95 99.65 262.8 95.05 262.75 94.4 262.8 94.4 262.75 93.3 262.7 91.55 262.65 91.3 262.65 90.85 262.6 89.9 262.4 86.85 262.35 86.85" fill="#797979" fill-rule="evenodd" stroke="none"/>
    <path d="M259.6 25.4 L258.95 25.3 259.05 24.5 259.6 25.4 M262.8 108.15 L262.95 108.15 262.8 108.2 262.8 108.15 M261.05 133.05 L261.7 128.15 261.15 132.5 261.15 132.65 261.1 133.05 261.05 133.05 M263.9 159.1 L262.2 165.65 262.2 165.7 261.95 166.0 262.05 166.05 Q257.75 168.55 258.9 173.5 L267.65 177.65 263.3 181.5 266.85 182.0 Q263.15 191.4 261.45 200.8 L261.3 194.7 Q263.7 189.4 265.2 183.4 L254.85 183.9 252.0 183.4 254.85 183.2 Q261.75 182.35 265.85 177.6 L265.9 177.65 266.05 177.95 266.1 177.5 Q261.75 174.1 255.1 173.5 256.8 167.95 261.55 166.15 L261.95 166.0 263.9 159.1 M276.4 123.05 L276.1 122.25 276.45 123.0 276.4 123.05 M251.45 91.75 L251.45 91.8 250.85 91.55 251.25 91.35 251.45 91.75 M258.95 94.0 L259.25 94.05 259.2 94.2 258.95 94.15 258.95 94.0 M251.55 222.4 L252.0 222.4 254.95 227.3 Q252.55 228.1 252.2 228.85 L252.45 230.2 252.15 229.2 Q252.1 229.0 252.2 228.85 251.65 225.85 251.55 222.4 M268.3 215.1 L258.6 209.6 261.45 200.8 260.6 206.35 Q263.5 212.2 268.3 215.1 M259.05 224.7 Q263.35 224.9 267.4 222.05 267.75 224.15 260.3 225.85 L259.35 226.05 259.05 224.7 M259.45 226.55 Q264.65 226.2 267.35 224.2 L268.55 223.25 266.0 226.5 264.8 227.0 Q262.3 228.15 261.5 230.05 L260.9 232.45 260.6 231.2 259.45 226.55 M269.25 222.4 Q269.4 222.05 268.9 222.05 L269.6 222.0 269.25 222.4 M255.55 228.2 Q257.75 231.7 259.1 233.35 L257.9 232.1 Q255.45 229.6 255.55 228.2 M260.4 234.65 L260.75 234.8 260.75 234.7 260.75 234.8 260.75 235.0 260.4 234.65 M259.0 235.9 L260.9 236.9 Q263.5 239.2 262.55 241.2 261.95 238.95 259.0 235.9 M262.7 242.45 L263.0 242.25 Q264.5 241.25 265.25 239.3 L265.3 239.2 265.3 239.15 266.5 239.7 Q267.1 240.05 266.4 239.8 264.5 242.55 261.6 244.6 262.65 243.7 262.7 242.45 M262.5 235.75 Q259.75 232.35 263.65 229.3 L264.7 228.5 Q261.95 232.9 262.5 235.75 M266.5 239.7 L266.4 239.8 266.5 239.7" fill="#ffcc00" fill-rule="evenodd" stroke="none"/>
    <path d="M259.7 25.9 L259.6 25.4 259.75 25.65 259.7 25.9 M251.45 91.75 L251.85 91.55 251.5 91.8 251.45 91.8 251.45 91.75" fill="#993300" fill-rule="evenodd" stroke="none"/>
    <path d="M237.95 121.0 Q244.85 91.0 253.4 65.25 L252.4 64.7 254.35 56.75 254.8 56.55 255.0 57.05 255.4 59.5 256.4 56.55 256.15 55.95 256.7 55.75 259.5 48.0 259.45 44.45 261.1 42.5 265.65 53.05 265.15 53.25 265.05 53.3 262.6 54.2 Q271.7 70.25 277.75 90.8 L284.95 118.0 281.9 122.45 281.35 121.05 Q282.75 117.5 280.15 114.8 277.4 112.0 277.4 111.5 L271.95 98.2 271.45 97.0 271.5 97.0 270.7 95.15 261.0 71.5 261.45 75.55 261.7 78.05 262.2 84.0 262.15 84.05 262.35 86.85 262.6 89.9 262.65 90.85 262.65 91.3 262.7 91.55 262.75 93.3 262.75 94.4 262.8 95.05 262.95 99.65 262.9 99.65 263.0 102.4 263.0 102.65 263.0 103.65 262.8 108.15 262.8 108.2 262.95 108.15 Q266.9 120.35 261.8 127.25 L253.95 130.0 255.15 130.5 Q261.35 128.55 261.05 133.05 L261.1 133.05 261.0 133.5 261.15 133.1 264.45 134.5 264.45 134.55 Q267.05 142.5 259.85 141.35 270.45 147.3 266.85 148.1 L263.9 159.1 261.95 166.0 262.5 150.0 247.5 125.0 249.15 108.75 249.15 108.7 253.5 65.0 241.55 125.75 237.95 121.0 M271.95 98.2 L272.0 98.3 272.4 98.15 271.95 98.2 M251.45 91.8 L251.5 91.8 251.85 91.55 251.45 91.75 251.25 91.35 250.85 91.55 251.45 91.8 M258.95 94.0 L258.95 94.15 259.2 94.2 259.25 94.05 258.95 94.0" fill="#d5d5d5" fill-rule="evenodd" stroke="none"/>
    <path d="M262.35 86.85 L262.4 86.85 262.6 89.9 262.35 86.85 M262.75 93.3 L262.8 94.4 262.75 94.4 262.75 93.3 M269.6 220.0 L269.6 222.0 268.9 222.05 Q269.4 222.05 269.25 222.4 L268.55 223.25 267.35 224.2 Q264.65 226.2 259.45 226.55 L259.35 226.05 260.3 225.85 Q267.75 224.15 267.4 222.05 263.35 224.9 259.05 224.7 258.2 220.75 258.65 220.6 263.25 218.8 267.1 215.6 262.65 213.55 258.6 209.6 L268.3 215.1 268.6 215.25 268.8 215.35 264.8 220.0 269.6 220.0 M261.3 194.7 L261.45 200.8 258.6 209.6 255.1 205.7 254.9 205.5 255.1 205.3 255.1 205.7 255.1 205.3 Q258.7 200.4 261.3 194.7 M267.65 177.65 L258.9 173.5 Q265.85 172.3 269.2 176.25 L267.65 177.65 M255.3 227.8 L255.55 228.2 Q255.45 229.6 257.9 232.1 L259.1 233.35 260.4 234.65 260.75 235.0 Q260.75 236.0 260.9 236.9 L259.0 235.9 255.35 232.5 252.45 230.2 252.2 228.85 Q252.55 228.1 254.95 227.3 L255.3 227.8" fill="#ffff66" fill-rule="evenodd" stroke="none"/>
    <path d="M271.95 98.2 L272.4 98.15 272.0 98.3 271.95 98.2" fill="#ffcc66" fill-rule="evenodd" stroke="none"/>
    <path d="M264.6 162.6 L266.95 159.5 Q282.9 163.35 296.5 169.4 283.7 163.15 271.95 153.0 296.45 167.85 320.95 174.0 L300.4 171.2 297.1 170.75 264.6 162.6 M229.95 177.25 L207.95 185.0 Q230.55 174.05 250.95 156.0 L245.0 163.1 Q238.35 170.4 230.7 176.7 L229.95 177.25 230.7 176.7 Q242.8 167.15 256.45 161.0 L259.2 163.5 234.15 175.8 229.95 177.25 M269.6 167.05 L269.6 178.55 269.6 220.0 264.8 220.0 268.8 215.35 268.6 215.25 268.3 215.1 Q263.5 212.2 260.6 206.35 L261.45 200.8 Q263.15 191.4 266.85 182.0 L263.3 181.5 267.65 177.65 269.6 178.55 267.65 177.65 269.2 176.25 Q265.85 172.3 258.9 173.5 257.75 168.55 262.05 166.05 L269.6 167.05 M269.6 222.0 L270.15 222.0 270.15 222.55 Q270.0 227.25 271.3 231.25 270.0 240.8 264.8 246.85 L263.85 247.75 263.1 248.4 261.5 250.8 260.15 248.6 257.75 246.1 Q256.9 245.35 255.95 244.7 258.8 246.2 255.35 232.5 L259.0 235.9 Q261.95 238.95 262.55 241.2 L262.7 242.45 Q262.65 243.7 261.6 244.6 264.5 242.55 266.4 239.8 267.1 240.05 266.5 239.7 L265.3 239.15 Q262.95 237.9 262.5 235.75 261.95 232.9 264.7 228.5 L266.0 226.5 268.55 223.25 269.25 222.4 269.6 222.0 M261.55 166.15 Q256.8 167.95 255.1 173.5 261.75 174.1 266.1 177.5 L265.85 177.6 Q261.75 182.35 254.85 183.2 252.9 175.9 254.7 168.55 L261.55 166.15 M254.85 183.9 L265.2 183.4 Q263.7 189.4 261.3 194.7 258.7 200.4 255.1 205.3 253.15 195.1 254.85 183.9 M300.4 171.2 L296.5 169.4 300.4 171.2 M258.6 209.6 Q262.65 213.55 267.1 215.6 263.25 218.8 258.65 220.6 258.2 220.75 259.05 224.7 L259.35 226.05 259.45 226.55 260.6 231.2 260.9 232.45 Q261.4 234.8 260.75 234.8 L260.4 234.65 259.1 233.35 Q257.75 231.7 255.55 228.2 L255.3 227.8 Q251.45 218.9 255.1 205.7 L258.6 209.6 M260.75 234.8 L260.75 234.7 260.75 234.8" fill="#4b2c14" fill-rule="evenodd" stroke="none"/>
    <path d="M266.95 159.5 L267.35 156.75 276.8 160.0 271.95 153.0 Q283.7 163.15 296.5 169.4 282.9 163.35 266.95 159.5 M230.7 176.7 Q238.35 170.4 245.0 163.1 L250.95 156.0 Q252.3 154.45 253.4 154.3 L245.0 163.1 255.9 157.3 256.45 161.0 Q242.8 167.15 230.7 176.7" fill="#cc0000" fill-rule="evenodd" stroke="none"/>
    <path d="M267.35 156.75 Q268.5 151.65 271.95 153.0 L276.8 160.0 267.35 156.75 M253.4 154.3 Q255.05 154.0 255.9 157.3 L245.0 163.1 253.4 154.3" fill="#990000" fill-rule="evenodd" stroke="none"/>
    <path d="M262.2 165.65 L264.6 162.6 297.1 170.75 271.95 167.35 271.9 167.35 269.6 167.05 262.05 166.05 262.2 165.7 262.2 165.65 M234.15 175.8 L259.2 163.5 261.95 166.0 261.55 166.15 254.7 168.55 252.0 169.5 254.7 168.55 Q252.9 175.9 254.85 183.2 L252.0 183.4 254.85 183.9 Q253.15 195.1 255.1 205.3 L254.9 205.5 255.1 205.7 Q251.45 218.9 255.3 227.8 L254.95 227.3 252.0 222.4 252.0 183.4 252.0 169.5 234.15 175.8 M271.3 231.25 Q272.8 235.9 276.25 239.5 273.25 240.25 270.6 241.9 L269.35 242.65 266.75 245.1 264.8 246.85 Q270.0 240.8 271.3 231.25 M255.95 244.7 L255.45 244.35 Q251.75 241.95 246.2 240.2 250.1 234.15 251.2 227.35 L251.3 226.55 251.55 222.4 Q251.65 225.85 252.2 228.85 252.1 229.0 252.15 229.2 L252.45 230.2 255.35 232.5 Q258.8 246.2 255.95 244.7" fill="#996600" fill-rule="evenodd" stroke="none"/>
    <path d="M262.2 165.7 L262.05 166.05 261.95 166.0 262.05 166.05 261.95 166.0 262.2 165.7 M265.9 177.65 L265.85 177.6 266.1 177.5 265.9 177.65" fill="#660000" fill-rule="evenodd" stroke="none"/>
    <path d="M266.1 177.5 L266.05 177.95 265.9 177.65 266.1 177.5" fill="#fcfcfc" fill-rule="evenodd" stroke="none"/>
    <path d="M260.75 234.8 Q261.4 234.8 260.9 232.45 L261.5 230.05 Q262.3 228.15 264.8 227.0 L266.0 226.5 264.7 228.5 263.65 229.3 Q259.75 232.35 262.5 235.75 262.95 237.9 265.3 239.15 L265.3 239.2 265.25 239.3 Q264.5 241.25 263.0 242.25 L262.7 242.45 262.55 241.2 Q263.5 239.2 260.9 236.9 260.75 236.0 260.75 235.0 L260.75 234.8" fill="#ffff99" fill-rule="evenodd" stroke="none"/>
    <path d="M263.85 247.75 Q262.6 249.15 261.5 250.8 L263.1 248.4 263.85 247.75" fill="#cc9966" fill-rule="evenodd" stroke="none"/>
    <path d="M258.95 19.0 L237.95 121.0 241.55 125.75 250.95 138.0 250.95 156.0 Q230.55 174.05 207.95 185.0 L229.95 177.25 230.7 176.7 Q238.35 170.4 245.0 163.1 L250.95 156.0 Q252.3 154.45 253.4 154.3 255.05 154.0 255.9 157.3 L256.45 161.0 Q242.8 167.15 230.7 176.7 M259.75 25.65 L259.7 25.9 M277.75 90.8 L258.95 19.0 M281.9 122.45 L284.95 118.0 277.75 90.8 M249.15 108.7 L249.15 108.75 M229.95 177.25 L234.15 175.8 259.2 163.5 256.45 161.0 M262.8 108.2 L262.8 108.15 M281.9 122.45 L271.95 137.0 271.95 153.0 Q296.45 167.85 320.95 174.0 L300.4 171.2 297.1 170.75 271.95 167.35 271.9 167.35 269.6 167.05 269.6 178.55 269.6 220.0 269.6 222.0 270.15 222.0 270.15 222.55 Q270.0 227.25 271.3 231.25 272.8 235.9 276.25 239.5 273.25 240.25 270.6 241.9 L269.35 242.65 266.75 245.1 264.8 246.85 263.85 247.75 Q262.6 249.15 261.5 250.8 M260.15 248.6 L257.75 246.1 Q256.9 245.35 255.95 244.7 L255.45 244.35 Q251.75 241.95 246.2 240.2 250.1 234.15 251.2 227.35 L251.3 226.55 251.55 222.4 252.0 222.4 252.0 183.4 252.0 169.5 234.15 175.8 M262.05 166.05 L262.2 165.7 261.95 166.0 262.05 166.05 269.6 167.05 M261.95 166.0 L261.55 166.15 Q256.8 167.95 255.1 173.5 261.75 174.1 266.1 177.5 L265.85 177.6 Q261.75 182.35 254.85 183.2 L252.0 183.4 254.85 183.9 265.2 183.4 Q263.7 189.4 261.3 194.7 258.7 200.4 255.1 205.3 L254.9 205.5 255.1 205.7 255.1 205.3 Q253.15 195.1 254.85 183.9 M261.45 200.8 Q263.15 191.4 266.85 182.0 L263.3 181.5 267.65 177.65 269.6 178.55 M258.9 173.5 Q257.75 168.55 262.05 166.05 M262.2 165.65 L262.2 165.7 M259.2 163.5 L261.95 166.0 M254.7 168.55 L261.55 166.15 M252.0 169.5 L254.7 168.55 Q252.9 175.9 254.85 183.2 M267.65 177.65 L269.2 176.25 Q265.85 172.3 258.9 173.5 M296.5 169.4 L300.4 171.2 M271.95 153.0 Q283.7 163.15 296.5 169.4 282.9 163.35 266.95 159.5 M264.6 162.6 L297.1 170.75 M269.6 220.0 L264.8 220.0 268.8 215.35 268.6 215.25 268.3 215.1 Q263.5 212.2 260.6 206.35 L261.45 200.8 M258.6 209.6 Q262.65 213.55 267.1 215.6 263.25 218.8 258.65 220.6 258.2 220.75 259.05 224.7 L259.35 226.05 259.45 226.55 260.6 231.2 260.9 232.45 Q261.4 234.8 260.75 234.8 L260.4 234.65 259.1 233.35 Q257.75 231.7 255.55 228.2 L255.3 227.8 254.95 227.3 252.0 222.4 M268.55 223.25 L269.25 222.4 269.6 222.0 M258.6 209.6 L255.1 205.7 Q251.45 218.9 255.3 227.8 M252.2 228.85 L252.45 230.2 255.35 232.5 259.0 235.9 Q261.95 238.95 262.55 241.2 L262.7 242.45 Q262.65 243.7 261.6 244.6 264.5 242.55 266.4 239.8 L266.5 239.7 265.3 239.15 Q262.95 237.9 262.5 235.75 261.95 232.9 264.7 228.5 L266.0 226.5 268.55 223.25 M252.45 230.2 L252.15 229.2 Q252.1 229.0 252.2 228.85 251.65 225.85 251.55 222.4 M255.35 232.5 Q258.8 246.2 255.95 244.7 M266.4 239.8 Q267.1 240.05 266.5 239.7 M271.3 231.25 Q270.0 240.8 264.8 246.85 M263.1 248.4 L263.85 247.75" fill="none" stroke="#000000" stroke-linecap="round" stroke-linejoin="round" stroke-opacity="0.5529412" stroke-width="0.05"/>
  </g>
</svg>
