<?xml version="1.0" encoding="UTF-8" standalone="no"?>
<svg xmlns:xlink="http://www.w3.org/1999/xlink" height="83.9px" width="100.5px" xmlns="http://www.w3.org/2000/svg">
  <g transform="matrix(1.0, 0.0, 0.0, 1.0, -224.8, -158.6)">
    <path d="M284.35 169.4 Q287.75 173.85 290.45 178.9 293.25 184.15 295.2 189.8 297.05 195.3 297.15 201.1 297.2 206.2 295.8 211.1 294.25 216.35 290.45 220.4 286.5 224.7 280.75 226.25 275.0 227.75 269.2 227.2 263.35 226.75 258.5 223.5 253.55 220.25 251.15 214.9 248.8 209.65 248.15 203.8 247.55 198.4 248.0 193.05 248.4 187.75 250.0 182.75 251.75 177.35 254.5 172.4 257.15 167.5 260.7 163.45 262.9 161.1 265.7 159.6 267.9 158.35 270.45 158.8 273.85 159.4 276.55 161.5 280.9 164.9 284.35 169.4 M292.9 190.7 Q291.15 185.65 288.6 180.9 286.2 176.4 283.15 172.4 280.05 168.35 276.1 165.3 273.7 163.35 270.65 162.85 268.35 162.45 266.35 163.6 263.85 164.9 261.85 167.0 258.65 170.7 256.3 175.05 253.85 179.5 252.25 184.35 250.8 188.85 250.45 193.65 250.05 198.45 250.6 203.3 251.15 208.55 253.3 213.3 255.45 218.1 259.9 221.0 264.3 223.95 269.5 224.35 274.75 224.85 279.9 223.45 285.05 222.1 288.65 218.25 292.05 214.6 293.4 209.9 294.7 205.5 294.65 200.9 294.55 195.7 292.9 190.7" fill="#ff9411" fill-rule="evenodd" stroke="none"/>
    <path d="M292.9 190.7 Q294.55 195.7 294.65 200.9 294.7 205.5 293.4 209.9 292.05 214.6 288.65 218.25 285.05 222.1 279.9 223.45 274.75 224.85 269.5 224.35 264.3 223.95 259.9 221.0 255.45 218.1 253.3 213.3 251.15 208.55 250.6 203.3 250.05 198.45 250.45 193.65 250.8 188.85 252.25 184.35 253.85 179.5 256.3 175.05 258.65 170.7 261.85 167.0 263.85 164.9 266.35 163.6 268.35 162.45 270.65 162.85 273.7 163.35 276.1 165.3 280.05 168.35 283.15 172.4 286.2 176.4 288.6 180.9 291.15 185.65 292.9 190.7" fill="#dd7900" fill-rule="evenodd" stroke="none"/>
    <path d="M284.35 169.4 Q280.9 164.9 276.55 161.5 273.85 159.4 270.45 158.8 267.9 158.35 265.7 159.6 262.9 161.1 260.7 163.45 257.15 167.5 254.5 172.4 251.75 177.35 250.0 182.75 248.4 187.75 248.0 193.05 247.55 198.4 248.15 203.8 248.8 209.65 251.15 214.9 253.55 220.25 258.5 223.5 263.35 226.75 269.2 227.2 275.0 227.75 280.75 226.25 286.5 224.7 290.45 220.4 294.25 216.35 295.8 211.1 297.2 206.2 297.15 201.1 297.05 195.3 295.2 189.8 293.25 184.15 290.45 178.9 287.75 173.85 284.35 169.4 Z" fill="none" stroke="#000000" stroke-linecap="round" stroke-linejoin="round" stroke-opacity="0.5019608" stroke-width="0.25"/>
    <path d="M275.45 171.95 Q276.2 170.8 277.6 170.55 278.95 170.25 280.1 171.05 281.25 171.8 281.55 173.2 281.8 174.6 281.05 175.75 L280.35 176.5 278.9 177.15 277.0 177.0 276.75 176.9 276.35 176.65 275.7 176.1 Q275.1 175.4 274.95 174.45 274.65 173.05 275.45 171.95 M269.05 203.4 Q268.05 202.3 267.8 200.8 267.35 198.65 268.6 196.95 269.75 195.15 271.9 194.7 274.05 194.3 275.9 195.5 277.65 196.7 278.05 198.9 278.5 201.05 277.3 202.85 L276.2 204.0 Q275.25 204.75 273.95 205.0 L271.0 204.8 270.65 204.6 270.0 204.25 269.05 203.4" fill="#ff9411" fill-rule="evenodd" stroke="none"/>
    <path d="M275.1 178.95 Q275.25 179.9 274.75 180.7 274.2 181.45 273.25 181.65 272.3 181.8 271.5 181.3 270.65 180.75 270.5 179.8 270.3 178.85 270.85 178.05 271.4 177.25 272.35 177.05 273.3 176.85 274.1 177.4 274.9 177.95 275.1 178.95 M283.75 182.1 Q285.15 183.05 285.5 184.75 285.85 186.45 284.9 187.9 283.95 189.3 282.25 189.6 280.5 189.95 279.1 189.0 277.7 188.0 277.35 186.3 277.0 184.6 278.0 183.2 278.9 181.75 280.65 181.45 282.35 181.1 283.75 182.1 M269.05 203.4 L270.0 204.25 270.65 204.6 270.95 204.95 271.0 204.8 273.95 205.0 Q275.25 204.75 276.2 204.0 L276.8 205.3 Q277.05 206.55 276.35 207.6 275.65 208.6 274.4 208.85 273.15 209.1 272.15 208.4 L272.0 208.35 Q271.95 209.85 271.05 211.2 269.8 213.05 267.65 213.45 265.5 213.9 263.65 212.65 261.8 211.4 261.35 209.15 260.95 207.0 262.2 205.2 263.45 203.3 265.6 202.9 267.45 202.55 269.05 203.4 M264.9 175.55 L263.75 175.3 Q263.25 174.95 263.15 174.35 263.0 173.7 263.35 173.15 263.7 172.6 264.35 172.5 265.0 172.4 265.5 172.75 266.0 173.1 266.15 173.75 L265.9 174.9 Q265.55 175.4 264.9 175.55" fill="#e67e00" fill-rule="evenodd" stroke="none"/>
    <path d="M265.05 165.65 Q264.95 164.85 265.15 164.25 L265.4 163.65 Q266.5 161.5 269.85 161.65 273.2 161.6 276.85 163.7 279.45 165.1 281.05 166.95 L281.45 167.3 281.45 167.5 282.3 168.7 283.15 170.25 Q283.6 171.6 283.4 172.75 L283.05 173.7 Q282.15 175.45 279.7 175.8 L278.6 175.9 277.55 175.85 274.6 175.2 273.4 174.65 271.65 173.8 271.05 173.4 270.1 172.75 268.7 171.75 268.6 171.65 Q267.4 170.6 266.6 169.35 L266.1 168.75 Q265.2 167.25 265.05 166.05 L265.05 165.65" fill="#d6c09a" fill-opacity="0.6" fill-rule="evenodd" stroke="none"/>
    <path d="M283.8 176.8 Q286.5 176.7 289.1 180.65 L289.5 181.35 Q291.45 184.5 292.75 188.65 L293.55 192.0 293.95 194.05 Q294.45 197.1 294.55 199.95 L294.6 202.1 294.5 203.85 294.1 206.75 294.05 207.25 294.0 207.5 293.85 208.2 293.7 208.7 Q293.1 211.1 292.35 212.4 L291.0 213.9 291.0 213.85 Q289.15 214.45 291.45 210.65 293.8 206.75 292.95 199.35 L292.65 197.25 Q291.65 192.45 288.45 187.7 L287.2 186.05 286.2 184.65 Q280.2 177.35 283.3 176.85 L283.8 176.8" fill="#fcf1da" fill-opacity="0.6" fill-rule="evenodd" stroke="none"/>
    <path d="M274.3 208.2 Q274.65 213.25 273.5 218.2 272.25 223.5 268.65 227.75 264.95 232.25 259.35 234.05 253.65 235.9 247.85 235.65 242.0 235.5 237.0 232.55 231.9 229.6 229.2 224.35 226.6 219.2 225.65 213.45 224.75 208.15 224.95 202.75 225.05 197.4 226.4 192.35 227.85 186.9 230.3 181.85 232.7 176.85 236.0 172.6 238.1 170.15 240.8 168.5 242.9 167.15 245.5 167.45 248.9 167.85 251.7 169.85 256.2 173.0 259.85 177.3 263.5 181.55 266.45 186.4 269.55 191.5 271.75 197.0 273.9 202.45 274.3 208.2 M270.35 207.55 Q270.0 202.65 268.2 198.05 266.3 193.35 263.7 189.05 261.2 184.95 258.1 181.35 254.95 177.65 251.15 175.0 248.75 173.3 245.9 172.95 243.7 172.7 241.9 173.85 239.6 175.25 237.85 177.3 235.0 180.95 233.0 185.2 230.9 189.5 229.65 194.1 228.5 198.4 228.4 202.95 228.25 207.5 229.05 212.05 229.8 216.95 232.05 221.3 234.3 225.75 238.65 228.25 242.95 230.8 247.9 230.9 252.85 231.1 257.65 229.55 262.4 228.0 265.55 224.2 268.6 220.6 269.65 216.1 270.65 211.9 270.35 207.55" fill="#858405" fill-rule="evenodd" stroke="none"/>
    <path d="M270.35 207.55 Q270.65 211.9 269.65 216.1 268.6 220.6 265.55 224.2 262.4 228.0 257.65 229.55 252.85 231.1 247.9 230.9 242.95 230.8 238.65 228.25 234.3 225.75 232.05 221.3 229.8 216.95 229.05 212.05 228.25 207.5 228.4 202.95 228.5 198.4 229.65 194.1 230.9 189.5 233.0 185.2 235.0 180.95 237.85 177.3 239.6 175.25 241.9 173.85 243.7 172.7 245.9 172.95 248.75 173.3 251.15 175.0 254.95 177.65 258.1 181.35 261.2 184.95 263.7 189.05 266.3 193.35 268.2 198.05 270.0 202.65 270.35 207.55" fill="#6a6a04" fill-rule="evenodd" stroke="none"/>
    <path d="M274.3 208.2 Q273.9 202.45 271.75 197.0 269.55 191.5 266.45 186.4 263.5 181.55 259.85 177.3 256.2 173.0 251.7 169.85 248.9 167.85 245.5 167.45 242.9 167.15 240.8 168.5 238.1 170.15 236.0 172.6 232.7 176.85 230.3 181.85 227.85 186.9 226.4 192.35 225.05 197.4 224.95 202.75 224.75 208.15 225.65 213.45 226.6 219.2 229.2 224.35 231.9 229.6 237.0 232.55 242.0 235.5 247.85 235.65 253.65 235.9 259.35 234.05 264.95 232.25 268.65 227.75 272.25 223.5 273.5 218.2 274.65 213.25 274.3 208.2 Z" fill="none" stroke="#000000" stroke-linecap="round" stroke-linejoin="round" stroke-opacity="0.5019608" stroke-width="0.25"/>
    <path d="M241.55 175.8 Q241.5 175.05 241.7 174.4 L242.0 173.8 Q243.1 171.75 246.45 171.85 249.85 171.85 253.45 174.0 256.0 175.5 257.6 177.35 L257.95 177.7 258.0 177.85 258.85 179.1 259.65 180.7 Q260.1 182.0 259.85 183.2 L259.5 184.1 Q258.55 185.9 256.05 186.15 L254.95 186.25 254.0 186.2 251.0 185.5 249.8 184.95 248.1 184.05 247.5 183.7 246.55 183.05 245.15 181.95 245.05 181.85 243.05 179.55 242.6 178.9 Q241.75 177.4 241.6 176.2 L241.55 175.8" fill="#d6c09a" fill-opacity="0.6" fill-rule="evenodd" stroke="none"/>
    <path d="M260.2 187.2 Q262.85 187.15 265.45 191.15 L265.8 191.85 Q267.75 195.05 269.0 199.15 L269.8 202.55 270.15 204.6 Q270.6 207.7 270.65 210.55 L270.65 212.65 270.55 214.45 270.1 217.35 270.05 217.8 269.95 218.1 269.8 218.75 269.65 219.25 Q269.05 221.7 268.25 223.0 267.6 224.1 266.9 224.4 L266.85 224.45 Q265.05 224.95 267.4 221.15 269.75 217.3 269.0 209.9 L268.75 207.85 Q267.8 203.0 264.7 198.2 L263.5 196.5 262.5 195.1 Q256.6 187.7 259.7 187.25 L260.2 187.2" fill="#fcf1da" fill-opacity="0.6" fill-rule="evenodd" stroke="none"/>
    <path d="M245.4 189.15 Q246.4 188.1 248.0 187.75 L250.5 187.7 Q251.25 187.85 251.95 188.3 253.8 189.45 254.3 191.6 254.85 193.7 253.75 195.6 252.6 197.45 250.45 197.95 248.3 198.45 246.45 197.35 244.6 196.2 244.1 194.1 243.75 192.6 244.15 191.25 L244.7 190.1 245.15 189.45 245.4 189.15 M268.2 213.55 Q268.55 214.95 267.8 216.15 267.1 217.3 265.7 217.65 264.35 218.0 263.15 217.25 261.95 216.55 261.65 215.2 261.4 214.2 261.7 213.35 L262.0 212.6 262.3 212.2 262.5 212.0 Q263.15 211.3 264.15 211.1 L265.75 211.05 266.7 211.45 Q267.85 212.15 268.2 213.55" fill="#8f8f05" fill-rule="evenodd" stroke="none"/>
    <path d="M250.5 187.7 L248.0 187.75 Q246.4 188.1 245.4 189.15 L245.25 189.0 245.15 189.45 244.7 190.1 244.15 191.25 Q243.05 192.65 241.25 193.15 239.05 193.6 237.15 192.45 235.25 191.3 234.75 189.2 234.2 186.95 235.35 185.05 236.55 183.15 238.7 182.65 240.85 182.1 242.75 183.25 244.15 184.1 244.85 185.5 L244.9 185.4 Q245.55 184.3 246.8 184.05 248.0 183.7 249.1 184.4 250.2 185.0 250.5 186.25 L250.5 187.7 M263.95 206.45 Q262.25 206.85 260.8 205.95 259.3 205.05 258.9 203.35 258.5 201.65 259.4 200.2 260.25 198.7 262.0 198.3 263.65 197.9 265.15 198.8 266.6 199.65 267.0 201.4 267.4 203.05 266.55 204.55 265.65 206.0 263.95 206.45 M259.65 212.85 Q259.15 213.65 258.2 213.9 257.25 214.1 256.4 213.6 255.6 213.1 255.35 212.15 255.1 211.2 255.65 210.4 256.15 209.55 257.1 209.3 258.05 209.05 258.85 209.6 259.7 210.05 259.95 211.05 260.15 212.0 259.65 212.85 M252.05 218.35 L253.2 218.55 Q253.75 218.85 253.9 219.5 L253.75 220.65 Q253.4 221.2 252.8 221.35 L251.6 221.2 Q251.05 220.85 250.9 220.2 250.75 219.6 251.1 219.05 251.4 218.5 252.05 218.35" fill="#7b7b04" fill-rule="evenodd" stroke="none"/>
    <path d="M291.9 168.05 Q294.45 166.1 297.45 165.05 299.8 164.15 302.25 165.0 305.5 166.05 307.85 168.6 311.65 172.6 314.35 177.6 317.05 182.5 318.9 187.9 320.9 193.5 321.95 199.35 322.9 205.1 322.15 210.85 321.45 215.9 319.25 220.55 316.95 225.45 312.6 228.9 308.0 232.5 302.1 233.15 296.2 233.8 290.5 232.35 284.85 231.0 280.5 227.05 276.1 223.1 274.55 217.45 273.05 211.85 273.35 206.0 273.55 200.6 274.85 195.4 276.05 190.15 278.4 185.5 280.95 180.45 284.4 175.95 287.8 171.55 291.9 168.05 M301.8 169.05 L297.5 169.15 Q294.85 170.05 292.6 171.8 288.95 174.9 285.95 178.8 282.85 182.8 280.6 187.3 278.5 191.45 277.4 196.1 276.3 200.75 276.1 205.5 275.85 210.75 277.2 215.7 278.55 220.75 282.45 224.25 286.3 227.75 291.35 228.95 296.4 230.25 301.65 229.7 306.9 229.1 311.0 225.9 314.85 222.85 316.9 218.45 318.85 214.35 319.45 209.85 320.15 204.75 319.3 199.65 318.35 194.45 316.6 189.45 314.95 184.65 312.55 180.25 310.15 175.85 306.8 172.25 304.7 170.0 301.8 169.05" fill="#029b9b" fill-rule="evenodd" stroke="none"/>
    <path d="M301.8 169.05 Q304.7 170.0 306.8 172.25 310.15 175.85 312.55 180.25 314.95 184.65 316.6 189.45 318.35 194.45 319.3 199.65 320.15 204.75 319.45 209.85 318.85 214.35 316.9 218.45 314.85 222.85 311.0 225.9 306.9 229.1 301.65 229.7 296.4 230.25 291.35 228.95 286.3 227.75 282.45 224.25 278.55 220.75 277.2 215.7 275.85 210.75 276.1 205.5 276.3 200.75 277.4 196.1 278.5 191.45 280.6 187.3 282.85 182.8 285.95 178.8 288.95 174.9 292.6 171.8 294.85 170.05 297.5 169.15 L301.8 169.05" fill="#016d6d" fill-rule="evenodd" stroke="none"/>
    <path d="M291.9 168.05 Q287.8 171.55 284.4 175.95 280.95 180.45 278.4 185.5 276.05 190.15 274.85 195.4 273.55 200.6 273.35 206.0 273.05 211.85 274.55 217.45 276.1 223.1 280.5 227.05 284.85 231.0 290.5 232.35 296.2 233.8 302.1 233.15 308.0 232.5 312.6 228.9 316.95 225.45 319.25 220.55 321.45 215.9 322.15 210.85 322.9 205.1 321.95 199.35 320.9 193.5 318.9 187.9 317.05 182.5 314.35 177.6 311.65 172.6 307.85 168.6 305.5 166.05 302.25 165.0 299.8 164.15 297.45 165.05 294.45 166.1 291.9 168.05 Z" fill="none" stroke="#000000" stroke-linecap="round" stroke-linejoin="round" stroke-opacity="0.5019608" stroke-width="0.25"/>
    <path d="M291.8 179.45 Q293.25 179.45 294.2 180.5 295.15 181.45 295.1 182.9 295.1 183.85 294.6 184.65 L294.1 185.3 293.75 185.6 293.5 185.75 291.65 186.2 290.1 185.8 289.3 185.15 Q288.3 184.15 288.35 182.75 288.4 181.3 289.4 180.35 290.4 179.4 291.8 179.45 M298.75 212.35 L297.5 211.35 Q296.0 209.8 296.1 207.6 296.1 205.35 297.7 203.9 299.25 202.4 301.5 202.45 303.65 202.5 305.15 204.05 306.65 205.6 306.6 207.8 306.55 209.35 305.8 210.55 L305.0 211.55 304.4 212.0 304.05 212.25 Q302.8 213.0 301.2 212.95 299.85 212.95 298.75 212.35" fill="#02c4c4" fill-rule="evenodd" stroke="none"/>
    <path d="M306.4 179.7 Q306.85 180.15 306.8 180.8 306.8 181.45 306.35 181.9 305.85 182.3 305.25 182.3 304.55 182.25 304.15 181.85 303.7 181.35 303.75 180.7 303.75 180.05 304.2 179.65 304.65 179.2 305.3 179.2 305.95 179.2 306.4 179.7 M287.65 191.9 Q288.85 190.7 290.65 190.75 292.35 190.75 293.55 192.05 294.75 193.25 294.7 195.0 294.65 196.75 293.4 197.95 292.15 199.15 290.4 199.1 288.65 199.05 287.5 197.8 286.3 196.55 286.35 194.8 286.4 193.05 287.65 191.9 M299.7 189.1 Q298.95 189.75 298.0 189.75 297.0 189.7 296.35 189.0 295.65 188.3 295.7 187.35 295.7 186.35 296.4 185.65 297.1 185.0 298.1 185.0 299.1 185.05 299.75 185.75 300.4 186.45 300.4 187.4 300.35 188.4 299.7 189.1 M305.8 210.55 Q307.25 209.45 309.1 209.45 311.3 209.55 312.9 211.2 314.45 212.8 314.4 215.0 314.3 217.25 312.7 218.8 311.05 220.35 308.85 220.25 306.65 220.25 305.1 218.65 303.95 217.45 303.65 215.9 L303.55 216.0 Q302.65 216.85 301.4 216.85 300.1 216.8 299.25 215.9 298.35 215.0 298.4 213.7 298.4 212.95 298.75 212.35 299.85 212.95 301.2 212.95 302.8 213.0 304.05 212.25 L304.15 212.4 304.4 212.0 305.0 211.55 305.8 210.55" fill="#02aeae" fill-rule="evenodd" stroke="none"/>
    <path d="M297.05 170.45 Q297.2 169.7 297.6 169.1 L298.0 168.6 Q299.6 166.9 302.85 167.85 306.1 168.75 309.0 171.75 311.1 173.8 312.2 176.1 L312.45 176.55 312.4 176.65 312.9 178.05 313.25 179.8 Q313.35 181.25 312.85 182.3 L312.25 183.15 Q310.9 184.55 308.4 184.15 L307.35 183.95 306.45 183.65 Q305.05 183.15 303.7 182.2 L302.65 181.4 301.2 180.1 300.75 179.6 300.0 178.7 298.95 177.3 298.85 177.15 Q298.0 175.8 297.55 174.45 L297.3 173.7 Q296.85 172.05 297.0 170.8 L297.05 170.45 M312.15 186.25 Q314.7 186.9 316.15 191.45 L316.4 192.25 Q317.4 195.75 317.5 200.1 L317.4 203.55 317.2 205.65 316.2 211.55 315.65 213.55 315.1 215.25 313.9 217.95 313.65 218.4 313.55 218.65 313.2 219.25 312.95 219.7 Q311.7 221.85 310.65 222.95 309.75 223.85 308.95 223.95 L308.9 223.95 Q307.0 224.05 310.3 220.95 313.6 217.85 314.8 210.5 L315.05 208.45 Q315.35 203.5 313.6 198.05 L312.9 196.1 312.25 194.5 Q308.5 185.85 311.65 186.2 L312.15 186.25" fill="#a3dada" fill-opacity="0.6" fill-rule="evenodd" stroke="none"/>
    <path d="M280.6 191.35 Q286.35 191.35 291.95 193.2 297.05 194.85 301.8 197.5 306.45 200.05 310.35 203.6 314.55 207.45 318.0 211.95 321.3 216.4 323.55 221.3 324.75 224.25 325.0 227.45 325.2 229.95 323.7 232.1 321.8 234.95 318.75 236.55 313.85 239.1 308.3 240.35 302.8 241.65 297.2 242.05 291.25 242.4 285.35 241.85 279.5 241.25 274.15 238.95 269.45 236.95 265.6 233.65 261.45 230.05 259.35 224.9 257.05 219.55 258.05 213.7 259.0 207.8 261.95 202.75 264.7 197.6 269.7 194.5 274.65 191.3 280.6 191.35 M265.3 205.0 Q262.8 209.35 262.0 214.35 261.15 219.3 263.1 223.9 264.9 228.3 268.45 231.35 271.7 234.15 275.7 235.85 280.25 237.8 285.25 238.3 290.25 238.8 295.35 238.5 300.15 238.15 304.8 237.05 309.5 236.0 313.7 233.85 316.3 232.45 317.9 230.0 319.15 228.2 319.0 226.05 318.8 223.35 317.8 220.8 315.85 216.65 313.05 212.9 310.1 209.0 306.55 205.75 303.25 202.7 299.25 200.55 295.2 198.3 290.85 196.9 286.1 195.3 281.2 195.3 276.15 195.3 271.9 198.0 267.65 200.65 265.3 205.0" fill="#a36c36" fill-rule="evenodd" stroke="none"/>
    <path d="M265.3 205.0 Q267.65 200.65 271.9 198.0 276.15 195.3 281.2 195.3 286.1 195.3 290.85 196.9 295.2 198.3 299.25 200.55 303.25 202.7 306.55 205.75 310.1 209.0 313.05 212.9 315.85 216.65 317.8 220.8 318.8 223.35 319.0 226.05 319.15 228.2 317.9 230.0 316.3 232.45 313.7 233.85 309.5 236.0 304.8 237.05 300.15 238.15 295.35 238.5 290.25 238.8 285.25 238.3 280.25 237.8 275.7 235.85 271.7 234.15 268.45 231.35 264.9 228.3 263.1 223.9 261.15 219.3 262.0 214.35 262.8 209.35 265.3 205.0" fill="#85582c" fill-rule="evenodd" stroke="none"/>
    <path d="M280.6 191.35 Q274.65 191.3 269.7 194.5 264.7 197.6 261.95 202.75 259.0 207.8 258.05 213.7 257.05 219.55 259.35 224.9 261.45 230.05 265.6 233.65 269.45 236.95 274.15 238.95 279.5 241.25 285.35 241.85 291.25 242.4 297.2 242.05 302.8 241.65 308.3 240.35 313.85 239.1 318.75 236.55 321.8 234.95 323.7 232.1 325.2 229.95 325.0 227.45 324.75 224.25 323.55 221.3 321.3 216.4 318.0 211.95 314.55 207.45 310.35 203.6 306.45 200.05 301.8 197.5 297.05 194.85 291.95 193.2 286.35 191.35 280.6 191.35 Z" fill="none" stroke="#000000" stroke-linecap="round" stroke-linejoin="round" stroke-opacity="0.6" stroke-width="0.6000000000000001"/>
    <path d="M278.5 205.25 Q279.1 205.25 279.6 205.7 280.05 206.15 280.05 206.8 280.05 207.45 279.6 207.9 279.1 208.35 278.5 208.35 277.85 208.35 277.4 207.9 276.9 207.45 276.95 206.8 276.9 206.15 277.4 205.7 277.85 205.25 278.5 205.25 M300.45 227.0 Q300.65 225.2 301.95 223.85 303.55 222.3 305.8 222.3 308.05 222.3 309.6 223.85 311.2 225.45 311.2 227.7 311.2 229.95 309.6 231.5 308.05 233.1 305.8 233.1 304.15 233.1 302.85 232.25 L302.85 232.4 Q302.85 233.65 301.95 234.55 301.05 235.45 299.8 235.45 298.55 235.45 297.65 234.55 297.1 234.0 296.9 233.35 298.05 232.95 299.0 232.0 300.15 230.85 300.5 229.45 L300.7 229.5 300.55 229.05 300.6 228.3 300.45 227.0 M276.65 214.95 Q277.35 214.25 278.3 214.25 279.25 214.25 279.95 214.95 280.65 215.65 280.65 216.6 280.65 217.55 279.95 218.3 279.25 218.95 278.3 218.95 277.35 218.95 276.65 218.3 275.95 217.55 275.95 216.6 275.95 215.65 276.65 214.95 M275.6 224.3 Q276.85 223.05 278.55 223.1 280.25 223.05 281.5 224.3 282.75 225.55 282.75 227.3 282.75 229.0 281.5 230.25 280.25 231.45 278.55 231.5 276.85 231.45 275.6 230.25 274.35 229.0 274.35 227.3 274.35 225.55 275.6 224.3" fill="#966a18" fill-rule="evenodd" stroke="none"/>
    <path d="M296.9 233.35 L295.3 233.6 Q293.15 233.55 291.6 232.0 290.0 230.45 290.0 228.3 290.0 226.1 291.6 224.55 293.15 222.95 295.3 223.0 297.45 222.95 299.0 224.55 300.1 225.6 300.45 227.0 L300.6 228.3 300.55 229.05 300.5 229.45 Q300.15 230.85 299.0 232.0 298.05 232.95 296.9 233.35 M274.05 218.05 L274.0 218.5 273.95 218.8 Q273.75 219.7 273.0 220.45 L271.65 221.3 270.65 221.45 Q269.25 221.45 268.25 220.45 267.2 219.4 267.25 218.05 267.2 216.65 268.25 215.65 269.25 214.6 270.65 214.65 272.0 214.6 273.0 215.65 273.7 216.3 273.95 217.2 L274.05 218.05" fill="#b17d1d" fill-rule="evenodd" stroke="none"/>
    <path d="M271.35 201.25 Q270.85 200.65 270.7 200.0 L270.55 199.35 Q270.3 197.0 273.15 195.2 275.95 193.3 280.15 193.05 L285.5 193.45 286.0 193.55 286.1 193.65 287.5 194.2 289.05 195.05 Q290.2 195.9 290.65 197.0 L290.9 198.0 Q291.1 199.95 289.2 201.6 L288.35 202.3 287.5 202.8 Q286.2 203.5 284.65 203.9 L283.3 204.15 281.4 204.4 280.7 204.4 279.55 204.4 277.8 204.3 277.65 204.3 274.7 203.5 273.95 203.2 Q272.4 202.45 271.6 201.55 L271.35 201.25" fill="#d6c09a" fill-opacity="0.6" fill-rule="evenodd" stroke="none"/>
    <path d="M293.2 200.15 Q295.4 198.6 299.8 200.45 L300.5 200.8 Q303.9 202.35 307.25 205.1 L309.8 207.45 311.25 208.95 315.05 213.55 316.25 215.3 317.15 216.85 318.45 219.5 318.65 219.95 318.75 220.2 319.0 220.85 319.15 221.35 Q320.0 223.7 320.1 225.2 320.2 226.5 319.8 227.15 L319.75 227.2 Q318.55 228.7 318.35 224.2 318.15 219.65 313.35 213.95 L311.95 212.4 Q308.45 208.9 303.15 206.7 L301.2 206.0 299.55 205.4 Q290.5 202.6 292.85 200.45 L293.2 200.15" fill="#fcf1da" fill-opacity="0.6" fill-rule="evenodd" stroke="none"/>
  </g>
</svg>
