<?xml version="1.0" encoding="UTF-8" standalone="no"?>
<svg xmlns:xlink="http://www.w3.org/1999/xlink" height="123.5px" width="53.95px" xmlns="http://www.w3.org/2000/svg">
  <g transform="matrix(1.0, 0.0, 0.0, 1.0, -248.05, -138.2)">
    <path d="M279.7 213.4 L279.6 213.3 279.2 213.55 278.35 214.05 277.75 214.35 288.95 225.85 283.75 216.85 282.5 215.75 282.35 215.65 281.55 215.0 281.05 214.55 279.7 213.4" fill="url(#gradient0)" fill-rule="evenodd" stroke="none"/>
    <path d="M279.2 213.55 L279.6 213.3 279.7 213.4 281.05 214.55 281.55 215.0 282.35 215.65 282.5 215.75 283.75 216.85 282.85 215.2 281.75 213.3 279.55 211.9 280.85 212.05 281.85 212.15 282.65 212.25 281.9 211.35 277.35 210.45 275.65 209.3 277.75 214.35 278.35 214.05 279.2 213.55 M277.35 210.45 L279.55 211.9 277.35 210.45" fill="#5f83be" fill-rule="evenodd" stroke="none"/>
    <path d="M281.85 212.15 L280.85 212.05 279.55 211.9 281.75 213.3 282.85 215.2 286.6 217.1 282.65 212.25 281.85 212.15" fill="url(#gradient1)" fill-rule="evenodd" stroke="none"/>
    <path d="M279.2 213.55 L279.6 213.3 279.7 213.4 M281.05 214.55 L281.55 215.0 M282.35 215.65 L282.5 215.75 M277.75 214.35 L278.35 214.05 M281.85 212.15 L282.65 212.25 M279.55 211.9 L280.85 212.05" fill="none" stroke="#d8fbfc" stroke-linecap="round" stroke-linejoin="round" stroke-width="0.05"/>
    <path d="M283.75 216.85 L288.95 225.85 277.75 214.35 275.65 209.3 277.35 210.45 281.9 211.35 282.65 212.25 286.6 217.1 282.85 215.2 281.75 213.3 279.55 211.9 277.35 210.45 M283.75 216.85 L282.85 215.2" fill="none" stroke="#000000" stroke-linecap="round" stroke-linejoin="round" stroke-opacity="0.2627451" stroke-width="0.05"/>
    <path d="M270.75 213.4 L270.85 213.3 271.25 213.55 272.1 214.05 272.7 214.35 261.5 225.85 266.7 216.85 267.95 215.75 268.1 215.65 268.9 215.0 269.4 214.55 270.75 213.4" fill="url(#gradient2)" fill-rule="evenodd" stroke="none"/>
    <path d="M271.25 213.55 L270.85 213.3 270.75 213.4 269.4 214.55 268.9 215.0 268.1 215.65 267.95 215.75 266.7 216.85 267.6 215.2 268.7 213.3 270.9 211.9 269.6 212.05 268.6 212.15 267.8 212.25 268.55 211.35 273.1 210.45 274.8 209.3 272.7 214.35 272.1 214.05 271.25 213.55 M273.1 210.45 L270.9 211.9 273.1 210.45" fill="#5f83be" fill-rule="evenodd" stroke="none"/>
    <path d="M268.6 212.15 L269.6 212.05 270.9 211.9 268.7 213.3 267.6 215.2 263.85 217.1 267.8 212.25 268.6 212.15" fill="url(#gradient3)" fill-rule="evenodd" stroke="none"/>
    <path d="M271.25 213.55 L270.85 213.3 270.75 213.4 M269.4 214.55 L268.9 215.0 M268.1 215.65 L267.95 215.75 M272.7 214.35 L272.1 214.05 M268.6 212.15 L267.8 212.25 M270.9 211.9 L269.6 212.05" fill="none" stroke="#d8fbfc" stroke-linecap="round" stroke-linejoin="round" stroke-width="0.05"/>
    <path d="M266.7 216.85 L261.5 225.85 272.7 214.35 274.8 209.3 273.1 210.45 268.55 211.35 267.8 212.25 263.85 217.1 267.6 215.2 268.7 213.3 270.9 211.9 273.1 210.45 M266.7 216.85 L267.6 215.2" fill="none" stroke="#000000" stroke-linecap="round" stroke-linejoin="round" stroke-opacity="0.2627451" stroke-width="0.05"/>
    <path d="M279.3 206.0 L279.2 206.1 278.8 205.85 277.95 205.35 277.35 205.05 288.55 193.55 283.35 202.55 282.1 203.65 281.95 203.75 281.15 204.4 280.65 204.85 279.3 206.0" fill="url(#gradient4)" fill-rule="evenodd" stroke="none"/>
    <path d="M278.8 205.85 L279.2 206.1 279.3 206.0 280.65 204.85 281.15 204.4 281.95 203.75 282.1 203.65 283.35 202.55 282.45 204.2 281.35 206.1 279.15 207.5 280.45 207.35 281.45 207.25 282.25 207.15 281.5 208.05 276.95 208.95 275.25 210.1 277.35 205.05 277.95 205.35 278.8 205.85 M276.95 208.95 L279.15 207.5 276.95 208.95" fill="#5f83be" fill-rule="evenodd" stroke="none"/>
    <path d="M281.45 207.25 L280.45 207.35 279.15 207.5 281.35 206.1 282.45 204.2 286.2 202.3 282.25 207.15 281.45 207.25" fill="url(#gradient5)" fill-rule="evenodd" stroke="none"/>
    <path d="M278.8 205.85 L279.2 206.1 279.3 206.0 M280.65 204.85 L281.15 204.4 M281.95 203.75 L282.1 203.65 M277.35 205.05 L277.95 205.35 M281.45 207.25 L282.25 207.15 M279.15 207.5 L280.45 207.35" fill="none" stroke="#d8fbfc" stroke-linecap="round" stroke-linejoin="round" stroke-width="0.05"/>
    <path d="M283.35 202.55 L288.55 193.55 277.35 205.05 275.25 210.1 276.95 208.95 281.5 208.05 282.25 207.15 286.2 202.3 282.45 204.2 281.35 206.1 279.15 207.5 276.95 208.95 M283.35 202.55 L282.45 204.2" fill="none" stroke="#000000" stroke-linecap="round" stroke-linejoin="round" stroke-opacity="0.2627451" stroke-width="0.05"/>
    <path d="M283.85 211.65 L283.6 211.5 282.8 211.8 281.1 212.55 280.0 213.0 302.0 229.65 291.85 216.6 289.35 215.05 289.05 214.85 287.5 213.9 286.5 213.3 283.85 211.65" fill="url(#gradient6)" fill-rule="evenodd" stroke="none"/>
    <path d="M282.8 211.8 L283.6 211.5 283.85 211.65 286.5 213.3 287.5 213.9 289.05 214.85 289.35 215.05 291.85 216.6 290.0 214.2 287.85 211.5 283.55 209.45 286.1 209.65 288.05 209.85 289.7 210.0 288.2 208.65 279.2 207.35 275.8 205.75 280.0 213.0 281.1 212.55 282.8 211.8 M279.2 207.35 L283.55 209.45 279.2 207.35" fill="#5f83be" fill-rule="evenodd" stroke="none"/>
    <path d="M288.05 209.85 L286.1 209.65 283.55 209.45 287.85 211.5 290.0 214.2 297.4 217.0 289.7 210.0 288.05 209.85" fill="url(#gradient7)" fill-rule="evenodd" stroke="none"/>
    <path d="M282.8 211.8 L283.6 211.5 283.85 211.65 M286.5 213.3 L287.5 213.9 M289.05 214.85 L289.35 215.05 M280.0 213.0 L281.1 212.55 M288.05 209.85 L289.7 210.0 M283.55 209.45 L286.1 209.65" fill="none" stroke="#d8fbfc" stroke-linecap="round" stroke-linejoin="round" stroke-width="0.05"/>
    <path d="M291.85 216.6 L302.0 229.65 280.0 213.0 275.8 205.75 279.2 207.35 288.2 208.65 289.7 210.0 297.4 217.0 290.0 214.2 287.85 211.5 283.55 209.45 279.2 207.35 M291.85 216.6 L290.0 214.2" fill="none" stroke="#000000" stroke-linecap="round" stroke-linejoin="round" stroke-opacity="0.2627451" stroke-width="0.05"/>
    <path d="M269.25 206.2 L269.35 206.3 269.75 206.05 270.6 205.55 271.2 205.25 260.0 193.75 265.2 202.75 266.45 203.85 266.6 203.95 267.4 204.6 267.9 205.05 269.25 206.2" fill="url(#gradient8)" fill-rule="evenodd" stroke="none"/>
    <path d="M269.75 206.05 L269.35 206.3 269.25 206.2 267.9 205.05 267.4 204.6 266.6 203.95 266.45 203.85 265.2 202.75 266.1 204.4 267.2 206.3 269.4 207.7 268.1 207.55 267.1 207.45 266.3 207.35 267.05 208.25 271.6 209.15 273.3 210.3 271.2 205.25 270.6 205.55 269.75 206.05 M271.6 209.15 L269.4 207.7 271.6 209.15" fill="#5f83be" fill-rule="evenodd" stroke="none"/>
    <path d="M267.1 207.45 L268.1 207.55 269.4 207.7 267.2 206.3 266.1 204.4 262.35 202.5 266.3 207.35 267.1 207.45" fill="url(#gradient9)" fill-rule="evenodd" stroke="none"/>
    <path d="M269.75 206.05 L269.35 206.3 269.25 206.2 M267.9 205.05 L267.4 204.6 M266.6 203.95 L266.45 203.85 M271.2 205.25 L270.6 205.55 M267.1 207.45 L266.3 207.35 M269.4 207.7 L268.1 207.55" fill="none" stroke="#d8fbfc" stroke-linecap="round" stroke-linejoin="round" stroke-width="0.05"/>
    <path d="M265.2 202.75 L260.0 193.75 271.2 205.25 273.3 210.3 271.6 209.15 267.05 208.25 266.3 207.35 262.35 202.5 266.1 204.4 267.2 206.3 269.4 207.7 271.6 209.15 M265.2 202.75 L266.1 204.4" fill="none" stroke="#000000" stroke-linecap="round" stroke-linejoin="round" stroke-opacity="0.2627451" stroke-width="0.05"/>
    <path d="M266.2 211.65 L266.45 211.5 267.25 211.8 268.95 212.55 270.05 213.0 248.05 229.65 258.2 216.6 260.7 215.05 261.0 214.85 262.55 213.9 263.55 213.3 266.2 211.65" fill="url(#gradient10)" fill-rule="evenodd" stroke="none"/>
    <path d="M267.25 211.8 L266.45 211.5 266.2 211.65 263.55 213.3 262.55 213.9 261.0 214.85 260.7 215.05 258.2 216.6 260.05 214.2 262.2 211.5 266.5 209.45 263.95 209.65 262.0 209.85 260.35 210.0 261.85 208.65 270.85 207.35 274.25 205.75 270.05 213.0 268.95 212.55 267.25 211.8 M270.85 207.35 L266.5 209.45 270.85 207.35" fill="#5f83be" fill-rule="evenodd" stroke="none"/>
    <path d="M262.0 209.85 L263.95 209.65 266.5 209.45 262.2 211.5 260.05 214.2 252.65 217.0 260.35 210.0 262.0 209.85" fill="url(#gradient11)" fill-rule="evenodd" stroke="none"/>
    <path d="M267.25 211.8 L266.45 211.5 266.2 211.65 M263.55 213.3 L262.55 213.9 M261.0 214.85 L260.7 215.05 M270.05 213.0 L268.95 212.55 M262.0 209.85 L260.35 210.0 M266.5 209.45 L263.95 209.65" fill="none" stroke="#d8fbfc" stroke-linecap="round" stroke-linejoin="round" stroke-width="0.05"/>
    <path d="M258.2 216.6 L248.05 229.65 270.05 213.0 274.25 205.75 270.85 207.35 261.85 208.65 260.35 210.0 252.65 217.0 260.05 214.2 262.2 211.5 266.5 209.45 270.85 207.35 M258.2 216.6 L260.05 214.2" fill="none" stroke="#000000" stroke-linecap="round" stroke-linejoin="round" stroke-opacity="0.2627451" stroke-width="0.05"/>
    <path d="M281.0 204.7 L281.25 206.6 272.95 206.75 Q266.1 199.4 265.1 191.7 270.55 197.85 273.8 194.5 277.0 191.15 274.75 184.9 270.55 181.65 268.05 181.95 L268.05 179.6 Q267.55 165.15 275.2 156.25 L276.25 155.15 275.8 158.3 Q275.5 160.95 275.75 162.7 275.9 163.8 276.2 164.55 278.25 171.75 283.25 163.75 L284.4 161.8 284.45 161.6 284.5 161.45 284.6 161.25 Q287.5 153.6 280.4 138.2 293.75 148.6 295.4 158.7 276.05 178.25 281.0 204.7" fill="url(#gradient12)" fill-rule="evenodd" stroke="none"/>
    <path d="M265.1 191.7 Q266.1 199.4 272.95 206.75 L271.35 206.8 Q264.75 199.05 265.1 191.7" fill="url(#gradient13)" fill-rule="evenodd" stroke="none"/>
    <path d="M274.75 184.9 Q277.0 191.15 273.8 194.5 270.55 197.85 265.1 191.7 270.9 198.0 274.45 191.7 275.8 188.75 274.75 184.9" fill="url(#gradient14)" fill-rule="evenodd" stroke="none"/>
    <path d="M268.05 181.95 Q270.55 181.65 274.75 184.9 268.7 181.85 266.55 183.6 L268.05 181.95" fill="url(#gradient15)" fill-rule="evenodd" stroke="none"/>
    <path d="M275.2 156.25 Q267.55 165.15 268.05 179.6 L268.05 181.95 266.55 183.6 Q265.05 167.35 275.2 156.25" fill="url(#gradient16)" fill-rule="evenodd" stroke="none"/>
    <path d="M295.4 158.7 Q293.75 148.6 280.4 138.2 291.1 143.3 297.8 158.7 L295.4 158.7" fill="url(#gradient17)" fill-rule="evenodd" stroke="none"/>
    <path d="M281.0 204.7 Q276.05 178.25 295.4 158.7 L297.8 158.7 Q278.3 174.6 281.0 204.7" fill="url(#gradient18)" fill-rule="evenodd" stroke="none"/>
    <path d="M272.95 206.75 L281.25 206.6 281.0 204.7 Q276.05 178.25 295.4 158.7 293.75 148.6 280.4 138.2 287.5 153.6 284.6 161.25 L284.5 161.45 284.45 161.6 284.4 161.8 283.25 163.75 Q278.25 171.75 276.2 164.55 275.9 163.8 275.75 162.7 275.5 160.95 275.8 158.3 L276.25 155.15 275.2 156.25 Q267.55 165.15 268.05 179.6 L268.05 181.95 Q270.55 181.65 274.75 184.9 277.0 191.15 273.8 194.5 270.55 197.85 265.1 191.7 266.1 199.4 272.95 206.75 L271.35 206.8 Q264.75 199.05 265.1 191.7 270.9 198.0 274.45 191.7 275.8 188.75 274.75 184.9 268.7 181.85 266.55 183.6 265.05 167.35 275.2 156.25 M266.55 183.6 L268.05 181.95 M276.2 164.55 Q277.2 167.15 280.15 166.5 282.0 165.4 283.25 163.75 M275.75 162.7 L275.8 158.3 M297.8 158.7 Q291.1 143.3 280.4 138.2 M297.8 158.7 L295.4 158.7 M281.0 204.7 Q278.3 174.6 297.8 158.7" fill="none" stroke="#000000" stroke-linecap="round" stroke-linejoin="round" stroke-opacity="0.2627451" stroke-width="0.05"/>
    <path d="M274.75 232.5 L273.15 236.05 272.55 235.7 270.2 234.2 272.75 236.8 274.75 237.45 274.75 232.5 M272.05 229.75 L272.6 225.45 272.9 222.95 270.9 221.55 269.3 216.9 268.75 217.9 269.15 221.55 271.35 223.25 271.35 231.05 271.7 232.15 272.0 230.1 272.05 229.75" fill="#82a4cc" fill-rule="evenodd" stroke="none"/>
    <path d="M272.55 235.7 L273.15 236.05 274.75 232.5 275.85 230.0 274.7 228.4 272.6 225.45 272.05 229.75 273.7 230.7 273.7 230.85 272.55 235.7 M271.5 231.95 L271.7 232.15 271.35 231.05 270.95 229.95 269.1 228.5 269.1 231.85 270.1 230.8 271.5 231.95 M267.25 227.0 L269.8 226.9 268.7 223.8 267.25 227.0 M271.5 220.55 L270.9 221.55 273.8 220.85 276.65 221.95 275.65 220.4 275.05 219.55 273.45 217.1 271.5 220.55 273.45 217.1 273.05 216.55 271.8 214.75 271.15 213.8 270.5 214.95 266.95 216.45 269.9 215.9 269.75 216.2 269.3 216.9 271.5 216.75 271.5 220.55 M276.8 217.6 L272.9 215.15 271.8 214.75 273.05 216.55 276.8 217.6 M270.5 214.95 L269.9 215.9 270.5 214.95" fill="#5f83be" fill-rule="evenodd" stroke="none"/>
    <path d="M274.25 237.55 L272.6 237.1 270.6 235.3 272.6 237.1 274.25 237.55 M274.75 237.45 L272.75 236.8 270.2 234.2 270.6 235.3 273.05 241.75 274.75 237.45" fill="url(#gradient19)" fill-rule="evenodd" stroke="none"/>
    <path d="M270.2 234.2 L272.55 235.7 273.7 230.85 273.4 230.7 272.0 230.1 271.7 232.15 271.5 231.95 270.1 231.1 269.1 232.0 269.1 233.45 270.2 234.15 270.2 234.2 M272.35 235.2 L273.4 230.7 272.35 235.2" fill="url(#gradient20)" fill-rule="evenodd" stroke="none"/>
    <path d="M273.7 230.85 L273.7 230.7 272.05 229.75 272.0 230.1 273.4 230.7 273.7 230.85 M271.5 231.95 L270.1 230.8 269.1 231.85 269.1 232.0 270.1 231.1 271.5 231.95 M270.95 229.95 L271.35 231.05 271.35 223.25 269.15 221.55 268.75 217.9 268.2 218.85 268.7 221.6 271.0 223.3 270.95 229.95 M270.2 234.15 L270.2 234.2 270.2 234.15 M267.45 227.15 L269.85 227.0 269.8 226.9 267.25 227.0 267.45 227.15 M270.9 221.55 L271.5 220.55 271.5 216.75 269.3 216.9 270.9 221.55 M270.95 220.3 L270.95 217.05 269.9 217.05 270.95 217.05 270.95 220.3" fill="#b6e9fb" fill-rule="evenodd" stroke="none"/>
    <path d="M269.1 228.5 L270.95 229.95 269.85 227.0 267.45 227.15 269.1 228.5" fill="url(#gradient21)" fill-rule="evenodd" stroke="none"/>
    <path d="M269.8 226.9 L269.85 227.0 270.95 229.95 271.0 223.3 268.7 221.6 268.2 218.85 267.45 220.2 268.7 223.8 269.8 226.9" fill="url(#gradient22)" fill-rule="evenodd" stroke="none"/>
    <path d="M272.6 225.45 L274.7 228.4 276.65 221.95 273.8 220.85 270.9 221.55 272.9 222.95 272.6 225.45 M275.9 222.05 L273.6 221.15 271.55 221.6 273.6 221.15 275.9 222.05 M273.05 225.4 L274.6 227.7 273.05 225.4" fill="url(#gradient23)" fill-rule="evenodd" stroke="none"/>
    <path d="M273.45 217.1 L275.05 219.55 275.65 220.4 276.8 217.6 273.05 216.55 273.45 217.1 M275.85 217.7 L273.85 217.0 275.05 219.55 273.85 217.0 275.85 217.7" fill="url(#gradient24)" fill-rule="evenodd" stroke="none"/>
    <path d="M268.2 218.85 L268.75 217.9 269.3 216.9 269.75 216.2 267.4 216.55 269.75 216.2 269.9 215.9 266.95 216.45 268.2 218.85" fill="url(#gradient25)" fill-rule="evenodd" stroke="none"/>
    <path d="M272.55 235.7 L273.15 236.05 274.75 232.5 274.75 237.45 273.05 241.75 270.6 235.3 270.2 234.2 272.55 235.7 M272.05 229.75 L272.6 225.45 274.7 228.4 275.85 230.0 274.75 232.5 M269.1 231.85 L269.1 228.5 270.95 229.95 271.35 231.05 271.7 232.15 272.0 230.1 272.05 229.75 M270.2 234.2 L270.2 234.15 270.2 234.2 M269.1 232.0 L269.1 233.45 270.2 234.15 M269.1 231.85 L269.1 232.0 M267.45 227.15 L267.25 227.0 268.7 223.8 269.8 226.9 269.85 227.0 270.95 229.95 M268.2 218.85 L268.75 217.9 269.3 216.9 270.9 221.55 271.5 220.55 273.45 217.1 275.05 219.55 275.65 220.4 276.65 221.95 274.7 228.4 M270.9 221.55 L272.9 222.95 272.6 225.45 M268.2 218.85 L267.45 220.2 268.7 223.8 M267.45 227.15 L269.1 228.5 M269.75 216.2 L269.3 216.9 M269.9 215.9 L269.75 216.2 M273.05 216.55 L273.45 217.1 M266.95 216.45 L268.2 218.85 M276.8 217.6 L272.9 215.15 271.8 214.75 271.15 213.8 270.5 214.95 266.95 216.45 M269.9 215.9 L270.5 214.95 M271.8 214.75 L273.05 216.55 M276.8 217.6 L275.65 220.4" fill="none" stroke="#000000" stroke-linecap="round" stroke-linejoin="round" stroke-opacity="0.2509804" stroke-width="0.05"/>
    <path d="M270.6 235.3 L272.6 237.1 274.25 237.55 M272.0 230.1 L273.4 230.7 272.35 235.2 M269.1 232.0 L270.1 231.1 271.5 231.95 M273.7 230.85 L273.4 230.7 M269.85 227.0 L267.45 227.15 M270.95 229.95 L271.0 223.3 268.7 221.6 268.2 218.85 M271.55 221.6 L273.6 221.15 275.9 222.05 M274.6 227.7 L273.05 225.4 M267.4 216.55 L269.75 216.2 M269.9 217.05 L270.95 217.05 270.95 220.3 M275.05 219.55 L273.85 217.0 275.85 217.7" fill="none" stroke="#ffffff" stroke-linecap="round" stroke-linejoin="round" stroke-width="0.05"/>
    <path d="M277.5 227.95 Q277.5 227.2 276.25 226.65 274.95 226.1 273.15 226.1 271.35 226.1 270.05 226.65 268.8 227.2 268.8 227.95 268.8 228.7 270.05 229.25 271.35 229.8 273.15 229.8 274.95 229.8 276.25 229.25 277.5 228.7 277.5 227.95" fill="url(#gradient26)" fill-rule="evenodd" stroke="none"/>
    <path d="M275.8 232.5 L277.4 236.05 278.0 235.7 280.35 234.2 277.8 236.8 275.8 237.45 275.8 232.5 M278.5 229.75 L277.95 225.45 277.65 222.95 279.65 221.55 281.25 216.9 281.8 217.9 281.4 221.55 279.2 223.25 279.2 231.05 278.85 232.15 278.55 230.1 278.5 229.75" fill="#82a4cc" fill-rule="evenodd" stroke="none"/>
    <path d="M278.0 235.7 L277.4 236.05 275.8 232.5 274.7 230.0 275.85 228.4 277.95 225.45 278.5 229.75 276.85 230.7 276.85 230.85 278.0 235.7 M279.05 231.95 L278.85 232.15 279.2 231.05 279.6 229.95 281.45 228.5 281.45 231.85 280.45 230.8 279.05 231.95 M280.75 226.9 L281.85 223.8 283.3 227.0 280.75 226.9 M283.6 216.45 L280.65 215.9 280.8 216.2 281.25 216.9 279.05 216.75 279.05 220.55 279.65 221.55 276.75 220.85 273.9 221.95 274.9 220.4 275.5 219.55 277.1 217.1 277.5 216.55 278.75 214.75 277.5 216.55 273.75 217.6 277.65 215.15 278.75 214.75 279.4 213.8 280.05 214.95 283.6 216.45 M277.1 217.1 L279.05 220.55 277.1 217.1 M280.05 214.95 L280.65 215.9 280.05 214.95" fill="#5f83be" fill-rule="evenodd" stroke="none"/>
    <path d="M275.8 237.45 L277.8 236.8 280.35 234.2 279.95 235.3 277.5 241.75 275.8 237.45 M276.3 237.55 L277.95 237.1 279.95 235.3 277.95 237.1 276.3 237.55" fill="url(#gradient27)" fill-rule="evenodd" stroke="none"/>
    <path d="M280.35 234.2 L278.0 235.7 276.85 230.85 277.15 230.7 278.55 230.1 278.85 232.15 279.05 231.95 280.45 231.1 281.45 232.0 281.45 233.45 280.35 234.15 280.35 234.2 M278.2 235.2 L277.15 230.7 278.2 235.2" fill="url(#gradient28)" fill-rule="evenodd" stroke="none"/>
    <path d="M276.85 230.85 L276.85 230.7 278.5 229.75 278.55 230.1 277.15 230.7 276.85 230.85 M280.35 234.2 L280.35 234.15 280.35 234.2 M281.45 232.0 L280.45 231.1 279.05 231.95 280.45 230.8 281.45 231.85 281.45 232.0 M279.6 229.95 L279.2 231.05 279.2 223.25 281.4 221.55 281.8 217.9 282.35 218.85 281.85 221.6 279.55 223.3 279.6 229.95 M283.1 227.15 L280.7 227.0 280.75 226.9 283.3 227.0 283.1 227.15 M279.65 221.55 L279.05 220.55 279.05 216.75 281.25 216.9 279.65 221.55 M279.6 220.3 L279.6 217.05 280.65 217.05 279.6 217.05 279.6 220.3" fill="#b6e9fb" fill-rule="evenodd" stroke="none"/>
    <path d="M281.45 228.5 L279.6 229.95 280.7 227.0 283.1 227.15 281.45 228.5" fill="url(#gradient29)" fill-rule="evenodd" stroke="none"/>
    <path d="M280.7 227.0 L279.6 229.95 279.55 223.3 281.85 221.6 282.35 218.85 283.1 220.2 281.85 223.8 280.75 226.9 280.7 227.0" fill="url(#gradient30)" fill-rule="evenodd" stroke="none"/>
    <path d="M277.95 225.45 L275.85 228.4 273.9 221.95 276.75 220.85 279.65 221.55 277.65 222.95 277.95 225.45 M277.5 225.4 L275.95 227.7 277.5 225.4 M274.65 222.05 L276.95 221.15 279.0 221.6 276.95 221.15 274.65 222.05" fill="url(#gradient31)" fill-rule="evenodd" stroke="none"/>
    <path d="M277.1 217.1 L275.5 219.55 274.9 220.4 273.75 217.6 277.5 216.55 277.1 217.1 M274.7 217.7 L276.7 217.0 275.5 219.55 276.7 217.0 274.7 217.7" fill="url(#gradient32)" fill-rule="evenodd" stroke="none"/>
    <path d="M282.35 218.85 L281.8 217.9 281.25 216.9 280.8 216.2 280.65 215.9 283.6 216.45 282.35 218.85 M283.15 216.55 L280.8 216.2 283.15 216.55" fill="url(#gradient33)" fill-rule="evenodd" stroke="none"/>
    <path d="M278.0 235.7 L277.4 236.05 275.8 232.5 275.8 237.45 277.5 241.75 279.95 235.3 280.35 234.2 278.0 235.7 M278.5 229.75 L277.95 225.45 275.85 228.4 274.7 230.0 275.8 232.5 M280.35 234.15 L280.35 234.2 280.35 234.15 281.45 233.45 281.45 232.0 281.45 231.85 281.45 228.5 283.1 227.15 283.3 227.0 281.85 223.8 283.1 220.2 282.35 218.85 283.6 216.45 280.05 214.95 279.4 213.8 278.75 214.75 277.5 216.55 277.1 217.1 275.5 219.55 274.9 220.4 273.9 221.95 275.85 228.4 M278.85 232.15 L278.55 230.1 278.5 229.75 M281.45 228.5 L279.6 229.95 279.2 231.05 278.85 232.15 M280.7 227.0 L279.6 229.95 M282.35 218.85 L281.8 217.9 281.25 216.9 279.65 221.55 277.65 222.95 277.95 225.45 M281.85 223.8 L280.75 226.9 280.7 227.0 M280.65 215.9 L280.8 216.2 281.25 216.9 M279.65 221.55 L279.05 220.55 277.1 217.1 M273.75 217.6 L277.65 215.15 278.75 214.75 M273.75 217.6 L274.9 220.4 M280.65 215.9 L280.05 214.95" fill="none" stroke="#000000" stroke-linecap="round" stroke-linejoin="round" stroke-opacity="0.2509804" stroke-width="0.05"/>
    <path d="M279.95 235.3 L277.95 237.1 276.3 237.55 M281.45 232.0 L280.45 231.1 279.05 231.95 M278.55 230.1 L277.15 230.7 278.2 235.2 M276.85 230.85 L277.15 230.7 M283.1 227.15 L280.7 227.0 M279.6 229.95 L279.55 223.3 281.85 221.6 282.35 218.85 M280.8 216.2 L283.15 216.55 M279.0 221.6 L276.95 221.15 274.65 222.05 M275.95 227.7 L277.5 225.4 M280.65 217.05 L279.6 217.05 279.6 220.3 M275.5 219.55 L276.7 217.0 274.7 217.7" fill="none" stroke="#ffffff" stroke-linecap="round" stroke-linejoin="round" stroke-width="0.05"/>
    <path d="M273.05 227.95 Q273.05 227.2 274.3 226.65 275.6 226.1 277.4 226.1 279.2 226.1 280.5 226.65 281.75 227.2 281.75 227.95 281.75 228.7 280.5 229.25 L277.4 229.8 274.3 229.25 Q273.05 228.7 273.05 227.95" fill="url(#gradient34)" fill-rule="evenodd" stroke="none"/>
    <path d="M273.8 245.6 L275.4 251.8 276.0 251.15 278.35 248.55 275.8 253.1 273.8 254.2 273.8 245.6 M276.5 240.9 L275.95 233.4 275.65 229.05 277.65 226.65 279.25 218.6 279.8 220.3 279.4 226.65 277.2 229.65 277.2 243.1 276.85 245.0 276.55 241.45 276.5 240.9" fill="#82a4cc" fill-rule="evenodd" stroke="none"/>
    <path d="M276.0 251.15 L275.4 251.8 273.8 245.6 272.7 241.35 273.85 238.55 275.95 233.4 276.5 240.9 274.85 242.5 274.85 242.75 276.0 251.15 M277.05 244.65 L276.85 245.0 277.2 243.1 277.6 241.2 279.45 238.65 279.45 244.55 278.45 242.65 277.05 244.65 M281.3 236.1 L278.75 235.9 279.85 230.55 281.3 236.1 M277.05 224.9 L277.65 226.65 274.75 225.4 271.9 227.3 272.9 224.65 273.5 223.2 275.1 218.95 277.05 224.9 275.1 218.95 275.5 218.0 276.75 214.85 277.4 213.25 278.05 215.2 281.6 217.85 278.65 216.9 278.8 217.4 279.25 218.6 277.05 218.35 277.05 224.9 M271.75 219.75 L275.65 215.6 276.75 214.85 275.5 218.0 271.75 219.75 M278.05 215.2 L278.65 216.9 278.05 215.2" fill="#5f83be" fill-rule="evenodd" stroke="none"/>
    <path d="M274.3 254.4 L275.95 253.6 277.95 250.45 275.95 253.6 274.3 254.4 M273.8 254.2 L275.8 253.1 278.35 248.55 277.95 250.45 275.5 261.7 273.8 254.2" fill="url(#gradient35)" fill-rule="evenodd" stroke="none"/>
    <path d="M278.35 248.55 L276.0 251.15 274.85 242.75 275.15 242.5 276.55 241.45 276.85 245.0 277.05 244.65 278.45 243.25 279.45 244.75 279.45 247.3 278.35 248.5 278.35 248.55 M276.2 250.25 L275.15 242.5 276.2 250.25" fill="url(#gradient36)" fill-rule="evenodd" stroke="none"/>
    <path d="M274.85 242.75 L274.85 242.5 276.5 240.9 276.55 241.45 275.15 242.5 274.85 242.75 M277.05 244.65 L278.45 242.65 279.45 244.55 279.45 244.75 278.45 243.25 277.05 244.65 M277.6 241.2 L277.2 243.1 277.2 229.65 279.4 226.65 279.8 220.3 280.35 222.0 279.85 226.8 277.55 229.65 277.6 241.2 M278.35 248.5 L278.35 248.55 278.35 248.5 M281.1 236.35 L278.7 236.1 278.75 235.9 281.3 236.1 281.1 236.35 M277.65 226.65 L277.05 224.9 277.05 218.35 279.25 218.6 277.65 226.65 M277.6 224.45 L277.6 218.85 278.65 218.85 277.6 218.85 277.6 224.45" fill="#b6e9fb" fill-rule="evenodd" stroke="none"/>
    <path d="M279.45 238.65 L277.6 241.2 278.7 236.1 281.1 236.35 279.45 238.65" fill="url(#gradient37)" fill-rule="evenodd" stroke="none"/>
    <path d="M278.75 235.9 L278.7 236.1 277.6 241.2 277.55 229.65 279.85 226.8 280.35 222.0 281.1 224.3 279.85 230.55 278.75 235.9" fill="url(#gradient38)" fill-rule="evenodd" stroke="none"/>
    <path d="M275.95 233.4 L273.85 238.55 271.9 227.3 274.75 225.4 277.65 226.65 275.65 229.05 275.95 233.4 M272.65 227.5 L274.95 226.0 277.0 226.7 274.95 226.0 272.65 227.5 M275.5 233.3 L273.95 237.3 275.5 233.3" fill="url(#gradient39)" fill-rule="evenodd" stroke="none"/>
    <path d="M275.1 218.95 L273.5 223.2 272.9 224.65 271.75 219.75 275.5 218.0 275.1 218.95 M272.7 219.95 L274.7 218.8 273.5 223.2 274.7 218.8 272.7 219.95" fill="url(#gradient40)" fill-rule="evenodd" stroke="none"/>
    <path d="M280.35 222.0 L279.8 220.3 279.25 218.6 278.8 217.4 281.15 217.95 278.8 217.4 278.65 216.9 281.6 217.85 280.35 222.0" fill="url(#gradient41)" fill-rule="evenodd" stroke="none"/>
    <path d="M276.0 251.15 L275.4 251.8 273.8 245.6 273.8 254.2 275.5 261.7 277.95 250.45 278.35 248.55 276.0 251.15 M276.5 240.9 L275.95 233.4 273.85 238.55 272.7 241.35 273.8 245.6 M279.45 244.55 L279.45 238.65 277.6 241.2 277.2 243.1 276.85 245.0 276.55 241.45 276.5 240.9 M278.35 248.55 L278.35 248.5 278.35 248.55 M279.45 244.75 L279.45 247.3 278.35 248.5 M279.45 244.55 L279.45 244.75 M281.1 236.35 L281.3 236.1 279.85 230.55 278.75 235.9 278.7 236.1 277.6 241.2 M280.35 222.0 L279.8 220.3 279.25 218.6 277.65 226.65 277.05 224.9 275.1 218.95 273.5 223.2 272.9 224.65 271.9 227.3 273.85 238.55 M277.65 226.65 L275.65 229.05 275.95 233.4 M280.35 222.0 L281.1 224.3 279.85 230.55 M281.1 236.35 L279.45 238.65 M278.8 217.4 L279.25 218.6 M278.65 216.9 L278.8 217.4 M275.5 218.0 L275.1 218.95 M281.6 217.85 L280.35 222.0 M271.75 219.75 L275.65 215.6 276.75 214.85 277.4 213.25 278.05 215.2 281.6 217.85 M278.65 216.9 L278.05 215.2 M276.75 214.85 L275.5 218.0 M271.75 219.75 L272.9 224.65" fill="none" stroke="#000000" stroke-linecap="round" stroke-linejoin="round" stroke-opacity="0.2509804" stroke-width="0.05"/>
    <path d="M277.95 250.45 L275.95 253.6 274.3 254.4 M276.55 241.45 L275.15 242.5 276.2 250.25 M279.45 244.75 L278.45 243.25 277.05 244.65 M274.85 242.75 L275.15 242.5 M278.7 236.1 L281.1 236.35 M277.6 241.2 L277.55 229.65 279.85 226.8 280.35 222.0 M277.0 226.7 L274.95 226.0 272.65 227.5 M273.95 237.3 L275.5 233.3 M281.15 217.95 L278.8 217.4 M278.65 218.85 L277.6 218.85 277.6 224.45 M273.5 223.2 L274.7 218.8 272.7 219.95" fill="none" stroke="#ffffff" stroke-linecap="round" stroke-linejoin="round" stroke-width="0.05"/>
    <path d="M271.05 237.8 Q271.05 236.45 272.3 235.55 273.6 234.6 275.4 234.6 277.2 234.6 278.5 235.55 279.75 236.45 279.75 237.8 279.75 239.1 278.5 240.05 277.2 240.95 275.4 240.95 273.6 240.95 272.3 240.05 271.05 239.1 271.05 237.8" fill="url(#gradient42)" fill-rule="evenodd" stroke="none"/>
    <path d="M275.0 205.85 L275.0 208.3 273.35 206.65 271.75 205.0 275.0 205.85" fill="#7096c5" fill-rule="evenodd" stroke="none"/>
    <path d="M273.35 206.65 L275.0 208.3 275.0 211.65 271.4 209.3 272.4 208.0 273.35 206.65 M274.85 211.3 L271.75 209.25 274.85 211.3" fill="url(#gradient43)" fill-rule="evenodd" stroke="none"/>
    <path d="M274.8 205.55 L272.1 204.9 274.8 205.55 M275.0 205.85 L271.75 205.0 275.0 201.3 275.0 205.85" fill="url(#gradient44)" fill-rule="evenodd" stroke="none"/>
    <path d="M267.9 211.7 L270.9 207.4 272.4 208.0 271.4 209.3 272.25 211.95 267.9 211.7 M271.95 211.7 L268.45 211.55 271.95 211.7" fill="url(#gradient45)" fill-rule="evenodd" stroke="none"/>
    <path d="M272.65 216.45 L267.9 211.7 272.25 211.95 274.3 218.1 272.65 216.45" fill="#5f83be" fill-rule="evenodd" stroke="none"/>
    <path d="M271.75 218.4 L272.65 216.45 274.3 218.1 274.65 219.2 271.75 218.4 M274.45 218.95 L272.05 218.3 274.45 218.95" fill="url(#gradient46)" fill-rule="evenodd" stroke="none"/>
    <path d="M275.0 211.65 L275.0 220.35 274.65 219.2 274.3 218.1 272.25 211.95 271.4 209.3 275.0 211.65" fill="#82a4cc" fill-rule="evenodd" stroke="none"/>
    <path d="M275.0 220.35 L275.0 222.05 274.4 221.85 271.75 218.4 274.65 219.2 275.0 220.35" fill="#608abd" fill-rule="evenodd" stroke="none"/>
    <path d="M275.0 208.3 L275.0 205.85 275.0 201.3 271.75 205.0 273.35 206.65 275.0 208.3 275.0 211.65 275.0 220.35 275.0 222.05 274.4 221.85 271.75 218.4 272.65 216.45 267.9 211.7 270.9 207.4 272.4 208.0 273.35 206.65 M272.65 216.45 L274.3 218.1 272.25 211.95 271.4 209.3 272.4 208.0 M274.65 219.2 L275.0 220.35 M274.65 219.2 L274.3 218.1" fill="none" stroke="#000000" stroke-linecap="round" stroke-linejoin="round" stroke-opacity="0.2627451" stroke-width="0.05"/>
    <path d="M272.1 204.9 L274.8 205.55 M271.75 209.25 L274.85 211.3 M268.45 211.55 L271.95 211.7 M272.05 218.3 L274.45 218.95" fill="none" stroke="#ffffff" stroke-linecap="round" stroke-linejoin="round" stroke-width="0.05"/>
    <path d="M275.0 208.3 L276.65 206.65 278.25 205.0 275.0 205.85 275.0 208.3" fill="#7096c5" fill-rule="evenodd" stroke="none"/>
    <path d="M277.6 208.0 L276.65 206.65 275.0 208.3 275.0 211.65 278.6 209.3 277.6 208.0 M275.15 211.3 L278.25 209.25 275.15 211.3" fill="url(#gradient47)" fill-rule="evenodd" stroke="none"/>
    <path d="M278.25 205.0 L275.0 201.3 275.0 205.85 278.25 205.0 M275.2 205.55 L277.9 204.9 275.2 205.55" fill="url(#gradient48)" fill-rule="evenodd" stroke="none"/>
    <path d="M277.6 208.0 L278.6 209.3 277.75 211.95 282.1 211.7 279.1 207.4 277.6 208.0 M278.05 211.7 L281.55 211.55 278.05 211.7" fill="url(#gradient49)" fill-rule="evenodd" stroke="none"/>
    <path d="M282.1 211.7 L277.75 211.95 275.7 218.1 277.35 216.45 282.1 211.7" fill="#5f83be" fill-rule="evenodd" stroke="none"/>
    <path d="M277.35 216.45 L275.7 218.1 275.35 219.2 278.25 218.4 277.35 216.45 M275.55 218.95 L277.95 218.3 275.55 218.95" fill="url(#gradient50)" fill-rule="evenodd" stroke="none"/>
    <path d="M278.6 209.3 L275.0 211.65 275.0 220.35 275.35 219.2 275.7 218.1 277.75 211.95 278.6 209.3" fill="#82a4cc" fill-rule="evenodd" stroke="none"/>
    <path d="M275.35 219.2 L275.0 220.35 275.0 222.05 275.6 221.85 278.25 218.4 275.35 219.2" fill="#608abd" fill-rule="evenodd" stroke="none"/>
    <path d="M276.65 206.65 L277.6 208.0 278.6 209.3 277.75 211.95 275.7 218.1 277.35 216.45 282.1 211.7 279.1 207.4 277.6 208.0 M275.0 211.65 L275.0 208.3 276.65 206.65 278.25 205.0 275.0 201.3 275.0 205.85 275.0 208.3 M275.35 219.2 L275.0 220.35 275.0 211.65 M275.0 220.35 L275.0 222.05 275.6 221.85 278.25 218.4 277.35 216.45 M275.35 219.2 L275.7 218.1" fill="none" stroke="#000000" stroke-linecap="round" stroke-linejoin="round" stroke-opacity="0.2627451" stroke-width="0.05"/>
    <path d="M277.9 204.9 L275.2 205.55 M277.95 218.3 L275.55 218.95 M281.55 211.55 L278.05 211.7 M278.25 209.25 L275.15 211.3" fill="none" stroke="#ffffff" stroke-linecap="round" stroke-linejoin="round" stroke-width="0.05"/>
  </g>
  <defs>
    <radialGradient cx="0" cy="0" gradientTransform="matrix(0.0158, 0.0, 0.0, -0.0215, 278.6, 215.2)" gradientUnits="userSpaceOnUse" id="gradient0" r="819.2" spreadMethod="pad">
      <stop offset="0.0" stop-color="#a2b7e8"/>
      <stop offset="0.596078431372549" stop-color="#a3e2fa"/>
      <stop offset="0.9803921568627451" stop-color="#dbf7fd"/>
    </radialGradient>
    <radialGradient cx="0" cy="0" gradientTransform="matrix(0.0082, 0.0, 0.0, -0.0111, 280.9, 212.3)" gradientUnits="userSpaceOnUse" id="gradient1" r="819.2" spreadMethod="pad">
      <stop offset="0.0" stop-color="#a2b7e8"/>
      <stop offset="0.596078431372549" stop-color="#a3e2fa"/>
      <stop offset="0.9803921568627451" stop-color="#dbf7fd"/>
    </radialGradient>
    <radialGradient cx="0" cy="0" gradientTransform="matrix(-0.0158, 0.0, 0.0, -0.0215, 271.85, 215.2)" gradientUnits="userSpaceOnUse" id="gradient2" r="819.2" spreadMethod="pad">
      <stop offset="0.0" stop-color="#a2b7e8"/>
      <stop offset="0.596078431372549" stop-color="#a3e2fa"/>
      <stop offset="0.9803921568627451" stop-color="#dbf7fd"/>
    </radialGradient>
    <radialGradient cx="0" cy="0" gradientTransform="matrix(-0.0082, 0.0, 0.0, -0.0111, 269.55, 212.3)" gradientUnits="userSpaceOnUse" id="gradient3" r="819.2" spreadMethod="pad">
      <stop offset="0.0" stop-color="#a2b7e8"/>
      <stop offset="0.596078431372549" stop-color="#a3e2fa"/>
      <stop offset="0.9803921568627451" stop-color="#dbf7fd"/>
    </radialGradient>
    <radialGradient cx="0" cy="0" gradientTransform="matrix(0.0158, 0.0, 0.0, 0.0215, 278.2, 204.2)" gradientUnits="userSpaceOnUse" id="gradient4" r="819.2" spreadMethod="pad">
      <stop offset="0.0" stop-color="#a2b7e8"/>
      <stop offset="0.596078431372549" stop-color="#a3e2fa"/>
      <stop offset="0.9803921568627451" stop-color="#dbf7fd"/>
    </radialGradient>
    <radialGradient cx="0" cy="0" gradientTransform="matrix(0.0082, 0.0, 0.0, 0.0111, 280.5, 207.1)" gradientUnits="userSpaceOnUse" id="gradient5" r="819.2" spreadMethod="pad">
      <stop offset="0.0" stop-color="#a2b7e8"/>
      <stop offset="0.596078431372549" stop-color="#a3e2fa"/>
      <stop offset="0.9803921568627451" stop-color="#dbf7fd"/>
    </radialGradient>
    <radialGradient cx="0" cy="0" gradientTransform="matrix(0.0312, 0.0, 0.0, -0.0312, 281.65, 214.25)" gradientUnits="userSpaceOnUse" id="gradient6" r="819.2" spreadMethod="pad">
      <stop offset="0.0" stop-color="#a2b7e8"/>
      <stop offset="0.596078431372549" stop-color="#a3e2fa"/>
      <stop offset="0.9803921568627451" stop-color="#dbf7fd"/>
    </radialGradient>
    <radialGradient cx="0" cy="0" gradientTransform="matrix(0.0161, 0.0, 0.0, -0.0161, 286.15, 210.1)" gradientUnits="userSpaceOnUse" id="gradient7" r="819.2" spreadMethod="pad">
      <stop offset="0.0" stop-color="#a2b7e8"/>
      <stop offset="0.596078431372549" stop-color="#a3e2fa"/>
      <stop offset="0.9803921568627451" stop-color="#dbf7fd"/>
    </radialGradient>
    <radialGradient cx="0" cy="0" gradientTransform="matrix(-0.0158, 0.0, 0.0, 0.0215, 270.35, 204.4)" gradientUnits="userSpaceOnUse" id="gradient8" r="819.2" spreadMethod="pad">
      <stop offset="0.0" stop-color="#a2b7e8"/>
      <stop offset="0.596078431372549" stop-color="#a3e2fa"/>
      <stop offset="0.9803921568627451" stop-color="#dbf7fd"/>
    </radialGradient>
    <radialGradient cx="0" cy="0" gradientTransform="matrix(-0.0082, 0.0, 0.0, 0.0111, 268.05, 207.3)" gradientUnits="userSpaceOnUse" id="gradient9" r="819.2" spreadMethod="pad">
      <stop offset="0.0" stop-color="#a2b7e8"/>
      <stop offset="0.596078431372549" stop-color="#a3e2fa"/>
      <stop offset="0.9803921568627451" stop-color="#dbf7fd"/>
    </radialGradient>
    <radialGradient cx="0" cy="0" gradientTransform="matrix(-0.0312, 0.0, 0.0, -0.0312, 268.4, 214.25)" gradientUnits="userSpaceOnUse" id="gradient10" r="819.2" spreadMethod="pad">
      <stop offset="0.0" stop-color="#a2b7e8"/>
      <stop offset="0.596078431372549" stop-color="#a3e2fa"/>
      <stop offset="0.9803921568627451" stop-color="#dbf7fd"/>
    </radialGradient>
    <radialGradient cx="0" cy="0" gradientTransform="matrix(-0.0161, 0.0, 0.0, -0.0161, 263.9, 210.1)" gradientUnits="userSpaceOnUse" id="gradient11" r="819.2" spreadMethod="pad">
      <stop offset="0.0" stop-color="#a2b7e8"/>
      <stop offset="0.596078431372549" stop-color="#a3e2fa"/>
      <stop offset="0.9803921568627451" stop-color="#dbf7fd"/>
    </radialGradient>
    <radialGradient cx="0" cy="0" gradientTransform="matrix(-0.0689, 0.0, 0.0, -0.0689, 280.0, 194.65)" gradientUnits="userSpaceOnUse" id="gradient12" r="819.2" spreadMethod="pad">
      <stop offset="0.0" stop-color="#568fd3"/>
      <stop offset="0.3215686274509804" stop-color="#a3e2fa"/>
      <stop offset="0.6" stop-color="#d2fcf9"/>
      <stop offset="1.0" stop-color="#d6fef8"/>
    </radialGradient>
    <radialGradient cx="0" cy="0" gradientTransform="matrix(-0.018, 0.0, 0.0, -0.018, 270.7, 205.35)" gradientUnits="userSpaceOnUse" id="gradient13" r="819.2" spreadMethod="pad">
      <stop offset="0.0" stop-color="#568fd3"/>
      <stop offset="0.3215686274509804" stop-color="#a3e2fa"/>
      <stop offset="0.6" stop-color="#d2fcf9"/>
      <stop offset="1.0" stop-color="#d6fef8"/>
    </radialGradient>
    <radialGradient cx="0" cy="0" gradientTransform="matrix(-0.0134, 0.0, 0.0, -0.0134, 270.5, 194.85)" gradientUnits="userSpaceOnUse" id="gradient14" r="819.2" spreadMethod="pad">
      <stop offset="0.0" stop-color="#568fd3"/>
      <stop offset="0.3215686274509804" stop-color="#a3e2fa"/>
      <stop offset="0.6" stop-color="#d2fcf9"/>
      <stop offset="1.0" stop-color="#d6fef8"/>
    </radialGradient>
    <radialGradient cx="0" cy="0" gradientTransform="matrix(-0.0093, 0.0, 0.0, -0.0093, 267.75, 182.4)" gradientUnits="userSpaceOnUse" id="gradient15" r="819.2" spreadMethod="pad">
      <stop offset="0.0" stop-color="#568fd3"/>
      <stop offset="0.3215686274509804" stop-color="#a3e2fa"/>
      <stop offset="0.6" stop-color="#d2fcf9"/>
      <stop offset="1.0" stop-color="#d6fef8"/>
    </radialGradient>
    <radialGradient cx="0" cy="0" gradientTransform="matrix(-0.0331, 0.0, 0.0, -0.0331, 267.75, 182.2)" gradientUnits="userSpaceOnUse" id="gradient16" r="819.2" spreadMethod="pad">
      <stop offset="0.0" stop-color="#568fd3"/>
      <stop offset="0.3215686274509804" stop-color="#a3e2fa"/>
      <stop offset="0.6" stop-color="#d2fcf9"/>
      <stop offset="1.0" stop-color="#d6fef8"/>
    </radialGradient>
    <radialGradient cx="0" cy="0" gradientTransform="matrix(-0.0312, 0.0, 0.0, -0.0312, 295.4, 158.7)" gradientUnits="userSpaceOnUse" id="gradient17" r="819.2" spreadMethod="pad">
      <stop offset="0.0" stop-color="#568fd3"/>
      <stop offset="0.3215686274509804" stop-color="#a3e2fa"/>
      <stop offset="0.6" stop-color="#d2fcf9"/>
      <stop offset="1.0" stop-color="#d6fef8"/>
    </radialGradient>
    <radialGradient cx="0" cy="0" gradientTransform="matrix(-0.0588, 0.0, 0.0, -0.0588, 295.4, 158.7)" gradientUnits="userSpaceOnUse" id="gradient18" r="819.2" spreadMethod="pad">
      <stop offset="0.3215686274509804" stop-color="#a3e2fa"/>
      <stop offset="0.6" stop-color="#d2fcf9"/>
      <stop offset="1.0" stop-color="#d6fef8"/>
    </radialGradient>
    <radialGradient cx="0" cy="0" gradientTransform="matrix(0.0123, 0.0, 0.0, -0.0052, 274.25, 237.55)" gradientUnits="userSpaceOnUse" id="gradient19" r="819.2" spreadMethod="pad">
      <stop offset="0.0" stop-color="#a2b7e8"/>
      <stop offset="0.596078431372549" stop-color="#a3e2fa"/>
      <stop offset="0.9803921568627451" stop-color="#dbf7fd"/>
    </radialGradient>
    <radialGradient cx="0" cy="0" gradientTransform="matrix(0.0132, 0.0, 0.0, -0.0056, 271.85, 231.1)" gradientUnits="userSpaceOnUse" id="gradient20" r="819.2" spreadMethod="pad">
      <stop offset="0.0" stop-color="#a2b7e8"/>
      <stop offset="0.596078431372549" stop-color="#a3e2fa"/>
      <stop offset="0.9803921568627451" stop-color="#dbf7fd"/>
    </radialGradient>
    <radialGradient cx="0" cy="0" gradientTransform="matrix(0.0072, 0.0, 0.0, -0.003, 270.05, 227.5)" gradientUnits="userSpaceOnUse" id="gradient21" r="819.2" spreadMethod="pad">
      <stop offset="0.0" stop-color="#a2b7e8"/>
      <stop offset="0.596078431372549" stop-color="#a3e2fa"/>
      <stop offset="0.9803921568627451" stop-color="#dbf7fd"/>
    </radialGradient>
    <radialGradient cx="0" cy="0" gradientTransform="matrix(0.0292, 0.0, 0.0, -0.0123, 268.0, 219.95)" gradientUnits="userSpaceOnUse" id="gradient22" r="819.2" spreadMethod="pad">
      <stop offset="0.0" stop-color="#a2b7e8"/>
      <stop offset="0.596078431372549" stop-color="#a3e2fa"/>
      <stop offset="0.9803921568627451" stop-color="#dbf7fd"/>
    </radialGradient>
    <radialGradient cx="0" cy="0" gradientTransform="matrix(0.021, 0.0, 0.0, -0.0089, 273.6, 221.15)" gradientUnits="userSpaceOnUse" id="gradient23" r="819.2" spreadMethod="pad">
      <stop offset="0.0" stop-color="#a2b7e8"/>
      <stop offset="0.596078431372549" stop-color="#a3e2fa"/>
      <stop offset="0.9803921568627451" stop-color="#dbf7fd"/>
    </radialGradient>
    <radialGradient cx="0" cy="0" gradientTransform="matrix(0.0081, 0.0, 0.0, -0.0034, 274.6, 217.65)" gradientUnits="userSpaceOnUse" id="gradient24" r="819.2" spreadMethod="pad">
      <stop offset="0.0" stop-color="#a2b7e8"/>
      <stop offset="0.596078431372549" stop-color="#a3e2fa"/>
      <stop offset="0.9803921568627451" stop-color="#dbf7fd"/>
    </radialGradient>
    <radialGradient cx="0" cy="0" gradientTransform="matrix(0.0055, 0.0, 0.0, -0.0023, 268.6, 216.95)" gradientUnits="userSpaceOnUse" id="gradient25" r="819.2" spreadMethod="pad">
      <stop offset="0.0" stop-color="#a2b7e8"/>
      <stop offset="0.596078431372549" stop-color="#a3e2fa"/>
      <stop offset="0.9803921568627451" stop-color="#dbf7fd"/>
    </radialGradient>
    <radialGradient cx="0" cy="0" gradientTransform="matrix(0.0054, 0.0, 0.0, -0.0023, 273.15, 227.95)" gradientUnits="userSpaceOnUse" id="gradient26" r="819.2" spreadMethod="pad">
      <stop offset="0.0" stop-color="#ffffff"/>
      <stop offset="1.0" stop-color="#ffffff" stop-opacity="0.0"/>
    </radialGradient>
    <radialGradient cx="0" cy="0" gradientTransform="matrix(-0.0123, 0.0, 0.0, -0.0052, 276.3, 237.55)" gradientUnits="userSpaceOnUse" id="gradient27" r="819.2" spreadMethod="pad">
      <stop offset="0.0" stop-color="#a2b7e8"/>
      <stop offset="0.596078431372549" stop-color="#a3e2fa"/>
      <stop offset="0.9803921568627451" stop-color="#dbf7fd"/>
    </radialGradient>
    <radialGradient cx="0" cy="0" gradientTransform="matrix(-0.0132, 0.0, 0.0, -0.0056, 278.7, 231.1)" gradientUnits="userSpaceOnUse" id="gradient28" r="819.2" spreadMethod="pad">
      <stop offset="0.0" stop-color="#a2b7e8"/>
      <stop offset="0.596078431372549" stop-color="#a3e2fa"/>
      <stop offset="0.9803921568627451" stop-color="#dbf7fd"/>
    </radialGradient>
    <radialGradient cx="0" cy="0" gradientTransform="matrix(-0.0072, 0.0, 0.0, -0.003, 280.5, 227.5)" gradientUnits="userSpaceOnUse" id="gradient29" r="819.2" spreadMethod="pad">
      <stop offset="0.0" stop-color="#a2b7e8"/>
      <stop offset="0.596078431372549" stop-color="#a3e2fa"/>
      <stop offset="0.9803921568627451" stop-color="#dbf7fd"/>
    </radialGradient>
    <radialGradient cx="0" cy="0" gradientTransform="matrix(-0.0292, 0.0, 0.0, -0.0123, 282.55, 219.95)" gradientUnits="userSpaceOnUse" id="gradient30" r="819.2" spreadMethod="pad">
      <stop offset="0.0" stop-color="#a2b7e8"/>
      <stop offset="0.596078431372549" stop-color="#a3e2fa"/>
      <stop offset="0.9803921568627451" stop-color="#dbf7fd"/>
    </radialGradient>
    <radialGradient cx="0" cy="0" gradientTransform="matrix(-0.021, 0.0, 0.0, -0.0089, 276.95, 221.15)" gradientUnits="userSpaceOnUse" id="gradient31" r="819.2" spreadMethod="pad">
      <stop offset="0.0" stop-color="#a2b7e8"/>
      <stop offset="0.596078431372549" stop-color="#a3e2fa"/>
      <stop offset="0.9803921568627451" stop-color="#dbf7fd"/>
    </radialGradient>
    <radialGradient cx="0" cy="0" gradientTransform="matrix(-0.0081, 0.0, 0.0, -0.0034, 275.95, 217.65)" gradientUnits="userSpaceOnUse" id="gradient32" r="819.2" spreadMethod="pad">
      <stop offset="0.0" stop-color="#a2b7e8"/>
      <stop offset="0.596078431372549" stop-color="#a3e2fa"/>
      <stop offset="0.9803921568627451" stop-color="#dbf7fd"/>
    </radialGradient>
    <radialGradient cx="0" cy="0" gradientTransform="matrix(-0.0055, 0.0, 0.0, -0.0023, 281.95, 216.95)" gradientUnits="userSpaceOnUse" id="gradient33" r="819.2" spreadMethod="pad">
      <stop offset="0.0" stop-color="#a2b7e8"/>
      <stop offset="0.596078431372549" stop-color="#a3e2fa"/>
      <stop offset="0.9803921568627451" stop-color="#dbf7fd"/>
    </radialGradient>
    <radialGradient cx="0" cy="0" gradientTransform="matrix(-0.0054, 0.0, 0.0, -0.0023, 277.4, 227.95)" gradientUnits="userSpaceOnUse" id="gradient34" r="819.2" spreadMethod="pad">
      <stop offset="0.0" stop-color="#ffffff"/>
      <stop offset="1.0" stop-color="#ffffff" stop-opacity="0.0"/>
    </radialGradient>
    <radialGradient cx="0" cy="0" gradientTransform="matrix(-0.0123, 0.0, 0.0, -0.009, 274.3, 254.4)" gradientUnits="userSpaceOnUse" id="gradient35" r="819.2" spreadMethod="pad">
      <stop offset="0.0" stop-color="#a2b7e8"/>
      <stop offset="0.596078431372549" stop-color="#a3e2fa"/>
      <stop offset="0.9803921568627451" stop-color="#dbf7fd"/>
    </radialGradient>
    <radialGradient cx="0" cy="0" gradientTransform="matrix(-0.0132, 0.0, 0.0, -0.0097, 276.7, 243.25)" gradientUnits="userSpaceOnUse" id="gradient36" r="819.2" spreadMethod="pad">
      <stop offset="0.0" stop-color="#a2b7e8"/>
      <stop offset="0.596078431372549" stop-color="#a3e2fa"/>
      <stop offset="0.9803921568627451" stop-color="#dbf7fd"/>
    </radialGradient>
    <radialGradient cx="0" cy="0" gradientTransform="matrix(-0.0072, 0.0, 0.0, -0.0052, 278.5, 237.0)" gradientUnits="userSpaceOnUse" id="gradient37" r="819.2" spreadMethod="pad">
      <stop offset="0.0" stop-color="#a2b7e8"/>
      <stop offset="0.596078431372549" stop-color="#a3e2fa"/>
      <stop offset="0.9803921568627451" stop-color="#dbf7fd"/>
    </radialGradient>
    <radialGradient cx="0" cy="0" gradientTransform="matrix(-0.0292, 0.0, 0.0, -0.0213, 280.55, 223.85)" gradientUnits="userSpaceOnUse" id="gradient38" r="819.2" spreadMethod="pad">
      <stop offset="0.0" stop-color="#a2b7e8"/>
      <stop offset="0.596078431372549" stop-color="#a3e2fa"/>
      <stop offset="0.9803921568627451" stop-color="#dbf7fd"/>
    </radialGradient>
    <radialGradient cx="0" cy="0" gradientTransform="matrix(-0.021, 0.0, 0.0, -0.0154, 274.95, 226.0)" gradientUnits="userSpaceOnUse" id="gradient39" r="819.2" spreadMethod="pad">
      <stop offset="0.0" stop-color="#a2b7e8"/>
      <stop offset="0.596078431372549" stop-color="#a3e2fa"/>
      <stop offset="0.9803921568627451" stop-color="#dbf7fd"/>
    </radialGradient>
    <radialGradient cx="0" cy="0" gradientTransform="matrix(-0.0081, 0.0, 0.0, -0.0059, 273.95, 219.9)" gradientUnits="userSpaceOnUse" id="gradient40" r="819.2" spreadMethod="pad">
      <stop offset="0.0" stop-color="#a2b7e8"/>
      <stop offset="0.596078431372549" stop-color="#a3e2fa"/>
      <stop offset="0.9803921568627451" stop-color="#dbf7fd"/>
    </radialGradient>
    <radialGradient cx="0" cy="0" gradientTransform="matrix(-0.0055, 0.0, 0.0, -0.004, 279.95, 218.7)" gradientUnits="userSpaceOnUse" id="gradient41" r="819.2" spreadMethod="pad">
      <stop offset="0.0" stop-color="#a2b7e8"/>
      <stop offset="0.596078431372549" stop-color="#a3e2fa"/>
      <stop offset="0.9803921568627451" stop-color="#dbf7fd"/>
    </radialGradient>
    <radialGradient cx="0" cy="0" gradientTransform="matrix(-0.0054, 0.0, 0.0, -0.0039, 275.4, 237.8)" gradientUnits="userSpaceOnUse" id="gradient42" r="819.2" spreadMethod="pad">
      <stop offset="0.0" stop-color="#ffffff"/>
      <stop offset="1.0" stop-color="#ffffff" stop-opacity="0.0"/>
    </radialGradient>
    <radialGradient cx="0" cy="0" gradientTransform="matrix(0.0058, 0.0, 0.0, 0.0058, 273.4, 207.2)" gradientUnits="userSpaceOnUse" id="gradient43" r="819.2" spreadMethod="pad">
      <stop offset="0.0" stop-color="#9cb7d6"/>
      <stop offset="0.4549019607843137" stop-color="#a3e2fa"/>
    </radialGradient>
    <radialGradient cx="0" cy="0" gradientTransform="matrix(0.0052, 0.0, 0.0, 0.0052, 274.8, 205.55)" gradientUnits="userSpaceOnUse" id="gradient44" r="819.2" spreadMethod="pad">
      <stop offset="0.0" stop-color="#9cb7d6"/>
      <stop offset="0.4549019607843137" stop-color="#a3e2fa"/>
    </radialGradient>
    <radialGradient cx="0" cy="0" gradientTransform="matrix(0.0064, 0.0, 0.0, 0.0064, 271.85, 208.3)" gradientUnits="userSpaceOnUse" id="gradient45" r="819.2" spreadMethod="pad">
      <stop offset="0.0" stop-color="#9cb7d6"/>
      <stop offset="0.4549019607843137" stop-color="#a3e2fa"/>
    </radialGradient>
    <radialGradient cx="0" cy="0" gradientTransform="matrix(0.0028, 0.0, 0.0, 0.0028, 274.0, 218.15)" gradientUnits="userSpaceOnUse" id="gradient46" r="819.2" spreadMethod="pad">
      <stop offset="0.0" stop-color="#9cb7d6"/>
      <stop offset="0.4549019607843137" stop-color="#a3e2fa"/>
    </radialGradient>
    <radialGradient cx="0" cy="0" gradientTransform="matrix(-0.0058, 0.0, 0.0, 0.0058, 276.6, 207.2)" gradientUnits="userSpaceOnUse" id="gradient47" r="819.2" spreadMethod="pad">
      <stop offset="0.0" stop-color="#9cb7d6"/>
      <stop offset="0.4549019607843137" stop-color="#a3e2fa"/>
    </radialGradient>
    <radialGradient cx="0" cy="0" gradientTransform="matrix(-0.0052, 0.0, 0.0, 0.0052, 275.2, 205.55)" gradientUnits="userSpaceOnUse" id="gradient48" r="819.2" spreadMethod="pad">
      <stop offset="0.0" stop-color="#9cb7d6"/>
      <stop offset="0.4549019607843137" stop-color="#a3e2fa"/>
    </radialGradient>
    <radialGradient cx="0" cy="0" gradientTransform="matrix(-0.0064, 0.0, 0.0, 0.0064, 278.15, 208.3)" gradientUnits="userSpaceOnUse" id="gradient49" r="819.2" spreadMethod="pad">
      <stop offset="0.0" stop-color="#9cb7d6"/>
      <stop offset="0.4549019607843137" stop-color="#a3e2fa"/>
    </radialGradient>
    <radialGradient cx="0" cy="0" gradientTransform="matrix(-0.0028, 0.0, 0.0, 0.0028, 276.0, 218.15)" gradientUnits="userSpaceOnUse" id="gradient50" r="819.2" spreadMethod="pad">
      <stop offset="0.0" stop-color="#9cb7d6"/>
      <stop offset="0.4549019607843137" stop-color="#a3e2fa"/>
    </radialGradient>
  </defs>
</svg>
