<?xml version="1.0" encoding="UTF-8" standalone="no"?>
<svg xmlns:xlink="http://www.w3.org/1999/xlink" height="49.0px" width="39.1px" xmlns="http://www.w3.org/2000/svg">
  <g transform="matrix(1.0, 0.0, 0.0, 1.0, 0.0, 0.0)">
    <path d="M0.9 2.65 L1.15 2.2 7.1 0.0 Q6.95 8.7 16.4 3.9 3.4 10.9 3.4 2.0 L0.9 2.65 M37.0 34.1 Q29.1 41.1 37.3 44.15 L33.05 48.95 32.55 49.0 34.1 46.9 Q25.75 43.65 37.0 34.1" fill="#dcdc03" fill-rule="evenodd" stroke="none"/>
    <path d="M2.95 6.85 L2.45 6.1 0.35 7.6 0.0 6.45 0.9 2.65 3.4 2.0 Q3.4 10.9 16.4 3.9 L22.3 4.35 19.4 6.35 Q16.85 5.55 10.15 9.65 9.75 7.4 6.35 8.8 L4.05 9.9 1.4 11.1 0.6 8.45 2.25 7.3 2.95 6.85 M4.05 9.9 L2.25 7.3 4.05 9.9 M26.95 43.45 L28.8 41.65 Q31.35 39.0 29.4 37.8 35.65 33.05 35.85 30.4 L38.75 28.45 Q38.2 31.15 37.0 34.1 25.75 43.65 34.1 46.9 L32.55 49.0 28.7 48.45 27.75 47.75 29.9 46.3 29.4 45.55 28.7 46.0 27.0 47.15 24.85 45.45 26.95 43.45 28.7 46.0 26.95 43.45" fill="#b9b802" fill-rule="evenodd" stroke="none"/>
    <path d="M19.4 6.35 L22.3 4.35 23.65 4.65 22.6 5.35 20.55 6.8 20.25 6.65 19.4 6.35 M35.85 30.4 L35.85 29.5 35.8 29.2 37.9 27.8 38.95 27.1 38.75 28.45 35.85 30.4 M32.6 18.8 L31.5 19.55 30.15 19.5 31.45 18.6 37.35 14.6 38.15 14.0 Q38.9 14.0 38.0 15.15 L36.75 16.0 35.0 17.2 32.6 18.8 M28.8 14.75 L27.5 15.65 Q27.15 15.25 27.9 14.35 L29.05 13.55 31.45 11.95 33.15 10.75 34.4 9.9 Q35.8 9.45 35.55 10.2 L34.7 10.7 34.65 10.7 28.8 14.75" fill="#000000" fill-rule="evenodd" stroke="none"/>
    <path d="M35.8 29.2 Q35.25 23.1 32.6 18.8 L35.0 17.2 Q37.6 21.4 37.9 27.75 L37.9 27.8 35.8 29.2 M29.05 13.55 Q25.95 9.5 20.55 6.8 L22.6 5.35 22.6 5.4 Q28.45 7.95 31.45 11.95 L29.05 13.55" fill="#a39b8b" fill-rule="evenodd" stroke="none"/>
    <path d="M22.6 5.4 L22.6 5.35 23.65 4.65 Q29.7 6.15 33.15 10.75 L31.45 11.95 Q28.45 7.95 22.6 5.4 M36.75 16.0 Q39.75 20.9 38.95 27.1 L37.9 27.8 37.9 27.75 Q37.6 21.4 35.0 17.2 L36.75 16.0" fill="#dfd5bd" fill-rule="evenodd" stroke="none"/>
    <path d="M31.45 18.6 L31.35 18.55 31.35 18.45 31.25 18.25 31.05 18.4 28.85 15.15 29.05 15.05 28.9 14.85 28.85 14.85 28.8 14.75 34.65 10.7 34.7 10.7 34.8 10.9 34.0 11.45 36.4 14.95 37.2 14.4 37.35 14.6 31.45 18.6" fill="#55332b" fill-rule="evenodd" stroke="none"/>
    <path d="M13.2 23.75 L13.45 23.6 13.75 24.0 13.5 24.2 13.2 24.4 12.9 23.95 13.2 23.75 M13.9 24.8 L14.15 24.65 16.9 28.65 16.65 28.8 16.35 29.05 13.6 25.0 13.9 24.8 M17.05 29.4 L17.3 29.25 17.6 29.7 17.35 29.85 17.05 30.1 16.75 29.65 17.05 29.4" fill="#85503f" fill-rule="evenodd" stroke="none"/>
    <path d="M0.9 2.65 L1.15 2.2 7.1 0.0 Q6.95 8.7 16.4 3.9 L16.8 3.65 M0.9 2.65 L0.0 6.45 0.35 7.6 2.45 6.1 2.95 6.85 M2.25 7.3 L4.05 9.9 6.35 8.8 Q9.75 7.4 10.15 9.65 16.85 5.55 19.4 6.35 L20.25 6.65 20.55 6.8 Q25.95 9.5 29.05 13.55 L31.45 11.95 33.15 10.75 Q29.7 6.15 23.65 4.65 L22.3 4.35 16.4 3.9 M0.6 8.45 L1.4 11.1 4.05 9.9 13.2 23.75 M13.5 24.2 L13.9 24.8 M16.65 28.8 L17.05 29.4 M17.35 29.85 L26.95 43.45 28.8 41.65 Q31.35 39.0 29.4 37.8 35.65 33.05 35.85 30.4 L35.85 29.5 35.8 29.2 Q35.25 23.1 32.6 18.8 L31.5 19.55 30.15 19.5 31.45 18.6 37.35 14.6 38.15 14.0 Q38.9 14.0 38.0 15.15 L36.75 16.0 Q39.75 20.9 38.95 27.1 L38.75 28.45 Q38.2 31.15 37.0 34.1 L37.4 33.85 M28.8 14.75 L27.5 15.65 Q27.15 15.25 27.9 14.35 L29.05 13.55 M22.6 5.4 L22.6 5.35 M28.8 14.75 L34.65 10.7 34.7 10.7 35.55 10.2 Q35.8 9.45 34.4 9.9 L33.15 10.75 M35.0 17.2 L36.75 16.0 M37.9 27.75 L37.9 27.8 M27.0 47.15 L24.85 45.45 26.95 43.45 28.7 46.0 M32.55 49.0 L28.7 48.45 27.75 47.75 29.9 46.3 29.4 45.55 M32.55 49.0 L33.05 48.95 37.3 44.15 Q29.1 41.1 37.0 34.1 M32.6 18.8 L35.0 17.2" fill="none" stroke="#000000" stroke-linecap="round" stroke-linejoin="round" stroke-opacity="0.48235294" stroke-width="0.05"/>
  </g>
</svg>
