<?xml version="1.0" encoding="UTF-8" standalone="no"?>
<svg xmlns:xlink="http://www.w3.org/1999/xlink" height="293.35px" width="221.45px" xmlns="http://www.w3.org/2000/svg">
  <g transform="matrix(1.0, 0.0, 0.0, 1.0, -164.25, -53.8)">
    <path d="M299.45 55.4 Q306.05 56.45 312.35 58.4 L306.75 66.3 Q299.45 64.3 291.65 63.5 L299.45 55.4 M373.65 207.55 Q368.9 216.4 362.25 224.4 L356.45 230.85 352.3 222.5 Q361.95 211.8 367.8 199.5 L373.65 207.55 M197.35 221.25 Q183.45 203.2 178.85 181.3 L186.05 173.8 187.3 180.75 Q190.5 194.95 197.95 207.4 200.0 210.8 202.4 214.1 L197.35 221.25 M250.3 132.9 L251.15 132.0 254.5 129.0 Q257.75 126.35 261.35 124.55 L265.3 132.75 Q262.6 134.15 260.15 136.2 L257.75 138.35 250.3 132.9" fill="#ffffff" fill-rule="evenodd" stroke="none"/>
    <path d="M236.9 73.3 Q251.3 65.75 268.0 63.7 L276.5 63.05 280.75 62.95 291.65 63.5 Q299.45 64.3 306.75 66.3 312.55 67.85 318.05 70.2 326.8 73.85 334.75 79.4 341.4 84.05 347.55 90.1 L348.5 91.0 354.1 97.05 353.85 97.3 357.45 101.2 Q363.75 109.4 368.0 118.45 372.95 129.15 375.05 141.0 376.2 147.65 376.5 154.65 L376.55 158.75 Q376.55 180.05 368.5 198.0 L367.8 199.5 Q361.95 211.8 352.3 222.5 L348.5 226.45 Q343.55 231.4 338.25 235.5 332.8 239.7 326.95 242.95 L330.95 213.45 332.25 212.15 Q342.6 201.8 348.05 189.45 L334.9 183.95 339.7 148.5 352.95 145.7 Q350.55 132.2 343.45 120.75 L347.4 91.25 Q341.0 85.7 334.05 81.5 328.45 78.15 322.55 75.65 313.7 71.9 304.05 70.1 295.8 68.55 286.95 68.45 L270.7 85.4 270.5 85.4 270.55 85.55 243.0 114.35 232.8 101.35 Q229.75 103.85 226.85 106.75 215.55 118.05 210.1 131.75 L221.7 136.55 189.6 170.05 Q190.05 178.4 191.8 186.2 193.9 195.7 197.95 204.4 200.1 209.05 202.85 213.5 205.4 217.65 208.45 221.6 205.2 217.95 202.4 214.1 200.0 210.8 197.95 207.4 190.5 194.95 187.3 180.75 L186.05 173.8 Q184.95 166.5 184.95 158.75 184.95 145.9 187.9 134.3 189.25 128.95 191.25 123.85 197.2 108.5 208.8 95.45 L213.0 91.0 Q216.3 87.7 219.75 84.8 227.9 77.95 236.9 73.3 M292.15 122.55 L295.15 123.75 Q300.45 126.1 305.1 130.25 L298.9 136.25 Q295.5 133.45 291.7 131.8 L289.05 130.8 292.15 122.55 M235.2 82.3 Q229.55 85.8 224.25 90.25 220.8 93.15 217.5 96.45 203.5 110.45 196.55 127.35 L268.05 69.8 Q250.3 72.85 235.2 82.3 M303.0 140.3 L303.3 140.7 Q307.8 146.1 309.35 152.75 L309.6 153.95 309.75 154.85 Q310.15 157.35 310.15 160.05 310.15 163.8 309.4 167.25 308.75 170.0 307.65 172.55 305.35 177.55 301.15 181.75 L299.8 183.05 298.15 184.45 Q291.3 189.8 282.65 190.6 L279.45 190.75 277.15 190.7 273.4 199.05 Q268.4 198.35 263.95 196.55 259.15 194.55 254.95 191.25 L261.75 185.2 257.75 181.75 256.7 180.7 Q254.3 178.05 252.6 175.1 250.55 171.55 249.6 167.55 248.75 164.0 248.75 160.05 L248.95 156.55 Q250.4 167.3 259.1 175.05 274.5 182.85 290.7 176.8 L291.45 176.5 Q304.9 170.85 306.6 152.0 L306.35 150.05 306.2 149.15 305.95 147.95 Q305.0 143.9 303.0 140.3" fill="#333333" fill-rule="evenodd" stroke="none"/>
    <path d="M287.6 54.1 L299.45 55.4 291.65 63.5 280.75 62.95 276.5 63.05 287.6 54.1 M312.35 58.4 Q325.85 62.5 337.8 70.4 L334.75 79.4 Q326.8 73.85 318.05 70.2 312.55 67.85 306.75 66.3 L312.35 58.4 M272.95 262.75 Q250.4 261.15 231.55 250.85 L235.85 243.65 Q239.05 245.4 242.4 246.85 257.85 253.6 275.75 254.45 L272.95 262.75 M212.45 237.4 L207.1 232.35 Q201.75 227.0 197.35 221.25 L202.4 214.1 Q205.2 217.95 208.45 221.6 L208.5 221.65 208.6 221.8 208.7 221.9 213.0 226.45 219.15 232.15 212.45 237.4 M178.85 181.3 Q176.5 170.35 176.5 158.45 176.5 150.3 177.6 142.6 L187.9 134.3 Q184.95 145.9 184.95 158.75 184.95 166.5 186.05 173.8 L178.85 181.3" fill="#999999" fill-rule="evenodd" stroke="none"/>
    <path d="M238.95 62.4 Q258.25 53.9 281.05 53.9 L287.6 54.1 276.5 63.05 268.0 63.7 Q251.3 65.75 236.9 73.3 L238.95 62.4 M337.8 70.4 Q343.6 74.25 349.05 79.0 L347.55 90.1 Q341.4 84.05 334.75 79.4 L337.8 70.4 M325.55 253.4 Q306.2 262.55 283.2 263.0 L281.05 263.0 272.95 262.75 275.75 254.45 280.75 254.55 289.95 254.15 Q310.05 252.4 326.95 242.95 L325.55 253.4 M231.55 250.85 Q221.45 245.35 212.45 237.4 L219.15 232.15 Q227.05 238.9 235.85 243.65 L231.55 250.85 M177.6 142.6 Q181.4 115.5 198.65 93.95 L208.8 95.45 Q197.2 108.5 191.25 123.85 189.25 128.95 187.9 134.3 L177.6 142.6 M239.65 161.35 L239.6 159.95 Q239.6 156.35 240.15 153.0 L249.5 153.0 Q249.1 154.75 248.95 156.55 L248.75 160.05 Q248.75 164.0 249.6 167.55 250.55 171.55 252.6 175.1 254.3 178.05 256.7 180.7 L257.75 181.75 261.75 185.2 254.95 191.25 251.15 187.85 249.9 186.55 Q242.9 178.95 240.7 169.45 239.75 165.55 239.65 161.35 M243.85 141.9 Q246.35 137.1 250.3 132.9 L257.75 138.35 Q254.65 141.45 252.65 145.0 L243.85 141.9 M262.25 141.3 L263.4 139.8 263.95 139.3 Q264.5 138.85 265.1 138.55 266.2 137.95 267.45 137.8 L268.3 137.75 270.5 138.1 271.1 138.3 272.7 139.3 273.25 139.8 273.7 140.35 Q274.75 141.55 275.1 143.05 L275.15 143.35 275.15 143.55 275.25 144.7 275.1 146.35 274.7 147.55 273.25 149.65 272.9 149.95 272.55 150.25 Q271.0 151.45 269.05 151.6 L268.3 151.65 267.8 151.65 265.6 151.1 264.3 150.4 263.4 149.65 263.15 149.4 Q261.95 148.05 261.55 146.4 L261.35 144.7 261.55 143.1 261.85 142.15 262.25 141.3" fill="#cccccc" fill-rule="evenodd" stroke="none"/>
    <path d="M270.55 85.55 L273.7 113.05 273.75 113.05 267.35 122.1 Q264.2 123.05 261.35 124.55 257.75 126.35 254.5 129.0 L251.15 132.0 250.3 132.9 Q246.35 137.1 243.85 141.9 L242.35 145.2 Q240.85 148.95 240.15 153.0 239.6 156.35 239.6 159.95 L239.65 161.35 232.65 171.25 232.55 171.2 206.85 176.65 Q209.25 187.25 214.75 196.65 L202.85 213.5 Q200.1 209.05 197.95 204.4 193.9 195.7 191.8 186.2 190.05 178.4 189.6 170.05 L221.7 136.55 234.7 142.0 Q238.15 133.6 245.1 126.65 247.25 124.5 249.55 122.7 L243.0 114.35 270.55 85.55 M292.85 86.0 Q286.4 84.9 279.55 84.9 L270.7 85.4 286.95 68.45 Q295.8 68.55 304.05 70.1 L292.85 86.0 M305.1 130.25 L307.0 132.0 309.8 135.1 Q312.2 137.95 313.95 141.15 316.95 146.7 318.0 153.1 L318.25 154.9 309.35 152.75 Q307.8 146.1 303.3 140.7 L303.0 140.3 301.15 138.35 298.9 136.25 305.1 130.25 M273.4 199.05 L277.15 190.7 279.45 190.75 282.65 190.6 Q291.3 189.8 298.15 184.45 L299.8 183.05 301.15 181.75 Q305.35 177.55 307.65 172.55 308.75 170.0 309.4 167.25 L317.3 170.25 Q316.55 173.1 315.4 175.8 312.5 182.35 307.0 187.85 L303.35 191.1 Q299.6 194.05 295.45 196.0 289.9 198.5 283.65 199.2 L279.05 199.4 273.4 199.05 M283.4 139.3 L284.7 140.5 285.9 141.85 Q288.45 144.9 289.35 148.7 L289.45 149.35 289.55 149.85 289.8 152.85 Q289.8 154.95 289.35 156.9 L288.35 159.9 Q287.05 162.75 284.7 165.15 L283.9 165.9 282.95 166.7 Q279.1 169.7 274.2 170.15 L272.35 170.25 271.05 170.2 Q268.1 170.0 265.55 168.9 263.85 168.2 262.3 167.1 261.1 166.2 260.05 165.15 L259.45 164.55 Q256.4 161.25 255.4 157.1 254.95 155.05 254.95 152.85 254.95 150.75 255.35 148.8 L256.1 146.4 257.15 144.3 Q258.3 142.25 260.05 140.5 L261.4 139.3 Q262.8 138.15 264.35 137.35 267.0 135.9 270.15 135.55 L272.35 135.4 Q275.25 135.4 277.8 136.2 L279.3 136.8 Q281.45 137.75 283.4 139.3 M262.25 141.3 L261.85 142.15 261.55 143.1 261.35 144.7 261.55 146.4 Q261.95 148.05 263.15 149.4 L263.4 149.65 264.3 150.4 265.6 151.1 267.8 151.65 268.3 151.65 269.05 151.6 Q271.0 151.45 272.55 150.25 L272.9 149.95 273.25 149.65 274.7 147.55 275.1 146.35 275.25 144.7 275.15 143.55 275.15 143.35 275.1 143.05 Q274.75 141.55 273.7 140.35 L273.25 139.8 272.7 139.3 271.1 138.3 270.5 138.1 268.3 137.75 267.45 137.8 Q266.2 137.95 265.1 138.55 264.5 138.85 263.95 139.3 L263.4 139.8 262.25 141.3" fill="#9d9d9d" fill-rule="evenodd" stroke="none"/>
    <path d="M273.7 113.05 L273.75 113.05 278.45 112.8 Q289.1 112.8 298.05 116.95 L309.25 90.8 Q301.45 87.4 292.85 86.0 L304.05 70.1 Q313.7 71.9 322.55 75.65 328.45 78.15 334.05 81.5 L318.5 127.65 315.2 130.45 316.85 132.55 313.95 141.15 Q312.2 137.95 309.8 135.1 L307.0 132.0 305.1 130.25 Q300.45 126.1 295.15 123.75 L292.15 122.55 Q286.05 120.45 279.05 120.45 L274.55 120.7 Q270.8 121.05 267.35 122.1 L273.75 113.05 273.7 113.05 M357.45 101.2 L353.85 97.3 354.1 97.05 357.45 101.2 M202.85 213.5 L214.75 196.65 Q218.5 203.1 223.8 208.95 L243.7 191.85 Q235.3 182.75 232.6 171.35 L232.55 171.2 232.65 171.25 239.65 161.35 Q239.75 165.55 240.7 169.45 242.9 178.95 249.9 186.55 L251.15 187.85 254.95 191.25 Q259.15 194.55 263.95 196.55 268.4 198.35 273.4 199.05 L279.05 199.4 283.65 199.2 Q289.9 198.5 295.45 196.0 L286.35 222.9 284.5 206.75 278.45 207.1 Q268.95 207.1 260.85 203.85 L250.35 228.3 Q263.75 234.0 279.55 234.0 L282.65 233.95 275.75 254.45 Q257.85 253.6 242.4 246.85 239.05 245.4 235.85 243.65 227.05 238.9 219.15 232.15 L213.0 226.45 208.7 221.9 208.6 221.8 208.5 221.65 208.45 221.6 Q205.4 217.65 202.85 213.5 M235.2 82.3 Q250.3 72.85 268.05 69.8 L196.55 127.35 Q203.5 110.45 217.5 96.45 220.8 93.15 224.25 90.25 229.55 85.8 235.2 82.3 M298.9 136.25 L301.15 138.35 303.0 140.3 Q305.0 143.9 305.95 147.95 L306.2 149.15 306.35 150.05 306.6 152.0 Q304.9 170.85 291.45 176.5 L290.7 176.8 Q274.5 182.85 259.1 175.05 250.4 167.3 248.95 156.55 249.1 154.75 249.5 153.0 250.0 150.8 250.8 148.75 251.55 146.8 252.65 145.0 254.65 141.45 257.75 138.35 L260.15 136.2 Q262.6 134.15 265.3 132.75 270.05 130.2 275.6 129.6 L279.45 129.35 Q284.55 129.35 289.05 130.8 L291.7 131.8 Q295.5 133.45 298.9 136.25 M283.4 139.3 Q281.45 137.75 279.3 136.8 L277.8 136.2 Q275.25 135.4 272.35 135.4 L270.15 135.55 Q267.0 135.9 264.35 137.35 262.8 138.15 261.4 139.3 L260.05 140.5 Q258.3 142.25 257.15 144.3 L256.1 146.4 255.35 148.8 Q254.95 150.75 254.95 152.85 254.95 155.05 255.4 157.1 256.4 161.25 259.45 164.55 L260.05 165.15 Q261.1 166.2 262.3 167.1 263.85 168.2 265.55 168.9 268.1 170.0 271.05 170.2 L272.35 170.25 274.2 170.15 Q279.1 169.7 282.95 166.7 L283.9 165.9 284.7 165.15 Q287.05 162.75 288.35 159.9 L289.35 156.9 Q289.8 154.95 289.8 152.85 L289.55 149.85 289.45 149.35 289.35 148.7 Q288.45 144.9 285.9 141.85 L284.7 140.5 283.4 139.3" fill="#666666" fill-rule="evenodd" stroke="none"/>
    <path d="M349.05 79.0 L354.95 84.5 Q383.15 112.7 385.4 151.65 L376.5 154.65 Q376.2 147.65 375.05 141.0 372.95 129.15 368.0 118.45 363.75 109.4 357.45 101.2 L354.1 97.05 348.5 91.0 347.55 90.1 349.05 79.0 M356.45 230.85 L354.95 232.35 Q341.5 245.85 325.55 253.4 L326.95 242.95 Q332.8 239.7 338.25 235.5 343.55 231.4 348.5 226.45 L352.3 222.5 356.45 230.85" fill="#e1e1e1" fill-rule="evenodd" stroke="none"/>
    <path d="M334.05 81.5 Q341.0 85.7 347.4 91.25 L343.45 120.75 Q340.55 116.1 336.9 111.8 L318.5 127.65 334.05 81.5 M339.7 148.5 L334.9 183.95 321.9 178.5 Q318.45 186.55 311.75 193.25 L307.85 196.8 325.0 218.65 330.95 213.45 326.95 242.95 Q310.05 252.4 289.95 254.15 L280.75 254.55 275.75 254.45 282.65 233.95 287.6 233.65 286.35 222.9 295.45 196.0 Q299.6 194.05 303.35 191.1 L307.0 187.85 Q312.5 182.35 315.4 175.8 316.55 173.1 317.3 170.25 L309.4 167.25 Q310.15 163.8 310.15 160.05 310.15 157.35 309.75 154.85 L309.6 153.95 309.35 152.75 318.25 154.9 318.0 153.1 Q316.95 146.7 313.95 141.15 L316.85 132.55 Q323.15 141.15 324.9 151.65 L339.7 148.5 M240.15 153.0 Q240.85 148.95 242.35 145.2 L243.85 141.9 252.65 145.0 Q251.55 146.8 250.8 148.75 250.0 150.8 249.5 153.0 L240.15 153.0 M261.35 124.55 Q264.2 123.05 267.35 122.1 270.8 121.05 274.55 120.7 L279.05 120.45 Q286.05 120.45 292.15 122.55 L289.05 130.8 Q284.55 129.35 279.45 129.35 L275.6 129.6 Q270.05 130.2 265.3 132.75 L261.35 124.55 M318.25 154.9 L318.55 159.95 Q318.55 165.35 317.3 170.25 318.55 165.35 318.55 159.95 L318.25 154.9" fill="#888888" fill-rule="evenodd" stroke="none"/>
    <path d="M385.4 151.65 L385.6 158.45 Q385.6 185.5 373.65 207.55 L367.8 199.5 368.5 198.0 Q376.55 180.05 376.55 158.75 L376.5 154.65 385.4 151.65 M198.65 93.95 Q202.55 89.1 207.1 84.5 221.6 70.0 238.95 62.4 L236.9 73.3 Q227.9 77.95 219.75 84.8 216.3 87.7 213.0 91.0 L208.8 95.45 198.65 93.95" fill="#aeaeae" fill-rule="evenodd" stroke="none"/>
    <path d="M238.95 62.4 Q258.25 53.9 281.05 53.9 L287.6 54.1 299.45 55.4 Q306.05 56.45 312.35 58.4 325.85 62.5 337.8 70.4 343.6 74.25 349.05 79.0 L354.95 84.5 Q383.15 112.7 385.4 151.65 L385.6 158.45 Q385.6 185.5 373.65 207.55 368.9 216.4 362.25 224.4 L356.45 230.85 354.95 232.35 Q341.5 245.85 325.55 253.4 306.2 262.55 283.2 263.0 L281.05 263.0 272.95 262.75 Q250.4 261.15 231.55 250.85 221.45 245.35 212.45 237.4 L207.1 232.35 Q201.75 227.0 197.35 221.25 183.45 203.2 178.85 181.3 176.5 170.35 176.5 158.45 176.5 150.3 177.6 142.6 181.4 115.5 198.65 93.95 202.55 89.1 207.1 84.5 221.6 70.0 238.95 62.4 M236.9 73.3 Q251.3 65.75 268.0 63.7 L276.5 63.05 280.75 62.95 291.65 63.5 Q299.45 64.3 306.75 66.3 312.55 67.85 318.05 70.2 326.8 73.85 334.75 79.4 341.4 84.05 347.55 90.1 L348.5 91.0 354.1 97.05 357.45 101.2 353.85 97.3 M326.95 242.95 Q332.8 239.7 338.25 235.5 343.55 231.4 348.5 226.45 L352.3 222.5 Q361.95 211.8 367.8 199.5 L368.5 198.0 Q376.55 180.05 376.55 158.75 L376.5 154.65 Q376.2 147.65 375.05 141.0 372.95 129.15 368.0 118.45 363.75 109.4 357.45 101.2 M239.65 161.35 L239.6 159.95 Q239.6 156.35 240.15 153.0 240.85 148.95 242.35 145.2 L243.85 141.9 Q246.35 137.1 250.3 132.9 L251.15 132.0 254.5 129.0 Q257.75 126.35 261.35 124.55 264.2 123.05 267.35 122.1 270.8 121.05 274.55 120.7 L279.05 120.45 Q286.05 120.45 292.15 122.55 L295.15 123.75 Q300.45 126.1 305.1 130.25 L307.0 132.0 309.8 135.1 Q312.2 137.95 313.95 141.15 316.95 146.7 318.0 153.1 L318.25 154.9 318.55 159.95 Q318.55 165.35 317.3 170.25 316.55 173.1 315.4 175.8 312.5 182.35 307.0 187.85 L303.35 191.1 Q299.6 194.05 295.45 196.0 289.9 198.5 283.65 199.2 L279.05 199.4 273.4 199.05 277.15 190.7 279.45 190.75 282.65 190.6 Q291.3 189.8 298.15 184.45 L299.8 183.05 301.15 181.75 Q305.35 177.55 307.65 172.55 308.75 170.0 309.4 167.25 310.15 163.8 310.15 160.05 310.15 157.35 309.75 154.85 L309.6 153.95 309.35 152.75 Q307.8 146.1 303.3 140.7 L303.0 140.3 301.15 138.35 298.9 136.25 Q295.5 133.45 291.7 131.8 L289.05 130.8 Q284.55 129.35 279.45 129.35 L275.6 129.6 Q270.05 130.2 265.3 132.75 262.6 134.15 260.15 136.2 L257.75 138.35 Q254.65 141.45 252.65 145.0 251.55 146.8 250.8 148.75 250.0 150.8 249.5 153.0 249.1 154.75 248.95 156.55 L248.75 160.05 Q248.75 164.0 249.6 167.55 250.55 171.55 252.6 175.1 254.3 178.05 256.7 180.7 L257.75 181.75 261.75 185.2 254.95 191.25 Q259.15 194.55 263.95 196.55 268.4 198.35 273.4 199.05 M208.8 95.45 L213.0 91.0 Q216.3 87.7 219.75 84.8 227.9 77.95 236.9 73.3 M208.8 95.45 Q197.2 108.5 191.25 123.85 189.25 128.95 187.9 134.3 184.95 145.9 184.95 158.75 184.95 166.5 186.05 173.8 L187.3 180.75 Q190.5 194.95 197.95 207.4 200.0 210.8 202.4 214.1 205.2 217.95 208.45 221.6 L208.5 221.65 208.6 221.8 208.7 221.9 213.0 226.45 219.15 232.15 Q227.05 238.9 235.85 243.65 239.05 245.4 242.4 246.85 257.85 253.6 275.75 254.45 L280.75 254.55 289.95 254.15 Q310.05 252.4 326.95 242.95 M254.95 191.25 L251.15 187.85 249.9 186.55 Q242.9 178.95 240.7 169.45 239.75 165.55 239.65 161.35" fill="none" stroke="#000000" stroke-linecap="round" stroke-linejoin="round" stroke-opacity="0.4" stroke-width="0.2"/>
    <path d="M299.45 55.4 Q306.05 56.45 312.35 58.4 325.85 62.5 337.8 70.4 343.6 74.25 349.05 79.0 L354.95 84.5 Q383.15 112.7 385.4 151.65 L385.6 158.45 Q385.6 185.5 373.65 207.55 368.9 216.4 362.25 224.4 L356.45 230.85 354.95 232.35 Q341.5 245.85 325.55 253.4 306.2 262.55 283.2 263.0 L281.05 263.0 272.95 262.75 Q250.4 261.15 231.55 250.85 221.45 245.35 212.45 237.4 L207.1 232.35 Q201.75 227.0 197.35 221.25 183.45 203.2 178.85 181.3 176.5 170.35 176.5 158.45 176.5 150.3 177.6 142.6 181.4 115.5 198.65 93.95 202.55 89.1 207.1 84.5 221.6 70.0 238.95 62.4 258.25 53.9 281.05 53.9 L287.6 54.1 299.45 55.4 M273.7 113.05 L273.75 113.05 278.45 112.8 Q289.1 112.8 298.05 116.95 L309.25 90.8 Q301.45 87.4 292.85 86.0 286.4 84.9 279.55 84.9 L270.7 85.4 270.5 85.4 273.7 113.05 M348.05 189.45 L321.9 178.5 Q318.45 186.55 311.75 193.25 L307.85 196.8 325.0 218.65 330.95 213.45 332.25 212.15 Q342.6 201.8 348.05 189.45 M324.9 151.65 L352.95 145.7 Q350.55 132.2 343.45 120.75 340.55 116.1 336.9 111.8 L315.2 130.45 316.85 132.55 Q323.15 141.15 324.9 151.65 M206.85 176.65 Q209.25 187.25 214.75 196.65 218.5 203.1 223.8 208.95 L243.7 191.85 Q235.3 182.75 232.6 171.35 L232.55 171.2 206.85 176.65 M232.8 101.35 Q229.75 103.85 226.85 106.75 215.55 118.05 210.1 131.75 L234.7 142.0 Q238.15 133.6 245.1 126.65 247.25 124.5 249.55 122.7 L232.8 101.35 M278.45 207.1 Q268.95 207.1 260.85 203.85 L250.35 228.3 Q263.75 234.0 279.55 234.0 L282.65 233.95 287.6 233.65 284.5 206.75 278.45 207.1" fill="#000000" fill-opacity="0.38039216" fill-rule="evenodd" stroke="none"/>
    <path d="M230.5 118.45 Q249.25 99.7 275.8 99.7 302.35 99.7 321.1 118.45 339.85 137.2 339.85 163.75 339.85 190.3 321.1 209.05 302.35 227.8 275.8 227.8 249.25 227.8 230.5 209.05 211.75 190.3 211.75 163.75 211.75 137.2 230.5 118.45" fill="#333333" fill-rule="evenodd" stroke="none"/>
    <path d="M311.6 124.1 Q330.35 142.85 330.35 169.4 330.35 195.95 311.6 214.7 292.85 233.45 266.3 233.45 239.75 233.45 221.0 214.7 202.25 195.95 202.25 169.4 202.25 142.85 221.0 124.1 239.75 105.35 266.3 105.35 292.85 105.35 311.6 124.1" fill="#000000" fill-rule="evenodd" stroke="none"/>
    <path d="M339.2 221.8 L320.15 264.5 Q326.45 261.75 332.8 259.05 L339.35 240.55 348.25 218.4 357.35 215.0 Q347.15 237.7 340.1 255.9 L337.0 264.15 Q331.65 278.55 328.6 289.85 L326.9 296.35 Q324.75 305.45 324.35 312.05 L317.9 319.35 319.85 301.0 306.45 309.8 302.85 336.3 293.3 347.05 293.55 344.35 Q295.05 329.4 297.65 315.55 298.25 312.05 299.0 308.6 302.45 291.9 307.5 276.8 L310.4 268.7 Q311.8 264.85 313.35 261.15 321.75 241.0 333.35 224.0 L339.2 221.8 M348.6 224.55 L341.35 237.55 345.35 237.55 351.35 223.8 348.6 224.55 M340.6 242.55 L335.85 253.3 339.1 252.05 342.85 241.8 340.6 242.55 M331.1 230.3 L324.6 243.55 328.1 241.3 335.6 228.05 331.1 230.3 M322.6 248.55 L316.55 262.9 319.1 261.3 325.85 247.05 322.6 248.55 M340.1 255.9 L332.8 259.05 332.35 260.3 332.8 259.05 340.1 255.9 M316.55 262.9 L315.85 263.3 316.55 262.9 M329.6 272.3 L324.35 288.55 327.6 287.05 332.85 271.05 329.6 272.3 M329.4 267.4 L337.0 264.15 329.4 267.4 314.6 273.75 307.35 303.3 321.65 294.2 329.4 267.4 M328.6 289.85 L321.65 294.2 328.6 289.85 M320.15 264.5 L310.4 268.7 320.15 264.5 M307.85 296.3 L310.85 281.05 308.1 283.3 304.6 298.05 307.85 296.3 M297.65 315.55 L306.45 309.8 297.65 315.55 M299.0 308.6 L307.35 303.3 299.0 308.6 M300.1 320.05 L297.6 334.6 301.1 329.85 302.85 318.05 300.1 320.05 M322.85 309.85 L323.85 302.1 321.35 302.85 320.35 313.35 322.85 309.85 M307.5 276.8 L314.6 273.75 307.5 276.8 M319.85 301.0 L326.9 296.35 319.85 301.0" fill="#333333" fill-rule="evenodd" stroke="none"/>
    <path d="M339.2 221.8 L348.25 218.4 339.35 240.55 332.8 259.05 Q326.45 261.75 320.15 264.5 L339.2 221.8 M317.9 319.35 L302.85 336.3 306.45 309.8 319.85 301.0 317.9 319.35 M329.4 267.4 L321.65 294.2 307.35 303.3 314.6 273.75 329.4 267.4" fill="#cccccc" fill-rule="evenodd" stroke="none"/>
    <path d="M348.25 218.4 L339.2 221.8 320.15 264.5 Q326.45 261.75 332.8 259.05 L339.35 240.55 348.25 218.4 357.35 215.0 Q347.15 237.7 340.1 255.9 L337.0 264.15 Q331.65 278.55 328.6 289.85 L326.9 296.35 Q324.75 305.45 324.35 312.05 L317.9 319.35 302.85 336.3 293.3 347.05 293.55 344.35 Q295.05 329.4 297.65 315.55 298.25 312.05 299.0 308.6 302.45 291.9 307.5 276.8 L310.4 268.7 Q311.8 264.85 313.35 261.15 321.75 241.0 333.35 224.0 L339.2 221.8 M348.6 224.55 L341.35 237.55 345.35 237.55 351.35 223.8 348.6 224.55 M340.6 242.55 L335.85 253.3 339.1 252.05 342.85 241.8 340.6 242.55 M331.1 230.3 L324.6 243.55 328.1 241.3 335.6 228.05 331.1 230.3 M322.6 248.55 L316.55 262.9 319.1 261.3 325.85 247.05 322.6 248.55 M315.85 263.3 L316.55 262.9 M332.35 260.3 L332.8 259.05 340.1 255.9 M329.6 272.3 L324.35 288.55 327.6 287.05 332.85 271.05 329.6 272.3 M337.0 264.15 L329.4 267.4 321.65 294.2 328.6 289.85 M329.4 267.4 L314.6 273.75 307.35 303.3 321.65 294.2 M310.4 268.7 L320.15 264.5 M307.85 296.3 L310.85 281.05 308.1 283.3 304.6 298.05 307.85 296.3 M307.35 303.3 L299.0 308.6 M306.45 309.8 L297.65 315.55 M300.1 320.05 L297.6 334.6 301.1 329.85 302.85 318.05 300.1 320.05 M319.85 301.0 L317.9 319.35 M322.85 309.85 L323.85 302.1 321.35 302.85 320.35 313.35 322.85 309.85 M319.85 301.0 L306.45 309.8 302.85 336.3 M326.9 296.35 L319.85 301.0 M314.6 273.75 L307.5 276.8" fill="none" stroke="#000000" stroke-linecap="round" stroke-linejoin="round" stroke-opacity="0.4" stroke-width="0.2"/>
    <path d="M294.6 77.8 Q287.3 75.8 279.5 75.0 L287.3 66.9 Q293.9 67.95 300.2 69.9 L294.6 77.8 M173.9 185.3 Q174.4 188.8 175.15 192.25 178.35 206.45 185.8 218.9 187.85 222.3 190.25 225.6 L185.2 232.75 Q171.3 214.7 166.7 192.8 L173.9 185.3 M340.15 234.0 Q349.8 223.3 355.65 211.0 L361.5 219.05 Q356.75 227.9 350.1 235.9 L344.3 242.35 340.15 234.0 M238.15 144.4 L239.0 143.5 Q240.6 141.9 242.35 140.5 245.6 137.85 249.2 136.05 L253.15 144.25 Q250.45 145.65 248.0 147.7 L245.6 149.85 238.15 144.4" fill="#ffffff" fill-rule="evenodd" stroke="none"/>
    <path d="M279.5 75.0 Q287.3 75.8 294.6 77.8 300.4 79.35 305.9 81.7 314.65 85.35 322.6 90.9 329.25 95.55 335.4 101.6 L336.35 102.5 341.95 108.55 341.7 108.8 345.3 112.7 Q351.6 120.9 355.85 129.95 360.8 140.65 362.9 152.5 364.05 159.15 364.35 166.15 L364.4 170.25 Q364.4 191.55 356.35 209.5 L355.65 211.0 Q349.8 223.3 340.15 234.0 L336.35 237.95 Q331.4 242.9 326.1 247.0 320.65 251.2 314.8 254.45 L318.8 224.95 320.1 223.65 Q330.45 213.3 335.9 200.95 L322.75 195.45 327.55 160.0 340.8 157.2 Q338.4 143.7 331.3 132.25 L335.25 102.75 Q328.85 97.2 321.9 93.0 316.3 89.65 310.4 87.15 301.55 83.4 291.9 81.6 283.65 80.05 274.8 79.95 L258.55 96.9 258.35 96.9 258.4 97.05 230.85 125.85 220.65 112.85 Q217.6 115.35 214.7 118.25 203.4 129.55 197.95 143.25 L209.55 148.05 177.45 181.55 Q177.9 189.9 179.65 197.7 181.75 207.2 185.8 215.9 187.95 220.55 190.7 225.0 193.25 229.15 196.3 233.1 193.05 229.45 190.25 225.6 187.85 222.3 185.8 218.9 178.35 206.45 175.15 192.25 174.4 188.8 173.9 185.3 172.8 178.0 172.8 170.25 172.8 157.4 175.75 145.8 177.1 140.45 179.1 135.35 185.05 120.0 196.65 106.95 L200.85 102.5 Q204.15 99.2 207.6 96.3 215.75 89.45 224.75 84.8 239.15 77.25 255.85 75.2 L264.35 74.55 268.6 74.45 279.5 75.0 M223.05 93.8 Q217.4 97.3 212.1 101.75 L205.35 107.95 Q191.35 121.95 184.4 138.85 L255.9 81.3 Q238.15 84.35 223.05 93.8 M280.0 134.05 L283.0 135.25 Q288.3 137.6 292.95 141.75 L286.75 147.75 Q283.35 144.95 279.55 143.3 L276.9 142.3 280.0 134.05 M290.85 151.8 L291.15 152.2 Q295.65 157.6 297.2 164.25 L297.45 165.45 297.6 166.35 Q298.0 168.85 298.0 171.55 298.0 175.3 297.25 178.75 L295.5 184.05 Q293.2 189.05 289.0 193.25 L287.65 194.55 286.0 195.95 Q279.15 201.3 270.5 202.1 L267.3 202.25 265.0 202.2 261.25 210.55 Q256.25 209.85 251.8 208.05 247.0 206.05 242.8 202.75 L249.6 196.7 245.6 193.25 244.55 192.2 Q242.15 189.55 240.45 186.6 238.4 183.05 237.45 179.05 236.6 175.5 236.6 171.55 L236.8 168.05 Q238.25 178.8 246.95 186.55 262.35 194.35 278.55 188.3 L279.3 188.0 Q292.75 182.35 294.45 163.5 L294.2 161.55 294.05 160.65 293.8 159.45 Q292.85 155.4 290.85 151.8" fill="#333333" fill-rule="evenodd" stroke="none"/>
    <path d="M294.6 77.8 L300.2 69.9 Q313.7 74.0 325.65 81.9 L322.6 90.9 Q314.65 85.35 305.9 81.7 300.4 79.35 294.6 77.8 M287.3 66.9 L279.5 75.0 268.6 74.45 264.35 74.55 275.45 65.6 Q281.5 65.9 287.3 66.9 M175.75 145.8 Q172.8 157.4 172.8 170.25 172.8 178.0 173.9 185.3 L166.7 192.8 Q164.35 181.85 164.35 169.95 164.35 161.8 165.45 154.1 L175.75 145.8 M190.25 225.6 Q193.05 229.45 196.3 233.1 L196.35 233.15 196.45 233.3 196.55 233.4 200.85 237.95 207.0 243.65 200.3 248.9 194.95 243.85 Q189.6 238.5 185.2 232.75 L190.25 225.6 M260.8 274.25 Q238.25 272.65 219.4 262.35 L223.7 255.15 Q226.9 256.9 230.25 258.35 245.7 265.1 263.6 265.95 L260.8 274.25" fill="#999999" fill-rule="evenodd" stroke="none"/>
    <path d="M264.35 74.55 L255.85 75.2 Q239.15 77.25 224.75 84.8 L226.8 73.9 Q246.1 65.4 268.9 65.4 L275.45 65.6 264.35 74.55 M196.65 106.95 Q185.05 120.0 179.1 135.35 177.1 140.45 175.75 145.8 L165.45 154.1 Q169.25 127.0 186.5 105.45 L196.65 106.95 M335.4 101.6 Q329.25 95.55 322.6 90.9 L325.65 81.9 Q331.45 85.75 336.9 90.5 L335.4 101.6 M313.4 264.9 Q294.05 274.05 271.05 274.5 L268.9 274.5 260.8 274.25 263.6 265.95 268.6 266.05 277.8 265.65 Q297.9 263.9 314.8 254.45 L313.4 264.9 M219.4 262.35 Q209.3 256.85 200.3 248.9 L207.0 243.65 Q214.9 250.4 223.7 255.15 L219.4 262.35 M227.5 172.85 L227.45 171.45 Q227.45 167.85 228.0 164.5 L237.35 164.5 Q236.95 166.25 236.8 168.05 L236.6 171.55 Q236.6 175.5 237.45 179.05 238.4 183.05 240.45 186.6 242.15 189.55 244.55 192.2 L245.6 193.25 249.6 196.7 242.8 202.75 239.0 199.35 237.75 198.05 Q230.75 190.45 228.55 180.95 227.6 177.05 227.5 172.85 M231.7 153.4 Q234.2 148.6 238.15 144.4 L245.6 149.85 Q242.5 152.95 240.5 156.5 L231.7 153.4 M250.1 152.8 L251.25 151.3 251.8 150.8 252.95 150.05 Q254.05 149.45 255.3 149.3 L256.15 149.25 258.35 149.6 258.95 149.8 260.55 150.8 261.1 151.3 261.55 151.85 Q262.6 153.05 262.95 154.55 L263.0 154.85 263.0 155.05 263.1 156.2 262.95 157.85 262.55 159.05 261.1 161.15 260.75 161.45 260.4 161.75 Q258.85 162.95 256.9 163.1 L256.15 163.15 255.65 163.15 253.45 162.6 252.15 161.9 251.25 161.15 251.0 160.9 Q249.8 159.55 249.4 157.9 L249.2 156.2 249.4 154.6 249.7 153.65 250.1 152.8" fill="#cccccc" fill-rule="evenodd" stroke="none"/>
    <path d="M190.7 225.0 Q187.95 220.55 185.8 215.9 181.75 207.2 179.65 197.7 177.9 189.9 177.45 181.55 L209.55 148.05 222.55 153.5 Q226.0 145.1 232.95 138.15 235.1 136.0 237.4 134.2 L230.85 125.85 258.4 97.05 261.55 124.55 261.6 124.55 255.2 133.6 Q252.05 134.55 249.2 136.05 245.6 137.85 242.35 140.5 240.6 141.9 239.0 143.5 L238.15 144.4 Q234.2 148.6 231.7 153.4 L230.2 156.7 Q228.7 160.45 228.0 164.5 227.45 167.85 227.45 171.45 L227.5 172.85 220.5 182.75 220.4 182.7 194.7 188.15 Q197.1 198.75 202.6 208.15 L190.7 225.0 M258.55 96.9 L274.8 79.95 Q283.65 80.05 291.9 81.6 L280.7 97.5 Q274.25 96.4 267.4 96.4 L258.55 96.9 M292.95 141.75 L294.85 143.5 297.65 146.6 Q300.05 149.45 301.8 152.65 304.8 158.2 305.85 164.6 L306.1 166.4 297.2 164.25 Q295.65 157.6 291.15 152.2 L290.85 151.8 289.0 149.85 286.75 147.75 292.95 141.75 M261.25 210.55 L265.0 202.2 267.3 202.25 270.5 202.1 Q279.15 201.3 286.0 195.95 L287.65 194.55 289.0 193.25 Q293.2 189.05 295.5 184.05 L297.25 178.75 305.15 181.75 Q304.4 184.6 303.25 187.3 300.35 193.85 294.85 199.35 L291.2 202.6 Q287.45 205.55 283.3 207.5 277.75 210.0 271.5 210.7 L266.9 210.9 261.25 210.55 M271.25 150.8 L272.55 152.0 273.75 153.35 Q276.3 156.4 277.2 160.2 L277.3 160.85 277.4 161.35 277.65 164.35 Q277.65 166.45 277.2 168.4 L276.2 171.4 Q274.9 174.25 272.55 176.65 L271.75 177.4 270.8 178.2 Q266.95 181.2 262.05 181.65 L260.2 181.75 258.9 181.7 Q255.95 181.5 253.4 180.4 251.7 179.7 250.15 178.6 L247.9 176.65 247.3 176.05 Q244.25 172.75 243.25 168.6 242.8 166.55 242.8 164.35 242.8 162.25 243.2 160.3 L243.95 157.9 Q244.35 156.8 245.0 155.8 246.15 153.75 247.9 152.0 L249.25 150.8 Q250.65 149.65 252.2 148.85 254.85 147.4 258.0 147.05 L260.2 146.9 Q263.1 146.9 265.65 147.7 L267.15 148.3 Q269.3 149.25 271.25 150.8 M250.1 152.8 L249.7 153.65 249.4 154.6 249.2 156.2 249.4 157.9 Q249.8 159.55 251.0 160.9 L251.25 161.15 252.15 161.9 253.45 162.6 255.65 163.15 256.15 163.15 256.9 163.1 Q258.85 162.95 260.4 161.75 L260.75 161.45 261.1 161.15 262.55 159.05 262.95 157.85 263.1 156.2 263.0 155.05 263.0 154.85 262.95 154.55 Q262.6 153.05 261.55 151.85 L261.1 151.3 260.55 150.8 258.95 149.8 258.35 149.6 256.15 149.25 255.3 149.3 Q254.05 149.45 252.95 150.05 L251.8 150.8 251.25 151.3 250.1 152.8" fill="#9d9d9d" fill-rule="evenodd" stroke="none"/>
    <path d="M196.3 233.1 Q193.25 229.15 190.7 225.0 L202.6 208.15 Q206.35 214.6 211.65 220.45 L231.55 203.35 Q223.15 194.25 220.45 182.85 L220.4 182.7 220.5 182.75 227.5 172.85 Q227.6 177.05 228.55 180.95 230.75 190.45 237.75 198.05 L239.0 199.35 242.8 202.75 Q247.0 206.05 251.8 208.05 256.25 209.85 261.25 210.55 L266.9 210.9 271.5 210.7 Q277.75 210.0 283.3 207.5 L274.2 234.4 272.35 218.25 266.3 218.6 Q256.8 218.6 248.7 215.35 L238.2 239.8 Q251.6 245.5 267.4 245.5 L270.5 245.45 263.6 265.95 Q245.7 265.1 230.25 258.35 226.9 256.9 223.7 255.15 214.9 250.4 207.0 243.65 L200.85 237.95 196.55 233.4 196.45 233.3 196.35 233.15 196.3 233.1 M291.9 81.6 Q301.55 83.4 310.4 87.15 316.3 89.65 321.9 93.0 L306.35 139.15 303.05 141.95 304.7 144.05 301.8 152.65 Q300.05 149.45 297.65 146.6 L294.85 143.5 292.95 141.75 Q288.3 137.6 283.0 135.25 L280.0 134.05 Q273.9 131.95 266.9 131.95 L262.4 132.2 Q258.65 132.55 255.2 133.6 L261.6 124.55 261.55 124.55 261.6 124.55 266.3 124.3 Q276.95 124.3 285.9 128.45 L297.1 102.3 Q289.3 98.9 280.7 97.5 L291.9 81.6 M345.3 112.7 L341.7 108.8 341.95 108.55 345.3 112.7 M223.05 93.8 Q238.15 84.35 255.9 81.3 L184.4 138.85 Q191.35 121.95 205.35 107.95 L212.1 101.75 Q217.4 97.3 223.05 93.8 M286.75 147.75 L289.0 149.85 290.85 151.8 Q292.85 155.4 293.8 159.45 L294.05 160.65 294.2 161.55 294.45 163.5 Q292.75 182.35 279.3 188.0 L278.55 188.3 Q262.35 194.35 246.95 186.55 238.25 178.8 236.8 168.05 236.95 166.25 237.35 164.5 237.85 162.3 238.65 160.25 239.4 158.3 240.5 156.5 242.5 152.95 245.6 149.85 L248.0 147.7 Q250.45 145.65 253.15 144.25 257.9 141.7 263.45 141.1 L267.3 140.85 Q272.4 140.85 276.9 142.3 L279.55 143.3 Q283.35 144.95 286.75 147.75 M271.25 150.8 Q269.3 149.25 267.15 148.3 L265.65 147.7 Q263.1 146.9 260.2 146.9 L258.0 147.05 Q254.85 147.4 252.2 148.85 250.65 149.65 249.25 150.8 L247.9 152.0 Q246.15 153.75 245.0 155.8 244.35 156.8 243.95 157.9 L243.2 160.3 Q242.8 162.25 242.8 164.35 242.8 166.55 243.25 168.6 244.25 172.75 247.3 176.05 L247.9 176.65 250.15 178.6 Q251.7 179.7 253.4 180.4 255.95 181.5 258.9 181.7 L260.2 181.75 262.05 181.65 Q266.95 181.2 270.8 178.2 L271.75 177.4 272.55 176.65 Q274.9 174.25 276.2 171.4 L277.2 168.4 Q277.65 166.45 277.65 164.35 L277.4 161.35 277.3 160.85 277.2 160.2 Q276.3 156.4 273.75 153.35 L272.55 152.0 271.25 150.8" fill="#666666" fill-rule="evenodd" stroke="none"/>
    <path d="M314.8 254.45 Q320.65 251.2 326.1 247.0 331.4 242.9 336.35 237.95 L340.15 234.0 344.3 242.35 342.8 243.85 Q329.35 257.35 313.4 264.9 L314.8 254.45 M364.35 166.15 Q364.05 159.15 362.9 152.5 360.8 140.65 355.85 129.95 351.6 120.9 345.3 112.7 L341.95 108.55 336.35 102.5 335.4 101.6 336.9 90.5 342.8 96.0 Q371.0 124.2 373.25 163.15 L364.35 166.15" fill="#e1e1e1" fill-rule="evenodd" stroke="none"/>
    <path d="M321.9 93.0 Q328.85 97.2 335.25 102.75 L331.3 132.25 Q328.4 127.6 324.75 123.3 L306.35 139.15 321.9 93.0 M327.55 160.0 L322.75 195.45 309.75 190.0 Q306.3 198.05 299.6 204.75 L295.7 208.3 312.85 230.15 318.8 224.95 314.8 254.45 Q297.9 263.9 277.8 265.65 L268.6 266.05 263.6 265.95 270.5 245.45 275.45 245.15 274.2 234.4 283.3 207.5 Q287.45 205.55 291.2 202.6 L294.85 199.35 Q300.35 193.85 303.25 187.3 304.4 184.6 305.15 181.75 L297.25 178.75 Q298.0 175.3 298.0 171.55 298.0 168.85 297.6 166.35 L297.45 165.45 297.2 164.25 306.1 166.4 305.85 164.6 Q304.8 158.2 301.8 152.65 L304.7 144.05 Q311.0 152.65 312.75 163.15 L327.55 160.0 M228.0 164.5 Q228.7 160.45 230.2 156.7 L231.7 153.4 240.5 156.5 Q239.4 158.3 238.65 160.25 237.85 162.3 237.35 164.5 L228.0 164.5 M249.2 136.05 Q252.05 134.55 255.2 133.6 258.65 132.55 262.4 132.2 L266.9 131.95 Q273.9 131.95 280.0 134.05 L276.9 142.3 Q272.4 140.85 267.3 140.85 L263.45 141.1 Q257.9 141.7 253.15 144.25 L249.2 136.05 M306.1 166.4 L306.4 171.45 Q306.4 176.85 305.15 181.75 306.4 176.85 306.4 171.45 L306.1 166.4" fill="#888888" fill-rule="evenodd" stroke="none"/>
    <path d="M224.75 84.8 Q215.75 89.45 207.6 96.3 204.15 99.2 200.85 102.5 L196.65 106.95 186.5 105.45 Q190.4 100.6 194.95 96.0 209.45 81.5 226.8 73.9 L224.75 84.8 M355.65 211.0 L356.35 209.5 Q364.4 191.55 364.4 170.25 L364.35 166.15 373.25 163.15 373.45 169.95 Q373.45 197.0 361.5 219.05 L355.65 211.0" fill="#aeaeae" fill-rule="evenodd" stroke="none"/>
    <path d="M279.5 75.0 Q287.3 75.8 294.6 77.8 300.4 79.35 305.9 81.7 314.65 85.35 322.6 90.9 329.25 95.55 335.4 101.6 L336.35 102.5 341.95 108.55 345.3 112.7 341.7 108.8 M300.2 69.9 Q293.9 67.95 287.3 66.9 281.5 65.9 275.45 65.6 L268.9 65.4 Q246.1 65.4 226.8 73.9 209.45 81.5 194.95 96.0 190.4 100.6 186.5 105.45 169.25 127.0 165.45 154.1 164.35 161.8 164.35 169.95 164.35 181.85 166.7 192.8 171.3 214.7 185.2 232.75 189.6 238.5 194.95 243.85 L200.3 248.9 Q209.3 256.85 219.4 262.35 238.25 272.65 260.8 274.25 L268.9 274.5 271.05 274.5 Q294.05 274.05 313.4 264.9 329.35 257.35 342.8 243.85 L344.3 242.35 350.1 235.9 Q356.75 227.9 361.5 219.05 373.45 197.0 373.45 169.95 L373.25 163.15 Q371.0 124.2 342.8 96.0 L336.9 90.5 Q331.45 85.75 325.65 81.9 313.7 74.0 300.2 69.9 M279.5 75.0 L268.6 74.45 264.35 74.55 255.85 75.2 Q239.15 77.25 224.75 84.8 215.75 89.45 207.6 96.3 204.15 99.2 200.85 102.5 L196.65 106.95 Q185.05 120.0 179.1 135.35 177.1 140.45 175.75 145.8 172.8 157.4 172.8 170.25 172.8 178.0 173.9 185.3 174.4 188.8 175.15 192.25 178.35 206.45 185.8 218.9 187.85 222.3 190.25 225.6 193.05 229.45 196.3 233.1 L196.35 233.15 196.45 233.3 196.55 233.4 200.85 237.95 207.0 243.65 Q214.9 250.4 223.7 255.15 226.9 256.9 230.25 258.35 245.7 265.1 263.6 265.95 L268.6 266.05 277.8 265.65 Q297.9 263.9 314.8 254.45 320.65 251.2 326.1 247.0 331.4 242.9 336.35 237.95 L340.15 234.0 Q349.8 223.3 355.65 211.0 L356.35 209.5 Q364.4 191.55 364.4 170.25 L364.35 166.15 Q364.05 159.15 362.9 152.5 360.8 140.65 355.85 129.95 351.6 120.9 345.3 112.7 M227.5 172.85 L227.45 171.45 Q227.45 167.85 228.0 164.5 228.7 160.45 230.2 156.7 L231.7 153.4 Q234.2 148.6 238.15 144.4 L239.0 143.5 Q240.6 141.9 242.35 140.5 245.6 137.85 249.2 136.05 252.05 134.55 255.2 133.6 258.65 132.55 262.4 132.2 L266.9 131.95 Q273.9 131.95 280.0 134.05 L283.0 135.25 Q288.3 137.6 292.95 141.75 L294.85 143.5 297.65 146.6 Q300.05 149.45 301.8 152.65 304.8 158.2 305.85 164.6 L306.1 166.4 306.4 171.45 Q306.4 176.85 305.15 181.75 304.4 184.6 303.25 187.3 300.35 193.85 294.85 199.35 L291.2 202.6 Q287.45 205.55 283.3 207.5 277.75 210.0 271.5 210.7 L266.9 210.9 261.25 210.55 265.0 202.2 267.3 202.25 270.5 202.1 Q279.15 201.3 286.0 195.95 L287.65 194.55 289.0 193.25 Q293.2 189.05 295.5 184.05 L297.25 178.75 Q298.0 175.3 298.0 171.55 298.0 168.85 297.6 166.35 L297.45 165.45 297.2 164.25 Q295.65 157.6 291.15 152.2 L290.85 151.8 289.0 149.85 286.75 147.75 Q283.35 144.95 279.55 143.3 L276.9 142.3 Q272.4 140.85 267.3 140.85 L263.45 141.1 Q257.9 141.7 253.15 144.25 250.45 145.65 248.0 147.7 L245.6 149.85 Q242.5 152.95 240.5 156.5 239.4 158.3 238.65 160.25 237.85 162.3 237.35 164.5 236.95 166.25 236.8 168.05 L236.6 171.55 Q236.6 175.5 237.45 179.05 238.4 183.05 240.45 186.6 242.15 189.55 244.55 192.2 L245.6 193.25 249.6 196.7 242.8 202.75 Q247.0 206.05 251.8 208.05 256.25 209.85 261.25 210.55 M242.8 202.75 L239.0 199.35 237.75 198.05 Q230.75 190.45 228.55 180.95 227.6 177.05 227.5 172.85" fill="none" stroke="#000000" stroke-linecap="round" stroke-linejoin="round" stroke-opacity="0.4" stroke-width="0.2"/>
  </g>
</svg>
