<?xml version="1.0" encoding="UTF-8" standalone="no"?>
<svg xmlns:xlink="http://www.w3.org/1999/xlink" height="40.3px" width="27.85px" xmlns="http://www.w3.org/2000/svg">
  <g transform="matrix(1.0, 0.0, 0.0, 1.0, -261.55, -177.65)">
    <path d="M266.9 210.05 L266.6 204.55 267.55 209.65 268.1 210.15 268.1 210.2 267.8 211.3 266.9 210.05" fill="#c2a561" fill-rule="evenodd" stroke="none"/>
    <path d="M266.9 210.05 L267.8 211.3 267.55 212.4 267.0 211.55 266.9 210.05" fill="#e8d3a8" fill-rule="evenodd" stroke="none"/>
    <path d="M267.8 211.3 L268.1 210.2 268.95 210.9 268.7 212.6 267.55 212.4 267.8 211.3" fill="#927b47" fill-rule="evenodd" stroke="none"/>
    <path d="M268.1 210.2 L268.1 210.15 267.55 209.65 266.6 204.55 266.9 210.05 M268.1 210.2 L268.95 210.9 268.7 212.6 267.55 212.4" fill="none" stroke="#382510" stroke-linecap="round" stroke-linejoin="round" stroke-opacity="0.3019608" stroke-width="0.05"/>
    <path d="M270.55 214.0 L267.55 209.7 271.15 212.75 271.65 213.4 271.7 213.5 272.0 214.5 270.55 214.0" fill="#c2a561" fill-rule="evenodd" stroke="none"/>
    <path d="M272.3 215.6 L271.4 215.15 270.55 214.0 272.0 214.5 272.3 215.6" fill="#e8d3a8" fill-rule="evenodd" stroke="none"/>
    <path d="M271.7 213.5 L272.8 213.6 273.4 215.1 272.3 215.6 272.0 214.5 271.7 213.5" fill="#927b47" fill-rule="evenodd" stroke="none"/>
    <path d="M270.55 214.0 L267.55 209.7 271.15 212.75 271.65 213.4 271.7 213.5 272.8 213.6 273.4 215.1 272.3 215.6" fill="none" stroke="#382510" stroke-linecap="round" stroke-linejoin="round" stroke-opacity="0.3019608" stroke-width="0.05"/>
    <path d="M279.4 216.25 L280.4 215.3 282.1 215.5 280.7 216.8 279.4 216.25" fill="#927b47" fill-rule="evenodd" stroke="none"/>
    <path d="M279.4 216.25 L278.6 217.05 276.0 215.9 275.65 214.75 280.4 215.3 279.4 216.25" fill="#c2a561" fill-rule="evenodd" stroke="none"/>
    <path d="M276.0 215.9 L278.6 217.05 277.65 217.95 276.35 217.15 276.0 215.9" fill="#e8d3a8" fill-rule="evenodd" stroke="none"/>
    <path d="M278.6 217.05 L279.4 216.25 280.7 216.8 279.9 217.5 277.65 217.95 278.6 217.05" fill="#b19741" fill-rule="evenodd" stroke="none"/>
    <path d="M280.4 215.3 L275.65 214.75 M277.65 217.95 L279.9 217.5 280.7 216.8 282.1 215.5 280.4 215.3 M277.65 217.95 L276.35 217.15 276.0 215.9" fill="none" stroke="#382510" stroke-linecap="round" stroke-linejoin="round" stroke-opacity="0.3019608" stroke-width="0.05"/>
    <path d="M283.0 203.0 L282.95 203.25 282.2 201.85 281.9 201.2 Q280.9 198.8 280.35 196.3 L280.0 193.95 282.2 198.6 283.0 203.0 M274.9 211.9 L272.9 202.1 269.85 193.3 Q274.75 202.8 275.8 204.05 L277.05 205.95 277.95 207.75 278.25 208.4 Q276.75 209.6 275.5 212.15 L275.0 211.95 274.9 211.9" fill="#e79721" fill-rule="evenodd" stroke="none"/>
    <path d="M284.2 200.95 L282.85 205.7 283.3 205.9 283.9 206.05 283.3 207.0 282.75 207.25 283.3 206.4 282.1 206.0 282.95 203.25 283.0 203.0 283.5 201.3 282.2 198.6 280.0 193.95 275.45 184.25 275.9 183.9 276.8 185.85 284.2 200.95 M269.6 188.45 L269.1 188.75 268.2 187.1 268.7 186.9 269.6 188.45 M267.0 188.9 L268.85 196.65 266.5 189.75 267.0 188.9 M271.5 204.45 L274.75 211.8 273.95 211.55 271.5 204.45 M278.25 208.4 Q278.85 207.85 279.6 207.5 L278.3 208.7 Q277.2 209.9 276.35 211.75 L275.6 212.15 275.5 212.15 Q276.75 209.6 278.25 208.4 M273.8 185.5 L274.2 185.15 275.35 188.35 273.5 185.65 273.8 185.5 M266.65 200.8 L265.35 200.4 266.4 199.95 266.65 200.8" fill="#c16100" fill-rule="evenodd" stroke="none"/>
    <path d="M283.0 203.0 L282.2 198.6 283.5 201.3 283.0 203.0" fill="#ffcc00" fill-rule="evenodd" stroke="none"/>
    <path d="M280.0 193.95 L280.35 196.3 Q280.9 198.8 281.9 201.2 L282.2 201.85 282.95 203.25 282.1 206.0 283.3 206.4 282.75 207.25 282.6 207.5 281.5 207.25 Q276.25 196.85 273.35 185.75 L273.5 185.65 275.35 188.35 274.2 185.15 275.3 184.4 275.45 184.25 280.0 193.95 M268.85 196.65 L271.5 204.45 273.95 211.55 272.7 211.0 272.35 210.85 Q272.35 208.35 271.25 206.45 L271.2 206.3 270.9 205.75 270.05 204.7 269.35 202.6 Q268.35 200.0 266.9 197.55 L265.3 194.65 264.75 192.5 265.2 191.85 266.5 189.75 268.85 196.65" fill="#d78a17" fill-rule="evenodd" stroke="none"/>
    <path d="M269.6 188.45 L270.2 188.0 271.7 186.95 Q271.4 189.3 272.55 192.3 L274.75 198.25 Q275.8 201.15 277.2 202.55 278.6 203.9 279.1 204.8 L280.3 207.35 279.8 207.45 279.6 207.5 Q278.85 207.85 278.25 208.4 L277.95 207.75 277.05 205.95 275.8 204.05 Q274.75 202.8 269.85 193.3 L272.9 202.1 274.9 211.9 274.75 211.8 271.5 204.45 268.85 196.65 267.0 188.9 268.15 187.05 268.2 187.1 269.1 188.75 269.6 188.45 M265.3 194.65 L266.9 197.55 Q268.35 200.0 269.35 202.6 L270.05 204.7 Q268.45 203.1 265.85 201.95 L265.55 201.75 265.45 201.1 265.35 200.4 266.65 200.8 266.4 199.95 265.3 194.65" fill="#de8e18" fill-rule="evenodd" stroke="none"/>
    <path d="M281.5 207.25 L280.3 207.35 279.1 204.8 Q278.6 203.9 277.2 202.55 275.8 201.15 274.75 198.25 L272.55 192.3 Q271.4 189.3 271.7 186.95 L273.35 185.75 Q276.25 196.85 281.5 207.25" fill="#e8a229" fill-rule="evenodd" stroke="none"/>
    <path d="M287.15 203.75 L289.4 204.35 289.4 204.7 284.8 205.6 287.15 203.75 M282.85 215.75 L281.65 215.75 284.4 210.85 284.85 211.9 282.85 215.75 M272.0 213.7 L271.3 213.45 268.45 210.55 270.2 206.85 271.75 209.0 272.0 213.7 M262.65 194.25 L263.15 193.85 264.45 197.5 262.0 195.45 262.65 194.25 M267.65 183.6 L269.15 182.7 269.95 182.75 270.75 183.8 268.3 184.4 267.65 183.6 M272.1 183.45 L272.7 183.25 273.55 183.7 274.2 185.15 273.8 185.5 272.1 183.45 M274.9 179.45 L274.9 178.9 276.15 178.0 275.6 180.1 274.9 179.45 M281.45 188.4 L282.7 190.7 Q281.35 189.65 280.4 190.3 L279.0 187.35 281.45 188.4 M284.2 200.95 L284.55 201.8 283.3 205.9 282.85 205.7 284.2 200.95 M283.9 206.05 L284.1 206.55 283.4 207.6 282.7 207.95 280.5 207.9 280.3 207.35 280.5 207.9 Q279.8 208.05 279.05 208.5 277.65 210.0 276.1 212.7 L274.15 212.15 273.5 211.95 272.7 211.0 273.95 211.55 274.75 211.8 274.9 211.9 275.0 211.95 275.5 212.15 275.6 212.15 276.35 211.75 Q277.2 209.9 278.3 208.7 L279.6 207.5 279.8 207.45 280.3 207.35 281.5 207.25 282.6 207.5 282.75 207.25 283.3 207.0 283.9 206.05 M270.2 188.0 L269.6 188.45 268.7 186.9 270.2 188.0 M270.05 204.7 L270.9 205.75 Q268.65 203.8 266.65 202.75 L265.85 201.95 Q268.45 203.1 270.05 204.7" fill="#71684a" fill-rule="evenodd" stroke="none"/>
    <path d="M289.4 204.7 L289.4 204.8 287.55 206.8 287.1 205.6 284.8 205.6 289.4 204.7" fill="#cbc4b4" fill-rule="evenodd" stroke="none"/>
    <path d="M283.55 192.15 L286.35 197.8 286.1 198.1 286.0 198.25 284.65 199.45 281.2 192.05 283.55 192.15 M287.1 197.1 L288.35 196.35 288.95 196.4 287.15 203.75 284.8 205.6 284.85 205.45 286.2 200.6 287.1 197.1 M289.4 204.8 L289.4 205.55 284.8 214.55 282.85 215.75 284.85 211.9 287.25 207.25 287.55 206.8 289.4 204.8 M276.15 178.0 L276.9 177.65 277.9 178.9 280.5 185.85 Q280.0 186.2 277.9 185.0 L275.85 180.5 275.7 180.15 275.6 180.1 276.15 178.0" fill="#594b37" fill-rule="evenodd" stroke="none"/>
    <path d="M282.7 190.7 L283.55 192.15 281.2 192.05 280.4 190.3 Q281.35 189.65 282.7 190.7 M270.75 183.8 L270.8 183.85 271.05 184.2 269.2 185.6 268.3 184.4 270.75 183.8 M280.5 185.85 L281.45 188.4 279.0 187.35 277.9 185.0 Q280.0 186.2 280.5 185.85" fill="#665b44" fill-rule="evenodd" stroke="none"/>
    <path d="M261.75 196.65 L261.55 195.1 262.65 194.25 262.0 195.45 261.75 196.65" fill="#c8c0af" fill-rule="evenodd" stroke="none"/>
    <path d="M286.35 197.8 L287.1 197.1 286.2 200.6 Q286.25 198.5 286.0 198.25 L286.1 198.1 286.35 197.8" fill="#cec8b9" fill-rule="evenodd" stroke="none"/>
    <path d="M281.65 215.75 L276.6 215.65 274.35 214.65 272.0 213.7 271.75 209.0 270.2 206.85 268.45 210.55 266.6 208.65 263.2 200.7 261.95 197.65 261.75 196.65 262.0 195.45 264.45 197.5 263.15 193.85 262.6 192.1 263.65 190.4 267.65 183.6 268.3 184.4 269.2 185.6 271.05 184.2 272.1 183.45 273.8 185.5 273.5 185.65 273.35 185.75 271.7 186.95 270.2 188.0 268.7 186.9 268.2 187.1 268.15 187.05 267.0 188.9 266.5 189.75 265.2 191.85 264.75 192.5 265.3 194.65 266.4 199.95 265.35 200.4 265.45 201.1 265.55 201.75 265.85 201.95 266.65 202.75 Q268.65 203.8 270.9 205.75 L271.2 206.3 271.25 206.45 Q272.35 208.35 272.35 210.85 L272.7 211.0 273.5 211.95 274.15 212.15 276.1 212.7 Q277.65 210.0 279.05 208.5 279.8 208.05 280.5 207.9 L282.7 207.95 283.4 207.6 284.1 206.55 283.9 206.05 283.3 205.9 284.55 201.8 284.2 200.95 276.8 185.85 275.9 183.9 275.45 184.25 275.3 184.4 274.2 185.15 273.55 183.7 273.35 183.1 273.8 182.1 274.9 181.25 274.9 179.45 275.6 180.1 275.7 180.15 275.85 180.5 277.9 185.0 276.8 185.85 277.9 185.0 279.0 187.35 280.4 190.3 281.2 192.05 284.65 199.45 286.0 198.25 Q286.25 198.5 286.2 200.6 L284.85 205.45 284.8 205.6 287.1 205.6 287.55 206.8 287.25 207.25 284.85 211.9 284.4 210.85 281.65 215.75 M281.3 210.25 L280.5 207.9 281.3 210.25 M274.35 214.65 L274.15 212.15 274.35 214.65 M263.2 200.7 L265.45 201.1 263.2 200.7 M263.65 190.4 L265.2 191.85 263.65 190.4" fill="url(#gradient0)" fill-rule="evenodd" stroke="none"/>
    <path d="M282.7 190.7 L283.55 192.15 286.35 197.8 287.1 197.1 288.35 196.35 M288.95 196.4 L287.15 203.75 289.4 204.35 M289.4 205.55 L284.8 214.55 282.85 215.75 281.65 215.75 276.6 215.65 274.35 214.65 272.0 213.7 271.3 213.45 268.45 210.55 266.6 208.65 263.2 200.7 261.95 197.65 M263.15 193.85 L262.6 192.1 263.65 190.4 267.65 183.6 269.15 182.7 M269.95 182.75 L270.75 183.8 M270.8 183.85 L271.05 184.2 272.1 183.45 M273.8 182.1 L274.9 181.25 274.9 179.45 274.9 178.9 276.15 178.0 276.9 177.65 277.9 178.9 280.5 185.85 281.45 188.4 282.7 190.7 M286.1 198.1 L286.35 197.8 M282.95 203.25 L283.0 203.0 M284.65 199.45 L286.0 198.25 M286.2 200.6 L287.1 197.1 M284.8 205.6 L284.85 205.45 286.2 200.6 M282.75 207.25 L282.6 207.5 281.5 207.25 280.3 207.35 279.8 207.45 M284.8 205.6 L287.15 203.75 M267.65 183.6 L268.3 184.4 269.2 185.6 271.05 184.2 M270.2 188.0 L269.6 188.45 M268.2 187.1 L268.15 187.05 267.0 188.9 266.5 189.75 265.2 191.85 264.75 192.5 265.3 194.65 266.4 199.95 266.65 200.8 M274.75 211.8 L274.9 211.9 275.0 211.95 M271.7 186.95 L270.2 188.0 M274.2 185.15 L273.8 185.5 273.5 185.65 M275.3 184.4 L274.2 185.15 M273.35 185.75 L271.7 186.95 M270.05 204.7 L270.9 205.75 M271.25 206.45 Q272.35 208.35 272.35 210.85 L272.7 211.0 273.95 211.55 274.75 211.8 M265.35 200.4 L265.45 201.1 265.55 201.75 265.85 201.95 Q268.45 203.1 270.05 204.7 M262.0 195.45 L264.45 197.5 263.15 193.85" fill="none" stroke="#382510" stroke-linecap="round" stroke-linejoin="round" stroke-opacity="0.3019608" stroke-width="0.05"/>
    <path d="M261.95 197.65 L261.75 196.65 261.55 195.1 262.65 194.25 M272.1 183.45 L272.7 183.25 273.55 183.7 273.35 183.1 273.8 182.1 M280.5 207.9 L281.3 210.25 M280.3 207.35 L280.5 207.9 M274.15 212.15 L274.35 214.65 M274.9 179.45 L275.6 180.1 275.7 180.15 275.85 180.5 M267.0 188.9 L268.85 196.65 271.5 204.45 274.75 211.8 M273.5 185.65 L273.35 185.75 Q276.25 196.85 281.5 207.25 M276.8 185.85 L277.9 185.0 M265.45 201.1 L263.2 200.7 M265.2 191.85 L263.65 190.4" fill="none" stroke="#000000" stroke-linecap="round" stroke-linejoin="round" stroke-opacity="0.3019608" stroke-width="0.05"/>
    <path d="M280.45 210.3 L280.95 210.3 281.05 210.25 281.25 210.35 280.9 210.35 280.95 210.3 280.9 210.35 280.45 210.3" fill="#cbc4b4" fill-rule="evenodd" stroke="none"/>
    <path d="M282.3 210.5 L282.3 210.55 281.95 210.45 282.0 210.45 282.3 210.5" fill="#e2dccb" fill-rule="evenodd" stroke="none"/>
    <path d="M282.3 210.55 L282.35 210.55 Q282.9 211.5 282.8 213.65 L282.45 214.6 Q281.85 215.55 280.65 215.95 L276.85 215.65 275.8 214.7 275.85 214.55 276.55 212.9 277.9 211.7 279.5 214.2 278.8 211.15 Q279.9 210.45 280.9 210.35 L281.25 210.35 281.4 210.35 281.55 210.4 281.95 210.45 282.3 210.55" fill="#ffcc00" fill-rule="evenodd" stroke="none"/>
    <path d="M282.35 210.55 L284.0 210.9 282.8 213.65 Q282.9 211.5 282.35 210.55 M281.7 216.35 L276.7 216.1 275.65 215.5 275.8 214.7 276.85 215.65 280.65 215.95 Q281.85 215.55 282.45 214.6 L281.7 216.35 M277.75 211.5 L278.15 211.6 278.5 211.35 278.7 210.9 278.8 211.15 279.5 214.2 277.9 211.7 277.75 211.5" fill="#e6b100" fill-rule="evenodd" stroke="none"/>
    <path d="M282.35 210.5 L284.5 210.75 284.0 210.9 282.35 210.55 282.3 210.55 282.3 210.5 282.35 210.5 M276.55 212.9 L277.75 211.5 277.9 211.7 276.55 212.9 M278.7 210.9 Q279.5 210.45 280.45 210.3 L280.9 210.35 Q279.9 210.45 278.8 211.15 L278.7 210.9" fill="#ffff2f" fill-rule="evenodd" stroke="none"/>
    <path d="M284.0 210.9 L284.5 210.75 284.55 210.8 282.4 215.8 282.75 215.85 281.7 216.35 282.45 214.6 282.8 213.65 284.0 210.9" fill="#8d4803" fill-rule="evenodd" stroke="none"/>
    <path d="M284.5 210.75 L282.35 210.5 M284.5 210.75 L284.55 210.75 284.55 210.8 282.4 215.8 282.8 215.85 282.75 215.85 281.7 216.35 276.7 216.1 275.65 215.5 275.8 214.7 M275.85 214.55 L276.55 212.9 277.75 211.5 278.15 211.6 278.5 211.35 278.7 210.9 Q279.5 210.45 280.45 210.3 L280.95 210.3 281.05 210.25 281.25 210.35 281.4 210.35 281.55 210.4 282.0 210.45 282.3 210.5 M281.55 210.4 L281.95 210.45 282.0 210.45 M280.9 210.35 L280.95 210.3 M280.9 210.35 L280.45 210.3 M281.25 210.35 L280.9 210.35" fill="none" stroke="#382510" stroke-linecap="round" stroke-linejoin="round" stroke-opacity="0.3019608" stroke-width="0.05"/>
    <path d="M268.9 206.4 L269.5 206.05 269.8 206.3 Q270.65 207.1 271.05 208.5 L270.75 209.6 270.45 208.95 270.4 208.85 269.1 206.65 269.0 206.6 268.9 206.4" fill="#cd9f07" fill-rule="evenodd" stroke="none"/>
    <path d="M271.0 212.95 L270.95 209.95 270.85 209.75 270.75 209.6 271.05 208.5 Q271.55 210.2 271.4 212.85 L271.0 212.95" fill="#8d4803" fill-rule="evenodd" stroke="none"/>
    <path d="M264.1 203.35 Q265.65 203.75 267.45 205.0 L267.85 205.35 267.9 205.35 268.9 206.4 269.0 206.6 269.1 206.65 270.4 208.85 270.45 208.95 270.75 209.6 270.85 209.75 270.95 209.95 271.0 212.95 270.45 213.15 266.15 208.8 264.1 203.35" fill="#ecbd02" fill-rule="evenodd" stroke="none"/>
    <path d="M268.9 206.4 L267.9 205.35 267.85 205.35 267.45 205.0 Q265.65 203.75 264.1 203.35 264.4 203.15 264.65 203.05 266.95 203.7 269.5 206.05 L268.9 206.4" fill="#fdfd13" fill-rule="evenodd" stroke="none"/>
    <path d="M269.5 206.05 Q266.95 203.7 264.65 203.05 264.4 203.15 264.1 203.35 L266.15 208.8 270.45 213.15 271.0 212.95 271.4 212.85 Q271.55 210.2 271.05 208.5 270.65 207.1 269.8 206.3 L269.5 206.05 Z" fill="none" stroke="#382510" stroke-linecap="round" stroke-linejoin="round" stroke-opacity="0.3019608" stroke-width="0.05"/>
  </g>
  <defs>
    <linearGradient gradientTransform="matrix(0.0, 0.0226, -0.0168, -0.0016, 274.2, 196.9)" gradientUnits="userSpaceOnUse" id="gradient0" spreadMethod="pad" x1="-819.2" x2="819.2">
      <stop offset="0.0" stop-color="#cbc4b4"/>
      <stop offset="1.0" stop-color="#aaa080"/>
    </linearGradient>
  </defs>
</svg>
