<?xml version="1.0" encoding="UTF-8" standalone="no"?>
<svg xmlns:xlink="http://www.w3.org/1999/xlink" height="40.25px" width="38.4px" xmlns="http://www.w3.org/2000/svg">
  <g transform="matrix(1.0, 0.0, 0.0, 1.0, -256.2, -179.85)">
    <path d="M291.55 206.85 Q294.05 212.9 291.5 218.1 290.75 212.85 291.55 206.85" fill="#f49302" fill-rule="evenodd" stroke="none"/>
    <path d="M291.55 206.85 Q294.05 212.9 291.5 218.1 290.75 212.85 291.55 206.85 Z" fill="none" stroke="#000000" stroke-linecap="round" stroke-linejoin="round" stroke-opacity="0.3019608" stroke-width="0.05"/>
    <path d="M292.35 205.9 Q294.85 208.85 294.55 215.4 293.1 211.65 292.35 205.9" fill="#8a6923" fill-rule="evenodd" stroke="none"/>
    <path d="M292.35 205.9 Q294.85 208.85 294.55 215.4 293.1 211.65 292.35 205.9 Z" fill="none" stroke="#000000" stroke-linecap="round" stroke-linejoin="round" stroke-opacity="0.3019608" stroke-width="0.05"/>
    <path d="M258.85 204.7 Q258.15 210.45 256.65 214.2 256.4 207.65 258.85 204.7" fill="#8a6923" fill-rule="evenodd" stroke="none"/>
    <path d="M258.85 204.7 Q256.4 207.65 256.65 214.2 258.15 210.45 258.85 204.7 Z" fill="none" stroke="#000000" stroke-linecap="round" stroke-linejoin="round" stroke-opacity="0.3019608" stroke-width="0.05"/>
    <path d="M258.9 205.65 Q259.7 211.65 258.95 216.9 256.45 211.7 258.9 205.65" fill="#d27e03" fill-rule="evenodd" stroke="none"/>
    <path d="M258.9 205.65 Q256.45 211.7 258.95 216.9 259.7 211.65 258.9 205.65 Z" fill="none" stroke="#000000" stroke-linecap="round" stroke-linejoin="round" stroke-opacity="0.3019608" stroke-width="0.05"/>
    <path d="M264.65 187.15 Q263.95 189.0 262.2 189.0 258.85 182.0 264.65 187.15" fill="#615527" fill-rule="evenodd" stroke="none"/>
    <path d="M262.2 189.0 Q258.85 182.0 264.65 187.15" fill="none" stroke="#382510" stroke-linecap="round" stroke-linejoin="round" stroke-opacity="0.5019608" stroke-width="0.05"/>
    <path d="M288.8 192.0 Q289.35 193.85 286.55 193.7 L284.95 191.7 282.55 189.2 Q280.95 187.85 279.3 186.95 L281.7 184.95 281.75 185.0 Q284.6 186.65 286.95 189.45 L288.8 192.0 M267.4 185.65 L267.0 185.8 Q264.45 186.65 262.3 188.7 L264.2 186.5 Q266.6 184.2 269.65 183.3 L267.4 185.65" fill="#92846f" fill-rule="evenodd" stroke="none"/>
    <path d="M282.55 189.2 L284.95 191.7 286.55 193.7 Q287.9 195.85 288.7 198.2 286.35 196.85 283.9 196.9 L283.55 196.35 282.2 194.55 Q279.55 191.3 276.0 190.05 L274.6 189.65 277.7 187.4 282.55 189.2 M260.0 210.15 L261.15 206.95 261.5 207.8 Q262.45 209.95 263.95 211.9 267.1 215.7 271.25 216.85 L271.25 219.45 Q266.05 218.05 262.2 213.35 L260.25 210.5 260.0 210.15 M263.95 192.15 L264.55 191.8 264.0 192.15 263.95 192.15 M277.2 217.05 L278.0 216.85 Q280.3 216.1 282.2 214.25 L283.75 212.45 284.65 211.2 284.8 210.8 Q285.45 211.85 285.5 215.8 L284.95 216.35 Q281.55 219.55 276.95 220.05 L277.2 217.05" fill="#e2dccb" fill-rule="evenodd" stroke="none"/>
    <path d="M279.3 186.95 Q280.95 187.85 282.55 189.2 L277.7 187.4 271.15 185.05 273.65 185.15 Q276.35 185.5 278.7 186.75 L279.3 186.95" fill="#e7d992" fill-rule="evenodd" stroke="none"/>
    <path d="M286.55 193.7 Q289.35 193.85 288.8 192.0 291.5 196.4 291.7 201.6 L291.7 202.15 291.7 202.4 Q291.7 209.6 286.95 214.1 289.75 210.15 289.75 204.65 289.75 201.2 288.7 198.2 287.9 195.85 286.55 193.7" fill="#716044" fill-rule="evenodd" stroke="none"/>
    <path d="M281.7 184.95 L279.3 186.95 278.7 186.75 Q276.35 185.5 273.65 185.15 L271.15 185.05 Q269.15 185.05 267.4 185.65 L269.65 183.3 270.0 183.2 275.6 182.9 Q278.8 183.3 281.7 184.95" fill="#a09176" fill-rule="evenodd" stroke="none"/>
    <path d="M288.7 198.2 Q289.75 201.2 289.75 204.65 289.75 210.15 286.95 214.1 L285.5 215.8 Q285.45 211.85 284.8 210.8 286.0 208.2 286.0 204.9 286.0 200.55 283.9 196.9 286.35 196.85 288.7 198.2 M274.35 189.6 L273.15 189.35 271.4 189.25 269.6 189.8 265.65 190.9 264.55 191.8 263.95 192.15 Q260.25 195.8 260.25 201.55 260.25 204.4 261.15 206.95 L260.0 210.15 Q257.5 205.7 257.5 200.45 257.5 193.2 262.2 188.75 L262.3 188.7 Q264.45 186.65 267.0 185.8 L267.4 185.65 Q269.15 185.05 271.15 185.05 L277.7 187.4 274.6 189.65 274.35 189.6 M275.65 217.25 L277.2 217.05 276.95 220.05 273.65 219.95 272.2 219.7 271.25 219.45 271.25 216.85 272.3 217.05 273.15 217.15 275.65 217.25" fill="#d5cab3" fill-rule="evenodd" stroke="none"/>
    <path d="M269.6 189.8 L271.4 189.25 273.15 189.35 274.35 189.6 274.6 189.65 276.0 190.05 Q274.65 190.65 273.35 191.7 271.65 193.1 269.65 195.4 L269.6 189.8 M283.55 196.35 L283.9 196.9 Q286.0 200.55 286.0 204.9 286.0 208.2 284.8 210.8 L284.65 211.2 Q284.35 210.5 283.7 210.1 282.15 209.85 280.9 210.85 278.0 213.2 278.0 216.85 L277.2 217.05 275.65 217.25 274.65 215.4 275.2 215.1 273.4 210.55 272.9 210.75 Q274.4 206.45 276.0 203.35 279.25 197.4 283.55 196.35 M269.65 195.4 L270.2 198.8 271.35 198.6 272.6 204.45 270.3 205.15 272.0 211.1 272.85 210.75 272.85 210.8 272.3 217.05 271.25 216.85 Q267.1 215.7 263.95 211.9 262.45 209.95 261.5 207.8 L262.9 204.9 Q264.75 201.05 267.4 197.85 L269.65 195.4" fill="#675221" fill-rule="evenodd" stroke="none"/>
    <path d="M269.6 189.8 L269.65 195.4 267.4 197.85 Q264.75 201.05 262.9 204.9 L261.5 207.8 261.15 206.95 Q260.25 204.4 260.25 201.55 260.25 195.8 263.95 192.15 L264.0 192.15 264.55 191.8 265.65 190.9 269.6 189.8 M272.85 210.8 L272.9 210.75 273.4 210.55 275.2 215.1 274.65 215.4 275.65 217.25 273.15 217.15 272.3 217.05 272.85 210.8" fill="#614d1f" fill-rule="evenodd" stroke="none"/>
    <path d="M269.65 195.4 Q271.65 193.1 273.35 191.7 274.65 190.65 276.0 190.05 279.55 191.3 282.2 194.55 L283.55 196.35 Q279.25 197.4 276.0 203.35 274.4 206.45 272.9 210.75 L272.85 210.75 272.9 210.75 272.85 210.8 272.85 210.75 272.0 211.1 270.3 205.15 272.6 204.45 271.35 198.6 270.2 198.8 269.65 195.4 M278.0 216.85 Q278.0 213.2 280.9 210.85 282.15 209.85 283.7 210.1 284.35 210.5 284.65 211.2 L283.75 212.45 282.2 214.25 Q280.3 216.1 278.0 216.85" fill="#6d5623" fill-rule="evenodd" stroke="none"/>
    <path d="M288.8 192.0 L286.95 189.45 Q284.6 186.65 281.75 185.0 M286.95 214.1 Q291.7 209.6 291.7 202.4 L291.7 202.15 M291.7 201.6 Q291.5 196.4 288.8 192.0 M270.0 183.2 L275.6 182.9 Q278.8 183.3 281.7 184.95 M274.35 189.6 L273.15 189.35 271.4 189.25 269.6 189.8 265.65 190.9 264.55 191.8 263.95 192.15 Q260.25 195.8 260.25 201.55 260.25 204.4 261.15 206.95 L261.5 207.8 Q262.45 209.95 263.95 211.9 267.1 215.7 271.25 216.85 L272.3 217.05 273.15 217.15 275.65 217.25 277.2 217.05 278.0 216.85 Q280.3 216.1 282.2 214.25 L283.75 212.45 284.65 211.2 284.8 210.8 Q286.0 208.2 286.0 204.9 286.0 200.55 283.9 196.9 L283.55 196.35 282.2 194.55 Q279.55 191.3 276.0 190.05 L274.6 189.65 M269.65 183.3 Q266.6 184.2 264.2 186.5 L262.3 188.7 262.2 188.75 Q257.5 193.2 257.5 200.45 257.5 205.7 260.0 210.15 L260.25 210.5 262.2 213.35 Q266.05 218.05 271.25 219.45 L272.2 219.7 273.65 219.95 276.95 220.05 Q281.55 219.55 284.95 216.35 L285.5 215.8 286.95 214.1" fill="none" stroke="#382510" stroke-linecap="round" stroke-linejoin="round" stroke-opacity="0.5019608" stroke-width="0.05"/>
    <path d="M269.6 189.8 L269.65 195.4 270.2 198.8 271.35 198.6 272.6 204.45 270.3 205.15 272.0 211.1 272.85 210.75 272.9 210.75 273.4 210.55 275.2 215.1 274.65 215.4 275.65 217.25 M272.85 210.75 L272.85 210.8" fill="none" stroke="#382510" stroke-linecap="round" stroke-linejoin="round" stroke-opacity="0.3019608" stroke-width="0.05"/>
    <path d="M283.5 212.75 L283.6 212.8 282.2 214.25 Q278.45 217.85 273.15 217.2 267.8 216.5 264.0 211.9 260.25 207.3 260.25 201.55 260.25 195.85 263.95 192.2 261.55 195.45 261.55 200.1 261.55 205.8 265.3 210.4 269.1 215.0 274.45 215.7 279.75 216.35 283.5 212.75" fill="#382510" fill-opacity="0.3019608" fill-rule="evenodd" stroke="none"/>
    <path d="M281.25 196.75 Q277.45 192.2 272.15 191.55 L270.4 191.4 264.7 193.1 263.0 194.35 Q261.75 195.55 260.95 197.0 261.9 194.25 264.0 192.15 L265.7 190.9 271.4 189.25 273.15 189.35 Q278.45 190.05 282.2 194.55 286.05 199.1 286.05 204.9 286.05 208.75 284.4 211.6 285.05 209.55 285.05 207.1 285.05 201.3 281.25 196.75" fill="#332e26" fill-opacity="0.7019608" fill-rule="evenodd" stroke="none"/>
    <path d="M281.65 194.1 L282.75 190.6 282.95 195.65 281.65 194.1 M268.4 218.45 L269.0 216.2 271.0 215.5 269.95 216.5 269.45 219.0 268.4 218.45" fill="#382510" fill-opacity="0.8" fill-rule="evenodd" stroke="none"/>
    <path d="M275.75 201.05 L272.8 215.15 272.9 209.8 275.75 201.05" fill="#382510" fill-opacity="0.8" fill-rule="evenodd" stroke="none"/>
    <path d="M280.15 193.2 L275.5 213.0 276.15 205.65 280.15 193.2" fill="#382510" fill-opacity="0.5019608" fill-rule="evenodd" stroke="none"/>
    <path d="M287.75 208.75 L285.75 208.0 285.2 206.95 285.8 204.45 284.85 200.85 285.4 200.0 285.7 201.0 286.1 201.5 288.35 201.5 288.65 201.4 288.9 201.25 291.2 202.15 289.75 207.95 287.75 208.75 M289.45 202.4 L285.65 202.3 287.0 203.15 289.45 202.4" fill="#f49302" fill-rule="evenodd" stroke="none"/>
    <path d="M288.9 201.25 L289.6 200.95 291.25 199.5 291.25 197.75 290.85 196.75 292.1 196.95 293.15 198.55 293.8 201.1 292.85 205.95 290.25 208.75 288.65 209.05 287.75 208.75 289.75 207.95 291.2 202.15 288.9 201.25" fill="#8a6923" fill-rule="evenodd" stroke="none"/>
    <path d="M289.45 202.4 L287.0 203.15 285.65 202.3 289.45 202.4" fill="#feb445" fill-rule="evenodd" stroke="none"/>
    <path d="M287.75 208.75 L285.75 208.0 285.2 206.95 285.8 204.45 284.85 200.85 285.4 200.0 285.7 201.0 286.1 201.5 288.35 201.5 288.65 201.4 288.9 201.25 289.6 200.95 291.25 199.5 291.25 197.75 290.85 196.75 292.1 196.95 293.15 198.55 293.8 201.1 292.85 205.95 290.25 208.75 288.65 209.05 287.75 208.75 Z" fill="none" stroke="#31280b" stroke-linecap="round" stroke-linejoin="round" stroke-opacity="0.3019608" stroke-width="0.30000000000000004"/>
    <path d="M258.75 204.3 L258.95 204.4 259.1 204.45 260.25 204.45 260.45 204.15 260.5 203.6 260.8 204.05 260.65 206.05 261.3 207.45 261.1 208.05 260.2 208.45 259.1 208.0 257.7 204.75 258.75 204.3 M258.65 204.9 L260.0 205.35 260.6 204.85 258.65 204.9" fill="#d27e03" fill-rule="evenodd" stroke="none"/>
    <path d="M258.75 204.3 L257.7 204.75 259.1 208.0 260.2 208.45 259.7 208.6 258.9 208.45 257.3 206.9 256.35 204.2 256.35 202.8 256.7 201.9 257.4 201.8 257.3 202.35 257.5 203.3 258.45 204.1 258.75 204.3" fill="#8a6923" fill-rule="evenodd" stroke="none"/>
    <path d="M258.65 204.9 L260.6 204.85 260.0 205.35 258.65 204.9" fill="#feb445" fill-rule="evenodd" stroke="none"/>
    <path d="M260.2 208.45 L261.1 208.05 261.3 207.45 260.65 206.05 260.8 204.05 260.5 203.6 260.45 204.15 260.25 204.45 259.1 204.45 258.95 204.4 258.75 204.3 258.45 204.1 257.5 203.3 257.3 202.35 257.4 201.8 256.7 201.9 256.35 202.8 256.35 204.2 257.3 206.9 258.9 208.45 259.7 208.6 260.2 208.45 Z" fill="none" stroke="#31280b" stroke-linecap="round" stroke-linejoin="round" stroke-opacity="0.3019608" stroke-width="0.30000000000000004"/>
    <path d="M272.15 214.6 L271.3 213.85 Q270.35 212.7 270.4 211.3 270.4 209.85 271.35 209.05 272.3 208.2 273.65 208.4 275.0 208.6 275.95 209.7 L276.3 210.2 272.15 214.6" fill="#a08034" fill-rule="evenodd" stroke="none"/>
    <path d="M276.3 210.2 Q276.85 211.15 276.8 212.2 276.8 213.6 275.9 214.5 274.9 215.35 273.6 215.15 272.8 215.05 272.15 214.6 L276.3 210.2" fill="#64431c" fill-rule="evenodd" stroke="none"/>
    <path d="M275.65 211.6 Q276.0 212.35 275.95 213.25 275.95 214.65 275.05 215.55 274.05 216.4 272.75 216.2 271.45 216.0 270.5 214.9 269.55 213.75 269.6 212.35 269.6 210.9 270.55 210.1 271.4 209.35 272.55 209.45 L272.8 209.45 273.0 209.5 273.3 209.55 273.1 209.55 Q274.35 210.0 275.65 211.6" fill="#796128" fill-rule="evenodd" stroke="none"/>
    <path d="M273.3 209.55 L275.2 209.55 275.65 211.6 Q274.35 210.0 273.1 209.55 L273.3 209.55" fill="#d6a533" fill-rule="evenodd" stroke="none"/>
    <path d="M271.25 211.75 L271.45 211.5 Q271.95 211.0 272.7 211.1 L273.95 211.9 Q274.55 212.5 274.5 213.25 274.5 214.0 274.0 214.45 272.2 214.35 271.25 211.75" fill="#3e2d13" fill-rule="evenodd" stroke="none"/>
    <path d="M274.0 214.45 L273.95 214.5 Q273.4 215.0 272.65 214.9 271.9 214.75 271.4 214.2 270.9 213.5 270.9 212.75 270.9 212.15 271.25 211.75 272.2 214.35 274.0 214.45" fill="#5c542e" fill-rule="evenodd" stroke="none"/>
    <path d="M265.5 199.65 L261.95 194.55 262.85 193.35 264.9 193.1 267.25 193.65 269.15 195.75 265.5 199.65" fill="#8e7e66" fill-rule="evenodd" stroke="none"/>
    <path d="M269.4 195.6 L269.6 195.25 270.7 199.25 270.4 201.9 268.6 204.05 265.5 199.65 269.15 195.75 269.2 195.8 269.4 195.6" fill="#716044" fill-rule="evenodd" stroke="none"/>
    <path d="M269.4 195.6 L269.6 195.25 270.7 199.25 270.4 201.9 268.6 204.05 265.5 199.65 261.95 194.55 262.85 193.35 264.9 193.1 267.25 193.65 269.15 195.75 269.4 195.6 269.2 195.8 269.15 195.75" fill="none" stroke="#000000" stroke-linecap="round" stroke-linejoin="round" stroke-opacity="0.3019608" stroke-width="0.05"/>
    <path d="M269.7 200.05 L268.9 200.6 269.45 200.6 269.0 203.05 267.8 204.0 266.05 205.0 265.25 203.85 265.15 205.25 262.0 204.65 262.0 204.7 260.4 203.2 260.0 202.65 259.55 201.7 Q259.0 200.4 259.05 198.9 259.15 196.55 260.7 195.2 L261.6 194.65 Q262.9 193.95 264.6 194.3 266.8 194.75 268.35 196.65 269.5 198.25 269.7 200.05 M263.0 197.75 L262.75 197.9 Q262.05 198.5 262.05 199.5 262.0 200.55 262.6 201.55 263.4 202.35 264.35 202.55 265.35 202.75 266.1 202.15 L266.65 201.4 266.85 200.45 Q266.9 199.45 266.25 198.55 265.55 197.65 264.6 197.45 263.7 197.25 263.0 197.75" fill="#e2dccb" fill-rule="evenodd" stroke="none"/>
    <path d="M266.65 201.4 L266.1 202.15 Q265.35 202.75 264.35 202.55 263.4 202.35 262.6 201.55 262.0 200.55 262.05 199.5 262.05 198.5 262.75 197.9 L263.0 197.75 262.85 197.9 262.7 198.35 Q262.45 199.0 262.6 199.75 262.9 200.6 263.6 201.25 L266.65 201.4" fill="#978b47" fill-rule="evenodd" stroke="none"/>
    <path d="M263.0 197.75 Q263.7 197.25 264.6 197.45 265.55 197.65 266.25 198.55 266.9 199.45 266.85 200.45 L266.65 201.4 263.6 201.25 Q262.9 200.6 262.6 199.75 262.45 199.0 262.7 198.35 L262.85 197.9 263.0 197.75" fill="#5c542e" fill-rule="evenodd" stroke="none"/>
    <path d="M262.0 204.7 L262.0 204.65 265.15 205.25 265.25 203.85 266.05 205.0 267.8 204.0 269.0 203.05 269.45 200.6 268.9 200.6 269.7 200.05 269.7 201.0 269.45 202.65 268.9 203.7 268.0 204.65 Q266.35 206.05 264.15 205.55 262.95 205.35 262.0 204.7" fill="#aaa080" fill-rule="evenodd" stroke="none"/>
    <path d="M261.6 194.65 L260.7 195.2 Q259.15 196.55 259.05 198.9 259.0 200.4 259.55 201.7 M260.0 202.65 L260.4 203.2 262.0 204.7 Q262.95 205.35 264.15 205.55 266.35 206.05 268.0 204.65 L268.9 203.7" fill="none" stroke="#000000" stroke-linecap="round" stroke-linejoin="round" stroke-opacity="0.3019608" stroke-width="0.05"/>
    <path d="M280.05 194.8 L282.9 195.35 285.0 198.9 276.45 197.2 278.65 195.45 280.05 194.8" fill="#716044" fill-rule="evenodd" stroke="none"/>
    <path d="M280.05 194.8 L282.9 195.35 285.0 198.9 276.45 197.2 278.65 195.45 280.05 194.8 Z" fill="none" stroke="#000000" stroke-linecap="round" stroke-linejoin="round" stroke-opacity="0.3019608" stroke-width="0.05"/>
    <path d="M282.95 203.6 Q283.3 202.9 283.2 202.05 283.1 200.95 282.25 200.15 281.4 199.35 280.3 199.3 279.55 199.3 279.0 199.7 L278.55 200.05 Q277.95 200.75 278.05 201.85 278.15 202.75 278.7 203.55 L279.55 204.05 280.95 204.5 282.0 204.45 282.65 203.95 282.95 203.6 M277.2 206.25 L276.85 205.95 Q275.05 204.15 274.75 201.75 274.5 199.3 276.0 197.6 277.5 195.9 279.85 196.0 282.3 196.1 284.15 197.85 285.2 198.9 285.75 200.15 L286.15 204.2 Q285.9 205.15 285.3 205.9 L283.15 207.15 281.05 207.45 280.4 207.25 280.2 206.05 279.85 207.1 277.2 206.25" fill="#e2dccb" fill-rule="evenodd" stroke="none"/>
    <path d="M282.95 203.6 L282.65 203.95 282.0 204.45 278.7 203.55 Q278.15 202.75 278.05 201.85 277.95 200.75 278.55 200.05 L279.0 199.7 Q278.6 200.25 278.7 201.1 278.85 202.0 279.4 202.8 L282.65 203.7 282.95 203.6" fill="#978b47" fill-rule="evenodd" stroke="none"/>
    <path d="M279.0 199.7 Q279.55 199.3 280.3 199.3 281.4 199.35 282.25 200.15 283.1 200.95 283.2 202.05 283.3 202.9 282.95 203.6 L282.65 203.7 279.4 202.8 Q278.85 202.0 278.7 201.1 278.6 200.25 279.0 199.7" fill="#5c542e" fill-rule="evenodd" stroke="none"/>
    <path d="M282.0 204.45 L280.95 204.5 279.55 204.05 278.7 203.55 282.0 204.45" fill="#e0c585" fill-rule="evenodd" stroke="none"/>
    <path d="M285.75 200.15 L286.3 202.15 Q286.4 203.25 286.15 204.2 L285.75 200.15 M285.3 205.9 L285.0 206.25 Q283.55 207.95 281.2 207.85 278.95 207.75 277.2 206.25 L279.85 207.1 280.2 206.05 280.4 207.25 281.05 207.45 283.15 207.15 285.3 205.9" fill="#aaa080" fill-rule="evenodd" stroke="none"/>
    <path d="M285.75 200.15 L286.3 202.15 Q286.4 203.25 286.15 204.2 285.9 205.15 285.3 205.9 L285.0 206.25 Q283.55 207.95 281.2 207.85 278.95 207.75 277.2 206.25" fill="none" stroke="#000000" stroke-linecap="round" stroke-linejoin="round" stroke-opacity="0.3019608" stroke-width="0.05"/>
    <path d="M283.45 188.55 Q282.8 188.15 282.55 187.5 L282.45 187.25 284.3 184.8 283.45 188.55" fill="#bbaf2b" fill-rule="evenodd" stroke="none"/>
    <path d="M282.45 187.25 L282.35 186.85 Q286.95 179.55 285.5 189.15 284.2 189.1 283.45 188.55 L284.3 184.8 282.45 187.25" fill="#696316" fill-rule="evenodd" stroke="none"/>
    <path d="M282.35 186.85 Q286.95 179.55 285.5 189.15" fill="none" stroke="#382510" stroke-linecap="round" stroke-linejoin="round" stroke-opacity="0.5019608" stroke-width="0.05"/>
    <path d="M272.25 184.0 L271.8 183.75 Q273.15 175.85 275.2 184.0 L273.25 184.3 272.7 182.0 272.25 184.0" fill="#696316" fill-rule="evenodd" stroke="none"/>
    <path d="M273.25 184.3 L272.3 184.0 272.25 184.0 272.7 182.0 273.25 184.3" fill="#978e24" fill-rule="evenodd" stroke="none"/>
    <path d="M271.8 183.75 Q273.15 175.85 275.2 184.0" fill="none" stroke="#382510" stroke-linecap="round" stroke-linejoin="round" stroke-opacity="0.5019608" stroke-width="0.05"/>
  </g>
</svg>
