<?xml version="1.0" encoding="UTF-8" standalone="no"?>
<svg xmlns:xlink="http://www.w3.org/1999/xlink" height="43.05px" width="19.4px" xmlns="http://www.w3.org/2000/svg">
  <g transform="matrix(1.0, 0.0, 0.0, 1.0, -265.75, -178.45)">
    <path d="M279.3 179.0 L279.3 179.1 279.25 187.7 276.2 191.1 Q275.6 189.9 274.25 189.85 L273.9 189.95 274.25 189.85 Q275.6 189.9 276.2 191.1 L276.35 191.55 279.25 189.85 279.25 189.9 Q280.0 191.35 280.95 192.3 L277.2 195.35 276.6 193.45 276.3 196.05 274.75 197.3 274.35 197.55 272.95 197.05 271.9 194.8 271.75 192.8 272.95 190.8 273.3 190.1 273.9 189.95 275.2 184.4 279.3 179.0 M272.35 217.35 L272.35 213.6 275.75 209.9 275.25 213.6 Q274.45 215.35 273.35 216.5 L272.35 217.35 M269.7 209.45 Q266.6 203.95 265.95 199.45 267.0 198.95 268.55 200.0 L268.5 199.9 269.2 200.5 269.25 200.55 276.1 205.95 276.15 207.85 269.7 209.45 M276.55 192.45 L276.35 191.55 276.55 192.45 M273.55 193.8 L274.3 193.8 274.75 191.7 272.95 190.8 274.75 191.7 274.3 193.8 273.55 193.8" fill="#7a791f" fill-rule="evenodd" stroke="none"/>
    <path d="M270.8 192.65 L271.9 194.8 272.95 197.05 274.35 197.55 274.75 197.3 281.85 194.9 Q283.0 198.35 284.05 200.35 L273.85 202.4 272.15 199.2 Q270.2 195.0 270.8 192.65 M275.75 209.9 L283.25 208.9 Q282.8 211.55 281.1 214.1 L275.25 213.6 275.75 209.9" fill="#baaf38" fill-rule="evenodd" stroke="none"/>
    <path d="M279.3 179.0 L275.2 184.4 273.9 189.95 273.3 190.1 272.95 190.8 271.75 192.8 271.9 194.8 270.8 192.65 Q271.35 190.85 273.3 190.1 271.35 190.85 270.8 192.65 270.2 195.0 272.15 199.2 L273.85 202.4 284.05 200.35 Q283.75 202.45 283.85 204.2 L281.95 205.15 283.85 204.8 Q283.8 207.0 283.25 208.9 L275.75 209.9 276.15 207.85 276.1 205.95 273.85 202.4 276.1 205.95 269.25 200.55 269.2 200.5 268.5 199.9 267.9 199.4 Q266.65 198.2 265.95 195.1 266.4 192.2 268.1 189.85 L268.85 189.0 270.25 187.15 270.45 190.3 271.6 185.6 Q275.2 181.4 279.3 179.0 M276.2 191.1 L279.25 187.7 279.25 189.85 276.35 191.55 276.2 191.1 M272.6 220.35 L272.35 217.35 273.35 216.5 Q274.45 215.35 275.25 213.6 L281.1 214.1 Q278.65 217.95 273.75 220.85 L274.8 215.35 272.6 220.35 M274.75 197.3 L276.3 196.05 276.6 193.45 277.2 195.35 280.95 192.3 281.85 194.9 274.75 197.3" fill="#929123" fill-rule="evenodd" stroke="none"/>
    <path d="M270.25 187.15 Q270.55 187.25 271.6 185.6 L270.45 190.3 270.25 187.15" fill="#cd9f07" fill-rule="evenodd" stroke="none"/>
    <path d="M279.25 187.7 L279.3 179.1 280.3 178.45 280.25 189.35 281.5 192.3 282.7 194.65 Q283.95 197.4 284.7 200.25 285.15 201.85 285.15 203.5 L283.85 204.2 Q283.75 202.45 284.05 200.35 283.0 198.35 281.85 194.9 L280.95 192.3 Q280.0 191.35 279.25 189.9 L279.25 189.85 279.25 187.7 M285.1 204.6 Q284.95 206.45 284.2 208.35 283.85 211.0 282.1 213.55 279.4 217.8 273.75 220.95 L273.7 220.95 273.65 220.9 273.75 220.85 Q278.65 217.95 281.1 214.1 282.8 211.55 283.25 208.9 283.8 207.0 283.85 204.8 L285.1 204.6" fill="#656401" fill-rule="evenodd" stroke="none"/>
    <path d="M272.35 213.6 L272.4 213.45 269.7 209.45 276.15 207.85 275.75 209.9 272.35 213.6 M265.95 199.45 L265.8 197.7 Q265.7 196.35 265.95 195.1 266.65 198.2 267.9 199.4 L268.5 199.9 268.55 200.0 Q267.0 198.95 265.95 199.45" fill="#73731e" fill-rule="evenodd" stroke="none"/>
    <path d="M273.65 220.9 L272.7 221.5 272.6 220.35 274.8 215.35 273.75 220.85 273.65 220.9" fill="#bb6906" fill-rule="evenodd" stroke="none"/>
    <path d="M285.15 203.5 Q284.4 204.35 285.1 204.6 L283.85 204.8 281.95 205.15 283.85 204.2 285.15 203.5" fill="#7c6c38" fill-rule="evenodd" stroke="none"/>
    <path d="M279.3 179.1 L279.3 179.0 Q275.2 181.4 271.6 185.6 270.55 187.25 270.25 187.15 L268.85 189.0 268.1 189.85 Q266.4 192.2 265.95 195.1 265.7 196.35 265.8 197.7 L265.95 199.45 Q266.6 203.95 269.7 209.45 L272.4 213.45 272.35 213.6 272.35 217.35 273.35 216.5 Q274.45 215.35 275.25 213.6 L275.75 209.9 276.15 207.85 276.1 205.95 273.85 202.4 272.15 199.2 Q270.2 195.0 270.8 192.65 271.35 190.85 273.3 190.1 L273.9 189.95 274.25 189.85 Q275.6 189.9 276.2 191.1 L276.35 191.55 276.55 192.45 M273.65 220.9 L272.7 221.5 272.6 220.35 272.35 217.35 M274.35 197.55 L274.75 197.3 276.3 196.05 276.6 193.45 M273.65 220.9 L273.75 220.85" fill="none" stroke="#382510" stroke-linecap="round" stroke-linejoin="round" stroke-opacity="0.2" stroke-width="0.05"/>
    <path d="M272.95 190.8 L274.75 191.7 274.3 193.8 273.55 193.8" fill="none" stroke="#382510" stroke-linecap="round" stroke-linejoin="round" stroke-opacity="0.3019608" stroke-width="0.05"/>
  </g>
</svg>
