<?xml version="1.0" encoding="UTF-8" standalone="no"?>
<svg xmlns:xlink="http://www.w3.org/1999/xlink" height="40.75px" width="31.3px" xmlns="http://www.w3.org/2000/svg">
  <g transform="matrix(1.0, 0.0, 0.0, 1.0, -259.8, -179.6)">
    <path d="M283.3 217.45 L283.25 217.45 283.25 217.4 283.3 217.45" fill="#8f6737" fill-rule="evenodd" stroke="none"/>
    <path d="M283.25 217.45 L283.1 217.5 283.25 217.4 283.25 217.45 M280.75 184.85 L280.95 185.0 280.75 185.1 280.75 184.85" fill="#a18253" fill-rule="evenodd" stroke="none"/>
    <path d="M283.7 183.6 L285.45 185.4 282.85 186.95 280.95 185.0 283.7 183.6 M286.3 186.5 L287.65 188.6 285.2 190.45 285.0 190.2 283.6 187.9 286.3 186.5 M268.8 181.75 Q270.85 180.35 274.05 179.65 L274.4 179.6 277.75 180.05 274.4 181.4 274.2 181.35 271.2 181.2 Q269.95 181.3 268.8 181.75 M270.2 215.65 L273.0 217.6 273.25 217.8 274.6 218.35 273.6 218.45 271.35 217.6 266.55 214.2 265.9 213.7 265.85 213.6 267.65 213.6 267.8 213.9 270.2 215.65" fill="#b19b52" fill-rule="evenodd" stroke="none"/>
    <path d="M277.75 180.05 Q279.1 180.45 280.5 181.3 L283.7 183.6 280.95 185.0 280.75 184.85 279.2 183.65 278.8 183.35 277.9 182.85 Q276.15 181.8 274.4 181.4 L277.75 180.05" fill="#c2ac78" fill-rule="evenodd" stroke="none"/>
    <path d="M285.45 185.4 Q285.1 186.25 286.3 186.5 L283.6 187.9 Q282.35 187.9 282.85 186.95 L285.45 185.4 M287.65 188.6 L289.2 192.05 290.1 194.75 287.55 196.3 287.5 196.2 287.5 196.25 286.6 193.6 285.2 190.45 287.65 188.6 M266.15 210.7 L266.7 211.8 267.65 213.6 265.85 213.6 263.7 209.45 263.3 208.4 265.7 209.85 266.15 210.7" fill="#8b7441" fill-rule="evenodd" stroke="none"/>
    <path d="M288.75 212.1 L287.95 213.5 Q285.6 216.5 283.3 217.45 L283.25 217.4 Q285.3 215.55 286.45 212.9 L288.75 212.1 M261.75 194.4 L261.8 193.25 264.9 187.1 270.3 183.75 271.9 184.15 266.8 187.3 263.7 193.45 263.7 193.8 Q262.8 194.4 261.6 196.3 L261.75 194.4" fill="#534226" fill-rule="evenodd" stroke="none"/>
    <path d="M290.1 194.75 Q291.85 200.9 290.55 206.95 289.95 209.85 288.75 212.1 L286.45 212.9 Q287.45 211.25 288.3 206.85 289.2 202.55 287.55 196.3 L290.1 194.75 M263.3 208.4 L261.15 202.6 261.6 196.3 Q262.8 194.4 263.7 193.8 L263.05 202.8 265.6 209.65 265.7 209.85 263.3 208.4" fill="#61512c" fill-rule="evenodd" stroke="none"/>
    <path d="M280.75 190.55 L282.2 191.7 283.45 195.05 282.95 197.8 Q282.65 200.25 282.75 203.0 L282.75 203.55 283.15 214.05 282.3 215.35 279.25 217.2 Q280.25 213.2 280.7 206.95 L280.75 190.55 M276.75 187.45 L277.65 191.85 278.0 194.1 Q278.45 198.9 278.45 205.35 L278.35 209.2 Q276.95 214.5 274.75 218.3 L274.65 218.35 274.6 218.35 273.25 217.8 273.0 217.6 275.75 210.4 Q276.3 208.85 276.4 205.4 276.45 201.3 275.8 194.5 L275.75 194.1 Q275.5 189.85 272.75 185.45 L273.75 185.05 276.75 187.45 M261.75 194.4 L261.75 193.8 261.8 193.25 261.75 194.4 M266.7 211.8 L266.6 211.1 266.5 210.35 Q266.0 206.25 265.95 201.95 L265.95 200.6 Q265.95 195.15 267.15 191.4 L267.2 191.3 Q268.45 187.6 270.25 187.6 272.0 187.6 273.25 191.4 L274.25 195.75 274.5 200.6 274.25 204.7 Q273.8 207.95 272.75 211.05 271.5 214.6 270.2 215.65 L267.8 213.9 267.65 213.6 266.7 211.8 M268.6 192.3 Q268.0 192.95 267.55 194.4 266.65 197.2 266.65 201.15 L266.7 202.55 Q266.85 205.65 267.55 207.95 268.45 210.75 269.75 210.75 271.05 210.75 271.9 207.95 272.85 205.2 272.85 201.15 272.85 197.2 271.9 194.4 271.05 191.65 269.75 191.65 269.15 191.65 268.6 192.3 M269.65 196.15 Q270.3 196.15 270.7 197.6 271.2 199.05 271.2 201.05 L271.2 201.65 Q271.15 203.35 270.7 204.55 270.3 206.0 269.65 206.0 268.95 206.0 268.45 204.55 L268.25 203.45 Q268.0 202.35 268.0 201.05 268.0 199.05 268.45 197.6 268.95 196.15 269.65 196.15 M270.3 199.1 Q270.15 198.35 269.8 198.35 269.5 198.35 269.3 199.1 269.15 199.95 269.15 200.95 269.15 202.0 269.3 202.75 L269.7 203.55 269.8 203.55 270.05 203.4 270.3 202.75 270.45 200.95 270.3 199.1 M286.1 199.75 L286.1 199.7 286.2 200.05 286.1 199.75 M285.75 201.25 L286.4 203.0 286.4 203.35 285.85 207.1 285.6 204.9 Q285.4 203.05 285.75 201.25" fill="#be6218" fill-rule="evenodd" stroke="none"/>
    <path d="M276.75 187.45 L280.75 190.55 280.7 206.95 Q280.25 213.2 279.25 217.2 L278.0 217.9 275.15 218.25 274.75 218.3 Q276.95 214.5 278.35 209.2 L278.45 205.35 Q278.45 198.9 278.0 194.1 L277.65 191.85 276.75 187.45 M270.2 215.65 Q271.5 214.6 272.75 211.05 273.8 207.95 274.25 204.7 L274.5 200.6 274.25 195.75 273.25 191.4 Q272.0 187.6 270.25 187.6 268.45 187.6 267.2 191.3 L267.15 191.4 Q265.95 195.15 265.95 200.6 L265.95 201.95 Q266.0 206.25 266.5 210.35 L266.6 211.1 266.7 211.8 266.15 210.7 264.05 202.5 265.55 191.55 269.2 186.8 272.75 185.45 Q275.5 189.85 275.75 194.1 L275.8 194.5 Q276.45 201.3 276.4 205.4 276.3 208.85 275.75 210.4 L273.0 217.6 270.2 215.65 M268.6 192.3 Q269.15 191.65 269.75 191.65 271.05 191.65 271.9 194.4 272.85 197.2 272.85 201.15 272.85 205.2 271.9 207.95 271.05 210.75 269.75 210.75 268.45 210.75 267.55 207.95 266.85 205.65 266.7 202.55 L266.65 201.15 Q266.65 197.2 267.55 194.4 268.0 192.95 268.6 192.3 M269.65 196.15 Q268.95 196.15 268.45 197.6 268.0 199.05 268.0 201.05 268.0 202.35 268.25 203.45 L268.45 204.55 Q268.95 206.0 269.65 206.0 270.3 206.0 270.7 204.55 271.15 203.35 271.2 201.65 L271.2 201.05 Q271.2 199.05 270.7 197.6 270.3 196.15 269.65 196.15 M270.3 199.1 L270.45 200.95 270.3 202.75 270.05 203.4 269.8 203.55 269.7 203.55 269.3 202.75 Q269.15 202.0 269.15 200.95 269.15 199.95 269.3 199.1 269.5 198.35 269.8 198.35 270.15 198.35 270.3 199.1 M266.55 214.2 L265.6 213.5 265.9 213.7 266.55 214.2 M286.1 199.7 L286.1 199.75 286.0 199.4 286.1 199.7 M285.85 207.1 L285.3 210.6 283.15 214.05 282.75 203.55 282.75 203.0 Q282.65 200.25 282.95 197.8 L283.45 195.05 285.75 201.25 Q285.4 203.05 285.6 204.9 L285.85 207.1" fill="#cb611b" fill-rule="evenodd" stroke="none"/>
    <path d="M283.1 217.5 L283.0 217.65 282.8 217.85 282.5 218.0 281.2 218.95 Q279.75 219.75 278.3 220.1 276.05 220.6 273.65 220.05 L271.9 219.4 271.25 219.2 270.3 218.7 Q267.75 217.2 265.85 214.95 L265.65 214.75 264.75 213.6 263.15 211.15 261.7 207.95 Q258.75 200.4 260.35 192.95 261.4 188.0 264.0 185.05 265.35 183.55 267.1 182.55 L268.4 181.9 268.55 181.8 268.8 181.75 Q269.95 181.3 271.2 181.2 L278.8 183.35 279.2 183.65 280.75 184.85 280.75 185.1 280.95 185.0 282.85 186.95 Q282.35 187.9 283.6 187.9 L285.0 190.2 285.2 190.45 286.6 193.6 287.5 196.25 287.5 196.2 287.55 196.3 Q289.2 202.55 288.3 206.85 287.45 211.25 286.45 212.9 285.3 215.55 283.25 217.4 L283.1 217.5 M284.0 192.9 L280.75 188.7 276.25 185.8 274.95 184.95 274.6 184.85 274.4 184.8 271.9 184.15 270.3 183.75 264.9 187.1 261.8 193.25 261.75 193.8 261.75 194.4 261.6 196.3 261.15 202.6 263.3 208.4 263.7 209.45 265.85 213.6 265.9 213.7 265.6 213.5 266.55 214.2 271.35 217.6 273.6 218.45 274.6 218.35 274.65 218.35 274.75 218.3 275.15 218.25 278.0 217.9 279.25 217.2 282.3 215.35 283.15 214.05 285.3 210.6 285.85 207.1 286.4 203.35 286.4 203.0 286.4 200.8 286.25 200.25 286.2 200.15 286.2 200.05 286.1 199.7 286.0 199.4 284.0 192.9 M274.65 218.35 L275.15 218.25 274.65 218.35" fill="#7a5b18" fill-rule="evenodd" stroke="none"/>
    <path d="M283.45 195.05 L282.2 191.7 280.75 190.55 280.75 188.7 284.0 192.9 283.45 195.05 M271.9 184.15 L274.4 184.8 274.6 184.85 274.95 184.95 276.25 185.8 276.75 187.45 273.75 185.05 272.75 185.45 271.9 184.15 M286.1 199.75 L286.2 200.05 286.2 200.15 286.25 200.25 286.4 200.8 286.4 203.0 285.75 201.25 286.1 199.75" fill="#7a3d12" fill-rule="evenodd" stroke="none"/>
    <path d="M283.45 195.05 L284.0 192.9 286.0 199.4 286.1 199.75 285.75 201.25 283.45 195.05 M280.75 188.7 L280.75 190.55 276.75 187.45 276.25 185.8 280.75 188.7 M263.7 193.8 L263.7 193.45 266.8 187.3 271.9 184.15 272.75 185.45 269.2 186.8 265.55 191.55 264.05 202.5 266.15 210.7 265.7 209.85 265.6 209.65 263.05 202.8 263.7 193.8" fill="#9c4b16" fill-rule="evenodd" stroke="none"/>
    <path d="M274.4 181.4 Q276.15 181.8 277.9 182.85 L278.8 183.35 271.2 181.2 274.2 181.35 274.4 181.4" fill="#e2d194" fill-rule="evenodd" stroke="none"/>
    <path d="M277.75 180.05 Q279.1 180.45 280.5 181.3 L283.7 183.6 285.45 185.4 Q285.1 186.25 286.3 186.5 L287.65 188.6 289.2 192.05 290.1 194.75 Q291.85 200.9 290.55 206.95 289.95 209.85 288.75 212.1 L287.95 213.5 Q285.6 216.5 283.3 217.45 L283.25 217.45 283.1 217.5 283.0 217.65 282.8 217.85 282.5 218.0 281.2 218.95 Q279.75 219.75 278.3 220.1 276.05 220.6 273.65 220.05 L271.9 219.4 271.25 219.2 270.3 218.7 Q267.75 217.2 265.85 214.95 L265.65 214.75 264.75 213.6 263.15 211.15 261.7 207.95 Q258.75 200.4 260.35 192.95 261.4 188.0 264.0 185.05 265.35 183.55 267.1 182.55 L268.4 181.9 268.55 181.8 268.8 181.75 Q270.85 180.35 274.05 179.65 L274.4 179.6 277.75 180.05 M283.25 217.4 L283.25 217.45 M283.25 217.4 L283.1 217.5" fill="none" stroke="#000000" stroke-linecap="round" stroke-linejoin="round" stroke-opacity="0.34901962" stroke-width="0.05"/>
    <path d="M284.0 192.9 L280.75 188.7 276.25 185.8 274.95 184.95 274.6 184.85 M275.15 218.25 L278.0 217.9 279.25 217.2 282.3 215.35 283.15 214.05 285.3 210.6 285.85 207.1 286.4 203.35 286.4 203.0 286.4 200.8 286.25 200.25 286.2 200.15 286.2 200.05 286.1 199.75 286.0 199.4 284.0 192.9 M271.9 184.15 L274.4 184.8 M275.15 218.25 L274.65 218.35 274.6 218.35 273.6 218.45 271.35 217.6" fill="none" stroke="#382510" stroke-linecap="round" stroke-linejoin="round" stroke-opacity="0.4" stroke-width="0.05"/>
    <path d="M283.0 193.5 L281.4 197.15 Q283.25 200.95 284.5 204.85 L284.45 205.8 283.25 208.7 283.95 210.3 283.75 212.6 282.05 213.7 268.05 209.6 263.75 204.2 263.75 203.75 Q265.1 201.05 266.05 199.9 265.8 204.15 267.0 206.05 267.45 206.7 268.05 206.95 L272.5 208.9 276.9 210.85 277.55 211.05 Q276.8 207.95 278.2 205.4 L280.2 211.3 280.15 211.35 280.25 211.3 281.1 211.35 281.3 210.1 281.3 208.2 Q282.95 204.05 280.6 198.5 276.6 193.3 271.6 192.1 L271.35 192.05 268.55 197.65 270.95 199.5 270.75 200.75 267.75 198.6 267.5 198.55 266.35 195.65 267.65 193.3 266.7 189.3 268.8 191.25 269.0 190.95 273.1 190.6 273.75 187.0 275.05 191.05 275.6 191.3 Q278.15 192.1 279.7 194.25 L283.0 193.5 M274.0 201.1 Q276.75 200.9 279.5 198.7 L279.7 204.25 279.1 204.25 275.1 202.25 274.0 201.1" fill="#ceab84" fill-rule="evenodd" stroke="none"/>
    <path d="M273.05 196.8 L273.7 207.6 272.65 203.65 273.05 196.8" fill="#382510" fill-opacity="0.8" fill-rule="evenodd" stroke="none"/>
    <path d="M270.6 184.45 L271.05 199.6 270.1 194.2 270.6 184.45" fill="#382510" fill-opacity="0.5019608" fill-rule="evenodd" stroke="none"/>
  </g>
</svg>
