<?xml version="1.0" encoding="UTF-8" standalone="no"?>
<svg xmlns:xlink="http://www.w3.org/1999/xlink" height="41.85px" width="35.65px" xmlns="http://www.w3.org/2000/svg">
  <g transform="matrix(1.0, 0.0, 0.0, 1.0, -258.15, -179.05)">
    <path d="M291.35 195.3 L292.4 197.95 Q293.45 201.05 293.8 204.1 291.65 205.4 290.15 208.9 289.25 211.1 293.65 209.7 292.85 210.85 292.3 212.15 291.4 213.8 290.95 215.6 L289.4 216.85 289.3 217.05 289.2 217.05 289.05 217.15 284.7 219.2 Q287.6 217.05 288.5 212.9 288.85 211.1 288.85 208.9 288.85 203.4 286.5 197.9 L291.35 195.3" fill="#65471b" fill-rule="evenodd" stroke="none"/>
    <path d="M276.55 179.8 Q277.6 180.95 272.5 182.15 L270.9 180.95 270.45 181.95 Q267.35 181.05 264.8 181.9 L269.9 179.3 274.15 179.2 276.55 179.8 M277.25 185.6 Q275.9 183.95 281.8 182.75 L282.6 183.35 282.95 183.7 284.35 184.95 285.9 186.6 287.85 189.05 289.4 191.45 290.2 192.8 290.3 193.0 290.45 193.25 Q290.35 194.2 285.65 196.15 L284.4 193.95 Q281.3 188.7 277.25 185.6" fill="#8a6923" fill-rule="evenodd" stroke="none"/>
    <path d="M274.6 183.85 L275.35 184.3 277.25 185.6 Q281.3 188.7 284.4 193.95 L285.65 196.15 285.7 196.25 276.05 194.95 281.5 196.7 Q283.45 197.3 283.9 198.95 284.85 202.2 284.05 205.5 L282.4 211.6 273.95 206.45 Q276.6 211.4 279.6 214.75 275.6 216.2 272.35 215.55 269.1 214.9 267.45 213.65 L264.8 211.7 262.6 208.45 261.95 207.4 261.95 207.35 261.9 207.2 Q258.15 200.35 258.15 193.45 258.15 191.0 258.55 189.1 L262.6 189.35 262.55 189.05 Q261.0 187.6 259.3 186.85 260.6 184.4 262.6 182.95 263.65 182.2 264.8 181.9 267.35 181.05 270.45 181.95 L269.45 184.2 274.6 183.85" fill="#b99237" fill-rule="evenodd" stroke="none"/>
    <path d="M281.5 220.7 L278.2 220.85 284.5 216.35 281.5 220.7" fill="#686017" fill-rule="evenodd" stroke="none"/>
    <path d="M284.7 219.2 L282.0 220.55 281.5 220.7 284.5 216.35 278.2 220.85 Q276.05 220.5 273.45 219.25 268.6 216.8 264.8 211.7 L267.45 213.65 Q269.1 214.9 272.35 215.55 275.6 216.2 279.6 214.75 276.6 211.4 273.95 206.45 L282.4 211.6 284.05 205.5 Q284.85 202.2 283.9 198.95 283.45 197.3 281.5 196.7 L276.05 194.95 285.7 196.25 286.5 197.9 Q288.85 203.4 288.85 208.9 288.85 211.1 288.5 212.9 287.6 217.05 284.7 219.2" fill="#9b6c28" fill-rule="evenodd" stroke="none"/>
    <path d="M276.55 179.8 Q277.5 180.15 278.5 180.65 L281.8 182.75 Q275.9 183.95 277.25 185.6 L275.35 184.3 274.6 183.85 274.85 183.8 272.5 182.15 Q277.6 180.95 276.55 179.8 M258.55 189.1 Q259.25 188.35 259.3 186.85 261.0 187.6 262.55 189.05 L262.6 189.35 258.55 189.1" fill="#f49302" fill-rule="evenodd" stroke="none"/>
    <path d="M272.5 182.15 L274.85 183.8 274.6 183.85 269.45 184.2 270.45 181.95 270.9 180.95 272.5 182.15" fill="#c16100" fill-rule="evenodd" stroke="none"/>
    <path d="M290.45 193.25 L290.6 193.5 291.2 194.9 291.35 195.3 286.5 197.9 285.7 196.25 285.65 196.15 Q290.35 194.2 290.45 193.25" fill="#73511e" fill-rule="evenodd" stroke="none"/>
    <path d="M293.8 204.1 L293.1 205.8 Q292.8 206.6 293.1 207.95 293.35 209.25 293.65 209.7 289.25 211.1 290.15 208.9 291.65 205.4 293.8 204.1" fill="#573e17" fill-rule="evenodd" stroke="none"/>
    <path d="M282.6 183.35 L282.95 183.7 284.35 184.95 M287.85 189.05 L289.4 191.45 290.2 192.8 290.3 193.0 290.45 193.25 290.6 193.5 M292.4 197.95 Q293.45 201.05 293.8 204.1 L293.1 205.8 Q292.8 206.6 293.1 207.95 293.35 209.25 293.65 209.7 292.85 210.85 292.3 212.15 291.4 213.8 290.95 215.6 L289.4 216.85 289.3 217.05 289.05 217.15 284.7 219.2 282.0 220.55 281.5 220.7 278.2 220.85 Q276.05 220.5 273.45 219.25 268.6 216.8 264.8 211.7 L262.6 208.45 261.95 207.4 261.95 207.35 M261.9 207.2 Q258.15 200.35 258.15 193.45 258.15 191.0 258.55 189.1 259.25 188.35 259.3 186.85 260.6 184.4 262.6 182.95 263.65 182.2 264.8 181.9 L269.9 179.3 274.15 179.2 M289.05 217.15 L289.2 217.05 289.3 217.05" fill="none" stroke="#000000" stroke-linecap="round" stroke-linejoin="round" stroke-opacity="0.3019608" stroke-width="0.05"/>
    <path d="M272.95 190.65 Q275.0 194.85 274.9 199.5 274.8 204.2 272.65 206.65 270.5 209.1 267.55 207.9 264.65 206.65 262.55 202.45 260.5 198.25 260.6 193.55 260.7 188.9 262.85 186.45 265.05 184.0 267.95 185.25 270.9 186.45 272.95 190.65" fill="#c8a048" fill-rule="evenodd" stroke="none"/>
  </g>
</svg>
