<?xml version="1.0" encoding="UTF-8" standalone="no"?>
<svg xmlns:xlink="http://www.w3.org/1999/xlink" height="48.8px" width="42.5px" xmlns="http://www.w3.org/2000/svg">
  <g transform="matrix(1.0, 0.0, 0.0, 1.0, -311.0, -186.65)">
    <path d="M330.9 205.0 Q344.4 206.25 349.15 199.35 M331.0 207.65 Q344.2 208.8 349.3 203.5 M327.6 218.75 Q334.35 220.6 340.35 227.2 M311.05 230.85 Q314.4 234.8 319.3 235.15 L321.65 235.45" fill="none" stroke="#000000" stroke-linecap="round" stroke-linejoin="round" stroke-width="0.05"/>
    <path d="M330.0 193.85 Q336.85 192.5 346.7 192.3 L346.8 192.3 Q349.45 191.8 348.35 189.8 347.45 188.75 345.1 188.65 337.65 188.9 330.65 193.45 L330.0 193.85 M311.05 230.85 Q310.9 229.4 311.4 228.05 L312.55 227.75 312.65 227.0 316.6 225.05 316.95 224.85 318.8 225.05 318.85 225.0 319.15 223.7 321.75 222.4 321.4 221.8 324.8 220.25 325.5 220.55 325.55 220.6 327.35 219.7 327.3 219.6 327.2 219.15 327.6 218.75 329.9 217.15 331.35 217.45 331.85 216.25 330.05 215.55 330.25 211.15 331.15 210.5 331.0 207.65 330.3 207.65 330.1 205.1 330.9 205.0 330.55 197.85 330.5 197.25 328.5 196.6 327.25 192.35 Q332.6 187.75 339.6 186.7 L346.4 186.9 Q350.0 187.3 350.95 187.9 351.15 188.1 350.8 190.9 350.45 193.85 350.95 194.9 350.3 195.85 348.9 196.2 L348.95 196.25 349.7 201.05 349.3 203.5 350.1 203.7 350.2 208.4 348.85 209.6 348.8 211.1 Q353.25 215.45 352.4 221.65 L352.5 221.65 353.35 221.55 353.25 224.3 353.5 224.1 M349.4 194.05 L347.3 194.2 347.35 196.05 348.3 195.8 M347.35 196.05 L346.75 197.2 348.95 196.25 M345.85 196.2 L347.35 196.05 M345.65 194.35 L347.3 194.2 346.7 192.3 M332.55 216.2 L342.1 216.7 345.25 215.7 Q346.55 215.05 347.65 214.2 348.5 213.45 348.4 212.95 M345.25 215.7 Q347.15 217.9 347.9 219.75 L348.9 219.4 M347.9 221.8 L348.35 221.6 347.9 219.75 346.7 220.15 M348.35 221.6 L349.1 221.2 M352.5 221.65 L351.95 222.15 351.7 222.35 Q350.8 223.0 349.9 223.2 L348.45 223.5 348.3 223.55 345.85 224.2 343.3 224.75 342.8 224.85 342.95 225.55 Q343.15 226.7 342.85 227.9 348.75 227.25 353.25 224.3 M322.05 221.85 Q328.9 224.05 332.7 230.5 L332.75 230.5 335.8 229.4 336.0 229.35 Q332.25 222.4 325.55 220.6 L325.5 220.55 M338.6 218.65 L338.9 218.85 338.7 218.7 338.6 218.65 Q335.2 216.85 332.2 216.55 M342.45 219.9 Q343.2 218.65 342.1 216.7 M342.8 224.85 L342.9 224.1 Q341.6 221.0 338.9 218.85 345.0 220.45 345.85 224.2 M339.95 228.35 Q338.4 229.55 336.3 230.2 336.9 231.1 336.55 232.2 L341.05 230.0 Q341.3 228.75 340.5 227.15 L340.35 227.2 339.65 227.6 336.0 229.35 M342.95 225.55 L342.2 226.1 342.15 226.1 Q342.9 226.9 342.65 228.1 L342.75 227.9 342.85 227.9 M342.15 226.1 L340.5 227.15 M334.7 230.7 L336.3 230.2 335.8 229.4 M341.05 230.0 L342.05 229.45 342.2 229.35 342.65 228.1 M319.6 223.85 Q322.95 225.1 325.6 227.15 L325.9 227.35 329.25 230.5 330.0 231.3 330.1 231.3 331.15 230.9 331.6 230.8 332.6 230.55 332.7 230.5 M330.1 231.3 L330.55 232.05 Q331.05 233.15 330.6 234.5 L333.1 233.6 Q333.5 231.85 332.6 230.55 M333.1 233.6 L333.3 233.55 333.65 233.45 Q334.05 231.85 332.75 230.5 M312.55 227.75 Q316.75 231.95 323.5 232.2 L324.95 232.15 Q327.4 232.2 330.0 231.3 M326.25 233.05 Q328.8 232.75 330.55 232.05 M321.65 235.45 L328.0 235.2 330.6 234.5 M333.65 233.45 L336.55 232.2 M348.3 223.55 L348.35 221.6 M347.65 214.2 Q350.35 217.05 349.9 223.2 M343.85 225.4 Q350.4 224.7 352.95 222.25 M332.05 210.35 Q339.0 212.3 349.0 208.95 M331.65 217.55 Q338.0 219.6 342.2 226.1 M327.3 219.6 Q334.15 221.55 339.65 227.6 M346.75 197.2 Q339.6 199.9 330.55 197.85 M312.1 228.8 Q316.6 233.0 321.85 233.0 M318.85 225.0 Q322.7 225.95 325.6 227.15 M316.6 225.05 Q321.55 229.3 329.25 230.5 M322.65 233.0 L325.6 233.15" fill="none" stroke="#000000" stroke-linecap="round" stroke-linejoin="round" stroke-width="0.05"/>
  </g>
</svg>
