<?xml version="1.0" encoding="UTF-8" standalone="no"?>
<svg xmlns:xlink="http://www.w3.org/1999/xlink" height="26.35px" width="81.25px" xmlns="http://www.w3.org/2000/svg">
  <g transform="matrix(1.0, 0.0, 0.0, 1.0, -229.85, -163.25)">
    <path d="M250.1 175.15 Q254.25 177.3 258.6 181.9 263.75 183.25 267.95 186.05 L267.55 185.95 Q261.55 183.4 255.85 182.15 249.4 178.35 250.1 175.15 M237.1 174.9 Q241.75 172.3 246.8 173.75 246.85 178.15 252.65 181.5 L240.5 181.05 244.65 178.05 239.2 178.25 236.55 180.45 235.05 179.95 Q236.8 178.35 237.1 174.9" fill="#00cc99" fill-rule="evenodd" stroke="none"/>
    <path d="M255.85 182.15 Q261.55 183.4 267.55 185.95 L258.2 183.65 Q254.8 186.45 251.3 187.9 249.35 185.35 244.15 183.75 L242.7 183.35 235.4 181.95 240.5 181.05 252.65 181.5 255.85 182.15" fill="#336600" fill-rule="evenodd" stroke="none"/>
    <path d="M250.1 175.15 Q249.4 178.35 255.85 182.15 L252.65 181.5 Q246.85 178.15 246.8 173.75 248.45 174.2 250.1 175.15 M239.5 189.3 L238.25 189.05 Q238.25 185.65 242.7 183.35 L244.15 183.75 Q239.85 186.2 239.5 189.3 M231.55 179.6 Q234.25 176.45 237.1 174.9 236.8 178.35 235.05 179.95 L235.0 179.95 234.95 180.0 232.3 181.5 232.7 179.6 231.55 179.6" fill="#ffcc00" fill-rule="evenodd" stroke="none"/>
    <path d="M251.3 187.9 Q245.5 190.35 239.5 189.3 239.85 186.2 244.15 183.75 249.35 185.35 251.3 187.9 M238.25 189.05 Q235.3 188.35 232.25 186.75 L232.15 186.75 Q229.5 183.4 229.9 181.85 L230.0 181.55 231.55 179.6 232.7 179.6 232.3 181.5 234.95 180.0 235.05 179.95 236.55 180.45 239.2 178.25 244.65 178.05 240.5 181.05 235.4 181.95 242.7 183.35 Q238.25 185.65 238.25 189.05" fill="#009933" fill-rule="evenodd" stroke="none"/>
    <path d="M283.1 189.0 Q286.45 183.95 290.25 180.3 293.3 173.75 291.05 170.85 288.95 174.75 287.95 181.2 284.65 184.7 282.8 189.3 L283.1 189.0 M292.4 178.35 Q296.75 174.7 301.6 172.85 L296.85 171.55 301.2 169.5 304.35 170.55 305.3 169.45 Q303.05 168.55 301.1 165.2 296.15 164.55 292.95 168.1 295.15 172.55 292.4 178.35" fill="#00cc99" fill-rule="evenodd" stroke="none"/>
    <path d="M283.1 189.0 L289.2 182.8 Q293.3 184.2 296.75 184.25 296.95 180.85 300.15 177.1 L301.05 176.05 Q303.1 173.95 306.05 171.65 303.8 172.05 301.6 172.85 296.75 174.7 292.4 178.35 L290.25 180.3 Q286.45 183.95 283.1 189.0" fill="#336600" fill-rule="evenodd" stroke="none"/>
    <path d="M290.25 180.3 L292.4 178.35 Q295.15 172.55 292.95 168.1 291.9 169.25 291.05 170.85 293.3 173.75 290.25 180.3 M301.05 176.05 L300.15 177.1 Q304.8 177.8 306.65 180.75 L307.5 179.95 Q305.75 176.55 301.05 176.05 M307.85 167.65 Q304.15 165.6 301.1 165.2 303.05 168.55 305.3 169.45 L305.35 169.45 305.4 169.5 308.25 169.9 306.95 168.2 307.85 167.65" fill="#ffcc00" fill-rule="evenodd" stroke="none"/>
    <path d="M301.6 172.85 Q303.8 172.05 306.05 171.65 303.1 173.95 301.05 176.05 305.75 176.55 307.5 179.95 309.4 178.0 310.95 175.2 L311.05 175.1 Q311.35 170.65 310.3 169.25 L310.05 169.0 307.85 167.65 306.95 168.2 308.25 169.9 305.4 169.5 305.3 169.45 304.35 170.55 301.2 169.5 296.85 171.55 301.6 172.85 M300.15 177.1 Q296.95 180.85 296.75 184.25 302.5 184.3 306.65 180.75 304.8 177.8 300.15 177.1" fill="#009933" fill-rule="evenodd" stroke="none"/>
    <path d="M267.8 170.2 Q268.65 174.0 267.85 179.9 269.8 183.55 270.2 188.0 L270.1 187.7 Q268.45 182.55 266.2 178.6 265.2 172.3 267.8 170.2 M260.75 163.3 Q265.05 163.65 266.9 167.45 263.9 170.9 264.85 176.5 262.05 172.45 258.4 169.9 L262.75 169.65 259.6 167.0 256.65 167.35 256.1 166.2 Q258.25 165.8 260.75 163.3" fill="#00cc99" fill-rule="evenodd" stroke="none"/>
    <path d="M266.2 178.6 Q268.45 182.55 270.1 187.7 L266.45 181.05 259.7 180.8 Q260.4 177.8 258.6 173.85 L258.1 172.8 Q256.9 170.55 254.95 167.95 256.8 168.75 258.4 169.9 262.05 172.45 264.85 176.5 L266.2 178.6" fill="#336600" fill-rule="evenodd" stroke="none"/>
    <path d="M267.8 170.2 Q265.2 172.3 266.2 178.6 L264.85 176.5 Q263.9 170.9 266.9 167.45 267.5 168.65 267.8 170.2 M252.2 175.8 L251.7 174.95 Q254.0 172.3 258.1 172.8 L258.6 173.85 Q254.5 173.55 252.2 175.8 M254.45 164.15 Q258.05 163.0 260.75 163.3 258.25 165.8 256.1 166.2 L256.0 166.2 253.6 166.05 255.05 164.75 254.45 164.15" fill="#ffcc00" fill-rule="evenodd" stroke="none"/>
    <path d="M259.7 180.8 Q254.85 179.75 252.2 175.8 254.5 173.55 258.6 173.85 260.4 177.8 259.7 180.8 M251.7 174.95 Q250.55 172.85 249.9 170.1 L249.95 170.0 Q250.7 166.0 251.95 165.0 L252.25 164.8 Q253.4 164.4 254.45 164.15 L255.05 164.75 253.6 166.05 256.0 166.2 256.1 166.2 256.65 167.35 259.6 167.0 262.75 169.65 258.4 169.9 Q256.8 168.75 254.95 167.95 256.9 170.55 258.1 172.8 254.0 172.3 251.7 174.95" fill="#009933" fill-rule="evenodd" stroke="none"/>
  </g>
</svg>
