<?xml version="1.0" encoding="UTF-8" standalone="no"?>
<svg xmlns:xlink="http://www.w3.org/1999/xlink" height="38.55px" width="32.95px" xmlns="http://www.w3.org/2000/svg">
  <g transform="matrix(1.0, 0.0, 0.0, 1.0, -259.0, -180.7)">
    <path d="M268.85 188.45 L270.5 190.95" fill="none" stroke="#0f4a11" stroke-linecap="round" stroke-linejoin="round" stroke-width="0.5"/>
    <path d="M281.7 186.1 L281.55 187.1 274.3 189.5 274.55 196.05 273.85 196.3 273.6 194.9 273.4 193.5 272.95 190.9 271.6 190.9 270.85 192.6 270.1 194.3 269.4 196.1 268.25 195.7 271.0 189.75 Q267.35 189.25 264.5 188.2 L264.85 186.75 265.15 187.6 Q268.25 188.8 272.7 188.8 277.2 188.0 281.7 186.1" fill="#9b6305" fill-rule="evenodd" stroke="none"/>
    <path d="M278.05 183.65 L279.9 185.65 Q276.7 187.0 273.3 187.45 L266.45 186.95 266.85 186.1 270.3 185.95 Q274.5 185.45 278.05 183.65 M279.8 188.25 L279.6 189.25 277.35 191.3 277.25 194.7 276.35 195.3 275.9 195.55 275.6 190.05 279.8 188.25 M266.7 195.15 L266.0 194.9 267.5 191.15 265.7 190.1 265.9 189.5 268.9 190.5 267.05 195.35 266.7 195.15 M273.4 193.5 L271.8 193.5 270.85 192.6 271.8 193.5 273.4 193.5 273.6 194.9 271.8 193.5 270.1 194.3 271.8 193.5 273.6 194.9 273.85 196.3 271.25 197.4 271.15 197.4 268.25 195.7 269.4 196.1 270.1 194.3 270.85 192.6 271.6 190.9 272.95 190.9 273.4 193.5" fill="#583803" fill-rule="evenodd" stroke="none"/>
    <path d="M270.05 197.8 L271.15 197.4 271.25 197.4 270.05 197.8 M273.95 198.7 L274.4 198.95 270.45 200.4 270.25 200.3 270.45 200.4 266.1 202.35 265.0 202.55 270.25 200.3 273.95 198.7" fill="#a1664c" fill-rule="evenodd" stroke="none"/>
    <path d="M266.0 194.9 L265.7 194.75 Q264.85 194.2 265.0 193.55 L265.7 190.1 267.5 191.15 266.0 194.9" fill="#13a21a" fill-rule="evenodd" stroke="none"/>
    <path d="M274.35 202.9 L274.45 202.95 Q275.15 203.95 275.25 205.0 L272.45 207.4 Q272.55 202.8 264.95 202.9 L265.0 202.55 266.1 202.35 Q271.5 201.55 274.35 202.9" fill="#0c610c" fill-rule="evenodd" stroke="none"/>
    <path d="M276.35 195.3 L275.9 197.5 277.75 206.8 Q274.8 208.45 271.55 209.15 L267.7 209.4 272.45 207.4 275.25 205.0 Q275.15 203.95 274.45 202.95 L274.35 202.9 270.45 200.4 274.4 198.95 273.95 198.7 271.25 197.4 273.85 196.3 274.55 196.05 275.9 195.55 276.35 195.3" fill="#0a4b0a" fill-rule="evenodd" stroke="none"/>
    <path d="M269.0 183.5 L269.15 183.35 277.15 182.9 278.05 183.65 Q274.5 185.45 270.3 185.95 L269.0 183.5 M279.6 189.25 L278.9 193.05 277.25 194.7 277.35 191.3 279.6 189.25" fill="#0d6c0d" fill-rule="evenodd" stroke="none"/>
    <path d="M267.55 198.9 L269.65 197.95 270.05 197.8 271.25 197.4 273.95 198.7 270.25 200.3 267.55 198.9 M270.45 200.4 L274.35 202.9 Q271.5 201.55 266.1 202.35 L270.45 200.4" fill="#118c11" fill-rule="evenodd" stroke="none"/>
    <path d="M266.85 186.1 Q267.55 184.75 269.0 183.5 L270.3 185.95 266.85 186.1 M277.75 206.8 L277.5 208.2 276.75 209.75 Q271.55 212.6 265.6 212.6 L263.8 212.55 Q260.0 211.7 259.15 209.7 L259.05 209.05 259.1 208.55 Q259.25 207.65 260.2 206.75 261.05 208.8 264.8 209.65 L267.7 209.4 271.55 209.15 Q274.8 208.45 277.75 206.8" fill="#0a4b0d" fill-rule="evenodd" stroke="none"/>
    <path d="M278.05 183.65 L277.15 182.9 269.15 183.35 269.0 183.5 Q267.55 184.75 266.85 186.1 L266.45 186.95 273.3 187.45 Q276.7 187.0 279.9 185.65 L278.05 183.65 M264.85 186.75 L264.8 186.7 Q265.65 184.55 267.8 182.6 L275.85 181.8 278.55 181.95 Q281.05 183.55 281.7 186.1 277.2 188.0 272.7 188.8 268.25 188.8 265.15 187.6 L264.85 186.75 M281.55 187.1 L281.5 187.35 Q281.15 187.45 279.8 188.25 L275.6 190.05 275.9 195.55 274.55 196.05 274.3 189.5 281.55 187.1 M265.9 189.5 Q265.2 189.35 264.4 188.7 L264.5 188.2 Q267.35 189.25 271.0 189.75 L268.25 195.7 267.05 195.35 268.9 190.5 265.9 189.5" fill="#fdf0d7" fill-rule="evenodd" stroke="none"/>
    <path d="M260.2 206.75 Q261.05 204.45 263.25 202.95 263.7 201.3 264.8 199.8 265.2 198.95 265.9 198.2 L266.2 197.4 266.7 195.15 267.05 195.35 268.25 195.7 271.15 197.4 270.05 197.8 269.65 197.95 267.55 198.9 270.25 200.3 265.0 202.55 264.95 202.9 Q272.55 202.8 272.45 207.4 L267.7 209.4 264.8 209.65 Q261.05 208.8 260.2 206.75" fill="#469823" fill-rule="evenodd" stroke="none"/>
    <path d="M269.0 183.5 L269.15 183.35 277.15 182.9 278.05 183.65 279.9 185.65 Q276.7 187.0 273.3 187.45 L266.45 186.95 266.85 186.1 Q267.55 184.75 269.0 183.5 M264.85 186.75 L264.8 186.7 Q265.65 184.55 267.8 182.6 L275.85 181.8 278.55 181.95 Q281.05 183.55 281.7 186.1 L281.55 187.1 281.5 187.35 Q281.15 187.45 279.8 188.25 L279.6 189.25 278.9 193.05 277.25 194.7 276.35 195.3 275.9 197.5 277.75 206.8 277.5 208.2 276.75 209.75 Q271.55 212.6 265.6 212.6 L263.8 212.55 Q260.0 211.7 259.15 209.7 L259.05 209.05 259.1 208.55 Q259.25 207.65 260.2 206.75 261.05 204.45 263.25 202.95 263.7 201.3 264.8 199.8 265.2 198.95 265.9 198.2 L266.2 197.4 266.7 195.15 266.0 194.9 265.7 194.75 Q264.85 194.2 265.0 193.55 L265.7 190.1 265.9 189.5 Q265.2 189.35 264.4 188.7 L264.5 188.2 264.85 186.75 265.15 187.6 Q268.25 188.8 272.7 188.8 277.2 188.0 281.7 186.1 M279.8 188.25 L275.6 190.05 275.9 195.55 276.35 195.3 M270.85 192.6 L271.8 193.5 273.4 193.5 272.95 190.9 271.6 190.9 270.85 192.6 270.1 194.3 271.8 193.5 273.6 194.9 273.4 193.5 M267.05 195.35 L268.9 190.5 265.9 189.5 M268.25 195.7 L269.4 196.1 270.1 194.3 M266.7 195.15 L267.05 195.35 268.25 195.7 271.15 197.4 271.25 197.4 273.85 196.3 273.6 194.9 M273.95 198.7 L271.25 197.4 270.05 197.8 M270.25 200.3 L270.45 200.4 274.35 202.9 274.45 202.95 M267.7 209.4 L271.55 209.15 Q274.8 208.45 277.75 206.8 M273.85 196.3 L274.55 196.05 275.9 195.55 M270.45 200.4 L266.1 202.35 M260.2 206.75 Q261.05 208.8 264.8 209.65 L267.7 209.4 M270.25 200.3 L267.55 198.9" fill="none" stroke="#48230e" stroke-linecap="round" stroke-linejoin="round" stroke-width="0.1"/>
    <path d="M269.0 183.5 L270.3 185.95 M267.55 198.9 L269.65 197.95 270.05 197.8 271.15 197.4 M270.45 200.4 L274.4 198.95 273.95 198.7 270.25 200.3 265.0 202.55" fill="none" stroke="#0f4a11" stroke-linecap="round" stroke-linejoin="round" stroke-width="0.5"/>
    <path d="M279.5 182.55 L280.45 185.15 281.9 185.15 Q285.15 184.45 287.85 183.05 289.15 184.3 290.0 185.7 286.7 187.2 283.0 187.6 L280.3 187.55 Q278.45 187.3 277.25 186.25 277.8 184.45 279.0 182.7 L279.5 182.55 M290.4 188.95 L290.4 190.35 288.55 192.85 289.15 197.15 288.3 197.9 288.0 198.2 287.2 194.15 287.25 192.8 287.0 191.15 290.4 188.95 M278.95 197.75 L278.3 197.45 278.3 197.4 278.95 192.75 277.0 191.4 277.0 190.6 Q278.6 191.45 280.1 191.85 L279.95 193.15 279.95 194.2 279.4 198.0 278.95 197.75 M282.1 197.15 L283.0 197.25 284.45 197.15 285.3 198.85 285.75 197.85 286.1 199.15 283.8 200.5 283.75 200.5 280.6 198.45 281.75 198.95 282.1 197.15" fill="#583803" fill-rule="evenodd" stroke="none"/>
    <path d="M291.9 186.2 L291.9 187.5 286.65 190.0 286.25 188.9 Q289.1 187.9 291.9 186.2 M278.3 197.45 L278.25 197.4 278.3 197.4 278.3 197.45 M275.4 188.9 L275.4 187.05 275.95 188.2 Q278.05 189.2 280.6 189.55 L280.35 190.6 Q277.65 189.95 275.4 188.9 M281.1 189.6 L283.6 189.7 285.9 189.05 285.75 190.4 Q285.45 190.5 285.5 190.6 L285.35 191.35 284.7 192.3 282.8 192.35 282.65 192.35 282.0 191.6 281.65 191.2 281.7 191.15 281.5 190.8 281.1 189.6 M282.0 191.6 L281.7 191.15 282.0 191.6 M280.9 197.1 L281.55 198.8 282.0 197.15 282.1 197.15 281.75 198.95 280.6 198.45 280.9 197.1 M286.25 196.65 L286.35 196.65 286.75 198.85 286.1 199.15 285.75 197.85 286.25 196.65" fill="#9b6305" fill-rule="evenodd" stroke="none"/>
    <path d="M285.35 191.35 L285.5 190.6 Q285.45 190.5 285.75 190.4 L285.35 191.35 M280.7 196.65 L280.8 196.75 280.75 196.75 280.7 196.65" fill="#fec416" fill-rule="evenodd" stroke="none"/>
    <path d="M287.95 207.35 L288.0 207.4 287.9 207.4 287.95 207.35 M283.75 200.5 L283.8 200.5 282.85 201.05 283.75 200.5" fill="#a1664c" fill-rule="evenodd" stroke="none"/>
    <path d="M287.9 207.4 L288.0 207.4 Q288.85 208.7 289.05 209.95 L286.85 212.85 Q286.1 207.3 278.8 207.35 L278.8 206.95 283.4 204.15 283.65 204.3 279.8 206.75 Q284.9 205.8 287.9 207.4" fill="#0f7b14" fill-rule="evenodd" stroke="none"/>
    <path d="M278.25 197.4 L277.9 197.2 Q277.0 196.55 277.0 195.8 L277.0 191.4 278.95 192.75 278.3 197.4 278.25 197.4 M287.95 207.35 L287.9 207.4 Q284.9 205.8 279.8 206.75 L283.65 204.3 287.9 207.35 287.95 207.35 M286.75 202.5 L287.15 202.45 283.65 204.3 283.4 204.15 Q285.1 203.35 286.75 202.5 285.1 203.35 283.4 204.15 L280.55 202.4 Q281.2 201.95 281.95 201.55 L282.85 201.05 283.8 200.5 286.75 202.5" fill="#13a21a" fill-rule="evenodd" stroke="none"/>
    <path d="M286.85 182.1 L287.85 183.05 Q285.15 184.45 281.9 185.15 L280.45 185.15 279.5 182.55 286.85 182.1 M290.4 190.35 L290.4 195.1 289.15 197.15 288.55 192.85 290.4 190.35" fill="#118c16" fill-rule="evenodd" stroke="none"/>
    <path d="M288.3 197.9 L288.3 200.65 291.85 212.15 Q289.35 214.15 286.35 215.0 L282.8 215.35 286.85 212.85 289.05 209.95 Q288.85 208.7 288.0 207.4 L287.95 207.35 287.9 207.35 283.65 204.3 287.15 202.45 286.75 202.5 283.8 200.5 286.1 199.15 286.75 198.85 288.0 198.2 288.3 197.9" fill="#0d6c11" fill-rule="evenodd" stroke="none"/>
    <path d="M291.85 212.15 L291.85 213.85 291.4 215.7 Q287.05 219.2 281.35 219.2 L279.6 219.1 Q275.9 218.15 274.65 215.7 273.9 213.9 275.05 212.1 276.35 214.6 280.05 215.6 L282.8 215.35 286.35 215.0 Q289.35 214.15 291.85 212.15" fill="#0a4b0d" fill-rule="evenodd" stroke="none"/>
    <path d="M280.6 189.55 L281.0 188.0 281.1 189.6 281.5 190.8 281.7 191.15 281.65 191.2 282.0 191.6 282.65 192.35 282.8 192.35 283.2 194.55 283.0 197.25 282.1 197.15 282.0 197.15 281.55 198.8 280.9 197.1 280.75 196.75 280.8 196.75 280.7 196.65 Q280.05 195.55 279.95 194.2 L279.95 193.15 280.1 191.85 280.35 190.6 280.6 189.55 M282.15 193.6 L281.85 193.45 281.7 193.6 281.6 194.0 281.7 194.4 281.8 194.55 282.2 194.6 Q282.5 194.6 282.45 194.2 L282.15 193.6 M286.35 196.65 L286.25 196.65 286.3 196.55 286.4 196.45 286.4 196.6 286.35 196.65 M271.05 195.4 L270.25 195.25 269.7 196.6 269.3 194.9 Q268.75 193.8 268.95 192.6 L269.05 192.15 Q269.4 190.4 270.35 188.55 269.95 190.3 271.15 191.7 L271.3 191.7 271.45 193.35 271.05 195.4 M273.7 194.8 L273.7 194.95 273.6 194.9 273.7 194.8 M270.7 192.6 L270.45 192.45 270.35 192.55 270.3 192.85 Q270.2 193.0 270.25 193.15 L270.35 193.3 270.65 193.3 270.9 193.1 270.7 192.6" fill="#fef7e0" fill-rule="evenodd" stroke="none"/>
    <path d="M282.15 193.6 L282.45 194.2 Q282.5 194.6 282.2 194.6 L281.8 194.55 281.7 194.4 281.6 194.0 281.7 193.6 281.85 193.45 282.15 193.6 M285.55 193.45 L285.8 193.95 285.55 194.5 Q285.4 194.7 285.15 194.7 L285.05 194.75 284.85 194.7 284.5 194.5 284.3 193.95 284.5 193.45 284.5 193.4 285.05 193.2 285.15 193.2 285.55 193.45 M270.7 192.6 L270.9 193.1 270.65 193.3 270.35 193.3 270.25 193.15 Q270.2 193.0 270.3 192.85 L270.35 192.55 270.45 192.45 270.7 192.6 M272.9 192.35 L272.95 192.4 Q273.1 192.4 273.25 192.6 L273.35 193.0 273.2 193.35 272.9 193.5 272.75 193.5 272.4 193.35 272.25 192.9 Q272.25 192.65 272.45 192.55 272.6 192.35 272.9 192.35" fill="#855e05" fill-rule="evenodd" stroke="none"/>
    <path d="M286.25 188.9 L286.65 190.0 287.0 191.15 287.25 192.8 287.2 194.15 Q287.05 195.45 286.4 196.45 L286.3 196.55 286.25 196.65 285.75 197.85 285.3 198.85 284.45 197.15 283.0 197.25 283.2 194.55 282.8 192.35 284.7 192.3 285.35 191.35 285.75 190.4 285.9 189.05 285.85 188.1 286.25 188.9 M285.55 193.45 L285.15 193.2 285.05 193.2 284.5 193.4 284.5 193.45 284.3 193.95 284.5 194.5 284.85 194.7 285.05 194.75 285.15 194.7 Q285.4 194.7 285.55 194.5 L285.8 193.95 285.55 193.45 M271.3 191.7 L272.7 191.75 Q273.85 190.65 273.8 188.95 274.45 190.6 274.5 192.15 L274.5 192.6 Q274.35 193.85 273.7 194.8 L273.6 194.9 273.6 194.95 273.55 194.95 272.65 196.65 272.15 195.35 271.05 195.4 271.45 193.35 271.3 191.7 M272.9 192.35 Q272.6 192.35 272.45 192.55 272.25 192.65 272.25 192.9 L272.4 193.35 272.75 193.5 272.9 193.5 273.2 193.35 273.35 193.0 273.25 192.6 Q273.1 192.4 272.95 192.4 L272.9 192.35" fill="#fce7b8" fill-rule="evenodd" stroke="none"/>
    <path d="M287.85 183.05 L286.85 182.1 279.5 182.55 279.0 182.7 Q277.8 184.45 277.25 186.25 278.45 187.3 280.3 187.55 L283.0 187.6 Q286.7 187.2 290.0 185.7 289.15 184.3 287.85 183.05 M291.9 187.5 L291.9 187.9 290.4 188.95 287.0 191.15 286.65 190.0 291.9 187.5 M277.0 190.6 L275.4 189.55 275.4 188.9 Q277.65 189.95 280.35 190.6 L280.1 191.85 Q278.6 191.45 277.0 190.6 M275.4 187.05 L275.4 187.0 Q275.9 184.35 277.55 181.7 281.4 180.75 285.3 180.75 L287.95 180.85 Q290.8 183.05 291.9 186.2 289.1 187.9 286.25 188.9 L285.85 188.1 285.9 189.05 283.6 189.7 281.1 189.6 281.0 188.0 280.6 189.55 Q278.05 189.2 275.95 188.2 L275.4 187.05 M279.4 198.0 L279.95 194.2 Q280.05 195.55 280.7 196.65 L280.75 196.75 280.9 197.1 280.6 198.45 279.4 198.0 M287.2 194.15 L288.0 198.2 286.75 198.85 286.35 196.65 286.4 196.6 286.4 196.45 Q287.05 195.45 287.2 194.15" fill="#fdf0d7" fill-rule="evenodd" stroke="none"/>
    <path d="M264.35 206.05 Q263.45 206.6 262.75 206.3 262.05 206.0 262.05 205.7 262.05 205.35 262.55 205.15 L263.75 204.95 264.9 205.15 Q265.4 205.35 265.4 205.7 265.4 206.0 265.3 205.75 265.2 205.45 264.35 206.05 M280.1 210.0 L281.75 210.3 Q282.45 210.6 282.45 211.05 282.45 211.5 281.75 211.6 L280.1 211.9 278.45 211.85 Q277.75 211.5 277.75 211.05 277.75 210.6 278.45 210.3 L280.1 210.0" fill="#aef4ae" fill-rule="evenodd" stroke="none"/>
    <path d="M275.05 212.1 Q275.5 209.3 277.2 207.4 277.4 205.55 278.05 203.6 L278.8 201.6 278.95 200.55 278.95 197.75 279.4 198.0 280.6 198.45 283.75 200.5 282.85 201.05 281.95 201.55 Q281.2 201.95 280.55 202.4 L283.4 204.15 278.8 206.95 278.8 207.35 Q286.1 207.3 286.85 212.85 L282.8 215.35 280.05 215.6 Q276.35 214.6 275.05 212.1 M280.1 210.0 L278.45 210.3 Q277.75 210.6 277.75 211.05 277.75 211.5 278.45 211.85 L280.1 211.9 281.75 211.6 Q282.45 211.5 282.45 211.05 282.45 210.6 281.75 210.3 L280.1 210.0" fill="#469823" fill-rule="evenodd" stroke="none"/>
    <path d="M287.85 183.05 L286.85 182.1 M287.85 183.05 Q289.15 184.3 290.0 185.7 286.7 187.2 283.0 187.6 L280.3 187.55 Q278.45 187.3 277.25 186.25 M291.9 186.2 L291.9 187.5 291.9 187.9 290.4 188.95 290.4 190.35 290.4 195.1 289.15 197.15 288.3 197.9 288.3 200.65 291.85 212.15 291.85 213.85 291.4 215.7 Q287.05 219.2 281.35 219.2 L279.6 219.1 Q275.9 218.15 274.65 215.7 273.9 213.9 275.05 212.1 275.5 209.3 277.2 207.4 277.4 205.55 278.05 203.6 L278.8 201.6 278.95 200.55 278.95 197.75 278.3 197.45 278.25 197.4 277.9 197.2 Q277.0 196.55 277.0 195.8 L277.0 191.4 277.0 190.6 275.4 189.55 275.4 188.9 275.4 187.05 275.4 187.0 Q275.9 184.35 277.55 181.7 281.4 180.75 285.3 180.75 L287.95 180.85 Q290.8 183.05 291.9 186.2 289.1 187.9 286.25 188.9 L286.65 190.0 287.0 191.15 290.4 188.95 M280.6 189.55 L281.0 188.0 281.1 189.6 283.6 189.7 285.9 189.05 285.85 188.1 286.25 188.9 M281.1 189.6 L281.5 190.8 281.7 191.15 282.0 191.6 282.65 192.35 282.8 192.35 284.7 192.3 285.35 191.35 285.75 190.4 285.9 189.05 M282.15 193.6 L282.45 194.2 Q282.5 194.6 282.2 194.6 L281.8 194.55 281.7 194.4 281.6 194.0 281.7 193.6 281.85 193.45 282.15 193.6 M285.55 193.45 L285.8 193.95 285.55 194.5 Q285.4 194.7 285.15 194.7 L285.05 194.75 284.85 194.7 284.5 194.5 284.3 193.95 284.5 193.45 284.5 193.4 285.05 193.2 285.15 193.2 285.55 193.45 M279.95 194.2 L279.95 193.15 280.1 191.85 Q278.6 191.45 277.0 190.6 M280.1 191.85 L280.35 190.6 280.6 189.55 Q278.05 189.2 275.95 188.2 L275.4 187.05 M279.4 198.0 L279.95 194.2 Q280.05 195.55 280.7 196.65 L280.75 196.75 280.9 197.1 281.55 198.8 282.0 197.15 282.1 197.15 283.0 197.25 284.45 197.15 285.3 198.85 285.75 197.85 286.1 199.15 286.75 198.85 288.0 198.2 288.3 197.9 M278.95 197.75 L279.4 198.0 280.6 198.45 281.75 198.95 282.1 197.15 M287.0 191.15 L287.25 192.8 287.2 194.15 288.0 198.2 M286.25 196.65 L285.75 197.85 M286.4 196.45 L286.3 196.55 286.25 196.65 M286.4 196.45 Q287.05 195.45 287.2 194.15 M271.05 195.4 L270.25 195.25 269.7 196.6 269.3 194.9 Q268.75 193.8 268.95 192.6 L269.05 192.15 Q269.4 190.4 270.35 188.55 269.95 190.3 271.15 191.7 L271.3 191.7 272.7 191.75 Q273.85 190.65 273.8 188.95 274.45 190.6 274.5 192.15 L274.5 192.6 Q274.35 193.85 273.7 194.8 L273.6 194.9 273.6 194.95 273.55 194.95 272.65 196.65 272.15 195.35 271.05 195.4 M270.7 192.6 L270.9 193.1 270.65 193.3 270.35 193.3 270.25 193.15 Q270.2 193.0 270.3 192.85 L270.35 192.55 270.45 192.45 270.7 192.6 M272.9 192.35 L272.95 192.4 Q273.1 192.4 273.25 192.6 L273.35 193.0 273.2 193.35 272.9 193.5 272.75 193.5 272.4 193.35 272.25 192.9 Q272.25 192.65 272.45 192.55 272.6 192.35 272.9 192.35 M288.0 207.4 L287.95 207.35 287.9 207.35 283.65 204.3 279.8 206.75 M282.8 215.35 L286.35 215.0 Q289.35 214.15 291.85 212.15 M283.65 204.3 L287.15 202.45 286.75 202.5 283.8 200.5 286.1 199.15 M283.4 204.15 L283.65 204.3 M283.75 200.5 L283.8 200.5 282.85 201.05 M283.75 200.5 L280.6 198.45 M280.55 202.4 L283.4 204.15 M275.05 212.1 Q276.35 214.6 280.05 215.6 L282.8 215.35" fill="none" stroke="#48230e" stroke-linecap="round" stroke-linejoin="round" stroke-width="0.1"/>
    <path d="M286.75 202.5 Q285.1 203.35 283.4 204.15 L278.8 206.95 M282.85 201.05 L283.75 200.5 M282.85 201.05 L281.95 201.55 Q281.2 201.95 280.55 202.4" fill="none" stroke="#105013" stroke-linecap="round" stroke-linejoin="round" stroke-width="0.5"/>
  </g>
</svg>
