<?xml version="1.0" encoding="UTF-8" standalone="no"?>
<svg xmlns:xlink="http://www.w3.org/1999/xlink" height="75.85px" width="118.85px" xmlns="http://www.w3.org/2000/svg">
  <g transform="matrix(1.0, 0.0, 0.0, 1.0, -183.45, -258.95)">
    <path d="M264.65 266.25 L271.4 258.95 Q276.5 269.15 274.65 280.85 L274.3 283.2 Q261.0 275.9 264.65 266.25" fill="#ffffff" fill-rule="evenodd" stroke="none"/>
    <path d="M283.6 322.6 Q283.7 319.95 285.3 319.55 L286.35 321.05 283.6 322.6" fill="#575445" fill-rule="evenodd" stroke="none"/>
    <path d="M223.2 289.5 Q230.65 287.1 237.65 286.75 245.0 286.6 251.7 288.9 255.15 290.05 258.45 291.9 L263.55 295.0 267.7 300.75 Q271.9 306.7 276.8 311.5 L276.9 311.6 284.6 318.35 287.6 320.3 286.35 321.05 285.3 319.55 Q283.7 319.95 283.6 322.6 269.35 323.4 257.45 321.3 245.5 319.15 257.3 318.3 L246.3 317.75 245.25 317.55 Q236.8 316.05 228.85 311.8 224.95 309.7 221.2 306.95 L217.1 303.7 216.65 303.35 Q213.2 300.4 211.35 296.9 L210.65 295.4 215.6 292.5 Q217.55 291.55 219.5 290.8 L219.95 290.65 220.05 290.6 Q221.6 290.0 223.2 289.5" fill="#78745b" fill-rule="evenodd" stroke="none"/>
    <path d="M274.3 283.2 L273.4 287.0 Q271.5 293.6 267.7 300.75 L263.55 295.0 258.45 291.9 Q255.15 290.05 251.7 288.9 245.0 286.6 237.65 286.75 251.0 280.3 264.65 266.25 261.0 275.9 274.3 283.2" fill="#c9c1ab" fill-rule="evenodd" stroke="none"/>
    <path d="M276.9 311.6 L276.8 311.5 277.95 309.8 276.9 311.6" fill="#533939" fill-rule="evenodd" stroke="none"/>
    <path d="M236.85 327.1 L228.1 327.9 Q204.9 335.45 195.1 327.15 189.0 322.0 187.0 318.75 187.7 317.0 188.8 315.15 L205.2 314.65 204.45 311.15 Q201.3 307.35 197.0 307.15 L196.25 305.15 Q196.8 304.0 198.1 303.5 199.4 302.9 200.9 302.65 L201.3 300.15 201.35 299.9 Q206.25 297.95 211.35 296.9 213.2 300.4 216.65 303.35 L216.15 303.65 215.0 304.25 Q213.4 305.15 214.2 306.15 L221.2 306.95 Q224.95 309.7 228.85 311.8 224.85 313.9 220.05 314.65 L220.05 318.15 220.4 318.65 Q231.25 317.95 236.85 327.1 M217.05 290.4 L218.6 289.5 223.2 289.5 Q221.6 290.0 220.05 290.6 L219.95 290.65 219.5 290.8 217.05 290.4 M245.25 317.55 L246.3 317.75 245.4 320.0 245.25 320.15 245.25 317.55" fill="#e02c00" fill-rule="evenodd" stroke="none"/>
    <path d="M273.4 287.0 Q284.0 287.6 296.5 290.75 308.05 305.3 286.75 304.3 283.6 304.25 280.9 306.0 294.0 311.0 302.3 322.9 302.3 341.95 278.2 330.55 257.95 320.95 249.15 325.0 L242.05 326.7 242.05 326.75 236.85 327.1 Q231.25 317.95 220.4 318.65 L220.05 318.15 220.05 314.65 Q224.85 313.9 228.85 311.8 236.8 316.05 245.25 317.55 L245.25 320.15 245.4 320.0 246.3 317.75 257.3 318.3 Q245.5 319.15 257.45 321.3 269.35 323.4 283.6 322.6 L286.35 321.05 287.6 320.3 284.6 318.35 276.9 311.6 277.95 309.8 276.8 311.5 Q271.9 306.7 267.7 300.75 271.5 293.6 273.4 287.0 M187.0 318.75 Q185.8 316.75 186.15 315.5 187.0 312.15 195.9 311.75 179.85 307.25 184.5 301.75 L184.65 299.85 Q192.3 296.1 200.5 293.8 208.65 291.5 217.05 290.4 L219.5 290.8 Q217.55 291.55 215.6 292.5 L210.65 295.4 211.35 296.9 Q206.25 297.95 201.35 299.9 L201.3 300.15 200.9 302.65 Q199.4 302.9 198.1 303.5 196.8 304.0 196.25 305.15 L197.0 307.15 Q201.3 307.35 204.45 311.15 L205.2 314.65 188.8 315.15 Q187.7 317.0 187.0 318.75 M216.65 303.35 L217.1 303.7 221.2 306.95 214.2 306.15 Q213.4 305.15 215.0 304.25 L216.15 303.65 216.65 303.35" fill="#ff3300" fill-rule="evenodd" stroke="none"/>
    <path d="M273.4 287.0 Q284.0 287.6 296.5 290.75 308.05 305.3 286.75 304.3 283.6 304.25 280.9 306.0 294.0 311.0 302.3 322.9 302.3 341.95 278.2 330.55 257.95 320.95 249.15 325.0 L242.05 326.7 242.05 326.75 236.85 327.1 228.1 327.9 Q204.9 335.45 195.1 327.15 189.0 322.0 187.0 318.75 185.8 316.75 186.15 315.5 187.0 312.15 195.9 311.75 179.85 307.25 184.5 301.75 L184.65 299.85 Q192.3 296.1 200.5 293.8 208.65 291.5 217.05 290.4" fill="none" stroke="#000000" stroke-linecap="round" stroke-linejoin="round" stroke-width="0.05"/>
    <path d="M264.65 266.25 L271.4 258.95 Q276.5 269.15 274.65 280.85 L274.3 283.2 273.4 287.0 Q271.5 293.6 267.7 300.75 L263.55 295.0 258.45 291.9 Q255.15 290.05 251.7 288.9 245.0 286.6 237.65 286.75 251.0 280.3 264.65 266.25 M223.2 289.5 Q230.65 287.1 237.65 286.75 M287.6 320.3 L284.6 318.35 276.9 311.6 276.8 311.5 Q271.9 306.7 267.7 300.75 M219.5 290.8 Q217.55 291.55 215.6 292.5 L210.65 295.4 M223.2 289.5 Q221.6 290.0 220.05 290.6 L219.95 290.65 219.5 290.8" fill="none" stroke="#432e0c" stroke-linecap="round" stroke-linejoin="round" stroke-width="0.05"/>
  </g>
</svg>
