<?xml version="1.0" encoding="UTF-8" standalone="no"?>
<svg xmlns:xlink="http://www.w3.org/1999/xlink" height="161.6px" width="124.5px" xmlns="http://www.w3.org/2000/svg">
  <g transform="matrix(1.0, 0.0, 0.0, 1.0, 62.25, 81.05)">
    <path d="M-11.9 -79.5 L0.0 -80.55 Q13.65 -80.55 25.15 -75.4 L8.7 -75.35 Q-0.35 -78.7 -11.9 -79.5 M-11.25 42.0 L-7.95 44.5 Q-11.15 45.55 -16.5 42.25 L-17.55 40.6 -19.6 37.4 -21.65 34.25 -16.45 38.15 -11.25 42.0 M-61.75 -17.4 L-61.75 -18.8 Q-61.75 -30.15 -58.2 -40.05 L-55.35 -29.9 -55.35 -29.85 Q-58.3 -22.5 -61.75 -17.4 M-42.75 -33.5 Q-38.65 -30.3 -39.3 -35.45 L-33.15 -25.5 -36.45 -24.5 -39.6 -29.0 -42.75 -33.5 M-36.5 -38.4 L-36.75 -48.5 -4.8 -17.5 -12.8 -30.45 -12.8 -30.5 -0.85 -22.95 -3.35 -42.95 6.2 -18.5 -0.85 -22.95 -4.8 -17.5 -19.65 -22.85 -36.5 -38.4 M-30.55 -56.25 L-26.2 -57.45 -13.6 -31.7 -30.55 -56.25 M-51.85 -14.75 Q-43.75 -14.1 -50.15 -10.15 L-54.5 -0.75 -51.85 -14.75 M7.2 -51.5 L8.7 -75.35 Q11.85 -63.9 18.05 -70.9 L7.2 -51.5 M48.9 37.0 L41.5 37.0 Q48.95 31.35 53.95 27.75 53.7 33.5 48.9 37.0 M-37.25 55.7 L-52.45 51.45 -52.45 45.1 -37.25 55.7" fill="#d5d5d5" fill-rule="evenodd" stroke="none"/>
    <path d="M-45.85 22.6 Q-42.35 12.4 -51.05 16.5 L-45.75 -4.5 Q-46.35 9.95 -35.3 1.5 L-45.85 22.6 M-39.3 -35.45 Q-37.6 -36.75 -36.5 -38.4 L-19.65 -22.85 -4.8 -17.5 4.8 -13.45 -8.7 -14.4 -29.8 -26.5 -19.65 -22.85 -29.8 -26.5 -33.15 -25.5 -39.3 -35.45 M-26.2 -57.45 L-24.35 -63.95 -12.95 -30.95 -13.05 -30.9 -13.6 -31.7 -26.2 -57.45 M-20.8 12.5 L-1.8 -7.5 -7.3 9.0 Q-14.05 18.25 -20.8 12.5" fill="#999999" fill-rule="evenodd" stroke="none"/>
    <path d="M-24.35 -63.95 L-11.9 -79.5 -3.5 -43.45 -3.35 -42.95 -0.85 -22.95 -12.8 -30.5 -12.95 -30.95 -24.35 -63.95 M-61.15 -9.4 Q-59.95 -14.65 -61.75 -17.4 -58.3 -22.5 -55.35 -29.85 -57.85 -17.1 -52.55 -19.75 L-52.55 -19.7 Q-57.35 -16.65 -61.15 -9.4 M-58.2 -40.05 L-42.75 -33.5 -39.6 -29.0 -55.35 -29.9 -58.2 -40.05 M-45.65 -21.8 L-36.45 -24.5 -33.15 -25.5 -29.8 -26.5 -8.7 -14.4 -8.75 -14.15 -45.65 -21.8" fill="#e1e1e1" fill-rule="evenodd" stroke="none"/>
    <path d="M-52.55 -19.75 Q-57.85 -17.1 -55.35 -29.85 L-55.35 -29.9 -39.6 -29.0 -36.45 -24.5 -45.65 -21.8 -52.55 -19.75 M-4.8 -17.5 L-0.85 -22.95 6.2 -18.5 8.25 -17.8 27.2 -11.5 25.95 -11.3 4.8 -13.45 -4.8 -17.5" fill="#7b7b7b" fill-rule="evenodd" stroke="none"/>
    <path d="M-52.55 -19.7 L-52.55 -19.75 -45.65 -21.8 -8.75 -14.15 -7.95 -14.0 -1.8 -7.5 -20.8 12.5 -35.3 1.5 Q-46.35 9.95 -45.75 -4.5 L-49.75 -9.5 -50.15 -10.15 Q-43.75 -14.1 -51.85 -14.75 -52.4 -17.0 -52.55 -19.7" fill="#aaaaaa" fill-rule="evenodd" stroke="none"/>
    <path d="M-26.5 37.2 Q-28.1 33.15 -29.65 35.55 L-29.5 33.85 -28.8 26.5 -27.15 34.2 -26.5 37.2 M-51.05 16.5 Q-59.2 5.25 -61.15 -9.4 -57.35 -16.65 -52.55 -19.7 -52.4 -17.0 -51.85 -14.75 L-54.5 -0.75 -50.15 -10.15 -49.75 -9.5 -45.75 -4.5 -51.05 16.5 M6.2 -18.5 L7.2 -51.5 18.05 -70.9 18.1 -70.9 Q27.55 -65.1 33.2 -55.5 L28.2 -29.5 6.2 -18.5 M27.2 -11.5 L6.2 5.5 -7.3 9.0 -9.8 32.5 -20.8 12.5 Q-14.05 18.25 -7.3 9.0 L-1.8 -7.5 25.95 -11.3 27.2 -11.5" fill="#b3b3b3" fill-rule="evenodd" stroke="none"/>
    <path d="M-3.35 -42.95 L-3.5 -43.45 -11.9 -79.5 Q-0.35 -78.7 8.7 -75.35 L7.2 -51.5 6.2 -18.5 -3.35 -42.95" fill="#a2a2a2" fill-rule="evenodd" stroke="none"/>
    <path d="M-36.75 -48.5 L-30.55 -56.25 -13.6 -31.7 -13.05 -30.9 -12.8 -30.45 -4.8 -17.5 -36.75 -48.5 M-1.8 -7.5 L-7.95 -14.0 -8.7 -14.4 4.8 -13.45 25.95 -11.3 -1.8 -7.5" fill="#666666" fill-rule="evenodd" stroke="none"/>
    <path d="M25.15 -75.4 Q25.2 -71.75 32.75 -71.3 38.5 -67.65 43.65 -62.5 61.75 -44.4 61.75 -18.8 61.75 -13.8 61.05 -9.1 59.6 0.85 55.1 9.55 51.35 16.65 45.6 22.9 L43.65 24.85 40.65 27.75 40.6 27.75 Q36.4 31.45 31.85 34.25 17.75 42.95 0.0 42.95 L-6.95 42.6 -11.25 42.0 -16.45 38.15 -7.65 40.1 Q17.05 40.8 36.85 26.6 34.9 30.6 31.85 34.25 34.9 30.6 36.85 26.6 L44.0 19.45 53.8 7.75 55.1 9.55 53.8 7.75 56.45 -0.85 58.55 -3.8 Q63.9 -47.5 31.0 -70.7 L23.5 -69.25 Q31.9 -62.85 35.15 -55.45 L30.5 -31.55 Q33.05 -15.65 40.75 1.2 L38.7 0.7 33.65 -10.7 Q32.15 -14.1 28.8 -27.1 L8.25 -17.8 6.2 -18.5 28.2 -29.5 33.2 -55.5 Q27.55 -65.1 18.1 -70.9 L18.05 -70.9 Q11.85 -63.9 8.7 -75.35 L25.15 -75.4 M-17.55 40.6 Q-22.2 39.25 -26.5 37.2 L-27.15 34.2 -19.6 37.4 -17.55 40.6 M-29.65 35.55 Q-37.15 31.4 -43.7 24.85 L-45.85 22.6 -29.5 33.85 -29.65 35.55 M32.75 -71.3 L18.1 -70.9 32.75 -71.3 M61.05 -9.1 Q59.9 -6.15 58.55 -3.8 59.9 -6.15 61.05 -9.1 M40.65 27.75 L44.0 19.45 45.6 22.9 44.0 19.45 40.65 27.75 M-6.95 42.6 L-7.65 40.1 -6.95 42.6" fill="#777777" fill-rule="evenodd" stroke="none"/>
    <path d="M-35.3 1.5 L-20.8 12.5 -9.8 32.5 -7.65 40.1 -16.45 38.15 -21.65 34.25 -19.6 37.4 -27.15 34.2 -28.8 26.5 -29.5 33.85 -45.85 22.6 -35.3 1.5 M40.75 1.2 Q33.05 -15.65 30.5 -31.55 L35.15 -55.45 Q31.9 -62.85 23.5 -69.25 L31.0 -70.7 Q63.9 -47.5 58.55 -3.8 L56.45 -0.85 Q53.9 2.2 50.7 3.55 L40.75 1.2 M36.85 26.6 Q41.4 17.15 39.7 5.7 L42.2 11.3 44.0 19.45 36.85 26.6" fill="#444444" fill-rule="evenodd" stroke="none"/>
    <path d="M8.25 -17.8 L28.8 -27.1 Q32.15 -14.1 33.65 -10.7 L27.2 -11.5 8.25 -17.8" fill="#484848" fill-rule="evenodd" stroke="none"/>
    <path d="M33.65 -10.7 L38.7 0.7 40.75 1.2 50.7 3.55 Q53.9 2.2 56.45 -0.85 L53.8 7.75 50.7 3.55 53.8 7.75 44.0 19.45 42.2 11.3 39.7 5.7 Q41.4 17.15 36.85 26.6 17.05 40.8 -7.65 40.1 L-9.8 32.5 -7.3 9.0 6.2 5.5 27.2 -11.5 33.65 -10.7 M38.7 0.7 L39.7 5.7 38.7 0.7" fill="#333333" fill-rule="evenodd" stroke="none"/>
    <path d="M18.0 78.15 Q10.85 80.55 0.75 80.55 -9.35 80.55 -16.5 78.15 -23.65 75.8 -23.65 72.4 -23.65 69.0 -16.5 66.6 -9.35 64.25 0.75 64.25 10.85 64.25 18.0 66.6 25.15 69.0 25.15 72.4 25.15 75.8 18.0 78.15" fill="#000000" fill-opacity="0.4117647" fill-rule="evenodd" stroke="none"/>
    <path d="M-24.35 -63.95 L-11.9 -79.5 0.0 -80.55 Q13.65 -80.55 25.15 -75.4 25.2 -71.75 32.75 -71.3 38.5 -67.65 43.65 -62.5 61.75 -44.4 61.75 -18.8 61.75 -13.8 61.05 -9.1 59.6 0.85 55.1 9.55 51.35 16.65 45.6 22.9 L43.65 24.85 40.65 27.75 40.6 27.75 Q36.4 31.45 31.85 34.25 17.75 42.95 0.0 42.95 L-6.95 42.6 -11.25 42.0 M-17.55 40.6 Q-22.2 39.25 -26.5 37.2 -28.1 33.15 -29.65 35.55 -37.15 31.4 -43.7 24.85 L-45.85 22.6 Q-42.35 12.4 -51.05 16.5 -59.2 5.25 -61.15 -9.4 -59.95 -14.65 -61.75 -17.4 L-61.75 -18.8 Q-61.75 -30.15 -58.2 -40.05 L-42.75 -33.5 Q-38.65 -30.3 -39.3 -35.45 -37.6 -36.75 -36.5 -38.4 L-36.75 -48.5 -30.55 -56.25 -26.2 -57.45 -24.35 -63.95 -12.95 -30.95 -12.8 -30.5 -0.85 -22.95 -3.35 -42.95 -3.5 -43.45 -11.9 -79.5 Q-0.35 -78.7 8.7 -75.35 L25.15 -75.4 M-52.55 -19.75 Q-57.85 -17.1 -55.35 -29.85 -58.3 -22.5 -61.75 -17.4 M-52.55 -19.7 L-52.55 -19.75 -45.65 -21.8 -36.45 -24.5 -39.6 -29.0 -55.35 -29.9 -55.35 -29.85 -55.35 -29.9 -58.2 -40.05 M-52.55 -19.7 Q-57.35 -16.65 -61.15 -9.4 M-50.15 -10.15 Q-43.75 -14.1 -51.85 -14.75 L-54.5 -0.75 -50.15 -10.15 -49.75 -9.5 -45.75 -4.5 Q-46.35 9.95 -35.3 1.5 L-20.8 12.5 -1.8 -7.5 -7.95 -14.0 -8.75 -14.15 -45.65 -21.8 M-36.45 -24.5 L-33.15 -25.5 -39.3 -35.45 M-42.75 -33.5 L-39.6 -29.0 M-51.85 -14.75 Q-52.4 -17.0 -52.55 -19.7 M-13.05 -30.9 L-13.6 -31.7 -30.55 -56.25 M-12.8 -30.5 L-13.05 -30.9 -12.8 -30.45 -4.8 -17.5 -0.85 -22.95 6.2 -18.5 -3.35 -42.95 M-19.65 -22.85 L-29.8 -26.5 -8.7 -14.4 4.8 -13.45 -4.8 -17.5 -19.65 -22.85 -36.5 -38.4 M-7.95 -14.0 L-8.7 -14.4 M6.2 -18.5 L7.2 -51.5 8.7 -75.35 Q11.85 -63.9 18.05 -70.9 L18.1 -70.9 32.75 -71.3 M-26.2 -57.45 L-13.6 -31.7 M-36.75 -48.5 L-4.8 -17.5 M-29.8 -26.5 L-33.15 -25.5 M18.1 -70.9 Q27.55 -65.1 33.2 -55.5 L28.2 -29.5 6.2 -18.5 8.25 -17.8 27.2 -11.5 6.2 5.5 -7.3 9.0 -9.8 32.5 -7.65 40.1 -6.95 42.6 M28.8 -27.1 Q32.15 -14.1 33.65 -10.7 L38.7 0.7 40.75 1.2 50.7 3.55 53.8 7.75 55.1 9.55 M58.55 -3.8 Q59.9 -6.15 61.05 -9.1 M33.65 -10.7 L27.2 -11.5 25.95 -11.3 4.8 -13.45 M36.85 26.6 Q41.4 17.15 39.7 5.7 L38.7 0.7 M18.05 -70.9 L7.2 -51.5 M-1.8 -7.5 L25.95 -11.3 M56.45 -0.85 L58.55 -3.8 M56.45 -0.85 Q53.9 2.2 50.7 3.55 M39.7 5.7 L42.2 11.3 44.0 19.45 40.65 27.75 M36.85 26.6 Q34.9 30.6 31.85 34.25 M45.6 22.9 L44.0 19.45 M-26.5 37.2 L-27.15 34.2 -28.8 26.5 -29.5 33.85 -29.65 35.55 M-20.8 12.5 L-9.8 32.5 M-7.3 9.0 Q-14.05 18.25 -20.8 12.5 M-45.75 -4.5 L-51.05 16.5 M-35.3 1.5 L-45.85 22.6 M-7.3 9.0 L-1.8 -7.5" fill="none" stroke="#000000" stroke-linecap="round" stroke-linejoin="round" stroke-opacity="0.4" stroke-width="1.0"/>
    <path d="M-11.25 42.0 L-7.95 44.5 Q-11.15 45.55 -16.5 42.25 L-17.55 40.6 -19.6 37.4 -21.65 34.25 -16.45 38.15 -11.25 42.0 M48.9 37.0 L41.5 37.0 Q48.95 31.35 53.95 27.75 53.7 33.5 48.9 37.0 M-37.25 55.7 L-52.45 51.45 -52.45 45.1 -37.25 55.7 Z" fill="none" stroke="#000000" stroke-linecap="round" stroke-linejoin="round" stroke-opacity="0.4" stroke-width="1.0"/>
  </g>
</svg>
