<?xml version="1.0" encoding="UTF-8" standalone="no"?>
<svg xmlns:xlink="http://www.w3.org/1999/xlink" height="50.65px" width="58.55px" xmlns="http://www.w3.org/2000/svg">
  <g transform="matrix(1.0, 0.0, 0.0, 1.0, -245.75, -175.15)">
    <path d="M258.1 218.3 L258.05 218.2 258.1 218.2 258.1 218.15 258.1 218.2 258.1 218.3 M283.9 183.25 L283.95 183.3 283.9 183.35 283.9 183.25 M283.9 183.35 L284.05 183.5 284.0 183.55 283.9 183.35 M258.05 218.2 L258.1 218.2 258.05 218.2" fill="#ffffff" fill-rule="evenodd" stroke="none"/>
    <path d="M283.95 183.3 Q286.2 184.55 286.4 186.85 L286.3 187.2 285.95 188.35 Q285.85 185.4 284.25 184.1 L284.05 183.5 283.9 183.35 283.95 183.3" fill="#d1d1d1" fill-rule="evenodd" stroke="none"/>
    <path d="M258.0 201.75 L257.75 201.5 257.8 201.55 258.0 201.75 M251.95 200.95 L252.15 200.85 252.2 200.85 251.95 200.95" fill="#878787" fill-rule="evenodd" stroke="none"/>
    <path d="M251.95 200.95 L251.85 200.95 251.9 200.95 251.95 200.95" fill="#999999" fill-rule="evenodd" stroke="none"/>
    <path d="M257.7 202.15 L257.55 202.15 257.65 202.15 257.7 202.15" fill="#7d6337" fill-rule="evenodd" stroke="none"/>
    <path d="M250.55 203.7 L250.55 203.75 250.5 203.75 250.55 203.7 M251.0 204.7 L251.95 206.6 251.85 206.6 251.85 206.65 251.0 204.7 M257.7 202.15 L258.05 202.1 257.7 202.15" fill="#bfbfbf" fill-rule="evenodd" stroke="none"/>
    <path d="M258.05 202.1 L258.1 202.05 258.05 202.1" fill="#cccccc" fill-rule="evenodd" stroke="none"/>
    <path d="M303.8 192.6 L302.9 192.8 295.2 194.15 287.7 195.75 288.2 198.85 289.3 203.25 289.75 203.6 289.8 203.7 M289.75 203.8 Q290.4 205.7 289.25 207.75 289.2 209.8 288.75 210.7 M288.1 211.75 Q287.3 213.95 286.1 215.95 281.45 223.95 273.7 225.1 265.9 226.25 259.55 219.85 L259.45 219.8 259.4 219.7 258.9 219.2 258.25 218.5 M258.1 218.3 L258.05 218.2 M258.1 218.15 L258.1 218.2 Q263.7 224.05 270.5 223.05 273.45 222.6 275.85 221.0 276.05 218.85 279.5 217.7 279.55 216.95 280.4 215.2 281.2 213.4 282.35 212.75 L282.35 212.6 Q282.3 210.0 283.9 208.1 283.65 206.7 284.4 205.05 L284.5 204.05 Q284.6 203.75 285.25 203.5 L285.55 203.35 M285.2 196.35 L280.6 197.3 M280.0 197.4 L269.25 199.75 M291.1 192.8 L291.35 192.75 295.75 192.65 302.95 192.6 M281.45 180.15 Q280.65 178.85 278.95 178.5 277.65 176.7 276.6 176.55 L274.85 176.45 274.75 176.4 Q271.45 175.3 267.85 175.85 263.45 176.5 260.1 179.35 258.6 180.6 257.3 182.2 260.6 178.7 265.15 178.05 269.45 177.4 273.35 179.5 275.55 180.75 277.6 182.9 L279.6 185.3 280.0 186.3 280.0 186.45 Q280.35 187.15 281.25 187.85 L281.65 189.2 282.25 189.9 M282.25 190.6 L282.75 191.75 282.85 191.9 283.0 192.1 283.1 192.2 283.15 192.45 283.95 192.7 284.15 192.7 M284.8 194.55 L258.05 201.7 M257.75 201.5 L257.8 201.55 255.05 199.35 252.3 200.25 251.95 200.95 M251.85 200.95 L246.25 202.75 250.45 203.65 250.55 203.7 M250.55 203.8 L251.0 204.7 251.85 206.65 M251.95 206.6 L252.05 206.6 252.4 206.5 253.55 206.2 254.7 205.9 258.05 202.15 269.2 199.75 M281.8 180.95 L281.5 180.2 M281.8 180.95 L282.45 181.15 283.15 181.6 283.35 181.85 283.9 183.25 283.95 183.3 Q286.2 184.55 286.4 186.85 L286.45 187.2 Q287.45 187.75 287.7 188.55 L287.65 189.75 Q288.15 190.35 288.0 190.65 L288.05 190.8 288.05 190.9 287.55 191.65 287.5 193.85 288.15 193.65 M288.45 193.55 L290.95 192.85 M283.9 183.35 L283.9 183.25 M283.15 192.45 L283.1 192.25 283.1 192.2 M251.9 200.95 L251.85 200.95 M251.95 206.6 L251.85 206.6" fill="none" stroke="#000000" stroke-linecap="round" stroke-linejoin="round" stroke-width="1.0"/>
    <path d="M289.8 203.7 L289.75 203.8 M288.75 210.7 L288.1 211.75 M258.25 218.5 L258.1 218.3 258.1 218.2 258.05 218.2 M285.55 203.35 Q285.7 200.35 285.45 197.9 L285.35 197.3 285.35 197.2 285.35 197.05 285.35 197.0 285.25 196.65 285.2 196.45 285.2 196.35 M280.6 197.3 L280.0 197.4 M282.25 189.9 L282.25 190.6 M284.15 192.7 L284.25 192.95 284.8 194.55 M258.05 201.7 L258.0 201.75 257.75 201.5 M251.95 200.95 L251.85 200.95 M250.55 203.7 L250.55 203.75 250.55 203.8 M281.5 180.2 L281.45 180.2 281.45 180.15 M281.85 181.05 L281.8 180.95 M288.15 193.65 L288.45 193.55 M290.95 192.85 L291.1 192.8 M258.1 202.05 L258.05 202.1 M250.55 203.75 L250.45 203.65" fill="none" stroke="#000000" stroke-linecap="round" stroke-linejoin="round" stroke-width="1.0"/>
    <path d="M257.4 182.1 Q258.65 180.5 260.05 179.3 262.75 177.75 265.9 177.6 269.9 177.4 273.3 179.5 269.5 177.35 265.2 178.0 260.65 178.65 257.4 182.1" fill="#9a9a9a" fill-rule="evenodd" stroke="none"/>
    <path d="M283.95 183.25 L283.95 183.3 284.05 183.5 284.0 183.5 283.95 183.3 283.9 183.25 283.95 183.25 M283.35 181.8 Q284.55 185.25 284.2 188.55 283.8 190.2 282.75 191.75 282.25 191.05 282.25 190.6 L282.25 189.9 Q283.45 186.9 282.4 182.85 L282.2 182.1 281.85 181.0 282.35 182.8 Q282.85 185.5 282.4 187.9 L281.7 189.2 Q281.35 188.6 281.25 187.8 281.85 184.2 279.9 180.2 280.75 182.15 280.8 184.3 L280.8 184.45 280.7 185.45 280.45 186.05 Q280.15 186.3 280.0 185.65 279.5 182.95 278.75 181.3 279.45 183.1 279.65 185.25 L277.65 182.9 Q275.55 180.7 273.3 179.5 269.9 177.4 265.9 177.6 262.75 177.75 260.05 179.3 263.45 176.45 267.85 175.8 271.45 175.3 274.75 176.4 L274.9 176.4 276.6 176.5 Q277.65 176.65 279.0 178.5 280.65 178.8 281.45 180.1 L281.45 180.15 281.5 180.15 281.85 180.9 282.45 181.15 283.15 181.6 283.35 181.8 M258.9 219.2 L258.3 218.45 258.1 218.25 258.05 218.2 258.05 218.15 258.1 218.15 258.05 218.15 258.1 218.25 258.05 218.15 258.1 218.15 Q263.7 224.0 270.5 223.0 273.45 222.55 275.85 221.0 276.05 218.8 279.45 217.6 279.55 216.9 280.4 215.15 281.25 213.35 282.4 212.75 285.3 211.35 287.35 208.5 286.95 209.85 286.05 211.2 283.8 214.45 279.55 217.6 283.45 215.6 285.9 213.15 L282.85 217.0 282.45 217.55 Q280.1 220.5 276.05 221.0 L278.5 221.0 Q275.6 222.95 272.1 223.5 265.3 224.5 259.6 219.8 L259.45 219.65 258.9 219.2 M285.2 196.25 L286.25 196.05 287.0 197.75 287.05 197.9 287.05 197.95 286.55 197.4 286.4 197.2 285.6 196.55 285.2 196.3 285.2 196.25 M285.35 194.4 L284.8 194.5 284.25 192.95 285.35 194.4 M285.45 197.9 L286.05 198.35 287.3 199.4 Q287.65 202.0 286.95 203.05 L286.9 203.05 286.2 203.15 286.15 203.15 285.5 203.35 286.15 203.15 286.2 203.15 285.2 204.65 Q285.85 204.3 286.35 203.75 286.25 205.75 284.95 207.7 L285.75 207.1 Q284.85 210.6 282.35 212.55 282.3 209.95 283.95 208.05 283.6 206.65 284.45 205.0 L284.5 204.05 Q284.6 203.7 285.25 203.45 L285.5 203.35 Q285.7 200.35 285.45 197.9 M281.85 180.9 L281.85 181.0 281.85 180.9 M279.55 217.6 L279.45 217.6 279.55 217.6 M276.05 221.0 L275.85 221.0 276.05 221.0" fill="#ffffff" fill-rule="evenodd" stroke="none"/>
    <path d="M303.0 192.6 L303.8 192.6 302.9 192.7 295.25 194.1 294.35 194.3 294.05 194.35 291.5 194.9 287.7 195.7 287.05 195.85 286.25 196.05 285.2 196.25 280.6 197.25 280.0 197.35 269.3 199.7 269.2 199.7 258.1 202.1 258.15 202.05 258.1 202.05 258.05 202.0 257.75 202.1 257.7 202.1 257.65 202.1 257.7 202.1 257.55 202.15 257.65 202.1 258.2 201.95 264.05 200.55 267.25 199.85 268.35 199.6 269.95 199.3 272.25 198.7 272.75 198.55 277.45 197.6 279.6 197.0 283.0 196.1 285.05 195.55 285.85 195.3 286.15 195.25 286.9 195.05 287.6 194.9 287.9 194.8 288.35 194.7 288.4 194.65 289.85 194.4 290.75 194.2 294.95 193.25 302.9 192.6 303.0 192.6" fill="#7d6337" fill-rule="evenodd" stroke="none"/>
    <path d="M291.35 192.7 L295.75 192.6 303.0 192.6 302.9 192.6 294.95 193.25 293.9 193.25 293.8 193.25 293.6 193.3 Q291.6 193.25 291.1 192.85 291.15 192.75 291.35 192.7" fill="#e0d0b8" fill-rule="evenodd" stroke="none"/>
    <path d="M284.6 190.9 Q284.85 190.75 285.15 190.7 L285.35 190.6 286.55 190.4 287.15 190.35 288.0 190.65 288.05 190.8 288.05 190.85 287.55 191.65 287.6 191.05 287.6 190.95 287.55 190.9 287.0 190.7 285.95 190.8 285.9 190.8 285.5 190.9 285.3 190.95 284.6 191.3 283.95 191.2 Q284.25 191.0 284.6 190.9" fill="#858585" fill-rule="evenodd" stroke="none"/>
    <path d="M287.55 191.65 L287.5 193.8 286.55 194.05 Q285.85 193.1 284.15 192.7 L283.75 192.05 284.1 191.65 284.6 191.3 285.3 190.95 285.5 190.9 285.9 190.8 285.95 190.8 287.0 190.7 287.55 190.9 287.6 190.95 287.6 191.05 287.55 191.65 M287.7 195.7 L288.2 198.8 289.3 203.25 289.0 203.15 288.85 203.1 288.7 202.65 287.85 199.95 287.8 199.85 287.3 199.4 286.05 198.35 285.45 197.9 285.4 197.5 285.35 197.25 285.35 197.15 285.35 197.05 285.3 196.95 285.25 196.6 285.25 196.4 285.2 196.3 285.6 196.55 286.4 197.2 286.55 197.4 287.05 197.95 287.4 198.35 287.45 198.4 287.05 195.85 287.7 195.7" fill="#c5c5c5" fill-rule="evenodd" stroke="none"/>
    <path d="M294.95 193.25 L290.75 194.2 289.85 194.4 288.4 194.65 288.35 194.7 287.9 194.8 287.6 194.9 286.9 195.05 286.15 195.25 285.85 195.3 285.05 195.55 283.0 196.1 279.6 197.0 277.45 197.6 272.75 198.55 272.25 198.7 269.95 199.3 268.35 199.6 267.25 199.85 264.05 200.55 258.2 201.95 257.65 202.1 257.4 202.15 257.65 202.1 257.55 202.15 257.5 202.15 257.4 202.15 251.8 203.35 251.6 203.35 258.0 201.7 258.05 201.7 264.0 200.1 264.9 200.05 265.2 200.0 Q265.85 199.65 266.6 199.65 L267.3 199.65 267.35 199.65 272.4 198.3 273.65 198.05 275.7 197.7 278.2 196.95 281.15 196.05 284.95 195.05 285.6 194.85 286.05 194.75 286.8 194.55 287.55 194.4 287.9 194.35 288.35 194.25 288.4 194.25 288.65 194.2 290.75 193.85 291.85 193.65 293.6 193.3 293.8 193.25 293.9 193.25 294.95 193.25" fill="#ad884b" fill-rule="evenodd" stroke="none"/>
    <path d="M287.5 193.8 L288.15 193.6 288.45 193.5 291.0 192.8 291.05 192.8 291.1 192.85 Q291.6 193.25 293.6 193.3 L291.85 193.65 290.75 193.85 288.65 194.2 288.4 194.25 288.35 194.25 287.9 194.35 287.55 194.4 286.8 194.55 286.05 194.75 285.6 194.85 284.95 195.05 281.15 196.05 278.2 196.95 275.7 197.7 273.65 198.05 272.4 198.3 267.35 199.65 267.3 199.65 266.6 199.65 Q265.85 199.65 265.2 200.0 L264.9 200.05 264.0 200.1 284.8 194.5 285.35 194.4 286.55 194.05 287.5 193.8" fill="#c4a773" fill-rule="evenodd" stroke="none"/>
    <path d="M284.05 183.5 L284.0 183.5 284.05 183.5 M259.55 219.85 L259.45 219.75 259.4 219.65 258.9 219.2 259.45 219.65 259.6 219.8 259.55 219.85 M258.05 202.0 L258.1 202.05 258.15 202.05 258.1 202.1 254.7 205.85 253.85 206.1 254.1 206.0 253.05 203.7 253.1 203.65 257.55 202.65 258.05 202.05 258.05 202.0 M282.35 182.8 L281.85 181.0 282.2 182.1 282.4 182.85 282.35 182.8 M258.1 202.05 L258.05 202.05 258.1 202.05" fill="#cccccc" fill-rule="evenodd" stroke="none"/>
    <path d="M283.1 192.05 L283.15 191.95 283.2 191.8 Q283.35 191.6 283.65 191.4 L283.95 191.2 284.6 191.3 284.1 191.65 283.75 192.05 284.15 192.7 283.95 192.7 Q283.35 192.65 283.15 192.4 L283.1 192.15 283.1 192.05 M249.25 203.35 L246.2 202.75 251.4 201.1 251.9 200.95 251.95 200.9 251.9 200.95 251.95 200.9 255.35 201.5 255.6 201.75 249.25 203.35" fill="#999999" fill-rule="evenodd" stroke="none"/>
    <path d="M286.25 196.05 L287.05 195.85 287.45 198.4 287.4 198.35 287.05 197.95 287.05 197.9 287.0 197.75 286.25 196.05 M285.35 194.4 L284.25 192.95 284.15 192.7 Q285.85 193.1 286.55 194.05 L285.35 194.4 M287.3 199.4 L287.8 199.85 287.85 199.95 288.7 202.65 288.85 203.1 288.65 203.05 288.35 203.05 287.1 203.05 286.95 203.05 Q287.65 202.0 287.3 199.4" fill="#dadada" fill-rule="evenodd" stroke="none"/>
    <path d="M250.45 203.65 L249.25 203.35 255.6 201.75 255.35 201.5 251.95 200.9 252.15 200.85 252.2 200.8 252.85 200.65 257.75 201.5 257.8 201.55 258.05 201.7 258.0 201.7 251.6 203.35 250.6 203.65 250.55 203.65 250.45 203.65 M258.05 201.7 L257.75 201.5 258.05 201.7" fill="#878787" fill-rule="evenodd" stroke="none"/>
    <path d="M257.8 201.55 L257.75 201.5 252.85 200.65 252.5 200.7 252.2 200.8 252.15 200.85 251.95 200.9 252.3 200.2 255.05 199.35 257.8 201.55" fill="#e7e7e7" fill-rule="evenodd" stroke="none"/>
    <path d="M252.0 206.55 L251.9 206.6 251.85 206.6 251.0 204.65 250.6 203.8 250.6 203.75 250.55 203.7 250.6 203.65 250.55 203.7 250.6 203.65 251.6 203.35 251.8 203.35 257.4 202.15 257.5 202.15 257.55 202.15 257.7 202.1 257.75 202.1 258.05 202.0 258.05 202.05 257.55 202.65 253.1 203.65 253.05 203.7 254.1 206.0 253.85 206.1 253.55 206.2 252.4 206.45 252.1 206.55 252.0 206.55 251.0 204.65 252.0 206.55 M257.75 202.1 L258.05 202.05 257.75 202.1" fill="#bfbfbf" fill-rule="evenodd" stroke="none"/>
    <path d="M283.95 183.25 Q286.2 184.5 286.45 186.8 L286.45 187.15 Q287.4 187.7 287.65 188.5 287.45 189.55 286.8 190.15 287.2 188.5 286.4 187.55 286.1 189.2 285.15 190.7 284.85 190.75 284.6 190.9 L285.95 188.3 Q285.85 185.35 284.25 184.1 285.55 188.0 283.2 191.8 L283.15 191.95 283.1 192.05 283.05 192.1 282.85 191.85 282.75 191.75 Q283.8 190.2 284.2 188.55 284.55 185.25 283.35 181.8 L283.9 183.25 283.95 183.3 283.95 183.25 M284.05 183.5 L283.95 183.3 284.0 183.5 284.05 183.5 M289.3 203.25 Q289.65 203.35 289.75 203.55 L289.75 203.65 289.75 203.75 Q290.35 205.65 289.25 207.7 289.2 209.75 288.75 210.7 L288.1 211.75 286.15 215.9 Q281.45 223.9 273.7 225.05 265.9 226.2 259.55 219.85 L259.6 219.8 Q265.3 224.5 272.1 223.5 275.6 222.95 278.5 221.0 L276.05 221.0 Q280.1 220.5 282.45 217.55 L282.85 217.0 285.9 213.15 Q283.45 215.6 279.55 217.6 283.8 214.45 286.05 211.2 286.95 209.85 287.35 208.5 285.3 211.35 282.4 212.75 L282.35 212.55 Q284.85 210.6 285.75 207.1 L284.95 207.7 Q286.25 205.75 286.35 203.75 285.85 204.3 285.2 204.65 L286.2 203.15 286.9 203.05 286.95 203.05 287.1 203.05 288.35 203.05 288.65 203.05 288.85 203.1 289.0 203.15 289.3 203.25 M279.65 185.25 Q279.45 183.1 278.75 181.3 279.5 182.95 280.0 185.65 280.15 186.3 280.45 186.05 L280.7 185.45 280.8 184.45 280.8 184.3 Q280.75 182.15 279.9 180.2 281.85 184.2 281.25 187.8 280.35 187.15 280.05 186.4 L279.95 186.25 279.65 185.25 M281.7 189.2 L282.4 187.9 Q282.85 185.5 282.35 182.8 L282.4 182.85 Q283.45 186.9 282.25 189.9 L281.7 189.2" fill="#a9abbc" fill-rule="evenodd" stroke="none"/>
    <path d="M283.2 191.8 Q285.55 188.0 284.25 184.1 285.85 185.35 285.95 188.3 L284.6 190.9 Q284.25 191.0 283.95 191.2 L283.65 191.4 Q283.35 191.6 283.2 191.8 M285.15 190.7 Q286.1 189.2 286.4 187.55 287.2 188.5 286.8 190.15 287.45 189.55 287.65 188.5 L287.65 189.7 Q288.2 190.3 288.0 190.65 L287.15 190.35 286.55 190.4 285.35 190.6 285.15 190.7" fill="#9193aa" fill-rule="evenodd" stroke="none"/>
    <path d="M287.65 188.5 Q287.4 187.7 286.45 187.15 L286.45 186.8 Q286.2 184.5 283.95 183.25 L283.9 183.25 283.35 181.8 283.15 181.6 282.45 181.15 281.85 180.9 281.5 180.15 M283.95 183.3 L283.9 183.25 M282.75 191.75 L282.85 191.85 283.05 192.1 283.1 192.15 283.1 192.05 283.15 191.95 283.2 191.8 Q283.35 191.6 283.65 191.4 L283.95 191.2 Q284.25 191.0 284.6 190.9 284.85 190.75 285.15 190.7 L285.35 190.6 286.55 190.4 287.15 190.35 288.0 190.65 288.05 190.8 288.05 190.85 287.55 191.65 287.5 193.8 288.15 193.6 M287.65 188.5 L287.65 189.7 Q288.2 190.3 288.0 190.65 M288.45 193.5 L291.0 192.8 M291.35 192.7 L295.75 192.6 303.0 192.6 302.9 192.6 294.95 193.25 293.9 193.25 M303.8 192.6 L302.9 192.7 295.25 194.1 294.35 194.3 291.5 194.9 287.7 195.7 288.2 198.8 289.3 203.25 Q289.65 203.35 289.75 203.55 L289.75 203.65 M289.75 203.75 Q290.35 205.65 289.25 207.7 289.2 209.75 288.75 210.7 M288.1 211.75 L286.15 215.9 Q281.45 223.9 273.7 225.05 265.9 226.2 259.55 219.85 L259.45 219.75 259.4 219.65 258.9 219.2 258.3 218.45 M258.1 218.25 L258.05 218.2 M252.0 206.55 L251.9 206.6 M251.85 206.6 L251.0 204.65 250.6 203.8 250.6 203.75 M250.45 203.65 L249.25 203.35 246.2 202.75 251.4 201.1 251.9 200.95 251.95 200.9 252.3 200.2 255.05 199.35 257.8 201.55 257.75 201.5 252.85 200.65 252.5 200.7 M257.35 182.1 L257.4 182.1 Q258.65 180.5 260.05 179.3 263.45 176.45 267.85 175.8 271.45 175.3 274.75 176.4 L274.9 176.4 276.6 176.5 Q277.65 176.65 279.0 178.5 280.65 178.8 281.45 180.1 M258.1 202.1 L269.2 199.7 M269.3 199.7 L280.0 197.35 M280.6 197.25 L285.2 196.25 286.25 196.05 287.05 195.85 287.7 195.7 M293.8 193.25 L293.6 193.3 Q291.6 193.25 291.1 192.85 291.15 192.75 291.35 192.7 M264.0 200.1 L258.05 201.7 M258.0 201.7 L251.6 203.35 250.6 203.65 M251.8 203.35 L257.4 202.15 257.5 202.15 M284.8 194.5 L285.35 194.4 286.55 194.05 287.5 193.8 M284.8 194.5 L264.0 200.1 M288.85 203.1 L289.0 203.15 289.3 203.25 M286.2 203.15 L286.9 203.05 286.95 203.05 287.1 203.05 288.35 203.05 288.65 203.05 288.85 203.1 M285.5 203.35 L286.15 203.15 286.2 203.15 M282.35 212.55 L282.4 212.75 Q281.25 213.35 280.4 215.15 279.55 216.9 279.45 217.6 276.05 218.8 275.85 221.0 273.45 222.55 270.5 223.0 263.7 224.0 258.1 218.15 M282.35 212.55 Q282.3 209.95 283.95 208.05 283.6 206.65 284.45 205.0 L284.5 204.05 Q284.6 203.7 285.25 203.45 L285.5 203.35 M279.65 185.25 L279.95 186.25 280.05 186.4 Q280.35 187.15 281.25 187.8 281.35 188.6 281.7 189.2 L282.25 189.9 M282.25 190.6 Q282.25 191.05 282.75 191.75 M273.3 179.5 Q275.55 180.7 277.65 182.9 L279.65 185.25 M257.4 182.1 Q260.65 178.65 265.2 178.0 269.5 177.35 273.3 179.5 M252.15 200.85 L252.2 200.8 252.85 200.65 M252.0 206.55 L252.1 206.55 252.4 206.45 253.55 206.2 253.85 206.1 254.1 206.0 M250.55 203.65 L250.45 203.65 M258.1 202.1 L254.7 205.85 253.85 206.1 M283.15 192.4 L283.1 192.25 283.1 192.15 283.15 192.4 Q283.35 192.65 283.95 192.7 L284.15 192.7" fill="none" stroke="#000000" stroke-linecap="round" stroke-linejoin="round" stroke-width="0.05"/>
    <path d="M288.15 193.6 L288.45 193.5 M291.0 192.8 L291.05 192.8 291.35 192.7 M289.75 203.65 L289.75 203.75 M288.75 210.7 L288.1 211.75 M258.3 218.45 L258.1 218.25 258.05 218.15 252.0 206.55 251.0 204.65 250.55 203.8 250.5 203.65 250.45 203.65 M258.05 218.2 L258.05 218.15 258.1 218.15 M251.4 201.1 L257.35 182.1 M281.45 180.1 L281.45 180.15 281.5 180.15 M257.65 202.1 L257.7 202.1 257.75 202.1 258.05 202.05 258.1 202.05 M280.0 197.35 L280.6 197.25 M257.4 202.15 L257.65 202.1 M284.25 192.95 L284.8 194.5 M285.25 196.4 L285.25 196.6 285.3 196.95 285.35 197.05 285.35 197.15 285.35 197.25 285.4 197.5 285.45 197.9 Q285.7 200.35 285.5 203.35 M285.2 196.25 L285.2 196.3 M284.15 192.7 L284.25 192.95 M281.85 181.0 L281.85 180.9 M282.25 189.9 L282.25 190.6 M257.75 201.5 L258.05 201.7 M251.9 200.95 L251.95 200.9 252.15 200.85 M250.6 203.65 L250.55 203.7 250.55 203.75 250.6 203.8 M250.55 203.8 L250.55 203.75 250.5 203.65 M279.45 217.6 L279.55 217.6 M275.85 221.0 L276.05 221.0" fill="none" stroke="#000000" stroke-linecap="round" stroke-linejoin="round" stroke-width="0.05"/>
  </g>
</svg>
