<?xml version="1.0" encoding="UTF-8" standalone="no"?>
<svg xmlns:xlink="http://www.w3.org/1999/xlink" height="99.35px" width="98.1px" xmlns="http://www.w3.org/2000/svg">
  <g transform="matrix(1.0, 0.0, 0.0, 1.0, 0.5, 0.5)">
    <path d="M81.6 19.2 L83.25 18.1 94.75 28.35 97.1 52.95 96.65 54.9 94.0 28.95 83.35 19.65 62.8 31.4 81.6 19.2 M48.75 1.25 L50.15 0.45 Q58.45 1.3 67.5 4.1 L81.1 16.2 80.05 17.1 66.6 4.9 47.0 22.55 29.35 23.2 Q27.6 23.05 29.95 19.85 L35.35 14.05 45.0 3.5 48.75 1.25 M62.3 63.8 L63.7 64.45 53.9 90.05 31.8 82.7 36.45 61.0 33.95 51.6 39.55 47.1 55.15 56.85 56.0 60.7 58.45 73.5 40.6 80.7 44.0 80.7 59.2 74.25 57.05 61.25 62.3 63.8 M37.3 38.0 L38.6 43.2 33.4 49.35 33.4 42.15 37.3 38.0 M40.6 80.7 L38.95 81.3 40.6 80.7" fill="#ffffff" fill-rule="evenodd" stroke="none"/>
    <path d="M95.35 58.1 L87.5 69.6 93.8 53.9 94.65 47.65 93.8 35.15 95.65 48.45 95.35 58.1 M79.95 83.0 Q72.9 88.2 65.4 92.45 L64.2 90.0 63.05 87.6 63.05 84.55 63.05 87.6 63.05 90.85 63.45 93.45 63.45 93.5 61.6 94.5 53.9 98.35 26.0 87.8 13.25 69.5 9.85 67.45 9.9 64.7 11.55 67.15 15.8 68.55 20.0 69.95 22.25 69.45 31.8 82.7 53.9 90.05 63.05 84.55 73.5 76.5 71.85 67.45 70.9 62.15 68.25 47.85 53.35 34.85 53.85 32.55 54.9 27.7 72.85 42.4 80.0 72.6 79.95 83.0 M81.1 16.2 L81.1 16.25 Q80.7 18.55 81.6 19.2 L62.8 31.4 80.05 17.1 81.1 16.2 M51.3 33.1 L44.85 27.5 35.05 28.9 31.25 29.4 29.3 29.65 28.75 28.4 27.4 25.35 Q27.1 24.0 27.75 22.65 L28.65 21.25 29.95 19.85 Q27.6 23.05 29.35 23.2 L47.0 22.55 53.85 25.8 51.3 33.1 M53.9 98.35 L53.9 90.05 53.9 98.35 M33.4 49.35 L33.4 49.7 33.95 51.6 26.7 57.3 33.4 49.35" fill="#d9cc9d" fill-rule="evenodd" stroke="none"/>
    <path d="M62.8 31.4 L83.35 19.65 94.0 28.95 93.3 29.55 90.7 32.3 72.85 42.4 54.9 27.7 Q60.15 20.65 68.55 13.15 60.95 18.3 53.85 25.8 L47.0 22.55 66.6 4.9 80.05 17.1 62.8 31.4 M62.3 63.8 Q62.75 63.45 63.25 63.15 L66.2 63.65 70.9 62.15 71.85 67.45 63.05 84.55 53.9 90.05 63.7 64.45 62.3 63.8 M38.6 43.2 L39.55 47.1 33.95 51.6 36.45 61.0 31.8 82.7 22.25 69.45 22.25 63.45 27.0 51.7 31.7 43.95 33.4 42.15 33.4 49.35 26.7 57.3 33.95 51.6 33.4 49.7 33.4 49.35 38.6 43.2" fill="#f3efe0" fill-rule="evenodd" stroke="none"/>
    <path d="M96.65 54.9 L96.15 56.9 95.35 58.1 95.65 48.45 93.8 35.15 94.65 47.65 93.8 53.9 87.5 69.6 85.7 76.85 81.3 81.95 79.95 83.0 80.0 72.6 72.85 42.4 90.7 32.3 93.3 29.55 94.0 28.95 96.65 54.9 M63.05 84.55 L71.85 67.45 73.5 76.5 63.05 84.55" fill="#e6ddbd" fill-rule="evenodd" stroke="none"/>
    <path d="M64.2 90.0 L63.5 93.45 63.45 93.45 63.05 90.85 63.05 87.6 64.2 90.0 M53.85 32.55 Q53.2 31.35 51.3 33.1 L53.85 25.8 Q60.95 18.3 68.55 13.15 60.15 20.65 54.9 27.7 L53.85 32.55 M35.2 36.85 L37.3 38.0 33.4 42.15 31.7 43.95 33.9 39.45 35.2 36.85 M56.0 60.7 L57.05 61.25 59.2 74.25 44.0 80.7 40.6 80.7 58.45 73.5 56.0 60.7 M20.6 67.8 L22.25 63.45 22.25 69.45 20.0 69.95 15.8 68.55 20.6 67.8" fill="#cfbf85" fill-rule="evenodd" stroke="none"/>
    <path d="M1.85 25.95 L5.3 23.5 6.6 22.9 8.15 21.35 14.95 16.45 27.5 1.8 Q37.05 -0.65 48.0 0.2 L44.05 2.6 35.35 14.05 29.95 19.85 28.65 21.25 27.75 22.65 Q26.35 23.85 22.2 24.55 L3.15 27.4 5.65 29.7 7.85 31.8 1.85 29.4 1.85 25.95 M35.05 28.9 L36.4 34.35 35.2 36.85 33.9 39.45 33.25 30.6 25.9 37.3 31.25 29.4 35.05 28.9 M18.15 13.95 Q22.4 10.45 24.9 7.55 L26.7 4.15 18.15 13.95 14.95 16.45 18.15 13.95 M6.6 22.9 L3.7 25.75 Q3.05 26.85 3.15 27.4 3.05 26.85 3.7 25.75 L6.6 22.9" fill="#878601" fill-rule="evenodd" stroke="none"/>
    <path d="M48.0 0.2 L48.75 1.25 45.0 3.5 35.35 14.05 44.05 2.6 48.0 0.2 M24.9 7.55 Q22.4 10.45 18.15 13.95 L26.7 4.15 24.9 7.55 M33.9 39.45 L31.7 43.95 27.0 51.7 22.25 63.45 20.6 67.8 9.4 51.65 25.9 37.3 33.25 30.6 33.9 39.45" fill="#666600" fill-rule="evenodd" stroke="none"/>
    <path d="M9.9 64.7 L1.85 53.15 1.0 42.85 1.7 41.65 0.8 39.8 0.0 30.5 1.85 25.95 1.85 29.4 7.85 31.8 5.65 29.7 3.15 27.4 22.2 24.55 Q26.35 23.85 27.75 22.65 27.1 24.0 27.4 25.35 L28.75 28.4 27.45 29.95 27.4 29.95 12.3 32.25 Q10.0 32.5 10.1 33.85 L10.1 44.25 23.4 35.95 10.4 45.85 5.65 44.25 10.1 44.25 5.65 44.25 10.4 45.85 9.4 51.65 20.6 67.8 15.8 68.55 11.55 67.15 9.9 64.7 M27.4 29.95 L27.4 25.35 27.4 29.95 M10.1 33.85 L7.85 31.8 10.1 33.85 M5.65 29.7 L12.3 32.25 5.65 29.7 M1.0 42.85 L2.55 43.55 5.65 44.25 2.55 43.55 1.0 42.85 M1.7 41.65 L2.55 43.55 1.7 41.65" fill="#4a4a00" fill-rule="evenodd" stroke="none"/>
    <path d="M28.75 28.4 L29.3 29.65 31.25 29.4 23.4 35.95 31.25 29.4 25.9 37.3 9.4 51.65 10.4 45.85 23.4 35.95 10.1 44.25 10.1 33.85 Q10.0 32.5 12.3 32.25 L27.4 29.95 27.45 29.95 28.75 28.4" fill="#5b5b00" fill-rule="evenodd" stroke="none"/>
    <path d="M81.6 19.2 L83.25 18.1 94.75 28.35 97.1 52.95 96.65 54.9 96.15 56.9 95.35 58.1 87.5 69.6 85.7 76.85 81.3 81.95 79.95 83.0 Q72.9 88.2 65.4 92.45 L64.2 90.0 63.5 93.45 63.45 93.5 61.6 94.5 53.9 98.35 26.0 87.8 13.25 69.5 9.85 67.45 9.9 64.7 1.85 53.15 1.0 42.85 1.7 41.65 0.8 39.8 0.0 30.5 1.85 25.95 5.3 23.5 6.6 22.9 8.15 21.35 14.95 16.45 27.5 1.8 Q37.05 -0.65 48.0 0.2 L48.75 1.25 50.15 0.45 Q58.45 1.3 67.5 4.1 L81.1 16.2 81.1 16.25 Q80.7 18.55 81.6 19.2 L62.8 31.4 80.05 17.1 81.1 16.2 M87.5 69.6 L93.8 53.9 94.65 47.65 93.8 35.15 M70.9 62.15 L66.2 63.65 63.25 63.15 Q62.75 63.45 62.3 63.8 L63.7 64.45 53.9 90.05 53.9 98.35 M71.85 67.45 L70.9 62.15 68.25 47.85 53.35 34.85 53.85 32.55 Q53.2 31.35 51.3 33.1 L44.85 27.5 35.05 28.9 36.4 34.35 35.2 36.85 37.3 38.0 38.6 43.2 39.55 47.1 55.15 56.85 56.0 60.7 57.05 61.25 62.3 63.8 M71.85 67.45 L73.5 76.5 M63.05 84.55 L63.05 87.6 64.2 90.0 M63.45 93.45 L63.45 93.5 M63.05 87.6 L63.05 90.85 63.45 93.45 M53.85 25.8 Q60.95 18.3 68.55 13.15 60.15 20.65 54.9 27.7 L53.85 32.55 M27.75 22.65 L28.65 21.25 29.95 19.85 35.35 14.05 45.0 3.5 48.75 1.25 M18.15 13.95 Q22.4 10.45 24.9 7.55 M18.15 13.95 L14.95 16.45 M7.85 31.8 L5.65 29.7 3.15 27.4 Q3.05 26.85 3.7 25.75 L6.6 22.9 M51.3 33.1 L53.85 25.8 M35.2 36.85 L33.9 39.45 31.7 43.95 33.4 42.15 37.3 38.0 M31.25 29.4 L29.3 29.65 28.75 28.4 27.45 29.95 27.4 29.95 12.3 32.25 Q10.0 32.5 10.1 33.85 L7.85 31.8 M10.1 44.25 L23.4 35.95 31.25 29.4 35.05 28.9 M20.6 67.8 L22.25 63.45 27.0 51.7 31.7 43.95 M27.4 25.35 L27.4 29.95 M28.75 28.4 L27.4 25.35 Q27.1 24.0 27.75 22.65 M12.3 32.25 L5.65 29.7 M10.1 44.25 L5.65 44.25 10.4 45.85 23.4 35.95 M5.65 44.25 L2.55 43.55 1.0 42.85 M22.25 69.45 L22.25 63.45 M15.8 68.55 L20.0 69.95 22.25 69.45 M9.9 64.7 L11.55 67.15 15.8 68.55 20.6 67.8 M38.95 81.3 L40.6 80.7 58.45 73.5 56.0 60.7 M2.55 43.55 L1.7 41.65" fill="none" stroke="#000000" stroke-linecap="round" stroke-linejoin="round" stroke-opacity="0.4" stroke-width="0.30000000000000004"/>
    <path d="M53.9 90.05 L63.05 84.55 73.5 76.5 M72.85 42.4 L80.0 72.6 79.95 83.0 M29.95 19.85 Q27.6 23.05 29.35 23.2 L47.0 22.55 53.85 25.8 M54.9 27.7 L72.85 42.4 M31.8 82.7 L53.9 90.05 M10.1 33.85 L10.1 44.25 M9.4 51.65 L20.6 67.8 M27.75 22.65 Q26.35 23.85 22.2 24.55 L3.15 27.4 M9.4 51.65 L10.4 45.85 M22.25 69.45 L31.8 82.7" fill="none" stroke="#ffffff" stroke-linecap="round" stroke-linejoin="round" stroke-opacity="0.36862746" stroke-width="0.30000000000000004"/>
    <path d="M47.5 57.15 Q39.95 55.85 42.05 62.0 36.6 53.85 47.5 57.15 M40.15 65.85 Q33.5 65.45 34.15 71.65 29.1 62.55 40.15 65.85" fill="#544923" fill-rule="evenodd" stroke="none"/>
    <path d="M40.15 65.85 Q29.1 62.55 34.15 71.65 33.5 65.45 40.15 65.85 M47.5 57.15 Q36.6 53.85 42.05 62.0 39.95 55.85 47.5 57.15 Z" fill="none" stroke="#000000" stroke-linecap="round" stroke-linejoin="round" stroke-opacity="0.4" stroke-width="1.0"/>
    <path d="M67.5 4.1 Q58.45 1.3 50.15 0.45 L48.75 1.25 48.0 0.2 Q37.05 -0.65 27.5 1.8 L14.95 16.45 8.15 21.35 6.6 22.9 5.3 23.5 1.85 25.95 0.0 30.5 0.8 39.8 1.7 41.65 1.0 42.85 1.85 53.15 9.9 64.7 9.85 67.45 13.25 69.5 26.0 87.8 53.9 98.35 61.6 94.5 63.45 93.5 63.45 93.45 63.5 93.45 64.2 90.0 65.4 92.45 Q72.9 88.2 79.95 83.0 L81.3 81.95 85.7 76.85 87.5 69.6 96.15 56.9 97.1 52.95 94.75 28.35 83.25 18.1 81.6 19.2 Q80.7 18.55 81.1 16.25 L81.1 16.2 67.5 4.1 M63.25 63.15 Q62.75 63.45 62.3 63.8 L56.0 60.7 55.15 56.85 39.55 47.1 37.3 38.0 35.2 36.85 36.4 34.35 35.05 28.9 44.85 27.5 51.3 33.1 Q53.2 31.35 53.85 32.55 L53.35 34.85 68.25 47.85 70.9 62.15 66.2 63.65 63.25 63.15 Z" fill="none" stroke="#000000" stroke-linecap="round" stroke-linejoin="round" stroke-opacity="0.4" stroke-width="1.0"/>
  </g>
</svg>
