<?xml version="1.0" encoding="UTF-8" standalone="no"?>
<svg xmlns:xlink="http://www.w3.org/1999/xlink" height="86.5px" width="97.35px" xmlns="http://www.w3.org/2000/svg">
  <g transform="matrix(1.0, 0.0, 0.0, 1.0, -209.6, -102.75)">
    <path d="M239.25 112.55 L240.0 113.5 239.25 112.55 Q242.0 111.05 245.2 110.0 249.15 108.7 253.9 108.15 L253.9 111.3 253.9 108.15 261.3 107.7 266.05 107.85 274.95 108.8 279.3 109.5 Q283.7 110.7 287.5 112.6 267.15 110.55 265.0 118.05 263.0 126.6 236.4 127.35 L237.1 127.6 Q240.9 130.65 233.6 130.6 233.05 130.25 232.5 130.0 230.35 128.8 228.3 128.3 L223.8 128.1 228.3 128.3 Q230.35 128.8 232.5 130.0 233.05 130.25 233.6 130.6 L236.3 132.5 Q237.05 137.5 228.9 135.2 238.5 150.15 232.6 160.65 229.4 162.5 225.5 161.2 L225.0 160.9 223.6 160.3 222.2 159.6 Q221.75 161.85 223.2 162.85 221.8 165.0 222.85 167.15 L223.8 168.3 225.3 169.55 226.6 170.2 Q228.75 176.55 218.8 171.55 215.15 166.0 220.4 159.75 L218.55 159.8 213.8 159.2 Q210.4 158.2 209.8 155.45 208.85 141.7 215.95 133.15 L217.8 131.1 218.85 130.25 220.2 131.95 218.85 130.25 Q221.2 128.5 223.8 128.1 224.9 126.75 226.85 126.25 230.15 118.85 236.35 114.45 L239.25 112.55 M239.35 119.35 L236.35 114.45 239.35 119.35 M216.85 139.75 Q217.35 139.45 218.0 139.4 217.35 139.45 216.85 139.75 216.35 140.05 216.1 140.65 213.7 145.95 213.3 152.8 L213.25 154.15 Q221.1 154.35 216.85 139.75 M228.25 142.85 L227.25 141.5 Q224.55 145.7 226.7 154.35 227.85 157.55 230.45 157.65 231.2 156.2 231.55 154.7 232.7 149.15 228.25 142.85 M226.55 140.65 L227.25 141.5 226.55 140.65 M236.4 127.35 Q230.3 125.4 226.85 126.25 230.3 125.4 236.4 127.35 M265.0 111.75 L266.05 107.85 265.0 111.75 M216.95 158.5 Q219.8 158.6 222.2 159.6 L220.4 159.75 222.2 159.6 Q219.8 158.6 216.95 158.5 M300.55 145.05 L300.45 146.9 Q299.6 155.45 293.1 162.0 286.5 168.65 278.05 169.5 270.05 170.4 264.85 165.65 269.55 163.75 273.55 159.7 277.65 155.55 279.55 150.65 280.55 147.9 280.95 144.95 284.0 142.2 289.4 142.1 295.0 141.9 300.55 145.05 M245.2 110.0 L246.5 111.55 245.2 110.0" fill="#f5c0b4" fill-rule="evenodd" stroke="none"/>
    <path d="M216.85 139.75 Q221.1 154.35 213.25 154.15 L213.3 152.8 Q217.65 152.05 216.1 140.65 216.35 140.05 216.85 139.75 M227.25 141.5 L228.25 142.85 Q227.0 155.85 231.55 154.7 231.2 156.2 230.45 157.65 227.85 157.55 226.7 154.35 224.55 145.7 227.25 141.5" fill="#efa08c" fill-rule="evenodd" stroke="none"/>
    <path d="M237.1 127.6 L236.4 127.35 Q263.0 126.6 265.0 118.05 267.15 110.55 287.5 112.6 L289.65 113.75 288.45 115.0 289.65 113.75 Q297.3 118.1 301.95 125.3 L302.75 126.55 Q310.1 139.35 304.3 154.75 298.4 170.25 282.8 179.25 273.2 184.75 263.4 185.95 L262.5 186.05 Q250.75 180.4 248.25 174.05 244.65 179.8 236.95 180.45 L233.0 180.45 231.9 180.2 230.3 179.75 Q223.9 177.8 219.55 172.6 L218.8 171.55 Q228.75 176.55 226.6 170.2 L227.5 170.55 228.85 170.95 231.25 170.55 Q233.85 170.05 235.95 168.55 238.85 166.5 240.75 162.65 246.3 159.7 247.25 153.1 245.2 155.9 242.55 157.7 240.9 158.8 239.05 159.5 L235.9 160.4 Q236.85 159.1 237.6 157.2 236.85 159.1 235.9 160.4 234.85 161.75 233.65 162.4 231.85 163.4 229.55 162.95 L227.35 162.2 Q226.45 161.8 225.5 161.2 229.4 162.5 232.6 160.65 238.5 150.15 228.9 135.2 237.05 137.5 236.3 132.5 L233.6 130.6 Q240.9 130.65 237.1 127.6 L239.15 128.3 237.1 127.6 M239.55 135.25 L236.3 132.5 239.55 135.25 M248.25 151.55 L247.25 153.1 248.25 151.55 M232.4 177.85 L231.9 180.2 232.4 177.85 M249.3 171.95 L248.25 174.05 249.3 171.95 M264.85 165.65 Q270.05 170.4 278.05 169.5 286.5 168.65 293.1 162.0 299.6 155.45 300.45 146.9 L300.55 145.05 Q300.6 141.85 299.9 139.85 298.5 135.75 295.8 133.1 290.45 127.75 282.0 128.65 278.7 129.0 275.75 130.2 270.95 132.1 266.95 136.15 260.35 142.8 259.6 151.3 258.8 159.7 264.2 165.05 L264.85 165.65" fill="url(#gradient0)" fill-rule="evenodd" stroke="none"/>
    <path d="M235.9 160.4 L239.05 159.5 Q237.5 165.5 233.65 162.4 234.85 161.75 235.9 160.4 M225.3 169.55 Q229.2 165.35 228.85 170.95 L227.5 170.55 226.6 170.2 225.3 169.55 M231.25 170.55 Q232.7 164.95 235.95 168.55 233.85 170.05 231.25 170.55 M227.35 162.2 Q224.85 163.6 223.2 162.85 221.75 161.85 222.2 159.6 L223.6 160.3 225.0 160.9 225.5 161.2 Q226.45 161.8 227.35 162.2 M213.8 159.2 L218.55 159.8 Q215.3 163.7 213.8 159.2" fill="#cccc99" fill-rule="evenodd" stroke="none"/>
    <path d="M213.3 152.8 Q213.7 145.95 216.1 140.65 217.65 152.05 213.3 152.8 M228.25 142.85 Q232.7 149.15 231.55 154.7 227.0 155.85 228.25 142.85 M239.05 159.5 Q240.9 158.8 242.55 157.7 241.8 160.45 240.75 162.65 238.85 166.5 235.95 168.55 232.7 164.95 231.25 170.55 L228.85 170.95 Q229.2 165.35 225.3 169.55 L223.8 168.3 Q225.5 164.1 229.55 162.95 231.85 163.4 233.65 162.4 237.5 165.5 239.05 159.5" fill="#990000" fill-rule="evenodd" stroke="none"/>
    <path d="M229.55 162.95 Q225.5 164.1 223.8 168.3 L222.85 167.15 Q221.8 165.0 223.2 162.85 224.85 163.6 227.35 162.2 L229.55 162.95" fill="#e75c3a" fill-rule="evenodd" stroke="none"/>
    <path d="M242.55 157.7 Q245.2 155.9 247.25 153.1 246.3 159.7 240.75 162.65 241.8 160.45 242.55 157.7 M236.95 180.45 Q244.65 179.8 248.25 174.05 250.75 180.4 262.5 186.05 258.7 186.35 254.9 186.05 L250.95 185.55 250.9 185.55 Q246.35 184.8 242.55 183.3 239.55 182.1 236.95 180.45 M275.75 130.2 Q278.7 129.0 282.0 128.65 290.45 127.75 295.8 133.1 298.5 135.75 299.9 139.85 289.4 132.7 279.6 135.4 278.4 132.85 276.3 130.75 L275.75 130.2 M246.95 181.75 L249.15 179.35 246.95 181.75 M250.95 185.55 L251.5 183.7 250.95 185.55 M244.35 181.75 L242.55 183.3 244.35 181.75" fill="#e97d63" fill-rule="evenodd" stroke="none"/>
    <path d="M299.9 139.85 Q300.6 141.85 300.55 145.05 295.0 141.9 289.4 142.1 284.0 142.2 280.95 144.95 L280.95 144.6 Q281.4 139.4 279.6 135.4 289.4 132.7 299.9 139.85" fill="#ec8971" fill-rule="evenodd" stroke="none"/>
    <path d="M239.25 112.55 L237.4 110.25 M240.0 113.5 L239.25 112.55 236.35 114.45 239.35 119.35 M236.35 114.45 L232.8 108.7 M215.95 133.15 L214.15 131.95 M215.95 133.15 L217.8 131.1 218.85 130.25 216.3 126.95 M218.0 139.4 Q217.35 139.45 216.85 139.75 216.35 140.05 216.1 140.65 217.65 152.05 213.3 152.8 213.7 145.95 216.1 140.65 M213.25 154.15 L213.3 152.8 M220.2 131.95 L218.85 130.25 Q221.2 128.5 223.8 128.1 224.9 126.75 226.85 126.25 230.15 118.85 236.35 114.45 M236.4 127.35 L237.1 127.6 239.15 128.3 M233.6 130.6 L236.3 132.5 239.55 135.25 M223.8 128.1 L228.3 128.3 Q230.35 128.8 232.5 130.0 233.05 130.25 233.6 130.6 M227.25 141.5 L228.25 142.85 Q232.7 149.15 231.55 154.7 231.2 156.2 230.45 157.65 M227.25 141.5 L226.55 140.65 M226.85 126.25 Q230.3 125.4 236.4 127.35 M287.5 112.6 Q283.7 110.7 279.3 109.5 L274.95 108.8 266.05 107.85 265.0 111.75 M239.05 159.5 Q240.9 158.8 242.55 157.7 245.2 155.9 247.25 153.1 L248.25 151.55 M235.9 160.4 L239.05 159.5 Q237.5 165.5 233.65 162.4 231.85 163.4 229.55 162.95 225.5 164.1 223.8 168.3 L225.3 169.55 Q229.2 165.35 228.85 170.95 L231.25 170.55 Q232.7 164.95 235.95 168.55 238.85 166.5 240.75 162.65 241.8 160.45 242.55 157.7 M237.6 157.2 Q236.85 159.1 235.9 160.4 234.85 161.75 233.65 162.4 M223.2 162.85 Q224.85 163.6 227.35 162.2 226.45 161.8 225.5 161.2 L225.0 160.9 223.6 160.3 222.2 159.6 Q221.75 161.85 223.2 162.85 M228.85 170.95 L227.5 170.55 226.6 170.2 225.3 169.55 M218.8 171.55 L219.55 172.6 Q223.9 177.8 230.3 179.75 L231.9 180.2 232.4 177.85 M229.55 162.95 L227.35 162.2 M235.95 168.55 Q233.85 170.05 231.25 170.55 M220.4 159.75 L222.2 159.6 Q219.8 158.6 216.95 158.5 M218.55 159.8 L220.4 159.75 Q215.15 166.0 218.8 171.55 M213.8 159.2 L218.55 159.8 Q215.3 163.7 213.8 159.2 210.4 158.2 209.8 155.45 208.85 141.7 215.95 133.15 M231.9 180.2 L233.0 180.45 236.95 180.45 Q244.65 179.8 248.25 174.05 L249.3 171.95 M242.55 183.3 L240.0 185.45 M242.55 183.3 Q239.55 182.1 236.95 180.45 M230.3 179.75 L228.9 181.55 M231.9 180.2 L231.5 181.95 M231.55 154.7 Q227.0 155.85 228.25 142.85 M287.5 112.6 L289.65 113.75 293.7 109.35 M288.45 115.0 L289.65 113.75 Q297.3 118.1 301.95 125.3 L302.75 126.55 Q310.1 139.35 304.3 154.75 298.4 170.25 282.8 179.25 273.2 184.75 263.4 185.95 L262.5 186.05 Q258.7 186.35 254.9 186.05 L254.9 189.15 M264.85 165.65 L264.2 165.05 Q258.8 159.7 259.6 151.3 260.35 142.8 266.95 136.15 270.95 132.1 275.75 130.2 L276.3 130.75 Q278.4 132.85 279.6 135.4 281.4 139.4 280.95 144.6 L280.95 144.95 Q280.55 147.9 279.55 150.65 277.65 155.55 273.55 159.7 269.55 163.75 264.85 165.65 M274.95 108.8 L276.1 105.45 M266.05 107.85 L266.95 104.35 M245.2 110.0 Q249.15 108.7 253.9 108.15 L253.9 105.9 M246.5 111.55 L245.2 110.0 Q242.0 111.05 239.25 112.55 M253.9 111.3 L253.9 108.15 261.3 107.7 261.3 102.85 M261.3 107.7 L266.05 107.85 M249.15 179.35 L246.95 181.75 M250.95 185.55 L250.9 185.55 Q246.35 184.8 242.55 183.3 L244.35 181.75 M251.5 183.7 L250.95 185.55 254.9 186.05 M250.95 185.55 L249.8 189.15 M245.2 110.0 L242.8 107.2" fill="none" stroke="#330000" stroke-linecap="round" stroke-linejoin="round" stroke-opacity="0.4117647" stroke-width="0.2"/>
    <path d="M300.55 145.05 L300.45 146.9 Q299.6 155.45 293.1 162.0 286.5 168.65 278.05 169.5 270.05 170.4 264.85 165.65 M275.75 130.2 Q278.7 129.0 282.0 128.65 290.45 127.75 295.8 133.1 298.5 135.75 299.9 139.85 300.6 141.85 300.55 145.05" fill="none" stroke="#fae0da" stroke-linecap="round" stroke-linejoin="round" stroke-width="0.2"/>
  </g>
  <defs>
    <linearGradient gradientTransform="matrix(0.0063, 0.0238, -0.0553, 0.0146, 260.95, 147.35)" gradientUnits="userSpaceOnUse" id="gradient0" spreadMethod="pad" x1="-819.2" x2="819.2">
      <stop offset="0.0" stop-color="#f0a28e"/>
      <stop offset="0.9725490196078431" stop-color="#ec8971"/>
    </linearGradient>
  </defs>
</svg>
