<?xml version="1.0" encoding="UTF-8" standalone="no"?>
<svg xmlns:xlink="http://www.w3.org/1999/xlink" height="189.75px" width="69.5px" xmlns="http://www.w3.org/2000/svg">
  <g transform="matrix(1.0, 0.0, 0.0, 1.0, 48.0, 94.9)">
    <path d="M-13.9 -87.1 L-12.65 -84.7 -13.05 -81.35 -18.9 -82.45 -19.75 -85.75 -20.05 -86.9 Q-19.35 -87.05 -18.6 -87.45 L-18.15 -87.75 -18.65 -89.45 -13.4 -87.9 -13.9 -87.1" fill="url(#gradient0)" fill-rule="evenodd" stroke="none"/>
    <path d="M8.0 -77.2 L10.5 -76.3 15.85 -76.9 15.4 -75.0 7.45 -74.2 8.0 -77.2 M-12.65 -84.7 L-12.6 -86.1 -10.9 -86.1 Q-3.3 -81.45 5.85 -77.95 L5.45 -74.8 4.95 -74.95 -11.3 -82.4 -12.65 -84.7 M11.45 44.9 L12.55 47.25 9.1 48.25 7.05 50.9 6.6 49.05 7.65 48.0 8.1 47.45 9.05 45.65 Q10.45 45.65 11.45 44.9 M8.85 64.5 L6.6 65.2 Q7.8 62.25 7.95 58.65 L10.25 57.5 8.85 64.5 M0.95 70.35 Q-1.4 74.4 -2.35 79.95 L-2.7 80.55 Q-11.7 94.9 -42.15 94.6 L-41.35 91.35 Q-18.05 92.0 -5.25 80.2 -2.7 71.7 1.45 66.6 L2.35 67.25 2.0 68.85 0.95 70.35 M-18.1 34.9 L-19.65 32.2 -15.0 33.3 -18.7 30.85 -17.75 29.5 -9.15 35.0 Q-14.25 33.8 -18.1 34.9 M-29.7 -81.25 L-30.15 -82.9 Q-28.7 -83.25 -26.55 -84.15 -23.3 -86.3 -20.05 -86.9 L-19.75 -85.75 -20.45 -84.8 -29.7 -81.25 M-1.95 5.55 L0.35 6.3 7.75 4.9 Q7.65 5.6 6.75 6.7 0.35 7.45 -5.5 5.8 L-1.95 5.55 M8.25 22.35 Q8.0 23.8 6.25 24.1 L4.85 23.6 3.45 23.1 8.25 22.35 M8.2 32.35 L9.7 31.45 9.45 37.55 8.95 41.0 8.75 40.4 7.45 37.85 7.05 36.05 7.45 37.85 6.85 36.6 7.05 36.05 7.9 33.4 8.2 32.35 M5.95 30.95 L5.2 31.15 Q-4.45 33.65 -12.15 29.55 -0.85 32.05 5.9 29.2 7.6 29.65 5.95 30.95 M1.55 66.45 Q1.9 66.0 0.55 64.8 2.5 66.4 2.4 67.1 L1.55 66.45 M-18.9 -82.45 L-13.05 -81.35 Q-13.95 -76.15 -16.25 -72.15 L-18.9 -82.45" fill="#3c2300" fill-rule="evenodd" stroke="none"/>
    <path d="M-18.75 -17.5 L-18.75 -17.45 -18.8 -17.5 -18.75 -17.5" fill="#956e00" fill-rule="evenodd" stroke="none"/>
    <path d="M4.95 -74.95 L5.45 -74.8 5.45 -74.75 4.95 -74.95" fill="url(#gradient1)" fill-rule="evenodd" stroke="none"/>
    <path d="M-28.25 -90.25 Q-31.1 -88.9 -32.55 -89.1 L-30.8 -90.6 -28.25 -90.25" fill="url(#gradient2)" fill-rule="evenodd" stroke="none"/>
    <path d="M-18.15 -19.2 L-18.75 -17.5 -18.8 -17.5 -18.8 -19.45 -18.15 -19.2" fill="url(#gradient3)" fill-rule="evenodd" stroke="none"/>
    <path d="M-18.05 -19.25 L-18.15 -19.2 -18.1 -19.35 -18.05 -19.25" fill="url(#gradient4)" fill-rule="evenodd" stroke="none"/>
    <path d="M10.85 18.55 L10.6 18.95 10.6 22.8 8.75 23.75 8.65 24.0 8.45 23.9 8.75 23.75 Q9.75 23.15 9.65 21.65 L9.5 20.9 8.95 20.1 10.85 18.55 M13.2 -37.85 L13.55 -38.5 13.3 -37.8 13.2 -37.85 M10.2 3.7 L10.6 3.2 10.6 3.7 10.2 3.7 M9.05 15.55 L9.25 15.85 8.85 16.1 9.05 15.55 M-15.7 -6.75 L-15.7 -6.95 -15.65 -6.75 -15.7 -6.75 M7.15 18.9 L7.9 20.65 0.0 21.9 -1.75 21.1 Q3.0 21.0 6.45 19.3 L7.15 18.9 M7.45 28.45 L8.5 27.8 9.7 26.85 11.25 25.2 9.3 29.85 7.95 30.35 Q9.85 28.1 7.45 28.45 M6.9 33.0 L6.85 33.2 6.45 33.25 6.9 33.0" fill="#754900" fill-rule="evenodd" stroke="none"/>
    <path d="M5.85 -77.95 L8.0 -77.2 7.45 -74.2 5.5 -74.8 5.45 -74.8 5.85 -77.95 M6.95 -54.05 L8.2 -55.0 8.9 -55.55 9.05 -47.9 Q10.1 -47.25 10.75 -46.45 L9.35 -45.25 9.3 -45.25 Q8.85 -46.6 6.95 -46.85 L6.95 -54.05 M7.8 -12.25 L7.55 -9.55 8.05 -8.5 6.75 -7.8 6.35 -8.7 6.35 -10.95 7.8 -12.25 M11.35 14.45 L11.2 15.5 Q9.75 17.3 7.85 18.55 L8.8 16.15 7.85 18.55 7.15 18.9 6.45 19.3 7.25 16.75 8.8 16.15 8.85 16.1 9.25 15.85 11.35 14.45 M7.95 30.35 L7.25 30.6 5.95 30.95 Q7.6 29.65 5.9 29.2 L6.95 28.7 7.45 28.45 Q9.85 28.1 7.95 30.35 M8.2 32.35 L7.9 33.4 7.05 36.05 6.55 33.85 6.85 33.2 6.9 33.0 8.2 32.35" fill="#590000" fill-rule="evenodd" stroke="none"/>
    <path d="M15.85 -76.9 L17.65 -77.4 15.05 -66.55 16.55 -64.0 13.35 -58.45 13.35 -40.65 15.25 -37.65 12.7 -33.55 12.7 -27.55 11.65 -25.45 14.4 -21.8 14.4 -19.65 11.85 -16.0 11.85 -11.5 13.15 -8.05 10.6 -4.85 10.6 -0.35 12.3 2.25 11.0 5.45 10.15 8.85 11.0 12.3 12.95 14.45 10.85 18.55 8.95 20.1 7.85 18.55 8.95 20.1 9.5 20.9 9.65 21.65 Q9.75 23.15 8.75 23.75 L8.45 23.9 6.25 24.1 Q8.0 23.8 8.25 22.35 L8.25 21.55 7.9 20.65 8.25 21.55 8.25 22.35 3.45 23.1 4.85 23.6 4.6 24.25 Q0.55 24.25 -4.2 21.1 L-1.8 21.1 -1.75 21.1 0.0 21.9 7.9 20.65 7.15 18.9 7.85 18.55 Q9.75 17.3 11.2 15.5 L11.35 14.45 10.25 13.25 9.35 9.6 9.35 7.0 10.6 4.7 10.6 3.7 10.6 3.2 10.2 3.7 Q10.1 2.85 9.3 2.0 L8.8 2.4 9.3 2.0 Q10.1 2.85 10.2 3.7 10.25 4.8 9.2 5.95 L8.65 6.4 6.75 6.7 Q7.65 5.6 7.75 4.9 7.9 3.95 6.65 3.6 3.35 5.0 -1.95 5.55 L-5.5 5.8 Q-11.0 4.2 -16.0 0.5 L-16.8 -1.25 -15.35 -1.85 -15.7 -6.75 -15.65 -6.75 -7.0 -2.35 -0.35 -1.05 Q1.6 -1.45 3.45 -2.2 -5.3 -2.85 -12.9 -8.1 L-16.75 -11.1 -18.35 -12.55 -20.3 -16.2 -17.2 -12.6 Q-9.05 -8.65 -0.35 -8.1 L6.35 -10.95 6.35 -8.7 6.75 -7.8 8.05 -4.75 8.65 -5.2 9.35 -5.75 8.05 -8.5 7.55 -9.55 7.8 -12.25 8.1 -15.05 8.2 -15.15 9.55 -16.05 8.7 -18.75 8.0 -20.9 Q10.85 -24.2 9.7 -27.55 L7.7 -30.25 8.4 -31.0 8.9 -31.6 9.9 -40.85 11.2 -43.8 11.6 -44.7 10.75 -46.45 Q10.1 -47.25 9.05 -47.9 L8.9 -55.55 10.5 -57.1 Q10.55 -59.35 8.2 -61.65 L7.9 -62.6 Q6.5 -67.45 7.45 -74.2 L15.4 -75.0 15.85 -76.9 M5.45 -74.8 L5.5 -74.8 5.45 -74.75 5.45 -74.8 M4.95 -74.95 L5.45 -74.75 Q4.55 -66.7 5.55 -61.15 L2.45 -59.3 -6.6 -56.4 Q-12.5 -53.9 -18.75 -56.4 -21.85 -57.8 -24.75 -61.2 L-29.7 -81.25 -20.45 -84.8 -16.85 -68.95 Q-14.7 -68.4 -12.95 -74.35 L-11.3 -82.4 4.95 -74.95 M10.35 34.8 L12.1 35.85 12.1 38.85 13.15 42.5 12.75 43.4 11.45 44.9 Q10.45 45.65 9.05 45.65 L8.1 47.45 8.85 44.15 8.85 44.0 Q9.15 42.05 8.95 41.0 L9.45 37.55 10.35 36.5 10.35 34.8 M-47.7 88.55 Q-44.25 74.55 -34.65 67.2 L-34.0 66.7 -29.1 66.7 -25.5 69.65 -21.95 72.6 Q-17.75 81.1 -31.5 85.6 -38.65 87.1 -41.35 91.35 L-44.0 91.25 Q-42.15 84.55 -38.7 79.6 L-34.2 79.6 -32.05 68.25 -42.15 77.05 -41.3 78.55 Q-44.2 82.9 -47.1 90.1 -47.5 89.5 -47.7 88.55 M-33.65 65.1 L-32.7 63.05 Q-31.85 62.5 -30.65 62.55 L-26.55 54.5 -25.95 53.3 Q-22.3 52.7 -18.95 53.3 -13.1 54.35 -10.6 56.5 -9.15 58.6 -9.0 60.9 -8.95 63.65 -11.7 67.5 -15.15 70.4 -21.75 68.2 L-29.0 64.25 Q-31.6 63.35 -33.65 65.1 M-21.45 44.1 L-22.65 42.05 -20.9 38.45 -20.9 36.05 Q-19.6 35.3 -18.1 34.9 -14.25 33.8 -9.15 35.0 L-2.1 38.3 1.05 42.5 1.9 46.35 Q2.9 50.9 7.05 50.9 L1.5 51.15 -2.55 48.75 Q-4.2 47.35 -4.45 45.55 L-7.5 43.95 -12.0 43.2 -12.3 43.15 -21.4 44.45 -21.45 44.1 Q-19.9 40.95 -4.8 43.05 -19.9 40.95 -21.45 44.1 M10.5 -57.1 L13.0 -60.2 14.65 -62.9 13.0 -60.2 10.5 -57.1 M13.55 -38.5 L13.2 -37.85 13.3 -37.8 13.55 -38.5 M9.35 -45.25 L9.3 -45.25 7.35 -44.5 Q-6.3 -45.15 -15.0 -48.8 -1.3 -48.2 6.95 -54.05 L6.95 -46.85 Q8.85 -46.6 9.3 -45.25 L9.35 -45.25 M13.2 -37.85 Q11.25 -34.3 8.9 -31.6 11.25 -34.3 13.2 -37.85 M-17.7 -50.05 L-14.95 -47.4 Q-5.25 -43.4 2.65 -42.8 L7.4 -42.8 9.05 -43.2 7.35 -39.8 6.15 -29.9 Q-5.05 -25.45 -20.05 -37.25 L-20.85 -38.95 -15.55 -35.45 -5.3 -32.9 -15.1 -37.2 -20.75 -43.05 -23.0 -52.2 -25.2 -55.85 Q-22.3 -52.45 -17.7 -50.05 M12.9 -19.85 Q11.45 -17.6 9.55 -16.05 11.45 -17.6 12.9 -19.85 M11.85 -8.3 L9.35 -5.75 11.85 -8.3 M8.65 -5.2 L7.35 -1.2 8.8 2.4 7.6 3.1 6.05 0.1 7.25 -4.15 8.05 -4.75 7.25 -4.15 6.05 0.1 7.6 3.1 8.8 2.4 7.35 -1.2 8.65 -5.2 M7.25 -4.15 Q5.45 -3.0 3.45 -2.2 5.45 -3.0 7.25 -4.15 M8.0 8.05 L7.35 9.75 9.05 15.55 8.85 16.1 8.8 16.15 7.25 16.75 7.55 15.75 5.65 9.95 6.2 8.3 8.0 8.05 M7.6 3.1 L6.65 3.6 7.6 3.1 M-15.35 -1.85 Q-6.95 0.3 -0.35 -1.05 -6.95 0.3 -15.35 -1.85 M-21.15 67.35 L-27.1 63.4 Q-29.15 62.5 -30.65 62.55 -29.15 62.5 -27.1 63.4 L-21.15 67.35" fill="#af0000" fill-rule="evenodd" stroke="none"/>
    <path d="M8.8 -84.95 Q13.2 -86.4 16.55 -85.45 17.8 -83.35 11.25 -84.25 L10.55 -84.35 8.8 -84.95" fill="url(#gradient5)" fill-rule="evenodd" stroke="none"/>
    <path d="M5.55 -61.15 L7.9 -62.6 8.2 -61.65 Q10.55 -59.35 10.5 -57.1 L8.9 -55.55 8.2 -55.0 Q8.5 -58.4 5.85 -59.5 L5.55 -61.15 M10.75 -46.45 L11.6 -44.7 11.2 -43.8 9.05 -43.2 9.45 -44.05 9.3 -45.25 9.35 -45.25 10.75 -46.45 M8.7 -18.75 L9.55 -16.05 8.2 -15.15 7.25 -17.3 8.7 -18.75 M6.35 -13.15 Q7.65 -14.1 8.1 -15.05 L7.8 -12.25 6.35 -10.95 6.35 -13.15 M8.05 -8.5 L9.35 -5.75 8.65 -5.2 8.05 -4.75 6.75 -7.8 8.05 -8.5 M8.65 6.4 L8.0 8.05 6.2 8.3 6.75 6.7 8.65 6.4 M6.25 24.1 L8.45 23.9 8.65 24.0 Q10.3 24.65 8.5 27.8 L7.45 28.45 7.25 27.7 7.55 26.7 Q8.65 25.4 6.25 24.1 M7.25 30.6 Q8.5 30.65 8.2 32.35 L6.9 33.0 Q7.35 31.25 5.2 31.15 L5.95 30.95 7.25 30.6" fill="#cc3300" fill-rule="evenodd" stroke="none"/>
    <path d="M13.45 54.8 Q13.0 58.55 11.0 62.65 10.2 63.85 8.85 64.5 L10.25 57.5 Q11.95 56.45 13.45 54.8 M-42.15 94.6 Q-48.15 93.95 -47.7 88.55 -47.5 89.5 -47.1 90.1 -46.4 91.0 -45.15 91.15 L-44.0 91.25 -41.35 91.35 -42.15 94.6" fill="#7e542c" fill-rule="evenodd" stroke="none"/>
    <path d="M-26.55 54.5 L-26.55 52.05 -25.75 51.55 -25.4 52.15 -25.95 53.3 -26.55 54.5" fill="url(#gradient6)" fill-rule="evenodd" stroke="none"/>
    <path d="M-47.1 90.1 Q-44.2 82.9 -41.3 78.55 L-42.15 77.05 -32.05 68.25 -34.2 79.6 -38.7 79.6 Q-42.15 84.55 -44.0 91.25 L-45.15 91.15 Q-46.4 91.0 -47.1 90.1" fill="#453218" fill-rule="evenodd" stroke="none"/>
    <path d="M5.5 -86.25 L16.55 -87.35 Q19.45 -87.35 20.85 -85.8 L21.25 -85.25 Q20.95 -79.35 19.75 -78.15 L18.85 -77.8 19.85 -81.7 Q20.3 -84.55 19.85 -84.65 L15.25 -82.9 Q12.8 -82.3 10.3 -82.9 -0.15 -86.65 -9.65 -92.75 -9.9 -89.9 -11.8 -87.1 L-13.9 -87.1 -13.4 -87.9 -18.65 -89.45 -18.9 -90.6 -12.8 -88.9 Q-11.6 -91.25 -11.3 -93.6 L-9.8 -94.45 Q-1.4 -89.15 5.5 -86.25 L8.8 -84.95 5.5 -86.25 M16.55 -85.45 Q13.2 -86.4 8.8 -84.95 L10.55 -84.35 11.25 -84.25 Q17.8 -83.35 16.55 -85.45 M5.5 -74.8 L7.45 -74.2 Q6.5 -67.45 7.9 -62.6 L5.55 -61.15 Q4.55 -66.7 5.45 -74.75 L5.5 -74.8 M10.6 22.8 L12.5 24.75 10.35 28.8 10.35 34.8 10.35 36.5 9.45 37.55 9.7 31.45 8.2 32.35 Q8.5 30.65 7.25 30.6 L7.95 30.35 9.3 29.85 11.25 25.2 9.7 26.85 8.5 27.8 Q10.3 24.65 8.65 24.0 L8.75 23.75 10.6 22.8 M12.55 47.25 Q13.85 50.85 13.45 54.8 11.95 56.45 10.25 57.5 10.95 50.95 9.1 48.25 L12.55 47.25 M6.6 65.2 L5.65 66.95 3.95 68.4 3.5 70.35 0.95 70.35 2.0 68.85 2.35 67.25 2.4 67.1 2.35 67.25 1.45 66.6 Q-2.7 71.7 -5.25 80.2 -18.05 92.0 -41.35 91.35 -38.65 87.1 -31.5 85.6 -17.75 81.1 -21.95 72.6 L-25.5 69.65 Q-23.55 71.15 -18.15 72.25 L-9.4 69.85 -12.35 69.7 Q-17.5 71.5 -24.55 68.85 -29.1 64.2 -32.5 65.65 L-34.0 66.7 -34.65 67.2 -33.65 65.1 Q-31.6 63.35 -29.0 64.25 L-21.75 68.2 Q-15.15 70.4 -11.7 67.5 -8.95 63.65 -9.0 60.9 -9.15 58.6 -10.6 56.5 L1.55 66.45 1.45 66.6 1.55 66.45 2.4 67.1 Q2.5 66.4 0.55 64.8 1.9 66.0 1.55 66.45 L-1.45 63.3 0.55 64.8 -1.45 63.3 -11.05 53.2 Q-15.45 50.8 -21.35 50.85 L-25.4 52.15 -25.75 51.55 -26.55 52.05 -26.55 51.05 Q-25.75 50.25 -23.95 49.55 -23.15 46.3 -21.75 44.5 L-21.4 44.45 -12.3 43.15 -12.0 43.2 -7.5 43.95 -4.45 45.55 Q-4.2 47.35 -2.55 48.75 L1.5 51.15 7.05 50.9 Q2.9 50.9 1.9 46.35 L1.05 42.5 -2.1 38.3 Q-1.85 37.85 1.45 41.6 4.7 45.3 6.7 45.3 8.6 45.3 8.85 44.15 L8.1 47.45 7.65 48.0 6.6 49.05 7.05 50.9 Q8.05 55.1 7.95 58.65 7.8 62.25 6.6 65.2 M-19.65 32.2 L-18.7 30.85 -15.0 33.3 -19.65 32.2 M-20.1 26.0 L-17.5 23.0 -17.5 11.85 -19.85 8.0 -16.85 2.85 -18.15 0.1 -17.1 -2.7 -18.35 -12.55 -16.75 -11.1 -12.9 -8.1 Q-5.3 -2.85 3.45 -2.2 1.6 -1.45 -0.35 -1.05 L-7.0 -2.35 -15.65 -6.75 -15.7 -6.95 -15.7 -6.75 -15.35 -1.85 -16.8 -1.25 -16.0 0.5 Q-11.0 4.2 -5.5 5.8 0.35 7.45 6.75 6.7 L6.2 8.3 5.65 9.95 7.55 15.75 7.25 16.75 -4.35 18.3 Q-9.25 16.35 -16.15 9.65 -10.45 16.95 -4.2 21.1 0.55 24.25 4.6 24.25 L4.85 23.6 6.25 24.1 Q8.65 25.4 7.55 26.7 L7.25 27.7 7.45 28.45 6.95 28.7 5.9 29.2 Q-0.85 32.05 -12.15 29.55 -4.45 33.65 5.2 31.15 7.35 31.25 6.9 33.0 L6.45 33.25 0.05 34.3 Q-6.2 34.5 -12.0 31.35 L-20.1 26.0 M-20.3 -16.2 L-18.8 -19.45 -18.8 -21.35 -20.75 -24.55 -19.45 -26.5 -21.35 -35.3 -24.6 -39.8 -22.25 -43.4 -24.8 -52.65 -28.85 -57.35 -26.5 -61.65 -31.6 -82.75 -30.15 -82.9 -29.7 -81.25 -24.75 -61.2 Q-21.85 -57.8 -18.75 -56.4 -12.5 -53.9 -6.6 -56.4 L2.45 -59.3 5.55 -61.15 5.85 -59.5 Q8.5 -58.4 8.2 -55.0 L6.95 -54.05 Q-1.3 -48.2 -15.0 -48.8 -6.3 -45.15 7.35 -44.5 L9.3 -45.25 9.45 -44.05 9.05 -43.2 11.2 -43.8 9.9 -40.85 8.9 -31.6 8.4 -31.0 6.15 -29.9 7.35 -39.8 9.05 -43.2 7.4 -42.8 2.65 -42.8 Q-5.25 -43.4 -14.95 -47.4 L-17.7 -50.05 -15.0 -48.8 -17.7 -50.05 Q-22.3 -52.45 -25.2 -55.85 L-23.0 -52.2 -20.75 -43.05 -15.1 -37.2 -5.3 -32.9 -15.55 -35.45 -20.85 -38.95 -20.05 -37.25 -21.8 -38.7 -20.2 -36.1 -18.05 -26.85 -12.45 -23.95 -17.95 -25.2 -12.45 -23.95 Q-1.25 -22.4 6.45 -29.1 L7.7 -30.25 9.7 -27.55 Q10.85 -24.2 8.0 -20.9 L8.7 -18.75 7.25 -17.3 6.05 -20.05 Q8.8 -25.0 7.75 -26.9 L6.45 -29.1 7.75 -26.9 Q8.8 -25.0 6.05 -20.05 L7.25 -17.3 8.2 -15.15 8.1 -15.05 Q6.55 -14.15 4.75 -13.65 L4.45 -13.6 Q2.9 -11.7 -3.15 -11.35 L-14.2 -14.65 -17.4 -17.9 -18.05 -19.25 -18.1 -19.35 -18.15 -19.2 -18.8 -19.45 -18.8 -17.5 -16.85 -14.05 Q-7.9 -9.7 0.3 -10.2 4.35 -11.65 6.35 -13.15 L6.35 -10.95 -0.35 -8.1 Q-9.05 -8.65 -17.2 -12.6 L-20.3 -16.2 M-34.35 -88.55 L-34.25 -89.95 Q-32.3 -91.0 -30.4 -92.1 L-26.5 -91.15 Q-24.5 -92.3 -22.0 -94.0 -20.45 -95.25 -19.65 -94.0 L-18.9 -90.6 -18.65 -89.45 -18.15 -87.75 -18.6 -87.45 -19.8 -87.9 -20.5 -92.15 Q-21.15 -93.3 -29.6 -88.25 -32.3 -87.35 -34.35 -88.55 M-14.1 -17.05 Q-5.05 -12.85 1.45 -13.15 L4.45 -13.6 1.45 -13.15 Q-5.05 -12.85 -14.1 -17.05 M10.6 3.7 L10.6 4.7 9.35 7.0 9.35 9.6 10.25 13.25 11.35 14.45 9.25 15.85 9.05 15.55 7.35 9.75 8.0 8.05 8.65 6.4 9.2 5.95 Q10.25 4.8 10.2 3.7 L10.6 3.7 M-1.95 5.55 Q3.35 5.0 6.65 3.6 7.9 3.95 7.75 4.9 L0.35 6.3 -1.95 5.55 M8.95 41.0 Q9.15 42.05 8.85 44.0 L7.45 37.85 8.85 44.0 Q6.25 36.1 6.85 36.6 L7.45 37.85 8.75 40.4 8.95 41.0 M-12.8 -88.9 L-13.4 -87.9 -12.8 -88.9 M-28.25 -90.25 L-26.5 -91.15 -28.25 -90.25 -30.8 -90.6 -32.55 -89.1 Q-31.1 -88.9 -28.25 -90.25 M-17.1 8.4 L-16.15 9.65 -17.1 8.4 M-18.15 25.1 Q-15.3 27.85 -12.15 29.55 -15.3 27.85 -18.15 25.1 M-10.8 46.55 L-16.25 47.5 Q-21.25 48.45 -23.95 49.55 -21.25 48.45 -16.25 47.5 L-10.8 46.55 M-3.1 54.3 Q-0.4 56.9 3.25 57.2 -0.4 56.9 -3.1 54.3" fill="#d20202" fill-rule="evenodd" stroke="none"/>
    <path d="M-17.75 29.5 L-18.8 28.8 -20.1 26.0 -12.0 31.35 Q-6.2 34.5 0.05 34.3 L6.45 33.25 6.85 33.2 6.55 33.85 7.05 36.05 6.85 36.6 Q6.25 36.1 8.85 44.0 L8.85 44.15 Q8.6 45.3 6.7 45.3 4.7 45.3 1.45 41.6 -1.85 37.85 -2.1 38.3 L-9.15 35.0 -17.75 29.5 M6.15 -29.9 L8.4 -31.0 7.7 -30.25 6.45 -29.1 Q-1.25 -22.4 -12.45 -23.95 L-18.05 -26.85 -20.2 -36.1 -21.8 -38.7 -20.05 -37.25 Q-5.05 -25.45 6.15 -29.9 M-18.05 -19.25 L-17.4 -17.9 -14.2 -14.65 -3.15 -11.35 Q2.9 -11.7 4.45 -13.6 L4.75 -13.65 Q6.55 -14.15 8.1 -15.05 7.65 -14.1 6.35 -13.15 4.35 -11.65 0.3 -10.2 -7.9 -9.7 -16.85 -14.05 L-18.8 -17.5 -18.75 -17.45 -18.75 -17.5 -18.15 -19.2 -18.05 -19.25 M7.25 16.75 L6.45 19.3 Q3.0 21.0 -1.75 21.1 L-1.8 21.1 -4.2 21.1 Q-10.45 16.95 -16.15 9.65 -9.25 16.35 -4.35 18.3 L7.25 16.75 M7.05 50.9 L9.1 48.25 Q10.95 50.95 10.25 57.5 L7.95 58.65 Q8.05 55.1 7.05 50.9 M-1.45 63.3 L1.55 66.45 -10.6 56.5 Q-13.1 54.35 -18.95 53.3 -22.3 52.7 -25.95 53.3 L-25.4 52.15 -21.35 50.85 Q-15.45 50.8 -11.05 53.2 L-1.45 63.3 M-13.05 -81.35 L-12.65 -84.7 -11.3 -82.4 -12.95 -74.35 Q-14.7 -68.4 -16.85 -68.95 L-20.45 -84.8 -19.75 -85.75 -18.9 -82.45 -16.25 -72.15 Q-13.95 -76.15 -13.05 -81.35 M-25.5 69.65 L-29.1 66.7 -34.0 66.7 -32.5 65.65 Q-29.1 64.2 -24.55 68.85 -17.5 71.5 -12.35 69.7 L-9.4 69.85 -18.15 72.25 Q-23.55 71.15 -25.5 69.65" fill="#980101" fill-rule="evenodd" stroke="none"/>
    <path d="M8.0 -77.2 L5.85 -77.95 Q-3.3 -81.45 -10.9 -86.1 L-12.6 -86.1 -12.65 -84.7 -13.9 -87.1 -11.8 -87.1 Q-9.9 -89.9 -9.65 -92.75 -0.15 -86.65 10.3 -82.9 12.8 -82.3 15.25 -82.9 L19.85 -84.65 Q20.3 -84.55 19.85 -81.7 L18.85 -77.8 17.65 -77.4 15.85 -76.9 10.5 -76.3 8.0 -77.2" fill="#ffcc00" fill-rule="evenodd" stroke="none"/>
    <path d="M-31.6 -82.75 Q-32.6 -82.75 -32.95 -83.3 -34.4 -85.9 -34.35 -88.55 -32.3 -87.35 -29.6 -88.25 -21.15 -93.3 -20.5 -92.15 L-19.8 -87.9 -18.6 -87.45 Q-19.35 -87.05 -20.05 -86.9 -23.3 -86.3 -26.55 -84.15 -28.7 -83.25 -30.15 -82.9 L-31.6 -82.75" fill="#ff9900" fill-rule="evenodd" stroke="none"/>
    <path d="M18.85 -77.8 L19.75 -78.15 Q20.95 -79.35 21.25 -85.25 L20.85 -85.8 Q19.45 -87.35 16.55 -87.35 L5.5 -86.25 8.8 -84.95 10.55 -84.35 11.25 -84.25 Q17.8 -83.35 16.55 -85.45 M5.85 -77.95 L8.0 -77.2 10.5 -76.3 15.85 -76.9 17.65 -77.4 18.85 -77.8 M-13.9 -87.1 L-12.65 -84.7 -12.6 -86.1 -10.9 -86.1 Q-3.3 -81.45 5.85 -77.95 L5.45 -74.8 5.45 -74.75 Q4.55 -66.7 5.55 -61.15 L5.85 -59.5 Q8.5 -58.4 8.2 -55.0 L8.9 -55.55 10.5 -57.1 Q10.55 -59.35 8.2 -61.65 L7.9 -62.6 Q6.5 -67.45 7.45 -74.2 L8.0 -77.2 M17.65 -77.4 L15.05 -66.55 16.55 -64.0 13.35 -58.45 13.35 -40.65 15.25 -37.65 12.7 -33.55 12.7 -27.55 11.65 -25.45 14.4 -21.8 14.4 -19.65 11.85 -16.0 11.85 -11.5 13.15 -8.05 10.6 -4.85 10.6 -0.35 12.3 2.25 11.0 5.45 10.15 8.85 11.0 12.3 12.95 14.45 10.85 18.55 10.6 18.95 10.6 22.8 12.5 24.75 10.35 28.8 10.35 34.8 12.1 35.85 12.1 38.85 13.15 42.5 12.75 43.4 11.45 44.9 12.55 47.25 Q13.85 50.85 13.45 54.8 13.0 58.55 11.0 62.65 10.2 63.85 8.85 64.5 L6.6 65.2 5.65 66.95 3.95 68.4 3.5 70.35 0.95 70.35 Q-1.4 74.4 -2.35 79.95 L-2.7 80.55 Q-11.7 94.9 -42.15 94.6 -48.15 93.95 -47.7 88.55 -44.25 74.55 -34.65 67.2 L-33.65 65.1 -32.7 63.05 Q-31.85 62.5 -30.65 62.55 L-26.55 54.5 -26.55 52.05 -26.55 51.05 Q-25.75 50.25 -23.95 49.55 -23.15 46.3 -21.75 44.5 L-21.45 44.1 -22.65 42.05 -20.9 38.45 -20.9 36.05 Q-19.6 35.3 -18.1 34.9 L-19.65 32.2 -18.7 30.85 -17.75 29.5 -18.8 28.8 -20.1 26.0 -17.5 23.0 -17.5 11.85 -19.85 8.0 -16.85 2.85 -18.15 0.1 -17.1 -2.7 -18.35 -12.55 -20.3 -16.2 -18.8 -19.45 -18.8 -21.35 -20.75 -24.55 -19.45 -26.5 -21.35 -35.3 -24.6 -39.8 -22.25 -43.4 -24.8 -52.65 -28.85 -57.35 -26.5 -61.65 -31.6 -82.75 Q-32.6 -82.75 -32.95 -83.3 -34.4 -85.9 -34.35 -88.55 L-34.25 -89.95 Q-32.3 -91.0 -30.4 -92.1 L-26.5 -91.15 Q-24.5 -92.3 -22.0 -94.0 -20.45 -95.25 -19.65 -94.0 L-18.9 -90.6 -12.8 -88.9 Q-11.6 -91.25 -11.3 -93.6 L-9.8 -94.45 Q-1.4 -89.15 5.5 -86.25 M-30.15 -82.9 L-31.6 -82.75 M6.95 -54.05 L8.2 -55.0 M14.65 -62.9 L13.0 -60.2 10.5 -57.1 M13.55 -38.5 L13.2 -37.85 Q11.25 -34.3 8.9 -31.6 L9.9 -40.85 11.2 -43.8 11.6 -44.7 10.75 -46.45 Q10.1 -47.25 9.05 -47.9 L8.9 -55.55 M9.3 -45.25 L9.45 -44.05 9.05 -43.2 7.35 -39.8 6.15 -29.9 8.4 -31.0 8.9 -31.6 M7.35 -44.5 Q-6.3 -45.15 -15.0 -48.8 L-17.7 -50.05 Q-22.3 -52.45 -25.2 -55.85 M6.95 -54.05 L6.95 -46.85 Q8.85 -46.6 9.3 -45.25 M8.4 -31.0 L7.7 -30.25 9.7 -27.55 Q10.85 -24.2 8.0 -20.9 L8.7 -18.75 9.55 -16.05 Q11.45 -17.6 12.9 -19.85 M7.7 -30.25 L6.45 -29.1 7.75 -26.9 Q8.8 -25.0 6.05 -20.05 L7.25 -17.3 8.2 -15.15 9.55 -16.05 M4.45 -13.6 L1.45 -13.15 Q-5.05 -12.85 -14.1 -17.05 M-18.8 -17.5 L-16.85 -14.05 Q-7.9 -9.7 0.3 -10.2 4.35 -11.65 6.35 -13.15 7.65 -14.1 8.1 -15.05 6.55 -14.15 4.75 -13.65 M8.2 -15.15 L8.1 -15.05 7.8 -12.25 7.55 -9.55 8.05 -8.5 9.35 -5.75 11.85 -8.3 M6.35 -10.95 L6.35 -8.7 6.75 -7.8 8.05 -4.75 7.25 -4.15 6.05 0.1 7.6 3.1 8.8 2.4 7.35 -1.2 8.65 -5.2 8.05 -4.75 M8.65 -5.2 L9.35 -5.75 M3.45 -2.2 Q5.45 -3.0 7.25 -4.15 M6.35 -13.15 L6.35 -10.95 M11.2 15.5 Q9.75 17.3 7.85 18.55 L8.95 20.1 9.5 20.9 9.65 21.65 Q9.75 23.15 8.75 23.75 M8.8 2.4 L9.3 2.0 Q10.1 2.85 10.2 3.7 10.25 4.8 9.2 5.95 L8.65 6.4 8.0 8.05 7.35 9.75 9.05 15.55 8.85 16.1 8.8 16.15 7.85 18.55 7.15 18.9 7.9 20.65 8.25 21.55 8.25 22.35 Q8.0 23.8 6.25 24.1 8.65 25.4 7.55 26.7 L7.25 27.7 7.45 28.45 8.5 27.8 Q10.3 24.65 8.65 24.0 L8.45 23.9 M6.65 3.6 L7.6 3.1 M7.75 4.9 Q7.9 3.95 6.65 3.6 3.35 5.0 -1.95 5.55 L-5.5 5.8 Q-11.0 4.2 -16.0 0.5 M7.75 4.9 Q7.65 5.6 6.75 6.7 L8.65 6.4 M7.25 16.75 L7.55 15.75 5.65 9.95 6.2 8.3 6.75 6.7 Q0.35 7.45 -5.5 5.8 M-0.35 -1.05 Q1.6 -1.45 3.45 -2.2 -5.3 -2.85 -12.9 -8.1 L-16.75 -11.1 -18.35 -12.55 M7.25 16.75 L6.45 19.3 7.15 18.9 M-1.8 21.1 L-4.2 21.1 Q0.55 24.25 4.6 24.25 M9.45 37.55 L10.35 36.5 10.35 34.8 M8.5 27.8 L9.7 26.85 M9.3 29.85 L7.95 30.35 7.25 30.6 Q8.5 30.65 8.2 32.35 L7.9 33.4 7.05 36.05 7.45 37.85 8.75 40.4 8.95 41.0 Q9.15 42.05 8.85 44.0 L8.85 44.15 8.1 47.45 9.05 45.65 Q10.45 45.65 11.45 44.9 M5.9 29.2 L6.95 28.7 7.45 28.45 Q9.85 28.1 7.95 30.35 M6.9 33.0 L6.85 33.2 6.55 33.85 7.05 36.05 6.85 36.6 7.45 37.85 8.85 44.0 Q6.25 36.1 6.85 36.6 M5.2 31.15 L5.95 30.95 Q7.6 29.65 5.9 29.2 -0.85 32.05 -12.15 29.55 -4.45 33.65 5.2 31.15 7.35 31.25 6.9 33.0 M5.95 30.95 L7.25 30.6 M8.1 47.45 L7.65 48.0 6.6 49.05 7.05 50.9 Q8.05 55.1 7.95 58.65 L10.25 57.5 Q11.95 56.45 13.45 54.8 M-2.1 38.3 Q-1.85 37.85 1.45 41.6 4.7 45.3 6.7 45.3 8.6 45.3 8.85 44.15 M-2.1 38.3 L1.05 42.5 1.9 46.35 Q2.9 50.9 7.05 50.9 M2.4 67.1 L2.35 67.25 2.0 68.85 0.95 70.35 M1.55 66.45 Q1.9 66.0 0.55 64.8 L-1.45 63.3 1.55 66.45 1.45 66.6 Q-2.7 71.7 -5.25 80.2 -18.05 92.0 -41.35 91.35 L-44.0 91.25 -45.15 91.15 Q-46.4 91.0 -47.1 90.1 -47.5 89.5 -47.7 88.55 M2.4 67.1 Q2.5 66.4 0.55 64.8 M7.95 58.65 Q7.8 62.25 6.6 65.2 M-18.65 -89.45 L-18.9 -90.6 M-18.6 -87.45 L-18.15 -87.75 -18.65 -89.45 M-13.4 -87.9 L-12.8 -88.9 M-20.05 -86.9 Q-19.35 -87.05 -18.6 -87.45 M-13.9 -87.1 L-13.4 -87.9 M-13.05 -81.35 L-12.65 -84.7 M-18.9 -82.45 L-13.05 -81.35 Q-13.95 -76.15 -16.25 -72.15 L-18.9 -82.45 -19.75 -85.75 -20.05 -86.9 Q-23.3 -86.3 -26.55 -84.15 -28.7 -83.25 -30.15 -82.9 M-26.5 -91.15 L-28.25 -90.25 Q-31.1 -88.9 -32.55 -89.1 L-30.8 -90.6 M-21.8 -38.7 L-20.05 -37.25 Q-5.05 -25.45 6.15 -29.9 M-18.8 -19.45 L-18.8 -17.5 M-0.35 -1.05 Q-6.95 0.3 -15.35 -1.85 M-17.95 -25.2 L-12.45 -23.95 Q-1.25 -22.4 6.45 -29.1 M-16.15 9.65 L-17.1 8.4 M-4.2 21.1 Q-10.45 16.95 -16.15 9.65 M-12.15 29.55 Q-15.3 27.85 -18.15 25.1 M-23.95 49.55 Q-21.25 48.45 -16.25 47.5 L-10.8 46.55 M-9.15 35.0 Q-14.25 33.8 -18.1 34.9 M-17.75 29.5 L-9.15 35.0 -2.1 38.3 M-4.8 43.05 Q-19.9 40.95 -21.45 44.1 M-47.1 90.1 Q-44.2 82.9 -41.3 78.55 L-42.15 77.05 -32.05 68.25 -34.2 79.6 -38.7 79.6 Q-42.15 84.55 -44.0 91.25 M-34.0 66.7 L-34.65 67.2 M-1.45 63.3 L-11.05 53.2 Q-15.45 50.8 -21.35 50.85 L-25.4 52.15 -25.95 53.3 -26.55 54.5 M-34.0 66.7 L-32.5 65.65 Q-29.1 64.2 -24.55 68.85 -17.5 71.5 -12.35 69.7 M-30.65 62.55 Q-29.15 62.5 -27.1 63.4 L-21.15 67.35 M3.25 57.2 Q-0.4 56.9 -3.1 54.3 M-1.75 21.1 Q3.0 21.0 6.45 19.3 M-15.0 -48.8 Q-1.3 -48.2 6.95 -54.05" fill="none" stroke="#000000" stroke-linecap="round" stroke-linejoin="round" stroke-opacity="0.4" stroke-width="0.5"/>
    <path d="M15.5 -65.8 L15.05 -66.55 17.65 -77.4 18.85 -77.8 19.75 -78.15 Q20.95 -79.35 21.25 -85.25 L20.85 -85.8 Q19.45 -87.35 16.55 -87.35 L5.5 -86.25 Q-1.4 -89.15 -9.8 -94.45 L-11.3 -93.6 Q-11.6 -91.25 -12.8 -88.9 L-18.9 -90.6 -19.65 -94.0 Q-20.45 -95.25 -22.0 -94.0 -24.5 -92.3 -26.5 -91.15 L-30.4 -92.1 Q-32.3 -91.0 -34.25 -89.95 L-34.35 -88.55 Q-34.4 -85.9 -32.95 -83.3 -32.6 -82.75 -31.6 -82.75 L-26.5 -61.65 -28.85 -57.35 -24.8 -52.65 -22.25 -43.4 -24.6 -39.8 -21.35 -35.3 -19.45 -26.5 -20.75 -24.55 -18.8 -21.35 -18.8 -19.45 -20.3 -16.2 -18.35 -12.55 -17.1 -2.7 -18.15 0.1 -16.85 2.85 -19.85 8.0 -17.5 11.85 -17.5 23.0 -20.1 26.0 -18.8 28.8 -17.75 29.5 -19.65 32.2 -18.1 34.9 Q-19.6 35.3 -20.9 36.05 L-20.9 38.45 -22.65 42.05 -21.45 44.1 -21.75 44.5 Q-23.15 46.3 -23.95 49.55 -25.75 50.25 -26.55 51.05 L-26.55 54.5 -30.65 62.55 Q-31.85 62.5 -32.7 63.05 L-34.65 67.2 Q-44.25 74.55 -47.7 88.55 -48.15 93.95 -42.15 94.6 -11.7 94.9 -2.7 80.55 L-2.35 79.95 Q-1.4 74.4 0.95 70.35 L3.95 68.4 5.65 66.95 6.6 65.2 8.85 64.5 Q10.2 63.85 11.0 62.65 13.0 58.55 13.45 54.8 13.85 50.85 12.55 47.25 L11.45 44.9 12.75 43.4 13.15 42.5 12.1 38.85 12.1 35.85 10.35 34.8 10.35 28.8 12.5 24.75 10.6 22.8 10.6 18.95 12.95 14.45 11.0 12.3 10.15 8.85 11.0 5.45 12.3 2.25 10.6 -0.35 10.6 -4.85 13.15 -8.05 11.85 -11.5 11.85 -16.0 14.4 -19.65 14.4 -21.8 11.65 -25.45 12.7 -27.55 12.7 -28.65" fill="none" stroke="#000000" stroke-linecap="round" stroke-linejoin="round" stroke-opacity="0.21176471" stroke-width="0.45"/>
  </g>
  <defs>
    <linearGradient gradientTransform="matrix(0.0045, 0.0, 0.0, 0.0049, -16.35, -85.4)" gradientUnits="userSpaceOnUse" id="gradient0" spreadMethod="pad" x1="-819.2" x2="819.2">
      <stop offset="0.0" stop-color="#16150c"/>
      <stop offset="0.9882352941176471" stop-color="#494825"/>
    </linearGradient>
    <linearGradient gradientTransform="matrix(0.0176, 0.0013, -0.0013, 0.0177, -6.2, -69.2)" gradientUnits="userSpaceOnUse" id="gradient1" spreadMethod="pad" x1="-819.2" x2="819.2">
      <stop offset="0.0" stop-color="#8d5c00"/>
      <stop offset="0.9882352941176471" stop-color="#653d01"/>
    </linearGradient>
    <linearGradient gradientTransform="matrix(0.0026, 0.0, 0.0, 9.0E-4, -30.4, -89.85)" gradientUnits="userSpaceOnUse" id="gradient2" spreadMethod="pad" x1="-819.2" x2="819.2">
      <stop offset="0.0" stop-color="#16150c"/>
      <stop offset="0.9882352941176471" stop-color="#494825"/>
    </linearGradient>
    <linearGradient gradientTransform="matrix(-0.015, 0.0, 0.0, -0.0437, -13.75, -47.1)" gradientUnits="userSpaceOnUse" id="gradient3" spreadMethod="pad" x1="-819.2" x2="819.2">
      <stop offset="0.0" stop-color="#c68600"/>
      <stop offset="0.9882352941176471" stop-color="#d9a302"/>
    </linearGradient>
    <linearGradient gradientTransform="matrix(-0.0061, -0.0035, 0.004, -0.007, -11.55, -18.65)" gradientUnits="userSpaceOnUse" id="gradient4" spreadMethod="pad" x1="-819.2" x2="819.2">
      <stop offset="0.0" stop-color="#3c2300"/>
      <stop offset="0.9725490196078431" stop-color="#5c3b00"/>
    </linearGradient>
    <linearGradient gradientTransform="matrix(0.0049, 0.0, 0.0, 0.0011, 12.75, -84.95)" gradientUnits="userSpaceOnUse" id="gradient5" spreadMethod="pad" x1="-819.2" x2="819.2">
      <stop offset="0.0" stop-color="#16150c"/>
      <stop offset="0.9882352941176471" stop-color="#494825"/>
    </linearGradient>
    <linearGradient gradientTransform="matrix(0.0124, 0.005, -0.013, 0.032, -12.75, 72.3)" gradientUnits="userSpaceOnUse" id="gradient6" spreadMethod="pad" x1="-819.2" x2="819.2">
      <stop offset="0.0" stop-color="#8d5c00"/>
      <stop offset="0.9882352941176471" stop-color="#653d01"/>
    </linearGradient>
  </defs>
</svg>
