<?xml version="1.0" encoding="UTF-8" standalone="no"?>
<svg xmlns:xlink="http://www.w3.org/1999/xlink" height="72.0px" width="112.05px" xmlns="http://www.w3.org/2000/svg">
  <g transform="matrix(1.0, 0.0, 0.0, 1.0, -227.85, -171.9)">
    <path d="M311.85 179.65 L316.1 184.15 319.55 193.55 314.5 190.55 311.3 190.2 Q308.0 195.85 300.4 199.05 298.95 196.3 298.15 191.85 L291.3 197.1 295.35 186.25 297.45 183.6 Q301.4 179.6 306.8 178.75 L311.85 179.65" fill="#8c231d" fill-rule="evenodd" stroke="none"/>
    <path d="M295.55 189.6 Q297.2 185.8 298.3 185.6 299.45 185.45 299.2 189.05 L298.2 199.85 Q297.5 207.0 302.75 210.25 308.05 213.5 300.9 218.5 293.65 223.55 292.3 214.05 290.9 204.45 292.25 198.9 293.65 193.35 295.55 189.6" fill="#961f1f" fill-rule="evenodd" stroke="none"/>
    <path d="M310.8 188.45 L310.65 187.9 311.0 187.4 311.6 187.3 Q311.85 187.3 312.05 187.6 L312.2 188.1 311.85 188.65 311.3 188.8 310.8 188.45 M310.45 202.55 Q310.95 202.6 311.15 202.95 311.45 203.4 311.35 203.85 L310.9 204.65 310.05 204.85 309.25 204.3 Q309.05 203.9 309.15 203.5 309.2 203.0 309.6 202.75 309.95 202.45 310.45 202.55 M312.3 214.6 Q313.15 214.75 313.6 215.55 314.0 216.35 313.75 217.4 313.55 218.25 312.8 218.9 312.05 219.45 311.2 219.3 310.35 219.0 309.95 218.2 309.5 217.45 309.7 216.5 309.95 215.5 310.7 215.0 311.45 214.4 312.3 214.6 M316.0 213.7 Q316.0 213.25 316.4 212.95 316.75 212.7 317.25 212.75 L317.95 213.2 Q318.25 213.6 318.15 214.1 L317.7 214.85 316.85 215.05 316.05 214.55 Q315.85 214.15 316.0 213.7 M307.7 219.9 Q307.25 221.65 305.85 222.75 304.45 223.75 302.85 223.45 301.25 223.05 300.45 221.55 299.6 220.1 300.1 218.3 300.5 216.4 302.0 215.45 303.4 214.35 304.95 214.7 306.5 215.05 307.35 216.6 308.15 218.1 307.7 219.9 M298.05 213.45 Q297.45 213.3 297.15 212.9 296.85 212.5 297.05 211.9 297.05 211.45 297.5 211.15 298.0 210.75 298.55 210.8 L299.35 211.4 299.6 212.35 299.05 213.2 298.05 213.45" fill="#771a1a" fill-opacity="0.7019608" fill-rule="evenodd" stroke="none"/>
    <path d="M309.5 206.5 Q311.0 206.75 311.9 208.0 312.75 209.25 312.45 210.85 312.15 212.4 310.8 213.35 309.55 214.25 308.1 214.05 306.5 213.75 305.65 212.55 304.75 211.25 305.15 209.65 305.4 208.15 306.7 207.25 307.95 206.25 309.5 206.5" fill="#4f1111" fill-opacity="0.7019608" fill-rule="evenodd" stroke="none"/>
    <path d="M309.4 206.55 Q309.9 206.5 310.5 206.8 L311.4 207.55 Q311.65 208.05 311.5 208.5 L310.7 209.05 Q310.15 209.05 309.65 208.55 L308.75 207.8 Q308.35 207.55 308.55 207.1 308.8 206.65 309.4 206.55 M311.3 209.8 L311.9 209.9 Q312.1 210.2 311.95 210.6 L311.55 211.4 310.7 211.75 Q310.3 211.85 310.25 211.35 L310.15 210.75 Q310.05 210.45 310.45 210.15 310.85 209.85 311.3 209.8" fill="#ea9999" fill-opacity="0.7019608" fill-rule="evenodd" stroke="none"/>
    <path d="M298.3 185.2 Q299.2 185.05 299.25 187.05 299.25 189.05 298.3 192.2 297.4 195.2 296.05 197.4 294.8 199.6 293.9 199.75 292.95 199.9 292.9 197.9 292.9 195.8 293.8 192.8 294.65 189.75 295.95 187.55 297.3 185.3 298.3 185.2 M294.15 212.4 Q293.65 214.2 292.85 214.9 292.1 215.4 291.55 214.4 290.95 213.25 290.95 211.2 290.85 209.0 291.3 207.2 291.8 205.3 292.65 204.7 293.35 204.2 293.95 205.3 294.5 206.35 294.6 208.5 294.65 210.6 294.15 212.4" fill="#ffffff" fill-opacity="0.6" fill-rule="evenodd" stroke="none"/>
    <path d="M319.2 194.4 L320.65 198.3 321.8 203.45 Q322.15 205.85 322.0 206.9 321.85 207.8 321.15 206.55 320.5 205.4 319.8 202.85 319.05 200.15 318.65 197.65 318.25 195.2 318.45 194.25 318.6 193.25 319.2 194.4" fill="#ffffff" fill-opacity="0.6" fill-rule="evenodd" stroke="none"/>
    <path d="M321.35 210.5 L321.4 211.5 321.0 212.8 320.45 213.55 Q320.1 213.7 319.95 213.3 319.8 212.9 319.9 212.25 320.0 211.55 320.35 211.0 L320.9 210.3 Q321.2 210.1 321.35 210.5" fill="#ffffff" fill-opacity="0.6" fill-rule="evenodd" stroke="none"/>
    <path d="M305.65 223.65 Q297.55 224.7 292.25 219.85 289.05 216.9 289.65 202.75 290.1 199.35 292.0 194.35 L295.25 185.8 Q299.15 178.6 307.25 178.05 313.15 177.7 315.25 182.05 318.8 186.1 321.55 200.15 324.8 209.6 319.55 216.6 314.1 222.05 305.75 223.55 L305.7 223.5 305.7 223.6 305.65 223.65" fill="url(#gradient0)" fill-rule="evenodd" stroke="none"/>
    <path d="M305.65 223.65 Q297.55 224.7 292.25 219.85 289.05 216.9 289.65 202.75 290.1 199.35 292.0 194.35 L295.25 185.8 Q299.15 178.6 307.25 178.05 313.15 177.7 315.25 182.05 318.8 186.1 321.55 200.15 324.8 209.6 319.55 216.6 314.1 222.05 305.75 223.55 L305.7 223.5 305.7 223.6" fill="none" stroke="#a14040" stroke-linecap="round" stroke-linejoin="round" stroke-opacity="0.5019608" stroke-width="0.05"/>
    <path d="M313.5 194.65 L312.9 199.4 314.6 206.3 316.2 201.85 317.85 199.9 Q321.9 201.0 327.3 198.4 327.05 196.15 325.8 193.4 L331.55 192.25 325.15 188.9 322.95 188.65 Q319.3 188.8 316.0 191.4 L313.5 194.65" fill="#8c231d" fill-rule="evenodd" stroke="none"/>
    <path d="M326.35 190.75 Q324.0 189.7 323.3 190.2 322.6 190.75 324.1 192.5 L328.8 197.55 Q331.95 200.9 330.3 205.55 328.6 210.25 334.5 208.85 340.45 207.35 337.5 201.65 334.65 195.85 331.75 193.75 328.8 191.6 326.35 190.75" fill="#961f1f" fill-rule="evenodd" stroke="none"/>
    <path d="M317.5 198.7 L317.3 198.35 317.0 198.25 Q316.75 198.25 316.6 198.5 L316.45 198.95 316.6 199.3 317.0 199.4 Q317.2 199.3 317.35 199.15 L317.5 198.7 M323.1 205.85 Q322.85 206.15 322.9 206.45 322.85 206.85 323.1 207.05 L323.65 207.2 324.2 206.85 324.4 206.15 324.15 205.65 323.6 205.5 323.1 205.85 M326.7 213.2 Q326.3 213.75 326.3 214.45 326.4 215.05 326.95 215.45 L328.05 215.7 329.1 215.0 329.35 213.8 Q329.3 213.1 328.8 212.7 328.35 212.35 327.7 212.5 327.1 212.65 326.7 213.2 M324.6 215.3 L324.35 214.8 Q324.15 214.6 323.8 214.65 323.45 214.65 323.25 215.0 L323.0 215.6 Q323.0 216.0 323.25 216.2 L323.8 216.35 324.3 216.0 324.6 215.3 M331.2 213.4 Q332.2 214.05 333.4 213.8 334.55 213.55 335.3 212.55 336.05 211.4 335.9 210.2 335.8 208.9 334.85 208.3 333.9 207.5 332.75 207.85 331.5 208.05 330.8 209.15 330.05 210.15 330.2 211.5 330.3 212.65 331.2 213.4 M334.1 204.6 L334.4 203.8 Q334.4 203.45 334.05 203.25 333.9 203.0 333.5 203.05 L332.85 203.5 Q332.6 203.8 332.6 204.25 L332.85 204.9 333.5 205.05 334.1 204.6" fill="#771a1a" fill-opacity="0.7019608" fill-rule="evenodd" stroke="none"/>
    <path d="M325.15 207.4 Q324.4 208.35 324.4 209.5 324.4 210.6 325.15 211.3 325.95 211.9 327.05 211.7 328.1 211.5 328.8 210.5 329.55 209.5 329.6 208.35 329.55 207.25 328.75 206.6 328.05 205.95 326.95 206.2 325.85 206.4 325.15 207.4" fill="#4f1111" fill-opacity="0.7019608" fill-rule="evenodd" stroke="none"/>
    <path d="M325.9 207.2 L325.2 207.4 Q324.9 207.6 324.7 208.1 L324.5 209.0 Q324.5 209.4 324.8 209.55 L325.45 209.35 325.85 208.55 326.05 207.6 Q326.15 207.3 325.9 207.2 M326.0 209.8 Q325.65 209.9 325.4 210.1 L325.1 210.5 325.3 210.9 325.85 211.1 326.5 210.8 Q326.75 210.6 326.6 210.35 L326.4 209.95 Q326.3 209.75 326.0 209.8" fill="#ea9999" fill-opacity="0.7019608" fill-rule="evenodd" stroke="none"/>
    <path d="M323.2 189.95 Q322.65 190.4 323.4 191.45 324.15 192.5 325.8 193.65 327.5 194.65 329.1 195.1 L331.2 195.05 Q331.8 194.6 331.05 193.55 330.25 192.45 328.55 191.4 326.95 190.3 325.4 189.9 L323.2 189.95 M335.9 201.8 Q336.9 202.5 337.55 202.4 338.2 202.25 338.05 201.4 337.95 200.5 337.2 199.4 336.4 198.2 335.45 197.55 334.45 196.75 333.8 196.95 333.2 197.1 333.3 198.0 333.35 198.85 334.15 200.05 334.95 201.15 335.9 201.8" fill="#ffffff" fill-opacity="0.6" fill-rule="evenodd" stroke="none"/>
    <path d="M315.05 206.4 Q315.15 207.4 315.75 209.25 L317.1 212.6 318.35 214.55 Q318.8 214.9 318.65 213.85 318.6 212.85 318.0 211.15 L316.65 207.85 315.5 205.9 Q315.0 205.45 315.05 206.4" fill="#ffffff" fill-opacity="0.6" fill-rule="evenodd" stroke="none"/>
    <path d="M320.2 216.0 L320.55 216.6 321.25 217.0 321.9 217.05 322.05 216.7 321.7 216.1 321.0 215.7 320.35 215.65 Q320.15 215.75 320.2 216.0" fill="#ffffff" fill-opacity="0.6" fill-rule="evenodd" stroke="none"/>
    <path d="M333.9 214.1 Q338.8 210.05 339.85 204.55 340.5 201.25 334.75 194.2 333.15 192.65 330.25 191.1 L325.15 188.5 Q320.2 186.9 315.5 191.15 312.15 194.3 312.65 197.75 312.25 201.8 316.1 210.7 317.9 217.5 323.55 218.2 328.65 217.95 333.85 214.1 L333.85 214.0 333.85 214.05 333.9 214.1" fill="url(#gradient1)" fill-rule="evenodd" stroke="none"/>
    <path d="M333.9 214.1 Q338.8 210.05 339.85 204.55 340.5 201.25 334.75 194.2 333.15 192.65 330.25 191.1 L325.15 188.5 Q320.2 186.9 315.5 191.15 312.15 194.3 312.65 197.75 312.25 201.8 316.1 210.7 317.9 217.5 323.55 218.2 328.65 217.95 333.85 214.1 L333.85 214.0 333.85 214.05" fill="none" stroke="#a14040" stroke-linecap="round" stroke-linejoin="round" stroke-opacity="0.5019608" stroke-width="0.05"/>
    <path d="M238.85 202.25 L237.85 208.55 239.95 218.35 242.4 212.7 244.85 210.35 Q250.45 212.8 258.25 210.6 257.95 207.45 256.25 203.4 L264.5 203.25 255.6 197.1 252.5 196.25 Q247.3 195.55 242.5 198.35 L238.85 202.25" fill="#8c231d" fill-rule="evenodd" stroke="none"/>
    <path d="M257.2 199.9 Q253.85 197.85 252.9 198.4 251.9 199.0 253.95 201.8 L260.4 209.85 Q264.75 215.15 262.15 221.1 259.6 227.1 268.05 226.6 276.45 226.05 272.55 217.55 268.75 208.95 264.7 205.35 260.65 201.75 257.2 199.9" fill="#961f1f" fill-rule="evenodd" stroke="none"/>
    <path d="M244.35 208.65 L244.1 208.1 243.6 208.0 Q243.35 207.9 243.1 208.2 242.85 208.4 242.85 208.75 L243.1 209.25 243.6 209.5 244.15 209.25 244.35 208.65 M252.0 219.75 Q251.6 220.1 251.6 220.55 251.6 221.1 251.95 221.4 L252.7 221.75 253.5 221.35 253.9 220.5 253.5 219.75 Q253.25 219.4 252.75 219.4 252.3 219.35 252.0 219.75 M256.75 230.65 Q256.2 231.35 256.2 232.3 256.35 233.15 257.05 233.9 257.7 234.45 258.65 234.45 259.5 234.4 260.1 233.75 260.7 233.0 260.55 232.15 260.5 231.15 259.8 230.55 259.1 229.9 258.3 230.0 257.35 230.0 256.75 230.65 M253.7 233.0 Q253.7 232.55 253.35 232.3 253.1 231.9 252.65 232.0 252.2 231.95 251.85 232.3 251.45 232.7 251.5 233.1 251.5 233.65 251.8 234.0 252.15 234.3 252.6 234.3 L253.35 233.95 253.7 233.0 M263.2 232.05 Q264.5 233.2 266.25 233.15 267.9 233.05 269.0 231.8 270.1 230.5 269.9 228.8 269.85 227.0 268.5 225.9 267.25 224.65 265.5 224.75 263.85 224.8 262.8 226.15 261.7 227.35 261.8 229.15 262.0 230.85 263.2 232.05 M267.65 220.7 L268.1 219.7 267.65 218.8 Q267.35 218.5 266.85 218.5 266.3 218.5 265.9 218.9 265.5 219.3 265.55 219.9 265.55 220.4 265.85 220.85 L266.8 221.1 Q267.3 221.05 267.65 220.7" fill="#771a1a" fill-opacity="0.7019608" fill-rule="evenodd" stroke="none"/>
    <path d="M254.75 222.35 Q253.7 223.5 253.65 225.05 253.65 226.6 254.7 227.75 255.8 228.75 257.3 228.75 258.8 228.65 259.85 227.55 261.0 226.35 261.05 224.8 261.1 223.2 259.95 222.15 258.95 221.1 257.45 221.15 255.9 221.2 254.75 222.35" fill="#4f1111" fill-opacity="0.7019608" fill-rule="evenodd" stroke="none"/>
    <path d="M255.9 222.25 L254.95 222.35 254.15 223.25 Q253.85 223.85 253.85 224.4 253.8 224.95 254.25 225.25 L255.15 225.15 Q255.65 224.8 255.8 224.1 L256.1 222.95 Q256.25 222.45 255.9 222.25 M255.95 225.95 L255.1 226.15 Q254.75 226.25 254.65 226.7 254.65 227.0 255.0 227.25 L255.75 227.6 256.55 227.35 Q256.95 227.15 256.75 226.75 L256.5 226.2 Q256.4 225.9 255.95 225.95" fill="#ea9999" fill-opacity="0.7019608" fill-rule="evenodd" stroke="none"/>
    <path d="M252.7 198.1 Q251.9 198.55 252.95 200.2 253.95 201.8 256.35 203.7 258.65 205.55 260.9 206.5 263.05 207.45 263.85 207.0 264.7 206.5 263.7 204.85 262.6 203.15 260.3 201.35 258.0 199.45 255.85 198.55 253.55 197.55 252.7 198.1 M270.3 217.35 Q271.65 218.5 272.6 218.55 273.5 218.5 273.4 217.35 273.25 216.05 272.2 214.35 271.1 212.55 269.85 211.35 268.45 210.15 267.45 210.25 266.6 210.25 266.7 211.5 266.8 212.75 267.85 214.5 268.95 216.2 270.3 217.35" fill="#ffffff" fill-opacity="0.6" fill-rule="evenodd" stroke="none"/>
    <path d="M240.75 218.7 Q240.8 220.05 241.6 222.75 242.35 225.25 243.4 227.65 244.35 229.85 245.0 230.55 245.65 231.15 245.55 229.75 245.5 228.35 244.7 225.9 243.9 223.2 242.9 221.0 241.9 218.7 241.3 218.05 240.7 217.35 240.75 218.7" fill="#ffffff" fill-opacity="0.6" fill-rule="evenodd" stroke="none"/>
    <path d="M247.45 233.0 L247.95 233.95 248.9 234.65 249.8 234.9 Q250.15 234.85 250.0 234.45 L249.55 233.55 248.55 232.8 247.65 232.6 Q247.35 232.6 247.45 233.0" fill="#ffffff" fill-opacity="0.6" fill-rule="evenodd" stroke="none"/>
    <path d="M266.9 233.65 Q273.95 229.35 275.7 222.1 276.7 217.65 268.85 206.65 266.7 204.15 262.6 201.35 L255.45 196.55 Q248.55 193.2 241.75 197.9 236.9 201.35 237.45 206.2 236.7 211.7 241.85 224.75 244.15 234.45 252.05 236.8 259.3 237.7 266.8 233.6 L266.8 233.5 266.85 233.6 266.9 233.65" fill="url(#gradient2)" fill-rule="evenodd" stroke="none"/>
    <path d="M266.9 233.65 Q273.95 229.35 275.7 222.1 276.7 217.65 268.85 206.65 266.7 204.15 262.6 201.35 L255.45 196.55 Q248.55 193.2 241.75 197.9 236.9 201.35 237.45 206.2 236.7 211.7 241.85 224.75 244.15 234.45 252.05 236.8 259.3 237.7 266.8 233.6 L266.8 233.5 266.85 233.6" fill="none" stroke="#a14040" stroke-linecap="round" stroke-linejoin="round" stroke-opacity="0.5019608" stroke-width="0.05"/>
    <path d="M245.4 215.25 L248.35 218.7 250.65 225.3 247.0 222.8 244.65 222.2 Q242.0 225.65 236.3 226.95 235.3 225.0 234.9 221.95 L229.65 224.75 233.0 218.0 234.65 216.4 Q237.7 214.15 241.7 214.15 L245.4 215.25" fill="#8c231d" fill-rule="evenodd" stroke="none"/>
    <path d="M233.0 220.2 Q234.35 217.85 235.2 217.85 236.0 217.85 235.7 220.2 L234.65 227.3 Q233.85 232.0 237.6 234.65 241.4 237.35 235.9 240.0 230.4 242.55 229.75 236.1 229.05 229.6 230.3 226.05 231.55 222.5 233.0 220.2" fill="#961f1f" fill-rule="evenodd" stroke="none"/>
    <path d="M244.35 221.05 L244.25 220.6 Q244.3 220.4 244.5 220.35 L244.9 220.3 245.25 220.55 245.35 220.95 245.1 221.25 244.7 221.3 244.35 221.05 M243.55 230.35 Q243.9 230.45 244.1 230.7 L244.2 231.3 243.8 231.75 243.2 231.8 Q242.85 231.7 242.65 231.4 242.45 231.1 242.6 230.85 L242.95 230.4 243.55 230.35 M244.5 238.55 Q245.1 238.75 245.4 239.3 245.7 239.9 245.45 240.55 L244.7 241.45 243.5 241.55 Q242.9 241.25 242.65 240.7 242.3 240.15 242.55 239.5 242.75 238.9 243.3 238.65 L244.5 238.55 M247.6 237.85 L248.2 237.8 248.7 238.15 248.85 238.8 248.45 239.25 247.85 239.3 Q247.5 239.2 247.3 238.9 247.1 238.6 247.2 238.35 L247.6 237.85 M240.95 241.6 Q240.5 242.7 239.45 243.3 L237.2 243.45 Q236.0 243.05 235.5 241.95 234.95 240.85 235.35 239.7 235.7 238.55 236.85 238.0 L239.05 237.85 Q240.2 238.25 240.75 239.35 241.3 240.45 240.95 241.6 M234.0 236.3 L233.4 235.85 Q233.2 235.55 233.35 235.2 L233.7 234.7 234.45 234.6 Q234.85 234.7 235.05 235.1 L235.2 235.75 234.75 236.25 234.0 236.3" fill="#771a1a" fill-opacity="0.7019608" fill-rule="evenodd" stroke="none"/>
    <path d="M242.75 232.85 Q243.8 233.15 244.45 234.1 245.0 235.0 244.75 236.05 244.45 237.05 243.45 237.55 L241.4 237.7 Q240.25 237.4 239.65 236.45 239.05 235.55 239.4 234.5 239.65 233.55 240.6 233.05 L242.75 232.85" fill="#4f1111" fill-opacity="0.7019608" fill-rule="evenodd" stroke="none"/>
    <path d="M244.1 233.8 L244.15 234.4 243.5 234.65 242.75 234.25 242.1 233.65 Q241.85 233.4 242.0 233.15 242.15 232.9 242.65 232.9 L243.45 233.15 244.1 233.8 M243.9 235.25 L244.4 235.4 244.4 235.85 244.0 236.3 243.4 236.45 Q243.1 236.45 243.1 236.15 L243.05 235.75 Q243.0 235.55 243.3 235.4 L243.9 235.25" fill="#ea9999" fill-opacity="0.7019608" fill-rule="evenodd" stroke="none"/>
    <path d="M235.2 217.6 Q235.85 217.6 235.8 218.9 235.75 220.25 234.95 222.2 L233.1 225.45 Q232.05 226.8 231.35 226.8 230.65 226.8 230.7 225.45 230.8 224.05 231.55 222.15 232.35 220.25 233.4 218.9 234.45 217.55 235.2 217.6 M231.15 235.25 Q230.65 236.4 230.1 236.75 229.55 237.0 229.1 236.3 228.75 235.5 228.8 234.1 228.8 232.7 229.2 231.5 229.6 230.25 230.3 229.95 230.85 229.7 231.2 230.5 231.65 231.25 231.6 232.7 231.55 234.05 231.15 235.25" fill="#ffffff" fill-opacity="0.6" fill-rule="evenodd" stroke="none"/>
    <path d="M250.2 225.8 L251.15 228.5 251.8 232.05 251.85 234.4 Q251.7 235.0 251.2 234.05 250.8 233.2 250.35 231.45 249.85 229.55 249.7 227.9 249.5 226.2 249.65 225.65 249.8 224.95 250.2 225.8" fill="#ffffff" fill-opacity="0.6" fill-rule="evenodd" stroke="none"/>
    <path d="M251.25 236.75 L251.25 237.45 250.9 238.25 250.45 238.7 Q250.2 238.7 250.1 238.5 L250.15 237.8 Q250.25 237.35 250.5 237.0 250.7 236.6 250.95 236.55 251.15 236.45 251.25 236.75" fill="#ffffff" fill-opacity="0.6" fill-rule="evenodd" stroke="none"/>
    <path d="M239.2 243.9 Q233.2 243.75 229.45 239.95 227.2 237.7 228.15 228.35 228.6 226.1 230.15 223.0 L232.9 217.65 Q236.05 213.25 242.05 213.7 246.35 214.1 247.8 217.25 250.3 220.25 251.75 229.85 253.85 236.5 249.7 240.6 245.5 243.65 239.25 243.85 L239.2 243.8 239.25 243.8 239.2 243.9" fill="url(#gradient3)" fill-rule="evenodd" stroke="none"/>
    <path d="M239.2 243.9 Q233.2 243.75 229.45 239.95 227.2 237.7 228.15 228.35 228.6 226.1 230.15 223.0 L232.9 217.65 Q236.05 213.25 242.05 213.7 246.35 214.1 247.8 217.25 250.3 220.25 251.75 229.85 253.85 236.5 249.7 240.6 245.5 243.65 239.25 243.85 L239.2 243.8 239.25 243.8" fill="none" stroke="#a14040" stroke-linecap="round" stroke-linejoin="round" stroke-opacity="0.5019608" stroke-width="0.05"/>
    <path d="M256.95 203.6 L256.15 205.25 259.1 210.6 257.25 205.4 257.75 204.5 256.95 203.6 M251.8 204.15 L250.4 203.45 Q248.9 202.35 247.7 200.9 250.05 205.6 249.55 208.5 250.85 210.15 252.7 211.6 250.9 206.65 251.8 204.15 M309.35 180.05 Q309.2 181.75 308.0 182.95 L306.5 184.55 Q308.6 187.95 309.6 193.0 L310.0 195.7 Q312.0 192.6 312.75 189.6 L312.9 188.7 Q310.7 185.7 309.35 180.05 M278.05 201.25 L277.05 201.55 282.6 211.95 283.55 211.7 278.05 201.25 M305.25 182.95 L306.5 181.7 Q309.75 177.65 305.2 175.55 301.3 174.1 286.65 174.65 271.95 175.25 252.85 188.1 247.55 192.8 246.85 196.2 247.7 199.35 249.95 201.15 263.8 187.55 277.65 183.45 298.55 179.3 305.25 182.95 M273.05 201.15 L274.2 202.35 274.7 202.15 274.2 202.35 275.75 205.5 276.35 205.35 274.7 202.15 273.55 201.0 273.05 201.15 M255.1 211.2 L254.1 207.2 254.7 212.95 255.1 211.2 M274.95 208.25 Q275.15 209.5 277.3 208.95 L279.0 212.8 279.2 212.75 279.45 212.35 279.35 212.3 Q279.25 211.2 277.35 207.7 L276.8 208.15 275.5 208.4 275.35 208.35 274.95 208.25" fill="#6c3c1e" fill-rule="evenodd" stroke="none"/>
    <path d="M256.15 205.25 L251.8 204.15 Q250.9 206.65 252.7 211.6 L254.7 212.95 254.1 207.2 255.1 211.2 255.6 213.3 258.2 214.0 Q262.25 214.3 266.55 214.1 263.45 210.15 261.8 205.3 L257.25 205.4 259.1 210.6 256.15 205.25 M306.5 184.55 Q300.9 190.15 294.05 194.25 298.15 198.65 299.55 203.9 L299.75 204.75 Q304.5 201.7 308.5 197.75 L310.0 195.7 309.6 193.0 Q308.6 187.95 306.5 184.55" fill="#b45832" fill-rule="evenodd" stroke="none"/>
    <path d="M247.7 200.9 Q246.25 199.25 245.25 197.05 247.3 202.0 248.35 206.6 L249.55 208.5 Q250.05 205.6 247.7 200.9 M308.85 176.7 Q309.45 178.6 309.35 180.05 310.7 185.7 312.9 188.7 L313.05 186.0 Q310.75 182.1 308.85 176.7 M294.05 194.25 Q286.7 198.65 278.05 201.25 L283.55 211.7 Q291.15 209.7 297.5 206.1 L299.75 204.75 299.55 203.9 Q298.15 198.65 294.05 194.25 M274.2 202.35 Q267.2 204.75 261.8 205.3 263.45 210.15 266.55 214.1 L274.3 213.5 279.0 212.8 277.3 208.95 Q275.15 209.5 274.95 208.25 L274.4 207.75 274.35 207.65 Q274.2 207.15 274.5 206.6 274.75 205.95 275.5 205.55 L275.75 205.5 274.2 202.35" fill="#bc6734" fill-rule="evenodd" stroke="none"/>
    <path d="M256.95 203.6 Q252.5 203.25 249.95 201.15 247.7 199.35 246.85 196.2 247.55 192.8 252.85 188.1 271.95 175.25 286.65 174.65 301.3 174.1 305.2 175.55 309.75 177.65 306.5 181.7 L305.25 182.95 Q292.85 195.3 276.35 200.25 L277.05 201.55 278.05 201.25 Q286.7 198.65 294.05 194.25 300.9 190.15 306.5 184.55 L308.0 182.95 Q309.2 181.75 309.35 180.05 309.45 178.6 308.85 176.7 L308.75 176.5 Q308.6 175.9 307.65 174.8 306.45 173.4 301.8 172.35 289.8 170.9 274.0 175.25 253.15 181.25 244.95 195.05 244.95 196.25 245.25 197.05 246.25 199.25 247.7 200.9 248.9 202.35 250.4 203.45 L251.8 204.15 256.15 205.25 256.95 203.6 M257.75 204.5 L257.25 205.4 261.8 205.3 Q267.2 204.75 274.2 202.35 L273.05 201.15 271.4 201.6 270.05 202.0 Q263.1 203.75 258.2 203.65 L257.75 204.5" fill="#d19947" fill-rule="evenodd" stroke="none"/>
    <path d="M271.4 201.6 L273.05 201.15 273.55 201.0 274.7 202.15 276.35 205.35 276.9 205.3 277.05 205.35 275.1 201.7 Q274.1 201.25 273.35 200.25 L271.4 201.6 M274.35 207.65 L274.4 207.75 274.95 208.25 275.35 208.35 275.5 208.4 Q276.1 207.4 277.95 206.5 L277.85 205.95 277.65 205.7 Q276.7 207.7 274.35 207.65 M279.0 212.8 L274.3 213.5 275.35 214.0 Q278.45 214.25 280.85 213.05 L277.9 206.95 277.8 207.05 277.35 207.7 Q279.25 211.2 279.35 212.3 L279.45 212.35 279.2 212.75 279.0 212.8" fill="#5c4901" fill-rule="evenodd" stroke="none"/>
    <path d="M282.95 212.85 L282.25 212.75 275.6 200.7 Q274.65 201.25 273.65 200.0 L273.35 200.25 Q274.1 201.25 275.1 201.7 L277.05 205.35 277.65 205.7 277.85 205.95 277.95 206.5 277.9 206.95 277.95 206.5 Q276.1 207.4 275.5 208.4 L276.8 208.15 277.35 207.7 277.8 207.05 277.9 206.95 280.85 213.05 Q278.45 214.25 275.35 214.0 277.6 214.75 280.1 214.55 282.65 214.25 282.95 212.85" fill="#a08001" fill-rule="evenodd" stroke="none"/>
    <path d="M277.05 201.55 L276.35 200.25 Q276.1 198.75 273.85 198.55 270.5 200.5 270.05 202.0 L271.4 201.6 273.35 200.25 273.65 200.0 Q274.65 201.25 275.6 200.7 L282.25 212.75 282.95 212.85 283.0 212.65 282.6 211.95 277.05 201.55 M275.75 205.5 L275.5 205.55 Q274.75 205.95 274.5 206.6 274.2 207.15 274.35 207.65 276.7 207.7 277.65 205.7 L277.05 205.35 276.9 205.3 276.35 205.35 275.75 205.5" fill="#ffcc00" fill-rule="evenodd" stroke="none"/>
    <path d="M249.95 201.15 Q252.5 203.25 256.95 203.6 L256.15 205.25 259.1 210.6 257.25 205.4 257.75 204.5 258.2 203.65 Q263.1 203.75 270.05 202.0 L271.4 201.6 273.05 201.15 273.55 201.0 274.7 202.15 276.35 205.35 275.75 205.5 275.5 205.55 Q274.75 205.95 274.5 206.6 274.2 207.15 274.35 207.65 L274.4 207.75 274.95 208.25 275.35 208.35 275.5 208.4 276.8 208.15 277.35 207.7 Q279.25 211.2 279.35 212.3 M250.4 203.45 Q248.9 202.35 247.7 200.9 M245.25 197.05 Q244.95 196.25 244.95 195.05 253.15 181.25 274.0 175.25 289.8 170.9 301.8 172.35 306.45 173.4 307.65 174.8 308.6 175.9 308.75 176.5 L308.85 176.7 Q310.75 182.1 313.05 186.0 L312.9 188.7 312.75 189.6 Q312.0 192.6 310.0 195.7 L308.5 197.75 Q304.5 201.7 299.75 204.75 L297.5 206.1 Q291.15 209.7 283.55 211.7 L282.6 211.95 283.0 212.65 282.95 212.85 Q282.65 214.25 280.1 214.55 277.6 214.75 275.35 214.0 L274.3 213.5 266.55 214.1 Q262.25 214.3 258.2 214.0 L255.6 213.3 255.1 211.2 254.7 212.95 252.7 211.6 Q250.85 210.15 249.55 208.5 L248.35 206.6 Q247.3 202.0 245.25 197.05 M277.05 201.55 L276.35 200.25 Q292.85 195.3 305.25 182.95 L306.5 181.7 Q309.75 177.65 305.2 175.55 M246.85 196.2 Q247.7 199.35 249.95 201.15 263.8 187.55 277.65 183.45 298.55 179.3 305.25 182.95 M256.95 203.6 L257.75 204.5 M254.7 212.95 L254.1 207.2 255.1 211.2 M279.0 212.8 L274.3 213.5 M277.9 206.95 L277.95 206.5 277.85 205.95 277.65 205.7 277.05 205.35 276.9 205.3 276.35 205.35 M277.35 207.7 L277.8 207.05 277.9 206.95 M279.45 212.35 L279.2 212.75 279.0 212.8 M270.05 202.0 Q270.5 200.5 273.85 198.55 276.1 198.75 276.35 200.25 M282.6 211.95 L277.05 201.55 M278.05 201.25 L283.55 211.7" fill="none" stroke="#000000" stroke-linecap="round" stroke-linejoin="round" stroke-opacity="0.4" stroke-width="0.2"/>
    <path d="M256.15 205.25 L251.8 204.15 250.4 203.45 M247.7 200.9 Q246.25 199.25 245.25 197.05 M308.85 176.7 Q309.45 178.6 309.35 180.05 309.2 181.75 308.0 182.95 L306.5 184.55 Q300.9 190.15 294.05 194.25 286.7 198.65 278.05 201.25 L277.05 201.55 M252.85 188.1 Q247.55 192.8 246.85 196.2 M274.2 202.35 Q267.2 204.75 261.8 205.3 L257.25 205.4 M274.7 202.15 L274.2 202.35" fill="none" stroke="#ff9900" stroke-linecap="round" stroke-linejoin="round" stroke-opacity="0.4" stroke-width="0.2"/>
    <path d="M274.25 199.95 Q274.5 200.2 274.8 200.25 L275.3 200.15 275.5 199.75 275.25 199.3 274.7 199.0 274.2 199.1 274.0 199.45 274.25 199.95" fill="#ffffff" fill-rule="evenodd" stroke="none"/>
    <path d="M276.0 207.05 L276.65 207.0 277.1 206.5 277.15 206.05 Q277.05 205.85 276.75 205.8 L276.15 205.95 Q275.8 206.1 275.65 206.35 L275.6 206.85 Q275.7 207.1 276.0 207.05" fill="#ffffff" fill-rule="evenodd" stroke="none"/>
  </g>
  <defs>
    <linearGradient gradientTransform="matrix(0.0, -0.0206, 0.0203, -0.0018, 306.1, 201.9)" gradientUnits="userSpaceOnUse" id="gradient0" spreadMethod="pad" x1="-819.2" x2="819.2">
      <stop offset="0.06666666666666667" stop-color="#59be3a" stop-opacity="0.7019608"/>
      <stop offset="0.5137254901960784" stop-color="#baf57c" stop-opacity="0.7019608"/>
      <stop offset="1.0" stop-color="#d2f4d6" stop-opacity="0.6509804"/>
    </linearGradient>
    <linearGradient gradientTransform="matrix(-0.0079, -0.0108, -0.0119, 0.0104, 325.3, 202.95)" gradientUnits="userSpaceOnUse" id="gradient1" spreadMethod="pad" x1="-819.2" x2="819.2">
      <stop offset="0.06666666666666667" stop-color="#59be3a" stop-opacity="0.7019608"/>
      <stop offset="0.5137254901960784" stop-color="#baf57c" stop-opacity="0.7019608"/>
      <stop offset="1.0" stop-color="#d2f4d6" stop-opacity="0.6509804"/>
    </linearGradient>
    <linearGradient gradientTransform="matrix(-0.0108, -0.0166, -0.0173, 0.0114, 255.15, 216.4)" gradientUnits="userSpaceOnUse" id="gradient2" spreadMethod="pad" x1="-819.2" x2="819.2">
      <stop offset="0.06666666666666667" stop-color="#59be3a" stop-opacity="0.7019608"/>
      <stop offset="0.5137254901960784" stop-color="#baf57c" stop-opacity="0.7019608"/>
      <stop offset="1.0" stop-color="#d2f4d6" stop-opacity="0.6509804"/>
    </linearGradient>
    <linearGradient gradientTransform="matrix(8.0E-4, -0.0137, 0.015, 8.0E-4, 240.35, 229.45)" gradientUnits="userSpaceOnUse" id="gradient3" spreadMethod="pad" x1="-819.2" x2="819.2">
      <stop offset="0.06666666666666667" stop-color="#59be3a" stop-opacity="0.7019608"/>
      <stop offset="0.5137254901960784" stop-color="#baf57c" stop-opacity="0.7019608"/>
      <stop offset="1.0" stop-color="#d2f4d6" stop-opacity="0.6509804"/>
    </linearGradient>
  </defs>
</svg>
