<?xml version="1.0" encoding="UTF-8" standalone="no"?>
<svg xmlns:xlink="http://www.w3.org/1999/xlink" height="47.65px" width="47.45px" xmlns="http://www.w3.org/2000/svg">
  <g transform="matrix(1.0, 0.0, 0.0, 1.0, -226.9, -194.7)">
    <path d="M242.95 202.55 L241.8 209.3 Q242.4 214.4 243.15 219.5 L245.55 213.45 247.8 210.85 Q252.55 213.2 259.5 210.45 259.4 207.15 258.15 202.95 L265.3 202.45 257.85 196.35 255.15 195.6 Q250.65 195.1 246.35 198.25 L242.95 202.55" fill="#8c231d" fill-rule="evenodd" stroke="none"/>
    <path d="M259.15 199.2 Q256.3 197.25 255.4 197.85 254.5 198.5 256.2 201.3 L261.45 209.6 Q264.95 215.05 262.4 221.4 259.9 227.8 267.3 226.95 274.65 226.0 271.7 217.15 268.75 208.25 265.4 204.6 262.05 200.95 259.15 199.2" fill="#961f1f" fill-rule="evenodd" stroke="none"/>
    <path d="M247.45 209.1 L247.25 208.5 Q247.1 208.3 246.85 208.35 246.6 208.3 246.4 208.65 246.15 208.85 246.15 209.25 L246.3 209.75 Q246.45 209.95 246.7 209.95 L247.2 209.7 247.45 209.1 M253.6 220.45 Q253.25 220.9 253.25 221.3 253.2 221.85 253.45 222.2 253.8 222.5 254.1 222.5 L254.8 222.1 255.2 221.1 254.95 220.35 Q254.7 220.0 254.3 220.05 253.9 220.05 253.6 220.45 M257.25 231.75 Q256.7 232.5 256.7 233.5 256.75 234.4 257.35 235.15 257.9 235.65 258.65 235.65 259.5 235.6 260.05 234.85 260.55 234.0 260.5 233.1 260.5 232.15 259.95 231.5 259.35 230.85 258.6 230.95 257.8 231.0 257.25 231.75 M254.5 234.4 Q254.45 233.85 254.2 233.6 254.0 233.25 253.55 233.3 253.2 233.3 252.85 233.7 252.5 234.15 252.5 234.55 252.45 235.15 252.75 235.45 253.05 235.75 253.4 235.75 L254.1 235.4 254.5 234.4 M262.8 232.9 Q263.9 234.05 265.4 233.95 266.85 233.8 267.85 232.4 268.95 230.95 268.85 229.15 268.85 227.35 267.75 226.15 266.65 224.95 265.2 225.1 263.7 225.25 262.7 226.65 261.7 228.05 261.75 229.9 261.8 231.75 262.8 232.9 M267.25 220.75 L267.65 219.65 Q267.7 219.1 267.3 218.75 267.1 218.35 266.65 218.4 L265.8 218.9 Q265.45 219.3 265.45 219.95 265.4 220.5 265.65 220.95 L266.45 221.2 267.25 220.75" fill="#771a1a" fill-opacity="0.7019608" fill-rule="evenodd" stroke="none"/>
    <path d="M255.9 223.05 Q254.9 224.3 254.8 226.0 254.7 227.6 255.55 228.75 256.45 229.8 257.8 229.65 259.15 229.5 260.1 228.25 261.2 226.95 261.3 225.35 261.35 223.7 260.5 222.6 259.6 221.55 258.3 221.7 256.95 221.75 255.9 223.05" fill="#4f1111" fill-opacity="0.7019608" fill-rule="evenodd" stroke="none"/>
    <path d="M256.85 222.9 Q256.55 222.7 256.05 223.05 255.65 223.35 255.3 224.0 255.0 224.7 255.0 225.3 254.95 225.85 255.3 226.15 L256.1 226.0 256.7 224.85 257.05 223.55 Q257.15 223.1 256.85 222.9 M256.75 226.8 L256.0 227.1 Q255.65 227.2 255.6 227.65 L255.85 228.25 Q256.1 228.45 256.5 228.55 L257.25 228.25 Q257.6 228.05 257.4 227.65 L257.25 227.05 Q257.15 226.75 256.75 226.8" fill="#ea9999" fill-opacity="0.7019608" fill-rule="evenodd" stroke="none"/>
    <path d="M255.45 197.7 Q254.7 198.2 255.5 199.85 256.35 201.55 258.35 203.45 260.3 205.3 262.2 206.15 264.05 207.1 264.75 206.6 265.55 206.0 264.75 204.3 263.9 202.55 261.9 200.8 260.05 198.9 258.15 197.95 256.15 197.05 255.45 197.7 M269.85 217.25 Q271.0 218.4 271.8 218.35 272.6 218.3 272.6 217.05 272.55 215.65 271.7 213.95 270.85 212.1 269.75 210.9 268.6 209.7 267.75 209.8 267.0 209.85 267.05 211.25 267.05 212.45 267.9 214.35 268.75 216.1 269.85 217.25" fill="#ffffff" fill-opacity="0.6" fill-rule="evenodd" stroke="none"/>
    <path d="M243.95 219.65 Q243.95 221.1 244.55 223.95 245.05 226.55 245.85 229.0 246.6 231.3 247.1 232.0 247.65 232.65 247.6 231.1 L247.1 227.1 245.75 222.05 Q245.0 219.6 244.45 219.0 243.95 218.25 243.95 219.65" fill="#ffffff" fill-opacity="0.6" fill-rule="evenodd" stroke="none"/>
    <path d="M249.05 234.8 L249.45 235.7 250.25 236.5 251.0 236.7 Q251.3 236.6 251.2 236.1 L250.85 235.25 250.0 234.5 249.3 234.3 Q248.95 234.4 249.05 234.8" fill="#ffffff" fill-opacity="0.6" fill-rule="evenodd" stroke="none"/>
    <path d="M265.85 234.55 L265.85 234.45 265.8 234.55 Q259.0 239.2 252.75 238.6 245.95 236.45 244.5 226.3 240.6 212.75 241.55 206.95 241.3 201.85 245.75 197.9 251.85 192.7 257.75 195.9 L263.8 200.65 Q267.15 203.45 268.95 206.05 275.3 217.25 274.15 222.0 272.3 229.75 265.95 234.6 L265.85 234.55" fill="url(#gradient0)" fill-rule="evenodd" stroke="none"/>
    <path d="M265.95 234.6 Q272.3 229.75 274.15 222.0 275.3 217.25 268.95 206.05 267.15 203.45 263.8 200.65 L257.75 195.9 Q251.85 192.7 245.75 197.9 241.3 201.85 241.55 206.95 240.6 212.75 244.5 226.3 245.95 236.45 252.75 238.6 259.0 239.2 265.8 234.55 L265.85 234.45 265.85 234.55" fill="none" stroke="#a14040" stroke-linecap="round" stroke-linejoin="round" stroke-opacity="0.5019608" stroke-width="0.05"/>
    <path d="M243.9 216.8 L246.15 220.25 247.45 226.5 244.55 223.8 242.55 223.05 Q239.95 225.85 234.8 226.5 234.15 224.6 234.05 221.75 L229.25 223.7 232.85 217.95 234.4 216.65 Q237.25 214.95 240.75 215.4 L243.9 216.8" fill="#8c231d" fill-rule="evenodd" stroke="none"/>
    <path d="M232.65 219.95 Q234.05 217.95 234.75 218.0 235.5 218.1 235.0 220.25 L233.4 226.55 Q232.25 230.75 235.35 233.65 238.35 236.5 233.35 238.3 228.3 240.05 228.35 234.05 228.35 228.1 229.7 225.0 231.1 221.85 232.65 219.95" fill="#961f1f" fill-rule="evenodd" stroke="none"/>
    <path d="M242.4 221.9 L242.4 221.55 242.6 221.35 Q242.8 221.2 243.0 221.35 243.15 221.4 243.3 221.6 L243.3 221.95 243.05 222.2 242.7 222.2 242.4 221.9 M240.85 230.35 Q241.2 230.45 241.3 230.7 L241.35 231.3 241.0 231.65 240.45 231.65 239.95 231.25 239.95 230.65 240.3 230.3 240.85 230.35 M240.95 237.9 Q241.45 238.15 241.7 238.7 L241.65 239.85 240.9 240.55 239.8 240.5 239.15 239.7 Q238.95 239.15 239.15 238.55 239.4 238.05 239.95 237.85 L240.95 237.9 M243.7 237.6 L244.25 237.65 244.65 238.05 Q244.85 238.3 244.7 238.6 L244.35 239.0 243.8 238.95 243.35 238.55 243.35 238.05 Q243.45 237.75 243.7 237.6 M237.55 240.3 Q237.1 241.3 236.1 241.7 L234.2 241.6 Q233.2 241.05 232.85 240.0 232.45 239.0 232.9 238.0 233.35 236.9 234.35 236.6 L236.3 236.7 Q237.25 237.15 237.65 238.2 238.0 239.3 237.55 240.3 M232.05 234.75 L231.55 234.2 Q231.4 233.95 231.55 233.6 231.6 233.35 231.95 233.25 232.25 233.1 232.6 233.25 L233.05 233.7 233.15 234.35 232.65 234.75 232.05 234.75" fill="#771a1a" fill-opacity="0.7019608" fill-rule="evenodd" stroke="none"/>
    <path d="M239.95 232.55 Q240.85 232.95 241.35 233.8 241.7 234.75 241.4 235.65 241.05 236.5 240.1 236.85 L238.3 236.8 Q237.4 236.4 236.9 235.5 236.5 234.6 236.85 233.65 237.2 232.8 238.1 232.5 L239.95 232.55" fill="#4f1111" fill-opacity="0.7019608" fill-rule="evenodd" stroke="none"/>
    <path d="M241.0 233.55 Q241.2 233.8 241.0 234.1 L240.45 234.25 Q240.1 234.2 239.8 233.8 L239.3 233.15 239.25 232.75 239.85 232.6 240.5 232.9 241.0 233.55 M240.8 234.8 L241.15 235.0 241.15 235.4 240.75 235.85 240.2 235.9 Q239.9 235.9 239.95 235.6 L239.95 235.2 Q239.9 235.0 240.2 234.9 L240.8 234.8" fill="#ea9999" fill-opacity="0.7019608" fill-rule="evenodd" stroke="none"/>
    <path d="M234.7 217.95 Q235.3 218.0 235.15 219.2 L234.05 222.15 Q233.2 223.75 232.15 224.85 231.15 226.0 230.6 225.95 229.95 225.85 230.1 224.6 230.3 223.35 231.15 221.75 231.95 220.05 233.0 218.95 234.05 217.8 234.7 217.95 M229.55 233.6 Q229.05 234.6 228.5 234.85 228.0 235.0 227.75 234.3 227.5 233.55 227.65 232.3 227.8 230.95 228.25 229.9 228.75 228.85 229.35 228.65 229.8 228.5 230.1 229.3 230.35 229.95 230.25 231.3 L229.55 233.6" fill="#ffffff" fill-opacity="0.6" fill-rule="evenodd" stroke="none"/>
    <path d="M247.1 226.95 L247.6 229.55 247.9 232.85 247.7 234.95 Q247.5 235.5 247.2 234.6 246.85 233.75 246.65 232.1 L246.4 228.85 Q246.35 227.25 246.6 226.75 246.75 226.1 247.1 226.95" fill="#ffffff" fill-opacity="0.6" fill-rule="evenodd" stroke="none"/>
    <path d="M247.0 237.05 L246.95 237.7 246.6 238.4 246.15 238.75 245.85 238.5 245.95 237.9 246.3 237.2 246.75 236.85 Q247.0 236.8 247.0 237.05" fill="#ffffff" fill-opacity="0.6" fill-rule="evenodd" stroke="none"/>
    <path d="M236.0 242.25 L236.0 242.2 236.0 242.25 Q241.45 242.75 245.35 240.5 249.35 237.15 248.1 230.85 247.65 222.0 245.8 218.95 244.85 215.95 241.1 215.15 236.0 214.05 232.85 217.75 L229.95 222.3 Q228.35 224.95 227.75 226.95 226.05 235.35 227.85 237.65 230.7 241.5 235.95 242.3 L236.0 242.25" fill="url(#gradient1)" fill-rule="evenodd" stroke="none"/>
    <path d="M235.95 242.3 Q230.7 241.5 227.85 237.65 226.05 235.35 227.75 226.95 228.35 224.95 229.95 222.3 L232.85 217.75 Q236.0 214.05 241.1 215.15 244.85 215.95 245.8 218.95 247.65 222.0 248.1 230.85 249.35 237.15 245.35 240.5 241.45 242.75 236.0 242.25 L236.0 242.2 236.0 242.25" fill="none" stroke="#a14040" stroke-linecap="round" stroke-linejoin="round" stroke-opacity="0.5019608" stroke-width="0.05"/>
  </g>
  <defs>
    <linearGradient gradientTransform="matrix(-0.0087, -0.0171, -0.0156, 0.0128, 256.5, 216.85)" gradientUnits="userSpaceOnUse" id="gradient0" spreadMethod="pad" x1="-819.2" x2="819.2">
      <stop offset="0.06666666666666667" stop-color="#e6ba73" stop-opacity="0.7019608"/>
      <stop offset="0.5058823529411764" stop-color="#f8ddb1" stop-opacity="0.7019608"/>
      <stop offset="1.0" stop-color="#fef4e0" stop-opacity="0.6509804"/>
    </linearGradient>
    <linearGradient gradientTransform="matrix(0.0019, -0.0124, 0.013, 0.0024, 238.2, 229.3)" gradientUnits="userSpaceOnUse" id="gradient1" spreadMethod="pad" x1="-819.2" x2="819.2">
      <stop offset="0.06666666666666667" stop-color="#e6ba73" stop-opacity="0.7019608"/>
      <stop offset="0.5058823529411764" stop-color="#f8ddb1" stop-opacity="0.7019608"/>
      <stop offset="1.0" stop-color="#fef4e0" stop-opacity="0.6509804"/>
    </linearGradient>
  </defs>
</svg>
