<?xml version="1.0" encoding="UTF-8" standalone="no"?>
<svg xmlns:xlink="http://www.w3.org/1999/xlink" height="43.5px" width="40.9px" xmlns="http://www.w3.org/2000/svg">
  <g transform="matrix(1.0, 0.0, 0.0, 1.0, -260.0, -381.2)">
    <path d="M299.35 384.85 Q299.75 385.25 298.8 385.45 L297.65 386.4 300.3 385.85 300.4 384.9 Q299.65 383.6 297.8 383.1 L294.35 382.2 293.7 382.1 293.35 382.8 Q299.0 383.5 299.35 384.85 M293.7 382.1 L291.65 381.8 287.6 381.7 285.5 381.95 283.55 382.35 282.8 382.55 286.05 382.65 290.6 382.5 293.35 382.8 M298.8 385.45 Q297.6 385.75 294.45 385.5 L287.2 384.25 Q289.25 385.4 294.85 386.4 L297.4 386.5 297.65 386.4 M290.4 394.6 Q289.3 396.65 286.85 398.0 L285.45 399.65 Q287.1 398.85 289.7 397.15 292.3 395.4 292.3 392.95 L290.45 394.5 290.4 394.6 M292.3 392.95 Q292.6 393.1 292.2 391.6 291.8 390.1 289.45 388.8 L289.2 388.7 Q284.5 387.2 281.85 385.25 280.7 384.5 281.2 384.0 L281.3 383.95 282.8 383.4 Q284.2 382.85 286.05 382.65 M282.8 382.55 L282.3 382.75 281.15 383.2 280.55 383.35 279.9 383.9 Q279.3 384.45 280.15 385.4 L280.3 385.45 280.35 385.45 280.4 385.5 286.9 389.0 Q292.3 390.7 290.45 394.5 M281.3 383.95 L281.85 384.1 289.3 385.55 294.85 386.4 M287.2 384.25 L282.8 383.4 M285.45 399.65 Q283.25 400.7 281.35 401.0 L281.45 403.75 281.45 403.85 281.65 404.65 Q283.05 410.35 281.65 413.85 280.7 412.35 279.55 412.4 279.0 412.35 278.7 412.85 L279.6 419.5 Q277.45 416.85 276.3 416.95 275.35 416.95 275.1 418.6 L274.95 420.3 Q274.4 419.3 273.95 419.05 272.2 417.75 270.4 424.2 L269.55 422.8 Q268.7 421.7 267.85 422.65 L267.3 418.0 Q266.65 419.25 265.8 419.55 264.9 420.2 263.7 419.85 L265.1 413.4 Q265.65 409.1 265.5 404.9 L265.2 401.8 265.15 401.3 Q264.85 399.3 265.25 398.1 L264.45 396.75 264.2 396.15 263.35 395.05 Q262.25 394.0 261.5 392.75 259.7 389.75 261.2 387.0 L261.45 386.6 Q262.3 385.2 263.95 384.45 L264.4 384.25 267.2 382.8 275.8 382.55 277.05 382.75 281.15 383.2 M277.05 382.75 L273.25 383.3 274.5 383.4 279.9 383.9 M280.05 399.4 L280.4 398.95 280.55 398.7 Q279.8 395.1 276.8 395.55 276.55 395.6 276.25 395.8 273.7 396.45 273.6 398.0 L273.75 398.9 273.85 399.2 M273.6 398.0 L272.7 397.4 Q272.25 396.9 270.65 396.65 L271.05 396.05 Q270.3 392.45 267.3 392.9 267.05 392.95 266.75 393.15 265.1 393.6 264.5 394.4 264.1 394.85 264.1 395.45 L264.2 396.15 M280.4 385.5 Q282.65 387.8 286.4 388.8 L286.9 389.0 M280.3 385.45 L280.4 385.5 M278.7 412.85 L278.35 409.2 278.2 406.8 278.2 406.7 278.05 403.05 Q277.95 401.85 278.55 401.1 278.95 400.6 279.65 400.3 L281.35 399.95 281.4 399.95 281.4 399.7 281.35 399.65 Q281.2 399.25 280.4 398.95 M279.65 400.3 L281.35 400.05 281.35 399.95 M281.35 400.05 Q284.2 399.4 286.85 398.0 M277.1 401.15 L276.6 400.15 Q276.35 399.55 276.6 399.05 L276.8 398.65 277.0 398.35 277.55 398.0 278.55 398.05 278.95 398.55 279.1 399.1 M278.95 398.55 L277.0 398.35 M274.1 399.65 Q275.05 401.5 275.75 401.65 M270.9 414.9 L270.55 412.85 Q269.9 413.9 269.05 414.15 L268.95 414.2 269.05 415.7 Q269.2 416.75 269.6 416.8 270.05 417.0 270.45 416.25 L270.85 415.15 M270.55 412.85 L270.5 412.5 M278.55 401.1 L281.35 401.0 M264.4 384.25 Q265.55 383.7 267.0 383.6 L273.25 383.3 M264.5 394.4 L262.85 392.75 Q261.75 391.55 261.5 388.7 261.35 387.75 261.45 386.6 M263.35 395.05 L264.1 395.45 M267.6 398.5 L267.35 398.1 Q266.75 397.1 267.1 396.4 L267.3 396.0 Q267.5 395.55 268.05 395.35 L269.05 395.4 269.6 396.45 M261.5 388.7 L263.95 384.45 M265.25 398.1 L266.25 399.0 M269.95 412.25 L269.35 412.4 Q269.05 412.6 268.95 413.55 L268.95 414.2 M268.0 410.45 L267.35 413.0 267.4 413.0 267.95 412.65 268.25 412.0 M267.1 409.2 Q266.8 409.7 266.75 410.9 L266.95 412.5 Q267.1 412.95 267.35 413.0 M266.4 414.75 L267.3 418.0" fill="none" stroke="#000000" stroke-linecap="round" stroke-linejoin="round" stroke-opacity="0.3019608" stroke-width="1.0"/>
    <path d="M273.3 405.85 L273.9 406.5 Q275.1 405.4 277.05 405.35 L277.2 405.35 277.4 405.8 277.15 406.7 277.1 406.75 277.0 406.7 276.65 406.8 276.45 407.1 276.45 407.2 Q276.45 407.5 276.6 407.65 275.9 408.65 274.75 409.2 L274.75 409.85 274.7 410.75 274.95 411.2 274.1 411.65 273.8 411.9 271.3 412.0 Q269.85 411.45 268.85 410.0 L268.6 409.7 267.65 408.7 268.05 408.55 267.8 407.1 267.85 406.55 267.35 405.9 267.4 405.8 267.35 405.5 267.2 405.35 267.0 405.4 Q265.6 403.2 265.2 401.1 L265.2 401.05 265.4 400.85 266.65 401.8 268.65 404.4 269.4 404.35 269.85 404.7 270.75 405.1 271.25 405.35 271.3 405.35 271.75 405.5 272.5 405.8 272.9 405.95 273.3 405.85 M268.65 404.4 L268.65 404.45 268.35 404.95 268.4 405.4 268.85 405.95 270.65 408.75 270.9 408.9 270.9 408.7 270.85 408.25 270.25 406.6 M268.85 405.95 L268.65 406.05 268.45 406.95 Q268.45 407.55 268.85 408.1 L269.75 408.95 270.7 408.85 270.7 408.8 270.65 408.75 M268.05 408.55 L272.45 409.85 272.15 409.65 271.8 409.3 271.75 409.2 271.45 409.4 270.9 408.9 M273.9 406.5 L274.2 407.3 274.15 407.5 274.5 408.25 Q275.2 408.55 275.25 407.6 275.6 406.15 276.3 406.05 M274.15 407.5 L273.65 407.85 273.85 408.1 274.05 409.15 Q274.05 409.75 273.65 410.0 L273.15 410.05 274.7 410.75 M271.75 409.2 Q272.3 409.25 272.9 408.75 L273.3 408.35 273.65 407.85 M274.5 408.25 L274.75 409.2 M270.6 410.2 L271.05 410.15 Q271.85 410.15 272.55 410.75 M272.45 409.85 L273.15 410.05 M266.65 401.8 L267.3 404.5 Q267.4 405.45 268.1 405.7 L268.4 405.4 M267.85 406.55 Q267.9 406.1 268.1 405.7" fill="none" stroke="#000000" stroke-linecap="round" stroke-linejoin="round" stroke-opacity="0.3019608" stroke-width="1.0"/>
    <path d="M274.3 412.1 L273.9 411.2 M276.85 407.4 L276.05 406.8 M277.1 407.25 L277.1 406.25" fill="none" stroke="#000000" stroke-linecap="round" stroke-linejoin="round" stroke-opacity="0.3019608" stroke-width="0.05"/>
    <path d="M281.65 404.65 Q283.05 410.35 281.65 413.85 280.7 412.35 279.55 412.4 278.6 412.35 278.35 413.75 L278.2 415.15 277.2 414.05 275.9 414.1 Q278.6 407.9 281.65 404.65" fill="#946538" fill-rule="evenodd" stroke="none"/>
    <path d="M281.4 399.65 L281.3 400.65 281.45 403.75 281.45 403.85 281.65 404.65 Q278.6 407.9 275.9 414.1 275.05 414.7 274.25 416.75 L273.65 418.3 272.8 417.05 Q271.95 416.1 271.1 416.85 L270.55 412.85 Q269.9 413.9 269.05 414.15 L266.95 414.25 268.35 408.85 Q268.9 405.2 268.75 401.65 L268.55 399.65 281.4 399.65 M269.65 410.05 L270.55 412.85 269.65 410.05 M271.5 407.8 L271.5 407.7 271.4 406.75 270.95 405.7 Q270.6 405.1 270.4 405.3 L270.35 405.4 Q270.05 405.8 270.0 406.85 L270.2 408.2 Q270.35 408.6 270.65 408.6 271.0 408.7 271.2 408.35 L271.5 407.8 M273.2 408.1 L272.6 408.2 Q272.3 408.35 272.2 409.15 L272.3 411.0 Q272.45 411.9 272.85 411.95 273.3 412.15 273.7 411.55 L274.1 410.6 274.15 410.3 274.05 408.9 Q273.75 408.2 273.3 408.1 L273.2 408.1" fill="#854536" fill-rule="evenodd" stroke="none"/>
    <path d="M281.65 404.65 L281.45 403.85 281.45 403.75 281.3 400.65 281.4 399.65 M268.55 399.65 L268.75 401.65 Q268.9 405.2 268.35 408.85 L266.95 414.25 269.05 414.15 Q269.9 413.9 270.55 412.85 L269.65 410.05 M270.4 405.3 L270.35 405.4 Q270.05 405.8 270.0 406.85 L270.2 408.2 Q270.35 408.6 270.65 408.6 271.0 408.7 271.2 408.35 L271.5 407.8 M273.2 408.1 L272.6 408.2 Q272.3 408.35 272.2 409.15 L272.3 411.0 Q272.45 411.9 272.85 411.95 273.3 412.15 273.7 411.55 L274.1 410.6 M281.65 404.65 Q283.05 410.35 281.65 413.85 280.7 412.35 279.55 412.4 278.6 412.35 278.35 413.75 L278.2 415.15 277.2 414.05 275.9 414.1 M274.25 416.75 L273.65 418.3 272.8 417.05 Q271.95 416.1 271.1 416.85 L270.55 412.85" fill="none" stroke="#000000" stroke-linecap="round" stroke-linejoin="round" stroke-opacity="0.3019608" stroke-width="0.7000000000000001"/>
    <path d="M293.35 382.8 L290.6 382.5 286.05 382.65 282.8 382.55 283.55 382.35 285.5 381.95 287.6 381.7 291.65 381.8 293.7 382.1 293.35 382.8 M287.2 384.25 L294.45 385.5 Q297.6 385.75 298.8 385.45 L297.65 386.4 297.4 386.5 294.85 386.4 Q289.25 385.4 287.2 384.25 M292.3 392.95 Q292.3 395.4 289.7 397.15 287.1 398.85 285.45 399.65 L286.85 398.0 Q289.3 396.65 290.4 394.6 L290.45 394.5 292.3 392.95 M272.95 400.1 L271.25 399.85 Q265.75 398.65 263.35 395.05 L268.25 397.6 268.55 397.75 Q270.8 399.25 272.95 400.05 L272.95 400.1 M261.45 386.6 Q262.3 385.2 263.95 384.45 L261.5 388.7 Q261.35 387.75 261.45 386.6 M264.4 384.25 L267.2 382.8 275.8 382.55 277.05 382.75 273.25 383.3 267.0 383.6 Q265.55 383.7 264.4 384.25 M286.9 389.0 L286.4 388.8 Q282.65 387.8 280.4 385.5 L286.9 389.0" fill="#51546a" fill-rule="evenodd" stroke="none"/>
    <path d="M282.8 382.55 L286.05 382.65 Q284.2 382.85 282.8 383.4 L281.3 383.95 281.2 384.0 Q280.7 384.5 281.85 385.25 284.5 387.2 289.2 388.7 L289.45 388.8 Q291.8 390.1 292.2 391.6 292.6 393.1 292.3 392.95 L290.45 394.5 Q292.3 390.7 286.9 389.0 L280.4 385.5 280.35 385.45 280.3 385.45 280.15 385.4 Q279.3 384.45 279.9 383.9 L280.55 383.35 281.15 383.2 282.3 382.75 282.8 382.55 M285.45 399.65 Q279.95 402.2 276.4 400.45 282.0 400.6 286.85 398.0 L285.45 399.65 M263.35 395.05 Q262.25 394.0 261.5 392.75 259.7 389.75 261.2 387.0 L261.45 386.6 Q261.35 387.75 261.5 388.7 261.75 391.55 262.85 392.75 265.65 395.75 268.25 397.6 L263.35 395.05" fill="#c9c9da" fill-rule="evenodd" stroke="none"/>
    <path d="M293.35 382.8 L293.7 382.1 294.35 382.2 297.8 383.1 Q299.65 383.6 300.4 384.9 L300.3 385.85 297.65 386.4 298.8 385.45 Q299.75 385.25 299.35 384.85 299.0 383.5 293.35 382.8 M282.8 383.4 L287.2 384.25 Q289.25 385.4 294.85 386.4 L289.3 385.55 281.85 384.1 281.3 383.95 282.8 383.4 M277.05 382.75 L281.15 383.2 280.55 383.35 279.9 383.9 274.5 383.4 273.25 383.3 277.05 382.75" fill="#8687ac" fill-rule="evenodd" stroke="none"/>
    <path d="M286.05 382.65 L290.6 382.5 293.35 382.8 Q299.0 383.5 299.35 384.85 299.75 385.25 298.8 385.45 297.6 385.75 294.45 385.5 L287.2 384.25 282.8 383.4 Q284.2 382.85 286.05 382.65 M293.7 382.1 L291.65 381.8 287.6 381.7 285.5 381.95 283.55 382.35 282.8 382.55 282.3 382.75 281.15 383.2 280.55 383.35 279.9 383.9 274.5 383.4 273.25 383.3 267.0 383.6 Q265.55 383.7 264.4 384.25 L267.2 382.8 275.8 382.55 277.05 382.75 281.15 383.2 M297.65 386.4 L300.3 385.85 300.4 384.9 Q299.65 383.6 297.8 383.1 L294.35 382.2 293.7 382.1 M297.65 386.4 L297.4 386.5 294.85 386.4 289.3 385.55 281.85 384.1 281.3 383.95 281.2 384.0 Q280.7 384.5 281.85 385.25 284.5 387.2 289.2 388.7 L289.45 388.8 Q291.8 390.1 292.2 391.6 292.6 393.1 292.3 392.95 292.3 395.4 289.7 397.15 287.1 398.85 285.45 399.65 279.95 402.2 276.4 400.45 L273.25 400.2 272.95 400.1 271.25 399.85 Q265.75 398.65 263.35 395.05 262.25 394.0 261.5 392.75 259.7 389.75 261.2 387.0 L261.45 386.6 Q262.3 385.2 263.95 384.45 L264.4 384.25 M290.45 394.5 L290.4 394.6 Q289.3 396.65 286.85 398.0 282.0 400.6 276.4 400.45 L273.0 400.05 272.95 400.05 Q270.8 399.25 268.55 397.75 L268.25 397.6 Q265.65 395.75 262.85 392.75 261.75 391.55 261.5 388.7 L263.95 384.45 M290.45 394.5 Q292.3 390.7 286.9 389.0 L286.4 388.8 Q282.65 387.8 280.4 385.5 L280.35 385.45 280.3 385.45 280.15 385.4 Q279.3 384.45 279.9 383.9 M281.3 383.95 L282.8 383.4 M273.25 400.2 L273.0 400.05" fill="none" stroke="#382510" stroke-linecap="round" stroke-linejoin="round" stroke-opacity="0.2" stroke-width="0.4"/>
    <path d="M293.35 382.8 L293.7 382.1 M282.8 382.55 L286.05 382.65 M298.8 385.45 L297.65 386.4 M286.85 398.0 L285.45 399.65 M292.3 392.95 L290.45 394.5 M280.4 385.5 L280.3 385.45 M273.25 383.3 L277.05 382.75 M280.4 385.5 L286.9 389.0 M287.2 384.25 Q289.25 385.4 294.85 386.4 M261.5 388.7 Q261.35 387.75 261.45 386.6 M263.35 395.05 L268.25 397.6" fill="none" stroke="#382510" stroke-linecap="round" stroke-linejoin="round" stroke-opacity="0.15294118" stroke-width="0.2"/>
    <path d="M277.2 398.95 Q276.55 399.4 276.55 400.4 L276.55 400.7 Q277.4 406.3 277.15 414.4 276.75 416.5 276.3 416.95 275.35 416.95 275.1 418.6 L274.95 420.3 Q274.4 419.3 273.95 419.05 273.55 416.75 274.35 411.9 L269.55 422.8 Q268.7 421.7 267.85 422.65 L267.3 418.0 266.4 414.75 265.8 419.55 Q264.9 420.2 263.7 419.85 L265.1 413.4 Q265.65 409.1 265.5 404.9 L265.2 401.8 265.15 401.3 Q266.15 397.4 269.75 397.65 273.5 398.05 273.5 398.85 L277.2 398.95 M271.6 398.1 L271.0 410.55 Q271.9 401.2 274.5 399.25 273.35 399.35 271.6 398.1 M270.85 415.15 L270.9 414.8 270.8 413.15 Q270.5 412.3 270.05 412.25 L269.95 412.25 269.35 412.4 Q269.05 412.6 268.95 413.55 L269.05 415.7 Q269.2 416.75 269.6 416.8 270.05 417.0 270.45 416.25 L270.85 415.15 M268.25 412.0 L268.25 411.9 268.15 410.75 267.7 409.5 Q267.35 408.85 267.15 409.1 L267.1 409.2 Q266.8 409.7 266.75 410.9 L266.95 412.5 Q267.1 413.0 267.4 413.0 L267.95 412.65 268.25 412.0" fill="#e7a843" fill-rule="evenodd" stroke="none"/>
    <path d="M276.3 416.95 Q276.75 416.5 277.15 414.4 277.4 406.3 276.55 400.7 L276.55 400.4 Q276.55 399.4 277.2 398.95 L279.15 398.55 279.55 398.7 Q281.55 399.2 281.4 399.95 277.85 400.15 278.05 403.05 L278.2 406.7 278.2 406.8 Q278.65 414.3 279.6 419.5 277.45 416.85 276.3 416.95 M265.8 419.55 L266.4 414.75 267.3 418.0 Q266.65 419.25 265.8 419.55 M269.55 422.8 L274.35 411.9 Q273.55 416.75 273.95 419.05 272.2 417.75 270.4 424.2 L269.55 422.8 M271.6 398.1 Q273.35 399.35 274.5 399.25 271.9 401.2 271.0 410.55 L271.6 398.1" fill="#ae6c0e" fill-rule="evenodd" stroke="none"/>
    <path d="M279.15 398.55 L277.2 398.95 273.5 398.85 Q273.5 398.05 269.75 397.65 266.15 397.4 265.15 401.3 264.5 397.0 266.9 396.45 L268.1 396.3 Q271.95 396.6 272.7 397.4 273.5 398.15 274.65 398.25 L276.95 398.35 279.15 398.55" fill="#fdbb24" fill-rule="evenodd" stroke="none"/>
    <path d="M276.3 416.95 Q277.45 416.85 279.6 419.5 278.65 414.3 278.2 406.8 L278.2 406.7 278.05 403.05 Q277.85 400.15 281.4 399.95 281.55 399.2 279.55 398.7 L279.15 398.55 276.95 398.35 274.65 398.25 Q273.5 398.15 272.7 397.4 271.95 396.6 268.1 396.3 L266.9 396.45 Q264.5 397.0 265.15 401.3 L265.2 401.8 265.5 404.9 Q265.65 409.1 265.1 413.4 L263.7 419.85 Q264.9 420.2 265.8 419.55 266.65 419.25 267.3 418.0 L267.85 422.65 Q268.7 421.7 269.55 422.8 L270.4 424.2 Q272.2 417.75 273.95 419.05 274.4 419.3 274.95 420.3 L275.1 418.6 Q275.35 416.95 276.3 416.95 M266.4 414.75 L267.3 418.0 M269.95 412.25 L269.35 412.4 Q269.05 412.6 268.95 413.55 L269.05 415.7 Q269.2 416.75 269.6 416.8 270.05 417.0 270.45 416.25 L270.85 415.15 M267.15 409.1 L267.1 409.2 Q266.8 409.7 266.75 410.9 L266.95 412.5 Q267.1 413.0 267.4 413.0 L267.95 412.65 268.25 412.0" fill="none" stroke="#000000" stroke-linecap="round" stroke-linejoin="round" stroke-opacity="0.3019608" stroke-width="0.7000000000000001"/>
    <path d="M267.6 398.5 L267.65 398.7 267.7 398.55 Q268.65 396.95 270.55 396.75 L269.6 396.45 267.3 396.0 Q266.5 396.95 267.6 398.5" fill="#000000" fill-opacity="0.3019608" fill-rule="evenodd" stroke="none"/>
    <path d="M267.65 398.7 L267.6 398.5 Q266.5 396.95 267.3 396.0 267.5 395.55 268.05 395.35 L269.05 395.4 Q269.6 393.8 267.3 392.9 267.05 392.95 266.75 393.15 263.15 394.1 264.45 396.75 265.5 398.85 266.25 399.0 L266.5 398.95 266.75 398.9 266.95 398.85 267.5 398.7 267.65 398.7" fill="#8d8f97" fill-rule="evenodd" stroke="none"/>
    <path d="M269.6 396.45 L270.55 396.75 271.05 396.05 Q270.3 392.45 267.3 392.9 269.6 393.8 269.05 395.4 L269.6 396.45" fill="#606367" fill-rule="evenodd" stroke="none"/>
    <path d="M267.6 398.5 Q266.5 396.95 267.3 396.0 267.5 395.55 268.05 395.35 L269.05 395.4 269.6 396.45 M266.25 399.0 Q265.5 398.85 264.45 396.75 263.15 394.1 266.75 393.15 267.05 392.95 267.3 392.9 270.3 392.45 271.05 396.05 L270.55 396.75" fill="none" stroke="#000000" stroke-linecap="round" stroke-linejoin="round" stroke-opacity="0.3019608" stroke-width="0.4"/>
    <path d="M266.0 394.65 Q266.0 394.15 265.7 394.2 L264.85 394.8 Q264.3 395.35 264.6 396.15 L265.5 397.45 266.25 397.9 Q266.55 397.9 266.4 397.3 L266.1 395.9 266.0 394.65" fill="#d8d9da" fill-rule="evenodd" stroke="none"/>
    <path d="M277.15 401.35 L277.2 401.2 Q278.15 399.6 280.05 399.4 L279.1 399.1 276.8 398.65 Q276.0 399.6 277.1 401.15 L277.15 401.35" fill="#000000" fill-opacity="0.3019608" fill-rule="evenodd" stroke="none"/>
    <path d="M275.75 401.65 L276.0 401.6 276.25 401.55 276.45 401.5 277.0 401.35 277.15 401.35 277.1 401.15 Q276.0 399.6 276.8 398.65 277.0 398.2 277.55 398.0 L278.55 398.05 Q279.1 396.45 276.8 395.55 276.55 395.6 276.25 395.8 272.65 396.75 273.95 399.4 275.0 401.5 275.75 401.65" fill="#8d8f97" fill-rule="evenodd" stroke="none"/>
    <path d="M280.05 399.4 L280.55 398.7 Q279.8 395.1 276.8 395.55 279.1 396.45 278.55 398.05 L279.1 399.1 280.05 399.4" fill="#606367" fill-rule="evenodd" stroke="none"/>
    <path d="M280.05 399.4 L280.55 398.7 Q279.8 395.1 276.8 395.55 276.55 395.6 276.25 395.8 272.65 396.75 273.95 399.4 275.0 401.5 275.75 401.65 M277.1 401.15 Q276.0 399.6 276.8 398.65 277.0 398.2 277.55 398.0 L278.55 398.05 279.1 399.1" fill="none" stroke="#000000" stroke-linecap="round" stroke-linejoin="round" stroke-opacity="0.3019608" stroke-width="0.4"/>
    <path d="M275.5 397.3 Q275.5 396.8 275.2 396.85 L274.35 397.45 Q273.8 398.0 274.1 398.8 L275.0 400.1 Q275.5 400.55 275.75 400.55 276.05 400.55 275.9 399.95 L275.6 398.55 275.5 397.3" fill="#d8d9da" fill-rule="evenodd" stroke="none"/>
  </g>
</svg>
