<?xml version="1.0" encoding="UTF-8" standalone="no"?>
<svg xmlns:xlink="http://www.w3.org/1999/xlink" height="44.4px" width="42.2px" xmlns="http://www.w3.org/2000/svg">
  <g transform="matrix(1.0, 0.0, 0.0, 1.0, -259.2, -380.9)">
    <path d="M291.05 386.85 L291.3 387.05 291.0 386.85 291.05 386.85" fill="#71684a" fill-rule="evenodd" stroke="none"/>
    <path d="M296.7 381.9 L296.35 382.45 294.5 382.15 291.25 382.0 289.0 381.8 289.55 381.65 291.0 381.45 292.4 381.35 295.25 381.6 296.7 381.9 M300.0 384.8 L299.15 385.55 298.95 385.5 297.1 385.35 Q293.25 384.35 291.9 383.3 L296.95 384.65 300.0 384.8 M274.25 390.7 Q273.55 389.85 273.15 388.8 272.1 386.35 273.45 384.25 L273.6 384.0 273.55 385.65 Q273.45 387.9 274.1 388.85 275.75 391.35 277.45 392.95 L274.25 390.7 M275.9 382.25 L278.0 381.3 284.1 381.45 284.95 381.65 282.2 381.95 277.75 381.85 275.9 382.25 M286.9 383.85 L291.05 386.85 291.0 386.85 Q288.4 385.9 287.0 384.0 L286.9 383.85" fill="#3c4a4f" fill-rule="evenodd" stroke="none"/>
    <path d="M296.35 382.45 L296.7 381.9 297.15 382.05 299.5 382.9 Q300.75 383.4 301.2 384.45 L301.0 385.2 299.15 385.55 300.0 384.8 Q300.7 384.7 300.45 384.35 300.3 383.3 296.35 382.45 M289.0 381.8 L291.25 382.0 288.9 382.45 287.8 382.85 288.9 382.45 291.9 383.3 Q293.25 384.35 297.1 385.35 L293.3 384.45 288.2 382.95 287.8 382.85 287.75 382.9 Q287.35 383.2 288.1 383.9 289.75 385.55 292.95 386.9 L293.15 387.0 Q294.65 388.15 294.8 389.3 L294.8 390.4 293.4 391.5 Q294.95 388.6 291.3 387.05 L291.05 386.85 286.9 383.85 Q286.35 383.1 286.85 382.7 L287.4 382.35 287.8 382.2 287.4 382.35 286.85 382.7 283.1 382.05 282.2 381.95 284.95 381.65 287.8 382.2 288.65 381.9 289.0 381.8 M289.4 395.35 L283.0 395.55 Q286.9 395.9 290.55 394.1 L289.4 395.35 M280.55 395.15 L279.4 394.75 Q275.65 393.6 274.25 390.7 L277.45 392.95 277.7 393.1 Q279.1 394.4 280.6 395.1 L280.55 395.15 M273.6 384.0 Q274.35 382.9 275.5 382.35 L273.55 385.65 273.6 384.0" fill="#2e393d" fill-rule="evenodd" stroke="none"/>
    <path d="M294.8 390.4 Q294.55 392.3 292.6 393.55 L289.4 395.35 290.55 394.1 Q292.4 393.15 293.3 391.6 L293.4 391.5 294.8 390.4" fill="#4f6653" fill-rule="evenodd" stroke="none"/>
    <path d="M296.7 381.9 L295.25 381.6 292.4 381.35 291.0 381.45 289.55 381.65 289.0 381.8 288.65 381.9 287.8 382.2 287.4 382.35 286.85 382.7 Q286.35 383.1 286.9 383.85 L287.0 384.0 Q288.4 385.9 291.0 386.85 L291.3 387.05 Q294.95 388.6 293.4 391.5 L293.3 391.6 Q292.4 393.15 290.55 394.1 286.9 395.9 283.0 395.55 L280.75 395.2 280.55 395.15 279.4 394.75 Q275.65 393.6 274.25 390.7 273.55 389.85 273.15 388.8 272.1 386.35 273.45 384.25 L273.6 384.0 Q274.35 382.9 275.5 382.35 L275.9 382.25 278.0 381.3 284.1 381.45 284.95 381.65 287.8 382.2 M291.25 382.0 L294.5 382.15 296.35 382.45 Q300.3 383.3 300.45 384.35 300.7 384.7 300.0 384.8 L296.95 384.65 291.9 383.3 288.9 382.45 291.25 382.0 M299.15 385.55 L301.0 385.2 301.2 384.45 Q300.75 383.4 299.5 382.9 L297.15 382.05 296.7 381.9 M297.1 385.35 L298.95 385.5 299.15 385.55 M297.1 385.35 L293.3 384.45 288.2 382.95 287.8 382.85 287.75 382.9 Q287.35 383.2 288.1 383.9 289.75 385.55 292.95 386.9 L293.15 387.0 Q294.65 388.15 294.8 389.3 L294.8 390.4 Q294.55 392.3 292.6 393.55 L289.4 395.35 283.0 395.55 280.65 395.1 280.6 395.1 Q279.1 394.4 277.7 393.1 L277.45 392.95 Q275.75 391.35 274.1 388.85 273.45 387.9 273.55 385.65 L275.5 382.35 M287.8 382.85 L288.9 382.45 M275.9 382.25 L277.75 381.85 282.2 381.95 283.1 382.05 286.85 382.7 M280.75 395.2 L280.65 395.1" fill="none" stroke="#382510" stroke-linecap="round" stroke-linejoin="round" stroke-opacity="0.2" stroke-width="0.4"/>
    <path d="M296.35 382.45 L296.7 381.9 M289.0 381.8 L291.25 382.0 M300.0 384.8 L299.15 385.55 M291.9 383.3 Q293.25 384.35 297.1 385.35 M286.9 383.85 L291.05 386.85 291.3 387.05 M293.4 391.5 L294.8 390.4 M282.2 381.95 L284.95 381.65 M290.55 394.1 L289.4 395.35 M273.55 385.65 L273.6 384.0 M274.25 390.7 L277.45 392.95" fill="none" stroke="#382510" stroke-linecap="round" stroke-linejoin="round" stroke-opacity="0.15294118" stroke-width="0.2"/>
    <path d="M277.9 393.9 Q276.7 393.0 276.2 393.05 275.7 393.1 274.75 393.75 L275.45 392.5 Q275.95 391.8 276.95 391.75 277.4 391.7 278.65 392.6 279.85 393.5 280.0 394.05 280.3 394.95 279.8 395.65 L278.4 397.15 279.25 395.35 Q279.1 394.8 277.9 393.9" fill="#6c5624" fill-rule="evenodd" stroke="none"/>
    <path d="M277.9 393.9 Q279.1 394.8 279.25 395.35 L278.4 397.15 279.8 395.65 Q280.3 394.95 280.0 394.05 279.85 393.5 278.65 392.6 277.4 391.7 276.95 391.75 275.95 391.8 275.45 392.5 L274.75 393.75 Q275.7 393.1 276.2 393.05 276.7 393.0 277.9 393.9 Z" fill="none" stroke="#382510" stroke-linecap="round" stroke-linejoin="round" stroke-opacity="0.3019608" stroke-width="1.0"/>
    <path d="M276.05 393.65 L276.65 394.05 276.85 394.2 276.85 394.6 Q276.8 394.95 278.05 395.15 L279.15 396.75 279.5 397.65 Q277.85 400.2 277.05 399.8 L276.95 399.65 275.9 398.15 Q273.65 394.4 276.05 393.65 M269.05 396.35 L271.35 393.4 271.55 393.3 Q272.85 393.5 269.4 396.1 L269.05 396.35" fill="#816629" fill-rule="evenodd" stroke="none"/>
    <path d="M273.1 392.9 Q273.25 393.85 270.6 395.75 269.85 395.8 269.4 396.1 272.85 393.5 271.55 393.3 272.15 392.85 273.1 392.9 M274.0 396.35 Q272.5 394.9 274.45 393.0 L274.55 393.05 Q274.65 393.35 275.2 393.4 275.75 393.35 276.05 393.65 273.65 394.4 275.9 398.15 L275.3 397.55 274.75 397.1 274.45 396.9 Q273.8 396.4 274.0 396.35 M279.5 399.0 L279.25 399.45 279.2 399.5 278.95 399.85 277.2 402.25 277.25 402.05 277.4 401.65 Q278.8 399.35 279.5 399.0" fill="#ae8a37" fill-rule="evenodd" stroke="none"/>
    <path d="M279.5 397.65 Q279.7 398.35 279.5 399.0 278.8 399.35 277.4 401.65 L277.3 400.5 277.05 399.8 Q277.85 400.2 279.5 397.65" fill="#6c5624" fill-rule="evenodd" stroke="none"/>
    <path d="M270.6 395.75 L270.7 395.7 271.0 395.8 274.0 396.35 Q273.8 396.4 274.45 396.9 L274.75 397.1 275.3 397.55 275.9 398.15 276.95 399.65 277.05 399.8 277.3 400.5 277.4 401.65 277.25 402.05 277.2 402.25 276.75 402.8 276.65 402.8 276.7 402.85 276.0 403.25 274.75 403.35 Q273.1 403.35 271.45 402.25 269.7 401.05 268.9 399.5 L268.5 398.55 268.45 398.0 Q268.4 397.3 268.7 396.75 L269.0 396.4 269.05 396.35 269.4 396.1 Q269.85 395.8 270.6 395.75" fill="#735b26" fill-rule="evenodd" stroke="none"/>
    <path d="M273.1 392.9 L273.2 392.85 274.45 393.0 Q272.5 394.9 274.0 396.35 L271.0 395.8 270.7 395.7 270.6 395.75 Q273.25 393.85 273.1 392.9" fill="#d8ca7c" fill-rule="evenodd" stroke="none"/>
    <path d="M274.45 393.0 L273.2 392.85 273.1 392.9 Q272.15 392.85 271.55 393.3 L271.35 393.4 269.05 396.35 269.0 396.4 268.7 396.75 Q268.4 397.3 268.45 398.0 L268.5 398.55 268.9 399.5 Q269.7 401.05 271.45 402.25 273.1 403.35 274.75 403.35 L276.0 403.25 276.7 402.85 M274.45 393.0 L274.55 393.05 Q274.65 393.35 275.2 393.4 275.75 393.35 276.05 393.65 L276.65 394.05 276.85 394.2 276.85 394.6 Q276.8 394.95 278.05 395.15 L279.15 396.75 279.5 397.65 Q279.7 398.35 279.5 399.0 L279.25 399.45 279.2 399.5 278.95 399.85 277.2 402.25 276.75 402.8" fill="none" stroke="#665122" stroke-linecap="round" stroke-linejoin="round" stroke-opacity="0.5529412" stroke-width="1.0"/>
    <path d="M278.9 400.45 Q279.85 402.0 280.2 404.15 L280.35 405.0 280.5 406.05 280.6 406.25 280.4 406.45 Q279.85 408.45 278.8 409.4 L277.05 410.85 Q277.1 411.85 276.7 412.1 L276.6 413.05 Q276.25 415.2 275.55 417.05 L274.7 418.75 274.4 419.35 274.25 420.15 274.15 420.65 273.85 421.7 273.85 423.7 273.15 423.7 272.8 423.0 Q271.2 424.6 268.9 424.8 266.45 424.95 264.05 423.6 L264.1 422.05 264.1 421.75 264.0 421.75 263.8 422.1 263.35 422.8 Q262.15 422.35 261.4 420.8 260.5 419.0 260.15 415.8 L260.1 413.5 Q259.8 411.8 260.05 409.5 L259.8 408.2 Q259.8 406.65 260.4 405.65 L260.55 405.5 260.55 405.4 Q259.75 403.95 259.7 402.75 L259.85 402.5 259.8 402.4 Q259.75 401.65 259.95 400.95 260.3 400.6 260.75 400.35 261.5 399.8 263.1 399.65 L263.35 399.65 262.35 398.95 Q263.15 398.1 263.85 398.15 263.45 397.45 263.6 396.6 L263.6 396.5 Q264.05 396.6 264.5 397.25 L264.95 397.7 264.75 397.35 264.6 396.05 Q264.45 395.1 264.6 394.0 L264.7 393.75 264.75 393.55 Q265.8 392.5 267.45 392.55 L268.7 392.7 269.8 393.0 269.95 393.0 270.25 393.3 270.5 393.4 M270.45 393.7 L270.35 393.7 269.8 393.8 269.15 394.1 268.4 394.55 267.8 394.85 267.2 395.4 266.55 395.85 266.35 396.25 266.1 396.8 265.8 397.4 Q265.7 398.3 266.0 399.3 L266.2 399.55 266.4 399.65 266.8 399.35 267.15 399.05 267.7 397.95 267.8 397.15 267.8 397.0 267.7 397.0 267.6 396.95 Q266.95 396.6 266.75 397.25 L266.75 397.45 266.7 397.55 266.9 397.75 267.0 397.7 267.1 397.7 267.3 397.55 M269.15 394.1 Q268.95 394.05 268.9 393.7 L268.9 393.6 268.8 393.5 268.85 393.35 268.75 393.2 268.6 393.1 268.45 393.2 268.45 393.25 Q267.95 394.05 267.8 394.85 M270.5 395.55 L268.95 395.25 268.8 395.35 268.75 395.45 268.65 395.45 268.45 395.8 268.35 396.0 268.2 396.1 Q268.1 396.05 268.0 396.25 L267.95 396.6 267.7 397.0 M264.95 397.7 L265.05 397.9 265.25 398.4 265.45 398.7 265.65 399.15 Q265.55 398.05 264.75 397.35 M266.4 399.65 L266.4 400.05 266.55 400.8 266.6 400.95 266.05 400.55 265.95 400.55 265.85 400.4 265.6 400.2 265.4 400.15 265.35 400.15 264.9 400.05 264.8 400.0 Q264.4 399.75 263.35 399.65 M265.45 398.7 L265.15 399.5 265.4 400.0 265.35 400.15 M265.65 399.15 L265.85 400.4 M269.85 404.25 L270.3 404.2 271.3 404.2 271.4 404.35 271.75 404.3 272.55 404.55 Q271.95 404.3 271.65 403.6 L271.4 403.05 M267.6 400.25 Q267.45 402.05 268.25 402.55 269.05 403.25 269.7 402.05 M260.55 405.5 L261.35 405.65 264.85 403.95 M276.7 412.1 Q276.25 412.1 275.85 411.7 L275.25 410.85 275.2 411.45 274.8 412.2 274.75 412.35 Q274.2 411.8 274.0 411.15 L273.85 410.65 Q273.6 409.7 273.65 408.25 L273.8 408.2 273.95 407.95 Q274.35 406.85 275.7 406.7 L276.65 407.1 277.9 406.15 M277.05 410.85 L277.05 410.0 277.05 409.8 Q277.8 409.5 278.15 408.85 L278.2 408.65 276.65 407.1 M272.15 405.65 L272.7 405.4 272.8 405.25 272.95 404.9 272.6 404.6 272.55 404.55 M265.55 404.55 L265.45 405.75 265.4 405.8 265.5 406.5 Q265.6 408.1 266.35 409.6 L266.55 410.4 Q268.45 412.75 270.3 412.45 L271.05 412.2 271.75 411.5 Q272.3 410.9 272.55 409.75 L272.55 408.7 272.5 408.35 272.5 408.2 272.3 407.3 272.3 407.05 M274.0 411.15 L274.45 409.25 275.3 410.25 275.9 410.3 275.75 408.6 275.2 408.2 M277.25 408.3 Q276.2 408.2 275.75 408.6 M275.3 410.25 L275.25 410.85 M262.65 414.8 L263.65 416.3 263.9 415.9 264.5 415.1 261.85 412.65 Q262.1 413.75 262.5 414.55 L262.65 414.8 M264.5 415.1 Q266.85 417.2 269.45 416.9 L269.6 416.95 272.4 417.2 273.7 417.85 M267.35 422.7 L266.9 423.15 265.85 423.2 264.95 422.9 Q264.5 422.65 264.55 422.35 264.6 422.05 265.05 421.9 L266.05 421.75 Q266.65 421.85 267.0 422.15 267.4 422.4 267.35 422.7 M274.15 420.65 L271.35 422.45 Q268.8 422.9 267.4 421.75 266.1 421.15 265.1 421.35 L264.1 421.75 M264.0 421.75 L263.9 421.35 263.75 420.65 263.6 420.65 262.7 420.95 Q262.25 421.2 262.3 421.5 L262.8 421.95 263.8 422.1 M263.65 416.3 Q263.2 418.15 263.65 420.2 L263.75 420.65 M264.1 419.0 L264.65 420.05 266.65 420.05 M260.05 409.5 Q260.5 411.05 261.85 412.65 M261.4 420.8 Q263.0 419.4 263.65 420.2 M272.95 404.9 Q273.75 403.8 274.9 403.05" fill="none" stroke="#000000" stroke-linecap="round" stroke-linejoin="round" stroke-opacity="0.3019608" stroke-width="1.0"/>
    <path d="M264.75 393.8 L264.8 393.6 Q265.85 392.55 267.5 392.6 L268.75 392.75 269.85 393.05 270.0 393.05 270.3 393.35 271.3 393.65 271.9 393.85 273.5 394.55 275.15 396.45 275.65 397.65 Q276.2 397.65 276.75 398.05 L277.75 398.7 278.35 399.65 Q279.8 401.45 280.25 404.2 L280.4 405.05 280.55 406.1 280.2 405.6 Q280.0 405.05 279.6 404.8 L279.5 404.75 Q278.95 404.25 278.15 404.05 L277.5 404.1 277.2 404.05 276.65 403.6 Q276.0 402.85 276.0 402.4 L276.55 402.2 276.7 401.55 Q277.2 401.1 277.15 400.5 L277.05 400.5 Q276.8 400.1 276.35 400.15 L275.85 400.25 275.25 400.3 274.8 400.25 274.5 401.0 274.45 402.0 274.6 402.05 274.6 402.15 273.85 402.75 272.4 402.45 Q271.65 402.0 271.55 401.6 L271.45 400.85 Q271.85 400.35 272.2 400.5 L272.7 401.1 272.2 400.5 Q271.85 400.35 271.45 400.85 L271.2 401.4 271.05 402.0 271.3 402.8 270.65 402.7 270.05 402.2 269.75 402.1 269.6 401.9 269.1 401.2 268.5 400.65 Q267.95 400.3 267.7 400.3 L267.65 400.3 Q267.35 400.4 267.05 399.8 L266.95 399.65 266.85 399.4 267.2 399.1 267.75 398.0 267.2 398.35 266.6 398.25 Q266.2 397.9 266.15 397.55 L266.15 396.85 Q266.15 396.6 266.4 396.3 L266.6 395.9 267.25 395.45 266.75 395.35 Q266.05 395.55 265.5 395.15 L265.35 395.0 265.25 394.9 265.1 394.8 265.0 394.75 264.9 394.25 264.75 393.8 M260.0 401.0 L260.8 400.4 Q261.55 399.85 263.15 399.7 L263.4 399.7 264.85 400.05 264.95 400.1 265.1 400.15 265.65 400.75 265.75 400.85 266.05 401.5 266.3 402.4 266.5 403.05 266.7 403.45 266.5 403.45 266.5 403.5 266.4 403.75 266.65 403.8 266.85 404.35 267.35 404.85 268.2 405.3 269.05 405.25 Q269.65 405.35 270.05 405.65 L270.85 405.55 270.85 405.2 270.85 405.05 270.7 404.95 272.35 405.15 272.25 405.35 272.2 405.7 272.3 406.7 272.35 407.1 272.35 407.35 272.55 408.25 272.55 408.4 272.6 408.75 272.6 409.8 Q271.15 410.1 268.85 408.65 266.5 406.95 265.65 404.65 L265.6 404.6 265.6 404.5 265.5 404.4 Q265.4 404.2 264.9 404.0 264.45 403.65 263.3 403.25 261.1 402.65 260.65 401.95 L260.0 401.0 M262.4 399.0 Q263.2 398.15 263.9 398.2 263.85 398.45 263.95 398.55 L264.05 398.95 262.4 399.0 M263.65 396.65 L263.65 396.55 Q264.1 396.65 264.55 397.3 L264.55 397.35 264.2 397.6 263.9 396.95 263.65 396.65 M267.85 394.9 L267.25 395.45 267.85 394.9 268.45 394.6 Q268.4 394.2 268.6 394.05 L268.55 393.35 268.5 393.25 268.5 393.3 Q268.0 394.1 267.85 394.9 M268.85 393.55 L268.9 393.4 268.8 393.25 268.65 393.15 268.5 393.25 268.65 393.15 268.8 393.25 268.9 393.4 268.85 393.55 268.85 393.4 268.75 393.35 268.7 393.2 268.65 393.3 268.7 393.6 268.7 393.8 268.85 393.95 268.95 393.75 268.95 393.65 268.85 393.55 M269.85 393.85 L269.2 394.15 Q269.0 394.1 268.95 393.75 269.0 394.1 269.2 394.15 L269.85 393.85 269.55 394.2 269.5 394.3 269.8 394.35 270.55 394.3 271.3 394.3 271.95 394.45 272.6 394.65 272.6 394.45 272.5 394.35 Q272.35 394.1 271.75 394.0 L271.3 393.65 270.6 393.75 271.3 393.65 271.3 393.85 271.05 393.85 270.6 393.75 270.5 393.75 270.4 393.75 269.85 393.85 M273.85 398.85 L273.2 397.5 273.1 397.1 273.15 396.95 273.1 396.95 273.0 397.0 272.65 396.55 Q271.85 395.35 270.55 394.95 L270.1 394.9 Q270.1 394.8 269.9 394.8 L269.75 394.8 268.8 394.95 Q267.95 395.45 267.8 396.15 L267.65 397.0 267.75 397.05 268.0 396.65 268.15 396.8 270.6 398.6 271.1 399.1 271.3 399.25 271.45 399.25 273.9 401.3 274.1 400.2 273.9 398.85 273.85 398.85 M272.65 402.0 L273.0 402.1 273.2 401.9 273.6 401.55 273.9 401.3 273.6 401.55 273.2 401.9 273.0 402.1 272.65 402.0 272.7 401.1 272.5 401.3 272.4 401.55 Q272.25 401.45 272.25 401.2 L272.05 401.3 272.15 401.5 Q272.25 402.15 272.65 402.0 M275.65 397.65 L276.4 399.65 275.05 399.55 274.8 400.25 275.05 399.55 276.4 399.65 275.65 397.65 M269.2 394.15 L268.45 394.6 269.2 394.15 M267.2 393.15 L267.3 392.95 267.2 392.95 267.2 393.15 M267.75 397.05 L267.85 397.05 267.85 397.2 267.75 398.0 267.85 397.2 267.85 397.05 267.75 397.05 M266.8 397.5 L266.75 397.6 266.95 397.8 267.05 397.75 267.15 397.75 267.35 397.6 267.35 397.45 267.25 397.4 267.2 397.2 266.95 397.2 266.8 397.5 266.8 397.3 Q267.0 396.65 267.65 397.0 267.0 396.65 266.8 397.3 L266.8 397.5 M270.8 395.8 L270.9 395.85 270.8 395.9 270.8 395.8 M264.6 400.95 L264.75 401.1 Q264.9 401.35 265.1 401.2 L265.1 401.35 Q265.4 401.5 265.45 401.25 L265.35 400.55 265.3 400.55 265.25 400.4 265.05 400.35 265.0 400.35 264.5 400.0 Q264.15 399.95 264.35 400.65 L264.6 400.95 M273.6 395.25 Q273.5 395.35 273.75 395.6 L274.0 395.8 274.15 395.9 274.55 396.15 274.25 395.5 274.25 395.45 274.05 395.4 Q273.65 395.0 273.6 395.25 M276.05 399.7 L275.6 399.7 275.85 400.1 276.1 400.1 276.35 399.85 276.15 399.75 276.05 399.7 M276.4 399.65 L277.1 400.25 277.15 400.5 277.1 400.25 276.4 399.65 M278.2 408.9 L278.05 408.6 277.3 408.35 276.7 407.95 275.25 407.85 275.25 408.25 275.25 408.4 275.45 409.05 275.2 408.7 274.7 408.35 274.4 408.15 274.0 408.0 Q274.4 406.9 275.75 406.75 L276.7 407.15 278.25 408.7 278.2 408.9 M262.95 406.35 Q262.85 405.85 263.25 405.6 L263.95 405.5 264.6 406.25 Q265.1 406.95 264.95 407.5 264.8 407.85 264.65 407.65 L264.2 407.75 263.85 407.3 263.25 406.9 Q262.95 406.75 262.95 406.35" fill="#ebb513" fill-rule="evenodd" stroke="none"/>
    <path d="M268.85 393.55 L268.95 393.65 268.95 393.75 268.85 393.95 268.7 393.8 268.7 393.6 268.65 393.3 268.7 393.2 268.75 393.35 268.85 393.4 268.85 393.55 M269.85 393.85 L270.4 393.75 270.5 393.75 270.6 393.75 271.05 393.85 271.3 393.85 271.3 393.65 271.75 394.0 Q272.35 394.1 272.5 394.35 L272.6 394.45 272.6 394.65 271.95 394.45 271.3 394.3 270.55 394.3 269.8 394.35 269.5 394.3 269.55 394.2 269.85 393.85 M267.2 393.15 L267.2 392.95 267.3 392.95 267.2 393.15 M264.6 400.95 L264.35 400.65 Q264.15 399.95 264.5 400.0 L265.0 400.35 265.05 400.35 265.25 400.4 265.3 400.55 265.35 400.55 265.45 401.25 Q265.4 401.5 265.1 401.35 L265.1 401.2 Q264.9 401.35 264.75 401.1 L264.6 400.95 M266.7 403.45 L267.45 404.45 268.75 404.75 269.4 404.9 270.35 404.8 270.7 404.95 270.85 405.05 270.85 405.2 270.85 405.55 270.05 405.65 Q269.65 405.35 269.05 405.25 L268.2 405.3 267.35 404.85 266.85 404.35 266.65 403.8 266.4 403.75 266.5 403.5 266.5 403.45 266.7 403.45 M273.6 395.25 Q273.65 395.0 274.05 395.4 L274.25 395.45 274.25 395.5 274.55 396.15 274.15 395.9 274.0 395.8 273.75 395.6 Q273.5 395.35 273.6 395.25 M276.05 399.7 L276.15 399.75 276.35 399.85 276.1 400.1 275.85 400.1 275.6 399.7 276.05 399.7" fill="#ffffff" fill-rule="evenodd" stroke="none"/>
    <path d="M280.55 406.1 L280.65 406.3 280.45 406.5 Q279.9 408.5 278.85 409.45 L277.1 410.9 Q277.15 411.9 276.75 412.15 L276.65 413.1 Q276.3 415.25 275.6 417.1 L275.2 416.6 Q273.35 415.1 271.6 415.6 L268.25 415.75 266.1 415.55 263.35 413.7 Q261.95 412.6 261.25 410.8 L260.6 409.4 259.85 408.25 Q259.85 406.7 260.45 405.7 L260.6 405.55 260.6 405.45 260.95 405.55 261.35 405.45 Q262.2 405.3 262.35 404.9 L262.25 404.4 262.0 404.15 Q261.75 403.9 261.2 403.75 260.8 403.8 260.3 403.35 L259.9 403.1 259.85 402.8 259.75 402.8 259.9 402.55 259.85 402.45 Q259.8 401.7 260.0 401.0 L260.65 401.95 Q261.1 402.65 263.3 403.25 264.45 403.65 264.9 404.0 265.4 404.2 265.5 404.4 L265.6 404.5 265.6 404.6 265.65 404.65 Q266.5 406.95 268.85 408.65 271.15 410.1 272.6 409.8 L272.6 408.75 272.55 408.4 272.55 408.25 272.35 407.35 272.35 407.1 272.3 406.7 272.2 405.7 272.25 405.35 272.35 405.15 272.65 404.65 272.6 404.6 Q272.25 404.65 271.8 404.35 L271.45 404.4 271.35 404.25 270.35 404.25 269.9 404.3 269.5 404.25 269.7 404.3 268.05 403.95 267.3 403.65 267.35 403.6 267.2 403.4 266.9 403.25 266.95 403.15 266.8 402.85 Q266.75 402.6 266.5 402.5 L266.4 401.6 266.2 400.9 266.0 400.7 266.1 400.6 266.0 400.6 265.9 400.45 265.65 400.25 265.45 400.2 265.4 400.2 264.95 400.1 264.85 400.05 263.4 399.7 262.4 399.0 264.05 398.95 263.95 398.55 Q263.85 398.45 263.9 398.2 263.5 397.5 263.65 396.65 L263.9 396.95 264.2 397.6 264.55 397.35 264.55 397.3 265.0 397.75 264.8 397.4 264.65 396.1 Q264.5 395.15 264.65 394.05 L264.75 393.8 264.9 394.25 265.0 394.75 265.1 394.8 265.25 394.9 265.35 395.0 265.5 395.15 Q266.05 395.55 266.75 395.35 L267.25 395.45 266.6 395.9 266.4 396.3 Q266.15 396.6 266.15 396.85 L266.15 397.55 Q266.2 397.9 266.6 398.25 L267.2 398.35 267.75 398.0 267.2 399.1 266.85 399.4 266.95 399.65 267.05 399.8 Q267.35 400.4 267.65 400.3 L267.7 400.3 Q267.95 400.3 268.5 400.65 L269.1 401.2 269.6 401.9 269.75 402.1 270.05 402.2 270.65 402.7 271.3 402.8 271.05 402.0 271.2 401.4 271.45 400.85 271.55 401.6 Q271.65 402.0 272.4 402.45 L273.85 402.75 274.6 402.15 274.6 402.05 274.45 402.0 274.5 401.0 274.8 400.25 275.25 400.3 275.85 400.25 276.35 400.15 Q276.8 400.1 277.05 400.5 L277.15 400.5 Q277.2 401.1 276.7 401.55 L276.55 402.2 276.0 402.4 275.8 402.6 276.0 402.25 276.7 401.55 276.0 402.25 275.8 402.6 276.0 402.4 Q276.0 402.85 276.65 403.6 L277.2 404.05 277.5 404.1 278.15 404.05 Q278.95 404.25 279.5 404.75 L279.6 404.8 Q280.0 405.05 280.2 405.6 L280.55 406.1 M274.2 420.7 L273.9 421.75 273.9 423.75 273.2 423.75 272.85 423.05 Q271.25 424.65 268.95 424.85 266.5 425.0 264.1 423.65 L264.15 422.1 264.15 421.8 265.15 421.4 Q266.15 421.2 267.45 421.8 268.85 422.95 271.4 422.5 L274.2 420.7 M263.85 422.15 L263.4 422.85 Q262.2 422.4 261.45 420.85 263.05 419.45 263.7 420.25 L263.8 420.7 263.65 420.7 Q263.1 420.75 262.75 421.0 262.3 421.25 262.35 421.55 L262.85 422.0 263.85 422.15 M267.85 394.9 Q268.0 394.1 268.5 393.3 L268.5 393.25 268.55 393.35 268.6 394.05 Q268.4 394.2 268.45 394.6 L267.85 394.9 M267.65 397.0 L267.8 396.15 Q267.95 395.45 268.8 394.95 L269.75 394.8 269.9 394.8 Q270.1 394.8 270.1 394.9 L270.55 394.95 Q271.85 395.35 272.65 396.55 L273.0 397.0 273.1 396.95 273.15 396.95 273.1 397.1 273.2 397.5 273.85 398.85 Q272.65 396.6 271.15 395.85 270.05 395.3 269.0 395.3 L268.85 395.4 268.8 395.5 268.85 395.4 269.0 395.3 Q270.05 395.3 271.15 395.85 272.65 396.6 273.85 398.85 L273.9 398.85 274.1 400.2 270.65 397.6 270.35 397.45 270.15 397.3 269.85 397.2 Q269.9 396.95 268.75 396.45 L268.25 396.15 268.05 396.3 268.0 396.65 267.75 397.05 267.65 397.0 M268.7 395.5 L268.5 395.85 268.4 396.05 268.25 396.15 268.4 396.05 268.5 395.85 268.7 395.5 268.8 395.5 268.7 395.5 M272.65 402.0 Q272.25 402.15 272.15 401.5 L272.05 401.3 272.25 401.2 Q272.25 401.45 272.4 401.55 L272.5 401.3 272.7 401.1 272.65 402.0 M267.35 397.6 L267.15 397.75 267.05 397.75 266.95 397.8 266.75 397.6 266.8 397.5 266.95 397.2 267.2 397.2 267.25 397.4 267.35 397.45 267.35 397.6 M270.8 395.8 L270.8 395.9 270.9 395.85 270.8 395.8 M266.15 396.85 L265.85 397.45 Q265.75 398.35 266.05 399.35 L266.25 399.6 266.45 399.7 266.45 400.1 266.6 400.85 266.65 401.0 266.1 400.6 266.65 401.0 266.6 400.85 266.45 400.1 266.45 399.7 266.25 399.6 266.05 399.35 Q265.75 398.35 265.85 397.45 L266.15 396.85 M264.8 397.4 Q265.6 398.1 265.7 399.2 L265.5 398.75 265.3 398.45 265.1 397.95 265.0 397.75 265.1 397.95 265.3 398.45 265.5 398.75 265.7 399.2 Q265.6 398.1 264.8 397.4 M265.9 400.45 L265.7 399.2 265.9 400.45 M265.4 400.2 L265.45 400.05 265.2 399.55 265.5 398.75 265.2 399.55 265.45 400.05 265.4 400.2 M266.85 399.4 L266.45 399.7 266.85 399.4 M269.75 402.1 Q269.1 403.3 268.3 402.6 267.5 402.1 267.65 400.3 267.5 402.1 268.3 402.6 269.1 403.3 269.75 402.1 M272.6 404.6 Q272.0 404.35 271.7 403.65 L271.4 402.95 271.3 402.8 271.4 402.95 271.7 403.65 Q272.0 404.35 272.6 404.6 M275.8 402.6 L275.75 402.6 275.65 402.65 275.55 402.6 275.5 402.6 275.5 402.7 275.15 402.95 Q274.75 403.05 274.6 402.15 274.75 403.05 275.15 402.95 L275.5 402.7 275.5 402.6 275.55 402.6 275.65 402.65 275.75 402.6 275.8 402.6 M277.95 406.2 Q277.3 406.45 276.7 407.15 277.3 406.45 277.95 406.2 M264.9 404.0 L261.4 405.7 260.6 405.55 261.4 405.7 264.9 404.0 M274.0 408.0 L274.4 408.15 274.7 408.35 275.2 408.7 275.45 409.05 275.25 408.4 275.25 408.25 275.25 407.85 276.7 407.95 277.3 408.35 278.05 408.6 278.2 408.9 278.25 408.7 276.7 407.15 275.75 406.75 Q274.4 406.9 274.0 408.0 L273.85 408.25 273.7 408.3 Q273.65 409.75 273.9 410.7 L274.05 411.2 274.5 409.3 275.35 410.3 275.95 410.35 275.8 408.65 275.25 408.25 275.8 408.65 275.95 410.35 275.35 410.3 274.5 409.3 274.05 411.2 273.9 410.7 Q273.65 409.75 273.7 408.3 L273.85 408.25 274.0 408.0 M272.65 404.65 L273.0 404.95 272.85 405.3 272.75 405.45 272.2 405.7 272.75 405.45 272.85 405.3 273.0 404.95 272.65 404.65 M277.1 410.9 L277.1 410.05 277.1 409.85 Q277.85 409.55 278.2 408.9 277.85 409.55 277.1 409.85 L277.1 410.05 277.1 410.9 M271.8 411.55 L271.8 411.5 271.55 411.1 270.95 411.0 270.3 411.1 Q269.3 411.45 268.1 410.5 L267.05 409.35 267.1 409.3 266.7 408.45 266.1 407.4 265.7 406.55 265.55 406.55 Q265.65 408.15 266.4 409.65 L266.6 410.45 Q268.5 412.8 270.35 412.5 270.8 412.55 271.1 412.25 L271.8 411.55 Q272.35 410.95 272.6 409.8 272.35 410.95 271.8 411.55 M265.55 406.55 L265.45 405.85 265.5 405.8 265.6 404.6 265.5 405.8 265.45 405.85 265.55 406.55 M275.8 408.65 Q276.25 408.25 277.3 408.35 276.25 408.25 275.8 408.65 M275.3 410.9 L275.35 410.3 275.3 410.9 275.9 411.75 Q276.3 412.15 276.75 412.15 276.3 412.15 275.9 411.75 L275.3 410.9 275.25 411.5 274.85 412.25 274.8 412.4 Q274.25 411.85 274.05 411.2 274.25 411.85 274.8 412.4 L274.85 412.25 275.25 411.5 275.3 410.9 M262.95 406.35 Q262.95 406.75 263.25 406.9 L263.85 407.3 264.2 407.75 264.65 407.65 Q264.8 407.85 264.95 407.5 265.1 406.95 264.6 406.25 L263.95 405.5 263.25 405.6 Q262.85 405.85 262.95 406.35 M262.7 414.85 L262.55 414.6 262.7 414.6 262.7 414.85 M267.4 422.75 L267.05 422.2 266.1 421.8 265.1 421.95 Q264.65 422.1 264.6 422.4 264.55 422.7 265.0 422.95 265.35 423.2 265.9 423.25 L266.95 423.2 267.4 422.75 M275.15 402.95 Q273.9 403.75 273.0 404.95 273.9 403.75 275.15 402.95" fill="#af510c" fill-rule="evenodd" stroke="none"/>
    <path d="M260.6 405.45 Q259.8 404.0 259.75 402.8 L259.85 402.8 259.9 403.1 260.3 403.35 Q260.8 403.8 261.2 403.75 261.75 403.9 262.0 404.15 L262.25 404.4 262.35 404.9 Q262.2 405.3 261.35 405.45 L260.95 405.55 260.6 405.45 M268.0 396.65 L268.05 396.3 268.25 396.15 268.75 396.45 Q269.9 396.95 269.85 397.2 L270.15 397.3 270.35 397.45 270.65 397.6 274.1 400.2 273.9 401.3 271.45 399.25 271.3 399.25 271.1 399.1 270.6 398.6 268.15 396.8 268.0 396.65 M266.7 403.45 L266.5 403.05 266.3 402.4 266.05 401.5 265.75 400.85 265.65 400.75 265.1 400.15 264.95 400.1 265.4 400.2 265.45 400.2 265.65 400.25 265.9 400.45 266.0 400.6 266.1 400.6 266.0 400.7 266.2 400.9 266.4 401.6 266.5 402.5 Q266.75 402.6 266.8 402.85 L266.95 403.15 266.9 403.25 267.2 403.4 267.35 403.6 267.3 403.65 268.05 403.95 269.7 404.3 269.5 404.25 269.9 404.3 270.35 404.25 271.35 404.25 271.45 404.4 271.8 404.35 Q272.25 404.65 272.6 404.6 L272.65 404.65 272.35 405.15 270.7 404.95 270.35 404.8 269.4 404.9 268.75 404.75 267.45 404.45 266.7 403.45 M265.55 406.55 L265.7 406.55 266.1 407.4 266.7 408.45 267.1 409.3 267.05 409.35 268.1 410.5 Q269.3 411.45 270.3 411.1 L270.95 411.0 271.55 411.1 271.8 411.5 271.8 411.55 271.1 412.25 Q270.8 412.55 270.35 412.5 268.5 412.8 266.6 410.45 L266.4 409.65 Q265.65 408.15 265.55 406.55" fill="#c96f14" fill-rule="evenodd" stroke="none"/>
    <path d="M275.6 417.1 L274.75 418.8 274.55 418.5 274.15 418.1 273.75 417.9 272.45 417.25 269.65 417.0 269.5 416.95 Q266.9 417.25 264.55 415.15 L261.9 412.7 Q260.55 411.1 260.1 409.55 L259.85 408.25 260.6 409.4 261.25 410.8 Q261.95 412.6 263.35 413.7 L266.1 415.55 268.25 415.75 271.6 415.6 Q273.35 415.1 275.2 416.6 L275.6 417.1" fill="#df870f" fill-rule="evenodd" stroke="none"/>
    <path d="M274.75 418.8 L274.45 419.4 274.3 420.2 274.2 420.7 271.4 422.5 Q268.85 422.95 267.45 421.8 266.15 421.2 265.15 421.4 L264.15 421.8 264.05 421.8 263.95 421.4 263.8 420.7 263.7 420.25 Q263.25 418.2 263.7 416.35 L262.7 414.85 262.7 414.6 262.55 414.6 Q262.15 413.8 261.9 412.7 L264.55 415.15 Q266.9 417.25 269.5 416.95 L269.65 417.0 272.45 417.25 273.75 417.9 274.15 418.1 274.55 418.5 274.75 418.8 M264.55 415.15 L263.95 415.95 263.7 416.35 263.95 415.95 264.55 415.15 M267.4 422.75 L266.95 423.2 265.9 423.25 Q265.35 423.2 265.0 422.95 264.55 422.7 264.6 422.4 264.65 422.1 265.1 421.95 L266.1 421.8 267.05 422.2 267.4 422.75 M266.7 420.1 L264.7 420.1 264.15 419.05 264.7 420.1 266.7 420.1" fill="#97420b" fill-rule="evenodd" stroke="none"/>
    <path d="M264.05 421.8 L263.85 422.15 262.85 422.0 262.35 421.55 Q262.3 421.25 262.75 421.0 263.1 420.75 263.65 420.7 L263.8 420.7 263.95 421.4 264.05 421.8 M261.45 420.85 Q260.55 419.05 260.2 415.85 L260.15 413.55 Q259.85 411.85 260.1 409.55 260.55 411.1 261.9 412.7 262.15 413.8 262.55 414.6 L262.7 414.85 263.7 416.35 Q263.25 418.2 263.7 420.25 263.05 419.45 261.45 420.85" fill="#873c0a" fill-rule="evenodd" stroke="none"/>
    <path d="M264.75 393.8 L264.8 393.6 Q265.85 392.55 267.5 392.6 L268.75 392.75 269.85 393.05 270.0 393.05 270.3 393.35 271.3 393.65 271.9 393.85 273.5 394.55 275.15 396.45 275.65 397.65 Q276.2 397.65 276.75 398.05 L277.75 398.7 278.35 399.65 Q279.8 401.45 280.25 404.2 L280.4 405.05 280.55 406.1 280.65 406.3 280.45 406.5 Q279.9 408.5 278.85 409.45 L277.1 410.9 Q277.15 411.9 276.75 412.15 L276.65 413.1 Q276.3 415.25 275.6 417.1 L274.75 418.8 274.45 419.4 274.3 420.2 274.2 420.7 273.9 421.75 M264.1 423.65 L264.15 422.1 264.15 421.8 264.05 421.8 263.85 422.15 263.4 422.85 M260.2 415.85 L260.15 413.55 Q259.85 411.85 260.1 409.55 L259.85 408.25 Q259.85 406.7 260.45 405.7 L260.6 405.55 260.6 405.45 Q259.8 404.0 259.75 402.8 L259.9 402.55 259.85 402.45 Q259.8 401.7 260.0 401.0 L260.8 400.4 Q261.55 399.85 263.15 399.7 L263.4 399.7 262.4 399.0 Q263.2 398.15 263.9 398.2 263.5 397.5 263.65 396.65 L263.65 396.55 Q264.1 396.65 264.55 397.3 L265.0 397.75 264.8 397.4 264.65 396.1 Q264.5 395.15 264.65 394.05 L264.75 393.8 M265.0 394.75 L265.1 394.8 M265.25 394.9 L265.35 395.0 M267.25 395.45 L267.85 394.9 Q268.0 394.1 268.5 393.3 L268.5 393.25 268.65 393.15 268.8 393.25 268.9 393.4 268.85 393.55 268.95 393.65 268.95 393.75 Q269.0 394.1 269.2 394.15 L269.85 393.85 270.4 393.75 270.5 393.75 270.6 393.75 271.3 393.65 M267.65 397.0 L267.75 397.05 268.0 396.65 268.05 396.3 268.25 396.15 268.4 396.05 268.5 395.85 268.7 395.5 M268.8 395.5 L268.85 395.4 269.0 395.3 Q270.05 395.3 271.15 395.85 272.65 396.6 273.85 398.85 L273.9 398.85 274.1 400.2 273.9 401.3 273.6 401.55 273.2 401.9 273.0 402.1 272.65 402.0 Q272.25 402.15 272.15 401.5 L272.05 401.3 272.25 401.2 M272.7 401.1 L272.2 400.5 Q271.85 400.35 271.45 400.85 L271.2 401.4 271.05 402.0 271.3 402.8 271.4 402.95 271.7 403.65 Q272.0 404.35 272.6 404.6 272.25 404.65 271.8 404.35 L271.45 404.4 271.35 404.25 270.35 404.25 269.9 404.3 M274.6 402.15 L274.6 402.05 274.45 402.0 274.5 401.0 274.8 400.25 275.05 399.55 276.4 399.65 275.65 397.65 M268.45 394.6 L269.2 394.15 M268.45 394.6 L267.85 394.9 M267.25 395.45 L266.6 395.9 266.4 396.3 Q266.15 396.6 266.15 396.85 L265.85 397.45 Q265.75 398.35 266.05 399.35 L266.25 399.6 266.45 399.7 266.85 399.4 267.2 399.1 267.75 398.0 267.85 397.2 267.85 397.05 267.75 397.05 M267.35 397.6 L267.15 397.75 267.05 397.75 266.95 397.8 266.75 397.6 266.8 397.5 266.8 397.3 Q267.0 396.65 267.65 397.0 M265.0 397.75 L265.1 397.95 265.3 398.45 265.5 398.75 265.7 399.2 Q265.6 398.1 264.8 397.4 M266.1 400.6 L266.65 401.0 266.6 400.85 266.45 400.1 266.45 399.7 M264.95 400.1 L264.85 400.05 263.4 399.7 M272.65 404.65 L272.6 404.6 M266.1 400.6 L266.0 400.6 265.9 400.45 265.65 400.25 265.45 400.2 265.4 400.2 264.95 400.1 M265.5 398.75 L265.2 399.55 265.45 400.05 265.4 400.2 M265.7 399.2 L265.9 400.45 M265.6 404.5 L265.6 404.6 265.5 405.8 265.45 405.85 265.55 406.55 Q265.65 408.15 266.4 409.65 L266.6 410.45 Q268.5 412.8 270.35 412.5 270.8 412.55 271.1 412.25 L271.8 411.55 Q272.35 410.95 272.6 409.8 L272.6 408.75 272.55 408.4 272.55 408.25 272.35 407.35 272.35 407.1 M267.65 400.3 Q267.5 402.1 268.3 402.6 269.1 403.3 269.75 402.1 M276.7 401.55 L276.0 402.25 275.8 402.6 276.0 402.4 276.55 402.2 276.7 401.55 Q277.2 401.1 277.15 400.5 L277.1 400.25 276.4 399.65 M274.6 402.15 Q274.75 403.05 275.15 402.95 L275.5 402.7 275.5 402.6 275.55 402.6 275.65 402.65 275.75 402.6 275.8 402.6 M272.7 401.1 L272.65 402.0 M260.6 405.55 L261.4 405.7 264.9 404.0 M276.7 407.15 Q277.3 406.45 277.95 406.2 M278.2 408.9 L278.25 408.7 276.7 407.15 275.75 406.75 Q274.4 406.9 274.0 408.0 L273.85 408.25 273.7 408.3 Q273.65 409.75 273.9 410.7 L274.05 411.2 274.5 409.3 275.35 410.3 275.95 410.35 275.8 408.65 275.25 408.25 M278.2 408.9 Q277.85 409.55 277.1 409.85 L277.1 410.05 277.1 410.9 M272.2 405.7 L272.75 405.45 272.85 405.3 273.0 404.95 272.65 404.65 M276.75 412.15 Q276.3 412.15 275.9 411.75 L275.3 410.9 275.25 411.5 274.85 412.25 274.8 412.4 Q274.25 411.85 274.05 411.2 M275.35 410.3 L275.3 410.9 M277.3 408.35 Q276.25 408.25 275.8 408.65 M262.55 414.6 L262.7 414.85 263.7 416.35 263.95 415.95 264.55 415.15 261.9 412.7 Q260.55 411.1 260.1 409.55 M262.55 414.6 Q262.15 413.8 261.9 412.7 M264.55 415.15 Q266.9 417.25 269.5 416.95 L269.65 417.0 272.45 417.25 273.75 417.9 M263.7 420.25 L263.8 420.7 263.95 421.4 264.05 421.8 M263.7 420.25 Q263.25 418.2 263.7 416.35 M273.0 404.95 Q273.9 403.75 275.15 402.95" fill="none" stroke="#422f1d" stroke-linecap="round" stroke-linejoin="round" stroke-opacity="0.4" stroke-width="0.05"/>
    <path d="M272.85 423.05 Q271.25 424.65 268.95 424.85 266.5 425.0 264.1 423.65 M263.4 422.85 Q262.2 422.4 261.45 420.85 260.55 419.05 260.2 415.85 M268.7 395.5 L268.8 395.5" fill="none" stroke="#422f1d" stroke-linecap="round" stroke-linejoin="round" stroke-opacity="0.4" stroke-width="0.05"/>
    <path d="M273.9 421.75 L273.9 423.75 273.2 423.75 272.85 423.05 M267.4 422.75 L266.95 423.2 265.9 423.25 Q265.35 423.2 265.0 422.95 264.55 422.7 264.6 422.4 264.65 422.1 265.1 421.95 L266.1 421.8 267.05 422.2 267.4 422.75 M274.2 420.7 L271.4 422.5 Q268.85 422.95 267.45 421.8 266.15 421.2 265.15 421.4 L264.15 421.8 M263.8 420.7 L263.65 420.7 Q263.1 420.75 262.75 421.0 262.3 421.25 262.35 421.55 L262.85 422.0 263.85 422.15 M261.45 420.85 Q263.05 419.45 263.7 420.25 M264.15 419.05 L264.7 420.1 266.7 420.1" fill="none" stroke="#382510" stroke-linecap="round" stroke-linejoin="round" stroke-opacity="0.2" stroke-width="0.05"/>
    <path d="M271.8 398.9 L271.95 398.5 271.75 398.1 271.3 397.95 Q271.1 398.0 270.95 398.15 L270.85 398.55 271.0 398.95 271.4 399.1 271.8 398.9" fill="#000000" fill-rule="evenodd" stroke="none"/>
    <path d="M270.65 398.1 L270.8 397.7 270.6 397.3 270.15 397.15 269.8 397.35 269.7 397.75 269.85 398.15 270.25 398.3 Q270.5 398.3 270.65 398.1" fill="#000000" fill-rule="evenodd" stroke="none"/>
  </g>
</svg>
