<?xml version="1.0" encoding="UTF-8" standalone="no"?>
<svg xmlns:xlink="http://www.w3.org/1999/xlink" height="43.15px" width="36.85px" xmlns="http://www.w3.org/2000/svg">
  <g transform="matrix(1.0, 0.0, 0.0, 1.0, -262.05, -381.4)">
    <path d="M297.05 385.15 L296.05 386.0 Q297.3 385.95 298.35 385.5 L298.4 384.7 Q297.75 383.55 296.15 383.1 L293.15 382.35 292.6 382.25 292.3 382.85 Q297.2 383.45 297.5 384.65 297.85 385.0 297.05 385.15 296.0 385.4 293.25 385.2 L286.95 384.1 Q288.75 385.1 293.6 386.0 L295.8 386.05 296.05 386.0 M292.6 382.25 L290.8 382.0 287.3 381.9 285.5 382.1 283.8 382.45 283.15 382.65 285.95 382.75 289.9 382.6 292.3 382.85 M268.4 421.45 L266.65 419.7 266.15 419.1 Q263.75 416.05 263.55 412.25 L263.5 411.45 Q263.5 410.5 263.65 409.65 264.2 406.3 266.75 404.15 267.45 403.5 268.25 403.1 L269.25 402.0 271.15 400.75 Q270.3 399.75 270.4 398.35 L270.45 397.9 264.65 397.65 262.55 396.4 270.8 396.95 Q267.8 395.8 266.25 393.5 265.3 392.6 264.65 391.5 263.1 388.9 264.4 386.5 L264.6 386.15 Q265.35 384.95 266.75 384.3 L267.15 384.1 269.6 382.85 277.05 382.65 278.15 382.8 281.7 383.2 282.7 382.8 283.15 382.65 M281.05 385.2 L281.0 385.15 280.95 385.15 281.05 385.2 286.7 388.25 Q291.4 389.7 289.8 393.0 L291.4 391.65 Q291.65 391.8 291.3 390.5 290.95 389.2 288.9 388.05 L288.7 388.0 Q284.6 386.7 282.3 385.0 281.3 384.35 281.75 383.9 L281.85 383.85 283.15 383.4 Q284.35 382.9 285.95 382.75 M281.7 383.2 L281.2 383.35 280.6 383.8 Q280.1 384.3 280.85 385.1 L280.95 385.15 M281.85 383.85 L282.3 384.0 288.8 385.25 293.6 386.0 M277.65 399.0 L278.3 398.75 279.25 398.05 279.2 397.0 278.85 396.75 278.15 395.6 277.8 395.35 273.8 395.1 271.9 396.05 271.45 396.3 271.2 396.4 271.15 396.55 270.9 397.0 270.45 397.7 270.45 397.9 M277.4 396.8 L277.35 397.15 Q276.95 399.05 278.0 401.1 L278.35 400.75 278.7 400.2 278.95 399.55 277.75 399.6 M289.8 393.0 L289.75 393.1 Q288.8 394.9 286.65 396.05 L285.45 397.5 289.15 395.3 Q291.4 393.8 291.4 391.65 M278.95 399.55 L282.0 398.65 285.3 396.75 286.65 395.65 287.75 393.2 Q284.95 395.85 281.6 397.5 L280.9 398.0 279.6 398.8 279.1 399.05 278.45 399.3 M279.25 398.05 Q283.8 394.45 287.05 389.3 L286.4 392.15 Q284.0 395.55 281.6 397.5 M286.95 384.1 L283.15 383.4 M281.05 385.2 Q283.0 387.2 286.25 388.05 L286.7 388.25 M285.3 396.75 L286.65 396.05 M269.0 421.9 L269.55 422.25 Q271.7 423.6 274.4 423.95 277.6 424.4 280.2 423.15 L282.3 421.85 283.4 420.7 284.8 419.7 Q288.0 417.0 288.05 412.35 L288.05 412.05 Q288.0 408.6 286.1 405.65 L284.95 404.25 284.9 404.15 Q282.2 401.15 278.7 400.2 M282.0 398.65 L285.45 397.5 M278.15 382.8 L274.85 383.3 275.95 383.4 280.6 383.8 M267.15 384.1 Q268.15 383.65 269.4 383.55 L274.85 383.3 M266.25 393.5 L270.4 395.65 270.5 395.7 270.35 395.6 Q268.15 394.0 265.8 391.5 264.85 390.45 264.65 388.0 264.5 387.15 264.6 386.15 M271.9 396.05 Q268.9 392.05 267.2 387.0 L267.2 389.7 Q268.6 393.35 270.35 395.6 M270.5 395.7 L270.75 395.85 271.45 396.3 M270.9 397.0 L270.8 396.95 M264.65 388.0 L266.75 384.3 M271.15 400.75 L271.75 401.3 272.1 401.6 272.9 401.85 274.65 402.0 276.15 401.95 278.0 401.1" fill="none" stroke="#000000" stroke-linecap="round" stroke-linejoin="round" stroke-opacity="0.3019608" stroke-width="1.0"/>
    <path d="M273.7 397.05 Q270.45 398.55 264.65 397.65 L262.55 396.4 Q268.1 397.55 273.5 396.65 L273.7 397.05" fill="#560000" fill-rule="evenodd" stroke="none"/>
    <path d="M264.65 397.65 Q270.45 398.55 273.7 397.05 M273.5 396.65 Q268.1 397.55 262.55 396.4" fill="none" stroke="#382510" stroke-linecap="round" stroke-linejoin="round" stroke-opacity="0.2" stroke-width="0.4"/>
    <path d="M262.55 396.4 L264.65 397.65" fill="none" stroke="#382510" stroke-linecap="round" stroke-linejoin="round" stroke-opacity="0.15294118" stroke-width="0.2"/>
    <path d="M273.05 397.55 L272.75 398.0 Q269.55 395.75 267.2 389.7 L267.2 387.0 Q269.2 393.0 273.05 397.55" fill="#b80101" fill-rule="evenodd" stroke="none"/>
    <path d="M273.05 397.55 Q269.2 393.0 267.2 387.0 M267.2 389.7 Q269.55 395.75 272.75 398.0" fill="none" stroke="#382510" stroke-linecap="round" stroke-linejoin="round" stroke-opacity="0.2" stroke-width="0.4"/>
    <path d="M267.2 387.0 L267.2 389.7" fill="none" stroke="#382510" stroke-linecap="round" stroke-linejoin="round" stroke-opacity="0.15294118" stroke-width="0.2"/>
    <path d="M281.5 405.35 L282.4 406.25 283.1 407.1 Q284.55 409.05 285.15 411.2 L285.55 413.9 277.8 422.7 273.15 422.7 266.15 419.1 Q263.75 416.05 263.55 412.25 L263.5 411.45 Q263.5 410.5 263.65 409.65 L268.4 404.95 271.5 407.45 271.5 403.9 Q274.05 402.95 281.5 405.35" fill="#e2dccb" fill-rule="evenodd" stroke="none"/>
    <path d="M284.9 404.15 L284.95 404.25 286.1 405.65 Q285.8 409.4 285.15 411.2 284.55 409.05 283.1 407.1 L282.4 406.25 281.5 405.35 279.2 403.55 Q281.7 402.35 284.9 404.2 L284.9 404.15" fill="#a09176" fill-rule="evenodd" stroke="none"/>
    <path d="M284.9 404.15 L284.9 404.2 Q281.7 402.35 279.2 403.55 277.1 402.3 274.55 401.95 L274.1 401.9 276.8 399.85 277.1 399.85 Q281.65 400.5 284.9 404.15 M288.05 412.35 Q288.0 417.0 284.8 419.7 L283.4 420.7 Q284.4 419.5 284.95 418.05 L285.05 417.6 Q286.5 416.1 288.0 412.35 L288.05 412.35" fill="#716044" fill-rule="evenodd" stroke="none"/>
    <path d="M268.25 403.1 L269.25 402.0 Q272.35 399.35 276.8 399.85 L274.1 401.9 Q270.75 401.55 268.25 403.1" fill="#b9ae9a" fill-rule="evenodd" stroke="none"/>
    <path d="M285.15 411.2 Q285.8 409.4 286.1 405.65 288.0 408.6 288.05 412.05 L288.05 412.35 288.0 412.35 Q286.5 416.1 285.05 417.6 285.55 416.1 285.55 414.45 L285.55 413.9 285.15 411.2" fill="#8e7e66" fill-rule="evenodd" stroke="none"/>
    <path d="M279.2 403.55 L281.5 405.35 Q274.05 402.95 271.5 403.9 L271.5 407.45 268.4 404.95 263.65 409.65 Q264.2 406.3 266.75 404.15 267.45 403.5 268.25 403.1 270.75 401.55 274.1 401.9 L274.55 401.95 Q277.1 402.3 279.2 403.55" fill="#ede8de" fill-rule="evenodd" stroke="none"/>
    <path d="M283.4 420.7 L282.3 421.85 280.2 423.15 Q277.6 424.4 274.4 423.95 271.7 423.6 269.55 422.25 L269.0 421.9 268.4 421.45 266.65 419.7 266.15 419.1 273.15 422.7 277.8 422.7 285.55 413.9 285.55 414.45 Q285.55 416.1 285.05 417.6 L284.95 418.05 Q284.4 419.5 283.4 420.7" fill="#d8cdb8" fill-rule="evenodd" stroke="none"/>
    <path d="M286.1 405.65 L284.95 404.25 284.9 404.15 Q281.65 400.5 277.1 399.85 L276.8 399.85 Q272.35 399.35 269.25 402.0 L268.25 403.1 Q267.45 403.5 266.75 404.15 264.2 406.3 263.65 409.65 263.5 410.5 263.5 411.45 L263.55 412.25 Q263.75 416.05 266.15 419.1 L266.65 419.7 268.4 421.45 M286.1 405.65 Q288.0 408.6 288.05 412.05 L288.05 412.35 Q288.0 417.0 284.8 419.7 L283.4 420.7 282.3 421.85 280.2 423.15 Q277.6 424.4 274.4 423.95 271.7 423.6 269.55 422.25 L269.0 421.9" fill="none" stroke="#382510" stroke-linecap="round" stroke-linejoin="round" stroke-opacity="0.3019608" stroke-width="1.0"/>
    <path d="M292.3 382.85 L292.6 382.25 293.15 382.35 296.15 383.1 Q297.75 383.55 298.4 384.7 L298.35 385.5 Q297.3 385.95 296.05 386.0 L297.05 385.15 Q297.85 385.0 297.5 384.65 297.2 383.45 292.3 382.85 M283.15 382.65 L285.95 382.75 Q284.35 382.9 283.15 383.4 L286.95 384.1 Q288.75 385.1 293.6 386.0 L288.8 385.25 282.3 384.0 281.85 383.85 281.75 383.9 Q281.3 384.35 282.3 385.0 284.6 386.7 288.7 388.0 L288.9 388.05 Q290.95 389.2 291.3 390.5 291.65 391.8 291.4 391.65 L289.8 393.0 Q291.4 389.7 286.7 388.25 L281.05 385.2 281.0 385.15 280.95 385.15 280.85 385.1 Q280.1 384.3 280.6 383.8 L281.2 383.35 281.7 383.2 282.7 382.8 283.15 382.65 M278.15 382.8 L281.7 383.2 281.2 383.35 280.6 383.8 275.95 383.4 274.85 383.3 278.15 382.8 M283.15 383.4 L281.85 383.85 283.15 383.4" fill="#780101" fill-rule="evenodd" stroke="none"/>
    <path d="M292.3 382.85 L289.9 382.6 285.95 382.75 283.15 382.65 283.8 382.45 285.5 382.1 287.3 381.9 290.8 382.0 292.6 382.25 292.3 382.85 M286.95 384.1 L293.25 385.2 Q296.0 385.4 297.05 385.15 L296.05 386.0 295.8 386.05 293.6 386.0 Q288.75 385.1 286.95 384.1 M281.05 385.2 L286.7 388.25 286.25 388.05 Q283.0 387.2 281.05 385.2 M289.8 393.0 L291.4 391.65 Q291.4 393.8 289.15 395.3 L285.45 397.5 286.65 396.05 285.45 397.5 Q280.65 399.7 277.6 398.2 282.45 398.3 286.65 396.05 288.8 394.9 289.75 393.1 L289.8 393.0 M274.85 383.3 L269.4 383.55 Q268.15 383.65 267.15 384.1 L269.6 382.85 277.05 382.65 278.15 382.8 274.85 383.3 M266.75 384.3 L264.65 388.0 Q264.5 387.15 264.6 386.15 265.35 384.95 266.75 384.3 M270.5 395.7 L270.75 395.85 Q272.7 397.15 274.6 397.85 L274.6 397.9 273.1 397.65 Q268.35 396.6 266.25 393.5 L270.5 395.7" fill="#560000" fill-rule="evenodd" stroke="none"/>
    <path d="M264.65 388.0 Q264.85 390.45 265.8 391.5 268.25 394.1 270.5 395.7 L266.25 393.5 Q265.3 392.6 264.65 391.5 263.1 388.9 264.4 386.5 L264.6 386.15 Q264.5 387.15 264.65 388.0" fill="#b80101" fill-rule="evenodd" stroke="none"/>
    <path d="M285.95 382.75 L289.9 382.6 292.3 382.85 Q297.2 383.45 297.5 384.65 297.85 385.0 297.05 385.15 296.0 385.4 293.25 385.2 L286.95 384.1 283.15 383.4 Q284.35 382.9 285.95 382.75 M292.6 382.25 L290.8 382.0 287.3 381.9 285.5 382.1 283.8 382.45 283.15 382.65 282.7 382.8 281.7 383.2 281.2 383.35 280.6 383.8 275.95 383.4 274.85 383.3 269.4 383.55 Q268.15 383.65 267.15 384.1 L266.75 384.3 264.65 388.0 Q264.85 390.45 265.8 391.5 268.25 394.1 270.5 395.7 L270.75 395.85 Q272.7 397.15 274.6 397.85 L274.65 397.85 277.6 398.2 Q282.45 398.3 286.65 396.05 288.8 394.9 289.75 393.1 L289.8 393.0 Q291.4 389.7 286.7 388.25 L286.25 388.05 Q283.0 387.2 281.05 385.2 L281.0 385.15 280.95 385.15 280.85 385.1 Q280.1 384.3 280.6 383.8 M296.05 386.0 Q297.3 385.95 298.35 385.5 L298.4 384.7 Q297.75 383.55 296.15 383.1 L293.15 382.35 292.6 382.25 M281.85 383.85 L282.3 384.0 288.8 385.25 293.6 386.0 295.8 386.05 296.05 386.0 M278.15 382.8 L281.7 383.2 M291.4 391.65 Q291.65 391.8 291.3 390.5 290.95 389.2 288.9 388.05 L288.7 388.0 Q284.6 386.7 282.3 385.0 281.3 384.35 281.75 383.9 L281.85 383.85 283.15 383.4 M285.45 397.5 L289.15 395.3 Q291.4 393.8 291.4 391.65 M278.15 382.8 L277.05 382.65 269.6 382.85 267.15 384.1 M266.75 384.3 Q265.35 384.95 264.6 386.15 L264.4 386.5 Q263.1 388.9 264.65 391.5 265.3 392.6 266.25 393.5 268.35 396.6 273.1 397.65 L274.6 397.9 274.85 397.95 274.65 397.85 M277.6 398.2 L274.85 397.95 M277.6 398.2 Q280.65 399.7 285.45 397.5" fill="none" stroke="#382510" stroke-linecap="round" stroke-linejoin="round" stroke-opacity="0.2" stroke-width="0.4"/>
    <path d="M292.3 382.85 L292.6 382.25 M283.15 382.65 L285.95 382.75 M293.6 386.0 Q288.75 385.1 286.95 384.1 M296.05 386.0 L297.05 385.15 M281.05 385.2 L286.7 388.25 M289.8 393.0 L291.4 391.65 M280.95 385.15 L281.05 385.2 M286.65 396.05 L285.45 397.5 M274.85 383.3 L278.15 382.8 M264.6 386.15 Q264.5 387.15 264.65 388.0 M266.25 393.5 L270.5 395.7" fill="none" stroke="#382510" stroke-linecap="round" stroke-linejoin="round" stroke-opacity="0.15294118" stroke-width="0.2"/>
    <path d="M277.3 397.15 L275.8 397.55 275.05 398.45 275.25 399.0 Q272.4 397.55 270.4 398.35 L270.45 397.7 271.15 396.55 Q271.85 397.05 273.9 397.3 L277.3 397.15" fill="#ffff2f" fill-rule="evenodd" stroke="none"/>
    <path d="M271.15 396.55 L271.2 396.4 273.8 395.1 277.8 395.35 278.15 395.6 276.05 396.95 273.9 397.3 Q271.85 397.05 271.15 396.55" fill="#e6b100" fill-rule="evenodd" stroke="none"/>
    <path d="M278.85 396.75 L277.3 397.15 273.9 397.3 276.05 396.95 278.15 395.6 278.85 396.75 M275.25 399.0 L276.15 401.95 272.1 401.6 271.75 401.3 Q270.25 400.15 270.4 398.35 272.4 397.55 275.25 399.0" fill="#bb6906" fill-rule="evenodd" stroke="none"/>
    <path d="M278.85 396.75 L279.2 397.0 Q279.45 398.95 278.35 400.75 277.6 401.6 276.15 401.95 L275.25 399.0 275.05 398.45 275.8 397.55 277.3 397.15 278.85 396.75" fill="#8d4803" fill-rule="evenodd" stroke="none"/>
    <path d="M276.15 401.95 Q277.6 401.6 278.35 400.75 279.45 398.95 279.2 397.0 L278.85 396.75 278.15 395.6 277.8 395.35 273.8 395.1 271.2 396.4 271.15 396.55 270.45 397.7 270.4 398.35 Q270.25 400.15 271.75 401.3 L272.1 401.6 276.15 401.95 Z" fill="none" stroke="#000000" stroke-linecap="round" stroke-linejoin="round" stroke-opacity="0.3019608" stroke-width="0.7000000000000001"/>
    <path d="M287.75 393.2 L286.65 395.65 Q281.9 399.6 277.75 399.6 L277.65 399.0 Q283.35 397.3 287.75 393.2" fill="#b80101" fill-rule="evenodd" stroke="none"/>
    <path d="M286.65 395.65 L287.75 393.2" fill="none" stroke="#382510" stroke-linecap="round" stroke-linejoin="round" stroke-opacity="0.15294118" stroke-width="0.2"/>
    <path d="M287.75 393.2 Q283.35 397.3 277.65 399.0 M277.75 399.6 Q281.9 399.6 286.65 395.65" fill="none" stroke="#382510" stroke-linecap="round" stroke-linejoin="round" stroke-opacity="0.2" stroke-width="0.4"/>
    <path d="M277.4 396.8 Q276.85 398.9 277.85 400.9" fill="none" stroke="#382510" stroke-linecap="round" stroke-linejoin="round" stroke-opacity="0.3019608" stroke-width="0.4"/>
    <path d="M276.45 402.25 L283.25 404.2 282.8 405.5 284.25 409.1 281.8 406.25 276.45 402.25" fill="#e7d992" fill-rule="evenodd" stroke="none"/>
    <path d="M287.05 389.3 L286.4 392.15 Q282.4 397.8 278.45 399.3 L278.3 398.75 Q283.45 394.95 287.05 389.3" fill="#b80101" fill-rule="evenodd" stroke="none"/>
    <path d="M286.4 392.15 Q282.4 397.8 278.45 399.3 M278.3 398.75 Q283.45 394.95 287.05 389.3" fill="none" stroke="#382510" stroke-linecap="round" stroke-linejoin="round" stroke-opacity="0.2" stroke-width="0.4"/>
    <path d="M287.05 389.3 L286.4 392.15" fill="none" stroke="#382510" stroke-linecap="round" stroke-linejoin="round" stroke-opacity="0.15294118" stroke-width="0.2"/>
    <path d="M276.3 412.15 Q277.3 410.7 278.85 410.9 280.3 411.05 281.5 412.75 282.65 414.5 282.85 416.8 283.05 419.0 282.1 420.5 281.2 421.9 279.65 421.75 278.1 421.5 276.9 419.9 275.7 418.0 275.55 415.75 275.5 413.5 276.3 412.15 M276.6 416.35 Q276.75 417.9 277.4 418.85 278.2 419.9 279.0 419.95 280.0 420.05 280.45 419.2 281.15 418.25 281.0 416.95 280.9 415.65 280.2 414.6 279.5 413.55 278.5 413.5 277.7 413.4 276.95 414.3 276.55 415.05 276.6 416.35 M278.9 418.6 Q277.8 418.5 277.65 416.6 277.45 414.7 278.7 414.85 279.85 415.05 280.05 416.9 280.15 418.6 278.9 418.6 M283.9 417.45 L284.75 418.3 284.25 419.35 283.45 418.65 Q283.05 418.25 283.2 417.6 283.45 417.2 283.9 417.45 M283.05 420.65 Q282.65 420.05 282.85 419.7 283.1 419.05 283.4 419.4 L284.0 419.9 283.45 421.0 283.05 420.65 M264.65 416.05 L264.1 416.45 263.9 414.8 Q264.2 414.55 264.6 415.15 L264.65 416.05 M265.2 414.45 Q265.1 412.2 265.95 410.75 266.9 409.35 268.4 409.4 270.0 409.8 271.2 411.5 272.4 413.2 272.55 415.4 272.7 417.65 271.85 419.2 270.8 420.55 269.25 420.35 267.65 420.3 266.65 418.5 265.4 416.8 265.2 414.45 M265.0 418.45 L264.4 417.4 264.7 417.05 Q265.0 416.8 265.3 417.35 265.55 417.85 265.3 418.15 L265.0 418.45 M270.15 414.0 L270.55 415.3 Q270.7 417.2 269.45 417.05 268.25 416.9 268.15 415.0 267.9 413.2 269.25 413.4 269.65 413.3 270.15 414.0 M269.1 412.0 Q268.2 411.9 267.7 412.7 267.0 413.7 267.15 415.0 267.2 416.35 268.05 417.35 268.65 418.4 269.6 418.45 270.45 418.5 270.95 417.65 271.6 416.8 271.5 415.5 271.45 414.25 270.8 413.15 270.0 412.15 269.1 412.0 M275.25 417.85 L275.35 419.45 273.2 419.05 273.0 417.4 275.25 417.85 M275.7 420.3 Q275.75 419.65 276.2 419.8 276.7 419.9 276.7 420.5 276.9 422.65 274.55 422.35 272.05 422.1 272.05 419.75 271.9 419.05 272.45 419.2 272.95 419.25 272.8 419.95 272.8 420.8 274.4 421.0 275.85 421.2 275.7 420.3" fill="#333326" fill-opacity="0.7529412" fill-rule="evenodd" stroke="none"/>
    <path d="M268.1 403.15 Q273.25 400.25 276.65 401.95 286.8 405.05 285.35 419.0" fill="none" stroke="#000000" stroke-linecap="round" stroke-linejoin="round" stroke-opacity="0.3019608" stroke-width="0.05"/>
  </g>
</svg>
