<?xml version="1.0" encoding="UTF-8" standalone="no"?>
<svg xmlns:xlink="http://www.w3.org/1999/xlink" height="196.75px" width="111.25px" xmlns="http://www.w3.org/2000/svg">
  <g transform="matrix(1.0, 0.0, 0.0, 1.0, -261.6, -247.95)">
    <path d="M372.1 314.95 L363.65 340.2 345.35 311.4 345.15 310.95 Q359.65 293.05 367.05 267.5 374.15 285.75 372.1 314.95" fill="#120514" fill-rule="evenodd" stroke="none"/>
    <path d="M345.15 310.95 L345.35 311.4 363.65 340.2 372.1 314.95 M363.65 340.2 L363.05 342.15" fill="none" stroke="#ff66cc" stroke-linecap="round" stroke-linejoin="round" stroke-opacity="0.41960785" stroke-width="1.5"/>
    <path d="M357.6 429.35 L357.2 426.2 357.95 429.05 357.6 429.35 M356.2 329.0 L356.8 316.8 357.4 316.8 356.2 329.0" fill="#14100e" fill-rule="evenodd" stroke="none"/>
    <path d="M324.4 442.7 Q308.65 440.75 285.55 435.5 L285.5 435.4 Q286.95 423.3 288.4 414.3 287.15 400.5 285.3 387.75 276.3 360.55 268.9 333.4 L266.55 328.15 280.0 317.3 281.7 314.4 301.5 315.05 Q305.8 343.7 314.5 378.45 319.55 398.8 321.45 410.25 324.2 426.4 324.4 442.7 M288.4 396.6 L285.3 387.75 288.4 396.6" fill="#120514" fill-rule="evenodd" stroke="none"/>
    <path d="M301.5 315.05 L356.8 316.8 356.2 329.0 353.25 398.25 357.2 426.2 357.6 429.35 Q354.75 431.65 354.4 432.3 350.65 439.0 339.85 443.95 L324.4 442.7 Q324.2 426.4 321.45 410.25 319.55 398.8 314.5 378.45 305.8 343.7 301.5 315.05" fill="#441551" fill-rule="evenodd" stroke="none"/>
    <path d="M324.4 442.7 Q308.65 440.75 285.55 435.5 L285.5 435.4 Q286.95 423.3 288.4 414.3 287.15 400.5 285.3 387.75 276.3 360.55 268.9 333.4 L266.55 328.15 280.0 317.3 281.7 314.4 301.5 315.05 356.8 316.8 356.7 315.9 M324.4 442.7 L339.85 443.95 Q350.65 439.0 354.4 432.3 354.75 431.65 357.6 429.35 L357.2 426.2 353.25 398.25 356.2 329.0 356.8 316.8 357.4 316.8 M357.6 429.35 L357.95 429.05 M285.3 387.75 L288.4 396.6" fill="none" stroke="#000000" stroke-linecap="round" stroke-linejoin="round" stroke-width="1.5"/>
    <path d="M276.6 345.0 L262.35 321.0 Q269.7 287.8 284.0 265.9 299.15 291.75 312.5 305.75 L276.6 345.0" fill="#280b26" fill-rule="evenodd" stroke="none"/>
    <path d="M312.5 305.75 Q299.15 291.75 284.0 265.9 269.7 287.8 262.35 321.0 L276.6 345.0" fill="none" stroke="#000000" stroke-linecap="round" stroke-linejoin="round" stroke-width="1.5"/>
    <path d="M355.7 306.75 L355.8 307.4 Q357.5 309.3 350.75 311.7 342.75 315.1 336.8 313.15 329.9 309.9 327.55 303.9 325.35 298.5 329.05 294.4 342.0 300.3 355.7 306.75" fill="#000000" fill-rule="evenodd" stroke="none"/>
    <path d="M292.35 324.8 Q295.45 326.45 299.25 328.0 307.5 331.05 312.35 330.3 313.1 330.2 323.0 325.15 334.4 320.65 343.9 317.7 L367.05 311.4 366.2 315.1 362.55 319.2 Q350.75 321.0 338.7 325.6 L335.2 326.15 Q331.2 328.2 329.2 333.5 L329.45 368.25 Q304.5 349.25 290.9 329.25 292.0 327.0 292.35 324.8" fill="#120514" fill-rule="evenodd" stroke="none"/>
    <path d="M367.05 311.4 L343.9 317.7 Q334.4 320.65 323.0 325.15 313.1 330.2 312.35 330.3 307.5 331.05 299.25 328.0 295.45 326.45 292.35 324.8 311.25 285.0 335.0 263.7 357.25 241.15 361.8 252.55 L364.8 267.75 Q366.9 291.55 367.05 311.4 M355.7 306.75 Q342.0 300.3 329.05 294.4 325.35 298.5 327.55 303.9 329.9 309.9 336.8 313.15 342.75 315.1 350.75 311.7 357.5 309.3 355.8 307.4 L355.7 306.75" fill="url(#gradient0)" fill-rule="evenodd" stroke="none"/>
    <path d="M367.05 311.4 Q366.9 291.55 364.8 267.75 L361.8 252.55 Q357.25 241.15 335.0 263.7 311.25 285.0 292.35 324.8" fill="none" stroke="#000000" stroke-linecap="round" stroke-linejoin="round" stroke-width="1.5"/>
    <path d="M292.35 324.8 Q292.0 327.0 290.9 329.25 304.5 349.25 329.45 368.25 L329.2 333.5 Q331.2 328.2 335.2 326.15 L338.7 325.6 Q350.75 321.0 362.55 319.2 L366.2 315.1 367.05 311.4 M355.7 306.75 Q342.0 300.3 329.05 294.4 325.35 298.5 327.55 303.9 329.9 309.9 336.8 313.15 342.75 315.1 350.75 311.7 357.5 309.3 355.8 307.4 L355.7 306.75 Z" fill="none" stroke="#ff66cc" stroke-linecap="round" stroke-linejoin="round" stroke-opacity="0.41960785" stroke-width="1.5"/>
    <path d="M363.65 331.2 L360.6 327.75 356.1 327.5 Q349.6 327.45 341.65 328.8 338.3 330.25 333.6 336.85 L332.3 327.9 328.6 322.05 328.8 321.95 Q347.3 314.55 363.4 320.1 362.75 323.05 362.65 324.9 L363.65 331.2 M355.2 322.1 L356.1 327.5 355.2 322.1" fill="#5b5346" fill-rule="evenodd" stroke="none"/>
    <path d="M356.1 327.5 L360.6 327.75 363.65 331.2 Q365.85 349.6 361.25 368.2 L360.9 369.7 358.85 375.15 Q356.35 377.9 352.8 378.75 L351.8 378.95 349.75 379.3 344.35 379.75 Q339.55 380.0 334.55 376.8 L333.8 371.5 Q333.4 368.9 333.85 364.65 335.3 351.9 333.6 336.85 338.3 330.25 341.65 328.8 349.6 327.45 356.1 327.5 359.55 352.2 351.8 378.95 359.55 352.2 356.1 327.5" fill="#bcb67e" fill-rule="evenodd" stroke="none"/>
    <path d="M363.5 319.25 L363.4 320.1 363.85 320.3 M363.65 331.2 L362.65 324.9 Q362.75 323.05 363.4 320.1 347.3 314.55 328.8 321.95 M328.6 322.05 L332.3 327.9 333.6 336.85 Q335.3 351.9 333.85 364.65 333.4 368.9 333.8 371.5 L334.55 376.8 Q339.55 380.0 344.35 379.75 L349.75 379.3 351.8 378.95 352.8 378.75 Q356.35 377.9 358.85 375.15 L360.9 369.7 361.25 368.2 Q365.85 349.6 363.65 331.2" fill="none" stroke="#000000" stroke-linecap="round" stroke-linejoin="round" stroke-width="1.5"/>
    <path d="M356.1 327.5 L355.2 322.1 M356.1 327.5 Q359.55 352.2 351.8 378.95" fill="none" stroke="#000000" stroke-linecap="round" stroke-linejoin="round" stroke-opacity="0.49803922" stroke-width="1.5"/>
  </g>
  <defs>
    <linearGradient gradientTransform="matrix(-0.0044, 0.0012, -0.0106, -0.04, 363.1, 281.8)" gradientUnits="userSpaceOnUse" id="gradient0" spreadMethod="pad" x1="-819.2" x2="819.2">
      <stop offset="0.0" stop-color="#ad32bc"/>
      <stop offset="0.9882352941176471" stop-color="#331a4d"/>
    </linearGradient>
  </defs>
</svg>
