<?xml version="1.0" encoding="UTF-8" standalone="no"?>
<svg xmlns:xlink="http://www.w3.org/1999/xlink" height="39.95px" width="51.35px" xmlns="http://www.w3.org/2000/svg">
  <g transform="matrix(1.0, 0.0, 0.0, 1.0, -288.5, -184.9)">
    <path d="M295.15 187.9 L291.8 193.0 289.8 202.15 294.15 198.15 297.15 196.95 Q301.05 201.0 308.6 201.75 309.6 199.0 309.75 194.85 L316.85 197.6 311.6 189.25 309.25 187.45 Q305.05 185.05 299.8 185.8 L295.15 187.9" fill="#8c231d" fill-rule="evenodd" stroke="none"/>
    <path d="M311.9 192.2 Q309.8 189.3 308.75 189.45 307.65 189.6 308.35 192.7 L310.8 201.85 Q312.45 207.9 307.9 212.15 303.4 216.4 310.8 218.9 318.3 221.3 318.25 212.65 318.3 203.9 316.25 199.4 314.15 194.95 311.9 192.2" fill="#961f1f" fill-rule="evenodd" stroke="none"/>
    <path d="M297.35 195.35 L297.4 194.8 297.05 194.5 Q296.8 194.35 296.5 194.5 L296.05 194.9 296.05 195.4 296.4 195.75 296.95 195.75 297.35 195.35 M299.6 207.5 L299.0 208.05 Q298.8 208.5 298.95 208.9 L299.5 209.45 300.3 209.4 300.95 208.75 301.0 208.0 300.45 207.45 299.6 207.5 M299.5 218.5 Q298.75 218.9 298.45 219.7 298.2 220.5 298.55 221.35 298.85 222.1 299.65 222.4 L301.2 222.3 Q302.0 221.85 302.2 221.05 302.55 220.25 302.2 219.45 301.85 218.7 301.1 218.45 L299.5 218.5 M295.95 218.75 L295.45 218.2 Q295.05 218.05 294.65 218.2 L294.0 218.8 Q293.75 219.25 293.95 219.65 L294.45 220.15 295.3 220.15 295.95 219.5 Q296.15 219.05 295.95 218.75 M304.6 221.9 Q305.25 223.3 306.7 223.9 L309.65 223.7 Q311.15 222.9 311.65 221.4 312.25 219.85 311.55 218.45 310.9 216.9 309.35 216.45 L306.5 216.65 Q305.05 217.3 304.5 218.9 303.95 220.45 304.6 221.9 M312.8 213.7 L313.55 212.95 Q313.75 212.5 313.5 212.05 313.45 211.65 313.0 211.5 L312.0 211.55 Q311.5 211.7 311.3 212.25 311.1 212.65 311.2 213.15 L311.85 213.75 312.8 213.7" fill="#771a1a" fill-opacity="0.7019608" fill-rule="evenodd" stroke="none"/>
    <path d="M301.05 210.7 Q299.7 211.25 299.05 212.65 298.4 214.0 298.9 215.3 299.4 216.55 300.75 217.0 L303.45 216.9 Q304.85 216.25 305.55 214.9 306.15 213.55 305.65 212.25 305.15 211.0 303.85 210.6 L301.05 210.7" fill="#4f1111" fill-opacity="0.7019608" fill-rule="evenodd" stroke="none"/>
    <path d="M301.15 210.75 Q300.7 210.8 300.15 211.2 299.65 211.65 299.45 212.15 299.25 212.6 299.45 213.0 L300.3 213.2 301.25 212.55 301.95 211.6 Q302.3 211.25 302.05 210.95 301.8 210.65 301.15 210.75 M299.85 214.05 Q299.45 214.05 299.25 214.35 299.15 214.65 299.3 214.95 L299.8 215.5 300.65 215.6 301.0 215.15 Q300.95 214.7 301.05 214.6 301.05 214.25 300.65 214.15 L299.85 214.05" fill="#ea9999" fill-opacity="0.7019608" fill-rule="evenodd" stroke="none"/>
    <path d="M308.7 189.35 Q307.8 189.5 308.05 191.25 308.3 193.0 309.65 195.45 310.95 197.85 312.45 199.4 314.0 200.95 314.85 200.85 315.8 200.7 315.55 198.95 315.3 197.1 313.95 194.75 312.75 192.35 311.2 190.8 309.65 189.2 308.7 189.35 M316.3 211.95 Q317.05 213.4 317.9 213.75 318.65 214.05 319.05 212.95 319.45 211.85 319.2 210.0 318.95 208.1 318.3 206.65 317.6 205.1 316.7 204.8 315.95 204.6 315.55 205.7 315.15 206.8 315.35 208.7 315.65 210.5 316.3 211.95" fill="#ffffff" fill-opacity="0.6" fill-rule="evenodd" stroke="none"/>
    <path d="M290.2 202.8 Q289.75 204.0 289.4 206.6 289.05 209.0 289.0 211.4 289.0 213.6 289.3 214.4 289.6 215.2 290.05 213.9 290.55 212.7 290.8 210.3 291.2 207.75 291.2 205.5 291.2 203.2 290.9 202.45 290.7 201.6 290.2 202.8" fill="#ffffff" fill-opacity="0.6" fill-rule="evenodd" stroke="none"/>
    <path d="M290.4 217.6 Q290.3 217.9 290.5 218.5 L291.05 219.5 291.7 220.0 Q292.05 220.05 292.1 219.7 L292.0 218.75 291.45 217.8 Q291.1 217.3 290.8 217.3 290.45 217.2 290.4 217.6" fill="#ffffff" fill-opacity="0.6" fill-rule="evenodd" stroke="none"/>
    <path d="M307.05 224.7 Q314.85 223.4 319.15 217.75 321.75 214.35 319.25 202.15 318.35 199.25 315.9 195.45 L311.7 188.9 Q307.0 183.65 299.35 185.3 293.75 186.65 292.35 191.05 289.55 195.5 288.9 208.45 287.1 217.6 293.0 222.3 298.9 225.6 307.0 224.65 L307.05 224.55 307.0 224.65 307.05 224.7" fill="url(#gradient0)" fill-rule="evenodd" stroke="none"/>
    <path d="M307.05 224.7 Q314.85 223.4 319.15 217.75 321.75 214.35 319.25 202.15 318.35 199.25 315.9 195.45 L311.7 188.9 Q307.0 183.65 299.35 185.3 293.75 186.65 292.35 191.05 289.55 195.5 288.9 208.45 287.1 217.6 293.0 222.3 298.9 225.6 307.0 224.65 L307.05 224.55 307.0 224.65" fill="none" stroke="#a14040" stroke-linecap="round" stroke-linejoin="round" stroke-opacity="0.5019608" stroke-width="0.05"/>
    <path d="M311.45 191.05 L310.75 195.8 312.4 202.9 314.3 198.5 316.1 196.6 Q320.35 197.95 326.3 195.7 326.15 193.4 324.75 190.5 L331.1 189.75 324.25 185.9 321.85 185.55 Q317.85 185.4 314.2 187.85 L311.45 191.05" fill="#8c231d" fill-rule="evenodd" stroke="none"/>
    <path d="M325.5 187.85 Q322.9 186.65 322.15 187.15 321.4 187.6 323.0 189.5 L328.0 194.95 Q331.35 198.6 329.45 203.2 327.55 207.8 333.95 206.8 340.4 205.7 337.35 199.75 334.35 193.65 331.2 191.3 328.1 188.95 325.5 187.85" fill="#961f1f" fill-rule="evenodd" stroke="none"/>
    <path d="M315.7 195.35 L315.5 194.95 315.2 194.95 Q314.95 194.85 314.75 195.1 L314.6 195.55 314.75 195.9 315.1 196.0 315.55 195.8 315.7 195.35 M321.6 203.0 L321.35 203.6 Q321.35 204.0 321.6 204.2 L322.2 204.4 322.8 204.05 323.05 203.35 322.8 202.85 322.25 202.65 Q321.9 202.65 321.6 203.0 M325.4 210.7 Q324.9 211.25 325.0 211.95 325.05 212.55 325.6 213.05 L326.8 213.3 Q327.5 213.3 327.9 212.7 328.4 212.15 328.25 211.45 328.25 210.8 327.7 210.35 327.15 209.95 326.5 210.1 325.85 210.1 325.4 210.7 M323.05 212.65 L322.8 212.15 Q322.55 211.9 322.2 211.95 L321.6 212.3 321.35 212.95 Q321.3 213.3 321.6 213.55 L322.2 213.75 322.8 213.4 323.05 212.65 M330.3 211.2 Q331.35 211.95 332.6 211.8 333.9 211.6 334.7 210.55 335.55 209.5 335.4 208.25 335.3 206.95 334.3 206.25 333.3 205.4 332.0 205.65 330.7 205.8 329.9 206.85 329.05 207.85 329.2 209.15 329.35 210.4 330.3 211.2 M333.6 202.45 L333.9 201.65 Q333.9 201.3 333.55 201.1 L333.0 200.9 Q332.55 200.9 332.25 201.25 331.95 201.6 332.0 202.0 L332.25 202.7 332.9 202.85 333.6 202.45" fill="#771a1a" fill-opacity="0.7019608" fill-rule="evenodd" stroke="none"/>
    <path d="M323.75 204.7 Q323.0 205.65 322.95 206.8 322.95 207.95 323.75 208.7 324.6 209.35 325.75 209.2 326.9 209.05 327.75 208.15 328.55 207.15 328.6 205.95 328.6 204.85 327.75 204.1 326.95 203.4 325.85 203.6 324.65 203.75 323.75 204.7" fill="#4f1111" fill-opacity="0.7019608" fill-rule="evenodd" stroke="none"/>
    <path d="M324.6 204.55 L323.9 204.65 323.3 205.4 323.1 206.3 Q323.05 206.7 323.4 206.9 L324.1 206.75 324.55 205.9 324.8 205.0 Q324.9 204.65 324.6 204.55 M324.7 207.25 Q324.3 207.3 324.05 207.5 L323.7 207.9 323.95 208.3 324.55 208.45 Q324.95 208.45 325.2 208.25 325.5 208.05 325.3 207.8 L325.15 207.4 324.7 207.25" fill="#ea9999" fill-opacity="0.7019608" fill-rule="evenodd" stroke="none"/>
    <path d="M322.1 186.95 Q321.5 187.35 322.3 188.5 323.1 189.6 324.9 190.8 326.7 192.05 328.35 192.55 L330.65 192.7 Q331.3 192.25 330.5 191.1 329.7 189.95 327.9 188.8 326.15 187.55 324.45 187.05 L322.1 186.95 M335.65 199.85 Q336.7 200.6 337.4 200.55 338.15 200.4 338.05 199.55 337.9 198.6 337.05 197.45 336.25 196.2 335.25 195.45 334.2 194.65 333.45 194.75 332.8 194.85 332.85 195.8 332.95 196.7 333.8 197.9 334.6 199.1 335.65 199.85" fill="#ffffff" fill-opacity="0.6" fill-rule="evenodd" stroke="none"/>
    <path d="M313.0 203.2 Q313.1 204.15 313.75 206.1 L315.1 209.6 316.4 211.6 Q316.85 212.05 316.75 211.0 L316.15 208.2 314.7 204.75 Q313.95 203.1 313.45 202.7 313.0 202.2 313.0 203.2" fill="#ffffff" fill-opacity="0.6" fill-rule="evenodd" stroke="none"/>
    <path d="M318.25 213.3 L318.65 213.9 319.4 214.4 320.05 214.5 320.2 214.15 319.85 213.5 319.1 213.05 318.45 212.95 Q318.2 213.0 318.25 213.3" fill="#ffffff" fill-opacity="0.6" fill-rule="evenodd" stroke="none"/>
    <path d="M333.15 212.2 Q338.5 208.45 339.75 202.95 340.55 199.6 334.45 192.05 332.8 190.35 329.65 188.6 L324.15 185.6 Q318.85 183.65 313.7 187.7 310.0 190.65 310.45 194.2 309.9 198.3 313.95 207.6 315.8 214.6 321.8 215.75 327.35 215.85 333.1 212.2 L333.1 212.1 333.1 212.15 333.15 212.2" fill="url(#gradient1)" fill-rule="evenodd" stroke="none"/>
    <path d="M333.15 212.2 Q338.5 208.45 339.75 202.95 340.55 199.6 334.45 192.05 332.8 190.35 329.65 188.6 L324.15 185.6 Q318.85 183.65 313.7 187.7 310.0 190.65 310.45 194.2 309.9 198.3 313.95 207.6 315.8 214.6 321.8 215.75 327.35 215.85 333.1 212.2 L333.1 212.1 333.1 212.15" fill="none" stroke="#a14040" stroke-linecap="round" stroke-linejoin="round" stroke-opacity="0.5019608" stroke-width="0.05"/>
  </g>
  <defs>
    <linearGradient gradientTransform="matrix(-0.0029, -0.018, -0.0193, 0.0039, 303.65, 205.8)" gradientUnits="userSpaceOnUse" id="gradient0" spreadMethod="pad" x1="-819.2" x2="819.2">
      <stop offset="0.06666666666666667" stop-color="#65d8f3" stop-opacity="0.7019608"/>
      <stop offset="0.5137254901960784" stop-color="#87d6f2" stop-opacity="0.7019608"/>
      <stop offset="1.0" stop-color="#d5ebf5" stop-opacity="0.6509804"/>
    </linearGradient>
    <linearGradient gradientTransform="matrix(-0.0084, -0.0115, -0.0131, 0.0098, 324.05, 200.35)" gradientUnits="userSpaceOnUse" id="gradient1" spreadMethod="pad" x1="-819.2" x2="819.2">
      <stop offset="0.06666666666666667" stop-color="#65d8f3" stop-opacity="0.7019608"/>
      <stop offset="0.5137254901960784" stop-color="#87d6f2" stop-opacity="0.7019608"/>
      <stop offset="1.0" stop-color="#d5ebf5" stop-opacity="0.6509804"/>
    </linearGradient>
  </defs>
</svg>
