<?xml version="1.0" encoding="UTF-8" standalone="no"?>
<svg xmlns:xlink="http://www.w3.org/1999/xlink" height="69.55px" width="91.15px" xmlns="http://www.w3.org/2000/svg">
  <g transform="matrix(1.0, 0.0, 0.0, 1.0, -229.9, -165.7)">
    <path d="M314.1 175.75 Q314.6 173.3 315.7 172.75 L316.05 172.8 Q317.0 173.25 317.85 177.05 L316.55 179.35 316.2 178.35 315.0 178.35 314.1 175.75 M233.4 176.35 L232.2 176.4 Q231.0 176.1 230.6 174.4 230.15 172.65 230.7 170.6 231.25 168.5 232.5 167.25 233.7 165.95 234.9 166.25 L235.0 166.3 Q236.05 166.65 236.45 168.3 236.9 170.0 236.35 172.1 L235.35 174.5 234.55 175.45 Q233.95 176.1 233.4 176.35 M243.3 172.6 L257.1 178.15 251.8 177.15 243.3 174.4 243.3 172.6 M299.1 179.25 L292.6 177.65 307.6 178.3 309.15 178.35 309.8 179.25 299.1 179.25" fill="#e19e04" fill-rule="evenodd" stroke="none"/>
    <path d="M242.5 196.9 Q240.95 196.25 239.6 195.4 237.05 193.05 236.1 189.9 235.8 187.7 236.7 186.35 236.95 185.95 237.35 185.7 L238.45 186.65 Q237.5 189.0 239.4 190.8 245.0 195.0 242.5 196.9 M235.25 186.55 Q233.25 186.35 232.45 183.25 231.9 180.4 232.6 178.15 L235.15 178.15 Q233.55 182.35 235.25 186.55 M237.3 168.15 Q239.55 168.0 240.9 169.5 241.6 173.45 240.05 176.35 L238.55 175.7 238.7 175.25 Q239.2 173.55 238.9 171.15 L237.6 170.75 Q237.65 169.3 237.3 168.15 M238.6 180.3 Q241.2 181.0 243.0 183.9 243.45 185.5 243.35 186.85 L243.05 188.15 241.5 187.45 Q241.2 182.65 237.65 182.05 L238.6 180.3 M246.9 189.4 L253.35 189.6 Q256.9 191.35 258.2 193.9 L256.25 195.4 253.7 192.85 Q249.8 190.0 245.25 192.4 L245.25 190.45 Q246.0 189.75 246.9 189.4 M269.65 195.9 Q271.9 193.2 277.05 193.15 280.5 193.05 282.85 194.8 L281.05 196.05 Q277.85 194.25 274.2 195.55 271.3 196.2 270.4 199.35 268.9 199.75 269.65 195.9 M283.8 195.6 L289.75 195.2 Q290.35 194.2 291.35 193.15 294.3 191.2 298.0 191.35 299.85 191.55 301.0 192.5 L303.35 190.25 Q302.2 187.5 304.2 184.4 305.8 182.3 308.7 181.65 L310.9 181.35 310.75 178.4 310.45 176.5 309.2 178.35 309.15 178.35 307.6 178.3 Q307.65 175.75 309.6 174.1 310.2 173.55 310.95 173.55 312.85 176.5 313.0 180.0 313.35 185.1 311.55 187.95 L310.05 185.25 310.65 183.65 310.9 181.35 310.65 183.65 Q308.45 183.55 306.3 185.55 304.25 187.95 305.35 190.3 L304.35 191.8 303.65 190.8 301.8 193.3 299.95 193.8 Q297.3 192.7 294.1 193.8 292.0 194.65 290.6 197.15 L289.05 196.55 289.75 195.2 289.05 196.55 288.7 197.6 285.2 197.45 283.8 195.6 M306.75 190.85 L307.2 189.9 309.0 190.8 Q307.5 194.85 304.85 196.95 301.95 199.15 299.15 197.45 L299.85 195.65 300.6 195.65 302.55 194.65 Q304.1 193.75 305.2 192.75 L306.75 190.85 M238.75 170.25 L238.9 171.15 238.75 170.25 M268.25 220.0 Q267.75 219.2 267.75 218.1 267.75 217.1 268.2 216.3 L268.45 215.85 Q269.2 214.95 270.25 214.95 271.3 214.95 272.05 215.85 L272.4 216.35 Q271.2 219.9 268.25 220.0 M283.8 198.75 L286.0 199.0 288.65 198.85 292.6 197.9 293.45 199.35 Q288.15 202.2 282.8 200.5 L283.8 198.75 M301.0 192.5 L301.8 193.3 301.0 192.5 M303.35 190.25 L303.65 190.8 303.35 190.25 M250.75 218.3 Q250.35 217.6 250.35 216.75 250.35 215.85 250.8 215.15 L251.15 214.6 Q251.95 213.75 253.05 213.75 254.15 213.75 254.95 214.6 L255.15 214.85 Q253.95 218.9 250.75 218.3 M259.2 225.5 Q259.35 224.55 259.95 223.85 260.75 222.95 261.95 222.95 263.15 222.95 263.95 223.85 L264.2 224.2 Q263.2 228.2 259.6 227.9 259.15 227.15 259.15 226.15 L259.2 225.5" fill="#a9a801" fill-rule="evenodd" stroke="none"/>
    <path d="M314.1 175.75 L315.0 178.35 Q315.45 180.55 315.15 183.0 L315.05 183.65 314.95 184.15 Q313.45 189.4 310.1 189.2 310.65 190.75 310.2 192.25 308.6 199.0 301.1 200.1 298.1 200.15 297.05 198.45 296.6 197.75 296.45 196.75 L297.0 194.8 296.45 194.9 294.45 195.65 295.95 197.9 295.95 198.5 Q295.8 201.2 293.95 202.15 L293.25 202.4 Q288.1 204.2 283.65 203.25 L283.35 203.15 281.45 202.25 281.85 200.75 279.6 198.9 280.1 197.35 278.0 196.85 Q274.75 196.9 273.35 197.95 272.25 198.75 272.35 200.25 272.15 201.8 270.0 202.0 L269.2 201.75 Q268.55 201.5 268.25 201.1 L268.15 200.9 Q267.9 200.5 268.0 200.0 268.15 198.55 268.65 197.4 L269.65 195.9 Q268.9 199.75 270.4 199.35 271.3 196.2 274.2 195.55 277.85 194.25 281.05 196.05 L282.85 194.8 283.8 195.6 285.2 197.45 286.0 199.0 285.2 197.45 288.7 197.6 289.05 196.55 290.6 197.15 Q292.0 194.65 294.1 193.8 297.3 192.7 299.95 193.8 L301.8 193.3 303.65 190.8 304.35 191.8 305.35 190.3 Q304.25 187.95 306.3 185.55 308.45 183.55 310.65 183.65 L310.05 185.25 311.55 187.95 Q313.35 185.1 313.0 180.0 312.85 176.5 310.95 173.55 312.3 173.55 314.1 175.75 M244.65 197.75 L242.5 196.9 Q245.0 195.0 239.4 190.8 237.5 189.0 238.45 186.65 L237.35 185.7 Q236.95 185.95 236.7 186.35 L235.25 186.55 Q233.55 182.35 235.15 178.15 L232.6 178.15 Q232.85 177.2 233.4 176.35 L234.95 176.35 236.7 174.25 Q237.8 174.3 238.7 175.25 L238.55 175.7 Q238.1 176.95 237.2 177.75 236.6 178.85 236.4 180.1 236.1 181.65 236.4 183.4 L236.95 184.5 236.4 183.4 Q236.1 181.65 236.4 180.1 236.6 178.85 237.2 177.75 238.1 176.95 238.55 175.7 L240.05 176.35 Q241.6 173.45 240.9 169.5 L241.85 170.9 242.05 172.05 Q242.2 173.7 241.7 175.2 240.8 178.0 237.75 180.15 L238.6 180.3 237.65 182.05 Q241.2 182.65 241.5 187.45 L243.05 188.15 Q242.7 189.2 241.95 190.05 L241.0 190.9 243.55 193.0 244.1 191.9 Q244.6 191.05 245.25 190.45 L245.25 192.4 Q249.8 190.0 253.7 192.85 L256.25 195.4 258.2 193.9 Q258.85 195.15 259.1 196.35 L259.25 197.6 Q257.25 200.85 255.4 198.65 L255.35 198.6 Q255.2 197.15 254.6 195.95 253.15 193.15 249.6 192.75 L248.9 192.8 249.6 195.25 248.1 195.25 247.3 198.35 244.65 197.75 M310.45 176.5 L310.75 178.4 309.2 178.35 310.45 176.5 M310.1 189.2 L309.1 187.45 308.35 187.45 309.1 187.45 310.1 189.2 M306.8 187.45 L308.35 187.45 307.85 186.1 Q308.5 185.45 310.05 185.25 L309.6 185.9 310.05 185.25 Q308.5 185.45 307.85 186.1 307.15 186.7 306.8 187.45 305.95 189.8 306.75 190.85 305.95 189.8 306.8 187.45 M307.2 189.9 L306.75 190.85 305.2 192.75 304.35 191.8 305.2 192.75 Q304.1 193.75 302.55 194.65 L301.8 193.3 302.55 194.65 300.6 195.65 299.85 195.65 299.15 197.45 Q301.95 199.15 304.85 196.95 307.5 194.85 309.0 190.8 L307.2 189.9 M298.2 195.65 L299.15 195.65 299.85 195.65 299.15 195.65 298.2 195.65 M236.4 180.1 L237.75 180.15 236.4 180.1 M237.35 185.7 L238.55 184.95 238.85 185.5 Q240.05 187.9 239.05 188.05 239.85 189.65 241.0 190.9 239.85 189.65 239.05 188.05 240.05 187.9 238.85 185.5 L238.55 184.95 237.35 185.7 M243.55 193.0 L246.2 194.25 246.35 194.1 Q247.4 192.95 248.9 192.8 247.4 192.95 246.35 194.1 L246.2 194.25 243.55 193.0 M236.4 183.4 Q237.75 183.75 238.55 184.95 237.75 183.75 236.4 183.4 M272.3 219.95 L272.05 220.3 Q271.3 221.25 270.25 221.25 269.2 221.25 268.45 220.3 L268.25 220.0 Q271.2 219.9 272.4 216.35 272.8 217.15 272.8 218.1 272.8 219.15 272.3 219.95 M283.8 198.75 L282.4 198.5 281.7 198.1 280.1 197.35 281.7 198.1 282.4 198.5 283.8 198.75 282.8 200.5 Q288.15 202.2 293.45 199.35 L292.6 197.9 288.65 198.85 286.0 199.0 283.8 198.75 M299.15 195.65 Q298.55 194.65 297.0 194.8 298.55 194.65 299.15 195.65 M288.7 197.6 Q288.6 198.25 288.65 198.85 288.6 198.25 288.7 197.6 M294.2 197.0 L292.6 197.9 Q292.55 196.6 294.45 195.65 292.55 196.6 292.6 197.9 L294.2 197.0 M255.15 214.85 Q255.75 215.65 255.75 216.75 255.75 218.0 254.95 218.85 L254.3 219.4 Q253.75 219.75 253.05 219.75 251.95 219.75 251.15 218.85 L250.75 218.3 Q253.95 218.9 255.15 214.85 M264.2 224.2 Q264.8 225.05 264.8 226.15 264.8 227.5 263.95 228.4 L262.65 229.25 261.95 229.35 Q260.75 229.35 259.95 228.4 L259.6 227.9 Q263.2 228.2 264.2 224.2" fill="#666600" fill-rule="evenodd" stroke="none"/>
    <path d="M315.0 178.35 L316.2 178.35 316.55 179.35 317.85 177.05 Q317.0 173.25 316.05 172.8 L318.45 172.75 Q319.45 174.5 320.0 177.0 L320.5 181.15 Q320.8 186.5 318.95 187.75 L316.95 187.75 Q315.65 187.45 315.15 184.15 L315.05 183.65 315.15 183.0 Q315.45 180.55 315.0 178.35 M235.0 166.3 L236.8 166.9 237.3 168.15 Q237.65 169.3 237.6 170.75 L236.7 174.25 237.6 170.75 238.9 171.15 Q239.2 173.55 238.7 175.25 237.8 174.3 236.7 174.25 L234.95 176.35 233.4 176.35 Q233.95 176.1 234.55 175.45 L235.35 174.5 236.35 172.1 Q236.9 170.0 236.45 168.3 236.05 166.65 235.0 166.3 M242.05 172.05 L243.3 172.6 243.3 174.4 251.8 177.15 241.7 175.2 Q242.2 173.7 242.05 172.05 M308.7 181.65 L299.1 179.25 309.8 179.25 309.15 178.35 309.2 178.35 310.75 178.4 310.9 181.35 308.7 181.65 M317.85 177.05 L318.2 178.75 Q319.4 186.25 316.95 187.75 319.4 186.25 318.2 178.75 L317.85 177.05 M315.15 183.0 L316.6 183.5 Q317.1 181.25 316.55 179.35 317.1 181.25 316.6 183.5 L315.15 183.0" fill="#b88203" fill-rule="evenodd" stroke="none"/>
    <path d="M301.1 200.1 Q297.15 203.6 293.25 202.4 L293.95 202.15 Q295.8 201.2 295.95 198.5 L297.05 198.45 Q298.1 200.15 301.1 200.1 M283.45 203.35 L280.95 204.45 281.45 202.25 283.35 203.15 283.45 203.35 M247.35 203.1 Q245.25 200.4 244.65 197.75 L247.3 198.35 246.75 200.35 247.5 201.15 Q248.15 202.1 247.35 203.1 M243.35 186.85 Q245.85 187.35 246.9 189.4 246.0 189.75 245.25 190.45 244.6 191.05 244.1 191.9 L241.95 190.05 Q242.7 189.2 243.05 188.15 L243.35 186.85" fill="#434201" fill-rule="evenodd" stroke="none"/>
    <path d="M280.95 204.45 Q280.45 206.7 280.2 209.0 L276.45 207.15 Q277.25 202.6 279.25 198.6 L279.6 198.9 281.85 200.75 281.45 202.25 280.95 204.45 M280.0 211.3 L279.9 213.9 275.8 212.9 276.1 209.3 280.0 211.3 M257.1 232.05 L253.5 232.0 Q249.5 226.7 247.85 219.5 L257.1 232.05 M253.5 195.95 L254.6 195.95 Q255.2 197.15 255.35 198.6 L255.4 198.65 257.85 201.75 262.0 202.85 275.8 212.9 Q275.65 218.3 277.2 224.6 L272.3 219.95 Q272.8 219.15 272.8 218.1 272.8 217.15 272.4 216.35 L272.05 215.85 Q271.3 214.95 270.25 214.95 269.2 214.95 268.45 215.85 L268.2 216.3 255.6 202.0 253.5 195.95" fill="#ba5e01" fill-rule="evenodd" stroke="none"/>
    <path d="M279.9 213.9 Q279.8 218.2 280.55 222.55 L277.2 224.6 Q275.65 218.3 275.8 212.9 L279.9 213.9 M282.1 229.05 L282.85 231.35 280.45 234.75 279.2 231.4 282.1 229.05 M249.6 195.25 L250.35 195.25 251.2 196.3 255.6 202.0 268.2 216.3 Q267.75 217.1 267.75 218.1 267.75 219.2 268.25 220.0 L268.45 220.3 Q269.2 221.25 270.25 221.25 271.3 221.25 272.05 220.3 L272.3 219.95 277.2 224.6 Q277.95 227.85 279.2 231.4 L256.25 210.1 247.5 201.15 246.75 200.35 247.3 198.35 248.1 195.25 249.6 195.25 M255.4 198.65 Q257.25 200.85 259.25 197.6 263.2 198.45 262.0 202.85 L257.85 201.75 255.4 198.65 M269.2 201.75 L270.0 202.0 Q272.15 201.8 272.35 200.25 L275.15 202.4 Q274.6 204.85 272.45 204.45 L269.2 201.75" fill="#a95401" fill-rule="evenodd" stroke="none"/>
    <path d="M280.2 209.0 Q278.75 210.15 280.0 211.3 L276.1 209.3 Q275.05 207.4 276.45 207.15 L280.2 209.0 M246.75 203.7 L247.35 203.1 Q248.15 202.1 247.5 201.15 L256.25 210.1 246.75 203.7 M251.2 196.3 Q253.15 197.4 253.5 195.95 L255.6 202.0 251.2 196.3" fill="#3c1e00" fill-rule="evenodd" stroke="none"/>
    <path d="M280.45 234.75 Q272.65 233.15 264.8 232.45 L262.65 229.25 263.95 228.4 Q264.8 227.5 264.8 226.15 264.8 225.05 264.2 224.2 L263.95 223.85 Q263.15 222.95 261.95 222.95 260.75 222.95 259.95 223.85 259.35 224.55 259.2 225.5 L254.3 219.4 254.95 218.85 Q255.75 218.0 255.75 216.75 255.75 215.65 255.15 214.85 L254.95 214.6 Q254.15 213.75 253.05 213.75 251.95 213.75 251.15 214.6 L250.8 215.15 246.65 210.15 Q246.55 207.05 246.75 203.7 L256.25 210.1 279.2 231.4 280.45 234.75 M259.1 196.35 L268.65 197.4 Q268.15 198.55 268.0 200.0 267.9 200.5 268.15 200.9 L268.25 201.1 Q268.55 201.5 269.2 201.75 L272.45 204.45 Q274.6 204.85 275.15 202.4 L272.35 200.25 Q272.25 198.75 273.35 197.95 L279.25 198.6 Q277.25 202.6 276.45 207.15 275.05 207.4 276.1 209.3 L275.8 212.9 262.0 202.85 Q263.2 198.45 259.25 197.6 L259.1 196.35 M267.1 199.35 L268.15 200.9 267.1 199.35" fill="#e37302" fill-rule="evenodd" stroke="none"/>
    <path d="M280.55 222.55 Q281.05 225.8 282.1 229.05 L279.2 231.4 Q277.95 227.85 277.2 224.6 L280.55 222.55 M264.8 232.45 L257.1 232.05 247.85 219.5 Q246.8 215.15 246.65 210.15 L250.8 215.15 Q250.35 215.85 250.35 216.75 250.35 217.6 250.75 218.3 L251.15 218.85 Q251.95 219.75 253.05 219.75 253.75 219.75 254.3 219.4 L259.2 225.5 259.15 226.15 Q259.15 227.15 259.6 227.9 L259.95 228.4 Q260.75 229.35 261.95 229.35 L262.65 229.25 264.8 232.45" fill="#5c2e01" fill-rule="evenodd" stroke="none"/>
    <path d="M316.05 172.8 L315.7 172.75 Q314.6 173.3 314.1 175.75 L315.0 178.35 316.2 178.35 316.55 179.35 Q317.1 181.25 316.6 183.5 L315.15 183.0 Q315.45 180.55 315.0 178.35 M317.85 177.05 Q317.0 173.25 316.05 172.8 L318.45 172.75 Q319.45 174.5 320.0 177.0 L320.5 181.15 Q320.8 186.5 318.95 187.75 L316.95 187.75 Q315.65 187.45 315.15 184.15 L315.05 183.65 314.95 184.15 Q313.45 189.4 310.1 189.2 310.65 190.75 310.2 192.25 308.6 199.0 301.1 200.1 297.15 203.6 293.25 202.4 288.1 204.2 283.65 203.25 L283.45 203.35 280.95 204.45 Q280.45 206.7 280.2 209.0 278.75 210.15 280.0 211.3 L279.9 213.9 Q279.8 218.2 280.55 222.55 281.05 225.8 282.1 229.05 L282.85 231.35 280.45 234.75 Q272.65 233.15 264.8 232.45 L257.1 232.05 253.5 232.0 Q249.5 226.7 247.85 219.5 246.8 215.15 246.65 210.15 246.55 207.05 246.75 203.7 L247.35 203.1 Q245.25 200.4 244.65 197.75 L242.5 196.9 Q240.95 196.25 239.6 195.4 237.05 193.05 236.1 189.9 235.8 187.7 236.7 186.35 L235.25 186.55 Q233.25 186.35 232.45 183.25 231.9 180.4 232.6 178.15 232.85 177.2 233.4 176.35 L232.2 176.4 Q231.0 176.1 230.6 174.4 230.15 172.65 230.7 170.6 231.25 168.5 232.5 167.25 233.7 165.95 234.9 166.25 L235.0 166.3 236.8 166.9 237.3 168.15 Q239.55 168.0 240.9 169.5 L241.85 170.9 242.05 172.05 243.3 172.6 257.1 178.15 251.8 177.15 241.7 175.2 Q240.8 178.0 237.75 180.15 L238.6 180.3 Q241.2 181.0 243.0 183.9 243.45 185.5 243.35 186.85 245.85 187.35 246.9 189.4 L253.35 189.6 Q256.9 191.35 258.2 193.9 258.85 195.15 259.1 196.35 L268.65 197.4 269.65 195.9 Q271.9 193.2 277.05 193.15 280.5 193.05 282.85 194.8 L283.8 195.6 289.75 195.2 Q290.35 194.2 291.35 193.15 294.3 191.2 298.0 191.35 299.85 191.55 301.0 192.5 L303.35 190.25 Q302.2 187.5 304.2 184.4 305.8 182.3 308.7 181.65 L299.1 179.25 292.6 177.65 307.6 178.3 Q307.65 175.75 309.6 174.1 310.2 173.55 310.95 173.55 312.3 173.55 314.1 175.75 M310.45 176.5 L310.75 178.4 310.9 181.35 310.65 183.65 310.05 185.25 Q308.5 185.45 307.85 186.1 307.15 186.7 306.8 187.45 305.95 189.8 306.75 190.85 L307.2 189.9 M309.15 178.35 L309.2 178.35 310.75 178.4 M307.6 178.3 L309.15 178.35 M308.7 181.65 L310.9 181.35 M316.95 187.75 Q319.4 186.25 318.2 178.75 L317.85 177.05 M315.05 183.65 L315.15 183.0 M308.35 187.45 L309.1 187.45 310.1 189.2 M307.85 186.1 L308.35 187.45 306.8 187.45 M299.85 195.65 L299.15 195.65 298.2 195.65 M309.6 185.9 L310.05 185.25 M233.4 176.35 L234.95 176.35 236.7 174.25 237.6 170.75 Q237.65 169.3 237.3 168.15 M241.7 175.2 Q242.2 173.7 242.05 172.05 M238.7 175.25 Q237.8 174.3 236.7 174.25 M238.55 175.7 L238.7 175.25 Q239.2 173.55 238.9 171.15 L237.6 170.75 M238.9 171.15 L238.75 170.25 M236.95 184.5 L236.4 183.4 Q236.1 181.65 236.4 180.1 236.6 178.85 237.2 177.75 238.1 176.95 238.55 175.7 M237.75 180.15 L236.4 180.1 M237.35 185.7 Q236.95 185.95 236.7 186.35 M241.0 190.9 Q239.85 189.65 239.05 188.05 240.05 187.9 238.85 185.5 L238.55 184.95 237.35 185.7 M243.05 188.15 L243.35 186.85 M241.95 190.05 L241.0 190.9 243.55 193.0 244.1 191.9 241.95 190.05 Q242.7 189.2 243.05 188.15 M248.9 192.8 Q247.4 192.95 246.35 194.1 L246.2 194.25 243.55 193.0 M244.1 191.9 Q244.6 191.05 245.25 190.45 246.0 189.75 246.9 189.4 M238.55 184.95 Q237.75 183.75 236.4 183.4 M254.6 195.95 Q253.15 193.15 249.6 192.75 L248.9 192.8 249.6 195.25 250.35 195.25 251.2 196.3 Q253.15 197.4 253.5 195.95 L254.6 195.95 Q255.2 197.15 255.35 198.6 L255.4 198.65 Q257.25 200.85 259.25 197.6 L259.1 196.35 M247.3 198.35 L246.75 200.35 247.5 201.15 256.25 210.1 246.75 203.7 M279.2 231.4 Q277.95 227.85 277.2 224.6 275.65 218.3 275.8 212.9 L276.1 209.3 280.0 211.3 M272.3 219.95 L272.05 220.3 Q271.3 221.25 270.25 221.25 269.2 221.25 268.45 220.3 L268.25 220.0 Q267.75 219.2 267.75 218.1 267.75 217.1 268.2 216.3 L268.45 215.85 Q269.2 214.95 270.25 214.95 271.3 214.95 272.05 215.85 L272.4 216.35 Q272.8 217.15 272.8 218.1 272.8 219.15 272.3 219.95 M255.6 202.0 L251.2 196.3 M249.6 195.25 L248.1 195.25 247.3 198.35 244.65 197.75 M247.5 201.15 Q248.15 202.1 247.35 203.1 M253.5 195.95 L255.6 202.0 M272.35 200.25 Q272.25 198.75 273.35 197.95 274.75 196.9 278.0 196.85 L280.1 197.35 281.7 198.1 282.4 198.5 283.8 198.75 286.0 199.0 285.2 197.45 283.8 195.6 M268.15 200.9 Q267.9 200.5 268.0 200.0 268.15 198.55 268.65 197.4 M272.35 200.25 Q272.15 201.8 270.0 202.0 L269.2 201.75 Q268.55 201.5 268.25 201.1 L268.15 200.9 267.1 199.35 M279.6 198.9 L280.1 197.35 M279.25 198.6 L279.6 198.9 281.85 200.75 281.45 202.25 283.35 203.15 283.65 203.25 M281.45 202.25 L280.95 204.45 M292.6 197.9 L288.65 198.85 286.0 199.0 M273.35 197.95 L279.25 198.6 Q277.25 202.6 276.45 207.15 L280.2 209.0 M301.8 193.3 L301.0 192.5 M305.2 192.75 L306.75 190.85 M305.2 192.75 L304.35 191.8 303.65 190.8 303.35 190.25 M301.8 193.3 L302.55 194.65 Q304.1 193.75 305.2 192.75 M294.45 195.65 L296.45 194.9 297.0 194.8 Q298.55 194.65 299.15 195.65 M297.0 194.8 L296.45 196.75 Q296.6 197.75 297.05 198.45 298.1 200.15 301.1 200.1 M294.45 195.65 L295.95 197.9 295.95 198.5 297.05 198.45 M294.45 195.65 Q292.55 196.6 292.6 197.9 L294.2 197.0 M288.65 198.85 Q288.6 198.25 288.7 197.6 L289.05 196.55 289.75 195.2 M295.95 198.5 Q295.8 201.2 293.95 202.15 L293.25 202.4 M299.85 195.65 L300.6 195.65 302.55 194.65 M276.45 207.15 Q275.05 207.4 276.1 209.3 M279.2 231.4 L280.45 234.75 M250.75 218.3 Q250.35 217.6 250.35 216.75 250.35 215.85 250.8 215.15 L251.15 214.6 Q251.95 213.75 253.05 213.75 254.15 213.75 254.95 214.6 L255.15 214.85 Q255.75 215.65 255.75 216.75 255.75 218.0 254.95 218.85 L254.3 219.4 Q253.75 219.75 253.05 219.75 251.95 219.75 251.15 218.85 L250.75 218.3 M259.2 225.5 Q259.35 224.55 259.95 223.85 260.75 222.95 261.95 222.95 263.15 222.95 263.95 223.85 L264.2 224.2 Q264.8 225.05 264.8 226.15 264.8 227.5 263.95 228.4 L262.65 229.25 261.95 229.35 Q260.75 229.35 259.95 228.4 L259.6 227.9 Q259.15 227.15 259.15 226.15 L259.2 225.5 Z" fill="none" stroke="#000000" stroke-linecap="round" stroke-linejoin="round" stroke-opacity="0.4" stroke-width="0.5"/>
    <path d="M315.7 172.75 Q314.6 173.3 314.1 175.75 312.3 173.55 310.95 173.55 310.2 173.55 309.6 174.1 307.65 175.75 307.6 178.3 L292.6 177.65 308.7 181.65 Q305.8 182.3 304.2 184.4 302.2 187.5 303.35 190.25 L301.0 192.5 Q299.85 191.55 298.0 191.35 294.3 191.2 291.35 193.15 290.35 194.2 289.75 195.2 L283.8 195.6 282.85 194.8 Q280.5 193.05 277.05 193.15 271.9 193.2 269.65 195.9 L268.65 197.4 259.1 196.35 Q258.85 195.15 258.2 193.9 256.9 191.35 253.35 189.6 L246.9 189.4 Q245.85 187.35 243.35 186.85 243.45 185.5 243.0 183.9 241.2 181.0 238.6 180.3 L237.75 180.15 Q240.8 178.0 241.7 175.2 L257.1 178.15 242.05 172.05 241.85 170.9 240.9 169.5 Q239.55 168.0 237.3 168.15 L236.8 166.9 235.0 166.3 234.9 166.25 Q233.7 165.95 232.5 167.25 231.25 168.5 230.7 170.6 230.15 172.65 230.6 174.4 231.0 176.1 232.2 176.4 L233.4 176.35 Q232.85 177.2 232.6 178.15 231.9 180.4 232.45 183.25 233.25 186.35 235.25 186.55 L236.7 186.35 Q235.8 187.7 236.1 189.9 237.05 193.05 239.6 195.4 240.95 196.25 242.5 196.9 L244.65 197.75 Q245.25 200.4 247.35 203.1 L246.75 203.7 Q246.55 207.05 246.65 210.15 246.8 215.15 247.85 219.5 249.5 226.7 253.5 232.0 L257.1 232.05 264.8 232.45 Q272.65 233.15 280.45 234.75 L282.85 231.35 282.1 229.05 Q281.05 225.8 280.55 222.55 279.8 218.2 279.9 213.9 L280.0 211.3 Q278.75 210.15 280.2 209.0 280.45 206.7 280.95 204.45 L283.45 203.35 283.35 203.15 283.65 203.25 Q288.1 204.2 293.25 202.4 297.15 203.6 301.1 200.1 308.6 199.0 310.2 192.25 310.65 190.75 310.1 189.2 313.45 189.4 314.95 184.15 L315.05 183.65 315.15 184.15 Q315.65 187.45 316.95 187.75 L318.95 187.75 Q320.8 186.5 320.5 181.15 L320.0 177.0 Q319.45 174.5 318.45 172.75 L316.05 172.8 315.7 172.75 M308.35 187.45 L306.8 187.45 Q307.15 186.7 307.85 186.1 L308.35 187.45 M244.1 191.9 L241.95 190.05 241.0 190.9 243.55 193.0 244.1 191.9 M248.9 192.8 L249.6 195.25 250.35 195.25 251.2 196.3 Q253.15 197.4 253.5 195.95 L254.6 195.95 Q253.15 193.15 249.6 192.75 L248.9 192.8 M280.1 197.35 L278.0 196.85 Q274.75 196.9 273.35 197.95 L279.25 198.6 279.6 198.9 280.1 197.35 M297.0 194.8 L296.45 196.75 Q296.6 197.75 297.05 198.45 L295.95 198.5 295.95 197.9 294.45 195.65 296.45 194.9 297.0 194.8 Z" fill="none" stroke="#000000" stroke-linecap="round" stroke-linejoin="round" stroke-opacity="0.4" stroke-width="1.0"/>
  </g>
</svg>
