<?xml version="1.0" encoding="UTF-8" standalone="no"?>
<svg xmlns:xlink="http://www.w3.org/1999/xlink" height="16.45px" width="13.35px" xmlns="http://www.w3.org/2000/svg">
  <g transform="matrix(1.0, 0.0, 0.0, 1.0, -9.7, -25.95)">
    <path d="M12.75 30.15 L12.25 29.65 12.2 28.95 Q12.35 28.55 12.75 28.4 13.05 28.25 13.45 28.4 13.8 28.55 13.95 28.85 14.15 29.25 13.95 29.65 L13.5 30.1 12.75 30.15" fill="#336966" fill-opacity="0.7019608" fill-rule="evenodd" stroke="none"/>
    <path d="M14.35 27.9 L14.2 27.7 14.2 27.5 14.35 27.3 14.55 27.35 14.75 27.45 14.75 27.7 14.55 27.8 14.35 27.9" fill="#336966" fill-opacity="0.7019608" fill-rule="evenodd" stroke="none"/>
    <path d="M15.95 28.6 L15.8 28.4 15.8 28.2 15.95 28.0 16.15 28.05 16.35 28.15 16.35 28.4 16.15 28.5 15.95 28.6" fill="#336966" fill-opacity="0.7019608" fill-rule="evenodd" stroke="none"/>
    <path d="M17.45 28.95 Q17.4 30.1 16.55 30.9 15.7 31.7 14.45 31.65 13.3 31.6 12.5 30.75 11.7 29.9 11.75 28.65 11.8 27.5 12.7 26.7 13.5 25.9 14.75 25.95 15.9 26.0 16.7 26.9 17.5 27.7 17.45 28.95" fill="url(#gradient0)" fill-rule="evenodd" stroke="none"/>
    <path d="M17.45 28.95 Q17.4 30.1 16.55 30.9 15.7 31.7 14.45 31.65 13.3 31.6 12.5 30.75 11.7 29.9 11.75 28.65 11.8 27.5 12.7 26.7 13.5 25.9 14.75 25.95 15.9 26.0 16.7 26.9 17.5 27.7 17.45 28.95 Z" fill="none" stroke="#2e5c1d" stroke-linecap="round" stroke-linejoin="round" stroke-opacity="0.8" stroke-width="0.05"/>
    <path d="M12.65 27.05 Q12.55 26.9 12.85 26.7 L13.6 26.4 14.5 26.25 Q14.9 26.3 14.95 26.45 L14.7 26.85 13.95 27.15 13.05 27.25 Q12.7 27.25 12.65 27.05" fill="#ffffff" fill-opacity="0.6" fill-rule="evenodd" stroke="none"/>
    <path d="M17.85 40.15 L16.7 40.2 Q16.05 40.0 15.8 39.4 15.5 38.85 15.7 38.25 15.9 37.65 16.5 37.35 L17.65 37.25 Q18.25 37.45 18.55 38.05 18.85 38.65 18.65 39.25 L17.85 40.15" fill="#336966" fill-opacity="0.7019608" fill-rule="evenodd" stroke="none"/>
    <path d="M16.8 35.75 L16.4 35.75 16.15 35.5 16.1 35.15 Q16.15 34.95 16.35 34.9 L16.7 34.85 17.0 35.1 17.0 35.45 16.8 35.75" fill="#336966" fill-opacity="0.7019608" fill-rule="evenodd" stroke="none"/>
    <path d="M19.4 34.6 L19.0 34.6 18.75 34.35 18.7 34.0 Q18.75 33.8 18.95 33.75 L19.3 33.7 19.6 33.95 19.6 34.3 19.4 34.6" fill="#336966" fill-opacity="0.7019608" fill-rule="evenodd" stroke="none"/>
    <path d="M21.7 33.15 Q23.05 34.55 23.05 36.45 23.05 38.35 21.7 39.8 20.25 41.15 18.35 41.15 16.45 41.15 15.05 39.8 13.65 38.35 13.7 36.45 13.65 34.55 15.05 33.15 16.45 31.75 18.35 31.8 20.25 31.75 21.7 33.15" fill="url(#gradient1)" fill-rule="evenodd" stroke="none"/>
    <path d="M21.7 33.15 Q23.05 34.55 23.05 36.45 23.05 38.35 21.7 39.8 20.25 41.15 18.35 41.15 16.45 41.15 15.05 39.8 13.65 38.35 13.7 36.45 13.65 34.55 15.05 33.15 16.45 31.75 18.35 31.8 20.25 31.75 21.7 33.15 Z" fill="none" stroke="#d61a10" stroke-linecap="round" stroke-linejoin="round" stroke-opacity="0.8" stroke-width="0.05"/>
    <path d="M13.95 36.95 Q13.7 36.8 13.75 36.25 L14.25 34.95 Q14.6 34.2 15.1 33.75 15.55 33.35 15.85 33.45 16.15 33.55 16.0 34.15 L15.55 35.45 14.7 36.6 Q14.25 37.05 13.95 36.95" fill="#ffffff" fill-opacity="0.6" fill-rule="evenodd" stroke="none"/>
    <path d="M12.4 35.35 L12.2 35.65 11.8 35.75 11.5 35.55 11.4 35.15 11.6 34.85 12.0 34.75 Q12.2 34.75 12.3 34.9 L12.4 35.35" fill="#336966" fill-opacity="0.7019608" fill-rule="evenodd" stroke="none"/>
    <path d="M11.05 34.7 L11.0 34.8 10.9 34.85 10.8 34.8 10.7 34.7 10.8 34.6 10.9 34.55 11.0 34.6 11.05 34.7" fill="#336966" fill-opacity="0.7019608" fill-rule="evenodd" stroke="none"/>
    <path d="M11.25 33.75 L11.2 33.85 11.1 33.9 11.0 33.85 10.9 33.75 11.0 33.65 11.1 33.6 11.2 33.65 11.25 33.75" fill="#336966" fill-opacity="0.7019608" fill-rule="evenodd" stroke="none"/>
    <path d="M9.75 34.95 Q9.6 34.35 9.95 33.8 10.3 33.3 10.95 33.2 L12.05 33.45 12.7 34.45 12.45 35.55 Q12.1 36.1 11.5 36.2 10.85 36.3 10.35 35.9 9.85 35.55 9.75 34.95" fill="url(#gradient2)" fill-rule="evenodd" stroke="none"/>
    <path d="M9.75 34.95 Q9.6 34.35 9.95 33.8 10.3 33.3 10.95 33.2 L12.05 33.45 12.7 34.45 12.45 35.55 Q12.1 36.1 11.5 36.2 10.85 36.3 10.35 35.9 9.85 35.55 9.75 34.95 Z" fill="none" stroke="#c7812c" stroke-linecap="round" stroke-linejoin="round" stroke-opacity="0.8" stroke-width="0.05"/>
    <path d="M15.45 42.1 L13.1 42.25 Q11.9 41.85 11.35 40.7 10.75 39.55 11.2 38.4 11.55 37.15 12.75 36.6 L15.05 36.45 Q16.25 36.8 16.85 38.0 17.35 39.15 17.0 40.3 16.55 41.5 15.45 42.1" fill="#336966" fill-opacity="0.7019608" fill-rule="evenodd" stroke="none"/>
    <path d="M13.5 33.4 L12.7 33.4 Q12.3 33.3 12.2 32.9 12.0 32.6 12.1 32.2 12.2 31.8 12.6 31.7 L13.3 31.6 Q13.7 31.7 13.9 32.1 L13.9 32.8 13.5 33.4" fill="#336966" fill-opacity="0.7019608" fill-rule="evenodd" stroke="none"/>
    <path d="M18.6 31.05 L17.8 31.05 Q17.4 30.95 17.3 30.55 17.1 30.25 17.2 29.85 17.3 29.45 17.7 29.35 L18.4 29.25 19.0 29.75 19.0 30.45 18.6 31.05" fill="#336966" fill-opacity="0.7019608" fill-rule="evenodd" stroke="none"/>
  </g>
  <defs>
    <linearGradient gradientTransform="matrix(0.0017, -6.0E-4, 0.0012, 0.0033, 14.25, 28.95)" gradientUnits="userSpaceOnUse" id="gradient0" spreadMethod="pad" x1="-819.2" x2="819.2">
      <stop offset="0.06666666666666667" stop-color="#59be3a" stop-opacity="0.7019608"/>
      <stop offset="0.5137254901960784" stop-color="#baf57c" stop-opacity="0.7019608"/>
      <stop offset="1.0" stop-color="#d2f4d6" stop-opacity="0.6509804"/>
    </linearGradient>
    <linearGradient gradientTransform="matrix(0.0026, -0.0032, 0.0045, 0.0036, 18.75, 36.0)" gradientUnits="userSpaceOnUse" id="gradient1" spreadMethod="pad" x1="-819.2" x2="819.2">
      <stop offset="0.06666666666666667" stop-color="#ff0b0b" stop-opacity="0.7019608"/>
      <stop offset="0.5137254901960784" stop-color="#f56b58" stop-opacity="0.7019608"/>
      <stop offset="1.0" stop-color="#fbe7d9" stop-opacity="0.6509804"/>
    </linearGradient>
    <linearGradient gradientTransform="matrix(-5.0E-4, -0.0014, 0.0018, -6.0E-4, 11.2, 34.65)" gradientUnits="userSpaceOnUse" id="gradient2" spreadMethod="pad" x1="-819.2" x2="819.2">
      <stop offset="0.06666666666666667" stop-color="#e6ba73" stop-opacity="0.7019608"/>
      <stop offset="0.5058823529411764" stop-color="#f8ddb1" stop-opacity="0.7019608"/>
      <stop offset="1.0" stop-color="#fef4e0" stop-opacity="0.6509804"/>
    </linearGradient>
  </defs>
</svg>
