<?xml version="1.0" encoding="UTF-8" standalone="no"?>
<svg xmlns:xlink="http://www.w3.org/1999/xlink" height="152.2px" width="253.2px" xmlns="http://www.w3.org/2000/svg">
  <g transform="matrix(1.0, 0.0, 0.0, 1.0, -148.85, -124.35)">
    <path d="M171.25 167.75 Q176.5 170.4 182.25 171.7 199.45 175.6 220.45 167.3 222.2 166.6 224.0 166.0 258.65 153.7 292.6 168.5 304.3 173.6 315.95 181.95 328.2 190.0 346.3 191.75 L352.85 196.85 Q318.0 194.3 300.0 180.45 264.25 161.1 228.5 172.45 L224.55 174.2 Q202.15 183.6 183.75 179.75 178.45 178.65 173.5 176.45 167.85 173.5 163.9 170.55 152.45 161.9 155.5 152.95 190.85 130.7 246.5 124.45 290.75 125.2 336.45 139.95 349.8 143.9 362.1 150.45 L355.05 152.75 Q269.05 117.45 203.5 138.95 161.7 149.7 171.25 167.75 158.9 159.65 160.5 154.45 158.9 159.65 171.25 167.75 M374.3 166.05 L381.35 162.65 Q392.1 170.65 401.95 180.95 L401.45 187.05 Q392.25 195.25 373.75 196.85 L366.4 191.85 371.1 191.45 376.9 190.75 Q395.2 185.55 374.3 166.05 M395.45 182.45 Q393.3 188.7 376.9 190.75 393.3 188.7 395.45 182.45" fill="#9d8455" fill-rule="evenodd" stroke="none"/>
    <path d="M182.25 171.7 Q176.5 170.4 171.25 167.75 161.7 149.7 203.5 138.95 269.05 117.45 355.05 152.75 L347.6 188.55 Q330.9 176.5 292.6 168.5 258.65 153.7 224.0 166.0 201.4 165.4 182.25 171.7 M371.1 191.45 L374.3 166.05 Q395.2 185.55 376.9 190.75 L371.1 191.45" fill="#3d3321" fill-rule="evenodd" stroke="none"/>
    <path d="M163.9 170.55 Q167.85 173.5 173.5 176.45 178.45 178.65 183.75 179.75 188.0 216.4 172.85 230.65 164.95 222.35 158.1 212.2 152.8 185.65 163.9 170.55 M224.55 174.2 L228.5 172.45 Q264.25 161.1 300.0 180.45 318.0 194.3 352.85 196.85 L341.5 258.95 Q288.9 275.1 240.0 266.45 220.2 263.0 203.5 254.1 201.3 209.6 224.55 174.2 M373.75 196.85 Q392.25 195.25 401.45 187.05 398.7 216.5 389.45 239.45 377.75 245.35 366.2 250.1 L373.75 196.85" fill="#5e4f33" fill-rule="evenodd" stroke="none"/>
    <path d="M155.5 152.95 Q152.45 161.9 163.9 170.55 152.8 185.65 158.1 212.2 153.85 205.95 150.0 198.95 146.3 174.1 155.5 152.95" fill="#685539" fill-rule="evenodd" stroke="none"/>
    <path d="M183.75 179.75 Q202.15 183.6 224.55 174.2 201.3 209.6 203.5 254.1 186.6 245.1 172.85 230.65 188.0 216.4 183.75 179.75" fill="#4d3f2b" fill-rule="evenodd" stroke="none"/>
    <path d="M352.85 196.85 Q364.45 197.65 373.75 196.85 L366.2 250.1 Q353.75 255.2 341.5 258.95 L352.85 196.85" fill="#b18b34" fill-rule="evenodd" stroke="none"/>
    <path d="M355.05 152.75 L361.45 155.45 Q369.1 161.2 374.3 166.05 L371.1 191.45 366.4 191.85 Q358.8 192.4 351.95 192.1 L347.6 188.55 355.05 152.75" fill="#91722b" fill-rule="evenodd" stroke="none"/>
    <path d="M352.85 196.85 L346.3 191.75 351.95 192.1 Q358.8 192.4 366.4 191.85 L373.75 196.85 Q364.45 197.65 352.85 196.85 M355.05 152.75 L362.1 150.45 Q372.05 155.7 381.35 162.65 L374.3 166.05 Q369.1 161.2 361.45 155.45 L355.05 152.75" fill="#ccaa22" fill-rule="evenodd" stroke="none"/>
    <path d="M182.25 171.7 Q176.5 170.4 171.25 167.75 158.9 159.65 160.5 154.45 M346.3 191.75 Q328.2 190.0 315.95 181.95 304.3 173.6 292.6 168.5 258.65 153.7 224.0 166.0 222.2 166.6 220.45 167.3 199.45 175.6 182.25 171.7 201.4 165.4 224.0 166.0 M362.1 150.45 Q349.8 143.9 336.45 139.95 290.75 125.2 246.5 124.45 190.85 130.7 155.5 152.95 146.3 174.1 150.0 198.95 153.85 205.95 158.1 212.2 164.95 222.35 172.85 230.65 186.6 245.1 203.5 254.1 220.2 263.0 240.0 266.45 288.9 275.1 341.5 258.95 L341.25 260.2 M381.35 162.65 Q372.05 155.7 362.1 150.45 M347.6 188.55 L351.95 192.1 Q358.8 192.4 366.4 191.85 L371.1 191.45 376.9 190.75 Q393.3 188.7 395.45 182.45 M346.3 191.75 L351.95 192.1 M347.6 188.55 Q330.9 176.5 292.6 168.5 M401.45 187.05 L401.95 180.95 Q392.1 170.65 381.35 162.65 M401.45 187.05 Q398.7 216.5 389.45 239.45 377.75 245.35 366.2 250.1 353.75 255.2 341.5 258.95" fill="none" stroke="#000000" stroke-linecap="round" stroke-linejoin="round" stroke-opacity="0.4" stroke-width="0.2"/>
    <path d="M171.25 167.75 Q161.7 149.7 203.5 138.95 269.05 117.45 355.05 152.75 L361.45 155.45 Q369.1 161.2 374.3 166.05 395.2 185.55 376.9 190.75" fill="none" stroke="#ffffff" stroke-linecap="round" stroke-linejoin="round" stroke-opacity="0.2509804" stroke-width="0.2"/>
    <path d="M182.65 259.65 L188.35 253.35 178.65 256.6 209.2 239.25 219.2 250.9 188.05 267.4 200.1 252.6 182.65 259.65" fill="#cc2a39" fill-rule="evenodd" stroke="none"/>
    <path d="M182.65 259.65 L150.85 272.45 178.65 256.6 188.35 253.35 182.65 259.65" fill="#eaa959" fill-rule="evenodd" stroke="none"/>
    <path d="M336.3 182.45 L330.6 188.75 340.3 185.5 309.75 202.85 299.75 191.2 330.9 174.7 318.85 189.5 336.3 182.45" fill="#cc2a39" fill-rule="evenodd" stroke="none"/>
    <path d="M336.3 182.45 L368.1 169.65 340.3 185.5 330.6 188.75 336.3 182.45" fill="#eaa959" fill-rule="evenodd" stroke="none"/>
    <path d="M311.9 229.4 L305.55 226.9 Q306.85 217.9 304.45 209.35 L311.15 207.3 Q314.05 218.05 311.9 229.4 M202.35 234.0 Q201.0 227.2 201.65 220.35 L209.15 220.1 Q208.5 225.55 209.3 230.9 L202.35 234.0" fill="#ffffff" fill-rule="evenodd" stroke="none"/>
    <path d="M305.5 227.15 L305.55 226.9 311.9 229.4 310.85 233.85 309.85 237.15 Q308.6 240.8 307.0 244.1 L301.45 240.8 303.4 235.75 Q304.9 231.4 305.5 227.15 M228.45 269.75 Q214.95 262.55 207.5 248.5 203.75 241.4 202.35 234.0 L209.3 230.9 Q210.35 238.45 214.15 245.65 220.75 258.05 232.7 264.3 L228.45 269.75 M201.65 220.35 Q202.2 214.0 204.4 207.5 207.8 197.3 214.35 189.5 L222.3 191.7 Q215.0 199.35 211.45 209.9 209.75 215.05 209.15 220.1 L201.65 220.35" fill="#e7f1f5" fill-rule="evenodd" stroke="none"/>
    <path d="M305.5 227.15 L305.4 227.0 305.55 226.9 305.5 227.15 M229.6 185.4 L230.4 184.85 242.0 267.95 Q236.95 266.5 232.7 264.3 220.75 258.05 214.15 245.65 210.35 238.45 209.3 230.9 208.5 225.55 209.15 220.1 209.75 215.05 211.45 209.9 215.0 199.35 222.3 191.7 225.5 188.25 229.6 185.4" fill="#000000" fill-rule="evenodd" stroke="none"/>
    <path d="M290.3 256.2 Q297.4 249.75 301.45 240.8 L307.0 244.1 Q302.0 254.4 293.45 261.85 288.35 266.15 282.1 269.45 273.65 273.95 264.95 275.55 264.85 272.4 264.9 269.15 272.1 267.7 279.2 263.95 285.5 260.6 290.3 256.2 M311.15 207.3 L304.45 209.35 Q303.15 204.6 300.65 200.0 293.2 185.85 278.75 179.75 L282.75 173.5 Q298.45 180.45 306.7 196.1 309.65 201.7 311.15 207.3 M248.8 276.0 Q244.3 275.45 239.75 274.15 233.6 272.45 228.45 269.75 L232.7 264.3 Q236.95 266.5 242.0 267.95 L242.25 268.05 Q246.35 269.2 250.35 269.65 L248.8 276.0 M214.35 189.5 Q218.25 184.65 223.4 180.7 L229.6 185.4 Q225.5 188.25 222.3 191.7 L214.35 189.5" fill="#9ec2e2" fill-rule="evenodd" stroke="none"/>
    <path d="M264.35 176.05 Q255.55 175.0 247.0 177.25 L246.95 177.2 Q241.2 178.7 235.6 181.7 L233.55 182.85 Q231.95 183.75 230.4 184.85 L229.6 185.4 223.4 180.7 Q227.4 177.65 232.1 175.15 252.7 164.3 274.55 170.45 278.85 171.7 282.75 173.5 L278.75 179.75 Q275.8 178.5 272.6 177.6 268.5 176.45 264.35 176.05 M264.95 275.55 Q256.95 277.05 248.8 276.0 L250.35 269.65 253.1 269.95 264.9 269.15 Q264.85 272.4 264.95 275.55" fill="#3e6397" fill-rule="evenodd" stroke="none"/>
    <path d="M305.4 227.0 L305.5 227.15 Q304.9 231.4 303.4 235.75 L301.45 240.8 Q297.4 249.75 290.3 256.2 L247.0 177.25 Q255.55 175.0 264.35 176.05 L305.4 227.0" fill="#542120" fill-rule="evenodd" stroke="none"/>
    <path d="M305.55 226.9 L305.4 227.0 264.35 176.05 Q268.5 176.45 272.6 177.6 275.8 178.5 278.75 179.75 293.2 185.85 300.65 200.0 303.15 204.6 304.45 209.35 306.85 217.9 305.55 226.9 M247.0 177.25 L290.3 256.2 Q285.5 260.6 279.2 263.95 272.1 267.7 264.9 269.15 L253.1 269.95 233.55 182.85 235.6 181.7 Q241.2 178.7 246.95 177.2 L247.0 177.25" fill="#2c1010" fill-rule="evenodd" stroke="none"/>
    <path d="M230.4 184.85 Q231.95 183.75 233.55 182.85 L253.1 269.95 250.35 269.65 Q246.35 269.2 242.25 268.05 L242.0 267.95 230.4 184.85" fill="#692727" fill-rule="evenodd" stroke="none"/>
    <path d="M305.5 227.15 L305.55 226.9 Q306.85 217.9 304.45 209.35 303.15 204.6 300.65 200.0 293.2 185.85 278.75 179.75 275.8 178.5 272.6 177.6 268.5 176.45 264.35 176.05 255.55 175.0 247.0 177.25 M290.3 256.2 Q297.4 249.75 301.45 240.8 L303.4 235.75 Q304.9 231.4 305.5 227.15 M311.9 229.4 Q314.05 218.05 311.15 207.3 309.65 201.7 306.7 196.1 298.45 180.45 282.75 173.5 278.85 171.7 274.55 170.45 252.7 164.3 232.1 175.15 227.4 177.65 223.4 180.7 218.25 184.65 214.35 189.5 207.8 197.3 204.4 207.5 202.2 214.0 201.65 220.35 201.0 227.2 202.35 234.0 203.75 241.4 207.5 248.5 214.95 262.55 228.45 269.75 233.6 272.45 239.75 274.15 244.3 275.45 248.8 276.0 256.95 277.05 264.95 275.55 273.65 273.95 282.1 269.45 288.35 266.15 293.45 261.85 302.0 254.4 307.0 244.1 308.6 240.8 309.85 237.15 L310.85 233.85 311.9 229.4 M233.55 182.85 L235.6 181.7 Q241.2 178.7 246.95 177.2 M230.4 184.85 Q231.95 183.75 233.55 182.85 M253.1 269.95 L264.9 269.15 Q272.1 267.7 279.2 263.95 285.5 260.6 290.3 256.2 M229.6 185.4 L230.4 184.85 M242.0 267.95 L242.25 268.05 Q246.35 269.2 250.35 269.65 L253.1 269.95 M242.0 267.95 Q236.95 266.5 232.7 264.3 220.75 258.05 214.15 245.65 210.35 238.45 209.3 230.9 208.5 225.55 209.15 220.1 209.75 215.05 211.45 209.9 215.0 199.35 222.3 191.7 225.5 188.25 229.6 185.4" fill="none" stroke="#000000" stroke-linecap="round" stroke-linejoin="round" stroke-opacity="0.4" stroke-width="0.2"/>
    <path d="M269.15 207.2 Q270.95 208.5 274.0 214.65 277.3 221.25 276.5 223.8 275.95 225.45 275.2 226.0 274.0 227.0 271.45 226.25 268.15 225.35 263.95 218.3 259.75 211.3 255.75 210.15 252.8 209.35 250.95 209.6 248.95 209.9 248.5 211.25 248.25 212.05 250.2 214.3 L254.5 219.05 Q260.55 226.45 258.65 232.1 258.05 233.9 256.85 235.1 254.4 237.55 250.6 236.45 246.9 235.4 244.35 232.35 242.45 229.9 241.65 226.95 L239.95 218.9 239.7 217.1 239.1 217.1 238.95 217.15 Q237.55 220.2 235.85 225.3 235.15 227.15 234.4 227.9 235.7 230.95 237.25 233.25 241.85 239.95 249.85 242.2 261.15 245.4 269.55 238.95 275.6 234.35 277.9 227.4 280.3 220.3 275.0 211.7 268.85 201.75 254.65 197.05 255.1 199.85 260.9 203.2 264.5 205.3 269.15 207.2 M262.6 195.9 Q275.65 202.9 280.5 211.95 285.3 221.05 281.9 231.1 278.55 241.05 269.05 246.1 259.45 251.2 249.25 248.35 239.1 245.5 234.25 236.35 231.85 231.8 230.75 225.95 229.75 220.25 230.05 213.3 230.6 199.3 240.05 194.1 247.35 190.1 256.85 193.35 259.6 194.35 262.6 195.9" fill="#669900" fill-rule="evenodd" stroke="none"/>
    <path d="M269.15 207.2 Q264.5 205.3 260.9 203.2 255.1 199.85 254.65 197.05 268.85 201.75 275.0 211.7 280.3 220.3 277.9 227.4 275.6 234.35 269.55 238.95 261.15 245.4 249.85 242.2 241.85 239.95 237.25 233.25 235.7 230.95 234.4 227.9 235.15 227.15 235.85 225.3 237.55 220.2 238.95 217.15 L239.1 217.1 239.7 217.1 239.95 218.9 241.65 226.95 Q242.45 229.9 244.35 232.35 246.9 235.4 250.6 236.45 254.4 237.55 256.85 235.1 258.05 233.9 258.65 232.1 260.55 226.45 254.5 219.05 L250.2 214.3 Q248.25 212.05 248.5 211.25 248.95 209.9 250.95 209.6 252.8 209.35 255.75 210.15 259.75 211.3 263.95 218.3 268.15 225.35 271.45 226.25 274.0 227.0 275.2 226.0 275.95 225.45 276.5 223.8 277.3 221.25 274.0 214.65 270.95 208.5 269.15 207.2" fill="#537601" fill-rule="evenodd" stroke="none"/>
    <path d="M262.6 195.9 Q275.65 202.9 280.5 211.95 285.3 221.05 281.9 231.1 278.55 241.05 269.05 246.1 259.45 251.2 249.25 248.35 239.1 245.5 234.25 236.35 231.85 231.8 230.75 225.95 229.75 220.25 230.05 213.3 230.6 199.3 240.05 194.1 247.35 190.1 256.85 193.35 259.6 194.35 262.6 195.9 Z" fill="none" stroke="#000000" stroke-linecap="round" stroke-linejoin="round" stroke-opacity="0.4" stroke-width="0.2"/>
    <path d="M268.1 215.85 Q259.4 218.9 254.25 224.5 250.75 233.15 254.9 234.1 260.05 237.9 262.9 237.25 268.95 232.4 269.7 223.0 L274.55 225.25 276.1 230.7 267.95 240.95 Q258.65 246.95 252.75 240.2 L247.5 232.5 248.1 221.95 Q251.1 213.4 257.95 210.0 255.35 204.75 247.05 204.0 L241.6 212.45 242.45 218.4 236.2 219.3 234.4 207.75 239.65 199.45 Q244.15 195.4 252.0 197.1 L267.1 204.95 Q272.7 209.0 268.1 215.85" fill="#99ff00" fill-opacity="0.52156866" fill-rule="evenodd" stroke="none"/>
    <path d="M266.5 209.9 L275.75 206.0 Q288.95 200.7 301.2 197.85 316.85 194.3 302.3 202.95 L281.6 215.4 280.4 212.7 289.75 206.0 279.15 210.0 Q268.5 214.2 258.05 219.25 L266.5 209.9 M292.45 204.95 L289.75 206.0 292.45 204.95 M246.35 219.45 L235.4 231.25 Q233.8 232.15 232.25 233.15 L226.1 237.05 222.45 239.45 Q228.1 237.75 233.8 236.15 L234.75 237.95 209.45 249.55 Q198.85 252.05 207.9 243.9 217.0 235.7 230.2 228.2 238.25 223.55 246.35 219.45 M218.95 241.6 L222.45 239.45 218.95 241.6" fill="#ffffff" fill-rule="evenodd" stroke="none"/>
    <path d="M266.5 209.9 L258.05 219.25 258.0 219.25 Q246.6 224.7 235.4 231.25 L246.35 219.45 246.35 219.4 Q256.4 214.3 266.5 209.9 M279.15 210.0 L289.75 206.0 280.4 212.7 279.15 210.0 M233.8 236.15 Q228.1 237.75 222.45 239.45 L226.1 237.05 232.25 233.15 233.8 236.15" fill="#eceff2" fill-rule="evenodd" stroke="none"/>
    <path d="M280.4 212.7 L281.6 215.4 302.3 202.95 Q316.85 194.3 301.2 197.85 288.95 200.7 275.75 206.0 L266.5 209.9 Q256.4 214.3 246.35 219.4 L246.35 219.45 Q238.25 223.55 230.2 228.2 217.0 235.7 207.9 243.9 198.85 252.05 209.45 249.55 L234.75 237.95 233.8 236.15 232.25 233.15 Q233.8 232.15 235.4 231.25 246.6 224.7 258.0 219.25 L258.05 219.25 Q268.5 214.2 279.15 210.0 L289.75 206.0 292.45 204.95 M279.15 210.0 L280.4 212.7 M222.45 239.45 L218.95 241.6 M222.45 239.45 L226.1 237.05 232.25 233.15" fill="none" stroke="#000000" stroke-linecap="round" stroke-linejoin="round" stroke-opacity="0.4" stroke-width="0.2"/>
    <path d="M274.75 204.85 L280.55 196.5 272.9 202.95 Q253.3 219.45 236.2 239.8 L231.8 245.45 228.85 249.1 238.2 241.55 240.35 243.4 220.25 262.5 Q211.0 268.25 216.8 257.75 222.6 247.15 232.6 235.8 249.6 216.45 268.3 200.3 279.05 191.05 289.75 184.35 303.35 175.9 292.55 188.7 L279.25 204.5 275.85 205.9 274.75 204.85 M226.5 251.95 L228.85 249.1 226.5 251.95 M283.85 193.8 L280.55 196.5 283.85 193.8" fill="#ffffff" fill-rule="evenodd" stroke="none"/>
    <path d="M280.55 196.5 L274.75 204.85 272.9 202.95 280.55 196.5 M238.2 241.55 L228.85 249.1 231.8 245.45 236.2 239.8 238.2 241.55" fill="#eceff2" fill-rule="evenodd" stroke="none"/>
    <path d="M274.75 204.85 L275.85 205.9 279.25 204.5 292.55 188.7 Q303.35 175.9 289.75 184.35 279.05 191.05 268.3 200.3 249.6 216.45 232.6 235.8 222.6 247.15 216.8 257.75 211.0 268.25 220.25 262.5 L240.35 243.4 238.2 241.55 236.2 239.8 Q253.3 219.45 272.9 202.95 L280.55 196.5 283.85 193.8 M228.85 249.1 L226.5 251.95 M274.75 204.85 L272.9 202.95 M228.85 249.1 L231.8 245.45 236.2 239.8" fill="none" stroke="#000000" stroke-linecap="round" stroke-linejoin="round" stroke-opacity="0.4" stroke-width="0.2"/>
    <path d="M243.7 198.65 Q242.85 199.6 242.0 199.35 240.9 199.05 240.8 198.05 L240.9 197.1 Q241.4 195.6 243.35 195.4 245.2 195.15 244.5 197.25 244.3 197.95 243.7 198.65 M241.85 202.6 Q243.85 200.85 246.15 201.0 247.95 202.6 248.4 204.95 248.7 206.8 248.15 208.45 247.9 209.15 246.1 210.55 244.2 212.1 243.35 211.85 240.75 211.15 239.9 208.25 L239.6 205.65 Q240.15 204.0 241.85 202.6 M235.7 200.2 Q237.9 197.75 238.05 200.8 L237.15 204.1 Q236.6 206.3 236.55 207.7 236.4 210.65 236.95 216.9 L237.35 222.65 236.8 223.55 Q236.1 224.1 235.2 223.85 232.35 223.05 232.6 213.25 L233.45 203.65 Q233.9 202.2 235.7 200.2 M240.4 232.05 L241.7 234.65 Q244.2 238.7 251.45 240.75 255.9 242.0 258.75 241.95 L261.2 241.8 261.9 242.1 262.0 242.25 261.9 242.75 Q261.55 243.9 257.2 244.85 252.5 245.8 249.35 244.9 243.65 243.3 239.45 236.7 235.85 231.1 236.35 229.5 L237.9 229.55 239.1 230.65 Q239.9 230.85 240.4 232.05 M276.75 234.7 L275.5 234.9 Q274.45 234.6 274.45 233.7 L274.7 233.05 Q275.3 231.3 276.65 231.85 278.05 232.4 277.6 233.85 L276.75 234.7 M271.7 241.0 Q269.85 242.15 268.1 241.65 266.9 241.3 266.9 240.55 L267.15 239.8 Q267.85 237.8 271.05 237.2 274.3 236.55 273.3 239.45 273.1 240.05 271.7 241.0" fill="#ffffff" fill-opacity="0.5803922" fill-rule="evenodd" stroke="none"/>
  </g>
</svg>
