<?xml version="1.0" encoding="UTF-8" standalone="no"?>
<svg xmlns:xlink="http://www.w3.org/1999/xlink" height="75.4px" width="124.25px" xmlns="http://www.w3.org/2000/svg">
  <g transform="matrix(1.0, 0.0, 0.0, 1.0, -213.35, -162.75)">
    <path d="M213.75 189.45 L213.85 188.75 214.45 186.45 Q216.15 182.35 228.05 178.55 L233.0 175.2 Q245.0 167.95 260.35 165.6 L261.6 165.15 Q268.1 162.95 270.8 162.95 L277.0 163.45 284.3 164.8 Q293.65 165.5 301.9 167.95 306.8 168.4 311.2 169.9 318.1 172.25 320.0 176.1 334.15 185.25 336.05 197.45 L336.35 198.3 335.2 200.15 Q334.1 201.2 332.7 201.45 L331.7 201.2 330.7 200.95 Q309.65 212.95 308.05 212.95 306.8 212.95 306.8 212.05 L307.05 211.0 307.3 210.2 Q307.05 210.15 301.35 212.0 295.4 213.95 292.8 213.95 287.25 213.95 286.35 212.6 285.45 211.2 281.3 211.2 L270.7 212.45 257.8 213.7 Q248.2 213.7 244.1 211.15 240.25 207.75 236.55 205.95 231.6 203.55 228.6 201.15 225.1 198.45 224.8 196.2 L222.55 196.2 219.8 196.7 Q217.4 196.7 215.8 195.2 213.8 193.3 213.8 189.45 L213.75 189.45 M234.35 185.45 L231.0 184.0 Q229.05 183.3 227.3 182.95 229.05 183.3 231.0 184.0 L234.35 185.45 235.7 186.15 237.6 187.2 240.25 189.0 240.6 189.3 241.55 190.2 243.45 191.9 248.55 192.45 Q250.45 192.7 255.05 194.7 L255.35 194.85 255.6 194.95 Q260.15 196.85 261.55 197.2 L271.05 199.45 Q276.75 197.95 281.3 197.95 L287.05 198.45 Q293.75 198.45 300.0 196.65 L300.5 196.5 Q304.9 195.15 309.1 192.9 L310.7 192.05 313.95 190.25 314.05 190.2 316.05 189.15 Q318.5 188.1 320.8 187.8 L320.8 187.75 Q320.3 187.25 320.3 186.3 L320.55 185.25 320.8 184.2 Q320.8 183.25 320.15 182.8 L319.85 182.65 319.7 182.55 317.2 184.9 314.3 185.55 308.55 186.2 Q294.05 186.2 294.05 181.45 L292.55 181.45 281.6 182.95 271.3 183.7 Q268.0 183.7 267.75 183.2 267.4 182.55 266.0 182.3 L255.45 182.7 Q250.1 182.7 247.0 181.2 243.9 179.7 241.8 179.7 L238.6 179.95 238.95 180.45 Q239.3 181.25 239.3 182.95 L239.3 183.4 239.3 182.95 239.5 183.1 239.3 183.4 238.2 184.35 Q236.6 185.4 234.35 185.45 M238.3 179.45 L238.6 179.95 238.3 179.45 M290.8 168.2 L294.2 167.85 297.3 167.7 301.9 167.95 297.3 167.7 294.2 167.85 290.8 168.2 M260.35 165.6 Q256.3 166.95 254.8 167.7 256.3 166.95 260.35 165.6 M323.05 187.7 L321.5 187.75 323.05 187.7" fill="#ffffff" fill-rule="evenodd" stroke="none"/>
    <path d="M336.35 198.3 Q338.05 202.9 336.95 204.15 L336.0 205.05 334.8 205.95 Q332.05 209.65 330.05 211.2 329.1 211.95 325.75 212.95 L318.8 214.95 Q314.7 216.2 310.8 218.7 308.0 220.45 305.55 220.45 L301.05 219.2 Q301.0 219.2 297.45 220.95 293.9 222.7 291.55 222.7 287.9 222.7 284.0 221.6 280.1 220.45 277.55 220.45 L267.1 222.1 257.55 223.7 Q245.45 223.7 237.45 217.3 230.9 210.4 228.05 209.45 221.4 207.15 217.5 202.65 216.2 201.15 215.35 199.55 213.55 196.25 213.55 192.45 L213.75 189.45 213.8 189.45 Q213.8 193.3 215.8 195.2 217.4 196.7 219.8 196.7 L222.55 196.2 224.8 196.2 Q225.1 198.45 228.6 201.15 231.6 203.55 236.55 205.95 240.25 207.75 244.1 211.15 248.2 213.7 257.8 213.7 L270.7 212.45 281.3 211.2 Q285.45 211.2 286.35 212.6 287.25 213.95 292.8 213.95 295.4 213.95 301.35 212.0 307.05 210.15 307.3 210.2 L307.05 211.0 306.8 212.05 Q306.8 212.95 308.05 212.95 309.65 212.95 330.7 200.95 L331.7 201.2 332.7 201.45 Q334.1 201.2 335.2 200.15 L336.35 198.3 M234.35 185.45 Q236.6 185.4 238.2 184.35 L239.3 183.4 239.5 183.1 239.3 182.95 Q239.3 181.25 238.95 180.45 L238.6 179.95 241.8 179.7 Q243.9 179.7 247.0 181.2 250.1 182.7 255.45 182.7 L266.0 182.3 Q267.4 182.55 267.75 183.2 268.0 183.7 271.3 183.7 L281.6 182.95 292.55 181.45 294.05 181.45 Q294.05 186.2 308.55 186.2 L314.3 185.55 317.2 184.9 316.75 185.3 Q314.2 188.1 314.05 190.2 314.2 188.1 316.75 185.3 L317.2 184.9 319.7 182.55 319.85 182.65 320.15 182.8 Q320.8 183.25 320.8 184.2 L320.55 185.25 320.3 186.3 Q320.3 187.25 320.8 187.75 L320.8 187.8 Q318.5 188.1 316.05 189.15 L314.05 190.2 313.95 190.25 310.7 192.05 Q309.5 191.45 307.55 190.95 L302.25 190.15 300.5 189.95 297.8 189.2 Q296.65 188.25 292.2 188.05 287.5 187.9 285.55 186.7 L286.05 185.95 276.55 187.1 264.55 188.2 258.05 187.75 257.8 187.7 Q256.8 187.55 256.3 187.0 L255.7 186.45 249.35 187.95 Q243.7 189.45 242.3 189.45 L240.6 189.3 240.25 189.0 237.6 187.2 235.7 186.15 234.35 185.45 M238.55 187.2 L238.95 185.15 239.3 183.4 238.95 185.15 238.55 187.2" fill="#feedf9" fill-rule="evenodd" stroke="none"/>
    <path d="M336.0 205.05 Q335.65 207.25 334.9 209.4 328.05 215.4 324.45 216.75 L324.25 216.8 Q321.95 217.6 319.05 217.7 318.55 217.9 312.0 221.75 305.1 225.45 302.2 225.45 300.6 225.45 299.9 224.85 299.2 224.2 298.3 224.2 L294.45 225.2 Q290.9 226.2 288.3 226.2 285.15 226.2 279.85 224.7 274.6 223.2 273.05 223.2 L265.55 223.95 256.05 224.7 Q249.45 224.7 242.2 222.2 235.05 219.7 232.8 216.7 232.05 215.65 228.8 214.3 L223.45 212.1 222.25 211.55 Q218.6 209.7 216.05 207.3 215.3 204.35 215.3 201.2 L215.35 199.55 Q216.2 201.15 217.5 202.65 221.4 207.15 228.05 209.45 230.9 210.4 237.45 217.3 245.45 223.7 257.55 223.7 L267.1 222.1 277.55 220.45 Q280.1 220.45 284.0 221.6 287.9 222.7 291.55 222.7 293.9 222.7 297.45 220.95 301.0 219.2 301.05 219.2 L305.55 220.45 Q308.0 220.45 310.8 218.7 314.7 216.2 318.8 214.95 L325.75 212.95 Q329.1 211.95 330.05 211.2 332.05 209.65 334.8 205.95 L336.0 205.05 M300.5 189.95 L302.25 190.15 307.55 190.95 Q309.5 191.45 310.7 192.05 L309.1 192.9 Q304.9 195.15 300.5 196.5 L300.0 196.65 294.75 195.95 Q298.7 194.1 300.5 189.95 M255.6 194.95 L255.35 194.85 255.05 194.7 Q250.45 192.7 248.55 192.45 L243.45 191.9 241.55 190.2 240.6 189.3 242.3 189.45 Q243.7 189.45 249.35 187.95 L255.7 186.45 256.3 187.0 Q256.8 187.55 257.8 187.7 L258.05 187.75 Q257.8 188.45 257.8 189.45 257.8 190.85 260.3 192.75 L263.0 194.45 260.6 194.6 255.6 194.95" fill="#c8992f" fill-rule="evenodd" stroke="none"/>
    <path d="M318.85 226.95 L318.55 227.15 Q300.85 237.95 275.8 237.95 250.75 237.95 233.0 227.15 229.05 224.75 226.0 222.15 225.05 220.0 224.45 217.65 223.7 214.85 223.45 212.1 L228.8 214.3 Q232.05 215.65 232.8 216.7 235.05 219.7 242.2 222.2 249.45 224.7 256.05 224.7 L265.55 223.95 273.05 223.2 Q274.6 223.2 279.85 224.7 285.15 226.2 288.3 226.2 290.9 226.2 294.45 225.2 L298.3 224.2 Q299.2 224.2 299.9 224.85 300.6 225.45 302.2 225.45 305.1 225.45 312.0 221.75 318.55 217.9 319.05 217.7 321.95 217.6 324.25 216.8 L324.4 216.85 Q323.65 219.25 321.65 222.85 L318.85 226.95 M258.05 187.75 L264.55 188.2 276.55 187.1 286.05 185.95 285.55 186.7 Q287.5 187.9 292.2 188.05 296.65 188.25 297.8 189.2 L300.5 189.95 Q298.7 194.1 294.75 195.95 L286.85 194.8 272.3 194.2 263.0 194.45 260.3 192.75 Q257.8 190.85 257.8 189.45 257.8 188.45 258.05 187.75" fill="#dbb868" fill-rule="evenodd" stroke="none"/>
    <path d="M334.9 209.4 Q331.35 219.3 318.85 226.95 L321.65 222.85 Q323.65 219.25 324.4 216.85 L324.45 216.75 Q328.05 215.4 334.9 209.4 M226.0 222.15 Q218.15 215.45 216.05 207.3 218.6 209.7 222.25 211.55 L223.45 212.1 Q223.7 214.85 224.45 217.65 225.05 220.0 226.0 222.15" fill="#dfbf75" fill-rule="evenodd" stroke="none"/>
    <path d="M213.75 189.45 L213.85 188.75 214.45 186.45 Q216.15 182.35 228.05 178.55 L233.0 175.2 Q245.0 167.95 260.35 165.6 L261.6 165.15 Q268.1 162.95 270.8 162.95 L277.0 163.45 284.3 164.8 Q293.65 165.5 301.9 167.95 306.8 168.4 311.2 169.9 318.1 172.25 320.0 176.1 334.15 185.25 336.05 197.45 L336.35 198.3 Q338.05 202.9 336.95 204.15 L336.0 205.05 Q335.65 207.25 334.9 209.4 331.35 219.3 318.85 226.95 L318.55 227.15 Q300.85 237.95 275.8 237.95 250.75 237.95 233.0 227.15 229.05 224.75 226.0 222.15 218.15 215.45 216.05 207.3 215.3 204.35 215.3 201.2 L215.35 199.55 Q213.55 196.25 213.55 192.45 L213.75 189.45 M227.3 182.95 Q229.05 183.3 231.0 184.0 L234.35 185.45 235.7 186.15 237.6 187.2 240.25 189.0 240.6 189.3 242.3 189.45 Q243.7 189.45 249.35 187.95 L255.7 186.45 256.3 187.0 Q256.8 187.55 257.8 187.7 L258.05 187.75 264.55 188.2 276.55 187.1 286.05 185.95 285.55 186.7 Q287.5 187.9 292.2 188.05 296.65 188.25 297.8 189.2 L300.5 189.95 302.25 190.15 307.55 190.95 Q309.5 191.45 310.7 192.05 L313.95 190.25 314.05 190.2 Q314.2 188.1 316.75 185.3 L317.2 184.9 319.7 182.55 M239.3 183.4 L239.3 182.95 Q239.3 181.25 238.95 180.45 L238.6 179.95 238.3 179.45 M215.35 199.55 Q216.2 201.15 217.5 202.65 221.4 207.15 228.05 209.45 230.9 210.4 237.45 217.3 245.45 223.7 257.55 223.7 L267.1 222.1 277.55 220.45 Q280.1 220.45 284.0 221.6 287.9 222.7 291.55 222.7 293.9 222.7 297.45 220.95 301.0 219.2 301.05 219.2 L305.55 220.45 Q308.0 220.45 310.8 218.7 314.7 216.2 318.8 214.95 L325.75 212.95 Q329.1 211.95 330.05 211.2 332.05 209.65 334.8 205.95 L336.0 205.05 M301.9 167.95 L297.3 167.7 294.2 167.85 290.8 168.2 M320.8 187.8 Q318.5 188.1 316.05 189.15 L314.05 190.2 M310.7 192.05 L309.1 192.9 Q304.9 195.15 300.5 196.5 L300.0 196.65 Q293.75 198.45 287.05 198.45 L281.3 197.95 Q276.75 197.95 271.05 199.45 L261.55 197.2 Q260.15 196.85 255.6 194.95 L255.35 194.85 255.05 194.7 Q250.45 192.7 248.55 192.45 L243.45 191.9 241.55 190.2 240.6 189.3 M254.8 167.7 Q256.3 166.95 260.35 165.6 M239.3 183.4 L238.95 185.15 238.55 187.2 M263.0 194.45 L272.3 194.2 286.85 194.8 294.75 195.95 300.0 196.65 M263.0 194.45 L260.6 194.6 255.6 194.95 M321.5 187.75 L323.05 187.7" fill="none" stroke="#000000" stroke-linecap="round" stroke-linejoin="round" stroke-opacity="0.4117647" stroke-width="0.4"/>
    <path d="M271.2 210.85 Q272.6 210.85 273.6 211.5 274.6 212.15 274.6 213.1 274.6 214.05 273.6 214.7 272.6 215.35 271.2 215.35 269.8 215.35 268.8 214.7 267.8 214.05 267.8 213.1 267.8 212.15 268.8 211.5 269.8 210.85 271.2 210.85" fill="#cc0000" fill-rule="evenodd" stroke="none"/>
    <path d="M254.9 208.0 Q253.6 208.0 252.7 207.4 251.8 206.85 251.8 205.95 251.8 205.1 252.7 204.5 253.6 203.95 254.9 203.95 256.15 203.95 257.05 204.5 257.95 205.1 257.95 205.95 257.95 206.85 257.05 207.4 256.15 208.0 254.9 208.0" fill="#cc0000" fill-rule="evenodd" stroke="none"/>
    <path d="M299.8 197.8 Q301.2 197.8 302.2 198.45 303.2 199.1 303.2 200.05 303.2 201.0 302.2 201.65 301.2 202.3 299.8 202.3 298.4 202.3 297.4 201.65 296.4 201.0 296.4 200.05 296.4 199.1 297.4 198.45 298.4 197.8 299.8 197.8" fill="#ffcc00" fill-rule="evenodd" stroke="none"/>
    <path d="M278.3 206.35 Q278.3 207.3 277.3 207.95 276.3 208.6 274.9 208.6 273.5 208.6 272.5 207.95 271.5 207.3 271.5 206.35 271.5 205.4 272.5 204.75 273.5 204.1 274.9 204.1 276.3 204.1 277.3 204.75 278.3 205.4 278.3 206.35" fill="#339900" fill-rule="evenodd" stroke="none"/>
    <path d="M237.35 199.35 Q237.35 200.3 236.35 200.95 235.35 201.6 233.95 201.6 232.55 201.6 231.55 200.95 230.55 200.3 230.55 199.35 230.55 198.4 231.55 197.75 232.55 197.1 233.95 197.1 235.35 197.1 236.35 197.75 237.35 198.4 237.35 199.35" fill="#663399" fill-rule="evenodd" stroke="none"/>
    <path d="M250.85 201.7 Q250.85 202.65 249.85 203.3 248.85 203.95 247.45 203.95 246.05 203.95 245.05 203.3 244.05 202.65 244.05 201.7 244.05 200.75 245.05 200.1 246.05 199.45 247.45 199.45 248.85 199.45 249.85 200.1 250.85 200.75 250.85 201.7" fill="#339900" fill-rule="evenodd" stroke="none"/>
    <path d="M289.85 174.45 Q291.25 174.45 292.25 175.1 293.25 175.75 293.25 176.7 293.25 177.65 292.25 178.3 291.25 178.95 289.85 178.95 288.45 178.95 287.45 178.3 286.45 177.65 286.45 176.7 286.45 175.75 287.45 175.1 288.45 174.45 289.85 174.45" fill="#cc0000" fill-rule="evenodd" stroke="none"/>
    <path d="M261.35 175.95 Q262.75 175.95 263.75 176.6 264.75 177.25 264.75 178.2 264.75 179.15 263.75 179.8 262.75 180.45 261.35 180.45 259.95 180.45 258.95 179.8 257.95 179.15 257.95 178.2 257.95 177.25 258.95 176.6 259.95 175.95 261.35 175.95" fill="#ffcc00" fill-rule="evenodd" stroke="none"/>
    <path d="M230.15 187.7 Q230.15 188.65 229.15 189.3 228.15 189.95 226.75 189.95 225.35 189.95 224.35 189.3 223.35 188.65 223.35 187.7 223.35 186.75 224.35 186.1 225.35 185.45 226.75 185.45 228.15 185.45 229.15 186.1 230.15 186.75 230.15 187.7" fill="#339900" fill-rule="evenodd" stroke="none"/>
    <path d="M325.9 194.85 Q325.9 195.8 324.9 196.45 323.9 197.1 322.5 197.1 321.1 197.1 320.1 196.45 319.1 195.8 319.1 194.85 319.1 193.9 320.1 193.25 321.1 192.6 322.5 192.6 323.9 192.6 324.9 193.25 325.9 193.9 325.9 194.85" fill="#663399" fill-rule="evenodd" stroke="none"/>
    <path d="M234.3 196.15 Q233.0 196.15 232.1 195.55 231.2 195.0 231.2 194.1 231.2 193.25 232.1 192.65 233.0 192.1 234.3 192.1 235.55 192.1 236.45 192.65 237.35 193.25 237.35 194.1 237.35 195.0 236.45 195.55 235.55 196.15 234.3 196.15" fill="#cc0000" fill-rule="evenodd" stroke="none"/>
    <path d="M292.65 203.95 Q293.9 203.95 294.8 204.55 295.7 205.1 295.7 206.0 295.7 206.85 294.8 207.45 293.9 208.0 292.65 208.0 291.35 208.0 290.45 207.45 289.55 206.85 289.55 206.0 289.55 205.1 290.45 204.55 291.35 203.95 292.65 203.95" fill="#ffcc00" fill-rule="evenodd" stroke="none"/>
    <path d="M306.3 181.95 Q307.2 182.55 307.2 183.4 307.2 184.3 306.3 184.85 305.4 185.45 304.15 185.45 302.85 185.45 301.95 184.85 301.05 184.3 301.05 183.4 301.05 182.55 301.95 181.95 302.85 181.4 304.15 181.4 305.4 181.4 306.3 181.95" fill="#339900" fill-rule="evenodd" stroke="none"/>
    <path d="M274.65 181.35 Q275.9 181.35 276.8 181.95 277.7 182.55 277.7 183.4 277.7 184.25 276.8 184.85 275.9 185.45 274.65 185.45 273.35 185.45 272.45 184.85 271.55 184.25 271.55 183.4 271.55 182.55 272.45 181.95 273.35 181.35 274.65 181.35" fill="#663399" fill-rule="evenodd" stroke="none"/>
    <path d="M304.1 204.5 Q305.0 205.1 305.0 205.95 305.0 206.85 304.1 207.4 303.2 208.0 301.95 208.0 300.65 208.0 299.75 207.4 298.85 206.85 298.85 205.95 298.85 205.1 299.75 204.5 300.65 203.95 301.95 203.95 303.2 203.95 304.1 204.5" fill="#339900" fill-rule="evenodd" stroke="none"/>
    <path d="M268.5 201.15 Q269.75 201.15 270.65 201.75 271.55 202.35 271.55 203.2 271.55 204.05 270.65 204.65 269.75 205.25 268.5 205.25 267.2 205.25 266.3 204.65 265.4 204.05 265.4 203.2 265.4 202.35 266.3 201.75 267.2 201.15 268.5 201.15" fill="#663399" fill-rule="evenodd" stroke="none"/>
    <path d="M246.3 196.6 Q247.0 197.1 247.0 197.8 247.0 198.5 246.3 198.95 245.55 199.45 244.5 199.45 243.45 199.45 242.75 198.95 242.0 198.5 242.0 197.8 242.0 197.1 242.75 196.6 243.45 196.15 244.5 196.15 245.55 196.15 246.3 196.6" fill="#cc0000" fill-rule="evenodd" stroke="none"/>
    <path d="M268.25 199.25 Q268.25 199.95 267.55 200.45 266.8 200.95 265.75 200.95 264.7 200.95 264.0 200.45 263.25 199.95 263.25 199.25 263.25 198.55 264.0 198.1 264.7 197.6 265.75 197.6 266.8 197.6 267.55 198.1 268.25 198.55 268.25 199.25" fill="#ffcc00" fill-rule="evenodd" stroke="none"/>
    <path d="M268.2 206.9 Q268.2 207.6 267.5 208.1 266.75 208.6 265.7 208.6 264.65 208.6 263.95 208.1 263.2 207.6 263.2 206.9 263.2 206.2 263.95 205.75 264.65 205.25 265.7 205.25 266.75 205.25 267.5 205.75 268.2 206.2 268.2 206.9" fill="#ffcc00" fill-rule="evenodd" stroke="none"/>
    <path d="M244.5 186.7 Q243.45 186.7 242.75 186.2 242.0 185.7 242.0 185.0 242.0 184.3 242.75 183.85 243.45 183.35 244.5 183.35 245.55 183.35 246.3 183.85 247.0 184.3 247.0 185.0 247.0 185.7 246.3 186.2 245.55 186.7 244.5 186.7" fill="#339900" fill-rule="evenodd" stroke="none"/>
    <path d="M280.1 201.25 Q280.8 200.75 281.85 200.75 282.9 200.75 283.65 201.25 284.35 201.7 284.35 202.4 284.35 203.1 283.65 203.6 L281.85 204.1 Q280.8 204.1 280.1 203.6 279.35 203.1 279.35 202.4 279.35 201.7 280.1 201.25" fill="#663399" fill-rule="evenodd" stroke="none"/>
    <path d="M249.8 176.1 Q250.5 175.6 251.55 175.6 252.6 175.6 253.35 176.1 254.05 176.55 254.05 177.25 254.05 177.95 253.35 178.45 252.6 178.95 251.55 178.95 250.5 178.95 249.8 178.45 249.05 177.95 249.05 177.25 249.05 176.55 249.8 176.1" fill="#663399" fill-rule="evenodd" stroke="none"/>
    <path d="M325.9 183.75 Q325.9 184.45 325.2 184.95 324.45 185.45 323.4 185.45 322.35 185.45 321.65 184.95 320.9 184.45 320.9 183.75 320.9 183.05 321.65 182.6 322.35 182.1 323.4 182.1 324.45 182.1 325.2 182.6 325.9 183.05 325.9 183.75" fill="#ffcc00" fill-rule="evenodd" stroke="none"/>
    <path d="M312.35 198.3 Q313.05 197.8 314.1 197.8 315.15 197.8 315.9 198.3 316.6 198.75 316.6 199.45 316.6 200.15 315.9 200.65 L314.1 201.15 Q313.05 201.15 312.35 200.65 311.6 200.15 311.6 199.45 311.6 198.75 312.35 198.3" fill="#663399" fill-rule="evenodd" stroke="none"/>
    <path d="M274.05 176.1 Q274.75 176.6 274.75 177.3 274.75 178.0 274.05 178.45 273.3 178.95 272.25 178.95 271.2 178.95 270.5 178.45 269.75 178.0 269.75 177.3 269.75 176.6 270.5 176.1 271.2 175.65 272.25 175.65 273.3 175.65 274.05 176.1" fill="#cc0000" fill-rule="evenodd" stroke="none"/>
    <path d="M315.9 181.8 Q316.6 182.3 316.6 183.0 316.6 183.7 315.9 184.15 L314.1 184.65 Q313.05 184.65 312.35 184.15 311.6 183.7 311.6 183.0 311.6 182.3 312.35 181.8 313.05 181.35 314.1 181.35 315.15 181.35 315.9 181.8" fill="#cc0000" fill-rule="evenodd" stroke="none"/>
    <path d="M295.0 183.85 Q295.7 184.35 295.7 185.05 295.7 185.75 295.0 186.2 294.25 186.7 293.2 186.7 292.15 186.7 291.45 186.2 290.7 185.75 290.7 185.05 290.7 184.35 291.45 183.85 292.15 183.4 293.2 183.4 294.25 183.4 295.0 183.85" fill="#cc0000" fill-rule="evenodd" stroke="none"/>
    <path d="M254.6 172.9 Q253.55 172.9 252.85 172.4 252.1 171.9 252.1 171.2 252.1 170.5 252.85 170.05 253.55 169.55 254.6 169.55 255.65 169.55 256.4 170.05 257.1 170.5 257.1 171.2 257.1 171.9 256.4 172.4 255.65 172.9 254.6 172.9" fill="#339900" fill-rule="evenodd" stroke="none"/>
    <path d="M276.4 166.95 Q277.8 166.95 278.8 167.6 279.8 168.25 279.8 169.2 279.8 170.15 278.8 170.8 277.8 171.45 276.4 171.45 275.0 171.45 274.0 170.8 273.0 170.15 273.0 169.2 273.0 168.25 274.0 167.6 275.0 166.95 276.4 166.95" fill="#ffcc00" fill-rule="evenodd" stroke="none"/>
    <path d="M296.3 171.35 Q296.3 172.05 295.6 172.55 294.85 173.05 293.8 173.05 292.75 173.05 292.05 172.55 291.3 172.05 291.3 171.35 291.3 170.65 292.05 170.2 292.75 169.7 293.8 169.7 294.85 169.7 295.6 170.2 296.3 170.65 296.3 171.35" fill="#ffcc00" fill-rule="evenodd" stroke="none"/>
    <path d="M288.85 170.2 Q289.55 170.7 289.55 171.4 289.55 172.1 288.85 172.55 288.1 173.05 287.05 173.05 286.0 173.05 285.3 172.55 284.55 172.1 284.55 171.4 284.55 170.7 285.3 170.2 286.0 169.75 287.05 169.75 288.1 169.75 288.85 170.2" fill="#cc0000" fill-rule="evenodd" stroke="none"/>
    <path d="M270.65 172.15 Q271.55 172.75 271.55 173.6 271.55 174.5 270.65 175.05 269.75 175.65 268.5 175.65 267.2 175.65 266.3 175.05 265.4 174.5 265.4 173.6 265.4 172.75 266.3 172.15 267.2 171.6 268.5 171.6 269.75 171.6 270.65 172.15" fill="#339900" fill-rule="evenodd" stroke="none"/>
    <path d="M303.95 174.45 Q304.65 173.95 305.7 173.95 306.75 173.95 307.5 174.45 308.2 174.9 308.2 175.6 308.2 176.3 307.5 176.8 306.75 177.3 305.7 177.3 304.65 177.3 303.95 176.8 303.2 176.3 303.2 175.6 303.2 174.9 303.95 174.45" fill="#663399" fill-rule="evenodd" stroke="none"/>
  </g>
</svg>
