<?xml version="1.0" encoding="UTF-8" standalone="no"?>
<svg xmlns:xlink="http://www.w3.org/1999/xlink" height="155.6px" width="201.8px" xmlns="http://www.w3.org/2000/svg">
  <g transform="matrix(1.0, 0.0, 0.0, 1.0, 7.75, 0.1)">
    <path d="M15.45 13.45 L15.8 16.65 Q10.3 29.25 3.4 25.7 L2.3 30.5 Q1.2 10.85 15.45 13.45" fill="#6f6622" fill-rule="evenodd" stroke="none"/>
    <path d="M15.8 16.65 L16.45 19.85 Q15.8 22.1 15.35 24.85 15.45 27.1 16.55 29.45 15.7 59.15 0.9 56.4 0.3 54.3 0.15 51.75 -0.6 43.75 2.3 30.5 L3.4 25.7 Q10.3 29.25 15.8 16.65" fill="#d1c669" fill-rule="evenodd" stroke="none"/>
    <path d="M0.15 51.75 L-4.4 54.95 -7.65 52.8 Q-0.75 35.8 -2.5 19.2 3.3 8.75 15.4 7.75 15.2 10.65 15.45 13.45 1.2 10.85 2.3 30.5 -0.6 43.75 0.15 51.75" fill="#dfd897" fill-rule="evenodd" stroke="none"/>
    <path d="M16.55 29.45 Q19.6 36.45 31.4 44.7 29.55 55.95 22.7 60.7 9.6 66.25 3.1 60.7 1.7 59.0 0.9 56.4 15.7 59.15 16.55 29.45" fill="#b3a636" fill-rule="evenodd" stroke="none"/>
    <path d="M31.4 44.7 Q29.55 55.95 22.7 60.7 9.6 66.25 3.1 60.7 1.7 59.0 0.9 56.4 0.3 54.3 0.15 51.75 L-4.4 54.95 -7.65 52.8 Q-0.75 35.8 -2.5 19.2 3.3 8.75 15.4 7.75 M15.45 13.45 Q1.2 10.85 2.3 30.5 L3.4 25.7 Q10.3 29.25 15.8 16.65 M0.15 51.75 Q-0.6 43.75 2.3 30.5" fill="none" stroke="#330000" stroke-linecap="round" stroke-linejoin="round" stroke-opacity="0.4117647" stroke-width="0.2"/>
    <path d="M138.0 35.25 Q104.9 11.15 54.5 5.9 66.65 4.6 63.25 3.3 L80.35 6.85 Q110.4 13.65 140.3 31.45 144.35 34.5 144.15 35.9 141.7 34.4 138.0 35.25 M43.0 8.4 Q42.75 13.55 40.85 22.45 L40.55 23.85 35.45 26.65 Q27.85 21.5 23.35 16.25 L22.2 9.6 Q20.85 7.0 18.35 7.7 15.5 10.6 15.35 13.45 L15.35 19.55 Q14.7 21.05 14.35 23.3 L13.8 21.05 13.4 18.85 Q13.1 16.9 13.1 14.9 13.05 10.95 13.95 6.85 22.7 4.25 29.25 8.35 38.5 8.65 42.6 2.9 L43.0 4.95 43.0 8.4 M120.75 49.05 L121.25 50.85 120.6 62.15 110.75 63.85 110.75 56.45 120.75 49.05 M16.6 8.5 Q17.55 7.9 18.35 7.7 17.55 7.9 16.6 8.5" fill="#cc9900" fill-rule="evenodd" stroke="none"/>
    <path d="M138.0 35.25 Q136.7 35.5 135.25 36.1 132.95 38.7 126.95 41.6 L116.8 43.4 Q62.7 18.15 40.85 22.45 42.75 13.55 43.0 8.4 L54.5 5.9 Q104.9 11.15 138.0 35.25 M120.6 62.15 L120.2 68.3 Q100.45 70.85 82.85 67.95 93.25 66.95 102.75 62.35 L110.75 56.45 110.75 63.85 120.6 62.15 M20.25 12.05 Q20.95 10.75 22.2 9.6 L23.35 16.25 Q21.55 14.15 20.25 12.05" fill="#996633" fill-rule="evenodd" stroke="none"/>
    <path d="M117.05 46.2 Q119.65 46.75 120.75 49.05 L110.75 56.45 110.75 52.6 95.75 52.6 94.75 63.6 80.75 61.35 80.75 50.6 68.5 47.85 67.1 50.55 Q65.45 46.05 60.75 41.6 L41.25 32.35 Q39.05 32.3 37.25 33.05 L37.25 31.35 30.0 27.35 28.5 36.6 19.75 29.6 21.25 20.85 15.35 13.45 Q15.5 10.6 18.35 7.7 20.85 7.0 22.2 9.6 20.95 10.75 20.25 12.05 21.55 14.15 23.35 16.25 27.85 21.5 35.45 26.65 46.05 34.1 57.5 38.9 82.25 49.25 110.8 46.85 L113.55 46.6 117.05 46.2 M13.95 6.85 Q16.1 3.45 26.0 2.9 32.2 1.5 34.0 0.1 38.75 -0.45 41.6 1.45 47.5 0.5 63.25 3.3 66.65 4.6 54.5 5.9 L43.0 4.95 42.6 2.9 Q42.25 1.85 41.6 1.45 42.25 1.85 42.6 2.9 38.5 8.65 29.25 8.35 22.7 4.25 13.95 6.85 M26.0 2.9 Q29.5 3.3 34.75 1.35 29.5 3.3 26.0 2.9 M20.25 12.05 L19.0 9.85 20.25 12.05" fill="#f4ab02" fill-rule="evenodd" stroke="none"/>
    <path d="M54.5 5.9 L43.0 8.4 43.0 4.95 54.5 5.9 M82.85 67.95 Q70.65 65.9 59.55 61.25 67.7 61.6 68.0 55.1 67.95 52.8 67.1 50.55 L68.5 47.85 80.75 50.6 80.75 61.35 94.75 63.6 95.75 52.6 110.75 52.6 110.75 56.45 102.75 62.35 Q93.25 66.95 82.85 67.95 M34.75 46.8 L25.5 40.5 Q17.3 34.8 14.9 29.95 14.05 28.3 13.9 26.75 14.05 24.85 14.35 23.3 14.7 21.05 15.35 19.55 L15.35 13.45 21.25 20.85 19.75 29.6 28.5 36.6 30.0 27.35 37.25 31.35 37.25 33.05 Q34.85 34.05 33.25 36.6 30.75 40.55 34.75 46.8 M15.35 23.2 L15.35 19.55 15.35 23.2" fill="#ca9662" fill-rule="evenodd" stroke="none"/>
    <path d="M36.85 49.5 L34.75 46.8 Q30.75 40.55 33.25 36.6 34.85 34.05 37.25 33.05 39.05 32.3 41.25 32.35 L60.75 41.6 Q61.4 61.5 36.85 49.5" fill="#dfd897" fill-rule="evenodd" stroke="none"/>
    <path d="M59.55 61.25 Q44.8 58.75 36.85 49.5 61.4 61.5 60.75 41.6 65.45 46.05 67.1 50.55 67.95 52.8 68.0 55.1 67.7 61.6 59.55 61.25" fill="#d1c669" fill-rule="evenodd" stroke="none"/>
    <path d="M43.0 8.4 Q42.75 13.55 40.85 22.45 62.7 18.15 116.8 43.4 M63.25 3.3 L80.35 6.85 Q110.4 13.65 140.3 31.45 144.35 34.5 144.15 35.9 M120.2 68.3 Q100.45 70.85 82.85 67.95 70.65 65.9 59.55 61.25 44.8 58.75 36.85 49.5 L34.75 46.8 25.5 40.5 Q17.3 34.8 14.9 29.95 14.05 28.3 13.9 26.75 14.05 24.85 14.35 23.3 L13.8 21.05 13.4 18.85 Q13.1 16.9 13.1 14.9 13.05 10.95 13.95 6.85 16.1 3.45 26.0 2.9 32.2 1.5 34.0 0.1 38.75 -0.45 41.6 1.45 47.5 0.5 63.25 3.3 M43.0 4.95 L43.0 8.4 M113.55 46.6 L117.05 46.2 M67.1 50.55 Q67.95 52.8 68.0 55.1 67.7 61.6 59.55 61.25 M41.6 1.45 Q42.25 1.85 42.6 2.9 L43.0 4.95 M40.85 22.45 L40.55 23.85 35.45 26.65 Q46.05 34.1 57.5 38.9 82.25 49.25 110.8 46.85 M37.25 33.05 Q39.05 32.3 41.25 32.35 L60.75 41.6 Q65.45 46.05 67.1 50.55 M20.25 12.05 Q20.95 10.75 22.2 9.6 20.85 7.0 18.35 7.7 15.5 10.6 15.35 13.45 L15.35 19.55 Q14.7 21.05 14.35 23.3 M37.25 33.05 Q34.85 34.05 33.25 36.6 30.75 40.55 34.75 46.8 M20.25 12.05 Q21.55 14.15 23.35 16.25 L22.2 9.6 M34.75 1.35 Q29.5 3.3 26.0 2.9 M18.35 7.7 Q17.55 7.9 16.6 8.5 M15.35 19.55 L15.35 23.2 M23.35 16.25 Q27.85 21.5 35.45 26.65 M19.0 9.85 L20.25 12.05" fill="none" stroke="#330000" stroke-linecap="round" stroke-linejoin="round" stroke-opacity="0.4117647" stroke-width="0.2"/>
    <path d="M110.75 56.45 L110.75 52.6 95.75 52.6 94.75 63.6 80.75 61.35 80.75 50.6 68.5 47.85 67.1 50.55 M120.6 62.15 L110.75 63.85 110.75 56.45 M15.35 13.45 L21.25 20.85 19.75 29.6 28.5 36.6 30.0 27.35 37.25 31.35 37.25 33.05" fill="none" stroke="#dfd897" stroke-linecap="round" stroke-linejoin="round" stroke-width="2.0"/>
    <path d="M168.8 50.5 Q170.8 45.95 170.6 38.3 172.0 37.6 173.3 37.25 L175.25 38.2 175.75 36.8 Q177.9 36.7 179.45 38.0 179.6 46.9 176.2 54.6 L174.95 57.3 168.8 50.5 M173.95 68.5 Q177.35 68.25 179.95 66.95 L183.3 74.7 Q178.9 76.35 173.95 76.35 L173.95 68.5 M185.1 62.4 L186.25 60.2 186.25 56.05 Q192.2 54.6 193.95 59.3 192.65 66.7 188.4 71.1 L187.5 69.65 Q186.9 66.25 185.1 62.4 M171.8 76.3 L170.6 76.2 158.2 71.9 154.3 70.55 148.1 70.35 146.5 73.1 143.8 77.9 138.15 72.75 143.1 63.2 145.35 60.5 Q150.45 57.5 161.7 56.25 L163.2 56.05 Q165.2 55.25 166.65 53.7 L170.45 62.15 Q167.75 64.0 164.05 64.65 L161.7 64.6 159.4 64.75 171.75 68.5 171.8 68.5 171.8 76.3 M173.3 37.25 L173.5 43.15 175.25 38.2 173.5 43.15 173.3 37.25 M138.55 80.05 L138.05 79.6 136.6 78.4 135.7 77.5 136.2 76.55 142.3 80.55 141.55 81.85 138.55 80.05 M159.4 64.75 Q151.85 65.0 146.85 70.25 151.85 65.0 159.4 64.75" fill="#877232" fill-rule="evenodd" stroke="none"/>
    <path d="M174.95 57.3 L173.95 58.85 173.95 68.5 173.95 76.35 174.85 117.5 Q174.0 117.0 173.0 116.85 171.9 98.45 171.8 76.3 L171.8 68.5 171.8 61.15 170.45 62.15 166.65 53.7 Q166.45 52.15 168.05 51.9 167.85 50.35 168.8 50.5 L174.95 57.3 M179.95 66.95 Q180.4 65.25 181.95 65.7 L182.95 64.8 183.85 63.3 Q184.3 62.4 185.1 62.4 186.9 66.25 187.5 69.65 L188.4 71.1 187.7 71.75 Q184.85 97.8 185.95 121.5 185.15 120.95 184.0 121.0 L183.15 121.1 Q183.0 99.75 184.9 73.8 L183.3 74.7 179.95 66.95 M187.5 69.65 L187.7 71.75 187.5 69.65 M173.95 58.85 L172.95 60.1 171.8 61.15 172.95 60.1 168.05 51.9 172.95 60.1 173.95 58.85 M182.95 64.8 Q184.15 67.7 184.6 70.5 L181.95 65.7 184.6 70.5 Q184.15 67.7 182.95 64.8 M184.6 70.5 L184.9 73.8 184.6 70.5 M136.2 76.55 Q136.1 73.95 138.15 72.75 L143.8 77.9 Q143.6 79.75 142.3 80.55 L136.2 76.55" fill="#660000" fill-rule="evenodd" stroke="none"/>
    <path d="M185.95 121.5 Q187.1 122.15 187.55 123.85 188.65 128.45 188.1 132.6 L184.2 132.75 Q185.75 132.1 186.2 129.9 181.0 127.0 180.15 130.7 L179.35 128.4 Q179.65 121.95 183.15 121.1 L184.0 121.0 Q185.15 120.95 185.95 121.5 M169.8 125.8 Q169.15 119.5 171.4 116.85 L173.0 116.85 Q174.0 117.0 174.85 117.5 176.45 118.4 177.35 120.6 177.85 123.35 178.5 125.8 173.6 116.05 169.8 125.8 M123.25 155.4 Q119.15 155.1 117.3 150.8 L116.4 127.7 114.9 89.2 Q114.8 75.35 118.25 66.4 L123.25 155.4 M186.4 128.4 L186.2 129.9 186.4 128.4" fill="#dfd897" fill-rule="evenodd" stroke="none"/>
    <path d="M188.1 132.6 Q187.55 136.4 185.75 139.75 178.45 145.6 172.6 137.9 170.3 130.7 169.8 125.8 173.6 116.05 178.5 125.8 L179.35 128.4 180.15 130.7 Q181.0 127.0 186.2 129.9 185.75 132.1 184.2 132.75 L181.05 132.8 180.15 130.7 181.05 132.8 184.2 132.75 188.1 132.6 M136.7 144.65 L136.7 148.4 130.5 152.6 127.05 154.95 123.25 155.4 118.25 66.4 119.65 63.15 Q128.9 57.35 133.0 73.3 L133.35 74.7 133.55 75.9 135.05 107.55 135.0 107.55 133.05 102.85 131.3 109.45 124.4 113.15 129.95 114.8 127.5 124.25 133.2 115.75 135.45 116.4 136.7 144.65 M184.45 135.2 Q182.7 134.85 181.05 132.8 182.7 134.85 184.45 135.2" fill="#d1c669" fill-rule="evenodd" stroke="none"/>
    <path d="M106.2 44.05 L106.65 43.6 121.65 40.95 Q128.8 37.55 131.5 34.45 133.2 33.75 134.75 33.45 139.15 32.45 142.05 34.2 L142.65 34.55 Q144.45 35.95 145.7 38.6 139.25 49.0 121.75 49.25 116.75 43.8 106.2 44.05 M134.15 36.8 Q129.35 39.85 121.65 40.95 129.35 39.85 134.15 36.8 M135.05 107.55 L140.7 104.6 136.4 110.95 139.1 117.45 135.45 116.4 133.2 115.75 127.5 124.25 129.95 114.8 124.4 113.15 131.3 109.45 133.05 102.85 135.0 107.55 135.05 107.55" fill="#f4ab02" fill-rule="evenodd" stroke="none"/>
    <path d="M116.4 127.7 L112.65 124.45 112.65 89.5 114.9 51.9 114.35 49.8 Q113.05 47.05 109.95 46.4 108.15 46.0 105.8 46.9 L102.55 47.2 106.2 44.05 Q116.75 43.8 121.75 49.25 139.25 49.0 145.7 38.6 L143.1 63.2 138.15 72.75 Q136.1 73.95 136.2 76.55 L135.7 77.5 Q134.45 76.2 133.35 74.7 L133.0 73.3 Q128.9 57.35 119.65 63.15 L118.25 66.4 Q114.8 75.35 114.9 89.2 L116.4 127.7" fill="#cc9900" fill-rule="evenodd" stroke="none"/>
    <path d="M158.2 71.9 Q158.95 74.95 158.2 80.5 L158.15 80.85 155.2 91.3 Q151.85 98.1 149.1 105.5 146.15 113.05 143.7 121.2 140.8 130.7 138.6 141.0 L136.7 144.65 135.45 116.4 139.1 117.45 136.4 110.95 140.7 104.6 135.05 107.55 133.55 75.9 133.35 74.7 Q134.45 76.2 135.7 77.5 L136.6 78.4 138.05 79.6 138.55 80.05 139.25 85.7 Q146.6 88.85 150.75 85.7 L149.25 83.9 146.0 83.45 Q153.8 80.35 155.5 74.1 153.05 69.45 146.5 73.1 153.05 69.45 155.5 74.1 153.8 80.35 146.0 83.45 143.7 82.95 141.55 81.85 L142.3 80.55 Q143.6 79.75 143.8 77.9 L146.5 73.1 148.1 70.35 154.3 70.55 158.2 71.9" fill="#996633" fill-rule="evenodd" stroke="none"/>
    <path d="M146.0 83.45 L149.25 83.9 150.75 85.7 Q146.6 88.85 139.25 85.7 L138.55 80.05 141.55 81.85 Q143.7 82.95 146.0 83.45" fill="#ca9662" fill-rule="evenodd" stroke="none"/>
    <path d="M168.8 50.5 Q170.8 45.95 170.6 38.3 172.0 37.6 173.3 37.25 L175.25 38.2 175.75 36.8 Q177.9 36.7 179.45 38.0 179.6 46.9 176.2 54.6 L174.95 57.3 173.95 58.85 173.95 68.5 Q177.35 68.25 179.95 66.95 180.4 65.25 181.95 65.7 L182.95 64.8 183.85 63.3 Q184.3 62.4 185.1 62.4 L186.25 60.2 186.25 56.05 Q192.2 54.6 193.95 59.3 192.65 66.7 188.4 71.1 L187.7 71.75 Q184.85 97.8 185.95 121.5 187.1 122.15 187.55 123.85 188.65 128.45 188.1 132.6 187.55 136.4 185.75 139.75 178.45 145.6 172.6 137.9 170.3 130.7 169.8 125.8 169.15 119.5 171.4 116.85 L173.0 116.85 Q171.9 98.45 171.8 76.3 L170.6 76.2 158.2 71.9 Q158.95 74.95 158.2 80.5 L158.15 80.85 155.2 91.3 Q151.85 98.1 149.1 105.5 146.15 113.05 143.7 121.2 140.8 130.7 138.6 141.0 L136.7 144.65 136.7 148.4 130.5 152.6 127.05 154.95 123.25 155.4 Q119.15 155.1 117.3 150.8 L116.4 127.7 112.65 124.45 112.65 89.5 114.9 51.9 114.35 49.8 Q113.05 47.05 109.95 46.4 108.15 46.0 105.8 46.9 L102.55 47.2 106.2 44.05 106.65 43.6 121.65 40.95 Q128.8 37.55 131.5 34.45 133.2 33.75 134.75 33.45 139.15 32.45 142.05 34.2 L142.65 34.55 Q144.45 35.95 145.7 38.6 L143.1 63.2 145.35 60.5 Q150.45 57.5 161.7 56.25 L163.2 56.05 Q165.2 55.25 166.65 53.7 166.45 52.15 168.05 51.9 167.85 50.35 168.8 50.5 L174.95 57.3 M175.25 38.2 L173.5 43.15 173.3 37.25 M185.1 62.4 Q186.9 66.25 187.5 69.65 L188.4 71.1 M187.7 71.75 L187.5 69.65 M171.8 68.5 L171.8 61.15 170.45 62.15 Q167.75 64.0 164.05 64.65 L161.7 64.6 159.4 64.75 171.75 68.5 171.8 68.5 171.8 76.3 M171.8 61.15 L172.95 60.1 168.05 51.9 M172.95 60.1 L173.95 58.85 M170.45 62.15 L166.65 53.7 M173.95 68.5 L173.95 76.35 Q178.9 76.35 183.3 74.7 L179.95 66.95 M181.95 65.7 L184.6 70.5 Q184.15 67.7 182.95 64.8 M183.3 74.7 L184.9 73.8 184.6 70.5 M185.95 121.5 Q185.15 120.95 184.0 121.0 L183.15 121.1 Q179.65 121.95 179.35 128.4 L180.15 130.7 181.05 132.8 184.2 132.75 Q185.75 132.1 186.2 129.9 L186.4 128.4 M174.85 117.5 Q174.0 117.0 173.0 116.85 M178.5 125.8 L179.35 128.4 M181.05 132.8 Q182.7 134.85 184.45 135.2 M178.5 125.8 Q177.85 123.35 177.35 120.6 176.45 118.4 174.85 117.5 L173.95 76.35 M184.9 73.8 Q183.0 99.75 183.15 121.1 M121.65 40.95 Q129.35 39.85 134.15 36.8 M158.2 71.9 L154.3 70.55 148.1 70.35 146.5 73.1 Q153.05 69.45 155.5 74.1 153.8 80.35 146.0 83.45 L149.25 83.9 M138.55 80.05 L138.05 79.6 136.6 78.4 135.7 77.5 Q134.45 76.2 133.35 74.7 L133.55 75.9 135.05 107.55 140.7 104.6 136.4 110.95 139.1 117.45 135.45 116.4 136.7 144.65 M143.8 77.9 L146.5 73.1 M146.85 70.25 Q151.85 65.0 159.4 64.75 M136.2 76.55 L135.7 77.5 M138.15 72.75 Q136.1 73.95 136.2 76.55 L142.3 80.55 Q143.6 79.75 143.8 77.9 L138.15 72.75 143.1 63.2 M133.35 74.7 L133.0 73.3 Q128.9 57.35 119.65 63.15 L118.25 66.4 Q114.8 75.35 114.9 89.2 L116.4 127.7 M135.45 116.4 L133.2 115.75 127.5 124.25 129.95 114.8 124.4 113.15 131.3 109.45 133.05 102.85 135.0 107.55 135.05 107.55 M141.55 81.85 Q143.7 82.95 146.0 83.45 M141.55 81.85 L142.3 80.55 M138.55 80.05 L141.55 81.85" fill="none" stroke="#330000" stroke-linecap="round" stroke-linejoin="round" stroke-opacity="0.4117647" stroke-width="0.2"/>
  </g>
</svg>
