<?xml version="1.0" encoding="UTF-8" standalone="no"?>
<svg xmlns:xlink="http://www.w3.org/1999/xlink" height="109.4px" width="44.3px" xmlns="http://www.w3.org/2000/svg">
  <g transform="matrix(1.0, 0.0, 0.0, 1.0, 22.15, 54.7)">
    <path d="M4.35 -45.8 L5.85 -45.65 Q8.2 -17.9 3.05 24.95 L2.8 -13.95 1.6 -46.05 4.35 -45.8 M17.65 -9.15 Q18.05 -6.5 19.15 -7.2 L9.9 36.15 9.85 36.15 9.05 36.15 10.9 27.6 17.65 -9.15 M4.2 46.95 L2.35 46.65 2.25 38.15 2.2 34.1 2.2 34.05 2.95 29.35 3.35 34.7 3.3 34.8 3.35 34.8 4.2 46.95 M-12.45 -7.8 L-12.35 -7.85 -11.65 -8.25 Q-7.9 9.2 -4.6 27.45 L-6.4 27.0 -12.45 -7.8" fill="#cdb465" fill-rule="evenodd" stroke="none"/>
    <path d="M9.05 36.15 L7.65 37.45 8.95 28.65 10.9 27.6 9.05 36.15 M-3.05 36.4 L-6.6 35.25 -9.0 26.25 -6.4 27.0 -4.6 27.45 -3.05 36.4" fill="#000000" fill-rule="evenodd" stroke="none"/>
    <path d="M-0.7 -46.3 Q1.5 -14.4 2.2 31.9 L2.2 34.05 2.2 34.1 2.25 38.15 2.35 46.65 2.4 54.3 -0.1 54.45 Q-1.5 45.3 -3.05 36.4 L-4.6 27.45 Q-7.9 9.2 -11.65 -8.25 -15.85 -27.75 -20.65 -46.25 L-18.25 -47.1 -8.7 -14.45 0.85 43.15 -6.4 -13.75 -13.05 -49.05 -7.85 -51.0 -2.55 -15.9 -5.25 -52.0 -1.25 -53.5 -0.7 -46.3 M7.65 37.45 L6.15 47.25 4.45 47.0 11.7 -8.85 3.35 34.7 2.95 29.35 Q10.75 -21.85 7.4 -54.45 L19.0 -38.0 18.15 -32.3 8.95 28.65 7.65 37.45" fill="#e9d69a" fill-rule="evenodd" stroke="none"/>
    <path d="M18.15 -32.3 L21.3 -28.05 17.65 -9.15 10.9 27.6 8.95 28.65 18.15 -32.3 M4.45 47.0 L4.2 46.95 3.35 34.8 3.3 34.8 3.35 34.7 11.7 -8.85 4.45 47.0 M-14.6 5.45 L-16.7 -5.5 -13.35 -7.3 -12.45 -7.8 -6.4 27.0 -9.0 26.25 -14.6 5.45 M-18.25 -47.1 Q-15.0 -45.9 -13.05 -49.05 L-6.4 -13.75 0.85 43.15 -8.7 -14.45 -18.25 -47.1" fill="#e2c97a" fill-rule="evenodd" stroke="none"/>
    <path d="M19.15 -7.2 L21.9 -3.65 10.45 36.15 9.9 36.15 19.15 -7.2 M-6.6 35.25 L-6.2 36.75 -10.7 34.9 -19.6 6.95 -14.6 5.45 -9.0 26.25 -6.6 35.25 M-7.85 -51.0 L-7.75 -51.05 Q-6.55 -48.75 -5.25 -52.0 L-2.55 -15.9 -7.85 -51.0" fill="#dec067" fill-rule="evenodd" stroke="none"/>
    <path d="M4.35 -45.8 L4.35 -52.5 7.4 -54.45 Q10.75 -21.85 2.95 29.35 L2.2 34.05 2.2 31.9 Q1.5 -14.4 -0.7 -46.3 L1.6 -46.05 2.8 -13.95 3.05 24.95 Q8.2 -17.9 5.85 -45.65 L4.35 -45.8 M2.85 26.55 L2.75 27.4 2.2 31.9 2.75 27.4 2.85 26.55 M-10.7 34.9 L-12.15 34.0 -19.6 9.3 -19.6 6.95 -10.7 34.9 M-13.35 -7.3 L-21.9 -42.1 -20.65 -46.25 Q-15.85 -27.75 -11.65 -8.25 L-12.35 -7.85 -12.45 -7.8 -13.35 -7.3" fill="#816b29" fill-rule="evenodd" stroke="none"/>
    <path d="M7.4 -54.45 L4.35 -52.5 4.35 -45.8 5.85 -45.65 M1.6 -46.05 L-0.7 -46.3 -1.25 -53.5 -5.25 -52.0 Q-6.55 -48.75 -7.75 -51.05 M2.2 31.9 L2.75 27.4 2.85 26.55 M18.15 -32.3 L21.3 -28.05 17.65 -9.15 Q18.05 -6.5 19.15 -7.2 L21.9 -3.65 10.45 36.15 9.9 36.15 M9.85 36.15 L9.05 36.15 7.65 37.45 6.15 47.25 4.45 47.0 4.2 46.95 2.35 46.65 2.4 54.3 -0.1 54.45 M-3.05 36.4 L-6.6 35.25 -6.2 36.75 -10.7 34.9 -12.15 34.0 -19.6 9.3 -19.6 6.95 -14.6 5.45 -16.7 -5.5 -13.35 -7.3 -21.9 -42.1 -20.65 -46.25 -18.25 -47.1 Q-15.0 -45.9 -13.05 -49.05 L-7.85 -51.0 M1.6 -46.05 L4.35 -45.8 M18.15 -32.3 L19.0 -38.0 7.4 -54.45 M2.2 34.1 L2.2 34.05 M10.9 27.6 L9.05 36.15 M8.95 28.65 L10.9 27.6 M7.65 37.45 L8.95 28.65 M-6.4 27.0 L-4.6 27.45 M-11.65 -8.25 L-12.35 -7.85 M-12.45 -7.8 L-13.35 -7.3 M-6.6 35.25 L-9.0 26.25 -6.4 27.0 M-19.6 6.95 L-10.7 34.9" fill="none" stroke="#000000" stroke-linecap="round" stroke-linejoin="round" stroke-opacity="0.4" stroke-width="0.05"/>
    <path d="M-0.1 54.45 Q-1.5 45.3 -3.05 36.4 L-4.6 27.45" fill="none" stroke="#000000" stroke-linecap="round" stroke-linejoin="round" stroke-opacity="0.4" stroke-width="0.05"/>
    <path d="M9.9 36.15 L9.85 36.15" fill="none" stroke="#00ff00" stroke-linecap="round" stroke-linejoin="round" stroke-width="0.05"/>
    <path d="M-0.7 -46.3 Q1.5 -14.4 2.2 31.9 M7.4 -54.45 Q10.75 -21.85 2.95 29.35 L2.2 34.05 M2.35 46.65 L2.25 38.15 2.2 34.1 M10.9 27.6 L17.65 -9.15 M8.95 28.65 L18.15 -32.3 M-4.6 27.45 Q-7.9 9.2 -11.65 -8.25 M-9.0 26.25 L-14.6 5.45" fill="none" stroke="#eedfb2" stroke-linecap="round" stroke-linejoin="round" stroke-width="0.05"/>
    <path d="M4.35 -52.5 L4.35 -45.8 -0.7 -46.3 -1.25 -53.5 -5.25 -52.0 Q-6.55 -48.75 -7.75 -51.05 L-13.05 -49.05 Q-15.0 -45.9 -18.25 -47.1 L-20.65 -46.25 -21.9 -42.1 -13.35 -7.3 -16.7 -5.5 -14.6 5.45 -19.6 6.95 -19.6 9.3 -12.15 34.0 -10.7 34.9 -6.2 36.75 -6.6 35.25 -3.05 36.4 Q-1.5 45.3 -0.1 54.45 L2.4 54.3 2.35 46.65 6.15 47.25 7.65 37.45 9.05 36.15 10.45 36.15 21.9 -3.65 19.15 -7.2 Q18.05 -6.5 17.65 -9.15 L21.3 -28.05 18.15 -32.3 19.0 -38.0 7.4 -54.45 4.35 -52.5 Z" fill="none" stroke="#000000" stroke-linecap="round" stroke-linejoin="round" stroke-opacity="0.2" stroke-width="0.5"/>
  </g>
</svg>
