<?xml version="1.0" encoding="UTF-8" standalone="no"?>
<svg xmlns:xlink="http://www.w3.org/1999/xlink" height="352.8px" width="289.05px" xmlns="http://www.w3.org/2000/svg">
  <g transform="matrix(1.0, 0.0, 0.0, 1.0, 0.25, -2.4)">
    <path d="M261.2 163.2 Q252.05 184.7 239.5 207.95 L225.45 203.0 Q236.4 179.5 244.75 158.35 242.75 169.1 261.2 163.2 M149.0 130.1 Q148.95 160.55 144.0 188.2 L129.45 189.0 Q134.15 163.0 134.5 135.15 139.9 142.75 149.0 130.1" fill="#80805a" fill-rule="evenodd" stroke="none"/>
    <path d="M271.35 53.95 Q271.65 47.25 271.35 41.1 265.45 30.2 257.9 32.5 L268.4 21.0 Q280.85 18.5 287.4 34.5 288.7 50.7 288.15 66.6 285.45 141.0 241.5 208.65 L239.5 207.95 Q252.05 184.7 261.2 163.2 286.0 104.55 284.85 58.6 279.8 50.25 271.35 53.95 M122.15 32.3 L120.0 23.65 Q112.7 12.9 103.45 18.0 L115.45 7.0 Q125.75 -4.3 137.95 15.5 140.5 26.95 142.65 38.05 158.9 123.6 147.8 187.95 L144.0 188.2 Q148.95 160.55 149.0 130.1 149.0 84.35 137.9 32.35 130.5 25.75 122.15 32.3" fill="#68684a" fill-rule="evenodd" stroke="none"/>
    <path d="M271.35 53.95 Q279.8 50.25 284.85 58.6 286.0 104.55 261.2 163.2 242.75 169.1 244.75 158.35 269.5 95.65 271.35 53.95 M122.15 32.3 Q130.5 25.75 137.9 32.35 149.0 84.35 149.0 130.1 139.9 142.75 134.5 135.15 135.0 86.5 122.15 32.3" fill="#989870" fill-rule="evenodd" stroke="none"/>
    <path d="M239.5 207.95 L241.5 208.65 Q285.45 141.0 288.15 66.6 288.7 50.7 287.4 34.5 280.85 18.5 268.4 21.0 L257.9 32.5 Q265.45 30.2 271.35 41.1 271.65 47.25 271.35 53.95 269.5 95.65 244.75 158.35 236.4 179.5 225.45 203.0 L239.5 207.95 M144.0 188.2 L147.8 187.95 Q158.9 123.6 142.65 38.05 140.5 26.95 137.95 15.5 125.75 -4.3 115.45 7.0 L103.45 18.0 Q112.7 12.9 120.0 23.65 L122.15 32.3 Q135.0 86.5 134.5 135.15 134.15 163.0 129.45 189.0 L144.0 188.2 M241.5 208.65 L240.9 209.5 M147.8 187.95 L147.45 190.0" fill="none" stroke="#000000" stroke-linecap="round" stroke-linejoin="round" stroke-opacity="0.5019608" stroke-width="0.5"/>
    <path d="M257.9 32.5 L268.4 21.0 Q280.85 18.5 287.4 34.5 288.7 50.7 288.15 66.6 285.45 141.0 241.5 208.65 L225.45 203.0 Q236.4 179.5 244.75 158.35 269.5 95.65 271.35 53.95 271.65 47.25 271.35 41.1 265.45 30.2 257.9 32.5 M137.95 15.5 Q125.75 -4.3 115.45 7.0 L103.45 18.0 Q112.7 12.9 120.0 23.65 L122.15 32.3 Q135.0 86.5 134.5 135.15 134.15 163.0 129.45 189.0 L147.8 187.95 Q158.9 123.6 142.65 38.05 140.5 26.95 137.95 15.5 Z" fill="none" stroke="#000000" stroke-linecap="round" stroke-linejoin="round" stroke-opacity="0.5019608" stroke-width="1.0"/>
    <path d="M124.0 305.35 L122.45 305.35 122.6 304.9 124.0 305.35" fill="#cccc99" fill-rule="evenodd" stroke="none"/>
    <path d="M229.15 221.8 Q186.55 220.8 152.15 214.15 146.35 209.6 132.45 207.25 113.6 202.95 99.6 199.1 132.85 196.6 173.45 202.75 208.95 208.05 229.15 221.8" fill="#c2c289" fill-rule="evenodd" stroke="none"/>
    <path d="M167.75 354.6 L165.45 354.5 147.5 350.95 Q151.45 342.35 162.95 336.5 151.6 335.6 154.8 333.05 L163.9 334.55 Q181.45 337.05 199.75 336.7 204.7 340.15 192.95 339.5 L176.7 338.0 Q178.7 348.45 167.75 354.6 M3.25 316.25 Q-2.0 308.1 1.2 303.0 L5.8 300.25 10.95 291.75 11.95 285.5 17.95 281.0 14.95 287.0 Q8.05 302.85 37.9 316.1 43.5 318.6 50.45 321.0 L53.25 321.65 Q55.8 328.9 22.95 311.0 15.15 318.55 3.25 316.25 M3.2 303.5 L5.8 300.25 3.2 303.5" fill="#ffcc00" fill-rule="evenodd" stroke="none"/>
    <path d="M207.0 354.4 Q188.45 355.4 167.75 354.6 178.7 348.45 176.7 338.0 L192.95 339.5 Q204.7 340.15 199.75 336.7 L222.05 335.2 228.55 334.35 240.25 332.5 Q241.15 337.5 222.6 338.65 223.3 349.8 207.0 354.4 M147.5 350.95 Q129.25 346.55 128.95 342.25 L131.1 338.7 130.2 332.75 127.7 328.75 Q128.3 325.05 130.85 324.35 L131.45 327.25 Q142.95 330.8 154.8 333.05 151.6 335.6 162.95 336.5 151.45 342.35 147.5 350.95 M121.55 316.3 Q125.6 317.5 125.95 321.5 L123.4 323.65 123.4 323.7 Q102.3 331.05 99.1 345.85 L89.2 346.25 Q33.75 345.0 6.2 320.25 L3.25 316.25 Q15.15 318.55 22.95 311.0 55.8 328.9 53.25 321.65 80.55 327.8 111.45 325.25 119.65 324.3 121.2 320.0 L121.55 316.3" fill="#e6b800" fill-rule="evenodd" stroke="none"/>
    <path d="M257.95 212.65 Q258.8 218.4 253.45 221.5 231.2 227.95 207.6 226.75 L192.7 225.25 Q154.7 222.5 123.2 212.5 L122.7 215.5 126.8 217.55 Q140.65 232.3 136.45 270.0 134.05 311.25 108.35 298.55 105.6 295.7 107.2 292.25 108.35 261.7 114.9 234.1 116.7 226.55 118.9 219.2 L119.95 215.75 Q119.8 206.05 126.75 208.1 138.85 211.55 152.15 214.15 138.85 211.55 126.75 208.1 119.8 206.05 119.95 215.75 L118.9 219.2 Q93.1 233.1 59.95 214.5 65.75 219.05 75.7 223.1 88.4 228.25 107.95 232.6 L99.95 232.6 70.95 223.05 68.95 222.4 68.3 222.15 65.7 221.0 Q56.5 217.1 56.25 213.8 L56.45 212.5 60.1 209.75 Q61.8 203.85 61.9 196.3 L67.2 201.25 Q80.7 208.55 91.95 207.0 74.3 202.5 60.0 186.75 L59.95 185.5 Q62.8 180.55 76.7 179.0 145.6 176.75 223.45 193.0 253.55 200.9 257.95 212.65 M229.15 221.8 L239.55 222.0 Q247.65 220.6 251.25 215.8 L252.7 213.25 Q252.6 210.7 248.7 207.25 224.1 195.55 203.95 192.25 171.05 185.95 136.95 183.75 106.65 181.25 78.45 183.75 73.65 184.45 73.85 186.4 74.2 189.35 85.95 195.1 L99.6 199.1 Q113.6 202.95 132.45 207.25 146.35 209.6 152.15 214.15 186.55 220.8 229.15 221.8 M17.95 281.0 Q32.75 251.15 55.4 218.25 131.7 249.7 85.2 305.25 68.35 320.45 37.9 316.1 8.05 302.85 14.95 287.0 L17.95 281.0 M59.95 214.5 L58.7 213.5 60.1 209.75 58.7 213.5 59.95 214.5 M245.55 249.35 Q251.95 252.8 222.8 253.95 193.65 255.1 173.35 250.2 153.05 245.3 154.9 243.85 212.2 255.85 245.55 249.35 M213.35 230.45 Q234.95 245.05 220.45 248.0 188.35 249.8 164.95 241.5 154.5 233.95 163.15 227.6 L213.35 230.45 M163.9 334.55 Q144.45 316.55 146.45 287.5 147.55 253.8 175.45 255.5 232.55 279.8 228.55 334.35 L222.05 335.2 199.75 336.7 Q181.45 337.05 163.9 334.55 M85.95 195.1 L73.7 191.5 85.95 195.1" fill="#ffffff" fill-rule="evenodd" stroke="none"/>
    <path d="M257.95 212.65 Q258.6 214.4 258.7 216.25 257.95 220.95 255.4 222.95 257.25 232.2 258.65 241.55 L261.95 244.0 259.9 251.1 Q263.85 284.45 261.55 318.75 L261.2 325.75 256.45 329.0 240.55 332.45 240.25 332.5 228.55 334.35 Q232.55 279.8 175.45 255.5 147.55 253.8 146.45 287.5 144.45 316.55 163.9 334.55 L154.8 333.05 Q142.95 330.8 131.45 327.25 L130.85 324.35 128.95 315.25 Q124.4 312.75 127.45 306.45 L124.0 305.35 122.6 304.9 122.45 305.35 121.55 316.3 121.2 320.0 Q119.65 324.3 111.45 325.25 80.55 327.8 53.25 321.65 L50.45 321.0 Q43.5 318.6 37.9 316.1 68.35 320.45 85.2 305.25 131.7 249.7 55.4 218.25 L56.25 213.8 Q56.5 217.1 65.7 221.0 L68.3 222.15 68.95 222.4 70.95 223.05 99.95 232.6 107.95 232.6 Q88.4 228.25 75.7 223.1 65.75 219.05 59.95 214.5 93.1 233.1 118.9 219.2 116.7 226.55 114.9 234.1 108.35 261.7 107.2 292.25 105.6 295.7 108.35 298.55 134.05 311.25 136.45 270.0 140.65 232.3 126.8 217.55 L122.7 215.5 123.2 212.5 Q154.7 222.5 192.7 225.25 L207.6 226.75 Q231.2 227.95 253.45 221.5 258.8 218.4 257.95 212.65 M141.7 232.75 Q138.55 223.9 126.8 217.55 138.55 223.9 141.7 232.75 M252.7 213.25 L251.25 215.8 Q247.65 220.6 239.55 222.0 L229.15 221.8 Q208.95 208.05 173.45 202.75 132.85 196.6 99.6 199.1 L85.95 195.1 Q74.2 189.35 73.85 186.4 73.65 184.45 78.45 183.75 106.65 181.25 136.95 183.75 171.05 185.95 203.95 192.25 224.1 195.55 248.7 207.25 252.6 210.7 252.7 213.25 M61.9 196.3 L61.75 191.65 Q60.2 189.15 60.0 186.75 74.3 202.5 91.95 207.0 80.7 208.55 67.2 201.25 L61.9 196.3 M258.65 241.55 L259.2 245.55 Q252.95 247.9 245.55 249.35 252.95 247.9 259.2 245.55 L258.65 241.55 M69.45 199.5 Q64.1 195.45 61.75 191.65 64.1 195.45 69.45 199.5 M185.2 226.75 L167.5 225.05 Q144.5 222.15 128.95 216.5 144.5 222.15 167.5 225.05 L185.2 226.75 M154.9 243.85 Q153.05 245.3 173.35 250.2 193.65 255.1 222.8 253.95 251.95 252.8 245.55 249.35 212.2 255.85 154.9 243.85 L144.0 241.45 Q137.25 272.65 136.45 304.25 137.25 272.65 144.0 241.45 L154.9 243.85 M213.35 230.45 L163.15 227.6 Q154.5 233.95 164.95 241.5 188.35 249.8 220.45 248.0 234.95 245.05 213.35 230.45 M114.9 234.1 L107.95 232.6 114.9 234.1 M130.95 307.5 L127.45 306.45 130.95 307.5 M151.7 226.5 Q145.85 232.7 144.0 241.45 145.85 232.7 151.7 226.5 M108.35 298.55 Q110.9 301.15 117.2 303.25 L122.6 304.9 117.2 303.25 Q110.9 301.15 108.35 298.55 M112.65 304.25 L122.45 305.35 112.65 304.25 Q103.85 306.2 100.95 309.0 103.85 306.2 112.65 304.25 103.45 303.7 94.7 305.35 103.45 303.7 112.65 304.25 M73.85 186.4 Q132.8 180.75 206.45 194.5 248.8 204.55 251.25 215.8 248.8 204.55 206.45 194.5 132.8 180.75 73.85 186.4 M218.95 229.0 Q245.7 230.75 255.4 222.95 245.7 230.75 218.95 229.0" fill="#f0f0e3" fill-rule="evenodd" stroke="none"/>
    <path d="M261.55 318.75 L264.7 322.75 263.7 325.0 262.7 335.25 265.45 338.75 Q267.0 343.7 263.7 345.75 238.4 352.7 207.0 354.4 223.3 349.8 222.6 338.65 241.15 337.5 240.25 332.5 L240.55 332.45 256.45 329.0 261.2 325.75 261.55 318.75 M123.4 323.7 L122.2 329.5 125.45 333.5 123.7 338.5 Q113.3 344.45 99.1 345.85 102.3 331.05 123.4 323.7 M122.2 332.75 L122.2 329.5 122.2 332.75" fill="#c19a02" fill-rule="evenodd" stroke="none"/>
    <path d="M255.4 222.95 Q257.95 220.95 258.7 216.25 258.6 214.4 257.95 212.65 253.55 200.9 223.45 193.0 145.6 176.75 76.7 179.0 62.8 180.55 59.95 185.5 L60.0 186.75 Q60.2 189.15 61.75 191.65 64.1 195.45 69.45 199.5 M122.7 215.5 L126.8 217.55 Q138.55 223.9 141.7 232.75 M252.7 213.25 L251.25 215.8 Q247.65 220.6 239.55 222.0 L229.15 221.8 Q186.55 220.8 152.15 214.15 138.85 211.55 126.75 208.1 119.8 206.05 119.95 215.75 L118.9 219.2 Q116.7 226.55 114.9 234.1 108.35 261.7 107.2 292.25 105.6 295.7 108.35 298.55 110.9 301.15 117.2 303.25 L122.6 304.9 124.0 305.35 122.45 305.35 121.55 316.3 Q125.6 317.5 125.95 321.5 L123.4 323.65 123.4 323.7 122.2 329.5 125.45 333.5 123.7 338.5 Q113.3 344.45 99.1 345.85 L89.2 346.25 Q33.75 345.0 6.2 320.25 L3.25 316.25 Q-2.0 308.1 1.2 303.0 L5.8 300.25 10.95 291.75 11.95 285.5 17.95 281.0 Q32.75 251.15 55.4 218.25 L56.25 213.8 M255.4 222.95 Q257.25 232.2 258.65 241.55 L261.95 244.0 259.9 251.1 Q263.85 284.45 261.55 318.75 L264.7 322.75 263.7 325.0 262.7 335.25 265.45 338.75 Q267.0 343.7 263.7 345.75 238.4 352.7 207.0 354.4 188.45 355.4 167.75 354.6 L165.45 354.5 147.5 350.95 Q129.25 346.55 128.95 342.25 L131.1 338.7 130.2 332.75 127.7 328.75 Q128.3 325.05 130.85 324.35 L128.95 315.25 Q124.4 312.75 127.45 306.45 L124.0 305.35 M56.45 212.5 L60.1 209.75 Q61.8 203.85 61.9 196.3 L61.75 191.65 M245.55 249.35 Q252.95 247.9 259.2 245.55 L258.65 241.55 M240.55 332.45 L256.45 329.0 261.2 325.75 261.55 318.75 M85.95 195.1 Q74.2 189.35 73.85 186.4 73.65 184.45 78.45 183.75 M60.1 209.75 L58.7 213.5 59.95 214.5 Q65.75 219.05 75.7 223.1 88.4 228.25 107.95 232.6 L114.9 234.1 M17.95 281.0 L14.95 287.0 Q8.05 302.85 37.9 316.1 43.5 318.6 50.45 321.0 L53.25 321.65 Q80.55 327.8 111.45 325.25 119.65 324.3 121.2 320.0 L121.55 316.3 M5.8 300.25 L3.2 303.5 M128.95 216.5 Q144.5 222.15 167.5 225.05 L185.2 226.75 M154.9 243.85 L144.0 241.45 Q137.25 272.65 136.45 304.25 M99.6 199.1 Q132.85 196.6 173.45 202.75 208.95 208.05 229.15 221.8 M99.6 199.1 Q113.6 202.95 132.45 207.25 146.35 209.6 152.15 214.15 M85.95 195.1 L99.6 199.1 M144.0 241.45 Q145.85 232.7 151.7 226.5 M127.45 306.45 L130.95 307.5 M122.2 329.5 L122.2 332.75 M130.85 324.35 L131.45 327.25 Q142.95 330.8 154.8 333.05 L163.9 334.55 Q181.45 337.05 199.75 336.7 L222.05 335.2 228.55 334.35 240.25 332.5 M100.95 309.0 Q103.85 306.2 112.65 304.25 103.45 303.7 94.7 305.35 M122.45 305.35 L112.65 304.25 M73.7 191.5 L85.95 195.1 M251.25 215.8 Q248.8 204.55 206.45 194.5 132.8 180.75 73.85 186.4 M154.9 243.85 Q212.2 255.85 245.55 249.35 M255.4 222.95 Q245.7 230.75 218.95 229.0" fill="none" stroke="#000000" stroke-linecap="round" stroke-linejoin="round" stroke-opacity="0.3019608" stroke-width="0.5"/>
    <path d="M239.55 222.0 L229.15 221.8 Q186.55 220.8 152.15 214.15 146.35 209.6 132.45 207.25 113.6 202.95 99.6 199.1 L85.95 195.1 Q74.2 189.35 73.85 186.4 132.8 180.75 206.45 194.5 248.8 204.55 251.25 215.8 247.65 220.6 239.55 222.0" fill="#000000" fill-opacity="0.34117648" fill-rule="evenodd" stroke="none"/>
  </g>
</svg>
