<?xml version="1.0" encoding="UTF-8" standalone="no"?>
<svg xmlns:xlink="http://www.w3.org/1999/xlink" height="217.35px" width="212.3px" xmlns="http://www.w3.org/2000/svg">
  <g transform="matrix(1.0, 0.0, 0.0, 1.0, 144.75, 203.45)">
    <path d="M22.6 -138.25 Q28.45 -129.7 32.65 -121.55 L32.5 -127.15 Q52.1 -103.8 49.2 -73.7 48.25 -63.7 45.35 -53.9 52.5 -59.2 56.75 -67.0 58.85 -70.85 59.9 -74.85 L59.6 -71.85 Q64.6 -83.1 65.0 -95.8 66.35 -86.9 67.0 -79.3 L55.15 -48.4 58.3 -49.7 Q62.8 -51.5 66.45 -54.95 64.8 -45.0 60.25 -39.65 L60.25 -39.6 Q59.0 -11.25 44.15 0.2 51.4 -10.5 46.35 -17.15 L46.25 -17.25 46.3 -17.3 48.4 -27.2 Q49.85 -35.0 43.85 -41.4 43.75 -45.45 43.1 -48.95 41.95 -54.7 39.15 -58.95 35.05 -65.2 27.45 -68.2 L26.4 -64.95 Q25.15 -61.75 23.55 -59.35 23.05 -74.05 17.05 -87.35 L16.85 -87.6 Q8.35 -105.65 -1.6 -122.05 L-6.55 -129.95 -2.65 -125.45 Q8.7 -110.85 22.1 -98.4 L22.25 -98.65 Q19.7 -109.9 12.95 -119.5 -3.45 -142.85 -18.95 -166.8 L-11.35 -158.85 -13.05 -165.4 Q8.15 -144.5 20.8 -117.4 27.8 -102.45 33.6 -86.95 L34.0 -87.0 32.45 -101.05 36.55 -94.65 37.1 -94.95 Q36.95 -115.35 25.55 -133.3 L22.6 -138.25 M20.05 -53.45 L17.8 -54.3 Q6.35 -58.75 -3.7 -64.1 L-12.95 -52.3 Q-20.25 -43.05 -16.9 -35.15 -42.75 -51.55 -74.4 -60.15 -84.95 -61.8 -95.55 -61.55 -99.1 -66.95 -103.0 -71.65 L-64.3 -64.3 -66.25 -67.15 Q-81.45 -89.35 -101.65 -106.75 -93.45 -105.75 -85.7 -102.85 L-87.9 -105.55 -66.75 -93.1 -88.15 -120.65 -83.9 -117.25 Q-67.3 -104.5 -48.95 -94.45 L-48.6 -94.65 -52.2 -99.35 Q-65.2 -115.9 -71.1 -136.2 -65.05 -132.95 -58.9 -128.95 -65.05 -132.95 -71.1 -136.2 -78.65 -140.2 -86.1 -143.1 -89.0 -153.5 -94.0 -162.75 -81.85 -159.75 -73.75 -150.6 L-72.85 -149.4 -76.85 -167.4 Q-72.8 -165.7 -68.9 -163.15 -65.6 -144.15 -58.9 -128.95 -56.25 -123.0 -53.1 -117.6 -42.95 -102.2 -33.55 -90.85 L-34.2 -93.15 Q-36.75 -102.25 -38.55 -111.6 -39.3 -115.45 -39.55 -119.35 -25.8 -99.0 -8.35 -81.0 L-39.1 -143.15 Q-13.75 -121.2 6.8 -89.75 -2.75 -111.4 -15.75 -131.3 L-11.7 -129.0 Q7.75 -107.5 15.7 -79.0 19.2 -66.5 20.05 -53.45 M-16.55 -30.15 Q-14.9 -14.9 -6.85 -5.4 -10.8 1.3 -10.2 4.6 -9.65 7.85 -7.65 13.6 -17.9 14.75 -28.15 8.35 L-28.95 7.85 -38.0 -1.7 Q-58.45 -3.1 -76.85 -9.55 L-76.75 -9.95 Q-73.0 -10.1 -69.65 -11.2 L-66.45 -12.3 -66.1 -12.85 -68.4 -13.15 Q-80.75 -15.9 -91.1 -23.4 -84.15 -24.2 -77.3 -27.05 -92.5 -29.4 -106.55 -35.55 L-111.85 -38.0 -106.4 -38.9 Q-92.6 -41.2 -78.65 -40.25 L-75.55 -39.95 -62.65 -41.3 -65.5 -43.05 Q-72.9 -47.2 -80.85 -50.2 L-72.95 -48.95 Q-60.85 -46.85 -48.8 -43.6 -36.75 -40.25 -25.9 -34.05 -21.1 -32.5 -16.55 -30.15 M-11.35 -158.85 Q13.35 -131.25 29.8 -87.65 29.65 -76.05 27.45 -68.2 29.65 -76.05 29.8 -87.65 13.35 -131.25 -11.35 -158.85 M43.85 -41.4 L45.6 -42.9 Q57.55 -54.05 59.6 -71.85 57.55 -54.05 45.6 -42.9 L43.85 -41.4 M46.35 -17.15 L46.3 -17.3 46.35 -17.15 M46.3 -17.3 Q53.25 -26.0 60.25 -39.6 53.25 -26.0 46.3 -17.3 M32.65 -121.55 Q49.0 -89.7 39.15 -58.95 49.0 -89.7 32.65 -121.55 M-3.7 -64.1 Q-17.45 -71.45 -33.55 -90.85 -17.45 -71.45 -3.7 -64.1 M-75.75 -33.25 L-75.7 -33.2 -75.7 -33.3 -75.75 -33.25 M-38.0 -1.7 L-44.6 -8.65 Q-74.25 -30.05 -77.3 -27.05 -74.25 -30.05 -44.6 -8.65 L-38.0 -1.7 M-12.95 -52.3 Q-38.75 -58.05 -55.65 -73.0 -72.7 -87.35 -85.7 -102.85 -72.7 -87.35 -55.65 -73.0 -38.75 -58.05 -12.95 -52.3 M-18.05 4.6 L-18.3 4.2 -18.55 4.35 -18.05 4.6" fill="#d28902" fill-rule="evenodd" stroke="none"/>
    <path d="M32.5 -127.15 Q31.7 -134.25 28.0 -143.3 52.5 -116.65 59.65 -87.05 60.25 -80.6 59.9 -74.85 58.85 -70.85 56.75 -67.0 52.5 -59.2 45.35 -53.9 48.25 -63.7 49.2 -73.7 52.1 -103.8 32.5 -127.15 M67.0 -79.3 Q68.1 -64.85 66.45 -54.95 62.8 -51.5 58.3 -49.7 L55.15 -48.4 67.0 -79.3 M23.55 -59.35 Q23.8 -51.8 22.2 -52.55 L21.8 -52.8 20.05 -53.45 Q19.2 -66.5 15.7 -79.0 7.75 -107.5 -11.7 -129.0 L-15.75 -131.3 Q-2.75 -111.4 6.8 -89.75 -13.75 -121.2 -39.1 -143.15 L-8.35 -81.0 Q-25.8 -99.0 -39.55 -119.35 -39.3 -115.45 -38.55 -111.6 -36.75 -102.25 -34.2 -93.15 L-33.55 -90.85 Q-42.95 -102.2 -53.1 -117.6 -56.25 -123.0 -58.9 -128.95 -65.6 -144.15 -68.9 -163.15 -70.25 -171.1 -70.9 -180.6 -71.35 -187.45 -71.45 -195.05 L-71.45 -203.35 -61.45 -195.25 Q-37.95 -185.35 -18.95 -166.8 -3.45 -142.85 12.95 -119.5 19.7 -109.9 22.25 -98.65 L22.1 -98.4 Q8.7 -110.85 -2.65 -125.45 L-6.55 -129.95 -1.6 -122.05 Q8.35 -105.65 16.85 -87.6 L17.05 -87.35 Q23.05 -74.05 23.55 -59.35 M-16.9 -35.15 L-16.55 -30.15 Q-21.1 -32.5 -25.9 -34.05 -36.75 -40.25 -48.8 -43.6 -60.85 -46.85 -72.95 -48.95 L-80.85 -50.2 Q-72.9 -47.2 -65.5 -43.05 L-62.65 -41.3 -75.55 -39.95 -78.65 -40.25 Q-92.6 -41.2 -106.4 -38.9 L-111.85 -38.0 Q-124.4 -44.25 -136.0 -53.55 -115.75 -61.05 -95.55 -61.55 -84.95 -61.8 -74.4 -60.15 -42.75 -51.55 -16.9 -35.15 M-78.25 -10.05 Q-93.4 -15.5 -107.15 -24.45 -99.05 -22.55 -91.1 -23.4 -80.75 -15.9 -68.4 -13.15 L-66.1 -12.85 -66.45 -12.3 -69.65 -11.2 Q-73.0 -10.1 -76.75 -9.95 L-78.25 -10.05 M-103.0 -71.65 Q-120.55 -92.9 -144.65 -100.55 -121.65 -109.2 -101.65 -106.75 -81.45 -89.35 -66.25 -67.15 L-64.3 -64.3 -103.0 -71.65 M-87.9 -105.55 Q-105.4 -127.05 -115.35 -150.85 -100.5 -148.7 -86.1 -143.1 -78.65 -140.2 -71.1 -136.2 -65.2 -115.9 -52.2 -99.35 L-48.6 -94.65 -48.95 -94.45 Q-67.3 -104.5 -83.9 -117.25 L-88.15 -120.65 -66.75 -93.1 -87.9 -105.55 M-94.0 -162.75 Q-96.25 -166.85 -98.85 -170.75 -87.3 -171.75 -76.85 -167.4 L-72.85 -149.4 -73.75 -150.6 Q-81.85 -159.75 -94.0 -162.75 M-13.05 -165.4 L-15.85 -176.05 Q1.8 -165.6 12.8 -151.45 18.2 -144.75 22.6 -138.25 L25.55 -133.3 Q36.95 -115.35 37.1 -94.95 L36.55 -94.65 32.45 -101.05 34.0 -87.0 33.6 -86.95 Q27.8 -102.45 20.8 -117.4 8.15 -144.5 -13.05 -165.4" fill="#f7a202" fill-rule="evenodd" stroke="none"/>
    <path d="M22.6 -138.25 Q28.45 -129.7 32.65 -121.55 L32.5 -127.15 Q31.7 -134.25 28.0 -143.3 52.5 -116.65 59.65 -87.05 60.25 -80.6 59.9 -74.85 L59.6 -71.85 Q64.6 -83.1 65.0 -95.8 66.35 -86.9 67.0 -79.3 68.1 -64.85 66.45 -54.95 64.8 -45.0 60.25 -39.65 L60.25 -39.6 Q59.0 -11.25 44.15 0.2 51.4 -10.5 46.35 -17.15 L46.25 -17.25 46.3 -17.3 48.4 -27.2 Q49.85 -35.0 43.85 -41.4 43.75 -45.45 43.1 -48.95 41.95 -54.7 39.15 -58.95 35.05 -65.2 27.45 -68.2 L26.4 -64.95 Q25.15 -61.75 23.55 -59.35 23.8 -51.8 22.2 -52.55 L21.8 -52.8 20.05 -53.45 17.8 -54.3 Q6.35 -58.75 -3.7 -64.1 L-12.95 -52.3 Q-20.25 -43.05 -16.9 -35.15 L-16.55 -30.15 Q-14.9 -14.9 -6.85 -5.4 -10.8 1.3 -10.2 4.6 -9.65 7.85 -7.65 13.6 -17.9 14.75 -28.15 8.35 L-28.95 7.85 -38.0 -1.7 Q-58.45 -3.1 -76.85 -9.55 L-78.25 -10.05 Q-93.4 -15.5 -107.15 -24.45 -99.05 -22.55 -91.1 -23.4 -84.15 -24.2 -77.3 -27.05 -92.5 -29.4 -106.55 -35.55 L-111.85 -38.0 Q-124.4 -44.25 -136.0 -53.55 -115.75 -61.05 -95.55 -61.55 -99.1 -66.95 -103.0 -71.65 -120.55 -92.9 -144.65 -100.55 -121.65 -109.2 -101.65 -106.75 -93.45 -105.75 -85.7 -102.85 L-87.9 -105.55 Q-105.4 -127.05 -115.35 -150.85 -100.5 -148.7 -86.1 -143.1 -89.0 -153.5 -94.0 -162.75 -96.25 -166.85 -98.85 -170.75 -87.3 -171.75 -76.85 -167.4 -72.8 -165.7 -68.9 -163.15 -70.25 -171.1 -70.9 -180.6 -71.35 -187.45 -71.45 -195.05 L-71.45 -203.35 -61.45 -195.25 Q-37.95 -185.35 -18.95 -166.8 L-11.35 -158.85 -13.05 -165.4 -15.85 -176.05 Q1.8 -165.6 12.8 -151.45 18.2 -144.75 22.6 -138.25 M17.05 -87.35 L16.85 -87.6 M-77.3 -27.05 Q-74.25 -30.05 -44.6 -8.65 L-38.0 -1.7" fill="none" stroke="#000000" stroke-linecap="round" stroke-linejoin="round" stroke-opacity="0.4" stroke-width="0.2"/>
    <path d="M27.45 -68.2 Q29.65 -76.05 29.8 -87.65 13.35 -131.25 -11.35 -158.85 M23.55 -59.35 Q23.05 -74.05 17.05 -87.35 M59.6 -71.85 Q57.55 -54.05 45.6 -42.9 L43.85 -41.4 M39.15 -58.95 Q49.0 -89.7 32.65 -121.55 M-71.1 -136.2 Q-65.05 -132.95 -58.9 -128.95 -65.6 -144.15 -68.9 -163.15 M-58.9 -128.95 Q-56.25 -123.0 -53.1 -117.6 -42.95 -102.2 -33.55 -90.85 -17.45 -71.45 -3.7 -64.1 M-16.9 -35.15 Q-42.75 -51.55 -74.4 -60.15 -84.95 -61.8 -95.55 -61.55 M-85.7 -102.85 Q-72.7 -87.35 -55.65 -73.0 -38.75 -58.05 -12.95 -52.3 M-86.1 -143.1 Q-78.65 -140.2 -71.1 -136.2" fill="none" stroke="#000000" stroke-linecap="round" stroke-linejoin="round" stroke-opacity="0.23921569" stroke-width="0.2"/>
    <path d="M46.3 -17.3 L46.35 -17.15" fill="none" stroke="#ff99cc" stroke-linecap="round" stroke-linejoin="round" stroke-width="0.2"/>
    <path d="M60.25 -39.6 Q53.25 -26.0 46.3 -17.3" fill="none" stroke="#000000" stroke-linecap="round" stroke-linejoin="round" stroke-opacity="0.2509804" stroke-width="0.2"/>
  </g>
</svg>
