<?xml version="1.0" encoding="UTF-8" standalone="no"?>
<svg xmlns:xlink="http://www.w3.org/1999/xlink" height="20.75px" width="15.2px" xmlns="http://www.w3.org/2000/svg">
  <g transform="matrix(1.0, 0.0, 0.0, 1.0, -285.2, -189.8)">
    <path d="M291.7 191.0 L291.1 190.7 294.05 189.85 294.15 189.85 294.15 191.4 294.05 191.4 292.7 191.65 291.7 191.0" fill="#857c74" fill-rule="evenodd" stroke="none"/>
    <path d="M291.1 190.7 L291.7 191.0 Q292.55 194.0 293.1 197.5 L293.1 199.05 293.1 199.2 292.7 200.4 Q290.1 202.5 286.95 203.6 286.1 204.35 285.75 205.4 L286.1 207.25 285.6 207.25 285.25 205.4 Q285.65 204.35 286.5 203.6 L286.75 203.55 287.0 203.4 288.35 202.8 Q290.4 201.8 292.2 200.4 L292.6 199.05 292.65 197.5 292.5 196.7 292.35 196.05 Q291.85 193.3 291.0 190.65 L291.1 190.7 M292.7 191.65 L294.05 191.4 294.15 191.4 295.6 191.2 295.3 199.9 295.4 199.95 295.45 199.95 295.3 200.15 293.9 201.1 Q291.7 203.0 289.95 206.85 L288.1 207.15 286.75 207.15 286.35 205.35 Q286.7 204.3 287.55 203.55 290.75 202.4 293.3 200.3 L293.65 199.35 293.65 199.25 293.7 198.95 293.7 197.4 292.7 191.65" fill="#ebeae9" fill-rule="evenodd" stroke="none"/>
    <path d="M294.15 191.4 L294.15 189.85 296.6 190.55 296.55 190.55 295.6 191.2 294.15 191.4" fill="#b1aba7" fill-rule="evenodd" stroke="none"/>
    <path d="M286.1 207.25 L285.75 205.4 Q286.1 204.35 286.95 203.6 290.1 202.5 292.7 200.4 L293.1 199.2 293.1 199.05 293.1 197.5 Q292.55 194.0 291.7 191.0 L292.7 191.65 293.7 197.4 293.7 198.95 293.65 199.25 293.65 199.35 293.3 200.3 Q290.75 202.4 287.55 203.55 286.7 204.3 286.35 205.35 L286.75 207.15 288.1 207.15 288.1 207.2 286.75 207.25 286.1 207.25" fill="#ffffff" fill-rule="evenodd" stroke="none"/>
    <path d="M285.6 207.25 L286.1 207.25 286.75 207.25 288.1 207.2 289.25 207.05 288.1 207.15 289.95 206.85 Q291.7 203.0 293.9 201.1 L295.3 200.15 295.45 199.95 295.4 199.95 295.3 199.9 295.6 191.2 296.55 190.55 296.1 197.6 296.35 198.45 Q296.6 199.15 296.95 199.3 L297.45 199.9 297.55 200.1 297.55 200.15 297.25 200.7 297.2 200.7 295.8 201.7 295.8 201.75 295.75 201.7 294.65 202.8 Q293.6 203.95 292.7 205.6 L292.65 205.75 292.55 205.9 Q292.35 206.35 292.3 207.35 L290.35 207.65 289.45 207.75 287.85 207.65 286.6 207.6 287.1 207.6 285.65 207.5 285.6 207.25 M295.6 199.35 L295.55 199.4 295.6 199.5 295.6 199.45 295.6 199.15 295.6 199.35 M295.6 199.5 L295.6 199.65 295.6 199.55 295.6 199.5 M287.85 207.65 L290.35 207.65 287.85 207.65" fill="#cecbc8" fill-rule="evenodd" stroke="none"/>
    <path d="M295.6 199.35 L295.6 199.15 295.6 199.45 295.6 199.5 295.55 199.4 295.6 199.35" fill="#cccc00" fill-rule="evenodd" stroke="none"/>
    <path d="M297.55 200.15 L297.55 200.5 297.55 200.95 297.15 201.85 295.75 202.8 295.35 203.15 Q293.7 204.7 292.3 207.35 292.35 206.35 292.55 205.9 L292.65 205.75 292.7 205.6 Q293.6 203.95 294.65 202.8 L295.75 201.7 295.8 201.75 295.8 201.7 297.2 200.7 297.25 200.7 297.55 200.15" fill="#bebab4" fill-rule="evenodd" stroke="none"/>
    <path d="M295.6 199.5 L295.6 199.55 295.6 199.65 295.6 199.5" fill="#ffff00" fill-rule="evenodd" stroke="none"/>
    <path d="M288.1 207.15 L289.25 207.05 288.1 207.2 288.1 207.15" fill="#fee9ab" fill-rule="evenodd" stroke="none"/>
    <path d="M291.1 190.7 L291.0 190.65 Q291.85 193.3 292.35 196.05 L292.5 196.7 292.65 197.5 292.6 199.05 292.2 200.4 Q290.4 201.8 288.35 202.8 L287.0 203.4 286.75 203.55 286.5 203.6 Q285.65 204.35 285.25 205.4 L285.6 207.25 285.65 207.5 287.1 207.6 286.6 207.6 287.85 207.65 290.35 207.65 292.3 207.35 Q293.7 204.7 295.35 203.15 L295.75 202.8 297.15 201.85 297.55 200.95 297.55 200.5 297.55 200.15 297.55 200.1 297.45 199.9 296.95 199.3 Q296.6 199.15 296.35 198.45 L296.1 197.6 296.55 190.55 296.6 190.55 294.15 189.85 M294.05 189.85 L291.1 190.7" fill="none" stroke="#472c23" stroke-linecap="round" stroke-linejoin="round" stroke-width="0.1"/>
    <path d="M299.9 192.15 L300.0 192.05 298.1 199.5 298.45 200.5 298.25 200.7 297.85 199.6 299.15 192.85 299.9 192.15 M294.9 192.15 L295.5 192.75 295.65 194.8 296.0 199.1 295.35 200.6 295.35 200.7 295.55 202.25 Q295.75 204.8 294.6 207.65 L294.2 208.3 Q295.1 209.55 296.45 210.1 L296.4 210.2 296.05 210.3 Q294.7 209.8 293.8 208.55 L294.2 207.85 Q295.35 205.0 295.1 202.45 L294.9 200.8 295.6 199.3 295.25 195.0 294.9 192.15" fill="#bebab4" fill-rule="evenodd" stroke="none"/>
    <path d="M299.15 192.85 L297.85 199.6 298.25 200.7 298.45 200.5 298.65 201.05 298.05 202.4 Q298.95 205.85 300.35 208.55 L300.1 208.9 300.0 208.95 298.6 210.1 298.4 210.15 298.25 210.2 296.2 210.35 296.15 210.35 296.05 210.3 296.4 210.2 296.8 210.0 296.85 210.0 Q298.3 209.35 298.95 208.3 297.55 205.6 296.6 202.2 L296.7 202.05 296.9 193.8 297.5 193.55 299.15 192.85 M296.7 202.05 L296.7 202.1 296.7 202.05" fill="#cecbc8" fill-rule="evenodd" stroke="none"/>
    <path d="M294.9 192.15 L297.25 191.15 297.3 191.15 297.5 191.25 297.5 193.55 296.9 193.8 295.5 192.75 294.9 192.15" fill="#857c74" fill-rule="evenodd" stroke="none"/>
    <path d="M299.9 192.15 L299.15 192.85 297.5 193.55 297.5 191.25 299.9 192.15 M294.9 192.15 L294.85 192.15 294.9 192.15" fill="#b1aba7" fill-rule="evenodd" stroke="none"/>
    <path d="M295.5 192.75 L296.9 193.8 296.7 202.05 296.6 202.2 Q297.55 205.6 298.95 208.3 298.3 209.35 296.85 210.0 L296.8 210.0 296.45 210.1 Q295.1 209.55 294.2 208.3 L294.6 207.65 Q295.75 204.8 295.55 202.25 L295.35 200.7 295.35 200.6 296.0 199.1 295.65 194.8 295.5 192.75" fill="#ebeae9" fill-rule="evenodd" stroke="none"/>
    <path d="M296.4 210.2 L296.45 210.1 296.8 210.0 296.4 210.2 M296.7 202.05 L296.7 202.1 296.7 202.05" fill="#cc9900" fill-rule="evenodd" stroke="none"/>
    <path d="M298.45 200.5 L298.1 199.5 300.0 192.05 M296.05 210.3 L296.15 210.35 296.2 210.35 298.25 210.2 298.4 210.15 298.6 210.1 300.0 208.95 300.1 208.9 300.35 208.55 Q298.95 205.85 298.05 202.4 L298.65 201.05 298.45 200.5 M294.9 192.15 L297.25 191.15 297.3 191.15 M297.5 191.25 L299.9 192.15 M294.9 192.15 L294.85 192.15 294.9 192.15 295.25 195.0 295.6 199.3 294.9 200.8 295.1 202.45 Q295.35 205.0 294.2 207.85 L293.8 208.55 Q294.7 209.8 296.05 210.3" fill="none" stroke="#472c23" stroke-linecap="round" stroke-linejoin="round" stroke-width="0.1"/>
  </g>
</svg>
