<?xml version="1.0" encoding="UTF-8" standalone="no"?>
<svg xmlns:xlink="http://www.w3.org/1999/xlink" height="169.3px" width="137.4px" xmlns="http://www.w3.org/2000/svg">
  <g transform="matrix(1.0, 0.0, 0.0, 1.0, 68.7, 84.65)">
    <path d="M65.6 -29.65 Q68.0 -27.5 67.5 -25.85 L48.3 -15.75 47.2 -18.3 65.6 -29.65 M-64.05 -21.45 Q-64.3 -23.15 -62.2 -25.85 L-32.75 -16.75 -34.5 -13.5 -64.05 -21.45 M-15.9 -8.5 L-14.8 -11.2 17.45 -2.45 31.75 -10.15 33.25 -11.0 34.5 -8.5 20.25 -0.45 Q16.8 2.45 16.1 13.6 16.15 0.55 11.75 -0.95 L-15.9 -8.5" fill="#9fcfff" fill-rule="evenodd" stroke="none"/>
    <path d="M52.75 63.05 Q45.9 70.95 35.45 74.45 38.45 72.35 38.4 68.75 L37.95 60.0 Q45.45 48.8 52.95 50.15 L53.55 58.85 Q53.8 61.75 52.75 63.05 M50.3 12.85 L46.3 19.7 50.6 17.1 51.25 25.85 Q45.35 39.9 36.95 40.4 L34.5 -8.5 48.3 -15.75 50.3 12.85" fill="#db9114" fill-rule="evenodd" stroke="none"/>
    <path d="M67.5 -25.85 Q61.7 11.6 66.2 30.4 70.75 49.2 67.1 53.45 L52.75 63.05 Q53.8 61.75 53.55 58.85 L52.95 50.15 51.25 25.85 50.6 17.1 Q49.15 16.9 50.3 12.85 L48.3 -15.75 67.5 -25.85 M35.45 74.45 L19.35 83.45 Q17.3 85.1 11.7 84.45 16.15 83.35 17.0 81.3 13.75 46.9 16.1 13.6 16.8 2.45 20.25 -0.45 L34.5 -8.5 36.95 40.4 37.95 60.0 38.4 68.75 Q38.45 72.35 35.45 74.45" fill="#0068d0" fill-rule="evenodd" stroke="none"/>
    <path d="M-23.75 74.8 Q-32.85 74.25 -42.55 69.4 L-42.9 69.3 Q-46.35 66.45 -34.5 -13.5 L-15.9 -8.5 Q-26.3 71.55 -23.75 74.8 M50.3 12.85 Q49.15 16.9 50.6 17.1 L46.3 19.7 50.3 12.85 M51.25 25.85 L52.95 50.15 Q45.45 48.8 37.95 60.0 L36.95 40.4 Q45.35 39.9 51.25 25.85 M-23.35 -23.45 L-20.85 -25.2 -18.4 -27.0 -0.65 -21.6 -5.5 -18.9 Q-10.5 -21.6 -23.35 -23.45" fill="#b37000" fill-rule="evenodd" stroke="none"/>
    <path d="M-62.2 -25.85 L-44.3 -34.85 -43.8 -35.35 -20.85 -25.2 -23.35 -23.45 -32.75 -16.75 -62.2 -25.85 M-28.3 -42.7 L-7.3 -53.0 11.55 -47.05 Q10.6 -46.9 8.8 -45.9 4.25 -43.4 -5.6 -35.15 -16.45 -39.65 -22.25 -41.45 -26.95 -42.95 -28.3 -42.7 M29.8 -41.3 L29.95 -41.3 65.6 -29.65 47.2 -18.3 Q48.55 -19.45 9.8 -30.35 20.75 -38.1 25.95 -40.4 28.65 -41.65 29.8 -41.3 M31.75 -10.15 L17.45 -2.45 -14.8 -11.2 Q-14.95 -13.35 -5.5 -18.9 13.7 -16.3 31.75 -10.15" fill="#1f8efe" fill-rule="evenodd" stroke="none"/>
    <path d="M11.7 84.45 L9.7 84.1 9.2 84.0 -23.25 74.85 -23.75 74.8 Q-26.3 71.55 -15.9 -8.5 L11.75 -0.95 Q16.15 0.55 16.1 13.6 13.75 46.9 17.0 81.3 16.15 83.35 11.7 84.45 M-42.9 69.3 L-66.15 63.15 Q-71.1 56.05 -66.5 38.35 -65.1 32.8 -64.3 24.95 -62.1 22.65 -63.85 18.75 -62.85 2.65 -64.05 -21.45 L-34.5 -13.5 Q-46.35 66.45 -42.9 69.3 M-20.85 -25.2 L-43.8 -35.35 -40.5 -35.05 Q-34.4 -33.65 -18.4 -27.0 L-20.85 -25.2 M33.25 -11.0 L31.75 -10.15 Q13.7 -16.3 -5.5 -18.9 L-0.65 -21.6 Q33.45 -13.9 33.25 -11.0" fill="#024b95" fill-rule="evenodd" stroke="none"/>
    <path d="M-43.8 -35.35 Q-38.8 -40.65 -28.75 -42.45 L-28.3 -42.7 Q-26.95 -42.95 -22.25 -41.45 -34.7 -38.85 -40.5 -35.05 L-43.8 -35.35 M11.55 -47.05 Q24.05 -47.5 29.8 -41.3 28.65 -41.65 25.95 -40.4 22.65 -44.5 8.8 -45.9 10.6 -46.9 11.55 -47.05 M47.2 -18.3 L48.3 -15.75 34.5 -8.5 33.25 -11.0 47.2 -18.3 M-34.5 -13.5 L-32.75 -16.75 -14.8 -11.2 -15.9 -8.5 -34.5 -13.5" fill="#ffdca3" fill-rule="evenodd" stroke="none"/>
    <path d="M-32.75 -16.75 L-23.35 -23.45 Q-10.5 -21.6 -5.5 -18.9 -14.95 -13.35 -14.8 -11.2 L-32.75 -16.75 M-40.5 -35.05 Q-34.7 -38.85 -22.25 -41.45 -16.45 -39.65 -5.6 -35.15 4.25 -43.4 8.8 -45.9 22.65 -44.5 25.95 -40.4 20.75 -38.1 9.8 -30.35 48.55 -19.45 47.2 -18.3 L33.25 -11.0 Q33.45 -13.9 -0.65 -21.6 L-18.4 -27.0 Q-34.4 -33.65 -40.5 -35.05 M-5.6 -35.15 L9.8 -30.35 -5.6 -35.15" fill="#ffab1f" fill-rule="evenodd" stroke="none"/>
    <path d="M65.6 -29.65 Q68.0 -27.5 67.5 -25.85 61.7 11.6 66.2 30.4 70.75 49.2 67.1 53.45 L52.75 63.05 Q45.9 70.95 35.45 74.45 L19.35 83.45 Q17.3 85.1 11.7 84.45 M9.2 84.0 L-23.25 74.85 -23.75 74.8 Q-32.85 74.25 -42.55 69.4 L-42.9 69.3 -66.15 63.15 Q-71.1 56.05 -66.5 38.35 -65.1 32.8 -64.3 24.95 -62.1 22.65 -63.85 18.75 -62.85 2.65 -64.05 -21.45 -64.3 -23.15 -62.2 -25.85 L-44.3 -34.85 -43.8 -35.35 Q-38.8 -40.65 -28.75 -42.45 L-28.3 -42.7 -7.3 -53.0 11.55 -47.05 Q24.05 -47.5 29.8 -41.3 L29.95 -41.3 65.6 -29.65 M47.2 -18.3 L48.3 -15.75 50.3 12.85 Q49.15 16.9 50.6 17.1 L51.25 25.85 52.95 50.15 53.55 58.85 Q53.8 61.75 52.75 63.05 M-34.5 -13.5 L-32.75 -16.75 -23.35 -23.45 -20.85 -25.2 -18.4 -27.0 Q-34.4 -33.65 -40.5 -35.05 L-43.8 -35.35 M-22.25 -41.45 Q-26.95 -42.95 -28.3 -42.7 M-14.8 -11.2 L-15.9 -8.5 Q-26.3 71.55 -23.75 74.8 M34.5 -8.5 L33.25 -11.0 Q33.45 -13.9 -0.65 -21.6 L-5.5 -18.9 Q-14.95 -13.35 -14.8 -11.2 M-22.25 -41.45 Q-16.45 -39.65 -5.6 -35.15 4.25 -43.4 8.8 -45.9 10.6 -46.9 11.55 -47.05 M-18.4 -27.0 L-0.65 -21.6 M47.2 -18.3 Q48.55 -19.45 9.8 -30.35 L-5.6 -35.15 M9.8 -30.35 Q20.75 -38.1 25.95 -40.4 28.65 -41.65 29.8 -41.3 M-34.5 -13.5 Q-46.35 66.45 -42.9 69.3 M37.95 60.0 L38.4 68.75 Q38.45 72.35 35.45 74.45 M36.95 40.4 L37.95 60.0 M34.5 -8.5 L36.95 40.4" fill="none" stroke="#000000" stroke-linecap="round" stroke-linejoin="round" stroke-opacity="0.4" stroke-width="0.05"/>
    <path d="M-36.2 -70.75 Q-40.55 -76.75 -44.4 -82.7 -28.4 -70.1 -17.7 -68.45 L-12.25 -60.2 Q-26.9 -70.0 -36.2 -70.75 M16.9 -78.4 L22.7 -84.65 Q30.65 -75.85 42.2 -71.4 L36.0 -66.5 Q30.2 -77.95 16.9 -78.4" fill="#ffdca3" fill-rule="evenodd" stroke="none"/>
    <path d="M-10.05 -35.2 Q-33.35 -47.6 -44.2 -67.95 -51.35 -77.9 -44.4 -82.7 -40.55 -76.75 -36.2 -70.75 -23.35 -53.55 -5.25 -36.3 L-10.05 -35.2 M42.2 -71.4 Q46.8 -69.1 37.15 -57.6 L7.5 -31.45 5.0 -29.2 7.4 -33.4 Q18.3 -51.75 36.0 -66.5 L42.2 -71.4" fill="#b37000" fill-rule="evenodd" stroke="none"/>
    <path d="M-5.25 -36.3 Q-23.35 -53.55 -36.2 -70.75 -26.9 -70.0 -12.25 -60.2 L0.05 -41.5 Q3.1 -61.9 16.9 -78.4 30.2 -77.95 36.0 -66.5 18.3 -51.75 7.4 -33.4 L5.0 -29.2 1.9 -29.05 Q-0.9 -29.55 -0.75 -32.85 L-0.45 -37.35 -0.25 -39.6 0.05 -41.5 -0.25 -39.6 -10.0 -52.0 Q-18.5 -56.95 -14.7 -50.15 L-0.45 -37.35 -5.25 -36.3 M1.9 -29.05 L14.05 -51.3 Q9.95 -54.85 8.5 -47.25 L1.9 -29.05" fill="#ffab1f" fill-rule="evenodd" stroke="none"/>
    <path d="M-10.05 -35.2 L-5.25 -36.3 -0.45 -37.35 -14.7 -50.15 Q-18.5 -56.95 -10.0 -52.0 L-0.25 -39.6 -0.45 -37.35 -0.75 -32.85 Q-0.9 -29.55 1.9 -29.05 L8.5 -47.25 Q9.95 -54.85 14.05 -51.3 L1.9 -29.05 5.0 -29.2 7.5 -31.45 Q11.75 -28.05 8.0 -23.55 L-2.6 -24.9 Q-11.95 -29.45 -10.05 -35.2" fill="#db9114" fill-rule="evenodd" stroke="none"/>
    <path d="M-44.4 -82.7 Q-51.35 -77.9 -44.2 -67.95 -33.35 -47.6 -10.05 -35.2 L-5.25 -36.3 Q-23.35 -53.55 -36.2 -70.75 -40.55 -76.75 -44.4 -82.7 -28.4 -70.1 -17.7 -68.45 L-12.25 -60.2 0.05 -41.5 Q3.1 -61.9 16.9 -78.4 L22.7 -84.65 Q30.65 -75.85 42.2 -71.4 46.8 -69.1 37.15 -57.6 L7.5 -31.45 Q11.75 -28.05 8.0 -23.55 L-2.6 -24.9 Q-11.95 -29.45 -10.05 -35.2 M36.0 -66.5 L42.2 -71.4 M0.05 -41.5 L-0.25 -39.6 -0.45 -37.35 -0.75 -32.85 Q-0.9 -29.55 1.9 -29.05 L5.0 -29.2 7.4 -33.4 Q18.3 -51.75 36.0 -66.5 M7.5 -31.45 L5.0 -29.2 M-0.45 -37.35 L-5.25 -36.3" fill="none" stroke="#000000" stroke-linecap="round" stroke-linejoin="round" stroke-opacity="0.4392157" stroke-width="0.05"/>
  </g>
</svg>
