<?xml version="1.0" encoding="UTF-8" standalone="no"?>
<svg xmlns:xlink="http://www.w3.org/1999/xlink" height="362.9px" width="421.15px" xmlns="http://www.w3.org/2000/svg">
  <g transform="matrix(1.0, 0.0, 0.0, 1.0, 209.55, 180.45)">
    <path d="M-199.2 -32.25 L-195.2 -42.2 -165.05 -24.5 -160.3 -9.45 -199.2 -32.25 M140.95 -24.2 L128.15 -30.8 154.65 -42.5 169.9 -36.95 140.95 -24.2" fill="#ffffff" fill-rule="evenodd" stroke="none"/>
    <path d="M-195.2 -42.2 Q-191.35 -45.95 -152.15 -59.05 -26.2 -45.05 58.35 0.05 L10.25 21.3 -17.45 33.5 -34.3 40.95 Q-46.8 46.1 -55.7 39.65 L-127.0 -2.15 -127.25 -2.3 -165.05 -24.5 -195.2 -42.2 M-102.4 -75.05 L-46.35 -91.95 Q122.7 -98.6 195.65 -60.6 L166.9 -47.9 154.65 -42.5 128.15 -30.8 105.3 -20.7 Q-27.0 -40.4 -102.4 -75.05" fill="#f2f0bd" fill-rule="evenodd" stroke="none"/>
    <path d="M-152.15 -59.05 L-102.4 -75.05 Q-27.0 -40.4 105.3 -20.7 L58.35 0.05 Q-26.2 -45.05 -152.15 -59.05 M-46.35 -91.95 Q61.25 -122.95 64.75 -118.2 132.4 -98.65 203.75 -64.2 L195.65 -60.6 Q122.7 -98.6 -46.35 -91.95 M-56.7 179.95 L-168.2 99.75 -199.2 -32.25 -160.3 -9.45 -129.75 8.45 -54.05 52.8 -54.4 69.8 -55.15 105.75 -56.7 179.95" fill="#d8d6a1" fill-rule="evenodd" stroke="none"/>
    <path d="M209.1 -54.15 L197.75 -16.75 Q97.4 -8.0 -34.85 81.9 L-40.5 85.75 -40.1 78.6 -38.8 54.65 -12.05 42.9 -11.35 42.6 19.25 29.2 140.95 -24.2 169.9 -36.95 176.45 -39.8 209.1 -54.15" fill="#746e41" fill-rule="evenodd" stroke="none"/>
    <path d="M197.75 -16.75 L170.75 71.8 -45.75 179.95 -42.6 122.85 -42.55 122.6 -42.5 121.95 -40.5 85.75 -34.85 81.9 Q97.4 -8.0 197.75 -16.75" fill="#676338" fill-rule="evenodd" stroke="none"/>
    <path d="M203.75 -64.2 L209.1 -54.15 176.45 -39.8 166.9 -47.9 195.65 -60.6 203.75 -64.2 M128.15 -30.8 L140.95 -24.2 19.25 29.2 10.25 21.3 58.35 0.05 105.3 -20.7 128.15 -30.8 M-11.35 42.6 L-12.05 42.9 -38.8 54.65 -40.1 78.6 -54.4 69.8 -54.05 52.8 -129.75 8.45 -127.0 -2.15 -55.7 39.65 Q-46.8 46.1 -34.3 40.95 L-17.45 33.5 -11.35 42.6 M-45.0 57.4 L-45.75 57.7 -45.0 57.4" fill="#f6f4d3" fill-rule="evenodd" stroke="none"/>
    <path d="M169.9 -36.95 L154.65 -42.5 166.9 -47.9 176.45 -39.8 169.9 -36.95 M10.25 21.3 L19.25 29.2 -11.35 42.6 -17.45 33.5 10.25 21.3 M-40.1 78.6 L-40.5 85.75 -42.5 121.95 -42.55 122.6 -55.15 105.75 -54.4 69.8 -40.1 78.6" fill="#d7d5a1" fill-rule="evenodd" stroke="none"/>
    <path d="M-45.75 179.95 L-56.7 179.95 -55.15 105.75 -42.55 122.6 -42.6 122.85 -45.75 179.95 M-160.3 -9.45 L-165.05 -24.5 -127.25 -2.3 -127.0 -2.15 -129.75 8.45 -160.3 -9.45" fill="#bab9a3" fill-rule="evenodd" stroke="none"/>
    <path d="M-199.2 -32.25 L-195.2 -42.2 Q-191.35 -45.95 -152.15 -59.05 L-102.4 -75.05 -46.35 -91.95 Q61.25 -122.95 64.75 -118.2 132.4 -98.65 203.75 -64.2 L209.1 -54.15 197.75 -16.75 170.75 71.8 -45.75 179.95 -56.7 179.95 -168.2 99.75 -199.2 -32.25 -160.3 -9.45 -129.75 8.45 -54.05 52.8 -54.4 69.8 -55.15 105.75 -56.7 179.95 M-165.05 -24.5 L-195.2 -42.2 M-127.25 -2.3 L-165.05 -24.5 M140.95 -24.2 L169.9 -36.95 176.45 -39.8 209.1 -54.15 M154.65 -42.5 L128.15 -30.8 105.3 -20.7 58.35 0.05 10.25 21.3 -17.45 33.5 -34.3 40.95 Q-46.8 46.1 -55.7 39.65 M19.25 29.2 L140.95 -24.2 M166.9 -47.9 L154.65 -42.5 M203.75 -64.2 L195.65 -60.6 166.9 -47.9 M-12.05 42.9 L-38.8 54.65 -40.1 78.6 -40.5 85.75 -42.5 121.95 M-11.35 42.6 L19.25 29.2 M-45.75 57.7 L-45.0 57.4 M-42.6 122.85 L-45.75 179.95" fill="none" stroke="#3d0000" stroke-linecap="round" stroke-linejoin="round" stroke-opacity="0.23137255" stroke-width="1.0"/>
    <path d="M-199.2 -32.25 L-168.2 99.75 -56.7 179.95 -45.75 179.95 170.75 71.8 209.1 -54.15 203.75 -64.2 Q132.4 -98.65 64.75 -118.2 61.25 -122.95 -46.35 -91.95 L-102.4 -75.05 -152.15 -59.05 Q-191.35 -45.95 -195.2 -42.2 L-199.2 -32.25 Z" fill="none" stroke="#f1f0bf" stroke-linecap="round" stroke-linejoin="round" stroke-opacity="0.21176471" stroke-width="5.0"/>
    <path d="M203.75 -64.2 L-34.3 40.95 Q-46.8 46.1 -55.7 39.65 L-195.2 -42.2 M-45.75 179.95 L-38.8 54.65 209.1 -54.15 M-199.2 -32.25 L-54.05 52.8 -56.7 179.95" fill="none" stroke="#ffffff" stroke-linecap="round" stroke-linejoin="round" stroke-opacity="0.21176471" stroke-width="5.0"/>
    <path d="M92.4 -100.8 Q98.15 -103.35 104.25 -105.65 134.2 -103.1 146.15 -89.75 123.5 -87.55 98.5 -80.6 82.15 -81.2 92.4 -100.8 M117.0 -44.95 L141.4 -36.65 148.45 -27.6 Q133.55 -25.6 115.55 -14.05 L111.55 -23.4 95.0 -33.1 Q99.3 -40.15 117.0 -44.95 M-90.8 0.5 L-107.5 9.3 -110.1 19.95 Q-142.5 11.95 -148.45 -2.45 L-141.05 -10.45 -130.9 -14.65 Q-89.3 -19.7 -90.8 0.5 M-46.35 -91.95 Q-31.5 -104.2 -6.6 -103.15 L8.65 -93.85 Q9.6 -86.55 -17.05 -84.75 L-46.35 -91.95" fill="#d07179" fill-rule="evenodd" stroke="none"/>
    <path d="M98.5 -80.6 L82.85 -75.85 Q66.45 -78.55 69.25 -88.95 80.05 -95.4 92.4 -100.8 82.15 -81.2 98.5 -80.6 M60.1 -67.65 Q77.25 -60.0 96.15 -52.7 96.7 -46.1 76.9 -43.7 L68.65 -42.95 Q56.0 -49.9 42.45 -56.4 L25.0 -64.55 Q8.65 -71.8 -8.85 -78.55 L1.15 -77.95 Q27.6 -76.9 25.75 -84.35 36.2 -78.85 47.5 -73.5 L60.1 -67.65 M-11.9 -35.85 Q-52.8 -19.1 -90.8 0.5 -89.3 -19.7 -130.9 -14.65 -102.85 -26.2 -74.45 -36.0 4.8 -51.95 -11.9 -35.85" fill="#ea5694" fill-rule="evenodd" stroke="none"/>
    <path d="M82.85 -75.85 L68.45 -70.85 52.8 -77.75 Q60.5 -83.7 69.25 -88.95 66.45 -78.55 82.85 -75.85 M96.15 -52.7 L117.0 -44.95 Q99.3 -40.15 95.0 -33.1 L111.55 -23.4 115.55 -14.05 Q133.55 -25.6 148.45 -27.6 L145.55 -13.8 Q132.4 -16.5 112.75 0.85 L87.85 108.3 Q115.0 102.8 128.05 69.15 L122.35 95.95 Q101.85 115.2 80.2 117.05 L110.95 -11.05 105.3 -20.7 93.65 -28.25 Q81.6 -35.8 68.65 -42.95 L76.9 -43.7 Q96.7 -46.1 96.15 -52.7 M28.1 -51.3 Q7.75 -43.9 -11.9 -35.85 4.8 -51.95 -74.45 -36.0 -37.4 -48.75 0.25 -58.45 34.0 -58.85 28.1 -51.3 M-110.1 19.95 L-103.55 146.25 Q-126.9 138.85 -139.3 120.5 L-140.7 101.7 Q-125.7 136.75 -108.0 136.25 L-115.05 26.65 Q-130.15 15.9 -147.4 11.8 L-148.45 -2.45 Q-142.5 11.95 -110.1 19.95 M-8.85 -78.55 L-24.4 -84.35 -46.35 -91.95 -17.05 -84.75 Q9.6 -86.55 8.65 -93.85 L25.75 -84.35 Q27.6 -76.9 1.15 -77.95 L-8.85 -78.55" fill="#e11e81" fill-rule="evenodd" stroke="none"/>
    <path d="M68.45 -70.85 L60.1 -67.65 47.5 -73.5 52.8 -77.75 68.45 -70.85 M145.55 -13.8 L128.05 69.15 Q115.0 102.8 87.85 108.3 L112.75 0.85 Q132.4 -16.5 145.55 -13.8 M42.45 -56.4 L28.1 -51.3 Q34.0 -58.85 0.25 -58.45 L25.0 -64.55 42.45 -56.4 M-140.7 101.7 L-147.4 11.8 Q-130.15 15.9 -115.05 26.65 L-108.0 136.25 Q-125.7 136.75 -140.7 101.7" fill="#600d36" fill-rule="evenodd" stroke="none"/>
    <path d="M54.35 -59.75 L48.6 -59.5 Q45.35 -60.05 43.25 -61.55 41.1 -63.1 41.4 -64.7 41.65 -66.35 44.15 -67.1 L49.85 -67.35 Q53.1 -66.85 55.25 -65.3 57.35 -63.8 57.1 -62.15 56.8 -60.55 54.35 -59.75 M-58.3 -55.35 L-50.6 -55.6 -46.4 -51.15 -32.05 -36.05 -23.75 -27.3 3.2 0.9 132.4 4.6 20.85 12.85 9.85 12.85 -58.3 -55.35" fill="#242400" fill-rule="evenodd" stroke="none"/>
    <path d="M132.4 4.6 L8.85 22.5 -65.95 -55.1 -58.3 -55.35 9.85 12.85 20.85 12.85 132.4 4.6" fill="#767601" fill-rule="evenodd" stroke="none"/>
    <path d="M86.05 -41.05 L99.9 -27.35 -32.05 -36.05 -46.4 -51.15 86.05 -41.05 M108.85 -18.55 L132.4 4.6 3.2 0.9 -23.75 -27.3 108.85 -18.55" fill="#b4d62d" fill-rule="evenodd" stroke="none"/>
    <path d="M99.9 -27.35 L108.85 -18.55 -23.75 -27.3 -32.05 -36.05 99.9 -27.35" fill="#fefefe" fill-rule="evenodd" stroke="none"/>
    <path d="M54.35 -59.75 Q56.8 -60.55 57.1 -62.15 57.35 -63.8 55.25 -65.3 53.1 -66.85 49.85 -67.35 L44.15 -67.1 Q41.65 -66.35 41.4 -64.7 41.1 -63.1 43.25 -61.55 45.35 -60.05 48.6 -59.5 L54.35 -59.75 M-50.6 -55.6 L-74.45 -80.6 54.15 -72.5 86.05 -41.05 -46.4 -51.15 -50.6 -55.6" fill="#e34a64" fill-rule="evenodd" stroke="none"/>
    <path d="M54.35 -59.75 L48.6 -59.5 Q45.35 -60.05 43.25 -61.55 41.1 -63.1 41.4 -64.7 41.65 -66.35 44.15 -67.1 L49.85 -67.35 Q53.1 -66.85 55.25 -65.3 57.35 -63.8 57.1 -62.15 56.8 -60.55 54.35 -59.75 M86.05 -41.05 L99.9 -27.35 108.85 -18.55 132.4 4.6 8.85 22.5 -65.95 -55.1 -58.3 -55.35 -50.6 -55.6 -74.45 -80.6 54.15 -72.5 86.05 -41.05 -46.4 -51.15 -32.05 -36.05 99.9 -27.35 M-46.4 -51.15 L-50.6 -55.6 M-23.75 -27.3 L-32.05 -36.05 M132.4 4.6 L3.2 0.9 -23.75 -27.3 108.85 -18.55" fill="none" stroke="#000000" stroke-linecap="round" stroke-linejoin="round" stroke-opacity="0.4117647" stroke-width="1.0"/>
    <path d="M-81.7 -178.3 L-53.4 -179.95 Q-6.85 -168.25 22.5 -140.95 3.3 -150.85 -15.05 -155.65 -29.55 -159.4 -43.55 -160.0 -81.6 -166.7 -81.7 -178.3 M70.85 -112.95 Q84.25 -126.75 101.65 -135.7 121.15 -132.35 119.2 -124.05 100.95 -115.0 85.1 -101.1 L76.4 -93.0 Q64.0 -95.45 70.85 -112.95 M93.05 -65.1 Q104.5 -58.6 112.65 -52.15 84.1 -62.45 81.8 -52.65 76.9 -58.4 70.15 -64.25 L93.05 -65.1 M88.0 -5.5 Q65.65 -17.55 57.7 -73.95 L57.75 -73.95 Q69.65 -27.45 91.85 -12.55 90.4 -9.0 88.0 -5.5 M-17.85 -46.9 Q-65.85 -33.95 -133.55 -31.15 L-209.05 -68.65 Q-151.55 -67.5 -96.45 -71.15 -25.3 -62.55 -17.85 -46.9" fill="#ea5694" fill-rule="evenodd" stroke="none"/>
    <path d="M34.15 -128.65 Q47.05 -113.2 55.6 -93.8 62.4 -104.35 70.85 -112.95 64.0 -95.45 76.4 -93.0 L71.65 -87.95 69.4 -85.45 Q71.95 -82.5 74.75 -78.2 74.9 -76.2 74.1 -74.85 84.5 -70.0 93.05 -65.1 L70.15 -64.25 Q64.55 -69.05 57.75 -73.95 L57.75 -74.0 57.7 -74.0 Q54.15 -75.0 49.85 -76.6 44.3 -72.75 38.15 -69.2 30.75 -79.0 -0.65 -81.25 L35.75 -87.3 39.95 -84.1 Q62.45 -82.3 59.0 -92.65 L55.6 -93.8 49.4 -94.9 43.35 -94.85 Q34.95 -117.8 10.35 -138.0 18.9 -143.0 34.15 -128.65 M101.65 -135.7 Q108.2 -139.1 115.4 -141.8 119.9 -134.35 138.0 -131.8 128.3 -128.55 119.2 -124.05 121.15 -132.35 101.65 -135.7 M166.5 -104.0 Q142.25 -84.1 93.75 -86.05 89.65 -92.2 115.0 -97.6 138.3 -96.2 155.15 -100.35 161.25 -101.85 166.5 -104.0 M132.8 -24.25 Q133.8 -17.1 130.45 -10.15 113.45 2.4 88.0 -5.5 90.4 -9.0 91.85 -12.55 95.15 -20.5 94.0 -28.75 113.4 -13.7 132.8 -24.25 M16.8 -58.65 Q1.0 -52.0 -17.85 -46.9 -25.3 -62.55 -96.45 -71.15 -60.95 -73.5 -26.4 -77.75 -25.75 -65.0 16.8 -58.65 M-43.55 -160.0 Q-56.65 -160.65 -69.35 -158.35 L-109.95 -176.7 -81.7 -178.3 Q-81.6 -166.7 -43.55 -160.0" fill="#e11e81" fill-rule="evenodd" stroke="none"/>
    <path d="M22.5 -140.95 Q28.7 -135.2 34.15 -128.65 18.9 -143.0 10.35 -138.0 -0.75 -147.15 -15.05 -155.65 3.3 -150.85 22.5 -140.95 M170.15 -139.3 Q184.9 -130.85 186.75 -118.8 179.1 -109.35 166.5 -104.0 161.25 -101.85 155.15 -100.35 182.05 -120.4 143.15 -133.5 156.1 -137.45 170.15 -139.3 M93.75 -86.05 L71.65 -87.95 76.4 -93.0 85.1 -101.1 Q101.15 -98.45 115.0 -97.6 89.65 -92.2 93.75 -86.05 M57.75 -73.95 Q64.55 -69.05 70.15 -64.25 76.9 -58.4 81.8 -52.65 92.3 -40.35 94.0 -28.75 95.15 -20.5 91.85 -12.55 69.65 -27.45 57.75 -73.95" fill="#600d36" fill-rule="evenodd" stroke="none"/>
    <path d="M115.4 -141.8 Q128.4 -146.75 143.3 -149.3 159.9 -145.2 170.15 -139.3 156.1 -137.45 143.15 -133.5 L138.0 -131.8 Q119.9 -134.35 115.4 -141.8 M112.65 -52.15 Q130.8 -38.0 132.8 -24.25 113.4 -13.7 94.0 -28.75 92.3 -40.35 81.8 -52.65 84.1 -62.45 112.65 -52.15 M38.15 -69.2 Q28.25 -63.5 16.8 -58.65 -25.75 -65.0 -26.4 -77.75 L-0.65 -81.25 Q30.75 -79.0 38.15 -69.2 M35.75 -87.3 Q26.55 -94.3 43.35 -94.85 L49.4 -94.9 55.6 -93.8 59.0 -92.65 Q62.45 -82.3 39.95 -84.1 L35.75 -87.3" fill="#d07179" fill-rule="evenodd" stroke="none"/>
    <path d="M-43.55 -160.0 Q-56.65 -160.65 -69.35 -158.35 L-109.95 -176.7 -53.4 -179.95 Q-6.85 -168.25 22.5 -140.95 L23.35 -140.15 Q29.05 -134.75 34.15 -128.65 47.05 -113.2 55.6 -93.8 62.4 -104.35 70.85 -112.95 84.25 -126.75 101.65 -135.7 108.2 -139.1 115.4 -141.8 128.4 -146.75 143.3 -149.3 159.35 -145.35 169.45 -139.7 L170.15 -139.3 Q184.9 -130.85 186.75 -118.8 179.1 -109.35 166.5 -104.0 142.25 -84.1 93.75 -86.05 L71.65 -87.95 69.4 -85.45 Q71.95 -82.5 74.75 -78.2 74.9 -76.2 74.1 -74.85 84.5 -70.0 93.05 -65.1 104.5 -58.6 112.65 -52.15 130.8 -38.0 132.8 -24.25 133.8 -17.1 130.45 -10.15 113.45 2.4 88.0 -5.5 65.65 -17.55 57.7 -73.95 L57.75 -73.95 57.75 -74.0 57.7 -74.0 50.7 -76.3 49.85 -76.6 Q44.3 -72.75 38.15 -69.2 28.25 -63.5 16.8 -58.65 1.0 -52.0 -17.85 -46.9 -65.85 -33.95 -133.55 -31.15 L-209.05 -68.65 Q-151.55 -67.5 -96.45 -71.15 -60.95 -73.5 -26.4 -77.75 L-0.65 -81.25 35.75 -87.3 Q26.55 -94.3 43.35 -94.85 34.95 -117.8 10.35 -138.0 -0.75 -147.15 -15.05 -155.65 -29.55 -159.4 -43.55 -160.0 M166.5 -104.0 L155.15 -100.35 Q138.3 -96.2 115.0 -97.6 101.15 -98.45 85.1 -101.1 L71.65 -87.95 M85.1 -101.1 Q100.95 -115.0 119.2 -124.05 128.3 -128.55 138.0 -131.8 L143.15 -133.5 169.45 -139.7 M69.4 -85.45 L59.1 -93.2 55.6 -93.8 43.35 -94.85 M35.75 -87.3 L40.1 -83.45 50.7 -76.3 M88.4 -6.45 L92.15 -13.2 Q94.7 -19.1 94.65 -28.45 90.3 -52.25 57.75 -73.95 M57.75 -74.0 L74.1 -74.85 M143.15 -133.5 Q182.05 -120.4 155.15 -100.35 M-15.05 -155.65 Q4.15 -149.6 23.35 -140.15" fill="none" stroke="#000000" stroke-linecap="round" stroke-linejoin="round" stroke-opacity="0.4117647" stroke-width="1.0"/>
  </g>
</svg>
