<?xml version="1.0" encoding="UTF-8" standalone="no"?>
<svg xmlns:xlink="http://www.w3.org/1999/xlink" height="135.8px" width="65.7px" xmlns="http://www.w3.org/2000/svg">
  <g transform="matrix(1.0, 0.0, 0.0, 1.0, 28.05, 69.0)">
    <path d="M3.45 -69.0 Q7.8 -64.3 9.3 -58.65 L9.6 -58.0 12.45 -30.15 12.5 -29.35 Q14.1 -12.25 16.5 0.95 L16.55 1.6 Q20.05 30.05 32.55 45.3 L37.25 48.95 37.05 48.95 30.3 48.95 30.3 48.75 Q14.7 36.15 11.3 19.05 9.9 36.95 17.8 50.8 L17.6 51.0 16.9 52.2 16.8 54.05 16.85 54.85 Q16.25 58.75 12.85 59.75 L7.2 60.55 6.8 60.55 Q-4.05 42.45 -6.8 -1.45 -14.9 33.5 -9.55 62.2 L-10.35 62.8 -12.9 64.0 Q-23.95 53.05 -26.0 39.0 L-25.85 34.35 Q-26.0 25.4 -24.95 5.05 -24.05 -14.1 -24.25 -24.65 -24.6 -41.15 -28.05 -54.35 -8.35 -58.85 3.45 -69.0" fill="#000000" fill-rule="evenodd" stroke="none"/>
    <path d="M-12.9 64.0 L-10.1 66.45 -9.9 66.65 Q-19.45 67.5 -24.55 63.2 L-26.0 39.0 Q-23.95 53.05 -12.9 64.0" fill="#a7a7a7" fill-rule="evenodd" stroke="none"/>
    <path d="M37.25 48.95 L37.45 48.95 37.65 49.15 37.05 48.95 37.25 48.95 M30.3 48.95 L27.65 48.95 30.3 48.75 30.3 48.95 M18.0 50.8 L17.6 51.0 17.8 50.8 18.0 50.8" fill="#555ba0" fill-rule="evenodd" stroke="none"/>
    <path d="M27.65 48.95 L18.2 50.8 18.0 50.8 17.8 50.8 Q9.9 36.95 11.3 19.05 14.7 36.15 30.3 48.75 L27.65 48.95 M6.8 60.55 L0.9 60.55 Q-6.05 60.35 -9.55 62.2 -14.9 33.5 -6.8 -1.45 -4.05 42.45 6.8 60.55" fill="#2d2d2d" fill-rule="evenodd" stroke="none"/>
    <path d="M3.45 -69.0 Q7.8 -64.3 9.3 -58.65 L9.6 -58.0 12.45 -30.15 12.5 -29.35 Q14.1 -12.25 16.5 0.95 L16.55 1.6 Q20.05 30.05 32.55 45.3 L37.25 48.95 37.45 48.95 37.65 49.15 37.05 48.95 30.3 48.95 27.65 48.95 18.2 50.8 18.0 50.8 M17.6 51.0 L16.9 52.2 16.8 54.05 16.85 54.85 Q16.25 58.75 12.85 59.75 L7.2 60.55 6.8 60.55 0.9 60.55 Q-6.05 60.35 -9.55 62.2 L-10.35 62.8 -12.9 64.0 -10.1 66.45 -9.9 66.65 Q-19.45 67.5 -24.55 63.2 M-12.9 64.0 Q-23.95 53.05 -26.0 39.0 M17.8 50.8 L17.6 51.0" fill="none" stroke="#0f121c" stroke-linecap="round" stroke-linejoin="round" stroke-width="0.05"/>
    <path d="M-8.05 -56.4 Q-5.15 -56.2 -3.4 -57.0 -3.3 -44.8 0.2 -40.35 -1.05 -38.3 -4.35 -38.5 -4.7 -45.2 -8.05 -56.4 M-5.05 -36.65 L-0.4 -37.1 Q-2.3 -27.7 0.15 -24.05 -1.4 -22.65 -4.45 -22.85 -3.7 -28.15 -5.05 -36.65 M-4.95 -21.0 L-0.9 -21.4 Q-3.35 -11.05 -1.5 -7.2 -2.85 -5.55 -5.45 -5.75 -4.4 -11.45 -4.95 -21.0 M1.4 7.05 Q0.65 8.5 -1.55 8.3 -2.3 3.6 -5.35 -4.15 L-2.1 -4.35 Q-1.2 4.0 1.4 7.05" fill="#f7eef0" fill-rule="evenodd" stroke="none"/>
    <path d="M-4.35 -38.5 L-6.6 -39.1 Q-6.05 -46.25 -10.3 -56.8 L-8.05 -56.4 Q-4.7 -45.2 -4.35 -38.5 M-4.45 -22.85 L-6.7 -23.25 Q-4.8 -28.75 -7.3 -37.1 L-5.05 -36.65 Q-3.7 -28.15 -4.45 -22.85 M-5.45 -5.75 L-7.1 -6.15 Q-5.25 -12.25 -6.55 -21.4 L-4.95 -21.0 Q-4.4 -11.45 -5.45 -5.75 M-1.55 8.3 L-3.25 7.85 Q-3.35 3.0 -7.0 -4.35 L-5.35 -4.15 Q-2.3 3.6 -1.55 8.3" fill="#938a8c" fill-rule="evenodd" stroke="none"/>
    <path d="M-3.4 -57.0 Q-2.0 -57.6 -1.3 -58.85 -2.3 -48.9 0.7 -42.55 L0.2 -40.35 Q-3.3 -44.8 -3.4 -57.0 M-0.4 -37.1 Q1.15 -37.7 2.15 -38.7 -0.6 -30.75 1.25 -25.9 0.95 -24.9 0.15 -24.05 -2.3 -27.7 -0.4 -37.1 M-0.9 -21.4 Q0.3 -22.05 1.2 -23.25 -1.7 -14.5 -0.6 -9.2 -0.95 -8.0 -1.5 -7.2 -3.35 -11.05 -0.9 -21.4 M-2.1 -4.35 Q-1.15 -4.95 -0.8 -5.75 -0.8 1.15 1.7 5.45 L1.4 7.05 Q-1.2 4.0 -2.1 -4.35" fill="#ffffff" fill-rule="evenodd" stroke="none"/>
    <path d="M-14.0 38.8 Q-12.05 33.9 -11.2 24.95 -8.5 25.95 -6.6 26.2 -10.8 34.7 -9.1 39.2 -11.1 40.2 -14.0 38.8" fill="#f7eef0" fill-rule="evenodd" stroke="none"/>
    <path d="M-11.2 24.95 Q-12.05 33.9 -14.0 38.8 L-16.15 37.55 Q-12.95 32.9 -13.3 23.95 L-11.2 24.95" fill="#938a8c" fill-rule="evenodd" stroke="none"/>
    <path d="M-9.1 39.2 Q-10.8 34.7 -6.6 26.2 -5.0 26.2 -3.8 25.55 -8.5 32.3 -7.8 37.55 L-9.1 39.2" fill="#ffffff" fill-rule="evenodd" stroke="none"/>
    <path d="M16.25 30.6 Q15.4 32.45 12.7 32.9 11.5 28.2 7.5 20.95 9.85 20.25 11.2 19.4 12.8 28.1 16.25 30.6" fill="#f7eef0" fill-rule="evenodd" stroke="none"/>
    <path d="M12.7 32.9 L10.65 33.15 Q10.4 27.9 5.55 21.3 L7.5 20.95 Q11.5 28.2 12.7 32.9" fill="#938a8c" fill-rule="evenodd" stroke="none"/>
    <path d="M11.2 19.4 Q12.35 18.55 12.8 17.5 13.1 25.05 16.3 28.7 L16.25 30.6 Q12.8 28.1 11.2 19.4" fill="#ffffff" fill-rule="evenodd" stroke="none"/>
    <path d="M-23.55 -39.9 Q-24.4 -41.05 -25.35 -41.35 -19.35 -43.8 -16.85 -48.8 L-15.4 -49.1 Q-16.7 -44.2 -23.55 -39.9" fill="#ffffff" fill-rule="evenodd" stroke="none"/>
    <path d="M-15.4 -49.1 Q-13.8 -48.6 -12.75 -45.4 -16.4 -42.7 -21.5 -35.7 -22.45 -38.5 -23.55 -39.9 -16.7 -44.2 -15.4 -49.1" fill="#f7eef0" fill-rule="evenodd" stroke="none"/>
    <path d="M-12.75 -45.4 L-12.25 -43.05 Q-16.5 -41.15 -20.95 -33.4 L-21.5 -35.7 Q-16.4 -42.7 -12.75 -45.4" fill="#938a8c" fill-rule="evenodd" stroke="none"/>
    <path d="M9.45 -54.2 Q9.7 -55.55 10.1 -56.3 6.4 -54.8 4.0 -57.35 3.5 -57.15 3.15 -56.8 4.85 -53.65 9.45 -54.2" fill="#ffffff" fill-rule="evenodd" stroke="none"/>
    <path d="M3.15 -56.8 Q2.4 -55.4 2.5 -52.3 5.05 -52.3 9.3 -49.75 9.15 -52.45 9.45 -54.2 4.85 -53.65 3.15 -56.8" fill="#f7eef0" fill-rule="evenodd" stroke="none"/>
    <path d="M2.5 -52.3 L2.8 -50.2 Q5.45 -51.15 9.5 -47.6 L9.3 -49.75 Q5.05 -52.3 2.5 -52.3" fill="#938a8c" fill-rule="evenodd" stroke="none"/>
    <path d="M-2.3 13.55 Q-3.6 12.35 -4.6 12.55 -6.05 12.35 -6.55 13.55 -7.1 15.0 -6.55 16.8 L-6.3 17.85 Q-6.25 18.85 -5.4 19.65 L-3.95 20.5 Q-3.25 21.1 -2.45 21.1 -1.45 21.1 -0.95 19.65 L-0.75 19.45 Q-0.15 18.65 -0.2 17.65 -0.25 16.8 -0.7 16.2 -1.25 14.8 -2.3 13.55 M2.3 12.35 Q1.7 13.15 1.8 14.15 1.5 15.8 2.4 17.0 3.1 18.45 4.3 18.45 5.1 18.45 6.1 17.65 6.25 17.2 6.65 17.0 7.6 15.8 7.9 14.15 8.0 12.35 7.5 10.9 6.6 9.7 5.45 9.9 4.15 9.7 3.25 10.9 L2.3 12.35 M9.1 17.2 Q1.35 27.6 -7.3 22.3 -16.05 19.05 -11.25 10.1 -0.8 10.7 9.15 4.2 12.85 11.95 9.1 17.2" fill="#f7eef0" fill-rule="evenodd" stroke="none"/>
  </g>
</svg>
