<?xml version="1.0" encoding="UTF-8" standalone="no"?>
<svg xmlns:xlink="http://www.w3.org/1999/xlink" height="24.95px" width="37.55px" xmlns="http://www.w3.org/2000/svg">
  <g transform="matrix(1.0, 0.0, 0.0, 1.0, 18.8, 12.45)">
    <path d="M-7.6 -9.95 L-7.65 -9.9 -7.9 -9.95 -7.6 -9.95" fill="#cbbda0" fill-rule="evenodd" stroke="none"/>
    <path d="M4.85 -2.15 L4.6 -2.25 3.95 -3.45 6.2 -2.55 5.5 -3.25 6.6 -2.8 8.95 -1.95 9.5 -1.4 7.15 -1.05 4.85 -2.15" fill="#f24200" fill-rule="evenodd" stroke="none"/>
    <path d="M0.45 -6.5 L1.6 -6.0 4.05 -4.9 9.85 -2.25 11.0 -0.4 11.65 0.7 Q10.3 -0.15 9.6 1.4 L9.55 0.6 9.45 0.5 9.0 0.05 8.6 -0.35 7.15 -1.05 9.5 -1.4 8.95 -1.95 6.6 -2.8 1.05 -5.6 1.9 -4.65 -3.45 -6.15 -7.9 -8.1 -9.65 -8.95 -10.05 -8.85 -9.05 -9.35 -8.35 -10.05 -7.6 -9.95 -7.9 -9.95 -7.65 -9.9 -7.05 -9.85 0.45 -6.5 M-9.05 -9.35 L-7.65 -9.9 -9.05 -9.35" fill="#990000" fill-rule="evenodd" stroke="none"/>
    <path d="M6.6 -2.8 L5.5 -3.25 6.2 -2.55 3.95 -3.45 4.6 -2.25 1.6 -3.7 -0.85 -4.9 -1.95 -5.4 -3.45 -6.15 1.9 -4.65 1.05 -5.6 6.6 -2.8 M11.65 0.7 L11.85 1.05 11.55 7.15 9.65 8.45 9.75 7.85 9.6 1.4 Q10.3 -0.15 11.65 0.7" fill="#720101" fill-rule="evenodd" stroke="none"/>
    <path d="M-6.8 2.15 L-5.6 2.3 0.5 4.75 1.25 5.45 1.4 6.65 1.5 11.25 -0.85 12.45 -6.75 9.2 -6.85 8.65 -7.0 8.05 -6.8 2.15 M-10.3 7.75 L-11.5 7.75 -16.9 5.35 -18.5 3.75 -18.8 -2.25 -18.55 -2.65 -13.2 -0.85 -10.4 0.65 -10.1 6.75 -10.3 7.75" fill="#688222" fill-rule="evenodd" stroke="none"/>
    <path d="M7.15 -8.25 L6.3 -8.15 1.6 -6.0 0.45 -6.5 4.4 -8.35 Q5.45 -9.1 4.15 -10.6 L6.4 -9.65 7.15 -8.25 M15.75 -4.9 L16.6 -4.5 18.25 -2.85 18.3 -2.85 18.55 3.35 17.75 4.5 3.2 12.5 -0.75 12.5 -0.85 12.45 1.5 11.25 1.4 6.65 1.25 5.45 0.5 4.75 -5.6 2.3 -6.8 2.15 -6.8 0.8 -6.25 0.25 -5.3 1.45 1.2 3.05 9.45 0.5 9.55 0.6 9.6 1.4 9.75 7.85 9.65 8.45 11.55 7.15 11.85 1.05 11.65 0.7 11.0 -0.4 14.9 -2.8 15.75 -4.9 M-1.95 -5.4 L-0.85 -4.9 -7.1 -2.05 -9.1 1.25 -8.8 7.35 -8.2 7.75 -10.3 7.75 -10.1 6.75 -10.4 0.65 -13.2 -0.85 -18.55 -2.65 -17.35 -4.8 -15.6 -2.85 -10.0 -1.75 -1.95 -5.4" fill="#495b17" fill-rule="evenodd" stroke="none"/>
    <path d="M4.15 -10.6 Q5.45 -9.1 4.4 -8.35 L0.45 -6.5 -7.05 -9.85 -7.65 -9.9 -7.6 -9.95 -1.6 -12.45 1.8 -11.65 3.95 -10.7 4.15 -10.6 M4.05 -4.9 L8.9 -7.25 9.35 -7.15 11.25 -6.9 15.75 -4.9 14.9 -2.8 11.0 -0.4 9.85 -2.25 4.05 -4.9 M4.6 -2.25 L4.85 -2.15 7.15 -1.05 8.6 -0.35 9.0 0.05 9.45 0.5 1.2 3.05 -5.3 1.45 -6.25 0.25 -5.85 -0.15 1.6 -3.7 4.6 -2.25 M-3.45 -6.15 L-1.95 -5.4 -10.0 -1.75 -15.6 -2.85 -17.35 -4.8 -17.1 -5.25 -15.6 -6.65 -9.05 -9.35 -10.05 -8.85 -9.65 -8.95 -7.9 -8.1 -3.45 -6.15" fill="#a7ac33" fill-rule="evenodd" stroke="none"/>
    <path d="M7.15 -8.25 L6.4 -9.65 4.15 -10.6 M0.45 -6.5 L1.6 -6.0 4.05 -4.9 9.85 -2.25 11.0 -0.4 11.65 0.7 11.85 1.05 11.55 7.15 9.65 8.45 9.75 7.85 9.6 1.4 9.55 0.6 9.45 0.5 9.0 0.05 8.6 -0.35 7.15 -1.05 4.85 -2.15 M9.35 -7.15 L11.25 -6.9 15.75 -4.9 16.6 -4.5 18.25 -2.85 M18.3 -2.85 L18.55 3.35 17.75 4.5 18.75 3.95 M3.95 -10.7 L1.8 -11.65 -1.6 -12.45 -7.6 -9.95 -7.65 -9.9 -7.05 -9.85 0.45 -6.5 M4.6 -2.25 L1.6 -3.7 -0.85 -4.9 -1.95 -5.4 -3.45 -6.15 M-0.85 12.45 L-0.75 12.5 3.2 12.5 17.75 4.5 M-18.55 -2.65 L-18.8 -2.25 -18.5 3.75 -16.9 5.35 -11.5 7.75 -10.3 7.75 -8.2 7.75 M-18.55 -2.65 L-17.35 -4.8 -17.1 -5.25 -15.6 -6.65 -9.05 -9.35 -8.35 -10.05 -7.6 -9.95 -7.9 -9.95 -7.65 -9.9 -9.05 -9.35 -10.05 -8.85 -9.65 -8.95 -7.9 -8.1 M-0.85 12.45 L-6.75 9.2 -6.85 8.65" fill="none" stroke="#000000" stroke-linecap="round" stroke-linejoin="round" stroke-opacity="0.5019608" stroke-width="0.05"/>
    <path d="M-8.85 0.9 L-7.1 -2.05 6.3 -8.15 7.15 -8.25 7.3 -8.25 8.1 -8.35 9.35 -7.15 8.9 -7.25 7.2 -6.4 6.25 -5.95 0.85 -4.45 1.7 -5.4 -3.85 -2.6 -6.15 -1.75 -6.7 -1.2 -4.35 -0.85 -5.85 -0.15 -6.2 0.25 -6.25 0.25 -6.8 0.8 -6.8 1.6 Q-7.55 0.05 -8.85 0.9" fill="#990000" fill-rule="evenodd" stroke="none"/>
    <path d="M6.25 -5.95 L-1.85 -2.05 -1.15 -3.25 -3.45 -2.35 -2.7 -3.05 -3.85 -2.6 1.7 -5.4 0.85 -4.45 6.25 -5.95 M-6.8 1.6 L-7.0 8.05 -6.85 8.65 -8.8 7.35 -9.1 1.25 -8.85 0.9 Q-7.55 0.05 -6.8 1.6" fill="#720101" fill-rule="evenodd" stroke="none"/>
    <path d="M-1.85 -2.05 L-2.05 -1.95 -4.35 -0.85 -6.7 -1.2 -6.15 -1.75 -3.85 -2.6 -2.7 -3.05 -3.45 -2.35 -1.15 -3.25 -1.85 -2.05" fill="#f24200" fill-rule="evenodd" stroke="none"/>
    <path d="M-8.85 0.9 L-7.1 -2.05 6.3 -8.15 7.15 -8.25 7.3 -8.25 8.1 -8.35 9.35 -7.15 8.9 -7.25 7.2 -6.4 M6.25 -5.95 L-1.85 -2.05 M-2.05 -1.95 L-4.35 -0.85 -5.85 -0.15 -6.2 0.25 M-6.25 0.25 L-6.8 0.8 -6.8 1.6 -7.0 8.05 -6.85 8.65 -8.8 7.35 -9.1 1.25 -8.85 0.9" fill="none" stroke="#000000" stroke-linecap="round" stroke-linejoin="round" stroke-opacity="0.5019608" stroke-width="0.05"/>
  </g>
</svg>
