<?xml version="1.0" encoding="UTF-8" standalone="no"?>
<svg xmlns:xlink="http://www.w3.org/1999/xlink" height="31.5px" width="51.3px" xmlns="http://www.w3.org/2000/svg">
  <g transform="matrix(1.0, 0.0, 0.0, 1.0, -254.8, -387.2)">
    <path d="M260.35 400.2 Q262.35 399.85 264.6 400.95 L264.6 397.9 263.0 399.35 261.1 398.7 260.5 399.3 260.7 398.5 Q263.1 397.75 265.35 397.5 L265.35 410.0 Q262.95 409.3 260.35 408.15 L260.65 407.5 264.25 408.75 264.25 406.9 261.1 406.3 261.3 405.75 261.9 404.2 262.4 403.1 262.65 402.3 Q262.65 401.9 261.5 401.45 260.4 401.0 260.35 400.2 M279.05 389.2 Q284.95 388.75 291.15 394.7 L291.15 412.6 Q282.75 418.45 274.3 415.35 L274.25 414.55 281.6 414.4 Q286.05 414.25 280.35 413.15 274.75 411.95 281.5 412.3 288.1 412.6 275.6 409.65 L275.15 409.5 275.4 408.8 275.6 408.45 278.2 409.0 279.85 409.1 281.7 408.95 Q283.6 408.8 285.55 407.9 L287.7 406.55 Q289.3 405.4 290.15 403.9 L290.3 403.65 Q290.95 402.25 290.95 400.6 290.95 398.8 290.2 397.4 289.35 395.85 287.7 394.6 286.85 393.85 285.8 393.4 284.3 392.65 282.0 392.25 L279.85 392.1 278.15 392.25 277.75 392.3 278.3 391.25 278.65 390.6 278.65 390.7 278.85 391.15 Q279.05 391.35 279.35 391.35 L279.85 391.15 280.05 390.7 279.85 390.15 279.35 389.95 278.85 390.15 278.85 390.2 279.05 389.2 M282.1 390.3 L281.6 390.1 Q281.3 390.1 281.1 390.3 L280.85 390.85 281.1 391.3 Q281.3 391.5 281.6 391.5 L282.1 391.3 282.35 390.85 282.1 390.3 M289.6 412.25 L289.6 411.9 289.0 411.9 289.0 412.4 289.15 412.7 289.7 412.85 290.25 412.7 290.55 412.1 Q290.55 410.95 289.25 410.95 288.35 410.95 287.75 411.65 L286.75 413.2 Q285.1 415.35 281.25 415.35 275.6 415.3 274.45 414.65 L274.25 414.55 274.45 414.65 Q275.6 415.3 281.25 415.35 285.1 415.35 286.75 413.2 L287.75 411.65 Q288.35 410.95 289.25 410.95 290.55 410.95 290.55 412.1 L290.25 412.7 289.7 412.85 289.15 412.7 289.0 412.4 289.0 411.9 289.6 411.9 289.6 412.25 M289.1 394.3 Q288.85 394.5 288.85 394.8 L288.95 395.15 289.1 395.3 289.6 395.55 290.1 395.3 290.35 394.8 290.1 394.3 289.95 394.15 289.6 394.05 Q289.3 394.05 289.1 394.3 M287.1 393.3 L287.35 393.85 287.45 393.95 287.8 394.05 Q288.1 394.05 288.3 393.85 L288.55 393.3 288.35 392.8 288.3 392.8 287.8 392.6 287.35 392.8 287.1 393.3 M283.35 391.8 L283.9 392.05 284.4 391.8 284.6 391.3 Q284.6 391.0 284.4 390.85 284.2 390.6 283.9 390.6 283.6 390.6 283.35 390.85 L283.15 391.3 283.35 391.8 M286.6 392.1 L286.4 391.6 285.85 391.35 Q285.55 391.35 285.35 391.6 L285.15 392.1 285.35 392.6 Q285.55 392.85 285.85 392.85 L286.4 392.6 286.6 392.1 M299.2 398.25 Q301.1 398.7 302.85 399.6 303.45 402.95 302.85 406.7 L298.0 408.65 297.65 408.1 302.2 406.6 302.2 405.3 296.85 406.9 Q296.3 405.9 296.3 404.8 296.3 402.65 296.45 402.1 L297.35 400.5 297.65 400.15 300.9 400.45 Q301.95 400.55 302.45 401.2 L302.45 399.9 300.9 399.9 299.4 398.65 299.1 398.75 299.35 398.5 299.2 398.25 M280.2 406.55 L280.05 406.6 Q279.4 406.6 278.85 405.3 L278.75 405.05 Q278.2 403.5 278.2 401.3 278.2 399.05 278.75 397.55 L279.05 396.95 Q279.45 396.05 279.95 396.0 281.2 401.4 280.2 406.55 M289.4 406.6 Q286.1 410.35 279.4 409.95 286.1 410.35 289.4 406.6" fill="#b88e3a" fill-rule="evenodd" stroke="none"/>
    <path d="M263.95 399.15 Q263.8 399.15 263.7 399.25 L263.6 399.55 263.7 399.8 263.95 399.9 264.2 399.8 264.3 399.55 264.2 399.25 263.95 399.15 M260.5 399.3 L261.1 398.7 263.0 399.35 264.6 397.9 264.6 400.95 Q262.35 399.85 260.35 400.2 259.25 400.4 258.25 401.0 L258.25 400.35 258.25 399.75 259.6 400.05 260.5 399.3 M258.25 400.35 L258.35 400.55 258.6 400.65 258.85 400.55 258.95 400.35 258.85 400.1 258.6 400.05 258.35 400.1 258.25 400.35 M261.35 399.7 L261.5 399.45 261.35 399.2 261.1 399.1 260.8 399.2 260.75 399.45 260.8 399.7 261.1 399.85 261.35 399.7 M259.1 406.9 L258.95 406.55 Q258.95 406.3 259.1 406.2 L259.5 406.05 Q259.7 406.05 259.85 406.2 L260.05 406.55 259.85 406.9 259.5 407.05 259.1 406.9 M261.3 406.55 L261.45 406.9 261.3 407.3 260.9 407.45 260.65 407.4 260.55 407.3 260.4 406.9 260.55 406.55 260.9 406.35 261.05 406.4 261.3 406.55 M262.65 406.85 L262.8 407.2 262.65 407.6 262.25 407.75 261.9 407.6 261.75 407.2 Q261.75 407.0 261.9 406.85 262.05 406.7 262.25 406.7 262.5 406.7 262.65 406.85 M263.9 407.2 L264.1 407.55 263.9 407.95 263.55 408.1 Q263.3 408.1 263.15 407.95 263.0 407.8 263.0 407.55 L263.15 407.2 263.55 407.0 263.9 407.2 M278.4 393.5 L279.85 393.4 281.65 393.5 Q285.65 398.5 281.4 407.75 L279.85 407.9 278.45 407.8 278.0 406.25 Q276.2 399.5 278.0 394.45 L278.4 393.5 M299.55 399.5 L299.45 399.3 299.25 399.2 299.05 399.3 299.0 399.5 299.05 399.7 299.25 399.75 299.45 399.7 299.55 399.5 M299.1 398.75 L299.4 398.65 300.9 399.9 302.45 399.9 302.45 401.2 Q301.95 400.55 300.9 400.45 L297.65 400.15 Q296.2 400.3 295.2 400.95 L295.2 398.2 297.2 399.3 299.1 398.75 M301.7 400.35 L301.75 400.45 301.9 400.55 302.0 400.45 302.05 400.35 302.0 400.2 301.9 400.15 301.75 400.2 301.7 400.35 M298.35 407.3 L298.2 407.65 297.8 407.8 297.45 407.65 297.25 407.3 297.45 406.9 Q297.6 406.75 297.8 406.75 L298.2 406.9 298.35 407.3 M299.7 407.3 L299.35 407.1 299.15 406.75 299.35 406.35 Q299.5 406.2 299.7 406.2 L300.1 406.35 300.25 406.75 300.1 407.1 299.7 407.3 M301.3 405.7 L301.65 405.9 301.85 406.2 301.65 406.6 301.3 406.75 300.9 406.6 300.75 406.2 300.9 405.9 301.3 405.7 M295.75 399.65 L296.0 399.75 296.2 399.65 296.3 399.45 296.2 399.2 296.0 399.15 295.75 399.2 295.7 399.45 295.75 399.65 M296.15 407.3 Q296.35 407.3 296.5 407.45 L296.65 407.8 296.5 408.2 296.15 408.35 295.75 408.2 295.6 407.8 Q295.6 407.6 295.75 407.45 L296.15 407.3 M279.95 396.0 Q279.45 396.05 279.05 396.95 L278.75 397.55 Q278.2 399.05 278.2 401.3 278.2 403.5 278.75 405.05 L278.85 405.3 Q279.4 406.6 280.05 406.6 L280.2 406.55 Q280.9 406.45 281.4 405.05 281.95 403.5 281.95 401.3 281.95 399.05 281.4 397.55 280.85 396.0 280.05 396.0 L279.95 396.0" fill="#c59541" fill-rule="evenodd" stroke="none"/>
    <path d="M261.1 406.3 L264.25 406.9 264.25 408.75 260.65 407.5 258.5 406.75 258.5 405.8 261.1 406.3 M260.35 408.15 Q262.95 409.3 265.35 410.0 L265.35 397.5 Q263.1 397.75 260.7 398.5 L260.75 398.2 261.15 397.0 Q264.05 395.9 266.25 396.05 L266.25 411.9 260.05 408.85 260.2 408.45 260.35 408.15 M259.1 406.9 L259.5 407.05 259.85 406.9 260.05 406.55 259.85 406.2 Q259.7 406.05 259.5 406.05 L259.1 406.2 Q258.95 406.3 258.95 406.55 L259.1 406.9 M263.9 407.2 L263.55 407.0 263.15 407.2 263.0 407.55 Q263.0 407.8 263.15 407.95 263.3 408.1 263.55 408.1 L263.9 407.95 264.1 407.55 263.9 407.2 M262.65 406.85 Q262.5 406.7 262.25 406.7 262.05 406.7 261.9 406.85 261.75 407.0 261.75 407.2 L261.9 407.6 262.25 407.75 262.65 407.6 262.8 407.2 262.65 406.85 M261.3 406.55 L261.05 406.4 260.9 406.35 260.55 406.55 260.4 406.9 260.55 407.3 260.65 407.4 260.9 407.45 261.3 407.3 261.45 406.9 261.3 406.55 M269.85 394.55 L270.05 394.05 270.55 393.85 271.1 394.05 271.3 394.55 271.1 395.1 270.55 395.3 270.05 395.1 269.85 394.55 M271.75 393.15 L271.95 392.65 272.45 392.45 272.95 392.65 273.15 393.15 272.95 393.65 272.45 393.9 Q272.15 393.9 271.95 393.65 L271.75 393.15 M277.5 390.55 L277.75 391.0 277.5 391.55 Q277.3 391.75 277.0 391.75 L276.5 391.55 276.25 391.0 276.5 390.55 277.0 390.35 277.5 390.55 M274.05 391.35 Q274.25 391.1 274.55 391.1 274.85 391.1 275.1 391.35 L275.3 391.85 275.1 392.35 274.55 392.6 Q274.25 392.6 274.05 392.35 L273.85 391.85 274.05 391.35 M269.0 399.0 Q269.6 396.5 272.05 394.6 272.7 394.1 273.45 393.7 L273.95 393.45 274.65 393.1 Q275.85 392.6 277.75 392.3 L278.15 392.25 279.85 392.1 282.0 392.25 Q284.3 392.65 285.8 393.4 286.85 393.85 287.7 394.6 289.35 395.85 290.2 397.4 290.95 398.8 290.95 400.6 290.95 402.25 290.3 403.65 L290.15 403.9 Q289.3 405.4 287.7 406.55 L285.55 407.9 Q283.6 408.8 281.7 408.95 L279.85 409.1 278.2 409.0 275.6 408.45 274.45 408.0 273.7 407.65 273.2 407.35 272.05 406.55 270.05 404.5 269.7 403.9 Q269.2 403.05 269.0 402.15 L269.0 399.0 M274.8 394.5 L274.35 394.75 273.2 395.5 Q270.4 397.65 270.4 400.65 270.4 402.15 271.15 403.5 271.85 404.75 273.2 405.8 L274.15 406.4 274.6 406.65 275.2 406.95 276.45 407.4 278.45 407.8 276.45 407.4 275.2 406.95 274.6 406.65 Q271.15 400.0 274.8 394.5 L275.4 394.25 Q276.25 393.85 277.65 393.6 L278.4 393.5 277.65 393.6 Q276.25 393.85 275.4 394.25 L274.8 394.5 M281.65 393.5 L279.85 393.4 278.4 393.5 278.0 394.45 Q276.2 399.5 278.0 406.25 L278.45 407.8 279.85 407.9 281.4 407.75 Q283.05 407.65 284.7 406.9 L286.6 405.8 Q287.9 404.75 288.65 403.5 289.35 402.15 289.35 400.65 289.35 397.65 286.6 395.5 285.8 394.9 284.9 394.45 L281.65 393.5 M299.2 398.25 Q298.95 397.85 298.15 397.45 297.2 397.0 296.35 396.2 300.55 396.75 304.25 398.95 L304.25 407.35 298.7 409.6 298.0 408.65 302.85 406.7 Q303.45 402.95 302.85 399.6 301.1 398.7 299.2 398.25 M296.85 406.9 L302.2 405.3 302.2 406.6 297.65 408.1 295.2 408.9 295.2 407.4 296.85 406.9 M301.3 405.7 L300.9 405.9 300.75 406.2 300.9 406.6 301.3 406.75 301.65 406.6 301.85 406.2 301.65 405.9 301.3 405.7 M299.7 407.3 L300.1 407.1 300.25 406.75 300.1 406.35 299.7 406.2 Q299.5 406.2 299.35 406.35 L299.15 406.75 299.35 407.1 299.7 407.3 M298.35 407.3 L298.2 406.9 297.8 406.75 Q297.6 406.75 297.45 406.9 L297.25 407.3 297.45 407.65 297.8 407.8 298.2 407.65 298.35 407.3 M296.15 407.3 L295.75 407.45 Q295.6 407.6 295.6 407.8 L295.75 408.2 296.15 408.35 296.5 408.2 296.65 407.8 296.5 407.45 Q296.35 407.3 296.15 407.3" fill="#cca033" fill-rule="evenodd" stroke="none"/>
    <path d="M275.2 417.7 Q274.5 416.85 274.3 415.35 282.75 418.45 291.15 412.6 L291.15 394.7 Q284.95 388.75 279.05 389.2 L277.9 389.35 277.9 389.2 Q277.9 388.65 278.55 387.85 L278.85 387.45 Q286.0 386.85 293.25 393.1 300.35 393.8 305.9 397.65 L305.9 407.6 285.75 417.15 Q280.2 419.55 275.35 417.75 L275.2 417.7 M269.0 402.15 L268.85 400.6 Q268.85 399.75 269.0 399.0 L269.0 402.15 M293.25 393.1 L291.15 394.7 293.25 393.1 M298.7 409.6 L304.25 407.35 304.25 398.95 Q300.55 396.75 296.35 396.2 L293.0 396.05 293.0 411.9 298.7 409.6" fill="#000000" fill-rule="evenodd" stroke="none"/>
    <path d="M274.6 406.65 L274.15 406.4 273.2 405.8 Q271.85 404.75 271.15 403.5 270.4 402.15 270.4 400.65 270.4 397.65 273.2 395.5 L274.35 394.75 274.8 394.5 Q271.15 400.0 274.6 406.65" fill="#fff29b" fill-rule="evenodd" stroke="none"/>
    <path d="M284.9 394.45 Q285.8 394.9 286.6 395.5 289.35 397.65 289.35 400.65 289.35 402.15 288.65 403.5 287.9 404.75 286.6 405.8 L284.7 406.9 Q289.5 400.0 284.9 394.45" fill="#7f540f" fill-rule="evenodd" stroke="none"/>
    <path d="M263.95 399.15 L264.2 399.25 264.3 399.55 264.2 399.8 263.95 399.9 263.7 399.8 263.6 399.55 263.7 399.25 Q263.8 399.15 263.95 399.15 M258.25 400.35 L258.35 400.1 258.6 400.05 258.85 400.1 258.95 400.35 258.85 400.55 258.6 400.65 258.35 400.55 258.25 400.35 M261.35 399.7 L261.1 399.85 260.8 399.7 260.75 399.45 260.8 399.2 261.1 399.1 261.35 399.2 261.5 399.45 261.35 399.7 M281.65 393.5 L284.9 394.45 Q289.5 400.0 284.7 406.9 283.05 407.65 281.4 407.75 285.65 398.5 281.65 393.5 M299.55 399.5 L299.45 399.7 299.25 399.75 299.05 399.7 299.0 399.5 299.05 399.3 299.25 399.2 299.45 399.3 299.55 399.5 M301.7 400.35 L301.75 400.2 301.9 400.15 302.0 400.2 302.05 400.35 302.0 400.45 301.9 400.55 301.75 400.45 301.7 400.35 M295.75 399.65 L295.7 399.45 295.75 399.2 296.0 399.15 296.2 399.2 296.3 399.45 296.2 399.65 296.0 399.75 295.75 399.65" fill="#7d5821" fill-rule="evenodd" stroke="none"/>
    <path d="M278.65 390.6 L278.8 390.25 278.85 390.2 278.85 390.15 279.35 389.95 279.85 390.15 280.05 390.7 279.85 391.15 279.35 391.35 Q279.05 391.35 278.85 391.15 L278.65 390.7 278.65 390.6 M282.1 390.3 L282.35 390.85 282.1 391.3 281.6 391.5 Q281.3 391.5 281.1 391.3 L280.85 390.85 281.1 390.3 Q281.3 390.1 281.6 390.1 L282.1 390.3 M286.6 392.1 L286.4 392.6 285.85 392.85 Q285.55 392.85 285.35 392.6 L285.15 392.1 285.35 391.6 Q285.55 391.35 285.85 391.35 L286.4 391.6 286.6 392.1 M283.35 391.8 L283.15 391.3 283.35 390.85 Q283.6 390.6 283.9 390.6 284.2 390.6 284.4 390.85 284.6 391.0 284.6 391.3 L284.4 391.8 283.9 392.05 283.35 391.8 M287.1 393.3 L287.35 392.8 287.8 392.6 288.3 392.8 288.35 392.8 288.55 393.3 288.3 393.85 Q288.1 394.05 287.8 394.05 L287.45 393.95 287.35 393.85 287.1 393.3 M289.1 394.3 Q289.3 394.05 289.6 394.05 L289.95 394.15 290.1 394.3 290.35 394.8 290.1 395.3 289.6 395.55 289.1 395.3 288.95 395.15 288.85 394.8 Q288.85 394.5 289.1 394.3 M279.95 396.0 L280.05 396.0 Q280.85 396.0 281.4 397.55 281.95 399.05 281.95 401.3 281.95 403.5 281.4 405.05 280.9 406.45 280.2 406.55 281.2 401.4 279.95 396.0" fill="#a87935" fill-rule="evenodd" stroke="none"/>
    <path d="M260.05 408.85 L266.25 411.9 266.25 396.05 Q264.05 395.9 261.15 397.0 259.2 397.7 257.0 398.95 L257.0 407.35 260.05 408.85 M275.2 417.7 L274.45 417.35 255.0 408.05 255.0 398.35 Q260.65 394.1 266.25 393.8 L269.0 394.7 266.25 393.8 Q272.55 388.0 278.85 387.45 L278.55 387.85 Q277.9 388.65 277.9 389.2 L277.9 389.35 Q273.35 390.15 269.0 394.7 L269.0 399.0 Q268.85 399.75 268.85 400.6 L269.0 402.15 269.0 412.6 Q271.7 414.4 274.3 415.35 274.5 416.85 275.2 417.7" fill="#3a3a3a" fill-rule="evenodd" stroke="none"/>
    <path d="M261.15 397.0 L260.75 398.2 260.7 398.5 Q259.15 398.95 257.55 399.65 L257.55 406.8 Q258.95 407.55 260.35 408.15 L260.2 408.45 260.05 408.85 257.0 407.35 257.0 398.95 Q259.2 397.7 261.15 397.0 M296.35 396.2 Q297.2 397.0 298.15 397.45 298.95 397.85 299.2 398.25 L294.05 397.4 294.05 409.85 298.0 408.65 298.7 409.6 293.0 411.9 293.0 396.05 296.35 396.2" fill="#c29841" fill-rule="evenodd" stroke="none"/>
    <path d="M260.35 400.2 Q260.4 401.0 261.5 401.45 262.65 401.9 262.65 402.3 L262.4 403.1 261.9 404.2 261.3 405.75 261.1 406.3 258.5 405.8 258.5 406.75 260.65 407.5 260.35 408.15 Q258.95 407.55 257.55 406.8 L257.55 399.65 Q259.15 398.95 260.7 398.5 L260.5 399.3 259.6 400.05 258.25 399.75 258.25 400.35 258.25 401.0 Q259.25 400.4 260.35 400.2 M274.3 415.35 Q271.7 414.4 269.0 412.6 L269.0 402.15 Q269.2 403.05 269.7 403.9 L270.05 404.5 272.05 406.55 273.2 407.35 273.7 407.65 274.45 408.0 275.6 408.45 275.4 408.8 275.15 409.5 275.6 409.65 Q288.1 412.6 281.5 412.3 274.75 411.95 280.35 413.15 286.05 414.25 281.6 414.4 L274.25 414.55 Q273.2 413.9 272.25 412.35 271.35 410.8 270.8 410.8 L269.95 410.95 Q269.6 411.15 269.6 411.6 L270.0 412.35 270.9 412.85 271.05 412.9 271.35 412.8 271.35 412.4 271.35 412.1 271.2 411.9 270.4 411.9 271.2 411.9 271.35 412.1 271.35 412.4 271.35 412.8 271.05 412.9 270.9 412.85 270.0 412.35 269.6 411.6 Q269.6 411.15 269.95 410.95 L270.8 410.8 Q271.35 410.8 272.25 412.35 273.2 413.9 274.25 414.55 L274.3 415.35 M269.0 399.0 L269.0 394.7 Q273.35 390.15 277.9 389.35 L279.05 389.2 278.85 390.2 278.8 390.25 278.65 390.6 278.3 391.25 277.75 392.3 Q275.85 392.6 274.65 393.1 L273.95 393.45 273.45 393.7 Q272.7 394.1 272.05 394.6 269.6 396.5 269.0 399.0 M277.5 390.55 L277.0 390.35 276.5 390.55 276.25 391.0 276.5 391.55 277.0 391.75 Q277.3 391.75 277.5 391.55 L277.75 391.0 277.5 390.55 M271.75 393.15 L271.95 393.65 Q272.15 393.9 272.45 393.9 L272.95 393.65 273.15 393.15 272.95 392.65 272.45 392.45 271.95 392.65 271.75 393.15 M269.85 394.55 L270.05 395.1 270.55 395.3 271.1 395.1 271.3 394.55 271.1 394.05 270.55 393.85 270.05 394.05 269.85 394.55 M274.05 391.35 L273.85 391.85 274.05 392.35 Q274.25 392.6 274.55 392.6 L275.1 392.35 275.3 391.85 275.1 391.35 Q274.85 391.1 274.55 391.1 274.25 391.1 274.05 391.35 M299.2 398.25 L299.35 398.5 299.1 398.75 297.2 399.3 295.2 398.2 295.2 400.95 Q296.2 400.3 297.65 400.15 L297.35 400.5 296.45 402.1 Q296.3 402.65 296.3 404.8 296.3 405.9 296.85 406.9 L295.2 407.4 295.2 408.9 297.65 408.1 298.0 408.65 294.05 409.85 294.05 397.4 299.2 398.25 M275.15 409.5 Q271.8 408.15 270.5 406.35 271.8 408.15 275.15 409.5" fill="#c79f4e" fill-rule="evenodd" stroke="none"/>
    <path d="M263.95 399.15 L264.2 399.25 264.3 399.55 264.2 399.8 263.95 399.9 263.7 399.8 263.6 399.55 263.7 399.25 Q263.8 399.15 263.95 399.15 M260.5 399.3 L261.1 398.7 263.0 399.35 264.6 397.9 264.6 400.95 Q262.35 399.85 260.35 400.2 259.25 400.4 258.25 401.0 L258.25 400.35 258.35 400.1 258.6 400.05 258.85 400.1 258.95 400.35 258.85 400.55 258.6 400.65 258.35 400.55 258.25 400.35 258.25 399.75 259.6 400.05 260.5 399.3 M261.1 406.3 L264.25 406.9 264.25 408.75 260.65 407.5 258.5 406.75 258.5 405.8 261.1 406.3 M260.35 408.15 Q262.95 409.3 265.35 410.0 L265.35 397.5 Q263.1 397.75 260.7 398.5 259.15 398.95 257.55 399.65 L257.55 406.8 Q258.95 407.55 260.35 408.15 M261.35 399.7 L261.1 399.85 260.8 399.7 260.75 399.45 260.8 399.2 261.1 399.1 261.35 399.2 261.5 399.45 261.35 399.7 M259.1 406.9 L258.95 406.55 Q258.95 406.3 259.1 406.2 L259.5 406.05 Q259.7 406.05 259.85 406.2 L260.05 406.55 259.85 406.9 259.5 407.05 259.1 406.9 M261.3 406.55 L261.45 406.9 261.3 407.3 260.9 407.45 260.65 407.4 260.55 407.3 260.4 406.9 260.55 406.55 260.9 406.35 261.05 406.4 261.3 406.55 M262.65 406.85 L262.8 407.2 262.65 407.6 262.25 407.75 261.9 407.6 261.75 407.2 Q261.75 407.0 261.9 406.85 262.05 406.7 262.25 406.7 262.5 406.7 262.65 406.85 M263.9 407.2 L264.1 407.55 263.9 407.95 263.55 408.1 Q263.3 408.1 263.15 407.95 263.0 407.8 263.0 407.55 L263.15 407.2 263.55 407.0 263.9 407.2 M269.85 394.55 L270.05 394.05 270.55 393.85 271.1 394.05 271.3 394.55 271.1 395.1 270.55 395.3 270.05 395.1 269.85 394.55 M271.75 393.15 L271.95 392.65 272.45 392.45 272.95 392.65 273.15 393.15 272.95 393.65 272.45 393.9 Q272.15 393.9 271.95 393.65 L271.75 393.15 M277.5 390.55 L277.75 391.0 277.5 391.55 Q277.3 391.75 277.0 391.75 L276.5 391.55 276.25 391.0 276.5 390.55 277.0 390.35 277.5 390.55 M274.05 391.35 Q274.25 391.1 274.55 391.1 274.85 391.1 275.1 391.35 L275.3 391.85 275.1 392.35 274.55 392.6 Q274.25 392.6 274.05 392.35 L273.85 391.85 274.05 391.35 M278.8 390.25 L278.85 390.2 278.85 390.15 279.35 389.95 279.85 390.15 280.05 390.7 279.85 391.15 279.35 391.35 Q279.05 391.35 278.85 391.15 L278.65 390.7 278.65 390.6 M282.1 390.3 L282.35 390.85 282.1 391.3 281.6 391.5 Q281.3 391.5 281.1 391.3 L280.85 390.85 281.1 390.3 Q281.3 390.1 281.6 390.1 L282.1 390.3 M275.15 409.5 L275.6 409.65 M274.25 414.55 L274.45 414.65 Q275.6 415.3 281.25 415.35 285.1 415.35 286.75 413.2 L287.75 411.65 Q288.35 410.95 289.25 410.95 290.55 410.95 290.55 412.1 L290.25 412.7 289.7 412.85 289.15 412.7 289.0 412.4 289.0 411.9 289.6 411.9 289.6 412.25 M286.6 392.1 L286.4 392.6 285.85 392.85 Q285.55 392.85 285.35 392.6 L285.15 392.1 285.35 391.6 Q285.55 391.35 285.85 391.35 L286.4 391.6 286.6 392.1 M283.35 391.8 L283.15 391.3 283.35 390.85 Q283.6 390.6 283.9 390.6 284.2 390.6 284.4 390.85 284.6 391.0 284.6 391.3 L284.4 391.8 283.9 392.05 283.35 391.8 M287.1 393.3 L287.35 392.8 287.8 392.6 288.3 392.8 288.35 392.8 288.55 393.3 288.3 393.85 Q288.1 394.05 287.8 394.05 L287.45 393.95 287.35 393.85 287.1 393.3 M289.1 394.3 Q289.3 394.05 289.6 394.05 L289.95 394.15 290.1 394.3 290.35 394.8 290.1 395.3 289.6 395.55 289.1 395.3 288.95 395.15 288.85 394.8 Q288.85 394.5 289.1 394.3 M299.2 398.25 Q301.1 398.7 302.85 399.6 303.45 402.95 302.85 406.7 L298.0 408.65 294.05 409.85 294.05 397.4 299.2 398.25 M299.55 399.5 L299.45 399.7 299.25 399.75 299.05 399.7 299.0 399.5 299.05 399.3 299.25 399.2 299.45 399.3 299.55 399.5 M299.1 398.75 L299.4 398.65 300.9 399.9 302.45 399.9 302.45 401.2 Q301.95 400.55 300.9 400.45 L297.65 400.15 Q296.2 400.3 295.2 400.95 L295.2 398.2 297.2 399.3 299.1 398.75 M296.85 406.9 L302.2 405.3 302.2 406.6 297.65 408.1 295.2 408.9 295.2 407.4 296.85 406.9 M301.7 400.35 L301.75 400.2 301.9 400.15 302.0 400.2 302.05 400.35 302.0 400.45 301.9 400.55 301.75 400.45 301.7 400.35 M298.35 407.3 L298.2 407.65 297.8 407.8 297.45 407.65 297.25 407.3 297.45 406.9 Q297.6 406.75 297.8 406.75 L298.2 406.9 298.35 407.3 M299.7 407.3 L299.35 407.1 299.15 406.75 299.35 406.35 Q299.5 406.2 299.7 406.2 L300.1 406.35 300.25 406.75 300.1 407.1 299.7 407.3 M301.3 405.7 L301.65 405.9 301.85 406.2 301.65 406.6 301.3 406.75 300.9 406.6 300.75 406.2 300.9 405.9 301.3 405.7 M295.75 399.65 L295.7 399.45 295.75 399.2 296.0 399.15 296.2 399.2 296.3 399.45 296.2 399.65 296.0 399.75 295.75 399.65 M296.15 407.3 Q296.35 407.3 296.5 407.45 L296.65 407.8 296.5 408.2 296.15 408.35 295.75 408.2 295.6 407.8 Q295.6 407.6 295.75 407.45 L296.15 407.3 M280.2 406.55 L280.05 406.6 Q279.4 406.6 278.85 405.3 L278.75 405.05 Q278.2 403.5 278.2 401.3 278.2 399.05 278.75 397.55 L279.05 396.95 Q279.45 396.05 279.95 396.0 L280.05 396.0 Q280.85 396.0 281.4 397.55 281.95 399.05 281.95 401.3 281.95 403.5 281.4 405.05 280.9 406.45 280.2 406.55 M270.4 411.9 L271.2 411.9 271.35 412.1 271.35 412.4 271.35 412.8 271.05 412.9 270.9 412.85 270.0 412.35 269.6 411.6 Q269.6 411.15 269.95 410.95 L270.8 410.8 Q271.35 410.8 272.25 412.35 273.2 413.9 274.25 414.55 M270.5 406.35 Q271.8 408.15 275.15 409.5 M279.4 409.95 Q286.1 410.35 289.4 406.6" fill="none" stroke="#000000" stroke-linecap="round" stroke-linejoin="round" stroke-opacity="0.34901962" stroke-width="0.25"/>
    <path d="M260.05 408.85 L266.25 411.9 266.25 396.05 Q264.05 395.9 261.15 397.0 259.2 397.7 257.0 398.95 L257.0 407.35 260.05 408.85 M266.25 393.8 Q260.65 394.1 255.0 398.35 L255.0 408.05 274.45 417.35 275.2 417.7 275.35 417.75 Q280.2 419.55 285.75 417.15 L305.9 407.6 305.9 397.65 Q300.35 393.8 293.25 393.1 286.0 386.85 278.85 387.45 272.55 388.0 266.25 393.8 L269.0 394.7 Q273.35 390.15 277.9 389.35 L279.05 389.2 Q284.95 388.75 291.15 394.7 L293.25 393.1 M269.0 402.15 L268.85 400.6 Q268.85 399.75 269.0 399.0 L269.0 394.7 M269.0 399.0 Q269.6 396.5 272.05 394.6 272.7 394.1 273.45 393.7 L273.95 393.45 274.65 393.1 Q275.85 392.6 277.75 392.3 L278.15 392.25 279.85 392.1 282.0 392.25 Q284.3 392.65 285.8 393.4 286.85 393.85 287.7 394.6 289.35 395.85 290.2 397.4 M274.8 394.5 L275.4 394.25 Q276.25 393.85 277.65 393.6 L278.4 393.5 279.85 393.4 281.65 393.5 284.9 394.45 Q289.5 400.0 284.7 406.9 M274.6 406.65 Q271.15 400.0 274.8 394.5 M278.45 407.8 L278.0 406.25 Q276.2 399.5 278.0 394.45 L278.4 393.5 M298.7 409.6 L304.25 407.35 304.25 398.95 Q300.55 396.75 296.35 396.2 L293.0 396.05 293.0 411.9 298.7 409.6 M270.05 404.5 L269.7 403.9 Q269.2 403.05 269.0 402.15 L269.0 399.0 M281.4 407.75 Q285.65 398.5 281.65 393.5" fill="none" stroke="#000000" stroke-linecap="round" stroke-linejoin="round" stroke-opacity="0.21176471" stroke-width="0.45"/>
    <path d="M274.6 406.65 L274.15 406.4 273.2 405.8 Q271.85 404.75 271.15 403.5 270.4 402.15 270.4 400.65 270.4 397.65 273.2 395.5 L274.35 394.75 274.8 394.5 M284.9 394.45 Q285.8 394.9 286.6 395.5 289.35 397.65 289.35 400.65 289.35 402.15 288.65 403.5 287.9 404.75 286.6 405.8 L284.7 406.9 Q283.05 407.65 281.4 407.75 L279.85 407.9 278.45 407.8 276.45 407.4 275.2 406.95 274.6 406.65 M290.2 397.4 Q290.95 398.8 290.95 400.6 290.95 402.25 290.3 403.65 L290.15 403.9 Q289.3 405.4 287.7 406.55 L285.55 407.9 Q283.6 408.8 281.7 408.95 L279.85 409.1 278.2 409.0 275.6 408.45 274.45 408.0 273.7 407.65 273.2 407.35 272.05 406.55 270.05 404.5" fill="none" stroke="#000000" stroke-linecap="round" stroke-linejoin="round" stroke-opacity="0.34901962" stroke-width="0.5"/>
    <path d="M274.3 415.35 Q271.7 414.4 269.0 412.6 L269.0 402.15 M274.3 415.35 Q282.75 418.45 291.15 412.6 L291.15 394.7" fill="none" stroke="#000000" stroke-linecap="round" stroke-linejoin="round" stroke-opacity="0.5686275" stroke-width="1.0"/>
    <path d="M258.2 402.6 Q258.4 401.85 259.15 401.35 L259.55 401.1 259.7 401.0 259.9 400.9 260.9 400.65 261.45 400.65 262.05 400.65 Q262.75 400.75 263.15 401.0 L263.75 401.35 264.25 401.75 264.25 401.8 Q264.7 402.35 264.7 403.05 L264.45 404.0 264.25 404.3 263.75 404.75 263.1 405.15 262.0 405.4 261.45 405.45 260.95 405.45 259.8 405.15 259.6 405.05 259.45 404.95 259.15 404.75 258.4 404.0 258.2 403.5 258.2 402.6 M259.9 401.3 L259.8 401.35 259.45 401.6 Q258.65 402.2 258.65 403.05 L258.85 403.85 259.45 404.5 259.75 404.7 259.85 404.75 260.05 404.85 261.0 405.1 261.4 405.15 261.9 405.1 262.85 404.85 263.4 404.5 264.0 403.85 264.25 403.1 264.25 403.0 Q264.2 402.15 263.4 401.6 L262.9 401.3 261.95 401.05 261.4 401.0 261.0 401.05 260.1 401.2 259.9 401.3" fill="#b88e3a" fill-rule="evenodd" stroke="none"/>
    <path d="M259.85 404.75 L259.75 404.7 259.45 404.5 258.85 403.85 258.65 403.05 Q258.65 402.2 259.45 401.6 L259.8 401.35 259.9 401.3 Q258.85 402.9 259.85 404.75" fill="#fff29b" fill-rule="evenodd" stroke="none"/>
    <path d="M261.0 401.05 L261.4 401.0 261.95 401.05 Q263.15 402.45 261.9 405.1 L261.4 405.15 261.0 405.1 Q260.2 402.7 261.0 401.05" fill="#c59541" fill-rule="evenodd" stroke="none"/>
    <path d="M259.9 401.3 L260.1 401.2 261.0 401.05 Q260.2 402.7 261.0 405.1 L260.05 404.85 259.85 404.75 Q258.85 402.9 259.9 401.3" fill="#cca033" fill-rule="evenodd" stroke="none"/>
    <path d="M262.9 401.3 L263.4 401.6 Q264.2 402.15 264.25 403.0 L264.25 403.1 264.0 403.85 263.4 404.5 262.85 404.85 Q264.25 402.9 262.9 401.3" fill="#7f540f" fill-rule="evenodd" stroke="none"/>
    <path d="M261.95 401.05 L262.9 401.3 Q264.25 402.9 262.85 404.85 L261.9 405.1 Q263.15 402.45 261.95 401.05" fill="#7d5821" fill-rule="evenodd" stroke="none"/>
    <path d="M259.85 404.75 L259.75 404.7 259.45 404.5 258.85 403.85 258.65 403.05 Q258.65 402.2 259.45 401.6 L259.8 401.35 259.9 401.3 260.1 401.2 261.0 401.05 261.4 401.0 261.95 401.05 262.9 401.3 263.4 401.6 Q264.2 402.15 264.25 403.0 L264.25 403.1 264.0 403.85 263.4 404.5 262.85 404.85 261.9 405.1 261.4 405.15 261.0 405.1 260.05 404.85 259.85 404.75 Q258.85 402.9 259.9 401.3 M262.85 404.85 Q264.25 402.9 262.9 401.3 M261.0 405.1 Q260.2 402.7 261.0 401.05 M261.9 405.1 Q263.15 402.45 261.95 401.05" fill="none" stroke="#000000" stroke-linecap="round" stroke-linejoin="round" stroke-opacity="0.21176471" stroke-width="0.45"/>
    <path d="M258.2 402.6 Q258.4 401.85 259.15 401.35 L259.55 401.1 259.7 401.0 259.9 400.9 260.9 400.65 261.45 400.65 262.05 400.65 Q262.75 400.75 263.15 401.0 L263.75 401.35 264.25 401.75" fill="none" stroke="#000000" stroke-linecap="round" stroke-linejoin="round" stroke-opacity="0.34901962" stroke-width="0.5"/>
    <path d="M264.25 401.75 L264.25 401.8 Q264.7 402.35 264.7 403.05 L264.45 404.0 264.25 404.3 263.75 404.75 263.1 405.15 262.0 405.4 261.45 405.45 260.95 405.45 259.8 405.15 259.6 405.05 259.45 404.95 259.15 404.75 258.4 404.0 258.2 403.5 258.2 402.6" fill="none" stroke="#000000" stroke-linecap="round" stroke-linejoin="round" stroke-opacity="0.5686275" stroke-width="0.5"/>
    <path d="M300.35 404.85 L300.95 404.5 301.65 403.85 301.9 403.1 301.9 403.0 Q301.85 402.15 300.95 401.6 L300.4 401.3 299.35 401.05 298.75 401.0 298.25 401.05 297.25 401.2 297.05 401.3 296.9 401.35 296.5 401.6 Q295.55 402.2 295.55 403.05 L295.8 403.85 296.5 404.5 296.8 404.7 296.95 404.75 297.15 404.85 298.25 405.1 298.75 405.15 299.25 405.1 300.35 404.85 M295.1 403.5 L295.1 402.6 Q295.3 401.85 296.15 401.35 L296.6 401.1 296.75 401.0 297.0 400.9 298.15 400.65 298.75 400.65 299.45 400.65 300.7 401.0 301.35 401.35 301.9 401.75 301.9 401.8 Q302.45 402.35 302.45 403.05 L302.15 404.0 301.9 404.3 301.35 404.75 300.65 405.15 299.35 405.4 298.75 405.45 298.15 405.45 296.9 405.15 296.7 405.05 296.5 404.95 296.15 404.75 295.35 404.0 295.1 403.5" fill="#b88e3a" fill-rule="evenodd" stroke="none"/>
    <path d="M296.95 404.75 L296.8 404.7 296.5 404.5 295.8 403.85 295.55 403.05 Q295.55 402.2 296.5 401.6 L296.9 401.35 297.05 401.3 Q295.8 402.9 296.95 404.75" fill="#fff29b" fill-rule="evenodd" stroke="none"/>
    <path d="M299.25 405.1 L298.75 405.15 298.25 405.1 Q297.35 402.7 298.25 401.05 L298.75 401.0 299.35 401.05 Q300.65 402.45 299.25 405.1" fill="#c59541" fill-rule="evenodd" stroke="none"/>
    <path d="M298.25 405.1 L297.15 404.85 296.95 404.75 Q295.8 402.9 297.05 401.3 L297.25 401.2 298.25 401.05 Q297.35 402.7 298.25 405.1" fill="#cca033" fill-rule="evenodd" stroke="none"/>
    <path d="M300.4 401.3 L300.95 401.6 Q301.85 402.15 301.9 403.0 L301.9 403.1 301.65 403.85 300.95 404.5 300.35 404.85 Q301.95 402.9 300.4 401.3" fill="#7f540f" fill-rule="evenodd" stroke="none"/>
    <path d="M300.35 404.85 L299.25 405.1 Q300.65 402.45 299.35 401.05 L300.4 401.3 Q301.95 402.9 300.35 404.85" fill="#7d5821" fill-rule="evenodd" stroke="none"/>
    <path d="M300.4 401.3 L300.95 401.6 Q301.85 402.15 301.9 403.0 L301.9 403.1 301.65 403.85 300.95 404.5 300.35 404.85 299.25 405.1 298.75 405.15 298.25 405.1 297.15 404.85 296.95 404.75 296.8 404.7 296.5 404.5 295.8 403.85 295.55 403.05 Q295.55 402.2 296.5 401.6 L296.9 401.35 297.05 401.3 297.25 401.2 298.25 401.05 298.75 401.0 299.35 401.05 300.4 401.3 Q301.95 402.9 300.35 404.85 M296.95 404.75 Q295.8 402.9 297.05 401.3 M299.25 405.1 Q300.65 402.45 299.35 401.05 M298.25 405.1 Q297.35 402.7 298.25 401.05" fill="none" stroke="#000000" stroke-linecap="round" stroke-linejoin="round" stroke-opacity="0.21176471" stroke-width="0.45"/>
    <path d="M295.1 403.5 L295.1 402.6 Q295.3 401.85 296.15 401.35 L296.6 401.1 296.75 401.0 297.0 400.9 298.15 400.65 298.75 400.65 299.45 400.65 300.7 401.0 301.35 401.35 301.9 401.75 301.9 401.8 Q302.45 402.35 302.45 403.05 L302.15 404.0 301.9 404.3" fill="none" stroke="#000000" stroke-linecap="round" stroke-linejoin="round" stroke-opacity="0.34901962" stroke-width="0.5"/>
    <path d="M301.9 404.3 L301.35 404.75 300.65 405.15 299.35 405.4 298.75 405.45 298.15 405.45 296.9 405.15 296.7 405.05 296.5 404.95 296.15 404.75 295.35 404.0 295.1 403.5" fill="none" stroke="#000000" stroke-linecap="round" stroke-linejoin="round" stroke-opacity="0.5686275" stroke-width="0.5"/>
    <path d="M271.25 411.9 L271.1 412.2 270.8 412.3 270.5 412.2 270.4 411.9 270.5 411.6 Q270.65 411.45 270.8 411.45 271.0 411.45 271.1 411.6 L271.25 411.9" fill="#cca033" fill-rule="evenodd" stroke="none"/>
    <path d="M271.25 411.9 L271.1 412.2 270.8 412.3 270.5 412.2 270.4 411.9 270.5 411.6 Q270.65 411.45 270.8 411.45 271.0 411.45 271.1 411.6 L271.25 411.9 Z" fill="none" stroke="#000000" stroke-linecap="round" stroke-linejoin="round" stroke-opacity="0.34901962" stroke-width="0.25"/>
    <path d="M290.1 412.0 L289.95 412.3 289.65 412.4 289.35 412.3 289.25 412.0 289.35 411.7 289.65 411.55 289.95 411.7 290.1 412.0" fill="#a87935" fill-rule="evenodd" stroke="none"/>
    <path d="M290.1 412.0 L289.95 412.3 289.65 412.4 289.35 412.3 289.25 412.0 289.35 411.7 289.65 411.55 289.95 411.7 290.1 412.0 Z" fill="none" stroke="#000000" stroke-linecap="round" stroke-linejoin="round" stroke-opacity="0.34901962" stroke-width="0.25"/>
    <path d="M279.15 411.65 L278.9 411.85 278.85 411.75 279.15 411.65" fill="#c79f4e" fill-rule="evenodd" stroke="none"/>
    <path d="M278.85 411.75 L278.65 411.55 278.05 411.3 277.4 411.55 Q277.15 411.8 277.15 412.2 L277.4 412.8 278.05 413.05 278.65 412.8 278.8 412.65 279.35 412.9 279.1 413.2 Q278.65 413.65 278.05 413.65 277.45 413.65 277.0 413.2 276.55 412.75 276.55 412.15 276.55 411.55 277.0 411.1 277.45 410.65 278.05 410.65 278.65 410.65 279.1 411.1 L279.4 411.45 279.15 411.65 278.85 411.75 M276.15 410.75 L276.15 413.45 275.45 413.45 275.45 410.75 276.15 410.75 M283.75 413.55 L283.05 413.55 284.0 410.65 284.4 410.65 285.45 413.55 284.75 413.55 284.55 412.95 283.95 412.95 283.75 413.55 M284.1 412.35 L284.35 412.35 284.25 411.85 284.1 412.35 M280.15 410.75 L280.7 411.95 281.05 411.2 281.7 411.2 282.05 412.0 282.65 410.7 283.25 410.7 282.5 413.5 282.05 413.5 281.35 412.2 280.65 413.5 280.15 413.5 279.55 410.75 280.15 410.75" fill="#856129" fill-rule="evenodd" stroke="none"/>
    <path d="M278.85 411.75 L278.65 411.55 278.05 411.3 277.4 411.55 Q277.15 411.8 277.15 412.2 L277.4 412.8 278.05 413.05 278.65 412.8 278.8 412.65 279.35 412.9 279.1 413.2 Q278.65 413.65 278.05 413.65 277.45 413.65 277.0 413.2 276.55 412.75 276.55 412.15 276.55 411.55 277.0 411.1 277.45 410.65 278.05 410.65 278.65 410.65 279.1 411.1 L279.4 411.45 279.15 411.65 278.9 411.85 278.85 411.75 279.15 411.65 M276.15 410.75 L276.15 413.45 275.45 413.45 275.45 410.75 276.15 410.75 M283.75 413.55 L283.95 412.95 284.55 412.95 284.75 413.55 285.45 413.55 284.4 410.65 284.0 410.65 283.05 413.55 283.75 413.55 M284.1 412.35 L284.35 412.35 284.25 411.85 284.1 412.35 M280.15 410.75 L280.7 411.95 281.05 411.2 281.7 411.2 282.05 412.0 282.65 410.7 283.25 410.7 282.5 413.5 282.05 413.5 281.35 412.2 280.65 413.5 280.15 413.5 279.55 410.75 280.15 410.75 Z" fill="none" stroke="#000000" stroke-linecap="round" stroke-linejoin="round" stroke-opacity="0.4" stroke-width="0.05"/>
    <path d="M278.95 411.65 L278.7 411.85 278.65 411.75 278.95 411.65" fill="#c79f4e" fill-rule="evenodd" stroke="none"/>
    <path d="M283.8 410.65 L284.2 410.65 285.25 413.55 284.55 413.55 284.35 412.95 283.75 412.95 283.55 413.55 282.85 413.55 283.8 410.65 M283.9 412.35 L284.15 412.35 284.05 411.85 283.9 412.35 M280.0 410.75 L280.5 411.95 280.85 411.2 281.5 411.2 281.85 412.0 282.45 410.7 283.05 410.7 282.3 413.5 281.85 413.5 281.15 412.2 280.45 413.5 280.0 413.5 279.35 410.75 280.0 410.75 M278.65 411.75 L278.45 411.55 Q278.2 411.3 277.85 411.3 L277.2 411.55 Q276.95 411.8 276.95 412.2 L277.2 412.8 277.85 413.05 278.45 412.8 278.6 412.65 279.15 412.9 278.9 413.2 277.85 413.65 Q277.25 413.65 276.8 413.2 276.35 412.75 276.35 412.15 276.35 411.55 276.8 411.1 277.25 410.65 277.85 410.65 278.45 410.65 278.9 411.1 L279.2 411.45 278.95 411.65 278.65 411.75 M275.95 410.75 L275.95 413.45 275.25 413.45 275.25 410.75 275.95 410.75" fill="#c59541" fill-rule="evenodd" stroke="none"/>
    <path d="M283.8 410.65 L282.85 413.55 283.55 413.55 283.75 412.95 284.35 412.95 284.55 413.55 285.25 413.55 284.2 410.65 283.8 410.65 M283.9 412.35 L284.15 412.35 284.05 411.85 283.9 412.35 M280.0 410.75 L280.5 411.95 280.85 411.2 281.5 411.2 281.85 412.0 282.45 410.7 283.05 410.7 282.3 413.5 281.85 413.5 281.15 412.2 280.45 413.5 280.0 413.5 279.35 410.75 280.0 410.75 M278.65 411.75 L278.45 411.55 Q278.2 411.3 277.85 411.3 L277.2 411.55 Q276.95 411.8 276.95 412.2 L277.2 412.8 277.85 413.05 278.45 412.8 278.6 412.65 279.15 412.9 278.9 413.2 277.85 413.65 Q277.25 413.65 276.8 413.2 276.35 412.75 276.35 412.15 276.35 411.55 276.8 411.1 277.25 410.65 277.85 410.65 278.45 410.65 278.9 411.1 L279.2 411.45 278.95 411.65 278.7 411.85 278.65 411.75 278.95 411.65 M275.95 410.75 L275.95 413.45 275.25 413.45 275.25 410.75 275.95 410.75 Z" fill="none" stroke="#000000" stroke-linecap="round" stroke-linejoin="round" stroke-opacity="0.4" stroke-width="0.05"/>
  </g>
</svg>
