<?xml version="1.0" encoding="UTF-8" standalone="no"?>
<svg xmlns:xlink="http://www.w3.org/1999/xlink" height="146.95px" width="84.65px" xmlns="http://www.w3.org/2000/svg">
  <g transform="matrix(1.0, 0.0, 0.0, 1.0, 42.95, 74.8)">
    <path d="M-31.75 39.2 Q-31.9 36.55 -31.45 34.1 -30.9 24.65 -28.0 3.8 -25.9 -11.5 -25.0 -21.35 L-24.7 -26.25 Q-24.0 -42.45 -26.35 -55.2 -22.85 -55.95 -19.6 -56.85 -13.35 -58.55 -8.05 -60.75 0.3 -64.2 6.8 -69.05 15.15 -55.2 14.45 -38.45 13.7 -23.95 15.0 -8.7 16.25 8.25 24.3 25.1 32.3 41.95 30.65 44.2 L27.45 46.25 Q11.6 33.95 9.35 16.7 7.9 25.7 9.35 33.75 10.25 39.65 12.55 45.35 13.25 47.15 22.55 55.55 15.5 59.95 12.55 61.0 9.5 62.0 2.1 63.55 L-0.05 56.4 Q-2.9 49.7 -5.7 29.8 L-7.0 19.75 Q-8.15 8.0 -8.15 -3.65 -12.1 8.8 -13.35 16.3 -18.15 39.95 -15.8 62.8 L-24.2 59.65 Q-30.9 53.55 -31.75 39.2" fill="#e98103" fill-rule="evenodd" stroke="none"/>
    <path d="M30.65 44.2 Q30.5 50.6 22.55 55.55 13.25 47.15 12.55 45.35 10.25 39.65 9.35 33.75 7.9 25.7 9.35 16.7 11.6 33.95 27.45 46.25 L30.65 44.2 M2.1 63.55 L-15.8 62.8 Q-18.15 39.95 -13.35 16.3 -12.1 8.8 -8.15 -3.65 -8.15 8.0 -7.0 19.75 L-5.7 29.8 Q-2.9 49.7 -0.05 56.4 L2.1 63.55" fill="#b85e03" fill-rule="evenodd" stroke="none"/>
    <path d="M-31.75 39.2 L-31.95 39.2 -31.85 37.65 -31.75 39.2" fill="#555ba0" fill-rule="evenodd" stroke="none"/>
    <path d="M-31.75 39.2 L-31.95 39.2" fill="none" stroke="#7b6b53" stroke-linecap="round" stroke-linejoin="round" stroke-width="0.05"/>
    <path d="M-36.8 -56.15 Q-33.3 -58.4 -29.85 -56.35 -28.4 -55.75 -27.2 -54.3 -25.15 -55.55 -22.45 -54.7 -18.4 -53.9 -15.3 -49.4 -12.45 -45.1 -12.45 -39.4 -12.25 -34.25 -15.1 -31.0 -16.35 -29.55 -17.95 -28.95 L-18.4 -27.7 Q-19.4 -24.85 -21.05 -23.0 -19.8 -20.35 -19.6 -16.45 -19.4 -13.2 -20.0 -9.7 L-19.4 -9.1 Q-16.15 -6.65 -15.7 -1.55 -15.3 3.4 -17.75 8.3 -20.0 12.8 -24.1 14.45 L-25.35 14.85 -26.55 16.9 -28.2 18.95 Q-27.2 19.55 -26.15 20.75 -22.9 24.65 -22.05 30.8 L-21.85 32.45 -20.0 34.25 Q-17.55 37.15 -17.15 41.65 -16.95 45.95 -19.2 49.6 L-20.0 50.85 -19.8 52.25 Q-19.2 56.35 -21.85 60.05 -24.3 63.5 -28.6 64.55 L-29.85 64.75 -28.4 42.65 -33.7 20.55 -26.35 7.45 Q-26.95 0.5 -27.8 -6.25 L-25.15 -29.95 -28.4 -47.15 -36.8 -56.15" fill="#dccdad" fill-rule="evenodd" stroke="none"/>
    <path d="M-29.85 64.75 Q-33.3 65.15 -36.2 63.3 -39.45 61.05 -39.85 57.0 -40.45 52.9 -38.0 49.4 -37.0 47.75 -35.35 46.55 L-37.0 45.1 Q-40.05 41.25 -40.9 35.1 -41.7 28.95 -39.65 24.05 L-38.0 20.95 Q-39.05 20.55 -39.85 19.95 -42.7 17.3 -42.95 13.2 -43.15 9.1 -40.7 5.4 -38.45 2.15 -35.15 1.15 -37.8 -2.15 -38.0 -8.1 -38.45 -14.0 -36.2 -19.55 -35.35 -21.8 -34.15 -23.2 L-35.15 -25.25 Q-36.2 -28.55 -35.15 -32.2 L-37.2 -32.85 Q-40.7 -34.65 -42.1 -39.15 -43.55 -43.9 -42.1 -48.6 -40.7 -53.7 -37.0 -55.95 L-36.8 -56.15 -28.4 -47.15 -25.15 -29.95 -27.8 -6.25 Q-26.95 0.5 -26.35 7.45 L-33.7 20.55 -28.4 42.65 -29.85 64.75 M-33.1 45.3 Q-34.35 45.75 -35.35 46.55 -34.35 45.75 -33.1 45.3 M-31.25 -39.15 Q-33.5 -37.15 -34.75 -33.65 -35.15 -33.05 -35.15 -32.2 -35.15 -33.05 -34.75 -33.65 -33.5 -37.15 -31.25 -39.15" fill="#f3ecc7" fill-rule="evenodd" stroke="none"/>
    <path d="M-36.8 -56.15 Q-33.3 -58.4 -29.85 -56.35 -28.4 -55.75 -27.2 -54.3 -25.15 -55.55 -22.45 -54.7 -18.4 -53.9 -15.3 -49.4 -12.45 -45.1 -12.45 -39.4 -12.25 -34.25 -15.1 -31.0 -16.35 -29.55 -17.95 -28.95 L-18.4 -27.7 Q-19.4 -24.85 -21.05 -23.0 -19.8 -20.35 -19.6 -16.45 -19.4 -13.2 -20.0 -9.7 L-19.4 -9.1 Q-16.15 -6.65 -15.7 -1.55 -15.3 3.4 -17.75 8.3 -20.0 12.8 -24.1 14.45 L-25.35 14.85 -26.55 16.9 -28.2 18.95 Q-27.2 19.55 -26.15 20.75 -22.9 24.65 -22.05 30.8 L-21.85 32.45 -20.0 34.25 Q-17.55 37.15 -17.15 41.65 -16.95 45.95 -19.2 49.6 L-20.0 50.85 -19.8 52.25 Q-19.2 56.35 -21.85 60.05 -24.3 63.5 -28.6 64.55 L-29.85 64.75 Q-33.3 65.15 -36.2 63.3 -39.45 61.05 -39.85 57.0 -40.45 52.9 -38.0 49.4 -37.0 47.75 -35.35 46.55 L-37.0 45.1 Q-40.05 41.25 -40.9 35.1 -41.7 28.95 -39.65 24.05 L-38.0 20.95 Q-39.05 20.55 -39.85 19.95 -42.7 17.3 -42.95 13.2 -43.15 9.1 -40.7 5.4 -38.45 2.15 -35.15 1.15 -37.8 -2.15 -38.0 -8.1 -38.45 -14.0 -36.2 -19.55 -35.35 -21.8 -34.15 -23.2 L-35.15 -25.25 Q-36.2 -28.55 -35.15 -32.2 L-37.2 -32.85 Q-40.7 -34.65 -42.1 -39.15 -43.55 -43.9 -42.1 -48.6 -40.7 -53.7 -37.0 -55.95 M-35.15 -32.2 Q-35.15 -33.05 -34.75 -33.65 -33.5 -37.15 -31.25 -39.15 M-35.35 46.55 Q-34.35 45.75 -33.1 45.3" fill="none" stroke="#745434" stroke-linecap="round" stroke-linejoin="round" stroke-width="0.05"/>
    <path d="M29.55 44.5 L27.7 44.35 Q24.65 43.65 22.4 41.65 L20.6 39.85 Q17.7 36.35 17.8 32.15 17.85 30.45 18.4 29.05 L17.65 28.0 Q14.15 23.25 13.35 17.6 12.65 11.8 15.2 8.45 L14.85 6.85 14.55 6.6 Q11.3 4.9 9.95 0.55 8.7 -4.2 10.25 -9.05 10.65 -10.3 11.2 -11.35 10.3 -15.3 10.75 -19.25 11.4 -23.4 13.3 -25.8 L12.55 -26.8 Q10.3 -26.55 8.05 -27.75 4.85 -29.5 3.35 -33.35 1.95 -37.5 3.2 -41.5 4.3 -45.1 6.95 -46.5 4.65 -50.9 4.7 -55.6 L4.7 -55.7 Q2.15 -56.7 0.7 -59.2 -1.15 -62.35 -0.35 -66.25 0.65 -70.3 3.95 -72.8 L6.35 -74.2 Q10.05 -70.1 13.1 -58.95 L18.35 -40.45 17.7 -28.85 Q20.25 -0.85 23.25 -0.2 L24.25 7.1 22.25 24.15 29.55 44.5" fill="#dccdad" fill-rule="evenodd" stroke="none"/>
    <path d="M6.35 -74.2 Q8.5 -75.1 10.75 -74.65 14.45 -74.15 16.3 -71.0 18.15 -67.9 17.15 -63.8 L17.05 -63.4 Q20.7 -61.55 23.15 -57.35 26.0 -52.55 25.75 -47.2 25.7 -45.3 25.25 -43.7 26.5 -42.55 27.25 -40.5 28.65 -36.75 27.35 -32.2 26.35 -28.55 23.75 -26.2 26.3 -23.9 27.8 -19.85 29.8 -14.35 28.9 -8.45 28.55 -5.55 27.5 -3.5 30.7 -2.5 32.75 0.3 35.25 3.8 34.75 8.15 34.5 11.9 31.75 14.3 33.9 18.15 34.4 22.7 L34.6 26.05 36.35 27.85 Q39.2 31.35 38.85 35.75 38.8 38.15 37.75 40.05 36.9 41.45 35.5 42.55 32.95 44.5 29.75 44.55 L29.55 44.5 22.25 24.15 24.25 7.1 23.25 -0.2 Q20.25 -0.85 17.7 -28.85 L18.35 -40.45 13.1 -58.95 Q10.05 -70.1 6.35 -74.2" fill="#f3ecc7" fill-rule="evenodd" stroke="none"/>
    <path d="M6.35 -74.2 Q8.5 -75.1 10.75 -74.65 14.45 -74.15 16.3 -71.0 18.15 -67.9 17.15 -63.8 L17.05 -63.4 Q20.7 -61.55 23.15 -57.35 26.0 -52.55 25.75 -47.2 25.7 -45.3 25.25 -43.7 26.5 -42.55 27.25 -40.5 28.65 -36.75 27.35 -32.2 26.35 -28.55 23.75 -26.2 26.3 -23.9 27.8 -19.85 29.8 -14.35 28.9 -8.45 28.55 -5.55 27.5 -3.5 30.7 -2.5 32.75 0.3 35.25 3.8 34.75 8.15 34.5 11.9 31.75 14.3 33.9 18.15 34.4 22.7 L34.6 26.05 36.35 27.85 Q39.2 31.35 38.85 35.75 38.8 38.15 37.75 40.05 M22.4 41.65 L20.6 39.85 Q17.7 36.35 17.8 32.15 17.85 30.45 18.4 29.05 L17.65 28.0 Q14.15 23.25 13.35 17.6 12.65 11.8 15.2 8.45 L14.85 6.85 14.55 6.6 Q11.3 4.9 9.95 0.55 8.7 -4.2 10.25 -9.05 10.65 -10.3 11.2 -11.35 10.3 -15.3 10.75 -19.25 11.4 -23.4 13.3 -25.8 L12.55 -26.8 Q10.3 -26.55 8.05 -27.75 4.85 -29.5 3.35 -33.35 1.95 -37.5 3.2 -41.5 4.3 -45.1 6.95 -46.5 4.65 -50.9 4.7 -55.6 L4.7 -55.7 Q2.15 -56.7 0.7 -59.2 -1.15 -62.35 -0.35 -66.25 0.65 -70.3 3.95 -72.8 L6.35 -74.2" fill="none" stroke="#745434" stroke-linecap="round" stroke-linejoin="round" stroke-width="0.05"/>
    <path d="M-20.25 54.4 Q-19.05 54.55 -17.8 55.0 -14.6 55.95 -12.3 57.75 -11.2 56.0 -9.1 54.8 -5.55 52.65 -1.45 53.55 0.25 53.85 1.75 54.5 3.6 50.95 7.75 48.55 12.85 45.5 18.2 46.1 L18.5 46.1 18.8 45.4 Q20.0 42.85 21.9 40.9 23.6 39.05 25.85 37.7 28.2 36.25 30.35 35.55 L27.7 43.6 22.3 50.85 -7.3 60.5 -28.65 55.7 -26.6 54.8 Q-23.55 53.75 -20.25 54.4" fill="#dccdad" fill-rule="evenodd" stroke="none"/>
    <path d="M30.35 35.55 L35.2 35.15 35.8 35.25 Q39.6 35.95 41.0 39.55 42.7 43.1 40.4 48.05 38.0 52.9 33.15 56.05 30.35 57.65 27.7 58.15 26.35 62.55 21.25 65.55 16.1 68.5 10.4 68.1 7.95 67.8 6.15 66.95 5.05 68.7 2.95 69.95 -0.65 72.0 -5.0 71.25 -7.65 70.65 -9.65 69.2 -10.9 70.65 -13.3 71.45 -17.5 72.85 -22.4 71.35 -27.1 69.8 -29.8 66.45 -31.45 64.3 -31.8 62.15 -32.0 60.9 -31.7 59.6 -31.1 57.45 -29.25 56.15 L-28.65 55.7 -7.3 60.5 22.3 50.85 27.7 43.6 30.35 35.55" fill="#f3ecc7" fill-rule="evenodd" stroke="none"/>
    <path d="M-20.25 54.4 Q-19.05 54.55 -17.8 55.0 -14.6 55.95 -12.3 57.75 -11.2 56.0 -9.1 54.8 -5.55 52.65 -1.45 53.55 0.25 53.85 1.75 54.5 3.6 50.95 7.75 48.55 12.85 45.5 18.2 46.1 L18.5 46.1 18.8 45.4 Q20.0 42.85 21.9 40.9 M35.8 35.25 Q39.6 35.95 41.0 39.55 42.7 43.1 40.4 48.05 38.0 52.9 33.15 56.05 30.35 57.65 27.7 58.15 26.35 62.55 21.25 65.55 16.1 68.5 10.4 68.1 7.95 67.8 6.15 66.95 5.05 68.7 2.95 69.95 -0.65 72.0 -5.0 71.25 -7.65 70.65 -9.65 69.2 -10.9 70.65 -13.3 71.45 -17.5 72.85 -22.4 71.35 -27.1 69.8 -29.8 66.45 -31.45 64.3 -31.8 62.15" fill="none" stroke="#745434" stroke-linecap="round" stroke-linejoin="round" stroke-width="0.05"/>
  </g>
</svg>
