<?xml version="1.0" encoding="UTF-8" standalone="no"?>
<svg xmlns:xlink="http://www.w3.org/1999/xlink" height="12.5px" width="5.85px" xmlns="http://www.w3.org/2000/svg">
  <g transform="matrix(1.0, 0.0, 0.0, 1.0, 3.25, 6.2)">
    <path d="M1.35 1.4 L0.85 0.9 Q-0.6 -1.45 0.0 -4.9 -2.15 -2.65 -2.4 0.35 L-3.1 2.55 Q-3.6 -2.65 0.55 -6.1 0.35 -1.65 1.35 1.4" fill="#ffffff" fill-rule="evenodd" stroke="none"/>
    <path d="M0.85 0.9 L-0.3 -0.35 Q-0.15 2.95 0.5 3.85 L-1.45 1.55 -1.6 3.2 -2.4 0.35 Q-2.15 -2.65 0.0 -4.9 -0.6 -1.45 0.85 0.9" fill="#efe7dc" fill-rule="evenodd" stroke="none"/>
    <path d="M1.35 1.4 L2.4 4.6 Q2.65 5.55 2.15 6.0 1.6 6.4 -0.95 6.0 -2.5 5.55 -2.95 3.8 L-3.1 2.55 -2.4 0.35 -1.6 3.2 -1.45 1.55 0.5 3.85 Q-0.15 2.95 -0.3 -0.35 L0.85 0.9 1.35 1.4" fill="#d0b895" fill-rule="evenodd" stroke="none"/>
    <path d="M-3.1 2.55 L-2.95 3.8 Q-2.5 5.55 -0.95 6.0 1.6 6.4 2.15 6.0 2.65 5.55 2.4 4.6 L1.35 1.4 Q0.35 -1.65 0.55 -6.1 -3.6 -2.65 -3.1 2.55 Z" fill="none" stroke="#000000" stroke-linecap="round" stroke-linejoin="round" stroke-opacity="0.3882353" stroke-width="0.2"/>
  </g>
</svg>
