<?xml version="1.0" encoding="UTF-8" standalone="no"?>
<svg xmlns:xlink="http://www.w3.org/1999/xlink" height="41.6px" width="40.45px" xmlns="http://www.w3.org/2000/svg">
  <g transform="matrix(1.0, 0.0, 0.0, 1.0, -259.9, -380.9)">
    <path d="M291.1 383.75 L291.55 383.65 292.0 384.45 291.7 385.1 292.35 384.95 293.05 386.35 292.35 386.95 291.55 384.9 289.35 386.9 288.05 385.8 288.8 387.45 287.95 386.85 288.35 387.75 287.3 389.2 286.25 389.2 287.85 389.75 288.75 389.2 289.8 388.7 292.6 387.25 294.15 386.05 294.6 386.55 295.95 388.35 296.4 389.15 296.6 391.3 295.7 391.85 295.6 389.4 295.4 389.0 293.8 390.8 292.95 389.9 293.35 391.25 290.85 393.2 289.4 393.8 291.2 394.8 291.75 394.3 296.55 392.2 298.55 394.3 298.55 397.25 297.75 397.6 297.6 394.95 296.0 396.05 294.65 394.95 295.55 396.5 294.75 396.05 295.15 396.95 291.9 398.85 291.25 401.25 292.75 400.85 296.9 398.9 299.45 402.65 Q300.05 404.2 299.75 405.1 L298.75 405.45 298.75 404.75 298.65 402.9 298.4 402.55 296.25 403.9 296.25 402.25 295.5 404.4 294.8 403.8 294.8 404.8 290.35 406.5 290.3 406.55 290.1 406.65 289.8 406.9 275.3 416.2 270.7 416.2 269.3 414.25 270.85 413.5 270.85 410.7 Q272.45 412.4 274.3 412.95 275.7 413.4 277.35 412.95 279.1 412.5 280.45 410.9 L281.6 409.05 282.35 407.25 282.6 404.85 282.35 402.95 282.15 402.2 281.75 401.2 281.7 401.05 281.7 401.0 Q279.8 395.85 277.35 394.65 L273.85 394.3 Q271.2 395.1 268.75 397.7 267.7 400.1 268.0 401.95 L268.0 402.45 268.05 403.1 Q269.25 408.25 269.25 409.4 L269.2 409.5 269.2 410.2 Q269.1 412.2 267.9 412.65 266.65 413.0 265.55 411.85 L264.4 409.3 Q262.75 405.95 260.5 402.8 L260.4 402.7 268.55 394.3 277.85 386.85 285.25 384.1 289.05 381.8 289.85 381.4 290.7 382.5 290.45 382.85 290.25 383.15 289.35 384.25 291.1 383.75 M286.55 385.25 L286.1 385.4 285.95 385.85 286.1 386.3 286.55 386.45 286.95 386.3 287.15 385.85 286.95 385.4 Q286.8 385.25 286.55 385.25 M284.15 390.3 Q284.4 389.55 283.95 389.1 282.9 388.15 281.3 389.3 279.8 390.25 280.55 391.55 282.1 392.75 283.35 391.4 L284.15 390.3 M287.25 394.0 Q287.2 393.35 286.6 392.85 285.35 392.15 284.0 394.05 283.2 395.85 284.0 396.45 L284.1 396.5 Q285.1 397.25 286.6 395.55 L287.25 394.0 M292.85 390.65 L292.6 390.25 Q292.5 390.1 292.3 390.1 292.1 390.1 291.9 390.25 291.75 390.4 291.75 390.65 L291.9 391.0 292.3 391.2 292.6 391.0 292.85 390.65 M293.35 396.45 L293.45 396.6 Q293.6 396.8 293.8 396.8 L294.15 396.6 294.3 396.45 294.3 396.3 294.15 395.9 293.8 395.8 293.45 395.9 293.35 396.3 293.35 396.45 M295.7 402.95 L295.55 402.6 295.15 402.45 Q294.95 402.45 294.8 402.6 L294.65 402.95 294.8 403.35 295.15 403.5 295.55 403.35 295.7 402.95 M289.6 400.05 Q289.65 399.5 289.15 399.0 287.95 397.25 286.5 399.15 284.85 400.6 285.75 401.85 L285.9 402.0 286.2 402.2 Q286.6 402.4 287.2 402.2 L288.4 401.5 Q289.45 400.75 289.6 400.05 M290.85 405.05 Q290.95 404.5 290.55 403.95 289.5 403.45 287.6 404.8 285.9 405.8 286.3 407.0 L286.6 407.25 Q287.0 407.5 287.85 407.25 L289.35 406.6 Q290.6 405.85 290.85 405.05 M269.1 409.7 L268.6 408.85 Q268.05 408.3 267.25 408.3 266.5 408.3 265.95 408.85 265.4 409.4 265.4 410.2 265.4 410.75 265.7 411.25 L265.95 411.5 Q266.5 412.05 267.25 412.05 268.05 412.05 268.6 411.5 269.15 410.95 269.15 410.2 L269.1 409.7" fill="#333333" fill-rule="evenodd" stroke="none"/>
    <path d="M290.45 382.85 L291.1 383.75 289.35 384.25 290.25 383.15 290.45 382.85 M286.55 385.25 Q286.8 385.25 286.95 385.4 L287.15 385.85 286.95 386.3 286.55 386.45 286.1 386.3 285.95 385.85 286.1 385.4 286.55 385.25 M284.15 390.3 L283.35 391.4 Q282.1 392.75 280.55 391.55 280.45 390.3 281.9 389.45 283.65 388.5 284.15 390.3 M287.25 394.0 L286.6 395.55 Q285.1 397.25 284.1 396.5 283.8 393.95 285.25 393.4 286.6 392.85 287.25 394.0 M292.85 390.65 L292.6 391.0 292.3 391.2 291.9 391.0 291.75 390.65 Q291.75 390.4 291.9 390.25 292.1 390.1 292.3 390.1 292.5 390.1 292.6 390.25 L292.85 390.65 M293.35 396.45 L293.35 396.3 293.45 395.9 293.8 395.8 294.15 395.9 294.3 396.3 294.3 396.45 294.15 396.6 293.8 396.8 Q293.6 396.8 293.45 396.6 L293.35 396.45 M295.7 402.95 L295.55 403.35 295.15 403.5 294.8 403.35 294.65 402.95 294.8 402.6 Q294.95 402.45 295.15 402.45 L295.55 402.6 295.7 402.95 M285.9 402.0 Q285.9 399.7 287.6 398.9 288.55 398.4 289.6 400.05 289.45 400.75 288.4 401.5 L287.2 402.2 Q286.6 402.4 286.2 402.2 L285.9 402.0 M290.85 405.05 Q290.6 405.85 289.35 406.6 L287.85 407.25 Q287.0 407.5 286.6 407.25 286.5 405.9 289.0 404.55 290.15 404.1 290.85 405.05 M269.85 409.5 L269.6 407.7 Q268.75 404.8 268.55 402.2 L268.55 402.1 268.55 401.8 Q269.3 397.7 272.2 396.25 273.3 395.6 274.3 395.45 275.7 395.25 277.15 396.1 278.35 396.85 279.4 398.4 280.7 400.35 281.35 402.2 282.25 404.85 281.85 407.25 281.55 409.1 280.45 410.9 279.1 412.5 277.35 412.95 275.7 413.4 274.3 412.95 272.45 412.4 270.85 410.7 L269.85 409.5" fill="#000000" fill-rule="evenodd" stroke="none"/>
    <path d="M266.65 413.15 Q265.85 412.75 265.55 411.85 266.65 413.0 267.9 412.65 269.1 412.2 269.2 410.2 L269.2 409.5 269.25 409.4 Q269.25 408.25 268.05 403.1 L268.0 402.45 268.0 401.95 Q268.05 397.6 271.95 395.6 273.15 394.75 274.3 394.6 275.8 394.35 277.15 395.1 L278.7 396.4 278.95 396.65 Q280.75 398.95 281.7 401.05 L281.75 401.2 282.15 402.2 282.35 402.95 282.6 404.85 282.35 407.25 281.6 409.05 280.45 410.9 Q281.55 409.1 281.85 407.25 282.25 404.85 281.35 402.2 280.7 400.35 279.4 398.4 278.35 396.85 277.15 396.1 275.7 395.25 274.3 395.45 273.3 395.6 272.2 396.25 269.3 397.7 268.55 401.8 L268.55 402.1 268.55 402.2 Q268.75 404.8 269.6 407.7 L269.85 409.5 Q269.85 410.75 269.35 411.9 268.8 413.1 266.65 413.15 M280.55 391.55 Q279.8 390.25 281.3 389.3 282.9 388.15 283.95 389.1 284.4 389.55 284.15 390.3 283.65 388.5 281.9 389.45 280.45 390.3 280.55 391.55 M284.1 396.5 L284.0 396.45 Q283.2 395.85 284.0 394.05 285.35 392.15 286.6 392.85 287.2 393.35 287.25 394.0 286.6 392.85 285.25 393.4 283.8 393.95 284.1 396.5 M285.9 402.0 L285.75 401.85 Q284.85 400.6 286.5 399.15 287.95 397.25 289.15 399.0 289.65 399.5 289.6 400.05 288.55 398.4 287.6 398.9 285.9 399.7 285.9 402.0 M286.6 407.25 L286.3 407.0 Q285.9 405.8 287.6 404.8 289.5 403.45 290.55 403.95 290.95 404.5 290.85 405.05 290.15 404.1 289.0 404.55 286.5 405.9 286.6 407.25" fill="#1a1a1a" fill-rule="evenodd" stroke="none"/>
    <path d="M292.35 386.95 L289.8 388.7 288.75 389.2 287.85 389.75 286.25 389.2 287.3 389.2 288.35 387.75 287.95 386.85 288.8 387.45 288.05 385.8 289.35 386.9 291.55 384.9 292.35 386.95 M295.7 391.85 L291.75 394.3 291.2 394.8 289.4 393.8 290.85 393.2 293.35 391.25 292.95 389.9 293.8 390.8 295.4 389.0 295.6 389.4 295.7 391.85 M297.75 397.6 L296.9 397.85 292.75 400.85 291.25 401.25 291.9 398.85 295.15 396.95 294.75 396.05 295.55 396.5 294.65 394.95 296.0 396.05 297.6 394.95 297.75 397.6 M298.75 405.45 Q296.55 406.3 294.6 407.25 291.55 408.8 289.2 410.6 286.65 412.75 284.05 414.25 L282.15 415.25 278.0 418.2 278.0 416.2 275.3 416.2 289.8 406.9 290.1 406.65 290.3 406.55 290.35 406.5 294.8 404.8 294.8 403.8 295.5 404.4 296.25 402.25 296.25 403.9 298.4 402.55 298.65 402.9 298.75 404.75 298.75 405.45 M270.7 416.2 L268.55 416.2 266.65 413.15 Q268.8 413.1 269.35 411.9 269.85 410.75 269.85 409.5 L270.85 410.7 270.85 413.5 269.3 414.25 270.7 416.2 M281.7 401.05 Q280.75 398.95 278.95 396.65 L278.7 396.4 277.15 395.1 Q275.8 394.35 274.3 394.6 273.15 394.75 271.95 395.6 268.05 397.6 268.0 401.95 267.7 400.1 268.75 397.7 271.2 395.1 273.85 394.3 L277.35 394.65 Q279.8 395.85 281.7 401.0 L281.7 401.05" fill="#262626" fill-rule="evenodd" stroke="none"/>
    <path d="M265.7 411.25 Q265.4 410.75 265.4 410.2 265.4 409.4 265.95 408.85 266.5 408.3 267.25 408.3 268.05 408.3 268.6 408.85 L269.1 409.7 Q267.95 411.6 266.15 409.85 265.3 410.3 265.7 411.25" fill="#d9be23" fill-rule="evenodd" stroke="none"/>
    <path d="M269.1 409.7 L269.15 410.2 Q269.15 410.95 268.6 411.5 268.05 412.05 267.25 412.05 266.5 412.05 265.95 411.5 L265.7 411.25 Q265.3 410.3 266.15 409.85 267.95 411.6 269.1 409.7" fill="#978418" fill-rule="evenodd" stroke="none"/>
    <path d="M291.1 383.75 L291.55 383.65 292.0 384.45 291.7 385.1 292.35 384.95 293.05 386.35 292.35 386.95 289.8 388.7 292.6 387.25 294.15 386.05 294.6 386.55 295.95 388.35 296.4 389.15 296.6 391.3 295.7 391.85 291.75 394.3 296.55 392.2 298.55 394.3 298.55 397.25 297.75 397.6 296.9 397.85 292.75 400.85 296.9 398.9 299.45 402.65 Q300.05 404.2 299.75 405.1 L298.75 405.45 Q296.55 406.3 294.6 407.25 291.55 408.8 289.2 410.6 286.65 412.75 284.05 414.25 L282.15 415.25 278.0 418.2 M268.55 416.2 L266.65 413.15 Q265.85 412.75 265.55 411.85 L264.4 409.3 Q262.75 405.95 260.5 402.8 L260.4 402.7 268.55 394.3 277.85 386.85 285.25 384.1 289.05 381.8 289.85 381.4 290.7 382.5 290.45 382.85 291.1 383.75 289.35 384.25 290.25 383.15 290.45 382.85 M286.55 385.25 Q286.8 385.25 286.95 385.4 L287.15 385.85 286.95 386.3 286.55 386.45 286.1 386.3 285.95 385.85 286.1 385.4 286.55 385.25 M280.55 391.55 Q279.8 390.25 281.3 389.3 282.9 388.15 283.95 389.1 284.4 389.55 284.15 390.3 L283.35 391.4 Q282.1 392.75 280.55 391.55 280.45 390.3 281.9 389.45 283.65 388.5 284.15 390.3 M288.75 389.2 L289.8 388.7 M268.0 401.95 Q268.05 397.6 271.95 395.6 273.15 394.75 274.3 394.6 275.8 394.35 277.15 395.1 L278.7 396.4 278.95 396.65 Q280.75 398.95 281.7 401.05 L281.75 401.2 282.15 402.2 282.35 402.95 282.6 404.85 282.35 407.25 281.6 409.05 280.45 410.9 Q279.1 412.5 277.35 412.95 275.7 413.4 274.3 412.95 272.45 412.4 270.85 410.7 L269.85 409.5 Q269.85 410.75 269.35 411.9 268.8 413.1 266.65 413.15 M268.0 401.95 L268.0 402.45 268.05 403.1 Q269.25 408.25 269.25 409.4 L269.2 409.5 269.2 410.2 Q269.1 412.2 267.9 412.65 266.65 413.0 265.55 411.85 M284.1 396.5 L284.0 396.45 Q283.2 395.85 284.0 394.05 285.35 392.15 286.6 392.85 287.2 393.35 287.25 394.0 L286.6 395.55 Q285.1 397.25 284.1 396.5 283.8 393.95 285.25 393.4 286.6 392.85 287.25 394.0 M292.85 390.65 L292.6 391.0 292.3 391.2 291.9 391.0 291.75 390.65 Q291.75 390.4 291.9 390.25 292.1 390.1 292.3 390.1 292.5 390.1 292.6 390.25 L292.85 390.65 M293.35 396.45 L293.35 396.3 293.45 395.9 293.8 395.8 294.15 395.9 294.3 396.3 294.3 396.45 294.15 396.6 293.8 396.8 Q293.6 396.8 293.45 396.6 L293.35 396.45 M295.7 402.95 L295.55 403.35 295.15 403.5 294.8 403.35 294.65 402.95 294.8 402.6 Q294.95 402.45 295.15 402.45 L295.55 402.6 295.7 402.95 M289.6 400.05 Q289.65 399.5 289.15 399.0 287.95 397.25 286.5 399.15 284.85 400.6 285.75 401.85 L285.9 402.0 Q285.9 399.7 287.6 398.9 288.55 398.4 289.6 400.05 289.45 400.75 288.4 401.5 L287.2 402.2 Q286.6 402.4 286.2 402.2 L285.9 402.0 M286.6 407.25 L286.3 407.0 Q285.9 405.8 287.6 404.8 289.5 403.45 290.55 403.95 290.95 404.5 290.85 405.05 290.6 405.85 289.35 406.6 L287.85 407.25 Q287.0 407.5 286.6 407.25 286.5 405.9 289.0 404.55 290.15 404.1 290.85 405.05 M298.75 404.75 L298.75 405.45 M269.85 409.5 L269.6 407.7 Q268.75 404.8 268.55 402.2 L268.55 402.1 268.55 401.8 Q269.3 397.7 272.2 396.25 273.3 395.6 274.3 395.45 275.7 395.25 277.15 396.1 278.35 396.85 279.4 398.4 280.7 400.35 281.35 402.2 282.25 404.85 281.85 407.25 281.55 409.1 280.45 410.9" fill="none" stroke="#ffffff" stroke-linecap="round" stroke-linejoin="round" stroke-opacity="0.32156864" stroke-width="0.05"/>
    <path d="M297.6 395.6 L297.6 394.6 M290.25 383.15 L289.55 382.4 M283.9 388.45 L282.95 388.2 M284.7 390.15 Q284.85 389.55 284.65 389.15 M280.3 389.55 L279.8 390.3 M281.9 388.5 Q281.5 388.65 281.05 389.0 M279.8 391.35 L280.0 392.0 280.9 392.5 M284.5 392.65 L283.7 393.55 M286.4 391.95 L285.4 392.05 M286.05 396.75 L287.0 395.75 M283.05 395.7 Q283.05 396.35 283.35 396.75 M283.65 391.8 L284.25 391.05 M283.55 393.75 L283.2 394.7 M281.9 392.7 L282.9 392.35 M295.6 389.85 L295.6 389.4 295.4 389.0 M294.6 387.9 L293.95 387.2 M292.35 386.95 L291.95 386.0 M296.9 393.9 L296.15 393.2 M295.7 391.85 L295.7 390.85 M291.55 384.9 L291.25 384.15 M287.8 393.3 L287.3 392.45 M287.35 395.25 L287.75 394.3 M295.95 399.35 L296.55 400.15 M287.75 397.45 L288.75 397.5 M288.8 401.9 L288.4 402.2 288.1 402.4 M289.8 398.45 L290.25 399.05 M290.35 400.1 L289.85 401.0 M291.85 407.85 L291.0 408.4 M289.25 407.15 L289.8 406.9 M289.5 403.25 Q289.1 403.4 288.6 403.7 M291.55 405.3 L291.85 404.3 M290.35 406.5 L290.9 406.0 M294.9 406.2 L294.0 406.65 M296.9 405.4 L295.9 405.8 M291.4 403.25 L290.5 403.05 M286.25 398.75 L286.85 398.0 M284.95 400.35 L285.5 399.55 M285.25 402.2 L284.85 401.35 M287.2 402.85 L286.25 402.9 M284.15 397.3 L285.2 397.25 M286.0 405.55 Q285.65 406.0 285.6 406.5 M285.65 407.35 Q285.9 407.7 286.35 407.8 M279.5 415.7 L278.6 416.35 M281.2 414.6 L280.3 415.2 M283.4 413.25 L282.5 413.85 M285.1 412.2 L284.2 412.75 M286.7 411.2 L285.9 411.7 M288.4 410.2 L287.5 410.7 M290.25 408.9 L289.45 409.5 M287.4 407.8 L288.4 407.55 M287.45 404.4 L286.75 404.85 M299.35 404.55 L298.75 404.75 297.85 405.05 M298.8 404.4 L298.75 404.75 M298.4 402.55 L298.65 402.9 298.75 403.45 M297.15 400.95 L297.75 401.75 M297.75 397.6 L297.7 396.6" fill="none" stroke="#ffffff" stroke-linecap="round" stroke-linejoin="round" stroke-opacity="0.5019608" stroke-width="0.5"/>
    <path d="M275.3 416.2 L278.0 416.2 278.0 418.2 272.1 422.0 268.55 416.2 270.7 416.2 272.15 418.2 275.3 416.2" fill="#262626" fill-rule="evenodd" stroke="none"/>
    <path d="M270.7 416.2 L275.3 416.2 272.15 418.2 270.7 416.2" fill="#333333" fill-rule="evenodd" stroke="none"/>
    <path d="M278.0 418.2 L272.1 422.0 268.55 416.2" fill="none" stroke="#ffffff" stroke-linecap="round" stroke-linejoin="round" stroke-opacity="0.32156864" stroke-width="0.05"/>
    <path d="M273.25 420.15 L272.4 420.65 M274.8 419.05 L274.05 419.55 M276.4 417.85 L275.6 418.45 M278.0 416.75 L277.2 417.25" fill="none" stroke="#ffffff" stroke-linecap="round" stroke-linejoin="round" stroke-opacity="0.5019608" stroke-width="0.5"/>
    <path d="M291.55 383.65 L292.0 384.45 291.7 385.1 292.35 384.95 293.05 386.35 292.35 386.95 289.8 388.7 292.6 387.25 294.15 386.05 295.95 388.35 296.4 389.15 296.6 391.3 291.75 394.3 296.55 392.2 298.55 394.3 298.55 397.25 297.75 397.6 296.9 397.85 292.75 400.85 296.9 398.9 299.45 402.65 Q300.05 404.2 299.75 405.1 L298.75 405.45 Q296.55 406.3 294.6 407.25 291.55 408.8 289.2 410.6 286.65 412.75 284.05 414.25 L282.15 415.25 Q278.05 418.35 272.1 422.0 L266.65 413.15 Q265.85 412.75 265.55 411.85 263.6 407.1 260.5 402.8 L260.4 402.7 268.55 394.3 277.85 386.85 285.25 384.1 289.05 381.8 289.85 381.4 290.7 382.5 290.45 382.85 291.1 383.75 291.55 383.65 Z" fill="none" stroke="#242631" stroke-linecap="round" stroke-linejoin="round" stroke-opacity="0.5019608" stroke-width="1.0"/>
  </g>
</svg>
