<?xml version="1.0" encoding="UTF-8" standalone="no"?>
<svg xmlns:xlink="http://www.w3.org/1999/xlink" height="43.6px" width="36.7px" xmlns="http://www.w3.org/2000/svg">
  <g transform="matrix(1.0, 0.0, 0.0, 1.0, -262.3, -381.15)">
    <path d="M294.15 384.75 L294.1 385.45 294.1 385.55 294.45 386.65 294.7 388.1 Q294.8 389.55 294.5 391.4 L294.85 392.1 295.85 391.55 296.65 389.85 Q297.05 385.3 295.2 383.2 L294.15 382.45 Q289.15 380.5 281.75 383.3 L280.8 383.65 279.95 384.0 279.95 384.05 Q279.65 384.4 279.5 384.85 279.35 385.35 279.35 385.95 L279.35 386.35 Q279.25 388.9 279.9 391.15 M293.75 385.0 L294.1 385.55 M281.7 385.4 L281.6 386.15 281.75 386.6 281.8 386.95 283.85 387.15 289.95 386.3 Q292.25 385.6 293.3 385.0 L293.75 384.65 M296.8 397.8 L297.55 402.65 297.65 402.85 Q298.75 406.1 298.45 410.65 L298.3 412.5 297.8 412.9 Q296.9 413.5 295.85 413.5 L295.7 413.5 295.2 413.4 Q295.45 411.0 294.75 409.5 L294.3 408.75 293.8 408.2 293.45 407.6 M293.25 392.8 L293.1 392.9 Q289.35 394.45 285.6 394.75 L283.1 394.5 282.5 394.35 282.0 394.15 282.55 398.0 M295.25 399.35 L295.2 398.8 M293.25 392.8 L294.05 392.45 294.5 391.4 M296.8 397.75 L295.85 391.55 M280.4 384.45 L280.25 384.65 280.25 385.15 280.45 385.9 Q280.7 386.5 281.45 386.8 L281.6 386.85 281.8 386.95 281.9 387.5 M269.0 385.3 Q268.75 386.75 269.95 387.3 L270.1 387.35 277.8 386.85 279.35 386.35 M281.8 398.75 L281.8 398.25 M280.4 392.75 L280.25 392.85 Q276.75 394.25 273.3 394.55 L270.5 394.2 270.05 394.0 270.35 398.95 270.35 401.25 M280.4 392.75 L280.45 392.75 280.4 392.7 280.0 391.6 M282.0 392.3 L281.6 391.5 281.05 392.6 M281.25 385.65 L281.6 386.15 M281.6 391.5 L281.95 389.0 M280.45 392.75 Q280.8 393.6 282.0 394.15 M281.9 399.5 L282.45 401.15 282.8 401.35 282.7 399.6 282.6 398.4 M282.7 402.75 L282.2 403.4 M282.8 401.35 L282.8 402.15 M293.1 411.85 L292.75 411.45 291.95 410.75 Q290.65 409.7 288.8 409.25 L284.45 408.75 284.15 408.85 281.5 409.6 281.15 409.8 280.85 409.9 Q280.15 410.25 279.55 410.75 L279.45 410.8 279.1 411.1 278.6 411.6 Q277.85 412.45 277.4 413.55 L277.15 414.25 277.15 417.8 M282.8 403.25 L282.7 405.2 282.5 406.8 Q283.4 406.25 284.3 406.0 L286.85 405.75 286.95 405.75 Q287.4 405.85 287.65 406.1 M281.6 403.95 L281.35 403.6 M270.25 402.45 L270.05 404.1 269.75 405.55 Q271.9 404.4 273.75 404.6 L273.85 404.6 273.9 404.6 Q274.3 404.7 274.55 404.9 M281.6 404.75 L281.3 405.95 281.6 406.15 M280.85 409.9 L281.1 409.05 280.8 408.0 280.45 407.35 279.85 406.75 279.75 406.3 M269.75 405.55 Q268.65 406.35 268.05 408.4 269.55 407.7 271.45 407.35 L275.4 407.8 Q277.05 408.2 278.15 409.15 L278.9 409.8 279.15 410.15 M279.35 410.4 L279.55 410.75 M282.5 406.8 Q281.95 407.2 281.55 407.9 281.25 408.4 281.1 409.05 M280.8 408.0 L281.3 405.95 M276.05 420.0 L275.95 420.6 275.85 421.15 279.25 422.6 Q285.0 424.8 288.0 424.05 L290.85 423.05 293.4 421.85 295.9 420.1 295.9 418.75 295.35 418.65 295.2 418.75 Q294.95 418.85 294.65 419.0 L294.25 419.2 293.6 419.55 292.15 420.15 291.05 420.5 M263.05 417.9 L262.85 418.65 265.9 420.0 Q271.0 422.0 273.8 421.3 L275.95 420.6 M279.0 420.15 L278.75 420.05 M295.4 405.9 L295.15 407.25 295.5 407.45 M295.4 400.2 L296.05 402.0 Q296.75 402.25 297.1 402.8 L295.9 404.5 M293.3 412.1 Q294.4 413.5 294.9 415.5 L295.2 413.4 M294.75 409.5 L295.15 407.25 M295.35 405.05 L295.0 404.65 M294.9 415.5 L295.25 417.6 296.5 417.5 Q297.7 417.1 298.3 415.65 L298.3 412.5 M295.35 418.65 L295.25 417.6 M281.75 383.3 Q276.8 381.3 268.8 384.75 268.15 385.35 268.1 386.5 267.8 389.0 268.3 391.25 M268.4 391.65 L268.65 392.65 Q268.95 393.5 270.05 394.0 M268.05 408.4 Q266.85 409.0 265.9 409.95 L264.7 411.7 264.45 412.35 264.25 415.55 M265.8 417.75 L265.55 417.6" fill="none" stroke="#382510" stroke-linecap="round" stroke-linejoin="round" stroke-opacity="0.5019608" stroke-width="1.0"/>
    <path d="M294.4 398.05 L293.8 396.25 M294.0 395.15 L293.35 393.6 293.25 392.8 M281.15 397.55 L280.7 395.9 M281.0 394.9 L280.45 393.5 280.4 392.75" fill="none" stroke="#382510" stroke-linecap="round" stroke-linejoin="round" stroke-opacity="0.3019608" stroke-width="1.0"/>
    <path d="M297.4 397.2 L297.1 397.55 296.8 397.75 296.8 397.8 296.05 398.5 296.05 398.4 295.45 399.1 295.25 399.35 294.65 399.8 294.6 399.8 294.55 399.85 293.8 400.2 293.5 400.25 293.2 400.2 293.2 400.6 293.2 400.75 293.2 400.9 293.2 401.2 293.9 401.0 294.5 400.75 295.4 400.2 296.05 399.4 296.05 398.5 M297.65 402.85 L297.85 402.6 M282.55 398.0 L282.65 397.85 282.65 397.95 283.35 397.25 283.6 397.1 283.95 396.7 M279.55 400.6 Q279.35 400.65 279.2 400.8 M280.45 399.5 L281.2 399.2 281.25 399.15 281.3 399.15 281.8 398.75 282.05 398.55 282.2 398.35 282.35 398.2 282.05 398.55 M280.45 399.5 L280.2 399.55 279.9 399.5 279.9 399.75 279.9 399.9 279.9 400.0 279.85 400.25 279.85 400.4 280.5 400.2 281.1 400.0 281.9 399.5 282.55 398.8 282.6 398.4 282.65 398.05 282.65 397.95 M282.55 398.0 L282.35 398.2 M292.9 401.35 L292.45 401.55 M284.05 401.65 L283.75 402.0 283.5 402.2 282.75 402.95 282.75 403.0 282.7 403.7 281.65 404.7 281.6 404.75 281.15 404.95 280.0 405.35 280.0 405.2 280.05 405.0 280.05 404.8 280.05 404.45 Q280.55 404.55 281.3 404.1 L281.35 404.05 281.4 404.05 281.6 403.95 Q281.85 403.7 282.2 403.4 L282.75 402.85 282.75 402.8 282.75 402.95 M279.5 400.1 Q279.7 399.95 279.85 399.9 L279.9 399.9 M279.5 400.1 L279.45 400.1 279.2 400.2 M278.8 401.15 L278.4 401.6 M279.6 405.5 Q279.45 405.55 279.35 405.7 M279.15 405.1 L279.5 405.05 279.55 405.0 279.95 404.8 280.05 404.8 M278.9 406.05 L278.5 406.5 M297.65 402.85 L297.55 402.95 297.25 403.15 296.5 403.9 296.5 404.8 295.45 405.85 295.4 405.9 294.95 406.15 293.65 406.6 293.65 406.3 293.65 406.15 293.65 406.0 293.65 405.6 Q294.2 405.7 295.0 405.25 L295.05 405.2 295.1 405.2 295.35 405.05 295.9 404.5 296.5 403.8 296.5 403.9 M292.8 400.75 L292.75 400.75 292.4 400.9 M292.8 400.75 L292.95 400.7 293.15 400.6 293.2 400.6 M292.75 406.3 L293.2 406.15 293.4 406.1 293.6 406.0 293.65 406.0 M292.55 407.4 L292.1 407.85 M292.1 402.0 L291.65 402.45" fill="none" stroke="#000000" stroke-linecap="round" stroke-linejoin="round" stroke-opacity="0.15294118" stroke-width="1.0"/>
    <path d="M283.6 397.1 L282.55 395.95 282.4 395.9 282.5 395.35 290.0 395.55 Q291.15 395.85 291.9 396.7 293.45 398.15 293.75 399.95 L293.8 400.2 M279.5 400.1 L279.5 400.0 279.25 399.45 279.2 399.35 277.65 397.4 277.35 397.1 276.0 396.3 Q275.6 396.2 275.25 396.5 L274.55 397.3 Q273.85 398.45 274.4 400.0 L274.7 400.65 274.85 400.9 274.9 400.95 275.15 401.35 275.75 401.9 275.9 401.95 276.95 402.15 277.6 402.1 277.7 402.1 Q278.7 402.05 279.2 401.55 L279.35 401.3 279.55 400.6 279.55 400.55 279.5 400.1 M270.35 401.25 Q271.05 401.45 271.65 400.55 L271.65 400.4 Q272.3 399.4 271.75 397.8 L271.3 396.75 Q270.9 395.9 270.4 395.6 L270.3 395.6 Q270.3 395.3 270.45 395.1 273.25 394.0 277.25 395.25 278.3 395.55 278.9 396.3 280.25 397.65 280.4 399.3 L280.45 399.5 M270.35 401.25 L270.15 401.2 270.1 401.2 270.25 402.45 270.35 403.0 270.85 403.05 Q270.95 403.7 271.35 404.2 L272.05 404.35 272.5 404.4 273.35 404.45 Q273.6 404.25 273.3 403.35 L274.3 403.4 274.95 404.85 277.0 405.05 276.95 404.2 276.9 403.95 M282.8 402.15 Q283.5 402.3 284.05 401.65 L284.25 401.35 284.3 401.2 Q284.9 400.1 284.15 398.3 L283.6 397.1 M292.8 400.75 L292.5 400.1 292.4 399.95 290.65 397.85 290.35 397.6 Q289.4 396.8 288.7 396.65 288.25 396.55 287.85 396.9 L287.15 397.75 Q286.55 399.05 287.2 400.8 L287.55 401.45 287.75 401.75 288.1 402.25 288.85 402.8 288.95 402.85 289.05 402.85 290.2 403.05 290.9 403.05 291.0 403.05 Q292.05 402.95 292.5 402.45 L292.7 402.1 292.9 401.35 292.8 400.8 292.8 400.75 M282.75 403.0 L282.8 403.25 283.0 404.05 283.55 404.05 Q283.7 404.8 284.15 405.35 L284.45 405.45 285.75 405.6 286.4 405.6 Q286.65 405.45 286.2 404.4 L287.3 404.45 288.15 406.05 290.45 406.25 Q290.65 406.05 290.3 405.35 L290.25 405.05 M282.8 402.15 L282.7 402.1 282.65 402.1 282.7 402.75 282.75 402.85 M280.5 400.2 L280.4 400.85 280.4 401.0 Q280.3 403.2 279.5 403.9 L279.35 404.0 276.95 404.2 M293.9 401.0 L293.85 401.65 293.85 401.85 Q293.85 404.2 293.1 405.05 L292.85 405.15 290.3 405.35" fill="none" stroke="#332720" stroke-linecap="round" stroke-linejoin="round" stroke-opacity="0.4509804" stroke-width="1.0"/>
    <path d="M277.15 417.8 L278.1 418.9 278.9 419.65 M274.65 416.55 L274.15 416.4 Q274.0 417.55 273.3 418.75 L273.2 418.85 272.85 419.35 273.75 419.5 273.9 419.5 274.05 419.45 274.35 419.35 275.5 418.7 275.5 418.45 Q275.45 417.7 275.05 417.0 L274.75 416.55 274.65 416.55 M276.05 420.0 L275.85 419.7 275.7 419.0 275.65 418.4 275.65 416.85 276.3 416.25 276.85 417.3 277.15 417.8 M276.25 420.35 L276.05 420.0 M288.55 418.8 L288.05 418.65 Q287.95 419.9 287.25 421.2 L287.15 421.35 286.85 421.8 288.05 422.0 288.2 422.0 288.45 421.9 289.7 421.2 289.7 420.9 Q289.6 420.1 289.1 419.35 L288.7 418.8 288.55 418.8 M264.25 415.55 L265.05 416.6 265.7 417.25 M263.05 417.9 L263.1 417.6 262.95 417.3 Q262.65 416.45 262.95 414.75 L263.55 414.2 264.25 415.55" fill="none" stroke="#000000" stroke-linecap="round" stroke-linejoin="round" stroke-opacity="0.3019608" stroke-width="1.0"/>
  </g>
</svg>
