<?xml version="1.0" encoding="UTF-8" standalone="no"?>
<svg xmlns:xlink="http://www.w3.org/1999/xlink" height="133.95px" width="87.7px" xmlns="http://www.w3.org/2000/svg">
  <g transform="matrix(1.0, 0.0, 0.0, 1.0, -231.6, -133.5)">
    <path d="M318.35 143.05 L314.45 143.65 305.7 144.85 Q305.9 145.05 308.05 146.05 L310.45 147.1 Q309.4 147.6 304.75 148.5 L299.7 149.35 Q297.45 149.35 294.95 148.4 292.8 147.6 290.45 147.6 L290.45 147.5 290.2 147.15 289.2 147.1 Q286.5 146.8 284.45 146.1 285.2 146.1 285.2 145.85 L288.55 145.6 292.45 146.1 Q287.4 144.6 282.3 142.5 277.05 140.4 274.3 138.65 275.05 133.9 276.7 133.6 282.75 138.8 296.45 141.0 307.5 140.2 319.2 136.1 L318.35 143.05 M284.95 140.85 Q290.6 141.35 296.45 141.0 290.6 141.35 284.95 140.85" fill="#8d702e" fill-rule="evenodd" stroke="none"/>
    <path d="M290.45 147.6 Q292.8 147.6 294.95 148.4 297.45 149.35 299.7 149.35 L304.75 148.5 Q309.4 147.6 310.45 147.1 L308.05 146.05 Q305.9 145.05 305.7 144.85 L314.45 143.65 318.35 143.05 317.45 150.35 317.45 150.85 311.35 151.85 300.95 152.6 293.25 152.25 285.45 151.35 285.45 151.1 Q286.5 151.1 287.55 150.6 288.55 150.1 289.45 150.1 L286.65 149.55 281.95 148.35 273.8 145.05 274.2 139.1 274.3 138.65 Q277.05 140.4 282.3 142.5 287.4 144.6 292.45 146.1 L288.55 145.6 285.2 145.85 Q285.2 146.1 284.45 146.1 286.5 146.8 289.2 147.1 L290.2 147.15 290.45 147.5 289.95 147.6 290.45 147.6" fill="#ae8a37" fill-rule="evenodd" stroke="none"/>
    <path d="M273.8 145.05 L281.95 148.35 286.65 149.55 289.45 150.1 Q288.55 150.1 287.55 150.6 286.5 151.1 285.45 151.1 L285.45 151.35 293.25 152.25 300.95 152.6 311.35 151.85 317.45 150.85 317.15 155.75 312.2 156.1 295.3 155.5 285.7 154.85 287.9 156.65 Q289.25 157.55 290.2 157.6 284.05 157.6 275.6 155.3 L272.85 154.5 273.8 145.05" fill="#dcc592" fill-rule="evenodd" stroke="none"/>
    <path d="M272.85 154.5 L275.6 155.3 Q284.05 157.6 290.2 157.6 289.25 157.55 287.9 156.65 L285.7 154.85 295.3 155.5 312.2 156.1 317.15 155.75 316.3 172.65 313.7 172.6 296.7 173.3 289.45 174.1 Q290.0 174.6 294.4 176.35 298.75 178.1 299.45 178.1 L299.45 178.35 295.95 178.6 298.55 179.25 301.7 180.1 299.0 180.45 296.45 180.6 277.7 179.35 Q273.85 178.1 272.45 178.1 273.25 178.05 275.0 177.1 276.55 176.25 277.2 175.6 L269.75 174.55 Q271.65 164.95 272.85 154.5" fill="#eacea6" fill-rule="evenodd" stroke="none"/>
    <path d="M269.75 174.55 L277.2 175.6 Q276.55 176.25 275.0 177.1 273.25 178.05 272.45 178.1 273.85 178.1 277.7 179.35 L296.45 180.6 299.0 180.45 301.7 180.1 298.55 179.25 295.95 178.6 299.45 178.35 299.45 178.1 Q298.75 178.1 294.4 176.35 290.0 174.6 289.45 174.1 L296.7 173.3 313.7 172.6 316.3 172.65 Q315.55 188.6 315.3 202.75 L310.3 203.45 303.7 203.85 303.95 204.35 Q304.75 205.15 306.9 205.55 L308.0 205.75 307.95 205.85 306.55 206.0 301.1 205.45 Q293.15 204.5 286.2 202.35 L272.95 199.1 281.95 198.35 Q278.8 198.35 269.15 195.25 L264.9 193.85 Q267.7 184.65 269.75 174.55 M245.75 236.8 Q251.8 226.55 257.95 212.3 L261.85 213.25 Q270.9 215.35 276.8 215.35 283.95 215.35 294.4 218.4 302.9 220.9 308.2 223.6 L308.2 223.85 301.15 223.65 291.7 223.85 298.15 228.85 303.7 232.85 295.15 235.0 Q284.9 237.1 274.55 237.1 L269.85 237.05 266.45 236.35 262.95 236.35 Q263.55 237.45 265.65 238.55 267.75 239.7 268.2 240.6 263.7 240.6 253.85 238.6 L245.75 236.8" fill="#f9e6d2" fill-rule="evenodd" stroke="none"/>
    <path d="M264.9 193.85 L269.15 195.25 Q278.8 198.35 281.95 198.35 L272.95 199.1 286.2 202.35 Q293.15 204.5 301.1 205.45 L306.55 206.0 307.95 205.85 309.6 205.85 308.0 205.75 306.9 205.55 Q304.75 205.15 303.95 204.35 L303.7 203.85 310.3 203.45 315.3 202.75 315.2 209.1 Q314.7 247.7 302.7 267.35 282.0 261.15 264.45 263.35 250.85 265.3 231.7 255.1 238.7 248.65 245.75 236.8 L253.85 238.6 Q263.7 240.6 268.2 240.6 267.75 239.7 265.65 238.55 263.55 237.45 262.95 236.35 L266.45 236.35 269.85 237.05 274.55 237.1 Q284.9 237.1 295.15 235.0 L303.7 232.85 298.15 228.85 291.7 223.85 301.15 223.65 308.2 223.85 308.2 223.6 Q302.9 220.9 294.4 218.4 283.95 215.35 276.8 215.35 270.9 215.35 261.85 213.25 L257.95 212.3 261.45 203.85 264.9 193.85" fill="#fefaf8" fill-rule="evenodd" stroke="none"/>
    <path d="M274.3 138.65 L274.2 139.1 273.8 145.05 272.85 154.5 Q271.65 164.95 269.75 174.55 267.7 184.65 264.9 193.85 L261.45 203.85 257.95 212.3 Q251.8 226.55 245.75 236.8 238.7 248.65 231.7 255.1 250.85 265.3 264.45 263.35 282.0 261.15 302.7 267.35 314.7 247.7 315.2 209.1 L315.3 202.75 Q315.55 188.6 316.3 172.65 L317.15 155.75 317.45 150.85 317.45 150.35 318.35 143.05 319.2 136.1 Q307.5 140.2 296.45 141.0 290.6 141.35 284.95 140.85 M274.3 138.65 Q275.05 133.9 276.7 133.6 282.75 138.8 296.45 141.0" fill="none" stroke="#000000" stroke-linecap="round" stroke-linejoin="round" stroke-opacity="0.4" stroke-width="0.2"/>
    <path d="M294.65 202.85 L289.6 200.25 287.55 196.1 291.0 197.45 298.25 199.25 306.15 199.45 302.0 202.25 298.8 201.1 298.55 203.4 297.65 200.75 297.2 202.75 294.65 202.85 M290.95 224.2 L276.15 224.25 268.2 219.5 280.35 221.05 304.4 218.85 290.95 224.2 M275.4 207.2 L287.15 207.75 293.05 207.3 288.25 211.65 279.4 213.0 275.6 211.95 275.75 209.4 273.35 212.2 273.9 209.35 268.45 209.6 263.4 204.7 275.4 207.2 M238.95 232.5 L244.5 230.7 243.3 232.8 251.5 236.95 260.95 239.2 251.9 241.05 241.05 237.0 238.95 232.5 M263.4 183.5 L268.95 180.95 267.75 183.2 275.95 186.25 285.4 187.2 276.35 190.25 265.5 187.7 263.4 183.5 M253.2 229.75 L244.15 223.5 250.5 222.55 260.15 227.6 281.75 231.45 281.8 231.45 282.05 231.5 284.1 231.65 284.25 231.75 Q287.85 231.95 291.6 231.75 L279.05 234.75 264.2 233.3 253.2 229.75 M271.85 245.2 L269.8 247.05 267.15 245.3 270.4 242.2 290.75 241.85 303.05 239.05 298.5 243.0 279.25 246.9 271.85 245.2 M255.95 252.5 L268.2 253.8 257.85 256.0 247.65 253.55 239.9 249.3 239.95 246.25 236.8 246.3 238.75 245.05 238.8 242.3 242.2 243.2 241.8 244.6 244.75 247.45 255.95 252.5" fill="#8a714a" fill-rule="evenodd" stroke="none"/>
  </g>
</svg>
