<?xml version="1.0" encoding="UTF-8" standalone="no"?>
<svg xmlns:xlink="http://www.w3.org/1999/xlink" height="170.25px" width="98.65px" xmlns="http://www.w3.org/2000/svg">
  <g transform="matrix(1.0, 0.0, 0.0, 1.0, -353.6, -221.45)">
    <path d="M379.7 240.2 Q380.15 233.2 380.9 225.85 367.9 232.35 356.1 248.4 L355.6 253.6 Q367.25 244.85 379.7 240.2 M378.9 257.65 Q365.8 260.9 354.6 267.5 L353.9 284.3 Q366.2 280.2 379.25 277.1 378.75 267.85 378.9 257.65 M388.1 322.8 Q383.75 311.75 381.4 297.85 L354.1 303.25 Q354.9 313.15 356.95 321.95 372.85 323.9 388.1 322.8 M372.65 354.75 Q396.75 362.8 416.85 357.3 407.0 352.0 399.75 343.15 382.15 344.9 364.55 342.3 367.5 347.95 371.25 352.95 L372.65 354.75" fill="#330000" fill-rule="evenodd" stroke="none"/>
    <path d="M379.7 240.2 Q367.25 244.85 355.6 253.6 L354.6 267.5 Q365.8 260.9 378.9 257.65 379.05 249.25 379.7 240.2 M379.25 277.1 Q366.2 280.2 353.9 284.3 L353.75 288.15 Q353.6 295.95 354.1 303.25 L381.4 297.85 Q379.8 288.15 379.25 277.1 M431.9 362.9 Q423.8 360.9 416.85 357.3 396.75 362.8 372.65 354.75 390.75 377.15 412.95 372.75 423.8 370.6 431.9 362.9 M364.55 342.3 Q382.15 344.9 399.75 343.15 392.7 334.6 388.1 322.8 372.85 323.9 356.95 321.95 359.65 333.05 364.55 342.3" fill="#ffcc00" fill-rule="evenodd" stroke="none"/>
    <path d="M380.9 225.85 Q380.15 233.2 379.7 240.2 405.05 230.75 433.8 238.4 L431.5 233.5 Q404.45 214.25 381.15 225.75 L380.9 225.85 M444.9 267.1 L439.7 252.5 Q408.7 250.95 378.9 257.65 378.75 267.85 379.25 277.1 410.25 269.5 444.9 267.1 M452.0 303.25 Q451.65 294.1 449.65 284.4 L381.4 297.85 Q383.75 311.75 388.1 322.8 421.65 320.3 452.0 303.25 M446.2 339.95 L446.95 338.2 Q449.85 330.25 451.05 321.85 429.2 336.1 399.75 343.15 407.0 352.0 416.85 357.3 432.75 352.85 446.2 339.95" fill="#6d0101" fill-rule="evenodd" stroke="none"/>
    <path d="M433.8 238.4 Q405.05 230.75 379.7 240.2 379.05 249.25 378.9 257.65 408.7 250.95 439.7 252.5 L433.8 238.4 M449.65 284.4 Q448.25 277.7 446.05 270.8 L444.9 267.1 Q410.25 269.5 379.25 277.1 379.8 288.15 381.4 297.85 L449.65 284.4 M451.05 321.85 Q452.5 312.8 452.0 303.25 421.65 320.3 388.1 322.8 392.7 334.6 399.75 343.15 429.2 336.1 451.05 321.85 M416.85 357.3 Q423.8 360.9 431.9 362.9 440.65 354.6 446.2 339.95 432.75 352.85 416.85 357.3" fill="#fce83f" fill-rule="evenodd" stroke="none"/>
    <path d="M355.6 253.6 L356.1 248.4 M431.5 233.5 L433.8 238.4 439.7 252.5 444.9 267.1 446.05 270.8 Q448.25 277.7 449.65 284.4 451.65 294.1 452.0 303.25 452.5 312.8 451.05 321.85 449.85 330.25 446.95 338.2 L446.2 339.95 Q440.65 354.6 431.9 362.9 423.8 370.6 412.95 372.75 390.75 377.15 372.65 354.75 L371.25 352.95 Q367.5 347.95 364.55 342.3 359.65 333.05 356.95 321.95 354.9 313.15 354.1 303.25 353.6 295.95 353.75 288.15 L353.9 284.3 354.6 267.5 355.6 253.6" fill="none" stroke="#000000" stroke-linecap="round" stroke-linejoin="round" stroke-opacity="0.4" stroke-width="0.2"/>
    <path d="M440.6 387.45 L419.35 360.25 Q420.95 356.5 424.0 355.25 L440.6 387.45" fill="#ff6600" fill-rule="evenodd" stroke="none"/>
    <path d="M424.0 355.25 Q426.1 354.4 428.95 354.75 L443.85 391.6 440.6 387.45 424.0 355.25" fill="#cc0000" fill-rule="evenodd" stroke="none"/>
    <path d="M440.6 387.45 L419.35 360.25 Q420.95 356.5 424.0 355.25 426.1 354.4 428.95 354.75 L443.85 391.6 440.6 387.45 Z" fill="none" stroke="#000000" stroke-linecap="round" stroke-linejoin="round" stroke-opacity="0.4" stroke-width="0.2"/>
  </g>
</svg>
