<?xml version="1.0" encoding="UTF-8" standalone="no"?>
<svg xmlns:xlink="http://www.w3.org/1999/xlink" height="18.35px" width="29.0px" xmlns="http://www.w3.org/2000/svg">
  <g transform="matrix(1.0, 0.0, 0.0, 1.0, -261.9, -191.6)">
    <path d="M283.5 195.15 L276.25 195.5 Q270.4 196.5 266.4 199.1 L266.05 199.35 Q262.55 201.75 262.6 204.25 L262.3 203.8 262.05 203.25 261.9 202.4 Q261.65 199.75 265.7 197.1 L265.95 196.95 Q269.85 194.45 275.55 193.5 L282.95 193.2 285.7 193.75 Q289.5 194.8 290.1 197.1 L290.15 197.3 290.15 197.7 290.2 197.95 Q289.05 196.55 286.4 195.75 L283.5 195.15" fill="#a37201" fill-rule="evenodd" stroke="none"/>
    <path d="M266.05 199.35 Q262.55 201.75 262.6 204.25 L262.3 203.8 262.05 203.25 261.9 202.4 Q261.65 199.75 265.7 197.1 L265.95 196.95 M282.95 193.2 L285.7 193.75 Q289.5 194.8 290.1 197.1 L290.15 197.3 290.15 197.7 290.2 197.95 Q289.05 196.55 286.4 195.75 L283.5 195.15" fill="none" stroke="#472d01" stroke-linecap="round" stroke-linejoin="round" stroke-width="0.05"/>
    <path d="M266.65 194.85 L272.85 194.1 273.65 195.4 272.15 196.1 272.1 196.1 Q264.7 195.2 263.05 202.45 262.65 199.6 264.05 197.5 L266.15 195.25 266.65 194.85 M273.2 198.65 Q274.15 198.15 275.3 197.8 L276.85 197.3 280.1 196.95 282.1 197.25 Q283.0 197.55 283.6 198.1 286.2 200.35 285.55 207.2 280.05 210.2 273.2 209.9 L271.8 209.75 Q269.95 203.55 271.0 200.8 271.5 199.55 273.2 198.65 M276.65 194.55 L276.65 193.85 Q278.45 193.9 278.95 194.4 L278.25 194.95 276.65 194.55 M282.3 199.15 Q278.0 201.8 274.9 201.7 L273.75 201.55 Q274.45 203.2 276.35 203.5 L279.45 202.95 Q283.0 201.75 282.6 200.0 L282.4 199.3 282.3 199.15" fill="#f3ecc7" fill-rule="evenodd" stroke="none"/>
    <path d="M263.05 202.45 Q264.7 195.2 272.1 196.1 270.55 197.7 273.2 198.65 271.5 199.55 271.0 200.8 269.95 203.55 271.8 209.75 267.0 209.45 265.45 207.35 263.4 204.7 263.05 202.45 M273.65 195.4 L272.85 194.1 276.65 193.85 276.65 194.55 273.7 195.4 273.65 195.4 M285.55 207.2 Q286.2 200.35 283.6 198.1 283.0 197.55 282.1 197.25 L280.1 196.95 278.25 194.95 278.95 194.4 Q280.9 195.25 281.65 196.15 287.65 193.5 289.35 200.25 289.3 202.7 287.9 204.9 286.6 206.9 285.55 207.2 M267.65 199.75 Q264.4 197.4 264.95 200.8 265.45 204.2 269.2 202.85 270.9 202.1 267.65 199.75" fill="#e98103" fill-rule="evenodd" stroke="none"/>
    <path d="M272.85 194.1 L272.1 193.0 276.75 191.8 276.65 193.85 272.85 194.1 M272.1 196.1 L272.15 196.1 273.75 196.35 275.3 197.8 Q274.15 198.15 273.2 198.65 270.55 197.7 272.1 196.1 M280.1 196.95 L276.85 197.3 277.0 196.45 Q277.45 195.65 278.25 194.95 L280.1 196.95 M285.35 193.4 L286.8 194.5 Q289.0 196.35 289.25 198.35 L289.35 200.25 Q287.65 193.5 281.65 196.15 280.9 195.25 278.95 194.4 281.35 192.8 285.35 193.4 M276.65 194.55 L276.65 195.3 274.0 195.8 273.7 195.4 276.65 194.55" fill="#b85e03" fill-rule="evenodd" stroke="none"/>
    <path d="M267.65 199.75 Q270.9 202.1 269.2 202.85 265.45 204.2 264.95 200.8 264.4 197.4 267.65 199.75" fill="#fcb670" fill-rule="evenodd" stroke="none"/>
    <path d="M272.85 194.1 L266.65 194.85 272.1 193.0 272.85 194.1 M272.15 196.1 L273.65 195.4 273.7 195.4 274.0 195.8 276.65 195.3 276.65 194.55 278.25 194.95 Q277.45 195.65 277.0 196.45 L276.85 197.3 275.3 197.8 273.75 196.35 272.15 196.1 M276.65 193.85 L276.75 191.8 Q280.7 191.45 282.25 191.75 L285.35 193.4 Q281.35 192.8 278.95 194.4 278.45 193.9 276.65 193.85" fill="#dabe7e" fill-rule="evenodd" stroke="none"/>
    <path d="M282.3 199.15 L282.4 199.3 282.6 200.0 Q283.0 201.75 279.45 202.95 L276.35 203.5 Q274.45 203.2 273.75 201.55 L274.9 201.7 Q278.0 201.8 282.3 199.15" fill="#ffffff" fill-rule="evenodd" stroke="none"/>
    <path d="M272.1 193.0 L266.65 194.85 M266.15 195.25 L264.05 197.5 Q262.65 199.6 263.05 202.45 263.4 204.7 265.45 207.35 267.0 209.45 271.8 209.75 L273.2 209.9 Q280.05 210.2 285.55 207.2 286.6 206.9 287.9 204.9 289.3 202.7 289.35 200.25 L289.25 198.35 Q289.0 196.35 286.8 194.5 L285.35 193.4 282.25 191.75 Q280.7 191.45 276.75 191.8 L272.1 193.0" fill="none" stroke="#634f2e" stroke-linecap="round" stroke-linejoin="round" stroke-width="0.05"/>
    <path d="M289.35 200.25 L290.75 201.0" fill="none" stroke="#553c00" stroke-linecap="round" stroke-linejoin="round" stroke-width="0.05"/>
    <path d="M266.45 207.65 L266.0 205.65 266.15 205.7 269.35 206.4 274.2 206.55 274.5 208.65 269.4 208.4 266.85 207.8 266.45 207.65" fill="#ffcf2b" fill-rule="evenodd" stroke="none"/>
    <path d="M274.5 208.65 L274.2 206.55 276.45 206.3 276.55 206.3 Q282.45 205.45 286.45 202.95 L288.35 201.65 288.35 204.25 287.2 205.05 Q283.1 207.55 277.15 208.35 L276.8 208.4 274.5 208.65" fill="#ffeec8" fill-rule="evenodd" stroke="none"/>
    <path d="M262.05 202.95 L262.35 203.4 Q263.4 204.75 266.0 205.65 L266.45 207.65 Q263.4 206.5 262.65 204.7 L262.4 204.1 262.05 202.95 M288.35 201.65 Q290.35 199.8 290.35 197.95 L290.4 198.0 290.9 201.1 Q290.4 202.7 288.35 204.25 L288.35 201.65" fill="#cd8f01" fill-rule="evenodd" stroke="none"/>
    <path d="M262.65 204.7 Q263.4 206.5 266.45 207.65 L266.85 207.8 269.4 208.4 274.5 208.65 276.8 208.4 277.15 208.35 Q283.1 207.55 287.2 205.05 L288.35 204.25 Q290.4 202.7 290.9 201.1" fill="none" stroke="#553c00" stroke-linecap="round" stroke-linejoin="round" stroke-width="0.05"/>
    <path d="M262.05 202.95 L262.4 204.1 262.65 204.7 M290.4 198.0 L290.3 197.3 M290.4 198.0 L290.9 201.1" fill="none" stroke="#553c00" stroke-linecap="round" stroke-linejoin="round" stroke-width="0.05"/>
    <path d="M266.0 205.65 Q263.4 204.75 262.35 203.4 M274.2 206.55 L269.35 206.4 266.15 205.7 266.0 205.65 M288.35 201.65 Q290.35 199.8 290.35 197.95 L290.4 198.0 M288.35 201.65 L286.45 202.95 Q282.45 205.45 276.55 206.3 L276.45 206.3 274.2 206.55" fill="none" stroke="#9c6201" stroke-linecap="round" stroke-linejoin="round" stroke-width="0.05"/>
    <path d="M282.3 206.95 L281.6 207.3 280.8 207.4 280.75 207.4 Q279.05 206.75 278.65 203.8 278.3 200.9 279.75 199.1 L280.4 198.8 Q281.1 198.5 281.75 198.8 284.6 202.75 282.3 206.95" fill="#ffcf2b" fill-rule="evenodd" stroke="none"/>
    <path d="M281.75 198.8 Q282.15 198.9 282.55 199.3 283.55 200.3 283.85 202.1 284.1 203.8 283.4 205.4 L282.3 206.95 Q284.6 202.75 281.75 198.8" fill="#ffffff" fill-rule="evenodd" stroke="none"/>
    <path d="M280.75 207.4 Q280.05 207.3 279.35 206.75 278.4 205.75 278.15 204.0 277.9 202.2 278.5 200.65 279.0 199.6 279.75 199.1 278.3 200.9 278.65 203.8 279.05 206.75 280.75 207.4" fill="#b47d01" fill-rule="evenodd" stroke="none"/>
    <path d="M281.75 198.8 Q282.15 198.9 282.55 199.3 283.55 200.3 283.85 202.1 284.1 203.8 283.4 205.4 L282.3 206.95 281.6 207.3 280.8 207.4 M280.75 207.4 Q280.05 207.3 279.35 206.75 278.4 205.75 278.15 204.0 277.9 202.2 278.5 200.65 279.0 199.6 279.75 199.1 L280.4 198.8 Q281.1 198.5 281.75 198.8" fill="none" stroke="#553c00" stroke-linecap="round" stroke-linejoin="round" stroke-width="0.05"/>
  </g>
</svg>
