<?xml version="1.0" encoding="UTF-8" standalone="no"?>
<svg xmlns:xlink="http://www.w3.org/1999/xlink" height="17.8px" width="18.65px" xmlns="http://www.w3.org/2000/svg">
  <g transform="matrix(1.0, 0.0, 0.0, 1.0, -266.15, -191.55)">
    <path d="M282.2 196.85 L281.35 201.45 Q282.35 201.65 283.15 202.6 283.7 203.5 283.6 204.25 283.3 204.95 282.15 204.85 279.7 204.85 277.45 207.2 276.05 208.65 273.95 209.25 L273.0 209.25 Q268.6 208.4 268.4 206.0 268.5 203.4 269.9 202.45 L269.95 203.0 269.95 203.05 269.2 203.85 Q268.45 205.65 268.9 206.65 269.35 208.2 272.8 208.85 L273.75 208.75 Q275.35 208.45 276.6 207.45 L276.95 207.1 277.4 206.65 Q279.0 205.25 280.55 204.65 L280.75 204.6 282.4 204.25 282.8 204.25 Q283.0 203.6 282.55 202.9 L281.25 202.0 281.25 201.95 280.55 203.0 281.7 197.6 282.2 196.85 M281.35 201.45 L281.25 201.95 281.35 201.45 M283.4 203.85 L282.8 204.25 283.4 203.85 M277.25 204.7 L274.3 205.1 273.8 205.05 273.55 203.4 273.5 199.7 Q276.65 199.6 279.3 198.9 278.1 200.25 277.25 204.7" fill="#a5794a" fill-rule="evenodd" stroke="none"/>
    <path d="M283.6 204.25 Q283.45 205.05 282.6 205.7 277.75 209.15 273.95 209.25 276.05 208.65 277.45 207.2 279.7 204.85 282.15 204.85 283.3 204.95 283.6 204.25 M274.35 207.55 L276.6 207.45 Q275.35 208.45 273.75 208.75 274.6 208.25 274.35 207.55 M268.9 206.65 Q268.45 205.65 269.2 203.85 L269.95 203.05 270.1 204.3 269.25 205.45 268.9 206.65" fill="#5f3c16" fill-rule="evenodd" stroke="none"/>
    <path d="M268.9 197.5 Q269.55 196.4 271.5 195.55 L273.4 194.95 279.95 194.5 Q281.2 194.9 281.85 195.65 L282.1 196.0 Q281.8 197.25 280.45 197.95 277.4 199.15 273.5 199.2 L271.7 199.1 Q269.2 198.8 268.9 197.5" fill="#47290e" fill-rule="evenodd" stroke="none"/>
    <path d="M282.1 196.0 L282.3 196.4 282.2 196.85 281.7 197.6 280.55 203.0 Q279.45 204.2 277.25 204.7 278.1 200.25 279.3 198.9 276.65 199.6 273.5 199.7 L273.55 203.4 273.8 205.05 273.4 205.0 Q272.9 202.45 273.1 199.65 L272.7 199.65 Q270.25 199.5 269.15 198.6 269.65 199.3 269.65 201.35 L268.65 198.05 Q268.7 197.8 268.9 197.5 269.2 198.8 271.7 199.1 L273.5 199.2 Q277.4 199.15 280.45 197.95 281.8 197.25 282.1 196.0 M280.75 204.6 L281.25 202.0 282.55 202.9 Q283.0 203.6 282.8 204.25 L282.4 204.25 280.75 204.6 M273.75 208.75 L272.8 208.85 Q269.35 208.2 268.9 206.65 L269.25 205.45 270.1 204.3 270.15 204.85 Q270.05 205.35 270.55 205.95 L271.05 206.5 Q272.4 207.4 274.35 207.55 274.6 208.25 273.75 208.75" fill="#926639" fill-rule="evenodd" stroke="none"/>
    <path d="M280.55 203.0 L281.25 201.95 281.25 202.0 280.75 204.6 280.55 204.65 280.55 203.0 M270.3 203.5 L270.55 205.95 Q270.05 205.35 270.15 204.85 L270.1 204.3 269.95 203.05 269.95 203.0 270.3 203.5" fill="#000000" fill-rule="evenodd" stroke="none"/>
    <path d="M280.55 203.0 L280.55 204.65 Q279.0 205.25 277.4 206.65 L276.95 207.1 277.25 204.7 Q279.45 204.2 280.55 203.0 M273.8 205.05 L274.05 206.75 274.35 207.55 Q272.4 207.4 271.05 206.5 L270.55 205.95 270.3 203.5 Q271.25 204.6 273.1 204.95 L273.4 205.0 273.8 205.05" fill="#18110b" fill-rule="evenodd" stroke="none"/>
    <path d="M276.95 207.1 L276.6 207.45 274.35 207.55 274.05 206.75 273.8 205.05 274.3 205.1 277.25 204.7 276.95 207.1" fill="#4d3222" fill-rule="evenodd" stroke="none"/>
    <path d="M269.95 203.05 L269.95 203.0 269.95 203.05" fill="#2e2214" fill-rule="evenodd" stroke="none"/>
    <path d="M273.4 205.0 L273.1 204.95 Q272.55 202.45 272.7 199.65 L273.1 199.65 Q272.9 202.45 273.4 205.0" fill="#6d4b2c" fill-rule="evenodd" stroke="none"/>
    <path d="M269.9 202.45 L269.65 201.35 Q269.65 199.3 269.15 198.6 270.25 199.5 272.7 199.65 272.55 202.45 273.1 204.95 271.25 204.6 270.3 203.5 L269.95 203.0 269.9 202.45" fill="#5a3612" fill-rule="evenodd" stroke="none"/>
    <path d="M268.9 197.5 Q269.55 196.4 271.5 195.55 L273.4 194.95 279.95 194.5 Q281.2 194.9 281.85 195.65 L282.1 196.0 282.3 196.4 282.2 196.85 281.35 201.45 Q282.35 201.65 283.15 202.6 283.7 203.5 283.6 204.25 283.45 205.05 282.6 205.7 277.75 209.15 273.95 209.25 L273.0 209.25 Q268.6 208.4 268.4 206.0 268.5 203.4 269.9 202.45 L269.65 201.35 268.65 198.05 Q268.7 197.8 268.9 197.5 M281.25 202.0 L281.25 201.95 280.55 203.0 Q279.45 204.2 277.25 204.7 L274.3 205.1 273.8 205.05 273.4 205.0 273.1 204.95 Q271.25 204.6 270.3 203.5 L269.95 203.0 269.9 202.45 M280.55 204.65 L280.75 204.6 281.25 202.0 M282.8 204.25 L283.4 203.85 M281.25 201.95 L281.35 201.45 M276.6 207.45 L276.95 207.1 277.4 206.65 Q279.0 205.25 280.55 204.65 M274.35 207.55 L276.6 207.45 Q275.35 208.45 273.75 208.75 M269.95 203.05 L269.95 203.0 M280.75 204.6 L282.4 204.25 282.8 204.25 M270.55 205.95 L271.05 206.5 Q272.4 207.4 274.35 207.55 M269.95 203.05 L270.1 204.3 270.15 204.85 Q270.05 205.35 270.55 205.95" fill="none" stroke="#000000" stroke-linecap="round" stroke-linejoin="round" stroke-opacity="0.4" stroke-width="0.2"/>
    <path d="M281.75 195.55 L283.5 195.15 Q284.9 195.0 284.7 196.2 L283.8 200.75 283.0 201.6 284.05 197.1 Q283.2 197.0 283.6 195.95 L282.25 196.35 282.15 196.15 281.75 195.55 M281.15 202.55 L281.35 201.3 Q282.25 201.45 282.7 200.45 282.35 201.5 282.55 201.85 282.2 202.35 281.15 202.55" fill="#a5794a" fill-rule="evenodd" stroke="none"/>
    <path d="M282.25 196.35 L283.6 195.95 Q283.2 197.0 284.05 197.1 L283.0 201.6 283.8 200.75 283.65 201.3 283.15 202.3 282.5 202.75 281.0 203.3 281.15 202.55 Q282.2 202.35 282.55 201.85 282.35 201.5 282.7 200.45 L283.0 199.3 Q283.4 197.1 282.95 196.95 L282.1 197.2 282.25 196.35" fill="#5f3c16" fill-rule="evenodd" stroke="none"/>
    <path d="M283.8 200.75 L284.7 196.2 Q284.9 195.0 283.5 195.15 L281.75 195.55 M283.8 200.75 L283.65 201.3 283.15 202.3 282.5 202.75 281.0 203.3 M281.35 201.3 Q282.25 201.45 282.7 200.45 L283.0 199.3 Q283.4 197.1 282.95 196.95 L282.1 197.2" fill="none" stroke="#000000" stroke-linecap="round" stroke-linejoin="round" stroke-opacity="0.4" stroke-width="0.2"/>
    <path d="M267.05 199.25 Q268.05 199.1 267.6 197.9 269.25 196.9 268.5 196.65 268.95 196.6 269.8 195.9 271.75 197.05 273.2 195.65 272.9 196.55 273.45 196.85 274.25 197.3 277.0 196.4 280.0 195.5 278.7 194.2 279.95 194.5 279.6 193.4 281.4 194.3 280.55 195.95 L280.75 196.85 Q280.2 198.1 278.3 198.75 276.2 199.3 275.0 198.5 L273.5 198.75 Q270.5 199.0 269.9 196.9 269.7 197.6 268.95 197.7 269.3 198.7 268.8 198.85 L269.4 199.15 269.75 199.9 269.75 200.0 Q269.75 200.45 269.4 200.8 269.1 201.15 268.6 201.15 L268.3 201.1 Q269.35 200.7 268.7 199.85 267.9 198.85 267.55 199.5 L267.05 199.25 M268.4 197.7 L268.95 197.7 268.4 197.7 M273.0 192.65 L273.85 192.05 Q273.45 192.65 274.1 193.0 273.5 192.75 273.0 192.65 M277.9 192.05 Q278.55 192.35 278.8 193.15 L277.3 193.3 276.1 192.95 Q278.3 192.8 277.9 192.05 M279.85 195.25 L280.55 195.95 279.85 195.25 M267.35 201.0 L267.5 201.1 267.7 201.65 267.5 202.15 266.95 202.35 Q266.65 202.35 266.45 202.15 L266.35 201.95 Q267.4 202.25 267.35 201.0 M275.0 198.5 L274.65 198.25 275.0 198.5" fill="#e7ecb5" fill-rule="evenodd" stroke="none"/>
    <path d="M279.6 193.4 Q279.95 194.5 278.7 194.2 280.0 195.5 277.0 196.4 274.25 197.3 273.45 196.85 272.9 196.55 273.2 195.65 271.75 197.05 269.8 195.9 268.95 196.6 268.5 196.65 269.25 196.9 267.6 197.9 268.05 199.1 267.05 199.25 266.35 198.55 266.7 196.85 267.3 195.25 268.6 195.05 268.85 193.55 270.55 192.8 L273.0 192.65 Q273.5 192.75 274.1 193.0 273.45 192.65 273.85 192.05 L277.15 191.8 277.9 192.05 Q278.3 192.8 276.1 192.95 L277.3 193.3 278.8 193.15 279.4 193.3 279.6 193.4 M267.55 199.5 Q267.9 198.85 268.7 199.85 269.35 200.7 268.3 201.1 268.0 201.05 267.8 200.8 267.45 200.45 267.45 200.0 L267.55 199.5 M268.6 195.05 L268.55 195.7 268.6 195.05 M266.35 201.95 L266.25 201.65 266.45 201.1 266.95 200.9 267.35 201.0 Q267.4 202.25 266.35 201.95" fill="#ffffff" fill-rule="evenodd" stroke="none"/>
    <path d="M267.05 199.25 L267.55 199.5 267.45 200.0 Q267.45 200.45 267.8 200.8 268.0 201.05 268.3 201.1 L268.6 201.15 Q269.1 201.15 269.4 200.8 269.75 200.45 269.75 200.0 L269.75 199.9 269.4 199.15 268.8 198.85 Q269.3 198.7 268.95 197.7 L268.4 197.7 M268.55 195.7 L268.6 195.05 Q267.3 195.25 266.7 196.85 266.35 198.55 267.05 199.25 M268.6 195.05 Q268.85 193.55 270.55 192.8 L273.0 192.65 273.85 192.05 277.15 191.8 277.9 192.05 Q278.55 192.35 278.8 193.15 L279.4 193.3 279.6 193.4 Q281.4 194.3 280.55 195.95 L280.75 196.85 Q280.2 198.1 278.3 198.75 276.2 199.3 275.0 198.5 L273.5 198.75 Q270.5 199.0 269.9 196.9 269.7 197.6 268.95 197.7 M273.0 192.65 Q273.5 192.75 274.1 193.0 M278.8 193.15 L277.3 193.3 M280.55 195.95 L279.85 195.25 M266.35 201.95 L266.25 201.65 266.45 201.1 266.95 200.9 267.35 201.0 267.5 201.1 267.7 201.65 267.5 202.15 266.95 202.35 Q266.65 202.35 266.45 202.15 L266.35 201.95 M274.65 198.25 L275.0 198.5" fill="none" stroke="#000000" stroke-linecap="round" stroke-linejoin="round" stroke-opacity="0.4" stroke-width="0.2"/>
  </g>
</svg>
