<?xml version="1.0" encoding="UTF-8" standalone="no"?>
<svg xmlns:xlink="http://www.w3.org/1999/xlink" height="33.6px" width="38.2px" xmlns="http://www.w3.org/2000/svg">
  <g transform="matrix(1.0, 0.0, 0.0, 1.0, -0.55, -4.25)">
    <path d="M23.75 8.0 L28.4 4.5 26.85 9.7 26.75 10.1 20.25 21.3 18.4 21.3 Q19.45 20.95 20.1 20.3 L20.9 19.2 21.5 17.45 21.6 16.5 21.55 15.4 Q21.4 14.4 20.8 13.55 20.1 12.65 19.1 12.7 L17.5 12.6 19.1 12.7 Q20.1 12.65 20.8 13.55 21.4 14.4 21.55 15.4 L21.6 16.5 21.5 17.45 20.9 19.2 20.1 20.3 Q19.45 20.95 18.4 21.3 L15.65 21.0 15.2 20.85 Q14.25 20.35 14.0 19.65 13.4 18.2 14.05 16.85 14.8 15.75 15.85 15.6 L18.55 15.75 Q19.3 16.6 19.4 17.35 19.6 18.6 18.5 19.3 L16.7 19.8 Q15.85 19.45 15.85 18.6 15.85 17.2 17.05 17.0 17.65 16.9 17.55 17.55 L17.3 18.95 17.55 17.55 Q17.65 16.9 17.05 17.0 15.85 17.2 15.85 18.6 15.85 19.45 16.7 19.8 L18.5 19.3 Q19.6 18.6 19.4 17.35 19.3 16.6 18.55 15.75 L15.85 15.6 Q14.8 15.75 14.05 16.85 13.4 18.2 14.0 19.65 14.25 20.35 15.2 20.85 L15.65 21.0 11.85 20.5 12.95 21.3 17.3 25.6 13.55 29.15 10.55 29.15 10.55 31.2 7.85 32.5 Q6.15 33.75 5.05 33.1 L2.15 33.55 4.9 28.15 8.7 25.75 6.85 23.35 9.25 19.05 13.55 15.2 17.3 14.55 17.5 12.6 22.25 8.9 22.75 9.3 Q22.6 9.55 22.6 9.75 L22.6 10.1 Q22.6 10.6 22.9 10.95 23.25 11.35 23.75 11.35 L23.9 11.35 24.3 11.25 24.75 10.95 24.95 10.75 25.1 10.55 25.45 9.4 25.4 8.65 25.2 8.25 24.8 7.95 24.2 7.85 23.75 8.0 M9.1 24.45 L9.1 24.35 9.9 24.75 9.1 24.45 9.9 24.75 9.1 24.35 8.7 23.65 Q8.5 22.6 10.2 22.1 13.1 21.95 13.05 24.85 L12.8 25.6 Q11.85 27.2 9.65 27.0 L9.1 27.0 Q7.05 27.0 5.35 28.4 4.6 28.95 4.25 29.9 4.0 30.55 4.1 31.15 4.1 30.8 4.25 30.45 4.6 29.5 5.35 28.9 7.25 27.4 9.65 27.45 12.1 27.95 13.35 25.85 L13.65 24.9 Q13.7 21.45 10.2 21.6 8.2 22.2 8.4 23.5 L9.1 24.45 M10.05 24.75 L9.9 24.75 10.05 24.75 10.8 24.6 11.5 23.8 11.45 23.4 Q11.05 22.6 10.4 23.15 10.9 22.9 11.2 23.55 L11.3 23.95 10.75 24.55 10.05 24.75 M4.1 31.15 Q4.0 31.95 4.45 32.55 L5.05 33.1 4.45 32.55 Q4.0 31.95 4.1 31.15 M7.0 30.6 Q6.65 31.55 5.8 31.35 5.15 29.9 6.65 29.2 L7.55 29.2 Q9.25 30.75 7.85 32.5 9.25 30.75 7.55 29.2 L6.65 29.2 Q5.15 29.9 5.8 31.35 6.65 31.55 7.0 30.6" fill="#f15081" fill-rule="evenodd" stroke="none"/>
    <path d="M15.5 32.25 L14.05 33.15 13.8 30.15 Q17.25 27.85 19.1 25.65 L19.45 27.85 19.6 28.95 16.15 31.8 15.5 32.25 M11.75 32.9 L11.8 34.35 Q9.4 35.45 6.75 36.15 L6.75 34.2 Q7.05 34.0 7.4 33.9 L8.55 33.25 7.4 33.9 Q7.05 34.0 6.75 34.2 L8.55 33.25 11.75 31.45 11.75 32.9 M5.2 26.75 L5.1 24.9 8.7 25.75 5.2 26.75 M24.9 15.0 L25.1 19.25 25.2 21.05 22.85 26.0 21.1 27.75 20.5 23.65 Q23.0 19.55 24.9 15.0 M14.85 13.4 L16.05 13.9 Q16.7 14.1 17.3 14.55 L16.15 14.55 14.8 14.55 14.85 13.4" fill="#972b54" fill-rule="evenodd" stroke="none"/>
    <path d="M22.5 7.95 L22.2 8.15 22.55 7.95 23.2 8.55 23.5 8.15 23.45 8.15 23.55 8.1 23.75 8.0 24.2 7.85 24.8 7.95 25.2 8.25 25.4 8.65 25.0 8.75 Q24.5 8.9 24.15 9.3 L24.1 9.35 Q24.85 10.15 24.75 10.95 L24.3 11.25 23.7 10.05 Q23.5 10.4 23.55 10.8 L23.75 11.35 Q23.25 11.35 22.9 10.95 22.6 10.6 22.6 10.1 L22.6 9.75 Q22.6 9.55 22.75 9.3 L22.25 8.9 21.7 8.45 Q18.1 5.65 13.75 6.2 10.25 6.25 8.2 8.1 7.0 9.1 6.3 10.65 5.9 11.45 5.95 12.5 L6.05 13.7 Q6.75 15.2 8.2 15.65 L8.8 15.8 11.45 16.15 11.4 16.2 11.05 16.5 8.3 16.35 8.2 16.35 Q6.05 15.75 5.1 13.8 L5.0 12.45 Q4.95 11.3 5.35 10.4 6.4 8.2 8.2 6.9 10.3 5.4 13.4 5.2 18.55 4.85 22.5 7.95 M26.75 10.1 L26.85 9.7 28.4 4.5 Q28.55 7.55 27.9 12.15 L27.75 12.95 27.25 15.25 Q29.9 14.9 32.85 15.25 34.95 15.75 36.3 17.25 37.6 18.75 38.1 20.85 39.0 24.4 38.7 28.2 L38.25 30.8 37.8 32.2 Q37.3 33.5 36.45 34.45 L34.65 35.9 32.6 37.0 Q31.1 37.7 29.25 37.85 L25.05 37.5 Q20.9 37.0 17.55 34.45 16.35 33.5 15.5 32.25 L16.15 31.8 Q16.95 32.9 18.05 33.8 21.15 36.2 25.05 36.65 L28.95 36.95 Q30.65 36.8 32.05 36.2 L33.95 35.15 35.6 33.8 Q36.45 32.9 36.9 31.7 L37.3 30.35 37.7 27.95 Q38.0 24.45 37.15 21.15 36.7 19.15 35.5 17.75 34.25 16.4 32.3 15.9 29.55 15.55 27.05 15.9 L27.05 16.05 26.25 18.5 25.1 19.25 24.9 15.0 26.6 10.5 26.75 10.1 M14.05 33.15 L14.05 33.2 11.75 32.9 11.75 31.45 11.85 31.4 11.7 30.1 13.8 30.15 14.05 33.15 M27.25 15.25 L27.05 15.9 27.25 15.25 M20.5 23.65 L21.1 27.75 21.1 27.8 19.45 27.85 19.1 25.65 12.95 21.3 11.85 20.5 20.5 23.65 M5.2 18.1 L8.7 17.8 8.4 18.35 6.0 18.65 Q5.45 18.85 5.2 19.35 L5.0 19.9 Q5.25 20.9 6.4 21.75 L6.25 22.05 Q4.45 20.85 4.1 19.6 4.15 19.2 4.35 18.9 4.6 18.3 5.2 18.1" fill="#541834" fill-rule="evenodd" stroke="none"/>
    <path d="M6.75 36.15 L1.0 37.1 0.8 35.1 6.75 34.2 6.75 36.15" fill="#b83470" fill-rule="evenodd" stroke="none"/>
    <path d="M18.4 21.3 L20.25 21.3 26.75 10.1 26.6 10.5 24.9 15.0 Q23.0 19.55 20.5 23.65 L11.85 20.5 15.65 21.0 18.4 21.3 M0.8 35.1 L1.3 33.65 2.15 33.55 5.05 33.1 Q6.15 33.75 7.85 32.5 L10.55 31.2 10.55 29.15 13.55 29.15 17.3 25.6 12.95 21.3 19.1 25.65 Q17.25 27.85 13.8 30.15 L11.7 30.1 11.85 31.4 11.75 31.45 8.55 33.25 6.75 34.2 0.8 35.1" fill="#f594b9" fill-rule="evenodd" stroke="none"/>
    <path d="M22.55 7.95 L23.15 7.65 23.1 7.55 Q25.65 5.95 28.4 4.5 L23.75 8.0 23.55 8.1 23.45 8.15 23.5 8.15 23.2 8.55 22.55 7.95 M21.7 8.45 L22.25 8.9 17.5 12.6 17.3 14.55 Q16.7 14.1 16.05 13.9 L14.85 13.4 14.8 13.35 14.95 13.25 15.65 12.7 21.7 8.45 M1.3 33.65 L4.1 27.05 5.2 26.75 8.7 25.75 4.9 28.15 2.15 33.55 1.3 33.65 M5.1 24.9 Q6.4 22.3 7.85 20.05 L8.7 18.65 11.05 16.5 11.4 16.2 11.45 16.15 Q12.35 15.3 13.35 14.55 L14.8 14.55 16.15 14.55 17.3 14.55 13.55 15.2 9.25 19.05 6.85 23.35 8.7 25.75 5.1 24.9 M9.1 24.35 L9.1 24.45 8.4 23.5 Q8.2 22.2 10.2 21.6 13.7 21.45 13.65 24.9 L13.35 25.85 Q12.1 27.95 9.65 27.45 7.25 27.4 5.35 28.9 4.6 29.5 4.25 30.45 4.1 30.8 4.1 31.15 4.0 30.55 4.25 29.9 4.6 28.95 5.35 28.4 7.05 27.0 9.1 27.0 L9.65 27.0 Q11.85 27.2 12.8 25.6 L13.05 24.85 Q13.1 21.95 10.2 22.1 8.5 22.6 8.7 23.65 L9.1 24.35 M10.05 24.75 L10.75 24.55 11.3 23.95 11.2 23.55 Q10.9 22.9 10.4 23.15 11.05 22.6 11.45 23.4 L11.5 23.8 10.8 24.6 10.05 24.75" fill="#fdb7da" fill-rule="evenodd" stroke="none"/>
    <path d="M23.1 7.55 L22.5 7.95 M23.2 8.55 L23.5 8.15 M23.45 8.15 L23.55 8.1 23.75 8.0 24.2 7.85 24.8 7.95 25.2 8.25 25.4 8.65 25.45 9.4 25.1 10.55 24.95 10.75 24.75 10.95 24.3 11.25 23.9 11.35 23.75 11.35 23.55 10.8 Q23.5 10.4 23.7 10.05 M28.4 4.5 Q25.65 5.95 23.1 7.55 M22.75 9.3 Q22.6 9.55 22.6 9.75 L22.6 10.1 Q22.6 10.6 22.9 10.95 23.25 11.35 23.75 11.35 M24.15 9.3 Q24.5 8.9 25.0 8.75 L25.4 8.65 M26.75 10.1 L26.85 9.7 28.4 4.5 Q28.55 7.55 27.9 12.15 L27.75 12.95 27.25 15.25 27.05 15.9 M15.5 32.25 L14.05 33.15 14.05 33.2 M11.8 34.35 Q9.4 35.45 6.75 36.15 L1.0 37.1 0.8 35.1 1.3 33.65 4.1 27.05 M5.1 24.9 Q6.4 22.3 7.85 20.05 L8.7 18.65 11.05 16.5 M26.75 10.1 L26.6 10.5 24.9 15.0 Q23.0 19.55 20.5 23.65 L11.85 20.5 M26.25 18.5 L27.05 16.05 M16.15 31.8 L15.5 32.25 M21.7 8.45 L15.65 12.7 14.95 13.25 14.8 13.35 M13.35 14.55 Q12.35 15.3 11.45 16.15 L11.4 16.2 M19.6 28.95 L16.15 31.8 M11.75 31.45 L11.85 31.4 11.7 30.1 13.8 30.15 Q17.25 27.85 19.1 25.65 M11.75 31.45 L8.55 33.25 7.4 33.9 Q7.05 34.0 6.75 34.2 L0.8 35.1" fill="none" stroke="#470000" stroke-linecap="round" stroke-linejoin="round" stroke-opacity="0.38039216" stroke-width="0.5"/>
    <path d="M17.5 12.6 L19.1 12.7 Q20.1 12.65 20.8 13.55 21.4 14.4 21.55 15.4 L21.6 16.5 21.5 17.45 20.9 19.2 20.1 20.3 Q19.45 20.95 18.4 21.3 L15.65 21.0 15.2 20.85 Q14.25 20.35 14.0 19.65 13.4 18.2 14.05 16.85 14.8 15.75 15.85 15.6 L18.55 15.75 Q19.3 16.6 19.4 17.35 19.6 18.6 18.5 19.3 L16.7 19.8 Q15.85 19.45 15.85 18.6 15.85 17.2 17.05 17.0 17.65 16.9 17.55 17.55 L17.3 18.95 M14.05 33.2 L11.75 32.9 11.8 34.35 M9.1 24.45 L9.9 24.75 9.1 24.35 8.7 23.65 Q8.5 22.6 10.2 22.1 13.1 21.95 13.05 24.85 L12.8 25.6 Q11.85 27.2 9.65 27.0 L9.1 27.0 Q7.05 27.0 5.35 28.4 4.6 28.95 4.25 29.9 4.0 30.55 4.1 31.15 4.1 30.8 4.25 30.45 4.6 29.5 5.35 28.9 7.25 27.4 9.65 27.45 12.1 27.95 13.35 25.85 L13.65 24.9 Q13.7 21.45 10.2 21.6 8.2 22.2 8.4 23.5 L9.1 24.45 M9.9 24.75 L10.05 24.75 10.75 24.55 11.3 23.95 11.2 23.55 Q10.9 22.9 10.4 23.15 11.05 22.6 11.45 23.4 L11.5 23.8 10.8 24.6 10.05 24.75 M5.05 33.1 L4.45 32.55 Q4.0 31.95 4.1 31.15 M7.85 32.5 Q6.15 33.75 5.05 33.1 M11.75 32.9 L11.75 31.45 M13.8 30.15 L14.05 33.15 M7.85 32.5 Q9.25 30.75 7.55 29.2 L6.65 29.2 Q5.15 29.9 5.8 31.35 6.65 31.55 7.0 30.6" fill="none" stroke="#470000" stroke-linecap="round" stroke-linejoin="round" stroke-opacity="0.38039216" stroke-width="0.1"/>
    <path d="M25.1 19.25 L26.25 18.5 M25.2 21.05 L25.1 19.25" fill="none" stroke="#6b0000" stroke-linecap="round" stroke-linejoin="round" stroke-width="0.1"/>
    <path d="M27.05 16.05 L27.05 15.9 Q29.55 15.55 32.3 15.9 M14.85 13.4 L14.8 14.55" fill="none" stroke="#541834" stroke-linecap="round" stroke-linejoin="round" stroke-width="0.1"/>
    <path d="M21.1 27.75 L22.85 26.0 25.2 21.05 M21.1 27.8 L21.1 27.75" fill="none" stroke="#541834" stroke-linecap="round" stroke-linejoin="round" stroke-width="0.5"/>
  </g>
</svg>
