<?xml version="1.0" encoding="UTF-8" standalone="no"?>
<svg xmlns:xlink="http://www.w3.org/1999/xlink" height="139.8px" width="77.35px" xmlns="http://www.w3.org/2000/svg">
  <g transform="matrix(1.0, 0.0, 0.0, 1.0, 38.15, 69.4)">
    <path d="M3.1 -69.4 Q4.2 -61.85 7.15 -56.0 10.5 -48.8 14.1 -28.95 14.8 -11.4 16.65 2.4 L16.65 2.95 Q19.1 32.6 33.15 48.25 L38.65 51.85 38.5 52.05 30.2 51.95 30.2 51.65 Q11.95 38.75 8.9 21.1 6.15 39.55 14.85 53.85 L14.55 54.05 13.65 55.35 13.3 57.15 13.2 58.1 Q12.4 61.95 8.15 63.1 L1.05 63.85 0.5 63.85 Q-11.2 45.3 -11.6 -0.25 -24.2 35.95 -19.55 65.55 L-19.55 65.65 -20.7 66.25 Q-22.1 67.05 -23.95 67.45 -36.4 56.3 -37.95 41.75 L-37.6 36.7 Q-37.05 27.6 -34.25 6.45 -31.65 -13.2 -31.2 -24.1 -24.95 -45.6 -26.95 -54.85 -16.45 -56.75 -9.25 -60.9 -3.65 -64.1 3.1 -69.4" fill="#84b32d" fill-rule="evenodd" stroke="none"/>
    <path d="M14.55 54.05 L14.85 53.85 14.95 53.85 14.55 54.05 M30.2 51.65 L30.2 51.95 26.95 51.85 30.2 51.65 M38.5 52.05 L38.65 51.85 38.95 52.05 39.1 52.15 38.95 52.15 38.5 52.05 M-38.05 41.75 L-38.05 39.65 -37.95 41.75 -38.05 41.75" fill="#555ba0" fill-rule="evenodd" stroke="none"/>
    <path d="M-37.95 41.75 Q-36.4 56.3 -23.95 67.45 L-20.7 70.1 -20.7 70.3 Q-32.0 71.05 -38.15 66.6 L-38.05 41.75 -37.95 41.75" fill="#daedb6" fill-rule="evenodd" stroke="none"/>
    <path d="M-19.55 65.65 L-19.55 65.55 Q-24.2 35.95 -11.6 -0.25 -11.2 45.3 0.5 63.85 L-6.65 63.85 Q-15.2 63.75 -19.55 65.65 M14.85 53.85 Q6.15 39.55 8.9 21.1 11.95 38.75 30.2 51.65 L26.95 51.85 15.2 53.75 14.85 53.85" fill="#6f9625" fill-rule="evenodd" stroke="none"/>
    <path d="M15.2 53.75 L15.1 53.85 14.95 53.85 14.85 53.85 15.2 53.75" fill="#43487e" fill-rule="evenodd" stroke="none"/>
    <path d="M-20.7 70.3 L-20.7 70.1 -20.45 70.3 -20.7 70.3" fill="#ffffff" fill-rule="evenodd" stroke="none"/>
    <path d="M38.65 51.85 L33.15 48.25 Q19.1 32.6 16.65 2.95 L16.65 2.4 Q14.8 -11.4 14.1 -28.95 10.5 -48.8 7.15 -56.0 4.2 -61.85 3.1 -69.4 M-26.95 -54.85 Q-24.95 -45.6 -31.2 -24.1 -31.65 -13.2 -34.25 6.45 -37.05 27.6 -37.6 36.7 L-37.95 41.75 Q-36.4 56.3 -23.95 67.45 -22.1 67.05 -20.7 66.25 L-19.55 65.65 -19.55 65.55 M0.5 63.85 L1.05 63.85 8.15 63.1 Q12.4 61.95 13.2 58.1 L13.3 57.15 13.65 55.35 14.55 54.05 14.85 53.85 M30.2 51.65 L30.2 51.95 38.5 52.05 38.65 51.85 38.95 52.05 39.2 52.15 39.1 52.15 38.95 52.15 38.5 52.05 M-37.95 41.75 L-38.05 41.75 M-38.15 66.6 Q-32.0 71.05 -20.7 70.3 L-20.45 70.3 -20.7 70.1 -23.95 67.45 M26.95 51.85 L30.2 51.95 M26.95 51.85 L15.2 53.75 15.1 53.85 14.95 53.85 M0.5 63.85 L-6.65 63.85 Q-15.2 63.75 -19.55 65.65" fill="none" stroke="#495b17" stroke-linecap="round" stroke-linejoin="round" stroke-width="0.05"/>
    <path d="M-6.35 -5.65 L-23.85 1.9 -16.0 -21.95 -6.35 -5.65" fill="#fbc409" fill-rule="evenodd" stroke="none"/>
    <path d="M-16.0 -21.95 L-23.85 1.9 -6.35 -5.65" fill="none" stroke="#7d4502" stroke-linecap="round" stroke-linejoin="round" stroke-width="0.05"/>
    <path d="M-15.75 -23.25 L-7.9 -47.3 1.75 -31.0 -15.75 -23.25" fill="#fbc409" fill-rule="evenodd" stroke="none"/>
    <path d="M-15.75 -23.25 L-7.9 -47.3 1.75 -31.0" fill="none" stroke="#7d4502" stroke-linecap="round" stroke-linejoin="round" stroke-width="0.05"/>
    <path d="M-5.0 -6.45 L2.85 -30.45 12.5 -14.2 -5.0 -6.45" fill="#fbc409" fill-rule="evenodd" stroke="none"/>
    <path d="M2.85 -30.45 L12.5 -14.2 -5.0 -6.45" fill="none" stroke="#7d4502" stroke-linecap="round" stroke-linejoin="round" stroke-width="0.05"/>
  </g>
</svg>
