<?xml version="1.0" encoding="UTF-8" standalone="no"?>
<svg xmlns:xlink="http://www.w3.org/1999/xlink" height="506.65px" width="342.1px" xmlns="http://www.w3.org/2000/svg">
  <g transform="matrix(1.0, 0.0, 0.0, 1.0, -136.05, 80.7)">
    <path d="M478.15 210.9 L471.55 224.4 432.3 262.8 430.45 252.3 478.15 210.9 M172.95 125.0 L172.95 121.0 225.95 194.95 219.2 192.35 178.85 138.1 172.95 125.0 M147.3 136.7 L148.05 114.0 160.4 179.9 158.6 186.65 147.3 136.7" fill="#ffffff" fill-rule="evenodd" stroke="none"/>
    <path d="M382.75 30.0 L417.25 -80.7 404.05 -14.05 382.75 30.0 M471.55 224.4 L437.75 293.45 432.3 262.8 471.55 224.4 M178.85 138.1 L219.2 192.35 203.8 186.5 199.95 185.0 178.85 138.1" fill="#c5bed3" fill-rule="evenodd" stroke="none"/>
    <path d="M410.8 26.65 L388.95 29.3 405.2 -7.1 410.8 26.65 M437.75 293.45 L453.0 304.75 413.95 314.25 433.05 297.6 437.75 293.45 M219.2 192.35 L225.95 194.95 211.95 250.95 210.6 243.4 210.55 243.1 209.7 235.85 203.8 186.5 219.2 192.35 M146.35 166.65 L147.3 136.7 158.6 186.65 153.15 206.95 146.35 166.65" fill="#756796" fill-rule="evenodd" stroke="none"/>
    <path d="M417.25 -80.7 L420.1 -12.1 410.8 26.65 405.2 -7.1 404.05 -14.05 417.25 -80.7 M471.55 224.4 L478.15 210.9 453.0 304.75 437.75 293.45 471.55 224.4 M427.0 265.1 L433.05 297.6 413.95 314.25 413.85 314.2 427.0 265.1 M225.95 194.95 L225.95 255.95 211.95 250.95 225.95 194.95 M209.2 235.9 L178.85 171.0 178.85 138.1 199.95 185.0 209.2 235.9 M137.0 128.0 L146.35 166.65 153.15 206.95 136.05 166.55 137.0 128.0" fill="#a49aba" fill-rule="evenodd" stroke="none"/>
    <path d="M388.95 29.3 L382.75 30.0 404.05 -14.05 405.2 -7.1 388.95 29.3 M430.45 252.3 L432.3 262.8 437.75 293.45 433.05 297.6 427.0 265.1 430.45 252.3 M172.95 125.0 L178.85 138.1 178.85 171.0 209.2 235.9 199.95 185.0 203.8 186.5 209.7 235.85 209.2 235.9 210.55 243.1 210.6 243.4 211.95 250.95 172.95 173.0 172.95 125.0 M137.0 128.0 L148.05 114.0 147.3 136.7 146.35 166.65 137.0 128.0" fill="#d0cbdc" fill-rule="evenodd" stroke="none"/>
    <path d="M417.25 -80.7 L420.1 -12.1 410.8 26.65 388.95 29.3 382.75 30.0 417.25 -80.7 404.05 -14.05 405.2 -7.1 410.8 26.65 M478.15 210.9 L471.55 224.4 437.75 293.45 453.0 304.75 478.15 210.9 430.45 252.3 432.3 262.8 437.75 293.45 433.05 297.6 413.95 314.25 453.0 304.75 M430.45 252.3 L427.0 265.1 413.85 314.2 413.85 314.25 413.95 314.25 M225.95 194.95 L172.95 121.0 172.95 125.0 178.85 138.1 199.95 185.0 203.8 186.5 219.2 192.35 225.95 194.95 225.95 255.95 211.95 250.95 172.95 173.0 172.95 125.0 M209.2 235.9 L199.95 185.0 M210.6 243.4 L211.95 250.95 225.95 194.95 M148.05 114.0 L137.0 128.0 146.35 166.65 147.3 136.7 148.05 114.0 160.4 179.9 158.6 186.65 153.15 206.95 136.05 166.55 137.0 128.0 M209.2 235.9 L210.55 243.1 M146.35 166.65 L153.15 206.95 M404.05 -14.05 L382.75 30.0" fill="none" stroke="#000000" stroke-linecap="round" stroke-linejoin="round" stroke-opacity="0.4" stroke-width="0.05"/>
    <path d="M329.8 110.7 L290.85 108.45 257.5 114.3 251.1 107.95 287.0 102.6 213.05 60.45 226.0 82.9 206.45 69.6 189.35 40.0 298.3 101.0 330.95 105.15 329.8 110.7" fill="#ffffff" fill-rule="evenodd" stroke="none"/>
    <path d="M303.8 131.25 L317.7 130.2 314.95 132.45 315.0 144.65 299.15 146.9 296.9 160.8 280.3 185.4 269.55 172.6 287.75 162.15 291.75 148.25 293.15 138.15 303.4 137.5 303.8 131.25 M203.7 105.45 L189.35 40.0 206.45 69.6 223.6 99.3 203.7 105.45" fill="#756796" fill-rule="evenodd" stroke="none"/>
    <path d="M257.5 114.3 L267.0 123.75 Q281.65 131.75 303.8 131.25 L303.4 137.5 293.15 138.15 291.75 148.25 287.75 162.15 269.55 172.6 245.85 144.35 Q263.25 135.6 284.95 141.5 L271.3 128.05 Q258.7 140.7 233.85 132.25 L203.7 105.45 223.6 99.3 251.1 107.95 257.5 114.3" fill="#9287ad" fill-rule="evenodd" stroke="none"/>
    <path d="M245.85 144.35 L240.85 138.4 233.85 132.25 Q258.7 140.7 271.3 128.05 L284.95 141.5 Q263.25 135.6 245.85 144.35" fill="#a49aba" fill-rule="evenodd" stroke="none"/>
    <path d="M329.8 110.7 L327.4 121.95 317.7 130.2 303.8 131.25 Q281.65 131.75 267.0 123.75 L257.5 114.3 290.85 108.45 329.8 110.7 M206.45 69.6 L226.0 82.9 213.05 60.45 287.0 102.6 251.1 107.95 223.6 99.3 206.45 69.6" fill="#c5bed3" fill-rule="evenodd" stroke="none"/>
    <path d="M317.7 130.2 L327.4 121.95 329.8 110.7 330.95 105.15 298.3 101.0 189.35 40.0 203.7 105.45 233.85 132.25 240.85 138.4 245.85 144.35 269.55 172.6 280.3 185.4 296.9 160.8 299.15 146.9 315.0 144.65 314.95 132.45 317.7 130.2 Z" fill="none" stroke="#000000" stroke-linecap="round" stroke-linejoin="round" stroke-opacity="0.4" stroke-width="0.05"/>
    <path d="M388.4 196.2 L395.75 185.2 395.75 184.75 391.65 175.05 408.1 173.9 Q411.0 188.85 401.85 199.15 L388.4 196.2" fill="#756796" fill-rule="evenodd" stroke="none"/>
    <path d="M393.8 145.45 L412.1 157.25 401.9 159.95 444.6 171.25 465.0 169.8 420.05 197.75 Q416.3 190.55 424.6 172.7 L408.1 173.9 391.65 175.05 388.8 169.35 388.1 167.85 393.8 145.45" fill="#a49aba" fill-rule="evenodd" stroke="none"/>
    <path d="M393.8 145.45 L396.45 135.85 422.05 153.65 465.0 169.8 444.6 171.25 401.9 159.95 412.1 157.25 393.8 145.45 M408.1 173.9 L424.6 172.7 Q416.3 190.55 420.05 197.75 L405.15 206.95 401.85 199.15 Q411.0 188.85 408.1 173.9" fill="#cac5d8" fill-rule="evenodd" stroke="none"/>
    <path d="M388.8 169.35 L388.1 167.85 M395.75 184.75 L391.65 175.05 M401.85 199.15 L405.15 206.95 M388.4 196.2 L401.85 199.15" fill="none" stroke="#000000" stroke-linecap="round" stroke-linejoin="round" stroke-opacity="0.4" stroke-width="1.0"/>
    <path d="M465.0 169.8 L422.05 153.65 396.45 135.85 M405.15 206.95 L420.05 197.75 465.0 169.8" fill="none" stroke="#000000" stroke-linecap="round" stroke-linejoin="round" stroke-opacity="0.4" stroke-width="0.05"/>
    <path d="M403.3 120.25 L403.95 120.0 403.3 120.25" fill="#e9e7e4" fill-rule="evenodd" stroke="none"/>
    <path d="M322.85 -25.75 L314.95 -35.0 345.95 -20.0 368.95 2.0 403.95 120.0 403.3 120.25 364.95 10.0 346.95 -10.0 322.85 -25.75 M314.95 -35.0 L314.95 -12.0 307.95 12.0 293.2 269.8 289.7 256.9 288.35 251.95 288.35 214.8 295.75 114.05 299.75 60.0 302.65 21.0 262.95 113.0 267.65 133.3 276.9 173.45 281.0 191.3 259.15 121.25 254.4 161.05 246.45 227.75 245.95 231.95 255.45 304.35 262.95 361.95 273.75 390.9 273.95 394.95 256.95 361.95 240.95 228.95 255.95 111.0 303.95 3.0 314.95 -35.0 M302.65 21.0 L303.95 3.0 302.65 21.0 M259.15 121.25 L255.95 111.0 259.15 121.25" fill="#ffffff" fill-rule="evenodd" stroke="none"/>
    <path d="M318.5 370.5 L323.35 392.05 330.95 425.95 343.95 279.95 349.8 253.45 351.95 288.95 359.95 207.45 375.95 135.0 371.55 171.8 364.6 229.75 371.55 171.8 379.95 306.95 364.6 229.75 363.3 240.85 352.95 321.95 348.4 343.65 352.95 321.95 363.3 240.85 372.7 304.15 377.4 370.4 370.95 361.95 348.4 343.65 347.15 349.4 330.95 425.95 302.95 358.95 308.95 327.95 318.5 370.5 M288.35 214.8 L288.35 251.95 289.7 256.9 279.85 286.4 Q286.4 211.35 270.95 179.0 264.45 161.25 254.4 161.05 L259.15 121.25 281.0 191.3 288.35 214.8" fill="#756796" fill-rule="evenodd" stroke="none"/>
    <path d="M356.7 53.25 L382.95 105.0 395.95 226.95 387.65 375.1 385.95 392.95 372.7 304.15 363.3 240.85 364.6 229.75 379.95 306.95 371.55 171.8 375.95 135.0 356.7 53.25 M289.7 256.9 L293.2 269.8 296.7 282.75 277.95 328.95 273.75 390.9 271.85 353.4 269.95 315.95 273.15 306.35 279.85 286.4 289.7 256.9 M300.65 297.35 L308.95 327.95 302.95 358.95 300.65 297.35" fill="#a49aba" fill-rule="evenodd" stroke="none"/>
    <path d="M323.35 392.05 Q320.55 118.25 343.95 -1.0 L350.8 28.05 388.95 100.0 401.95 221.95 387.65 375.1 395.95 226.95 382.95 105.0 356.7 53.25 350.8 28.05 356.7 53.25 375.95 135.0 359.95 207.45 351.95 288.95 349.8 253.45 343.95 279.95 330.95 425.95 323.35 392.05" fill="#c5bed3" fill-rule="evenodd" stroke="none"/>
    <path d="M314.95 -35.0 L322.85 -25.75 346.95 -10.0 364.95 10.0 403.3 120.25 403.9 122.0 401.95 221.95 388.95 100.0 350.8 28.05 343.95 -1.0 Q320.55 118.25 323.35 392.05 L318.5 370.5 314.95 131.0 314.95 -12.0 314.95 -35.0 M322.85 -25.75 L343.95 -1.0 322.85 -25.75 M347.15 349.4 L348.4 343.65 370.95 361.95 377.4 370.4 372.7 304.15 385.95 392.95 368.95 367.95 347.15 349.4 M302.65 21.0 L299.75 60.0 Q288.45 109.4 267.65 133.3 L262.95 113.0 302.65 21.0 M295.75 114.05 L288.35 214.8 281.0 191.3 276.9 173.45 Q281.1 128.15 295.75 114.05 M254.4 161.05 Q264.45 161.25 270.95 179.0 286.4 211.35 279.85 286.4 L273.15 306.35 Q256.6 283.0 246.45 227.75 L254.4 161.05 M273.75 390.9 L262.95 361.95 255.45 304.35 Q267.5 315.45 271.85 353.4 L273.75 390.9" fill="#cac5d8" fill-rule="evenodd" stroke="none"/>
    <path d="M314.95 -12.0 L314.95 131.0 318.5 370.5 308.95 327.95 300.65 297.35 296.7 282.75 293.2 269.8 307.95 12.0 314.95 -12.0 M299.75 60.0 L295.75 114.05 Q281.1 128.15 276.9 173.45 L267.65 133.3 Q288.45 109.4 299.75 60.0 M246.45 227.75 Q256.6 283.0 273.15 306.35 L269.95 315.95 271.85 353.4 Q267.5 315.45 255.45 304.35 L245.95 231.95 246.45 227.75" fill="#efedf3" fill-rule="evenodd" stroke="none"/>
    <path d="M314.95 -35.0 L322.85 -25.75 343.95 -1.0 350.8 28.05 356.7 53.25 375.95 135.0 359.95 207.45 M403.95 120.0 L368.95 2.0 345.95 -20.0 314.95 -35.0 303.95 3.0 302.65 21.0 299.75 60.0 295.75 114.05 288.35 214.8 288.35 251.95 289.7 256.9 293.2 269.8 296.7 282.75 300.65 297.35 308.95 327.95 318.5 370.5 323.35 392.05 330.95 425.95 347.15 349.4 348.4 343.65 352.95 321.95 363.3 240.85 364.6 229.75 371.55 171.8 375.95 135.0 M387.65 375.1 L401.95 221.95 388.95 100.0 350.8 28.05 M403.95 120.0 L403.9 122.0 401.95 221.95 M349.8 253.45 L343.95 279.95 330.95 425.95 302.95 358.95 300.65 297.35 M387.65 375.1 L385.95 392.95 368.95 367.95 347.15 349.4 M385.95 392.95 L372.7 304.15 363.3 240.85 M255.95 111.0 L259.15 121.25 281.0 191.3 288.35 214.8 M279.85 286.4 L289.7 256.9 M273.15 306.35 L279.85 286.4 M303.95 3.0 L255.95 111.0 240.95 228.95 256.95 361.95 273.95 394.95 273.75 390.9 271.85 353.4 269.95 315.95 273.15 306.35 M273.75 390.9 L277.95 328.95 296.7 282.75 M308.95 327.95 L302.95 358.95" fill="none" stroke="#000000" stroke-linecap="round" stroke-linejoin="round" stroke-opacity="0.4" stroke-width="0.05"/>
    <path d="M396.6 76.65 L418.85 52.9 424.85 51.0 398.75 83.85 398.75 102.55 389.45 113.2 395.7 81.55 396.6 76.65" fill="#ffffff" fill-rule="evenodd" stroke="none"/>
    <path d="M372.15 165.4 L364.75 202.9 364.75 159.9 336.0 118.0 344.7 126.0 352.75 130.2 360.75 134.45 368.8 138.7 368.8 138.8 371.55 161.1 368.8 138.8 368.8 138.7 360.75 134.45 383.1 133.8 Q372.15 143.05 371.55 161.1 L372.15 165.4" fill="#756796" fill-rule="evenodd" stroke="none"/>
    <path d="M438.75 46.55 L438.75 75.05 430.75 94.95 419.65 114.0 Q413.95 109.9 422.5 72.65 L438.75 46.55 M389.45 113.2 L398.75 102.55 411.55 87.9 Q412.2 113.75 397.4 133.35 L383.1 133.8 360.75 134.45 352.75 130.2 389.45 113.2" fill="#a49aba" fill-rule="evenodd" stroke="none"/>
    <path d="M344.7 126.0 L342.6 102.85 350.45 90.45 368.0 91.8 395.7 81.55 389.45 113.2 352.75 130.2 344.7 126.0" fill="#c5bed3" fill-rule="evenodd" stroke="none"/>
    <path d="M424.85 51.0 L438.75 46.55 422.5 72.65 Q413.95 109.9 419.65 114.0 L408.5 133.05 386.25 145.85 372.7 169.7 372.15 165.4 371.55 161.1 Q372.15 143.05 383.1 133.8 L397.4 133.35 Q412.2 113.75 411.55 87.9 L398.75 102.55 398.75 83.85 424.85 51.0 M350.45 90.45 L354.55 83.9 359.25 83.9 396.6 76.65 395.7 81.55 368.0 91.8 350.45 90.45 M408.5 133.05 L397.4 133.35 408.5 133.05" fill="#cac5d8" fill-rule="evenodd" stroke="none"/>
    <path d="M396.6 76.65 L418.85 52.9 424.85 51.0 438.75 46.55 438.75 75.05 430.75 94.95 419.65 114.0 408.5 133.05 386.25 145.85 372.7 169.7 M354.55 83.9 L344.05 77.2 M354.55 83.9 L359.25 83.9 396.6 76.65 M397.4 133.35 L408.5 133.05" fill="none" stroke="#000000" stroke-linecap="round" stroke-linejoin="round" stroke-opacity="0.4" stroke-width="0.05"/>
    <path d="M372.7 169.7 L372.15 165.4 371.55 161.1 368.8 138.8 368.8 138.7 360.75 134.45 352.75 130.2 344.7 126.0" fill="none" stroke="#000000" stroke-linecap="round" stroke-linejoin="round" stroke-opacity="0.4" stroke-width="1.0"/>
  </g>
</svg>
