<?xml version="1.0" encoding="UTF-8" standalone="no"?>
<svg xmlns:xlink="http://www.w3.org/1999/xlink" height="246.35px" width="200.05px" xmlns="http://www.w3.org/2000/svg">
  <g transform="matrix(1.0, 0.0, 0.0, 1.0, 100.0, 123.15)">
    <path d="M70.3 -22.9 L50.2 -12.35 48.4 -16.0 68.75 -26.65 70.3 -22.9 M-32.35 -60.35 Q-50.5 -56.55 -58.95 -51.0 L-63.75 -51.45 Q-56.45 -59.15 -41.85 -61.8 L-41.2 -62.15 Q-39.25 -62.5 -32.35 -60.35 M-21.55 -16.3 L-23.1 -12.4 -50.2 -19.65 -47.65 -24.35 -21.55 -16.3 M16.85 -68.5 Q35.05 -69.15 43.4 -60.15 41.75 -60.6 37.8 -58.8 33.0 -64.75 12.8 -66.85 15.45 -68.3 16.85 -68.5" fill="#aae0f7" fill-rule="evenodd" stroke="none"/>
    <path d="M70.3 -22.9 L68.75 -26.65 95.5 -43.15 Q99.0 -40.0 98.3 -37.6 L70.3 -22.9 M48.4 -16.0 L50.2 -12.35 29.5 -0.65 Q24.5 3.6 23.45 19.8 23.55 0.8 17.1 -1.4 L-23.1 -12.4 -21.55 -16.3 25.45 -3.55 46.2 -14.8 48.4 -16.0 M-93.2 -31.2 Q-93.6 -33.7 -90.5 -37.6 L-47.65 -24.35 -50.2 -19.65 -93.2 -31.2" fill="#ffd5a3" fill-rule="evenodd" stroke="none"/>
    <path d="M50.2 -12.35 L70.3 -22.9 73.25 18.7 67.4 28.7 73.7 24.9 74.6 37.65 Q66.0 58.05 53.8 58.8 L50.2 -12.35 M55.25 87.35 Q66.2 71.0 77.1 73.0 L78.0 85.7 Q78.3 89.9 76.8 91.75 66.85 103.3 51.65 108.35 55.95 105.3 55.9 100.1 L55.25 87.35" fill="#0396d4" fill-rule="evenodd" stroke="none"/>
    <path d="M50.2 -12.35 L53.8 58.8 55.25 87.35 55.9 100.1 Q55.95 105.3 51.65 108.35 L28.2 121.45 Q25.2 123.9 17.05 122.95 23.5 121.35 24.75 118.35 20.05 68.25 23.45 19.8 24.5 3.6 29.5 -0.65 L50.2 -12.35 M74.6 37.65 L73.7 24.9 Q71.55 24.6 73.25 18.7 L70.3 -22.9 98.3 -37.6 Q89.8 16.85 96.4 44.25 103.0 71.6 97.7 77.8 L76.8 91.75 Q78.3 89.9 78.0 85.7 L77.1 73.0 74.6 37.65" fill="#d87700" fill-rule="evenodd" stroke="none"/>
    <path d="M95.5 -43.15 L68.75 -26.65 Q70.7 -28.3 14.25 -44.2 30.25 -55.5 37.8 -58.8 41.75 -60.6 43.4 -60.15 L43.6 -60.1 95.5 -43.15 M-8.15 -51.2 Q-23.95 -57.7 -32.35 -60.35 -39.25 -62.5 -41.2 -62.15 L-10.65 -77.15 16.85 -68.5 Q15.45 -68.3 12.8 -66.85 6.2 -63.15 -8.15 -51.2 M46.2 -14.8 L25.45 -3.55 -21.55 -16.3 Q-21.75 -19.45 -8.0 -27.5 19.95 -23.75 46.2 -14.8 M-90.5 -37.6 L-64.45 -50.7 -63.75 -51.45 -30.35 -36.7 -33.95 -34.15 -47.65 -24.35 -90.5 -37.6" fill="#ff910b" fill-rule="evenodd" stroke="none"/>
    <path d="M53.8 58.8 Q66.0 58.05 74.6 37.65 L77.1 73.0 Q66.2 71.0 55.25 87.35 L53.8 58.8 M73.7 24.9 L67.4 28.7 73.25 18.7 Q71.55 24.6 73.7 24.9 M-26.75 -39.3 L-0.95 -31.45 -8.0 -27.5 Q-15.25 -31.45 -33.95 -34.15 L-30.35 -36.7 -26.75 -39.3 M-62.45 100.9 Q-67.45 96.75 -50.2 -19.65 L-23.1 -12.4 Q-38.3 104.15 -34.55 108.9 -47.8 108.1 -61.95 101.0 L-62.45 100.9" fill="#0077a8" fill-rule="evenodd" stroke="none"/>
    <path d="M68.75 -26.65 L48.4 -16.0 Q48.7 -20.25 -0.95 -31.45 L-26.75 -39.3 Q-50.05 -48.95 -58.95 -51.0 -50.5 -56.55 -32.35 -60.35 -23.95 -57.7 -8.15 -51.2 L14.25 -44.2 -8.15 -51.2 Q6.2 -63.15 12.8 -66.85 33.0 -64.75 37.8 -58.8 30.25 -55.5 14.25 -44.2 70.7 -28.3 68.75 -26.65 M-47.65 -24.35 L-33.95 -34.15 Q-15.25 -31.45 -8.0 -27.5 -21.75 -19.45 -21.55 -16.3 L-47.65 -24.35" fill="#0aaff5" fill-rule="evenodd" stroke="none"/>
    <path d="M-58.95 -51.0 Q-50.05 -48.95 -26.75 -39.3 L-30.35 -36.7 -63.75 -51.45 -58.95 -51.0 M-0.95 -31.45 Q48.7 -20.25 48.4 -16.0 L46.2 -14.8 Q19.95 -23.75 -8.0 -27.5 L-0.95 -31.45 M-23.1 -12.4 L17.1 -1.4 Q23.55 0.8 23.45 19.8 20.05 68.25 24.75 118.35 23.5 121.35 17.05 122.95 L14.15 122.45 13.4 122.25 -33.85 108.95 -34.55 108.9 Q-38.3 104.15 -23.1 -12.4 M-93.2 -31.2 L-50.2 -19.65 Q-67.45 96.75 -62.45 100.9 L-96.25 91.9 Q-103.5 81.6 -96.8 55.8 -94.75 47.75 -93.6 36.3 -90.35 32.95 -92.9 27.3 -91.45 3.85 -93.2 -31.2" fill="#b26900" fill-rule="evenodd" stroke="none"/>
    <path d="M70.3 -22.9 L68.75 -26.65 Q70.7 -28.3 14.25 -44.2 L-8.15 -51.2 Q-23.95 -57.7 -32.35 -60.35 -39.25 -62.5 -41.2 -62.15 L-10.65 -77.15 16.85 -68.5 Q35.05 -69.15 43.4 -60.15 L43.6 -60.1 95.5 -43.15 Q99.0 -40.0 98.3 -37.6 89.8 16.85 96.4 44.25 103.0 71.6 97.7 77.8 L76.8 91.75 Q78.3 89.9 78.0 85.7 L77.1 73.0 74.6 37.65 73.7 24.9 Q71.55 24.6 73.25 18.7 L70.3 -22.9 M48.4 -16.0 L50.2 -12.35 53.8 58.8 55.25 87.35 55.9 100.1 Q55.95 105.3 51.65 108.35 66.85 103.3 76.8 91.75 M-58.95 -51.0 Q-50.05 -48.95 -26.75 -39.3 L-0.95 -31.45 Q48.7 -20.25 48.4 -16.0 M-21.55 -16.3 L-23.1 -12.4 Q-38.3 104.15 -34.55 108.9 L-33.85 108.95 13.4 122.25 M-63.75 -51.45 Q-56.45 -59.15 -41.85 -61.8 L-41.2 -62.15 M-93.2 -31.2 Q-93.6 -33.7 -90.5 -37.6 L-64.45 -50.7 -63.75 -51.45 -58.95 -51.0 M-47.65 -24.35 L-33.95 -34.15 -30.35 -36.7 -26.75 -39.3 M-50.2 -19.65 L-47.65 -24.35 M-93.2 -31.2 Q-91.45 3.85 -92.9 27.3 -90.35 32.95 -93.6 36.3 -94.75 47.75 -96.8 55.8 -103.5 81.6 -96.25 91.9 L-62.45 100.9 Q-67.45 96.75 -50.2 -19.65 M37.8 -58.8 Q41.75 -60.6 43.4 -60.15 M16.85 -68.5 Q15.45 -68.3 12.8 -66.85 6.2 -63.15 -8.15 -51.2 M-8.0 -27.5 L-0.95 -31.45 M-8.0 -27.5 Q-21.75 -19.45 -21.55 -16.3 M14.25 -44.2 Q30.25 -55.5 37.8 -58.8 M-34.55 108.9 Q-47.8 108.1 -61.95 101.0 L-62.45 100.9 M51.65 108.35 L28.2 121.45 Q25.2 123.9 17.05 122.95" fill="none" stroke="#000000" stroke-linecap="round" stroke-linejoin="round" stroke-opacity="0.4" stroke-width="0.05"/>
    <path d="M61.45 -103.9 L52.4 -96.7 Q43.95 -113.4 24.6 -114.05 28.55 -118.7 33.05 -123.15 44.65 -110.35 61.45 -103.9 M-64.6 -120.35 Q-41.35 -101.95 -25.75 -99.55 L-17.85 -87.55 Q-39.15 -101.8 -52.65 -102.9 -59.05 -111.65 -64.6 -120.35" fill="#aae0f7" fill-rule="evenodd" stroke="none"/>
    <path d="M61.45 -103.9 Q68.15 -100.55 54.1 -83.75 L10.9 -45.7 7.3 -42.45 10.8 -48.55 Q26.65 -75.25 52.4 -96.7 L61.45 -103.9 M-14.6 -51.2 Q-48.55 -69.25 -64.35 -98.85 -74.7 -113.3 -64.6 -120.35 -59.05 -111.65 -52.65 -102.9 -34.0 -77.9 -7.6 -52.75 L-14.6 -51.2" fill="#0077a8" fill-rule="evenodd" stroke="none"/>
    <path d="M52.4 -96.7 Q26.65 -75.25 10.8 -48.55 L7.3 -42.45 2.75 -42.2 Q-1.3 -42.95 -1.1 -47.75 L-0.65 -54.3 -7.6 -52.75 Q-34.0 -77.9 -52.65 -102.9 -39.15 -101.8 -17.85 -87.55 L0.05 -60.35 Q4.5 -90.0 24.6 -114.05 43.95 -113.4 52.4 -96.7 M2.75 -42.2 L20.5 -74.6 Q14.5 -79.8 12.4 -68.7 L2.75 -42.2 M-0.35 -57.55 L-14.55 -75.6 Q-26.9 -82.8 -21.4 -72.9 L-0.65 -54.3 -0.35 -57.55 0.05 -60.35 -0.35 -57.55" fill="#0aaff5" fill-rule="evenodd" stroke="none"/>
    <path d="M7.3 -42.45 L10.9 -45.7 Q17.15 -40.75 11.65 -34.2 L-3.8 -36.2 Q-17.4 -42.8 -14.6 -51.2 L-7.6 -52.75 -0.65 -54.3 -1.1 -47.75 Q-1.3 -42.95 2.75 -42.2 L12.4 -68.7 Q14.5 -79.8 20.5 -74.6 L2.75 -42.2 7.3 -42.45 M-0.65 -54.3 L-21.4 -72.9 Q-26.9 -82.8 -14.55 -75.6 L-0.35 -57.55 -0.65 -54.3" fill="#0396d4" fill-rule="evenodd" stroke="none"/>
    <path d="M10.9 -45.7 L54.1 -83.75 Q68.15 -100.55 61.45 -103.9 L52.4 -96.7 Q26.65 -75.25 10.8 -48.55 L7.3 -42.45 10.9 -45.7 Q17.15 -40.75 11.65 -34.2 L-3.8 -36.2 Q-17.4 -42.8 -14.6 -51.2 -48.55 -69.25 -64.35 -98.85 -74.7 -113.3 -64.6 -120.35 -41.35 -101.95 -25.75 -99.55 L-17.85 -87.55 0.05 -60.35 Q4.5 -90.0 24.6 -114.05 28.55 -118.7 33.05 -123.15 44.65 -110.35 61.45 -103.9 M-52.65 -102.9 Q-59.05 -111.65 -64.6 -120.35 M2.75 -42.2 L7.3 -42.45 M2.75 -42.2 Q-1.3 -42.95 -1.1 -47.75 L-0.65 -54.3 -7.6 -52.75 -14.6 -51.2 M-0.65 -54.3 L-0.35 -57.55 0.05 -60.35 M-7.6 -52.75 Q-34.0 -77.9 -52.65 -102.9" fill="none" stroke="#000000" stroke-linecap="round" stroke-linejoin="round" stroke-opacity="0.4392157" stroke-width="0.05"/>
  </g>
</svg>
