<?xml version="1.0" encoding="UTF-8" standalone="no"?>
<svg xmlns:xlink="http://www.w3.org/1999/xlink" height="246.35px" width="200.05px" xmlns="http://www.w3.org/2000/svg">
  <g transform="matrix(1.0, 0.0, 0.0, 1.0, -175.45, -76.8)">
    <path d="M288.25 133.1 Q308.45 135.2 313.25 141.15 305.7 144.45 289.7 155.75 346.15 171.65 344.2 173.3 L323.85 183.95 Q324.15 179.7 274.5 168.5 L248.7 160.65 Q225.4 151.0 216.5 148.95 224.95 143.4 243.1 139.6 251.5 142.25 267.3 148.75 281.65 136.8 288.25 133.1 M267.45 172.45 Q253.7 180.5 253.9 183.65 L227.8 175.6 241.5 165.8 Q260.2 168.5 267.45 172.45 M267.3 148.75 L289.7 155.75 267.3 148.75" fill="#af27e3" fill-rule="evenodd" stroke="none"/>
    <path d="M292.3 131.45 Q290.9 131.65 288.25 133.1 281.65 136.8 267.3 148.75 251.5 142.25 243.1 139.6 236.2 137.45 234.25 137.8 L264.8 122.8 292.3 131.45 M313.25 141.15 Q317.2 139.35 318.85 139.8 L319.05 139.85 370.95 156.8 344.2 173.3 Q346.15 171.65 289.7 155.75 305.7 144.45 313.25 141.15 M184.95 162.35 L211.0 149.25 211.7 148.5 245.1 163.25 241.5 165.8 227.8 175.6 184.95 162.35 M253.9 183.65 Q253.7 180.5 267.45 172.45 295.4 176.2 321.65 185.15 311.3 190.8 300.9 196.4 L253.9 183.65" fill="#a9e226" fill-rule="evenodd" stroke="none"/>
    <path d="M288.25 133.1 Q290.9 131.65 292.3 131.45 310.5 130.8 318.85 139.8 317.2 139.35 313.25 141.15 308.45 135.2 288.25 133.1 M234.25 137.8 Q236.2 137.45 243.1 139.6 224.95 143.4 216.5 148.95 L211.7 148.5 Q219.0 140.8 233.6 138.15 233.95 138.0 234.25 137.8 M227.8 175.6 L253.9 183.65 252.35 187.55 225.25 180.3 227.8 175.6 M325.65 187.6 L323.85 183.95 344.2 173.3 345.75 177.05 325.65 187.6" fill="#dcacee" fill-rule="evenodd" stroke="none"/>
    <path d="M292.5 322.9 L289.6 322.4 288.85 322.2 241.6 308.9 240.9 308.85 Q237.15 304.1 252.35 187.55 L292.55 198.55 Q299.0 200.75 298.9 219.75 295.5 268.2 300.2 318.3 298.95 321.3 292.5 322.9 M213.0 300.85 L179.2 291.85 Q171.95 281.55 178.65 255.75 180.7 247.7 181.85 236.25 185.1 232.9 182.55 227.25 184.0 203.8 182.25 168.75 L225.25 180.3 Q208.0 296.7 213.0 300.85 M321.65 185.15 Q295.4 176.2 267.45 172.45 270.6 170.6 274.5 168.5 324.15 179.7 323.85 183.95 L321.65 185.15 M248.7 160.65 L245.1 163.25 211.7 148.5 216.5 148.95 Q225.4 151.0 248.7 160.65" fill="#709619" fill-rule="evenodd" stroke="none"/>
    <path d="M240.9 308.85 Q227.65 308.05 213.5 300.95 L213.0 300.85 Q208.0 296.7 225.25 180.3 L252.35 187.55 Q237.15 304.1 240.9 308.85 M267.45 172.45 Q260.2 168.5 241.5 165.8 L245.1 163.25 248.7 160.65 274.5 168.5 Q270.6 170.6 267.45 172.45 M329.25 258.75 Q341.45 258.0 350.05 237.6 L352.55 272.95 Q341.65 270.95 330.7 287.3 L329.25 258.75 M349.15 224.85 L342.85 228.65 348.7 218.65 Q347.0 224.55 349.15 224.85" fill="#6d0096" fill-rule="evenodd" stroke="none"/>
    <path d="M370.95 156.8 Q374.45 159.95 373.75 162.35 L345.75 177.05 344.2 173.3 370.95 156.8 M182.25 168.75 Q181.85 166.25 184.95 162.35 L227.8 175.6 225.25 180.3 182.25 168.75 M253.9 183.65 L300.9 196.4 Q311.3 190.8 321.65 185.15 L323.85 183.95 325.65 187.6 304.95 199.3 Q299.95 203.55 298.9 219.75 299.0 200.75 292.55 198.55 L252.35 187.55 253.9 183.65" fill="#d9f0a3" fill-rule="evenodd" stroke="none"/>
    <path d="M373.75 162.35 Q365.25 216.8 371.85 244.2 378.45 271.55 373.15 277.75 L352.25 291.7 Q353.75 289.85 353.45 285.65 L352.55 272.95 350.05 237.6 349.15 224.85 Q347.0 224.55 348.7 218.65 L345.75 177.05 373.75 162.35 M327.1 308.3 L303.65 321.4 Q300.65 323.85 292.5 322.9 298.95 321.3 300.2 318.3 295.5 268.2 298.9 219.75 299.95 203.55 304.95 199.3 L325.65 187.6 329.25 258.75 330.7 287.3 331.35 300.05 Q331.4 305.25 327.1 308.3" fill="#90bc21" fill-rule="evenodd" stroke="none"/>
    <path d="M352.25 291.7 Q342.3 303.25 327.1 308.3 331.4 305.25 331.35 300.05 L330.7 287.3 Q341.65 270.95 352.55 272.95 L353.45 285.65 Q353.75 289.85 352.25 291.7 M325.65 187.6 L345.75 177.05 348.7 218.65 342.85 228.65 349.15 224.85 350.05 237.6 Q341.45 258.0 329.25 258.75 L325.65 187.6" fill="#9313c4" fill-rule="evenodd" stroke="none"/>
    <path d="M292.3 131.45 Q290.9 131.65 288.25 133.1 281.65 136.8 267.3 148.75 251.5 142.25 243.1 139.6 236.2 137.45 234.25 137.8 L264.8 122.8 292.3 131.45 Q310.5 130.8 318.85 139.8 L319.05 139.85 370.95 156.8 Q374.45 159.95 373.75 162.35 365.25 216.8 371.85 244.2 378.45 271.55 373.15 277.75 L352.25 291.7 Q342.3 303.25 327.1 308.3 L303.65 321.4 Q300.65 323.85 292.5 322.9 M313.25 141.15 Q317.2 139.35 318.85 139.8 M288.85 322.2 L241.6 308.9 240.9 308.85 Q227.65 308.05 213.5 300.95 L213.0 300.85 179.2 291.85 Q171.95 281.55 178.65 255.75 180.7 247.7 181.85 236.25 185.1 232.9 182.55 227.25 184.0 203.8 182.25 168.75 181.85 166.25 184.95 162.35 L211.0 149.25 211.7 148.5 Q219.0 140.8 233.6 138.15 233.95 138.0 234.25 137.8 M289.7 155.75 Q305.7 144.45 313.25 141.15 M267.45 172.45 Q253.7 180.5 253.9 183.65 L252.35 187.55 Q237.15 304.1 240.9 308.85 M241.5 165.8 L227.8 175.6 225.25 180.3 Q208.0 296.7 213.0 300.85 M325.65 187.6 L323.85 183.95 Q324.15 179.7 274.5 168.5 270.6 170.6 267.45 172.45 M248.7 160.65 L274.5 168.5 M344.2 173.3 Q346.15 171.65 289.7 155.75 L267.3 148.75 M245.1 163.25 L248.7 160.65 Q225.4 151.0 216.5 148.95 L211.7 148.5 M245.1 163.25 L241.5 165.8 M345.75 177.05 L344.2 173.3 M350.05 237.6 L349.15 224.85 Q347.0 224.55 348.7 218.65 L345.75 177.05 M330.7 287.3 L331.35 300.05 Q331.4 305.25 327.1 308.3 M352.25 291.7 Q353.75 289.85 353.45 285.65 L352.55 272.95 350.05 237.6 M330.7 287.3 L329.25 258.75 325.65 187.6" fill="none" stroke="#000000" stroke-linecap="round" stroke-linejoin="round" stroke-opacity="0.4" stroke-width="0.05"/>
    <path d="M336.9 96.05 L327.85 103.25 Q319.4 86.55 300.05 85.9 304.0 81.25 308.5 76.8 320.1 89.6 336.9 96.05 M222.8 97.05 Q216.4 88.3 210.85 79.6 234.1 98.0 249.7 100.4 L257.6 112.4 Q236.3 98.15 222.8 97.05" fill="#dcacee" fill-rule="evenodd" stroke="none"/>
    <path d="M327.85 103.25 L336.9 96.05 Q343.6 99.4 329.55 116.2 L286.35 154.25 282.75 157.5 286.25 151.4 Q302.1 124.7 327.85 103.25 M260.85 148.75 Q226.9 130.7 211.1 101.1 200.75 86.65 210.85 79.6 216.4 88.3 222.8 97.05 241.45 122.05 267.85 147.2 L260.85 148.75" fill="#6d0096" fill-rule="evenodd" stroke="none"/>
    <path d="M300.05 85.9 Q319.4 86.55 327.85 103.25 302.1 124.7 286.25 151.4 L282.75 157.5 278.2 157.75 295.95 125.35 Q289.95 120.15 287.85 131.25 L278.2 157.75 Q274.15 157.0 274.35 152.2 L274.8 145.65 267.85 147.2 Q241.45 122.05 222.8 97.05 236.3 98.15 257.6 112.4 L275.5 139.6 Q279.95 109.95 300.05 85.9 M275.1 142.4 L260.9 124.35 Q248.55 117.15 254.05 127.05 L274.8 145.65 275.1 142.4 275.5 139.6 275.1 142.4" fill="#af27e3" fill-rule="evenodd" stroke="none"/>
    <path d="M282.75 157.5 L286.35 154.25 Q292.6 159.2 287.1 165.75 L271.65 163.75 Q258.05 157.15 260.85 148.75 L267.85 147.2 274.8 145.65 274.35 152.2 Q274.15 157.0 278.2 157.75 L287.85 131.25 Q289.95 120.15 295.95 125.35 L278.2 157.75 282.75 157.5 M274.8 145.65 L254.05 127.05 Q248.55 117.15 260.9 124.35 L275.1 142.4 274.8 145.65" fill="#9313c4" fill-rule="evenodd" stroke="none"/>
    <path d="M327.85 103.25 L336.9 96.05 Q320.1 89.6 308.5 76.8 304.0 81.25 300.05 85.9 279.95 109.95 275.5 139.6 L257.6 112.4 249.7 100.4 Q234.1 98.0 210.85 79.6 200.75 86.65 211.1 101.1 226.9 130.7 260.85 148.75 L267.85 147.2 Q241.45 122.05 222.8 97.05 216.4 88.3 210.85 79.6 M327.85 103.25 Q302.1 124.7 286.25 151.4 L282.75 157.5 286.35 154.25 329.55 116.2 Q343.6 99.4 336.9 96.05 M278.2 157.75 L282.75 157.5 M274.8 145.65 L275.1 142.4 275.5 139.6 M278.2 157.75 Q274.15 157.0 274.35 152.2 L274.8 145.65 267.85 147.2 M260.85 148.75 Q258.05 157.15 271.65 163.75 L287.1 165.75 Q292.6 159.2 286.35 154.25" fill="none" stroke="#000000" stroke-linecap="round" stroke-linejoin="round" stroke-opacity="0.4392157" stroke-width="0.05"/>
  </g>
</svg>
