<?xml version="1.0" encoding="UTF-8" standalone="no"?>
<svg xmlns:xlink="http://www.w3.org/1999/xlink" height="37.1px" width="16.75px" xmlns="http://www.w3.org/2000/svg">
  <g transform="matrix(1.0, 0.0, 0.0, 1.0, -283.85, -170.25)">
    <path d="M291.85 171.55 L293.7 170.25 Q294.75 171.55 295.1 173.1 L295.15 173.25 295.15 173.35 295.5 180.85 295.5 181.1 Q295.65 185.75 296.1 189.4 L296.1 189.55 Q296.65 197.35 299.75 201.5 L300.6 203.05 299.1 202.5 Q296.2 200.0 295.05 196.9 L293.85 190.3 293.15 175.05 291.85 171.55 M286.95 203.75 L287.55 206.4 287.05 206.6 Q284.25 203.65 283.9 199.8 L284.0 198.45 Q284.1 196.05 284.75 190.45 L285.4 182.4 Q285.55 177.9 284.85 174.25 L287.15 173.65 288.2 181.3 286.95 203.75" fill="#c4ae35" fill-rule="evenodd" stroke="none"/>
    <path d="M294.65 200.3 L293.75 202.05 292.4 202.8 291.4 202.9 Q289.85 197.85 289.8 188.7 287.45 196.55 287.75 203.25 L286.95 203.75 288.2 181.3 287.15 173.65 Q289.75 172.8 291.85 171.55 L293.15 175.05 293.85 190.3 295.05 196.9 Q294.55 195.65 294.35 194.35 293.95 197.55 294.65 200.3" fill="#a98d30" fill-rule="evenodd" stroke="none"/>
    <path d="M295.65 199.65 L294.65 200.3 Q293.95 197.55 294.35 194.35 294.55 195.65 295.05 196.9 L295.65 199.65 M291.4 202.9 L287.75 203.25 Q287.45 196.55 289.8 188.7 289.85 197.85 291.4 202.9" fill="#846726" fill-rule="evenodd" stroke="none"/>
    <path d="M299.1 202.5 L299.05 202.5 296.7 202.4 295.65 199.65 295.05 196.9 Q296.2 200.0 299.1 202.5" fill="#b39533" fill-rule="evenodd" stroke="none"/>
    <path d="M287.05 206.6 L287.75 207.3 287.75 207.35 Q285.2 207.55 283.85 206.35 L283.9 199.8 Q284.25 203.65 287.05 206.6" fill="#a68a2f" fill-rule="evenodd" stroke="none"/>
    <path d="M283.9 199.8 L283.9 199.25 283.9 199.8" fill="#555ba0" fill-rule="evenodd" stroke="none"/>
    <path d="M287.75 207.3 L287.8 207.35 287.75 207.35 287.75 207.3" fill="#ffffff" fill-rule="evenodd" stroke="none"/>
    <path d="M291.85 171.55 L293.7 170.25 Q294.75 171.55 295.1 173.1 L295.15 173.25 295.15 173.35 295.5 180.85 295.5 181.1 Q295.65 185.75 296.1 189.4 L296.1 189.55 Q296.65 197.35 299.75 201.5 L300.6 203.05 299.1 202.5 299.05 202.5 296.7 202.4 295.65 199.65 294.65 200.3 293.75 202.05 292.4 202.8 291.4 202.9 287.75 203.25 286.95 203.75 287.55 206.4 287.05 206.6 287.75 207.3 287.8 207.35 287.75 207.35 Q285.2 207.55 283.85 206.35 M283.9 199.8 L284.0 198.45 Q284.1 196.05 284.75 190.45 L285.4 182.4 Q285.55 177.9 284.85 174.25 L287.15 173.65 Q289.75 172.8 291.85 171.55 M287.05 206.6 Q284.25 203.65 283.9 199.8" fill="none" stroke="#7b6b53" stroke-linecap="round" stroke-linejoin="round" stroke-width="0.05"/>
    <path d="M293.35 179.3 L293.45 181.3 M293.15 175.3 L293.25 177.3 M288.2 181.6 L288.1 183.6 M287.7 177.65 L288.0 179.6 M287.15 173.65 L287.45 175.65 M287.6 193.6 L287.5 195.6 M287.8 189.6 L287.7 191.6 M294.75 195.3 L295.05 196.9 295.15 197.2 M294.05 191.3 L294.45 193.3 M293.75 187.3 L293.85 189.3 M288.0 185.6 L287.9 187.6 M293.55 183.3 L293.65 185.3 M291.85 171.55 L292.55 173.45 M295.55 199.15 L295.65 199.65 M287.15 201.6 L286.95 203.6 M287.4 197.6 L287.25 199.6" fill="none" stroke="#dbc653" stroke-linecap="round" stroke-linejoin="round" stroke-width="1.0"/>
  </g>
</svg>
