<?xml version="1.0" encoding="UTF-8" standalone="no"?>
<svg xmlns:xlink="http://www.w3.org/1999/xlink" height="85.1px" width="130.75px" xmlns="http://www.w3.org/2000/svg">
  <g transform="matrix(1.0, 0.0, 0.0, 1.0, 0.75, 0.0)">
    <path d="M124.6 4.6 L125.85 4.85 125.6 7.05 125.0 6.8 124.7 6.9 Q115.15 10.0 51.45 12.65 46.1 10.45 43.05 10.2 36.4 9.55 32.1 10.35 29.3 10.85 26.35 13.55 L12.7 14.0 5.0 13.55 3.25 13.2 3.15 12.2 7.7 10.8 10.1 10.05 Q67.15 -6.8 124.6 4.6 M125.4 8.7 L123.75 21.55 Q129.3 29.85 129.25 32.1 106.8 45.85 74.9 47.4 L70.55 47.55 63.2 47.55 59.8 47.45 58.0 47.4 57.8 47.4 57.9 47.15 Q58.75 44.35 58.7 41.15 58.6 33.25 57.4 29.05 60.0 26.3 63.4 23.65 65.15 21.85 67.6 20.45 60.95 16.85 55.85 14.55 118.05 11.85 125.4 8.7 M20.05 43.1 Q9.0 40.65 2.65 37.0 L0.0 33.75 Q0.1 30.8 4.65 27.1 L3.5 15.3 12.7 16.05 24.3 15.7 23.1 17.15 Q18.4 23.1 18.35 33.0 18.3 38.45 20.05 43.1 M123.75 27.35 L123.75 21.55 123.75 27.35 M4.9 30.05 L4.65 27.1 4.9 30.05" fill="#000000" fill-rule="evenodd" stroke="none"/>
    <path d="M26.35 13.55 Q29.3 10.85 32.1 10.35 36.4 9.55 43.05 10.2 46.1 10.45 51.45 12.65 53.5 13.45 55.85 14.55 60.95 16.85 67.6 20.45 65.15 21.85 63.4 23.65 60.0 26.3 57.4 29.05 58.6 33.25 58.7 41.15 58.75 44.35 57.9 47.15 L57.8 47.4 57.75 47.55 Q56.5 51.35 53.45 54.4 48.05 59.75 43.6 59.95 39.1 60.2 34.5 58.65 32.4 57.95 30.05 56.1 27.2 53.9 24.05 50.05 L22.25 47.55 Q20.9 45.45 20.05 43.1 18.3 38.45 18.35 33.0 18.4 23.1 23.1 17.15 L24.3 15.7 26.35 13.55 M41.7 14.45 Q35.8 13.55 31.65 15.45 30.55 15.9 29.6 16.6 27.3 17.9 25.45 20.8 21.4 26.05 21.95 34.05 22.25 39.35 24.55 44.0 L26.65 47.55 26.9 47.9 28.5 49.9 Q32.45 54.35 37.9 55.6 44.75 56.85 49.7 51.95 51.6 50.0 52.8 47.55 L52.95 47.15 Q54.7 43.15 54.6 37.95 54.45 32.15 52.2 27.45 54.8 24.25 59.1 20.85 50.15 16.4 44.35 15.0 L41.7 14.45" fill="#ffffff" fill-rule="evenodd" stroke="none"/>
    <path d="M41.7 14.45 L44.35 15.0 Q50.15 16.4 59.1 20.85 54.8 24.25 52.2 27.45 54.45 32.15 54.6 37.95 54.7 43.15 52.95 47.15 L52.8 47.55 Q51.6 50.0 49.7 51.95 44.75 56.85 37.9 55.6 32.45 54.35 28.5 49.9 L26.9 47.9 26.65 47.55 24.55 44.0 Q22.25 39.35 21.95 34.05 21.4 26.05 25.45 20.8 27.3 17.9 29.6 16.6 30.55 15.9 31.65 15.45 35.8 13.55 41.7 14.45" fill="#2b0000" fill-rule="evenodd" stroke="none"/>
    <path d="M36.8 77.75 Q34.35 72.8 30.05 56.1 32.4 57.95 34.5 58.65 39.1 60.2 43.6 59.95 48.05 59.75 53.45 54.4 56.5 51.35 57.75 47.55 L57.8 47.4 58.0 47.4 58.05 47.55 Q58.35 48.65 58.35 50.85 58.35 53.9 54.8 65.6 53.9 68.6 37.0 64.35 43.8 69.85 36.8 77.75" fill="#b0936b" fill-rule="evenodd" stroke="none"/>
    <path d="M62.6 51.6 Q63.6 50.7 64.8 50.85 65.95 51.0 66.25 51.55 L66.75 52.45 66.95 53.5 66.95 54.55 66.5 56.05 Q66.1 57.15 65.45 57.65 L64.25 58.2 62.85 58.15 Q62.1 58.0 61.4 57.05 L61.55 56.9 Q64.15 54.2 62.7 51.7 L62.6 51.6 M62.3 69.9 L62.95 69.9 Q63.6 70.05 64.45 71.1 65.2 72.05 65.25 73.55 65.25 75.1 64.55 75.85 L63.35 76.9 62.3 77.05 61.05 76.9 60.35 76.45 60.85 76.4 Q61.2 76.4 61.8 74.1 62.3 71.8 61.5 71.35 60.7 70.85 60.15 71.15 60.95 70.05 62.15 69.95 L62.3 69.9" fill="#947b5a" fill-rule="evenodd" stroke="none"/>
    <path d="M62.6 51.6 L62.7 51.7 Q64.15 54.2 61.55 56.9 L61.4 57.05 61.4 56.85 Q60.7 55.75 61.0 54.2 61.35 52.65 62.55 51.7 L62.6 51.6 M60.15 71.15 Q60.7 70.85 61.5 71.35 62.3 71.8 61.8 74.1 61.2 76.4 60.85 76.4 L60.35 76.45 Q59.4 75.4 59.25 73.9 59.25 72.55 60.15 71.15" fill="#61503b" fill-rule="evenodd" stroke="none"/>
    <path d="M74.9 47.4 L74.9 47.55 74.25 51.65 Q72.9 60.9 71.35 67.4 69.7 74.1 67.95 77.8 L67.3 79.05 Q66.15 81.15 64.85 81.9 58.05 86.05 49.3 83.1 L47.8 82.55 Q38.1 78.8 36.8 77.75 43.8 69.85 37.0 64.35 53.9 68.6 54.8 65.6 58.35 53.9 58.35 50.85 58.35 48.65 58.05 47.55 L58.0 47.4 59.8 47.45 63.2 47.55 70.55 47.55 74.9 47.4 M61.4 57.05 Q62.1 58.0 62.85 58.15 L64.25 58.2 65.45 57.65 Q66.1 57.15 66.5 56.05 L66.95 54.55 66.95 53.5 66.75 52.45 66.25 51.55 Q65.95 51.0 64.8 50.85 63.6 50.7 62.6 51.6 L62.55 51.7 Q61.35 52.65 61.0 54.2 60.7 55.75 61.4 56.85 L61.4 57.05 M60.35 76.45 L61.05 76.9 62.3 77.05 63.35 76.9 64.55 75.85 Q65.25 75.1 65.25 73.55 65.2 72.05 64.45 71.1 63.6 70.05 62.95 69.9 L62.3 69.9 62.15 69.9 62.15 69.95 Q60.95 70.05 60.15 71.15 59.25 72.55 59.25 73.9 59.4 75.4 60.35 76.45 M40.75 71.4 L40.7 71.3 40.7 71.4 40.75 71.4 M42.05 76.2 L42.0 76.25 42.05 76.35 42.05 76.2" fill="#a78658" fill-rule="evenodd" stroke="none"/>
    <path d="M3.25 13.2 L5.0 13.55 12.7 14.0 26.35 13.55 24.3 15.7 12.7 16.05 3.5 15.3 3.25 13.2 M51.45 12.65 Q115.15 10.0 124.7 6.9 L125.0 6.8 125.6 7.05 125.4 8.7 Q118.05 11.85 55.85 14.55 53.5 13.45 51.45 12.65" fill="#313131" fill-rule="evenodd" stroke="none"/>
    <path d="M125.6 7.05 L125.85 4.85 124.6 4.6 M7.7 10.8 L3.15 12.2 3.25 13.2 3.5 15.3 4.65 27.1 4.9 30.05 M26.35 13.55 Q29.3 10.85 32.1 10.35 36.4 9.55 43.05 10.2 46.1 10.45 51.45 12.65 53.5 13.45 55.85 14.55 60.95 16.85 67.6 20.45 65.15 21.85 63.4 23.65 60.0 26.3 57.4 29.05 58.6 33.25 58.7 41.15 58.75 44.35 57.9 47.15 L57.8 47.4 58.0 47.4 59.8 47.45 63.2 47.55 70.55 47.55 74.9 47.4 74.9 47.55 74.25 51.65 Q72.9 60.9 71.35 67.4 69.7 74.1 67.95 77.8 L67.3 79.05 Q66.15 81.15 64.85 81.9 58.05 86.05 49.3 83.1 L47.8 82.55 Q38.1 78.8 36.8 77.75 34.35 72.8 30.05 56.1 27.2 53.9 24.05 50.05 L22.25 47.55 Q20.9 45.45 20.05 43.1 9.0 40.65 2.65 37.0 L0.0 33.75 Q0.1 30.8 4.65 27.1 M125.6 7.05 L125.4 8.7 123.75 21.55 Q129.3 29.85 129.25 32.1 106.8 45.85 74.9 47.4 M123.75 21.55 L123.75 27.35 M41.7 14.45 Q35.8 13.55 31.65 15.45 30.55 15.9 29.6 16.6 27.3 17.9 25.45 20.8 21.4 26.05 21.95 34.05 22.25 39.35 24.55 44.0 L26.65 47.55 26.9 47.9 28.5 49.9 Q32.45 54.35 37.9 55.6 44.75 56.85 49.7 51.95 51.6 50.0 52.8 47.55 L52.95 47.15 Q54.7 43.15 54.6 37.95 54.45 32.15 52.2 27.45 54.8 24.25 59.1 20.85 50.15 16.4 44.35 15.0 L41.7 14.45 M57.8 47.4 L57.75 47.55 Q56.5 51.35 53.45 54.4 48.05 59.75 43.6 59.95 39.1 60.2 34.5 58.65 32.4 57.95 30.05 56.1 M24.3 15.7 L26.35 13.55 M20.05 43.1 Q18.3 38.45 18.35 33.0 18.4 23.1 23.1 17.15 L24.3 15.7 M61.4 57.05 Q62.1 58.0 62.85 58.15 L64.25 58.2 65.45 57.65 Q66.1 57.15 66.5 56.05 L66.95 54.55 66.95 53.5 66.75 52.45 66.25 51.55 Q65.95 51.0 64.8 50.85 63.6 50.7 62.6 51.6 L62.7 51.7 Q64.15 54.2 61.55 56.9 L61.4 57.05 61.4 56.85 Q60.7 55.75 61.0 54.2 61.35 52.65 62.55 51.7 L62.6 51.6 M60.35 76.45 L61.05 76.9 62.3 77.05 63.35 76.9 64.55 75.85 Q65.25 75.1 65.25 73.55 65.2 72.05 64.45 71.1 63.6 70.05 62.95 69.9 L62.3 69.9 62.15 69.95 Q60.95 70.05 60.15 71.15 60.7 70.85 61.5 71.35 62.3 71.8 61.8 74.1 61.2 76.4 60.85 76.4 L60.35 76.45 Q59.4 75.4 59.25 73.9 59.25 72.55 60.15 71.15" fill="none" stroke="#42301e" stroke-linecap="round" stroke-linejoin="round" stroke-width="1.5"/>
    <path d="M54.1 19.65 L53.75 19.55 53.8 19.35 53.85 19.25 Q54.25 19.25 54.1 19.65" fill="#e8c012" fill-rule="evenodd" stroke="none"/>
    <path d="M47.6 21.8 L47.75 22.25 Q47.6 22.25 47.6 22.35 L47.4 21.95 47.6 21.9 47.6 21.8 M47.3 22.8 L47.05 22.4 47.05 22.35 47.1 22.25 47.35 22.5 47.3 22.8 M46.95 22.4 L47.1 22.9 46.95 23.05 46.8 22.7 46.95 22.4 M46.55 22.8 L46.9 23.1 46.7 23.3 46.5 22.9 46.5 22.85 46.55 22.8 M46.45 23.55 L46.25 23.2 46.4 23.0 46.5 23.35 46.45 23.55 46.2 23.95 45.9 23.4 46.05 23.2 46.1 23.25 46.45 23.55" fill="#8f4f1f" fill-rule="evenodd" stroke="none"/>
    <path d="M30.35 18.95 L31.7 18.75 Q32.25 18.85 32.55 19.15 35.2 22.2 36.65 24.8 37.8 27.0 38.4 28.9 38.15 28.95 38.25 29.1 L37.1 30.95 36.35 31.6 Q34.85 32.45 32.65 31.25 L31.65 30.65 Q31.2 30.45 30.7 29.6 30.2 28.8 30.1 27.25 29.95 25.65 30.25 25.45 L31.35 27.75 Q30.2 24.25 28.55 20.65 29.55 19.2 30.35 18.95" fill="#e0c7a1" fill-rule="evenodd" stroke="none"/>
    <path d="M44.4 26.7 Q44.85 26.7 46.55 27.35 47.95 29.7 48.35 32.7 L48.35 32.75 Q48.7 34.3 48.55 35.95 49.65 36.8 49.35 38.85 51.0 42.65 48.6 47.4 L45.8 47.8 Q45.05 49.7 42.85 50.55 L42.0 50.75 40.7 51.0 39.9 50.9 Q36.8 52.35 35.7 52.1 33.25 50.95 33.0 50.35 31.35 50.2 30.25 49.55 L30.45 48.9 Q30.7 48.35 30.85 49.2 33.15 49.1 36.6 47.3 36.6 47.2 36.75 47.25 38.75 42.35 37.35 37.65 L36.3 35.2 36.25 35.1 36.95 35.2 38.35 35.55 Q35.9 34.2 34.25 34.1 L34.95 34.45 35.65 35.05 33.2 38.25 29.1 42.4 27.2 43.7 Q23.8 43.1 24.0 38.5 23.1 37.95 23.15 37.3 23.0 36.5 23.55 35.7 23.15 34.85 23.2 34.15 22.85 32.2 24.3 30.5 L24.5 30.2 24.5 29.8 Q24.9 26.55 26.6 24.8 26.8 24.4 27.25 24.15 28.25 23.15 29.05 23.05 L29.8 24.9 29.65 26.4 Q29.6 28.5 30.45 30.35 L30.7 30.75 31.05 31.05 Q32.4 32.3 35.55 32.9 L37.0 32.25 Q37.5 31.75 37.85 31.6 L38.35 31.1 39.1 29.05 37.6 25.5 Q36.75 23.8 35.3 21.8 38.5 21.15 40.9 22.8 42.4 24.05 43.9 26.65 L44.4 26.7 M29.85 33.85 Q28.6 35.05 27.75 36.8 26.35 34.85 26.45 32.5 26.2 33.35 26.55 34.7 L26.8 35.85 27.6 37.4 Q27.5 37.7 27.55 38.05 L27.6 38.1 27.7 37.75 27.8 37.6 29.15 38.3 28.95 38.55 28.5 38.9 29.9 37.85 Q31.7 36.15 30.15 33.55 L29.85 33.85" fill="#cf2222" fill-rule="evenodd" stroke="none"/>
    <path d="M35.55 35.6 L36.8 37.45 37.25 38.95 35.6 35.75 35.55 35.6 M29.7 34.35 Q30.4 35.25 30.3 36.25 L29.25 37.8 Q28.25 37.55 27.85 37.15 L28.0 37.05 28.7 37.5 28.8 37.3 28.3 36.4 28.55 36.05 29.7 34.35" fill="#c6cfd6" fill-rule="evenodd" stroke="none"/>
    <path d="M35.3 36.15 L35.45 36.3 36.9 38.55 37.15 39.1 37.2 39.3 37.2 39.75 34.5 37.3 35.2 36.0 35.3 36.15 M34.15 37.7 L36.1 39.15 37.15 39.8 37.2 39.9 37.15 42.95 37.0 44.0 36.75 44.85 Q33.75 39.9 33.4 38.65 L34.15 37.7 M36.65 45.5 L36.15 46.8 Q34.3 47.85 32.8 48.05 31.15 44.45 30.55 41.6 31.25 41.85 33.65 43.4 L34.1 43.65 34.1 43.75 Q35.25 44.25 36.65 45.5 M36.1 44.4 L31.1 41.1 Q31.9 40.05 32.95 39.15 L36.1 44.4 M30.15 46.4 L32.35 48.3 30.95 48.8 Q28.75 45.85 28.5 44.75 L30.15 46.4 M27.95 43.6 L29.95 42.05 32.3 47.55 32.45 47.95 Q28.9 45.0 27.95 43.6" fill="#f0f3f4" fill-rule="evenodd" stroke="none"/>
    <path d="M53.7 19.6 L53.65 19.95 52.85 20.05 52.4 19.35 53.7 19.55 53.7 19.6" fill="#e8ab10" fill-rule="evenodd" stroke="none"/>
    <path d="M51.6 19.2 L51.75 19.25 52.3 19.85 53.55 20.75 53.95 20.9 Q54.6 20.45 54.85 20.5 L55.35 20.55 56.4 20.8 57.0 21.6 Q56.1 20.4 54.45 21.35 L53.5 22.9 52.6 23.75 52.95 24.1 54.65 24.0 Q53.3 24.25 53.0 24.95 L52.05 25.05 51.5 25.1 51.2 25.0 50.4 25.2 50.85 25.3 51.1 25.45 51.4 25.5 52.2 25.9 Q50.5 25.25 50.65 25.9 L50.15 25.5 49.75 25.3 49.55 25.25 49.1 25.15 48.7 25.2 48.1 25.3 47.45 24.75 46.15 24.35 46.7 23.6 47.35 23.1 47.1 23.1 47.45 22.7 47.5 22.5 47.7 22.55 47.9 22.05 47.6 21.6 47.05 22.15 47.05 22.0 46.7 22.7 46.45 22.6 46.15 23.05 46.0 23.0 45.75 23.4 45.75 22.15 45.7 21.95 Q46.25 20.95 47.3 19.65 L48.75 19.45 48.9 19.45 49.15 19.1 49.1 19.5 48.9 20.0 48.95 20.0 49.25 20.0 49.3 19.95 49.6 19.7 49.65 19.65 49.6 19.3 49.6 19.2 49.65 19.1 Q50.2 18.55 50.7 18.55 L50.15 19.2 50.15 19.3 50.3 19.75 Q50.7 19.4 51.6 19.2 M54.95 22.4 L55.05 22.35 55.45 22.4 55.45 22.5 55.45 22.8 55.4 22.9 55.25 23.05 54.8 23.1 54.45 23.05 54.3 23.0 54.45 22.8 54.5 22.8 Q54.55 22.65 54.95 22.4" fill="url(#gradient0)" fill-rule="evenodd" stroke="none"/>
    <path d="M45.75 23.65 L45.9 23.45 46.15 24.05 45.05 25.65 44.65 26.55 43.85 26.3 44.1 25.85 44.45 25.25 44.95 24.55 45.35 24.0 45.6 23.8 45.75 23.65" fill="url(#gradient1)" fill-rule="evenodd" stroke="none"/>
  </g>
  <defs>
    <linearGradient gradientTransform="matrix(0.0072, -2.0E-4, -1.0E-4, 0.0045, 52.15, 22.55)" gradientUnits="userSpaceOnUse" id="gradient0" spreadMethod="pad" x1="-819.2" x2="819.2">
      <stop offset="0.0" stop-color="#e74821"/>
      <stop offset="1.0" stop-color="#e8d200"/>
    </linearGradient>
    <linearGradient gradientTransform="matrix(0.0018, -0.0021, 4.0E-4, 5.0E-4, 45.3, 24.6)" gradientUnits="userSpaceOnUse" id="gradient1" spreadMethod="pad" x1="-819.2" x2="819.2">
      <stop offset="0.0" stop-color="#cf2222"/>
      <stop offset="1.0" stop-color="#e74821"/>
    </linearGradient>
  </defs>
</svg>
