<?xml version="1.0" encoding="UTF-8" standalone="no"?>
<svg xmlns:xlink="http://www.w3.org/1999/xlink" height="53.35px" width="60.75px" xmlns="http://www.w3.org/2000/svg">
  <g transform="matrix(1.0, 0.0, 0.0, 1.0, -353.1, -305.0)">
    <path d="M401.3 310.85 L402.55 312.8 402.65 312.9 402.9 315.25 402.95 316.1 402.9 316.95 402.4 321.15 402.4 322.75 401.95 324.05 401.75 325.0 400.2 326.4 400.05 328.15 399.95 329.9 399.95 329.95 399.95 330.8 400.1 332.35 400.25 333.25 400.45 334.05 402.55 335.0 402.65 335.0 404.75 336.35 Q405.45 336.7 406.3 339.3 L406.65 340.35 407.0 341.8 407.75 341.5 Q410.15 341.35 411.35 343.6 411.8 343.6 412.45 344.15 413.6 346.6 413.3 349.6 413.45 351.1 412.85 351.65 409.85 351.5 408.2 350.75 L407.75 350.8 Q408.35 353.4 407.55 354.45 L405.15 354.35 Q403.8 354.05 401.85 353.2 400.35 352.55 399.2 351.65 L399.0 352.7 398.3 354.9 397.95 355.6 Q394.75 355.25 391.25 352.35 L389.4 352.05 389.2 351.45 Q388.55 351.4 389.1 351.35 386.3 351.2 383.15 350.05 L382.9 351.2 Q382.6 352.65 382.35 352.6 L377.1 353.5 Q376.45 354.4 375.25 354.65 L375.15 354.8 Q373.85 356.4 368.65 357.85 L368.1 354.85 365.3 355.7 363.05 356.2 361.7 356.3 Q361.2 355.8 360.95 352.8 L360.6 352.8 Q357.0 354.75 353.65 354.45 L353.65 351.2 Q353.45 348.5 354.5 345.4 354.75 344.8 355.35 344.35 L355.4 344.35 355.4 344.25 356.0 342.65 356.05 342.65 Q356.35 342.4 356.6 342.25 L356.95 341.1 Q357.7 338.75 358.4 338.15 L358.45 338.0 359.6 336.9 Q360.2 336.5 360.6 336.65 L360.8 336.55 360.9 336.5 Q362.05 335.9 363.25 335.45 L363.55 333.65 363.65 331.35 363.65 331.05 363.65 330.95 363.4 327.4 361.7 325.95 361.35 324.1 360.7 320.35 Q360.35 317.8 360.45 316.95 L360.4 315.7 360.7 313.35 360.75 313.15 362.05 311.15 362.2 310.95 362.55 310.7 365.95 307.9 Q372.05 304.65 376.35 305.95 L380.55 306.9 384.15 307.6 387.95 305.85 Q391.95 304.65 397.7 307.7 L401.15 310.7 401.3 310.85 Z" fill="none" stroke="#000000" stroke-linecap="butt" stroke-linejoin="round" stroke-opacity="0.29803923" stroke-width="1.0"/>
  </g>
</svg>
