<?xml version="1.0" encoding="UTF-8" standalone="no"?>
<svg xmlns:xlink="http://www.w3.org/1999/xlink" height="139.4px" width="180.6px" xmlns="http://www.w3.org/2000/svg">
  <g transform="matrix(1.0, 0.0, 0.0, 1.0, -180.35, -123.6)">
    <path d="M327.45 153.65 L352.9 152.75 339.15 157.5 314.95 165.75 325.6 155.45 327.45 153.65 M184.95 196.05 L183.65 185.25 182.35 174.45 197.25 177.4 198.15 188.25 183.65 185.25 198.15 188.25 199.3 202.05 184.95 196.05 M180.35 157.9 L191.3 149.75 197.95 147.05 203.6 142.9 206.4 140.85 220.7 142.3 217.95 144.65 203.6 142.9 217.95 144.65 212.5 149.35 206.95 154.15 202.6 157.95 202.6 158.7 202.25 158.6 201.95 158.55 201.2 158.75 197.4 161.25 197.3 161.25 180.35 157.9 206.95 154.15 180.35 157.9 M305.45 175.0 L318.95 185.0 334.4 172.15 332.1 197.85 332.1 197.9 331.85 200.6 330.2 218.75 329.75 223.55 314.0 237.95 316.6 210.15 318.95 185.0 301.15 178.7 301.8 178.5 305.45 175.0 M339.15 157.5 L325.6 155.45 339.15 157.5 M245.9 139.15 L245.95 139.2 258.75 139.6 273.7 140.05 302.8 140.9 310.95 148.25 306.35 152.5 295.3 162.65 295.25 162.65 262.2 148.4 255.95 144.9 282.1 148.85 255.95 144.9 251.35 142.25 245.95 139.2 245.9 139.2 245.9 139.15 M219.7 162.8 L219.7 163.0 223.8 159.25 231.4 152.4 234.05 149.95 253.6 149.95 287.1 161.35 287.85 161.45 292.35 165.3 289.45 167.95 283.6 173.3 283.6 174.4 282.95 174.3 280.9 175.75 249.9 171.4 249.55 171.35 249.9 171.4 278.9 177.15 276.45 179.05 276.4 179.05 276.45 180.4 276.45 181.15 276.5 182.15 276.6 185.8 218.2 165.35 218.35 165.35 218.4 165.0 235.4 168.55 249.55 171.35 218.5 164.05 218.55 163.8 218.25 164.0 218.3 162.8 219.7 162.8 M197.95 147.05 L212.5 149.35 197.95 147.05 M223.8 159.25 L263.8 160.3 289.45 167.95 263.8 160.3 223.8 159.25 M216.95 192.45 L216.95 192.1 217.45 181.4 276.85 193.1 276.95 197.2 277.2 204.4 277.85 227.35 277.95 231.05 278.15 236.9 278.05 236.9 216.3 205.8 216.95 192.45 M235.4 168.55 L218.35 165.35 235.4 168.55 M258.75 139.6 L251.35 142.25 258.75 139.6 M282.1 148.85 L295.3 162.65 282.1 148.85 306.35 152.5 282.1 148.85 273.7 140.05 282.1 148.85 M300.85 181.4 L318.95 185.0 316.05 200.85 299.35 193.75 300.85 181.4 M331.85 200.6 L316.6 210.15 331.85 200.6 M300.0 197.7 L307.45 199.15 316.05 200.85 314.0 211.75 297.6 208.5 314.0 211.75 305.45 242.75 293.85 240.3 297.6 208.5 298.9 197.5 300.0 197.7 M287.1 161.35 L231.4 152.4 287.1 161.35 M216.95 192.1 L277.2 204.4 216.95 192.1" fill="#663300" fill-rule="evenodd" stroke="none"/>
    <path d="M331.5 145.4 L331.95 145.45 360.95 150.0 352.9 152.75 360.95 150.0 350.05 159.1 360.95 150.0 357.1 165.45 352.8 182.65 346.3 208.45 340.5 231.5 333.25 237.85 333.65 236.4 339.25 214.85 346.2 188.4 350.75 170.9 353.6 160.0 350.05 159.1 345.2 158.4 332.25 168.2 332.0 168.4 332.0 168.5 332.1 168.5 333.35 170.2 334.2 171.75 334.4 172.15 318.95 185.0 305.45 175.0 314.95 165.75 332.0 168.5 314.95 165.75 339.15 157.5 352.9 152.75 327.45 153.65 332.65 148.6 332.65 146.85 324.1 145.4 315.6 144.0 310.95 148.25 302.8 140.9 303.5 141.0 313.15 142.5 328.35 144.9 331.5 145.4 M327.2 243.15 L304.5 263.0 292.5 260.45 291.55 260.25 291.5 260.25 293.85 240.3 305.45 242.75 308.15 243.3 305.45 242.75 314.0 211.75 316.05 200.85 318.95 185.0 316.6 210.15 314.0 211.75 316.6 210.15 314.0 237.95 329.75 223.55 328.05 242.4 327.2 243.15 M289.8 261.4 L289.3 261.6 289.3 261.45 289.35 261.45 289.3 261.6 289.35 261.45 289.3 261.45 289.4 260.35 289.35 261.45 289.8 261.4 M278.75 257.4 L214.6 243.8 215.75 218.55 215.75 217.35 215.75 218.55 214.6 243.8 214.55 243.75 215.7 218.55 215.75 217.35 216.3 205.8 278.05 236.9 278.15 236.95 278.15 237.5 278.75 257.4 M202.6 241.2 L190.1 238.55 187.0 212.75 184.95 196.05 199.3 202.05 200.45 215.45 202.6 241.2 M182.35 174.45 L180.35 157.9 197.3 161.25 196.1 162.1 197.1 161.45 196.0 162.5 196.05 162.8 197.25 177.4 182.35 174.45 M207.7 137.55 L220.5 128.0 234.45 130.2 250.7 132.75 254.0 133.25 302.8 140.9 273.7 140.05 258.75 139.6 245.95 139.2 245.9 139.15 249.8 135.6 250.0 133.8 250.2 133.6 250.05 133.6 250.2 133.6 250.0 133.8 250.05 133.6 241.95 132.25 233.85 130.9 223.45 139.95 207.7 137.55 223.45 139.95 220.7 142.3 206.4 140.85 209.2 138.8 206.95 138.1 207.7 137.55 M357.1 165.45 L350.75 170.9 357.1 165.45 M339.15 157.5 L345.2 158.4 339.15 157.5 M352.8 182.65 L346.2 188.4 352.8 182.65 M346.3 208.45 L345.65 209.05 339.25 214.85 345.65 209.05 346.3 208.45 345.65 209.05 346.3 208.45 M220.5 128.0 L233.85 130.9 220.5 128.0 M234.05 149.95 L241.95 142.75 245.9 139.2 245.95 139.2 251.35 142.25 255.95 144.9 262.2 148.4 295.25 162.65 295.3 162.65 295.25 162.65 292.35 165.3 287.85 161.45 287.1 161.35 253.6 149.95 234.05 149.95 M218.5 164.05 L249.55 171.35 235.4 168.55 218.4 165.0 218.5 164.05 M249.9 171.4 L280.9 175.75 278.9 177.15 249.9 171.4 M217.45 181.4 L218.2 165.35 276.6 185.8 276.85 193.1 217.45 181.4 M241.95 142.75 L255.95 144.9 241.95 142.75 M296.25 182.65 L297.4 181.55 300.7 177.8 301.25 177.9 301.25 177.95 301.15 178.7 300.2 178.9 301.25 177.95 300.2 178.9 297.4 181.55 297.3 181.7 296.8 182.2 296.25 182.65 M295.25 162.65 L287.85 161.45 295.25 162.65 M301.15 178.7 L318.95 185.0 300.85 181.4 301.15 178.7 M299.35 193.75 L316.05 200.85 307.45 199.15 300.0 197.7 298.9 197.45 300.0 197.7 298.9 197.5 298.9 197.45 299.35 193.75 M314.0 242.8 L314.0 237.95 314.0 242.8 M314.0 237.95 L308.15 243.3 314.0 237.95 314.0 211.75 314.0 237.95 M308.15 243.3 L314.0 211.75 308.15 243.3 307.6 246.25 308.15 243.3 M304.5 263.0 L307.6 246.25 304.5 263.0 M215.75 218.55 L215.7 218.55 215.75 218.55 M200.45 215.45 L187.0 212.75 200.45 215.45" fill="#330000" fill-rule="evenodd" stroke="none"/>
    <path d="M313.2 139.8 L328.65 142.0 329.4 141.5 332.2 139.75 331.5 145.4 328.35 144.9 328.65 142.0 328.35 144.9 313.15 142.5 313.2 142.0 313.2 139.8 M283.6 173.3 L301.8 177.2 304.65 174.4 332.65 146.85 332.65 148.6 327.45 153.65 325.6 155.45 314.95 165.75 305.45 175.0 301.8 178.5 301.8 177.2 301.8 178.5 301.15 178.7 301.25 177.95 301.25 177.9 300.7 177.8 283.6 174.4 283.6 173.3 M333.15 237.95 L332.2 241.2 329.3 243.15 329.25 243.05 329.7 240.9 329.75 240.85 329.95 239.5 341.55 170.0 341.6 170.0 341.8 169.85 353.6 160.0 350.75 170.9 346.2 188.4 339.25 214.85 333.65 236.4 333.15 237.95 M289.3 261.45 L288.75 261.5 278.8 259.5 278.75 258.45 278.75 257.4 278.15 237.5 278.0 231.05 277.85 227.35 277.2 204.4 276.95 194.95 276.9 193.1 276.65 185.8 276.6 183.9 276.5 179.05 296.25 182.65 296.8 182.2 297.3 181.7 296.8 182.75 296.75 182.75 296.65 184.0 294.4 207.85 289.4 260.35 289.3 261.45 M212.65 245.25 L208.0 244.3 208.0 244.25 208.0 244.1 207.8 244.25 202.75 243.25 202.6 241.2 200.45 215.45 199.3 202.05 198.15 188.25 197.25 177.4 196.05 162.8 213.0 166.0 212.7 245.0 212.65 245.25 M191.3 149.75 L190.85 145.65 197.95 147.05 191.3 149.75 M234.45 130.2 L234.1 126.95 234.1 126.4 250.6 129.2 254.3 126.1 254.1 131.45 254.0 133.25 250.7 132.75 234.45 130.2 M250.0 133.8 L249.8 135.6 245.9 139.15 245.9 139.2 241.95 142.75 234.05 149.95 231.4 152.4 223.8 159.25 219.7 163.0 219.7 162.8 219.7 161.2 219.7 162.8 218.3 162.8 218.25 164.0 218.2 164.95 218.2 165.35 217.45 181.4 218.3 162.5 218.3 162.8 218.3 162.5 218.3 161.85 202.7 158.7 202.6 158.7 202.6 157.95 202.65 157.95 202.6 157.95 202.65 157.95 219.7 161.2 219.75 161.2 250.0 133.8 M216.95 192.45 L217.45 181.4 216.95 192.1 216.95 192.45 M250.7 132.75 L250.6 129.2 250.7 132.75 M304.65 174.4 L305.45 175.0 304.65 174.4 M296.25 182.65 L296.75 182.75 296.25 182.65 M296.8 182.2 L296.75 182.75 296.8 182.2 M294.4 207.85 L277.2 204.4 294.4 207.85" fill="#000000" fill-rule="evenodd" stroke="none"/>
    <path d="M332.2 139.6 L332.2 139.75 329.4 141.5 328.65 142.0 313.2 139.8 317.05 137.25 332.2 139.6 M324.1 145.4 L332.65 146.85 304.65 174.4 301.8 177.2 283.6 173.3 324.1 145.4 M345.2 158.4 L350.05 159.1 353.6 160.0 341.8 169.85 341.55 170.0 332.45 168.55 333.35 170.2 332.1 168.5 332.45 168.55 332.1 168.5 332.0 168.4 332.25 168.2 345.2 158.4 M190.85 145.65 L190.8 145.25 190.85 145.25 202.8 136.8 206.95 138.1 209.2 138.8 206.4 140.85 203.6 142.9 197.95 147.05 190.85 145.65 M234.05 126.4 L238.4 123.6 254.35 126.0 254.3 126.1 250.6 129.2 234.1 126.4 234.05 126.4 M332.25 168.2 L332.45 168.55 332.25 168.2 341.55 170.0 332.25 168.2 M241.95 132.25 L250.05 133.6 250.0 133.8 219.75 161.2 219.7 161.2 202.65 157.95 241.95 132.25 M201.95 158.55 L202.25 158.6 202.6 158.7 202.7 158.7 218.3 161.85 213.0 166.0 218.3 161.85 218.3 162.5 213.0 166.0 196.05 162.8 196.0 162.5 197.1 161.45 197.4 161.25 201.2 158.75 201.95 158.55 M201.2 158.75 L196.0 162.5 201.2 158.75 M202.25 158.6 L202.7 158.7 202.25 158.6 M282.95 174.3 L283.6 174.4 300.7 177.8 297.4 181.55 296.25 182.65 276.5 179.05 282.95 174.3 M218.2 164.95 L218.25 164.0 218.2 164.95 M283.6 175.6 L283.6 174.4 283.6 175.6" fill="#996600" fill-rule="evenodd" stroke="none"/>
    <path d="M324.1 145.4 L283.6 173.3 289.45 167.95 292.35 165.3 295.25 162.65 295.3 162.65 306.35 152.5 310.95 148.25 315.6 144.0 324.1 145.4 M329.25 243.05 L328.05 243.1 328.05 242.4 329.75 223.55 330.2 218.75 331.85 200.6 332.1 197.9 332.1 197.85 334.4 172.15 334.2 171.75 333.35 170.2 332.45 168.55 341.55 170.0 329.95 239.5 329.75 240.5 329.7 240.9 329.25 243.05 M290.65 261.05 L289.8 261.4 289.35 261.45 289.4 260.35 294.4 207.85 296.65 184.0 296.8 182.75 297.3 181.7 297.4 181.55 300.2 178.9 301.15 178.7 300.85 181.4 299.35 193.75 298.9 197.45 298.9 197.5 297.6 208.5 293.85 240.3 291.5 260.25 291.5 260.3 291.3 260.5 291.25 260.75 290.65 261.05 M223.45 139.95 L233.85 130.9 241.95 132.25 202.65 157.95 202.6 157.95 206.95 154.15 212.5 149.35 217.95 144.65 220.7 142.3 223.45 139.95 M218.3 162.5 L217.45 181.4 216.95 192.45 216.3 205.8 215.75 217.35 215.7 218.55 214.55 243.75 214.55 244.6 212.7 245.0 213.0 166.0 218.3 162.5" fill="#996633" fill-rule="evenodd" stroke="none"/>
    <path d="M332.2 139.75 L332.35 139.65 332.2 139.6 317.05 137.25 313.2 139.8 328.65 142.0 329.4 141.5 332.2 139.75 331.5 145.4 331.95 145.45 332.35 139.65 M332.65 146.85 L324.1 145.4 315.6 144.0 310.95 148.25 306.35 152.5 282.1 148.85 255.95 144.9 241.95 142.75 245.9 139.2 245.9 139.15 249.8 135.6 250.0 133.8 219.75 161.2 219.7 161.2 202.65 157.95 202.6 157.95 206.95 154.15 212.5 149.35 197.95 147.05 191.3 149.75 190.85 145.65 190.8 145.25 190.85 145.25 202.8 136.8 207.7 137.55 220.5 128.0 234.45 130.2 234.1 126.95 234.0 129.6 234.0 126.4 234.05 126.4 238.4 123.6 254.35 126.0 254.4 126.0 254.05 132.8 254.0 133.25 302.8 140.9 M283.6 173.3 L301.8 177.2 304.65 174.4 332.65 146.85 332.65 148.6 327.45 153.65 325.6 155.45 339.15 157.5 345.2 158.4 350.05 159.1 360.95 150.0 357.1 165.45 352.8 182.65 346.3 208.45 340.5 231.5 333.25 237.85 333.15 237.95 332.2 241.2 329.3 243.15 329.2 243.2 329.25 243.05 328.05 243.1 327.2 243.15 304.5 263.0 292.5 260.45 290.65 261.05 289.8 261.4 289.3 261.6 289.3 261.45 288.75 261.5 278.8 259.5 278.75 258.45 278.75 257.4 214.6 243.8 214.55 243.75 214.55 244.6 212.7 245.0 M360.95 150.0 L331.95 145.45 M328.65 142.0 L328.35 144.9 331.5 145.4 M212.7 245.25 L212.65 245.25 208.0 244.3 207.8 244.25 202.75 243.25 202.6 241.2 190.1 238.55 187.0 212.75 184.95 196.05 183.65 185.25 182.35 174.45 180.35 157.9 191.3 149.75 M303.5 141.0 L313.15 142.5 328.35 144.9 M313.2 142.0 L313.2 139.8 M350.05 159.1 L353.6 160.0 350.75 170.9 357.1 165.45 M314.95 165.75 L325.6 155.45 M332.1 168.5 L333.35 170.2 334.2 171.75 M332.45 168.55 L332.1 168.5 332.0 168.5 314.95 165.75 305.45 175.0 301.8 178.5 301.8 177.2 M332.1 168.5 L332.0 168.4 332.25 168.2 345.2 158.4 M332.25 168.2 L341.55 170.0 341.8 169.85 353.6 160.0 M341.55 170.0 L341.6 170.0 341.8 169.85 M332.45 168.55 L341.55 170.0 329.95 239.5 329.75 240.85 329.7 240.9 329.25 243.05 M334.4 172.15 L332.1 197.85 332.1 197.9 331.85 200.6 330.2 218.75 329.75 223.55 328.05 242.4 327.2 243.15 M350.75 170.9 L346.2 188.4 339.25 214.85 345.65 209.05 346.3 208.45 M333.65 236.4 L333.15 237.95 M333.25 237.85 L333.65 236.4 339.25 214.85 M329.7 240.9 L329.75 240.5 329.95 239.5 M329.75 240.5 L329.75 240.85 M202.8 136.8 L206.95 138.1 207.7 137.55 223.45 139.95 233.85 130.9 241.95 132.25 250.05 133.6 250.2 133.6 250.0 133.8 M206.4 140.85 L203.6 142.9 197.95 147.05 190.85 145.65 M217.95 144.65 L220.7 142.3 223.45 139.95 M206.4 140.85 L209.2 138.8 206.95 138.1 M234.1 126.95 L234.1 126.4 234.0 126.4 234.1 126.95 M202.25 158.6 L202.6 158.7 202.6 157.95 M180.35 157.9 L197.3 161.25 197.4 161.25 201.2 158.75 201.95 158.55 M197.3 161.25 L196.1 162.1 197.1 161.45 197.3 161.25 M197.1 161.45 L196.0 162.5 196.05 162.8 213.0 166.0 218.3 162.5 218.3 162.8 218.25 164.0 218.55 163.8 218.5 164.05 218.4 165.0 218.35 165.35 235.4 168.55 M197.1 161.45 L197.4 161.25 M197.25 177.4 L196.05 162.8 M198.15 188.25 L197.25 177.4 M219.7 162.8 L219.7 163.0 223.8 159.25 231.4 152.4 234.05 149.95 241.95 142.75 M202.7 158.7 L202.6 158.7 M219.7 161.2 L219.7 162.8 218.3 162.8 M280.9 175.75 L282.95 174.3 283.6 174.4 283.6 173.3 289.45 167.95 292.35 165.3 295.25 162.65 295.3 162.65 306.35 152.5 M217.45 181.4 L218.2 165.35 218.2 164.95 218.25 164.0 218.2 164.95 M216.95 192.45 L216.95 192.1 217.45 181.4 M276.85 193.1 L276.6 185.8 276.5 182.15 276.5 181.65 276.45 180.4 276.4 179.05 276.45 179.05 276.5 179.05 282.95 174.3 M212.5 149.35 L217.95 144.65 M254.4 126.0 L254.3 126.1 254.1 131.45 254.05 132.8 M254.1 131.45 L254.0 133.25 250.7 132.75 234.45 130.2 M250.6 129.2 L250.7 132.75 M254.3 126.1 L250.6 129.2 234.1 126.4 M280.9 175.75 L278.9 177.15 276.45 179.05 276.4 179.05 M276.5 179.05 L296.25 182.65 297.4 181.55 300.7 177.8 283.6 174.4 283.6 175.6 M276.45 180.4 L276.45 181.15 276.5 181.65 276.6 183.9 276.5 179.05 M276.45 181.15 L276.5 182.15 M276.65 185.8 L276.6 183.9 M276.95 194.95 L276.95 197.2 277.2 204.4 276.95 194.95 276.9 193.1 276.65 185.8 M276.85 193.1 L276.95 197.2 M287.85 161.45 L295.25 162.65 M300.7 177.8 L301.25 177.9 301.25 177.95 301.15 178.7 301.8 178.5 M301.25 177.95 L300.2 178.9 301.15 178.7 300.85 181.4 299.35 193.75 298.9 197.45 298.9 197.5 297.6 208.5 293.85 240.3 291.5 260.25 291.5 260.3 291.55 260.25 292.5 260.45 M300.2 178.9 L297.4 181.55 297.3 181.7 296.8 182.75 296.65 184.0 294.4 207.85 289.4 260.35 289.35 261.45 289.8 261.4 M296.25 182.65 L296.8 182.2 297.3 181.7 M296.65 184.0 L296.75 182.75 296.25 182.65 M296.75 182.75 L296.8 182.75 M296.75 182.75 L296.8 182.2 M314.0 237.95 L329.75 223.55 M231.4 152.4 L287.1 161.35 M308.15 243.3 L314.0 237.95 M308.15 243.3 L305.45 242.75 293.85 240.3 M307.6 246.25 L304.5 263.0 M277.85 227.35 L277.2 204.4 277.85 227.35 278.0 231.05 278.15 237.5 278.75 257.4 M278.15 236.9 L277.95 231.05 277.85 227.35 M278.15 236.95 L278.15 236.9 M216.3 205.8 L215.75 217.35 215.7 218.55 214.55 243.75 M278.75 258.45 L278.8 259.5 M291.5 260.3 L291.3 260.5 291.25 260.75 290.65 261.05 M289.3 261.6 L289.35 261.45 289.3 261.45 289.4 260.35 M207.8 244.25 L208.0 244.25 208.0 244.1 207.8 244.25 M200.45 215.45 L199.3 202.05 198.15 188.25 M200.45 215.45 L202.6 241.2" fill="none" stroke="#000000" stroke-linecap="round" stroke-linejoin="round" stroke-opacity="0.3019608" stroke-width="0.05"/>
    <path d="M203.6 142.9 L217.95 144.65 M206.95 154.15 L180.35 157.9 M289.45 167.95 L263.8 160.3 223.8 159.25 M251.35 142.25 L258.75 139.6 M295.3 162.65 L282.1 148.85 273.7 140.05" fill="none" stroke="#663300" stroke-linecap="round" stroke-linejoin="round" stroke-width="0.05"/>
    <path d="M214.6 243.8 L214.55 244.6 212.7 245.25 212.7 245.0 213.0 166.0 218.3 161.85 202.7 158.7 202.25 158.6 201.95 158.55 M333.35 170.2 L332.45 168.55 332.25 168.2 M318.95 185.0 L334.4 172.15 334.2 171.75 M346.2 188.4 L352.8 182.65 M345.65 209.05 L346.3 208.45 M196.0 162.5 L201.2 158.75 M183.65 185.25 L198.15 188.25 M218.3 161.85 L218.3 162.5 217.45 181.4 276.85 193.1 276.9 193.1 M218.4 165.0 L218.2 164.95 M218.4 165.0 L235.4 168.55 249.55 171.35 M216.95 192.45 L217.45 181.4 M276.6 185.8 L218.2 165.35 M276.6 185.8 L276.65 185.8 M278.9 177.15 L249.9 171.4 M318.95 185.0 L300.85 181.4 M316.05 200.85 L318.95 185.0 M316.6 210.15 L331.85 200.6 M298.9 197.45 L300.0 197.7 307.45 199.15 M316.05 200.85 L314.0 211.75 316.6 210.15 M314.0 211.75 L308.15 243.3 307.6 246.25 M297.6 208.5 L314.0 211.75 M277.2 204.4 L294.4 207.85 M277.2 204.4 L216.95 192.1 M277.95 231.05 L278.0 231.05 M215.75 217.35 L215.75 218.55 214.6 243.8 M215.7 218.55 L215.75 218.55 M187.0 212.75 L200.45 215.45 M216.95 192.45 L216.3 205.8" fill="none" stroke="#000000" stroke-linecap="round" stroke-linejoin="round" stroke-width="0.05"/>
    <path d="M327.45 153.65 L352.9 152.75 360.95 150.0 M302.8 140.9 L303.5 141.0 M305.45 175.0 L318.95 185.0 316.6 210.15 314.0 237.95 314.0 242.8 M339.15 157.5 L314.95 165.75 M339.15 157.5 L352.9 152.75 M233.85 130.9 L220.5 128.0 M220.7 142.3 L206.4 140.85 M245.95 139.2 L258.75 139.6 273.7 140.05 302.8 140.9 310.95 148.25 M202.6 157.95 L202.65 157.95 M218.5 164.05 L249.55 171.35 249.9 171.4 280.9 175.75 M218.25 164.0 L218.5 164.05 M245.9 139.2 L245.95 139.2 251.35 142.25 255.95 144.9 262.2 148.4 295.25 162.65 M234.05 149.95 L253.6 149.95 287.1 161.35 287.85 161.45 292.35 165.3 M305.45 175.0 L304.65 174.4 M301.15 178.7 L318.95 185.0 M314.0 237.95 L314.0 211.75 305.45 242.75" fill="none" stroke="#330000" stroke-linecap="round" stroke-linejoin="round" stroke-width="0.05"/>
  </g>
</svg>
