<?xml version="1.0" encoding="UTF-8" standalone="no"?>
<svg xmlns:xlink="http://www.w3.org/1999/xlink" height="139.25px" width="164.0px" xmlns="http://www.w3.org/2000/svg">
  <g transform="matrix(1.0, 0.0, 0.0, 1.0, -204.2, -149.55)">
    <path d="M364.25 180.35 Q364.2 177.95 363.65 177.05 361.0 172.45 350.7 173.15 L349.85 173.25 Q338.45 174.2 323.85 181.85 323.0 182.3 321.7 183.05 L320.35 179.85 321.7 183.05 310.4 189.7 301.75 194.85 298.65 191.75 Q309.9 185.05 320.35 179.85 327.85 176.05 334.9 173.1 362.1 161.4 367.05 167.95 368.25 169.45 368.0 171.75 367.7 175.15 364.25 180.35 M349.85 169.95 L349.85 173.25 349.85 169.95 M257.05 149.65 Q256.9 151.35 255.5 153.55 253.3 157.05 247.7 161.85 L243.75 165.1 238.4 169.15 268.0 250.4 Q261.0 252.95 260.25 249.25 L258.7 244.2 254.1 229.5 246.2 235.25 Q238.5 241.1 231.7 247.4 L226.75 244.75 231.7 247.4 Q227.75 250.9 224.1 254.65 218.35 260.45 215.05 265.0 208.7 273.6 211.05 277.65 211.45 278.35 212.55 279.1 L213.95 280.25 208.35 280.0 208.05 279.9 Q206.2 279.3 205.3 278.1 202.05 273.9 209.35 263.9 213.3 258.3 220.5 250.95 L226.75 244.75 Q233.4 238.5 241.25 231.95 L246.2 235.25 241.25 231.95 252.1 223.35 235.4 171.2 Q235.4 168.0 243.15 158.9 253.75 150.2 257.05 149.65 M254.1 229.5 L252.1 223.35 254.1 229.5 M209.35 263.9 L215.05 265.0 209.35 263.9" fill="#e4e392" fill-rule="evenodd" stroke="none"/>
    <path d="M266.3 164.4 L255.5 153.55 Q256.9 151.35 257.05 149.65 L298.65 191.75 301.75 194.85 313.95 207.25 316.45 209.75 Q318.15 211.1 316.8 214.0 L266.3 164.4" fill="#cccc66" fill-rule="evenodd" stroke="none"/>
    <path d="M355.55 191.1 L354.2 192.55 351.7 195.05 349.4 197.5 Q339.25 207.45 326.1 218.0 L315.3 226.3 298.05 238.55 287.9 245.3 280.0 250.3 Q264.6 259.85 250.7 266.8 L242.85 270.55 237.35 272.95 230.1 275.9 231.55 272.3 Q241.95 258.35 258.7 244.2 L260.25 249.25 Q261.0 252.95 268.0 250.4 L238.4 169.15 243.75 165.1 247.7 161.85 289.55 234.3 286.45 241.45 Q302.5 230.95 314.0 218.1 315.9 215.75 316.8 214.0 318.15 211.1 316.45 209.75 L313.95 207.25 Q334.05 196.45 346.95 192.6 L355.55 191.1 M250.15 176.25 L243.75 165.1 250.15 176.25" fill="#d2d14f" fill-rule="evenodd" stroke="none"/>
    <path d="M349.85 173.25 L350.7 173.15 Q361.0 172.45 363.65 177.05 364.2 177.95 364.25 180.35 L363.95 180.85 363.85 181.05 360.95 184.8 355.55 191.1 346.95 192.6 Q334.05 196.45 313.95 207.25 L301.75 194.85 310.4 189.7 321.7 183.05 Q323.0 182.3 323.85 181.85 338.45 174.2 349.85 173.25 L349.95 184.85 349.85 173.25 M255.5 153.55 L266.3 164.4 316.8 214.0 Q315.9 215.75 314.0 218.1 302.5 230.95 286.45 241.45 L289.55 234.3 247.7 161.85 Q253.3 157.05 255.5 153.55 M254.1 229.5 L258.7 244.2 Q241.95 258.35 231.55 272.3 L230.1 275.9 Q225.2 277.75 221.25 278.8 L220.6 278.95 213.95 280.25 212.55 279.1 Q211.45 278.35 211.05 277.65 208.7 273.6 215.05 265.0 218.35 260.45 224.1 254.65 227.75 250.9 231.7 247.4 238.5 241.1 246.2 235.25 L246.9 235.75 246.2 235.25 254.1 229.5 M324.75 190.65 L321.7 183.05 324.75 190.65 M237.85 250.65 L231.7 247.4 237.85 250.65 M228.95 267.75 L215.05 265.0 228.95 267.75 M306.0 210.7 L260.9 163.55 306.0 210.7" fill="#b8b72e" fill-rule="evenodd" stroke="none"/>
    <path d="M364.25 180.35 Q367.7 175.15 368.0 171.75 L368.05 181.35 364.05 194.45 354.2 192.55 355.55 191.1 360.95 184.8 363.85 181.05 363.95 180.85 364.25 180.35 M349.4 197.5 L342.3 217.05 326.1 218.0 Q339.25 207.45 349.4 197.5 M315.3 226.3 L309.0 244.35 287.9 245.3 298.05 238.55 315.3 226.3 M280.0 250.3 L271.9 266.1 250.7 266.8 Q264.6 259.85 280.0 250.3 M242.85 270.55 L243.3 280.6 212.75 281.9 208.35 280.0 213.95 280.25 220.6 278.95 221.25 278.8 Q225.2 277.75 230.1 275.9 L237.35 272.95 242.85 270.55" fill="#000000" fill-rule="evenodd" stroke="none"/>
    <path d="M354.2 192.55 L364.05 194.45 368.05 181.35 368.1 190.9 Q366.95 197.7 353.4 211.5 335.05 230.2 304.75 250.95 274.35 271.6 249.7 282.15 236.1 287.95 228.7 288.7 L212.75 281.9 243.3 280.6 242.85 270.55 250.7 266.8 271.9 266.1 280.0 250.3 287.9 245.3 309.0 244.35 315.3 226.3 326.1 218.0 342.3 217.05 349.4 197.5 351.7 195.05 354.2 192.55" fill="#6c6c1c" fill-rule="evenodd" stroke="none"/>
    <path d="M364.25 180.35 Q367.7 175.15 368.0 171.75 368.25 169.45 367.05 167.95 362.1 161.4 334.9 173.1 327.85 176.05 320.35 179.85 L321.7 183.05 324.75 190.65 M349.85 173.25 L349.85 169.95 M363.95 180.85 L363.85 181.05 360.95 184.8 355.55 191.1 354.2 192.55 351.7 195.05 349.4 197.5 Q339.25 207.45 326.1 218.0 L315.3 226.3 298.05 238.55 287.9 245.3 280.0 250.3 Q264.6 259.85 250.7 266.8 L242.85 270.55 237.35 272.95 230.1 275.9 Q225.2 277.75 221.25 278.8 L220.6 278.95 213.95 280.25 208.35 280.0 212.75 281.9 228.7 288.7 Q236.1 287.95 249.7 282.15 274.35 271.6 304.75 250.95 335.05 230.2 353.4 211.5 366.95 197.7 368.1 190.9 L368.05 181.35 368.0 171.75 M349.85 173.25 L349.95 184.85 M255.5 153.55 L266.3 164.4 M316.8 214.0 Q318.15 211.1 316.45 209.75 L313.95 207.25 301.75 194.85 298.65 191.75 257.05 149.65 Q253.75 150.2 243.15 158.9 235.4 168.0 235.4 171.2 L252.1 223.35 254.1 229.5 258.7 244.2 260.25 249.25 Q261.0 252.95 268.0 250.4 M243.75 165.1 L250.15 176.25 M298.65 191.75 Q309.9 185.05 320.35 179.85 M246.2 235.25 L246.9 235.75 M241.25 231.95 Q233.4 238.5 226.75 244.75 L231.7 247.4 237.85 250.65 M246.2 235.25 L241.25 231.95 252.1 223.35 M208.35 280.0 L208.05 279.9 Q206.2 279.3 205.3 278.1 202.05 273.9 209.35 263.9 213.3 258.3 220.5 250.95 L226.75 244.75 M215.05 265.0 L209.35 263.9 M215.05 265.0 L228.95 267.75 M258.7 244.2 Q241.95 258.35 231.55 272.3 M260.9 163.55 L306.0 210.7 M313.95 207.25 Q334.05 196.45 346.95 192.6" fill="none" stroke="#000000" stroke-linecap="round" stroke-linejoin="round" stroke-opacity="0.3882353" stroke-width="0.2"/>
  </g>
</svg>
