<?xml version="1.0" encoding="UTF-8" standalone="no"?>
<svg xmlns:xlink="http://www.w3.org/1999/xlink" height="156.0px" width="75.7px" xmlns="http://www.w3.org/2000/svg">
  <g transform="matrix(1.0, 0.0, 0.0, 1.0, -269.75, -61.8)">
    <path d="M311.8 65.65 Q305.4 68.15 299.45 68.25 L304.8 68.45 Q293.85 70.85 283.85 69.05 L280.95 68.45 Q274.45 73.15 273.7 83.05 284.2 130.65 285.75 210.45 L284.85 215.05 282.15 214.8 Q282.5 160.5 269.75 82.15 270.1 72.7 280.6 67.05 L288.5 67.85 Q307.15 66.65 312.0 62.8 323.35 59.7 328.55 66.35 L319.1 63.9 Q323.1 76.25 320.45 113.15 322.2 160.45 330.75 206.9 L328.35 207.2 Q317.95 158.15 318.15 98.5 317.95 93.05 318.15 87.7 L318.15 87.3 318.5 72.35 Q318.95 67.4 316.0 63.7 L313.8 64.8 312.6 65.35 311.8 65.65 M299.45 68.25 L288.5 67.85 299.45 68.25 M338.35 203.25 L338.55 205.9 334.65 206.4 325.9 137.1 326.5 139.45 Q328.6 151.85 331.0 164.45 L338.35 203.25 M287.9 161.2 L286.95 153.95 280.95 111.5 Q294.7 184.0 293.85 217.15 L288.95 217.8 289.2 215.55 Q291.2 189.75 287.9 161.2" fill="#ffffff" fill-rule="evenodd" stroke="none"/>
    <path d="M318.15 87.3 Q315.7 71.5 311.05 65.95 L311.8 65.65 312.6 65.35 313.8 64.8 316.0 63.7 Q318.95 67.4 318.5 72.35 L318.15 87.3 M304.8 68.45 L304.8 68.65 Q291.2 73.6 285.3 72.35 283.4 77.5 284.35 86.95 279.8 70.2 283.85 69.05 293.85 70.85 304.8 68.45 M285.85 85.55 Q284.5 75.1 287.4 75.75 296.0 80.35 308.65 79.15 301.35 83.35 290.9 84.3 306.65 85.3 314.95 79.95 L315.95 82.7 Q299.2 88.15 285.85 85.55 M341.8 202.8 L338.35 203.25 331.0 164.45 Q328.6 151.85 326.5 139.45 324.8 121.95 325.0 113.55 329.75 155.4 341.8 202.8" fill="#c0b8ad" fill-rule="evenodd" stroke="none"/>
    <path d="M311.8 65.65 L311.05 65.95 Q315.7 71.5 318.15 87.3 L318.15 87.7 Q317.95 93.05 318.15 98.5 317.4 88.4 315.95 82.7 L314.95 79.95 Q306.65 85.3 290.9 84.3 301.35 83.35 308.65 79.15 296.0 80.35 287.4 75.75 284.5 75.1 285.85 85.55 286.5 91.8 288.95 102.1 286.05 93.45 284.35 86.95 283.4 77.5 285.3 72.35 291.2 73.6 304.8 68.65 L304.8 68.45 299.45 68.25 Q305.4 68.15 311.8 65.65 M312.15 76.0 Q313.65 77.25 314.95 79.95 313.65 77.25 312.15 76.0 M287.9 161.2 Q291.2 189.75 289.2 215.55 L284.85 215.05 285.75 210.45 Q289.0 188.2 287.9 161.2" fill="#d8d5c2" fill-rule="evenodd" stroke="none"/>
    <path d="M284.35 86.95 Q286.05 93.45 288.95 102.1 L291.25 114.65 Q299.95 159.25 298.95 216.5 L293.85 217.15 Q294.7 184.0 280.95 111.5 L286.95 153.95 287.9 161.2 Q289.0 188.2 285.75 210.45 284.2 130.65 273.7 83.05 274.45 73.15 280.95 68.45 L283.85 69.05 Q279.8 70.2 284.35 86.95 M330.75 206.9 Q322.2 160.45 320.45 113.15 323.1 76.25 319.1 63.9 L328.55 66.35 329.0 66.9 331.7 77.8 Q332.25 167.75 345.45 202.3 L341.8 202.8 Q329.75 155.4 325.0 113.55 324.8 121.95 326.5 139.45 L325.9 137.1 334.65 206.4 330.75 206.9" fill="#e9e7db" fill-rule="evenodd" stroke="none"/>
    <path d="M299.45 68.25 L304.8 68.45 M284.35 86.95 Q286.05 93.45 288.95 102.1 286.5 91.8 285.85 85.55 284.5 75.1 287.4 75.75 M314.95 79.95 Q313.65 77.25 312.15 76.0 M318.5 72.35 L318.15 87.3 318.15 87.7 Q317.95 93.05 318.15 98.5 317.95 158.15 328.35 207.2 L330.75 206.9 334.65 206.4 338.55 205.9 338.35 203.25 331.0 164.45 M328.55 66.35 Q323.35 59.7 312.0 62.8 307.15 66.65 288.5 67.85 L299.45 68.25 M328.55 66.35 L329.0 66.9 331.7 77.8 Q332.25 167.75 345.45 202.3 L341.8 202.8 338.35 203.25 M284.85 215.05 L282.15 214.8 Q282.5 160.5 269.75 82.15 270.1 72.7 280.6 67.05 L288.5 67.85 M293.85 217.15 L298.95 216.5 Q299.95 159.25 291.25 114.65 L288.95 102.1 M315.95 82.7 Q317.4 88.4 318.15 98.5 M314.95 79.95 L315.95 82.7 Q299.2 88.15 285.85 85.55 M284.35 86.95 Q279.8 70.2 283.85 69.05 M286.95 153.95 L287.9 161.2 Q291.2 189.75 289.2 215.55 L288.95 217.8 293.85 217.15 M284.85 215.05 L289.2 215.55" fill="none" stroke="#000000" stroke-linecap="round" stroke-linejoin="round" stroke-opacity="0.4" stroke-width="0.05"/>
  </g>
</svg>
