<?xml version="1.0" encoding="UTF-8" standalone="no"?>
<svg xmlns:xlink="http://www.w3.org/1999/xlink" height="38.85px" width="38.05px" xmlns="http://www.w3.org/2000/svg">
  <g transform="matrix(1.0, 0.0, 0.0, 1.0, -2.15, -1.35)">
    <path d="M13.25 10.75 L13.85 9.4 13.25 10.75 M12.8 20.2 L13.3 18.65 13.3 18.75 12.8 20.2 M13.45 18.15 L14.8 14.7 13.45 18.35 13.45 18.15" fill="#f15081" fill-rule="evenodd" stroke="none"/>
    <path d="M6.3 25.4 Q5.9 22.15 6.8 19.8 7.7 18.45 8.9 18.3 L8.9 18.05 8.9 18.6 8.95 16.95 Q9.0 14.85 10.0 13.35 L10.15 13.15 Q11.1 11.85 12.45 11.85 L12.9 11.75 13.15 11.1 13.25 10.75 13.85 9.4 15.55 6.75 Q16.5 5.6 17.8 4.95 L18.8 4.55 20.6 4.35 Q21.55 3.25 22.7 2.8 L23.05 2.65 Q24.45 2.0 25.8 2.9 27.55 1.5 29.5 1.4 L30.45 1.55 32.05 2.1 33.1 1.8 31.9 3.2 Q28.15 4.5 25.3 8.65 L26.9 7.8 24.5 9.5 25.7 6.9 24.9 7.8 25.3 7.3 28.55 3.3 28.05 3.5 Q24.75 3.85 23.75 5.05 L21.6 7.6 24.1 3.7 24.0 3.75 Q21.6 4.15 19.8 6.75 L19.25 7.5 Q17.65 10.05 15.7 14.6 L12.75 20.9 Q12.4 21.45 12.6 20.75 L12.7 20.5 12.8 20.2 13.3 18.75 13.3 18.65 13.15 19.0 13.4 18.3 13.45 18.15 13.45 18.35 14.8 14.7 15.8 12.35 16.25 11.2 18.45 7.15 18.45 7.0 18.45 6.95 17.8 6.95 17.8 6.8 17.1 6.85 Q15.95 7.0 13.6 15.15 11.25 23.3 11.45 23.1 10.0 26.5 10.45 23.6 L10.9 21.2 11.05 20.4 11.2 19.75 12.35 13.75 12.35 13.65 12.25 13.25 Q9.95 16.5 8.7 23.0 L8.8 21.5 8.75 21.95 8.6 21.8 8.55 21.7 8.35 21.5 7.8 21.55 7.25 21.95 7.25 22.05 Q6.3 23.7 6.3 25.4 M18.45 7.0 L18.45 7.2 Q17.0 9.7 15.8 12.35 17.0 9.7 18.45 7.2 L18.45 7.0 M13.4 18.3 L13.3 18.65 13.4 18.3" fill="#f5feb6" fill-rule="evenodd" stroke="none"/>
    <path d="M29.1 19.25 L23.7 27.35 26.9 21.5 29.1 19.25" fill="#541834" fill-rule="evenodd" stroke="none"/>
    <path d="M35.75 2.9 L36.9 2.95 37.6 3.4 38.15 4.45 37.7 5.75 38.65 6.25 38.7 6.3 Q39.15 6.7 39.25 7.25 38.7 8.85 36.9 8.95 37.55 9.85 37.15 10.8 36.5 11.7 35.0 11.65 L33.2 11.45 Q33.8 12.4 33.4 13.3 32.7 14.5 30.9 14.8 31.9 15.9 31.2 17.2 30.75 18.0 29.75 18.25 28.4 18.8 26.75 18.6 27.25 19.3 26.95 20.15 L25.2 21.25 23.0 21.5 Q23.4 22.05 23.25 22.55 22.95 23.25 22.1 23.75 20.8 24.6 19.45 24.6 L17.2 24.85 16.7 25.45 Q17.0 26.0 16.8 26.55 16.6 27.25 16.0 27.75 13.2 29.1 10.05 29.95 L9.3 30.65 8.6 33.5 7.95 35.4 6.8 36.75 5.25 38.0 7.35 35.4 9.0 30.1 15.8 26.9 16.3 26.15 16.15 24.8 Q16.1 25.5 15.25 26.1 L14.65 26.15 8.8 29.75 7.1 35.05 5.25 37.15 4.9 37.3 Q3.15 37.85 4.5 36.45 L6.0 34.8 6.7 33.0 7.15 30.75 7.15 29.0 Q6.45 26.85 6.35 25.7 L6.3 25.4 Q6.3 23.7 7.25 22.05 L7.25 21.95 7.8 21.55 8.35 21.5 8.55 21.7 7.85 27.95 8.7 27.3 8.6 21.8 8.75 21.95 8.8 21.5 8.7 23.0 Q9.95 16.5 12.25 13.25 L12.35 13.65 9.65 25.7 10.2 24.8 10.45 23.6 Q10.0 26.5 11.45 23.1 11.25 23.3 13.6 15.15 15.95 7.0 17.1 6.85 L17.8 6.8 17.8 6.95 18.45 6.95 18.45 7.0 18.45 7.15 16.25 11.2 15.8 12.35 14.8 14.7 13.45 18.15 13.4 18.3 13.15 19.0 13.3 18.65 12.8 20.2 12.7 20.5 12.6 20.75 Q12.4 21.45 12.75 20.9 L15.7 14.6 Q17.65 10.05 19.25 7.5 L19.8 6.75 Q21.6 4.15 24.0 3.75 19.5 8.6 16.8 14.8 L19.1 11.5 21.6 7.6 23.75 5.05 Q24.75 3.85 28.05 3.5 24.2 6.65 20.7 11.65 L23.15 9.75 25.3 7.3 24.9 7.8 25.7 6.9 24.5 9.5 26.9 7.8 28.8 7.05 Q29.9 5.8 31.15 4.85 L30.1 5.2 32.3 2.95 31.9 3.2 33.1 1.8 34.1 1.85 34.75 2.3 35.2 3.1 35.75 2.9 M8.9 18.05 L8.95 16.95 8.9 18.6 8.9 18.05 M36.65 5.35 L37.45 5.05 37.35 4.0 36.7 3.65 Q32.75 4.6 30.1 6.7 33.5 5.5 36.65 5.35 M31.85 10.25 L35.45 10.25 Q36.5 10.0 36.5 8.95 L35.65 8.15 38.05 7.75 38.65 7.05 38.0 6.25 Q37.9 6.8 37.0 7.05 L30.5 7.75 33.9 7.8 35.65 8.15 Q35.8 8.8 34.95 9.2 27.95 8.5 22.9 11.25 26.65 10.3 30.55 10.25 L31.85 10.25 M32.3 11.75 L31.85 11.05 Q31.85 11.8 31.3 12.15 30.25 11.55 28.9 11.75 23.7 12.0 19.25 14.3 L16.15 16.55 Q22.45 12.8 28.8 13.7 L30.35 13.95 29.9 13.1 31.65 12.9 Q32.35 12.4 32.3 11.75 M25.85 17.5 L26.05 17.75 Q25.4 19.1 24.45 18.85 17.4 17.9 10.6 24.85 15.75 20.65 20.65 19.95 L24.0 19.85 25.15 19.85 25.9 19.4 26.35 18.15 25.85 17.5 M21.6 20.4 Q21.95 20.75 21.7 21.2 21.65 21.75 20.65 21.85 14.25 22.6 9.3 28.0 12.55 25.15 15.6 24.25 L15.25 24.0 17.6 23.15 20.8 23.05 21.6 22.6 22.3 21.95 22.2 20.95 21.6 20.4 M30.35 15.25 Q29.9 14.6 29.45 14.75 L29.05 15.5 Q20.7 14.25 13.95 20.0 L12.8 21.05 13.9 20.2 Q18.9 16.55 24.8 16.55 L29.5 16.6 Q30.3 16.05 30.35 15.3 L30.35 15.25" fill="#ffc95b" fill-rule="evenodd" stroke="none"/>
    <path d="M37.6 3.4 L37.9 3.5 Q39.05 4.15 39.05 4.95 39.1 5.65 38.65 6.25 L37.7 5.75 38.15 4.45 37.6 3.4 M38.7 6.3 Q40.05 6.75 40.2 7.75 39.65 9.35 37.9 9.5 38.55 10.4 38.1 11.35 37.45 12.25 35.95 12.2 L34.15 12.0 Q34.75 12.95 34.35 13.85 33.65 15.05 31.9 15.35 32.85 16.4 32.15 17.7 31.7 18.55 30.7 18.8 L29.15 19.15 29.1 19.25 26.9 21.5 26.15 21.8 24.35 22.2 24.2 23.1 23.1 24.3 Q21.8 25.1 20.45 25.15 L18.15 25.4 Q18.6 26.25 18.3 26.9 L17.55 28.0 Q14.2 29.65 11.0 30.5 L10.25 31.15 9.6 34.05 8.9 35.9 7.75 37.3 5.7 39.0 2.45 40.2 2.3 38.45 2.2 37.55 4.5 36.45 Q3.15 37.85 4.9 37.3 L2.3 38.45 4.9 37.3 5.25 37.15 7.1 35.05 8.8 29.75 14.65 26.15 15.25 26.1 Q16.1 25.5 16.15 24.8 L16.3 26.15 15.8 26.9 9.0 30.1 7.35 35.4 5.25 38.0 6.8 36.75 7.95 35.4 8.6 33.5 9.3 30.65 10.05 29.95 Q13.2 29.1 16.0 27.75 16.6 27.25 16.8 26.55 17.0 26.0 16.7 25.45 L17.2 24.85 19.45 24.6 Q20.8 24.6 22.1 23.75 22.95 23.25 23.25 22.55 23.4 22.05 23.0 21.5 L25.2 21.25 26.95 20.15 Q27.25 19.3 26.75 18.6 28.4 18.8 29.75 18.25 30.75 18.0 31.2 17.2 31.9 15.9 30.9 14.8 32.7 14.5 33.4 13.3 33.8 12.4 33.2 11.45 L35.0 11.65 Q36.5 11.7 37.15 10.8 37.55 9.85 36.9 8.95 38.7 8.85 39.25 7.25 39.15 6.7 38.7 6.3 M34.75 2.3 L35.05 2.4 35.75 2.9 35.2 3.1 34.75 2.3 M36.65 5.35 Q33.5 5.5 30.1 6.7 32.75 4.6 36.7 3.65 L37.35 4.0 37.45 5.05 36.65 5.35 M31.9 3.2 L32.3 2.95 30.1 5.2 31.15 4.85 Q29.9 5.8 28.8 7.05 L26.9 7.8 25.3 8.65 Q28.15 4.5 31.9 3.2 M25.3 7.3 L23.15 9.75 20.7 11.65 Q24.2 6.65 28.05 3.5 L28.55 3.3 25.3 7.3 M21.6 7.6 L19.1 11.5 16.8 14.8 Q19.5 8.6 24.0 3.75 L24.1 3.7 21.6 7.6 M10.45 23.6 L10.2 24.8 9.65 25.7 12.35 13.65 12.35 13.75 11.2 19.75 11.05 20.4 10.9 21.2 10.45 23.6 M8.6 21.8 L8.7 27.3 7.85 27.95 8.55 21.7 8.6 21.8 M32.3 11.75 Q32.35 12.4 31.65 12.9 L29.9 13.1 30.35 13.95 28.8 13.7 Q22.45 12.8 16.15 16.55 L19.25 14.3 Q23.7 12.0 28.9 11.75 30.25 11.55 31.3 12.15 31.85 11.8 31.85 11.05 L32.3 11.75 M31.85 10.25 L30.55 10.25 Q26.65 10.3 22.9 11.25 27.95 8.5 34.95 9.2 35.8 8.8 35.65 8.15 L33.9 7.8 30.5 7.75 37.0 7.05 Q37.9 6.8 38.0 6.25 L38.65 7.05 38.05 7.75 35.65 8.15 36.5 8.95 Q36.5 10.0 35.45 10.25 L31.85 10.25 M29.15 19.15 L29.75 18.25 29.15 19.15 M25.85 17.5 L26.35 18.15 25.9 19.4 25.15 19.85 24.0 19.85 20.65 19.95 Q15.75 20.65 10.6 24.85 17.4 17.9 24.45 18.85 25.4 19.1 26.05 17.75 L25.85 17.5 M30.35 15.25 L30.35 15.3 Q30.3 16.05 29.5 16.6 L24.8 16.55 Q18.9 16.55 13.9 20.2 L12.8 21.05 13.95 20.0 Q20.7 14.25 29.05 15.5 L29.45 14.75 Q29.9 14.6 30.35 15.25 M21.6 20.4 L22.2 20.95 22.3 21.95 21.6 22.6 20.8 23.05 17.6 23.15 15.25 24.0 15.6 24.25 Q12.55 25.15 9.3 28.0 14.25 22.6 20.65 21.85 21.65 21.75 21.7 21.2 21.95 20.75 21.6 20.4" fill="#895501" fill-rule="evenodd" stroke="none"/>
    <path d="M35.75 2.9 L36.9 2.95 37.6 3.4 M29.15 19.15 L29.1 19.25 26.9 21.5 M2.3 38.45 L2.2 37.55 4.5 36.45 6.0 34.8 6.7 33.0 7.15 30.75 7.15 29.0 Q6.45 26.85 6.35 25.7 L6.3 25.4 Q5.9 22.15 6.8 19.8 7.7 18.45 8.9 18.3 L8.9 18.05 8.95 16.95 Q9.0 14.85 10.0 13.35 L10.15 13.15 Q11.1 11.85 12.45 11.85 L12.9 11.75 13.15 11.1 13.25 10.75 13.85 9.4 15.55 6.75 Q16.5 5.6 17.8 4.95 L18.8 4.55 20.6 4.35 Q21.55 3.25 22.7 2.8 L23.05 2.65 Q24.45 2.0 25.8 2.9 27.55 1.5 29.5 1.4 L30.45 1.55 32.05 2.1 33.1 1.8 34.1 1.85 34.75 2.3 35.2 3.1 35.75 2.9 M12.6 20.75 L12.7 20.5 12.8 20.2 13.3 18.65 13.4 18.3 13.45 18.15 14.8 14.7 15.8 12.35 Q17.0 9.7 18.45 7.2 L18.45 7.0 M29.75 18.25 L29.15 19.15 M4.9 37.3 L2.3 38.45 M4.9 37.3 L5.25 37.15" fill="none" stroke="#895501" stroke-linecap="round" stroke-linejoin="round" stroke-width="0.1"/>
    <path d="M29.1 19.25 L23.7 27.35 26.9 21.5" fill="none" stroke="#541834" stroke-linecap="round" stroke-linejoin="round" stroke-width="0.1"/>
  </g>
</svg>
