<?xml version="1.0" encoding="UTF-8" standalone="no"?>
<svg xmlns:xlink="http://www.w3.org/1999/xlink" height="655.7px" width="338.0px" xmlns="http://www.w3.org/2000/svg">
  <g transform="matrix(1.0, 0.0, 0.0, 1.0, -95.1, 104.0)">
    <path d="M347.85 107.5 L347.2 107.75 308.85 -2.5 290.85 -22.5 266.75 -38.25 258.85 -47.5 289.85 -32.5 312.85 -10.5 347.85 107.5 M217.65 378.4 L217.85 382.45 200.85 349.45 184.85 216.45 199.85 98.5 247.85 -9.5 258.85 -47.5 258.85 -24.5 251.85 -0.5 237.1 257.3 233.6 244.4 232.25 239.45 232.25 202.3 239.65 101.55 243.65 47.5 246.55 8.5 206.85 100.5 211.55 120.8 220.8 160.95 224.9 178.8 203.05 108.75 198.3 148.55 190.35 215.25 189.85 219.45 199.35 291.85 206.85 349.45 217.65 378.4 M246.55 8.5 L247.85 -9.5 246.55 8.5 M203.05 108.75 L199.85 98.5 203.05 108.75" fill="#ffffff" fill-rule="evenodd" stroke="none"/>
    <path d="M291.05 336.9 L274.85 413.45 246.85 346.45 252.85 315.45 262.4 358.0 267.25 379.55 274.85 413.45 287.85 267.45 293.7 240.95 295.85 276.45 303.85 194.95 319.85 122.5 315.45 159.3 308.5 217.25 315.45 159.3 323.85 294.45 308.5 217.25 307.2 228.35 296.85 309.45 292.3 331.15 296.85 309.45 307.2 228.35 316.6 291.65 321.3 357.9 314.85 349.45 292.3 331.15 291.05 336.9 M232.25 202.3 L232.25 239.45 233.6 244.4 223.75 273.9 Q230.3 198.85 214.85 166.5 208.35 148.75 198.3 148.55 L203.05 108.75 224.9 178.8 232.25 202.3" fill="#756796" fill-rule="evenodd" stroke="none"/>
    <path d="M331.55 362.6 L329.85 380.45 316.6 291.65 307.2 228.35 308.5 217.25 323.85 294.45 315.45 159.3 319.85 122.5 300.6 40.75 326.85 92.5 339.85 214.45 331.55 362.6 M246.85 346.45 L244.55 284.85 252.85 315.45 246.85 346.45 M240.6 270.25 L221.85 316.45 217.65 378.4 215.75 340.9 213.85 303.45 217.05 293.85 223.75 273.9 233.6 244.4 237.1 257.3 240.6 270.25" fill="#a49aba" fill-rule="evenodd" stroke="none"/>
    <path d="M345.85 209.45 L331.55 362.6 339.85 214.45 326.85 92.5 300.6 40.75 294.7 15.55 300.6 40.75 319.85 122.5 303.85 194.95 295.85 276.45 293.7 240.95 287.85 267.45 274.85 413.45 267.25 379.55 Q264.45 105.75 287.85 -13.5 L294.7 15.55 332.85 87.5 345.85 209.45" fill="#c5bed3" fill-rule="evenodd" stroke="none"/>
    <path d="M347.2 107.75 L347.8 109.5 345.85 209.45 332.85 87.5 294.7 15.55 287.85 -13.5 Q264.45 105.75 267.25 379.55 L262.4 358.0 258.85 118.5 258.85 -24.5 258.85 -47.5 266.75 -38.25 290.85 -22.5 308.85 -2.5 347.2 107.75 M329.85 380.45 L312.85 355.45 291.05 336.9 292.3 331.15 314.85 349.45 321.3 357.9 316.6 291.65 329.85 380.45 M266.75 -38.25 L287.85 -13.5 266.75 -38.25 M246.55 8.5 L243.65 47.5 Q232.35 96.9 211.55 120.8 L206.85 100.5 246.55 8.5 M239.65 101.55 L232.25 202.3 224.9 178.8 220.8 160.95 Q225.0 115.65 239.65 101.55 M198.3 148.55 Q208.35 148.75 214.85 166.5 230.3 198.85 223.75 273.9 L217.05 293.85 Q200.5 270.5 190.35 215.25 L198.3 148.55 M199.35 291.85 Q211.4 302.95 215.75 340.9 L217.65 378.4 206.85 349.45 199.35 291.85" fill="#cac5d8" fill-rule="evenodd" stroke="none"/>
    <path d="M244.55 284.85 L240.6 270.25 237.1 257.3 251.85 -0.5 258.85 -24.5 258.85 118.5 262.4 358.0 252.85 315.45 244.55 284.85 M243.65 47.5 L239.65 101.55 Q225.0 115.65 220.8 160.95 L211.55 120.8 Q232.35 96.9 243.65 47.5 M190.35 215.25 Q200.5 270.5 217.05 293.85 L213.85 303.45 215.75 340.9 Q211.4 302.95 199.35 291.85 L189.85 219.45 190.35 215.25" fill="#efedf3" fill-rule="evenodd" stroke="none"/>
    <path d="M347.8 109.5 L347.85 107.5 312.85 -10.5 289.85 -32.5 258.85 -47.5 266.75 -38.25 287.85 -13.5 294.7 15.55 300.6 40.75 319.85 122.5 303.85 194.95 M347.8 109.5 L345.85 209.45 331.55 362.6 329.85 380.45 312.85 355.45 291.05 336.9 274.85 413.45 246.85 346.45 244.55 284.85 240.6 270.25 221.85 316.45 217.65 378.4 217.85 382.45 200.85 349.45 184.85 216.45 199.85 98.5 247.85 -9.5 258.85 -47.5 M262.4 358.0 L267.25 379.55 274.85 413.45 287.85 267.45 293.7 240.95 M345.85 209.45 L332.85 87.5 294.7 15.55 M247.85 -9.5 L246.55 8.5 243.65 47.5 239.65 101.55 232.25 202.3 232.25 239.45 233.6 244.4 237.1 257.3 240.6 270.25 M315.45 159.3 L319.85 122.5 M199.85 98.5 L203.05 108.75 224.9 178.8 232.25 202.3 M223.75 273.9 L233.6 244.4 M217.05 293.85 L223.75 273.9 M215.75 340.9 L213.85 303.45 217.05 293.85 M307.2 228.35 L308.5 217.25 315.45 159.3 M244.55 284.85 L252.85 315.45 262.4 358.0 M292.3 331.15 L291.05 336.9 M252.85 315.45 L246.85 346.45 M292.3 331.15 L296.85 309.45 307.2 228.35 316.6 291.65 329.85 380.45 M217.65 378.4 L215.75 340.9" fill="none" stroke="#000000" stroke-linecap="round" stroke-linejoin="round" stroke-opacity="0.4" stroke-width="0.05"/>
    <path d="M386.0 141.7 L399.95 154.75 433.1 287.75 402.0 405.7 302.45 513.7 279.65 551.7 215.4 536.7 167.7 514.7 95.1 396.7 96.45 396.45 176.0 506.7 213.3 526.7 263.3 542.45 279.65 551.7 279.65 528.7 294.2 504.7 324.75 246.9 332.0 259.8 334.8 264.75 334.8 301.9 319.5 402.65 311.2 456.7 305.15 495.7 387.5 403.7 377.75 383.4 358.55 343.25 350.05 325.4 395.35 395.45 402.0 405.7 395.35 395.45 405.2 355.65 421.7 288.95 422.75 284.75 403.05 212.35 387.5 154.75 365.1 125.8 364.7 121.75 373.2 129.7 386.0 141.7 M302.45 513.7 L305.15 495.7 302.45 513.7" fill="#ffffff" fill-rule="evenodd" stroke="none"/>
    <path d="M309.3 219.35 L317.5 233.95 324.75 246.9 294.2 504.7 279.65 528.7 279.65 385.7 272.3 146.2 292.1 188.75 309.3 219.35 M366.35 210.35 L373.0 200.75 369.05 163.3 Q378.05 201.25 403.05 212.35 L422.75 284.75 421.7 288.95 Q402.3 238.0 371.65 214.2 L366.35 210.35 M358.55 343.25 L377.75 383.4 Q334.6 407.3 311.2 456.7 L319.5 402.65 Q349.85 388.55 358.55 343.25" fill="#efedf3" fill-rule="evenodd" stroke="none"/>
    <path d="M258.25 -79.15 L258.85 -79.0 258.3 -78.9 258.25 -79.15 M213.9 18.5 Q214.15 18.0 214.75 18.0 L214.75 18.45 213.9 18.5" fill="#756796" fill-opacity="0.5019608" fill-rule="evenodd" stroke="none"/>
    <path d="M304.55 157.75 L309.3 219.35 292.1 188.75 304.55 157.75 M246.5 90.75 L262.25 124.65 Q268.05 398.45 219.55 517.7 L205.3 488.65 193.1 463.45 153.15 381.7 186.35 309.25 202.95 227.75 207.4 263.25 219.55 236.75 246.5 90.75" fill="#b6a498" fill-rule="evenodd" stroke="none"/>
    <path d="M296.75 148.75 L304.55 157.75 292.1 188.75 272.3 146.2 262.25 124.65 246.5 90.75 296.75 148.75 M210.3 173.05 L212.9 167.3 246.5 90.75 219.55 236.75 207.4 263.25 202.95 227.75 186.35 309.25 153.15 381.7 162.3 344.9 176.7 286.95 162.3 344.9 144.9 209.75 176.7 286.95 179.4 275.85 159.9 212.55 150.15 146.3 163.55 154.75 210.3 173.05 200.85 194.75 179.4 275.85 200.85 194.75 210.3 173.05 M352.45 230.3 Q338.85 305.35 370.9 337.7 384.4 355.45 405.2 355.65 L395.35 395.45 350.05 325.4 334.8 301.9 334.8 264.75 332.0 259.8 352.45 230.3" fill="#705c50" fill-rule="evenodd" stroke="none"/>
    <path d="M95.2 394.7 L99.25 294.75 128.9 141.6 111.7 289.75 138.65 411.7 193.1 463.45 205.3 488.65 219.55 517.7 263.3 542.45 219.55 517.7 Q268.05 398.45 262.25 124.65 L272.3 146.2 279.65 385.7 279.65 528.7 279.65 551.7 263.3 542.45 213.3 526.7 176.0 506.7 96.45 396.45 95.2 394.7 M132.45 123.75 L138.7 128.2 148.1 134.85 165.05 146.85 167.7 148.75 212.9 167.3 210.3 173.05 163.55 154.75 150.15 146.3 159.9 212.55 132.45 123.75 M366.35 210.35 L371.65 214.2 Q402.3 238.0 421.7 288.95 L405.2 355.65 Q384.4 355.45 370.9 337.7 338.85 305.35 352.45 230.3 L366.35 210.35 M403.05 212.35 Q378.05 201.25 369.05 163.3 L365.1 125.8 387.5 154.75 403.05 212.35 M99.25 294.75 L126.2 416.7 205.3 488.65 126.2 416.7 99.25 294.75 M377.75 383.4 L387.5 403.7 305.15 495.7 311.2 456.7 Q334.6 407.3 377.75 383.4 M334.8 301.9 L350.05 325.4 358.55 343.25 Q349.85 388.55 319.5 402.65 L334.8 301.9" fill="#ded6d1" fill-rule="evenodd" stroke="none"/>
    <path d="M128.9 141.6 L132.45 123.75 159.9 212.55 179.4 275.85 176.7 286.95 144.9 209.75 162.3 344.9 153.15 381.7 193.1 463.45 138.65 411.7 111.7 289.75 128.9 141.6 M361.25 153.3 L365.1 125.8 369.05 163.3 373.0 200.75 366.35 210.35 352.45 230.3 332.0 259.8 324.75 246.9 317.5 233.95 356.4 187.75 361.25 153.3" fill="#9f8879" fill-rule="evenodd" stroke="none"/>
    <path d="M138.7 128.2 L232.85 -85.0 241.4 -85.0 258.25 -79.15 258.85 -79.0 265.7 -87.95 272.0 -96.25 277.85 -104.0 324.55 -64.75 386.0 141.7 399.95 154.75 433.1 287.75 402.0 405.7 302.45 513.7 279.65 551.7 215.4 536.7 167.7 514.7 95.1 396.7 95.2 394.7 99.25 294.75 128.9 141.6 132.45 123.75 138.7 128.2 148.1 134.85 241.4 -85.0 M258.25 -79.15 L258.3 -78.9 258.85 -79.0 M265.7 -87.95 Q269.0 -80.95 276.95 -66.25 L296.0 -31.0 Q323.9 21.55 340.75 64.0 341.65 66.3 349.2 103.9 356.1 136.2 361.25 153.3 L365.1 125.8 364.7 121.75 373.2 129.7 319.85 -50.0 272.0 -96.25 M214.75 18.45 Q214.9 25.3 218.9 50.65 223.4 79.0 225.75 79.0 237.55 79.0 248.75 63.0 252.4 57.8 255.35 51.75 257.75 46.85 257.75 46.0 257.75 23.65 253.25 12.65 250.9 6.85 250.15 3.45 248.75 -3.15 248.75 -14.5 L249.75 -24.2 250.75 -34.85 Q250.85 -29.0 257.8 -19.5 261.75 -14.05 266.75 -9.0 L267.75 -8.0 271.0 -14.35 Q261.8 -57.85 258.3 -78.9 M165.05 146.85 L166.05 143.2 Q173.1 118.0 185.75 89.0 L207.05 39.85 Q213.75 23.45 213.75 19.0 L213.9 18.5 Q214.15 18.0 214.75 18.0 L214.75 18.45 M271.0 -14.35 L280.85 31.65 Q296.15 107.35 296.75 148.75 L304.55 157.75 309.3 219.35 317.5 233.95 356.4 187.75 361.25 153.3 M246.5 90.75 L262.25 124.65 272.3 146.2 292.1 188.75 304.55 157.75 M210.3 173.05 L212.9 167.3 167.7 148.75 165.05 146.85 148.1 134.85 M309.3 219.35 L292.1 188.75 M212.9 167.3 L246.5 90.75 296.75 148.75 M207.4 263.25 L219.55 236.75 246.5 90.75 M386.0 141.7 L373.2 129.7 M369.05 163.3 L373.0 200.75 366.35 210.35 352.45 230.3 332.0 259.8 324.75 246.9 317.5 233.95 M369.05 163.3 L365.1 125.8 M210.3 173.05 L200.85 194.75 179.4 275.85 176.7 286.95 162.3 344.9 153.15 381.7 186.35 309.25 M132.45 123.75 L159.9 212.55 179.4 275.85 M263.3 542.45 L219.55 517.7 205.3 488.65 126.2 416.7 99.25 294.75 M193.1 463.45 L153.15 381.7 M395.35 395.45 L402.0 405.7 M305.15 495.7 L302.45 513.7 M279.65 551.7 L263.3 542.45 M332.0 259.8 L334.8 264.75 334.8 301.9 350.05 325.4 395.35 395.45 M311.2 456.7 L305.15 495.7 M319.5 402.65 L334.8 301.9 M311.2 456.7 L319.5 402.65 M205.3 488.65 L193.1 463.45" fill="none" stroke="#000000" stroke-linecap="round" stroke-linejoin="round" stroke-opacity="0.4" stroke-width="0.05"/>
  </g>
</svg>
