<?xml version="1.0" encoding="UTF-8" standalone="no"?>
<svg xmlns:xlink="http://www.w3.org/1999/xlink" height="117.65px" width="102.75px" xmlns="http://www.w3.org/2000/svg">
  <g transform="matrix(1.0, 0.0, 0.0, 1.0, 0.0, 0.0)">
    <path d="M88.85 114.3 L82.85 112.9 60.6 95.0 59.7 91.35 53.45 67.5 62.75 75.55 62.75 89.6 88.85 114.3" fill="#ffffff" fill-rule="evenodd" stroke="none"/>
    <path d="M8.7 57.9 L0.0 63.9 28.75 32.4 28.75 0.0 36.15 28.25 35.55 31.5 32.8 48.25 32.8 48.35 24.75 51.55 32.8 48.35 32.8 48.25 35.55 31.5 Q36.15 45.05 47.1 52.0 L24.75 51.55 16.75 54.75 8.7 57.9" fill="#756796" fill-rule="evenodd" stroke="none"/>
    <path d="M83.65 66.9 L94.75 81.25 102.75 96.25 102.75 117.65 86.5 98.05 Q77.95 70.0 83.65 66.9 M47.1 52.0 L61.4 52.35 Q76.2 67.1 75.55 86.55 L62.75 75.55 53.45 67.5 16.75 54.75 24.75 51.55 47.1 52.0" fill="#a49aba" fill-rule="evenodd" stroke="none"/>
    <path d="M6.35 89.55 Q3.75 90.55 2.8 89.55 0.65 87.35 6.6 75.3 L8.7 57.9 16.75 54.75 53.45 67.5 59.7 91.35 32.0 83.6 18.55 89.55 Q9.3 88.4 6.35 89.55 L2.8 89.55 6.35 89.55" fill="#c5bed3" fill-rule="evenodd" stroke="none"/>
    <path d="M83.65 66.9 Q77.95 70.0 86.5 98.05 L102.75 117.65 88.85 114.3 62.75 89.6 62.75 75.55 75.55 86.55 Q76.2 67.1 61.4 52.35 L47.1 52.0 Q36.15 45.05 35.55 31.5 L36.15 28.25 36.7 25.0 50.25 42.95 72.5 52.6 83.65 66.9 M60.6 95.0 L23.25 89.55 18.55 89.55 32.0 83.6 59.7 91.35 60.6 95.0 M72.5 52.6 L61.4 52.35 72.5 52.6" fill="#cac5d8" fill-rule="evenodd" stroke="none"/>
    <path d="M102.75 117.65 L102.75 96.25 94.75 81.25 83.65 66.9 72.5 52.6 50.25 42.95 36.7 25.0 M102.75 117.65 L88.85 114.3 82.85 112.9 60.6 95.0 23.25 89.55 18.55 89.55 6.35 89.55 2.8 89.55 M61.4 52.35 L72.5 52.6" fill="none" stroke="#000000" stroke-linecap="round" stroke-linejoin="round" stroke-opacity="0.4" stroke-width="0.05"/>
    <path d="M36.15 28.25 L36.7 25.0 M35.55 31.5 L36.15 28.25 M24.75 51.55 L32.8 48.35 32.8 48.25 35.55 31.5 M8.7 57.9 L16.75 54.75 24.75 51.55" fill="none" stroke="#000000" stroke-linecap="round" stroke-linejoin="round" stroke-opacity="0.4" stroke-width="1.0"/>
  </g>
</svg>
