<?xml version="1.0" encoding="UTF-8" standalone="no"?>
<svg xmlns:xlink="http://www.w3.org/1999/xlink" height="44.95px" width="59.25px" xmlns="http://www.w3.org/2000/svg">
  <g transform="matrix(1.0, 0.0, 0.0, 1.0, -240.75, -197.8)">
    <path d="M292.9 201.45 L296.3 197.8 293.95 201.75 300.0 201.0 295.4 203.9 298.05 204.2 275.25 216.5 276.75 216.5 265.15 220.15 241.5 241.5 242.25 240.0 Q243.1 237.55 244.2 235.45 L244.2 235.4 246.6 232.85 Q250.6 227.75 256.35 224.7 L256.6 223.95 256.45 223.85 Q256.05 222.95 255.4 222.55 257.3 221.25 259.35 220.15 L259.65 220.05 259.9 219.85 255.0 216.9 Q255.75 216.85 256.7 217.35 L258.6 217.9 259.2 217.8 Q261.05 218.55 263.35 218.6 L263.85 218.1 263.85 217.1 263.55 216.8 267.85 215.35 268.05 215.15 268.25 215.0 261.65 213.4 267.75 212.8 Q269.2 213.6 271.2 213.6 L272.6 213.2 272.6 212.35 272.5 212.3 274.2 212.1 274.45 210.05 279.0 208.25 278.45 207.8 275.05 206.75 278.9 205.8 281.7 205.95 282.1 205.7 282.7 205.7 Q286.85 206.4 290.6 203.95 291.75 203.15 292.5 201.9 L292.9 201.45" fill="#000000" fill-rule="evenodd" stroke="none"/>
    <path d="M292.9 201.45 L292.5 201.9 Q291.75 203.15 290.6 203.95 286.85 206.4 282.7 205.7 L282.1 205.7 281.7 205.95 278.9 205.8 291.85 202.5 292.9 201.45 M272.5 212.3 L272.6 212.35 272.6 213.2 271.2 213.6 Q269.2 213.6 267.75 212.8 L272.5 212.3 M263.55 216.8 L263.85 217.1 263.85 218.1 263.35 218.6 Q261.05 218.55 259.2 217.8 L263.55 216.8 M255.4 222.55 Q256.05 222.95 256.45 223.85 L256.6 223.95 256.35 224.7 Q250.6 227.75 246.6 232.85 L244.2 235.4 244.2 235.45 244.55 234.7 247.55 229.75 Q249.1 227.5 251.0 225.9 253.05 224.1 255.4 222.55" fill="#999999" fill-rule="evenodd" stroke="none"/>
    <path d="M244.2 235.45 Q243.1 237.55 242.25 240.0 L241.5 241.5 265.15 220.15 276.75 216.5 275.25 216.5 298.05 204.2 295.4 203.9 300.0 201.0 293.95 201.75 296.3 197.8 292.9 201.45 291.85 202.5 278.9 205.8 275.05 206.75 278.45 207.8 279.0 208.25 274.45 210.05 274.2 212.1 272.5 212.3 267.75 212.8 261.65 213.4 268.25 215.0 268.05 215.15 267.85 215.35 263.55 216.8 259.2 217.8 258.6 217.9 256.7 217.35 Q255.75 216.85 255.0 216.9 L259.9 219.85 259.65 220.05 259.35 220.15 Q257.3 221.25 255.4 222.55 253.05 224.1 251.0 225.9 249.1 227.5 247.55 229.75 L244.55 234.7 244.2 235.45 M241.5 241.5 L240.75 242.75" fill="none" stroke="#000000" stroke-linecap="round" stroke-linejoin="round" stroke-width="0.05"/>
  </g>
</svg>
