<?xml version="1.0" encoding="UTF-8" standalone="no"?>
<svg xmlns:xlink="http://www.w3.org/1999/xlink" height="38.6px" width="37.35px" xmlns="http://www.w3.org/2000/svg">
  <g transform="matrix(1.0, 0.0, 0.0, 1.0, -261.8, -383.65)">
    <path d="M265.0 395.9 Q263.65 398.1 263.0 400.8 262.4 402.95 262.3 405.0 262.25 409.8 264.9 414.05 268.7 420.0 276.0 421.4 283.3 422.8 289.75 418.75 296.25 414.65 298.05 407.5 299.9 400.3 296.1 394.25 293.05 389.4 287.7 387.6 L287.2 387.45 285.1 386.85 284.0 386.65 280.3 386.55" fill="none" stroke="#000000" stroke-linecap="round" stroke-linejoin="round" stroke-opacity="0.3019608" stroke-width="1.0"/>
    <path d="M280.3 386.55 L280.6 388.9 Q281.0 389.8 280.2 391.15 L279.65 391.95 Q278.5 393.5 276.6 394.8 L275.2 395.65 271.9 397.2 269.75 397.65 267.4 397.5 267.2 397.35 267.15 397.4 265.8 396.6 265.0 395.9 Q263.55 394.25 264.5 392.1 264.65 391.2 265.5 390.1 L267.2 388.35 M288.5 399.45 Q290.2 402.05 289.1 405.25 L289.05 405.4 Q288.4 407.55 286.8 409.1 L284.95 410.55 Q282.65 411.95 280.35 412.15 L278.35 412.05 Q276.5 411.8 275.15 410.9 274.2 410.3 273.5 409.2 L273.35 409.0 Q272.7 408.0 272.5 406.9 272.6 406.1 272.85 405.25 273.4 403.6 274.45 402.2 275.75 400.4 277.85 399.05 281.6 396.75 285.55 397.25 L286.6 397.45 Q287.75 398.3 288.5 399.45 M280.3 386.55 Q279.2 383.5 274.8 384.35 L274.55 384.55 275.35 384.4 Q277.9 384.1 278.6 385.35 279.2 386.25 278.5 387.6 L278.15 388.1 M276.75 389.7 L276.25 390.3 275.05 391.25 M267.4 388.2 Q268.5 387.25 269.95 386.35 L270.1 386.3 Q272.45 384.95 274.55 384.55 M264.7 393.4 Q264.35 392.8 264.5 392.1 M271.15 393.45 L269.45 394.05" fill="none" stroke="#382510" stroke-linecap="round" stroke-linejoin="round" stroke-opacity="0.3019608" stroke-width="1.0"/>
    <path d="M278.15 388.1 L277.85 388.55 277.6 388.85 276.75 389.7 276.05 389.5 272.6 389.1 Q274.85 385.7 277.2 386.15 278.2 386.45 278.65 387.1 L278.45 387.6 278.15 388.1 M270.1 386.3 L270.7 387.2 Q271.0 387.8 270.85 388.5 276.8 385.5 274.4 385.2 M267.2 388.35 L267.4 388.2 M267.2 388.35 L267.2 389.7 269.95 389.1 269.95 391.35 274.0 390.75 274.05 391.95" fill="none" stroke="#000000" stroke-linecap="round" stroke-linejoin="round" stroke-opacity="0.2" stroke-width="1.0"/>
    <path d="M265.8 396.6 Q263.7 400.05 267.1 399.4 273.4 398.55 277.55 395.95 279.65 394.65 281.35 392.75 282.8 391.0 283.75 388.95" fill="none" stroke="#000000" stroke-linecap="round" stroke-linejoin="round" stroke-opacity="0.101960786" stroke-width="1.0"/>
    <path d="M287.05 387.65 L287.2 387.45 287.7 387.6 287.05 387.65" fill="#444444" fill-rule="evenodd" stroke="none"/>
    <path d="M262.3 405.0 Q264.4 401.6 267.1 399.4 273.4 398.55 277.55 395.95 279.65 394.65 281.35 392.75 282.8 391.0 283.75 388.95 285.3 387.8 287.05 387.65 L287.7 387.6 Q293.05 389.4 296.1 394.25 299.9 400.3 298.05 407.5 296.25 414.65 289.75 418.75 283.3 422.8 276.0 421.4 268.7 420.0 264.9 414.05 262.25 409.8 262.3 405.0 M288.4 399.5 Q287.7 398.35 286.6 397.6 L285.45 397.35 Q281.45 396.85 277.8 399.25 274.0 401.55 272.75 405.35 L272.45 407.0 Q272.6 408.1 273.25 409.1 274.9 411.75 278.3 412.2 281.75 412.6 284.9 410.6 L286.8 409.1 Q288.4 407.55 289.05 405.4 290.05 402.2 288.4 399.5 M269.05 415.15 Q266.6 411.95 265.65 409.3 264.95 406.6 265.6 403.8 263.15 407.1 264.4 410.5 265.7 413.8 269.05 415.15" fill="url(#gradient0)" fill-rule="evenodd" stroke="none"/>
    <path d="M269.05 415.15 Q265.7 413.8 264.4 410.5 263.15 407.1 265.6 403.8 264.95 406.6 265.65 409.3 266.6 411.95 269.05 415.15" fill="#bdb9ca" fill-rule="evenodd" stroke="none"/>
    <path d="M262.3 405.0 Q262.4 402.95 263.0 400.8 264.8 393.6 271.3 389.55 L271.55 389.4 Q273.65 388.05 275.8 387.45 279.8 386.05 284.0 386.65 L285.1 386.85 287.2 387.45 287.05 387.65 Q285.3 387.8 283.75 388.95 282.8 391.0 281.35 392.75 279.65 394.65 277.55 395.95 273.4 398.55 267.1 399.4 264.4 401.6 262.3 405.0 M271.7 393.95 Q271.3 398.25 279.55 390.55 280.6 389.35 280.1 388.65 279.7 387.9 277.9 388.2 273.4 388.75 267.9 393.7 262.5 400.25 267.1 399.4 262.5 400.25 267.9 393.7 273.4 388.75 277.9 388.2 279.7 387.9 280.1 388.65 280.6 389.35 279.55 390.55 271.3 398.25 271.7 393.95" fill="url(#gradient1)" fill-rule="evenodd" stroke="none"/>
    <path d="M287.2 387.45 L285.1 386.85 284.0 386.65 Q279.8 386.05 275.8 387.45 273.65 388.05 271.55 389.4 L271.3 389.55 Q264.8 393.6 263.0 400.8 262.4 402.95 262.3 405.0 262.25 409.8 264.9 414.05 268.7 420.0 276.0 421.4 283.3 422.8 289.75 418.75 296.25 414.65 298.05 407.5 299.9 400.3 296.1 394.25 293.05 389.4 287.7 387.6 L287.2 387.45" fill="none" stroke="#000000" stroke-linecap="round" stroke-linejoin="round" stroke-opacity="0.3019608" stroke-width="1.0"/>
    <path d="M267.1 399.4 Q262.5 400.25 267.9 393.7 273.4 388.75 277.9 388.2 279.7 387.9 280.1 388.65 280.6 389.35 279.55 390.55 271.3 398.25 271.7 393.95 M267.1 399.4 Q273.4 398.55 277.55 395.95 279.65 394.65 281.35 392.75 282.8 391.0 283.75 388.95" fill="none" stroke="#000000" stroke-linecap="round" stroke-linejoin="round" stroke-opacity="0.101960786" stroke-width="0.5"/>
    <path d="M286.8 409.1 Q288.45 407.5 289.1 405.25 290.2 402.05 288.5 399.45 287.75 398.3 286.6 397.45 289.85 398.3 291.5 400.95 293.15 403.55 292.6 406.5 L290.1 406.65 292.0 408.65 Q291.3 410.35 290.1 411.75 290.2 409.2 286.8 409.1" fill="#f2db84" fill-rule="evenodd" stroke="none"/>
    <path d="M286.8 409.1 Q290.2 409.2 290.1 411.75 288.95 413.1 287.3 414.05 L286.0 414.85 Q281.95 414.6 280.35 412.15 282.65 411.95 284.95 410.55 L286.8 409.1 M292.0 408.65 L290.1 406.65 292.6 406.5 294.25 408.7 292.0 408.65" fill="#c18c4f" fill-rule="evenodd" stroke="none"/>
    <path d="M275.15 410.9 Q276.5 411.8 278.35 412.05 L280.35 412.15 Q281.95 414.6 286.0 414.85 283.15 416.3 280.1 415.95 275.45 412.75 275.15 410.9" fill="#b77a40" fill-rule="evenodd" stroke="none"/>
    <path d="M272.5 406.9 Q272.7 408.0 273.35 409.0 L273.5 409.2 Q274.2 410.3 275.15 410.9 275.45 412.75 280.1 415.95 L279.6 415.9 Q275.55 415.4 273.6 412.3 272.1 409.75 272.5 406.9" fill="#976c3b" fill-rule="evenodd" stroke="none"/>
    <path d="M286.6 397.45 Q287.75 398.3 288.5 399.45 290.2 402.05 289.1 405.25 288.45 407.5 286.8 409.1 L284.95 410.55 Q282.65 411.95 280.35 412.15 L278.35 412.05 Q276.5 411.8 275.15 410.9 274.2 410.3 273.5 409.2 L273.35 409.0 Q272.7 408.0 272.5 406.9 272.6 406.1 272.85 405.25 274.1 401.45 277.85 399.05 281.6 396.75 285.55 397.25 L286.6 397.45 Z" fill="none" stroke="#382510" stroke-linecap="round" stroke-linejoin="round" stroke-opacity="0.3019608" stroke-width="1.0"/>
    <path d="M280.2 391.15 Q279.85 387.5 278.2 387.55 L275.85 389.65 Q277.5 392.3 276.6 394.8 L275.2 395.65 271.9 397.2 Q268.4 395.8 268.65 392.4 266.9 393.0 265.15 393.7 264.65 394.9 267.15 397.4 262.45 395.1 265.05 391.05 L274.8 384.35 Q280.65 383.25 280.6 388.9 281.0 389.8 280.2 391.15" fill="#ceac60" fill-rule="evenodd" stroke="none"/>
    <path d="M276.6 394.8 Q277.5 392.3 275.85 389.65 L278.2 387.55 Q279.85 387.5 280.2 391.15 L279.65 391.95 Q278.5 393.5 276.6 394.8" fill="#c49d44" fill-rule="evenodd" stroke="none"/>
    <path d="M267.15 397.4 Q264.65 394.9 265.15 393.7 266.9 393.0 268.65 392.4 268.4 395.8 271.9 397.2 L269.75 397.65 267.4 397.5 267.2 397.35 267.15 397.4" fill="#d6bb7e" fill-rule="evenodd" stroke="none"/>
    <path d="M276.6 394.8 Q278.5 393.5 279.65 391.95 L280.2 391.15 Q281.0 389.8 280.6 388.9 280.65 383.25 274.8 384.35 L265.05 391.05 Q262.45 395.1 267.15 397.4 L267.2 397.35 267.4 397.5 269.75 397.65 271.9 397.2 275.2 395.65 276.6 394.8 Z" fill="none" stroke="#382510" stroke-linecap="round" stroke-linejoin="round" stroke-opacity="0.3019608" stroke-width="0.5"/>
    <path d="M264.8 393.4 Q264.05 392.15 265.6 390.1 L267.3 388.35 267.5 388.2 270.05 386.35 Q272.95 384.7 275.45 384.4 278.0 384.1 278.7 385.35 279.4 386.4 278.25 388.1 L277.95 388.55 277.7 388.85 276.85 389.8 275.15 391.25 274.15 391.95 273.45 392.3 271.25 393.45 269.55 394.05 269.35 394.1 265.0 393.65 264.8 393.4" fill="#eadbac" fill-rule="evenodd" stroke="none"/>
    <path d="M269.35 394.1 L268.0 394.3 Q265.8 394.55 265.0 393.65 L269.35 394.1" fill="#f4e8d7" fill-rule="evenodd" stroke="none"/>
    <path d="M264.8 393.4 Q264.05 392.15 265.6 390.1 L267.3 388.35 M267.5 388.2 L270.05 386.35 Q272.95 384.7 275.45 384.4 278.0 384.1 278.7 385.35 279.4 386.4 278.25 388.1 M276.85 389.8 L275.15 391.25 M271.25 393.45 L269.55 394.05" fill="none" stroke="#382510" stroke-linecap="round" stroke-linejoin="round" stroke-opacity="0.3019608" stroke-width="0.5"/>
    <path d="M268.9 387.2 L275.6 385.4 273.5 389.05 265.8 392.15 268.9 387.2 M270.05 388.45 L267.95 390.3 271.85 388.8 270.05 388.45 M271.7 387.3 L273.2 387.8 273.85 386.6 271.7 387.3" fill="#908484" fill-rule="evenodd" stroke="none"/>
    <path d="M273.5 389.05 L268.95 387.2 268.95 387.1 275.55 385.4 273.5 389.05 M271.7 387.3 L273.25 387.75 273.8 386.55 271.7 387.3" fill="#282020" fill-opacity="0.4" fill-rule="evenodd" stroke="none"/>
    <path d="M275.4 390.0 L272.75 390.3 275.3 388.75 277.05 388.75 275.4 390.0" fill="#908484" fill-rule="evenodd" stroke="none"/>
    <path d="M269.55 391.45 L272.25 390.95 272.25 392.15 268.1 393.95 269.55 391.45" fill="#908484" fill-rule="evenodd" stroke="none"/>
    <path d="M277.1 388.7 L275.85 389.65 274.2 389.35 275.3 388.7 277.1 388.7" fill="#282020" fill-opacity="0.4" fill-rule="evenodd" stroke="none"/>
    <path d="M275.5 387.35 L277.35 387.5 278.15 386.25 276.8 386.2 275.5 387.35" fill="#d5c8c8" fill-rule="evenodd" stroke="none"/>
    <path d="M276.75 386.25 L275.45 387.4 277.35 387.5 278.2 386.3 276.75 386.25" fill="#282020" fill-opacity="0.4" fill-rule="evenodd" stroke="none"/>
  </g>
  <defs>
    <linearGradient gradientTransform="matrix(0.0209, -0.0083, 0.0069, 0.0173, 281.25, 406.1)" gradientUnits="userSpaceOnUse" id="gradient0" spreadMethod="pad" x1="-819.2" x2="819.2">
      <stop offset="0.0" stop-color="#a8a5c9"/>
      <stop offset="1.0" stop-color="#6f7293"/>
    </linearGradient>
    <linearGradient gradientTransform="matrix(0.0107, -0.0068, 0.0029, 0.0045, 269.0, 396.15)" gradientUnits="userSpaceOnUse" id="gradient1" spreadMethod="pad" x1="-819.2" x2="819.2">
      <stop offset="0.0" stop-color="#767899"/>
      <stop offset="1.0" stop-color="#676a87"/>
    </linearGradient>
  </defs>
</svg>
