<?xml version="1.0" encoding="UTF-8" standalone="no"?>
<svg xmlns:xlink="http://www.w3.org/1999/xlink" height="48.45px" width="118.9px" xmlns="http://www.w3.org/2000/svg">
  <g transform="matrix(1.0, 0.0, 0.0, 1.0, -82.55, -377.8)">
    <path d="M179.6 407.75 L183.15 407.95 186.05 408.7 Q188.8 409.55 191.5 411.55 191.6 409.55 189.0 407.35 L188.0 406.95 Q185.7 406.25 182.7 406.85 180.95 407.1 179.6 407.75 M196.35 417.15 Q195.2 420.9 186.05 421.75 178.2 422.55 173.15 421.0 L169.6 419.55 167.0 418.45 166.85 418.05 Q166.45 417.05 165.45 415.95 L165.05 419.45 Q163.85 423.4 149.35 421.95 137.65 420.8 127.8 417.85 L123.3 416.35 119.15 414.0 120.75 415.65 115.75 415.25 Q110.2 414.6 106.85 413.6 96.3 410.45 89.8 406.9 82.55 402.9 83.35 399.9 80.95 406.35 87.85 410.1 95.9 414.45 104.05 416.7 112.2 418.95 124.8 418.75 128.55 420.95 134.15 422.65 143.75 425.5 153.2 426.0 163.45 426.5 165.85 423.15 L166.95 423.6 Q176.65 426.5 186.6 425.05 195.85 423.7 196.85 420.4 197.3 418.9 196.45 417.15 L196.35 417.15 M167.4 400.2 L165.15 398.85 164.25 399.25 Q162.3 400.1 161.2 400.95 L167.4 400.2 M129.25 394.45 L127.2 394.7 128.7 395.3 Q130.3 395.9 131.7 396.75 L130.75 395.8 129.25 394.45 M98.55 394.75 Q97.15 395.55 96.55 396.65 L101.95 397.55 103.9 398.2 104.7 398.65 103.25 397.2 Q101.15 395.5 99.0 394.9 L98.55 394.75 M157.85 406.55 L157.25 405.85 Q156.65 405.35 155.55 405.0 L153.15 404.2 Q149.0 402.95 140.05 402.4 130.85 401.75 129.45 403.05 L131.35 404.35 133.25 405.2 Q148.1 404.9 153.05 406.4 L156.5 407.7 Q157.75 407.4 158.3 406.95 L158.1 406.6 157.85 406.55 M120.75 415.65 L122.35 416.95 124.8 418.75 122.35 416.95 120.75 415.65 M165.85 423.15 Q166.6 422.6 166.85 421.85 167.4 419.95 167.0 418.45 167.4 419.95 166.85 421.85 166.6 422.6 165.85 423.15" fill="#c8992f" fill-rule="evenodd" stroke="none"/>
    <path d="M191.5 411.55 Q188.8 409.55 186.05 408.7 L183.15 407.95 179.6 407.75 Q180.95 407.1 182.7 406.85 185.7 406.25 188.0 406.95 L189.0 407.35 187.3 406.05 Q183.3 403.2 177.75 401.55 172.55 399.95 167.4 400.2 L161.2 400.95 Q162.3 400.1 164.25 399.25 L165.15 398.85 164.1 398.35 Q163.45 398.05 160.85 397.3 155.65 395.7 146.35 394.75 136.35 393.65 129.25 394.45 L130.75 395.8 131.7 396.75 Q130.3 395.9 128.7 395.3 L127.2 394.7 126.35 394.45 Q117.9 391.95 107.9 392.7 101.45 393.15 98.55 394.75 L99.0 394.9 Q101.15 395.5 103.25 397.2 L104.7 398.65 103.9 398.2 101.95 397.55 96.55 396.65 Q92.85 396.55 88.9 397.6 85.05 398.6 83.35 399.9 82.55 402.9 89.8 406.9 96.3 410.45 106.85 413.6 110.2 414.6 115.75 415.25 L120.75 415.65 119.15 414.0 123.3 416.35 127.8 417.85 Q137.65 420.8 149.35 421.95 163.85 423.4 165.05 419.45 L165.45 415.95 Q166.45 417.05 166.85 418.05 L167.0 418.45 169.6 419.55 173.15 421.0 Q178.2 422.55 186.05 421.75 195.2 420.9 196.35 417.15 L196.4 417.0 Q195.6 415.45 193.85 413.7 L191.5 411.55 M163.85 414.35 L165.45 415.95 163.85 414.35 M158.95 401.4 L161.2 400.95 158.95 401.4 M177.65 408.05 L179.6 407.75 177.65 408.05 M129.45 403.05 Q130.85 401.75 140.05 402.4 149.0 402.95 153.15 404.2 L155.55 405.0 Q156.65 405.35 157.25 405.85 L157.85 406.55 158.1 406.6 158.3 406.95 Q157.75 407.4 156.5 407.7 L149.8 408.25 Q142.45 408.15 136.45 406.35 L133.25 405.2 131.35 404.35 129.45 403.05 129.2 402.85 129.5 402.45 Q129.8 402.05 130.55 401.75 129.8 402.05 129.5 402.45 L129.2 402.85 129.45 403.05 M134.35 398.45 L131.7 396.75 134.35 398.45 M119.9 410.25 Q119.1 410.9 118.65 411.8 118.35 412.75 119.15 414.0 118.35 412.75 118.65 411.8 119.1 410.9 119.9 410.25 M106.6 400.0 Q105.7 399.25 104.7 398.65 105.7 399.25 106.6 400.0" fill="#dfbf75" fill-rule="evenodd" stroke="none"/>
    <path d="M191.5 411.55 Q188.8 409.55 186.05 408.7 L183.15 407.95 179.6 407.75 177.65 408.05 M189.0 407.35 Q191.6 409.55 191.5 411.55 L193.85 413.7 Q195.6 415.45 196.4 417.0 L196.45 417.15 Q197.3 418.9 196.85 420.4 195.85 423.7 186.6 425.05 176.65 426.5 166.95 423.6 L165.85 423.15 Q163.45 426.5 153.2 426.0 143.75 425.5 134.15 422.65 128.55 420.95 124.8 418.75 L122.35 416.95 120.75 415.65 119.15 414.0 Q118.35 412.75 118.65 411.8 119.1 410.9 119.9 410.25 M167.0 418.45 L166.85 418.05 Q166.45 417.05 165.45 415.95 L163.85 414.35 M189.0 407.35 L187.3 406.05 Q183.3 403.2 177.75 401.55 172.55 399.95 167.4 400.2 L165.15 398.85 164.1 398.35 Q163.45 398.05 160.85 397.3 155.65 395.7 146.35 394.75 136.35 393.65 129.25 394.45 L127.2 394.7 126.35 394.45 Q117.9 391.95 107.9 392.7 101.45 393.15 98.55 394.75 97.15 395.55 96.55 396.65 92.85 396.55 88.9 397.6 85.05 398.6 83.35 399.9 80.95 406.35 87.85 410.1 95.9 414.45 104.05 416.7 112.2 418.95 124.8 418.75 M161.2 400.95 L158.95 401.4 M157.85 406.55 L158.1 406.6 158.3 406.95 Q157.75 407.4 156.5 407.7 L153.05 406.4 Q148.1 404.9 133.25 405.2 L131.35 404.35 129.45 403.05 129.2 402.85 129.5 402.45 Q129.8 402.05 130.55 401.75 M156.5 407.7 L149.8 408.25 Q142.45 408.15 136.45 406.35 L133.25 405.2 M127.2 394.7 L128.7 395.3 Q130.3 395.9 131.7 396.75 L134.35 398.45 M167.4 400.2 L161.2 400.95 M96.55 396.65 L101.95 397.55 103.9 398.2 104.7 398.65 Q105.7 399.25 106.6 400.0 M167.0 418.45 Q167.4 419.95 166.85 421.85 166.6 422.6 165.85 423.15" fill="none" stroke="#000000" stroke-linecap="round" stroke-linejoin="round" stroke-opacity="0.4" stroke-width="0.4"/>
    <path d="M106.0 390.75 Q112.55 388.75 119.3 386.25 124.15 384.75 131.1 384.75 139.5 384.75 151.9 389.4 161.2 392.9 164.25 395.0 169.8 398.85 182.4 403.8 190.75 407.1 190.75 410.5 190.75 413.9 185.25 415.75 180.7 417.25 174.35 417.25 L165.2 416.25 157.75 415.25 155.15 415.65 150.1 416.0 142.2 415.15 133.75 413.5 125.05 412.7 Q118.45 412.2 116.75 411.25 115.45 410.5 110.7 409.35 L101.7 407.15 Q90.0 404.0 90.0 400.25 90.0 398.4 91.65 396.4 L92.0 396.0 Q92.7 395.2 93.55 394.75 95.7 392.6 98.45 392.05 L106.0 390.75" fill="#6a4d2d" fill-rule="evenodd" stroke="none"/>
    <path d="M118.0 379.65 L120.65 379.05 121.4 379.65 123.95 382.15 Q121.15 380.75 118.0 379.65 M157.5 385.15 L159.45 386.0 157.75 386.1 154.35 386.65 Q154.9 386.35 155.6 386.0 L157.5 385.15 M187.8 394.25 Q188.95 395.45 189.15 396.7 L183.6 396.0 181.4 396.05 180.5 396.25 182.4 395.25 Q185.0 394.25 187.3 394.25 L187.8 394.25 M201.25 403.6 Q201.7 410.45 193.7 412.1 184.45 413.9 175.7 413.75 166.95 413.55 154.55 409.7 150.15 410.75 144.1 410.75 133.75 410.75 124.25 408.5 113.95 406.05 112.55 402.15 L111.35 402.25 Q100.9 402.25 91.5 398.0 82.75 394.05 82.75 390.6 82.75 389.05 84.15 387.55 L84.25 387.6 Q84.25 391.55 93.0 395.0 100.55 398.0 106.0 398.0 L109.95 397.65 112.9 397.3 113.15 396.95 115.15 395.35 114.5 398.85 Q114.5 402.95 129.25 405.75 141.2 408.0 151.85 408.0 L156.75 407.9 161.55 406.8 159.5 407.95 164.5 409.0 173.85 410.0 Q185.25 410.0 192.75 408.45 201.15 406.7 201.25 403.6 M90.75 383.65 Q91.25 381.7 94.45 380.35 L95.6 380.25 Q98.1 380.25 100.9 381.65 L103.65 383.45 Q101.95 382.85 100.1 382.6 L97.0 382.5 Q94.05 382.5 90.75 383.65 M126.5 390.05 L125.0 388.75 125.25 388.5 125.5 388.5 126.35 388.05 128.25 387.65 130.9 387.6 Q135.4 387.6 144.4 389.65 153.7 391.7 154.7 393.35 L152.4 394.0 150.25 394.35 Q135.7 389.75 130.35 389.75 L126.5 390.05 M112.55 402.15 Q112.0 401.4 112.0 400.6 112.0 398.6 112.9 397.3 112.0 398.6 112.0 400.6 112.0 401.4 112.55 402.15 M159.5 407.95 L157.5 408.75 154.55 409.7 157.5 408.75 159.5 407.95" fill="#c8992f" fill-rule="evenodd" stroke="none"/>
    <path d="M94.45 380.35 Q95.35 379.9 96.55 379.55 101.4 378.0 107.35 378.0 113.0 378.0 118.0 379.65 121.15 380.75 123.95 382.15 L121.4 379.65 120.65 379.05 121.85 378.85 125.35 378.75 Q131.0 378.75 140.5 380.5 150.7 382.35 157.5 385.15 L155.6 386.0 Q154.9 386.35 154.35 386.65 L157.75 386.1 159.45 386.0 160.35 386.0 Q169.5 386.0 179.15 389.6 185.4 391.9 187.8 394.25 L187.3 394.25 Q185.0 394.25 182.4 395.25 L180.5 396.25 181.4 396.05 183.6 396.0 189.15 396.7 Q192.9 397.6 196.5 399.75 199.95 401.85 201.25 403.6 201.15 406.7 192.75 408.45 185.25 410.0 173.85 410.0 L164.5 409.0 159.5 407.95 161.55 406.8 Q162.75 405.85 162.75 404.85 162.55 403.85 162.0 403.0 162.55 403.85 162.75 404.85 162.75 405.85 161.55 406.8 L156.75 407.9 151.85 408.0 Q141.2 408.0 129.25 405.75 114.5 402.95 114.5 398.85 L115.15 395.35 113.15 396.95 112.9 397.3 109.95 397.65 106.0 398.0 Q100.55 398.0 93.0 395.0 84.25 391.55 84.25 387.6 L84.25 387.45 Q85.5 386.2 87.75 385.0 89.4 384.15 90.75 383.65 94.05 382.5 97.0 382.5 L100.1 382.6 Q101.95 382.85 103.65 383.45 L100.9 381.65 Q98.1 380.25 95.6 380.25 L94.45 380.35 M105.5 384.25 Q104.6 383.8 103.65 383.45 104.6 383.8 105.5 384.25 M117.25 394.25 L115.15 395.35 117.25 394.25 M126.0 383.25 L123.95 382.15 126.0 383.25 M125.5 388.5 L125.25 388.5 125.0 388.75 126.5 390.05 Q128.5 391.2 132.95 392.45 140.25 394.5 146.75 394.5 L150.25 394.35 152.4 394.0 154.7 393.35 Q153.7 391.7 144.4 389.65 135.4 387.6 130.9 387.6 L128.25 387.65 126.35 388.05 125.5 388.5 M151.25 387.5 L154.35 386.65 151.25 387.5 M154.0 391.75 L154.85 392.75 155.0 393.25 154.7 393.35 155.0 393.25 154.85 392.75 154.0 391.75 M178.25 397.0 L180.5 396.25 178.25 397.0" fill="#dfbf75" fill-rule="evenodd" stroke="none"/>
    <path d="M94.45 380.35 Q95.35 379.9 96.55 379.55 101.4 378.0 107.35 378.0 113.0 378.0 118.0 379.65 L120.65 379.05 121.85 378.85 125.35 378.75 Q131.0 378.75 140.5 380.5 150.7 382.35 157.5 385.15 L159.45 386.0 160.35 386.0 Q169.5 386.0 179.15 389.6 185.4 391.9 187.8 394.25 188.95 395.45 189.15 396.7 192.9 397.6 196.5 399.75 199.95 401.85 201.25 403.6 201.7 410.45 193.7 412.1 184.45 413.9 175.7 413.75 166.95 413.55 154.55 409.7 150.15 410.75 144.1 410.75 133.75 410.75 124.25 408.5 113.95 406.05 112.55 402.15 L111.35 402.25 Q100.9 402.25 91.5 398.0 82.75 394.05 82.75 390.6 82.75 389.05 84.15 387.55 L84.25 387.45 Q85.5 386.2 87.75 385.0 89.4 384.15 90.75 383.65 91.25 381.7 94.45 380.35 M103.65 383.45 Q104.6 383.8 105.5 384.25 M90.75 383.65 Q94.05 382.5 97.0 382.5 L100.1 382.6 Q101.95 382.85 103.65 383.45 M112.9 397.3 L113.15 396.95 115.15 395.35 117.25 394.25 M123.95 382.15 L126.0 383.25 M125.5 388.5 L125.25 388.5 125.0 388.75 126.5 390.05 130.35 389.75 Q135.7 389.75 150.25 394.35 L152.4 394.0 154.7 393.35 155.0 393.25 154.85 392.75 154.0 391.75 M126.5 390.05 Q128.5 391.2 132.95 392.45 140.25 394.5 146.75 394.5 L150.25 394.35 M159.45 386.0 L157.75 386.1 154.35 386.65 151.25 387.5 M118.0 379.65 Q121.15 380.75 123.95 382.15 M189.15 396.7 L183.6 396.0 181.4 396.05 180.5 396.25 178.25 397.0 M161.55 406.8 Q162.75 405.85 162.75 404.85 162.55 403.85 162.0 403.0 M159.5 407.95 L161.55 406.8 M154.55 409.7 L157.5 408.75 159.5 407.95 M112.9 397.3 Q112.0 398.6 112.0 400.6 112.0 401.4 112.55 402.15" fill="none" stroke="#000000" stroke-linecap="round" stroke-linejoin="round" stroke-opacity="0.4" stroke-width="0.4"/>
  </g>
</svg>
