<?xml version="1.0" encoding="UTF-8" standalone="no"?>
<svg xmlns:xlink="http://www.w3.org/1999/xlink" height="263.65px" width="133.65px" xmlns="http://www.w3.org/2000/svg">
  <g transform="matrix(1.0, 0.0, 0.0, 1.0, -208.6, -68.65)">
    <path d="M341.5 297.6 L341.85 297.6 342.25 298.0 341.15 297.6 341.5 297.6 M328.55 297.75 L323.6 297.8 328.55 297.4 328.55 297.75 M305.3 301.5 Q304.95 301.5 304.55 301.9 304.55 301.5 304.95 301.5 L305.3 301.5" fill="#555ba0" fill-rule="evenodd" stroke="none"/>
    <path d="M250.85 331.55 Q250.85 331.9 251.25 331.9 L250.85 331.9 250.85 331.55" fill="#fe8181" fill-rule="evenodd" stroke="none"/>
    <path d="M323.6 297.8 L305.7 301.5 305.3 301.5 304.95 301.5 Q291.6 275.75 296.15 242.2 300.75 274.1 328.55 297.4 L323.6 297.8 M283.2 320.1 L272.15 320.2 Q259.25 320.0 252.35 323.45 245.5 269.85 264.55 204.1 264.95 286.4 283.2 320.1 M228.85 103.25 Q226.7 100.05 222.9 98.3 217.6 95.85 209.7 99.15 L208.85 98.45 Q208.7 98.3 208.7 96.65 208.7 94.0 211.45 92.25 L215.7 92.15 Q224.65 92.15 227.35 97.05 228.6 99.35 228.85 103.25 M278.5 81.4 Q276.85 79.7 273.2 78.45 265.35 75.8 259.7 79.15 263.7 73.35 265.2 72.6 265.7 72.3 268.8 71.15 273.1 71.25 275.75 73.2 278.7 75.3 278.7 79.15 L278.5 81.4" fill="#a90101" fill-rule="evenodd" stroke="none"/>
    <path d="M268.8 71.15 L273.65 69.35 Q281.25 66.5 291.2 77.4 298.85 86.05 301.1 96.65 L301.5 97.8 303.8 149.9 303.8 151.45 Q304.95 183.45 307.95 208.15 L307.95 209.3 Q311.4 262.55 333.1 290.85 L341.5 297.6 341.15 297.6 328.55 297.75 328.55 297.4 Q300.75 274.1 296.15 242.2 291.6 275.75 304.95 301.5 304.55 301.5 304.55 301.9 L303.0 304.2 302.65 307.65 302.65 309.15 Q301.1 316.4 294.65 318.4 290.45 319.6 284.0 320.05 L283.2 320.1 Q264.95 286.4 264.55 204.1 245.5 269.85 252.35 323.45 L250.85 324.65 245.9 327.0 Q226.45 306.7 224.2 280.45 L224.95 271.65 Q225.7 254.9 229.9 216.75 233.7 180.9 234.45 161.1 235.6 130.8 230.85 106.4 L231.7 107.15 230.85 106.4 230.65 105.55 230.3 106.0 228.85 103.25 Q228.6 99.35 227.35 97.05 224.65 92.15 215.7 92.15 L211.45 92.25 Q213.4 91.0 216.7 90.2 221.05 89.15 225.7 89.15 233.75 89.15 238.9 91.75 244.5 94.55 247.65 100.75 263.9 95.3 276.9 87.5 L279.4 85.95 Q280.3 83.35 278.5 81.4 L278.7 79.15 Q278.7 75.3 275.75 73.2 273.1 71.25 268.8 71.15 M292.7 80.15 Q291.3 79.25 291.2 77.4 291.3 79.25 292.7 80.15 M248.7 103.15 L247.65 100.75 248.7 103.15" fill="#ec0202" fill-rule="evenodd" stroke="none"/>
    <path d="M245.9 327.0 L250.85 331.5 250.85 331.55 250.85 331.9 Q233.35 333.6 224.2 325.8 L224.2 280.45 Q226.45 306.7 245.9 327.0" fill="#f8a832" fill-rule="evenodd" stroke="none"/>
    <path d="M341.5 297.6 L341.85 297.6 342.25 298.0 341.15 297.6 M328.55 297.75 L323.6 297.8 305.7 301.5 305.3 301.5" fill="none" stroke="#0f121c" stroke-linecap="round" stroke-linejoin="round" stroke-width="0.05"/>
    <path d="M268.8 71.15 L273.65 69.35 Q281.25 66.5 291.2 77.4 298.85 86.05 301.1 96.65 L301.5 97.8 303.8 149.9 303.8 151.45 Q304.95 183.45 307.95 208.15 L307.95 209.3 Q311.4 262.55 333.1 290.85 L341.5 297.6 341.15 297.6 328.55 297.75 328.55 297.4 M304.55 301.9 L303.0 304.2 302.65 307.65 302.65 309.15 Q301.1 316.4 294.65 318.4 290.45 319.6 284.0 320.05 L283.2 320.1 272.15 320.2 Q259.25 320.0 252.35 323.45 L250.85 324.65 245.9 327.0 250.85 331.5 250.85 331.55 Q250.85 331.9 251.25 331.9 L250.85 331.9 Q233.35 333.6 224.2 325.8 L224.2 280.45 224.95 271.65 Q225.7 254.9 229.9 216.75 233.7 180.9 234.45 161.1 235.6 130.8 230.85 106.4 L230.3 106.0 228.85 103.25 Q226.7 100.05 222.9 98.3 217.6 95.85 209.7 99.15 L208.85 98.45 Q208.7 98.3 208.7 96.65 208.7 94.0 211.45 92.25 213.4 91.0 216.7 90.2 221.05 89.15 225.7 89.15 233.75 89.15 238.9 91.75 244.5 94.55 247.65 100.75 263.9 95.3 276.9 87.5 L279.4 85.95 Q280.3 83.35 278.5 81.4 276.85 79.7 273.2 78.45 265.35 75.8 259.7 79.15 263.7 73.35 265.2 72.6 265.7 72.3 268.8 71.15 273.1 71.25 275.75 73.2 278.7 75.3 278.7 79.15 L278.5 81.4 M291.2 77.4 Q291.3 79.25 292.7 80.15 M211.45 92.25 L215.7 92.15 Q224.65 92.15 227.35 97.05 228.6 99.35 228.85 103.25 M247.65 100.75 L248.7 103.15 M230.85 106.4 L231.7 107.15 M230.65 105.55 L230.85 106.4 M304.95 301.5 Q304.55 301.5 304.55 301.9 M245.9 327.0 Q226.45 306.7 224.2 280.45" fill="none" stroke="#0f121c" stroke-linecap="round" stroke-linejoin="round" stroke-opacity="0.4117647" stroke-width="0.25"/>
  </g>
</svg>
