<?xml version="1.0" encoding="UTF-8" standalone="no"?>
<svg xmlns:xlink="http://www.w3.org/1999/xlink" height="69.25px" width="173.1px" xmlns="http://www.w3.org/2000/svg">
  <g transform="matrix(1.0, 0.0, 0.0, 1.0, -188.9, -165.85)">
    <path d="M241.75 173.45 Q247.9 170.85 254.7 168.45 L255.45 168.3 257.75 169.0 261.55 169.95 261.5 170.0 257.95 171.0 256.65 171.55 Q256.85 171.5 257.0 171.75 268.75 171.75 271.25 171.45 277.7 170.9 283.9 168.6 L289.15 170.65 286.85 171.7 Q283.35 173.15 274.85 174.15 L259.6 174.65 259.65 174.8 259.85 174.7 260.1 175.15 260.15 175.95 Q258.1 176.4 248.75 174.75 L241.75 173.45" fill="#ae8a37" fill-rule="evenodd" stroke="none"/>
    <path d="M255.45 168.3 Q271.45 164.4 283.0 168.3 L283.9 168.6 Q277.7 170.9 271.25 171.45 268.75 171.75 257.0 171.75 256.85 171.5 256.65 171.55 L257.95 171.0 261.5 170.0 261.65 169.95 261.55 169.95 257.75 169.0 255.45 168.3" fill="#8d702e" fill-rule="evenodd" stroke="none"/>
    <path d="M261.5 170.0 L261.55 169.95 261.65 169.95 261.5 170.0" fill="#876b2c" fill-rule="evenodd" stroke="none"/>
    <path d="M235.15 176.3 Q238.35 174.8 241.75 173.45 L248.75 174.75 Q258.1 176.4 260.15 175.95 L260.1 175.15 259.85 174.7 259.65 174.8 259.6 174.65 274.85 174.15 Q283.35 173.15 286.85 171.7 L289.15 170.65 301.25 175.5 291.15 179.65 270.1 179.3 271.15 181.75 261.1 180.55 264.7 181.6 255.3 183.35 243.7 180.2 235.15 176.3" fill="#dcc592" fill-rule="evenodd" stroke="none"/>
    <path d="M218.25 184.65 Q225.85 180.35 235.15 176.3 L243.7 180.2 255.3 183.35 264.7 181.6 261.1 180.55 271.15 181.75 270.1 179.3 291.15 179.65 301.25 175.5 309.45 179.15 299.2 183.6 279.45 187.95 294.05 188.15 308.05 184.4 313.85 181.1 317.65 182.9 316.7 184.05 314.85 185.35 314.8 185.25 313.9 185.65 314.8 185.35 Q314.45 185.7 312.35 186.05 308.9 186.7 307.45 187.35 309.25 188.05 310.1 188.5 L309.9 188.6 279.2 196.55 272.75 196.2 Q265.95 195.9 260.1 197.15 256.6 197.9 255.25 196.7 253.4 195.15 250.9 195.1 L251.8 197.05 242.75 195.7 235.3 193.7 Q230.35 192.3 227.25 191.85 L222.85 192.1 Q221.9 192.35 221.0 190.9 220.1 189.35 218.25 184.65" fill="#eacea6" fill-rule="evenodd" stroke="none"/>
    <path d="M317.65 182.9 L321.05 184.6 322.35 185.2 319.0 189.6 Q317.8 190.5 315.4 191.55 314.35 192.0 311.8 194.1 L309.2 196.2 305.8 197.1 302.45 197.65 308.7 192.4 294.1 197.25 262.95 202.0 275.3 202.8 Q270.55 205.95 257.4 205.3 243.35 204.5 233.9 200.35 L234.2 201.05 Q234.95 202.5 236.05 203.2 L237.2 203.9 218.1 202.25 Q208.45 200.3 202.1 195.4 208.9 189.9 218.25 184.65 220.1 189.35 221.0 190.9 221.9 192.35 222.85 192.1 L227.25 191.85 Q230.35 192.3 235.3 193.7 L242.75 195.7 251.8 197.05 250.9 195.1 Q253.4 195.15 255.25 196.7 256.6 197.9 260.1 197.15 265.95 195.9 272.75 196.2 L279.2 196.55 309.9 188.6 310.15 188.5 310.1 188.5 Q309.25 188.05 307.45 187.35 308.9 186.7 312.35 186.05 314.45 185.7 314.8 185.35 L314.85 185.35 316.7 184.05 317.65 182.9 M336.85 192.85 Q338.15 193.6 339.4 194.2 L340.65 194.95 337.75 197.95 Q335.3 200.2 333.65 200.9 L329.6 202.15 Q326.55 203.5 322.15 206.15 317.8 208.75 314.65 210.15 309.6 212.35 305.0 213.55 L290.5 217.0 Q288.35 217.6 280.45 215.5 273.35 213.7 270.25 212.25 L270.3 212.0 283.8 210.05 293.5 208.35 284.4 210.45 301.35 209.65 319.35 204.15 331.65 197.8 336.85 192.85" fill="#f9e6d2" fill-rule="evenodd" stroke="none"/>
    <path d="M324.4 186.25 L332.15 190.25 322.1 197.65 Q303.05 205.35 296.55 207.3 L296.5 207.3 296.2 207.45 293.65 208.25 Q293.5 208.25 293.5 208.35 L283.8 210.05 270.3 212.0 Q270.2 212.1 270.05 212.15 L270.25 212.25 Q273.35 213.7 280.45 215.5 288.35 217.6 290.5 217.0 L305.0 213.55 Q309.6 212.35 314.65 210.15 317.8 208.75 322.15 206.15 326.55 203.5 329.6 202.15 L333.65 200.9 Q335.3 200.2 337.75 197.95 L340.65 194.95 342.9 196.25 345.25 197.8 336.8 204.0 325.9 208.75 338.0 208.05 349.8 201.05 Q352.05 202.8 353.5 204.55 L354.6 205.85 352.05 209.25 340.1 217.15 325.2 221.8 339.15 221.0 350.95 215.85 356.6 211.5 Q356.35 214.8 352.3 217.65 327.8 229.7 295.25 232.75 238.55 239.5 197.3 221.65 180.85 214.45 198.7 198.4 L202.1 195.4 Q208.45 200.3 218.1 202.25 L237.2 203.9 236.05 203.2 Q234.95 202.5 234.2 201.05 L233.9 200.35 Q243.35 204.5 257.4 205.3 270.55 205.95 275.3 202.8 L282.1 203.25 300.65 199.05 302.45 197.65 305.8 197.1 309.2 196.2 311.8 194.1 Q314.35 192.0 315.4 191.55 317.8 190.5 319.0 189.6 L316.2 193.35 323.75 188.15 324.4 186.25 M237.2 203.9 L237.45 204.15 237.3 203.95 237.2 203.9 M320.55 216.2 L315.2 214.2 289.5 219.65 272.95 220.45 280.3 222.8 306.05 221.1 314.5 217.45 317.95 218.55 320.55 216.2 M255.55 211.65 L263.55 208.15 247.2 207.8 232.0 205.65 224.6 203.85 229.55 209.2 240.5 212.35 245.75 212.2 246.3 209.85 248.75 212.95 248.45 210.15 255.55 211.65" fill="#fefaf8" fill-rule="evenodd" stroke="none"/>
    <path d="M309.45 179.15 L320.65 174.75 317.05 179.25 313.85 181.1 308.05 184.4 294.05 188.15 279.45 187.95 299.2 183.6 309.45 179.15 M321.05 184.6 L325.35 182.7 324.4 186.25 323.75 188.15 316.2 193.35 319.0 189.6 322.35 185.2 321.05 184.6 M332.15 190.25 L340.5 189.35 336.85 192.85 331.65 197.8 319.35 204.15 301.35 209.65 284.4 210.45 293.5 208.35 Q293.5 208.25 293.65 208.25 L296.2 207.45 296.5 207.3 296.55 207.3 Q303.05 205.35 322.1 197.65 L332.15 190.25 M342.9 196.25 L350.65 196.35 349.8 201.05 338.0 208.05 325.9 208.75 336.8 204.0 345.25 197.8 342.9 196.25 M353.5 204.55 L357.45 202.8 358.55 205.35 361.5 205.95 357.65 206.85 358.95 209.7 356.6 211.5 350.95 215.85 339.15 221.0 325.2 221.8 340.1 217.15 352.05 209.25 354.6 205.85 353.5 204.55 M302.45 197.65 L300.65 199.05 282.1 203.25 275.3 202.8 262.95 202.0 294.1 197.25 308.7 192.4 302.45 197.65 M320.55 216.2 L317.95 218.55 314.5 217.45 306.05 221.1 280.3 222.8 272.95 220.45 289.5 219.65 315.2 214.2 320.55 216.2 M255.55 211.65 L248.45 210.15 248.75 212.95 246.3 209.85 245.75 212.2 240.5 212.35 229.55 209.2 224.6 203.85 232.0 205.65 247.2 207.8 263.55 208.15 255.55 211.65" fill="#8a714a" fill-rule="evenodd" stroke="none"/>
    <path d="M218.25 184.65 Q225.85 180.35 235.15 176.3 238.35 174.8 241.75 173.45 247.9 170.85 254.7 168.45 L255.45 168.3 Q271.45 164.4 283.0 168.3 L283.9 168.6 289.15 170.65 301.25 175.5 309.45 179.15 M313.85 181.1 L317.65 182.9 321.05 184.6 M324.4 186.25 L332.15 190.25 M336.85 192.85 Q338.15 193.6 339.4 194.2 L340.65 194.95 342.9 196.25 M349.8 201.05 Q352.05 202.8 353.5 204.55 M356.6 211.5 Q356.35 214.8 352.3 217.65 327.8 229.7 295.25 232.75 238.55 239.5 197.3 221.65 180.85 214.45 198.7 198.4 L202.1 195.4 Q208.9 189.9 218.25 184.65" fill="none" stroke="#000000" stroke-linecap="round" stroke-linejoin="round" stroke-opacity="0.4" stroke-width="0.2"/>
    <path d="M353.6 204.55 L357.5 202.75 358.65 205.3 361.5 205.95 357.65 206.8 358.95 209.7 356.7 211.45 Q356.4 214.75 352.35 217.65 327.85 229.7 295.3 232.7 238.55 239.5 197.35 221.65 180.85 214.45 198.7 198.35 L202.1 195.4 Q208.95 189.85 218.3 184.6 225.9 180.3 235.2 176.25 238.4 174.8 241.8 173.45 247.95 170.85 254.75 168.45 L255.45 168.3 Q271.5 164.4 283.1 168.3 L283.95 168.6 289.15 170.6 301.25 175.45 309.55 179.15 320.65 174.7 317.0 179.25 Q315.45 180.1 313.85 181.05 L317.7 182.9 321.15 184.6 325.4 182.7 324.4 186.2 332.1 190.2 340.55 189.35 336.9 192.8 339.45 194.25 340.65 194.95 342.95 196.2 350.7 196.35 349.8 201.05 353.6 204.55 Z" fill="none" stroke="#000000" stroke-linecap="round" stroke-linejoin="round" stroke-opacity="0.4" stroke-width="1.0"/>
  </g>
</svg>
